<svg xmlns:xlink="http://www.w3.org/1999/xlink" height="33.2" width="40.2" xmlns="http://www.w3.org/2000/svg"><use height="33.2" width="40.2" xlink:href="#a"/><use height="30.2" transform="translate(1.5 1.5)" width="37.2" xlink:href="#b"/><use height="27.2" transform="translate(3 3)" width="34.2" xlink:href="#c"/><use height="23.2" transform="translate(5 5)" width="30.2" xlink:href="#d"/><use height="50" transform="matrix(.25 0 0 .25 22.7 5.013)" width="50" xlink:href="#e"/><use height="50" transform="matrix(.25 0 0 .25 18.4 1.513)" width="50" xlink:href="#f"/><use height="50" transform="matrix(.25 0 0 .25 26.8 9.763)" width="50" xlink:href="#f"/><defs><path d="m37.05 10.1.2.2-.2-.15.65.6.5.5.2.2q1.8 2.2 1.8 5.15t-1.8 5.25l-.25.3-10.25 9.8-.85.55q-1.6.7-3.45.7-3 0-5.25-1.9l-.3-.3-.75-.85-.1-.15q-1.7-2.15-1.7-4.9v-.35H8.15q-2.5 0-4.45-1.25l-.4-.3-.9-.8-.2-.2Q0 19.85 0 16.6q-.05-3.2 2.4-5.7h-.05q2.25-2.45 5.8-2.4h7.35v-.35q0-3.25 2.25-5.55Q20.2 0 23.6 0q3.2 0 5.5 2.15l.1.1 7.85 7.85" fill="#ff0559" fill-opacity=".2" fill-rule="evenodd" id="k"/><path d="M35.25 10.45h.05q1.9 1.9 1.9 4.65 0 2.7-1.8 4.65l-.45.4-8.2 8.15h.05q-1.95 1.9-4.7 1.9t-4.65-1.9l-.05-.05q-1.9-2-1.9-4.65 0-1 .25-1.85h-9.1q-2.8 0-4.7-1.9l-.05-.05Q0 17.8 0 15.1t1.85-4.6l.1-.05q1.85-2 4.7-1.95h9.1l-.25-1.85q0-2.7 1.85-4.6l.1-.05q1.85-2 4.65-2 2.8 0 4.75 2.05l.25.3 8.15 8.1" fill="#fff" fill-rule="evenodd" id="l"/><path d="M19.85 22.95v-.05h-.05l.05.05m-15.5-8.5H4.3l.05.05v-.05M20.6 0q2.1 0 3.6 1.55l.05.05L32.7 10h.05q1.45 1.45 1.45 3.6 0 2.1-1.45 3.65l-.05.05-8.5 8.45h.05q-1.5 1.45-3.65 1.45T17 25.75l-.05-.05q-1.45-1.55-1.45-3.6 0-1.95 1.25-3.35H5.15q-2.2 0-3.65-1.45l-.05-.05Q0 15.7 0 13.6q0-2.15 1.5-3.6l-.05.05q1.5-1.6 3.7-1.55h11.6Q15.5 7 15.5 5.15q0-2.15 1.5-3.6l-.05.05Q18.45 0 20.6 0m-.75 6v-.05h-.05l.05.05" fill="url(#g)" fill-rule="evenodd" id="m"/><path d="M16.4 5.35q-.9-.95-.9-2.2 0-1.3.9-2.2.9-.95 2.2-.95 1.3 0 2.2.95l8.5 8.45q.9.9.9 2.2 0 1.3-.9 2.25l-8.5 8.45q-.9.9-2.2.9-1.3 0-2.2-.9-.9-.95-.9-2.2 0-1.3.9-2.2l3.15-3.15H3.15q-1.35 0-2.25-.9Q0 12.9 0 11.6t.9-2.2q.9-.95 2.25-.9h16.4L16.4 5.35" fill="url(#h)" fill-rule="evenodd" id="n"/><path d="M0-24.95q10.3 0 17.6 7.3Q24.95-10.3 25 .05q-.05 10.3-7.4 17.6Q10.3 25 0 25.05q-10.35-.05-17.7-7.4-7.3-7.3-7.3-17.6 0-10.35 7.3-17.7 7.35-7.3 17.7-7.3" fill="url(#i)" fill-rule="evenodd" transform="translate(25 24.95)" id="o"/><path d="M0-24.95q10.3 0 17.6 7.3Q24.95-10.3 25 .05q-.05 10.3-7.4 17.6Q10.3 25 0 25.05q-10.35-.05-17.7-7.4-7.3-7.3-7.3-17.6 0-10.35 7.3-17.7 7.35-7.3 17.7-7.3" fill="url(#j)" fill-rule="evenodd" transform="translate(25 24.95)" id="p"/><use height="33.2" width="40.2" xlink:href="#k" id="a"/><use height="30.2" width="37.2" xlink:href="#l" id="b"/><use height="27.2" width="34.2" xlink:href="#m" id="c"/><use height="23.2" width="30.2" xlink:href="#n" id="d"/><use height="50" width="50" xlink:href="#o" id="e"/><use height="50" width="50" xlink:href="#p" id="f"/><radialGradient cx="0" cy="0" gradientTransform="scale(.0307)" gradientUnits="userSpaceOnUse" id="i" r="819.2" spreadMethod="pad"><stop offset=".337" stop-color="#fff"/><stop offset="1" stop-color="#fff" stop-opacity="0"/></radialGradient><radialGradient cx="0" cy="0" gradientTransform="scale(.0307)" gradientUnits="userSpaceOnUse" id="j" r="819.2" spreadMethod="pad"><stop offset="0" stop-color="#fff"/><stop offset="1" stop-color="#fff" stop-opacity="0"/></radialGradient><linearGradient gradientTransform="matrix(.0182 -.0101 .0081 .0145 19.7 15.2)" gradientUnits="userSpaceOnUse" id="g" spreadMethod="pad" x1="-819.2" x2="819.2"><stop offset="0" stop-color="#8f0149"/><stop offset="1" stop-color="#f39"/></linearGradient><linearGradient gradientTransform="matrix(.0115 -.0073 .0076 .0119 15.25 12.8)" gradientUnits="userSpaceOnUse" id="h" spreadMethod="pad" x1="-819.2" x2="819.2"><stop offset="0" stop-color="#ff8ac5"/><stop offset="1" stop-color="#fff"/></linearGradient></defs></svg>