<svg width="31.1" height="35.2" xmlns="http://www.w3.org/2000/svg"><path d="M55.85 18.45h-.55c-4.167 0-7.483 1.083-9.95 3.25-2.433 2.1-3.933 5.083-4.5 8.95l-.05.35-.1 9.4.15 1.8c.7 4.733 2.767 7.9 6.2 9.5 3.427 1.597 2.702 1.303 4.15 1.65 1.058.254 5.05.3 5.05.3s3.992-.046 5.05-.3c1.448-.347.723-.053 4.15-1.65 3.433-1.6 5.5-4.767 6.2-9.5l.15-1.8-.1-9.4-.05-.35c-.567-3.867-2.067-6.85-4.5-8.95-2.467-2.167-5.783-3.25-9.95-3.25h-1.35z" style="fill:#2682b1;fill-opacity:1" transform="translate(-40.7 -18.45)"/><path d="M56.25 51.75c-.584.007-1.167-.058-1.75-.1-.951-.069-2.85-.25-2.85-.25-1.095-.096-2.303-.794-3.75-1.5-2.72-1.327-4.433-3.967-5.1-8v-.3l-.1-.95v-8.2l.1-1.3.05-.25c.467-3.333 1.75-5.9 3.85-7.7 2.033-1.833 4.9-2.75 8.6-2.75l.497.019.453-.069m0 31.35c.584.007 1.167-.058 1.75-.1.951-.069 2.85-.25 2.85-.25 1.095-.096 2.303-.794 3.75-1.5 2.72-1.327 4.433-3.967 5.1-8v-.3l.1-.95v-8.2l-.1-1.3-.05-.25c-.467-3.333-1.75-5.9-3.85-7.7-2.033-1.833-4.9-2.75-8.6-2.75h-.5l-.903.019.453-.069" style="fill:#fff;fill-opacity:1;fill-rule:evenodd" transform="translate(-40.7 -18.45)"/><path d="M56.1 30.3c-.333 0-.5.317-.5.95v9.65l.05.4c.133.533.333.8.6.8.333 0 .355-.012.5-.1a.534.534 0 0 0 .2-.25c.261-.619.25-2 .25-2 0-.933.5-1.7 1.5-2.3.867-.533 1.95-.8 3.25-.8 1.733 0 2.983.283 3.75.85a3.05 3.05 0 0 1 1.15 1.5v-5.55c-.367.833-1.017 1.317-1.95 1.45l-3.05.25c-1.733 0-2.933-.333-3.6-1-.767-.667-1.2-1.817-1.3-3.45l-.4-.35-.15-.05h-.3m10.75 12-.25.8c-.5 1.6-1.4 2.85-2.7 3.75-1.3.9-2.564 1.44-3.8 1.55 0 0-2.595.334-3.9.35-.518.006-1.034-.06-1.55-.1-.767-.058-1.552-.02-2.3-.2-1.12-.27-1.166-.379-3.2-1.3-1.767-.8-2.883-2.733-3.35-5.8l-.1-.95v-7.75l.1-1.3c.4-2.633 1.35-4.6 2.85-5.9 1.533-1.333 3.75-2 6.65-2 .25 0 .502.03.75 0 .068-.008.132-.043.2-.05 1.23-.118 2.484-.015 3.7.2.79.14 1.573.362 2.3.7.918.427 1.77.902 2.55 1.65.8.767 1.4 1.667 1.8 2.7l.25.75v-2.75" fill="url(#a)" fill-rule="evenodd" style="fill:url(#a)" transform="translate(-40.7 -18.45)"/><path d="M19.1 5.1c.4.067 1.095.254 2.05.65.813.337 1.55.867 2.25 1.5s1.217 1.4 1.55 2.3c.367 1 .55 1.8.55 2.4 0 1.567-.5 2.4-1.5 2.5l-2 .2-.85.05c-1.467 0-2.45-.25-2.95-.75-.533-.467-.85-1.367-.95-2.7 0-.467-.317-.883-.95-1.25l-.4-.1-.5-.05c-1 0-1.5.633-1.5 1.9v9.75l.1.6c.267 1.033.79 1.651 1.55 1.55 0 0 .522.008.75-.1.351-.167.459-.074.85-.8.233-.433.35-1.25.35-2.45 0-.567.35-1.05 1.05-1.45.667-.433 1.567-.65 2.7-.65 1.533 0 2.583.217 3.15.65.667.5 1 1.233 1 2.2l-.15 1.35-.3.95c-.433 1.4-1.25 2.5-2.35 3.25s-2.767 1.3-3.35 1.4c-.583.1-2.463.292-3.7.3-1.237.008-2.571.016-3.7-.25s-2.25-.9-3-1.25-2.417-2.35-2.75-4.95l-.1-.9V13.3l.1-1.25c.333-2.367 1.167-4.133 2.5-5.3C9.967 5.583 11.967 5 14.6 5c2.083 0 1.233-.06 1.85-.05.885.013 2.65.15 2.65.15" fill="#d20476" fill-rule="evenodd"/><path d="m47.7 31.8.1-1.2c.3-2.1 1.017-3.65 2.15-4.65 1.167-1 2.953-1.377 5.35-1.5 1.37-.07.766-.05 1.15-.05 1.068.002 2.15-.041 3.2.15.638.116 1.85.6 1.85.6.642.208 1.291.658 1.95 1.3.642.625 1.05 1.267 1.25 1.9.333.767.5 1.45.5 2.05 0 1-.217 1.5-.65 1.5l-1.9.25h-.8c-1.167 0-1.917-.167-2.25-.5-.367-.333-.583-.983-.65-1.95 0-.9-.5-1.617-1.5-2.15l-.6-.2-.75-.05c-1.667 0-2.5.95-2.5 2.85v9.95l.1.7c.433 1.533 1.283 2.3 2.55 2.3l.9-.1c.7-.167 1.233-.6 1.6-1.3.3-.633.45-1.617.45-2.95 0-.167.183-.367.55-.6.533-.333 1.267-.5 2.2-.5 1.233 0 2.1.15 2.6.45.367.367.55.833.55 1.4v.4l-.15.85-.25.75c-.4 1.2-1.055 2.093-1.95 2.7-.972.66-1.933 1.083-2.9 1.25-1.037.179-2.363.286-3.55.3-.551.007-1.1-.061-1.65-.1-.617-.044-1.248-.006-1.85-.15-.981-.235-2.8-1.15-2.8-1.15-1.159-.476-1.883-1.917-2.25-4.15l-.05-8.4" fill="url(#b)" fill-rule="evenodd" style="fill:url(#b)" transform="translate(-40.7 -18.45)"/><defs><linearGradient gradientTransform="matrix(0 -.008 .0152 .0001 138.55 39.2)" gradientUnits="userSpaceOnUse" id="a" spreadMethod="pad" x1="-819.2" x2="819.2"><stop offset="0" stop-color="#dec1cc"/><stop offset="1" stop-color="#fff"/></linearGradient><linearGradient gradientTransform="matrix(0 -.0104 .0125 0 162.85 34.25)" gradientUnits="userSpaceOnUse" id="b" spreadMethod="pad" x1="-819.2" x2="819.2"><stop offset="0" stop-color="#ff0075"/><stop offset="1" stop-color="#ff94c4"/></linearGradient></defs><circle style="opacity:1;fill:#ea0000;fill-opacity:1;fill-rule:evenodd;stroke-width:1.56564;stroke-linecap:round;stroke-linejoin:bevel;paint-order:fill markers stroke;stop-color:#000" cx="23.4" cy="7.7" r="7.7"/></svg>