<?xml version="1.0" encoding="UTF-8" standalone="no"?>
<svg
   height="22.350149"
   width="17.954395"
   version="1.1"
   id="svg896"
   sodipodi:docname="pointer.svg"
   inkscape:version="1.1.1 (3bf5ae0d25, 2021-09-20, custom)"
   xmlns:inkscape="http://www.inkscape.org/namespaces/inkscape"
   xmlns:sodipodi="http://sodipodi.sourceforge.net/DTD/sodipodi-0.dtd"
   xmlns="http://www.w3.org/2000/svg"
   xmlns:svg="http://www.w3.org/2000/svg">
  <defs
     id="defs900" />
  <sodipodi:namedview
     id="namedview898"
     pagecolor="#505050"
     bordercolor="#eeeeee"
     borderopacity="1"
     inkscape:pageshadow="0"
     inkscape:pageopacity="0"
     inkscape:pagecheckerboard="0"
     showgrid="false"
     inkscape:current-layer="g894" />
  <g
     transform="matrix(-0.74469417,-0.66740587,-0.66740587,0.74469417,19.098268,14.116048)"
     id="g894">
    <path
       d="m -1.25,4.1 0.5,-0.75 c 1.16666667,-1.5333333 2.5666667,-2.53333333 4.2,-3 l 5.2,-0.95 5.8,-0.5 4.75,0.4 c 1.233333,0.36666667 1.533333,1 0.9,1.9 -0.666667,0.8666667 -2.716667,1.3833333 -6.15,1.55 2.705841,0.8919056 1.634033,1.4611339 2.367366,1.7944672 0.733333,0.3333333 0.706815,0.068562 0.440144,1.1018955 -0.1,0.5 0.424222,0.7560075 -0.242445,0.9560075 L 15.9,7.45 14.45,7.15 11.4,5.75 l -0.05,0 C 11.116667,7.25 11,8.4833333 11,9.45 8.9333333,9.6833333 7.9166667,8.7333333 7.95,6.6 5.25,9.3666667 2.1833333,8.5333333 -1.25,4.1 M 9.05,1.9 c 2.066667,0.3 2.85,1.55 2.35,3.75 v 0.1 -0.1 C 11.9,3.45 11.116667,2.2 9.05,1.9"
       fill="#ffffff"
       fill-rule="evenodd"
       stroke="none"
       id="path886"
       sodipodi:nodetypes="ccccccccscccccccccccccc" />
    <path
       d="M 15.9,7.45 15.6,9 q -0.7,1.45 -1.85,1.55 1.3,1.45 -0.6,2.2 -1.9,0.75 -4.25,-1.8 -0.3,0.5 -1,0.8 Q 5.45,12.9 3.2,12.2 -0.25,11.05 -1.4,8.4 -2.35,6.05 -1.25,4.1 3.9,10.75 7.95,6.6 7.9,9.8 11,9.45 11,8 11.35,5.75 h 0.05 l 3.05,1.4 1.45,0.3 m -2.15,3.1 Q 12.6,10.6 11,9.45 q 1.6,1.15 2.75,1.1"
       fill="#bcd2e9"
       fill-rule="evenodd"
       stroke="none"
       id="path888" />
    <path
       d="m -1.25,4.1 0.5,-0.75 c 1.16666667,-1.5333333 2.5666667,-2.53333333 4.2,-3 l 5.2,-0.95 5.8,-0.5 4.75,0.4 c 1.233333,0.36666667 1.533333,1 0.9,1.9 -0.666667,0.8666667 -2.716667,1.3833333 -6.15,1.55 3.2,0.5666667 -0.681327,-0.2737652 0.05201,0.059568 0.733333,0.3333333 2.669004,2.2023351 2.669004,2.2023351 0,0 -0.104344,2.2380967 -0.771011,2.4380967 v 0 L 15.6,9 c -0.466667,0.9666667 -1.083333,1.483333 -1.85,1.55 0.866667,0.966667 0.666667,1.7 -0.6,2.2 -1.266667,0.5 -2.683333,-0.1 -4.25,-1.8 -0.2,0.333333 -0.5333333,0.6 -1,0.8 C 6.2666667,12.516667 4.7,12.666667 3.2,12.2 0.9,11.433333 -0.63333333,10.166667 -1.4,8.4 -2.0333333,6.8333333 -1.9833333,5.4 -1.25,4.1 M 11,9.45 c 0,-0.9666667 0.116667,-2.2 0.35,-3.7 l 0.05,0"
       fill="none"
       stroke="#000000"
       stroke-linecap="round"
       stroke-linejoin="round"
       stroke-width="1"
       id="path890"
       sodipodi:nodetypes="ccccccccscccccscccccccc" />
    <path
       d="M -1.25,4.1 Q 3.9,10.75 7.95,6.6 7.9,9.8 11,9.45 q 1.6,1.15 2.75,1.1 M 11.4,5.75 V 5.65 Q 12.15,2.35 9.05,1.9 M 15.9,7.45 14.45,7.15 11.4,5.75"
       fill="none"
       stroke="#015878"
       stroke-linecap="round"
       stroke-linejoin="round"
       stroke-width="1"
       id="path892" />
  </g>
</svg>
