<?xml version="1.0" encoding="UTF-8" standalone="no"?>
<svg xmlns:xlink="http://www.w3.org/1999/xlink" height="10.6px" width="48.05px" xmlns="http://www.w3.org/2000/svg">
  <g transform="matrix(1.0, 0.0, 0.0, 1.0, 2.8, 0.0)">
    <use height="9.95" transform="matrix(1.0, 0.0, 0.0, 1.0, -2.8, 0.65)" width="11.8" xlink:href="#sprite0"/>
    <use height="9.95" transform="matrix(-1.0, 0.0, 0.0, 1.0, 45.2498, -1.0E-4)" width="11.8" xlink:href="#sprite0"/>
  </g>
  <defs>
    <g id="sprite0" transform="matrix(1.0, 0.0, 0.0, 1.0, 9.55, 4.2)">
      <use height="9.95" transform="matrix(1.0, 0.0, 0.0, 1.0, -9.55, -4.2)" width="11.8" xlink:href="#shape0"/>
    </g>
    <g id="shape0" transform="matrix(1.0, 0.0, 0.0, 1.0, 9.55, 4.2)">
      <path d="M-1.8 -4.0 L-2.2 -3.95 -6.0 -2.15 -7.8 -0.4 Q-8.4 0.2 -8.65 1.1 L-8.3 1.5 -7.8 1.7 Q-8.1 1.7 -8.1 2.25 L-7.8 2.85 -6.75 3.15 -6.9 3.45 -6.6 3.4 -6.3 4.3 -5.7 4.95 -3.35 4.65 -1.3 4.05 Q-0.7 4.35 0.2 4.05 L0.65 3.5 0.75 3.45 1.0 3.15 1.95 2.0 2.15 -0.7 2.25 -0.1 2.25 2.0 Q2.25 3.45 1.95 4.05 0.75 4.95 0.2 4.95 L-3.05 5.2 Q-5.45 6.1 -6.3 5.5 L-6.6 4.95 -7.8 3.75 -8.65 2.85 -8.95 2.0 -9.25 1.7 -9.55 0.5 Q-9.25 -0.4 -8.1 -1.25 -7.5 -1.85 -7.2 -1.85 L-4.85 -3.65 -1.8 -4.0" fill="#230000" fill-rule="evenodd" stroke="none"/>
      <path d="M-8.3 1.5 L-8.65 1.1 Q-8.4 0.2 -7.8 -0.4 L-6.0 -2.15 -2.2 -3.95 -1.8 -4.0 -0.4 -4.2 Q2.0 -4.0 2.15 -0.7 L1.95 2.0 1.0 3.15 1.35 2.35 1.65 1.7 1.65 -1.55 1.4 -1.85 Q1.05 -2.45 0.5 -2.45 -0.1 -2.75 -1.3 -1.25 -1.3 -1.0 -1.6 -0.4 -1.9 0.2 -2.75 1.1 L-5.15 3.45 -6.3 3.75 -6.3 4.3 -6.6 3.4 -6.3 3.15 -6.3 2.85 Q-6.0 2.55 -6.0 2.0 L-6.75 3.15 -7.8 2.85 -8.1 2.25 Q-8.1 1.7 -7.8 1.7 L-7.8 1.4 Q-7.5 1.4 -7.5 0.5 -7.5 0.8 -8.4 1.4 L-8.3 1.5 M0.65 3.5 L0.2 4.05 Q-0.7 4.35 -1.3 4.05 L-3.35 4.65 -5.7 4.95 -2.0 4.0 -0.45 3.85 0.15 3.75 0.65 3.5" fill="#efc08e" fill-rule="evenodd" stroke="none"/>
      <path d="M1.0 3.15 L0.75 3.45 0.65 3.5 0.15 3.75 -0.1 3.75 -0.45 3.85 -2.0 4.0 -2.2 3.75 -1.6 3.15 -0.4 2.0 Q0.5 1.1 0.5 0.5 L0.5 -2.15 1.4 -1.85 1.65 -1.55 1.65 1.7 1.35 2.25 1.35 2.35 1.0 3.15" fill="#b78f6e" fill-rule="evenodd" stroke="none"/>
      <path d="M-5.7 4.95 L-6.3 4.3 -6.3 3.75 -5.15 3.45 -2.75 1.1 Q-1.9 0.2 -1.6 -0.4 -1.3 -1.0 -1.3 -1.25 -0.1 -2.75 0.5 -2.45 1.05 -2.45 1.4 -1.85 L0.5 -2.15 0.5 0.5 Q0.5 1.1 -0.4 2.0 L-1.6 3.15 -2.2 3.75 -2.0 4.0 -5.7 4.95 M-6.6 3.4 L-6.9 3.45 -6.75 3.15 -6.0 2.0 Q-6.0 2.55 -6.3 2.85 L-6.3 3.15 -6.6 3.4 M-7.8 1.7 L-8.3 1.5 -8.4 1.4 Q-7.5 0.8 -7.5 0.5 -7.5 1.4 -7.8 1.4 L-7.8 1.7 M1.65 1.7 L1.35 2.35 1.35 2.25 1.65 1.7 M-0.45 3.85 L-0.1 3.75 0.15 3.75 -0.45 3.85" fill="#d3a57a" fill-rule="evenodd" stroke="none"/>
    </g>
  </defs>
</svg>
