<svg xmlns:xlink="http://www.w3.org/1999/xlink" height="34.5" width="34.5" xmlns="http://www.w3.org/2000/svg"><use height="50" transform="translate(-.016 -.016) scale(.6906)" width="50" xlink:href="#a"/><use height="50" transform="translate(1.74 1.74) scale(.6204)" width="50" xlink:href="#a"/><use height="25.75" transform="translate(4.4 4.4)" width="25.75" xlink:href="#b"/><use height="50" transform="translate(17.547 2.447) scale(.2521)" width="50" xlink:href="#a"/><use height="50" transform="translate(19.643 4.893) scale(.1563)" width="50" xlink:href="#a"/><defs><linearGradient gradientTransform="matrix(-.0098 .0096 -.6002 -.608 88.95 89.9)" gradientUnits="userSpaceOnUse" id="d" spreadMethod="pad" x1="-819.2" x2="819.2"><stop offset="0" stop-color="#fe9e9e"/><stop offset=".467" stop-color="#fc0303"/><stop offset="1" stop-color="#b40101"/></linearGradient><path d="M251.95 33.8q-2.45 2.4-5.85 2.4-3.4 0-5.8-2.4t-2.4-5.8q0-3.4 2.4-5.85 2.4-2.4 5.8-2.35 3.4-.05 5.85 2.35 2.4 2.45 2.4 5.85 0 3.4-2.4 5.8" fill="#fff" fill-rule="evenodd" transform="translate(-237.9 -19.8)" id="c"/><use height="16.4" transform="matrix(3.0395 0 0 3.0488 .002 .016)" width="16.45" xlink:href="#c" id="a"/><g id="b" fill-rule="evenodd"><path d="M26.35 26.35q-3.8 3.8-9.1 3.8-5.4 0-9.15-3.75-3.75-3.8-3.7-9.15-.05-5.35 3.75-9.1Q11.9 4.4 17.2 4.4q5.35 0 9.15 3.75 3.75 3.8 3.8 9.15-.05 5.3-3.8 9.05" fill="url(#d)" transform="translate(-4.4 -4.4)"/><path d="m10.1 14.3.35-.05H24.6q1.2 0 2.1.9.85.85.9 2.1-.05 1.2-.9 2.1-.9.85-2.1.9H10.45l-.35-.05q-1-.1-1.75-.85-.85-.9-.85-2.1 0-1.25.85-2.1.75-.75 1.75-.85" fill="#fff" transform="translate(-4.4 -4.4)"/></g></defs></svg>