<?xml version="1.0" encoding="UTF-8" standalone="no"?>
<svg
   width="36"
   height="36"
   version="1.1"
   id="svg336"
   sodipodi:docname="favicon.svg"
   inkscape:version="1.2.2 (b0a8486541, 2022-12-01)"
   xmlns:inkscape="http://www.inkscape.org/namespaces/inkscape"
   xmlns:sodipodi="http://sodipodi.sourceforge.net/DTD/sodipodi-0.dtd"
   xmlns="http://www.w3.org/2000/svg"
   xmlns:svg="http://www.w3.org/2000/svg">
  <sodipodi:namedview
     id="namedview338"
     pagecolor="#505050"
     bordercolor="#eeeeee"
     borderopacity="1"
     inkscape:showpageshadow="0"
     inkscape:pageopacity="0"
     inkscape:pagecheckerboard="0"
     inkscape:deskcolor="#505050"
     showgrid="false"
     inkscape:zoom="6.1860794"
     inkscape:cx="-70.157522"
     inkscape:cy="-1.778186"
     inkscape:window-width="1922"
     inkscape:window-height="1065"
     inkscape:window-x="1919"
     inkscape:window-y="17"
     inkscape:window-maximized="1"
     inkscape:current-layer="svg336" />
  <defs
     id="defs334">
    <linearGradient
       id="a"
       x1="-819.20001"
       x2="819.20001"
       gradientTransform="matrix(0,-0.008,0.0152,1e-4,97.85,20.75)"
       gradientUnits="userSpaceOnUse"
       spreadMethod="pad">
      <stop
         offset="0"
         stop-color="#dec1cc"
         id="stop324" />
      <stop
         offset="1"
         stop-color="#fff"
         id="stop326" />
    </linearGradient>
    <linearGradient
       id="b"
       x1="-819.20001"
       x2="819.20001"
       gradientTransform="matrix(0,-0.0104,0.0125,0,122.15,15.8)"
       gradientUnits="userSpaceOnUse"
       spreadMethod="pad">
      <stop
         offset="0"
         stop-color="#ff0075"
         id="stop329" />
      <stop
         offset="1"
         stop-color="#ff94c4"
         id="stop331" />
    </linearGradient>
  </defs>
  <g
     inkscape:groupmode="layer"
     id="layer1"
     inkscape:label="favicon"
     transform="translate(2.45,0.4)">
    <path
       d="M 15.15,0 H 14.6 C 10.433,0 7.117,1.083 4.65,3.25 2.217,5.35 0.717,8.333 0.15,12.2 l -0.05,0.35 -0.1,9.4 0.15,1.8 c 0.7,4.733 2.767,7.9 6.2,9.5 3.427,1.597 2.702,1.303 4.15,1.65 1.058,0.254 5.05,0.3 5.05,0.3 0,0 3.992,-0.046 5.05,-0.3 1.448,-0.347 0.723,-0.053 4.15,-1.65 3.433,-1.6 5.5,-4.767 6.2,-9.5 L 31.1,21.95 31,12.55 30.95,12.2 C 30.383,8.333 28.883,5.35 26.45,3.25 23.983,1.083 20.667,0 16.5,0 Z"
       style="fill:#2682b1;fill-opacity:1"
       id="path314" />
    <path
       d="M 15.55,33.3 C 14.966,33.307 14.383,33.242 13.8,33.2 12.849,33.131 10.95,32.95 10.95,32.95 9.855,32.854 8.647,32.156 7.2,31.45 4.48,30.123 2.767,27.483 2.1,23.45 v -0.3 L 2,22.2 V 14 L 2.1,12.7 2.15,12.45 C 2.617,9.117 3.9,6.55 6,4.75 8.033,2.917 10.9,2 14.6,2 L 15.097,2.019 15.55,1.95 m 0,31.35 c 0.584,0.007 1.167,-0.058 1.75,-0.1 0.951,-0.069 2.85,-0.25 2.85,-0.25 1.095,-0.096 2.303,-0.794 3.75,-1.5 2.72,-1.327 4.433,-3.967 5.1,-8 v -0.3 L 29.1,22.2 V 14 L 29,12.7 28.95,12.45 C 28.483,9.117 27.2,6.55 25.1,4.75 23.067,2.917 20.2,2 16.5,2 H 16 L 15.097,2.019 15.55,1.95"
       style="fill:#ffffff;fill-opacity:1;fill-rule:evenodd"
       id="path316" />
    <path
       fill="url(#a)"
       fill-rule="evenodd"
       d="m 15.4,11.85 c -0.333,0 -0.5,0.317 -0.5,0.95 v 9.65 l 0.05,0.4 c 0.133,0.533 0.333,0.8 0.6,0.8 0.333,0 0.355,-0.012 0.5,-0.1 a 0.534,0.534 0 0 0 0.2,-0.25 c 0.261,-0.619 0.25,-2 0.25,-2 0,-0.933 0.5,-1.7 1.5,-2.3 0.867,-0.533 1.95,-0.8 3.25,-0.8 1.733,0 2.983,0.283 3.75,0.85 a 3.05,3.05 0 0 1 1.15,1.5 V 15 c -0.367,0.833 -1.017,1.317 -1.95,1.45 l -3.05,0.25 c -1.733,0 -2.933,-0.333 -3.6,-1 -0.767,-0.667 -1.2,-1.817 -1.3,-3.45 L 15.85,11.9 15.7,11.85 h -0.3 m 10.75,12 -0.25,0.8 c -0.5,1.6 -1.4,2.85 -2.7,3.75 -1.3,0.9 -2.564,1.44 -3.8,1.55 0,0 -2.595,0.334 -3.9,0.35 -0.518,0.006 -1.034,-0.06 -1.55,-0.1 C 13.183,30.142 12.398,30.18 11.65,30 10.53,29.73 10.484,29.621 8.45,28.7 6.683,27.9 5.567,25.967 5.1,22.9 L 5,21.95 V 14.2 L 5.1,12.9 C 5.5,10.267 6.45,8.3 7.95,7 9.483,5.667 11.7,5 14.6,5 c 0.25,0 0.502,0.03 0.75,0 0.068,-0.008 0.132,-0.043 0.2,-0.05 1.23,-0.118 2.484,-0.015 3.7,0.2 0.79,0.14 1.573,0.362 2.3,0.7 0.918,0.427 1.77,0.902 2.55,1.65 0.8,0.767 1.4,1.667 1.8,2.7 l 0.25,0.75 V 8.2"
       style="fill:url(#a)"
       id="path318" />
    <path
       fill="#d20476"
       fill-rule="evenodd"
       d="m 19.1,5.1 c 0.4,0.067 1.095,0.254 2.05,0.65 0.813,0.337 1.55,0.867 2.25,1.5 0.7,0.633 1.217,1.4 1.55,2.3 0.367,1 0.55,1.8 0.55,2.4 0,1.567 -0.5,2.4 -1.5,2.5 l -2,0.2 -0.85,0.05 c -1.467,0 -2.45,-0.25 -2.95,-0.75 -0.533,-0.467 -0.85,-1.367 -0.95,-2.7 0,-0.467 -0.317,-0.883 -0.95,-1.25 L 15.9,9.9 15.4,9.85 c -1,0 -1.5,0.633 -1.5,1.9 v 9.75 l 0.1,0.6 c 0.267,1.033 0.79,1.651 1.55,1.55 0,0 0.522,0.008 0.75,-0.1 0.351,-0.167 0.459,-0.074 0.85,-0.8 0.233,-0.433 0.35,-1.25 0.35,-2.45 0,-0.567 0.35,-1.05 1.05,-1.45 0.667,-0.433 1.567,-0.65 2.7,-0.65 1.533,0 2.583,0.217 3.15,0.65 0.667,0.5 1,1.233 1,2.2 l -0.15,1.35 -0.3,0.95 c -0.433,1.4 -1.25,2.5 -2.35,3.25 -1.1,0.75 -2.767,1.3 -3.35,1.4 -0.583,0.1 -2.463,0.292 -3.7,0.3 -1.237,0.008 -2.571,0.016 -3.7,-0.25 C 10.721,27.784 9.6,27.15 8.85,26.8 8.1,26.45 6.433,24.45 6.1,21.85 L 6,20.95 V 13.3 L 6.1,12.05 C 6.433,9.683 7.267,7.917 8.6,6.75 9.967,5.583 11.967,5 14.6,5 16.683,5 15.833,4.94 16.45,4.95 17.335,4.963 19.1,5.1 19.1,5.1"
       id="path320" />
    <path
       fill="url(#b)"
       fill-rule="evenodd"
       d="m 7,13.35 0.1,-1.2 C 7.4,10.05 8.117,8.5 9.25,7.5 10.417,6.5 12.203,6.123 14.6,6 c 1.37,-0.07 0.766,-0.05 1.15,-0.05 1.068,0.002 2.15,-0.041 3.2,0.15 0.638,0.116 1.85,0.6 1.85,0.6 0.642,0.208 1.291,0.658 1.95,1.3 0.642,0.625 1.05,1.267 1.25,1.9 0.333,0.767 0.5,1.45 0.5,2.05 0,1 -0.217,1.5 -0.65,1.5 l -1.9,0.25 h -0.8 c -1.167,0 -1.917,-0.167 -2.25,-0.5 -0.367,-0.333 -0.583,-0.983 -0.65,-1.95 0,-0.9 -0.5,-1.617 -1.5,-2.15 L 16.15,8.9 15.4,8.85 c -1.667,0 -2.5,0.95 -2.5,2.85 v 9.95 l 0.1,0.7 c 0.433,1.533 1.283,2.3 2.55,2.3 l 0.9,-0.1 c 0.7,-0.167 1.233,-0.6 1.6,-1.3 0.3,-0.633 0.45,-1.617 0.45,-2.95 0,-0.167 0.183,-0.367 0.55,-0.6 0.533,-0.333 1.267,-0.5 2.2,-0.5 1.233,0 2.1,0.15 2.6,0.45 0.367,0.367 0.55,0.833 0.55,1.4 v 0.4 L 24.25,22.3 24,23.05 c -0.4,1.2 -1.055,2.093 -1.95,2.7 -0.972,0.66 -1.933,1.083 -2.9,1.25 -1.037,0.179 -2.363,0.286 -3.55,0.3 -0.551,0.007 -1.1,-0.061 -1.65,-0.1 C 13.333,27.156 12.702,27.194 12.1,27.05 11.119,26.815 9.3,25.9 9.3,25.9 8.141,25.424 7.417,23.983 7.05,21.75 L 7,13.35"
       style="fill:url(#b)"
       id="path322" />
  </g>
  <circle
     style="display:none;fill:#e00c0c;fill-opacity:1"
     id="path550"
     cx="29"
     cy="7"
     r="7"
     inkscape:label="notification" />
</svg>
