<?xml version="1.0" encoding="UTF-8" standalone="no"?>
<svg
   width="31.106161"
   height="35.299999"
   version="1.1"
   id="svg82"
   sodipodi:docname="favicon.svg"
   inkscape:version="1.1 (c4e8f9ed74, 2021-05-24)"
   xmlns:inkscape="http://www.inkscape.org/namespaces/inkscape"
   xmlns:sodipodi="http://sodipodi.sourceforge.net/DTD/sodipodi-0.dtd"
   xmlns="http://www.w3.org/2000/svg"
   xmlns:svg="http://www.w3.org/2000/svg">
  <sodipodi:namedview
     id="namedview84"
     pagecolor="#505050"
     bordercolor="#eeeeee"
     borderopacity="1"
     inkscape:pageshadow="0"
     inkscape:pageopacity="0"
     inkscape:pagecheckerboard="0"
     showgrid="false"
     inkscape:zoom="11.041667"
     inkscape:cx="16.845283"
     inkscape:cy="28.981132"
     inkscape:window-width="1922"
     inkscape:window-height="1059"
     inkscape:window-x="1919"
     inkscape:window-y="23"
     inkscape:window-maximized="1"
     inkscape:current-layer="g38" />
  <g
     id="g38"
     transform="translate(-40.7,-18.4)">
    <path
       d="M 71.806161,43.409965 C 71.490608,46.479363 67.10143,50.879448 65.25,51.8 63.616667,52.666667 62.1,53.2 60.7,53.4 L 58.05,53.65 57.9,53.7 54.45,53.65 51.2,53.35 47.05,51.7 c -3.433333,-1.6 -5.5,-4.766667 -6.2,-9.5 L 40.7,40.4 40.8,31 40.85,30.65 c 0.566667,-3.866667 2.066667,-6.85 4.5,-8.95 2.466667,-2.166667 5.783333,-3.25 9.95,-3.25 h 0.55 l 0.4,-0.05 h 0.9 l 0.15,0.05 3.5,0.2 c 1.166667,0.233333 3.082242,0.681095 4.148909,1.147762 2.384357,0.885791 3.510245,2.049551 3.510245,2.049551 2.286347,1.721665 2.52628,2.54821 2.737121,3.673116 0,0 0.264174,7.41969 0.330076,8.647047"
       fill="#2682b1"
       fill-rule="evenodd"
       stroke="none"
       id="path14"
       sodipodi:nodetypes="cccccccccccccsccccccccc" />
    <path
       d="M 69.302171,43.773924 C 69.43917,46.572081 65.45,49.4 65.45,49.4 c -1.566667,1.066667 -3.216667,1.733333 -4.95,2 l -4.25,0.35 -1.75,-0.1 -2.85,-0.25 c -1.066667,-0.266667 -2.316667,-0.766667 -3.75,-1.5 -2.733333,-1.3 -4.433333,-3.966667 -5.1,-8 v -0.3 l -0.1,-0.95 v -8.2 l 0.1,-1.3 0.05,-0.25 c 0.466667,-3.333333 1.75,-5.9 3.85,-7.7 2.033333,-1.833333 4.9,-2.75 8.6,-2.75 h 0.5 l -0.35,0.05 0.8,-0.1 4.2,0.25 c 1.033333,0.166667 2.016667,0.466667 2.95,0.9 l 2.3,1.3 c 0,0 2.398443,1.843633 3.01831,3.779222"
       fill="#ffffff"
       fill-rule="evenodd"
       stroke="none"
       id="path24"
       sodipodi:nodetypes="ccccccccccccccsccccccc" />
    <path
       d="m 56.1,30.3 c -0.333333,0 -0.5,0.316667 -0.5,0.95 v 9.65 l 0.05,0.4 c 0.133333,0.533333 0.333333,0.8 0.6,0.8 l 0.5,-0.1 0.2,-0.25 0.25,-2 c 0,-0.933333 0.5,-1.7 1.5,-2.3 0.866667,-0.533333 1.95,-0.8 3.25,-0.8 1.733333,0 2.983333,0.283333 3.75,0.85 0.533333,0.366667 0.916667,0.866667 1.15,1.5 v -5.55 c -0.366667,0.833333 -1.016667,1.316667 -1.95,1.45 l -3.05,0.25 c -1.733333,0 -2.933333,-0.333333 -3.6,-1 -0.766667,-0.666667 -1.2,-1.816667 -1.3,-3.45 L 56.55,30.35 56.4,30.3 h -0.3 m 10.75,12 -0.25,0.8 c -0.5,1.6 -1.4,2.85 -2.7,3.75 -1.3,0.9 -2.566667,1.416667 -3.8,1.55 l -3.9,0.35 -1.55,-0.1 -2.3,-0.2 -3.2,-1.3 c -1.766667,-0.8 -2.883333,-2.733333 -3.35,-5.8 L 45.7,40.4 v -7.75 l 0.1,-1.3 c 0.4,-2.633333 1.35,-4.6 2.85,-5.9 1.533333,-1.333333 3.75,-2 6.65,-2 h 0.75 l 0.2,-0.05 3.7,0.2 2.3,0.7 2.55,1.65 c 0.8,0.766667 1.4,1.666667 1.8,2.7 l 0.25,0.75 v -2.75"
       fill="url(#gradient0)"
       fill-rule="evenodd"
       stroke="none"
       id="path26"
       sodipodi:nodetypes="cscccccccscccccccccccssccccccccccscccccccc"
       style="fill:url(#gradient0)" />
    <path
       d="m 59.8,23.55 c 0.4,0.06667 1.083333,0.283333 2.05,0.65 0.8,0.366667 1.55,0.866667 2.25,1.5 0.7,0.633333 1.216667,1.4 1.55,2.3 0.366667,1 0.55,1.8 0.55,2.4 0,1.566667 -0.5,2.4 -1.5,2.5 l -2,0.2 -0.85,0.05 c -1.466667,0 -2.45,-0.25 -2.95,-0.75 -0.533333,-0.466667 -0.85,-1.366667 -0.95,-2.7 0,-0.466667 -0.316667,-0.883333 -0.95,-1.25 l -0.4,-0.1 -0.5,-0.05 c -1,0 -1.5,0.633333 -1.5,1.9 v 9.75 l 0.1,0.6 c 0.266667,1.033333 0.783333,1.55 1.55,1.55 L 57,42 57.85,41.2 c 0.233333,-0.433333 0.35,-1.25 0.35,-2.45 0,-0.566667 0.35,-1.05 1.05,-1.45 0.666667,-0.433333 1.566667,-0.65 2.7,-0.65 1.533333,0 2.583333,0.216667 3.15,0.65 0.666667,0.5 1,1.233333 1,2.2 l -0.15,1.35 -0.3,0.95 c -0.433333,1.4 -1.216667,2.483333 -2.35,3.25 -1.066667,0.733333 -2.183333,1.2 -3.35,1.4 l -3.7,0.3 -3.7,-0.25 -3,-1.25 C 48.05,44.55 47.133333,42.9 46.8,40.3 l -0.1,-0.9 v -7.65 l 0.1,-1.25 c 0.333333,-2.366667 1.166667,-4.133333 2.5,-5.3 1.366667,-1.166667 3.366667,-1.75 6,-1.75 l 1.85,-0.05 2.65,0.15"
       fill="#d20476"
       fill-rule="evenodd"
       stroke="none"
       id="path28"
       sodipodi:nodetypes="ccscsscccccccscccccscsccccccccccccccccc" />
    <path
       d="m 47.7,31.8 0.1,-1.2 c 0.3,-2.1 1.016667,-3.65 2.15,-4.65 1.166667,-1 2.95,-1.5 5.35,-1.5 l 1.15,-0.05 3.2,0.15 1.85,0.6 c 0.633333,0.233333 1.283333,0.666667 1.95,1.3 0.633333,0.633333 1.05,1.266667 1.25,1.9 0.333333,0.766667 0.5,1.45 0.5,2.05 0,1 -0.216667,1.5 -0.65,1.5 l -1.9,0.25 h -0.8 c -1.166667,0 -1.916667,-0.166667 -2.25,-0.5 -0.366667,-0.333333 -0.583333,-0.983333 -0.65,-1.95 0,-0.9 -0.5,-1.616667 -1.5,-2.15 l -0.6,-0.2 -0.75,-0.05 c -1.666667,0 -2.5,0.95 -2.5,2.85 v 9.95 l 0.1,0.7 c 0.433333,1.533333 1.283333,2.3 2.55,2.3 l 0.9,-0.1 c 0.7,-0.166667 1.233333,-0.6 1.6,-1.3 0.3,-0.633333 0.45,-1.616667 0.45,-2.95 0,-0.166667 0.183333,-0.366667 0.55,-0.6 0.533333,-0.333333 1.266667,-0.5 2.2,-0.5 1.233333,0 2.1,0.15 2.6,0.45 0.366667,0.366667 0.55,0.833333 0.55,1.4 v 0.4 l -0.15,0.85 -0.25,0.75 c -0.4,1.2 -1.05,2.1 -1.95,2.7 -0.966667,0.666667 -1.933333,1.083333 -2.9,1.25 L 56.3,45.75 54.65,45.65 52.8,45.5 50,44.35 C 48.866667,43.816667 48.116667,42.433333 47.75,40.2 L 47.7,31.8"
       fill="url(#gradient1)"
       fill-rule="evenodd"
       stroke="none"
       id="path30"
       sodipodi:nodetypes="cccccccccsccscccccscccccscscsccscccccccc"
       style="fill:url(#gradient1)" />
  </g>
  <defs
     id="defs80">
    <linearGradient
       gradientTransform="matrix(0,-0.008,0.0152,1e-4,138.55,39.2)"
       gradientUnits="userSpaceOnUse"
       id="gradient0"
       spreadMethod="pad"
       x1="-819.20001"
       x2="819.20001">
      <stop
         offset="0.0"
         stop-color="#dec1cc"
         id="stop40" />
      <stop
         offset="1.0"
         stop-color="#ffffff"
         id="stop42" />
    </linearGradient>
    <linearGradient
       gradientTransform="matrix(0,-0.0104,0.0125,0,162.85,34.25)"
       gradientUnits="userSpaceOnUse"
       id="gradient1"
       spreadMethod="pad"
       x1="-819.20001"
       x2="819.20001">
      <stop
         offset="0.0"
         stop-color="#ff0075"
         id="stop45" />
      <stop
         offset="1.0"
         stop-color="#ff94c4"
         id="stop47" />
    </linearGradient>
    <linearGradient
       gradientTransform="matrix(0,0.0368,-0.0676,0,49.35,-12.5)"
       gradientUnits="userSpaceOnUse"
       id="gradient18"
       spreadMethod="pad"
       x1="-819.20001"
       x2="819.20001">
      <stop
         offset="0.0"
         stop-color="#b6d5e3"
         id="stop50" />
      <stop
         offset="1.0"
         stop-color="#3d9ee8"
         id="stop52" />
    </linearGradient>
    <linearGradient
       gradientTransform="matrix(0,0.0208,-0.0676,0,52.15,15.5)"
       gradientUnits="userSpaceOnUse"
       id="gradient19"
       spreadMethod="pad"
       x1="-819.20001"
       x2="819.20001">
      <stop
         offset="0.0"
         stop-color="#00ffaa"
         id="stop55" />
      <stop
         offset="1.0"
         stop-color="#3d9ee8"
         id="stop57" />
    </linearGradient>
    <linearGradient
       gradientTransform="matrix(0,0.0269,-0.0676,0,45.95,32.55)"
       gradientUnits="userSpaceOnUse"
       id="gradient20"
       spreadMethod="pad"
       x1="-819.20001"
       x2="819.20001">
      <stop
         offset="0.0"
         stop-color="#ff6600"
         id="stop60" />
      <stop
         offset="1.0"
         stop-color="#3d9ee8"
         id="stop62" />
    </linearGradient>
    <linearGradient
       gradientTransform="matrix(0,0.0281,-0.0658,-1e-4,23.65,23)"
       gradientUnits="userSpaceOnUse"
       id="gradient21"
       spreadMethod="pad"
       x1="-819.20001"
       x2="819.20001">
      <stop
         offset="0.0"
         stop-color="#f70095"
         id="stop65" />
      <stop
         offset="1.0"
         stop-color="#3d9ee8"
         id="stop67" />
    </linearGradient>
    <linearGradient
       gradientTransform="matrix(4e-4,0.0258,-0.0596,9e-4,6.75,13.2)"
       gradientUnits="userSpaceOnUse"
       id="gradient22"
       spreadMethod="pad"
       x1="-819.20001"
       x2="819.20001">
      <stop
         offset="0.0"
         stop-color="#b6d5e3"
         id="stop70" />
      <stop
         offset="1.0"
         stop-color="#3d9ee8"
         id="stop72" />
    </linearGradient>
    <linearGradient
       gradientTransform="matrix(0,0.021,-0.0596,0,4.3,4.4)"
       gradientUnits="userSpaceOnUse"
       id="gradient23"
       spreadMethod="pad"
       x1="-819.20001"
       x2="819.20001">
      <stop
         offset="0.0"
         stop-color="#3ec4fd"
         id="stop75" />
      <stop
         offset="1.0"
         stop-color="#3d9ee8"
         id="stop77" />
    </linearGradient>
  </defs>
</svg>
