<?xml version="1.0" encoding="UTF-8" standalone="no"?>
<svg xmlns:xlink="http://www.w3.org/1999/xlink" xmlns="http://www.w3.org/2000/svg" width="240px" height="70px">
  <g>
  
        <path d="M56.5 -63.1 L79.5 42.85 19.25 -67.85 56.5 -63.1" fill="url(#gradient18)" fill-rule="evenodd" stroke="none"/>
    <path d="M47.9 -63.1 L79.5 42.85 19.25 -67.85 47.9 -63.1" fill="url(#gradient19)" fill-rule="evenodd" stroke="none"/>
    <path d="M79.5 42.85 L-9.35 -64.9 19.25 -67.85 79.5 42.85" fill="url(#gradient20)" fill-rule="evenodd" stroke="none"/>
    <path d="M-9.35 -64.9 L79.5 42.85 -36.55 -54.85 -9.35 -64.9" fill="url(#gradient21)" fill-rule="evenodd" stroke="none"/>
    <path d="M-36.55 -54.85 L79.5 42.85 -65.45 -33.6 -36.55 -54.85" fill="url(#gradient22)" fill-rule="evenodd" stroke="none"/>
    <path d="M-36.55 -54.85 L79.5 42.85 -60.15 -38.0 -36.55 -54.85" fill="url(#gradient23)" fill-rule="evenodd" stroke="none"/>
    
    <path d="M87.75 19.6 Q89.05 20.1 90.25 21.0 91.9 19.8 93.3 19.4 L93.4 19.35 95.4 18.85 95.7 18.8 97.95 18.6 98.15 18.6 102.4 19.05 Q104.65 19.55 106.25 20.6 108.05 19.1 110.6 19.1 L123.45 19.1 124.85 19.25 Q128.05 19.85 130.15 21.5 131.9 20.0 133.85 19.4 L133.95 19.35 135.95 18.85 136.25 18.8 138.5 18.6 138.7 18.6 143.0 19.05 Q144.8 19.5 146.25 20.3 L149.4 19.2 150.05 19.1 165.7 19.1 167.9 19.45 169.35 19.0 171.8 18.75 174.45 18.9 175.9 19.3 176.95 19.75 Q178.4 19.1 179.8 19.1 L194.75 19.1 Q197.15 19.1 199.1 20.55 L199.4 20.75 Q200.65 21.75 201.6 23.45 202.85 25.55 202.85 27.8 202.85 30.7 200.75 33.85 L198.8 36.75 200.4 37.95 200.55 38.1 Q202.75 40.5 202.75 44.15 L202.75 44.3 202.55 46.35 202.35 47.25 Q200.6 53.25 195.0 53.25 L179.2 53.25 176.7 52.7 175.25 53.2 172.4 53.55 170.35 53.45 167.75 52.9 Q166.15 52.4 165.0 51.55 L164.7 51.25 162.45 52.7 Q160.55 53.55 156.75 53.55 L156.6 53.55 155.0 53.4 153.35 53.0 153.25 53.0 Q152.1 52.6 151.2 52.0 L150.7 52.35 Q148.6 53.5 145.35 53.5 L141.55 53.1 Q140.0 52.75 138.75 51.8 L138.25 52.15 Q135.9 53.5 132.05 53.5 128.0 53.5 125.5 51.6 123.55 50.15 122.8 47.95 122.15 49.8 120.85 51.0 119.45 52.15 117.85 52.75 L116.7 53.1 116.9 53.0 115.95 53.3 114.1 53.5 113.0 53.5 109.5 52.9 109.1 52.75 104.8 53.5 101.0 53.1 Q99.45 52.75 98.2 51.8 L97.65 52.15 Q95.4 53.5 91.5 53.5 L87.6 52.85 87.45 52.85 87.0 53.05 84.85 53.5 84.0 53.6 Q80.15 53.6 77.95 52.3 L77.75 52.15 76.55 52.75 73.3 53.6 71.4 53.65 69.2 53.4 Q67.05 53.05 65.25 51.8 62.8 53.1 60.7 53.4 L58.05 53.65 57.9 53.7 54.45 53.65 51.2 53.35 47.05 51.7 Q41.9 49.3 40.85 42.2 L40.7 40.4 40.8 31.0 40.85 30.65 Q41.7 24.85 45.35 21.7 49.05 18.45 55.3 18.45 L55.85 18.45 56.25 18.4 57.15 18.4 57.3 18.45 60.8 18.65 Q62.55 19.0 64.15 19.7 L65.6 20.5 Q66.75 19.8 68.2 19.4 L68.5 19.3 71.85 18.9 72.0 18.9 74.4 19.15 75.3 19.35 77.3 20.1 76.85 20.05 77.5 20.3 Q77.85 20.15 78.5 19.75 L81.35 18.95 83.05 18.8 84.35 18.85 86.95 19.35 87.7 19.65 87.75 19.6" fill="#2682b1" fill-rule="evenodd" stroke="none"/>
    <path d="M230.2 22.35 L232.4 22.3 233.85 23.55 Q235.2 24.9 235.6 26.4 236.05 28.05 234.5 32.1 L233.75 34.45 Q233.5 35.6 234.55 39.95 L234.95 42.3 Q235.1 43.95 233.5 46.1 231.85 48.2 229.95 48.85 L223.85 48.55 220.8 48.1 220.85 49.3 Q220.85 52.55 218.75 53.55 216.9 54.5 213.65 54.35 210.55 54.2 209.0 53.2 205.9 51.3 204.75 44.25 204.4 41.8 202.8 40.8 L197.75 41.1 Q196.9 41.2 196.25 40.55 195.65 40.05 195.65 39.1 L195.65 26.6 Q195.65 24.6 197.65 24.6 L202.4 24.6 202.3 24.65 Q205.4 24.45 208.3 25.75 212.1 27.55 213.2 31.35 214.0 34.3 215.2 34.8 L216.75 34.75 216.85 34.25 Q216.85 32.65 216.25 31.35 215.85 30.6 215.85 29.65 215.85 28.85 216.2 28.2 217.05 26.45 219.55 26.0 220.9 25.7 223.5 26.65 226.25 27.6 228.3 27.7 L229.05 27.5 Q229.8 26.55 229.35 24.35 229.1 23.05 230.2 22.35" fill="#2682b1" fill-rule="evenodd" stroke="none"/>
    <path d="M231.35 24.0 L232.35 24.8 Q233.4 25.85 233.65 26.9 234.1 28.55 231.75 34.1 231.4 36.05 233.0 42.45 233.05 43.35 231.85 44.9 230.65 46.5 229.35 46.95 L224.15 46.55 219.35 46.25 Q218.8 46.55 218.85 48.9 218.9 51.25 217.85 51.75 216.5 52.45 213.8 52.35 211.2 52.2 210.05 51.5 207.65 50.05 206.75 43.95 206.4 41.4 204.8 39.85 L203.3 38.75 197.65 39.1 193.8 38.0 197.65 26.6 202.4 26.6 206.2 27.1 Q210.2 28.35 211.25 31.9 213.1 38.25 217.7 36.55 218.95 36.1 218.8 33.75 218.7 31.9 218.05 30.5 217.15 28.5 219.95 27.95 220.75 27.8 223.15 28.65 225.95 29.6 228.2 29.7 232.45 29.9 231.35 24.0" fill="#ffffff" fill-rule="evenodd" stroke="none"/>
    <path d="M44.55 26.3 Q46.55 26.3 46.55 28.3 L46.55 40.8 Q46.55 41.65 45.95 42.25 45.3 42.8 44.45 42.8 L39.4 42.45 Q37.8 43.65 37.45 45.9 36.4 52.9 33.2 54.9 31.65 55.85 28.55 56.0 25.3 56.15 23.45 55.2 21.35 54.2 21.35 50.95 L21.4 49.8 18.4 50.2 12.25 50.5 Q10.35 49.85 8.75 47.75 7.1 45.65 7.25 43.95 L7.65 41.65 Q8.7 37.25 8.5 36.1 L7.7 33.8 Q6.2 29.8 6.6 28.05 7.2 25.7 9.8 24.0 10.9 23.25 12.0 24.0 13.1 24.75 12.85 26.05 12.4 28.2 13.15 29.2 L13.9 29.4 18.7 28.3 Q21.35 27.4 22.65 27.65 25.15 28.2 26.0 29.85 L26.35 31.35 Q26.35 32.25 26.0 33.0 25.4 34.35 25.4 35.9 L25.45 36.45 Q26.45 36.75 27.05 36.45 28.2 35.9 29.0 33.0 30.3 28.7 34.9 27.05 37.95 25.95 39.9 26.3 L44.55 26.3" fill="#2682b1" fill-rule="evenodd" stroke="none"/>
    <path d="M37.45 41.5 Q35.85 43.05 35.45 45.6 34.55 51.65 32.15 53.2 31.0 53.9 28.4 54.0 25.75 54.15 24.35 53.45 23.35 52.9 23.4 50.55 23.45 48.2 22.85 47.9 L18.05 48.2 12.9 48.6 Q11.6 48.15 10.35 46.55 9.15 45.0 9.25 44.1 10.8 37.7 10.45 35.75 8.1 30.25 8.55 28.55 8.8 27.5 9.9 26.5 L10.9 25.65 Q9.75 31.55 14.0 31.35 16.3 31.25 19.05 30.3 21.45 29.45 22.25 29.6 25.15 30.2 24.15 32.15 23.5 33.65 23.4 35.45 23.25 37.8 24.5 38.25 29.15 39.9 30.95 33.55 32.0 30.0 36.0 28.8 L39.8 28.3 44.55 28.3 44.55 40.8 38.95 40.45 Q38.25 40.75 37.45 41.5" fill="#ffffff" fill-rule="evenodd" stroke="none"/>
    <path d="M199.0 39.35 L199.05 39.45 Q200.75 41.25 200.75 44.15 L200.6 45.9 200.45 46.65 Q199.1 51.25 195.0 51.25 L179.2 51.25 Q177.9 51.25 176.75 50.55 L174.75 51.25 172.55 51.55 170.8 51.5 168.35 51.0 Q167.05 50.55 166.15 49.9 165.25 49.2 164.7 48.3 L164.1 49.2 161.6 50.9 Q160.1 51.55 156.75 51.55 L155.45 51.45 153.8 51.05 Q152.35 50.6 151.3 49.55 L149.75 50.6 Q148.05 51.5 145.35 51.5 L142.0 51.15 Q140.2 50.8 139.0 49.5 L138.7 49.2 137.25 50.45 Q135.3 51.5 132.05 51.5 128.75 51.5 126.7 50.0 124.4 48.3 124.4 45.6 L124.6 44.05 125.0 42.6 122.85 42.8 121.25 42.85 121.25 45.65 Q121.25 47.9 119.5 49.5 118.5 50.35 117.15 50.85 L116.95 50.95 116.1 51.2 115.75 51.3 113.85 51.5 113.2 51.5 110.15 51.0 109.15 50.6 Q107.35 51.5 104.8 51.5 L101.45 51.15 Q99.7 50.8 98.4 49.5 L98.15 49.2 96.7 50.45 Q94.75 51.5 91.5 51.5 89.2 51.5 87.45 50.75 L86.6 51.1 84.45 51.55 84.0 51.6 Q80.7 51.6 78.9 50.55 L77.7 49.75 Q76.5 50.65 75.75 50.9 L73.0 51.6 71.65 51.65 69.55 51.4 Q67.55 51.1 66.15 50.05 L65.45 49.4 Q63.1 51.0 60.5 51.4 L56.25 51.75 54.5 51.65 51.65 51.4 Q50.05 51.0 47.9 49.9 43.8 47.95 42.8 41.9 L42.8 41.6 42.7 40.65 42.7 32.45 42.8 31.15 42.85 30.9 Q43.55 25.9 46.7 23.2 49.75 20.45 55.3 20.45 L55.8 20.45 55.45 20.5 56.25 20.4 60.45 20.65 Q62.0 20.9 63.4 21.55 L65.7 22.85 66.0 22.6 Q66.95 21.85 68.75 21.3 L68.95 21.25 71.85 20.9 73.95 21.1 75.35 21.45 76.55 22.0 76.6 22.05 77.4 22.65 Q78.3 22.0 79.25 21.6 L81.5 20.95 83.95 20.8 86.85 21.4 89.3 22.7 89.45 22.9 90.2 23.7 90.55 23.3 Q91.8 22.0 93.9 21.3 L95.85 20.8 98.15 20.6 101.95 21.0 Q103.95 21.4 105.55 22.45 L106.45 23.25 106.6 23.0 Q108.1 21.1 110.6 21.1 L123.25 21.1 124.5 21.25 Q128.05 21.85 129.85 23.95 L130.0 24.1 130.2 24.4 131.1 23.3 Q132.35 22.0 134.45 21.3 L136.45 20.8 138.7 20.6 142.55 21.0 Q144.5 21.4 146.1 22.45 L146.25 22.6 146.5 22.8 147.15 22.1 150.05 21.1 165.7 21.1 167.95 21.55 168.15 21.45 169.85 20.95 171.95 20.75 173.8 20.8 173.85 20.85 173.95 20.85 175.5 21.3 177.0 21.95 Q178.3 21.1 179.8 21.1 L194.75 21.1 Q196.45 21.1 197.95 22.15 L198.15 22.3 Q199.15 23.1 199.9 24.45 200.85 26.1 200.85 27.8 200.85 30.15 199.05 32.75 L195.8 37.65 Q197.7 38.05 199.0 39.35" fill="#ffffff" fill-rule="evenodd" stroke="none"/>
    <path d="M56.1 30.3 Q55.6 30.3 55.6 31.25 L55.6 40.9 55.65 41.3 Q55.85 42.1 56.25 42.1 L56.75 42.0 56.95 41.75 57.2 39.75 Q57.2 38.35 58.7 37.45 60.0 36.65 61.95 36.65 64.55 36.65 65.7 37.5 66.5 38.05 66.85 39.0 L66.85 33.45 Q66.3 34.7 64.9 34.9 L61.85 35.15 Q59.25 35.15 58.25 34.15 57.1 33.15 56.95 30.7 L56.55 30.35 56.4 30.3 56.1 30.3 M118.35 30.65 L118.1 30.65 118.05 32.5 118.1 32.65 118.1 33.0 118.15 33.0 Q119.05 33.0 119.05 32.05 L118.85 30.85 118.35 30.65 M98.35 37.45 L98.3 37.95 98.45 37.95 98.35 37.45 M138.9 37.45 L138.85 37.95 139.0 37.95 138.9 37.45 M135.3 24.2 L137.1 23.75 138.7 23.6 141.85 23.9 Q143.45 24.3 144.45 25.0 145.5 25.85 145.8 27.0 L150.25 45.05 150.1 44.8 150.3 45.5 149.85 46.8 148.35 47.95 Q147.4 48.5 145.35 48.5 L142.75 48.3 Q141.55 48.0 141.05 47.4 L140.25 46.45 139.85 45.25 139.75 44.55 139.55 44.55 139.4 44.5 137.7 44.55 137.5 45.2 Q137.0 47.05 135.75 47.85 134.6 48.5 132.05 48.5 129.8 48.5 128.5 47.6 127.4 46.75 127.4 45.6 L127.45 45.05 132.0 27.9 Q132.45 26.15 133.2 25.4 134.05 24.6 135.3 24.2 M122.95 24.1 L124.0 24.2 Q126.55 24.65 127.6 25.95 L128.85 27.9 Q129.2 28.65 129.2 29.55 L129.2 33.45 129.1 34.5 Q128.25 39.8 122.8 39.8 L118.25 39.9 118.25 45.65 Q118.25 46.55 117.5 47.25 117.0 47.75 116.05 48.05 L115.0 48.4 113.85 48.5 112.35 48.45 111.1 48.15 Q109.7 47.7 109.2 47.25 L109.0 47.1 107.8 47.95 Q106.75 48.5 104.8 48.5 L102.2 48.3 Q101.0 48.0 100.5 47.4 L99.7 46.45 99.3 45.25 99.2 44.55 99.0 44.55 98.85 44.5 97.15 44.55 96.95 45.2 Q96.45 47.05 95.2 47.85 93.95 48.5 91.5 48.5 89.15 48.5 87.95 47.6 L87.55 47.25 87.5 47.25 85.65 48.25 84.0 48.6 Q81.45 48.6 80.45 48.0 L78.95 46.85 Q78.35 46.15 78.35 45.5 L78.35 39.7 76.75 39.65 76.75 45.65 Q76.75 46.55 76.05 47.25 L74.6 48.15 72.6 48.65 71.65 48.65 70.05 48.45 Q68.9 48.3 67.95 47.6 66.85 46.8 66.85 45.5 L66.85 42.3 66.6 43.1 Q65.85 45.5 63.9 46.85 61.95 48.2 60.1 48.4 L56.2 48.75 54.65 48.65 52.35 48.45 49.15 47.15 Q46.5 45.95 45.8 41.35 L45.7 40.4 45.7 32.65 45.8 31.35 Q46.4 27.4 48.65 25.45 50.95 23.45 55.3 23.45 L56.05 23.45 56.25 23.4 59.95 23.6 62.25 24.3 64.8 25.95 Q66.0 27.1 66.6 28.65 L66.85 29.4 66.85 26.65 Q66.85 25.7 67.8 25.0 68.45 24.5 69.65 24.15 L71.85 23.9 73.3 24.0 74.1 24.2 74.25 24.25 75.15 24.65 76.15 25.45 Q76.75 26.15 76.75 26.85 L76.75 31.35 77.35 31.4 78.35 31.3 78.35 26.5 Q78.35 25.8 78.95 25.2 79.5 24.75 80.4 24.35 L81.95 23.9 83.65 23.8 85.8 24.25 Q86.95 24.65 87.45 25.1 88.2 25.8 88.2 26.75 L88.2 40.15 91.45 27.9 Q91.9 26.15 92.65 25.4 93.5 24.6 94.75 24.2 L96.55 23.75 98.15 23.6 101.3 23.9 Q102.95 24.3 103.9 25.0 104.95 25.85 105.25 27.0 L108.35 39.6 108.35 26.6 Q108.35 25.6 108.95 24.9 109.45 24.1 110.6 24.1 L122.95 24.1 M177.35 29.8 Q177.0 29.1 177.0 28.1 L177.0 41.75 177.1 41.6 184.05 31.65 179.35 31.65 Q178.55 31.65 178.0 31.0 L177.35 29.8 M194.75 24.1 Q195.5 24.1 196.25 24.65 L197.3 25.95 Q197.85 26.9 197.85 27.8 197.85 29.2 196.55 31.1 L190.35 40.45 194.35 40.5 Q195.9 40.5 196.85 41.5 197.75 42.5 197.75 44.15 L197.7 45.25 197.55 45.85 Q196.8 48.25 195.0 48.25 L179.2 48.25 Q178.5 48.25 177.95 47.85 L176.8 46.75 176.05 47.5 173.95 48.35 172.7 48.55 171.1 48.5 169.3 48.15 167.95 47.5 Q167.1 46.95 167.1 46.05 L167.1 31.2 Q166.35 31.75 165.3 31.75 L162.45 31.75 162.45 45.7 Q162.45 46.45 161.85 47.2 L160.45 48.15 156.75 48.55 155.8 48.5 154.65 48.2 153.3 47.35 Q152.6 46.75 152.6 45.8 L152.6 31.8 151.55 31.8 Q149.55 31.8 148.5 31.0 147.35 30.15 147.35 28.15 L147.5 26.85 Q147.55 26.1 148.0 25.5 L148.9 24.5 150.05 24.1 165.7 24.1 Q167.1 24.1 167.75 25.1 168.15 24.7 169.35 24.2 L169.5 24.15 170.7 23.85 173.35 23.8 174.55 24.15 Q175.55 24.5 176.2 25.0 177.0 25.7 177.0 26.5 L177.0 27.95 177.05 27.15 177.2 26.65 Q177.6 25.5 178.15 24.85 178.85 24.1 179.8 24.1 L194.75 24.1" fill="url(#gradient0)" fill-rule="evenodd" stroke="none"/>
    <path d="M195.6 24.4 L196.45 25.45 Q196.85 26.15 196.85 26.8 196.85 27.8 195.75 29.55 L188.5 40.4 194.35 40.5 Q195.5 40.5 196.15 41.15 196.75 41.85 196.75 43.15 L196.7 44.0 196.6 44.55 Q196.05 46.25 195.0 46.25 L179.2 46.25 Q178.85 46.25 178.45 45.95 178.15 45.8 177.55 45.1 L177.25 44.6 177.0 43.45 Q177.0 42.45 177.95 41.15 L185.95 29.65 179.35 29.65 Q179.05 29.65 178.75 29.35 L178.25 28.4 178.0 26.95 178.0 26.4 178.15 25.95 Q178.45 25.1 178.9 24.55 179.3 24.1 179.8 24.1 L194.75 24.1 Q195.15 24.1 195.6 24.4 M175.55 24.7 L176.0 25.5 176.0 44.95 175.55 45.7 173.8 46.35 172.55 46.55 171.2 46.5 169.6 46.2 168.5 45.65 Q168.1 45.45 168.1 45.05 L168.1 25.5 Q168.1 25.15 168.45 24.8 L169.75 24.1 170.85 23.85 171.95 23.75 173.1 23.75 174.2 24.1 Q175.05 24.35 175.55 24.7 M166.8 29.05 Q166.25 29.75 165.25 29.75 L161.45 29.8 161.45 44.7 161.1 45.55 160.0 46.25 156.75 46.55 155.9 46.5 154.95 46.25 154.0 45.65 Q153.6 45.25 153.6 44.8 L153.6 29.8 151.55 29.8 Q149.8 29.8 149.1 29.2 148.35 28.6 148.35 27.15 L148.5 25.95 Q148.5 25.55 148.8 25.05 L149.5 24.35 Q149.75 24.1 150.05 24.1 L165.7 24.1 Q166.8 24.1 167.15 25.1 L167.45 26.25 167.45 27.15 Q167.45 28.4 166.8 29.05 M141.65 23.9 Q143.05 24.2 143.85 24.8 144.65 25.45 144.85 26.25 L149.3 44.5 149.05 45.15 147.9 46.05 145.35 46.5 142.95 46.3 Q142.1 46.15 141.8 45.7 L141.15 44.95 Q140.85 44.5 140.85 44.1 L140.65 42.65 139.65 42.55 139.4 42.5 138.8 42.5 137.9 42.55 136.9 42.65 136.55 43.95 Q136.1 45.55 135.25 45.95 134.35 46.5 132.05 46.5 130.0 46.5 129.1 45.8 128.4 45.25 128.4 44.6 L128.4 44.3 132.95 27.15 Q133.35 25.75 133.95 25.1 134.6 24.45 135.6 24.15 L137.3 23.7 138.7 23.6 141.65 23.9 M128.2 28.55 L128.15 33.35 Q127.4 37.8 122.75 37.8 L117.25 37.9 117.25 44.65 Q117.25 45.2 116.8 45.55 L115.75 46.1 114.75 46.45 113.85 46.5 112.6 46.45 111.45 46.2 Q110.25 45.85 109.8 45.45 L109.35 44.8 109.35 25.6 Q109.35 24.9 109.75 24.5 110.0 24.1 110.6 24.1 L123.8 24.15 Q125.95 24.5 126.8 25.55 L127.95 27.3 128.2 28.55 M139.7 37.95 L140.2 37.85 138.8 30.85 137.65 37.85 138.3 37.95 139.7 37.95 M98.15 23.6 L101.05 23.9 Q102.35 24.2 103.3 24.8 104.1 25.45 104.3 26.25 L108.75 44.5 108.5 45.15 107.35 46.05 104.8 46.5 102.4 46.3 Q101.6 46.15 101.2 45.7 L100.6 44.95 Q100.3 44.5 100.3 44.1 L100.1 42.65 99.1 42.55 98.85 42.5 98.25 42.5 97.35 42.55 96.35 42.65 96.0 43.95 Q95.55 45.5 94.7 45.95 93.8 46.5 91.5 46.5 89.45 46.5 88.55 45.8 87.85 45.25 87.85 44.6 L87.85 44.3 92.4 27.15 Q92.8 25.65 93.35 25.1 L95.05 24.15 96.75 23.7 98.15 23.6 M83.25 23.8 L83.55 23.8 85.45 24.15 86.8 24.85 Q87.2 25.25 87.2 25.75 L87.2 44.75 86.8 45.5 Q86.2 46.0 85.35 46.3 L84.0 46.6 80.9 46.1 79.7 45.2 Q79.35 44.8 79.35 44.5 L79.35 37.8 78.35 37.7 77.55 37.65 76.2 37.65 75.75 37.75 75.75 44.65 75.35 45.55 74.25 46.2 72.45 46.65 71.65 46.65 70.2 46.45 Q69.2 46.3 68.55 45.8 67.85 45.35 67.85 44.5 L67.85 25.65 Q67.85 25.2 68.4 24.8 68.8 24.45 69.9 24.15 L71.85 23.9 73.1 24.0 73.85 24.15 74.65 24.5 75.4 25.1 Q75.75 25.5 75.75 25.85 L75.75 31.3 77.35 31.4 79.35 31.25 79.35 25.5 79.65 24.9 80.8 24.3 Q81.65 23.95 82.15 23.9 L83.25 23.8 M99.15 37.95 L99.65 37.85 98.25 30.85 97.1 37.85 97.75 37.95 99.15 37.95 M117.05 30.95 L117.1 31.65 117.2 33.0 118.15 33.0 Q120.05 33.0 120.05 31.05 L119.8 29.6 Q119.55 28.65 118.35 28.65 L117.2 28.65 117.05 30.95 M59.8 23.55 Q60.4 23.65 61.85 24.2 63.05 24.75 64.1 25.7 65.15 26.65 65.65 28.0 66.2 29.5 66.2 30.4 66.2 32.75 64.7 32.9 L62.7 33.1 61.85 33.15 Q59.65 33.15 58.9 32.4 58.1 31.7 57.95 29.7 57.95 29.0 57.0 28.45 L56.6 28.35 56.1 28.3 Q54.6 28.3 54.6 30.2 L54.6 39.95 54.7 40.55 Q55.1 42.1 56.25 42.1 L57.0 42.0 57.85 41.2 Q58.2 40.55 58.2 38.75 58.2 37.9 59.25 37.3 60.25 36.65 61.95 36.65 64.25 36.65 65.1 37.3 66.1 38.05 66.1 39.5 L65.95 40.85 65.65 41.8 Q65.0 43.9 63.3 45.05 61.7 46.15 59.95 46.45 L56.25 46.75 52.55 46.5 49.55 45.25 Q47.3 44.2 46.8 40.3 L46.7 39.4 46.7 31.75 46.8 30.5 Q47.3 26.95 49.3 25.2 51.35 23.45 55.3 23.45 L57.15 23.4 59.8 23.55" fill="#d20476" fill-rule="evenodd" stroke="none"/>
    <path d="M74.65 25.8 L74.75 25.85 74.75 31.3 Q74.75 32.2 75.6 32.3 L77.35 32.4 79.45 32.25 Q80.35 32.15 80.35 31.25 L80.35 25.6 81.2 25.2 82.3 24.9 83.25 24.8 83.45 24.8 85.1 25.1 Q85.9 25.4 86.1 25.6 L86.2 25.75 86.25 44.65 86.15 44.75 Q85.85 45.05 85.05 45.35 L84.0 45.6 81.4 45.2 Q80.85 44.95 80.45 44.55 L80.35 44.4 80.35 37.8 Q80.35 36.95 79.6 36.85 L76.05 36.65 75.45 36.8 Q74.75 36.95 74.75 37.75 L74.75 44.65 74.65 44.85 73.85 45.3 72.35 45.65 71.65 45.65 70.35 45.45 Q69.6 45.4 69.15 45.0 68.85 44.8 68.85 44.5 L68.85 25.7 69.0 25.6 Q69.25 25.35 70.1 25.1 L71.85 24.9 72.85 24.95 73.95 25.3 74.15 25.4 74.65 25.8 M47.7 31.8 L47.8 30.6 Q48.25 27.45 49.95 25.95 51.7 24.45 55.3 24.45 L56.45 24.4 59.65 24.55 61.5 25.15 Q62.45 25.5 63.45 26.45 64.4 27.4 64.7 28.35 65.2 29.5 65.2 30.4 65.2 31.9 64.55 31.9 L62.65 32.15 61.85 32.15 Q60.1 32.15 59.6 31.65 59.05 31.15 58.95 29.7 58.95 28.35 57.45 27.55 L56.85 27.35 56.1 27.3 Q53.6 27.3 53.6 30.15 L53.6 40.1 53.7 40.8 Q54.35 43.1 56.25 43.1 L57.15 43.0 Q58.2 42.75 58.75 41.7 59.2 40.75 59.2 38.75 59.2 38.5 59.75 38.15 60.55 37.65 61.95 37.65 63.8 37.65 64.55 38.1 65.1 38.65 65.1 39.5 L65.1 39.9 64.95 40.75 64.7 41.5 Q64.1 43.3 62.75 44.2 61.3 45.2 59.85 45.45 L56.3 45.75 54.65 45.65 52.8 45.5 50.0 44.35 Q48.3 43.55 47.75 40.2 L47.7 31.8 M150.05 25.15 L150.15 25.1 165.7 25.1 Q166.1 25.1 166.15 25.35 L166.45 26.45 166.45 27.15 Q166.45 27.9 166.05 28.4 165.75 28.75 165.25 28.75 L161.45 28.8 Q160.45 28.8 160.45 29.8 L160.45 44.7 160.35 44.85 Q160.15 45.15 159.55 45.35 L156.75 45.55 156.0 45.5 155.25 45.3 154.75 45.0 154.65 44.9 154.6 44.8 154.6 29.8 Q154.6 28.8 153.6 28.8 L151.55 28.8 Q150.3 28.8 149.7 28.4 149.35 28.15 149.35 27.15 L149.4 26.9 149.5 26.05 149.65 25.65 150.05 25.15 M139.8 30.65 Q139.6 29.85 138.8 29.85 137.95 29.85 137.85 30.7 L136.7 37.65 136.65 37.85 136.85 38.45 Q137.1 38.8 137.5 38.8 L139.95 38.95 140.45 38.8 Q141.4 38.6 141.2 37.65 L139.8 30.65 M135.9 25.1 L137.5 24.7 137.55 24.7 138.7 24.6 141.4 24.85 Q142.55 25.15 143.25 25.6 L143.9 26.45 148.3 44.55 148.35 44.65 148.25 44.55 147.45 45.15 145.35 45.5 143.2 45.3 142.55 45.05 142.0 44.45 141.85 44.0 141.65 42.55 Q141.55 41.8 140.8 41.7 L140.35 41.6 139.4 41.5 138.8 41.5 136.75 41.7 Q136.1 41.8 135.95 42.4 L135.6 43.65 Q135.3 44.8 134.75 45.1 134.05 45.5 132.05 45.5 130.4 45.5 129.7 45.0 L129.4 44.55 133.9 27.4 Q134.25 26.2 134.65 25.8 L135.9 25.1 M117.2 27.65 Q116.3 27.65 116.2 28.6 L116.05 30.95 116.2 33.1 Q116.3 34.0 117.2 34.0 L118.15 34.0 Q121.05 34.0 121.05 31.05 L120.8 29.4 Q120.3 27.65 118.35 27.65 L117.2 27.65 M110.35 25.6 L110.5 25.1 123.65 25.15 Q125.45 25.45 126.0 26.15 L127.0 27.65 127.2 28.55 127.15 33.15 Q126.6 36.8 122.75 36.8 L117.2 36.9 Q116.25 37.0 116.25 37.9 L116.25 44.65 116.15 44.8 115.45 45.15 114.5 45.45 112.8 45.5 111.75 45.25 Q111.05 45.05 110.4 44.7 L110.35 44.65 110.35 25.6 M99.25 30.65 Q99.05 29.85 98.25 29.85 97.4 29.85 97.3 30.7 L96.15 37.65 96.1 37.85 96.3 38.45 Q96.55 38.8 96.95 38.8 L99.4 38.95 99.9 38.8 Q100.9 38.6 100.6 37.65 L99.25 30.65 M95.35 25.1 L96.95 24.7 98.15 24.6 100.85 24.85 102.7 25.6 Q103.2 25.95 103.3 26.45 L107.75 44.55 107.75 44.65 107.7 44.55 106.85 45.15 104.8 45.5 102.6 45.3 102.0 45.05 101.45 44.45 101.25 44.0 101.1 42.55 Q101.0 41.8 100.25 41.7 L99.8 41.6 98.85 41.5 98.25 41.5 96.15 41.7 Q95.55 41.8 95.4 42.4 L95.0 43.65 Q94.7 44.8 94.2 45.1 L91.5 45.5 Q89.75 45.5 89.15 45.0 L88.85 44.55 93.35 27.4 Q93.7 26.2 94.1 25.8 L95.35 25.1 M179.65 25.2 L179.8 25.1 194.75 25.1 195.0 25.2 195.55 25.95 195.85 26.8 Q195.85 27.55 194.9 28.95 L187.65 39.85 Q187.3 40.4 187.6 40.9 187.85 41.4 188.45 41.4 L194.35 41.5 Q195.05 41.5 195.4 41.85 195.75 42.2 195.75 43.15 L195.75 43.8 195.65 44.25 195.0 45.25 179.2 45.25 178.9 45.1 178.4 44.55 178.15 44.15 178.0 43.45 Q178.0 42.75 178.75 41.7 L186.75 30.2 186.95 29.65 186.85 29.2 Q186.55 28.65 185.95 28.65 L179.5 28.65 179.2 28.0 179.0 26.95 179.0 26.65 179.1 26.25 Q179.3 25.65 179.65 25.2 M171.0 24.8 L172.9 24.75 173.9 25.0 174.85 25.45 175.0 25.55 175.0 44.85 173.65 45.35 172.5 45.55 172.0 45.55 171.85 45.5 171.3 45.5 169.9 45.25 169.1 44.85 169.05 25.6 170.1 25.05 171.0 24.8" fill="url(#gradient1)" fill-rule="evenodd" stroke="none"/>
    <g
     aria-label="retro"
     id="text1650"
     style="font-size:26.6667px;line-height:1;letter-spacing:0px;stroke:#2682b1;stroke-width:3;stroke-linecap:square">
    <path
       d="m 147.21854,56.989776 v 0 q 0.28646,-0.494792 -0.18229,-0.859376 -1.71875,-1.38021 -4.27084,-1.38021 -2.03125,0 -3.4375,1.22396 -1.38021,1.22396 -1.38021,3.229171 v 7.552093 q 0,0.572917 0.59895,0.572917 h 1.66667 q 0.59896,0 0.59896,-0.572917 v -7.552093 q 0,-0.833335 0.54688,-1.38021 0.57292,-0.546876 1.40625,-0.546876 1.40625,0 2.96875,0.963543 0.1823,0.104167 0.36459,0.104167 0.28646,0 0.49479,-0.338542 l 0.625,-1.015627 z"
       style="font-family:chimbozheavy;-inkscape-font-specification:chimbozheavy;fill:#ffffff;paint-order:stroke fill markers"
       id="path66358" />
    <path
       d="m 156.25501,59.672071 v 0 q 0,0.312501 -0.28646,0.312501 h -3.30729 q -0.28646,0 -0.28646,-0.312501 v -0.46875 q 0,-0.833335 0.54687,-1.38021 0.57292,-0.546876 1.40625,-0.546876 0.8073,0 1.38021,0.546876 0.54688,0.546875 0.54688,1.38021 v 0.46875 z m 2.86459,1.536461 v -2.005211 q 0,-0.885418 -0.36459,-1.718752 -0.54687,-1.302085 -1.74479,-2.031253 -1.19792,-0.703126 -2.6823,-0.703126 -2.03125,0 -3.4375,1.22396 -1.38021,1.22396 -1.38021,3.229171 v 3.932296 q 0,0.859376 0.36458,1.692711 1.17188,2.76042 4.45313,2.76042 1.4323,0 2.60417,-0.651042 1.27605,-0.729168 1.77084,-2.005211 l 0.0781,-0.390626 q 0,-0.260417 -0.26042,-0.416667 l -1.25,-0.807293 q -0.4948,-0.364584 -0.8073,0.130209 l -0.83333,1.119793 q -0.52083,0.494792 -1.30209,0.494792 -0.83333,0 -1.40625,-0.546876 -0.54687,-0.546875 -0.54687,-1.38021 v -0.46875 q 0,-0.286459 0.28646,-0.286459 h 5.28646 q 1.17188,0 1.17188,-1.171876 z"
       style="font-family:chimbozheavy;-inkscape-font-specification:chimbozheavy;fill:#ffffff;paint-order:stroke fill markers"
       id="path66360" />
    <path
       d="m 171.72378,65.817912 v 0 l 0.15625,-0.46875 q 0,-0.260417 -0.20833,-0.416667 l -1.1198,-0.781251 q -0.52083,-0.364584 -0.98958,0.104166 -0.78125,0.807293 -1.58854,0.807293 -0.83334,0 -1.40626,-0.546876 -0.54687,-0.546875 -0.54687,-1.38021 v -5.416673 q 0,-0.312501 0.28646,-0.312501 h 2.83854 q 0.57292,0 0.57292,-0.572917 v -1.22396 q 0,-0.598959 -0.57292,-0.598959 h -2.83854 q -0.28646,0 -0.28646,-0.286459 v -2.656253 q 0,-0.572917 -0.59896,-0.572917 h -1.66667 q -0.59896,0 -0.59896,0.572917 v 2.656253 q 0,0.286459 -0.28646,0.286459 h -0.46875 q -0.59896,0 -0.59896,0.598959 v 1.22396 q 0,0.572917 0.59896,0.572917 h 0.46875 q 0.28646,0 0.28646,0.312501 v 5.416673 q 0,0.859376 0.36459,1.692711 1.17187,2.76042 4.45313,2.76042 2.39583,0 3.75,-1.770836 z"
       style="font-family:chimbozheavy;-inkscape-font-specification:chimbozheavy;fill:#ffffff;paint-order:stroke fill markers"
       id="path66362" />
    <path
       d="m 184.17171,56.989776 v 0 q 0.28646,-0.494792 -0.18229,-0.859376 -1.71875,-1.38021 -4.27084,-1.38021 -2.03125,0 -3.4375,1.22396 -1.38021,1.22396 -1.38021,3.229171 v 7.552093 q 0,0.572917 0.59896,0.572917 h 1.66666 q 0.59896,0 0.59896,-0.572917 v -7.552093 q 0,-0.833335 0.54688,-1.38021 0.57292,-0.546876 1.40625,-0.546876 1.40625,0 2.96875,0.963543 0.1823,0.104167 0.36459,0.104167 0.28646,0 0.49479,-0.338542 l 0.625,-1.015627 z"
       style="font-family:chimbozheavy;-inkscape-font-specification:chimbozheavy;fill:#ffffff;paint-order:stroke fill markers"
       id="path66364" />
    <path
       d="m 193.20818,63.135617 v 0 q 0,0.833335 -0.54687,1.38021 -0.57292,0.546876 -1.38021,0.546876 -0.83334,0 -1.40625,-0.546876 -0.54688,-0.546875 -0.54688,-1.38021 v -3.932296 q 0,-0.833335 0.54688,-1.38021 0.57291,-0.546876 1.40625,-0.546876 0.80729,0 1.38021,0.546876 0.54687,0.546875 0.54687,1.38021 v 3.932296 z m 2.86459,0 v -3.932296 q 0,-0.885418 -0.36458,-1.718752 -0.54688,-1.302085 -1.7448,-2.031253 -1.19792,-0.703126 -2.68229,-0.703126 -2.03125,0 -3.43751,1.22396 -1.38021,1.22396 -1.38021,3.229171 v 3.932296 q 0,0.859376 0.36459,1.692711 1.17187,2.76042 4.45313,2.76042 1.97917,0 3.38542,-1.22396 1.40625,-1.250001 1.40625,-3.229171 z"
       style="font-family:chimbozheavy;-inkscape-font-specification:chimbozheavy;fill:#ffffff;paint-order:stroke fill markers"
       id="path66366" />
  </g>
  </g>
  <defs>
    <linearGradient gradientTransform="matrix(0.0, -0.008, 0.0152, 1.0E-4, 138.55, 39.2)" gradientUnits="userSpaceOnUse" id="gradient0" spreadMethod="pad" x1="-819.2" x2="819.2">
      <stop offset="0.0" stop-color="#dec1cc"/>
      <stop offset="1.0" stop-color="#ffffff"/>
    </linearGradient>
    <linearGradient gradientTransform="matrix(0.0, -0.0104, 0.0125, 0.0, 162.85, 34.25)" gradientUnits="userSpaceOnUse" id="gradient1" spreadMethod="pad" x1="-819.2" x2="819.2">
      <stop offset="0.0" stop-color="#ff0075"/>
      <stop offset="1.0" stop-color="#ff94c4"/>
    </linearGradient>
    <linearGradient gradientTransform="matrix(0.0, 0.0368, -0.0676, 0.0, 49.35, -12.5)" gradientUnits="userSpaceOnUse" id="gradient18" spreadMethod="pad" x1="-819.2" x2="819.2">
      <stop offset="0.0" stop-color="#b6d5e3"/>
      <stop offset="1.0" stop-color="#3d9ee8"/>
    </linearGradient>
    <linearGradient gradientTransform="matrix(0.0, 0.0208, -0.0676, 0.0, 52.15, 15.5)" gradientUnits="userSpaceOnUse" id="gradient19" spreadMethod="pad" x1="-819.2" x2="819.2">
      <stop offset="0.0" stop-color="#00ffaa"/>
      <stop offset="1.0" stop-color="#3d9ee8"/>
    </linearGradient>
    <linearGradient gradientTransform="matrix(0.0, 0.0269, -0.0676, 0.0, 45.95, 32.55)" gradientUnits="userSpaceOnUse" id="gradient20" spreadMethod="pad" x1="-819.2" x2="819.2">
      <stop offset="0.0" stop-color="#ff6600"/>
      <stop offset="1.0" stop-color="#3d9ee8"/>
    </linearGradient>
    <linearGradient gradientTransform="matrix(0.0, 0.0281, -0.0658, -1.0E-4, 23.65, 23.0)" gradientUnits="userSpaceOnUse" id="gradient21" spreadMethod="pad" x1="-819.2" x2="819.2">
      <stop offset="0.0" stop-color="#f70095"/>
      <stop offset="1.0" stop-color="#3d9ee8"/>
    </linearGradient>
    <linearGradient gradientTransform="matrix(4.0E-4, 0.0258, -0.0596, 9.0E-4, 6.75, 13.2)" gradientUnits="userSpaceOnUse" id="gradient22" spreadMethod="pad" x1="-819.2" x2="819.2">
      <stop offset="0.0" stop-color="#b6d5e3"/>
      <stop offset="1.0" stop-color="#3d9ee8"/>
    </linearGradient>
    <linearGradient gradientTransform="matrix(0.0, 0.021, -0.0596, 0.0, 4.3, 4.4)" gradientUnits="userSpaceOnUse" id="gradient23" spreadMethod="pad" x1="-819.2" x2="819.2">
      <stop offset="0.0" stop-color="#3ec4fd"/>
      <stop offset="1.0" stop-color="#3d9ee8"/>
    </linearGradient>
  </defs>
</svg>
