<?xml version="1.0" encoding="UTF-8" standalone="no"?>
<svg xmlns:xlink="http://www.w3.org/1999/xlink" height="188.4px" width="885.2px" xmlns="http://www.w3.org/2000/svg">
  <g transform="matrix(1.0, 0.0, 0.0, 1.0, 0, 0)">
    <path d="M769.1 -9.0 L802.2 -9.3 802.2 120.55 -83.0 115.1 -83.0 -9.1 Q135.2 -7.65 391.7 -7.6 592.4 -7.65 769.1 -9.0" fill="url(#gradient0)" fill-rule="evenodd" stroke="none"/>
    <path d="M407.6 74.65 L283.1 70.75 288.65 65.1 Q295.55 59.45 302.1 59.45 308.65 59.45 312.8 64.3 314.85 66.75 315.6 69.15 L317.55 66.8 Q320.15 64.05 323.1 61.7 332.6 54.25 342.6 54.25 352.6 54.25 360.8 58.15 364.85 60.1 366.95 62.05 L369.95 58.15 Q374.25 54.25 380.8 54.25 387.35 54.25 398.15 64.45 403.55 69.55 407.6 74.65" fill="url(#gradient1)" fill-rule="evenodd" stroke="none"/>
    <path d="M756.3 57.6 Q766.8 57.6 782.8 66.1 L645.6 66.9 Q647.8 64.85 651.35 62.85 658.4 58.75 664.95 58.75 675.45 58.75 683.3 62.35 L691.15 60.05 Q700.95 57.75 710.95 57.75 720.95 57.75 728.8 60.85 732.75 62.4 734.65 63.95 L741.55 60.8 Q749.75 57.6 756.3 57.6" fill="url(#gradient2)" fill-rule="evenodd" stroke="none"/>
    <path d="M654.0 68.45 L662.65 70.05 Q655.95 71.85 645.35 71.75 633.4 71.3 627.9 71.3 L615.15 71.55 602.5 71.1 585.05 69.3 573.3 68.8 Q575.75 68.75 578.75 67.65 L583.9 65.4 Q586.15 64.5 589.15 64.45 L594.5 64.5 Q594.1 62.4 596.5 62.05 597.8 61.85 600.4 62.0 600.05 61.9 600.95 60.7 L602.15 59.25 Q603.15 58.35 605.5 57.2 606.45 56.7 607.3 56.7 606.55 55.2 606.65 54.2 607.8 54.7 609.1 56.65 L609.3 53.0 610.15 54.6 610.7 56.05 Q610.8 55.2 612.0 54.45 L614.15 53.1 Q613.7 54.3 613.55 57.2 614.35 56.25 616.55 55.5 617.2 50.55 618.35 48.05 L618.95 46.35 616.8 48.55 Q615.7 47.55 617.3 44.2 L615.05 46.65 Q614.05 47.55 613.5 46.9 613.0 46.25 613.45 45.2 613.8 44.35 614.75 43.15 615.9 41.75 616.55 41.7 614.4 41.85 612.6 40.85 613.45 40.25 616.05 40.35 614.65 40.25 612.55 38.3 610.35 36.25 610.65 34.9 612.2 34.65 614.65 35.85 L618.3 37.8 Q618.3 36.7 617.5 34.55 616.8 32.7 616.95 32.05 617.25 31.0 618.25 31.25 L619.65 34.65 Q619.45 31.45 621.6 29.2 623.05 32.8 623.15 34.5 627.35 30.85 628.8 31.2 629.05 33.65 626.45 36.65 627.95 36.0 631.3 35.55 631.5 37.05 629.75 38.65 L627.05 41.2 629.8 41.25 632.1 42.5 628.75 43.1 625.4 43.2 Q626.5 43.7 627.8 46.05 629.0 48.25 629.05 49.5 627.35 49.75 625.65 48.3 624.05 47.05 623.4 45.3 624.1 48.85 623.0 50.4 621.95 49.35 621.1 47.9 L620.75 49.25 Q619.75 52.6 619.55 60.1 L620.45 61.1 Q620.95 61.95 621.5 62.1 622.7 62.4 625.15 61.55 L625.6 61.65 626.05 60.5 628.55 57.5 628.6 62.15 Q632.55 60.8 633.3 59.75 632.3 63.45 632.35 63.9 633.4 62.8 634.5 62.45 L634.6 64.9 634.9 65.0 635.3 65.15 Q636.15 64.55 637.05 62.65 L638.1 65.9 Q638.05 65.3 639.75 64.6 641.45 63.85 641.9 64.3 642.35 64.75 641.8 67.25 L641.9 67.25 Q642.45 66.25 643.75 66.45 L643.75 67.5 644.8 67.55 654.0 68.45" fill="url(#gradient3)" fill-rule="evenodd" stroke="none"/>
    <path d="M364.95 18.05 L369.2 18.9 Q368.95 17.15 370.35 16.95 371.5 16.75 372.9 17.6 374.2 18.45 375.6 21.5 L376.25 20.6 Q378.1 21.9 378.55 24.5 L379.85 24.35 379.85 25.25 363.25 25.3 355.95 25.25 Q356.4 23.45 358.85 23.9 358.45 21.95 360.0 21.45 L363.2 21.25 Q362.65 18.2 364.95 18.05" fill="#ffffff" fill-rule="evenodd" stroke="none"/>
    <path d="M501.35 68.45 L505.05 70.75 Q506.95 72.4 505.5 73.95 504.35 75.2 496.6 76.3 L484.5 76.85 472.7 76.2 460.95 75.3 Q449.8 75.5 444.4 75.0 L438.3 74.1 433.1 73.6 440.35 46.1 440.6 45.8 Q442.1 46.05 444.65 43.1 447.2 40.2 448.75 40.4 449.15 38.95 450.4 37.7 451.8 36.35 453.2 36.4 454.2 33.0 454.95 32.9 454.05 30.85 454.7 29.4 L455.95 26.6 456.05 23.6 Q456.35 21.85 457.8 21.2 457.45 17.75 460.1 16.25 462.45 14.9 465.8 15.75 467.05 16.15 467.3 16.55 L467.5 17.75 467.35 18.8 Q468.25 18.75 468.35 19.6 L468.45 21.15 469.35 21.95 Q469.5 22.45 469.25 23.65 L470.2 24.65 Q470.85 25.05 470.95 25.75 471.1 26.9 470.3 29.9 471.95 29.65 471.95 31.25 L471.8 33.8 Q472.2 35.55 473.95 36.55 474.45 37.4 474.4 39.2 474.35 41.05 474.8 41.9 475.3 42.8 475.45 44.55 L476.15 44.6 Q476.25 45.35 477.15 46.25 477.4 46.9 477.2 48.7 L477.9 48.85 478.7 49.2 Q479.15 49.55 479.35 50.55 480.3 53.75 481.1 54.35 482.15 55.1 484.4 56.3 L487.95 60.35 Q490.35 62.5 494.45 64.75 L501.35 68.45" fill="url(#gradient4)" fill-rule="evenodd" stroke="none"/>
    <path d="M602.2 68.2 Q608.9 71.85 614.25 75.45 L482.25 70.95 487.05 67.6 Q493.2 64.25 499.75 64.25 510.25 64.25 514.75 69.1 L516.75 66.8 Q519.4 64.0 522.4 61.7 532.0 54.25 542.0 54.25 552.0 54.25 560.05 63.05 564.1 67.4 566.1 71.8 L570.25 66.4 Q575.7 60.95 582.25 60.95 588.8 60.95 602.2 68.2" fill="url(#gradient5)" fill-rule="evenodd" stroke="none"/>
    <path d="M114.3 67.45 L121.2 64.3 Q129.4 61.1 135.95 61.1 146.45 61.1 162.45 69.6 L25.25 70.4 Q27.45 68.35 31.0 66.35 38.05 62.25 44.6 62.25 55.1 62.25 62.95 65.85 L70.8 61.8 Q80.6 57.75 90.6 57.75 100.6 57.75 108.45 62.6 112.4 65.05 114.3 67.45" fill="url(#gradient6)" fill-rule="evenodd" stroke="none"/>
    <path d="M278.15 58.75 Q288.65 58.75 304.65 67.25 L167.45 68.05 Q169.65 66.0 173.2 64.0 180.25 59.9 186.8 59.9 197.3 59.9 205.15 63.5 L213.0 61.2 Q222.8 58.9 232.8 58.9 242.8 58.9 250.65 62.0 254.6 63.55 256.5 65.1 L263.4 61.95 Q271.6 58.75 278.15 58.75" fill="url(#gradient7)" fill-rule="evenodd" stroke="none"/>
    <path d="M410.95 42.75 Q411.95 43.7 411.95 45.1 411.95 46.45 410.95 47.45 410.0 48.4 408.6 48.4 405.3 48.4 405.3 45.1 405.3 41.75 408.6 41.75 410.0 41.75 410.95 42.75 M436.6 36.1 Q436.6 37.45 435.3 37.7 L435.3 40.7 Q437.8 41.9 440.05 45.35 440.9 46.6 441.85 49.4 442.85 51.25 445.8 53.05 L445.8 48.55 Q442.95 48.1 442.95 45.25 442.95 43.85 443.95 42.9 444.9 41.9 446.3 41.9 447.65 41.9 448.65 42.9 449.6 43.85 449.6 45.25 449.6 48.1 446.8 48.55 L446.8 53.7 448.1 54.65 Q450.55 56.6 450.95 61.55 L452.85 59.9 452.75 62.7 Q453.5 62.0 454.6 61.85 L452.25 64.3 454.1 64.25 Q453.05 64.9 453.25 65.7 L454.95 65.45 455.1 67.7 455.75 65.75 456.7 67.45 Q457.35 68.45 457.25 69.3 457.9 68.6 458.7 68.5 L458.75 70.2 Q459.2 70.8 460.15 70.6 459.8 70.85 459.35 72.05 L461.6 71.95 461.65 73.55 463.6 73.35 463.95 74.6 Q463.9 74.9 462.95 75.15 L461.75 75.3 Q462.55 76.7 462.4 78.2 L450.5 79.5 Q448.15 80.1 443.3 82.35 438.7 84.5 436.1 85.0 L425.45 85.35 Q418.35 84.55 416.1 81.6 L392.8 69.6 Q396.0 66.8 396.5 63.95 L397.65 63.9 396.95 63.9 396.95 61.45 Q398.2 61.15 399.1 62.05 399.2 60.2 398.95 59.45 399.8 59.35 400.8 59.95 L400.8 56.1 401.45 56.1 401.45 58.1 402.85 59.4 Q403.4 57.75 404.5 57.1 403.55 55.65 402.4 54.9 L405.1 54.8 Q403.85 52.6 403.9 51.85 406.35 52.85 406.6 54.1 406.3 52.05 407.3 51.35 L409.65 54.15 Q410.75 48.55 414.05 48.85 L414.8 45.15 Q415.05 43.05 416.75 43.2 416.9 39.65 419.1 40.05 418.75 40.0 419.2 39.05 L419.8 38.05 Q420.35 37.55 421.9 37.35 423.25 36.8 423.5 35.35 423.8 33.75 424.7 33.15 426.85 31.7 428.9 34.35 430.7 36.6 430.85 39.25 431.05 38.0 431.9 37.95 L431.95 39.05 Q432.65 38.55 433.4 38.45 L433.5 39.55 Q433.95 39.1 434.6 38.95 L434.6 37.7 Q433.3 37.45 433.3 36.1 433.3 34.4 434.95 34.4 436.6 34.4 436.6 36.1" fill="url(#gradient8)" fill-rule="evenodd" stroke="none"/>
    <path d="M593.4 47.9 Q593.55 52.8 582.25 53.35 585.4 55.15 585.4 57.9 585.4 60.6 582.5 62.0 585.4 63.75 585.4 66.4 585.4 69.35 581.85 70.8 583.4 72.35 583.4 74.4 583.4 78.0 579.15 79.3 L574.9 79.9 Q566.15 79.15 566.15 74.15 566.15 71.35 567.35 69.9 564.4 68.45 564.4 66.15 564.4 62.9 567.25 61.35 564.4 59.9 564.4 57.65 564.4 53.6 568.8 52.2 557.0 49.1 560.4 43.65 562.75 39.9 567.55 41.9 569.95 42.9 571.9 44.65 571.6 42.45 572.2 40.25 573.45 35.8 578.15 35.65 582.85 35.5 582.1 40.05 581.7 42.35 580.4 44.65 L586.8 43.1 Q593.25 42.6 593.4 47.9" fill="url(#gradient9)" fill-rule="evenodd" stroke="none"/>
    <path d="M800.05 66.85 L724.7 67.15 726.4 63.75 Q728.9 59.7 732.65 56.35 744.75 45.6 765.1 45.6 785.45 45.6 794.8 56.25 799.45 61.55 800.05 66.85" fill="url(#gradient10)" fill-rule="evenodd" stroke="none"/>
    <path d="M545.3 28.1 Q547.5 28.35 548.8 29.65 L519.75 29.65 519.75 29.4 517.55 29.35 517.45 28.7 516.55 28.65 520.7 28.6 Q520.55 25.85 522.5 25.45 524.25 25.05 526.2 26.8 526.35 24.25 526.45 24.0 526.75 22.85 528.25 22.2 L530.65 22.05 Q531.9 22.4 532.25 23.45 532.05 21.6 533.75 20.55 535.35 19.55 537.05 20.1 540.25 21.05 540.25 25.8 540.35 24.9 541.9 24.55 L544.25 24.65 Q545.65 25.3 545.3 28.1" fill="#ffffff" fill-rule="evenodd" stroke="none"/>
    <path d="M360.05 39.4 Q361.95 44.85 354.8 45.4 L349.7 45.25 347.3 44.85 349.5 46.95 Q351.65 49.5 351.65 51.45 351.65 54.65 348.75 55.15 L350.2 56.85 Q351.65 58.9 351.65 60.6 351.65 63.3 349.9 66.45 L341.25 66.9 331.7 66.0 Q329.7 63.75 329.7 59.65 329.7 57.1 330.85 55.4 331.45 54.5 332.0 54.15 329.1 55.1 329.1 50.55 329.1 48.85 331.15 46.45 L333.15 44.4 325.5 43.9 Q318.35 42.45 320.7 37.4 323.25 32.05 330.3 34.5 333.85 35.75 336.9 38.05 335.0 35.7 334.6 33.3 333.8 28.55 341.25 28.55 348.65 28.55 347.25 32.65 346.6 34.65 344.4 36.7 L346.35 35.7 Q348.75 34.7 350.9 34.3 357.85 33.2 360.05 39.4" fill="url(#gradient11)" fill-rule="evenodd" stroke="none"/>
    <path d="M506.65 61.3 L504.85 62.9 Q505.45 62.7 508.45 62.85 506.85 63.7 506.2 64.3 508.4 65.2 508.3 65.8 502.5 67.05 499.7 66.6 497.55 66.2 497.1 63.9 496.65 61.75 497.8 59.85 L499.55 58.2 Q499.45 57.4 500.4 55.85 501.4 54.25 502.15 53.95 502.3 56.55 501.5 57.85 503.4 56.5 505.05 56.7 505.25 57.6 503.85 59.4 L507.7 58.95 Q507.9 59.8 506.65 61.3" fill="url(#gradient12)" fill-rule="evenodd" stroke="none"/>
    <path d="M505.6 38.9 L505.65 33.3 Q506.8 36.4 507.0 38.65 507.2 37.9 509.4 35.45 L512.1 32.65 Q511.7 34.7 508.55 38.9 511.25 38.15 512.7 38.25 514.45 38.3 516.95 39.5 515.05 39.5 513.7 40.5 512.15 41.65 511.2 41.85 513.55 41.65 516.15 42.8 519.05 44.05 519.75 45.95 L512.3 45.05 Q514.35 46.0 515.65 47.8 516.95 49.6 517.25 50.8 L513.25 50.25 Q511.3 49.6 510.3 48.8 L511.8 51.25 Q512.55 53.15 512.4 55.45 511.85 55.25 508.75 52.75 507.3 51.7 506.5 49.75 506.15 54.65 504.0 55.35 L503.8 51.6 Q503.75 50.95 500.65 56.1 497.55 61.2 497.55 60.7 L496.3 59.45 502.8 47.5 501.05 48.25 498.7 48.25 Q499.35 47.05 500.7 46.15 496.7 46.0 493.3 43.75 494.8 41.95 501.95 42.15 L497.4 40.7 Q494.85 39.9 493.35 39.0 L498.75 38.8 503.75 39.6 Q501.45 35.6 500.95 33.65 502.65 34.5 503.8 36.1 L505.6 38.9" fill="url(#gradient13)" fill-rule="evenodd" stroke="none"/>
    <path d="M500.3 69.1 L478.6 69.75 477.3 69.4 477.95 59.4 Q475.95 58.85 475.95 57.6 475.95 56.5 480.05 51.55 484.2 46.4 485.6 46.4 L495.6 47.1 Q497.3 47.1 503.3 57.75 503.6 58.75 502.3 59.4 L500.3 60.75 500.3 69.1" fill="url(#gradient14)" fill-rule="evenodd" stroke="none"/>
    <path d="M255.35 43.65 L257.25 45.25 Q259.7 47.5 260.85 49.4 263.6 53.65 259.3 54.9 259.6 55.15 259.6 55.55 259.6 56.45 257.9 56.8 L257.9 67.25 251.85 67.25 251.85 56.8 Q250.15 56.45 250.15 55.55 250.15 55.15 250.45 54.9 246.2 53.7 249.1 49.4 251.05 46.55 254.7 43.7 L254.7 43.55 Q254.7 39.85 255.05 39.85 255.35 39.85 255.35 43.55 L255.35 43.65" fill="url(#gradient15)" fill-rule="evenodd" stroke="none"/>
    <path d="M265.6 47.6 Q263.4 45.7 266.75 42.1 270.0 38.55 276.2 35.05 L276.2 33.85 Q276.2 24.25 276.95 24.25 277.75 24.25 277.75 33.85 L277.75 34.95 280.85 36.9 Q284.95 39.75 287.0 42.1 290.2 45.75 287.85 47.65 288.95 48.2 288.95 48.85 288.95 49.75 286.8 50.45 L286.8 71.85 267.05 68.85 266.8 50.55 Q264.4 49.8 264.4 48.85 264.4 48.15 265.6 47.6" fill="url(#gradient16)" fill-rule="evenodd" stroke="none"/>
    <path d="M748.8 59.05 Q748.75 55.95 753.2 53.75 757.55 51.55 763.8 51.55 770.05 51.55 774.45 53.75 778.85 55.95 778.85 59.05 778.85 62.2 774.45 64.4 770.05 66.55 763.8 66.6 757.55 66.55 753.2 64.4 748.75 62.2 748.8 59.05" fill="#115a91" fill-opacity="0.2627451" fill-rule="evenodd" stroke="none"/>
    <path d="M397.2 65.15 Q501.35 64.3 694.5 70.25 526.45 69.3 397.4 70.6 L397.2 65.15" fill="#ffffff" fill-rule="evenodd" stroke="none"/>
    <path d="M398.45 65.15 Q294.3 64.3 101.15 70.25 269.2 69.3 398.25 70.6 L398.45 65.15" fill="#ffffff" fill-rule="evenodd" stroke="none"/>
    <path d="M94.0 68.0 L-0.3 68.0 -0.3 57.75 94.0 57.75 94.0 68.0" fill="url(#gradient17)" fill-rule="evenodd" stroke="none"/>
    <path d="M56.5 -63.1 L79.5 42.85 19.25 -67.85 56.5 -63.1" fill="url(#gradient18)" fill-rule="evenodd" stroke="none"/>
    <path d="M47.9 -63.1 L79.5 42.85 19.25 -67.85 47.9 -63.1" fill="url(#gradient19)" fill-rule="evenodd" stroke="none"/>
    <path d="M79.5 42.85 L-9.35 -64.9 19.25 -67.85 79.5 42.85" fill="url(#gradient20)" fill-rule="evenodd" stroke="none"/>
    <path d="M-9.35 -64.9 L79.5 42.85 -36.55 -54.85 -9.35 -64.9" fill="url(#gradient21)" fill-rule="evenodd" stroke="none"/>
    <path d="M-36.55 -54.85 L79.5 42.85 -65.45 -33.6 -36.55 -54.85" fill="url(#gradient22)" fill-rule="evenodd" stroke="none"/>
    <path d="M-36.55 -54.85 L79.5 42.85 -60.15 -38.0 -36.55 -54.85" fill="url(#gradient23)" fill-rule="evenodd" stroke="none"/>
  </g>
  <defs>
    <radialGradient cx="0" cy="0" gradientTransform="matrix(1.4305, 0.0, 0.0, 0.09, 392.1, 69.65)" gradientUnits="userSpaceOnUse" id="gradient0" r="819.2" spreadMethod="pad">
      <stop offset="0.0" stop-color="#ffffff"/>
      <stop offset="0.34901960784313724" stop-color="#85d7ff"/>
      <stop offset="0.803921568627451" stop-color="#0081f7"/>
      <stop offset="1.0" stop-color="#24508e"/>
    </radialGradient>
    <linearGradient gradientTransform="matrix(0.0, -0.0177, 1.0, 4.0E-4, 95.2, 54.7)" gradientUnits="userSpaceOnUse" id="gradient1" spreadMethod="pad" x1="-819.2" x2="819.2">
      <stop offset="0.0" stop-color="#ffffff"/>
      <stop offset="0.4588235294117647" stop-color="#85d7ff"/>
      <stop offset="1.0" stop-color="#3d9ee8"/>
    </linearGradient>
    <linearGradient gradientTransform="matrix(0.0, -0.011, 1.0, 6.0E-4, 244.4, 59.55)" gradientUnits="userSpaceOnUse" id="gradient2" spreadMethod="pad" x1="-819.2" x2="819.2">
      <stop offset="0.0" stop-color="#ffffff"/>
      <stop offset="0.4588235294117647" stop-color="#85d7ff"/>
      <stop offset="1.0" stop-color="#3d9ee8"/>
    </linearGradient>
    <linearGradient gradientTransform="matrix(0.0, -0.0211, 1.0, 4.0E-4, -171.6, 68.35)" gradientUnits="userSpaceOnUse" id="gradient3" spreadMethod="pad" x1="-819.2" x2="819.2">
      <stop offset="0.0" stop-color="#ffffff"/>
      <stop offset="0.4588235294117647" stop-color="#85d7ff"/>
      <stop offset="1.0" stop-color="#3d9ee8"/>
    </linearGradient>
    <linearGradient gradientTransform="matrix(0.0, -0.0336, 1.0, 4.0E-4, -19.4, 54.3)" gradientUnits="userSpaceOnUse" id="gradient4" spreadMethod="pad" x1="-819.2" x2="819.2">
      <stop offset="0.0" stop-color="#ffffff"/>
      <stop offset="0.4588235294117647" stop-color="#85d7ff"/>
      <stop offset="1.0" stop-color="#3d9ee8"/>
    </linearGradient>
    <linearGradient gradientTransform="matrix(0.0, -0.0073, 1.0, 4.0E-4, -98.6, 61.7)" gradientUnits="userSpaceOnUse" id="gradient5" spreadMethod="pad" x1="-819.2" x2="819.2">
      <stop offset="0.0" stop-color="#ffffff"/>
      <stop offset="0.4588235294117647" stop-color="#85d7ff"/>
      <stop offset="1.0" stop-color="#3d9ee8"/>
    </linearGradient>
    <linearGradient gradientTransform="matrix(-1.0E-4, -0.0168, 0.9997, -0.0048, -218.0, 68.0)" gradientUnits="userSpaceOnUse" id="gradient6" spreadMethod="pad" x1="-819.2" x2="819.2">
      <stop offset="0.0" stop-color="#ffffff"/>
      <stop offset="0.4588235294117647" stop-color="#85d7ff"/>
      <stop offset="1.0" stop-color="#3d9ee8"/>
    </linearGradient>
    <linearGradient gradientTransform="matrix(0.0, -0.011, 1.0, 6.0E-4, -233.75, 60.7)" gradientUnits="userSpaceOnUse" id="gradient7" spreadMethod="pad" x1="-819.2" x2="819.2">
      <stop offset="0.0" stop-color="#ffffff"/>
      <stop offset="0.4588235294117647" stop-color="#85d7ff"/>
      <stop offset="1.0" stop-color="#3d9ee8"/>
    </linearGradient>
    <linearGradient gradientTransform="matrix(0.0, -0.0208, 1.0, 4.0E-4, -28.55, 57.8)" gradientUnits="userSpaceOnUse" id="gradient8" spreadMethod="pad" x1="-819.2" x2="819.2">
      <stop offset="0.0" stop-color="#ffffff"/>
      <stop offset="0.4588235294117647" stop-color="#85d7ff"/>
      <stop offset="1.0" stop-color="#3d9ee8"/>
    </linearGradient>
    <linearGradient gradientTransform="matrix(0.0, -0.0464, 1.0, 4.0E-4, -146.4, 78.2)" gradientUnits="userSpaceOnUse" id="gradient9" spreadMethod="pad" x1="-819.2" x2="819.2">
      <stop offset="0.0" stop-color="#ffffff"/>
      <stop offset="0.4588235294117647" stop-color="#85d7ff"/>
      <stop offset="1.0" stop-color="#3d9ee8"/>
    </linearGradient>
    <linearGradient gradientTransform="matrix(0.0, -0.0177, 0.0132, 0.0, 759.05, 61.0)" gradientUnits="userSpaceOnUse" id="gradient10" spreadMethod="pad" x1="-819.2" x2="819.2">
      <stop offset="0.0" stop-color="#ffffff"/>
      <stop offset="0.4588235294117647" stop-color="#85d7ff"/>
      <stop offset="1.0" stop-color="#3d9ee8"/>
    </linearGradient>
    <linearGradient gradientTransform="matrix(0.0, -0.032, 1.0, 4.0E-4, -11.35, 63.35)" gradientUnits="userSpaceOnUse" id="gradient11" spreadMethod="pad" x1="-819.2" x2="819.2">
      <stop offset="0.0" stop-color="#ffffff"/>
      <stop offset="0.4588235294117647" stop-color="#85d7ff"/>
      <stop offset="1.0" stop-color="#3d9ee8"/>
    </linearGradient>
    <linearGradient gradientTransform="matrix(0.0, -0.0128, 1.0, 4.0E-4, -59.55, 59.75)" gradientUnits="userSpaceOnUse" id="gradient12" spreadMethod="pad" x1="-819.2" x2="819.2">
      <stop offset="0.0" stop-color="#ffffff"/>
      <stop offset="0.4588235294117647" stop-color="#85d7ff"/>
      <stop offset="1.0" stop-color="#3d9ee8"/>
    </linearGradient>
    <linearGradient gradientTransform="matrix(0.0, -0.0146, 1.0, 4.0E-4, -61.2, 53.0)" gradientUnits="userSpaceOnUse" id="gradient13" spreadMethod="pad" x1="-819.2" x2="819.2">
      <stop offset="0.0" stop-color="#ffffff"/>
      <stop offset="0.4588235294117647" stop-color="#85d7ff"/>
      <stop offset="1.0" stop-color="#3d9ee8"/>
    </linearGradient>
    <linearGradient gradientTransform="matrix(0.0, -0.0125, 1.0, 4.0E-4, -60.7, 60.25)" gradientUnits="userSpaceOnUse" id="gradient14" spreadMethod="pad" x1="-819.2" x2="819.2">
      <stop offset="0.0" stop-color="#ffffff"/>
      <stop offset="0.4588235294117647" stop-color="#85d7ff"/>
      <stop offset="1.0" stop-color="#3d9ee8"/>
    </linearGradient>
    <linearGradient gradientTransform="matrix(0.0, -0.0211, 1.0, 4.0E-4, 30.5, 53.15)" gradientUnits="userSpaceOnUse" id="gradient15" spreadMethod="pad" x1="-819.2" x2="819.2">
      <stop offset="0.0" stop-color="#ffffff"/>
      <stop offset="0.4588235294117647" stop-color="#85d7ff"/>
      <stop offset="1.0" stop-color="#3d9ee8"/>
    </linearGradient>
    <linearGradient gradientTransform="matrix(0.0, -0.0211, 1.0, 4.0E-4, 29.85, 55.4)" gradientUnits="userSpaceOnUse" id="gradient16" spreadMethod="pad" x1="-819.2" x2="819.2">
      <stop offset="0.0" stop-color="#ffffff"/>
      <stop offset="0.4588235294117647" stop-color="#85d7ff"/>
      <stop offset="1.0" stop-color="#3d9ee8"/>
    </linearGradient>
    <linearGradient gradientTransform="matrix(1.0E-4, -0.0057, 0.0326, 0.0, 46.85, 62.9)" gradientUnits="userSpaceOnUse" id="gradient17" spreadMethod="pad" x1="-819.2" x2="819.2">
      <stop offset="0.0" stop-color="#81cdf6"/>
      <stop offset="1.0" stop-color="#81c9f5" stop-opacity="0.0"/>
    </linearGradient>
    <linearGradient gradientTransform="matrix(0.0, 0.0368, -0.0676, 0.0, 49.35, -12.5)" gradientUnits="userSpaceOnUse" id="gradient18" spreadMethod="pad" x1="-819.2" x2="819.2">
      <stop offset="0.0" stop-color="#b6d5e3"/>
      <stop offset="1.0" stop-color="#3d9ee8"/>
    </linearGradient>
    <linearGradient gradientTransform="matrix(0.0, 0.0208, -0.0676, 0.0, 52.15, 15.5)" gradientUnits="userSpaceOnUse" id="gradient19" spreadMethod="pad" x1="-819.2" x2="819.2">
      <stop offset="0.0" stop-color="#00ffaa"/>
      <stop offset="1.0" stop-color="#3d9ee8"/>
    </linearGradient>
    <linearGradient gradientTransform="matrix(0.0, 0.0269, -0.0676, 0.0, 45.95, 32.55)" gradientUnits="userSpaceOnUse" id="gradient20" spreadMethod="pad" x1="-819.2" x2="819.2">
      <stop offset="0.0" stop-color="#ff6600"/>
      <stop offset="1.0" stop-color="#3d9ee8"/>
    </linearGradient>
    <linearGradient gradientTransform="matrix(0.0, 0.0281, -0.0658, -1.0E-4, 23.65, 23.0)" gradientUnits="userSpaceOnUse" id="gradient21" spreadMethod="pad" x1="-819.2" x2="819.2">
      <stop offset="0.0" stop-color="#f70095"/>
      <stop offset="1.0" stop-color="#3d9ee8"/>
    </linearGradient>
    <linearGradient gradientTransform="matrix(4.0E-4, 0.0258, -0.0596, 9.0E-4, 6.75, 13.2)" gradientUnits="userSpaceOnUse" id="gradient22" spreadMethod="pad" x1="-819.2" x2="819.2">
      <stop offset="0.0" stop-color="#b6d5e3"/>
      <stop offset="1.0" stop-color="#3d9ee8"/>
    </linearGradient>
    <linearGradient gradientTransform="matrix(0.0, 0.021, -0.0596, 0.0, 4.3, 4.4)" gradientUnits="userSpaceOnUse" id="gradient23" spreadMethod="pad" x1="-819.2" x2="819.2">
      <stop offset="0.0" stop-color="#3ec4fd"/>
      <stop offset="1.0" stop-color="#3d9ee8"/>
    </linearGradient>
  </defs>
</svg>
