<?xml version="1.0" encoding="UTF-8" standalone="no"?>
<svg
   height="51.0px"
   width="43.45px"
   version="1.1"
   id="svg3467"
   sodipodi:docname="tiz.svg"
   inkscape:version="1.1 (c4e8f9ed74, 2021-05-24)"
   xmlns:inkscape="http://www.inkscape.org/namespaces/inkscape"
   xmlns:sodipodi="http://sodipodi.sourceforge.net/DTD/sodipodi-0.dtd"
   xmlns:xlink="http://www.w3.org/1999/xlink"
   xmlns="http://www.w3.org/2000/svg"
   xmlns:svg="http://www.w3.org/2000/svg">
  <sodipodi:namedview
     id="namedview3469"
     pagecolor="#505050"
     bordercolor="#eeeeee"
     borderopacity="1"
     inkscape:pageshadow="0"
     inkscape:pageopacity="0"
     inkscape:pagecheckerboard="0"
     showgrid="false"
     inkscape:zoom="15.941176"
     inkscape:cx="10.758303"
     inkscape:cy="13.926199"
     inkscape:current-layer="g3398" />
  <g
     transform="translate(22,48.15)"
     id="g3398"
     style="display:inline">
    <use
       height="51"
       transform="translate(-22,-48.15)"
       width="43.450001"
       xlink:href="#shape0"
       id="use3392"
       x="0"
       y="0"
       style="display:inline" />
    <use

       transform="matrix(0.83,0,0,0.83,-9.33,-41.33)"

       xlink:href="#eyes1"
       id="use3394"
       x="0"
       y="0"
       style="display:inline" />
    <use

       transform="matrix(0.83,0,0,0.83,-9.33,-41.33)"

       xlink:href="#eyes2"
       id="use3396"
       x="0"
       y="0"
       style="display:inline" />
  </g>
  <defs
     id="defs3465">
    <g
       id="shape0"
       transform="matrix(1.0, 0.0, 0.0, 1.0, 22.0, 48.15)">
      <path
         d="M10.9 -40.25 Q13.05 -36.1 14.45 -31.5 15.9 -26.8 15.6 -22.0 15.25 -17.05 11.4 -13.9 7.6 -10.7 2.65 -9.85 -2.35 -9.25 -7.0 -10.8 -11.65 -12.4 -14.1 -16.3 -16.65 -20.25 -16.4 -24.65 -16.2 -29.05 -14.4 -33.95 -12.6 -38.9 -9.45 -42.6 -6.35 -46.35 -1.75 -47.55 1.1 -47.95 3.75 -46.85 8.5 -44.8 10.9 -40.25"
         fill="#ffffff"
         fill-rule="evenodd"
         stroke="none"
         id="path3400" />
      <path
         d="M10.9 -40.25 Q8.5 -44.8 3.75 -46.85 1.1 -47.95 -1.75 -47.55 -6.35 -46.35 -9.45 -42.6 -12.6 -38.9 -14.4 -33.95 -16.2 -29.05 -16.4 -24.65 -16.65 -20.25 -14.1 -16.3 -11.65 -12.4 -7.0 -10.8 -2.35 -9.25 2.65 -9.85 7.6 -10.7 11.4 -13.9 15.25 -17.05 15.6 -22.0 15.9 -26.8 14.45 -31.5 13.05 -36.1 10.9 -40.25 Z"
         fill="none"
         stroke="#333333"
         stroke-linecap="round"
         stroke-linejoin="round"
         stroke-width="1.0"
         id="path3402" />
      <path
         d="M-11.25 0.65 L-8.3 0.1 Q-5.1 -0.7 -3.25 -1.65 L-2.55 -2.1 -1.25 -3.55 Q-1.1 -1.95 -1.3 -1.65 L-1.35 -1.5 Q-2.85 0.3 -8.2 1.65 -14.1 3.05 -18.0 1.65 L-18.4 1.4 Q-18.7 1.15 -18.75 -0.4 L-18.5 -0.15 -18.1 0.1 Q-15.2 1.15 -11.25 0.65 M-12.7 -7.8 L-10.85 -7.9 Q-7.15 -7.5 -6.7 -4.8 -6.55 -3.9 -7.35 -3.15 -9.55 -1.1 -12.65 -2.9 -13.55 -3.45 -14.75 -3.6 L-17.15 -3.7 -12.7 -7.8"
         fill="#ffffff"
         fill-rule="evenodd"
         stroke="none"
         id="path3404" />
      <path
         d="M-17.85 -2.85 Q-15.35 -3.35 -13.15 -2.4 -10.65 -1.3 -11.25 0.65 -15.2 1.15 -18.1 0.1 L-18.5 -0.15 -18.75 -0.4 Q-19.15 -1.2 -17.85 -2.85 M-3.75 -8.85 L-6.1 -8.15 Q-7.95 -7.75 -11.15 -8.8 -9.1 -9.95 -6.55 -9.65 -5.05 -9.55 -3.75 -8.85"
         fill="#004566"
         fill-rule="evenodd"
         stroke="none"
         id="path3406" />
      <path
         d="M-17.85 -2.85 L-17.15 -3.7 -14.75 -3.6 Q-13.55 -3.45 -12.65 -2.9 -9.55 -1.1 -7.35 -3.15 -6.55 -3.9 -6.7 -4.8 -7.15 -7.5 -10.85 -7.9 L-12.7 -7.8 -11.15 -8.8 Q-7.95 -7.75 -6.1 -8.15 L-3.75 -8.85 -1.25 -3.55 -2.55 -2.1 -3.25 -1.65 Q-5.1 -0.7 -8.3 0.1 L-11.25 0.65 Q-10.65 -1.3 -13.15 -2.4 -15.35 -3.35 -17.85 -2.85"
         fill="#6699cc"
         fill-rule="evenodd"
         stroke="none"
         id="path3408" />
      <path
         d="M-17.15 -3.7 L-17.85 -2.85 Q-19.15 -1.2 -18.75 -0.4 -18.7 1.15 -18.4 1.4 L-18.0 1.65 Q-14.1 3.05 -8.2 1.65 -2.85 0.3 -1.35 -1.5 L-1.3 -1.65 Q-1.1 -1.95 -1.25 -3.55 L-3.75 -8.85 Q-5.05 -9.55 -6.55 -9.65 -9.1 -9.95 -11.15 -8.8 L-12.7 -7.8 -17.15 -3.7 Z"
         fill="none"
         stroke="#333333"
         stroke-linecap="round"
         stroke-linejoin="round"
         stroke-width="1.0"
         id="path3410" />
      <path
         d="M18.65 -0.9 Q18.6 0.65 18.35 0.9 L17.9 1.15 Q14.0 2.55 8.15 1.15 2.75 -0.2 1.3 -2.0 L1.2 -2.15 Q1.0 -2.45 1.15 -4.05 L2.5 -2.6 3.2 -2.15 Q5.0 -1.2 8.2 -0.4 L11.15 0.15 Q15.1 0.65 18.0 -0.4 L18.45 -0.65 18.65 -0.9 M12.65 -8.3 L17.05 -4.2 14.65 -4.1 Q13.45 -3.95 12.6 -3.4 9.45 -1.6 7.25 -3.65 6.45 -4.4 6.6 -5.3 7.05 -8.0 10.8 -8.4 L12.65 -8.3"
         fill="#ffffff"
         fill-rule="evenodd"
         stroke="none"
         id="path3412" />
      <path
         d="M1.15 -4.05 L3.7 -9.35 Q4.25 -9.05 6.05 -8.65 7.85 -8.25 11.1 -9.3 L12.65 -8.3 10.8 -8.4 Q7.05 -8.0 6.6 -5.3 6.45 -4.4 7.25 -3.65 9.45 -1.6 12.6 -3.4 13.45 -3.95 14.65 -4.1 L17.05 -4.2 17.75 -3.35 Q15.25 -3.85 13.1 -2.9 10.55 -1.8 11.15 0.15 L8.2 -0.4 Q5.0 -1.2 3.2 -2.15 L2.5 -2.6 1.15 -4.05"
         fill="#6699cc"
         fill-rule="evenodd"
         stroke="none"
         id="path3414" />
      <path
         d="M3.7 -9.35 Q4.95 -10.05 6.45 -10.15 9.0 -10.45 11.1 -9.3 7.85 -8.25 6.05 -8.65 4.25 -9.05 3.7 -9.35 M17.75 -3.35 Q19.05 -1.7 18.65 -0.9 L18.45 -0.65 18.0 -0.4 Q15.1 0.65 11.15 0.15 10.55 -1.8 13.1 -2.9 15.25 -3.85 17.75 -3.35"
         fill="#004566"
         fill-rule="evenodd"
         stroke="none"
         id="path3416" />
      <path
         d="M18.65 -0.9 Q18.6 0.65 18.35 0.9 L17.9 1.15 Q14.0 2.55 8.15 1.15 2.75 -0.2 1.3 -2.0 L1.2 -2.15 Q1.0 -2.45 1.15 -4.05 L3.7 -9.35 Q4.95 -10.05 6.45 -10.15 9.0 -10.45 11.1 -9.3 L12.65 -8.3 17.05 -4.2 17.75 -3.35 Q19.05 -1.7 18.65 -0.9 Z"
         fill="none"
         stroke="#333333"
         stroke-linecap="round"
         stroke-linejoin="round"
         stroke-width="1.0"
         id="path3418" />
      <path
         d="M-20.7 -17.85 L-21.25 -18.2 Q-22.0 -20.4 -20.3 -22.1 -18.5 -23.85 -16.1 -24.6 -13.65 -23.35 -13.85 -18.6 -13.7 -17.2 -14.3 -15.75 L-15.15 -15.7 -15.9 -17.4 Q-16.5 -15.5 -17.9 -14.0 L-18.9 -13.7 -19.5 -14.15 Q-20.1 -14.8 -20.1 -15.65 L-20.4 -15.65 -20.55 -16.05 -20.7 -17.85 -20.05 -19.55 -20.7 -17.85 M-19.15 -17.9 L-20.1 -15.65 -19.15 -17.9"
         fill="#ffffff"
         fill-rule="evenodd"
         stroke="none"
         id="path3420" />
      <path
         d="M-16.1 -24.6 Q-18.5 -23.85 -20.3 -22.1 -22.0 -20.4 -21.25 -18.2 L-20.7 -17.85 -20.05 -19.55 M-20.1 -15.65 Q-20.1 -14.8 -19.5 -14.15 L-18.9 -13.7 -17.9 -14.0 Q-16.5 -15.5 -15.9 -17.4 L-15.15 -15.7 -14.3 -15.75 Q-13.7 -17.2 -13.85 -18.6 M-20.7 -17.85 L-20.55 -16.05 -20.4 -15.65 M-20.1 -15.65 L-19.15 -17.9"
         fill="none"
         stroke="#333333"
         stroke-linecap="round"
         stroke-linejoin="round"
         stroke-width="1.0"
         id="path3422" />
      <path
         d="M15.55 -25.25 Q17.95 -24.5 19.75 -22.75 21.45 -21.05 20.7 -18.85 L20.15 -18.5 20.0 -16.7 19.85 -16.3 19.6 -16.3 Q19.55 -15.45 18.95 -14.8 L18.35 -14.35 17.35 -14.65 Q15.95 -16.15 15.35 -18.05 L14.6 -16.35 13.75 -16.4 Q13.15 -17.85 13.3 -19.25 13.1 -24.0 15.55 -25.25 M18.6 -18.55 L19.6 -16.3 18.6 -18.55 M19.5 -20.2 L20.15 -18.5 19.5 -20.2"
         fill="#ffffff"
         fill-rule="evenodd"
         stroke="none"
         id="path3424" />
      <path
         d="M15.55 -25.25 Q17.95 -24.5 19.75 -22.75 21.45 -21.05 20.7 -18.85 L20.15 -18.5 20.0 -16.7 19.85 -16.3 M19.6 -16.3 Q19.55 -15.45 18.95 -14.8 L18.35 -14.35 17.35 -14.65 Q15.95 -16.15 15.35 -18.05 L14.6 -16.35 13.75 -16.4 Q13.15 -17.85 13.3 -19.25 M20.15 -18.5 L19.5 -20.2 M19.6 -16.3 L18.6 -18.55"
         fill="none"
         stroke="#333333"
         stroke-linecap="round"
         stroke-linejoin="round"
         stroke-width="1.0"
         id="path3426" />
      <path
         d="M-3.9 -28.9 L-0.35 -26.45 3.05 -28.75"
         fill="none"
         stroke="#333333"
         stroke-linecap="round"
         stroke-linejoin="round"
         stroke-width="1.0"
         id="path3428" />
      <path
         d="M11.75 -31.0 Q11.75 -30.05 8.6 -30.6 L0.45 -31.35 -8.6 -30.8 Q-12.7 -30.05 -12.7 -31.0 -12.7 -31.95 -9.0 -33.75 -5.35 -35.6 -0.3 -35.6 4.7 -35.65 8.2 -33.8 11.7 -32.0 11.75 -31.0"
         fill="#6596cc"
         fill-opacity="0.43137255"
         fill-rule="evenodd"
         stroke="none"
         id="path3430" />
      <path
         d="M3.9 -31.05 Q2.2 -31.1 1.1 -32.5 -0.1 -33.95 -0.05 -35.95 -0.1 -38.0 1.1 -39.4 2.2 -40.85 3.9 -40.85 5.55 -40.85 6.7 -39.4 7.85 -38.0 7.85 -35.95 7.85 -33.95 6.7 -32.5 5.55 -31.1 3.9 -31.05"
         fill="#ffffff"
         fill-rule="evenodd"
         stroke="none"
         id="path3432" />
      <path
         d="M3.9 -31.05 Q2.2 -31.1 1.1 -32.5 -0.1 -33.95 -0.05 -35.95 -0.1 -38.0 1.1 -39.4 2.2 -40.85 3.9 -40.85 5.55 -40.85 6.7 -39.4 7.85 -38.0 7.85 -35.95 7.85 -33.95 6.7 -32.5 5.55 -31.1 3.9 -31.05 Z"
         fill="none"
         stroke="#666666"
         stroke-linecap="round"
         stroke-linejoin="round"
         stroke-width="1.0"
         id="path3434" />
      <path
         d="M2.25 -36.9 Q2.65 -37.45 3.2 -37.4 3.75 -37.45 4.15 -36.9 4.55 -36.4 4.55 -35.55 4.55 -34.8 4.15 -34.25 3.75 -33.75 3.2 -33.75 2.65 -33.75 2.25 -34.25 1.85 -34.8 1.9 -35.55 1.85 -36.4 2.25 -36.9 M2.55 -36.5 L2.4 -36.0 Q2.4 -35.75 2.55 -35.55 L2.9 -35.35 3.2 -35.55 3.4 -36.0 3.2 -36.5 2.9 -36.65 Q2.65 -36.7 2.55 -36.5"
         fill="#000000"
         fill-rule="evenodd"
         stroke="none"
         id="path3436" />
      <path
         d="M2.55 -36.5 Q2.65 -36.7 2.9 -36.65 L3.2 -36.5 3.4 -36.0 3.2 -35.55 2.9 -35.35 2.55 -35.55 Q2.4 -35.75 2.4 -36.0 L2.55 -36.5"
         fill="#ffffff"
         fill-rule="evenodd"
         stroke="none"
         id="path3438" />
      <path
         d="M-1.95 -39.35 Q-0.8 -37.9 -0.8 -35.9 -0.8 -33.9 -1.95 -32.45 -3.1 -31.0 -4.75 -31.0 -6.45 -31.0 -7.55 -32.45 -8.75 -33.9 -8.7 -35.9 -8.75 -37.9 -7.55 -39.35 -6.45 -40.8 -4.75 -40.8 -3.1 -40.8 -1.95 -39.35"
         fill="#ffffff"
         fill-rule="evenodd"
         stroke="none"
         id="path3440" />
      <path
         d="M-1.95 -39.35 Q-0.8 -37.9 -0.8 -35.9 -0.8 -33.9 -1.95 -32.45 -3.1 -31.0 -4.75 -31.0 -6.45 -31.0 -7.55 -32.45 -8.75 -33.9 -8.7 -35.9 -8.75 -37.9 -7.55 -39.35 -6.45 -40.8 -4.75 -40.8 -3.1 -40.8 -1.95 -39.35 Z"
         fill="none"
         stroke="#666666"
         stroke-linecap="round"
         stroke-linejoin="round"
         stroke-width="1.0"
         id="path3442" />
      <path
         d="M-3.95 -37.4 Q-3.4 -37.45 -3.0 -36.95 -2.6 -36.4 -2.6 -35.6 -2.6 -34.8 -3.0 -34.3 -3.4 -33.75 -3.95 -33.75 -4.5 -33.75 -4.9 -34.3 -5.3 -34.8 -5.3 -35.6 -5.3 -36.4 -4.9 -36.95 -4.5 -37.45 -3.95 -37.4 M-4.75 -36.0 L-4.6 -35.6 -4.25 -35.35 -3.95 -35.6 Q-3.8 -35.75 -3.8 -36.0 L-3.95 -36.5 Q-4.05 -36.7 -4.25 -36.7 L-4.6 -36.5 -4.75 -36.0"
         fill="#000000"
         fill-rule="evenodd"
         stroke="none"
         id="path3444" />
      <path
         d="M-4.75 -36.0 L-4.6 -36.5 -4.25 -36.7 Q-4.05 -36.7 -3.95 -36.5 L-3.8 -36.0 Q-3.8 -35.75 -3.95 -35.6 L-4.25 -35.35 -4.6 -35.6 -4.75 -36.0"
         fill="#ffffff"
         fill-rule="evenodd"
         stroke="none"
         id="path3446" />
    </g>
    <g
       id="eyes1"
       transform="matrix(1.0, 0.0, 0.0, 1.0, 10.7, 6.5)">
      <path
         d="M10.15 -0.95 L10.2 0.0 Q10.2 1.35 9.8 2.5 8.4 3.3 5.75 3.2 3.35 3.25 0.75 1.95 0.45 1.05 0.5 0.0 L0.5 -0.1 0.55 -1.05 Q3.2 0.2 5.55 0.15 8.85 0.25 10.15 -0.95 M-0.55 -1.35 L-0.45 -0.4 -0.45 0.05 -0.65 1.9 Q-2.2 2.65 -4.3 3.1 -7.05 3.65 -9.75 2.6 L-9.8 2.45 -10.2 0.45 -10.2 0.05 -10.15 -0.55 Q-7.4 0.65 -4.5 0.05 -2.2 -0.45 -0.55 -1.35"
         fill="#ffffff"
         fill-rule="evenodd"
         stroke="none"
         id="path3449" />
      <path
         d="M0.55 -1.05 Q0.75 -2.9 1.9 -4.25 3.3 -6.05 5.35 -6.0 7.35 -6.05 8.8 -4.25 9.95 -2.85 10.15 -0.95 8.85 0.25 5.55 0.15 3.2 0.2 0.55 -1.05 M9.8 2.5 L8.8 4.25 Q7.35 6.0 5.35 6.0 3.3 6.0 1.9 4.25 1.05 3.2 0.75 1.95 3.35 3.25 5.75 3.2 8.4 3.3 9.8 2.5 M-10.15 -0.55 Q-10.0 -2.65 -8.75 -4.2 -7.35 -5.95 -5.3 -5.95 -3.3 -5.95 -1.85 -4.2 -0.85 -2.95 -0.55 -1.35 -2.2 -0.45 -4.5 0.05 -7.4 0.65 -10.15 -0.55 M-0.65 1.9 Q-1.0 3.2 -1.85 4.3 -3.3 6.05 -5.3 6.05 -7.35 6.05 -8.75 4.3 L-9.75 2.6 Q-7.05 3.65 -4.3 3.1 -2.2 2.65 -0.65 1.9"
         fill="#cce4ff"
         fill-rule="evenodd"
         stroke="none"
         id="path3451" />
      <path
         d="M0.55 -1.05 Q0.75 -2.9 1.9 -4.25 3.3 -6.05 5.35 -6.0 7.35 -6.05 8.8 -4.25 9.95 -2.85 10.15 -0.95 L10.2 0.0 Q10.2 1.35 9.8 2.5 L8.8 4.25 Q7.35 6.0 5.35 6.0 3.3 6.0 1.9 4.25 1.05 3.2 0.75 1.95 0.45 1.05 0.5 0.0 L0.5 -0.1 0.55 -1.05 M-10.15 -0.55 Q-10.0 -2.65 -8.75 -4.2 -7.35 -5.95 -5.3 -5.95 -3.3 -5.95 -1.85 -4.2 -0.85 -2.95 -0.55 -1.35 L-0.45 -0.4 -0.45 0.05 -0.65 1.9 Q-1.0 3.2 -1.85 4.3 -3.3 6.05 -5.3 6.05 -7.35 6.05 -8.75 4.3 L-9.75 2.6 M-9.8 2.45 L-10.2 0.45 -10.2 0.05 -10.15 -0.55"
         fill="none"
         stroke="#6699cc"
         stroke-linecap="round"
         stroke-linejoin="round"
         stroke-width="1.0"
         id="path3453" />
      <path
         d="M0.55 -1.05 Q3.2 0.2 5.55 0.15 8.85 0.25 10.15 -0.95 M9.8 2.5 Q8.4 3.3 5.75 3.2 3.35 3.25 0.75 1.95 M-9.75 2.6 L-9.8 2.45 M-10.15 -0.55 Q-7.4 0.65 -4.5 0.05 -2.2 -0.45 -0.55 -1.35 M-0.65 1.9 Q-2.2 2.65 -4.3 3.1 -7.05 3.65 -9.75 2.6"
         fill="none"
         stroke="#6699cc"
         stroke-linecap="round"
         stroke-linejoin="round"
         stroke-width="1.0"
         id="path3455" />
    </g>
    <g
       id="eyes2"
       transform="matrix(1.0, 0.0, 0.0, 1.0, 10.7, 6.5)">
      <path
         d="M0.5 -0.1 Q0.5 -2.55 1.9 -4.25 3.3 -6.05 5.35 -6.0 7.35 -6.05 8.8 -4.25 10.2 -2.5 10.2 0.0 8.9 1.25 5.55 1.15 3.15 1.2 0.5 -0.1 3.15 1.2 5.55 1.15 8.9 1.25 10.2 0.0 10.2 2.5 8.8 4.25 7.35 6.0 5.35 6.0 3.3 6.0 1.9 4.25 0.45 2.45 0.5 0.0 L0.5 -0.1 M-0.45 -0.4 L-0.45 0.05 Q-0.45 2.55 -1.85 4.3 -3.3 6.05 -5.3 6.05 -7.35 6.05 -8.75 4.3 -10.1 2.7 -10.2 0.45 L-10.2 0.05 Q-10.2 -2.45 -8.75 -4.2 -7.35 -5.95 -5.3 -5.95 -3.3 -5.95 -1.85 -4.2 -0.55 -2.6 -0.45 -0.4 -2.1 0.55 -4.5 1.05 -7.4 1.65 -10.2 0.45 -7.4 1.65 -4.5 1.05 -2.1 0.55 -0.45 -0.4"
         fill="#cce4ff"
         fill-rule="evenodd"
         stroke="none"
         id="path3458" />
      <path
         d="M10.2 0.0 Q10.2 -2.5 8.8 -4.25 7.35 -6.05 5.35 -6.0 3.3 -6.05 1.9 -4.25 0.5 -2.55 0.5 -0.1 L0.5 0.0 Q0.45 2.45 1.9 4.25 3.3 6.0 5.35 6.0 7.35 6.0 8.8 4.25 10.2 2.5 10.2 0.0 M-0.45 -0.4 L-0.45 0.05 Q-0.45 2.55 -1.85 4.3 -3.3 6.05 -5.3 6.05 -7.35 6.05 -8.75 4.3 -10.1 2.7 -10.2 0.45 L-10.2 0.05 Q-10.2 -2.45 -8.75 -4.2 -7.35 -5.95 -5.3 -5.95 -3.3 -5.95 -1.85 -4.2 -0.55 -2.6 -0.45 -0.4"
         fill="none"
         stroke="#6699cc"
         stroke-linecap="round"
         stroke-linejoin="round"
         stroke-width="1.0"
         id="path3460" />
      <path
         d="M0.5 -0.1 Q3.15 1.2 5.55 1.15 8.9 1.25 10.2 0.0 M-0.45 -0.4 Q-2.1 0.55 -4.5 1.05 -7.4 1.65 -10.2 0.45"
         fill="none"
         stroke="#6699cc"
         stroke-linecap="round"
         stroke-linejoin="round"
         stroke-width="1.0"
         id="path3462" />
    </g>
  </defs>
</svg>
