<?xml version="1.0" encoding="UTF-8" standalone="no"?>
<svg xmlns:xlink="http://www.w3.org/1999/xlink" height="92.9px" width="100.7px" xmlns="http://www.w3.org/2000/svg">
  <g transform="matrix(1.0, 0.0, 0.0, 1.0, 38.65, 49.75)">
    <use height="44.8" transform="matrix(1.0, 0.0, 0.0, 1.0, -25.35, -20.15)" width="49.75" xlink:href="#shape0"/>
  </g>
  <defs>
    <g id="shape0" transform="matrix(1.0, 0.0, 0.0, 1.0, 25.35, 20.15)">
      <path d="M9.9 6.35 Q5.75 1.0 -0.5 0.95 -6.75 0.9 -10.6 6.55 -12.55 9.4 -13.25 12.2 -20.8 7.75 -20.8 3.05 -20.75 -6.35 -14.65 -12.35 -8.8 -18.15 -0.4 -18.1 8.15 -18.0 13.85 -12.6 19.85 -6.85 19.8 2.4 19.8 6.45 12.75 11.65 11.95 9.0 9.9 6.35" fill="#000000" fill-rule="evenodd" stroke="none"/>
      <path d="M8.9 4.3 Q10.55 5.75 11.45 7.2 10.8 6.2 9.45 5.25 5.85 2.65 -0.15 2.65 -5.25 2.65 -9.25 5.65 -11.25 7.15 -12.2 8.65 -11.25 6.7 -9.25 4.75 -5.3 0.8 -0.15 0.8 5.0 0.8 8.9 4.3" fill="#000000" fill-rule="evenodd" stroke="none"/>
      <path d="M13.4 13.7 Q14.45 13.1 15.8 13.1 17.85 13.1 19.3 14.55 20.75 16.0 20.75 18.05 20.75 21.95 16.95 22.9" fill="none" stroke="#000000" stroke-linecap="round" stroke-linejoin="round" stroke-width="1.5"/>
      <path d="M17.3 23.9 Q21.85 22.7 21.85 18.05 21.85 15.55 20.1 13.8 18.3 12.05 15.8 12.05 L13.8 12.4" fill="none" stroke="#000000" stroke-linecap="round" stroke-linejoin="round" stroke-width="1.5"/>
      <path d="M13.45 13.05 Q14.45 12.55 15.8 12.55 18.1 12.55 19.7 14.15 21.35 15.75 21.35 18.05 21.35 22.15 17.4 23.35" fill="none" stroke="#f0fbff" stroke-linecap="round" stroke-linejoin="round" stroke-width="1.0"/>
      <path d="M19.0 21.25 Q19.8 21.25 19.8 22.05 19.8 22.85 19.0 22.85 18.2 22.85 18.2 22.05 18.2 21.25 19.0 21.25" fill="#ffffff" fill-rule="evenodd" stroke="none"/>
      <path d="M13.75 13.0 L13.55 12.3 16.75 12.15 Q15.2 12.45 13.75 13.0" fill="#ffffff" fill-rule="evenodd" stroke="none"/>
      <path d="M20.85 18.4 Q21.55 20.65 19.5 22.6 L18.0 23.5 17.35 22.6 Q20.25 21.9 20.85 18.4" fill="#ffffff" fill-rule="evenodd" stroke="none"/>
      <path d="M16.25 10.3 Q16.2 11.05 15.55 12.3 L18.6 12.0 Q19.2 14.3 17.5 14.15 19.55 14.6 17.85 16.8 14.7 17.65 14.2 16.45 L14.0 14.0 Q13.3 11.5 16.4 10.15 L16.25 10.3" fill="#000000" fill-rule="evenodd" stroke="none"/>
      <path d="M17.95 -13.35 Q20.6 -11.75 19.2 -8.8 L20.7 -8.4 Q22.3 -7.7 22.7 -6.05 23.25 -3.8 21.4 -2.1 23.5 -1.95 23.35 -0.4 23.25 0.9 21.8 2.0 23.25 1.6 23.8 2.9 24.3 4.2 22.3 5.0 22.75 5.2 22.15 6.9 21.8 7.7 20.7 8.3 L18.75 9.2 Q20.05 11.4 16.45 12.65 12.85 13.95 13.05 11.3 L10.05 -1.5 Q4.35 -8.7 12.05 -13.15 15.35 -15.0 17.95 -13.35" fill="#000000" fill-rule="evenodd" stroke="none"/>
      <path d="M-8.6 -8.85 Q-8.75 -5.1 -11.55 -1.65 L-14.3 10.65 Q-14.15 13.25 -17.95 12.2 -21.75 11.15 -20.45 8.95 -23.25 7.95 -23.8 6.55 L-23.8 5.2 Q-23.7 4.1 -23.25 4.25 -24.95 3.55 -24.95 2.5 -24.95 1.65 -24.2 1.1 L-23.45 0.75 Q-25.55 0.15 -25.3 -1.6 -25.15 -2.7 -23.85 -3.2 L-22.55 -3.5 Q-24.55 -5.1 -23.3 -7.25 -22.05 -9.35 -19.55 -8.8 -20.2 -11.7 -17.95 -13.3 -15.9 -14.85 -12.95 -14.25 -8.45 -13.25 -8.6 -8.85" fill="#000000" fill-rule="evenodd" stroke="none"/>
      <path d="M-15.35 -6.0 L-13.35 -6.0 Q-12.95 -7.1 -11.2 -7.35 -11.2 -7.1 -12.65 -4.0 L-14.05 -0.85 -14.85 2.65 Q-15.4 5.3 -15.8 5.3 -16.65 3.25 -16.65 -0.35 -16.65 -2.55 -16.35 -3.55 -15.45 -5.1 -15.35 -6.0" fill="#ff0000" fill-rule="evenodd" stroke="none"/>
      <path d="M7.4 -19.5 Q10.3 -18.6 10.15 -15.3 11.7 -17.2 12.8 -16.0 13.85 -14.8 13.25 -12.25 11.8 -6.45 7.2 -5.8 3.0 -5.25 -3.95 -7.15 -9.55 -8.75 -10.6 -9.35 L-13.3 -11.9 Q-16.3 -14.95 -12.55 -17.65 -8.75 -20.35 -6.25 -17.25 -6.8 -17.95 -5.05 -19.0 -3.65 -19.85 -2.85 -20.0 0.15 -20.65 2.35 -18.3 4.65 -20.3 7.4 -19.5" fill="#000000" fill-rule="evenodd" stroke="none"/>
      <path d="M-15.4 7.05 Q-15.9 9.05 -16.6 10.0 L-17.15 14.0 Q-21.5 14.1 -20.25 11.85 L-21.35 12.3 Q-22.4 12.6 -22.95 11.9 -23.4 11.35 -23.25 10.25 L-23.05 9.3 Q-25.2 8.55 -24.45 5.4 -24.05 3.7 -20.3 2.7 -15.75 1.4 -15.15 3.95 -14.9 5.05 -15.4 7.05" fill="#000000" fill-rule="evenodd" stroke="none"/>
      <path d="M22.45 8.4 Q23.55 9.5 22.25 11.1 21.45 11.95 19.7 11.85 19.55 13.45 18.9 13.8 L16.6 14.0 16.05 10.0 Q15.35 9.05 14.85 7.05 14.35 5.05 14.6 3.95 14.95 2.45 16.75 2.6 L20.05 3.4 Q23.9 4.45 24.3 5.9 24.8 7.65 22.45 8.4" fill="#000000" fill-rule="evenodd" stroke="none"/>
      <path d="M16.2 16.3 Q14.0 18.2 11.85 16.5 10.9 15.75 10.55 14.55 10.15 13.2 11.0 12.35 10.15 12.3 9.8 11.5 9.45 10.7 9.9 9.95 10.6 8.65 13.15 8.65 17.1 8.65 17.2 14.5 L16.2 16.3" fill="#000000" fill-rule="evenodd" stroke="none"/>
      <path d="M-1.65 5.65 Q-3.65 6.1 -6.8 5.0 -6.85 6.3 -7.9 6.75 -8.75 7.15 -9.45 6.75 -9.45 8.7 -9.95 9.25 -10.65 10.05 -12.3 9.9 L-13.3 7.3 Q-15.1 5.9 -14.3 3.15 -13.85 1.3 -10.85 0.2 -8.2 -0.8 -4.45 -0.6 -0.1 -0.35 0.9 1.7 1.3 2.5 0.55 3.85 -0.3 5.35 -1.65 5.65" fill="#000000" fill-rule="evenodd" stroke="none"/>
      <path d="M14.6 1.9 Q17.0 4.65 15.05 6.8 11.65 10.6 9.6 9.15 8.85 8.65 8.7 7.7 8.55 6.95 8.8 6.55 7.75 7.6 5.95 6.55 4.0 5.4 5.65 4.0 3.9 5.15 2.45 5.05 0.5 4.9 0.85 2.15 L0.0 -1.35 Q-0.25 -4.9 9.45 -1.55 12.6 -0.45 14.6 1.9" fill="#000000" fill-rule="evenodd" stroke="none"/>
      <path d="M7.25 0.25 Q12.3 2.1 13.05 6.05 13.5 8.15 12.1 10.9 10.85 13.25 8.8 12.85 6.35 12.45 7.3 10.55 7.2 10.55 6.0 11.1 L4.7 11.0 Q3.4 10.25 3.55 8.95 L-0.05 9.1 Q-0.75 7.6 -1.3 6.8 L-2.75 5.8 Q-3.45 5.2 -3.95 3.8 -4.5 2.2 -4.95 1.65 L-1.3 -1.0 Q3.4 -1.15 7.25 0.25" fill="#000000" fill-rule="evenodd" stroke="none"/>
      <path d="M12.3 -4.75 Q8.15 -8.85 -0.5 -8.85 -9.1 -8.85 -13.15 -4.25 -15.2 -1.95 -15.5 0.35 -15.55 -2.85 -13.7 -6.05 -10.0 -12.5 -0.65 -12.5 8.75 -12.5 12.65 -6.55 14.6 -3.6 14.7 -0.65 14.35 -2.7 12.3 -4.75" fill="#ff0000" fill-rule="evenodd" stroke="none"/>
      <path d="M5.25 -10.95 Q4.15 -13.55 6.0 -14.05 8.3 -14.7 8.4 -12.0 8.45 -13.85 11.2 -13.35 14.15 -12.75 12.05 -10.7 15.3 -10.7 15.9 -9.7 16.95 -8.0 14.4 -6.95 15.6 -6.75 16.25 -4.75 16.95 -2.7 16.0 -1.95 14.7 -0.95 13.0 -2.15 L10.5 -4.4 Q8.35 -3.25 5.95 -4.9 6.05 -5.35 4.25 -8.2 2.85 -10.4 5.0 -11.2 L5.25 -10.95" fill="#22d1c2" fill-rule="evenodd" stroke="none"/>
      <path d="M6.8 -10.05 Q8.3 -10.45 8.5 -9.7 8.3 -10.55 8.4 -11.05 10.75 -11.45 9.9 -9.35 11.2 -9.95 12.45 -9.15 13.7 -8.4 11.8 -7.7 L13.65 -6.15 Q14.65 -4.85 13.65 -4.3 12.3 -3.5 10.15 -6.4 9.2 -4.5 5.6 -6.15 4.1 -6.85 5.05 -8.0 6.05 -9.15 6.6 -8.7 5.45 -9.65 6.8 -10.05" fill="#dbfffc" fill-rule="evenodd" stroke="none"/>
      <path d="M-3.55 1.65 Q-1.45 1.7 1.2 4.0 L-0.4 5.25 Q-2.15 6.1 -3.85 5.95 -6.0 5.75 -6.35 3.85 -6.85 1.55 -3.55 1.65" fill="#000000" fill-rule="evenodd" stroke="none"/>
      <path d="M19.35 8.35 Q20.8 11.55 17.2 13.65 17.55 13.45 16.95 16.55 15.8 18.05 14.2 16.95 L13.5 10.95 Q12.0 5.0 14.7 4.6 15.95 4.45 17.5 5.8 18.75 7.0 19.35 8.35" fill="#000000" fill-rule="evenodd" stroke="none"/>
      <path d="M-19.15 8.0 L-16.4 6.5 Q-13.35 7.2 -14.15 12.0 -14.55 14.45 -16.75 13.4 -18.3 12.7 -19.15 11.05 -19.45 10.4 -19.35 9.55 L-19.15 8.0" fill="#000000" fill-rule="evenodd" stroke="none"/>
      <path d="M-10.95 -1.5 Q-12.4 -0.75 -12.75 0.9 -13.15 2.55 -12.05 3.8 -12.6 3.2 -14.3 5.45 L-16.15 8.0 Q-16.65 6.75 -16.15 5.3 -15.65 3.75 -14.4 3.3 -16.05 2.95 -15.65 0.15 -15.55 -0.7 -14.95 -1.25 L-13.85 -2.25 Q-13.3 -4.0 -12.45 -4.8 -11.65 -5.5 -9.55 -5.7 -10.75 -5.3 -11.35 -3.9 -12.05 -2.35 -10.95 -1.5" fill="#806d57" fill-rule="evenodd" stroke="none"/>
      <path d="M-17.7 12.65 L-17.55 11.5 Q-16.45 8.4 -14.2 8.15 -13.15 8.1 -12.5 9.5 -12.0 10.7 -12.05 11.9 -12.3 15.35 -14.85 14.9 -15.55 14.8 -16.35 13.9 -17.35 12.85 -17.7 12.65" fill="#000000" fill-rule="evenodd" stroke="none"/>
      <path d="M-18.8 -3.05 Q-19.75 -0.35 -17.85 1.6 -21.1 2.6 -21.0 6.8 L-20.8 7.65 -22.5 3.4 Q-23.55 0.2 -20.7 0.3 -21.85 -2.65 -21.0 -4.8 -20.05 -7.3 -16.7 -6.85 -18.15 -9.15 -15.9 -11.4 -14.0 -13.3 -11.3 -13.85 -14.7 -12.15 -15.0 -5.7 -17.85 -5.8 -18.8 -3.05" fill="#806d57" fill-rule="evenodd" stroke="none"/>
      <path d="M-12.0 -8.5 Q-9.8 -11.05 -7.35 -10.7 L-6.75 -10.75 Q-4.75 -11.55 -3.2 -11.6 -4.65 -7.8 -6.5 -5.75 -7.7 -4.45 -9.1 -3.9 L-10.55 -3.3 Q-11.3 -2.75 -12.3 -2.45 L-14.65 -2.0 Q-14.25 -4.6 -13.7 -5.9 -12.85 -7.6 -12.0 -8.5" fill="#a30000" fill-rule="evenodd" stroke="none"/>
      <path d="M-14.9 -11.5 Q-12.55 -13.45 -10.9 -11.7 -10.9 -14.5 -9.55 -14.35 -8.15 -14.2 -8.7 -11.45 -8.05 -13.25 -6.35 -13.15 -4.7 -13.0 -4.85 -11.45 -4.9 -11.0 -6.5 -7.95 L-6.65 -7.65 Q-7.7 -5.4 -8.45 -5.05 -9.95 -4.35 -14.7 -4.45 -17.95 -4.45 -17.2 -6.3 -16.45 -8.1 -13.9 -8.55 -15.4 -9.4 -15.65 -9.75 -16.15 -10.45 -14.9 -11.5" fill="#ff00a5" fill-rule="evenodd" stroke="none"/>
      <path d="M-10.2 -6.5 Q-11.05 -6.1 -11.3 -7.0 L-12.85 -6.4 Q-13.95 -6.1 -14.0 -7.0 -14.1 -8.1 -11.8 -8.4 -12.15 -8.4 -11.65 -9.85 -11.2 -10.6 -10.3 -10.45 -9.35 -10.3 -9.45 -9.35 -9.15 -10.2 -7.9 -9.95 -6.7 -9.75 -7.45 -8.7 L-8.6 -8.25 -8.3 -7.8 Q-8.9 -7.4 -9.25 -7.6 -9.45 -6.9 -10.2 -6.5" fill="#ffc9f9" fill-rule="evenodd" stroke="none"/>
      <path d="M1.6 -14.7 L2.45 -14.55 Q3.35 -14.3 2.85 -12.9 3.2 -13.6 4.85 -13.3 6.7 -12.95 7.0 -11.7 7.55 -9.55 4.4 -9.9 5.25 -9.65 5.35 -8.8 5.5 -7.95 4.75 -7.5 L2.75 -7.4 0.75 -8.4 Q0.7 -7.4 -1.55 -7.0 -3.35 -6.75 -4.85 -6.95 -6.6 -7.2 -6.65 -8.15 -6.7 -9.05 -4.85 -9.1 -8.35 -9.1 -8.35 -10.4 -8.3 -11.25 -4.85 -11.55 -6.0 -11.65 -6.3 -12.45 -6.6 -13.3 -5.5 -13.75 L-3.4 -13.85 -1.85 -13.1 Q-1.35 -14.2 -0.6 -14.5 L1.6 -14.7" fill="#ff8800" fill-rule="evenodd" stroke="none"/>
      <path d="M3.25 -10.45 Q3.6 -9.35 -0.75 -8.55 -2.05 -7.85 -2.65 -8.2 -3.25 -8.55 -3.2 -9.3 L-2.95 -9.85 -3.6 -9.85 Q-4.45 -9.9 -4.5 -10.45 -4.55 -10.95 -2.3 -11.15 -3.85 -11.55 -2.65 -12.2 -1.5 -12.85 -0.6 -11.65 -0.05 -12.4 0.9 -12.2 1.8 -12.05 0.9 -11.25 L2.15 -11.45 Q2.95 -11.45 3.25 -10.45" fill="#fff080" fill-rule="evenodd" stroke="none"/>
      <path d="M15.25 -2.0 Q15.95 0.65 10.2 1.0 8.45 1.1 6.2 0.15 L2.4 -1.6 -3.8 -4.1 Q-8.15 -5.1 -10.95 -3.1 -11.7 -2.55 -12.1 -1.6 L-14.85 0.65 Q-16.1 0.0 -15.75 -1.65 -15.35 -3.25 -13.9 -3.4 -14.25 -4.55 -13.6 -5.4 -12.9 -6.3 -11.75 -5.65 -11.95 -6.65 -11.0 -7.05 -10.05 -7.5 -9.5 -6.65 -10.55 -8.95 -7.6 -9.7 -5.05 -10.35 -3.35 -8.7 -2.5 -10.35 -0.3 -10.45 1.95 -10.55 2.65 -8.75 3.9 -9.85 6.0 -9.45 8.2 -9.0 8.0 -7.1 L11.45 -7.2 Q12.65 -6.45 12.9 -4.4 13.15 -4.1 14.15 -3.85 14.8 -3.3 15.25 -2.0" fill="#000000" fill-rule="evenodd" stroke="none"/>
      <path d="M-15.3 -3.15 Q-14.05 -4.7 -12.15 -5.5 L-2.85 -5.8 Q-2.35 -2.4 -6.65 1.65 L-9.7 4.4 Q-11.05 5.7 -12.0 7.85 L-13.2 10.35 Q-13.75 11.2 -14.6 11.05 -16.45 10.7 -16.55 8.65 L-16.7 7.45 -17.75 5.8 Q-18.35 4.85 -18.25 3.9 -18.1 2.8 -16.0 1.25 -16.35 1.55 -15.3 -3.15" fill="#000000" fill-rule="evenodd" stroke="none"/>
      <path d="M-9.5 -0.55 Q-12.35 -0.75 -13.55 0.65 -14.5 1.8 -14.7 4.8 -15.5 3.7 -15.5 2.65 L-15.3 3.0 Q-15.55 -2.15 -12.3 -1.4 -12.55 -3.25 -10.8 -4.75 -9.1 -6.15 -7.2 -6.0 -8.8 -5.95 -9.45 -3.85 -10.05 -2.0 -9.5 -0.55" fill="#806d57" fill-rule="evenodd" stroke="none"/>
      <path d="M11.95 -2.75 Q13.7 -1.85 12.15 0.95 14.75 0.7 15.8 3.45 16.8 6.2 14.75 7.45 16.3 7.65 16.6 10.6 16.95 13.15 13.9 14.35 15.1 11.6 14.05 9.95 13.2 8.7 11.6 8.45 12.65 8.05 13.2 6.8 13.7 5.5 13.3 4.4 12.6 2.3 10.0 2.2 11.9 -1.55 8.8 -2.25 L9.0 -2.5 Q10.3 -3.6 11.95 -2.75" fill="#806d57" fill-rule="evenodd" stroke="none"/>
      <path d="M-17.4 22.8 Q-20.9 21.8 -20.9 18.05 -20.9 16.0 -19.45 14.55 -18.0 13.1 -15.95 13.1 L-13.85 13.55" fill="none" stroke="#000000" stroke-linecap="round" stroke-linejoin="round" stroke-width="1.5"/>
      <path d="M-17.6 23.85 Q-22.0 22.65 -22.0 18.05 -22.0 15.55 -20.25 13.8 -18.45 12.05 -15.95 12.05 L-13.6 12.5" fill="none" stroke="#000000" stroke-linecap="round" stroke-linejoin="round" stroke-width="1.5"/>
      <path d="M-17.6 23.35 Q-21.5 22.15 -21.5 18.05 -21.5 15.75 -19.85 14.15 -18.25 12.55 -15.95 12.55 L-13.8 12.95" fill="none" stroke="#f0fbff" stroke-linecap="round" stroke-linejoin="round" stroke-width="1.0"/>
      <path d="M-19.4 13.65 Q-19.4 14.45 -20.2 14.45 -21.0 14.45 -21.0 13.65 -21.0 12.85 -20.2 12.85 -19.4 12.85 -19.4 13.65" fill="#ffffff" fill-rule="evenodd" stroke="none"/>
      <path d="M-18.1 12.95 Q-18.1 13.7 -18.85 13.7 -19.55 13.7 -19.55 12.95 -19.55 12.25 -18.85 12.25 -18.1 12.25 -18.1 12.95" fill="#ffffff" fill-rule="evenodd" stroke="none"/>
      <path d="M-21.95 18.4 Q-21.95 15.6 -20.05 13.2 -19.35 12.35 -17.1 12.15 L-15.0 12.15 -17.2 12.75 Q-19.55 13.5 -20.2 14.45 -21.25 16.0 -21.95 18.4" fill="#ffffff" fill-rule="evenodd" stroke="none"/>
    </g>
  </defs>
</svg>
