<?xml version="1.0" encoding="UTF-8" standalone="no"?>
<svg xmlns:xlink="http://www.w3.org/1999/xlink" height="92.9px" width="100.7px" xmlns="http://www.w3.org/2000/svg">
  <g transform="matrix(1.0, 0.0, 0.0, 1.0, 38.65, 49.75)">
    <use height="46.35" transform="matrix(1.0, 0.0, 0.0, 1.0, -18.1, -15.45)" width="35.6" xlink:href="#shape0"/>
  </g>
  <defs>
    <g id="shape0" transform="matrix(1.0, 0.0, 0.0, 1.0, 18.1, 15.45)">
      <path d="M11.45 12.05 Q13.1 13.0 13.1 13.9 13.1 15.15 11.85 15.15 L7.8 13.45 5.65 12.85 4.3 12.95 -5.75 13.0 -8.5 14.4 Q-9.1 14.75 -9.0 16.25 -8.95 17.5 -10.25 17.5 -11.95 17.5 -11.65 15.35 L-11.5 13.55 -11.1 13.05 -11.2 13.05 -11.65 13.15 Q-12.75 13.15 -12.9 11.9 -12.9 11.15 -12.15 10.7 -5.85 7.25 -4.55 6.8 -3.55 6.45 -3.55 7.5 -3.45 11.1 6.5 10.25 9.75 9.95 10.85 9.2 11.75 8.5 12.45 8.5 13.45 8.5 13.6 9.75 13.6 11.05 11.45 12.05" fill="#2c2833" fill-opacity="0.2509804" fill-rule="evenodd" stroke="none"/>
      <path d="M0.0 -14.45 Q-1.35 -14.4 -1.35 -12.7 L-1.4 -12.7 Q-2.75 -13.75 -3.6 -13.4 -5.05 -12.65 -4.0 -11.15 -6.8 -11.0 -7.25 -10.3 -8.1 -8.95 -5.8 -7.7 L-6.65 -7.1 -7.5 -5.85 Q-7.45 -4.95 -5.35 -4.7 L-5.9 -3.85 Q-6.35 -2.85 -5.8 -2.25 -5.4 -1.85 -5.1 -1.8 L-6.0 -1.3 -7.95 -0.8 Q-8.7 -0.4 -9.25 1.1 L-10.35 2.25 Q-11.95 2.45 -12.45 3.15 L-12.55 3.25 Q-13.05 3.65 -13.1 4.2 -13.25 5.5 -13.5 5.9 L-14.25 7.4 -15.45 10.65 -15.45 12.85 -16.65 17.25 -17.05 19.0 Q-17.35 21.05 -15.75 21.3 L-14.65 22.55 Q-12.65 24.9 -9.3 27.0 -4.6 29.9 -0.3 29.9 4.05 29.9 8.75 27.0 12.05 24.9 14.05 22.55 L15.9 20.45 Q16.85 18.95 16.35 17.25 L15.4 14.7 Q14.8 13.1 14.85 12.0 14.85 9.3 12.2 5.3 L12.15 4.85 Q12.25 4.0 11.95 3.35 L11.75 2.85 Q11.4 2.3 9.15 1.55 L8.5 0.95 Q8.1 -0.4 7.25 -0.85 6.35 -1.4 5.25 -1.4 L4.55 -1.8 4.6 -1.8 4.25 -2.35 Q5.1 -2.35 5.45 -2.85 5.95 -3.6 5.1 -5.05 6.15 -5.1 6.45 -5.7 6.8 -5.85 6.8 -6.3 L6.8 -6.5 Q6.95 -7.1 5.55 -8.05 6.95 -9.1 6.1 -10.4 L4.0 -10.55 Q4.85 -12.25 4.1 -12.7 3.4 -13.15 1.75 -12.35 L1.6 -12.45 Q1.8 -14.55 0.0 -14.45 Z" fill="none" stroke="#000d38" stroke-linecap="round" stroke-linejoin="round" stroke-width="2.0"/>
      <path d="M8.6 16.55 Q5.0 19.75 -0.2 19.75 -5.45 19.75 -9.15 16.55 -12.35 13.8 -12.0 11.5 -11.75 9.85 -9.1 9.65 -7.25 9.5 -0.4 9.65 L-0.15 9.65 8.45 9.65 Q11.05 9.85 11.35 11.5 11.7 13.8 8.6 16.55 Z" fill="none" stroke="#000000" stroke-linecap="round" stroke-linejoin="round" stroke-width="2.0"/>
      <path d="M4.15 -8.5 Q4.15 -6.65 2.9 -5.4 1.6 -4.1 -0.2 -4.1 -2.05 -4.1 -3.3 -5.4 -4.6 -6.65 -4.6 -8.5 -4.6 -10.3 -3.3 -11.55 -2.05 -12.85 -0.2 -12.85 1.6 -12.85 2.9 -11.55 4.15 -10.3 4.15 -8.5" fill="#002f92" fill-rule="evenodd" stroke="none"/>
      <path d="M9.4 6.05 L10.3 6.55 Q11.25 7.2 11.35 7.9 11.55 9.1 8.15 10.55 4.3 12.1 -0.35 12.1 -4.7 12.1 -8.7 10.95 -11.65 10.1 -12.4 9.4 -12.75 9.1 -12.0 8.25 L-11.15 7.45 9.4 6.05" fill="#000000" fill-rule="evenodd" stroke="none"/>
      <path d="M10.45 2.95 Q14.95 8.15 14.85 12.0 14.8 13.1 15.4 14.7 L16.35 17.25 Q16.85 18.95 15.9 20.45 L14.05 22.55 Q12.05 24.9 8.75 27.0 4.05 29.9 -0.3 29.9 -4.6 29.9 -9.3 27.0 -12.65 24.9 -14.65 22.55 L-16.3 20.45 Q-17.15 18.95 -16.65 17.25 -15.4 12.6 -15.4 12.0 -15.5 8.2 -11.0 2.95 -5.9 -2.95 -0.3 -2.95 5.35 -2.95 10.45 2.95 M8.2 16.45 Q10.85 13.9 10.45 11.5 10.2 9.85 8.0 9.65 L-0.15 9.65 -0.4 9.65 Q-7.0 9.5 -8.6 9.65 -10.8 9.85 -11.05 11.5 -11.45 13.85 -8.8 16.45 -5.65 19.5 -0.45 19.5 L-0.1 19.5 Q5.1 19.5 8.2 16.45" fill="#002f92" fill-rule="evenodd" stroke="none"/>
      <path d="M-3.05 -2.95 Q-1.65 -3.35 -0.2 -2.55 L-12.7 6.05 Q-13.2 4.05 -12.45 3.15 -12.0 2.55 -10.65 2.3 L-9.45 2.15 -9.15 0.95 Q-8.75 -0.35 -7.95 -0.8 L-6.0 -1.35 -4.95 -1.3 -4.5 -1.95 -3.05 -2.95" fill="#00297e" fill-rule="evenodd" stroke="none"/>
      <path d="M-7.45 -0.05 Q-5.2 -1.35 -3.65 -1.35 L-1.45 -1.2 Q-0.9 -0.5 -2.55 0.45 L-5.75 1.9 Q-7.65 2.65 -8.6 3.8 L-11.0 6.45 Q-11.6 7.35 -11.25 9.45 -11.1 10.25 -11.5 11.8 -12.0 16.5 -9.0 19.5 L-6.75 20.9 Q-5.15 21.65 -4.55 22.3 -3.3 23.7 -5.25 23.65 L-8.2 23.15 Q-12.8 21.4 -14.0 21.4 L-16.45 21.1 Q-17.3 20.65 -17.05 19.0 L-15.6 14.65 -15.45 10.65 -14.25 7.4 -13.5 5.9 Q-13.25 5.5 -13.1 4.2 -12.95 3.2 -11.15 2.55 -9.05 1.8 -8.7 1.35 -8.15 0.4 -7.45 -0.05" fill="#4c59a9" fill-rule="evenodd" stroke="none"/>
      <path d="M4.25 -1.35 L7.25 -0.85 Q8.5 -0.1 8.75 2.05 L9.95 2.2 Q11.3 2.5 11.75 3.05 12.5 3.95 12.0 5.95 L-0.5 -2.6 0.4 -2.95 2.35 -3.05 Q3.75 -2.6 4.25 -1.35" fill="#00297e" fill-rule="evenodd" stroke="none"/>
      <path d="M12.15 12.2 Q11.95 10.9 10.85 9.55 L8.95 7.3 Q7.05 4.2 5.35 3.0 L2.85 1.4 Q1.1 0.05 1.8 -0.85 3.05 -2.45 6.4 1.1 8.65 3.45 10.05 5.75 14.0 12.5 14.45 16.85 L14.45 19.5 Q14.25 21.9 9.65 24.45 5.0 27.0 4.8 23.65 4.75 22.1 7.2 20.55 9.05 19.4 10.85 17.0 12.55 14.85 12.15 12.2" fill="#001a51" fill-rule="evenodd" stroke="none"/>
      <path d="M10.45 7.2 L8.75 9.05 Q5.8 10.9 -0.65 10.9 -7.1 10.9 -9.95 9.45 L-11.5 7.95 10.45 7.2" fill="#848acb" fill-rule="evenodd" stroke="none"/>
      <path d="M7.8 5.55 Q10.45 6.45 10.45 7.2 10.45 8.0 8.4 8.75 5.45 9.8 -0.45 9.8 -11.55 9.8 -11.55 7.8 -11.55 7.05 -8.95 5.9 -5.55 4.4 -0.6 4.4 4.45 4.4 7.8 5.55" fill="#4c59a9" fill-rule="evenodd" stroke="none"/>
      <path d="M5.75 5.95 L6.5 5.85 Q6.9 5.9 9.45 7.35 8.25 8.45 5.45 8.9 L3.5 9.35 Q2.3 9.6 1.7 9.0 L3.95 7.5 Q5.4 6.1 5.75 5.95" fill="#002f92" fill-rule="evenodd" stroke="none"/>
      <path d="M7.6 -0.15 L8.5 1.25 10.15 1.85 Q11.35 2.15 11.75 2.85 12.3 3.8 12.5 6.5 L13.95 9.85 Q12.9 8.9 11.55 6.65 10.15 4.25 9.25 3.35 L5.25 -0.55 6.15 -0.75 6.2 -0.75 Q7.2 -0.75 7.6 -0.15" fill="#4c59a9" fill-rule="evenodd" stroke="none"/>
      <path d="M4.05 25.25 L6.95 24.5 9.2 23.9 Q9.2 25.25 4.7 26.65 2.15 27.5 -0.9 27.5 -8.9 27.5 -9.9 23.9 L-9.15 24.65 -10.45 23.0 Q-8.95 23.2 -6.05 24.6 L-1.05 25.5 4.05 25.25" fill="#001a51" fill-rule="evenodd" stroke="none"/>
      <path d="M2.55 -5.5 L4.6 -1.8 -5.0 -1.85 Q-4.55 -2.0 -2.85 -5.25 -1.15 -8.5 -0.35 -8.55 1.25 -8.55 2.55 -5.5" fill="#002f92" fill-rule="evenodd" stroke="none"/>
      <path d="M2.45 -2.75 L-1.35 -11.35 -1.3 -13.25 Q-1.15 -14.4 0.0 -14.45 2.0 -14.55 1.6 -12.3 3.45 -13.1 4.1 -12.7 4.85 -12.25 4.0 -10.55 L6.1 -10.4 Q6.95 -9.1 5.55 -8.05 6.95 -7.1 6.8 -6.5 6.4 -5.1 5.1 -5.05 5.95 -3.6 5.45 -2.85 L2.45 -2.75" fill="#002f92" fill-rule="evenodd" stroke="none"/>
      <path d="M0.1 -10.85 Q0.6 -10.6 0.75 -8.35 0.9 -6.8 0.65 -5.55 0.45 -4.75 -0.35 -4.0 L-1.9 -2.6 Q-2.7 -1.65 -3.8 -1.7 -5.4 -1.85 -5.8 -2.25 -6.35 -2.85 -5.9 -3.85 L-5.35 -4.7 Q-7.45 -4.95 -7.5 -5.85 L-6.65 -7.1 -5.8 -7.7 Q-8.1 -8.95 -7.25 -10.3 -6.8 -11.0 -4.0 -11.15 -5.05 -12.65 -3.6 -13.4 -2.9 -13.7 -1.6 -12.85 -0.25 -11.9 -0.8 -11.25 L0.1 -10.85" fill="#002f92" fill-rule="evenodd" stroke="none"/>
      <path d="M-0.7 -4.85 Q-0.35 -4.5 -1.05 -3.75 -2.9 -1.5 -3.7 -2.55 -4.4 -3.45 -2.8 -4.4 -1.35 -5.4 -0.7 -4.85" fill="#4c59a9" fill-rule="evenodd" stroke="none"/>
      <path d="M-2.35 -12.5 Q-1.75 -12.0 -1.3 -12.35 L-0.85 -13.55 Q0.0 -14.1 0.0 -12.55 0.0 -10.9 -1.8 -10.7 L-1.2 -9.7 Q-2.75 -9.8 -3.05 -9.25 -3.45 -8.65 -3.05 -8.3 L-2.35 -7.65 Q-3.45 -7.65 -4.0 -6.6 -4.3 -6.0 -4.05 -5.7 L-3.45 -4.95 -5.0 -3.75 -5.2 -3.95 Q-5.45 -4.4 -5.1 -4.7 -6.3 -5.3 -6.35 -6.3 -6.4 -6.85 -5.1 -7.65 -6.9 -8.9 -6.65 -9.85 -6.45 -10.6 -5.35 -10.65 L-3.6 -10.65 Q-4.55 -12.9 -3.4 -13.05 -3.05 -13.1 -2.35 -12.5" fill="#4c59a9" fill-rule="evenodd" stroke="none"/>
      <path d="M3.1 -1.95 L1.3 -2.05 Q0.65 -2.25 0.5 -3.4 0.35 -5.2 1.0 -5.35 3.4 -2.95 3.35 -1.95 L3.1 -1.95" fill="#001a51" fill-rule="evenodd" stroke="none"/>
      <path d="M3.65 -12.45 Q4.15 -12.1 3.9 -11.25 L3.45 -9.95 4.55 -10.05 Q5.2 -10.15 5.6 -9.75 6.25 -9.15 5.25 -7.95 6.85 -7.4 6.8 -6.3 6.75 -5.6 4.6 -5.6 5.85 -4.5 5.35 -3.35 4.75 -2.25 2.9 -3.65 3.95 -3.6 3.5 -4.25 3.15 -4.85 2.4 -5.2 3.45 -6.65 3.05 -7.35 2.65 -8.1 0.6 -8.3 0.65 -10.55 1.1 -11.35 L1.1 -11.6 Q1.4 -12.1 2.25 -12.4 L3.65 -12.45" fill="#001a51" fill-rule="evenodd" stroke="none"/>
    </g>
  </defs>
</svg>
