<?xml version="1.0" encoding="UTF-8" standalone="no"?>
<svg xmlns:xlink="http://www.w3.org/1999/xlink" height="92.9px" width="100.7px" xmlns="http://www.w3.org/2000/svg">
  <g transform="matrix(1.0, 0.0, 0.0, 1.0, 38.65, 49.75)">
    <use height="31.75" transform="matrix(1.0, 0.0, 0.0, 1.0, -21.05, -3.5)" width="41.8" xlink:href="#shape0"/>
  </g>
  <defs>
    <g id="shape0" transform="matrix(1.0, 0.0, 0.0, 1.0, 21.05, 3.5)">
      <path d="M12.4 4.95 Q7.9 7.35 2.8 7.75 L-3.4 7.9 Q-9.3 7.85 -14.55 6.3 -14.15 4.85 -13.3 3.45 -5.5 6.05 2.35 4.85 7.0 4.2 11.25 2.1 L12.4 4.95" fill="#ff9900" fill-rule="evenodd" stroke="none"/>
      <path d="M2.8 7.75 Q7.9 7.35 12.4 4.95 L13.15 7.85 Q13.6 10.2 14.7 12.5 16.45 16.05 19.7 18.4 L20.75 19.35 13.45 26.05 Q9.9 26.0 7.5 18.6 7.8 25.35 9.65 27.55 L7.1 27.6 Q4.95 24.45 2.8 7.75 M11.25 2.1 Q7.0 4.2 2.35 4.85 -5.5 6.05 -13.3 3.45 -10.55 -5.8 -0.6 -2.4 7.55 -6.0 11.25 2.1 M-14.55 6.3 Q-9.3 7.85 -3.4 7.9 L-3.75 8.95 Q-4.7 12.55 -5.25 16.25 L-6.2 21.85 -6.6 23.9 Q-7.0 26.0 -9.0 28.25 L-10.7 26.45 -9.3 21.1 -9.55 21.65 -10.9 24.2 Q-11.65 25.65 -13.1 26.35 L-21.05 21.05 -20.2 20.35 Q-18.55 18.85 -17.7 16.9 L-16.5 13.55 -15.3 9.45 -14.55 6.3" fill="#222200" fill-rule="evenodd" stroke="none"/>
    </g>
  </defs>
</svg>
