<?xml version="1.0" encoding="UTF-8" standalone="no"?>
<svg xmlns:xlink="http://www.w3.org/1999/xlink" height="92.9px" width="100.7px" xmlns="http://www.w3.org/2000/svg">
  <g transform="matrix(1.0, 0.0, 0.0, 1.0, 38.65, 49.75)">
    <use height="40.6" transform="matrix(1.0, 0.0, 0.0, 1.0, -17.35, -18.0)" width="34.05" xlink:href="#shape0"/>
  </g>
  <defs>
    <g id="shape0" transform="matrix(1.0, 0.0, 0.0, 1.0, 17.35, 18.0)">
      <path d="M-2.95 -4.1 Q-1.55 -4.35 1.95 -4.15 L2.25 -4.15 3.05 -3.95 3.35 -3.7 Q3.55 -3.2 3.05 -0.2 L5.6 0.45 Q6.1 -0.25 6.9 -0.4 7.7 -0.6 8.85 0.5 9.95 1.55 10.5 2.9 11.0 4.1 10.95 5.1 14.55 8.25 16.7 16.1 L16.7 16.2 Q16.7 16.55 16.35 16.7 L14.6 17.15 Q14.45 18.35 13.35 19.55 10.95 22.15 7.1 22.3 6.65 22.3 6.55 21.9 L5.65 18.45 Q5.6 18.2 5.9 18.0 9.6 15.35 9.75 14.4 L9.75 14.25 8.75 11.25 7.65 8.85 Q4.25 8.2 1.8 9.55 L2.55 16.8 2.55 16.85 2.45 17.2 2.05 17.35 -2.2 17.5 -2.7 17.0 -2.7 16.95 -2.5 9.9 Q-5.15 8.2 -8.85 8.8 -10.3 11.7 -10.3 14.45 L-10.3 14.5 Q-9.65 15.9 -5.9 17.8 -5.55 17.95 -5.55 18.25 L-5.6 18.4 -7.2 22.35 Q-7.4 22.7 -7.75 22.6 -13.7 21.8 -15.05 16.75 -16.65 16.65 -17.15 16.25 L-17.35 15.85 -17.35 15.8 Q-17.0 13.1 -14.85 9.85 -13.55 7.9 -12.05 6.5 -12.8 4.95 -11.95 2.9 -11.4 1.55 -10.3 0.5 -9.1 -0.6 -8.3 -0.4 -7.2 -0.15 -6.65 0.9 -5.45 0.25 -3.8 -0.05 L-3.9 -1.1 -3.95 -3.55 -3.9 -3.7 -3.85 -3.8 -2.95 -4.1 M-2.55 0.8 L1.8 0.8 1.85 0.4 2.0 -0.3 2.1 -1.25 2.1 -1.35 2.15 -1.5 2.15 -1.55 2.25 -2.8 2.2 -3.1 1.75 -3.2 1.0 -3.3 1.0 -3.25 -2.95 -3.1 -3.0 -2.8 -2.95 -1.95 -2.9 -1.65 -2.9 -1.05 -2.85 -1.05 -2.8 -0.2 -2.65 0.5 -2.55 0.8 M2.15 1.8 L-3.05 1.8 -3.5 1.5 -3.7 0.7 Q-5.3 1.1 -6.4 1.85 L-6.55 2.05 Q-8.2 3.75 -8.2 4.45 L-8.15 4.6 Q-7.95 5.1 -5.4 5.25 L-4.2 5.35 Q-3.5 5.45 -1.4 6.45 L-0.7 6.75 0.0 6.45 0.35 6.3 2.2 5.5 2.75 5.35 3.95 5.25 4.1 5.25 Q6.5 5.1 6.7 4.6 L6.75 4.45 Q6.75 3.75 5.15 2.1 L5.1 2.05 4.95 1.7 4.95 1.65 5.25 1.1 2.95 0.5 2.85 1.1 2.8 1.4 Q2.7 1.8 2.25 1.8 L2.15 1.8 M0.25 10.6 L0.15 10.7 -0.25 11.1 Q-0.3 11.25 -0.65 11.25 L-1.0 11.1 -1.3 10.8 -1.45 10.7 -1.6 16.5 0.2 16.5 1.4 16.4 0.7 10.25 0.25 10.6 M-10.35 8.3 L-11.5 7.3 -11.7 7.5 -12.6 8.5 -13.2 9.25 -13.95 10.25 Q-16.0 13.15 -16.35 15.55 L-15.85 15.65 -15.5 15.7 -14.45 15.85 -14.25 15.85 Q-13.25 20.85 -8.0 21.55 L-6.75 18.5 -7.75 17.95 -9.9 16.55 -11.15 15.2 -11.3 14.85 Q-11.55 11.75 -9.9 8.55 L-10.35 8.3 M8.6 8.45 L8.55 8.5 10.75 14.3 Q10.95 14.9 9.25 16.55 L9.25 16.5 6.8 18.55 7.5 21.2 Q10.55 21.15 12.4 19.25 13.9 17.65 13.7 16.25 13.8 17.5 12.7 18.9 12.3 15.75 10.75 14.1 10.55 13.05 9.35 10.15 L8.6 8.45 10.1 7.25 10.8 6.0 Q13.55 8.55 15.6 15.95 L13.7 16.25 14.5 16.2 Q13.15 11.55 10.1 7.25 13.15 11.55 14.5 16.2 L13.7 16.25 15.6 15.95 Q13.55 8.55 10.8 6.0 L10.1 7.25 8.6 8.45" fill="#351e02" fill-rule="evenodd" stroke="none"/>
      <path d="M0.35 6.3 L0.0 6.45 -0.7 6.75 -1.4 6.45 Q-3.5 5.45 -4.2 5.35 L-5.4 5.25 Q-7.95 5.1 -8.15 4.6 L-8.2 4.45 Q-8.2 3.75 -6.55 2.05 L-6.4 1.85 Q-5.3 1.1 -3.7 0.7 L-3.5 1.5 -3.05 1.8 2.15 1.8 Q4.1 2.9 4.1 5.05 L4.1 5.25 3.95 5.25 2.75 5.35 2.2 5.5 1.85 4.65 0.1 2.45 Q0.6 4.4 0.35 6.3 M2.85 1.1 L2.95 0.5 5.25 1.1 4.95 1.65 4.95 1.7 5.1 2.05 5.15 2.1 Q4.0 1.4 2.85 1.1 M-4.05 1.1 L-4.2 1.25 Q-5.15 1.05 -6.95 2.7 -7.55 3.3 -7.85 4.6 -6.65 5.2 -3.85 1.9 L-4.05 1.1 M0.2 16.5 L-1.6 16.5 -1.45 10.7 -1.3 10.8 -1.0 11.1 -0.65 11.25 Q-0.3 11.25 -0.25 11.1 L0.15 10.7 0.25 10.6 0.2 16.5 M-11.7 7.5 L-11.5 7.3 -10.35 8.3 -11.3 10.35 -12.25 13.15 Q-12.7 14.9 -11.75 15.9 -9.85 17.85 -8.3 18.8 L-10.05 21.0 -8.0 21.55 Q-13.25 20.85 -14.25 15.85 L-14.45 15.85 -13.95 14.55 Q-15.1 15.7 -16.15 14.65 L-16.35 15.55 Q-16.0 13.15 -13.95 10.25 L-15.45 13.25 Q-14.7 13.0 -13.1 10.45 L-11.15 8.1 -11.15 8.0 -11.7 7.5 M-11.5 17.9 Q-12.5 16.6 -12.85 14.6 L-13.75 16.45 Q-13.35 18.9 -11.25 20.05 -10.75 18.9 -11.5 17.9 M9.25 16.55 Q10.95 14.9 10.75 14.3 L8.55 8.5 8.6 8.45 9.35 10.15 Q10.55 13.05 10.75 14.1 12.3 15.75 12.7 18.9 13.8 17.5 13.7 16.25 13.9 17.65 12.4 19.25 10.55 21.15 7.5 21.2 L8.65 21.1 9.25 16.55" fill="#f8c606" fill-rule="evenodd" stroke="none"/>
      <path d="M2.15 1.8 L2.25 1.8 Q2.7 1.8 2.8 1.4 L2.85 1.1 Q4.0 1.4 5.15 2.1 6.75 3.75 6.75 4.45 L6.7 4.6 Q6.5 5.1 4.1 5.25 L4.1 5.05 Q4.1 2.9 2.15 1.8 M2.2 5.5 L0.35 6.3 Q0.6 4.4 0.1 2.45 L1.85 4.65 2.2 5.5 M0.25 10.6 L0.7 10.25 1.4 16.4 0.2 16.5 0.25 10.6 M-10.35 8.3 L-9.9 8.55 Q-11.55 11.75 -11.3 14.85 L-11.15 15.2 -9.9 16.55 -7.75 17.95 -6.75 18.5 -8.0 21.55 -10.05 21.0 -8.3 18.8 Q-9.85 17.85 -11.75 15.9 -12.7 14.9 -12.25 13.15 L-11.3 10.35 -10.35 8.3 M-14.45 15.85 L-15.5 15.7 -15.85 15.65 -16.35 15.55 -16.15 14.65 Q-15.1 15.7 -13.95 14.55 L-14.45 15.85 -15.5 15.7 -14.45 15.85 M7.5 21.2 L6.8 18.55 9.25 16.5 9.25 16.55 8.65 21.1 7.5 21.2" fill="#f87006" fill-rule="evenodd" stroke="none"/>
      <path d="M-4.05 1.1 L-3.85 1.9 Q-6.65 5.2 -7.85 4.6 -7.55 3.3 -6.95 2.7 -5.15 1.05 -4.2 1.25 L-4.05 1.1 M-13.95 10.25 L-13.2 9.25 -12.6 8.5 -11.7 7.5 -11.15 8.0 -11.15 8.1 -13.1 10.45 Q-14.7 13.0 -15.45 13.25 L-13.95 10.25 M-11.5 17.9 Q-10.75 18.9 -11.25 20.05 -13.35 18.9 -13.75 16.45 L-12.85 14.6 Q-12.5 16.6 -11.5 17.9" fill="#ffffff" fill-rule="evenodd" stroke="none"/>
      <path d="M3.05 -16.05 Q2.6 -17.2 -1.0 -17.05 -4.65 -16.9 -4.7 -15.65 -3.8 -8.45 -2.95 -4.1 L-3.85 -3.8 -3.9 -3.7 -3.95 -3.55 -5.8 -15.8 -5.8 -15.9 Q-5.65 -17.7 -1.35 -17.95 3.7 -18.2 4.15 -16.25 4.45 -14.2 3.05 -3.95 L2.25 -4.15 1.95 -4.15 Q3.35 -14.05 3.05 -16.05" fill="#440202" fill-rule="evenodd" stroke="none"/>
      <path d="M3.05 -16.05 Q2.85 -16.45 2.15 -16.7 L0.75 -7.0 0.45 -14.35 -0.65 -5.95 -1.2 -9.7 Q-2.25 -6.45 -2.85 -5.2 L-3.05 -4.7 -2.95 -4.1 Q-3.8 -8.45 -4.7 -15.65 -4.65 -16.9 -1.0 -17.05 2.6 -17.2 3.05 -16.05 M-0.5 -13.1 Q-0.15 -14.55 1.1 -16.6 -4.3 -16.9 -4.2 -14.95 -3.85 -9.6 -2.85 -6.6 L-3.0 -15.35 -1.6 -11.85 -1.6 -15.6 -0.5 -13.1" fill="#d80000" fill-rule="evenodd" stroke="none"/>
      <path d="M-2.95 -4.1 L-3.05 -4.7 -2.85 -5.2 Q-2.25 -6.45 -1.2 -9.7 L-0.65 -5.95 0.45 -14.35 0.75 -7.0 2.15 -16.7 Q2.85 -16.45 3.05 -16.05 3.35 -14.05 1.95 -4.15 -1.55 -4.35 -2.95 -4.1" fill="#960000" fill-rule="evenodd" stroke="none"/>
      <path d="M1.0 -3.25 L1.0 -3.3 1.75 -3.2 2.2 -3.1 2.25 -2.8 2.15 -1.55 2.15 -1.5 2.1 -1.35 2.1 -1.25 2.0 -0.3 1.85 0.4 1.8 0.8 -2.55 0.8 -2.65 0.4 -0.15 -0.4 0.8 -0.8 1.0 -2.65 1.0 -3.25 M-2.85 -1.05 L-2.9 -1.05 -2.9 -1.65 -2.95 -1.95 -0.85 -1.75 -2.85 -1.05 M9.5 3.05 L9.6 3.25 9.85 4.3 9.8 5.25 9.4 6.35 9.0 6.85 8.6 7.3 7.85 7.85 7.45 7.8 6.75 7.65 3.2 7.9 2.8 8.0 -0.65 10.0 -1.45 9.35 Q-2.05 8.85 -2.7 8.55 L-3.8 8.1 -9.0 7.85 -9.2 7.75 -9.6 7.5 -9.95 7.25 -10.65 6.55 -9.8 6.95 -8.9 7.1 -7.35 7.1 -5.8 7.05 Q-2.9 7.0 -0.8 8.8 -0.2 8.35 0.9 8.0 2.55 7.4 5.35 7.05 L6.05 6.95 8.05 6.5 8.6 5.55 9.0 4.35 9.05 2.9 8.95 2.05 9.5 3.05" fill="#cf7838" fill-rule="evenodd" stroke="none"/>
      <path d="M-2.55 0.8 L-2.65 0.5 -2.8 -0.2 -2.85 -1.05 -0.85 -1.75 -2.95 -1.95 -3.0 -2.8 -2.95 -3.1 1.0 -3.25 1.0 -2.65 0.8 -0.8 -0.15 -0.4 -2.65 0.4 -2.55 0.8 M9.5 3.05 Q8.3 0.2 6.95 0.5 6.6 0.55 6.4 0.75 6.2 0.9 6.15 1.2 L6.15 1.5 6.2 1.7 Q8.1 3.55 7.85 4.65 7.7 5.2 7.05 5.55 L3.9 6.25 3.0 6.35 2.3 6.65 0.1 7.55 -0.75 7.8 Q-3.3 6.4 -4.25 6.25 L-8.45 5.45 -8.95 5.15 -8.15 5.6 -9.15 6.05 -9.6 5.6 -10.05 4.8 Q-10.4 4.05 -10.25 3.2 -10.0 1.6 -8.25 0.6 -7.55 0.8 -7.35 1.3 L-7.3 1.6 -8.6 2.9 -7.3 1.6 -7.35 1.3 Q-7.55 0.8 -8.25 0.6 -10.0 1.6 -10.25 3.2 -10.4 4.05 -10.05 4.8 L-9.6 5.6 -9.15 6.05 -8.15 5.6 -8.95 5.15 -8.45 5.45 -4.25 6.25 Q-3.3 6.4 -0.75 7.8 L0.1 7.55 2.3 6.65 3.0 6.35 3.9 6.25 7.05 5.55 Q7.7 5.2 7.85 4.65 8.1 3.55 6.2 1.7 L6.15 1.5 6.15 1.2 Q6.2 0.9 6.4 0.75 6.6 0.55 6.95 0.5 8.3 0.2 9.5 3.05 L8.95 2.05 9.05 2.9 9.0 4.35 8.6 5.55 8.05 6.5 6.05 6.95 5.35 7.05 Q2.55 7.4 0.9 8.0 -0.2 8.35 -0.8 8.8 -2.9 7.0 -5.8 7.05 L-7.35 7.1 -8.9 7.1 -9.8 6.95 -10.65 6.55 -9.95 7.25 -9.6 7.5 -9.2 7.75 -9.0 7.85 -3.8 8.1 -2.7 8.55 Q-2.05 8.85 -1.45 9.35 L-0.65 10.0 2.8 8.0 3.2 7.9 7.45 7.8 3.2 7.9 6.75 7.65 7.45 7.8 7.85 7.85 8.15 7.65 9.45 6.4 9.85 5.3 9.85 4.3 9.85 5.3 9.45 6.4 8.15 7.65 7.85 7.85 8.6 7.3 9.0 6.85 9.4 6.35 9.8 5.25 9.85 4.3 9.6 3.25 9.5 3.05 M-8.6 2.9 Q-9.9 4.35 -8.95 5.15 -9.8 4.35 -8.6 2.9 -9.8 4.35 -8.95 5.15 -9.9 4.35 -8.6 2.9 M-8.25 0.6 L-8.45 0.55 Q-9.9 0.25 -11.05 3.15 -11.6 4.55 -11.2 5.7 L-10.7 6.55 -9.95 7.3 -9.6 7.5 -9.95 7.3 -10.7 6.55 -11.2 5.7 Q-11.6 4.55 -11.05 3.15 -9.9 0.25 -8.45 0.55 L-8.25 0.6" fill="#f8f9a8" fill-rule="evenodd" stroke="none"/>
      <path d="M-0.5 -13.1 L-1.6 -15.6 -1.6 -11.85 -3.0 -15.35 -2.85 -6.6 Q-3.85 -9.6 -4.2 -14.95 -4.3 -16.9 1.1 -16.6 -0.15 -14.55 -0.5 -13.1" fill="#ff6e6e" fill-rule="evenodd" stroke="none"/>
    </g>
  </defs>
</svg>
