<?xml version="1.0" encoding="UTF-8" standalone="no"?>
<svg xmlns:xlink="http://www.w3.org/1999/xlink" height="92.9px" width="100.7px" xmlns="http://www.w3.org/2000/svg">
  <g transform="matrix(1.0, 0.0, 0.0, 1.0, 38.65, 49.75)">
    <use height="12.1" transform="matrix(1.0, 0.0, 0.0, 1.0, -13.05, -2.7)" width="25.8" xlink:href="#shape0"/>
  </g>
  <defs>
    <g id="shape0" transform="matrix(1.0, 0.0, 0.0, 1.0, 13.05, 2.7)">
      <path d="M-7.25 3.05 L-7.55 2.9 -8.3 2.7 -8.35 2.7 Q-8.95 2.6 -9.35 3.1 -9.8 3.5 -9.6 4.65 L-9.4 5.4 -9.45 5.4 -9.65 5.55 -10.5 4.75 Q-10.9 3.05 -10.1 2.35 -9.35 1.6 -8.25 1.7 L-8.1 1.7 -7.65 1.85 -6.95 3.0 -7.25 3.05 M-5.35 -0.1 L-5.4 -0.1 Q-5.85 0.15 -5.85 0.65 L-5.85 0.75 -5.5 1.7 -5.4 2.1 -5.6 2.4 -5.95 2.5 -6.3 2.3 Q-7.0 1.35 -6.85 0.6 -6.9 -0.4 -5.9 -0.95 L-3.25 -0.9 -2.75 0.3 -2.75 0.95 -2.75 1.1 -2.75 1.15 -2.95 0.7 -3.45 0.25 Q-4.35 -0.8 -5.35 -0.1 M11.95 8.75 L11.95 8.7 11.85 8.75 11.85 8.55 12.05 8.3 12.15 7.55 12.0 6.85 10.55 6.65 Q11.05 5.85 11.4 6.05 12.4 6.05 12.65 6.95 12.9 7.8 12.45 8.3 L11.95 8.75 M10.65 5.1 L10.45 5.3 9.75 5.45 9.7 5.45 9.5 5.15 9.5 4.8 Q9.6 4.6 9.8 4.55 L9.85 4.4 Q10.0 3.25 9.65 2.75 L9.6 2.7 Q9.2 2.2 7.1 3.0 7.8 1.4 8.3 1.5 9.65 1.1 10.45 2.2 11.1 2.9 10.85 4.55 L10.85 4.6 10.65 5.1 M1.3 -1.35 L0.05 -1.7 Q-0.5 -1.45 -1.1 -1.25 -1.5 -0.8 -1.5 0.15 L-1.65 0.5 -1.75 0.8 Q-2.55 -1.25 -1.9 -1.95 -1.25 -2.7 0.05 -2.7 1.35 -2.7 2.0 -2.0 2.7 -1.4 2.15 0.45 L1.8 0.3 1.65 -0.05 Q1.65 -0.9 1.3 -1.35 M4.3 -0.1 L4.25 -0.1 3.7 1.0 3.35 1.0 Q3.3 -0.55 3.55 -0.75 L3.55 -0.8 Q4.8 -2.3 6.6 -1.3 7.55 -0.75 7.6 0.35 7.65 1.4 6.45 2.45 L6.5 2.15 6.65 0.4 6.65 0.35 6.15 -0.4 6.1 -0.4 Q5.0 -1.0 4.3 -0.1 M-12.25 8.65 L-12.7 8.2 Q-13.2 7.7 -12.95 6.85 -12.7 5.95 -11.7 5.95 -9.85 6.9 -11.05 6.75 -12.25 6.6 -12.3 6.75 L-12.45 7.45 -12.35 8.2 -12.15 8.45 -11.95 8.7 -12.25 8.6 -12.25 8.65" fill="#000000" fill-rule="evenodd" stroke="none"/>
      <path d="M1.15 -1.15 L1.2 -1.1 1.35 -0.85 1.35 -0.75 0.25 5.9 0.25 5.85 0.2 6.05 -1.2 0.3 -1.25 -1.3 Q-1.05 -1.65 -0.55 -1.7 L-0.05 -1.75 Q0.9 -1.75 1.15 -1.15 M-1.55 -0.8 L-1.5 0.8 -1.8 -0.3 -1.6 -0.75 -1.55 -0.8 M-3.25 4.65 L-3.7 4.1 -5.35 1.8 Q-6.05 0.95 -5.5 0.4 L-5.3 0.2 Q-4.45 -0.35 -3.65 0.4 L-2.4 5.8 -3.25 4.65 M-8.85 3.05 L-7.9 2.95 -5.2 6.25 -9.25 4.8 -9.35 3.7 -8.85 3.05 M8.1 2.8 L9.05 2.85 9.5 3.45 9.6 4.1 9.7 4.05 9.7 4.1 9.75 4.15 9.75 4.2 9.8 4.25 9.95 4.35 9.9 4.55 9.85 4.6 9.2 4.7 5.55 6.3 8.1 2.8 M6.15 1.5 L3.45 5.75 4.35 0.25 Q5.05 -0.55 5.95 -0.05 L6.15 0.15 Q6.75 0.6 6.15 1.5" fill="#592d00" fill-rule="evenodd" stroke="none"/>
      <path d="M-3.7 4.1 L-3.25 4.65" fill="none" stroke="#422100" stroke-linecap="round" stroke-linejoin="round" stroke-width="0.25"/>
      <path d="M-7.45 2.5 L-4.6 6.65 -4.65 6.65 -9.55 5.5 -9.8 5.3 -10.0 5.0 Q-10.35 3.55 -9.8 2.9 -9.3 2.1 -7.9 2.25 L-7.45 2.5 M-5.55 6.05 L-8.1 3.2 Q-9.3 3.45 -9.25 4.65 L-5.55 6.05" fill="#592d00" fill-rule="evenodd" stroke="none"/>
      <path d="M-3.15 -0.1 L-3.0 0.2 -2.0 6.35 -1.95 6.6 -5.9 2.25 Q-6.45 1.5 -6.35 0.9 -6.4 0.15 -5.65 -0.3 -4.3 -1.2 -3.15 -0.1 M-3.7 0.75 Q-5.2 -0.3 -5.4 1.55 L-2.65 5.25 -3.7 0.75 M-5.55 1.35 L-5.45 1.45 -5.4 1.55 -5.45 1.45 -5.55 1.35" fill="#592d00" fill-rule="evenodd" stroke="none"/>
      <path d="M-0.35 -0.75 L-1.0 -0.3 0.35 5.25 1.3 -0.4 Q0.35 -1.25 -0.35 -0.75 M2.1 -0.9 L2.15 -0.6 0.35 6.9 0.3 6.9 -1.95 -0.3 -1.95 -0.4 Q-2.1 -2.0 -0.1 -2.2 1.65 -2.45 2.1 -0.9" fill="#592d00" fill-rule="evenodd" stroke="none"/>
      <path d="M9.6 4.4 Q9.5 3.2 8.35 3.05 L6.0 6.1 9.6 4.4 M10.35 4.7 L10.2 5.05 9.95 5.25 5.15 6.8 5.1 6.75 7.6 2.45 Q7.75 2.15 8.05 2.1 9.45 1.85 10.0 2.65 10.55 3.25 10.35 4.7" fill="#592d00" fill-rule="evenodd" stroke="none"/>
      <path d="M4.45 0.65 L3.75 5.2 6.4 1.05 6.25 1.25 Q5.85 -0.55 4.45 0.65 M3.9 -0.2 Q4.9 -1.4 6.35 -0.6 7.1 -0.2 7.15 0.55 7.25 1.1 6.75 1.95 L3.15 6.6 3.15 6.35 3.7 0.15 3.9 -0.2" fill="#592d00" fill-rule="evenodd" stroke="none"/>
      <path d="M0.65 5.75 L0.6 5.75 0.65 5.7 0.65 5.75 M-5.4 0.9 L-5.1 1.15 -2.2 6.05 -5.9 1.7 -6.0 1.3 -5.75 1.0 -5.4 0.9 M-9.55 4.2 L-9.2 4.2 Q-7.6 4.9 -5.5 6.35 L-9.6 5.1 -9.85 4.85 -9.85 4.45 -9.55 4.2 M-1.55 -1.0 L-1.45 -1.35 -1.1 -1.6 -0.75 -1.5 -0.55 -1.15 0.2 5.75 0.2 6.2 -1.55 -1.0" fill="#cc6600" fill-rule="evenodd" stroke="none"/>
      <path d="M-8.35 9.4 L-12.1 8.65 -12.25 8.5 -12.45 8.3 Q-12.8 7.3 -12.4 6.8 -12.1 6.25 -11.05 6.35 -10.85 6.35 -10.7 6.55 L-8.3 9.4 -8.35 9.4" fill="#592d00" fill-rule="evenodd" stroke="none"/>
      <path d="M-12.2 7.75 L-11.9 7.75 Q-10.7 8.25 -9.0 9.2 L-12.1 8.4 -12.35 8.2 -12.35 7.9 -12.2 7.75" fill="#cc6600" fill-rule="evenodd" stroke="none"/>
      <path d="M8.3 9.4 L12.05 8.65 12.2 8.5 12.4 8.3 Q12.75 7.3 12.35 6.8 12.05 6.25 11.0 6.35 10.8 6.35 10.65 6.55 L8.25 9.4 8.3 9.4" fill="#592d00" fill-rule="evenodd" stroke="none"/>
      <path d="M12.15 7.75 L11.85 7.75 8.95 9.2 12.05 8.4 12.3 8.2 12.3 7.9 12.15 7.75" fill="#cc6600" fill-rule="evenodd" stroke="none"/>
    </g>
  </defs>
</svg>
