<?xml version="1.0" encoding="UTF-8" standalone="no"?>
<svg xmlns:xlink="http://www.w3.org/1999/xlink" height="92.9px" width="100.7px" xmlns="http://www.w3.org/2000/svg">
  <g transform="matrix(1.0, 0.0, 0.0, 1.0, 38.65, 49.75)">
    <use height="34.7" transform="matrix(1.0, 0.0, 0.0, 1.0, -20.45, -10.85)" width="39.95" xlink:href="#shape0"/>
  </g>
  <defs>
    <g id="shape0" transform="matrix(1.0, 0.0, 0.0, 1.0, 20.45, 10.85)">
      <path d="M6.95 -5.6 Q6.7 -4.2 5.6 -3.25 L6.95 -2.95 Q9.2 -2.35 10.3 -1.5 11.8 -1.85 12.55 -3.05 13.6 -4.65 11.15 -6.15 10.0 -6.85 8.15 -6.85 L7.05 -6.75 7.05 -6.15 6.95 -5.6 M5.45 -9.9 Q6.55 -9.1 6.9 -7.4 9.55 -7.85 11.35 -6.7 13.3 -5.5 13.3 -4.05 L13.25 -3.55 Q12.85 -1.85 10.65 -1.2 11.25 -0.25 11.35 0.65 12.2 0.85 13.2 1.85 16.85 5.5 18.9 12.1 19.5 14.0 19.5 15.95 19.5 18.5 18.6 19.75 18.0 20.5 17.0 20.5 15.25 20.5 14.15 16.1 13.2 17.75 12.1 17.75 10.9 17.75 10.05 14.65 L9.8 13.8 Q8.8 10.55 5.2 5.2 L4.9 6.3 Q4.1 8.0 2.25 8.3 0.8 8.7 -0.05 7.25 L-1.2 4.85 -2.05 3.6 -2.2 3.45 Q-3.35 2.95 -4.85 4.45 -9.4 8.8 -8.55 14.05 L-8.45 14.5 Q-7.25 21.0 -10.15 21.85 -11.2 22.1 -11.95 21.55 -12.95 20.95 -13.65 19.05 -14.35 22.15 -15.15 22.85 -16.65 24.2 -18.25 23.7 -19.75 23.2 -20.35 20.2 L-20.45 19.0 Q-20.45 16.3 -18.8 12.75 -17.25 9.4 -15.4 7.65 L-15.5 5.8 Q-15.5 3.9 -15.0 2.5 -19.5 3.55 -19.2 0.6 L-18.5 -1.15 Q-16.7 -3.6 -13.2 -4.3 -13.7 -5.4 -13.7 -6.1 -13.7 -7.15 -12.95 -7.9 -10.4 -10.3 -6.4 -7.1 -5.4 -9.95 -3.6 -10.85 L-0.4 -10.7 Q0.65 -9.85 0.65 -8.8 2.8 -10.7 4.45 -10.35 L5.45 -9.9 M6.45 -5.9 L6.5 -7.1 5.75 -8.75 Q5.35 -9.65 4.55 -9.7 3.05 -10.15 0.95 -8.15 0.0 -6.7 -0.25 -5.15 L-0.25 -3.95 4.85 -3.4 Q6.05 -4.25 6.4 -5.6 L6.45 -5.9 M-5.3 -1.45 Q-4.2 -2.05 -2.5 -2.25 0.85 -2.6 2.75 -0.5 L3.05 -0.15 4.25 1.4 Q5.1 2.7 5.3 3.8 L5.35 4.35 7.85 8.25 7.8 8.35 9.05 10.4 10.4 13.7 Q11.35 16.85 12.3 16.85 14.25 16.85 14.25 13.9 L14.1 12.05 Q13.95 10.6 12.7 7.85 L12.6 7.65 12.4 7.25 11.25 5.05 12.5 6.95 14.05 10.0 14.15 10.25 14.4 10.95 14.6 11.7 Q15.2 13.95 15.0 16.7 L15.5 18.4 Q16.1 19.75 17.15 19.75 18.35 19.75 18.75 17.4 19.15 15.0 18.25 12.3 L18.0 11.5 18.1 11.55 17.45 10.1 17.5 10.15 17.1 9.1 16.95 9.0 15.55 6.35 12.9 2.35 10.95 1.15 Q10.95 0.3 10.6 -0.4 9.2 -1.9 5.35 -2.75 0.2 -3.9 -2.65 -3.3 -5.15 -2.15 -5.55 -2.35 -5.95 -2.5 -6.3 -3.75 -6.65 -5.1 -6.35 -6.35 L-6.3 -6.35 Q-10.2 -9.6 -12.45 -7.4 -13.35 -6.5 -12.85 -5.05 L-12.2 -3.75 -12.3 -3.75 -12.15 -3.6 -12.15 -3.55 Q-9.9 -1.2 -8.05 -1.3 -9.5 -1.1 -11.0 -2.1 L-12.3 -3.35 -12.5 -3.5 -12.7 -3.7 Q-15.95 -3.45 -17.95 -0.75 -19.1 0.8 -18.15 1.6 L-17.4 2.0 -15.1 2.15 -13.65 1.15 Q-11.9 -0.15 -9.9 -0.75 L-13.95 1.9 Q-15.15 4.05 -14.75 7.95 -16.75 9.75 -18.4 13.55 L-18.45 13.65 -18.55 13.65 -19.25 15.0 -19.05 15.0 -19.0 15.0 -17.35 14.65 -16.75 14.7 Q-15.9 14.75 -15.25 15.2 -14.6 15.6 -14.15 16.3 L-14.15 16.35 -14.15 16.3 -13.9 18.1 -14.05 19.1 -14.1 18.9 -14.05 19.1 -13.9 18.1 -13.85 17.9 -14.15 16.35 -14.2 15.3 -14.15 13.1 -13.75 10.05 -13.8 11.45 -13.85 12.7 -13.85 12.8 -13.8 14.2 -13.55 17.0 -13.0 19.25 Q-12.05 21.55 -10.45 21.1 -8.8 20.6 -8.75 18.35 -8.7 17.35 -9.3 14.2 L-9.4 13.1 -9.3 13.15 -9.3 11.85 -9.15 10.65 -9.2 10.6 Q-8.45 7.25 -5.15 4.1 L-3.75 3.2 -1.9 3.05 -1.6 3.3 -0.8 4.45 0.15 6.4 0.8 7.35 Q1.45 8.0 2.2 7.85 3.75 7.55 4.45 6.2 L4.85 5.0 4.8 4.85 4.75 3.9 4.45 3.15 4.65 3.4 Q4.05 1.15 1.6 -0.7 L1.35 -0.9 Q-0.45 -2.1 -2.85 -1.95 L-3.45 -1.9 -4.85 -1.6 -5.4 -1.4 -5.35 -1.4 -5.55 -1.35 -5.3 -1.45 M-19.45 16.5 L-19.65 16.5 -19.05 15.0 -19.65 16.5 -19.45 16.5 Q-20.05 18.65 -19.7 20.2 -19.2 22.65 -17.85 23.05 -16.7 23.35 -15.55 22.35 -14.9 21.7 -14.1 18.9 -14.6 17.3 -15.8 16.65 L-17.0 16.25 -17.3 16.2 -18.3 16.35 -18.8 16.4 -19.45 16.5 M-5.2 -3.1 Q-4.25 -2.95 -2.25 -3.75 L-0.85 -3.95 Q-0.9 -5.4 -0.1 -7.15 L0.4 -8.0 Q0.05 -10.25 -2.15 -10.45 -4.7 -10.7 -6.0 -6.25 L-5.95 -4.75 Q-5.8 -3.15 -5.2 -3.1" fill="#1d1d24" fill-rule="evenodd" stroke="none"/>
      <path d="M7.05 -6.15 L7.05 -6.75 8.15 -6.85 Q10.0 -6.85 11.15 -6.15 13.6 -4.65 12.55 -3.05 11.8 -1.85 10.3 -1.5 9.2 -2.35 6.95 -2.95 L5.6 -3.25 Q6.7 -4.2 6.95 -5.6 L8.2 -5.4 Q9.85 -4.95 10.2 -4.05 10.55 -3.1 11.95 -3.3 13.3 -3.45 12.6 -4.45 10.8 -7.0 7.8 -6.45 L7.05 -6.15 M5.75 -8.75 L6.5 -7.1 6.45 -5.9 5.15 -5.4 6.4 -5.6 Q6.05 -4.25 4.85 -3.4 L-0.25 -3.95 -0.25 -5.15 Q0.0 -6.7 0.95 -8.15 3.05 -10.15 4.55 -9.7 L4.4 -9.7 Q0.9 -9.6 0.35 -6.0 0.1 -4.5 1.55 -5.25 3.7 -6.45 4.25 -6.4 L6.15 -6.65 5.75 -8.75 M-5.3 -1.45 L-5.55 -1.35 -5.35 -1.4 -5.4 -1.4 -4.85 -1.6 -3.45 -1.9 -2.85 -1.95 0.55 -1.2 1.35 -0.9 1.6 -0.7 Q4.05 1.15 4.65 3.4 L4.45 3.15 4.75 3.9 4.8 4.85 4.85 5.0 4.45 6.2 Q3.75 7.55 2.2 7.85 3.8 7.4 3.5 4.6 3.2 1.7 1.1 0.15 -2.55 -2.5 -6.15 -0.6 -7.35 0.05 -7.05 2.0 -6.75 3.9 -5.65 4.3 L-4.25 3.15 -1.9 3.05 -3.75 3.2 -5.15 4.1 Q-8.45 7.25 -9.2 10.6 -9.8 10.2 -10.6 10.1 -9.9 7.1 -7.45 4.55 -8.95 4.65 -10.4 5.75 -12.45 7.35 -13.0 10.45 L-13.45 10.85 -13.8 11.45 -13.75 10.05 -14.15 13.1 -14.2 15.3 -14.25 14.95 -14.8 14.15 Q-14.85 9.55 -12.4 6.4 -16.5 9.7 -18.0 13.65 L-18.45 13.65 -18.4 13.55 Q-16.75 9.75 -14.75 7.95 -15.15 4.05 -13.95 1.9 L-9.9 -0.75 Q-11.9 -0.15 -13.65 1.15 L-15.1 2.15 -17.4 2.0 -16.05 1.65 Q-14.05 0.8 -12.75 -0.5 -12.25 -1.0 -12.4 -2.35 L-12.3 -3.35 -11.0 -2.1 Q-9.5 -1.1 -8.05 -1.3 -9.9 -1.2 -12.15 -3.55 L-12.1 -3.6 -12.15 -3.6 -12.3 -3.75 -12.2 -3.75 -12.85 -5.05 Q-13.35 -6.5 -12.45 -7.4 -10.2 -9.6 -6.3 -6.35 L-6.35 -6.35 Q-6.65 -5.1 -6.3 -3.75 -5.95 -2.5 -5.55 -2.35 -5.15 -2.15 -2.65 -3.3 0.2 -3.9 5.35 -2.75 9.2 -1.9 10.6 -0.4 10.95 0.3 10.95 1.15 L12.9 2.35 15.55 6.35 16.95 9.0 16.75 8.9 16.45 8.3 13.65 3.7 Q12.85 2.35 11.1 1.8 9.4 1.25 9.5 2.0 9.5 2.35 10.95 3.6 12.55 5.05 13.15 6.35 L14.25 8.9 13.75 9.15 14.05 10.0 12.5 6.95 11.25 5.05 12.4 7.25 12.1 6.85 Q11.65 6.6 11.2 6.5 L10.05 4.7 Q8.1 1.7 6.1 0.95 L4.45 0.75 Q4.1 0.7 4.25 1.4 L3.05 -0.15 5.3 -0.25 Q8.3 -0.2 9.4 0.5 9.3 -1.35 7.65 -1.85 L3.4 -2.85 Q-2.2 -4.15 -5.3 -1.45 M0.8 7.35 L0.15 6.4 -0.8 4.45 0.2 6.4 0.8 7.35 M-9.4 13.1 L-9.3 14.2 Q-8.7 17.35 -8.75 18.35 -8.8 20.6 -10.45 21.1 -12.05 21.55 -13.0 19.25 L-13.55 17.0 -13.8 14.2 Q-13.6 13.65 -13.2 13.35 -12.95 21.5 -10.3 20.75 -9.0 20.35 -10.0 17.7 -10.95 15.1 -10.95 12.75 L-9.4 13.1 M-19.45 16.5 L-18.8 16.4 Q-20.25 22.5 -17.45 21.8 -16.7 21.65 -16.25 18.85 L-15.8 16.65 Q-14.6 17.3 -14.1 18.9 -14.9 21.7 -15.55 22.35 -16.7 23.35 -17.85 23.05 -19.2 22.65 -19.7 20.2 -20.05 18.65 -19.45 16.5 M12.7 7.85 Q13.95 10.6 14.1 12.05 L14.25 13.9 Q14.25 16.85 12.3 16.85 11.35 16.85 10.4 13.7 L9.05 10.4 9.2 10.65 9.4 10.5 9.65 11.0 12.25 15.7 Q13.3 15.9 13.4 12.55 13.45 11.1 12.5 8.95 12.9 9.05 13.3 9.3 L12.55 7.8 12.7 7.85 M7.85 8.25 L5.35 4.35 5.3 3.8 5.35 3.9 8.0 7.9 7.85 8.25 M14.6 11.7 L15.15 11.4 Q16.35 15.15 16.75 19.0 17.2 20.15 18.0 19.2 18.9 18.1 18.65 14.95 18.5 13.3 17.85 11.4 L18.0 11.5 18.25 12.3 Q19.15 15.0 18.75 17.4 18.35 19.75 17.15 19.75 16.1 19.75 15.5 18.4 L15.0 16.7 Q15.2 13.95 14.6 11.7 M-11.0 -8.0 Q-11.65 -7.95 -12.0 -7.55 -13.0 -6.9 -12.65 -5.85 L-12.45 -5.5 -11.55 -3.9 -9.75 -2.2 -10.2 -3.5 Q-10.5 -4.85 -9.8 -5.25 L-7.65 -5.8 Q-6.55 -6.15 -7.65 -7.0 -8.4 -7.6 -9.2 -7.85 L-11.0 -8.0 M-18.15 1.6 Q-19.1 0.8 -17.95 -0.75 -15.95 -3.45 -12.7 -3.7 L-12.5 -3.5 -15.05 -2.8 Q-18.05 -1.6 -18.3 0.5 -18.4 1.25 -18.15 1.6 M-2.8 -10.2 Q-4.1 -9.95 -4.95 -7.9 -5.75 -5.95 -5.55 -4.9 -5.25 -3.2 -4.3 -4.65 L-2.1 -7.3 Q-0.55 -8.75 0.0 -8.1 -0.1 -9.95 -1.55 -10.25 L-2.45 -10.3 -2.55 -10.25 -2.75 -10.25 -2.8 -10.2 M-6.9 -1.1 L-9.95 -0.2 Q-12.4 0.75 -13.0 1.5 -14.5 3.4 -14.3 7.2 -13.3 5.6 -8.8 2.7 -8.6 1.35 -7.75 0.0 L-6.9 -1.1 M-5.2 -3.1 Q-5.8 -3.15 -5.95 -4.75 L-6.0 -6.25 Q-4.7 -10.7 -2.15 -10.45 0.05 -10.25 0.4 -8.0 L-0.1 -7.15 Q-0.9 -5.4 -0.85 -3.95 L-2.25 -3.75 Q-4.25 -2.95 -5.2 -3.1 M-4.85 -1.6 L-5.35 -1.4 -4.85 -1.6" fill="#2d2d2d" fill-rule="evenodd" stroke="none"/>
      <path d="M7.05 -6.15 L7.8 -6.45 Q10.8 -7.0 12.6 -4.45 13.3 -3.45 11.95 -3.3 10.55 -3.1 10.2 -4.05 9.85 -4.95 8.2 -5.4 L6.95 -5.6 7.05 -6.15 M5.75 -8.75 L6.15 -6.65 4.25 -6.4 Q3.7 -6.45 1.55 -5.25 0.1 -4.5 0.35 -6.0 0.9 -9.6 4.4 -9.7 L4.55 -9.7 Q5.35 -9.65 5.75 -8.75 M6.4 -5.6 L5.15 -5.4 6.45 -5.9 6.4 -5.6 M2.0 -8.25 L1.6 -7.15 Q3.7 -9.0 5.65 -8.35 5.4 -9.55 4.2 -9.5 2.7 -9.4 2.0 -8.25 M3.05 -0.15 L2.75 -0.5 Q0.85 -2.6 -2.5 -2.25 -4.2 -2.05 -5.3 -1.45 -2.2 -4.15 3.4 -2.85 L7.65 -1.85 Q9.3 -1.35 9.4 0.5 8.3 -0.2 5.3 -0.25 L3.05 -0.15 M-2.85 -1.95 Q-0.45 -2.1 1.35 -0.9 L0.55 -1.2 -2.85 -1.95 M2.2 7.85 Q1.45 8.0 0.8 7.35 L0.2 6.4 -0.8 4.45 -1.6 3.3 -1.9 3.05 -4.25 3.15 -5.65 4.3 Q-6.75 3.9 -7.05 2.0 -7.35 0.05 -6.15 -0.6 -2.55 -2.5 1.1 0.15 3.2 1.7 3.5 4.6 3.8 7.4 2.2 7.85 M-18.8 16.4 L-18.3 16.35 -18.55 19.55 Q-18.5 21.5 -18.0 21.5 -16.55 21.5 -16.9 18.75 L-17.0 16.25 -15.8 16.65 -16.25 18.85 Q-16.7 21.65 -17.45 21.8 -20.25 22.5 -18.8 16.4 M4.25 1.4 Q4.1 0.7 4.45 0.75 L6.1 0.95 Q8.1 1.7 10.05 4.7 L11.2 6.5 9.6 6.6 Q6.95 2.1 6.25 2.8 5.95 3.15 8.45 7.25 L8.05 7.7 8.0 7.9 5.35 3.9 5.3 3.8 Q5.1 2.7 4.25 1.4 M14.25 8.9 L13.15 6.35 Q12.55 5.05 10.95 3.6 9.5 2.35 9.5 2.0 9.4 1.25 11.1 1.8 12.85 2.35 13.65 3.7 L16.45 8.3 16.75 8.9 16.45 8.75 16.1 8.6 14.7 6.1 12.85 3.3 15.2 8.55 Q14.75 8.65 14.25 8.9 M-12.15 -3.6 L-12.1 -3.6 -12.15 -3.55 -12.15 -3.6 M-12.3 -3.35 L-12.4 -2.35 Q-12.25 -1.0 -12.75 -0.5 -14.05 0.8 -16.05 1.65 L-17.4 2.0 -18.15 1.6 Q-18.4 1.25 -18.3 0.5 -18.05 -1.6 -15.05 -2.8 L-12.5 -3.5 -12.3 -3.35 M-18.0 13.65 Q-16.5 9.7 -12.4 6.4 -14.85 9.55 -14.8 14.15 L-15.95 13.45 -16.4 13.5 Q-15.8 11.75 -14.5 10.25 L-13.85 8.3 -15.7 10.55 Q-16.9 12.2 -17.5 13.6 L-18.0 13.65 M12.3 -3.8 Q12.5 -4.1 12.2 -4.8 11.95 -5.4 10.9 -5.9 L9.85 -6.25 11.7 -3.85 12.3 -3.8 M11.0 9.1 L12.5 8.95 Q13.45 11.1 13.4 12.55 13.3 15.9 12.25 15.7 L9.65 11.0 9.4 10.5 10.05 9.8 12.15 14.15 Q12.5 14.35 12.1 12.3 11.7 10.2 11.05 9.15 L11.0 9.1 M15.15 11.4 L15.55 11.1 16.3 11.0 16.45 11.35 17.1 15.55 Q17.4 18.15 17.75 18.05 18.2 17.95 18.05 15.4 17.9 13.05 17.5 11.85 L17.25 11.15 17.85 11.4 Q18.5 13.3 18.65 14.95 18.9 18.1 18.0 19.2 17.2 20.15 16.75 19.0 16.35 15.15 15.15 11.4 M0.5 4.7 Q1.1 6.15 2.4 5.05 3.25 4.35 1.7 1.7 0.85 0.15 -1.45 0.25 L-4.65 0.6 Q-5.65 0.55 -4.95 -0.05 L-4.1 -0.7 -5.35 -0.4 Q-6.5 0.2 -6.45 1.45 -6.35 2.55 -5.35 2.2 L-2.9 1.75 Q-0.95 1.4 0.5 4.7 M-11.0 -8.0 L-11.85 -7.7 -12.0 -7.55 Q-11.65 -7.95 -11.0 -8.0 M-12.45 -5.5 L-11.95 -4.8 Q-12.5 -5.75 -11.0 -7.05 L-7.9 -7.0 -9.2 -7.85 Q-8.4 -7.6 -7.65 -7.0 -6.55 -6.15 -7.65 -5.8 L-9.8 -5.25 Q-10.5 -4.85 -10.2 -3.5 L-9.75 -2.2 -11.55 -3.9 -12.45 -5.5 M-17.8 -0.05 Q-18.3 2.55 -16.1 0.25 -15.5 -0.35 -15.0 -1.55 -14.55 -2.6 -13.95 -2.9 L-15.75 -2.15 Q-17.6 -1.15 -17.8 -0.05 M-2.8 -10.2 Q-3.8 -9.9 -4.65 -8.4 L-5.3 -6.85 Q-4.25 -8.95 -2.35 -9.3 -1.3 -9.5 -1.4 -10.0 L-1.55 -10.25 Q-0.1 -9.95 0.0 -8.1 -0.55 -8.75 -2.1 -7.3 L-4.3 -4.65 Q-5.25 -3.2 -5.55 -4.9 -5.75 -5.95 -4.95 -7.9 -4.1 -9.95 -2.8 -10.2 M-6.9 -1.1 L-7.75 0.0 Q-8.6 1.35 -8.8 2.7 -13.3 5.6 -14.3 7.2 -14.5 3.4 -13.0 1.5 -12.4 0.75 -9.95 -0.2 L-6.9 -1.1 M-13.95 5.6 L-10.5 2.7 Q-11.45 1.3 -13.05 2.6 L-13.95 5.6 M-13.0 10.45 Q-12.45 7.35 -10.4 5.75 -8.95 4.65 -7.45 4.55 -9.9 7.1 -10.6 10.1 L-11.35 10.0 -11.45 10.0 -11.5 10.0 -11.5 9.9 Q-11.0 7.15 -8.95 5.35 L-10.65 6.75 Q-12.2 8.35 -12.6 10.2 L-13.0 10.45 M-11.6 12.75 L-11.25 12.75 -10.95 12.75 Q-10.95 15.1 -10.0 17.7 -9.0 20.35 -10.3 20.75 -12.95 21.5 -13.2 13.35 L-12.85 13.1 -12.65 15.75 Q-12.25 18.3 -11.45 19.05 -9.85 20.5 -11.2 16.95 L-11.55 13.55 -11.6 12.75" fill="#353535" fill-rule="evenodd" stroke="none"/>
      <path d="M2.0 -8.25 Q2.7 -9.4 4.2 -9.5 5.4 -9.55 5.65 -8.35 3.7 -9.0 1.6 -7.15 L2.0 -8.25 M-18.3 16.35 L-17.3 16.2 -17.0 16.25 -16.9 18.75 Q-16.55 21.5 -18.0 21.5 -18.5 21.5 -18.55 19.55 L-18.3 16.35 M12.3 -3.8 L11.7 -3.85 9.85 -6.25 10.9 -5.9 Q11.95 -5.4 12.2 -4.8 12.5 -4.1 12.3 -3.8 M15.2 8.55 L12.85 3.3 14.7 6.1 16.1 8.6 15.2 8.55 M11.0 9.1 L11.05 9.15 Q11.7 10.2 12.1 12.3 12.5 14.35 12.15 14.15 L10.05 9.8 10.35 9.45 11.0 9.1 M16.3 11.0 L17.25 11.15 17.5 11.85 Q17.9 13.05 18.05 15.4 18.2 17.95 17.75 18.05 17.4 18.15 17.1 15.55 L16.45 11.35 16.3 11.0 M8.45 7.25 Q5.95 3.15 6.25 2.8 6.95 2.1 9.6 6.6 L9.5 6.6 8.45 7.25 M0.5 4.7 Q-0.95 1.4 -2.9 1.75 L-5.35 2.2 Q-6.35 2.55 -6.45 1.45 -6.5 0.2 -5.35 -0.4 L-4.1 -0.7 -4.95 -0.05 Q-5.65 0.55 -4.65 0.6 L-1.45 0.25 Q0.85 0.15 1.7 1.7 3.25 4.35 2.4 5.05 1.1 6.15 0.5 4.7 M-12.0 -7.55 L-11.85 -7.7 -11.0 -8.0 -9.2 -7.85 -7.9 -7.0 -11.0 -7.05 Q-12.5 -5.75 -11.95 -4.8 L-12.45 -5.5 -12.65 -5.85 Q-13.0 -6.9 -12.0 -7.55 M-17.8 -0.05 Q-17.6 -1.15 -15.75 -2.15 L-13.95 -2.9 Q-14.55 -2.6 -15.0 -1.55 -15.5 -0.35 -16.1 0.25 -18.3 2.55 -17.8 -0.05 M-1.55 -10.25 L-1.4 -10.0 Q-1.3 -9.5 -2.35 -9.3 -4.25 -8.95 -5.3 -6.85 L-4.65 -8.4 Q-3.8 -9.9 -2.8 -10.2 L-2.75 -10.25 -2.55 -10.25 -2.45 -10.3 -1.55 -10.25 M-13.95 5.6 L-13.05 2.6 Q-11.45 1.3 -10.5 2.7 L-13.95 5.6 M-12.6 10.2 Q-12.2 8.35 -10.65 6.75 L-8.95 5.35 Q-11.0 7.15 -11.5 9.9 L-11.5 10.0 -11.75 10.0 -12.6 10.2 M-17.5 13.6 Q-16.9 12.2 -15.7 10.55 L-13.85 8.3 -14.5 10.25 Q-15.8 11.75 -16.4 13.5 L-17.5 13.6 M-11.6 12.75 L-11.55 13.55 -11.2 16.95 Q-9.85 20.5 -11.45 19.05 -12.25 18.3 -12.65 15.75 L-12.85 13.1 -11.6 12.75" fill="#5a5a5a" fill-rule="evenodd" stroke="none"/>
      <path d="M-9.3 11.85 L-9.3 13.15 -9.4 13.1 -10.95 12.75 -11.25 12.75 -11.6 12.75 -12.85 13.1 -13.2 13.35 Q-13.6 13.65 -13.8 14.2 L-13.85 12.8 -13.85 12.7 Q-13.0 11.05 -11.15 11.25 -10.15 11.35 -9.3 11.85 M9.05 10.4 L7.8 8.35 8.5 9.4 10.3 7.8 11.85 7.6 12.55 7.8 13.3 9.3 Q12.9 9.05 12.5 8.95 L11.0 9.1 10.35 9.45 10.05 9.8 9.4 10.5 9.2 10.65 9.05 10.4 M14.15 10.25 L15.15 9.75 15.7 9.65 16.7 9.75 17.3 10.05 17.45 10.1 18.1 11.55 18.0 11.5 17.85 11.4 17.25 11.15 16.3 11.0 15.55 11.1 15.15 11.4 14.6 11.7 14.4 10.95 14.15 10.25" fill="#f7ef00" fill-rule="evenodd" stroke="none"/>
      <path d="M-9.2 10.6 L-9.15 10.65 -9.3 11.85 Q-10.15 11.35 -11.15 11.25 -13.0 11.05 -13.85 12.7 L-13.8 11.45 -13.45 10.85 -13.0 10.45 -12.6 10.2 -11.75 10.0 -11.5 10.0 -11.45 10.0 -11.35 10.0 -10.6 10.1 Q-9.8 10.2 -9.2 10.6 M-14.2 15.3 L-14.15 16.35 -13.85 17.9 -13.9 18.1 -14.15 16.3 Q-14.6 15.6 -15.25 15.2 -15.9 14.75 -16.75 14.7 L-17.35 14.65 -19.0 15.0 -19.05 15.0 -19.25 15.0 -18.55 13.65 -18.45 13.65 -18.0 13.65 -17.5 13.6 -16.4 13.5 -15.95 13.45 -14.8 14.15 -14.25 14.95 -14.2 15.3 M11.2 6.5 Q11.65 6.6 12.1 6.85 L12.4 7.25 12.6 7.65 12.7 7.85 12.55 7.8 11.85 7.6 10.3 7.8 8.5 9.4 7.8 8.35 7.85 8.25 8.0 7.9 8.05 7.7 8.45 7.25 9.5 6.6 9.6 6.6 11.2 6.5 M14.05 10.0 L13.75 9.15 14.25 8.9 Q14.75 8.65 15.2 8.55 L16.1 8.6 16.45 8.75 16.75 8.9 16.95 9.0 17.1 9.1 17.5 10.15 17.45 10.1 17.3 10.05 16.7 9.75 15.7 9.65 15.15 9.75 14.15 10.25 14.05 10.0" fill="#c51e1b" fill-rule="evenodd" stroke="none"/>
    </g>
  </defs>
</svg>
