<?xml version="1.0" encoding="UTF-8" standalone="no"?>
<svg xmlns:xlink="http://www.w3.org/1999/xlink" height="92.9px" width="100.7px" xmlns="http://www.w3.org/2000/svg">
  <g transform="matrix(1.0, 0.0, 0.0, 1.0, 38.65, 49.75)">
    <use height="25.5" transform="matrix(1.0, 0.0, 0.0, 1.0, -15.65, -16.05)" width="31.0" xlink:href="#shape0"/>
  </g>
  <defs>
    <g id="shape0" transform="matrix(1.0, 0.0, 0.0, 1.0, 15.65, 16.05)">
      <path d="M-15.65 -11.15 Q-11.0 -14.75 -0.4 -14.65 L-0.15 3.5 Q-7.8 4.9 -10.45 7.25 -11.8 8.45 -11.6 9.35 -13.35 9.2 -12.05 6.9 -13.8 -4.55 -15.65 -11.15" fill="#000000" fill-rule="evenodd" stroke="none"/>
      <path d="M10.15 7.35 Q7.5 4.95 -0.15 3.6 L-0.85 -14.75 Q10.65 -14.65 15.35 -11.05 13.45 -4.45 11.7 6.95 13.0 9.25 11.25 9.45 11.45 8.55 10.15 7.35" fill="#000000" fill-rule="evenodd" stroke="none"/>
      <path d="M-14.3 -5.95 L-13.0 -0.2 Q-15.05 -2.9 -14.3 -5.95" fill="#000000" fill-rule="evenodd" stroke="none"/>
      <path d="M13.95 -5.85 Q14.7 -2.8 12.65 -0.1 L13.95 -5.85" fill="#000000" fill-rule="evenodd" stroke="none"/>
      <path d="M5.55 -13.5 Q10.85 -12.65 14.2 -10.95 L5.95 5.05 Q-1.9 3.45 -7.45 5.25 -10.2 6.15 -11.4 7.35 -11.05 5.75 -14.8 -11.05 -5.1 -15.25 5.55 -13.5" fill="#024ab1" fill-rule="evenodd" stroke="none"/>
      <path d="M12.5 -2.35 Q10.85 6.45 11.1 7.5 9.8 6.35 6.95 5.45 1.2 3.65 -6.55 4.95 L-14.8 -11.05 Q-10.4 -12.6 -4.6 -13.35 7.0 -14.85 14.2 -10.95 L12.5 -2.35" fill="#024ab1" fill-rule="evenodd" stroke="none"/>
      <path d="M12.5 -11.75 L9.15 3.2 Q7.1 1.95 5.6 1.95 L6.35 -13.4 12.5 -11.75" fill="#c4d9f2" fill-rule="evenodd" stroke="none"/>
      <path d="M6.3 -13.35 Q7.2 -13.45 10.95 -12.3 L8.35 2.65 5.6 1.55 6.3 -13.35" fill="#367fd6" fill-rule="evenodd" stroke="none"/>
      <path d="M-11.7 -11.95 Q-7.9 -13.25 -3.3 -13.65 L-3.3 -13.5 Q-7.45 -13.05 -11.7 -11.95 M-11.05 4.95 L-14.0 -9.55 -8.2 1.75 Q-10.9 3.1 -11.05 4.95" fill="#012c6a" fill-rule="evenodd" stroke="none"/>
      <path d="M0.85 -1.95 L4.5 0.5 1.55 0.3 0.95 -1.15 0.85 -1.95 M-3.3 -13.05 Q-7.5 -11.85 -5.95 -8.6 L-6.2 -7.55 Q-6.15 -5.9 -5.1 -5.9 -4.65 -5.9 -4.2 -6.2 L-4.15 -6.2 -0.95 -3.3 -1.15 -1.35 -1.85 0.35 Q-5.8 0.55 -8.2 1.75 L-14.0 -9.55 -14.3 -10.95 -11.7 -11.95 Q-7.45 -13.05 -3.3 -13.5 L-3.3 -13.05" fill="#012c6a" fill-rule="evenodd" stroke="none"/>
      <path d="M9.2 6.45 Q10.65 7.75 10.7 8.95 9.3 6.5 4.25 5.55 L-0.55 5.15 Q-8.6 5.0 -11.15 8.95 -11.2 6.5 -5.9 4.55 -3.25 3.6 -0.6 3.15 6.35 3.8 9.2 6.45" fill="#333333" fill-rule="evenodd" stroke="none"/>
      <path d="M4.45 1.0 Q7.7 1.8 9.5 3.2 11.4 5.65 11.1 7.2 L9.0 3.5 Q2.5 0.7 -3.7 1.7 -6.8 2.2 -8.6 3.25 L-11.4 7.35 Q-11.85 6.6 -10.5 4.55 L-9.05 2.6 Q-2.0 -0.6 4.45 1.0" fill="#032b5b" fill-rule="evenodd" stroke="none"/>
      <path d="M-3.05 1.35 Q3.45 0.5 9.0 3.45 L-0.25 4.6 Q-5.05 4.1 -11.15 7.35 L-10.15 5.25 Q-9.0 3.1 -8.4 2.85 -6.25 1.8 -3.05 1.35" fill="#ffff1c" fill-rule="evenodd" stroke="none"/>
      <path d="M8.85 3.2 Q9.85 3.6 11.25 7.65 4.65 4.1 -0.25 4.6 L-7.15 2.25 Q3.75 -0.15 8.85 3.2" fill="#ffff1c" fill-rule="evenodd" stroke="none"/>
      <path d="M-8.8 3.05 L-1.55 4.3 Q-9.65 5.0 -11.1 8.95 -13.05 8.55 -8.8 3.05" fill="#ffff1c" fill-rule="evenodd" stroke="none"/>
      <path d="M8.45 3.0 Q12.7 8.5 10.8 8.9 9.3 4.9 1.2 4.25 L8.45 3.0" fill="#ffff1c" fill-rule="evenodd" stroke="none"/>
      <path d="M-11.25 8.55 Q-11.55 7.45 -10.2 5.2 L-8.75 3.2 Q-6.5 1.65 -1.2 1.25 -5.35 2.25 -5.3 4.95 -9.6 6.2 -11.25 8.55" fill="#b79f11" fill-rule="evenodd" stroke="none"/>
      <path d="M5.2 1.95 Q7.45 2.25 9.1 3.45 9.5 3.75 10.85 6.75 11.45 8.75 10.75 8.7 9.8 6.35 5.1 5.2 L0.85 4.55 Q3.35 4.85 5.2 1.95" fill="#e6cf1c" fill-rule="evenodd" stroke="none"/>
      <path d="M-7.0 2.45 Q-7.05 5.4 -8.3 6.0 L-11.05 8.7 Q-11.9 8.95 -10.9 6.8 L-8.75 3.2 -7.0 2.45" fill="#e6cf1c" fill-rule="evenodd" stroke="none"/>
      <path d="M9.75 4.75 Q11.4 7.4 10.75 8.5 9.65 6.35 6.15 5.5 10.15 6.2 9.75 4.75" fill="#cd7c00" fill-rule="evenodd" stroke="none"/>
      <path d="M-9.3 3.9 Q-11.1 7.45 -9.2 6.7 -10.65 7.35 -11.05 8.7 -12.6 8.85 -9.3 3.9" fill="#cd7c00" fill-rule="evenodd" stroke="none"/>
      <path d="M-5.3 4.95 Q-5.15 1.85 -0.95 1.2 L3.3 1.5 -0.8 2.15 Q-4.8 3.1 -4.3 4.85 L-5.3 4.95" fill="#ffffcf" fill-rule="evenodd" stroke="none"/>
      <path d="M3.6 3.3 Q2.1 4.8 -0.75 4.4 -2.6 4.3 3.6 3.3" fill="#ffffcf" fill-rule="evenodd" stroke="none"/>
      <path d="M13.35 -5.4 Q12.75 -6.0 9.4 -6.95 L6.15 -7.8 -6.45 -7.8 Q-10.7 -7.3 -13.55 -5.4 -14.0 -6.45 -10.3 -7.55 L-6.5 -8.45 6.15 -8.3 Q8.85 -8.05 13.35 -6.5 L13.35 -5.4" fill="#032b5b" fill-rule="evenodd" stroke="none"/>
      <path d="M-13.55 -5.25 L-13.75 -6.2 -12.25 -6.85 -13.55 -5.25" fill="#032b5b" fill-rule="evenodd" stroke="none"/>
      <path d="M12.0 -0.25 Q8.35 -2.8 -8.0 -1.5 L-10.0 -1.15 Q-12.1 -0.7 -12.5 -0.15 L-12.8 -0.75 Q-11.3 -1.5 -8.35 -2.05 6.4 -2.8 12.45 -1.05 L12.0 -0.25" fill="#032b5b" fill-rule="evenodd" stroke="none"/>
      <path d="M-0.1 -2.05 L-5.65 -1.95 Q-10.55 -1.8 -12.5 -0.8 -13.3 -2.6 -13.5 -5.85 -10.8 -7.5 -6.25 -8.0 L-0.05 -7.95 -0.1 -2.05" fill="#ffff1c" fill-rule="evenodd" stroke="none"/>
      <path d="M5.95 -8.0 Q10.5 -7.5 13.3 -5.85 13.1 -2.6 12.3 -0.8 L8.1 -1.75 -0.8 -2.05 -0.25 -7.95 5.95 -8.0" fill="#ffff1c" fill-rule="evenodd" stroke="none"/>
      <path d="M-13.5 -5.85 L-12.5 -0.8 Q-13.4 -2.0 -13.55 -4.05 L-13.5 -5.85" fill="#ffff1c" fill-rule="evenodd" stroke="none"/>
      <path d="M13.3 -5.8 Q13.8 -2.6 12.3 -0.75 L13.3 -5.8" fill="#ffff1c" fill-rule="evenodd" stroke="none"/>
      <path d="M6.15 -7.95 Q9.3 -7.45 13.15 -5.95 13.4 -5.7 13.1 -5.5 L6.35 -7.35 -6.35 -7.35 Q-8.85 -7.6 -13.35 -5.35 L-13.3 -5.85 Q-11.5 -7.3 -6.45 -7.95 L6.15 -7.95" fill="#e6cf1c" fill-rule="evenodd" stroke="none"/>
      <path d="M12.65 -1.3 Q12.5 -1.0 12.25 -0.95 6.95 -3.0 -8.15 -1.95 L-12.5 -1.0 -12.75 -1.2 Q-2.05 -4.35 12.65 -1.3" fill="#e6cf1c" fill-rule="evenodd" stroke="none"/>
      <path d="M-9.35 -7.0 L-9.1 -7.2 -8.1 -1.95 -8.8 -1.85 -9.35 -7.0" fill="#e6cf1c" fill-rule="evenodd" stroke="none"/>
      <path d="M-3.9 -7.5 L-3.85 -7.7 -3.5 -7.6 -3.25 -2.3 -3.85 -2.35 -3.9 -7.5" fill="#e6cf1c" fill-rule="evenodd" stroke="none"/>
      <path d="M3.15 -7.55 L3.4 -7.55 3.4 -2.3 2.9 -2.45 3.15 -7.55" fill="#e6cf1c" fill-rule="evenodd" stroke="none"/>
      <path d="M7.25 -2.05 L8.15 -7.2 8.45 -7.05 7.7 -2.0 7.25 -2.05" fill="#e6cf1c" fill-rule="evenodd" stroke="none"/>
      <path d="M-9.75 -6.55 L-9.15 -2.3 -12.65 -1.55 Q-13.2 -2.75 -13.25 -4.0 L-13.15 -5.0 -9.75 -6.55" fill="#ff3d2b" fill-rule="evenodd" stroke="none"/>
      <path d="M-10.85 -6.1 Q-12.1 -1.75 -9.2 -2.3 L-12.65 -1.55 Q-13.25 -3.2 -13.25 -4.25 L-13.15 -5.0 -10.85 -6.1" fill="#892116" fill-rule="evenodd" stroke="none"/>
      <path d="M-13.15 -5.0 L-12.9 -5.2 Q-13.1 -2.75 -10.85 -1.95 L-12.6 -1.6 Q-13.3 -3.05 -13.3 -4.2 L-13.15 -5.0" fill="#59120c" fill-rule="evenodd" stroke="none"/>
      <path d="M-10.6 -6.05 L-9.9 -6.35 -9.35 -2.7 Q-10.0 -6.05 -10.6 -6.05" fill="#ffffff" fill-rule="evenodd" stroke="none"/>
      <path d="M-8.75 -6.75 L-4.1 -7.25 -4.1 -2.85 -8.05 -2.5 -8.75 -6.75" fill="#34f13f" fill-rule="evenodd" stroke="none"/>
      <path d="M-8.7 -6.7 L-5.4 -7.1 Q-8.2 -2.95 -4.3 -2.9 L-8.0 -2.5 -8.7 -6.7" fill="#1d8723" fill-rule="evenodd" stroke="none"/>
      <path d="M-8.7 -6.7 L-8.15 -6.75 Q-8.0 -3.6 -5.4 -2.8 L-8.0 -2.5 -8.7 -6.7" fill="#064412" fill-rule="evenodd" stroke="none"/>
      <path d="M-5.25 -7.05 L-4.25 -7.15 -4.2 -3.05 Q-4.35 -6.8 -5.25 -7.05" fill="#ffffff" fill-rule="evenodd" stroke="none"/>
      <path d="M2.65 -2.85 L-3.0 -2.8 -3.15 -7.2 2.95 -7.35 2.65 -2.85" fill="#00a0fa" fill-rule="evenodd" stroke="none"/>
      <path d="M-3.15 -7.2 L1.15 -7.35 Q0.1 -6.7 -0.15 -4.8 -0.4 -3.1 1.05 -2.95 L-3.0 -2.8 -3.15 -7.2" fill="#005ad2" fill-rule="evenodd" stroke="none"/>
      <path d="M-3.15 -7.2 L-1.75 -7.2 Q-3.45 -5.5 -0.05 -3.0 L-3.0 -2.8 -3.15 -7.2" fill="#002f90" fill-rule="evenodd" stroke="none"/>
      <path d="M1.45 -7.35 L2.7 -7.2 Q2.75 -3.5 2.45 -3.0 2.45 -6.9 1.45 -7.35" fill="#ffffff" fill-rule="evenodd" stroke="none"/>
      <path d="M3.65 -7.45 L7.9 -6.8 7.1 -2.3 3.6 -2.75 3.65 -7.45" fill="#34f13f" fill-rule="evenodd" stroke="none"/>
      <path d="M3.65 -7.45 L6.4 -7.05 Q3.1 -3.7 6.65 -2.35 L3.6 -2.75 3.65 -7.45" fill="#1d8723" fill-rule="evenodd" stroke="none"/>
      <path d="M3.65 -7.45 L4.2 -7.4 Q3.65 -3.3 5.9 -2.45 L3.6 -2.75 3.65 -7.45" fill="#064412" fill-rule="evenodd" stroke="none"/>
      <path d="M7.0 -3.0 Q7.55 -6.3 6.65 -7.0 L7.7 -6.7 7.0 -3.0" fill="#ffffff" fill-rule="evenodd" stroke="none"/>
      <path d="M8.5 -6.65 Q9.3 -6.6 12.9 -5.35 13.65 -3.75 12.5 -1.5 L7.95 -2.25 8.5 -6.65" fill="#ff3d2b" fill-rule="evenodd" stroke="none"/>
      <path d="M8.5 -6.65 L12.0 -5.65 Q10.7 -5.65 11.05 -3.65 L11.65 -1.7 7.95 -2.25 8.5 -6.65" fill="#892116" fill-rule="evenodd" stroke="none"/>
      <path d="M8.5 -6.65 L9.15 -6.5 Q8.05 -3.6 10.5 -1.95 L7.95 -2.25 8.5 -6.65" fill="#59120c" fill-rule="evenodd" stroke="none"/>
      <path d="M11.95 -5.5 L12.9 -5.25 Q13.3 -3.7 12.4 -1.75 13.25 -4.2 11.95 -5.5" fill="#ffffff" fill-rule="evenodd" stroke="none"/>
      <path d="M6.05 -7.65 Q6.15 -5.25 3.9 -6.6 L0.9 -6.8 0.95 -1.15 Q2.95 2.25 -0.05 2.1 -3.3 2.3 -1.15 -1.35 -0.7 -5.15 -1.0 -6.65 L-4.2 -6.2 Q-6.1 -4.95 -6.2 -7.55 L-6.05 -8.45 Q-5.55 -9.25 -3.85 -8.75 0.15 -7.1 -2.45 -9.55 -5.4 -15.9 -0.35 -16.05 L0.5 -15.95 Q1.5 -15.75 2.1 -15.15 3.95 -13.3 1.2 -8.3 L4.15 -8.9 Q6.05 -10.1 6.05 -7.65" fill="#1c140c" fill-rule="evenodd" stroke="none"/>
      <path d="M0.05 -8.85 Q1.05 -10.05 1.3 -12.25 1.2 -14.15 -0.35 -14.25 L-1.55 -13.7 Q-2.75 -11.65 -0.55 -9.0 -0.05 -8.1 0.05 -8.85 M5.25 -8.45 Q5.6 -7.7 5.35 -7.05 5.35 -6.3 4.55 -6.9 L0.4 -7.4 0.4 -1.1 Q1.7 1.55 0.5 1.35 L-1.05 1.2 Q-1.95 1.55 -0.8 -1.0 -0.2 -4.55 -0.65 -7.2 L-4.55 -6.65 Q-5.45 -5.95 -5.4 -7.2 L-5.45 -8.15 Q-5.35 -9.0 -4.4 -8.45 L-1.15 -7.95 Q-0.55 -7.85 -0.95 -8.4 -3.1 -11.35 -2.5 -13.75 L-2.1 -14.65 Q-1.5 -15.5 -0.25 -15.55 1.45 -15.75 1.95 -13.7 2.3 -11.25 0.6 -8.65 L0.4 -8.2 Q0.35 -7.8 1.0 -8.0 L4.4 -8.6 4.75 -8.8 Q5.1 -8.9 5.25 -8.45" fill="#ffff1c" fill-rule="evenodd" stroke="none"/>
      <path d="M-0.3 -9.35 Q-3.25 -13.55 -0.1 -13.85 2.4 -12.5 -0.3 -9.35" fill="#024ab1" fill-rule="evenodd" stroke="none"/>
      <path d="M-0.3 -9.35 Q-2.65 -13.4 -0.45 -13.4 L0.4 -13.3 Q-0.35 -12.95 -0.4 -11.1 L-0.3 -9.35" fill="#012c6a" fill-rule="evenodd" stroke="none"/>
      <path d="M-0.75 -8.6 Q-3.6 -13.1 -1.9 -14.65 -1.05 -15.45 0.4 -15.35 -4.05 -14.85 -0.75 -8.6" fill="#b79f11" fill-rule="evenodd" stroke="none"/>
      <path d="M-5.1 -8.35 L-4.9 -8.25 Q-5.1 -7.45 -0.55 -7.3 L-4.1 -7.2 Q-5.9 -5.55 -5.1 -8.35" fill="#b79f11" fill-rule="evenodd" stroke="none"/>
      <path d="M-0.6 -1.0 Q0.0 -2.3 -0.55 -7.3 0.45 -6.8 -0.3 -0.75 -0.8 0.75 0.7 0.95 -2.5 2.3 -0.6 -1.0" fill="#b79f11" fill-rule="evenodd" stroke="none"/>
      <path d="M0.5 -7.55 Q4.15 -7.6 5.0 -8.55 5.45 -6.35 4.45 -7.2 L0.5 -7.55" fill="#b79f11" fill-rule="evenodd" stroke="none"/>
      <path d="M1.15 -9.95 Q2.75 -15.75 -1.0 -14.5 L-0.15 -15.1 Q0.8 -15.45 1.45 -14.5 2.45 -12.5 1.15 -9.95" fill="#ffffff" fill-rule="evenodd" stroke="none"/>
      <path d="M0.75 0.75 L-0.25 -0.05 Q0.65 0.2 0.2 -1.3 0.9 0.05 0.75 0.75" fill="#ffffff" fill-rule="evenodd" stroke="none"/>
      <path d="M-4.9 -8.45 L-0.9 -7.45 Q-5.0 -7.45 -4.9 -8.45" fill="#ffffff" fill-rule="evenodd" stroke="none"/>
    </g>
  </defs>
</svg>
