<?xml version="1.0" encoding="UTF-8" standalone="no"?>
<svg xmlns:xlink="http://www.w3.org/1999/xlink" height="92.9px" width="100.7px" xmlns="http://www.w3.org/2000/svg">
  <g transform="matrix(1.0, 0.0, 0.0, 1.0, 38.65, 49.75)">
    <use height="41.6" transform="matrix(1.0, 0.0, 0.0, 1.0, -28.55, -18.55)" width="55.8" xlink:href="#shape0"/>
  </g>
  <defs>
    <g id="shape0" transform="matrix(1.0, 0.0, 0.0, 1.0, 28.55, 18.55)">
      <path d="M-16.6 16.75 L-15.9 16.95 Q-15.2 17.55 -15.1 19.15 L-15.2 19.45 -18.2 21.8 -18.3 21.8 -18.5 21.85 -18.75 21.6 Q-18.85 22.25 -19.05 22.35 L-19.35 22.5 -20.25 23.05 -20.4 23.05 -22.45 22.8 Q-24.25 22.45 -24.7 21.95 L-24.85 21.4 Q-24.65 20.35 -22.2 17.35 L-22.1 17.25 -22.0 17.25 -20.55 16.9 -20.35 16.95 -19.75 17.2 -19.75 17.1 -19.5 16.85 -19.4 16.85 -16.6 16.75" fill="#333e49" fill-rule="evenodd" stroke="none"/>
      <path d="M-18.8 20.3 L-19.45 21.8 -20.55 22.4 Q-23.65 22.4 -24.2 21.45 L-21.75 17.85 -20.5 17.55 -19.1 18.0 -19.0 17.4 -16.4 17.4 Q-15.85 17.55 -15.75 19.0 L-18.3 21.0 -18.8 20.3" fill="#ffffff" fill-rule="evenodd" stroke="none"/>
      <path d="M-17.0 19.75 L-17.8 20.45 -17.85 19.75 -18.4 20.45 -18.75 19.75 -16.1 18.35 -16.0 18.7 -15.9 18.95 -16.3 19.25 -17.0 19.75" fill="#abd9ff" fill-rule="evenodd" stroke="none"/>
      <path d="M-19.65 18.3 L-20.3 19.35 -20.95 19.75 -21.75 20.2 -22.55 20.85 -22.1 19.85 -21.9 18.9 -21.7 18.2 -21.45 17.9 -20.8 17.75 -20.6 17.65 -20.45 17.7 -19.15 18.1 -18.95 18.15 -19.0 17.7 -18.0 17.6 -16.7 17.55 -16.45 17.55 -16.35 17.75 -16.25 18.0 -16.4 18.1 -16.4 18.05 -18.6 18.7 -19.05 18.7 -19.35 18.55 -19.65 18.3" fill="#abd9ff" fill-rule="evenodd" stroke="none"/>
      <path d="M-20.5 22.4 L-22.45 22.15 Q-23.95 21.8 -24.2 21.45 -24.1 20.7 -21.75 17.8 -21.8 18.55 -22.9 21.1 -22.05 21.9 -20.5 22.4" fill="#000000" fill-rule="evenodd" stroke="none"/>
      <path d="M-21.7 20.45 Q-21.75 20.25 -20.25 19.5 L-19.75 18.4 -18.85 18.9 Q-16.55 17.9 -16.35 18.25 -16.3 18.45 -18.8 19.6 L-19.5 19.2 Q-19.6 19.95 -19.85 20.05 L-21.7 20.45" fill="#333e49" fill-rule="evenodd" stroke="none"/>
      <path d="M-20.1 11.25 L-19.6 11.75 -19.55 11.65 -19.2 11.45 -19.1 11.45 Q-18.5 11.55 -16.0 12.4 L-16.05 12.4 -15.35 12.9 Q-14.85 13.75 -15.3 15.55 L-15.55 15.8 -19.6 17.2 -19.7 17.2 -19.95 17.15 -20.1 16.9 -20.1 16.85 -20.75 17.45 -22.3 17.8 -22.45 17.75 Q-25.9 16.7 -26.6 15.0 -26.75 14.6 -26.55 14.35 -26.15 13.55 -22.3 11.0 L-22.1 10.95 -22.05 10.95 -20.35 11.15 -20.1 11.25" fill="#333e49" fill-rule="evenodd" stroke="none"/>
      <path d="M-16.1 13.15 Q-15.55 13.6 -16.0 15.15 L-19.45 16.35 -19.7 15.4 -20.95 16.75 -22.35 17.0 Q-23.0 16.8 -24.3 16.0 -25.8 15.1 -25.9 14.65 L-22.0 11.7 -20.55 11.85 -19.2 12.85 -18.9 12.25 -16.1 13.15" fill="#ffffff" fill-rule="evenodd" stroke="none"/>
      <path d="M-16.1 14.3 L-16.1 14.7 -16.15 15.05 -18.7 15.9 -18.55 15.2 -19.35 15.7 -19.45 14.85 -18.65 14.75 -17.55 14.65 -16.1 14.3" fill="#abd9ff" fill-rule="evenodd" stroke="none"/>
      <path d="M-16.35 13.85 L-18.9 13.75 -19.4 13.6 -19.65 13.3 -19.9 12.95 -20.95 13.85 -21.8 14.05 -22.85 14.25 -23.45 14.45 -23.9 14.6 -23.55 14.15 -23.05 13.7 -22.5 12.8 -22.05 12.1 -21.7 11.9 -20.9 11.9 -20.65 11.95 -20.5 12.05 -19.3 12.9 -19.05 13.05 -18.95 12.55 -17.85 12.8 -16.7 13.15 -16.15 13.3 -16.15 13.55 -16.1 13.85 -16.35 13.95 -16.35 13.85" fill="#abd9ff" fill-rule="evenodd" stroke="none"/>
      <path d="M-22.3 17.0 Q-25.5 16.1 -25.9 14.65 -25.5 13.9 -21.95 11.65 -22.3 12.45 -24.4 14.75 -23.75 15.9 -22.3 17.0" fill="#000000" fill-rule="evenodd" stroke="none"/>
      <path d="M-22.85 14.5 Q-22.9 14.3 -20.95 14.0 L-20.05 13.05 -19.25 13.9 -16.35 14.1 -19.45 14.65 -20.05 13.95 -20.7 14.75 -22.85 14.5" fill="#333e49" fill-rule="evenodd" stroke="none"/>
      <path d="M-19.35 4.25 L-19.1 4.5 -18.65 5.3 -18.55 5.2 -18.05 5.15 -17.95 5.15 -14.5 7.55 -14.55 7.55 Q-14.05 7.9 -13.9 8.45 -13.6 9.95 -14.9 11.7 L-15.3 11.9 -21.0 12.0 -21.25 11.85 -21.35 11.45 -21.35 11.4 Q-22.0 12.0 -22.35 11.9 L-24.35 11.7 -24.4 11.7 -24.55 11.6 -26.75 9.5 Q-28.5 7.55 -28.55 6.55 L-28.3 5.75 Q-27.25 4.85 -21.65 3.35 L-21.45 3.35 -19.35 4.25" fill="#333e49" fill-rule="evenodd" stroke="none"/>
      <path d="M-19.9 5.1 L-18.6 6.85 -18.0 6.2 -14.9 8.45 Q-14.4 9.2 -15.6 10.95 L-20.3 11.05 -20.25 9.75 -22.35 10.95 -24.15 10.7 -26.15 8.7 Q-27.65 6.95 -27.55 6.4 L-21.6 4.3 -19.9 5.1" fill="#ffffff" fill-rule="evenodd" stroke="none"/>
      <path d="M-19.8 9.75 L-19.7 9.25 -18.75 9.4 -17.3 9.7 -16.15 9.8 -15.4 9.85 -15.55 10.35 -15.7 10.75 -19.25 10.8 -18.7 9.95 -19.9 10.25 -19.8 9.75" fill="#abd9ff" fill-rule="evenodd" stroke="none"/>
      <path d="M-19.9 5.35 L-18.75 6.85 -18.55 7.1 -18.2 6.55 -16.95 7.3 -15.65 8.25 Q-15.5 8.35 -15.05 8.6 L-15.1 8.95 -15.25 9.35 -15.5 9.35 -15.5 9.25 Q-17.9 8.3 -18.6 8.1 L-19.2 7.7 -19.4 7.25 -19.5 6.65 -21.15 7.4 -22.3 7.25 -23.65 7.1 -25.1 7.15 -24.5 6.75 -23.75 6.35 -22.7 5.45 -21.85 4.8 Q-21.55 4.55 -21.3 4.65 L-20.05 5.1 -19.9 5.35" fill="#abd9ff" fill-rule="evenodd" stroke="none"/>
      <path d="M-24.1 10.75 L-26.15 8.75 Q-27.6 7.05 -27.55 6.4 -26.8 5.55 -21.55 4.3 -22.25 5.1 -25.75 7.1 -25.45 8.8 -24.1 10.75" fill="#000000" fill-rule="evenodd" stroke="none"/>
      <path d="M-23.8 7.45 L-21.25 7.6 Q-19.75 6.3 -19.75 6.75 L-19.05 8.1 Q-15.55 9.25 -15.65 9.55 L-19.6 8.95 Q-19.95 8.85 -20.1 7.85 -21.0 8.65 -21.25 8.55 L-23.8 7.45" fill="#333e49" fill-rule="evenodd" stroke="none"/>
      <path d="M-26.6 -2.45 L-26.05 -3.1 -18.7 -3.35 -18.45 -3.25 -16.7 -1.7 -16.55 -1.4 -16.35 -0.4 -16.2 -0.5 -15.7 -0.4 -15.6 -0.35 Q-14.5 0.75 -13.0 3.15 L-13.0 3.1 Q-12.65 3.6 -12.7 4.2 -12.8 5.7 -14.7 7.1 L-15.15 7.2 -20.85 5.45 -21.05 5.2 -21.0 4.8 -21.0 4.7 -22.2 4.9 -24.1 4.05 -24.25 3.9 -25.7 1.1 Q-26.85 -1.45 -26.6 -2.45" fill="#333e49" fill-rule="evenodd" stroke="none"/>
      <path d="M-25.55 -2.25 L-18.95 -2.35 -17.5 -1.05 -16.8 1.1 -16.0 0.7 Q-15.45 1.25 -13.65 3.9 -13.4 4.8 -15.15 6.15 L-19.85 4.7 -19.35 3.45 -21.85 3.95 -23.55 3.15 -24.9 0.45 Q-25.8 -1.7 -25.55 -2.25" fill="#ffffff" fill-rule="evenodd" stroke="none"/>
      <path d="M-14.9 5.6 L-15.2 5.9 -15.95 5.7 Q-16.85 5.3 -17.1 5.25 L-18.7 4.85 -17.95 4.15 -19.2 4.1 -18.95 3.55 -18.65 3.1 -17.75 3.6 -16.45 4.35 -14.6 5.15 -14.9 5.6" fill="#abd9ff" fill-rule="evenodd" stroke="none"/>
      <path d="M-19.35 -2.0 L-18.75 -1.95 -17.95 -1.25 -17.65 -1.05 -17.6 -0.8 -16.95 1.1 -16.8 1.4 -16.3 0.95 -15.3 2.1 -14.3 3.45 -13.85 4.0 -14.05 4.35 -14.25 4.65 -14.55 4.6 -14.5 4.5 -17.2 2.35 -17.65 1.75 -17.7 1.25 -17.65 0.65 -19.55 0.85 -20.6 0.3 -21.85 -0.3 -23.35 -0.7 -21.7 -1.05 -19.35 -2.0" fill="#abd9ff" fill-rule="evenodd" stroke="none"/>
      <path d="M-25.55 -2.25 Q-24.6 -2.75 -18.9 -2.4 -19.85 -1.8 -24.0 -0.95 -24.25 0.8 -23.5 3.15 L-24.9 0.55 Q-25.8 -1.6 -25.55 -2.25" fill="#000000" fill-rule="evenodd" stroke="none"/>
      <path d="M-22.15 0.0 Q-21.75 -0.55 -19.65 1.0 L-17.9 0.6 -17.7 2.2 Q-14.5 4.35 -14.75 4.75 -14.9 4.95 -18.5 2.85 -18.75 2.7 -18.6 1.6 L-19.95 1.95 -22.15 0.0" fill="#333e49" fill-rule="evenodd" stroke="none"/>
      <path d="M-20.6 -6.6 Q-20.9 -9.35 -20.35 -10.2 L-19.65 -10.7 Q-18.35 -10.9 -12.55 -8.75 L-12.35 -8.65 -12.3 -8.55 -11.1 -6.6 -11.05 -6.25 -11.2 -5.3 -11.0 -5.3 -10.55 -5.1 -10.5 -5.0 Q-9.9 -4.0 -9.0 -0.85 L-9.0 -0.9 Q-8.75 -0.35 -9.05 0.25 -9.55 1.45 -11.8 2.4 L-12.3 2.35 -17.1 -0.9 -17.2 -1.0 -17.3 -1.3 -17.15 -1.7 -17.1 -1.75 -18.3 -1.9 -19.9 -3.35 -20.0 -3.5 -20.6 -6.6" fill="#333e49" fill-rule="evenodd" stroke="none"/>
      <path d="M-13.05 -7.9 L-12.05 -6.25 -12.05 -3.95 -11.15 -4.1 Q-10.75 -3.35 -9.9 -0.35 -9.9 0.6 -11.95 1.35 L-16.05 -1.4 -15.2 -2.45 -17.7 -2.7 -19.05 -4.0 Q-19.4 -4.85 -19.6 -6.95 -19.8 -9.3 -19.4 -9.7 -18.15 -9.9 -13.05 -7.9" fill="#ffffff" fill-rule="evenodd" stroke="none"/>
      <path d="M-12.7 -0.75 L-11.75 0.05 -11.15 0.55 -11.6 0.9 -11.95 1.1 -13.55 -0.1 -15.0 -0.95 -14.05 -1.35 -15.25 -1.8 -14.4 -2.6 -13.7 -1.85 -12.7 -0.75" fill="#abd9ff" fill-rule="evenodd" stroke="none"/>
      <path d="M-13.55 -7.65 L-13.05 -7.45 -12.45 -6.55 -12.25 -6.3 -12.25 -6.0 -12.2 -4.05 -12.15 -3.7 -11.55 -4.0 -10.95 -2.55 -10.35 -1.0 -10.1 -0.3 -10.35 -0.05 -10.7 0.2 -10.9 0.0 -10.85 -0.05 -12.8 -2.9 -13.05 -3.55 -12.95 -4.1 -12.7 -4.65 -14.6 -5.0 -16.5 -6.8 -17.2 -7.25 -17.75 -7.6 -17.0 -7.6 -16.1 -7.45 -14.7 -7.6 -13.55 -7.65" fill="#abd9ff" fill-rule="evenodd" stroke="none"/>
      <path d="M-19.1 -3.95 Q-19.45 -4.95 -19.6 -6.9 -19.85 -9.2 -19.4 -9.7 -18.3 -9.95 -13.0 -7.9 L-18.3 -8.05 Q-19.05 -6.4 -19.1 -3.95" fill="#000000" fill-rule="evenodd" stroke="none"/>
      <path d="M-16.8 -6.6 Q-16.3 -6.95 -14.75 -4.9 L-12.95 -4.75 -13.2 -3.15 Q-10.9 -0.1 -11.15 0.1 -11.35 0.3 -14.2 -2.75 L-13.95 -4.0 -15.35 -4.05 -16.8 -6.6" fill="#333e49" fill-rule="evenodd" stroke="none"/>
      <path d="M-13.65 -15.2 Q-13.3 -15.6 -12.85 -15.6 -11.55 -15.55 -6.15 -12.55 L-6.0 -12.35 -5.95 -12.3 -5.1 -10.15 -5.1 -9.85 -5.4 -8.85 -5.2 -8.85 -4.8 -8.6 -4.75 -8.45 Q-4.25 -7.25 -3.95 -4.2 -3.8 -3.6 -4.15 -3.1 -4.9 -1.85 -7.25 -1.4 L-7.7 -1.5 -12.0 -5.6 -12.05 -5.9 -11.85 -6.25 -11.8 -6.3 Q-12.75 -6.35 -12.95 -6.65 L-14.25 -8.3 -14.3 -8.35 -14.35 -8.5 -14.45 -11.7 Q-14.35 -14.4 -13.65 -15.2" fill="#333e49" fill-rule="evenodd" stroke="none"/>
      <path d="M-12.25 -7.35 L-13.35 -8.85 Q-13.55 -9.75 -13.4 -11.85 -13.25 -14.2 -12.8 -14.55 -11.55 -14.5 -6.8 -11.75 L-6.1 -9.95 -6.45 -7.7 -5.55 -7.7 Q-5.2 -6.75 -4.9 -3.8 -5.05 -2.9 -7.2 -2.45 L-10.8 -5.85 -9.8 -6.75 -12.25 -7.35" fill="#ffffff" fill-rule="evenodd" stroke="none"/>
      <path d="M-9.0 -6.75 L-8.4 -5.9 -7.6 -4.65 -6.8 -3.7 -6.3 -3.1 -6.75 -2.85 -7.15 -2.7 -8.55 -4.1 -9.85 -5.2 -8.8 -5.45 -9.95 -6.1 -9.45 -6.45 -9.0 -6.75" fill="#abd9ff" fill-rule="evenodd" stroke="none"/>
      <path d="M-10.75 -12.1 L-9.9 -11.8 -8.45 -11.7 -7.35 -11.6 Q-7.05 -11.6 -6.85 -11.3 L-6.4 -10.3 -6.25 -10.05 Q-6.2 -9.95 -6.3 -9.75 L-6.6 -7.8 -6.6 -7.45 -5.95 -7.65 -5.55 -6.15 -5.1 -3.8 -5.4 -3.6 Q-5.65 -3.35 -5.75 -3.4 L-5.95 -3.6 -5.9 -3.65 -7.35 -6.75 Q-7.6 -7.15 -7.5 -7.5 L-7.3 -8.0 -7.0 -8.5 -8.75 -9.15 -9.5 -10.1 -10.35 -11.2 -11.0 -11.8 -11.5 -12.2 -10.75 -12.1" fill="#abd9ff" fill-rule="evenodd" stroke="none"/>
      <path d="M-13.4 -8.85 L-13.45 -11.8 Q-13.3 -14.1 -12.8 -14.55 -11.7 -14.65 -6.75 -11.75 L-11.95 -12.75 Q-13.0 -11.25 -13.4 -8.85" fill="#000000" fill-rule="evenodd" stroke="none"/>
      <path d="M-10.75 -11.05 Q-10.35 -11.3 -8.95 -9.1 L-7.2 -8.6 -7.75 -7.1 Q-5.55 -3.8 -6.2 -3.55 -6.45 -3.4 -8.75 -6.85 -8.9 -7.15 -8.3 -8.05 L-9.65 -8.35 -10.75 -11.05" fill="#333e49" fill-rule="evenodd" stroke="none"/>
      <path d="M20.75 16.3 L20.8 16.3 20.9 16.4 Q23.45 19.9 23.55 20.45 L23.4 21.0 Q22.95 21.5 21.2 21.85 L19.1 22.1 18.95 22.1 18.05 21.55 17.75 21.4 17.45 20.7 17.4 20.7 17.2 20.9 17.0 20.85 16.9 20.85 13.9 18.5 13.8 18.2 14.55 16.0 15.25 15.8 15.3 15.8 18.15 15.9 18.2 15.9 18.45 16.15 18.45 16.25 19.05 16.0 19.25 15.95 20.75 16.3" fill="#333e49" fill-rule="evenodd" stroke="none"/>
      <path d="M22.9 20.5 Q22.35 21.45 19.25 21.45 L18.15 20.85 17.5 19.35 17.0 20.05 14.45 18.1 15.1 16.45 17.7 16.5 Q18.0 16.55 17.8 17.1 L19.2 16.6 20.45 16.9 22.9 20.5" fill="#ffffff" fill-rule="evenodd" stroke="none"/>
      <path d="M20.4 17.3 L20.8 18.9 21.1 19.45 21.25 19.9 20.45 19.25 18.95 18.45 18.35 17.35 18.05 17.6 17.75 17.75 17.25 17.75 15.1 17.1 15.1 17.15 14.95 17.05 15.0 16.8 15.15 16.6 16.7 16.65 17.7 16.75 17.65 17.2 17.85 17.15 19.1 16.75 19.3 16.7 19.5 16.8 20.15 17.0 20.4 17.3" fill="#abd9ff" fill-rule="evenodd" stroke="none"/>
      <path d="M19.2 21.45 L21.6 20.15 Q20.5 17.6 20.45 16.85 22.8 19.75 22.9 20.5 22.2 21.7 19.2 21.45" fill="#000000" fill-rule="evenodd" stroke="none"/>
      <path d="M20.4 19.5 L18.55 19.1 Q18.3 19.0 18.2 18.25 L17.5 18.65 15.05 17.3 Q15.25 16.95 17.55 17.95 L18.45 17.45 18.95 18.55 20.4 19.5" fill="#333e49" fill-rule="evenodd" stroke="none"/>
      <path d="M15.4 17.9 L16.45 18.45 18.0 18.6 18.25 19.35 19.05 19.6 Q20.8 19.8 21.1 20.15 20.25 21.0 19.65 21.0 L18.25 20.7 17.65 19.1 17.0 19.7 16.1 18.95 14.6 17.9 14.75 17.6 15.4 17.9" fill="#abd9ff" fill-rule="evenodd" stroke="none"/>
      <path d="M25.25 13.4 Q25.45 13.65 25.3 14.05 24.75 15.4 21.15 16.85 L20.95 16.85 19.45 16.55 18.8 15.9 18.8 15.95 18.65 16.2 18.4 16.25 18.3 16.25 14.25 14.85 14.0 14.6 Q13.55 12.8 14.05 11.95 14.25 11.6 14.75 11.45 L14.7 11.45 17.8 10.5 17.9 10.5 18.25 10.7 18.3 10.8 18.85 10.3 19.05 10.2 20.75 10.0 20.8 10.0 20.95 10.05 Q24.7 12.35 25.25 13.4" fill="#333e49" fill-rule="evenodd" stroke="none"/>
      <path d="M23.0 15.05 Q21.7 15.85 21.05 16.05 L19.65 15.8 18.4 14.45 18.15 15.4 14.7 14.2 14.8 12.2 Q16.9 11.4 17.6 11.3 17.9 11.25 17.9 11.9 L19.25 10.9 20.65 10.75 24.6 13.7 Q24.5 14.15 23.0 15.05" fill="#ffffff" fill-rule="evenodd" stroke="none"/>
      <path d="M22.25 13.25 L22.6 13.7 22.1 13.5 21.55 13.3 20.5 13.1 19.65 12.95 Q18.85 11.8 18.6 12.0 L18.35 12.35 18.1 12.65 17.6 12.8 15.05 12.95 15.05 13.0 14.8 12.95 14.8 12.6 14.85 12.35 15.35 12.2 16.55 11.85 17.7 11.6 17.75 12.1 18.0 11.95 19.2 11.1 19.35 11.0 20.4 10.95 Q20.65 10.95 20.75 11.15 L21.2 11.85 21.75 12.75 22.25 13.25" fill="#abd9ff" fill-rule="evenodd" stroke="none"/>
      <path d="M21.0 16.05 Q22.45 15.0 23.1 13.8 21.0 11.5 20.65 10.7 24.2 12.95 24.6 13.7 24.45 14.2 23.0 15.1 L21.0 16.05" fill="#000000" fill-rule="evenodd" stroke="none"/>
      <path d="M21.55 13.6 L19.4 13.8 18.75 13.0 18.15 13.7 15.05 13.15 17.95 12.95 18.75 12.1 19.65 13.05 Q21.55 13.3 21.55 13.6" fill="#333e49" fill-rule="evenodd" stroke="none"/>
      <path d="M22.5 13.8 L21.2 15.6 20.2 15.7 19.65 15.6 19.3 15.15 Q18.95 14.45 18.25 14.25 L18.0 14.8 17.7 15.05 16.6 14.6 15.35 14.2 Q15.0 14.05 15.0 13.5 L16.15 13.7 17.75 14.05 18.25 14.05 18.7 13.35 Q18.95 13.95 19.35 14.1 L20.5 14.0 22.5 13.8" fill="#abd9ff" fill-rule="evenodd" stroke="none"/>
      <path d="M20.35 2.4 Q25.95 3.9 27.0 4.8 27.3 5.1 27.25 5.6 27.2 6.6 25.45 8.55 L23.25 10.65 23.1 10.75 23.05 10.75 21.5 10.9 21.05 11.0 Q20.65 11.0 20.05 10.45 L20.05 10.5 19.95 10.9 19.7 11.05 14.0 10.95 13.6 10.75 Q12.3 9.0 12.6 7.5 12.75 6.9 13.25 6.6 L13.2 6.65 Q15.5 4.75 16.65 4.25 L16.75 4.2 17.25 4.25 17.35 4.4 17.8 3.55 18.05 3.3 20.15 2.4 20.35 2.4" fill="#333e49" fill-rule="evenodd" stroke="none"/>
      <path d="M26.25 5.45 Q26.35 6.0 24.85 7.75 L22.8 9.75 21.05 10.0 Q20.85 10.05 18.95 8.8 L19.0 10.1 14.3 10.0 13.75 9.05 Q13.3 7.95 13.6 7.5 L16.7 5.3 Q17.05 5.1 17.3 5.9 L18.6 4.15 20.3 3.4 26.25 5.45" fill="#ffffff" fill-rule="evenodd" stroke="none"/>
      <path d="M20.55 3.85 L21.4 4.5 22.45 5.4 23.2 5.8 23.8 6.2 23.35 6.15 22.35 6.15 21.0 6.3 19.85 6.45 Q18.45 5.35 18.2 5.7 L18.05 6.3 17.85 6.75 17.3 7.15 14.2 8.3 14.2 8.4 13.9 8.4 13.8 8.0 13.75 7.65 14.35 7.3 15.65 6.35 16.9 5.6 17.25 6.15 17.45 5.9 18.6 4.4 18.75 4.2 20.0 3.7 20.55 3.85" fill="#abd9ff" fill-rule="evenodd" stroke="none"/>
      <path d="M22.8 9.8 Q24.15 7.85 24.45 6.15 20.95 4.15 20.25 3.35 25.5 4.6 26.25 5.45 26.3 6.1 24.85 7.8 L22.8 9.8" fill="#000000" fill-rule="evenodd" stroke="none"/>
      <path d="M22.5 6.5 Q22.55 6.75 19.95 7.65 19.7 7.65 18.8 6.9 18.65 7.9 18.3 8.0 L14.35 8.6 Q14.25 8.3 17.75 7.15 L18.45 5.8 19.95 6.65 22.5 6.5" fill="#333e49" fill-rule="evenodd" stroke="none"/>
      <path d="M22.15 9.6 L21.2 9.75 Q20.85 9.75 20.4 9.4 L19.65 8.8 18.95 8.25 18.75 9.0 18.65 9.8 17.1 9.75 15.95 9.75 14.9 9.55 14.7 9.55 14.4 9.55 14.25 8.8 14.35 8.9 15.65 8.95 17.25 8.8 18.55 8.5 18.95 7.3 19.9 7.95 20.95 7.5 24.0 6.3 Q24.05 7.35 23.1 8.95 22.65 9.65 22.15 9.6" fill="#abd9ff" fill-rule="evenodd" stroke="none"/>
      <path d="M15.4 -2.65 L17.15 -4.2 17.4 -4.3 24.75 -4.05 25.25 -3.4 Q25.5 -2.35 24.4 0.15 23.55 2.15 22.95 2.95 L22.8 3.05 22.8 3.1 20.85 3.95 19.7 3.8 19.7 3.85 19.75 4.25 19.55 4.5 13.85 6.25 13.4 6.15 Q11.5 4.75 11.4 3.25 11.3 2.65 11.65 2.2 13.35 -0.35 14.3 -1.3 L14.4 -1.35 14.9 -1.45 15.05 -1.35 15.25 -2.35 15.4 -2.65" fill="#333e49" fill-rule="evenodd" stroke="none"/>
      <path d="M23.6 -0.5 L22.2 2.2 20.55 3.05 18.05 2.5 18.55 3.75 13.85 5.2 13.0 4.4 Q12.2 3.5 12.35 2.95 L14.7 -0.25 Q15.0 -0.55 15.5 0.2 L16.2 -2.0 17.65 -3.3 24.25 -3.2 Q24.5 -2.65 23.6 -0.5" fill="#ffffff" fill-rule="evenodd" stroke="none"/>
      <path d="M19.3 -0.65 Q18.5 -0.1 18.25 -0.1 L16.35 -0.3 16.4 0.3 16.35 0.85 15.9 1.4 13.2 3.55 13.25 3.65 12.95 3.7 12.75 3.4 12.55 3.05 13.0 2.5 14.0 1.15 15.0 0.0 15.5 0.45 15.65 0.15 16.3 -1.75 16.35 -2.0 16.65 -2.2 17.45 -2.9 18.05 -2.9 20.4 -2.0 22.05 -1.65 20.55 -1.25 19.3 -0.65" fill="#abd9ff" fill-rule="evenodd" stroke="none"/>
      <path d="M23.6 -0.4 Q22.8 1.55 22.2 2.2 22.95 -0.1 22.7 -1.9 18.55 -2.75 17.6 -3.35 23.3 -3.7 24.25 -3.2 24.5 -2.55 23.6 -0.4" fill="#000000" fill-rule="evenodd" stroke="none"/>
      <path d="M18.65 1.0 L17.3 0.65 Q17.45 1.7 17.2 1.95 L13.45 3.8 Q13.2 3.4 16.4 1.25 L16.6 -0.3 18.35 0.05 Q20.55 -1.35 20.85 -0.95 21.0 -0.7 18.65 1.0" fill="#333e49" fill-rule="evenodd" stroke="none"/>
      <path d="M20.45 2.65 L19.55 2.5 17.75 2.35 Q18.35 3.1 18.15 3.5 L17.4 3.9 16.0 4.2 14.75 4.45 14.05 4.7 Q13.7 4.7 13.4 4.0 L13.5 4.05 15.25 3.25 17.05 2.55 17.6 1.95 17.6 1.1 18.85 1.3 19.65 0.7 20.3 0.0 22.3 -1.5 21.9 1.35 21.8 1.9 21.2 2.3 20.45 2.65" fill="#abd9ff" fill-rule="evenodd" stroke="none"/>
      <path d="M7.75 -0.7 Q7.45 -1.3 7.7 -1.85 L7.7 -1.8 Q8.65 -5.05 9.2 -5.9 L9.25 -6.05 9.7 -6.25 9.9 -6.2 9.75 -7.2 9.8 -7.55 11.0 -9.5 11.05 -9.6 11.25 -9.7 Q16.95 -11.8 18.35 -11.65 18.75 -11.65 19.05 -11.15 19.6 -10.3 19.3 -7.55 L18.7 -4.45 18.6 -4.3 17.0 -2.85 15.8 -2.7 15.85 -2.65 16.0 -2.25 15.9 -1.95 15.8 -1.85 11.0 1.4 10.5 1.45 Q8.25 0.5 7.75 -0.7" fill="#333e49" fill-rule="evenodd" stroke="none"/>
      <path d="M9.85 -5.05 L10.75 -4.9 10.75 -7.15 11.75 -8.85 18.1 -10.65 Q18.5 -10.25 18.3 -7.9 18.1 -5.8 17.75 -4.95 L16.4 -3.65 13.9 -3.4 14.75 -2.35 10.65 0.4 Q8.6 -0.35 8.6 -1.3 9.45 -4.3 9.85 -5.05" fill="#ffffff" fill-rule="evenodd" stroke="none"/>
      <path d="M9.55 -1.0 L9.6 -0.9 Q9.5 -0.75 9.35 -0.75 L9.05 -1.0 8.8 -1.25 9.05 -1.95 9.65 -3.5 10.25 -4.9 10.85 -4.65 10.9 -4.95 10.95 -6.95 10.95 -7.25 11.15 -7.5 11.75 -8.4 12.25 -8.6 13.35 -8.55 14.8 -8.4 15.7 -8.55 16.45 -8.55 15.9 -8.2 15.2 -7.75 14.15 -6.8 13.25 -5.95 11.4 -5.6 11.65 -5.05 11.75 -4.5 11.5 -3.85 9.55 -1.0" fill="#abd9ff" fill-rule="evenodd" stroke="none"/>
      <path d="M17.8 -4.9 Q17.75 -7.35 17.0 -9.0 L11.7 -8.85 Q17.0 -10.9 18.1 -10.65 18.55 -10.15 18.3 -7.85 L17.8 -4.9" fill="#000000" fill-rule="evenodd" stroke="none"/>
      <path d="M15.5 -7.5 Q15.75 -7.35 14.05 -5.0 L12.6 -4.95 Q13.1 -4.05 12.9 -3.7 10.05 -0.65 9.85 -0.8 9.6 -1.05 11.9 -4.1 L11.65 -5.7 13.45 -5.85 Q15.05 -7.95 15.5 -7.5" fill="#333e49" fill-rule="evenodd" stroke="none"/>
      <path d="M17.2 -6.55 L17.35 -5.4 Q17.3 -4.75 16.5 -4.05 L15.15 -3.85 13.45 -3.65 14.2 -2.45 13.05 -1.65 11.45 -0.6 10.5 0.0 9.95 -0.35 10.4 -0.9 10.2 -0.7 12.1 -2.5 Q13.35 -3.55 13.05 -4.6 L14.05 -4.8 14.95 -5.9 16.6 -8.05 17.2 -6.55" fill="#abd9ff" fill-rule="evenodd" stroke="none"/>
      <path d="M12.35 -16.15 Q13.05 -15.35 13.15 -12.65 L13.05 -9.45 13.0 -9.3 12.95 -9.25 11.65 -7.6 Q11.45 -7.3 10.5 -7.25 L10.55 -7.2 10.75 -6.85 10.7 -6.55 6.4 -2.45 5.95 -2.35 Q3.6 -2.8 2.85 -4.05 2.5 -4.55 2.65 -5.15 2.95 -8.2 3.45 -9.4 L3.5 -9.55 3.9 -9.8 4.1 -9.8 3.8 -10.75 3.8 -11.1 4.65 -13.25 4.7 -13.3 4.85 -13.5 Q10.25 -16.5 11.55 -16.55 12.0 -16.55 12.35 -16.15" fill="#333e49" fill-rule="evenodd" stroke="none"/>
      <path d="M12.1 -12.8 Q12.25 -10.7 12.05 -9.8 L10.95 -8.3 8.5 -7.7 9.5 -6.75 5.9 -3.4 Q3.75 -3.8 3.6 -4.75 3.9 -7.7 4.25 -8.65 L5.15 -8.65 4.8 -10.9 5.5 -12.7 11.5 -15.5 Q11.95 -15.15 12.1 -12.8" fill="#ffffff" fill-rule="evenodd" stroke="none"/>
      <path d="M8.6 -12.75 L9.45 -13.05 10.2 -13.15 9.7 -12.75 9.05 -12.15 8.2 -11.05 7.45 -10.1 5.7 -9.45 6.0 -8.95 6.2 -8.45 6.05 -7.7 4.6 -4.6 4.65 -4.55 4.45 -4.35 4.1 -4.55 3.8 -4.75 3.95 -5.45 4.25 -7.1 4.65 -8.6 5.3 -8.4 5.3 -8.75 5.0 -10.7 4.95 -10.95 5.55 -12.25 6.05 -12.55 8.6 -12.75" fill="#abd9ff" fill-rule="evenodd" stroke="none"/>
      <path d="M12.1 -9.8 Q11.7 -12.2 10.65 -13.7 6.55 -12.6 5.45 -12.7 10.4 -15.6 11.5 -15.5 12.0 -15.05 12.15 -12.75 L12.1 -9.8" fill="#000000" fill-rule="evenodd" stroke="none"/>
      <path d="M9.45 -12.0 Q9.65 -11.85 8.35 -9.3 8.25 -9.0 7.0 -9.0 L7.45 -7.8 Q5.15 -4.35 4.9 -4.45 4.3 -4.8 6.45 -8.05 L5.9 -9.55 7.65 -10.05 Q9.05 -12.25 9.45 -12.0" fill="#333e49" fill-rule="evenodd" stroke="none"/>
      <path d="M10.0 -11.65 L10.5 -12.5 11.4 -10.65 11.65 -9.85 Q11.55 -9.35 10.55 -8.4 9.1 -8.4 8.55 -7.9 8.25 -7.6 8.5 -7.15 L8.55 -6.35 7.15 -5.0 5.75 -3.7 5.1 -4.2 5.35 -4.35 6.45 -5.7 7.5 -7.4 7.75 -8.1 7.3 -8.65 8.45 -9.1 9.0 -9.95 10.0 -11.65" fill="#abd9ff" fill-rule="evenodd" stroke="none"/>
      <path d="M0.0 -13.2 L0.2 -10.9 0.1 -10.6 -0.45 -9.75 -0.3 -9.7 0.05 -9.3 0.05 -9.2 Q0.15 -8.0 -0.4 -4.85 L-0.4 -4.9 Q-0.5 -4.25 -0.9 -3.85 -2.25 -2.7 -4.4 -3.15 -4.65 -3.15 -4.75 -3.4 L-7.7 -8.55 -7.7 -8.85 -7.4 -9.15 -7.35 -9.15 -8.35 -9.85 -9.1 -11.8 -9.15 -11.85 -9.15 -12.0 -8.35 -15.05 Q-7.4 -17.65 -6.5 -18.2 L-5.65 -18.35 Q-4.25 -17.9 -0.15 -13.5 L0.0 -13.2" fill="#333e49" fill-rule="evenodd" stroke="none"/>
      <path d="M-7.25 -14.95 Q-6.45 -17.15 -5.9 -17.35 -4.7 -16.95 -1.0 -12.95 L-0.85 -11.0 -1.8 -8.95 -0.95 -8.7 Q-0.85 -7.8 -1.45 -4.75 -1.85 -3.95 -4.05 -4.15 L-6.5 -8.4 -5.3 -9.0 -7.45 -10.3 -8.1 -12.05 -7.25 -14.95" fill="#ffffff" fill-rule="evenodd" stroke="none"/>
      <path d="M-3.8 -6.35 L-2.95 -4.5 -3.5 -4.4 -3.95 -4.35 -4.85 -6.15 -5.75 -7.55 -4.7 -7.5 -5.6 -8.45 -5.05 -8.6 -4.55 -8.75 -4.2 -7.8 -3.8 -6.35" fill="#abd9ff" fill-rule="evenodd" stroke="none"/>
      <path d="M-1.15 -12.5 L-0.95 -11.15 -1.05 -10.9 -1.9 -9.1 -2.0 -8.75 -1.35 -8.75 -1.4 -7.2 -1.6 -5.55 -1.65 -4.85 -2.0 -4.7 -2.4 -4.6 -2.55 -4.9 -2.45 -4.9 -2.95 -8.3 -2.9 -9.05 -2.1 -9.9 -3.6 -11.0 -4.05 -12.1 -4.55 -13.45 -5.0 -14.15 -5.35 -14.75 -4.65 -14.4 -3.95 -13.9 Q-3.1 -13.5 -2.55 -13.4 L-1.55 -12.95 -1.15 -12.5" fill="#abd9ff" fill-rule="evenodd" stroke="none"/>
      <path d="M-8.1 -12.05 L-7.35 -14.9 Q-6.55 -17.1 -5.9 -17.35 -4.9 -17.2 -0.95 -12.95 -4.8 -15.2 -5.65 -15.35 L-8.1 -12.05" fill="#000000" fill-rule="evenodd" stroke="none"/>
      <path d="M-4.95 -13.4 Q-4.6 -13.45 -3.8 -11.0 -1.9 -10.05 -2.3 -10.05 L-3.2 -8.75 Q-2.45 -4.95 -2.75 -4.9 -3.05 -4.8 -4.25 -8.8 L-3.45 -9.8 -4.7 -10.5 -4.95 -13.4" fill="#333e49" fill-rule="evenodd" stroke="none"/>
      <path d="M0.8 -16.7 Q2.8 -18.5 3.85 -18.55 L4.7 -18.3 Q5.8 -17.1 7.2 -11.4 L7.25 -11.2 6.3 -9.0 6.05 -8.75 5.2 -8.3 5.3 -8.15 5.4 -7.65 5.35 -7.55 Q4.95 -6.5 2.85 -3.95 L2.9 -4.0 1.95 -3.3 Q1.15 -3.1 -0.15 -3.65 L-1.4 -4.3 -1.65 -4.7 -1.8 -10.65 -1.65 -10.9 -1.25 -11.05 -1.15 -11.05 Q-1.8 -11.75 -1.7 -12.1 L-1.5 -14.2 -1.5 -14.25 -1.4 -14.4 0.8 -16.7" fill="#333e49" fill-rule="evenodd" stroke="none"/>
      <path d="M4.0 -17.55 Q4.85 -16.65 6.2 -11.35 L5.45 -9.55 3.6 -8.2 Q4.45 -7.95 4.25 -7.55 4.0 -6.9 1.95 -4.35 L0.35 -4.5 -0.65 -5.05 -0.8 -9.95 0.55 -9.9 -0.7 -12.05 -0.45 -13.95 1.65 -16.05 Q3.45 -17.6 4.0 -17.55" fill="#ffffff" fill-rule="evenodd" stroke="none"/>
      <path d="M0.65 -6.85 L0.45 -4.85 -0.05 -5.0 -0.45 -5.2 -0.45 -7.2 -0.55 -8.85 0.35 -8.3 0.0 -9.55 0.6 -9.45 1.1 -9.35 0.95 -8.3 0.65 -6.85" fill="#abd9ff" fill-rule="evenodd" stroke="none"/>
      <path d="M3.25 -15.0 L3.7 -14.35 4.1 -13.55 5.7 -11.6 5.85 -11.05 5.4 -9.7 5.2 -9.55 3.6 -8.35 3.35 -8.15 3.95 -7.8 3.15 -6.5 2.2 -5.1 1.8 -4.5 1.45 -4.55 1.05 -4.65 1.05 -4.95 1.1 -4.95 2.3 -8.2 2.7 -8.8 3.2 -9.0 3.8 -9.15 Q4.15 -9.45 3.0 -10.9 L3.15 -12.05 3.35 -13.45 3.25 -15.0" fill="#abd9ff" fill-rule="evenodd" stroke="none"/>
      <path d="M1.55 -16.05 Q3.3 -17.6 4.0 -17.55 4.8 -16.85 6.25 -11.3 3.95 -15.15 3.3 -15.7 L-0.5 -13.95 1.55 -16.05" fill="#000000" fill-rule="evenodd" stroke="none"/>
      <path d="M2.95 -13.6 Q3.55 -13.5 2.8 -10.95 4.15 -9.4 3.7 -9.4 L2.3 -8.7 Q1.2 -4.95 0.8 -5.1 L1.4 -9.25 Q1.5 -9.6 2.55 -9.75 1.7 -10.7 1.8 -10.95 L2.95 -13.6" fill="#333e49" fill-rule="evenodd" stroke="none"/>
      <path d="M0.6 -6.3 L1.45 -6.5 2.1 -6.25 2.95 -6.5 3.85 -5.95 Q4.5 -6.45 4.95 -6.2 5.4 -6.1 5.8 -5.2 L6.7 -5.3 Q7.3 -5.1 7.75 -4.2 L8.5 -4.25 9.1 -3.8 9.7 -3.7 10.0 -2.9 10.0 -2.8 10.95 -2.55 Q11.35 -2.15 11.35 -1.6 L11.3 -1.45 11.85 -0.95 12.05 -0.15 12.0 0.05 12.65 0.35 12.85 1.0 12.75 1.2 13.35 1.5 13.6 2.15 13.5 2.4 14.2 3.1 14.3 3.6 13.9 4.75 14.2 5.5 14.05 6.1 Q13.55 6.95 12.75 6.65 L12.3 6.4 Q-1.0 -1.65 -11.5 6.6 -11.65 7.1 -12.1 7.3 -13.5 7.85 -16.45 6.1 L-16.7 5.65 -16.65 5.5 -16.75 5.25 -16.5 4.3 -15.95 3.6 -16.1 3.15 Q-16.1 2.6 -15.75 2.2 -15.5 1.95 -15.05 1.8 L-15.15 1.5 -14.85 0.65 Q-14.55 0.25 -13.85 0.05 L-13.85 -0.05 Q-13.85 -0.7 -13.35 -1.15 L-12.6 -1.55 Q-12.5 -2.2 -11.95 -2.5 L-10.95 -2.6 Q-10.8 -3.4 -10.35 -3.6 L-9.05 -3.55 -8.5 -4.4 -7.4 -4.55 Q-7.15 -5.3 -6.55 -5.4 L-5.65 -5.3 Q-5.45 -6.15 -4.8 -6.3 -4.35 -6.45 -3.65 -5.95 -3.5 -6.7 -2.8 -7.05 L-1.4 -6.9 Q-0.95 -7.4 -0.55 -7.3 0.15 -7.15 0.6 -6.3" fill="#333e49" fill-rule="evenodd" stroke="none"/>
      <path d="M-10.2 -1.45 Q-10.35 -2.4 -9.5 -2.65 -8.7 -2.9 -8.35 -2.45 -8.5 -3.15 -7.9 -3.55 L-6.9 -3.6 Q-6.9 -4.15 -6.1 -4.4 L-5.25 -4.3 Q-5.0 -5.3 -4.2 -5.25 -3.45 -5.2 -3.1 -4.6 -3.2 -5.8 -2.35 -5.95 -1.5 -6.1 -1.25 -5.45 -0.8 -6.45 -0.25 -6.2 0.2 -6.05 0.3 -5.35 L0.85 -5.45 Q1.5 -5.45 2.0 -4.85 2.25 -5.5 2.95 -5.4 3.65 -5.35 3.7 -4.6 4.3 -5.45 4.9 -5.1 5.5 -4.8 5.4 -3.85 6.05 -4.85 6.75 -4.3 7.4 -3.8 7.4 -2.9 7.85 -3.65 8.2 -3.3 L8.5 -2.55 Q9.6 -3.25 9.15 -1.75 L10.2 -1.8 Q10.6 -1.45 10.3 -0.8 10.95 -0.8 11.15 -0.2 11.4 0.35 11.1 0.9 12.7 0.35 11.8 1.85 13.35 1.2 12.4 2.8 13.25 2.75 13.5 3.6 13.8 4.4 13.25 4.8 13.8 5.15 13.65 5.75 13.45 6.35 12.95 6.2 9.35 3.75 4.7 2.65 -4.5 0.4 -11.85 6.25 L-15.65 6.15 -16.15 5.55 Q-16.15 4.85 -15.65 4.35 -15.2 3.9 -14.85 4.0 -15.3 3.4 -14.85 2.75 -14.45 2.15 -14.0 2.5 -14.5 1.75 -13.9 1.1 -13.35 0.55 -12.85 0.75 -13.15 0.15 -12.6 -0.45 -12.1 -0.95 -11.7 -0.75 -11.85 -1.4 -11.15 -1.7 -10.45 -2.0 -10.2 -1.45" fill="#ffffff" fill-rule="evenodd" stroke="none"/>
      <path d="M4.6 -1.7 Q3.35 -4.15 2.0 -4.85 2.1 -5.65 2.9 -5.5 3.65 -5.35 3.7 -4.6 4.3 -5.45 4.9 -5.1 5.5 -4.8 5.4 -3.85 6.05 -4.85 6.75 -4.3 7.4 -3.8 7.4 -2.9 7.85 -3.65 8.2 -3.3 L8.5 -2.55 Q9.6 -3.25 9.15 -1.75 L10.2 -1.8 Q10.6 -1.45 10.3 -0.8 10.95 -0.8 11.15 -0.2 11.4 0.35 11.1 0.9 12.7 0.35 11.8 1.85 13.35 1.2 12.4 2.8 13.25 2.75 13.5 3.6 13.8 4.4 13.25 4.8 13.8 5.15 13.65 5.75 13.45 6.35 12.95 6.2 9.9 4.15 5.9 2.95 L5.9 2.65 Q5.85 0.6 4.6 -1.7" fill="#abd9ff" fill-rule="evenodd" stroke="none"/>
      <path d="M-4.4 -1.8 Q1.35 -3.35 5.1 -1.1 5.95 -0.05 6.0 0.8 L5.9 2.95 Q-4.0 0.05 -11.85 6.25 L-15.65 6.15 -16.15 5.55 Q-14.7 2.7 -11.95 3.5 -10.05 -0.25 -4.4 -1.8" fill="#abd9ff" fill-rule="evenodd" stroke="none"/>
      <path d="M13.1 8.25 L11.95 10.3 11.55 10.55 Q11.35 10.55 11.15 10.35 7.95 6.15 0.95 5.45 -6.25 4.8 -12.55 10.3 L-12.95 10.45 -13.3 10.15 -14.4 7.55 -14.35 7.05 Q-6.35 -3.7 3.1 -1.05 7.0 0.1 10.15 3.25 13.0 6.1 13.15 8.0 L13.1 8.25" fill="#4f0000" fill-rule="evenodd" stroke="none"/>
      <path d="M-13.35 7.45 Q-5.6 -3.1 3.85 0.3 7.15 1.45 9.8 4.1 12.1 6.4 12.2 7.85 L11.55 9.35 Q8.7 5.7 2.3 4.65 -5.85 3.3 -12.65 9.15 L-13.35 7.45" fill="#d80000" fill-rule="evenodd" stroke="none"/>
      <path d="M10.3 4.7 L11.15 8.9 Q11.15 9.3 10.8 9.3 10.4 9.3 10.4 8.9 L10.1 5.45 Q8.65 6.8 7.8 6.5 7.7 6.5 6.95 4.9 L5.95 2.35 Q4.4 4.95 3.55 4.95 0.2 1.45 -0.4 0.45 -0.85 1.5 -3.25 4.6 L-6.95 2.45 -7.9 4.85 -8.75 6.45 Q-9.6 6.9 -11.0 5.8 -11.15 6.7 -11.85 8.7 -11.85 9.1 -12.1 9.05 -12.5 9.05 -12.4 8.65 L-11.35 4.95 Q-10.7 4.65 -9.0 5.8 L-8.1 3.35 -7.2 1.5 -5.5 2.4 Q-3.85 3.4 -3.4 3.85 L-1.8 1.4 -0.4 -0.45 3.6 3.95 4.95 2.3 6.05 1.3 7.05 3.0 8.05 5.45 Q9.25 4.35 10.3 4.7" fill="#ffc200" fill-rule="evenodd" stroke="none"/>
      <path d="M10.15 8.0 Q9.1 7.2 7.85 6.5 8.95 6.5 10.1 5.45 L10.15 6.4 10.15 8.0 M10.2 4.7 Q8.8 4.7 8.05 5.45 L7.15 3.3 Q7.75 3.1 7.9 2.5 9.4 3.55 10.6 4.95 L10.45 5.25 10.3 4.7 10.2 4.7 M3.5 4.9 L-0.3 4.4 -0.95 4.4 Q-6.7 4.55 -11.6 8.3 L-11.6 7.95 -11.35 7.1 -9.75 6.3 -8.8 6.45 -8.75 6.45 -8.25 5.6 Q-6.45 4.8 -3.95 4.3 L-3.25 4.6 -2.85 4.15 2.45 3.8 3.5 4.9 M3.45 3.75 L3.75 3.75 3.6 3.95 3.45 3.75 M4.95 3.65 L6.35 3.5 7.8 6.45 Q5.85 5.5 3.6 4.9 L4.95 3.65" fill="#970000" fill-rule="evenodd" stroke="none"/>
      <path d="M10.45 5.25 L10.15 6.4 10.1 5.45 Q8.95 6.5 7.85 6.5 L7.8 6.45 6.35 3.5 7.15 3.3 8.05 5.45 Q8.8 4.7 10.2 4.7 L10.3 4.7 10.45 5.25 M3.75 3.75 L4.95 3.65 3.6 4.9 3.5 4.9 2.45 3.8 3.45 3.75 3.6 3.95 3.75 3.75 M-8.8 6.45 L-9.75 6.3 -8.25 5.6 -8.75 6.45 -8.8 6.45 M-3.25 4.6 L-3.95 4.3 -2.85 4.15 -3.25 4.6 M-11.65 7.25 L-11.35 7.1 -11.6 7.95 -11.65 7.25" fill="#ab6300" fill-rule="evenodd" stroke="none"/>
      <path d="M-12.15 20.75 L-12.1 21.0 -12.1 20.75 -12.15 20.75 M-13.95 10.6 Q-13.4 10.05 -12.45 10.2 -12.05 10.3 -12.05 10.7 -11.8 18.65 -11.15 20.65 L-11.15 21.0 Q-11.35 21.5 -12.4 21.6 -13.4 21.75 -13.7 21.25 -14.0 20.85 -14.35 17.25 L-14.65 12.45 Q-14.65 11.2 -13.95 10.6" fill="#333e49" fill-rule="evenodd" stroke="none"/>
      <path d="M-12.75 10.75 Q-12.5 18.65 -11.75 20.75 L-12.35 21.0 -13.1 20.85 -13.7 17.25 -14.0 12.4 -14.0 11.5 Q-13.8 10.6 -12.75 10.75" fill="#ffffff" fill-rule="evenodd" stroke="none"/>
      <path d="M-13.35 19.75 L-11.95 19.5 -11.75 20.75 -13.2 20.7 -13.35 19.75" fill="#037df2" fill-rule="evenodd" stroke="none"/>
      <path d="M-13.5 19.0 L-13.65 18.0 -12.1 17.8 -12.0 18.75 -13.5 19.0" fill="#037df2" fill-rule="evenodd" stroke="none"/>
      <path d="M-12.65 19.6 L-12.75 18.9 -12.05 18.75 -11.95 19.5 -12.65 19.6" fill="#8b9dc6" fill-rule="evenodd" stroke="none"/>
      <path d="M-12.4 21.05 L-12.65 19.6 -11.95 19.5 -11.75 20.75 -11.75 20.85 -12.05 21.0 -12.25 21.05 -12.4 21.05" fill="#0a5bbf" fill-rule="evenodd" stroke="none"/>
      <path d="M-13.3 13.65 L-13.35 13.35 -12.65 12.35 -12.15 17.8 -12.9 17.9 -13.3 13.65" fill="#8b9dc6" fill-rule="evenodd" stroke="none"/>
      <path d="M-12.75 18.9 L-12.9 17.9 -12.15 17.8 -12.1 17.8 -12.0 18.75 -12.05 18.75 -12.75 18.9" fill="#0a5bbf" fill-rule="evenodd" stroke="none"/>
      <path d="M-15.1 10.25 L-13.6 10.2 Q-13.2 10.35 -13.3 10.75 -14.9 18.8 -14.75 20.65 L-14.8 21.0 Q-15.15 21.45 -16.2 21.35 -17.2 21.2 -17.4 20.65 L-17.05 16.65 -16.25 11.9 -15.1 10.25" fill="#333e49" fill-rule="evenodd" stroke="none"/>
      <path d="M-14.0 10.7 Q-15.7 18.55 -15.35 20.6 L-16.0 20.75 Q-16.6 20.7 -16.7 20.4 L-16.4 16.75 -15.6 12.0 -15.4 11.1 Q-14.95 10.3 -14.0 10.7" fill="#ffffff" fill-rule="evenodd" stroke="none"/>
      <path d="M-16.7 19.25 L-15.25 19.35 -15.35 20.6 Q-16.85 20.9 -16.7 20.25 L-16.7 19.25" fill="#037df2" fill-rule="evenodd" stroke="none"/>
      <path d="M-16.7 18.55 L-16.55 17.55 -15.0 17.75 -15.15 18.7 -16.7 18.55" fill="#037df2" fill-rule="evenodd" stroke="none"/>
      <path d="M-15.25 19.35 L-15.9 19.3 -15.85 18.65 -15.15 18.7 -15.25 19.35" fill="#8b9dc6" fill-rule="evenodd" stroke="none"/>
      <path d="M-15.25 20.0 L-15.35 20.6 -15.35 20.7 -15.45 20.75 -15.8 20.8 -16.1 20.8 -15.9 19.3 -15.25 19.35 -15.25 20.0" fill="#0a5bbf" fill-rule="evenodd" stroke="none"/>
      <path d="M-15.05 17.75 L-15.75 17.65 -15.4 14.75 -14.6 14.45 -14.6 14.55 -15.05 17.75" fill="#8b9dc6" fill-rule="evenodd" stroke="none"/>
      <path d="M-15.15 18.7 L-15.85 18.65 -15.75 17.65 -15.05 17.75 -15.15 18.7" fill="#0a5bbf" fill-rule="evenodd" stroke="none"/>
      <path d="M-17.75 8.8 Q-17.2 6.65 -15.95 5.4 -14.7 4.15 -13.45 4.5 -12.65 4.75 -12.15 5.6 -11.1 7.4 -11.9 10.4 -12.45 12.55 -13.7 13.8 -14.95 15.05 -16.2 14.7 -17.05 14.45 -17.5 13.65 -18.55 11.8 -17.75 8.8" fill="#4f0000" fill-rule="evenodd" stroke="none"/>
      <path d="M-12.7 10.2 Q-13.8 14.15 -15.9 13.6 -18.05 13.05 -16.95 9.05 -15.85 5.05 -13.75 5.6 -11.6 6.15 -12.7 10.2" fill="#ffc200" fill-rule="evenodd" stroke="none"/>
      <path d="M-13.3 9.9 L-15.55 12.8 -16.5 9.4 -14.15 6.1 -13.3 9.9" fill="#d80000" fill-rule="evenodd" stroke="none"/>
      <path d="M-14.1 9.65 L-15.15 11.0 -15.6 9.45 -14.55 7.95 -14.1 9.65" fill="#ffc200" fill-rule="evenodd" stroke="none"/>
      <path d="M-13.75 5.6 Q-12.45 5.95 -12.45 8.3 L-12.7 10.2 -13.25 11.55 Q-14.05 13.2 -15.2 13.6 L-15.6 13.65 -15.9 13.6 -16.45 13.25 -15.6 12.6 -15.55 12.8 -13.3 9.9 -13.6 8.45 Q-13.45 6.85 -14.05 5.6 L-13.75 5.6" fill="#d17600" fill-rule="evenodd" stroke="none"/>
      <path d="M-15.55 12.8 L-15.6 12.6 Q-14.45 11.55 -13.85 9.75 L-13.6 8.45 -13.3 9.9 -15.55 12.8" fill="#bd1300" fill-rule="evenodd" stroke="none"/>
      <path d="M12.45 9.8 Q13.2 10.45 13.15 11.65 L12.85 16.45 Q12.5 20.05 12.2 20.45 11.9 20.95 10.9 20.8 9.85 20.7 9.65 20.2 L9.65 19.85 Q10.35 17.85 10.55 9.9 10.55 9.5 11.0 9.4 11.95 9.3 12.45 9.8" fill="#333e49" fill-rule="evenodd" stroke="none"/>
      <path d="M12.55 11.6 L12.2 16.45 11.6 20.05 10.25 19.95 Q10.8 18.5 11.3 9.95 12.95 9.7 12.55 11.6" fill="#ffffff" fill-rule="evenodd" stroke="none"/>
      <path d="M11.85 18.95 L11.7 19.9 10.25 19.95 10.45 18.7 11.85 18.95" fill="#037df2" fill-rule="evenodd" stroke="none"/>
      <path d="M12.0 18.2 L10.5 17.95 10.65 17.0 12.15 17.2 12.0 18.2" fill="#037df2" fill-rule="evenodd" stroke="none"/>
      <path d="M12.4 14.7 L12.15 17.2 12.1 17.2 12.4 14.7" fill="#233b69" fill-rule="evenodd" stroke="none"/>
      <path d="M11.4 17.1 L11.85 12.55 12.3 13.1 12.45 13.8 12.1 17.2 11.4 17.1 M11.95 18.2 L11.85 18.95 11.15 18.8 11.25 18.1 11.95 18.2" fill="#8b9dc6" fill-rule="evenodd" stroke="none"/>
      <path d="M11.85 19.0 L11.8 19.5 11.7 19.9 11.6 20.1 11.45 20.2 11.25 20.3 10.9 20.3 11.15 18.8 11.85 18.95 11.85 19.0" fill="#0a5bbf" fill-rule="evenodd" stroke="none"/>
      <path d="M12.0 18.2 L11.95 18.2 11.25 18.1 11.4 17.1 12.1 17.2 12.15 17.2 12.0 18.2" fill="#0a5bbf" fill-rule="evenodd" stroke="none"/>
      <path d="M12.1 9.4 L13.6 9.45 Q14.45 9.9 14.75 11.1 L15.55 15.85 15.9 19.85 Q15.7 20.4 14.7 20.55 13.65 20.65 13.3 20.2 L13.25 19.9 Q13.4 17.8 11.8 10.0 11.7 9.55 12.1 9.4" fill="#333e49" fill-rule="evenodd" stroke="none"/>
      <path d="M12.5 9.9 Q14.05 9.25 14.1 11.2 14.5 12.5 14.9 15.95 15.35 19.25 15.2 19.6 15.1 19.9 14.5 19.95 L13.85 19.8 Q14.2 17.75 12.5 9.9" fill="#ffffff" fill-rule="evenodd" stroke="none"/>
      <path d="M15.2 18.45 L15.25 19.45 Q15.35 20.1 13.85 19.8 L13.75 18.55 15.2 18.45" fill="#037df2" fill-rule="evenodd" stroke="none"/>
      <path d="M15.1 17.75 L13.65 17.9 13.5 16.95 15.0 16.8 15.1 17.75" fill="#037df2" fill-rule="evenodd" stroke="none"/>
      <path d="M14.3 17.85 L15.1 17.75 15.0 16.8 14.25 16.9 13.9 13.95 14.65 13.95 15.2 18.45 14.4 18.55 14.3 17.85" fill="#8b9dc6" fill-rule="evenodd" stroke="none"/>
      <path d="M14.5 20.0 L14.4 18.55 15.2 18.45 15.2 18.55 15.2 19.65 15.05 19.85 14.5 20.0" fill="#0a5bbf" fill-rule="evenodd" stroke="none"/>
      <path d="M14.3 17.85 L14.25 16.9 15.0 16.8 15.1 17.75 14.3 17.85" fill="#0a5bbf" fill-rule="evenodd" stroke="none"/>
      <path d="M11.95 3.7 Q13.2 3.35 14.45 4.6 15.7 5.85 16.25 8.0 17.05 11.0 16.0 12.85 15.55 13.65 14.7 13.9 11.85 14.7 10.4 9.6 9.6 6.6 10.65 4.8 11.15 3.95 11.95 3.7" fill="#4f0000" fill-rule="evenodd" stroke="none"/>
      <path d="M12.25 4.8 Q14.35 4.25 15.45 8.25 16.55 12.25 14.4 12.8 12.3 13.45 11.2 9.35 10.2 5.35 12.25 4.8" fill="#ffc200" fill-rule="evenodd" stroke="none"/>
      <path d="M12.65 5.3 L15.0 8.6 14.05 12.05 11.8 9.1 12.65 5.3" fill="#d80000" fill-rule="evenodd" stroke="none"/>
      <path d="M12.65 8.85 L13.05 7.15 14.1 8.65 13.65 10.2 12.65 8.85" fill="#ffc200" fill-rule="evenodd" stroke="none"/>
      <path d="M15.0 8.6 L14.5 7.9 14.45 7.65 Q13.95 5.95 13.0 4.85 14.2 5.25 15.05 7.05 L15.1 7.15 15.1 7.2 15.15 7.35 15.25 7.5 15.45 8.25 15.7 10.15 Q15.7 12.5 14.4 12.8 L14.35 12.85 14.1 12.85 Q13.75 12.85 13.4 12.65 L13.5 12.65 Q14.9 12.25 14.75 9.5 L15.0 8.6" fill="#d17600" fill-rule="evenodd" stroke="none"/>
      <path d="M14.75 9.5 L14.5 7.9 15.0 8.6 14.75 9.5" fill="#bd1300" fill-rule="evenodd" stroke="none"/>
    </g>
  </defs>
</svg>
