<?xml version="1.0" encoding="UTF-8" standalone="no"?>
<svg xmlns:xlink="http://www.w3.org/1999/xlink" height="92.9px" width="100.7px" xmlns="http://www.w3.org/2000/svg">
  <g transform="matrix(1.0, 0.0, 0.0, 1.0, 38.65, 49.75)">
    <use height="32.6" transform="matrix(1.0, 0.0, 0.0, 1.0, -32.1, -15.3)" width="63.75" xlink:href="#shape0"/>
  </g>
  <defs>
    <g id="shape0" transform="matrix(1.0, 0.0, 0.0, 1.0, 32.1, 15.3)">
      <path d="M-9.8 11.05 L-9.95 11.3 -9.85 11.35 -9.7 11.35 -11.2 12.75 Q-11.85 13.55 -12.05 14.5 L-11.7 16.4 Q-11.35 17.65 -15.05 16.4 L-15.65 15.85 -16.0 12.45 -17.0 12.25 Q-18.7 11.15 -17.8 10.4 L-17.7 10.35 -16.25 10.45 -16.25 10.3 -15.7 10.5 -15.1 10.6 -13.9 10.8 -13.85 11.2 -13.9 11.45 -13.75 10.95 -11.85 10.85 -9.8 11.05" fill="#020100" fill-rule="evenodd" stroke="none"/>
      <path d="M13.15 11.25 L13.15 11.45 13.25 11.75 13.25 11.5 13.3 11.1 14.45 10.9 15.1 10.85 15.6 10.6 15.6 10.75 17.05 10.65 17.15 10.7 Q18.0 11.45 16.35 12.55 L15.35 12.8 15.0 16.15 Q15.0 16.55 14.4 16.7 10.7 17.95 11.05 16.7 11.5 15.4 11.4 14.8 L10.55 13.1 9.05 11.65 9.25 11.65 9.3 11.6 9.15 11.35 11.25 11.15 13.15 11.25" fill="#020100" fill-rule="evenodd" stroke="none"/>
      <path d="M16.95 11.15 L14.15 11.6 12.05 11.85 9.55 11.9 7.1 12.15 2.75 12.5 -9.45 12.0 -17.25 10.95 Q2.65 2.1 16.95 11.15" fill="#422100" fill-rule="evenodd" stroke="none"/>
      <path d="M0.5 -11.0 L2.35 -10.35 5.9 -10.0 Q9.15 -10.0 14.85 -8.7 L22.5 -6.6 Q23.6 -6.15 25.85 -5.45 L28.95 -4.05 Q29.5 -3.6 31.05 -0.65 32.0 1.1 31.5 2.6 31.05 4.2 30.2 5.45 29.35 6.7 25.2 9.2 23.2 10.35 19.85 11.2 L16.8 11.55 16.45 11.65 Q2.45 2.8 -17.4 11.55 -21.65 11.1 -23.4 10.45 -25.95 9.55 -28.8 7.95 -29.7 7.45 -31.65 4.3 L-32.1 2.05 -32.1 0.4 -31.5 -1.2 Q-30.85 -2.6 -29.75 -3.5 L-27.0 -5.55 -21.9 -7.45 -17.15 -8.6 -12.1 -9.5 -8.9 -9.95 Q-7.8 -10.1 -5.85 -10.95 L-4.25 -11.0 -2.1 -11.1 0.5 -11.0" fill="#020100" fill-rule="evenodd" stroke="none"/>
      <path d="M-0.35 -9.2 Q12.45 -9.2 21.5 -6.15 30.55 -3.05 30.55 1.25 30.55 5.6 21.5 8.7 12.45 11.75 -0.35 11.75 -13.15 11.75 -22.2 8.7 -31.25 5.6 -31.25 1.25 -31.25 -3.05 -22.2 -6.15 -13.15 -9.2 -0.35 -9.2" fill="#774005" fill-rule="evenodd" stroke="none"/>
      <path d="M8.9 -3.7 L9.9 -3.7 12.1 -3.5 14.65 -3.25 17.25 -2.8 Q22.4 -1.3 23.85 1.65 24.55 3.1 23.6 4.4 22.95 5.15 21.1 5.6 L17.85 5.8 Q15.4 5.75 14.55 5.85 L13.6 6.1 Q13.3 6.25 12.95 5.75 L11.95 4.65 11.6 3.9 9.45 0.6 Q8.65 -0.7 8.35 -1.6 7.95 -2.95 8.05 -3.15 L8.85 -3.65 8.9 -3.7" fill="#5b2e05" fill-rule="evenodd" stroke="none"/>
      <path d="M12.1 -1.85 Q15.85 -2.1 18.25 1.15 19.15 2.35 19.3 3.8 19.5 5.5 18.2 6.15 L15.25 6.45 Q13.25 6.3 12.55 5.55 11.75 4.65 11.75 -0.85 L12.1 -1.85" fill="#472505" fill-rule="evenodd" stroke="none"/>
      <path d="M-11.1 -3.55 L-11.05 -3.45 Q-10.55 -3.45 -10.25 -2.95 -10.15 -2.7 -10.55 -1.45 -10.75 -0.75 -11.65 0.8 L-13.8 4.05 -14.15 4.85 -15.15 5.95 Q-15.5 6.45 -15.8 6.3 L-16.75 6.0 -23.35 5.75 Q-25.2 5.3 -25.8 4.55 -26.75 3.25 -26.05 1.85 -24.65 -1.1 -19.45 -2.6 L-16.85 -3.05 -14.3 -3.3 -12.15 -3.55 -11.1 -3.55" fill="#5b2e05" fill-rule="evenodd" stroke="none"/>
      <path d="M6.9 -13.6 L7.2 -11.35 7.25 -10.65 7.85 -8.75 -0.7 -9.0 Q-6.05 -9.45 -9.3 -8.05 L-9.0 -10.6 -8.65 -12.5 -7.75 -14.0 Q-7.0 -14.95 -6.2 -15.2 L-4.85 -15.2 -3.05 -14.95 -1.35 -14.5 0.15 -14.65 1.55 -15.1 3.25 -15.3 5.0 -15.3 6.4 -14.8 Q6.8 -14.45 6.9 -13.6" fill="#020100" fill-rule="evenodd" stroke="none"/>
      <path d="M1.25 -13.1 L1.5 -13.25 Q1.85 -12.65 1.9 -11.0 L1.7 -8.65 Q1.25 -7.5 0.05 -7.35 -1.1 -7.25 -1.95 -8.2 -2.45 -8.8 -2.45 -10.45 -2.45 -12.1 -1.85 -12.7 -1.45 -13.1 -0.35 -13.2 L1.25 -13.1" fill="#401f00" fill-rule="evenodd" stroke="none"/>
      <path d="M9.8 -5.3 L10.3 -4.65 11.55 -2.6 13.1 0.35 13.75 1.8 Q13.9 2.7 13.6 2.85 L12.95 2.9 12.15 2.85 8.3 2.45 Q6.45 2.3 4.7 2.45 L1.1 2.7 -2.55 2.9 -9.0 3.3 -11.5 3.6 -13.1 3.7 -13.8 3.65 -14.5 3.65 -15.0 3.6 -14.95 3.5 -15.0 3.5 -15.05 2.35 -14.7 1.55 -13.9 -0.35 -13.05 -1.7 Q-11.55 -3.55 -11.0 -4.55 L-9.6 -7.3 -9.3 -8.05 Q-6.05 -9.45 -0.7 -9.0 L7.85 -8.75 9.8 -5.3" fill="#1f0f00" fill-rule="evenodd" stroke="none"/>
      <path d="M0.3 -13.15 Q0.8 -13.15 1.1 -13.85 L3.05 -14.3 Q5.75 -14.65 6.25 -12.85 L7.4 -8.5 Q8.15 -6.0 9.75 -3.7 L12.05 -0.2 13.0 1.15 Q13.3 1.9 12.6 2.2 8.2 4.45 6.7 4.45 L4.75 4.6 0.7 4.1 Q-0.1 3.7 -0.4 3.85 L-0.45 3.9 -0.45 3.85 -0.5 3.9 -0.55 3.85 -1.65 4.1 -5.7 4.6 -7.65 4.45 Q-9.15 4.45 -13.55 2.2 -14.25 1.9 -13.95 1.15 L-13.0 -0.2 -10.7 -3.7 Q-9.15 -5.8 -8.35 -8.5 L-7.2 -12.85 Q-6.6 -14.65 -4.0 -14.3 L-2.05 -13.85 Q-1.55 -13.7 -0.5 -13.15 L-1.0 -10.9 Q-1.3 -9.6 -0.5 -8.95 L-0.45 -8.95 Q1.9 -11.55 0.3 -13.15" fill="#774005" fill-rule="evenodd" stroke="none"/>
      <path d="M1.55 -5.3 Q3.0 -5.35 4.15 -6.5 5.25 -7.6 5.4 -9.05 L4.75 -11.85 Q4.3 -13.7 5.1 -14.55 5.35 -14.4 5.55 -14.3 6.1 -14.05 6.65 -9.7 7.55 -7.35 9.8 -4.2 12.5 -0.3 12.75 1.35 13.0 3.55 10.15 2.4 L5.45 0.45 1.6 -1.25 Q-0.75 -2.4 -1.55 -3.9 -2.4 -5.45 -0.85 -5.5 L1.55 -5.3" fill="#5b2e05" fill-rule="evenodd" stroke="none"/>
      <path d="M5.25 -0.85 Q5.35 -1.75 5.8 -3.2 6.4 -4.9 6.4 -7.35 L6.6 -7.2 8.25 -4.0 9.8 -0.95 Q11.05 1.3 12.0 1.35 10.85 1.3 8.65 0.3 6.45 -0.75 5.25 -0.85" fill="#472505" fill-rule="evenodd" stroke="none"/>
      <path d="M-1.4 -0.8 Q7.15 -0.8 8.85 -2.2 L10.6 -3.45 10.3 -4.65 11.0 -4.6 Q11.85 -4.3 12.45 -3.2 13.25 -1.8 14.15 1.65 15.05 5.25 14.6 5.7 L12.45 5.8 10.7 5.45 Q4.3 5.3 -0.35 5.5 L-8.75 5.75 -12.5 6.0 Q-14.85 6.0 -15.3 4.45 -16.1 1.95 -15.4 0.55 -13.5 -3.2 -12.4 -3.2 -11.4 -3.2 -12.15 -2.2 L-8.35 -1.5 -1.4 -0.8" fill="#1f0f00" fill-rule="evenodd" stroke="none"/>
      <path d="M9.95 -1.7 Q10.95 -1.95 11.35 -3.2 L12.35 -1.05 14.2 5.55 Q12.1 4.3 11.7 4.45 L-1.05 5.8 -14.4 5.55 -14.4 1.7 -13.9 -0.35 -13.05 -1.7 -6.95 -0.15 -0.25 0.45 Q1.7 0.35 9.95 -1.7" fill="#ff0000" fill-rule="evenodd" stroke="none"/>
      <path d="M-12.4 -1.55 L-8.8 -0.8 0.6 0.8 -1.9 0.95 -8.05 0.45 -13.9 -0.35 -13.15 -1.05 Q-12.8 -1.05 -12.4 -1.55" fill="#ff5454" fill-rule="evenodd" stroke="none"/>
      <path d="M8.1 -0.15 Q9.25 0.0 11.2 -1.05 11.45 0.3 11.8 1.05 L12.9 2.75 Q13.55 3.9 13.2 4.55 L12.85 6.3 Q11.5 6.65 9.75 3.85 8.05 1.25 8.1 -0.15" fill="#9e0000" fill-rule="evenodd" stroke="none"/>
      <path d="M26.15 6.35 Q22.55 8.35 19.1 8.35 L15.75 7.9 Q14.05 7.0 13.2 6.65 L10.25 5.3 8.55 4.4 6.6 3.65 4.5 3.25 2.15 3.15 Q0.65 3.0 -2.3 3.2 L-6.85 3.75 Q-7.9 3.95 -10.4 5.25 L-13.9 6.8 -16.35 7.4 -20.55 7.7 -22.7 7.65 -24.5 7.55 -26.95 7.3 Q-28.7 6.6 -29.5 6.55 L-23.45 6.75 -17.5 6.05 -16.8 5.9 -16.1 5.65 -14.55 4.85 -11.4 2.9 Q-9.3 2.0 -7.15 1.55 L-3.3 0.95 -0.85 0.95 1.95 0.8 5.4 1.25 8.05 1.75 11.15 3.2 12.45 4.05 Q13.9 5.1 15.35 5.65 L18.35 6.5 19.9 6.55 21.6 6.55 Q23.05 6.4 25.2 5.15 28.35 4.15 29.45 4.15 L26.15 6.35" fill="#020100" fill-rule="evenodd" stroke="none"/>
      <path d="M29.65 3.0 L30.5 2.7 Q29.9 5.05 26.55 7.1 23.55 8.95 19.85 9.75 L17.35 10.4 15.05 10.7 12.4 11.05 9.9 11.35 4.55 11.55 0.7 11.65 -1.45 11.8 -2.7 11.65 -5.3 11.65 -10.65 11.45 -13.15 11.15 -15.75 10.85 -18.05 10.5 -20.6 9.9 Q-24.5 8.95 -27.25 7.2 -28.15 6.65 -29.7 4.7 L-30.55 3.85 -30.8 2.45 Q-29.3 4.65 -27.1 5.9 -24.6 7.25 -21.7 7.25 L-16.8 6.7 Q-15.85 6.55 -14.15 5.25 -12.3 3.85 -11.5 3.6 L-6.9 2.45 -2.85 2.0 -1.55 1.85 0.3 1.75 1.6 1.9 5.7 2.35 10.3 3.45 13.15 5.15 Q15.1 6.45 16.1 6.6 L21.0 7.1 Q24.05 7.1 26.4 5.75 L29.65 3.0" fill="#f47811" fill-rule="evenodd" stroke="none"/>
      <path d="M29.3 4.0 L28.7 5.3 Q28.15 6.5 26.4 7.45 23.5 9.05 19.75 9.9 L17.2 10.5 14.9 10.8 12.3 11.05 9.8 11.35 4.45 11.55 0.55 11.65 -1.55 11.75 -5.4 11.65 -10.75 11.45 -13.3 11.15 -15.9 10.85 -18.2 10.6 -20.7 10.0 Q-24.35 9.2 -27.4 7.55 -29.2 6.5 -29.7 5.4 L-30.35 3.65 -30.35 3.55 Q-28.75 6.6 -25.8 7.5 L-22.8 7.75 -20.35 7.95 -19.05 8.8 Q-18.2 9.45 -16.9 9.85 -15.05 10.4 -13.1 9.5 L-11.1 8.65 -9.35 7.8 -6.15 7.55 Q-4.85 7.75 -3.45 8.7 L-2.5 9.3 -0.85 9.75 3.95 9.5 7.5 7.2 Q8.9 6.3 11.0 6.85 L15.1 8.65 16.65 9.1 18.4 9.25 19.8 8.95 Q20.45 8.6 21.05 8.2 L22.95 8.15 24.85 7.75 26.9 6.9 27.85 5.9 28.15 5.35 28.55 4.85 28.8 4.3 29.1 3.85 29.3 4.0" fill="#ad5607" fill-rule="evenodd" stroke="none"/>
      <path d="M-2.15 -13.1 Q-0.7 -13.4 -1.9 -9.9 -1.7 -8.65 -0.4 -8.65 0.8 -8.7 1.7 -9.55 -0.8 -7.1 -2.75 -8.6 -3.8 -9.4 -3.9 -10.8 -4.05 -12.25 -2.8 -12.9 L-2.15 -13.1" fill="#5b2e05" fill-rule="evenodd" stroke="none"/>
      <path d="M1.25 -13.6 L2.0 -13.45 Q3.7 -12.6 3.5 -10.85 3.4 -10.1 2.8 -9.8 2.15 -9.45 1.6 -10.1 1.2 -10.6 1.2 -11.75 L1.25 -13.6" fill="#a85a07" fill-rule="evenodd" stroke="none"/>
      <path d="M1.15 -13.45 L1.5 -13.5 Q2.35 -13.05 2.55 -12.15 2.9 -10.8 2.5 -10.6 1.85 -10.3 1.15 -13.45" fill="#eb975a" fill-rule="evenodd" stroke="none"/>
      <path d="M-5.4 -13.85 L-5.4 -13.75 -4.75 -11.65 Q-4.8 -11.1 -5.9 -9.65 L-6.25 -10.95 -6.9 -12.15 Q-7.45 -14.15 -5.4 -13.85" fill="#a85a07" fill-rule="evenodd" stroke="none"/>
      <path d="M-6.0 -13.25 L-5.85 -13.75 Q-5.3 -13.5 -5.15 -12.35 -5.0 -11.2 -5.5 -10.85 -6.0 -11.1 -6.0 -13.25" fill="#eb975a" fill-rule="evenodd" stroke="none"/>
      <path d="M2.15 -7.45 Q1.2 -6.65 -0.75 -6.75 -2.85 -6.9 -3.1 -8.2 L-3.4 -9.3 Q-1.7 -7.7 0.35 -7.95 L3.1 -8.75 Q3.2 -8.3 2.15 -7.45" fill="#a85a07" fill-rule="evenodd" stroke="none"/>
      <path d="M11.0 3.8 Q-4.0 2.65 -7.65 4.05 -15.15 7.9 -17.15 7.9 L-22.55 7.95 Q-18.1 7.65 -15.65 6.15 -9.35 2.5 -3.4 2.15 3.45 1.8 8.1 3.05 L11.0 3.8" fill="#ffa257" fill-rule="evenodd" stroke="none"/>
      <path d="M20.85 10.4 L22.6 9.9 24.5 11.8 Q24.9 12.8 24.35 13.95 23.75 15.25 22.4 15.25 20.45 15.25 19.9 13.9 19.45 12.85 19.85 11.9 L20.85 10.4" fill="#020100" fill-rule="evenodd" stroke="none"/>
      <path d="M23.9 12.8 Q23.9 14.65 22.1 14.65 20.25 14.65 20.25 12.8 20.25 11.0 22.1 11.0 23.9 11.0 23.9 12.8" fill="#ff0000" fill-rule="evenodd" stroke="none"/>
      <path d="M20.95 14.45 Q21.95 13.65 22.1 11.1 22.1 10.7 23.4 11.55 24.2 12.6 23.55 13.7 22.9 14.75 21.7 14.7 L20.95 14.45" fill="#bf0000" fill-rule="evenodd" stroke="none"/>
      <path d="M27.25 7.45 L28.75 7.05 30.4 8.7 Q30.75 9.5 30.25 10.5 29.75 11.6 28.6 11.6 26.95 11.6 26.45 10.45 26.05 9.55 26.4 8.75 L27.25 7.45" fill="#020100" fill-rule="evenodd" stroke="none"/>
      <path d="M29.9 9.55 Q29.9 11.1 28.35 11.1 26.75 11.1 26.75 9.55 26.75 7.95 28.35 7.95 29.9 7.95 29.9 9.55" fill="#ff0000" fill-rule="evenodd" stroke="none"/>
      <path d="M27.35 10.95 Q28.25 10.25 28.35 8.05 L29.45 8.45 Q30.15 9.3 29.6 10.25 29.05 11.2 28.0 11.15 L27.35 10.95" fill="#bf0000" fill-rule="evenodd" stroke="none"/>
      <path d="M21.4 11.25 L21.25 12.15 20.35 13.55 20.4 12.15 21.4 11.25" fill="#ff5252" fill-rule="evenodd" stroke="none"/>
      <path d="M-22.25 10.55 L-21.25 12.05 Q-20.85 12.95 -21.3 14.0 -21.9 15.35 -23.8 15.35 -25.15 15.35 -25.75 14.05 -26.3 12.9 -25.9 11.95 L-24.0 10.05 -22.25 10.55" fill="#020100" fill-rule="evenodd" stroke="none"/>
      <path d="M-21.65 12.95 Q-21.65 14.8 -23.5 14.8 -25.3 14.8 -25.3 12.95 -25.3 11.1 -23.5 11.1 -21.65 11.1 -21.65 12.95" fill="#ff0000" fill-rule="evenodd" stroke="none"/>
      <path d="M-24.6 14.55 Q-23.6 13.75 -23.45 11.2 L-22.2 11.7 Q-21.35 12.7 -22.05 13.8 -22.65 14.85 -23.85 14.8 L-24.6 14.55" fill="#bf0000" fill-rule="evenodd" stroke="none"/>
      <path d="M-28.65 7.6 L-27.8 8.9 Q-27.45 9.7 -27.85 10.6 -28.4 11.75 -30.05 11.75 -31.15 11.75 -31.7 10.65 -32.1 9.65 -31.85 8.8 L-30.2 7.15 -28.65 7.6" fill="#020100" fill-rule="evenodd" stroke="none"/>
      <path d="M-28.15 9.65 Q-28.15 11.25 -29.75 11.25 -31.3 11.25 -31.3 9.65 -31.3 8.1 -29.75 8.1 -28.15 8.1 -28.15 9.65" fill="#ff0000" fill-rule="evenodd" stroke="none"/>
      <path d="M-30.7 11.05 Q-29.85 10.35 -29.75 8.15 L-29.2 8.25 Q-28.7 8.45 -28.6 8.6 -27.9 9.45 -28.5 10.4 -29.05 11.3 -30.05 11.3 L-30.7 11.05" fill="#bf0000" fill-rule="evenodd" stroke="none"/>
      <path d="M-24.15 11.35 L-24.3 12.3 -25.25 13.7 -25.15 12.3 -24.15 11.35" fill="#ff5252" fill-rule="evenodd" stroke="none"/>
    </g>
  </defs>
</svg>
