<?xml version="1.0" encoding="UTF-8" standalone="no"?>
<svg xmlns:xlink="http://www.w3.org/1999/xlink" height="92.9px" width="100.7px" xmlns="http://www.w3.org/2000/svg">
  <g transform="matrix(1.0, 0.0, 0.0, 1.0, 38.65, 49.75)">
    <use height="22.15" transform="matrix(1.0, 0.0, 0.0, 1.0, -15.75, -10.7)" width="30.45" xlink:href="#shape0"/>
  </g>
  <defs>
    <g id="shape0" transform="matrix(1.0, 0.0, 0.0, 1.0, 15.75, 10.7)">
      <path d="M8.85 9.3 L12.45 7.75 12.95 8.25 Q14.0 10.55 13.75 11.0 13.5 11.4 8.85 9.3" fill="#5e3800" fill-rule="evenodd" stroke="none"/>
      <path d="M-9.55 9.3 Q-14.2 11.4 -14.45 11.0 L-13.6 8.25 -13.1 7.75 -9.55 9.3" fill="#5e3800" fill-rule="evenodd" stroke="none"/>
      <path d="M6.8 -7.35 L8.95 -5.7 9.8 -3.85 11.1 -3.05 12.8 -1.35 13.65 1.85 14.05 2.55 Q14.45 3.1 14.65 4.55 14.85 6.3 14.2 7.1 L11.15 9.35 Q7.7 8.05 0.1 8.05 -7.55 8.05 -12.25 9.1 -15.5 7.7 -15.7 6.35 -15.85 4.9 -15.2 3.35 L-14.5 2.15 Q-13.95 -1.0 -13.15 -1.9 -12.1 -3.1 -10.9 -3.5 -10.55 -5.7 -9.45 -6.45 L-7.45 -7.65 -7.2 -8.55 Q-6.8 -9.5 -5.95 -9.7 -4.8 -10.05 -3.8 -8.95 L-2.2 -9.2 -1.8 -9.95 Q-1.25 -10.7 -0.35 -10.7 1.1 -10.7 1.65 -9.1 L3.3 -8.75 3.9 -9.25 5.6 -9.4 Q7.05 -8.9 6.8 -7.35" fill="#5e3800" fill-rule="evenodd" stroke="none"/>
      <path d="M13.45 2.9 Q14.8 4.75 14.0 6.2 13.4 7.3 10.45 8.7 6.0 10.8 -0.25 10.8 -6.5 10.8 -11.1 8.75 -14.5 7.25 -14.8 6.2 -15.4 4.5 -14.3 2.9 -13.8 2.15 -7.0 1.8 L-0.3 1.55 -0.25 1.75 -0.2 1.55 Q12.65 1.7 13.45 2.9" fill="#cc9100" fill-rule="evenodd" stroke="none"/>
      <path d="M12.1 -1.0 Q12.7 -0.05 13.0 1.5 13.25 2.9 13.0 3.4 12.5 4.45 10.75 4.45 10.3 4.45 9.8 0.55 L9.4 -3.35 12.1 -1.0" fill="#fff1ad" fill-rule="evenodd" stroke="none"/>
      <path d="M8.9 -2.6 L10.95 -0.4 Q11.45 0.25 11.9 2.15 12.3 4.0 12.1 4.2 L11.0 4.65 10.45 4.5 9.8 2.7 8.9 -2.6" fill="#cc9100" fill-rule="evenodd" stroke="none"/>
      <path d="M-12.85 -1.0 Q-12.0 -2.4 -10.15 -3.35 -10.8 4.45 -11.5 4.45 -13.2 4.45 -13.75 3.4 -14.0 2.9 -13.75 1.5 -13.45 -0.05 -12.85 -1.0" fill="#ffba0f" fill-rule="evenodd" stroke="none"/>
      <path d="M5.1 -7.7 Q7.85 -6.5 8.6 -5.15 L10.35 0.0 Q11.35 3.75 11.35 4.8 11.35 5.7 7.25 6.4 L-0.35 7.05 -7.95 6.4 Q-12.1 5.65 -12.1 4.8 L-11.25 0.0 Q-10.3 -3.9 -9.65 -5.15 -8.9 -6.5 -6.0 -7.7 -3.0 -8.9 -0.4 -8.9 L-0.35 -8.9 Q2.25 -8.9 5.1 -7.7" fill="#f0ab00" fill-rule="evenodd" stroke="none"/>
      <path d="M10.0 -1.7 L11.35 5.15 8.7 6.15 7.9 6.15 Q7.35 -0.4 6.45 -2.95 5.6 -5.5 4.85 -6.35 L6.1 -7.1 7.15 -6.6 Q9.2 -4.95 10.0 -1.7" fill="#e0a000" fill-rule="evenodd" stroke="none"/>
      <path d="M6.4 -6.85 L7.85 1.9 Q7.1 -0.1 5.85 -1.25 L3.75 -2.8 Q2.7 -3.7 3.25 -4.85 4.15 -6.7 6.4 -6.85" fill="#e0a000" fill-rule="evenodd" stroke="none"/>
      <path d="M-6.7 -2.05 Q-7.6 -6.8 -6.85 -7.35 -5.8 -8.1 -2.45 -8.6 0.0 -8.95 0.0 -6.25 0.0 -3.35 -3.05 -2.4 -4.1 -2.05 -5.0 0.3 L-5.65 2.6 -6.7 -2.05" fill="#ffba0f" fill-rule="evenodd" stroke="none"/>
      <path d="M-5.05 -5.45 Q-4.6 -3.8 -4.6 -2.45 -4.6 -0.85 -7.15 6.6 L-9.9 6.0 Q-12.1 5.45 -12.1 4.8 -12.1 3.15 -11.45 0.55 -10.45 -3.9 -9.55 -5.25 L-7.8 -6.8 Q-6.7 -7.45 -6.1 -7.35 -5.55 -7.2 -5.05 -5.45" fill="#ffba0f" fill-rule="evenodd" stroke="none"/>
      <path d="M-6.05 6.8 L-7.15 6.6 Q-6.85 2.1 -6.15 1.35 -5.6 0.85 -4.75 1.35 -3.95 1.9 -4.55 2.25 -5.4 2.7 -5.55 3.3 -5.95 4.5 -6.15 6.6 L-6.05 6.8" fill="#ffd05c" fill-rule="evenodd" stroke="none"/>
      <path d="M-0.25 11.45 Q-8.75 11.45 -14.3 6.2 -6.95 9.55 -0.45 9.55 6.05 9.55 13.85 6.3 9.05 11.45 -0.25 11.45" fill="#f0ab00" fill-rule="evenodd" stroke="none"/>
      <path d="M0.55 2.25 L-5.75 1.65 -5.95 1.2 -2.35 0.65 Q1.9 0.4 2.3 1.1 2.85 2.1 0.55 2.25" fill="#ffd05c" fill-rule="evenodd" stroke="none"/>
      <path d="M4.7 1.85 L4.1 1.35 Q3.65 0.9 4.25 1.0 5.7 1.25 6.15 2.4 L6.85 4.7 Q7.25 6.4 7.05 6.55 L5.95 6.8 4.7 1.85" fill="#a87800" fill-rule="evenodd" stroke="none"/>
      <path d="M6.15 7.0 Q5.8 7.75 0.0 7.75 -5.75 7.75 -6.15 7.0 L-5.8 4.65 Q-5.35 2.2 -4.9 1.9 -4.0 1.25 0.0 1.25 4.0 1.25 4.85 1.9 5.6 2.4 6.15 7.0" fill="#ffba0f" fill-rule="evenodd" stroke="none"/>
      <path d="M1.05 -8.75 L0.5 -6.35 -0.3 -4.25 -1.1 -6.35 -1.65 -8.75 Q-1.65 -10.0 -0.35 -10.0 L-0.25 -10.0 Q1.05 -10.0 1.05 -8.75" fill="#f0ab00" fill-rule="evenodd" stroke="none"/>
      <path d="M6.05 -7.25 L4.65 -5.15 3.1 -3.5 Q2.9 -3.7 3.1 -5.7 L3.5 -8.15 Q4.0 -9.35 5.2 -8.9 L5.25 -8.85 Q6.55 -8.35 6.05 -7.25" fill="#f0ab00" fill-rule="evenodd" stroke="none"/>
      <path d="M-6.65 -7.4 Q-7.15 -8.5 -5.85 -9.0 L-5.8 -9.05 Q-4.6 -9.5 -4.1 -8.3 L-3.75 -5.85 Q-3.55 -3.85 -3.75 -3.65 L-3.75 -3.6 -5.25 -5.3 -6.65 -7.4" fill="#f0ab00" fill-rule="evenodd" stroke="none"/>
      <path d="M-10.9 -2.95 L-12.7 0.6 Q-13.2 2.15 -13.3 3.8 L-13.75 3.4 -13.85 2.9 Q-13.65 0.2 -12.85 -1.0 L-10.9 -2.95" fill="#fff1ad" fill-rule="evenodd" stroke="none"/>
      <path d="M-14.35 6.05 Q-9.8 8.35 -5.35 8.9 -0.9 9.5 5.15 9.0 3.85 9.9 -2.4 9.85 -8.65 9.8 -14.35 6.05" fill="#fff1ad" fill-rule="evenodd" stroke="none"/>
      <path d="M-5.55 7.45 L-6.0 7.35 -6.2 7.05 -5.9 4.7 Q-5.5 2.25 -4.9 1.9 -3.85 1.3 1.2 1.25 L-1.75 1.55 Q-4.8 2.0 -5.1 2.6 -5.55 3.65 -5.55 7.45" fill="#a87800" fill-rule="evenodd" stroke="none"/>
      <path d="M-5.85 -9.0 Q-5.15 -8.5 -4.1 -3.9 L-6.65 -7.4 Q-6.8 -7.65 -6.55 -8.3 L-5.85 -9.0" fill="#ffc73b" fill-rule="evenodd" stroke="none"/>
      <path d="M-0.3 -4.25 L-1.25 -7.1 -1.65 -8.75 -1.3 -9.5 -0.25 -10.0 -0.3 -4.25" fill="#ffc73b" fill-rule="evenodd" stroke="none"/>
      <path d="M5.2 -8.9 L3.05 -4.35 3.6 -8.2 3.95 -8.7 Q4.4 -9.1 5.2 -8.9" fill="#ffc73b" fill-rule="evenodd" stroke="none"/>
      <path d="M0.65 8.5 L0.35 9.3 Q-1.4 9.65 -7.15 8.6 -14.9 7.2 -15.05 5.1 -15.15 3.65 -14.3 2.9 L-13.8 3.65 -14.05 4.35 -12.6 4.85 -12.7 5.5 -10.85 6.4 -6.4 7.3 -6.5 7.6 Q-6.4 7.95 -5.55 8.05 L0.65 8.5" fill="#ffba0f" fill-rule="evenodd" stroke="none"/>
      <path d="M-9.4 -5.6 L-7.25 -5.45 Q-5.7 -4.75 -5.95 -3.25 -6.1 -2.35 -8.2 4.15 L-8.65 6.25 Q-11.8 5.75 -11.95 5.05 -12.1 4.4 -10.55 -3.45 -10.3 -4.7 -9.4 -5.6" fill="#ffd46b" fill-rule="evenodd" stroke="none"/>
      <path d="M-9.4 -5.15 Q-8.6 -6.05 -7.35 -4.8 -6.1 -3.55 -7.85 -2.35 -8.8 -1.65 -9.35 -3.1 -9.9 -4.55 -9.4 -5.15" fill="#fff1ad" fill-rule="evenodd" stroke="none"/>
      <path d="M-6.2 -2.05 Q-5.7 -2.25 -5.45 -1.8 -5.2 -1.4 -5.55 -1.0 -6.05 -0.4 -6.2 -2.05" fill="#fff1ad" fill-rule="evenodd" stroke="none"/>
      <path d="M-5.9 1.25 L-4.65 1.35 Q-3.95 1.6 -4.85 2.2 -6.25 3.15 -5.9 1.25" fill="#fff1ad" fill-rule="evenodd" stroke="none"/>
      <path d="M-5.85 -9.0 L-5.7 -8.95 Q-4.65 -8.1 -4.1 -3.9 L-6.4 -8.35 -5.85 -9.0" fill="#fff1ad" fill-rule="evenodd" stroke="none"/>
      <path d="M-0.25 -10.0 L-0.4 -4.45 Q-1.25 -7.8 -1.1 -9.35 -1.0 -10.0 -0.25 -10.0" fill="#fff1ad" fill-rule="evenodd" stroke="none"/>
      <path d="M8.9 -4.65 L9.0 -5.25 9.65 -4.0 10.7 1.6 8.9 -4.65" fill="#5e3800" fill-rule="evenodd" stroke="none"/>
      <path d="M-10.1 -4.65 L-11.9 1.6 -10.85 -4.0 -10.2 -5.25 -10.1 -4.65" fill="#5e3800" fill-rule="evenodd" stroke="none"/>
      <path d="M0.25 2.05 L1.6 4.1 4.05 2.8 2.55 6.9 -1.5 4.95 0.25 2.05" fill="#cc9100" fill-rule="evenodd" stroke="none"/>
      <path d="M2.3 5.35 L2.55 6.9 -2.05 6.9 -3.55 2.8 -1.1 4.1 0.25 2.05 2.3 5.35" fill="#cc9100" fill-rule="evenodd" stroke="none"/>
      <path d="M-2.05 6.9 L-3.55 2.8 -1.1 4.1 -2.65 3.85 -2.05 6.9" fill="#a87800" fill-rule="evenodd" stroke="none"/>
      <path d="M0.45 2.75 L-1.1 4.1 0.25 2.05 1.05 3.15 0.45 2.75" fill="#a87800" fill-rule="evenodd" stroke="none"/>
      <path d="M1.65 4.15 L4.05 2.8 3.55 4.25 3.0 3.9 1.65 4.15" fill="#a87800" fill-rule="evenodd" stroke="none"/>
    </g>
  </defs>
</svg>
