<?xml version="1.0" encoding="UTF-8" standalone="no"?>
<svg xmlns:xlink="http://www.w3.org/1999/xlink" height="92.9px" width="100.7px" xmlns="http://www.w3.org/2000/svg">
  <g transform="matrix(1.0, 0.0, 0.0, 1.0, 38.65, 49.75)">
    <use height="25.8" transform="matrix(1.0, 0.0, 0.0, 1.0, -15.0, -7.35)" width="38.3" xlink:href="#shape0"/>
  </g>
  <defs>
    <g id="shape0" transform="matrix(1.0, 0.0, 0.0, 1.0, 15.0, 7.35)">
      <path d="M13.75 -2.45 Q11.95 -3.55 7.85 -0.9 7.6 -0.7 7.3 -0.9 L5.3 -2.15 Q5.05 -2.25 5.05 -2.5 L5.2 -2.9 Q10.65 -8.8 15.7 -6.9 18.0 -6.0 19.45 -3.7 20.75 -1.6 20.8 0.6 L20.7 5.15 Q20.55 7.55 20.85 8.45 21.25 9.75 23.1 10.95 L23.3 11.35 23.15 11.75 Q22.35 12.45 21.1 12.2 21.8 16.7 22.95 17.55 L23.15 17.95 23.1 18.15 22.6 18.45 Q17.55 17.7 17.15 12.3 L16.95 13.65 17.0 13.95 17.1 14.25 16.95 14.65 Q16.6 14.9 16.25 14.65 L16.2 14.55 Q14.65 12.35 15.05 7.65 L15.15 6.95 Q16.05 -1.0 13.75 -2.45" fill="#9b2400" fill-rule="evenodd" stroke="none"/>
      <path d="M15.9 -0.85 Q14.25 -6.1 7.55 -1.9 L6.4 -2.65 Q11.45 -7.8 15.85 -5.8 19.75 -4.0 19.8 0.6 20.0 3.75 19.65 7.15 19.7 9.35 21.85 11.25 21.45 11.65 20.05 10.9 L20.4 13.45 Q20.85 16.2 21.5 17.15 19.0 16.35 18.3 13.55 L17.65 9.35 Q16.6 9.35 16.2 12.25 15.75 11.1 15.9 9.3 L16.1 7.45 Q16.9 2.2 15.9 -0.85" fill="#dd750e" fill-rule="evenodd" stroke="none"/>
      <path d="M8.3 -2.7 Q11.35 -5.4 13.95 -4.25 16.3 -3.15 16.0 -0.6 15.55 -2.6 14.0 -3.35 12.0 -4.35 9.25 -2.55 L8.25 -2.65 8.3 -2.7" fill="#b74513" fill-rule="evenodd" stroke="none"/>
      <path d="M19.65 10.15 Q20.4 10.55 20.1 10.95 L20.0 11.05 19.65 10.15" fill="#b74513" fill-rule="evenodd" stroke="none"/>
      <path d="M19.8 0.6 Q20.0 3.75 19.65 7.15 19.7 9.35 21.85 11.25 21.45 11.65 20.1 10.95 20.4 10.55 19.65 10.15 18.8 8.4 19.25 5.75 19.85 2.0 19.45 -1.5 L19.8 0.6" fill="#b74513" fill-rule="evenodd" stroke="none"/>
      <path d="M19.85 14.2 Q18.55 11.15 18.85 9.6 L19.65 10.15 Q19.95 11.1 20.1 10.95 20.1 15.1 21.5 17.15 21.05 16.95 19.85 14.2" fill="#b74513" fill-rule="evenodd" stroke="none"/>
      <path d="M16.2 12.25 Q16.0 11.65 16.35 10.05 16.75 8.25 17.5 7.6 L17.6 9.35 Q16.4 10.15 16.2 12.25" fill="#b74513" fill-rule="evenodd" stroke="none"/>
      <path d="M5.05 -2.5 Q4.9 -3.0 6.95 -4.7 8.95 -6.4 9.7 -6.5 10.85 -6.85 12.0 -5.6 13.2 -4.25 12.5 -2.7 11.0 -2.8 7.6 -0.8 4.9 -2.0 5.05 -2.5" fill="#67c6dd" fill-rule="evenodd" stroke="none"/>
      <path d="M6.45 -1.35 Q9.25 -3.95 12.6 -4.6 12.95 -3.7 12.5 -2.7 11.0 -2.8 7.6 -0.8 7.05 -1.05 6.45 -1.35" fill="#1f7da6" fill-rule="evenodd" stroke="none"/>
      <path d="M13.1 8.5 Q13.0 8.9 12.55 8.9 L-12.95 8.9 -13.35 8.75 Q-14.35 7.65 -13.35 5.65 -12.85 4.6 -12.15 4.7 L11.75 4.65 Q12.25 4.65 12.55 5.15 13.7 6.6 13.1 8.5" fill="#4d63ab" fill-rule="evenodd" stroke="none"/>
      <path d="M12.05 7.7 L-12.55 7.75 Q-13.0 6.45 -12.1 5.8 L11.75 5.8 Q12.3 6.7 12.05 7.7" fill="#ffffff" fill-rule="evenodd" stroke="none"/>
      <path d="M11.75 5.8 Q12.3 6.7 12.05 7.7 L-11.45 7.75 2.0 7.05 Q-0.05 6.3 -2.35 5.8 L11.75 5.8" fill="#ccecf4" fill-rule="evenodd" stroke="none"/>
      <path d="M0.0 -3.1 Q0.65 -4.2 2.15 -4.7 L2.15 -4.75 2.2 -4.75 Q2.6 -4.85 2.75 -4.5 2.9 -4.1 2.55 -3.8 L2.7 -3.9 2.6 -3.35 Q5.0 -5.05 9.1 -2.6 10.5 -1.65 11.25 -1.5 L11.6 -1.2 11.65 -1.05 11.55 -0.75 Q11.3 -0.4 10.3 0.0 13.2 1.95 13.2 5.05 L13.2 5.8 Q13.05 7.3 12.2 9.0 11.45 10.55 11.05 10.65 L10.55 10.55 10.45 10.35 10.4 10.6 Q9.25 13.0 6.85 13.9 6.55 14.05 6.3 13.7 L6.25 13.4 6.35 13.1 Q6.55 12.7 6.55 11.2 L6.2 8.15 Q5.85 6.75 5.05 5.7 L5.1 5.85 5.1 6.0 5.0 6.35 4.55 6.5 Q1.85 6.15 0.2 3.2 L-2.7 6.2 Q-6.2 9.15 -6.9 11.1 L-7.4 11.45 -7.85 11.05 -8.0 9.85 -8.3 12.35 -8.1 14.5 -8.1 14.6 -8.25 15.0 -8.8 15.05 Q-11.45 13.95 -12.75 9.7 L-13.1 7.4 -12.9 6.0 -14.1 7.6 Q-14.3 7.9 -14.65 7.8 L-15.0 7.3 Q-14.95 5.7 -13.8 3.4 -12.6 1.0 -11.0 -0.2 L-11.9 -0.2 Q-12.25 -0.15 -12.45 -0.5 L-12.3 -1.05 Q-9.15 -3.95 -4.45 -3.5 L-2.95 -3.25 -3.7 -4.65 -3.85 -5.0 -3.8 -5.2 Q-3.65 -5.55 -3.25 -5.45 -1.2 -5.1 0.0 -3.1" fill="#9b2400" fill-rule="evenodd" stroke="none"/>
      <path d="M1.55 -3.45 L1.75 -1.45 Q4.05 -3.7 6.4 -3.0 L10.0 -0.95 Q9.65 -0.45 8.45 -0.2 12.25 1.85 12.25 5.15 12.25 6.8 11.55 8.0 11.15 6.9 10.15 5.6 10.6 6.7 10.1 8.6 9.5 11.1 7.5 12.3 7.95 11.0 7.2 8.2 6.35 4.7 4.05 3.6 3.65 4.85 3.8 5.25 1.1 4.0 0.0 0.6 0.1 2.3 -2.5 4.7 -6.25 8.25 -7.0 9.3 -7.9 6.0 -5.85 3.8 -9.75 6.9 -9.25 13.45 -11.05 12.3 -11.85 9.4 -12.7 6.15 -11.15 3.8 -12.65 4.3 -13.5 5.15 -12.05 0.55 -8.6 -0.55 -9.45 -1.1 -10.5 -1.15 -8.45 -2.55 -5.45 -2.6 -2.65 -2.6 -1.85 -1.6 -1.6 -2.65 -2.15 -4.0 -1.15 -3.35 0.1 -1.25 0.85 -2.85 1.55 -3.45" fill="#dd750e" fill-rule="evenodd" stroke="none"/>
      <path d="M-9.35 13.35 Q-10.05 9.6 -9.7 7.6 -9.2 4.9 -6.75 2.45 L-5.95 3.9 Q-9.75 7.1 -9.25 13.45 L-9.35 13.35" fill="#b74513" fill-rule="evenodd" stroke="none"/>
      <path d="M-6.95 9.2 Q-6.8 7.2 -3.9 4.9 -0.75 2.4 -0.15 0.1 0.4 1.25 -0.8 2.9 -5.1 6.7 -6.95 9.2" fill="#b74513" fill-rule="evenodd" stroke="none"/>
      <path d="M2.1 0.9 Q2.25 1.85 4.05 3.65 3.75 4.25 3.75 4.65 2.3 2.8 2.1 0.9" fill="#b74513" fill-rule="evenodd" stroke="none"/>
      <path d="M9.4 -1.35 L5.95 -1.9 Q3.5 -2.4 2.05 -0.35 L1.85 -1.55 Q3.85 -3.5 5.85 -3.15 7.15 -2.95 9.4 -1.35" fill="#b74513" fill-rule="evenodd" stroke="none"/>
      <path d="M-13.45 5.1 L-11.8 3.0 -10.0 1.05 Q-10.0 2.3 -11.2 3.85 -12.3 3.85 -13.45 5.1" fill="#b74513" fill-rule="evenodd" stroke="none"/>
      <path d="M1.75 -1.45 L1.0 -0.95 1.55 -3.45 1.75 -1.45" fill="#b74513" fill-rule="evenodd" stroke="none"/>
      <path d="M7.0 -0.95 Q8.6 -1.0 8.95 -1.65 L10.0 -0.95 Q9.65 -0.45 8.45 -0.2 12.25 1.85 12.25 5.15 12.25 6.8 11.55 8.0 11.15 6.9 10.15 5.6 10.55 6.6 10.15 8.45 9.6 10.85 7.85 12.1 10.3 5.3 6.0 2.05 L8.35 2.5 Q10.35 3.15 11.0 5.05 11.0 2.7 9.15 1.05 7.2 -0.7 5.0 0.05 5.4 -0.9 7.0 -0.95" fill="#b74513" fill-rule="evenodd" stroke="none"/>
      <path d="M-2.2 -4.0 Q-1.6 -3.85 -0.9 -2.9 L0.1 -1.3 -0.85 -1.2 Q-1.0 -2.55 -1.9 -3.65 L-2.2 -4.0" fill="#b74513" fill-rule="evenodd" stroke="none"/>
      <path d="M-7.5 -0.6 L-8.2 -0.7 -7.5 -1.15 -7.45 -1.05 -7.55 -0.85 -6.95 -0.65 Q-6.85 -0.5 -7.45 0.25 L-6.0 -0.1 -6.25 0.85 -5.1 0.6 Q-4.5 0.5 -4.65 1.45 -3.35 0.6 -3.45 1.45 L-2.9 0.7 Q-2.6 0.8 -2.5 1.35 -2.25 0.95 -2.15 0.05 -1.9 0.1 -1.7 0.3 L-1.6 -0.35 -1.2 0.8 -1.85 0.5 -2.0 1.85 -2.85 1.3 -3.55 2.35 Q-3.55 1.3 -4.0 1.35 L-4.6 2.0 -5.25 2.6 -5.25 1.05 Q-6.45 1.65 -7.15 1.65 -6.65 0.75 -6.85 0.35 L-8.45 0.7 -7.5 -0.6" fill="#ffffff" fill-rule="evenodd" stroke="none"/>
      <path d="M7.85 -4.2 L9.0 -5.5 10.7 -5.6 Q9.65 -5.25 7.85 -4.2" fill="#ffffff" fill-rule="evenodd" stroke="none"/>
    </g>
  </defs>
</svg>
