<?xml version="1.0" encoding="UTF-8" standalone="no"?>
<svg xmlns:xlink="http://www.w3.org/1999/xlink" height="92.9px" width="100.7px" xmlns="http://www.w3.org/2000/svg">
  <g transform="matrix(1.0, 0.0, 0.0, 1.0, 38.65, 49.75)">
    <use height="35.85" transform="matrix(1.0, 0.0, 0.0, 1.0, -23.4, -11.2)" width="44.7" xlink:href="#shape0"/>
  </g>
  <defs>
    <g id="shape0" transform="matrix(1.0, 0.0, 0.0, 1.0, 23.4, 11.2)">
      <path d="M15.9 11.1 Q16.95 12.45 17.05 13.3 L17.15 17.2 Q17.15 20.65 16.1 20.65 15.2 20.65 15.2 16.0 15.1 13.3 13.05 11.4 L13.05 9.6 13.55 9.55 Q14.7 9.55 15.9 11.1 M16.4 16.2 L16.55 16.15 Q16.25 11.55 13.65 10.3 L15.65 13.5 Q16.4 14.7 16.4 16.2 M-11.8 7.35 L-11.8 7.8 Q-11.8 10.5 -13.65 12.85 L-14.3 15.65 Q-14.8 17.7 -15.5 17.7 -16.4 17.7 -16.4 16.9 -16.4 14.95 -15.4 12.9 L-15.55 12.55 -14.6 11.05 -13.65 9.05 -12.4 6.95 Q-11.9 6.95 -11.8 7.35" fill="#000000" fill-rule="evenodd" stroke="none"/>
      <path d="M-20.25 14.2 L-20.05 16.65 Q-20.6 17.15 -21.7 16.85 -22.85 16.55 -23.4 15.75 -21.4 15.65 -20.25 14.2" fill="#3a2821" fill-rule="evenodd" stroke="none"/>
      <path d="M9.1 -0.7 Q12.15 -0.7 13.4 3.0 13.6 3.6 14.9 3.9 16.3 4.25 16.7 5.15 17.0 5.9 16.85 7.15 16.7 8.1 17.45 8.85 20.1 11.5 19.1 12.75 18.6 13.4 18.95 14.55 L19.65 16.8 20.05 19.1 Q20.15 20.3 19.35 21.4 18.55 22.45 19.2 23.5 19.5 24.0 19.95 24.3 17.55 23.2 16.45 22.55 L13.0 22.5 Q18.4 19.0 15.9 17.6 14.35 16.7 14.3 15.2 L14.65 12.8 Q13.85 6.55 4.95 5.3 1.8 4.9 -5.4 5.4 -12.1 5.9 -13.25 8.2 -13.6 11.15 -14.85 12.75 -15.8 13.4 -15.9 14.4 -15.95 15.45 -15.15 16.0 -12.0 18.25 -14.6 20.3 -15.55 21.05 -14.15 22.0 -12.9 22.95 -11.8 22.8 -13.2 23.95 -15.0 23.4 L-16.5 22.65 -19.6 24.35 -20.2 22.95 Q-20.65 21.4 -20.0 20.6 -18.9 19.4 -19.95 17.3 -21.0 15.15 -20.3 14.2 -19.6 13.3 -19.75 11.5 -19.85 9.8 -18.75 8.6 -17.8 7.6 -17.55 6.1 -17.35 4.75 -15.85 3.45 -14.8 2.55 -14.3 0.9 -13.95 -0.1 -11.4 -0.85 -9.25 -1.45 -8.15 -2.8 -7.3 -3.8 -5.1 -3.9 L-2.95 -3.4 -0.7 -3.1 2.2 -3.6 Q3.65 -3.75 4.8 -2.95 L6.85 -1.3 Q7.75 -0.7 9.1 -0.7" fill="#3a2821" fill-rule="evenodd" stroke="none"/>
      <path d="M1.15 -2.55 Q3.2 -3.0 4.35 -2.25 L5.55 -1.3 Q7.15 0.15 9.1 0.15 11.4 0.15 12.6 3.25 13.0 4.35 14.6 4.7 15.65 4.9 15.9 5.5 L16.1 6.3 15.95 7.55 Q15.95 8.5 16.85 9.45 18.55 11.15 18.55 11.85 L18.45 12.2 Q17.95 12.85 17.95 13.6 17.95 14.3 18.35 15.4 L18.8 16.9 19.0 18.05 19.2 19.35 Q19.2 20.15 18.65 20.9 18.1 21.65 18.1 22.45 L16.85 21.85 15.55 21.6 Q17.4 19.85 17.4 18.55 L17.4 18.5 Q17.4 17.5 16.35 16.85 15.15 16.15 15.15 15.05 L15.35 13.65 15.55 12.8 15.5 12.7 Q14.2 2.55 -4.85 4.5 L-5.45 4.55 Q-10.8 4.95 -12.75 6.35 -14.15 7.35 -14.6 9.8 -14.9 11.45 -15.5 12.2 -16.65 13.1 -16.75 14.55 L-16.75 14.6 Q-16.75 15.9 -15.65 16.7 -14.3 17.65 -14.3 18.4 -14.3 18.95 -15.15 19.65 -15.8 20.15 -15.8 20.95 L-15.65 21.55 -14.85 22.55 -15.95 22.0 -16.4 21.65 -19.2 23.2 -19.55 21.8 -19.35 21.2 Q-18.55 20.25 -18.55 19.15 -18.55 18.15 -19.3 16.75 L-19.8 15.25 -19.6 14.75 Q-18.85 13.65 -18.85 12.35 L-18.9 11.0 Q-18.9 10.0 -18.15 9.2 -17.0 8.05 -16.75 6.4 -16.55 5.2 -15.3 4.1 -13.95 2.95 -13.55 1.4 -13.3 0.6 -11.15 0.0 -8.7 -0.75 -7.55 -2.15 -6.9 -2.95 -5.05 -3.05 L-3.4 -2.7 Q-2.1 -2.1 -0.65 -2.25 L1.15 -2.55" fill="#724e47" fill-rule="evenodd" stroke="none"/>
      <path d="M-16.0 11.35 Q-15.9 12.4 -17.9 14.8 -18.4 16.2 -15.35 18.0 -14.85 18.95 -15.7 19.6 L-16.5 20.45 -14.95 22.45 Q-16.75 21.95 -17.15 20.4 -17.35 19.6 -16.4 19.2 -15.55 18.75 -15.8 18.25 L-17.5 16.9 Q-18.7 16.0 -18.45 14.9 -18.25 14.05 -17.25 12.85 -16.45 11.85 -16.6 11.05 -17.15 8.35 -16.45 7.75 -17.0 8.75 -16.0 11.35" fill="#ac7265" fill-rule="evenodd" stroke="none"/>
      <path d="M-22.1 16.0 Q-19.95 15.45 -19.35 14.05 -19.85 15.5 -19.75 15.9 L-22.1 16.0" fill="#724e47" fill-rule="evenodd" stroke="none"/>
      <path d="M16.2 12.05 Q16.9 12.6 17.1 13.5 17.3 14.5 16.65 14.9 15.95 15.45 17.85 17.05 18.3 17.45 17.95 18.7 17.55 20.05 17.9 20.5 18.6 21.4 17.7 22.25 L15.55 21.6 Q17.1 20.35 17.35 19.1 17.65 17.7 16.35 16.85 L15.65 16.4 Q16.1 12.85 14.4 9.5 L16.2 12.05" fill="#563228" fill-rule="evenodd" stroke="none"/>
      <path d="M-18.25 17.9 Q-20.0 16.2 -19.7 14.95 -18.0 12.55 -18.0 11.35 -17.85 11.7 -19.2 14.95 -19.45 15.55 -17.8 17.45 -16.55 19.0 -18.75 21.1 -19.35 21.65 -19.15 22.35 L-18.8 23.0 -19.2 23.2 Q-19.65 22.2 -19.35 21.2 -17.15 19.0 -18.25 17.9" fill="#ac7265" fill-rule="evenodd" stroke="none"/>
      <path d="M-21.15 15.75 L-19.45 14.5 -19.6 15.7 -21.15 15.75" fill="#ac7265" fill-rule="evenodd" stroke="none"/>
      <path d="M20.75 18.0 Q21.9 21.6 20.65 23.5 20.1 24.3 19.3 24.3 18.0 24.4 16.6 22.75 15.2 21.1 14.5 18.65 13.8 16.45 14.05 14.7 L14.45 15.35 Q14.35 16.85 14.85 18.45 16.4 24.05 19.25 23.95 20.4 23.9 20.8 22.2 21.2 20.5 20.55 18.2 19.05 12.8 16.25 12.7 L16.05 12.3 Q19.1 12.3 20.75 18.0" fill="#000000" fill-rule="evenodd" stroke="none"/>
      <path d="M16.45 13.85 L16.45 13.5 Q18.5 13.7 19.85 18.1 21.3 22.7 19.2 22.7 17.1 22.6 15.65 18.05 15.3 17.0 15.2 15.65 L15.6 15.55 Q15.6 16.65 16.0 17.85 17.35 22.2 19.35 22.3 19.6 22.3 19.75 22.1 20.6 21.05 19.75 18.3 18.45 14.15 16.45 13.85" fill="#000000" fill-rule="evenodd" stroke="none"/>
      <path d="M20.55 18.2 Q21.2 20.5 20.8 22.2 20.4 23.9 19.25 23.95 16.4 24.05 14.85 18.45 14.35 16.85 14.45 15.35 L15.15 15.65 15.2 15.65 Q15.3 17.0 15.65 18.05 17.1 22.6 19.2 22.7 21.3 22.7 19.85 18.1 18.5 13.7 16.45 13.5 L16.25 12.7 Q19.05 12.8 20.55 18.2" fill="#ffb800" fill-rule="evenodd" stroke="none"/>
      <path d="M-15.6 13.3 L-15.7 12.75 Q-12.6 14.7 -14.5 20.05 -15.6 23.35 -17.95 24.45 L-20.4 24.65 Q-22.0 24.0 -22.45 21.85 -22.95 19.65 -22.05 17.15 -20.95 13.8 -18.55 12.7 L-17.2 12.4 -17.5 12.85 Q-20.35 13.3 -21.8 17.3 -22.65 19.65 -22.25 21.65 -21.8 23.7 -20.35 24.25 -18.85 24.8 -17.25 23.5 -15.55 22.25 -14.75 19.9 -13.05 15.25 -15.6 13.3" fill="#000000" fill-rule="evenodd" stroke="none"/>
      <path d="M-15.95 14.65 L-15.9 14.45 Q-14.55 16.3 -15.65 19.5 -16.3 21.45 -17.65 22.5 -19.0 23.6 -20.15 23.1 -21.3 22.65 -21.65 21.0 -21.95 19.3 -21.3 17.35 -20.1 13.8 -17.6 13.6 L-17.55 14.0 -18.45 14.2 Q-20.15 15.0 -21.15 17.45 -21.8 19.2 -21.5 20.8 -21.2 22.35 -20.15 22.75 L-18.7 22.6 Q-16.9 21.85 -16.0 19.35 -14.75 16.15 -15.95 14.65" fill="#000000" fill-rule="evenodd" stroke="none"/>
      <path d="M-15.9 14.45 Q-15.55 14.0 -15.55 13.45 L-15.6 13.3 Q-13.05 15.25 -14.75 19.9 -15.55 22.25 -17.25 23.5 -18.85 24.8 -20.35 24.25 -21.8 23.7 -22.25 21.65 -22.65 19.65 -21.8 17.3 -20.35 13.3 -17.5 12.85 L-17.65 13.45 -17.6 13.6 Q-20.1 13.8 -21.3 17.35 -21.95 19.3 -21.65 21.0 -21.3 22.65 -20.15 23.1 -19.0 23.6 -17.65 22.5 -16.3 21.45 -15.65 19.5 -14.55 16.3 -15.9 14.45" fill="#ffb800" fill-rule="evenodd" stroke="none"/>
      <path d="M-15.55 15.15 L-15.2 15.1 -14.4 15.15 Q-13.8 17.45 -14.75 19.9 -15.95 23.3 -18.45 24.2 L-19.8 23.2 Q-17.1 23.65 -15.65 19.5 -14.8 17.0 -15.55 15.15" fill="#ffff38" fill-rule="evenodd" stroke="none"/>
      <path d="M-14.55 17.85 L-14.25 18.0 -14.75 19.9 Q-15.4 21.85 -16.8 23.15 -17.25 22.9 -17.75 22.6 -16.4 21.6 -15.65 19.5 -15.3 18.4 -15.25 17.6 L-14.55 17.85" fill="#ffffca" fill-rule="evenodd" stroke="none"/>
      <path d="M19.5 22.6 L18.45 23.8 Q17.45 23.4 16.55 22.1 L17.35 21.35 Q18.3 22.65 19.2 22.7 L19.5 22.6" fill="#ffff38" fill-rule="evenodd" stroke="none"/>
      <path d="M10.25 4.0 Q11.9 5.0 11.8 5.75 L11.35 6.95 13.05 8.6 Q14.8 9.85 14.75 11.2 14.75 11.95 13.15 13.25 11.8 14.35 12.2 14.85 15.05 18.0 9.5 18.25 12.3 17.55 10.7 15.6 8.85 13.4 10.4 12.45 12.4 11.25 11.05 10.4 8.95 9.6 8.45 9.05 L7.35 6.8 Q8.45 9.5 6.05 10.5 4.35 11.15 4.65 12.65 4.9 14.05 6.4 14.85 4.7 14.75 3.35 13.65 1.9 12.45 2.2 11.15 2.4 10.15 3.7 9.15 4.8 8.3 4.7 8.0 4.65 7.8 2.9 7.35 1.3 6.95 1.2 5.7 -0.2 5.7 -1.6 6.5 -3.05 7.35 -2.8 8.2 L-1.1 10.25 Q0.15 11.75 -0.6 13.3 -1.75 15.85 -3.1 15.8 -0.65 13.9 -2.3 12.25 L-4.9 10.55 Q-6.55 9.4 -6.2 8.05 -6.0 7.2 -5.05 5.95 -4.7 5.5 -5.9 5.4 -7.4 5.3 -9.05 6.35 -10.65 7.4 -10.6 8.35 L-8.35 9.7 Q-6.4 10.65 -7.0 12.45 -7.3 13.3 -9.4 14.6 -11.3 15.75 -11.15 16.75 -10.95 18.6 -9.75 19.7 -13.55 18.6 -13.0 16.0 -12.7 14.65 -11.35 13.55 -10.2 12.55 -10.25 11.9 -10.3 11.5 -12.65 10.8 -14.75 10.2 -13.95 8.1 -12.9 5.25 -10.35 4.2 -7.5 3.0 -0.55 3.05 L5.75 2.95 Q8.55 3.0 10.25 4.0" fill="#3a2821" fill-rule="evenodd" stroke="none"/>
      <path d="M11.85 3.45 Q12.6 3.85 12.1 4.95 L10.5 6.95 10.5 7.0 Q10.5 7.8 12.05 8.95 13.9 10.2 13.9 11.15 L13.9 11.2 12.65 12.55 Q11.3 13.65 11.2 14.4 L11.55 15.35 11.15 14.85 10.35 13.6 10.8 13.2 Q12.5 12.15 12.5 11.15 12.5 10.0 10.3 9.15 L8.7 8.25 Q7.75 7.6 7.05 5.85 L7.15 8.2 Q6.85 9.25 5.75 9.7 3.75 10.5 3.75 12.3 L3.85 12.95 3.35 12.45 Q3.0 12.05 3.0 11.55 L3.0 11.3 Q3.2 10.6 4.4 9.7 5.55 8.8 5.55 8.1 L5.5 7.75 Q5.25 6.95 3.7 6.65 2.1 6.3 2.05 5.65 L2.0 4.85 1.2 4.85 Q-1.8 4.85 -3.3 6.85 -3.65 7.35 -3.65 7.95 L-3.6 8.5 -2.45 10.0 Q-1.15 11.4 -1.15 12.1 L-1.25 12.35 -1.7 11.65 Q-2.15 11.25 -3.35 10.55 -5.4 9.3 -5.4 8.55 L-5.4 8.25 -4.5 6.65 Q-4.05 6.1 -4.05 5.65 L-4.15 5.25 Q-4.4 4.65 -5.8 4.55 -8.35 4.35 -10.5 6.4 -11.45 7.45 -11.45 8.3 L-11.4 8.4 Q-11.35 9.4 -9.5 10.1 -7.7 10.9 -7.7 11.6 L-7.8 12.15 Q-8.0 12.7 -9.6 13.7 -12.05 15.2 -12.05 16.55 L-11.9 17.4 -12.2 16.5 -12.15 16.2 Q-11.95 15.15 -10.7 14.1 -9.4 13.0 -9.4 12.05 L-9.4 11.8 Q-9.55 10.6 -11.7 10.15 -13.1 9.8 -13.3 9.5 L-13.35 9.25 -13.15 8.4 -12.7 7.0 -12.85 5.65 Q-10.8 2.6 -0.85 2.35 L8.9 2.95 8.9 3.05 9.65 3.05 Q11.25 3.05 11.85 3.45" fill="#724e47" fill-rule="evenodd" stroke="none"/>
      <path d="M-10.0 2.75 Q-10.15 3.65 -11.45 3.75 -13.25 3.85 -12.6 6.6 L-12.9 7.85 Q-13.2 8.85 -12.65 9.55 -12.15 10.2 -11.35 10.25 -13.6 10.15 -13.6 8.9 -12.8 6.9 -13.3 5.8 -13.7 4.95 -13.1 3.95 -12.5 2.95 -11.45 2.95 -10.85 2.95 -10.8 2.05 -10.75 0.9 -9.6 0.35 -7.45 -0.7 -6.4 -0.45 -9.1 -0.2 -9.9 1.3 L-10.0 2.75" fill="#ac7265" fill-rule="evenodd" stroke="none"/>
      <path d="M-3.8 -0.15 Q-4.4 0.45 -3.6 0.9 -2.15 1.9 -3.55 2.35 -5.75 3.05 -4.15 4.0 -2.45 5.1 -3.55 6.25 -5.7 8.55 -3.25 9.95 -0.7 11.35 -1.25 12.35 -1.45 11.65 -3.55 10.45 -6.4 8.8 -4.25 6.15 -3.45 5.15 -4.25 4.5 L-5.4 3.5 Q-5.65 2.4 -3.85 2.1 -2.65 1.85 -3.9 1.15 -5.0 0.6 -4.15 -0.05 L-3.05 -0.6 -3.8 -0.15" fill="#ac7265" fill-rule="evenodd" stroke="none"/>
      <path d="M2.2 -1.0 Q3.95 -1.1 4.25 -0.35 4.55 0.3 3.55 0.6 2.55 0.9 2.65 1.1 2.8 1.4 4.65 2.0 6.15 2.5 5.75 3.15 5.4 3.75 3.85 3.85 2.55 3.95 2.45 5.05 2.4 5.75 4.1 6.2 5.9 6.65 6.0 7.65 6.1 8.65 5.15 9.6 L3.8 10.7 Q3.3 11.4 3.55 12.2 L3.85 12.9 3.2 12.15 Q2.65 11.25 3.45 10.45 L5.05 9.1 Q5.65 8.5 5.5 7.75 5.4 7.1 3.45 6.6 1.75 6.15 2.0 4.85 2.25 3.45 3.55 3.4 L5.25 3.15 Q5.6 2.7 4.1 2.3 2.3 1.85 2.05 1.15 1.8 0.45 3.15 0.15 4.35 -0.1 3.95 -0.45 3.4 -0.95 1.9 -0.9 L0.5 -0.8 2.2 -1.0" fill="#ac7265" fill-rule="evenodd" stroke="none"/>
      <path d="M12.3 10.0 Q13.25 11.6 11.45 13.3 10.7 14.0 11.5 14.95 12.45 15.95 12.0 16.8 12.25 16.25 11.15 14.85 10.35 13.8 10.4 13.55 10.4 13.4 11.3 12.75 13.05 11.5 12.1 10.2 L9.75 8.7 Q8.15 7.55 9.2 6.2 11.15 3.85 9.3 3.5 5.8 2.85 6.6 1.65 7.0 1.15 6.45 0.6 5.95 0.15 5.25 0.1 6.1 0.0 6.7 0.65 7.25 1.25 7.0 1.7 6.9 1.85 9.95 3.3 11.5 4.05 9.65 6.3 8.85 7.3 10.25 8.4 L12.3 10.0" fill="#ac7265" fill-rule="evenodd" stroke="none"/>
      <path d="M6.15 9.55 Q6.7 9.25 6.7 7.8 6.65 6.3 5.85 5.85 3.75 4.75 4.4 4.5 6.35 3.6 6.5 2.5 6.75 3.25 5.75 4.65 5.6 4.85 6.1 5.05 6.8 5.35 7.05 6.05 8.0 8.75 6.15 9.55" fill="#563228" fill-rule="evenodd" stroke="none"/>
      <path d="M-1.45 0.7 Q-0.6 1.1 -0.55 1.5 -0.5 2.05 -1.5 3.25 -1.75 3.55 -0.9 3.6 0.15 3.6 0.25 4.1 0.35 4.45 -1.35 5.45 L-2.95 6.45 -1.3 4.5 Q-1.05 4.2 -1.75 3.95 -2.5 3.65 -2.5 3.25 -2.5 2.85 -1.75 2.4 -1.1 2.0 -1.25 1.5 -1.4 1.0 -2.1 0.7 -2.6 0.4 -2.4 0.15 L-1.45 0.7" fill="#563228" fill-rule="evenodd" stroke="none"/>
      <path d="M14.85 6.75 L15.15 7.95 Q15.6 9.15 16.3 9.45 18.85 10.35 17.9 12.05 17.0 13.9 17.55 14.5 19.0 15.95 18.15 17.0 17.4 17.8 18.5 18.85 19.4 19.75 18.0 21.75 19.1 19.85 18.3 19.3 16.25 17.95 17.65 16.9 18.85 16.05 17.3 15.05 16.75 14.65 16.75 13.55 16.8 12.55 17.2 12.0 18.2 10.55 16.05 9.85 15.25 9.65 14.95 8.15 L14.85 6.75" fill="#563228" fill-rule="evenodd" stroke="none"/>
      <path d="M-7.4 1.35 Q-7.05 1.9 -7.4 2.1 -9.05 3.2 -8.95 3.4 -8.4 4.9 -9.65 5.5 L-11.4 7.3 Q-11.1 6.25 -9.9 5.05 -9.45 4.6 -9.55 4.1 L-9.65 3.05 Q-9.55 2.55 -8.75 2.2 L-7.75 1.8 Q-7.65 1.7 -7.85 1.1 -8.05 0.55 -7.7 0.5 -7.85 0.7 -7.4 1.35" fill="#563228" fill-rule="evenodd" stroke="none"/>
      <path d="M-12.65 0.85 Q-13.2 2.55 -13.7 3.35 L-15.15 4.75 Q-16.2 5.7 -16.3 6.25 -16.5 8.2 -17.6 9.15 L-18.9 12.05 -18.85 11.0 Q-18.65 9.8 -17.95 9.0 -17.55 8.55 -16.7 5.75 -16.6 5.2 -14.55 3.3 -13.65 2.5 -13.2 0.75 L-10.95 -0.1 Q-11.95 0.3 -12.65 0.85" fill="#ac7265" fill-rule="evenodd" stroke="none"/>
      <path d="M16.65 7.65 L17.2 8.2 Q18.0 8.65 19.4 7.85 18.8 9.4 17.85 9.5 16.7 8.75 16.65 7.65" fill="#3a2821" fill-rule="evenodd" stroke="none"/>
      <path d="M15.95 7.55 L16.2 8.2 Q16.55 8.8 17.2 8.85 L16.4 9.15 15.95 7.55" fill="#724e47" fill-rule="evenodd" stroke="none"/>
      <path d="M3.55 -10.95 Q8.0 -10.1 10.35 -5.45 12.1 -1.95 12.05 1.6 8.2 1.1 1.9 2.55 L-8.05 4.85 -10.15 1.8 Q-11.35 -0.6 -10.45 -3.55 -9.35 -6.95 -6.15 -9.15 -2.05 -11.95 3.55 -10.95" fill="#2d3030" fill-rule="evenodd" stroke="none"/>
      <path d="M1.9 2.55 Q8.2 1.1 12.05 1.6 L11.85 3.05 15.45 7.65 Q17.0 10.15 13.3 9.35 8.65 8.35 3.5 10.35 -1.4 12.2 -2.2 11.9 -3.9 11.25 -5.75 8.85 -7.35 6.8 -7.85 5.3 L-8.05 4.85 1.9 2.55" fill="#000000" fill-rule="evenodd" stroke="none"/>
      <path d="M-9.75 -3.75 Q-8.45 -8.3 -2.9 -10.0 3.25 -11.9 7.65 -7.75 11.65 -3.9 10.95 3.35 L12.95 5.8 Q14.75 8.05 15.0 8.65 L13.45 8.45 Q7.9 7.3 1.55 10.3 -0.95 11.4 -1.9 11.05 -3.4 10.5 -5.1 8.3 -6.55 6.4 -7.0 5.05 -7.25 4.35 -7.95 3.55 -10.7 -0.15 -9.75 -3.75" fill="#ffffff" fill-rule="evenodd" stroke="none"/>
      <path d="M3.0 -6.7 Q7.7 -6.75 8.7 -5.65 11.8 -2.25 10.95 2.95 8.7 2.15 4.25 2.45 3.45 2.5 -0.75 3.85 -4.25 5.0 -7.15 4.55 -5.55 -3.0 -3.7 -4.95 -2.0 -6.65 3.0 -6.7" fill="#a4a4a7" fill-rule="evenodd" stroke="none"/>
      <path d="M3.7 2.95 L5.95 2.75 10.65 3.3 14.85 8.6 9.3 8.05 Q8.8 5.1 6.4 4.0 3.95 3.4 3.7 2.95" fill="#d7d7d9" fill-rule="evenodd" stroke="none"/>
      <path d="M-0.35 -3.65 L2.35 -4.0 3.0 0.15 Q0.85 0.2 0.25 0.6 L0.55 1.6 Q0.9 2.45 -0.75 3.0 L-4.75 3.7 -2.1 1.85 Q-3.3 1.9 -4.6 1.35 L-5.6 0.8 -3.4 0.7 -2.2 0.35 Q-3.05 0.3 -3.1 -2.55 -3.1 -3.15 -0.35 -3.65" fill="#2d3030" fill-rule="evenodd" stroke="none"/>
      <path d="M2.1 -3.65 L2.6 -0.15 Q0.55 0.0 0.05 0.35 L-0.2 0.75 0.05 1.4 0.3 1.9 0.25 2.0 Q0.15 2.35 -0.85 2.7 L-3.2 3.3 -1.9 2.25 -1.4 1.65 -4.25 1.15 Q-2.0 1.15 -1.75 0.55 -1.55 0.2 -2.2 -0.15 -2.75 -1.1 -2.8 -2.5 -2.55 -3.2 2.1 -3.65" fill="#ffffff" fill-rule="evenodd" stroke="none"/>
      <path d="M3.0 -4.15 Q8.5 -4.6 8.65 -3.6 9.1 -0.8 8.2 -0.6 L9.45 -0.45 11.65 -0.75 Q10.3 0.6 8.35 0.9 9.3 1.75 11.3 2.3 10.2 2.75 7.25 2.25 5.55 1.95 5.7 1.1 L5.85 0.05 3.1 0.05 3.0 -4.15" fill="#2d3030" fill-rule="evenodd" stroke="none"/>
      <path d="M10.4 -0.15 L7.65 0.8 8.25 1.3 Q8.7 1.75 9.7 2.15 L7.3 1.9 Q6.25 1.75 6.05 1.4 L6.05 1.3 6.15 0.75 6.3 0.1 6.0 -0.25 3.4 -0.3 3.35 -3.85 8.3 -3.55 Q8.55 -2.15 8.15 -1.1 L7.8 -0.35 10.4 -0.15" fill="#ffffff" fill-rule="evenodd" stroke="none"/>
      <path d="M2.85 -6.7 Q3.85 -4.8 6.9 -5.7 7.1 0.25 3.55 2.3 0.6 1.25 -0.9 -2.05 L-1.8 -5.2 Q1.8 -4.5 2.85 -6.7" fill="#2d3030" fill-rule="evenodd" stroke="none"/>
      <path d="M3.0 -6.0 Q4.1 -4.7 6.55 -5.15 6.55 -0.2 3.6 1.6 -0.15 0.25 -1.15 -4.75 1.7 -4.3 3.0 -6.0" fill="#fdf200" fill-rule="evenodd" stroke="none"/>
      <path d="M3.75 -5.45 Q4.85 -4.85 6.6 -5.15 6.6 -0.2 3.65 1.6 L2.45 1.05 Q4.45 -1.45 3.75 -5.45" fill="#ffb800" fill-rule="evenodd" stroke="none"/>
      <path d="M1.85 -3.4 L0.1 -3.75 2.6 -4.45 3.0 0.35 Q1.25 -0.45 0.85 -1.0 L2.45 -1.05 1.6 -1.85 2.35 -1.95 1.55 -2.7 2.25 -2.8 1.85 -3.4" fill="#2d3030" fill-rule="evenodd" stroke="none"/>
      <path d="M2.85 -1.6 L3.3 -2.25 Q4.15 -2.5 4.2 -3.15 4.2 -3.85 3.2 -3.9 L2.2 -3.8 3.65 -4.4 Q5.2 -4.55 5.2 -3.1 5.2 -1.75 3.85 -1.7 L4.9 -1.0 Q5.15 -0.25 5.9 0.1 4.6 0.3 4.15 -0.5 L2.85 -1.6" fill="#2d3030" fill-rule="evenodd" stroke="none"/>
      <path d="M-9.85 10.85 Q-7.5 12.65 -10.0 14.0 -11.6 14.9 -11.9 16.25 L-11.9 17.4 -12.2 16.5 Q-12.2 15.3 -10.5 13.9 -8.55 12.25 -9.85 10.85" fill="#ac7265" fill-rule="evenodd" stroke="none"/>
      <path d="M-11.4 9.7 Q-12.45 9.05 -12.3 8.0 L-12.2 7.75 Q-12.2 8.6 -11.1 9.3 -8.25 11.05 -8.05 12.15 -8.2 11.75 -8.85 11.25 L-11.4 9.7" fill="#ac7265" fill-rule="evenodd" stroke="none"/>
    </g>
  </defs>
</svg>
