<?xml version="1.0" encoding="UTF-8" standalone="no"?>
<svg xmlns:xlink="http://www.w3.org/1999/xlink" height="92.9px" width="100.7px" xmlns="http://www.w3.org/2000/svg">
  <g transform="matrix(1.0, 0.0, 0.0, 1.0, 38.65, 49.75)">
    <use height="18.85" transform="matrix(1.0, 0.0, 0.0, 1.0, 2.25, -6.95)" width="19.65" xlink:href="#sprite0"/>
    <use height="18.85" transform="matrix(-1.0, 0.0, 0.0, 1.0, -2.35, -7.05)" width="19.65" xlink:href="#sprite0"/>
  </g>
  <defs>
    <g id="sprite0" transform="matrix(1.0, 0.0, 0.0, 1.0, 9.8, 9.4)">
      <use height="18.85" transform="matrix(1.0, 0.0, 0.0, 1.0, -9.8, -9.4)" width="19.65" xlink:href="#shape0"/>
    </g>
    <g id="shape0" transform="matrix(1.0, 0.0, 0.0, 1.0, 9.8, 9.4)">
      <path d="M8.85 -0.45 Q11.1 2.6 8.2 3.0 L6.8 7.1 Q4.65 10.8 1.1 8.65 -1.95 6.55 -1.75 3.75 L-2.05 4.55 Q-6.25 -0.1 -9.8 -1.6 -9.7 -2.95 -8.95 -4.55 -7.45 -7.75 -4.3 -8.85 L-2.2 -9.4 Q0.15 -9.35 1.6 -6.5 L2.7 -4.65 Q2.65 -6.65 2.0 -7.65 1.9 -8.25 2.15 -8.75 2.6 -9.7 4.2 -8.95 L6.7 -7.0 Q9.1 -4.3 8.85 -0.45" fill="#271c12" fill-rule="evenodd" stroke="none"/>
      <path d="M3.55 -1.55 L3.95 -1.65 Q6.55 -1.6 7.85 -0.4 9.75 1.7 7.55 1.9 7.15 1.15 5.75 0.7 L4.4 0.35 3.55 -1.55" fill="#ffe642" fill-rule="evenodd" stroke="none"/>
      <path d="M7.9 -0.25 L3.9 -1.25 3.15 -1.85 Q2.7 -0.35 3.15 -2.0 L2.9 -7.4 Q2.6 -8.1 2.85 -8.35 L3.15 -8.45 Q7.75 -6.85 7.85 -0.4 L7.9 -0.25" fill="#ffe642" fill-rule="evenodd" stroke="none"/>
      <path d="M3.5 -2.45 Q4.4 -0.85 4.4 0.35 L5.75 0.65 Q7.2 1.1 7.5 1.75 6.75 8.7 2.65 7.95 -1.25 7.35 -1.5 2.55 L-2.2 3.3 Q-4.5 0.5 -8.95 -2.0 -8.45 -3.65 -7.3 -5.25 -5.0 -8.45 -1.85 -8.25 L-1.05 -7.9 Q-0.1 -7.4 0.5 -6.55 L2.6 -3.75 3.5 -2.45" fill="#dfd2be" fill-rule="evenodd" stroke="none"/>
      <path d="M-0.35 -3.3 L1.15 -2.65 Q2.8 -2.0 3.15 3.65 3.15 5.4 4.05 5.75 5.2 5.65 6.7 1.4 L6.8 0.95 7.5 1.75 Q6.75 7.35 4.7 7.8 2.65 9.1 0.4 6.8 -0.9 5.45 -1.35 3.85 L-1.5 2.55 -2.1 3.5 -5.35 0.4 -3.5 -2.4 Q-2.1 -3.7 -0.35 -3.3" fill="#9f8971" fill-rule="evenodd" stroke="none"/>
      <path d="M-1.45 2.3 L-2.4 3.25 -4.75 1.0 Q-2.3 -2.55 -0.05 -1.45 1.1 -0.85 1.7 0.4 L1.85 0.5 Q1.55 5.55 3.1 6.3 1.3 7.35 0.55 2.65 -0.3 1.6 -1.45 2.3" fill="#70583e" fill-rule="evenodd" stroke="none"/>
      <path d="M1.1 2.4 L-0.15 1.65 -1.9 3.05 0.15 0.45 1.1 2.4" fill="#483929" fill-rule="evenodd" stroke="none"/>
      <path d="M0.2 -2.95 Q-2.25 -3.95 -5.4 0.25 -5.05 -0.8 -4.2 -1.85 -2.55 -3.95 -0.1 -3.75 0.45 -3.4 0.95 -3.1 2.05 -2.2 2.4 -0.9 2.95 1.25 2.05 -1.15 1.45 -2.45 0.2 -2.95" fill="#483929" fill-rule="evenodd" stroke="none"/>
      <path d="M5.2 4.4 L4.55 5.4 Q3.15 7.6 2.65 1.1 3.3 4.75 4.35 4.85 4.85 4.9 5.2 4.4" fill="#483929" fill-rule="evenodd" stroke="none"/>
      <path d="M6.9 1.25 L5.9 3.5 Q6.6 1.25 6.15 0.7 L6.9 1.25" fill="#483929" fill-rule="evenodd" stroke="none"/>
      <path d="M3.95 -1.65 L6.15 -1.45 Q8.3 0.85 6.8 0.75 L4.4 0.35 3.95 -1.65" fill="#b88a2a" fill-rule="evenodd" stroke="none"/>
      <path d="M4.7 -1.75 L5.0 -0.75 Q5.45 0.25 5.9 0.35 L4.4 0.35 Q4.25 -1.5 3.95 -1.65 L4.7 -1.75" fill="#754017" fill-rule="evenodd" stroke="none"/>
      <path d="M4.0 -1.65 Q4.7 -0.3 4.4 0.35 L4.2 1.55 Q4.3 -0.9 3.25 -2.9 L4.0 -1.65" fill="#483929" fill-rule="evenodd" stroke="none"/>
      <path d="M7.55 1.9 L7.45 2.2 Q7.25 1.15 5.75 0.75 L4.25 0.55 4.4 0.35 Q7.55 0.25 7.55 1.9" fill="#483929" fill-rule="evenodd" stroke="none"/>
      <path d="M5.25 -1.7 L3.85 -1.65 3.85 -2.05 Q6.95 -2.4 7.8 -0.55 L8.3 0.1 Q6.95 -1.45 5.25 -1.7" fill="#71611e" fill-rule="evenodd" stroke="none"/>
      <path d="M5.9 -1.9 L3.85 -2.05 3.25 -2.9 Q3.5 -3.3 3.25 -6.75 L3.0 -8.15 3.15 -8.0 Q6.1 -6.1 5.9 -1.9" fill="#b88a2a" fill-rule="evenodd" stroke="none"/>
      <path d="M6.15 -1.65 L3.85 -2.05 3.55 -2.6 Q4.0 -2.45 5.55 -3.9 6.3 -3.65 6.15 -1.65" fill="#754017" fill-rule="evenodd" stroke="none"/>
      <path d="M5.25 -5.0 L5.9 -3.3 Q5.5 -2.15 5.05 -3.2 L5.0 -3.4 5.25 -5.0" fill="#754017" fill-rule="evenodd" stroke="none"/>
      <path d="M4.15 -7.1 L5.35 -5.4 Q6.55 -3.35 6.55 -1.55 L5.9 -1.75 Q6.15 -3.65 4.15 -7.1" fill="#71611e" fill-rule="evenodd" stroke="none"/>
      <path d="M4.2 -6.9 Q3.25 -4.45 3.45 -6.2 L2.95 -8.1 3.15 -8.0 Q3.7 -8.0 4.2 -6.9" fill="#ffffff" fill-rule="evenodd" stroke="none"/>
      <path d="M3.75 -8.1 L4.9 -7.3 Q6.05 -6.35 6.25 -5.5 L5.45 -5.75 5.25 -5.9 Q4.2 -7.95 2.95 -8.3 L3.75 -8.1" fill="#ffffff" fill-rule="evenodd" stroke="none"/>
      <path d="M8.05 0.0 Q9.15 1.2 7.8 1.8 L8.05 0.0" fill="#ffffff" fill-rule="evenodd" stroke="none"/>
      <path d="M-5.6 -0.6 L-8.2 -2.15 Q-3.0 -5.55 -0.15 -4.8 1.3 -4.45 1.65 -3.4 -0.75 -5.75 -3.4 -3.4 -4.75 -2.25 -5.6 -0.6" fill="#beab91" fill-rule="evenodd" stroke="none"/>
      <path d="M-8.35 -1.95 Q-7.4 -4.15 -5.85 -5.9 -2.8 -9.45 0.05 -7.2 L-3.85 -5.8 Q-7.65 -3.8 -6.95 -1.0 L-8.35 -1.95" fill="#f1ede9" fill-rule="evenodd" stroke="none"/>
      <path d="M-4.9 -1.7 Q-4.8 -1.45 -5.75 -1.2 -6.25 -2.4 -6.8 -2.85 L-8.2 -4.0 -7.35 -4.5 -5.85 -3.25 Q-5.2 -2.6 -4.9 -1.7" fill="#9b8a81" fill-rule="evenodd" stroke="none"/>
      <path d="M-3.45 -3.3 Q-3.4 -3.05 -4.3 -2.8 -4.5 -4.8 -5.9 -6.2 -6.0 -6.35 -5.0 -6.7 -3.65 -5.3 -3.45 -3.3" fill="#9b8a81" fill-rule="evenodd" stroke="none"/>
      <path d="M-2.6 -7.6 L-1.75 -8.1 Q-0.4 -6.2 -0.95 -4.3 -1.0 -4.05 -1.8 -3.9 -1.3 -5.65 -2.6 -7.6" fill="#9b8a81" fill-rule="evenodd" stroke="none"/>
      <path d="M0.9 -4.9 Q1.8 -5.5 1.75 -5.3 L1.95 -4.05 Q1.85 -3.6 1.15 -3.2 L0.65 -3.1 1.0 -3.5 0.95 -4.25 0.9 -4.9" fill="#9b8a81" fill-rule="evenodd" stroke="none"/>
      <path d="M2.55 -2.5 L3.4 -3.0 Q3.45 -2.1 2.9 -1.6 2.65 -1.35 2.3 -1.25 1.9 -1.15 2.2 -1.45 2.6 -1.85 2.55 -2.5" fill="#9b8a81" fill-rule="evenodd" stroke="none"/>
      <path d="M3.95 -0.3 L4.2 -0.2 3.7 0.95 Q3.2 1.4 2.65 1.45 2.4 1.5 2.7 1.2 3.0 0.95 3.25 0.95 L3.05 0.85 3.4 0.1 3.95 -0.3" fill="#9b8a81" fill-rule="evenodd" stroke="none"/>
      <path d="M4.05 2.15 Q4.85 1.5 4.95 1.65 5.6 2.85 5.25 3.75 L4.8 4.15 4.4 4.15 Q4.7 3.3 4.05 2.15" fill="#9b8a81" fill-rule="evenodd" stroke="none"/>
    </g>
  </defs>
</svg>
