<?xml version="1.0" encoding="UTF-8" standalone="no"?>
<svg xmlns:xlink="http://www.w3.org/1999/xlink" height="92.9px" width="100.7px" xmlns="http://www.w3.org/2000/svg">
  <g transform="matrix(1.0, 0.0, 0.0, 1.0, 38.65, 49.75)">
    <use height="37.9" transform="matrix(1.0, 0.0, 0.0, 1.0, -17.55, -12.6)" width="34.55" xlink:href="#shape0"/>
  </g>
  <defs>
    <g id="shape0" transform="matrix(1.0, 0.0, 0.0, 1.0, 17.55, 12.6)">
      <path d="M-16.25 12.0 L-15.15 11.95 Q-13.65 13.0 -14.85 17.15 L-15.15 17.45 -15.6 17.4 Q-17.2 16.3 -17.5 15.4 -17.65 15.0 -17.25 13.75 -16.8 12.45 -16.25 12.0" fill="#3a0c07" fill-rule="evenodd" stroke="none"/>
      <path d="M-15.5 16.25 L-16.6 15.1 -16.3 14.05 -15.7 12.9 Q-15.05 12.2 -15.2 14.15 L-15.5 16.25" fill="#ff7900" fill-rule="evenodd" stroke="none"/>
      <path d="M14.6 11.5 L15.7 11.55 Q16.25 12.0 16.7 13.3 17.1 14.55 16.95 14.95 16.45 16.0 15.05 16.95 L14.6 17.0 14.3 16.7 Q13.1 12.55 14.6 11.5" fill="#3a0c07" fill-rule="evenodd" stroke="none"/>
      <path d="M3.7 -1.25 L4.3 -1.1 4.05 -0.55 Q3.3 1.0 0.35 3.15 L0.0 3.45 -0.3 3.6 -0.5 3.6 Q-1.25 3.5 -3.35 2.2 -5.65 0.8 -6.1 -0.1 L-6.3 -0.55 -5.85 -0.75 Q-2.0 -2.75 3.7 -1.25" fill="#3a0c07" fill-rule="evenodd" stroke="none"/>
      <path d="M-4.8 -0.05 Q-1.4 -1.4 2.75 -0.45 1.9 1.35 -0.5 2.55 -4.2 1.2 -4.8 -0.05" fill="#ff7900" fill-rule="evenodd" stroke="none"/>
      <path d="M0.35 -0.75 L2.75 -0.45 Q1.9 1.35 -0.5 2.55 -0.7 2.75 -2.4 1.85 0.25 0.55 0.35 -0.75" fill="#c74200" fill-rule="evenodd" stroke="none"/>
      <path d="M14.9 15.75 L14.65 13.65 Q14.5 11.7 15.15 12.4 16.35 13.75 16.0 14.65 L14.9 15.75" fill="#c74200" fill-rule="evenodd" stroke="none"/>
      <path d="M2.2 -5.9 L2.2 -5.45 -0.3 0.75 -0.85 1.15 Q-1.25 1.15 -1.4 0.75 L-3.95 -5.6 -3.95 -6.05 -1.4 -12.3 Q-1.2 -12.6 -0.85 -12.6 L-0.3 -12.25 2.2 -5.9" fill="#351e02" fill-rule="evenodd" stroke="none"/>
      <path d="M3.45 -3.85 L2.65 -4.35 Q1.85 -5.15 1.85 -6.05 L1.95 -6.6 Q2.25 -7.95 4.65 -8.45 8.6 -8.85 9.6 -6.95 10.9 -4.35 6.8 0.6 L6.65 0.75 -0.25 4.5 -0.85 4.5 -7.75 0.75 Q-12.9 -3.2 -10.9 -6.35 -10.05 -7.7 -8.3 -8.15 -6.55 -8.6 -5.0 -7.85 -3.35 -7.0 -3.35 -5.65 L-3.4 -5.4 Q-3.6 -4.3 -5.1 -3.75 L-0.8 -1.75 3.45 -3.85" fill="#351e02" fill-rule="evenodd" stroke="none"/>
      <path d="M-0.85 -10.5 L1.1 -5.7 -0.65 1.05 -2.8 -5.9 -0.85 -10.5" fill="#f8c606" fill-rule="evenodd" stroke="none"/>
      <path d="M6.15 -4.45 Q4.3 -4.05 3.4 -5.6 2.45 -7.15 4.8 -7.5 9.9 -8.05 8.45 -4.2 7.7 -2.25 5.95 -0.25 L-0.55 3.35 -7.15 -0.25 Q-11.4 -3.4 -9.9 -5.8 -8.5 -8.1 -5.65 -6.85 -4.2 -6.25 -4.65 -5.25 -5.15 -4.2 -7.65 -3.9 L-0.75 -0.45 6.15 -4.45" fill="#f8c606" fill-rule="evenodd" stroke="none"/>
      <path d="M-0.2 -0.75 L-0.65 -0.55 0.0 -5.85 -1.35 -9.35 -0.85 -10.5 1.1 -5.7 -0.2 -0.75" fill="#b57a06" fill-rule="evenodd" stroke="none"/>
      <path d="M-8.45 -5.6 L-7.6 -5.85 -6.8 -5.65 Q-6.55 -5.35 -6.75 -5.1 -7.0 -4.8 -8.0 -5.1 -7.25 -5.3 -7.25 -5.4 -7.35 -5.8 -8.45 -5.6" fill="#b57a06" fill-rule="evenodd" stroke="none"/>
      <path d="M-8.8 -4.25 L-8.75 -4.25 -6.85 -3.65 -1.25 -0.7 -0.65 0.3 -3.5 -1.15 -8.5 -3.9 -8.8 -4.25" fill="#b57a06" fill-rule="evenodd" stroke="none"/>
      <path d="M8.4 -4.1 L7.85 -2.85 7.35 -2.05 Q6.35 -0.15 5.5 0.5 L4.05 1.3 2.55 2.25 0.05 3.6 -0.45 3.65 -0.7 3.0 -1.05 1.8 -0.75 1.8 Q8.45 -2.85 8.45 -6.65 8.85 -6.3 8.75 -5.45 L8.4 -4.1" fill="#b57a06" fill-rule="evenodd" stroke="none"/>
      <path d="M-5.9 -4.25 L-6.4 -4.1 Q-5.2 -4.55 -5.25 -5.7 -5.3 -6.8 -7.05 -7.15 -5.4 -7.05 -4.8 -6.35 -4.3 -5.75 -4.65 -5.25 -4.85 -4.65 -5.9 -4.25" fill="#b57a06" fill-rule="evenodd" stroke="none"/>
      <path d="M5.35 -6.2 L5.4 -6.3 5.85 -6.45 Q6.5 -6.6 7.1 -6.15 7.75 -5.7 7.05 -5.0 L6.3 -4.5 5.35 -4.35 Q4.5 -4.35 3.7 -5.15 L4.1 -4.95 5.25 -4.65 Q6.3 -4.65 6.55 -5.2 6.75 -5.9 6.15 -6.15 L5.35 -6.2" fill="#b57a06" fill-rule="evenodd" stroke="none"/>
      <path d="M-6.25 -3.75 Q-8.8 -3.5 -8.9 -5.05 -8.95 -5.8 -7.85 -6.0 -6.8 -6.15 -6.55 -5.55 -6.3 -4.65 -7.3 -4.9" fill="none" stroke="#351e02" stroke-linecap="round" stroke-linejoin="round" stroke-width="0.4"/>
      <path d="M4.8 -4.25 Q7.4 -4.1 7.5 -5.7 7.55 -6.45 6.5 -6.6 5.4 -6.75 5.15 -6.15 L5.15 -5.75 Q5.3 -5.35 5.9 -5.5" fill="none" stroke="#351e02" stroke-linecap="round" stroke-linejoin="round" stroke-width="0.4"/>
      <path d="M-0.85 -3.3 L-0.85 -1.8 -0.95 -0.9 -1.2 -1.5 -1.95 -3.65 -2.2 -4.35 -2.15 -4.35 Q-1.85 -4.0 -1.15 -3.8 L-0.9 -3.75 -0.85 -3.3" fill="#ffffff" fill-rule="evenodd" stroke="none"/>
      <path d="M-1.45 -8.95 L-1.45 -8.4 -1.3 -7.4 -2.0 -7.2 -1.75 -7.85 -1.45 -8.95" fill="#ffffff" fill-rule="evenodd" stroke="none"/>
      <path d="M-7.8 -5.3 Q-8.55 -5.4 -8.15 -4.7 -7.9 -4.3 -7.3 -4.5 -7.5 -3.5 -8.4 -4.7 -8.65 -5.15 -8.4 -5.4 L-7.8 -5.35 -7.8 -5.3" fill="#ffffff" fill-rule="evenodd" stroke="none"/>
      <path d="M4.45 -5.45 L5.2 -5.0 5.1 -5.0 Q4.3 -5.0 4.0 -5.3 3.45 -5.75 3.45 -6.25 3.4 -7.3 5.35 -7.45 L4.55 -7.0 Q4.1 -6.7 4.1 -6.25 4.1 -5.8 4.45 -5.45" fill="#ffffff" fill-rule="evenodd" stroke="none"/>
      <path d="M1.05 -0.4 L-0.15 0.3 -0.1 -0.5 -0.15 -0.5 1.35 -1.45 5.25 -3.75 4.8 -3.35 4.2 -2.8 1.05 -0.4" fill="#ffffff" fill-rule="evenodd" stroke="none"/>
      <path d="M-9.2 -6.45 L-9.15 -6.45 -9.55 -6.0 -9.8 -5.4 -9.75 -4.3 -9.15 -3.3 -8.35 -2.6 -7.9 -2.35 -7.5 -2.25 -8.15 -1.55 Q-8.4 -1.35 -8.5 -1.45 L-8.75 -1.8 -9.75 -3.2 Q-10.15 -4.1 -10.1 -4.9 L-9.8 -5.8 -9.2 -6.45" fill="#ffffff" fill-rule="evenodd" stroke="none"/>
      <path d="M-0.75 -7.25 Q0.75 -7.25 0.75 -5.75 0.75 -4.2 -0.8 -4.2 -2.3 -4.2 -2.3 -5.75 -2.3 -7.25 -0.75 -7.25" fill="#ff7d00" fill-rule="evenodd" stroke="none"/>
      <path d="M-0.95 -6.95 Q-2.15 -6.95 -2.15 -5.75 -2.15 -4.5 -0.95 -4.5 0.2 -4.5 0.3 -5.75 0.3 -6.95 -0.95 -6.95 M-0.8 -4.2 Q-2.3 -4.2 -2.3 -5.75 -2.3 -7.25 -0.75 -7.25 0.75 -7.25 0.75 -5.75 0.75 -4.2 -0.8 -4.2" fill="#d63600" fill-rule="evenodd" stroke="none"/>
      <path d="M-0.6 -6.3 Q0.2 -6.3 0.2 -5.5 0.2 -4.65 -0.65 -4.65 -1.45 -4.65 -1.45 -5.5 -1.45 -6.3 -0.6 -6.3" fill="#d63600" fill-rule="evenodd" stroke="none"/>
      <path d="M-2.05 -6.1 Q-2.05 -6.85 -1.3 -6.85 -0.55 -6.85 -0.55 -6.1 -0.55 -5.4 -1.3 -5.4 -2.05 -5.4 -2.05 -6.1" fill="#ffffff" fill-rule="evenodd" stroke="none"/>
      <path d="M-4.85 -2.1 L-4.6 -2.05 Q-0.65 -0.45 -0.15 3.75 -0.15 4.35 -0.4 4.5 L-0.95 4.55 Q-3.45 3.2 -5.2 3.1 -6.05 3.5 -8.85 7.35 -11.65 11.25 -12.05 12.6 L-12.1 12.9 Q-12.1 15.75 -11.05 17.65 L-11.0 17.9 -11.1 18.25 -11.65 18.35 Q-16.5 16.4 -16.95 12.0 L-16.95 11.8 Q-15.1 5.4 -11.1 1.45 -7.85 -1.8 -4.85 -2.1" fill="#3a0c07" fill-rule="evenodd" stroke="none"/>
      <path d="M-12.4 16.95 Q-15.5 15.0 -15.95 12.0 -14.35 6.3 -10.75 2.5 -7.7 -0.75 -4.85 -1.1 -2.0 -0.05 -1.25 3.35 -3.85 2.1 -5.45 2.1 -6.4 2.45 -9.5 6.7 -12.55 10.85 -13.0 12.3 -13.35 13.45 -12.4 16.95" fill="#ff7900" fill-rule="evenodd" stroke="none"/>
      <path d="M-5.45 2.1 Q-6.4 2.45 -9.5 6.7 -12.55 10.85 -13.0 12.3 -13.35 13.45 -12.4 16.95 -15.2 15.15 -15.8 12.8 -15.45 13.7 -13.9 15.1 L-14.1 12.0 Q-13.75 9.45 -8.9 3.1 L-9.25 4.9 Q-8.7 3.25 -7.4 2.0 -6.05 0.65 -4.8 0.7 -3.25 0.9 -1.4 3.3 -3.9 2.1 -5.45 2.1" fill="#c74200" fill-rule="evenodd" stroke="none"/>
      <path d="M-12.1 23.1 L-10.7 22.85 Q-10.55 22.6 -10.15 22.7 -9.85 22.8 -9.85 23.15 -9.75 24.6 -11.8 25.15 -13.7 25.65 -14.2 24.6 -14.5 23.9 -14.25 23.05 L-13.9 22.3 Q-13.7 22.0 -13.45 22.1 L-13.05 22.4 Q-12.8 23.0 -12.1 23.1" fill="#3a0c07" fill-rule="evenodd" stroke="none"/>
      <path d="M-13.4 23.0 Q-12.3 24.2 -10.9 23.6 -11.05 24.4 -12.05 24.55 -13.0 24.65 -13.3 24.15 L-13.4 23.0" fill="#ff7900" fill-rule="evenodd" stroke="none"/>
      <path d="M-11.85 23.65 L-10.9 23.6 Q-11.05 24.35 -12.0 24.5 -12.9 24.65 -13.25 24.2 L-11.85 23.65" fill="#c74200" fill-rule="evenodd" stroke="none"/>
      <path d="M-11.8 19.75 L-11.45 19.5 Q-11.25 19.5 -11.1 19.65 -9.85 21.4 -11.0 22.55 -12.3 23.85 -13.9 22.95 -14.9 22.45 -14.8 20.95 L-13.25 20.8 Q-12.2 20.55 -11.8 19.75" fill="#3a0c07" fill-rule="evenodd" stroke="none"/>
      <path d="M-11.5 20.85 L-11.5 21.85 Q-11.9 22.35 -12.9 22.3 -13.85 22.25 -13.85 21.7 -12.55 21.7 -11.5 20.85" fill="#ff7900" fill-rule="evenodd" stroke="none"/>
      <path d="M-11.5 20.85 L-11.5 21.85 Q-11.9 22.4 -13.0 22.3 L-11.95 21.15 -11.5 20.85" fill="#c74200" fill-rule="evenodd" stroke="none"/>
      <path d="M-11.9 17.85 L-11.9 17.9 -11.4 17.6 Q-11.05 17.6 -10.95 17.95 -10.6 19.45 -11.7 20.25 -13.4 21.45 -15.2 20.3 -16.85 19.15 -15.55 17.1 -15.45 16.85 -15.15 16.85 L-14.75 17.05 Q-14.1 17.9 -12.85 18.0 L-11.9 17.85" fill="#3a0c07" fill-rule="evenodd" stroke="none"/>
      <path d="M-14.9 18.3 Q-13.6 19.05 -12.0 18.9 -11.9 19.5 -13.0 19.7 -14.15 19.95 -14.7 19.45 L-15.1 18.6 -14.9 18.3" fill="#ff7900" fill-rule="evenodd" stroke="none"/>
      <path d="M-14.65 19.45 L-12.0 19.05 Q-12.15 19.6 -13.15 19.75 -14.15 19.9 -14.65 19.45" fill="#c74200" fill-rule="evenodd" stroke="none"/>
      <path d="M-5.8 2.4 L-4.75 1.75 -3.4 1.7 -4.05 1.9 Q-4.85 2.05 -5.25 2.9 -5.4 3.3 -5.75 3.1 -6.1 2.75 -5.8 2.4" fill="#3a0c07" fill-rule="evenodd" stroke="none"/>
      <path d="M3.65 -2.05 L3.9 -2.1 Q6.9 -1.8 10.15 1.45 14.2 5.4 16.05 11.8 L16.05 12.0 Q15.6 16.4 10.75 18.35 L10.15 18.25 10.05 17.9 10.1 17.65 Q11.15 15.75 11.15 12.9 L11.15 12.6 Q10.7 11.2 7.9 7.35 5.1 3.45 4.25 3.1 2.6 3.2 0.0 4.55 L-0.55 4.5 -0.8 3.75 Q-0.3 -0.45 3.65 -2.05" fill="#3a0c07" fill-rule="evenodd" stroke="none"/>
      <path d="M4.5 2.1 Q2.85 2.1 0.35 3.35 -0.3 3.7 0.9 1.6 2.1 -0.45 3.95 -1.1 6.8 -0.75 9.9 2.5 13.45 6.3 15.05 12.0 14.55 15.0 11.5 16.95 12.45 13.45 12.1 12.3 11.6 10.85 8.6 6.7 5.45 2.4 4.5 2.1" fill="#ff7900" fill-rule="evenodd" stroke="none"/>
      <path d="M2.1 1.1 Q3.2 1.1 3.8 2.2 1.95 2.55 0.35 3.35 0.25 3.45 0.25 3.3 L2.1 1.1" fill="#c74200" fill-rule="evenodd" stroke="none"/>
      <path d="M9.9 2.5 Q13.45 6.3 15.05 12.0 14.55 15.0 11.5 16.95 12.15 14.5 12.15 12.4 L13.1 14.1 13.5 11.75 Q13.05 9.65 10.4 5.3 L12.1 6.1 9.95 4.2 Q6.6 -0.3 3.95 -1.1 6.8 -0.75 9.9 2.5" fill="#c74200" fill-rule="evenodd" stroke="none"/>
      <path d="M12.1 22.4 L12.5 22.1 Q12.8 22.0 13.0 22.3 13.8 23.5 13.25 24.6 12.8 25.65 10.85 25.15 8.8 24.6 8.9 23.15 8.9 22.8 9.25 22.7 9.55 22.6 9.8 22.85 L11.2 23.1 Q11.9 23.0 12.1 22.4" fill="#3a0c07" fill-rule="evenodd" stroke="none"/>
      <path d="M12.45 23.0 Q12.85 23.35 12.4 24.15 12.05 24.65 11.1 24.55 10.15 24.4 9.95 23.6 11.4 24.15 12.45 23.0" fill="#ff7900" fill-rule="evenodd" stroke="none"/>
      <path d="M12.4 24.15 Q11.9 24.85 10.7 24.4 L12.6 23.4 12.4 24.15" fill="#c74200" fill-rule="evenodd" stroke="none"/>
      <path d="M10.55 19.5 L10.85 19.75 Q11.25 20.55 12.3 20.8 L13.9 20.95 Q13.95 22.4 13.0 22.95 11.45 23.8 10.05 22.55 9.0 21.5 10.15 19.65 L10.55 19.5" fill="#3a0c07" fill-rule="evenodd" stroke="none"/>
      <path d="M10.55 20.85 Q11.65 21.7 12.9 21.7 12.9 22.25 11.95 22.3 11.0 22.35 10.6 21.85 L10.55 20.85" fill="#ff7900" fill-rule="evenodd" stroke="none"/>
      <path d="M12.4 21.65 L12.9 21.7 Q12.9 22.8 11.15 22.2 L12.4 21.65" fill="#c74200" fill-rule="evenodd" stroke="none"/>
      <path d="M14.25 16.85 L14.65 17.1 Q15.85 19.2 14.25 20.3 12.55 21.5 10.75 20.25 9.65 19.45 10.05 17.95 10.15 17.6 10.45 17.6 10.8 17.5 11.0 17.9 L11.9 18.0 Q13.15 17.9 13.8 17.05 13.95 16.85 14.25 16.85" fill="#3a0c07" fill-rule="evenodd" stroke="none"/>
      <path d="M13.95 18.3 Q14.5 18.75 13.75 19.45 13.2 19.95 12.05 19.7 10.95 19.5 11.05 18.9 12.65 19.05 13.95 18.3" fill="#ff7900" fill-rule="evenodd" stroke="none"/>
      <path d="M12.8 18.8 L13.95 18.3 Q14.5 18.75 13.75 19.45 L11.7 19.6 12.8 18.8" fill="#c74200" fill-rule="evenodd" stroke="none"/>
      <path d="M4.85 2.4 Q5.2 2.75 4.8 3.1 4.5 3.35 4.3 2.9 3.9 2.05 3.15 1.9 L2.5 1.7 3.85 1.75 Q4.6 2.1 4.85 2.4" fill="#3a0c07" fill-rule="evenodd" stroke="none"/>
      <path d="M-9.2 1.85 L-9.6 2.5 -8.75 2.0 -9.0 2.7 -8.55 2.25 -8.6 2.6 -8.4 2.35 -8.8 3.05 -8.75 2.65 -9.3 2.95 -9.0 2.35 -10.55 3.6 -9.6 2.2 -10.8 2.65 -9.75 1.6 -9.7 1.6 -10.05 2.05 -9.2 1.85" fill="#ffe8d7" fill-rule="evenodd" stroke="none"/>
      <path d="M5.65 1.7 L5.95 2.25 Q5.55 1.9 4.95 1.85 L5.3 2.4 4.45 1.85 4.35 1.75 4.8 1.95 4.7 1.55 5.55 1.75 5.3 1.3 6.2 1.6 5.7 1.05 6.5 1.25 6.05 0.45 Q6.75 0.95 7.1 1.75 L6.45 1.5 6.9 2.4 Q6.5 2.0 5.65 1.7" fill="#ffe8d7" fill-rule="evenodd" stroke="none"/>
    </g>
  </defs>
</svg>
