<?xml version="1.0" encoding="UTF-8" standalone="no"?>
<svg xmlns:xlink="http://www.w3.org/1999/xlink" height="92.9px" width="100.7px" xmlns="http://www.w3.org/2000/svg">
  <g transform="matrix(1.0, 0.0, 0.0, 1.0, 38.65, 49.75)">
    <use height="15.05" transform="matrix(1.0, 0.0, 0.0, 1.0, -15.65, -6.2)" width="28.4" xlink:href="#sprite0"/>
    <use height="13.95" transform="matrix(1.0, 0.0, 0.0, 1.0, -14.75, -5.85)" width="26.65" xlink:href="#sprite1"/>
    <use height="13.55" transform="matrix(1.0, 0.0, 0.0, 1.0, -14.85, -5.85)" width="19.25" xlink:href="#sprite2"/>
    <use height="9.9" transform="matrix(1.0, 0.0, 0.0, 1.0, 3.15, -3.5)" width="8.0" xlink:href="#sprite3"/>
    <use height="7.5" transform="matrix(1.0, 0.0, 0.0, 1.0, -13.55, 0.35)" width="24.0" xlink:href="#sprite4"/>
  </g>
  <defs>
    <g id="sprite0" transform="matrix(1.0, 0.0, 0.0, 1.0, 14.2, 7.25)">
      <use height="15.05" transform="matrix(1.0, 0.0, 0.0, 1.0, -14.2, -7.25)" width="28.4" xlink:href="#shape0"/>
    </g>
    <g id="shape0" transform="matrix(1.0, 0.0, 0.0, 1.0, 14.2, 7.25)">
      <path d="M9.9 -2.5 Q10.75 -0.9 10.3 -0.65 L-0.35 -0.1 -7.1 0.95 -10.4 1.15 -11.3 0.35 -10.95 -0.3 Q-8.4 -7.1 -1.75 -7.05 L4.45 -7.25 Q8.0 -6.05 9.9 -2.5" fill="#1a171b" fill-rule="evenodd" stroke="none"/>
      <path d="M0.45 -2.1 L12.0 -2.7 Q12.7 -2.7 13.65 -0.4 14.8 2.15 13.65 3.95 12.35 6.0 0.5 7.25 -11.35 8.5 -13.0 6.95 -13.8 6.15 -14.1 4.0 -14.45 1.65 -13.35 0.7 -11.15 -1.2 0.45 -2.1" fill="#1a171b" fill-rule="evenodd" stroke="none"/>
    </g>
    <g id="sprite1" transform="matrix(1.0, 0.0, 0.0, 1.0, 13.35, 6.55)">
      <use height="13.95" transform="matrix(1.0, 0.0, 0.0, 1.0, -13.35, -6.55)" width="26.65" xlink:href="#shape1"/>
    </g>
    <g id="shape1" transform="matrix(1.0, 0.0, 0.0, 1.0, 13.35, 6.55)">
      <path d="M10.2 -1.45 L11.7 -1.5 Q13.3 -0.1 13.3 2.3 13.3 3.15 12.85 3.8 12.0 5.2 3.05 6.4 -10.7 8.3 -12.45 6.65 -13.35 5.9 -13.35 3.45 L-13.35 3.3 Q-13.35 2.1 -12.85 1.7 -12.35 1.25 -11.25 0.9 L-10.45 1.5 -7.15 1.3 -0.4 0.25 10.25 -0.3 Q10.6 -0.5 10.2 -1.45" fill="#928b33" fill-rule="evenodd" stroke="none"/>
      <path d="M9.35 -1.1 Q9.55 -0.65 8.85 -0.65 0.3 -1.15 -9.65 0.85 -10.35 0.95 -10.25 0.4 -9.75 -1.4 -7.95 -3.25 -5.4 -5.9 -1.8 -5.85 L-1.6 -5.85 -1.45 -5.9 Q1.5 -7.2 4.8 -5.85 7.75 -4.5 9.35 -1.1" fill="#928b33" fill-rule="evenodd" stroke="none"/>
    </g>
    <g id="sprite2" transform="matrix(1.0, 0.0, 0.0, 1.0, 9.65, 6.75)">
      <use height="13.55" transform="matrix(1.0, 0.0, 0.0, 1.0, -9.65, -6.75)" width="19.25" xlink:href="#shape2"/>
    </g>
    <g id="shape2" transform="matrix(1.0, 0.0, 0.0, 1.0, 9.65, 6.75)">
      <path d="M-3.35 1.1 L-1.65 0.8 Q-2.3 1.3 -2.15 1.9 L-1.15 4.55 Q-0.85 5.7 -2.65 5.8 -7.15 6.0 -7.8 6.8 L-8.7 6.45 Q-9.65 5.65 -9.65 3.25 L-9.65 3.1 Q-9.55 1.9 -9.1 1.5 -8.55 1.05 -7.45 0.7 L-6.65 1.3 -3.35 1.1 M2.2 -6.05 L2.35 -6.1 Q4.5 -7.05 6.8 -6.6 L8.5 -6.05 9.6 -5.45 Q3.5 -6.1 1.45 -4.7 0.0 -3.65 0.6 -2.25 L1.75 -0.6 1.2 -0.45 -5.85 0.65 Q-6.55 0.75 -6.45 0.2 -5.95 -1.6 -4.15 -3.45 -2.9 -4.75 -1.35 -5.4 L1.95 -6.05 2.2 -6.05" fill="#ada966" fill-rule="evenodd" stroke="none"/>
    </g>
    <g id="sprite3" transform="matrix(1.0, 0.0, 0.0, 1.0, 4.0, 4.95)">
      <use height="9.9" transform="matrix(1.0, 0.0, 0.0, 1.0, -4.0, -4.95)" width="8.0" xlink:href="#shape3"/>
    </g>
    <g id="shape3" transform="matrix(1.0, 0.0, 0.0, 1.0, 4.0, 4.95)">
      <path d="M1.7 -1.05 Q2.0 -1.2 1.75 -2.0 2.6 -2.1 3.3 -1.1 4.15 0.15 3.95 2.35 L3.7 3.5 Q2.1 4.3 -1.2 4.95 0.6 4.1 0.95 2.75 1.4 0.85 -0.55 -0.95 L1.7 -1.05" fill="#706a00" fill-rule="evenodd" stroke="none"/>
      <path d="M0.8 -1.85 Q1.0 -1.4 0.3 -1.4 L-1.15 -1.45 -2.65 -3.4 Q-4.8 -5.15 -3.55 -4.9 -1.55 -4.4 -0.25 -2.95 L0.8 -1.85" fill="#706a00" fill-rule="evenodd" stroke="none"/>
    </g>
    <g id="sprite4" transform="matrix(1.0, 0.0, 0.0, 1.0, 11.95, 3.75)">
      <use height="7.5" transform="matrix(1.0, 0.0, 0.0, 1.0, -11.95, -3.75)" width="24.0" xlink:href="#shape4"/>
    </g>
    <g id="shape4" transform="matrix(1.0, 0.0, 0.0, 1.0, 11.95, 3.75)">
      <path d="M-10.75 -2.25 L-10.4 -2.05 -11.5 -1.2 Q-11.8 -0.5 -11.0 3.65 L-11.45 3.45 -11.9 1.2 -11.95 -1.2 -10.75 -2.25" fill="#473f00" fill-rule="evenodd" stroke="none"/>
      <path d="M-8.35 -0.95 Q-8.55 0.6 -7.8 3.75 L-8.25 3.75 -8.8 1.15 Q-9.2 -1.55 -8.6 -1.8 L-8.05 -1.85 -8.35 -0.95" fill="#473f00" fill-rule="evenodd" stroke="none"/>
      <path d="M-4.3 -2.65 L-3.7 -2.75 Q-4.2 -0.7 -3.3 3.7 L-3.75 3.75 Q-4.4 1.8 -4.4 -0.65 L-4.3 -2.65" fill="#473f00" fill-rule="evenodd" stroke="none"/>
      <path d="M1.2 -3.2 L1.6 -3.3 Q2.25 -1.7 2.65 3.1 L2.15 3.15 1.2 -3.2" fill="#473f00" fill-rule="evenodd" stroke="none"/>
      <path d="M6.7 -3.4 L7.4 -3.4 Q8.1 -2.9 8.35 2.3 L7.85 2.35 Q7.75 -1.35 7.2 -2.75 L6.7 -3.4" fill="#473f00" fill-rule="evenodd" stroke="none"/>
      <path d="M9.75 -3.55 L10.45 -3.75 Q11.8 -3.6 12.05 1.15 L11.55 1.3 Q11.35 -2.1 10.5 -3.15 L9.75 -3.55" fill="#473f00" fill-rule="evenodd" stroke="none"/>
    </g>
  </defs>
</svg>
