<?xml version="1.0" encoding="UTF-8" standalone="no"?>
<svg xmlns:xlink="http://www.w3.org/1999/xlink" height="92.9px" width="100.7px" xmlns="http://www.w3.org/2000/svg">
  <g transform="matrix(1.0, 0.0, 0.0, 1.0, 38.65, 49.75)">
    <use height="24.55" transform="matrix(1.0, 0.0, 0.0, 1.0, -17.25, -6.5)" width="37.9" xlink:href="#shape0"/>
  </g>
  <defs>
    <g id="shape0" transform="matrix(1.0, 0.0, 0.0, 1.0, 17.25, 6.5)">
      <path d="M13.25 -0.7 Q13.7 0.2 14.3 0.25 14.75 -0.35 15.75 -0.9 L16.2 0.9 Q16.7 1.45 18.1 0.0 18.15 1.45 17.65 2.25 L19.9 2.3 Q19.05 3.85 18.45 4.1 18.7 4.9 20.65 5.0 19.0 6.0 18.45 6.1 L19.85 8.05 17.6 7.95 Q18.55 10.0 18.35 10.15 18.15 10.3 16.1 9.25 16.35 11.25 15.9 11.85 L14.15 9.85 Q13.4 11.6 12.35 12.05 L12.2 9.6 10.15 11.05 10.45 8.6 8.4 8.9 9.3 6.95 7.35 6.5 8.9 5.0 7.6 3.65 Q9.1 3.7 9.35 3.05 9.6 2.4 8.4 1.4 L10.55 1.45 Q10.55 0.0 10.15 -0.7 11.25 -0.65 12.3 0.45 L12.9 -1.55 13.25 -0.7" fill="#1a171b" fill-rule="evenodd" stroke="none"/>
      <path d="M16.5 1.9 L16.95 1.75 16.95 1.85 16.6 2.4 17.1 2.9 Q17.4 3.2 18.05 3.4 L17.45 3.7 17.65 4.35 17.95 4.9 18.4 5.25 18.25 5.3 16.75 5.65 17.85 6.7 18.15 7.1 16.2 7.0 17.05 8.75 15.05 7.8 15.3 9.8 13.9 8.4 13.4 9.5 13.15 9.9 12.95 9.25 12.45 8.25 11.25 9.3 11.3 8.7 11.5 7.6 9.75 7.85 10.0 7.45 10.8 6.4 9.0 6.0 9.4 5.65 10.2 5.1 9.3 4.15 10.15 3.35 10.1 2.2 11.4 2.55 11.35 0.75 12.7 2.05 13.15 0.55 Q13.6 1.0 14.2 1.1 L14.7 1.15 15.0 0.75 15.1 0.65 15.5 1.45 16.5 1.9" fill="#00719c" fill-rule="evenodd" stroke="none"/>
      <path d="M16.5 1.85 L16.95 1.7 16.95 1.85 16.6 2.4 16.25 3.15 17.45 3.5 16.7 4.1 Q16.75 4.3 17.9 4.85 L17.95 4.9 16.1 4.65 16.9 6.3 15.65 5.85 15.85 6.8 14.9 6.4 15.05 7.75 14.15 6.95 13.9 8.35 13.4 7.2 13.2 9.2 12.5 7.6 11.75 8.2 11.85 6.75 10.55 7.15 11.35 5.75 9.0 6.0 10.2 5.05 9.3 4.15 10.15 3.35 10.1 2.2 11.4 2.55 11.35 0.75 12.7 2.05 13.15 0.55 Q13.6 1.0 14.2 1.1 L14.7 1.15 15.0 0.75 15.1 0.65 15.5 1.4 15.6 1.5 16.5 1.85" fill="#00bbff" fill-rule="evenodd" stroke="none"/>
      <path d="M11.4 0.9 L13.05 2.95 Q12.7 3.9 11.4 0.9" fill="#80ddff" fill-rule="evenodd" stroke="none"/>
      <path d="M13.75 1.4 L14.25 3.65 Q13.75 3.6 13.6 3.2 L13.75 1.4" fill="#80ddff" fill-rule="evenodd" stroke="none"/>
      <path d="M12.55 3.9 Q12.7 4.25 12.3 4.5 L9.5 4.55 11.25 4.0 Q11.75 3.9 10.4 2.55 11.5 3.0 12.55 3.9" fill="#80ddff" fill-rule="evenodd" stroke="none"/>
      <path d="M12.0 6.15 Q11.05 5.6 9.85 5.5 L12.6 5.3 Q12.75 5.55 12.0 6.15" fill="#ece9e0" fill-rule="evenodd" stroke="none"/>
      <path d="M12.8 4.75 Q13.75 5.0 14.05 5.4 14.3 5.75 13.85 5.7 L12.8 4.75" fill="#80ddff" fill-rule="evenodd" stroke="none"/>
      <path d="M13.45 8.85 L13.9 6.6 Q14.3 6.8 14.35 7.3 L13.45 8.85" fill="#80ddff" fill-rule="evenodd" stroke="none"/>
      <path d="M17.15 6.55 Q16.15 6.5 15.85 6.15 15.5 5.85 16.0 5.8 16.55 5.8 17.15 6.55" fill="#80ddff" fill-rule="evenodd" stroke="none"/>
      <path d="M15.0 0.9 Q15.45 1.75 15.35 2.2 L14.95 2.25 15.0 0.9" fill="#80ddff" fill-rule="evenodd" stroke="none"/>
      <path d="M3.75 -6.45 Q6.75 -6.1 8.65 -2.9 L11.8 3.15 Q14.65 7.6 15.65 14.7 16.15 17.95 15.85 17.75 14.0 17.25 12.85 16.75 10.7 15.85 10.4 13.75 8.9 4.2 -0.75 4.25 -10.5 4.35 -11.75 14.3 -12.0 16.35 -14.2 17.4 -15.9 18.25 -17.2 18.0 -17.45 18.0 -16.7 14.95 L-16.35 13.2 Q-16.0 7.85 -13.7 4.1 -11.5 0.6 -5.75 -3.05 0.25 -6.85 3.75 -6.45" fill="#1a171b" fill-rule="evenodd" stroke="none"/>
      <path d="M14.2 12.6 L15.3 16.45 Q15.2 16.2 13.25 15.8 11.45 15.4 11.25 13.7 11.0 11.25 9.95 9.15 L13.75 10.3 14.2 12.6" fill="#0082ed" fill-rule="evenodd" stroke="none"/>
      <path d="M-10.7 8.45 Q-12.0 10.55 -12.6 14.25 -12.8 15.65 -14.05 16.55 -15.25 17.4 -16.35 17.1 L-15.55 13.4 -15.5 13.25 Q-15.4 11.2 -14.9 9.25 L-10.7 8.45" fill="#0013e5" fill-rule="evenodd" stroke="none"/>
      <path d="M9.25 0.15 L9.55 0.8 Q0.35 -3.7 -9.15 0.45 -1.2 -6.2 3.65 -5.6 6.75 -5.25 9.25 0.15" fill="#9ef1ff" fill-rule="evenodd" stroke="none"/>
      <path d="M-0.75 3.4 Q-7.75 3.4 -10.7 8.45 L-14.9 9.25 Q-14.15 6.45 -12.95 4.55 -11.95 2.85 -9.15 0.45 0.35 -3.7 9.55 0.8 L11.1 3.6 Q12.85 6.4 13.75 10.3 L9.95 9.15 Q7.15 3.45 -0.75 3.4" fill="#000ea8" fill-rule="evenodd" stroke="none"/>
      <path d="M9.25 0.05 L10.6 2.65 11.05 3.35 Q5.65 -0.3 -0.8 -0.2 -6.85 -0.1 -12.05 3.2 -10.3 1.2 -7.85 -0.6 L-5.5 -1.65 Q-2.4 -2.65 1.2 -2.55 6.95 -2.35 9.25 0.05" fill="#000ea8" fill-rule="evenodd" stroke="none"/>
      <path d="M-9.6 3.7 L-13.75 5.7 Q-13.35 4.7 -12.05 3.2 -6.85 -0.1 -0.8 -0.2 5.65 -0.3 11.05 3.35 L12.55 6.25 Q7.95 2.15 0.3 1.9 -4.5 1.75 -9.6 3.7" fill="#9ef1ff" fill-rule="evenodd" stroke="none"/>
      <path d="M10.6 2.65 L11.55 4.35 Q7.55 0.95 0.0 0.7 -4.7 0.55 -9.35 2.45 L-13.1 4.4 -11.25 2.35 -7.75 0.85 Q-3.4 -0.6 0.9 -0.5 8.3 -0.3 10.6 2.65" fill="#0082ed" fill-rule="evenodd" stroke="none"/>
      <path d="M1.85 -1.5 Q7.05 -1.0 9.9 1.4 L10.55 2.55 Q6.55 -0.3 1.8 -0.5 -4.55 -0.75 -11.25 2.35 L-10.15 1.35 -6.4 -0.3 Q-1.85 -1.85 1.85 -1.5" fill="#e8c100" fill-rule="evenodd" stroke="none"/>
      <path d="M-12.3 12.85 L-15.6 13.9 -15.25 10.85 -11.25 9.3 Q-12.1 11.0 -12.3 12.85" fill="#ece9e0" fill-rule="evenodd" stroke="none"/>
      <path d="M9.65 8.35 L11.05 8.65 Q12.65 9.15 13.6 9.85 L14.5 13.8 Q12.35 12.8 11.1 12.75 L9.65 8.35" fill="#0013e5" fill-rule="evenodd" stroke="none"/>
      <path d="M-11.2 9.2 Q-13.95 10.05 -15.25 10.85 L-15.0 9.9 -10.65 8.15 -11.2 9.2" fill="#725d42" fill-rule="evenodd" stroke="none"/>
      <path d="M9.6 8.35 Q12.4 8.85 13.7 9.85 L13.9 11.0 10.25 9.8 9.6 8.35" fill="#e8c100" fill-rule="evenodd" stroke="none"/>
      <path d="M8.65 7.1 Q12.05 7.7 13.35 8.55 L13.7 9.85 9.5 8.4 8.65 7.1" fill="#0082ed" fill-rule="evenodd" stroke="none"/>
      <path d="M-12.4 13.7 Q-14.4 14.0 -15.75 14.8 L-15.6 13.9 -12.3 12.85 -12.4 13.7" fill="#1a171b" fill-rule="evenodd" stroke="none"/>
      <path d="M11.0 12.3 L14.4 13.4 14.8 14.75 Q12.7 14.0 11.3 13.85 L11.0 12.3" fill="#9ef1ff" fill-rule="evenodd" stroke="none"/>
      <path d="M-12.0 11.55 L-12.6 14.25 Q-12.8 15.65 -14.05 16.55 -15.25 17.4 -16.35 17.1 L-15.55 13.4 -15.5 13.25 -15.45 12.5 Q-13.95 11.95 -12.0 11.55" fill="#00bbff" fill-rule="evenodd" stroke="none"/>
      <path d="M-4.8 3.95 Q-10.35 5.5 -12.0 11.55 -13.95 11.95 -15.45 12.5 -15.0 7.8 -12.95 4.55 -11.65 2.4 -8.6 0.0 L-2.2 -1.0 Q-3.75 0.75 -4.8 3.95" fill="#0013e5" fill-rule="evenodd" stroke="none"/>
      <path d="M3.65 -5.6 Q6.2 -5.3 7.8 -2.65 4.45 -3.95 0.85 -3.2 -0.95 -2.5 -2.2 -1.0 L-8.6 0.0 Q-1.0 -6.15 3.65 -5.6" fill="#ffffff" fill-rule="evenodd" stroke="none"/>
      <path d="M-13.75 5.7 L-12.1 3.2 -7.75 1.2 Q-5.15 0.1 -2.8 -0.05 L-4.15 2.25 Q-7.7 2.9 -11.05 4.35 L-13.75 5.7" fill="#ffffff" fill-rule="evenodd" stroke="none"/>
      <path d="M-0.5 -2.5 Q-1.7 -1.7 -2.8 -0.05 -5.15 0.1 -7.75 1.2 L-12.1 3.2 Q-10.3 1.2 -7.85 -0.6 L-5.95 -1.45 Q-3.45 -2.35 -0.5 -2.5" fill="#0013e5" fill-rule="evenodd" stroke="none"/>
      <path d="M-11.25 2.35 L-8.75 1.3 Q-5.6 0.15 -2.5 -0.25 L-3.35 0.9 Q-6.8 1.45 -10.3 3.0 L-13.1 4.4 -11.25 2.35" fill="#00bbff" fill-rule="evenodd" stroke="none"/>
      <path d="M-7.15 -0.1 Q-4.3 -1.05 -1.6 -1.4 L-2.6 -0.25 Q-7.05 0.35 -11.25 2.35 L-9.5 0.75 -7.15 -0.1" fill="#ffd400" fill-rule="evenodd" stroke="none"/>
      <path d="M-12.3 12.85 L-15.6 13.9 -15.25 10.85 -11.25 9.3 Q-12.1 11.0 -12.3 12.85" fill="#0013e5" fill-rule="evenodd" stroke="none"/>
      <path d="M-11.6 10.5 Q-14.05 11.0 -15.35 11.75 L-15.1 10.25 -11.15 9.2 -11.6 10.5" fill="#ffd400" fill-rule="evenodd" stroke="none"/>
      <path d="M-12.4 13.7 Q-14.4 14.0 -15.75 14.8 L-15.6 13.9 -12.3 12.85 -12.4 13.7" fill="#ffffff" fill-rule="evenodd" stroke="none"/>
      <path d="M4.9 -6.05 Q10.25 -4.75 13.6 2.25 L13.4 2.65 Q13.15 2.8 12.7 2.0 9.05 -3.65 5.7 -4.8 L4.9 -6.05" fill="#1a171b" fill-rule="evenodd" stroke="none"/>
      <path d="M-11.15 9.2 L-15.1 10.25 -14.85 8.85 -12.75 8.2 -10.4 7.75 -11.15 9.2" fill="#00bbff" fill-rule="evenodd" stroke="none"/>
    </g>
  </defs>
</svg>
