<?xml version="1.0" encoding="UTF-8" standalone="no"?>
<svg xmlns:xlink="http://www.w3.org/1999/xlink" height="92.9px" width="100.7px" xmlns="http://www.w3.org/2000/svg">
  <g transform="matrix(1.0, 0.0, 0.0, 1.0, 38.65, 49.75)">
    <use height="24.55" transform="matrix(1.0, 0.0, 0.0, 1.0, -17.0, -6.5)" width="37.9" xlink:href="#shape0"/>
  </g>
  <defs>
    <g id="shape0" transform="matrix(1.0, 0.0, 0.0, 1.0, 17.0, 6.5)">
      <path d="M13.5 -0.7 Q13.95 0.2 14.55 0.25 L16.0 -0.9 16.45 0.9 Q16.95 1.45 18.35 0.0 L17.9 2.25 20.15 2.3 Q19.3 3.85 18.7 4.1 18.95 4.9 20.9 5.0 L18.7 6.1 20.1 8.05 17.85 7.95 Q18.8 10.0 18.6 10.15 18.4 10.3 16.35 9.25 L16.15 11.85 14.4 9.85 Q13.65 11.6 12.6 12.05 L12.45 9.6 Q11.0 10.8 10.4 11.05 L10.7 8.6 8.65 8.9 9.55 6.95 7.6 6.55 9.15 5.0 7.85 3.65 Q9.35 3.7 9.6 3.05 9.75 2.65 9.25 2.0 L8.65 1.4 10.8 1.45 Q10.8 0.0 10.4 -0.7 11.5 -0.65 12.55 0.45 L13.15 -1.55 13.5 -0.7" fill="#1a171b" fill-rule="evenodd" stroke="none"/>
      <path d="M15.25 0.8 L15.35 0.65 15.75 1.45 16.75 1.9 17.2 1.75 17.2 1.85 16.85 2.4 17.35 2.9 18.3 3.4 17.7 3.7 17.9 4.35 18.2 4.9 18.65 5.25 18.5 5.3 17.0 5.65 18.25 6.85 18.4 7.1 16.45 7.0 17.3 8.75 15.3 7.8 15.55 9.8 14.15 8.4 13.65 9.5 13.4 9.9 13.2 9.25 12.7 8.25 11.5 9.3 11.55 8.7 11.75 7.6 10.0 7.85 10.25 7.45 11.05 6.4 9.25 6.0 9.65 5.65 10.45 5.1 9.55 4.15 10.4 3.35 10.35 2.2 11.65 2.55 11.6 0.75 12.95 2.05 13.4 0.55 Q13.85 1.0 14.45 1.1 L14.95 1.15 15.25 0.8" fill="#aca285" fill-rule="evenodd" stroke="none"/>
      <path d="M15.25 0.75 L15.35 0.65 15.75 1.4 15.85 1.5 16.75 1.85 17.2 1.7 17.2 1.85 16.85 2.4 16.5 3.15 17.7 3.5 16.95 4.1 Q17.0 4.3 18.15 4.85 L18.2 4.9 16.35 4.65 17.15 6.3 15.9 5.85 16.1 6.8 15.15 6.4 15.3 7.75 14.4 6.95 14.15 8.35 13.65 7.2 13.45 9.2 12.75 7.6 12.0 8.2 12.1 6.75 Q10.75 7.25 10.8 7.15 L11.6 5.75 9.25 6.0 10.45 5.05 9.55 4.15 10.4 3.35 10.35 2.2 11.65 2.55 11.6 0.75 12.95 2.05 13.4 0.55 Q13.85 1.0 14.45 1.1 L14.95 1.15 15.25 0.75" fill="#ccc3aa" fill-rule="evenodd" stroke="none"/>
      <path d="M11.65 0.9 L13.3 2.95 Q12.95 3.9 11.65 0.9" fill="#ece9e0" fill-rule="evenodd" stroke="none"/>
      <path d="M14.0 1.4 L14.5 3.65 Q14.0 3.6 13.85 3.2 L14.0 1.4" fill="#ece9e0" fill-rule="evenodd" stroke="none"/>
      <path d="M12.8 3.9 L12.55 4.5 9.75 4.55 11.5 4.0 Q12.0 3.9 10.65 2.55 11.75 3.0 12.8 3.9" fill="#ece9e0" fill-rule="evenodd" stroke="none"/>
      <path d="M12.25 6.15 Q11.3 5.6 10.1 5.5 12.4 4.6 12.85 5.3 13.0 5.55 12.25 6.15" fill="#ece9e0" fill-rule="evenodd" stroke="none"/>
      <path d="M13.05 4.75 Q14.0 5.0 14.3 5.4 14.55 5.75 14.1 5.7 L13.05 4.75" fill="#ece9e0" fill-rule="evenodd" stroke="none"/>
      <path d="M13.7 8.85 Q13.65 7.4 14.15 6.6 14.55 6.8 14.6 7.3 L13.7 8.85" fill="#ece9e0" fill-rule="evenodd" stroke="none"/>
      <path d="M17.4 6.55 Q16.4 6.5 16.1 6.15 15.75 5.85 16.25 5.8 16.8 5.8 17.4 6.55" fill="#ece9e0" fill-rule="evenodd" stroke="none"/>
      <path d="M15.25 0.9 Q15.7 1.75 15.6 2.2 L15.2 2.25 15.25 0.9" fill="#ece9e0" fill-rule="evenodd" stroke="none"/>
      <path d="M4.0 -6.45 Q7.0 -6.1 8.9 -2.9 L12.05 3.15 Q14.9 7.6 15.9 14.7 16.4 17.95 16.1 17.8 L13.1 16.75 Q10.95 15.8 10.65 13.75 9.15 4.2 -0.5 4.25 -10.25 4.35 -11.5 14.3 -11.75 16.35 -13.95 17.4 -15.65 18.2 -16.95 18.05 -17.2 18.0 -16.45 14.95 L-16.1 13.2 Q-15.75 7.85 -13.45 4.1 -11.25 0.6 -5.5 -3.05 0.55 -6.9 4.0 -6.45" fill="#1a171b" fill-rule="evenodd" stroke="none"/>
      <path d="M-5.0 -2.4 Q0.75 -6.0 3.9 -5.6 7.0 -5.25 9.5 0.15 L11.35 3.6 Q13.65 7.3 14.45 12.6 L15.55 16.45 Q15.45 16.2 13.5 15.8 11.7 15.4 11.5 13.7 10.3 3.45 -0.5 3.4 -10.65 3.4 -12.35 14.25 -12.55 15.65 -13.8 16.55 -15.0 17.4 -16.1 17.1 L-15.3 13.4 -15.25 13.25 Q-15.0 8.2 -12.7 4.55 -10.6 1.15 -5.0 -2.4" fill="#ccc3aa" fill-rule="evenodd" stroke="none"/>
      <path d="M10.85 2.65 L12.25 5.35 Q8.3 1.45 0.6 1.2 -4.2 1.05 -9.3 3.35 L-13.5 5.7 Q-12.85 4.0 -10.15 1.5 L-7.6 -0.6 -5.25 -1.65 Q-2.15 -2.65 1.45 -2.55 7.2 -2.35 9.5 0.05 L10.85 2.65" fill="#1a171b" fill-rule="evenodd" stroke="none"/>
      <path d="M10.85 2.65 L11.8 4.35 Q8.35 0.8 0.8 0.55 -3.9 0.4 -8.85 2.4 L-12.85 4.4 -11.0 2.35 -7.5 0.85 Q-3.15 -0.6 1.15 -0.5 8.55 -0.3 10.85 2.65" fill="#725d42" fill-rule="evenodd" stroke="none"/>
      <path d="M2.1 -1.0 Q7.3 -0.5 10.3 1.8 L10.8 2.55 Q6.8 -0.3 2.05 -0.5 -4.3 -0.75 -11.0 2.35 L-9.9 1.35 -6.15 -0.05 Q-1.6 -1.35 2.1 -1.0" fill="#ece9e0" fill-rule="evenodd" stroke="none"/>
      <path d="M-15.0 10.85 L-11.0 9.3 Q-11.85 11.0 -12.05 12.85 L-15.35 13.9 -15.0 10.85" fill="#ece9e0" fill-rule="evenodd" stroke="none"/>
      <path d="M9.9 8.35 L11.3 8.65 Q12.9 9.15 13.85 9.85 14.15 10.4 14.45 13.1 12.45 12.05 11.2 12.0 L9.9 8.35" fill="#ece9e0" fill-rule="evenodd" stroke="none"/>
      <path d="M-14.75 9.9 L-10.4 8.15 -10.95 9.2 -15.0 10.85 -14.75 9.9" fill="#725d42" fill-rule="evenodd" stroke="none"/>
      <path d="M9.25 7.4 Q12.05 7.9 13.75 9.1 L13.9 9.9 9.9 8.35 9.25 7.4" fill="#725d42" fill-rule="evenodd" stroke="none"/>
      <path d="M-15.35 13.9 L-12.05 12.85 -12.15 13.7 -15.5 14.8 -15.35 13.9" fill="#1a171b" fill-rule="evenodd" stroke="none"/>
      <path d="M11.2 12.0 L14.6 13.1 14.75 13.85 Q12.65 13.15 11.3 12.95 L11.2 12.0" fill="#1a171b" fill-rule="evenodd" stroke="none"/>
      <path d="M3.9 -5.6 Q6.45 -5.3 8.05 -2.65 4.7 -3.95 1.1 -3.2 -2.75 -1.65 -4.55 3.95 -11.0 5.8 -12.35 14.25 -12.55 15.65 -13.8 16.55 -15.0 17.4 -16.1 17.1 L-15.3 13.4 -15.25 13.25 Q-15.0 8.2 -12.7 4.55 -10.6 1.15 -5.0 -2.4 0.75 -6.0 3.9 -5.6" fill="#f1eee7" fill-rule="evenodd" stroke="none"/>
      <path d="M-7.6 -0.6 L-5.7 -1.45 Q-3.2 -2.35 -0.25 -2.5 -2.35 -1.15 -3.6 1.55 -7.15 2.2 -10.7 4.0 L-13.5 5.7 Q-12.85 4.0 -10.15 1.5 L-7.6 -0.6" fill="#5f5c5f" fill-rule="evenodd" stroke="none"/>
      <path d="M-11.0 2.35 L-8.65 1.25 Q-5.65 0.1 -2.55 -0.3 L-3.25 0.85 Q-6.7 1.4 -10.15 2.95 L-12.85 4.4 -11.0 2.35" fill="#9b8b78" fill-rule="evenodd" stroke="none"/>
      <path d="M-2.1 -0.9 L-2.55 -0.25 Q-6.75 0.35 -11.0 2.35 L-9.9 1.35 -7.6 0.45 Q-4.8 -0.55 -2.1 -0.9" fill="#fdfdfc" fill-rule="evenodd" stroke="none"/>
      <path d="M-15.0 10.85 L-11.0 9.3 Q-11.85 11.0 -12.05 12.85 L-15.35 13.9 -15.0 10.85" fill="#f8f8f4" fill-rule="evenodd" stroke="none"/>
      <path d="M-14.75 9.9 L-10.4 8.15 -10.95 9.2 -15.0 10.85 -14.75 9.9" fill="#9b8b78" fill-rule="evenodd" stroke="none"/>
      <path d="M-15.35 13.9 L-12.05 12.85 -12.15 13.7 -15.5 14.8 -15.35 13.9" fill="#5a575a" fill-rule="evenodd" stroke="none"/>
      <path d="M5.15 -6.05 L8.25 -4.5 Q11.75 -2.1 13.85 2.25 L13.65 2.65 Q13.4 2.8 12.95 2.0 9.3 -3.65 5.95 -4.8 L5.15 -6.05" fill="#1a171b" fill-rule="evenodd" stroke="none"/>
    </g>
  </defs>
</svg>
