<?xml version="1.0" encoding="UTF-8" standalone="no"?>
<svg xmlns:xlink="http://www.w3.org/1999/xlink" height="92.9px" width="100.7px" xmlns="http://www.w3.org/2000/svg">
  <g transform="matrix(1.0, 0.0, 0.0, 1.0, 38.65, 49.75)">
    <use height="29.6" transform="matrix(1.0, 0.0, 0.0, 1.0, -20.45, -4.3)" width="44.45" xlink:href="#sprite0"/>
    <use height="27.0" transform="matrix(1.0, 0.0, 0.0, 1.0, -19.5, -3.4)" width="42.5" xlink:href="#sprite1"/>
    <use height="25.95" transform="matrix(1.0, 0.0, 0.0, 1.0, -18.75, -2.8)" width="40.8" xlink:href="#sprite2"/>
    <use height="25.25" transform="matrix(1.0, 0.0, 0.0, 1.0, -19.3, -1.85)" width="36.6" xlink:href="#sprite3"/>
  </g>
  <defs>
    <g id="sprite0" transform="matrix(1.0, 0.0, 0.0, 1.0, 0.0, 0.0)">
      <use height="29.6" transform="matrix(1.0, 0.0, 0.0, 1.0, 0.0, 0.0)" width="44.45" xlink:href="#shape0"/>
    </g>
    <g id="shape0" transform="matrix(1.0, 0.0, 0.0, 1.0, 0.0, 0.0)">
      <path d="M40.6 29.0 L36.15 27.3 Q35.85 24.55 34.0 20.05 32.25 15.85 31.0 14.3 L26.1 12.05 Q28.15 14.85 27.4 20.55 26.05 17.2 24.65 15.45 L20.55 9.6 Q17.55 14.5 16.45 18.6 15.4 22.7 14.25 25.35 13.75 20.45 14.1 18.0 11.7 22.8 10.4 27.75 9.3 24.45 9.95 19.2 10.5 14.55 11.7 12.3 L10.0 13.2 Q5.05 20.3 3.8 27.25 L0.0 29.6 Q0.1 26.55 0.9 22.8 2.5 15.35 6.2 12.1 6.55 10.1 7.8 7.3 9.25 4.2 10.45 3.55 14.9 1.2 16.15 0.75 20.85 -0.95 22.55 1.2 L26.9 0.6 Q29.9 0.95 33.05 4.35 34.8 6.25 35.7 12.7 L39.1 16.4 Q42.65 20.55 43.45 23.05 44.7 27.05 44.35 29.6 41.75 25.5 40.5 24.4 41.05 26.6 40.6 29.0" fill="#1b191e" fill-rule="evenodd" stroke="none"/>
    </g>
    <g id="sprite1" transform="matrix(1.0, 0.0, 0.0, 1.0, 0.0, 0.0)">
      <use height="27.0" transform="matrix(1.0, 0.0, 0.0, 1.0, 0.0, 0.0)" width="42.5" xlink:href="#shape1"/>
    </g>
    <g id="shape1" transform="matrix(1.0, 0.0, 0.0, 1.0, 0.0, 0.0)">
      <path d="M41.7 22.4 Q42.2 23.85 42.5 25.85 40.95 23.6 40.1 22.9 L38.2 21.25 38.8 23.7 39.0 25.85 38.95 26.95 35.9 25.85 Q35.5 22.9 33.65 18.55 31.95 14.5 30.7 12.9 L30.55 12.75 24.15 9.8 25.75 16.25 24.35 14.05 20.3 8.25 19.6 7.25 18.95 8.3 Q15.8 13.3 14.75 17.5 L13.85 20.55 13.95 13.4 Q11.5 18.45 9.65 23.6 L9.55 21.7 Q9.55 17.35 11.0 12.2 L12.05 10.1 8.65 11.6 8.5 11.7 8.4 11.85 Q3.5 18.75 2.2 25.75 1.25 26.15 0.0 27.0 0.95 16.1 5.75 11.8 L6.0 11.65 6.05 11.35 Q6.4 9.4 7.6 6.75 8.9 3.9 9.9 3.4 L10.3 3.15 Q19.1 -1.55 20.95 0.8 L21.25 1.2 22.35 0.9 26.25 0.55 Q28.7 1.05 31.5 4.0 33.05 5.65 33.95 11.9 L34.0 12.2 34.2 12.4 37.55 16.0 Q41.0 20.05 41.7 22.4" fill="#660000" fill-rule="evenodd" stroke="none"/>
    </g>
    <g id="sprite2" transform="matrix(1.0, 0.0, 0.0, 1.0, 0.0, 0.0)">
      <use height="25.95" transform="matrix(1.0, 0.0, 0.0, 1.0, 0.0, 0.0)" width="40.8" xlink:href="#shape2"/>
    </g>
    <g id="shape2" transform="matrix(1.0, 0.0, 0.0, 1.0, 0.0, 0.0)">
      <path d="M26.4 3.85 L27.8 4.75 Q29.35 5.85 30.0 6.85 28.45 5.85 27.45 5.65 L26.75 5.65 30.1 8.35 27.1 7.45 28.55 8.95 Q30.25 10.4 31.75 10.25 30.25 10.7 28.3 10.2 L26.65 9.65 21.9 7.55 22.85 9.5 Q23.95 12.0 24.55 14.6 L19.9 6.85 22.95 6.55 Q21.9 5.7 21.25 5.7 L24.0 5.55 Q22.5 4.7 21.45 4.7 23.6 4.5 24.65 4.65 22.85 3.35 21.6 3.4 L24.6 3.35 Q22.85 2.15 21.55 2.25 L24.4 1.95 21.45 1.05 24.6 0.5 Q25.35 0.55 27.4 1.7 29.65 2.95 30.4 3.9 L26.55 2.4 30.0 5.15 Q28.2 4.05 27.15 3.85 L26.4 3.85 M31.45 13.35 Q35.1 17.5 35.85 21.55 35.8 19.9 34.55 15.85 36.8 19.55 37.45 25.95 L35.8 25.3 Q35.45 19.7 31.45 13.35 M38.35 19.45 L36.8 17.85 35.8 15.05 Q39.7 19.15 40.8 22.9 40.1 21.35 38.35 19.45 M19.2 5.55 Q15.6 8.65 14.35 13.35 14.9 8.95 15.65 7.6 11.85 10.75 9.25 20.1 L9.5 16.7 Q10.0 12.8 11.2 10.4 L9.05 10.2 7.9 10.45 Q2.3 15.7 0.95 25.4 L0.0 25.95 Q-0.05 23.85 0.65 20.95 2.1 15.15 6.05 11.05 L7.35 7.4 Q8.6 3.9 9.25 3.35 10.3 2.5 12.9 1.35 16.0 0.0 17.85 0.0 L11.45 3.3 18.05 1.1 12.55 4.1 18.2 2.05 14.05 4.9 18.5 3.45 14.9 5.7 18.8 4.9 Q16.85 5.7 17.8 5.7 L19.2 5.55 M13.9 6.2 Q10.9 6.8 9.65 7.35 L12.15 7.3 8.6 9.2 11.6 8.9 13.9 6.2" fill="#8e3820" fill-rule="evenodd" stroke="none"/>
    </g>
    <g id="sprite3" transform="matrix(1.0, 0.0, 0.0, 1.0, 7.75, 0.0)">
      <use height="25.25" transform="matrix(1.0, 0.0, 0.0, 1.0, -7.75, 0.0)" width="36.6" xlink:href="#shape3"/>
    </g>
    <g id="shape3" transform="matrix(1.0, 0.0, 0.0, 1.0, 7.75, 0.0)">
      <path d="M1.9 5.25 L4.9 5.3 0.6 6.4 2.45 2.8 7.6 0.0 3.2 3.1 Q5.9 2.15 5.4 2.5 L2.55 4.25 Q6.75 3.3 5.9 3.7 L1.9 5.25" fill="#e6aa6f" fill-rule="evenodd" stroke="none"/>
      <path d="M7.2 5.45 Q9.25 4.55 9.35 5.05 10.4 5.35 9.8 6.0 L7.35 11.35 8.7 6.0 Q5.5 7.9 3.55 13.35 2.55 16.05 2.2 18.4 2.45 15.25 3.45 11.15 4.45 7.05 7.2 5.45" fill="#e6aa6f" fill-rule="evenodd" stroke="none"/>
      <path d="M19.7 2.5 L18.15 2.75 20.25 4.35 18.0 4.75 Q21.5 6.1 20.1 5.95 L17.05 6.7 21.6 9.2 14.25 6.45 Q14.65 6.9 16.7 12.6 L13.1 6.45 Q13.0 5.95 14.4 6.05 L16.05 6.25 16.35 5.8 Q16.4 5.35 16.05 5.1 L18.55 5.6 Q17.8 4.65 16.65 4.1 L18.2 3.7 Q17.9 3.05 16.6 2.7 17.15 2.8 18.05 2.25 L16.55 1.4 17.8 1.3 17.4 0.2 20.1 1.05 18.4 1.35 19.7 2.5" fill="#e6aa6f" fill-rule="evenodd" stroke="none"/>
      <path d="M3.4 8.75 L0.0 9.2 Q1.95 8.2 3.7 8.2 L3.4 8.75" fill="#e6aa6f" fill-rule="evenodd" stroke="none"/>
      <path d="M3.4 6.8 L0.5 8.2 0.65 6.55 3.4 6.8" fill="#e6aa6f" fill-rule="evenodd" stroke="none"/>
      <path d="M24.95 13.65 Q26.85 16.55 28.15 20.85 29.3 24.9 28.6 24.35 28.55 22.15 26.75 17.65 L24.95 13.65" fill="#e6aa6f" fill-rule="evenodd" stroke="none"/>
      <path d="M-7.2 24.85 L-7.75 25.25 Q-7.25 18.8 -4.4 14.15 -3.0 11.85 -1.7 10.8 -5.05 14.85 -6.45 20.25 -7.15 22.95 -7.2 24.85" fill="#e6aa6f" fill-rule="evenodd" stroke="none"/>
    </g>
  </defs>
</svg>
