<?xml version="1.0" encoding="UTF-8" standalone="no"?>
<svg xmlns:xlink="http://www.w3.org/1999/xlink" height="92.9px" width="100.7px" xmlns="http://www.w3.org/2000/svg">
  <g transform="matrix(1.0, 0.0, 0.0, 1.0, 38.65, 49.75)">
    <use height="20.95" transform="matrix(1.0, 0.0, 0.0, 1.0, -21.4, -6.05)" width="34.35" xlink:href="#shape0"/>
  </g>
  <defs>
    <g id="shape0" transform="matrix(1.0, 0.0, 0.0, 1.0, 21.4, 6.05)">
      <path d="M10.2 5.2 L11.05 5.25 Q12.95 8.55 12.95 11.35 7.15 8.4 -2.05 8.35 L-3.9 8.3 -3.55 7.45 -0.8 7.5 -0.55 7.5 3.05 7.9 9.25 9.1 10.1 9.45 9.85 9.25 11.85 9.9 12.3 10.2 12.25 10.05 12.2 9.95 Q11.2 7.0 10.2 5.2" fill="#681c04" fill-rule="evenodd" stroke="none"/>
      <path d="M10.2 5.2 Q11.2 7.0 12.2 9.95 11.95 9.3 10.55 8.15 8.9 6.75 7.25 6.0 L1.2 6.3 Q-3.95 7.35 -2.6 7.35 L-0.8 7.5 -3.55 7.45 -3.5 7.3 -3.45 7.2 -3.35 7.3 -2.85 7.0 -1.55 6.65 4.7 5.7 10.2 5.2 M12.25 10.05 L12.3 10.2 11.85 9.9 12.25 10.05" fill="#ce1305" fill-rule="evenodd" stroke="none"/>
      <path d="M1.0 5.0 L-0.75 5.4 Q5.05 4.25 9.2 4.2 L10.05 4.35 10.1 4.2 10.4 4.2 Q9.45 -2.2 6.0 -3.7 L4.55 -4.2 Q2.55 -5.3 -0.85 -4.85 -7.55 -3.9 -9.4 -2.05 L-9.45 -2.0 -9.55 -2.05 Q-10.2 -2.25 -12.0 -0.1 -14.0 2.15 -14.35 4.1 L-14.85 5.95 -15.0 5.9 -15.3 5.9 -15.7 6.1 -16.6 6.55 -16.1 4.7 Q-13.4 -1.15 -9.55 -3.3 -5.8 -5.45 -1.5 -5.9 2.55 -6.35 5.4 -5.2 11.85 -2.5 11.4 5.3 L11.05 5.25 10.2 5.2 4.7 5.7 -1.55 6.65 -2.85 7.0 -3.35 7.3 -3.45 7.2 -3.6 6.8 Q-3.85 6.55 -4.1 6.65 L-4.2 6.7 -4.3 6.7 -4.8 6.7 Q-5.5 5.55 -7.85 5.3 L-5.3 5.25 Q-4.7 5.35 -4.25 5.6 -3.9 5.75 -3.65 6.0 L-2.8 5.85 -1.75 5.65 -1.2 5.4 1.0 5.0" fill="#281301" fill-rule="evenodd" stroke="none"/>
      <path d="M4.55 -4.2 L1.95 -4.75 -0.1 -4.9 Q2.75 -4.35 4.5 -2.2 6.05 -0.3 6.05 1.65 6.05 3.6 1.0 5.0 L-1.2 5.4 -1.75 5.65 -2.8 5.85 -3.65 6.0 Q-3.9 5.75 -4.25 5.6 -4.7 4.5 -6.05 2.3 -8.4 -1.6 -9.45 -2.0 L-9.4 -2.05 Q-7.55 -3.9 -0.85 -4.85 2.55 -5.3 4.55 -4.2 M9.2 4.2 L10.1 4.2 10.05 4.35 9.2 4.2 M-5.1 -3.05 Q-7.75 -2.35 -7.8 -2.05 L-6.65 -0.35 Q-3.75 1.1 -1.7 -1.35 -0.95 -2.25 -0.8 -3.1 -0.7 -3.95 -1.3 -3.9 L-5.1 -3.05 M-13.35 5.5 L-11.45 5.35 Q-12.3 5.7 -13.5 7.5 L-15.65 10.6 Q-17.4 9.4 -19.3 9.4 -18.7 8.55 -16.6 7.2 L-14.55 6.0 -13.5 5.55 -13.4 5.5 -13.35 5.5 M-4.2 6.7 L-4.4 6.75 -4.3 6.7 -4.2 6.7" fill="#f7964d" fill-rule="evenodd" stroke="none"/>
      <path d="M-9.45 -2.0 Q-8.4 -1.6 -6.05 2.3 -4.7 4.5 -4.25 5.6 -4.7 5.35 -5.3 5.25 L-7.85 5.3 Q-9.85 5.05 -12.9 5.4 L-13.35 5.5 -13.4 5.5 -13.5 5.55 -14.55 6.0 -14.85 5.95 -14.35 4.1 Q-14.0 2.15 -12.0 -0.1 -10.2 -2.25 -9.55 -2.05 L-9.45 -2.0 M12.2 9.95 L12.25 10.05 11.85 9.9 9.85 9.25 6.3 6.85 Q5.4 6.2 2.2 6.8 -1.25 7.4 -0.55 7.5 L-0.8 7.5 -2.6 7.35 Q-3.95 7.35 1.2 6.3 L7.25 6.0 Q8.9 6.75 10.55 8.15 11.95 9.3 12.2 9.95 M-4.75 6.8 L-4.8 6.7 -4.3 6.7 -4.4 6.75 -4.75 6.8" fill="#f4260b" fill-rule="evenodd" stroke="none"/>
      <path d="M1.0 5.0 Q6.05 3.6 6.05 1.65 6.05 -0.3 4.5 -2.2 2.75 -4.35 -0.1 -4.9 L1.95 -4.75 4.55 -4.2 6.0 -3.7 Q9.45 -2.2 10.4 4.2 L10.1 4.2 9.2 4.2 Q5.05 4.25 -0.75 5.4 L1.0 5.0 M9.85 9.25 L10.1 9.45 9.25 9.1 3.05 7.9 -0.55 7.5 Q-1.25 7.4 2.2 6.8 5.4 6.2 6.3 6.85 L9.85 9.25 M-17.75 10.45 L-20.2 12.1 Q-21.2 11.05 -20.6 9.9 L-20.45 9.9 Q-19.15 9.9 -17.75 10.45" fill="#f47003" fill-rule="evenodd" stroke="none"/>
      <path d="M-5.1 -3.05 L-1.3 -3.9 Q-0.7 -3.95 -0.8 -3.1 -0.95 -2.25 -1.7 -1.35 -3.75 1.1 -6.65 -0.35 L-7.8 -2.05 Q-7.75 -2.35 -5.1 -3.05" fill="#f9caaa" fill-rule="evenodd" stroke="none"/>
      <path d="M-3.55 7.45 L-3.9 8.3 Q-4.95 10.5 -8.15 14.25 -9.35 15.7 -11.9 13.9 L-13.75 12.65 -16.95 10.75 -18.7 11.9 -19.6 12.6 Q-20.1 12.9 -20.6 12.4 -21.35 11.65 -21.4 10.9 L-21.4 10.55 Q-21.25 8.8 -19.5 8.25 -18.45 7.4 -16.6 6.55 L-15.7 6.1 -15.3 5.9 -15.0 5.9 -14.85 5.95 -14.55 6.0 -16.6 7.2 Q-18.7 8.55 -19.3 9.4 -17.4 9.4 -15.65 10.6 L-13.5 7.5 Q-12.3 5.7 -11.45 5.35 L-13.35 5.5 -12.9 5.4 Q-9.85 5.05 -7.85 5.3 -5.5 5.55 -4.8 6.7 L-4.75 6.8 -4.6 7.2 -4.55 7.3 -4.55 7.35 Q-5.45 9.75 -8.85 13.55 -9.4 14.25 -10.65 13.8 L-11.75 13.2 -13.3 12.15 Q-12.45 11.2 -9.7 11.45 -7.2 10.9 -6.5 5.8 L-6.4 5.7 Q-4.9 6.35 -4.6 7.2 -4.9 6.35 -6.4 5.7 L-6.5 5.8 Q-7.2 10.9 -9.7 11.45 -12.45 11.2 -13.3 12.15 L-11.75 13.2 -10.65 13.8 Q-9.4 14.25 -8.85 13.55 -5.45 9.75 -4.55 7.35 L-4.55 7.3 -4.6 7.2 -4.75 6.8 -4.4 6.75 -4.2 6.7 -4.1 6.65 Q-3.85 6.55 -3.6 6.8 L-3.45 7.2 -3.5 7.3 -3.55 7.45 M-4.55 7.35 Q-5.45 9.9 -8.8 13.6 -9.35 14.3 -10.6 13.85 L-11.7 13.25 Q-17.45 9.45 -19.3 9.4 -17.45 9.45 -11.7 13.25 L-10.6 13.85 Q-9.35 14.3 -8.8 13.6 -5.45 9.9 -4.55 7.35 M-17.75 10.45 Q-19.15 9.9 -20.45 9.9 L-20.6 9.9 Q-21.2 11.05 -20.2 12.1 L-17.75 10.45" fill="#00081c" fill-rule="evenodd" stroke="none"/>
    </g>
  </defs>
</svg>
