<?xml version="1.0" encoding="UTF-8" standalone="no"?>
<svg xmlns:xlink="http://www.w3.org/1999/xlink" height="92.9px" width="100.7px" xmlns="http://www.w3.org/2000/svg">
  <g transform="matrix(1.0, 0.0, 0.0, 1.0, 38.65, 49.75)">
    <use height="25.9" transform="matrix(1.0, 0.0, 0.0, 1.0, -27.5, -6.55)" width="47.35" xlink:href="#shape0"/>
  </g>
  <defs>
    <g id="shape0" transform="matrix(1.0, 0.0, 0.0, 1.0, 27.5, 6.55)">
      <path d="M-8.25 -0.7 L-10.45 -0.75 -10.15 -0.65 -10.25 -0.65 -10.15 -0.6 Q-7.45 0.35 -4.7 0.35 L-5.9 -0.15 -7.2 -0.45 -7.65 -0.55 -7.75 -0.55 -8.15 -0.65 -8.25 -0.7 M-21.6 7.75 L-18.3 5.5 -23.8 5.6 -18.7 4.55 Q-21.65 3.65 -24.15 1.6 -17.95 2.75 -11.85 1.55 L-10.15 0.95 -9.15 0.45 -13.25 -0.45 -11.7 -1.3 -8.4 -1.55 -6.6 -1.1 Q-6.5 -3.05 -7.75 -4.4 L-5.5 -2.75 Q-4.8 -2.2 -3.85 -2.5 -1.85 -3.05 0.0 -4.15 2.85 -5.75 6.25 -6.3 L9.05 -6.55 5.2 -5.0 Q3.55 -4.3 2.05 -3.2 4.25 -4.4 6.7 -4.6 L6.85 -4.55 4.25 -2.25 Q7.3 -0.4 10.75 0.3 L15.15 0.05 11.75 1.55 16.6 3.3 13.15 4.2 16.85 4.55 16.85 4.75 13.7 5.8 14.6 6.5 Q17.05 8.15 19.7 9.35 L19.85 9.45 15.45 9.6 Q14.85 9.75 14.45 10.05 L14.35 11.4 14.65 12.95 14.8 13.7 Q13.5 12.8 11.95 12.7 L10.8 13.05 9.5 13.45 7.35 14.1 7.5 13.85 Q9.1 12.55 10.25 10.6 L10.55 9.95 10.1 9.05 6.05 12.5 Q6.45 11.35 7.1 10.4 L7.9 8.65 Q8.25 7.4 7.4 6.1 L6.55 4.8 5.5 5.55 Q3.0 7.6 0.2 8.6 L-2.0 9.5 Q-0.45 8.3 1.0 6.9 L2.35 5.1 2.95 3.7 -0.9 7.1 -3.2 8.7 Q-4.7 9.7 -6.45 9.95 -9.0 12.3 -12.05 14.2 L-15.6 16.8 Q-17.6 18.55 -20.05 19.35 L-17.25 16.15 -26.2 18.6 Q-25.1 17.2 -23.65 16.5 -20.85 15.35 -18.3 13.8 L-23.75 15.1 -20.25 13.5 -27.5 14.35 -17.2 8.65 -22.15 10.3 -17.1 7.6 -26.1 9.9 -23.6 8.7 -21.8 7.85 -21.4 7.8 -24.9 9.4 -11.5 4.85 -14.3 5.0 -14.65 5.05 -15.3 5.05 -15.8 5.2 -19.25 6.75 -21.6 7.75 M-6.2 -2.7 L-6.5 -3.05 -6.25 -1.3 -5.6 -0.65 -5.65 -0.85 -4.95 -0.3 -4.5 -1.65 -6.2 -2.7 M-2.3 -2.25 L-4.2 -0.9 Q-4.65 -0.55 -4.25 -0.2 L-3.9 -0.05 -3.7 -0.05 Q-2.4 0.0 -1.1 -0.8 L0.8 -2.35 3.05 -4.65 0.4 -3.5 -0.85 -2.95 -1.7 -2.5 -2.3 -2.25 M1.65 -2.2 L1.25 -1.9 -2.2 0.15 -1.85 0.05 -2.55 0.45 Q0.15 0.15 2.4 -1.05 L2.85 -1.45 4.3 -2.95 4.45 -3.45 1.65 -2.2 M2.2 -0.1 Q2.7 1.0 4.0 1.3 L5.55 1.75 6.45 2.25 Q6.0 0.25 3.95 -0.55 L2.45 -0.35 2.2 -0.1 M4.45 -1.25 L4.65 -1.1 Q5.55 0.25 6.9 0.95 L7.85 1.45 Q9.3 2.6 11.05 3.45 12.8 4.15 14.15 3.15 L9.55 1.45 4.45 -1.25 M10.75 0.45 L10.55 0.45 10.3 0.4 8.0 0.05 7.65 0.0 Q10.25 2.15 13.35 0.65 L11.9 0.55 10.75 0.45 M11.0 6.1 L10.75 6.0 10.85 6.25 Q11.45 7.6 12.7 8.55 L13.85 9.4 17.05 8.8 12.1 6.6 11.0 6.1 M6.8 1.7 Q6.95 2.3 7.95 3.5 8.7 4.45 9.9 4.85 L14.55 5.0 Q12.8 5.3 11.35 4.4 L10.5 3.95 10.25 3.8 7.1 1.8 7.25 1.95 6.8 1.7 M11.65 9.25 L11.55 9.2 10.85 8.0 11.0 8.95 Q11.3 10.35 10.5 11.5 L9.25 12.8 9.35 12.85 Q11.65 11.85 13.9 12.25 L13.85 12.15 Q13.25 10.3 11.65 9.25 M4.75 1.8 L4.65 1.8 4.05 1.45 2.35 1.0 3.65 3.35 Q3.8 4.2 3.3 4.75 1.5 7.05 -0.85 8.8 L5.5 4.65 6.25 3.8 6.0 2.5 4.9 1.9 4.75 1.8 M8.6 8.0 L8.5 8.45 7.2 10.9 Q6.85 11.4 6.8 11.65 L9.95 8.45 9.85 7.05 9.35 5.85 Q8.35 4.6 6.85 4.25 6.5 4.1 6.7 4.35 L8.05 5.75 8.35 6.3 8.6 7.7 8.6 8.0 M-1.7 1.75 L-1.4 2.75 -1.3 2.65 Q-0.65 1.2 0.8 0.75 L2.3 1.45 1.6 -0.15 -0.1 0.3 -0.75 0.5 -0.7 0.45 -1.15 0.65 -1.65 0.8 -1.7 0.85 -1.7 1.75 M-0.15 2.9 L-3.75 8.8 -0.65 6.2 0.0 5.35 Q1.05 3.6 2.6 2.8 L1.25 1.45 0.7 1.45 0.4 2.0 0.35 2.0 -0.15 2.9 M-3.45 4.3 L-3.4 4.25 -6.7 5.55 -7.25 5.95 -7.7 6.4 -7.55 6.4 -8.6 7.65 Q-6.8 7.15 -5.1 6.15 L-2.15 4.5 -1.55 3.75 -1.35 3.2 -2.3 3.85 -3.45 4.3 M-4.4 3.2 L-4.8 3.3 -6.25 3.65 Q-8.15 4.15 -9.95 5.05 L-10.25 5.2 -10.55 5.3 -10.75 5.4 -10.95 5.45 -11.2 5.55 -18.7 8.8 Q-11.3 7.0 -4.05 3.7 L-2.35 2.95 -4.4 3.2 M-9.9 1.5 L-10.9 1.85 -2.4 1.6 -4.5 1.15 -5.3 0.95 -5.75 0.85 -6.9 0.65 -7.85 0.8 -8.7 1.1 -9.0 1.2 -9.3 1.3 -10.05 1.5 -9.9 1.5 M-7.8 2.25 L-8.55 2.25 -9.65 2.35 -13.8 2.5 -14.55 2.55 -17.1 2.55 -22.45 2.4 -18.3 3.55 -13.35 4.45 Q-8.5 4.8 -4.6 2.05 L-7.8 2.25 M-12.8 11.4 L-15.0 12.9 Q-12.35 12.0 -9.65 10.65 -6.55 9.05 -4.3 6.4 L-8.75 8.55 -12.2 10.7 -11.55 10.55 -13.25 11.55 -12.8 11.4 M-6.45 9.95 L-4.55 8.7 Q-2.55 7.35 -2.0 4.9 -4.0 7.65 -6.45 9.95 M-21.95 11.95 L-25.75 13.9 -20.7 12.95 Q-17.8 12.35 -15.0 11.15 -13.65 10.6 -12.45 9.85 L-9.95 8.15 Q-8.65 7.3 -8.0 6.05 L-11.45 7.05 -11.95 7.2 -13.1 7.7 -15.55 8.8 -17.05 9.5 -17.4 9.7 -18.55 10.2 -18.8 10.35 -19.1 10.45 -19.4 10.6 -19.65 10.75 -22.05 11.95 -21.95 11.95 M-18.4 4.7 L-19.15 4.95 -16.75 4.45 Q-16.4 4.4 -16.55 4.35 L-16.65 4.35 -16.8 4.3 -18.6 4.7 -18.4 4.7 -18.6 4.7 -16.8 4.3 -16.65 4.35 -16.55 4.35 Q-16.4 4.4 -16.75 4.45 L-18.4 4.7 M-16.65 4.35 L-15.05 4.55 Q-17.7 5.7 -20.5 5.25 L-19.15 4.95 -20.5 5.25 Q-17.7 5.7 -15.05 4.55 L-16.65 4.35 M-17.95 17.45 L-19.0 18.55 Q-15.7 17.2 -13.55 14.3 L-14.9 15.1 -15.6 15.45 -18.0 17.4 -17.95 17.45 M-16.9 14.1 L-19.1 15.05 -25.15 17.65 Q-21.95 17.3 -18.7 16.25 -14.85 14.85 -11.6 12.55 L-10.0 11.4 -16.9 14.1 M-18.55 13.1 L-22.1 14.6 Q-19.4 14.05 -16.7 13.0 L-14.95 11.75 -18.05 12.95 -17.6 12.75 -18.55 13.1" fill="#301902" fill-rule="evenodd" stroke="none"/>
      <path d="M-10.15 -0.65 L-10.45 -0.75 -8.25 -0.7 -9.85 -0.7 -9.65 -0.6 -10.15 -0.65 M-5.9 -0.15 L-4.7 0.35 Q-7.45 0.35 -10.15 -0.6 L-5.9 -0.15 M-14.3 5.0 L-11.5 4.85 -24.9 9.4 -21.4 7.8 -18.35 7.05 -15.9 6.0 -12.9 4.95 -14.3 5.0 M-5.65 -0.85 L-6.2 -2.7 -4.5 -1.65 -4.95 -0.3 -5.65 -0.85 M-4.0 -0.9 L-3.95 -0.15 -3.9 -0.05 -4.25 -0.2 Q-4.65 -0.55 -4.2 -0.9 L-2.3 -2.25 -4.0 -0.9 M0.4 -3.5 L3.05 -4.65 0.8 -2.35 -1.1 -0.8 Q-2.4 0.0 -3.7 -0.05 L0.4 -3.5 M-1.85 0.05 Q-0.4 0.05 0.65 -0.6 1.65 -1.25 1.65 -2.2 L4.45 -3.45 4.3 -2.95 2.85 -1.45 2.4 -1.05 Q0.15 0.15 -2.55 0.45 L-1.85 0.05 M9.75 1.65 L9.55 1.45 14.15 3.15 Q12.8 4.15 11.05 3.45 9.3 2.6 7.85 1.45 L11.7 2.45 9.75 1.65 M11.9 0.55 L13.35 0.65 Q10.25 2.15 7.65 0.0 9.45 1.2 11.55 0.6 L11.9 0.55 M11.0 6.15 L10.75 6.0 11.0 6.1 11.0 6.15 M10.85 6.25 Q11.85 8.15 13.95 8.0 L14.45 7.8 13.85 7.5 12.1 6.6 17.05 8.8 13.85 9.4 12.7 8.55 Q11.45 7.6 10.85 6.25 M6.8 1.7 L8.8 3.7 Q9.7 4.5 11.1 4.4 L10.5 3.95 11.35 4.4 Q12.8 5.3 14.55 5.0 L9.9 4.85 Q8.7 4.45 7.95 3.5 6.95 2.3 6.8 1.7 M11.65 9.25 Q13.25 10.3 13.85 12.15 L13.9 12.25 Q11.65 11.85 9.35 12.85 L9.25 12.8 Q11.1 12.25 11.95 10.6 L12.1 10.15 11.65 9.25 M-7.55 6.4 Q-6.25 6.05 -5.1 5.4 L-2.3 3.85 -1.35 3.2 -1.55 3.75 -2.15 4.5 -5.1 6.15 Q-6.8 7.15 -8.6 7.65 L-7.55 6.4 M-11.15 5.55 L-14.55 7.0 Q-9.25 5.7 -4.35 3.2 L-4.4 3.2 -2.35 2.95 -4.05 3.7 Q-11.3 7.0 -18.7 8.8 L-11.2 5.55 -11.15 5.55 M-4.5 1.15 L-2.4 1.6 -10.9 1.85 -9.9 1.5 -4.5 1.15 M-9.0 1.2 L-8.7 1.1 -8.35 1.0 -9.0 1.2 M-5.75 0.85 L-5.3 0.95 -5.85 0.85 -5.75 0.85 M-7.8 2.25 L-4.6 2.05 Q-8.5 4.8 -13.35 4.45 L-18.3 3.55 -22.45 2.4 -17.1 2.55 -14.55 2.55 -16.95 2.6 -16.8 2.65 -19.15 2.75 Q-14.75 4.05 -10.2 3.65 -8.1 3.4 -6.1 2.2 L-7.8 2.25 M-9.05 9.0 L-8.75 8.55 -4.3 6.4 Q-6.55 9.05 -9.65 10.65 -12.35 12.0 -15.0 12.9 L-12.8 11.4 Q-10.3 10.4 -8.25 8.8 L-7.3 7.9 -9.05 9.0 M-11.45 7.05 L-8.0 6.05 Q-8.65 7.3 -9.95 8.15 L-12.45 9.85 Q-13.65 10.6 -15.0 11.15 -17.8 12.35 -20.7 12.95 L-25.75 13.9 -21.95 11.95 Q-18.0 11.35 -14.25 9.6 L-12.6 8.7 Q-11.55 8.05 -11.45 7.05 M-14.9 15.1 L-13.55 14.3 Q-15.7 17.2 -19.0 18.55 L-17.95 17.45 Q-16.45 17.0 -15.4 15.8 L-14.9 15.1 M-19.1 15.05 L-21.0 16.45 -13.55 13.2 -14.55 13.45 -16.9 14.1 -10.0 11.4 -11.6 12.55 Q-14.85 14.85 -18.7 16.25 -21.95 17.3 -25.15 17.65 L-19.1 15.05 M-18.55 13.1 L-18.05 12.95 -14.95 11.75 -16.7 13.0 Q-19.4 14.05 -22.1 14.6 L-18.55 13.1" fill="#724305" fill-rule="evenodd" stroke="none"/>
      <path d="M-7.65 -0.55 L-7.2 -0.45 -5.9 -0.15 -10.15 -0.6 -10.25 -0.65 -10.15 -0.65 -9.65 -0.6 -7.1 -0.4 -7.65 -0.55 M-21.8 7.85 L-21.85 7.85 -21.6 7.75 -19.25 6.75 -14.3 5.0 -12.9 4.95 -15.9 6.0 -18.35 7.05 -21.4 7.8 -21.8 7.85 M-6.2 -2.7 L-5.65 -0.85 -5.6 -0.65 -6.25 -1.3 -6.5 -3.05 -6.2 -2.7 M-4.0 -0.9 L-2.3 -2.25 -1.7 -2.5 -0.85 -2.95 0.4 -3.5 -3.7 -0.05 -3.9 -0.05 -3.95 -0.15 -2.9 -1.6 -4.0 -0.9 M1.65 -2.2 Q1.65 -1.25 0.65 -0.6 -0.4 0.05 -1.85 0.05 -0.15 -0.45 1.1 -1.65 L1.25 -1.9 1.65 -2.2 M2.2 -0.1 L2.45 -0.35 3.95 -0.55 Q6.0 0.25 6.45 2.25 L5.55 1.75 4.0 1.3 Q2.7 1.0 2.2 -0.1 M4.65 -1.1 Q6.7 0.75 9.4 1.7 L9.75 1.65 11.7 2.45 7.85 1.45 6.9 0.95 Q5.55 0.25 4.65 -1.1 M4.55 0.45 L5.55 0.95 Q4.4 -0.55 2.65 -0.4 L2.55 -0.2 2.55 -0.1 4.55 0.45 M10.75 0.45 L11.9 0.55 11.55 0.6 Q9.45 1.2 7.65 0.0 L8.0 0.05 Q9.05 0.65 10.3 0.65 L10.75 0.45 M10.75 6.0 L11.0 6.15 Q11.0 6.7 11.85 7.1 L13.85 7.5 14.45 7.8 13.95 8.0 Q11.85 8.15 10.85 6.25 L10.75 6.0 M10.5 3.95 L11.1 4.4 Q9.7 4.5 8.8 3.7 L6.8 1.7 7.25 1.95 Q8.1 2.95 9.5 3.8 10.0 4.0 10.25 3.8 L10.5 3.95 M11.55 9.2 L11.65 9.25 12.1 10.15 11.95 10.6 Q11.1 12.25 9.25 12.8 L10.5 11.5 Q10.95 11.5 11.25 10.85 L11.55 9.2 M4.75 1.8 L4.75 1.85 5.35 2.55 5.3 2.9 5.2 3.3 5.15 3.4 4.6 2.65 4.15 2.25 4.6 2.65 5.15 3.4 5.2 3.3 5.3 2.9 5.35 2.55 4.75 1.85 4.75 1.8 4.9 1.9 6.0 2.5 6.25 3.8 5.5 4.65 -0.85 8.8 Q1.5 7.05 3.3 4.75 3.8 4.2 3.65 3.35 L2.35 1.0 4.05 1.45 4.65 1.8 4.75 1.8 M3.45 1.4 L4.65 1.8 3.45 1.4 2.65 1.15 3.95 2.05 3.25 1.35 3.45 1.4 M4.9 1.9 L5.5 2.45 Q5.75 2.8 5.65 3.25 5.25 5.25 3.2 6.05 L4.25 4.85 4.7 3.85 Q4.85 2.85 4.15 2.25 L4.05 2.15 3.95 2.05 4.05 2.15 4.15 2.25 Q4.85 2.85 4.7 3.85 L4.25 4.85 3.2 6.05 Q5.25 5.25 5.65 3.25 5.75 2.8 5.5 2.45 L4.9 1.9 M8.05 5.75 L6.7 4.35 Q6.5 4.1 6.85 4.25 8.35 4.6 9.35 5.85 L9.85 7.05 9.95 8.45 6.8 11.65 Q6.85 11.4 7.2 10.9 L8.5 8.45 8.6 8.0 8.7 8.5 9.4 6.6 Q8.95 5.55 8.0 5.0 L6.85 4.25 8.05 5.75 M-0.1 0.3 L1.6 -0.15 2.3 1.45 0.8 0.75 Q-0.65 1.2 -1.3 2.65 L-1.4 2.75 -1.7 1.75 -1.45 2.45 Q-1.3 1.3 -0.5 0.6 L-0.1 0.3 M0.4 2.0 L0.7 1.45 1.25 1.45 2.6 2.8 Q1.05 3.6 0.0 5.35 L-0.65 6.2 -3.75 8.8 -0.15 2.9 -2.4 6.75 Q-0.35 5.2 1.1 3.2 1.6 2.5 1.2 1.9 L0.4 2.0 M-7.25 5.95 Q-5.35 5.55 -3.95 4.7 L-3.45 4.3 -2.3 3.85 -5.1 5.4 Q-6.25 6.05 -7.55 6.4 L-7.7 6.4 -7.25 5.95 M-6.25 3.65 L-4.8 3.3 -4.4 3.2 -4.35 3.2 Q-9.25 5.7 -14.55 7.0 L-11.15 5.55 Q-8.7 5.2 -6.5 3.9 L-6.25 3.65 -10.55 5.3 -10.25 5.2 -9.95 5.05 Q-8.15 4.15 -6.25 3.65 M-4.5 1.15 L-9.9 1.5 -10.05 1.5 -9.3 1.3 -9.0 1.2 -8.35 1.0 -5.85 0.85 -5.3 0.95 -4.5 1.15 M-8.55 2.25 L-7.8 2.25 -6.1 2.2 Q-8.1 3.4 -10.2 3.65 -14.75 4.05 -19.15 2.75 L-16.8 2.65 -11.25 3.15 -9.55 2.75 -8.6 2.3 -8.55 2.25 M-9.05 9.0 L-7.3 7.9 -8.25 8.8 Q-10.3 10.4 -12.8 11.4 L-13.25 11.55 -11.55 10.55 -11.5 10.5 -9.05 9.0 M-21.95 11.95 L-22.05 11.95 -19.65 10.75 -19.6 10.75 Q-16.6 10.2 -14.05 8.7 L-13.15 7.95 -13.1 7.7 -11.95 7.2 -11.45 7.05 Q-11.55 8.05 -12.6 8.7 L-14.25 9.6 Q-18.0 11.35 -21.95 11.95 M-19.15 4.95 L-18.4 4.7 -16.75 4.45 -19.15 4.95 M-14.9 15.1 L-15.4 15.8 Q-16.45 17.0 -17.95 17.45 L-18.0 17.4 -15.6 15.45 -14.9 15.1 M-14.55 13.45 L-13.55 13.2 -21.0 16.45 -19.1 15.05 -16.9 14.1 -19.45 15.35 -14.55 13.45 M-18.05 12.95 L-18.55 13.1 -17.6 12.75 -18.05 12.95" fill="#c1883d" fill-rule="evenodd" stroke="none"/>
      <path d="M-8.25 -0.7 L-8.15 -0.65 -7.75 -0.55 -7.65 -0.55 -7.1 -0.4 -9.65 -0.6 -9.85 -0.7 -8.25 -0.7 M-19.25 6.75 L-15.8 5.2 -15.3 5.05 -14.65 5.05 -14.3 5.0 -19.25 6.75 M-3.95 -0.15 L-4.0 -0.9 -2.9 -1.6 -3.95 -0.15 M1.25 -1.9 L1.1 -1.65 Q-0.15 -0.45 -1.85 0.05 L-2.2 0.15 1.25 -1.9 M4.65 -1.1 L4.45 -1.25 9.55 1.45 9.75 1.65 9.4 1.7 Q6.7 0.75 4.65 -1.1 M2.55 -0.2 L2.65 -0.4 Q4.4 -0.55 5.55 0.95 L4.55 0.45 Q3.85 -0.5 2.8 -0.25 L2.55 -0.2 M10.3 0.4 L10.55 0.45 10.75 0.45 10.3 0.65 Q9.05 0.65 8.0 0.05 L10.3 0.4 M11.0 6.15 L11.0 6.1 12.1 6.6 13.85 7.5 11.85 7.1 Q11.0 6.7 11.0 6.15 M10.25 3.8 Q10.0 4.0 9.5 3.8 8.1 2.95 7.25 1.95 L7.1 1.8 10.25 3.8 M10.5 11.5 Q11.3 10.35 11.0 8.95 L10.85 8.0 11.55 9.2 11.25 10.85 Q10.95 11.5 10.5 11.5 M3.45 1.4 L3.25 1.35 3.95 2.05 2.65 1.15 3.45 1.4 M8.6 8.0 L8.6 7.7 8.35 6.3 8.05 5.75 6.85 4.25 8.0 5.0 Q8.95 5.55 9.4 6.6 L8.7 8.5 8.6 8.0 M7.95 5.15 L8.8 7.55 Q9.25 6.6 8.55 5.8 L7.95 5.15 M-1.7 1.75 L-1.7 0.85 -1.65 0.8 -1.15 0.65 -1.6 0.8 Q-1.8 1.7 -1.3 1.05 L-0.75 0.5 -0.1 0.3 -0.5 0.6 Q-1.3 1.3 -1.45 2.45 L-1.7 1.75 M0.55 2.3 Q0.1 2.7 -0.2 3.25 L-0.8 4.6 -0.45 4.4 Q0.9 3.5 0.95 2.2 L0.55 2.3 M-0.15 2.9 L0.35 2.0 0.4 2.0 1.2 1.9 Q1.6 2.5 1.1 3.2 -0.35 5.2 -2.4 6.75 L-0.15 2.9 M-3.45 4.3 L-3.95 4.7 Q-5.35 5.55 -7.25 5.95 L-6.7 5.55 -3.4 4.25 -3.45 4.3 M-6.25 3.65 L-6.5 3.9 Q-8.7 5.2 -11.15 5.55 L-11.2 5.55 -10.95 5.45 -10.75 5.4 -10.55 5.3 -6.25 3.65 M-8.7 1.1 L-7.85 0.8 -6.9 0.65 -5.75 0.85 -5.85 0.85 -8.35 1.0 -8.7 1.1 M-14.55 2.55 L-13.8 2.5 -9.65 2.35 -8.55 2.25 -8.6 2.3 -9.55 2.75 -11.25 3.15 -16.8 2.65 -16.95 2.6 -14.55 2.55 M-8.75 8.55 L-9.05 9.0 -11.5 10.5 -11.55 10.55 -12.2 10.7 -8.75 8.55 M-19.65 10.75 L-19.4 10.6 -19.1 10.45 -18.8 10.35 -18.55 10.2 -17.4 9.7 -17.05 9.5 -15.55 8.8 -13.1 7.7 -13.15 7.95 -14.05 8.7 Q-16.6 10.2 -19.6 10.75 L-19.65 10.75 M-14.55 13.45 L-19.45 15.35 -16.9 14.1 -14.55 13.45" fill="#f7c17f" fill-rule="evenodd" stroke="none"/>
      <path d="M2.55 -0.2 L2.8 -0.25 Q3.85 -0.5 4.55 0.45 L2.55 -0.1 2.55 -0.2 M7.95 5.15 L8.55 5.8 Q9.25 6.6 8.8 7.55 L7.95 5.15 M-1.15 0.65 L-0.7 0.45 -0.75 0.5 -1.3 1.05 Q-1.8 1.7 -1.6 0.8 L-1.15 0.65 M0.55 2.3 L0.95 2.2 Q0.9 3.5 -0.45 4.4 L-0.8 4.6 -0.2 3.25 Q0.1 2.7 0.55 2.3" fill="#f9e7d7" fill-rule="evenodd" stroke="none"/>
    </g>
  </defs>
</svg>
