<?xml version="1.0" encoding="UTF-8" standalone="no"?>
<svg xmlns:xlink="http://www.w3.org/1999/xlink" height="92.9px" width="100.7px" xmlns="http://www.w3.org/2000/svg">
  <g transform="matrix(1.0, 0.0, 0.0, 1.0, 38.65, 49.75)">
    <use height="37.45" transform="matrix(1.0, 0.0, 0.0, 1.0, -24.65, -12.35)" width="52.5" xlink:href="#shape0"/>
  </g>
  <defs>
    <g id="shape0" transform="matrix(1.0, 0.0, 0.0, 1.0, 24.65, 12.35)">
      <path d="M0.9 -6.45 L1.0 -6.55 -1.6 -5.5 Q-4.6 -4.2 -6.95 -1.7 L-7.0 -1.65 -7.4 -1.15 -7.95 -0.55 -7.85 -0.55 -9.5 1.5 -6.75 0.0 Q-5.15 -0.8 -3.55 -2.2 0.15 -5.45 5.05 -6.7 L9.6 -7.95 Q5.05 -7.9 0.9 -6.45 M-15.3 5.15 Q-19.2 5.65 -22.75 7.15 L-23.6 7.35 -16.4 4.2 -16.45 4.1 -22.5 5.1 Q-19.5 3.05 -15.85 2.45 L-22.95 2.1 -16.1 1.1 -24.65 0.7 -14.25 0.2 -18.3 -7.6 -11.8 -3.6 -13.0 -9.45 Q-13.2 -10.35 -12.7 -11.1 -12.25 -8.0 -10.65 -5.25 -10.55 -6.9 -9.55 -7.95 -6.85 -10.75 -3.2 -12.0 L-2.0 -12.35 Q-5.7 -10.9 -8.0 -7.65 -8.75 -6.55 -8.8 -5.25 -4.3 -8.2 1.05 -9.3 L5.0 -10.15 7.75 -10.65 Q1.05 -8.85 -5.05 -5.15 0.0 -7.2 5.35 -8.0 L10.45 -8.6 15.55 -8.55 Q10.15 -7.5 4.85 -5.75 L1.45 -4.5 Q6.3 -5.55 11.4 -5.75 L20.25 -4.9 21.95 -4.45 21.45 -4.4 17.45 -4.1 Q13.9 -3.65 10.4 -2.15 14.8 -2.35 19.25 -2.2 23.2 -1.9 26.65 0.05 L27.45 0.45 23.1 0.25 Q18.7 0.35 14.45 1.5 17.55 2.2 20.3 3.3 L23.45 5.3 25.4 7.4 23.1 6.8 Q19.75 5.55 16.5 5.05 L18.3 7.1 Q22.9 8.2 26.0 11.65 L27.1 13.1 27.85 14.6 Q26.45 13.2 25.05 12.25 22.7 10.65 19.9 10.05 L21.2 12.15 21.0 11.9 19.2 9.75 16.3 6.55 16.1 6.4 15.1 5.6 13.05 4.5 12.95 4.6 Q15.95 7.75 18.45 11.45 19.9 13.7 22.3 15.0 L21.9 13.3 23.6 16.2 24.1 17.3 24.7 18.8 Q23.75 17.8 23.2 16.7 22.7 15.75 21.6 15.35 L19.9 14.5 19.8 14.9 20.0 17.9 Q20.05 20.25 20.25 22.45 20.0 20.65 18.95 18.9 L18.4 18.05 Q18.9 19.4 18.75 20.9 L18.65 22.2 18.45 23.9 16.95 19.6 Q17.05 20.45 16.3 21.1 L14.55 22.9 Q13.25 24.15 11.4 24.7 L10.3 25.1 Q12.5 22.75 12.9 19.55 13.05 18.15 12.7 16.75 L12.1 14.9 9.8 17.55 9.3 19.55 9.1 18.3 Q8.9 16.65 8.95 14.65 L9.05 11.1 9.25 9.45 9.35 9.0 Q8.9 9.1 8.65 9.35 7.8 10.2 7.2 11.25 L6.65 12.5 6.05 14.55 Q4.3 10.35 6.3 6.3 L6.7 5.65 Q3.1 7.25 -1.05 7.75 L-5.35 8.15 2.95 4.35 -6.25 6.4 -2.5 3.65 -7.35 6.0 Q-9.45 9.65 -10.25 13.8 L-10.85 16.15 -11.8 10.45 Q-13.05 11.85 -12.95 13.65 L-12.7 15.1 Q-11.8 19.05 -9.3 22.3 L-7.9 23.95 Q-9.7 23.4 -11.35 22.45 L-13.3 21.1 -14.1 22.45 -14.35 23.25 -14.35 24.2 -16.25 20.25 -17.4 22.05 -19.0 20.1 -21.1 21.5 -20.4 19.1 -20.05 19.0 -20.35 19.55 -20.35 19.6 -20.65 20.75 -20.15 20.35 -19.3 19.5 Q-18.65 18.8 -18.45 17.8 L-18.25 16.4 -18.8 17.15 -19.1 17.6 -19.35 17.95 -20.4 19.05 -19.8 18.0 -19.45 15.95 Q-21.45 17.95 -22.55 20.6 -22.35 16.85 -20.4 14.05 L-24.05 16.95 Q-22.6 13.3 -19.6 10.8 L-23.0 11.95 Q-20.25 9.15 -16.45 8.05 L-19.0 8.4 -21.05 9.2 -23.75 10.85 -23.1 9.8 Q-19.85 6.5 -15.4 5.2 L-19.35 7.55 -15.1 7.3 Q-14.35 4.4 -11.65 2.8 L-14.2 0.95 -16.15 0.8 -14.95 1.6 -17.4 1.9 -14.35 2.55 -15.4 2.85 -16.8 3.3 -19.5 4.2 -14.55 3.3 -14.8 3.65 Q-15.6 4.3 -16.55 4.7 L-17.9 5.3 -14.45 4.25 -15.3 5.15 M6.95 -4.45 L4.55 -4.05 4.0 -3.9 Q1.6 -3.4 -0.25 -2.3 L-0.05 -2.35 -2.95 -1.0 -2.35 -1.05 5.15 -1.8 Q7.4 -2.25 9.65 -3.15 L12.55 -4.2 Q14.2 -4.85 16.0 -4.95 L10.8 -4.85 10.9 -4.95 6.95 -4.45 M16.25 -4.95 L16.0 -4.95 16.25 -4.95 M9.2 -1.25 L7.3 -0.9 5.35 -0.75 Q9.65 0.25 14.05 0.3 L23.1 -0.65 24.1 -0.7 18.45 -1.25 15.4 -1.45 9.2 -1.25 M9.05 1.4 L7.3 1.45 Q12.35 3.45 17.5 4.55 L21.05 5.15 22.3 5.45 21.95 5.05 19.45 3.35 Q16.8 1.9 13.95 1.65 L12.7 1.45 10.1 1.35 9.05 1.4 M19.4 8.45 L20.05 9.4 25.45 11.2 Q23.7 9.35 21.25 8.5 L20.15 8.1 19.05 7.9 19.4 8.45 M11.25 8.0 L14.8 12.75 Q14.6 7.2 9.75 4.6 L8.2 3.9 5.2 3.2 Q5.05 3.2 5.0 3.3 L5.15 3.35 4.75 3.4 4.8 3.55 6.2 4.1 11.25 8.0 M12.05 10.85 L12.0 10.8 11.8 10.6 11.5 10.3 11.05 9.9 11.55 10.4 10.7 9.65 10.8 9.85 Q13.35 13.8 14.1 18.4 L14.05 21.45 12.8 23.7 14.15 22.25 15.25 20.4 Q16.15 18.3 15.65 16.2 15.0 13.45 12.85 11.65 L12.05 10.85 M11.0 9.7 L11.5 10.3 10.8 9.3 11.0 9.7 M9.6 14.85 L9.3 17.0 11.9 13.7 10.85 11.4 10.2 9.85 9.85 12.8 9.5 15.3 9.6 14.85 M16.75 11.9 L16.15 10.6 17.95 15.65 17.2 13.1 18.3 16.2 Q18.4 17.6 19.35 18.45 L19.75 18.9 Q19.5 13.2 15.65 9.05 L16.75 11.9 M15.5 11.85 L15.25 11.4 15.75 13.9 15.6 13.65 16.35 16.65 16.45 17.35 16.75 18.3 17.6 19.35 18.5 21.65 Q18.35 19.2 17.7 16.6 L16.9 14.3 15.5 11.85 M0.8 6.2 L-0.7 6.85 6.05 5.3 5.55 4.65 4.75 4.35 4.0 4.0 2.0 5.45 0.3 6.35 0.8 6.2 M4.85 0.4 L4.9 0.35 2.85 0.55 2.4 0.6 Q0.25 1.15 -1.3 2.65 L-1.45 2.85 -2.1 3.9 -4.1 5.65 Q-1.5 5.0 1.05 3.95 L3.4 3.05 Q5.65 2.25 7.05 0.2 L4.85 0.4 M7.85 6.6 L7.8 6.45 7.6 6.4 7.5 6.4 7.35 6.45 7.3 6.45 7.05 6.5 6.65 7.15 Q5.75 9.2 5.85 11.45 L5.8 11.9 5.85 11.75 6.4 10.55 8.7 7.5 7.85 6.6 M-14.25 -3.9 L-16.05 -5.4 -16.2 -5.4 -15.8 -5.0 -14.3 -1.55 Q-13.5 0.5 -11.7 1.8 L-11.7 -1.0 -12.4 -2.7 -14.25 -3.9 M-11.15 -3.4 L-11.05 -1.2 -10.35 -3.4 -12.25 -6.95 -11.8 -5.35 -11.4 -4.3 -11.25 -3.6 -11.15 -3.4 M-10.1 -5.1 L-9.65 -4.25 Q-9.15 -4.6 -9.15 -5.35 L-8.7 -7.6 -7.95 -9.15 -9.4 -7.75 -10.05 -6.55 -10.25 -5.3 -10.1 -5.1 M-7.3 -5.8 Q-9.1 -5.0 -9.65 -3.3 L-9.6 -3.1 -9.7 -2.5 -10.35 0.15 Q-9.55 -1.65 -8.05 -2.95 L-6.35 -4.8 Q-5.0 -6.7 -2.85 -7.65 L-5.75 -6.6 -7.3 -5.8 M-9.55 8.6 L-8.95 6.7 -8.95 6.5 -9.65 7.1 -10.55 8.0 -11.0 8.4 -11.65 9.45 -10.65 13.05 -10.35 11.6 -9.55 8.6 M-19.7 9.75 L-20.0 9.95 -20.5 10.35 -18.5 10.3 Q-16.05 10.05 -14.35 8.55 L-15.75 8.45 Q-17.9 8.55 -19.7 9.75 M-19.15 11.6 L-19.1 11.5 -21.1 12.6 -21.7 13.1 -22.4 14.5 -15.4 10.15 -17.85 11.0 -19.15 11.6 M-10.5 3.2 Q-12.15 4.55 -13.1 6.4 L-13.7 7.65 Q-7.6 5.15 -2.3 1.4 L0.0 -0.1 Q-5.1 0.15 -9.5 2.55 L-10.5 3.2 M-17.15 16.2 L-16.8 19.3 Q-16.25 17.0 -15.5 15.05 L-14.8 13.2 -12.9 9.35 -15.55 11.85 Q-16.2 11.85 -16.65 12.75 -17.15 13.65 -17.15 14.9 L-17.15 16.2 M-14.6 14.5 L-14.6 14.85 -14.6 14.95 -14.55 15.35 -14.55 15.95 -14.5 16.15 -14.15 17.3 -13.95 17.7 -13.85 17.85 Q-12.7 21.65 -9.2 23.05 -12.0 21.35 -12.5 18.3 -12.8 16.6 -13.45 15.05 L-13.9 13.85 Q-14.1 13.05 -14.4 13.7 L-14.6 14.5 M-18.05 12.75 L-19.05 13.35 -20.25 14.6 -20.6 15.35 -21.2 16.7 -19.85 15.6 -16.2 11.35 -18.05 12.75 M-15.3 17.55 L-15.5 16.9 -15.5 19.0 -15.4 19.5 -14.7 22.35 Q-14.25 21.3 -14.3 20.15 -14.35 18.85 -15.0 17.75 L-15.2 17.5 -15.3 17.35 -15.3 17.55" fill="#020200" fill-rule="evenodd" stroke="none"/>
      <path d="M-6.85 -1.75 L-7.4 -1.15 -7.0 -1.65 -6.95 -1.7 -6.85 -1.75 M-7.85 -0.55 Q-6.3 -0.95 -5.05 -1.95 L-2.55 -3.95 0.9 -6.45 Q5.05 -7.9 9.6 -7.95 L5.05 -6.7 Q0.15 -5.45 -3.55 -2.2 -5.15 -0.8 -6.75 0.0 L-9.5 1.5 -7.85 -0.55 M21.2 12.15 L21.9 13.3 22.3 15.0 Q19.9 13.7 18.45 11.45 15.95 7.75 12.95 4.6 L13.25 4.8 15.75 6.75 Q17.15 8.9 19.1 10.1 L19.4 10.25 16.3 6.55 19.2 9.75 21.0 11.9 21.2 12.15 M-15.4 5.2 L-15.3 5.15 -14.45 4.25 -17.9 5.3 -16.55 4.7 Q-15.6 4.3 -14.8 3.65 L-14.55 3.3 -19.5 4.2 -16.8 3.3 -15.95 3.15 -13.85 2.65 -15.45 2.9 -15.4 2.85 -14.35 2.55 -17.4 1.9 -14.95 1.6 -16.15 0.8 -14.2 0.95 -11.65 2.8 Q-14.35 4.4 -15.1 7.3 L-19.35 7.55 -15.4 5.2 M10.8 -4.85 L16.0 -4.95 Q14.2 -4.85 12.55 -4.2 L9.65 -3.15 Q7.4 -2.25 5.15 -1.8 L-2.35 -1.05 -2.95 -1.0 -0.05 -2.35 5.15 -2.85 Q8.3 -3.2 10.8 -4.85 M18.45 -1.25 L24.1 -0.7 23.1 -0.65 14.05 0.3 Q9.65 0.25 5.35 -0.75 L7.3 -0.9 10.8 -0.65 12.6 -0.45 15.2 -0.45 17.2 -0.85 18.45 -1.25 M19.45 3.35 L21.95 5.05 22.3 5.45 21.05 5.15 17.5 4.55 Q12.35 3.45 7.3 1.45 L9.05 1.4 Q12.4 2.55 16.0 3.1 L19.45 3.35 M21.85 8.9 L21.9 8.9 20.15 8.1 21.25 8.5 Q23.7 9.35 25.45 11.2 L20.05 9.4 19.4 8.45 Q20.7 9.4 22.5 9.35 L22.75 9.35 21.85 8.9 M11.25 8.0 L11.25 7.95 13.8 11.1 12.95 9.35 Q11.1 5.6 7.45 4.0 L7.15 3.9 6.2 3.55 5.2 3.35 5.15 3.35 5.0 3.3 Q5.05 3.2 5.2 3.2 L8.2 3.9 9.75 4.6 Q14.6 7.2 14.8 12.75 L11.25 8.0 M12.85 11.65 Q15.0 13.45 15.65 16.2 16.15 18.3 15.25 20.4 L14.15 22.25 12.8 23.7 14.05 21.45 14.3 21.15 14.95 19.8 Q15.6 17.7 15.1 15.65 14.55 13.35 12.85 11.65 M11.0 9.7 L10.8 9.3 11.5 10.3 11.0 9.7 M9.6 14.85 L9.8 14.0 Q10.0 12.75 11.15 12.2 L10.85 11.4 11.9 13.7 9.3 17.0 9.6 14.85 M15.65 9.05 Q19.5 13.2 19.75 18.9 L19.35 18.45 Q18.4 17.6 18.3 16.2 L18.25 15.5 Q18.0 11.9 15.65 9.05 M17.6 19.35 L17.3 17.25 Q16.85 14.45 15.5 11.85 L16.9 14.3 17.7 16.6 Q18.35 19.2 18.5 21.65 L17.6 19.35 M5.55 4.65 L6.05 5.3 -0.7 6.85 0.8 6.2 5.55 4.65 M2.85 0.55 L2.5 0.6 2.4 0.6 2.85 0.55 M-2.1 3.9 Q0.35 3.6 2.4 2.1 L3.3 1.5 Q4.05 0.85 4.85 0.4 L7.05 0.2 Q5.65 2.25 3.4 3.05 L1.05 3.95 Q-1.5 5.0 -4.1 5.65 L-2.1 3.9 M7.85 6.6 L8.7 7.5 6.4 10.55 7.85 6.6 M5.85 11.75 L5.8 11.9 5.85 11.45 5.85 11.75 M-15.8 -5.0 L-12.2 -0.05 -11.7 -1.0 -11.7 1.8 Q-13.5 0.5 -14.3 -1.55 L-15.8 -5.0 M-11.6 -5.1 L-11.8 -5.35 -12.25 -6.95 -10.35 -3.4 -11.05 -1.2 -11.15 -3.4 -10.95 -2.75 Q-10.5 -3.8 -11.15 -4.6 L-11.6 -5.1 M-11.4 -4.3 L-11.3 -4.05 -11.25 -3.6 -11.4 -4.3 M-10.1 -5.1 L-9.7 -5.8 -9.4 -7.25 -9.4 -7.75 -7.95 -9.15 -8.7 -7.6 -9.15 -5.35 Q-9.15 -4.6 -9.65 -4.25 L-10.1 -5.1 M-9.7 -2.5 Q-7.65 -4.0 -6.05 -6.1 L-5.75 -6.6 -2.85 -7.65 Q-5.0 -6.7 -6.35 -4.8 L-8.05 -2.95 Q-9.55 -1.65 -10.35 0.15 L-9.7 -2.5 M-6.2 1.25 L-10.5 3.2 -11.3 3.95 -10.5 3.65 -12.2 5.15 Q-7.25 3.95 -3.0 0.3 L-6.2 1.25 M-9.65 7.1 L-9.8 7.3 -10.55 8.0 -9.65 7.1 M-14.3 1.55 L-15.5 0.95 -14.45 1.85 -12.45 2.7 -14.3 1.55 M-13.75 3.3 L-14.7 3.85 -14.9 4.05 -14.4 3.8 -12.75 2.9 -13.75 3.3 M-17.05 7.05 L-16.3 7.2 -14.8 5.45 -15.55 5.85 -18.6 7.15 -17.05 7.05 M-20.0 9.95 Q-18.1 10.15 -16.55 9.15 L-15.65 8.6 -16.9 8.85 -17.75 9.0 -19.05 9.5 -19.7 9.75 Q-17.9 8.55 -15.75 8.45 L-14.35 8.55 Q-16.05 10.05 -18.5 10.3 L-20.5 10.35 -20.0 9.95 M-17.85 11.0 L-15.4 10.15 -22.4 14.5 -21.7 13.1 Q-19.85 12.75 -18.45 11.55 L-17.85 11.0 M-11.0 8.4 L-10.55 8.6 -10.2 10.55 -10.25 10.8 -10.3 11.3 -10.4 11.65 -10.35 11.6 -10.65 13.05 -11.65 9.45 -11.0 8.4 M-10.5 3.2 L-9.5 2.55 Q-5.1 0.15 0.0 -0.1 L-2.3 1.4 Q-7.6 5.15 -13.7 7.65 L-13.1 6.4 Q-12.15 4.55 -10.5 3.2 M-15.55 11.85 L-12.9 9.35 -14.8 13.2 -15.5 15.05 Q-16.25 17.0 -16.8 19.3 L-17.15 16.2 -14.7 11.3 -15.55 11.85 M-14.6 14.5 L-14.4 13.7 Q-14.1 13.05 -13.9 13.85 L-13.45 15.05 Q-12.8 16.6 -12.5 18.3 -12.0 21.35 -9.2 23.05 -12.7 21.65 -13.85 17.85 L-12.8 19.75 -14.4 13.7 -14.55 14.7 -14.6 14.5 M-20.6 15.35 L-18.05 12.75 -16.2 11.35 -19.85 15.6 -21.2 16.7 -20.6 15.35 M-19.35 17.95 L-19.1 17.6 -19.3 17.95 -19.35 17.95 M-18.8 17.15 L-18.25 16.4 -18.45 17.8 Q-18.65 18.8 -19.3 19.5 L-20.15 20.35 -20.65 20.75 -20.35 19.6 Q-19.7 19.6 -19.25 18.9 -18.8 18.15 -18.8 17.15 M-20.35 19.55 L-20.05 19.0 -19.95 18.95 -20.35 19.55 M-15.2 17.5 L-15.0 17.75 Q-14.35 18.85 -14.3 20.15 -14.25 21.3 -14.7 22.35 L-15.4 19.5 -15.0 20.65 -15.2 17.5" fill="#666665" fill-rule="evenodd" stroke="none"/>
      <path d="M-1.6 -5.5 L1.0 -6.55 0.9 -6.45 -2.55 -3.95 -5.05 -1.95 Q-6.3 -0.95 -7.85 -0.55 L-7.95 -0.55 -7.4 -1.15 -6.85 -1.75 -1.6 -5.5 M4.0 -3.9 L1.7 -3.15 4.35 -3.3 Q5.75 -3.65 6.95 -4.45 L10.9 -4.95 10.8 -4.85 Q8.3 -3.2 5.15 -2.85 L-0.05 -2.35 -0.25 -2.3 Q1.6 -3.4 4.0 -3.9 M7.3 -0.9 L9.2 -1.25 10.8 -0.65 7.3 -0.9 M15.4 -1.45 L18.45 -1.25 17.2 -0.85 15.2 -0.45 12.6 -0.45 15.4 -1.45 M19.45 3.35 L16.0 3.1 Q12.4 2.55 9.05 1.4 L10.1 1.35 15.3 2.35 16.05 2.2 12.7 1.45 13.95 1.65 Q16.8 1.9 19.45 3.35 M16.3 6.55 L19.4 10.25 19.1 10.1 Q17.15 8.9 15.75 6.75 L17.3 8.35 Q16.9 7.2 16.1 6.4 L16.3 6.55 M13.25 4.8 L12.95 4.6 13.05 4.5 13.25 4.8 M21.85 8.9 L22.75 9.35 22.5 9.35 Q20.7 9.4 19.4 8.45 L19.05 7.9 Q20.0 8.8 21.25 8.95 L21.85 8.9 M5.15 3.35 L5.2 3.35 6.2 4.1 4.8 3.55 4.75 3.4 5.15 3.35 M7.45 4.0 Q11.1 5.6 12.95 9.35 L13.8 11.1 11.25 7.95 10.9 7.2 Q9.6 5.05 7.45 4.0 M11.8 10.6 L11.55 10.4 11.05 9.9 11.5 10.3 11.8 10.6 M14.1 18.4 Q14.2 18.75 14.2 18.3 14.25 16.0 13.65 13.7 13.25 12.1 12.05 10.85 L12.85 11.65 Q14.55 13.35 15.1 15.65 15.6 17.7 14.95 19.8 L14.3 21.15 14.05 21.45 14.1 18.4 M10.85 11.4 L11.15 12.2 Q10.0 12.75 9.8 14.0 L9.6 14.85 9.5 15.3 9.85 12.8 10.55 10.9 10.2 9.85 10.85 11.4 M16.75 11.9 L15.65 9.05 Q18.0 11.9 18.25 15.5 L18.3 16.2 17.2 13.1 16.75 11.9 M15.75 13.9 L15.25 11.4 15.5 11.85 Q16.85 14.45 17.3 17.25 L17.6 19.35 16.75 18.3 16.45 17.35 16.35 16.65 16.4 16.85 16.45 15.9 Q16.4 14.65 15.75 13.9 M5.55 4.65 L0.8 6.2 0.3 6.35 2.0 5.45 4.75 4.35 5.55 4.65 M2.85 0.55 L4.9 0.35 4.85 0.4 Q4.05 0.85 3.3 1.5 L2.4 2.1 Q0.35 3.6 -2.1 3.9 L-1.45 2.85 Q0.75 2.3 2.55 0.6 L2.5 0.6 2.85 0.55 M7.6 6.4 L7.8 6.45 7.85 6.6 6.4 8.95 7.5 6.4 7.6 6.4 7.35 6.45 7.5 6.4 6.4 8.95 7.85 6.6 6.4 10.55 5.85 11.75 5.85 11.45 Q5.75 9.2 6.65 7.15 L7.05 6.5 7.3 6.45 7.35 6.45 7.6 6.4 M-15.8 -5.0 L-16.2 -5.4 -16.05 -5.4 -14.25 -3.9 -14.9 -4.35 -11.95 -1.35 -12.4 -2.7 -11.7 -1.0 -12.2 -0.05 -15.8 -5.0 M-11.6 -5.1 L-11.15 -4.6 Q-10.5 -3.8 -10.95 -2.75 L-11.15 -3.4 -11.25 -3.6 -11.3 -4.05 -11.05 -3.4 -11.6 -5.1 M-9.4 -7.75 L-9.4 -7.25 -9.7 -5.8 -10.1 -5.1 -10.25 -5.3 -10.1 -5.8 -10.05 -6.55 -9.4 -7.75 M-9.6 -3.1 L-6.8 -6.0 -7.3 -5.8 -5.75 -6.6 -6.05 -6.1 Q-7.65 -4.0 -9.7 -2.5 L-9.6 -3.1 M-10.5 3.65 Q-8.45 3.3 -7.0 2.0 L-6.2 1.25 -3.0 0.3 Q-7.25 3.95 -12.2 5.15 L-10.5 3.65 M-9.8 7.3 L-9.85 9.4 -9.55 8.6 -10.35 11.6 -10.4 11.65 -10.3 11.3 -10.25 10.8 -10.2 10.55 -10.55 8.6 -11.0 8.4 -10.55 8.0 -9.8 7.3 M-14.45 1.85 L-13.35 2.25 -14.3 1.55 -12.45 2.7 -14.45 1.85 M-14.4 3.8 L-13.75 3.3 -12.75 2.9 -14.4 3.8 M-15.95 3.15 L-15.45 2.9 -13.85 2.65 -15.95 3.15 M-15.55 5.85 L-14.8 5.45 -16.3 7.2 -17.05 7.05 -15.55 5.85 M-16.9 8.85 L-15.65 8.6 -16.55 9.15 Q-18.1 10.15 -20.0 9.95 L-19.7 9.75 -19.05 9.5 -18.45 9.6 Q-17.4 9.6 -16.9 8.85 M-19.15 11.6 L-17.85 11.0 -18.45 11.55 Q-19.85 12.75 -21.7 13.1 L-21.1 12.6 Q-20.2 12.7 -19.55 12.05 L-19.15 11.6 M-10.35 11.6 L-10.3 11.3 -10.35 11.6 M-15.55 11.85 L-14.7 11.3 -17.15 16.2 -17.15 14.9 Q-16.0 13.95 -15.65 12.4 L-15.55 11.85 M-13.85 17.85 L-13.95 17.7 -14.55 14.7 -14.4 13.7 -12.8 19.75 -13.85 17.85 M-20.6 15.35 L-20.25 14.6 -19.05 13.35 -18.05 12.75 -20.6 15.35 M-19.1 17.6 L-18.8 17.15 Q-18.8 18.15 -19.25 18.9 -19.7 19.6 -20.35 19.6 L-20.35 19.55 -19.95 18.95 -19.3 17.95 -19.1 17.6 M-15.3 17.55 L-15.3 17.35 -15.2 17.5 -15.0 20.65 -15.4 19.5 -15.5 19.0 -15.45 19.15 Q-15.1 18.95 -15.3 17.55" fill="#9e9e9e" fill-rule="evenodd" stroke="none"/>
      <path d="M-1.6 -5.5 L-6.85 -1.75 -6.95 -1.7 Q-4.6 -4.2 -1.6 -5.5 M-20.4 19.1 L-20.45 19.1 -20.4 19.05 -19.35 17.95 -19.3 17.95 -19.95 18.95 -20.05 19.0 -20.4 19.1 M-16.8 3.3 L-15.4 2.85 -15.45 2.9 -15.95 3.15 -16.8 3.3 M4.0 -3.9 L4.55 -4.05 6.95 -4.45 Q5.75 -3.65 4.35 -3.3 L1.7 -3.15 4.0 -3.9 M9.2 -1.25 L15.4 -1.45 12.6 -0.45 10.8 -0.65 9.2 -1.25 M10.1 1.35 L12.7 1.45 16.05 2.2 15.3 2.35 10.1 1.35 M15.75 6.75 L13.25 4.8 13.05 4.5 15.1 5.6 16.1 6.4 Q16.9 7.2 17.3 8.35 L15.75 6.75 M20.15 8.1 L21.9 8.9 21.85 8.9 21.25 8.95 Q20.0 8.8 19.05 7.9 L20.15 8.1 M11.25 7.95 L11.25 8.0 6.2 4.1 5.2 3.35 6.2 3.55 7.15 3.9 7.45 4.0 Q9.6 5.05 10.9 7.2 L11.25 7.95 M11.8 10.6 L12.0 10.8 12.05 10.85 Q13.25 12.1 13.65 13.7 14.25 16.0 14.2 18.3 14.2 18.75 14.1 18.4 13.35 13.8 10.8 9.85 L10.7 9.65 11.55 10.4 11.8 10.6 M10.2 9.85 L10.55 10.9 9.85 12.8 10.2 9.85 M17.2 13.1 L17.95 15.65 16.15 10.6 16.75 11.9 17.2 13.1 M15.75 13.9 Q16.4 14.65 16.45 15.9 L16.4 16.85 16.35 16.65 15.6 13.65 15.75 13.9 M2.0 5.45 L4.0 4.0 4.75 4.35 2.0 5.45 M2.5 0.6 L2.55 0.6 Q0.75 2.3 -1.45 2.85 L-1.3 2.65 Q0.25 1.15 2.4 0.6 L2.5 0.6 M-12.4 -2.7 L-11.95 -1.35 -14.9 -4.35 -14.25 -3.9 -12.4 -2.7 M-11.8 -5.35 L-11.6 -5.1 -11.05 -3.4 -11.3 -4.05 -11.4 -4.3 -11.8 -5.35 M-10.05 -6.55 L-10.1 -5.8 -10.25 -5.3 -10.05 -6.55 M-7.3 -5.8 L-6.8 -6.0 -9.6 -3.1 -9.65 -3.3 Q-9.1 -5.0 -7.3 -5.8 M-6.2 1.25 L-7.0 2.0 Q-8.45 3.3 -10.5 3.65 L-11.3 3.95 -10.5 3.2 -6.2 1.25 M-9.8 7.3 L-9.65 7.1 -8.95 6.5 -8.95 6.7 -9.55 8.6 -9.85 9.4 -9.8 7.3 M-14.3 1.55 L-13.35 2.25 -14.45 1.85 -15.5 0.95 -14.3 1.55 M-13.75 3.3 L-14.4 3.8 -14.9 4.05 -14.7 3.85 -13.75 3.3 M-15.55 5.85 L-17.05 7.05 -18.6 7.15 -15.55 5.85 M-16.9 8.85 Q-17.4 9.6 -18.45 9.6 L-19.05 9.5 -17.75 9.0 -16.9 8.85 M-21.1 12.6 L-19.1 11.5 -19.15 11.6 -19.55 12.05 Q-20.2 12.7 -21.1 12.6 M-17.15 14.9 Q-17.15 13.65 -16.65 12.75 -16.2 11.85 -15.55 11.85 L-15.65 12.4 Q-16.0 13.95 -17.15 14.9 M-14.55 15.35 L-14.6 14.95 -14.6 14.85 -14.6 14.5 -14.55 14.7 -13.95 17.7 -14.15 17.3 -14.5 16.15 -14.55 15.95 -14.55 15.35 M-15.5 19.0 L-15.5 16.9 -15.3 17.55 Q-15.1 18.95 -15.45 19.15 L-15.5 19.0" fill="#e5e5e5" fill-rule="evenodd" stroke="none"/>
    </g>
  </defs>
</svg>
