<?xml version="1.0" encoding="UTF-8" standalone="no"?>
<svg xmlns:xlink="http://www.w3.org/1999/xlink" height="92.9px" width="100.7px" xmlns="http://www.w3.org/2000/svg">
  <g transform="matrix(1.0, 0.0, 0.0, 1.0, 38.65, 49.75)">
    <use height="40.6" transform="matrix(1.0, 0.0, 0.0, 1.0, -19.65, -4.6)" width="41.15" xlink:href="#shape0"/>
  </g>
  <defs>
    <g id="shape0" transform="matrix(1.0, 0.0, 0.0, 1.0, 19.65, 4.6)">
      <path d="M-15.3 4.9 Q-14.9 3.5 -13.65 2.5 -12.15 1.25 -10.4 0.7 L-9.55 0.5 -9.4 -0.15 Q-8.75 -1.15 -7.5 -1.5 -7.05 -1.6 -6.7 -1.85 -6.3 -2.05 -6.0 -2.4 L-4.6 -3.25 Q-3.7 -3.2 -3.4 -2.6 -2.85 -3.6 -1.55 -3.75 L-0.35 -3.85 0.15 -3.9 Q0.95 -3.8 1.0 -3.35 L1.9 -3.55 Q3.85 -3.5 4.8 -2.15 4.6 -1.85 4.7 -1.4 L5.0 -1.25 4.35 -1.0 4.35 -0.95 3.75 -0.55 3.9 -0.9 4.35 -1.95 4.15 -1.85 Q4.0 -2.5 3.0 -2.9 L2.35 -3.0 Q1.2 -2.75 0.3 -1.8 L0.3 -1.75 0.25 -1.8 0.4 -2.05 Q1.45 -3.65 -0.35 -3.75 -1.45 -3.55 -2.4 -2.95 L-2.6 -2.65 Q-2.1 -1.65 -2.15 -0.7 -2.75 -1.85 -3.95 -2.45 L-4.75 -2.75 -5.0 -2.7 -5.3 -2.35 -6.65 -1.75 -6.9 -1.65 -7.75 -1.05 -9.0 -0.1 -8.4 0.05 -8.1 0.1 -7.05 0.1 -6.7 0.1 -7.0 0.2 -9.15 0.5 -9.55 0.55 -10.35 0.8 Q-11.95 1.45 -11.9 3.35 L-12.25 3.45 -12.2 3.05 Q-12.0 2.35 -12.2 1.8 -12.45 1.95 -12.5 2.25 -12.7 3.25 -13.2 3.95 L-13.2 3.7 -13.05 2.8 Q-13.4 2.55 -13.5 3.0 L-14.15 4.85 Q-14.3 4.55 -14.5 4.55 -15.1 4.55 -15.25 4.9 L-15.3 4.9 M21.1 22.15 L20.55 22.7 20.5 22.7 20.5 22.65 21.05 22.15 21.1 22.15 M17.35 20.5 Q17.9 21.85 18.0 23.45 L18.15 26.65 Q18.2 29.45 16.45 31.5 L16.05 31.8 Q14.55 32.35 13.75 31.25 L13.5 30.7 Q13.4 29.2 13.8 27.75 L14.1 26.75 14.3 25.85 Q14.6 26.15 15.25 26.35 14.8 26.55 14.6 26.95 L14.0 28.3 15.75 28.45 Q14.55 28.25 13.85 29.15 L15.6 28.95 Q15.1 29.1 14.55 29.65 13.15 30.85 14.8 31.55 15.65 31.95 16.35 31.25 17.5 30.0 17.85 28.3 18.05 27.05 17.85 25.95 18.0 25.6 17.6 25.15 L16.45 23.4 16.85 23.6 Q17.25 24.2 17.85 24.1 L17.9 23.85 17.3 20.55 17.35 20.5 M13.9 24.95 Q14.15 26.3 13.7 27.7 13.35 28.55 12.5 28.9 10.9 29.45 10.3 27.95 9.7 26.45 9.95 24.85 10.15 23.65 10.7 22.7 10.2 22.95 9.5 22.45 9.0 22.0 8.9 21.35 8.65 19.25 9.6 17.4 10.25 16.1 10.35 14.7 L10.5 14.7 Q10.25 17.3 9.3 19.75 8.8 21.05 9.9 21.15 9.9 21.45 10.05 21.75 10.35 22.65 10.75 21.85 L11.4 20.2 Q11.9 18.65 11.35 17.2 L11.35 17.15 Q11.6 15.25 11.05 13.25 10.55 14.7 10.55 16.55 L10.35 17.7 Q10.0 18.85 10.25 19.9 L10.4 20.0 11.35 17.2 11.45 17.5 11.6 17.6 12.05 17.0 11.5 21.05 11.35 21.55 Q10.85 22.4 11.55 22.8 10.7 23.55 10.45 24.7 L10.45 24.85 11.45 24.65 11.15 24.95 10.65 25.25 Q10.35 25.45 10.45 25.8 10.7 27.05 12.05 26.9 L11.25 27.0 Q10.45 26.75 10.55 27.4 10.6 28.1 11.25 28.35 13.1 28.95 13.7 26.95 14.05 25.85 13.9 24.95 M-12.8 29.1 L-12.8 29.15 -12.9 29.15 -12.8 29.1 M-5.4 4.15 L-5.45 4.15 Q-5.25 3.25 -5.85 2.6 -4.95 2.75 -5.2 2.05 L-4.9 2.1 Q-4.05 1.15 -2.75 1.0 L-2.45 0.95 -2.2 0.9 -2.2 0.95 -2.45 1.0 -3.65 1.6 Q-5.1 2.45 -5.4 4.15 M-10.7 10.4 L-10.75 10.4 -10.85 9.4 -10.8 9.65 -10.7 10.4 M-14.0 11.5 L-13.95 11.5 -13.9 11.85 -14.0 11.5 M2.7 -0.45 L3.4 -0.25 3.5 -0.25 3.4 -0.2 3.2 -0.1 2.7 -0.45 M2.35 4.3 L2.3 4.25 2.15 3.85 Q2.45 3.9 2.35 4.3 M2.3 3.25 L2.65 3.6 2.2 3.3 2.15 3.3 2.3 3.25 M14.35 12.5 L14.3 12.5 14.35 12.45 14.35 12.5 M-5.35 -0.8 L-5.35 -0.85 -5.2 -0.95 Q-4.85 -1.3 -4.25 -1.3 L-4.2 -1.3 Q-4.6 -0.9 -5.35 -0.8 M-5.7 -1.6 L-5.6 -1.65 -5.55 -1.65 -5.55 -1.55 -6.25 -0.45 -6.3 -0.5 Q-6.35 -1.2 -5.7 -1.6 M-4.3 5.9 L-4.25 5.9 Q-4.1 5.85 -4.1 6.0 -4.3 6.6 -4.95 6.45 L-4.9 6.45 -4.3 5.9 M-13.8 8.65 L-13.9 8.7 -13.85 8.5 -13.8 8.65 M-13.6 8.35 L-13.6 8.5 -13.65 8.55 -13.6 8.35 M-14.7 11.65 L-14.7 11.7 -14.8 11.55 -14.7 11.65" fill="#2b1038" fill-rule="evenodd" stroke="none"/>
      <path d="M-15.25 4.9 Q-15.1 4.55 -14.5 4.55 -14.3 4.55 -14.15 4.85 L-13.5 3.0 Q-13.4 2.55 -13.05 2.8 L-13.2 3.7 -13.2 3.95 Q-12.7 3.25 -12.5 2.25 -12.45 1.95 -12.2 1.8 -12.0 2.35 -12.2 3.05 L-12.25 3.45 -11.9 3.35 Q-11.95 1.45 -10.35 0.8 L-9.55 0.55 -9.15 0.5 -7.0 0.2 -6.7 0.1 -7.05 0.1 -8.1 0.1 -8.4 0.05 -9.0 -0.1 -7.75 -1.05 -6.9 -1.65 -6.65 -1.75 -5.3 -2.35 -5.0 -2.7 -4.75 -2.75 -3.95 -2.45 Q-2.75 -1.85 -2.15 -0.7 -2.1 -1.65 -2.6 -2.65 L-2.4 -2.95 Q-1.45 -3.55 -0.35 -3.75 1.45 -3.65 0.4 -2.05 L0.25 -1.8 0.25 -1.85 0.1 -1.75 -0.5 -0.75 -1.9 -0.65 -1.75 -0.15 -1.8 -0.1 -2.7 -0.2 Q-4.3 -0.55 -5.1 0.3 L-4.6 0.6 Q-4.05 0.5 -4.45 0.6 L-5.15 0.95 -5.3 1.2 Q-5.15 1.4 -4.85 1.4 L-1.75 0.5 -0.4 0.4 -0.35 0.5 -0.25 0.4 1.0 0.5 1.2 0.5 1.55 1.55 2.3 2.25 2.3 2.4 2.2 2.45 Q3.2 2.9 3.2 4.6 3.25 6.15 1.65 6.0 1.1 5.95 0.95 5.45 0.4 4.15 1.15 3.2 L0.95 3.1 0.95 3.05 1.45 2.45 0.4 2.35 0.2 2.05 0.05 1.7 Q-0.65 2.3 -1.25 1.95 -2.15 2.2 -2.95 2.75 L-3.25 2.75 Q-3.85 2.45 -4.05 2.95 -2.5 3.15 -2.95 4.85 L-3.1 5.15 Q-2.15 6.25 -3.55 7.4 L-4.25 7.5 Q-5.6 7.2 -5.3 6.15 -4.95 4.8 -3.55 5.15 -3.7 5.0 -3.9 4.95 L-3.95 4.9 -3.95 4.8 -4.35 4.85 -5.35 5.05 -5.5 4.75 -5.4 4.15 Q-5.1 2.45 -3.65 1.6 L-2.45 1.0 -2.2 0.95 -2.2 0.9 -2.45 0.95 -2.75 1.0 Q-4.05 1.15 -4.9 2.1 L-5.2 2.05 Q-4.95 2.75 -5.85 2.6 -5.25 3.25 -5.45 4.15 L-5.7 4.75 -6.05 5.85 -6.0 5.85 -6.1 6.0 Q-6.5 7.7 -7.7 8.75 -8.65 9.9 -9.85 10.8 L-9.9 10.7 Q-9.45 9.55 -9.7 8.5 -9.75 9.7 -10.25 10.8 L-10.5 11.0 -10.7 10.4 -10.8 9.65 -10.85 9.4 -10.75 10.4 Q-10.75 11.9 -12.15 12.7 L-14.35 12.8 Q-15.1 13.7 -16.1 12.55 -16.6 11.95 -16.35 11.35 L-16.35 11.6 Q-15.5 11.85 -15.35 10.85 L-15.35 10.75 Q-15.45 10.5 -15.7 10.55 L-15.85 10.6 Q-15.2 9.95 -15.1 10.65 L-14.95 11.1 -14.8 11.55 -14.7 11.7 -14.7 11.65 -14.6 11.6 Q-14.05 11.05 -14.55 10.65 L-14.6 10.6 -14.45 10.15 -14.3 9.9 -14.0 11.5 -13.9 11.85 -13.95 11.5 Q-14.15 9.35 -11.9 8.65 L-10.3 7.95 -7.05 5.6 Q-8.85 6.65 -10.8 7.1 L-10.95 6.95 -11.0 6.85 -11.15 6.95 -11.25 7.0 -11.75 6.3 -11.7 8.1 -11.85 8.3 Q-12.95 9.0 -13.0 7.45 L-13.2 8.5 -13.15 8.5 -13.35 8.8 -13.45 8.95 -13.5 8.95 Q-14.3 9.9 -15.6 9.5 L-15.9 9.1 Q-16.2 7.95 -15.0 7.65 -14.55 7.85 -14.2 8.45 -14.4 7.55 -13.75 6.65 L-13.6 6.45 -13.55 7.7 -13.3 7.3 Q-13.2 4.7 -10.45 4.0 -8.3 3.4 -6.6 2.1 -9.3 3.1 -11.8 4.3 -12.8 4.75 -13.5 5.55 -14.3 6.35 -15.05 6.1 L-15.15 5.95 Q-15.45 5.25 -15.25 4.9 M0.3 -1.75 L0.3 -1.8 Q1.2 -2.75 2.35 -3.0 L3.0 -2.9 Q4.0 -2.5 4.15 -1.85 L4.35 -1.95 3.9 -0.9 3.75 -0.55 4.35 -0.95 Q3.95 -0.7 3.95 0.0 L4.05 0.35 3.45 0.15 3.2 -0.1 3.4 -0.2 3.5 -0.25 3.4 -0.25 2.7 -0.45 1.1 -1.2 0.6 -1.05 0.25 -0.85 0.3 -1.75 M14.3 25.85 Q13.9 25.4 14.0 24.75 L14.2 24.0 14.85 21.6 Q15.7 20.95 15.0 20.0 L15.0 19.3 15.55 19.85 15.3 21.9 Q14.5 24.45 16.05 26.1 15.1 26.3 14.75 27.1 15.4 28.25 16.3 27.95 L16.35 27.95 16.3 27.85 16.05 27.1 Q16.7 27.2 17.05 26.45 L17.85 25.95 Q18.05 27.05 17.85 28.3 17.5 30.0 16.35 31.25 15.65 31.95 14.8 31.55 13.15 30.85 14.55 29.65 15.1 29.1 15.6 28.95 L13.85 29.15 Q14.55 28.25 15.75 28.45 L14.0 28.3 14.6 26.95 Q14.8 26.55 15.25 26.35 14.6 26.15 14.3 25.85 M13.85 24.8 L13.9 24.95 Q14.05 25.85 13.7 26.95 13.1 28.95 11.25 28.35 10.6 28.1 10.55 27.4 10.45 26.75 11.25 27.0 L12.05 26.9 Q12.45 27.25 12.6 26.25 L12.75 26.1 12.85 25.8 12.35 25.05 Q14.35 24.95 12.7 23.5 L12.75 23.4 12.85 22.9 Q13.6 23.75 13.85 24.8 M0.25 -2.8 L0.35 -2.85 0.15 -3.35 Q-0.7 -3.35 -1.25 -2.9 -1.1 -2.65 -0.75 -2.6 -1.4 -2.5 -1.5 -2.0 -0.6 -1.6 0.05 -2.35 L-0.55 -2.8 Q-0.3 -3.1 0.25 -2.8 M2.5 -2.65 L2.1 -2.4 Q1.8 -2.05 2.05 -1.5 L2.2 -1.45 2.45 -1.45 2.25 -1.25 Q2.25 -1.05 2.4 -0.95 L2.8 -0.95 Q3.2 -1.1 3.05 -1.45 2.95 -1.65 3.15 -1.45 3.4 -1.3 3.65 -1.45 L3.7 -1.5 Q3.55 -2.4 2.5 -2.65 M18.5 17.2 Q17.6 17.1 17.1 16.1 16.45 14.75 15.45 13.8 L15.6 13.55 Q15.65 13.4 15.8 13.4 L16.8 14.05 Q16.4 15.0 18.2 15.25 19.65 16.7 20.6 18.75 L20.75 20.2 20.65 20.65 Q20.1 17.7 17.95 15.25 L17.85 15.4 Q18.05 16.3 18.5 17.2 M20.6 20.75 Q21.6 21.4 21.05 22.15 L20.5 22.65 19.85 22.6 Q18.4 21.4 19.15 19.85 L18.55 19.7 Q18.4 19.05 18.65 18.45 L18.95 18.05 19.1 18.25 18.95 18.3 Q18.65 18.4 18.65 18.75 L19.25 19.15 Q19.3 20.7 20.6 20.75 M20.5 21.0 L20.45 20.95 20.45 21.0 Q20.15 20.95 20.05 21.2 L20.05 21.25 Q21.15 22.2 20.5 21.0 M13.2 10.85 L13.8 10.55 14.25 11.75 14.55 11.5 14.75 11.05 14.85 11.4 14.95 11.9 16.15 11.9 16.2 11.6 Q16.0 10.4 15.15 10.7 L15.1 10.6 14.7 10.15 14.8 10.1 15.25 10.3 Q16.15 10.65 16.3 11.6 16.45 13.2 15.2 13.15 14.25 13.15 13.5 12.75 L14.0 12.05 Q13.45 12.65 12.7 12.7 13.15 11.85 13.2 10.95 L13.2 10.85 M10.5 14.7 L10.55 14.1 10.75 12.35 10.85 12.3 Q11.9 13.95 12.1 16.1 L12.2 13.0 Q12.2 12.85 12.4 12.9 13.85 14.4 14.1 16.7 L14.4 19.5 Q13.9 19.65 13.6 19.9 14.45 17.2 13.1 14.4 L12.7 19.45 12.5 20.15 Q11.25 21.65 12.05 23.0 11.3 23.35 11.1 24.0 11.7 24.4 12.1 24.3 L11.45 24.65 10.45 24.85 10.45 24.7 Q10.7 23.55 11.55 22.8 10.85 22.4 11.35 21.55 L11.5 21.05 12.05 17.0 11.6 17.6 11.45 17.5 11.35 17.2 Q11.9 18.65 11.4 20.2 L10.75 21.85 Q10.35 22.65 10.05 21.75 9.9 21.45 9.9 21.15 8.8 21.05 9.3 19.75 10.25 17.3 10.5 14.7 M13.15 21.05 L13.25 21.55 Q13.35 22.2 13.9 22.05 L14.4 21.85 14.0 22.5 13.8 22.5 13.8 22.55 Q14.1 22.95 13.8 23.4 L13.65 23.3 12.8 22.7 12.55 22.1 12.75 21.7 13.15 21.05 M4.2 0.9 L4.25 1.0 3.95 0.8 4.2 0.9 M1.45 2.45 L1.65 2.35 1.45 2.45 M2.35 4.3 Q2.45 3.9 2.15 3.85 L2.3 4.25 2.35 4.3 M2.3 3.25 L2.15 3.3 2.2 3.3 2.65 3.6 2.3 3.25 M7.05 6.4 Q5.4 5.2 4.65 3.25 4.5 3.25 4.5 3.5 5.0 6.2 7.05 6.45 L7.1 6.45 7.05 6.4 M18.55 17.3 L18.9 17.95 Q17.6 17.75 18.55 17.3 M15.25 17.45 L15.25 17.55 14.9 18.05 Q14.65 16.0 13.65 14.0 13.4 13.5 13.9 13.35 16.4 14.1 16.8 16.9 L16.95 18.2 Q16.65 17.9 16.05 17.7 L15.25 14.4 15.15 14.45 14.95 14.6 15.25 17.45 M14.35 12.5 L14.35 12.45 14.3 12.5 14.35 12.5 M16.25 20.3 L16.65 20.2 17.15 19.55 17.3 20.55 17.9 23.85 17.85 24.1 Q17.25 24.2 16.85 23.6 L16.45 23.4 17.6 25.15 16.8 24.5 Q16.05 23.35 16.2 21.9 L16.25 20.3 M13.8 22.5 L13.3 22.1 13.8 22.5 M16.25 30.3 Q16.45 29.45 15.4 29.4 15.2 29.4 15.1 29.6 14.9 29.75 15.0 29.95 15.5 30.55 16.2 30.35 L16.25 30.3 M12.05 26.9 Q10.7 27.05 10.45 25.8 10.35 25.45 10.65 25.25 L11.15 24.95 11.05 25.15 11.05 25.2 11.45 25.45 Q11.3 25.75 11.5 26.15 L12.05 26.9 M12.05 27.75 Q11.85 27.4 11.45 27.5 L11.25 27.55 Q11.05 27.65 11.1 27.9 L12.1 27.85 12.05 27.75 M-5.7 -1.6 Q-6.35 -1.2 -6.3 -0.5 L-6.25 -0.45 -5.55 -1.55 -5.55 -1.65 -5.6 -1.65 -5.7 -1.6 M-5.35 -0.8 Q-4.6 -0.9 -4.2 -1.3 L-4.25 -1.3 Q-4.85 -1.3 -5.2 -0.95 L-5.35 -0.85 -5.35 -0.8 M-2.9 -0.75 L-2.95 -0.85 -3.7 -1.4 -4.95 -0.35 Q-3.9 -0.15 -2.9 -0.75 M-4.6 -2.45 Q-5.0 -2.5 -5.0 -2.2 L-5.25 -1.45 Q-4.3 -1.3 -3.35 -1.8 L-4.6 -2.45 M-4.3 3.05 L-4.45 3.05 -4.6 3.25 -4.65 3.55 Q-4.5 5.0 -3.35 3.85 L-3.35 3.8 Q-3.5 3.1 -4.3 3.05 M-4.3 5.9 L-4.9 6.45 -4.95 6.45 Q-4.3 6.6 -4.1 6.0 -4.1 5.85 -4.25 5.9 L-4.3 5.9 M-8.15 7.45 Q-7.4 7.2 -7.25 6.55 L-7.5 6.65 -8.2 7.4 -8.25 7.45 -8.15 7.45 M-7.1 1.15 Q-8.65 1.35 -9.65 1.8 -9.9 1.6 -10.2 1.65 -11.25 1.7 -11.25 2.8 L-8.35 2.5 Q-6.65 1.95 -7.1 1.15 M-8.7 4.3 L-8.55 4.3 Q-7.55 4.25 -8.15 3.65 -9.05 4.55 -10.15 4.4 L-10.2 4.5 Q-10.1 4.8 -10.3 5.05 L-10.35 4.95 -10.65 4.4 -10.8 4.5 -11.0 4.75 -11.9 4.85 Q-13.6 6.1 -12.2 7.4 L-12.05 7.0 -11.95 6.05 -11.75 6.05 Q-10.8 6.05 -10.8 5.1 L-10.35 5.35 Q-9.4 5.15 -8.7 4.3 M-9.85 8.7 L-9.85 8.6 Q-9.85 8.2 -10.2 8.1 L-10.3 8.25 -10.4 8.4 Q-11.3 8.45 -10.75 9.55 L-10.15 9.45 -10.15 9.35 -9.85 8.7 M-9.0 7.55 L-9.4 7.65 Q-9.9 7.75 -9.75 8.25 L-9.7 8.25 Q-8.25 8.15 -9.0 7.55 M-13.6 8.35 L-13.65 8.55 -13.6 8.5 -13.6 8.35 M-13.8 8.65 L-13.85 8.5 -13.9 8.7 -13.8 8.65 M-11.25 17.35 Q-11.55 15.5 -11.2 13.35 L-11.55 14.7 -12.05 19.35 Q-12.3 21.7 -10.65 22.85 -10.2 23.5 -9.25 23.75 -10.75 24.8 -10.45 26.65 L-9.85 26.8 Q-9.9 27.65 -9.1 28.05 L-8.65 28.1 Q-6.9 28.0 -8.75 26.7 -8.6 25.2 -9.8 25.7 L-9.4 24.9 -9.05 24.05 Q-8.8 22.65 -9.6 21.5 L-10.35 20.2 -10.45 19.95 -10.4 19.95 -9.75 20.95 -8.5 22.55 Q-7.8 23.6 -7.6 24.9 L-7.65 24.95 Q-8.25 24.85 -8.55 25.3 -7.45 25.1 -7.15 26.05 -7.15 26.15 -7.25 26.1 -7.9 25.85 -8.4 26.6 -6.9 26.25 -6.85 27.7 -6.85 28.4 -7.45 28.85 -8.65 29.6 -9.75 28.65 L-11.1 27.05 Q-11.85 25.85 -10.85 24.9 -10.65 24.65 -10.35 24.55 L-11.6 24.75 -11.6 24.7 Q-11.2 23.85 -10.25 23.6 -11.0 23.35 -11.5 24.0 -11.85 24.4 -11.9 23.85 L-11.85 22.8 Q-12.35 22.9 -12.35 22.5 L-12.25 22.4 Q-12.55 21.9 -12.45 21.2 L-12.25 18.1 -12.15 16.35 Q-12.0 14.35 -11.2 12.6 L-11.1 12.5 Q-10.65 13.6 -11.0 14.9 -11.35 16.15 -11.25 17.35 M-11.75 11.35 L-11.7 11.25 Q-11.65 10.0 -11.9 8.95 -13.8 9.2 -13.35 11.0 L-12.65 11.2 -12.5 11.15 -12.35 10.95 Q-12.2 11.45 -11.75 11.35 M-12.0 13.9 Q-12.95 16.2 -13.1 18.55 L-13.15 21.4 Q-13.15 22.55 -14.2 21.9 -15.0 21.4 -14.9 20.35 -14.75 19.3 -13.95 18.7 L-13.55 18.4 -14.2 18.25 Q-14.55 17.85 -14.25 17.25 L-13.65 15.6 Q-13.15 14.05 -12.1 12.95 L-12.0 12.95 Q-11.8 13.3 -12.0 13.9 M-15.85 16.55 L-16.05 16.45 -16.3 16.55 -16.0 15.8 Q-15.5 14.65 -14.5 14.0 L-14.5 13.95 Q-13.9 13.55 -13.1 13.35 L-13.0 13.35 -13.0 13.4 -13.1 13.55 -13.7 15.05 Q-14.65 17.25 -15.15 19.5 L-15.25 19.55 -16.0 20.2 Q-15.1 19.8 -15.25 20.65 -15.55 22.5 -14.95 24.3 L-14.95 24.6 -14.9 24.6 -15.85 25.6 Q-15.45 25.15 -14.8 25.4 -15.6 25.65 -16.0 26.45 -14.65 25.35 -13.9 26.75 L-13.75 27.0 Q-14.45 27.5 -14.35 28.15 L-14.8 28.05 Q-14.35 27.7 -14.4 27.2 -15.3 26.8 -15.9 27.7 L-16.25 27.2 Q-16.6 24.5 -16.2 21.85 -15.75 21.75 -15.65 21.35 L-16.4 20.75 Q-15.55 19.5 -15.85 18.55 L-15.85 18.5 Q-14.8 17.55 -15.4 16.9 L-14.8 14.55 -15.35 15.3 -15.85 16.55 M-13.9 29.15 L-13.3 29.35 -12.9 29.15 Q-12.85 30.0 -13.45 30.65 L-13.8 30.8 Q-15.8 31.25 -16.85 29.5 -17.45 28.5 -17.55 27.3 -17.75 24.95 -17.35 22.7 L-17.3 21.45 -17.2 20.2 Q-17.55 20.7 -18.3 20.2 L-18.45 19.9 Q-19.4 19.4 -19.3 18.2 L-18.95 16.5 Q-18.25 14.35 -16.45 13.15 -15.95 13.6 -15.2 13.85 L-15.2 14.0 Q-16.45 15.3 -17.05 17.0 L-17.25 17.25 -18.25 17.1 -17.9 16.45 Q-16.9 14.95 -16.8 13.75 L-16.95 13.85 Q-19.25 16.05 -18.6 19.25 L-18.05 19.1 Q-18.6 18.1 -18.25 17.15 -17.8 17.35 -17.5 17.7 L-17.6 18.1 Q-17.85 19.65 -16.7 19.05 -17.2 21.05 -17.35 23.15 L-17.05 23.35 -17.3 25.0 Q-17.7 27.95 -15.7 29.05 -15.7 29.75 -14.95 29.5 -14.8 30.0 -14.4 29.75 L-13.9 29.15 M-15.85 25.6 L-15.9 25.6 -15.85 25.6" fill="#572174" fill-rule="evenodd" stroke="none"/>
      <path d="M2.5 -2.65 Q3.55 -2.4 3.7 -1.5 L3.65 -1.45 Q3.4 -1.3 3.15 -1.45 2.95 -1.65 3.05 -1.45 3.2 -1.1 2.8 -0.95 L2.4 -0.95 Q2.25 -1.05 2.25 -1.25 L2.45 -1.45 2.2 -1.45 2.05 -1.5 Q1.8 -2.05 2.1 -2.4 L2.5 -2.65 M0.25 -2.8 Q-0.3 -3.1 -0.55 -2.8 L0.05 -2.35 Q-0.6 -1.6 -1.5 -2.0 -1.4 -2.5 -0.75 -2.6 -1.1 -2.65 -1.25 -2.9 -0.7 -3.35 0.15 -3.35 L0.35 -2.85 0.25 -2.8 M-16.35 11.35 Q-16.3 10.85 -15.85 10.6 L-15.7 10.55 Q-15.45 10.5 -15.35 10.75 L-15.35 10.85 Q-15.5 11.85 -16.35 11.6 L-16.35 11.35 M-14.95 11.1 L-14.6 10.65 -14.55 10.65 Q-14.05 11.05 -14.6 11.6 L-14.7 11.65 -14.8 11.55 -14.95 11.1 M20.65 20.65 L20.6 20.75 Q19.3 20.7 19.25 19.15 L18.65 18.75 Q18.65 18.4 18.95 18.3 L19.1 18.25 18.95 18.05 18.9 17.95 18.55 17.3 18.5 17.2 Q18.05 16.3 17.85 15.4 L17.95 15.25 Q20.1 17.7 20.65 20.65 M20.45 21.0 L20.5 21.0 Q21.15 22.2 20.05 21.25 L20.05 21.2 Q20.15 20.95 20.45 21.0 M13.8 10.55 L14.7 10.15 15.1 10.6 15.15 10.7 Q16.0 10.4 16.2 11.6 L16.15 11.9 14.95 11.9 14.85 11.4 14.75 11.05 14.55 11.5 14.25 11.75 13.8 10.55 M8.1 8.15 Q7.05 8.1 7.35 7.25 7.4 7.15 7.5 7.15 L8.15 7.3 8.2 8.15 8.1 8.15 M13.6 19.9 Q13.1 20.3 13.15 21.05 L12.75 21.7 12.55 22.1 12.8 22.7 12.85 22.9 12.75 23.4 12.7 23.5 Q14.35 24.95 12.35 25.05 L12.85 25.8 12.75 26.1 12.6 26.25 Q12.45 27.25 12.05 26.9 L11.5 26.15 Q11.3 25.75 11.45 25.45 L11.05 25.2 11.05 25.15 11.15 24.95 11.45 24.65 12.1 24.3 Q11.7 24.4 11.1 24.0 11.3 23.35 12.05 23.0 11.25 21.65 12.5 20.15 L12.7 19.45 13.1 14.4 Q14.45 17.2 13.6 19.9 M7.05 6.45 Q5.0 6.2 4.5 3.5 4.5 3.25 4.65 3.25 5.4 5.2 7.05 6.4 L7.05 6.45 M15.35 17.45 L15.25 17.45 14.95 14.6 15.15 14.45 15.25 14.4 16.05 17.7 15.35 17.45 M11.35 17.15 L11.35 17.2 10.4 20.0 10.25 19.9 Q10.0 18.85 10.35 17.7 L10.55 16.55 Q10.55 14.7 11.05 13.25 11.6 15.25 11.35 17.15 M15.55 19.85 L16.1 20.2 16.25 20.3 16.2 21.9 Q16.05 23.35 16.8 24.5 L17.6 25.15 Q18.0 25.6 17.85 25.95 L17.05 26.45 Q16.7 27.2 16.05 27.1 L16.3 27.85 16.3 27.95 Q15.4 28.25 14.75 27.1 15.1 26.3 16.05 26.1 14.5 24.45 15.3 21.9 L15.55 19.85 M16.25 30.3 L16.2 30.35 Q15.5 30.55 15.0 29.95 14.9 29.75 15.1 29.6 15.2 29.4 15.4 29.4 16.45 29.45 16.25 30.3 M12.05 27.75 L12.1 27.85 11.1 27.9 Q11.05 27.65 11.25 27.55 L11.45 27.5 Q11.85 27.4 12.05 27.75 M-4.6 -2.45 L-3.35 -1.8 Q-4.3 -1.3 -5.25 -1.45 L-5.0 -2.2 Q-5.0 -2.5 -4.6 -2.45 M-2.9 -0.75 Q-3.9 -0.15 -4.95 -0.35 L-3.7 -1.4 -2.95 -0.85 -2.9 -0.75 M-4.3 3.05 Q-3.5 3.1 -3.35 3.8 L-3.35 3.85 Q-4.5 5.0 -4.65 3.55 L-4.6 3.25 -4.45 3.05 -4.3 3.05 M-8.7 4.3 Q-9.4 5.15 -10.35 5.35 L-10.8 5.1 Q-10.8 6.05 -11.75 6.05 L-11.95 6.05 -12.05 7.0 -12.2 7.4 Q-13.6 6.1 -11.9 4.85 L-11.0 4.75 -10.8 4.5 -10.65 4.4 -10.35 4.95 -10.3 5.05 Q-10.1 4.8 -10.2 4.5 L-10.15 4.4 Q-9.05 4.55 -8.15 3.65 -7.55 4.25 -8.55 4.3 L-8.7 4.3 M-7.1 1.15 Q-6.65 1.95 -8.35 2.5 L-11.25 2.8 Q-11.25 1.7 -10.2 1.65 -9.9 1.6 -9.65 1.8 -8.65 1.35 -7.1 1.15 M-8.2 7.4 L-7.5 6.65 -7.25 6.55 Q-7.4 7.2 -8.15 7.45 L-8.2 7.4 M-9.0 7.55 Q-8.25 8.15 -9.7 8.25 L-9.75 8.25 Q-9.9 7.75 -9.4 7.65 L-9.0 7.55 M-9.85 8.7 L-10.15 9.35 -10.15 9.45 -10.75 9.55 Q-11.3 8.45 -10.4 8.4 L-10.3 8.25 -10.2 8.1 Q-9.85 8.2 -9.85 8.6 L-9.85 8.7 M-11.75 11.35 Q-12.2 11.45 -12.35 10.95 L-12.5 11.15 -12.65 11.2 -13.35 11.0 Q-13.8 9.2 -11.9 8.95 -11.65 10.0 -11.7 11.25 L-11.75 11.35 M-10.45 19.95 L-10.35 20.2 -9.6 21.5 Q-8.8 22.65 -9.05 24.05 L-9.4 24.9 -9.8 25.7 Q-8.6 25.2 -8.75 26.7 -6.9 28.0 -8.65 28.1 L-9.1 28.05 Q-9.9 27.65 -9.85 26.8 L-10.45 26.65 Q-10.75 24.8 -9.25 23.75 -10.2 23.5 -10.65 22.85 -12.3 21.7 -12.05 19.35 L-11.55 14.7 -11.2 13.35 Q-11.55 15.5 -11.25 17.35 L-11.1 18.2 Q-11.65 18.6 -11.4 19.15 -12.3 19.75 -11.5 20.8 L-11.2 21.05 Q-10.05 20.7 -10.5 19.95 L-10.45 19.95 M-14.35 28.15 L-13.9 29.15 -14.4 29.75 Q-14.8 30.0 -14.95 29.5 -15.7 29.75 -15.7 29.05 -17.7 27.95 -17.3 25.0 L-17.05 23.35 -17.35 23.15 Q-17.2 21.05 -16.7 19.05 L-16.3 18.85 -15.9 18.5 -15.85 18.55 Q-15.55 19.5 -16.4 20.75 L-15.65 21.35 Q-15.75 21.75 -16.2 21.85 -16.6 24.5 -16.25 27.2 L-15.9 27.7 Q-15.3 26.8 -14.4 27.2 -14.35 27.7 -14.8 28.05 L-14.35 28.15 M-18.25 17.15 Q-18.6 18.1 -18.05 19.1 L-18.6 19.25 Q-19.25 16.05 -16.95 13.85 L-16.8 13.75 Q-16.9 14.95 -17.9 16.45 L-18.25 17.1 -18.25 17.15 M-15.4 16.9 L-15.85 16.55 -15.35 15.3 -14.8 14.55 -15.4 16.9" fill="#cb9ee2" fill-rule="evenodd" stroke="none"/>
      <path d="M-15.3 4.9 L-15.25 4.9 Q-15.45 5.25 -15.15 5.95 L-15.05 6.1 Q-14.3 6.35 -13.5 5.55 -12.8 4.75 -11.8 4.3 -9.3 3.1 -6.6 2.1 -8.3 3.4 -10.45 4.0 -13.2 4.7 -13.3 7.3 L-13.55 7.7 -13.6 6.45 -13.75 6.65 Q-14.4 7.55 -14.2 8.45 -14.55 7.85 -15.0 7.65 -16.2 7.95 -15.9 9.1 L-15.6 9.5 Q-14.3 9.9 -13.5 8.95 L-13.45 8.95 -13.35 8.8 -13.15 8.5 -13.2 8.5 -13.0 7.45 Q-12.95 9.0 -11.85 8.3 L-11.7 8.1 -11.75 6.3 -11.25 7.0 -11.15 6.95 -11.0 6.85 -10.95 6.95 -10.8 7.1 Q-8.85 6.65 -7.05 5.6 L-10.3 7.95 -11.9 8.65 Q-14.15 9.35 -13.95 11.5 L-14.0 11.5 -14.3 9.9 -14.45 10.15 -14.6 10.6 -14.6 10.65 -14.95 11.1 -15.1 10.65 Q-15.2 9.95 -15.85 10.6 -16.3 10.85 -16.35 11.35 -16.6 11.95 -16.1 12.55 -15.1 13.7 -14.35 12.8 L-12.15 12.7 Q-10.75 11.9 -10.75 10.4 L-10.7 10.4 -10.5 11.0 -10.25 10.8 Q-9.75 9.7 -9.7 8.5 -9.45 9.55 -9.9 10.7 L-9.85 10.8 Q-8.65 9.9 -7.7 8.75 -6.5 7.7 -6.1 6.0 L-6.0 5.85 -6.05 5.85 -5.7 4.75 -5.45 4.15 -5.4 4.15 -5.5 4.75 -5.35 5.05 -4.35 4.85 -3.95 4.8 -3.95 4.9 -3.9 4.95 Q-3.7 5.0 -3.55 5.15 -4.95 4.8 -5.3 6.15 -5.6 7.2 -4.25 7.5 L-3.55 7.4 Q-2.15 6.25 -3.1 5.15 L-2.95 4.85 Q-2.5 3.15 -4.05 2.95 -3.85 2.45 -3.25 2.75 L-2.95 2.75 Q-2.15 2.2 -1.25 1.95 -0.65 2.3 0.05 1.7 L0.2 2.05 0.4 2.35 1.45 2.45 0.95 3.05 0.95 3.1 1.15 3.2 Q0.4 4.15 0.95 5.45 1.1 5.95 1.65 6.0 3.25 6.15 3.2 4.6 3.2 2.9 2.2 2.45 L2.3 2.4 2.3 2.25 1.55 1.55 1.2 0.5 1.0 0.5 -0.25 0.4 -0.35 0.5 -0.4 0.4 -1.75 0.5 -4.85 1.4 Q-5.15 1.4 -5.3 1.2 L-5.15 0.95 -4.45 0.6 Q-4.05 0.5 -4.6 0.6 L-5.1 0.3 Q-4.3 -0.55 -2.7 -0.2 L-1.8 -0.1 -1.75 -0.15 -1.9 -0.65 -0.5 -0.75 0.1 -1.75 0.25 -1.85 0.25 -1.8 0.3 -1.75 0.25 -0.85 0.6 -1.05 1.1 -1.2 2.7 -0.45 2.25 -0.2 Q1.95 0.2 2.3 0.25 L3.45 0.15 4.05 0.35 4.2 0.9 3.95 0.8 4.25 1.0 4.3 1.4 4.4 1.85 3.25 1.15 2.85 1.0 2.85 1.2 2.5 1.45 2.5 1.5 2.75 1.8 2.85 2.25 2.8 2.35 2.65 2.35 3.2 3.55 Q3.5 4.6 4.15 5.55 L5.45 7.35 7.15 7.3 Q7.35 7.85 6.95 8.25 L6.9 8.2 6.75 8.25 6.7 8.3 Q6.95 9.0 7.6 9.6 9.1 10.9 9.55 9.2 L9.7 9.55 9.6 10.15 9.85 10.2 10.2 10.15 9.85 10.65 9.75 10.8 Q10.15 11.95 11.6 12.45 L12.05 12.45 Q12.95 12.0 13.1 10.95 L13.2 10.85 13.2 10.95 Q13.15 11.85 12.7 12.7 13.45 12.65 14.0 12.05 L13.5 12.75 Q14.25 13.15 15.2 13.15 16.45 13.2 16.3 11.6 16.15 10.65 15.25 10.3 L14.8 10.1 15.35 9.9 15.6 9.8 Q16.95 10.35 16.75 12.0 L16.3 12.85 16.8 13.1 16.95 13.1 Q18.5 13.0 19.5 13.95 L19.85 14.3 20.0 14.8 Q19.8 15.85 18.9 15.8 L19.8 16.9 21.25 19.85 Q21.85 21.2 21.1 22.15 L21.05 22.15 Q21.6 21.4 20.6 20.75 L20.65 20.65 20.75 20.2 20.6 18.75 Q19.65 16.7 18.2 15.25 16.4 15.0 16.8 14.05 L15.8 13.4 Q15.65 13.4 15.6 13.55 L15.45 13.8 Q16.45 14.75 17.1 16.1 17.6 17.1 18.5 17.2 L18.55 17.3 Q17.6 17.75 18.9 17.95 L18.95 18.05 18.65 18.45 Q18.4 19.05 18.55 19.7 L19.15 19.85 Q18.4 21.4 19.85 22.6 L20.5 22.65 20.5 22.7 19.4 22.6 Q18.5 21.75 18.3 20.5 L18.0 18.85 17.15 16.55 17.1 17.8 Q17.75 18.25 17.95 18.85 18.1 19.45 17.75 20.2 L17.4 20.5 17.35 20.5 17.3 20.55 17.15 19.55 16.65 20.2 16.25 20.3 16.1 20.2 15.55 19.85 15.0 19.3 15.0 20.0 Q15.7 20.95 14.85 21.6 L14.2 24.0 14.0 24.75 13.85 24.8 Q13.6 23.75 12.85 22.9 L12.8 22.7 13.65 23.3 13.8 23.4 Q14.1 22.95 13.8 22.55 L13.8 22.5 14.0 22.5 14.4 21.85 13.9 22.05 Q13.35 22.2 13.25 21.55 L13.15 21.05 Q13.1 20.3 13.6 19.9 13.9 19.65 14.4 19.5 L14.1 16.7 Q13.85 14.4 12.4 12.9 12.2 12.85 12.2 13.0 L12.1 16.1 Q11.9 13.95 10.85 12.3 L10.75 12.35 10.55 14.1 10.5 14.7 10.35 14.7 Q10.5 12.85 9.65 11.3 7.0 9.5 4.7 7.2 L4.2 6.65 3.65 5.9 Q3.05 7.0 1.75 6.5 0.9 6.15 0.65 5.25 L-0.3 2.35 -0.7 2.6 -0.7 2.55 -0.75 2.5 -0.8 2.5 Q-1.7 1.95 -2.1 2.9 L-2.4 4.25 -2.6 7.1 Q-2.65 7.7 -3.2 7.9 -4.5 8.35 -5.25 7.3 L-5.65 6.55 -6.25 7.8 Q-7.7 9.95 -9.5 11.35 L-10.25 11.9 -10.75 12.2 Q-10.4 14.8 -10.75 17.5 -8.2 18.85 -9.85 20.35 -8.3 22.15 -7.15 24.5 -6.05 26.75 -6.75 28.95 -7.25 30.35 -8.8 29.75 -12.0 28.5 -12.75 24.95 L-13.1 22.85 -13.6 22.65 -13.6 23.4 -13.25 27.1 Q-11.5 28.2 -12.8 29.1 L-12.9 29.15 -13.3 29.35 -13.9 29.15 -14.35 28.15 Q-14.45 27.5 -13.75 27.0 L-13.9 26.75 Q-14.65 25.35 -16.0 26.45 -15.6 25.65 -14.8 25.4 -15.45 25.15 -15.85 25.6 L-14.9 24.6 -14.95 24.6 -14.95 24.3 Q-15.55 22.5 -15.25 20.65 -15.1 19.8 -16.0 20.2 L-15.25 19.55 -15.15 19.5 Q-14.65 17.25 -13.7 15.05 L-13.1 13.55 -13.0 13.4 -13.0 13.35 -13.1 13.35 Q-13.9 13.55 -14.5 13.95 L-14.5 14.0 Q-15.5 14.65 -16.0 15.8 L-16.3 16.55 -16.05 16.45 -15.85 16.55 -15.4 16.9 Q-14.8 17.55 -15.85 18.5 L-15.9 18.5 -16.3 18.85 -16.7 19.05 Q-17.85 19.65 -17.6 18.1 L-17.5 17.7 Q-17.8 17.35 -18.25 17.15 L-18.25 17.1 -17.25 17.25 -17.05 17.0 Q-16.45 15.3 -15.2 14.0 L-15.2 13.85 Q-15.95 13.6 -16.45 13.15 -18.25 14.35 -18.95 16.5 L-19.3 18.2 Q-19.4 19.4 -18.45 19.9 L-18.3 20.2 Q-17.55 20.7 -17.2 20.2 L-17.3 21.45 -17.35 22.7 Q-17.75 24.95 -17.55 27.3 -17.45 28.5 -16.85 29.5 -15.8 31.25 -13.8 30.8 L-13.45 30.65 Q-12.85 30.0 -12.9 29.15 L-12.8 29.15 -12.6 29.9 Q-12.2 31.1 -13.5 31.25 -17.45 31.65 -17.85 27.8 -18.1 25.45 -18.0 23.1 L-17.6 20.85 -18.25 20.85 Q-19.1 20.85 -19.35 20.05 -20.3 16.75 -18.1 14.15 L-16.65 12.9 Q-17.7 11.5 -16.0 10.35 -17.1 8.55 -15.65 6.35 L-15.4 5.55 -15.3 4.9 M8.1 6.95 L7.25 6.25 8.05 6.75 8.1 6.95 M18.15 14.85 Q18.6 15.1 19.0 14.85 19.75 14.3 19.5 14.0 19.2 13.7 17.9 13.65 16.95 14.2 18.15 14.85 M15.25 17.55 L15.35 17.45 16.05 17.7 Q16.65 17.9 16.95 18.2 L16.8 16.9 Q16.4 14.1 13.9 13.35 13.4 13.5 13.65 14.0 14.65 16.0 14.9 18.05 L15.25 17.55 M13.7 20.55 Q13.55 20.8 13.75 20.85 15.7 21.3 14.4 20.0 13.9 20.05 13.7 20.55 M15.55 18.95 L15.95 19.3 Q17.75 19.3 15.95 17.95 15.3 18.15 15.55 18.95 M-11.25 17.35 Q-11.35 16.15 -11.0 14.9 -10.65 13.6 -11.1 12.5 L-11.2 12.6 Q-12.0 14.35 -12.15 16.35 L-12.25 18.1 -12.45 21.2 Q-12.55 21.9 -12.25 22.4 L-12.35 22.5 Q-12.35 22.9 -11.85 22.8 L-11.9 23.85 Q-11.85 24.4 -11.5 24.0 -11.0 23.35 -10.25 23.6 -11.2 23.85 -11.6 24.7 L-11.6 24.75 -10.35 24.55 Q-10.65 24.65 -10.85 24.9 -11.85 25.85 -11.1 27.05 L-9.75 28.65 Q-8.65 29.6 -7.45 28.85 -6.85 28.4 -6.85 27.7 -6.9 26.25 -8.4 26.6 -7.9 25.85 -7.25 26.1 -7.15 26.15 -7.15 26.05 -7.45 25.1 -8.55 25.3 -8.25 24.85 -7.65 24.95 L-7.6 24.9 Q-7.8 23.6 -8.5 22.55 L-9.75 20.95 -10.4 19.95 -10.45 19.95 -10.5 19.95 Q-10.05 20.7 -11.2 21.05 L-11.5 20.8 Q-12.3 19.75 -11.4 19.15 -11.65 18.6 -11.1 18.2 L-11.25 17.35 M-12.0 13.9 Q-11.8 13.3 -12.0 12.95 L-12.1 12.95 Q-13.15 14.05 -13.65 15.6 L-14.25 17.25 Q-14.55 17.85 -14.2 18.25 L-13.55 18.4 -13.95 18.7 Q-14.75 19.3 -14.9 20.35 -15.0 21.4 -14.2 21.9 -13.15 22.55 -13.15 21.4 L-13.1 18.55 Q-12.95 16.2 -12.0 13.9 M-17.15 17.65 Q-17.3 18.05 -17.0 18.05 -14.9 18.0 -16.1 16.55 -16.95 16.75 -17.15 17.65 M-14.15 27.9 Q-14.1 28.35 -13.6 28.4 -11.75 28.6 -13.4 27.35 L-14.15 27.9 M-10.9 18.75 Q-10.75 19.3 -10.25 19.25 -8.45 19.05 -10.55 18.15 -11.1 18.25 -10.9 18.75 M-10.55 20.0 Q-10.5 19.75 -11.0 19.15 L-11.4 19.55 -11.3 19.9 -10.55 20.0" fill="#15091c" fill-rule="evenodd" stroke="none"/>
      <path d="M4.35 -0.95 L4.35 -1.0 4.9 -0.9 5.15 -1.15 5.0 -1.25 4.7 -1.4 Q4.6 -1.85 4.8 -2.15 L5.05 -2.4 5.3 -2.5 6.15 -2.9 Q5.8 -3.5 6.0 -4.05 L6.25 -4.45 6.45 -4.6 7.5 -4.55 8.45 -4.4 8.8 -4.4 9.5 -4.3 9.15 -4.4 10.15 -4.5 12.35 -4.2 13.05 -3.6 13.35 -3.05 14.15 -1.3 14.2 -1.15 14.35 -0.85 14.55 -1.1 14.6 -1.15 Q15.05 -1.25 15.45 -1.55 L16.2 -1.95 16.25 -1.9 16.5 -1.85 16.75 -1.8 16.9 -1.7 17.0 -1.85 17.1 -2.0 Q17.3 -2.4 17.9 -2.55 L18.0 -2.5 18.35 -2.55 Q19.2 -2.3 19.1 -1.55 L19.35 -1.6 19.75 -2.25 Q21.1 -1.55 20.45 -0.7 L21.15 -0.05 21.0 0.1 20.05 0.3 Q19.6 0.35 19.7 -0.2 L19.8 -0.4 19.7 -0.5 19.55 -0.7 18.5 -0.4 18.65 -0.2 Q20.3 0.2 19.45 1.3 20.05 2.75 19.9 4.65 L19.6 5.3 Q20.45 6.6 19.15 6.65 L19.65 7.1 19.65 7.15 19.4 7.4 19.35 7.4 17.95 8.1 17.95 8.2 17.9 8.15 17.85 8.15 17.9 8.35 17.85 8.4 17.9 8.45 18.05 9.05 18.0 9.3 17.0 9.5 16.4 9.55 16.0 9.65 15.9 9.7 15.6 9.8 15.35 9.9 14.8 10.1 14.7 10.15 13.8 10.55 13.2 10.85 13.1 10.95 12.35 11.4 13.1 10.95 Q12.95 12.0 12.05 12.45 L11.6 12.45 Q10.15 11.95 9.75 10.8 L9.85 10.65 10.2 10.15 9.85 10.2 9.6 10.15 9.7 9.55 9.55 9.2 Q9.1 10.9 7.6 9.6 6.95 9.0 6.7 8.3 L6.75 8.25 6.9 8.2 6.95 8.25 Q7.35 7.85 7.15 7.3 L5.45 7.35 4.15 5.55 Q3.5 4.6 3.2 3.55 L2.65 2.35 2.8 2.35 2.85 2.25 2.75 1.8 2.5 1.5 2.5 1.45 2.85 1.2 2.85 1.0 3.25 1.15 4.4 1.85 4.3 1.4 4.25 1.0 4.2 0.9 4.05 0.35 3.95 0.0 Q3.95 -0.7 4.35 -0.95 M10.55 1.6 L10.7 1.75 11.0 1.95 11.05 2.05 11.65 2.4 11.85 2.5 11.9 2.5 12.0 2.6 12.35 2.85 12.15 2.8 11.75 2.7 11.15 2.65 10.95 2.65 10.95 2.75 11.3 2.8 12.3 3.05 12.4 3.1 12.45 3.1 12.6 3.15 12.85 3.6 12.85 3.65 12.55 3.9 12.5 3.9 12.4 3.9 12.1 3.95 11.85 4.05 11.8 4.1 12.05 4.35 12.1 4.4 12.1 4.45 11.95 4.75 11.75 5.3 11.75 5.35 11.8 5.3 12.15 4.8 12.75 4.2 13.05 3.9 13.25 3.7 Q13.95 3.75 13.95 4.95 L13.95 5.15 13.95 5.3 13.9 5.95 13.75 6.75 13.4 7.2 13.35 7.3 12.9 7.6 Q12.8 7.6 12.85 7.4 L12.95 7.1 13.35 5.65 13.6 4.7 13.6 4.65 13.65 4.45 13.6 4.6 13.55 4.65 13.0 5.2 12.75 5.15 12.7 4.95 12.7 4.85 12.75 4.65 12.55 4.9 12.15 5.35 11.7 5.75 10.7 6.25 10.65 6.05 11.4 4.55 11.55 4.3 12.05 3.65 11.25 3.8 10.95 3.85 10.6 3.85 9.95 3.85 9.9 3.8 9.7 3.85 9.1 3.85 9.0 3.75 9.05 3.55 9.1 3.4 Q9.35 2.6 10.05 2.35 L10.45 2.3 10.6 2.3 10.45 2.25 9.75 1.9 9.6 1.8 8.75 1.25 8.4 0.95 8.35 0.9 7.95 0.5 7.95 0.45 7.85 0.3 7.75 0.05 8.0 0.15 6.35 -0.45 5.45 -0.65 4.9 -0.7 4.7 -0.55 Q4.35 -0.2 4.35 0.5 L4.4 0.95 4.45 1.0 4.45 1.15 4.85 2.15 Q5.25 2.85 6.0 3.25 7.15 3.9 7.85 5.0 L8.2 5.75 8.55 7.0 8.6 7.3 8.6 7.35 8.6 7.45 8.75 7.6 9.05 7.65 9.2 7.65 9.5 7.55 10.45 6.85 Q9.9 7.8 10.25 8.6 L10.6 9.15 11.3 9.8 11.65 9.95 11.8 9.9 12.25 9.65 12.4 9.45 12.6 9.2 12.7 9.05 13.2 8.25 13.4 7.8 13.55 7.4 13.6 7.25 13.75 6.75 13.6 7.25 13.55 7.4 13.4 7.8 13.2 8.25 12.7 9.05 12.6 9.2 12.4 9.45 12.25 9.65 11.8 9.9 11.65 9.95 11.3 9.8 10.6 9.15 10.25 8.6 Q9.9 7.8 10.45 6.85 L9.5 7.55 9.2 7.65 9.05 7.65 8.75 7.6 8.6 7.45 8.6 7.35 8.6 7.3 8.55 7.0 8.2 5.75 7.85 5.0 Q7.15 3.9 6.0 3.25 5.25 2.85 4.85 2.15 L4.45 1.15 4.45 1.0 4.4 0.95 4.35 0.5 Q4.35 -0.2 4.7 -0.55 L4.9 -0.7 5.45 -0.65 6.35 -0.45 8.0 0.15 7.75 0.05 7.85 0.3 7.95 0.45 7.95 0.5 8.35 0.9 8.4 0.95 8.75 1.25 9.6 1.8 9.75 1.9 10.45 2.25 10.6 2.3 10.45 2.3 10.05 2.35 Q9.35 2.6 9.1 3.4 L9.05 3.55 9.0 3.75 9.1 3.85 9.7 3.85 9.9 3.8 9.95 3.85 10.6 3.85 10.95 3.85 11.25 3.8 12.05 3.65 11.55 4.3 11.4 4.55 10.65 6.05 10.7 6.25 11.7 5.75 12.15 5.35 12.55 4.9 12.75 4.65 12.7 4.85 12.7 4.95 12.75 5.15 13.0 5.2 13.55 4.65 13.6 4.6 13.65 4.45 13.6 4.65 13.6 4.7 13.35 5.65 12.95 7.1 12.85 7.4 Q12.8 7.6 12.9 7.6 L13.35 7.3 13.4 7.2 13.75 6.75 13.9 5.95 13.95 5.3 13.95 5.15 13.95 4.95 Q13.95 3.75 13.25 3.7 L13.05 3.9 12.75 4.2 12.15 4.8 11.8 5.3 11.75 5.35 11.75 5.3 11.95 4.75 12.1 4.45 12.1 4.4 12.05 4.35 11.8 4.1 11.85 4.05 12.1 3.95 12.4 3.9 12.5 3.9 12.55 3.9 12.85 3.65 12.85 3.6 12.6 3.15 12.45 3.1 12.4 3.1 12.3 3.05 11.3 2.8 10.95 2.75 10.95 2.65 11.15 2.65 11.75 2.7 12.15 2.8 12.35 2.85 12.0 2.6 11.9 2.5 11.85 2.5 11.65 2.4 11.05 2.05 11.0 1.95 10.7 1.75 10.55 1.6 10.5 1.35 10.7 1.5 10.8 1.55 11.6 2.15 11.8 2.25 11.85 1.55 11.8 1.5 11.55 0.8 11.85 1.25 Q12.3 1.95 12.85 1.9 L12.85 1.2 12.85 0.45 13.1 0.95 13.15 1.1 14.1 -0.5 13.45 -2.4 13.05 -3.15 13.05 -3.1 13.0 -3.15 Q12.35 -4.1 11.3 -3.95 9.5 -3.6 7.8 -4.45 L7.2 -4.3 6.75 -4.05 6.5 -3.3 Q6.45 -3.0 6.55 -2.65 L7.25 -2.2 7.3 -2.15 7.05 -2.15 6.8 -2.2 6.45 -2.45 6.15 -2.4 5.45 -2.05 5.35 -1.85 Q5.3 -1.5 5.4 -1.3 L5.45 -1.3 5.55 -1.2 5.75 -1.1 7.05 -0.55 8.55 0.2 8.7 0.3 8.5 0.35 10.55 1.6 M8.0 0.15 L8.25 0.25 8.5 0.35 8.25 0.25 8.0 0.15 M16.2 -1.35 L16.25 -1.3 16.25 -1.35 16.85 -1.15 16.8 -1.45 Q16.55 -1.6 16.35 -1.7 L16.25 -1.65 15.65 -1.4 Q14.15 -0.25 13.35 1.55 L13.45 1.55 15.8 -0.25 15.75 -0.4 Q15.65 -0.55 15.7 -0.8 15.75 -1.25 16.2 -1.35 M19.85 -1.9 L19.75 -1.85 Q19.45 -1.65 19.45 -1.3 L18.8 -1.15 18.15 -1.2 Q17.9 -1.2 17.8 -0.95 17.85 -0.7 18.1 -0.7 L18.75 -0.9 19.55 -0.75 Q21.0 -0.85 19.85 -1.9 M17.2 -1.35 Q17.2 -1.05 17.45 -1.1 18.4 -1.2 18.3 -1.55 19.5 -1.75 18.05 -2.3 L17.55 -2.0 Q17.15 -1.85 17.2 -1.35 M16.5 -0.1 Q18.3 -0.3 16.65 -0.95 16.25 -0.9 16.2 -0.5 16.1 -0.1 16.5 -0.1 M18.7 -1.45 L18.75 -1.45 18.75 -1.5 18.7 -1.45 M17.8 0.15 L18.15 -0.05 17.95 -0.3 17.55 -0.2 17.35 0.05 16.85 0.5 16.3 0.45 15.25 1.4 15.05 1.65 15.65 1.6 Q14.9 1.75 14.4 2.4 15.8 3.0 17.0 3.9 18.25 4.85 19.3 6.15 L19.3 5.75 18.95 5.05 18.95 4.85 Q19.65 3.4 19.05 1.65 L18.35 1.55 18.1 1.35 17.75 1.0 17.65 0.55 17.8 0.15 M20.4 -0.4 L20.3 -0.4 Q19.95 -0.35 20.15 -0.2 21.25 0.55 20.4 -0.4 M18.35 1.0 Q20.1 1.25 18.7 0.1 18.2 0.1 18.15 0.6 18.1 1.0 18.35 1.0 M15.95 0.05 Q15.1 0.5 14.35 1.1 13.5 1.8 13.2 2.6 13.15 2.8 13.25 2.7 L16.0 0.1 15.95 0.05 M15.4 4.45 L15.4 4.5 15.15 4.3 15.15 4.25 14.95 4.1 14.4 3.6 14.2 3.65 14.05 3.95 14.2 5.05 14.2 5.35 14.2 5.6 14.2 5.7 13.95 7.65 13.75 8.35 13.35 9.3 13.25 9.5 12.8 10.35 13.5 10.0 14.05 9.75 15.05 9.35 15.7 9.1 16.8 8.8 17.25 8.6 Q17.8 8.1 17.55 6.9 L17.65 7.1 18.95 7.15 18.95 7.0 Q18.2 4.9 16.7 3.95 15.85 3.4 14.85 3.2 L14.75 3.2 14.7 3.4 15.1 3.95 15.15 4.0 15.15 4.05 15.4 4.45 M10.45 6.85 L10.55 6.7 10.5 6.85 10.45 6.85 10.5 6.85 10.55 6.7 10.45 6.85 M12.35 11.4 L12.3 11.4 12.3 10.4 11.85 10.4 11.55 10.35 10.7 10.05 11.55 10.35 11.85 10.4 12.2 11.5 12.3 11.5 12.35 11.4 M10.6 9.95 L10.6 10.1 10.7 10.05 10.6 9.95 Q9.75 9.4 9.9 8.4 L9.8 8.55 9.7 8.3 9.8 8.55 9.9 8.4 Q9.75 9.4 10.6 9.95 M8.1 8.15 Q7.95 8.35 7.95 8.65 L8.1 9.25 8.2 9.25 Q8.55 9.05 8.9 9.0 L9.0 8.8 9.0 8.5 9.15 8.5 9.3 8.5 9.7 8.3 9.6 8.1 9.15 8.35 9.15 8.4 9.0 8.5 8.2 8.8 Q8.1 8.85 8.15 8.6 L8.2 8.15 8.15 7.3 7.5 7.15 Q7.4 7.15 7.35 7.25 7.05 8.1 8.1 8.15 M8.1 6.95 L8.15 7.3 8.1 6.95 8.05 6.75 7.25 6.25 8.1 6.95 M7.55 5.55 L6.85 4.75 5.85 4.0 5.8 3.95 7.55 5.55 8.05 6.75 7.55 5.55 5.8 3.95 5.85 4.0 6.85 4.75 7.55 5.55 M9.45 0.8 L9.45 0.7 9.6 0.8 9.45 0.8 M5.8 3.95 L5.05 3.4 4.9 3.15 4.4 1.85 4.9 3.15 5.05 3.4 5.8 3.95" fill="#480002" fill-rule="evenodd" stroke="none"/>
      <path d="M3.2 -0.1 L3.45 0.15 2.3 0.25 Q1.95 0.2 2.25 -0.2 L2.7 -0.45 3.2 -0.1 M18.15 14.85 Q16.95 14.2 17.9 13.65 19.2 13.7 19.5 14.0 19.75 14.3 19.0 14.85 18.6 15.1 18.15 14.85 M13.7 20.55 Q13.9 20.05 14.4 20.0 15.7 21.3 13.75 20.85 13.55 20.8 13.7 20.55 M15.55 18.95 Q15.3 18.15 15.95 17.95 17.75 19.3 15.95 19.3 L15.55 18.95 M-17.15 17.65 Q-16.95 16.75 -16.1 16.55 -14.9 18.0 -17.0 18.05 -17.3 18.05 -17.15 17.65 M-10.55 20.0 L-11.3 19.9 -11.4 19.55 -11.0 19.15 Q-10.5 19.75 -10.55 20.0 M-10.9 18.75 Q-11.1 18.25 -10.55 18.15 -8.45 19.05 -10.25 19.25 -10.75 19.3 -10.9 18.75 M-14.15 27.9 L-13.4 27.35 Q-11.75 28.6 -13.6 28.4 -14.1 28.35 -14.15 27.9" fill="#ffd7ae" fill-rule="evenodd" stroke="none"/>
      <path d="M4.35 -1.0 L5.0 -1.25 5.15 -1.15 4.9 -0.9 4.35 -1.0 M-14.6 10.65 L-14.6 10.6 -14.55 10.65 -14.6 10.65 M20.45 21.0 L20.45 20.95 20.5 21.0 20.45 21.0 M11.85 10.4 L12.3 10.4 12.3 11.4 12.35 11.4 12.3 11.5 12.2 11.5 11.85 10.4 M10.7 10.05 L10.6 10.1 10.6 9.95 10.7 10.05 M9.7 8.3 L9.3 8.5 9.15 8.5 9.0 8.5 9.0 8.8 8.9 9.0 Q8.55 9.05 8.2 9.25 L8.1 9.25 7.95 8.65 Q7.95 8.35 8.1 8.15 L8.2 8.15 8.15 8.6 Q8.1 8.85 8.2 8.8 L9.0 8.5 9.15 8.4 9.15 8.35 9.6 8.1 9.7 8.3 M7.05 6.4 L7.1 6.45 7.05 6.45 7.05 6.4 M16.3 27.95 L16.3 27.85 16.35 27.95 16.3 27.95 M-8.15 7.45 L-8.25 7.45 -8.2 7.4 -8.15 7.45 M-15.9 18.5 L-15.85 18.5 -15.85 18.55 -15.9 18.5" fill="#ad67d3" fill-rule="evenodd" stroke="none"/>
      <path d="M8.8 -4.4 L9.15 -4.4 9.5 -4.3 8.8 -4.4 M10.55 1.6 L8.5 0.35 8.7 0.3 8.55 0.2 7.05 -0.55 5.75 -1.1 5.55 -1.2 5.45 -1.3 5.4 -1.3 Q5.3 -1.5 5.35 -1.85 L5.45 -2.05 6.15 -2.4 6.45 -2.45 6.8 -2.2 9.05 -0.2 9.3 0.15 9.35 0.25 9.5 0.3 9.55 0.3 Q10.55 0.7 10.65 1.35 L10.7 1.5 10.5 1.35 10.55 1.6 M6.5 -3.3 L6.75 -4.05 7.2 -4.3 7.8 -4.45 Q9.5 -3.6 11.3 -3.95 12.35 -4.1 13.0 -3.15 L13.05 -3.1 13.5 -0.3 12.05 -2.5 Q11.25 -3.5 10.55 -3.2 L11.25 -2.3 12.4 -0.9 12.25 -0.7 12.05 -0.5 10.15 -2.05 Q9.15 -2.85 8.3 -2.95 L8.25 -2.85 8.35 -2.7 8.55 -2.45 8.5 -2.4 Q7.55 -3.15 6.5 -3.3 M16.25 -1.65 L16.35 -1.7 Q16.55 -1.6 16.8 -1.45 L16.85 -1.15 16.25 -1.35 16.25 -1.3 16.2 -1.35 16.25 -1.65 M17.35 0.05 L17.55 -0.2 17.95 -0.3 18.15 -0.05 17.8 0.15 17.35 0.05 M17.65 0.55 L17.75 1.0 18.1 1.35 18.35 1.55 19.05 1.65 Q19.65 3.4 18.95 4.85 L18.95 5.05 19.3 5.75 19.3 6.15 Q18.25 4.85 17.0 3.9 18.4 3.55 16.5 2.8 17.65 2.95 18.35 2.35 L18.35 2.1 Q16.9 1.55 15.7 1.75 16.55 1.0 17.65 0.55 M15.15 4.25 L15.15 4.3 15.4 4.5 15.4 4.45 15.75 4.7 Q15.95 4.9 16.2 4.9 17.3 4.7 15.8 3.8 15.8 3.55 16.25 3.8 L16.7 3.95 Q18.2 4.9 18.95 7.0 L18.95 7.15 17.65 7.1 17.55 6.9 Q17.8 8.1 17.25 8.6 L16.8 8.8 15.7 9.1 15.05 9.35 14.05 9.75 13.5 10.0 12.8 10.35 13.25 9.5 13.35 9.3 13.75 8.35 13.95 7.65 14.2 5.7 14.2 5.6 14.25 5.4 14.3 4.65 14.8 5.75 14.9 5.9 Q15.65 5.35 14.8 4.15 L15.15 4.25 M9.45 0.8 L9.6 0.8 9.45 0.7 9.45 0.8" fill="#c60005" fill-rule="evenodd" stroke="none"/>
      <path d="M13.05 -3.1 L13.05 -3.15 13.45 -2.4 14.1 -0.5 13.15 1.1 13.1 0.95 12.85 0.45 12.85 1.2 12.85 1.9 Q12.3 1.95 11.85 1.25 L11.55 0.8 11.8 1.5 11.85 1.55 11.8 2.25 11.6 2.15 10.8 1.55 10.7 1.5 10.65 1.35 Q10.55 0.7 9.55 0.3 L9.5 0.3 9.35 0.25 9.3 0.15 9.05 -0.2 6.8 -2.2 7.05 -2.15 7.3 -2.15 7.25 -2.2 6.55 -2.65 Q6.45 -3.0 6.5 -3.3 7.55 -3.15 8.5 -2.4 L8.55 -2.45 8.35 -2.7 8.25 -2.85 8.3 -2.95 Q9.15 -2.85 10.15 -2.05 L12.05 -0.5 12.25 -0.7 12.4 -0.9 11.25 -2.3 10.55 -3.2 Q11.25 -3.5 12.05 -2.5 L13.5 -0.3 13.05 -3.1 M16.25 -1.65 L16.2 -1.35 Q15.75 -1.25 15.7 -0.8 15.65 -0.55 15.75 -0.4 L15.8 -0.25 13.45 1.55 13.35 1.55 Q14.15 -0.25 15.65 -1.4 L16.25 -1.65 M17.35 0.05 L17.8 0.15 17.65 0.55 Q16.55 1.0 15.7 1.75 16.9 1.55 18.35 2.1 L18.35 2.35 Q17.65 2.95 16.5 2.8 18.4 3.55 17.0 3.9 15.8 3.0 14.4 2.4 14.9 1.75 15.65 1.6 L15.05 1.65 15.25 1.4 16.3 0.45 16.85 0.5 17.35 0.05 M15.4 4.45 L15.15 4.05 15.15 4.0 15.1 3.95 14.7 3.4 14.75 3.2 14.85 3.2 Q15.85 3.4 16.7 3.95 L16.25 3.8 Q15.8 3.55 15.8 3.8 17.3 4.7 16.2 4.9 15.95 4.9 15.75 4.7 L15.4 4.45 M14.2 5.6 L14.2 5.35 14.2 5.05 14.05 3.95 14.2 3.65 14.4 3.6 14.95 4.1 15.15 4.25 14.8 4.15 Q15.65 5.35 14.9 5.9 L14.8 5.75 14.3 4.65 14.25 5.4 14.2 5.6" fill="#910003" fill-rule="evenodd" stroke="none"/>
      <path d="M16.5 -0.1 Q16.1 -0.1 16.2 -0.5 16.25 -0.9 16.65 -0.95 18.3 -0.3 16.5 -0.1 M17.2 -1.35 Q17.15 -1.85 17.55 -2.0 L18.05 -2.3 Q19.5 -1.75 18.3 -1.55 18.4 -1.2 17.45 -1.1 17.2 -1.05 17.2 -1.35 M19.85 -1.9 Q21.0 -0.85 19.55 -0.75 L18.75 -0.9 18.1 -0.7 Q17.85 -0.7 17.8 -0.95 17.9 -1.2 18.15 -1.2 L18.8 -1.15 19.45 -1.3 Q19.45 -1.65 19.75 -1.85 L19.85 -1.9 M20.4 -0.4 Q21.25 0.55 20.15 -0.2 19.95 -0.35 20.3 -0.4 L20.4 -0.4 M18.35 1.0 Q18.1 1.0 18.15 0.6 18.2 0.1 18.7 0.1 20.1 1.25 18.35 1.0 M15.95 0.05 L16.0 0.1 13.25 2.7 Q13.15 2.8 13.2 2.6 13.5 1.8 14.35 1.1 15.1 0.5 15.95 0.05" fill="#ffc54a" fill-rule="evenodd" stroke="none"/>
      <path d="M15.25 17.45 L15.35 17.45 15.25 17.55 15.25 17.45" fill="#983ec8" fill-rule="evenodd" stroke="none"/>
      <path d="M0.7 36.0 L-0.6 35.95 -0.6 35.9 0.25 35.65 0.65 35.95 0.7 36.0 M0.75 31.8 L1.35 32.25 1.35 32.3 Q0.6 32.15 0.75 31.8 M-16.95 30.9 L-16.95 30.95 Q-17.25 31.6 -17.95 31.25 L-17.95 31.2 Q-17.7 30.9 -17.25 30.85 L-17.25 30.8 -16.95 30.9 M-18.75 26.65 Q-18.5 27.15 -19.3 27.05 L-18.75 26.65" fill="#ffffff" fill-rule="evenodd" stroke="none"/>
    </g>
  </defs>
</svg>
