<?xml version="1.0" encoding="UTF-8" standalone="no"?>
<svg xmlns:xlink="http://www.w3.org/1999/xlink" height="92.9px" width="100.7px" xmlns="http://www.w3.org/2000/svg">
  <g transform="matrix(1.0, 0.0, 0.0, 1.0, 38.65, 49.75)">
    <use height="29.05" transform="matrix(1.0, 0.0, 0.0, 1.0, -22.25, -3.9)" width="44.5" xlink:href="#shape0"/>
  </g>
  <defs>
    <g id="shape0" transform="matrix(1.0, 0.0, 0.0, 1.0, 22.25, 3.9)">
      <path d="M3.25 -3.0 L1.25 -3.4 1.0 -3.3 0.8 -3.05 0.8 -3.0 3.05 -2.15 3.05 -2.05 2.5 -1.35 2.05 -1.5 -3.15 -3.4 -8.2 -1.6 Q-10.15 -0.8 -9.0 0.35 L-9.15 0.55 -9.0 0.75 -9.05 0.8 -7.75 2.45 -6.45 3.05 -5.35 3.05 -4.8 3.0 -5.15 3.05 Q-2.9 3.35 -4.75 2.4 L-4.5 2.3 -3.6 2.25 -3.5 2.75 -3.35 3.15 -3.3 3.25 -3.35 3.25 -3.15 3.5 -3.9 4.25 Q-5.0 3.95 -4.9 5.05 L-4.85 5.15 -4.1 5.45 -3.85 6.1 Q-2.6 6.5 -2.95 5.2 L-2.0 4.25 -1.7 4.9 -1.6 4.8 -1.5 4.9 -1.15 5.15 -0.9 5.25 -0.85 5.25 -0.4 5.25 -0.35 5.25 -0.55 5.45 -0.25 5.2 -0.2 5.2 -0.1 5.1 -0.05 5.05 0.0 5.0 0.05 5.0 0.1 5.0 0.15 5.0 0.25 5.0 1.4 5.15 1.85 4.65 1.85 4.3 2.2 4.2 3.15 5.2 Q2.8 6.5 4.05 6.1 L4.35 5.45 5.05 5.15 5.15 5.05 Q5.2 3.95 4.1 4.25 L3.4 3.5 3.55 3.25 3.5 3.25 3.8 2.25 8.15 1.25 Q7.9 2.05 8.3 3.1 L8.65 3.25 Q9.95 2.2 9.1 0.8 L9.0 0.35 Q8.5 -0.35 7.5 -0.4 L3.95 -1.0 4.05 -1.15 Q5.1 -0.95 5.05 -1.6 L7.0 -1.2 7.0 -1.25 Q5.65 -2.2 4.15 -2.7 L3.95 -3.05 3.8 -3.1 3.25 -3.0 M-10.9 4.3 Q-11.5 -0.55 -6.75 -2.6 -3.8 -3.85 -0.6 -3.9 5.4 -3.9 9.8 -0.2 L10.25 0.45 Q11.1 2.4 10.55 4.25 L10.6 4.75 Q10.45 5.35 8.95 5.7 1.7 7.45 -5.8 6.7 -8.75 6.4 -11.05 4.85 L-10.8 4.8 -10.9 4.5 -10.9 4.3 M3.1 2.4 L2.9 2.7 Q1.75 3.7 1.0 2.45 L0.95 2.4 Q-0.3 0.25 1.7 -0.35 2.8 0.3 3.15 1.6 L3.1 2.4 M-0.45 2.5 Q-1.2 3.65 -2.3 2.65 L-2.5 2.35 -2.55 1.6 Q-2.2 0.3 -1.1 -0.35 0.85 0.2 -0.35 2.35 L-0.45 2.5 M-9.8 3.6 Q-9.65 3.8 -9.55 3.7 -8.45 2.5 -9.7 1.15 -10.5 2.1 -9.8 3.6" fill="#000000" fill-rule="evenodd" stroke="none"/>
      <path d="M3.05 -2.15 L0.8 -3.0 0.8 -3.05 1.0 -3.3 1.25 -3.4 3.25 -3.0 3.15 -2.9 Q2.9 -2.7 3.05 -2.15 M4.15 -2.7 Q5.65 -2.2 7.0 -1.25 L7.0 -1.2 5.05 -1.6 4.95 -2.1 4.3 -2.35 4.15 -2.7 M3.95 -1.0 L7.5 -0.4 Q8.5 -0.35 9.0 0.35 L9.1 0.8 8.75 0.3 8.5 0.6 8.2 1.25 8.15 1.25 3.8 2.25 3.85 2.0 3.85 1.95 3.65 0.75 3.55 0.4 3.25 -0.25 3.9 -1.0 3.95 -1.0 M-3.6 2.25 L-4.5 2.3 -4.75 2.4 Q-2.9 3.35 -5.15 3.05 L-4.8 3.0 -4.7 2.95 Q-4.4 2.9 -4.6 2.7 -6.45 1.2 -8.85 0.3 L-9.0 0.35 Q-10.15 -0.8 -8.2 -1.6 L-3.15 -3.4 2.05 -1.5 2.5 -1.35 2.3 -1.15 Q1.45 -1.75 0.4 -1.9 L0.15 -1.75 0.1 -1.7 0.05 -1.75 -0.15 -1.9 -0.2 -1.9 -1.1 -1.65 -2.05 -1.15 -2.85 -2.05 Q-2.55 -3.15 -3.6 -3.1 L-3.75 -3.05 -4.05 -2.35 -4.7 -2.1 Q-5.2 -0.85 -3.85 -1.15 L-3.05 -0.25 -3.35 0.4 -3.45 0.75 -3.6 2.15 -3.6 2.25" fill="#454545" fill-rule="evenodd" stroke="none"/>
      <path d="M3.25 -3.0 L3.8 -3.1 3.95 -3.05 4.15 -2.7 4.3 -2.35 4.95 -2.1 5.05 -1.6 Q5.1 -0.95 4.05 -1.15 L3.95 -1.0 3.9 -1.0 3.25 -0.25 3.55 0.4 3.65 0.75 3.85 1.95 3.2 2.1 3.1 2.4 3.15 1.6 Q2.8 0.3 1.7 -0.35 -0.3 0.25 0.95 2.4 L1.0 2.45 -0.45 2.5 -0.35 2.35 Q0.85 0.2 -1.1 -0.35 -2.2 0.3 -2.55 1.6 L-2.5 2.35 -3.6 2.15 -3.45 0.75 -3.35 0.4 -3.05 -0.25 -3.85 -1.15 Q-5.2 -0.85 -4.7 -2.1 L-4.05 -2.35 -3.75 -3.05 -3.6 -3.1 Q-2.55 -3.15 -2.85 -2.05 L-2.05 -1.15 -1.1 -1.65 -0.2 -1.9 -0.15 -1.9 0.05 -1.75 0.1 -1.7 0.15 -1.75 0.4 -1.9 Q1.45 -1.75 2.3 -1.15 L2.5 -1.35 3.05 -2.05 3.05 -2.15 Q2.9 -2.7 3.15 -2.9 L3.25 -3.0 M14.55 8.3 L14.6 8.35 14.55 8.35 14.55 8.3 M14.8 9.4 L14.1 8.9 14.25 8.8 14.8 9.4 M13.55 9.95 L13.4 9.85 13.4 9.8 13.4 9.7 13.55 9.95 M13.35 8.75 L13.3 8.8 13.25 8.75 13.35 8.75 M14.9 11.85 L14.95 11.85 14.9 11.9 14.9 11.85 M12.3 9.9 L12.3 9.85 12.35 9.9 12.3 9.9 M13.3 9.75 L13.4 9.8 13.4 9.85 13.3 9.75 M4.7 8.2 L4.65 8.1 4.75 8.2 4.7 8.2 M5.85 10.3 L5.9 10.2 5.9 10.3 5.85 10.3 M7.7 17.2 Q7.1 16.15 7.9 15.45 8.55 16.35 7.85 17.25 L7.7 17.2 M16.95 14.2 L17.0 14.2 16.95 14.25 16.95 14.2 M16.3 19.0 L16.25 19.05 16.2 19.0 16.3 19.0 M-13.8 12.9 L-13.75 12.85 -13.75 12.9 -13.8 12.9 M-12.75 17.95 L-12.65 17.85 -12.7 18.0 -12.75 17.95 M-8.8 16.0 Q-8.75 16.45 -9.25 16.9 -9.4 17.0 -9.45 16.8 L-9.6 15.15 -9.5 15.1 -8.8 16.0" fill="#ffffff" fill-rule="evenodd" stroke="none"/>
      <path d="M21.3 19.85 Q21.9 19.45 21.25 18.5 L21.15 18.2 Q21.1 18.1 21.2 18.05 L21.35 18.0 Q21.95 18.35 22.25 18.8 L22.2 19.55 Q21.8 23.1 18.15 22.55 17.8 22.5 17.85 22.8 L17.85 22.85 17.4 22.45 17.2 22.5 16.65 23.05 15.65 23.5 15.6 23.5 15.65 23.55 15.4 23.65 13.35 23.5 13.3 23.45 12.65 24.4 12.05 25.15 12.3 24.6 12.1 24.65 12.35 24.4 12.45 23.85 Q12.1 24.9 10.45 24.95 9.8 25.0 9.5 24.4 L9.2 23.55 9.2 22.9 Q10.6 24.7 11.5 23.05 9.7 23.15 9.0 21.45 8.5 20.25 8.65 19.1 L8.15 18.5 Q6.95 17.6 7.15 15.7 L7.55 14.9 7.4 14.75 7.25 14.4 7.3 13.1 7.2 12.65 Q6.75 11.8 5.4 11.75 L5.3 11.45 4.65 11.35 Q2.15 10.85 -0.25 9.95 L-1.05 9.55 Q-2.75 9.15 -4.3 8.3 L-6.85 6.85 Q-6.55 7.7 -7.35 8.6 L-11.15 13.3 Q-11.3 13.5 -11.05 13.75 L-9.9 13.7 Q-10.05 13.2 -10.5 12.85 L-10.25 12.85 -10.2 12.85 -10.25 12.8 -10.25 12.75 -10.2 12.7 -9.85 12.6 Q-9.35 12.9 -9.2 13.3 -8.6 13.9 -9.3 14.55 L-9.45 14.75 Q-7.9 15.7 -8.9 17.85 -9.5 19.05 -10.5 19.15 L-11.0 19.2 -11.3 19.85 Q-11.75 20.75 -12.45 21.0 -13.0 22.7 -11.05 21.9 L-10.65 21.55 -10.95 21.25 -10.9 21.1 -10.75 21.05 Q-9.4 21.9 -10.8 23.1 -12.35 24.35 -14.35 23.7 -15.35 23.35 -15.8 22.65 -15.8 23.2 -16.65 23.75 -18.25 24.7 -19.85 24.3 -21.0 24.85 -21.9 23.7 -22.6 22.85 -21.85 22.1 -21.4 21.75 -21.0 22.1 -21.85 23.15 -20.45 22.8 L-20.45 22.55 Q-21.1 21.15 -20.95 19.6 -20.85 18.35 -20.0 17.4 L-19.75 17.15 Q-20.0 16.2 -19.2 15.15 L-18.45 14.35 Q-18.85 12.35 -16.8 10.8 L-15.3 9.8 Q-15.1 7.8 -13.15 6.85 -12.35 5.5 -11.0 4.55 L-10.9 4.3 -10.9 4.5 -10.8 4.8 -11.05 4.85 Q-8.75 6.4 -5.8 6.7 1.7 7.45 8.95 5.7 10.45 5.35 10.6 4.75 L13.7 6.45 Q14.5 6.85 14.45 7.6 L15.0 7.9 Q17.0 9.2 17.0 11.55 L17.05 11.5 Q20.05 12.6 20.05 15.55 L19.9 16.7 Q21.35 18.3 20.15 20.05 L20.25 20.0 20.95 19.95 20.35 20.3 20.25 20.2 20.3 20.3 20.1 20.45 20.1 20.5 20.2 20.55 Q19.85 20.65 19.7 21.05 L19.3 21.3 19.35 21.4 19.25 21.4 19.2 21.25 19.0 21.55 Q18.6 22.2 19.8 22.0 L20.05 21.95 Q20.8 21.9 21.3 21.5 L21.2 21.5 21.35 21.4 21.45 21.35 21.65 21.05 Q22.15 20.35 22.0 19.2 L21.8 19.5 21.75 19.55 21.55 19.75 21.3 19.85 M14.55 8.3 L14.1 8.2 Q14.45 7.05 13.2 6.6 L13.15 6.65 Q14.05 7.2 13.85 8.15 L13.3 8.1 Q12.95 8.05 12.75 7.85 L11.6 6.65 Q11.1 5.75 10.25 5.5 L10.2 5.5 11.45 7.75 11.5 7.8 11.5 7.85 11.6 7.9 11.85 8.1 11.95 8.2 11.9 8.2 Q10.65 7.8 10.2 6.95 L9.9 6.05 9.85 5.8 9.8 6.0 9.3 5.95 8.65 6.1 8.5 6.0 8.4 6.05 8.35 6.15 8.35 6.25 9.0 7.05 Q8.15 6.55 7.35 6.5 L7.0 6.3 6.95 6.35 7.25 6.8 7.65 7.15 7.9 7.3 7.7 7.25 5.35 6.65 5.25 6.75 5.15 6.85 5.05 6.8 4.65 6.85 7.8 8.5 9.25 9.05 Q10.2 9.25 10.85 10.05 11.75 11.2 11.35 12.85 L11.35 12.9 12.0 11.5 12.05 10.85 12.05 10.2 12.0 9.7 12.4 11.35 Q12.85 12.9 13.95 13.6 L13.85 11.7 13.8 11.1 13.85 11.15 13.8 11.05 13.8 11.0 13.65 10.55 13.5 10.25 13.5 10.2 13.5 10.15 13.3 9.75 13.4 9.85 13.55 9.95 13.95 10.4 13.9 10.3 13.95 10.45 Q14.5 11.15 14.55 12.1 L16.05 13.35 15.8 12.75 Q15.45 11.75 15.5 10.65 L15.6 10.95 15.65 11.1 15.6 10.65 15.5 10.35 15.15 9.95 14.1 8.9 14.8 9.4 15.3 9.95 14.8 8.85 14.85 8.85 14.85 8.8 14.95 8.9 15.1 9.0 15.15 9.05 15.25 9.15 Q16.0 9.9 16.25 10.9 L16.3 12.1 16.25 12.15 16.25 12.25 16.25 12.3 16.2 12.2 16.4 12.55 16.55 11.4 16.55 11.25 16.2 9.7 Q15.7 8.7 14.6 8.35 L14.55 8.3 M13.35 7.45 Q12.85 6.95 12.2 6.9 12.45 7.55 13.3 7.5 L13.35 7.45 M7.75 12.2 L7.7 12.35 Q7.45 13.65 8.1 14.5 L8.35 14.85 8.4 14.9 8.85 15.25 9.0 15.35 9.1 15.4 11.2 15.65 Q12.65 15.2 11.9 14.6 L11.85 14.4 11.8 14.5 Q11.55 15.2 10.55 15.0 L10.1 14.85 Q8.85 14.45 9.2 12.9 9.25 12.8 9.35 12.8 L9.45 13.2 9.45 13.25 9.95 14.0 10.25 12.95 Q10.95 12.0 10.5 10.8 L10.45 10.65 10.35 10.7 10.3 11.45 10.2 11.45 10.0 11.45 9.35 10.1 9.25 10.0 9.1 9.9 7.9 8.9 8.0 9.15 Q9.05 10.05 9.15 11.15 L9.15 11.65 9.1 12.0 9.1 11.95 Q8.45 10.35 7.3 9.1 6.8 8.3 5.85 8.0 5.25 7.6 4.5 7.45 6.2 8.2 7.35 9.65 L7.35 9.7 Q5.55 8.6 4.05 7.35 L3.5 7.3 3.35 7.3 3.15 7.45 3.3 7.8 3.65 8.15 3.4 7.7 3.45 7.6 4.2 8.65 4.45 8.85 4.4 8.95 5.65 10.4 6.35 10.65 6.15 10.35 5.85 10.0 5.3 9.5 5.65 9.7 5.7 9.75 7.5 11.55 7.7 11.85 7.7 11.9 7.75 12.15 7.75 12.2 M3.6 8.55 L3.3 8.4 3.4 8.55 3.35 8.5 3.3 8.45 3.25 8.4 Q1.9 7.45 0.05 7.25 L0.0 7.45 0.15 7.65 0.45 7.95 0.45 8.0 -0.55 7.7 -0.2 7.9 -0.15 7.95 -2.7 7.2 -4.55 7.0 -4.6 7.05 -4.3 7.15 Q-4.15 7.6 -3.15 8.05 L-0.7 9.1 0.55 9.6 2.75 10.5 2.7 10.3 2.7 10.25 2.65 10.2 2.5 10.1 2.35 10.0 1.7 9.55 1.5 9.4 1.3 9.25 1.3 9.15 1.25 9.05 0.95 8.65 1.0 8.65 Q2.05 9.5 3.3 10.15 L5.95 11.25 5.3 10.4 5.15 10.25 5.0 10.05 5.1 10.1 4.05 8.8 3.6 8.55 M7.9 15.2 L7.85 15.25 Q6.7 17.05 8.6 18.05 L8.65 17.85 Q8.3 17.25 8.45 16.6 8.75 15.5 7.9 15.2 M8.95 15.9 L8.95 15.95 Q8.7 16.75 8.9 17.6 L9.0 17.85 9.6 16.75 9.7 16.3 9.7 16.15 8.95 15.9 M10.45 18.25 Q10.65 17.2 10.4 16.3 L9.95 17.15 9.6 18.05 9.6 18.1 9.45 18.4 9.35 18.95 9.35 19.05 9.35 19.2 9.4 19.55 9.45 20.25 Q9.7 22.15 11.35 22.25 L10.65 21.2 12.55 22.45 11.55 20.85 10.9 20.2 Q10.7 20.0 10.8 19.8 L10.95 19.4 11.1 19.05 Q11.45 17.7 11.2 16.35 L10.45 18.3 10.45 18.25 M19.45 14.8 L18.65 13.35 18.5 13.15 17.45 12.2 Q17.15 12.3 17.4 12.5 L17.95 13.1 Q18.2 14.6 19.2 15.65 L19.65 16.05 19.65 16.0 19.45 14.8 M16.55 17.75 L16.55 17.7 16.25 16.8 15.5 15.5 15.45 15.35 15.35 15.25 15.25 15.1 14.35 14.15 14.35 14.45 14.1 14.25 14.05 14.3 14.3 14.85 14.55 14.95 Q15.35 16.1 15.5 17.35 L15.55 18.05 15.55 18.1 14.9 20.25 15.35 19.9 15.75 18.9 15.75 21.0 15.8 20.95 16.4 19.75 Q16.85 19.3 16.7 18.5 L16.7 18.45 16.55 17.75 M16.95 14.2 L16.6 14.05 16.45 14.1 16.4 14.25 17.1 15.4 18.2 18.1 Q18.65 17.75 18.65 17.05 18.6 15.9 18.1 15.15 17.7 14.55 17.0 14.2 L16.95 14.2 M19.25 17.85 L19.05 17.65 19.0 17.7 18.9 18.8 18.65 18.75 18.5 19.1 18.45 18.75 18.4 18.75 17.9 20.2 Q18.0 19.55 17.75 19.1 17.2 20.0 17.9 20.65 L18.05 20.4 18.1 20.95 Q19.1 20.4 19.5 19.3 L19.6 19.1 Q19.85 18.1 19.25 17.8 L19.25 17.85 M17.15 17.15 L17.2 16.65 Q16.5 15.3 15.2 14.15 L15.1 14.1 14.6 13.65 Q14.7 14.55 15.7 15.35 16.7 16.15 17.15 17.15 M14.65 16.2 L14.6 16.1 14.55 16.0 14.55 15.95 14.45 15.7 14.45 15.75 14.2 15.25 13.9 14.75 13.6 14.3 12.25 12.75 Q11.95 13.55 12.85 14.3 13.7 14.95 13.85 16.1 L14.35 19.25 14.75 17.6 14.8 17.25 14.7 16.55 14.7 16.4 14.65 16.2 M12.3 16.65 L12.1 16.15 12.05 16.15 11.9 16.25 11.45 19.5 Q11.4 19.75 11.55 19.5 12.4 18.45 12.4 17.4 L12.3 16.65 M13.25 16.35 L13.0 15.85 12.95 15.9 Q13.05 18.1 12.05 20.2 12.5 20.35 12.8 19.8 L13.35 18.45 Q13.6 17.35 13.25 16.35 M13.7 19.45 Q13.25 19.7 13.15 20.25 12.8 21.75 13.65 22.6 L13.65 22.55 Q13.25 20.95 13.7 19.45 M13.85 21.8 Q14.25 22.85 14.95 23.0 15.15 23.25 15.45 23.3 L16.05 22.85 15.7 22.85 16.35 22.35 15.65 22.35 15.15 22.25 Q13.75 21.45 14.05 19.65 13.35 20.6 13.85 21.8 M12.2 22.95 Q11.8 23.9 10.85 24.35 12.3 24.45 12.2 22.95 M18.0 21.65 L18.15 21.65 18.05 21.6 18.0 21.65 M-9.45 7.2 L-9.05 6.6 -9.05 6.55 -9.25 6.4 Q-10.2 7.05 -10.85 8.05 L-11.7 9.75 -12.3 11.55 -12.75 12.35 Q-13.1 14.0 -11.8 14.5 -12.55 13.6 -12.4 12.35 L-12.15 12.95 Q-11.85 13.95 -11.15 14.3 L-10.7 14.45 -10.15 14.45 -10.1 14.4 -10.1 14.35 Q-11.8 13.85 -11.85 12.3 L-11.8 12.35 -9.1 9.65 Q-7.65 8.35 -7.65 6.85 -8.5 8.3 -9.65 9.5 L-9.8 9.6 -10.1 9.9 -9.85 9.55 -9.6 9.2 -9.6 9.15 -9.25 8.5 Q-8.65 7.5 -8.6 6.65 -9.7 7.6 -10.3 8.7 L-10.2 8.45 -9.95 8.0 -9.85 7.8 -9.8 7.75 -9.45 7.2 M-16.45 14.7 Q-16.35 15.65 -15.5 16.15 L-15.5 16.0 -15.7 15.5 Q-16.35 13.1 -14.3 11.4 L-14.35 11.35 -15.1 11.2 -15.1 11.15 -15.3 11.0 -15.45 10.95 -15.65 11.05 -16.0 11.35 Q-17.55 12.3 -17.75 13.85 L-17.95 14.9 -17.8 14.65 -17.65 14.15 -17.55 13.75 -17.5 13.65 -17.4 13.45 -16.6 12.35 -16.45 12.2 -17.05 13.15 -17.25 13.85 Q-17.4 14.65 -17.0 15.25 L-16.8 14.4 -16.8 14.3 Q-16.55 13.3 -15.95 12.5 L-16.3 13.45 -16.45 14.7 M-11.4 8.15 L-10.1 6.3 -10.2 6.3 -10.5 6.55 -10.5 6.5 Q-10.35 6.15 -10.75 6.05 L-11.4 6.3 -12.0 6.95 Q-12.65 7.8 -12.9 8.7 -13.15 9.6 -12.95 10.6 L-12.35 9.3 -11.7 8.45 -11.6 8.4 -11.4 8.2 -11.4 8.15 M-14.35 9.0 Q-14.25 8.85 -14.05 8.8 L-13.65 7.8 -14.35 8.5 -14.35 9.0 M-14.55 9.85 L-14.55 9.8 -14.8 8.8 Q-15.25 9.55 -14.55 9.85 M-10.75 15.45 Q-10.4 16.65 -10.6 17.9 -9.9 17.2 -10.1 16.2 L-10.15 16.1 -10.5 15.45 -10.75 15.45 M-14.15 14.5 L-14.25 13.7 -14.15 12.8 -14.0 11.7 -14.6 12.45 -14.95 13.8 -14.85 14.75 Q-14.6 15.55 -13.75 15.7 L-14.15 14.5 M-11.8 19.25 L-11.65 19.0 -11.45 18.6 Q-11.25 17.9 -11.35 17.1 -11.1 16.15 -12.05 15.5 L-12.15 15.6 -12.25 15.7 -12.45 15.6 -12.75 15.65 -13.3 17.6 Q-13.25 16.95 -13.55 16.2 L-13.6 16.25 -13.7 16.95 -13.75 17.0 -13.75 17.1 -13.95 18.1 -14.2 18.95 -14.25 18.3 -14.4 17.55 Q-14.55 16.8 -15.1 16.15 L-15.15 16.15 Q-14.7 17.35 -15.15 18.55 L-15.15 18.3 -15.4 18.25 -15.5 18.25 -15.6 18.45 -15.6 18.4 -15.8 17.4 Q-15.9 16.65 -16.35 16.0 L-16.35 16.05 -16.3 16.2 -16.3 16.4 -15.95 17.95 -15.95 18.0 -16.05 17.95 -16.2 18.4 -16.4 17.3 -16.6 17.2 -16.55 18.55 -16.55 18.95 -16.85 19.45 -16.85 19.25 -16.85 19.0 Q-17.0 18.2 -17.3 17.5 L-17.3 17.3 -17.3 17.5 Q-17.0 18.2 -16.85 19.0 L-16.85 19.25 -16.85 19.45 -16.55 18.95 -16.55 18.55 Q-16.0 20.3 -16.95 21.65 L-16.95 21.4 -16.9 21.35 -16.9 21.1 -16.95 20.9 -17.0 20.8 -17.15 21.2 -17.2 21.2 -17.15 20.85 Q-17.1 19.35 -17.35 17.85 L-17.3 20.1 -17.35 20.25 Q-18.4 19.85 -18.15 18.5 -18.4 19.85 -17.35 20.25 L-17.3 20.1 -17.35 17.85 Q-17.1 19.35 -17.15 20.85 L-17.2 21.2 -17.15 21.2 -17.0 20.8 -16.95 20.9 -16.9 21.1 -16.9 21.35 -16.95 21.4 -17.0 21.8 -17.1 21.8 -17.65 22.1 -18.1 22.5 Q-18.55 22.7 -18.95 22.25 L-19.1 21.85 -19.2 22.0 -19.3 21.8 -19.3 22.35 -19.0 22.75 Q-18.55 23.65 -17.5 23.1 -16.7 22.9 -16.45 21.65 L-16.4 21.3 -15.9 22.1 -16.0 21.75 -16.3 20.45 -16.25 19.75 -16.0 18.85 -15.85 19.1 Q-16.4 21.1 -14.9 22.5 -14.85 22.2 -14.95 21.85 L-15.05 21.25 Q-15.1 20.45 -14.45 20.1 L-14.4 20.25 -14.5 20.5 -14.6 21.2 -14.6 21.75 Q-14.45 22.6 -13.5 23.25 -14.4 21.9 -14.1 20.35 L-13.5 19.8 Q-12.4 18.5 -12.3 16.7 L-12.05 16.75 -12.4 18.3 Q-12.7 19.3 -13.3 20.15 L-13.25 20.1 -12.6 19.45 -13.1 20.1 Q-12.35 19.3 -11.9 18.25 -12.15 19.2 -12.7 20.05 L-12.75 20.05 Q-13.85 20.95 -13.4 22.15 L-13.35 22.25 Q-12.55 24.05 -11.0 22.75 L-11.3 22.7 -12.2 22.55 -13.05 21.55 Q-13.25 20.9 -12.65 20.15 L-11.8 19.25 M-14.1 20.45 L-14.1 20.35 -14.1 20.45 M-18.5 17.85 L-18.45 17.95 Q-18.3 16.85 -17.4 16.25 L-17.5 16.35 -17.6 16.7 -18.15 18.3 -18.15 18.5 -18.05 18.65 -17.85 18.55 -17.3 17.3 -17.1 16.55 -17.1 16.5 -17.05 16.25 -17.1 16.2 -16.95 15.9 -17.0 15.85 -17.3 15.65 Q-18.8 16.5 -18.5 17.85 M-19.2 15.9 L-19.25 16.1 Q-18.1 16.55 -18.85 15.45 L-19.2 15.9 M-19.25 18.65 L-19.4 17.8 -19.45 17.85 -19.45 17.9 -19.65 18.05 Q-20.5 19.6 -19.75 21.1 L-19.85 21.35 -20.0 21.25 -20.4 20.65 -20.45 20.75 Q-20.45 21.65 -19.65 21.85 L-19.4 21.5 -18.95 20.75 -18.95 20.65 -18.9 20.7 -18.85 20.75 -18.95 21.0 -18.8 21.5 -18.15 21.55 -17.65 21.05 Q-17.85 20.85 -18.1 20.9 L-18.45 20.25 -19.05 19.2 -19.1 19.15 -19.25 18.65 M-16.85 19.0 L-17.0 18.4 -17.15 20.45 -17.15 20.85 -17.15 20.45 -17.0 18.4 -16.85 19.0 M-9.5 15.1 L-9.7 14.95 -9.85 15.15 Q-9.2 16.9 -10.3 18.3 -9.9 18.4 -9.55 18.05 -8.5 16.95 -8.8 16.0 L-9.5 15.1 M-9.85 14.55 L-9.8 14.45 -9.9 14.5 -9.85 14.55" fill="#532c00" fill-rule="evenodd" stroke="none"/>
      <path d="M20.95 19.95 L21.3 19.85 21.55 19.75 21.75 19.55 21.8 19.5 22.0 19.2 Q22.15 20.35 21.65 21.05 L21.35 21.4 21.2 21.5 20.05 21.95 19.8 22.0 Q18.6 22.2 19.0 21.55 L19.2 21.25 19.25 21.4 19.35 21.4 19.3 21.3 19.7 21.05 Q19.85 20.65 20.2 20.55 L20.1 20.5 20.1 20.45 20.3 20.3 20.35 20.3 20.95 19.95 M21.5 20.4 L21.4 20.3 21.45 20.1 19.95 21.0 20.0 21.0 20.25 21.05 19.8 21.35 Q19.4 21.3 19.3 21.65 20.95 21.95 21.55 20.45 L21.5 20.4 M11.85 8.1 L11.6 7.9 11.5 7.85 11.5 7.8 11.45 7.75 10.2 5.5 10.25 5.5 Q11.1 5.75 11.6 6.65 L12.75 7.85 Q12.95 8.05 13.3 8.1 L13.85 8.15 Q14.05 7.2 13.15 6.65 L13.2 6.6 Q14.45 7.05 14.1 8.2 L14.55 8.3 14.55 8.35 13.8 8.5 13.65 8.4 Q13.4 8.6 13.65 8.95 L13.35 8.75 13.25 8.75 13.3 8.8 14.2 9.9 14.7 10.9 14.9 11.85 14.9 11.9 14.95 11.85 15.0 11.5 15.3 11.95 15.35 11.95 Q15.55 10.8 15.15 9.95 L15.5 10.35 15.6 10.65 15.65 11.1 15.6 10.95 15.5 10.65 Q15.45 11.75 15.8 12.75 L16.05 13.35 14.55 12.1 Q14.5 11.15 13.95 10.45 L13.9 10.3 13.95 10.4 13.55 9.95 13.4 9.7 13.35 9.65 Q12.95 8.55 12.0 7.6 L12.0 7.65 12.05 7.7 11.5 7.25 11.45 7.3 11.85 8.1 M16.55 11.25 L16.55 11.4 16.4 12.55 16.2 12.2 16.25 12.3 16.25 12.25 16.25 12.15 16.3 12.1 16.25 10.9 16.55 11.25 M14.85 8.85 L14.8 8.85 15.3 9.95 14.8 9.4 14.25 8.8 13.8 8.5 14.85 8.85 M11.9 8.2 L12.2 8.75 Q12.1 8.8 12.15 8.95 L12.35 9.9 12.3 9.85 12.3 9.9 Q12.2 10.55 12.55 11.3 L12.6 11.25 12.7 11.0 12.75 11.2 12.8 10.85 12.8 10.4 12.85 10.7 Q13.1 11.75 13.6 12.35 L13.8 11.1 13.85 11.7 13.95 13.6 Q12.85 12.9 12.4 11.35 L12.0 9.7 12.05 10.2 Q11.9 9.45 11.3 8.85 10.75 8.0 9.4 7.6 9.05 7.55 8.9 7.85 L8.05 7.65 7.65 7.5 7.65 7.55 7.15 7.45 8.05 8.0 Q8.55 8.45 9.45 8.55 L11.65 10.8 11.7 10.7 11.75 10.3 12.0 11.5 11.35 12.9 11.35 12.85 Q11.75 11.2 10.85 10.05 10.2 9.25 9.25 9.05 L7.8 8.5 4.65 6.85 5.05 6.8 5.15 6.85 5.25 6.75 5.35 6.65 7.7 7.25 7.9 7.3 7.65 7.15 7.25 6.8 6.95 6.35 7.0 6.3 7.35 6.5 Q8.15 6.55 9.0 7.05 L8.35 6.25 8.35 6.15 8.4 6.05 8.5 6.0 8.65 6.1 9.3 5.95 Q9.5 6.7 10.2 6.95 10.65 7.8 11.9 8.2 M10.0 11.45 L10.2 11.45 10.3 11.45 10.35 10.7 10.45 10.65 10.5 10.8 Q10.95 12.0 10.25 12.95 L9.95 14.0 9.45 13.25 9.45 13.2 9.35 12.8 Q9.25 12.8 9.2 12.9 8.85 14.45 10.1 14.85 L10.55 15.0 Q11.55 15.2 11.8 14.5 L11.85 14.4 11.9 14.6 Q12.65 15.2 11.2 15.65 L9.1 15.4 9.0 15.35 8.85 15.25 8.4 14.9 8.35 14.85 8.1 14.5 Q7.45 13.65 7.7 12.35 L7.75 12.2 Q8.0 14.35 9.6 15.05 L9.15 14.45 Q8.6 13.8 8.65 13.0 8.75 11.1 7.35 9.75 L7.7 11.85 7.5 11.55 5.7 9.75 6.4 9.7 4.75 8.2 4.65 8.1 4.7 8.2 5.1 8.85 4.25 7.85 4.15 7.9 Q4.65 9.5 5.85 10.3 L5.9 10.3 5.9 10.2 5.85 10.0 6.15 10.35 6.35 10.65 5.65 10.4 4.4 8.95 4.45 8.85 4.2 8.65 3.45 7.6 3.4 7.7 3.65 8.15 3.3 7.8 3.15 7.45 3.35 7.3 3.5 7.3 4.05 7.35 Q5.55 8.6 7.35 9.7 L7.35 9.65 Q6.2 8.2 4.5 7.45 5.25 7.6 5.85 8.0 6.8 8.3 7.3 9.1 8.45 10.35 9.1 11.95 L9.1 12.0 9.15 11.65 9.5 11.9 9.5 11.8 9.15 11.15 Q9.05 10.05 8.0 9.15 L7.9 8.9 9.1 9.9 9.05 9.95 9.65 12.55 9.75 12.6 10.05 11.5 10.0 11.45 M13.8 11.05 L13.85 11.15 13.8 11.1 13.8 11.05 M9.8 6.0 L9.85 5.8 9.9 6.05 9.8 6.0 M4.1 9.3 L4.1 9.25 4.1 9.2 4.15 9.2 4.15 9.15 3.6 8.55 4.05 8.8 5.1 10.1 5.0 10.05 5.15 10.25 5.3 10.4 5.95 11.25 3.3 10.15 Q2.05 9.5 1.0 8.65 L0.95 8.65 1.25 9.05 1.3 9.15 0.5 8.8 -0.6 8.1 -0.75 8.15 -0.85 8.15 -2.35 7.45 -2.3 7.65 -1.95 7.95 -2.1 7.95 -0.7 9.1 -3.15 8.05 Q-4.15 7.6 -4.3 7.15 L-4.6 7.05 -4.55 7.0 -2.7 7.2 -0.15 7.95 -0.2 7.9 -0.55 7.7 0.45 8.0 0.45 7.95 0.15 7.65 0.0 7.45 0.05 7.25 Q1.9 7.45 3.25 8.4 L2.4 7.9 2.85 8.6 2.05 8.1 2.3 8.55 1.65 8.2 1.55 8.1 1.5 8.15 Q1.0 7.9 0.5 7.7 L0.5 7.8 Q1.3 8.8 2.3 9.25 3.2 10.2 4.5 10.5 L4.5 10.45 3.05 9.5 3.25 9.55 4.35 10.0 4.35 9.85 4.1 9.3 M1.7 9.55 L2.35 10.0 2.5 10.1 2.65 10.2 2.7 10.25 2.7 10.3 2.75 10.5 0.55 9.6 1.85 9.8 1.85 9.75 1.8 9.7 1.85 9.7 1.8 9.65 1.85 9.65 1.7 9.55 M9.6 18.05 L9.95 17.15 10.4 16.3 Q10.65 17.2 10.45 18.25 L10.4 18.2 Q10.25 18.2 10.25 18.35 10.0 19.0 10.05 19.7 L10.05 19.1 10.3 17.45 9.6 18.05 M10.45 18.3 L11.2 16.35 Q11.45 17.7 11.1 19.05 L10.95 18.65 Q10.55 18.6 10.6 19.0 L10.55 18.9 10.5 18.3 10.45 18.3 M11.55 20.85 L12.55 22.45 10.65 21.2 11.35 22.25 Q9.7 22.15 9.45 20.25 L9.4 19.55 Q9.7 20.9 10.35 21.7 L10.5 21.45 10.45 19.85 Q10.65 21.05 11.65 21.5 L11.55 20.85 M18.5 13.15 L19.1 15.45 19.2 15.65 19.2 15.6 19.45 14.8 19.65 16.0 19.65 16.05 19.2 15.65 Q18.2 14.6 17.95 13.1 L17.4 12.5 Q17.15 12.3 17.45 12.2 L18.5 13.15 M16.55 17.75 L16.7 18.45 16.7 18.5 Q16.85 19.3 16.4 19.75 L15.8 20.95 15.75 21.0 15.75 18.9 15.35 19.9 14.9 20.25 15.55 18.1 15.75 18.9 15.95 19.2 16.1 19.05 Q16.15 18.8 16.2 19.0 L16.25 19.05 16.3 19.0 16.55 17.75 M15.5 17.35 Q15.35 16.1 14.55 14.95 L14.3 14.85 14.05 14.3 14.1 14.25 14.35 14.45 14.35 14.15 15.25 15.1 Q15.0 15.1 15.1 15.3 15.55 16.15 15.5 17.2 L15.5 17.3 15.5 17.35 M18.1 15.15 Q18.6 15.9 18.65 17.05 18.65 17.75 18.2 18.1 L17.1 15.4 16.4 14.25 16.45 14.1 16.6 14.05 16.95 14.2 16.95 14.25 17.2 14.55 17.1 14.65 17.05 14.8 17.3 15.15 Q17.9 16.15 18.05 17.25 L18.45 17.25 18.5 17.2 Q18.6 16.0 18.1 15.15 M17.15 17.15 Q16.7 16.15 15.7 15.35 14.7 14.55 14.6 13.65 L15.1 14.1 15.2 14.15 Q16.5 15.3 17.2 16.65 L17.15 17.15 M19.6 19.1 L19.5 19.3 Q19.1 20.4 18.1 20.95 L18.05 20.4 17.9 20.65 Q17.2 20.0 17.75 19.1 18.0 19.55 17.9 20.2 L18.4 18.75 18.45 18.75 18.5 19.1 18.65 18.75 18.9 18.8 19.0 17.7 19.05 17.65 19.25 17.85 Q18.8 18.65 19.0 19.5 L19.1 19.45 19.6 19.1 M13.6 14.3 L13.55 14.25 13.5 14.25 Q13.75 15.75 14.7 16.55 L14.8 17.25 14.75 17.6 14.35 19.25 13.85 16.1 Q13.7 14.95 12.85 14.3 11.95 13.55 12.25 12.75 L13.6 14.3 M12.3 16.65 L12.2 16.6 12.15 16.6 Q11.65 17.25 12.3 17.5 L12.4 17.4 Q12.4 18.45 11.55 19.5 11.4 19.75 11.45 19.5 L11.9 16.25 12.05 16.15 12.1 16.15 12.3 16.65 M13.25 16.35 L13.2 16.35 12.55 19.2 12.65 19.15 13.35 18.45 12.8 19.8 Q12.5 20.35 12.05 20.2 13.05 18.1 12.95 15.9 L13.0 15.85 13.25 16.35 M13.7 19.45 Q13.25 20.95 13.65 22.55 L13.65 22.6 Q12.8 21.75 13.15 20.25 13.25 19.7 13.7 19.45 M12.2 22.95 Q12.3 24.45 10.85 24.35 11.8 23.9 12.2 22.95 M13.85 21.8 Q13.35 20.6 14.05 19.65 13.75 21.45 15.15 22.25 L15.65 22.35 16.35 22.35 15.7 22.85 16.05 22.85 15.45 23.3 Q15.15 23.25 14.95 23.0 14.25 22.85 13.85 21.8 M18.0 21.65 L18.05 21.6 18.15 21.65 18.0 21.65 M-9.65 9.5 Q-8.5 8.3 -7.65 6.85 -7.65 8.35 -9.1 9.65 L-11.8 12.35 -11.85 12.3 Q-11.8 13.85 -10.1 14.35 L-10.1 14.4 -10.15 14.45 -10.7 14.45 -11.15 14.3 Q-11.85 13.95 -12.15 12.95 L-12.4 12.35 Q-12.55 13.6 -11.8 14.5 -13.1 14.0 -12.75 12.35 L-12.3 11.55 -11.7 9.75 -10.85 8.05 Q-10.2 7.05 -9.25 6.4 L-9.05 6.55 -9.05 6.6 -9.45 7.2 -10.0 7.65 -9.95 7.2 -10.9 8.2 Q-11.55 9.2 -11.6 10.15 -11.9 10.95 -11.85 11.9 L-11.8 11.85 -11.55 11.25 -11.5 11.45 Q-11.05 11.2 -10.95 10.65 L-10.45 10.75 Q-9.25 9.85 -8.7 8.6 L-9.65 9.5 M-10.3 8.7 Q-9.7 7.6 -8.6 6.65 -8.65 7.5 -9.25 8.5 L-9.6 9.15 -9.8 8.95 -9.8 8.9 Q-9.55 8.45 -9.6 8.05 L-10.65 9.35 -10.65 9.3 -10.4 8.85 -10.35 8.75 -10.3 8.7 M-16.45 14.7 Q-15.7 13.4 -15.65 11.85 L-15.7 11.85 -16.15 12.0 Q-15.85 11.7 -16.05 11.45 L-17.0 12.3 Q-17.45 12.95 -17.4 13.45 L-17.5 13.65 -17.55 13.75 -17.65 14.15 -17.8 14.65 -17.95 14.9 -17.75 13.85 Q-17.55 12.3 -16.0 11.35 L-15.65 11.05 -15.45 10.95 -15.3 11.0 -15.1 11.15 -15.1 11.2 -14.35 11.35 -14.3 11.4 Q-16.35 13.1 -15.7 15.5 L-15.5 16.0 -15.5 16.15 Q-16.35 15.65 -16.45 14.7 M-17.25 13.85 L-17.1 14.05 Q-17.2 14.55 -16.9 14.75 L-16.8 14.4 -17.0 15.25 Q-17.4 14.65 -17.25 13.85 M-11.4 8.15 L-10.7 6.55 -10.75 6.5 -11.1 6.35 -11.15 6.4 -11.45 6.7 -12.0 6.95 -11.4 6.3 -10.75 6.05 Q-10.35 6.15 -10.5 6.5 L-10.5 6.55 -10.2 6.3 -10.1 6.3 -11.4 8.15 M-12.4 8.95 L-12.35 9.3 -12.95 10.6 Q-13.15 9.6 -12.9 8.7 L-12.4 8.95 M-14.55 9.85 Q-15.25 9.55 -14.8 8.8 L-14.55 9.8 -14.55 9.85 M-13.75 12.9 L-13.75 12.85 -13.8 12.9 -14.0 14.05 Q-14.2 13.4 -14.05 12.55 -13.95 11.85 -13.35 11.8 L-13.35 13.15 -13.4 12.85 -13.5 12.9 -13.65 13.05 -13.65 13.2 -13.75 12.9 M-14.15 12.8 L-14.6 12.45 -14.0 11.7 -14.15 12.8 M-14.85 14.75 Q-14.5 14.7 -14.4 14.25 L-14.15 14.5 -13.75 15.7 Q-14.6 15.55 -14.85 14.75 M-13.95 18.1 L-13.75 17.1 -13.75 17.0 -13.7 16.95 -13.6 16.25 -13.55 16.2 Q-13.25 16.95 -13.3 17.6 L-12.75 15.65 -12.45 15.6 -12.25 15.7 -12.15 15.6 -12.05 15.5 Q-11.1 16.15 -11.35 17.1 -11.25 17.9 -11.45 18.6 L-11.65 19.0 -11.8 19.25 -11.75 18.95 -11.65 18.65 Q-11.5 17.85 -11.65 17.0 L-11.75 17.15 Q-11.95 17.8 -12.4 18.3 L-12.05 16.75 -12.3 16.7 Q-12.4 18.5 -13.5 19.8 L-12.7 18.0 -12.65 17.85 -12.75 17.95 -13.3 18.6 Q-12.95 17.9 -13.3 17.6 L-13.45 17.7 Q-13.8 18.4 -13.75 18.0 L-13.95 18.1 M-13.05 21.55 L-12.2 22.55 -11.3 22.7 -11.0 22.75 Q-12.55 24.05 -13.35 22.25 L-12.65 22.85 Q-12.35 22.4 -12.85 22.05 -13.25 21.8 -13.05 21.55 M-15.15 18.3 L-15.15 18.55 Q-14.7 17.35 -15.15 16.15 L-15.1 16.15 Q-14.55 16.8 -14.4 17.55 L-14.25 18.3 Q-14.85 18.75 -15.1 19.9 -15.3 20.75 -15.05 21.25 L-14.95 21.85 Q-14.85 22.2 -14.9 22.5 -16.4 21.1 -15.85 19.1 L-16.0 18.85 -16.25 19.75 -16.3 20.45 -16.0 21.75 -15.9 22.1 -16.4 21.3 -16.45 21.65 Q-16.7 22.9 -17.5 23.1 -18.55 23.65 -19.0 22.75 L-19.3 22.35 -19.3 21.8 -19.2 22.0 -19.1 21.85 -18.95 22.25 Q-18.55 22.7 -18.1 22.5 L-18.4 22.85 -18.35 22.9 -17.1 21.8 -17.0 21.8 -16.95 21.4 -16.95 21.65 Q-16.0 20.3 -16.55 18.55 L-16.6 17.2 -16.4 17.3 -16.2 18.4 -16.05 17.95 -15.95 18.0 -15.95 17.95 -16.3 16.4 -16.3 16.2 -16.35 16.05 -16.35 16.0 Q-15.9 16.65 -15.8 17.4 L-15.6 18.4 -15.6 18.45 -15.5 18.25 -15.4 18.25 Q-16.35 19.85 -15.25 21.8 L-15.2 21.75 Q-15.65 20.0 -15.15 18.3 M-18.5 17.85 Q-18.8 16.5 -17.3 15.65 L-17.0 15.85 -16.95 15.9 -17.1 16.2 -17.05 16.25 -17.1 16.5 -17.1 16.25 -17.1 16.2 -17.15 16.15 Q-17.3 15.95 -17.55 16.0 -18.7 16.8 -18.5 17.85 M-19.2 15.9 L-18.85 15.45 Q-18.1 16.55 -19.25 16.1 L-19.2 15.9 M-18.95 20.75 L-19.4 21.5 -19.65 21.85 Q-20.45 21.65 -20.45 20.75 L-20.4 20.65 -20.0 21.25 -19.85 21.35 -19.75 21.1 Q-20.5 19.6 -19.65 18.05 L-19.45 17.9 -19.45 17.85 -19.4 17.8 -19.25 18.65 -19.5 18.1 -19.6 18.2 Q-20.15 19.1 -19.6 20.15 L-19.6 20.2 -19.0 20.75 -18.95 20.75 M-19.05 19.2 L-18.45 20.25 -18.1 20.9 Q-17.85 20.85 -17.65 21.05 L-18.15 21.55 -18.8 21.5 -18.95 21.0 -18.85 20.75 -18.9 20.7 Q-18.55 19.95 -19.0 19.55 L-19.05 19.2 M-15.6 18.45 L-15.6 18.5 -15.6 18.45 M-14.6 21.75 L-14.45 21.8 -14.35 21.5 Q-14.4 20.3 -13.95 19.2 L-14.0 19.5 -14.1 20.35 Q-14.4 21.9 -13.5 23.25 -14.45 22.6 -14.6 21.75" fill="#b34700" fill-rule="evenodd" stroke="none"/>
      <path d="M21.2 21.5 L21.3 21.5 Q20.8 21.9 20.05 21.95 L21.2 21.5 M21.5 20.4 L21.55 20.45 Q20.95 21.95 19.3 21.65 19.4 21.3 19.8 21.35 L20.25 21.05 20.0 21.0 19.95 21.0 21.45 20.1 21.4 20.3 21.5 20.4 M14.6 8.35 Q15.7 8.7 16.2 9.7 L16.55 11.25 16.25 10.9 Q16.0 9.9 15.25 9.15 L15.15 9.05 15.8 9.3 15.8 9.25 Q15.45 8.55 14.6 8.45 L14.55 8.45 14.85 8.85 13.8 8.5 14.25 8.8 14.1 8.9 15.15 9.95 Q15.55 10.8 15.35 11.95 L15.3 11.95 15.0 11.5 14.95 11.85 14.9 11.85 14.7 10.9 14.2 9.9 13.3 8.8 13.35 8.75 13.65 8.95 Q13.4 8.6 13.65 8.4 L13.8 8.5 14.55 8.35 14.6 8.35 M12.0 11.5 L11.75 10.3 Q11.7 9.45 11.3 8.85 11.9 9.45 12.05 10.2 L12.05 10.85 12.0 11.5 M13.8 11.1 L13.6 12.35 Q13.1 11.75 12.85 10.7 L12.8 10.4 12.8 10.85 12.75 11.2 12.7 11.0 12.6 11.25 12.55 11.3 Q12.2 10.55 12.3 9.9 L12.35 9.9 12.15 8.95 Q12.1 8.8 12.2 8.75 L13.55 11.45 13.6 11.4 13.5 10.25 13.65 10.55 13.8 11.0 13.8 11.05 13.8 11.1 M7.75 12.2 L7.75 12.15 7.7 11.9 7.7 11.85 7.35 9.75 Q8.75 11.1 8.65 13.0 8.6 13.8 9.15 14.45 L9.6 15.05 Q8.0 14.35 7.75 12.2 M5.7 9.75 L5.65 9.7 5.3 9.5 5.85 10.0 5.9 10.2 5.85 10.3 Q4.65 9.5 4.15 7.9 L4.25 7.85 5.1 8.85 4.7 8.2 4.75 8.2 6.4 9.7 5.7 9.75 M9.1 9.9 L9.25 10.0 9.35 10.1 10.0 11.45 10.05 11.5 9.75 12.6 9.65 12.55 9.05 9.95 9.1 9.9 M2.85 8.6 L3.3 9.0 3.35 9.05 Q3.65 9.45 4.1 9.3 L4.35 9.85 4.35 10.0 3.25 9.55 3.6 9.6 3.65 9.55 2.3 8.55 2.05 8.1 2.85 8.6 M1.65 8.2 L1.5 8.15 1.55 8.1 1.65 8.2 M2.3 9.25 L3.05 9.5 4.5 10.45 4.5 10.5 Q3.2 10.2 2.3 9.25 M1.8 9.65 L1.85 9.7 1.8 9.7 1.7 9.65 1.8 9.65 M10.45 18.25 L10.45 18.3 10.5 18.3 10.55 18.9 10.6 19.0 Q10.55 18.6 10.95 18.65 L11.1 19.05 10.95 19.4 10.8 19.8 Q10.7 20.0 10.9 20.2 L11.55 20.85 11.65 21.5 Q10.65 21.05 10.45 19.85 L10.5 21.45 10.35 21.7 Q9.7 20.9 9.4 19.55 L9.35 19.2 9.35 19.05 9.35 18.95 9.45 18.4 9.6 18.1 9.6 18.05 10.3 17.45 10.05 19.1 10.05 19.7 Q10.0 19.0 10.25 18.35 10.25 18.2 10.4 18.2 L10.45 18.25 M18.5 13.15 L18.65 13.35 19.45 14.8 19.2 15.6 19.2 15.65 19.1 15.45 18.5 13.15 M15.25 15.1 L15.35 15.25 15.45 15.35 15.5 15.5 16.25 16.8 16.55 17.7 16.55 17.75 16.3 19.0 16.2 19.0 Q16.15 18.8 16.1 19.05 L15.95 19.2 15.75 18.9 15.55 18.1 15.55 18.05 15.5 17.35 15.5 17.3 15.5 17.2 Q15.55 16.15 15.1 15.3 15.0 15.1 15.25 15.1 M17.0 14.2 Q17.7 14.55 18.1 15.15 18.6 16.0 18.5 17.2 L18.45 17.25 18.05 17.25 Q17.9 16.15 17.3 15.15 L17.05 14.8 17.1 14.65 17.2 14.55 16.95 14.25 17.0 14.2 M-9.65 9.5 L-8.7 8.6 Q-9.25 9.85 -10.45 10.75 L-10.95 10.65 Q-11.05 11.2 -11.5 11.45 L-11.55 11.25 -10.65 9.3 -10.65 9.35 -9.6 8.05 Q-9.55 8.45 -9.8 8.9 L-9.8 8.95 -9.6 9.15 -9.6 9.2 -9.85 9.55 -10.1 9.9 -9.8 9.6 -9.65 9.5 M-11.6 10.15 Q-11.55 9.2 -10.9 8.2 L-9.95 7.2 -10.0 7.65 Q-11.2 8.75 -11.6 10.15 M-0.85 8.15 L-0.75 8.15 -0.6 8.1 0.5 8.8 -0.85 8.15 M-17.4 13.45 Q-17.45 12.95 -17.0 12.3 L-16.05 11.45 Q-15.85 11.7 -16.15 12.0 L-15.7 11.85 -15.65 11.85 Q-15.7 13.4 -16.45 14.7 L-16.3 13.45 -15.95 12.5 Q-16.55 13.3 -16.8 14.3 L-16.8 14.4 -16.9 14.75 Q-17.2 14.55 -17.1 14.05 L-17.25 13.85 -17.05 13.15 -16.45 12.2 -16.6 12.35 -17.4 13.45 M-11.45 6.7 L-11.15 6.4 -11.1 6.35 -10.75 6.5 -10.7 6.55 -11.4 8.15 -11.4 8.2 -11.6 8.4 -11.7 8.45 -12.35 9.3 -12.4 8.95 -12.3 8.95 -12.25 8.9 -11.3 6.65 -11.45 6.7 M-13.75 12.9 L-13.65 13.2 -13.65 13.05 -13.5 12.9 -13.4 12.85 -13.35 13.15 -13.35 11.8 Q-13.95 11.85 -14.05 12.55 -14.2 13.4 -14.0 14.05 L-13.8 12.9 -13.75 12.9 M-13.35 13.15 L-13.35 13.45 -13.15 14.5 -13.35 13.45 -13.35 13.15 M-14.15 12.8 L-14.25 13.7 -14.15 14.5 -14.4 14.25 Q-14.5 14.7 -14.85 14.75 L-14.95 13.8 -14.6 12.45 -14.15 12.8 M-14.0 14.05 L-13.9 14.35 -13.0 15.2 -13.15 14.5 -13.5 13.9 -13.45 14.8 -13.5 14.85 -13.9 14.35 -13.5 14.85 -13.45 14.8 -13.5 13.9 -13.15 14.5 -13.0 15.2 -13.9 14.35 -14.0 14.05 M-13.5 19.8 L-14.1 20.35 -14.0 19.5 -13.95 19.2 Q-14.4 20.3 -14.35 21.5 L-14.45 21.8 -14.6 21.75 -14.6 21.2 -14.5 20.5 -14.4 20.25 -14.45 20.1 Q-15.1 20.45 -15.05 21.25 -15.3 20.75 -15.1 19.9 -14.85 18.75 -14.25 18.3 L-14.2 18.95 -13.95 18.1 -13.75 18.0 Q-13.8 18.4 -13.45 17.7 L-13.3 17.6 Q-12.95 17.9 -13.3 18.6 L-12.75 17.95 -12.7 18.0 -13.5 19.8 M-15.4 18.25 L-15.15 18.3 Q-15.65 20.0 -15.2 21.75 L-15.25 21.8 Q-16.35 19.85 -15.4 18.25 M-19.6 20.15 Q-20.15 19.1 -19.6 18.2 L-19.5 18.1 -19.25 18.65 -19.1 19.15 -19.05 19.2 -19.0 19.55 -19.4 19.3 -19.4 19.35 Q-19.7 19.8 -19.6 20.15" fill="#ff9520" fill-rule="evenodd" stroke="none"/>
      <path d="M15.15 9.05 L15.1 9.0 14.95 8.9 14.85 8.8 14.85 8.85 14.55 8.45 14.6 8.45 Q15.45 8.55 15.8 9.25 L15.8 9.3 15.15 9.05 M11.85 8.1 L11.45 7.3 11.5 7.25 12.05 7.7 12.0 7.65 12.0 7.6 Q12.95 8.55 13.35 9.65 L13.4 9.7 13.4 9.8 13.3 9.75 13.5 10.15 13.5 10.2 13.5 10.25 13.6 11.4 13.55 11.45 12.2 8.75 11.9 8.2 11.95 8.2 11.85 8.1 M10.2 6.95 Q9.5 6.7 9.3 5.95 L9.8 6.0 9.9 6.05 10.2 6.95 M11.75 10.3 L11.7 10.7 11.65 10.8 9.45 8.55 Q8.55 8.45 8.05 8.0 L7.15 7.45 7.65 7.55 7.65 7.5 8.05 7.65 8.9 7.85 Q9.05 7.55 9.4 7.6 10.75 8.0 11.3 8.85 11.7 9.45 11.75 10.3 M9.15 11.65 L9.15 11.15 9.5 11.8 9.5 11.9 9.15 11.65 M4.1 9.3 Q3.65 9.45 3.35 9.05 L3.3 9.0 2.85 8.6 2.4 7.9 3.25 8.4 3.3 8.45 3.35 8.5 3.4 8.55 3.3 8.4 3.6 8.55 4.15 9.15 4.15 9.2 4.1 9.2 4.1 9.25 4.1 9.3 M2.3 8.55 L3.65 9.55 3.6 9.6 3.25 9.55 3.05 9.5 2.3 9.25 Q1.3 8.8 0.5 7.8 L0.5 7.7 Q1.0 7.9 1.5 8.15 L1.65 8.2 2.3 8.55 M1.3 9.15 L1.3 9.25 1.5 9.4 1.7 9.55 1.85 9.65 1.8 9.65 1.7 9.65 1.8 9.7 1.85 9.75 1.85 9.8 0.55 9.6 -0.7 9.1 -2.1 7.95 -1.95 7.95 -2.3 7.65 -2.35 7.45 -0.85 8.15 0.5 8.8 1.3 9.15 M19.25 17.85 L19.25 17.8 Q19.85 18.1 19.6 19.1 L19.1 19.45 19.0 19.5 Q18.8 18.65 19.25 17.85 M13.6 14.3 L13.9 14.75 14.2 15.25 14.45 15.75 14.45 15.7 14.55 15.95 14.55 16.0 14.6 16.1 14.65 16.2 14.7 16.4 14.7 16.55 Q13.75 15.75 13.5 14.25 L13.55 14.25 13.6 14.3 M12.4 17.4 L12.3 17.5 Q11.65 17.25 12.15 16.6 L12.2 16.6 12.3 16.65 12.4 17.4 M13.35 18.45 L12.65 19.15 12.55 19.2 13.2 16.35 13.25 16.35 Q13.6 17.35 13.35 18.45 M-11.55 11.25 L-11.8 11.85 -11.85 11.9 Q-11.9 10.95 -11.6 10.15 -11.2 8.75 -10.0 7.65 L-9.45 7.2 -9.8 7.75 -9.85 7.8 -9.95 8.0 -10.2 8.45 -10.3 8.7 -10.35 8.75 -10.4 8.85 -10.65 9.3 -11.55 11.25 M-12.0 6.95 L-11.45 6.7 -11.3 6.65 -12.25 8.9 -12.3 8.95 -12.4 8.95 -12.9 8.7 Q-12.65 7.8 -12.0 6.95 M-11.8 19.25 L-12.65 20.15 Q-13.25 20.9 -13.05 21.55 -13.25 21.8 -12.85 22.05 -12.35 22.4 -12.65 22.85 L-13.35 22.25 -13.4 22.15 Q-13.85 20.95 -12.75 20.05 L-12.7 20.05 Q-12.15 19.2 -11.9 18.25 -12.35 19.3 -13.1 20.1 L-12.6 19.45 -13.25 20.1 -13.3 20.15 Q-12.7 19.3 -12.4 18.3 -11.95 17.8 -11.75 17.15 L-11.65 17.0 Q-11.5 17.85 -11.65 18.65 L-11.75 18.95 -11.8 19.25 M-18.45 17.95 L-18.5 17.85 Q-18.7 16.8 -17.55 16.0 -17.3 15.95 -17.15 16.15 L-17.1 16.2 -17.1 16.25 -17.1 16.5 -17.1 16.55 -17.3 17.3 -17.85 18.55 -18.05 18.65 -18.15 18.5 -18.15 18.3 -17.6 16.7 -17.5 16.35 -17.4 16.25 Q-18.3 16.85 -18.45 17.95 M-18.95 20.75 L-19.0 20.75 -19.6 20.2 -19.6 20.15 Q-19.7 19.8 -19.4 19.35 L-19.4 19.3 -19.0 19.55 Q-18.55 19.95 -18.9 20.7 L-18.95 20.65 -18.95 20.75 M-18.1 22.5 L-17.65 22.1 -17.1 21.8 -18.35 22.9 -18.4 22.85 -18.1 22.5" fill="#f0861a" fill-rule="evenodd" stroke="none"/>
      <path d="M9.1 0.8 Q9.95 2.2 8.65 3.25 L8.3 3.1 Q7.9 2.05 8.15 1.25 L8.2 1.25 8.5 0.6 8.75 0.3 9.1 0.8 M-4.8 3.0 L-5.35 3.05 -6.45 3.05 -7.75 2.45 -9.05 0.8 -9.0 0.75 -9.15 0.55 -9.0 0.35 -8.85 0.3 Q-6.45 1.2 -4.6 2.7 -4.4 2.9 -4.7 2.95 L-4.8 3.0 M-9.8 3.6 Q-10.5 2.1 -9.7 1.15 -8.45 2.5 -9.55 3.7 -9.65 3.8 -9.8 3.6" fill="#606060" fill-rule="evenodd" stroke="none"/>
      <path d="M3.8 2.25 L3.5 3.25 3.55 3.25 3.4 3.5 4.1 4.25 Q5.2 3.95 5.15 5.05 L5.05 5.15 4.35 5.45 4.05 6.1 Q2.8 6.5 3.15 5.2 L2.2 4.2 1.85 4.3 1.85 4.65 1.4 5.15 0.25 5.0 0.15 5.0 0.1 5.0 0.05 5.0 0.0 5.0 -0.05 5.05 -0.1 5.1 -0.2 5.2 -0.25 5.2 -0.55 5.45 -0.35 5.25 -0.4 5.25 -0.85 5.25 -0.9 5.25 -1.15 5.15 -1.5 4.9 -1.6 4.8 -1.7 4.9 -2.0 4.25 -2.95 5.2 Q-2.6 6.5 -3.85 6.1 L-4.1 5.45 -4.85 5.15 -4.9 5.05 Q-5.0 3.95 -3.9 4.25 L-3.15 3.5 -3.35 3.25 -3.3 3.25 -3.35 3.15 -3.5 2.75 -3.6 2.25 -3.6 2.15 -2.5 2.35 -2.3 2.65 Q-1.2 3.65 -0.45 2.5 L1.0 2.45 Q1.75 3.7 2.9 2.7 L3.1 2.4 3.2 2.1 3.85 1.95 3.85 2.0 3.8 2.25" fill="#96c4c7" fill-rule="evenodd" stroke="none"/>
      <path d="M7.9 15.2 Q8.75 15.5 8.45 16.6 8.3 17.25 8.65 17.85 L8.6 18.05 Q6.7 17.05 7.85 15.25 L7.9 15.2 M7.7 17.2 L7.85 17.25 Q8.55 16.35 7.9 15.45 7.1 16.15 7.7 17.2 M-8.8 16.0 Q-8.5 16.95 -9.55 18.05 -9.9 18.4 -10.3 18.3 -9.2 16.9 -9.85 15.15 L-9.7 14.95 -9.5 15.1 -9.6 15.15 -9.45 16.8 Q-9.4 17.0 -9.25 16.9 -8.75 16.45 -8.8 16.0" fill="#ffbe46" fill-rule="evenodd" stroke="none"/>
    </g>
  </defs>
</svg>
