<?xml version="1.0" encoding="UTF-8" standalone="no"?>
<svg xmlns:xlink="http://www.w3.org/1999/xlink" height="92.9px" width="100.7px" xmlns="http://www.w3.org/2000/svg">
  <g transform="matrix(1.0, 0.0, 0.0, 1.0, 38.65, 49.75)">
    <use height="22.35" transform="matrix(1.0, 0.0, 0.0, 1.0, -25.35, -8.15)" width="50.7" xlink:href="#shape0"/>
  </g>
  <defs>
    <g id="shape0" transform="matrix(1.0, 0.0, 0.0, 1.0, 25.35, 8.15)">
      <path d="M10.95 4.05 L12.05 7.1 Q12.95 8.8 14.0 14.05 11.9 10.8 8.45 8.25 L5.9 8.35 Q4.2 8.35 2.55 7.05 2.4 9.25 0.4 9.35 L-0.25 9.3 -0.8 8.95 -1.5 7.65 -1.7 5.85 -1.75 5.85 -2.0 6.05 -3.8 7.35 Q-5.3 8.25 -6.6 8.5 L-7.4 8.65 -7.75 8.7 -9.45 8.65 Q-12.65 10.95 -14.65 14.2 -13.15 9.45 -12.85 7.5 L-10.75 3.65 -9.9 3.65 -9.9 3.7 -9.85 3.65 9.0 3.65 10.95 4.05" fill="#004166" fill-opacity="0.4" fill-rule="evenodd" stroke="none"/>
      <path d="M12.45 -2.6 L12.5 0.3 15.05 -1.45 17.6 -1.5 14.3 2.2 21.55 -1.0 21.2 -0.35 23.1 0.2 22.65 1.3 24.3 2.2 22.85 3.6 23.95 5.05 21.95 5.5 19.3 5.55 16.7 5.6 11.8 4.65 10.4 3.75 10.45 3.9 10.5 4.05 Q12.8 6.9 13.45 12.7 L8.0 6.9 5.45 7.0 Q3.75 7.0 2.1 5.7 1.95 7.9 -0.05 8.0 L-0.7 7.95 -1.25 7.6 Q-1.7 7.2 -1.95 6.3 L-2.15 4.5 -2.2 4.5 -2.45 4.7 -4.25 6.0 Q-5.75 6.9 -7.05 7.15 L-7.85 7.3 -8.2 7.35 -9.9 7.3 -13.9 13.15 Q-12.85 8.05 -11.9 6.1 L-11.55 4.65 -11.75 4.75 -16.7 5.7 -19.2 5.7 -21.9 5.65 -23.95 5.15 -22.85 3.7 -24.3 2.3 -22.65 1.45 -23.05 0.35 -21.2 -0.2 -22.3 -2.5 -22.05 -2.55 -16.1 2.2 -17.85 -2.2 -13.1 0.55 -11.85 0.55 -11.3 -0.8 Q-10.7 0.4 -10.35 2.35 -9.3 1.0 -7.65 0.4 -4.3 -0.9 -2.25 -0.05 L-0.25 -0.25 1.2 -0.2 4.45 -0.5 Q8.55 -0.2 10.2 3.3 L10.5 1.55 Q11.05 -0.7 11.75 -1.75 L12.45 -2.6" fill="#bcd2e9" fill-rule="evenodd" stroke="none"/>
      <path d="M12.45 -2.6 Q13.75 -3.9 16.25 -5.35 L16.3 -5.3 17.9 -7.7 18.15 -4.7 21.45 -5.4 20.0 -3.4 22.3 -2.65 21.55 -1.0 14.3 2.2 17.6 -1.5 15.05 -1.45 12.5 0.3 12.45 -2.6 M-22.05 -2.55 L-20.0 -3.3 -21.4 -5.3 -18.15 -4.6 -17.9 -7.55 -16.25 -5.2 -14.4 -4.05 Q-12.45 -2.65 -11.75 -1.6 L-11.3 -0.8 -11.85 0.55 -13.1 0.55 -17.85 -2.2 -16.1 2.2 -22.05 -2.55" fill="#ffffff" fill-rule="evenodd" stroke="none"/>
      <path d="M-2.15 4.5 L-2.45 4.7 -2.2 4.5 -2.15 4.5" fill="#b04d2f" fill-rule="evenodd" stroke="none"/>
      <path d="M10.35 2.25 L10.7 0.7 Q11.2 -1.05 12.0 -2.0 13.25 -3.5 18.1 -7.65 L18.0 -4.5 21.1 -5.15 20.45 -3.65 22.3 -2.65 21.2 -0.35 23.75 0.2 22.65 1.3 24.85 2.5 22.85 3.6 24.85 5.15 16.25 5.85 13.05 5.2 11.8 4.65" fill="none" stroke="#6699cc" stroke-linecap="round" stroke-linejoin="round" stroke-width="1.0"/>
      <path d="M-10.35 2.05 Q-6.2 -1.55 -1.1 -0.05 L0.0 0.4 Q4.55 -2.15 8.55 1.0 L10.05 2.2" fill="none" stroke="#6699cc" stroke-linecap="round" stroke-linejoin="round" stroke-width="1.0"/>
      <path d="M7.7 6.55 L13.45 12.7 11.35 5.35" fill="none" stroke="#6699cc" stroke-linecap="round" stroke-linejoin="round" stroke-width="1.0"/>
      <path d="M-9.85 7.2 L-13.85 12.7 -11.7 5.3" fill="none" stroke="#6699cc" stroke-linecap="round" stroke-linejoin="round" stroke-width="1.0"/>
      <path d="M-10.35 2.4 Q-10.75 -0.35 -12.0 -1.85 L-18.1 -7.55 -18.0 -4.35 -21.1 -5.05 -20.45 -3.5 -22.3 -2.5 -21.2 -0.2 -23.75 0.35 -22.65 1.45 -24.85 2.65 -22.85 3.7 -24.85 5.3 -16.25 5.95 Q-13.65 5.9 -11.75 4.75" fill="none" stroke="#6699cc" stroke-linecap="round" stroke-linejoin="round" stroke-width="1.0"/>
      <path d="M12.35 2.35 L12.9 4.25 Q13.25 6.35 11.25 5.6 10.6 5.35 10.4 4.65 L10.05 3.55 12.35 2.35 M9.6 2.3 L9.1 1.15 Q8.85 0.5 9.45 0.05 L10.15 -0.2 11.65 1.15 10.75 1.65 9.65 2.45 9.6 2.3 M-10.2 3.95 L-11.15 5.35 Q-11.7 6.25 -12.55 5.6 -13.65 4.7 -13.0 3.4 L-12.55 2.6 -10.2 3.95 M-11.45 1.25 Q-10.85 0.6 -10.1 0.2 -8.55 0.9 -8.95 2.1 L-11.45 1.25" fill="#ff3399" fill-rule="evenodd" stroke="none"/>
      <path d="M10.05 3.55 L9.65 2.45 9.55 2.3 9.6 2.3 9.65 2.45 10.75 1.65 11.65 1.15 12.35 2.35 10.05 3.55 M-8.95 2.1 L-9.65 3.25 -10.2 3.95 -12.55 2.6 Q-12.1 1.8 -11.45 1.25 L-8.95 2.1" fill="#ff8ac5" fill-rule="evenodd" stroke="none"/>
      <path d="M-10.8 0.65 L-10.1 0.2 Q-9.2 0.6 -8.95 1.2 M-11.7 5.85 L-12.55 5.6 -13.0 5.1" fill="none" stroke="#d5006a" stroke-linecap="round" stroke-linejoin="round" stroke-width="1.0"/>
      <path d="M9.35 1.75 L9.1 1.15 Q8.85 0.5 9.45 0.05 L10.15 -0.2 10.7 0.2 10.9 0.4 M12.9 5.25 Q12.65 6.15 11.25 5.6" fill="none" stroke="#d5006a" stroke-linecap="round" stroke-linejoin="round" stroke-width="1.0"/>
      <path d="M7.85 6.15 L7.35 6.65 Q6.15 6.95 3.8 6.1 L1.65 5.15 Q0.95 8.15 -0.55 7.95 L-0.7 7.95 -1.25 7.6 Q-1.6 7.2 -1.75 6.4 L-1.85 4.95 -2.1 5.05 -4.25 6.0 Q-8.35 7.65 -9.35 7.15 -9.65 7.0 -9.55 6.6" fill="none" stroke="#6699cc" stroke-linecap="round" stroke-linejoin="round" stroke-width="1.0"/>
      <path d="M4.3 0.65 L6.15 2.85 7.2 4.3 Q7.95 5.55 7.85 6.15 M-9.55 6.6 Q-9.5 6.05 -8.75 5.05 L-8.25 4.45 -7.95 4.05 -7.4 3.4 -7.15 3.15 -5.55 1.45" fill="none" stroke="#7ba7d2" stroke-linecap="round" stroke-linejoin="round" stroke-width="1.0"/>
    </g>
  </defs>
</svg>
