<?xml version="1.0" encoding="UTF-8" standalone="no"?>
<svg xmlns:xlink="http://www.w3.org/1999/xlink" height="92.9px" width="100.7px" xmlns="http://www.w3.org/2000/svg">
  <g transform="matrix(1.0, 0.0, 0.0, 1.0, 38.65, 49.75)">
    <use height="17.8" transform="matrix(1.0, 0.0, 0.0, 1.0, -19.25, -14.9)" width="38.5" xlink:href="#sprite0"/>
  </g>
  <defs>
    <g id="sprite0" transform="matrix(1.0, 0.0, 0.0, 1.0, 19.25, 8.9)">
      <use height="17.8" transform="matrix(1.0, 0.0, 0.0, 1.0, -19.25, -8.9)" width="38.5" xlink:href="#sprite1"/>
      <use height="8.8" transform="matrix(1.0, 0.0, 0.0, 1.0, -14.5, -4.4)" width="29.0" xlink:href="#shape1"/>
    </g>
    <g id="sprite1" transform="matrix(1.0, 0.0, 0.0, 1.0, 0.0, 0.0)">
      <use height="17.8" transform="matrix(1.0, 0.0, 0.0, 1.0, 0.0, 0.0)" width="38.5" xlink:href="#shape0"/>
    </g>
    <g id="shape0" transform="matrix(1.0, 0.0, 0.0, 1.0, 0.0, 0.0)">
      <path d="M33.75 8.95 L33.75 8.9 Q33.95 6.8 29.05 5.55 25.0 4.5 19.25 4.5 13.5 4.5 9.45 5.55 4.55 6.8 4.75 8.9 L4.75 8.95 Q4.55 11.0 9.45 12.25 13.5 13.3 19.25 13.3 25.0 13.3 29.05 12.25 33.95 11.0 33.75 8.95 M34.25 8.9 Q34.6 11.4 29.2 12.75 25.05 13.8 19.25 13.8 13.45 13.8 9.35 12.75 3.9 11.4 4.25 8.9 3.9 6.4 9.35 5.05 13.45 4.0 19.25 4.0 25.05 4.0 29.2 5.05 34.6 6.4 34.25 8.9 M28.45 7.95 Q24.65 7.0 19.25 7.0 13.85 7.0 10.1 7.95 7.8 8.5 7.35 8.9 7.8 9.3 10.1 9.85 13.85 10.8 19.25 10.8 24.65 10.8 28.45 9.85 30.7 9.3 31.15 8.9 30.7 8.5 28.45 7.95 M28.55 7.45 Q31.45 8.2 31.75 8.9 31.45 9.6 28.55 10.35 24.7 11.3 19.25 11.3 L9.95 10.35 Q7.05 9.6 6.8 8.9 7.05 8.2 9.95 7.45 13.8 6.5 19.25 6.5 24.7 6.5 28.55 7.45" fill="#ffff99" fill-opacity="0.44705883" fill-rule="evenodd" stroke="none"/>
      <path d="M29.9 2.15 Q38.35 4.3 37.35 8.9 38.35 13.5 29.9 15.65 L29.95 15.65 Q25.5 16.8 19.25 16.8 13.0 16.8 8.6 15.65 0.15 13.5 1.2 8.9 0.15 4.3 8.6 2.15 13.0 1.0 19.25 1.0 25.5 1.0 29.95 2.15 L29.9 2.15 M29.8 15.2 Q37.75 13.15 36.8 8.9 37.75 4.65 29.8 2.65 25.45 1.5 19.25 1.5 13.05 1.5 8.7 2.65 L8.75 2.65 Q0.75 4.65 1.7 8.9 0.75 13.15 8.75 15.2 L8.7 15.2 Q13.05 16.3 19.25 16.3 25.4 16.3 29.8 15.2" fill="#ffff99" fill-opacity="0.14509805" fill-rule="evenodd" stroke="none"/>
      <path d="M29.7 14.7 L29.65 14.7 Q37.1 12.8 36.3 8.9 37.1 5.0 29.65 3.15 25.35 2.0 19.25 2.0 13.15 2.0 8.85 3.15 1.4 5.0 2.2 8.9 1.4 12.8 8.85 14.7 13.15 15.8 19.25 15.8 25.35 15.8 29.7 14.7 M29.8 15.2 Q25.4 16.3 19.25 16.3 13.05 16.3 8.7 15.2 L8.75 15.2 Q0.75 13.15 1.7 8.9 0.75 4.65 8.75 2.65 L8.7 2.65 Q13.05 1.5 19.25 1.5 25.45 1.5 29.8 2.65 37.75 4.65 36.8 8.9 37.75 13.15 29.8 15.2" fill="#ffff99" fill-opacity="0.19607843" fill-rule="evenodd" stroke="none"/>
      <path d="M29.9 2.15 L29.95 2.15 Q25.5 1.0 19.25 1.0 13.0 1.0 8.6 2.15 0.15 4.3 1.2 8.9 0.15 13.5 8.6 15.65 13.0 16.8 19.25 16.8 25.5 16.8 29.95 15.65 L29.9 15.65 Q38.35 13.5 37.35 8.9 38.35 4.3 29.9 2.15 M30.05 1.65 Q39.0 3.9 37.85 8.9 39.0 13.9 30.05 16.15 25.55 17.3 19.25 17.3 12.95 17.3 8.5 16.15 -0.5 13.9 0.7 8.9 -0.5 3.9 8.5 1.65 L8.5 1.7 Q12.95 0.5 19.25 0.5 25.55 0.5 30.05 1.7 L30.05 1.65" fill="#ffff99" fill-opacity="0.09803922" fill-rule="evenodd" stroke="none"/>
      <path d="M30.05 1.65 L30.05 1.7 Q25.55 0.5 19.25 0.5 12.95 0.5 8.5 1.7 L8.5 1.65 Q-0.5 3.9 0.7 8.9 -0.5 13.9 8.5 16.15 12.95 17.3 19.25 17.3 25.55 17.3 30.05 16.15 39.0 13.9 37.85 8.9 39.0 3.9 30.05 1.65 M30.15 16.65 Q25.65 17.8 19.25 17.8 12.85 17.8 8.35 16.65 -1.15 14.25 0.15 8.9 -1.15 3.55 8.35 1.2 12.85 0.0 19.25 0.0 25.65 0.0 30.15 1.2 39.65 3.55 38.35 8.9 39.65 14.25 30.15 16.65" fill="#ffff99" fill-opacity="0.047058824" fill-rule="evenodd" stroke="none"/>
      <path d="M29.7 14.7 Q25.35 15.8 19.25 15.8 13.15 15.8 8.85 14.7 1.4 12.8 2.2 8.9 1.4 5.0 8.85 3.15 13.15 2.0 19.25 2.0 25.35 2.0 29.65 3.15 37.1 5.0 36.3 8.9 37.1 12.8 29.65 14.7 L29.7 14.7 M19.25 9.3 L13.05 8.9 19.25 8.5 25.5 8.9 19.25 9.3 M35.8 8.9 Q36.45 5.35 29.55 3.6 25.3 2.5 19.25 2.5 13.2 2.5 8.95 3.6 2.05 5.35 2.75 8.9 2.05 12.45 9.0 14.2 L8.95 14.2 Q13.2 15.3 19.25 15.3 25.25 15.3 29.55 14.2 36.45 12.45 35.8 8.9" fill="#ffff99" fill-opacity="0.24705882" fill-rule="evenodd" stroke="none"/>
      <path d="M35.3 8.9 Q35.85 5.7 29.45 4.1 25.2 3.0 19.25 3.0 13.3 3.0 9.1 4.1 2.65 5.7 3.25 8.9 2.65 12.1 9.1 13.75 13.3 14.8 19.25 14.8 L29.45 13.75 Q35.85 12.1 35.3 8.9 M35.8 8.9 Q36.45 12.45 29.55 14.2 25.25 15.3 19.25 15.3 13.2 15.3 8.95 14.2 L9.0 14.2 Q2.05 12.45 2.75 8.9 2.05 5.35 8.95 3.6 13.2 2.5 19.25 2.5 25.3 2.5 29.55 3.6 36.45 5.35 35.8 8.9 M19.25 9.3 L25.5 8.9 19.25 8.5 13.05 8.9 19.25 9.3 M10.45 8.9 Q14.1 8.0 19.25 8.0 24.4 8.0 28.1 8.9 L19.25 9.8 10.45 8.9" fill="#ffff99" fill-opacity="0.29803923" fill-rule="evenodd" stroke="none"/>
      <path d="M30.2 8.9 L28.3 9.4 19.25 10.3 10.2 9.4 8.35 8.9 10.2 8.45 Q13.95 7.5 19.25 7.5 24.55 7.5 28.3 8.45 L30.2 8.9 M34.8 8.9 Q35.2 6.05 29.3 4.6 25.15 3.5 19.25 3.5 13.35 3.5 9.2 4.6 3.3 6.05 3.75 8.9 3.3 11.75 9.2 13.25 13.35 14.3 19.25 14.3 25.15 14.3 29.3 13.25 35.2 11.75 34.8 8.9 M35.3 8.9 Q35.85 12.1 29.45 13.75 L19.25 14.8 Q13.3 14.8 9.1 13.75 2.65 12.1 3.25 8.9 2.65 5.7 9.1 4.1 13.3 3.0 19.25 3.0 25.2 3.0 29.45 4.1 35.85 5.7 35.3 8.9 M10.45 8.9 L19.25 9.8 28.1 8.9 Q24.4 8.0 19.25 8.0 14.1 8.0 10.45 8.9" fill="#ffff99" fill-opacity="0.34901962" fill-rule="evenodd" stroke="none"/>
      <path d="M30.2 8.9 L28.3 8.45 Q24.55 7.5 19.25 7.5 13.95 7.5 10.2 8.45 L8.35 8.9 10.2 9.4 19.25 10.3 28.3 9.4 30.2 8.9 M34.25 8.9 Q34.6 6.4 29.2 5.05 25.05 4.0 19.25 4.0 13.45 4.0 9.35 5.05 3.9 6.4 4.25 8.9 3.9 11.4 9.35 12.75 13.45 13.8 19.25 13.8 25.05 13.8 29.2 12.75 34.6 11.4 34.25 8.9 M34.8 8.9 Q35.2 11.75 29.3 13.25 25.15 14.3 19.25 14.3 13.35 14.3 9.2 13.25 3.3 11.75 3.75 8.9 3.3 6.05 9.2 4.6 13.35 3.5 19.25 3.5 25.15 3.5 29.3 4.6 35.2 6.05 34.8 8.9 M28.45 7.95 Q30.7 8.5 31.15 8.9 30.7 9.3 28.45 9.85 24.65 10.8 19.25 10.8 13.85 10.8 10.1 9.85 7.8 9.3 7.35 8.9 7.8 8.5 10.1 7.95 13.85 7.0 19.25 7.0 24.65 7.0 28.45 7.95" fill="#ffff99" fill-opacity="0.39607844" fill-rule="evenodd" stroke="none"/>
    </g>
    <g id="shape1" transform="matrix(1.0, 0.0, 0.0, 1.0, 14.5, 4.4)">
      <path d="M0.0 -2.4 Q-5.45 -2.4 -9.3 -1.45 -12.2 -0.7 -12.45 0.0 -12.2 0.7 -9.3 1.45 -5.45 2.4 0.0 2.4 5.45 2.4 9.3 1.45 12.2 0.7 12.5 0.0 12.2 -0.7 9.3 -1.45 5.45 -2.4 0.0 -2.4 M9.8 -3.35 Q14.7 -2.1 14.5 0.0 L14.5 0.05 Q14.7 2.1 9.8 3.35 5.75 4.4 0.0 4.4 -5.75 4.4 -9.8 3.35 -14.7 2.1 -14.5 0.05 L-14.5 0.0 Q-14.7 -2.1 -9.8 -3.35 -5.75 -4.4 0.0 -4.4 5.75 -4.4 9.8 -3.35" fill="#ffff99" fill-rule="evenodd" stroke="none"/>
    </g>
  </defs>
</svg>
