<?xml version="1.0" encoding="UTF-8" standalone="no"?>
<svg xmlns:xlink="http://www.w3.org/1999/xlink" height="92.9px" width="100.7px" xmlns="http://www.w3.org/2000/svg">
  <g transform="matrix(1.0, 0.0, 0.0, 1.0, 38.65, 49.75)">
    <use height="4.0" transform="matrix(1.0, 0.0, 0.0, 1.0, -15.4, 8.75)" width="4.0" xlink:href="#sprite0"/>
    <use height="4.0" transform="matrix(1.0, 0.0, 0.0, 1.0, 10.9, 8.95)" width="4.0" xlink:href="#sprite0"/>
    <use height="21.95" transform="matrix(1.0, 0.0, 0.0, 1.0, -14.25, -14.45)" width="26.95" xlink:href="#shape1"/>
    <use height="4.0" transform="matrix(1.0, 0.0, 0.0, 1.0, 9.4, -0.35)" width="4.0" xlink:href="#sprite0"/>
    <use height="17.25" transform="matrix(1.0, 0.0, 0.0, 1.0, 4.15, -14.0)" width="11.75" xlink:href="#shape2"/>
    <use height="4.0" transform="matrix(1.0, 0.0, 0.0, 1.0, 7.65, 0.9)" width="4.0" xlink:href="#sprite0"/>
    <use height="4.0" transform="matrix(1.0, 0.0, 0.0, 1.0, 5.0, 1.55)" width="4.0" xlink:href="#sprite0"/>
    <use height="4.0" transform="matrix(1.0, 0.0, 0.0, 1.0, -15.25, -4.6)" width="4.0" xlink:href="#sprite0"/>
    <use height="4.0" transform="matrix(1.0, 0.0, 0.0, 1.0, -13.9, -3.35)" width="4.0" xlink:href="#sprite0"/>
    <use height="4.0" transform="matrix(1.0, 0.0, 0.0, 1.0, -12.25, -2.5)" width="4.0" xlink:href="#sprite0"/>
    <use height="4.0" transform="matrix(1.0, 0.0, 0.0, 1.0, -10.25, -1.25)" width="4.0" xlink:href="#sprite0"/>
    <use height="4.0" transform="matrix(1.0, 0.0, 0.0, 1.0, -8.0, -0.35)" width="4.0" xlink:href="#sprite0"/>
    <use height="4.0" transform="matrix(1.0, 0.0, 0.0, 1.0, -5.75, 0.95)" width="4.0" xlink:href="#sprite0"/>
    <use height="4.0" transform="matrix(1.728, 0.0, 0.0, 1.728, -4.114, 0.086)" width="4.0" xlink:href="#sprite0"/>
    <use height="4.0" transform="matrix(1.0, 0.0, 0.0, 1.0, 2.75, 1.75)" width="4.0" xlink:href="#sprite0"/>
    <use height="4.0" transform="matrix(1.0, 0.0, 0.0, 1.0, 0.3, 2.15)" width="4.0" xlink:href="#sprite0"/>
  </g>
  <defs>
    <g id="sprite0" transform="matrix(1.0, 0.0, 0.0, 1.0, 0.5, 0.5)">
      <use height="4.0" transform="matrix(1.0, 0.0, 0.0, 1.0, -0.5, -0.5)" width="4.0" xlink:href="#shape0"/>
    </g>
    <g id="shape0" transform="matrix(1.0, 0.0, 0.0, 1.0, 0.5, 0.5)">
      <path d="M0.8 1.55 Q0.2 0.8 1.15 0.5 2.3 1.0 1.25 1.65 1.0 1.8 0.8 1.55" fill="#ffffff" fill-rule="evenodd" stroke="none"/>
      <path d="M2.55 2.55 L2.3 2.75 1.5 3.0 Q0.9 3.0 0.45 2.55 0.0 2.1 0.0 1.5 0.0 0.9 0.45 0.45 0.9 0.0 1.5 0.0 L2.3 0.25 2.55 0.45 Q3.0 0.9 3.0 1.5 3.0 2.1 2.55 2.55 M0.8 1.55 Q1.0 1.8 1.25 1.65 2.3 1.0 1.15 0.5 0.2 0.8 0.8 1.55" fill="#cccccc" fill-rule="evenodd" stroke="none"/>
      <path d="M2.55 2.55 L2.3 2.75 1.5 3.0 Q0.9 3.0 0.45 2.55 0.0 2.1 0.0 1.5 0.0 0.9 0.45 0.45 0.9 0.0 1.5 0.0 L2.3 0.25 2.55 0.45 Q3.0 0.9 3.0 1.5 3.0 2.1 2.55 2.55 Z" fill="none" stroke="#999999" stroke-linecap="round" stroke-linejoin="round" stroke-width="1.0"/>
    </g>
    <g id="shape1" transform="matrix(1.0, 0.0, 0.0, 1.0, 14.25, 14.45)">
      <path d="M8.95 -11.8 Q8.0 -9.95 6.5 -8.5 L3.05 -5.95 1.1 -6.95 Q-2.8 -9.05 -5.95 -12.5 -1.4 -14.55 3.6 -13.75 6.3 -13.2 8.95 -11.8 M-2.0 -4.05 L-3.2 -3.85 Q-8.9 -2.8 -13.75 -5.4 -12.75 -8.05 -9.95 -10.15 -7.75 -6.8 -4.05 -4.9 L-2.0 -4.05 M-12.05 2.15 Q0.15 1.8 10.9 -9.65 2.7 3.45 -10.15 4.95 L-10.7 4.25 -12.05 2.15" fill="#ffffff" fill-rule="evenodd" stroke="none"/>
      <path d="M3.05 -5.95 Q0.65 -4.6 -2.0 -4.05 L-4.05 -4.9 Q-7.75 -6.8 -9.95 -10.15 L-7.35 -11.85 -5.95 -12.5 Q-2.8 -9.05 1.1 -6.95 L3.05 -5.95 M10.9 -9.65 Q11.55 -8.7 12.0 -6.65 12.45 -4.65 11.9 -1.45 11.35 1.7 8.35 4.1 5.35 6.5 -0.15 6.95 -5.25 7.2 -9.95 5.2 L-10.15 4.95 Q2.7 3.45 10.9 -9.65" fill="#c5e4f5" fill-rule="evenodd" stroke="none"/>
      <path d="M3.05 -5.95 L6.5 -8.5 Q8.0 -9.95 8.95 -11.8 L10.9 -9.65 Q0.15 1.8 -12.05 2.15 -13.85 -1.3 -13.75 -5.4 -8.9 -2.8 -3.2 -3.85 L-2.0 -4.05 Q0.65 -4.6 3.05 -5.95" fill="#9ad2ef" fill-rule="evenodd" stroke="none"/>
      <path d="M-13.75 -5.4 Q-13.85 -1.3 -12.05 2.15 L-10.7 4.25 -10.15 4.95 -9.95 5.2 Q-5.25 7.2 -0.15 6.95 5.35 6.5 8.35 4.1 11.35 1.7 11.9 -1.45 12.45 -4.65 12.0 -6.65 11.55 -8.7 10.9 -9.65 L8.95 -11.8 Q6.3 -13.2 3.6 -13.75 -1.4 -14.55 -5.95 -12.5 L-7.35 -11.85 -9.95 -10.15 Q-12.75 -8.05 -13.75 -5.4 Z" fill="none" stroke="#5c93e6" stroke-linecap="round" stroke-linejoin="round" stroke-width="1.0"/>
    </g>
    <g id="shape2" transform="matrix(1.0, 0.0, 0.0, 1.0, -4.15, 14.0)">
      <path d="M7.8 -8.65 L7.8 -8.7 8.15 -10.35 Q8.4 -11.8 10.2 -13.5 L12.3 -13.2 12.55 -12.6 Q13.15 -10.85 12.9 -7.7 12.75 -4.8 12.05 -2.05 11.4 0.6 9.5 2.7 8.25 2.9 6.75 1.8 7.65 -0.6 8.05 -3.0 8.5 -5.8 7.8 -8.65" fill="#ff3399" fill-rule="evenodd" stroke="none"/>
      <path d="M7.8 -8.65 Q8.5 -5.8 8.05 -3.0 7.65 -0.6 6.75 1.8 5.75 0.45 5.3 -1.05 4.55 -3.55 4.7 -6.2 4.8 -8.9 6.8 -10.9 L7.75 -8.65 7.8 -8.65 M9.5 2.7 Q11.4 0.6 12.05 -2.05 12.75 -4.8 12.9 -7.7 L14.4 -9.7 15.05 -10.05 15.4 -9.3 15.3 -8.5 14.05 -3.25 Q13.25 -0.65 11.4 1.5 10.5 2.5 9.5 2.7" fill="#cc3366" fill-rule="evenodd" stroke="none"/>
      <path d="M12.9 -7.7 Q13.15 -10.85 12.55 -12.6 L12.3 -13.2 10.2 -13.5 Q8.4 -11.8 8.15 -10.35 L7.8 -8.7 7.8 -8.65 Q8.5 -5.8 8.05 -3.0 7.65 -0.6 6.75 1.8 8.25 2.9 9.5 2.7 11.4 0.6 12.05 -2.05 12.75 -4.8 12.9 -7.7 L14.4 -9.7 15.05 -10.05 15.4 -9.3 15.3 -8.5 14.05 -3.25 Q13.25 -0.65 11.4 1.5 10.5 2.5 9.5 2.7 M7.8 -8.65 L7.75 -8.65 6.8 -10.9 Q4.8 -8.9 4.7 -6.2 4.55 -3.55 5.3 -1.05 5.75 0.45 6.75 1.8 M7.8 -8.7 L7.75 -8.65" fill="none" stroke="#990000" stroke-linecap="round" stroke-linejoin="round" stroke-width="1.0"/>
    </g>
  </defs>
</svg>
