<?xml version="1.0" encoding="UTF-8" standalone="no"?>
<svg xmlns:xlink="http://www.w3.org/1999/xlink" height="92.9px" width="100.7px" xmlns="http://www.w3.org/2000/svg">
  <g transform="matrix(1.0, 0.0, 0.0, 1.0, 38.65, 49.75)">
    <use height="21.45" transform="matrix(1.0, 0.0, 0.0, 1.0, -13.5, -15.0)" width="26.95" xlink:href="#shape0"/>
    <use height="4.0" transform="matrix(1.0, 0.0, 0.0, 1.0, 9.4, -0.35)" width="4.0" xlink:href="#sprite0"/>
    <use height="17.25" transform="matrix(1.0, 0.0, 0.0, 1.0, 4.2, -14.0)" width="11.7" xlink:href="#shape2"/>
    <use height="4.0" transform="matrix(1.0, 0.0, 0.0, 1.0, 7.65, 0.9)" width="4.0" xlink:href="#sprite0"/>
    <use height="4.0" transform="matrix(1.0, 0.0, 0.0, 1.0, 5.0, 1.55)" width="4.0" xlink:href="#sprite0"/>
    <use height="4.0" transform="matrix(1.0, 0.0, 0.0, 1.0, -15.25, -4.6)" width="4.0" xlink:href="#sprite0"/>
    <use height="4.0" transform="matrix(1.0, 0.0, 0.0, 1.0, -13.9, -3.35)" width="4.0" xlink:href="#sprite0"/>
    <use height="4.0" transform="matrix(1.0, 0.0, 0.0, 1.0, -12.25, -2.5)" width="4.0" xlink:href="#sprite0"/>
    <use height="4.0" transform="matrix(1.0, 0.0, 0.0, 1.0, -10.25, -1.25)" width="4.0" xlink:href="#sprite0"/>
    <use height="4.0" transform="matrix(1.0, 0.0, 0.0, 1.0, -8.0, -0.35)" width="4.0" xlink:href="#sprite0"/>
    <use height="4.0" transform="matrix(1.0, 0.0, 0.0, 1.0, -5.75, 0.95)" width="4.0" xlink:href="#sprite0"/>
    <use height="4.0" transform="matrix(1.728, 0.0, 0.0, 1.728, -4.114, 0.086)" width="4.0" xlink:href="#sprite0"/>
    <use height="4.0" transform="matrix(1.0, 0.0, 0.0, 1.0, 2.75, 1.75)" width="4.0" xlink:href="#sprite0"/>
    <use height="4.0" transform="matrix(1.0, 0.0, 0.0, 1.0, 0.3, 2.15)" width="4.0" xlink:href="#sprite0"/>
  </g>
  <defs>
    <g id="shape0" transform="matrix(1.0, 0.0, 0.0, 1.0, 13.5, 15.0)">
      <path d="M-1.25 -4.6 Q1.4 -5.15 3.8 -6.5 5.6 -7.55 7.25 -9.05 8.75 -10.5 9.7 -12.35 L11.65 -10.2 Q12.3 -9.25 12.75 -7.2 13.2 -5.2 12.65 -2.0 12.1 1.15 9.1 3.55 6.1 5.95 0.6 6.4 -4.5 6.65 -9.2 4.65 L-9.4 4.4 Q3.45 2.9 11.65 -10.2 0.9 1.25 -11.3 1.6 -13.1 -1.85 -13.0 -5.95 -8.15 -3.35 -2.45 -4.4 L-1.25 -4.6" fill="#ffcc00" fill-rule="evenodd" stroke="none"/>
      <path d="M3.8 -6.5 L1.85 -7.5 Q-2.05 -9.6 -5.2 -13.05 -0.65 -15.1 4.35 -14.3 7.05 -13.75 9.7 -12.35 8.75 -10.5 7.25 -9.05 5.6 -7.55 3.8 -6.5 M-9.2 -10.7 Q-7.0 -7.35 -3.3 -5.45 L-1.25 -4.6 -2.45 -4.4 Q-8.15 -3.35 -13.0 -5.95 -12.0 -8.6 -9.2 -10.7 M-9.4 4.4 L-9.95 3.7 -11.3 1.6 Q0.9 1.25 11.65 -10.2 3.45 2.9 -9.4 4.4" fill="#ff9900" fill-rule="evenodd" stroke="none"/>
      <path d="M-5.2 -13.05 Q-2.05 -9.6 1.85 -7.5 L3.8 -6.5 Q1.4 -5.15 -1.25 -4.6 L-3.3 -5.45 Q-7.0 -7.35 -9.2 -10.7 L-6.6 -12.4 -5.2 -13.05" fill="#ff6600" fill-rule="evenodd" stroke="none"/>
      <path d="M-5.2 -13.05 L-6.6 -12.4 -9.2 -10.7 Q-12.0 -8.6 -13.0 -5.95 -13.1 -1.85 -11.3 1.6 L-9.95 3.7 -9.4 4.4 M9.7 -12.35 Q7.05 -13.75 4.35 -14.3 -0.65 -15.1 -5.2 -13.05 M9.7 -12.35 L11.65 -10.2 Q12.3 -9.25 12.75 -7.2 13.2 -5.2 12.65 -2.0 12.1 1.15 9.1 3.55" fill="none" stroke="#660000" stroke-linecap="round" stroke-linejoin="round" stroke-width="1.0"/>
    </g>
    <g id="sprite0" transform="matrix(1.0, 0.0, 0.0, 1.0, 0.5, 0.5)">
      <use height="4.0" transform="matrix(1.0, 0.0, 0.0, 1.0, -0.5, -0.5)" width="4.0" xlink:href="#shape1"/>
    </g>
    <g id="shape1" transform="matrix(1.0, 0.0, 0.0, 1.0, 0.5, 0.5)">
      <path d="M0.8 1.55 Q0.2 0.8 1.15 0.5 2.3 1.0 1.25 1.65 1.0 1.8 0.8 1.55" fill="#ffffff" fill-rule="evenodd" stroke="none"/>
      <path d="M2.55 2.55 L2.3 2.75 1.5 3.0 Q0.9 3.0 0.45 2.55 0.0 2.1 0.0 1.5 0.0 0.9 0.45 0.45 0.9 0.0 1.5 0.0 L2.3 0.25 2.55 0.45 Q3.0 0.9 3.0 1.5 3.0 2.1 2.55 2.55 M0.8 1.55 Q1.0 1.8 1.25 1.65 2.3 1.0 1.15 0.5 0.2 0.8 0.8 1.55" fill="#cccccc" fill-rule="evenodd" stroke="none"/>
      <path d="M2.55 2.55 L2.3 2.75 1.5 3.0 Q0.9 3.0 0.45 2.55 0.0 2.1 0.0 1.5 0.0 0.9 0.45 0.45 0.9 0.0 1.5 0.0 L2.3 0.25 2.55 0.45 Q3.0 0.9 3.0 1.5 3.0 2.1 2.55 2.55 Z" fill="none" stroke="#999999" stroke-linecap="round" stroke-linejoin="round" stroke-width="1.0"/>
    </g>
    <g id="shape2" transform="matrix(1.0, 0.0, 0.0, 1.0, -4.2, 14.0)">
      <path d="M7.8 -8.7 L8.15 -10.35 Q8.4 -11.8 10.2 -13.5 L12.3 -13.2 12.55 -12.6 Q13.15 -10.85 12.9 -7.7 12.75 -4.8 12.05 -2.05 11.4 0.6 9.5 2.7 8.25 2.9 6.75 1.8 7.65 -0.6 8.05 -3.0 8.5 -5.8 7.8 -8.65 L7.8 -8.7" fill="#ffff00" fill-rule="evenodd" stroke="none"/>
      <path d="M7.8 -8.65 Q8.5 -5.8 8.05 -3.0 7.65 -0.6 6.75 1.8 5.75 0.45 5.3 -1.05 4.55 -3.55 4.7 -6.2 4.8 -8.9 6.8 -10.9 L7.75 -8.65 7.8 -8.65" fill="#ffcc00" fill-rule="evenodd" stroke="none"/>
      <path d="M9.5 2.7 Q11.4 0.6 12.05 -2.05 12.75 -4.8 12.9 -7.7 L14.4 -9.7 15.05 -10.05 15.4 -9.3 15.3 -8.5 14.05 -3.25 Q13.25 -0.65 11.4 1.5 10.5 2.5 9.5 2.7" fill="#ff9900" fill-rule="evenodd" stroke="none"/>
      <path d="M7.8 -8.7 L7.8 -8.65" fill="none" stroke="#333333" stroke-linecap="round" stroke-linejoin="round" stroke-width="1.0"/>
      <path d="M12.9 -7.7 Q13.15 -10.85 12.55 -12.6 L12.3 -13.2 10.2 -13.5 Q8.4 -11.8 8.15 -10.35 L7.8 -8.7 7.75 -8.65 6.8 -10.9 Q4.8 -8.9 4.7 -6.2 4.55 -3.55 5.3 -1.05 5.75 0.45 6.75 1.8 8.25 2.9 9.5 2.7 10.5 2.5 11.4 1.5 13.25 -0.65 14.05 -3.25 L15.3 -8.5 15.4 -9.3 15.05 -10.05 14.4 -9.7 12.9 -7.7" fill="none" stroke="#cc3333" stroke-linecap="round" stroke-linejoin="round" stroke-width="1.0"/>
      <path d="M7.8 -8.65 Q8.5 -5.8 8.05 -3.0 7.65 -0.6 6.75 1.8 M9.5 2.7 Q11.4 0.6 12.05 -2.05 12.75 -4.8 12.9 -7.7" fill="none" stroke="#cc3333" stroke-linecap="round" stroke-linejoin="round" stroke-width="1.0"/>
    </g>
  </defs>
</svg>
