<?xml version="1.0" encoding="UTF-8" standalone="no"?>
<svg xmlns:xlink="http://www.w3.org/1999/xlink" height="92.9px" width="100.7px" xmlns="http://www.w3.org/2000/svg">
  <g transform="matrix(1.0, 0.0, 0.0, 1.0, 38.65, 49.75)">
    <use height="22.3" transform="matrix(1.0, 0.0, 0.0, 1.0, -27.65, -8.0)" width="44.6" xlink:href="#shape0"/>
  </g>
  <defs>
    <g id="shape0" transform="matrix(1.0, 0.0, 0.0, 1.0, 27.65, 8.0)">
      <path d="M-27.15 4.05 Q-22.7 6.4 -19.15 2.25 L-17.75 1.1 Q-13.9 -0.95 -11.4 2.55 -10.5 7.95 -16.15 9.95 -21.75 12.0 -24.4 9.4 -27.1 6.8 -27.15 4.05" fill="#e3af39" fill-rule="evenodd" stroke="none"/>
      <path d="M-27.15 4.05 Q-22.7 6.4 -19.15 2.25 L-17.75 1.1 Q-13.9 -0.95 -11.4 2.55 -10.5 7.95 -16.15 9.95 -21.75 12.0 -24.4 9.4 -27.1 6.8 -27.15 4.05 Z" fill="none" stroke="#9b4a2d" stroke-linecap="round" stroke-linejoin="round" stroke-width="1.0"/>
      <path d="M-8.5 6.35 Q-7.95 10.2 -11.85 10.9 L-13.3 10.6 Q-16.3 9.05 -14.7 6.25 -12.85 2.95 -9.75 5.15 L-8.5 6.35" fill="#ff1cdd" fill-rule="evenodd" stroke="none"/>
      <path d="M-8.5 6.35 Q-7.95 10.2 -11.85 10.9 L-13.3 10.6 Q-16.3 9.05 -14.7 6.25 -12.85 2.95 -9.75 5.15 L-8.5 6.35 Z" fill="none" stroke="#9f3372" stroke-linecap="round" stroke-linejoin="round" stroke-width="1.0"/>
      <path d="M10.55 6.15 L11.9 7.4 Q13.85 9.4 14.35 12.15 L14.45 13.0 Q9.8 12.4 6.75 8.85 6.25 8.3 6.45 7.5 7.7 6.7 9.2 6.45 L10.55 6.15 M-10.05 11.7 L-11.3 12.25 -13.95 13.25 -14.6 13.45 -14.7 13.45 -14.9 13.8 Q-15.65 12.7 -14.0 9.95 L-10.95 5.25 Q-8.25 5.5 -5.9 6.95 L-4.85 8.05 Q-7.0 10.2 -10.05 11.7" fill="#e3af39" fill-rule="evenodd" stroke="none"/>
      <path d="M10.55 6.15 L11.9 7.4 Q13.85 9.4 14.35 12.15 L14.45 13.0 Q9.8 12.4 6.75 8.85 6.25 8.3 6.45 7.5 7.7 6.7 9.2 6.45 L10.55 6.15 M-10.05 11.7 L-11.3 12.25 -13.95 13.25 -14.6 13.45 -14.7 13.45 -14.9 13.8 Q-15.65 12.7 -14.0 9.95 L-10.95 5.25 Q-8.25 5.5 -5.9 6.95 L-4.85 8.05 Q-7.0 10.2 -10.05 11.7" fill="none" stroke="#9b4a2d" stroke-linecap="round" stroke-linejoin="round" stroke-width="1.0"/>
      <path d="M11.05 1.65 Q14.95 3.95 16.2 6.35 L16.45 7.45 Q16.65 9.15 14.2 10.5 10.85 12.2 5.15 12.55 -0.45 12.7 -12.2 7.6 L-9.3 7.1 -6.0 6.8 -2.45 6.35 0.95 6.05 4.4 5.65 6.75 5.0 Q7.5 4.65 8.45 4.45 L10.2 4.05 Q11.15 3.75 11.05 2.95 L11.05 1.65" fill="#18aefe" fill-rule="evenodd" stroke="none"/>
      <path d="M-12.2 7.6 Q-0.45 12.7 5.15 12.55 10.85 12.2 14.2 10.5 16.65 9.15 16.45 7.45 L16.2 6.35 Q14.95 3.95 11.05 1.65" fill="none" stroke="#0c335a" stroke-linecap="round" stroke-linejoin="round" stroke-width="1.0"/>
      <path d="M-2.15 -6.65 L-0.6 -6.75 Q4.7 -6.95 8.5 -3.15 9.95 -1.7 10.65 -0.25 L10.9 0.55 11.05 0.95 Q11.45 1.85 11.3 3.35 L10.9 5.15 Q10.65 5.45 6.3 7.2 6.7 3.65 5.6 1.2 L5.35 0.5 5.3 0.4 4.2 -1.35 Q1.5 -4.6 -2.7 -6.6 L-2.55 -6.6 -2.25 -6.65 -2.15 -6.65 M-7.35 8.9 L-9.7 8.5 -12.5 7.95 Q-13.5 6.0 -13.15 3.4 L-12.95 2.7 Q-12.7 1.25 -11.8 -0.35 -9.6 -4.55 -4.95 -6.05 L-3.6 -6.4 -3.55 -6.35 Q-7.0 -2.0 -7.9 2.1 L-8.05 2.8 Q-8.7 6.0 -7.35 8.9" fill="#003284" fill-rule="evenodd" stroke="none"/>
      <path d="M6.3 7.2 L5.8 7.3 3.35 8.0 Q0.05 8.85 -3.1 9.0 L-7.35 8.9 Q-8.7 6.0 -8.05 2.8 L-7.9 2.1 Q-7.0 -2.0 -3.55 -6.35 L-3.6 -6.4 -3.55 -6.4 -2.7 -6.6 Q1.5 -4.6 4.2 -1.35 L5.3 0.4 5.35 0.5 5.6 1.2 Q6.7 3.65 6.3 7.2" fill="#18aefe" fill-rule="evenodd" stroke="none"/>
      <path d="M-2.15 -6.65 L-0.6 -6.75 Q4.7 -6.95 8.5 -3.15 9.95 -1.7 10.65 -0.25 L10.9 0.55 11.05 0.95 Q11.45 1.85 11.3 3.35 L10.9 5.15 Q10.65 5.45 6.3 7.2 L5.8 7.3 3.35 8.0 Q0.05 8.85 -3.1 9.0 L-7.35 8.9 -9.7 8.5 -12.5 7.95 Q-13.5 6.0 -13.15 3.4 L-12.95 2.7 Q-12.7 1.25 -11.8 -0.35 -9.6 -4.55 -4.95 -6.05 L-3.6 -6.4 -3.55 -6.4 -2.7 -6.6 -2.55 -6.6 -2.25 -6.65" fill="none" stroke="#0c335a" stroke-linecap="round" stroke-linejoin="round" stroke-width="1.0"/>
      <path d="M-1.05 -6.4 Q-1.65 -6.0 -2.6 -5.9 L-4.25 -6.0 Q-4.95 -6.25 -5.0 -6.7 -5.05 -7.15 -4.45 -7.5 L-2.85 -8.0 -1.25 -7.9 Q-0.55 -7.65 -0.5 -7.2 -0.45 -6.75 -1.05 -6.4" fill="#013a58" fill-rule="evenodd" stroke="none"/>
    </g>
  </defs>
</svg>
