<?xml version="1.0" encoding="UTF-8" standalone="no"?>
<svg xmlns:xlink="http://www.w3.org/1999/xlink" height="92.9px" width="100.7px" xmlns="http://www.w3.org/2000/svg">
  <g transform="matrix(1.0, 0.0, 0.0, 1.0, 38.65, 49.75)">
    <use height="31.6" transform="matrix(1.0, 0.0, 0.0, 1.0, -16.9, -10.8)" width="39.45" xlink:href="#shape0"/>
  </g>
  <defs>
    <g id="shape0" transform="matrix(1.0, 0.0, 0.0, 1.0, 16.9, 10.8)">
      <path d="M5.75 -5.65 Q8.2 -5.2 11.15 -2.35 13.8 0.3 14.4 2.15 17.0 10.1 15.9 14.15 L15.1 17.35 Q12.75 13.85 11.9 11.85 11.6 7.65 10.4 6.65 7.4 5.5 6.6 4.5 L4.6 2.35 1.4 2.85 -2.1 2.35 Q-3.1 3.5 -4.6 4.15 L-8.4 4.85 Q-10.1 5.35 -11.75 9.65 -13.05 11.3 -15.75 17.15 -17.05 11.5 -16.9 8.65 -16.75 5.7 -14.75 1.0 -13.1 -2.9 -9.9 -3.85 -7.6 -4.5 -3.1 -6.5 -0.75 -6.95 5.75 -5.65" fill="#000000" fill-rule="evenodd" stroke="none"/>
      <path d="M-11.45 11.7 Q-10.3 10.05 -12.05 6.75 -12.65 5.65 -12.15 3.6 -11.65 1.6 -10.85 1.55 L-8.75 2.1 -10.4 5.6 Q-10.4 6.6 -9.4 10.25 -9.3 11.25 -9.8 12.95 -10.15 14.3 -9.9 14.75 L-8.9 15.6 Q-8.1 16.15 -7.55 17.1 -6.3 19.2 -10.75 20.6 -13.4 21.4 -11.9 18.6 -10.55 20.1 -9.75 19.1 -9.25 18.5 -10.35 17.4 L-12.75 15.25 Q-13.7 14.2 -13.0 13.3 L-11.45 11.7" fill="#000000" fill-rule="evenodd" stroke="none"/>
      <path d="M9.55 -10.45 Q11.4 -11.25 12.75 -10.25 14.9 -8.55 13.75 -6.4 L15.25 -6.4 Q16.9 -6.2 17.7 -5.25 19.0 -3.7 18.35 -3.3 20.65 -2.95 20.05 -1.0 19.4 0.9 17.1 1.15 20.4 4.35 18.25 5.9 16.9 6.85 15.75 6.55 L14.9 6.05 Q14.5 8.6 10.8 8.45 8.5 8.4 7.9 6.95 L7.75 5.5 Q4.55 8.1 2.25 5.65 0.8 4.1 1.0 2.5 L1.45 1.15 Q-2.4 -1.25 0.2 -3.45 2.75 -5.6 4.65 -4.6 1.1 -7.5 4.3 -9.45 6.95 -11.05 7.95 -9.45 L9.55 -10.45" fill="#c70078" fill-rule="evenodd" stroke="none"/>
      <path d="M8.8 -8.65 Q9.5 -10.1 11.3 -9.7 13.2 -9.3 13.2 -7.45 13.15 -6.1 12.35 -5.0 L11.7 -3.2 12.5 -4.3 Q13.5 -5.35 14.8 -5.25 18.35 -4.85 17.35 -2.7 20.2 -2.25 19.0 -0.75 18.05 0.4 16.15 0.45 L13.9 0.4 16.45 2.05 Q19.05 4.75 17.1 5.4 L15.05 5.35 14.15 4.9 Q14.15 7.8 11.2 7.55 8.0 7.3 8.4 4.25 L8.65 2.2 Q7.65 5.55 6.05 5.65 3.65 5.8 2.4 4.35 1.25 3.0 2.0 1.95 2.55 1.1 3.4 1.1 0.1 0.25 0.45 -1.5 0.7 -3.0 2.05 -3.65 L4.65 -3.7 Q6.35 -2.95 7.75 -2.05 L6.05 -3.55 Q5.0 -4.4 4.45 -6.1 3.8 -8.15 5.3 -8.7 7.6 -9.45 8.5 -7.15 L8.8 -8.65" fill="#ff96d5" fill-rule="evenodd" stroke="none"/>
      <path d="M10.05 -5.8 Q10.85 -6.15 10.7 -3.5 L11.6 -5.05 Q11.75 -5.05 11.5 -3.2 L11.4 -2.1 9.15 -2.5 8.3 -2.05 7.4 -2.95 Q6.55 -3.95 6.9 -4.35 7.45 -4.95 8.5 -3.45 L8.2 -4.0 Q7.7 -4.9 8.0 -5.1 8.5 -5.45 9.25 -3.95 L9.35 -4.75 Q9.5 -5.6 10.05 -5.8" fill="#ff75c8" fill-rule="evenodd" stroke="none"/>
      <path d="M12.25 -1.65 L13.45 -2.55 15.85 -2.75 Q15.85 -2.4 14.45 -1.8 L16.45 -1.85 Q16.75 -1.7 14.6 -1.35 L12.15 -0.25 12.25 -1.65" fill="#ff75c8" fill-rule="evenodd" stroke="none"/>
      <path d="M13.9 -3.3 L12.75 -2.45 14.15 -2.8 15.85 -2.9 13.5 -2.3 12.25 -1.35 11.05 -2.05 11.75 -2.95 12.6 -3.7 13.7 -4.15 14.0 -3.85 Q14.15 -3.55 13.9 -3.3" fill="#ff75c8" fill-rule="evenodd" stroke="none"/>
      <path d="M10.75 1.3 L12.3 -0.25 14.65 1.55 Q15.2 2.5 14.5 2.55 L12.65 1.6 Q12.4 4.55 11.15 4.45 10.35 4.35 10.2 3.6 L10.25 2.85 9.25 4.25 8.9 1.7 10.75 1.3" fill="#ff75c8" fill-rule="evenodd" stroke="none"/>
      <path d="M5.2 -2.8 Q6.7 -2.4 7.2 -1.9 L7.85 -1.25 Q7.85 -0.8 8.2 0.8 L4.65 0.25 5.7 -0.3 Q5.15 -0.55 4.65 -0.85 3.7 -1.5 4.15 -1.8 5.4 -1.25 6.6 -0.75 L5.7 -1.8 Q4.75 -2.9 5.2 -2.8" fill="#ff75c8" fill-rule="evenodd" stroke="none"/>
      <path d="M8.75 0.6 L9.15 1.6 7.35 2.95 Q6.1 3.9 5.6 3.7 L7.15 2.05 5.25 2.55 Q4.15 2.85 4.15 2.05 4.15 1.55 4.9 1.15 L8.75 0.6" fill="#ff75c8" fill-rule="evenodd" stroke="none"/>
      <path d="M10.75 -3.05 L10.25 -3.0 Q10.1 -3.3 10.1 -3.85 L11.25 -7.8 10.75 -3.05" fill="#ff4ab7" fill-rule="evenodd" stroke="none"/>
      <path d="M9.25 -3.0 L8.75 -2.75 8.2 -4.65 6.85 -7.4 7.95 -6.25 Q8.4 -5.75 9.25 -3.0" fill="#ff4ab7" fill-rule="evenodd" stroke="none"/>
      <path d="M11.9 -2.25 L12.65 -3.3 Q13.35 -3.9 16.05 -3.9 L13.55 -3.05 12.15 -1.8 11.9 -2.25" fill="#ff4ab7" fill-rule="evenodd" stroke="none"/>
      <path d="M12.6 -1.1 L15.1 -1.85 17.7 -1.95 14.25 -1.35 12.75 -0.55 12.6 -1.1" fill="#ff4ab7" fill-rule="evenodd" stroke="none"/>
      <path d="M12.15 0.85 L14.45 2.05 16.3 3.9 13.8 2.2 11.7 1.15 12.15 0.85" fill="#ff4ab7" fill-rule="evenodd" stroke="none"/>
      <path d="M10.85 2.05 L12.05 4.55 12.1 6.9 11.15 4.05 10.1 2.2 10.85 2.05" fill="#ff4ab7" fill-rule="evenodd" stroke="none"/>
      <path d="M7.6 0.45 L8.2 1.05 Q6.05 1.8 5.2 2.3 L2.95 4.0 4.3 2.3 Q5.0 1.75 7.6 0.45" fill="#ff4ab7" fill-rule="evenodd" stroke="none"/>
      <path d="M2.55 -3.1 L4.8 -2.35 7.55 -0.9 7.55 -0.75 8.0 -1.1 7.15 -1.65 8.4 -1.5 8.3 -2.05 8.75 -2.05 7.95 -3.3 8.75 -2.75 9.25 -3.0 9.55 -2.25 9.6 -3.25 9.85 -2.7 10.1 -3.85 10.55 -3.1 10.75 -2.55 11.0 -2.7 11.05 -1.85 11.9 -2.25 12.15 -1.8 11.6 -1.0 12.55 -1.65 12.6 -1.1 12.75 -0.55 11.9 0.15 13.3 0.8 12.05 0.6 12.15 0.85 11.7 1.15 11.7 2.1 11.3 1.8 Q11.1 1.95 10.85 2.05 L10.25 2.25 9.65 2.7 9.65 1.85 9.0 1.8 7.75 2.2 8.45 1.35 8.2 1.05 7.6 0.45 6.05 -0.1 7.55 -0.1 7.55 -0.45 6.0 -1.2 2.55 -3.1" fill="#ff4ab7" fill-rule="evenodd" stroke="none"/>
      <path d="M9.75 -0.65 Q11.3 -2.35 13.6 -3.25 L21.45 -3.45 Q21.65 -3.15 21.2 -3.15 L14.7 -2.75 Q12.85 -2.2 10.15 -0.1 L9.6 -0.05 Q9.45 -0.35 9.75 -0.65" fill="#ffc9ea" fill-rule="evenodd" stroke="none"/>
      <path d="M21.2 -3.3 Q21.25 -3.9 21.9 -3.95 22.55 -3.95 22.55 -3.3 22.55 -2.65 21.85 -2.7 21.1 -2.8 21.2 -3.3" fill="#ff6a00" fill-rule="evenodd" stroke="none"/>
      <path d="M21.1 -4.6 Q21.75 -4.55 21.65 -4.0 21.6 -3.4 21.0 -3.3 20.35 -3.2 20.4 -3.95 20.4 -4.65 21.1 -4.6" fill="#ff6a00" fill-rule="evenodd" stroke="none"/>
      <path d="M19.9 -3.45 Q19.2 -3.35 19.1 -4.0 19.05 -4.6 19.75 -4.7 20.4 -4.75 20.45 -4.15 20.55 -3.5 19.9 -3.45" fill="#ff6a00" fill-rule="evenodd" stroke="none"/>
      <path d="M20.85 -2.2 Q20.3 -2.1 20.2 -2.7 20.1 -3.25 20.7 -3.35 21.35 -3.45 21.45 -2.9 21.5 -2.35 20.85 -2.2" fill="#ff6a00" fill-rule="evenodd" stroke="none"/>
      <path d="M19.6 -3.55 Q20.25 -3.55 20.3 -2.95 20.4 -2.4 19.8 -2.25 19.2 -2.1 19.05 -2.8 18.9 -3.55 19.6 -3.55" fill="#ff6a00" fill-rule="evenodd" stroke="none"/>
      <path d="M20.55 -3.95 L21.05 -3.7 Q21.35 -3.45 21.25 -3.2 L20.0 -3.1 Q19.0 -3.55 20.55 -3.95" fill="#ff6a00" fill-rule="evenodd" stroke="none"/>
    </g>
  </defs>
</svg>
