<?xml version="1.0" encoding="UTF-8" standalone="no"?>
<svg xmlns:xlink="http://www.w3.org/1999/xlink" height="92.9px" width="100.7px" xmlns="http://www.w3.org/2000/svg">
  <g transform="matrix(1.0, 0.0, 0.0, 1.0, 38.65, 49.75)">
    <use height="13.85" transform="matrix(1.0, 0.0, 0.0, 1.0, 2.15, -4.95)" width="11.75" xlink:href="#sprite0"/>
    <use height="13.85" transform="matrix(-1.0, 0.0, 0.0, 1.0, -2.15, -4.85)" width="11.75" xlink:href="#sprite0"/>
  </g>
  <defs>
    <g id="sprite0" transform="matrix(1.0, 0.0, 0.0, 1.0, 5.85, 6.9)">
      <use height="13.85" transform="matrix(1.0, 0.0, 0.0, 1.0, -5.85, -6.9)" width="11.75" xlink:href="#shape0"/>
    </g>
    <g id="shape0" transform="matrix(1.0, 0.0, 0.0, 1.0, 5.85, 6.9)">
      <path d="M1.6 5.4 Q4.15 1.1 3.8 -3.7 L2.2 -3.3 Q-1.1 -2.15 -2.7 1.05 L-3.95 1.1 -4.75 0.25 -5.35 -0.75 Q-2.35 -5.9 4.6 -6.4 6.35 -1.85 4.3 3.15 L2.7 6.45 2.65 6.05 1.6 5.4" fill="#ffffff" fill-rule="evenodd" stroke="none"/>
      <path d="M-2.7 1.05 Q-1.1 -2.15 2.2 -3.3 L3.8 -3.7 Q4.15 1.1 1.6 5.4 L0.0 2.9 Q-1.0 1.7 -2.7 1.05" fill="#ffcccc" fill-rule="evenodd" stroke="none"/>
      <path d="M2.7 6.45 L4.3 3.15 Q6.35 -1.85 4.6 -6.4 -2.35 -5.9 -5.35 -0.75" fill="none" stroke="#333333" stroke-linecap="round" stroke-linejoin="round" stroke-width="1.0"/>
    </g>
  </defs>
</svg>
