<?xml version="1.0" encoding="UTF-8" standalone="no"?>
<svg xmlns:xlink="http://www.w3.org/1999/xlink" height="92.9px" width="100.7px" xmlns="http://www.w3.org/2000/svg">
  <g transform="matrix(1.0, 0.0, 0.0, 1.0, 38.65, 49.75)">
    <use height="15.8" transform="matrix(1.0, 0.0, 0.0, 1.0, -16.7, -4.65)" width="32.9" xlink:href="#sprite0"/>
  </g>
  <defs>
    <g id="sprite0" transform="matrix(1.0, 0.0, 0.0, 1.0, 0.5, 0.5)">
      <use height="15.8" transform="matrix(1.0, 0.0, 0.0, 1.0, -0.5, -0.5)" width="32.9" xlink:href="#shape0"/>
      <use height="7.8" transform="matrix(1.0, 0.0, 0.0, 1.0, 20.75, 1.6)" width="7.8" xlink:href="#sprite1"/>
      <use height="7.8" transform="matrix(1.0, 0.0, 0.0, 1.0, 12.15, 4.55)" width="7.8" xlink:href="#sprite3"/>
      <use height="7.8" transform="matrix(1.0, 0.0, 0.0, 1.0, 3.75, 1.7)" width="7.8" xlink:href="#sprite1"/>
      <use height="7.8" transform="matrix(1.0, 0.0, 0.0, 1.0, 7.75, 3.45)" width="7.8" xlink:href="#sprite4"/>
      <use height="7.8" transform="matrix(1.0, 0.0, 0.0, 1.0, 16.55, 3.45)" width="7.8" xlink:href="#sprite4"/>
    </g>
    <g id="shape0" transform="matrix(1.0, 0.0, 0.0, 1.0, 0.5, 0.5)">
      <path d="M15.7 0.0 L16.45 1.1 Q17.9 3.1 19.75 4.85 L15.95 3.5 16.6 4.1 Q18.7 5.95 21.1 7.1 L21.65 7.35 24.75 7.8 29.75 7.85 Q27.05 9.8 23.95 9.3 L27.35 10.75 Q25.35 11.4 23.3 10.75 L23.8 13.35 Q21.6 12.4 19.9 10.45 18.35 12.45 16.15 13.6 L15.15 9.35 13.95 10.95 Q12.4 13.05 9.75 13.15 L9.75 11.95 10.35 10.2 7.95 11.1 3.55 11.4 7.45 8.75 4.4 8.75 Q1.95 8.45 0.0 7.05 L4.5 6.45 Q7.0 6.0 9.1 4.7 L10.0 4.15 15.7 0.0 M11.15 5.35 L9.4 6.5 11.15 5.35 M7.25 7.25 L5.45 7.6 7.25 7.25 M9.65 8.5 L11.7 7.4 13.15 5.85 11.7 7.4 9.65 8.5 M17.25 8.8 L17.2 8.0 17.25 8.8 M13.6 8.3 L14.4 7.1 13.6 8.3 M12.75 4.25 L14.15 3.1 12.75 4.25 M22.2 9.85 L20.35 8.3 22.2 9.85" fill="#339900" fill-rule="evenodd" stroke="none"/>
      <path d="M9.75 11.95 L9.75 13.15 Q12.4 13.05 13.95 10.95 L15.15 9.35 16.15 13.6 Q18.35 12.45 19.9 10.45 21.6 12.4 23.8 13.35 L23.3 10.75 Q25.35 11.4 27.35 10.75 L23.95 9.3 Q27.05 9.8 29.75 7.85 L24.75 7.8 21.65 7.35 21.1 7.1 Q18.7 5.95 16.6 4.1 L15.95 3.5 19.75 4.85 Q17.9 3.1 16.45 1.1 L15.7 0.0 Q19.1 2.8 22.75 4.75 27.1 7.05 31.9 6.7 L29.6 9.0 Q28.05 9.95 26.25 9.85 L31.85 11.7 29.25 11.95 24.15 11.7 24.8 14.3 22.85 13.85 Q21.3 13.3 20.0 12.3 18.35 13.95 16.0 14.8 L14.65 12.3 12.25 13.55 Q10.3 14.3 8.05 14.15 L9.75 11.95 6.75 12.45 Q4.2 12.8 1.8 12.55 L4.8 9.7 3.5 9.5 Q1.35 8.75 0.0 7.05 1.95 8.45 4.4 8.75 L7.45 8.75 3.55 11.4 7.95 11.1 10.35 10.2 9.75 11.95" fill="#336600" fill-rule="evenodd" stroke="none"/>
      <path d="M9.75 11.95 L8.05 14.15 Q10.3 14.3 12.25 13.55 L14.65 12.3 16.0 14.8 Q18.35 13.95 20.0 12.3 21.3 13.3 22.85 13.85 L24.8 14.3 24.15 11.7 29.25 11.95 31.85 11.7 26.25 9.85 Q28.05 9.95 29.6 9.0 L31.9 6.7 Q27.1 7.05 22.75 4.75 19.1 2.8 15.7 0.0 L10.0 4.15 9.1 4.7 Q7.0 6.0 4.5 6.45 L0.0 7.05 Q1.35 8.75 3.5 9.5 L4.8 9.7 1.8 12.55 Q4.2 12.8 6.75 12.45 L9.75 11.95" fill="none" stroke="#336600" stroke-linecap="round" stroke-linejoin="round" stroke-width="1.0"/>
      <path d="M20.35 8.3 L22.2 9.85 M14.15 3.1 L12.75 4.25 M14.4 7.1 L13.6 8.3 M17.2 8.0 L17.25 8.8 M13.15 5.85 L11.7 7.4 9.65 8.5 M5.45 7.6 L7.25 7.25 M9.4 6.5 L11.15 5.35" fill="none" stroke="#62d801" stroke-linecap="round" stroke-linejoin="round" stroke-width="1.0"/>
    </g>
    <g id="sprite1" transform="matrix(1.0, 0.0, 0.0, 1.0, 2.3, 2.3)">
      <use height="4.0" transform="matrix(1.0, 0.0, 0.0, 1.0, -0.5, -0.5)" width="4.0" xlink:href="#sprite2"/>
    </g>
    <g id="sprite2" transform="matrix(1.0, 0.0, 0.0, 1.0, 0.5, 0.5)">
      <use height="4.0" transform="matrix(1.0, 0.0, 0.0, 1.0, -0.5, -0.5)" width="4.0" xlink:href="#shape1"/>
    </g>
    <g id="shape1" transform="matrix(1.0, 0.0, 0.0, 1.0, 0.5, 0.5)">
      <path d="M0.8 1.55 Q0.2 0.8 1.15 0.5 2.3 1.0 1.25 1.65 1.0 1.8 0.8 1.55" fill="#ffffff" fill-rule="evenodd" stroke="none"/>
      <path d="M2.55 2.55 L2.3 2.75 1.5 3.0 Q0.9 3.0 0.45 2.55 0.0 2.1 0.0 1.5 0.0 0.9 0.45 0.45 0.9 0.0 1.5 0.0 L2.3 0.25 2.55 0.45 Q3.0 0.9 3.0 1.5 3.0 2.1 2.55 2.55 M0.8 1.55 Q1.0 1.8 1.25 1.65 2.3 1.0 1.15 0.5 0.2 0.8 0.8 1.55" fill="#cccccc" fill-rule="evenodd" stroke="none"/>
      <path d="M2.55 2.55 L2.3 2.75 1.5 3.0 Q0.9 3.0 0.45 2.55 0.0 2.1 0.0 1.5 0.0 0.9 0.45 0.45 0.9 0.0 1.5 0.0 L2.3 0.25 2.55 0.45 Q3.0 0.9 3.0 1.5 3.0 2.1 2.55 2.55 Z" fill="none" stroke="#999999" stroke-linecap="round" stroke-linejoin="round" stroke-width="1.0"/>
    </g>
    <g id="sprite3" transform="matrix(1.0, 0.0, 0.0, 1.0, 2.3, 2.3)">
      <use height="4.0" transform="matrix(1.0, 0.0, 0.0, 1.0, -0.5, -0.5)" width="4.0" xlink:href="#sprite2"/>
    </g>
    <g id="sprite4" transform="matrix(1.0, 0.0, 0.0, 1.0, 2.3, 2.3)">
      <use height="4.0" transform="matrix(1.0, 0.0, 0.0, 1.0, -0.5, -0.5)" width="4.0" xlink:href="#sprite2"/>
    </g>
  </defs>
</svg>
