<?xml version="1.0" encoding="UTF-8" standalone="no"?>
<svg xmlns:xlink="http://www.w3.org/1999/xlink" height="92.9px" width="100.7px" xmlns="http://www.w3.org/2000/svg">
  <g transform="matrix(1.0, 0.0, 0.0, 1.0, 38.65, 49.75)">
    <use height="22.9" transform="matrix(1.0, 0.0, 0.0, 1.0, -15.05, -10.8)" width="30.35" xlink:href="#shape0"/>
  </g>
  <defs>
    <g id="shape0" transform="matrix(1.0, 0.0, 0.0, 1.0, 15.05, 10.8)">
      <path d="M11.0 4.05 L13.15 4.5 14.3 6.6 Q15.15 8.55 14.5 10.35 13.8 12.15 12.0 11.4 L9.25 10.4 Q7.6 9.8 5.5 9.5 L2.25 9.2 1.65 9.2 -2.05 9.2 -5.7 9.55 -8.8 10.15 -10.55 10.5 -12.95 11.0 Q-14.9 10.5 -14.5 8.55 -14.15 6.6 -13.45 5.7 L-12.3 4.25 -11.05 4.0 -9.25 3.7 -5.3 3.25 -1.8 3.05 1.45 3.05 5.6 3.3 9.55 3.8 11.0 4.05 M9.25 10.4 L10.3 8.05 Q10.75 6.4 9.55 3.8 10.75 6.4 10.3 8.05 L9.25 10.4 M5.6 3.3 Q6.2 5.85 5.85 8.15 L5.5 9.5 5.85 8.15 Q6.2 5.85 5.6 3.3 M1.45 3.05 Q2.35 5.45 1.85 7.95 L1.65 9.2 1.85 7.95 Q2.35 5.45 1.45 3.05 M-9.25 3.7 Q-10.9 6.35 -10.75 8.1 L-10.55 10.5 -10.75 8.1 Q-10.9 6.35 -9.25 3.7 M-2.05 9.2 L-2.05 8.45 -2.15 7.65 Q-2.3 5.45 -1.8 3.05 -2.3 5.45 -2.15 7.65 L-2.05 8.45 -2.05 9.2 M-5.7 9.55 Q-5.8 7.1 -5.5 4.65 L-5.3 3.25 -5.5 4.65 Q-5.8 7.1 -5.7 9.55" fill="#666666" fill-rule="evenodd" stroke="none"/>
      <path d="M-11.05 4.0 Q-10.05 -0.45 -7.1 -4.5 L-8.2 -6.4 Q-4.2 -9.75 0.2 -10.3 5.35 -9.6 8.6 -7.0 L7.2 -4.8 Q10.05 -0.6 11.0 4.05 L9.55 3.8 5.6 3.3 1.45 3.05 -1.8 3.05 -5.3 3.25 -9.25 3.7 -11.05 4.0" fill="#000000" fill-rule="evenodd" stroke="none"/>
      <path d="M-11.05 4.0 Q-10.05 -0.45 -7.1 -4.5 L-8.2 -6.4 Q-4.2 -9.75 0.2 -10.3 5.35 -9.6 8.6 -7.0 L7.2 -4.8 Q10.05 -0.6 11.0 4.05 M-5.3 3.25 L-5.5 4.65 Q-5.8 7.1 -5.7 9.55 M-1.8 3.05 Q-2.3 5.45 -2.15 7.65 L-2.05 8.45 -2.05 9.2 M-10.55 10.5 L-10.75 8.1 Q-10.9 6.35 -9.25 3.7 M1.65 9.2 L1.85 7.95 Q2.35 5.45 1.45 3.05 M5.5 9.5 L5.85 8.15 Q6.2 5.85 5.6 3.3 M9.55 3.8 Q10.75 6.4 10.3 8.05 L9.25 10.4" fill="none" stroke="#333333" stroke-linecap="round" stroke-linejoin="round" stroke-width="1.0"/>
      <path d="M11.0 4.05 L13.15 4.5 14.3 6.6 Q15.15 8.55 14.5 10.35 13.8 12.15 12.0 11.4 L9.25 10.4 Q7.6 9.8 5.5 9.5 L2.25 9.2 1.65 9.2 -2.05 9.2 -5.7 9.55 -8.8 10.15 -10.55 10.5 -12.95 11.0 Q-14.9 10.5 -14.5 8.55 -14.15 6.6 -13.45 5.7 L-12.3 4.25 -11.05 4.0 -9.25 3.7 -5.3 3.25 -1.8 3.05 1.45 3.05 5.6 3.3 9.55 3.8 11.0 4.05" fill="none" stroke="#000000" stroke-linecap="round" stroke-linejoin="round" stroke-width="1.0"/>
      <path d="M2.9 -6.15 L1.95 0.0 -0.05 1.35 -2.1 -0.3 -3.2 -5.9 -1.3 -4.45 -0.15 -6.3 1.1 -4.55 2.9 -6.15" fill="#ff0000" fill-rule="evenodd" stroke="none"/>
    </g>
  </defs>
</svg>
