<?xml version="1.0" encoding="UTF-8" standalone="no"?>
<svg xmlns:xlink="http://www.w3.org/1999/xlink" height="92.9px" width="100.7px" xmlns="http://www.w3.org/2000/svg">
  <g transform="matrix(1.0, 0.0, 0.0, 1.0, 38.65, 49.75)">
    <use height="23.8" transform="matrix(1.0, 0.0, 0.0, 1.0, -16.55, -11.55)" width="32.15" xlink:href="#shape0"/>
  </g>
  <defs>
    <g id="shape0" transform="matrix(1.0, 0.0, 0.0, 1.0, 16.55, 11.55)">
      <path d="M10.65 6.55 L11.05 6.95 11.4 7.4 Q12.55 9.3 11.3 9.9 L9.55 11.15 Q8.3 11.7 6.95 11.85 L4.65 12.05 2.4 12.25 -6.85 11.85 -8.25 11.7 Q-9.8 11.55 -10.9 10.8 L-11.6 10.3 -12.15 9.9 -12.2 9.25 -12.2 8.95 Q-11.55 7.85 -10.45 7.4 -10.55 6.9 -11.0 6.5 L-10.75 6.3 -10.65 6.2 Q-10.35 5.9 -10.0 5.75 L-9.2 5.4 -9.0 5.35 5.25 5.65 9.45 6.15 10.05 6.35 10.0 6.5 10.45 6.5 10.65 6.55" fill="#000000" fill-opacity="0.2509804" fill-rule="evenodd" stroke="none"/>
      <path d="M9.1 8.2 L8.45 2.6 Q9.6 2.6 12.4 1.4 14.8 0.7 15.45 2.85 16.55 6.45 9.1 8.2" fill="#000000" fill-rule="evenodd" stroke="none"/>
      <path d="M-10.3 8.2 Q-17.45 6.35 -16.4 2.7 -15.75 0.55 -13.45 1.3 L-9.65 2.6 -10.3 8.2" fill="#000000" fill-rule="evenodd" stroke="none"/>
      <path d="M9.85 2.6 L11.1 7.7 Q5.85 9.6 0.1 9.6 -5.65 9.6 -10.8 8.1 L-10.15 2.6 9.85 2.6" fill="#000000" fill-rule="evenodd" stroke="none"/>
      <path d="M12.05 1.7 L5.6 4.55 Q4.75 4.85 -1.65 4.6 -4.2 4.55 -14.05 1.8 -6.55 0.55 -0.05 0.55 6.45 0.55 12.05 1.7" fill="#000000" fill-rule="evenodd" stroke="none"/>
      <path d="M8.55 -1.5 Q8.6 -0.35 9.2 2.55 9.55 4.0 8.65 4.6 6.65 6.35 -0.2 6.35 -7.0 6.35 -9.1 4.6 -10.0 4.0 -9.7 2.55 L-9.1 -1.5 Q-9.0 -3.45 -9.7 -5.8 -10.3 -8.0 -10.2 -8.75 -10.05 -9.95 -6.4 -10.8 L-0.35 -11.55 -0.2 -11.55 5.85 -10.8 Q9.5 -9.95 9.65 -8.75 9.75 -8.0 9.15 -5.8 8.45 -3.45 8.55 -1.5" fill="#000000" fill-rule="evenodd" stroke="none"/>
      <path d="M1.35 -7.2 L4.95 -7.4 Q7.6 -7.65 8.35 -8.3 8.8 -8.65 8.55 -9.55 10.5 -8.9 8.7 -7.45 L1.35 -7.2" fill="#969696" fill-rule="evenodd" stroke="none"/>
      <path d="M8.65 4.6 Q6.65 6.35 -0.2 6.35 -7.0 6.35 -9.1 4.6 -9.9 4.1 -9.8 3.15 L-9.35 0.7 Q-7.8 2.7 -0.1 2.7 7.6 2.7 8.8 0.85 L9.35 3.15 Q9.4 4.1 8.65 4.6" fill="#4d4d4d" fill-rule="evenodd" stroke="none"/>
      <path d="M4.85 5.95 L4.4 2.4 7.1 1.75 7.6 5.15 4.85 5.95" fill="#8f8f8f" fill-rule="evenodd" stroke="none"/>
      <path d="M13.5 1.65 L14.1 1.75 Q14.7 1.9 14.75 2.45 14.85 3.45 12.0 5.1 L9.15 6.2" fill="none" stroke="#999999" stroke-linecap="round" stroke-linejoin="round" stroke-width="1.0"/>
      <path d="M-8.15 1.5 L-6.15 2.2 -3.75 2.65 -4.15 6.0 -6.15 5.75 -8.55 4.95 -8.15 1.5" fill="#363636" fill-rule="evenodd" stroke="none"/>
    </g>
  </defs>
</svg>
