<?xml version="1.0" encoding="UTF-8" standalone="no"?>
<svg xmlns:xlink="http://www.w3.org/1999/xlink" height="92.9px" width="100.7px" xmlns="http://www.w3.org/2000/svg">
  <g transform="matrix(1.0, 0.0, 0.0, 1.0, 38.65, 49.75)">
    <use height="24.5" transform="matrix(1.0, 0.0, 0.0, 1.0, -23.4, -9.9)" width="42.2" xlink:href="#shape0"/>
  </g>
  <defs>
    <g id="shape0" transform="matrix(1.0, 0.0, 0.0, 1.0, 23.4, 9.9)">
      <path d="M7.45 -0.45 Q11.85 -0.3 13.15 2.0 13.8 3.15 13.55 4.25 12.9 5.15 11.2 4.55 L7.25 2.75 4.75 1.5 4.4 1.4 4.2 1.3 7.1 -0.45 7.45 -0.45 M7.05 -7.25 Q1.8 -11.9 -1.4 -3.45 -3.7 -8.1 -8.0 -5.25 -15.8 -8.2 -18.9 -1.45 -20.35 1.9 -17.7 4.4 -15.65 6.25 -12.45 5.9 -14.15 7.35 -16.45 7.9 L-22.4 7.8 -20.1 9.75 Q-16.6 12.45 -15.85 12.55 -12.95 13.0 -9.5 11.75 -6.5 10.7 -4.9 8.0 -3.95 4.85 -3.15 3.35 L-2.55 2.5 -0.8 2.3 Q1.55 5.7 1.2 9.6 3.55 9.6 7.7 6.4 L7.8 6.6 7.85 6.65 8.75 7.35 9.05 7.4 12.7 7.2 Q16.2 5.65 17.2 3.25 18.45 0.15 14.9 -3.45 12.55 -5.75 8.7 -5.15 8.25 -6.1 7.05 -7.25 M-8.4 1.25 L-10.0 3.1 -11.0 3.4 Q-12.7 3.8 -14.55 2.1 -13.45 -1.1 -10.05 -1.55 -9.55 -0.45 -7.35 0.7 L-8.4 1.25" fill="none" stroke="#2b2204" stroke-linecap="round" stroke-linejoin="round" stroke-width="2.0"/>
      <path d="M-9.0 -4.5 Q-5.1 -7.8 -2.55 -5.15 -1.3 -3.85 -0.8 -1.9 L-3.4 2.1 Q-6.0 1.5 -8.0 0.35 -12.0 -1.95 -9.0 -4.5" fill="#9e7800" fill-rule="evenodd" stroke="none"/>
      <path d="M0.3 2.85 L-2.5 0.35 Q-1.85 -3.1 -0.35 -5.75 2.7 -11.1 7.05 -7.25 11.4 -3.35 6.3 0.15 4.7 1.25 2.35 2.15 L0.3 2.85" fill="#9e7800" fill-rule="evenodd" stroke="none"/>
      <path d="M7.45 -0.45 L3.4 -0.05 2.45 0.45 11.2 4.55 Q12.9 5.15 13.55 4.25 13.8 3.15 13.15 2.0 11.85 -0.3 7.45 -0.45 M0.05 -1.85 Q10.9 -7.4 14.9 -3.45 18.45 0.15 17.2 3.25 16.2 5.65 12.7 7.2 9.7 8.6 7.65 6.25 5.3 3.65 1.4 2.2 L-1.7 2.45 Q-3.7 2.75 -3.85 1.55 -4.05 0.25 0.05 -1.85" fill="#ffc300" fill-rule="evenodd" stroke="none"/>
      <path d="M11.2 4.55 Q12.9 5.15 13.55 4.25 L13.05 5.95 12.0 7.1 10.6 7.7 8.75 7.35 7.85 6.65 7.8 6.6 7.65 6.25 0.55 1.2 2.45 0.45 Q9.0 3.75 11.2 4.55" fill="#9e7800" fill-rule="evenodd" stroke="none"/>
      <path d="M-14.55 2.1 Q-12.7 3.8 -11.0 3.4 -7.95 2.7 -3.65 0.25 -6.25 -1.6 -9.3 -1.6 -13.3 -1.6 -14.55 2.1 M-18.9 -1.45 Q-17.25 -5.1 -13.6 -5.85 -8.85 -6.85 -2.35 -2.05 1.35 0.6 -0.65 1.65 -1.5 2.1 -3.6 2.4 -5.6 2.7 -6.6 3.3 L-9.25 4.65 -12.0 5.85 Q-15.4 6.5 -17.7 4.4 -20.35 1.9 -18.9 -1.45" fill="#ffc300" fill-rule="evenodd" stroke="none"/>
      <path d="M-3.65 0.25 L-6.85 3.3 -9.15 5.0 -12.0 5.85 -13.1 5.85 -13.9 5.5 -14.6 3.85 -14.55 2.1 Q-12.7 3.8 -11.0 3.4 -7.95 2.7 -3.65 0.25" fill="#9e7800" fill-rule="evenodd" stroke="none"/>
      <path d="M-1.05 -3.1 Q1.75 -3.1 2.05 -0.5 2.3 2.05 -1.1 2.25 -4.55 2.4 -4.2 -0.35 -3.85 -3.1 -1.05 -3.1" fill="#ffc300" fill-rule="evenodd" stroke="none"/>
      <path d="M0.9 1.25 Q4.4 1.4 4.6 3.75 4.65 4.6 4.1 5.4 5.35 5.75 6.5 6.5 7.4 7.1 7.8 8.0 L7.85 8.45 7.2 9.35 Q4.8 11.1 2.05 12.2 1.35 12.45 0.65 12.2 -1.15 11.65 -1.05 9.75 L-1.1 7.85 -0.95 6.75 -1.0 6.3 Q-1.1 4.7 -1.55 3.65 -2.6 1.15 0.9 1.25" fill="#616082" fill-opacity="0.3529412" fill-rule="evenodd" stroke="none"/>
      <path d="M-0.75 2.8 Q-2.5 4.25 -3.85 7.85 -5.3 11.7 -6.6 13.0 -7.7 14.1 -9.2 14.45 -10.9 14.9 -11.75 13.95 -13.15 12.25 -12.9 11.45 L-9.75 8.9 Q-8.65 8.05 -7.45 6.0 -6.1 3.7 -5.35 2.95 -4.3 1.9 -2.0 1.65 -1.1 1.55 -0.5 1.9 0.2 2.3 -0.75 3.05 L-0.75 2.8" fill="#616082" fill-opacity="0.3529412" fill-rule="evenodd" stroke="none"/>
      <path d="M-3.15 3.35 Q-3.95 4.85 -4.9 8.0 -6.5 10.7 -9.5 11.75 -12.95 13.0 -15.85 12.55 -16.6 12.45 -20.1 9.75 L-22.4 7.8 -16.45 7.9 Q-13.25 7.15 -11.05 4.5 L-8.4 1.25 Q-6.4 -0.1 -2.45 0.25 -1.15 0.4 1.25 1.75 L-1.3 1.8 Q-2.4 2.0 -3.15 3.35" fill="#ffc300" fill-rule="evenodd" stroke="none"/>
      <path d="M9.8 4.8 L5.75 7.85 Q3.1 9.6 1.2 9.6 1.55 4.6 -1.6 1.35 L4.75 1.5 Q10.45 4.3 9.8 4.8" fill="#ffc300" fill-rule="evenodd" stroke="none"/>
      <path d="M3.85 1.5 Q5.75 1.25 6.15 2.6 6.6 3.8 4.25 4.3 1.6 4.65 1.75 3.45 1.85 2.8 2.8 2.0 3.75 1.2 4.4 1.25 L3.85 1.5" fill="#ffd961" fill-rule="evenodd" stroke="none"/>
      <path d="M0.85 1.1 L6.15 2.6 Q8.25 3.6 9.8 4.8" fill="none" stroke="#fff2c7" stroke-linecap="round" stroke-linejoin="round" stroke-width="1.0"/>
      <path d="M-17.9 -3.0 Q-17.4 -3.35 -16.65 -4.45 -15.15 -5.5 -14.4 -5.0 L-13.5 -3.85 -12.3 -3.05 -10.25 -1.65 -12.4 -0.55 -14.65 -0.5 Q-17.15 -1.6 -17.9 -3.0 L-18.1 -2.9 -18.0 -3.15 -17.9 -3.0" fill="#ffd961" fill-rule="evenodd" stroke="none"/>
      <path d="M10.45 -0.4 L11.15 -1.3 12.75 -3.4 Q13.55 -4.35 14.25 -4.1 14.95 -3.85 15.3 -3.45 16.75 -2.0 16.5 -0.4 16.4 0.4 15.55 1.3 14.75 2.3 14.0 2.4 13.5 2.5 13.35 2.2 L13.0 1.5 10.95 0.3 Q10.3 -0.1 10.45 -0.4" fill="#ffd961" fill-rule="evenodd" stroke="none"/>
      <path d="M1.0 -1.5 L1.0 -1.45 Q0.7 -0.5 0.1 -0.55 -0.8 -0.7 -0.85 -1.35 -0.9 -2.25 0.05 -2.3 1.0 -2.35 1.0 -1.5" fill="#ffffff" fill-rule="evenodd" stroke="none"/>
      <path d="M-0.85 -3.5 L0.2 -3.3 Q1.4 -2.95 2.0 -2.1 2.9 -0.75 2.15 0.9" fill="none" stroke="#c99900" stroke-linecap="round" stroke-linejoin="round" stroke-width="1.0"/>
      <path d="M-1.15 1.7 Q-2.35 2.35 -3.0 3.0 L-5.5 8.2 Q-6.85 10.65 -10.65 11.7 L-16.5 12.0" fill="none" stroke="#fff2c7" stroke-linecap="round" stroke-linejoin="round" stroke-width="1.0"/>
      <path d="M-4.15 -0.3 Q-9.0 -3.0 -12.5 -0.8 -16.0 1.35 -13.9 5.5" fill="none" stroke="#fff2c7" stroke-linecap="round" stroke-linejoin="round" stroke-width="1.0"/>
      <path d="M3.35 -0.3 L7.1 -0.65 Q11.2 -0.6 13.0 1.5 15.6 4.55 13.0 6.3 L9.85 7.5" fill="none" stroke="#fff2c7" stroke-linecap="round" stroke-linejoin="round" stroke-width="1.0"/>
      <path d="M13.6 -2.05 Q15.05 -3.2 15.6 -1.75 16.25 0.1 12.2 0.15 12.3 -0.95 13.6 -2.05" fill="#ffffff" fill-rule="evenodd" stroke="none"/>
      <path d="M4.35 2.2 L4.5 2.2 5.5 2.4 Q5.1 3.15 4.1 3.55 L2.2 3.5 Q2.75 2.3 4.35 2.2" fill="#ffffff" fill-rule="evenodd" stroke="none"/>
      <path d="M-16.35 -4.65 Q-12.8 -3.25 -11.85 -1.2 -14.05 -1.0 -15.55 -2.45 -18.65 -5.55 -15.85 -4.8 L-16.35 -4.65" fill="#ffffff" fill-rule="evenodd" stroke="none"/>
      <path d="M-7.7 1.65 Q-6.55 1.65 -5.4 2.65 -4.0 3.85 -4.0 5.15 -5.95 5.9 -7.95 4.0 -9.0 2.95 -8.95 2.25 -8.95 1.55 -7.7 1.65" fill="#ffd961" fill-rule="evenodd" stroke="none"/>
      <path d="M12.3 8.05 Q13.45 8.7 14.5 10.7 15.4 11.65 18.3 12.45 17.2 13.4 12.55 13.15 10.5 9.95 10.45 8.7 L12.05 7.95 12.3 8.05" fill="#ffca18" fill-rule="evenodd" stroke="none"/>
      <path d="M12.3 8.05 Q13.45 8.7 14.5 10.7 15.4 11.65 18.3 12.45 17.2 13.4 12.55 13.15 10.5 9.95 10.45 8.7 L12.05 7.95" fill="none" stroke="#2b2204" stroke-linecap="round" stroke-linejoin="round" stroke-width="1.0"/>
      <path d="M-13.7 5.8 L-14.95 5.55 Q-17.45 5.1 -18.1 3.95 -19.65 1.25 -18.7 0.55 -17.95 0.05 -16.7 0.9 -15.6 1.65 -15.35 2.45 -14.65 4.45 -13.7 5.8" fill="#d4a200" fill-rule="evenodd" stroke="none"/>
      <path d="M0.6 6.65 Q-0.35 4.35 -0.35 3.55 L-0.35 3.05 1.55 4.95 Q2.1 5.95 2.2 8.05 4.95 8.25 7.15 6.8 3.6 9.65 1.1 9.8 1.45 8.65 0.6 6.65" fill="#d4a200" fill-rule="evenodd" stroke="none"/>
      <path d="M-10.7 4.55 L-10.6 4.8 Q-10.35 6.25 -9.0 7.2 -7.0 8.7 -8.2 9.3 -8.6 9.5 -10.95 8.6 L-14.2 7.85 Q-11.3 6.0 -10.7 4.55" fill="#d4a200" fill-rule="evenodd" stroke="none"/>
    </g>
  </defs>
</svg>
