<svg xmlns:xlink="http://www.w3.org/1999/xlink" height="35.1" width="44.6" xmlns="http://www.w3.org/2000/svg"><use height="17.05" transform="translate(3.4 12.35)" width="34.55" xlink:href="#a"/><defs><path d="M14.55 4.2 7.5 7.35v7.35q0 1.05-1.25 1.8-1.15.7-2.3.7l-1.65-.3q-.95-.4-.95-1.25 0-1.05 1.4-1.7 1.15-.5 2.25-.5l1.45.25V4.2l9.2-4.05v10.4q0 1.1-1.3 1.85-1.1.65-2.3.65l-1.65-.35q-.95-.45-.95-1.25 0-1 1.45-1.65 1.1-.55 2.2-.55l1.45.25V4.2m-20.25 0-7.05 3.15v7.35q0 1.05-1.25 1.8-1.15.7-2.3.7l-1.65-.3q-.95-.4-.95-1.25 0-1.05 1.4-1.7l2.25-.5 1.45.25V4.2L-4.6.15v10.4q0 1.1-1.3 1.85-1.1.65-2.3.65l-1.65-.35q-.95-.45-.95-1.25 0-1 1.45-1.65 1.1-.55 2.2-.55l1.45.25V4.2" transform="translate(18.9 -.15)" id="a" fill="#f39" fill-rule="evenodd"/></defs></svg>