<svg xmlns:xlink="http://www.w3.org/1999/xlink" height="35.1" width="44.6" xmlns="http://www.w3.org/2000/svg"><use height="13.8" transform="translate(4.7 13.95)" width="35.25" xlink:href="#a"/><defs><g id="a" fill-rule="evenodd"><path d="M-8.2 2.45q.45.1.3 1.6-.2 1.5-1.75 2.35l3.4.4 1.2.75L-4 8.7l.25-.25Q-3.3 8-2.65 8l1.15.25.05.05q.4.3.45 1 0 .7-.5 1.25-.5.5-1.15.5h-.25q.2 1.85-.95 3.2-1.2 1.35-3.2 1.05l-3.8-.1-2.6.35h-1.2l-1.7-.65-1.05-1.15-.15-.6q-.15-1.45.4-2.85v-.05l.15-.35.05-.15q.4-.85 1.4-1.65l.25-1.65q.6-1.8 1.85-3.3l.85-.85.9-.5h.5q.15 0 .6.3.45.3-.9 2.3l1.65-1.75q.55-.35 1.05-.3l.6.1m-5 5.65v-.05.05m-.4 3.25.15-.3.3-.15q.2 0 .3.15l.1.3-.1.25q-.1.15-.3.15l-.3-.15-.15-.25m-2.4-.55.1-.25.25-.1.25.1.1.25-.1.25-.25.1-.25-.1-.1-.25m1.45.4v.15q0 .65.5 1.15.5.5 1.15.5.7 0 1.15-.5.5-.45.5-1.1 0-.75-.5-1.25-.45-.5-1.15-.45-.65-.05-1.15.45l-.45.7v-.05q0-.55-.35-.95-.45-.35-.95-.35-.6 0-1 .35l-.1.15-.15.3-.1.5.35.95q.4.4 1 .4.5 0 .95-.4l.3-.55" fill="#f39" transform="translate(17.6 -1.75)"/><path d="M-13.2 8.1v-.05.05" fill="#fff" transform="translate(17.6 -1.75)"/><path d="M8.25 2.45q-.45.1-.3 1.6.2 1.5 1.75 2.35l-3.4.4q-.6.3-1.2.75L4.05 8.7l-.25-.25Q3.35 8 2.7 8q-.65 0-1.15.25l-.05.05q-.4.3-.45 1 0 .7.5 1.25.5.5 1.15.5h.25q-.2 1.85.95 3.2 1.2 1.35 3.2 1.05l3.8-.1 2.6.35h1.2q.9-.15 1.7-.65l1.05-1.15.15-.6q.15-1.45-.4-2.85v-.05l-.15-.35-.05-.15q-.4-.85-1.4-1.65.1-.8-.25-1.65-.6-1.8-1.85-3.3l-.85-.85-.9-.5h-.5l-.6.3q-.45.3.9 2.3L9.9 2.65l-1.05-.3-.6.1m5 5.65v-.05.05m1.35 3.1v.15q0 .65-.5 1.15-.5.5-1.15.5-.7 0-1.15-.5-.5-.45-.5-1.1 0-.75.5-1.25.45-.5 1.15-.45.65-.05 1.15.45l.45.7v-.05q0-.55.35-.95.45-.35.95-.35.6 0 1 .35l.1.15.15.3.1.5-.35.95q-.4.4-1 .4-.5 0-.95-.4l-.3-.55m-1.7-.15-.1.3.1.25.3.15.3-.15.15-.25-.15-.3q-.15-.15-.3-.15-.2 0-.3.15m3.15-.25-.1-.25-.25-.1-.25.1-.1.25.1.25.25.1.25-.1.1-.25" fill="#f39" transform="translate(17.6 -1.75)"/><path d="M13.25 8.1v-.05.05" fill="#fff" transform="translate(17.6 -1.75)"/></g></defs></svg>