<svg height="74.191" width="134.124" xmlns:xlink="http://www.w3.org/1999/xlink" xmlns="http://www.w3.org/2000/svg"><g transform="translate(-78.238 9.827)"><use height="49.2" transform="translate(111.35 -9.85)" width="18.15" xlink:href="#a"/><use height="49.2" transform="translate(100.45 8.05)" width="18.15" xlink:href="#a"/><use height="30.35" transform="translate(103.75 18.6)" width="25" xlink:href="#b"/><use height="49.2" transform="matrix(-1 0 0 1 177.8 -9.25)" width="18.15" xlink:href="#a"/><use height="49.2" transform="matrix(-1 0 0 1 190.15 8.05)" width="18.15" xlink:href="#a"/><use height="30.35" transform="matrix(-1 0 0 1 185.3 18.95)" width="25" xlink:href="#b"/><use height="37.35" transform="translate(119.45 5.95)" width="49.85" xlink:href="#c"/><g style="font-size:40px;line-height:1.25;letter-spacing:0;display:inline;stroke:#2682b1;stroke-width:13"><path d="M47.1 39.164v-7.606l.098-1.258q.509-3.52 2.516-5.249 2.029-1.744 6.071-1.744h.457q.307 0 .464-.03h.944q1.67 0 2.643.15.853.142 2.081.644 1.175.479 2.269 1.475 1.055.958 1.564 2.298.524 1.385.524 2.396 0 2.298-1.474 2.478-1.356.217-2.022.217-.367.03-.89.03-2.172 0-2.943-.764-.846-.756-.981-2.702 0-.727-.95-1.22l-.398-.128q-.127-.03-.524-.03-1.475 0-1.475 1.902l-.03.494v9.224l.098.584q.411 1.535 1.594 1.535.225 0 .734-.09.494-.09.861-.771.367-.697.367-2.449 0-.846 1.04-1.474 1.064-.644 2.733-.644 2.239 0 3.19.673.98.704.98 2.18 0 .366-.03.583-.112.637-.127.764-.045.45-.277.95-.68 2.06-2.358 3.22-1.7 1.153-3.377 1.385-1.714.225-2.448.27-.524.037-1.288.037l-.71-.037-.914-.03q-1.333 0-2.12-.18-.928-.21-3.009-1.228-2.216-1.018-2.815-4.941zm21.346 5.092v-18.77q0-.48.524-.861.464-.345 1.505-.644 1.063-.247 1.962-.247.86 0 1.257.097.554.12.794.18l.464.187q.172.067.337.15.472.262.764.614.337.381.337.733v5.428q.756.098 1.594.098.787 0 2.03-.158v-5.705q0-.277.336-.614.247-.247 1.13-.606.765-.314 1.348-.404.562-.09 1.109-.09h.336q.951.09 1.902.367.929.344 1.348.674.434.389.434.89v18.95q0 .382-.404.741-.457.397-1.468.794-.606.195-1.355.277-2.336 0-3.122-.487-.816-.426-1.228-.89-.367-.412-.367-.675V37.6q-.292-.083-1.018-.128-.457-.03-.764-.03h-1.377q-.292.045-.464.098v6.895q0 .464-.397.861-.39.39-1.13.674-.674.277-1.783.427h-.83q-.502 0-1.468-.18-.98-.15-1.662-.644-.674-.494-.674-1.317zm21.712.576V25.358q0-.374.375-.703.24-.24 1.317-.704l1.1-.277q.547-.09 1.109-.09h.367q.614 0 .793.03.068.015.307.082.247.068.802.225.793.262 1.317.644.457.412.457.793v19.354q0 .42-.457.734-.591.382-1.752.674l-1.258.187q-.456 0-.673-.03h-.674q-.809-.082-1.595-.337-.786-.254-1.13-.524-.405-.262-.405-.584zm12.638 1.258q-1.49-.285-1.961-.584-.524-.33-.524-.764V26.983q0-1.108 1.108-1.991 1.063-.824 2.605-1.101 1.587-.247 2.486-.247 1.46 0 2.515.09 1.168.164 1.902.404.958.352 1.468.704.561.382.703.92l1.872 7.42 1.782-7.18q.127-.606.794-1.13.621-.472 1.969-.891 1.362-.427 3.399-.427 1.976 0 3.624.547 1.67.628 2.298 1.168.644.598.644 1.474v17.85q0 .381-.277.673-.345.33-1.138.644l-1.19.307q-.555.06-1.288.06-.277 0-.771-.06-.33-.037-1.161-.277-.794-.24-1.198-.554-.464-.33-.464-.674V32.845l-3.122 11.53q-.232.779-1.138 1.318-.951.584-2.486.584h-.367q-.591 0-1.535-.187-.973-.18-1.684-.704-.711-.487-.951-1.318l-2.882-11.223v11.68q0 .397-.457.771-.472.345-1.228.584-.577.172-1.108.24-.554.067-.824.067-.868 0-1.415-.097zm30.113-.09q-.54 0-.854-.457-.374-.419-.374-1.198V25.18q0-.547.464-.921.427-.337 1.198-.337h11.433q3.369 0 4.881 1.288 1.535 1.31 1.535 4.11 0 .457-.037.704-.023.194-.06.614-.03.411-.06.793-.09 1.026-1.07 1.902-1.079.936-1.813 1.228l-.643.217.396.217q2.022.966 2.913 2.052.86 1.078.86 2.732 0 .592-.186 1.992-.225 1.437-1.468 2.635-1.303 1.213-3.773 1.535l-1.04.06zm7.083-16.958q-.03.247-.03.644-.03.217-.03.487v.74q0 .487.03.734l.067.891h.734q1.04 0 1.684-.464.614-.471.614-1.19 0-.247-.15-.711l-.246-.427q-.33-.42-.704-.554-.464-.15-1.228-.15zm-.12 8.123V41h1.07q.644 0 1.079-.06.307-.045.853-.457.524-.42.524-1.198 0-.157-.247-1.168-.224-.95-2.328-.95zm13.836 2.029-.068-1.317v-5.893l.068-1.287q0-3.242 1.407-4.785 1.445-1.542 3.804-2.081 2.358-.554 4.29-.554 1.872 0 4.267.517 2.321.554 3.647 2.059 1.31 1.49 1.624 4.844l.06 1.287v5.893l-.06 1.317q-.314 3.287-1.624 4.785-1.37 1.557-3.677 2.05-2.365.555-4.237.555-1.894 0-4.26-.554-2.359-.54-3.804-2.081-1.437-1.543-1.437-4.755zm7.876.981q0 1.498 1.595 1.498 1.654 0 1.654-1.498v-10.49q0-1.504-1.654-1.504-1.595 0-1.595 1.505zm12.518 4.2q-.277-.584-.277-1.168 0-.95.951-2.268l8.094-11.47h-6.656q-.322 0-.584-.307-.315-.367-.517-.951-.277-.629-.277-1.408 0-.426.03-.554l.12-.456q.3-.899.77-1.415.413-.457.892-.457h15.086q.412 0 .891.337.374.3.824 1.04.396.667.396 1.348 0 1.093-1.1 2.703l-7.33 10.856 5.922.06q1.13 0 1.805.674.644.689.644 1.991 0 .427-.06.861l-.12.524Q193.104 46 192.01 46h-15.947q-.36 0-.771-.277-.412-.225-.884-.861z" style="font-size:30.6667px;font-family:'Jagger SF';-inkscape-font-specification:'Jagger SF, Normal'" aria-label="CHIMBOZ" transform="translate(74.41 31.45) scale(.58753)"/></g><g fill-rule="evenodd"><path d="m209.13 44.582 1.292-.03.852.735q.793.793 1.028 1.674.265.97-.646 3.349l-.44 1.38q-.147.676.47 3.232l.235 1.38q.088.97-.852 2.233-.97 1.234-2.086 1.616l-3.584-.176-1.792-.265.03.705q0 1.91-1.234 2.497-1.087.559-2.997.47-1.821-.088-2.732-.675-1.821-1.116-2.497-5.259-.205-1.439-1.145-2.026l-2.967.176q-.5.059-.882-.323-.352-.294-.352-.852v-7.344q0-1.175 1.175-1.175h2.79l-.058.029q1.821-.118 3.525.646 2.233 1.058 2.879 3.29.47 1.734 1.175 2.027l.91-.029.06-.294q0-.94-.353-1.704-.235-.44-.235-.998 0-.47.205-.852.5-1.028 1.969-1.293.793-.176 2.32.382 1.616.558 2.82.617l.441-.118q.44-.558.176-1.85-.146-.764.5-1.175" fill="#2682b1"/><path d="m231.35 24 1 .8q1.05 1.05 1.3 2.1.45 1.65-1.9 7.2-.35 1.95 1.25 8.35.05.9-1.15 2.45-1.2 1.6-2.5 2.05l-5.2-.4-4.8-.3q-.55.3-.5 2.65.05 2.35-1 2.85-1.35.7-4.05.6-2.6-.15-3.75-.85-2.4-1.45-3.3-7.55-.35-2.55-1.95-4.1l-1.5-1.1-5.65.35-3.85-1.1 3.85-11.4h4.75l3.8.5q4 1.25 5.05 4.8 1.85 6.35 6.45 4.65 1.25-.45 1.1-2.8-.1-1.85-.75-3.25-.9-2 1.9-2.55.8-.15 3.2.7 2.8.95 5.05 1.05 4.25.2 3.15-5.7" fill="#fff" style="display:inline" transform="translate(73.881 31.45) scale(.58753)"/><path d="M44.55 26.3q2 0 2 2v12.5q0 .85-.6 1.45-.65.55-1.5.55l-5.05-.35q-1.6 1.2-1.95 3.45-1.05 7-4.25 9-1.55.95-4.65 1.1-3.25.15-5.1-.8-2.1-1-2.1-4.25l.05-1.15-3 .4-6.15.3q-1.9-.65-3.5-2.75-1.65-2.1-1.5-3.8l.4-2.3q1.05-4.4.85-5.55l-.8-2.3q-1.5-4-1.1-5.75.6-2.35 3.2-4.05 1.1-.75 2.2 0t.85 2.05q-.45 2.15.3 3.15l.75.2 4.8-1.1q2.65-.9 3.95-.65 2.5.55 3.35 2.2l.35 1.5q0 .9-.35 1.65-.6 1.35-.6 2.9l.05.55q1 .3 1.6 0Q28.2 35.9 29 33q1.3-4.3 5.9-5.95 3.05-1.1 5-.75h4.65" fill="#2682b1" style="display:inline" transform="translate(74.41 31.45) scale(.58753)"/><path d="M96.413 55.833q-.94.91-1.175 2.409-.53 3.554-1.94 4.465-.675.411-2.202.47-1.557.088-2.38-.323-.587-.323-.558-1.704.03-1.38-.323-1.557l-2.82.176-3.026.235q-.764-.264-1.498-1.204-.705-.91-.647-1.44.911-3.76.705-4.905-1.38-3.232-1.116-4.23.147-.618.793-1.205l.588-.5q-.676 3.467 1.821 3.35 1.352-.06 2.967-.618 1.41-.499 1.88-.41 1.704.352 1.117 1.497-.382.882-.441 1.94-.088 1.38.646 1.644 2.732.97 3.79-2.761.617-2.086 2.967-2.79l2.232-.295h2.791v7.345l-3.29-.206q-.411.176-.881.617" fill="#fff"/></g><g style="font-size:40px;line-height:1.25;letter-spacing:0;display:inline;stroke:#f5ffff;stroke-width:9"><path d="M47.1 39.164v-7.606l.098-1.258q.509-3.52 2.516-5.249 2.029-1.744 6.071-1.744h.457q.307 0 .464-.03h.944q1.67 0 2.643.15.853.142 2.081.644 1.175.479 2.269 1.475 1.055.958 1.564 2.298.524 1.385.524 2.396 0 2.298-1.474 2.478-1.356.217-2.022.217-.367.03-.89.03-2.172 0-2.943-.764-.846-.756-.981-2.702 0-.727-.95-1.22l-.398-.128q-.127-.03-.524-.03-1.475 0-1.475 1.902l-.03.494v9.224l.098.584q.411 1.535 1.594 1.535.225 0 .734-.09.494-.09.861-.771.367-.697.367-2.449 0-.846 1.04-1.474 1.064-.644 2.733-.644 2.239 0 3.19.673.98.704.98 2.18 0 .366-.03.583-.112.637-.127.764-.045.45-.277.95-.68 2.06-2.358 3.22-1.7 1.153-3.377 1.385-1.714.225-2.448.27-.524.037-1.288.037l-.71-.037-.914-.03q-1.333 0-2.12-.18-.928-.21-3.009-1.228-2.216-1.018-2.815-4.941zm21.346 5.092v-18.77q0-.48.524-.861.464-.345 1.505-.644 1.063-.247 1.962-.247.86 0 1.257.097.554.12.794.18l.464.187q.172.067.337.15.472.262.764.614.337.381.337.733v5.428q.756.098 1.594.098.787 0 2.03-.158v-5.705q0-.277.336-.614.247-.247 1.13-.606.765-.314 1.348-.404.562-.09 1.109-.09h.336q.951.09 1.902.367.929.344 1.348.674.434.389.434.89v18.95q0 .382-.404.741-.457.397-1.468.794-.606.195-1.355.277-2.336 0-3.122-.487-.816-.426-1.228-.89-.367-.412-.367-.675V37.6q-.292-.083-1.018-.128-.457-.03-.764-.03h-1.377q-.292.045-.464.098v6.895q0 .464-.397.861-.39.39-1.13.674-.674.277-1.783.427h-.83q-.502 0-1.468-.18-.98-.15-1.662-.644-.674-.494-.674-1.317zm21.712.576V25.358q0-.374.375-.703.24-.24 1.317-.704l1.1-.277q.547-.09 1.109-.09h.367q.614 0 .793.03.068.015.307.082.247.068.802.225.793.262 1.317.644.457.412.457.793v19.354q0 .42-.457.734-.591.382-1.752.674l-1.258.187q-.456 0-.673-.03h-.674q-.809-.082-1.595-.337-.786-.254-1.13-.524-.405-.262-.405-.584zm12.638 1.258q-1.49-.285-1.961-.584-.524-.33-.524-.764V26.983q0-1.108 1.108-1.991 1.063-.824 2.605-1.101 1.587-.247 2.486-.247 1.46 0 2.515.09 1.168.164 1.902.404.958.352 1.468.704.561.382.703.92l1.872 7.42 1.782-7.18q.127-.606.794-1.13.621-.472 1.969-.891 1.362-.427 3.399-.427 1.976 0 3.624.547 1.67.628 2.298 1.168.644.598.644 1.474v17.85q0 .381-.277.673-.345.33-1.138.644l-1.19.307q-.555.06-1.288.06-.277 0-.771-.06-.33-.037-1.161-.277-.794-.24-1.198-.554-.464-.33-.464-.674V32.845l-3.122 11.53q-.232.779-1.138 1.318-.951.584-2.486.584h-.367q-.591 0-1.535-.187-.973-.18-1.684-.704-.711-.487-.951-1.318l-2.882-11.223v11.68q0 .397-.457.771-.472.345-1.228.584-.577.172-1.108.24-.554.067-.824.067-.868 0-1.415-.097zm30.113-.09q-.54 0-.854-.457-.374-.419-.374-1.198V25.18q0-.547.464-.921.427-.337 1.198-.337h11.433q3.369 0 4.881 1.288 1.535 1.31 1.535 4.11 0 .457-.037.704-.023.194-.06.614-.03.411-.06.793-.09 1.026-1.07 1.902-1.079.936-1.813 1.228l-.643.217.396.217q2.022.966 2.913 2.052.86 1.078.86 2.732 0 .592-.186 1.992-.225 1.437-1.468 2.635-1.303 1.213-3.773 1.535l-1.04.06zm7.083-16.958q-.03.247-.03.644-.03.217-.03.487v.74q0 .487.03.734l.067.891h.734q1.04 0 1.684-.464.614-.471.614-1.19 0-.247-.15-.711l-.246-.427q-.33-.42-.704-.554-.464-.15-1.228-.15zm-.12 8.123V41h1.07q.644 0 1.079-.06.307-.045.853-.457.524-.42.524-1.198 0-.157-.247-1.168-.224-.95-2.328-.95zm13.836 2.029-.068-1.317v-5.893l.068-1.287q0-3.242 1.407-4.785 1.445-1.542 3.804-2.081 2.358-.554 4.29-.554 1.872 0 4.267.517 2.321.554 3.647 2.059 1.31 1.49 1.624 4.844l.06 1.287v5.893l-.06 1.317q-.314 3.287-1.624 4.785-1.37 1.557-3.677 2.05-2.365.555-4.237.555-1.894 0-4.26-.554-2.359-.54-3.804-2.081-1.437-1.543-1.437-4.755zm7.876.981q0 1.498 1.595 1.498 1.654 0 1.654-1.498v-10.49q0-1.504-1.654-1.504-1.595 0-1.595 1.505zm12.518 4.2q-.277-.584-.277-1.168 0-.95.951-2.268l8.094-11.47h-6.656q-.322 0-.584-.307-.315-.367-.517-.951-.277-.629-.277-1.408 0-.426.03-.554l.12-.456q.3-.899.77-1.415.413-.457.892-.457h15.086q.412 0 .891.337.374.3.824 1.04.396.667.396 1.348 0 1.093-1.1 2.703l-7.33 10.856 5.922.06q1.13 0 1.805.674.644.689.644 1.991 0 .427-.06.861l-.12.524Q193.104 46 192.01 46h-15.947q-.36 0-.771-.277-.412-.225-.884-.861z" style="font-size:30.6667px;font-family:'Jagger SF';-inkscape-font-specification:'Jagger SF, Normal'" aria-label="CHIMBOZ" transform="translate(74.41 31.45) scale(.58753)"/></g><g style="font-size:40px;line-height:1.25;letter-spacing:0;display:inline;opacity:1;fill:none;stroke:url(#d);stroke-width:1.88976" transform="translate(74.41 31.45) scale(.58753)"><path d="M47.1 40.164v-7.606l.098-1.258q.509-3.52 2.516-5.249 2.029-1.744 6.071-1.744h.457q.307 0 .464-.03h.944q1.67 0 2.643.15.853.142 2.081.644 1.175.479 2.269 1.475 1.055.958 1.564 2.298.524 1.385.524 2.396 0 2.298-1.474 2.478-1.356.217-2.022.217-.367.03-.89.03-2.172 0-2.943-.764-.846-.756-.981-2.702 0-.727-.95-1.22l-.398-.128q-.127-.03-.524-.03-1.475 0-1.475 1.902l-.03.494v9.224l.098.584q.411 1.535 1.594 1.535.225 0 .734-.09.494-.09.861-.771.367-.697.367-2.449 0-.846 1.04-1.474 1.064-.644 2.733-.644 2.239 0 3.19.673.98.704.98 2.18 0 .366-.03.583-.112.637-.127.764-.045.45-.277.95-.68 2.06-2.358 3.22-1.7 1.153-3.377 1.385-1.714.225-2.448.27-.524.037-1.288.037l-.71-.037-.914-.03q-1.333 0-2.12-.18-.928-.21-3.009-1.228-2.216-1.018-2.815-4.941zm21.346 5.092v-18.77q0-.48.524-.861.464-.345 1.505-.644 1.063-.247 1.962-.247.86 0 1.257.097.554.12.794.18l.464.187q.172.067.337.15.472.262.764.614.337.381.337.733v5.428q.756.098 1.594.098.787 0 2.03-.158v-5.705q0-.277.336-.614.247-.247 1.13-.606.765-.314 1.348-.404.562-.09 1.109-.09h.336q.951.09 1.902.367.929.344 1.348.674.434.389.434.89v18.95q0 .382-.404.741-.457.397-1.468.794-.606.195-1.355.277-2.336 0-3.122-.487-.816-.426-1.228-.89-.367-.412-.367-.675V38.6q-.292-.083-1.018-.128-.457-.03-.764-.03h-1.377q-.292.045-.464.098v6.895q0 .464-.397.861-.39.39-1.13.674-.674.277-1.783.427h-.83q-.502 0-1.468-.18-.98-.15-1.662-.644-.674-.494-.674-1.317zm21.712.576V26.358q0-.374.375-.703.24-.24 1.317-.704l1.1-.277q.547-.09 1.109-.09h.367q.614 0 .793.03.068.015.307.082.247.068.802.225.793.262 1.317.644.457.412.457.793v19.354q0 .42-.457.734-.591.382-1.752.674l-1.258.187q-.456 0-.673-.03h-.674q-.809-.082-1.595-.337-.786-.254-1.13-.524-.405-.262-.405-.584zm12.638 1.258q-1.49-.285-1.961-.584-.524-.33-.524-.764V27.983q0-1.108 1.108-1.991 1.063-.824 2.605-1.101 1.587-.247 2.486-.247 1.46 0 2.515.09 1.168.164 1.902.404.958.352 1.468.704.561.382.703.92l1.872 7.42 1.782-7.18q.127-.606.794-1.13.621-.472 1.969-.891 1.362-.427 3.399-.427 1.976 0 3.624.547 1.67.628 2.298 1.168.644.598.644 1.474v17.85q0 .381-.277.673-.345.33-1.138.644l-1.19.307q-.555.06-1.288.06-.277 0-.771-.06-.33-.037-1.161-.277-.794-.24-1.198-.554-.464-.33-.464-.674V33.845l-3.122 11.53q-.232.779-1.138 1.318-.951.584-2.486.584h-.367q-.591 0-1.535-.187-.973-.18-1.684-.704-.711-.487-.951-1.318l-2.882-11.223v11.68q0 .397-.457.771-.472.345-1.228.584-.577.172-1.108.24-.554.067-.824.067-.868 0-1.415-.097zm30.113-.09q-.54 0-.854-.457-.374-.419-.374-1.198V26.18q0-.547.464-.921.427-.337 1.198-.337h11.433q3.369 0 4.881 1.288 1.535 1.31 1.535 4.11 0 .457-.037.704-.023.194-.06.614-.03.411-.06.793-.09 1.026-1.07 1.902-1.079.936-1.813 1.228l-.643.217.396.217q2.022.966 2.913 2.052.86 1.078.86 2.732 0 .592-.186 1.992-.225 1.437-1.468 2.635-1.303 1.213-3.773 1.535l-1.04.06zm7.083-16.958q-.03.247-.03.644-.03.217-.03.487v.74q0 .487.03.734l.067.891h.734q1.04 0 1.684-.464.614-.471.614-1.19 0-.247-.15-.711l-.246-.427q-.33-.42-.704-.554-.464-.15-1.228-.15zm-.12 8.123V42h1.07q.644 0 1.079-.06.307-.045.853-.457.524-.42.524-1.198 0-.157-.247-1.168-.224-.95-2.328-.95zm13.836 2.029-.068-1.317v-5.893l.068-1.287q0-3.242 1.407-4.785 1.445-1.542 3.804-2.081 2.358-.554 4.29-.554 1.872 0 4.267.517 2.321.554 3.647 2.059 1.31 1.49 1.624 4.844l.06 1.287v5.893l-.06 1.317q-.314 3.287-1.624 4.785-1.37 1.557-3.677 2.05-2.365.555-4.237.555-1.894 0-4.26-.554-2.359-.54-3.804-2.081-1.437-1.543-1.437-4.755zm7.876.981q0 1.498 1.595 1.498 1.654 0 1.654-1.498v-10.49q0-1.504-1.654-1.504-1.595 0-1.595 1.505zm12.518 4.2q-.277-.584-.277-1.168 0-.95.951-2.268l8.094-11.47h-6.656q-.322 0-.584-.307-.315-.367-.517-.951-.277-.629-.277-1.408 0-.426.03-.554l.12-.456q.3-.899.77-1.415.413-.457.892-.457h15.086q.412 0 .891.337.374.3.824 1.04.396.667.396 1.348 0 1.093-1.1 2.703l-7.33 10.856 5.922.06q1.13 0 1.805.674.644.689.644 1.991 0 .427-.06.861l-.12.524Q193.104 47 192.01 47h-15.947q-.36 0-.771-.277-.412-.225-.884-.861z" style="font-size:30.6667px;font-family:'Jagger SF';-inkscape-font-specification:'Jagger SF, Normal';stroke:url(#e)" aria-label="CHIMBOZ"/></g><g style="font-size:40px;line-height:1.25;letter-spacing:0;display:inline;fill:url(#f);stroke:#d20476" transform="translate(74.41 31.45) scale(.58753)"><path style="font-size:30.6667px;font-family:'Jagger SF';-inkscape-font-specification:'Jagger SF, Normal';fill:url(#g);fill-opacity:1;stroke:#d20476;stroke-opacity:1" d="M56.707 23.277c-.105.02-.26.03-.465.03h-.457c-2.695 0-4.72.58-6.072 1.744-1.338 1.153-2.176 2.902-2.516 5.248l-.095 1.258v7.607l.066.914c.4 2.616 1.337 4.263 2.814 4.942 1.388.678 2.391 1.088 3.01 1.228.524.12 1.23.18 2.12.18l.913.029.711.037c.51 0 .938-.012 1.287-.037.49-.03 1.307-.12 2.45-.27 1.118-.154 2.244-.616 3.377-1.384 1.118-.774 1.903-1.848 2.357-3.221a2.98 2.98 0 0 0 .277-.951c.01-.085.052-.34.127-.764.02-.145.032-.34.032-.584 0-.983-.329-1.708-.983-2.178-.634-.449-1.697-.673-3.19-.673-1.112 0-2.023.215-2.732.644-.694.42-1.04.91-1.04 1.475 0 1.168-.121 1.983-.366 2.447-.245.454-.532.712-.861.772-.34.06-.585.09-.735.09-.788 0-1.319-.513-1.593-1.536l-.098-.584v-9.222l.03-.495c0-1.267.49-1.902 1.474-1.902.264 0 .44.01.525.03l.397.126c.634.33.95.737.95 1.221.09 1.298.417 2.2.981 2.703.514.51 1.494.764 2.942.764.35 0 .646-.01.89-.03.445 0 1.118-.072 2.022-.216.983-.12 1.476-.946 1.476-2.479 0-.674-.176-1.473-.525-2.396a5.882 5.882 0 0 0-1.564-2.3c-.73-.663-1.484-1.154-2.268-1.474-.819-.334-1.513-.55-2.082-.644-.649-.1-1.53-.149-2.643-.149zm106.502 0c-1.288 0-2.719.184-4.291.553-1.572.36-2.84 1.054-3.803 2.082-.938 1.028-1.408 2.624-1.408 4.785l-.066 1.287v5.893l.066 1.316c0 2.142.48 3.728 1.438 4.756.963 1.028 2.232 1.72 3.804 2.08 1.577.37 2.997.555 4.26.555 1.248 0 2.661-.185 4.238-.555 1.538-.33 2.763-1.012 3.676-2.05.874-.999 1.415-2.594 1.625-4.786l.059-1.316v-5.893l-.059-1.287c-.21-2.236-.751-3.852-1.625-4.845-.883-1.004-2.1-1.69-3.646-2.059-1.598-.344-3.02-.516-4.268-.516zm-40.295.278c-1.358 0-2.49.141-3.398.425-.899.28-1.557.577-1.971.891-.444.35-.708.727-.793 1.131l-1.781 7.18-1.873-7.42c-.095-.36-.33-.666-.703-.92-.34-.235-.828-.469-1.467-.703-.49-.16-1.124-.295-1.903-.405-.703-.06-1.542-.09-2.515-.09-.6 0-1.428.082-2.487.247-1.028.184-1.896.552-2.605 1.101-.739.59-1.107 1.252-1.107 1.99v17.76c0 .29.174.544.523.764.314.2.97.394 1.963.584.364.065.835.098 1.414.098a7.605 7.605 0 0 0 1.932-.307c.504-.16.914-.355 1.228-.584.305-.25.457-.507.457-.772v-11.68l2.883 11.223c.16.554.475.994.95 1.319.473.35 1.036.583 1.685.703.629.125 1.14.187 1.535.187h.367c1.023 0 1.85-.194 2.484-.584.604-.359.984-.799 1.14-1.318l3.12-11.53v11.868c0 .23.156.454.465.674.27.21.668.393 1.197.552.554.16.943.253 1.162.278.33.04.585.06.77.06.49 0 .92-.02 1.289-.06l1.19-.307c.529-.21.909-.425 1.138-.644a.95.95 0 0 0 .277-.674V26.744a1.94 1.94 0 0 0-.644-1.476c-.42-.36-1.186-.75-2.299-1.168-1.098-.365-2.305-.545-3.623-.545zm-28.855.029c-.375 0-.743.03-1.108.09l-1.101.277c-.72.31-1.157.544-1.317.703-.25.22-.375.454-.375.703v19.475c0 .215.135.41.404.584.23.18.607.354 1.131.523.524.17 1.055.283 1.594.338h.674c.145.02.37.03.674.03l1.258-.188c.773-.195 1.357-.42 1.752-.674.304-.21.457-.453.457-.732V25.357c0-.254-.153-.518-.457-.793-.35-.254-.788-.47-1.317-.644a92.331 92.331 0 0 0-1.11-.307c-.119-.02-.383-.029-.792-.029zm-10.121.06c-.365 0-.736.03-1.11.09-.39.06-.838.195-1.348.405-.589.24-.966.44-1.13.605-.225.225-.336.429-.336.613v5.706c-.829.104-1.506.158-2.03.158-.559 0-1.09-.033-1.593-.098v-5.428c0-.234-.114-.48-.338-.734a2.645 2.645 0 0 0-1.1-.764l-.465-.187c-.16-.04-.423-.1-.793-.18-.264-.065-.683-.096-1.257-.096-.6 0-1.255.082-1.963.246-.694.2-1.195.415-1.504.645-.35.255-.526.542-.526.861v18.77c0 .549.225.987.674 1.316.454.33 1.008.545 1.662.645.644.12 1.135.18 1.469.18h.83c.739-.1 1.334-.242 1.783-.426.494-.19.87-.415 1.13-.674.264-.265.398-.552.398-.861v-6.897c.114-.035.268-.068.463-.098h1.378c.205 0 .46.012.764.032.484.03.823.072 1.018.127v6.685c0 .175.122.4.367.674.274.31.682.606 1.226.89.525.325 1.566.489 3.123.489.5-.055.952-.148 1.356-.277.674-.265 1.162-.53 1.467-.795.27-.24.404-.486.404-.74v-18.95c0-.334-.144-.633-.434-.892-.28-.22-.728-.445-1.347-.674a10.228 10.228 0 0 0-1.903-.365zm49.406.276c-.514 0-.915.113-1.2.338-.309.25-.462.555-.462.92v19.168c0 .519.123.917.373 1.197.21.304.494.457.853.457h12.303l1.039-.06c1.647-.215 2.905-.727 3.773-1.536.829-.798 1.32-1.676 1.47-2.634.124-.934.187-1.598.187-1.993 0-1.103-.288-2.013-.862-2.732-.594-.724-1.564-1.407-2.912-2.05l-.398-.218.644-.216c.49-.195 1.094-.605 1.813-1.229.654-.584 1.01-1.219 1.07-1.902l.06-.793c.026-.28.044-.484.06-.614.024-.164.036-.4.036-.705 0-1.866-.51-3.236-1.533-4.109-1.008-.859-2.637-1.29-4.883-1.29zm43.304 0c-.319 0-.616.152-.89.457-.315.344-.572.817-.772 1.416l-.12.457c-.02.085-.03.268-.03.553 0 .519.093.989.277 1.408.135.39.306.707.516.951.175.205.37.307.584.307h6.656l-8.094 11.47c-.634.879-.949 1.634-.949 2.268 0 .39.09.779.276 1.168l.308.486c.315.425.608.712.883.862.274.184.532.277.771.277h15.948c.728 0 1.26-.56 1.593-1.684l.122-.525c.04-.29.058-.577.058-.861 0-.869-.213-1.531-.642-1.99-.45-.45-1.051-.674-1.805-.674l-5.922-.06 7.328-10.856c.734-1.074 1.102-1.975 1.102-2.704 0-.454-.132-.903-.397-1.347-.3-.494-.574-.842-.824-1.041-.32-.225-.616-.338-.89-.338zm-13.468 4.262c1.103 0 1.654.5 1.654 1.504v10.49c0 .998-.551 1.496-1.654 1.496-1.063 0-1.596-.498-1.596-1.496v-10.49c0-1.004.533-1.504 1.596-1.504zm-23.188.859h.74c.51 0 .92.05 1.229.15.25.09.483.276.703.555l.248.426c.1.31.149.546.149.71 0 .48-.204.878-.614 1.192-.429.31-.99.465-1.683.465h-.735l-.068-.893a6.618 6.618 0 0 1-.03-.732v-.742c0-.18.01-.342.03-.486 0-.265.011-.48.031-.645zm-.12 8.125h.95c1.403 0 2.179.315 2.328.95.165.673.248 1.062.248 1.167 0 .52-.174.92-.523 1.2-.364.274-.649.427-.854.456-.289.04-.648.059-1.078.059h-1.072v-1.773z" aria-label="CHIMBOZ"/></g></g><defs><linearGradient id="j"><stop style="stop-color:#ff0075;stop-opacity:1" offset="0"/><stop style="stop-color:#ff94c4;stop-opacity:1" offset="1"/></linearGradient><linearGradient gradientTransform="matrix(0 -.008 .0152 .0001 138.55 39.2)" gradientUnits="userSpaceOnUse" id="i" spreadMethod="pad" x1="-819.2" x2="819.2"><stop offset="0" stop-color="#dec1cc"/><stop offset="1" stop-color="#fff"/></linearGradient><linearGradient gradientTransform="matrix(0 -.0104 .0125 0 162.85 34.25)" gradientUnits="userSpaceOnUse" id="h" spreadMethod="pad" x1="-819.2" x2="819.2"><stop offset="0" stop-color="#ff0075"/><stop offset="1" stop-color="#ff94c4"/></linearGradient><linearGradient xlink:href="#h" id="f" x1="56.25" y1="46.75" x2="56.25" y2="23.4" gradientUnits="userSpaceOnUse"/><linearGradient xlink:href="#i" id="d" x1="66.087" y1="81.6" x2="66.137" y2="56.25" gradientUnits="userSpaceOnUse" gradientTransform="translate(-9.887 -32.85)"/><linearGradient xlink:href="#j" id="g" x1="56.707" y1="47.002" x2="56.707" y2="23.277" gradientUnits="userSpaceOnUse"/><linearGradient xlink:href="#i" id="e" gradientUnits="userSpaceOnUse" gradientTransform="translate(-9.887 -32.85)" x1="66.087" y1="81.6" x2="66.137" y2="56.25"/><g id="k" fill-rule="evenodd"><path d="M-5.6-38.05q-.1-2.2 1.35-3.8 1.5-1.65 3.7-1.75l1.3-.05q2.15-.1 3.8 1.45 1.6 1.45 1.7 3.65v.35q.1 2.2-1.4 3.8-1.45 1.65-3.65 1.7l-1.3.05q-2.2.1-3.8-1.35-1.6-1.5-1.7-3.7v-.35" fill="#d4e7f9" transform="translate(9.05 49.2)"/><path d="M7.75-30.4q.05 1.15-.75 2-.75.85-1.9.9l-8.65.35q-1.1.1-1.95-.7-.85-.8-.95-1.95-.05-1.15.75-2 .8-.85 1.95-.9l8.6-.35q1.15-.05 2 .7.85.8.9 1.95m.1 7.8q.05 1.5-.7 3.2-.85 1.9-1.95 1.95l-8.75.35q-1.05.05-2.05-1.75-.9-1.65-1-3.15-.05-1.3.75-2.25t2-1l8.75-.35q1.15-.05 2 .8.9.9.95 2.2m.35 8.5q.05 1.3-.75 2.25t-1.95 1l-8.75.35q-1.15.1-2.05-.8-.85-.9-.9-2.2-.05-1.3.7-2.25.8-.95 2-1l8.75-.4q1.15-.05 2.05.85.85.9.9 2.2m.3 6.75q.05 1.65-.65 4.1Q7-.45 5.95-.4L-2.8 0q-1.05.05-2.15-2.7-.9-2.35-1-4.05Q-6-8.05-5.2-9t1.95-1l8.75-.4q1.2-.05 2.05.85.9.9.95 2.2" fill="#d4e7f9" transform="translate(9.05 49.2)"/><path d="M1.4-43.7q1.5-.05 2.6 1.5 1.15 1.5 1.2 3.7l.05.35q.1 2.2-.9 3.8-1 1.6-2.5 1.65l-.9.05q-1.5.05-2.6-1.45t-1.2-3.7l-.05-.4q-.05-2.2.9-3.75 1-1.6 2.5-1.7l.9-.05" fill="#fdfafb" transform="translate(9.05 49.2)"/><path d="M6.35-30.35q.05 1.15-.5 2-.5.85-1.3.9l-5.85.25q-.8.05-1.4-.75-.55-.85-.65-2-.05-1.15.5-1.95.5-.85 1.3-.9l5.9-.25q.8-.05 1.4.75.55.8.6 1.95m.15 7.8q.1 1.45-.4 3.2-.55 1.85-1.3 1.9l-5.95.25q-.75.05-1.45-1.8-.65-1.65-.7-3.15-.05-1.3.45-2.2.55-.95 1.35-1l5.95-.25q.8-.05 1.4.85.6.95.65 2.2M4.8-17.1q.8-.05 1.45.85.6.9.65 2.2.05 1.3-.5 2.25t-1.35.95l-5.95.25q-.8.05-1.4-.85-.6-.9-.65-2.2-.05-1.3.45-2.2.55-.95 1.35-1l5.95-.25m2.35 9.8q.1 1.65-.35 4.1Q6.25-.4 5.5-.35L-.45-.1q-.75.05-1.5-2.7-.65-2.35-.75-4.1-.05-1.3.5-2.25.5-.9 1.3-.95l6-.25q.8-.05 1.4.85.6.9.65 2.2" fill="#fdfafb" transform="translate(9.05 49.2)"/><path d="M-6.85-33.8q-.05-2.05 1.55-2.55l1.45.6 4.4.3q3.95-.4 5.75-1.4l.8 1.75q.55 1.95-.6 2.9-1.55 1.25-5.9 1.5-4.75.35-7.1-1.2-.35-.9-.35-1.9" fill="#638bb7" transform="translate(9.05 49.2)"/><path d="m3.75-36 .6 2.3q.05 1.2-.4 2.55l-4.45.5q-2.6 0-4.45-.55-1-2.45.15-4.9 2.15 1 5.35.65l3.2-.55" fill="#8cb6e4" transform="translate(9.05 49.2)"/><path d="M6.85-24.55Q5.35-23.3.9-23q-4.75.3-7.1-1.2l-.35-1.95q0-2.05 1.55-2.55l1.45.6 4.4.3q3.95-.35 5.8-1.4l.8 1.8q.55 1.95-.6 2.85" fill="#638bb7" transform="translate(9.05 49.2)"/><path d="m4.05-28.3.65 2.25q0 1.35-.45 2.55l-4.4.55-4.45-.55q-.5-1.1-.45-2.45 0-1.35.55-2.5 2.25 1 5.35.65l3.2-.5" fill="#8cb6e4" transform="translate(9.05 49.2)"/><path d="M7.2-16q-1.55.9-5.95 1.15-4.75.25-7.1-.8l-.3-1.35q0-1.4 1.55-1.8l1.45.4 4.4.15q3.95-.3 5.8-1.05l.75 1.25q.55 1.35-.6 2.05" fill="#638bb7" transform="translate(9.05 49.2)"/><path d="m4.45-18.65.6 1.6q.05.75-.45 1.8-5.1.9-8.85.1-1-1.7.15-3.5l5.35.4 3.2-.4" fill="#8cb6e4" transform="translate(9.05 49.2)"/><path d="m7.35-12.55.75 1.3q.55 1.45-.6 2.15-1.55.95-6 1.25-4.75.25-7.05-.85l-.35-1.45q0-1.5 1.6-1.9l1.45.45 4.4.15q3.95-.35 5.8-1.1" fill="#638bb7" transform="translate(9.05 49.2)"/><path d="m4.75-11.9.6 1.7q.05.85-.45 1.9-4.9.95-8.85.1-1.05-1.75.15-3.7 2 .75 5.35.45l3.2-.45" fill="#8cb6e4" transform="translate(9.05 49.2)"/><path d="M-4.9-38.75q-3.4.35-4.05-1.2-.5-1.15 1.25-2.55l1.85-1.1q-.65-.05-1.3-.5-1.3-.95-1.4-3.15-.1-2.15 4.35-1 2.25.6 4.5 1.6.2-1.15 3.25-2.15 3.3-1 4.6.65Q9.4-46.6 7.35-46L5-45.7l1.2.4q1.25.45 2.2 1.75 1.2 1.6.3 2.85-.8 1.2-5.15.35l-4.2-1.1q-.7 2.3-4.25 2.7" fill="#638bb7" transform="translate(9.05 49.2)"/><path d="M-4.6-39.7q-3.75 1.25-4.35-.25-.5-1.15 1.25-2.55l1.85-1.1q-.65-.05-1.3-.5-1.3-.95-1.4-3.15-.1-2.15 4.35-1 2.25.6 4.5 1.6.2-1.15 3.25-2.15 3.3-1 4.6.65Q9.4-46.6 7.35-46L5-45.7l1.2.4q1.2.45 1.4.75.4.6-.6 1.8-1.55 1.85-4.4.8L0-43.4q-.75 2.4-4.6 3.7" fill="#9fc3ea" transform="translate(9.05 49.2)"/></g><g id="l" fill-rule="evenodd"><path d="m-9.9-2.5-.9-12q-2.25-1-1.5-3.65.45-1.7 1.8-3.4l1.9-2.05 1.2-1.15.6.55 1.35 1.5 1.85 1.15q1.15.65 1.6 2.7.45 2.15-.55 3.15-.45.5-1.05.55-.2 3.8.3 2.65.35-.75 2-1.65l1.55-.8-.45-5.5q-2.35-.4-2.35-2.75 0-2.2 1.35-3.1.75-.55 2.65-2.65l1.4-1.35q-.2.75 3.35 3.1 1.9 2.55.95 4.2-.45.85-1.3 1.15l.1 6.1.05-.2q.3-.45 1.25.35 2.25 1.75 3.55 4.85 1.9 4.5-.9 8.15Q7.2 1-1.65-.4L-9.9-2.5" fill="#295282" transform="translate(12.5 30.35)"/><path d="M-1.15-24.8q-.05-.6-.75-.7l.7-.8q.65-.45 1.75-1.65l1.65-1.9q.2.7 1.55 2.35 2.05 2.45-1.2 3.95-1.25.6-2.3.3-1.2-.3-1.4-1.55m-7.8 7.15q-1.65-.25-3.1-1.25l1.55-2.65 2.95-3.05 1.15 2.9q.7 1.7.2 2.9-.6 1.5-2.75 1.15M-9.9-2.5l-.9-12q-.55-.2-.95-.6l4.6.25.35 4.4q0 .5.5.7.45.15.8-.2l.55-.65q.65.2.85-.35l.6-1.4q.1.15.2-.15.35-.75 2-1.65l1.55-.8-.4-5 3.4-.15.2 4.85.35.55.65.1 6.2-1.35q1.65 1.35 1.85 5.05.25 4.55-2.6 8.3Q7.2 1-1.65-.4L-9.9-2.5" fill="#3875b9" transform="translate(12.5 30.35)"/></g><g id="c" fill-rule="evenodd"><path d="m163.5 35.2.15-1.65 5.65-1.2-.3 2.25-5.5.6m-44.05-2.3 5.65 1.25.1 1.1-5.7-1.15-.05-1.2" fill="#e2f6f7" transform="translate(-119.45 -5.95)"/><path d="M163.65 33.55q.65-16.85-15.35-21.2-4.65-1.15-9.25.45-12.35 4.05-13.7 17-.4 4.1.2 8.05l-.1-.5-.25-2.1-.1-1.1-5.65-1.25q-.15-11 7.1-18.9 7.25-7.95 17.6-8.05 10.3-.15 17.7 7.6 7.4 7.75 7.45 18.8l-5.65 1.2" fill="#fffffe" transform="translate(-119.45 -5.95)"/><path d="m163.3 36.85.2-1.65 5.5-.6.15-.05-.1 1.35-5.75.95m-38.1-1.6.25 2.1-5.8-1.1-.15-2.15 5.7 1.15" fill="#c6dbe0" transform="translate(-119.45 -5.95)"/><path d="m125.55 37.85.3 1.6-5.85-.85-.35-2.35 5.8 1.1.1.5m37.35 1.3.4-2.3 5.75-.95-.3 2.65-5.85.6m-42.75.55.3 1.35-.3-1.15v-.2" fill="#b2c8cc" transform="translate(-119.45 -5.95)"/><path d="m163.5 35.2-.2 1.65-.4 2.3-1.3 4.15h-.95q6.4-14.8-4.8-26-4-3.95-9.55-4.45-15.9-.15-19.8 15.3-1.25 4.85-.2 9.65.6 2.85 1.75 5.5h-.95l-1.25-3.85-.3-1.6q-.6-3.95-.2-8.05 1.35-12.95 13.7-17 4.6-1.6 9.25-.45 16 4.35 15.35 21.2l-.15 1.65" fill="#a7b6c7" transform="translate(-119.45 -5.95)"/><path d="m125.85 39.45 1.25 3.85-6.15-.35-.5-1.9-.3-1.35-.15-1.1 5.85.85m35.75 3.85 1.3-4.15 5.85-.6-.8 3.9-6.35.85" fill="#93afb2" transform="translate(-119.45 -5.95)"/><path d="M128.05 43.3q-1.15-2.65-1.75-5.5-1.05-4.8.2-9.65 3.9-15.45 19.8-15.3 5.55.5 9.55 4.45 11.2 11.2 4.8 26h-3.25q6.5-12.25-2.2-22.65-3.6-4.3-9.2-4.95-13.5-.1-16.75 13-1.1 4.55 0 9.15.7 2.8 2.1 5.45h-3.3" fill="#d3016c" transform="translate(-119.45 -5.95)"/></g><use height="49.2" width="18.15" xlink:href="#k" id="a"/><use height="30.35" width="25" xlink:href="#l" id="b"/></defs></svg>