<svg xmlns="http://www.w3.org/2000/svg" xmlns:xlink="http://www.w3.org/1999/xlink" width="84.85" height="82"><g transform="translate(37.4 42.25)"><use xlink:href="#a" width="32.05" height="38" transform="translate(-11.95 -17.45)"/><use xlink:href="#b" width="32.05" height="16.2" transform="translate(-11.95 2.65)"/><use xlink:href="#c" width="33.05" height="38.95" transform="translate(-12.45 -17.95)"/></g><defs><path id="d" fill="#6c0" fill-rule="evenodd" d="M27.35 7.4q2.15 4.15 3.55 8.75 1.45 4.7 1.15 9.5-.35 4.95-4.2 8.1-3.8 3.2-8.75 4.05l-2.6.2q-3.6 0-7.05-1.15-4.65-1.6-7.1-5.5Q-.2 27.4.05 23q.2-4.4 2-9.3Q3.85 8.75 7 5.05 10.1 1.3 14.7.1l1.8-.1q1.9.05 3.7.8 4.75 2.05 7.15 6.6" transform="translate(-.05)"/><path id="e" fill="#ff0" fill-rule="evenodd" d="M31.85 6.85q-.3 1.75-1.1 3.25-14.3 4.05-28.6 0l-.3-.55-.5-.95L.7 6.85q15.55 6.75 31.15 0m-6.25 8.4q-9.25 1.95-18.5 0l-.3-.15-.3-.2-1.55-1.3-.15-.1q11.4 2.2 23.2 0l-.2.15-2.2 1.6M32 1.9l.05 1.6q-15.3 8.3-32 0L0 2.1.1 0q16.3 9.25 31.65 0L32 1.9"/><path id="f" fill="none" stroke="#000" stroke-linecap="round" stroke-linejoin="round" d="M27.35 7.4Q24.95 2.85 20.2.8 17.55-.3 14.7.1 10.1 1.3 7 5.05q-3.15 3.7-4.95 8.65-1.8 4.9-2 9.3-.25 4.4 2.3 8.35 2.45 3.9 7.1 5.5 4.65 1.55 9.65.95 4.95-.85 8.75-4.05 3.85-3.15 4.2-8.1.3-4.8-1.15-9.5-1.4-4.6-3.55-8.75Z" transform="translate(.45 .5)"/><use xlink:href="#d" id="a" width="32.05" height="38"/><use xlink:href="#e" id="b" width="32.05" height="16.2"/><use xlink:href="#f" id="c" width="33.05" height="38.95"/></defs></svg>