<svg xmlns:xlink="http://www.w3.org/1999/xlink" height="82" width="84.85" xmlns="http://www.w3.org/2000/svg"><g transform="translate(37.4 42.25)"><use height="38" transform="translate(-11.95 -17.45)" width="32.05" xlink:href="#a"/><use height="21.6" transform="translate(-12.25 -17.95)" width="32.65" xlink:href="#b"/><use height="21.15" transform="translate(3.45 1.8)" width="21.45" xlink:href="#c"/><use height="21.15" transform="matrix(-1 0 0 1 4.55 1.8)" width="21.45" xlink:href="#c"/></g><defs><use height="38" width="32.05" xlink:href="#d" id="a"/><use height="21.6" width="32.65" xlink:href="#e" id="b"/><use height="21.15" width="21.45" xlink:href="#f" id="c"/><path d="M27.35 7.4q2.15 4.15 3.55 8.75 1.45 4.7 1.15 9.5-.35 4.95-4.2 8.1-3.8 3.2-8.75 4.05l-2.6.2q-3.6 0-7.05-1.15-4.65-1.6-7.1-5.5Q-.2 27.4.05 23q.2-4.4 2-9.3Q3.85 8.75 7 5.05 10.1 1.3 14.7.1l1.8-.1q1.9.05 3.7.8 4.75 2.05 7.15 6.6" fill="#fff" fill-rule="evenodd" transform="translate(-.05)" id="d"/><path d="M31.9 20.6q-.3-2.25-1-4.45-1.4-4.6-3.55-8.75-2.4-4.55-7.15-6.6-2.65-1.1-5.5-.7Q10.1 1.3 7 5.05q-3.15 3.7-4.95 8.65Q.7 17.3.25 20.6" fill="none" stroke="#000" stroke-linecap="round" stroke-linejoin="round" transform="translate(.25 .5)" id="e"/><g id="f"><path d="M14.15 10.45q-2.4 1.05-4.95 1.8L2.3 13.8l-2.85.1v-2.05l.05.15L1 10.7q.65-.55 1.5-.8 3.05-.6 5.75 1.3l.15-.5q.25-1.5-.65-2.6l4-2.5q2.55-2.1 3.4-5.6l.3 2.75q.35 4-1.3 7.7" fill="#f66" fill-rule="evenodd" transform="translate(1.05 .5)"/><path d="m15.8 11.2-1 1.05.4 1.75-1.1-1.05-1.7.7-.1 1.35-1.85-1-.65-.05-.7 1.45q-.6-.6-1.45-.65-.85-.05-1.35.35l-.85.9-.3-.35-.45-.3-1.45.05-.7 1.1q-.65-.8-1.65-1l-1.45.1v-1.7l2.85-.1 6.9-1.55q2.55-.75 4.95-1.8l1.65.75M7.75 8.1q.9 1.1.65 2.6l-.15.5Q5.55 9.3 2.5 9.9q-.85.25-1.5.8L-.5 12l-.05-.15V8.1L1.1 6.95q1-.75 2.15-.6 2.45.6 4.5 1.75" fill="#fcc" fill-rule="evenodd" transform="translate(1.05 .5)"/><path d="m-.55 15.6 1.45-.1q1 .2 1.65 1l.7-1.1 1.45-.05.45.3.3.35.85-.9q.5-.4 1.35-.35.85.05 1.45.65l.7-1.45.65.05 1.85 1 .1-1.35 1.7-.7L15.2 14l-.4-1.75 1-1.05 1.2.95q1.7 1.45 2.7 3.35.35.75.1 1.5-1.2.95-2.6.45l-1.1-.1-.65.25-.7.2-1.4-.2q-.5 1-1.3 1.25l-1.9-.05-.75 1-3.25-.5v.5l-1.65-.1-1.85-.25-.8.5q-1.2.5-2.4-.25v-4.1" fill="#f06" fill-rule="evenodd" transform="translate(1.05 .5)"/><path d="M-.55 19.7q1.2.75 2.4.25l.8-.5 1.85.25 1.65.1v-.5l3.25.5.75-1 1.9.05q.8-.25 1.3-1.25l1.4.2.7-.2.65-.25 1.1.1q1.4.5 2.6-.45.25-.75-.1-1.5-1-1.9-2.7-3.35l-1.2-.95M15.15 0l.3 2.75q.35 4-1.3 7.7" fill="none" stroke="#000" stroke-linecap="round" stroke-linejoin="round" transform="translate(1.05 .5)"/><path d="m7.75 8.1 4-2.5q2.55-2.1 3.4-5.6M-.55 8.1 1.1 6.95q1-.75 2.15-.6 2.45.6 4.5 1.75" fill="none" stroke="#f06" stroke-linecap="round" stroke-linejoin="round" transform="translate(1.05 .5)"/><path d="m15.8 11.2-1.65-.75" fill="none" stroke="#333" stroke-linecap="round" stroke-linejoin="round" transform="translate(1.05 .5)"/></g></defs></svg>