<svg xmlns="http://www.w3.org/2000/svg" xmlns:xlink="http://www.w3.org/1999/xlink" width="84.85" height="82"><g transform="translate(37.4 42.25)"><use xlink:href="#a" width="32.05" height="38" transform="translate(-11.95 -17.45)"/><use xlink:href="#b" width="32.65" height="21.6" transform="translate(-12.25 -17.95)"/><use xlink:href="#c" width="37" height="19" transform="translate(-14.6 2)"/></g><defs><path id="d" fill="#fff" fill-rule="evenodd" d="M27.35 7.4q2.15 4.15 3.55 8.75 1.45 4.7 1.15 9.5-.35 4.95-4.2 8.1-3.8 3.2-8.75 4.05l-2.6.2q-3.6 0-7.05-1.15-4.65-1.6-7.1-5.5Q-.2 27.4.05 23q.2-4.4 2-9.3Q3.85 8.75 7 5.05 10.1 1.3 14.7.1l1.8-.1q1.9.05 3.7.8 4.75 2.05 7.15 6.6" transform="translate(-.05)"/><path id="e" fill="none" stroke="#000" stroke-linecap="round" stroke-linejoin="round" d="M31.9 20.6q-.3-2.25-1-4.45-1.4-4.6-3.55-8.75-2.4-4.55-7.15-6.6-2.65-1.1-5.5-.7Q10.1 1.3 7 5.05q-3.15 3.7-4.95 8.65Q.7 17.3.25 20.6" transform="translate(.25 .5)"/><use xlink:href="#d" id="a" width="32.05" height="38"/><use xlink:href="#e" id="b" width="32.65" height="21.6"/><g id="c"><path fill="#018352" fill-rule="evenodd" d="m32.25 1.9 2.9-1.4q1.15.5 1.35 1.8l-.15.3-1.65 1.75-3.55 2.05-1.45.6 1.45-.6.3.85q1.05 3.2-.1 6.3l-.1.1-.8.65-4.85 2.95q1.65-1.75 1.9-4.3.2-2.5-.45-4.95l2.65-1-2.65 1-2.6.65-.05-1q-.25-1.55-1.4-2.7l5.6-1.45 3.65-1.6q.55 0 .95.75.4.75.4 1.85 0-1.1-.4-1.85t-.95-.75M29.7 7l.05-1.05Q29.8 4.3 28.6 3.5q1.2.8 1.15 2.45L29.7 7M13.4 17.55l-.35-.1q-3.3-1.1-5.8-3.5l-.5-.55-.05-.05q-.9-3-.8-6l.1-1.4 3.6 1.5 1.95.6-1.95-.6.65-3.5 2.2.65 6.9.7.65 3.85 2.5-.2q1 3.6-.45 7-.45 1.15-1.5 1.95l-1.2.05 1.2-.05-.9.6-.3-.55-.75-1.3q-1.85-3.55-1.75-7.6l3.15.1-3.15-.1-5.3-1 .25 3.75q.2 1.6 1.15 2.95L15.1 18l-.65-.15-1.05-.3M2.7 4.15l-.9-.3L.75 2.7q-.6-1.2.3-1.85h.7l3.5 1.1q-1.05.95-.95 2.3l.2.9-1.8-1M15.5 5.5l-.35.55q-.55 1-.5 2.15-.05-1.15.5-2.15l.35-.55"/><path fill="#096" fill-rule="evenodd" d="m31.15 6.4 3.55-2.05q.15 1.55-.2 3.15-.7 3.5-3.15 6.05 1.15-3.1.1-6.3l-.3-.85M25.6 17.25l-1.55.55-2.35.55-2.05.15-4-.45-.55-.05-2.15-3.25Q12 13.4 11.8 11.8l-.25-3.75 5.3 1q-.1 4.05 1.75 7.6l.75 1.3-3.7.1 3.7-.1.3.55.9-.6q1.05-.8 1.5-1.95 1.45-3.4.45-7l-2.5.2-.65-3.85L23 4.95q1.15 1.15 1.4 2.7l.05 1 2.6-.65q.65 2.45.45 4.95-.25 2.55-1.9 4.3m-18.9-3.9-1.65-2.3Q3 7.95 2.7 4.15l1.8 1-.2-.9q-.1-1.35.95-2.3l5 2-.65 3.5L6 5.95l-.1 1.4q-.1 3 .8 6m17.75-4.7-1.95.3 1.95-.3m-.4 9.15-3.5.1 3.5-.1M4.5 5.15l1.5.8-1.5-.8"/><path fill="none" stroke="#000" stroke-linecap="round" stroke-linejoin="round" d="m34.7 4.35 1.65-1.75.15-.3Q36.3 1 35.15.5l-2.9 1.4-3.65 1.6L23 4.95l-3.65.35-6.9-.7-2.2-.65-5-2-3.5-1.1h-.7q-.9.65-.3 1.85L1.8 3.85l.9.3q.3 3.8 2.35 6.9l1.65 2.3.05.05M29.7 7l1.45-.6 3.55-2.05q.15 1.55-.2 3.15-.7 3.5-3.15 6.05m-.1.1-.8.65-4.85 2.95-1.55.55-2.35.55-2.05.15-4-.45-.55.05-.65-.25.7.3-1.75-.6-.35-.1q-3.3-1.1-5.8-3.5M29.7 7l-2.65 1-2.6.65-1.95.3-2.5.2-3.15-.1-5.3-1-1.95-.6L6 5.95l-1.5-.8-1.8-1m16.65 13.8 1.2-.05 3.5-.1m-8.4.25L15.1 18l-.65-.15-1.05-.3m5.95.4-3.7.1"/><path fill="none" stroke="#060" stroke-linecap="round" stroke-linejoin="round" d="M32.25 1.9q.55 0 .95.75.4.75.4 1.85m-5-1q1.2.8 1.15 2.45L29.7 7m1.65 6.55-.1.1M15.1 18.1l.05.05m-7.9-4.2-.5-.55M27.05 8q.65 2.45.45 4.95-.25 2.55-1.9 4.3M31.15 6.4l.3.85q1.05 3.2-.1 6.3M14.65 8.2q-.05-1.15.5-2.15l.35-.55m7.5-.55q1.15 1.15 1.4 2.7l.05 1m-7.6.4q-.1 4.05 1.75 7.6l.75 1.3.3.55.9-.6q1.05-.8 1.5-1.95 1.45-3.4.45-7m-2.5.2-.65-3.85M15.1 18v.1M9.6 7.45l.65-3.5m-3.55 9.4q-.9-3-.8-6l.1-1.4M15.1 18l-2.15-3.25Q12 13.4 11.8 11.8l-.25-3.75M4.5 5.15l-.2-.9q-.1-1.35.95-2.3"/></g></defs></svg>