<svg xmlns="http://www.w3.org/2000/svg" xmlns:xlink="http://www.w3.org/1999/xlink" width="84.85" height="82"><g transform="translate(37.4 42.25)"><use xlink:href="#a" width="32.05" height="38" transform="translate(-11.95 -17.45)"/><use xlink:href="#b" width="33.05" height="38.95" transform="translate(-12.45 -17.95)"/><use xlink:href="#c" width="51.4" height="22.45" transform="translate(-15.15 -7.1)"/></g><defs><path id="d" fill="#fff" fill-rule="evenodd" d="M27.35 7.4q2.15 4.15 3.55 8.75 1.45 4.7 1.15 9.5-.35 4.95-4.2 8.1-3.8 3.2-8.75 4.05l-2.6.2q-3.6 0-7.05-1.15-4.65-1.6-7.1-5.5Q-.2 27.4.05 23q.2-4.4 2-9.3Q3.85 8.75 7 5.05 10.1 1.3 14.7.1l1.8-.1q1.9.05 3.7.8 4.75 2.05 7.15 6.6" transform="translate(-.05)"/><path id="e" fill="none" stroke="#000" stroke-linecap="round" stroke-linejoin="round" d="M27.35 7.4Q24.95 2.85 20.2.8 17.55-.3 14.7.1 10.1 1.3 7 5.05q-3.15 3.7-4.95 8.65-1.8 4.9-2 9.3-.25 4.4 2.3 8.35 2.45 3.9 7.1 5.5 4.65 1.55 9.65.95 4.95-.85 8.75-4.05 3.85-3.15 4.2-8.1.3-4.8-1.15-9.5-1.4-4.6-3.55-8.75Z" transform="translate(.45 .5)"/><use xlink:href="#d" id="a" width="32.05" height="38"/><use xlink:href="#e" id="b" width="33.05" height="38.95"/><g id="c"><path fill="#900" fill-rule="evenodd" d="m34.05 5.8-.2-.7q4.25.4 7.55-1.3Q43 3 44.05 2.05l.9 1.3 1.4 2.2 1.35 2.4.1.2.75 2.55Q47.9 12.15 46 13q-3.45 1.45-10.8-.4.85-1.1 1.4-2.75.5-1.7-2.55-4.05M8.8 21l-3.25-.8q-3-2.15-2.8-3.55.2-1.4.8-1.35l.1.1v-.05q4.05 2.35 10.2 2.6 5.6.5 11.25 0l3.2-.9q-4.9 2.1-8.3 2.85-5.55 1.3-11.2 1.1"/><path fill="#c00" fill-rule="evenodd" d="M34.05 5.8q3.05 2.35 2.55 4.05-.55 1.65-1.4 2.75l1.65 1.3-.1.65q-.45 1.85-1.95 3.2-12 6.2-26 3.25 5.65.2 11.2-1.1 3.4-.75 8.3-2.85l-3.2.9q-5.65.5-11.25 0-6.15-.25-10.2-2.6-.25-.9-.1-.05Q1.4 14.4.9 12.8.35 11.2.6 9.75q.25-1.45 3.15-4.4v.05q1.2 6.6 7.8 8.3 6.55 1.7 13.05.65 6.45-1.1 9.45-8.55m1.15 6.8q-3.8 3.5-6.9 4.45 3.1-.95 6.9-4.45"/><path fill="#fff" fill-rule="evenodd" d="M3.65 15.35v.05l-.1-.1q-.15-.85.1.05l-.1-.05.1.05"/><path fill="none" stroke="#000" stroke-linecap="round" stroke-linejoin="round" d="M35.2 12.6q7.35 1.85 10.8.4 1.9-.85 2.55-2.3l-.75-2.55-.1-.2-1.35-2.4-1.4-2.2-.9-1.3Q43 3 41.4 3.8q-3.3 1.7-7.55 1.3l.2.7q3.05 2.35 2.55 4.05-.55 1.65-1.4 2.75l1.65 1.3-.1.65q-.45 1.85-1.95 3.2-12 6.2-26 3.25l-3.25-.8q-3-2.15-2.8-3.55.2-1.4.8-1.35Q1.4 14.4.9 12.8.35 11.2.6 9.75q.25-1.45 3.15-4.4v.05q1.2 6.6 7.8 8.3 6.55 1.7 13.05.65 6.45-1.1 9.45-8.55M28.3 17.05q3.1-.95 6.9-4.45M8.8 21q5.65.2 11.2-1.1 3.4-.75 8.3-2.85l-3.2.9q-5.65.5-11.25 0-6.15-.25-10.2-2.6v.05l-.1-.1.1.05"/><path fill="none" stroke="#900" stroke-linecap="round" stroke-linejoin="round" d="M46.35 5.55Q48.2 5.2 48.7 3.7m-3.75-.35q1.45-.6 2.05-1.6m-2.95.3L45.35.5m3.2 10.2q1.85-.45 2.35-1.6m-3.2-1.15q1.9-.25 2.6-1.85"/></g></defs></svg>