<svg xmlns="http://www.w3.org/2000/svg" xmlns:xlink="http://www.w3.org/1999/xlink" width="84.85" height="82"><g transform="translate(37.4 42.25)"><use xlink:href="#a" width="32.05" height="38" transform="translate(-11.95 -17.45)"/><use xlink:href="#b" width="32.65" height="21.6" transform="translate(-12.25 -17.95)"/><use xlink:href="#c" width="34.9" height="21.15" transform="translate(-13.2 2.25)"/><use xlink:href="#d" width="31.05" height="14.45" transform="translate(-11.75 -.2)"/><use xlink:href="#e" width="7.6" height="8.35" transform="translate(9.65 13.1)"/><use xlink:href="#f" width="18.9" height="13.7" transform="translate(-7.8 9.3)"/><use xlink:href="#g" width="6.75" height="7.15" transform="translate(10.15 13.35)"/><use xlink:href="#h" width="35.7" height="6.7" transform="translate(-13.5 17.2)"/><use xlink:href="#i" width="3.5" height="19.4" transform="translate(18.7 .5)"/><use xlink:href="#j" width="2.7" height="18.25" transform="translate(-13.6 .45)"/><use xlink:href="#k" width="27.75" height="3.7" transform="translate(-10.8 6.5)"/><use xlink:href="#l" width="6.6" height="3.5" transform="translate(1.7 11)"/><use xlink:href="#m" width="12.5" height="10.55" transform="translate(-7.1 9.9)"/><use xlink:href="#n" width="3.4" height="4.25" transform="translate(12.1 15.95)"/><use xlink:href="#o" width="22.7" height="3.25" transform="translate(-8.35 8.8)"/><use xlink:href="#p" width="30.3" height="3.3" transform="translate(-11.75 4.6)"/><use xlink:href="#q" width="31.85" height="6.45" transform="translate(-12 -.4)"/></g><defs><use xlink:href="#r" id="a" width="32.05" height="38"/><use xlink:href="#s" id="b" width="32.65" height="21.6"/><use xlink:href="#t" id="c" width="34.9" height="21.15"/><use xlink:href="#u" id="d" width="31.05" height="14.45"/><use xlink:href="#v" id="e" width="7.6" height="8.35"/><use xlink:href="#w" id="f" width="18.9" height="13.7"/><use xlink:href="#x" id="g" width="6.75" height="7.15"/><use xlink:href="#y" id="h" width="35.7" height="6.7"/><use xlink:href="#z" id="i" width="3.5" height="19.4"/><use xlink:href="#A" id="j" width="2.7" height="18.25"/><use xlink:href="#B" id="k" width="27.75" height="3.7"/><use xlink:href="#C" id="l" width="6.6" height="3.5"/><use xlink:href="#D" id="m" width="12.5" height="10.55"/><use xlink:href="#E" id="n" width="3.4" height="4.25"/><use xlink:href="#F" id="o" width="22.7" height="3.25"/><use xlink:href="#G" id="p" width="30.3" height="3.3"/><use xlink:href="#H" id="q" width="31.85" height="6.45"/><path id="r" fill="#fff" fill-rule="evenodd" d="M27.35 7.4q2.15 4.15 3.55 8.75 1.45 4.7 1.15 9.5-.35 4.95-4.2 8.1-3.8 3.2-8.75 4.05l-2.6.2q-3.6 0-7.05-1.15-4.65-1.6-7.1-5.5Q-.2 27.4.05 23q.2-4.4 2-9.3Q3.85 8.75 7 5.05 10.1 1.3 14.7.1l1.8-.1q1.9.05 3.7.8 4.75 2.05 7.15 6.6" transform="translate(-.05)"/><path id="s" fill="none" stroke="#000" stroke-linecap="round" stroke-linejoin="round" d="M31.9 20.6q-.3-2.25-1-4.45-1.4-4.6-3.55-8.75-2.4-4.55-7.15-6.6-2.65-1.1-5.5-.7Q10.1 1.3 7 5.05q-3.15 3.7-4.95 8.65Q.7 17.3.25 20.6" transform="translate(.25 .5)"/><path id="u" fill="#7c8e94" fill-rule="evenodd" d="M20.5 12.05q-4.85 2.25-7.1 2.4-1.45.15-2.65-1l-1.95-2.2-2.35-2L3.7 6.8q-1.8-1.05-2.45-2L0 1.4l.35-.3 2.6 3.7q.85.85 3.7 2.15Q8 7.5 10.6 8.8q1 .5 2.75 2.2l1.8-1.1L17.3 9l5.2-2.4q4.25-2.1 5.45-3.25Q30.7.75 31.05 0q-.15 1.9-2.4 5.5-2.25 3.85-8.15 6.55"/><path id="v" fill="#444" fill-rule="evenodd" d="M7.6 1.6q.1 1.65-1.4 4.35-1.7 3-3.25 2.25Q1.6 7.5.6 5.6-.5 3.55.35 2.35 1.6.55 4.25.1 7.5-.35 7.6 1.6"/><path id="w" fill="#c16100" fill-rule="evenodd" d="M13 .45q6.15-.4 5.9 2.15-4.6 2.1-8 5.2-3.65 3.2-5.75 5.75Q.85 12.3 0 12.3q.1-.7 1.3-2.35Q3 7.6 5.2 5.55l-.2.1-1.85-2.2q-.6-.6-2.2-1.7Q2.55-.7 5.1 0l2.2 1.5 1.35 1.1.05.1Q9.85 1.85 13 .45" transform="translate(0 .15)"/><path id="x" fill="#ff9" fill-rule="evenodd" d="M6.75 1.3Q6.7 2.35 5.6 4.05l-2.2 3.1-2.25-3.1L0 1.3 3.4 0l3.35 1.3"/><path id="z" fill="none" stroke="#000" stroke-linecap="round" stroke-linejoin="round" d="M2.5 18.4q-.8-3.5-1.85-4.5 2.4-3.55 1.3-7.5Q.55 1.05 0 0" transform="translate(.5 .5)"/><path id="A" fill="none" stroke="#000" stroke-linecap="round" stroke-linejoin="round" d="M.2 17.25q.4-2.3 1.5-3.3-2.45-3.6-1.35-7.5Q1.8 1.1 1.5 0" transform="translate(.5 .5)"/><path id="B" fill="#fffc91" fill-rule="evenodd" d="M0 1.1Q.45-.35 3.95.5L7 2.2Q5.15 3.6 2.45 3.6L.65 1.9 0 1.1m27.1.95L25.15 3.6q-5.35.15-7.35-1.1L23.05 0q4.65-.5 4.7 1.3l-.65.75" transform="translate(0 .1)"/><path id="C" fill="#f90" fill-rule="evenodd" d="M1.55 0q3.7.6 5.05 2.4-1.4.55-2.1 1.1Q1.6.9 0 1.1.5.4 1.55 0"/><path id="D" fill="#f90" fill-rule="evenodd" d="M12.5.05q-.3-.3-4.55 3.05l-4.7 4.2L0 10.55q.2-.65 2.5-3.5 1.3-1.5 3.3-3.2Q9.5.55 12.45 0l.05.05"/><path id="E" fill="#d3b469" fill-rule="evenodd" d="M1.15 3.85Q-.25 1.7.05.85.4-.05 1.6 0q1.1.05 1.8.75l-1.9 3.5-.35-.4"/><path id="G" fill="#ffbe5e" fill-rule="evenodd" d="m30.3.85-1.6 2.2-4.7-1.3Q25.7.95 27 0q2.75-.75 3.3.85M0 1.2Q1.35-.6 2.6.4l.1.1 2.2 1.75-3.95.6Q.3 2.1 0 1.2" transform="translate(0 .25)"/><path id="F" fill="#f90" fill-rule="evenodd" d="m20.1 2.95-.65.3q-3.9-2-5.9-2.15l1.8-.8 7.35 1.1-2.6 1.55M4.55 0l1.1.65L1.5 2.4 0 1.4Q2.2.55 4.55 0"/><path id="H" fill="#a45200" fill-rule="evenodd" d="M31.65 3.55q-.1.85-1.1 2.55-1.85-.8-3.3-.85l.5-.4q2.6-2.25 3-4.35l.55-.5q.9.3.35 3.55M1 .9q-.05 2.05.15 2.6.2.55 1.7 2.15l-2.6.8Q-.2 5.15.1 2.65L.4.25q-.05.3.6.65"/><g id="t" fill-rule="evenodd"><path d="M34.8 7.65q.2 1.1-1.75 4.75l1.85 4.75Q30.05 21 17.05 21l-9.7-1.35q.95-2.1 3.25-4.6 4.6-4.95 11.55-6.65 6.1-1.55 9.1-5.1 1.5-1.8 1.8-3.3l1.75 7.65"/><path d="M1.3.1q-.4 1.7.35 3.55 1.55 3.8 7.5 4.5 3.3.4 4.1 4.8.4 2.2.1 4.35l3.95 3.85q-7.8 0-11.45-1.7l2.7-1.25q-5.7.25-8.35-2.75L1.75 13Q-.5 9.6.15 5.95.75 2.35 1.3.1"/></g><g id="y"><path fill-rule="evenodd" d="M.2.9 0 .55.1.2Q.25.05.45 0L.8.1q2.45 1.95 5.85 2.65l-.6.9Q2.7 2.85.2.9"/><path fill="none" stroke="#000" stroke-linecap="round" stroke-linejoin="round" d="M6.45 4.6Q12 6.2 17.6 6.2q10.5 0 17.6-4"/></g></defs></svg>