<svg xmlns:xlink="http://www.w3.org/1999/xlink" height="82" width="84.85" xmlns="http://www.w3.org/2000/svg"><use height="41.7" transform="translate(20.4 23.65)" width="42.8" xlink:href="#a"/><defs><use height="41.7" width="22.1" xlink:href="#b" id="e"/><use height="4" transform="translate(1.8 1.8)" width="4" xlink:href="#c" id="g"/><use height="4" width="4" xlink:href="#d" id="c"/><use height="4" transform="translate(1.8 1.8)" width="4" xlink:href="#c" id="h"/><use height="4" transform="translate(1.8 1.8)" width="4" xlink:href="#c" id="i"/><g id="a" transform="translate(.75 .75)"><use height="41.7" transform="translate(-.75 -.75)" width="22.1" xlink:href="#e"/><use height="41.7" transform="matrix(-1 0 0 1 42.05 -.75)" width="22.1" xlink:href="#e"/><use height="24.95" transform="translate(0 12.4)" width="34.75" xlink:href="#f"/><use height="7.8" transform="translate(9.25 21.55)" width="7.8" xlink:href="#g"/><use height="7.8" transform="translate(6.55 27.3)" width="7.8" xlink:href="#h"/><use height="7.8" transform="translate(23.85 21.7)" width="7.8" xlink:href="#h"/><use height="7.8" transform="translate(27.15 27.7)" width="7.8" xlink:href="#g"/><use height="7.8" transform="translate(16.65 23.85)" width="7.8" xlink:href="#i"/><use height="7.8" transform="translate(2.85 18.1)" width="7.8" xlink:href="#i"/><use height="7.8" transform="translate(30 18.2)" width="7.8" xlink:href="#i"/><use height="7.8" transform="translate(16.6 30.25)" width="7.8" xlink:href="#g"/></g><g id="f"><path d="m29.45 17.55.3-.35 1.7-.25.5-.85.95 1.1-2.5 2 3.75.5L30 21.2l3 .65-3.25 1.25 4.9 1.1-2.75 1.5 2.85 1.65-5.5 1.35 3.15 2.55-2.65-.05-3.5-.6 2.65 4.25L25 33.7l2 3.45-5.25-2.55-.1 2.75-2.65-2.4-.85.9-.3.25-.35.2-.75.1-1.45-1.6-.9 1.65-2.95-2.5-1.95 1-1.15-1.85-2.55 2.4-.1-.15q-.25-1.2-.35-2.4l-.1-2.15L3 32.1l1.65-5-.65.4-.7.3-1.4.05.9-1.55.35-.8.2-.9-1.65.35-.2-.9 2.95-2.35L0 21.5l5.2-3.85q-1.7.7-3.45.4l-1.2-.35-.55-.35q2.4-.7 4.25-2.25l1.35-1.05 2.5-.6 1.8-.6.75-.45-.05.95-2.1 2.15 2.9-.3-1.25 2.15 2.6-1.15-.35 1.2 3-.1.6-.35.45-.25q1.75-1.05 3.8-.9l2.95.35q3.1.35 6.25 1.4" fill="#390" fill-rule="evenodd" transform="translate(0 -12.4)"/><path d="m28 23-1.1-.55m-18.1-1.8-1.65.05m.65 2.65-1.4.25m8.55.75L15 24m-2.05 5 1.8-2m1.05 3.2.65-1.1m2.3 5.1-.05-.5m-6.65-1.5-.6 1.75m-3.15-2 1.45-.85m-3-3.6 3.05-1.85m21.45 1.45-1.5-.5m-5.1.1-.75-.5m-3.65-1.25v.65m0 3.95v.95m3.2-1.55-1.05-1.6m4.35 2.75-.6-.65" fill="none" stroke="#62d801" stroke-linecap="round" stroke-linejoin="round" transform="translate(0 -12.4)"/><path d="m12.5 23.95-.75.15" fill="none" stroke="#3c0" stroke-linecap="round" stroke-linejoin="round" transform="translate(0 -12.4)"/></g><g id="d"><path d="M.8 1.55Q.2.8 1.15.5q1.15.5.1 1.15Q1 1.8.8 1.55" fill="#fff" fill-rule="evenodd" transform="translate(.5 .5)"/><path d="m2.55 2.55-.25.2-.8.25Q.9 3 .45 2.55 0 2.1 0 1.5 0 .9.45.45.9 0 1.5 0l.8.25.25.2Q3 .9 3 1.5q0 .6-.45 1.05m-1.75-1q.2.25.45.1Q2.3 1 1.15.5.2.8.8 1.55" fill="#ccc" fill-rule="evenodd" transform="translate(.5 .5)"/><path d="m2.55 2.55-.25.2-.8.25Q.9 3 .45 2.55 0 2.1 0 1.5 0 .9.45.45.9 0 1.5 0l.8.25.25.2Q3 .9 3 1.5q0 .6-.45 1.05Z" fill="none" stroke="#999" stroke-linecap="round" stroke-linejoin="round" transform="translate(.5 .5)"/></g><path d="m20.65-.75.65.45-.2.85L21 38.2l.35.95-3.35 1.8-2.4-2.1-1.4 1.4-3.05-3.05-2.55 1.6-1.15-3.55-1.4 1.05-.8-.2-.75-3.95-1.8.6q-.25-1.1 0-2.35l.25-1 .35-1H1.4l.85-2.8-.8.1-.7-1.6 1.65-1.75L-.55 22q-.05-2.15 2.85-3.1l-.8-.25-.75-.2-.65-.4-.85-.55q.75-1.35 2.2-1.9l2.5-1.25L.1 13q.9-2.15 4-2.55L.45 9.15q.8-.9 3.05-1.9 1.4-.5 2.6-1.35 6.05-4.1 12.85-6.3l1.7-.35" fill="#360" fill-rule="evenodd" transform="translate(.75 .75)" id="b"/></defs></svg>