<svg xmlns="http://www.w3.org/2000/svg" xmlns:xlink="http://www.w3.org/1999/xlink" width="84.85" height="82"><g transform="translate(37.4 42.25)"><use xlink:href="#a" width="32.05" height="38" transform="translate(-11.95 -17.45)"/><use xlink:href="#b" width="32.65" height="21.6" transform="translate(-12.25 -17.95)"/><use xlink:href="#c" width="20.75" height="21.1" transform="matrix(1.033 0 0 1 3.557 1.8)"/><use xlink:href="#c" width="20.75" height="21.1" transform="matrix(-1.033 0 0 1 4.593 1.8)"/></g><defs><use xlink:href="#d" id="a" width="32.05" height="38"/><use xlink:href="#e" id="b" width="32.65" height="21.6"/><use xlink:href="#f" id="c" width="20.75" height="21.1"/><path id="d" fill="#f1cea5" fill-rule="evenodd" d="M27.35 7.4q2.15 4.15 3.55 8.75 1.45 4.7 1.15 9.5-.35 4.95-4.2 8.1-3.8 3.2-8.75 4.05l-2.6.2q-3.6 0-7.05-1.15-4.65-1.6-7.1-5.5Q-.2 27.4.05 23q.2-4.4 2-9.3Q3.85 8.75 7 5.05 10.1 1.3 14.7.1l1.8-.1q1.9.05 3.7.8 4.75 2.05 7.15 6.6" transform="translate(-.05)"/><path id="e" fill="none" stroke="#600" stroke-linecap="round" stroke-linejoin="round" d="M31.9 20.6q-.3-2.25-1-4.45-1.4-4.6-3.55-8.75-2.4-4.55-7.15-6.6-2.65-1.1-5.5-.7Q10.1 1.3 7 5.05q-3.15 3.7-4.95 8.65Q.7 17.3.25 20.6" transform="translate(.25 .5)"/><g id="f"><path fill="#fe7abc" fill-rule="evenodd" d="m8.4 8.6 1.05-.65 2.15-1.4q1.4-1 2.5-2.6Q15.15 2.4 15.55.5l.3 2.75q.25 1.9-.15 3.95-.35 1.85-1.1 3.75l-3.2 1.3-3.25 1-3.35.85-3 .3H.5v-1.85l1.3-1.5q1.35-1.25 3.3-.95 2.05.5 3.75 1.6l.15-.5q.35-1.5-.6-2.6"/><path fill="#bcd2e9" fill-rule="evenodd" d="M.5 14.4h1.3l3-.3 3.35-.85 3.25-1 3.2-1.3 1.6.75-.95 1.05.35 1.75-1.05-1.05-1.05.4q-.35.1-.6.3l-.15.3-.05.3.1.75-1.8-1-.65-.05-.5.95-.15.5q-.5-.6-1.4-.65-1.35 0-2.05 1.35l-.1-.1q-.1-.6-.75-.65L4 15.9 3.3 17Q2.25 15.6.5 16v-1.6"/><path fill="#fff" fill-rule="evenodd" d="m16.2 11.7 2.3 2.25L20 16q.45.75.1 1.5-1.3.85-2.5.45l-1.1-.1-.3.2-1 .35-1.4-.3q-.35.95-1.2 1.25l-1.9-.05-.7 1-3.2-.5v.5q-1.8.7-3.4-.35l-.75.35q-1.15.65-2.15 0V16q1.75-.4 2.8 1l.7-1.1 1.4-.05q.65.05.75.65l.05.1h.05q.7-1.35 2.05-1.35.9.05 1.4.65l.15-.5.5-.95.65.05 1.8 1-.1-.75.05-.3.15-.3q.25-.2.6-.3l1.05-.4 1.05 1.05-.35-1.75.95-1.05"/><path fill="#f39" fill-rule="evenodd" d="M8.4 8.6q.95 1.1.6 2.6l-.15.5q-1.7-1.1-3.75-1.6-1.95-.3-3.3.95l-1.3 1.5v-4.1L1.9 7.4q1.25-.95 2.9-.35L8.4 8.6"/><path fill="#fcc" fill-rule="evenodd" d="M6.25 16.6H6.2l-.05-.1.1.1"/><path fill="none" stroke="#c00161" stroke-linecap="round" stroke-linejoin="round" d="M14.6 10.95q.75-1.9 1.1-3.75.4-2.05.15-3.95L15.55.5q-.4 1.9-1.45 3.45-1.1 1.6-2.5 2.6l-2.15 1.4-1.05.65-3.6-1.55q-1.65-.6-2.9.35L.5 8.45"/><path fill="none" stroke="#369" stroke-linecap="round" stroke-linejoin="round" d="M.5 14.4h1.3l3-.3 3.35-.85 3.25-1 3.2-1.3 1.6.75 2.3 2.25L20 16q.45.75.1 1.5-1.3.85-2.5.45l-1.1-.1-.3.2-1 .35-1.4-.3q-.35.95-1.2 1.25l-1.9-.05-.7 1-3.2-.5v.5q-1.8.7-3.4-.35l-.75.35q-1.15.65-2.15 0"/></g></defs></svg>