<svg xmlns="http://www.w3.org/2000/svg" xmlns:xlink="http://www.w3.org/1999/xlink" width="84.85" height="82"><g transform="translate(37.4 42.25)"><use xlink:href="#a" width="32.05" height="38" transform="translate(-11.95 -17.45)"/><use xlink:href="#b" width="32.65" height="21.6" transform="translate(-12.25 -17.95)"/><use xlink:href="#c" width="18.6" height="20.9" transform="translate(3.5 2.85)"/><use xlink:href="#c" width="18.6" height="20.9" transform="matrix(-1 0 0 1 4.6 2.85)"/></g><defs><use xlink:href="#d" id="a" width="32.05" height="38"/><use xlink:href="#e" id="b" width="32.65" height="21.6"/><use xlink:href="#f" id="c" width="18.6" height="20.9"/><path id="d" fill="#fff" fill-rule="evenodd" d="M27.35 7.4q2.15 4.15 3.55 8.75 1.45 4.7 1.15 9.5-.35 4.95-4.2 8.1-3.8 3.2-8.75 4.05l-2.6.2q-3.6 0-7.05-1.15-4.65-1.6-7.1-5.5Q-.2 27.4.05 23q.2-4.4 2-9.3Q3.85 8.75 7 5.05 10.1 1.3 14.7.1l1.8-.1q1.9.05 3.7.8 4.75 2.05 7.15 6.6" transform="translate(-.05)"/><path id="e" fill="none" stroke="#000" stroke-linecap="round" stroke-linejoin="round" d="M31.9 20.6q-.3-2.25-1-4.45-1.4-4.6-3.55-8.75-2.4-4.55-7.15-6.6-2.65-1.1-5.5-.7Q10.1 1.3 7 5.05q-3.15 3.7-4.95 8.65Q.7 17.3.25 20.6" transform="translate(.25 .5)"/><g id="f"><path fill="#600" fill-rule="evenodd" d="M15.7 1.45q-.25 2.65-1.4 5.05L13 8.55q-.9 1.1-2.15 1.95-1.45.9-3.1.85L7.2 10.3l-.4-.55L5.45 8.4 4.6 4q2.95 1.35 3.1 3.65 4.8-1.6 8-6.2"/><path fill="#c00" fill-rule="evenodd" d="m16.3.5-.6.95q-3.2 4.6-8 6.2Q7.55 5.35 4.6 4q5.95-.25 11.7-3.5"/><path fill="#900" fill-rule="evenodd" d="M5.45 8.4 6.8 9.75l.4.55.55 1.05q1.65.05 3.1-.85Q12.1 9.65 13 8.55l1.3-2.05q1.15-2.4 1.4-5.05l.6-.95L18.1 14q-4.3 3.2-9.25 4.35l-1.5.3-1.1-5.8-.4-2.3-.4-2.15"/><path fill="#333" fill-rule="evenodd" d="m5.85 10.55.4 2.3-3.45.35H.5v-2.25l5.35-.4"/><path fill="#666" fill-rule="evenodd" d="m6.25 12.85 1.1 5.8 1.5-.3-.8.45q-3.45 2-6.55 1.5v-2.15l-1 .05v-5h2.3l3.45-.35m-2.3 4.3q-.7.6-1.8.85l-.65.15.65-.15q1.1-.25 1.8-.85"/><path fill="none" stroke="#600" stroke-linecap="round" stroke-linejoin="round" d="m5.45 8.4.4 2.15.4 2.3 1.1 5.8 1.5-.3Q13.8 17.2 18.1 14L16.3.5Q10.55 3.75 4.6 4l.85 4.4"/><path fill="none" stroke="#000" stroke-linecap="round" stroke-linejoin="round" d="m8.85 18.35-.8.45q-3.45 2-6.55 1.5v-2.15l-1 .05"/><path fill="none" stroke="#333" stroke-linecap="round" stroke-linejoin="round" d="m1.5 18.15.65-.15q1.1-.25 1.8-.85"/></g></defs></svg>