<svg xmlns="http://www.w3.org/2000/svg" xmlns:xlink="http://www.w3.org/1999/xlink" width="84.85" height="82"><g transform="translate(37.4 42.25)"><use xlink:href="#a" width="32.05" height="38" transform="translate(-11.95 -17.45)"/><use xlink:href="#b" width="33.05" height="38.95" transform="translate(-12.45 -17.95)"/><use xlink:href="#c" width="16.55" height="20.7" transform="translate(-11.9 -.3)"/><use xlink:href="#c" width="16.55" height="20.7" transform="matrix(-1 0 0 1 20.3 -.3)"/></g><defs><use xlink:href="#d" id="a" width="32.05" height="38"/><use xlink:href="#e" id="b" width="33.05" height="38.95"/><use xlink:href="#f" id="c" width="16.55" height="20.7"/><path id="d" fill="#fff" fill-rule="evenodd" d="M27.35 7.4q2.15 4.15 3.55 8.75 1.45 4.7 1.15 9.5-.35 4.95-4.2 8.1-3.8 3.2-8.75 4.05l-2.6.2q-3.6 0-7.05-1.15-4.65-1.6-7.1-5.5Q-.2 27.4.05 23q.2-4.4 2-9.3Q3.85 8.75 7 5.05 10.1 1.3 14.7.1l1.8-.1q1.9.05 3.7.8 4.75 2.05 7.15 6.6" transform="translate(-.05)"/><path id="e" fill="none" stroke="#000" stroke-linecap="round" stroke-linejoin="round" d="M27.35 7.4Q24.95 2.85 20.2.8 17.55-.3 14.7.1 10.1 1.3 7 5.05q-3.15 3.7-4.95 8.65-1.8 4.9-2 9.3-.25 4.4 2.3 8.35 2.45 3.9 7.1 5.5 4.65 1.55 9.65.95 4.95-.85 8.75-4.05 3.85-3.15 4.2-8.1.3-4.8-1.15-9.5-1.4-4.6-3.55-8.75Z" transform="translate(.45 .5)"/><g id="f"><path fill="#3dc9fe" fill-rule="evenodd" d="m16.05 11.5.05-.05.1-.15v3l-.95-.2-.65.25-2.5.75-.3.2-3.55.9v.05l.25.15.1.1h.05q3.7.65 7.4-.05l.15.05v4.2Q.15 19.9.05 5.6L9.9 7.35q4.2.55 6.15 4.15m-6.7 4.75v.05l-.25-.05h.25"/><path fill="#02a4cc" fill-rule="evenodd" d="m16.2 16.5-.15-.05q-3.7.7-7.4.05H8.6l-.1-.1-.25-.15v-.05l3.55-.9.3-.2 2.5-.75.65-.25.95.2v2.2m-6.85-.25H9.1l.25.05v-.05"/><path fill="none" stroke="#fd7b7b" stroke-linecap="round" stroke-linejoin="round" stroke-width=".05" d="m16.1 11.45-.05.05"/><path fill="none" stroke="#028ea2" stroke-linecap="round" stroke-linejoin="round" d="M7.9 15.95q4.6-.15 7.85-1.95"/><path fill="none" stroke="#0c335a" stroke-linecap="round" stroke-linejoin="round" d="M16.05 11.05q-3.2-3.6-6.2-3.55"/><path fill="#cd0101" fill-rule="evenodd" d="M10.25 5.8q-.4-1.65-1.9-2.25L4.2 1.85h.05q1.9.25 3.5 1.1l.75.4q1.6.85 1.75 2.45m-6.8-4.25L1.7.8l.2-.05 1.55.8"/><path fill="#18aefe" fill-rule="evenodd" d="m10.25 5.8-.05.7.15.35v.05l-.1.25-.15.15-.45.05L8.9 7Q7.55 6.3 6 6.1l-.4-.15q-2.05-1-4.2-1.65L.75 5l-.3-.05q-.75-.6-.1-1.55Q.15 2.65.5 2 .9 1.1 1.7.8l1.75.75.2.1.55.2 4.15 1.7q1.5.6 1.9 2.25"/><path fill="none" stroke="#0c335a" stroke-linecap="round" stroke-linejoin="round" d="M10.25 5.8q-.4-1.65-1.9-2.25L4.2 1.85l-.75-.3L1.7.8.95.5m9.3 6.65.1-.25v-.05l-.1-1.05Z"/><path fill-rule="evenodd" d="M10.35 12.45v3.05l-.8.75-2.7-2.55 2.45-2.25-2.5-2.4 2.35-2.1 1.15 1.1v1.4l.1.5v.6l-1.1.9 1.05 1m0 4.5-.05 2.9-.1.1-.2-.05-.65-.2-.7-.3-1.15-1.05 2.05-2.1.8.7m-3.2 1.8-.9-.55-2.05-1.6.7-.85 2.6 2.6-.35.4m-5.1-4.85q-.8-1.3-1.25-2.6l1.75 2-.5.6M.5 10.4l-.1-.35L.1 8.6 0 7.35l.1-1.1 2 2.45 2.35-2.2L2.2 3.75.1 5.55q.05-1.8 1-2.65l.1.1.6.25.4.5.3-.25 3.75 1.55-1.8 1.45L6.8 9.05 4.45 11.3 2.1 8.7.5 10.4m7.6-4.55 1.6.65-.55.45-1.05-1.1m-3.2 9.9L2.55 13.3l1.9-2 2.4 2.4-1.95 2.05"/><path fill="#18aefe" fill-rule="evenodd" d="m10.4 10.55-.05 1.9-1.05-1 1.1-.9m-.05 4.95v1.45l-.8-.7-2.05 2.1 1.15 1.05H8.6l-1.45-.65.35-.4-2.6-2.6-.7.85-.3-.3-1.65-2.1-.15-.2-.05-.1.5-.6-1.75-2-.1-.2-.2-.7 1.6-1.7 2.35 2.6L6.8 9.05 4.45 6.5l1.8-1.45 1.85.8 1.05 1.1.55-.45.6.25v1.3l-1.15-1.1-2.35 2.1 2.5 2.4-2.45 2.25 2.7 2.55.8-.75m-.05 4.35V20l-.1-.05.1-.1M.1 6.25v-.7l2.1-1.8L4.45 6.5 2.1 8.7l-2-2.45m1.7-3 .7.25-.3.25-.4-.5m3.1 12.5 1.95-2.05-2.4-2.4-1.9 2 2.35 2.45"/><path fill="none" stroke="#0c335a" stroke-linecap="round" stroke-linejoin="round" d="m.8 2.7 9.55 3.85L10.3 20"/></g></defs></svg>