<svg xmlns="http://www.w3.org/2000/svg" xmlns:xlink="http://www.w3.org/1999/xlink" width="84.85" height="82"><g transform="translate(37.4 42.25)"><use xlink:href="#a" width="32.05" height="38" transform="translate(-11.95 -17.45)"/><use xlink:href="#b" width="33.05" height="38.95" transform="translate(-12.45 -17.95)"/><use xlink:href="#c" width="32.25" height="13.05" transform="translate(-11.7 10.2)"/></g><defs><path id="d" fill="#fff" fill-rule="evenodd" d="M27.35 7.4q2.15 4.15 3.55 8.75 1.45 4.7 1.15 9.5-.35 4.95-4.2 8.1-3.8 3.2-8.75 4.05l-2.6.2q-3.6 0-7.05-1.15-4.65-1.6-7.1-5.5Q-.2 27.4.05 23q.2-4.4 2-9.3Q3.85 8.75 7 5.05 10.1 1.3 14.7.1l1.8-.1q1.9.05 3.7.8 4.75 2.05 7.15 6.6" transform="translate(-.05)"/><path id="e" fill="none" stroke="#000" stroke-linecap="round" stroke-linejoin="round" d="M27.35 7.4Q24.95 2.85 20.2.8 17.55-.3 14.7.1 10.1 1.3 7 5.05q-3.15 3.7-4.95 8.65-1.8 4.9-2 9.3-.25 4.4 2.3 8.35 2.45 3.9 7.1 5.5 4.65 1.55 9.65.95 4.95-.85 8.75-4.05 3.85-3.15 4.2-8.1.3-4.8-1.15-9.5-1.4-4.6-3.55-8.75Z" transform="translate(.45 .5)"/><use xlink:href="#d" id="a" width="32.05" height="38"/><use xlink:href="#e" id="b" width="33.05" height="38.95"/><g id="c"><path fill="#ffdfaa" fill-rule="evenodd" d="m31.25.75-.05.2-.4 1.55-.05.25q-.45 2.5.35 6.65l-.2.1q-1.95 1.1-3.9 1.8l-.7-8.65q2.5-.75 4.95-1.9M5.1 11.8Q2.4 11.1.5 9.65q1.6-3.3 1-6.25L1.4 3l-.3-.95-.15-.4L.6.85V.8l1.35.55L5.9 2.6l.05.05-.85 9.15M1.95 1.35.6.85l1.35.5"/><path fill="#ff6f04" fill-rule="evenodd" d="M25.6 11.75q-4.15 1.15-8.55.65l-.9-1.95-.4-.85-.2-.5h-.05l-.2.5-1.1 2.85h-.55l-.3.05H10.7l-4.2-.4.9-9.1q9 2.15 17.45.05l.75 8.7M11.75 8.5q1.75 1.05 3.55 1.1-1.8-.05-3.55-1.1m7.7-.15q-1.9 1.1-3.7 1.25 1.8-.15 3.7-1.25"/><path fill="#b00" fill-rule="evenodd" d="m27 11.3-1.4.45-.75-8.7 1.45-.4.7 8.65m-20.5.8-.35-.05-.3-.05-.75-.2.85-9.15L7.4 3l-.9 9.1"/><path fill="none" stroke="#eea57d" stroke-linecap="round" stroke-linejoin="round" d="m31.25.75.5-.25m-29.8.85L5.9 2.6l.05.05L7.4 3q9 2.15 17.45.05l1.45-.4q2.5-.75 4.95-1.9M.6.85l1.35.5"/><path fill="none" stroke="#c13500" stroke-linecap="round" stroke-linejoin="round" d="m31.25.75-.05.2M15.75 9.6h-.45q-1.8-.05-3.55-1.1M.6.85V.8l1.35.55m13.8 8.25q1.8-.15 3.7-1.25"/><path fill="none" stroke="#900" stroke-linecap="round" stroke-linejoin="round" d="m31.2.95-.4 1.55-.05.25q-.45 2.5.35 6.65l-.2.1q-1.95 1.1-3.9 1.8l-1.4.45q-4.15 1.15-8.55.65l-.9-1.95-.4-.85m-.45 0-1.1 2.85h-.55l-.3.05H10.7l-4.2-.4-.35-.05-.3-.05-.75-.2Q2.4 11.1.5 9.65q1.6-3.3 1-6.25L1.4 3l-.3-.95-.15-.4L.6.85"/></g></defs></svg>