<svg xmlns="http://www.w3.org/2000/svg" width="84.85" height="82"><defs><filter id="a" width="1" height="1" x="0" y="0" filterUnits="objectBoundingBox"><feColorMatrix in="SourceGraphic" result="colorTrans" values="0 0 0 0 1 0 0 0 0 1 0 0 0 0 1 0 0 0 1 0"/></filter></defs><g style="display:inline"><path fill="#fff" d="M30.9 16.15q-1.4-4.6-3.55-8.75-2.4-4.55-7.15-6.6-1.804-.749-3.7-.8-.89-.028-1.8.1-4.602 1.2-7.725 4.925-3.121 3.728-4.925 8.65Q.239 18.598.025 23q-.207 4.398 2.3 8.325 2.493 3.927 7.125 5.5 3.426 1.162 7.05 1.15 1.288-.018 2.6-.175 4.95-.85 8.75-4.05 3.85-3.15 4.2-8.1.3-4.8-1.15-9.5" style="filter:url(#a)" transform="translate(25.451 24.851)"/><path fill="none" stroke="#000" stroke-linecap="round" stroke-linejoin="round" d="M56.351 41.001q-1.4-4.6-3.55-8.75-2.4-4.55-7.15-6.6-2.65-1.1-5.5-.7-4.602 1.2-7.725 4.925-3.121 3.728-4.925 8.65-1.811 4.923-2.025 9.325-.207 4.398 2.3 8.325 2.493 3.927 7.125 5.5 4.644 1.574 9.65.975 4.95-.85 8.75-4.05 3.85-3.15 4.2-8.1.3-4.8-1.15-9.5"/><path fill="#0088ec" d="M47.025 60.175q.204-.139.4-.275.139-.06.275-.1.05-.004.1-.05l.1-.075.05-.05q.233.01.425-.125l-.025-.05.05-.025q1.961-.956 4.2-1.3l1.6-.275 1.15-1.475-1.975.1q-11.443 2.682-22.85.025-.796-.273-1.65-.425-.116-.009-.225-.025l-.5.075q-.071-.09-.15-.175h-.025q-.044-.004-.075-.025h-.05q-.05-.008-.05.025-.1.009-.15.1 0 .038.05.075.489.589.9 1.225.126.21.25.425.106.048.2.05.335.319.85.475.119.03.225.05.621.179 1.125.25h.05q1.292.165 2.45.6l.15.05.05.025-.025.05.025.025q.2.204.55.325.549.206 1.025.5h.625l.05-.025.025.025q.554.733 1.125 1.3.47.454.95.8 3.06 1.554 6.375-.05.272-.183.55-.4.886-.676 1.8-1.65M28.65 56.05l-.5.075q-.071-.09-.15-.175h-.025q-.044-.004-.075-.025h-.05q.266-.048.525.025.246.068.5.125-.116-.009-.225-.025"/><path fill="#0088ec" d="M38.3 62.275q2.984 2.195 6.375-.05-3.315 1.604-6.375.05m.175-4.9q3.277.417 7.075 0l.225-.025q3.647-.388 6.25-.725h.025q.298-.077.55-.125l.775-.025q-11.443 2.682-22.85.025.075.011.15.025.779.083 1.55.15 1.296.134 2.6.225.363.04 3.475.45.08.013.175.025"/><path fill="#8e9ad7" d="M48.4 59.475v-.05l-.05.025.025.05.025-.025m-14.5-.225q0 .041.025.075l.025-.05-.05-.025"/><path fill="none" stroke="#1ed2ff" stroke-linecap="round" stroke-linejoin="round" d="m52.6 53.7 4.6-1.4m-8.1-4.15q5.198-2.294 8.5-2.2"/><path fill="none" stroke="#0064c8" stroke-linecap="round" stroke-linejoin="round" d="M38.3 62.275q-.48-.346-.95-.8m7.875.35q-.278.217-.55.4"/><path fill="none" stroke="#0cf" stroke-linecap="round" stroke-linejoin="round" d="M53.375 56.475q.908-.225 1.825-.475m-26.325.075q.854.152 1.65.425m-2.15-.55q.246.068.5.125m-1.025-.15q.266-.048.525.025"/><path fill="none" stroke="#0cf" stroke-linecap="round" stroke-linejoin="round" d="M53.375 56.475q-11.443 2.682-22.85.025"/><path fill="none" stroke="#0064c8" stroke-linecap="round" stroke-linejoin="round" d="M38.3 62.275q3.06 1.554 6.375-.05"/><path fill="none" stroke="#1ed2ff" stroke-linecap="round" stroke-linejoin="round" d="m30.9 53.7-4.75-1.4M34 48.05q-4.291-1.854-8.4-2.3m19 8.4h-6.05"/><path fill="#0088ec" d="M38.5 50.25q-.428-.324-.9-.675-1.155-.87-2.225-1.35-1.07-.47-1.475-.225l-2.35 3.5q-.098.071-.175.15-.625.628-.625 1.4v.075q1.047.517 2.15.8l.1.025q1.872.465 3.9.25.5-.05.95-.25 1.613-.605 3.15-1.275h.025q-.179-.796-1.075-1.425-.098-.068-.2-.125-.099-.068-.2-.125-.194-.11.1.15-.53-.424-1.15-.9"/><path fill="#0cf" d="M36.6 53.4q.4.15.65-.15 2-2.15-.95-3.15-.7.05-.95.7-.75 2 1.25 2.6"/><path fill="#f90000" d="M41.05 52.975q-.006-.153-.025-.3H41q.041.149.05.3"/><path fill="#0064c8" d="M41.05 53.05v-.075q-.009-.151-.05-.3-1.537.67-3.15 1.275-.45.2-.95.25-2.028.215-3.9-.25l-.1-.025q-1.103-.283-2.15-.8Q32.05 55.7 35 56q2.8.35 5.1-1.2.25-.25.475-.525h.025l.35-.6.1-.4q-.004-.046 0-.1v-.125"/><path fill="none" stroke="#0cf" stroke-linecap="round" stroke-linejoin="round" d="M35.375 48.225q1.07.48 2.225 1.35M33.9 48q.405-.245 1.475.225M31.55 51.5 33.9 48m-2.525 3.65q.077-.079.175-.15m-.8 1.55q0-.772.625-1.4m-.625 1.475v-.075m9.2-1.8q.896.629 1.075 1.425m-1.275-1.55q.102.057.2.125m-.4-.25q.101.057.2.125m-.1.025q-.294-.26-.1-.15m-1.05-.75q.62.476 1.15.9m-2.05-1.575q.472.351.9.675"/><path fill="none" stroke="#014d96" stroke-linecap="round" stroke-linejoin="round" d="M35 56q-2.95-.3-4.25-2.875M40.1 54.8Q37.8 56.35 35 56m5.575-1.725q-.225.275-.475.525m.5-.525h-.025m.375-.6-.35.6m.45-1-.1.4m.1-.5q-.004.054 0 .1m0-.225v.125m0-.2v.075"/><path fill="#0088ec" d="M49.7 48.1q-.405-.245-1.475.225-1.07.48-2.225 1.35-.472.351-.9.675-.62.476-1.15.9.294-.26.1-.15-.101.057-.2.125-.102.057-.2.125-.896.629-1.075 1.425h.025q1.537.67 3.15 1.275.45.2.95.25 2.028.215 3.9-.25l.1-.025q1.103-.283 2.15-.8v-.075q0-.772-.625-1.4-.077-.079-.175-.15l-2.35-3.5"/><path fill="#0cf" d="M49.4 50.2q-.764.259-1.2.6-1.052.817-.125 2.1.158.217.375.45.25.3.65.15 2-.6 1.25-2.6-.25-.65-.95-.7"/><path fill="#0064c8" d="m50.7 54.025-.1.025q-1.872.465-3.9.25-.5-.05-.95-.25-1.613-.605-3.15-1.275-.041.149-.05.3v.2q.004.054 0 .1l.1.4.35.6h.025q.225.275.475.525 2.3 1.55 5.1 1.2 2.95-.3 4.25-2.875-1.047.517-2.15.8"/><path fill="#f90000" d="M42.6 52.775h-.025q-.019.147-.025.3.009-.151.05-.3"/><path fill="none" stroke="#0cf" stroke-linecap="round" stroke-linejoin="round" d="M46 49.675q1.155-.87 2.225-1.35M45.1 50.35q.428-.324.9-.675m-2.05 1.575q.53-.424 1.15-.9m-1.05.75q.194-.11-.1.15m-.1-.025q.099-.068.2-.125m-.4.25q.098-.068.2-.125m-1.275 1.55q.179-.796 1.075-1.425m9.2 1.8v.075m-.625-1.475q.625.628.625 1.4m-.8-1.55q.098.071.175.15M49.7 48.1l2.35 3.5m-3.825-3.275q1.07-.47 1.475-.225"/><path fill="none" stroke="#014d96" stroke-linecap="round" stroke-linejoin="round" d="M42.55 53.15v-.075m0 .2v-.125m0 .225q.004-.046 0-.1m.1.5-.1-.4m.45 1-.35-.6m.375.6H43m.5.525q-.25-.25-.475-.525M48.6 56.1q-2.8.35-5.1-1.2m9.35-1.675Q51.55 55.8 48.6 56.1"/><path fill="none" stroke="#0064c8" stroke-linecap="round" stroke-linejoin="round" d="M45.275 61.9q.969-.71 1.95-1.775 2.983-1.553 6.175-2.15m-23.7.25q4.148 1.011 5.95 1.95.776.839 1.55 1.45"/></g></svg>