<svg height="82" width="84.85" xmlns="http://www.w3.org/2000/svg"><g style="display:inline"><path d="M52.75 32.2q2.15 4.15 3.55 8.75 1.45 4.7 1.15 9.5-.35 4.95-4.2 8.1-3.8 3.2-8.75 4.05-5 .6-9.65-.95-4.65-1.6-7.1-5.5-2.55-3.95-2.3-8.35.2-4.4 2-9.3 1.8-4.95 4.95-8.65 3.1-3.75 7.7-4.95 2.85-.4 5.5.7 4.75 2.05 7.15 6.6" fill="#d79d51" fill-rule="evenodd"/><path d="M52.75 32.2q-2.4-4.55-7.15-6.6-2.65-1.1-5.5-.7-4.6 1.2-7.7 4.95-3.15 3.7-4.95 8.65-1.8 4.9-2 9.3-.25 4.4 2.3 8.35 2.45 3.9 7.1 5.5 4.65 1.55 9.65.95 4.95-.85 8.75-4.05 3.85-3.15 4.2-8.1.3-4.8-1.15-9.5-1.4-4.6-3.55-8.75z" fill="none" stroke="#a95401" stroke-linecap="round" stroke-linejoin="round"/><path d="m49 48.3.2.1.15.1q.3 1.15.05 2.35.3 1.1-.8 2l-.5.3-.45-.35-1 .05.05-.3-.6.8-.2-.05-.2-.35-.05-.15-.3-.05-1.45-.65V52l-.25.25-.3.35-.25.1h-.2q-.65.4-.55 1.35l.4.25.05.45.4.15.25 1.65h-6l-.15-.8q.6-.4 1.15-.85.3-.2.6 0l.15.15h.1l.1-.05.15-.15.15-.25h.55l-.25-.55h-.05l-.4-.85-1.25-.25-.1.2-.35.15-.8-.1q-.95.15-1.7-.5l.4 1.05Q34 53.5 33.5 51.8l-.2-.85q-.6-1.15.1-2.35l.1-.1.35.2.05.05.25 1.8.15.05.1-.9.1-.15.25-.05H35l.15-.3q-.05-.7.3-1.3l.15-.1.3.15.1.1.1.8h.2v-1.3l.45-.25.35.15.05.1.1.8h.1l-.05-.9v-.15q.15-.25.45-.25l.35.15.05.1.1.65.35.1v-.45l.1-.3.25-.15.15-.05.3.2.1.05.1 1 .25-.2.15-.05.35.2.05.05.1.8.1-.05.3.2.1.05.1.8.2-.05v-.2l.1-.05.2-.05v-.95l.05-.25q.15-.25.45-.25l.1.05v-.2l.1-.3q.15-.2.45-.2v-.05l.35.2.05.05v.2l.1-.35.05-.15q.15-.25.45-.25l.35.15.05.1v.55l.1-.05h.1v-.4l.05-.3q.15-.2.45-.2v-.05l.3.2.1.05.05.95h.1l.05-.25.25-.15.15-.05.3.2.1.05v.6l.2-.3q.05-.1.15-.1l.3.15.1.1.05.1.05-.05.2.1.15.1.25.55h.1l.2.45.4 1.4.1-2.4.05-.3.45-.2v-.05m2.9 1.7.1.05q.05 1.35-.4 2.65l-.2.2q-.45.1-.6-.35 0-1.45.65-2.6l.15-.15.3.2m-1.65-.75.35.15.05.1q.35 1.95-.9 3.2h-.15l-.15-.2-.1-.2q.4-1.2.4-2.5l.05-.3.3-.25h.15m-5.1 6.25.15.5-.1.55h-1.6l.1-1 .05-.15h.4l.35.35.55-.3.1.05M31.9 50.2l.3-.25h.15l.2.05.15.1.95 2.6.05.2-.3.4-.15.05q-1.3-1.15-1.35-3.05v-.1m-.65.05.35.2.05.05.15 1.45-.05.25q-.3.45-.75.1-.35-.75-.2-1.6v-.2l.45-.2v-.05" fill="#b5762b" fill-rule="evenodd"/><path d="m34.8 50.35.05.05q.2.2.1.45l-.15.15q-.25.1-.4-.15l-.05-.2.05-.2.1-.1.1-.05.2.05M27.5 47l-.15.2-.1.05-.25-.35.15-.1.1-.05.2.2.05.05m1.9 1.6q-.3-.05-.2-.35l.1-.1.1-.05.2.2.05.05-.15.2-.1.05m2.65.75.05.05.05.4-.05.1h-.4l-.1-.35.05-.1.25-.15.15.05m-6.95-3.7.05-.2.1-.1.1-.05q.2 0 .3.15v.2l-.1.15-.05.05-.1.05-.2-.1-.05-.05-.05-.1" fill="#fff" fill-rule="evenodd"/><path d="m34.8 50.35-.2-.05-.1.05-.1.1-.05.2.05.2q.15.25.4.15l.15-.15q.1-.25-.1-.45l-.05-.05m-2.05-1q.25.25.2.6l-.3.6q-.25.25-.6.2-.35-.05-.6-.3l-.2-.6.3-.6q.25-.25.6-.2l.6.3m2.2.55.8.35q.25.35.2.85l-.35.7q-.35.35-.8.3l-.75-.4-.25-.75q0-.45.4-.8.3-.3.75-.25M27.5 47l-.05-.05-.2-.2-.1.05-.15.1.25.35.1-.05.15-.2m.6-.4q.25.25.2.6l-.3.6q-.25.25-.6.2l-.6-.3-.2-.6.3-.6q.25-.25.6-.2.35.05.6.3m1.3 2 .1-.05.15-.2-.05-.05-.2-.2-.1.05-.1.1q-.1.3.2.35m-.4-.65q.25-.25.6-.2.35.05.6.3t.2.6l-.3.6q-.25.25-.6.2l-.6-.3-.2-.6.3-.6m-3.9-2.3.05.1.05.05.2.1.1-.05.05-.05.1-.15v-.2q-.1-.15-.3-.15l-.1.05-.1.1-.05.2m6.95 3.7-.15-.05-.25.15-.05.1.1.35h.4l.05-.1-.05-.4-.05-.05M25 45.15l.6-.2q.35.05.6.3t.2.6l-.3.6-.6.2-.6-.3-.2-.6.3-.6" fill="#ccc" fill-rule="evenodd"/><path d="m39.35 53.35-.35.35q-1.65.2-1.45-1.25.05-.35.35-.6l.55-.25q1.7.4.9 1.75" fill="#a95401" fill-rule="evenodd"/><path d="m38.35 52.05-.4.05q-.8-.5.1-.9.75.2.3.85" fill="#fff" fill-rule="evenodd"/><path d="M38.35 50.75q.55 0 .95.4.3.45.25 1l-.4.85q-.45.35-1 .35-.55-.05-.85-.45l-.35-.95q.05-.55.5-.9.35-.35.9-.3m0 1.3q.45-.65-.3-.85-.9.4-.1.9l.4-.05" fill="#ccc" fill-rule="evenodd"/><path d="M42.55 52.55v3.75H40.6v-3.75h1.95" fill="#a95401" fill-rule="evenodd"/><path d="M42.55 52.55v3.75H40.6v-3.75Z" fill="none" stroke="#a95401" stroke-linecap="round" stroke-linejoin="round"/><path d="M40.3 55.35V51.6h1.95v3.75H40.3" fill="#ccc" fill-rule="evenodd"/><path d="M40.3 55.35V51.6h1.95" fill="none" stroke="#fff" stroke-linecap="round" stroke-linejoin="round"/><path d="M42.25 51.6v3.75H40.3Z" fill="none" stroke="#9a9a9a" stroke-linecap="round" stroke-linejoin="round"/><path d="M57 45.45v-.05q.1-.15.3-.15l.1.05.1.1.05.2-.05.1-.05.05-.2.1-.1-.05-.05-.05-.1-.15v-.15m-3.75 3.1-.1-.05-.15-.2.05-.05.2-.2.1.05.1.1q.1.3-.2.35m2.15-1.35-.1-.05-.15-.2.05-.05.2-.2.1.05.15.1-.25.35m-4.65 2.05.25.15.05.1-.1.35h-.4l-.05-.1q-.1-.2.05-.4l.05-.05.15-.05m-2.6 1.05.1.1.05.2-.05.2q-.15.25-.4.15l-.15-.15q-.1-.25.1-.45l.05-.05.2-.05.1.05" fill="#fff" fill-rule="evenodd"/><path d="M57.75 46.3q-.25.25-.6.3-.35.05-.6-.2l-.3-.6q-.05-.35.2-.6l.6-.3q.35-.05.6.2l.3.6-.2.6m-.75-.85v.15l.1.15.05.05.1.05.2-.1.05-.05.05-.1-.05-.2-.1-.1-.1-.05q-.2 0-.3.15v.05m-1.25 1 .3.6-.2.6q-.25.25-.6.3l-.6-.2-.3-.6q-.05-.35.2-.6l.6-.3q.35-.05.6.2m-.35.75.25-.35-.15-.1-.1-.05-.2.2-.05.05.15.2.1.05m-2.15 1.35q.3-.05.2-.35l-.1-.1-.1-.05-.2.2-.05.05.15.2.1.05m.4-.65.3.6-.2.6q-.25.25-.6.3l-.6-.2-.3-.6q-.05-.35.2-.6l.6-.3q.35-.05.6.2m-5.15 2.2.4.8-.3.75-.7.4-.85-.3-.35-.7q-.05-.5.25-.85.3-.3.75-.35.45-.05.8.25m1.4-.8q.25-.25.6-.3.35-.05.6.2l.3.6-.2.6-.6.3-.6-.2-.3-.6q-.05-.35.2-.6m-1.75 1-.1-.05-.2.05-.05.05q-.2.2-.1.45l.15.15q.25.1.4-.15l.05-.2-.05-.2-.1-.1m2.6-1.05-.15.05-.05.05q-.15.2-.05.4l.05.1h.4l.1-.35-.05-.1-.25-.15" fill="#ccc" fill-rule="evenodd"/><path d="m45.5 53.25-.6.45q-1.2.2-1.2-.6v-.05l-.2-.35q-.1-.7.55-1.1l.4-.2q.7.05 1 .6.35.25.3.6l-.25.65" fill="#a95401" fill-rule="evenodd"/><path d="M45.35 52.85q-.3.4-.85.45-.55 0-.95-.35-.4-.35-.45-.85-.05-.55.3-1 .35-.4.9-.4l.95.3.45.9-.35.95M44.3 52l.4.05q.8-.5-.1-.9-.75.2-.3.85" fill="#ccc" fill-rule="evenodd"/><path d="M44.3 52q-.45-.65.3-.85.9.4.1.9l-.4-.05" fill="#fff" fill-rule="evenodd"/><path fill="#4139d0" d="M8.325 15.55q-.09.058-.175.125-1.954 1.539-3.75 1.35-1.802-.196-3.775-.9-1.973-.681-3.675-1.375-.45-.15-.85-.4-.705-.47-1.25-.65-2.148-.147-3.225-.475-1.076-.326-1.575-.475.1.21.375.55.405.52.775 1.15.361.609.45.6.268.31.65.5l.05.025q.675.188 1.275.375.12.032.225.05h.05q1.292.199 2.45.725l.15.075.05.025-.025.05.025.025q.116.145.275.25.84.383 1.425.75h.5l.05-.025.025.025Q.171 20.055 1.6 21q1.411.936 2.9.7 1.7-1.55 1.45-3.65-.05-.7-.45-1.05 1.5.25 2.15 1.8.281.601.075 1.175.794-.705 1.6-1.7-1.159-1.136-1-2.725m7.3-.2.375-.075.6.025q1.469-1.534 2.1-2.9-2.546.66-4.575 1.075-1.761.36-3.475.55-.938 2.255.325 3.05l-.025-.05L11 17q1.961-1.159 4.2-1.575l.425-.075m0 0q-2.335.571-4.575 1.775l-.025.025q-.01-.025-.025-.05l-.025-.025-.025-.05L11 17q1.961-1.159 4.2-1.575l.425-.075" style="display:inline" transform="translate(37.4 42.25)"/><path d="m32.25 55.95 3.7.55 5.95.25 5.65-.4-1.8 1.45-.2.15q-1.95 1.5-3.75 1.35-1.8-.2-3.75-.9l-3.7-1.4-.85-.4q-.7-.45-1.25-.65" fill="#2b2cae" fill-rule="evenodd"/><path d="m11 17.1-.45.15-.05.05-.1.1-.1.05-.25.15-.4.3-.3.4q-1.2-1.15-1-2.75l1.8-1.45.5-.05Q9.7 16.3 11 17.1M7.75 20 5.8 21.3l-1.3.4q1.7-1.55 1.45-3.65-.05-.7-.45-1.05 1.5.25 2.15 1.8.3.6.1 1.2" fill="#8b8cfe" fill-rule="evenodd" style="display:inline" transform="translate(37.4 42.25)"/><path d="m5.8 21.3 1.85-1.05.25-.25 1.55-1.65.1-.1.3-.4 1.2-.7-.05-.05m-5.2 4.2-1.3.4q-1.5.25-2.9-.7l-1.8-1.35-1.55-1.75-1.4-.75-3.2-1.2-1.3-.35M16 15.3l-.35.05q-2.35.55-4.6 1.8" fill="none" stroke="#352c78" stroke-linecap="round" stroke-linejoin="round" style="display:inline" transform="translate(37.4 42.25)"/><path d="m27.45 55 1.6.5 3.2.45 3.7.55 5.95.25 5.65-.4.5-.05 3.5-.55 4.55-1.1" fill="none" stroke="#b5b3e3" stroke-linecap="round" stroke-linejoin="round"/></g></svg>