<svg xmlns:xlink="http://www.w3.org/1999/xlink" height="82" width="84.85" xmlns="http://www.w3.org/2000/svg"><g transform="translate(37.4 42.25)"><use height="38" transform="translate(-11.95 -17.45)" width="32.05" xlink:href="#a"/><use height="21.6" transform="translate(-12.25 -17.95)" width="32.65" xlink:href="#b"/><use height="36.2" transform="translate(-22.2 -4.15)" width="52.8" xlink:href="#c"/></g><defs><path d="M27.35 7.4q2.15 4.15 3.55 8.75 1.45 4.7 1.15 9.5-.35 4.95-4.2 8.1-3.8 3.2-8.75 4.05l-2.6.2q-3.6 0-7.05-1.15-4.65-1.6-7.1-5.5Q-.2 27.4.05 23q.2-4.4 2-9.3Q3.85 8.75 7 5.05 10.1 1.3 14.7.1l1.8-.1q1.9.05 3.7.8 4.75 2.05 7.15 6.6" fill="#fff" fill-rule="evenodd" transform="translate(-.05)" id="d"/><path d="M31.9 20.6q-.3-2.25-1-4.45-1.4-4.6-3.55-8.75-2.4-4.55-7.15-6.6-2.65-1.1-5.5-.7Q10.1 1.3 7 5.05q-3.15 3.7-4.95 8.65Q.7 17.3.25 20.6" fill="none" stroke="#000" stroke-linecap="round" stroke-linejoin="round" transform="translate(.25 .5)" id="e"/><use height="38" width="32.05" xlink:href="#d" id="a"/><use height="21.6" width="32.65" xlink:href="#e" id="b"/><g id="c"><path d="M-4.2-2.3q.7 1.85.2 3.15-.4 1.2-2 1.8l-2.25.1Q-9.05 2.3-9.7.5q-.75-1.95.1-2.65Q-7.4-3.9-5.85-4q.95-.1 1.65 1.7m17.45-1.4q3.7-1.35 3.8 1.25.15 2.4-2.2 4.5-2 1.8-2.85-1.6-.8-3.4 1.25-4.15" fill="#ffc4c4" fill-rule="evenodd" transform="translate(22.2 4.15)"/><path d="m40.2 18.35-.3.3-.25.35-.3.3-.25.35-.6.6-.55.4-.15.15-.5.4-.25.15-.2.2-.8.5-.2.2-1.05.6-2.2 1.05-3.55.95-4.9.1-4.75-1-2.2-1-1.9-1.2-1.65-1.5-1.35-1.8" fill="none" stroke="#333" stroke-linecap="round" stroke-linejoin="round" stroke-width=".95"/><path d="M4.3 20.75q-10.4 0-14.45-8.25-1.25-2.6-1.75-5.7l-.2-2.6q10.6 4 14.75 4.25 3.7.2 9.6-1.75l7.65-3q.3 4.25-1.55 8.55-3.6 8.5-14.05 8.5" fill="#bfeeff" fill-rule="evenodd" transform="translate(22.2 4.15)"/><path d="M-9.45 5.45Q-1.2 8.5 3.9 8.5t12.85-3.4" fill="none" stroke="#0089a1" stroke-linecap="round" stroke-linejoin="round" transform="translate(22.2 4.15)"/><path d="m21.15 11.5 2.25 2q2.55 2.6 4.25 5.5 3.6 6.35 2.25 8.15l-1.5.25-2.9.45q-1.65 1.95-3.5 2.4l-3.05.25-2.65-.15q-3.9 1.2-6.5 1.2-3.5-1.2-6.15-1.2l-6.35.95-2.9-.9q-1.8-.9-2.75-1.05l-6.35.25q-.9-.2-1.85-.95-1.05-.8-1.45-.95-3.55-.5-3.6-1.05-.15-1.5.95-4.6 1.05-2.8 2.05-4.15 1.45-2 5.5-5.15.4-.3 2 .45l1.5.8 14.1 2.1 16.65-4.6" fill="#84cef2" fill-rule="evenodd" transform="translate(22.2 4.15)"/><path d="m-7.2 23.35-4.15 5.15q-1 .7-1.65.85l-1.7.25 1.75-2.75 5.75-3.5m9.15-2.55 1 6.55-.55 2.1L.5 30l-2.35.5L.3 26.2l1.65-5.4" fill="#36b7f5" fill-rule="evenodd" transform="translate(22.2 4.15)"/><path d="M19.5 2.65q1.9 4.05-.95 9.55-2 3.95-6.05 6.35-3.75 2.2-8 2.4-4.1.15-9.3-2.45-5.25-2.65-5.8-5.3-1.7-8.05-1.5-8.85L-12 3l1.5 1.5 3.9 5.75q.3.6 1.45.4l1.9-.15q.5.2 2.05 0 1.4-.15 1.85.25l4 3L8.4 10.5l2.95-.05 2.65-.2q.6-.55 1.15-2.5L18 3l1.5-.35" fill="#84cef2" fill-rule="evenodd" transform="translate(22.2 4.15)"/><path d="m8.9 8.15.25 2.25m-10 0V8.15" fill="none" stroke="#00c9eb" stroke-linecap="round" stroke-linejoin="round" transform="translate(22.2 4.15)"/><path d="m-11.85 2.55 1.7 1.65q1.85 2.1 2.8 4.3.95 2.2 2.45 2.25l3.4-.4q2.75 0 5.75 3.65l1.9-1.95Q8.5 10.1 10.8 10.1l2.75.3q.85-.15 1.6-2.65 1.1-3.85 4.35-6.05" fill="none" stroke="#3e5bbf" stroke-linecap="round" stroke-linejoin="round" transform="translate(22.2 4.15)"/><path d="m22.15 19.65-5.9-5.5 1.45-.7 2.55 3.3 1.9 2.9M13.5 14.9l3.5 5.75.9 1.35-6.5-6.75 2.1-.35m-5.5 1 3 6.35L6 16l2-.1m-23 4.35L-8 14l1.75.65-8.75 5.6m11-5.1 1.25.5-2.85 2.75-4.75 4 2.1-3.15 4.25-4.1m4.25 0 1.65.35-4.9 6.75q0-1.85.65-3l2.6-4.1" fill="#36b7f5" fill-rule="evenodd" transform="translate(22.2 4.15)"/><path d="M9.25 22v-2.5l3.25 4.75q1.2 1.1 1.5 1.9l.5 1.75q0 1.5-.35 1.75l-2 1q-1.15.25-1.25-.25l-1-2.65q-.5-1.7-.5-3.5L9.25 22m6.15-1.6L13.25 17l4.5 3.9 3 2.75 2 2.6.4 1.25q-.65 2.15-1.5 2.15l-1.9.25q-.85-.15-1.25-.65-1.1-1.55-1.1-2.6-.9-2.85-.75-3.3L15.4 20.4" fill="#36b7f5" fill-rule="evenodd" transform="translate(22.2 4.15)"/><path d="m21.5 26.4-4.65-4.15-2.6-4.25q-1.85-2.5-1.5-2.75.4-.25 2.15-.6l4.75 5.25 1.5 2.5L22 25l-.5 1.4m-1-14.65 3.9 2.75 2.35 3.4 1.9 3.5q.75 1.5.75 3.85l-.25 1.5-1.65.25H26l-.75-1.1-1-2.5-1.35-2.5-5.75-7 3.35-2.15" fill="#36b7f5" fill-rule="evenodd" transform="translate(22.2 4.15)"/><path d="m-20.75 22.25 4.75.85 2.05 1.1q1.2.7 2.25.75l7.75-.25 4.45.75q2.15-.1 5.05-1.35l6.6.75q1.75 0 5.75-1.5l4.9.65q1.05-.05 2.3-1.15 1.25-1.1 1.8-1.1l2-.05" fill="none" stroke="#d4f1ff" stroke-linecap="round" stroke-linejoin="round" transform="translate(22.2 4.15)"/><path d="m7.65 17.45-3.6-.25-2.75.25-3.4-.95h-2.4l-1-.65-.95-.4-1.8-.6-.95-.9-.75-.95 3.2 1.35 8.8 1.85 6.1-.5 6.15-.95q1.55-.5 4.35-2.05l.35 2-2.5.3-1.85 1.2-4.15.25-2.85 1" fill="#36b7f5" fill-rule="evenodd" transform="translate(22.2 4.15)"/><path d="m19.4 3.2.4.9.35 1.9q.5 1.25.25 2.45l-.6 2.65-1.65 2.15-2.15.95-.1.55q-7.4 1.7-12 2-6.15.45-11.9-2.4-.9-.45-2.25-2.8l-1.5-3.05-.3-4.8 2.7 3.4L-8 9.75q.95 2.35 2.5 2.6l2.55-.35 2.7.1q1.25.65 4.5 3.65l1.3-1.4 1.8-1.3q1.45-.85 2.2-.95l3.6-.1 1.4-.4.95-1.6 1.05-2.25 1.2-2.65 1.65-1.9" fill="#36b7f5" fill-rule="evenodd" transform="translate(22.2 4.15)"/><path d="m1.5 15.25 5.4.2 4.5-1.1 4.15-.6L17.4 13l.1.75-.6.5q-5.75 2.2-12.85 2.2-7.05 0-12.75-2.6l-.05-.6 2.8.95q5.9.55 7.45 1.05" fill="#0093d9" fill-rule="evenodd" transform="translate(22.2 4.15)"/><path d="m8.9 8.6.8.2q.8.25.7.8-.15.85-1.25 1.55.85.95-.5 1.45l-1.9.1q.15 1.5-.95 2-1.05.5-1.8-.35l-2.25-.1q-.6-.35-.6-1.15l.15-.75q-1.25 1-2.05.35-.55-.45-.5-1.2l.15-.65q-1.25-.35-1.15-1.1.05-.45.75-.9l.75-.35.55-.7q.75-.65 1.6-.35 1.4.5 1.25 1.75.1-.35.35-.75.45-.75 1.05-.75 1 0 1.5 1.4l.25-.7q.4-.75 1.1-.9 1.1-.15 2 1.1" fill="#fff" fill-rule="evenodd" transform="translate(22.2 4.15)"/><path d="M8.9 8.6q-.9-1.25-2-1.1-.7.15-1.1.9l-.25.7q-.5-1.4-1.5-1.4-.6 0-1.05.75-.25.4-.35.75.15-1.25-1.25-1.75-.85-.3-1.6.35l-.55.7-.75.35q-.7.45-.75.9-.1.75 1.15 1.1l-.15.65q-.05.75.5 1.2.8.65 2.05-.35l-.15.75q0 .8.6 1.15l2.25.1q.75.85 1.8.35 1.1-.5.95-2l1.9-.1q1.35-.5.5-1.45 1.1-.7 1.25-1.55.1-.55-.7-.8l-.8-.2Z" fill="none" stroke="#5472b2" stroke-linecap="round" stroke-linejoin="round" transform="translate(22.2 4.15)"/><path d="M22.9 19.45q2.35 3.9 1.1 6-.9 1.5-5.3-.5-3.25 4-4.55 3.4-1-.45-2.3-3.8-1.35-3.35-.7-4.1.55-.6 3.55-.05l2.9.65 3.1-3.2q1-.4 2.2 1.6" fill="#30c6ff" fill-rule="evenodd" transform="translate(22.2 4.15)"/><path d="m20.7 17.85 1.1-.1q.45.1 1.6 2.9 1.1 2.7.6 4l-.7 1.3-2.9-.4-1.9-1.1 2.7-.3q.9-.4.7-1.6-.1-.75-1.15-1.95l-1.05-1.05-.8.05 1.8-1.75" fill="#14aae3" fill-rule="evenodd" transform="translate(22.2 4.15)"/><path d="m18.7 25.55-2.7 2q1.4-2.7.9-4l-3.05-3.6 2.95 1 1.9 1.5q.4.75.35 1.9-.05 1-.35 1.2" fill="#14aae3" fill-rule="evenodd" transform="translate(22.2 4.15)"/><path d="M22.9 19.45q2.35 3.9 1.1 6-.9 1.5-5.3-.5-3.25 4-4.55 3.4-1-.45-2.3-3.8-1.35-3.35-.7-4.1.55-.6 3.55-.05l2.9.65 3.1-3.2q1-.4 2.2 1.6Z" fill="none" stroke="#3e5bbf" stroke-linecap="round" stroke-linejoin="round" transform="translate(22.2 4.15)"/><path d="m21.25 11.35 4.55 4.7q2.75 3.75 3.45 5.95 1.6 4.8.25 5.4-.4.2-1.75 0-1.3-.15-2.25.45-2 2.05-3.85 2.55l-2.45.05-2.9-.1q-3.45 1.2-6.5 1.2-1.35 0-3-.75-1.4-.65-3.15-.45-3.8.95-6.35.95-1.35 0-2.8-.85-1.65-.95-2.85-1.1l-3.6.2-3.15-.15q-2.15-1.65-3.4-1.9l-1.9-.25q-1.05-.2-1.2-1-.5-2.6 2-6.85 2.9-4.35 6.7-6.8" fill="none" stroke="#3e5bbf" stroke-linecap="round" stroke-linejoin="round" transform="translate(22.2 4.15)"/></g></defs></svg>