<svg xmlns="http://www.w3.org/2000/svg" xmlns:xlink="http://www.w3.org/1999/xlink" width="84.85" height="82"><g transform="translate(37.4 42.25)"><use xlink:href="#a" width="42.15" height="15.95" transform="translate(-16.8 -2.95)"/><use xlink:href="#b" width="41.5" height="11.2" transform="translate(-16.3 .25)"/><use xlink:href="#c" width="43.15" height="16.95" transform="translate(-17.3 -3.45)"/><use xlink:href="#d" width="42.6" height="4.9" transform="translate(-17.3 -.25)"/><use xlink:href="#e" width="32.05" height="38" transform="translate(-11.95 -17.45)"/><use xlink:href="#f" width="32.65" height="21.6" transform="translate(-12.25 -17.95)"/><use xlink:href="#g" width="34.75" height="21.85" transform="translate(-13.75 .55)"/><use xlink:href="#h" width="32.95" height="7.75" transform="translate(-12.95 14.65)"/><use xlink:href="#i" width="32.85" height="21.35" transform="translate(-12.3 .55)"/><use xlink:href="#j" width="35.4" height="22.45" transform="translate(-13.8 .45)"/><use xlink:href="#k" width="5.75" height="6.8" transform="translate(9.35 12.45)"/><use xlink:href="#l" width="3.95" height="2.25" transform="translate(2.25 10.3)"/><use xlink:href="#m" width="2.25" height="2.6" transform="translate(3.05 11.15)"/></g><defs><use xlink:href="#n" id="a" width="42.15" height="15.95"/><use xlink:href="#o" id="b" width="41.5" height="11.2"/><use xlink:href="#p" id="c" width="43.15" height="16.95"/><use xlink:href="#q" id="d" width="42.6" height="4.9"/><use xlink:href="#r" id="e" width="32.05" height="38"/><use xlink:href="#s" id="f" width="32.65" height="21.6"/><use xlink:href="#t" id="g" width="34.75" height="21.85"/><use xlink:href="#u" id="h" width="32.95" height="7.75"/><use xlink:href="#v" id="i" width="32.85" height="21.35"/><use xlink:href="#w" id="j" width="35.4" height="22.45"/><use xlink:href="#x" id="k" width="5.75" height="6.8"/><use xlink:href="#y" id="l" width="3.95" height="2.25"/><use xlink:href="#z" id="m" width="2.25" height="2.6"/><path id="n" fill="red" fill-rule="evenodd" d="M20.95 0q20.95 0 21.2 3.8.2 2.8-5.05 6.9-6.65 5.25-16.25 5.25-9.55 0-15.9-4.75Q.15 7.55 0 4.8q-.1-1.7 5.9-3.2Q12.35 0 20.95 0"/><path id="o" fill-rule="evenodd" d="M38.5 5.65q-3.5 4.65-15.8 5.4-12.35.75-17.35-2.65Q.35 5 0 2.1l2.95.9 2.95.35 13.8.5 15.65-1.5 2.7-.75L41.4 0q.6.95-2.9 5.65"/><path id="p" fill="none" stroke="#000" stroke-linecap="round" stroke-linejoin="round" d="M20.95 0q20.95 0 21.2 3.8.2 2.8-5.05 6.9-6.65 5.25-16.25 5.25-9.55 0-15.9-4.75Q.15 7.55 0 4.8q-.1-1.7 5.9-3.2Q12.35 0 20.95 0Z" transform="translate(.5 .5)"/><path id="q" fill="none" stroke="#000" stroke-linecap="round" stroke-linejoin="round" d="M0 1.6q1.2 1.25 9.2 1.75 12.95.8 17.15.4Q41.45 2.25 41.6 0" transform="translate(.5 .5)"/><path id="r" fill="#fff" fill-rule="evenodd" d="M27.35 7.4q2.15 4.15 3.55 8.75 1.45 4.7 1.15 9.5-.35 4.95-4.2 8.1-3.8 3.2-8.75 4.05l-2.6.2q-3.6 0-7.05-1.15-4.65-1.6-7.1-5.5Q-.2 27.4.05 23q.2-4.4 2-9.3Q3.85 8.75 7 5.05 10.1 1.3 14.7.1l1.8-.1q1.9.05 3.7.8 4.75 2.05 7.15 6.6" transform="translate(-.05)"/><path id="s" fill="none" stroke="#000" stroke-linecap="round" stroke-linejoin="round" d="M31.9 20.6q-.3-2.25-1-4.45-1.4-4.6-3.55-8.75-2.4-4.55-7.15-6.6-2.65-1.1-5.5-.7Q10.1 1.3 7 5.05q-3.15 3.7-4.95 8.65Q.7 17.3.25 20.6" transform="translate(.25 .5)"/><path id="t" fill="red" fill-rule="evenodd" d="M26.1 7.5q7.45-1.85 7.35-7.1 3.1 11.3-1.15 16.55-3.95 4.9-14.2 4.9-6.2 0-11.05-2.25Q2.3 17.45.8 14.1-1.35 9.15 2.35 0 2 1.55 3.4 4.3 4.75 7 9.05 7.8q4.25.75 7 3.55l2.4 2.75 2.4-3.85q1.3-1.15 5.4-2.75h-.15"/><path id="w" fill="none" stroke="#000" stroke-linecap="round" stroke-linejoin="round" d="M2 0Q-.55 5.35.15 10.75q1.4 10.7 17.5 10.7 14.45 0 16.45-10.5.95-5.25-.95-10.5" transform="translate(.5 .5)"/><path id="x" fill-rule="evenodd" d="M2.85 0 4.6.4q.75.5.95 1.05l.2 1.15v.25H3.3V2.2l-.05-.45-.35-.15q-.35 0-.4.2V5q.05.2.4.2l.35-.2.05-1.05h2.45V4l-.2 1.25-.9 1.1-1.75.45-1.75-.4Q.5 6.05.25 5.35.05 4.6 0 3.5L.05 2q.1-.55.45-1l.95-.75L2.85 0"/><path id="y" fill="none" stroke="#000" stroke-linecap="round" stroke-linejoin="round" d="M0 1.25.05.1 2.8 0l.15 1.25" transform="translate(.5 .5)"/><path id="z" fill="red" fill-rule="evenodd" d="M2.25 0v2.6L0 2.5V0h2.25"/><g id="u" fill="#b50000" fill-rule="evenodd"><path d="M0 0q7.5 4.5 17.4 4.5 9.85 0 15.55-4.3-.6 1.7-1.45 2.65-3.95 4.9-14.2 4.9-6.2 0-11.05-2.25Q1.5 3.35 0 0"/><path d="M25.5 4.1Q19.9 6 16 6q-3.85 0-7.35-2.25l.25.15q2 .6 4-.05l2.3-1.25q1.15-.85 1.95-.85.75 0 2.1.9 1.45 1 2.5 1.2l3.75.25"/></g><g id="v" fill="#3b0000" fill-rule="evenodd"><path d="M13.55 9.7q2.15 1.7 2.75 1.7h.15v9.95l-1.55-.1q.1-3.8-.4-5.6-.35-1.5-2.4-3.2Q9.8 10.6 7.05 10q-4.4-.9-6.1-3.9Q0 4.25 0 3.1L.85 0q1.5 6.1 6.9 7.15 3.45.7 5.8 2.55"/><path d="M25.05 7.2q5.45-1.05 6.9-7.2l.9 3.1q0 1.2-.95 3-1.65 3-6.1 3.95-2.75.55-5.05 2.45-2.05 1.65-2.45 3.15-.45 1.8-.35 5.65l-1.55.05V11.4l.15.05q.6-.05 2.7-1.75 2.35-1.85 5.8-2.5"/></g></defs></svg>