<svg xmlns="http://www.w3.org/2000/svg" xmlns:xlink="http://www.w3.org/1999/xlink" width="84.85" height="82"><g transform="translate(37.4 42.25)"><use xlink:href="#a" width="32.05" height="38" transform="translate(-11.95 -17.45)"/><use xlink:href="#b" width="32.65" height="21.6" transform="translate(-12.25 -17.95)"/><use xlink:href="#c" width="36.25" height="21.35" transform="translate(-14.45 .5)"/></g><defs><path id="d" fill="#fff" fill-rule="evenodd" d="M27.35 7.4q2.15 4.15 3.55 8.75 1.45 4.7 1.15 9.5-.35 4.95-4.2 8.1-3.8 3.2-8.75 4.05l-2.6.2q-3.6 0-7.05-1.15-4.65-1.6-7.1-5.5Q-.2 27.4.05 23q.2-4.4 2-9.3Q3.85 8.75 7 5.05 10.1 1.3 14.7.1l1.8-.1q1.9.05 3.7.8 4.75 2.05 7.15 6.6" transform="translate(-.05)"/><path id="e" fill="none" stroke="#000" stroke-linecap="round" stroke-linejoin="round" d="M31.9 20.6q-.3-2.25-1-4.45-1.4-4.6-3.55-8.75-2.4-4.55-7.15-6.6-2.65-1.1-5.5-.7Q10.1 1.3 7 5.05q-3.15 3.7-4.95 8.65Q.7 17.3.25 20.6" transform="translate(.25 .5)"/><use xlink:href="#d" id="a" width="32.05" height="38"/><use xlink:href="#e" id="b" width="32.65" height="21.6"/><g id="c"><path fill="#333" fill-rule="evenodd" d="m35.2 3.7.35 1.25.2 2.5-.2 3.5-.65 3.75-.65 2.55q-.3-1.05-1.15-1.9-.6-.6-1.45-.75l.25-.45.45-1.35 1.35-3.6q.8-2.2.8-4.6l-.15-.55.85-.35-.85.35-.45.15-.45.3-.6-.1-3.45 1-.65.4h-.15l-.8-.15-2.25-.15-2.05.8q.1-.7-.15-1.2l-.15-.2q-.45-.3-.7.15-.3.85.4 1.25l.45.15-.6.6-1.1-1.85 3.2-2q4-2.75 8.9-2.05 1.5.3 1.95 1.8l-.5.75M5.7 15l-.7.5-1.85 1.45-.95.75-.15-.45-.4-1.85q-.2-1.6-.55-3.1-.9-3.95.15-7.8L.6 3.55q-.2-.8 0-1.45Q1.1.35 3.05.5L2.8 2.05l1.25.1 1.8-.05 3.75.6q3.15.8 5.8 3l-.3.5-.3.8.05.95q-1.9-1.3-4.35-1.05l-1.8.2-1.55.05-1.8.1-1.2-.95-.75-.9-.75-.3h-.1l-1.3-.6 1.3.6q-.25 3.95 1.8 7.4l.3.55.3 1.4q.3.55.75.55M28.6 3.15q2.6.05 5 .9l.3.15-.3-.15q-2.4-.85-5-.9M2.25 1.75l.55.3-.55-.3m7.1 3.6-6.7-.25 6.7.25"/><path fill="#345636" fill-rule="evenodd" d="m31.9 14.15-.25.45-.35.55.6-1m1.55-9.65-.15.1-4.55 1.2.65-.4 3.45-1 .6.1m-10.1 1.95-.55 3.1-1.05.8q1.2-1 1.1-2.7l-.1-.6.6-.6m-4.4 4.8h.45l-.2.5-.1 2.1-.15-2.6M8.7 7.1l-1.15.2-.4-.15L8.7 7.1m-3.35.15-.6.35.15.55-.75-1.85 1.2.95"/><path fill="#0e110d" fill-rule="evenodd" d="m32.35 12.8-.45 1.35-.6 1-.3.35.25.45-.5.05q-1-.7-1.8-1.8-.65-1-1-2.05l.1-.55q1.45.8 2.25 2.4l1.5-2.05.55.85m-25.9 3.05-.1-.3-.2-.15.55-.75 1.85-1 3.95-2.1.7.4q-.05.8-.9 1.25L9.45 15q-1.25 1-3 .85M28.75 5.8l4.55-1.2-.75 1.25-.3.65-3.3 1.9L25 8.3q-.4 2.25-2.65 3.4L21 11.6q-.45-.3-.05-.75l.8-.5 1.05-.8.55-3.1.15-.15 2.05-.8 2.25.15.8.15h.15m-13.9 2.15.15.5q-1.05.1-2.1.5l-2.9.3-4.85.45-.05-.35-.2-1.2-.15-.55.6-.35 1.8-.1.4.15 1.15-.2 1.8-.2q2.45-.25 4.35 1.05m14.95 6.6 1.2.95-1.2-.95"/><path fill="#232d22" fill-rule="evenodd" d="M31.25 15.95q1.2.45 1.1.7l-.7.4-1.4.1h-.55q-3.65.3-7.35-.8-.65-.15-.75 0l-.15-.1-.8-.6-.7-.6.5-2q.3-1.15-.5-1.85l1-.35q-.4.45.05.75l1.35.1Q24.6 10.55 25 8.3l3.95.1 3.3-1.9-.1.3q-.6 2.55-.35 5.15L30.3 14q-.8-1.6-2.25-2.4l-.1.55q.35 1.05 1 2.05.8 1.1 1.8 1.8l.5-.05M7.5 17.5l-1.45-.2.4-1.45q1.75.15 3-.85l2.85-1.8q.85-.45.9-1.25l-.7-.4-3.95 2.1-1.85 1-.55.75-.45-.4q-.45 0-.75-.55l-.3-1.4.45-1.75q.1-.8.05-1.6L10 9.25l2.9-.3q1.05-.4 2.1-.5.6 1.5 1.9 2.25l2.05.55.15 2.6v.3l.15.5-.5.35-2.7 1.65-1.85.35-4.35.55-2.35-.05"/><path fill="#666" fill-rule="evenodd" d="m23.35 6.45-.45-.15q-.7-.4-.4-1.25.25-.45.7-.15l.15.2q.25.5.15 1.2l-.15.15"/><path fill="#930" fill-rule="evenodd" d="m18.45 5.6.1-.05q.85-.2 1.4.3l.55 1v.9l-.6 1.05-.55.2q-.85 0-1.4-.35-.6-.4-.6-.9l-.05-.35.05-.35.45-.85-.05.25.2.6.5.25.5-.25.2-.6-.2-.6q-.2-.25-.5-.25"/><path fill="#fc0" fill-rule="evenodd" d="m15.4 5.7 1.9.85.7-.7-.2.35-.45.85-.4-.35q-.95-.5-1.85-.5l.3-.5m4.5 3.1.6-1.05-.15.75-.45.3"/><path fill="#c69e00" fill-rule="evenodd" d="m17.35 7.05-.05.35.05.35q-1.15.4-2.15-.4L14.8 7l.3-.8q.9 0 1.85.5l.4.35m2 1.95.55-.2.45-.3.15-.75v-.9l.45-.55q1.4.85 1.45 2.5l-.1.9-3.1-.1q-.35-.4.15-.6"/><path fill="#7e6201" fill-rule="evenodd" d="m19.95 5.85 1.7-.65 1.1 1.85.1.6q.1 1.7-1.1 2.7l-.8.5-1 .35-.55.05h-.45l-2.05-.55q-1.3-.75-1.9-2.25l-.15-.5L14.8 7l.4.35q1 .8 2.15.4 0 .5.6.9.55.35 1.4.35-.5.2-.15.6l3.1.1.1-.9q-.05-1.65-1.45-2.5l-.45.55-.55-1"/><path fill="red" fill-rule="evenodd" d="m18 5.85.45-.25q.3 0 .5.25l.2.6-.2.6-.5.25-.5-.25-.2-.6.05-.25.2-.35"/><path fill="#61735b" fill-rule="evenodd" d="M19.95 11.2q.8.7.5 1.85l-.5 2-.1-.05-.6-.35-.15-.5v-.3l.1-2.1.2-.5.55-.05"/><path fill="#42442d" fill-rule="evenodd" d="M29.7 17.15v.6l-.25.4-.35.35-1.25.5-2.55.3-.25-.5-4.45.85-.3-.2q-.05-.7.5-.85l2.45-.65q-3.3-.9-6.7-.1l-5.35.85-3.55.1-.4-.3.35-.8 2.25-.15L14.2 17l1.85-.35 1.9-.35 1.1-1.35.8.05.1.05.7.6.25.45.55.15.15.1q.1-.15.75 0 3.7 1.1 7.35.8M21.8 19l-1.5.45 1.5-.45"/><path fill="#515436" fill-rule="evenodd" d="M27.85 19q-3.25 1.25-6.75 1.85l-.9-.2-.2-1.1-2.25.3v.7l-.55.15-1.8-.35q-2.7-1.1-5.6-1.1-1.2 0-2.15-.45l3.55-.1 5.35-.85q3.4-.8 6.7.1l-2.45.65q-.55.15-.5.85l-.3.1.3-.1.3.2 4.45-.85.25.5 2.55-.3m-20.6-.5-.05-.45.3-.55 2.35.05-2.25.15-.35.8m13.4-2.85.8.6-.55-.15-.25-.45m-.8-.65-.8-.05-1.1 1.35-1.9.35 2.7-1.65.5-.35.6.35m-3.5 4.7 1.4.15-1.4-.15"/><path fill="none" stroke="#000" stroke-linecap="round" stroke-linejoin="round" d="M31.65 14.6q.85.15 1.45.75.85.85 1.15 1.9l.65-2.55.65-3.75.2-3.5-.2-2.5-.35-1.25-.85.35-.45.15-.45.3-.6-.1-3.45 1-.65.4h-.15l-.8-.15-2.25-.15-2.05.8-.15.15-.6.6-1.1-1.85 3.2-2q4-2.75 8.9-2.05 1.5.3 1.95 1.8l-.5.75m-.7.9q0 2.4-.8 4.6l-1.35 3.6-.45 1.35-.25.45-.35.55-.3.35.25.45q1.2.45 1.1.7l-.7.4-1.4.1h-.55q-3.65.3-7.35-.8-.65-.15-.75 0l-.15-.1-.8-.6-.7-.6-.1-.05-.6-.35-.5.35-2.7 1.65-1.85.35-4.35.55-2.35-.05-1.45-.2.4-1.45-.1-.3-.2-.15-.45-.4-.7.5-1.85 1.45-.95.75-.15-.45-.4-1.85q-.2-1.6-.55-3.1-.9-3.95.15-7.8L.6 3.55q-.2-.8 0-1.45Q1.1.35 3.05.5L2.8 2.05l1.25.1 1.8-.05 3.75.6q3.15.8 5.8 3l1.9.85.7-.7.45-.25.1-.05q.85-.2 1.4.3l1.7-.65m8.05 12.55-.25.4-.35.35-1.25.5q-3.25 1.25-6.75 1.85l-.9-.2-.2-1.1-2.25.3v.7l-.55.15-1.8-.35q-2.7-1.1-5.6-1.1-1.2 0-2.15-.45l-.4-.3-.05-.45.3-.55M33.3 4.6l.15-.1m-.15.1-.75 1.25-.3.65-.1.3q-.6 2.55-.35 5.15l.55.85m1.55-8.6-.3-.15q-2.4-.85-5-.9m-7.65 7.7-1 .35-.55.05h-.45l-2.05-.55q-1.3-.75-1.9-2.25l-.15-.5q-1.9-1.3-4.35-1.05l-1.8.2-1.55.05-1.8.1-1.2-.95.75 1.85.2 1.2m16.65 1-.8.5M17.8 6.2l-.45.85m-.05.35.05.35q0 .5.6.9.55.35 1.4.35l.55-.2.6-1.05v-.9l-.55-1m-1.95 0-.2.35m-2.7 0-.3.8.05.95m.25-1.75.3-.5m6.35 4.65q1.2-1 1.1-2.7l-.1-.6m-3.5 7.6-.15-.5v-.3l-.15-2.6m-1.2 8.6-1.4-.15m3.95-.25 1.5-.45m-1.8.55.3-.1M31 15.5l-1.2-.95M5.15 9.7q.05.8-.05 1.6l-.45 1.75.3 1.4q.3.55.75.55M2.8 2.05l-.55-.3m.3 3.35h.1l6.7.25m-6.7-.25.75.3.75.9m-2.9-1.8 1.3.6q-.25 3.95 1.8 7.4l.3.55"/></g></defs></svg>