<svg xmlns="http://www.w3.org/2000/svg" xmlns:xlink="http://www.w3.org/1999/xlink" width="84.85" height="82"><g transform="translate(37.4 42.25)"><use xlink:href="#a" width="32.05" height="38" transform="translate(-11.95 -17.45)"/><use xlink:href="#b" width="33.05" height="38.95" transform="translate(-12.45 -17.95)"/><use xlink:href="#c" width="38.7" height="37.5" transform="translate(-15.1 -12.75)"/></g><defs><path id="d" fill="#fff" fill-rule="evenodd" d="M27.35 7.4q2.15 4.15 3.55 8.75 1.45 4.7 1.15 9.5-.35 4.95-4.2 8.1-3.8 3.2-8.75 4.05l-2.6.2q-3.6 0-7.05-1.15-4.65-1.6-7.1-5.5Q-.2 27.4.05 23q.2-4.4 2-9.3Q3.85 8.75 7 5.05 10.1 1.3 14.7.1l1.8-.1q1.9.05 3.7.8 4.75 2.05 7.15 6.6" transform="translate(-.05)"/><path id="e" fill="none" stroke="#4d1a1a" stroke-linecap="round" stroke-linejoin="round" d="M27.35 7.4Q24.95 2.85 20.2.8 17.55-.3 14.7.1 10.1 1.3 7 5.05q-3.15 3.7-4.95 8.65-1.8 4.9-2 9.3-.25 4.4 2.3 8.35 2.45 3.9 7.1 5.5 4.65 1.55 9.65.95 4.95-.85 8.75-4.05 3.85-3.15 4.2-8.1.3-4.8-1.15-9.5-1.4-4.6-3.55-8.75Z" transform="translate(.45 .5)"/><use xlink:href="#d" id="a" width="32.05" height="38"/><use xlink:href="#e" id="b" width="33.05" height="38.95"/><g id="c"><path fill="#e80000" fill-rule="evenodd" d="m35.8 19.25-3.65 9.3q-6.55 1.7-12.7 1.7L6.15 29 2.9 19l.3-3.1 3.5 4.35q5.1 5.55 10.4 6.55.35.05.9.85.5.75.9.75.95 0 3.25-1.75 4.85-1.25 9.25-6.4l3.65-4.5.75 3.5"/><path fill="#b6c48b" fill-rule="evenodd" d="M18.35 3.5Q19.9 0 23.1 0q5.1 0 5.8 3.75.55 2.75-1.3 5.15-2.1 2.7-6.05 2.7-1.6 0-2.7-3.45-1.05-3.2-.5-4.65"/><path fill="#b6c48b" fill-rule="evenodd" d="M19.85 3.5q.55 1.45-.45 4.65-1.15 3.45-2.75 3.45-3.9 0-5.9-2.65Q9 6.6 9.55 3.9 10.3 0 15.1 0q3.2 0 4.75 3.5"/><path fill="#361d00" fill-rule="evenodd" d="M36.9 33.8q0 1.1-2.35-.25-.1 1.95-1 2.2-.95.25-2.1-1.35-.55 1.9-2.15 2.1-1 .1-1.4-.7l-.25-.8q-.85 2.05-2.45 2.25-.95.1-1.6-.9l-.4-1.05q-.5 1.95-2.05 2.1-1 .05-1.7-.9l-.5-1q-.65 1.8-2.25 1.9-.95.05-1.6-1l-.4-1.1q-.85 2.2-2.25 2.2-.85 0-1.4-1.2l-.35-1.25Q9.8 37 8.2 36.8q-1.55-.15-1.25-2.25-1 1.7-2.05 1.5-1.1-.15-1-2.25-.75 1.1-2.2 1.1-1.4 0 1.2-3.4 13.2 2.55 15.55 2.4 2.35-.15 16.95-3.85l1.5 3.75"/><path fill="#e80000" fill-rule="evenodd" d="m32.2 24.4 2.6 4.1q.95 1.9 1.4 4.15-2.5 2.75-16.65 2.75-14.2 0-17.15-2.4.55-2 1.65-3.85l2.3-3.65q6.75 3.4 13.55 3.4 6.8 0 12.3-4.5"/><path fill="#ffa600" fill-rule="evenodd" d="M27.55 18.85q.65-.7 1.35-.7 1.05 0 1.4 2.15l-4.15 1.35q-1.2.2-3 2.85l-2.75 3.15-.6-.35q-.75-1.5-.35-2.4.3-.55.9-.75l.55-.1-.35-1.3q-.2-1.4.5-1.95 1.15-.8 2.25.35l1.35-2.35q.8-.5 2.4.75l.5-.7"/><path fill="#ffa600" fill-rule="evenodd" d="m17.8 27.65-2.75-3.15q-1.8-2.65-3-2.85l-4.2-1.35.3-1.05q.45-1.1 1.15-1.1 1.1 0 1.85 1.4l.9-.55q.95-.5 1.5-.2.8.5 1.35 2.35l.65-.45 1.55.1q1.2.85.2 3.25l.55.1.85.75q.4.9-.35 2.4l-.55.35"/><path fill="#e80000" fill-rule="evenodd" d="M19.35 28.75q.7-1.75 1.75-3.65 2.15-3.75 4.1-4.55 3.15-1.2 7 .15-2.85 5.05-5.35 6.55-2.5 1.5-7.5 1.5M11 27.25q-1.55-.95-3.6-3.85l-1.75-2.7 2.3-.5 4.7.35q3.2 1.25 5.85 8.2-5 0-7.5-1.5m24.2-14.9q1.2.25 1.25.65.15.6-.4 1.5l.7.15q.75.3 1.1 1.1.6 1.25-.45 3.5l-1.25 1.4-3.35-1.75v-.4q1.1-2.1 1.25-3.5v-2.85l1.15.2"/><path fill="#e80000" fill-rule="evenodd" d="m34.45 13.8.25.1 2.25 3.75-1.75 4.5-4.3 2.1v-2q.2-4.1.8-5.2l2.75-3.25"/><path fill="#e80000" fill-rule="evenodd" d="m31.95 18.75 1.6 3.25-1.65 7.25q2.25 1.5.25 1.5l-2.45-.6q-.05-4 .25-5.85l2-5.55M3.4 12.35l1.15-.2V15q.1 1.4 1.25 3.5v.4l-3.4 1.75-1.25-1.4q-1-2.25-.45-3.5.4-.8 1.15-1.1l.7-.15Q2 13.6 2.1 13q.1-.4 1.3-.65"/><path fill="#e80000" fill-rule="evenodd" d="m4.1 13.8 2.8 3.25q.35.65.8 5.2v2l-4.35-2.1-1.75-4.5 2.25-3.75.25-.1"/><path fill="#e80000" fill-rule="evenodd" d="m6.6 18.75 2 5.55q.35 1.85.25 5.85.85 1.4-1.15 1.4T5.55 29.4l-.5-7.4 1.55-3.25"/><path fill="#361d00" fill-rule="evenodd" d="M31.15 20.5q-3.7.05-5.75 1.5-1.3.9-2.4 3.5l-.8 2.4-3.25 5.5-3.4-5.35q-1.15-4.75-2.9-6.15-1.1-.85-3.25-1.3l-1.95-.3 2.2-.25q2.45-.1 3.75.85 2.7 2 3.7 4.7.4.85 1.85 2.4l1.7-2.3q1.95-3.5 3.7-4.7 2.55-1.85 6.8-.5"/><path fill="#361d00" fill-rule="evenodd" d="m35.4 30.05 1.05 2.6q-3.3 2.85-17.5 2.85-13.25 0-17-2.45L3.2 31l.7 1.65q2.75 2.1 15.15 2.1 12.75 0 15.85-2.2.65-.5.5-2.5"/><path fill="#ffa600" fill-rule="evenodd" d="M19.7 26.9q1.75-4.15 4.25-6 2.5-1.85 6.35-.6-3.9-.05-5.85.95-1.2.65-2.9 3.55l-1.5 2.75-.35-.65m-1.55.65q-2.5-5.3-4.45-6.3-1.2-.6-3.6-.85l-2.2-.1 2.2-.4q2.55-.15 4.1 1 2.5 1.85 4.25 6l-.3.65"/><path fill="#c20000" fill-rule="evenodd" d="M23.4 28.85q4.15-.75 5.35-1.95l2.1-2.55q.8 1.9-1.7 3.75-2.5 1.8-5.75.75m-8.5 0q-3.25 1.05-5.75-.75-1.55-1.15-1.8-2.55l.1-1.2 2.1 2.55q1.2 1.2 5.35 1.95"/><path fill="none" stroke="#ff8585" stroke-linecap="round" stroke-linejoin="round" d="M34.3 12.05q1.1.5 2.15.95.2.4-.4 1.5l.85.3q.9.5 1.15 1.45.4 1.5-.4 2.65m-33.1-6.75L2.1 13q-.15.55.45 1.5l-.75.2q-.85.4-1.15 1.35-.5 1.6.5 3"/><path fill="none" stroke="#ba0000" stroke-linecap="round" stroke-linejoin="round" d="M33.55 26.15 35.8 32M5.3 27.2 3.4 32"/></g></defs></svg>