<svg xmlns="http://www.w3.org/2000/svg" xmlns:xlink="http://www.w3.org/1999/xlink" width="84.85" height="82"><g transform="translate(37.4 42.25)"><use xlink:href="#a" width="32.05" height="38" transform="translate(-11.95 -17.45)"/><use xlink:href="#b" width="33.05" height="38.95" transform="translate(-12.45 -17.95)"/><use xlink:href="#c" width="40.25" height="24.15" transform="translate(-16.15 -2)"/></g><defs><path id="d" fill="#fff" fill-rule="evenodd" d="M27.35 7.4q2.15 4.15 3.55 8.75 1.45 4.7 1.15 9.5-.35 4.95-4.2 8.1-3.8 3.2-8.75 4.05l-2.6.2q-3.6 0-7.05-1.15-4.65-1.6-7.1-5.5Q-.2 27.4.05 23q.2-4.4 2-9.3Q3.85 8.75 7 5.05 10.1 1.3 14.7.1l1.8-.1q1.9.05 3.7.8 4.75 2.05 7.15 6.6" transform="translate(-.05)"/><path id="e" fill="none" stroke="#590d0d" stroke-linecap="round" stroke-linejoin="round" d="M27.35 7.4Q24.95 2.85 20.2.8 17.55-.3 14.7.1 10.1 1.3 7 5.05q-3.15 3.7-4.95 8.65-1.8 4.9-2 9.3-.25 4.4 2.3 8.35 2.45 3.9 7.1 5.5 4.65 1.55 9.65.95 4.95-.85 8.75-4.05 3.85-3.15 4.2-8.1.3-4.8-1.15-9.5-1.4-4.6-3.55-8.75Z" transform="translate(.45 .5)"/><use xlink:href="#d" id="a" width="32.05" height="38"/><use xlink:href="#e" id="b" width="33.05" height="38.95"/><g id="c"><path fill="#fff" fill-rule="evenodd" d="M3.3 8.2h-.9q-2.15-.6-1-1.7Q.45 6.15.5 5q.1-2.5 1.9-1.75-.5-1.05.15-1.9l1.2-.05.85 1.3.15.05h.05q1.25.4 1.5 1.85v.4l.35-.15q1.25-.5 1.9 1.35v.05h.05q2.45-1.05 3.7 1.2 2-1.2 2.75.95 1.95-.55 2.85 1l.2.5.85-.4q.75-.3 1.25 0 .45.25.7 1 .15-.7.55-1.1.7-.8 2.15-.55l.45.15.6.6q.05-.45.25-.8.55-1.15 2.35-.95l.2.05.45.1.05-.3q.2-.65 1.15-.95l.8-.05q.55.1 1 .55-.05-.8.3-1.3l1-.7.85-.1.6.2-.2-1.05q-.15-1.6 1.8-1.6h.05l.15.05-.25-1.6q1.9-1.4 2.65.7 1.3-.9 1.8.85.35 1.3-.85 1.8.95 2.3-1.75 2.45h-.1q-.65-.4-1.6-.35-.65 0-1.35.45-2.3 1.8-1.4 2.8h-.05v.05q-.7 2.5-3.15 1.7-.45 1.95-2.4.8-1.5 1.4-2.85.25l-.1-.05-.1.1q-1.8 1.6-2.5.1l-.15-.45-1.15.7-.55-.2-.05.15.05-.15.55.2-.6-.05.6.05.15.05.8-.3q.1 1.15-.25 2.05l-.7 1.85v.45l.8 1.7.7 1.7q.25.8-.25 1.65l-.1.15-.55 1.4h-.95l-.85-.25.6-1.15.05-.15.3-.9q.25-.95-.3-1.75L18.65 18q-.35-.55-.3-1.2 0-.95.4-1.8l.8-2.1-.3-.15-.45-.35-.3.35q-1.4 1.45-2.95-.1-.35.55-1.25.8l-.95-.25L12.3 12l-.15-.35-.25.25q-1.75 1.4-2.5-.9l-.1-.35-.25.2q-1.3.7-1.75-.25Q8.55 8.8 6.25 7q-.7-.45-1.35-.45Q3.95 6.5 3 7.8l.3.4m32.65-5.05-.5-.5.5.5"/><path fill="#c00" fill-rule="evenodd" d="m37.05 6.9.3.15L36 8.95l.05 4.95.05.4v4.6q-6.8 4.4-13.9 4.75h-1.45l.55-1.4.1-.15q.5-.85.25-1.65l-.7-1.7-.8-1.7v-.45l.7-1.85q.35-.9.25-2.05h.35q.7 1.5 2.5-.1l.2-.05Q25.5 13.7 27 12.3q1.95 1.15 2.4-.8 2.45.8 3.15-1.7l.05-.05q-.9-1 1.4-2.8.7-.45 1.35-.45.95-.05 1.6.35h-.05l.15.05m-18.1 16.5q-7.4.1-13.9-2.8V10.5L3.3 8.2 3 7.8q.95-1.3 1.9-1.25.65 0 1.35.45 2.3 1.8 1.05 3.6.45.95 1.75.25l.25-.2.1.35q.75 2.3 2.5.9l.25-.25.15.35 1.05 1.2.95.25q.9-.25 1.25-.8 1.55 1.55 2.95.1l.3-.35.45.35.3.15-.8 2.1q-.4.85-.4 1.8-.05.65.3 1.2l.95 1.45q.55.8.3 1.75l-.3.9-.05.15-.6 1.15m13.6-9.6L36 8.95l-3.45 4.85m-24.35.9-3.15-4.2 3.15 4.2"/><path fill="none" stroke="#6f88b0" stroke-linecap="round" stroke-linejoin="round" d="M3.3 8.2h-.9q-2.15-.6-1-1.7Q.45 6.15.5 5q.1-2.5 1.9-1.75-.5-1.05.15-1.9l1.2-.05.85 1.3.15.05h.05q1.25.4 1.5 1.85v.4l.35-.15q1.25-.5 1.9 1.35v.05h.05q2.45-1.05 3.7 1.2 2-1.2 2.75.95 1.95-.55 2.85 1l.2.5.85-.4q.75-.3 1.25 0 .45.25.7 1 .15-.7.55-1.1.7-.8 2.15-.55l.45.15.6.6q.05-.45.25-.8.55-1.15 2.35-.95l.2.05.45.1.05-.3q.2-.65 1.15-.95l.8-.05q.55.1 1 .55-.05-.8.3-1.3l1-.7.85-.1.6.2-.2-1.05q-.15-1.6 1.8-1.6h.05l.15.05-.25-1.6q1.9-1.4 2.65.7 1.3-.9 1.8.85.35 1.3-.85 1.8.95 2.3-1.75 2.45h-.1l.1.05-.15-.05h.05q-.65-.4-1.6-.35-.65 0-1.35.45-2.3 1.8-1.4 2.8h-.05v.05q-.7 2.5-3.15 1.7-.45 1.95-2.4.8-1.5 1.4-2.85.25l-.1-.05-.1.1q-1.8 1.6-2.5.1l-.15-.45-1.15.7-.55-.2-.05.15-.3-.15-.45-.35-.3.35q-1.4 1.45-2.95-.1-.35.55-1.25.8l-.95-.25L12.3 12l-.15-.35-.25.25q-1.75 1.4-2.5-.9l-.1-.35-.25.2q-1.3.7-1.75-.25Q8.55 8.8 6.25 7q-.7-.45-1.35-.45Q3.95 6.5 3 7.8l.3.4m32.15-5.55.5.5"/><path fill="none" stroke="#6f88b0" stroke-linecap="round" stroke-linejoin="round" stroke-width=".05" d="M37.05 6.85v.05m-17.5 6 .6.05"/><path fill="none" stroke="#900" stroke-linecap="round" stroke-linejoin="round" d="M37.35 7.05 36 8.95l.05 4.95.05.4v4.6q-6.8 4.4-13.9 4.75h-1.45m-1.8-.25q-7.4.1-13.9-2.8v-6.65m0-.2V10.5L3.3 8.2m32.7.75-3.45 4.85m-27.5-3.3 3.15 4.2"/><path fill="none" stroke="#384b38" stroke-linecap="round" stroke-linejoin="round" d="m20.15 12.95.15.05.8-.3"/><path fill="none" stroke="#666" stroke-linecap="round" stroke-linejoin="round" d="M20.75 23.65h-.95l-.85-.25.6-1.15.05-.15.3-.9q.25-.95-.3-1.75L18.65 18q-.35-.55-.3-1.2 0-.95.4-1.8l.8-2.1m1.55-.2q.1 1.15-.25 2.05l-.7 1.85v.45l.8 1.7.7 1.7q.25.8-.25 1.65l-.1.15-.55 1.4"/><path fill="none" stroke="#000" stroke-linecap="round" stroke-linejoin="round" d="M5.05 13.95v-.2"/><path fill="none" stroke="#6f88b0" stroke-linecap="round" stroke-linejoin="round" d="M20.1 9.4h.05"/></g></defs></svg>