<svg xmlns:xlink="http://www.w3.org/1999/xlink" height="82" width="84.85" xmlns="http://www.w3.org/2000/svg"><g transform="translate(37.4 42.25)"><use height="38" transform="translate(-11.95 -17.45)" width="32.05" xlink:href="#a"/><use height="38.95" transform="translate(-12.45 -17.95)" width="33.05" xlink:href="#b"/><use height="13.3" transform="translate(-8.4 7.7)" width="26.85" xlink:href="#c"/><use height="22.4" transform="translate(11.3 -2.7)" width="13.15" xlink:href="#d"/><use height="22.4" transform="matrix(-1 0 0 1 -3.1 -2.7)" width="13.15" xlink:href="#d"/></g><defs><use height="38" width="32.05" xlink:href="#e" id="a"/><use height="38.95" width="33.05" xlink:href="#f" id="b"/><use height="22.4" width="13.15" xlink:href="#g" id="d"/><path d="M27.35 7.4q2.15 4.15 3.55 8.75 1.45 4.7 1.15 9.5-.35 4.95-4.2 8.1-3.8 3.2-8.75 4.05l-2.6.2q-3.6 0-7.05-1.15-4.65-1.6-7.1-5.5Q-.2 27.4.05 23q.2-4.4 2-9.3Q3.85 8.75 7 5.05 10.1 1.3 14.7.1l1.8-.1q1.9.05 3.7.8 4.75 2.05 7.15 6.6" fill="#ba866d" fill-rule="evenodd" transform="translate(-.05)" id="e"/><path d="M27.35 7.4Q24.95 2.85 20.2.8 17.55-.3 14.7.1 10.1 1.3 7 5.05q-3.15 3.7-4.95 8.65-1.8 4.9-2 9.3-.25 4.4 2.3 8.35 2.45 3.9 7.1 5.5 4.65 1.55 9.65.95 4.95-.85 8.75-4.05 3.85-3.15 4.2-8.1.3-4.8-1.15-9.5-1.4-4.6-3.55-8.75Z" fill="none" stroke="#000" stroke-linecap="round" stroke-linejoin="round" transform="translate(.45 .5)" id="f"/><g id="c"><path d="M4.35 20.5Q-2 20.5-7.9 17.15l3.25-7.4L4.6 16.4l8.15-5.9 3.75 6.15Q10.65 20.5 4.35 20.5" fill="#ebf4ff" fill-rule="evenodd" transform="translate(8.4 -7.7)"/><path d="M1.75 15.15q-1.95-2-2.95-2.4l-5.15-2.25 1.95-2.8 6.2 3.05q1.8 1.2 2.7 2.6.45 0 2.55-2.6 2.2-1.55 5.45-2.9L14 11q-2.55.3-4.45 1.75l-2.3 2.6q-1.2 1.45-2.6 1.45-1.25 0-2.9-1.65" fill="#ed61dc" fill-rule="evenodd" transform="translate(8.4 -7.7)"/><path d="m-3.4 8.4 5.2 2.35 1.9 1.9q.7.9 1.05.9.6 0 2.3-2.8Q8.95 9.3 11.9 8.5" fill="none" stroke="#8c1f72" stroke-linecap="round" stroke-linejoin="round" transform="translate(8.4 -7.7)"/><path d="M-7.9 17.15q5.15 3.35 12.25 3.35 7.05 0 13.6-4.55" fill="none" stroke="#22395e" stroke-linecap="round" stroke-linejoin="round" transform="translate(8.4 -7.7)"/></g><g id="g"><path d="m10.25.5.35 2.25-1.5 2.5L8 3 7.1-.05l3.15.55" fill="#2c2754" fill-rule="evenodd" transform="translate(.5 .15)"/><path d="m.1 12.1 1.85-3.25q7.6-2.8 8-2.15.65 11.7-.6 12.6-3.15 2.4-5.85 2.4-1.2 0-2.2-1.5-.85-1.3-.95-2.4L.1 12.1" fill="#b01e8e" fill-rule="evenodd" transform="translate(.5 .15)"/><path d="M10.1 8.55q.75 5.45-.6 10.85l-.5.25-1.75.8L3.8 21.7q-1.9.4-3.25-3L.2 14.1" fill="none" stroke="#5e0c47" stroke-linecap="round" stroke-linejoin="round" transform="translate(.5 .15)"/><path d="m9.9.35 1.75 1.95q.6 2.15.4 3.25-1.75 2.5-3.95 4.55Q6 12.05 3 13.95l-2.55.1q-1-3.45.3-4.7L6.2 4.7 9.9.35" fill="#fab2ff" fill-rule="evenodd" transform="translate(.5 .15)"/><path d="m8.85 1.8 1.4 2.25.9 2.8m-4.4-3L8.2 6.1l.9 2.8M4.25 6.25l1.4 2.25.95 2.75M1.05 8.9l1.45 2.25.9 2.75" fill="none" stroke="#bf56a6" stroke-linecap="round" stroke-linejoin="round" transform="translate(.5 .15)"/><path d="M.45 14.05q.8.75 2.8-.45 4.1-2.55 6.8-5.45 2.15-2.2 2.1-2.85" fill="none" stroke="#bf56a6" stroke-linecap="round" stroke-linejoin="round" transform="translate(.5 .15)"/><path d="m9.9.35.75.55q.8.75 1.15 1.8.55 1.7.25 2.85" fill="none" stroke="#5e0c47" stroke-linecap="round" stroke-linejoin="round" transform="translate(.5 .15)"/><path d="M.45 14.05Q-.4 11.3.35 9.8L5.2 5.45q2.55-2.15 4-4.6Q9.75.3 10.25.5" fill="none" stroke="#fff0fc" stroke-linecap="round" stroke-linejoin="round" transform="translate(.5 .15)"/></g></defs></svg>