<svg xmlns="http://www.w3.org/2000/svg" xmlns:xlink="http://www.w3.org/1999/xlink" width="84.85" height="82"><g transform="translate(37.4 42.25)"><use xlink:href="#a" width="32.05" height="38" transform="translate(-11.95 -17.45)"/><use xlink:href="#b" width="32.65" height="21.6" transform="translate(-12.25 -17.95)"/><use xlink:href="#c" width="37.55" height="38.4" transform="translate(-14.75 -17.35)"/></g><defs><path id="d" fill="#ebf6f5" fill-rule="evenodd" d="M27.35 7.4q2.15 4.15 3.55 8.75 1.45 4.7 1.15 9.5-.35 4.95-4.2 8.1-3.8 3.2-8.75 4.05l-2.6.2q-3.6 0-7.05-1.15-4.65-1.6-7.1-5.5Q-.2 27.4.05 23q.2-4.4 2-9.3Q3.85 8.75 7 5.05 10.1 1.3 14.7.1l1.8-.1q1.9.05 3.7.8 4.75 2.05 7.15 6.6" transform="translate(-.05)"/><path id="e" fill="none" stroke="#000" stroke-linecap="round" stroke-linejoin="round" d="M31.9 20.6q-.3-2.25-1-4.45-1.4-4.6-3.55-8.75-2.4-4.55-7.15-6.6-2.65-1.1-5.5-.7Q10.1 1.3 7 5.05q-3.15 3.7-4.95 8.65Q.7 17.3.25 20.6" transform="translate(.25 .5)"/><use xlink:href="#d" id="a" width="32.05" height="38"/><use xlink:href="#e" id="b" width="32.65" height="21.6"/><g id="c"><path fill="#fff" fill-rule="evenodd" d="M34.6 26.85q-1.95 11.2-15.1 11.2-13.1 0-15.55-10.9-1.25-5.45.15-10.9 1.7 2.45 4.4 4.95 5.5 4.9 10.7 4.9 5.2 0 10.5-5.25 2.65-2.6 4.25-5.25 1.65 5.6.65 11.25"/><path fill="#ff8080" fill-rule="evenodd" d="m34.45 18.45-.85 4.65q.4 9.15-4.15 12.1-4.6 2.9-10.2 2.9l-.05-3.85q2.3-5.05 3.75-6.65L28 22.35l5.5-5.9.95 2"/><path fill="none" stroke="#d44e4e" stroke-linecap="round" stroke-linejoin="round" d="M33.95 15.6q-3 4.5-5.1 6.35l-3.9 3.4"/><path fill="#ff8080" fill-rule="evenodd" d="m3.35 18.45.9-2 5.5 5.9 5.1 5.25q1.4 1.6 3.75 6.65l-.1 3.85q-5.55 0-10.15-2.9-4.6-2.95-4.15-12.1l-.85-4.65"/><path fill="none" stroke="#d44e4e" stroke-linecap="round" stroke-linejoin="round" d="m4.1 16.25 4.65 5.2L13 25.1"/><path fill="#fff" fill-rule="evenodd" d="m25.6 28.95.2 1.45q.15 1.75-.2 3.2-1.15 4.6-6.65 4.6-5.55 0-6.55-4.6-.3-1.5-.15-3.2l.25-1.45h13.1"/><path fill="#e34f4f" fill-rule="evenodd" d="M12.7 33.3q-.5.15-1.4-.55-.85-.6-1.1-1.15-.8-1.7.05-3.35l1.9-3.2q1.05-.7 1.45 1.2.3 1.4.15 2.7-.2 2.7-1 4.25l-.05.1"/><path fill="#c9c9c9" fill-rule="evenodd" d="M16.55 27.25q6.85 0 8.5 1.95 1.9 2.45.2 3.6l-3.15.15-3.85-.9-3.8 1.4Q12 34.1 12 31.8l-.1-2.5.05-.05q.25-.5 1.45-1.25 1.1-.75 3.15-.75"/><path fill="none" stroke="#333" stroke-linecap="round" stroke-linejoin="round" stroke-width=".95" d="m33.1 31.35-.3.3-.25.35-.3.3-.25.35-.95.9-.15.1-.15.2-.8.55-.2.2-.5.3-.5.4-.55.25-.5.35-2.2 1-3.5 1-4.95.05-2.4-.35-2.3-.65-2.25-1-1.9-1.2-1.65-1.5-1.35-1.8"/><path fill-rule="evenodd" d="m35.65 20.5.1-.1.2 4.15-.2 3.05q.2 3.15.7 4.85.5 1.85-.1 2.85-1.3 1.9-2.8 2.4l-5.5.35q-.45-.15-.6-.55l-.05-7.7q-.1-3.9 4.6-9 1.85-2 3.4-1.85l.25 1.55m-33.5 7.4-.2-3.35.25-4.9.1.2.2-.9.95.2q1.2.4 2.3 1.65 4.5 5.15 4.4 9l-.2 7.6q-.15.45-.55.6-1.95.8-5.35-.45Q2.8 37.15 1.7 35q-.65-1.05-.15-2.9.5-1.95.6-4.2"/><path fill="#e50000" fill-rule="evenodd" d="m19.4 25.8 4.75-3.5q1.3-.35 1.95 1.85.55 1.7.4 3.3-.3 4.35-1.75 4.35-.8 0-3.15-1.5l-2.2-1.5v-3m-.75 0v3q-4.15 3-5.4 3-1.3 0-1.75-4.35-.1-1.25.7-3.15.85-2.05 1.7-2 1.25.15 4.75 3.5"/><path fill="#e50000" fill-rule="evenodd" d="M21.75 27.3q0 2.75-2.75 2.75t-2.75-2.75q0-2.75 2.75-2.75t2.75 2.75"/><path fill="#4a4a4a" fill-rule="evenodd" d="M33.3 22.8q0 1.55-.5 2.25l.55-.7-2.2 3.3q-1.2 1.95-1.2 3.7l-.1 4.35-.25 2q-.75 1-1.75.2-.75-.6-.75-4.05 0-2.1.15-4.15.4-3.95 3.2-7 2.15-2.35 2.45-2.35.4.95.4 2.45"/><path fill="#4a4a4a" fill-rule="evenodd" d="M35.1 15.8q1.9 1.5 1.9 2.3 0 2.2-2.75 5.35-2.35 2.75-4.35 4.1l1.6-5.85q1.5-1.9 1.75-3.15l-.1-4.1 1.95 1.35m-32.65 0 1.95-1.35-.15 4.1Q4.5 19.8 6 21.7l.75 4.35q-.6.4-3-2.35Q.5 19.9.5 18.1q0-.8 1.95-2.3"/><path fill="#4a4a4a" fill-rule="evenodd" d="M6 21.1q2.5 2.55 3.35 4.85 1.35 3.4 1.05 7.45v2.65q-.15 1.7-1.4 1.85-1.45.2-1.85-1.85-.35-1.7.05-3.1.9-3.2-1-6.05-4-3.3-3.95-5.6l-.1-.1Q3 18 6 21.1"/><path fill-rule="evenodd" d="M20.35 36.6q0 1.45-1.45 1.45t-1.45-1.45q0-1.4 1.45-1.4t1.45 1.4m0-4.1q0 1.45-1.45 1.45t-1.45-1.45q0-1.45 1.45-1.45t1.45 1.45"/><path fill="#bf0000" fill-rule="evenodd" d="m12.9 25.45 1.3 3.05q.9 1.8-.05 3-1.05.7-1.9-.6-.75-1.15-.8-2.55-.1-1.85.45-3.2l.75-1.15.25 1.45m4.65.2.55 2.65.8 1.05q.5.65-.2.65-1.35 0-1.35-1.95-.1-1.8.2-2.4m4.15 4.7q-1.2-.6-.9-2.05.25-1.55-.2-2.5l1.05 2.35.7 1.5 1.1.85q.8 1.05-.6.4l-1.15-.55"/><path fill="#ff8585" fill-rule="evenodd" d="M19.3 26.85q-.5-2.15.6-1.6.45.2.65 1.25t-.15 1.4q-.8.7-1.1-1.05M17.45 25l.05.1-.85 2.05q-2.75-3.9-3.35-4.3.4-.85 2.15.35 1.4.95 2 1.8m5.75-2.3q1.4-.9 2.15-.35.85.65 1.1 3.1.25 1.25 0 1.55-.2.25-.8-.9-1-2.05-1.35-2.25L22 23.6l1.2-.9"/><path fill="none" stroke="#8c0000" stroke-linecap="round" stroke-linejoin="round" d="M26.1 23.65Q25.55 22 24.7 22q-.7 0-1.85.9l-1 .9-1.4 1.2q-.6-.45-1.45-.45l-1.55.45q-2.1-2.7-3.55-2.7-.95 0-1.8 2.3-.75 1.95-.7 3.15.15 4.1 1.85 4.05 1.4-.05 4.1-2.1l.5.45 1.5.3q1.3-.2 1.55-.65 2.75 2.2 3.85 2 1.55-.25 1.75-4.35.15-2.15-.4-3.8Z"/><path fill="none" stroke="#000" stroke-linecap="round" stroke-linejoin="round" d="m33.5 14.7 1.7 1.1q1.75 1.3 1.8 2.3.25 2.65-1.75 5.35l-2.1 2.85M4.4 14.45 2.5 15.7q-1.9 1.4-2 2.4-.2 3 2.5 6.2"/><path fill="none" stroke="#8c8c8c" stroke-linecap="round" stroke-linejoin="round" d="M35.85 17.1q1.15 2.65-.65 4.6M2.35 16.75l-.5.45q-.5.7-.45 1.65 0 1 1.6 3.85"/><path fill="#4a4a4a" fill-rule="evenodd" d="M34.55 19.4q.8-.15.75 1.5l-.55 4.3q.2 1.15-.8 3l-1.6 2.85-2.65 6.25q-2.4-4.8-1.8-7.25.7-2.6 2.75-3.6l3.9-7.05M7.1 25.75q2.1 2.6 2.55 4.3.6 2.45-1.75 7.25l-2.7-6.25q-2.25-3.5-2.5-5.55-.2-1.35.5-1.8.75-.55 2.1.25.65.4 1.8 1.8"/><path fill="none" stroke="#303030" stroke-linecap="round" stroke-linejoin="round" d="m4.45 15.05-.2 2.2q0 2.35.85 2.95 4.85 3.6 5 9 .3 8.6-1.1 8.7l-2.05-.55m26.2-22.9q1.2 4.2-.5 5.7-3.65 3.3-5.05 8.05-.65 2.1-.55 5.8.1 3.7.8 3.9l2.4-.05"/><path fill-rule="evenodd" d="M15.3 5.2q-1.3.55-3.15.65-1.75.1-2.35-.45l1-1.1.9-.75q1.05-.85 1.95-1.95Q15.9.05 19.45 0q.2 2.1-.85 3.25-.9 1-3.3 1.95"/><path fill-rule="evenodd" d="m19.4.2-.55-.05h.55V.2l1.75-.05q.85.25 2.2.9 2.9 1.45 3.8 2.7-1.6.85-5.4-.6Q19.3 2.25 19.4.2"/></g></defs></svg>