<svg xmlns="http://www.w3.org/2000/svg" xmlns:xlink="http://www.w3.org/1999/xlink" width="84.85" height="82"><use xlink:href="#a" width="41.8" height="44.1" transform="translate(20.5 23.9)"/><defs><g id="a"><path fill="#445a6e" fill-rule="evenodd" d="M26.1 37.9q0 2.35-1.35 4.05-1.3 1.65-3.15 1.65-1.85 0-3.2-1.65-1.3-1.7-1.3-4.05 0-2.35 1.3-4 1.35-1.65 3.2-1.65t3.15 1.65q1.35 1.7 1.35 4"/><path fill="none" stroke="#000" stroke-linecap="round" stroke-linejoin="round" d="M26.1 37.9q0 2.35-1.35 4.05-1.3 1.65-3.15 1.65-1.85 0-3.2-1.65-1.3-1.7-1.3-4.05 0-2.35 1.3-4 1.35-1.65 3.2-1.65t3.15 1.65q1.35 1.7 1.35 4Z"/><path fill="#a6c9e0" fill-rule="evenodd" d="M21.15.5q5.35.2 7.45 2.3 3.35 3.35 5.3 9.05l2.55 9.4q1.25 5.1 1.85 5.95l1.8 1.7q1.2 1.15 1.2 2.8 0 8.1-20.4 8.2Q.55 39.8.55 31.7q0-1.65 1.2-2.8 1.4-1.05 1.8-1.7.55-.85 1.8-5.95l2.55-9.4q1.9-5.6 5.3-9.05Q15.3.7 21.15.5"/><path fill="#87b3d9" fill-rule="evenodd" d="M.15 30.85q1.65-2.3 2.65-2.15 2 2.5 4.6 3 2.65.5 6.25 1.5l-.8 1.25q-.75 1.45-.7 2.4l.4 3q-6.4-.5-8.5-2.4-1.8-1.55-3.05-3.5-1.4-2.2-.85-3.1"/><path fill="none" stroke="#6797b5" stroke-linecap="round" stroke-linejoin="round" d="M1.4 29.45q-2.1 4.1 2.5 6.95 4.7 2.95 17.75 2.95 12.35 0 16.85-3.2 4.3-3.05 1.9-7.3"/><path fill="#d8e6f0" fill-rule="evenodd" d="M21.05.65q4 0 6.1 1.2 1.35.75-.25 1.75-1.8 1.1-6.25 1.1-4.6 0-6.45-.9-1.75-.85 0-1.7Q17.25.65 21.05.65"/><path fill="none" stroke="#f2faff" stroke-linecap="round" stroke-linejoin="round" d="m2.6 28.4-.85 1.4q-.7 1.7.1 3.1 2.6 4.5 19.25 4.5t19.3-4.8q1.35-2.45-.65-4.85"/><path fill="none" stroke="#5e8ab5" stroke-linecap="round" stroke-linejoin="round" d="m3.05 28.35-.65 1.3q-.45 1.55.45 2.85 2.95 4.1 18.55 4.1 15.65 0 18.15-4.25 1.25-2.1-.65-4.25"/><path fill="none" stroke="#f2faff" stroke-linecap="round" stroke-linejoin="round" d="m3.9 27.25-.25 1.1q-.05 1.3 1.05 2.4 3.5 3.5 17.05 3.5t16.2-4.4q1.35-2.25-.05-4.45"/><path fill="#d8e6f0" fill-rule="evenodd" d="m7.6 21.85 1.35-3.75-.3 3.2q-.25 3.5.05 4.8.5 2.15 3.65 4.15-5.25-1.15-6.9-2.5-1.6-1.4-1.5-2.15Q7.1 24 7.6 21.85"/><path fill="none" stroke="#5e8ab5" stroke-linecap="round" stroke-linejoin="round" d="m3.8 25.95-.1 1.15q.15 1.35 1.35 2.5 3.75 3.6 16.5 3.6 12.7 0 15.65-4.3 1.45-2.15.35-4.3"/><path fill="#d8e6f0" fill-rule="evenodd" d="m18.25 4.65-2.75-1-.2-.15-2.75 2.75Q10.5 9 10.05 12.6q1.7-4.45 4.2-6.45 1.55-1.25 2.95-1.5h1.05"/><path fill="none" stroke="#f2faff" stroke-linecap="round" stroke-linejoin="round" d="M14.15 2.1q-.35.7.3 1.35Q15.7 4.8 20.6 4.8"/><path fill="none" stroke="#203440" stroke-linecap="round" stroke-linejoin="round" d="M21.15.5Q15.3.7 13.2 2.8q-3.4 3.45-5.3 9.05l-2.55 9.4q-1.25 5.1-1.8 5.95-.4.65-1.8 1.7-1.2 1.15-1.2 2.8 0 8.1 20.35 8.2 20.4-.1 20.4-8.2 0-1.65-1.2-2.8l-1.8-1.7q-.6-.85-1.85-5.95l-2.55-9.4q-1.95-5.7-5.3-9.05Q26.5.7 21.15.5Z"/><path fill="#87b3d9" fill-rule="evenodd" d="M28.9 27.45q0 2.4-7.25 2.4t-7.25-2.4q0-2.35 7.25-2.35t7.25 2.35"/><path fill="#87b3d9" fill-rule="evenodd" d="m27.55 3.6-1.65.6q3.65 3.9 5.25 12.25 1.9 9.75.15 11.5l-3.5 2.75 6-1.1 2.35-1-2.25-11.75q-1.25-5.4-6.35-13.25"/></g></defs></svg>