<svg xmlns="http://www.w3.org/2000/svg" xmlns:xlink="http://www.w3.org/1999/xlink" width="84.85" height="82"><g transform="translate(37.4 42.25)"><use xlink:href="#a" width="32.05" height="38" transform="translate(-11.95 -17.45)"/><use xlink:href="#b" width="33.05" height="38.95" transform="translate(-12.45 -17.95)"/><use xlink:href="#c" width="22.1" height="20.55" transform="translate(2.85 .85)"/><use xlink:href="#c" width="22.1" height="20.55" transform="matrix(-1 0 0 1 5.4 .85)"/></g><defs><use xlink:href="#d" id="a" width="32.05" height="38"/><use xlink:href="#e" id="b" width="33.05" height="38.95"/><use xlink:href="#f" id="c" width="22.1" height="20.55"/><path id="d" fill="#fff" fill-rule="evenodd" d="M27.35 7.4q2.15 4.15 3.55 8.75 1.45 4.7 1.15 9.5-.35 4.95-4.2 8.1-3.8 3.2-8.75 4.05l-2.6.2q-3.6 0-7.05-1.15-4.65-1.6-7.1-5.5Q-.2 27.4.05 23q.2-4.4 2-9.3Q3.85 8.75 7 5.05 10.1 1.3 14.7.1l1.8-.1q1.9.05 3.7.8 4.75 2.05 7.15 6.6" transform="translate(-.05)"/><path id="e" fill="none" stroke="#333" stroke-linecap="round" stroke-linejoin="round" d="M27.35 7.4Q24.95 2.85 20.2.8 17.55-.3 14.7.1 10.1 1.3 7 5.05q-3.15 3.7-4.95 8.65-1.8 4.9-2 9.3-.25 4.4 2.3 8.35 2.45 3.9 7.1 5.5 4.65 1.55 9.65.95 4.95-.85 8.75-4.05 3.85-3.15 4.2-8.1.3-4.8-1.15-9.5-1.4-4.6-3.55-8.75Z" transform="translate(.45 .5)"/><g id="f"><path fill="#37cbe5" fill-rule="evenodd" d="m3.85 7.4.1.05V19.2h-2.8V9.15q1.55-.1 2.7-1.75"/><path fill="none" stroke="#000" stroke-linecap="round" stroke-linejoin="round" stroke-width="2" d="m1.8 19.5.8.05 8.45-.85q3.15-.1 3-2.2 3.85-2.15 4.3-5.1v-.15L18.7 10q1.6-3.75 1.85-6.05.7-.8.5-1.75 0-.45-.65-.9t-1.25-.25l-1.9.2"/><path fill-rule="evenodd" d="M4.25 7.55q.35-.25 2.4-.95l13.8-4.35q-.05 3.25-2.1 9.15-.45 2.95-4.3 5.1-.15 1.65-2.35 2.05L.05 19l2.2-6 .95-3.25q.05-1.5 1.05-2.2"/><path fill="red" fill-rule="evenodd" d="M18.85 7.7q.1 3.4-1.35 5.7l-1.75-.8L8.9 5.9l11.55-3.65q-1.7 2-1.6 5.45"/><path fill="none" stroke="#fff" stroke-linecap="round" stroke-linejoin="round" d="m9.6 6.65 5.2 5.05 1.4 1 1.3.7"/><path fill="#ededed" fill-rule="evenodd" d="M20.4 1.3q.65.45.65.9.05 2.3-1.95 2.4-5.85.65-7.55 1.2-4.75 1.4-5.95 2L3.2 9.75Q2.3 6.3 6.15 4.5q3.85-1.85 13-3.45.6-.2 1.25.25m-19 14.55 7.2.25 4.05-.05 2.5-.5-1.1.95q.15 2.1-3 2.2l-8.45.85-2.3-.25 1.1-3.45"/><path fill="none" stroke="#c7c7c7" stroke-linecap="round" stroke-linejoin="round" d="M15.9 15.35q-2.7 1.3-4.65 1.3L1.5 16.1"/><path fill="#a6a6a6" fill-rule="evenodd" d="m3.3 8.35 2.6-1.5q-1.55 3.7-2.35 6.1-.8 2.4-1.75 6.65L0 19.15q.9-4.05 1.9-6.95l1.4-3.85"/><path fill="red" fill-rule="evenodd" d="m13.3 12.9-.4 1.15q-.35 1.3-1.4 1.25l-2.3-.2Q8 14.75 8.05 14l.45-1.5 2.6.4h2.2"/><path fill="#a6a6a6" fill-rule="evenodd" d="M4.4 5.95q1.9-2.4 4.9-3.25-3.6 3.75-4.15 4.7l-.6.9-1.75.9 1.6-3.25"/><path fill="none" stroke="#a6a6a6" stroke-linecap="round" stroke-linejoin="round" d="M17.35.85q-4.5.8-7.35 1.85-1.8.65-3.35 1.9L5.4 5.7"/><path fill="none" stroke="#fff" stroke-linecap="round" stroke-linejoin="round" d="M20.9 2.45q-.9-1.2-1.75-.85-9.4.95-12.35 4.25L5.15 8.6"/></g></defs></svg>