<svg xmlns="http://www.w3.org/2000/svg" xmlns:xlink="http://www.w3.org/1999/xlink" width="84.85" height="82"><g transform="translate(37.4 42.25)"><use xlink:href="#a" width="32.05" height="38" transform="translate(-11.95 -17.45)"/><use xlink:href="#b" width="33.05" height="38.95" transform="translate(-12.45 -17.95)"/><use xlink:href="#c" width="36.35" height="21.2" transform="translate(-13.6 .05)"/></g><defs><path id="d" fill="#cfa677" fill-rule="evenodd" d="M27.35 7.4q2.15 4.15 3.55 8.75 1.45 4.7 1.15 9.5-.35 4.95-4.2 8.1-3.8 3.2-8.75 4.05l-2.6.2q-3.6 0-7.05-1.15-4.65-1.6-7.1-5.5Q-.2 27.4.05 23q.2-4.4 2-9.3Q3.85 8.75 7 5.05 10.1 1.3 14.7.1l1.8-.1q1.9.05 3.7.8 4.75 2.05 7.15 6.6" transform="translate(-.05)"/><path id="e" fill="none" stroke="#161616" stroke-linecap="round" stroke-linejoin="round" d="M27.35 7.4Q24.95 2.85 20.2.8 17.55-.3 14.7.1 10.1 1.3 7 5.05q-3.15 3.7-4.95 8.65-1.8 4.9-2 9.3-.25 4.4 2.3 8.35 2.45 3.9 7.1 5.5 4.65 1.55 9.65.95 4.95-.85 8.75-4.05 3.85-3.15 4.2-8.1.3-4.8-1.15-9.5-1.4-4.6-3.55-8.75Z" transform="translate(.45 .5)"/><use xlink:href="#d" id="a" width="32.05" height="38"/><use xlink:href="#e" id="b" width="33.05" height="38.95"/><g id="c"><path fill-rule="evenodd" d="M35.35 1.9q1.9 2.15.1 5.3l-.6 1.4q0 .6-.75 2.05l-1.5 3.25q-.7 4-1.7 4.75-1.8 1.3-3.65 1.65l-3.95.45-1.05.2-.4-.05-.2-.1-.5.1-.15.05-2.3.2v.05l-.75-.05h-.5l-7.8-1q-4.1-1-5.2-2.25L3.3 15.15q-.5-1.8-1.15-2.7Q.3 9.55.05 6.05-.1 2.25.6 1.1 1.35.2 2.3 0L2 1.4l-.45.45-.35.6L1.05 6l.1.55q.5 3.8 1.65 5.45 1.35 2 2.3 5.45.75 1.05 4.7 2l8.1.95h.05l3.95-.2-.7.65 1.75-.75.35.1.5-.2.65-.1q4-.4 6-1.85.85-.6 1.4-4.3l1.6-3.45.7-1.85.5-1.4.15-.25q1.25-3.1 0-4.35L34 1.7l-.05-.05L33.8.9h.1l1.45 1m-14.2 19 .05-.05-.2.05h.15"/><path fill="red" fill-rule="evenodd" d="M34.65 7.05q1.05-3.5-1.9-2.65l.05-.15q0-.5-.5-.5t-.5.5l-.15.65q-2.95 1.75-4.2 4.15l-2.9 6.1-.7 1.5-.4-7.15q0-.55-.5-.7 1.4-1.1 2.65-3.05 4.05-3.5 5.25-4.2l2.95.2 1 .7q1.25 1.25 0 4.35l-.15.25m-12.7 2.5.6 9.8-.65.85-3.95.2h-.05l-8.1-.95q-3.95-.95-4.7-2Q4.15 14 2.8 12q-1.15-1.65-1.65-5.45l.05-4.1q1-2.75 3.9-.5l5.1 3.8 2.45 2.85q1.95 1.85 5.3 1.85 2.25 0 4-.95v.05m10.6 1.9 1.6-3-.7 1.85-1.6 3.45q.3-1.75.7-2.3"/><path fill="none" stroke="#ffc300" stroke-linecap="round" stroke-linejoin="round" d="m4.45 4.85 1.85 12.4"/><path fill="none" stroke="#ffc300" stroke-linecap="round" stroke-linejoin="round" stroke-width="1.5" d="m13.85 9.95-.05 9.4m4.55-7.25-.15 7.7"/><path fill="#ffc300" fill-rule="evenodd" d="m23.45 9.5.4 7.15-1.3 2.7-.6-9.8V9.5q0-.75.75-.75t.75.75m-.5 10.6.15-.1.75-.05-.55.25-.35-.1M31.8 4.25q0-.5.5-.5t.5.5l-.05.15-.05.05-1.05.45.15-.65"/><path fill="red" fill-rule="evenodd" d="M24.45 8.2q-4.1 5.75-6.25 5.75-2.1 0-6.25-5.25 2.9 1.75 6 1.75 3.15 0 6.5-2.25"/><path fill="#0d171d" fill-rule="evenodd" d="m21.2 20.85.7-.65 1-.1h.05l-1.75.75m9.25-2.8q-2 1.45-6 1.85 4.9-.85 6.45-2.45l.7-2.35q-.1-.25.25-1.35-.55 3.7-1.4 4.3"/><path fill="#d9171d" fill-rule="evenodd" d="m34.15 8.45-1.6 3q-.4.55-.7 2.3-.35 1.1-.25 1.35l-.7 2.35q-1.55 1.6-6.45 2.45l-.6.05.2-.5v-.05l-.2-2.75.7-1.5 2.9-6.1q1.25-2.4 4.2-4.15L29.7 17v.1q0 .5.5.5l.5-.45L32.75 4.4q2.95-.85 1.9 2.65-.4.65-.5 1.4m-11.6 10.9v.15q0 .35.35.6l-1 .1.65-.85"/><path fill="#d9b31d" fill-rule="evenodd" d="M22.55 19.5v-.15l1.3-2.7.2 2.75v.05l-.2.5-.75.05-.15.1q-.4-.15-.4-.6m7.15-2.4V17l1.95-12.1 1.05-.45.05-.05-2.05 12.75-.5.45q-.5 0-.5-.5"/><path fill="none" stroke="#c72525" stroke-linecap="round" stroke-linejoin="round" d="M5.7 17.05q3.65 2.75 12.5 2.75 8.9 0 11.65-2.25"/><path fill="none" stroke="#ffc300" stroke-linecap="round" stroke-linejoin="round" d="M34.85 2.45V6.8M1.6 2.55l-.05 3.9"/><path fill="red" fill-rule="evenodd" d="M29.7 7.8q-2.35 1.75-9 2.65l2.9-2.65q2.1-2.75 3.25-3.85 1.15-1.2 4.35-2.4 1.4-.5 3.15.4-2.25 4.1-4.65 5.85m-17.6 0 2.85 2.65q-6.6-.9-9-2.65Q4.3 6.55 3.8 3.85q-.45-2.7.65-2.3 3.1 1.1 4.4 2.4 1.1 1.1 3.25 3.85"/><path fill="none" stroke="#ffc300" stroke-linecap="round" stroke-linejoin="round" d="m13.45 9.7 1.15.65q1.55.6 3.25.6 2.75 0 4.6-1.25"/><path fill="#ffd500" fill-rule="evenodd" d="M28.95 9.45v4L26.6 15.7l-1.4-1.65.25-3.85 3.5-.75"/><path fill="none" stroke="#c72525" stroke-linecap="round" stroke-linejoin="round" d="m2.8 1.1 2 .6q2.3.8 3.5 1.9 1.9 1.75 5.05 5.75m9.5-.65q3.1-4 4.85-5.25 1.75-1.25 4.25-2.2l.65-.05"/><path fill="none" stroke="#ffc300" stroke-linecap="round" stroke-linejoin="round" stroke-width="1.5" d="M10.85 9.05q-.8-.45-1.65-.75-1.65-.7-1.65-.15 0 2.45.2 2.8.05.1 1.7.8 1.4.55 1.5 2.1.2 2.6-2.6 1.7"/></g></defs></svg>