<svg xmlns:xlink="http://www.w3.org/1999/xlink" height="82" width="84.85" xmlns="http://www.w3.org/2000/svg"><g transform="translate(37.4 42.25)"><use height="38" transform="translate(-11.95 -17.45)" width="32.05" xlink:href="#a"/><use height="38.95" transform="translate(-12.45 -17.95)" width="33.05" xlink:href="#b"/><use height="21.2" transform="translate(-13.6 .05)" width="36.35" xlink:href="#c"/></g><defs><path d="M27.35 7.4q2.15 4.15 3.55 8.75 1.45 4.7 1.15 9.5-.35 4.95-4.2 8.1-3.8 3.2-8.75 4.05l-2.6.2q-3.6 0-7.05-1.15-4.65-1.6-7.1-5.5Q-.2 27.4.05 23q.2-4.4 2-9.3Q3.85 8.75 7 5.05 10.1 1.3 14.7.1l1.8-.1q1.9.05 3.7.8 4.75 2.05 7.15 6.6" fill="#cfa677" fill-rule="evenodd" transform="translate(-.05)" id="d"/><path d="M27.35 7.4Q24.95 2.85 20.2.8 17.55-.3 14.7.1 10.1 1.3 7 5.05q-3.15 3.7-4.95 8.65-1.8 4.9-2 9.3-.25 4.4 2.3 8.35 2.45 3.9 7.1 5.5 4.65 1.55 9.65.95 4.95-.85 8.75-4.05 3.85-3.15 4.2-8.1.3-4.8-1.15-9.5-1.4-4.6-3.55-8.75Z" fill="none" stroke="#161616" stroke-linecap="round" stroke-linejoin="round" transform="translate(.45 .5)" id="e"/><use height="38" width="32.05" xlink:href="#d" id="a"/><use height="38.95" width="33.05" xlink:href="#e" id="b"/><g id="c"><path d="M21.75 1.95q1.9 2.15.1 5.3l-.6 1.4q0 .6-.75 2.05L19 13.95q-.7 4-1.7 4.75-1.8 1.3-3.65 1.65l-3.95.45-1.05.2-.4-.05-.2-.1-.5.1-.15.05-2.3.2v.05l-.75-.05h-.5l-7.8-1q-4.1-1-5.2-2.25l-1.15-2.75q-.5-1.8-1.15-2.7-1.85-2.9-2.1-6.4-.15-3.8.55-4.95.75-.9 1.7-1.1l-.3 1.4-.45.45-.35.6-.15 3.55.1.55q.5 3.8 1.65 5.45 1.35 2 2.3 5.45.75 1.05 4.7 2l8.1.95h.05l3.95-.2-.7.65 1.75-.75.35.1.5-.2.65-.1q4-.4 6-1.85.85-.6 1.4-4.3l1.6-3.45.7-1.85.5-1.4.15-.25q1.25-3.1 0-4.35l-.8-.75-.05-.05-.15-.75h.1l1.45 1m-14.2 19 .05-.05-.2.05h.15" fill-rule="evenodd" transform="translate(13.6 -.05)"/><path d="M21.05 7.1q1.05-3.5-1.9-2.65l.05-.15q0-.5-.5-.5t-.5.5l-.15.65Q15.1 6.7 13.85 9.1l-2.9 6.1-.7 1.5-.4-7.15q0-.55-.5-.7 1.4-1.1 2.65-3.05 4.05-3.5 5.25-4.2l2.95.2 1 .7q1.25 1.25 0 4.35l-.15.25M8.35 9.6l.6 9.8-.65.85-3.95.2H4.3l-8.1-.95q-3.95-.95-4.7-2-.95-3.45-2.3-5.45-1.15-1.65-1.65-5.45l.05-4.1q1-2.75 3.9-.5l5.1 3.8 2.45 2.85Q1 10.5 4.35 10.5q2.25 0 4-.95v.05m10.6 1.9 1.6-3-.7 1.85-1.6 3.45q.3-1.75.7-2.3" fill="red" fill-rule="evenodd" transform="translate(13.6 -.05)"/><path d="m-9.15 4.9 1.85 12.4" fill="none" stroke="#ffc300" stroke-linecap="round" stroke-linejoin="round" transform="translate(13.6 -.05)"/><path d="m13.85 9.95-.05 9.4m4.55-7.25-.15 7.7" fill="none" stroke="#ffc300" stroke-linecap="round" stroke-linejoin="round" stroke-width="1.5"/><path d="m9.85 9.55.4 7.15-1.3 2.7-.6-9.8v-.05q0-.75.75-.75t.75.75m-.5 10.6.15-.1.75-.05-.55.25-.35-.1M18.2 4.3q0-.5.5-.5t.5.5l-.05.15-.05.05-1.05.45.15-.65" fill="#ffc300" fill-rule="evenodd" transform="translate(13.6 -.05)"/><path d="M10.85 8.25Q6.75 14 4.6 14q-2.1 0-6.25-5.25 2.9 1.75 6 1.75 3.15 0 6.5-2.25" fill="red" fill-rule="evenodd" transform="translate(13.6 -.05)"/><path d="m7.6 20.9.7-.65 1-.1h.05l-1.75.75m9.25-2.8q-2 1.45-6 1.85 4.9-.85 6.45-2.45l.7-2.35q-.1-.25.25-1.35-.55 3.7-1.4 4.3" fill="#0d171d" fill-rule="evenodd" transform="translate(13.6 -.05)"/><path d="m20.55 8.5-1.6 3q-.4.55-.7 2.3-.35 1.1-.25 1.35l-.7 2.35q-1.55 1.6-6.45 2.45l-.6.05.2-.5v-.05l-.2-2.75.7-1.5 2.9-6.1q1.25-2.4 4.2-4.15l-1.95 12.1v.1q0 .5.5.5l.5-.45 2.05-12.75q2.95-.85 1.9 2.65-.4.65-.5 1.4M8.95 19.4v.15q0 .35.35.6l-1 .1.65-.85" fill="#d9171d" fill-rule="evenodd" transform="translate(13.6 -.05)"/><path d="M8.95 19.55v-.15l1.3-2.7.2 2.75v.05l-.2.5-.75.05-.15.1q-.4-.15-.4-.6m7.15-2.4v-.1l1.95-12.1 1.05-.45.05-.05L17.1 17.2l-.5.45q-.5 0-.5-.5" fill="#d9b31d" fill-rule="evenodd" transform="translate(13.6 -.05)"/><path d="M-7.9 17.1q3.65 2.75 12.5 2.75 8.9 0 11.65-2.25" fill="none" stroke="#c72525" stroke-linecap="round" stroke-linejoin="round" transform="translate(13.6 -.05)"/><path d="M21.25 2.5v4.35M-12 2.6l-.05 3.9" fill="none" stroke="#ffc300" stroke-linecap="round" stroke-linejoin="round" transform="translate(13.6 -.05)"/><path d="M16.1 7.85q-2.35 1.75-9 2.65L10 7.85Q12.1 5.1 13.25 4q1.15-1.2 4.35-2.4 1.4-.5 3.15.4-2.25 4.1-4.65 5.85m-17.6 0 2.85 2.65q-6.6-.9-9-2.65Q-9.3 6.6-9.8 3.9q-.45-2.7.65-2.3 3.1 1.1 4.4 2.4 1.1 1.1 3.25 3.85" fill="red" fill-rule="evenodd" transform="translate(13.6 -.05)"/><path d="M-.15 9.75 1 10.4q1.55.6 3.25.6Q7 11 8.85 9.75" fill="none" stroke="#ffc300" stroke-linecap="round" stroke-linejoin="round" transform="translate(13.6 -.05)"/><path d="M15.35 9.5v4L13 15.75l-1.4-1.65.25-3.85 3.5-.75" fill="#ffd500" fill-rule="evenodd" transform="translate(13.6 -.05)"/><path d="m-10.8 1.15 2 .6q2.3.8 3.5 1.9Q-3.4 5.4-.25 9.4m9.5-.65q3.1-4 4.85-5.25 1.75-1.25 4.25-2.2l.65-.05" fill="none" stroke="#c72525" stroke-linecap="round" stroke-linejoin="round" transform="translate(13.6 -.05)"/><path d="M10.85 9.05q-.8-.45-1.65-.75-1.65-.7-1.65-.15 0 2.45.2 2.8.05.1 1.7.8 1.4.55 1.5 2.1.2 2.6-2.6 1.7" fill="none" stroke="#ffc300" stroke-linecap="round" stroke-linejoin="round" stroke-width="1.5"/></g></defs></svg>