<svg xmlns:xlink="http://www.w3.org/1999/xlink" height="82" width="84.85" xmlns="http://www.w3.org/2000/svg"><g transform="translate(37.4 42.25)"><use height="38" transform="translate(-11.95 -17.45)" width="32.05" xlink:href="#a"/><use height="38.95" transform="translate(-12.45 -17.95)" width="33.05" xlink:href="#b"/><use height="20.75" transform="translate(-13.2 .75)" width="34.3" xlink:href="#c"/></g><defs><path d="M27.35 7.4q2.15 4.15 3.55 8.75 1.45 4.7 1.15 9.5-.35 4.95-4.2 8.1-3.8 3.2-8.75 4.05l-2.6.2q-3.6 0-7.05-1.15-4.65-1.6-7.1-5.5Q-.2 27.4.05 23q.2-4.4 2-9.3Q3.85 8.75 7 5.05 10.1 1.3 14.7.1l1.8-.1q1.9.05 3.7.8 4.75 2.05 7.15 6.6" fill="#d69e5e" fill-rule="evenodd" transform="translate(-.05)" id="d"/><path d="M27.35 7.4Q24.95 2.85 20.2.8 17.55-.3 14.7.1 10.1 1.3 7 5.05q-3.15 3.7-4.95 8.65-1.8 4.9-2 9.3-.25 4.4 2.3 8.35 2.45 3.9 7.1 5.5 4.65 1.55 9.65.95 4.95-.85 8.75-4.05 3.85-3.15 4.2-8.1.3-4.8-1.15-9.5-1.4-4.6-3.55-8.75Z" fill="none" stroke="#333" stroke-linecap="round" stroke-linejoin="round" transform="translate(.45 .5)" id="e"/><use height="38" width="32.05" xlink:href="#d" id="a"/><use height="38.95" width="33.05" xlink:href="#e" id="b"/><g id="c"><path d="M1.8 1.45 1.65 1l-.05.1v-.05L1.25 2.8q-.35 2.1-.2 3.95.5 6.15 1.25 5.15.55 1.55 2.9 3.6l.05-.1q4.1 4 11.2 4.3v.05h.5v-.05h.25q8.45-1.1 12.05-4.4l-.05.2q2.2-1.9 2.85-3.4.6.75.95-3.9.75-3.95-.25-7.2l-.05.1-.1.3" fill="none" stroke="#000" stroke-linecap="round" stroke-linejoin="round" stroke-width="2"/><path d="m19.55 1.75.5 4.7q-.15 5.4-3.55 9.2-3.3 3.65-12.5 4.8-8.1 0-12.45-4.8-3.4-3.8-3.6-9.2l.5-4.7q1.1 3.95 3.15 4.85 2 .9 6.6 2.4 1.65.7 3.55 2.7Q3.4 13.4 4 13.4q.6 0 2.25-1.7 1.9-2 3.55-2.7l6.15-2.4q2.4-1.05 3.6-4.85" fill="#243f57" fill-rule="evenodd" transform="translate(13.2 -.75)"/><path d="M3.7 12.6q-9 0-11.7 3.65l-3.05-8.5 9.15.35Q3.6 11 4.5 11l2-1.6q1.75-1.6 3.2-1.65l6.4-.25q3.85.85-.25 8.75Q12.7 12.6 3.7 12.6" fill="#3e6b94" fill-rule="evenodd" transform="translate(13.2 -.75)"/><path d="M17.05 9.4q1.05.15 2.05-.6l1.5-1.65q1.1-1.2 2.35-1.75l3.85-.95q2.6-.5 3.5-1.3l1.65-1.6" fill="none" stroke="#95651e" stroke-linecap="round" stroke-linejoin="round" stroke-width="1.5"/><path d="M17.1 9.4q-1.05.15-2.05-.6-1.75-2.5-3.85-3.4-5.75-.85-7.35-2.25l-1.8-1.5" fill="none" stroke="#95651e" stroke-linecap="round" stroke-linejoin="round" stroke-width="1.5"/><path d="m19.6 11.65-.65.95-.1.25q-3.2-4.4-4.2-4.55-1.5-.2-4.25 1.25L8 12.1Q6.15 14 3.85 14v-2.95q1.05.2 2.05-.55l1.5-1.65q1.1-1.25 2.35-1.8l3.85-.9q2.6-.5 3.5-1.35 1.55-1.4 2.25-3l.35 1.75q.35 2.1.2 3.95l-.3 4.15" fill="#df0" fill-rule="evenodd" transform="translate(13.2 -.75)"/><path d="m8.9 8.05-.15-.15q1.6-1.2 5.5-1.8 1.9-.9 5-3.9.65.6.65 3.3 0 1.35-.5 1.55h-1.95l-4.35.1-4.2.9" fill="#f9ffd6" fill-rule="evenodd" transform="translate(13.2 -.75)"/><path d="M3.9 11.05 3.85 14q-2.3 0-4.1-1.9-1.6-2.1-2.4-2.55Q-5.5 8.15-6.6 8.3q-.7.1-2.95 2.75l-1.3 1.65-.6-1.15-.45-.8-.25-3.25q-.15-1.85.2-3.95l.35-1.75 2.25 3Q-7.75 6.25-2 7.05.1 8 1.85 10.5q1 .75 2.05.55" fill="#df0" fill-rule="evenodd" transform="translate(13.2 -.75)"/><path d="M-9.75 7.05h-1.9q-.6-.25-.5-1.55 0-2.7.65-3.3 3.1 3 5 3.9l2.8.75q1.8.4 2.7 1.05l-.15.15q-2.65-.85-4.2-.9l-4.4-.1" fill="#f9ffd6" fill-rule="evenodd" transform="translate(13.2 -.75)"/><path d="M3.2 11h1.3v4.15H3.2V11" fill="#243f57" fill-rule="evenodd" transform="translate(13.2 -.75)"/><path d="m9.4 14.15 1.25-2.25L15 12l-5.6 2.15" fill="#a2c9eb" fill-rule="evenodd" transform="translate(13.2 -.75)"/><path d="m15.9 9.15 2.7-.5.35 1.35q.3 1.6 0 2.55-.45 1.55-2.95 3.7.45-1.75.5-3.35l-.6-3.75m-23.8 0-.6 3.75q.05 1.6.5 3.35-2.5-2.15-2.95-3.7-.3-.95.05-2.55l.35-1.35 2.65.5" fill="#df0" fill-rule="evenodd" transform="translate(13.2 -.75)"/><path d="M3.25 11h.5v9.5h-.5V11" fill="#b6dafa" fill-rule="evenodd" transform="translate(13.2 -.75)"/><path d="M3.85 11.05q1.05.2 2.05-.55l1.5-1.65q1.1-1.25 2.35-1.8l3.85-.9q2.6-.5 3.5-1.35 1.55-1.4 2.25-3" fill="none" stroke="#fdfff2" stroke-linecap="round" stroke-linejoin="round" transform="translate(13.2 -.75)"/><path d="M3.9 11.05q-1.05.2-2.05-.55Q.1 8-2 7.05q-5.75-.8-7.35-2.25l-2.25-3" fill="none" stroke="#fdfff2" stroke-linecap="round" stroke-linejoin="round" transform="translate(13.2 -.75)"/></g></defs></svg>