<svg xmlns="http://www.w3.org/2000/svg" xmlns:xlink="http://www.w3.org/1999/xlink" width="84.85" height="82"><g transform="translate(37.4 42.25)"><use xlink:href="#a" width="32.05" height="38" transform="translate(-11.95 -17.45)"/><use xlink:href="#b" width="27.1" height="12.7" transform="translate(-9.55 -12.55)"/><use xlink:href="#c" width="33.05" height="38.95" transform="translate(-12.45 -17.95)"/><use xlink:href="#d" width="33.75" height="14.85" transform="translate(-12.65 9.55)"/></g><defs><path id="e" fill="#c98036" fill-rule="evenodd" d="M27.35 7.4q2.15 4.15 3.55 8.75 1.45 4.7 1.15 9.5-.35 4.95-4.2 8.1-3.8 3.2-8.75 4.05l-2.6.2q-3.6 0-7.05-1.15-4.65-1.6-7.1-5.5Q-.2 27.4.05 23q.2-4.4 2-9.3Q3.85 8.75 7 5.05 10.1 1.3 14.7.1l1.8-.1q1.9.05 3.7.8 4.75 2.05 7.15 6.6" transform="translate(-.05)"/><path id="f" fill="none" stroke="#333" stroke-linecap="round" stroke-linejoin="round" d="M27.35 7.4Q24.95 2.85 20.2.8 17.55-.3 14.7.1 10.1 1.3 7 5.05q-3.15 3.7-4.95 8.65-1.8 4.9-2 9.3-.25 4.4 2.3 8.35 2.45 3.9 7.1 5.5 4.65 1.55 9.65.95 4.95-.85 8.75-4.05 3.85-3.15 4.2-8.1.3-4.8-1.15-9.5-1.4-4.6-3.55-8.75Z" transform="translate(.45 .5)"/><path id="b" fill="#f3b372" fill-rule="evenodd" d="M17.5-5q.25 1.3-.7 2.6Q14.9.15 8.85.15q-4.15 0-4.8-2.1v-7.9L5.3-11.2q1.6-1.35 3.15-1.35 4.6 0 6.15 1.5.75.75.6 1.5L17.5-5M4.05-1.95Q3.4.15-.8.15q-6.4 0-8.15-2.55-.55-.85-.6-1.8l.1-.8 2.35-4.55q0-3 6.65-3 2.5 0 4.5 2.7v7.9" transform="translate(9.55 12.55)"/><use xlink:href="#e" id="a" width="32.05" height="38"/><use xlink:href="#f" id="c" width="33.05" height="38.95"/><g id="d"><path fill="none" stroke="#875625" stroke-linecap="round" stroke-linejoin="round" d="m20.2 10.8 1.2-1.35Q22.9 8 24.7 7.3q2.9-1.15 5.55-1.85M13.4 10.6q-1.7-2.2-4.55-3.3-2.9-1.15-5.5-2"/><path fill="#d90000" fill-rule="evenodd" d="M19.85 11.7q-3.1 1.05-6.2 0-4-1.7-6.4-3.2L3.3 5.1 1.7 2.05Q8.85 6.1 16.55 6.1h.4q7.65 0 15.4-4.25L30.2 5.1q-2.25 2.15-4.65 3.65l-5.7 2.95"/><path fill="#d90000" fill-rule="evenodd" d="M19.1 13.9q-3.05-1.6 0-4.5 2-1.85 7.5-2.6l5.85-3.15q1.5 6.65-1.6 8.4-2.3 1.3-6.45 1.9-4.1.65-5.3-.05"/><path fill="#ff5524" fill-rule="evenodd" d="m15.35 6.55 6.25-.9q3.6 0 6.2-1 3.85-1.45 4.65-1.1-.3 1.8-3.05 2.95-2.15.9-4.55 1.05-5.45.25-9.5-1"/><path fill="#d90000" fill-rule="evenodd" d="M14.35 13.9q-1.25.7-5.35.05-4.1-.6-6.4-1.9Q-.5 10.3.95 3.65l5.9 3.15 3 .6q3.25.85 4.5 2 3.05 2.9 0 4.5"/><path fill="#ff5524" fill-rule="evenodd" d="M9.95 5.65 14.6 6.8l-5.9.7q-2.15.15-4.85-.85-2.7-1.05-2.7-2.5Q1.1 2 4 3.5l5.95 2.15"/><path fill="none" stroke="#ff9d80" stroke-linecap="round" stroke-linejoin="round" d="M2.25 2.5q6.15 4.05 14.5 4.05 8.65 0 15.15-4.2"/><path fill="#b20000" fill-rule="evenodd" d="M13.05 11.05q-1.45-.15-2.65-.85l5.55-.6q3.15 0 6.4.8-.7.5-4.6 1.4l-2.35-.15-2.35-.6"/><path fill="none" stroke="#900" stroke-linecap="round" stroke-linejoin="round" d="M10.1 10.55q1.35 1 6 1 4.6 0 6.1-.9"/><path fill="none" stroke="#fff" stroke-linecap="round" stroke-linejoin="round" d="m27.35 3.8 1.8 1.35q1.8 1.5 1.8 2.5l-.1 3.9m-6.5-7L27.6 7.9q.5 1.15.1 5.25M5.6 3.3 4 4.2Q2.35 5.4 2.35 6.8l.25 4.6m2.6 1.4q-.6-4.5.25-5.65l3.65-2.6"/><path fill="none" stroke="#900" stroke-linecap="round" stroke-linejoin="round" d="m17.4 12.1.5.95q.7 1 1.85 1.3l6.1-.45q4.9-1 6.25-2.9 2-2.85.55-8m-16.9 9.35q-.1 2.05-4.85 1.8Q1 13.65.6 9.35.4 7.4.7 4.85l.4-2.2m.25-2q6.4 4.95 15.5 4.95Q25.9 5.6 32.6.5"/></g></defs></svg>