<svg xmlns="http://www.w3.org/2000/svg" xmlns:xlink="http://www.w3.org/1999/xlink" width="84.85" height="82"><g transform="translate(37.4 42.25)"><use xlink:href="#a" width="32.05" height="38" transform="translate(-11.95 -17.45)"/><use xlink:href="#b" width="33.05" height="38.95" transform="translate(-12.45 -17.95)"/><use xlink:href="#c" width="32.4" height="18" transform="translate(-12.2 2.6)"/></g><defs><path id="d" fill="#c98036" fill-rule="evenodd" d="M27.35 7.4q2.15 4.15 3.55 8.75 1.45 4.7 1.15 9.5-.35 4.95-4.2 8.1-3.8 3.2-8.75 4.05l-2.6.2q-3.6 0-7.05-1.15-4.65-1.6-7.1-5.5Q-.2 27.4.05 23q.2-4.4 2-9.3Q3.85 8.75 7 5.05 10.1 1.3 14.7.1l1.8-.1q1.9.05 3.7.8 4.75 2.05 7.15 6.6" transform="translate(-.05)"/><path id="e" fill="none" stroke="#333" stroke-linecap="round" stroke-linejoin="round" d="M27.35 7.4Q24.95 2.85 20.2.8 17.55-.3 14.7.1 10.1 1.3 7 5.05q-3.15 3.7-4.95 8.65-1.8 4.9-2 9.3-.25 4.4 2.3 8.35 2.45 3.9 7.1 5.5 4.65 1.55 9.65.95 4.95-.85 8.75-4.05 3.85-3.15 4.2-8.1.3-4.8-1.15-9.5-1.4-4.6-3.55-8.75Z" transform="translate(.45 .5)"/><use xlink:href="#d" id="a" width="32.05" height="38"/><use xlink:href="#e" id="b" width="33.05" height="38.95"/><g id="c"><path fill="none" stroke="#804b16" stroke-linecap="round" stroke-linejoin="round" d="m1 .9 1.95.85 2.5 1.05Q6.1.9 9.6 1.4q3.5.5 4.35 2.45L16.7 4l2.85-.4 1-1.2q1.35-1.2 2.9-1.35 2.5-.25 3.9 1.5l2.15-.9q1.35-.5 2.2-1.15"/><path fill="#804b16" fill-rule="evenodd" d="M16.25 6.9q6.35 0 15.85-2.5l.1 2.35Q31.25 7.9 28.8 9q-4.9 2.25-12.5 2.25Q4.15 11.25 1.35 8L.5 4.15Q9.95 6.9 16.25 6.9"/><path fill="#d6008b" fill-rule="evenodd" d="M30 11.35q.3.75-3.05 2.9-3.4 2.2-4.55 2.7-2.5 1.05-6 1.05-5.2 0-8.7-2l-3.1-1.85-1.65-2.55 4 1.7q4.65 1.2 9.3 1.2 4.7 0 7.85-1l5.9-2.15"/><path fill="none" stroke="#fff" stroke-linecap="round" stroke-linejoin="round" d="M2.95 11.85q6 2.65 13.3 2.65 7.35 0 13.3-3"/><path fill="none" stroke="#fff" stroke-linecap="round" stroke-linejoin="round" stroke-width="2" d="M1.35 6.3Q3.1 7.2 6 7.95q2.5 2 5.95.95l2.8.15 1.5.05 4.8-.3q4.3.8 6.3-1.65 2.35-.95 3.75-2l.3-.25"/><path fill="#d6008b" fill-rule="evenodd" d="M16.25 9.1Q4.85 9.1.2 5.55l-.15-3.9Q6.25 4.9 16.1 4.9q9.8 0 15.65-3.35L32 4.3q-1.05 1.2-3.6 2.4-5 2.4-12.15 2.4"/><path fill="#b80077" fill-rule="evenodd" d="M16.25 9.1q-6.4 0-9.5-1.35 5.35-1.1 9.5-1.1l9.6.65q-3.2 1.8-9.6 1.8"/><path fill="#d6008b" fill-rule="evenodd" d="M18.8 6.55q.6-2.85 4.85-4.2 1.65-.55 3.2 1.35 1.55 1.9.65 3.25Q26.15 9 22.25 8.9q-3.95-.1-3.45-2.35m-8.45 2.6q-4 .15-5.1-2.2-.7-1.5.7-3.3 1.5-1.85 3.1-1.3 4.4 1.35 4.9 4.2.4 2.45-3.6 2.6"/><path fill="#b80077" fill-rule="evenodd" d="M12.15 5.85q.85-.2.95.7.1 1.1-1.45 1.4l-2.8.15-1.55-.3q-1.35-.45-1.6-1.3l.1-1.95.85.9 1.25.75 2.85.2 1.4-.55m13.75-.6.85-.9q.7 1.4.35 2.1-.3.6-1.8 1.15l-1.55.3-2.8-.1q-1.55-.3-1.45-1.45.1-.9.95-.65l1.4.5L24.7 6q.7-.3 1.2-.75M16.2 16.3q4.65 0 12.5-3.3-5.25 4.8-12.35 4.8t-12-3.85Q11.5 16.3 16.2 16.3"/><path fill="none" stroke="#fff" stroke-linecap="round" stroke-linejoin="round" d="M.5 1.65 3.35 2.9l2.5.85q.55-1.5 2.85-1.5 3.15 0 4.55 2.55l6.45.1.9-1.2q1.25-1.3 2.85-1.7 2.55-.7 3.4 1.5l2.6-.85q1.15-.4 2.3-1.1"/></g></defs></svg>