<svg xmlns="http://www.w3.org/2000/svg" xmlns:xlink="http://www.w3.org/1999/xlink" width="84.85" height="82"><g transform="translate(37.4 42.25)"><use xlink:href="#a" width="32.05" height="38" transform="translate(-11.95 -17.45)"/><use xlink:href="#b" width="33.05" height="38.95" transform="translate(-12.45 -17.95)"/><use xlink:href="#c" width="30.2" height="16.85" transform="translate(-11.3 .15)"/><use xlink:href="#d" width="23.95" height="24.1" transform="matrix(-1 0 0 1 4.85 -1.1)"/><use xlink:href="#d" width="23.95" height="24.1" transform="translate(3.05 -1.1)"/><use xlink:href="#e" width="30.9" height="22" transform="translate(-11.1 -.35)"/></g><defs><use xlink:href="#f" id="a" width="32.05" height="38"/><use xlink:href="#g" id="b" width="33.05" height="38.95"/><use xlink:href="#h" id="d" width="23.95" height="24.1"/><g id="c" fill-rule="evenodd"><path d="M30.2.7q.25 5.6-2.65 10.35-3.2 5.15-9.2 5.65-6.1.9-10.75-3.5-4.15-3.8-6.3-9.1Q.45 2.1 0 0q4.05 3.65 8.95 5.75 5.55 2.3 11.2 1 4.65-1.2 8.1-4.25L30.2.7"/><path fill="#454545" d="m21.85 11.35-.15-.1-1.75-.8 1.95-1.9 1.35.8-1.3 1.85-.1.15m3.1-4.2-.15.2q-.4.15-1.05 1.2L22.6 7.8l1.2-1.2 1.05.45.1.1m-9.45.95h1.55l-.45.55-.6-.3-.5-.25M12.55 8l-.95 1.35L9.5 8.2l1-.95 1.25.35.8.4m1.25 3.65-1.05 1.1-1.6-1.2.15-.15.6-.75 1.9 1m.7-.75-2.05-1.05L13.6 8.3q.15.35 1.5.8l.8.3-1.4 1.5m5.25-3.1h.15l1.45-.15L19 10l-1.6-.75L18.45 8l.65-.1h.05l.6-.1m-1.5 2.95-1.4 1.4-1.45-.75 1.35-1.4 1.5.75m2.9 1.35-1.45 1.6-1.95-1.05 1.45-1.45 1.95.9m-2.05 2.4-.15.25-.75.6-.65.7-1.25-.65-.85-.45L17 13.4l2.1 1.1m-4.5-.05-1.15-.95 1.3-1.35 1.35.75-1.45 1.45-.05.1m-4.1-3.65-.1.25q-.75-.5-2.35-1.15l.7-.9 2.2 1.2-.45.6"/></g><g id="h"><path fill="#585858" fill-rule="evenodd" d="M23.45 1.45q-3.5 1.85-6.2 4.25l-.05.05q-5.7 5.1-7.85 12.9l1.5-.3q2.5-.7 5-2.7l.15-.1.4-.35.4-.35q-.75 2.3-2.25 3.8l-3.3 2.75 3.3-2.75q1.5-1.5 2.25-3.8l.2-.2q-.55 1.8-1.65 3.2-1.65 2.2-4.1 3.55-1.95 1-4.35 1.55l-5.85.65 5.85-.65-1.95.3-3.9.35H.5L0 19.15q4.4-3.7 9.85-9.9L15 3.4l.95-2.45q4.35-1.1 7.5.5"/><path fill="#3c3c3c" fill-rule="evenodd" d="m19.85 11.3-.2.25-2.5 2.95-.75.7.75-.7-.15.15-.2.2-.4.35-.4.35-.15.1q-2.5 2-5 2.7l-1.5.3q2.15-7.8 7.85-12.9l.05-.05q2.7-2.4 6.2-4.25 0 2.55-1.1 5.4L20 11.05l-.15.25"/><path fill="none" stroke="#000" stroke-linecap="round" stroke-linejoin="round" d="m19.65 11.55.2-.25m.15-.25 2.35-4.2q1.1-2.85 1.1-5.4-3.5 1.85-6.2 4.25l-.05.05q-5.7 5.1-7.85 12.9m6.65-3.1.4-.35.75-.7m-16.1 9.1 5.85-.65.95-.1q1.65-.4 3.4-1.45l3.3-2.75q1.5-1.5 2.25-3.8m6.65-13.4q-3.15-1.6-7.5-.5"/><path fill="none" stroke="#232323" stroke-linecap="round" stroke-linejoin="round" d="m9.35 18.65 1.5-.3q2.5-.7 5-2.7"/></g><g id="e" fill-rule="evenodd"><path fill="#3c3c3c" d="M14.1 15.75q1.7 2.15 1.15 3.5-.5 1.1-2.35 1.45-1.9.35-2.75-.55V19.1q.25-1.55-.15-3.05-.1-.4-1.35-2.05-.95-1.2-.5-2.2l.1-.55q1.25.2 2.55 1.5l3.3 3"/><path fill="#782714" d="m30.9 3.7-1.2 1.4q-1.45-.8-3-.8L29.9.4l1 3.3"/><path fill="#ff3d2b" d="M26.7 4.3q1.55 0 3 .8l-3.8 4.2-3-.1-.6-.2 4.4-4.7"/><path fill="#782714" d="m23.3 12.2-.4.4-.3.4-4.1.4 2.4-2.9 2.8-.2 1.3.1-1.7 1.8"/><path fill="#bc2e1f" d="m24.8 10.4-1.3-.1-2.8.2L22 9.2l.1-.2.6.2 3 .1-.9 1.1m-6.7 4.4-1.1.3 1.3-1.7 4.1-.4-1 1-3.3.8"/><path fill="#762514" d="m21.6 14-.7.9-5 7.1h-4l5.3-6.9 1.1-.3 3.3-.8"/><path fill="#762514" d="m11.7 10.8 6 6.3-1.7 2-7-6.7 2.7-1.6"/><path fill="#ff3d2b" d="m1.2 3.8 2.2-.6 2.9 2.9-2.5.9-2.6-3.2"/><path fill="#782714" d="m3.4 3.2-2.2.6L0 2l.5-2 6.4 6.5-2.7.9-.4-.4 2.5-.9-2.9-2.9"/><path fill="#ff3d2b" d="m4.2 7.4 2.7-.9 2.2 2-3.3 1-1.6-2.1"/><path fill="#bc2e1f" d="m5.8 9.5 3.3-1 2.6 2.3L9 12.4 5.8 9.5"/></g><path id="f" fill="#fff" fill-rule="evenodd" d="M27.35 7.4q2.15 4.15 3.55 8.75 1.45 4.7 1.15 9.5-.35 4.95-4.2 8.1-3.8 3.2-8.75 4.05l-2.6.2q-3.6 0-7.05-1.15-4.65-1.6-7.1-5.5Q-.2 27.4.05 23q.2-4.4 2-9.3Q3.85 8.75 7 5.05 10.1 1.3 14.7.1l1.8-.1q1.9.05 3.7.8 4.75 2.05 7.15 6.6" transform="translate(-.05)"/><path id="g" fill="none" stroke="#333" stroke-linecap="round" stroke-linejoin="round" d="M27.35 7.4Q24.95 2.85 20.2.8 17.55-.3 14.7.1 10.1 1.3 7 5.05q-3.15 3.7-4.95 8.65-1.8 4.9-2 9.3-.25 4.4 2.3 8.35 2.45 3.9 7.1 5.5 4.65 1.55 9.65.95 4.95-.85 8.75-4.05 3.85-3.15 4.2-8.1.3-4.8-1.15-9.5-1.4-4.6-3.55-8.75Z" transform="translate(.45 .5)"/></defs></svg>