<svg xmlns="http://www.w3.org/2000/svg" xmlns:xlink="http://www.w3.org/1999/xlink" width="84.85" height="82"><g transform="translate(37.4 42.25)"><use xlink:href="#a" width="32.05" height="38" transform="translate(-11.95 -17.45)"/><use xlink:href="#b" width="33.05" height="38.95" transform="translate(-12.45 -17.95)"/><use xlink:href="#c" width="43.6" height="32.1" transform="translate(-17.8 -2.6)"/></g><defs><path id="d" fill="#c78349" fill-rule="evenodd" d="M27.35 7.4q2.15 4.15 3.55 8.75 1.45 4.7 1.15 9.5-.35 4.95-4.2 8.1-3.8 3.2-8.75 4.05l-2.6.2q-3.6 0-7.05-1.15-4.65-1.6-7.1-5.5Q-.2 27.4.05 23q.2-4.4 2-9.3Q3.85 8.75 7 5.05 10.1 1.3 14.7.1l1.8-.1q1.9.05 3.7.8 4.75 2.05 7.15 6.6" transform="translate(-.05)"/><path id="e" fill="none" stroke="#010102" stroke-linecap="round" stroke-linejoin="round" d="M27.35 7.4Q24.95 2.85 20.2.8 17.55-.3 14.7.1 10.1 1.3 7 5.05q-3.15 3.7-4.95 8.65-1.8 4.9-2 9.3-.25 4.4 2.3 8.35 2.45 3.9 7.1 5.5 4.65 1.55 9.65.95 4.95-.85 8.75-4.05 3.85-3.15 4.2-8.1.3-4.8-1.15-9.5-1.4-4.6-3.55-8.75Z" transform="translate(.45 .5)"/><use xlink:href="#d" id="a" width="32.05" height="38"/><use xlink:href="#e" id="b" width="33.05" height="38.95"/><g id="c" fill-rule="evenodd"><path fill="#003a41" d="M36.85 1.3V.45l5.4-.45q1.3-.15 1.35 1l-.25.25q-3.5 2.25-4.7 6.25l-.2-.45.25-1.35q1.1-1.75 2.35-3.35l.55-.5q.75-.15 1.1-.95l.05-.15-5.9.55.8 3.3-.3.05-.5-3.35M4.45 6.2Q3 2.9.2.95L0 .6Q3.15-.55 6.65.55l-.05.8-3.3-.3L.85.8l.4.65.95.55q1.75 1.15 2.5 3.15L4.45 6.2M6.5 2l-.3 2.85-.3-.1.45-2.05.1-.45L6.5 2"/><path fill="#537c2f" d="m41.6 1.85-.55.5Q39.8 3.95 38.7 5.7l-.15-.9-.9-.2-.8-3.3 4.75.55M36.5 8.1q-1.2 1.75-1.5 3.65l-.2 1.1.45.5.7.75-3.2 2q-1.45-.1-2.4.8l-.5.45q-3.3 1-6.55-.15l-1.4-.55q-7.7 2.75-14.45-2.8l.95-1-.65-3.15-2.7-3.3.25-1.1 2.1 1.15-1.3-.6-.8-.55-.1.75-.15.35L7.1 7.6l4.25 6.5q2.95 1.25 6 .1l.8-.45 3.8 2.1q3.6-.65 6.65-2.65l.95-.65 3.3.15q1.6-4.05 5.3-6.35L36.5 8.1m.8 7.35.05.5-.65.6q2 3.3 2.05 7.05l-1.95-.65-1.25-1.9 2.85 1.2q-.6-2.45-1.6-4.65l-.6-1.15 1.1-1M6.6 1.35h.05L6.5 2l-.05.25V1.4L3.3 1.05l3.3.3M38 5.65l-2.1 1.7Q34.2 8.5 33 10.4l-3.8-.05 3.45-.3 2.8-2.75L38 5.65m-15.9 9.2-.25.55-.95-1.65h.05l-.2-.2-.45-.85 1.8 2.15m-3.85 6.05 1.55.2.65.8q2.7 4.05 1.2 9l1.2-1.15q3.95-3.6 3-8.85l1.45.85q3.3 2.05 3.3 6.1l1-1.4h.8l-1.6 2.35q-2.05-.8-3.6-2.15l-1.05-.95q-1.35 2.6-3.55 4.5l-1.05.95q-2.9-2-4.3-5.25-1.2 1.35-2.7 2l-1.85.9-.05-.3 1.45-8.45-.95-.7 3.95 1.3q-.45 4.35 2.35 7.65l1.95 2.2-3.15-9.6m8.1 4.65 3 2.3.5.1.5.2-2.9-3.5-1.15-1.85.05 2.75M4.7 5.15q-.75-2-2.5-3.15l-.95-.55 5.1 1.25-.45 2.05-1.2.4m12.25 5.9-2.2-.7 3.25.9-1.05-.2M12.7 28.8q-2.2-2.55-2.85-5.8l-.3-2.3q-1.9 1.95-4.7 2.8.35-3.7 1.5-7.15l-.7-.6.6-.6 2.05 1.7q-.55-.3-1.05-.55l-.55-.25v.1q-.85 2.6-1.35 5.3L5.1 23.3q1.4-1.4 2.35-3.15l1.45-2.9 2.45 1.3-1.4.5q-.25 2.5.6 4.85L11 25l1.7 3.8"/><path fill="#033110" d="m35.25 13.35.8-.1.3.65-.4.2-.7-.75m2.1 2.6q2.1 3.5 2.1 7.55l-.05 1.05-2.1-.75 1 2.6-.1.3-.9 1.05-1.2.55-.85.3-.4-.2-1.35-2.35-2.3 3.85-4.6-3.1-4.7 5.3q-2.05-1.4-3.45-3.15l-1.4-1.9-1.35 1.05q-1.15.85-2.4 1.3l-.95.35Q10.2 27.15 9.3 24l-.45-1.6-3.2 1.35-1.3.4q-.2-4.8 1.35-9.5l.45.1.1.4-.6.6.7.6Q5.2 19.8 4.85 23.5q2.8-.85 4.7-2.8l.3 2.3q.65 3.25 2.85 5.8l1.85-.9q1.5-.65 2.7-2 1.4 3.25 4.3 5.25l1.05-.95q2.2-1.9 3.55-4.5l1.05.95q1.55 1.35 3.6 2.15l1.6-2.35h-.8l-.55-5.6-.9-.25-.5-.85q-4.8 1.65-9.85 1.35l-1.55-.2-1.15-.25-3.95-1.3-1.5-.9-2.6-1.65L14 18.95q7.7 2.6 15.5.05l.05-.95.05-.1.25-.6.5-.45q.95-.9 2.4-.8l.9.15.8.6.1.1.55.8v.95l-.6.85 1.05 1.5 1.25 1.9 1.95.65q-.05-3.75-2.05-7.05l.65-.6M36.3 27.2l1.1-.55-4.1-7.3.95-.9-.45-1.4-.25-.2-.4-.2q-2.6-.2-3 2.25l.05.55.85.35.95.05 3.2 7.9 1.1-.55m-3.95-1.55 1-.15-1.55-4.9.55 5.05"/><path fill="#424c14" d="m38.7 5.7-.25 1.35L36.5 8.1l1.65-1.75-.1-.9-.05.2-2.55 1.65-2.8 2.75-3.45.3-3.6 1.05-2.75 2.15-.55.9-.2.4-1.8-2.15-2.3-1.45-3.25-.9-3.6-.1-.65-.2-1.45-2.1-1.65-1.5L5.3 5.3l-.25 1.1 2.7 3.3L5.1 7.2l-.3-.25-.35-.75.25-1.05 1.2-.4.3.1q2.35 1.1 3.75 3.1l.9 1.3q5.95-.35 10.4 3.2l.7.6Q26.35 8.9 32.3 9.3q1.35-2.45 3.75-3.9l1.3-.75.3-.05.9.2.15.9"/><path fill="#639338" d="m38 5.65.05-.2.1.9q-3.7 2.3-5.3 6.35l-3.3-.15-.95.65q-3.05 2-6.65 2.65l-3.8-2.1-.8.45q-3.05 1.15-6-.1L7.1 7.6l2.75 1.8-.8-1.45 1.45 2.1.65.2 9.75 3.5.95 1.65.25-.55.2-.4L33 10.4q1.2-1.9 2.9-3.05l2.1-1.7M20.3 12.7l.45.85-3.8-2.5 1.05.2 2.3 1.45m10.75 7.1-.65-.45 3.5-1.3.15.4-.4.5-1.25.8.45.05 3.45 7.4-1.1.55-2.8-8-.4.1-.95-.05M5.3 5.3l.8.55-.65-.3-.25.5.1-.75"/><path fill="#7fcd41" d="m36.85 1.3 5.9-.55-.05.15q-.35.8-1.1.95l-4.75-.55m-7.65 9.05 3.8.05-10.7 4.05.55-.9 2.75-2.15 3.6-1.05m-8.3 3.4-9.75-3.5 3.6.1 2.2.7 3.8 2.5.2.2h-.05M9.05 7.95l.8 1.45L7.1 7.6 5.05 6.4l.15-.35.25-.5.65.3 1.3.6 1.65 1.5m3.6 20.55.05.3L11 25l-.8-5.5 1.15-.1 1.3 9.1M1.25 1.45.85.8l2.45.25 3.15.35v.85l-.1.45-5.1-1.25m5.45 14.7v-.1l.55.25.95.5q-.35 2.7-2.05 4.7l-.8 1.05 1.35-6.4"/><path fill="#446627" d="m36.35 13.9 1.2-.6.15 1.7-.4.45-1.1 1 .6 1.15q1 2.2 1.6 4.65l-2.85-1.2-1.05-1.5.6-.85 2.7 2.7-2-6.1-2.15.95-.9-.15 3.2-2 .4-.2m-30.2.85.15-1.45 1.15.55q6.75 5.55 14.45 2.8l1.4.55q3.25 1.15 6.55.15l-.25.6-2.8.45q-2.35-.05-4.7-.85l2.5 1.3-5.1.2 1.7-1.5q-3.4 1.4-6.75 0l-1.95-.6 1.85 1.35-5.3-1.65 4.95 2.3-4.95-2.15 2.6 1.65-.3.1-2.45-1.3-.6-.4-2.05-1.7-.1-.4m25.45 11.7-1 1.4q0-4.05-3.3-6.1l-1.45-.85q.95 5.25-3 8.85l-1.2 1.15q1.5-4.95-1.2-9l-.65-.8q5.05.3 9.85-1.35l.5.85.9.25.55 5.6"/><path fill="#96b566" d="m19.5 19.05 5.1-.2 4.95-.8-.05.95q-7.8 2.55-15.5-.05l-4.95-2.3 5.3 1.65 5.15.75m15.05-2.1-.1-.1.6-.2-.5.3m-3.5 2.85-.85-.35-.05-.55q.4-2.45 3-2.25l.4.2.25.2.45 1.4-.95.9 4.1 7.3-1.1.55-3.45-7.4-.45-.05 1.25-.8.4-.5-.15-.4-3.5 1.3.65.45m4.15 7.95-3.2-7.9.4-.1 2.8 8m-2.85-2.1-.55-5.05 1.55 4.9-1 .15"/><path fill="#1e5120" d="m33.65 16.25 2.15-.95 2 6.1-2.7-2.7v-.95l-.55-.8.5-.3-.6.2-.8-.6m-19.3 2.05-1.85-1.35 1.95.6q3.35 1.4 6.75 0l-1.7 1.5-5.15-.75m10.25.55-2.5-1.3q2.35.8 4.7.85l2.8-.45-.05.1-4.95.8"/><path fill="#72a841" d="m18.25 20.9 3.15 9.6-1.95-2.2q-2.8-3.3-2.35-7.65l1.15.25m-5.1-1.55.95.7-1.45 8.45-1.3-9.1-1.15.1.8 5.5-.45-1.1q-.85-2.35-.6-4.85l1.4-.5.3-.1 1.5.9m13.2 6.2-.05-2.75 1.15 1.85 2.9 3.5-.5-.2-.5-.1-3-2.3M8.9 17.25l-1.45 2.9Q6.5 21.9 5.1 23.3l.25-1.85q.5-2.7 1.35-5.3l-1.35 6.4.8-1.05q1.7-2 2.05-4.7l-.95-.5q.5.25 1.05.55l.6.4"/></g></defs></svg>