<svg xmlns="http://www.w3.org/2000/svg" xmlns:xlink="http://www.w3.org/1999/xlink" width="84.85" height="82"><g transform="translate(37.4 42.25)"><use xlink:href="#a" width="32.05" height="38" transform="translate(-11.95 -17.45)"/><use xlink:href="#b" width="33.05" height="38.95" transform="translate(-12.45 -17.95)"/><use xlink:href="#c" width="27.95" height="19.25" transform="translate(-12.35 3.75)"/><use xlink:href="#d" width="20.15" height="24.7" transform="translate(5.5 -2.05)"/><use xlink:href="#d" width="20.15" height="24.7" transform="matrix(-1 0 0 1 3.2 -1.95)"/></g><defs><use xlink:href="#e" id="a" width="32.05" height="38"/><use xlink:href="#f" id="b" width="33.05" height="38.95"/><use xlink:href="#g" id="d" width="20.15" height="24.7"/><path id="e" fill="#c47d47" fill-rule="evenodd" d="M27.35 7.4q2.15 4.15 3.55 8.75 1.45 4.7 1.15 9.5-.35 4.95-4.2 8.1-3.8 3.2-8.75 4.05l-2.6.2q-3.6 0-7.05-1.15-4.65-1.6-7.1-5.5Q-.2 27.4.05 23q.2-4.4 2-9.3Q3.85 8.75 7 5.05 10.1 1.3 14.7.1l1.8-.1q1.9.05 3.7.8 4.75 2.05 7.15 6.6" transform="translate(-.05)"/><path id="f" fill="none" stroke="#240501" stroke-linecap="round" stroke-linejoin="round" d="M27.35 7.4Q24.95 2.85 20.2.8 17.55-.3 14.7.1 10.1 1.3 7 5.05q-3.15 3.7-4.95 8.65-1.8 4.9-2 9.3-.25 4.4 2.3 8.35 2.45 3.9 7.1 5.5 4.65 1.55 9.65.95 4.95-.85 8.75-4.05 3.85-3.15 4.2-8.1.3-4.8-1.15-9.5-1.4-4.6-3.55-8.75Z" transform="translate(.45 .5)"/><g id="c" fill-rule="evenodd"><path fill="#979585" d="m14.6 6.75-2.5-2.8L7.55 0l3.9 1.85Q13.6 3 15.55 4.5l1.5 1.1 7.8-5.1-2.55 5.1-5 3.15-2.7-2"/><path fill="#fffeee" d="m27.95 1.75-3.3 13.35 1.25.85q-.45.8-8.85.8-3.4 0-6.65-1.25l-2.6-1.25V.55l5 3.65q1.9 1.75 4.25 3l5.05-3.95L26.15.3l1.8 1.45"/><path fill="#979585" d="M21.35 9.6q-.05 1.15-.65 1.9l-8.3.2q-.5-.7 0-2.1 1-2 .75-2.75l-1.05-1.9 4.25-.2 4.95.5-1 2.05q-.05.5.5 1.1.6.65.55 1.2"/><path fill="#fffeee" d="m20.05 8.5.3 1.1v1.1l-1.05.5-4.6.4-1.15-.5q-.45-.75-.35-1l.15-1.5.5-1 2.35-.5 3.1.15.75 1.25"/><path d="M17.2 16.95h-.35l2.7-1.85 7.9-.25q-.75 3.35-4.25 3.35l-4.3-.6-1.7-.65m-.85 0q-2.5 1.25-6 1.25-2.2 0-3.45-1.65l-.8-1.7 7.95.25q1.15.4 2.65 1.85h-.35"/><path d="m12.7 16.45-.75-.95-.6-1.75 5.45-.3 4.75.15H22l-1.15 2.9-4.2.5-3.95-.55"/><path d="m19.95 11.6 5.5.35-.3 3-5.75-.35.55-3m-6.75 0 .6 3-5.9.4-.3-3 5.6-.4"/><path d="m1.2 9 1.05.7.35 2.4 1 2.65 5.15 2.05 1.7.4.8-2.15q3.95 4.15.15 4.2-1.6.05-3.15-.9l-2-1.3-4.3-.8Q0 15.9 0 14.3q0-.85.75-3.35L1.2 9m18.2 5.6.05.95q-.5 1.15-2.9 1.15-.8 0-1.95-.7l-1.1-.9.25-.7-.65-2.6q.1-.7.55-1.35 1-1.4 3.05-1.4 3.3 0 3.6 3.1l-.9 2.45"/><path fill="#c2934e" d="M19.4 12.4q0 2.75-2.75 2.75T13.9 12.4q0-2.75 2.75-2.75t2.75 2.75"/><path fill="#c2934e" d="m14.65 13.7 3.9.15.25 1.35q-1.25 1-2.2 1l-2.2-1.1.25-1.4"/><path d="M18.7 12.3q0 .8-.8.8t-.8-.8q0-.8.8-.8t.8.8m-2.55 0q0 .8-.8.8t-.8-.8q0-.8.8-.8t.8.8m.55.8.35 1.1h-.8l.45-1.1"/><path fill="#613425" d="m20.3 12.15 1.4.1-.5 1.95-1.65-.1.5-1.05.25-.9m-6.9 1.75.15.2-1.45.05-.3-1.7 1.2-.2.4 1.65"/><path fill="#c2934e" d="m13.8 14.7-1.5.25-.1-.4 1.6-.15v.3m5.4-.25 1.45.1.15.5-1.65-.35.05-.25m1.1-2.3 1.4.1-.15.95-1.65.3.4-1.35m-7 1.3-1.35-.25-.3-.9 1.4-.05.25 1.2"/><path fill="#979585" d="M16.6 2q5.35 0 5.35 1.6 0 1.15-1 2.3-1.45 1.6-4.25 1.6-3.05 0-4.4-1.7-1.2-1.5-.45-2.55l1.15-.6Q14.55 2 16.6 2"/><path fill="#fffeee" d="M21.2 3.85q.2 1.05-1.05 2-3.1 2.45-3.7-.55-1.05 2.65-3.3.75-1-.85-.7-2.2.2-.85 4.4-.85t4.35.85"/><path fill="#979585" d="m21.35 4.6-.65 1.1-1.6-1.35 2.25.25M13.1 6.35l-1-1.4 2.5-.7-1.5 2.1m7 1.4.05 1.05-1.7-.95 1.65-.1m-6.8.35h1.55L13.2 9.2l.1-1.1"/><path fill="#605f56" d="M21.3 5.95q-.7.8-1.9 1l1.15-.75.1-.85L20.3 5l.9-.05.6-.85-.5 1.85"/><path fill="#605f56" d="m20.95 6.1-.1 2.1.75 1.15q.2.65-.4 2.35l-.5-.2.4-1.8-.9-1.35-.75-.5.65-.1-.05-1.05.9-.6"/><path fill="#ffc567" d="M13.9 12.4q.1-1.35.9-2.05.7-.55 1.7-.65l.85.05-2.4 1.15-1.05 1.5m2.8.4-.4 1-.45-.2.8-1.2.05.4m-1.95 1.35 1.5.55q-.35.8-.7.8l-.9-.6.1-.75"/><path fill="#605f56" d="m16.1 2.7-4 .35-1.45-1.55 2.3 1.1 3.5-.55 3.1.2 1.6.45q-3.05-.15-5.05 0"/><path fill="#605f56" d="m23.05 1.35-1.35 1.7h-.3l-2.1-.6 1.85.25 1.9-1.35"/></g><g id="g" fill-rule="evenodd"><path fill="#54100a" d="M14.1 2.85 14 4.3l-.2.6-.05.15-3.4 5.8-.4.4-.45.05-1.45-4.35-1-2.65L5.8 8.7q-.35 2.2-.45 4.45-.1 3.45-.85 6.9l-.4 1.1-1.2 1.5-2.9.25q4.6-2.45 4.5-8.5-.05-2.55.15-4.85.65-8.05 8.6-9.3l.1.4-5.85 3L9.75 10l1.35-1.8q1.4-2.05 2.2-4.6l.9-2.55v.15l-.1 1.45v.2"/><path d="M14.2 1.05 13.95.3l-.6.35-.1-.4L14.3 0l.35.35-.1.6-.35.25v-.15m.2 17.4-.8-3.1.75-.55q1.2 3.2 1 6.35l-.95.4q-1.65.5-3.1 1.3-4.35 2.4-8.85 1.65l.45-1.85 1.2-1.5-.8 2.6q2.35 1.5 5.4-.5 1.85-1.25 4.3-1.6l1.9-1.1-.5-2.1"/><path fill="#c84823" d="m13.35.65.6-.35.25.75-.9 2.55q-.8 2.55-2.2 4.6L9.75 10 7.5 3.65l5.85-3m-1.95 2.7q-1.8 0-3.3.95l.65 1.85q0-.6.15-1.1.15-.55.45-1 .9.25 1.75-.4l.85-.75-.55.45m2.7 1.7h-.35l.05-.15.3.15m-3.75 8.85q1 2.25 3.1 3.8l.95.75.5 2.1-1.9 1.1q-2.45.35-4.3 1.6-3.05 2-5.4.5l.8-2.6.4-1.1.05.05-.25.75q4.85 1.75 5.65-3.4l.4-3.55"/><path fill="#a23a1c" d="M13.75 5.05h.35l2.7 2.3-.7 1.25q-1.6 3.25-2.5 6.75l.8 3.1-.95-.75q-2.1-1.55-3.1-3.8v-3.05l3.4-5.8"/><path fill="#8e3319" d="M8.05 6.95 5.8 8.7l1.25-4.4 1 2.65"/><path fill="#872116" d="M10.35 10.85v3.05l-.4 3.55q-.8 5.15-5.65 3.4l.25-.75q4.4 1.55 4.85-3.05.3-2.9.1-5.75l.45-.05.4-.4"/><path fill="#f9f0ec" d="m5.8 8.7 2.25-1.75L9.5 11.3q.2 2.85-.1 5.75-.45 4.6-4.85 3.05l-.05-.05q.75-3.45.85-6.9.1-2.25.45-4.45m2.85 2q-.35-.5-.85-.5t-.8.5q-.35.45-.35 1.15t.35 1.2q.3.45.8.45.45-.2.85-.45l.3-1.2-.3-1.15m-2.8 6.8.4 1.4h1.1l.45-.75q.7-1-.25-2.05H6.6l-.75 1.4"/><path fill="#2b0d05" d="M19.75 4.75q.4-.65-.25-1.1L14.7.75l-.6 1.9.05.05-.05.15v-.2l.1-1.45.35-.25.1-.6q8.25 1.65 4.1 7.7l-.3-.1-1.65-.6-2.7-2.3-.3-.15.2-.6.7.6q3.45 3.95 5.05-.15"/><path fill="#a96d23" d="M14.15 2.7 18 5.6l.45.2 1.3-1.05q-1.6 4.1-5.05.15l-.7-.6.1-1.45.05-.15"/><path fill="#ffc83c" d="m19.75 4.75-1.3 1.05-.45-.2-3.85-2.9-.05-.05.6-1.9 4.8 2.9q.65.45.25 1.1"/><path fill="#c2a89a" d="m8.65 10.7.3 1.15-.3 1.2q-.4.25-.85.45-.5 0-.8-.45-.35-.5-.35-1.2T7 10.7q.3-.5.8-.5t.85.5m-2.8 6.8.75-1.4h.95q.95 1.05.25 2.05l-.45.75h-1.1l-.4-1.4"/><path fill="#ffa88a" d="m11.4 3.35.55-.45-.85.75q-.85.65-1.75.4-.3.45-.45 1-.15.5-.15 1.1L8.1 4.3q1.5-.95 3.3-.95"/></g></defs></svg>