<svg xmlns="http://www.w3.org/2000/svg" xmlns:xlink="http://www.w3.org/1999/xlink" width="84.85" height="82"><g transform="translate(37.4 42.25)"><use xlink:href="#a" width="32.05" height="38" transform="translate(-11.95 -17.45)"/><use xlink:href="#b" width="33.05" height="38.95" transform="translate(-12.45 -17.95)"/><use xlink:href="#c" width="9.65" height="10.35" transform="translate(10.45 -2.55)"/><use xlink:href="#c" width="9.65" height="10.35" transform="matrix(-1 0 0 1 -2.25 -3.1)"/><use xlink:href="#d" width="34.95" height="19.15" transform="translate(-12.95 4.2)"/></g><defs><use xlink:href="#e" id="a" width="32.05" height="38"/><use xlink:href="#f" id="b" width="33.05" height="38.95"/><use xlink:href="#g" id="c" width="9.65" height="10.35"/><path id="e" fill="#fee7ed" fill-rule="evenodd" d="M27.35 7.4q2.15 4.15 3.55 8.75 1.45 4.7 1.15 9.5-.35 4.95-4.2 8.1-3.8 3.2-8.75 4.05l-2.6.2q-3.6 0-7.05-1.15-4.65-1.6-7.1-5.5Q-.2 27.4.05 23q.2-4.4 2-9.3Q3.85 8.75 7 5.05 10.1 1.3 14.7.1l1.8-.1q1.9.05 3.7.8 4.75 2.05 7.15 6.6" transform="translate(-.05)"/><path id="f" fill="none" stroke="#401a2d" stroke-linecap="round" stroke-linejoin="round" d="M27.35 7.4Q24.95 2.85 20.2.8 17.55-.3 14.7.1 10.1 1.3 7 5.05q-3.15 3.7-4.95 8.65-1.8 4.9-2 9.3-.25 4.4 2.3 8.35 2.45 3.9 7.1 5.5 4.65 1.55 9.65.95 4.95-.85 8.75-4.05 3.85-3.15 4.2-8.1.3-4.8-1.15-9.5-1.4-4.6-3.55-8.75Z" transform="translate(.45 .5)"/><g id="g" fill-rule="evenodd"><path fill="#ffcbb7" d="m8.1 1.4.05.1q.6 2 1 4.8L8.1 1.4M3.25 9.15 0 10.35 1.55 4.4q.5-1.9 2.55-3.15Q5.8.15 7.55 0l.55 1.35Q4.45 1.6 3.65 4.6q-.9 3.25-.4 4.55"/><path fill="#ff9778" d="M8.1 1.35v.05l1.05 4.9.45 2.3.05.55h-6.4q-.5-1.3.4-4.55.8-3 4.45-3.25"/></g><g id="d" fill-rule="evenodd"><path d="m.55 3.75.55-1.1-.2 1.2-.35-.1"/><path fill="#005094" d="M22.6 11.15q3.4-3 8.05-4l2.6-.45-.05 1.25-.4 1.1-.35.6-1-.2.55 2.4-1.5-.35.35-2.15q-3.6-2.6-4.1 2.75 1.35 1.6 3.1.3l.35-.35.4.7q-2.1 2.5-5.6 2.9l.7-.75q.55-3.25-2.4-3.85l-.7.1m.4 4.75-.9-.3V15l.9.9m-2.45 0 .1.1-.1.15v-.25m2.2-1.95.1-.3.8-.25.45 1.5-.15.55-1.15-.85-.05-.65m-.55-.9.6-1.5.4 1.2-1 .3m-8.2 0h-.4l-.4.2-.15.25.15.3.5.2q-.35 1.2.5 2.1l.35.4q-4.6.85-8.7-.95Q5.8 13.9 4.4 13.1q-.95-.6-1.95-1.05l-.3-1.65.5-.05.65 1.1q2 .95 2.85-.8l.3-1.1v-.1q0-1.2-.75-2.05l-.45-.45q3.55 1.5 6.85 3.75l2.1 1.45-.2.9m15.45-3.3.2.8-.2.85-.6.3q-.35 0-.55-.3-.25-.35-.25-.85t.25-.8q.2-.35.55-.35l.6.35m-5.6 2.2 1.1 1.05-.15 1.25-.95-2.3m-19.2-5.2-1.25.4-.8.4L2.35 9l-.6-3 2.9.75m6.75 4.85-.45-.85q-4.6 0-2.55 3.9l.95.75 1.25-.75.5-.5q.95-1.05.3-2.55m-1.15 2.15-.7.5-1.15-.35q-.25-1.95 1.7-2.25.9 1 .15 2.1"/><path fill="#00407a" d="m33.95 6 .15 7.6-.85.25-1.1-1.9q-1.45 1.3-2.15 3.9l-9.35.95-.1-.65.1-.15-.1-.1-.1-1.4 1.3-.25.35.75v.6l.9.3 1.15-.05.85-.2q3.5-.4 5.6-2.9l-.4-.7.3-.55 1.5.35-.55-2.4 1 .2.35-.6.4-1.1.05-1.25-2.6.45q-4.65 1-8.05 4-.45 0-.75.6-.35.6-.35 1.45l-1.05-.05.45-2.1 1.3-.1.1-.15-.25-1 7.8-2.7.45-.15L33.95 6M8.25 16.7H7.4L5.2 16l-.05-.6q.1-1.25-.75-2.05-.4.3-.5.7Q3.55 15.3 2.4 16l-.55-1.75Q.4 9.65.9 4.9q7.7 2.45 15.3 6l-.3 2.05-1.9.1.2-.9-2.1-1.45Q8.8 8.45 5.25 6.95l-.6-.2L1.75 6l.6 3 .3 1.35-.5.05.3 1.65q1 .45 1.95 1.05 1.4.8 1.45 2.45 4.1 1.8 8.7.95l-.35-.4q-.85-.9-.5-2.1l2.2.8.3 2.1h-2.35l-1.1-.05-3.15-.05-1.35-.1M1.2 2.4l-.05-.1.05.05 2.45.85 5.1 1.7 8.5 3.35-3.3-.85-5.2-1.85-5.2-2.05L1.2 2.4m27.25 1.5 3.85-.65.3.25-9.3 2.65-3.6 1.45 1.55-1.25 3-1.3 1.05-.4 3.15-.75"/><path fill="#763b2c" d="m1.4 1-.35-1q8.8 2.05 16.8 5.7 6.9-3.8 14.9-3.9l-.25.55-2.2.25-.4.05-.45.05-.6.15h-.15l-.35.1h-.15l-2.35.45-.05-.1-3.15.95-2.6 1.35-.15.15-.15.05q-.8.45-1.5 1L12.7 4.7v-.05l-.8-.25-2.65-1-.9-.35L1.4 1"/><path fill="#e8b837" d="m34 5.45.1-.05-.35-2.1-1.15.2-.3-.25-3.85.65 1.85-.45V2.6l2.2-.25q1.8-1 1.7.35l-.9.4 1 .05q.9 5.1.55 10.25l.1.45-.3 1.2-.85.8-1.55.7-.3.35q-13.5 3.9-27.4 1.1l-.25-.4-1.5.25-.5-.45Q-.65 11.5.2 4.6l.35-.85.35.1 2.45.85L8.2 6.4l.55.2 7.1 2.9.65.35.75-1.6-8.5-3.35-2.1-.8L8 4.55l2.35.75 2.15.65.2-1.25 5.55 2.1q.7-.55 1.5-1l.15-.05-1.3 1 .95.65.9-.7.8-.35L19.7 7.6l1.65 1.2h.2l7.05-1.9v.35l1.25-.15-7.8 2.7.25 1-.1.15-1.3.1-.45 2.1 1.05.05 1.35.45-.1.3-1 .3-1.3.25.1 1.4v.25l.1.65 9.35-.95q.7-2.6 2.15-3.9l1.1 1.9.85-.25-.15-7.6.05-.55-.05.55-3.65.95-.05-.5 3.75-1m-4.95 11.4 2.5-.65.4-3.05.65 2.75 1.6-1.25.15-.25.05-.25.05-.2-.1-.2-.25-.15.25.15.1.2-.05.2-.05.25-.15.25-1.6 1.25-.65-2.75-.4 3.05-2.5.65v-.6l-2.25.2.05.85 2.2-.4v-.05M8.35 17.9l-.8-.05 19.15-.55h.15-.15l-19.15.55.8.05 3.15.15V16.9l.1 1.25h2.25V16.9h2.35l-.3-2.1-2.2-.8-.5-.2-.15-.3.15-.25.4-.2h.4l1.9-.1.3-2.05Q8.6 7.35.9 4.9q-.5 4.75.95 9.35L2.4 16q1.15-.7 1.5-1.95.1-.4.5-.7.85.8.75 2.05l.05.6 2.2.7h.85l.1 1.2m-.8-.05-1.1-.2L6 16.3l1.4.4-1.4-.4.45 1.35 1.1.2M1.25 2.2.7 2.05.4 1.7l.05-.35q.15-.2.45-.25l.5-.1 6.95 2.05-2.5-.65-.15 1.4-2-.75-2.45-.85m32.05.9-1 .15 1-.15m-8 1.55 1-.35-.45-.9 2.35-.45.25.95-3.15.75M9.75 7.15 8.2 6.4v.15L6.35 5.9l-.1.65L8 7.3l1.6.65 1.5.55.15-.8-1.5-.55m9.65 5.95.45-2.5-1.7-.95-.6 1.95-.3 1.4-2.7.05.45 1.25 1.85-.05 2.35-.1-.2-.95h-1.15v-.15l1.55.05m-2.35 1.6v2.2h2.3v-2.2h-2.3m16.05.7.25-.75-1.4-2.15.75 3.15.4-.25m-21.2-11-.65-.2-2-.8 2.65 1M.2 4.6l.7.3-.7-.3M2.4 16q-.1.75.95 1h.6l.25-2.6.8 3 1.45.25L5 17.4l-.8-3-.25 2.6h-.6q-1.05-.25-.95-1m10.35.85-1.25.05-1.9-.1 3.15.05"/><path fill="#006aac" d="m32.6 3.5 1.15-.2.35 2.1-.1.05-3.75 1V6.4l-1.65.35v.15l-7.05 1.9 1.9-.8-.15-1.85 9.3-2.65m-2.1 8-.3.55-.35.35q-1.75 1.3-3.1-.3.5-5.35 4.1-2.75l-.35 2.15M25 15.65l-.85.2-1.15.05-.9-.9-.35-.75 1-.3.05.65 1.15.85.15-.55-.45-1.5-.8.25-1.35-.45q0-.85.35-1.45.3-.6.75-.6l.7-.1q2.95.6 2.4 3.85l-.7.75m-23.9-13 .1-.25 2.35 1.1-.2 1.2L.9 3.85l.2-1.2m.1-.3.05-.15 2.45.85-.05.15-2.45-.85M15.85 9.5l-7.1-2.9V5.55l5.2 1.85 1.9 2.1m1.7 2.1.6-1.95 1.7.95-.45 2.5.05-.85-1.9-.65m4.65 1.45 1-.3-.4-1.2-.6 1.5M5.25 6.95l.45.45q.75.85.75 2.05v.1l-.3 1.1q-.85 1.75-2.85.8l-.65-1.1L2.35 9l.25-1.45.8-.4 1.25-.4.6.2m24.2 2.8-.6-.35q-.35 0-.55.35-.25.3-.25.8t.25.85q.2.3.55.3l.6-.3.2-.85-.2-.8m-5.6 2.2.95 2.3.15-1.25-1.1-1.05M11.4 11.6q.65 1.5-.3 2.55l-.5.5-1.25.75-.95-.75q-2.05-3.9 2.55-3.9l.45.85m-1.15 2.15q.75-1.1-.15-2.1-1.95.3-1.7 2.25l1.15.35.7-.5"/><path fill="#005fac" d="m17.25 8.25-.75 1.6-.65-.35-1.9-2.1 3.3.85"/><path fill="#1d7cb6" d="M23.3 6.15 23.45 8l-1.9.8h-.2L19.7 7.6l3.6-1.45M6.65 4.1l2.1.8-5.1-1.7.05-.15 2 .75.95.3m2.1 2.5-.55-.2-4.85-1.7.2-1.2 5.2 2.05V6.6"/><path fill="#ffdf7f" d="m25.85 3.4.45.9-1 .35-1.05.4-.8.2-.8-1 3.15-.95.05.1M12.7 4.7l-.2 1.25-2.15-.65.1-1.35.8.25.65.2.8.25v.05M8 4.55 6.65 4.1l-.95-.3.15-1.4 2.5.65L8 4.55m1.75 2.6 1.5.55-.15.8-1.5-.55.15-.8M8 7.3l-1.75-.75.1-.65 1.85.65-.2.75m12.45-.6-.9.7-.95-.65 1.3-1 .15-.15.4 1.1m-2.6 6.5H19l.2.95-2.35.1v-1.1l1 .05m-4 3.7v1.25H11.6l-.1-1.25 1.25-.05 1.1.05"/><path fill="#fff5d9" d="m8.35 17.9-.1-1.2 1.35.1 1.9.1v1.15l-3.15-.15m14.3-13.65.8 1 .8-.2-3 1.3-.8.35-.4-1.1 2.6-1.35M10.35 5.3 8 4.55l.35-1.5.9.35 2 .8-.8-.25-.1 1.35M8.2 6.4l1.55.75-.15.8L8 7.3l.2-.75V6.4m9.65 6.65v.15l-1-.05v1.1L15 14.3l-.45-1.25 2.7-.05.6.05M33.1 15.4l-.4.25-.75-3.15 1.4 2.15-.25.75"/><path fill="#0072b0" d="m17.55 11.6 1.9.65-.05.85-1.55-.05-.6-.05.3-1.4m-.5 3.1h2.3v2.2h-2.3v-2.2"/><path fill="#c19a2e" d="M29.05 16.85v.05l-2.2.4-.05-.85 2.25-.2v.6M30.3 2.6v.85l-1.85.45-.25-.95h.15l.35-.1h.15l.6-.15.45-.05.4-.05m-1.7 4.3v-.15l1.65-.35v.05l.05.5-.45.15-1.25.15V6.9"/></g></defs></svg>