<svg xmlns="http://www.w3.org/2000/svg" xmlns:xlink="http://www.w3.org/1999/xlink" width="84.85" height="82"><g transform="translate(37.4 42.25)"><use xlink:href="#a" width="32.05" height="38" transform="translate(-11.95 -17.45)"/><use xlink:href="#b" width="33.05" height="38.95" transform="translate(-12.45 -17.95)"/><use xlink:href="#c" width="26" height="20.45" transform="translate(-12.5 4.7)"/><use xlink:href="#d" width="14.2" height="22.25" transform="translate(7.85 -.2)"/><use xlink:href="#d" width="14.2" height="22.25" transform="matrix(-1 0 0 1 .1 -.15)"/><use xlink:href="#e" width="28.1" height="35.75" transform="translate(-10.05 -14.6)"/><use xlink:href="#f" width="6.25" height="7.55" transform="translate(-13.35 -11.55)"/><use xlink:href="#f" width="6.25" height="7.55" transform="matrix(-1 0 0 1 21.75 -11.55)"/><use xlink:href="#g" width="21" height="16.75" transform="translate(-7.15 4.8)"/></g><defs><g id="c"><path fill="#090000" fill-rule="evenodd" d="M23.75 17.2H26v.2l-.7 1.15-2.2 1.2-7.2.7q-2.85-.1-4.95-.8-2.2-.9-3.9-1.35-2.1-.55-4.15-1.95l-.45-.4H3Q5.65 17 10.3 18q1.5.35 3.25 1l3.9.5q2.3 0 4.15-1.1l1.5-.85.65-.35"/><path fill="#ff3d2b" fill-rule="evenodd" d="M11.1.55q4.55 1.6 5.4 3.65.45-1.8 5.6-3.7v11.7q-2.95.75-5.7.75l-5.3-.6V.55m11 13.35v3.3h1.65l-.65.35-1.5.85q-1.85 1.1-4.15 1.1l-3.9-.5q-1.75-.65-3.25-1-4.65-1-7.3-2.05h8.1v-2.2Q13.9 15 16.8 15q2.7 0 5.3-1.1"/><path fill="#a1281b" fill-rule="evenodd" d="M22.1 12.2v1.7Q19.5 15 16.8 15q-2.9 0-5.7-1.25v-1.4l5.3.6q2.75 0 5.7-.75"/><path fill="none" stroke="#a1281b" stroke-linecap="round" stroke-linejoin="round" d="M11.1.55q4.55 1.6 5.4 3.65.45-1.8 5.6-3.7"/><path fill="none" stroke="#454545" stroke-linecap="round" stroke-linejoin="round" stroke-width=".95" d="M.45.75.75.7M3 6.65 2.95 7.8 2.7 8.95"/></g><g id="j" fill-rule="evenodd"><path d="m12.05 0 1.3.65.15.45-.35.95q1.2 3.6 1 7.2l-.5 8.95q-1.3 1.6-3.2 2.55-4.5 2.2-9.5 1.2Q.4 17.9.1 13.9q-.35-4.55.75-9.05l2.65-1.6Q7.35.8 12.05 0m-8.9 7.1L6 8.15Q8.85 7.1 11.55 1.9l-4.4 4.5-1.2 1.25Q4 6.75 2 6.2l3.7 6.4-3.35 5.25q1.9-1.75 3.6-4.1l.75-1.05Q5.85 10.5 5 9.3L3.15 7.1M5.9 17.95l.15.3h.7l.8.2-.6-1.9-1.05.65v.75m3.95-.25-.65-1.9-1.75.6.6 1.9 1.8-.6m2.8-3.5-.9.45.65 1.9 1.25-.8.15-.75-.15-.4-1-.4m-1.35.7-1.6.7.6 1.9 1.6-.7-.6-1.9"/><path fill="#fff" d="m11.3 14.9.6 1.9-1.6.7-.6-1.9 1.6-.7m1.35-.7 1 .4.15.4-.15.75-1.25.8-.65-1.9.9-.45m-2.8 3.5-1.8.6-.6-1.9 1.75-.6.65 1.9m-3.95.25v-.75l1.05-.65.6 1.9-.8-.2h-.7l-.15-.3M3.15 7.1 5 9.3q.85 1.2 1.7 3.4l-.75 1.05q-1.7 2.35-3.6 4.1L5.7 12.6 2 6.2q2 .55 3.95 1.45l1.2-1.25 4.4-4.5Q8.85 7.1 6 8.15L3.15 7.1"/></g><g id="e"><path fill="#fff645" fill-rule="evenodd" d="M3.35 21q-1.8 0-1.8-1.85 0-1.9 1.8-1.9t1.8 1.9q0 1.85-1.8 1.85"/><path fill="#ff9634" fill-rule="evenodd" d="M3.4 20.6q-1.25 0-1.25-1.2 0-1.25 1.25-1.25t1.25 1.25q0 1.2-1.25 1.2"/><path fill="#fff" fill-rule="evenodd" d="M2.75 19.2q-.7 0-.7-.7t.7-.7q.7 0 .7.7t-.7.7"/><path fill="#fe59d5" fill-rule="evenodd" d="M5.8 28.7q-1.6 0-1.6-1.65t1.6-1.65q1.6 0 1.6 1.65T5.8 28.7"/><path fill="#8747c1" fill-rule="evenodd" d="M5.85 28.35q-1.1 0-1.1-1.1t1.1-1.1q1.1 0 1.1 1.1t-1.1 1.1"/><path fill="#fff" fill-rule="evenodd" d="M5.25 27.1q-.6 0-.6-.6 0-.65.6-.65.65 0 .65.65 0 .6-.65.6"/><path fill="#614b76" fill-rule="evenodd" d="m0 33.15 2.6.25 2.55-.05q-.7-.3-.8-1.2 1.35 0 1.85 2.05.15.6-.1 1.55-1.45-.05-6.1-2.6"/><path fill="none" stroke="#000" stroke-linecap="round" stroke-linejoin="round" stroke-width=".5" d="m22.7 25.55 1.2 1.5-3.5 4.45.6 1.45"/><path fill="#38f138" fill-rule="evenodd" d="M23.5 21q-1.6 0-1.6-1.65t1.6-1.65q1.55 0 1.55 1.65T23.5 21"/><path fill="#0d692f" fill-rule="evenodd" d="M23.5 20.65q-1.05 0-1.05-1.05 0-1.1 1.05-1.1 1.1 0 1.1 1.1 0 1.05-1.1 1.05"/><path fill="#fff" fill-rule="evenodd" d="M22.95 19.45q-.6 0-.6-.65 0-.6.6-.6.65 0 .65.6 0 .65-.65.65"/><path fill="#614b76" fill-rule="evenodd" d="M18.85 22q1.85 3 3 4l-.15.5-2.35-1.4.45 1.5q-1.45-.7-1.2 3.05-1.25-4.35.25-7.65"/><path fill="none" stroke="#fff" stroke-linecap="round" stroke-linejoin="round" stroke-width=".75" d="m18.85 23.75 1.1 1m-1.5.85.6 1q-1.05.8.15 3"/><path fill="#ff3d2b" fill-rule="evenodd" d="m28.1 11.25-.15 2.35-5.5 1.25 5.65-3.6m-28 .3 5.65 3.65-5.5-1.25-.15-2.4"/><path fill="#090000" fill-rule="evenodd" d="M15.5 3.15q-.65 0-.65-.65 0-.7.65-.7t.65.7q0 .65-.65.65M18.25 2q-1 0-1-1t1-1q1 0 1 1t-1 1m2.6-.2q-.75 0-.75-.75t.75-.75q.75 0 .75.75t-.75.75m-8.2 1.35q-.65 0-.65-.65 0-.7.65-.7.7 0 .7.7 0 .65-.7.65M9.9 2q-1 0-1-1t1-1q1 0 1 1t-1 1m-2.55-.2q-.75 0-.75-.75T7.35.3q.75 0 .75.75t-.75.75"/><path fill="#939393" fill-rule="evenodd" d="M13.3 6.45h.9l-.05-.05 1.6-1.8q2.05-1.8 4.4-1.8 4.5 0 4.5 2.5 0 .55-1.15 2.7l-1 1.8.7 2q0 2.7-4.8 2.7-3.75 0-4.6-1.55-.95 1.55-4.7 1.55-4.8 0-4.75-2.7l.7-2L4 8Q2.85 5.9 2.85 5.3q0-2.5 4.5-2.5 3.75 0 6 3.6l-.05.05"/></g><g id="k" fill-rule="evenodd"><path fill="#06080c" d="M4.95.2q1.6.6 1.2 2L6 4.35Q5.8 5.6 4.55 6.7l-.7.85-2.4-.35Q-.95 5.95.6 2.65 2.25-.75 4.95.2"/><path fill="#adadad" d="M1.65 2.9q1-2.45 2.9-1.65 1.9.85.8 3.3-1 2.45-2.9 1.65-1.85-.85-.8-3.3"/><path fill="#fff" d="M3.8 1.25q1.35-.1 1.05.5-.35.6-1.15.5l-1.95.8.5-.9q.7-.85 1.55-.9"/><path fill="#6b6b6b" d="M3.55 3.75q.8.2 1.4 1-.6 1.05-1.25 1.1L2.25 5.7l-.4-1.05.35-.9h1.35"/><path fill="#fff" d="M4.55 2.5q.1.7-.3 1.2-.6.85-1.9.6L3.4 3V1.85l.95.05.2.6"/><path fill="#06080c" d="M3.7 2.5q.25.7-.05 1.1-.45.65-1.5.8 1-.9 1.05-1.25l.2-1.3.3.65"/></g><g id="g"><path fill="none" stroke="#fff" stroke-linecap="round" stroke-linejoin="round" d="m.95 2.9 4.6-2 .1 15.25"/><path fill="none" stroke="#000" stroke-linecap="round" stroke-linejoin="round" stroke-width=".5" d="m.25 2.35.8.85L5 1.35l-.1 2.5M1.6 1.5l.6.9M3.1.75l.4 1.05M4.6.25l.3 1.1 1.25-.5m-1.5 2.1 1.5-.45m-1.4 1.7 1.5-.5m-1.5 1.9 1.5-.5M4.7 6.9l1.5-.45M4.75 8.1l1.5-.45M4.8 9.45l1.5-.5M4.75 10.7l1.5-.45m-1.6 1.65 1.5-.45m-1.5 1.6 1.5-.45M4.6 14.2l1.5-.45m-1.45 1.5 1.5-.45M4.8 16.35l1.5-.5"/><path fill="#fff" fill-rule="evenodd" d="M9.15 8Q6.4 5.75 7.35 3.8q.85-1.65 3.15-1.95 3.25-.35 3.8 1.6.45 1.65-1.1 3.95l.65 3q-3.05 1-5.05 1.2L9.15 8"/><path fill="none" stroke="#000" stroke-linecap="round" stroke-linejoin="round" d="M9.15 8Q6.4 5.75 7.35 3.8q.85-1.65 3.15-1.95 3.25-.35 3.8 1.6.45 1.65-1.1 3.95l.65 3q-3.05 1-5.05 1.2L9.15 8Z"/><path fill-rule="evenodd" d="m10 6.4-.9-.1q-.65-.3-.7-1.15-.05-.9.75-1.3.75-.35.85.35.55 1.85 0 2.2m1.85-.15q-.7-.05-.9-.95-.25-.95.2-1.9l.75-.25q.8-.1 1 .85.45 2.4-1.05 2.25"/><path fill="none" stroke="#000" stroke-linecap="round" stroke-linejoin="round" d="m11.4 11.05-.25-2.5"/><path fill="#fff" fill-rule="evenodd" d="m17.25 16.35-.05-.3 1-.25.05.35-.05.4-.35.2-.35-.05-.25-.35m-.15-.8-.2-.8 1-.25.15.8-.95.25m-.3-1.3-.15-.85.95-.35.2.95-1 .25m3.3-7.2q.1-.15.35-.2l.35.1.2.35-.1.35-.65.9-.6-.85.45-.65m-2.9 5.05.15.1h.05l.1.4-.95.3-.2-.75v-.2l.1-.2.3-.35.45.7m2.75-3.15-.7.85-.6-.85.65-.85.55.75.1.1m-2.1 1 .5-.6.5.75.1.1-.45.6-.65-.85m.3 1.25-.5.7-.05-.1-.55-.8.5-.65.55.8.05.05"/></g><use xlink:href="#h" id="a" width="32.05" height="38"/><use xlink:href="#i" id="b" width="33.05" height="38.95"/><use xlink:href="#j" id="d" width="14.2" height="22.25"/><use xlink:href="#k" id="f" width="6.25" height="7.55"/><path id="h" fill="#fff" fill-rule="evenodd" d="M27.35 7.4q2.15 4.15 3.55 8.75 1.45 4.7 1.15 9.5-.35 4.95-4.2 8.1-3.8 3.2-8.75 4.05l-2.6.2q-3.6 0-7.05-1.15-4.65-1.6-7.1-5.5Q-.2 27.4.05 23q.2-4.4 2-9.3Q3.85 8.75 7 5.05 10.1 1.3 14.7.1l1.8-.1q1.9.05 3.7.8 4.75 2.05 7.15 6.6" transform="translate(-.05)"/><path id="i" fill="none" stroke="#010102" stroke-linecap="round" stroke-linejoin="round" d="M27.35 7.4Q24.95 2.85 20.2.8 17.55-.3 14.7.1 10.1 1.3 7 5.05q-3.15 3.7-4.95 8.65-1.8 4.9-2 9.3-.25 4.4 2.3 8.35 2.45 3.9 7.1 5.5 4.65 1.55 9.65.95 4.95-.85 8.75-4.05 3.85-3.15 4.2-8.1.3-4.8-1.15-9.5-1.4-4.6-3.55-8.75Z" transform="translate(.45 .5)"/></defs></svg>