<svg xmlns:xlink="http://www.w3.org/1999/xlink" height="82" width="84.85" xmlns="http://www.w3.org/2000/svg"><g transform="translate(37.4 42.25)"><use height="38" transform="translate(-11.95 -17.45)" width="32.05" xlink:href="#a"/><use height="38.95" transform="translate(-12.45 -17.95)" width="33.05" xlink:href="#b"/><use height="29.6" transform="matrix(-1 0 0 1 4.8 -1.5)" width="18.75" xlink:href="#c"/><use height="29.6" transform="translate(3.3 -1.5)" width="18.75" xlink:href="#c"/><use height="14.4" transform="translate(-3.35 2.35)" width="14.35" xlink:href="#d"/></g><defs><use height="38" width="32.05" xlink:href="#e" id="a"/><use height="38.95" width="33.05" xlink:href="#f" id="b"/><use height="29.6" width="18.75" xlink:href="#g" id="c"/><path d="M27.35 7.4q2.15 4.15 3.55 8.75 1.45 4.7 1.15 9.5-.35 4.95-4.2 8.1-3.8 3.2-8.75 4.05l-2.6.2q-3.6 0-7.05-1.15-4.65-1.6-7.1-5.5Q-.2 27.4.05 23q.2-4.4 2-9.3Q3.85 8.75 7 5.05 10.1 1.3 14.7.1l1.8-.1q1.9.05 3.7.8 4.75 2.05 7.15 6.6" fill="#fef2eb" fill-rule="evenodd" transform="translate(-.05)" id="e"/><path d="M27.35 7.4Q24.95 2.85 20.2.8 17.55-.3 14.7.1 10.1 1.3 7 5.05q-3.15 3.7-4.95 8.65-1.8 4.9-2 9.3-.25 4.4 2.3 8.35 2.45 3.9 7.1 5.5 4.65 1.55 9.65.95 4.95-.85 8.75-4.05 3.85-3.15 4.2-8.1.3-4.8-1.15-9.5-1.4-4.6-3.55-8.75Z" fill="none" stroke="#010102" stroke-linecap="round" stroke-linejoin="round" transform="translate(.45 .5)" id="f"/><g id="g" fill-rule="evenodd"><path d="M-8-3.3Q-3.1-.95 2.35-1.5q2.8-.3 5-1.9.45 5.9 1.3 11.8l.6 4.5-9.7 1.6-7.2.2q-2.4-5.45-1.65-11.35Q-8.85 0-8-3.3m2.35 2.85-.9-.4.1 13.25q7.15.5 14.05-1.3l-.1-1.05-.55.05-1.15.5-.2-1.2.65-.2.6-.9-.4-1.8-1.25-.1L4.85 4l.55-1.15.75-.05-.45-.75-1.05.75-.15-1L3.8.1l-.3.7-6.15-.3-.45-.1-2.55-.85m-1.55 14.4q6.1.1 12.05-1l3-.65-.05-.45-12.4 1.55h-3l.4.55" fill="#1a171b" transform="translate(9.5 14.9)"/><path d="M-8.8-5.4q1.95-.95 3.95-2 4.9-2.7 10.3-4.85l.15-1.3 1.8-1.35.85 2.05q2 5.05-.9 9.45-2.2 1.6-5 1.9Q-3.1-.95-8-3.3l-.7-.2-.1-.6.85-.25Q-4.55-3-1-2.65q2.85.3 5.35-.95l.1.1Q5.8-4.05 6.6-5.25q2.8-3 .95-7.95l-.45-1.3-1.35 1.1v1.25Q-1.5-8.75-8.8-5.4m3.15 4.95L-3.1.4l.05.85-.3.65q1.05 2.05.25 4.05l.6.8.55 2.3.05.2.5 1.95-2.15.1-.3-.65.75-.65V8.85L-3.75 8l-.65-.15L-5 3.7l.75-.05.6.65.2.95q.4-1.2-.35-2.3l-.55-.15-.55.35-.15.35-.6-3.95" fill="#9b9c9e" transform="translate(9.5 14.9)"/><path d="M-8.8-5.4q7.3-3.35 14.55-6.75v-1.25l1.35-1.1.45 1.3Q9.4-8.25 6.6-5.25l.05-.1.75-1.5q-1.2-2-3.6-2.8l-1.25-.2-.35 2.3L6.1-6.3l-.1.8-1.55.8q-.5.3-1.1.45l1 .65Q1.85-2.35-1-2.65-4.55-3-7.95-4.35l-.85.25v-1.3m9.9-1.9-.9-.4 1.2.2.35-2.1q-2.9 1-5.35 2.8l-.6 1.45-.55.3-.8-.25.45.45-1 .35.55.5 1.35-.45.2.75.35-.65v.7l.3-.4.05.5.25-.45 2.35.9.55-.55v.6l.4-.5V-3l.3-.5.1.6 2.7-.55-2.65-1q2.5-.3 4.65-1.25l-3.3-1-.15.75-.3-.65-.1.7-.4-.7-.05.75-1.4-1.45 1.15.25-.85-.45 1.15.2" fill="#cecfd0" transform="translate(9.5 14.9)"/><path d="M6.6-5.25q-.8 1.2-2.15 1.75l-.1-.1-1-.65q.6-.15 1.1-.45L6-5.5l.1-.8-3.9-1.25.35-2.3 1.25.2q2.4.8 3.6 2.8l-.75 1.5-.05.1M1.1-7.3l-1.15-.2.85.45-1.15-.25 1.4 1.45.05-.75.4.7.1-.7.3.65.15-.75 3.3 1Q3.2-4.75.7-4.45l2.65 1-2.7.55-.1-.6-.3.5v-.55l-.4.5v-.6l-.55.55-2.35-.9-.25.45-.05-.5-.3.4v-.7L-4-3.7l-.2-.75-1.35.45-.55-.5 1-.35-.45-.45.8.25.55-.3.6-1.45q2.45-1.8 5.35-2.8L1.4-7.5.2-7.7l.9.4" fill="#fff" transform="translate(9.5 14.9)"/><path d="m-6.45 12.4-.1-13.25.9.4.6 3.95.05.2.6 4.15-.65.45q-.45 1.05.2 2.1l.35.4.65-.15.3.65-.6.85-.15-.45-.4-.3-1.3.25-.45.75M-3.1.4l.45.1L3.5.8l-.35.75q.7 1.55.5 3.15l-.15.65.45.8.5-.9Q4.2 3.5 4.5 1.8l.15 1 .1 1.75.1-.55.35 2.4-.4 1.65.05 1.05.75.3.2 1.2-.35.65-.8-1.2-1.3.5q-.65.3-1.2.8l-.8-.85-1.05.1q-.8.25-1.35 1.05l-.35-.45-.5-1.95.55.9q.7-.35 1.4-.75L0 9.05-.5 7.3l-1.3.6-.15 1.15-.55-2.3.5-.65q-.7-2.15.2-4.1L-2.65.5l-.4.75L-3.1.4M-1.4 3q-.7 1.05-.3 2.4l.75-1.65.85.1-.45-.95-.85.1m4.1.45.45 1.25-.3-2.05-.95.05-.2.85 1-.1M1.6 8.9l1.1.85q1.6-1.05.15-2.85l-.5-.05q-.8.9-.75 2.05" fill="#646567" transform="translate(9.5 14.9)"/><path d="m-7.2 13.95-.4-.55h3l12.4-1.55.05.45-3 .65q-5.95 1.1-12.05 1" fill="#5e5f60" transform="translate(9.5 14.9)"/><path d="m3.5.8.3-.7.7 1.7q-.3 1.7-.05 3.45l-.5.9-.45-.8.15-.65q.2-1.6-.5-3.15L3.5.8m1.15 2 1.05-.75.45.75-.75.05L4.85 4l-.1.55-.1-1.75m.55 3.6 1.25.1.4 1.8-.6.9-.65.2-.75-.3-.05-1.05.4-1.65m.6 4.2 1.15-.5.55-.05.1 1.05Q.7 12.9-6.45 12.4l.45-.75 1.3-.25.4.3.15.45.6-.85 2.15-.1.35.45q.55-.8 1.35-1.05l1.05-.1.8.85q.55-.5 1.2-.8l1.3-.5.8 1.2.35-.65m-9.65.05-.65.15-.35-.4q-.65-1.05-.2-2.1l.65-.45.65.15.65.85V10l-.75.65M-5 3.7l-.05-.2.15-.35.55-.35.55.15q.75 1.1.35 2.3l-.2-.95-.6-.65-.75.05m3.6-.7.85-.1.45.95-.85-.1-.75 1.65q-.4-1.35.3-2.4m-1.65-1.75.4-.75.85 1.5q-.9 1.95-.2 4.1l-.5.65-.6-.8q.8-2-.25-4.05l.3-.65m1.1 7.8.15-1.15 1.3-.6.5 1.75.05.35q-.7.4-1.4.75l-.55-.9-.05-.2m4.65-5.6-1 .1.2-.85.95-.05.3 2.05-.45-1.25M1.6 8.9q-.05-1.15.75-2.05l.5.05Q4.3 8.7 2.7 9.75L1.6 8.9" fill="#ffdc00" transform="translate(9.5 14.9)"/></g><g id="d" fill-rule="evenodd"><path d="m2.2 7.25-1-4.7L4.1 5 7 2.35l-1.15 5.1L11 6.25 8.05 9.4l2.85 3.15-4.85-1.05 1.2 5.25L4.1 14l-2.8 2.55q.95-4.25.9-5.05l-5.55 1.15L-.3 9.4l-2.85-3.05 5.35.9" fill="#f19300" transform="translate(3.35 -2.35)"/><path d="m4.15 6 2.2-2.5-1.5 5.05L9.6 7 6.95 9.45l2.65 2.3-4.75-1.5 1.5 4.95-2.2-2.45-2.2 2.45 1.5-4.85-5.2 1.4L1 9.45l-2.75-2.4 5.2 1.4-1.5-4.65L4.15 6" fill="#ffdc00" transform="translate(3.35 -2.35)"/><path d="m4.15 9.1.1-2.5L5.5 5.15 4.15 9.1m2.5.05L4.2 9.3l3.9-1.4-1.45 1.25m-2.8.15-2.5-.15L-.1 7.9l3.95 1.4m.45 3.05L4.2 9.9l1.35 3.95-1.25-1.5" fill="#fff5ca" transform="translate(3.35 -2.35)"/></g></defs></svg>