<svg xmlns="http://www.w3.org/2000/svg" xmlns:xlink="http://www.w3.org/1999/xlink" width="84.85" height="82"><g transform="translate(37.4 42.25)"><use xlink:href="#a" width="32.05" height="38" transform="translate(-11.95 -17.45)"/><use xlink:href="#b" width="33.05" height="38.95" transform="translate(-12.45 -17.95)"/><use xlink:href="#c" width="40.15" height="26.65" transform="translate(-16.05 -1.8)"/></g><defs><path id="d" fill="#fff" fill-rule="evenodd" d="M27.35 7.4q2.15 4.15 3.55 8.75 1.45 4.7 1.15 9.5-.35 4.95-4.2 8.1-3.8 3.2-8.75 4.05l-2.6.2q-3.6 0-7.05-1.15-4.65-1.6-7.1-5.5Q-.2 27.4.05 23q.2-4.4 2-9.3Q3.85 8.75 7 5.05 10.1 1.3 14.7.1l1.8-.1q1.9.05 3.7.8 4.75 2.05 7.15 6.6" transform="translate(-.05)"/><path id="e" fill="none" stroke="#010102" stroke-linecap="round" stroke-linejoin="round" d="M27.35 7.4Q24.95 2.85 20.2.8 17.55-.3 14.7.1 10.1 1.3 7 5.05q-3.15 3.7-4.95 8.65-1.8 4.9-2 9.3-.25 4.4 2.3 8.35 2.45 3.9 7.1 5.5 4.65 1.55 9.65.95 4.95-.85 8.75-4.05 3.85-3.15 4.2-8.1.3-4.8-1.15-9.5-1.4-4.6-3.55-8.75Z" transform="translate(.45 .5)"/><use xlink:href="#d" id="a" width="32.05" height="38"/><use xlink:href="#e" id="b" width="33.05" height="38.95"/><g id="c"><path fill="#fffff7" fill-rule="evenodd" d="m21.35 8.9-.1-.1 1.15-.65-1.05.75m2.6-1.15 3.85-.8-1.55.7-2.3.1"/><path fill="#9c6e45" fill-rule="evenodd" d="M13.75 7.75q2.75.1 4.85 1.5l.6.45-1 .15-.85-.25Q16.2 9.15 15 8.85l-.6-.65-.65-.45m6.35 1.9q.65-.35 1.25-.75l1.05-.75 1.55-.4 2.3-.1-1.1.9q-1.85.15-3.2.85l-.55.4-1.3-.15"/><path fill="#fff" fill-rule="evenodd" d="M35.45 2.7q-1.6 3.05-4.6 4.7l-1.25.7-2.45.95-1.85.7.15-.9 2.6-.85q4.65-1.2 7.4-5.3m-10.3 5.85-.3 1.65q-.95 1.3-1.05 2.85v.8l-1.6.9-.3-1.3 1.2-2-.15-.55-1.55-1.1.55-.4q1.35-.7 3.2-.85m-6.95 1.3-.95.65q-.25 1.4 1 2.95l-.2 1-2.6-1.55-.2-2.7L15 8.85q1.2.3 2.35.75l.85.25M4.3 2q2.85 3.8 7.25 5.6 1.4.55 2.8 1.2-4.7-.3-8.2-3.95Q4.5 3.25 3.6 1.4l.7.6m.6 19.4.15-2 .5 2.7.55.6-.7-.55-.5-.75"/><path fill-rule="evenodd" d="m25.8 25.7-3.7-.1-1-1.25-.6-1 1.6-.05.15.55-.1.05.15.65 3.2.5.3.65m-5.35-2.35q-1.2 2.3-4 2.3l-2.25.15.4-.9 3.1-.3.5-.15.75-1.1h1.5"/><path fill="#ab532e" fill-rule="evenodd" d="m25.45 23.75.05 1.15-2.55-1.35-.7.3-.15-.55 3.25-.4.1.85m.05 1.2v.1l-3.2-.5 3.2.4m-6.55-1.6-.75 1.1.3-.55-2.15-.2-.4.95 1.75-.05-3.1.3v-1.2l.15-.7 4.2.35"/><path fill="#5c1202" fill-rule="evenodd" d="m19.2 9.7.9-.05 1.3.15 1.55 1.1.15.55-1.2 2 .3 1.3-1.85 1.05-2.3-1.35.2-1q-1.25-1.55-1-2.95l.95-.65 1-.15m.35 3.3.65.15q1.95-.4 2.15-2.2l-.3-.4q-2.3-1.05-4.05.55.3 1.35 1.55 1.9m-1.05 1.2 2.1 1.35 1.15-1.1-.25-.5-3 .25"/><path fill="#7a1a02" fill-rule="evenodd" d="m15.45 12.9 2.6 1.55 2.3 1.35 1.85-1.05 1.6-.9.15.55-3.7 1.65-4.8-2.7v-.45"/><path fill="#fe8d24" fill-rule="evenodd" d="m23.95 14.4.25.5-3.65 1.8-2.65-1.05-2.45-1.7v-.6l4.8 2.7 3.7-1.65m1.1 4.85.2 2.65-1.75.45-8.6-.5.55-7.45q.45.55.75 1.25l.75 2.05q-.65.6-.85 1.3l-.2.9.4.55q.8.9 2 .9l.6-.25.6-1.7.75.15-.5 2.9h1.75l-.3-2 .15.2.5 1.5.5-1 1.15.2.4-.3q.7-.8.6-1.75l.55-.05"/><path fill="#feb46d" fill-rule="evenodd" d="m24.6 15.35.3.35.15 3.55-.55.05q0-.7-.65-1.15-.65-.5-1.55-.5l.1-.85 2.2-1.45m-3.8 2.55.7-.5.1.6-.65 1.05-.15-1.15m1.55 3.25-.5 1-.5-1.5 1 .5m-2.1-1.6-.75-.15q0-.7-.75-1.2t-1.8-.5l-.75-2.05q-.3-.7-.75-1.25v-.45l2.45 1.7-.7-.3-.1.9 3.4 1.7-.25 1.6"/><path fill="#633000" fill-rule="evenodd" d="M20.5 23.35h-1.55l-4.2-.35.15-1.15 8.6.5 1.75-.45.1 1-3.25.4-1.6.05"/><path fill="#260600" fill-rule="evenodd" d="M35.25 2.05V0l2.1 1.05.45 2.3q2.75.35 2.25 3.25L38.6 13q-.55 1.75-.35 3.7.25 2.95-1.15 5.5-1.1 1.95-3.2 2.9-3.55 1.65-7.5 1.4l-.6-.8-.3-.65v-.15l-.05-1.15.7.55.55 1.5q5.15.2 8.8-3.5 2.65-2.55 1.95-6.4-.65-3.85 1.1-7.55.85-1.75.15-3.55l-.8-.45-.9-.15v-.75l-.3-2.25-.75.95-.1-.35-.6.25M14.2 25.8l-.8.85q-5.35.25-9.5-3.4Q1.7 21.2 1.8 18q.1-4.95-1.5-9.6-.75-2.2.45-4 .5-.85 1.5-1.05l.45-2.3L4.8 0l-.1 1.7-.25.05L4.3 2l-.7-.6-.65 2.1-.05.7h-.15l-.9.35-.65.55q1.4 6.65 1.7 13.5.05 1.5.65 2.7H3.5l.1.1q.9 1.65 2.8 2.7 3.3 1.9 7.1 1.65l.45-1.45.55-.15.1-.45v1.2l-.4.9"/><path fill="#701100" fill-rule="evenodd" d="M4.7 1.7q2.9 3.85 7.45 5.45l1.6.6.65.45.6.65.25 1.35.2 2.7v1.5l-.55 7.45-.15 1.15-.15.7-.1.45-.55.15-.8-.2-.7-2.15q-.6-2.65-1.7-5.1-1.2-2.6-.65-4.5l.25-.25.55-.55.2-.4-1.8-1.2Q6.6 8 4.35 5.7l-.5-.6L11 10.3l2.75-.8q-1.5 1.8-3.35 3.1 1.75 5.5 3.15 10.95 2.15-7.3.8-14.75-1.4-.65-2.8-1.2Q7.15 5.8 4.3 2l.15-.25.25-.05m23.1 5.25q3.5-1.15 6.15-3.7l1.3-1.2.6-.25.1.35-.5.55Q32.7 6.8 28.05 8l-2.6.85-.15.9v.15l-.45.3.3-1.65 1.1-.9 1.55-.7M26.15 24.3l-.7-.55-.1-.85-.1-1-.2-2.65-.15-3.55.4 1q.35 2.65 1 5.35l.4 1.4.1-.4.25-1.55.1-1.55.55-.8.5.1-1.25 4.85-.8.2m5.2-15.55L34.4 6.4l1.55-1.25-.2.5-1.35 1.3-2.5 2.15-.55-.35m-4.95.85-.05-.05.2-.05-.15.1"/><path fill="#ffffbf" fill-rule="evenodd" d="m35.95 2.15.75-.95.3 2.25v.75l.9.15.8.45q.7 1.8-.15 3.55-1.75 3.7-1.1 7.55.7 3.85-1.95 6.4-3.65 3.7-8.8 3.5l-.55-1.5.8-.2v.6l1.35-.25.55-.3q-1-2.3-.45-4.85l1.55-.45 1.35-.6.95.05q.5-.1.8-.4 2.4-2.15.75-5.05l.1-.6q.05-1.55-1.1-2.5l1.25-1.6 1.7-2.5.2-.5L34.4 6.4l-3.05 2.35-1.1-.55-.65-.1 1.25-.7q3-1.65 4.6-4.7l.5-.55m0 2.95v.05-.05M25.3 9.9v-.15l1.85-.7-.6.45-.2.05.05.05-1.1.3m1.3 7.85-.3.75 1.4.65-.55.8-.1 1.55-.25 1.55-.1.4-.4-1.4q-.65-2.7-1-5.35l1.3 1.05m5.95 2.55 1-.25-1.65 1.2 1.35.05q-1.65.95-3.4.75l.6.6 2 .1q3.1-1.15 2-4.55l-.85.65-.15.85-.9.6M14.35 8.8q1.35 7.45-.8 14.75-1.4-5.45-3.15-10.95 1.85-1.3 3.35-3.1l-2.75.8-7.15-5.2.5.6q1.95 3.1 4.7 5.85L8 12.3q.6 1.7 1.55 3.1 2.85 4.15 1.65 8.75l1.75.5.2-.55.8.2-.45 1.45Q9.7 26 6.4 24.1q-1.9-1.05-2.8-2.7 1.7 1.45 3.8 2.3 2.35 1.1 4.8 1.45-1.4-.6-2.3-1.75Q8 20.85 7 17.65l-2.5-9.5-.15 12.65-.8.5q-.6-1.2-.65-2.7-.3-6.85-1.7-13.5l.65-.55.9-.35h.15l.05-.7.65-2.1q.9 1.85 2.55 3.45 3.5 3.65 8.2 3.95"/><path fill="#d68e4b" fill-rule="evenodd" d="m35.75 5.65-1.7 2.5-1.25 1.6-.9-.65 2.5-2.15 1.35-1.3m-1.95 7.2q1.65 2.9-.75 5.05-.3.3-.8.4l-.95-.05-1.35.6-1.55.45q-.55 2.55.45 4.85l-.55.3-1.35.25v-.6l1.25-4.85-.5-.1-1.4-.65.3-.75 2.75-.15.85-.55 2.4-.3 1-1q.7-1.2 0-2.4l.2-.5m-1.25 7.45.9-.6.15-.85.85-.65q1.1 3.4-2 4.55l-2-.1-.6-.6q1.75.2 3.4-.75l-1.35-.05 1.65-1.2-1 .25M4.35 5.7Q6.6 8 9.3 9.95l1.8 1.2-.2.4-.55.55-.25.25q-.55 1.9.65 4.5 1.1 2.45 1.7 5.1l.7 2.15-.2.55-1.75-.5q1.2-4.6-1.65-8.75Q8.6 14 8 12.3l1.05-.75Q6.3 8.8 4.35 5.7"/><path fill="#e0a057" fill-rule="evenodd" d="m3.55 21.3.8-.5.15-12.65 2.5 9.5q1 3.2 2.9 5.75.9 1.15 2.3 1.75-2.45-.35-4.8-1.45-2.1-.85-3.8-2.3l-.1-.1h.05m1.35.1.5.75.7.55-.55-.6-.5-2.7-.15 2"/><path fill="#f0f0f0" fill-rule="evenodd" d="m24.2 14.9.4.45-2.2 1.45-.1.85-.7.35-.1-.6-.7.5-.15-.8-.15.85-3.4-1.7.1-.9.7.3 2.65 1.05 3.65-1.8"/><path fill="#fffcfa" fill-rule="evenodd" d="m22.6 18.1.7.15.1.15-.05.55-.7.45-.5.1-.5-.85.05-.2q.3-.45.9-.35m-5 0 .4.05.3.3.1.3q-.15.5-.7.65l-.6.1-.5-.85q0-.25.3-.4l.7-.15"/><path fill="#612800" fill-rule="evenodd" d="m21.65 18.65-.25 1.1q.75 1 2.05.4l.3-.75.1-.35-.35-.6-.3-.35h-.6q-.6-.1-.9.35l-.05.2M21.6 18l.7-.35q.9 0 1.55.5.65.45.65 1.15.1.95-.6 1.75l-.4.3-1.15-.2-1-.5-.15-.2-.3-.6.05-.8.65-1.05m-2.1 1.4-.6 1.7-.6.25q-1.2 0-2-.9l-.4-.55.2-.9q.2-.7.85-1.3 1.05 0 1.8.5t.75 1.2m-2.9-.75-.15.7.05.7 1.4.15.7-.15.05-.9-.05-.65-.15-.2-.3-.2h-.55l-.7.15q-.3.15-.3.4"/><path fill="#e87c00" fill-rule="evenodd" d="M22.6 18.1h.6l.3.35.35.6-.1.35-.3.75q-1.3.6-2.05-.4l.25-1.1.5.85.5-.1.7-.45.05-.55-.1-.15-.7-.15m-5 0h.55l.3.2.15.2.05.65-.05.9-.7.15-1.4-.15-.05-.7.15-.7.5.85.6-.1q.55-.15.7-.65l-.1-.3-.3-.3-.4-.05"/><path fill="#b25c1f" fill-rule="evenodd" d="m20.8 17.9.15 1.15-.05.8.3.6.3 2h-1.75l.5-2.9.25-1.6.15-.85.15.8"/><path fill="#ff8645" fill-rule="evenodd" d="M25.5 24.9v.05l-3.2-.4-.15-.65.1-.05.7-.3 2.55 1.35m-7.3-.45-.5.15-1.75.05.4-.95 2.15.2-.3.55"/><path fill="#690000" fill-rule="evenodd" d="m29.6 8.1.65.1 1.1.55.55.35.9.65q1.15.95 1.1 2.5l-.1.6-.2.5q.7 1.2 0 2.4l-1 1-2.4.3-.85.55-2.75.15-1.3-1.05-.4-1-.3-.35-.4-.45-.25-.5-.15-.55v-.8q.1-1.55 1.05-2.85l.45-.3 1.1-.3.15-.1.6-.45 2.45-.95"/><path fill="#fe5900" fill-rule="evenodd" d="M19.55 13q-1.25-.55-1.55-1.9 1.75-1.6 4.05-.55l.3.4q-.2 1.8-2.15 2.2l-.65-.15m-1.05 1.2 3-.25.25.5-1.15 1.1-2.1-1.35"/><path fill="#c90000" fill-rule="evenodd" d="M29.55 10.2q1.35.05 1.9 1.25l.3.65-.2.6q-.65-2-2.55-2.45l.55-.05m-2.65.65.4-1.4-.4 1.4q-1.1.25-1.5 1.05-.95 1.85.75 3v1.2q1.85 1.7 3.55.5l.25-.65.25.1 1.1.15-3.05 1.35Q26.9 17.5 26 16.2l-1-1.5q-.75-1.2-.2-2.65.2-.6.75-.85l1.75-1.75q2.85-1.15 4.8.9.55.55.7 1.3l.15 1.7-.05.95-.8-.95.5-.55q.1-1.45-.95-2.6l-.85-.6q-2.5-1.1-3.9 1.25m.8 3.3-.65-.6-.15-.85q.85 1.3 1.7 1.3l-.05.1-.8.05h-.05m.1.05h-.05v-.05l.05.05m4.95.95-.6.6-.3.15.9-.75"/><path fill="red" fill-rule="evenodd" d="m29.55 10.2-.55.05q1.9.45 2.55 2.45l.2-.6-.3-.65q-.55-1.2-1.9-1.25m-2.65.65q1.4-2.35 3.9-1.25l.85.6q1.05 1.15.95 2.6l-.5.55.8.95.1.1-.1.6-.15.15-.9.75-.35.3h-.2l-1.1-.15-.25-.1-.25.65q-1.7 1.2-3.55-.5v-1.2q-1.7-1.15-.75-3 .4-.8 1.5-1.05v1.45-1.45m.05 1.4-.05.05-.3.4-.05.2-.05.05.15.85.7.65.45.6-.7-.65-.65-.45-.3-1.2q-.05 1.45 1.05 2.2l.8.3h.65l1.25-.65q1-.35 1.35-1.3l.15-.4q-.65-1.7-2.5-2.2-1 .3-1.5 1.4l-.45.15m3 3.7-.65-.25-.65-.45.65.45.65.25m1.55-2.25-.2.25-.15.55-1.45 1.05.75-.2q1.05-.1 1.85-1.05l-.6-.75q-.15.05-.2.15m-2.85 2.4-1.75-.5q-.55-.05.35.55l.85.35.55-.4"/><path fill="#d90000" fill-rule="evenodd" d="m27.8 15.05.2.2-.8-.3q-1.1-.75-1.05-2.2l.3 1.2.65.45.7.65m3.7-1.35q.05-.1.2-.15l.6.75q-.8.95-1.85 1.05l-.75.2 1.45-1.05.15-.55.2-.25"/><path fill="#f40000" fill-rule="evenodd" d="m26.9 12.3.05-.05.45-.15q.5-1.1 1.5-1.4 1.85.5 2.5 2.2l-.15.4q-.35.95-1.35 1.3l-1.25.65H28l-.2-.2-.45-.6-.7-.65-.15-.85.05-.05.05-.2.35-.45-.35.45.3-.4m1.65 1.8.05-.1q-.85 0-1.7-1.3l.15.85.65.6v.05h.1l.35.2.8.1-.4-.4m.25-.8.8-.05q.4-1.45-1.25-1.95l-1 1.25q.25.8 1.05 1l.25-.05.15-.2 1.1 1.3-1.1-1.3-.15.2-.25.05q-.8-.2-1.05-1l1-1.25q1.65.5 1.25 1.95l-.8.05m-.35-.65-.6.45.7.1.8-.65-.9.1m2.35.25-.45.85-.9-.1.8.45.6-.75-.05-.45m-.15-.2-.15-.4q-.45-1.05-1.55-1.05l1.7 1.45"/><path fill="#e30000" fill-rule="evenodd" d="m28.45 12.65.9-.1-.8.65-.7-.1.6-.45m2.35.25.05.45-.6.75-.8-.45.9.1.45-.85"/><path fill="#ff4f4f" fill-rule="evenodd" d="m28.55 14.1.4.4-.8-.1-.35-.2-.05-.05.8-.05m-.8.1h-.05v-.05h.05v.05m2.9-1.5-1.7-1.45q1.1 0 1.55 1.05l.15.4m-2 3.4-.55.4-.85-.35q-.9-.6-.35-.55l1.75.5"/><path fill="none" stroke="#c90000" stroke-linecap="round" stroke-linejoin="round" stroke-width=".75" d="m27.3 9.45-.4 1.4v1.45m3.3 3.75-.25-.1-.65-.25-.65-.45 1.25-.65-1.1-1.3-.15.2-.25.05q-.8-.2-1.05-1l1-1.25q1.65.5 1.25 1.95l-.8.05m-1.85-1.05.45-.15q.5-1.1 1.5-1.4 1.85.5 2.5 2.2l-.15.4q-.35.95-1.35 1.3m-3.3-1.9-.05.2m-.05.05.15.85.7.65.45.6.2.2h.65m-1.7-3-.35.45"/></g></defs></svg>