<svg xmlns="http://www.w3.org/2000/svg" xmlns:xlink="http://www.w3.org/1999/xlink" width="84.85" height="82"><g transform="translate(37.4 42.25)"><use xlink:href="#a" width="32.05" height="38" transform="translate(-11.95 -17.45)"/><use xlink:href="#b" width="33.05" height="38.95" transform="translate(-12.45 -17.95)"/><use xlink:href="#c" width="38.85" height="32.9" transform="translate(-15.6 -5.2)"/></g><defs><path id="d" fill="#fce4d7" fill-rule="evenodd" d="M27.35 7.4q2.15 4.15 3.55 8.75 1.45 4.7 1.15 9.5-.35 4.95-4.2 8.1-3.8 3.2-8.75 4.05l-2.6.2q-3.6 0-7.05-1.15-4.65-1.6-7.1-5.5Q-.2 27.4.05 23q.2-4.4 2-9.3Q3.85 8.75 7 5.05 10.1 1.3 14.7.1l1.8-.1q1.9.05 3.7.8 4.75 2.05 7.15 6.6" transform="translate(-.05)"/><path id="e" fill="none" stroke="#1a171b" stroke-linecap="round" stroke-linejoin="round" d="M27.35 7.4Q24.95 2.85 20.2.8 17.55-.3 14.7.1 10.1 1.3 7 5.05q-3.15 3.7-4.95 8.65-1.8 4.9-2 9.3-.25 4.4 2.3 8.35 2.45 3.9 7.1 5.5 4.65 1.55 9.65.95 4.95-.85 8.75-4.05 3.85-3.15 4.2-8.1.3-4.8-1.15-9.5-1.4-4.6-3.55-8.75Z" transform="translate(.45 .5)"/><use xlink:href="#d" id="a" width="32.05" height="38"/><use xlink:href="#e" id="b" width="33.05" height="38.95"/><g id="c" fill-rule="evenodd"><path fill="#c24800" d="M36.9 24.75q-9.8 11.6-25 6.7-5.65-1.75-9.35-6.65l1.75.6 1.45 1.3q8.1 8.3 19.65 4.65l1.6-.45.55-.1q2.2-.3 3.75-2.1l3.35-2.7.9-.85 1.35-.4M17.6 10.8l.1 1.4.65-1-.75-.4 1.15-.05-1.4 2.75-1.15.25.15-.7q.35-1.25 1.25-2.25m-.65 3.6-.2 1.15-.5-1.35.7.2"/><path fill="#eb6c2a" d="m5.75 26.7 10.3 1.95-.7.5h1.8q1.55.05 2.5-1.25l.75.55.8.55 2.7.15-.55-.65h3.9l-3.2.4.55.6-3.65.05-1.2-.45-5.3.5.65-.45-6.9-.95 2.3 1q7.9 3.4 16.5 1.7l-1.6.45Q13.85 35 5.75 26.7m22.9 1.6q2.35-.4 4.5-1.45l1.5-.85-.05-.5.95-.35-.9.85-3.35 2.7.6-.85-3.25.45"/><path fill="#fd8b32" d="M27 30.9q-8.6 1.7-16.5-1.7l-2.3-1 6.9.95-.65.45 5.3-.5 1.2.45 3.65-.05-.55-.6 3.2-.4 1.4-.2 3.25-.45-.6.85q-1.55 1.8-3.75 2.1l-.55.1"/><path fill="#7c3a04" d="M36.6 10.75q2.8 6.25.8 12.6l-.5 1.4-1.35.4-.95.35.05.5-1.5.85Q31 27.9 28.65 28.3l-1.4.2h-3.9l.55.65-2.7-.15-.8-.55-.75-.55q-.95 1.3-2.5 1.25h-1.8l.7-.5-10.3-1.95-1.45-1.3-1.75-.6Q.7 20 1.75 14.75l.8-3.45h.05l-.25 1 1.2-.1q-2.8 6.5.75 12.15l.65.2.85.4.2.7.85.5 1.3.35.45.1 3.25.85.55.35 2.7-.35.6.15 1.45.75 1.7-.45.2-.2.95-.55q0 .55.7.95l1.6.35.6-.2.25-.5 3.75.05.8-.45 3.25-.65 1.45-.6.65-.25q.3-1 1.1-1.25l.4-.1.65-.2.55-.1q1.75-6.45-.25-13l1.1-.45m-34 .3.1-.25-.05.25H2.6m17.65-.2q.85-.8 1.85-1.45.4-.35.95-.55l-.25.75 1.5-.65-1.65 1.3-.4-.65-1.45 1.05-.15.6-.4-.4"/><path fill="#e2ad68" d="m22.65 10.25-.3.35-.55-.6-.9.85-.1.55-.15-.15.15-.6 1.45-1.05.4.65"/><path fill="#fed68f" d="m22.35 10.6-.45.6-1.1.2.1-.55.9-.85.55.6"/><path fill="#bc7927" d="m27.05 15.95.65 11.4-.8.45-3.75-.05 1.2-.1.05-2.5.15.4-.3-10.7.6 3.8v2.1l2.2-4.8m3.9 10.75.1-.6.35.4q.55-6.75-.4-13.4l1-.35q1.45 6.55.4 13.35l-1.45.6m-16.55-11 .75.85q-.55 4.2-.3 8.3l.25 2.6-2.7.35-.55-.35.55-8.8.8 4.1q.9-1.95 1.1-4.1l.1-2.95M8.6 26.6l-.45-.1-1.3-.35q-.25-4.6.05-9.25l.25-3.1h1.2Q7.75 18.85 8 24l.15 2.5.2-.65.25.75m10.25 1.15.2-.05-.2.2v-.15m1.15-.6.65-.45v1.25l1.65.5-1.6-.35q-.7-.4-.7-.95"/><path fill="#96480e" d="m36.4 10.1.2.65-1.1.45q2 6.55.25 13l-.55.1.05-2.9.4.8q.15-3.85-.55-7.95l-.5-2.7-1.05.55 1 12.4-.4.1q-.8.25-1.1 1.25l-.65.25q1.05-6.8-.4-13.35l-1 .35-1.1.35-.05-.8 6.55-2.55m-33.7.7.1-.45.7.2-.85.5.05-.25m27.2 4.6q.1 1.7-.45 3.35l-.4 1.05q-.35-1.35-1.05-2.45l-.95-1.4-2.2 4.8v-.8L27 15.1l2.05 3.9.85-3.6m-15.5.3v-.8l2.25 1.8-.1.8-1.4-.95-.75-.85-.1 2.95q-.2 2.15-1.1 4.1l-.8-4.1-.65-2.1q-.1 3.2-2.2 5.85v-.8l2.2-5.85 1.45 6.2 1.2-6.25m3.1 5.3 1.05 2.6v.3L17.5 21m.15 6.4 1-.25q3.8-1.55 5-5.5l-.25 1.2q-.65 2.4-2.75 3.85l-.65.45-.95.55-.2.05-1.7.6.5-.95m4.2-11.25-.05-.35.1-.25.25-.2h.5l.4-.2.8-1.5-.1-.45.6 1.35q.8 2.1.5 4.1l-.6-3.8-.5-.85.1.45-.8 1.5-1.2.2m-15 10-.85-.5-.2-.7-.85-.4.75-12.15 1.05-.05-.25.85 2.05-.15.25 1.65-.45-.9h-1.2l-.25 3.1q-.3 4.65-.05 9.25m-2.55-1.8Q.75 18.7 3.55 12.2l-1.2.1.25-1 2.55.8-.65.05-.7 10.05.45-.8.05 2.95"/><path fill="#b3671c" d="m27.05 15.95.95 1.4q.7 1.1 1.05 2.45l.4-1.05q.55-1.65.45-3.35v-1.95l1.1-.35q.95 6.65.4 13.4l-.35-.4-.1.6-3.25.65-.65-11.4m7.5 8.55-1-12.4 1.05-.55.5 2.7q.7 4.1.55 7.95l-.4-.8-.05 2.9-.65.2m-19.4-7.95 1.4.95.95 3.5 1.05 2.9-1.4 3.65.5-.15-.5.95 1.7-.6v.15l-1.7.45-1.45-.75-.6-.15-.25-2.6q-.25-4.1.3-8.3m8.5 5.1-1.8-5.5 1.2-.2.8-1.5-.1-.45.5.85.3 10.7-.15-.4-.05 2.5-1.2.1-.25.5-.6.2-1.65-.5V26.7q2.1-1.45 2.75-3.85l.25-1.2m-11.8 5.8L8.6 26.6l-.25-.75-.2.65L8 24q-.25-5.15.35-10.2l.45.9.3 1.3q.5 2.85.45 5.6v.8q2.1-2.65 2.2-5.85l.65 2.1-.55 8.8m-6.9-2.9-.65-.2-.05-2.95-.45.8.7-10.05.65-.05.55.3-.75 12.15"/><path fill="#c23501" d="M24.3 8.95q7.2-1.05 8.65-7L33 .6l3.7-.4-1 .7 2 .55-1 .9 1.95.55-1.3.8 1.5 2.25-1.2-.25.3 1.35L38 8.7l-.45-.6-1.15 2-6.55 2.55.05.8v1.95l-.85 3.6L27 15.1l-2.15 4.85v-1.3q.3-2-.5-4.1l-.6-1.35.1.45-.8 1.5-.4.2h-.5l-.25.2-.1.25.05.35 1.8 5.5q-1.2 3.95-5 5.5l-1 .25-.5.15 1.4-3.65-.3 2.8.9-.4q4.85-2.35 3.5-7.2l-1.2-2.9-3.95 1.25-.1 1.9 1.15 4.25L17.5 21l-.95-3.5.1-.8-2.25-1.8v.8l-1.2 6.25-1.45-6.2-2.2 5.85q.05-2.75-.45-5.6l-.3-1.3-.25-1.65-2.05.15.25-.85-1.05.05-.55-.3-2.55-.8h-.05l.05-.25h.05l.85-.5-.7-.2-2.2-.5 1.2-.8-.75-.9L0 6.35l1 .5-.65-3.3 1.15.95.95-3.4.7.35 2-1.45L6.4.6 6 2.7q-.2 1.35.15 2.75L9.5 6v-.7l2.1 1.05.55-.8L13.3 6.8l1.15-1.7 1.4 3.5q1.65-.25 2.9.85l1.5 1.4.4.4.15.15 1.1-.2.45-.6.3-.35 1.65-1.3m5.5-1.1Q27.9 8.9 25.35 9.5q-1.25.3-2.35 1.05 3 3.1 2.6 7.4l1.15-3.85 2.4 3.5.4-5.25L36.4 9.6l1.25-2.15L36.8 5l1.3.3-2.05-1.25.85-.85-1.65-.45.8-1-1.75-.25q-.5 3.1-2.75 5.1L29.8 7.85M21.85 15l1.05-.15.35-1.35-.15-.7q-2.85-1-5.35-3.4l-2.2-.25-1.15-3.1-1.05 1.55-1.1-1.25-.5.65-1.7-1.1-.05.65q-2.25.15-4.35-1.1l-.3-4.35Q4 1.6 3.5 2.9l-.25.75L2.6 2.5l-.45 3L1 4.85l1.55 3.1-1.4-.45 2.1 1.6-1.05.45 2.1.75-.45.65 1.5.1.4.85 1.7-.2v.5l-.3.5 1.8-.1 1.1 7.35 1.55-5.85 1.75 5.85.6-5.65.45-.2 2.25 2.15 4.8-1.45.4.2"/><path fill="#e97318" d="m34.75 3.85 1.15-.4-1.05-.05-.1.45m-3.2 2.75q2.25-2 2.75-5.1l1.75.25-.8 1 1.65.45-.85.85L38.1 5.3 36.8 5l.85 2.45L36.4 9.6l-6.85 2.75-.4 5.25-2.4-3.5-1.15 3.85q.4-4.3-2.6-7.4 1.1-.75 2.35-1.05 2.55-.6 4.45-1.65l-5.25 3.7.75-.2.15.95.7-.4.8.8.4-.85.45.15.55-1.25 3.3-1.55.85.15-.1-1.15 1 .45.8-1.15.05-.9 1 .2-.5-.95 1.35-.1L35.05 5l1-.25-1.3-.4-3.2 2.25m4.95-.5-.45.35 1 .5-.55-.85M36 7.25l-.45.25.7.75-.25-1M17.6 10.8q-.9 1-1.25 2.25l-.15.7-.05.25.1.2.5 1.35.2-1.15.4-.9 1.4-2.75-1.15.05m-.2 8.55.1-1.9 3.95-1.25 1.2 2.9-.2-.4q.6 1.95-.45 3.75.35-2.4-.95-4.65v4.05l-1.3-4.45.3 4.45-1.5-3.05.15 2.1-1.3-1.55M21.85 15l-.4-.2-4.8 1.45-2.25-2.15-.45.2-.6 5.65-1.75-5.85-1.55 5.85-1.1-7.35-1.8.1.3-.5v-.5l-1.7.2-.4-.85-1.5-.1.45-.65-2.1-.75 1.05-.45-2.1-1.6 1.4.45L1 4.85l1.15.65.45-3 .65 1.15.25-.75Q4 1.6 5.35 1.1l.3 4.35Q7.75 6.7 10 6.55l.05-.65 1.7 1.1.5-.65 1.1 1.25 1.05-1.55 1.15 3.1 2.2.25q2.5 2.4 5.35 3.4l.15.7-.35 1.35-1.05.15m-10-7.6-1.5-.9.2.95L9.1 6.9 6.25 7l-1-.4-.75-1.55-.25 1.1-.9-1.05.6 1.6L3 6.6l.8 1.2 1.45.7-1.3.1L6 9.3l-.85.45 1.65.2-.55.5 1.8.5-.35-1 1.15.95-.3-.9 2.8 1.35-.7-1.75 2.55-.2.3-1.35-.5.05-.7-.9-.45.2m2.6 2.85-3-.15 2.1 2.6-.05-1.5-.8-.5 1.75-.45m-.2-.8.4-.95-.4-1.55v2.5"/><path fill="#f9a01b" d="m34.75 3.85.1-.45 1.05.05-1.15.4m-3.2 2.75 3.2-2.25 1.3.4-1 .25 1.05.75-1.35.1.5.95-1-.2-.05.9-.8 1.15-1-.45.1 1.15-.85-.15-3.3 1.55L27.8 12l-.45-.15-.4.85-.8-.8-.7.4-.15-.95-.75.2 5.25-3.7 1.75-1.25m4.45.65.25 1-.7-.75.45-.25m.5-1.15.55.85-1-.5.45-.35M11.85 7.4l.45-.2.7.9.5-.05-.3 1.35-2.55.2.7 1.75L8.55 10l.3.9-1.15-.95.35 1-1.8-.5.55-.5-1.65-.2L6 9.3l-2.05-.7 1.3-.1-1.45-.7L3 6.6l.95.1-.6-1.6.9 1.05.25-1.1.75 1.55 1 .4 2.85-.1 1.45.55-.2-.95 1.5.9m2.4 2.05v-2.5l.4 1.55-.4.95m.2.8-1.75.45.8.5.05 1.5-2.1-2.6 3 .15"/><path d="m17.6 10.8.75.4-.65 1-.1-1.4m-1.4 2.95 1.15-.25-.4.9-.7-.2-.1-.2.05-.25"/><path fill="#fff" d="m18.55 23.6-1.15-4.25 1.3 1.55-.15-2.1 1.5 3.05-.3-4.45 1.3 4.45V17.8q1.3 2.25.95 4.65 1.05-1.8.45-3.75l.2.4q1.35 4.85-3.5 7.2l-.9.4.3-2.8v-.3"/></g></defs></svg>