<svg xmlns:xlink="http://www.w3.org/1999/xlink" height="82" width="84.85" xmlns="http://www.w3.org/2000/svg"><g transform="translate(37.4 42.25)"><use height="38" transform="translate(-11.95 -17.45)" width="32.05" xlink:href="#a"/><use height="38.95" transform="translate(-12.45 -17.95)" width="33.05" xlink:href="#b"/><use height="24" transform="translate(-13.65 .45)" width="35.95" xlink:href="#c"/></g><defs><path d="M27.35 7.4q2.15 4.15 3.55 8.75 1.45 4.7 1.15 9.5-.35 4.95-4.2 8.1-3.8 3.2-8.75 4.05l-2.6.2q-3.6 0-7.05-1.15-4.65-1.6-7.1-5.5Q-.2 27.4.05 23q.2-4.4 2-9.3Q3.85 8.75 7 5.05 10.1 1.3 14.7.1l1.8-.1q1.9.05 3.7.8 4.75 2.05 7.15 6.6" fill="#fff" fill-rule="evenodd" transform="translate(-.05)" id="d"/><path d="M27.35 7.4Q24.95 2.85 20.2.8 17.55-.3 14.7.1 10.1 1.3 7 5.05q-3.15 3.7-4.95 8.65-1.8 4.9-2 9.3-.25 4.4 2.3 8.35 2.45 3.9 7.1 5.5 4.65 1.55 9.65.95 4.95-.85 8.75-4.05 3.85-3.15 4.2-8.1.3-4.8-1.15-9.5-1.4-4.6-3.55-8.75Z" fill="none" stroke="#010102" stroke-linecap="round" stroke-linejoin="round" transform="translate(.45 .5)" id="e"/><use height="38" width="32.05" xlink:href="#d" id="a"/><use height="38.95" width="33.05" xlink:href="#e" id="b"/><g id="c"><path d="m17.6 17.5-.05.05.4-.25 1.1-.7q1.8-4.1 1.35-8.5l-.1-1.3q-2.45 3.3-5.45 6v1.5q-.05 1.15-.95 2l-.65.55-2.55-.3-.45 3.75 1.3-.4q3.25-.8 6.05-2.4m-2.8-8.05-.7 1.1.4.85q4.4-3.55 6.95-8.45l-.35-.55-.5-.45q-2.05 3-5.3 4.75l-.5 2.75m7.35 4.6q-.55 5.35-5.05 8.2-4.45 2.75-9.75 2.1l-9-.6q-6.4.75-8.8-4.4-.5-1.05-.6-2.25l-1.1-1-1.4-8.7q-.5-3.3 1.6-5.95Q-8.9 4.4-5.45 6.8l.1-1.1.45-.35q4.25-1.6 7.4 2l.85 1.05 3.25-.15q2-2.7 5.3-3.4 1.75-.4 3.3.7 2.55-1.7 4.75-4.05L20.8.45l1.15 2q.4.8.3 1.6l-.3.8-.3.3q.95 4.4.5 8.9M7.8 11.7l-.5 1.55q1.7 1.55 3.8 2l1.35.2q.65-.45.8-1.3.3-2-.7-3.6.75-.55 1.1-1.6.4-1.3-.2-2.8-3.05-.6-5.2 1.55l-1 1.1.45 1.6.1 1.3m-5.25-1.65L2.9 8.8Q.7 6.1-2.75 6l-.75.5-.1.9q-.15 1.8 1.15 3.15-1.5 2.6.2 4.85l1-.15q2.3-.65 4.05-2.35l-.25-2.85M4.4 9.6l-.55.35v1.55l.05.25.5.75 1.85-.1.1-.35.05-1.25-.3-1-.65-.5-.8.05-.25.25m1.1 4.6h-.4l-1.7-.4-.8.95-1.45 2.2.2 4.6.65.2.8.3.8.15 1.5.1h.05l1.7-.1 1.4-.05.7-.35.1-1.55q.1-3.05-1.65-5.6l-.7-.7-1.2.25M-2.4 20l2.55.65L.1 16.2l-2.5.75-1.65-.5q-.7-.55-.7-1.3l-.2-1.5-6.25-5.95.4 3.3.9 4.6q1.95 1.75 4.25 2.9l.1.05L-2.4 20M13 21q-1.55.15-2.7 1.15l-.8.7 2.4.05q5.65.6 7.85-4.1l.2-.7Q16.7 20.05 13 21M-12.1 5.05l.25.85 7.15 6.15.45-1.1L-5.4 7.8-12 3.25l-.1 1.8M-4 21.3l-5.85-3.2.25.9q1.6 3.65 5.7 3.45H.35L-4 21.3" fill="#00141c" fill-rule="evenodd" transform="translate(13.65 -.45)"/><path d="M11.9 22.9 13 21q3.7-.95 6.95-2.9l-.2.7q-2.2 4.7-7.85 4.1M-4 21.3l.1 1.15q-4.1.2-5.7-3.45l-.25-.9L-4 21.3" fill="#33a00f" fill-rule="evenodd" transform="translate(13.65 -.45)"/><path d="m11.9 22.9-2.4-.05.8-.7q1.15-1 2.7-1.15l-1.1 1.9m-15.8-.45L-4 21.3l4.35 1.15H-3.9" fill="#2a720f" fill-rule="evenodd" transform="translate(13.65 -.45)"/><path d="M11.55 19.9q3.3-2.75 4.55-6.5l1.5.6.3 1.8q.05.85-.3 1.7-2.8 1.6-6.05 2.4M14.8 9.45l.5-2.75q3.25-1.75 5.3-4.75l.5.45-1.05 1.5Q17.75 7 14.8 9.45M5.15 22.3l.35-1.6q.7-3.2 0-6.5l1.2-.25.7.7-.35 1.25q-.65 3.1-.2 6.3l-1.7.1M2.5 15.25q-.3 1-.45 2.05-.35 2.1-.55 4.25l.9.15.1-6.45m.1-.5 1-.45v7.9l-.8-.15-.8-.3-.65-.2-.2-4.6 1.45-2.2m-5 2.2V20l-3.15-1.45-.1-.05q-2.3-1.15-4.25-2.9l-.9-4.6 6.05 4.15q0 .75.7 1.3l1.65.5M-5.25 9.4l-.5-1.5-2.8-1.6 3.3 3.1m1 1.55-1.65-.9q-3.35-2.1-6.2-5l.1-1.8 6.6 4.55 1.15 3.15m-1.3 7.6-.25-.95-1.4-2.55-.9-1.35.15 3.2.75.55 1.65 1.1" fill="#33a02c" fill-rule="evenodd" transform="translate(13.65 -.45)"/><path d="m11.55 19.9-1.3.4.45-3.75 2.55.3.65-.55q.9-.85.95-2v-1.5q3-2.7 5.45-6l.1 1.3q.45 4.4-1.35 8.5l-1.1.7-.4.25.05-.05q.35-.85.3-1.7l-.3-1.8-1.5-.6q-1.25 3.75-4.55 6.5M21.1 2.4l.35.55q-2.55 4.9-6.95 8.45l-.4-.85.7-1.1Q17.75 7 20.05 3.9l1.05-1.5m-16 11.8h.4q.7 3.3 0 6.5l-.35 1.6H5.1v-8.1 8.1l-1.5-.1v-7.9l-1 .45.8-.95 1.7.4m2.3.45q1.75 2.55 1.65 5.6l-.1 1.55-.7.35-1.4.05q-.45-3.2.2-6.3l.35-1.25m-9.8 2.3 2.5-.75.05 4.45L-2.4 20v-3.05M-10.8 11l-.4-3.3 6.25 5.95.2 1.5L-10.8 11m6.55-.05-.45 1.1-7.15-6.15-.25-.85q2.85 2.9 6.2 5l1.65.9" fill="#296300" fill-rule="evenodd" transform="translate(13.65 -.45)"/><path d="m8.45 10.55-.3-.85.4-.65-.95-.1 2.9-2.45.55.2-1.3 2.45-.1 4.15-.6-.3-.75-.15.1-1.45.05-.85m-10.5 4.75h-.1v-.05l-.45-2.15q1.15-2.3.1-4.7l-.85-1.65 2.45-.3-1 6.55q-.15 1.05.9 1.7l-1.05.6m5.9-3.8.55-1.9.25-.25.8-.05.65.5-.2 1.4-1.2.15-.8.4-.05-.25" fill="#e3ffe4" fill-rule="evenodd" transform="translate(13.65 -.45)"/><path d="m8.4 11.4-.1 1.45.75.15.6.3.1-4.15 1.3-2.45-.55-.2-2.9 2.45.95.1-.4.65.3.85-.75-.15-.45-1.6 1-1.1q2.15-2.15 5.2-1.55.6 1.5.2 2.8-.35 1.05-1.1 1.6 1 1.6.7 3.6-.15.85-.8 1.3l-1.35-.2q-2.1-.45-3.8-2l.5-1.55.6-.3m5.1-4.7q-.7 2.4-2.4 4.05l1.15-.2q1.4-1.25 1.3-3.2l-.05-.65M2.55 10.05.1 10.8l1.95 1.1L-1 14.7q-1.05-.65-.9-1.7l1-6.55-2.45.3.85 1.65q1.05 2.4-.1 4.7l.45 2.15-.05.05h.15Q0 14.75 1.8 13.55l1-.65q-1.75 1.7-4.05 2.35l-1 .15q-1.7-2.25-.2-4.85Q-3.75 9.2-3.6 7.4l.1-.9.75-.5Q.7 6.1 2.9 8.8l-.35 1.25m1.3 1.45V9.95l.55-.35-.55 1.9M6.1 9.8l.3 1-.05 1.25-.1.35-1.85.1-.5-.75.8-.4 1.2-.15.2-1.4m2.15 3.9 3.7 1.4.85-.55q.65-2.2-.55-4 0 3.3-3.4 3.3l-.6-.15" fill="#24cf28" fill-rule="evenodd" transform="translate(13.65 -.45)"/><path d="m8.4 11.4-.6.3-.1-1.3.75.15-.05.85m5.1-4.7.05.65q.1 1.95-1.3 3.2l-1.15.2q1.7-1.65 2.4-4.05m-14.5 8 3.05-2.8L.1 10.8l2.45-.75.25 2.85-1 .65Q0 14.75-2.05 15.3l1.05-.6m-1.15.6h-.05l.05-.05v.05m10.4-1.6.6.15q3.4 0 3.4-3.3 1.2 1.8.55 4l-.85.55-3.7-1.4" fill="#248c00" fill-rule="evenodd" transform="translate(13.65 -.45)"/><path d="m2.5 15.25-.1 6.45-.9-.15q.2-2.15.55-4.25.15-1.05.45-2.05M-5.25 9.4l-3.3-3.1 2.8 1.6.5 1.5m-.3 9.15-1.65-1.1-.75-.55-.15-3.2.9 1.35 1.4 2.55.25.95" fill="#79e26d" fill-rule="evenodd" transform="translate(13.65 -.45)"/><path d="M5.1 14.2v8.1" fill="none" stroke="#00141c" stroke-linecap="round" stroke-linejoin="round" transform="translate(13.65 -.45)"/></g></defs></svg>