<svg xmlns="http://www.w3.org/2000/svg" xmlns:xlink="http://www.w3.org/1999/xlink" width="84.85" height="82"><g transform="translate(37.4 42.25)"><use xlink:href="#a" width="32.05" height="38" transform="translate(-11.95 -17.45)"/><use xlink:href="#b" width="33.05" height="38.95" transform="translate(-12.45 -17.95)"/><use xlink:href="#c" width="39.65" height="26.75" transform="translate(-15.55 -.2)"/><use xlink:href="#d" width="5.55" height="6.15" transform="translate(7.4 10.9)"/><use xlink:href="#d" width="5.55" height="6.15" transform="matrix(.2087 .9773 -.9773 .2087 19.25 7.1)"/><use xlink:href="#d" width="5.55" height="6.15" transform="matrix(-.5487 -.8338 .8338 -.5487 15.2 21.15)"/><use xlink:href="#d" width="5.55" height="6.15" transform="rotate(133.087 1.286 12.44) scale(.9975)"/><use xlink:href="#d" width="5.55" height="6.15" transform="matrix(.3784 .9214 -.9214 .3784 4.05 11.7)"/><use xlink:href="#d" width="5.55" height="6.15" transform="matrix(-.6342 -.7657 .7657 -.6342 -4.2 23.35)"/><use xlink:href="#d" width="5.55" height="6.15" transform="rotate(-79.513 4.508 16.158) scale(.9922)"/><use xlink:href="#e" width="34.85" height="14.55" transform="translate(-13.3 1.05)"/></g><defs><path id="f" fill="#fff" fill-rule="evenodd" d="M27.35 7.4q2.15 4.15 3.55 8.75 1.45 4.7 1.15 9.5-.35 4.95-4.2 8.1-3.8 3.2-8.75 4.05l-2.6.2q-3.6 0-7.05-1.15-4.65-1.6-7.1-5.5Q-.2 27.4.05 23q.2-4.4 2-9.3Q3.85 8.75 7 5.05 10.1 1.3 14.7.1l1.8-.1q1.9.05 3.7.8 4.75 2.05 7.15 6.6" transform="translate(-.05)"/><path id="g" fill="none" stroke="#010102" stroke-linecap="round" stroke-linejoin="round" d="M27.35 7.4Q24.95 2.85 20.2.8 17.55-.3 14.7.1 10.1 1.3 7 5.05q-3.15 3.7-4.95 8.65-1.8 4.9-2 9.3-.25 4.4 2.3 8.35 2.45 3.9 7.1 5.5 4.65 1.55 9.65.95 4.95-.85 8.75-4.05 3.85-3.15 4.2-8.1.3-4.8-1.15-9.5-1.4-4.6-3.55-8.75Z" transform="translate(.45 .5)"/><path id="h" fill="#020202" fill-rule="evenodd" d="M.85.55q1.6-1.2 3.4.2 1.9 1.5 1.05 4-.6.7-2.05-1.45.9 2.5-.25 2.8-1.1.35-2.35-1.85Q-.7 2 .85.55"/><use xlink:href="#f" id="a" width="32.05" height="38"/><use xlink:href="#g" id="b" width="33.05" height="38.95"/><use xlink:href="#h" id="d" width="5.55" height="6.15"/><g id="c" fill-rule="evenodd"><path fill="#351904" d="m38.9 18.3.75.9-2.95-.1-.8.5-.45 3-2-.8-1.3.25-.85 2.3-.35 1.25-.85-.85-.8-.7h-.25l-1.15 1.2q-2.2-1.95-4.95-.75-1.6.6-2.1 2.25l-1.4-1.55-.9-.75-3.1 1.8Q14.8 25 13.4 24.7q-1.8-.5-3.05.8L9 23.7l-.45-.45-1.3.1q-1.1-1.4-2.75-1.65-1.05-.35-1.9.6 0-.65-.15-1.2l-.6-1.75L0 18.8q3.4-3.55 3.15-8.4l-.1-1.2q7.1 4.2 15.25 2.55 6.5-1.3 11.85-5.1Q33.95 4 36.35 0L36 10.65q.05 4.4 2.9 7.65m-19.25 5.15 1 .8q3.15-2.6 6.7-.75l.35-.45.35-.35 1.05-.35.95.4q1.05-2.05 3.3-2.4l.8.05.8-1.6q.65-1.05 1.7-1.15-3.6-6.1-1.8-13.6l.3-1.35q-6.6 8.5-17.4 10.35-6.65.95-12.95-1.6l-.35 2.9q-.5 1.55-1.6 2.65l-.7.75 1.35.8.1.25.15 1.35q2.65-.6 3.8 1.8 1.25-.2 2.15.65l.95.9q1.55-.8 3.3-.25 1.1.3 1.65 1.2 1.8-1.15 4.05-1"/><path fill="#fe9f34" d="M4.45 14.35q5 .55 9 3.45l1.2-.95q4.95-3.6 10.65-.95l.9-.95q1.45-1.5 3.1-2.5-.25 2.2-1.4 3.85-3.2 4.55-8.25 7.15-2.25-.15-4.05 1-.55-.9-1.65-1.2-1.75-.55-3.3.25l-.95-.9q-.9-.85-2.15-.65-1.15-2.4-3.8-1.8L3.6 18.8l-.1-.25-1.35-.8.7-.75q1.1-1.1 1.6-2.65"/><path fill="#b55b10" d="m4.45 14.35.35-2.9q6.3 2.55 12.95 1.6 10.8-1.85 17.4-10.35l-.3 1.35q-1.8 7.5 1.8 13.6-1.05.1-1.7 1.15l-.8 1.6-.8-.05q-2.25.35-3.3 2.4l-.95-.4-1.05.35-.35.35-.35.45q-3.55-1.85-6.7.75l-1-.8q5.05-2.6 8.25-7.15 1.15-1.65 1.4-3.85-1.65 1-3.1 2.5l-.9.95q-5.7-2.65-10.65.95l-1.2.95q-4-2.9-9-3.45"/></g><g id="e" fill-rule="evenodd"><path fill="#3f1d03" d="m33.75.3.35.65q.9 1.65.75 2.1l-.35.4Q31 5.5 30 8.45q-.15.4-.6.3-2.1-.5-4.4.9-1.65 1-2 2.5l-.25.3h-.45q-2.1-1-5.6-.45-3.65.55-5.15 2.35-.15.25-.5.15-2.45-.85-5.95-1.35-3.45-.45-3.85 0-.2.85-.7.6-.6 0-.55-1.1.3-3.25 4.7-3.2h.05Q15.3 11.05 25.1 5.8q3.05-1.6 5.7-3.75L32.85.2Q33 0 33.3 0q.3 0 .45.3"/><path fill="#fedfb3" d="M30.95 4.4q-1.45 1.3-1.9 3.2-1.5-.35-3.35.35-2.45.9-3.6 3.3-2.1-1-5.55-.45-3.8.55-6 2.65-5.2-2.35-8.5-1.5H.8V10.2h.5q12.6 2 22.4-2.3 5.55-2.45 8.9-6.15 1.85 1.3.7 1.45-1.1.05-2.35 1.2"/><path fill="#ffa748" d="M32.6 1.75q1.85 1.3.7 1.45-1.1.05-2.35 1.2-1.45 1.3-1.9 3.2-1.5-.35-3.35.35-2.45.9-3.6 3.3l-2.3-.55q2.1-1.15 4.15-2.9 5.45-2.45 8.65-6.05"/></g></defs></svg>