<svg xmlns="http://www.w3.org/2000/svg" xmlns:xlink="http://www.w3.org/1999/xlink" width="84.85" height="82"><g transform="translate(37.4 42.25)"><use xlink:href="#a" width="32.05" height="38" transform="translate(-11.95 -17.45)"/><use xlink:href="#b" width="33.05" height="38.95" transform="translate(-12.45 -17.95)"/><use xlink:href="#c" width="35.8" height="13.15" transform="translate(-14.1 13.2)"/><use xlink:href="#d" width="35.5" height="23.6" transform="translate(-13.65 3.05)"/><use xlink:href="#e" width="17.65" height="14.9" transform="translate(10.9 -2.05)"/><use xlink:href="#e" width="17.65" height="14.9" transform="matrix(-1 0 0 1 -2.15 -2.05)"/></g><defs><use xlink:href="#f" id="a" width="32.05" height="38"/><use xlink:href="#g" id="b" width="33.05" height="38.95"/><use xlink:href="#h" id="c" width="35.8" height="13.15"/><use xlink:href="#i" id="e" width="17.65" height="14.9"/><g id="h" fill-rule="evenodd"><path fill="#440202" d="m18 11.75-.2.4h1.3q1.2-.15 1.85-.95h2.9q1.7-.25 2.8-1.4l2-.85q1.1 0 1.9-.65.75-.65.75-1.6 1.65-.1 2.75-1.45l.5-.65-1.65-3.55-8.85 1.5-3.2.2L3.15 2l-2.1 3 .4.7 1.1.7.9 1.15 1.1.7h.55L7 9.6l1.85.5 3.6 1.5.2.05 4 .3 1.35-.2m16.4-5.5L32.05 7.4q-4.1 4.8-10.9 4.8-6.45 2.3-12.25-1.1-2.5-.25-4.35-2.05-1.35.15-2.1-1.1L2 7.2Q.45 6.6 0 4.95l2.6-4Q17.9 2.15 33.15 0l2.65 4.2-1.4 2.05"/><path fill="#d80000" d="m20.85 2.75-.4 1.75Q19.5 8.2 18 11.75l-1.35.2-4-.3h1.85q2-1.65 2-4.5l-.05-.95-4 5.4-3.6-1.5q2.2-1.45 2.75-4.15l.1-.5L7 9.6 5.1 8.25h-.55l1.5-1.7Q7 5.45 7.2 4.05l-.75 1q-1.2 1.55-3 2.5l-.9-1.15 1.6-2.65-2.7 1.95-.4-.7 2.1-3 17.7.75m.1 8.45 1-4.25.9 4.25h-1.9m5.7-1.4-.2-3.95 2.2 3.1-2 .85m4.65-3.1-.85-2.5 2.6 1.75 1.5-1.35-.5.65Q32.95 6.6 31.3 6.7"/><path fill="#960000" d="M18 11.75q1.5-3.55 2.45-7.25l.4-1.75 3.2-.2 8.85-1.5 1.65 3.55-1.5 1.35-2.6-1.75.85 2.5q0 .95-.75 1.6-.8.65-1.9.65l-2.2-3.1.2 3.95q-1.1 1.15-2.8 1.4h-1l-.9-4.25-1 4.25q-.65.8-1.85.95h-1.3l.2-.4M1.45 5.7l2.7-1.95-1.6 2.65-1.1-.7m2 1.85q1.8-.95 3-2.5l.75-1q-.2 1.4-1.15 2.5l-1.5 1.7-1.1-.7M7 9.6l4.7-4.15-.1.5q-.55 2.7-2.75 4.15L7 9.6m5.45 2 4-5.4.05.95q0 2.85-2 4.5h-1.85l-.2-.05"/></g><g id="d"><path fill="none" stroke="#333" stroke-linecap="round" stroke-linejoin="round" stroke-width=".95" d="M4.25 8.5v1.1L4 10.8"/><path fill="#351e02" fill-rule="evenodd" d="M20.15 4.1q8.45-.6 13.5-3.95L34.1.1l.3.35q1.7 7-1.6 10.5Q31 13.3 22.65 14.3q-13.7 1.65-19.9-3.4Q.5 9.2.5 3.6q0-1.75.55-2.75.2-.45.65-.2Q10.25 4.8 20.15 4.1"/><path fill="#f8c606" fill-rule="evenodd" d="M20.25 5.05q7.9-.55 13.3-3.7 1.7 5.6-1.5 8.95-2.15 2.8-12.4 3.3-10.95.55-16.1-3.4-1.1-.85-1.7-3.8-.6-3.05.25-4.65 8.7 3.9 18.15 3.3"/><path fill="#f87006" fill-rule="evenodd" d="M17.8 6.85q.3 2.65-2.2 6.75-4.05-.15-7.5-1.2 6.3-.45 9.7-5.55m8.35-2.65q4.4-1 7.4-2.85 1.7 5.6-1.5 8.95-2.25 2.9-12.9 3.35.95-.9 2.5-5.05 1.55 1.75 2.9 1.5 1.8-.3 3-2.25l-3.75.1q1.25-1.25 2.35-3.75m-14.4 5.9q-1.65.75-2.7.35Q7.15 9.8 6.3 7.1q.55 1.2 2.8 1.7 2.45.5 4.8-.45-.6 1.05-2.15 1.75"/><path fill="#020202" fill-rule="evenodd" d="M35.5 7.9q0 1.45-.75 2.2-8.05 5.95-19.95 5.2-10.45-.65-13.75-4.55-.75-.85-1-2.1-.2-1.2.2-1.2Q8.75 13.9 21 12.5q11.05-1.3 14.05-6.4.4.55.45 1.8"/><path fill="#351e02" fill-rule="evenodd" d="m33.7.2.25-.15q.65-.15 1.15.5.8 1.3 0 1.95-17.05 7.65-34.65.2-.9-.65 0-2 .4-.45.95-.35l.05.05Q18.2 6.55 33.7.2"/><path fill="#f8f9a8" fill-rule="evenodd" d="M18.75 5.55q-8.6.2-17.4-3.3-.25-.2-.15-.6.1-.4.45-.3Q10.4 4.6 19.4 4.25l-.65 1.3"/><path fill="#cf7838" fill-rule="evenodd" d="m19.4 4.25 3-.2 2.15-.3q3.8-.6 7-1.7 2.5-.9 2.7-1.2.3-.05.5.25.25.35.05.7-6.75 3-13.65 3.65l-1.85.1h-.55l.65-1.3"/><path fill="#fff" fill-rule="evenodd" d="M19.55 8.15Q19.1 6.7 19.2 6.2l3.35-.1.6-.15.4.05-4 2.15m-8.5.05q.55-2 1.35-2.15l3.75.3q-3.9 1.85-5.1 1.85"/><path fill="#351e02" fill-rule="evenodd" d="M21.65 12.5q-3.1-4.8-7-1.15l-.95 1.05q-.05.9.35 1.9l.3.6 1.05 1.15 1.1.45q4.4.75 5.15-4m-7.2 4.95-.8 4.05q1.65.9 3.6 1.15 2.1.1 4-1 .3-1.8-.3-3.6l-.4-1.2q-2 1.5-4.45.5l-1.55-.75-.1.85M17.3 9.5q7.35.05 4.15 6.6.95 2.9.95 5.9-4.9 3.1-9.7.1.5-3.15.65-6.3l.05-2.55q-.1-3.8 3.9-3.75m8.15 5.35.65.35 1 .35 1.6-.5.25-.55q.35-.8 0-1.7l-.5-1.15-2.9-.05q5.35-2.1 4.15 3.75l1.05 4.9q-3.4 1.75-6.65.25l.55-4.8q-.75-1-.55-2.25.25-1.25 1.2-1.7l-.55 1.7.7 1.4m3.6 1.65-.1-.45-.4-.3-2.95.45-.65 3.6 2.05.45q1.15.45 2.25-.35l.45-.25-.65-3.15m-18.7-4.2-.1-.25-.35-.6h-.1l-.1-.05-.15.05-3-.1-.55 1.8.05.25.15 1 .4.15.6.15q3.3 1.2 3.15-2.4m-5.5 1.35q0-2.6 2.45-2.7 5.6-.55 3.3 4.45l.65 4.55q-3.4 2.1-6.75 0 .4-3.15.35-6.3M6.2 16.3l-.7 3.05 2.7.65 2.05-.55-.65-3.5-.8.25-.65-.05-1.85-.6-.1.75"/><path fill="#f8c606" fill-rule="evenodd" d="m13.8 21.35.45.15.35.2 1.45.5-1.65-4-.6 3.15m7.45.3q-1.9 1.1-4 1-1.95-.25-3.6-1.15l.8-4.05q1.05.85 2.75 1.05l.95-.05-.95 3.85 3.35-.45.7-.2M28.6 19l-.65 1 1.05-.2.3-.3-.2-2.15q.05.9-.5 1.65M27 20.25l-.5-3.4h1.45l1.1-.35.65 3.15-.45.25q-1.1.8-2.25.35m-20.85-3.4-.3 2.2 1.45.65-.85-1.8-.3-1.05M8.2 20l-2.7-.65.7-3.05 2.5.3-.5 3.4"/><path fill="#f87006" fill-rule="evenodd" d="m21.25 21.65-.7.2-3.35.45.95-3.85-.95.05q-1.7-.2-2.75-1.05l.1-.85 1.55.75q2.45 1 4.45-.5l.4 1.2q.6 1.8.3 3.6m5.75-1.4-2.05-.45.65-3.6 2.95-.45.4.3.1.45-1.1.35H26.5l.5 3.4M6.2 16.3l.1-.75 1.85.6.65.05.8-.25.65 3.5L8.2 20l.5-3.4-2.5-.3"/><path fill="#f8f9a8" fill-rule="evenodd" d="m21.65 12.5-1.1.75Q18.1 15 15.4 16.05l-1.05-1.15 1.1-.45q2.25-.85 3.85-2.65l-1.4.45-4.2.15.95-1.05q3.9-3.65 7 1.15m7.3.3q.35.9 0 1.7l-.25.55-1.6.5-1-.35-.65-.35q1.6-.45 3-1.55l.5-.5m-4.2.65.55-1.7.1-.1.15-.05 2.9.05q-1.15 1.3-2.75 1.65l-.95.15m-18.7-.05.55 1.15q1.9-.2 3.15-1.55l.6-.7q.15 3.6-3.15 2.4l-.6-.15-.4-.15-.15-1m4.2-1.35-.45-.6h.1l.35.6m-.7-.6Q8.3 12.6 6.8 13.05l-.8.1.55-1.8 3 .1"/><path fill="#cf7838" fill-rule="evenodd" d="M15.4 16.05q2.7-1.05 5.15-2.8l1.1-.75q-.75 4.75-5.15 4l-1.1-.45m-1.7-3.65 4.2-.15 1.4-.45q-1.6 1.8-3.85 2.65l-1.1.45-.3-.6q-.4-1-.35-1.9m11.75 2.45-.7-1.4.95-.15q1.6-.35 2.75-1.65l.5 1.15-.5.5q-1.4 1.1-3 1.55m-15.1-2.55-.6.7Q8.5 14.35 6.6 14.55l-.55-1.15-.05-.25.8-.1q1.5-.45 2.75-1.6l.15-.05.1.05.45.6.1.25"/><path fill="#fff" fill-rule="evenodd" d="m13.8 21.35.6-3.15 1.65 4-1.45-.5-.35-.2-.45-.15M28.6 19q.55-.75.5-1.65l.2 2.15-.3.3-1.05.2.65-1M6.15 16.85l.3 1.05.85 1.8-1.45-.65.3-2.2"/></g><g id="i" fill-rule="evenodd"><path fill="#351e02" d="M17 .05q.55-.2.65.35l-3.3 6.05.35.9-6.3 3.7-1.8 3.6-4.45.25L0 10.55 1.95 6l2.5-.2Q6.05 1.7 9.8 0q1.4.7 1.35 2.45L17 .05m-2.2 4 1.8-3.1-4.7 2.3 1.05 1.25.95 1.1.9-1.55M13.45 6.8q-.6-1.55-2-2.7l-.8-.75-3.05 2.6-.7.75 1.6 3.45 5.15-2.9-.2-.45m-5.5-2.6 2.35-1.8-.25-1.2L9.7.95Q9.3 1 9 1.2q-1.7.75-2.45 2.4L5.4 5.75h.9L7.95 4.2m-.45 5.9L5.9 6.55l-3.65.2-1 2.5-.5 1.25.6 1.3.4.85.65 1.45 3.95-.25L7.5 10.1"/><path fill="#f8f9a8" d="M12.95 4.5 11.9 3.25l4.7-2.3-1.8 3.1.85-1.55q-1.5.8-3.05 1.55l.35.45M7.6 5.95l3.05-2.6.8.75q1.4 1.15 2 2.7l-4.05.6-1.8-1.45M6.55 3.6Q7.3 1.95 9 1.2q.3-.2.7-.25l.35.25.25 1.2-2.35 1.8-1.4-.6m-5.3 5.65 1-2.5 3.65-.2 1.6 3.55-.25-.5-1.2.95Q4 12 1.75 12.65l-.4-.85 3-3.3-3.1.75"/><path fill="#cf7838" d="m14.8 4.05-.9 1.55-.95-1.1-.35-.45q1.55-.75 3.05-1.55l-.85 1.55m-7.2 1.9L9.4 7.4l4.05-.6.2.45-5.15 2.9L6.9 6.7l.7-.75m.35-1.75L6.3 5.75h-.9L6.55 3.6l1.4.6m-.45 5.9-1.15 3.75-3.95.25-.65-1.45Q4 12 6.05 10.55l1.2-.95.25.5m-6.15 1.7-.6-1.3.5-1.25 3.1-.75-3 3.3"/></g><path id="f" fill="#fff" fill-rule="evenodd" d="M27.35 7.4q2.15 4.15 3.55 8.75 1.45 4.7 1.15 9.5-.35 4.95-4.2 8.1-3.8 3.2-8.75 4.05l-2.6.2q-3.6 0-7.05-1.15-4.65-1.6-7.1-5.5Q-.2 27.4.05 23q.2-4.4 2-9.3Q3.85 8.75 7 5.05 10.1 1.3 14.7.1l1.8-.1q1.9.05 3.7.8 4.75 2.05 7.15 6.6" transform="translate(-.05)"/><path id="g" fill="none" stroke="#333" stroke-linecap="round" stroke-linejoin="round" d="M27.35 7.4Q24.95 2.85 20.2.8 17.55-.3 14.7.1 10.1 1.3 7 5.05q-3.15 3.7-4.95 8.65-1.8 4.9-2 9.3-.25 4.4 2.3 8.35 2.45 3.9 7.1 5.5 4.65 1.55 9.65.95 4.95-.85 8.75-4.05 3.85-3.15 4.2-8.1.3-4.8-1.15-9.5-1.4-4.6-3.55-8.75Z" transform="translate(.45 .5)"/></defs></svg>