<svg xmlns:xlink="http://www.w3.org/1999/xlink" height="82" width="84.85" xmlns="http://www.w3.org/2000/svg"><g transform="translate(37.4 42.25)"><use height="38" transform="translate(-11.95 -17.45)" width="32.05" xlink:href="#a"/><use height="38.95" transform="translate(-12.45 -17.95)" width="33.05" xlink:href="#b"/><use height="22.1" transform="translate(-16 1.9)" width="39.95" xlink:href="#c"/></g><defs><path d="M27.35 7.4q2.15 4.15 3.55 8.75 1.45 4.7 1.15 9.5-.35 4.95-4.2 8.1-3.8 3.2-8.75 4.05l-2.6.2q-3.6 0-7.05-1.15-4.65-1.6-7.1-5.5Q-.2 27.4.05 23q.2-4.4 2-9.3Q3.85 8.75 7 5.05 10.1 1.3 14.7.1l1.8-.1q1.9.05 3.7.8 4.75 2.05 7.15 6.6" fill="#795144" fill-rule="evenodd" transform="translate(-.05)" id="d"/><path d="M27.35 7.4Q24.95 2.85 20.2.8 17.55-.3 14.7.1 10.1 1.3 7 5.05q-3.15 3.7-4.95 8.65-1.8 4.9-2 9.3-.25 4.4 2.3 8.35 2.45 3.9 7.1 5.5 4.65 1.55 9.65.95 4.95-.85 8.75-4.05 3.85-3.15 4.2-8.1.3-4.8-1.15-9.5-1.4-4.6-3.55-8.75Z" fill="none" stroke="#000" stroke-linecap="round" stroke-linejoin="round" transform="translate(.45 .5)" id="e"/><use height="38" width="32.05" xlink:href="#d" id="a"/><use height="38.95" width="33.05" xlink:href="#e" id="b"/><g id="c" fill-rule="evenodd"><path d="m22.05 3.5 1.9 2.05-3.55 2.2q-.25 6.05-1.6 11.9l-2.45 1.55Q2.4 27.45-11 19.65l-1.6-11.9L-16 5.4l.05-.1.75-.95q1.7-1.65 3.85-2.45l.1.1 3 4.25Q-6.2 7.3-3.9 7.7l8.5 1.2q9.9.9 14.55-7 1.65.3 2.9 1.6M-5.9 21.05q9.3 3.15 18.8.35 2.6-.9 4.75-2.45Q19 13.15 19.1 7.1L22 5.25l-1.4-1-1.1-.85-1.85 2.75L16.2 7.6l-.8.4-2.05.65-.9.2-3.1.55-13.9-.65-.85-.2-1.75-.6-.35-.15-1.85-1.5-1.55-1.95-.7-1.1-3 1.95 2.95 1.9.55 6.55.3 2.05.6 3.15 2.8 1.6.6.25.9.35" fill="#1a171b" transform="translate(16 -1.9)"/><path d="m-10.8 15.7-.3-2.05 1.85-1.45-2.4-5.1-2.95-1.9 3-1.95.7 1.1 1.55 1.95 1.85 1.5-.45-.1v8.9l-2.85-.9m3.65-7.75 1.75.6.1 8.6v.05l-1.75-.4-.1-8.85m2.6.8 13.9.65 3.1-.55.1 2.2-9.4 1.1q.5.5 1.1.85 2 1.1 2.65 3.1l-.5.3q-5.2 1.95-10.75.9l-.2-8.55m17.9-.1L15.4 8l.05 2-1.95.85-.15-2.2M16.2 7.6l1.45-1.45-.7 1.15-.6 1.95-.15-1.65m-4.25 11.35q-5 1.8-10.25 1.45l-.15-.05q1.5-1.25 5.55-1 2.6-.45 5.15-1.8l-.3 1.4m1-.45.35-1.55q.95-1.15 1-2.85l.1-.45 1.1-.55-.6 4.25-1.95 1.15" fill="#ff0" transform="translate(16 -1.9)"/><path d="M20.6 4.25Q16.85 7 17.65 12.1q.5 3.35-1.95 5.6l.35-1.4.4-4.9-.1-1.9v-.25l.6-1.95.7-1.15L19.5 3.4l1.1.85m-6 14.25-1.95 1.1.3-1.1 1.95-1.15-.1.4-.2.75m-3 1.55Q5.8 22.1-.1 21.45l-3.25-.4-1-3.75q5.55 1.05 10.75-.9l.5-.3q-.65-2-2.65-3.1-.6-.35-1.1-.85l9.4-1.1.1 1.65-.4 4.85Q9.7 18.9 7.1 19.35q-4.05-.25-5.55 1l.15.05q5.25.35 10.25-1.45l-.25.8-.1.3m-15.85.9-1.8-.3-1-3.85 1.75.4 1.05 3.75m-3.15-.5-2.8-1.6-.6-3.15 2.85.9.15.9.9 3.05-.5-.1m-3.7-6.8-.55-6.55 2.4 5.1-1.85 1.45m24.6-2.75v-.05l1.95-.85.05 2.2v.9l-1.1.55-.1.45q-.05 1.7-1 2.85l.2-6.05" fill="gold" transform="translate(16 -1.9)"/><path d="m20.6 4.25 1.4 1-2.9 1.85q-.1 6.05-1.45 11.85-2.15 1.55-4.75 2.45-9.5 2.8-18.8-.35l-.15-.4 1.8.3.25.55.9.15-.05-.15-.2-.45 3.25.4q5.9.65 11.7-1.4l-.55 1.5.85-.1.75-1.85 1.95-1.1-.85 2.4.75-.3.2-.1.4-.5q.8-1 .6-2.3 2.45-2.25 1.95-5.6-.8-5.1 2.95-7.85M-6.8 20.7l-.6-.25.5.1.1.15" fill="#ff9500" transform="translate(16 -1.9)"/><path d="m13.75 20.9.85-2.4.2-.75-.15.8-.85 2.3-.05.05m-16.9.6.05.15-.9-.15.85.1v-.1M-7.5 7.8l.35.15.1 8.85-.9-.2V7.7l.45.1m2.1.75.85.2.2 8.55-.95-.15-.1-8.6m17.85.3.9-.2.15 2.2v.05l-.9.25.05 1.55-.1-1.65-.1-2.2M15.4 8l.8-.4.15 1.65v.25l-.85.65v2.05l-.05-2.2-.05-2" fill="#14fe04" transform="translate(16 -1.9)"/><path d="M15.7 17.7q.2 1.3-.6 2.3l-.4.5.95-2.7-1 .75.15-.8.1-.4.6-4.25v-2.95l.85-.65.1 1.9-.4 4.9-.35 1.4m-1.2 2.9-.75.3.05-.05.7-.25m-1.85-1-.75 1.85.75-2.15-.95.45.25-.8.3-1.4.4-4.85-.05-1.55.9-.25-.2 6.05-.35 1.55-.3 1.1m-16 1.45.2.45v.1l-.85-.1-.25-.55-1.05-3.75v-.05l.95.15 1 3.75m-2.7-.4.15.4-.9-.35-.1-.15-.9-3.05-.15-.9.9.2 1 3.85" fill="#00d904" transform="translate(16 -1.9)"/><path d="m14.7 20.5-.2.1-.7.25.85-2.3 1-.75-.95 2.7m-2.8.95-.85.1.55-1.5.1-.3.95-.45-.75 2.15" fill="#00c004" transform="translate(16 -1.9)"/></g></defs></svg>