<svg xmlns="http://www.w3.org/2000/svg" xmlns:xlink="http://www.w3.org/1999/xlink" width="84.85" height="82"><g transform="translate(37.4 42.25)"><use xlink:href="#a" width="32.05" height="38" transform="translate(-11.95 -17.45)"/><use xlink:href="#b" width="33.05" height="38.95" transform="translate(-12.45 -17.95)"/><use xlink:href="#c" width="47.15" height="24.65" transform="translate(-19.4 2.85)"/></g><defs><path id="d" fill="#bc8f88" fill-rule="evenodd" d="M27.35 7.4q2.15 4.15 3.55 8.75 1.45 4.7 1.15 9.5-.35 4.95-4.2 8.1-3.8 3.2-8.75 4.05l-2.6.2q-3.6 0-7.05-1.15-4.65-1.6-7.1-5.5Q-.2 27.4.05 23q.2-4.4 2-9.3Q3.85 8.75 7 5.05 10.1 1.3 14.7.1l1.8-.1q1.9.05 3.7.8 4.75 2.05 7.15 6.6" transform="translate(-.05)"/><path id="e" fill="none" stroke="#803333" stroke-linecap="round" stroke-linejoin="round" d="M27.35 7.4Q24.95 2.85 20.2.8 17.55-.3 14.7.1 10.1 1.3 7 5.05q-3.15 3.7-4.95 8.65-1.8 4.9-2 9.3-.25 4.4 2.3 8.35 2.45 3.9 7.1 5.5 4.65 1.55 9.65.95 4.95-.85 8.75-4.05 3.85-3.15 4.2-8.1.3-4.8-1.15-9.5-1.4-4.6-3.55-8.75Z" transform="translate(.45 .5)"/><use xlink:href="#d" id="a" width="32.05" height="38"/><use xlink:href="#e" id="b" width="33.05" height="38.95"/><g id="c" fill-rule="evenodd"><path fill="#1d1d24" d="m40.85 2.15-.4 8.55q3.45 1.75 6 4.7 1.35 1.5.05 3l-.8.55q-1.45.6-2.9.6-4.1-.05-7.1 2.45l-2.15 1.75q-1.1.8-2.5.8-2.25.05-4.35-.95l-7.3.2q-1.75.9-3.45.85-2.25-.45-4.1-2l-2.95-1.9q-.9-.55-1.9-.7l-2.8-.55-2.85-.45q-1.45-.5-1.35-2 .1-1.65 1.45-2.65l5.1-3.7q-.2-4.65.05-9.25.05-.6.6-.95L8.4.35q.75 0 1.3.55l1.5 2.05.75 1.6q3.4 2.55 7.65 2.65l3.8.25 2-.35q3.35.55 6.55-.6l2-1.2 1.35-1.5 1.05-2Q37.05.35 38.5.05L39.6 0q.8.25 1.05.9l.2 1.25m-2.2 9.75.9-.85.5-8.55-.05-.45q-.2-.8-1.05-1.1l-1.2.25-2.1 4.15-.1.15-.05.05-.25.55q-.95 2-2.6 3.55Q31.2 11 29.3 11.4l-3.65.75-1.15.1-3.85-.15-1.65-.3q-4.1-.75-6.3-4.25-1.45-2.25-2.5-4.85-.3-.7-.75-1.25L8.75.9l-1.1.1-.8 1.4.45 8.35q2.65 2.7 6.25 3.8 2.15.8 4.35.8-6.45.15-11.4-3.85l-.6.45-3.8 2.6-1.25 1.7-.1.55-.05.15q.3 1.45 1.85 1.6l1.95.2q3.55.15 6.2 2.1 2.05 1.5 4.4 2.5l1.25.25 1.85-.3 3.3-1.2 1.9-.3 1.8.3h.1l2.7 1q1.35.6 2.7.5 1.35.05 2.3-.7 2.75-2.15 6-3.3l3.3-.85h.25l.25-.05 1.1-.1.25-.05.4-.15.4-.15.35-.15h.05l.05-.05.45-.35.3-.75-.1-.7-1.3-1.7-4.3-2.95-.9.9q-2.4 1.95-5.5 2.4l-1.1.15-3.9.3 3.8-.6q2.45-.45 4.55-1.95l1.25-.9m-12.7-3.55L27 9.45h.2l1.4 1.15.85.55q2.15-.85 3.65-2.35L34.85 6l-2.25.75-4.35.8-2.3.3q-.35.05 0 .5m-5.65 1.1h.05l.25-.25.8-.85q.3-.3.05-.5l-2.4.15q-3.8-.3-6.85-2.3l.05.05L13.9 8.6l.1.1.1.1q1.65 1.6 3.7 2.4l1.1-.65.15-.1 1.25-1m2.35-1h-.1l1.55.2q.55.05.65-.5L24.6 8h-.35l-1.75-.15q-.35.2.15.6m-.5.3q-.85 1.45-2.25 2.2l-.85.55q4.4 1.2 9.05-.05l-3.15-2.5H23.5l-1.35-.2"/><path fill="#f7ef00" d="m2.1 14.55.05.85q1.4 1.1 3.5.85l-1.1.8-.55.45q-1.5-.05-2.65-.85l-.5-.35v-.05l1.25-1.7m6.9 2.4q.85.35 1.65.85l3.1 1.95q.95.6 2.1.9 1.1.45 2.25 0l.25-.15-1.2 1.75q-1.8.25-3.3-.7l-3.9-2.6-.05-.1-1-1.95.1.05m18.35 3.15q2 1.35 4.2.35l2.3-1.25.1-.05-.25 2-.75.45-5.2.15-.4-1.65m16.5-4.05.7-.25.3-.7-.05-.45-.05-.1 1.3 1.7-.05.05-1.25.85v-.05l-.9-1.05M27.2 9.45l4.85-.35-.3.4q-1.25 1.4-3.15 1.1l-1.4-1.15m-6.9 0-1.25 1-.15.1h-.75q-1.7 0-2.8-1.45l4.95.35m-6.2-.65-.1-.1.85.25-.75-.15m7.3-.45-.8.85.75-.85h.05"/><path fill="#c51e1b" d="m35.65 5.35-.05.15h-.05l.1-.15m9.1 11.8L46 16.3l.15.65-.3.75-.45.35-.65-.9m-2.45 1.6-3.3.85q-3.25 1.15-6 3.3-.95.75-2.3.7-1.35.1-2.7-.5l-.3-1.35h.05l5.2-.15.75-.45-.3 1.35q3.15-2.7 7.1-3.6l1.8-.15M16.35 23.6l-1.25-.25q-2.35-1-4.4-2.5-2.65-1.95-6.2-2.1l-1.95-.2Q1 18.4.7 16.95l.05-.15.1-.5.5.35q1.15.8 2.65.85l-1.1 1.05 1.6.15q3.25 0 5.85 1.75l-.4-1.5 3.9 2.6q1.5.95 3.3.7l-.05.1h.1l-.85 1.25m28.6-5.35.4-.15h-.05l-.35.15m-19-9.9q2.55.4 5.05-.55l1.9-.75-.1 1.05-.55.85h.2l-.4.15-4.85.35H27l-1.05-1.1m-5.35.85-.25.25h-.05l-4.95-.35-.5-.15L14 8.7l-.1-.1 1.4.4-.8-1.95 1.95.7q2.4 1 4.9.6l-.75.85m2.05-.75 1.6-.45h.35l.15.15q-.1.55-.65.5l-1.55-.2h.1"/><path fill="#ff9500" d="m32.05 9.1.4-.15.65-.15q-1.5 1.5-3.65 2.35l-.85-.55q1.9.3 3.15-1.1l.3-.4M18.9 10.55l-1.1.65q-2.05-.8-3.7-2.4l.75.15.5.15q1.1 1.45 2.8 1.45h.75"/><path fill="#7c1e1b" d="m35.6 5.5-.35.6.25-.55.1-.05m-3.15 3.45h-.2l.55-.85.1-1.05L34.85 6 33.1 8.8l-.65.15M13.9 8.6l-1.65-2.85 2.25 1.3.8 1.95-1.4-.4"/><path fill="#ff4221" d="M32.9 7.05 31 7.8q-2.5.95-5.05.55-.35-.45 0-.5l2.3-.3 4.35-.8L34.85 6 32.9 7.05m2.65-1.55h.05l-.1.05.05-.05m-23.3.25-.05-.05q3.05 2 6.85 2.3l2.4-.15q.25.2-.05.5h-.05q-2.5.4-4.9-.6l-1.95-.7-2.25-1.3m12 2.25-1.6.45q-.5-.4-.15-.6l1.75.15"/><path fill="#57d900" d="m35.65 5.35 2.1-4.15 1.2-.25q.85.3 1.05 1.1l.05.45-.5 8.55-.9.85-.5-.3.2-8.25-2 4.9q-.6 1.5-1.6 2.85l-2.05 2.45.15 1.2-3.8.6 3.9-.3.45.9q.95 1.5.45 3.25l-2.3 1.25q-2.2 1-4.2-.35l-.65-1.7-1.05-1.75q-1.1-1.45-2.7-.8l-1.45 1q-2 1.6-3.4 3.8-1.15.45-2.25 0-1.15-.3-2.1-.9l-3.1-1.95q-.8-.5-1.65-.85-.8-1.35-2.45-1.05l-.75.3-.15.05q-2.1.25-3.5-.85l-.05-.85 3.8-2.6.6-.45q4.95 4 11.4 3.85-2.2 0-4.35-.8-3.6-1.1-6.25-3.8L6.85 2.4l.8-1.4 1.1-.1.7.55q.45.55.75 1.25 1.05 2.6 2.5 4.85 2.2 3.5 6.3 4.25l1.65.3-2.9-.25q1.15.4 1.95 1.25l1 1.1.6.7 1.3-.25q1.25-1.05 2.95-1.35 3.45-.4 6.3-2.2l1.8-1.4Q35.9 7.65 37 4.85l1.5-3.7-1.9 3.05q-.8 1.9-2.05 3.6-1.05 1.5-2.5 2.5-3.1 2.05-6.95 1.95h-.6l1.15-.1 3.65-.75q1.9-.4 3.35-1.75 1.65-1.55 2.6-3.55l.35-.6.05-.15M5.9 11.95 3.45 13.7q-.65.5-.65 1.15l5.45-.2q-.55-.65-1.8-.45-1.05.05-1.4-.8l.85-1.45m38.85 2.6.05.1.05.45-.3.7-.7.25-4.3-3.55.9-.9 4.3 2.95M46 16.3l.05-.05.1.7-.15-.65m-45.25.5.1-.55v.05l-.1.5m29.6-.35-.8.6q-.95.9-1.25 2.3l2.3.75q.3-.6.2-1.4l-.45-2.25M12.9 17.7l.05.1 3.3 2.25q1.35-.55 2.1-1.95l1.05-1.7q-2.9-.35-5.65.7l-.85.6"/><path fill="#00c500" d="m5.8 16.2.75-.3Q8.2 15.6 9 16.95l-.1-.05-.1-.15q-1.35-.6-3-.55m12.3 4.45q1.4-2.2 3.4-3.8l1.45-1q1.6-.65 2.7.8l1.05 1.75.65 1.7-7.15-.25-.5.15-1.35.5-.25.15m15.75-1.45q.5-1.75-.45-3.25l-.45-.9 1.1-.15q3.1-.45 5.5-2.4l4.3 3.55-4.2.4-3.7 1.35-2 1.35-.1.05m-1-4.45-.15-1.2 2.05-2.45q1-1.35 1.6-2.85l2-4.9-.2 8.25.5.3-1.25.9q-2.1 1.5-4.55 1.95"/><path fill="#f7b800" d="m5.65 16.25.15-.05q1.65-.05 3 .55l.1.15 1 1.95-2-.7-3.8-.7.45-.4 1.1-.8m38.2-.2.9 1.05-2.45.45q-3.4-.05-6.3 1.95l-2.3 1.65.25-2 2-1.35 3.7-1.35 4.2-.4m-16.1 5.7h-.05q-2.5-1.25-5.2-1l-1.95.55-3.35 1.05h-.1l.05-.1 1.2-1.75 1.35-.5.5-.15 7.15.25.4 1.65"/><path fill="#881e1b" d="M44.75 17.1v.05l.65.9-.05.05-.4.15-.4.15-.4.15-.25.05-1.1.1-.25.05h-.25l-1.8.15q-3.95.9-7.1 3.6l.3-1.35L36 19.5q2.9-2 6.3-1.95l2.45-.45M28 23.1l-2.7-1h-.1l-1.8-.3-1.9.3-3.3 1.2-1.85.3.85-1.25 3.35-1.05 1.95-.55q2.7-.25 5.2 1l.3 1.35m17.4-5.05-.05.05.05-.05m-35.45.9.4 1.5Q7.75 18.7 4.5 18.7l-1.6-.15L4 17.5l.55-.45-.45.4 3.8.7 2 .7.05.1"/><path fill="#8cfc42" d="M24.5 12.25h.6q3.85.1 6.95-1.95 1.45-1 2.5-2.5 1.25-1.7 2.05-3.6l1.9-3.05-1.5 3.7q-1.1 2.8-3.35 4.85l-1.8 1.4q-2.85 1.8-6.3 2.2-1.7.3-2.95 1.35l-1.3.25-.6-.7-1-1.1q-.8-.85-1.95-1.25l2.9.25 3.85.15m-18.6-.3-.85 1.45q.35.85 1.4.8 1.25-.2 1.8.45l-5.45.2q0-.65.65-1.15l2.45-1.75m24.45 4.5.45 2.25q.1.8-.2 1.4l-2.3-.75q.3-1.4 1.25-2.3l.8-.6M12.9 17.7l.85-.6q2.75-1.05 5.65-.7l-1.05 1.7q-.75 1.4-2.1 1.95l-3.3-2.25-.05-.1"/></g></defs></svg>