<svg xmlns="http://www.w3.org/2000/svg" xmlns:xlink="http://www.w3.org/1999/xlink" width="84.85" height="82"><g transform="translate(37.4 42.25)"><use xlink:href="#a" width="32.05" height="38" transform="translate(-11.95 -17.45)"/><use xlink:href="#b" width="33.05" height="38.95" transform="translate(-12.45 -17.95)"/><use xlink:href="#c" width="35.85" height="23.5" transform="translate(-14 2.2)"/><use xlink:href="#d" width="11.05" height="11.25" transform="translate(5.9 6.4)"/><use xlink:href="#d" width="11.05" height="11.25" transform="matrix(-1 0 0 1 2.5 6.45)"/><use xlink:href="#e" width="3.4" height="7.8" transform="translate(2.4 10.85)"/></g><defs><use xlink:href="#f" id="a" width="32.05" height="38"/><use xlink:href="#g" id="b" width="33.05" height="38.95"/><use xlink:href="#h" id="d" width="11.05" height="11.25"/><g id="c" fill-rule="evenodd"><path fill="#03102a" d="m35.85 14.55-.05.2q-.9 2.15-3.7 3-.8 2.25-4.55 2.95-.55.8-2.4 1.45l-3.95.4q-.65.65-2.25.85-3.2.35-4.35-.4-3.6.55-5.7-1.55-2 .1-3.95-1.65l-.35-.4q-1.4-.1-2.2-1.05l-.35-.85q-1.9-.65-2-2.2L0 15.25l.15-.35 2.5-3.6q.25-.4.7-.2 9.95 5.5 20.1 3.45 7.05-1.4 9.25-4.1l.5-.15.35.35q.9 2.45 2.15 3.55l.15.35"/><path fill="#0075d6" d="m21 21.5-.55.6-1.35.35-1.25.05q-1.75.5-3.25-.5l-1.75.1-1.85-.5q-1.1-.25-1.75-1.2l-1-.25-1.55-.35q-1.05-.3-1.55-1.2-1.35.1-2.2-1.1l-.05-.65-.5-.1q-.95-.4-1.3-1.4l2.1-3 1.35.7q4.15 2.25 8.95 3l6.4.3q4.25-.45 8.3-1.9 1.65-.65 3.2-1.8l1.55-1.25q.6 1.75 1.8 3.2l-.55.7-.7.7q-.85.7-2.15 1l-.7.95-1.3 1.15-2.25.65-.95.7-1.8 1q-1.7.7-3.35.05"/><path fill="#243c89" d="m9.5 18.5-.3 1.35-.25.55-1.75-.35 2.45-2.9-.15 1.35m-3.35-2.05q-.1 1-.7 1.65l-.35.5-1.65-.55q1.7-.65 2.7-2.15v.55m-3.4.4-1.15-.7 1.9-1-.75 1.7m11.65 1.3-.2 3.9-1.95-.1 2.15-3.8m3.05 4.35 1.15-6.15 6.45-.65q4.5-1.2 7.9-4.3l.7 1.5 1.1 1.7-1.7 1.75-2.3-1.3.85 1.9-.4.6-.35.5-.45.35-1 .6-3.2-1.95.75 2.95-1.05.8-2.35.75-.7-1.45q-.55-1.2-1.5-1.9l-.45 3.5-1.3.4-2.15.4"/><path fill="#03102a" d="m34.3 8.1-.45 2.3.3.7.1.3-.1.3q-7.2 6.15-18.35 5.5-9.95-.6-14-5l.7-2.35q-.65-.75-1-5.05v-1l-.45-.6-.1-.8L1.4.7q.25-.35.6-.15l8.3 3.6 7.85 3.2q.65-.05 6.25-2.65 4.65-2.3 9.25-4.65L34 0q1.35.45 1.35 2.45l-.05.45-.1.2-.55.4.05 1.95-.1 1.2-.3 1.45"/><path fill="#fff" d="M15.7 16.25q-8.6-.75-13.2-4.3 1.4-3.7 1.65-6.9L1.8 3.4 2 1.45 18.15 8.5q.35.05 6.1-2.7l9.6-4.9q.7.2.5 1.95-.5.5-2.35 1.6.8 6 1.4 6.6-6.85 6.2-17.7 5.2"/></g><g id="h" fill-rule="evenodd"><path fill="#03102a" d="M9.45 3.85q-.9 1.1-2.4 1.05l-.7-.2Q9.2 3.35 7.95.15q-1.2 3.4-4.5 5.05L.15 7l-.1.85-.05-.9 4.65-2.8Q7.15 2.75 7.9 0l.35.25q.55 1.25.25 2.4Q8.1 4.1 7 4.6l1-.15 1.45-.6m-7.6 6.65q2 1 3.75-.3l.6-.5Q4.5 10.85 3 9.2l.5-.55q2.85.65 5.25-1.1l.6-.35Q8.3 9.1 5.5 9.05L3.55 8.9l-.2.5q.95 1.15 2.35.45l.6-.25q-.95 2.35-3.65 1.4l-.8-.5m7.5-3.4-2.3-.05L8.75 7l.8-.35-.2.45m-.95-.75q2.05-1.25 2.4-3.75l.1-1.25-1.1 2.1 1.1-2.25q.75 3.05-2.15 4.95l-.35.2"/><path fill="#d31fff" d="m6.75 3.55.1-.6Q4.8 5.1 1.95 6.85q-.85.55-1 1.45.65 1.7 2.4 1.85l-.9-1.3 4.1-1.05-1.45-.75Q7.25 6.95 8.05 5l-2.8.35.6-.65q.7-.4.9-1.15m-6.7 4.3L.15 7l3.3-1.8q3.3-1.65 4.5-5.05 1.25 3.2-1.6 4.55l.7.2q1.5.05 2.4-1.05l.35-.4 1.1-2.1-.1 1.25q-.35 2.5-2.4 3.75l-.2.15-.2.05-.95.5 2.3.05h.05l-.05.1-.6.35Q6.35 9.3 3.5 8.65L3 9.2q1.5 1.65 3.2.5l-.6.5q-1.75 1.3-3.75.3-1.1-.75-1.6-2l-.2-.65"/><path fill="#8af1ff" d="M6.75 3.55q-.2.75-.9 1.15l-.6.65L8.05 5q-.8 1.95-2.95 2.05l1.45.75-4.1 1.05.9 1.3Q1.6 10 .95 8.3q.15-.9 1-1.45 2.85-1.75 4.9-3.9l-.1.6"/></g><g id="e" fill-rule="evenodd"><path fill="#03102a" d="m.4.55.85.1.15 4.6-.15-.85L.4.55M.65 7.4l2-.1-.15-3.15.8 2.6L2.2 7.8.65 7.4"/><path fill="#d31fff" d="M1.4 5.25 1.25.65.4.55 1.85 0l1.3.9.25 1-.8.15-.55.75.45 1.35.15 3.15-2 .1L0 6.6l1.6.1-.2-1.45M2.9 1 2.4.75l-.95 1.1 1 5.35v-.85q0-2.2-.7-4.45L2.9 1"/><path fill="#8af1ff" d="m2.9 1-1.15.9q.7 2.25.7 4.45v.85l-1-5.35.95-1.1.5.25"/></g><path id="f" fill="#ffc192" fill-rule="evenodd" d="M27.35 7.4q2.15 4.15 3.55 8.75 1.45 4.7 1.15 9.5-.35 4.95-4.2 8.1-3.8 3.2-8.75 4.05l-2.6.2q-3.6 0-7.05-1.15-4.65-1.6-7.1-5.5Q-.2 27.4.05 23q.2-4.4 2-9.3Q3.85 8.75 7 5.05 10.1 1.3 14.7.1l1.8-.1q1.9.05 3.7.8 4.75 2.05 7.15 6.6" transform="translate(-.05)"/><path id="g" fill="none" stroke="#333" stroke-linecap="round" stroke-linejoin="round" d="M27.35 7.4Q24.95 2.85 20.2.8 17.55-.3 14.7.1 10.1 1.3 7 5.05q-3.15 3.7-4.95 8.65-1.8 4.9-2 9.3-.25 4.4 2.3 8.35 2.45 3.9 7.1 5.5 4.65 1.55 9.65.95 4.95-.85 8.75-4.05 3.85-3.15 4.2-8.1.3-4.8-1.15-9.5-1.4-4.6-3.55-8.75Z" transform="translate(.45 .5)"/></defs></svg>