<svg xmlns:xlink="http://www.w3.org/1999/xlink" height="82" width="84.85" xmlns="http://www.w3.org/2000/svg"><g transform="translate(37.4 42.25)"><use height="38" transform="translate(-11.95 -17.45)" width="32.05" xlink:href="#a"/><use height="38.95" transform="translate(-12.45 -17.95)" width="33.05" xlink:href="#b"/><use height="20.85" transform="matrix(-1 0 0 1 -1.7 2.95)" width="16.55" xlink:href="#c"/><use height="20.85" transform="translate(10.65 2.95)" width="16.55" xlink:href="#c"/><use height="22.05" transform="translate(-11.95 -.5)" width="32.45" xlink:href="#d"/><use height="14.15" transform="matrix(-1 0 0 1 3.85 -.5)" width="19.55" xlink:href="#e"/><use height="5.75" transform="translate(-10.3 11.7)" width="29.95" xlink:href="#f"/><use height="14.15" transform="translate(4.75 -.5)" width="19.55" xlink:href="#e"/><use height="7.85" transform="translate(14.45 10.5)" width="7.85" xlink:href="#g"/><use height="7.85" transform="matrix(-1 0 0 1 -5.8 10.5)" width="7.85" xlink:href="#g"/><use height="8.85" transform="translate(-1.3 8.2)" width="11.05" xlink:href="#h"/></g><defs><use height="38" width="32.05" xlink:href="#i" id="a"/><use height="38.95" width="33.05" xlink:href="#j" id="b"/><use height="20.85" width="16.55" xlink:href="#k" id="c"/><use height="14.15" width="19.55" xlink:href="#l" id="e"/><use height="7.85" width="7.85" xlink:href="#m" id="g"/><g id="k" fill-rule="evenodd"><path d="M-2.8 1.65 2.65-9.5l.7-.9.7 1.1q3.3 5.25 4 11.35.65 5.35-3.7 8.4l.3-.8q.85-2.45-1.2-3.6-3.2-1.65-6.8-.4l-4.5.75 1.4-1.3h.6l8.3-.4Q4.5 4.65 5.5 6.5l.3-1q.55-1.95.05-3.8v-.15L5.6.85Q3.45-3.65.05-.6L-2.8 1.65m8.5-5.6L4.2-6.9q2.1 4.35 2.35 9.25v2.9l-.05.3-.1 1.4-.55 1.3Q9.4 2.5 5.7-3.95L3.2-9.1.05-.6 3.2-9.1l2.5 5.15q3.7 6.45.15 12.2l.55-1.3.1-1.4.05-.3v-2.9Q6.3-2.55 4.2-6.9l1.5 2.95m.85 9.2q.05-1.95-.7-3.7.75 1.75.7 3.7" fill="#1e1c26" transform="translate(8.4 10.4)"/><path d="M-5.85 5.1-2 3.85q5.35-2.05 7.5 2.5l.3-.85-.3 1q-1-1.85-3.05-1.8l-8.3.4" fill="#700b4f" transform="translate(8.4 10.4)"/><path d="M-2.8 1.65.05-.6Q3.45-3.65 5.6.85l.25.7v.15q.5 1.85-.05 3.8l-.3.85Q3.35 1.8-2 3.85L-5.85 5.1h-.6l-1.95-.85 5.6-2.6" fill="#4e0d32" transform="translate(8.4 10.4)"/></g><g id="d" fill-rule="evenodd"><path d="M17.5 4.8q-1.1 4.75-.25 5.9 1.45 1.75 3.2-4v.65q-2.75 7.7-4.1 3.5-.6-1.85.85-5.4l.3-.65m-.8 11.85q-1.05 1.05-2.45 1.95-2.2 1.4-4.55 2.15-2.55.8-5.25.8L1.3 21.3l-2.4-.6q-2.3-.75-4.45-2.1l-3.2-2.7.7.35q1.45 1.4 3.55 2.45l3.4 1.35 2.4.5 3.15.25 5.25-.75q1.85-.55 3.7-1.5l2.25-1.35 1.05-.55m-26.5-2.1q-2.15-3.3-2.15-7.85l.4.85q.05 3.4 1.45 6l.3 1m-1.3-6.15q2.65 5.15 3.15 2.2.3-1.85-.75-5.7l.25.6q1.85 3.95 1.15 5.75-1.15 2.9-3.8-2.85M-9 4.25Q-10.65 1.3-10.65-.5l.65 1.75-.3-.35L-9 4.25m2.45 3.85q2.45 3.2 5.45 4.7 1.15.55 2.4.9l3.1.35q2.9 0 5.3-1.1 3.3-1.5 5.75-5.1l-.55 1.5q-1.8 3-5.2 4.25-2.35.85-5.5.85l-2.9-.25-2.4-.7q-3.15-1.3-5.05-4.4l-.4-1" fill="#1e1c26" transform="translate(11.95 .5)"/><path d="m17.5 4.8-.3.65q-1.45 3.55-.85 5.4 1.35 4.2 4.1-3.5l.05-.2q0 2.25-.6 4.15l-.4.25q-5.3 2.65-9.8 3.65l-2.45.45-.55-.2-1.2.05.25-.5h-3.2l-.3.25v.25l-.3.1-.65-.1-2.4-.45-.8-.2q-3.2-1.9-4.4-4.5l-.5 2.85-3.4-1.4-.65-.45.75 2.2q-1.4-2.6-1.45-6v-.1l.45.95q2.65 5.75 3.8 2.85.7-1.8-1.15-5.75l-.25-.6-.3-.65L-10.3.9l.3.35Q-8.6 3.1-6.55 8.1l.4 1q1.9 3.1 5.05 4.4l2.4.7 2.9.25q3.15 0 5.5-.85 3.4-1.25 5.2-4.25l.55-1.5Q17.2 3.1 18.6 1.5l-1.1 3.3m-1.85 12.4-2.25 1.35q-1.85.95-3.7 1.5l-5.25.75-3.15-.25-2.4-.5-3.4-1.35q-2.1-1.05-3.55-2.45l2.3 1.15 4.65 1.35 2.4.3.45.05v.2q0 .55.65.75L6.7 20q.7-.15.7-.75v-.15l2.3-.25q3.4-.5 5.95-1.65" fill="#232330" transform="translate(11.95 .5)"/><path d="m-6.8 13.2.5-2.85q1.2 2.6 4.4 4.5l-3.35-1.05q-.85-.35-1.55-.6" fill="#3d3d4c" transform="translate(11.95 .5)"/><path d="m19.9 11.3.2-.15-.15.7-1.85 3.85-1.4.95-1.05.55q-2.55 1.15-5.95 1.65l-2.3.25v.15q0 .6-.7.75l-4.3.05q-.65-.2-.65-.75v-.2l-.45-.05-2.4-.3-4.65-1.35-2.3-1.15-.7-.35-.55-.3-.15-.05-.35-1-.3-1-.75-2.2.65.45 3.4 1.4q.7.25 1.55.6l3.35 1.05.8.2 2.4.45.65.1.3-.1v3.8l.3.3 4.05-.05.3-.3v-3L6.7 16h-.1l-1.45.05.35-.55 1.2-.05.55.2 2.45-.45q4.5-1 9.8-3.65l.4-.25M7.4 16.05v2.6l2.3-.25q4.7-.75 8.25-3l1.55-3.35q-3.6 1.75-6.9 2.75v-.05L12 15l-2.3.55-2.3.4v.1m-8.5 2.15 2.4.35.45.05v-2.7l-.45-.05-2.4-.5-4.3-1.25-4.9-1.95 1.05 3.1 3.9 1.75 4 1.15.2.05h.05" fill="#700b4f" transform="translate(11.95 .5)"/><path d="M2.25 17.3q1.85 0 2.9-1.25L6.6 16l-1 2.55q-.8.8-3.35.7V17.3m5.15-1.25v-.1l2.3-.4L12 15l-.65.2-.15 2.85.95-.25.45-3q3.3-1 6.9-2.75l-1.55 3.35q-3.55 2.25-8.25 3l-2.3.25v-.1l1.95-.15-.2-2.6-1.75.25m-8.75 2.1-4-1.15-3.9-1.75-1.05-3.1 4.9 1.95 4.3 1.25 2.4.5.45.05v2.7l-.45-.05-2.4-.35h.25l-.25-1.6-.1-1.2-1.5-.3.55 2.8.8.25" fill="#ffff1c" transform="translate(11.95 .5)"/><path d="M6.6 16h.1l.2.25v3l-.3.3-4.05.05-.3-.3v-.05q2.55.1 3.35-.7l1-2.55m.8 2.55v-2.5l1.75-.25.2 2.6-1.95.15" fill="#fb0" transform="translate(11.95 .5)"/><path d="m5.5 15.5-.35.55Q4.1 17.3 2.25 17.3v-2.05l.3-.25h3.2l-.25.5M12 15l.6-.25v.05l-.45 3-.95.25.15-2.85.65-.2m-13.1 3.2h-.05l-.2-.05-.8-.25-.55-2.8 1.5.3.1 1.2.25 1.6h-.25" fill="#ffffa9" transform="translate(11.95 .5)"/></g><g id="l" fill-rule="evenodd"><path d="m9.8-.25-1.9-.6Q5.65.4 3.65 1.75-1.65 5.2-7.85 7.1l-1.9-3.7q3.3-.65 6.45-2.4 4.5-2.45 7.25-6.75l.85-1.3q3.5 2.75 5 6.8M4.95-5.8 2.2-2.35Q-2.05 2.6-8.45 4.15l1.05 2q2.8-.8 5.25-2.2 5.1-2.9 10.35-5.6L4.95-5.8" fill="#1e1c26" transform="translate(9.75 7.05)"/><path d="M4.95-5.8 8.2-1.65q-5.25 2.7-10.35 5.6-2.45 1.4-5.25 2.2l-1.05-2q6.4-1.55 10.65-6.5L4.95-5.8M3.9-2.7l-8 6.2 2.3-.8-.75.9Q.7 2.25 2.9-.05l.2-.3-.35-.5L3.9-2.7" fill="#a40162" transform="translate(9.75 7.05)"/><path d="M3.9-2.7 2.75-.85l.35.5-.2.3Q.7 2.25-2.55 3.6l.75-.9-2.3.8 8-6.2" fill="#e40f63" transform="translate(9.75 7.05)"/></g><g id="m" fill-rule="evenodd"><path d="m3.5-2.95-1.9-.5-4.55 1.85-.2.65-.35.05.15-.9L1.6-3.9q2.15 0 2.35.65l-.8 4.7L.95 3.1q-1.7.95-1.95.85-2.45-.35-2.9-1.05v-.2l.45-.1-.1.1 2.75.7q2.9-1.55 3.7-2.3l.6-4.05" fill="#700b4f" transform="translate(3.9 3.9)"/><path d="M-.3-.75-.95 3.6l-2.65-.9.5-4.35 2.8.9" fill="#ffff1c" transform="translate(3.9 3.9)"/><path d="M3.6-3.05Q3.3.9 2.95 1.3 1.6 2.75-.95 3.65l.6-4.45-2.8-.85Q.7-3.05 1.5-3.6l2.1.55" fill="#fb0" transform="translate(3.9 3.9)"/><path d="M.7 2Q-.05 3.05-.75 3.15l.45-3.9q1.85-.6 2.45-1.2L.7 2" fill="#ffff1c" transform="translate(3.9 3.9)"/><path d="M-.3-1q.85.25 3.8-1.85-2.15 1.8-3.55 2.2l-.65 4.3q-.15.4-2.9-.9l.45-4.2-.3 4 2.25.85.6-4.1-2.15-.85L-.3-1" fill="#700b4f" transform="translate(3.9 3.9)"/></g><g id="h" fill-rule="evenodd"><path d="M7.2 8.85q2.5 1.15 2.55 3.9 0 1.15-.75 2-3.5 3.85-8.3 1.3l-.55-.35q-.9-.75-1.25-1.65l1.8 2q-1.35-1.65-.85-3.7l.3-.8-.25.9V13l.4 1.25 3.45-1.35 4.35.9-3.25-1.55L7.3 10.2l-1.05-.3q-2.65-1-4.95.4l-.1-.05q2-1 4.35-1.3l1.65-.1M1.4 15.3l1.4.5q2.45.75 4.7-.65l-1.75-1-1.35-.7-3.05 1.8H1.3l.1.05m5.75-2 1.35.7.1-.65q.1-1.05-.3-2.15l-2.45 1.45 1.3.65m-6.85.95.65-.4 1-.55-1.65.95" fill="#1e1c26" transform="translate(1.3 -8.2)"/><path d="m5.75 14.15 1.75 1q-2.25 1.4-4.7.65l-1.4-.5 1.2.3.4-.15q1.45-.25 2.75-1.3M8.3 11.2q.4 1.1.3 2.15l-.1.65-1.35-.7.4-.3q.95-.65.75-1.8" fill="#fb0" transform="translate(1.3 -8.2)"/><path d="M.3 14.25-.1 13v-.55l.4 1.8m6.1-3.6L4.3 11.7l-.8-.35-.7-.35 3.6-.35m-5 4.65-.1-.05h.05l3.05-1.8 1.35.7Q4.45 15.2 3 15.45l-.4.15-1.2-.3-.05-.05.05.05m6.9-4.1q.2 1.15-.75 1.8l-.4.3-1.3-.65L8.3 11.2m-6.35 2.1-1 .55.4-1.8 1.55.65-.95.6" fill="#ffff1c" transform="translate(1.3 -8.2)"/><path d="M1.3 10.3q2.3-1.4 4.95-.4l1.05.3-.9.45-3.6.35-1.5-.7m-1.4 2.15.25-.9 1.2.5-.4 1.8-.65.4-.4-1.8" fill="#ffffa9" transform="translate(1.3 -8.2)"/><path d="m-1.2 13.8.15-.75q1.75-5 7.45-4.6l.8.4-1.65.1q-2.35.3-4.35 1.3l-.6.5 3.55.9-.65-.3.8.35 2.1-1.05.9-.45-2.45 2.05L8.1 13.8l-4.35-.9L.3 14.25l1.65-.95.95-.6-1.55-.65-1.2-.5-.3.8q-.5 2.05.85 3.7l-1.8-2-.1-.25" fill="#3d3d4c" transform="translate(1.3 -8.2)"/><path d="m-1.2 13.8-.1-.7q-.05-3.2 2.95-4.35l1.4-.4 2-.15.4.05.95.2q-5.7-.4-7.45 4.6l-.15.75m2.4-3.55.1.05 1.5.7.7.35.65.3-3.55-.9.6-.5" fill="#7c8a9e" transform="translate(1.3 -8.2)"/></g><path d="m14.8 14.1 4.85-2.4-1.8 3.5-3.45 1.95.4-3.05m-19.45.4q0 1.2.7 2.95l-5.3-2.2-1.05-3.1 5.65 2.35" transform="translate(10.3 -11.7)" id="f" fill="#fb0" fill-rule="evenodd"/><path d="M27.35 7.4q2.15 4.15 3.55 8.75 1.45 4.7 1.15 9.5-.35 4.95-4.2 8.1-3.8 3.2-8.75 4.05l-2.6.2q-3.6 0-7.05-1.15-4.65-1.6-7.1-5.5Q-.2 27.4.05 23q.2-4.4 2-9.3Q3.85 8.75 7 5.05 10.1 1.3 14.7.1l1.8-.1q1.9.05 3.7.8 4.75 2.05 7.15 6.6" fill="#f3cca2" fill-rule="evenodd" transform="translate(-.05)" id="i"/><path d="M27.35 7.4Q24.95 2.85 20.2.8 17.55-.3 14.7.1 10.1 1.3 7 5.05q-3.15 3.7-4.95 8.65-1.8 4.9-2 9.3-.25 4.4 2.3 8.35 2.45 3.9 7.1 5.5 4.65 1.55 9.65.95 4.95-.85 8.75-4.05 3.85-3.15 4.2-8.1.3-4.8-1.15-9.5-1.4-4.6-3.55-8.75Z" fill="none" stroke="#1e1e1e" stroke-linecap="round" stroke-linejoin="round" transform="translate(.45 .5)" id="j"/></defs></svg>