<svg xmlns="http://www.w3.org/2000/svg" xmlns:xlink="http://www.w3.org/1999/xlink" width="84.85" height="82"><g transform="translate(37.4 42.25)"><use xlink:href="#a" width="32.05" height="38" transform="translate(-11.95 -17.45)"/><use xlink:href="#b" width="33.05" height="38.95" transform="translate(-12.45 -17.95)"/><use xlink:href="#c" width="39.05" height="25" transform="translate(-15.65 2.1)"/><use xlink:href="#d" width="8.35" height="4.3" transform="translate(9.35 -2)"/><use xlink:href="#d" width="8.35" height="4.3" transform="matrix(-1 0 0 1 -1.45 -2.1)"/></g><defs><path id="e" fill="#fff" fill-rule="evenodd" d="M27.35 7.4q2.15 4.15 3.55 8.75 1.45 4.7 1.15 9.5-.35 4.95-4.2 8.1-3.8 3.2-8.75 4.05l-2.6.2q-3.6 0-7.05-1.15-4.65-1.6-7.1-5.5Q-.2 27.4.05 23q.2-4.4 2-9.3Q3.85 8.75 7 5.05 10.1 1.3 14.7.1l1.8-.1q1.9.05 3.7.8 4.75 2.05 7.15 6.6" transform="translate(-.05)"/><path id="f" fill="none" stroke="#000" stroke-linecap="round" stroke-linejoin="round" d="M27.35 7.4Q24.95 2.85 20.2.8 17.55-.3 14.7.1 10.1 1.3 7 5.05q-3.15 3.7-4.95 8.65-1.8 4.9-2 9.3-.25 4.4 2.3 8.35 2.45 3.9 7.1 5.5 4.65 1.55 9.65.95 4.95-.85 8.75-4.05 3.85-3.15 4.2-8.1.3-4.8-1.15-9.5-1.4-4.6-3.55-8.75Z" transform="translate(.45 .5)"/><path id="g" fill="#cc3131" fill-rule="evenodd" d="M.55-.1Q.65.5.1.5-.4.6-.5 0q-.1-.55.5-.55.55-.1.55.45" transform="translate(.5 .55)"/><use xlink:href="#e" id="a" width="32.05" height="38"/><use xlink:href="#f" id="b" width="33.05" height="38.95"/><use xlink:href="#g" id="h" width="1.05" height="1.05"/><g id="c" fill-rule="evenodd"><path fill="#490200" d="M38.9 16.15q.25.25.1.6-.55 1.5-3.3 3.45-2.95 2.05-6.7 3.25Q14.75 28.1.25 18.6q-.35-.2-.2-.65Q3.65 9.6 2.7 1.25q-.1-.4.25-.55l.65.1q4.25 4.25 7.15 5.25 4.25-3.1 8.65.3 1.85-1.75 4.45-1.6 2.95.1 4.7 2Q34.1 1.95 35.5.2q.25-.35.6-.15.4.15.3.55-.85 4.95 0 9.65.8 4.35 2.5 5.9"/><path fill="#ff0" d="m34.35 15.95-.55-.65q-.2-1 .8-1.5.85-.5 1.4.15.35.45.3 1.1l-1.65.05-.3.85m1.75 0-.15.45-.45.15-.4-.15-.2-.45.2-.4.4-.2q.25 0 .45.2l.15.4m-30.9 4.3L2.7 18.9l.65-.55q1-.75 1.85-.95 1.9-.2 3.4 1.05l2.5-.35q2.05-.4 3.5.95 1.35 1.4 1.05 3.4h-.05l-1.8.05q-.4-2.05-2.4-2.55-1.5-.35-2.65.55-1.6-1.3-3.55-.25m-2.4-6.6 1.05-4.4.5.35.45.05q0 2.15 2.05 2.6l.95.1q1.7-.6 1.9-2.2l.55.3 1 .25-.85.45 2.15.95 2.5.85.1.05-2.2.05-2.2-.6q-.1 1.85-1.9 2.95-1.7 1.1-3.7.45-1.65-.55-2.35-2.2M4.1 4.8l-.25-2.2.9.8-.45 1.2-.2.2m1.75-.5.45.4-.25-.2-.2-.2m.7.6 3.95 2.15-.05.8q-.45.55-1.2.6L8.7 8.2l-.35.75-.75.3-.8-.3-.35-1-.7-.35-.3-1.2.85-.7.25-.8m6.35 1.25 3.4-.2.55.7q.85 1.25.8 2.6h-.05l-3.95.25q.7-1.5-.35-2.8l-.4-.55m13.4.4h.35l.6.5.05.55-.05.55-.6.6q-.7.25-1.25-.2l-.25-.2.25-.15q.9-.7.2-1.65h.7m2.55 1.25 1.7-1.3 2.2.15-1.15 1.5v.05l-.65.1-2.1-.5m5.9-5.3.55-.65-.35 3.05.1-1.8.05-.3.05-.7-.4.4M25.25 9l-1.75-.1-1.7.1.9-.25q1.4-.35 2.75.3l-.2-.05m-6.5 4.4 2.6.05-.1 1q-2 .65-1.8 2.65.1.95.6 1.8.55.95 1.6 1-.1 1 .5 1.9l-2.5.4v-.6l-1.8-.95q-1.3-.8-1.65-2.3-.3-1.25.15-2.45.7-1.75 2.4-2.5m11.6-4-.95.6-.8.45-1.3-.8 3.05-.25m-12-.45.3-.95q.85-.65 1.55 0 .6.95-.25 1.65l-.25.15-.15-.5-.3-.45-.9.1m.8.35.1.25-.1.3-.3.1-.25-.1-.15-.3.15-.25.25-.15q.15 0 .3.15m5.8-2.5.35.15.1.35-.1.35-.35.15-.3-.15-.15-.35q0-.2.15-.35.1-.15.3-.15m.65 8.7.75-.05q.55.35.35 1.05l.45.7-.5.7-.8-.1-.75.75q-1-.6-1.4-1.65.2-.7.65-1.2l.35-.35.5-.05.4.2m-7.55 6.7v.45h-.45v-.45h.45m0-.35-.7.1-.05.85-.3-.15-.25-.25q-.2-.55.35-.9l.25-.05.7.4m-14.2-5.8L3.8 17l-.1.3q-.55.4-1.15.2l-.35-.2q-.25-.4-.1-1.25l.2-.3q-.1.75.4.95.95.3 1.15-.65m-.75-.1q-.05-.45.2-.15l.1.15q-.25.7-.3 0m11.25.35q-.65 1.45-2.3.9l-.55-.3q-.7-.85-.3-2.05l.3-.55 2.35-.15-.45.35q-.5.75.15 1.5l.8.3m.6-1.7.2.5-.2.5q-.2.2-.5.2l-.5-.2-.2-.5.2-.5.5-.2q.3 0 .5.2"/><path fill="#f328cf" d="M36.3 15.05q.05-.65-.3-1.1-.55-.65-1.4-.15-1 .5-.8 1.5l.55.65.2.45.5.6 1.3-.2.1-.9-.15-.85m-.6-2.9q.6 1.8 1.5 3.35l.55.95-.4.7-1.45 1.7-1.15.8q.25-1.95-1.15-3.4l-.8-1q-.05-.05.05-.15l.35-1 .1-.85-.1-.7-.1-.7-.2-.25-2.55-2.2 1.25-1.2v-.05h.15l.8-.35q-.1 2.6 2.15 3.8l1 .55M20.05 23.8l-3.25-.15-1.25-.75.05-.45h.05l1.1-.05.25.25.3.15.75.25.15-.15q.45-.15.15-.6l1.3-.1.4 1.6m-6.25-.6-1.05-.2-.15-.5h1.15l.05.7m21.15-16 .25 2.4-.05-.05Q33.6 9 33.3 7.4l-.15-.95-.4.15.95-1.45V5.1l.1.65q.15 1.1 1.15 1.4v.05M27.3 9.65l-.6.35-1.45-1 .2.05 1.85.6M21.8 9l-1.2.85q-1.6 1.25-1.5 3.4l-.5.15-3.45-.4-.1-.05.8-.5q1.75-1.1 1.75-3.2h.05l.5.15-.05.2q-.1.55.45.75.95.35 1.15-.45l2-.85.1-.05m-.4 4.45q.7-1.75 2.75-1.9 1.2-.05 2.1.75.8-.45 1.7-.45 1.4.05 2.2 1.15l.2.3.2.6q.2.95-.25 1.75l.95 1.55q.45.7.25 1.85-.25 1.4-1.85 1.85-1.25.4-2.45-.25l-.3.6q-.7 1.15-1.95 1.55-1.8.35-2.8-1l1-.2q1.2-.25 1.9-1l.85-.35.5-1.15q.85.6 1.8.3.8-.2 1-1.05.35-1.35-.8-2.15l-.2-1.5q-.2-.6-.75-.85-.75-.4-1.55.15l-.45-.35-.1-.75-3.95.55"/><path fill="#0f0" d="m36.3 15.05.15.85-.1.9-1.3.2-.5-.6-.2-.45.3-.85 1.65-.05m-.2.9-.15-.4q-.2-.2-.45-.2l-.4.2-.2.4.2.45.4.15.45-.15.15-.45M10.8 22.4l-.85-.35-3.1-1 .8.15 1.2.35.7-.3q1.95-.6 3.05 1.25l-1.8-.1M6.3 4.7l.25.2-.25.8-.85.7.3 1.2.7.35.35 1 .8.3.75-.3.35-.75.55.25q.75-.05 1.2-.6l.05-.8.4.15.6-.45.25.65q.25.95-.5 1.55l-.4.15-.8.2-.9-.35-.25.75q-.5.45-1.3.7l-.8-.55L6 8.6l-.65-.35q-.6-.5-.65-1.25-.05-1.15 1.1-1.55l.25-.95.25.2m25.7.45 2.25-2.1.5-.55.4-.4-.05.4-1.4 2.6v.05l-.8.1-.9-.1m2.95-.25.2 2.35L35 7.2h-.05V4.9m-9.8 3.45-.9-.25q-.35-.45-.15-1.1.15-.6.9-.6l.6.15q.7.95-.2 1.65l-.25.15M19.7 9.9q-.2.8-1.15.45-.55-.2-.45-.75l.05-.2.2-.45.9-.1.3.45.15.5v.1m-.55-.6q-.15-.15-.3-.15l-.25.15-.15.25.15.3.25.1.3-.1.1-.3-.1-.25m5.8-2.5q-.2 0-.3.15-.15.15-.15.35l.15.35.3.15.35-.15.1-.35-.1-.35-.35-.15m-6.9 15.4h-.45v.45h.45v-.45m-.75.6.05-.85.7-.1.3.45q.3.45-.15.6l-.15.15-.75-.25m-15-7.05.75-.45.35.05.2.2.25.45v.05q-.2.95-1.15.65-.5-.2-.4-.95m.8.2q.05.7.3 0l-.1-.15q-.25-.3-.2.15m10.75-1.8 1.4.2q.4.65.15 1.3l-.15.4-.9.25-.8-.3q-.65-.75-.15-1.5l.45-.35m1.1.45q-.2-.2-.5-.2l-.5.2-.2.5.2.5.5.2q.3 0 .5-.2l.2-.5-.2-.5"/><path fill="#ff38ff" d="M37.75 16.45q0 .95-1.1 1.85l-.75.55 1.45-1.7.4-.7m-30.9 4.6-1.65-.8q1.95-1.05 3.55.25 1.15-.9 2.65-.55 2 .5 2.4 2.55h-1.2q-1.1-1.85-3.05-1.25l-.7.3-1.2-.35-.8-.15M2.7 18.9l-1.55-.95 1.65-4.3q.7 1.65 2.35 2.2 2 .65 3.7-.45 1.8-1.1 1.9-2.95l2.2.6 2.2-.05 3.45.4h.15q-1.7.75-2.4 2.5-.45 1.2-.15 2.45.35 1.5 1.65 2.3l1.8.95v.6l-1.3.1-.3-.45-.7-.4-.25.05q-.55.35-.35.9l-1.1.05q.3-2-1.05-3.4-1.45-1.35-3.5-.95l-2.5.35Q7.1 17.2 5.2 17.4q-.85.2-1.85.95l-.65.55m1.15-9.65L4 7.2l.1-2.4.2-.2.45-1.2 1.1.9.2.2-.25.95Q4.65 5.85 4.7 7q.05.75.65 1.25L6 8.6l.8 1.25.8.55q.8-.25 1.3-.7l.25-.75.9.35.8-.2.4-.15q.75-.6.5-1.55l-.25-.65 1.4-.6.4.55q1.05 1.3.35 2.8l-.45.4q-.65.55-1.5.75l-.45.05-1-.25-.55-.3q-.2 1.6-1.9 2.2l-.95-.1Q4.8 11.8 4.8 9.65l-.45-.05-.5-.35m12.45-3.3q.8.25 1.55.65.85.4 1.65.95 1-.7 2.1-1.1 1.2-.45 2.55-.6l2.15.7h-.7L25 6.4q-.75 0-.9.6-.2.65.15 1.1l.9.25.25.2q.55.45 1.25.2l.6-.6.05-.55-.05-.55 1.4.85.2-.1 2.1.5.65-.1-1.25 1.2-3.05.25-1.85-.6q-1.35-.65-2.75-.3l-.9.25-.1.05-2 .85v-.1l.25-.15q.85-.7.25-1.65-.7-.65-1.55 0l-.3.95-.2.45-.5-.15q.05-1.35-.8-2.6l-.55-.7m14.25.55-.1-.05L32 5.15l.9.1.8-.1-.95 1.45v.05l-2.2-.15m4.65 3.1h-.05v-.05l.05.05m-.1-6.8v-.3l.05-.4-.05.7M21.35 13.45h.05l3.95-.55.1.75-.75-.25-.4.05q-1.45.4-1.5 1.85-.95.35-1.25 1.1v.65q.1 1.4 1.45 1.7l.1.55q.45 1.7 1.95 1.3-.7.75-1.9 1l-1 .2q-.6-.9-.5-1.9-1.05-.05-1.6-1-.5-.85-.6-1.8-.2-2 1.8-2.65l.1-1M2.3 15.75l-.2.3q-.15.85.1 1.25l.35.2q.6.2 1.15-.2l.1-.3.05-.95V16l-.25-.45-.2-.2-.35-.05-.75.45m11.55-1.6-2.35.15-.3.55q-.4 1.2.3 2.05l.55.3q1.65.55 2.3-.9l.9-.25.15-.4q.25-.65-.15-1.3l-1.4-.2"/><path fill="#3eb51a" d="m12.75 23-2.35-.65.4.05 1.8.1.15.5M35.1 2.8l-.05.3-.1 1.8v2.25q-1-.3-1.15-1.4l-.1-.65 1.4-2.6v.3"/><path fill="#f3b51a" d="m34.75 19.65-3.1 1.55-3.5 1.4-.25-.15-.05.25-1.9.5-3.9.55-2 .05-.4-1.6 2.5-.4q1 1.35 2.8 1 1.25-.4 1.95-1.55l.3-.6q1.2.65 2.45.25 1.6-.45 1.85-1.85.2-1.15-.25-1.85l-.95-1.55q.45-.8.25-1.75l-.2-.6-.2-.3q-.8-1.1-2.2-1.15-.9 0-1.7.45-.9-.8-2.1-.75-2.05.15-2.75 1.9h-.05l-2.6-.05h-.15l.5-.15q-.1-2.15 1.5-3.4L21.8 9l1.7-.1 1.75.1 1.45 1 .6-.35 1.3.8.8-.45.95-.6 2.55 2.2.2.25.1.7.1.7-.1.85-.35 1q-.1.1-.05.15l.8 1q1.4 1.45 1.15 3.4m-17.95 4-3-.45-.05-.7h.05l1.8-.05-.05.45 1.25.75M35.15 9.6l.55 2.55-1-.55q-2.25-1.2-2.15-3.8l-.8.35h-.15l1.15-1.5V6.6l.4-.15.15.95q.3 1.6 1.85 2.15v.05M17.6 9.25q0 2.1-1.75 3.2l-.8.5-2.5-.85-2.15-.95.85-.45.45-.05q.85-.2 1.5-.75l.45-.4 3.95-.25"/><path fill="#82e600" d="M25.05 20.6q-1.5.4-1.95-1.3l-.1-.55q-1.35-.3-1.45-1.7v-.65q.3-.75 1.25-1.1.05-1.45 1.5-1.85l.4-.05.75.25.45.35q.8-.55 1.55-.15.55.25.75.85l.2 1.5q1.15.8.8 2.15-.2.85-1 1.05-.95.3-1.8-.3l-.5 1.15-.85.35m.55-5.1-.4-.2-.5.05-.35.35q-.45.5-.65 1.2.4 1.05 1.4 1.65l.75-.75.8.1.5-.7-.45-.7q.2-.7-.35-1.05l-.75.05"/><path fill="#f157b6" d="m28.15 22.6-.3.1.05-.25.25.15"/></g><g id="d"><use xlink:href="#h" width="1.05" height="1.05" transform="translate(7.3 .35)"/><use xlink:href="#h" width="1.05" height="1.05" transform="translate(4.85)"/><use xlink:href="#h" width="1.05" height="1.05" transform="translate(4.6 2.3)"/><use xlink:href="#h" width="1.05" height="1.05" transform="translate(1.45 3.25)"/><use xlink:href="#h" width="1.05" height="1.05" transform="translate(0 1.9)"/><use xlink:href="#h" width="1.05" height="1.05" transform="translate(2.2 .75)"/></g></defs></svg>