<svg xmlns="http://www.w3.org/2000/svg" xmlns:xlink="http://www.w3.org/1999/xlink" width="84.85" height="82"><g transform="translate(37.4 42.25)"><use xlink:href="#a" width="26" height="35.7" transform="matrix(-.8749 -.4809 -.4809 .8749 3.5 -8.5)"/><use xlink:href="#a" width="26" height="35.7" transform="matrix(.8749 -.4809 .4809 .8749 6.6 -8.5)"/><use xlink:href="#b" width="32.05" height="38" transform="translate(-11.95 -17.45)"/><use xlink:href="#c" width="33.05" height="38.95" transform="translate(-12.45 -17.95)"/><use xlink:href="#d" width="34.85" height="29.2" transform="translate(-13.45 -6.05)"/></g><defs><use xlink:href="#e" id="a" width="26" height="35.7"/><use xlink:href="#f" id="b" width="32.05" height="38"/><use xlink:href="#g" id="c" width="33.05" height="38.95"/><path id="f" fill="#caaf8f" fill-rule="evenodd" d="M27.35 7.4q2.15 4.15 3.55 8.75 1.45 4.7 1.15 9.5-.35 4.95-4.2 8.1-3.8 3.2-8.75 4.05l-2.6.2q-3.6 0-7.05-1.15-4.65-1.6-7.1-5.5Q-.2 27.4.05 23q.2-4.4 2-9.3Q3.85 8.75 7 5.05 10.1 1.3 14.7.1l1.8-.1q1.9.05 3.7.8 4.75 2.05 7.15 6.6" transform="translate(-.05)"/><path id="g" fill="none" stroke="#000" stroke-linecap="round" stroke-linejoin="round" d="M27.35 7.4Q24.95 2.85 20.2.8 17.55-.3 14.7.1 10.1 1.3 7 5.05q-3.15 3.7-4.95 8.65-1.8 4.9-2 9.3-.25 4.4 2.3 8.35 2.45 3.9 7.1 5.5 4.65 1.55 9.65.95 4.95-.85 8.75-4.05 3.85-3.15 4.2-8.1.3-4.8-1.15-9.5-1.4-4.6-3.55-8.75Z" transform="translate(.45 .5)"/><g id="e" fill-rule="evenodd"><path d="M24.1 8.2q-.95-3.65-3.05-7.1l-4.4 2.1q-2.8 1.3-5.95 1.55l-2.15-.1Q7.7 4.45 7 3.9l-.1.45L5.4 7.9l-2.5 4.55L1.65 15l-.55 1.35.35-.1q1.9-.2 3.55.65 1.25.55 1.4 2.1.15 1.1-.3 2.3l-1.4 3.15 2.75-.9q1-.35 1.95.3.8.6 1.3 1.65l.7 1.7.85-1.15q1.65-2.25 4.45-2.65l1.85.35 1.7.95q1.1 1 1.55 2.5.55 2.05.25 4.05 1.25-2.6 1.85-5.6 1-4.75 1.1-9.7.1-3.85-.9-7.75M21.4 0l.35.55q2.05 3.6 3.15 7.65 1.5 5.65 1 11.6-.75 8.4-4.8 15.9v-5.8l-.3-2.05-.35-.8-1.05-1.15q-.65-.55-1.45-.7-1.65-.5-3 .3-2.5 1.5-3.95 4.15l-.55-1.75-.05-.1-1-1.8q-.5-.6-1.2-.95l-2.05.2-3.9 2.55L5 21.55l.35-1.45-.2-.9q-.65-1.1-2-1.35-1.7-.5-3.15.5.15-1.8 1.05-3.5l4.45-9.5.9-2.85q2.45 1.85 5.55 1.4 5.1-.7 9.45-3.9"/><path fill="#756548" d="M24.1 8.2q1 3.9.9 7.75-.1 4.95-1.1 9.7-.6 3-1.85 5.6.3-2-.25-4.05-.45-1.5-1.55-2.5l-1.7-.95-1.85-.35q-2.8.4-4.45 2.65l-.85 1.15-.7-1.7q-.5-1.05-1.3-1.65-.95-.65-1.95-.3l-2.75.9 1.4-3.15q.45-1.2.3-2.3-.15-1.55-1.4-2.1-1.65-.85-3.55-.65l-.35.1.55-1.35 1.25-2.55L5.4 7.9l1.5-3.55.1-.45q.7.55 1.55.75l2.15.1q3.15-.25 5.95-1.55l4.4-2.1q2.1 3.45 3.05 7.1"/><path fill="#ada58d" d="m23.65 7.25.4 1.7q1 4.4.85 8.75-.3 7-3 13.5l.55-2.1q1.15-4.1 1.35-8.3.45-8.85-3.25-16.95L18.8 8.7l-3.5 9.7q-1.7 4.5-4.05 8.75l7.65-22.2q-2.55 2.55-4.95 5.5Q8.75 16.8 4.9 24.1l1.35-2.75 3.85-7Q13.15 9.3 17.45 5 11.75 7 7 4.05l1.3.4 1.25.2q3.9.85 7.55-.8l3.75-2.15 2.8 5.55"/><path fill="#5e4c39" d="m20.4 5.5.2 2.55q.2 3.05-.1 6.2-.45 4.3-2 8.25l-3.35.15-1.45 1.05.5-1.3 2.95-7.25L20.4 5.5m-2.8 1.45q-2.9 5-5.3 10.25l-2.4 5.45-3.65-.1q1.8-3.35 4.05-6.6 2-3 4.25-5.55l1.15-1.3 1.9-2.15m-3.65-.55-6.1 10.1.1-.55-.3-.35-.4-.25q-2.65-1.1-5.55-.6l1.1-2.05.95-1.6Q5.6 8.2 6.8 4.95l.75.55L8.7 6q1.6.8 3.2.7l2.05-.3"/><path fill="#fff5da" d="m23.65 7.25-2.8-5.55-3.75 2.15q-3.65 1.65-7.55.8L7.4 4.1q3.55.75 7.1-.15Q18 3.1 21 .9q1.5 2.55 2.45 5.5l.65 1.9-.45-1.05"/></g><g id="d" fill-rule="evenodd"><path d="M27 17.45q.25-.25-.15-1.55l-.4-1.5.9 1.25q2.6 3.45 3.25 3.6.25-.4-.2-1.85l-.35-1.3 2.6 3.2v.05l-.35 2.7-.2.5-.3-.45-.25-.2q-.45 0-1.2 1.2l-.25.35q-1.15 1.95-1.85 2.5l-.5.35v-.6l-.05-.15q-.4-.3-1.2.2l-1 .75-2.15 1.5-.95.45.5-.75-2.5.1-1.95 1.25-.2.15-.2-.2q-.95-1.15-1.35-1.15l-.5.45-.15.25-1.8-1.2-1.75.15-.2.35-.05.35-.35-.1-3.4-2.35q-.45-.4-.95-.3-.3.05-.45.2l-.25.2L5 23.15l-.8-.3-.25.05L3 20.5l.2-.15q1.65-.85 2.35-1.75l.6-.65-.2 3.25q1.45-1.6 3.15-4.75l.4-.85.35 3.65q3-3.95 3.55-5.95l.3-.95.25.95.25 2.1-.1 1.9q1.65-3.35 2.4-5.75l.45-1.25.1 1.35q.4 3.25.75 4.8l.65-4.05.3 1.4q.8 3.45 1.5 4.4.55-.7 1.05-4.35l.2-1.3.35 1.25q.75 2.25 1.5 2.25.4-.55-.25-3.05l-.6-2.15 1.1 1.95q2.45 4.4 3.4 4.65M3.9.2l4.75 3.35-3.6.7 4.2 1.45L5.2 7l3.05.7-4.6 2.05 2.4-.1-1.55.9q-1.85 1.2-3.3 2.95l-1-2.7q.6.05.65-.5L0 8.95q1.15-1.4 1.25-1.9l-.65-.9q1.35-1.45 1.5-2l-.15-2Q3.65.75 3.9.2"/><path fill="#9b8f72" d="M2.55 2.35 4 1l3 2.2-2.2.55-1.25.6 3.9 1.35-4.4 1.35 3.2.75q-2 .75-2.95 1.5l-1.7 1.35 2.15-.35h.05l-2.35 2.05-.5-1.2q.45-.35.45-.8v-.1q0-.8-.65-1.35.9-1.1 1.05-1.75V7l-.4-.9q1.05-1.2 1.2-1.8l.1-.7q0-.8-.15-1.25"/><path fill="#756548" d="m3.75 10.35-2 1.75-.8-.95q.85-.35.85-.5l1.95-.3M4.1 1.1 7 3.2l-2.2.55-1.25.6 3.9 1.35-4.4 1.35 3.2.75Q4.1 8.6 3.3 9.3l-1.45 1.2Q2.3 5.3 4.1 1.1"/><path fill="#9b8f72" d="m2.4 5.4 1.7-4.3L6 2.55l-2.45 1.8 1.6.55-2.7 2.15 1.5.6q-1.65.7-2 1.95l.45-4.2"/><path d="m31.1 0 1.75 1.35-.65.7q.1.4 1.4 1.85L33 5.15l1.15 1.35-.7 1q.2 1.15 1.05 1.95l-.4-.1q-.35-.05-.25.3.35.95 1 1.55L34 12.55q-.05.5-.7.95-1.5-1.75-3.35-2.95l-1.6-.9 2.45.1-4.65-2.05L29.2 7l-4.1-1.3 4.3-1.45-3.65-.7L31.1 0"/><path fill="#5e4c39" d="m31.05.75.8.6-.2.8q.1.5 1.25 1.8-.5.6-.5 1.1l.05.2q0 .3.85 1.15-.45.45-.45.95l.05.25.55 1.4-.2.5.1.35.7 1.3q-.6.6-.6 1.3l-.15.1-.05.05q-1.05-1.15-2.6-2.3h.05l2.15.35-1.7-1.35q-.9-.7-3-1.5l3.25-.75-4.45-1.35 3.9-1.35-1.2-.6-2.25-.55L31.05.75"/><path fill="#9b8f72" d="m32.7 12.05-2.05-1.7h.05l1.95.3.05 1.4M27.4 3.2 31.05.75q-.3 1.15.9 5.15.2 1.25-.1 3.25l.8 1.35-1.5-1.2q-.95-.75-2.95-1.5l3.2-.75L27 5.7l3.9-1.35-1.25-.6-2.25-.55"/><path d="M27.15 15.85q2.65 3.5 3.4 3.65.75.1.15-2.15l1.65 2.05-.3 2.55q-.65-1-1.95 1l-2.05 2.75q.1-1.2-1.7-.2l-3.15 2.25q.25-.4-1.05-.45l-1.85.2-2 1.3q-1.05-1.2-1.6-1.25l-.75.6-1.65-1.05q-2.15-.35-2.3.7-1.1-.4-3.3-2.3-.6-.5-1.25-.3l-.55.25L5.25 23l-1.1-.4-.8-1.95q1.7-.9 2.45-1.85l-.2 3.05q1.35-.7 3.75-5.25l.3 3.4q3.4-4.4 4.05-6.65.5 1.7-.05 5.55 2.25-4.6 3.15-7.25.35 3.8 1.05 6.25l.65-4.05 1.65 4.7q.7.75 1.45-4.7l.5 1.25q.6 1.25 1.2 1.25.95 0 .05-3.45l1.4 2.3q1.5 2.35 2.1 2.5.95.3.3-1.85"/><path fill="#756548" d="m4.05 20.85 1.1-.7L5 22.1l-.5-.05-.45-1.2M24 16.55l.25-.95q1.7 2.45 2.45 2.7l.9-.25.25-.4q1.9 2.25 2.6 2.4l.8-.25.2-.6.35.45.05.45-.15 1-.15-.05q-.85 0-1.9 1.55l-1.5 2.2q-.9-.55-2.05.2l-2.8 2q-1.7-.75-3.2 0-.75.25-1.75 1.05-.9-1-1.6-1.05-.4-.05-.9.35-1.1-.8-1.45-.8-1.6-.3-2.45.25l-.15.3-2.75-2q-.9-.8-1.95-.4l-1.35-2.05-.2-.15.3-.15q1.3-.85 3.1-3.85l.25 3 .9-1.15q2-2.6 3.2-4.8l-.25 3.3-.5 3.6 1.6-3.25L16.5 14q.35 2.45.8 4.05l.7 2.55.65-4.05q.55 1.85 1.05 2.4l.8.2q.75-.15 1.35-3.3.65 1.05 1.45 1.05.5 0 .7-.35"/><path fill="#9b8f72" d="M26.7 18.2q.6.15.9-.2l.25-.4q1.9 2.25 2.6 2.4l.65-.15-.55.65-3.25-1.85.35 1.3-1.75-1.45-1.75-1.05.9 3.05-1.65 3.7-.35-2.45q-.4-2.5-.75-2.5L21 22.7l-1.25-2.1-1.3 2.3q-.55.2-2.75-3.15l-4.75 4.1V20.4L7.8 23.1l-1.95-.8q1.25-.85 3.1-3.9l.25 3.05.9-1.15q2-2.6 3.2-4.8l-.25 3.3-.5 3.6 1.6-3.3 2.35-5.15q.35 2.45.8 4.05l.7 2.55.65-4.05q.55 1.85 1.05 2.35.35.4.8.25.75-.3 1.35-3.35.65 1.1 1.45 1.1.45 0 .7-.35l.25-.95q1.7 2.5 2.45 2.65"/><path fill="#fff5da" d="m8.75 19-.65 2.55-.9.25L8.75 19m4.1-2.65-1.3 3-1.75 1.3 3.05-4.3m.15.1-.7 4.7-.15-1.8.85-2.9m3.55-.6 1.55 6.05-1.4-3.75-.15-2.3M15 20.45l-.25-1.7 1.65-4.35-1.4 6.05M2.9 2.55l1.05-.7 1.55.65-2.6.05M1.65 6 3 4.85l1.35.45L2.6 6h-.95M1.3 8.6l1.15-1.1.75.15-1.9.95m20.85 7.9 1.55 1.7.1 2.2-1.65-3.9"/><path fill="#9b8f72" d="M24.85 16.95q2.6 3.85 3.2 4 .55.1.3-1.9l.7 3.8q-2.8-2.65-4.2-5.9"/><path fill="#fff5da" d="m18.85 17.7 1.15 2-.95-.45-.2-1.55"/><path fill="#5e4c39" d="M18.35 27.8q2.3-1.95 2.65-5 .4 3.05.2 3.45 2.35-.9 2.85-2.15.15 1.8-.75 2.9l-1.55-.25q-1.85 0-3.4 1.05M26.1 25q-.1-1.1-1.1-2.8l1.75.95-1.2-2.45q.85 1.3 3.25 3l-.65 1.1-1.3-.1-.75.3m-10.25 2.35q-1.05-.95-2.25-.9l2.45-3.15-.2 4.05m1.2-.4 1.85-2.25-1.1 2.75-.75-.5m-5.15.2.8-2.6q-.3 1.5 0 1.85l-.8.75M8.55 24.7q.55-1.4 1.05-1.85-.25 1.05.45 3l-1.5-1.15"/><path fill="#fff5da" d="m20.9 20.35.4-.6-.1 2.35-.3-1.75"/><path fill="#756548" d="m30.7 2.5.9 1.9.95 1.65-.2.95.55 1.95-.6.6 1.3 1.8-3.3-2.9 1.35.25-1.95-1.25L32 6.9l-2.05-1.1 1.45-1.35q-1.2-.55-2.45-1.15.75-.05 2.15-2.6l-.4 1.8"/><path fill="#5e4c39" d="M2 10.45q1.25-2.25 4.05-2.6l-1.9 1Q2.4 9.8 2 10.45m-.55 1.9L1 11.15l.9.1 1.85-.9-2.3 2"/><path fill="#fff5da" d="m27.4 3.25 1-.75.65 1-1.65-.25m-.35 2.45 2.8-.95-1 1.1-1.8-.15m1.15 2.1 1.45-.3-.8.6-.65-.3m2.5 2.55.8.1-.2.4-.6-.5"/><path fill="#9b8f72" d="m15.9 19.1-.45 3.55-1.55 1.5 2-5.05m1.35 4.4.7.85-1.15 1.9.45-2.75m4.95-1.3.35 1.4-.9 1.65.55-3.05m-10.75 3.45-.3-.8 1.3-.9-1 1.7"/><path fill="#5e4c39" d="m31 1 .8 3.65q-.8-.5-1.65-1.05L31 1"/><path fill="#756548" d="m32.7 11.95-1.15-1 .25-.5.85.2.05 1.3"/></g></defs></svg>