<svg xmlns="http://www.w3.org/2000/svg" xmlns:xlink="http://www.w3.org/1999/xlink" width="84.85" height="82"><g transform="translate(37.4 42.25)"><use xlink:href="#a" width="29.6" height="37.7" transform="matrix(-1 0 0 1 2.5 -15.7)"/><use xlink:href="#a" width="29.6" height="37.7" transform="translate(5.65 -15.7)"/><use xlink:href="#b" width="58" height="22.15" transform="translate(-24.3 -1.4)"/><use xlink:href="#c" width="31.85" height="29.05" transform="translate(-11.85 -17.45)"/><use xlink:href="#d" width="32.65" height="21.6" transform="translate(-12.25 -17.95)"/><use xlink:href="#e" width="42" height="31.8" transform="translate(-17.05 -.85)"/><use xlink:href="#f" width="7.2" height="7.4" transform="translate(22.25 5.6)"/><use xlink:href="#f" width="7.2" height="7.4" transform="matrix(-1 0 0 1 -14.55 5.85)"/></g><defs><use xlink:href="#g" id="a" width="29.6" height="37.7"/><use xlink:href="#h" id="c" width="31.85" height="29.05"/><use xlink:href="#i" id="d" width="32.65" height="21.6"/><use xlink:href="#j" id="f" width="7.2" height="7.4"/><path id="b" fill="#d4d2d4" fill-rule="evenodd" d="M-5.3 6.75-3.15 13l1.5 7.65-6.35-2-3.85-5.1-7.3 2.45q-1.2.15-5.15-6 2.15 3.1 4.45 3.5 1.2.25 14.55-6.75m32.8 5.05q4.85-1.7 6.2-4.2-.3 3.9-5.9 8.2l-6.9-2.25-3.8 5-7.8 2.2L16.2 4.4l-4.6.2 7.05-6 6.7 7.2Q23.1 7.25 20.8 8.65l6.7 3.15" transform="translate(24.3 1.4)"/><path id="h" fill="#fff" fill-rule="evenodd" d="M27.35 7.4q2.15 4.15 3.55 8.75.8 2.65 1.1 5.3-15.95 15.25-31.85 0 .4-3.7 1.9-7.75Q3.85 8.75 7 5.05 10.1 1.3 14.7.1l1.8-.1q1.9.05 3.7.8 4.75 2.05 7.15 6.6" transform="translate(-.15)"/><path id="i" fill="none" stroke="#000" stroke-linecap="round" stroke-linejoin="round" d="M31.9 20.6q-.3-2.25-1-4.45-1.4-4.6-3.55-8.75-2.4-4.55-7.15-6.6-2.65-1.1-5.5-.7Q10.1 1.3 7 5.05q-3.15 3.7-4.95 8.65Q.7 17.3.25 20.6" transform="translate(.25 .5)"/><g id="g" fill-rule="evenodd"><path fill="#1c191d" d="m29.45 22.55.15.95q0 3.6-6.35 9.15l-.6.5-6.8-2.2-3.55 4.4L.45 37.7.05 0 6 4.65l23.45 17.9"/><path fill="#fffbf8" d="m11.45 34.25-11.3 2.2L0 1.9l28.05 21.25q.5 2.85-5.9 8.35l-7.25-2.35-3.45 5.1"/><path fill="red" d="m23.75 19.8-1.5.85-11.75-8.3-1.8-4L23.75 19.8"/><path fill="#ffaeae" d="M9.5 10.3 6.95 7 23.7 19.85l-.55.3L9.5 10.3"/></g><g id="e" fill-rule="evenodd"><path fill="#1c191d" d="m5.75 7.95 1.1-.55 6.4 7.45L18.65 27l-8.15-7.5L5.75 7.95"/><path fill="#fffbf8" d="m6.3 7.75 6.5 7.5L18 25.3l-7.05-6.8L6.3 7.75"/><path fill="#1c191d" d="m19.45 16.4 1.55.5 1.55-.5 7.35-3.1-9.05 18.5-8.75-18.4 7.35 3"/><path fill="#fffbf8" d="m19.3 16.95 1.5.5-.2 12-7.85-15.35 6.55 2.85"/><path fill="#1c191d" d="M36.05 7.95 31.4 19.3l-8.1 7.55 5.4-12 6.25-7.45 1.1.55"/><path fill="#d4d2d4" d="m35.55 7.75-4.6 10.75-7.1 7.05 5.25-10.3 6.45-7.5m-14.3 9.7 7.6-3-7.45 15-.15-12"/><path fill="#1c191d" d="m20.85 20.55-.5-.05L0 3.35 4.9 0l15.75 8.95L37.75.1 42 4.3 20.85 20.55"/><path fill="#fffbf8" d="M16.25 15.9 2.3 3.55 5.25 1.5l15.3 8.8-4.3 5.6m5.35-5.85L37.8 1.5 40.05 4 26 15.9l-4.4-5.85"/><path fill="#1c191d" d="M24.4 16.75 20.8 25l-3.6-8.35-3.3-1.55 6.9-9.75 7 9.75q-2.8 1.5-3.4 1.65"/><path fill="red" d="m23.45 17.75-2.5 5.5-.15.45-.15-.45-2.4-5.6-3.45-2.6 6-8.45 6.15 8.45-3.5 2.7"/><path fill="#ff5151" d="m20.7 16.3-5.9-1.25 5.8-8.15.1 9.4"/><path fill="#d4d2d4" d="m37.35 1.85 1.75 2.2L27.25 14.1l-3.2-4.3q7.8-.05 13.3-7.95"/><path fill="#acacac" d="m32.8 13-2.35 2.6-3.2 6.5-3.35 3.45 5.8-11.8 4.1-3.1-1 2.35"/><path fill="#c00000" d="m20.7 16.55 2.4-6.75 3.85 5.25-3.5 2.7-2.65 5.85-.1-7.05"/><path fill="#acacac" d="m23.8 18.25 3.95-3-6.35 12.9-.1-4.15 2.5-5.75"/><path fill="#d4d2d4" d="m6.3 7.8 6.5 7.65 2.8 5.5-6.85-7.6L6.3 7.8m6.55 6.4 5.1 4.25-1.6 2.65-3.5-6.9"/><path fill="#fff" d="m20.7 16.2-2.35-.4 2.3-3.3.05 3.7m-.05-6.7v1.25l-3.35 4.8-.95-.15 4.3-5.9"/><path fill="#ff5151" d="m20.75 16.25 1.7-.2-1.7 2.8v-2.6m2.25-.2.7-.1-2.95 4.65-.05-.7 2.3-3.85"/></g><g id="j" fill="red" fill-rule="evenodd"><path d="m7.1 4.5-.2.65-1.2-.55.15-.4Q6.3 1.85 4.1 1.4l-.4-.05L3.75 0l.6.1q1.45.35 2.3 1.6.8 1.3.45 2.8M1.45 2.85l-.1.35Q.9 5.55 3.1 6l.35.05L3.4 7.4l-.55-.1Q1.4 7 .6 5.7T.1 2.9l.15-.5 1.2.45"/><path d="M2.45 3.35q.35-1.2 1.5-.75 1.15.4.75 1.5-.45 1.2-1.5.75-1.15-.35-.75-1.5"/></g></defs></svg>