<svg xmlns="http://www.w3.org/2000/svg" xmlns:xlink="http://www.w3.org/1999/xlink" width="84.85" height="82"><g transform="translate(37.4 42.25)"><use xlink:href="#a" width="43.85" height="43.25" transform="matrix(-1.0012 -.34 -.3211 .9456 47.47 -27.349)"/><use xlink:href="#b" width="32.05" height="38" transform="translate(-11.95 -17.45)"/><use xlink:href="#c" width="33.05" height="38.95" transform="translate(-12.45 -17.95)"/><use xlink:href="#d" width="42.9" height="27.6" transform="translate(-16.65 -8.05)"/></g><defs><use xlink:href="#e" id="a" width="43.85" height="43.25"/><use xlink:href="#f" id="b" width="32.05" height="38"/><use xlink:href="#g" id="c" width="33.05" height="38.95"/><path id="f" fill="#fff" fill-rule="evenodd" d="M27.35 7.4q2.15 4.15 3.55 8.75 1.45 4.7 1.15 9.5-.35 4.95-4.2 8.1-3.8 3.2-8.75 4.05l-2.6.2q-3.6 0-7.05-1.15-4.65-1.6-7.1-5.5Q-.2 27.4.05 23q.2-4.4 2-9.3Q3.85 8.75 7 5.05 10.1 1.3 14.7.1l1.8-.1q1.9.05 3.7.8 4.75 2.05 7.15 6.6" transform="translate(-.05)"/><path id="g" fill="none" stroke="#000" stroke-linecap="round" stroke-linejoin="round" d="M27.35 7.4Q24.95 2.85 20.2.8 17.55-.3 14.7.1 10.1 1.3 7 5.05q-3.15 3.7-4.95 8.65-1.8 4.9-2 9.3-.25 4.4 2.3 8.35 2.45 3.9 7.1 5.5 4.65 1.55 9.65.95 4.95-.85 8.75-4.05 3.85-3.15 4.2-8.1.3-4.8-1.15-9.5-1.4-4.6-3.55-8.75Z" transform="translate(.45 .5)"/><g id="e" fill-rule="evenodd"><path fill="#1c191d" d="M43.75 12.85q-.75 3.55-6.1 6.7-5.55 3.2-14 5Q15.2 26.35 9 25.6q-6.2-.75-8.2-3.75-1.35-2.05-.35-4.5l.5-.95H1q1.4-2.35 4.95-4.5v-.05L17.2 3.6l.1-.05v-.1q.1-1.1.35-1.75.6-1.5 2.2-1.7 2.1-.15 2.9 2.55l.1.1.1.05 15.9 3.7.05.05 2.7 1.4q2.75 1.95 2.15 5"/><path fill="#fff9f6" d="M38.6 7.3 4.15 14.55l15.8-11.6L38.6 7.3"/><path fill="#1c191d" d="M43.35 12.5q-.65 3.4-6.05 6.45-5.35 3.05-13.6 4.8-8.2 1.75-14.3 1.1-6.1-.65-8-3.5-1.45-2.2.2-4.85 1.75-2.85 7.05-5.55 5.2-2.65 11.8-4.05 6.5-1.4 12.4-1.05 5.85.35 8.55 2.25 2.5 1.8 1.95 4.4"/><path fill="#d4d2d4" d="M41.05 8.6q4.2 3-.65 7.45-5.15 4.7-16.8 7.15t-18.15.2q-6.15-2.15-3.4-6.6 1.75-2.85 7.1-5.5 5.15-2.55 11.4-3.85 6.25-1.3 11.9-1.05 5.95.25 8.6 2.2"/><path fill="#a7a7a7" d="M9.3 12.55q2.4-3.4 11.2-5.2 8.8-1.8 12.3.25 2.5 1.55-.5 3.95-3.15 2.55-10.2 4.05l-10.9.35q-3.65-1-1.9-3.4"/><path fill="red" d="M20.7 5.25q-2.55.55-5.35 1.7L13.1 8l3.35-2.5 3.8-1.3 4.3-.2 3.8.9-7.65.35"/><path fill="#fff9f6" d="M18.4 4.05q-.15-3 1.5-3.15 1.7-.1 2 2.45l-3.5.7"/><path fill="#4c281e" d="m26 6.6 1.25-.2 12.7 10.25-.6.75L26 6.6m-2.25.25 1.15-.15 11.5 11.7-.65.7-12-12.25m-1 .1.9-.1 7.9 14.5-.8.5-8-14.9M26.5 23l-.85.25-3.85-16.1.85-.2L26.5 23m16.55-10.65-.35.85-15.25-6.75 2.05-.1 13.55 6m-28.7-3.2 1.4-.45L5.8 23.55l-.9-.35 9.45-14.05m2.6-.85 1.1-.3L9.7 24.3l-1-.1 8.25-15.9m1.3-.35.95-.2-3.35 16.6-.95.05 3.35-16.45m1-.25.9-.2.95 16.6-.9.1-.95-16.5m-7.95 2.6 2.6-1.05-12.4 11.1-.25-1L11.3 10.3"/><path fill="#3a281e" d="m25.8 43.25-5.5-35.8 1.45-.3L27.25 43l-1.45.25"/><path fill="#623826" d="M22.7 19.55 37 9.65l.25 1.05-13.95 9.55-.6-.7"/><path fill="#623826" d="M22.75 19.25 35.7 13.2l-.1 1.1-12.45 5.8-.4-.85"/><path fill="#623826" d="m22.4 19.35 11.2-3.85-.2 1.1-10.65 3.65-.35-.9"/><path fill="#623826" d="m32.9 6.35 1 .15-10.1 13.35-.8-.5 9.9-13"/><path fill="#623826" d="m26.45 6.5.85-.05-3.6 14.05-.95-.15 3.7-13.85"/><path fill="#623826" d="m23.25 19.45-.05.95-19.55-1.95-.3-1 19.9 2"/><path fill="#623826" d="m25.85 18.15.1.95L7.1 21.55l-.6-.8 19.35-2.6"/><path fill="#623826" d="m22.85 19.2.2.95-7.55 1.1-.15-.9 7.5-1.15"/><path fill="#623826" d="m22.15 19.6-.45.85-15.05-7.8.95-.6 14.55 7.55"/><path fill="#623826" d="m23.15 19.6-.65.65-9.3-10.7.9-.35 9.05 10.4"/></g><g id="d" fill-rule="evenodd"><path fill="#d4d2d4" d="M36.05 12.45q.8 5.6-2.85 10.2-3.65 4.55-11.65 4.45h-.85q3.7-1.9 4.55-10.25.4-4.05.75-5.1.65-2.05 2.25-1.7 2.8.6 7.8 2.4"/><path fill="#a7a7a7" d="m34 12.75 2.2-.35q.75 6.6-2.95 10.95T21.7 27.6h-.85q6.5-1.85 7.75-4.7 1.2-2.9 2.6-4.45 1.4-1.6 1.35-3.8-.1-2.25 1.45-1.9"/><path fill="#fff" d="m19 18.75-6.1-.5q-2.3-.35-2.55-1.35-.35-1.1 2.15-1.95l8.45-1.2q3.7-.3 4.05-.7 1.9-1.9 3.2-.7l1.5 2.2q.9 1.45.65 2.25-.55 1.9-3.05 2l-2.45-.05H19"/><path fill="#d4d2d4" d="M18.4 20.5q-1.3 1-2.85 1l-3.25-.4q-1.95-1.05-2-2.05-.05-1.25 3.3-.15 1.05.35 7.6-.05h6q.85.2 1.05 1.4.15 1.15-.75 1.5l-.3.5q-.9 0-4.1-1.65-1.45-.85-1.9-.95-1.35-.25-2.8.85"/><path fill="red" d="M18.3 21q0 2.8 2.8 2.8t2.8-2.8q0-2.8-2.8-2.8T18.3 21m-.25-3.05q1.25-1.3 3.05-1.3 1.8 0 3.1 1.3 1.25 1.25 1.25 3.05 0 1.8-1.25 3.1-1.3 1.25-3.1 1.25t-3.05-1.25q-1.3-1.3-1.3-3.1t1.3-3.05"/><path fill="red" d="M21.05 19.4q1.6 0 1.6 1.6t-1.6 1.6q-1.6 0-1.6-1.6t1.6-1.6m2.85-3.2h1.6v5h-1.6v-5"/><path fill="red" d="M23.9 15.45h3.15v1.6H23.9v-1.6M18.35 17H15.2v-1.6h3.15V17"/><path fill="red" d="M16.7 16.2h1.65v5H16.7v-5m3.5-2.25h1.65v3.65H20.2v-3.65"/><path fill="#1c191d" d="M1.75 9.9q.5-.45 6.15 0l5.5.6L0 14.35q1-3.7 1.75-4.45"/><path fill="#fff" d="m2.9 10.6 7.35.2-8.55 2.1q.5-2.05 1.2-2.3"/><path fill="#d4d2d4" d="M32.4.05q.8 1.3 2.7 6.4 1.3 3.4 1.05 3.45l-4.8.35q1.25-1.1 1.5-2.1l.05-2.7-.15-2.85L32.4.05"/><path fill="#1c191d" d="m29.55 10.3 5.55-.4 6.15.15q.75.8 1.65 4.5L29.55 10.3"/><path fill="#fff" d="m32.7 10.7 7.4.05q1 1 1.1 2.35l-8.5-2.4"/><path fill="red" d="m3.25 12.55-1.65.4q.5-1.9 1.15-2.25l1.75-.1-1.25 1.95m36.8-1.8q.75.25 1.15 2.35l-1.65-.45-1.25-2.05 1.75.15"/></g></defs></svg>