<svg xmlns="http://www.w3.org/2000/svg" xmlns:xlink="http://www.w3.org/1999/xlink" width="84.85" height="82"><g transform="translate(37.4 42.25)"><use xlink:href="#a" width="32.05" height="38" transform="translate(-11.95 -17.45)"/><use xlink:href="#b" width="33.05" height="38.95" transform="translate(-12.45 -17.95)"/><use xlink:href="#c" width="35.4" height="20.75" transform="translate(-13.55 3.1)"/></g><defs><path id="d" fill="#fff" fill-rule="evenodd" d="M27.35 7.4q2.15 4.15 3.55 8.75 1.45 4.7 1.15 9.5-.35 4.95-4.2 8.1-3.8 3.2-8.75 4.05l-2.6.2q-3.6 0-7.05-1.15-4.65-1.6-7.1-5.5Q-.2 27.4.05 23q.2-4.4 2-9.3Q3.85 8.75 7 5.05 10.1 1.3 14.7.1l1.8-.1q1.9.05 3.7.8 4.75 2.05 7.15 6.6" transform="translate(-.05)"/><path id="e" fill="none" stroke="#000" stroke-linecap="round" stroke-linejoin="round" d="M27.35 7.4Q24.95 2.85 20.2.8 17.55-.3 14.7.1 10.1 1.3 7 5.05q-3.15 3.7-4.95 8.65-1.8 4.9-2 9.3-.25 4.4 2.3 8.35 2.45 3.9 7.1 5.5 4.65 1.55 9.65.95 4.95-.85 8.75-4.05 3.85-3.15 4.2-8.1.3-4.8-1.15-9.5-1.4-4.6-3.55-8.75Z" transform="translate(.45 .5)"/><use xlink:href="#d" id="a" width="32.05" height="38"/><use xlink:href="#e" id="b" width="33.05" height="38.95"/><g id="c" fill-rule="evenodd"><path fill="#380f38" d="M34.8 2.95q-1.1 1.65-3.55-.85.3.2 1.95-2.1l1.4.3q1.45.75.2 2.65M1.85 1.85l4.35 2.5 2.55 6.25L6 12l-3.65-.5-.35-.75-.4-2.9-.4-3.65-.15-2.05.8-.3"/><path fill="#380f38" d="m2.5.6.05 1.65-1.3.8-1.2-.9Q-.1.95.6.35L1.3 0l1.2.6m32 1.4q.65-.05 0 4.75-.15 1.55-1.85 4.1l.85 1.1.25 1.05q-.2.8-2.25 1.35l.75.85q1.2 1.05-1.35 1.65l-3.05.85q-3.45 1.05-5.5 2.35-3 1-1.65-.7l-1 .15q-2.75 2.35-4 .25l-.75-.3q.3 1.7-1.7.8-4.3-3-9-3.35-2.9-.4-1-1.6l-.45-.45q-2.85-.7-1.45-2.7l1-1.8q14.25 2.2 23.75-.1 2.8-.65 5.4-4.45 2.5-3.75 3-3.8"/><path fill="#fd8bc3" d="M23 5.8q6-.45 10.4-1.85L18.6 19l-3.4-.25-1.75-.55Q11.75 16 8 15.3l-3.35-.25Q3.25 14.2 3 11.2l-.75-3.85Q1.9 4.85 2.2 3.2q.25-1.4.75-1.15Q11 6.75 23 5.8"/><path fill="#ff00a6" d="M33.75 2.1q1.35-.6-.9 6.05l-2.5 6.8-3.2.3Q23.6 16 21.9 18.2q-3.55 1.2-5.75.8l-.15.05-7.2-6.4L3.4 4q3.5 1.35 9.05 1.75 11.1.9 21.3-3.65"/><path fill="#fd8bc3" d="m2.55 4.05-1.5-1.9.9-1 1.8 1.4q2.1 1.45 3.7 1.7l-1.05.8L3.85 5l-1.3-.95"/><path fill="#e82c8b" d="m34.15 2-.1 2.1q-.55 5.95-2.8 7.35l-4.3.1Q21.9 12.3 18 15.7q8.45-8.1 8.8-11 4.5-.65 6.8-3.5l.55.8"/><path fill="#f754a6" d="M30.8 12.2q-.75 1.9-.65 2.35l-1.45.95q-2.45-.25-4.85 1.2-1.2.75-1.95 1.5 1.1-1.9-.1-2.5l-1.45-.25q7.7-4.95 10.45-3.25M17 15.85l-.3 2.65q1.6-.65-.15.1t-3.15-.5q-.9-1.2-1.6-1.35l-.15.05q2.05-.55-1.45-3.1l-.1-.7 6.9 2.85"/><path fill="#e82c8b" d="M26.2 7.1Q21.6 5.7 15.15 6q9.55-.75 11.65-1.55l2 .25q.2 1.4 0 1.65L28 7l-.95.35-.85-.25"/><path fill="#fd8bc2" d="M7.6 4.45 6.95 7.4q.2 3.4 4.4 5.6L3.5 12q-1-2.55-.7-7.8L1.05 2.15l.55-.9.8.1 5.2 3.1"/><path fill="#fff" d="m23.2 14.35-3.95 2.05q.1 1.5-.25 2.6-1.65 1.7-2.85 0l.05-2.7 2.05-1.45q5.4-3.8 10.2-4.05 2.45-.1 3.75.5 2.25 1.5-2 2.4.45-.25-.1-.8l-.25-.05q-2.3-.45-6.65 1.5"/><path fill="#fff" d="m16.25 16.5-4.55-2q-5-1.9-7.25-1.35.85-.05-.2.15l-.7.65q-2.95-.85-.7-2.35l3.6-.7q4.85.15 10.8 4.1l1.05.7-2.05.8m14.4-.45-2.85.55q-3.4.8-5.1 2.2-.55.55-.95.5-.4-.05.35-1.2.65-.9 2.05-1.8 2.75-1.8 6.2-1.45 2.3.45.3 1.2"/><path fill="#fff" d="M4.8 15q5.55-.6 8.6 3.1.75 1.15.35 1.2-.35.05-.95-.5-1.7-1.4-5.25-2.15l-3.05-.5q-2-.7.3-1.15"/><path fill="#e3e3e5" d="m30.6 15.75-2.6.4q-2.7.55-3.35 1.2L25 16.2l5.4-1q1.3.5.2.55m-12.05.45.05 2.8q.2.5.05.2l-1.95-.1q1.75-1.15 1.85-2.9M31 13.35q1.2-1.4-3.15-.6l2.1-1.15 1.6-.15q1.45.05.9 1l-1.45.9m-20.5 2.9.35 1.2q-.65-.7-3.55-1.15L4.5 16q-.7-.05-.35-.35l.55-.25 5.8.85m-7.6-4.5 3.75.95q-2.35-.1-2.6.4l.25.5q-2.05-.45-1.9-1.2l.5-.65m14.15 5.5q-.35-2.4-8.4-5l3.65 1q3.9 1.25 5.2 2.35l-.45 1.65"/><path fill="#3d093d" d="M32.1 2.6q-3.3 1.9-8.55 2.85Q13.1 7.3 3.3 2.5l2.05.45 1.8.8L12.3 5.1q8.85 1.35 18.5-2.35l1.3-.15"/><path fill="#3d093d" d="m31.95 2.7-.95.35-.2-.3L33.4 1l-1.45 1.7m-26.6.25-.5.25-2.9-2.05 3.4 1.8"/><path fill="#541e54" d="M29.75 13.95q.3-1.5-4.7.05l2.85-1.05q2.75-.75 2.3.75l-.45.25"/><path fill="#b82a65" d="M21 18.6q.2-.85 1-1.75 1.6-1.7 4.65-1.6-.85.2-1.9.7-2.1.95-3 2.5l-.75.15m-7.15 0q-1.65-2.85-5.5-3.4l-1.5-.3 1.35.1 2.75.7q3.05 1.1 4.4 3.05l-1.5-.15"/><path fill="#541e54" d="m16.15 19-1.1-2.2L10.2 14q2.1.45 6 2.3l-.05 2.7"/><path fill="#3d093d" d="m33.2 0 .55.95-1.3 1.25.75-2.2"/><path fill="#541e54" d="m7.25 11-1.55-.05q-1.85.15-3.2 1l-.65.55q.15-.7.9-1.2 1.5-1.1 4.5-.3m25.3.6q-1.05-.85-3.5-.75l-5.15.9q7.55-2.45 8.65-.15m-7.15 2.35q2.6-1 2.15-.45-.95 0-4.3 1.6l-3.15 1.6-1.05 2.25.2-2.55 6.15-2.45"/><path fill="#3d093d" d="M4 2.45v.2Q2.4 1.6 1.25 1.3L.4 1.25 1.3 0Q2.9.05 4 2.45m28.45-.7.65-.1Q31.35 5.45 20 5.4q3.05-.2 12.45-3.65"/><path fill="#3d093d" d="M12.75 5.35Q5.2 4.45 1.05 1.1L2.5.6l.9.55q5.75 3.55 9.35 4.2"/><path fill="#5c0059" d="M25.1 8.4q.55.7 0 1.25l-2.55-.1-.65-.2q-.7 0-1 .7l-.8-.85 1.75-.55q.1-.6.5-1 .75-.8 2.1.15l.65.6"/><path fill="#5c0059" d="m24.85 8.8-2.55-.05-.65-.2q-.7-.05-1.05.7l-.75-.85 1.75-.6q.1-.6.5-1 .75-.8 2.1.15l.65.6q.55.7 0 1.25"/><path fill="#5c0059" d="m15.3 7.3 2.1-.4q2.3-.25 3.4.7 2.15 2.95-.9 4.8-3.35 1.75-5.1-1.1-1.15-2.35.5-4"/><path fill="#5c0059" d="m14.1 7.65.4 1 1.75.7-.85.8q-.25-.75-.95-.75l-.65.15-2.6-.1q-.45-.6.1-1.25l.7-.55q1.4-.85 2.1 0"/><path fill="#5c0059" d="m15.3 7.8 1.75.7-.85.8q-.3-.75-1-.75l-.65.15L12 8.6q-.5-.55.1-1.25l.65-.55q1.45-.85 2.15 0l.4 1"/><path fill="#fff" d="M24.95 9.05 22.5 9l-.6-.15q-.65-.05-.95.55l-.7-.75 1.65-.5q.1-.5.45-.85.7-.65 1.95.15l.6.5q.5.65.05 1.1"/><path fill="#fff" d="m16.05 7.85 1.45-.3q1.65-.2 2.55.55 1.85 2.3-.7 3.7-2.25 1.35-3.7-.85-.95-1.85.4-3.1"/><path fill="#fff" d="m14.75 8.1 1.65.6-.8.7q-.25-.65-.9-.65l-.6.1-2.4-.05q-.45-.5.05-1.05l.65-.5q1.3-.75 1.95 0l.4.85"/><path fill="#e3e3e5" d="m17.05 7.6 1.7-.05q1.75.25 1.95 1.75l-.45 2q-1.1 1.7-4.05.25 3.15-1.35.95-3.7l-.1-.25m6.2-.2h.1q1.55.6 1.45 1.25 0 .75-1.2.5l-.3-.1q-.45-.1.35-.4 1.05-.4-.4-1.25m-9.65-.35q.75-.1.9 1l-1.75-.15-1 .55q-.05-.6.9-1.05l.95-.35"/><path fill="#fff" d="m9.15 6.35-3.5-.75q-1.2-.45-.9-.9l.5-.35 3.9 2"/><path fill="#cf007c" d="M29.3 10.15q-2.9.05-3.85.6l3-2.45q2.5-1.85-.1-2.75L33.1 3.2l-.2 2.7q-.3 2.95-.95 4.3l-2.65-.05"/><path fill="#fff" d="M10.55 6.8q-.1.6-1.25.9-1.15.35-1.15.7l.65 1.1.65.75-2-1.3q-.7-.45-.55-.85.55-1.05 1.35-.6L9 7.1 6.55 5.6l1.05-.35 2.95 1.55m15.25-.05 2.3-.6 2.1-.35q-3.4 2.65-4.35 1.4l-.05-.45"/><path fill="#541e54" d="m11.25 14.5-2.5-.75-3.55-.45q-.9.25-1.25.7l-.15.4-.4-.45.3-.45q.5-.45 1.6-.5 1.8-.1 5.5 1.15l.45.35"/></g></defs></svg>