<svg xmlns="http://www.w3.org/2000/svg" xmlns:xlink="http://www.w3.org/1999/xlink" width="84.85" height="82"><g transform="translate(37.4 42.25)"><use xlink:href="#a" width="32.05" height="38" transform="translate(-11.95 -17.45)"/><use xlink:href="#b" width="33.05" height="38.95" transform="translate(-12.45 -17.95)"/><use xlink:href="#c" width="33.7" height="32.45" transform="translate(-12.85 -2.6)"/></g><defs><path id="d" fill="#fff" fill-rule="evenodd" d="M27.35 7.4q2.15 4.15 3.55 8.75 1.45 4.7 1.15 9.5-.35 4.95-4.2 8.1-3.8 3.2-8.75 4.05l-2.6.2q-3.6 0-7.05-1.15-4.65-1.6-7.1-5.5Q-.2 27.4.05 23q.2-4.4 2-9.3Q3.85 8.75 7 5.05 10.1 1.3 14.7.1l1.8-.1q1.9.05 3.7.8 4.75 2.05 7.15 6.6" transform="translate(-.05)"/><path id="e" fill="none" stroke="#000" stroke-linecap="round" stroke-linejoin="round" d="M27.35 7.4Q24.95 2.85 20.2.8 17.55-.3 14.7.1 10.1 1.3 7 5.05q-3.15 3.7-4.95 8.65-1.8 4.9-2 9.3-.25 4.4 2.3 8.35 2.45 3.9 7.1 5.5 4.65 1.55 9.65.95 4.95-.85 8.75-4.05 3.85-3.15 4.2-8.1.3-4.8-1.15-9.5-1.4-4.6-3.55-8.75Z" transform="translate(.45 .5)"/><use xlink:href="#d" id="a" width="32.05" height="38"/><use xlink:href="#e" id="b" width="33.05" height="38.95"/><g id="c" fill-rule="evenodd"><path fill="#020100" d="m26.85 14.2.55 1 .8.8.9.85 1.85 1.1-.05.55.15 1.45.05.65.15 2.75q-.1.9.35 2.65v1.05l.1 1.05.15.45v.55q.15 1.5-.2 1.85l-1.3.35-1.5.25-3.2.55-3.05.35-2.05-.05-2.65-.05-1.7.1-1.5-.05-2.75-.05-2.3-.1-2-.3-1.95-.25-1.35-.35-1.2-.8q-.55-.65-.25-1.4l.55-1.2.15-1.6.5-2-.05-.75-.25-2.7-.15-1.2v-.6l.3-.4 1.7-1.35.65-.85 1.5-1.8.25-1.1.1-1.25q0-.85-.15-1.2l-.15-.3-.05-.4.1-.75q.2-.35 1.45-.85l.9-.2 7.2-.55 2-.1 2.95.1 2.1.4q1.25.35 1.65.7l.25.95-.1.55v1.2q0 1.1.55 2.3"/><path fill="#f9e1aa" d="m25.75 14.5 1.8 3.1 1.15.5.95.1.4 1.75.05 4.5q0 1.05.35 3.15l-.25 2.5-2.35.45-3.4.35-8.65.5-7.05-.35-2.4-.4-.8-.2-1.05-.2q-.35-.35-.15-.65l.2-.7.3-1.45q.3-2.05.15-3.15l-.05-3.55-.15-.65-.05-.4v-.4l.1-.4.25-.3.55-.15q.35 0 .85-.4l1.15-1.55 1.05-1.85.4-2.2q.1-.7-.05-1.25L8.7 10q.7-.35 4.35-.75l4.55-.2 4.95.15 1.9.3q1.15.3 1.1 1.2-.3 2.75.2 3.8"/><path fill="#c6aa71" d="m23.7 14.35.3.7.1.4.55.45.8.65.2.65-.6.45-1.95 1.85-.5.35-.65.3-.65.8-.3.35h-.2l-.55-.15-1.3-.15-1 .2-1.05.4-1.95.35-.65-.25-.8-.5-.6-.45h-.5l-.85-.15-.75-.5q-.25-.35 0-.85l.75-1.7q.45-.75.25-1.5l-.3-.95q-.1-.35-.35-.45h.2l-.1-.2-.25-.3-.2-.35.1-.2 1.75-1.25.45-1.15q.15-.5.8-.4.65.15 1.1.7l.55.6.7-.05.7-.05.45.2.75-.25 1.6-1q.6-.3.95-.3h.65l.75.05-.2.55q-.1.35.95.85.45.5-.35 1.35l.5.3.7.6"/><path fill="#9e8557" d="M13.2 13.55q.25-.25 1.05-.25l1.65.45q.6.25 1.05 0l.7-.45 1.5-.75q.1-.1.65-.3h.45l.2.55h.6l-.05.4q-.15.3.05.5.35.3 1.25.6.15.2-.45 1.4-.15.25-.05.5l.65.6.3.6-.45.6-.7.5-1.2.25-.7.9q-.3.3-.75 0l-.35-.2-.95.35-1.05.4-.8-.3-1.05-.55-.95-.1q-.55-.1-.8-.4-.4-.5 0-1.55l.25-1.2v-.7l-.15-.55q-.25-.95.1-1.3"/><path fill="#020100" d="m32.25 14.1.15 1.15-.05 1.3q-.05.75-1.85 1.15l-1.15.35-2.45.4-6.6.4-2.55.15-1.25-.1-4.4.1-1.6-.1-1.35-.05L4 18.3l-1.1-.25-.75-.3-.3-.65-.2-.75-.2-.85q-.3-1.15.3-1.5l1.45-.3 2.55.05 2.5.3 2.8.2 1.3.05 9.75-.4 2.8-.15 5.25-.3 1.2.05q.8.1.9.6"/><path fill="#6d3503" d="M31.6 14.6q.25.6.15 2l-.25.3-.6.2-1.25.3-3.1.4-7.2.25H16.8l-13-.4-1.15-.35-.45-1.1q-.3-.7-.05-1.25.25-.7.85-.65l-.15-.15.2.1.4.1.5.1 1.2.1 1.4.05 12 .35 2-.1 4-.15 4.25-.35 1.9-.1.6-.05.3.4"/><path fill="#020100" d="M26 10.1v-.05l-.65.45-.75-.05-.65-.45.25-.7.15-.45.75-1 3.05-3.3.35-.5L31.75.4l.4-.25h.2l.35.05.55.5.25.3.2.7-.05.4v.45l-.1.3-.1.2-.5.6-1 1-.4.4-.45.4-.8.7-.75.55-.25.35-1.25 1.15-1.6 1.4-.45.5"/><path fill="#f9e1aa" d="m31.75 1.65.25-.5.15-.2.1-.2v-.1l.6.25.15.75v.8l-.25.75-7.2 6.6-.1.2-.85-.45-.05-.05 1.65-1.65.55-.65L28 5.9l3.05-3.45.7-.8"/><path fill="#020100" d="m1.7.45.5.75L5 4.3l2.8 3 .85 1.1.8 1.05.25.4q.2.4 0 .5l-.15.05-.1.15-.2.15-.4.1q-.55 0-1.1-.45L3.4 6.7l-1-1-.35-.45-.4-.4-.4-.55L0 2.5l.05-.7.2-.75.35-.6.6-.4q.4-.15.5.4"/><path fill="#f9e1aa" d="m1.65 1.25.4.65 2.5 2.95 1.25 1.3L9.25 9.8H9.2l-.85.45-.15-.2-.8-.85L1 3.45l-.2-.7V1.9l.15-.7.45-.45V.8l.1.25.15.2"/><path fill="#e5052b" d="M18.75 27.25q.1 1.1.65 1.4l.25.15.8.5 1.25.25q1.05.1 1.5-.35l.6-.85.3-1.1v-.7l.15-.9.5.45-.05.25v.35l.1.7.25.5.5.35 1.1.6 1 .15.8-1.15.65-1.5-.05-1h.65l.4.7.25.6-.05.7.1 1.05-.2 1.15v.4l-.2.25-.7.25-.7.15-4.2.25-.85.05-1.6.2-1.95.15-1.75.1-5.2.1-3.55-.25-2.35-.3-2.2-.5-.65-.15q-.25-.2-.15-.7L4.4 29v-.3l.15-.4.15-.35-.05-.15.05-.2v-.4l.1-.35.15-.35v-.4q.1-.05.25.25v.2l.1.2-.05.35v.4l-.05.4-.05.4q.25.55.65.25l.1-.3.1-.45.25-.3.3-.4.5-1.25.1-.4.15-.4.25.05-.1.3.1.4-.1.8.8.9.65 1.1.8.3q.2.05.85.45l1.05.3.7.05.6.3h.4l.3-.45.4-.45.2-.65-.1-.45-.1-.4-.4-.9.3.05.4.15.15.4.2.55.85.65.7.65q.35.45.9.5l.5-.05.35-.45.25-.7.15-.65v-1.1l-.05-.2-.1-.2.25-.2.25.45.05.7"/><path fill="#e5052b" d="M19.1 26.1q-.2.1-.45-.4l-.15-.65-.05-.7.15-.2q.1 0 .25.15v.45l.35.55.05.5-.15.35v-.05m-2.6-1.75q-.25-1.1.3-.65l.1.3-.25.7-.15-.45v.1m-8.2.6q-.65-1.1-.25-1.45.6-.5 1 .3.1.3-.25.9-.4.55-.5.25m17.6.9-.35-.7q-.2-.55-.05-.85.2-.45.8-.3.85.35.7 1.05l-.55.5-.55.3m-2.1-2.1q0-.95.35-1.05.3.4.05.85-.3.6-.4.2m4.4-1.85q-.2-.8.1-.9l.4.3q.15.4-.2.9l-.25-.2-.05-.1m-1.6 5.15.15.05.4.2.25.3q.3.7-.35.6l-.5-.45q-.35-.5.05-.7m-7.3.7.65.1q1.05.7.7 1-.35 0-.95-.5l-.4-.6m-4.05-.9h.05l.35.4.3.5V28q-.1.25-.35-.2-.45-.7-.35-.95m-6.1.95-.05-.1.5.05q.5.35.4.85-.2.05-.6-.3-.4-.35-.25-.5"/><path fill="#e5052b" d="m10.45 28.15-.1-.15.7.1q.8.2.8.85 0 .85-.95.35-1-.75-.45-1.15m2.55.45q.25-.15.25.3 0 .6-.3.6l-.15-.55v-.05l.2-.3m-1.7-3-.15-.05.4.1q.25.25.1.7l-.65.05-.05-.5.35-.3"/><path fill="#8c4613" d="M10.15 14.8h1.7l.5.1v.35l.15 1.4v.85l-.05.25.05.25-.5-.1-2.9.05-.45-.15-.05-.25.15-2.55.05-.25 1.35.05"/><path fill="#b2642f" d="M9.9 14.75H11l.2.05h.15l.05 2.85.05.3H9.8l.1-.35-.05-1.65.05-.4v-.8"/><path fill="#8c4613" d="m26.4 14.55.75-.1h1.45l.05.15v.55l.5 2.2.05.15H29l-.2.05-2.4.25h-.35l-.2.05h-.2l-.75.1h-.95l-.05-.2-.05-1.65-.05-.3v-.3l.05-.25v-.55h.7l.2-.05 1.65-.1"/><path fill="#b2642f" d="m25.5 14.6.35-.1.45-.05h.85l.1.3v.2l.3 1 .1.5v.25l.05.2.1.75-.5.1-1.3.05-.25.05v-.15l-.05-.1-.05-.35-.05-1.1v-.9l-.1-.65"/></g></defs></svg>