<svg xmlns="http://www.w3.org/2000/svg" xmlns:xlink="http://www.w3.org/1999/xlink" width="84.85" height="82"><g transform="translate(37.4 42.25)"><use xlink:href="#a" width="32.05" height="38" transform="translate(-11.95 -17.45)"/><use xlink:href="#b" width="33.05" height="38.95" transform="translate(-12.45 -17.95)"/><use xlink:href="#c" width="35.9" height="31.45" transform="translate(-14.2 -.45)"/></g><defs><path id="d" fill="#fff" fill-rule="evenodd" d="M27.35 7.4q2.15 4.15 3.55 8.75 1.45 4.7 1.15 9.5-.35 4.95-4.2 8.1-3.8 3.2-8.75 4.05l-2.6.2q-3.6 0-7.05-1.15-4.65-1.6-7.1-5.5Q-.2 27.4.05 23q.2-4.4 2-9.3Q3.85 8.75 7 5.05 10.1 1.3 14.7.1l1.8-.1q1.9.05 3.7.8 4.75 2.05 7.15 6.6" transform="translate(-.05)"/><path id="e" fill="none" stroke="#000" stroke-linecap="round" stroke-linejoin="round" d="M27.35 7.4Q24.95 2.85 20.2.8 17.55-.3 14.7.1 10.1 1.3 7 5.05q-3.15 3.7-4.95 8.65-1.8 4.9-2 9.3-.25 4.4 2.3 8.35 2.45 3.9 7.1 5.5 4.65 1.55 9.65.95 4.95-.85 8.75-4.05 3.85-3.15 4.2-8.1.3-4.8-1.15-9.5-1.4-4.6-3.55-8.75Z" transform="translate(.45 .5)"/><use xlink:href="#d" id="a" width="32.05" height="38"/><use xlink:href="#e" id="b" width="33.05" height="38.95"/><g id="c" fill-rule="evenodd"><path fill="#0d090e" d="m35.75 21.65.15 1.15-.3.3-2.3 2.15-.05.35-.35.2-2.65 1.1v.5l-.45.25-2.65.75v.65l-.4.2q-.95.6-4.25.85l-.2.9-.5.1-6.65.35h-.8v-.75l-4.1-.95.1-.7Q6.3 28.05 6 27.7q-1.55-.3-3.05-1.3l-.4-.25-.05-.95L0 23.25 3.15 11.8 1.6 3.15l3.1-3 .6.8 4.1 4.3q4.85 4.25 9.15 4.25 6.8 0 13.4-8.8l.55-.7 2.9 2.25-2.35 12.7 2.7 6.7"/><path fill="#d2c0a9" d="m34.95 21.85.05.65-2.45 2.15-.05.4-3.05 1.25-.05.6-3.1.8v.85q-.8.5-4.5.75l-.25 1-6.35.3v-.65l-4-.85.05-.65q-4.6-.85-4.75-1.5l-3.15-1.3-.05-.9-2.3-1.8 3.05-11.1-1.5-8.4 2.05-2L8.8 5.9q5.15 4.45 9.75 4.45 7.3 0 14.1-9.15l1.85 1.4L32.2 15l2.75 6.85"/><path fill="#a98d6d" d="m25.65 12.75 2.8-.3q1.25-.45 1.6-2 .65-2.95 2-5.25l1.25-1.7q-1.45 2.7-1.25 11.25-.1.35.45 3.4.45 2.8.2 2.95-.2.1-1.15-2.2-.95-2.25-1.5-2.05-.5.2-.05 3.25.5 3.05.05 3.35-.5.3-1.9-2.5t-1.8-2.5q-.8.55 1.2 6.3.2 1.55-1.9 2.35l-3.3.9q-.85.35-2.4-3.55-1.6-4.05-2-4.1-.55-.1-1.7 2.9-1.15 2.95-1.4 2.85-.15-.05.2-3.05.35-2.95-.5-3.2-.8-.2-2.1 2.45-1.25 2.65-1.65 2.55-.5-.15-.1-3.4.4-3.2 0-3.25-.45-.05-1.85 2.05-1.2 1.75-1.15 1.1.5-4.7-.9-4.7-.7 0-1.8 1.2l-.9.8q2.75-4.9 2.85-5.9l.35-2.6q.2-.25.85 1.7.6 1.9.8 1.35.3-.7 1.3-.2.9.45 1.45 1.25l1.7 3.2q1.75 1.85 4.9-1.7 2.6-2.95 7.35-3"/><path fill="#0d090e" d="m2.3 24.85 2.75-6.65q.55-1.05-1.75 6.85l-1-.2m25.1 3.35-1 .15q-2.1-7.95-1.55-6.9l2.55 6.75m-4.6 1.5-1.05.05-.45-6.45 1.5 6.4m7.9-3.4-.95.25q-3-7.7-2.35-6.65l3.3 6.4m3.05-1.95-1 .2q-2.3-7.9-1.75-6.85l2.75 6.65"/><path fill="#0d090e" d="m31.8 12.5 1.15-.8.3 2.35-.4.3q-4.65 3.4-10.6 4.45l1.25 3.5-1.95.65-.45-1.05-.6 4.85-2.15-.85.1-.65.75-6.2q-6.85.05-12.3-2.65l-4.3-2.85-.35-.4.75-2.1.95.7L8.7 14.4q5.95 2.55 11.9 2.05 6.15-.5 11.2-3.95"/><path fill="#b88d68" d="m32.3 13.2.05.5q-5.3 3.85-11.25 4.4l1.3 3.65-.35.1-1.35-3.3-.9 7-.5-.2q.8-5.35.8-7.15-7.05.25-12.65-2.45l-4.25-2.8.2-.5 4.9 2.75q6.1 2.6 12.35 2.1 6.5-.5 11.65-4.1"/><path fill="#ffedd4" d="M27.35 7.95q-3.7 2.2-6.85 3.45-.8.3-3.05 2-1.3 1-3.65.7-1.75-.25-4.15-3.6-1.75-2.3-2.9-3.25Q6.2 6.8 6 8q-.2 1.05-.4.6L3.3 3.65 4.5 2.6l2.75 2.65q3.35 2.9 6.3 4.4 4.75 2.35 13.8-1.7M4.1 15.15q-.65 1-.85 3.7-.2 2.4 0 2.75.35.5-.75 2.6-.7-.35-1.5-1.25l1.5-5.7.8-2.85.55.15q.7-.1.25.6M5 19v4.35q-.2 1.5.3 3.2-2-.5-2.15-1.05L5 19m1.5 7.95 1.95-5.75-.1 5 .75 1.85q-2.35-.45-2.6-1.1m5.95-3.8-.15 4.05q.15 1.65 1.25 2.3l-2.35-.4q-.35-.25.4-3.1l.85-2.85m2.75 7.35q-.15-5 1-7.05.55-1.05.8 2.35.2 4.2.9 4.7h-2.7"/><path fill="#0d090e" d="M12.35 23.6q-1.15 3.35-1.3 6l-1-.15q1.05-5.85 2.75-7.7.25-.3-.45 1.85m2.85 6.9-1.05-.1q.2-4.2 1.4-6.7.95-2.1 1.25-1.8.25.25-1.05 3.15-.15.4-.55 5.45m-9.8-3.45 3.3-6.4q.65-1.05-2.3 6.65l-1-.25m11.7.05q0-3.4 2.55-3.4t2.55 3.4q0 3.35-2.55 3.35T17.1 27.1"/><path fill="#b88d68" d="M21.45 27.1q0 2.75-1.8 2.75t-1.8-2.75q0-2.75 1.8-2.75t1.8 2.75"/><path fill="#0d090e" d="m18.5 24.8 2.8.3q1.3.6 1.15 1.35l-.3.85-.65-.2q-1.3-.95-2.75-.7l-1.2.45-.25.55-.15-.3q-.75-.75-.2-1.45.45-.7 1.55-.85"/><path fill="#b88d68" d="M17.15 26.35Q17 24.9 19.45 25q2.5.1 2.45 1.6-1.55-1.2-3.3-.85l-1.45.6"/><path fill="#ebc58b" d="M18.55 28.25q-.55-1 .05-1.3.55-.3 1.1.7.45 1-.05 1.25-.55.35-1.1-.65"/><path fill="#0d090e" d="M21.6 25.2q-1.6-2.95.65-4.2 2.25-1.15 3.85 1.75 1.6 3-.6 4.2-2.3 1.25-3.9-1.75"/><path fill="#b88d68" d="M25.45 23.15q1.3 2.35-.3 3.25-1.55.9-2.85-1.55-1.4-2.4.25-3.25 1.55-.9 2.9 1.55"/><path fill="#0d090e" d="M24.35 21.5q1.4-.15 1.65.6l.15.9-.7.15q-1.6-.25-2.75.65l-.8 1 .05.6-.3-.2q-1-.3-.9-1.15.1-.85.95-1.5 1.2-.9 2.65-1.05"/><path fill="#b88d68" d="M21.3 24.55q-.85-1.2 1.4-2.3 2.2-1.1 2.85.25-1.95-.3-3.3.85l-.95 1.2"/><path fill="#ebc58b" d="M23.45 25.55q-.95-.65-.6-1.15l1.3.05q.9.65.55 1.15l-1.25-.05"/><path fill="#ffedd4" d="M33.35 18 35 22.5q.05.6-1.15 1.1-.05-3.95-.5-5.6m-1.75 2.3q1.55 4.35 1.2 4.7-.4.4-2 .8 1.75-1.45.8-5.5m-3.65 7.05q1.65-.75 1.05-3 .85 2.4.65 2.5l-1.7.5M23.1 29.2q2-.35 3.05-1.85l.15 1.2-3.2.65"/></g></defs></svg>