<svg xmlns="http://www.w3.org/2000/svg" xmlns:xlink="http://www.w3.org/1999/xlink" width="84.85" height="82"><g transform="translate(37.4 42.25)"><use xlink:href="#a" width="32.05" height="38" transform="translate(-11.95 -17.45)"/><use xlink:href="#b" width="33.05" height="38.95" transform="translate(-12.45 -17.95)"/><use xlink:href="#c" width="45.7" height="24.8" transform="translate(-19 .15)"/></g><defs><path id="d" fill="#fff" fill-rule="evenodd" d="M27.35 7.4q2.15 4.15 3.55 8.75 1.45 4.7 1.15 9.5-.35 4.95-4.2 8.1-3.8 3.2-8.75 4.05l-2.6.2q-3.6 0-7.05-1.15-4.65-1.6-7.1-5.5Q-.2 27.4.05 23q.2-4.4 2-9.3Q3.85 8.75 7 5.05 10.1 1.3 14.7.1l1.8-.1q1.9.05 3.7.8 4.75 2.05 7.15 6.6" transform="translate(-.05)"/><path id="e" fill="none" stroke="#000" stroke-linecap="round" stroke-linejoin="round" d="M27.35 7.4Q24.95 2.85 20.2.8 17.55-.3 14.7.1 10.1 1.3 7 5.05q-3.15 3.7-4.95 8.65-1.8 4.9-2 9.3-.25 4.4 2.3 8.35 2.45 3.9 7.1 5.5 4.65 1.55 9.65.95 4.95-.85 8.75-4.05 3.85-3.15 4.2-8.1.3-4.8-1.15-9.5-1.4-4.6-3.55-8.75Z" transform="translate(.45 .5)"/><use xlink:href="#d" id="a" width="32.05" height="38"/><use xlink:href="#e" id="b" width="33.05" height="38.95"/><g id="c" fill-rule="evenodd"><path fill="#0d090e" d="m43.45 21.5-.3.85q-1.15 1.2-9 1.9l-10.35.55h-1.9q-17.4 0-19.6-2.35l-.35-.9Q3.5 18.15 4.3 16l-2.45-.1q-2.7-1.65-1.5-5.85.95-3.1 3.7-6.6Q6.8-.05 8.25 0 9.5.05 11.8 1.6q5.05 3.35 11 3.35 6.05 0 11.05-3.35Q36.15.05 37.4 0q1.45-.05 4.25 3.45Q44.4 7 45.3 10.05q1.25 4.15-1.55 5.9l-2.6.05 2.3 5.5"/><path fill="#825540" d="m39.3 13.55 3.3 8q.05.9-6.6 1.7l-12.2.7h-1.9L9.6 23.3q-6.85-.75-6.8-1.7l3.45-8.2Q4.3 16.2 2.3 15.2q-3.3-2.05.45-8.35Q6.3.8 8.25.85q.55 0 4.75 2.5 4.1 2.45 9.8 2.45 5.7 0 9.9-2.45 4.25-2.5 4.75-2.5 1.95-.05 5.5 6 3.7 6.3.4 8.35-2 1-4.05-1.65"/><path fill="#3a1917" d="M5.3 6.1q2.2.35.95 4.5-1.25 4.1-3.2 3.75-1.95-.3-.95-4.45t3.2-3.8m35.15 0q2.15-.35 3.15 3.8 1 4.15-.9 4.45-1.95.35-3.2-3.75-1.25-4.15.95-4.5"/><path fill="#5d3021" d="M39.55 17q.95 3.4.35 3.35-.45 0-1.6-2.7-1.1-2.6-1.4-2.45-.35.2.65 2.95l.85 2.9q-1.75 1.1-2.75.75-.45-.2-1.65-3-1.15-2.8-1.45-2.85-.4-.1-.2 1.4.2 1.45.55 1.85.35.4.3 1.3-.05.95-.55 1.35-2.45 2-3.35 1.45l-2.7-2.8q-2.4-2.45-2.7-2.2-2.1 4.3-2.6 4.55-.65.3-2-.4-.4-.2-1.15.3-.7.5-1 .35-.3-.15-.45-1.25-.15-1.1-.4-1.15-1 1.35-1.5 1.25-.2-.05.2-2.95.4-2.9 0-2.9t-1.7 2.85q-1.3 2.8-1.55 2.75-.25-.05.05-3.15.25-3.15 0-3.35-.25-.2-1.35 1.25-1.1 1.35-1.2 1.1l.8-4.85 1.75-3.9q.25 0 .6-1.1.6-.15 1.4 1.35.6-.1.5-2.7.2 0 .8 1.35.6 1.4.95 1.35.35-.05.5-1.3.15-1.2.45-1.15.55.2 1.8 2.95.45 0 .85-1.6l.6 1.05q.45.9.9.7.75-.35.9-2.15l.6 1.25q.35 1.1.85.9.8-.35 1.3-2l.55.85q.35.7.8.55.75-.25 1.85-2.5-.5 2.75.3 2.45l1.55-1.7q1.05-1.45 1.4-1.4.3.05.05 1.2-.3 1.15.1 1.15.75 0 2.65-3.25-.4 3.15.25 2.55l1.75-2.8q.35 0 1.85 7.3l1.65 4.9"/><path fill="#0d090e" d="M23.25 10.25Q30 10.2 37.7 7.75l1.3 4.2-.05.05q-6.95 2.6-15.4 2.7h-.4q-5.4-.05-11-1.35L7.45 12l-.75-.25 1.1-4.3.85.3L13.45 9q5.55 1.2 9.8 1.25"/><path fill="#825540" d="M23.25 11.1Q30.2 11.05 38 8.55l.65 2.65q-6.8 2.6-15.3 2.65h-.2q-5.35-.05-11.1-1.35L7.4 11.15l.9-2.65 4.85 1.3q5.75 1.25 10.1 1.3"/><path fill="#0d090e" d="M20.9 10.35q.3-.4 1.55-.8l1.95-.2q.75.2 2.15 1.35 1.4 1.2 1.35 1.65l-.35 2.45 2.25 3.3q2 3.1 1.7 3.5-.75 1.05-4.2 1.95-.75.15-3.5-6.7-3.3 5.2-3.65 5.1-4.35-1.6-4.1-2.25l4.1-5.35q-.85-.65-.65-1.55l1.4-2.45"/><path fill="#825540" d="M21.55 10.95q1.15-1.15 2.6-.75.5.1 1.6 1l1.3 1.25-.4 2.5.75 1.05q2.25 2.95 3.2 5.25-1.3.85-3.15 1.35-.7-.85-2.85-6.05l-.6-1.5-.9 1.35-3.15 4.6-2.85-1.35 3.65-4.7.6-.65-.65-.6q-.4-.3-.4-.7v-.05q.15-.8 1.25-2"/><path fill="#0d090e" d="M3.8 15.45q2.1 0 3.7-6.1-.2 1.05-.05 2.15l-1.7 3.15L3.3 19.8l1.2-4.1-.7-.25m37.75-.2-.65.45 1.15 4.1q-3.3-5.75-4.15-10.45.25.95.95 2.1 1.4 3.7 2.7 3.8"/><path fill="#5d3021" d="M37.1 9.4q.8 2.05.6 2.15-4.4 1.55-10 2l.15-1.5 3.5-.3L37.1 9.4m-17.45 4.3q-7.1-.75-10.05-1.85l4.75.35q-4.2-1.45-4.25-1.7l9.65 1.65-.3.9.2.65m7.05.65v.75q2.5 4.1 2.2 4l-.95-.95q-.75-.75-.75-.35 1.05 3.75.55 3.45L24.8 15.2q.95.15 1.9-.85m-2.85.8-3.15 4.7.35-1.9q.1-.4-.85.25l-1.2.65 2.45-2.75q.9-.9-.1-1.8 1.35 1.05 2.5.85"/><path fill="#5d3021" d="m27.05 12.45-.35 1.9q-.8 1.1-3.55.85-.95-.05-1.85-.9l-.65-.85 2.55.65q.8-.2.8-1.75l1.45.05q.55-.15-.05-1.15l1.65 1.2"/><path fill="#b87c62" d="M23 10.5q.6.1 1.1.5.5.4 0 .45l-1.7 1.25q-.5.25-1.5-.45-.45-.35.85-1.4L23 10.5m-2.95.85-9.7-1.9Q8.9 9.4 8.8 10.4q-.1.85-.75.7-.2-.1-.05-1.25.1-1.2.55-1.15l11.75 2.25-.25.4m6.85-.4 7.9-1.6q-.6.7-4.3 1.55l-3.6.05M3 21.6q-.3-.6 1.95-5.1l2.3-4.4q-1.45 4-.95 3.5l2-2.25-1.7 3.85q-1.55 3.45-1.1 3.25.75-.3 2.75-1.7l-.8 2.2q-.85 1.85-1.2 1.8Q3.35 22.5 3 21.6m5.5 1.5q-.5-.25 2.4-4 .7 4.1 0 4.15l-2.4-.15m5-2.85q.25 3.25.05 3.25l-1.45-.05q-.5-.05 1.4-3.2m9.75 1.6.85 2-2 .05q.9-2.1 1.15-2.05M38.9 13.1l3.7 8.3q.3.85-1.8.95.75-.9.7-1.35l-2.6-7.9M2.05 8.35q-1.3 5.75 2.45 6.7-1.5 1.1-3.25-1-.85-1-.1-3.45l.9-2.25m36.75 2.5q.95 2.6 3.25 3.35 1.1.35 2.85-2.1-.35 3.35-2.6 3.25-1.7-.05-2.8-2.3l-.7-2.2"/></g></defs></svg>