<svg xmlns="http://www.w3.org/2000/svg" xmlns:xlink="http://www.w3.org/1999/xlink" width="84.85" height="82"><g transform="translate(37.4 42.25)"><use xlink:href="#a" width="32.05" height="38" transform="translate(-11.95 -17.45)"/><use xlink:href="#b" width="33.05" height="38.95" transform="translate(-12.45 -17.95)"/><use xlink:href="#c" width="39.75" height="25.15" transform="translate(-15.25 .1)"/></g><defs><path id="d" fill="#fff" fill-rule="evenodd" d="M27.35 7.4q2.15 4.15 3.55 8.75 1.45 4.7 1.15 9.5-.35 4.95-4.2 8.1-3.8 3.2-8.75 4.05l-2.6.2q-3.6 0-7.05-1.15-4.65-1.6-7.1-5.5Q-.2 27.4.05 23q.2-4.4 2-9.3Q3.85 8.75 7 5.05 10.1 1.3 14.7.1l1.8-.1q1.9.05 3.7.8 4.75 2.05 7.15 6.6" transform="translate(-.05)"/><path id="e" fill="none" stroke="#000" stroke-linecap="round" stroke-linejoin="round" d="M27.35 7.4Q24.95 2.85 20.2.8 17.55-.3 14.7.1 10.1 1.3 7 5.05q-3.15 3.7-4.95 8.65-1.8 4.9-2 9.3-.25 4.4 2.3 8.35 2.45 3.9 7.1 5.5 4.65 1.55 9.65.95 4.95-.85 8.75-4.05 3.85-3.15 4.2-8.1.3-4.8-1.15-9.5-1.4-4.6-3.55-8.75Z" transform="translate(.45 .5)"/><use xlink:href="#d" id="a" width="32.05" height="38"/><use xlink:href="#e" id="b" width="33.05" height="38.95"/><g id="c" fill-rule="evenodd"><path d="M37.25 20.45q.25.15.15.5l-.5.3-1.65-.05.4.55.1.25-.1.25-.45.25-2.4-.2.25.75v.15l-.15.3-.5.1-1.55-.55-.05 1.2-.3.4-.5-.05-1.6-1.2-.3.9-.3.3-.5-.1-1-.85-.65 1.25-.45.25q-.3 0-.4-.2l-1-1.45-1.05.85-.5.1-.35-.4-.15-1.45-1.75.5q-.35.1-.5-.15l-.15-.3.1-.25 1-1.75-2.2.05.4 2.3v.05l-.15.4-.5.05-1.6-.6-.2 1.35-.3.35-.5-.05-1.75-1.45-.55 1.05-.4.3-.45-.2-1-1.15-1.2.95-.55.05-.3-.45.05-.6-.8.6-.5.05-.3-.4-.05-1.15-2.4.75q-.25.1-.45-.2l-.1-.25.1-.2q.25-.45.4-1.3l-2.6.05-.35-.35.15-.45q3.05-2.5 3.15-5.75 0-.45.5-.45l.4.2q21.65 3.4 26.35.15l.5-.05.3.4q.15 2.8 3.7 5.75"/><path fill="#a30000" d="m17.6 22.45-2.05-.8-.1 1.85-2.1-1.85-.75 1.75-1.25-1.45L10.2 23l-.05-1.7-1.7 1.4v-2q-1.9 1.15-2.55 1.25l.25-2.15q-1.2.6-2.45.35 2.35-2.95 2.65-4.95 21.2 2.95 26.3.2.6 2.6 3.25 5l-2.1-.15.9 1.45-3-.3.5 1.4-2.2-.85.1 1.9L27.85 22l-.3 1.8-1.5-1.35-.85 1.8-1.15-2.2-1.4 1.35-.15-2.1-1.8.8 1.25-2.45h-4.9l.55 2.8"/><path fill="#600" d="m15.55 21.65-.1 1.85-2.1-1.85-.75 1.75-1.25-1.45L10.2 23l-.05-1.7-.8.65q1.55-3.4 6.1-3.4l8.3-.35q0 1.95-1.25 3.35v-.25l-1.8.8 1.25-2.45h-4.9l.55 2.8-2.05-.8m11.65-5.1q3.7-.25 5.45-1.15.6 2.6 3.25 5l-2.1-.15.9 1.45-3-.3.5 1.4-2.2-.85.1 1.9-1.25-1q0-3.3-1.65-6.3"/><path d="M33.95 14.1q.15.4-.1 1.55-2.2 2.15-11.8 2.6-10.75.5-16.75-3l-.15-1.5q8.35 3.65 28.8.35"/><path d="M17.5 15.75q.95 2.05.6 2.1-1.65 3.15-2.25 2.95l-2-1.55q3.2-3.45 3.65-3.5m3.6.4q.45 0 4.2 2.85-1 1.55-1.7 1.9-.5.25-2.75-2.6-.3 0 .25-2.15"/><path d="m22.15 15.5-.45.3q-7.9.9-13.7-.85-4.35-1.35-4.85-2.75-.35-.85-.45-5.3-.1-5.05.9-5.55l.45-.05q3.15.75 9 5.25 5.85 4.45 9.05 8.5.2.25.05.45"/><path fill="#a30000" d="M4.2 11.9Q3.85 11 3.65 7q-.2-4.3.5-4.65 3 1 8.05 4.7 5.45 4.05 8.45 7.9-11.1.75-16.45-3.05"/><path fill="#600" d="M16.75 10.8q2.4 2.2 3.9 4.15-11.1.75-16.45-3.05l-.15-1.5q.65 0 2.65.65 1.55.5 2.65 0l-.75 1.5q-.1.4 1.15 1 6.95 2.45 7-2.75"/><path d="M23.3 15.45q-.3.75-1.55 1-2.55.3-3.65-.85-2.7-3.95-8.5-8.1-4.75-3.4-7.15-4.15L2.1 3Q1.9 1.5 3.4.1l.45-.1q2.9.2 9.5 5.05 7.15 5.25 9.9 10.1l.05.3"/><path fill="#a30000" d="M22.2 15.3q-1.35.8-3.2-.2-2.65-4-8.55-8.2-4.8-3.4-7.2-4.15-.1-1 .8-1.75 2.7.2 8.75 4.6 6.7 4.9 9.4 9.7"/><path fill="#600" d="M22.2 15.3q-1.35.8-3.2-.2l-5.65-6 3.8 2.65q.25-2.4-6.35-7.5 8.1 5.3 11.4 11.05"/><path d="m35.45 1.75.45.05q1.55.85.1 10.85-.55 1.4-4.95 2.6l-13.75.45-.4-.25q-.15-.25.05-.45 3.3-4 9.35-8.3 6-4.3 9.15-4.95"/><path fill="#a30000" d="M18.45 14.9q3.15-3.75 8.7-7.65 5.2-3.6 8.2-4.45.65.35.3 4.65-.3 3.95-.7 4.9-5.6 3.6-16.5 2.55"/><path fill="#600" d="M29.5 11.5q0-1.35-1.05-1.1l1.75-1.95q.3.55-.1 3.2-.25 1.4 1.9.3.4-2.1-.4-3.8-.8-1.6-2.05-2.05l5.8-3.3q.65.35.3 4.65-.3 3.95-.7 4.9-5.6 3.6-16.5 2.55l2.1-2.25q1 1.25 3.4 1.45l3.8-.55q1.75-.7 1.75-2.05"/><path d="m36.95 3.4-.35.35q-2.4.7-7.25 3.95-6 4-8.75 7.85-1.25 1.15-3.7.75-1.25-.25-1.5-1v-.35q2.9-4.75 10.25-9.8Q32.4.5 35.3.35l.45.15q1.5 1.3 1.2 2.9"/><path fill="#a30000" d="M16.5 15.15q2.85-4.7 9.7-9.4 6.15-4.25 8.9-4.4.9.75.75 1.75-2.4.7-7.35 4-6 4-8.85 7.9l-3.15.15"/><path fill="#600" d="M35.1 1.35q.9.75.75 1.75-2.4.7-7.35 4-6 4-8.85 7.9l-1.45.4q2.2-3.5 6.6-6.75 4-2.65 7.95-5.35-2.7.3-6.55 2.45 6.2-4.3 8.9-4.4"/><path d="m6.45 7.4-.55-.6.4.8.15-.2m.9-3.3L6.5 6.05 7.7 7.3l-.65.95L8.4 9.7l-2.05 1.55-.15-.75q-.95-4.25-2.45-4.55-.55-.1-1.35.8l-.3.4L0 5.6l1.45-1-1.1-1.55 2.85.2.75-1.8L5.3 4.1h2.05"/><path fill="#a30000" d="M5.3 7.1q-1.25-2.9-3-.8l-1.1-.7 1.25-.75-.8-1.1 2 .45.4-1.3.75 1.95 1.55-.05-.4 1.35 1.1 1.2-.6.95L7.7 9.65l-1.55.75Q5.9 8.55 5.3 7.1"/><path d="m33.3 7.35.15.2.4-.8-.55.6m2.5-5.95.7 1.8 2.9-.25-1.1 1.6 1.45 1-2.1 1.55-.3-.4q-.8-.9-1.35-.8-1.5.3-2.45 4.55l-.15.75-2.05-1.55L32.7 8.2l-.65-.95L33.25 6l-.85-1.95h2.05L35.8 1.4"/><path fill="#600" d="m38.55 5.5-1.1.75q-1.8-2.1-3 .8-.6 1.45-.85 3.3l-1.55-.75 1.25-1.35-.6-.95 1.1-1.2-.45-1.35 1.6.05.75-1.95.4 1.3 2-.5-.8 1.15 1.25.7"/></g></defs></svg>