<svg xmlns="http://www.w3.org/2000/svg" xmlns:xlink="http://www.w3.org/1999/xlink" width="84.85" height="82"><g transform="translate(37.4 42.25)"><use xlink:href="#a" width="32.05" height="38" transform="translate(-11.95 -17.45)"/><use xlink:href="#b" width="33.05" height="38.95" transform="translate(-12.45 -17.95)"/><use xlink:href="#c" width="56.75" height="36.45" transform="translate(-23.75 -9.9)"/></g><defs><path id="d" fill="#fff" fill-rule="evenodd" d="M27.35 7.4q2.15 4.15 3.55 8.75 1.45 4.7 1.15 9.5-.35 4.95-4.2 8.1-3.8 3.2-8.75 4.05l-2.6.2q-3.6 0-7.05-1.15-4.65-1.6-7.1-5.5Q-.2 27.4.05 23q.2-4.4 2-9.3Q3.85 8.75 7 5.05 10.1 1.3 14.7.1l1.8-.1q1.9.05 3.7.8 4.75 2.05 7.15 6.6" transform="translate(-.05)"/><path id="e" fill="none" stroke="#000" stroke-linecap="round" stroke-linejoin="round" d="M27.35 7.4Q24.95 2.85 20.2.8 17.55-.3 14.7.1 10.1 1.3 7 5.05q-3.15 3.7-4.95 8.65-1.8 4.9-2 9.3-.25 4.4 2.3 8.35 2.45 3.9 7.1 5.5 4.65 1.55 9.65.95 4.95-.85 8.75-4.05 3.85-3.15 4.2-8.1.3-4.8-1.15-9.5-1.4-4.6-3.55-8.75Z" transform="translate(.45 .5)"/><use xlink:href="#d" id="a" width="32.05" height="38"/><use xlink:href="#e" id="b" width="33.05" height="38.95"/><g id="c" fill-rule="evenodd"><path d="M46.8 20.65q0 .75-.4 1.3-.35.65-1.2.9l.15.6-.35 1.2q-.65.95-2.1 1.05v.25q-.1 1-.85 1.7-.65.6-1.7.6v.05l-.1.65q-.35 1.05-1.2 1.5l-1.5.25q-.1 1.65-1.7 2.2l-1.65-.05q0 2.45-2.5 2.45l-1.15-.3q-.75 1.5-2.15 1.45h-.1q-1.2 0-1.9-1l-.3-.45-1.1.3q-2.45 0-2.55-2.45l-1.6.05q-1.6-.55-1.7-2.2l-1.45-.25q-.95-.5-1.2-1.5l-.1-.65v-.05q-.95.05-1.7-.6-.85-.75-.85-1.85v-.1q-1.45-.1-2.05-1.1-.35-.5-.35-1.15l.1-.6q-.75-.2-1.2-.9-.4-.65-.4-1.3l.25-1.05-.9-1.05-.2-.95q0-1.65 1.6-2.3l3.35-1.15 1.65-1.8.2-.15.1-.65 3.35.2q4 .95 7.35 4.55.9-.5 1.75-.5.9 0 1.7.45 3.15-3.4 6.95-4.4l3.35-.3.75.6.4.1 2 2.2 2.5.85q.95.4 1.35 1.35l.2.95-.15.95-.95 1.05.25 1.05"/><path fill="#442d00" d="M46.3 15.6q1.6.6.95 2.2-.4 1.05-1.5 1.05 1.35 1 .5 2.35-.6.95-1.75.75.9.95.25 2-.85 1.4-2.65.5l-.1-.05.05.05q1.2 1.25-.15 2.4-1.3 1.15-2.5-.15l-.45-.5.65 1.1q.85 1.45-.65 2.35-1.5.8-2.4-.65l.35.9q.65 1.6-1.1 2.15-1.65.55-2.2-1.05l-.25-.65.2 2.4q0 1.75-1.75 1.75-1.35 0-1.7-1.3v.65q-.1 1.85-1.7 1.85h-.15q-.7 0-1.25-.7-.4-.5-.4-1.15l-.05-.65q-.35 1.3-1.65 1.3-1.75 0-1.75-1.75l.2-2.4-.25.65q-.55 1.6-2.2 1.05-1.65-.5-1.1-2.15l.35-.9q-.9 1.45-2.35.65-1.5-.85-.7-2.35l.7-1.1-.45.5q-1.2 1.3-2.5.15-1.3-1.15-.15-2.4l.05-.05-.1.05q-1.7.85-2.65-.5-.65-1.05.25-2-1.15.2-1.7-.75-.9-1.4.5-2.35-1.05 0-1.55-1.05-.65-1.55 1-2.2 3.65-1.45 6-1.9 1.75-.3 2.05 1.4.1.6-.2 1.1 1.1.25 1.35 1.4v.25q.8.2 1.15.8l.25.7 1.1-.65q1.5-.85 2.4.6l.1.2q1-.1 1.6.65 1 1.35-.35 2.4l.35.2q1.35 1.1.25 2.4l-.25.3.7.2q.7.4.85 1l.4-.05h.15l.4.05q.25-.65.85-1l.75-.2-.25-.3q-1.2-1.3.2-2.4l.35-.2q-1.35-1.1-.3-2.4.6-.75 1.6-.65l.1-.2q.85-1.5 2.4-.6l1.1.65.25-.7q.35-.6 1.15-.8l.05-.25q.15-1.15 1.3-1.4-.25-.6-.2-1.1.35-1.65 2.05-1.4l6.1 1.9"/><path fill="#ffc032" d="M25.2 26.8q.55-1 1.6-.45 1 .55.45 1.6l-.55 1.5q-.6 1.85-.6 3.7 0 1.15-1.2 1.15-1.15 0-1.15-1.15 0-2.25.7-4.45l.75-1.9"/><path fill="#ffc032" d="M28.25 27.4q.55 0 .85.35l.35.8.1 5.7q-.1 1.3-1.25 1.3-1.05 0-1.15-1.3l-.05-5.65q0-1.2 1.15-1.2m-3.95-3.95q.85-.95 1.7-.15.9.7.15 1.65l-1.4 1.95q-1.45 2.25-2.15 4.25-.35 1.15-1.5.75-.8-.3-.8-1.15l.05-.35q.8-2.3 2.4-4.8l1.55-2.15m-.2-3.85q.25.35.15.9l-.55.75q-4.1 2.3-6.8 5.3-.25.3-.8.4l-.85-.3q-.4-.4-.4-.9 0-.45.3-.75 1.7-1.95 4.65-4.05l2.7-1.8q1.05-.55 1.6.45m-5.3-1.05q.95-.6 1.6.4.3.4.15.9-.05.45-.55.75l-5.6 3.5q-1.25.65-1.9-.35l-.1-.8q.15-.5.7-.8l5.7-3.6"/><path fill="#ffc032" d="M17.8 16.65q1.15-.2 1.35 1 .2 1.15-1 1.35l-1.6.4q-2 .7-3.9 1.9l-.85.2-.75-.55-.2-.65q0-.65.55-.95 2.2-1.4 4.5-2.2 1.45-.5 1.9-.5m-1.15-2.5q1.2-.2 1.35.95.2 1.15-.95 1.4-2.2.45-5.45 1.75-1.1.45-1.55-.65l-.05-.45q0-.85.7-1.1 3.65-1.5 5.95-1.9m7.55 6.15q.95-.75 1.65.25.75.95-.25 1.65l-2.2 2q-2.4 2.35-3.7 4.75l-.7.55-.9-.1-.6-.7q-.1-.55.15-.9 1.5-2.7 4.15-5.35l2.4-2.15m7.35 6.5.8 1.9q.7 2.2.7 4.45 0 1.15-1.2 1.15t-1.2-1.15q0-1.85-.55-3.7l-.6-1.5q-.55-1.1.5-1.6 1-.55 1.55.45"/><path fill="#ffc032" d="M28.5 27.4q1.15 0 1.15 1.2l-.05 5.65q-.1 1.3-1.15 1.3-1.15 0-1.25-1.3l.1-5.7q0-.5.35-.8.3-.35.85-.35m3.95-3.95L34 25.6q1.6 2.5 2.4 4.8l.05.35q0 .85-.8 1.15-1.05.35-1.5-.75-.65-2-2.15-4.25l-1.4-1.95q-.75-.95.15-1.65.85-.8 1.7.15m4.5-2.5q2.95 2.1 4.65 4.05l.3.75q0 .5-.4.9-.35.3-.85.3-.55-.1-.8-.4-1.55-1.75-4.15-3.6l-2.6-1.7-.6-.75q-.1-.55.15-.9.55-1 1.6-.45l2.7 1.8m1-2.4 5.75 3.6q.5.25.65.8.15.45-.1.8-.65 1-1.9.35l-5.6-3.5q-.4-.25-.55-.75-.05-.5.15-.9.65-1 1.6-.4"/><path fill="#ffc032" d="m45.9 20.3-.15.65-.75.55-.9-.2q-1.9-1.2-3.85-1.9L38.6 19q-1.1-.15-1-1.35.2-1.2 1.35-1l1.95.5q2.25.8 4.45 2.2.55.3.55.95m-5.8-6.15 5.95 1.9q.75.25.75 1.1l-.1.45q-.45 1.1-1.55.65-3.2-1.3-5.45-1.75-1.1-.25-.95-1.4.2-1.15 1.35-.95m-7.55 6.15 2.4 2.15q2.65 2.65 4.2 5.35.25.5.1.9l-.55.7-.9.1-.75-.55q-1.3-2.4-3.7-4.75l-2.2-2q-1-.7-.25-1.65.7-1 1.65-.25"/><path fill="#c27400" d="M27.3 20.25q.65-1 1.65-.4 1.05.6.4 1.6l-1.1 2.15Q27.2 26 26.8 28.1q-.2 1.2-1.35 1-.85-.15-.95-1v-.35q.4-2.4 1.6-5.1.75-1.75 1.2-2.4"/><path fill="#c27400" d="m25.2 19.85 2.95-1.35q1.15-.4 1.5.7v.9l-.7.65q-4.25 1.4-7.5 4.15-.4.35-.85.25-.5 0-.8-.4-.35-.35-.25-.95.1-.5.4-.7 2.05-1.7 5.25-3.25"/><path fill="#c27400" d="m25.85 20.45 2.4-2.15q.95-.75 1.65.25.75.9-.2 1.65l-2.2 2q-2.4 2.35-3.75 4.75l-.7.55-.9-.1-.55-.7q-.15-.4.1-.9 1.5-2.7 4.15-5.35"/><path fill="#c27400" d="m31.55 20.25 1.2 2.4q1.2 2.7 1.6 5.1v.35q-.1.85-.95 1-1.15.2-1.35-1-.4-2.1-1.45-4.5l-1.1-2.15q-.6-1.1.45-1.6.95-.6 1.6.4"/><path fill="#c27400" d="M33.7 19.85q3.2 1.55 5.2 3.25.3.2.4.7l-.25.95q-.3.4-.8.4l-.85-.25q-3.25-2.75-7.5-4.15-.5-.25-.65-.65-.2-.4-.05-.9.45-1.05 1.55-.7l2.95 1.35"/><path fill="#c27400" d="M33 20.45q2.65 2.65 4.15 5.35.25.5.1.9l-.55.7-.9.1-.7-.55q-1.3-2.4-3.7-4.75l-2.2-2q-1-.7-.25-1.65.7-1 1.65-.25l2.4 2.15m-6.55-2.8.7.35.15-.7.2 2.4q-.1.5-1.8 1.45-1.9 1.05-3.65 1.25-5.4.55-8.25-6.15l-.15-.3 3.15-3.5.1-.05 2.85.35q3.5 1.1 6.7 4.9"/><path fill="#c27400" d="m44.75 15.95-.15.3q-2.2 5.15-5.9 6-2.45.55-5.2-.7l-2.4-1.5-.15-.15-.05-.2.2-2.4v-.2l.1-.1q3.15-3.65 6.9-4.55l3.3-.1.15.05 3.2 3.55"/><path fill="#c27400" d="m26.15 18.9.25-.75 2.9 2.4 2.9-2.4.3.75q.75 2.25.75 4.4 0 4.65-3.3 7.45l-.65.5-.65-.5q-3.25-2.9-3.25-7.45 0-2.15.75-4.4"/><path fill="#442d00" d="M26.5 20.1q.65-1 1.6-.4 1.05.5.45 1.6-.4.6-1.1 2.15-1.05 2.4-1.45 4.5-.2 1.2-1.35 1-.85-.15-.95-1v-.4q.4-2.4 1.6-5.1l1.2-2.35"/><path fill="#ffc032" d="m28.1 20.55-.05.45-1.15 2.3q-1.1 2.45-1.45 4.55-.1.65-.7.5-.4-.1-.5-.5v-.2q.4-2.35 1.6-5 1-2.25 1.15-2.25l.35-.3.5.05.25.4"/><path fill="#442d00" d="M24.35 19.65q2.4-1.2 3-1.3 1.05-.45 1.5.7l-.05.9-.65.6-2.85 1.3q-2.9 1.45-4.65 2.9l-.85.25q-.5 0-.8-.4-.4-.45-.3-.95l.45-.75q2.05-1.7 5.2-3.25"/><path fill="#ffc032" d="M24.65 20.15q2.25-1.1 2.9-1.25.55-.3.75.35v.45l-.35.35q-4.05 1.2-7.65 4.25l-.45.15-.45-.2-.15-.4.05-.1.2-.4q2-1.65 5.15-3.2"/><path fill="#442d00" d="m25.05 20.3 2.4-2.15q.9-.75 1.65.2.7 1-.25 1.7-.7.5-2.2 2-2.4 2.35-3.7 4.75l-.7.55-.9-.1-.6-.7q-.1-.6.15-.9 1.5-2.7 4.15-5.35"/><path fill="#ffc032" d="m25.45 20.7 2.35-2.1.85.1q.35.55-.1.9l-2.3 2.05q-2.4 2.4-3.8 4.85l-.35.3-.5-.05-.3-.35.05-.5q1.45-2.6 4.1-5.2"/><path fill="#442d00" d="m30.75 20.1 1.2 2.35q1.2 2.7 1.6 5.1v.4q-.1.85-.95 1-1.15.2-1.35-1-.4-2.1-1.45-4.5l-1.1-2.15q-.6-1.05.4-1.6 1-.6 1.65.4"/><path fill="#ffc032" d="m30.25 20.4 1.15 2.25q1.2 2.7 1.6 5v.2l-.5.5q-.6.15-.7-.5-.6-3.35-2.6-6.85l-.05-.45q0-.25.25-.4l.5-.05.35.3"/><path fill="#442d00" d="M32.85 19.65q3.2 1.6 5.25 3.25l.4.75-.25.95q-.3.4-.8.4-.45.1-.85-.25-1.8-1.5-4.65-2.9l-2.85-1.3q-.5-.15-.7-.6-.15-.45 0-.9.45-1.15 1.5-.7l2.95 1.3"/><path fill="#ffc032" d="M32.6 20.15q3.15 1.55 5.15 3.2l.2.4v.1l-.15.4q-.2.2-.4.2l-.45-.15q-3.45-2.85-7.65-4.25l-.35-.35q-.15-.2 0-.45.2-.65.75-.35.65.15 2.9 1.25"/><path fill="#442d00" d="M32.2 20.3q2.65 2.65 4.15 5.35.25.45.1.9l-.55.7-.9.1-.7-.55q-1.35-2.4-3.7-4.75l-2.25-2q-.9-.7-.2-1.7.75-.95 1.65-.2l2.4 2.15"/><path fill="#ffc032" d="M31.8 20.7q2.6 2.6 4.05 5.2l.05.5-.25.35-.5.05-.35-.3q-1.4-2.45-3.8-4.85l-2.3-2.05q-.45-.35-.1-.9l.85-.1 2.35 2.1"/><path fill="#442d00" d="m26.2 17.15.35.25.15 2.15q-.1.5-1.8 1.4Q23 22 21.25 22.2q-5.4.65-8.25-6.1l-.15-.3 3.1-3.5-.3.8 3.4-.25q3.95.5 7.15 4.3"/><path fill="#ffc032" d="M26.15 19.45Q24.1 21.2 21.5 21.6q-5.2.85-8-5.7l2.8-3.15 3.05.1q3.6.8 6.6 4.35l.2 2.25"/><path fill="#442d00" d="m37.55 12.75 3.3.1-.1-.6 3.15 3.55-.1.3q-2.15 5.1-5.95 6-2.4.55-5.15-.7l-2.4-1.5-.15-.15-.05-.2.2-2.45v-.15l.4.1q3.15-3.65 6.85-4.3"/><path fill="#ffc032" d="m40.45 12.75 2.8 3.15q-2.8 6.55-8 5.7-1.6-.25-3.25-1.25l-1.35-.9.2-2.25q3-3.55 6.6-4.35l3-.1"/><path fill="#442d00" d="m25.35 18.75.25-.8 2.9 2.45 2.9-2.4.25.75q.8 2.2.8 4.35 0 4.7-3.3 7.5 0 .2-.7.45l-.6-.45q-3.3-2.95-3.3-7.45 0-2 .8-4.4"/><path fill="#ffc032" d="M31.15 18.95q2.5 7.2-2.55 11.35l-.1.1-.05-.1q-5.15-4-2.55-11.35l2.6 2.15 2.65-2.15"/><path fill="#ffff9a" d="m25.9 17.3-.7 1.5q-3.65-1.1-4.25-2.55.1-1.7-.35-2.4-.75-1.25-5-.9 6.85-1.05 10.3 4.35"/><path fill="#442d00" d="M31.6 19.3q0 3.15-3.15 3.15-3.1 0-3.1-3.15 0-2.75 3.1-2.75 3.15 0 3.15 2.75"/><path fill="#ffc032" d="M25.9 19.3q0-2.55 2.55-2.55 2.6 0 2.6 2.55 0 2.6-2.6 2.6-2.55 0-2.55-2.6"/><path fill="#ffff9a" d="M25.9 19.35q0-2.55 2.6-2.55 2.05 0 2.5 2.05l-.5-.35q-.7-.35-1.6.25-.9.6-1.15 1.9l-.3 1.05q-1.55-.7-1.55-2.35m-8.05.75q3.65 1.4 7.1.1-3.15 2.25-6.5 1.1-1.45-.5-2.65-1.7l-.85-1.1 2.9 1.6m13.85.1q5.6 2.05 10-1.7-1 2-3.35 2.8l-4.55-.1-2.1-1"/><path fill="#ffff9a" d="M25.4 20.35q.1.55 1.5 1.8 1.3 1.2 1.25 1.8-.05 1.1.25 3.6l-1.85-4.75-.45 1.7q-.2 2.15 1.25 4.7-2.05-2.05-2.2-5.65l.25-3.2M22.3 30.7q0 .8-.85.8-.8 0-.8-.8 0-.45 1.2-2.55.45 1.7.45 2.55m3.35 2.15q.1.8-.7.9-.8.1-.9-.7-.05-.45.85-2.7l.75 2.5m3.4 1.25q.25.75-.5 1.05-.8.15-1.05-.55-.1-.45.4-2.8l1.15 2.3m-9.5-5.55q-.3.75-1.05.5-.75-.3-.5-1 .1-.45 1.9-2.1-.1 1.45-.35 2.6m-2.7-2.6q-.4.75-1.1.4-.7-.35-.35-1.1.2-.4 2.2-1.75-.3 1.6-.75 2.45m-2.6-2.45q-.5.7-1.1.15-.65-.45-.2-1.1l2.5-1.35-1.2 2.3m20.2 7.35q0-.9.45-2.6 1.15 2.15 1.15 2.6 0 .8-.8.8t-.8-.8m-3.35 2.1.75-2.45q.9 2.25.85 2.65-.1.9-.9.7-.8-.1-.7-.9"/><path fill="#ffff9a" d="M27.65 34.25q-.2-1.8.2-2.45 1.5 2.5 1.4 2.9-.25.8-1.05.55-.75-.25-.55-1m9.55-5.6-.35-2.55 1.9 2.05q.25.8-.55 1.05-.75.2-1-.55m2.65-2.55-.75-2.5 2.2 1.75q.35.75-.35 1.1-.75.35-1.1-.35m2.6-2.45-1.2-2.35q2.25 1 2.5 1.35.5.7-.15 1.15-.7.5-1.15-.15m-22.2.35q-.25.35-.6.1-.35-.3-.1-.65l1.4-.7-.7 1.25m2.15 2.2q-.1.5-.55.3-.4-.1-.3-.55l1-1.15q0 1.05-.15 1.4m2.85 1.45q.1.45-.4.45-.45 0-.45-.4-.05-.25.55-1.45l.3 1.4M37 24l-.7-1.25 1.4.7q.3.35-.1.65L37 24m-2.15 2.2q-.15-.35-.15-1.4l1 1.15q.1.45-.3.55-.45.2-.55-.3M32 27.65l.25-1.4.6 1.45q0 .4-.45.4-.5 0-.4-.45"/><path fill="#fff" d="M27.35 17.45q1.55-.7 2.25.15.4.4-1.25.85-.4.15-.8 1.15-.35.8-.75.55-.55-.4-.35-1.4.2-1 .9-1.3"/><path fill="#c27400" d="m19.1 13.9-.65 1.4q-.4 1.6.9 2.7 1.8 1.5 4.1 1.85-6.05-.6-7.65-1.75l-2.4-1.85q3.65-.7 5.7-2.35M15 23.8q1.3-1.85 1.4-2.85.5.55 1.7.9L15 23.8m4 .8-1.15.95q1.1-2.2.15-3.15l.35-.35 1.65.25-1.2 1.1q-.35.65.2 1.2m.1 1 .35-.55q.75 0 1.25-.4l.55.3q-1.1.95-2.15.65m12-7.95 4.75 1.1q2 1.4 6.1-1.75-3.55 3.85-9.95 2.65l-.9-2m.05 3.3.05 2.9q-.4 3.35-2.6 5.45.9-1.15 1.1-3.5.2-2.2-.35-3.5 1.3-.4 1.8-1.35"/><path d="m0 7.6 2.55 1.15 2.15.45 6.7-.5q4.15-.8 6.65 1.4 1.25 1.1 1.65 2.4l.1.25-.1.25q-.65 2.15-7.1 3.3-4.05.7-7.9-2.6L1.5 10 0 7.6"/><path fill="#ffc032" d="M18.9 12.75q-.5 1.7-6.45 2.7-3.7.65-7.35-2.55L2.2 9.55l2.2.5 7.2-.5q5.9-1.2 7.3 3.2"/><path fill="#c27400" d="m18.5 12 .4.75q-1.35 1.45-3.45 1.95-2.45.6-4.25-.7L7 10l5.4.7q5.55.85 6.1 1.3"/><path d="M6.4 1.95 6.95 0l1 1.8 1.5 1.85Q11.5 5.7 14.3 6.8q4.05 1.5 4.25 5.75v.35l-.25.3q-2.4 2.4-8.2-.65Q6 10.35 6 5q0-1.75.4-3.05"/><path fill="#ffc032" d="m6.9 5.95.3-3.75 1.6 2q2.15 2.2 5.2 3.35 3.55 1.35 3.7 5.05-1.95 1.95-7.2-.8-3.3-1.7-3.6-5.85"/><path fill="#ffff9a" d="m7.25 10.05-.75.15q-.6.4-.15 1.5Q7.4 14.25 11 15.55q-5.5-.1-8.8-6l5.05.5m5.7-2.9-3.4-.75-1.15-.55.3 2.2q1.05 2.65 5 5Q9.05 12 7.45 8.5 6.2 5.65 7.2 2.2q1.5 2.6 5.75 4.95"/><path fill="#c27400" d="M16.3 9.15q1.25 1.5 1.4 3.45-1.65.9-3.75.4 1.75-1.25 1.9-2.35l-.75-2.6 1.2 1.1"/><path d="M56.75 7.6 55.3 10q-4.75 7.4-11.2 6.3-6.5-1.15-7.15-3.3l-.1-.25.1-.25q.45-1.3 1.7-2.4 2.5-2.2 6.65-1.4 6.2 1.25 8.9.05l2.55-1.15"/><path fill="#ffc032" d="M37.75 12.75q.35-1.1 1.45-2.05 2.2-1.9 5.9-1.15 6.7 1.3 9.45 0-4.35 6.9-10.3 5.9-3.75-.6-5.5-1.7l-1-1"/><path fill="#c27400" d="M38.15 12q.6-.45 6.15-1.3l5.4-.7-4.2 4q-1.8 1.3-4.25.7-2.1-.5-3.5-1.95l.4-.75"/><path d="M50.35 1.95q.4 1.6.4 3.05 0 5.4-4.15 7.55-5.85 3.05-8.25.65l-.25-.3v-.35q.05-1.15.65-2.35 1.1-2.45 3.6-3.4 4.55-1.75 6.4-5L49.8 0l.55 1.95"/><path fill="#ffc032" d="M49.8 5.95q-.3 4.15-3.6 5.85-5.3 2.75-7.25.8.05-.9.5-2 1-2.2 3.2-3.05 4.9-1.85 6.85-5.35l.3 3.75"/><path fill="#ffff9a" d="m49.45 10.05 5.1-.5q-3.35 5.9-8.85 6 4.95-1.3 6-3.85.45-1.1-.85-1.5l-1.4-.15m-5.7-2.9Q48 4.8 49.5 2.2q1.05 3.45-.25 6.3Q47.7 12 43 13.05q4.3-2.2 5.45-5.55l.3-2.85q-2.05 2.25-5 2.5"/><path fill="#c27400" d="m40.35 9.15 1.25-1.1-.75 2.6q.1 1.1 1.9 2.35-2.15.5-3.8-.4.15-1.95 1.4-3.45"/><path fill="#ffff9a" d="m30.95 17.25 1.65-1.75q2.15-1.85 4.35-2.5.5 2.4.9 2.9l-4.7.6-2.2.75"/></g></defs></svg>