<svg xmlns="http://www.w3.org/2000/svg" xmlns:xlink="http://www.w3.org/1999/xlink" width="84.85" height="82"><g transform="translate(37.4 42.25)"><use xlink:href="#a" width="32.05" height="38" transform="translate(-11.95 -17.45)"/><use xlink:href="#b" width="33.05" height="38.95" transform="translate(-12.45 -17.95)"/><use xlink:href="#c" width="56.1" height="42.65" transform="translate(-23.4 -8.65)"/></g><defs><path id="d" fill="#fff" fill-rule="evenodd" d="M27.35 7.4q2.15 4.15 3.55 8.75 1.45 4.7 1.15 9.5-.35 4.95-4.2 8.1-3.8 3.2-8.75 4.05l-2.6.2q-3.6 0-7.05-1.15-4.65-1.6-7.1-5.5Q-.2 27.4.05 23q.2-4.4 2-9.3Q3.85 8.75 7 5.05 10.1 1.3 14.7.1l1.8-.1q1.9.05 3.7.8 4.75 2.05 7.15 6.6" transform="translate(-.05)"/><path id="e" fill="none" stroke="#000" stroke-linecap="round" stroke-linejoin="round" d="M27.35 7.4Q24.95 2.85 20.2.8 17.55-.3 14.7.1 10.1 1.3 7 5.05q-3.15 3.7-4.95 8.65-1.8 4.9-2 9.3-.25 4.4 2.3 8.35 2.45 3.9 7.1 5.5 4.65 1.55 9.65.95 4.95-.85 8.75-4.05 3.85-3.15 4.2-8.1.3-4.8-1.15-9.5-1.4-4.6-3.55-8.75Z" transform="translate(.45 .5)"/><use xlink:href="#d" id="a" width="32.05" height="38"/><use xlink:href="#e" id="b" width="33.05" height="38.95"/><g id="c" fill-rule="evenodd"><path d="M44 17.35q.2 5.1-2.7 5.1-1.5 0-1.5-1.55 0-.6.6-1.65.6-1.1.6-1.95-.2-.95-.1-1.75.15-1.5 1.6-1.5 2 0 1.5 3.3m-29.75-.2 1.75 4.3q0 1.8-1.5 1.8-1.45 0-1.6-1.35-.95-.9-1.5-3.25l.05-.35q-.55-1.3-.55-3.75 0-1.6 1.5-1.6 1.6 0 1.8 1.75.1.95.05 2.45"/><path d="M5.85 5.3q4.25-3.75 11-5.3-3.2 4.6-5.2 11.6 5.05 3.45 7.85 7.1l3.1-.65 5.95.75 4.35-.8 3.85.7 1.7-1.95q2.3-2.45 5.55-4.9Q42.2 5.15 39.45.6q5.85 1.7 9.8 4.75 2.9 1.65 4.05 3.5l.75 1.15-1.4.15q-1.9.2-4 1.1-4.2 1.8-5.4 5.3-1.85 5.2.55 10.6 2.85 6.35 11.05 10.9l1.25.7-1.2.75q-2.5 1.6-6.65 2-5.1.5-9.7-1.4-1.8 1.8-3.35 1.45l-2.8.3-1.45.7q-1.8.5-3.25-1.2l-.65-.5q-.4 0-.95.4-1.15.75-2.25.9-1.4.15-2.4-1.2-.65-.8-1.4-.65l-2.15-.35Q13.2 42 8 41.55q-4.25-.4-6.8-2.05L0 38.75l1.25-.7q8.2-4.55 11-10.9 2.4-5.4.55-10.6-1.2-3.5-5.4-5.3l-4-1.1L2.15 10l.6-1.1q.9-1.75 3.1-3.6"/><path fill="#a20000" d="M6.25 6.05q3.8-3.4 9.75-4.95-2.75 4.4-4.45 10.5 5.05 3.45 7.7 7.25l3.15-.65 5.95.75 4.3-.8 3.85.7 1.65-2.05q2.3-2.6 5.55-5-1.65-6.15-3.95-10.2 5.3 1.55 9 4.45Q51.4 7.5 52.6 9.3q-2.05.2-4.3 1.15-4.5 1.95-5.85 5.8-.8 2.4-.8 4.85 0 10.65 12.8 17.7-2.35 1.5-6.3 1.85-4.85.5-9.3-1.35l-.55-.2-.4.4q-1.4 1.5-2.5 1.25-1.95-.45-3.35.35l-1.4.65q-1.25.35-2.3-.95-.75-.85-1.35-.8-.75.05-1.4.55-.75.6-1.85.75-.8.1-1.65-.85-.9-1.2-2.15-1l-1.65-.25-.35-.2-.4.15q-4.5 1.95-9.45 1.55-4.05-.35-6.45-1.9 12.8-7.1 12.8-17.7 0-2.55-.85-4.85-1.35-3.85-5.85-5.8L3.5 9.3q.85-1.55 2.75-3.25"/><path fill="#a90012" d="M28.3 26.7q1.05-.2 3.4-5.35 1.85-4.1 3.15-1.4 3.55 7.3 6.2 16.75-2.3 2.3-4.2 3.3-.4.25-1.5-1l-1.3-1.45q0 2.5-.6 2.45-1.05-.1-1.85.55-.65.5-1.1-2.55-.45-3.2-.9-3.05-1.05.35-1.8 2.6-.7 2.1-1.4 2.15-.75.05-.9-2.2-.1-2.3-.5-2.3-.3 0-1.05 1.45-.85 1.65-1.45 2.15l-1.15.2-1.35-.15q-1.5.2-2.25-.45l-.45-.7q-1.2-1.1-.25-6.6.9-5.5 3.15-10.8 1.05-2.5 3.8 1.7 3.25 4.9 4.3 4.7"/><path fill="#ca0000" d="M7.85 10.35 3.6 9.2q1.85-.15 4.25 1.15 2.8 1.2 4.4 3.2l3.85 3.75q4.3 4.6 11.35 12.9-5.25 8.7-14.25 10.2-6.95 1.15-11.45-1.75 8.7-4.75 11.55-11.55 2.35-5.5.4-10.95-.5-1.45-1.45-2.6-2.4-2.1-4.4-3.2m41-.3q-2.45 1.2-5.6 4.15-.65.9-1 1.95-1.9 5.45.45 10.95 2.85 6.75 11.5 11.55-4.45 2.9-11.45 1.75-9-1.5-14.25-10.2 2.75-2.3 11.2-12.45l3.55-3.55q1.55-2.45 4.85-3.85l.75-.3"/><path fill="#720000" d="M25.15 32.6q2.65-3.25 2.95-2.65 9.5 9.1 8.5 8.85l-2.25-2.1q-1.55-1.6-1.7-.65-.65 4.4-1 2.15-.25-1.55-1.05-3.3-1-2.1-1.85-2.05-.7.05-1.4 2.5-.75 2.3-1 2.2-.3-.1-.3-2.2-.05-2-.65-2t-1.5 1.5l-1.65 2.25q-1.25 1.1-2.5.7 2.1-1.15 5.4-5.2"/><path fill="#a20000" d="M18.2 20.35q1.65 1.9 3.6 8.3 1.3 2.6-1.3 5.15-.7.65-1.15-.7-.4-1.25-1.3-.2-1.2 1.45-4.3 3.1-2.95 1.55-3.55 1.25-.25-.15 1.5-1.8 2.4-2.3 3.4-4.7.7-1.65.25-2.55-.5-1.05-.2-2.15.65-2.5 0-6.6l-.8-3.6 3.85 4.5"/><path fill="#720000" d="m16.25 25.5-.15-3.25.1-3.2q1.85 1.55 2.55 3.35l2.4 5.55q1 3.2-.15 3.35-.25 0-.6-1.85-.3-1.6-1.05-.65-4.05 5.3-4.25 4.55 2-3.55 2.8-5.55 1.35-3.6-.35-5.15-.3-.25-.55 1.3-.25 1.7-.75 1.55"/><path fill="#a20000" d="m38.15 20.35 3.8-4.5-.5 3.6q-.35 4.05.3 6.55.7 2.7 4.35 7.1 3.25 3.95 5.05 5 1.65.95-1.7 1.5-3.45.5-6.95-.7-4.4-1.6-7.3-4.05-3.5-3-2.25-5.45 3.3-6.85 5.2-9.05"/><path fill="#720000" d="M39.4 27.4q1.15 3.45 2.7 6.15 1.1 1.9 5.25 3.6L44.6 37q-2.75-.5-3.65-1.3-5.3-6.3-5.6-5.55-.5 1.2 1.55 3.75 1.75 2.15 1.4 2.1-1.3-.2-3.45-2.2-2.55-2.4-1.9-4.4.55-1.75 2.45-4.05l2.2-2.95q1-2.55 3.55-4.5l-.3 4.2q0 2.7-.2 2.75-.5.1-1.1-.8-.55-.8-.85-.55-.5.4.7 3.9"/><path fill="#ff1212" d="M2.5 38.4q2.8-1.45 5.65-4.3 5.75-5.7 6.25-12.65.5 8.9-4.05 13.4-3.2 3.2-7.85 3.55"/><path fill="#ff626d" d="M13.85 24.6q-2.2 10.65-11.2 13.45Q9.4 34.5 12.5 28.2q.95-1.95 1.35-3.6"/><path fill="#ff1212" d="M24.35 37.7q-.25 2.9-.75 3l-1-.65 1.75-2.35m5.3 3.4q-.75-.2-1.3-1.3-.2-.4.25-1.4.4-1 .75-.8.8 3.7.3 3.5"/><path fill="#ff0" d="M33.05 27.75q1.15 0 .6.5.25 1-.1 1.3-.25.25-.95 0-.65-.25-.65-.6 0-1.2 1.1-1.2"/><path fill="#720000" d="m11.25 11.35-.65-.75q-1.95-2.05 2.7-4.95l-2.05 5.7m29.3-7.8 2.2.25q7.7 1 .9 7.5l-.25.25q-1.25-4.65-2.85-8m-4.3 15.15-.4 3.5-15.5-.1L19 18.7l3.15-.65 5.95.75 4.3-.8 3.85.7"/><path d="m37.6 18.4.5.4-.25.6q-2.7 5.55-8.7 8.8v1.05l-1.1-.55-.15-.7q-.45-.45-.45-.85l-4.15-2.3q-3.1-2.15-4.6-5.35l-.5-.7.5-.4q3.45-2.9 9.35.25 6.15-3.05 9.55-.25"/><path fill="#a20000" d="M37.05 19.05q-2.65 5.45-8.8 8.65l.05.2-.25-.1-.2.1v-.2q-6.45-3.45-8.6-8.65 3.05-2.6 8.8.55 1.6-.9 3.5-1.35 3.5-.85 5.5.8"/><path fill="#720000" d="M28.3 27.35q-1.45.05-4.2-2.05l-2.5-2.1 1.45-1q1.9-.6 4.4 1.1 4.25 2.4 9.3-4.55-3.15 8.45-8.45 8.6"/><path fill="#ff001c" d="M28.1 19.9q-5.7-2-8.3-.1l-.55-.75 2.05-.95q2.85-.55 6.75 1.5 4.35-2.6 7.8-1.25-5.3.45-7.75 1.55"/><path fill="#ff1212" d="M12.4 3.45Q9.9 5.25 9.1 7.4q-.95 2.45 1.05 3.7 7.35 4.75 11.2 11.35 1.25 2.2 5.4 3.95 2.75 1.15 1.4 3.8-2.7 5.55-10.7 8.95-9.1 3.9-15.7-.5 13 6.9 24.4-8.3.4-.95-1.7-2.85-3-2.7-3.7-3.8Q12.7 11.4 3.6 9.2q3.75-5.8 11.9-7.95l-.45.7-2.65 1.5"/><path fill="#ff7281" d="M11.65 2.8 8.3 5.35Q5.25 8.2 6.55 9.55L3.6 9.2l1.8-2.3q2.5-2.55 6.25-4.1"/><path d="m24.45 27.9 1.7.25.05.05q.65.4.65.9v.05q0 .85-.7 1.2l-.1.1-1.7-.1q-.1.8-.65 1.15l-1.7.1q-.95-.35-1.15-.95l-.05-.3.45-1.05.25-.35-.25-.4-.45-1 .05-.3q.2-.45 1.05-.7.95-.25 1.6.2.5.3.95 1.15m7.15.7q.1-.75.6-1.1l1.7-.1q1 .4 1.15.95l.05.3-.45 1.05-.2.35.25.4.4 1-.05.3q-.15.45-1 .7l-1.6-.2q-.7-.4-.95-1.2l-1.4-.2-.05-.05q-.55-.3-.65-.9v-.1q0-.8.7-1.15l.1-.1 1.4.05"/><path fill="#ffb600" d="m31.8 30.7-1.55-.25q-.6-.35-.3-.95l.4-.5 1.65.05.2-.9q.4-.8 1.55-.35 1.15.4.9 1.1L34 30q1.65 1.6-.05 2.05-1.05.25-1.7-.5l-.45-.85m-7.7-2.4 1.9.25q1 .6-.1 1.45l-1.95-.05q.1 1.95-1.8 1.25-1.15-.45-.85-1.15l.6-1.05-.55-1.1q-.35-.7.65-.95 1.7-.45 2.1 1.35"/><path fill="#ff7900" d="m31.8 30.75-1.55-.25q-.5-.35-.4-.75l2.4.15.2.85q.1.75.65.7.85 0 1-1.05l.55.95q.2.55-.7.75-1.05.25-1.7-.5l-.45-.85m-7.9-1.8q.6.45 2.4.65l-.4.45-1.95-.1q.1 2-1.8 1.3l-.85-.6q2.1-.25 1.95-1.15-.25-1.25.65-.55"/><path fill="#ff0" d="M22.6 28.8q-.05-.55-.6-.9-1.15-.65 0-.95 1.4-.35 1.65.7.15.55-1.05 1.15m3.4-.25.35.5-1.65-.65 1.3.15"/><path fill="#ff1212" d="m43.15 2.85 3.15 1.4q3.65 2 6.1 4.95-9.05 2.25-17.1 14.5-.7 1.1-3.7 3.8-2.1 1.9-1.7 2.85 11.4 15.2 24.35 8.3-6.6 4.4-15.65.5-7.95-3.35-10.7-8.95-1.3-2.65 1.4-3.8 4.15-1.75 5.4-3.95 4.85-8.4 12.9-12.6 3.45-1.75-.15-4.55l-4.3-2.45"/><path fill="#ff7281" d="m29.1 32.05-.2-.65q-.05-.55.75-.1.7.35 3 3.35 3.1 3.3 7.45 5.2-7.1-2.95-11-7.8m1.15-6q2.7-1.65 3.85-3.1l1.7-3.2q1.6-2.7 4.6-4.9-2.9 2.85-5.5 8.25-.7 1.55-2.4 2.75-1.35 1-2.1 1.1-.45.1-.5-.3-.1-.35.35-.6m-3.15 3.4q.8-1.5-.7-2.25-.5-.25-.35-.65l.85-.1q2.35.85 1.25 3.15-2.75 6.15-11.9 9.85 5.65-2.95 8.45-6.2l2.4-3.8"/><path fill="#ff7281" d="M27.35 26.6q.75.2.7.8 0 .6-.65.15-1.35-.3-2.85-1.25-2.95-1.85-6.2-6.85-3.3-5-9.35-8.1L3.6 9.2q3.3-.35 9.15 3.9 5.7 4.1 7.65 7.85 2.3 4.5 6.95 5.65"/><path d="M17.7 39.15q4.85-2.05 7.75-5.3-3.85 4.7-7.55 6.1l-.2-.8m10.4-12.3q-3.65-1.05-5.2-2.65l-2.7-3.75 3.15 3.5q2.35 2.05 4.7 2.25.5.1 2.55-1.05 2.15-1.2 2.85-2.2l2.25-3.1q-1.25 3.05-2 3.7-1.15 1.05-5.6 3.3m-.2 3.85 2.15 2.75q2.95 3.15 7 5.2-4.15-1.55-7.25-4.55l-2.25-2.65.35-.75"/></g></defs></svg>