<svg xmlns="http://www.w3.org/2000/svg" xmlns:xlink="http://www.w3.org/1999/xlink" width="84.85" height="82"><g transform="translate(37.4 42.25)"><use xlink:href="#a" width="30.7" height="32" transform="matrix(-1 0 0 1 -6.7 -20.95)"/><use xlink:href="#a" width="30.7" height="32" transform="translate(15.2 -20.95)"/><use xlink:href="#b" width="32.05" height="38" transform="translate(-11.95 -17.45)"/><use xlink:href="#c" width="33.05" height="38.95" transform="translate(-12.45 -17.95)"/><use xlink:href="#d" width="25.5" height="20.9" transform="translate(-8.35 -1.15)"/></g><defs><use xlink:href="#e" id="a" width="30.7" height="32"/><use xlink:href="#f" id="b" width="32.05" height="38"/><use xlink:href="#g" id="c" width="33.05" height="38.95"/><use xlink:href="#h" id="d" width="2.4" height="2.4" transform="matrix(10.6042 0 0 8.7083 .025 0)"/><path id="f" fill="#ba2020" fill-rule="evenodd" d="M27.35 7.4q2.15 4.15 3.55 8.75 1.45 4.7 1.15 9.5-.35 4.95-4.2 8.1-3.8 3.2-8.75 4.05l-2.6.2q-3.6 0-7.05-1.15-4.65-1.6-7.1-5.5Q-.2 27.4.05 23q.2-4.4 2-9.3Q3.85 8.75 7 5.05 10.1 1.3 14.7.1l1.8-.1q1.9.05 3.7.8 4.75 2.05 7.15 6.6" transform="translate(-.05)"/><path id="g" fill="none" stroke="#000" stroke-linecap="round" stroke-linejoin="round" d="M27.35 7.4Q24.95 2.85 20.2.8 17.55-.3 14.7.1 10.1 1.3 7 5.05q-3.15 3.7-4.95 8.65-1.8 4.9-2 9.3-.25 4.4 2.3 8.35 2.45 3.9 7.1 5.5 4.65 1.55 9.65.95 4.95-.85 8.75-4.05 3.85-3.15 4.2-8.1.3-4.8-1.15-9.5-1.4-4.6-3.55-8.75Z" transform="translate(.45 .5)"/><path id="h" fill="#df4444" fill-rule="evenodd" d="M.85-.85q.35.35.35.85T.85.85Q.5 1.2 0 1.2T-.85.85Q-1.2.5-1.2 0t.35-.85Q-.5-1.2 0-1.2t.85.35" transform="translate(1.2 1.2)"/><g id="e" fill-rule="evenodd"><path fill="#6d0909" d="M3.7 17.3q3.2-1.4 1-7.4 7.7 3.5 8.7 5.95.2.55 1.3.5l.1.1L17.05 20q2.15 3.6 2.5 4.95l-.05-.05q-3.85-7.1-5.7-7.25l-1.7.05q-.2-.1-.25-1.4Q8.3 12.6 6 11.9q.95 5.65-2.25 5.5H3.7v-.1m10.05-4.55q-5.4-2.4-6.9-3.45l-.35-.6 7.75-.35 1.2 1.25q.6.2 1.1-.6 8.3 3.65 11.5 6.55l-4.75-2.2q-6.25-2.75-6.9-2.4l-1.05.6-.15-.2q-1.45.05-1.5-1.15l-4.55-.45 4.6 3m.2-6.4-7.2.5h-.4L8 5.75q2.2-1.35 4.05-1.85l.7.1.45-.5q5.95-1.35 10.5.25 1.85.65 2.95 1.55l-2.7-1.05q-5.85-1.85-10.75.2l-4.85 1.8 5.6.1m14.7 0 .1.05.05.05.05.05-.2-.1v-.05"/><path fill="#420505" d="M16.4 2.6h.3l.75-.1 4.3.2 1.1.15 1.95.9h.05l2.4 1.4 1.5 1.25-.1-.05-1.6-.7-.3-.25-.1-.1q-1.1-.9-2.95-1.55-4.55-1.6-10.5-.25l-.45.5-.7-.1Q10.2 4.4 8 5.75l-1.65 1.1h.4l7.2-.5.65-.15v-.05q2.4-1.35 2.3.4h-.15q1.35.15 7.9 4.05l.25.15.1.55.2.4.05.05.25.2.25.25-2.5-1.5-4.9-2.9v-.15l-1.2-.6-.1-.05.15.25q.3.75-.4 1.4l1.3.55 4.2 1.95 2.4 1.3 3.35 2.45 1.4 1.6.2.45.05.3-.1-.25.05.3.05.2-.6-.9-1.05-1.05q-3.2-2.9-11.5-6.55-.5.8-1.1.6l-1.2-1.25-7.75.35.35.6q1.5 1.05 6.9 3.45l1.25.55 1.35.7v.35l3.8 6.8.1.2-.1.3-.05-.15-.55-1.05-2-3.35-1.15-2-.1.2v.05l-.05-.1-.5.55-.7.5 3.7 5.7-1.55-3.1-.05-.2.35.55.6 1q1.55 2.8 2.45 6.6l.05.15.05.2.05.25.05.25-1.15-2.4-.05-.3v-.05q-.35-1.35-2.5-4.95l-2.25-3.55-.1-.1q-1.1.05-1.3-.5-1-2.45-8.7-5.95 2.2 6-1 7.4l-.1-.35.1.05h.15q2.1-.35.55-7.5l3.9 1.95q4.4 2.45 5.35 4.3l.75.45 1.15-.6.4-.85.05.05.1-.25.1-.4q-.2-.55-1-.45l-.45-.2-.15-.1v.05q-7.8-3.3-8.8-4.55v-.05l-.7.1-.15.1-.4.5-1.1-.95H2.8q1.25-.7 1.65.15l.1.35.1-.3.15-.1.2-.15.55-.1-.4-.3-.15-.4.1-.25.5-.35-.15.05-.65.3q-1.1.3-.95-.65v-.1l.05.05q.3.5 1.2.3.4-.15.95-.45 1-.85 3.1-1.85l2.7-1.15h.85l.3-.25.05-.25.1-.05-.15-.35-.15-.25-.4-.35-.15-.1h-.4l.25-.1.1-.05.2.1.15.1.15.05h.05l.05.05.2.2.2.3v.4l3.15-.5m-3.8-.45h.15-.15m3.65 3.95L15 6.4l-.7.1-8.05.6-.15-.05-.6.55-.1.3.05.3.05.05.15.2h.1l.1.15 4.4-.45 4.1.1 1.2 1.05.9-.35.25-.35h.05q.25-.55-.35-2.2l-.15-.3"/><path fill="#070000" d="M14.5 1.8v-.05l-.4.1-.85.1-.8.05-.2-.1-.1.05-.05-.05-.5.3q-1.55.5-4.1 2.2L5.65 5.7l-1.8 1v.1h-.1q-.5 0-.7-.85L2.95 4l-.65.95-.65.85q-.5 1.25.2 2.1.5.7 1.4.9 1 3.5 1 5.3-.05 1.7-1 1.85l-.05.45.4.55.1.35v.1h.05q1.65 5.2.55 8.3 4.7-3.55 9.85-3.05 2.6.2 4.25 1.15l1.1 1.1.05.05V25l.05.3 1.15 2.4.2 1.1.05.35.05.3.1 1.2.15-.5q1.55-3.3-.45-6.8l-.7-1.7.1-.3-.1-.2q.65-3.25 3.3-4.65 1.6-.9 3.15-.9 1.5.05 2.5 1l.6.9-.05-.2.1.15q0-1.25-.55-2.3-.55-1.1-1.65-2l-2.05-1.2-.25-.2-.25-.45-.1-.55-.25-.15q-.55-1.45-.15-3.05l.8-1.95 1.45-.2.3.25 1.6.7v.05l.55.45.65.7-.1-.4-.05-.2q-.75-2-3.9-4L23.85 1.8 22.2 1l-7.7.8m16.15 6.6-.05.65q-1.95-2-3.5-2.5l-1.2-.15q-1.85 3.15.6 4.9 4.35 2.55 4.15 5.3-.1 1.35-1.1 2.2-.1-1.1-1.2-1.8l-1.1-.5q-1.4-.45-2.9.4l-1.25.95q-2.2 1.4-2.05 3.9 1.1 1.4 1.75 4-.05 6-2.3 6.25.1-2.8-1.1-5.2l-1.2-1.85Q14 22.3 8.55 24.1L3.9 26.45l.15-.55q.3-1.5-.15-5.15l-.45-3.4q-.75-.45-.65-1.15l.25-.65q1.3-1.05-.55-5.95-4-2.45-1.55-4.95 1.25-1.25 3.25-2-.9 2.9-.15 3 5.95-4.2 7.7-4.45L22.05 0q2.7.6 6.95 4.2 1.9 1.5 1.65 4.2"/><path fill="#ba2020" d="m12.6 2.1-.15-.1.8-.05-.65.15m-.3-.05.15.1h-.05l-.1-.1M3.85 6.8v.05l-.1-.05h.1m16.3 14.35-3.8-6.8V14L15 13.3l-1.25-.55-4.6-3 4.55.45q.05 1.2 1.5 1.15l.15.2 1.05-.6q.65-.35 6.9 2.4l4.75 2.2 1.05 1.05q-1-.95-2.5-1-1.55 0-3.15.9-2.65 1.4-3.3 4.65m9.5-3.85-.05-.3.1.25-.05-.3.1.5-.1-.15m-3.9-5.1-.25-.25 2.05 1.2q1.1.9 1.65 2l-1.6-1.85-1.25-.75-.6-.35m-.5-.45-.05-.05-.2-.4.25.45m-.6-1.15q-6.55-3.9-7.9-4.05h.15q.1-1.75-2.3-.4v.05l-.65.15-5.6-.1 4.85-1.8q4.9-2.05 10.75-.2l2.7 1.05.1.1-1.45.2-.8 1.95q-.4 1.6.15 3.05m4.55-3.75-.55-.45.2.1.35.35M24 8.8q-.3-1.05.55-2.5l.9-1.2q-5.55-1.7-9.85-.85l-3.25 1.2q5.1-1.3 8.9.9 1.9 1.1 2.75 2.45m-7.3 2.45-.4.15q.35-.1-.2.2l-2.55.1q5.45.85 7.7 6.1 1-1.65 3.4-2.3l2.15-.3-10.1-3.95M2.8 8.6l.45.2q-.9-.2-1.4-.9l.95.7m2.85-2.9L7.5 4.4q2.55-1.7 4.1-2.2L5.65 5.7m5.85 10.8q-2.05-2.2-4.3-3.25l2.6 4.3Q11.65 22 8.3 23l2.9-.8q3.65-.55 6.45.8-1.6-3.6-3.95-5.1-3.1 1.7-2.2-1.4m-7.75.9q3.2.15 2.25-5.5 2.3.7 5.85 4.4.05 1.3.25 1.4l1.7-.05q1.85.15 5.7 7.25l-1.1-1.1q-1.65-.95-4.25-1.15Q9 22.15 4.3 25.7q1.1-3.1-.55-8.3M21.3 30.15l-.15.5-.1-1.2.15.85.1-.15"/><path fill="#8e0404" d="m16.4 2.6-3.15.5v-.4l-.2-.3-.2-.2-.05-.05q.65.1.45.8l3.15-.35m6.45.25.55.1q-1.8-1.45-4.85-1.1l-2.7.6q-1.3.05-1.45-.35l.1-.3 7.7-.8 1.65.8-1.55-.55-7.5.65 7.5-.2 1.3.35q1.9.85 4.85 3.4l-2.65-2.5q3.15 2 3.9 4l.05.2.1.4-.65-.7-.35-.35-.05-.05-.05-.05-1.5-1.25-2.4-1.4h-.05l-1.95-.9m-8.75-1-1.35.3-.15-.05.65-.15.85-.1m-1.95.1-.25.1h.4l.1.1h.05l.4.35.15.25.15.35-.1.05-.05.25-.3.25h-.85L9.15 4.8q-2.1 1-3.1 1.85-.55.3-.95.45-.9.2-1.2-.3l-.05-.05V6.7l1.8-1 5.95-3.5.5-.3.05.05m-8.3 4.9q-.15.95.95.65l.65-.3.15-.05-.5.35-.1.25.15.4.4.3-.55.1-.2.15-.15.1-.1.3-.1-.35q-.4-.85-1.65-.15h.65l1.1.95.4-.5.15-.1.7-.1v.05q1 1.25 8.8 4.55-.25 1.4-3.15-.25l2.45 1.9.55.3-.6.1q1.25 1.3 2.15-1.2.15-.3-.25-.35h-.45q1 .85-.25 1.3.25-.35.25-1.3l-.55-.45.45.2q.8-.1 1 .45l-.1.4-.1.25-.05-.05-.4.85-1.15.6-.75-.45q-.95-1.85-5.35-4.3L4.4 9.5q1.55 7.15-.55 7.5H3.7l-.1-.05-.4-.55.05-.45q.95-.15 1-1.85 0-1.8-1-5.3l-.45-.2-.95-.7q-.7-.85-.2-2.1l.65-.85.65-.95.1 1.95q.2.85.7.85l.1.05m16.9 20.85-.05-.25-.05-.25-.05-.2-.05-.15q-.9-3.8-2.45-6.6l-.6-1-.35-.55q-1.1-2.65.4-1.6l2 3.35.55 1.05.05.15.7 1.7q2 3.5.45 6.8l-.1.15-.15-.85-.05-.3-.05-.35-.2-1.1m-5.7-11.4.7-.5.5-.55.05.1-1.2.95h-.05m14.6.65-.2-.45-1.4-1.6-3.35-2.45-2.4-1.3.5.2q-3.7-1.95-4.45-3V7.8l4.9 2.9 5.55 4.25q-.3-1.05-2.05-2.15l-.4-.25 1.25.75 1.6 1.85q.55 1.05.55 2.3l-.1-.5M18.1 9.2l-1.3-.55q.7-.65.4-1.4.35.55-.3 1.35l1.2.6m-1.9-2.85-.75.05q1.3.45.3 2.65 1.4-.6.45-2.7m.05-.25.15.3q.6 1.65.35 2.2h-.05l-.25.35-.9.35-1.2-1.05-4.1-.1-4.4.45-.1-.15h-.1l-.15-.2-.05-.05-.05-.3.1-.3.6-.55.15.05 8.05-.6.7-.1 1.25-.3m-3.7-2.8.25.05q.1-.6-.4-.9l-.55-.2-.3.3-2.2 1.9 3.2-1.15M2.4 7.85l.4.25.6-.2h.4l-.35-.55q-.85.4-.55-2.9l-.15-.05L2 5.85v.05l-.2.35q-.3 1.1.75 1.9l-.15-.3M15.2 6.5l-.7.2q1.3 1-3.3 1.25l3.2-.1 1.1.6q.6-1.2-.3-1.95m6.05 23q1.75-3.55-1.75-8.15 2.8 5.9 1.75 8.15"/><path fill="#700606" d="m17.45 2.5-.75.1h-.3l-3.15.35q.2-.7-.45-.8h-.05l1.35-.3.4-.1v.05l-.1.3q.15.4 1.45.35l2.7-.6q3.05-.35 4.85 1.1l-.55-.1-1.1-.15-4.3-.2M14.6 13.45v-.05l.15.1.55.45q0 .95-.25 1.3-.2.3-.6.15l-.55-.3-2.45-1.9q2.9 1.65 3.15.25m2.55 5.25.05.2 1.55 3.1-3.7-5.7h.05l1.2-.95v-.05l.1-.2 1.15 2q-1.5-1.05-.4 1.6m5.15-7.55L18.1 9.2l-1.2-.6q.65-.8.3-1.35L17.05 7l.1.05 1.2.6v.7q.75 1.05 4.45 3l-.5-.2M12.55 3.3l-3.2 1.15 2.2-1.9.3-.3q.9.55.1 1.05h.6M2 5.85l.75-1.45.15.05q-.3 3.3.55 2.9l.35.55h-.4l-.6.2-.4-.25q-.45-1.15.2-3.1L2 5.85m13.2.65q.9.75.3 1.95l-1.1-.6-3.2.1q4.6-.25 3.3-1.25l.7-.2"/><path fill="#efabab" d="m23.85 1.8 1.95 1.15 2.65 2.5Q25.5 2.9 23.6 2.05l-1.3-.35-7.5.2 7.5-.65 1.55.55M16.2 6.35q.95 2.1-.45 2.7 1-2.2-.3-2.65l.75-.05m-1.15 8.9q1.25-.45.25-1.3h.45q.4.05.25.35-.9 2.5-2.15 1.2l.6-.1q.4.15.6-.15m-3.2-13 .55.2q.5.3.4.9l-.25-.05h-.6q.8-.5-.1-1.05M2 5.85l.6-1.1q-.65 1.95-.2 3.1l.15.3q-1.05-.8-.75-1.9L2 5.9v-.05M21.25 29.5q1.05-2.25-1.75-8.15 3.5 4.6 1.75 8.15"/><path fill="#933a3a" d="M24 8.8q-.85-1.35-2.75-2.45-3.8-2.2-8.9-.9l3.25-1.2q4.3-.85 9.85.85l-.9 1.2Q23.7 7.75 24 8.8m-7.3 2.45 10.1 3.95-2.15.3q-2.4.65-3.4 2.3-2.25-5.25-7.7-6.1l2.55-.1q.55-.3.2-.2l.4-.15m-5.2 5.25q-.9 3.1 2.2 1.4 2.35 1.5 3.95 5.1-2.8-1.35-6.45-.8l-2.9.8q3.35-1 1.5-5.45l-2.6-4.3q2.25 1.05 4.3 3.25"/></g></defs></svg>