<svg xmlns="http://www.w3.org/2000/svg" xmlns:xlink="http://www.w3.org/1999/xlink" width="84.85" height="82"><g transform="translate(37.4 42.25)"><use xlink:href="#a" width="34.15" height="41.95" transform="matrix(-1 0 0 1 1.65 -14.95)"/><use xlink:href="#a" width="34.15" height="41.95" transform="translate(8.55 -14.95)"/><use xlink:href="#b" width="32.05" height="38" transform="translate(-11.95 -17.45)"/><use xlink:href="#c" width="33.05" height="38.95" transform="translate(-12.45 -17.95)"/></g><defs><use xlink:href="#d" id="k" width="34.15" height="41.95"/><use xlink:href="#e" id="l" width="31.45" height="40.15"/><use xlink:href="#f" id="m" width="25.4" height="37.9"/><use xlink:href="#g" id="n" width="27.9" height="36.15"/><use xlink:href="#h" id="o" width="20.95" height="38.15"/><use xlink:href="#i" id="b" width="32.05" height="38"/><use xlink:href="#j" id="c" width="33.05" height="38.95"/><path id="d" fill="#232424" fill-rule="evenodd" d="M10-14.6q-1.15-2.1-2.7-3.65L5.9-19.4q-6.75-3.15-13.85.15-3.55 1.65-5.7 3.9-1.55 3.1-2.75 8.4l-.65 1.1q4.45 3.4 2.3 6.55-1.3 4.15 2.15 4.05l3.65-1q1.25.5 2.7 3.5l1.2 2.9Q-3.4 15.2-1.6 15.5l1.55-.75q1.05 3.6 3.5 4l2.2-.35q2.55 2.8 4.5 2.6l1.5-.7q5.05.85 5.45-1.2l-.6-2.25q-5.75-4.5-6.25-10.3-.15-1.8.25-3.55l.4-1.35q2.65-9.5-.9-16.25" transform="translate(17.05 20.95)"/><path id="e" fill="#989898" fill-rule="evenodd" d="M-7.55-18.5q-3.05 1.45-4.8 3.25l-3.35 8.5q4.05 3.05 2.15 7.8-2.35 3.8 3.25 1.8l2.25.25Q-6.4 4.2-5 6.95q.75 1.4 1.15 2.55.5 4.65 2.35 4.9l1.75-.7q.85 3.45 3.35 3.8l2.3-.3q3.55 4.3 5.15 2.2 4.5.8 4.7-.85l-.8-1.85q-3.4-3.1-5-5.6l-.9-1.95q-.7-2.1.25-7.2l1.1-4.6q.3-8.05-2.75-13.05-.95-1.5-2.1-2.6l-1-.75q-6.05-2.2-12.1.55" transform="translate(15.7 20.05)"/><path id="i" fill="#fff" fill-rule="evenodd" d="M27.35 7.4q2.15 4.15 3.55 8.75 1.45 4.7 1.15 9.5-.35 4.95-4.2 8.1-3.8 3.2-8.75 4.05l-2.6.2q-3.6 0-7.05-1.15-4.65-1.6-7.1-5.5Q-.2 27.4.05 23q.2-4.4 2-9.3Q3.85 8.75 7 5.05 10.1 1.3 14.7.1l1.8-.1q1.9.05 3.7.8 4.75 2.05 7.15 6.6" transform="translate(-.05)"/><path id="j" fill="none" stroke="#000" stroke-linecap="round" stroke-linejoin="round" d="M27.35 7.4Q24.95 2.85 20.2.8 17.55-.3 14.7.1 10.1 1.3 7 5.05q-3.15 3.7-4.95 8.65-1.8 4.9-2 9.3-.25 4.4 2.3 8.35 2.45 3.9 7.1 5.5 4.65 1.55 9.65.95 4.95-.85 8.75-4.05 3.85-3.15 4.2-8.1.3-4.8-1.15-9.5-1.4-4.6-3.55-8.75Z" transform="translate(.45 .5)"/><path id="h" fill="#bdbdbd" fill-rule="evenodd" d="M2.15-12.45Q4.3-9.2 4.85-5.9q-.2-5.4-2.9-9.15l-2.7-2.7q-2.2-1.65-6.2-1.25l-3.5.65q8.3-.45 12.6 5.9M2.85 1q-2 6.7.3 11.45 1.2 2.4 2.75 3.4 2.55.85 3.35 2 .4.55.3.95 2 .95-.15-1.5l-2.55-2.6q-4.3-2.85-4.55-8.55L2.85 1" transform="translate(10.45 19.1)"/><g id="a" transform="translate(17.05 20.95)"><use xlink:href="#k" width="34.15" height="41.95" transform="translate(-17.05 -20.95)"/><use xlink:href="#l" width="31.45" height="40.15" transform="translate(-15.5 -20.05)"/><use xlink:href="#m" width="25.4" height="37.9" transform="translate(-13.95 -18.3)"/><use xlink:href="#n" width="27.9" height="36.15" transform="translate(-13.7 -16.7)"/><use xlink:href="#o" width="20.95" height="38.15" transform="translate(-5.35 -19.4)"/></g><g id="f" fill="#6d6d6d" fill-rule="evenodd"><path d="M1.4 16.2 0 10.85q-.3-1 3.5-8Q5.2.05 12.35 0l.8.05Q3.4 3 3.95 11q.25 4 2.5 7.4l.1.7.5.4-.9-.1q1.8 2.4 2-.05L8.7 19q.25.95 2.4.55 1.55 9.4 4.4 9.9-1.6-1.95-2.55-6.35l-.6-3.85.35-.15q.35 1.45 3.6.9.05 6.55 4.6 11.85 2.25 2.65 4.5 4-1.25 3.45-3.6 1.15l-2.1-3.1q-2.5 3.5-5-3-3.25 3-2.85-.4.3-2.05-2.3-6.3L6.9 20.35Q3.5 21.4 1.4 16.2"/><path d="M13.2 2.45q-3.95 1.8-6.35-.2 2.7 3 5.9 1.2 6.2 1 4.55-1.4-3.2 1.65-4.1.4"/><path d="M18.95 4.45 16 4.3l-1.55 1.65Q12.2 7.15 9.1 4.8 6.05 6.6 4.05 6.2q4.4 2.1 4.5-.25 7.15 2.9 7.75-.6 3.3 1.8 2.65-.9"/><path d="M16.4 12.9q-1.7-.3-1.2-3.8-2.15 1.05-3.25-1.7-3.3 4.7-6.5.85Q3.4 10.7 2.4 9.85l.2.15q2.7.95 3.05 0 3.5 1.8 5.7-.25.75 2.4 2.15 1.3-.4 4.4 3.55 3 4.1 3.4 6.25-.25-3.95 2.2-5-1.25l-1.9.35"/><path d="M16.2 5.75q-.05 4.9 2.4 3.1 2.5 6.85 3.05 1.5-2.15-.35-2.1-2.6-2.2.1-3.45-2.55l.1.55m-2.6 8.3 1.75-2q-4.65 2.65-5.5-.7-3.6 1.9-4.9.75-.5.55-2.5.6 1.25 1.8 2.35.35.9 1.25 4.7.05 2 2.45 4.1.95"/><path d="M17.45 17.35q.25 1.2 1 1.7 1.5 1 4.05-2.15-3.5 2.55-4.75-.7-1.75 1.55-2.6-.85-3.95 2.65-5.3-1-2.2 2.2-3.8.15-1.85 2.85-3.85-.7 2.45 4.75 3.95 2.15L9.2 16q1.2 3.05 4.6.8 1.1 2.55 3.65.55"/><path d="M12.8 17.75q-2.8 2.05-4.55 0-1.15 1.65-2.4.75-2.2 3.5-4.35-.25l.85 2q1.35 1.6 3.75-.75 2.3.8 2.1-.6 1.5 3.4 4.5.25 4.55 1.75 5.3-1.9-3.4 3.3-5.2.5"/></g><g id="g" fill="#4e4e4e" fill-rule="evenodd"><path d="M6.3.1Q9 3.5 12.6.85 15 2.2 17.85 0q-3.25 1.4-5 .1Q8.5 2.5 6.3.1"/><path d="M15.9 3.2q.85.65 3.65-.55-2.3.7-4.35-.75.15 1.9-1.9 2.3-2.3.75-4.35-1.55-4.45 3.1-6.35.8Q4.75 6.7 9 3.3q.8 2.1 4.15 1.35 1.25-.05 2.1-.8l.65-.65"/><path d="M16.35 3.8Q16.4 7 18.9 6.45q.85 2.95 2.95 2.35-2.35-.5-1.95-3-2.3.65-3.55-2m1.45 7.75q1.35 3.1 4.65.5-3.2 1.6-3.9-1.65-5 .75-2.25-3.35-4.7 1.65-4-1.6-2.75 2.8-5.15 2.05-1.2-.35-1.8-1.25Q2.5 9.4 0 7q2.05 3.75 5.55-.05 2.45 3.5 6.25-.5-.3 2.9 3.05 1.6-1.55 4.25 2.95 3.5"/><path d="M.2 10.35q1.65 1.8 5.65.05-.6.25-1.2-.45-3.3 1.15-4.45.4"/><path d="M4.95 7.65q-1 4.4 1.75 3.55l2.95-1.7q-3.8 1.9-4.65.2l-.05-2.05m9.65 2.55.45.45q-4.2 2.25-5.15-.15l-.05-1.75q.8 3.35 4.75 1.45m3.4 2.75q-.85 4.55 1.8 3.65l2.9-1.8q-3.7 2-4.55.25l-.15-2.1"/><path d="M15.3 11.95q-2.3 5.4 2.5 3l-.2-.65q-3.7 1.2-2.3-2.35"/><path d="m14.95 13.2-2.85 1q-2.05.2-2.2-1.85L9.8 14q.7 2.45 5.25-.4l-.1-.4m-9.6-2.1q.2 3.7 2.35 3.1l2.05-1.35.15-.7q-2.6 2.1-3.85.75l-.7-1.8"/><path d="M5.8 12.85q-2.85 2.6-3.6-1.75l.25 2.5q.85 2.05 3.65-.35l-.3-.4m11.75 2.45q-3.75 3.9-5.15-.4l-.55-.15 1.1 2.2q1.85 1.55 5.15-1.35l-.55-.3"/><path d="M7.65 14.55v-.1.1L8 16.5q1.15 1.85 4.85.05l-.4-.55q-4 2.45-4.8-1.45"/><path d="M7.75 16q-2.6 2.3-3.3-1.65l.15 2.15q.75 1.75 3.55-.15l-.4-.35"/><path d="m5.6 17.3-.4-.5q-2.35 3.75-4.1-.9.5 5.1 4.5 1.4m19.35 18.8 2.95.05q-4.85-2.2-8-11.05l-2.2-8.5q-.15 7.15 3.5 14 1.85 3.5 3.75 5.5m-3-.35q-4.8-6-7.4-12.2l.2.7q2.65 7.25 4.7 9.8.85 1.4 2.5 1.7M13.4 30.8l.6-.35-4.1-7.95q2.2 7.2 3.5 8.3m-3.5-8.3-1.4-5.15q-.25 1.3 1.4 5.15"/></g></defs></svg>