<svg xmlns="http://www.w3.org/2000/svg" xmlns:xlink="http://www.w3.org/1999/xlink" width="84.85" height="82"><g transform="translate(37.4 42.25)"><use xlink:href="#a" width="32.05" height="38" transform="translate(-11.95 -17.45)"/><use xlink:href="#b" width="33.05" height="38.95" transform="translate(-12.45 -17.95)"/><use xlink:href="#c" width="34.5" height="8" transform="translate(-13.1 .75)"/><use xlink:href="#d" width="32.85" height="7.85" transform="translate(-12.8 18.35)"/><use xlink:href="#e" width="38.6" height="19.45" transform="translate(-15.65 1.4)"/><use xlink:href="#f" width="28.9" height="18.1" transform="translate(-14.65 3.15)"/><use xlink:href="#g" width="14.8" height="15.9" transform="translate(5.35 3.4)"/><use xlink:href="#h" width="7.95" height="14.05" transform="translate(14.5 2.9)"/><use xlink:href="#i" width="20.2" height="8.35" transform="translate(-12.85 1.15)"/><use xlink:href="#j" width="20.45" height="8.4" transform="translate(.35 1.25)"/><use xlink:href="#k" width="30.3" height="4.95" transform="translate(-11.4 17.05)"/><use xlink:href="#l" width="29.25" height="4.7" transform="translate(-11 16.7)"/><use xlink:href="#m" width="13.3" height="2.35" transform="translate(-10.7 17.2)"/><use xlink:href="#n" width="10.15" height="2.9" transform="translate(-11 16.95)"/><use xlink:href="#o" width="5.1" height="2.9" transform="translate(13.1 17)"/><use xlink:href="#p" width="16.65" height="4.3" transform="translate(1.5 17.15)"/><use xlink:href="#q" width="30.85" height="7.75" transform="translate(-11.7 17.45)"/><use xlink:href="#r" width="22.5" height="15.25" transform="translate(-7.05 6.1)"/><use xlink:href="#s" width="29.95" height="7.15" transform="translate(-11.35 17.55)"/><use xlink:href="#t" width="6.85" height="3.75" transform="translate(-12.6 1.4)"/><use xlink:href="#u" width="10.7" height="5.65" transform="translate(-.8 17.1)"/><use xlink:href="#v" width="7.9" height="3.85" transform="translate(.55 17.8)"/><use xlink:href="#w" width="7.8" height="3.2" transform="translate(.2 17.8)"/><use xlink:href="#x" width="9.2" height="4.45" transform="translate(.05 17.8)"/><use xlink:href="#y" width="9.7" height="4.6" transform="translate(-.5 17.25)"/><use xlink:href="#z" width="3.1" height="1.3" transform="translate(.95 19.9)"/><use xlink:href="#A" width="8.75" height="4.5" transform="translate(-12.5 1.4)"/></g><defs><use xlink:href="#B" id="a" width="32.05" height="38"/><use xlink:href="#C" id="b" width="33.05" height="38.95"/><use xlink:href="#D" id="c" width="34.5" height="8"/><use xlink:href="#E" id="d" width="32.85" height="7.85"/><use xlink:href="#F" id="e" width="38.6" height="19.45"/><use xlink:href="#G" id="f" width="28.9" height="18.1"/><use xlink:href="#H" id="g" width="14.8" height="15.9"/><use xlink:href="#I" id="h" width="7.95" height="14.05"/><use xlink:href="#J" id="i" width="20.2" height="8.35"/><use xlink:href="#K" id="j" width="20.45" height="8.4"/><use xlink:href="#L" id="k" width="30.3" height="4.95"/><use xlink:href="#M" id="l" width="29.25" height="4.7"/><use xlink:href="#N" id="m" width="13.3" height="2.35"/><use xlink:href="#O" id="n" width="10.15" height="2.9"/><use xlink:href="#P" id="o" width="5.1" height="2.9"/><use xlink:href="#Q" id="p" width="16.65" height="4.3"/><use xlink:href="#R" id="q" width="30.85" height="7.75"/><use xlink:href="#S" id="r" width="22.5" height="15.25"/><use xlink:href="#T" id="s" width="29.95" height="7.15"/><use xlink:href="#U" id="t" width="6.85" height="3.75"/><use xlink:href="#V" id="u" width="10.7" height="5.65"/><use xlink:href="#W" id="v" width="7.9" height="3.85"/><use xlink:href="#X" id="w" width="7.8" height="3.2"/><use xlink:href="#Y" id="x" width="9.2" height="4.45"/><use xlink:href="#Z" id="y" width="9.7" height="4.6"/><use xlink:href="#aa" id="z" width="1.5" height="1.05" transform="scale(2.069 1.2273)"/><use xlink:href="#ab" id="A" width="8.75" height="4.5"/><path id="B" fill="#fff" fill-rule="evenodd" d="M27.35 7.4q2.15 4.15 3.55 8.75 1.45 4.7 1.15 9.5-.35 4.95-4.2 8.1-3.8 3.2-8.75 4.05l-2.6.2q-3.6 0-7.05-1.15-4.65-1.6-7.1-5.5Q-.2 27.4.05 23q.2-4.4 2-9.3Q3.85 8.75 7 5.05 10.1 1.3 14.7.1l1.8-.1q1.9.05 3.7.8 4.75 2.05 7.15 6.6" transform="translate(-.05)"/><path id="C" fill="none" stroke="#000" stroke-linecap="round" stroke-linejoin="round" d="M27.35 7.4Q24.95 2.85 20.2.8 17.55-.3 14.7.1 10.1 1.3 7 5.05q-3.15 3.7-4.95 8.65-1.8 4.9-2 9.3-.25 4.4 2.3 8.35 2.45 3.9 7.1 5.5 4.65 1.55 9.65.95 4.95-.85 8.75-4.05 3.85-3.15 4.2-8.1.3-4.8-1.15-9.5-1.4-4.6-3.55-8.75Z" transform="translate(.45 .5)"/><path id="E" fill-rule="evenodd" d="m32.3 1.6.1.55-.25.45-.3.6q0 .15.35.25.8.2.65.9l-.45.95q.45.15.25.75l-.7.75-1.2.4-1.4.15-2.1.15-1.9.1-3.25.05-3.05-.05-1.1-.3-.4-.25.15-.35.3-.55-.25-.4-1.1-.15q-.8 0-.85.5l.15.55-.05.6q-.1.65-.55.7l-.85-.05-.85-.1-6.55-.4-3.9.05-2.4-.1-.6-.3-.15-.1L0 6.7q0-.35.45-.9L.9 4.7Q.6 4 .7 3.6q.1-.35.9-.75l.9-.65.05-.5-.05-.6q0-.95.3-.85L2.75.3l.8.15.85.05 3.55.7 8.1.85 4.75-.15 2.25-.3 1.75-.4 2.4-.6 1.55-.5 2.1.05.75.6.7.85" transform="translate(0 -.1)"/><path id="G" fill-rule="evenodd" d="m26.75 4.1.45 4.7 1.7 6.7q-.5-.05-1.5.7l-2.45.25-2.25 1.2-6.65.45-4.5-1.2-2.95-1.15q-3.5-.75-4-1.7V10.5q0-3.6-1-3.6-.25 0-.7.5-.25.2-1 0-.55-.05-1-1.25Q-.35 4 .15 3.1l2-2.15-.25.2L2.65 0 6.1 2.4l7.55 2.5 8.6.4 4.5-1.2"/><path id="H" fill-rule="evenodd" d="M12.4 0q3.95 0 1.45 6.4l-.5 4.35q-.25 2.8-1.45 3.55-3 2.1-11.15 1.45V10.5L0 4.75 1.95 5q.25-.25 5.25-2.4L12.4 0"/><path id="I" fill-rule="evenodd" d="M6 6 3.45 8.6v1.9q.25.7 0 1.9Q3 13.35 0 14.05l1.25-6.9q.5-4.05 2-5.5L4.2 0 6 2.15Q6.95 3.8 7.95 3.8L7.2 5 6 6"/><path id="J" fill="#574c52" fill-rule="evenodd" d="M20 7.6q1.05.75-3.3.75-4.15 0-9.65-2.5-3.55-1.6-5.6-3.05Q.05 1.8 0 .75-.05-.65 1.95.6 5.3 2.75 7.75 4q5.85 2.8 9.05 2.8 2.15 0 3.2.8"/><path id="K" fill="#574c52" fill-rule="evenodd" d="M3.4 8.4q-4.25-.2-3.2-1 1.05-.8 4.4-.75 3.35.05 8.15-2.25L18.5.55q2.05-1.25 1.95.4Q20.4 2.05 19 3q-1.95 1.4-5.7 3.05-5.65 2.5-9.9 2.35"/><path id="L" fill="#301601" fill-rule="evenodd" d="M30.25 1.65q-.55 1.25-6.1 2.3Q18.6 5.1 12.7 4.9q-5.95-.2-8.6-1.3L.3 2Q-.1 1.2.05.85L1.25 0l.55.85 4.95.85 8.5.25L29.85 0q.65.95.4 1.65"/><path id="M" fill="#ea9706" fill-rule="evenodd" d="M17.8 2.1v2.4l-6.4.2-1.7-.2-5.7-1q-1.3-.3-2.8-1.2L0 1.4.8.25l4.3 1.2 4.75.4V1.8h5.9l2.05.3M25.2 1q2.45-.4 3.65-1l.4 1.7q-.85.75-2.9 1.3l-5.6 1.1v.05l-1.8.3-.9.05q.35-.65.4-2.65l.85-.25 5.9-.6"/><path id="N" fill="#f9ac30" fill-rule="evenodd" d="m13.3 1.35-.25.4q-.2.6-6.15.6L1.2 1.4l-.25.3-.9-.45L0 .95.6 0l.7.05L6.75 1.2l6.55.15"/><path id="P" fill="#a87104" fill-rule="evenodd" d="m3.05.6 1.8-.6.25 1.4q-.65.6-1.55.9l-2.25.6L0 1.15 3.05.6"/><path id="S" fill="#ea3293" fill-rule="evenodd" d="m21.6.15.9-.15-.65 2.5q-.5 1.1-1.55 1.5-1.5.65-1.65 1-.3.7 1.15.7l1.5.1q.2.45-1.75 1.2-2.1.85-2.2 1.15-.1.4 1.4 1.4 1.4.9 1.15 1.15-.45.5-1.6 0l-2.05-.9-2.1-.55q-2.15-.5-1.05 1.8l1.95 3.35q-.75-.95-2.75-1.2l-1.05 2.05-1.05-2.05q-2 .25-2.75 1.2l1.95-3.35q1.1-2.3-1.05-1.8l-2.1.55q-1.1.4-2.05.9-1.15.5-1.6 0-.25-.25 1.15-1.15 1.5-1 1.4-1.4-.1-.3-2.2-1.15Q1 6.25 1.2 5.8l1.5-.1q1.45 0 1.15-.7-.15-.35-1.65-1Q1.15 3.6.65 2.5L0 0l.9.15q2.9.95 3.85 1.5 1.3.65 1.45 1.4.2.8-.5 2.3.1 1.35 1.05 2.2l1.8-.1.7-.95-.05-1.1-.5-1.1-.5-.95.9-.1.55-.05 1.6 2.95 1.6-2.95.55.05.85.1-.45.95-.5 1.1q-.2.65-.05 1.1.2.55.7.95l1.75.1q1.05-.9 1.1-2.2-.7-1.5-.55-2.3.2-.75 1.5-1.4Q18.8 1 21.6.15"/><path id="U" fill="#806f78" fill-rule="evenodd" d="m1.85.7 5 3.05-3.55.15-1.5-.75-1.65-1.6Q-.1 1 .15.15L1.1.2l.75.5" transform="translate(0 -.15)"/><path id="V" fill="#301601" fill-rule="evenodd" d="M4.55.25 9.9.05q.6.15.8 1.95.2 2.25-.6 2.5Q.8 6.15.45 5.5L.1 3.25l-.05-2q.35-.7 4.5-1" transform="translate(-.05 -.05)"/><path id="W" fill="#ea9706" fill-rule="evenodd" d="M7.45 0q.3.1.3.25L7.9 2.9l-7.6.95L0 3.2q2.8-1 7.45-3.2"/><path id="X" fill="#ffd48a" fill-rule="evenodd" d="M1.7.5 7.8 0Q3.15 2.2.35 3.2L0 2.1Q-.15.75 1.7.5"/><path id="Z" fill="#b56c06" fill-rule="evenodd" d="m9.6.1.1.55-.85.45L8.8.9 8.5.65l-6.1.5Q.55 1.4.7 2.75l.35 1.1.25.6-.75.25Q-.25 2.45.1 1.15.25.55 4.95.2L9.6.1" transform="translate(0 -.1)"/><path id="aa" fill="#4c2e02" fill-rule="evenodd" d="M.1.05 1.5 0l-.1 1.05H.1q-.15-.1 0-1"/><path id="ab" fill="#806f78" fill-rule="evenodd" d="M.65 0 3 1.3l5.75 3.2L.45.85 0 .25.65 0"/><path id="Q" fill="#845604" fill-rule="evenodd" d="M7.8 1h1l.4 2.3-1.1.3L7.8 1m8.35-1 .5 1.4-.85.55-1 .35L13.55.6 15.2.3l.95-.3M4.4 1.65l-3.25.3V4Q3.8 4 4.4 3.4q.3-.25 0-1.75m.9-.3v2.8l-.6.15H.3L0 1.35h5.3"/><g id="D" fill-rule="evenodd"><path d="M.3 3.15 0 1.6Q-.1.05.85 0 1.55 0 6 2.65q3.4 2 6.95 3.25l5.55.7-.1 1.4-4.8-.35L2.4 3.1l-2.1.05"/><path d="M33.55 0q1.55.05.55 3.15L32 3.1 20.8 7.65 16 8l-.1-1.4q2.95.1 5.55-.7 3.4-.95 6.95-3l2.45-1.75Q32.6-.05 33.55 0"/></g><g id="F" fill-rule="evenodd"><path d="m3.4.35.85 2.9q1.05 1.1 1.1 1.5L5.3 6.8q-.35 3.45-1.9 3.3-.45-.05-2.9-2.7-.85-.95-.25-1.95L2.1 3.4 3.4.35m31.4 0q.35.8 2.9 3.35 1.8 1.7.05 3.7-2.45 2.65-2.9 2.7-1.6.15-1.95-3.3V4.75q.05-.45 1.1-1.5l.8-2.9"/><path d="M35.25.45q2-.5.3 2.1.15 1.95-.2 5.75l-.25 3.45q-.95 3.9-.75 3.85-6.3 3.4-13.7 3.85l-10.35-.8q-6-1-5.9-1.8.8-1.95.7-2.85l-.25-2.7L4 8.1q-1.15-4.75-.9-6.3L2.6.7q-.25-.9.95-.6Q12.75 6.2 20 6.45q6.05.2 10.95-2.8 3.9-3.1 4.3-3.2"/></g><g id="O" fill="#f9c780" fill-rule="evenodd"><path d="m2.1 1.25.85.3V2.9l-.9-.55.05-1.1"/><path d="m.8 0 3.95 1.15 5.4.45q-1.4.5-5.05.1L1 .8l-.5.75-.5-.4L.8 0"/></g><g id="R" fill="#a9a9aa" fill-rule="evenodd"><path d="m30.85 5.35-.25.55-.4.55.35.4-1.35.4-1.6.25-3.15.1-3.55.15-3-.2q-.55 0-.5-.25l.25-.55q.1-.6-.15-.8l-.75-.1-1.6.15q-1.05.25-1.2.55L13.3 7.7l-1.45-.1-1.75-.1-2.45-.15-2.2-.1-3.1.1-.85-.05L0 7l.65-1.2-.2-.75q-.3-.4-.25-.55l1.05-.75.5-.4.3-.45.65-.35 1.7.7 7.65 1.15 12.4-1.05q3.8-.55 5.3-1.3l.5.65q.35.45.2.65l-.6.45q-.45.4-.35.8.15.4.65.5.65.15.7.25"/><path d="M5.45 1.1v1.65l.25.8-.5-.1q-.35-.5-.35-1.2L4.9.55 5.05.3l.6.15-.2.65M25.7.8l-.2-.65.6-.15.15.25.1 1.7q0 .65-.4 1.2l-.5.1.3-.8L25.7.8"/></g><g id="T" fill="#666665" fill-rule="evenodd"><path d="m10.5 7.1-2.6-.25-2.65-.2-1.4-.15-1.1-.15.2-.05q-.3.05-.3-.8.15-.6.9-.4l.95.55 1.45.55 3.95.5 2.7.2-.95.25-1.15-.05m13.55-.45L21 6.8l-3.3.25 3.45-1 2.6-.55 1.35-.1 2.1-.1q.6.3.4.65-.15.25-.85.3l-2.7.4"/><path d="m1 4.25-.25.1 1.95.4q0 .75-2.15.45Q.1 5.1 0 4.6q0-.35 1-.35m24.4-1.9-.3.8.5-.1q.4-.55.4-1.2l-.1-1.7-.05-.1.35-.05q.4 1.25.2 2.6-.05.3-.95.65h-.9l.3-.4.05-1.8q0-.75-.2-.9l.45-.05.2.6.05 1.65M5.1 1l.2-.6.5.05q-.2.1-.2.9V3.2l.3.35h-.85q-.95-.35-1-.65 0-1.7.25-2.6l.35.05-.1.1-.05 1.7q0 .7.35 1.2l.5.1-.25-.8V1m17.1 3.9-1.6.1-1.95-.05-1.3-.3q-.2-.25.05-.5l.05-.05h.7l.8.1 2.1.25 1.45.05 3.15-.15-3.45.55"/><path d="M11.75 4.3h2.15q3.65 1.25 3.3 1.4l-5.55-.6-4.95-.7-.9-.95 5.95.85m15.8-1.4q2.45-.1 2.4.3-.05.4-.75.4l-4.25-.4 2.6-.3"/></g><g id="Y" fill="#6b4003" fill-rule="evenodd"><path d="M4.8 1.05q-.35-.8.5-.8Q7.65.05 7.85.7q.6 1.85.45 1.95l-3 .55v-.8q2.15-.4 2.1-.6L7.05.95l-2.25.1M.6 1.9q.1-.7.85-.9l1.9-.4.85 2.55-2.8.4Q1.15 3.5.6 1.9"/><path d="M8.3.45Q8.7.2 9.15 0q.15 2.65-.1 3.1L.25 4.45 0 4.05l.75-.25.05.05 7.6-.95q.15-.1-.1-2.45"/></g></defs></svg>