<svg xmlns:xlink="http://www.w3.org/1999/xlink" height="82" width="84.85" xmlns="http://www.w3.org/2000/svg"><g transform="translate(37.4 42.25)"><use height="38" transform="translate(-11.95 -17.45)" width="32.05" xlink:href="#a"/><use height="38.95" transform="translate(-12.45 -17.95)" width="33.05" xlink:href="#b"/><use height="8.85" transform="matrix(-1 0 0 1 20.25 17.7)" width="16.4" xlink:href="#c"/><use height="8.85" transform="translate(-12.1 17.75)" width="16.4" xlink:href="#c"/><use height="21.1" transform="translate(-16.8)" width="40.35" xlink:href="#d"/></g><defs><use height="38" width="32.05" xlink:href="#e" id="a"/><use height="38.95" width="33.05" xlink:href="#f" id="b"/><use height="8.85" width="16.4" xlink:href="#g" id="c"/><path d="M27.35 7.4q2.15 4.15 3.55 8.75 1.45 4.7 1.15 9.5-.35 4.95-4.2 8.1-3.8 3.2-8.75 4.05l-2.6.2q-3.6 0-7.05-1.15-4.65-1.6-7.1-5.5Q-.2 27.4.05 23q.2-4.4 2-9.3Q3.85 8.75 7 5.05 10.1 1.3 14.7.1l1.8-.1q1.9.05 3.7.8 4.75 2.05 7.15 6.6" fill="#fff" fill-rule="evenodd" transform="translate(-.05)" id="e"/><path d="M27.35 7.4Q24.95 2.85 20.2.8 17.55-.3 14.7.1 10.1 1.3 7 5.05q-3.15 3.7-4.95 8.65-1.8 4.9-2 9.3-.25 4.4 2.3 8.35 2.45 3.9 7.1 5.5 4.65 1.55 9.65.95 4.95-.85 8.75-4.05 3.85-3.15 4.2-8.1.3-4.8-1.15-9.5-1.4-4.6-3.55-8.75Z" fill="none" stroke="#000" stroke-linecap="round" stroke-linejoin="round" transform="translate(.45 .5)" id="f"/><g id="g" fill-rule="evenodd"><path d="M6.05.55 6.4 6.3l-.7.55q-.3.35-1.9.5l-2.2-.1-4.2 1.05q-2.15.4-4.45-.55-1.9-.85-2.7-1.9-.55-.8.05-2.75.5-1.75 1.15-2.35l14.6-.2" fill="#000201" transform="translate(10 .45)"/><path d="M5.4.25v2l.55 2.15q-.05 1.5-1.7 2l-3.6.1q-5.9 1.75-8.35.15-1.5-.9-1.55-2.55 0-.8.9-2.25l.85-1.6H5.4" fill="#dd0eac" transform="translate(10 .45)"/><path d="M-7.05 5.85q-1.7-.5-1.35-2.4.75-2.1.75-2.8l1.6-.05 1.65.3q.3.35.1 1.85l.25 2.8q-.2.5-1 .5l-2-.2m8.95-.4q-.9-.6-.75-4.8h1.6L4.4.9l.05 1.9.05 2.6q-.15.4-.8.4-1.15.1-1.8-.35" fill="#f26dd9" transform="translate(10 .45)"/><path d="M2-.45h.75q.7 0 .8.25l.05 1.85V4.3l-.4.4q-.6 0-.85-.35Q2 3.85 2-.45M-5.8 1q.2.1-.05.5l-.1.6-.1 1.4q0 2-1.3 1.2-.7-.45-.55-1.15l.3-1.3q.15-.8.45-1.05L-5.8 1" fill="#f7b0ed" transform="translate(10 .45)"/></g><g id="d"><path d="M9.75 6.35 4.4 11.5l-7.25-5.25 3.9.25 6.55.25 2.15-.4" fill="#af5104" fill-rule="evenodd" transform="translate(16.8)"/><path d="m9.65 7.05-5.35 5.1L-3 6.9l3.9.25 6.55.3 2.2-.4" fill="#e06d05" fill-rule="evenodd" transform="translate(16.8)"/><path d="M9.65 7.9 4.3 13.05-3 7.8l3.9.25 6.55.3 2.2-.45" fill="#ffa522" fill-rule="evenodd" transform="translate(16.8)"/><path d="M21.4.85q.3.8.1 1.2-.4.95 1.65 1.3.6.15.35 1.4-.2 1.25-.7 1.35-4.15 7.45-3.8 7.6.3.05.7 1.35.45 1.2.35 1.55l-.35 1q.2 0 .05.6l-.5 1.05q-.55.6-8.25 1.1l-3.95.4Q4 20.9 3.2 20.7l-6.7.35q-2.1.2-5.05-.65-2.35-.65-2.75-1.05-.3-1.05-1.05-1.5-.9-.5 1.25-3.75.25-.35-2.3-3.55l-2.9-3.5q-.85-.75-.25-2.55 2.2-1.2 2.1-1.4-.3-.95.35-1.85.6-.95 2.75-.4Q-7.4 2.1-4.1 4.1q2.4 1.45 2.9 2.15 5.25 3.7 5.35 3.45l1.1-1.15 8.8-5.8 3.2-1.55q2.7-1.15 3.3-1.2.6-.05.85.85" fill="#000102" fill-rule="evenodd" transform="translate(16.8)"/><path d="m6.95 20.1-2.45-.05-2.85-.25-2.9.35-6.9-.3-1.5-.3-.8-.3-.4-.75v-.95l.45-.45.75-.3 2.05-.3 3.6-.4 7.65-.5 8-.05 4.65.3 1.2.4q1.05.6 1.25 1.35.1.45-.3.75l-.85.35-3.65.6-1.7.2-.9.05-.9.1-3.5.45" fill="#05739e" fill-rule="evenodd" transform="translate(16.8)"/><path d="M20.55 1q.85.2.1 1.75-.25.4 1.75 1.35.5.7.3 1.4-.2.65-.7.5-.5-.15-2.4 4.05-1.95 4.2-1.45 4.3 1 .35 1 2.45-.05.85-3 1.05-5.25.2-7.7 1.05-2.35.85-5.6 0l-5.35.5q-1.45.35-7.4-1.15l-1.45-.65q-.25-1.3 1.15-2.45.3-.25.05-1.15-5.6-7.3-5.85-8.3-.25-.95 1.6-1.85.7-.25.6-.65-.15-1 1.1-1.4.25-.05 5.15 1.85Q-3.6 5.2-2.3 6.75l4.2 2.9 2.4 1.8q.15-.95.45-1.25l5-3.6 8.8-4.95Q20 .9 20.55 1" fill="#65a2c1" fill-rule="evenodd" transform="translate(16.8)"/><path d="M20.55.75q.7.15.1 2l-3.85 1.2q-.35.1-8.5 4.55-3.5 4.3-3.6 3.75L-2.1 8.3l-7.25-3.95q-1.7-1.1-4.45-1v-.4q-.15-1 1.1-1.4.15-.05 5.15 1.9Q-3.85 4.8-2.3 6.5q.4.5 4.2 2.95 1.65 1 2.4 1.75.15-.95.45-1.25l5-3.6 8.8-4.9q1.35-.85 2-.7" fill="#05739e" fill-rule="evenodd" transform="translate(16.8)"/><path d="m10.65 9.35-1 .05q-.25-.15-.1-.45l.8-.25q.4.05.6.55.15.45-.25.75-.5.4-1.3.2t-1.05-.75q-.25-.65.5-1.3.8-.65 2.2-.55 1.35.1 2 .8.65.75.05 1.95l-1 1.8q-.5.9-.4 1.45l.8 1.1 1.65 1.1 2.05.7 2.1.35 2.7.1 2.4-.6 1.25.15 1.35.45 1.55.1q1.25-.1 2.25-.85l.8-.75.45-.9.05-.95-.55-.9-1.2-1.6q-.6-.95-.5-2.15.15-1.05 1.3-1.7l1.4-.5q1.05-.2 1.55 0 .55.25.75.6.2.45-.3 1.2-.8 1.35-2.6 1.45-1.75.15-2-.75-.2-.8 1.25-1.2l.95-.15.65.2q.6.4-.3.85-.55.4-.8-.1-.05-.05.25-.2" fill="none" stroke="#5ad4f9" stroke-linecap="round" stroke-linejoin="round" stroke-width=".5"/><path d="M.8 16.55q-.8-.05-1.7-.8l-.6-.7q-.35-.75-.55-.75l.15-.05-1.05.05-3.4-1.05-1.15-.85 1.9.05 1 .1.95.1-.95-1.7-.35-.9.1-1q.4 0 1.65 1.25l1.25 1.55.35-1.85q1 1.15 1.15 2.45v.7l-.3.6Q-1 14.2-.4 15l1.1.95 1.6-.15 1.4-.15.75.25.25.55-.9-.15-1 .1-2 .15" fill="#06a7cc" fill-rule="evenodd" transform="translate(16.8)"/><path d="M1.05 16.25Q.2 16.1-.6 15.4l-.65-.7-.5-.75h-.9l-1.7-.4-1.75-.65-1.15-.85 1.9.05 1 .1 1 .1-1-1.7-.3-.9.1-1q.45 0 1.6 1.3l.65.7.6.85.2-1 .15-.9q1 1.15 1.2 2.5v.65l-.35.6q-.2.45.4 1.25l1.1.95 1.6-.15L4 15.3l.75.25.2.6-.85-.2-1 .1-2.05.2m-2.8-2.3h.15-.15" fill="#d9f1f9" fill-rule="evenodd" transform="translate(16.8)"/><path d="m11.95 10.9-.35 1.25-.55.9.8-.55 1.15-.65 1.2-.4 1.1-.2-1.45 1.8L12 14.4l2.55-.1 1.25.45 1.3.55-1.3.5-1.5.35-3.35-.45-1.25-.15-1.1.85q-.55.35-1.4.4-.95.05-1.15-.55l1.9-.25.85-.45.25-.6.15.25-.35-.95q-.3-.9-.15-1.9.15-1.1 1.1-2.25 1.25-1.55 2.55-1.95.15 1.05-.4 2.75M-6 4.15l3.4 2.1-1 1.05-3.15-1.55.75-1.6" fill="#06a7cc" fill-rule="evenodd" transform="translate(16.8)"/><path d="m11.6 10.6-.35 1.25-.55.95.8-.55q.2-.2 1.15-.65l1.2-.4 1.1-.2-1.45 1.8-1.9 1.35 2.55-.1q.65.15 1.25.45l1.35.55-1.35.5-1.5.3q-1.1.2-3.3-.4l-1.25-.15-1.1.8q-.55.4-1.4.45-.95.05-1.15-.6l1.9-.2.8-.45.35-.5.1.15-.4-.95q-.25-.9-.15-1.9.15-1.1 1.1-2.25 1.25-1.5 2.55-1.95.2 1.2-.35 2.7" fill="#d9f1f9" fill-rule="evenodd" transform="translate(16.8)"/><path d="M-1.9 15.4v.1q1.3-.85 1.1-.25l-.65.4q-.25.25-.05.6.9 1.95-.25 2.7-.3-.7-.75-1.2-.2-.2-.9.2-.35.3-1.25.6l-1.5.35.3-.25q1.45-1.4 1.3-2.15l-1.8-.25-1.8.05q.6-.65 1.9-1.05L-5.1 15l2.3-.05.9.45" fill="#06a7cc" fill-rule="evenodd" transform="translate(16.8)"/><path d="M-2.1 15.1v.1q1.25-.6 1.15-.2l-.7.4-.05.6q.95 1.85-.25 2.7l-.75-1.2q-.25-.3-.9.2l-1.25.6-1.45.3q.1-.2.3-.25 1.4-1.4 1.25-2.15l-1.75-.25-1.8.05q.45-.55 1.9-1l1.1-.3q1.5-.3 2.3 0l.9.4" fill="#d9f1f9" fill-rule="evenodd" transform="translate(16.8)"/><path d="m5.3 14.7.5 1.2.15.25.15.85-.05.3v.25l-.1.5-.3.75-.45.6-.15.3-.1.3-.2.3H4.4l-.4-.1-.45-.1.45-.85.1-.15.05-.15.45-.7.2-.4.25-.8-.1-1.2-.1-.35-.3-.65v-.05l.15-.05.3-.05h.3" fill="#05536b" fill-rule="evenodd" transform="translate(16.8)"/><path d="m4.85 12.25-.3.9.3.9.75 2.05q.3 1.5 0 2.4l-.6.85-.5.85-.35-.05-.25-.1.4-.7.55-.85.35-.75q.25-.55.05-1.7L4.8 14.5l-.35-.8-.05-.85.05-.35.1-.35.3.1" fill="#020000" fill-rule="evenodd" transform="translate(16.8)"/><path d="m5.25 11.45.4-.15.4 1.25.4 1.35q.1.85-.7.9l-1.4.05-.75-.05-.2-.55-.05-1.45q0-1.35.3-1.35h1.6" fill="#000102" fill-rule="evenodd" transform="translate(16.8)"/><path d="m4 12 1.55.2.1.9.2.95-1 .2q-.7.15-.9-.2L3.85 13 4 12" fill="#05739e" fill-rule="evenodd" transform="translate(16.8)"/><path d="m-11.45 1.85-.7 1.55-1.65-.05q-.2-1.4 1.05-1.8l1.3.3" fill="#06a7cc" fill-rule="evenodd" transform="translate(16.8)"/><path d="M-4.3 5.1q1.05.35.95.6l-1 1.2-1.8-.85-.05-.1.1-.1.4-.6.6-.65.55.35q.25.1.25.15m-8.3-3.6.45.05q.35.1.15.25l-.6.45-.4.45-.25.7-.1.05h-.15l-.1-.05-.2-.1-.05-.15V2.5l.1-.2.3-.4q.4-.5.85-.4" fill="#62c6e8" fill-rule="evenodd" transform="translate(16.8)"/><path d="m9.75 6.35 2.6-1.6.7 1.05-2.7 1.55-.6-1M18.8 1.3q.75-.6 1.4-.6l.5.1q.8.65-.05 2l-1.35.35-.5-1.85" fill="#06a7cc" fill-rule="evenodd" transform="translate(16.8)"/><path d="m10.6 5.9.45-.35.3-.2.3-.2.8 1.05-.3.2-.95.45-.05-.3-.55-.65m9.8-3.6v-.5q0-.5-.35-.7l-.4-.15L19.4.9q.1-.15.35-.15l.6-.05q.6 0 .7.6l.05.5-.15.45-.4.65q-.35.1-.3-.15l.1-.2.05-.25" fill="#62c6e8" fill-rule="evenodd" transform="translate(16.8)"/><path d="m4.35 12.1-.05.05h.55l.1.5.05.75-.1.15-.4-.05-.3-.05-.05-.15-.1-.95.1-.25h.2" fill="#06a7cc" fill-rule="evenodd" transform="translate(16.8)"/><path d="m4.5 12.25.15.35.05.35v.15h-.4l-.15-.85h.35" fill="#5ad4f9" fill-rule="evenodd" transform="translate(16.8)"/></g></defs></svg>