<svg xmlns:xlink="http://www.w3.org/1999/xlink" height="82" width="84.85" xmlns="http://www.w3.org/2000/svg"><g transform="translate(37.4 42.25)"><use height="38" transform="translate(-11.95 -17.45)" width="32.05" xlink:href="#a"/><use height="38.95" transform="translate(-12.45 -17.95)" width="33.05" xlink:href="#b"/><use height="9.9" transform="translate(-17.35 -14.95)" width="9.95" xlink:href="#c"/><use height="9.9" transform="matrix(-1 0 0 1 25.45 -15.15)" width="9.95" xlink:href="#c"/><use height=".1" transform="translate(20 1.3)" width=".7" xlink:href="#d"/><use height="24.2" transform="translate(3.8 1.4)" width="20.4" xlink:href="#e"/><use height="24.2" transform="matrix(-1 0 0 1 3.8 1.4)" width="20.4" xlink:href="#e"/></g><defs><use height="38" width="32.05" xlink:href="#f" id="a"/><use height="38.95" width="33.05" xlink:href="#g" id="b"/><use height="9.9" width="9.95" xlink:href="#h" id="c"/><use height="24.2" width="20.4" xlink:href="#i" id="e"/><path d="M27.35 7.4q2.15 4.15 3.55 8.75 1.45 4.7 1.15 9.5-.35 4.95-4.2 8.1-3.8 3.2-8.75 4.05l-2.6.2q-3.6 0-7.05-1.15-4.65-1.6-7.1-5.5Q-.2 27.4.05 23q.2-4.4 2-9.3Q3.85 8.75 7 5.05 10.1 1.3 14.7.1l1.8-.1q1.9.05 3.7.8 4.75 2.05 7.15 6.6" fill="#52a037" fill-rule="evenodd" transform="translate(-.05)" id="f"/><path d="M27.35 7.4Q24.95 2.85 20.2.8 17.55-.3 14.7.1 10.1 1.3 7 5.05q-3.15 3.7-4.95 8.65-1.8 4.9-2 9.3-.25 4.4 2.3 8.35 2.45 3.9 7.1 5.5 4.65 1.55 9.65.95 4.95-.85 8.75-4.05 3.85-3.15 4.2-8.1.3-4.8-1.15-9.5-1.4-4.6-3.55-8.75Z" fill="none" stroke="#000" stroke-linecap="round" stroke-linejoin="round" transform="translate(.45 .5)" id="g"/><path d="m20.6 1.35.1.05H20l.2-.1.4.05" fill="#153060" fill-rule="evenodd" transform="translate(-20 -1.3)" id="d"/><g id="h" fill-rule="evenodd"><path d="m2.25-3.85.15.35v.05Q2.4-2.3 1.55-1l2 1.45 1.1.7.3.7q0 1.1-1.35 2.85-.3.4-.65.1l-.4-.2-3.3-2.15-.95.5q-1.8 1.05-2.35.8-.6-.35-.85-1.5-.3-1.3.2-2.45 1.05-2.35 3.5-4.2 1.85-1.35 3.45.55" fill="#363636" transform="translate(5 4.95)"/><path d="M-.75-3.5q1.15-.95 2.25.4L.65-.75 4 1.9l-.95 1.85-3.9-2.3q-2.3 1.6-2.75 1.35-1.1-.6-.05-2.85.75-1.75 2.9-3.45" fill="#33a061" transform="translate(5 4.95)"/><path d="M-2.6-1.05Q-1.35-2.9-.05-3.1q.3 0 .35.2.5.95-.5 2.7-1 1.75-2.85 1.8l-.35-.3q-.25-.95.8-2.35" fill="#363636" transform="translate(5 4.95)"/><path d="M-.9-.45Q-1.8.75-2.65.75q.1-.8.9-1.8L-.3-2.2q.3.6-.6 1.75" fill="#33453b" transform="translate(5 4.95)"/></g><g id="i" fill-rule="evenodd"><path d="M-1.2-7q-5.3 2-9 5.65V-2.9q3.4-3.3 8.8-5.3l2.2-.75-2 1.95m5.8-4.45 1.25-.6.15-.05h.7q1.4.9 1.45 3.85l-.3.5-.35.15-.1.05q-.65 1.4-.65 4.75l.65.65q.2.75-.3 1.7l-.2.2-.05.05q.25 2.1.9 3.7l.1-.05.4.1Q9.7 4.8 10.2 6.45l-.1.45-4.3 3.25Q.35 13-5.75 11.7l-.25-.15-.6-1-3.6.1v-1l3.3-.1.1.3 1.05-.2.4 1.1Q.4 11.9 5.3 9.35l.2-.1Q8.7 8 9.15 6.5l-.1-.15Q8.75 5.45 8 4.8l-.1-.15-.2.3-.55.5-.35-.95.25-.3Q6.25 2.5 6 .25L-.65 2.8l-.7.25-1 .3-1.8.55-1.3.35-1.15.25-.8.15-.45.1L-9.4 5l-.4.05h-.4V4.1h.15l3.65-.55 1.15-.25 3-.8 1.1-.4Q2.25.95 5.9-.8l.4-.25.05-.8-.5.25Q2.5-.2-.75.9l-1.3.4-2.9.85-1.15.3-3.85.8h-.25v-1h.25l4.2-.9L-4.6 1l1.2-.3 1.65-.55h.1l1.4-.45L5.8-2.65q0-2.8.4-4.35l.4-.2-.25-.35-.45-.5 1.2-.5.05-.1v-.2q.3-1.5-.9-2.2l-1.6.75-.05-.55v-.6" fill="#153060" transform="translate(10.2 12.1)"/><path d="M7.15-8.85v.2l-.05.1-1.2.5-4.8 3.4Q-.8-2.6-1.65.15h-.1L-3.4.7q.55-1.75 1.45-3.3 3-5.15 9-7.45l.1 1.2M-4.15 3.9l1.8-.55-.1 1.75.05.85.2 2.7h.05q6.75.1 9.85-3.7l.2-.3.1.15q.75.65 1.05 1.55l.1.15Q8.7 8 5.5 9.25l-.2.1q-4.1 1.6-9.5.7-.4-3.3.05-6.15" fill="#80bad4" transform="translate(10.2 12.1)"/><path d="m4.65-10.3 1.6-.75q1.2.7.9 2.2l-.1-1.2q-6 2.3-9 7.45-.9 1.55-1.45 3.3l-1.2.3.05-.15Q-1.75-7 4.65-10.3M-5.45 4.25l1.3-.35q-.45 2.85-.05 6.15 5.4.9 9.5-.7-4.9 2.55-10.65 1.4l-.4-1.1-.1-2.5.4-2.9m12.6 1.2.55-.5q-3.1 3.8-9.85 3.7h-.05l-.2-2.7.25 2.7q5.9-.15 9.3-3.2" fill="#ccecf4" transform="translate(10.2 12.1)"/><path d="m-1.2-7 2-1.95q1.7-1.45 3.8-2.5v.6l.05.55Q-1.75-7-4.55.85L-4.6 1l-1.15.35L-4.7-1.5Q-3.3-4.65-1.2-7m7.1-1.05.45.5.25.35-.4.2Q1.7-4.7-.25-.3l-1.4.45Q-.8-2.6 1.1-4.65l4.8-3.4M-6.6 4.5l1.15-.25-.4 2.9.1 2.5-1.05.2-.1-.3q-.25-1.5.05-3.65l.25-1.4m4.25-1.15 1-.3-.3 2.9.15 1.75q5.4-.2 8.3-3.2l.35.95q-3.4 3.05-9.3 3.2l-.25-2.7-.05-.85.1-1.75" fill="#4d63ab" transform="translate(10.2 12.1)"/><path d="M6.2-7q-.4 1.55-.4 4.35L-.25-.3Q1.7-4.7 6.2-7M-1.35 3.05l.7-.25L6 .25Q6.25 2.5 7.05 4.2l-.25.3q-2.9 3-8.3 3.2l-.15-1.75.3-2.9" fill="#1f7da6" transform="translate(10.2 12.1)"/><path d="M-10.2 3.25h.25l3.85-.8 1.15-.3 2.9-.85 1.3-.4Q2.5-.2 5.85-1.6l.5-.25-.05.8-.4.25Q2.25.95-1.15 2.1l-1.1.4-3 .8-1.15.25-3.65.55h-.15v-.85" fill="#fff" transform="translate(10.2 12.1)"/><path d="M-10.2.8q.85-1.55 3.85-2.1l1.65-.2-1.05 2.85-4.2.9h-.25V.8m0 4.25h.4l-.4.35v-.35m.8-.05 1.55-.25-.6 2.2Q-8.9 5.7-9.4 5m2-.35.8-.15-.25 1.4-.55-1.25" fill="#12579e" transform="translate(10.2 12.1)"/><path d="M-10.2-1.35Q-6.5-5-1.2-7q-2.1 2.35-3.5 5.5l-1.65.2q-3 .55-3.85 2.1v-2.15m.4 6.4.4-.05q.5.7.95 1.95l.6-2.2.45-.1.55 1.25q-.3 2.15-.05 3.65l-3.3.1V5.4l.4-.35" fill="#3580af" transform="translate(10.2 12.1)"/></g></defs></svg>