<svg xmlns="http://www.w3.org/2000/svg" xmlns:xlink="http://www.w3.org/1999/xlink" width="84.85" height="82"><g transform="translate(37.4 42.25)"><use xlink:href="#a" width="12.8" height="16.3" transform="translate(13.6 -18)"/><use xlink:href="#a" width="12.8" height="16.3" transform="matrix(-1 0 0 1 -5.1 -17.95)"/><use xlink:href="#b" width="32.05" height="38" transform="translate(-11.95 -17.45)"/><use xlink:href="#c" width="15.3" height="37.7" transform="translate(5 -17.35)"/><use xlink:href="#d" width="33.05" height="38.95" transform="translate(-12.45 -17.95)"/><use xlink:href="#e" width="33.65" height="18.7" transform="translate(-12.75 -1.3)"/></g><defs><path id="g" fill="#33a02c" fill-rule="evenodd" d="M27.35 7.4q2.15 4.15 3.55 8.75 1.45 4.7 1.15 9.5-.35 4.95-4.2 8.1-3.8 3.2-8.75 4.05l-2.6.2q-3.6 0-7.05-1.15-4.65-1.6-7.1-5.5Q-.2 27.4.05 23q.2-4.4 2-9.3Q3.85 8.75 7 5.05 10.1 1.3 14.7.1l1.8-.1q1.9.05 3.7.8 4.75 2.05 7.15 6.6" transform="translate(-.05)"/><path id="c" fill="#296300" fill-rule="evenodd" d="m14.15-12.2 1.4 2.1 2.8 6.45 1.1 3.4.65 3.55.2 3.6-.1 1.75-.1.3v.3l-.25 1.15-.1.25-.25.85-.45 1.05-.2.25-.05.1-.1.15-.25.5-.7.95-1.7 1.65-.8.55-.2.2-.8.5-.2.2-2.15 1.15-1.1.45-3.55 1-2.25.15q2.35-1.8 4.8-5.85 2.8-4.65 3.95-9.7 3-13.65-7.95-22.15l1.15.2 3.05 1.3 2.05 1.4 2.1 2.25" transform="translate(-5 17.35)"/><path id="h" fill="none" stroke="#000" stroke-linecap="round" stroke-linejoin="round" d="M27.35 7.4Q24.95 2.85 20.2.8 17.55-.3 14.7.1 10.1 1.3 7 5.05q-3.15 3.7-4.95 8.65-1.8 4.9-2 9.3-.25 4.4 2.3 8.35 2.45 3.9 7.1 5.5 4.65 1.55 9.65.95 4.95-.85 8.75-4.05 3.85-3.15 4.2-8.1.3-4.8-1.15-9.5-1.4-4.6-3.55-8.75Z" transform="translate(.45 .5)"/><use xlink:href="#f" id="a" width="12.8" height="16.3"/><use xlink:href="#g" id="b" width="32.05" height="38"/><use xlink:href="#h" id="d" width="33.05" height="38.95"/><g id="f" fill-rule="evenodd"><path fill="#4f0000" d="m9.65 3.5.6.15q.2.2.05.55Q9 6.6 9.7 7.95q.6 1 2.6 1 .4 0 .5.4.1.4-.3.55-1.35.7-1.55 1.7-.35 1.6 1.3 3.55.25.25 0 .6t-.6.15q-3.25-1.3-6.05.35l-.45.05-.3-.35Q3 9.1.1 5.95L0 5.5l.3-.35Q3.35 4.2 4.8.35q.2-.45.6-.3.45.1.35.5-.15 2.2 1 3.05l2.9-.1"/><path fill="#d80000" d="M11 9.85q-1.35 1.2-.95 3.05l.65 1.65q-2.7-.65-5.05.6-1.6-6-4.4-9.4 2.35-1 3.65-3.4.9 3.25 4.1 2.5-1.5 3.95 2 5"/><path fill="#8f0000" d="M8.8 8.15q-3.1.45-4.85 2.55l-1-2.1L7.7 5.05l1.3-.2q-.75 2-.2 3.3m1.15 4.4q-2.75.25-4.65 1.5l-.75-1.95Q6 11.2 10.9 9.8l.1.05q-1.25 1.1-1.05 2.7M4.9 2.35q.25.95.85 1.6L3.6 5.3Q2.2 6.45 2.15 7.15l-.9-1.4q2.35-1 3.65-3.4"/><path fill="#4f0000" d="M9.45 5.1Q7 6.2 2.7 9l-.55-.85Q6 5.6 9.05 4.2l.4.9m2 5.3q-3.5.5-7.05 2.2l-.45-.9Q7.5 10 11.3 9.4l.15 1"/></g><g id="e"><path fill="#33a02c" fill-rule="evenodd" d="M3.4 9.7q-1.45 2.45-2.2 1.75-.85-.7-.2-3.65l9.95 6.05q-.8 3.05-3.4 2.4Q5.1 15.65 6.3 12q-1 2.7-2.8 1.75-1.8-.95-.1-4.05"/><path fill="none" stroke="#333" stroke-linecap="round" stroke-linejoin="round" d="M1 7.8q-1 2.65.1 3.5.95.75 2.15-1.25l.25-.5m-.25.5q-1.45 2.8.25 3.7 1.8.95 2.8-1.75l.15-.4m4.5 2.25q-.8 3.05-3.4 2.4Q5.1 15.65 6.3 12"/><path fill="#296300" fill-rule="evenodd" d="M32.9 7.85q.25 3.25-.5 3.85-.55.5-1.45-1.05 1.05 2.4-.5 3.2-1.8.9-2.8-1.8 1.2 3.65-1.25 4.25-2.65.65-3.4-2.4l9.9-6.05"/><path fill="none" stroke="#333" stroke-linecap="round" stroke-linejoin="round" d="m30.4 9.65.5.95q.9 1.5 1.65.9.95-.75.35-3.65m-5.4 3.8.15.4q1 2.7 2.8 1.8 1.55-.8.45-3.25M23 13.9q.75 3.05 3.4 2.4 2.45-.6 1.25-4.25"/><path fill="#33a02c" fill-rule="evenodd" d="M23.6 12.3v-1.15q.2-1.2.55-1.45.9-.75 1.3-.6l.4.6q1.1 2.55.4 3.85-.7 1.1-1.7.8-.95-.2-.95-2.05"/><path fill="#296300" fill-rule="evenodd" d="M6.9 15.25q2.45-.15 3.4-2.45 0 1.7-.45 2.25-1.55 1.75-2.95.2M3.35 12.9q.5.05 1.7-1.05l1.2-1.45q-.4 2.2-1.7 3-.6.5-1.1.25-.3-.1-.15-.8l.05.05"/><path fill-rule="evenodd" d="M18.4 18q-6.4 1.05-8.8-4.35 2.3-5.5 7.5-5.35 3.35.15 5.85 2.15 1.75 1.4 2.15 2.65-.3 1.7-2.25 3.1-1.95 1.4-4.45 1.8"/><path fill="#7d1f00" fill-rule="evenodd" d="M17.35 8.05q3.2 0 5.05 1.95 1.2 1.2 1.2 2.8v.05q0 1.6-1.3 2.8-1.95 1.9-5.1 1.8-2.6-.05-4.4-1.45-1.85-1.4-1.8-3.35 0-1.55 1.25-2.8 1.95-1.9 5.1-1.8"/><path fill="#c28c00" fill-rule="evenodd" d="M22.65 12.85q-.05 1.6-1.6 2.7-1.6 1.1-3.8 1.05-2.2-.05-3.75-1.2-1.6-1.15-1.55-2.75.05-1.6 1.6-2.7 1.6-1.15 3.8-1.1 2.2.05 3.75 1.2 1.55 1.2 1.55 2.8"/><path fill="#dba800" fill-rule="evenodd" d="m21.2 12.05.05.15q.35.95-.35 1.95-.7.9-1.75 1.1l-1.65.05q-2.55 0-3.4-1.15-1.15-1.65-.15-2.9 1.15-1.45 3.9-1.1 2.7.45 3.35 1.9"/><path fill="#f0d400" fill-rule="evenodd" d="M15.4 13.5q-1.45-.7-.6-1.5.45-.35 1.65-.45l2.4-.05.95.65q.6.6.55 1 0 .65-1.05.85-2.3.4-3.9-.5"/><path fill="#333" fill-rule="evenodd" d="m16.9 7.95 3.2.5q3.45 1.25 5.5 4.75v.45q-2.65 5.65-9.3 5-6.15-.5-7.35-4.85l.05-.35q1.45-2.8 3.1-3.95 1.65-1.15 4.8-1.55m-.5 9.75q5.75.45 8.15-4.25-1.85-3-4.8-4.05L17 8.95q-2.75.35-4.1 1.25-1.5.95-2.9 3.5 1.1 3.5 6.4 4"/><path fill="#f0d400" fill-rule="evenodd" d="M17.3 9.15q2.75 2.8-.3 7.25-.85-.55-1.05-2.95-.2-2.75 1.35-4.3"/><path fill-rule="evenodd" d="M17.25 9.7q1.45 2.35-.15 6.15-.45-.5-.55-2.5-.15-2.3.7-3.65"/><path fill="#fcf9f7" fill-rule="evenodd" d="M14.9 9.6q-2.4 1.85-1.5 5.25-1.55-1.05-1.15-2.85.45-1.85 2.65-2.4"/><path fill="#913800" fill-rule="evenodd" d="M18.5 16.15q3.65-2.05 2.6-5.9 1.85 1.5 1.05 3.65-.9 2.2-3.65 2.25"/><path fill="#fcf9f7" fill-rule="evenodd" d="M16.95 11.05q0 .8-.85.8t-.85-.8q0-.85.85-.85t.85.85m-.85 1.45q0 .5-.45.5-.5 0-.5-.5t.5-.5q.45 0 .45.5"/><path fill="#33a02c" fill-rule="evenodd" d="M1.85 4.05Q.95 3.3 1.75.5l9.95 6.05q-.8 3.05-3.4 2.4-2.5-.6-1.2-4.35-1.05 2.75-2.85 1.85-1.85-.95 0-4.15-1.5 2.45-2.4 1.75"/><path fill="none" stroke="#333" stroke-linecap="round" stroke-linejoin="round" d="M11.7 6.55q-.8 3.05-3.4 2.4-2.5-.6-1.2-4.35-1.05 2.75-2.85 1.85Q2.4 5.5 4.2 2.3 2.7 4.85 1.95 4.35q-.8-.45-.2-3.85M7.1 4.6l.1-.35"/><path fill="#296300" fill-rule="evenodd" d="M8.5 7.55q.8-.05 1.65-.65l1-1.15q.7 1.4-1.25 2.45Q8 9.25 7.3 7.3l1.2.25M4.35 6.1 3.9 4.75Q5.2 6 6.75 3.7q-.5 2.75-2.4 2.4M32.1 4.2q-.9.7-2.35-1.75 1.8 3.25-.05 4.15-1.8.95-2.8-1.75 1.2 3.65-1.25 4.25-2.65.65-3.4-2.4l9.9-6.05q.85 2.8-.05 3.55"/><path fill="#33a02c" fill-rule="evenodd" d="M26.6 4.1q1.65 3.25-.6 4.65-1.55 1-4.15-3.15l4.75-1.5"/><path fill="none" stroke="#333" stroke-linecap="round" stroke-linejoin="round" d="M22.25 6.7q.75 3.05 3.4 2.4 2.45-.6 1.25-4.25l-.15-.4m.15.4q1 2.7 2.8 1.75 1.85-.9.05-4.15l-.15-.25m.15.25Q31.25 5 32 4.55q.8-.5.15-3.9"/><path fill="#296300" fill-rule="evenodd" d="m25.45 7.75 1.2-.3q-.7 1.95-2.65.9-1.95-1.05-1.2-2.4l1 1.1q.6.5 1.65.7m4.15-1.5q-1.2.2-1.95-.95-.5-.85-.5-1.45 1.6 2.3 2.9 1.05.1 1.05-.45 1.35"/></g></defs></svg>