<svg xmlns="http://www.w3.org/2000/svg" xmlns:xlink="http://www.w3.org/1999/xlink" width="84.85" height="82"><g transform="translate(37.4 42.25)"><use xlink:href="#a" width="32.05" height="38" transform="translate(-11.95 -17.45)"/><use xlink:href="#b" width="33.05" height="38.95" transform="translate(-12.45 -17.95)"/><use xlink:href="#c" width="30.3" height="36.8" transform="translate(-11.5 -16.55)"/></g><defs><path id="d" fill="#434768" fill-rule="evenodd" d="M27.35 7.4q2.15 4.15 3.55 8.75 1.45 4.7 1.15 9.5-.35 4.95-4.2 8.1-3.8 3.2-8.75 4.05l-2.6.2q-3.6 0-7.05-1.15-4.65-1.6-7.1-5.5Q-.2 27.4.05 23q.2-4.4 2-9.3Q3.85 8.75 7 5.05 10.1 1.3 14.7.1l1.8-.1q1.9.05 3.7.8 4.75 2.05 7.15 6.6" transform="translate(-.05)"/><path id="e" fill="none" stroke="#000" stroke-linecap="round" stroke-linejoin="round" d="M27.35 7.4Q24.95 2.85 20.2.8 17.55-.3 14.7.1 10.1 1.3 7 5.05q-3.15 3.7-4.95 8.65-1.8 4.9-2 9.3-.25 4.4 2.3 8.35 2.45 3.9 7.1 5.5 4.65 1.55 9.65.95 4.95-.85 8.75-4.05 3.85-3.15 4.2-8.1.3-4.8-1.15-9.5-1.4-4.6-3.55-8.75Z" transform="translate(.45 .5)"/><use xlink:href="#d" id="a" width="32.05" height="38"/><use xlink:href="#e" id="b" width="33.05" height="38.95"/><g id="c" fill-rule="evenodd"><path fill="#4e537a" d="M9.55 2.35q1.3-.85 1.3-.5-.8 1.15-1.2 3.6-.15.85-.85 2.7-.7 1.6-.75 2.7-.05 1.85.45 5.5 0 4.15.7 5.9.65 1.65 3.15 4.15 1.75 2.65 2.05 4.65.45 2.7-2.3 3.6-2.35.8-4.85-.05-2.15-.75-4.6-4.4-1.4-1.95-1.4-6.8 0-7.35.65-8.85v-.05l1.15-4.05q.6-2.5 1.65-3.75 2.1-2.6 4.85-4.35"/><path fill="#292d54" d="M20.2 1.55q1.4 1.4 4.7 3.45 1.2 1.05 2.1 3.2l1.35 3.6q1.6 3.9 1.95 9.8.35 7.55-5.1 11.8-4.4 3.4-9.9 3.4-7.7 0-10.25-4.35l.6-.4q2.55 1.7 7.15 2.1 5.6.45 8.15-2.3 3.25-3.6-2.8-9.8 1.45-.45 6.3-1.55 3.45-1.5-.15-4.6.5-1.6.5-3.1 0-2.7-1.65-6.2-1.6-3.55-2.95-5.05"/><path fill="#d4d4d4" d="M22.35 28.75q-1.1 7.4-6.65 7.4-2.7 0-4.55-2.2-1.8-2.05-2.1-5.2-.4-3.8.85-5.4 1.45-1.95 5.8-1.95 7.9 0 6.65 7.35"/><path fill="#f8fff8" d="M17.95 26.2q-1.05 3.25-4.4 4.45l-3-.05q-1.35-.7-1.35-2.45 0-3.2.75-4.4 1.35-2 5.55-2 1.8 0 2.45 1.4.65 1.3 0 3.05"/><path fill="#292d54" d="M16.95 31.6q0 .8-.9.8-.95 0-.95-.8t.95-.8q.9 0 .9.8"/><path fill="#83869c" d="m6.1 5.2 2.45-2.45Q11.45.25 13.7 0q-3.1 1.4-5.75 4.6Q2.6 10.95 1.5 17.5q-1 6.35-1.05 9.1l-.4-3.45Q-.7 13.25 6.1 5.2"/><path fill="#aaadc2" d="m15.15 36.15 1.2-.15q1.5-.6 3.2-2.75 2.7-3.35 3-6.55.3 3.65-2 6.9-1.45 2.05-3.55 2.5l-1.85.05"/></g></defs></svg>