<svg xmlns:xlink="http://www.w3.org/1999/xlink" height="82" width="84.85" xmlns="http://www.w3.org/2000/svg"><g transform="translate(37.4 42.25)"><use height="38" transform="translate(-11.95 -17.45)" width="32.05" xlink:href="#a"/><use height="38.95" transform="translate(-12.45 -17.95)" width="33.05" xlink:href="#b"/><use height="55.6" transform="translate(-22.95 -28.05)" width="54.2" xlink:href="#c"/></g><defs><path d="M27.35 7.4q2.15 4.15 3.55 8.75 1.45 4.7 1.15 9.5-.35 4.95-4.2 8.1-3.8 3.2-8.75 4.05l-2.6.2q-3.6 0-7.05-1.15-4.65-1.6-7.1-5.5Q-.2 27.4.05 23q.2-4.4 2-9.3Q3.85 8.75 7 5.05 10.1 1.3 14.7.1l1.8-.1q1.9.05 3.7.8 4.75 2.05 7.15 6.6" fill="#d0c19d" fill-rule="evenodd" transform="translate(-.05)" id="d"/><path d="M27.35 7.4Q24.95 2.85 20.2.8 17.55-.3 14.7.1 10.1 1.3 7 5.05q-3.15 3.7-4.95 8.65-1.8 4.9-2 9.3-.25 4.4 2.3 8.35 2.45 3.9 7.1 5.5 4.65 1.55 9.65.95 4.95-.85 8.75-4.05 3.85-3.15 4.2-8.1.3-4.8-1.15-9.5-1.4-4.6-3.55-8.75Z" fill="none" stroke="#000" stroke-linecap="round" stroke-linejoin="round" transform="translate(.45 .5)" id="e"/><use height="38" width="32.05" xlink:href="#d" id="a"/><use height="38.95" width="33.05" xlink:href="#e" id="b"/><g id="c" fill-rule="evenodd"><path d="M6.1-9.2q-.15-1.55-.55-1.4l-1.3 3.05v.2l-.05-.1-.05.1v-.2l-1.35-3-.55 1.45q-.5-.25-1.45-3.95-.3 0-.45 1.2-.2 1.2-.05 2l-1.6-1.85-.8-.45.9 2.85-2.8-1.15 1.4 2.9-1.7.05-1.05.4 1.6 1.1-2.65 1.9 3.2.25Q-5.75-2.4-4.4-2.3l1.8-.2q-.75.2-3.3 1.95Q-7.3.3-7.5.85v.6q.3.7 2.5 0 .15.6-.25.8.6-.35.95.45l-.3.9.6.05q.15.45-.6.95-.5.3-1.05 1.5-.55 1.3.3 1.1.55-.1 3.2-2.85-1.45 2.8-.4 2.25L0 4.15l.1.7q.3.65 1 .45l2-1.25.1.65q.15.6.65.4.75-.25.85-1.2l1.75.95q1 .2 1.15-1.25l2.2 2.1q.9.45.1-1.8l2.55 2.25q1.4.25.1-1.55Q11.2 2.8 12 2.9l-.2-.75q-.1-.3.35-.25-.5-.15-.35-.95.05-.75.95-.75l1.2.5 1.1.1q.55-.7-.9-1.95l-3.3-1.65q4.35.65.65-1.3.6-.5 3.2-.5-1.9-1.75-2.45-1.8.9-.9 1.7-1.2-1.85-.8-2.8-.3L12.8-11 9.7-9.65l1.05-2.9q-1.35.55-2.6 2.5v-2q-.15-1.2-.5-1.25Q6.6-9.5 6.1-9.2m-6-15.7.7-3.15L2.35-26l.75-1.85 1.95 1.9.9-1.35 1.95 2.35 3.35-.65-.4 2.15q.9-.55 3.55-.95l-1.05 2.15q.6-.6 2.9-.55l-.95 1.75 2.65.3-1 1.15q1.45-.1 2.95 1-.8.05-1.55.55.8 0 4.3 1.5-.65-.05-1.25.8 1.25.05 3.9 1.5-1.25.15-1.95.5 1.6.45 2.8 1.75l-1.3.9 1.05 1.3-1.75.65.85 2.3q-.5-.3-1.4 0l2.05 3.3q-.7.25-1.25.65 2.8 2.45 5.2 5.65Q27.5 1 25.7.7q2.9 1.75 5.55 5.7L28.1 5.25q2.85 3 2.9 3.9L27.7 7.7l.65 1.05q.7 1.25.75 2.2l-2.75-1.6 1 1.35q1.15 1.8 2.1 4.3l-2.7-2.4 2.7 4.9-2.05-.65.45 1.1q.45 1.35.4 2.65l-2.3-2.1q.45 1.45-.4 2.5l-1.8-2.35q-.3.85-1.15 1.35-.15-.45-2.7-3.25.3 1.35-.2 2.3l-2.95-2.65.3 1.05q.25 1.3-.15 2.25L14 17.55l-.2 3.2-2.15-1.4-.6 3.9q-.5-1.5-1.3-2.1L9 20.9 8.05 27 6.9 23.2l-.75 1.15q-.85 1.5-1.25 3.2l-.05-.3v.25q-.5-1.8-1.5-3.45l-.95-1.3-.35.55q-.4.9-.7 2.7l-1.7-5.45-.75.2q-.9.45-1.35 1.7l-1-3.15-2.1 1.25-.6-2.65-2.9 2.55q-.5-.65-.4-1.85l.25-1.1-2.65 3.6-.15-2.5-2 3.45-.65-2.25-1.5 2.1.2-4.1-2.05 1.75 1.3-4.9-1.85.15 1-2.95-1.9 1.4q-.45-1.1-.15-2.1l.35-.8-2.2 1.15q-.15-.75.35-1.8l.55-.95-2.4.5 3.15-4.1-2.15.25q3.05-4.25 5-5.3-.8-.1-1.9.55l-.95.65q1.6-2.6 3.7-4.4l-1.45-.65q.55-1.3 2.2-2.75l-1.9-.05 1.8-2.35-2.45-1 1.75-1.15-1.9-1.2L-14-13.5l-2.7-.8 4.7-1-1.7-.85 4.55-1.4-1.75-.5.95-.55 2.2-.55-1.15-1.05 2.75-.35-1-1.6 2.7.35-1.15-1.95 3.35.5-.9-1.7 3.25.05" fill="#1a171b" transform="translate(22.95 28.05)"/><path d="m12.35-14.05-1.9.85-1.6 1.15-.45-1.55-.7-.4-.5-.35-.95 3.25-.2-.1-.35-.1h.1l-.2-.05h-.05Q5-11.4 4.2-9.3q-.75-1.75-1.35-1.9l.15-.05-.2.05h.05l-.55.1-.1.15-.7-2.3.05-1.05-1.45.9-.5 1.6q-1.05-1-1.45-1l-1.7-.65 1.3 2.85-3.55-1.2 1.25 1.8.85 1.7-1.95.6-1.55.8 1.65.5.55.3-1.85 1.45-1.6 1.4 3.35-.15-.5.85.1.3.25.4Q-8.05-.1-8.35 1v.2l.3.8 2.45.05-.5.75h.95q.2.9-.75 1l.75.15-.8 1.25Q-6.9 6.6-6.9 7l.2.45q.35.65 1.5.4.5-.15 1.55-1.1l.3.4 1.25-.1L-.3 5.5l.3.3 1.3.05h.1l1.2-.75.4.5 1.1.1q.7-.2 1-.85l1.05.55h.1l1.2-.1.35-.4 1.6 1.35q.7.3 1.15 0l.35-.4q.9.8 1.45.95 1.15.15 1.55-.5.4-.7-.4-1.5l-1.2-1.3q.55-.1 1.45.35-1.35-1.05-1.3-1.5l.95.2q-1.05-1.05-1-1.4.1-.4 1.3.15l1.95-.1.2-.7Q15.8-.55 14.6-1.7l-1.05-.7.1-.35.05-.25-.45-.85h3.25L15.2-5.1l-1.7-1.45.7-.4 1.55-.65-1.6-.65-1.8-.45 2.35-3.85-3.8 1.6.5-1.3.95-1.8M1.15-26.3q.65.85.85.95l.55.4.4-.55.45-1 1.05 1.05.4.5.55-.25.65-.8 1.2 1.5.6.65.5-.5 2.05-.4-.55 2.6 1.25-.65 2-.55-1.45 3.25 2.1-1.6 1.3-.25L14-19.5l1.6-.85 1.05.05-.25.3-.6 1.15 1.15-.05 1.05.2-2 1.3 2.3.05 2.75.95-.95 1.3 1.25.1 1.8.5-1.95.95 2.05.5 1.7.9-1.15.8.9 1.1-1.45.65.8 1.9-1.65.4.7.9 1.6 2.45-1.5 1 .75.65L26.5.15l-.75-.2-.4 1.35q1.65 1.05 3.8 3.55L25.6 3.6l3.65 4-3.8-1.6 1.7 2.1.8 1.35-1.3-.7-.8 1 1.75 2.7-.4-.3-1.1.75 2 3.45-2.1-.65.75 1.4.65 1.85-2.85-2.7.7 2.3.1.5-.05.4-1.95-2.2L23 18.3l-.35.6-4-4.4.6 2.95v.15l-2.05-1.7-2.1-1.55.95 2.25.3 1.6v.15l-3-2.05-.25 3.25L10.95 18l-.25 3.1q-1.05-1.1-1.8-.9h-.65l-.05.65L8 23.6l-.6-1-.6-.5-.5.6-1.45 2.55-1.9-3.05-.35-.4-.55.3q-.45.25-.85 1.25l-.75-2.9-.1-.5-.5-.05q-.9-.25-2.05.85l-.7-2.6-2.1 1.3-.65-2.75-.95.7-2 1.65-.05-.2.2-1.25-1.35-.45-1.5 1.85.05-.45-1.4-.25-1.15 1.85-.15-.55-.1-1.65-1.45 1.7v-.05l.3-1.75.65-2.2-2.4 2.15.9-2.9.2-.35-.2-.35-1.45-.2 1.35-3.95L-18.9 12l-.05-.15q.05-1.1.35-1.1l1.55-2.2-3.5 1.7.6-1.1 1.05-1.5-2.55.55 2.25-2.6 1.3-1.4-2.45.3q2.5-3.05 3.75-3.8l2.05-1.1-2.25-.2-.75.05 1.9-2 .8-.65-1.65-.95 1.6-1.8 1-.85-1.2-.4-.75-.15 1.7-1.9-2.1-.85 1.5-1.05-1.7-1 3.95-1.15-1.25-.85-.2-.1 2-.3h1.75l-1.35-1.3-.25-.2 2.7-.8 2.6-.15-2.3-1.2 1.1-.2h1.3l-1-1.4 1-.05 1.8.85-1.25-2.4 1 .2 2.2 1.45-1.6-3.1 1.75.3 1.75.85L-2-24.25h1.75l.75.8.65-2.85" fill="#9f957e" transform="translate(22.95 28.05)"/><path d="m11.75-17.35 1.9-1.1-1.8 3.55 3.55-1.95q-.3 1-2.85 4.35 1.15-.85 4.65-1.05-3 2.2-4.45 3.9l.55-.9 1.75-2-4.15 1.6.5-1.3 1.15-1.85-2.05.85-1.65 1.2-1.2-2.75-1.4 3.7-.2-.1-.35-.1h.1l-.2-.05h-.05Q5-11.4 4.2-9.3q-.75-1.75-1.35-1.9l-.55.1-.1.15L.8-14.5l-1.1 2.45-1.95-5.25 1.75 2.85.45-4.65 1.9 3.4-.7-5.8 2.45 8.85.6-8.7 1 7.65 2.6-9.2-.55 7.05 3.5-4.2L9.4-15.2q.4-.8 2.35-2.15m8.35 11.1-3-.15L23-2.3q-2.7-1.65-4.35-2.15l-1.1-.2L22.3.3l-4.7-2.2 4.85 4.8-6.2-3.35L20.5 4.3l-6.7-2.8-.15-.2 2.2.1q.25-.35.1-1-.3-1-1.45-2.05l-1.1-.85.25-.45v-.1l-.45-.8 1.45-.05 1.8.05-1.35-1.3-1.65-1.4q.35-.3.65-.4l1.65-.65-1.55-.7-.95-.35 1.5.25q3 .65 5.35 2.15m3.1-8.35-.4.2-2.2.8 2.75.55q1.05.3 1.85.95l-1.65.95 1.3 1.15-1.9.6.55.8.45 1h-.05q-2.5-2-5.75-2.2l5.7-.2-6.7-1.35 7.1-.7-5.75-1.6 4.7-.95M13.9 5.2h.05l3.5 2.55-3.05-1 4.7 4.45-4.85-3.1 1.9 3.25-3.9-3.45 1.2 3.85-2.95-3.1.1 3.05-2.05-3.6-1.15 3.5-1.5-3.45-1.5 2.25-1.15-4.15-1.35 4-.2-4L.15 10.5q-.3-.95-.1-2.5l.2-1.4-4.05 5.75.45-2.15-3.1 1.95 1.9-2.75-3.95 2.2 2.65-2.85-2.7.95 1.25-1.3-2.35.8 3.1-3.2-.35.65v.7q.15.75 1.65.5l1.5-.85 1.95-.05 1.45-1.2.2.15q.65.25 1.5 0l1.05-.6.4.4q.55.25 1.3 0l1.05-.65.8.35h.15l1.45-.1.15-.2 1.4 1.05 1.55.1.3-.25q.85.65 1.35.75 1.45.25 1.75-.55l-.15-1M-4.6-10q.2 0 .9 1.7-1.3.15-1.9.65l-1.55.75 1.55.5.6.3-3.45 2.9 3.35-.15-.5.75.3.7-1.2.75q-1.35 1-2 2.25l-.05-.15 2.5-3.15-4.25 2 3-2.55q-2.95.5-4.35 1.4l3.95-3.4-2.55.2 3.1-1.4-2.9-1.35 5.7-1.4-3.45-4.05 2.55.7-1.4-2.45 4.35 3.9-3.6-1.25L-4.6-10" fill="#7e7252" transform="translate(22.95 28.05)"/><path d="m25.05-.4-2.2-.35 6.65 5.8-4.8-2 2.6 2.35 2.15 2.45-4.2-1.7 1.45 1.6q.25 0 1.1 1.65l-1.1-.6-.9.9 1.9 2.75-4.15-3.25 4.6 6.8-1-.45-2.5-1.55 2.25 3.3.7 1.95L23 14.4l2 3.75.15 1.25-2.7-3.1.05 1.5-.2.6-1.5-1.65-2.85-2.65.75 2.35.15.65-4.25-3.15 1.25 2.6.35 1.5L13.15 16l-.1 3.05-2.1-1.7-.2 3.05-1.45-1-1.1-.15-.05 4q-.45-1.3-.85-1.7l-.35-.4-.4.55-1.7 3.35-2.2-3.55-.55-.55-.4.25q-.45.45-.7 1.5l-.65-3.5-1.2.1-1.5.8-.55-2.45-2.05 1.45-.5-2.45-1.35.8-1.65 1.35.2-1.45 1.1-2.45-2.7 2.35-1.3 1.65.1-.8.75-2.8-2.35 3.1-1.1 1.85v-.05l-.1-.9.15-2 1.9-3.15q-1.35 3.2-1.3 3.8l4.4-4.7q-.85 1.45-.85 2.45l3.05-2.8-.45 1.4 1.6-.85-1.3 2.95 2-1.35.3 2.7 2.3-3.9.9 3.15L.1 13l1.05 4.85.75-4.35 1.6 4 .2-5.25 1.45 4.9.4-4.45 1.2 3.9.4-3.65L8.65 16l.1-2.95 1.65 2.1.15-2.6 1 2.15q.45-.1.3-3.35l2.55 2.25-.2-2.7 3.65 2.6-1.5-3.05 5.95 3.8-3.9-4.8 5.55 3q-1.65-2-4.9-4.75L16.2 5.4l5.45 2.75L15.4 3.2l3.95 1.65q4.2 1.9 5.65 3.2L20.35 3.1l7.6 3.65-4.9-4.85 4.9 2.05-6-5.35 2.9.3L22.2-4l2.15-.1-1.35.75 1.15 1.1L26.5.05 25.05-.4" fill="#7e7252" transform="translate(22.95 28.05)"/><path d="m7.1-15.75.5 1.15-1.35 3.5-.2-.1-.35-.1h.1l-.2-.05h-.05Q5-11.4 4.2-9.3q-.75-1.75-1.35-1.9l.15-.05-.2.05h.05l-.55.1-.1.15-.65-1.7.7.75.35-.65 1.6 2.05.55-3.4.85 1.95 1.5-3.8M15.9 1.4q.35-.35.1-1l-.65-1.15L17.8 2.5l-2.3-.85.4-.25m-2.25-4.35v-.1l-.4-.8h3.3L13.9-6.2q2.2.75 4.5 3.65-1.1-.75-2.8-.95l1.9 1.8q-1.6-.75-3.2-1.55l2.05 1.85L14.1-2l-.65-.5.2-.45m-14 8.7.2.15.25.05-4.35 3.85 2.15-2.4-3.2 1.8q.75-.65 1.15-1.65l-2.8 1.15.95-.8.75-.05 1.5-.85 1.95-.05 1.45-1.2m5.5-.7.8.35-1.2 1.85-.15-1.8.55-.4m9.65 2.6L13.1 7l.7 1.3-2.95-1.95.6 1.4-1.8-1.35-.05 1.65-1.8-2.7-.4 2.5L5.95 5.4h.15l1.45-.1.15-.2 1.4 1.05 1.55.1.3-.25q.85.65 1.35.75 1 .2 1.5-.3l1 1.2m.65 5.55 2.9 3.5-3.3-2.45.4-1.05m-12.2 9.4-.95-.95-1.1 1.65-.9-3.4h-.9q-.8 0-1.55.7l-.8-2.65.65-.85.7 2.2Q.15 17.7.1 16.9l1.05 3.4q1.25-1.75 1.15-2.9l1.75 4.05.45-4.05 1 4.5.2-4.35 1.75 2.8.2-3.5 1.6 2.2.4-3.15L10.7 17l.4-1.9 1.45 2.6.2-3.65 1.7 1.9.45-1.35.95 2.05.4 1.5-3-1.9-.15 3.25-.85-.55-1.3-1.1-.25 3.3-1.5-.95h-.95l-.2 3.55L6.85 22l-2 3.05q-.6-1.3-1.6-2.45M24.1 16l.9 2.15.1 1.2-1.7-2.15-.75 1.75-3.5-5.95 4.95 3m1.9 1.45.45.4-3.25-4.2 3.75 3.8.55 1.7-1.5-1.7" fill="#655530" transform="translate(22.95 28.05)"/></g></defs></svg>