<svg xmlns="http://www.w3.org/2000/svg" xmlns:xlink="http://www.w3.org/1999/xlink" width="84.85" height="82"><g transform="translate(37.4 42.25)"><use xlink:href="#a" width="32.05" height="38" transform="translate(-11.95 -17.45)"/><use xlink:href="#b" width="33.05" height="38.95" transform="translate(-12.45 -17.95)"/><use xlink:href="#c" width="41.05" height="23.95" transform="translate(-16.9 1.05)"/></g><defs><radialGradient id="f" cx="0" cy="0" r="819.2" gradientTransform="matrix(.017 0 0 .017 3.95 14.7)" gradientUnits="userSpaceOnUse" spreadMethod="pad"><stop offset=".024" stop-color="#b86b1f"/><stop offset=".549" stop-color="#824b24"/><stop offset=".976" stop-color="#4d351e"/></radialGradient><radialGradient id="g" cx="0" cy="0" r="819.2" gradientTransform="translate(4.05 17.8) scale(.0164)" gradientUnits="userSpaceOnUse" spreadMethod="pad"><stop offset=".024" stop-color="#b86b1f"/><stop offset=".549" stop-color="#824b24"/><stop offset=".976" stop-color="#4d351e"/></radialGradient><path id="d" fill="#fff" fill-rule="evenodd" d="M27.35 7.4q2.15 4.15 3.55 8.75 1.45 4.7 1.15 9.5-.35 4.95-4.2 8.1-3.8 3.2-8.75 4.05l-2.6.2q-3.6 0-7.05-1.15-4.65-1.6-7.1-5.5Q-.2 27.4.05 23q.2-4.4 2-9.3Q3.85 8.75 7 5.05 10.1 1.3 14.7.1l1.8-.1q1.9.05 3.7.8 4.75 2.05 7.15 6.6" transform="translate(-.05)"/><path id="e" fill="none" stroke="#000" stroke-linecap="round" stroke-linejoin="round" d="M27.35 7.4Q24.95 2.85 20.2.8 17.55-.3 14.7.1 10.1 1.3 7 5.05q-3.15 3.7-4.95 8.65-1.8 4.9-2 9.3-.25 4.4 2.3 8.35 2.45 3.9 7.1 5.5 4.65 1.55 9.65.95 4.95-.85 8.75-4.05 3.85-3.15 4.2-8.1.3-4.8-1.15-9.5-1.4-4.6-3.55-8.75Z" transform="translate(.45 .5)"/><use xlink:href="#d" id="a" width="32.05" height="38"/><use xlink:href="#e" id="b" width="33.05" height="38.95"/><g id="c" fill-rule="evenodd"><path fill="#a2c4b0" d="M35.25 2.55h.05l.2.05.1.1v.05l-.1.15-.2.05-.2-.05-.1-.15.1-.15.15-.05m1.25.7q-.25-.25.4-.05l2 .45 1.5-.2-.45.35-.65.15q-1.5.1-2.8-.7m2.05-.65V3l-.15-.55q.05-.2.3-.25l-.1.25-.05.15m-.9-.4-.45.05-.1-.05.55-.15v.15m-9.8 1.85.95-.3 1.65.65-1.25.1-1.4-.25q-.2-.05.05-.2m-.1 2.25.1-.6.1-.1.8-.2.1.15-.2.25L28 6l-.25.3m-7.3 13.55-.1.05.2-.05.3.05h.35l2.25.5-.15.05-4.1-.25-.95-.4h.65l1.55.05m-1.15 3.6-1-.35.05-.05 5.4.2-.75.2h-3.7m-.05-1.4-1-.2 4.7-.6.1.15-.05-.05-.9.45-2.85.25m7.35-2.15h-.1l1.15-.5.45.05-1.5.45m8.45-1.4.15.4-2 .65-3.75 1.25-1.9.6-.6.05 8.1-2.95m-.45-1.4v.1l-.2.15-.8.3.1-.05.9-.5m1.05-.9.1-.05q.55.4 0 .5l-.1.1-.05.05-.1-.05q-.25-.4.15-.55m1.2 1.5.25.45-.25.1h-.1l-.1-.35.2-.2m-1.15 2.4q.15.4-.4.75-.85.55-2.1.9l-3.8.95-.85.15L32 21.4l3.7-1.3M12.9 5.45l.55.3v.4h-.1l-.45-.3v-.4m1.15-1.1.05.1-2.85.2.35-.35.75-.45.45.05q.65 0 1.25.45M4.45 0l.6.4L5 .55 4.45 0M3.8 2.35 3.65 2l.25.25-.1.1m-1.75.8q.3 0 .5-.2l.2-.6.05.1q-.05.8-.75.7m-.9.7-.5-.35 3.9-.25.05.05-.3.25q-1.55.65-3.15.3m4.5-1L5.6 2.8l.2-.2.1.1q0 .35-.25.15m6.75 15.9.15.15.05-.1.1.05v.5q-2.15-1.05-4.85-1.6l-1.2-.65 5.45 1.55.3.1m-5.85.05v-.2l2.2.55 2.1.65q2.3.6 4.1 1.65l-2.1-.45-2.1-.5-2.1-.75-2.1-.95m-.1 2-.05-.3 3.75.8 3.7 1.35-3.15-.55-3.75-1-.5-.3m6.85-1.75.4.15 1.6.65-.8-.1-.85-.25q-.7-.05-.35-.45"/><path fill="#3a3629" d="m36.95.95.1.05.35.4q.55-.55 1.3-.15l.3.4 1.45 1.1.15.45.25.25q.55.65-.45.8l-1.3.1q-2.05.2-3.8-.85l.2-.15 1.55.65 3.75-.35-.85.15.45-.35-1.5.2-2-.45q-.65-.2-.4.05l-.3-.2-.6-.35-.1-.1-.2-.05h-.55l.3.5L34.5 3l-.1-.2.75-.95q.55-.55 1.15-.9l-.2.4-.05.2-.8.45.85.6.15.05q.7.7 2.3.75l1.65-.2-.4-.45Q39.6 2 38.85 2l-.15.15-1.6-.45-.05-.1.05-.35-.15-.3m-1.4 14.55 1.4 1.95 1 2.25-.7.55-.45-.05-.35-.3-.55-.85V21l-.75.45q-2.5.95-5.35 1.5l-4.15.8h-.05l-.65-.7-.05.7-7.95.2.05-1.9-.5 1.8-4.3-.55-5.85-1.85-.7-.45.6-3.15-1.8 2.5h-.1l-.3-.15-.4-.15q.85-2.45 2.2-4.35l-.25-.2v-.15l1.1.4 1.8.55.35.1 3.4.85.05-.15.1-.6-.05-.15.9.25.15.7.05.5q.8.2 1.6.5l.55.1 4.55.45-.9-.15-.85-.35-.95-.6q-1.2-.85-1.3-2.4V15l.15-.75q.35-1.15 1.15-2.05 1.5-1 3.2-1.05 1.7 0 3.1 1.15 1.45 1.05 1.4 2.7-.05 2.05-1.9 3.15l-1 .35-1.1.35 3.4-.45 3.1-.55.1-.05.2.55q.35-1.05.35 1.05h.05q.5-.95.05-1.6l-.4-.4-.1-.25-.05.15-.15.1v-.2l.05-.75.9.25.05.35.1.25 1.9-.45 3.3-.95 1.35-.3h.05l.05-.05.1-.05M.9 4.35l-.9-.5.5-.6.1-.45.4-.45.75-.7.95.05L4.2.9l.9.2q.95.45 1.6 1.55l-.2.5-.55.15-.25.3-2 .7-.7.05-.25.05L.9 4.35m10.3-.65.65-.35.8.15 2.3.85-.4.35-.5-.35q-.6-.45-1.25-.45l-.45-.05h-.55l-1.15.8-.35-.2.9-.75m15.4.6q1.5-.75 3.05-.95l1.25.75.1.1-.5.25-.05-.05-1.65-.65-.95.3-1.2.6-.2-.2.15-.15m12.1-2.65q-.2-.5-.75-.1-.3-.45-.25-.05l1 .25v-.1M37.25 18.9l-.2.1-.6-.3.35.45.5.4q.5.25.15-.35l-.2-.4v.1m-5.3-13.5 1.3 3.35-.35.1-.7-2.55-.5-.75.25-.15m-1.7 1.2-.25.8q-.35.75-1.05.85l-.25-.05-.3-.15.15.05 1.2-.55.25-.75.25-.2m-.65.45-.6.6-.35.15q-1.1-.25-.95-1.35l.05-.15L28 6l.65-.2h.25l-.25.3q-1.1.2-.5 1.2l.2.2.75-.2.15-.1.35-.15M27.85 5.7q-.95.9-.15 1.95l-.3-.25-.2-.25q-.25-.95.3-1.55l.35-.45 1.35.35-.45-.1-.8.2-.1.1M8.65 8.9l-.4-.1L9.4 5.65l.25.2-.4.8-.6 2.25m16.25 6.6q.2-1.35-.85-2.25-1.35-1.15-2.95-1.2-1.7-.15-3.2.55-1 .5-1.35 1.45-.6 1.6.85 2.7 1.05.7 2.25 1.1l1.85.25q1.85-.15 2.95-1.7l.45-.9m-4.35 4.35-.2.05.1-.05h.1m-1.35.35 4.1.25.4.05h.65v-.8q.25-.55-.4-.35-1.5.25-2.95 0l-3.1.1.5-.05-.9-.15.1.95h1.6m1.7-.3h-.05l-.05-.05.1.05m2.1 3.55h.8q.7.15.65-.55l-.05-.8-.7.15-1.45.25-3.1.05-1.65-.35-.05 1.25H23m-.9-1.65 1.6-.1.55-.05.1-.9-.65.05-3 .05-3.15-.6-.05 1.95 1.75-.15 2.85-.25m3.5-1.6 1-.3 1.5-.45-.05-1.1-.15.75-.25-.7-3 .85.9 3.7.1.35v-.05l1.05-.1 1.85-.3.85-.15 3.8-.95q1.25-.35 2.1-.9.55-.35.4-.75l-.35-.75-2.15.9-2.2.85-2.3.45-2.4.25h-.8l.75-.15 1.3-.25 1.9-.6 3.75-1.25 2-.65-.15-.4-.2-.25-.3.05-5.8 1.8-.2.05-2.8.35-.6-.05q.2-.2.45-.25m1.7-5.35-.25-1 .3-.55-.2-.35q-.35-.8.2-1.4 1.35-.85 2.05.5.35.75-.4 1.4l.4.75-.5.9-.8.05-.8-.3m-2.25 8.1-.1-.55v.6l.1-.05m8.65-5.35-.1.05.8-.3.2-.15v-.1l-.05-.2-.15-.6-2.15.7q-1.75.5-3.25 1.35-.25.2-.2.45l-.1.25 1.1-.25.2-.1h.25l1.15-.25 2.3-.85m2.05-1.45-.1-.05v.1l-.15-.15q-.35-.25-.45.15v.35q.2.75.55.25l.05-.05.1-.1q.55-.1 0-.5m1.1 1.55-.5-.6q-.05-.05-.15.05l-.3.2.55 1.35.45-.35.2-.2-.25-.45m-8.35-5.3.3.45-.2.05q-.05.55.35.25l.25-.25q.35-.9-.5-1.25-1-.35-1.25.5-.25 1 .4 1l.1-.75.15-.15.4.15m-.3 1.05h-.3l-.6.65q.2.6.85.75.7-.2.95-.8-.25-.6-.9-.6l.1-.55h-.2l.1.55M11.65 5.4l.55-.4.65.05q1.05.45 1.35 1.4v.75q-.4.9-1.3 1.25l-.4.05q-1.1-.3-1.55-1.7l.3.25q.5 1.35 1.8.8l.7-.6q.4-.7-.3-1.5l-.55-.3-1.05.15-.2-.2m.05 1.9.35.1q1 .5 1.15-.6v-.25q-.15-.4-.65-.45h-.2l-.2-.2.75-.05.45.3.15 1.05q-.25.6-.95.6l-.85-.5M5.25 1.7l-.4-.4Q4.1.75 4 1.6l.1.1-1.4.35-.35-.1-.3.05-.45.2-.2.5-.5.35.85.4q2 0 2.85-.6l1.2-.8-.55-.35m-4.1 2.15-.9-.15q1.5.7 3.25.45 1.8-.1 2.8-1.6h-.15l-.25.15-.1-.1-.2.2.05.05-1.05.45-.05-.05-3.9.25.5.35M6.6 17l-.15.35 1.4.4q2.7.55 4.85 1.6v-.7l.3.45q.7-1.2-.15-2.35l-.25.25q-.35.5-.1 1.2l.05.05.1.25-.05.3-.05.1-.15-.15-.3-.95-5.2-1.65-.3.85m-1.1-.25.4.25.3-.15.55-.75-.45-.15-.1.1-.1.05.05-.1-.6.65-.05.1m-.65 2.3-.25-.25v-.35l-.05.1-.3 1.15.45-.2.15-.45m-.2-.7q.1-.2.5.15l.45-.85-.55-.3-.4 1M15.2 22.5l-1.75-.35L9.7 20.9l-3.6-1.5-.1.55.05.4.15.3.15.2v-.05h.1l.5.3q1.7.9 3.4 1.2l3.7.75 1.65.2.25-.1.3-.65H15.2m-2.15-2.45-.2-.1L9.2 19l-1.45-.6-1.2-.8-.4 1.6q4.6 1.55 9.2 2.6l.9.2.4-1.25-.9-.05-2.5-.6-.1-.05v-.45l-.1.45m-.2-7.9q.7.35.4 1l.15.05.5-.8q-.2-.7-.6-.85-.9-.25-1.25.5-.15.6.3 1.05l.1-.05q.2-.1.15-.6l.1-.3.1-.05.05.05m0 .15-.1.8.1.25q.3-.35.15-.8l-.15-.25M11.9 14l.5.65q.65.25 1.2-.5l.1-.2-.2-.2-1-.4-.6.65m0 .75-.25-1 .35-.55-.2-.35q-.3-.7.2-1.4l.9-.35q1-.05 1.25.8.25.8-.55 1.45l.4.75-.5.9-1.6-.25M16 20.2l.65-.15q.1.15.2-.1l.2-.75-3.4-.9-.2-.1-.15.85q-.35.4.35.45l.85.25 1.5.45"/><path fill="#fff" d="m36.95.95.15.3-.05.35-.2.3-.35.05-.3-.2-.1-.4.2-.4q.1-.15.25-.15h.05l.3.1.05.05m1.65 1.5q.5-.7.75.15l-.05.15-.75-.15.05-.15m-14.8 2.6q.8.45-.05.7-.8.3-.45-.55l.3-.25.2.1m-2.15-.1h.1l.55.5h-.15q-.9-.05-.5-.5m3.95 4.7q0-.2.15-.35.1-.15.3-.15v.45l-.45.05M21.05 6.5l.1.1q-.65.8-.7-.15l.6.05M20 5.2l.1.1-.8-.05.7-.05m.25 2.75.05.25q-1 .55-.9-.35l.15-.15q.45-.1.6.15l.1.1m1.15.15.2-.2.4-.1.1.2q-.4.6-.7.1m-3.05-2.7q.2.35-.4.2-.65.2-.5-.3l.15-.15q.3-.15.75.25m.25 1 .2.05.3.2q.2.35-.2.35-.8 0-.3-.6m-2.2.35.2-.15.6.4-.6-.1-.2-.15m1.7 1.2v.1q-.3.85-.65 0l.25-.3.15-.05.25.25m.6 1.2h.1l.7.25-.05.1-.6.35-.15-.7m-1.3.15v.1l-1.1.1v-.15l1.1-.05m4.7.4-.4-.25v-.2q.1-.15.3-.2l.45-.05.2.05.25.1.2.15-1 .4m-.7-.25q-.15.1-.35.15-1 .25-.65-.4l.55-.05.45.3m4.25-4.1.05.05q.25.25-.1.3-.65-.1-.35-.45l.2-.1.2.2M24.6 8.2v-.1l.15-.25.35-.15.5.5-.25.2q-.7.4-.75-.2m.15-1.6-.2.15q-.65.3-.6-.3l.15-.1.35-.05.3.3m1.55.25-.1.1-.55-.3.3-.05.35.25m-3.65-.45h.2q.15.05.3.2l.05.05q.25.35-.3.35-.95 0-.25-.6m.8 1.35.5.4-.25.1-.55-.1.2-.35.1-.05m-1.65 5.1.8.25.05.15-.25.6-.1-.1q-.8-.35-.6-.75l.1-.15m-2.45.75q-.45 0-.25-.2l.6-.6.8.3-1.15.5m3.35 3.35q-.65.25-.25-.45l.5.2-.25.25m-3.5-1.5-1-.15-.05.05-.1.15q-.6.15-.35-.5.85-.35 2 .3l-.5.15m.2 1.05v.1q-.2.25-.3-.1-.2-.7.3 0m-3.8-9.7-.6-.1.05-.15q.4-.3.55.25m.15 1.15.6.1.2.25-.25.1q-.95.55-.55-.45m-.65 1.6.05-.2.15-.2h.15l.2.1.05.25-.6.05M4.85 1.3l-.15.35-.45.15-.15-.1-.1-.1q.1-.85.85-.3m-2.8.7.3-.05.15.2q.1.3-.2.3-.65.2-.25-.45"/><path fill="#ffd75e" d="m37.05 1.6.05.1q.15.35-.4.5-.8.3-.65-.65l.05-.2.1.4.3.2.35-.05.2-.3m1.65.55.15-.15q.75 0 .95.75l-.6.45-.5-.1-.15-.1v-.4l.75.15.05-.15q-.25-.85-.75-.15l.1-.25v-.05m0-.5v.1l-1-.25q-.05-.4.25.05.55-.4.75.1m-1.05.55.15.25q-.1.6-.55.65l-.05-.85.45-.05M23.8 5.05h.05q.55.15.6.7-1.1.9-1.45 0l.3-.55q-.35.85.45.55.85-.25.05-.7M26.55 5 26 4.8l-2.75-.5h2.7q.4.05.6.4V5m-4.8-.05.75.3q.3.55-.35.7l-.45.2q-1.05-.55-.1-1.2h.05q-.4.45.5.5h.15l-.55-.5m4.75 4.4-.25.5-.4-.1-.25-.1.45-.05v-.45l.45.2m-6.05-2.9q.05.95.7.15l-.1-.1.65.55-.15.25-.4.3q-.85.2-.85-.7 0-.25.15-.45m-1.15-1.2.8.05-.1-.1q1.05.35 0 .85l-.35.25q-.75-.4-.35-1.05m.95 2.7.2.15.1.2-.75.5-.35.2-.15-.4.1-.75q-.1.9.9.35l-.05-.25m1.15.15q.3.5.7-.1l-.1-.2q.6.35.55.75l-.2.15q-.6.45-1 0l.05-.6m-3.05-2.7.1.15q0 .75-.7.85l-.45-.3q-.4-.4.15-.8-.15.5.5.3.6.15.4-.2m.25 1q-.5.6.3.6.4 0 .2-.35l.3.35.05.15q-.4.55-1 .5l-.25-.2q-.3-.4.15-.85l.25-.2m-2 .2.9.45-.55.5-.25.25-.35-.75.05-.3.2.15.6.1-.6-.4m.85 1.45q.35.85.65 0v-.1l.45.2q.05.5-.5.8l-.2.1-.25-.4-.15-.6m1.25 1.1.15.7.6-.35.05-.1.1.2-.25.3-.7.25-.15-.25q-.35-.5.2-.75m-1.3.15.05.35q-.25.55-.9.5l-.25-.65 1.1-.1v-.1m4.7.4 1-.4.05.2q-.45 1.15-1.05.2m-1.7-.5q-.35.65.65.4.2-.05.35-.15l.2.15-.75.55-.25.05q-.55-.25-.35-.85l.15-.15m5.3-3.8.1.1q.65.7-.65.8L25 6.05q-.35-.55.25-.8-.3.35.35.45.35-.05.1-.3m-1.1 2.8q.05.6.75.2l.25-.2-.5-.5.9.65q-.5.95-1.35.4l-.05-.55m.15-1.6.15.2.15.35-.75.25-.2-.05q-.6-.45-.15-.9-.05.6.6.3l.2-.15m.9.05.55.3.1-.1q.3.25-.1.5-.65.25-.6-.45l.05-.25m-2.45 0 .35.45q-.6.55-1.2.5l-.15-.2q-.25-.55.3-1.05l.15.05q-.7.6.25.6.55 0 .3-.35m.25 1.1.65.4.2.2-.1.2-1.2.15v-.2l.15-.35.55.1.25-.1-.5-.4M21.15 13l.65-.15-.1.15q-.2.4.6.75l.1.1.25-.6-.05-.15.3.2v.3l-.25.25h-.3l-.75.4-1.6-.15q-.4-.05-.65-.5l1.15-.5h.05l.6-.1m1.1 2.05.5.05q.9-.2 1.35.55-.75.55-1.7.4l-.35.15.1.85-.3-.3-.2-.8.6-.9m-3.05.4.5-.15q-1.15-.65-2-.3-.25.65.35.5l.1-.15.05-.05 1 .15m-1 .9-.7-.9q0-.65.55-.8 1.35-.1 2.05.95l.1.75-.8.15q-.5-.7-.3 0 .1.35.3.1l.3.45-1.4-.65-.05-.05h-.05m9.35-2.2q0-.65.6-.25l.5.05.1.1-1 .5-.2-.4m-12.6-9.6.35-.3 3.05.05q-1.45.05-2.75.65-1.1.45-.65-.4m.65 2.25q.65.55-.3.7-.5-.1-.3-.8l.6.1m.75-1.3.1.2q-.1.3-.45.35-.75.15-.45-.5l.8-.05m-.6 2.45q-.4 1 .55.45l.25-.1q-.05.6-.55.6h-.15q-.95-.5-.1-.95M15.7 9.5v.2q-.35.45-.6-.15l.6-.05M4.25 1.8l.45-.15.15-.35.4.4q-.5.7-.9.35l-.1-.25m-.45.55q.35.7-.25.25-.85-.45-.2-.6h.3l.15.35m-1.45-.4.35.1.05.3-.2.6q-.2.2-.5.2l-.25.05q-.55 0-.4-.5l.2-.5.45-.2q-.4.65.25.45.3 0 .2-.3l-.15-.2m10.9 12.1q-.25-.5.15-.05l-.15.05m-.95.05q.1-.75.45-.25.45.15-.15.3l-.3-.05"/><path fill="#4f7b63" d="m37.1 1.7 1.6.45v.05q-.25.05-.3.25l.15.55.15.1.5.1.6-.45.4.45-1.65.2q-1.6-.05-2.3-.75l-.15-.05-.85-.6.8-.45q-.15.95.65.65.55-.15.4-.5m-2.05 1.35-.3-.5h.5l-.15.05-.1.15.1.15.2.05.2-.05.1-.15V2.7l.6.35.3.2q1.3.8 2.8.7l.65-.15.85-.15-3.75.35-1.55-.65-.45-.3m2.15-.8.05.85q.45-.05.55-.65l-.15-.25v-.15l-.55.15.1.05m.25 16.95-.2-.3v-.1l.2.4m-9.6-15.15q-.25.15-.05.2l1.4.25 1.25-.1.05.05-1.3 1.05-1.35-.35-.35.45q-.55.6-.3 1.55l.2.25.3.25q-.8-1.05.15-1.95l-.1.6-.05.15q-.15 1.1.95 1.35l.35-.15.6-.6.4-.25-.25.75-1.2.55-.15-.05.3.15-1.35.3-.35-.45L26.9 6l-.25-1.35 1.2-.6M30 7.4l.25-.8 1.45-1.05.5.75L30 7.4m-1.35-1.6.2-.25-.1-.15.45.1-.3.3h-.25m-7.5 7.2-.4-.05q-1.55-.8-2.3.65l.05.05q.45.95 1.65 1.1l.85-.25q.4-.05.65.25l.25-.1q1.1-.2 1.3-1.1l-.2-.45h-.4l-.8-.25-.65.15m2.8 1.2.2.1.1-.2q-.55-1.55-.75-.5l.45.6m.95 1.3-.45.9q-1.1 1.55-2.95 1.7l-1.85-.25q-1.2-.4-2.25-1.1-1.45-1.1-.85-2.7.35-.95 1.35-1.45 1.5-.7 3.2-.55 1.6.05 2.95 1.2 1.05.9.85 2.25M17.15 14q1.15-1.25 2.8-1.7-2-.1-2.75 1.4l-.05.3m1.15 2.4q.45 1.55 2.15.9h.05l.4-.75-.15-.7-.5-.4-.2-.45q-1.3-.7-2.65-.35l-.45.65q.15.95 1.25 1.05h.05l.05.05m3 1.6.25-.05q-.95-.35-.25.05m-2.4 1.8h-.65l.95.4h-1.6v-.55l1.3.15m4.4.65.15-.05-2.25-.5h.2l2.25.25.05.35-.4-.05m1.05.05-.05-.5.05-.3v.8M23 23.45l.75-.2-5.4-.2-.05.05 1 .35h-1.85l.05-1.25 1.65.35 3.1-.05 1.45-.25.1 1.2H23m-.9-1.65.9-.45.05.05-.1-.15-4.7.6 1 .2-1.75.15.05-1.95 3.15.6 3-.05v.9l-1.6.1m5.55-2.4-1.15.5h.1l-1 .3-.2-.45 1.4-.45.85.1m-1.4 2.25-.5-1.15 2.8-.35h.2v-.05l5.8-1.8.3-.05.2.25-8.1 2.95.6-.05-1.3.25m-.6 1.6v.05l-.1-.35.1.3m1.05-.1-.4-1.35 2.4-.25 2.3-.45 2.2-.85 2.15-.9.35.75-3.7 1.3-3.45 1.45-1.85.3m7-5.55-2.3.85-1.15.25H30l-.2.1-1.1.25.1-.25 2.65-.95 3.1-.95.05.2-.9.5m2.5-.45q.1-.1.15-.05l.5.6-.2.2-.45-.75m.9 1-.2.2-.05-.1.25-.1m-8.6-5.75q.65-.1 0-.55-.55-.35-.4.4l-.15.15-.1.75q-.65 0-.4-1 .25-.85 1.25-.5.85.35.5 1.25l-.25.25q-.4.3-.35-.25l.2-.05-.3-.45m-.3 1.05-.1-.55h.2l-.1.55m-14-7q-.3-.95-1.35-1.4L12.2 5l-.55.4-1-.75 1.15-.8h.55l-.75.45-.35.35 2.85-.2-.05-.1.5.35-.3 1.35-.05.4m-2.35-.85 1.05-.15v.4l-.75.05-.3-.3m1.6.15q.7.8.3 1.5l-.7.6q-1.3.55-1.8-.8l.45.25.85.5q.7 0 .95-.6l-.15-1.05h.1v-.4m-2.5 1.05q.45 1.4 1.55 1.7l.4-.05q.9-.35 1.3-1.25l.05 1.85q-1.75-.2-3.3-1.2l-1.15-.8-.55-.4.4-.8 1.3.95m-6.7-5 .1.25q.4.35.9-.35l.55.35-1.2.8q-.85.6-2.85.6l-.85-.4.5-.35q-.15.5.4.5l.25-.05q.7.1.75-.7l-.05-.1-.05-.3 1.4-.35.15.1m-.6.2h-.3q-.65.15.2.6.6.45.25-.25l.1-.1L3.65 2m2.25.7.25-.15h.15q-1 1.5-2.8 1.6Q1.75 4.4.25 3.7l.9.15q1.6.35 3.15-.3l.3-.25 1.05-.45q.25.2.25-.15m1.95 15.05-1.4-.4.15-.35 2.55.7 2.95.95-5.45-1.55 1.2.65m-2.3-1.1v.05l-.05.05.05-.1m1 2.15 2.1.95 2.1.75 2.1.5 2.1.45q-1.8-1.05-4.1-1.65l-2.1-.65-2.2-.55v.2m-1.7.25-.15.45-.45.2.15-.15.45-.5m1.6 1.75h-.1v.05l-.15-.2-.15-.3-.05-.4.1-.55 3.6 1.5 3.75 1.25 1.75.35-.05.65.55.1-1.65-.2-3.7-.75q-1.7-.3-3.4-1.2l3.75 1 3.15.55-3.7-1.35-3.75-.8.05.3m8.9 1q-4.6-1.05-9.2-2.6l.4-1.6 1.2.8 1.45.6 3.65.95.2.1.2.05 2.5.6-.4 1.1m-2.65-9.65-.1.3q.05.5-.15.6l-.1.05q-.45-.45-.3-1.05.35-.75 1.25-.5.4.15.6.85l-.5.8-.15-.05q.3-.65-.4-1 .5.05.15-.2l-.5.05.2.15m1 7.05.3-.2 2.4.5-.4.7-1.5-.45.8.1-1.6-.65"/><path fill="#9b8046" d="m34.4 2.8.1.2-.55.1.45-.3m.9.7q1.75 1.05 3.8.85l1.3-.1.3.95.05 1.3-.55 1.4.25-.95-.35-1.65q-.05-.1-.25-.15l-.05-.05-.05.05-1.05-.3q1.05 1.15.65 2.4-.7 1.9-2.65 2.45l-2.6-.15.65.9 1.25 1.2.5-.05q.95-.25 1.75-.85l-.25.2L36.25 13l.1-.8q-.75-.1-1.4-.8-1-1.15-1.65-2.7l-.05.05-1.3-3.35.4-.25.35.6.7 2 .3-1.65.1-1.8.6-.3v.6q-.05.3.05.45l.1-.15 1.4-.9-.95-.35.3-.15M5.05 12.15l-.6.25q-1.25-.55-2.1-1.45Q1.15 9.75.7 7.9.25 6.05.9 4.35l1.85.05.25-.05.7-.05 2-.7.4.2q1.1 1.5 1.4 3.35l.25.95.35-.5.95-2 .05-.1.3.15L8.25 8.8l-.95-.25q-.2 1.85-1.9 3-.35.2-.35.6m1.65-9.5 4.5 1.05-.9.75-.15-.1q-.3-.7-1.35-.9L7 3.1l-.1.1-.4-.05.2-.5m19.65 1.7.25-.05-.15.15-.1-.1m4.55-.25.75-.25-.65.35-.1-.1m-2.25 2-.55.8.1.15 1.05.15-.15.1-.75.2-.2-.2q-.6-1 .5-1.2m-16.6 1.3.8-.3.2-.05-.7-.95h.2q.5.05.65.45v.25q-.15 1.1-1.15.6M2.5 7.1q-.7-1.45.55-2.45L1.3 4.7q-.75 2.8.75 5.3.75 1.25 1.85 1.85 1.15-.15 1.95-1.1l.8-1.2.3-.75q-1 1.1-2.2.75Q3.3 8.8 2.5 7.1"/><path fill="#4d351e" d="m34.5 3 .55.05.45.3-.2.15-.3.15-.35.2-.25.15-.6.3-.5.3-.95.55-.4.25-.25.15-1.45 1.05-.25.2-.4.25-.35.15-1.05-.15-.1-.15.55-.8.25-.3.3-.3 1.3-1.05.5-.25.65-.35 2.3-.75.55-.1m1.75 10-.05.3-.45 1.5-.05.15q.6.3-.15.55l-.1.05-.1.05-1.35.3-.1-.8v.2l-.15-.85-.85-2.85q-.35-1.05-1.2-1.65l1.15-.7-5.5.2q-.1.95-1.05 1.15l-3.05.4-7.45-.25-1.3-.75-.35-.55-6.2-.5-.1.1 1.05.6-.75 2q-.6 1.65-.15 3.2l-.1-.15.2 1.45.4.15-1.8-.55-1.1-.4q-.2-.1-.45-.25-.3-1.45-.1-2.95 0-.4.35-.6 1.7-1.15 1.9-3l.95.25.4.1 5.6.15q.25 1.65 1.95 1.6H25q1.65 0 2-1.6l5.9-.2.35-.1.05-.05q.65 1.55 1.65 2.7.65.7 1.4.8l-.1.8M35 3.5l-.6-.4q-3.5.5-5.45 3.25v.3l.85.05 2-1.65 2.35-1.1q.45-.2.85-.45M11.65 5.4l.2.2.3.3.2.2.7.95-.2.05-.8.3-.35-.1-.45-.25-.3-.25-1.3-.95-.25-.2-.3-.15-1.35-.8-1.65-.9-.4-.2.25-.3.55-.15.4.05 1.35.35q1 .2 1.9.8l.15.1.35.2 1 .75m-1.15-.65L7.8 3.5l-1.4-.25-.05.05L8.7 4.65q1.35.8 2.75 1.85l1 .15-.1-.15q-.8-1.15-1.85-1.75"/><path fill="#c8b386" d="m39.55 9.25-1.3 1.5q-.8.6-1.75.85l-.5.05-1.25-1.2-.65-.9 2.6.15q1.95-.55 2.65-2.45.4-1.25-.65-2.4l1.05.3q-.3 1.25-.25 2.8l.05 1.15v.15m.9-2.3-.6-1.8q.2.05.25.15l.35 1.65m-6.05-2.8q.4.05.35-.1l-.1-.2.35-.2.95.35-1.4.9-.1.15q-.1-.15-.05-.45v-.45m-.6.15-.1 1.8-.3 1.65-.7-2 .5-.55.1-.6.5-.3m-23.65.05q-.9-.6-1.9-.8L6.9 3.2l.1-.1 1.8.35q1.05.2 1.35.9M6.1 3.8l1.65.9Q7.8 5.75 8.8 5.75l.25-.15-.95 2-.35.5-.25-.95Q7.2 5.3 6.1 3.8M1.4 8.4l.35-1.8L2 4.95Q.95 6.1 1.2 7.5l.2.9m1.1-1.3q.8 1.7 2.25 2.45 1.2.35 2.2-.75l-.3.75-.8 1.2q-.8.95-1.95 1.1-1.1-.6-1.85-1.85-1.5-2.5-.75-5.3l1.75-.05q-1.25 1-.55 2.45"/><path fill="#dd8b39" d="m33.35 3.7-.6.65Q31.6 5.3 30 5.4l1.35-.8q.9-.55 1.85-.95l.15.05m-6.15 6.75.85-.35 3.8-.65-.3.4q-2.15.85-4.35.6M7.8 3.5l2.7 1.25.5.7L9.9 5q-1.35-.55-2.1-1.5m3.4 6.65q-1.45-.3-2.35-.95l4.9.95H11.2"/><path fill="#824b24" d="m33.35 3.7-.15-.05q-.95.4-1.85.95L30 5.4q1.6-.1 2.75-1.05l.6-.65M35 3.5q-.4.25-.85.45l-2.35 1.1-2 1.65-.85-.05v-.3Q30.9 3.6 34.4 3.1l.6.4m-27.2 0q.75.95 2.1 1.5l1.1.45-.5-.7q1.05.6 1.85 1.75l.1.15-1-.15q-1.4-1.05-2.75-1.85L6.35 3.3l.05-.05 1.4.25"/><path fill="#ded1b8" d="m40.2 7.9-.1.25-.55 1.1V9.1l-.05-1.15q-.05-1.55.25-2.8l.05-.05.05.05.6 1.8-.25.95m-5.8-3.75V4l.25-.15.1.2q.05.15-.35.1m-1.7 1.6-.35-.6.95-.55-.1.6-.5.55M7.75 4.7l1.35.8-.05.1-.25.15q-1 0-1.05-1.05M1.4 8.4l-.2-.9Q.95 6.1 2 4.95L1.75 6.6 1.4 8.4"/><path fill="#3d5f4b" d="m37.25 18.9.2.3q.35.6-.15.35l-.5-.4-.35-.45.6.3.2-.1M28.7 8.2l.25.05q.7-.1 1.05-.85l2.2-1.1.7 2.55-5.9.2v-1l.35.45 1.35-.3m-14.45.85-5.6-.15.6-2.25.55.4 1.15.8q1.55 1 3.3 1.2m6.3 10.8h-.1l-1.55-.05-1.3-.15v.55l-.1-.95.9.15-.5.05 3.1-.1q1.45.25 2.95 0 .65-.2.4.35l-.05.3.05.5h-.65l-.05-.35-2.25-.25h-.5l-.1-.05.05.05-.3-.05m.85.05h.05-.05m2.4 3.55-.1-1.2.7-.15.05.8q.05.7-.65.55m-.1-1.75v-.9l.65-.05-.1.9-.55.05m3.95-2.3-.85-.1-1.4.45.2.45q-.25.05-.45.25l.6.05.5 1.15-.75.15h-.1.9l.4 1.35-1.05.1-.1-.3-.9-3.7 3-.85.25.7.15-.75.05 1.1-.45-.05m.9.75.2-.05v.05h-.2m.25-1.35q-.05-.25.2-.45 1.5-.85 3.25-1.35l2.15-.7.15.6-3.1.95-2.65.95m6.85-2.6v-.1l.1.05-.1.05q-.4.15-.15.55l.1.05q-.35.5-.55-.25v-.35q.1-.4.45-.15l.15.15m1.25 2.15-.45.35-.55-1.35.3-.2.45.75.1.35h.1l.05.1M6.6 17l.3-.85 5.2 1.65.3.95-.3-.1-2.95-.95L6.6 17m6 1.8.05-.3q.05-.35.05.15v.2l-.1-.05m-7.05-2.15.6-.65-.05.1.1-.05.1-.1.45.15-.55.75-.3.15-.4-.25.05-.05v-.05m-.9 1.7.4-1 .55.3-.45.85q-.4-.35-.5-.15m-.4 1.35.3-1.15.05-.1v.35l.25.25-.45.5-.15.15m11.45 3.55-.55-.1.05-.65h1.05l-.3.65-.25.1m-.35-1.45.4-1.1.9.05-.4 1.25-.9-.2m-2.1-1.7-.2-.05.1-.45v.45l.1.05m.05-1.05.15-.85.2.1 3.4.9-.2.75q-.1.25-.2.1l-.65.15.4-.7L14 19l-.3.2-.4-.15"/><path fill="#765425" d="M14.95 4.35 16.2 4H25l1.35.35.1.1.2.2L26.9 6l.1 2.05v1q-.35 1.6-2 1.6h-8.8q-1.7.05-1.95-1.6L14.2 7.2v-.75l.05-.4.3-1.35.4-.35m11.6.65v-.3q-.2-.35-.6-.4h-2.7l2.75.5.55.2m-.05 4.35V9l-.1-2.45-.35-1.4Q25 4.6 23.7 4.75l-3.1.1-3.15-.1-1.7.4q-.55.15-.7.7-.4 1.4-.35 2.9.05 1.75 1.8 1.75l8.2-.05q.95.2 1.55-.6l.25-.5m-11.55-4.8q-.45.85.65.4 1.3-.6 2.75-.65l-3.05-.05-.35.3"/><path fill="#dfa63c" d="m23.3 5.2-.3.55q.35.9 1.45 0-.05-.55-.6-.7h-.05l-.2-.1-.3.25m-1.65-.25h-.05q-.95.65.1 1.2l.45-.2q.65-.15.35-.7l-.75-.3h-.1m4.6 4.9q-.6.8-1.55.6l-8.2.05q-1.75 0-1.8-1.75-.05-1.5.35-2.9.15-.55.7-.7l1.7-.4 3.15.1 3.1-.1q1.3-.15 2.35.4l.35 1.4.1 2.45v.35l-.45-.2q-.2 0-.3.15-.15.15-.15.35l.25.1.4.1m-5.2-3.35-.6-.05q-.15.2-.15.45 0 .9.85.7l.4-.3.15-.25-.65-.55M19.3 5.25q-.4.65.35 1.05l.35-.25q1.05-.5 0-.85l-.7.05m.1 2.6-.1.75.15.4.35-.2.75-.5-.1-.2-.2-.15-.1-.1q-.15-.25-.6-.15l-.15.15M22 7.8l-.4.1-.2.2-.05.6q.4.45 1 0l.2-.15q.05-.4-.55-.75m-4.55-2.5q-.55.4-.15.8l.45.3q.7-.1.7-.85l-.1-.15q-.45-.4-.75-.25l-.15.15m1.65 1.35-.3-.2-.2-.05-.25.2q-.45.45-.15.85l.25.2q.6.05 1-.5L19.4 7l-.3-.35m-2.7.1-.05.3.35.75.25-.25.55-.5-.9-.45-.2.15m1.7 1.2-.25-.25-.15.05-.25.3.15.6.25.4.2-.1q.55-.3.5-.8l-.45-.2m1.4 1.45-.7-.25h-.1q-.55.25-.2.75l.15.25.7-.25.25-.3-.1-.2m-3.2.1.25.65q.65.05.9-.5l-.05-.35-1.1.05v.15m6.8-.2-.2-.15-.25-.1-.2-.05-.45.05q-.2.05-.3.2v.2l.4.25q.6.95 1.05-.2l-.05-.2m-1.7.15-.45-.3-.55.05-.15.15q-.2.6.35.85l.25-.05.75-.55-.2-.15m4.3-4.05-.05-.05-.2-.2-.2.1q-.6.25-.25.8l.15.25q1.3-.1.65-.8l-.1-.1m-1.1 2.75v.05l.05.55q.85.55 1.35-.4l-.9-.65-.35.15-.15.25v.05m-.65-1.7q-.45.45.15.9l.2.05.75-.25-.15-.35-.15-.2-.3-.3-.35.05-.15.1m1.7.2-.05.25q-.05.7.6.45.4-.25.1-.5l-.35-.25-.3.05m-3-.25-.15-.05q-.55.5-.3 1.05l.15.2q.6.05 1.2-.5l-.35-.45-.05-.05q-.15-.15-.3-.2h-.2m.5 1.75L23 8.5v.2l1.2-.15.1-.2-.2-.2-.65-.4-.1.05-.2.35m.75 1.1.05-.15.25-.25.2.15.05.05q.35.3-.05.45-.55.05-.5-.25l-.05.4.1.4.3-.2.75-.35-.55-.45.55.45-.75.35-.3.2-.1-.4.05-.4q-.05.3.5.25.4-.15.05-.45L24.4 9l-.2-.15-.25.25-.05.15m-1.3 3.85h.4l.2.45q-.2.9-1.3 1.1l-.25.1q-.25-.3-.65-.25l-.85.25q-1.2-.15-1.65-1.1l-.05-.05q.75-1.45 2.3-.65l.4.05-.6.1h-.05l-.8-.3-.6.6q-.2.2.25.2.25.45.65.5l1.6.15.75-.4h.3l.25-.25v-.3l-.3-.2m-.35 1.95.95-.4.05-.05.4.05-.4-.05-.05.05-.95.4-.6.9.2.8.3.3-.1-.85.35-.15q.95.15 1.7-.4-.45-.75-1.35-.55l-.5-.05m.95-.4-1 .2-.4.2-.05.15-.25.45-.35.35-.05.7q.25.8 1.2.9.8 0 1.4-.6l.05-.3.05-.3h.1l.8-.5.05-.85-.25-.25-.85-.15q.55.05.75.65l-.3.35.3-.35q-.2-.6-.75-.65l.85.15.25.25-.05.85-.8.5h-.1l-.05.3-.05.3q-.6.6-1.4.6-.95-.1-1.2-.9l.05-.7.35-.35.25-.45.05-.15.4-.2 1-.2m-.5 2.3.25-.25-.5-.2q-.4.7.25.45m-4.5-.6q-1.1-.1-1.25-1.05l.45-.65q1.35-.35 2.65.35l.2.45.5.4.15.7-.4.75h-.05q-1.7.65-2.15-.9l1.4.65-.3-.45v-.1l.8-.15-.1-.75q-.7-1.05-2.05-.95-.55.15-.55.8l.7.9m9.35-2.2.2.4 1-.5-.1-.1-.5-.05q-.6-.4-.6.25m.65-.7q.65 0 .9.6-.25.6-.95.8-.65-.15-.85-.75l.6-.65h.3m-.35 3.85.05-.15.1.25.4.4q.45.65-.05 1.6h-.05q0-2.1-.35-1.05l-.2-.55.1-.5M16.35 5.5l-.8.05q-.3.65.45.5.35-.05.45-.35l-.1-.2M15 6.7q-.2.7.3.8.95-.15.3-.7-.15-.55-.55-.25L15 6.7m1.55 1.6-.2-.25-.6-.1q-.85.45.1.95H16q.5 0 .55-.6m-.85 1.2-.05-.25-.2-.1h-.15l-.15.2-.05.2q.25.6.6.15v-.2m-3.05 9-.1-.25-.05-.05q-.25-.7.1-1.2l.25-.25q.85 1.15.15 2.35l-.3-.45q0-.5-.05-.15M11.9 14l.6-.65 1 .4.2.2-.1.2q-.55.75-1.2.5l-.5-.65m.95-1.7.15.25q.15.45-.15.8l-.1-.25.1-.8m-.55 1.8.3.05q.6-.15.15-.3-.35-.5-.45.25m.95-.05.15-.05q-.4-.45-.15.05"/><path fill="#92b6a1" d="m23.95 14.2-.45-.6q.2-1.05.75.5l-.1.2-.2-.1m-6.8-.2.05-.3q.75-1.5 2.75-1.4-1.65.45-2.8 1.7m4.15 4q-.7-.4.25-.05l-.25.05m6.8-5.75q-.15-.75.4-.4.65.45 0 .55l-.4-.15m-15.4-.1-.2-.15.5-.05q.35.25-.15.2l-.05-.05-.1.05"/><path fill="#674021" d="M17.45 12.2q-.8.9-1.15 2.05l-.15.75h-.05l.05-.65q.3-1.2 1.3-2.15"/><path fill="#720002" d="m13.25 16.6-.9-.25-.05-.15q.15-.85-.4-1.45l1.6.25v1.05l-.25.55m14.5-.15-.05-.15q.15-.9-.4-1.45l.8.3.8-.05v1.05l-.25.55-.9-.25m.8-1.05q-.85-.25-.4.45l.3.2q.25-.15.15-.6l-.05-.05m-15.4 0-.2-.15q-.8.15.15.55h.05v-.4"/><path fill="#c10005" d="m28.55 15.4.05.05q.1.45-.15.6l-.3-.2q-.45-.7.4-.45m-15.4 0v.4h-.05q-.95-.4-.15-.55l.2.15"/><path fill="url(#f)" d="M10.3 11.5q2.2.25 4.35-.6l.3-.4-3.8.65-.85.35m-19.2 4.4q-.45-1.55.15-3.2l.75-2-1.05-.6.1-.1 6.2.5.35.55 1.3.75 7.45.25 3.05-.4q.95-.2 1.05-1.15l5.5-.2-1.15.7q.85.6 1.2 1.65l.85 2.85.15.85-.3-.3-4.9 2.05-.05-.35.25-.55v-1.05l.5-.9-.4-.75q.75-.65.4-1.4-.7-1.35-2.05-.5-.55.6-.2 1.4l.2.35-.3.55.25 1q.55.55.4 1.45l.05.15-.05.75v.2l-2.35.6-2.1.15q1.85-1.1 1.9-3.15.05-1.65-1.4-2.7-1.4-1.15-3.1-1.15-1.7.05-3.2 1.05-1 .95-1.3 2.15l-.05.65.05.35q.1 1.55 1.3 2.4l.95.6-3.6-.6-.9-.3-.5-.15-.15-.7.25-.55v-1.05l.5-.9-.4-.75q.8-.65.55-1.45-.25-.85-1.25-.8l-.9.35q-.5.7-.2 1.4l.2.35-.35.55.25 1q.55.6.4 1.45l.05.15.05.15-.1.6-1.6-.3-.7-.3q-.25-.1-.55-.25-.6 0-1-.4l-.45-1m3.2-4.7h2.55l-4.9-.95q.9.65 2.35.95" transform="translate(16.9 -1.05)"/><path fill="url(#g)" d="M17 16.35v-.2l.1.8-3.3.95-1.9.45-.1-.25 4.9-2.05.3.3M1.5 19.4l.85.35.9.15-4.55-.45-.55-.1q-.8-.3-1.6-.5l-.05-.5.5.15.9.3 3.6.6m-6.1-1.25-.05.15-3.4-.85-.35-.1-.4-.15-.2-1.45.1.15.45 1q.4.4 1 .4.3.15.55.25l.7.3 1.6.3m15.45.7-.1.05-3.1.55-3.4.45 1.1-.35 1-.35 2.1-.15 2.35-.6.15-.1-.1.5" transform="translate(16.9 -1.05)"/></g></defs></svg>