<svg xmlns="http://www.w3.org/2000/svg" xmlns:xlink="http://www.w3.org/1999/xlink" width="84.85" height="82"><g transform="translate(37.4 42.25)"><use xlink:href="#a" width="32.05" height="38" transform="translate(-11.95 -17.45)"/><use xlink:href="#b" width="33.05" height="38.95" transform="translate(-12.45 -17.95)"/><use xlink:href="#c" width="43.5" height="26.65" transform="translate(-17.75 -.7)"/></g><defs><path id="d" fill="#fff" fill-rule="evenodd" d="M27.35 7.4q2.15 4.15 3.55 8.75 1.45 4.7 1.15 9.5-.35 4.95-4.2 8.1-3.8 3.2-8.75 4.05l-2.6.2q-3.6 0-7.05-1.15-4.65-1.6-7.1-5.5Q-.2 27.4.05 23q.2-4.4 2-9.3Q3.85 8.75 7 5.05 10.1 1.3 14.7.1l1.8-.1q1.9.05 3.7.8 4.75 2.05 7.15 6.6" transform="translate(-.05)"/><path id="e" fill="none" stroke="#000" stroke-linecap="round" stroke-linejoin="round" d="M27.35 7.4Q24.95 2.85 20.2.8 17.55-.3 14.7.1 10.1 1.3 7 5.05q-3.15 3.7-4.95 8.65-1.8 4.9-2 9.3-.25 4.4 2.3 8.35 2.45 3.9 7.1 5.5 4.65 1.55 9.65.95 4.95-.85 8.75-4.05 3.85-3.15 4.2-8.1.3-4.8-1.15-9.5-1.4-4.6-3.55-8.75Z" transform="translate(.45 .5)"/><use xlink:href="#d" id="a" width="32.05" height="38"/><use xlink:href="#e" id="b" width="33.05" height="38.95"/><g id="c" fill-rule="evenodd"><path fill="#fff" d="m12.15 12-.45.7-.6 1.1-.5 1.65-.2.05h.2l-1.2 3.75-.15.1.1-1.15v-.05L10 15.5v-.05l.05-.05.7-1.85q1.2-2.9 2.9-5.2l.3.05q.15 1.25-.6 2.1l-1.2 1.5m3.15-2.15.95-.85.6.6-.15.6h-.6l-1.7 3.85-.3 1.1-.75 2.65-.2.65-.7 2.45.25-1.9q.75-4.7 2.6-9.15m-1-.5.4-.8.35-.45.3-.1-1.2 1.95.15-.6m1.75 3.55v-.1l.1.05-.05.25-.3 3.2.2-2.8v-.05l.05-.55M17.1 16l2.1.45-2.15-.2.05-.25m0-1.15v-.4l1.65.3.6.1H17.1m-4.65 9.25v.75l-.1-1.25.1.5m18.3-15.7.3-.05q2.2 2.9 3.4 6.3l.25.75h-.05l.05.1.65 2.65.1 1.2-.1-.1-1.2-3.75h.15l-.15-.05-.55-1.65-.6-1.1-.4-.7q-1.25-1.4-1.8-3.15l-.05-.45m-.35.95.15.6L29.35 8l.35.1.3.45.4.8M28.45 9l1 .85.4.95q2.05 4.85 2.4 10.1l-.7-2.45-.15-.65-.75-2.65-.05-.1-.3-1.15-1.7-3.7H28l-.15-.6.6-.6m.25 3.9.05.55-.05-.05.05.1.4 4.9-.55-5.25v-.3l-.05-.1.15.15m-5.3 1 1.35 1.05-.05.2h-.1l-.1.35v.05l-.75.5-.3-.4-.25-.8.2-.95m-2.9 1v-.2l.9-.6.3.35q.35.5-.2.65l-.5.2q-.4.25-.5-.2v-.2m2.65.35-1.25-.1.05-.5.05.3.75-.1.4.4"/><path fill="#405500" d="M5.05.65 5.9 0l.75.25.15.1q.9.5 1.8 1.3l3.1 2.4q1.55 1 3.3 1.8l6.7 2.55.25-.2 3.3-.95L28.8 5.8q3.6-1.4 6.3-4.2L36.95.35 37.8 0l.9.7-.55.55-.1-.45-.4-.35q-1.7.65-3.05 1.8l-4.3 3.2q-2.4 1.6-5.2 2.45l-1.4.7-.1.05h.05l-1 .9-1.95-.6 1.2.25-.8-.55h.05l-.1-.05-3.3-1.05L12.8 5.5q-2-.85-3.5-2.75Q8 1.1 6.05.35L5.9.4l-.3.2-.3.35-.25-.3M8.9 17.2l-.1-.1v-.05l-.2-.1.25-.25.1-2.35.7.3-.75 2.55m.1-3.35.2-.95.95.45-.25.65-.9-.15m.35-1.65.3-2.35 2 .75-1.1 1.9-1.2-.3m8.3-1.2.05-.5 3.85-.3.05.05h.05v-.05l1.45.05 3.95.35.05.35-6.25-.15h-.4l-2.8.2m-.4 1.85q4.2.7 8.45.15l1.8-.15.1 1.6-2 .35-.85.15-1.35-1.05-.3.3q-.45.4.1.65l.25.8-.9 1.55.4.75.8-.65.5-.75 3.4.05.1 3.05q-2.25.85-4.5.9-3.15.25-6.3-.7l.1-3.1 2.5.1.7-.45-1.35-.25-1.8-.4v-.6l3.4-.25-.25.9-.05-.15.05.25q-.1 1.5 1.3 1.65l.45-.1.1-1.2.6-.2q.6-.35.45-.8l-.4-.4-.75.1-.05-.3-.1-.3-.45-.25-.9.6-.5-.05-2.9-.55.15-1.25m16.95-1.6-.65.1-.55-.9 1.85-.8.4 1.75-.05 3.6-.4-1.1-.1-.6-.25-.25L33.9 12l.25-.2.1-.55-.15-.1.1.1m-6.6 3.95.05.65-1.6.3-.6.1-1.15.2.1-.45.1-.45v-.05l.1-.35h.1l2.9.05"/><path fill="#c8ff20" d="m5.6.6.3-.2 2 1.45-.15-.5 1.55 1.4q1.5 1.9 3.5 2.75l4.95 2.05-.45-.1 1.4.55-.7-.25-1.4-.35-1.2-.55-2.15-.75-.8-.35-1.35-.7Q8 3.25 5.6.6m19.5 7.3q2.8-.85 5.2-2.45l4.3-3.2q1.35-1.15 3.05-1.8l.4.35-5.35 3.8q-4.3 2.5-8.6 4.35l-.35.2-.05.05-.15.1-.55.05.7-.45h-.15q.05-.1.25-.2l1.3-.8m-4.65 2.9h.4l.05.3q-.2.7-.95.5l-.65-.2 1.15-.6m-2.9.7.05-.35.05-.1.55.4-.65.05m9.65.05-3.85.1q-.5-.05-.75-.6l4.5.2.1.3"/><path fill="#7b0d3c" d="M38.7.7q1.35 1.3 1.5 3.2.05.9-.35 1.4l-.6.05q1.45.5 2.55 1.7 1.3 1.4 1.35 3.55.1 2.7.35 5.25v2.6q-.45 4-4.65 4.2l-1.55-.35-.25-1.1 1.25.3h1l.75-.15q2.2-.65 2.75-2.75.35-1.4.1-2.8-.35-2.05-.25-4l-.1-1.6q-.35-1.6-1.45-2.7l-2.4-2.05-.9-.4-.3.2-1.4 1.2L35.35 9l-.05-.55-.05.95.7 4v.3l-.05 3.85-.7-2.55.05-3.6-.4-1.75-1.85.8-.4-.55 1.2-1.05.95-1.5.3-.55-.35.3-1.2.35 3.35-2.5 2.55-.8.15-.05.1.05V4.1l-.25-.75L39 1.9l-.25-.5-2.5 2-6.85 4.45-.6.15q-.25.15-.25.4l-.95.65-.35.15-.15.25q-.7.3-.2.55h.1l.05.6-3.95-.35-1.45-.05h-.1l-3.85.3.05-.55.55-.05 2.3-.45V9.3l-.65-.25Q15.8 7.7 11.7 5.8l-1.95-.9L6.1 2.45q-.55-.45-1.2-.7L4 3.4l.2 1.5q3.05-.95 5.45 1.2l.95.65-.45.45-.15-.1-.1.35q-.35 1 .35 1.8l.4.4.35.1.95.25.1.05-.4.55-2-.75-.3 2.35-.15.7-.2.95-.05.5-.1 2.35-.25.25.2.1v.05l.1.1-.75 2.55.1-1.3q-.15-2 .1-3.7l.5-3.55.3-2.65q.1-1.6-.9-2.6L8 5.75l-1.3-.6-.75-.1-1.05.55-2.3 2q-1 1.3-1.35 2.7-.6 2.1-.3 4.4l-.3 2.5.95 2.95 2.35 1.35.7.1 1.75-.2 1.45-.8-.35 1.45-1.65.35-.95.25q-1.95-.05-3.45-1.45-1.7-1.6-1.4-3.95l.3-3.45.25-3.2q.35-3.8 3.85-5.25L3.7 5.2l-.05-.3Q3.3 2.35 5.05.65l.25.3L6.2 2q.55.65 1.35 1.1l3.55 1.95 1.35.7.8.35.85.4 6.6 2.45 1.95.6 1.25.15q3.9-1.45 7.3-3.45 3.65-2.1 6.95-5L38.7.7M27.8 24.65l-5.6.85.5.05-1.2-.05-1.25.35-.15.2-.25.2q-1.85.05-3.35-.65l.4-.5.55.25q.8.5 1.75.4l.2-.05.3-1 .05-1.85-.2-1-.25-.9-1.75-.2-.6-.25v-.65q3.15.95 6.3.7 2.25-.05 4.5-.9v.45l-6.95 1h-.65l.05.6v1.4q-.05 1.1.75 1.8l.6.1 5.2-.35 1.05-.35v.35M21.05 8.6l.1.05h-.05l-.05-.05m2.6.05h-.05l.1-.05-.05.05m-16.4-2.1q.9 1.35.45 2.85l-.95 2.4q-1.05 2-1.45 4.1l-.55 4-.1.1q-1.95-.85-2.4-2.9-.6-2.65-.6-5.4 0-1.85 1.1-3.35L4.8 6.3l.9-.45.9.1.65.6m4.35 1.4-.05-.7 1.95 1-.3.3-1.6-.6m-4.3-4.1h-.05V3.8l.05.05M31.65 8.7l1.1-.15-.9.4-.2-.25M42 10.3l.1.8-.1 2.55-.35 2.7-.5 1.8q-.65 1.35-2.05 1.75l-.15-1.9q-.15-2.75-1.3-5.2l-.75-1.05q-2.25-2.4-.45-5.25l1.2-.85Q39 6 39.7 7l2.3 3.3m-18.85-.1-.05.05.05-.05m-2.9 5.6.2.65-.2-.55-.05-.25.05.15"/><path fill="#93c400" d="M5.3.95 5.6.6Q8 3.25 11.1 5.05L7.55 3.1Q6.75 2.65 6.2 2L5.3.95M5.9.4l.15-.05Q8 1.1 9.3 2.75l-1.55-1.4.15.5L5.9.4m11.85 7.15 3.3 1.05.05.05.8.55-1.2-.25-6.6-2.45-.85-.4 2.15.75 1.2.55 1.4.35.7.25-1.4-.55.45.1m4.9 2 1-.9.05-.05 1.4-.7-1.3.8q-.2.1-.25.2h.15l-.7.45.55-.05.15-.1.05-.05.35-.2q4.3-1.85 8.6-4.35L38.05.8l.1.45q-3.3 2.9-6.95 5-3.4 2-7.3 3.45l-1.25-.15m-5 1.45 2.8-.2-1.15.6.65.2q.75.2.95-.5l-.05-.3 6.25.15v.3l-4.5-.2q.25.55.75.6l3.85-.1.3 1.3-1.8.15q-4.25.55-8.45-.15l.3-1.35.65-.05-.55-.4V11m15.9.35.65-.1h.05l-.1.55-.25.2-.35-.65M18.7 8l.65.25L18.7 8"/><path fill="#ffb9c7" d="m9.75 4.9-.95-.25q-2.4-.85-3.9-2.9.65.25 1.2.7L9.75 4.9M8 5.75l.3 1.6.15.75Q8.6 9.35 8 10.35l.2-2.75-.95-1.05-.65-.6-.9-.1-.9.45-2.2 1.3 2.3-2 1.6-.4.2-.05 1.3.6M.95 14.7l.3 3.8-.6-1.3.3-2.5m.65 5.45-.05-.55 1.05.85q.65.45 1.45.25l1.55-1.25q.4-.55.35-1.1-.1-.95.4-1.9l.3 2.15-.95 1.85-1.75 1.05-2.35-1.35m5.7-16.3-.05-.05v.05h.05m12.45 19-.05 1.85-1 1.05-.65-.6.7-.25.5-2.9.5.85M32.15 6.9l-1.7.8 5.8-4.3 2.5-2 .25.5-6.85 5m4.3-.4-.35-.05 1.4-1.2 1.2.2 2.4 2.05.5.95.4 1.85L39.7 7q-.7-1-2.05-1.35l-1.2.85m1 12.75q.85 1.1 2.2 1.5l.9-.65q1.8-1.75 2.3-4.35.3 1.75-.45 3.35-.7 1.6-2.35 2.25l-.75.15-1.35-.6-.5-.7q-.35-.75 0-.95m-16 5.25-.05-.4 4.8.15-4.75.25"/><path fill="#fe7692" d="M4.9 1.75q1.5 2.05 3.9 2.9l.95.25 1.95.9q4.1 1.9 8.25 3.25l-4.2-1.2-.15-.15-.1.05-7.65-3.2q-.75-.4-1.6-.5-1.2.3-2.25-.65l.9-1.65m3.1 4 .25.2q.45 1.35.3 2.85-.1 1.4-.5 2.8l-.65 1.75q-.55 1.15-.55 2.45l-.2 2.8-.3-2.15q-.5.95-.4 1.9.05.55-.35 1.1L4.05 20.7q-.8.2-1.45-.25l-1.05-.85.05.55-.95-2.95.6 1.3-.3-3.8q-.3-2.3.3-4.4.35-1.4 1.35-2.7l2.2-1.3-2.05 2.05q-1.1 1.5-1.1 3.35 0 2.75.6 5.4.45 2.05 2.4 2.9l.1-.1.55-4q.4-2.1 1.45-4.1l.95-2.4q.45-1.5-.45-2.85L8.2 7.6 8 10.35q.6-1 .45-2.25l-.15-.75-.3-1.6m.25 12.7-.1 1.3-.15.4.25-1.7m3.8-8.4-.1-.05-.75-1.1.4-.95 1.6.6-1.15 1.5M11 9.75l-.35-.1.15-.15.2.25m-1.1-2.3.1-.35.15.1-.25.25m7.85 2.5v-.2l.55.15-.55.05m-1.8 13.4.1-.95-.05.9-.05.1v-.05M27.8 8.95l-.2.1.95-.65-.4.4-.35.15m-.7.5L27 10h-.1q-.5-.25.2-.55M5.95 5.05l.55.15-1.6.4 1.05-.55M4.65 21.6l-.7-.1 1.75-1.05-1.05 1.15m14.9.25.2 1-.5-.85-.5 2.9-.7.25.65.6 1-1.05-.3 1-.2.05q-.95.1-1.75-.4l1.4-3.45.7-.05M39.4 3.35l-.2-.05q-3.6 1.55-7.05 3.6l6.85-5 .4 1.45M30.45 7.7l-.75.3-.3-.15 6.85-4.45-5.8 4.3m2.3.85 1-.25.05.55-1.2 1.05-.75-.95.9-.4m2-1.2-.05-.25.35-.3-.3.55m4.8-3.25h.1v.05l-.1-.05m-3.1 2.4q-1.8 2.85.45 5.25l.75 1.05q1.15 2.45 1.3 5.2l.15 1.9q1.4-.4 2.05-1.75l.5-1.8.35-2.7.1-2.55-.1-.8-.4-1.85-.5-.95q1.1 1.1 1.45 2.7l.1 1.6q-.1 1.95.25 4 .25 1.4-.1 2.8-.55 2.1-2.75 2.75 1.65-.65 2.35-2.25.75-1.6.45-3.35-.5 2.6-2.3 4.35l-.9.65q-1.35-.4-2.2-1.5l-.15-3.55q-.1-1.95-1.05-3.75-.75-1.35-.9-2.95l.75-2.55.35.05m2.85 15h-1l-.35-.6 1.35.6M37.5 5.25l.3-.2.9.4-1.2-.2M21.55 25l-.1-.5 4.75-.25-4.8-.15-.5-2.35 4.95-.55.9 3.45-5.2.35m7.25-1.65-.05.05-.05-.1v-.9l.1.95"/><path fill="#fe5073" d="M4 3.4q1.05.95 2.25.65.85.1 1.6.5l7.65 3.2-.95.6-1.05-.1-1.95-1 .05.7-.4.95.75 1.1-.95-.25-.2-.25-.15.15-.4-.4q-.7-.8-.35-1.8l.25-.25.45-.45-.95-.65Q7.25 3.95 4.2 4.9L4 3.4m11.75 4.45 4.2 1.2.65.25v.15l-2.3.45-.55-.15L17 9l-.05-.05-.4-.15-.8-.95M6.65 18.6l.2-2.8q0-1.3.55-2.45l.65-1.75q.4-1.4.5-2.8.15-1.5-.3-2.85 1 1 .9 2.6l-.3 2.65-.5 3.55q-.25 1.7-.1 3.7L8 20.15l-.15.45-1.45.8-1.75.2 1.05-1.15.95-1.85m-.7-13.55.75.1-.2.05-.55-.15m11 15.45.6.25 1.75.2.25.9-.7.05-1.4 3.45-.55-.25.05-4.6m15.2-13.6q3.45-2.05 7.05-3.6l.2.05.25.75h-.1l-.15.05-2.55.8-3.35 2.5 1.2-.35.05.25-.95 1.5-.05-.55-1 .25-1.1.15-.55-.6-.9.25-.5-.35.75-.3 1.7-.8m3.2 2.1q.15 1.6.9 2.95.95 1.8 1.05 3.75l.15 3.55q-.35.2 0 .95l.5.7.35.6-1.25-.3-1.15-3.65.05-3.85v-.3l-.7-4 .05-.95.05.55m-7.6 11.1.05 4.2-1.05.35-.9-3.45-4.95.55.5 2.35.05.4.1.5-.6-.1q-.8-.7-.75-1.8v-1.4l-.05-.6h.65l6.95-1"/><path fill="#765425" d="m8.95 14.35.05-.5.9.15-.25.65-.7-.3m.25-1.45.15-.7 1.2.3-.4.85-.95-.45m7.85 3.6h3l-1.15-.35 1.35.25-.7.45-2.5-.1v-.25m.05-1.35v-.3h2.25l-.6-.1 1.25-.1.5.05v.4l.3 1.85.7-1.85q.55-.15.2-.65l-.3-.35.45.25.1.3-.05.5 1.25.1q.15.45-.45.8l-.6.2-.1 1.2-.45.1q-1.4-.15-1.3-1.65l.2.55-.2-.65.25-.9-3.4.25m17.35-2.1.25.25.1.6-.35-.85M25.6 14.8l2 .2v.2l-2.9-.05.05-.2.85-.15m2.05 1.05v.1l-1.6.2 1.6-.3m0 .6v.15l-3.4-.05.05-.1 1.15-.2 2.2.2m-4.45-1.6q-.55-.25-.1-.65l.3-.3-.2.95m.25.8.3.4-.2 1.25h.2l-.8.65-.4-.75.9-1.55"/><path fill="#ad0123" d="m37.3 22.3.15 1.55q.1 1.25-.25 1.95-1.95 1.2-4.2.65-1.45.45-2.8-.3-.7-.5-.45.15l-1.55-.7-.4-.35v-.95l-.05-4.2v-.45l-.1-3.05v-.75l-.05-.65v-.75l-.1-1.6-.3-1.3-.1-.3v-.1l.25.85q.65 1.2.65 2.6l.1 4.05v.5l.5 5.6.15.6.1.05.15.05h.2l.45-.1q.45.05 1.15.45h.05l1.1-.3-.05.25.15-.3.85-.2.1-2.4v-.05l.2-1.35.05 1.25v.25q-.1 1.4.2 2.5l-.1.15.1-.1.15.45h.15l.9-.1.5-.1 1.8-1.15-.3-2.35-.2-1.2-.6-2.4-.55-1.95-.45-1.3-.05-.05-.25-.7q-1.1-3.6-3.5-6.3l-.3.05-.2.3V9l.35 1.45-.5-1.1-.4-.8-.3-.45-.35-.1-.2.15.55 1.3 1.6 3.45.2.5 1.1 3.5.25 1.45v.15L30.5 12l-.05-.05-.15-.45-.15-.35-.7-1.3-1-.85-.3-.2.4-.4q0-.25.25-.4l.6-.15.3.15.5.35.9-.25.55.6.2.25.75.95.4.55.55.9.35.65.55 1.05.35.85.4 1.1.7 2.55 1.15 3.65.25 1.1m-20.8 3.3-.2.2-.2.25-.85.15-.2.05-.1-.2-.4.1-1.15.45-2.7.05q-1.85.05-3.4-1.05l.2-3.55.35-1.45.15-.45.15-.4.75-2.55.75-2.55.25-.65.25-.65.4-.85 1.1-1.9.4-.55 1.15-1.5.3-.3 1.05.1.95-.6.1-.05.15.15.8.95-.3.2-.95.85-.55.95-.35.7-2.45 6.75q-.05.55-.05.15v-.05l.2-1.45 1.15-3.5.2-.5L15 9.45 15.45 8h-.1l-.3.1-.35.45-.4.8-.5 1.15.35-1.45.05-.4-.25-.25-.3-.05q-1.85 2-2.8 4.45l-.95 2.55v.05l-.45 1.3-.6 1.95-.55 2.4-.25 1.2-.3 2.35 1.8 1.15.5.1.95.1h.1l.15-.5.1.15-.1-.2q.25-1.2.2-2.45v-.25l.05-1.25.2 1.35v.05l.15 2.4.85.2.1.3v-.25l1.1.3.25-1.8 2.45-4.85v-.1l.05-.4.35-5.25.35-1.4.25-.85-.05.35-.3 1.35-.15 1.25V16l-.05.25v.5l-.1 3.1v.65l-.05 4.6-.4.5m1.05-14.9L17 9l.75.75v.2l-.05.55-.05.5-.1-.25v-.05m9.55.25-.05-.35L27 10l.1-.55.15-.25.35-.15.2-.1-.05.05-.6 1.7-.05.25M15.85 25.4l.1-.05.15-.6.5-5.6-.5 5.6-.15.6-.1.05v-.05L16 23.3l.05-.9-.1.95-.45 2.05.05.05h.2-.2l-.05-.05.25.05.05-.05h.05m-.3.05-.2-.25-1.45.6 1.45-.6.2.25"/><path fill="#ffb7b9" d="m11.7 12.7.45-.7 1.75-1-2.2 1.7m-1.65 2.7-.05.05v.05l-.1-.1v-.05l.15.05m-.7 2.75v.05l-.1 1.15.15-.1.65 3.35-.15.95v.05l-.45-1.15q-.8-1.8-.6-3.8l.6-1.95-.1 1.45m1.25-2.65h-.2l.2-.05 1.6-.7-.2.55-1.4.2m2.85-2.6-.2.5-.1.05.25-.65.05.1m2.95-1.5.6-.4-.5.6-.2.2-2.2 3.35.3-1.1 2-2.65m.25 7.25-.05.4-.05-.35.1-.05m-.75-5.6.15-.15-.05.55-.05.05-.3.4-.55.85.8-1.7m.1.35v.05-.05m-2.65 4.4.85-1.35-1.05 2 .2-.65m-1.1-1.65-.15.75.15-.9v.15m-.6.1-.1.3-1 1.05.15 1.9-.1.4-.3-1.4.2-1q.4-.85 1.15-1.25m-.5 3.9.3-1.1-.2 1-.1.1m3.8-2.25-.35.75-.25.45.85-2.3-.25 1.1m-.8 4 .25-.25-.05.6-.25.15q-1.25.9-1.3 2.4v.95l-.1-.3-.25-.6v-.75l1.7-2.2m2.3-4.65h.1l-.1.6v-.6M14 23.45l.25-.5-.1 1.05-.25 1.8-.05-.15.15-2.2m-1.45-9.6-1.45-.05 1.75-.7-.3.75m-4.5 8.4.25-1.2q.1 1.8.85 3.3l.55.95-.1.15-.55-.75q-.75-1.15-1-2.45m3.4.45v.25l-.25-.05q-.15-.1.25-.2m.25.15v-.05l.5-.6.7-.6-.7 1-.5.25m23.1-7.5.05.05-.15.1-.05-.1h.05l.1-.05m.5 1.35.55 1.95q.1 1.95-.6 3.9l-.4 1.05v-.05l-.15-.95.65-3.35.1.1-.1-1.2-.05-1.45m1.15 4.35.2 1.2q-.15 1.3-.95 2.45l-.6.75-.1-.15q1.1-1.3 1.35-3.2l.1-1.05m-3.2 1.9v-.25q.6.05.3.15l-.3.1M33 22.8v.05l-.45-.25-.75-1 .7.6.35.2.15.4m-.95 2.65-.15.3.05-.25v-.45q.05-1.65-1.3-2.65l-.25-.15-.1-.6.3.25 1.05.85q.5.55.65 1.35v.4l-.05.35-.2.6m-1.2.35h-.05l-.25-1.8-.1-1.05.3.5.15 2.2-.05.15m-1.65-.35H29l.2-.05v.05m-1.1-6.4v-.4l.05.05-.05.35m3.8-5.95 1.7.7-1.4.05-.3-.75m1.1-.4L30.8 11l1.8 1 .4.7m-1.5.7-.2-.5v-.1l.25.65-.05-.05m-.1 4.4.15.65-1-2 .85 1.35m-2.7-4.9.1.15.85 1.7-.6-.85-.3-.4v-.05l-.05-.55m3.85 1.85 1.6.7.15.05h-.15l-1.4-.2-.2-.55M34 19.5q.9-1.5-.4-2.6l-.45-.35-.1-.3q1.65.75 1.35 2.5l-.3 1.15-.1-.4m-1.9-4.6h-.05v-.05l.05.05m.4 1.25V16l.1.9-.1-.75m-2.95.65.75 2q.1.55-.15-.15l-.4-.75-.2-1.1m-1.3 1.05-.1-.6h.15l-.05.6m5.35 2.3-.1-.1-.2-1 .3 1.1"/><path fill="#fe1241" d="m11.7 12.7 2.2-1.7-1.75 1 1.2-1.5q.75-.85.6-2.1l.25.25-.05.4-.35 1.45.5-1.15-.15.6L15.35 8h.1L15 9.45l.05-.45-1.8 3.9-.4.2-1.75.7 1.45.05.45-.25-.4 1.25-.4-.1-1.6.7.5-1.65.6-1.1m1.95-4.35q-1.7 2.3-2.9 5.2l-.7 1.85-.15-.05.95-2.55q.95-2.45 2.8-4.45M10 15.5l-.65 2.65.1-1.45.45-1.3.1.1m-.6 3.75 1.2-3.75 1.4-.2.55-.3-.3 1.15V16l-.25.1-.3.15h-.05q-.75.4-1.15 1.25l-.2 1 .3 1.4.3.35-.8 2.55-.05-.2-.65-3.35m5.35-8.45.55-.95Q13.45 14.3 12.7 19l-.25 1.9.7-2.45 1.05-2-.85 1.35.75-2.65 2.2-3.35-.4 1.25-.8 1.7.55-.85-.8 3.45.35-.55-.85 2.3.25-.45-.45 3.25-1.7 2.2-.1-.5.1 1.25.25.6-.85-.2.35-2.65.7-1-.7.6q.45-5.95 2.55-11.4m1.5-1.8.3-.2.4.15L17 9l-.15.6-.6-.6m.45 1.2-.3 1.2-2 2.65 1.7-3.85h.6M27.75 9l.05-.05.35-.15.3.2-.6.6-.1-.6m-16.2 7.55-.05 1.75-.5 1.65-.3-.45-.15-1.9 1-1.05m2.55 5.85-.1 1.05-.15 2.2.05.15-1.1-.3v-.7q.05-1.5 1.3-2.4m-5.25-3.75q-.2 2 .6 3.8l.45 1.15-.2 1.7-.55-.95q-.75-1.5-.85-3.3l.55-2.4m2.2 7.3H11l.05-.05v.05m-1.5-.2-1.8-1.15.3-2.35q.25 1.3 1 2.45l.55.75.1.1-.15.2m21.5-17.4q2.4 2.7 3.5 6.3l.25.7-.1.05-.25-.75q-1.2-3.4-3.4-6.3m3.8 7.05.45 1.3.05 1.45-.65-2.65.15-.1m1 3.25.6 2.4-.1 1.05Q36.1 24 35 25.3l-.15-1.7.4-1.05q.7-1.95.6-3.9m.8 3.6.3 2.35-1.8 1.15-.15-.2.1-.1.6-.75q.8-1.15.95-2.45m-2.9 3.7h-.05v-.05l.05.05m-.85-.7-.85.2.2-.6.05-.35v-.4q-.15-.8-.65-1.35l-1.05-.85-.45-3.25q.25.7.15.15l-.75-2 .35.55-.85-3.45.6.85-.85-1.7-.35-1.25-.25-.2-.05-.35.2.15-.35-1.2h.6l1.7 3.7.3 1.15.05.1.75 2.65-.85-1.35 1 2 .7 2.45q-.35-5.25-2.4-10.1l-.4-.95.7 1.3.15.35.15.45.05.05q1.15 3.5 1.65 7.25l.35 2.95-.7-.6.75 1 .35 2.65m-.95.25-1.1.3.05-.15-.15-2.2-.1-1.05q1.35 1 1.3 2.65v.45M30.4 9.35l.5 1.1L30.55 9v-.3l.2-.3.05.45q.55 1.75 1.8 3.15l-1.8-1 2.2 1.7.6 1.1-1.7-.7-.4-.2L29.65 9l.05.45-.55-1.3.2-.15 1.2 1.95-.15-.6m.2 5.7v.05l.05.05-2.2-3.35 2.2 3.35-.05-.05v-.05m3-1.25.55 1.65-1.6-.7-.45.1-.35-1.25.45.25 1.4-.05m.55 1.7 1.2 3.75-.65 3.35-.1.2-.75-2.55.25-.35.3-1.15q.3-1.75-1.35-2.5L32.5 16v.15L32.15 15l.6.3 1.4.2m-1 1.05.45.35q1.3 1.1.4 2.6l-.25.45-.55-1.75-.05-1.65m-.8 7.05v.25l-.05.25.05-.25v-.25m-4-12.2 1.95 2.5-1.95-2.5"/><path fill="#cd0129" d="m15 9.45-1.55 3.45-.05-.1-.15.1 1.8-3.9-.05.45m-1.75 3.95-1.15 3.5.15-.75.3-1.15.1-.1v-.05h-.05l.4-1.25.15-.15.1-.05m-1.35 5q0 .4.05-.15l2.45-6.75.35-.7q-2.1 5.45-2.55 11.4l-.5.6-.2-1.35-.05 1.25q-.4.1-.25.2l.25.05q.05 1.25-.2 2.45l-1.15-2.6.8-2.55.25-.1.1-.1.65-1.65m4.95-8.8L17 9l.55 1.7-.55.3-.6.4.3-1.2.15-.6m.7 1.15.1.25v.05l-.05.1-.25.85-.35 1.4-.35 5.25-.1.05-.75 1.6q-.3 1.5-1.55 2.65l-.25.5.1-1.05.25-.15.65-.4 1.45-4 .1-.6h-.1l-2.05 4.4-.25.25.45-3.25.35-.75.7-1.45-.45.35-.35.55.8-3.45.3-.4H16l-.2 2.8.3-3.2.3.05.95-1.15-1.2.85-.1-.05v.1l-.15.15.4-1.25.2-.2 1.05-.85M15.7 17.2l.1-.9-.1.9m11.4-6.05v-.2l.05-.25.6-1.7.1.6.15.6.35 1.2-.2-.15-.05-.05q-.15-.2-.35-.2l-.6-.3 1.05.9.25.2.35 1.25-.1-.15-.15-.15.05.1-1.25-.85 1 1.15q.25.25.25 0l.55 5.25-.4-4.9.3.4.85 3.45-.35-.55-.45-.35.65 1.45.4.75.45 3.25-.3-.25q-1.15-1.75-1.35-3.85l-.65-.55h-.15l.1.6q1.2 1.6 1.35 3.75l.8.65.25.15.1 1.05-.3-.5Q29.1 21.4 28.5 19.4l-.35-.7-.05-.05-.1-4.05q0-1.4-.65-2.6l-.25-.85M9.9 23.6v-.05l1.35 1.9-.15.5h-.05v-.05l-.05.05-.95-.1-.5-.1.15-.2.35.3-.35-.55.2-1.7m1.8-.75.5-.25-.35 2.65-.15-2.4m23.45 2.9-.5.1-.9.1-.05-.05v.05h-.1l-.15-.45 1.4-1.95v.05l.15 1.7-.35.55.35-.3.15.2m-1.7-.3q-.3-1.1-.2-2.5l.3-.1q.3-.1-.3-.15l-.05-1.25-.2 1.35-.15-.4-.35-.2-.35-2.95q-.5-3.75-1.65-7.25l2.35 6.5.65 1.55.1.1.15.1h.1l.75 2.55-1.15 2.65m-.45-2.6-.1 2.4-.35-2.65.45.25m-2.2 2.95q-.7-.4-1.15-.45l-.45.1v-.05l-.4-2.05-.1-.95v.9l.15 2.1-.1-.05-.15-.6-.5-5.6L30.55 24l.25 1.8M29.7 9.45 29.65 9l1.85 3.9-.2-.1v.1l-1.6-3.45m2.9 7.45-1.1-3.5.05.05.2.15.35 1.25h-.05v.05h.05v.05h.05V15l.35 1.15.1.75"/><path fill="#fe6d8a" d="m12.1 16.9-.2 1.45v.05l-.65 1.65.2-1-.3 1.1-.25.1-.3-.35.1-.4.3.45.5-1.65.05-1.75.1-.3h.05l.3-.15.25-.1-.15.9M17 11l.55-.3v.05l-1.05.85.5-.6m-3.75 1.9.15-.1-.25.65-.15.15-.45.25.3-.75.4-.2m3.35 6.15v.1L14.15 24l.1-1.05q1.25-1.15 1.55-2.65l.75-1.6.05.35m-.75 6.35h-.05l-.05.05-.25-.05.45-2.05v.05l.05-.1-.15 2.05v.05m.3-12.55 1.2-.85-.95 1.15-.3-.05.05-.25m-.15.6v.05h-.05l.05-.05m-3.4 1.4h.05v.05l-.1.1-.55.3.2-.55.4.1m2.6 1.95.45-.35-.7 1.45.25-1.1m-.8 4.85 2.05-4.4v.6l-1.45 4-.65.4.05-.6m-4.5 1.9.15-.95.05.2 1.15 2.6.1.2-.1-.15-1.35-1.9m-.3 1.9.1-.15.35.55-.35-.3-.1-.1m23.85.05-.1.1.1-.15 1.15-2.65.1-.2.15.95-1.4 1.95M29 25.45l-.15-.05-.15-2.1.05.1.05-.05.4 2.05-.2.05m-.9-6.3v-.1l.05-.35.35.7q.6 2 1.95 3.55l.1 1.05-2.45-4.85m3.4-6.25.4.2.3.75-.45-.25-.2-.15-.25-.65.2.1m1.35 5.6v-.15l-.25-1.45-.1-.9.55.25.1.3.05 1.65.55 1.75.25-.45.1.4-.25.35h-.1l-.15-.1-.3-1.1.2 1-.65-1.55m-4.65-6.9-1.05-.9.6.3q.2 0 .35.2l.05.05.05.35m.55 1.85v.05l-.05-.1.05.05m-.15-.6v.3q0 .25-.25 0l-1-1.15 1.25.85m3.5 2 .45-.1.2.55-.6-.3v-.05h-.05v-.05l-.05-.05h.05m-3.85 3 .05-.6.65.55q.2 2.1 1.35 3.85l.1.6-.8-.65q-.15-2.15-1.35-3.75m1.5.05-.65-1.45.45.35.2 1.1M35 25.3l.1.15-.1.1-.35.3.35-.55"/><path fill="#242424" d="M34.25 11.25h-.05l-.1-.1.15.1"/><path d="M21.65 10.2v.05h-.05l-.05-.05h.1"/><path fill="#deb762" d="M17.1 14.45v-.35l2.9.55-1.25.1-1.65-.3m0 1.55v-.25l1.8.4 1.15.35h-3v-.25l2.15.2-2.1-.45m10.4-1.4h.1-.1m.1-.15V15l-2-.2 2-.35m.05 1.5v.5l-2.2-.2.6-.1 1.6-.2m-3.9 1.35h-.2l.2-1.25.75-.5-.1.45-.1.45-.05.1-.5.75m-3.25-2.2q.1.45.5.2l.5-.2-.7 1.85-.3-1.85"/></g></defs></svg>