<svg xmlns:xlink="http://www.w3.org/1999/xlink" height="100.8" width="132.65" xmlns="http://www.w3.org/2000/svg"><g transform="translate(77.75 73.55)"><use height="14" transform="translate(-12.25 -4.3)" width="24.45" xlink:href="#a"/><use height="14" transform="matrix(.75 0 0 .75 11.313 -14.063)" width="13.6" xlink:href="#b"/><use height="14" transform="translate(-25.25 -22.8)" width="13.6" xlink:href="#b"/><use height="14" transform="matrix(.75 0 0 .75 -20.038 -6.662)" width="13.6" xlink:href="#b"/></g><defs><use height="10.2" transform="translate(2.15 2.25) scale(.9375)" width="9.9" xlink:href="#c" id="b"/><use height="10.2" width="9.9" xlink:href="#d" id="c"/><path d="m3.9 4.3 3-4.3-1.05 4.95 4.05 3.3-4.8-1.4-1.9 3.35.2-4.1L0 3.8l3.9.5" fill="#fff" fill-rule="evenodd" id="d"/><g id="a"><path d="M8 4.85.95 9.2l-5.4-2.5L8 4.85" fill="#fff" fill-rule="evenodd" transform="translate(12.25 4.3)"/><path d="M8 4.85-4.45 6.7l5.4 2.5L8 4.85" fill="none" stroke="#333" stroke-linecap="round" stroke-linejoin="round" transform="translate(12.25 4.3)"/><path d="m9.4 5.7-2-1.8" fill="none" stroke="#666" stroke-linecap="round" stroke-linejoin="round" transform="translate(12.25 4.3)"/><path d="M.15-1.95H.4Q.5-.2 1.55 1.15q.75.95 1.8 1.3L.9 2.3h-3.7l1.3-1.1Q-.5 0-.35-1.65v-.3h.5m8.5 1.8q3.5 1.8 3.55 2.8 0 .95-3.15.4l-4.2-.5q1.3-.2 2.3-1.4l.9-1.6.6.3M-8-.4q.3.9.9 1.6.75.95 1.7 1.25l-2.75.4-4.1-.2q0-.95 3.7-2.75L-8-.4" fill="#6596cc" fill-opacity=".431" fill-rule="evenodd" transform="translate(12.25 4.3)"/><path d="M-.35-1.45v-.2l-.25-.4-2-1.1q-2.9-1.3-5.6 0l-.05.1-.05.25-.05.95.4 1.45.85 1.6q.8.95 1.75 1.25l1.05.2 1.55-.35q.7-.4 1.3-1.1.9-1.15 1.1-2.65" fill="#fff" fill-rule="evenodd" transform="translate(12.25 4.3)"/><path d="M-.35-1.65v.2m0 0q-.2 1.5-1.1 2.65-.6.7-1.3 1.1l-1.55.35-1.05-.2q-.95-.3-1.75-1.25l-.85-1.6-.4-1.45.05-.95.05-.25.05-.1" fill="none" stroke="#666" stroke-linecap="round" stroke-linejoin="round" transform="translate(12.25 4.3)"/><path d="m-.6-2.05.25.4Zm.4.6.2-1.2m-8.2-.5q2.7-1.3 5.6 0l2 1.1" fill="none" stroke="#000" stroke-linecap="round" stroke-linejoin="round" transform="translate(12.25 4.3)"/><path d="M-4.05-3.15q.4-.55.95-.5.55-.05.95.5.4.5.4 1.35 0 .75-.4 1.3-.4.5-.95.5-.55 0-.95-.5-.4-.55-.35-1.3-.05-.85.35-1.35m.65 1.55.3-.2.2-.45-.2-.5-.3-.15-.35.15-.15.5.15.45.35.2" fill-rule="evenodd" transform="translate(12.25 4.3)"/><path d="m-3.4-1.6-.35-.2-.15-.45.15-.5.35-.15.3.15.2.5-.2.45-.3.2m4.45-.45q.95-.6 2-1.1 2.9-1.3 5.6 0l.05.1.05.25.05.95L8.4-.4l-.85 1.6q-.8.95-1.75 1.25l-1.05.2L3.2 2.3 1.9 1.2Q1 .05.8-1.45v-.2l.25-.4" fill="#fff" fill-rule="evenodd" transform="translate(12.25 4.3)"/><path d="M.8-1.65v.2m0 0Q1 .05 1.9 1.2l1.3 1.1 1.55.35 1.05-.2q.95-.3 1.75-1.25L8.4-.4l.4-1.45-.05-.95-.05-.25-.05-.1" fill="none" stroke="#666" stroke-linecap="round" stroke-linejoin="round" transform="translate(12.25 4.3)"/><path d="m1.05-2.05-.25.4Zm-.4.6-.2-1.2m8.2-.5q-2.7-1.3-5.6 0-1.05.5-2 1.1" fill="none" stroke="#000" stroke-linecap="round" stroke-linejoin="round" transform="translate(12.25 4.3)"/><path d="m7.3-2.15-.15.4-.35.25q-.2-.05-.3-.25-.15-.15-.15-.4l.15-.5q.1-.2.3-.2l.35.2.15.5m-.8-1.4q-.55-.05-.95.45-.4.55-.4 1.35t.4 1.3q.4.55.95.55.55 0 .95-.55.4-.5.4-1.3t-.4-1.35q-.4-.5-.95-.45" fill-rule="evenodd" transform="translate(12.25 4.3)"/><path d="m7.3-2.15-.15-.5-.35-.2q-.2 0-.3.2l-.15.5q0 .25.15.4.1.2.3.25l.35-.25.15-.4" fill="#fff" fill-rule="evenodd" transform="translate(12.25 4.3)"/></g></defs></svg>