<svg xmlns:xlink="http://www.w3.org/1999/xlink" height="82" width="84.85" xmlns="http://www.w3.org/2000/svg"><g transform="translate(37.4 42.25)"><use height="38" transform="translate(-11.95 -17.45)" width="32.05" xlink:href="#a"/><use height="38.95" transform="translate(-12.45 -17.95)" width="33.05" xlink:href="#b"/><use height="22.2" transform="translate(-13.35 -1.25)" width="35.45" xlink:href="#c"/></g><defs><path d="M27.35 7.4q2.15 4.15 3.55 8.75 1.45 4.7 1.15 9.5-.35 4.95-4.2 8.1-3.8 3.2-8.75 4.05l-2.6.2q-3.6 0-7.05-1.15-4.65-1.6-7.1-5.5Q-.2 27.4.05 23q.2-4.4 2-9.3Q3.85 8.75 7 5.05 10.1 1.3 14.7.1l1.8-.1q1.9.05 3.7.8 4.75 2.05 7.15 6.6" fill="#e6be90" fill-rule="evenodd" transform="translate(-.05)" id="d"/><path d="M27.35 7.4Q24.95 2.85 20.2.8 17.55-.3 14.7.1 10.1 1.3 7 5.05q-3.15 3.7-4.95 8.65-1.8 4.9-2 9.3-.25 4.4 2.3 8.35 2.45 3.9 7.1 5.5 4.65 1.55 9.65.95 4.95-.85 8.75-4.05 3.85-3.15 4.2-8.1.3-4.8-1.15-9.5-1.4-4.6-3.55-8.75Z" fill="none" stroke="#070707" stroke-linecap="round" stroke-linejoin="round" transform="translate(.45 .5)" id="e"/><use height="38" width="32.05" xlink:href="#d" id="a"/><use height="38.95" width="33.05" xlink:href="#e" id="b"/><g id="c"><path d="M34.55 5.65Q34.2 2.6 33.2 1.6q-.8-.9-1.15-.85l-1.45.85q-1.7 1.05-2.85 2.5l-2.4 2.7-2.2 2.7q-2.1 1.95-5.4 1.95-3.35 0-5.35-1.85-1.7-2.15-2.45-2.8-2-3-5.05-4.85-1.95-1.15-3.45.5-.95 1.1-.6 4.9.3 3.65 1.7 5.7.7 1.05 1.25 2.95l1.05 2.45q.8 1.1 4.75 2l8.05.95v.05l.05-.05 3.6-.3.55-.1 1.05.05 3.95-.45q1.65-.3 3.35-1.5.9-.65 1.45-4.3l2.45-4.35q.85-1.6.45-4.8Z" fill="none" stroke="#000" stroke-linecap="round" stroke-linejoin="round" stroke-width="1.5"/><path d="M20.25 1.1q.9.9.7 4.1-.15 3.1-1.1 4.85-2.15 4.1-1.8 4.85l-1.6.5q-4.1 4.7-12.1 4.75l-.05.05v-.05l-8.05-.95q-3.95-.9-4.75-2l-1.05-2.45q-.55-1.9-1.25-2.95-.95-1.4-1.55-5.15-.7-4.2.45-5.45 1.65-1.55 3.45-.5Q-5.4 2.55-3.4 5.55q.75.65 2.45 2.8 2 1.85 5.35 1.85 3.3 0 5.4-1.95l2.2-2.7 2.4-2.7q1.15-1.45 2.85-2.5 1.1-.65 1.6-.45.35.1 1.4 1.2" fill="#fff100" fill-rule="evenodd" transform="translate(13.35 1.25)"/><path d="M17.35 4q2.8-.9 3 2.05.2 2.65-1.4 5.2-.4.65-.85 3.5-.35 2.5-1.25 3.1-1.7 1.2-3.35 1.5l-3.5.4H8.35l2.6-4.8q1.4-4.15 2.45-6.1 2.2-4.3 3.95-4.85" fill="#e0d400" fill-rule="evenodd" transform="translate(13.35 1.25)"/><path d="M-7.9 16.85q3.65 2.75 12.5 2.75 8.9 0 11.65-2.25M12 6.15l-2.2 2.7q-2.1 2-5.4 2-3.35 0-5.35-1.85L-3.4 6.15" fill="none" stroke="#b4ba59" stroke-linecap="round" stroke-linejoin="round" transform="translate(13.35 1.25)"/><path d="M11.7 7.15q-1.9-.45-1.25-1.7.5-1 2.2-2.85Q14.4.65 15.1.45q4.2-1.15 4.25.2-2.5.4-4 2.15L11.7 7.15m-14.75 0L-6.7 2.8q-.95-1.1-2.55-1.75l-1.45-.4q.05-1.35 4.25-.2.7.2 2.45 2.15 1.7 1.85 2.2 2.85.65 1.25-1.25 1.7" fill="#3d7a15" fill-rule="evenodd" transform="translate(13.35 1.25)"/><path d="m20.4 1.9.45 4.8M-11.9 1.2l-.35 4" fill="none" stroke="#3d7a15" stroke-linecap="round" stroke-linejoin="round" transform="translate(13.35 1.25)"/><path d="m-5.4 8.2.2 2.85-2-1.65.15-2.5 1.65 1.3m19.35 0 1.65-1.3.2 2.5-2 1.65.15-2.85" fill="#3d7a15" fill-rule="evenodd" transform="translate(13.35 1.25)"/><path d="m1.75 13.2-.15 4.25m3.5-4.1q-1.25 0-1.3 1.9-.05 1.85 1.3 1.85 1.45 0 1.55-1.85.1-1.9-1.55-1.9Z" fill="none" stroke="#3d7a15" stroke-linecap="round" stroke-linejoin="round" transform="translate(13.35 1.25)"/></g></defs></svg>