<svg xmlns:xlink="http://www.w3.org/1999/xlink" height="82" width="84.85" xmlns="http://www.w3.org/2000/svg"><g transform="translate(37.4 42.25)"><use height="38" transform="translate(-11.95 -17.45)" width="32.05" xlink:href="#a"/><use height="38.95" transform="translate(-12.45 -17.95)" width="33.05" xlink:href="#b"/><use height="22.2" transform="translate(-13.4 -1.25)" width="35.45" xlink:href="#c"/></g><defs><path d="M27.35 7.4q2.15 4.15 3.55 8.75 1.45 4.7 1.15 9.5-.35 4.95-4.2 8.1-3.8 3.2-8.75 4.05l-2.6.2q-3.6 0-7.05-1.15-4.65-1.6-7.1-5.5Q-.2 27.4.05 23q.2-4.4 2-9.3Q3.85 8.75 7 5.05 10.1 1.3 14.7.1l1.8-.1q1.9.05 3.7.8 4.75 2.05 7.15 6.6" fill="#cfa677" fill-rule="evenodd" transform="translate(-.05)" id="d"/><path d="M27.35 7.4Q24.95 2.85 20.2.8 17.55-.3 14.7.1 10.1 1.3 7 5.05q-3.15 3.7-4.95 8.65-1.8 4.9-2 9.3-.25 4.4 2.3 8.35 2.45 3.9 7.1 5.5 4.65 1.55 9.65.95 4.95-.85 8.75-4.05 3.85-3.15 4.2-8.1.3-4.8-1.15-9.5-1.4-4.6-3.55-8.75Z" fill="none" stroke="#000" stroke-linecap="round" stroke-linejoin="round" transform="translate(.45 .5)" id="e"/><use height="38" width="32.05" xlink:href="#d" id="a"/><use height="38.95" width="33.05" xlink:href="#e" id="b"/><g id="c"><path d="M34.55 5.65Q34.2 2.6 33.2 1.6q-.8-.9-1.15-.85l-1.45.85q-1.7 1.05-2.85 2.5l-2.4 2.7q-1.1 1.65-2.2 2.7-2.1 1.95-5.4 1.95-3.35 0-5.35-1.85-1.7-2.15-2.45-2.8-2-3-5.05-4.85-1.95-1.15-3.45.5-.95 1.1-.6 4.9.3 3.65 1.7 5.7.7 1.05 1.25 2.95l1.05 2.45q.8 1.1 4.75 2l8.05.95v.05l.05-.05 3.6-.3.55-.1 1.05.05 3.95-.45q1.65-.3 3.35-1.5.9-.65 1.45-4.3l2.45-4.35q.85-1.6.45-4.8Z" fill="none" stroke="#000" stroke-linecap="round" stroke-linejoin="round" stroke-width="1.5"/><path d="M11.95 5.55q2.9-3.8 5.25-5.2 1.1-.65 1.6-.45l1.4 1.2q.9.9.7 4.1-.15 3.1-1.1 4.85-2.15 4.1-1.8 4.85l-1.6.5q-4.1 4.7-12.1 4.75l-.05.05v-.05l-8.05-.95q-3.95-.9-4.75-2l-1.05-2.45q-.55-1.9-1.25-2.95-.95-1.4-1.55-5.15-.7-4.2.45-5.45Q-10.3-.35-8.5.7q2.95 1.8 5.05 4.85L0 7.6q3.35 1.8 4.25 1.8 1.35 0 7.7-3.85" fill="#c90000" fill-rule="evenodd" transform="translate(13.4 1.25)"/><path d="M19.05 3.2q2.75-.85 2.15 2.5-.5 2.7-2.3 5.55-.4.65-.85 3.5-.35 2.5-1.25 3.1-1.7 1.2-3.35 1.5l-3.95.45-4.25-.25q.9-.25 1.45-2 .55-2 .85-2.65 3.75-4.75 4.75-6.7.6-1.1 3.05-2.85 2.35-1.7 3.7-2.15" fill="#a60000" fill-rule="evenodd" transform="translate(13.4 1.25)"/><path d="M-7.95 16.85q3.65 2.75 12.5 2.75 8.9 0 11.65-2.25" fill="none" stroke="red" stroke-linecap="round" stroke-linejoin="round" transform="translate(13.4 1.25)"/><path d="M1.55 16.7v-5.25m2.25 0L5 11.4q1.25 0 1.55.55.5.9-2.6 4.65" fill="none" stroke="#ffe100" stroke-linecap="round" stroke-linejoin="round" transform="translate(13.4 1.25)"/><path d="m18.9.35-.65.1q-2.25.95-3.1 1.7-.85.75-3.35 3.8-4.65 3-6 3.45l-1.7.4-1.85-.4-5.95-3.45q-2.55-3.05-3.4-3.8l-3.1-1.7h-.4l.15-.8 1.4.35q1.5.55 2.3 1.4 3.35 3.5 4.8 4.4L4.1 8.35 10 5.8q1.45-.9 4.8-4.4Q16.05.05 18.75-.5l.15.85m-31.6 2.2 1.9.75q2 1.15 2.3 2.85.5 2.75-2.2 6.65l-1.85-6.7-.15-3.55m33.55-.2-.1 3.55-1.9 6.7Q16.2 8.65 16.7 5.9q.3-1.7 2.25-2.8 1-.55 1.9-.75" fill="#0c8c3d" fill-rule="evenodd" transform="translate(13.4 1.25)"/><path d="m13.45 4.1 2.25 2.35q1.5 2.15 1.25 9.9M-5.3 4.1l-2.25 2.35q-1.5 2.15-1.25 9.9" fill="none" stroke="#ffe100" stroke-linecap="round" stroke-linejoin="round" transform="translate(13.4 1.25)"/></g></defs></svg>