<?xml version="1.0" encoding="UTF-8" standalone="no"?>
<svg xmlns:xlink="http://www.w3.org/1999/xlink" height="82.0px" width="84.85px" xmlns="http://www.w3.org/2000/svg">
  <g transform="matrix(1.0, 0.0, 0.0, 1.0, 37.4, 42.25)">
    <use height="38.0" transform="matrix(1.0, 0.0, 0.0, 1.0, -11.95, -17.45)" width="32.05" xlink:href="#sprite0"/>
    <use height="38.95" transform="matrix(1.0, 0.0, 0.0, 1.0, -12.45, -17.95)" width="33.05" xlink:href="#sprite1"/>
    <use height="20.75" transform="matrix(1.0, 0.0, 0.0, 1.0, -13.2, 0.75)" width="34.3" xlink:href="#shape2"/>
  </g>
  <defs>
    <g id="sprite0" transform="matrix(1.0, 0.0, 0.0, 1.0, -0.05, 0.0)">
      <use height="38.0" transform="matrix(1.0, 0.0, 0.0, 1.0, 0.05, 0.0)" width="32.05" xlink:href="#shape0"/>
    </g>
    <g id="shape0" transform="matrix(1.0, 0.0, 0.0, 1.0, -0.05, 0.0)">
      <path d="M27.35 7.4 Q29.5 11.55 30.9 16.15 32.35 20.85 32.05 25.65 31.7 30.6 27.85 33.75 24.05 36.95 19.1 37.8 L16.5 38.0 Q12.9 38.0 9.45 36.85 4.8 35.25 2.35 31.35 -0.2 27.4 0.05 23.0 0.25 18.6 2.05 13.7 3.85 8.75 7.0 5.05 10.1 1.3 14.7 0.1 L16.5 0.0 Q18.4 0.05 20.2 0.8 24.95 2.85 27.35 7.4" fill="#d69e5e" fill-rule="evenodd" stroke="none"/>
    </g>
    <g id="sprite1" transform="matrix(1.0, 0.0, 0.0, 1.0, 0.45, 0.5)">
      <use height="38.95" transform="matrix(1.0, 0.0, 0.0, 1.0, -0.45, -0.5)" width="33.05" xlink:href="#shape1"/>
    </g>
    <g id="shape1" transform="matrix(1.0, 0.0, 0.0, 1.0, 0.45, 0.5)">
      <path d="M27.35 7.4 Q24.95 2.85 20.2 0.8 17.55 -0.3 14.7 0.1 10.1 1.3 7.0 5.05 3.85 8.75 2.05 13.7 0.25 18.6 0.05 23.0 -0.2 27.4 2.35 31.35 4.8 35.25 9.45 36.85 14.1 38.4 19.1 37.8 24.05 36.95 27.85 33.75 31.7 30.6 32.05 25.65 32.35 20.85 30.9 16.15 29.5 11.55 27.35 7.4 Z" fill="none" stroke="#333333" stroke-linecap="round" stroke-linejoin="round" stroke-width="1.0"/>
    </g>
    <g id="shape2" transform="matrix(1.0, 0.0, 0.0, 1.0, 13.2, -0.75)">
      <path d="M-11.4 2.2 L-11.55 1.75 -11.6 1.85 -11.6 1.8 -11.95 3.55 Q-12.3 5.65 -12.15 7.5 -11.65 13.65 -10.9 12.65 -10.35 14.2 -8.0 16.25 L-7.95 16.15 Q-3.85 20.15 3.25 20.45 L3.25 20.5 3.75 20.5 3.75 20.45 4.0 20.45 Q12.45 19.35 16.05 16.05 L16.0 16.25 Q18.2 14.35 18.85 12.85 19.45 13.6 19.8 8.95 20.55 5.0 19.55 1.75 L19.5 1.85 19.4 2.15" fill="none" stroke="#000000" stroke-linecap="round" stroke-linejoin="round" stroke-width="2.0"/>
      <path d="M19.55 1.75 L20.05 6.45 Q19.9 11.85 16.5 15.65 13.2 19.3 4.0 20.45 -4.1 20.45 -8.45 15.65 -11.85 11.85 -12.05 6.45 L-11.55 1.75 Q-10.45 5.7 -8.4 6.6 -6.4 7.5 -1.8 9.0 -0.15 9.7 1.75 11.7 3.4 13.4 4.0 13.4 4.6 13.4 6.25 11.7 8.15 9.7 9.8 9.0 L15.95 6.6 Q18.35 5.55 19.55 1.75" fill="#243f57" fill-rule="evenodd" stroke="none"/>
      <path d="M3.7 12.6 Q-5.3 12.6 -8.0 16.25 L-11.05 7.75 -1.9 8.1 Q3.6 11.0 4.5 11.0 L6.5 9.4 Q8.25 7.8 9.7 7.75 L16.1 7.5 Q19.95 8.35 15.85 16.25 12.7 12.6 3.7 12.6" fill="#3e6b94" fill-rule="evenodd" stroke="none"/>
      <path d="M3.85 10.15 Q4.9 10.3 5.9 9.55 L7.4 7.9 Q8.5 6.7 9.75 6.15 L13.6 5.2 Q16.2 4.7 17.1 3.9 L18.75 2.3" fill="none" stroke="#95651e" stroke-linecap="round" stroke-linejoin="round" stroke-width="1.5"/>
      <path d="M3.9 10.15 Q2.85 10.3 1.85 9.55 0.1 7.05 -2.0 6.15 -7.75 5.3 -9.35 3.9 L-11.15 2.4" fill="none" stroke="#95651e" stroke-linecap="round" stroke-linejoin="round" stroke-width="1.5"/>
      <path d="M19.6 11.65 L18.95 12.6 18.85 12.85 Q15.65 8.45 14.65 8.3 13.15 8.1 10.4 9.55 L8.0 12.1 Q6.15 14.0 3.85 14.0 L3.85 11.05 Q4.9 11.25 5.9 10.5 L7.4 8.85 Q8.5 7.6 9.75 7.05 L13.6 6.15 Q16.2 5.65 17.1 4.8 18.65 3.4 19.35 1.8 L19.7 3.55 Q20.05 5.65 19.9 7.5 L19.6 11.65" fill="#ddff00" fill-rule="evenodd" stroke="none"/>
      <path d="M8.9 8.05 L8.75 7.9 Q10.35 6.7 14.25 6.1 16.15 5.2 19.25 2.2 19.9 2.8 19.9 5.5 19.9 6.85 19.4 7.05 L17.45 7.05 13.1 7.15 8.9 8.05" fill="#f9ffd6" fill-rule="evenodd" stroke="none"/>
      <path d="M3.9 11.05 L3.85 14.0 Q1.55 14.0 -0.25 12.1 -1.85 10.0 -2.65 9.55 -5.5 8.15 -6.6 8.3 -7.3 8.4 -9.55 11.05 L-10.85 12.7 -11.45 11.55 -11.9 10.75 -12.15 7.5 Q-12.3 5.65 -11.95 3.55 L-11.6 1.8 -9.35 4.8 Q-7.75 6.25 -2.0 7.05 0.1 8.0 1.85 10.5 2.85 11.25 3.9 11.05" fill="#ddff00" fill-rule="evenodd" stroke="none"/>
      <path d="M-9.75 7.05 L-11.65 7.05 Q-12.25 6.8 -12.15 5.5 -12.15 2.8 -11.5 2.2 -8.4 5.2 -6.5 6.1 L-3.7 6.85 Q-1.9 7.25 -1.0 7.9 L-1.15 8.05 Q-3.8 7.2 -5.35 7.15 L-9.75 7.05" fill="#f9ffd6" fill-rule="evenodd" stroke="none"/>
      <path d="M3.2 11.0 L4.5 11.0 4.5 15.15 3.2 15.15 3.2 11.0" fill="#243f57" fill-rule="evenodd" stroke="none"/>
      <path d="M9.4 14.15 L10.65 11.9 15.0 12.0 9.4 14.15" fill="#a2c9eb" fill-rule="evenodd" stroke="none"/>
      <path d="M15.9 9.15 L18.6 8.65 18.95 10.0 Q19.25 11.6 18.95 12.55 18.5 14.1 16.0 16.25 16.45 14.5 16.5 12.9 L15.9 9.15" fill="#ddff00" fill-rule="evenodd" stroke="none"/>
      <path d="M-7.9 9.15 L-8.5 12.9 Q-8.45 14.5 -8.0 16.25 -10.5 14.1 -10.95 12.55 -11.25 11.6 -10.9 10.0 L-10.55 8.65 -7.9 9.15" fill="#ddff00" fill-rule="evenodd" stroke="none"/>
      <path d="M3.25 11.0 L3.75 11.0 3.75 20.5 3.25 20.5 3.25 11.0" fill="#b6dafa" fill-rule="evenodd" stroke="none"/>
      <path d="M3.85 11.05 Q4.9 11.25 5.9 10.5 L7.4 8.85 Q8.5 7.6 9.75 7.05 L13.6 6.15 Q16.2 5.65 17.1 4.8 18.65 3.4 19.35 1.8" fill="none" stroke="#fdfff2" stroke-linecap="round" stroke-linejoin="round" stroke-width="1.0"/>
      <path d="M3.9 11.05 Q2.85 11.25 1.85 10.5 0.1 8.0 -2.0 7.05 -7.75 6.25 -9.35 4.8 L-11.6 1.8" fill="none" stroke="#fdfff2" stroke-linecap="round" stroke-linejoin="round" stroke-width="1.0"/>
    </g>
  </defs>
</svg>
