<?xml version="1.0" encoding="UTF-8" standalone="no"?>
<svg xmlns:xlink="http://www.w3.org/1999/xlink" height="82.0px" width="84.85px" xmlns="http://www.w3.org/2000/svg">
  <g transform="matrix(1.0, 0.0, 0.0, 1.0, 37.4, 42.25)">
    <use height="38.0" transform="matrix(1.0, 0.0, 0.0, 1.0, -11.95, -17.45)" width="32.05" xlink:href="#sprite0"/>
    <use height="38.95" transform="matrix(1.0, 0.0, 0.0, 1.0, -12.45, -17.95)" width="33.05" xlink:href="#sprite1"/>
    <use height="18.0" transform="matrix(1.0, 0.0, 0.0, 1.0, -12.2, 2.6)" width="32.4" xlink:href="#shape2"/>
  </g>
  <defs>
    <g id="sprite0" transform="matrix(1.0, 0.0, 0.0, 1.0, -0.05, 0.0)">
      <use height="38.0" transform="matrix(1.0, 0.0, 0.0, 1.0, 0.05, 0.0)" width="32.05" xlink:href="#shape0"/>
    </g>
    <g id="shape0" transform="matrix(1.0, 0.0, 0.0, 1.0, -0.05, 0.0)">
      <path d="M27.35 7.4 Q29.5 11.55 30.9 16.15 32.35 20.85 32.05 25.65 31.7 30.6 27.85 33.75 24.05 36.95 19.1 37.8 L16.5 38.0 Q12.9 38.0 9.45 36.85 4.8 35.25 2.35 31.35 -0.2 27.4 0.05 23.0 0.25 18.6 2.05 13.7 3.85 8.75 7.0 5.05 10.1 1.3 14.7 0.1 L16.5 0.0 Q18.4 0.05 20.2 0.8 24.95 2.85 27.35 7.4" fill="#c98036" fill-rule="evenodd" stroke="none"/>
    </g>
    <g id="sprite1" transform="matrix(1.0, 0.0, 0.0, 1.0, 0.45, 0.5)">
      <use height="38.95" transform="matrix(1.0, 0.0, 0.0, 1.0, -0.45, -0.5)" width="33.05" xlink:href="#shape1"/>
    </g>
    <g id="shape1" transform="matrix(1.0, 0.0, 0.0, 1.0, 0.45, 0.5)">
      <path d="M27.35 7.4 Q24.95 2.85 20.2 0.8 17.55 -0.3 14.7 0.1 10.1 1.3 7.0 5.05 3.85 8.75 2.05 13.7 0.25 18.6 0.05 23.0 -0.2 27.4 2.35 31.35 4.8 35.25 9.45 36.85 14.1 38.4 19.1 37.8 24.05 36.95 27.85 33.75 31.7 30.6 32.05 25.65 32.35 20.85 30.9 16.15 29.5 11.55 27.35 7.4 Z" fill="none" stroke="#333333" stroke-linecap="round" stroke-linejoin="round" stroke-width="1.0"/>
    </g>
    <g id="shape2" transform="matrix(1.0, 0.0, 0.0, 1.0, 12.2, -2.6)">
      <path d="M-11.2 3.5 L-9.25 4.35 -6.75 5.4 Q-6.1 3.5 -2.6 4.0 0.9 4.5 1.75 6.45 L4.5 6.6 7.35 6.2 8.35 5.0 Q9.7 3.8 11.25 3.65 13.75 3.4 15.15 5.15 L17.3 4.25 Q18.65 3.75 19.5 3.1" fill="none" stroke="#804b16" stroke-linecap="round" stroke-linejoin="round" stroke-width="1.0"/>
      <path d="M4.05 9.5 Q10.4 9.5 19.9 7.0 L20.0 9.35 Q19.05 10.5 16.6 11.6 11.7 13.85 4.1 13.85 -8.05 13.85 -10.85 10.6 L-11.7 6.75 Q-2.25 9.5 4.05 9.5" fill="#804b16" fill-rule="evenodd" stroke="none"/>
      <path d="M17.8 13.95 Q18.1 14.7 14.75 16.85 11.35 19.05 10.2 19.55 7.7 20.6 4.2 20.6 -1.0 20.6 -4.5 18.6 L-7.6 16.75 -9.25 14.2 -5.25 15.9 Q-0.6 17.1 4.05 17.1 8.75 17.1 11.9 16.1 L17.8 13.95" fill="#d6008b" fill-rule="evenodd" stroke="none"/>
      <path d="M-9.25 14.45 Q-3.25 17.1 4.05 17.1 11.4 17.1 17.35 14.1" fill="none" stroke="#ffffff" stroke-linecap="round" stroke-linejoin="round" stroke-width="1.0"/>
      <path d="M-10.85 8.9 Q-9.1 9.8 -6.2 10.55 -3.7 12.55 -0.25 11.5 L2.55 11.65 4.05 11.7 8.85 11.4 Q13.15 12.2 15.15 9.75 17.5 8.8 18.9 7.75 L19.2 7.5" fill="none" stroke="#ffffff" stroke-linecap="round" stroke-linejoin="round" stroke-width="2.0"/>
      <path d="M4.05 11.7 Q-7.35 11.7 -12.0 8.15 L-12.15 4.25 Q-5.95 7.5 3.9 7.5 13.7 7.5 19.55 4.15 L19.8 6.9 Q18.75 8.1 16.2 9.3 11.2 11.7 4.05 11.7" fill="#d6008b" fill-rule="evenodd" stroke="none"/>
      <path d="M4.05 11.7 Q-2.35 11.7 -5.45 10.35 -0.1 9.25 4.05 9.25 L13.65 9.9 Q10.45 11.7 4.05 11.7" fill="#b80077" fill-rule="evenodd" stroke="none"/>
      <path d="M6.6 9.15 Q7.2 6.3 11.45 4.95 13.1 4.4 14.65 6.3 16.2 8.2 15.3 9.55 13.95 11.6 10.05 11.5 6.1 11.4 6.6 9.15" fill="#d6008b" fill-rule="evenodd" stroke="none"/>
      <path d="M-1.85 11.75 Q-5.85 11.9 -6.95 9.55 -7.65 8.05 -6.25 6.25 -4.75 4.4 -3.15 4.95 1.25 6.3 1.75 9.15 2.15 11.6 -1.85 11.75" fill="#d6008b" fill-rule="evenodd" stroke="none"/>
      <path d="M-0.05 8.45 Q0.8 8.25 0.9 9.15 1.0 10.25 -0.55 10.55 L-3.35 10.7 -4.9 10.4 Q-6.25 9.95 -6.5 9.1 L-6.4 7.15 -5.55 8.05 -4.3 8.8 -1.45 9.0 -0.05 8.45" fill="#b80077" fill-rule="evenodd" stroke="none"/>
      <path d="M13.7 7.85 L14.55 6.95 Q15.25 8.35 14.9 9.05 14.6 9.65 13.1 10.2 L11.55 10.5 8.75 10.4 Q7.2 10.1 7.3 8.95 7.4 8.05 8.25 8.3 L9.65 8.8 12.5 8.6 Q13.2 8.3 13.7 7.85" fill="#b80077" fill-rule="evenodd" stroke="none"/>
      <path d="M4.0 18.9 Q8.65 18.9 16.5 15.6 11.25 20.4 4.15 20.4 -2.95 20.4 -7.85 16.55 -0.7 18.9 4.0 18.9" fill="#b80077" fill-rule="evenodd" stroke="none"/>
      <path d="M-11.7 4.25 L-8.85 5.5 -6.35 6.35 Q-5.8 4.85 -3.5 4.85 -0.35 4.85 1.05 7.4 L7.5 7.5 8.4 6.3 Q9.65 5.0 11.25 4.6 13.8 3.9 14.65 6.1 L17.25 5.25 Q18.4 4.85 19.55 4.15" fill="none" stroke="#ffffff" stroke-linecap="round" stroke-linejoin="round" stroke-width="1.0"/>
    </g>
  </defs>
</svg>
