<?xml version="1.0" encoding="UTF-8" standalone="no"?>
<svg xmlns:xlink="http://www.w3.org/1999/xlink" height="82.0px" width="84.85px" xmlns="http://www.w3.org/2000/svg">
  <g transform="matrix(1.0, 0.0, 0.0, 1.0, 37.4, 42.25)">
    <use height="38.0" transform="matrix(1.0, 0.0, 0.0, 1.0, -11.95, -17.45)" width="32.05" xlink:href="#sprite0"/>
    <use height="38.95" transform="matrix(1.0, 0.0, 0.0, 1.0, -12.45, -17.95)" width="33.05" xlink:href="#sprite1"/>
    <use height="24.35" transform="matrix(1.0, 0.0, 0.0, 1.0, -12.35, 2.95)" width="32.7" xlink:href="#shape2"/>
  </g>
  <defs>
    <g id="sprite0" transform="matrix(1.0, 0.0, 0.0, 1.0, -0.05, 0.0)">
      <use height="38.0" transform="matrix(1.0, 0.0, 0.0, 1.0, 0.05, 0.0)" width="32.05" xlink:href="#shape0"/>
    </g>
    <g id="shape0" transform="matrix(1.0, 0.0, 0.0, 1.0, -0.05, 0.0)">
      <path d="M27.35 7.4 Q29.5 11.55 30.9 16.15 32.35 20.85 32.05 25.65 31.7 30.6 27.85 33.75 24.05 36.95 19.1 37.8 L16.5 38.0 Q12.9 38.0 9.45 36.85 4.8 35.25 2.35 31.35 -0.2 27.4 0.05 23.0 0.25 18.6 2.05 13.7 3.85 8.75 7.0 5.05 10.1 1.3 14.7 0.1 L16.5 0.0 Q18.4 0.05 20.2 0.8 24.95 2.85 27.35 7.4" fill="#ffffff" fill-rule="evenodd" stroke="none"/>
    </g>
    <g id="sprite1" transform="matrix(1.0, 0.0, 0.0, 1.0, 0.45, 0.5)">
      <use height="38.95" transform="matrix(1.0, 0.0, 0.0, 1.0, -0.45, -0.5)" width="33.05" xlink:href="#shape1"/>
    </g>
    <g id="shape1" transform="matrix(1.0, 0.0, 0.0, 1.0, 0.45, 0.5)">
      <path d="M27.35 7.4 Q24.95 2.85 20.2 0.8 17.55 -0.3 14.7 0.1 10.1 1.3 7.0 5.05 3.85 8.75 2.05 13.7 0.25 18.6 0.05 23.0 -0.2 27.4 2.35 31.35 4.8 35.25 9.45 36.85 14.1 38.4 19.1 37.8 24.05 36.95 27.85 33.75 31.7 30.6 32.05 25.65 32.35 20.85 30.9 16.15 29.5 11.55 27.35 7.4 Z" fill="none" stroke="#000000" stroke-linecap="round" stroke-linejoin="round" stroke-width="1.0"/>
    </g>
    <g id="shape2" transform="matrix(1.0, 0.0, 0.0, 1.0, 12.35, -2.95)">
      <path d="M10.5 16.0 Q3.95 18.8 4.75 14.55 5.5 10.3 9.75 9.25 17.05 7.25 19.3 4.25 16.55 13.5 10.5 16.0" fill="#000000" fill-rule="evenodd" stroke="none"/>
      <path d="M-2.55 16.0 Q-8.55 13.5 -11.35 4.25 -9.35 7.25 -1.75 9.25 2.5 10.3 3.25 14.55 3.95 18.8 -2.55 16.0" fill="#000000" fill-rule="evenodd" stroke="none"/>
      <path d="M20.35 7.75 L19.85 9.5 Q18.55 8.25 4.25 8.25 -10.05 8.25 -11.35 9.25 -12.1 6.75 -12.1 5.5 L-11.85 2.95 Q-7.3 7.5 4.5 7.5 16.3 7.5 20.35 2.95 L20.35 7.75" fill="#000000" fill-rule="evenodd" stroke="none"/>
      <path d="M4.5 19.55 Q-8.3 19.55 -12.35 8.5 L-11.8 4.6 Q-4.8 8.55 2.25 12.55 L4.25 15.55 5.75 12.55 20.1 6.75 19.85 9.55 Q17.3 19.55 4.5 19.55" fill="#000000" fill-rule="evenodd" stroke="none"/>
      <path d="M15.55 17.55 L10.0 23.6 Q8.25 25.3 9.05 27.05 0.5 27.05 -3.8 23.85 -8.05 20.8 -9.35 19.05 L-10.8 10.75 5.5 19.55 16.8 14.55 15.55 17.55" fill="#000000" fill-rule="evenodd" stroke="none"/>
      <path d="M19.65 11.1 L19.65 11.9 Q18.15 15.25 17.6 17.8 L15.8 24.05 Q14.3 22.8 14.3 21.3 14.3 19.55 16.05 15.3 L16.05 13.25 19.65 11.1" fill="#000000" fill-rule="evenodd" stroke="none"/>
      <path d="M4.25 18.55 Q-2.0 18.55 -7.55 15.3 -1.55 17.05 4.25 17.05 9.75 17.05 14.55 15.55 10.5 18.55 4.25 18.55" fill="#5c5c5c" fill-rule="evenodd" stroke="none"/>
      <path d="M4.25 17.8 Q-3.05 17.8 -8.05 15.55 L-7.8 15.3 Q-0.55 17.05 4.25 17.05 9.05 17.05 14.55 15.55 11.3 17.8 4.25 17.8" fill="#cccccc" fill-rule="evenodd" stroke="none"/>
      <path d="M10.75 19.05 L6.75 22.55 Q6.0 23.35 4.75 25.05 5.75 22.05 6.5 20.8 7.5 19.8 10.75 19.05" fill="#696969" fill-rule="evenodd" stroke="none"/>
      <path d="M10.25 19.05 Q8.25 21.05 4.75 22.05 1.2 23.05 -4.05 22.05 L1.45 21.8 Q5.0 21.3 10.25 19.05" fill="#696969" fill-rule="evenodd" stroke="none"/>
      <path d="M6.5 13.25 Q7.75 10.75 10.25 10.0 L14.3 9.25 10.0 11.5 Q7.5 13.05 6.5 13.25" fill="#696969" fill-rule="evenodd" stroke="none"/>
      <path d="M-2.55 11.5 L-6.55 9.25 -2.55 10.0 Q0.0 10.75 1.2 13.25 0.25 13.05 -2.55 11.5" fill="#696969" fill-rule="evenodd" stroke="none"/>
      <path d="M-6.3 15.3 Q-6.3 16.0 -7.55 16.55 -8.8 16.55 -8.8 15.3 -8.3 14.0 -7.55 14.0 -6.3 14.8 -6.3 15.3" fill="#cccccc" fill-rule="evenodd" stroke="none"/>
      <path d="M-9.05 16.55 L-6.55 17.05 -6.3 24.55 -7.55 24.8 -8.05 22.8 -9.85 26.1 -11.05 24.55 -9.85 22.3 Q-8.8 20.55 -9.05 16.55" fill="#000000" fill-rule="evenodd" stroke="none"/>
      <path d="M-8.55 15.55 L-7.8 15.05 Q-7.1 15.05 -6.8 15.8 L-6.8 24.3 -7.55 24.3 -7.55 15.8 -8.05 21.3 Q-8.55 23.6 -10.3 25.3 L-11.05 24.55 Q-9.6 23.35 -9.05 22.05 -8.3 20.55 -8.55 15.55" fill="#cccccc" fill-rule="evenodd" stroke="none"/>
      <path d="M7.95 26.35 L8.0 25.3 Q8.25 24.05 11.8 21.8 9.3 24.55 9.05 25.6 8.8 26.35 9.5 27.3 3.25 27.05 -0.3 26.1 -3.55 25.3 -6.05 22.3 -3.55 24.3 -0.3 25.3 L7.95 26.35" fill="#696969" fill-rule="evenodd" stroke="none"/>
      <path d="M15.0 18.05 Q14.55 20.3 14.55 21.3 14.55 22.3 15.8 24.05 13.55 23.05 13.8 21.55 13.8 20.05 15.0 18.05" fill="#696969" fill-rule="evenodd" stroke="none"/>
      <path d="M10.75 22.8 Q9.75 24.05 8.25 25.05 L9.05 23.85 Q11.3 21.05 12.5 20.05 13.55 19.05 15.0 18.05 L10.75 22.8" fill="#696969" fill-rule="evenodd" stroke="none"/>
    </g>
  </defs>
</svg>
