<?xml version="1.0" encoding="UTF-8" standalone="no"?>
<svg xmlns:xlink="http://www.w3.org/1999/xlink" height="82.0px" width="84.85px" xmlns="http://www.w3.org/2000/svg">
  <g transform="matrix(1.0, 0.0, 0.0, 1.0, 37.4, 42.25)">
    <use height="38.0" transform="matrix(1.0, 0.0, 0.0, 1.0, -11.95, -17.45)" width="32.05" xlink:href="#sprite0"/>
    <use height="38.95" transform="matrix(1.0, 0.0, 0.0, 1.0, -12.45, -17.95)" width="33.05" xlink:href="#sprite1"/>
    <use height="38.8" transform="matrix(1.0, 0.0, 0.0, 1.0, 4.0, -13.9)" width="21.1" xlink:href="#sprite2"/>
    <use height="38.8" transform="matrix(-1.0, 0.0, 0.0, 1.0, 4.0, -13.9)" width="21.1" xlink:href="#sprite2"/>
  </g>
  <defs>
    <g id="sprite0" transform="matrix(1.0, 0.0, 0.0, 1.0, -0.05, 0.0)">
      <use height="38.0" transform="matrix(1.0, 0.0, 0.0, 1.0, 0.05, 0.0)" width="32.05" xlink:href="#shape0"/>
    </g>
    <g id="shape0" transform="matrix(1.0, 0.0, 0.0, 1.0, -0.05, 0.0)">
      <path d="M27.35 7.4 Q29.5 11.55 30.9 16.15 32.35 20.85 32.05 25.65 31.7 30.6 27.85 33.75 24.05 36.95 19.1 37.8 L16.5 38.0 Q12.9 38.0 9.45 36.85 4.8 35.25 2.35 31.35 -0.2 27.4 0.05 23.0 0.25 18.6 2.05 13.7 3.85 8.75 7.0 5.05 10.1 1.3 14.7 0.1 L16.5 0.0 Q18.4 0.05 20.2 0.8 24.95 2.85 27.35 7.4" fill="#ffffff" fill-rule="evenodd" stroke="none"/>
    </g>
    <g id="sprite1" transform="matrix(1.0, 0.0, 0.0, 1.0, 0.45, 0.5)">
      <use height="38.95" transform="matrix(1.0, 0.0, 0.0, 1.0, -0.45, -0.5)" width="33.05" xlink:href="#shape1"/>
    </g>
    <g id="shape1" transform="matrix(1.0, 0.0, 0.0, 1.0, 0.45, 0.5)">
      <path d="M27.35 7.4 Q24.95 2.85 20.2 0.8 17.55 -0.3 14.7 0.1 10.1 1.3 7.0 5.05 3.85 8.75 2.05 13.7 0.25 18.6 0.05 23.0 -0.2 27.4 2.35 31.35 4.8 35.25 9.45 36.85 14.1 38.4 19.1 37.8 24.05 36.95 27.85 33.75 31.7 30.6 32.05 25.65 32.35 20.85 30.9 16.15 29.5 11.55 27.35 7.4 Z" fill="none" stroke="#000000" stroke-linecap="round" stroke-linejoin="round" stroke-width="1.0"/>
    </g>
    <g id="sprite2" transform="matrix(1.0, 0.0, 0.0, 1.0, 0.0, 0.0)">
      <use height="38.8" transform="matrix(1.0, 0.0, 0.0, 1.0, 0.0, 0.0)" width="21.1" xlink:href="#shape2"/>
    </g>
    <g id="shape2" transform="matrix(1.0, 0.0, 0.0, 1.0, 0.0, 0.0)">
      <path d="M10.25 18.6 L9.05 17.0 Q5.1 12.3 0.05 9.15 -0.25 6.0 1.05 3.55 1.55 2.55 2.45 1.8 L1.95 0.0 4.05 1.2 Q13.05 5.9 11.7 17.4 L11.8 21.35 10.25 18.6" fill="#5e5e5e" fill-rule="evenodd" stroke="none"/>
      <path d="M0.0 28.8 L0.0 22.6 0.95 22.65 6.35 21.0 5.5 21.85 5.45 21.9 5.45 21.95 5.25 22.65 Q4.95 24.35 5.85 25.75 L5.9 26.75 5.65 29.3 5.15 29.4 4.8 28.65 3.1 28.7 2.85 29.95 1.3 30.2 1.05 29.1 0.0 28.8" fill="#616161" fill-rule="evenodd" stroke="none"/>
      <path d="M14.65 38.6 Q11.7 39.15 8.95 38.15 L7.45 37.6 8.15 37.15 Q13.2 38.6 18.45 37.6 L14.65 38.6 M7.5 20.55 L9.1 19.85 10.1 19.4 7.0 22.5 Q7.9 28.2 7.3 34.35 L6.85 33.15 Q5.85 29.95 5.9 26.75 L5.85 25.75 5.45 21.95 5.45 21.9 5.5 21.85 7.5 20.55 M10.55 32.85 L15.45 32.85 17.4 31.4 16.2 34.35 10.55 32.85 M13.9 18.6 Q15.0 20.0 14.45 21.6 13.6 26.1 9.45 27.85 13.65 23.65 13.1 17.7 L13.9 18.6" fill="#b5b5b5" fill-rule="evenodd" stroke="none"/>
      <path d="M10.25 18.6 L11.8 21.35 11.7 17.4 16.05 15.2 Q21.0 20.9 18.8 28.9 18.3 30.75 19.05 32.65 19.85 34.5 21.1 36.35 L18.5 37.65 Q16.7 38.5 14.65 38.6 L18.45 37.6 Q13.2 38.6 8.15 37.15 L7.45 37.6 6.4 33.6 3.6 34.3 0.0 34.5 0.0 31.15 1.0 30.95 1.3 30.2 2.85 29.95 3.6 30.75 4.5 30.7 5.1 30.1 5.15 29.4 5.65 29.3 5.9 26.75 Q5.85 29.95 6.85 33.15 L7.3 34.35 Q7.9 28.2 7.0 22.5 L10.1 19.4 9.1 19.85 10.25 18.6 M6.35 21.0 L7.5 20.55 5.5 21.85 6.35 21.0 M5.85 25.75 Q4.95 24.35 5.25 22.65 L5.45 21.95 5.85 25.75 M13.9 18.6 L13.1 17.7 Q13.65 23.65 9.45 27.85 13.6 26.1 14.45 21.6 15.0 20.0 13.9 18.6 M10.55 32.85 L16.2 34.35 17.4 31.4 15.45 32.85 10.55 32.85" fill="#000000" fill-rule="evenodd" stroke="none"/>
      <path d="M0.0 31.15 L0.0 28.8 1.05 29.1 1.3 30.2 1.0 30.95 0.0 31.15 M5.15 29.4 L5.1 30.1 4.5 30.7 3.6 30.75 2.85 29.95 3.1 28.7 4.8 28.65 5.15 29.4" fill="#bfbfbf" fill-rule="evenodd" stroke="none"/>
    </g>
  </defs>
</svg>
