<svg xmlns:xlink="http://www.w3.org/1999/xlink" height="82" width="84.85" xmlns="http://www.w3.org/2000/svg"><g transform="translate(37.4 42.25)"><use height="38" transform="translate(-11.95 -17.45)" width="32.05" xlink:href="#a"/><use height="21.6" transform="translate(-12.25 -17.95)" width="32.65" xlink:href="#b"/><use height="26.4" transform="translate(-14.9 1.3)" width="39.1" xlink:href="#c"/></g><defs><path d="M27.35 7.4q2.15 4.15 3.55 8.75 1.45 4.7 1.15 9.5-.35 4.95-4.2 8.1-3.8 3.2-8.75 4.05l-2.6.2q-3.6 0-7.05-1.15-4.65-1.6-7.1-5.5Q-.2 27.4.05 23q.2-4.4 2-9.3Q3.85 8.75 7 5.05 10.1 1.3 14.7.1l1.8-.1q1.9.05 3.7.8 4.75 2.05 7.15 6.6" fill="#fff" fill-rule="evenodd" transform="translate(-.05)" id="d"/><path d="M31.9 20.6q-.3-2.25-1-4.45-1.4-4.6-3.55-8.75-2.4-4.55-7.15-6.6-2.65-1.1-5.5-.7Q10.1 1.3 7 5.05q-3.15 3.7-4.95 8.65Q.7 17.3.25 20.6" fill="none" stroke="#000" stroke-linecap="round" stroke-linejoin="round" transform="translate(.25 .5)" id="e"/><use height="38" width="32.05" xlink:href="#d" id="a"/><use height="21.6" width="32.65" xlink:href="#e" id="b"/><g id="c"><path d="M23.7 23.4q-9.3 3.85-19.2 3.8-10.5-.05-18.9-3.75 1.05-7.1 2.1-10.4l1.2-3.3q-.9-1.9-.85-5l.1-1.95q3.8-.95 4.35 4.55 6.35.05 9.55 2.2L4.5 11.3Q6.85 9 9.4 8.1q2.55-.95 6.25-.6.3-6.55 4.05-5.55.55 2.8.25 7.5 1 2 2.3 6.55 1.25 4.5 1.45 7.4m-12.6-.05-.1-.05v.6l.1-.55" fill-rule="evenodd" transform="translate(14.9 -1.3)"/><path d="M23.7 23.4q-9.3 3.85-19.2 3.8-10.5-.05-18.9-3.75 1.05-7.1 2.1-10.4l1.2-3.3q-.9-1.9-.85-5l.1-1.95q3.8-.95 4.35 4.55 6.35.05 9.55 2.2L4.5 11.3Q6.85 9 9.4 8.1q2.55-.95 6.25-.6.3-6.55 4.05-5.55.55 2.8.25 7.5 1 2 2.3 6.55 1.25 4.5 1.45 7.4Z" fill="none" stroke="#000" stroke-linecap="round" stroke-linejoin="round" transform="translate(14.9 -1.3)"/></g></defs></svg>