<?xml version="1.0" encoding="UTF-8" standalone="no"?>
<svg xmlns:xlink="http://www.w3.org/1999/xlink" height="82.0px" width="84.85px" xmlns="http://www.w3.org/2000/svg">
  <g transform="matrix(1.0, 0.0, 0.0, 1.0, 37.4, 42.25)">
    <use height="38.0" transform="matrix(1.0, 0.0, 0.0, 1.0, -11.95, -17.45)" width="32.05" xlink:href="#sprite0"/>
    <use height="21.6" transform="matrix(1.0, 0.0, 0.0, 1.0, -12.25, -17.95)" width="32.65" xlink:href="#sprite1"/>
    <use height="26.4" transform="matrix(1.0, 0.0, 0.0, 1.0, -14.9, 1.3)" width="39.1" xlink:href="#shape2"/>
  </g>
  <defs>
    <g id="sprite0" transform="matrix(1.0, 0.0, 0.0, 1.0, -0.05, 0.0)">
      <use height="38.0" transform="matrix(1.0, 0.0, 0.0, 1.0, 0.05, 0.0)" width="32.05" xlink:href="#shape0"/>
    </g>
    <g id="shape0" transform="matrix(1.0, 0.0, 0.0, 1.0, -0.05, 0.0)">
      <path d="M27.35 7.4 Q29.5 11.55 30.9 16.15 32.35 20.85 32.05 25.65 31.7 30.6 27.85 33.75 24.05 36.95 19.1 37.8 L16.5 38.0 Q12.9 38.0 9.45 36.85 4.8 35.25 2.35 31.35 -0.2 27.4 0.05 23.0 0.25 18.6 2.05 13.7 3.85 8.75 7.0 5.05 10.1 1.3 14.7 0.1 L16.5 0.0 Q18.4 0.05 20.2 0.8 24.95 2.85 27.35 7.4" fill="#ffffff" fill-rule="evenodd" stroke="none"/>
    </g>
    <g id="sprite1" transform="matrix(1.0, 0.0, 0.0, 1.0, 0.25, 0.5)">
      <use height="21.6" transform="matrix(1.0, 0.0, 0.0, 1.0, -0.25, -0.5)" width="32.65" xlink:href="#shape1"/>
    </g>
    <g id="shape1" transform="matrix(1.0, 0.0, 0.0, 1.0, 0.25, 0.5)">
      <path d="M31.9 20.6 Q31.6 18.35 30.9 16.15 29.5 11.55 27.35 7.4 24.95 2.85 20.2 0.8 17.55 -0.3 14.7 0.1 10.1 1.3 7.0 5.05 3.85 8.75 2.05 13.7 0.7 17.3 0.25 20.6" fill="none" stroke="#000000" stroke-linecap="round" stroke-linejoin="round" stroke-width="1.0"/>
    </g>
    <g id="shape2" transform="matrix(1.0, 0.0, 0.0, 1.0, 14.9, -1.3)">
      <path d="M23.7 23.4 Q14.4 27.25 4.5 27.2 -6.0 27.15 -14.4 23.45 -13.35 16.35 -12.3 13.05 L-11.1 9.75 Q-12.0 7.85 -11.95 4.75 L-11.85 2.8 Q-8.05 1.85 -7.5 7.35 -1.15 7.4 2.05 9.55 L4.5 11.3 Q6.85 9.0 9.4 8.1 11.95 7.15 15.65 7.5 15.95 0.95 19.7 1.95 20.25 4.75 19.95 9.45 20.95 11.45 22.25 16.0 23.5 20.5 23.7 23.4 M11.1 23.35 L11.0 23.3 11.0 23.9 11.1 23.35" fill="#000000" fill-rule="evenodd" stroke="none"/>
      <path d="M23.7 23.4 Q14.4 27.25 4.5 27.2 -6.0 27.15 -14.4 23.45 -13.35 16.35 -12.3 13.05 L-11.1 9.75 Q-12.0 7.85 -11.95 4.75 L-11.85 2.8 Q-8.05 1.85 -7.5 7.35 -1.15 7.4 2.05 9.55 L4.5 11.3 Q6.85 9.0 9.4 8.1 11.95 7.15 15.65 7.5 15.95 0.95 19.7 1.95 20.25 4.75 19.95 9.45 20.95 11.45 22.25 16.0 23.5 20.5 23.7 23.4 Z" fill="none" stroke="#000000" stroke-linecap="round" stroke-linejoin="round" stroke-width="1.0"/>
    </g>
  </defs>
</svg>
