<svg xmlns:xlink="http://www.w3.org/1999/xlink" height="82" width="84.85" xmlns="http://www.w3.org/2000/svg"><g transform="translate(37.4 42.25)"><use height="38" transform="translate(-11.95 -17.45)" width="32.05" xlink:href="#a"/><use height="38.95" transform="translate(-12.45 -17.95)" width="33.05" xlink:href="#b"/><use height="31.65" transform="translate(-17.65 -2.15)" width="43.65" xlink:href="#c"/></g><defs><path d="M27.35 7.4q2.15 4.15 3.55 8.75 1.45 4.7 1.15 9.5-.35 4.95-4.2 8.1-3.8 3.2-8.75 4.05l-2.6.2q-3.6 0-7.05-1.15-4.65-1.6-7.1-5.5Q-.2 27.4.05 23q.2-4.4 2-9.3Q3.85 8.75 7 5.05 10.1 1.3 14.7.1l1.8-.1q1.9.05 3.7.8 4.75 2.05 7.15 6.6" fill="#fff" fill-rule="evenodd" transform="translate(-.05)" id="d"/><path d="M27.35 7.4Q24.95 2.85 20.2.8 17.55-.3 14.7.1 10.1 1.3 7 5.05q-3.15 3.7-4.95 8.65-1.8 4.9-2 9.3-.25 4.4 2.3 8.35 2.45 3.9 7.1 5.5 4.65 1.55 9.65.95 4.95-.85 8.75-4.05 3.85-3.15 4.2-8.1.3-4.8-1.15-9.5-1.4-4.6-3.55-8.75Z" fill="none" stroke="#010102" stroke-linecap="round" stroke-linejoin="round" transform="translate(.45 .5)" id="e"/><use height="38" width="32.05" xlink:href="#d" id="a"/><use height="38.95" width="33.05" xlink:href="#e" id="b"/><g id="c" fill-rule="evenodd"><path d="M19.4-.5 20 2l.9.2.15.9L25-1.4l-3.6-.4-2.1.5-.1-.85L26-2l-5 6.9-.1-.45-2.05 1.05 1.65-1.75-.1-.95-.05.25q-1.65 1.05-3.1 2.3l-.9 1L15 7.45l-3.25.25 7.95-5.65-.3-2.55m-1.8 11.25 1.1.55-.4.2-.7-.75m2.1 2.6 1.2 3.5q.6 2.5.85 5.1l-4.85-2.4-1.25 3.55-2.1 4.2-3.4-2.15-1.2-.95-4.7 5.3-4.85-5.05-4.9 2.4-3.3-7.05-4.5 1.75.4-4.45.95-5.05.45.1.1.4-.6.6.7.6-.6 2.75-.15.8-.7 3.2.5-.25v.1l.2-.2 3.95-2.05 1.25 3.15.2 1.15 1.7 3.8 4.55-2.9 4.3 5.25 4.6-5.45 4.65 3.1 3.5-7.3 4.45 1.7-2.05-6.65.65-.6M-9.9 7.1l-2.35-2.3-.4.1-5-6.9 6.65-.05.35 1.15-.8 3.15q2.2 2.05 4.7 3.7 1.7 1.1 3.7 1.8l-3.45-.1-.65-.2-1.45-2.1-1.65-1.5-2.1-1.15-.25 1.1 2.7 3.3M1.35 9.3l2.9 1 3.1-1.05L5.25 11l-.6.85-.2.4-1.8-2.15-1.3-.8M-11.2-.35l.2-.9-3.35-.3-2.45-.25.4.65 3.45 3.7.65-.45.55.05.45-2.05.1-.45" fill="#003a41" transform="translate(17.65 2.15)"/><path d="m19.4-.5-.2-.8.1.05 4 .55 1.7-.7-3.95 4.5-.15-.9L20 2l-.6-2.5m-.7 6.4-1.55 4.35.45.5.7.75-2.25 1.45-.3-.95q-.3-.4-.7-.4l-.9-.1-.4.9.55 1.25.1.05-.5.05-9.6.8-2.3.3-.6.2q.3-.75-.25-1.45l-.3-.25-1.6.05-.35.85.2.5.15.5-2.45-.75-2.6-.75.9-1.25-.35-.7 5.75-.65 3.6 2.1h.2l4.05-1.4.1.6.55 1 .45.1 1.3-.95-.95-1.25 2.5-1.4 2.9.15 3.5-4.2m.95 6.95.05.5-.65.6 2.05 6.65-4.45-1.7-3.5 7.3-4.65-3.1-4.6 5.45-4.3-5.25-4.55 2.9-.05-.3.95-3.95q.4-2.25.5-4.5l-1.35-.95 5.7 1L4 28.3l4.2-10 4.75 6.95 1.75-4.15.25-.65 1.1-2.75 3.25 1.45 1.45.5-2.2-5.8 1.1-1m-29.85-1.6.95-1.4-.65-2.75-2.7-3.3.25-1.1-.1.75-.15.35 2.05 1.2 4 6.3-.3.05-.45.1-.1 1.25v.2l-2.8-1.65m7.3-3.5 3.25.9-1.05-.2-2.2-.7m14.45 0 .2-.05L15 7.45l1.35-1.1-1 1.45-3.8-.05m-7.1 4.5-.25.55-.95-1.65h.05l-.1-.1-.55-.95 1.8 2.15m4.2 7.95.05 2.75 4 2.6-3.05-3.4-1-1.95m-8.2-2.3-1 .1-.1 1.6 4.3 8-3.2-9.7m-14.8-19.45 3.35.3-.2.9v-.85l-3.15-.35M-11.3.1l-.45 2.05-.55-.05-.65.45-3.45-3.7L-11.3.1m1.05 3.75-1.3-.6-.8-.55 2.1 1.15m-.7 9.7-.95 2.95.6-2.75-.7-.6.6-.6 2.05 1.7-.1-.05-.2-.1-.75-.4q-.3-.15-.55-.25v.1m-1.1 3.75-.15 2.15-.05.4.05-.05-.05.45-.5.25.7-3.2m5.75-1.35-1.4.5.85 4.8-1.25-3.15-3.95 2.05 3.3-5.5 2.45 1.3m3.4 7.45q.3.35.8.35t.85-.35q.3-.35.3-.85t-.3-.85q-.35-.35-.85-.35t-.8.35q-.35.35-.35.85l.35.85" fill="#7adffd" transform="translate(17.65 2.15)"/><path d="m18.85 5.5-.15.4-3.5 4.2-2.9-.15-2.5 1.4h-.15l-1.3.5-4.05 1.4h-.2l-3.6-2.1-5.75.65-1.3-.5-4-6.3L-8 6.45l-.6-1.1 1.45 2.1.65.2 9.75 3.5.95 1.65.25-.55.2-.4q2.35-1.1 4.8-2 2.9-1.1 5.9-2.05l1-1.45.9-1q1.45-1.25 3.1-2.3l.05-.25.1.95-1.65 1.75M.35 8.65l1 .65 1.3.8.55.95-3.9-2.6 1.05.2m8.3 11.55 1 1.95 3.05 3.4-4-2.6-.05-2.75M-4.9 16.5l1.35.95q-.1 2.25-.5 4.5L-5 25.9l-1.3-9.1-1.15.1.8 5.5-.2-1.15-.85-4.8 1.4-.5.45-.15.95.7m5.35 1.4 3.2 9.7-4.3-8 .1-1.6 1-.1m-12-14.65-.65-.3-.25.5.1-.75.8.55m-.35 13.25.95-2.95-1.25 5.9.15-2.15.15-.8m2.45-2.3.1.05.6.4-3.3 5.5-.2.2v-.1l.05-.45 2.75-5.6" fill="#b5ecfe" transform="translate(17.65 2.15)"/><path d="m25-1.4-1.7.7-4-.55-.1-.05h.1l2.1-.5 3.6.4M-3.05 7.75h.15l2.2.7 3.9 2.6.1.1h-.05l-9.75-3.5 3.45.1m10.4 1.5q.3-.25.65-.3l3.55-1.2 3.8.05q-3 .95-5.9 2.05-2.45.9-4.8 2l.6-.85 2.1-1.75M-8.6 5.35l.6 1.1L-10.55 5l-2.05-1.2.15-.35.25-.5.65.3 1.3.6 1.65 1.5m16.95 6.5 1.3-.5.4 1.05-1.1.6-.5-.55-.1-.6m5.4.55.4-.9.9.1.4.3-.05 1.2-1.1-.05-.55-.65m-14.5 1 1.55.25q.5.2.4.5l-.75.45-1.35.15-.2-.5.35-.85m4.45 5.35.6-1 .35-.05.55 1.95H3.85l-.15-.9M-5 25.9l.05.3-1.7-3.8-.8-5.5 1.15-.1 1.3 9.1m18.8-7.2.45 1.8-1.4.3.2-2.25.75.15m-25-19.05-.1.45-5.1-1.25-.4-.65 2.45.25 3.15.35v.85m3.8 13.05.1-1.25.45-.1 1.25 1-.45.95-1.1-.25-.25-.35m-4.8 6.75 1.25-5.9v-.1q.25.1.55.25l.75.4.2.1-2.75 5.6-.05.05.05-.4m9 2.95.25-.6q.25-.3.6-.3t.6.3q.25.25.25.6l-.25.65-.6.25-.6-.25-.25-.65" fill="#fdfeff" transform="translate(17.65 2.15)"/><path d="m18.7 11.3 1.2-.6.15 1.7-.4.45-1.1 1 2.2 5.8-1.45-.5-3.25-1.45-1.1 2.75-1.15-1.75-.75-.15-.2 2.25.55.7 1.3-.4-1.75 4.15L8.2 18.3 4 28.3.8 17.5l-5.7-1-.95-.7-.45.15-2.45-1.3-.6-.4-2.05-1.7-.1-.4.15-1.45q.6.3 1.15.55l2.8 1.65.5.6 1.1.25 2.6.75-1.85-.1Q-3.3 16-1.1 16.8l2.9-.25q1.15-.55 1.75-1.6L2 14.85l2.3-.3 9.6-.8-7.25 1.75 6.5 1.65 3.2-1.75 3.5 3.1-1.7-5.8-3.05.75.95-.5 2.25-1.45.4-.2M4.3 17.75l-.4.3-.2.7.15.9.5.85L5.9 20l.15-.45-.7-1.6-.7-.25-.35.05" fill="#5fd4f4" transform="translate(17.65 2.15)"/><path d="m-6.55 11.3 1.3.5.35.7-.9 1.25-1.1-.25-.5-.6v-.2l.25.35 1.1.25.45-.95-1.25-1 .3-.05m16.2.05h.15l.95 1.25-1.3.95-.45-.1-.55-1 .5.55 1.1-.6-.4-1.05m5.4.25q.4 0 .7.4l.3.95-.95.5 3.05-.75 1.7 5.8-3.5-3.1-3.2 1.75-6.5-1.65 7.25-1.75.5-.05-.1-.05-.55-1.25.55.65 1.1.05.05-1.2-.4-.3m-15.8 1.8 1.6-.05.3.25q.55.7.25 1.45l.6-.2 1.55.1q-.6 1.05-1.75 1.6l-2.9.25q-2.2-.8-3.95-2.4l1.85.1 2.45.75-.15-.5 1.35-.15.75-.45q.1-.3-.4-.5l-1.55-.25m4.45 5.35.2-.7.4-.3-.6 1m.95-1.05.7.25.7 1.6-.15.45-1.55.5-.5-.85H5.2l-.55-1.95m10.3 2.75-.25.65-1.3.4-.55-.7 1.4-.3-.45-1.8 1.15 1.75M-2.9 23.4l-.35-.85q0-.5.35-.85.3-.35.8-.35t.85.35q.3.35.3.85t-.3.85q-.35.35-.85.35t-.8-.35m-.3-1 .25.65.6.25.6-.25.25-.65q0-.35-.25-.6-.25-.3-.6-.3t-.6.3l-.25.6" fill="#52b4d0" transform="translate(17.65 2.15)"/></g></defs></svg>