<?xml version="1.0" encoding="UTF-8" standalone="no"?>
<svg xmlns:xlink="http://www.w3.org/1999/xlink" height="82.0px" width="84.85px" xmlns="http://www.w3.org/2000/svg">
  <g transform="matrix(1.0, 0.0, 0.0, 1.0, 37.4, 42.25)">
    <use height="38.0" transform="matrix(1.0, 0.0, 0.0, 1.0, -11.95, -17.45)" width="32.05" xlink:href="#sprite0"/>
    <use height="38.95" transform="matrix(1.0, 0.0, 0.0, 1.0, -12.45, -17.95)" width="33.05" xlink:href="#sprite1"/>
    <use height="23.0" transform="matrix(1.0, 0.0, 0.0, 1.0, -13.45, 0.05)" width="35.2" xlink:href="#shape2"/>
  </g>
  <defs>
    <g id="sprite0" transform="matrix(1.0, 0.0, 0.0, 1.0, -0.05, 0.0)">
      <use height="38.0" transform="matrix(1.0, 0.0, 0.0, 1.0, 0.05, 0.0)" width="32.05" xlink:href="#shape0"/>
    </g>
    <g id="shape0" transform="matrix(1.0, 0.0, 0.0, 1.0, -0.05, 0.0)">
      <path d="M27.35 7.4 Q29.5 11.55 30.9 16.15 32.35 20.85 32.05 25.65 31.7 30.6 27.85 33.75 24.05 36.95 19.1 37.8 L16.5 38.0 Q12.9 38.0 9.45 36.85 4.8 35.25 2.35 31.35 -0.2 27.4 0.05 23.0 0.25 18.6 2.05 13.7 3.85 8.75 7.0 5.05 10.1 1.3 14.7 0.1 L16.5 0.0 Q18.4 0.05 20.2 0.8 24.95 2.85 27.35 7.4" fill="#c17745" fill-rule="evenodd" stroke="none"/>
    </g>
    <g id="sprite1" transform="matrix(1.0, 0.0, 0.0, 1.0, 0.45, 0.5)">
      <use height="38.95" transform="matrix(1.0, 0.0, 0.0, 1.0, -0.45, -0.5)" width="33.05" xlink:href="#shape1"/>
    </g>
    <g id="shape1" transform="matrix(1.0, 0.0, 0.0, 1.0, 0.45, 0.5)">
      <path d="M27.35 7.4 Q24.95 2.85 20.2 0.8 17.55 -0.3 14.7 0.1 10.1 1.3 7.0 5.05 3.85 8.75 2.05 13.7 0.25 18.6 0.05 23.0 -0.2 27.4 2.35 31.35 4.8 35.25 9.45 36.85 14.1 38.4 19.1 37.8 24.05 36.95 27.85 33.75 31.7 30.6 32.05 25.65 32.35 20.85 30.9 16.15 29.5 11.55 27.35 7.4 Z" fill="none" stroke="#000000" stroke-linecap="round" stroke-linejoin="round" stroke-width="1.0"/>
    </g>
    <g id="shape2" transform="matrix(1.0, 0.0, 0.0, 1.0, 13.45, -0.05)">
      <path d="M18.4 14.05 L18.95 15.1 Q19.8 16.85 18.5 18.35 19.0 22.0 14.95 22.65 L13.7 21.4 Q8.65 24.5 3.85 21.75 L3.15 21.75 Q-3.1 24.85 -9.55 20.5 -13.9 17.55 -10.75 13.05 L-10.85 14.7 Q-11.95 18.8 -7.5 20.25 L-4.9 21.1 -2.25 21.95 -3.7 21.35 -3.25 21.35 -4.2 20.9 Q-3.4 20.6 -2.65 20.15 0.2 18.3 3.6 18.25 L4.25 18.2 4.3 18.2 4.45 18.25 6.7 20.95 4.95 21.0 Q9.25 23.9 14.2 20.35 L15.0 21.7 16.25 21.3 17.15 20.75 Q18.1 19.8 17.85 18.5 L17.7 17.9 16.7 14.45 16.9 14.3 Q17.15 14.15 17.45 14.05 18.45 16.1 17.85 18.35 L18.6 17.4 18.4 14.05 M14.15 20.25 L11.4 20.6 10.15 20.6 Q11.45 19.75 11.55 18.1 L11.65 17.15 12.9 16.65 14.15 20.25" fill="#000000" fill-rule="evenodd" stroke="none"/>
      <path d="M19.2 0.65 Q17.5 1.0 16.3 1.95 12.05 5.3 6.75 6.45 12.65 3.05 18.9 0.05 L19.2 0.65 M6.55 6.55 L4.3 10.4 2.15 6.7 -1.75 5.05 -10.9 0.7 Q-9.55 0.6 -8.3 1.3 -6.25 2.5 -4.0 3.05 1.4 4.35 4.4 8.4 5.25 7.2 6.45 6.55 L6.55 6.55" fill="#945b37" fill-rule="evenodd" stroke="none"/>
      <path d="M20.9 6.65 Q21.25 4.75 20.95 2.8 L20.7 1.85 20.25 1.4 19.0 1.65 Q13.85 5.2 7.7 6.9 L7.05 7.0 4.9 11.05 4.85 11.15 4.65 11.1 Q3.75 10.95 3.0 10.15 L1.9 8.0 1.3 7.1 Q-4.3 5.55 -9.7 2.2 L-10.95 1.65 -12.0 1.6 Q-12.75 3.15 -12.65 4.9 L-12.55 5.85 -12.55 5.9 -13.25 5.4 Q-14.1 1.9 -11.4 0.8 L-10.9 0.7 -1.75 5.05 2.15 6.7 4.3 10.4 6.55 6.55 6.55 6.45 6.75 6.45 Q12.05 5.3 16.3 1.95 17.5 1.0 19.2 0.65 L20.9 0.85 Q21.9 2.4 21.75 4.2 L21.6 5.75 20.9 6.65" fill="#00232a" fill-rule="evenodd" stroke="none"/>
      <path d="M8.55 7.55 Q13.2 6.8 16.95 4.15 L18.0 3.35 21.0 3.85 20.7 1.85 20.95 2.8 Q21.25 4.75 20.9 6.65 L20.55 7.8 20.85 4.35 Q20.25 4.8 19.6 5.2 13.4 8.85 6.4 10.1 L8.55 7.55 M20.25 1.4 L19.45 1.65 19.0 1.65 20.25 1.4 M-12.55 5.85 L-12.65 4.9 Q-12.75 3.15 -12.0 1.6 L-12.55 3.85 -9.55 3.35 -4.5 6.3 Q-8.1 4.35 -12.25 3.85 L-11.35 4.85 -9.05 6.9 -10.25 6.35 -12.4 5.1 -12.55 5.85 M1.9 8.0 L3.0 10.15 0.75 9.9 0.65 9.85 -0.7 7.75 -3.3 6.85 1.9 8.0 M4.85 11.15 L4.9 11.05 4.9 11.1 4.85 11.15 M-10.1 11.55 L-11.4 9.0 -4.2 11.75 -9.0 10.1 -8.35 11.6 -9.95 10.95 -10.1 11.55" fill="#dbecfe" fill-rule="evenodd" stroke="none"/>
      <path d="M18.5 13.0 L18.4 14.05 18.6 17.4 17.85 18.35 Q18.45 16.1 17.45 14.05 L18.05 13.7 18.25 13.2 18.5 13.0 M-10.75 13.05 L-10.65 12.45 -5.35 16.45 -2.05 17.6 3.6 18.25 Q0.2 18.3 -2.65 20.15 -3.4 20.6 -4.2 20.9 L-7.95 18.8 -7.6 16.3 -8.05 15.9 -8.75 15.2 -9.9 14.1 -10.6 14.15 -10.85 14.7 -10.75 13.05 M4.45 18.25 L7.15 18.05 11.65 17.15 11.55 18.1 Q11.45 19.75 10.15 20.6 L11.4 20.6 6.7 20.95 4.45 18.25 M-3.7 21.35 L-2.25 21.95 -4.9 21.1 -3.7 21.35" fill="#211909" fill-rule="evenodd" stroke="none"/>
      <path d="M-4.2 20.9 L-3.25 21.35 -3.7 21.35 -4.9 21.1 -7.5 20.25 Q-11.95 18.8 -10.85 14.7 L-10.6 14.15 -9.9 14.1 -8.75 15.2 -10.35 17.65 -9.7 18.35 -8.05 15.9 -7.6 16.3 -7.95 18.8 -4.2 20.9 M14.2 20.35 Q9.25 23.9 4.95 21.0 L6.7 20.95 11.4 20.6 14.15 20.25 14.25 20.2 14.2 20.35" fill="#5c4726" fill-rule="evenodd" stroke="none"/>
      <path d="M18.85 11.55 L18.45 12.65 18.5 11.7 15.85 12.65 15.3 12.3 11.4 13.6 Q13.0 11.05 15.85 11.65 L16.35 11.95 19.25 10.45 18.85 11.55 M-10.15 11.7 L-10.1 11.55 -9.95 10.95 -8.35 11.6 -7.8 11.85 Q-1.65 14.5 5.25 14.45 L9.3 14.05 6.7 14.65 Q-2.05 15.5 -10.15 11.7 M18.25 13.2 L18.05 13.7 17.45 14.05 Q17.15 14.15 16.9 14.3 L18.1 13.35 18.25 13.2" fill="#39525a" fill-rule="evenodd" stroke="none"/>
      <path d="M18.45 12.65 L18.5 13.0 18.25 13.2 18.1 13.35 17.75 12.85 16.5 13.85 16.7 14.45 17.7 17.9 15.65 13.0 16.6 16.4 Q17.6 19.35 15.4 21.3 L17.15 20.75 16.25 21.3 15.0 21.7 14.2 20.35 14.25 20.2 14.15 20.25 12.9 16.65 12.6 15.45 11.1 16.0 Q2.95 18.8 -5.35 16.45 L-10.65 12.45 -10.6 11.5 -10.15 11.7 Q-2.05 15.5 6.7 14.65 L9.3 14.05 11.4 13.6 15.3 12.3 15.85 12.65 18.5 11.7 18.45 12.65 M4.45 18.25 L4.3 18.2 7.15 18.05 4.45 18.25 M4.25 18.2 L3.6 18.25 -2.05 17.6 4.25 18.2" fill="#ff3d2b" fill-rule="evenodd" stroke="none"/>
      <path d="M16.7 14.45 L16.5 13.85 17.75 12.85 18.1 13.35 16.9 14.3 16.7 14.45" fill="#892116" fill-rule="evenodd" stroke="none"/>
      <path d="M20.7 1.85 L21.0 3.85 18.0 3.35 16.95 4.15 Q13.2 6.8 8.55 7.55 L8.8 7.25 Q15.05 5.85 20.0 1.65 L19.45 1.65 20.25 1.4 20.7 1.85 M6.4 10.1 Q13.4 8.85 19.6 5.2 20.25 4.8 20.85 4.35 L20.55 7.8 20.35 8.25 Q12.9 11.75 4.65 12.55 L4.0 12.75 0.75 9.9 3.0 10.15 Q3.75 10.95 4.65 11.1 L4.85 11.15 4.9 11.1 5.95 10.8 6.4 10.1 M-12.55 5.9 L-12.55 5.85 -12.4 5.1 -10.25 6.35 -12.25 5.85 -11.6 8.9 -12.35 8.65 -12.55 5.9 M-12.0 1.6 L-10.95 1.65 -11.45 1.65 Q-5.65 6.05 1.3 7.1 L1.9 8.0 -3.3 6.85 -4.2 6.5 -4.5 6.3 -9.55 3.35 -12.55 3.85 -12.0 1.6" fill="#3892ab" fill-rule="evenodd" stroke="none"/>
      <path d="M19.45 1.65 L20.0 1.65 Q15.05 5.85 8.8 7.25 L7.85 7.35 7.05 7.0 7.7 6.9 Q13.85 5.2 19.0 1.65 L19.45 1.65 M-10.95 1.65 L-9.7 2.2 Q-4.3 5.55 1.3 7.1 -5.65 6.05 -11.45 1.65 L-10.95 1.65" fill="#4fd5f8" fill-rule="evenodd" stroke="none"/>
      <path d="M20.35 8.25 L18.85 11.55 19.25 10.45 16.35 11.95 15.85 11.65 Q13.0 11.05 11.4 13.6 L9.3 14.05 5.25 14.45 Q-1.65 14.5 -7.8 11.85 L-8.35 11.6 -9.0 10.1 -4.2 11.75 -1.2 12.35 4.05 12.75 4.0 12.75 4.05 12.75 -1.2 12.35 -4.2 11.75 -11.4 9.0 -11.6 8.9 -12.25 5.85 -10.25 6.35 -9.05 6.9 Q-6.8 8.5 -4.0 9.15 L0.65 9.85 0.75 9.9 4.0 12.75 4.65 12.55 Q12.9 11.75 20.35 8.25 M5.25 14.45 L4.05 12.75 5.25 14.45" fill="#40a9c5" fill-rule="evenodd" stroke="none"/>
      <path d="M8.55 7.55 L6.4 10.1 5.95 10.8 4.9 11.1 4.9 11.05 7.05 7.0 7.85 7.35 8.8 7.25 8.55 7.55 M-3.3 6.85 L-0.7 7.75 0.65 9.85 -4.0 9.15 Q-6.8 8.5 -9.05 6.9 L-11.35 4.85 -12.25 3.85 Q-8.1 4.35 -4.5 6.3 L-4.2 6.5 -3.3 6.85" fill="#f4f9ff" fill-rule="evenodd" stroke="none"/>
      <path d="M7.15 18.05 L4.3 18.2 4.25 18.2 -2.05 17.6 -5.35 16.45 Q2.95 18.8 11.1 16.0 L12.6 15.45 12.9 16.65 11.65 17.15 7.15 18.05 M17.15 20.75 L15.4 21.3 Q17.6 19.35 16.6 16.4 L15.65 13.0 17.7 17.9 17.85 18.5 Q18.1 19.8 17.15 20.75" fill="#9d261a" fill-rule="evenodd" stroke="none"/>
      <path d="M-8.75 15.2 L-8.05 15.9 -9.7 18.35 -10.35 17.65 -8.75 15.2" fill="#e7d6ba" fill-rule="evenodd" stroke="none"/>
    </g>
  </defs>
</svg>
