<svg xmlns:xlink="http://www.w3.org/1999/xlink" height="82" width="84.85" xmlns="http://www.w3.org/2000/svg"><g transform="translate(37.4 42.25)"><use height="38" transform="translate(-11.95 -17.45)" width="32.05" xlink:href="#a"/><use height="38.95" transform="translate(-12.45 -17.95)" width="33.05" xlink:href="#b"/><use height="38.1" transform="translate(-13.1 -12.15)" width="34.95" xlink:href="#c"/></g><defs><path d="M27.35 7.4q2.15 4.15 3.55 8.75 1.45 4.7 1.15 9.5-.35 4.95-4.2 8.1-3.8 3.2-8.75 4.05l-2.6.2q-3.6 0-7.05-1.15-4.65-1.6-7.1-5.5Q-.2 27.4.05 23q.2-4.4 2-9.3Q3.85 8.75 7 5.05 10.1 1.3 14.7.1l1.8-.1q1.9.05 3.7.8 4.75 2.05 7.15 6.6" fill="#fdcedb" fill-rule="evenodd" transform="translate(-.05)" id="d"/><path d="M27.35 7.4Q24.95 2.85 20.2.8 17.55-.3 14.7.1 10.1 1.3 7 5.05q-3.15 3.7-4.95 8.65-1.8 4.9-2 9.3-.25 4.4 2.3 8.35 2.45 3.9 7.1 5.5 4.65 1.55 9.65.95 4.95-.85 8.75-4.05 3.85-3.15 4.2-8.1.3-4.8-1.15-9.5-1.4-4.6-3.55-8.75Z" fill="none" stroke="#4d0026" stroke-linecap="round" stroke-linejoin="round" transform="translate(.45 .5)" id="e"/><use height="38" width="32.05" xlink:href="#d" id="a"/><use height="38.95" width="33.05" xlink:href="#e" id="b"/><g id="c"><path d="M15.15-1.25Q10.35.45 10.95 6l.1.35q6.25 2.9 7.05-2.9.4-2.8-.9-5.05l-2.05.35M-1.6 7.5q-7.85 3.3-8.85-4.05-.25-1.65.2-3.3l1.1-3.45Q-.1-1.8-1.45 7l-.15.5m-1.8-1.05.1-.25Q-1.9-.75-9-1.95l-1.15 6.8Q-9.5 6-8 6.5q2.25.85 4.6-.05M19.15 3.9q.05 5.15-5.65 4.95-4.4.6-4.35-3.25Q9.3-2.05 17.4-3q1.7 3.2 1.75 6.9" fill="#fdbcce" fill-rule="evenodd" transform="translate(13.1 12.15)"/><path d="m15.15-1.25 2.05-.35q1.3 2.25.9 5.05-.8 5.8-7.05 2.9l-.1-.35q-.6-5.55 4.2-7.25M-3.4 6.45q-2.35.9-4.6.05-1.5-.5-2.15-1.65L-9-1.95q7.1 1.2 5.7 8.15l-.1.25" fill="#fcb1ce" fill-rule="evenodd" transform="translate(13.1 12.15)"/><path d="m9.3-11.15 4.95.2L16.5-6.3Q13-1.25 8.1-3.55q-4.8-2.25-9.7.7-1.7 1-3.15-.2L-8.5-6.2l2.6-4.35 4.55-.7q1.8.35 3.15 1.6 1.75 1.7 2.05 4.25l.25-1.05q1.2-3.4 5.2-4.7" fill="#fe7ebe" fill-rule="evenodd" transform="translate(13.1 12.15)"/><path d="m-1.35-11.25-1.15-.05q6.1-1.65 12.3-.1l-.5.25q-4 1.3-5.2 4.7L3.85-5.4q-.3-2.55-2.05-4.25-1.35-1.25-3.15-1.6" fill="#fdcedb" fill-rule="evenodd" transform="translate(13.1 12.15)"/><path d="m20.6 6.15.45.6.5-1.85q.65 5.55-2.35 10.2l.5.65q1.9 2.75 1.75 6.5l-.4 1.1-.55-1.25q-.25-3.3-1.85-5.95l-.45-.6.55-1.8.85-2.2 1-5.4m-2.05 15.5-.45-1.15-.4 1.8-.95.5 1.35-5.45 1.75 5-.2.05-1.1-.75m-27.7.25-.35-1.3-.55 1.45-.95.45-.25-.1 1.65-4.55 1.4 4.85-.95-.8m-3.6.35q-.1-4.1 2.2-7.15-2.6-4.25-2.45-9.4l.35.75.15.3.55 1.3-.3-1.65.3-.35.1 1.25.15 1.4 1.95 7.05-.4.5q-1.55 2.7-1.7 5.9l-.55 1.35-.35-1.25m1.7-13.5.1.75-.2-.75h.1m-.05-2.35-.1.05-.05-.25.15.05v.15m-.25.1-.35.25-.2-.8.2-.25-.05.25.4.2v.35" fill="#005c6d" fill-rule="evenodd" transform="translate(13.1 12.15)"/><path d="m19.9 2.6.1-1.3q1.95.65 1.7 2.65l-.15.95-.5 1.85-.45-.6.25-1.15-.1-.6v-1l-.55-.7-.1-.05-.05-.05h-.15m-32.55 3.85-.45-3.95 1.65-1.2.15 1.25h-.2q-1.1 1.1-.65 2.4l.5.55-.05.2-.2.25-.15-.55.1.65-.3.35-.25.35-.15-.3" fill="#003c47" fill-rule="evenodd" transform="translate(13.1 12.15)"/><path d="m-11.75 5.95.05-.25.05-.2-.1.45.1-.45.3.65-.4-.2m.65.3-.15-.05.05-.05.1.1" fill="#008a9a" fill-rule="evenodd" transform="translate(13.1 12.15)"/><path d="m20.1 2.65.1.05.55 1.7.1.6-.25 1.15-1 5.4-.95-1.15q-.9-.95-2.25-.95l1.65 3.05H16.9l-.45-.8q-.6-.85-1.6-1.4l-.55-.15 1.8-.9q2.85-1.6 4.75-4.25l-1.1.8-.1-1.35-.75-.35.8-1.2.3-.25h.1m-31.4-.1.05.05q4.8 5.8 12.65 7.6 1.65.4 1.75 2.25l-.8.05-1.95-.65q0-.35-.5-.6l-.65-.2-.15-.1-.45.05-.05.05-.2.1q-4.25-1.35-7.7-4.1l-2.85-2.1q-.45-1.3.65-2.4h.2m31.15.05h.05l-.05.05V2.6m.65 19.5-.65.25-1.75-5-1.35 5.45-.2.3Q8.1 24.8-.4 23.85l-7.5-1.3-.55-.95.35 1.2-.1-.1-1.4-4.85-1.65 4.55-.6-.25q.15-3.2 1.7-5.9l.4-.5-1.95-7.05.55.05.2.75-.1-.75 4.5.9 1.05.5-1.5.55-.95.3-.25.8.25.8 1.45.1.45.4-.15-.8.05-.5.95-.45.4.2-.05 1.55q0 .4-.3.7l-.7.3-1.35-.55-.7.35-.95-4.55q-2.05 3.05.35 5.9l.45 1.4-1.05.95.1 1.2 1.55-1q1.05 1.5 2.8 1.95l.8.05.65 1.95q1.3.8 2.9.5L.45 22l.35.75.45.25h.8l.6-.6-.2-1.35 6.3.45.6 1.2q5 2.1 4.95-2.1l.6-.35q2.65-1.55 3.3-4.7l.45.6q1.6 2.65 1.85 5.95m-23.35-8.65-.3.05.05-.2.25.15m1.6 1.5.2.35-1.45-.2 1.25-.15m2.45.65.1-.85q2.2-.05 3.9-1.05l.2-.25 4.75-1.9 2.55-.8-.35.35q-.35 0-.55.4-.25.35-.25.9l-.3 1.6-1.5.7 1.55-.3q-1.9 1-3.95 1.2l-1.45.05.1 1.5q.1.95-.5 1.35l-.65.45-2.25-.45.8-.45.5-2.25-1.1.05-1.6-.25m4.7-4.75q.25-.25.55-.45 3.6-1.75 7.2-2.95l-.5.95q-1.65 2.25-4.25 3.35l-2.1.65-.6.25-.65.25.35-2.05m7.45.95 1.05-.05.9.3-1.05.55-.95-.2.05-.6m-12.1.5 1 .25-.25.05-.75-.3m11.1.65.4-.05v.1l-.2.4-.15.05-.05-.5m-1.9 8.45.8-.05.75.65.55-.4.15-.5.6-.2v.5l-1.8 1.1-1.05-1.1m8.3-7.65.15-.6.7-1.6-.85 2.2M.7 20.7l-2.4.1-.65-.4-.2-.55 3.25.85M-3.35 12l-1.25-1.5 2.4.8-.8.2q-.35.2-.35.5M-7.8 8.85l-3.3-2.45v-.15l-.1-.1-.05.05.05.25-.15.05v-.35l-.3-.65-.5-.55 4.35 3.9m-3.9-2.1-.15.55-.1-1.25-.1-.65.15.55.2.8" fill="#d4eff5" fill-rule="evenodd" transform="translate(13.1 12.15)"/><path d="m21.45 22.25.4 2.65-1.45.75-.4-.3-1.45-3.7 1.1.75.55 1.8.5.7.5-.95-.15-.6.4-1.1m-3.75.05q-1.6 3.65-9.1 3.65l-12.55-.65-3-.65.1-.4q11.7 1.6 23.1-.15l.3-.5q.65-1.05 0-.5l.2-.3.95-.5m-25.35 2.05Q-9 23.7-8.95 22.7l-.15-.6-.05-.2.95.8.1.1.45 1.55m-2.4-2.3-1.35 3.4-.35.25-1.1-.3-.15-.4q-.2-1.35.25-2.75l.35 1.25.1.9.7.05.6-1.95.95-.45" fill="#400905" fill-rule="evenodd" transform="translate(13.1 12.15)"/><path d="m14.3 10.15.55.15q1 .55 1.6 1.4-.4.2-.75.35h-.4l-.9-.3-1.05.05-.3-.5-.7-.2.35-.35 1.6-.6M11.25 14l.3-1.6.25.4.55.15.05.5-1.15.55m1.5-1.1.55-.5.95.2-1.45.65-.05-.25v-.1m-2.4 8.35.1.15 1.05 1.1 1.8-1.1v-.5l.95-.45.05.15q.05 4.2-4.95 2.1l-.6-1.2v-.05l1.6-.2m.9.1-.05-.15 1.5-.15v.05l-.15.5-.55.4-.75-.65m-8.55-1.6-.4 1.2q-.75 0-1.3.3T.45 22l-.75.25q-1.6.3-2.9-.5l-.65-1.95-.05-.1 1.55.7.65.4 2.4-.1.05-.15 1.95-.8m-9.2-7.05.3-.4.15.8-.45-.4m.35-.9q0-.45-.25-.75-.25-.35-.6-.35l1.5-.55.9.35 1.25 1.5.25 1.3-1.75-.2.05-1.55-.4-.2-.95.45" fill="#4cdaf4" fill-rule="evenodd" transform="translate(13.1 12.15)"/><path d="M18.05 12.5 16.4 9.45q1.35 0 2.25.95l.95 1.15-.7 1.6-.85-.65" fill="#74cee1" fill-rule="evenodd" transform="translate(13.1 12.15)"/><path d="m16.45 11.7.45.8.05.2-1.25-.65q.35-.15.75-.35m-19.6 1.8-1.3.2-.6.5-.25.25h-.25l-.3-.35.7-.3q.3-.3.3-.7l1.75.2-.05.2m13.25 4.6 2-1.85-.65.7q-1.55 1.9-1.1 4.3l-1.6.2.75-2.6.6-.75m1.1 3.1L11 20l1.15-1.05.6.05q1.1.35 1.5 1.45l-.95.45-.45-1.4-.15 1.55-1.5.15M.75 20.55q.55-.65.25-1.4l-.35-.8-.75.05-.15 1.6-.65-1-.4-1.1.35-.25q2.55-.85 3.65 2.1l-1.95.8m-3.1-.15-1.55-.7q-.2-1.9.7-3.3l.15-.1.5 3.55.2.55m18.8-7.3.55-.35.75 2.95-1.3-2.6m-1.1.4-.05 1.05-.25.3q-2 1.7-3.75-.45l1.3-.25.05.15 1.5.15-.85-.45 2.05-.5m-23.3 1.55.1.4-.65-.2q-2.4-2.85-.35-5.9l.95 4.55-.05 1.15" fill="#34bed6" fill-rule="evenodd" transform="translate(13.1 12.15)"/><path d="m20.05 2.6.05.05H20l.05-.05m.15.1.55.7v1l-.55-1.7m-1.3 1.4.75.35.1 1.35-2.65 1.8q-3.85 2.6-8.2 4.15 2.6-1.1 4.25-3.35l.5-.95 1.4-.45q2.25-.85 3.85-2.9m-2 8.4h1.15l.85.65-.15.6-.55 1.8q-.65 3.15-3.3 4.7l-.6.35-.05-.15q-.4-1.1-1.5-1.45l-.6-.05L11 20l.2 1.2.05.15-.8.05-.1-.15q-.45-2.4 1.1-4.3l.65-.7-2 1.85-.2-.7-.65-.25-.3.05-.3.7v.75l.85.2-.75 2.6v.05l-6.3-.45-.15-.1.4-1.2q-1.1-2.95-3.65-2.1l-.35.25.4 1.1.65 1 .15-1.6.75-.05.35.8q.3.75-.25 1.4l-.05.15-3.25-.85-.5-3.55-.15.1q-.9 1.4-.7 3.3l.05.1-.8-.05q-1.75-.45-2.8-1.95l.55-.45q.75 1.05 1.85 1l.75-.35q.25-.55 0-1.25l-.4-1.05.3-.15.1.3q.35.55 1.1.25l.2-.4 2.65.3.5.05h.4l2.25-.2 1.1-.05-.5 2.25-.8.45 2.25.45.65-.45q.6-.4.5-1.35l-.1-1.5 1.45-.05q2.05-.2 3.95-1.2 1.75 2.15 3.75.45l.25-.3.05-1.05 1.1-.4 1.3 2.6-.75-2.95-.05-.05-.05-.2m-16 .35-.35-.75.7.2.75.3-1.1.25m9.25-1.3-4.75 1.9.15-.55.65-.25 3.95-1.1m6.7 3.7q-.35-.35-.85-.35t-.8.35q-.35.3-.35.8t.35.85l.8.3.85-.3.3-.85-.3-.8m-4.25-1.1.7-.15.85.45-1.5-.15-.05-.15m.15-1.15.05.25-.25.15.2-.4m-.05 8.1v-.05l.15-1.55.45 1.4-.6.2M-6.55 9.65l-4.5-.9h-.1l-.55-.05-.15-1.4.15-.55.35-.25.15-.05.1-.05 3.3 2.45 1.25.8m-1.3 5.8.3.8-.5.4-.45-1.4.65.2" fill="#a5dfeb" fill-rule="evenodd" transform="translate(13.1 12.15)"/><path d="m19.8 2.65.05-.05v.05l-.15.25-.8 1.2Q17.3 6.15 15.05 7l-1.4.45q-3.6 1.2-7.2 2.95-.3.2-.55.45L4.6 13.8l-3.3.95-.1.85-.2.15.2-1.8-1.3 1.4-1.35-.85 1.6 1.55-.5-.05-.7-.7-.2-.35h-3.2l1-.5-.05-.7-1.55.45.6-.5 1.3-.2.3-.05 1.1-.45.1.5.75-1.25.8-.1.75.65-.4-1-1-.75.65.2q.5.25.5.6l.15.25.35.75 2.25-.4q-.1-1.85-1.75-2.25-7.85-1.8-12.65-7.6l6.4 3.35 8.2 3.25 1 .85 1.6-1.35q3.85-.85 7.3-2.55l.55-.35 6-3.15m1.4 21.3-.5.3-.5-.05-.55-1.8.2-.05.65-.25.55 1.25.15.6m-4.65-.85q.65-.55 0 .5l-.3.5q-11.4 1.75-23.1.15l-1.05-1.7 7.5 1.3q8.5.95 16.95-.75m-28.4-.95.6.25.25.1-.6 1.95-.7-.05-.1-.9.55-1.35m10.45-11.1-.35 1.2v-.85l.15-.25.2-.1m-3.9 3.4.45.8.4-.25-.25.7.4 1.05q.25.7 0 1.25l-.75.35q-1.1.05-1.85-1L-9 18.8l-.1-1.2 1.55-1.35-.3-.8-.1-.4.4.8.1-1.3 1.9-.1-1.65-.9 1.35.55.3.35h.25m.7 1.55-.35 1.3-1.85.15q1.4 1.5 2.55.1L-4.6 16" fill="#de3725" fill-rule="evenodd" transform="translate(13.1 12.15)"/><path d="M19.9 2.6h.15l-.05.05-.3.25.15-.25.05-.05m-31.15 0q1.65.7 3.4 1 7.2 1.75 12.2 6.2.25-.4.65-.65l.9-.5.05.05-1.6 1.35-1-.85Q.25 7.35-3.2 6.35l-1.65-.4-6.4-3.35m17.6 5.85q6.4-3.4 13.45-5.8l-6 3.15Q9.95 6.95 6.35 8.45M20.2 24.2l.5.05.5-.3-.5.95-.5-.7m-24.65-9.25h3.2l-1.25.15-1.55.3-.35.15-.3.15.25-.7v-.05m4.6 1.1-1.6-1.55 1.35.85 1.3-1.4-.2 1.8-.45.3h-.4m1.15-1.3 3.3-.95 1.3-2.95-.35 2.05-.15.55-.2.25q-1.7 1-3.9 1.05m-8.2 2.6-.55.45-1.55 1 2.1-1.45M-4.6 16l.35 1.55q-1.15 1.4-2.55-.1l1.85-.15.35-1.3" fill="#912318" fill-rule="evenodd" transform="translate(13.1 12.15)"/><path d="m19.75 5.8 1.1-.8q-1.9 2.65-4.75 4.25l-1.8.9-1.6.6-2.55.8-3.95 1.1.6-.25 2.1-.65q4.35-1.55 8.2-4.15l2.65-1.8M.55 12.1l-.15-.25 1.95.65-.1.05-1-.25-.7-.2m-6.05-1.95-1.05-.5-1.25-.8-4.35-3.9 2.85 2.1q3.45 2.75 7.7 4.1l-.15.25-.45-.1-2.4-.8-.9-.35" fill="#66b0bf" fill-rule="evenodd" transform="translate(13.1 12.15)"/><path d="m-1.75 13-1.1.45-.25-.15-.25-1.3q0-.3.35-.5l.8-.2.45.1V13m13.3-.6q0-.55.25-.9.2-.4.55-.4l.7.2.3.5-.05.6-.55.5-.4.05-.55-.15-.25-.4M2.3 20.95l.15.1.2 1.35-.6.6h-.8l-.45-.25L.45 22q0-.45.55-.75t1.3-.3m-8.8-8.25-1.45-.1-.25-.8.25-.8.95-.3q.35 0 .6.35.25.3.25.75l-.05.5-.3.4" fill="#fffbcd" fill-rule="evenodd" transform="translate(13.1 12.15)"/><path d="m9.5 18.85-.85-.2v-.75l.3-.7.3-.05.65.25.2.7-.6.75m7.35-3.6.3.8-.3.85-.85.3-.8-.3q-.35-.35-.35-.85t.35-.8q.3-.35.8-.35t.85.35M-3 15.7l-.2.4q-.75.3-1.1-.25l-.1-.3.35-.15 1.05.3" fill="#bfecf6" fill-rule="evenodd" transform="translate(13.1 12.15)"/><path d="m-6.95 24.65-.05.2-.55-.05-.1-.45-.45-1.55-.35-1.2.55.95 1.05 1.7-.1.4" fill="#ff685f" fill-rule="evenodd" transform="translate(13.1 12.15)"/><path d="M5.9 8.65V8.6l.45-.15q3.6-1.5 7.45-2.65l-.55.35Q9.8 7.85 5.95 8.7l-.05-.05m-2.55.55-8.2-3.25 1.65.4q3.45 1 6.55 2.85m-.2 3.25-2.25.4L2 12.6l.25-.05.1-.05.8-.05m-3.9-1.4 1 .75.4 1-.75-.65-.8.1-.75 1.25-.1-.5v-.75l.35-1.2.05-.05.45-.05.15.1m-4.3 3.15 1.55-.45.05.7-1 .5V15l-.4.25-.45-.8.25-.25m-2.15-.65 1.65.9-1.9.1-.1 1.3-.4-.8.05-1.15.7-.35m-.35 2.7L-9.1 17.6l1.05-.95.5-.4" fill="#ff726b" fill-rule="evenodd" transform="translate(13.1 12.15)"/><path d="m-1.05 15.3.7.7-2.65-.3-1.05-.3 1.55-.3 1.45.2m2.05.45.2-.15 1.6.25-2.25.2.45-.3m14.3-3.7h.4l1.25.65.05.05-.55.35-1.1.4-2.05.5-.7.15-1.3.25-1.55.3 1.5-.7 1.15-.55.15-.05.25-.15 1.45-.65 1.05-.55" fill="#fff" fill-rule="evenodd" transform="translate(13.1 12.15)"/><path d="m-11.75 5.95.1-.45m-.1.45.4.2m.1.05.15.05" fill="none" stroke="#008a9a" stroke-linecap="round" stroke-linejoin="round" transform="translate(13.1 12.15)"/></g></defs></svg>