<svg xmlns:xlink="http://www.w3.org/1999/xlink" height="82" width="84.85" xmlns="http://www.w3.org/2000/svg"><g transform="translate(37.4 42.25)"><use height="38" transform="translate(-11.95 -17.45)" width="32.05" xlink:href="#a"/><use height="21.6" transform="translate(-12.25 -17.95)" width="32.65" xlink:href="#b"/><use height="30.3" transform="translate(-14.55 .15)" width="37.7" xlink:href="#c"/><use height="22.95" transform="translate(4.2 4.45)" width="19.8" xlink:href="#d"/><use height="22.95" transform="matrix(-1 0 0 1 4.4 4.4)" width="19.8" xlink:href="#d"/><use height="21.35" transform="translate(-14.15 2.85)" width="36.55" xlink:href="#e"/></g><defs><use height="38" width="32.05" xlink:href="#f" id="a"/><use height="21.6" width="32.65" xlink:href="#g" id="b"/><use height="22.95" width="19.8" xlink:href="#h" id="d"/><g id="c" fill-rule="evenodd"><path d="M-6.05.45q.3-.3.75-.3.4 0 .7.3.3.3.3.75 0 .4-.3.7l-.7.3q-.45 0-.75-.3l-.3-.7.3-.75" transform="translate(14.55 -.15)"/><path d="M21.55 24.1H22l.05.1.15-.05q.4 0 .7.3l.25.65q.15.95-1.25 1.6h-.1l-.1.05-.75.05-.15-.05q-.45.5-1.25.7l-1 .05-.45-.2-1.55.8-.6-.1q-1.05 1.55-2.25.9l-.35-.2q-.95.8-2.05.55l-.35-.15q-1.1 1.4-2.55.75l-.3-.2q-.75.55-1.9.7h.1l-1.9-.25-2.05.35H2.3q-1.15-.2-1.8-.7l-.3.15q-1.2.45-2.3-.45l-.25-.25q-1.3.5-2.4-.45l-.3.2q-1.2.5-2.1-.7l-.05-.1h-.95q-.65-.15-1.35-.8l-.65.2-.7-.05-.7-.25-.4-.3-1.3-.15q-1.45-.65-1.3-1.65l.3-.65.05-.05.75.4-.1.6q0 .45.65.75.75.3 1.2-.3.2.75 1.05 1 .8.2 1.45-.3 1.45 1.65 2.25.55 1.15 2.15 2.3.7 1.2 1.6 2.6.45 1.2 2.1 2.75.6.5.85 1.85 1 1.35.15 1.65-.55.35.7 1.8.55 1.4-.2 1.9-1.05 1.6 1.45 2.8-.6 1.4 1.15 2.6-.5 1.1 1.45 2.2-.4l.25-.05q.7.65 1.85-.45l.5-.15 1.25.15q.8-.25 1-1 .5.6 1.2.25.7-.3.7-.75l-.2-1.05-.5-.2" fill="#4d92b7" transform="translate(14.55 -.15)"/><path d="m21.55 24.1.5.2.2 1.05q0 .45-.7.75-.7.35-1.2-.25-.2.75-1 1l-1.25-.15q1.85-.6 3.5-1.6L4.25 16.9l-2.05.8 2-.85 17.35 7.25m-3.95 2.75q-1.15 1.1-1.85.45l1.85-.45m-26.8-.25q-.65.5-1.45.3-.85-.25-1.05-1-.45.6-1.2.3-.65-.3-.65-.75l.1-.6 1 .5 3.25 1.25" fill="#bfd3dc" transform="translate(14.55 -.15)"/><path d="m18.1 26.7-.5.15-1.85.45-.25.05q-1.1 1.85-2.2.4-1.2 1.65-2.6.5-1.2 2.05-2.8.6-.5.85-1.9 1.05-1.45.15-1.8-.55-.3.7-1.65.55-1.35-.15-1.85-1-1.55 1.5-2.75-.6-1.4 1.15-2.6-.45-1.15 1.45-2.3-.7-.8 1.1-2.25-.55l-3.25-1.25-1-.5-.75-.4-.35-.2L2.2 17.7l2.05-.8 17.35 8.2q-1.65 1-3.5 1.6m-25.05.45 3.9.6q4.45-.1 7.5-3.5 2.55 2.65 6.2 3.3l4.3-.15.3-.05h.25-.25l-.3.05-4.3.15q-3.65-.65-6.2-3.3-3.05 3.4-7.5 3.5l-3.9-.6m21.9.25q-6.9.9-10.55-4.8-3.85 6.05-11.8 4.45l-1.8-.45 1.8.45q7.95 1.6 11.8-4.45 3.65 5.7 10.55 4.8" fill="#e1001a" transform="translate(14.55 -.15)"/></g><g id="h" fill-rule="evenodd"><path d="m12.45 1.5 3.6-1.45.35 2.5q.05 1.3-.55 2.3-.6 1-1.3 1.4.45 2.15 1.8 3.95 2.35 3.25 3.3 7.15.45 1.9-.9 2.7-4.05 2.45-8.85 2.9-4.5.35-7.2-3-3-3.8-2.7-8.75l.15.05Q0 15.5 2.5 19.2q.6.9 1.7 1.45 5.5 2.8 11.15-.45v-.4q-1.05-4.75-4.55-8.35v1.6l-.05 4.35Q9 14.7 7.6 11.95q-.25-.45-.05-.75 2.2-3.35 5.6-6.1l-.55 2.8.6.8-.3-1.25 1-.6.8-2.8q.55-1.75.5-2.7l-1.35.05-.2 1.1L11 4.3q-.95.4-1.85.95Q4.85 7.8 0 8.55V7.8l5.15-1.5.15-.5.85-.1q1.4-.35 2.4-1.1l.15-.15 2.7-.5.65-.8.55-.3.65-.65-.8-.7M13.4 9q2.45 4.85 3.25 10.3l1-.6q-.45-5.15-3.4-9.2h-.2L13.4 9" fill="#9c0c15" transform="translate(.05 -.05)"/><path d="m11 4.3 2.65-1.8.2-1.1 1.35-.05q.05.95-.5 2.7l-.8 2.8-1 .6.3 1.25-.6-.8.55-2.8q-3.4 2.75-5.6 6.1-.2.3.05.75Q9 14.7 10.75 17.4l.05-4.35v-1.6q3.5 3.6 4.55 8.35v.4q-5.65 3.25-11.15.45-1.1-.55-1.7-1.45Q0 15.5.15 11.25q5.05-.35 8.8-3.7Q10.4 6.2 11 4.3M13.4 9l.65.5h.2q2.95 4.05 3.4 9.2l-1 .6q-.8-5.45-3.25-10.3m-6.8 7.05Q4.2 17 2.75 15L1.7 13.45Q3 16.4 5.8 18.1l.8-2.05" fill="#bf0418" transform="translate(.05 -.05)"/><path d="m12.45 1.5.8.7-.65.65-.55.3.1-.4-.2-.7-.4-.25-2.5 1.65L8.8 3l-.45-.2L5.9 4.5 5.2 4 3.05 5.35l-.4-.5L5.2 3.6l.8.15 2.4-1.4.95.2q1.15-.55 2.4-.95l.7-.1M.05 6.15H0l1.05-.5-1 .5" fill="#82a7b6" transform="translate(.05 -.05)"/><path d="m2.65 4.85.4.5L5.2 4l.7.5 2.45-1.7.45.2.25.45 2.5-1.65.4.25.2.7-1.05.65-1.2.25h-.7l-1.55.8L6 4.8 3.65 5.85 3.1 5.7l-1.3.75-1.75-.3 1-.5 1.6-.8" fill="#fff" transform="translate(.05 -.05)"/><path d="m12.05 3.15-.65.8-2.7.5-.15.15q-1 .75-2.4 1.1l-.85.1-.15.5L0 7.8V6.15h.05l1.75.3 1.3-.75.55.15L6 4.8l1.65-.35 1.55-.8h.7l1.2-.25 1.05-.65-.1.4" fill="#bfd3dc" transform="translate(.05 -.05)"/><path d="M0 8.55q4.85-.75 9.15-3.3.9-.55 1.85-.95-.6 1.9-2.05 3.25-3.75 3.35-8.8 3.7L0 11.2V8.55m6.6 7.5-.8 2.05Q3 16.4 1.7 13.45L2.75 15q1.45 2 3.85 1.05" fill="#e1001a" transform="translate(.05 -.05)"/></g><g id="e" fill-rule="evenodd"><path d="M-5.35 21.45q-1.1-.1-.85-1.25.2-1.1 1.2-1.1 1.15 0 1 1.2-.2 1.35-1.35 1.15" fill="#f8a235" transform="translate(14.15 -2.85)"/><path d="M-6.8 23.25q-1-.2-.75-1.45.3-1.2 1.25-1.1 1.1 0 .9 1.35-.25 1.4-1.4 1.2" fill="#f8a235" transform="translate(14.15 -2.85)"/><path d="M-4.7 23.65Q-5.9 23.4-5.75 22q.3-1.3 1.45-1.2 1.3.1 1.15 1.55-.1 1.6-1.55 1.3m18.95-2.3q-1.25.1-1.35-1.2-.15-1.2.95-1.2 1.1.1 1.25 1.15.2 1.15-.85 1.25" fill="#f8a235" transform="translate(14.15 -2.85)"/><path d="M15.65 23.1q-1.15.3-1.35-1.15-.15-1.3.9-1.4 1-.1 1.2 1.1.3 1.3-.75 1.45" fill="#f8a235" transform="translate(14.15 -2.85)"/><path d="M13.6 23.5q-1.4.25-1.6-1.3-.2-1.45 1.2-1.55 1.25 0 1.4 1.25.3 1.4-1 1.6m-25.25-3.25q-.9-.35-.45-1.45.45-1.05 1.35-.85 1.1.25.6 1.5-.55 1.15-1.5.8" fill="#f8a235" transform="translate(14.15 -2.85)"/><path d="M-13.2 21.5q-.7-.45-.35-1.5.45-1.1 1.25-.75.95.4.45 1.55-.45 1.15-1.35.7" fill="#f8a235" transform="translate(14.15 -2.85)"/><path d="M-11.6 22.35q-.95-.5-.5-1.7.55-1.15 1.5-.8 1.1.45.65 1.75-.5 1.3-1.65.75m31.8-2.2q-1 .35-1.45-.85-.55-1.2.55-1.45.9-.25 1.35.85.45 1-.45 1.45" fill="#f8a235" transform="translate(14.15 -2.85)"/><path d="M21.75 21.35q-.9.45-1.35-.7-.55-1.15.45-1.55.8-.25 1.25.8.45 1-.35 1.45" fill="#f8a235" transform="translate(14.15 -2.85)"/><path d="M20.15 22.25q-1.15.55-1.6-.75-.55-1.35.6-1.75.95-.35 1.5.8.45 1.2-.5 1.7" fill="#f8a235" transform="translate(14.15 -2.85)"/><path d="M-6.7 20.2v-.1q.3-1.55 1.7-1.5.85 0 1.2.5.4.4.3 1.25v.15q1 .35.85 1.9-.05 1.05-.6 1.45-.55.5-1.55.3-.65-.15-1-.5l-1.1.1q-1.5-.25-1.15-2.05H-8q.3-1.4 1.3-1.5m-3.95-2.75v.05q.85.15 1.1.8.2.5-.1 1.35l-.05.05-.05.1q.7.65.3 1.95v.05q-.35.85-.95 1.1l-1.4-.1q-.35-.3-.75-.65l-.9-.2q-1.05-.65-.55-2.1v-.05q.5-1.3 1.45-1.15v-.05q.6-1.45 1.9-1.15m24.5 1h.05q1.5.15 1.7 1.6 1.05.1 1.3 1.55v-.05q.2.85-.1 1.35-.25.6-1.05.7h.05l-1.05-.05-1.1.45h.05q-.95.15-1.5-.3-.55-.4-.7-1.4-.2-1.6.9-1.95v-.2q-.1-.8.3-1.2.3-.5 1.15-.5m7.15.25.25.25.05.15q.5.05.8.8.45 1-.35 1.45l-.45.15q-.1.75-.9 1.2l-1.4.1q-.6-.25-.9-1.1-.7-1.75.7-2.35l-.05-.05q-.55-1.2.55-1.45.9-.25 1.35.85H21" fill="#f19300" transform="translate(14.15 -2.85)"/><path d="M14.85 22.7q-.2.6-1 .75-1.35.3-1.55-1.3-.1-1.3 1-1.45l-.15-.55q-.2-1.25.95-1.15 1 0 1.25 1.1l.05.45q1-.1 1.25 1.1.3 1.25-.75 1.4-.7.15-1.05-.35m7.05-1.45-.9-.05q-.05.55-.65.9-1.1.6-1.55-.75-.5-1.15.45-1.6l-.3-.5q-.45-1.2.55-1.45.95-.25 1.35.8l.15.5.05-.05q.85-.3 1.2.75.45 1-.35 1.45m-32.6-1.35q.9.4.5 1.6-.6 1.35-1.6.7-.6-.3-.65-.9l-.9.05q-.8-.35-.35-1.45.4-1.05 1.2-.7l.05.05.15-.5q.45-1 1.35-.85 1 .25.55 1.45l-.3.55m3.65 3.3q-.95-.25-.7-1.45.25-1.1 1.2-1.1h.1v-.45q.2-1.1 1.2-1.1 1.1 0 .95 1.2l-.15.5q1.2.1 1 1.5-.15 1.5-1.55 1.3-.8-.15-.95-.8-.35.55-1.1.4" fill="#ffdc00" transform="translate(14.15 -2.85)"/><path d="m15.85 4.15 1.4-1.1.25-.15.25.05.2.15.3.4.1.35-.15.35-1.75 1.4Q12.9 8.15 8.15 9l.05.2-.1.75q.45.2.6.85.1.55-.15.95.6.25.75 1.1.25 1.5-1.15 1.8L7 14.5q-.45-.3-.55-1.05-.15-.8.35-1.3l-.5-.85q-.1-.65.25-1.05L6.2 9.6q-.05-.3.05-.55l-1 .05.25.85q0 .6-.35 1 .6.4.6 1.25 0 .8-.5 1.25.8.55.8 1.65 0 1.95-1.85 1.95T2.35 15.1q0-1.1.85-1.65-.55-.45-.55-1.25 0-.85.65-1.25-.4-.4-.4-1 0-.5.25-.8l-1.1-.1v.5l-.35.65q.4.45.3 1.05l-.5.9q.5.45.4 1.25l-.6 1.1-1.1.15-1-.6q-.3-.45-.15-1.15v-.05q.1-.75.8-1.05-.3-.4-.25-.95.1-.7.6-.95l-.15-.65.05-.2-2.25-.65-1.55-.55-.05-.05-3.2-1.55-3.35-2.15-.15-.3.1-.35.3-.4.25-.15.25-.05.25.15 4.05 2.5v-.05l1.9.9 1.5.55q3.05 1 5.9 1 6.75 0 11.8-3.75M15.8 5.2q-.1-.25-1.05.2-6.3 2.95-10.6 2.95-4.9 0-10.6-2.9-.85-.4-.9-.15-.05.2.85.7Q-2.6 7.9.85 8.55q-.3.1-.45.6-.05.6.3.85-.55 0-.65.75-.15.8.4 1.05-.85 0-1 1.05-.2 1.25.95 1.4 1.1.2 1.3-1 .15-1-.6-1.3.6-.05.7-.85.15-.8-.4-1 .4-.15.5-.65l-.2-.75 2.25.15q-.65.15-.65 1 0 .8.55 1-.8.25-.8 1.25 0 1.05.75 1.3-1 .25-1 1.55 0 1.65 1.55 1.65 1.5 0 1.5-1.65 0-1.35-.95-1.6.65-.25.65-1.25t-.75-1.25q.5-.2.5-1 0-.85-.65-1l2.2-.2q-.3.25-.25.75.05.55.5.65-.55.25-.4 1.05.15.75.7.85-.65.35-.55 1.3.2 1.2 1.35.95 1.1-.2.9-1.4-.15-1-.95-1 .5-.3.35-1.05-.1-.75-.75-.8.4-.25.25-.8l-.4-.6q3.45-.7 7.3-2.65l.9-.7" fill="#f19300" transform="translate(14.15 -2.85)"/><path d="m15.8 5.2-.9.7q-3.85 1.95-7.3 2.65l.4.6q.15.55-.25.8.65.05.75.8.15.75-.35 1.05.8 0 .95 1 .2 1.2-.9 1.4-1.15.25-1.35-.95-.1-.95.55-1.3-.55-.1-.7-.85-.15-.8.4-1.05-.45-.1-.5-.65-.05-.5.25-.75l-2.2.2q.65.15.65 1 0 .8-.5 1 .75.25.75 1.25t-.65 1.25q.95.25.95 1.6 0 1.65-1.5 1.65-1.55 0-1.55-1.65 0-1.3 1-1.55-.75-.25-.75-1.3 0-1 .8-1.25-.55-.2-.55-1 0-.85.65-1L1.7 8.7l.2.75q-.1.5-.5.65.55.2.4 1-.1.8-.7.85.75.3.6 1.3-.2 1.2-1.3 1-1.15-.15-.95-1.4.15-1.05 1-1.05-.55-.25-.4-1.05.1-.75.65-.75-.35-.25-.3-.85.15-.5.45-.6Q-2.6 7.9-6.5 6q-.9-.5-.85-.7.05-.25.9.15 5.7 2.9 10.6 2.9 4.3 0 10.6-2.95.95-.45 1.05-.2M.05 12.75q-.1.75.6.85.7.1.8-.6.1-.7-.55-.9-.7-.1-.85.65m4.5.9q-.95 0-.95 1t.95 1q.9 0 .9-1t-.9-1m3.65-.15q.75-.1.55-.85-.1-.75-.8-.6-.65.1-.55.85.1.8.8.6m.05-2.85q-.2-.6-.65-.45-.55.1-.45.7.1.65.65.45.55-.1.45-.7M7.2 8.6q-.45.1-.35.6.1.45.5.35.4-.1.4-.55-.1-.5-.55-.4m-2.85 1.65q.6 0 .6-.65t-.6-.65q-.6 0-.6.65t.6.65m.1.85q-.75 0-.75.8 0 .85.75.85t.75-.85q0-.8-.75-.8m-3.3-.85q-.55-.1-.65.5-.1.5.45.7.55.1.65-.5.1-.6-.45-.7m.15-1.6Q.85 8.55.75 9q0 .5.4.6.4 0 .5-.4.1-.45-.35-.55" fill="#ffdc00" transform="translate(14.15 -2.85)"/><path d="M1.3 8.65q.45.1.35.55-.1.4-.5.4-.4-.1-.4-.6.1-.45.55-.35m-.15 1.6q.55.1.45.7-.1.6-.65.5-.55-.2-.45-.7.1-.6.65-.5m3.3.85q.75 0 .75.8 0 .85-.75.85t-.75-.85q0-.8.75-.8m-.1-.85q-.6 0-.6-.65t.6-.65q.6 0 .6.65t-.6.65M7.2 8.6q.45-.1.55.4 0 .45-.4.55-.4.1-.5-.35-.1-.5.35-.6m1.05 2.05q.1.6-.45.7-.55.2-.65-.45-.1-.6.45-.7.45-.15.65.45M8.2 13.5q-.7.2-.8-.6-.1-.75.55-.85.7-.15.8.6.2.75-.55.85m-3.65.15q.9 0 .9 1t-.9 1q-.95 0-.95-1t.95-1m-4.5-.9Q.2 12 .9 12.1q.65.2.55.9-.1.7-.8.6-.7-.1-.6-.85" fill="#fff5ca" transform="translate(14.15 -2.85)"/></g><path d="M27.35 7.4q2.15 4.15 3.55 8.75 1.45 4.7 1.15 9.5-.35 4.95-4.2 8.1-3.8 3.2-8.75 4.05l-2.6.2q-3.6 0-7.05-1.15-4.65-1.6-7.1-5.5Q-.2 27.4.05 23q.2-4.4 2-9.3Q3.85 8.75 7 5.05 10.1 1.3 14.7.1l1.8-.1q1.9.05 3.7.8 4.75 2.05 7.15 6.6" fill="#fce4d7" fill-rule="evenodd" transform="translate(-.05)" id="f"/><path d="M31.9 20.6q-.3-2.25-1-4.45-1.4-4.6-3.55-8.75-2.4-4.55-7.15-6.6-2.65-1.1-5.5-.7Q10.1 1.3 7 5.05q-3.15 3.7-4.95 8.65Q.7 17.3.25 20.6" fill="none" stroke="#010102" stroke-linecap="round" stroke-linejoin="round" transform="translate(.25 .5)" id="g"/></defs></svg>