<svg xmlns:xlink="http://www.w3.org/1999/xlink" height="82" width="84.85" xmlns="http://www.w3.org/2000/svg"><g transform="translate(37.4 42.25)"><use height="38" transform="translate(-11.95 -17.45)" width="32.05" xlink:href="#a"/><use height="38.95" transform="translate(-12.45 -17.95)" width="33.05" xlink:href="#b"/><use height="26.65" transform="translate(-16.05 -1.8)" width="40.15" xlink:href="#c"/></g><defs><path d="M27.35 7.4q2.15 4.15 3.55 8.75 1.45 4.7 1.15 9.5-.35 4.95-4.2 8.1-3.8 3.2-8.75 4.05l-2.6.2q-3.6 0-7.05-1.15-4.65-1.6-7.1-5.5Q-.2 27.4.05 23q.2-4.4 2-9.3Q3.85 8.75 7 5.05 10.1 1.3 14.7.1l1.8-.1q1.9.05 3.7.8 4.75 2.05 7.15 6.6" fill="#fff" fill-rule="evenodd" transform="translate(-.05)" id="d"/><path d="M27.35 7.4Q24.95 2.85 20.2.8 17.55-.3 14.7.1 10.1 1.3 7 5.05q-3.15 3.7-4.95 8.65-1.8 4.9-2 9.3-.25 4.4 2.3 8.35 2.45 3.9 7.1 5.5 4.65 1.55 9.65.95 4.95-.85 8.75-4.05 3.85-3.15 4.2-8.1.3-4.8-1.15-9.5-1.4-4.6-3.55-8.75Z" fill="none" stroke="#010102" stroke-linecap="round" stroke-linejoin="round" transform="translate(.45 .5)" id="e"/><use height="38" width="32.05" xlink:href="#d" id="a"/><use height="38.95" width="33.05" xlink:href="#e" id="b"/><g id="c"><path d="M5.3 7.1 5.2 7l1.15-.65-1.05.75m2.6-1.15 3.85-.8-1.55.7-2.3.1" fill="#fffff7" fill-rule="evenodd" transform="translate(16.05 1.8)"/><path d="M-2.3 5.95q2.75.1 4.85 1.5l.6.45-1 .15-.85-.25q-1.15-.45-2.35-.75l-.6-.65-.65-.45m6.35 1.9Q4.7 7.5 5.3 7.1l1.05-.75 1.55-.4 2.3-.1-1.1.9q-1.85.15-3.2.85l-.55.4-1.3-.15" fill="#9c6e45" fill-rule="evenodd" transform="translate(16.05 1.8)"/><path d="M19.4.9q-1.6 3.05-4.6 4.7l-1.25.7-2.45.95-1.85.7.15-.9L12 6.2Q16.65 5 19.4.9M9.1 6.75 8.8 8.4q-.95 1.3-1.05 2.85v.8l-1.6.9-.3-1.3 1.2-2-.15-.55L5.35 8l.55-.4q1.35-.7 3.2-.85m-6.95 1.3-.95.65q-.25 1.4 1 2.95l-.2 1-2.6-1.55-.2-2.7-.25-1.35q1.2.3 2.35.75l.85.25M-11.75.2Q-8.9 4-4.5 5.8q1.4.55 2.8 1.2-4.7-.3-8.2-3.95-1.65-1.6-2.55-3.45l.7.6m.6 19.4.15-2 .5 2.7.55.6-.7-.55-.5-.75" fill="#fff" fill-rule="evenodd" transform="translate(16.05 1.8)"/><path d="m9.75 23.9-3.7-.1-1-1.25-.6-1 1.6-.05.15.55-.1.05.15.65 3.2.5.3.65M4.4 21.55q-1.2 2.3-4 2.3l-2.25.15.4-.9 3.1-.3.5-.15.75-1.1h1.5" fill-rule="evenodd" transform="translate(16.05 1.8)"/><path d="m9.4 21.95.05 1.15-2.55-1.35-.7.3-.15-.55 3.25-.4.1.85m.05 1.2v.1l-3.2-.5 3.2.4m-6.55-1.6-.75 1.1.3-.55-2.15-.2-.4.95 1.75-.05-3.1.3v-1.2l.15-.7 4.2.35" fill="#ab532e" fill-rule="evenodd" transform="translate(16.05 1.8)"/><path d="m3.15 7.9.9-.05 1.3.15L6.9 9.1l.15.55-1.2 2 .3 1.3L4.3 14 2 12.65l.2-1Q.95 10.1 1.2 8.7l.95-.65 1-.15m.35 3.3.65.15q1.95-.4 2.15-2.2l-.3-.4Q3.7 7.7 1.95 9.3q.3 1.35 1.55 1.9m-1.05 1.2 2.1 1.35 1.15-1.1-.25-.5-3 .25" fill="#5c1202" fill-rule="evenodd" transform="translate(16.05 1.8)"/><path d="M-.6 11.1 2 12.65 4.3 14l1.85-1.05 1.6-.9.15.55-3.7 1.65-4.8-2.7v-.45" fill="#7a1a02" fill-rule="evenodd" transform="translate(16.05 1.8)"/><path d="m7.9 12.6.25.5-3.65 1.8-2.65-1.05-2.45-1.7v-.6l4.8 2.7 3.7-1.65M9 17.45l.2 2.65-1.75.45-8.6-.5.55-7.45q.45.55.75 1.25L.9 15.9q-.65.6-.85 1.3l-.2.9.4.55q.8.9 2 .9l.6-.25.6-1.7.75.15-.5 2.9h1.75l-.3-2 .15.2.5 1.5.5-1 1.15.2.4-.3q.7-.8.6-1.75l.55-.05" fill="#fe8d24" fill-rule="evenodd" transform="translate(16.05 1.8)"/><path d="m8.55 13.55.3.35.15 3.55-.55.05q0-.7-.65-1.15-.65-.5-1.55-.5l.1-.85 2.2-1.45m-3.8 2.55.7-.5.1.6-.65 1.05-.15-1.15m1.55 3.25-.5 1-.5-1.5 1 .5m-2.1-1.6-.75-.15q0-.7-.75-1.2t-1.8-.5l-.75-2.05q-.3-.7-.75-1.25v-.45l2.45 1.7-.7-.3-.1.9 3.4 1.7-.25 1.6" fill="#feb46d" fill-rule="evenodd" transform="translate(16.05 1.8)"/><path d="M4.45 21.55H2.9l-4.2-.35.15-1.15 8.6.5 1.75-.45.1 1-3.25.4-1.6.05" fill="#633000" fill-rule="evenodd" transform="translate(16.05 1.8)"/><path d="M19.2.25V-1.8l2.1 1.05.45 2.3Q24.5 1.9 24 4.8l-1.45 6.4q-.55 1.75-.35 3.7.25 2.95-1.15 5.5-1.1 1.95-3.2 2.9-3.55 1.65-7.5 1.4l-.6-.8-.3-.65v-.15l-.05-1.15.7.55.55 1.5q5.15.2 8.8-3.5 2.65-2.55 1.95-6.4-.65-3.85 1.1-7.55.85-1.75.15-3.55l-.8-.45-.9-.15v-.75l-.3-2.25-.75.95-.1-.35-.6.25M-1.85 24l-.8.85q-5.35.25-9.5-3.4-2.2-2.05-2.1-5.25.1-4.95-1.5-9.6-.75-2.2.45-4 .5-.85 1.5-1.05l.45-2.3 2.1-1.05-.1 1.7-.25.05-.15.25-.7-.6-.65 2.1-.05.7h-.15l-.9.35-.65.55q1.4 6.65 1.7 13.5.05 1.5.65 2.7h-.05l.1.1q.9 1.65 2.8 2.7 3.3 1.9 7.1 1.65l.45-1.45.55-.15.1-.45v1.2l-.4.9" fill="#260600" fill-rule="evenodd" transform="translate(16.05 1.8)"/><path d="M-11.35-.1q2.9 3.85 7.45 5.45l1.6.6.65.45.6.65.25 1.35.2 2.7v1.5l-.55 7.45-.15 1.15-.15.7-.1.45-.55.15-.8-.2-.7-2.15q-.6-2.65-1.7-5.1-1.2-2.6-.65-4.5l.25-.25.55-.55.2-.4-1.8-1.2Q-9.45 6.2-11.7 3.9l-.5-.6 7.15 5.2 2.75-.8q-1.5 1.8-3.35 3.1 1.75 5.5 3.15 10.95 2.15-7.3.8-14.75-1.4-.65-2.8-1.2Q-8.9 4-11.75.2l.15-.25.25-.05m23.1 5.25q3.5-1.15 6.15-3.7l1.3-1.2.6-.25.1.35-.5.55Q16.65 5 12 6.2l-2.6.85-.15.9v.15l-.45.3.3-1.65 1.1-.9 1.55-.7M10.1 22.5l-.7-.55-.1-.85-.1-1-.2-2.65-.15-3.55.4 1q.35 2.65 1 5.35l.4 1.4.1-.4.25-1.55.1-1.55.55-.8.5.1-1.25 4.85-.8.2m5.2-15.55 3.05-2.35 1.55-1.25-.2.5-1.35 1.3-2.5 2.15-.55-.35m-4.95.85-.05-.05.2-.05-.15.1" fill="#701100" fill-rule="evenodd" transform="translate(16.05 1.8)"/><path d="m19.9.35.75-.95.3 2.25v.75l.9.15.8.45q.7 1.8-.15 3.55-1.75 3.7-1.1 7.55.7 3.85-1.95 6.4-3.65 3.7-8.8 3.5l-.55-1.5.8-.2v.6l1.35-.25.55-.3q-1-2.3-.45-4.85l1.55-.45 1.35-.6.95.05q.5-.1.8-.4 2.4-2.15.75-5.05l.1-.6q.05-1.55-1.1-2.5L18 6.35l1.7-2.5.2-.5-1.55 1.25-3.05 2.35-1.1-.55-.65-.1 1.25-.7q3-1.65 4.6-4.7l.5-.55m0 2.95v.05-.05M9.25 8.1v-.15l1.85-.7-.6.45-.2.05.05.05-1.1.3m1.3 7.85-.3.75 1.4.65-.55.8-.1 1.55-.25 1.55-.1.4-.4-1.4q-.65-2.7-1-5.35l1.3 1.05m5.95 2.55 1-.25-1.65 1.2 1.35.05q-1.65.95-3.4.75l.6.6 2 .1q3.1-1.15 2-4.55l-.85.65-.15.85-.9.6M-1.7 7q1.35 7.45-.8 14.75-1.4-5.45-3.15-10.95Q-3.8 9.5-2.3 7.7l-2.75.8-7.15-5.2.5.6Q-9.75 7-7 9.75l-1.05.75q.6 1.7 1.55 3.1 2.85 4.15 1.65 8.75l1.75.5.2-.55.8.2-.45 1.45q-3.8.25-7.1-1.65-1.9-1.05-2.8-2.7 1.7 1.45 3.8 2.3 2.35 1.1 4.8 1.45-1.4-.6-2.3-1.75-1.9-2.55-2.9-5.75l-2.5-9.5L-11.7 19l-.8.5q-.6-1.2-.65-2.7-.3-6.85-1.7-13.5l.65-.55.9-.35h.15l.05-.7.65-2.1q.9 1.85 2.55 3.45Q-6.4 6.7-1.7 7" fill="#ffffbf" fill-rule="evenodd" transform="translate(16.05 1.8)"/><path d="M19.7 3.85 18 6.35l-1.25 1.6-.9-.65 2.5-2.15 1.35-1.3m-1.95 7.2q1.65 2.9-.75 5.05-.3.3-.8.4l-.95-.05-1.35.6-1.55.45q-.55 2.55.45 4.85l-.55.3-1.35.25v-.6l1.25-4.85-.5-.1-1.4-.65.3-.75 2.75-.15.85-.55 2.4-.3 1-1q.7-1.2 0-2.4l.2-.5M16.5 18.5l.9-.6.15-.85.85-.65q1.1 3.4-2 4.55l-2-.1-.6-.6q1.75.2 3.4-.75l-1.35-.05 1.65-1.2-1 .25M-11.7 3.9q2.25 2.3 4.95 4.25l1.8 1.2-.2.4-.55.55-.25.25q-.55 1.9.65 4.5 1.1 2.45 1.7 5.1l.7 2.15-.2.55-1.75-.5q1.2-4.6-1.65-8.75-.95-1.4-1.55-3.1L-7 9.75Q-9.75 7-11.7 3.9" fill="#d68e4b" fill-rule="evenodd" transform="translate(16.05 1.8)"/><path d="m-12.5 19.5.8-.5.15-12.65 2.5 9.5q1 3.2 2.9 5.75.9 1.15 2.3 1.75-2.45-.35-4.8-1.45-2.1-.85-3.8-2.3l-.1-.1h.05m1.35.1.5.75.7.55-.55-.6-.5-2.7-.15 2" fill="#e0a057" fill-rule="evenodd" transform="translate(16.05 1.8)"/><path d="m8.15 13.1.4.45L6.35 15l-.1.85-.7.35-.1-.6-.7.5-.15-.8-.15.85-3.4-1.7.1-.9.7.3L4.5 14.9l3.65-1.8" fill="#f0f0f0" fill-rule="evenodd" transform="translate(16.05 1.8)"/><path d="m6.55 16.3.7.15.1.15-.05.55-.7.45-.5.1-.5-.85.05-.2q.3-.45.9-.35m-5 0 .4.05.3.3.1.3q-.15.5-.7.65l-.6.1-.5-.85q0-.25.3-.4l.7-.15" fill="#fffcfa" fill-rule="evenodd" transform="translate(16.05 1.8)"/><path d="m5.6 16.85-.25 1.1q.75 1 2.05.4l.3-.75.1-.35-.35-.6-.3-.35h-.6q-.6-.1-.9.35l-.05.2m-.05-.65.7-.35q.9 0 1.55.5.65.45.65 1.15.1.95-.6 1.75l-.4.3-1.15-.2-1-.5-.15-.2-.3-.6.05-.8.65-1.05m-2.1 1.4-.6 1.7-.6.25q-1.2 0-2-.9l-.4-.55.2-.9q.2-.7.85-1.3 1.05 0 1.8.5t.75 1.2m-2.9-.75-.15.7.05.7 1.4.15.7-.15.05-.9-.05-.65-.15-.2-.3-.2h-.55l-.7.15q-.3.15-.3.4" fill="#612800" fill-rule="evenodd" transform="translate(16.05 1.8)"/><path d="M6.55 16.3h.6l.3.35.35.6-.1.35-.3.75q-1.3.6-2.05-.4l.25-1.1.5.85.5-.1.7-.45.05-.55-.1-.15-.7-.15m-5 0h.55l.3.2.15.2.05.65-.05.9-.7.15-1.4-.15-.05-.7.15-.7.5.85.6-.1q.55-.15.7-.65l-.1-.3-.3-.3-.4-.05" fill="#e87c00" fill-rule="evenodd" transform="translate(16.05 1.8)"/><path d="m4.75 16.1.15 1.15-.05.8.3.6.3 2H3.7l.5-2.9.25-1.6.15-.85.15.8" fill="#b25c1f" fill-rule="evenodd" transform="translate(16.05 1.8)"/><path d="M9.45 23.1v.05l-3.2-.4-.15-.65.1-.05.7-.3 2.55 1.35m-7.3-.45-.5.15-1.75.05.4-.95 2.15.2-.3.55" fill="#ff8645" fill-rule="evenodd" transform="translate(16.05 1.8)"/><path d="m13.55 6.3.65.1 1.1.55.55.35.9.65q1.15.95 1.1 2.5l-.1.6-.2.5q.7 1.2 0 2.4l-1 1-2.4.3-.85.55-2.75.15-1.3-1.05-.4-1-.3-.35-.4-.45-.25-.5-.15-.55v-.8Q7.85 9.7 8.8 8.4l.45-.3 1.1-.3.15-.1.6-.45 2.45-.95" fill="#690000" fill-rule="evenodd" transform="translate(16.05 1.8)"/><path d="M3.5 11.2q-1.25-.55-1.55-1.9Q3.7 7.7 6 8.75l.3.4q-.2 1.8-2.15 2.2l-.65-.15m-1.05 1.2 3-.25.25.5-1.15 1.1-2.1-1.35" fill="#fe5900" fill-rule="evenodd" transform="translate(16.05 1.8)"/><path d="M13.5 8.4q1.35.05 1.9 1.25l.3.65-.2.6q-.65-2-2.55-2.45l.55-.05m-2.65.65.4-1.4-.4 1.4q-1.1.25-1.5 1.05-.95 1.85.75 3v1.2q1.85 1.7 3.55.5l.25-.65.25.1 1.1.15-3.05 1.35q-1.35-.05-2.25-1.35l-1-1.5q-.75-1.2-.2-2.65.2-.6.75-.85l1.75-1.75q2.85-1.15 4.8.9.55.55.7 1.3l.15 1.7-.05.95-.8-.95.5-.55q.1-1.45-.95-2.6l-.85-.6q-2.5-1.1-3.9 1.25m.8 3.3-.65-.6-.15-.85q.85 1.3 1.7 1.3l-.05.1-.8.05h-.05m.1.05h-.05v-.05l.05.05m4.95.95-.6.6-.3.15.9-.75" fill="#c90000" fill-rule="evenodd" transform="translate(16.05 1.8)"/><path d="m13.5 8.4-.55.05q1.9.45 2.55 2.45l.2-.6-.3-.65q-.55-1.2-1.9-1.25m-2.65.65q1.4-2.35 3.9-1.25l.85.6q1.05 1.15.95 2.6l-.5.55.8.95.1.1-.1.6-.15.15-.9.75-.35.3h-.2l-1.1-.15-.25-.1-.25.65q-1.7 1.2-3.55-.5v-1.2q-1.7-1.15-.75-3 .4-.8 1.5-1.05v1.45-1.45m.05 1.4-.05.05-.3.4-.05.2-.05.05.15.85.7.65.45.6-.7-.65-.65-.45-.3-1.2q-.05 1.45 1.05 2.2l.8.3h.65l1.25-.65q1-.35 1.35-1.3l.15-.4q-.65-1.7-2.5-2.2-1 .3-1.5 1.4l-.45.15m3 3.7-.65-.25-.65-.45.65.45.65.25m1.55-2.25-.2.25-.15.55-1.45 1.05.75-.2q1.05-.1 1.85-1.05l-.6-.75q-.15.05-.2.15m-2.85 2.4-1.75-.5q-.55-.05.35.55l.85.35.55-.4" fill="red" fill-rule="evenodd" transform="translate(16.05 1.8)"/><path d="m11.75 13.25.2.2-.8-.3q-1.1-.75-1.05-2.2l.3 1.2.65.45.7.65m3.7-1.35q.05-.1.2-.15l.6.75q-.8.95-1.85 1.05l-.75.2 1.45-1.05.15-.55.2-.25" fill="#d90000" fill-rule="evenodd" transform="translate(16.05 1.8)"/><path d="m10.85 10.5.05-.05.45-.15q.5-1.1 1.5-1.4 1.85.5 2.5 2.2l-.15.4q-.35.95-1.35 1.3l-1.25.65h-.65l-.2-.2-.45-.6-.7-.65-.15-.85.05-.05.05-.2.35-.45-.35.45.3-.4m1.65 1.8.05-.1q-.85 0-1.7-1.3l.15.85.65.6v.05h.1l.35.2.8.1-.4-.4m.25-.8.8-.05q.4-1.45-1.25-1.95l-1 1.25q.25.8 1.05 1l.25-.05.15-.2 1.1 1.3-1.1-1.3-.15.2-.25.05q-.8-.2-1.05-1l1-1.25q1.65.5 1.25 1.95l-.8.05m-.35-.65-.6.45.7.1.8-.65-.9.1m2.35.25-.45.85-.9-.1.8.45.6-.75-.05-.45m-.15-.2-.15-.4Q14 9.45 12.9 9.45l1.7 1.45" fill="#f40000" fill-rule="evenodd" transform="translate(16.05 1.8)"/><path d="m12.4 10.85.9-.1-.8.65-.7-.1.6-.45m2.35.25.05.45-.6.75-.8-.45.9.1.45-.85" fill="#e30000" fill-rule="evenodd" transform="translate(16.05 1.8)"/><path d="m12.5 12.3.4.4-.8-.1-.35-.2-.05-.05.8-.05m-.8.1h-.05v-.05h.05v.05m2.9-1.5-1.7-1.45q1.1 0 1.55 1.05l.15.4m-2 3.4-.55.4-.85-.35q-.9-.6-.35-.55l1.75.5" fill="#ff4f4f" fill-rule="evenodd" transform="translate(16.05 1.8)"/><path d="m27.3 9.45-.4 1.4v1.45m3.3 3.75-.25-.1-.65-.25-.65-.45 1.25-.65-1.1-1.3-.15.2-.25.05q-.8-.2-1.05-1l1-1.25q1.65.5 1.25 1.95l-.8.05m-1.85-1.05.45-.15q.5-1.1 1.5-1.4 1.85.5 2.5 2.2l-.15.4q-.35.95-1.35 1.3m-3.3-1.9-.05.2m-.05.05.15.85.7.65.45.6.2.2h.65m-1.7-3-.35.45" fill="none" stroke="#c90000" stroke-linecap="round" stroke-linejoin="round" stroke-width=".75"/></g></defs></svg>