<?xml version="1.0" encoding="UTF-8" standalone="no"?>
<svg xmlns:xlink="http://www.w3.org/1999/xlink" height="82.0px" width="84.85px" xmlns="http://www.w3.org/2000/svg">
  <g transform="matrix(1.0, 0.0, 0.0, 1.0, 37.4, 42.25)">
    <use height="8.35" transform="matrix(1.0, 0.0, 0.0, 1.0, -17.15, -1.85)" width="42.55" xlink:href="#sprite0"/>
    <use height="38.0" transform="matrix(1.0, 0.0, 0.0, 1.0, -11.95, -17.45)" width="32.05" xlink:href="#sprite1"/>
    <use height="38.95" transform="matrix(1.0, 0.0, 0.0, 1.0, -12.45, -17.95)" width="33.05" xlink:href="#sprite2"/>
    <use height="17.4" transform="matrix(1.0, 0.0, 0.0, 1.0, -12.35, 4.4)" width="33.0" xlink:href="#sprite3"/>
    <use height="7.0" transform="matrix(1.0, 0.0, 0.0, 1.0, -16.45, -1.2)" width="40.95" xlink:href="#sprite4"/>
    <use height="15.3" transform="matrix(1.0, 0.0, 0.0, 1.0, -11.35, 5.3)" width="30.8" xlink:href="#sprite5"/>
    <use height="10.4" transform="matrix(1.0, 0.0, 0.0, 1.0, -12.95, -0.1)" width="33.95" xlink:href="#sprite6"/>
    <use height="15.2" transform="matrix(1.0, 0.0, 0.0, 1.0, 1.65, 7.05)" width="5.4" xlink:href="#sprite7"/>
    <use height="8.0" transform="matrix(1.0, 0.0, 0.0, 1.0, -11.9, 1.45)" width="31.65" xlink:href="#sprite8"/>
    <use height="13.3" transform="matrix(1.0, 0.0, 0.0, 1.0, 2.55, 8.15)" width="3.65" xlink:href="#sprite9"/>
    <use height="8.0" transform="matrix(1.0, 0.0, 0.0, 1.0, -11.9, 1.45)" width="31.65" xlink:href="#sprite10"/>
    <use height="1.15" transform="matrix(1.0, 0.0, 0.0, 1.0, 3.1, 8.3)" width="2.1" xlink:href="#sprite11"/>
    <use height="9.7" transform="matrix(1.0, 0.0, 0.0, 1.0, -7.8, 10.3)" width="27.0" xlink:href="#sprite12"/>
    <use height="11.85" transform="matrix(1.0, 0.0, 0.0, 1.0, -10.95, 7.5)" width="29.75" xlink:href="#sprite13"/>
    <use height="12.9" transform="matrix(1.0, 0.0, 0.0, 1.0, -10.0, 6.5)" width="28.0" xlink:href="#sprite14"/>
  </g>
  <defs>
    <g id="sprite0" transform="matrix(1.0, 0.0, 0.0, 1.0, 0.0, 0.0)">
      <use height="8.35" transform="matrix(1.0, 0.0, 0.0, 1.0, 0.0, 0.0)" width="42.55" xlink:href="#shape0"/>
    </g>
    <g id="shape0" transform="matrix(1.0, 0.0, 0.0, 1.0, 0.0, 0.0)">
      <path d="M5.95 0.95 L6.55 1.85 6.3 2.15 6.55 4.2 6.45 6.1 6.3 6.3 5.9 7.05 4.8 8.05 Q4.35 8.25 2.9 8.05 1.5 7.85 1.35 7.05 1.15 6.2 1.25 5.9 L1.15 5.85 Q0.0 5.8 0.0 4.4 -0.1 2.45 1.05 2.3 L1.0 2.0 Q1.0 0.35 2.8 0.35 L3.35 0.4 Q3.3 0.15 4.25 0.0 L4.7 0.0 Q5.25 0.05 5.95 0.95" fill="#000000" fill-rule="evenodd" stroke="none"/>
      <path d="M41.25 7.25 Q41.05 8.05 39.65 8.25 38.2 8.45 37.75 8.25 L36.65 7.25 36.25 6.5 36.1 6.3 36.0 4.4 Q36.0 3.1 36.25 2.35 L36.0 2.05 36.6 1.15 Q37.3 0.25 37.85 0.2 L38.3 0.2 Q39.25 0.35 39.25 0.6 L39.75 0.55 Q41.55 0.55 41.55 2.2 L41.55 2.5 Q42.65 2.65 42.55 4.6 42.55 6.0 41.4 6.05 L41.35 6.1 41.25 7.25" fill="#000000" fill-rule="evenodd" stroke="none"/>
    </g>
    <g id="sprite1" transform="matrix(1.0, 0.0, 0.0, 1.0, -0.05, 0.0)">
      <use height="38.0" transform="matrix(1.0, 0.0, 0.0, 1.0, 0.05, 0.0)" width="32.05" xlink:href="#shape1"/>
    </g>
    <g id="shape1" transform="matrix(1.0, 0.0, 0.0, 1.0, -0.05, 0.0)">
      <path d="M27.35 7.4 Q29.5 11.55 30.9 16.15 32.35 20.85 32.05 25.65 31.7 30.6 27.85 33.75 24.05 36.95 19.1 37.8 L16.5 38.0 Q12.9 38.0 9.45 36.85 4.8 35.25 2.35 31.35 -0.2 27.4 0.05 23.0 0.25 18.6 2.05 13.7 3.85 8.75 7.0 5.05 10.1 1.3 14.7 0.1 L16.5 0.0 Q18.4 0.05 20.2 0.8 24.95 2.85 27.35 7.4" fill="#9e6b2e" fill-rule="evenodd" stroke="none"/>
    </g>
    <g id="sprite2" transform="matrix(1.0, 0.0, 0.0, 1.0, 0.45, 0.5)">
      <use height="38.95" transform="matrix(1.0, 0.0, 0.0, 1.0, -0.45, -0.5)" width="33.05" xlink:href="#shape2"/>
    </g>
    <g id="shape2" transform="matrix(1.0, 0.0, 0.0, 1.0, 0.45, 0.5)">
      <path d="M27.35 7.4 Q24.95 2.85 20.2 0.8 17.55 -0.3 14.7 0.1 10.1 1.3 7.0 5.05 3.85 8.75 2.05 13.7 0.25 18.6 0.05 23.0 -0.2 27.4 2.35 31.35 4.8 35.25 9.45 36.85 14.1 38.4 19.1 37.8 24.05 36.95 27.85 33.75 31.7 30.6 32.05 25.65 32.35 20.85 30.9 16.15 29.5 11.55 27.35 7.4 Z" fill="none" stroke="#231415" stroke-linecap="round" stroke-linejoin="round" stroke-width="1.0"/>
    </g>
    <g id="sprite3" transform="matrix(1.0, 0.0, 0.0, 1.0, 0.0, 0.0)">
      <use height="17.4" transform="matrix(1.0, 0.0, 0.0, 1.0, 0.0, 0.0)" width="33.0" xlink:href="#shape3"/>
    </g>
    <g id="shape3" transform="matrix(1.0, 0.0, 0.0, 1.0, 0.0, 0.0)">
      <path d="M33.0 11.65 L32.15 12.5 Q26.25 17.55 18.4 17.3 L19.0 16.1 Q23.85 16.0 28.1 13.8 30.15 12.75 31.8 11.25 L31.05 1.1 32.2 0.0 33.0 11.65 M0.35 0.1 L0.35 0.0 1.4 0.9 1.0 12.25 Q3.4 13.5 5.9 14.6 9.95 16.4 14.4 16.15 L14.6 17.0 15.05 17.35 Q8.85 17.65 3.25 14.65 L0.0 12.9 0.25 0.1 0.35 0.1" fill="#00081c" fill-rule="evenodd" stroke="none"/>
    </g>
    <g id="sprite4" transform="matrix(1.0, 0.0, 0.0, 1.0, 0.0, 0.0)">
      <use height="7.0" transform="matrix(1.0, 0.0, 0.0, 1.0, 0.0, 0.0)" width="40.95" xlink:href="#shape4"/>
    </g>
    <g id="shape4" transform="matrix(1.0, 0.0, 0.0, 1.0, 0.0, 0.0)">
      <path d="M40.7 2.5 L40.95 3.45 40.9 4.85 40.5 5.2 39.45 5.15 39.45 6.55 38.15 7.0 Q36.75 6.9 36.4 5.45 L37.45 3.85 37.35 2.65 37.0 1.9 35.95 1.3 35.55 1.3 35.9 0.95 Q36.8 -0.05 37.95 0.4 L38.15 0.8 38.65 0.6 39.4 0.5 40.1 1.9 39.4 2.4 40.7 2.5 M5.35 1.45 L4.5 1.1 3.85 2.1 Q2.95 4.1 4.4 5.55 L4.35 5.7 3.2 6.55 2.45 6.85 1.4 6.35 1.3 5.0 0.05 4.7 0.1 3.65 0.0 3.65 0.5 2.45 1.1 2.1 1.05 2.05 0.85 1.25 1.65 0.3 2.7 0.7 3.25 0.0 5.1 0.75 5.35 1.45" fill="#1c0000" fill-rule="evenodd" stroke="none"/>
    </g>
    <g id="sprite5" transform="matrix(1.0, 0.0, 0.0, 1.0, 0.0, 0.0)">
      <use height="15.3" transform="matrix(1.0, 0.0, 0.0, 1.0, 0.0, 0.0)" width="30.8" xlink:href="#shape5"/>
    </g>
    <g id="shape5" transform="matrix(1.0, 0.0, 0.0, 1.0, 0.0, 0.0)">
      <path d="M27.1 12.9 Q22.85 15.1 18.0 15.2 L18.1 13.7 18.05 12.2 18.05 10.7 17.95 9.15 17.9 7.85 18.35 7.45 18.4 6.4 18.1 4.85 19.5 4.75 Q25.4 3.85 30.05 0.2 L30.8 10.35 27.1 12.9 M13.1 5.0 L13.0 5.5 13.3 7.5 13.6 8.05 13.35 14.7 13.4 15.25 Q8.95 15.5 4.9 13.7 L0.0 11.35 0.4 0.0 3.0 1.9 5.95 3.4 13.1 5.0" fill="#e0eb94" fill-rule="evenodd" stroke="none"/>
    </g>
    <g id="sprite6" transform="matrix(1.0, 0.0, 0.0, 1.0, 0.0, 0.0)">
      <use height="10.4" transform="matrix(1.0, 0.0, 0.0, 1.0, 0.0, 0.0)" width="33.95" xlink:href="#shape6"/>
    </g>
    <g id="shape6" transform="matrix(1.0, 0.0, 0.0, 1.0, 0.0, 0.0)">
      <path d="M32.05 0.2 L32.45 0.2 33.5 0.8 33.85 1.55 33.95 2.75 32.9 4.35 32.8 4.5 31.65 5.6 Q27.0 9.25 21.1 10.15 L19.7 10.25 19.6 9.95 19.35 9.9 14.85 9.85 14.7 10.4 7.55 8.8 6.6 8.35 3.55 6.6 0.9 4.45 Q-0.55 3.0 0.35 1.0 0.6 0.45 1.0 0.0 L1.85 0.35 Q14.2 11.8 28.35 3.25 30.45 2.0 32.05 0.2" fill="#202825" fill-rule="evenodd" stroke="none"/>
    </g>
    <g id="sprite7" transform="matrix(1.0, 0.0, 0.0, 1.0, 0.0, 0.0)">
      <use height="15.2" transform="matrix(1.0, 0.0, 0.0, 1.0, 0.0, 0.0)" width="5.4" xlink:href="#shape7"/>
    </g>
    <g id="shape7" transform="matrix(1.0, 0.0, 0.0, 1.0, 0.0, 0.0)">
      <path d="M5.35 5.7 L4.9 6.1 5.1 11.95 5.0 13.45 4.4 14.65 3.75 14.95 Q2.35 15.55 1.05 14.7 L0.6 14.35 0.4 13.5 0.35 12.95 0.6 6.3 0.3 5.75 0.0 3.75 1.0 0.15 4.35 0.0 4.45 0.7 5.4 4.65 5.35 5.7" fill="#262626" fill-rule="evenodd" stroke="none"/>
    </g>
    <g id="sprite8" transform="matrix(1.0, 0.0, 0.0, 1.0, 0.0, 0.0)">
      <use height="8.0" transform="matrix(1.0, 0.0, 0.0, 1.0, 0.0, 0.0)" width="31.65" xlink:href="#shape8"/>
    </g>
    <g id="shape8" transform="matrix(1.0, 0.0, 0.0, 1.0, 0.0, 0.0)">
      <path d="M14.4 6.4 L13.9 8.0 11.8 7.8 Q3.85 6.75 0.0 0.0 L2.65 1.8 Q7.55 4.9 13.35 6.35 L14.4 6.4 M23.35 4.9 L24.9 4.25 31.4 0.0 31.65 1.65 30.3 3.0 Q25.35 7.7 18.4 7.85 L18.0 6.3 23.35 4.9" fill="#a6b817" fill-rule="evenodd" stroke="none"/>
    </g>
    <g id="sprite9" transform="matrix(1.0, 0.0, 0.0, 1.0, 0.0, 0.0)">
      <use height="13.3" transform="matrix(1.0, 0.0, 0.0, 1.0, 0.0, 0.0)" width="3.65" xlink:href="#shape9"/>
    </g>
    <g id="shape9" transform="matrix(1.0, 0.0, 0.0, 1.0, 0.0, 0.0)">
      <path d="M0.7 0.1 L2.55 0.0 3.65 3.8 3.2 4.0 1.6 4.65 0.8 4.55 0.0 4.15 Q0.05 3.0 0.25 1.9 0.4 0.95 0.7 0.1 M2.95 5.4 L2.85 12.6 1.65 13.3 0.7 12.7 0.75 5.45 2.95 5.4" fill="#a0a0a0" fill-rule="evenodd" stroke="none"/>
    </g>
    <g id="sprite10" transform="matrix(1.0, 0.0, 0.0, 1.0, 0.0, 0.0)">
      <use height="8.0" transform="matrix(1.0, 0.0, 0.0, 1.0, 0.0, 0.0)" width="31.65" xlink:href="#shape10"/>
    </g>
    <g id="shape10" transform="matrix(1.0, 0.0, 0.0, 1.0, 0.0, 0.0)">
      <path d="M31.4 0.0 L31.65 1.65 30.3 3.0 Q25.35 7.7 18.4 7.85 L18.2 7.15 23.25 5.9 23.35 4.9 24.9 4.25 25.8 3.8 Q27.7 2.95 29.25 1.5 L31.4 0.0 M13.35 6.35 L14.4 6.4 13.9 8.0 11.8 7.8 Q3.85 6.75 0.0 0.0 5.1 6.6 13.35 6.85 L13.35 6.35" fill="#4d6900" fill-rule="evenodd" stroke="none"/>
    </g>
    <g id="sprite11" transform="matrix(1.0, 0.0, 0.0, 1.0, 0.0, 0.0)">
      <use height="1.15" transform="matrix(1.0, 0.0, 0.0, 1.0, 0.0, 0.0)" width="2.1" xlink:href="#shape11"/>
    </g>
    <g id="shape11" transform="matrix(1.0, 0.0, 0.0, 1.0, 0.0, 0.0)">
      <path d="M1.85 0.0 L2.1 0.4 0.0 1.15 0.3 0.1 1.85 0.0" fill="#ffffff" fill-rule="evenodd" stroke="none"/>
    </g>
    <g id="sprite12" transform="matrix(1.0, 0.0, 0.0, 1.0, 0.0, 0.0)">
      <use height="9.7" transform="matrix(1.0, 0.0, 0.0, 1.0, 0.0, 0.0)" width="27.0" xlink:href="#shape12"/>
    </g>
    <g id="shape12" transform="matrix(1.0, 0.0, 0.0, 1.0, 0.0, 0.0)">
      <path d="M15.85 7.65 L17.8 8.15 18.85 8.1 Q18.85 8.5 19.2 8.8 19.5 9.1 20.0 9.1 L18.8 9.55 Q16.55 10.0 14.7 8.6 L15.85 7.65 M15.4 1.25 L15.9 0.25 16.6 0.25 Q17.9 0.15 18.95 1.05 18.95 1.9 18.35 2.55 17.7 3.15 16.85 3.15 L14.4 4.15 14.35 2.85 14.8 2.45 14.85 1.4 15.4 1.25 M21.0 7.55 L22.05 6.9 Q22.05 7.7 21.7 8.3 21.3 8.85 20.75 8.85 L21.0 8.45 21.0 7.55 M26.0 3.2 L27.0 4.55 25.0 6.65 23.8 6.1 Q24.6 6.1 25.2 5.4 25.75 4.65 25.75 3.6 L26.0 3.2 M6.0 4.95 L4.6 4.15 2.9 2.75 1.8 3.8 Q1.2 3.8 0.75 4.05 0.3 4.25 0.3 4.6 L0.0 4.2 0.1 3.7 1.1 2.6 0.7 1.95 1.0 0.15 1.8 0.0 2.5 0.35 3.0 0.9 3.7 1.25 Q5.05 1.95 5.75 3.55 L6.0 4.95 M3.45 7.25 Q4.55 7.3 5.2 8.05 L5.7 8.8 3.3 8.6 3.6 7.9 2.9 7.4 3.45 7.25 M9.05 9.5 L8.75 9.05 9.8 8.8 9.8 9.7 9.05 9.5" fill="#66290a" fill-rule="evenodd" stroke="none"/>
    </g>
    <g id="sprite13" transform="matrix(1.0, 0.0, 0.0, 1.0, 0.0, 0.0)">
      <use height="11.85" transform="matrix(1.0, 0.0, 0.0, 1.0, 0.0, 0.0)" width="29.75" xlink:href="#shape13"/>
    </g>
    <g id="shape13" transform="matrix(1.0, 0.0, 0.0, 1.0, 0.0, 0.0)">
      <path d="M26.05 5.7 L24.05 7.15 23.6 6.75 22.55 7.55 Q22.05 8.1 21.7 8.8 L22.65 9.9 22.0 10.9 20.95 10.95 19.0 10.45 20.4 7.45 24.35 5.35 23.5 4.85 Q24.5 4.85 25.25 4.3 25.95 3.75 25.95 2.95 L26.75 0.2 27.35 0.0 29.3 0.5 29.6 1.55 Q30.1 3.8 29.15 6.0 L28.9 6.4 Q29.1 5.65 28.65 4.85 L28.05 3.95 Q27.4 4.25 26.9 4.65 26.4 5.1 26.05 5.7 M24.15 10.35 L25.15 7.7 26.1 8.4 25.2 9.7 24.15 10.35 M13.15 7.1 L12.95 11.6 11.9 11.85 9.3 8.75 6.6 10.05 6.05 10.2 4.95 9.35 5.85 8.75 5.7 7.05 4.95 6.6 6.05 5.55 7.75 6.95 8.75 8.5 Q11.1 8.85 12.4 6.8 L12.9 6.75 13.15 7.1 M6.15 3.7 L9.55 3.65 8.2 4.65 8.85 5.15 8.9 6.35 Q8.2 4.75 6.85 4.05 L6.15 3.7 M1.9 2.85 Q2.4 3.4 3.1 3.4 L2.65 4.1 2.8 4.3 3.85 4.75 4.25 5.4 3.25 6.5 3.15 7.0 3.45 7.4 3.65 8.2 2.55 8.6 2.55 9.4 3.55 9.45 4.75 10.5 3.55 10.65 Q2.5 10.5 1.75 9.8 L1.6 9.1 2.85 6.55 2.7 6.25 Q2.4 5.65 1.8 5.5 L0.15 5.4 0.0 4.25 Q-0.1 2.65 1.2 1.35 L1.4 1.45 Q1.4 2.25 1.9 2.85" fill="#4a9900" fill-rule="evenodd" stroke="none"/>
    </g>
    <g id="sprite14" transform="matrix(1.0, 0.0, 0.0, 1.0, 0.0, 0.0)">
      <use height="12.9" transform="matrix(1.0, 0.0, 0.0, 1.0, 0.0, 0.0)" width="28.0" xlink:href="#shape14"/>
    </g>
    <g id="shape14" transform="matrix(1.0, 0.0, 0.0, 1.0, 0.0, 0.0)">
      <path d="M27.7 5.85 Q28.15 6.65 27.95 7.4 27.95 8.45 27.4 9.2 26.8 9.9 26.0 9.9 L25.15 9.4 24.2 8.7 23.2 11.35 23.2 12.25 22.95 12.65 22.2 12.9 Q21.7 12.9 21.4 12.6 21.05 12.3 21.05 11.9 L21.7 10.9 20.75 9.8 Q21.1 9.1 21.6 8.55 L22.65 7.75 23.1 8.15 25.1 6.7 Q25.45 6.1 25.95 5.65 26.45 5.25 27.1 4.95 L27.7 5.85 M11.95 7.75 L11.45 7.8 Q10.15 9.85 7.8 9.5 L6.8 7.95 8.2 8.75 7.95 7.35 7.9 6.15 7.25 5.65 8.6 4.65 11.65 4.3 11.95 6.3 12.25 6.85 12.2 8.1 11.95 7.75 M25.0 3.95 Q25.0 4.75 24.3 5.3 23.55 5.85 22.55 5.85 L19.45 8.45 18.05 11.45 16.9 12.4 16.75 12.5 16.7 11.0 16.7 9.5 17.3 9.3 19.05 6.95 Q19.9 6.95 20.55 6.35 21.15 5.7 21.15 4.85 L23.85 3.2 25.0 3.95 M4.6 2.2 L5.1 3.3 4.7 4.15 4.0 3.8 3.2 3.95 2.9 5.75 1.85 5.3 1.7 5.1 2.15 4.4 Q2.15 3.6 1.65 3.05 1.15 2.45 0.45 2.45 L0.25 2.35 0.0 1.5 0.6 0.0 1.65 0.7 1.5 1.4 3.65 1.75 4.6 2.2 M4.0 7.6 L4.75 8.05 4.9 9.75 4.0 10.35 5.8 11.7 5.5 12.4 3.8 11.5 2.6 10.45 1.6 10.4 1.6 9.6 2.7 9.2 2.5 8.4 Q2.5 8.05 2.95 7.85 L4.0 7.6" fill="#001700" fill-rule="evenodd" stroke="none"/>
    </g>
  </defs>
</svg>
