<?xml version="1.0" encoding="UTF-8" standalone="no"?>
<svg xmlns:xlink="http://www.w3.org/1999/xlink" height="82.0px" width="84.85px" xmlns="http://www.w3.org/2000/svg">
  <g transform="matrix(1.0, 0.0, 0.0, 1.0, 37.4, 42.25)">
    <use height="38.0" transform="matrix(1.0, 0.0, 0.0, 1.0, -11.95, -17.45)" width="32.05" xlink:href="#sprite0"/>
    <use height="38.95" transform="matrix(1.0, 0.0, 0.0, 1.0, -12.45, -17.95)" width="33.05" xlink:href="#sprite1"/>
    <use height="24.0" transform="matrix(1.0, 0.0, 0.0, 1.0, -13.65, 0.45)" width="35.95" xlink:href="#shape2"/>
  </g>
  <defs>
    <g id="sprite0" transform="matrix(1.0, 0.0, 0.0, 1.0, -0.05, 0.0)">
      <use height="38.0" transform="matrix(1.0, 0.0, 0.0, 1.0, 0.05, 0.0)" width="32.05" xlink:href="#shape0"/>
    </g>
    <g id="shape0" transform="matrix(1.0, 0.0, 0.0, 1.0, -0.05, 0.0)">
      <path d="M27.35 7.4 Q29.5 11.55 30.9 16.15 32.35 20.85 32.05 25.65 31.7 30.6 27.85 33.75 24.05 36.95 19.1 37.8 L16.5 38.0 Q12.9 38.0 9.45 36.85 4.8 35.25 2.35 31.35 -0.2 27.4 0.05 23.0 0.25 18.6 2.05 13.7 3.85 8.75 7.0 5.05 10.1 1.3 14.7 0.1 L16.5 0.0 Q18.4 0.05 20.2 0.8 24.95 2.85 27.35 7.4" fill="#ffffff" fill-rule="evenodd" stroke="none"/>
    </g>
    <g id="sprite1" transform="matrix(1.0, 0.0, 0.0, 1.0, 0.45, 0.5)">
      <use height="38.95" transform="matrix(1.0, 0.0, 0.0, 1.0, -0.45, -0.5)" width="33.05" xlink:href="#shape1"/>
    </g>
    <g id="shape1" transform="matrix(1.0, 0.0, 0.0, 1.0, 0.45, 0.5)">
      <path d="M27.35 7.4 Q24.95 2.85 20.2 0.8 17.55 -0.3 14.7 0.1 10.1 1.3 7.0 5.05 3.85 8.75 2.05 13.7 0.25 18.6 0.05 23.0 -0.2 27.4 2.35 31.35 4.8 35.25 9.45 36.85 14.1 38.4 19.1 37.8 24.05 36.95 27.85 33.75 31.7 30.6 32.05 25.65 32.35 20.85 30.9 16.15 29.5 11.55 27.35 7.4 Z" fill="none" stroke="#010102" stroke-linecap="round" stroke-linejoin="round" stroke-width="1.0"/>
    </g>
    <g id="shape2" transform="matrix(1.0, 0.0, 0.0, 1.0, 13.65, -0.45)">
      <path d="M17.6 17.5 L17.55 17.55 17.95 17.3 19.05 16.6 Q20.85 12.5 20.4 8.1 L20.3 6.8 Q17.85 10.1 14.85 12.8 L14.85 14.3 Q14.8 15.45 13.9 16.3 L13.25 16.85 10.7 16.55 10.25 20.3 11.55 19.9 Q14.8 19.1 17.6 17.5 M14.8 9.45 L14.1 10.55 14.5 11.4 Q18.9 7.85 21.45 2.95 L21.1 2.4 20.6 1.95 Q18.55 4.95 15.3 6.7 L14.8 9.45 M22.15 14.05 Q21.6 19.4 17.1 22.25 12.65 25.0 7.35 24.35 L-1.65 23.75 Q-8.05 24.5 -10.45 19.35 -10.95 18.3 -11.05 17.1 L-12.15 16.1 -13.55 7.4 Q-14.05 4.1 -11.95 1.45 -8.9 4.4 -5.45 6.8 L-5.35 5.7 -4.9 5.35 Q-0.65 3.75 2.5 7.35 L3.35 8.4 6.6 8.25 Q8.6 5.55 11.9 4.85 13.65 4.45 15.2 5.55 17.75 3.85 19.95 1.5 L20.8 0.45 21.95 2.45 Q22.35 3.25 22.25 4.05 L21.95 4.85 21.65 5.15 Q22.6 9.55 22.15 14.05 M7.8 11.7 L7.3 13.25 Q9.0 14.8 11.1 15.25 L12.45 15.45 Q13.1 15.0 13.25 14.15 13.55 12.15 12.55 10.55 13.3 10.0 13.65 8.95 14.05 7.65 13.45 6.15 10.4 5.55 8.25 7.7 L7.25 8.8 7.7 10.4 7.8 11.7 M2.55 10.05 L2.9 8.8 Q0.7 6.1 -2.75 6.0 L-3.5 6.5 -3.6 7.4 Q-3.75 9.2 -2.45 10.55 -3.95 13.15 -2.25 15.4 L-1.25 15.25 Q1.05 14.6 2.8 12.9 L2.55 10.05 M4.4 9.6 L3.85 9.95 3.85 11.5 3.9 11.75 4.4 12.5 6.25 12.4 6.35 12.05 6.4 10.8 6.1 9.8 5.45 9.3 4.65 9.35 4.4 9.6 M5.5 14.2 L5.1 14.2 3.4 13.8 2.6 14.75 1.15 16.95 1.35 21.55 2.0 21.75 2.8 22.05 3.6 22.2 5.1 22.3 5.15 22.3 6.85 22.2 8.25 22.15 8.95 21.8 9.05 20.25 Q9.15 17.2 7.4 14.65 L6.7 13.95 5.5 14.2 M-2.4 20.0 L0.15 20.65 0.1 16.2 -2.4 16.95 -4.05 16.45 Q-4.75 15.9 -4.75 15.15 L-4.95 13.65 -11.2 7.7 -10.8 11.0 -9.9 15.6 Q-7.95 17.35 -5.65 18.5 L-5.55 18.55 -2.4 20.0 M13.0 21.0 Q11.45 21.15 10.3 22.15 L9.5 22.85 11.9 22.9 Q17.55 23.5 19.75 18.8 L19.95 18.1 Q16.7 20.05 13.0 21.0 M-12.1 5.05 L-11.85 5.9 -4.7 12.05 -4.25 10.95 -5.4 7.8 -12.0 3.25 -12.1 5.05 M-4.0 21.3 L-9.85 18.1 -9.6 19.0 Q-8.0 22.65 -3.9 22.45 L0.35 22.45 -4.0 21.3" fill="#00141c" fill-rule="evenodd" stroke="none"/>
      <path d="M11.9 22.9 L13.0 21.0 Q16.7 20.05 19.95 18.1 L19.75 18.8 Q17.55 23.5 11.9 22.9 M-4.0 21.3 L-3.9 22.45 Q-8.0 22.65 -9.6 19.0 L-9.85 18.1 -4.0 21.3" fill="#33a00f" fill-rule="evenodd" stroke="none"/>
      <path d="M11.9 22.9 L9.5 22.85 10.3 22.15 Q11.45 21.15 13.0 21.0 L11.9 22.9 M-3.9 22.45 L-4.0 21.3 0.35 22.45 -3.9 22.45" fill="#2a720f" fill-rule="evenodd" stroke="none"/>
      <path d="M11.55 19.9 Q14.85 17.15 16.1 13.4 L17.6 14.0 17.9 15.8 Q17.95 16.65 17.6 17.5 14.8 19.1 11.55 19.9 M14.8 9.45 L15.3 6.7 Q18.55 4.95 20.6 1.95 L21.1 2.4 20.05 3.9 Q17.75 7.0 14.8 9.45 M5.15 22.3 L5.5 20.7 Q6.2 17.5 5.5 14.2 L6.7 13.95 7.4 14.65 7.05 15.9 Q6.4 19.0 6.85 22.2 L5.15 22.3 M2.5 15.25 Q2.2 16.25 2.05 17.3 1.7 19.4 1.5 21.55 L2.4 21.7 2.5 15.25 M2.6 14.75 L3.6 14.3 3.6 22.2 2.8 22.05 2.0 21.75 1.35 21.55 1.15 16.95 2.6 14.75 M-2.4 16.95 L-2.4 20.0 -5.55 18.55 -5.65 18.5 Q-7.95 17.35 -9.9 15.6 L-10.8 11.0 -4.75 15.15 Q-4.75 15.9 -4.05 16.45 L-2.4 16.95 M-5.25 9.4 L-5.75 7.9 -8.55 6.3 -5.25 9.4 M-4.25 10.95 L-5.9 10.05 Q-9.25 7.95 -12.1 5.05 L-12.0 3.25 -5.4 7.8 -4.25 10.95 M-5.55 18.55 L-5.8 17.6 -7.2 15.05 -8.1 13.7 -7.95 16.9 -7.2 17.45 -5.55 18.55" fill="#33a02c" fill-rule="evenodd" stroke="none"/>
      <path d="M11.55 19.9 L10.25 20.3 10.7 16.55 13.25 16.85 13.9 16.3 Q14.8 15.45 14.85 14.3 L14.85 12.8 Q17.85 10.1 20.3 6.8 L20.4 8.1 Q20.85 12.5 19.05 16.6 L17.95 17.3 17.55 17.55 17.6 17.5 Q17.95 16.65 17.9 15.8 L17.6 14.0 16.1 13.4 Q14.85 17.15 11.55 19.9 M21.1 2.4 L21.45 2.95 Q18.9 7.85 14.5 11.4 L14.1 10.55 14.8 9.45 Q17.75 7.0 20.05 3.9 L21.1 2.4 M5.1 14.2 L5.5 14.2 Q6.2 17.5 5.5 20.7 L5.15 22.3 5.1 22.3 5.1 14.2 5.1 22.3 3.6 22.2 3.6 14.3 2.6 14.75 3.4 13.8 5.1 14.2 M7.4 14.65 Q9.15 17.2 9.05 20.25 L8.95 21.8 8.25 22.15 6.85 22.2 Q6.4 19.0 7.05 15.9 L7.4 14.65 M-2.4 16.95 L0.1 16.2 0.15 20.65 -2.4 20.0 -2.4 16.95 M-10.8 11.0 L-11.2 7.7 -4.95 13.65 -4.75 15.15 -10.8 11.0 M-4.25 10.95 L-4.7 12.05 -11.85 5.9 -12.1 5.05 Q-9.25 7.95 -5.9 10.05 L-4.25 10.95" fill="#296300" fill-rule="evenodd" stroke="none"/>
      <path d="M8.45 10.55 L8.15 9.7 8.55 9.05 7.6 8.95 10.5 6.5 11.05 6.7 9.75 9.15 9.65 13.3 9.05 13.0 8.3 12.85 8.4 11.4 8.45 10.55 M-2.05 15.3 L-2.15 15.3 -2.15 15.25 -2.6 13.1 Q-1.45 10.8 -2.5 8.4 L-3.35 6.75 -0.9 6.45 -1.9 13.0 Q-2.05 14.05 -1.0 14.7 L-2.05 15.3 M3.85 11.5 L4.4 9.6 4.65 9.35 5.45 9.3 6.1 9.8 5.9 11.2 4.7 11.35 3.9 11.75 3.85 11.5" fill="#e3ffe4" fill-rule="evenodd" stroke="none"/>
      <path d="M8.4 11.4 L8.3 12.85 9.05 13.0 9.65 13.3 9.75 9.15 11.05 6.7 10.5 6.5 7.6 8.95 8.55 9.05 8.15 9.7 8.45 10.55 7.7 10.4 7.25 8.8 8.25 7.7 Q10.4 5.55 13.45 6.15 14.05 7.65 13.65 8.95 13.3 10.0 12.55 10.55 13.55 12.15 13.25 14.15 13.1 15.0 12.45 15.45 L11.1 15.25 Q9.0 14.8 7.3 13.25 L7.8 11.7 8.4 11.4 M13.5 6.7 Q12.8 9.1 11.1 10.75 L12.25 10.55 Q13.65 9.3 13.55 7.35 L13.5 6.7 M2.55 10.05 L0.1 10.8 2.05 11.9 -1.0 14.7 Q-2.05 14.05 -1.9 13.0 L-0.9 6.45 -3.35 6.75 -2.5 8.4 Q-1.45 10.8 -2.6 13.1 L-2.15 15.25 -2.2 15.3 -2.15 15.3 -2.05 15.3 Q0.0 14.75 1.8 13.55 L2.8 12.9 Q1.05 14.6 -1.25 15.25 L-2.25 15.4 Q-3.95 13.15 -2.45 10.55 -3.75 9.2 -3.6 7.4 L-3.5 6.5 -2.75 6.0 Q0.7 6.1 2.9 8.8 L2.55 10.05 M3.85 11.5 L3.85 9.95 4.4 9.6 3.85 11.5 M6.1 9.8 L6.4 10.8 6.35 12.05 6.25 12.4 4.4 12.5 3.9 11.75 4.7 11.35 5.9 11.2 6.1 9.8 M8.25 13.7 L11.95 15.1 12.8 14.55 Q13.45 12.35 12.25 10.55 12.25 13.85 8.85 13.85 L8.25 13.7" fill="#24cf28" fill-rule="evenodd" stroke="none"/>
      <path d="M8.4 11.4 L7.8 11.7 7.7 10.4 8.45 10.55 8.4 11.4 M13.5 6.7 L13.55 7.35 Q13.65 9.3 12.25 10.55 L11.1 10.75 Q12.8 9.1 13.5 6.7 M-1.0 14.7 L2.05 11.9 0.1 10.8 2.55 10.05 2.8 12.9 1.8 13.55 Q0.0 14.75 -2.05 15.3 L-1.0 14.7 M-2.15 15.3 L-2.2 15.3 -2.15 15.25 -2.15 15.3 M8.25 13.7 L8.85 13.85 Q12.25 13.85 12.25 10.55 13.45 12.35 12.8 14.55 L11.95 15.1 8.25 13.7" fill="#248c00" fill-rule="evenodd" stroke="none"/>
      <path d="M2.5 15.25 L2.4 21.7 1.5 21.55 Q1.7 19.4 2.05 17.3 2.2 16.25 2.5 15.25 M-5.25 9.4 L-8.55 6.3 -5.75 7.9 -5.25 9.4 M-5.55 18.55 L-7.2 17.45 -7.95 16.9 -8.1 13.7 -7.2 15.05 -5.8 17.6 -5.55 18.55" fill="#79e26d" fill-rule="evenodd" stroke="none"/>
      <path d="M5.1 14.2 L5.1 22.3" fill="none" stroke="#00141c" stroke-linecap="round" stroke-linejoin="round" stroke-width="1.0"/>
    </g>
  </defs>
</svg>
