<svg xmlns:xlink="http://www.w3.org/1999/xlink" height="82" width="84.85" xmlns="http://www.w3.org/2000/svg"><g transform="translate(37.4 42.25)"><use height="43.4" transform="matrix(-1 0 0 1 35.55 -18.95)" width="30.2" xlink:href="#a"/><use height="43.4" transform="translate(-27.9 -18.95)" width="30.2" xlink:href="#a"/><use height="38" transform="translate(-11.95 -17.45)" width="32.05" xlink:href="#b"/><use height="38.95" transform="translate(-12.45 -17.95)" width="33.05" xlink:href="#c"/><use height="31.25" transform="translate(-16.7 -5.3)" width="41.9" xlink:href="#d"/></g><defs><use height="43.4" width="30.2" xlink:href="#e" id="a"/><use height="38" width="32.05" xlink:href="#f" id="b"/><use height="38.95" width="33.05" xlink:href="#g" id="c"/><path d="M27.35 7.4q2.15 4.15 3.55 8.75 1.45 4.7 1.15 9.5-.35 4.95-4.2 8.1-3.8 3.2-8.75 4.05l-2.6.2q-3.6 0-7.05-1.15-4.65-1.6-7.1-5.5Q-.2 27.4.05 23q.2-4.4 2-9.3Q3.85 8.75 7 5.05 10.1 1.3 14.7.1l1.8-.1q1.9.05 3.7.8 4.75 2.05 7.15 6.6" fill="#fff" fill-rule="evenodd" transform="translate(-.05)" id="f"/><path d="M27.35 7.4Q24.95 2.85 20.2.8 17.55-.3 14.7.1 10.1 1.3 7 5.05q-3.15 3.7-4.95 8.65-1.8 4.9-2 9.3-.25 4.4 2.3 8.35 2.45 3.9 7.1 5.5 4.65 1.55 9.65.95 4.95-.85 8.75-4.05 3.85-3.15 4.2-8.1.3-4.8-1.15-9.5-1.4-4.6-3.55-8.75Z" fill="none" stroke="#010102" stroke-linecap="round" stroke-linejoin="round" transform="translate(.45 .5)" id="g"/><g id="e" fill-rule="evenodd"><path d="M-14.15-14Q-8.8-30.05 3.7-12.55 9.95-3.75 15.1 8.2l-.45 1.45Q7.8 14.95-.7 14.2q-6.45-.55-11.25-10.25-4.9-9.85-2.2-17.95" transform="translate(15.1 21.7)"/><path d="M13.35 7.65q-1.85 3.6-3.8 6.4-6.3 9.1-11.85 7.4-5.55-1.65-2.35-8.7 1-2.2 2.8-4.7L-.3 6l15.05-1.35-1.4 3" transform="translate(15.1 21.7)"/><path d="M-5.4-11.1q0-2.2 1.7-3 1.45-.65 2.8 0 2.4 1.15 4.85 4.75Q6-6.4 9.2.05q1.25 2.1 3.05 6.75l.8.5q.7.6-.05 1.2-.95.4-3.85 4.5L6.6 15.85Q5.1 17.65 4.1 18q-1.7.6-3.1-.4-1.45-1.05-1.2-3Q0 13 3.65 9.7q-5.25-.2-7.3-4.3-.55-1.15-.5-2.4.1-1.45 1.3-1.5.55 0 1.65.75Q-.15 3 .45 2.9-1.4.65-2.35-.05-5.5-2.25-6.2-3.3q-1.6-2.45 1.5-3.15.55-.15 3.3 1.15 0-.85-1.95-2.95-2-2.2-2.05-2.85" fill="#7dd1ff" transform="translate(15.1 21.7)"/><path d="M-3.4-16.75q-.25 1.5-1.6 2.5l-1.95 1.15q-1.1.9-1.1 1.65l.65 1.95q.6 1.25.1 1.9-.25.35-1.1.6l-.9.75Q-9.7-5-7.55-2q-2.35.95-4.1-1.1-.95-1.2-.95-1.9.85-1.05.8-1.85-1.3-.5-1.85-1.75-.55-1.3.45-2.25 1.55-.7 1.65-1.5l-.5-1.15v-1.35q.2-1.85 1.25-3.35 1.25-1.75 2.9-1.8 3.25 0 4.5 3.25m-7.65 18.4Q-11.3-.2-10.3-.6q2.1-.75 3.35 1.3.4.6 1.5 3.8-3.4.55-4.65-.45-.7-.65-.95-2.4m4.8 5.55 2.2 2.3q2.15 1.2 3.75 1.4-.45 2.2-4.5 0-1.4-.75-1.75-1.65-.65-1.75.3-2.05m4.1 6.95q.2 2.15 1 3.25.7 1.05 2.6 1.85-.55 1.05-2.75.85-2.15-.2-2.7-1.2-1.75-3.05 1.7-4.75h.15" fill="#29b4ff" transform="translate(15.1 21.7)"/><path d="m.7-13.2 2.4 2.8 2 2.35Q5.85-7 6.6-4.65q.3.5.95 1.3L8.5-1.6l1.35 3.25L11.35 5l1.1 1.75q.85 1.1.75 1.5-1.85-1.75-7.15 1.5-1.85 1.1-3.25 3.05L.35 16.5q-1.5-.6-.5-2.65.7-1.4 1.95-2.6 1.6-1.45 2.8-1.9Q6.5 8.6 6.45 7.4q-3.85-.25-5.6-1Q-2.55 4-4.3 3.1q.1-1.6 1.2-1.5.4 0 2.2.75 3.45 1.5 4.7 2.75.25-2.7-2.7-5.85Q-1-2.9-2.6-3.85q-3.9-1.6-3.7-1.9 1.4-1.9 4.6.4L2.55-1.9q-.7-4.6-3.1-7.95l-2-2.25q-1.3-.65-1.65-1-.85-1.05.35-1.15l1.2-.1q2-.05 3.35 1.15" fill="#29b4ff" transform="translate(15.1 21.7)"/><path d="M-7.35-19.2h.05-.95q3.5-.5 3.35 3.1-.2 3.65-3.8 3.55-3.4-.1-2.45-3.4.85-3.15 3.8-3.25M-8.2-10h-.7q1.3.15 1.45.9.15.7-.6 1.35-1.95 1.8-3.7-.4-.65-.8-.55-1.75.1-.95 1-1.3l2.1.3q1.3.6 1 .9m-1.45 7.5q-.8.05-1.7-.95-1-1.05-.2-1.55.8-.45 1.65.8.8 1.1.25 1.7m2.75 5.9q-1.6.65-2.6-.6-.9-1.1-.8-2.8 1.55.05 3.25 1.85 1.75 1.8-.5 2.15l.65-.6" fill="#ff2990" transform="translate(15.1 21.7)"/><path d="m-8.05-17.1-.2-.15q1.75-.45 1.6 1.3-.2 1.8-1.85 1.75-1.6-.05-1.2-1.3.45-1.15 1.65-1.6m-2.6 7.6q-.65-1.05.7-1.8 1.6-.85 1.8 1 .2 1.6-1.5 1.85-1.6.2-1-1.05" fill="#ffb8e6" transform="translate(15.1 21.7)"/><path d="M-8.15-20.65q.85-.1 2.1.65 1.4.85 1.2 1.65-1.9-1.7-3.5-1.15-2.5.75-3.35 3.15-.25.85-.15 2.2l.5 2.15q-.15.5-1.55 1.2-.9.8-.75 1.7.2 1.55 1.25 1.85 1.1.35.4 1.25-.25.35-.1 1.75.05.75.95 1.7l.85.55q.15.25-.55-.25-1.45-.45-2.1-1.65-.3-.5-.15-1.35.15-.85-.05-1.25-1.05-.85-1.25-1.9-.35-1.4.4-2.6.9-.9 1.25-1.5.15-.25 0-2-.2-2 1.15-3.9 1.35-2 3.45-2.25M-11.1.4q.1 2.65 1.6 3.55l4 .5q-2.05 1.3-4.5-.3-.8-.5-1.1-1.95-.2-1.05 0-1.8m5.15 9.8q.8.15 2.15 1.25l3 .15q-.3 1.2-3.05.4l-1.4-.75-.7-1.05m6.2 10q-1.15.2-2.1 0-1-.2-1.85-.75l-.95-1.4h.15q2.05 1.3 3 1.35l3.1-.4q.2.95-1.35 1.2" fill="#fff" transform="translate(15.1 21.7)"/></g><g id="d" fill-rule="evenodd"><path d="m-14 15.65-.75.95.8.25q3.3.55 6.1-1.35-.55 3.85 2.1 6.7 3.45-.55 5.6-3.2 1 3.3 3.95 5.25 1.2.1 1.9-.6 2.15-1.85 3.45-4.55 2.1 2.15 4.95 2.45 1.95-2.7 1.5-6 3.7 3.35 7.6.95l-1.15-1.05q-1.9-3.2-2.85-6.8l-.5-1.8-.05-.9-2 1.1q-6.45 3.1-12 7.6L.6 11.8q-5.35-3.6-11.4-5.85v.8q-.6 3.65-2.35 7.2l-.85 1.7M20.25 5.2q-.3 6.35 4.95 11.45-3 2.25-6.55 1.3l-1.9-.45q0 1.95-.95 3.6l-.65 1-3.1.25q-1.1-.2-1.95-.9l-.75-.5q-.8 2.15-2.6 3.6l-2.3 1.4q-2.65-.85-4.2-3.2L-.7 21.1q-1.6 1.65-4.05 2.25l-1.65.15q-2.25-1.85-2.7-4.65l-.2-1.65q-2.55 1.25-5.45.4l-1.95-.5q4.6-5.35 4.2-11.5l-1.2-.25-.05-1.65.4-1.7q6.25-.5 11.7 2.8Q1.5 6.65 4.4 9.1q5.5-4.95 12.75-6.5l3.6-.75.3.9V4.3l-.35.75-.45.15M.5 10.45l3.95 2.75 5.3-3.6q5-3.3 10.5-5.35L19.7 2.8l-2.55.45-4.1 1.45-1.65 1-4.55 3.1-2.4 1.7Q.9 7.3-3.35 4.95-7.25 2.9-11.8 2.9l-.65 1.7q.85 1.1 2.35.7l2.5.9 8.1 4.25" fill="#33082f" transform="translate(16.7 5.3)"/><path d="m-14 15.65.85-1.7q1.75-3.55 2.35-7.2Q-7.65 7.8-4.7 9.5q4.7 2.85 9.15 6.3l4.7-3.25q4.45-3.3 9.55-5.7l.5 1.8q.95 3.6 2.85 6.8-3.95 1.6-7.55-.95l-.15 1.55q-.3 2.4-2.15 3.75l-4.4-2.15q-1.25 2.95-3.9 4.7-2.85-2.1-4.25-5.45Q-2.2 20-5.8 20.15q-1.8-3.2-.9-6.8l-.8.65q-2.95 2.2-6.5 1.65m27.2-5.55.15.95q.75 3.75 4.75 4.25-3.1-1.95-4.9-5.2m-17.4.1-.8 1q-2.7 3.8-.75 8.05 1.4-4.4 1.55-9.05m14 4.4-.6 3.25 2.75 1.1L9.8 14.6" fill="#ff78a8" transform="translate(16.7 5.3)"/><path d="m22.05 15.45 1.15 1.05q-3.9 2.4-7.6-.95.45 3.3-1.5 6-2.85-.3-4.95-2.45-1.3 2.7-3.45 4.55-.7.7-1.9.6Q.85 22.3-.15 19q-2.15 2.65-5.6 3.2-2.65-2.85-2.1-6.7-2.8 1.9-6.1 1.35l-.8-.25.75-.95q3.55.55 6.5-1.65l.8-.65q-.9 3.6.9 6.8Q-2.2 20-.35 16.9q1.4 3.35 4.25 5.45 2.65-1.75 3.9-4.7l4.4 2.15q1.85-1.35 2.15-3.75l.15-1.55q3.6 2.55 7.55.95m-32.85-8.7v-.8Q-4.75 8.2.6 11.8l4.05 2.85q5.55-4.5 12-7.6l2-1.1.05.9q-5.1 2.4-9.55 5.7l-4.7 3.25Q0 12.35-4.7 9.5q-2.95-1.7-6.1-2.75" fill="#f24e91" transform="translate(16.7 5.3)"/><path d="M.5 10.45-7.6 6.2l1.85.75Q-2.4 8.3.5 10.45M-12.45 4.6l.65-1.7q4.55 0 8.45 2.05Q.9 7.3 4.45 10.5l2.4-1.7q4.7-1.15 8-4.6l-1.8.5 4.1-1.45L13.55 6q-4.2 2.8-8.7 5.2L-2 7.75q-5.05-2.4-10.45-3.15m9.95 1.35q-.85-.4-1.7-.7-2-.9-4-1.7l-.25.1-1.25 1 7.2 1.3" fill="#ffada8" transform="translate(16.7 5.3)"/><path d="m17.15 3.25 2.55-.45.55 1.45Q14.75 6.3 9.75 9.6l-5.3 3.6L.5 10.45q-2.9-2.15-6.25-3.5L-7.6 6.2l-2.5-.9q-1.5.4-2.35-.7 5.4.75 10.45 3.15l6.85 3.45q4.5-2.4 8.7-5.2l3.6-2.75" fill="#f66" transform="translate(16.7 5.3)"/><path d="M13.2 10.1q1.8 3.25 4.9 5.2-4-.5-4.75-4.25l-.15-.95m-3.4 4.5 2.15 4.35-2.75-1.1.6-3.25m-14-4.4q-.15 4.65-1.55 9.05Q-7.7 15-5 11.2l.8-1" fill="#ffcce1" transform="translate(16.7 5.3)"/><path d="m6.85 8.8 4.55-3.1 1.65-1 1.8-.5q-3.3 3.45-8 4.6M-2.5 5.95l-7.2-1.3 1.25-1 .25-.1q2 .8 4 1.7.85.3 1.7.7" fill="#ffdddc" transform="translate(16.7 5.3)"/><path d="m15.95-5.3.15.1-.1.1-.05-.2" fill="#ff7900" transform="translate(16.7 5.3)"/><path d="m6.1 10.35-.35-.85-.25-.65q-1.95-.95-3.6.5l-.1 1-1.55.1q-1.75 1.5-.6 3.65l1.1.2q-.5 1.15-.1 2.4l.3.65q1 1.3 2.25.35l.85-.6q.7 1.25 2 1.1l.4-.25L7.9 16.7l.35-.55-.75-1.55.6-.25.1-.05.65-.3q.45-2.6-1.65-4.05l-.45.2-.55.05-.1.15M.85 9.4Q1.3 8.6 2 8.1q2.9-2.4 4.6.9.9-.15 1.75.5Q12 12.15 8.9 15q.5.85.2 1.7-1.45 4.1-5.15 1.65-.7.75-1.8.9-1.5 0-2.25-1.3-1.05-1.85-.9-3.4l-.3-.3Q-3.25 10.4.85 9.4" fill="#141423" transform="translate(16.7 5.3)"/><path d="m3.2 9.05-.9.3-.25 1.45 1.8-1.35.5-.35v-.2l-1.15.15M.75 11.1l-.55-.3-.55 1.05-.05.65.7-.65.45-.75m.5-.45q-.7-.35-.5.15 1 .4.8 0l-.3-.15m-.6 6.05q-.4-1.25.1-2.4l-1.1-.2q-1.15-2.15.6-3.65l1.55-.1.1-1q1.65-1.45 3.6-.5l.25.65.35.85-.5.75 2.05.3v-.7l-.2-.2-.7-.35.45-.2Q9.3 11.4 8.85 14l-.65.3.35-.65.3-.75-.75-1.7q.2 1.55-.45 3.15h.45l-.6.25.75 1.55-.35.55-.3-1.65-.2.85q-.75 1.65-2.65 1.7l.55.45 1.15-.1-.4.25q-1.3.15-2-1.1l-.85.6q-1.25.95-2.25-.35 1.5 1.3 2.75-.35l.2-.5-3.05-.05-.25-.4.05.65M5.6 9.3l-.9-.6.7 1.75.15-.25.05-.45V9.3m.2 2.15-.6-.25q-2.4-.35-3.15 1.8-.6 1.6.8 2.4l2.15.2q2.8-1.3.8-4.15m1 3.2q-.75 1.1-1.95 1.45l-.65.05-.1.5q1.25.3 2.3-.7l.55-.7-.15-.6M.1 14q1.25.5.7-.35-.65 0-1.05-.4l-.3-.85.15 1.3.5.3" fill="#51e5e1" transform="translate(16.7 5.3)"/><path d="m3.9 12.4.05-1-.75.5-.3.65.5.15q-.2.8 0 1.75l.15.35-.35.65.95.1.05-.5q.9-.1 1.4-.8l.25-.3q-.15-1.9-1.95-1.55m1.9-.95q2 2.85-.8 4.15l-2.15-.2q-1.4-.8-.8-2.4.75-2.15 3.15-1.8l.6.25" fill="#0041a0" transform="translate(16.7 5.3)"/><path d="m3.4 12.7.6.25-.1-.55q1.8-.35 1.95 1.55l-.25.3q-.5.7-1.4.8l-.25-1.25-.4 1-.15-.35q-.2-.95 0-1.75" fill="#00295b" transform="translate(16.7 5.3)"/><path d="m3.4 12.7-.5-.15.3-.65.75-.5-.05 1 .1.55-.6-.25m.8 2.35-.05.5-.95-.1.35-.65.4-1 .25 1.25" fill="#e3f0ff" transform="translate(16.7 5.3)"/><path d="m1.25 10.65.3.15q.2.4-.8 0-.2-.5.5-.15m-.6 6.05-.05-.65.25.4 3.05.05-.2.5q-1.25 1.65-2.75.35l-.3-.65m5.8 1.25-1.15.1-.55-.45q1.9-.05 2.65-1.7l.2-.85.3 1.65-1.45 1.25m1.65-3.6h-.45q.65-1.6.45-3.15l.75 1.7-.3.75-.35.65-.1.05M5.6 9.3v.45l-.05.45-.15.25-.7-1.75.9.6M.1 14l-.5-.3-.15-1.3.3.85q.4.4 1.05.4.55.85-.7.35" fill="#0d6ecc" transform="translate(16.7 5.3)"/><path d="m.75 11.1-.45.75-.7.65.05-.65.55-1.05.55.3M3.2 9.05l1.15-.15v.2l-.5.35-1.8 1.35.25-1.45.9-.3m3.55 1.1.7.35.2.2v.7l-2.05-.3.5-.75.1-.15.55-.05m.05 4.5.15.6-.55.7q-1.05 1-2.3.7l.1-.5.65-.05q1.2-.35 1.95-1.45" fill="#fff" transform="translate(16.7 5.3)"/></g></defs></svg>