<?xml version="1.0" encoding="UTF-8" standalone="no"?>
<svg xmlns:xlink="http://www.w3.org/1999/xlink" height="82.0px" width="84.85px" xmlns="http://www.w3.org/2000/svg">
  <g transform="matrix(1.0, 0.0, 0.0, 1.0, 37.4, 42.25)">
    <use height="38.0" transform="matrix(1.0, 0.0, 0.0, 1.0, -11.95, -17.45)" width="32.05" xlink:href="#sprite0"/>
    <use height="38.95" transform="matrix(1.0, 0.0, 0.0, 1.0, -12.45, -17.95)" width="33.05" xlink:href="#sprite1"/>
    <use height="24.8" transform="matrix(1.0, 0.0, 0.0, 1.0, -15.7, 1.95)" width="40.4" xlink:href="#shape2"/>
  </g>
  <defs>
    <g id="sprite0" transform="matrix(1.0, 0.0, 0.0, 1.0, -0.05, 0.0)">
      <use height="38.0" transform="matrix(1.0, 0.0, 0.0, 1.0, 0.05, 0.0)" width="32.05" xlink:href="#shape0"/>
    </g>
    <g id="shape0" transform="matrix(1.0, 0.0, 0.0, 1.0, -0.05, 0.0)">
      <path d="M27.35 7.4 Q29.5 11.55 30.9 16.15 32.35 20.85 32.05 25.65 31.7 30.6 27.85 33.75 24.05 36.95 19.1 37.8 L16.5 38.0 Q12.9 38.0 9.45 36.85 4.8 35.25 2.35 31.35 -0.2 27.4 0.05 23.0 0.25 18.6 2.05 13.7 3.85 8.75 7.0 5.05 10.1 1.3 14.7 0.1 L16.5 0.0 Q18.4 0.05 20.2 0.8 24.95 2.85 27.35 7.4" fill="#ffffff" fill-rule="evenodd" stroke="none"/>
    </g>
    <g id="sprite1" transform="matrix(1.0, 0.0, 0.0, 1.0, 0.45, 0.5)">
      <use height="38.95" transform="matrix(1.0, 0.0, 0.0, 1.0, -0.45, -0.5)" width="33.05" xlink:href="#shape1"/>
    </g>
    <g id="shape1" transform="matrix(1.0, 0.0, 0.0, 1.0, 0.45, 0.5)">
      <path d="M27.35 7.4 Q24.95 2.85 20.2 0.8 17.55 -0.3 14.7 0.1 10.1 1.3 7.0 5.05 3.85 8.75 2.05 13.7 0.25 18.6 0.05 23.0 -0.2 27.4 2.35 31.35 4.8 35.25 9.45 36.85 14.1 38.4 19.1 37.8 24.05 36.95 27.85 33.75 31.7 30.6 32.05 25.65 32.35 20.85 30.9 16.15 29.5 11.55 27.35 7.4 Z" fill="none" stroke="#010102" stroke-linecap="round" stroke-linejoin="round" stroke-width="1.0"/>
    </g>
    <g id="shape2" transform="matrix(1.0, 0.0, 0.0, 1.0, 15.7, -1.95)">
      <path d="M-12.65 13.25 L-13.45 13.1 -14.0 13.6 -14.5 12.8 -12.35 9.7 Q-9.55 12.15 -5.95 13.5 2.05 16.3 10.3 13.95 15.9 12.25 21.05 9.5 L21.85 12.35 22.4 12.7 22.15 14.2 24.7 16.95 24.4 17.8 23.1 18.2 21.7 18.3 22.35 19.55 22.65 20.8 19.55 19.95 18.55 22.75 15.8 21.1 15.3 22.05 Q14.5 23.5 13.1 24.45 L10.45 22.6 9.45 23.85 8.4 24.9 6.65 23.2 5.65 25.35 5.2 25.5 3.2 22.95 2.0 24.1 0.55 25.1 -0.45 23.25 -2.05 24.7 -2.75 24.8 -3.35 21.9 -4.05 22.65 Q-5.1 23.7 -6.6 24.0 L-7.5 21.7 -8.3 22.35 Q-9.6 23.35 -11.25 23.2 L-11.05 19.75 -11.5 20.1 -12.0 20.2 -13.1 20.35 -12.9 17.3 -15.7 17.2 -14.65 16.4 Q-13.2 15.1 -12.65 13.25 L-12.05 12.6 -10.6 13.5 Q-9.65 14.2 -9.4 15.45 L-8.0 15.65 Q-6.0 15.95 -4.3 16.8 L-2.15 18.9 Q2.0 16.95 6.4 18.2 L9.25 19.1 11.95 16.65 16.1 16.1 17.85 14.45 Q19.15 13.35 20.75 13.45 L20.2 11.45 19.05 12.0 Q15.05 14.15 10.7 15.25 L9.4 15.55 -3.2 16.0 -5.0 15.3 Q-8.8 13.8 -12.05 11.35 L-12.65 13.25 M20.85 19.45 L20.0 17.3 21.25 17.65 Q22.25 17.6 23.0 16.9 L20.75 14.45 17.75 16.0 17.45 16.4 16.85 17.45 14.95 17.25 12.65 17.75 11.5 18.7 9.7 20.5 6.8 19.55 Q2.25 18.6 -1.85 20.65 L-3.3 19.4 Q-5.65 17.65 -8.5 16.65 L-10.1 16.75 -11.25 14.45 -14.0 16.65 -12.0 16.75 -12.15 18.9 -11.3 18.6 -10.35 18.35 -9.65 18.45 -10.0 21.4 -7.05 20.3 -6.0 22.55 -4.05 21.15 -3.0 20.4 -2.15 23.2 -0.25 21.8 0.95 23.7 3.6 21.3 5.1 23.7 6.1 21.45 8.4 23.35 10.2 21.25 11.4 21.85 13.1 22.5 15.0 19.7 16.35 20.4 16.75 20.6 17.85 21.15 18.45 18.65 20.85 19.45" fill="#2b0003" fill-rule="evenodd" stroke="none"/>
      <path d="M17.75 16.0 L20.85 19.45 18.45 18.65 17.85 21.15 16.75 20.6 17.45 16.4 17.75 16.0 M16.35 20.4 L15.0 19.7 13.1 22.5 11.4 21.85 12.65 17.75 14.95 17.25 16.35 20.4 M-4.05 21.15 L-6.0 22.55 -7.05 20.3 -10.0 21.4 -9.65 18.45 -10.35 18.35 -11.3 18.6 -12.15 18.9 -12.0 16.75 -14.0 16.65 -11.25 14.45 -10.1 16.75 -8.5 16.65 -4.05 21.15" fill="#bf401f" fill-rule="evenodd" stroke="none"/>
      <path d="M17.75 16.0 L20.75 14.45 23.0 16.9 Q22.25 17.6 21.25 17.65 L20.0 17.3 20.85 19.45 17.75 16.0 M16.75 20.6 L16.35 20.4 14.95 17.25 16.85 17.45 17.45 16.4 16.75 20.6 M11.4 21.85 L10.2 21.25 8.4 23.35 6.1 21.45 5.1 23.7 3.6 21.3 0.95 23.7 -0.25 21.8 -2.15 23.2 -3.0 20.4 -4.05 21.15 -8.5 16.65 Q-5.65 17.65 -3.3 19.4 L-1.85 20.65 Q2.25 18.6 6.8 19.55 L9.7 20.5 11.5 18.7 12.65 17.75 11.4 21.85" fill="#912914" fill-rule="evenodd" stroke="none"/>
      <path d="M-12.65 13.25 L-12.05 11.35 Q-8.8 13.8 -5.0 15.3 L-3.2 16.0 -4.3 16.8 Q-6.0 15.95 -8.0 15.65 L-9.4 15.45 Q-9.65 14.2 -10.6 13.5 L-12.05 12.6 -12.65 13.25 M10.7 15.25 Q15.05 14.15 19.05 12.0 L20.2 11.45 20.75 13.45 Q19.15 13.35 17.85 14.45 L16.1 16.1 11.95 16.65 11.35 15.1 10.7 15.25" fill="#e28b7d" fill-rule="evenodd" stroke="none"/>
      <path d="M-3.2 16.0 L9.4 15.55 10.7 15.25 11.35 15.1 11.95 16.65 9.25 19.1 6.4 18.2 Q2.0 16.95 -2.15 18.9 L-4.3 16.8 -3.2 16.0" fill="#c64c46" fill-rule="evenodd" stroke="none"/>
      <path d="M7.0 8.3 Q12.55 6.75 17.35 3.8 L20.2 1.95 21.15 3.15 Q19.35 7.8 14.7 9.85 11.35 11.4 7.7 11.75 L7.15 11.3 7.25 10.85 7.6 10.75 11.85 9.6 Q14.7 8.4 17.35 6.95 L18.55 6.15 19.05 5.75 Q20.0 4.95 20.55 3.85 L19.75 3.35 Q15.25 6.7 9.9 8.45 L7.25 9.3 7.0 8.3 M0.65 12.05 Q-4.55 11.2 -9.15 8.3 L-13.05 5.35 -12.2 2.85 -11.8 2.0 Q-7.7 5.4 -2.55 7.55 L1.6 8.65 1.5 9.65 Q-3.6 8.75 -8.1 5.8 L-11.65 3.2 -12.25 4.7 Q-8.5 7.75 -3.9 9.7 L-0.95 10.4 1.7 11.05 1.75 11.25 0.65 12.05" fill="#2b0003" fill-rule="evenodd" stroke="none"/>
      <path d="M7.25 9.3 L9.9 8.45 Q15.25 6.7 19.75 3.35 L17.5 5.4 Q13.05 9.05 7.25 9.95 L7.25 9.3 M18.55 6.15 L17.35 6.95 Q14.7 8.4 11.85 9.6 L18.55 6.15 M7.6 10.75 L7.25 10.85 7.25 10.8 7.6 10.75 M1.7 11.05 L-0.95 10.4 1.7 11.0 1.7 11.05 M-3.9 9.7 Q-8.5 7.75 -12.25 4.7 L-11.65 3.2 -8.1 5.8 Q-3.6 8.75 1.5 9.65 L1.6 10.4 -3.9 9.7" fill="#bf401f" fill-rule="evenodd" stroke="none"/>
      <path d="M19.75 3.35 L20.55 3.85 Q20.0 4.95 19.05 5.75 L18.55 6.15 11.85 9.6 7.6 10.75 7.25 10.8 7.25 9.95 Q13.05 9.05 17.5 5.4 L19.75 3.35 M-0.95 10.4 L-3.9 9.7 1.6 10.4 1.7 11.0 -0.95 10.4" fill="#912914" fill-rule="evenodd" stroke="none"/>
      <path d="M7.15 11.3 L7.7 11.75 9.95 17.0 Q7.9 20.1 6.2 23.25 L4.25 26.75 Q3.95 25.0 3.1 23.5 1.65 20.85 -0.85 19.45 L-0.5 18.95 Q0.0 18.25 -0.25 17.35 L-0.7 15.35 0.65 12.05 1.75 11.25 2.6 12.6 Q1.1 13.85 0.55 15.65 L0.8 16.4 Q1.2 17.8 0.65 19.1 L1.4 19.5 Q4.05 20.8 4.3 24.0 L6.65 21.0 Q6.95 18.7 8.55 17.0 L8.55 16.3 Q8.5 13.85 6.25 12.55 L7.15 11.3" fill="#050505" fill-rule="evenodd" stroke="none"/>
      <path d="M4.35 8.6 L5.45 8.35 Q6.3 9.15 5.9 10.4 5.45 11.7 4.5 11.95 L3.4 11.2 2.75 10.55 2.9 9.65 3.3 8.5 4.35 8.6 3.85 8.6 3.4 8.9 3.2 10.6 3.65 11.25 4.3 11.25 Q5.55 10.9 5.65 9.5 L5.3 8.9 Q4.9 8.6 4.35 8.6 M5.3 13.05 L5.25 13.15 5.1 13.1 5.3 13.05 M4.1 14.1 L3.75 14.7 3.5 13.25 3.5 13.15 3.5 13.1 4.2 13.2 4.1 14.1 M2.15 13.75 L1.2 15.65 1.85 16.0 1.55 18.65 2.85 18.8 4.75 16.55 4.35 17.7 4.2 18.15 3.9 18.6 3.5 19.2 4.35 22.4 5.65 20.1 6.05 19.95 6.45 16.6 6.2 15.8 6.35 15.45 6.45 16.6 6.75 17.05 7.7 16.15 7.4 15.45 Q6.7 13.95 5.45 13.0 L6.25 12.55 Q8.5 13.85 8.55 16.3 L8.55 17.0 Q6.95 18.7 6.65 21.0 L4.3 24.0 Q4.05 20.8 1.4 19.5 L0.65 19.1 Q1.2 17.8 0.8 16.4 L0.55 15.65 Q1.1 13.85 2.6 12.6 L3.45 13.05 3.15 13.15 2.15 13.75" fill="#686868" fill-rule="evenodd" stroke="none"/>
      <path d="M5.65 9.5 Q5.55 10.9 4.3 11.25 L3.65 11.25 3.2 10.6 5.65 9.5 M5.25 13.15 L5.3 13.05 5.45 13.0 Q6.7 13.95 7.4 15.45 L7.7 16.15 6.75 17.05 6.45 16.6 6.35 15.45 Q5.2 16.25 4.9 17.65 L4.6 19.35 6.2 15.8 6.45 16.6 6.05 19.95 5.65 20.1 4.35 22.4 3.5 19.2 3.9 18.6 4.2 18.15 4.35 17.7 4.75 16.55 2.85 18.8 1.55 18.65 1.85 16.0 1.2 15.65 2.15 13.75 2.25 16.6 3.5 13.25 3.75 14.7 4.1 14.1 4.05 15.3 4.6 15.6 4.8 16.8 6.25 13.9 5.25 13.15 M3.45 13.05 L3.5 13.1 3.5 13.15 3.15 13.15 3.45 13.05" fill="#bfbfbf" fill-rule="evenodd" stroke="none"/>
      <path d="M4.35 8.6 Q4.9 8.6 5.3 8.9 L5.65 9.5 3.2 10.6 3.4 8.9 3.85 8.6 4.35 8.6 M5.1 13.1 L5.25 13.15 6.25 13.9 4.8 16.8 4.6 15.6 4.05 15.3 4.1 14.1 4.2 13.2 5.1 13.1 M3.5 13.25 L2.25 16.6 2.15 13.75 3.15 13.15 3.5 13.15 3.5 13.25 M6.2 15.8 L4.6 19.35 4.9 17.65 Q5.2 16.25 6.35 15.45 L6.2 15.8" fill="#ffffff" fill-rule="evenodd" stroke="none"/>
      <path d="M7.0 8.3 L7.25 9.3 7.25 9.95 7.25 10.8 7.25 10.85 7.15 11.3 6.25 12.55 5.45 13.0 5.3 13.05 5.1 13.1 4.2 13.2 3.5 13.1 3.45 13.05 2.6 12.6 1.75 11.25 1.7 11.05 1.7 11.0 1.6 10.4 1.5 9.65 1.6 8.65 2.2 7.6 Q4.2 7.0 6.15 7.9 L7.0 8.3 M4.35 8.6 L3.3 8.5 2.9 9.65 2.75 10.55 3.4 11.2 4.5 11.95 Q5.45 11.7 5.9 10.4 6.3 9.15 5.45 8.35 L4.35 8.6" fill="#000000" fill-rule="evenodd" stroke="none"/>
    </g>
  </defs>
</svg>
