<svg xmlns:xlink="http://www.w3.org/1999/xlink" height="82" width="84.85" xmlns="http://www.w3.org/2000/svg"><g transform="translate(37.4 42.25)"><use height="38" transform="translate(-11.95 -17.45)" width="32.05" xlink:href="#a"/><use height="38.95" transform="translate(-12.45 -17.95)" width="33.05" xlink:href="#b"/><use height="24.8" transform="translate(-15.7 1.95)" width="40.4" xlink:href="#c"/></g><defs><path d="M27.35 7.4q2.15 4.15 3.55 8.75 1.45 4.7 1.15 9.5-.35 4.95-4.2 8.1-3.8 3.2-8.75 4.05l-2.6.2q-3.6 0-7.05-1.15-4.65-1.6-7.1-5.5Q-.2 27.4.05 23q.2-4.4 2-9.3Q3.85 8.75 7 5.05 10.1 1.3 14.7.1l1.8-.1q1.9.05 3.7.8 4.75 2.05 7.15 6.6" fill="#fff" fill-rule="evenodd" transform="translate(-.05)" id="d"/><path d="M27.35 7.4Q24.95 2.85 20.2.8 17.55-.3 14.7.1 10.1 1.3 7 5.05q-3.15 3.7-4.95 8.65-1.8 4.9-2 9.3-.25 4.4 2.3 8.35 2.45 3.9 7.1 5.5 4.65 1.55 9.65.95 4.95-.85 8.75-4.05 3.85-3.15 4.2-8.1.3-4.8-1.15-9.5-1.4-4.6-3.55-8.75Z" fill="none" stroke="#010102" stroke-linecap="round" stroke-linejoin="round" transform="translate(.45 .5)" id="e"/><use height="38" width="32.05" xlink:href="#d" id="a"/><use height="38.95" width="33.05" xlink:href="#e" id="b"/><g id="c" fill-rule="evenodd"><path d="m-12.65 13.25-.8-.15-.55.5-.5-.8 2.15-3.1q2.8 2.45 6.4 3.8 8 2.8 16.25.45 5.6-1.7 10.75-4.45l.8 2.85.55.35-.25 1.5 2.55 2.75-.3.85-1.3.4-1.4.1.65 1.25.3 1.25-3.1-.85-1 2.8-2.75-1.65-.5.95q-.8 1.45-2.2 2.4l-2.65-1.85-1 1.25L8.4 24.9l-1.75-1.7-1 2.15-.45.15-2-2.55L2 24.1l-1.45 1-1-1.85-1.6 1.45-.7.1-.6-2.9-.7.75Q-5.1 23.7-6.6 24l-.9-2.3-.8.65q-1.3 1-2.95.85l.2-3.45-.45.35-.5.1-1.1.15.2-3.05-2.8-.1 1.05-.8q1.45-1.3 2-3.15l.6-.65 1.45.9q.95.7 1.2 1.95l1.4.2q2 .3 3.7 1.15l2.15 2.1Q2 16.95 6.4 18.2l2.85.9 2.7-2.45 4.15-.55 1.75-1.65q1.3-1.1 2.9-1l-.55-2-1.15.55q-4 2.15-8.35 3.25l-1.3.3-12.6.45-1.8-.7q-3.8-1.5-7.05-3.95l-.6 1.9m33.5 6.2L20 17.3l1.25.35q1-.05 1.75-.75l-2.25-2.45-3 1.55-.3.4-.6 1.05-1.9-.2-2.3.5-1.15.95-1.8 1.8-2.9-.95q-4.55-.95-8.65 1.1L-3.3 19.4q-2.35-1.75-5.2-2.75l-1.6.1-1.15-2.3-2.75 2.2 2 .1-.15 2.15.85-.3.95-.25.7.1-.35 2.95 2.95-1.1L-6 22.55l1.95-1.4L-3 20.4l.85 2.8 1.9-1.4 1.2 1.9 2.65-2.4 1.5 2.4 1-2.25 2.3 1.9 1.8-2.1 1.2.6 1.7.65 1.9-2.8 1.35.7.4.2 1.1.55.6-2.5 2.4.8" fill="#2b0003" transform="translate(15.7 -1.95)"/><path d="m17.75 16 3.1 3.45-2.4-.8-.6 2.5-1.1-.55.7-4.2.3-.4m-1.4 4.4L15 19.7l-1.9 2.8-1.7-.65 1.25-4.1 2.3-.5 1.4 3.15m-20.4.75L-6 22.55l-1.05-2.25-2.95 1.1.35-2.95-.7-.1-.95.25-.85.3.15-2.15-2-.1 2.75-2.2 1.15 2.3 1.6-.1 4.45 4.5" fill="#bf401f" transform="translate(15.7 -1.95)"/><path d="m17.75 16 3-1.55L23 16.9q-.75.7-1.75.75L20 17.3l.85 2.15-3.1-3.45m-1 4.6-.4-.2-1.4-3.15 1.9.2.6-1.05-.7 4.2m-5.35 1.25-1.2-.6-1.8 2.1-2.3-1.9-1 2.25-1.5-2.4-2.65 2.4-1.2-1.9-1.9 1.4-.85-2.8-1.05.75-4.45-4.5q2.85 1 5.2 2.75l1.45 1.25q4.1-2.05 8.65-1.1l2.9.95 1.8-1.8 1.15-.95-1.25 4.1" fill="#912914" transform="translate(15.7 -1.95)"/><path d="m-12.65 13.25.6-1.9Q-8.8 13.8-5 15.3l1.8.7-1.1.8Q-6 15.95-8 15.65l-1.4-.2q-.25-1.25-1.2-1.95l-1.45-.9-.6.65m23.35 2q4.35-1.1 8.35-3.25l1.15-.55.55 2q-1.6-.1-2.9 1L16.1 16.1l-4.15.55-.6-1.55-.65.15" fill="#e28b7d" transform="translate(15.7 -1.95)"/><path d="m-3.2 16 12.6-.45 1.3-.3.65-.15.6 1.55-2.7 2.45-2.85-.9q-4.4-1.25-8.55.7l-2.15-2.1 1.1-.8" fill="#c64c46" transform="translate(15.7 -1.95)"/><path d="M7 8.3q5.55-1.55 10.35-4.5l2.85-1.85.95 1.2q-1.8 4.65-6.45 6.7-3.35 1.55-7 1.9l-.55-.45.1-.45.35-.1 4.25-1.15q2.85-1.2 5.5-2.65l1.2-.8.5-.4q.95-.8 1.5-1.9l-.8-.5q-4.5 3.35-9.85 5.1l-2.65.85-.25-1M.65 12.05q-5.2-.85-9.8-3.75l-3.9-2.95.85-2.5.4-.85q4.1 3.4 9.25 5.55l4.15 1.1-.1 1q-5.1-.9-9.6-3.85l-3.55-2.6-.6 1.5q3.75 3.05 8.35 5l2.95.7 2.65.65.05.2-1.1.8" fill="#2b0003" transform="translate(15.7 -1.95)"/><path d="m7.25 9.3 2.65-.85q5.35-1.75 9.85-5.1L17.5 5.4Q13.05 9.05 7.25 9.95V9.3m11.3-3.15-1.2.8Q14.7 8.4 11.85 9.6l6.7-3.45M7.6 10.75l-.35.1v-.05l.35-.05m-5.9.3-2.65-.65 2.65.6v.05M-3.9 9.7q-4.6-1.95-8.35-5l.6-1.5 3.55 2.6q4.5 2.95 9.6 3.85l.1.75-5.5-.7" fill="#bf401f" transform="translate(15.7 -1.95)"/><path d="m19.75 3.35.8.5q-.55 1.1-1.5 1.9l-.5.4-6.7 3.45-4.25 1.15-.35.05v-.85q5.8-.9 10.25-4.55l2.25-2.05M-.95 10.4l-2.95-.7 5.5.7.1.6-2.65-.6" fill="#912914" transform="translate(15.7 -1.95)"/><path d="m7.15 11.3.55.45L9.95 17Q7.9 20.1 6.2 23.25l-1.95 3.5Q3.95 25 3.1 23.5q-1.45-2.65-3.95-4.05l.35-.5q.5-.7.25-1.6l-.45-2 1.35-3.3 1.1-.8.85 1.35Q1.1 13.85.55 15.65l.25.75q.4 1.4-.15 2.7l.75.4q2.65 1.3 2.9 4.5l2.35-3q.3-2.3 1.9-4v-.7q-.05-2.45-2.3-3.75l.9-1.25" fill="#050505" transform="translate(15.7 -1.95)"/><path d="m4.35 8.6 1.1-.25q.85.8.45 2.05-.45 1.3-1.4 1.55l-1.1-.75-.65-.65.15-.9.4-1.15 1.05.1h-.5l-.45.3-.2 1.7.45.65h.65q1.25-.35 1.35-1.75l-.35-.6q-.4-.3-.95-.3m.95 4.45-.05.1-.15-.05.2-.05M4.1 14.1l-.35.6-.25-1.45v-.15l.7.1-.1.9m-1.95-.35-.95 1.9.65.35-.3 2.65 1.3.15 1.9-2.25-.4 1.15-.15.45-.3.45-.4.6.85 3.2 1.3-2.3.4-.15.4-3.35-.25-.8.15-.35.1 1.15.3.45.95-.9-.3-.7q-.7-1.5-1.95-2.45l.8-.45q2.25 1.3 2.3 3.75v.7q-1.6 1.7-1.9 4L4.3 24q-.25-3.2-2.9-4.5l-.75-.4q.55-1.3.15-2.7l-.25-.75q.55-1.8 2.05-3.05l.85.45-.3.1-1 .6" fill="#686868" transform="translate(15.7 -1.95)"/><path d="M5.65 9.5q-.1 1.4-1.35 1.75h-.65l-.45-.65 2.45-1.1m-.4 3.65.05-.1.15-.05q1.25.95 1.95 2.45l.3.7-.95.9-.3-.45-.1-1.15q-1.15.8-1.45 2.2l-.3 1.7 1.6-3.55.25.8-.4 3.35-.4.15-1.3 2.3-.85-3.2.4-.6.3-.45.15-.45.4-1.15-1.9 2.25-1.3-.15.3-2.65-.65-.35.95-1.9.1 2.85 1.25-3.35.25 1.45.35-.6-.05 1.2.55.3.2 1.2 1.45-2.9-1-.75m-1.8-.1.05.05v.05h-.35l.3-.1" fill="#bfbfbf" transform="translate(15.7 -1.95)"/><path d="M4.35 8.6q.55 0 .95.3l.35.6-2.45 1.1.2-1.7.45-.3h.5m.75 4.5.15.05 1 .75-1.45 2.9-.2-1.2-.55-.3.05-1.2.1-.9.9-.1m-1.6.15L2.25 16.6l-.1-2.85 1-.6h.35v.1m2.7 2.55-1.6 3.55.3-1.7q.3-1.4 1.45-2.2l-.15.35" fill="#fff" transform="translate(15.7 -1.95)"/><path d="m7 8.3.25 1v1.55l-.1.45-.9 1.25-.8.45-.15.05-.2.05-.9.1-.7-.1-.05-.05-.85-.45-.85-1.35-.05-.2V11l-.1-.6-.1-.75.1-1 .6-1.05q2-.6 3.95.3l.85.4m-2.65.3L3.3 8.5l-.4 1.15-.15.9.65.65 1.1.75q.95-.25 1.4-1.55.4-1.25-.45-2.05l-1.1.25" transform="translate(15.7 -1.95)"/></g></defs></svg>