<?xml version="1.0" encoding="UTF-8" standalone="no"?>
<svg xmlns:xlink="http://www.w3.org/1999/xlink" height="82.0px" width="84.85px" xmlns="http://www.w3.org/2000/svg">
  <g transform="matrix(1.0, 0.0, 0.0, 1.0, 37.4, 42.25)">
    <use height="38.0" transform="matrix(1.0, 0.0, 0.0, 1.0, -11.95, -17.45)" width="32.05" xlink:href="#sprite0"/>
    <use height="38.95" transform="matrix(1.0, 0.0, 0.0, 1.0, -12.45, -17.95)" width="33.05" xlink:href="#sprite1"/>
    <use height="26.75" transform="matrix(1.0, 0.0, 0.0, 1.0, -15.55, -0.2)" width="39.65" xlink:href="#shape2"/>
    <use height="6.15" transform="matrix(1.0, 0.0, 0.0, 1.0, 7.4, 10.9)" width="5.55" xlink:href="#sprite2"/>
    <use height="6.15" transform="matrix(0.2087, 0.9773, -0.9773, 0.2087, 19.25, 7.1)" width="5.55" xlink:href="#sprite2"/>
    <use height="6.15" transform="matrix(-0.5487, -0.8338, 0.8338, -0.5487, 15.2, 21.15)" width="5.55" xlink:href="#sprite2"/>
    <use height="6.15" transform="matrix(-0.6814, 0.7285, -0.7285, -0.6814, 11.25, 20.0)" width="5.55" xlink:href="#sprite2"/>
    <use height="6.15" transform="matrix(0.3784, 0.9214, -0.9214, 0.3784, 4.05, 11.7)" width="5.55" xlink:href="#sprite2"/>
    <use height="6.15" transform="matrix(-0.6342, -0.7657, 0.7657, -0.6342, -4.2, 23.35)" width="5.55" xlink:href="#sprite2"/>
    <use height="6.15" transform="matrix(0.1806, -0.9756, 0.9756, 0.1806, -12.2, 17.65)" width="5.55" xlink:href="#sprite2"/>
    <use height="14.55" transform="matrix(1.0, 0.0, 0.0, 1.0, -13.3, 1.05)" width="34.85" xlink:href="#shape4"/>
  </g>
  <defs>
    <g id="sprite0" transform="matrix(1.0, 0.0, 0.0, 1.0, -0.05, 0.0)">
      <use height="38.0" transform="matrix(1.0, 0.0, 0.0, 1.0, 0.05, 0.0)" width="32.05" xlink:href="#shape0"/>
    </g>
    <g id="shape0" transform="matrix(1.0, 0.0, 0.0, 1.0, -0.05, 0.0)">
      <path d="M27.35 7.4 Q29.5 11.55 30.9 16.15 32.35 20.85 32.05 25.65 31.7 30.6 27.85 33.75 24.05 36.95 19.1 37.8 L16.5 38.0 Q12.9 38.0 9.45 36.85 4.8 35.25 2.35 31.35 -0.2 27.4 0.05 23.0 0.25 18.6 2.05 13.7 3.85 8.75 7.0 5.05 10.1 1.3 14.7 0.1 L16.5 0.0 Q18.4 0.05 20.2 0.8 24.95 2.85 27.35 7.4" fill="#ffffff" fill-rule="evenodd" stroke="none"/>
    </g>
    <g id="sprite1" transform="matrix(1.0, 0.0, 0.0, 1.0, 0.45, 0.5)">
      <use height="38.95" transform="matrix(1.0, 0.0, 0.0, 1.0, -0.45, -0.5)" width="33.05" xlink:href="#shape1"/>
    </g>
    <g id="shape1" transform="matrix(1.0, 0.0, 0.0, 1.0, 0.45, 0.5)">
      <path d="M27.35 7.4 Q24.95 2.85 20.2 0.8 17.55 -0.3 14.7 0.1 10.1 1.3 7.0 5.05 3.85 8.75 2.05 13.7 0.25 18.6 0.05 23.0 -0.2 27.4 2.35 31.35 4.8 35.25 9.45 36.85 14.1 38.4 19.1 37.8 24.05 36.95 27.85 33.75 31.7 30.6 32.05 25.65 32.35 20.85 30.9 16.15 29.5 11.55 27.35 7.4 Z" fill="none" stroke="#010102" stroke-linecap="round" stroke-linejoin="round" stroke-width="1.0"/>
    </g>
    <g id="shape2" transform="matrix(1.0, 0.0, 0.0, 1.0, 15.55, 0.2)">
      <path d="M23.35 18.1 L24.1 19.0 21.15 18.9 20.35 19.4 19.9 22.4 17.9 21.6 16.6 21.85 15.75 24.15 15.4 25.4 14.55 24.55 13.75 23.85 13.5 23.85 12.35 25.05 Q10.15 23.1 7.4 24.3 5.8 24.9 5.3 26.55 L3.9 25.0 3.0 24.25 -0.1 26.05 Q-0.75 24.8 -2.15 24.5 -3.95 24.0 -5.2 25.3 L-6.55 23.5 -7.0 23.05 -8.3 23.15 Q-9.4 21.75 -11.05 21.5 -12.1 21.15 -12.95 22.1 -12.95 21.45 -13.1 20.9 L-13.7 19.15 -15.55 18.6 Q-12.15 15.05 -12.4 10.2 L-12.5 9.0 Q-5.4 13.2 2.75 11.55 9.25 10.25 14.6 6.45 18.4 3.8 20.8 -0.2 L20.45 10.45 Q20.5 14.85 23.35 18.1 M4.1 23.25 L5.1 24.05 Q8.25 21.45 11.8 23.3 L12.15 22.85 12.5 22.5 13.55 22.15 14.5 22.55 Q15.55 20.5 17.8 20.15 L18.6 20.2 19.4 18.6 Q20.05 17.55 21.1 17.45 17.5 11.35 19.3 3.85 L19.6 2.5 Q13.0 11.0 2.2 12.85 -4.45 13.8 -10.75 11.25 L-11.1 14.15 Q-11.6 15.7 -12.7 16.8 L-13.4 17.55 -12.05 18.35 -11.95 18.6 -11.8 19.95 Q-9.15 19.35 -8.0 21.75 -6.75 21.55 -5.85 22.4 L-4.9 23.3 Q-3.35 22.5 -1.6 23.05 -0.5 23.35 0.05 24.25 1.85 23.1 4.1 23.25" fill="#351904" fill-rule="evenodd" stroke="none"/>
      <path d="M-11.1 14.15 Q-6.1 14.7 -2.1 17.6 L-0.9 16.65 Q4.05 13.05 9.75 15.7 L10.65 14.75 Q12.1 13.25 13.75 12.25 13.5 14.45 12.35 16.1 9.15 20.65 4.1 23.25 1.85 23.1 0.05 24.25 -0.5 23.35 -1.6 23.05 -3.35 22.5 -4.9 23.3 L-5.85 22.4 Q-6.75 21.55 -8.0 21.75 -9.15 19.35 -11.8 19.95 L-11.95 18.6 -12.05 18.35 -13.4 17.55 -12.7 16.8 Q-11.6 15.7 -11.1 14.15" fill="#fe9f34" fill-rule="evenodd" stroke="none"/>
      <path d="M-11.1 14.15 L-10.75 11.25 Q-4.45 13.8 2.2 12.85 13.0 11.0 19.6 2.5 L19.3 3.85 Q17.5 11.35 21.1 17.45 20.05 17.55 19.4 18.6 L18.6 20.2 17.8 20.15 Q15.55 20.5 14.5 22.55 L13.55 22.15 12.5 22.5 12.15 22.85 11.8 23.3 Q8.25 21.45 5.1 24.05 L4.1 23.25 Q9.15 20.65 12.35 16.1 13.5 14.45 13.75 12.25 12.1 13.25 10.65 14.75 L9.75 15.7 Q4.05 13.05 -0.9 16.65 L-2.1 17.6 Q-6.1 14.7 -11.1 14.15" fill="#b55b10" fill-rule="evenodd" stroke="none"/>
    </g>
    <g id="sprite2" transform="matrix(1.0, 0.0, 0.0, 1.0, 0.0, 0.0)">
      <use height="6.15" transform="matrix(1.0, 0.0, 0.0, 1.0, 0.0, 0.0)" width="5.55" xlink:href="#shape3"/>
    </g>
    <g id="shape3" transform="matrix(1.0, 0.0, 0.0, 1.0, 0.0, 0.0)">
      <path d="M0.85 0.55 Q2.45 -0.65 4.25 0.75 6.15 2.25 5.3 4.75 4.7 5.45 3.25 3.3 4.15 5.8 3.0 6.1 1.9 6.45 0.65 4.25 -0.7 2.0 0.85 0.55" fill="#020202" fill-rule="evenodd" stroke="none"/>
    </g>
    <g id="shape4" transform="matrix(1.0, 0.0, 0.0, 1.0, 13.3, -1.05)">
      <path d="M20.45 1.35 L20.8 2.0 Q21.7 3.65 21.55 4.1 L21.2 4.5 Q17.7 6.55 16.7 9.5 16.55 9.9 16.1 9.8 14.0 9.3 11.7 10.7 10.05 11.7 9.7 13.2 L9.45 13.5 9.0 13.5 Q6.9 12.5 3.4 13.05 -0.25 13.6 -1.75 15.4 -1.9 15.65 -2.25 15.55 -4.7 14.7 -8.2 14.2 -11.65 13.75 -12.05 14.2 -12.25 15.05 -12.75 14.8 -13.35 14.8 -13.3 13.7 -13.0 10.45 -8.6 10.5 L-8.55 10.5 Q2.0 12.1 11.8 6.85 14.85 5.25 17.5 3.1 L19.55 1.25 Q19.7 1.05 20.0 1.05 20.3 1.05 20.45 1.35" fill="#3f1d03" fill-rule="evenodd" stroke="none"/>
      <path d="M17.65 5.45 Q16.2 6.75 15.75 8.65 14.25 8.3 12.4 9.0 9.95 9.9 8.8 12.3 6.7 11.3 3.25 11.85 -0.55 12.4 -2.75 14.5 -7.95 12.15 -11.25 13.0 L-12.5 13.0 -12.5 11.25 -12.0 11.25 Q0.6 13.25 10.4 8.95 15.95 6.5 19.3 2.8 21.15 4.1 20.0 4.25 18.9 4.3 17.65 5.45" fill="#fedfb3" fill-rule="evenodd" stroke="none"/>
      <path d="M19.3 2.8 Q21.15 4.1 20.0 4.25 18.9 4.3 17.65 5.45 16.2 6.75 15.75 8.65 14.25 8.3 12.4 9.0 9.95 9.9 8.8 12.3 L6.5 11.75 Q8.6 10.6 10.65 8.85 16.1 6.4 19.3 2.8" fill="#ffa748" fill-rule="evenodd" stroke="none"/>
    </g>
  </defs>
</svg>
