<svg xmlns:xlink="http://www.w3.org/1999/xlink" height="82" width="84.85" xmlns="http://www.w3.org/2000/svg"><g transform="translate(37.4 42.25)"><use height="38" transform="translate(-11.95 -17.45)" width="32.05" xlink:href="#a"/><use height="38.95" transform="translate(-12.45 -17.95)" width="33.05" xlink:href="#b"/><use height="23.55" transform="translate(-15 .6)" width="38.25" xlink:href="#c"/><use height="6.65" transform="translate(8.75 4.2)" width="6.6" xlink:href="#d"/><use height="6.65" transform="translate(-7.2 4.3)" width="6.6" xlink:href="#d"/><use height="10.4" transform="translate(-.75 4.85)" width="10.3" xlink:href="#e"/></g><defs><use height="38" width="32.05" xlink:href="#f" id="a"/><use height="38.95" width="33.05" xlink:href="#g" id="b"/><use height="6.65" width="6.6" xlink:href="#h" id="d"/><g id="c"><path d="m15.65 24-.2.05.6-.8 1.4.05-1.8.7m-24.45-.35-1.05-.2 1.45-.05-.2.1.7.65-.9-.5" fill="#fff" fill-rule="evenodd" transform="translate(15 -.6)"/><path d="m3.55 21.1-.2.05-.1.05-.15.85v.85q-1.8.9-4.1.65-8.2.85-14-4.6l.7-2.65q.6-2.65.8-5.1l.45-.2 1.4-.25q2.45-.85 4.3-2.85-1.5-2.45-4.35-2.65l-.85.35-.6-.15-.35-1.7q-.15-1.6.7-2.9l2.95-.1Q-5.05 2-2.5 6.5q6.55 1.55 13.05.05Q14.25.45 20.85.6l.6.9q.85 1.55.25 3.05l-.75.95-.65-.4-1.2.2q-2.25.6-3.65 2.6l.9.8q2.25 1.45 4.95 1.5l.05 1.3q-.15 3.55 1.9 6.6l-.7.9q-3.4 3.55-8.1 4.6-4.95 1.2-9.65-.8l.1-1.75H4l1.6-.5.3-.1-.2 1.8 4.75.35q4.45-.05 8.35-2.2 1.65-.8 2.8-2.4l-.2-.4q.95-3.1-1.75-4.65l-.4-.1-.2-1.75-2.75-.5q-1.55-.3-2.35-1.7l-2-.9-3.7.75q-6 1.15-11.75-.7-1.4.55-2.4 1.5-2.45 2.3-5.7 2.4l-.45.15q-3 2.6-1.15 5.6l-.25.7 1.9 1.3q4.3 2.6 9.3 2.65l4.5-.2-.25-1.4.35.05-.35-.05-.05-.15h.1l.3.2.6.3h.6m11.8-14.35.8-.95L18 4.35 20.3 4l.35-1.3-.5-.8-1.1-.15-1.2.15-1.45.75q-.65.35-1.25.8-1.75 1.05-2.75 2.8 1.05 1.4 2.45 1.5l.5-1m-4.8 5.1.4.9q1.2 2.55-.65 4.45-.85 1-2.3 1.25-4.65 1.1-9.15-.65l-.6-.7q-1.4-2.6-.25-5.45v-.05l.85-1.5Q4 12.7 9.3 10.05l.4.35.05.2q.25.7.8 1.25M9.6 15.9l.25-.85q.45-1.95-.9-3.5Q4.85 13.6.5 12l-1.15-.55-.7 1.8-.1.65-.05.8.1.45q.8 2.15 3.45 2.4l1.9.1 2.7-.2L9.6 15.9M-10 2.2l-1.3-.25-.8.3-.15 1.5.2.45q3.6.5 5.55 3.8l1.6-.9.65-.65Q-6.5 2.55-10 2.2" fill="#0a2228" fill-rule="evenodd" transform="translate(15 -.6)"/><path d="M-2.25 22.35q-5-.05-9.3-2.65l-1.9-1.3.25-.7q3.2 2.95 7.45 2.3l.7-.4 1.75 2.6 1.05.15m-9.35-10.4q3.25-.1 5.7-2.4 1-.95 2.4-1.5 5.75 1.85 11.75.7l3.7-.75 2 .9q.8 1.4 2.35 1.7l2.75.5.2 1.75q-2.8 1.6-5.75 2.4l-1.4.2-.05 1.35-1.75.4q1.85-1.9.65-4.45l-.4-.9 4.45-.1-.65 1q1.7-.05 2.65-1.2l-1.65-.7-4.5.8-.6-1-.55-.25-.4-.35Q4 12.7-1.15 10.1L-2 11.6l-.85.2q-2 0-3.3-1.5l-.5.15-.85.7-.65.9 1.4-1.25-.4.75.85.6q1.2.75 2.55.8l1.75-1.3q-1.15 2.85.25 5.45l.6.7-2.5-.35q.15-.75 0-1.7l-.25-1.1q-4.2-.55-7.7-2.7M10.45 22.6l-4.75-.35.2-1.8 1.7-.9 3.6-1.05.4.05-1.15 4.05m10.2-19.9q-2.35.8-4.4 2.3L15 5.9l.35.85-.5 1q-1.4-.1-2.45-1.5 1-1.75 2.75-2.8L14 4.4l1.05.7q1.4-.45 3.1-1.75l.85-.7-.55-.6-.6-.15 1.2-.15 1.1.15.5.8m-11.7 8.85q1.35 1.55.9 3.5l-.25.85-.3-2.5-.35-1.85m-2.3 5.9-2.7.2.45-.2-2.85-1.15h1.1l.85-.35 5.2-.75-2.05 2.25m-8.05-2.3-.1-.45 2.15 1-2.05-.55m3.35 5.45-.05-.05.15.05h-.1m-14.2-16.85 3.6-.8q-.5-.5-1.35-.75 3.5.35 5.75 4.25l-.65.65-1.6.9q-1.95-3.3-5.55-3.8l-.2-.45" fill="#32a8cc" fill-rule="evenodd" transform="translate(15 -.6)"/><path d="M3.55 21.1h-.6l-.6-.3-.3-.2-.15-.05.05.05.05.15.25 1.4-4.5.2-1.05-.15-1.75-2.6q.9-.65 1.25-1.55l.15-.6 2.5.35q4.5 1.75 9.15.65 1.45-.25 2.3-1.25l1.75-.4q.15 3.05 2.85 3.45l1.9.1q2.9-.35 4.6-2.75l.2.4q-1.15 1.6-2.8 2.4-3.9 2.15-8.35 2.2l1.15-4.05-.4-.05-3.6 1.05-1.7.9-.3.1-1.6.5-.45.05m17.1-18.4L20.3 4l-2.3.35-1.85 1.45-.8.95L15 5.9l1.25-.9q2.05-1.5 4.4-2.3M9.7 10.4l.55.25.6 1 4.5-.8 1.65.7q-.95 1.15-2.65 1.2l.65-1-4.45.1q-.55-.55-.8-1.25l-.05-.2M-2 11.6v.05l-1.75 1.3q-1.35-.05-2.55-.8l-.85-.6.4-.75-1.4 1.25.65-.9.85-.7.5-.15q1.3 1.5 3.3 1.5l.85-.2m11.6 4.3-2.95 1.55L8.7 15.2l-5.2.75.4-.3q-1.55.55-3.25.05l-2.15-1 .05-.8.1-.65.7-1.8L.5 12q4.35 1.6 8.45-.45l.35 1.85.3 2.5M-.45 19.15q.8.95 1.9 1.5l.55.1-.55-.1q-1.1-.55-1.9-1.5m6.05 1.4-3.25.25 3.25-.25" fill="#19656d" fill-rule="evenodd" transform="translate(15 -.6)"/><path d="m3.95 17.65-1.9-.1q-2.65-.25-3.45-2.4l2.05.55q1.7.5 3.25-.05l-.4.3-.85.35h-1.1l2.85 1.15-.45.2" fill="#70cfe5" fill-rule="evenodd" transform="translate(15 -.6)"/><path d="M-13.2 17.7q-1.85-3 1.15-5.6l.45-.15q3.5 2.15 7.7 2.7l.25 1.1q.15.95 0 1.7l-.15.6q-.35.9-1.25 1.55l-.7.4q-4.25.65-7.45-2.3m32.45-4.85.4.1q2.7 1.55 1.75 4.65-1.7 2.4-4.6 2.75l-1.9-.1q-2.7-.4-2.85-3.45l.05-1.35 1.4-.2q2.95-.8 5.75-2.4m-4.6 6.5q2.9.3 5.1-1.45l.65-.5q.6-1.7-.8-2.9l-.65-.55-.35.25q-2.6 1.15-5.5 1.95l.35 2.05.45.65.75.5m-20.3-4.05q-3.15-.8-5.85-2.15-1.35 1.55-1.3 3.45 1.65 1.6 3.7 2.45 2.55 1.15 4-.95l.2-1.1v-1.6l-.75-.1" fill="#260a0a" fill-rule="evenodd" transform="translate(15 -.6)"/><path d="M15.15 3.45q.6-.45 1.25-.8l1.45-.75.6.15.55.6-.85.7q-1.7 1.3-3.1 1.75L14 4.4l1.15-.95M-10 2.2q.85.25 1.35.75l-3.6.8.15-1.5.8-.3 1.3.25" fill="#b1e9f2" fill-rule="evenodd" transform="translate(15 -.6)"/><path d="m18.6 14.2.35-.25.65.55q1.4 1.2.8 2.9l-.65.5q-2.2 1.75-5.1 1.45l4.8-3.05-.05-.55q-.1-.85-.8-1.55m-1.65 2.4-.3-.2q.5-1.05 1.45-1.1l-.4 1-.4.2-.35.1m-.85 1.15-.15.3q-1.2.85-1.25-.15l.25-.25 1.15.1m-26.25-1.55-.25.3q-.75.55-1.45 0l-.35-.25-.1-.2.25-.25.3-.2.3.1 1.3.5m0 1.95-.55-.4 2.6.05-.2.4-1.85-.05m4.5-2.85.75.1V17l-.2 1.1-.4.35q-1.5.8-3 .45l.8-.45q1.65-1 2.05-3.15m-3.25 1.1.75-.25L-7 15.7l.2.2-.35.6-1.75-.1" fill="#a14000" fill-rule="evenodd" transform="translate(15 -.6)"/><path d="m13.45 18.2-.15-1.75 2.45-.95 1.2-.35-.4.5-3.1 2.55m-23.6-2-1.3-.5-.3-.1-.3.2-.25.25.1.2.35.25-.7.2q.05-1.75 1.25-3.2l3.6 1.75-.2.45-2.25.5" fill="#ffd2a1" fill-rule="evenodd" transform="translate(15 -.6)"/><path d="M18.6 14.2q.7.7.8 1.55l.05.55-4.8 3.05-.75-.5-.45-.65-.35-2.05q2.9-.8 5.5-1.95m-2.5 3.55-1.15-.1-.25.25q.05 1 1.25.15l.15-.3m.85-1.15.35-.1.4-.2.4-1q-.95.05-1.45 1.1l.3.2m-3.5 1.6 3.1-2.55.4-.5-1.2.35-2.45.95.15 1.75m-25.3-1.7q.7.55 1.45 0l.25-.3 2.25-.5.2-.45-3.6-1.75q-1.2 1.45-1.25 3.2l.7-.2m1.7 1.65 1.85.05.2-.4-2.6-.05.55.4m5.05-.05q-1.45 2.1-4 .95-2.05-.85-3.7-2.45-.05-1.9 1.3-3.45 2.7 1.35 5.85 2.15-.4 2.15-2.05 3.15l-.8.45q1.5.35 3-.45l.4-.35m-3.8-1.7 1.75.1.35-.6-.2-.2-1.15.45-.75.25" fill="#ff9100" fill-rule="evenodd" transform="translate(15 -.6)"/><path d="M2.35 20.8 2 20.75l-.55-.1q-1.1-.55-1.9-1.5m6.35 1.3-.3.1-3.25.25m5.25-1.25-1.7.9" fill="none" stroke="#0a2228" stroke-linecap="round" stroke-linejoin="round" transform="translate(15 -.6)"/></g><g id="h" fill-rule="evenodd"><path d="M1 1q.95-1 2.3-1 3.3 0 3.3 3.35 0 1.35-.95 2.35-.95.95-2.35.95-1.35 0-2.3-.95-1-1-1-2.35Q0 1.95 1 1" fill="#1e190b"/><path d="M.95 3.35Q.95 1 3.3 1t2.35 2.3q0 2.35-2.3 2.35-2.3.1-2.4-2.3" fill="#8e660d"/><path d="M3.3 1q1.05 0 1.7.75-2.3 2.6-3.5 3-.55-.65-.55-1.4Q.95 1 3.3 1m.05 4.65q-.75 0-1.4-.4L5.6 3.6q-.2 2.05-2.25 2.05" fill="#fcd108"/><path d="M4.75 1.45H4.7q-2.65.85-3.75 2 1.45-3.55 3.8-2" fill="#fff"/></g><g id="e" fill-rule="evenodd"><path d="M7.55 6.6q-.75-.6-1.4-.45H5.6l-.5.25q-.75.8-1.05 1.8l-.15.75q-.35-.9-1.2-1.5l-.6-.4Q1.05 7 .5 7.95L.45 7.9V8l-.3.6.4.85 1.3 1.15-1.3 1.45-.35.55q0 .6.4 1.05.35.4.9.4l.8.3q1.1-.15 1.55-1.05l.15-.5.55-.05.55.4q1.25 1 2.4.15l.55-.5.45-1.2-.15-.45q0-.45-.5-.75-.55-.3-1.3-.3Q8.6 9.15 7.95 7l-.4-.4m-4.1.65Q4.7 4.45 7.7 4.9q2.6 1.75.7 4.35l-.35.45q3.55 2.95-1.25 4.5-1.3.5-2.55-.55-2.35 3.45-4.8-.6-.25-.4.05-.9l.95-1.5q-3-3.4 1.55-3.95.7 0 1.45.55" fill="#471404" transform="translate(.75 -4.85)"/><path d="M5.6 6.15h.55q.65-.15 1.4.45l-.35 1Q6.6 9.3 5 10l1.55.1q.75 0 1.3.3.5.3.5.75l-.25-.5-.1 1.3-.7.45-3.55-.9q-.15 1-.8 1.35l-1.3.5L.2 12.6l.35-.55 1.3-1.45.7-.15.35-.5-.7-.3Q1.05 9.1.5 7.95q.55-.95 1.6-.9l.6.4q.85.6 1.2 1.5l.15-.75q.3-1 1.05-1.8l-.15.8.85.55.65-.2.2-.6-.2-.6-.85-.2m-3.55 1.3-.5-.15-.5.15-.2.4.2.4.5.15.5-.15.2-.4-.2-.4m-1.5 2-.4-.85.3-.6.1 1.45m4.05.9-.15-.25q-.15-.15-.35-.15-.2 0-.35.15l-.15.25.15.3.35.1.35-.1.15-.3m1.45.3-.4.15-.15.25.15.3.4.1.4-.1.15-.3-.15-.25q-.15-.15-.4-.15m-.95 2.5 1 .2.8.25.3-.15.85-.65-.55.5q-1.15.85-2.4-.15M4 12.8l-.15.5q-.45.9-1.55 1.05l-.8-.3.6.05q1.35 0 1.9-1.3" fill="#ff4c06" transform="translate(.75 -4.85)"/><path d="M.5 7.95q.55 1.15 1.7 1.7l.7.3-.35.5-.7.15-1.3-1.15L.45 8v-.1l.05.05M.2 12.6l1.45.75 1.3-.5q.65-.35.8-1.35l3.55.9.7-.45.1-1.3.25.5.15.45-.45 1.2-.85.65-.3.15-.8-.25-1-.2-.55-.4-.55.05q-.55 1.3-1.9 1.3l-.6-.05q-.55 0-.9-.4-.4-.45-.4-1.05m6.35-2.5L5 10q1.6-.7 2.2-2.4l.35-1 .4.4q.65 2.15-1.4 3.1" fill="#c62e05" transform="translate(.75 -4.85)"/><path d="m5.6 6.15.85.2.2.6-.2.6-.65.2-.85-.55.15-.8.5-.25m-3.55 1.3.2.4-.2.4-.5.15-.5-.15-.2-.4.2-.4.5-.15.5.15m2.55 2.9-.15.3-.35.1-.35-.1-.15-.3.15-.25q.15-.15.35-.15.2 0 .35.15l.15.25m1.45.3q.25 0 .4.15l.15.25-.15.3-.4.1-.4-.1-.15-.3.15-.25.4-.15" fill="#fff" transform="translate(.75 -4.85)"/></g><path d="M27.35 7.4q2.15 4.15 3.55 8.75 1.45 4.7 1.15 9.5-.35 4.95-4.2 8.1-3.8 3.2-8.75 4.05l-2.6.2q-3.6 0-7.05-1.15-4.65-1.6-7.1-5.5Q-.2 27.4.05 23q.2-4.4 2-9.3Q3.85 8.75 7 5.05 10.1 1.3 14.7.1l1.8-.1q1.9.05 3.7.8 4.75 2.05 7.15 6.6" fill="#fff" fill-rule="evenodd" transform="translate(-.05)" id="f"/><path d="M27.35 7.4Q24.95 2.85 20.2.8 17.55-.3 14.7.1 10.1 1.3 7 5.05q-3.15 3.7-4.95 8.65-1.8 4.9-2 9.3-.25 4.4 2.3 8.35 2.45 3.9 7.1 5.5 4.65 1.55 9.65.95 4.95-.85 8.75-4.05 3.85-3.15 4.2-8.1.3-4.8-1.15-9.5-1.4-4.6-3.55-8.75Z" fill="none" stroke="#333" stroke-linecap="round" stroke-linejoin="round" transform="translate(.45 .5)" id="g"/></defs></svg>