<?xml version="1.0" encoding="UTF-8" standalone="no"?>
<svg xmlns:xlink="http://www.w3.org/1999/xlink" height="82.0px" width="84.85px" xmlns="http://www.w3.org/2000/svg">
  <g transform="matrix(1.0, 0.0, 0.0, 1.0, 37.4, 42.25)">
    <use height="38.0" transform="matrix(1.0, 0.0, 0.0, 1.0, -11.95, -17.45)" width="32.05" xlink:href="#sprite0"/>
    <use height="38.95" transform="matrix(1.0, 0.0, 0.0, 1.0, -12.45, -17.95)" width="33.05" xlink:href="#sprite1"/>
    <use height="24.55" transform="matrix(1.0, 0.0, 0.0, 1.0, -14.45, 0.25)" width="36.6" xlink:href="#shape2"/>
  </g>
  <defs>
    <g id="sprite0" transform="matrix(1.0, 0.0, 0.0, 1.0, -0.05, 0.0)">
      <use height="38.0" transform="matrix(1.0, 0.0, 0.0, 1.0, 0.05, 0.0)" width="32.05" xlink:href="#shape0"/>
    </g>
    <g id="shape0" transform="matrix(1.0, 0.0, 0.0, 1.0, -0.05, 0.0)">
      <path d="M27.35 7.4 Q29.5 11.55 30.9 16.15 32.35 20.85 32.05 25.65 31.7 30.6 27.85 33.75 24.05 36.95 19.1 37.8 L16.5 38.0 Q12.9 38.0 9.45 36.85 4.8 35.25 2.35 31.35 -0.2 27.4 0.05 23.0 0.25 18.6 2.05 13.7 3.85 8.75 7.0 5.05 10.1 1.3 14.7 0.1 L16.5 0.0 Q18.4 0.05 20.2 0.8 24.95 2.85 27.35 7.4" fill="#ffffff" fill-rule="evenodd" stroke="none"/>
    </g>
    <g id="sprite1" transform="matrix(1.0, 0.0, 0.0, 1.0, 0.45, 0.5)">
      <use height="38.95" transform="matrix(1.0, 0.0, 0.0, 1.0, -0.45, -0.5)" width="33.05" xlink:href="#shape1"/>
    </g>
    <g id="shape1" transform="matrix(1.0, 0.0, 0.0, 1.0, 0.45, 0.5)">
      <path d="M27.35 7.4 Q24.95 2.85 20.2 0.8 17.55 -0.3 14.7 0.1 10.1 1.3 7.0 5.05 3.85 8.75 2.05 13.7 0.25 18.6 0.05 23.0 -0.2 27.4 2.35 31.35 4.8 35.25 9.45 36.85 14.1 38.4 19.1 37.8 24.05 36.95 27.85 33.75 31.7 30.6 32.05 25.65 32.35 20.85 30.9 16.15 29.5 11.55 27.35 7.4 Z" fill="none" stroke="#333333" stroke-linecap="round" stroke-linejoin="round" stroke-width="1.0"/>
    </g>
    <g id="shape2" transform="matrix(1.0, 0.0, 0.0, 1.0, 14.45, -0.25)">
      <path d="M12.9 7.25 L12.9 5.75 Q16.9 4.85 19.25 1.7 L19.75 0.85 Q20.75 2.35 20.6 6.85 20.45 11.35 22.15 16.6 18.95 20.6 12.9 21.65 L12.9 20.4 14.1 20.25 Q18.4 19.65 21.25 16.4 19.2 9.65 19.85 2.65 L19.4 3.35 Q17.25 6.45 13.45 7.1 L12.9 7.25 M-3.9 20.4 L-3.9 21.8 -8.05 19.9 -14.45 16.45 -13.5 11.75 Q-12.15 6.4 -12.3 0.8 L-11.35 1.7 Q-8.2 4.65 -4.1 5.95 L-3.9 7.55 Q-7.2 6.45 -10.0 4.2 L-11.85 2.65 Q-11.45 6.15 -11.7 9.45 -11.95 12.15 -12.7 14.6 L-13.05 15.65 -13.25 16.05 -12.65 16.45 -8.5 18.5 Q-7.5 19.0 -6.45 19.45 L-5.8 19.7 -3.9 20.4" fill="#2c0233" fill-rule="evenodd" stroke="none"/>
      <path d="M12.9 20.4 L12.9 20.3 Q15.8 19.85 18.4 18.35 L19.7 17.6 16.45 11.1 Q16.3 13.55 14.55 15.25 L13.7 16.1 13.45 7.1 Q17.25 6.45 19.4 3.35 L19.85 2.65 Q19.2 9.65 21.25 16.4 18.4 19.65 14.1 20.25 L12.9 20.4 M-3.9 7.55 L-3.9 14.25 Q-5.75 15.55 -7.8 16.4 L-9.3 17.0 Q-8.35 14.75 -8.1 12.5 -10.2 14.85 -12.65 16.45 L-13.25 16.05 -13.05 15.65 -12.0 14.5 Q-9.85 12.2 -8.35 9.75 L-7.15 11.05 -6.1 12.25 -5.15 9.45 -11.0 6.5 -11.0 7.6 Q-11.1 11.3 -12.7 14.6 -11.95 12.15 -11.7 9.45 -11.45 6.15 -11.85 2.65 L-10.0 4.2 Q-7.2 6.45 -3.9 7.55 M-3.9 20.35 L-3.9 20.4 -5.8 19.7 -3.9 20.35" fill="#fc8e5e" fill-rule="evenodd" stroke="none"/>
      <path d="M12.9 20.3 L12.9 7.25 13.45 7.1 13.7 16.1 14.55 15.25 Q16.3 13.55 16.45 11.1 L19.7 17.6 18.4 18.35 Q15.8 19.85 12.9 20.3 M-3.9 14.25 L-3.9 20.35 -5.8 19.7 -6.45 19.45 Q-7.5 19.0 -8.5 18.5 L-12.65 16.45 Q-10.2 14.85 -8.1 12.5 -8.35 14.75 -9.3 17.0 L-7.8 16.4 Q-5.75 15.55 -3.9 14.25" fill="#f26140" fill-rule="evenodd" stroke="none"/>
      <path d="M-13.05 15.65 L-12.7 14.6 Q-11.1 11.3 -11.0 7.6 L-11.0 6.5 -5.15 9.45 -6.1 12.25 -7.15 11.05 -8.35 9.75 Q-9.85 12.2 -12.0 14.5 L-13.05 15.65" fill="#ffddd4" fill-rule="evenodd" stroke="none"/>
      <path d="M20.85 0.9 Q22.05 2.45 21.1 3.95 18.65 7.85 13.85 9.05 15.2 14.8 17.55 20.2 17.4 21.55 16.25 22.55 14.5 24.05 12.3 22.95 L11.65 24.0 8.0 24.75 Q7.65 24.8 7.1 23.45 L7.3 23.4 6.8 23.4 7.0 23.6 Q4.35 26.0 1.4 23.6 L0.6 24.0 -1.5 24.2 Q-3.15 23.9 -4.1 22.5 L-5.35 22.95 -6.95 22.7 Q-8.1 21.95 -8.55 20.65 -5.4 15.45 -4.8 9.3 -7.0 8.8 -8.9 7.55 -13.5 4.65 -11.9 0.4 -7.9 4.1 -2.95 5.9 2.85 8.1 9.15 7.1 15.95 6.05 19.65 0.3 L20.3 0.25 20.85 0.9 M15.0 7.35 Q17.75 6.3 19.6 4.2 L20.45 3.2 20.15 1.35 Q18.8 3.15 17.05 4.65 L16.25 5.3 11.85 7.15 Q8.15 8.35 4.2 8.25 -1.9 8.15 -7.3 5.15 L-6.95 5.45 -9.35 3.9 -12.05 1.6 -12.2 3.15 -8.55 6.05 -7.4 6.6 Q-5.2 7.65 -3.45 9.2 L-5.3 15.65 -6.95 20.2 -6.65 20.95 -6.25 21.25 -5.05 21.75 -3.65 21.1 -3.45 21.4 -1.9 22.35 -1.25 22.7 Q0.0 23.45 1.2 22.45 L1.65 22.0 1.75 22.6 2.45 23.2 3.85 23.4 6.7 22.85 7.05 22.05 7.45 22.55 Q8.4 23.6 9.55 23.0 L11.0 22.65 11.85 21.45 13.5 22.05 15.15 21.8 16.2 20.2 15.5 18.6 Q14.45 15.95 13.8 13.3 L12.65 8.5 15.0 7.35" fill="#2c0233" fill-rule="evenodd" stroke="none"/>
      <path d="M16.25 5.3 L15.0 7.35 12.65 8.5 13.8 13.3 13.3 11.4 Q13.9 16.85 13.5 22.05 L11.85 21.45 Q11.7 18.85 11.05 16.2 L10.7 14.75 9.55 23.0 Q8.4 23.6 7.45 22.55 L7.05 22.05 6.9 16.2 3.85 23.4 2.45 23.2 1.75 22.6 1.65 22.0 2.15 15.95 -1.25 22.7 -1.9 22.35 -1.3 19.75 -2.65 18.7 -3.45 21.4 -3.65 21.1 -1.6 13.5 -5.05 21.75 -6.25 21.25 Q-3.05 17.15 -3.4 10.5 L-3.45 9.2 Q-5.2 7.65 -7.4 6.6 L-8.55 6.05 -9.35 3.9 -6.95 5.45 Q-2.65 8.55 2.6 9.15 7.15 9.85 11.7 9.15 L8.15 8.5 14.35 6.35 11.85 7.15 16.25 5.3 M-6.65 20.95 L-6.95 20.2 -5.3 15.65 -6.65 20.95" fill="#ffdce5" fill-rule="evenodd" stroke="none"/>
      <path d="M16.25 5.3 L17.05 4.65 Q18.8 3.15 20.15 1.35 L20.45 3.2 19.6 4.2 Q17.75 6.3 15.0 7.35 L16.25 5.3 M13.8 13.3 Q14.45 15.95 15.5 18.6 L16.2 20.2 15.15 21.8 13.5 22.05 Q13.9 16.85 13.3 11.4 L13.8 13.3 M11.85 21.45 L11.0 22.65 9.55 23.0 10.7 14.75 11.05 16.2 Q11.7 18.85 11.85 21.45 M7.05 22.05 L6.7 22.85 3.85 23.4 6.9 16.2 7.05 22.05 M1.65 22.0 L1.2 22.45 Q0.0 23.45 -1.25 22.7 L2.15 15.95 1.65 22.0 M-3.65 21.1 L-5.05 21.75 -1.6 13.5 -3.65 21.1 M-8.55 6.05 L-12.2 3.15 -12.05 1.6 -9.35 3.9 -8.55 6.05" fill="#eb8fe5" fill-rule="evenodd" stroke="none"/>
      <path d="M-1.9 22.35 L-3.45 21.4 -2.65 18.7 -1.3 19.75 -1.9 22.35 M-6.25 21.25 L-6.65 20.95 -5.3 15.65 -3.45 9.2 -3.4 10.5 Q-3.05 17.15 -6.25 21.25 M-6.95 5.45 L-7.3 5.15 Q-1.9 8.15 4.2 8.25 8.15 8.35 11.85 7.15 L14.35 6.35 8.15 8.5 11.7 9.15 Q7.15 9.85 2.6 9.15 -2.65 8.55 -6.95 5.45" fill="#ffffff" fill-rule="evenodd" stroke="none"/>
      <path d="M2.15 19.9 L2.95 20.4 4.55 21.4 10.3 18.1 9.9 13.5 9.7 11.5 -0.8 11.5 -1.15 18.0 2.15 19.9 M11.05 18.65 L4.65 22.1 -2.1 18.3 -1.7 11.15 -1.4 10.4 10.6 10.75 10.85 12.6 11.2 16.75 11.05 18.65" fill="#2c0233" fill-rule="evenodd" stroke="none"/>
      <path d="M2.15 19.9 L-1.15 18.0 -0.8 11.5 9.7 11.5 9.9 13.5 Q9.65 16.0 7.9 18.1 L7.15 15.65 Q6.45 17.05 5.2 18.0 3.45 19.3 1.3 19.4 L2.15 19.9 M3.15 14.55 Q5.8 13.6 7.95 11.75 L-0.7 11.65 -1.05 17.75 -0.2 16.85 Q1.25 15.3 3.15 14.55" fill="#ffdce5" fill-rule="evenodd" stroke="none"/>
      <path d="M2.95 20.4 L2.15 19.9 1.3 19.4 Q3.45 19.3 5.2 18.0 6.45 17.05 7.15 15.65 L7.9 18.1 Q9.65 16.0 9.9 13.5 L10.3 18.1 4.55 21.4 2.95 20.4" fill="#eb8fe5" fill-rule="evenodd" stroke="none"/>
      <path d="M3.15 14.55 Q1.25 15.3 -0.2 16.85 L-1.05 17.75 -0.7 11.65 7.95 11.75 Q5.8 13.6 3.15 14.55" fill="#ffffff" fill-rule="evenodd" stroke="none"/>
      <path d="M3.75 12.0 L3.95 13.0 Q4.7 16.3 7.95 17.5 7.0 19.2 5.15 19.65 2.3 20.4 1.25 17.9 -0.3 14.0 3.75 12.0 M6.45 17.35 L5.9 17.1 Q5.6 17.1 5.4 17.35 5.15 17.55 5.15 17.85 L5.4 18.4 5.9 18.6 6.45 18.4 6.65 17.85 6.45 17.35 M3.5 13.75 L3.6 12.95 3.55 12.5 2.5 13.35 2.15 14.25 1.25 15.75 Q0.85 16.15 1.05 16.65 L1.2 16.8 2.15 18.5 2.55 18.85 1.75 16.9 2.15 16.5 2.3 16.3 1.85 15.7 2.35 15.05 2.25 14.5 2.5 14.7 3.15 14.75 3.5 13.75 M4.3 16.9 Q4.6 16.9 4.8 16.7 L5.0 16.2 4.8 15.7 4.3 15.5 3.8 15.7 3.6 16.2 3.8 16.7 4.3 16.9 M3.3 17.7 L2.85 17.9 2.65 18.4 2.85 18.9 3.3 19.1 Q3.55 19.1 3.75 18.9 L3.95 18.4 3.75 17.9 3.3 17.7" fill="#e00000" fill-rule="evenodd" stroke="none"/>
      <path d="M3.75 12.0 Q5.0 11.55 6.2 12.0 L4.1 12.15 Q4.45 13.25 5.55 14.2 L7.55 13.25 Q7.2 12.55 6.65 12.2 L6.2 12.0 6.65 12.2 Q7.2 12.55 7.55 13.25 L5.55 14.2 Q4.45 13.25 4.1 12.15 L6.2 12.0 Q5.0 11.55 3.75 12.0 -0.3 14.0 1.25 17.9 2.3 20.4 5.15 19.65 7.0 19.2 7.95 17.5 4.7 16.3 3.95 13.0 L3.75 12.0 M6.65 12.2 L7.25 12.6 Q9.75 14.55 7.95 17.5 9.75 14.55 7.25 12.6 L6.65 12.2 M6.45 17.35 L6.65 17.85 6.45 18.4 5.9 18.6 5.4 18.4 5.15 17.85 Q5.15 17.55 5.4 17.35 5.6 17.1 5.9 17.1 L6.45 17.35 M2.5 13.35 L2.9 14.15 3.45 13.75 3.5 13.75 3.15 14.75 2.5 14.7 2.25 14.5 2.15 14.25 2.5 13.35 M1.85 15.7 L2.3 16.3 2.15 16.5 1.75 16.9 1.75 16.85 1.85 15.7 M1.2 16.8 L1.05 16.65 Q0.85 16.15 1.25 15.75 L1.25 15.8 1.2 16.75 1.2 16.8 M3.3 17.7 L3.75 17.9 3.95 18.4 3.75 18.9 Q3.55 19.1 3.3 19.1 L2.85 18.9 2.65 18.4 2.85 17.9 3.3 17.7 M4.3 16.9 L3.8 16.7 3.6 16.2 3.8 15.7 4.3 15.5 4.8 15.7 5.0 16.2 4.8 16.7 Q4.6 16.9 4.3 16.9" fill="#000000" fill-rule="evenodd" stroke="none"/>
      <path d="M3.45 13.75 L2.5 13.35 3.55 12.5 3.6 12.95 3.5 13.75 3.45 13.75 M2.25 14.5 L2.35 15.05 1.85 15.7 1.25 15.8 1.25 15.75 2.15 14.25 2.25 14.5 M1.75 16.9 L2.55 18.85 2.15 18.5 1.2 16.8 1.2 16.75 1.75 16.85 1.75 16.9" fill="#f9cccc" fill-rule="evenodd" stroke="none"/>
      <path d="M3.45 13.75 L2.9 14.15 2.5 13.35 3.45 13.75 M1.85 15.7 L1.75 16.85 1.2 16.75 1.25 15.8 1.85 15.7" fill="#cccccc" fill-rule="evenodd" stroke="none"/>
    </g>
  </defs>
</svg>
