<?xml version="1.0" encoding="UTF-8" standalone="no"?>
<svg xmlns:xlink="http://www.w3.org/1999/xlink" height="82.0px" width="84.85px" xmlns="http://www.w3.org/2000/svg">
  <g transform="matrix(1.0, 0.0, 0.0, 1.0, 37.4, 42.25)">
    <use height="40.8" transform="matrix(1.0, 0.0, 0.0, 1.0, -16.7, -17.45)" width="42.05" xlink:href="#sprite0"/>
  </g>
  <defs>
    <g id="sprite0" transform="matrix(1.0, 0.0, 0.0, 1.0, 21.05, 20.6)">
      <use height="40.8" transform="matrix(1.0, 0.0, 0.0, 1.0, -21.05, -20.6)" width="42.05" xlink:href="#shape0"/>
    </g>
    <g id="shape0" transform="matrix(1.0, 0.0, 0.0, 1.0, 21.05, 20.6)">
      <path d="M11.15 15.8 Q14.15 12.7 15.25 8.65 L16.25 2.45 15.6 8.65 Q14.45 12.8 11.15 15.8 M17.0 0.35 L17.05 0.3 17.1 2.8 17.0 0.35" fill="#3a1412" fill-rule="evenodd" stroke="none"/>
      <path d="M8.5 -16.05 L6.15 -16.3 4.75 -15.75 Q14.4 -11.5 13.15 -0.6 12.7 3.2 9.7 5.65 18.2 1.7 15.0 -7.85 L13.7 -10.75 16.15 -7.3 15.35 -8.1 16.75 -5.95 17.6 -5.8 17.0 -4.55 18.25 -3.85 18.85 -3.3 17.25 -2.05 17.65 -1.3 17.95 -0.7 17.05 0.3 17.0 0.35 16.35 0.75 16.1 0.25 16.25 2.45 15.25 8.65 Q14.15 12.7 11.15 15.8 5.45 20.0 -1.7 19.55 -13.0 18.5 -15.9 8.65 L-16.65 2.15 -16.6 0.85 -18.5 -0.5 -17.95 -0.7 -17.45 -1.85 -19.0 -3.25 -17.1 -4.55 -17.75 -5.75 -8.9 -15.75 -8.4 -16.2 Q-4.65 -19.4 -0.05 -19.4 4.4 -19.4 8.5 -16.05 M-17.75 -5.75 L-16.85 -5.95 -15.5 -8.05 -17.75 -5.75 M-19.0 -3.25 L-18.0 -3.4 -17.1 -4.5 -19.0 -3.25 M7.15 16.75 L8.55 15.85 9.75 15.05 Q13.1 12.5 14.25 8.65 L15.05 2.45 14.5 3.25 Q11.45 7.15 6.5 6.95 L5.85 7.65 7.25 8.65 Q10.65 11.7 8.55 15.85 L7.65 16.3 7.75 15.3 Q7.85 10.9 3.8 9.05 L5.05 8.95 4.65 7.75 3.2 7.8 2.3 9.25 2.05 8.85 1.4 8.65 1.35 8.65 0.75 8.65 -0.25 10.05 -0.25 9.1 -0.85 8.65 -1.05 8.6 -0.45 9.7 -1.05 8.65 -1.15 8.6 -1.35 8.65 -2.15 9.2 -2.15 8.65 -3.5 7.65 -2.95 8.35 -4.65 7.85 -5.65 9.2 -3.95 8.8 -6.15 10.3 Q-7.85 11.6 -7.0 13.4 L-6.55 14.3 Q-7.0 16.9 -3.95 17.3 0.0 20.1 7.15 16.75 M12.75 13.05 Q10.4 16.5 6.4 17.45 10.15 17.0 12.25 13.85 L12.75 13.05 M-10.55 -11.3 L-11.45 -11.25 Q-19.3 -4.35 -11.8 3.8 L-10.8 4.6 Q-15.05 -0.4 -11.95 -6.5 -10.7 -8.95 -10.55 -11.3 M-14.7 8.65 Q-14.3 10.4 -13.4 12.0 -12.2 14.2 -10.2 15.65 L-10.2 13.05 -9.6 8.65 -15.15 3.6 -14.7 8.65" fill="#8b594d" fill-rule="evenodd" stroke="none"/>
      <path d="M13.7 -10.75 L15.0 -7.85 Q18.2 1.7 9.7 5.65 12.7 3.2 13.15 -0.6 14.4 -11.5 4.75 -15.75 L6.15 -16.3 8.5 -16.05 8.85 -15.75 13.7 -10.75 M7.65 16.3 L8.55 15.85 Q10.65 11.7 7.25 8.65 L5.85 7.65 6.5 6.95 Q11.45 7.15 14.5 3.25 L15.05 2.45 14.25 8.65 Q13.1 12.5 9.75 15.05 L8.55 15.85 7.15 16.75 7.65 16.3 M0.15 15.5 L-0.95 15.1 -0.4 14.45 0.55 14.45 0.15 15.5" fill="#6e3d34" fill-rule="evenodd" stroke="none"/>
      <path d="M7.15 16.75 Q0.0 20.1 -3.95 17.3 L-3.6 17.3 -5.6 15.9 -5.55 15.8 Q-4.3 13.25 -4.95 10.45 -5.85 11.85 -6.35 13.4 L-6.55 14.3 -7.0 13.4 Q-7.85 11.6 -6.15 10.3 L-3.95 8.8 -2.4 10.9 -1.55 9.95 -0.3 12.2 1.0 9.65 2.45 10.8 3.8 9.05 Q7.85 10.9 7.75 15.3 L7.65 16.3 7.15 16.75 M0.15 15.5 L0.55 14.45 -0.4 14.45 -0.95 15.1 0.15 15.5 M-10.55 -11.3 Q-10.7 -8.95 -11.95 -6.5 -15.05 -0.4 -10.8 4.6 L-11.8 3.8 Q-19.3 -4.35 -11.45 -11.25 L-10.55 -11.3 M-13.85 -7.8 L-14.3 -5.25 -11.95 -10.15 Q-13.5 -9.4 -13.85 -7.8 M-14.7 8.65 L-15.15 3.6 -9.6 8.65 -10.2 13.05 -10.2 15.65 Q-12.2 14.2 -13.4 12.0 -14.3 10.4 -14.7 8.65" fill="#bc8a78" fill-rule="evenodd" stroke="none"/>
      <path d="M-3.95 17.3 Q-7.0 16.9 -6.55 14.3 L-6.35 13.4 Q-5.85 11.85 -4.95 10.45 -4.3 13.25 -5.55 15.8 L-5.6 15.9 -3.6 17.3 -3.95 17.3 M-2.95 8.35 L-3.5 7.65 -2.15 8.65 -2.15 9.2 -2.95 8.35 M-0.45 9.7 L-1.05 8.6 -0.85 8.65 -0.25 9.1 -0.25 10.05 -0.45 9.7 M1.35 8.65 L1.4 8.65 2.05 8.85 2.3 9.25 1.35 8.65 M12.75 13.05 L12.25 13.85 Q10.15 17.0 6.4 17.45 10.4 16.5 12.75 13.05 M-13.85 -7.8 Q-13.5 -9.4 -11.95 -10.15 L-14.3 -5.25 -13.85 -7.8" fill="#f7c5ac" fill-rule="evenodd" stroke="none"/>
      <path d="M13.7 -10.75 L8.85 -15.75 8.5 -16.05 Q4.4 -19.4 -0.05 -19.4 -4.65 -19.4 -8.4 -16.2 L-8.9 -15.75 -17.75 -5.75 -17.1 -4.55 -19.0 -3.25 -17.45 -1.85 -18.5 -0.5 -16.6 0.85 -16.65 2.15 -15.9 8.65 Q-13.0 18.5 -1.7 19.55 5.45 20.0 11.15 15.8 14.45 12.8 15.6 8.65 L16.25 2.45 16.1 0.25 16.35 0.75 17.0 0.35 17.1 2.8 17.1 3.6 17.1 4.65 16.1 8.65 Q12.65 18.45 1.25 20.0 -12.35 21.75 -16.95 9.1 L-17.1 8.65 -17.5 6.1 -17.65 3.5 -17.6 1.65 -20.25 -0.7 -18.75 -1.9 -21.05 -3.15 -18.6 -4.9 -19.65 -5.65 -18.0 -7.2 -10.3 -15.75 -9.3 -16.65 Q-4.8 -20.6 -0.2 -20.6 5.45 -20.6 10.3 -15.75 L19.6 -5.65 18.65 -4.9 21.0 -3.15 18.65 -1.9 20.15 -0.7 17.2 1.85 17.05 0.3 17.95 -0.7 18.4 -0.55 17.35 -2.0 17.65 -1.3 17.25 -2.05 18.85 -3.3 18.25 -3.85 17.0 -4.55 17.6 -5.8 16.15 -7.3 13.7 -10.75 M-3.95 8.8 L-5.65 9.2 -4.65 7.85 -2.95 8.35 -2.15 9.2 -1.35 8.65 -1.15 8.6 -1.05 8.65 -0.45 9.7 -0.25 10.05 0.75 8.65 1.35 8.65 2.3 9.25 3.2 7.8 4.65 7.75 5.05 8.95 3.8 9.05 2.45 10.8 1.0 9.65 -0.3 12.2 -1.55 9.95 -2.4 10.9 -3.95 8.8" fill="#4b271a" fill-rule="evenodd" stroke="none"/>
      <path d="M-17.75 -5.75 L-15.5 -8.05 -16.85 -5.95 -17.75 -5.75 M-19.0 -3.25 L-17.1 -4.5 -18.0 -3.4 -19.0 -3.25 M-17.45 -1.85 L-17.95 -0.7 -18.5 -0.5 -17.45 -1.85 M17.95 -0.7 L17.65 -1.3 17.35 -2.0 18.4 -0.55 17.95 -0.7 M17.6 -5.8 L16.75 -5.95 15.35 -8.1 16.15 -7.3 17.6 -5.8" fill="#ab8172" fill-rule="evenodd" stroke="none"/>
    </g>
  </defs>
</svg>
