<?xml version="1.0" encoding="UTF-8" standalone="no"?>
<svg xmlns:xlink="http://www.w3.org/1999/xlink" height="82.0px" width="84.85px" xmlns="http://www.w3.org/2000/svg">
  <g transform="matrix(1.0, 0.0, 0.0, 1.0, 37.4, 42.25)">
    <use height="27.6" transform="matrix(1.0, 0.0, 0.0, 1.0, -26.15, -15.3)" width="60.95" xlink:href="#sprite0"/>
    <use height="40.8" transform="matrix(1.0, 0.0, 0.0, 1.0, -16.7, -17.45)" width="42.05" xlink:href="#sprite1"/>
    <use height="15.65" transform="matrix(1.0, 0.0, 0.0, 1.0, -21.95, 6.15)" width="52.1" xlink:href="#sprite2"/>
  </g>
  <defs>
    <g id="sprite0" transform="matrix(1.0, 0.0, 0.0, 1.0, 30.5, 13.45)">
      <use height="27.6" transform="matrix(1.0, 0.0, 0.0, 1.0, -30.5, -13.45)" width="60.95" xlink:href="#shape0"/>
    </g>
    <g id="shape0" transform="matrix(1.0, 0.0, 0.0, 1.0, 30.5, 13.45)">
      <path d="M11.55 -4.7 L10.35 -6.1 Q15.7 -12.55 21.15 -12.15 L10.85 -5.55 11.55 -4.7 M24.1 -11.5 L25.55 -10.8 Q28.45 -9.2 29.35 -6.0 32.1 3.45 27.9 12.35 L20.6 13.55 16.1 13.45 16.25 11.65 16.25 12.35 25.65 11.45 27.4 10.95 28.65 5.8 Q30.9 -4.75 24.1 -11.5 M16.25 8.7 L16.2 7.9 19.9 7.9 Q21.9 2.05 20.25 -3.7 L19.4 -6.2 14.6 -1.7 13.6 -2.7 13.85 -2.75 14.25 -3.0 14.15 -2.85 20.9 -8.15 23.35 -9.5 20.95 -7.55 20.15 -6.8 21.1 -3.7 21.45 0.65 Q21.65 4.5 20.6 8.3 L16.25 8.7 M-20.5 -5.45 L-19.85 -6.7 -22.9 -8.6 -22.8 -9.2 -18.3 -6.15 -15.55 -4.0 -13.85 -2.4 -14.55 -1.65 -19.3 -6.2 Q-22.05 1.05 -19.55 8.25 L-16.95 8.2 -16.95 9.05 -20.7 8.7 Q-21.1 3.9 -20.8 -0.85 L-20.5 -5.45 M-22.85 -9.2 L-23.3 -9.15 -23.1 -9.25 -22.85 -9.2 M-24.15 -11.65 L-27.1 -7.65 Q-30.4 0.6 -27.85 9.2 L-27.2 11.3 Q-30.15 7.95 -30.45 3.35 -31.15 -7.7 -22.6 -13.45 -15.9 -10.6 -10.45 -6.05 L-11.25 -5.2 Q-14.7 -8.75 -19.3 -11.1 L-22.35 -12.65 -24.15 -11.65 M-17.0 12.0 L-17.0 13.75 -18.45 14.0 Q-23.0 14.75 -26.55 11.9 L-19.4 12.85 -17.05 12.85 -17.0 12.0" fill="#00355b" fill-rule="evenodd" stroke="none"/>
      <path d="M11.55 -4.7 L10.85 -5.55 21.15 -12.15 22.4 -13.0 24.1 -11.5 Q30.9 -4.75 28.65 5.8 L27.4 10.95 25.65 11.45 25.95 10.6 Q26.95 7.3 27.1 3.65 L27.15 2.35 27.15 -0.9 Q27.1 -3.65 26.6 -6.1 L28.4 -2.45 Q28.1 -4.55 27.2 -6.5 26.3 -8.5 25.05 -10.2 L23.7 -11.65 22.4 -12.65 21.55 -12.15 19.6 -11.0 Q15.25 -8.3 11.45 -5.0 L13.25 -3.15 20.05 -9.05 14.65 -3.55 14.25 -3.0 13.85 -2.75 13.6 -2.7 11.55 -4.7 M16.25 11.65 L16.25 8.7 20.6 8.3 Q21.65 4.5 21.45 0.65 L21.1 -3.7 Q22.45 -3.05 23.35 -2.0 25.4 0.55 24.65 3.8 L23.65 8.85 20.1 9.5 18.3 9.8 16.3 9.75 16.4 11.35 22.55 11.45 16.25 12.35 16.25 11.65 M23.3 -1.3 L22.35 -1.9 21.75 6.75 22.8 3.25 23.4 5.8 Q24.3 2.25 23.3 -1.3 M20.05 9.0 L16.25 9.0 16.3 9.55 19.25 9.3 20.05 9.0 M-20.7 8.7 L-16.95 9.05 -17.0 12.0 -17.05 12.85 -19.4 12.85 -26.55 11.9 -27.0 11.8 -27.2 11.3 -27.85 9.2 Q-30.4 0.6 -27.1 -7.65 -28.85 -2.3 -28.3 3.15 L-27.85 6.75 Q-28.35 1.85 -27.3 -2.75 L-26.6 -5.65 Q-28.25 2.05 -25.85 9.35 L-25.3 10.9 -17.35 11.6 -17.2 11.1 -17.1 10.15 -17.05 9.65 -19.75 9.45 -20.7 8.7 M-13.85 -2.4 L-15.55 -4.0 -14.2 -2.9 Q-16.1 -5.6 -18.6 -7.7 L-16.3 -5.95 -13.0 -3.15 -13.85 -2.4 M-23.3 -9.15 L-23.35 -9.15 -23.1 -9.25 -23.3 -9.15 M-12.95 -3.2 L-11.4 -5.1 Q-16.05 -9.75 -22.4 -12.3 L-24.15 -11.65 -22.35 -12.65 -19.3 -11.1 Q-14.7 -8.75 -11.25 -5.2 L-12.95 -3.2" fill="#00a4d9" fill-rule="evenodd" stroke="none"/>
      <path d="M20.05 -9.05 L13.25 -3.15 11.45 -5.0 Q15.25 -8.3 19.6 -11.0 L21.55 -12.15 22.4 -12.65 23.7 -11.65 25.05 -10.2 Q26.3 -8.5 27.2 -6.5 28.1 -4.55 28.4 -2.45 L26.6 -6.1 25.65 -8.0 Q24.7 -9.7 23.3 -11.0 L20.05 -9.05 M23.3 -1.3 Q24.3 2.25 23.4 5.8 L22.8 3.25 21.75 6.75 22.35 -1.9 23.3 -1.3 M20.05 9.0 L19.25 9.3 16.3 9.55 16.25 9.0 20.05 9.0 M-24.15 -11.65 L-22.4 -12.3 Q-16.05 -9.75 -11.4 -5.1 L-12.95 -3.2 -13.0 -3.15 -16.3 -5.95 -18.6 -7.7 -21.3 -9.75 -22.9 -10.4 Q-25.2 -8.4 -26.6 -5.65 L-27.3 -2.75 Q-28.35 1.85 -27.85 6.75 L-28.3 3.15 Q-28.85 -2.3 -27.1 -7.65 L-24.15 -11.65" fill="#3fbfeb" fill-rule="evenodd" stroke="none"/>
      <path d="M14.25 -3.0 L14.65 -3.55 20.05 -9.05 23.3 -11.0 Q24.7 -9.7 25.65 -8.0 L26.6 -6.1 Q27.1 -3.65 27.15 -0.9 L27.15 2.35 26.6 0.4 25.05 9.35 17.15 10.0 17.85 10.8 23.1 10.8 Q24.7 10.8 26.0 10.15 L27.1 3.65 Q26.95 7.3 25.95 10.6 L25.65 11.45 16.25 12.35 22.55 11.45 16.4 11.35 16.3 9.75 18.3 9.8 20.1 9.5 23.65 8.85 24.65 3.8 Q25.4 0.55 23.35 -2.0 22.45 -3.05 21.1 -3.7 L20.15 -6.8 20.95 -7.55 23.35 -9.5 20.9 -8.15 14.15 -2.85 14.25 -3.0 M20.95 -7.55 L22.3 -5.0 22.25 -7.85 24.85 -2.75 24.75 -4.4 Q24.55 -6.75 23.5 -9.1 L20.95 -7.55 M-20.5 -5.45 L-20.8 -0.85 Q-21.1 3.9 -20.7 8.7 L-19.75 9.45 -17.05 9.65 -17.1 10.15 -22.4 9.25 -22.4 7.9 Q-22.5 4.95 -25.1 3.65 L-25.9 -2.2 -26.2 -1.85 Q-26.35 4.4 -25.25 10.5 L-17.2 11.1 -17.35 11.6 -25.3 10.9 -25.85 9.35 Q-28.25 2.05 -26.6 -5.65 -25.2 -8.4 -22.9 -10.4 L-21.3 -9.75 -18.6 -7.7 Q-16.1 -5.6 -14.2 -2.9 L-15.55 -4.0 -18.3 -6.15 -22.8 -9.2 -22.85 -9.2 -23.1 -9.25 -23.35 -9.15 -23.95 -7.9 -25.1 -5.25 Q-25.7 -3.85 -25.15 -2.75 L-23.0 -3.25 -22.15 3.5 Q-22.0 -1.9 -21.0 -7.2 L-19.95 -6.7 -20.5 -5.45" fill="#0074d9" fill-rule="evenodd" stroke="none"/>
      <path d="M27.15 2.35 L27.1 3.65 26.0 10.15 Q24.7 10.8 23.1 10.8 L17.85 10.8 17.15 10.0 25.05 9.35 26.6 0.4 27.15 2.35 M20.95 -7.55 L23.5 -9.1 Q24.55 -6.75 24.75 -4.4 L24.85 -2.75 22.25 -7.85 22.3 -5.0 20.95 -7.55 M-22.8 -9.2 L-22.9 -8.6 -19.85 -6.7 -20.5 -5.45 -19.95 -6.7 -21.0 -7.2 Q-22.0 -1.9 -22.15 3.5 L-23.0 -3.25 -25.15 -2.75 Q-25.7 -3.85 -25.1 -5.25 L-23.95 -7.9 -23.35 -9.15 -23.3 -9.15 -22.85 -9.2 -22.8 -9.2 M-17.2 11.1 L-25.25 10.5 Q-26.35 4.4 -26.2 -1.85 L-25.9 -2.2 -25.1 3.65 Q-22.5 4.95 -22.4 7.9 L-22.4 9.25 -17.1 10.15 -17.2 11.1" fill="#0058ab" fill-rule="evenodd" stroke="none"/>
    </g>
    <g id="sprite1" transform="matrix(1.0, 0.0, 0.0, 1.0, 21.05, 20.6)">
      <use height="40.8" transform="matrix(1.0, 0.0, 0.0, 1.0, -21.05, -20.6)" width="42.05" xlink:href="#shape1"/>
    </g>
    <g id="shape1" transform="matrix(1.0, 0.0, 0.0, 1.0, 21.05, 20.6)">
      <path d="M11.15 15.8 Q14.15 12.7 15.25 8.65 L16.25 2.45 15.6 8.65 Q14.45 12.8 11.15 15.8 M17.0 0.35 L17.05 0.3 17.1 2.8 17.0 0.35" fill="#3a1412" fill-rule="evenodd" stroke="none"/>
      <path d="M8.5 -16.05 L6.15 -16.3 4.75 -15.75 Q14.4 -11.5 13.15 -0.6 12.7 3.2 9.7 5.65 18.2 1.7 15.0 -7.85 L13.7 -10.75 16.15 -7.3 15.35 -8.1 16.75 -5.95 17.6 -5.8 17.0 -4.55 18.25 -3.85 18.85 -3.3 17.25 -2.05 17.65 -1.3 17.95 -0.7 17.05 0.3 17.0 0.35 16.35 0.75 16.1 0.25 16.25 2.45 15.25 8.65 Q14.15 12.7 11.15 15.8 5.45 20.0 -1.7 19.55 -13.0 18.5 -15.9 8.65 L-16.65 2.15 -16.6 0.85 -18.5 -0.5 -17.95 -0.7 -17.45 -1.85 -19.0 -3.25 -17.1 -4.55 -17.75 -5.75 -8.9 -15.75 -8.4 -16.2 Q-4.65 -19.4 -0.05 -19.4 4.4 -19.4 8.5 -16.05 M-17.75 -5.75 L-16.85 -5.95 -15.5 -8.05 -17.75 -5.75 M-19.0 -3.25 L-18.0 -3.4 -17.1 -4.5 -19.0 -3.25 M7.15 16.75 L8.55 15.85 9.75 15.05 Q13.1 12.5 14.25 8.65 L15.05 2.45 14.5 3.25 Q11.45 7.15 6.5 6.95 L5.85 7.65 7.25 8.65 Q10.65 11.7 8.55 15.85 L7.65 16.3 7.75 15.3 Q7.85 10.9 3.8 9.05 L5.05 8.95 4.65 7.75 3.2 7.8 2.3 9.25 2.05 8.85 1.4 8.65 1.35 8.65 0.75 8.65 -0.25 10.05 -0.25 9.1 -0.85 8.65 -1.05 8.6 -0.45 9.7 -1.05 8.65 -1.15 8.6 -1.35 8.65 -2.15 9.2 -2.15 8.65 -3.5 7.65 -2.95 8.35 -4.65 7.85 -5.65 9.2 -3.95 8.8 -6.15 10.3 Q-7.85 11.6 -7.0 13.4 L-6.55 14.3 Q-7.0 16.9 -3.95 17.3 0.0 20.1 7.15 16.75 M12.75 13.05 Q10.4 16.5 6.4 17.45 10.15 17.0 12.25 13.85 L12.75 13.05 M-10.55 -11.3 L-11.45 -11.25 Q-19.3 -4.35 -11.8 3.8 L-10.8 4.6 Q-15.05 -0.4 -11.95 -6.5 -10.7 -8.95 -10.55 -11.3 M-14.7 8.65 Q-14.3 10.4 -13.4 12.0 -12.2 14.2 -10.2 15.65 L-10.2 13.05 -9.6 8.65 -15.15 3.6 -14.7 8.65" fill="#8b594d" fill-rule="evenodd" stroke="none"/>
      <path d="M13.7 -10.75 L15.0 -7.85 Q18.2 1.7 9.7 5.65 12.7 3.2 13.15 -0.6 14.4 -11.5 4.75 -15.75 L6.15 -16.3 8.5 -16.05 8.85 -15.75 13.7 -10.75 M7.65 16.3 L8.55 15.85 Q10.65 11.7 7.25 8.65 L5.85 7.65 6.5 6.95 Q11.45 7.15 14.5 3.25 L15.05 2.45 14.25 8.65 Q13.1 12.5 9.75 15.05 L8.55 15.85 7.15 16.75 7.65 16.3 M0.15 15.5 L-0.95 15.1 -0.4 14.45 0.55 14.45 0.15 15.5" fill="#6e3d34" fill-rule="evenodd" stroke="none"/>
      <path d="M7.15 16.75 Q0.0 20.1 -3.95 17.3 L-3.6 17.3 -5.6 15.9 -5.55 15.8 Q-4.3 13.25 -4.95 10.45 -5.85 11.85 -6.35 13.4 L-6.55 14.3 -7.0 13.4 Q-7.85 11.6 -6.15 10.3 L-3.95 8.8 -2.4 10.9 -1.55 9.95 -0.3 12.2 1.0 9.65 2.45 10.8 3.8 9.05 Q7.85 10.9 7.75 15.3 L7.65 16.3 7.15 16.75 M0.15 15.5 L0.55 14.45 -0.4 14.45 -0.95 15.1 0.15 15.5 M-10.55 -11.3 Q-10.7 -8.95 -11.95 -6.5 -15.05 -0.4 -10.8 4.6 L-11.8 3.8 Q-19.3 -4.35 -11.45 -11.25 L-10.55 -11.3 M-13.85 -7.8 L-14.3 -5.25 -11.95 -10.15 Q-13.5 -9.4 -13.85 -7.8 M-14.7 8.65 L-15.15 3.6 -9.6 8.65 -10.2 13.05 -10.2 15.65 Q-12.2 14.2 -13.4 12.0 -14.3 10.4 -14.7 8.65" fill="#bc8a78" fill-rule="evenodd" stroke="none"/>
      <path d="M-3.95 17.3 Q-7.0 16.9 -6.55 14.3 L-6.35 13.4 Q-5.85 11.85 -4.95 10.45 -4.3 13.25 -5.55 15.8 L-5.6 15.9 -3.6 17.3 -3.95 17.3 M-2.95 8.35 L-3.5 7.65 -2.15 8.65 -2.15 9.2 -2.95 8.35 M-0.45 9.7 L-1.05 8.6 -0.85 8.65 -0.25 9.1 -0.25 10.05 -0.45 9.7 M1.35 8.65 L1.4 8.65 2.05 8.85 2.3 9.25 1.35 8.65 M12.75 13.05 L12.25 13.85 Q10.15 17.0 6.4 17.45 10.4 16.5 12.75 13.05 M-13.85 -7.8 Q-13.5 -9.4 -11.95 -10.15 L-14.3 -5.25 -13.85 -7.8" fill="#f7c5ac" fill-rule="evenodd" stroke="none"/>
      <path d="M13.7 -10.75 L8.85 -15.75 8.5 -16.05 Q4.4 -19.4 -0.05 -19.4 -4.65 -19.4 -8.4 -16.2 L-8.9 -15.75 -17.75 -5.75 -17.1 -4.55 -19.0 -3.25 -17.45 -1.85 -18.5 -0.5 -16.6 0.85 -16.65 2.15 -15.9 8.65 Q-13.0 18.5 -1.7 19.55 5.45 20.0 11.15 15.8 14.45 12.8 15.6 8.65 L16.25 2.45 16.1 0.25 16.35 0.75 17.0 0.35 17.1 2.8 17.1 3.6 17.1 4.65 16.1 8.65 Q12.65 18.45 1.25 20.0 -12.35 21.75 -16.95 9.1 L-17.1 8.65 -17.5 6.1 -17.65 3.5 -17.6 1.65 -20.25 -0.7 -18.75 -1.9 -21.05 -3.15 -18.6 -4.9 -19.65 -5.65 -18.0 -7.2 -10.3 -15.75 -9.3 -16.65 Q-4.8 -20.6 -0.2 -20.6 5.45 -20.6 10.3 -15.75 L19.6 -5.65 18.65 -4.9 21.0 -3.15 18.65 -1.9 20.15 -0.7 17.2 1.85 17.05 0.3 17.95 -0.7 18.4 -0.55 17.35 -2.0 17.65 -1.3 17.25 -2.05 18.85 -3.3 18.25 -3.85 17.0 -4.55 17.6 -5.8 16.15 -7.3 13.7 -10.75 M-3.95 8.8 L-5.65 9.2 -4.65 7.85 -2.95 8.35 -2.15 9.2 -1.35 8.65 -1.15 8.6 -1.05 8.65 -0.45 9.7 -0.25 10.05 0.75 8.65 1.35 8.65 2.3 9.25 3.2 7.8 4.65 7.75 5.05 8.95 3.8 9.05 2.45 10.8 1.0 9.65 -0.3 12.2 -1.55 9.95 -2.4 10.9 -3.95 8.8" fill="#4b271a" fill-rule="evenodd" stroke="none"/>
      <path d="M-17.75 -5.75 L-15.5 -8.05 -16.85 -5.95 -17.75 -5.75 M-19.0 -3.25 L-17.1 -4.5 -18.0 -3.4 -19.0 -3.25 M-17.45 -1.85 L-17.95 -0.7 -18.5 -0.5 -17.45 -1.85 M17.95 -0.7 L17.65 -1.3 17.35 -2.0 18.4 -0.55 17.95 -0.7 M17.6 -5.8 L16.75 -5.95 15.35 -8.1 16.15 -7.3 17.6 -5.8" fill="#ab8172" fill-rule="evenodd" stroke="none"/>
    </g>
    <g id="sprite2" transform="matrix(1.0, 0.0, 0.0, 1.0, 26.0, 7.75)">
      <use height="15.65" transform="matrix(1.0, 0.0, 0.0, 1.0, -26.0, -7.75)" width="52.1" xlink:href="#shape2"/>
    </g>
    <g id="shape2" transform="matrix(1.0, 0.0, 0.0, 1.0, 26.0, 7.75)">
      <path d="M15.85 -1.65 L16.6 -5.7 Q10.75 0.85 2.25 1.7 -8.95 2.55 -16.8 -5.25 L-15.9 -1.45 -16.4 -2.3 -16.8 -1.75 -17.05 -2.55 -24.5 6.85 -13.95 6.5 -11.45 6.25 -11.25 6.2 -10.75 6.9 -26.0 7.35 -17.35 -4.45 -17.35 -7.25 -14.85 -5.05 Q-11.1 -1.9 -6.55 -0.6 5.05 2.75 14.4 -4.85 L17.45 -7.75 17.2 -4.4 19.6 -1.55 21.85 1.25 24.05 4.2 26.1 7.2 25.7 7.55 22.0 7.9 20.15 7.9 18.25 7.9 9.15 6.75 10.15 6.3 24.45 6.85 16.9 -2.9 16.6 -1.75 16.2 -2.3 15.85 -1.65 M-15.5 0.3 L-15.3 1.35 Q-10.45 5.0 -4.4 6.1 7.45 8.55 15.25 0.2 L15.8 0.95 15.2 2.1 15.1 2.25 14.8 2.45 12.3 4.2 Q3.65 9.5 -7.0 6.4 -11.3 5.15 -14.45 2.9 L-15.7 1.6 -16.0 0.95 -15.5 0.3" fill="#00355b" fill-rule="evenodd" stroke="none"/>
      <path d="M15.15 -2.3 Q13.15 0.0 10.25 1.3 L8.3 2.0 5.5 5.5 Q11.6 4.45 14.5 -0.9 L15.15 -2.3 M-15.9 -1.45 L-16.8 -5.25 Q-8.95 2.55 2.25 1.7 10.75 0.85 16.6 -5.7 L15.85 -1.65 14.85 -0.3 15.25 0.2 Q7.45 8.55 -4.4 6.1 -10.45 5.0 -15.3 1.35 L-15.5 0.3 -15.2 -0.15 Q-12.75 2.65 -9.25 3.8 -3.2 5.9 2.25 2.75 -7.95 3.45 -15.95 -2.8 L-15.3 -0.55 -15.9 -1.45" fill="#009ad9" fill-rule="evenodd" stroke="none"/>
      <path d="M15.85 -1.65 L16.2 -2.3 16.6 -1.75 21.35 5.8 20.3 5.4 Q17.45 3.95 15.85 1.0 L15.8 0.95 15.25 0.2 14.85 -0.3 15.85 -1.65 M-16.8 -1.75 L-16.4 -2.3 -15.9 -1.45 -15.3 -0.55 -15.95 -2.8 Q-7.95 3.45 2.25 2.75 -3.2 5.9 -9.25 3.8 -12.75 2.65 -15.2 -0.15 L-15.5 0.3 -16.0 0.95 -16.05 1.0 Q-17.35 4.05 -20.5 5.45 L-21.6 5.85 -16.8 -1.75" fill="#3fbfeb" fill-rule="evenodd" stroke="none"/>
      <path d="M15.15 -2.3 L14.5 -0.9 Q11.6 4.45 5.5 5.5 L8.3 2.0 10.25 1.3 Q13.15 0.0 15.15 -2.3 M-11.45 6.25 L-13.95 6.5 -17.65 5.25 -15.8 1.55 -15.7 1.6 -14.45 2.9 -11.45 6.25 M15.2 2.1 L15.55 1.55 17.15 5.4 15.25 5.9 10.4 6.05 12.3 4.2 14.8 2.45 15.1 2.25 15.2 2.1" fill="#0074d9" fill-rule="evenodd" stroke="none"/>
      <path d="M16.6 -1.75 L16.9 -2.9 24.45 6.85 10.15 6.3 10.4 6.05 15.25 5.9 17.15 5.4 15.55 1.55 15.85 1.0 Q17.45 3.95 20.3 5.4 L21.35 5.8 16.6 -1.75 M-13.95 6.5 L-24.5 6.85 -17.05 -2.55 -16.8 -1.75 -21.6 5.85 -20.5 5.45 Q-17.35 4.05 -16.05 1.0 L-15.8 1.55 -17.65 5.25 -13.95 6.5" fill="#00a4d9" fill-rule="evenodd" stroke="none"/>
    </g>
  </defs>
</svg>
