<svg xmlns:xlink="http://www.w3.org/1999/xlink" height="82" width="84.85" xmlns="http://www.w3.org/2000/svg"><g transform="translate(37.4 42.25)"><use height="38" transform="translate(-11.95 -17.45)" width="32.05" xlink:href="#a"/><use height="38.95" transform="translate(-12.45 -17.95)" width="33.05" xlink:href="#b"/><use height="13.15" transform="translate(-14.1 13.2)" width="35.8" xlink:href="#c"/><use height="23.6" transform="translate(-13.65 3.05)" width="35.5" xlink:href="#d"/><use height="14.9" transform="translate(10.9 -2.05)" width="17.65" xlink:href="#e"/><use height="14.9" transform="matrix(-1 0 0 1 -2.15 -2.05)" width="17.65" xlink:href="#e"/></g><defs><use height="38" width="32.05" xlink:href="#f" id="a"/><use height="38.95" width="33.05" xlink:href="#g" id="b"/><use height="13.15" width="35.8" xlink:href="#h" id="c"/><use height="14.9" width="17.65" xlink:href="#i" id="e"/><g id="h" fill-rule="evenodd"><path d="m.1 5.15-.2.4h1.3q1.2-.15 1.85-.95h2.9q1.7-.25 2.8-1.4l2-.85q1.1 0 1.9-.65.75-.65.75-1.6 1.65-.1 2.75-1.45l.5-.65L15-5.55l-8.85 1.5-3.2.2-17.7-.75-2.1 3 .4.7 1.1.7.9 1.15 1.1.7h.55L-10.9 3l1.85.5 3.6 1.5.2.05 4 .3 1.35-.2m16.4-5.5L14.15.8q-4.1 4.8-10.9 4.8Q-3.2 7.9-9 4.5q-2.5-.25-4.35-2.05-1.35.15-2.1-1.1L-15.9.6q-1.55-.6-2-2.25l2.6-4Q0-4.45 15.25-6.6l2.65 4.2-1.4 2.05" fill="#440202" transform="translate(17.9 6.6)"/><path d="m2.95-3.85-.4 1.75Q1.6 1.6.1 5.15l-1.35.2-4-.3h1.85q2-1.65 2-4.5l-.05-.95-4 5.4-3.6-1.5q2.2-1.45 2.75-4.15l.1-.5L-10.9 3l-1.9-1.35h-.55l1.5-1.7q.95-1.1 1.15-2.5l-.75 1q-1.2 1.55-3 2.5l-.9-1.15 1.6-2.65-2.7 1.95-.4-.7 2.1-3 17.7.75m.1 8.45 1-4.25.9 4.25h-1.9m5.7-1.4-.2-3.95 2.2 3.1-2 .85M13.4.1l-.85-2.5 2.6 1.75L16.65-2l-.5.65Q15.05 0 13.4.1" fill="#d80000" transform="translate(17.9 6.6)"/><path d="M.1 5.15Q1.6 1.6 2.55-2.1l.4-1.75 3.2-.2L15-5.55 16.65-2l-1.5 1.35-2.6-1.75.85 2.5q0 .95-.75 1.6-.8.65-1.9.65l-2.2-3.1.2 3.95q-1.1 1.15-2.8 1.4h-1L4.05.35l-1 4.25q-.65.8-1.85.95H-.1l.2-.4M-16.45-.9l2.7-1.95-1.6 2.65-1.1-.7m2 1.85q1.8-.95 3-2.5l.75-1q-.2 1.4-1.15 2.5l-1.5 1.7-1.1-.7M-10.9 3l4.7-4.15-.1.5q-.55 2.7-2.75 4.15L-10.9 3m5.45 2 4-5.4.05.95q0 2.85-2 4.5h-1.85l-.2-.05" fill="#960000" transform="translate(17.9 6.6)"/></g><g id="d"><path d="M4.25 8.5v1.1L4 10.8" fill="none" stroke="#333" stroke-linecap="round" stroke-linejoin="round" stroke-width=".95"/><path d="M6.5 7.15q8.45-.6 13.5-3.95l.45-.05.3.35q1.7 7-1.6 10.5-1.8 2.35-10.15 3.35-13.7 1.65-19.9-3.4-2.25-1.7-2.25-7.3 0-1.75.55-2.75.2-.45.65-.2Q-3.4 7.85 6.5 7.15" fill="#351e02" fill-rule="evenodd" transform="translate(13.65 -3.05)"/><path d="M6.6 8.1q7.9-.55 13.3-3.7 1.7 5.6-1.5 8.95-2.15 2.8-12.4 3.3-10.95.55-16.1-3.4-1.1-.85-1.7-3.8-.6-3.05.25-4.65 8.7 3.9 18.15 3.3" fill="#f8c606" fill-rule="evenodd" transform="translate(13.65 -3.05)"/><path d="M4.15 9.9q.3 2.65-2.2 6.75-4.05-.15-7.5-1.2Q.75 15 4.15 9.9m8.35-2.65q4.4-1 7.4-2.85 1.7 5.6-1.5 8.95-2.25 2.9-12.9 3.35.95-.9 2.5-5.05 1.55 1.75 2.9 1.5 1.8-.3 3-2.25l-3.75.1q1.25-1.25 2.35-3.75m-14.4 5.9q-1.65.75-2.7.35-1.9-.65-2.75-3.35.55 1.2 2.8 1.7 2.45.5 4.8-.45-.6 1.05-2.15 1.75" fill="#f87006" fill-rule="evenodd" transform="translate(13.65 -3.05)"/><path d="M21.85 10.95q0 1.45-.75 2.2-8.05 5.95-19.95 5.2Q-9.3 17.7-12.6 13.8q-.75-.85-1-2.1-.2-1.2.2-1.2 8.5 6.45 20.75 5.05 11.05-1.3 14.05-6.4.4.55.45 1.8" fill="#020202" fill-rule="evenodd" transform="translate(13.65 -3.05)"/><path d="m20.05 3.25.25-.15q.65-.15 1.15.5.8 1.3 0 1.95-17.05 7.65-34.65.2-.9-.65 0-2 .4-.45.95-.35l.05.05q16.75 6.15 32.25-.2" fill="#351e02" fill-rule="evenodd" transform="translate(13.65 -3.05)"/><path d="M5.1 8.6q-8.6.2-17.4-3.3-.25-.2-.15-.6.1-.4.45-.3 8.75 3.25 17.75 2.9L5.1 8.6" fill="#f8f9a8" fill-rule="evenodd" transform="translate(13.65 -3.05)"/><path d="m5.75 7.3 3-.2 2.15-.3q3.8-.6 7-1.7 2.5-.9 2.7-1.2.3-.05.5.25.25.35.05.7-6.75 3-13.65 3.65l-1.85.1H5.1l.65-1.3" fill="#cf7838" fill-rule="evenodd" transform="translate(13.65 -3.05)"/><path d="M5.9 11.2q-.45-1.45-.35-1.95l3.35-.1.6-.15.4.05-4 2.15m-8.5.05q.55-2 1.35-2.15l3.75.3q-3.9 1.85-5.1 1.85" fill="#fff" fill-rule="evenodd" transform="translate(13.65 -3.05)"/><path d="M8 15.55q-3.1-4.8-7-1.15l-.95 1.05q-.05.9.35 1.9l.3.6 1.05 1.15 1.1.45q4.4.75 5.15-4M.8 20.5 0 24.55q1.65.9 3.6 1.15 2.1.1 4-1 .3-1.8-.3-3.6l-.4-1.2q-2 1.5-4.45.5L.9 19.65l-.1.85m2.85-7.95q7.35.05 4.15 6.6.95 2.9.95 5.9-4.9 3.1-9.7.1.5-3.15.65-6.3l.05-2.55q-.1-3.8 3.9-3.75m8.15 5.35.65.35 1 .35 1.6-.5.25-.55q.35-.8 0-1.7l-.5-1.15-2.9-.05q5.35-2.1 4.15 3.75l1.05 4.9q-3.4 1.75-6.65.25l.55-4.8q-.75-1-.55-2.25.25-1.25 1.2-1.7l-.55 1.7.7 1.4m3.6 1.65-.1-.45-.4-.3-2.95.45-.65 3.6 2.05.45q1.15.45 2.25-.35l.45-.25-.65-3.15m-18.7-4.2-.1-.25-.35-.6h-.1l-.1-.05-.15.05-3-.1-.55 1.8.05.25.15 1 .4.15.6.15q3.3 1.2 3.15-2.4m-5.5 1.35q0-2.6 2.45-2.7 5.6-.55 3.3 4.45L-2.4 23q-3.4 2.1-6.75 0 .4-3.15.35-6.3m1.35 2.65-.7 3.05 2.7.65 2.05-.55-.65-3.5-.8.25-.65-.05-1.85-.6-.1.75" fill="#351e02" fill-rule="evenodd" transform="translate(13.65 -3.05)"/><path d="m.15 24.4.45.15.35.2 1.45.5-1.65-4-.6 3.15m7.45.3q-1.9 1.1-4 1-1.95-.25-3.6-1.15l.8-4.05q1.05.85 2.75 1.05l.95-.05-.95 3.85 3.35-.45.7-.2m7.35-2.65-.65 1 1.05-.2.3-.3-.2-2.15q.05.9-.5 1.65m-1.6 1.25-.5-3.4h1.45l1.1-.35.65 3.15-.45.25q-1.1.8-2.25.35M-7.5 19.9l-.3 2.2 1.45.65-.85-1.8-.3-1.05m2.05 3.15-2.7-.65.7-3.05 2.5.3-.5 3.4" fill="#f8c606" fill-rule="evenodd" transform="translate(13.65 -3.05)"/><path d="m7.6 24.7-.7.2-3.35.45.95-3.85-.95.05q-1.7-.2-2.75-1.05l.1-.85 1.55.75q2.45 1 4.45-.5l.4 1.2q.6 1.8.3 3.6m5.75-1.4-2.05-.45.65-3.6 2.95-.45.4.3.1.45-1.1.35h-1.45l.5 3.4m-20.8-3.95.1-.75 1.85.6.65.05.8-.25.65 3.5-2.05.55.5-3.4-2.5-.3" fill="#f87006" fill-rule="evenodd" transform="translate(13.65 -3.05)"/><path d="m8 15.55-1.1.75q-2.45 1.75-5.15 2.8L.7 17.95l1.1-.45q2.25-.85 3.85-2.65l-1.4.45-4.2.15L1 14.4q3.9-3.65 7 1.15m7.3.3q.35.9 0 1.7l-.25.55-1.6.5-1-.35-.65-.35q1.6-.45 3-1.55l.5-.5m-4.2.65.55-1.7.1-.1.15-.05 2.9.05q-1.15 1.3-2.75 1.65l-.95.15m-18.7-.05.55 1.15q1.9-.2 3.15-1.55l.6-.7q.15 3.6-3.15 2.4l-.6-.15-.4-.15-.15-1m4.2-1.35-.45-.6h.1l.35.6m-.7-.6q-1.25 1.15-2.75 1.6l-.8.1.55-1.8 3 .1" fill="#f8f9a8" fill-rule="evenodd" transform="translate(13.65 -3.05)"/><path d="M1.75 19.1q2.7-1.05 5.15-2.8l1.1-.75q-.75 4.75-5.15 4l-1.1-.45m-1.7-3.65 4.2-.15 1.4-.45q-1.6 1.8-3.85 2.65l-1.1.45-.3-.6q-.4-1-.35-1.9M11.8 17.9l-.7-1.4.95-.15q1.6-.35 2.75-1.65l.5 1.15-.5.5q-1.4 1.1-3 1.55m-15.1-2.55-.6.7q-1.25 1.35-3.15 1.55l-.55-1.15-.05-.25.8-.1q1.5-.45 2.75-1.6l.15-.05.1.05.45.6.1.25" fill="#cf7838" fill-rule="evenodd" transform="translate(13.65 -3.05)"/><path d="m.15 24.4.6-3.15 1.65 4-1.45-.5-.35-.2-.45-.15m14.8-2.35q.55-.75.5-1.65l.2 2.15-.3.3-1.05.2.65-1M-7.5 19.9l.3 1.05.85 1.8-1.45-.65.3-2.2" fill="#fff" fill-rule="evenodd" transform="translate(13.65 -3.05)"/></g><g id="i" fill-rule="evenodd"><path d="M17.05.2q.55-.2.65.35L14.4 6.6l.35.9-6.3 3.7-1.8 3.6-4.45.25L.05 10.7 2 6.15l2.5-.2q1.6-4.1 5.35-5.8 1.4.7 1.35 2.45L17.05.2m-2.2 4 1.8-3.1-4.7 2.3L13 4.65l.95 1.1.9-1.55M13.5 6.95q-.6-1.55-2-2.7l-.8-.75-3.05 2.6-.7.75 1.6 3.45 5.15-2.9-.2-.45M8 4.35l2.35-1.8-.25-1.2-.35-.25q-.4.05-.7.25-1.7.75-2.45 2.4L5.45 5.9h.9L8 4.35m-.45 5.9L5.95 6.7l-3.65.2-1 2.5-.5 1.25.6 1.3.4.85.65 1.45L6.4 14l1.15-3.75" fill="#351e02" transform="translate(-.05 -.15)"/><path d="M13 4.65 11.95 3.4l4.7-2.3-1.8 3.1.85-1.55q-1.5.8-3.05 1.55l.35.45M7.65 6.1l3.05-2.6.8.75q1.4 1.15 2 2.7l-4.05.6-1.8-1.45M6.6 3.75q.75-1.65 2.45-2.4.3-.2.7-.25l.35.25.25 1.2L8 4.35l-1.4-.6M1.3 9.4l1-2.5 3.65-.2 1.6 3.55-.25-.5-1.2.95q-2.05 1.45-4.3 2.1l-.4-.85 3-3.3-3.1.75" fill="#f8f9a8" transform="translate(-.05 -.15)"/><path d="m14.85 4.2-.9 1.55-.95-1.1-.35-.45q1.55-.75 3.05-1.55l-.85 1.55m-7.2 1.9 1.8 1.45 4.05-.6.2.45-5.15 2.9-1.6-3.45.7-.75M8 4.35 6.35 5.9h-.9L6.6 3.75l1.4.6m-.45 5.9L6.4 14l-3.95.25-.65-1.45q2.25-.65 4.3-2.1l1.2-.95.25.5m-6.15 1.7-.6-1.3.5-1.25 3.1-.75-3 3.3" fill="#cf7838" transform="translate(-.05 -.15)"/></g><path d="M27.35 7.4q2.15 4.15 3.55 8.75 1.45 4.7 1.15 9.5-.35 4.95-4.2 8.1-3.8 3.2-8.75 4.05l-2.6.2q-3.6 0-7.05-1.15-4.65-1.6-7.1-5.5Q-.2 27.4.05 23q.2-4.4 2-9.3Q3.85 8.75 7 5.05 10.1 1.3 14.7.1l1.8-.1q1.9.05 3.7.8 4.75 2.05 7.15 6.6" fill="#fff" fill-rule="evenodd" transform="translate(-.05)" id="f"/><path d="M27.35 7.4Q24.95 2.85 20.2.8 17.55-.3 14.7.1 10.1 1.3 7 5.05q-3.15 3.7-4.95 8.65-1.8 4.9-2 9.3-.25 4.4 2.3 8.35 2.45 3.9 7.1 5.5 4.65 1.55 9.65.95 4.95-.85 8.75-4.05 3.85-3.15 4.2-8.1.3-4.8-1.15-9.5-1.4-4.6-3.55-8.75Z" fill="none" stroke="#333" stroke-linecap="round" stroke-linejoin="round" transform="translate(.45 .5)" id="g"/></defs></svg>