<?xml version="1.0" encoding="UTF-8" standalone="no"?>
<svg xmlns:xlink="http://www.w3.org/1999/xlink" height="82.0px" width="84.85px" xmlns="http://www.w3.org/2000/svg">
  <g transform="matrix(1.0, 0.0, 0.0, 1.0, 37.4, 42.25)">
    <use height="38.0" transform="matrix(1.0, 0.0, 0.0, 1.0, -11.95, -17.45)" width="32.05" xlink:href="#sprite0"/>
    <use height="38.95" transform="matrix(1.0, 0.0, 0.0, 1.0, -12.45, -17.95)" width="33.05" xlink:href="#sprite1"/>
    <use height="22.1" transform="matrix(1.0, 0.0, 0.0, 1.0, -16.0, 1.9)" width="39.95" xlink:href="#shape2"/>
  </g>
  <defs>
    <g id="sprite0" transform="matrix(1.0, 0.0, 0.0, 1.0, -0.05, 0.0)">
      <use height="38.0" transform="matrix(1.0, 0.0, 0.0, 1.0, 0.05, 0.0)" width="32.05" xlink:href="#shape0"/>
    </g>
    <g id="shape0" transform="matrix(1.0, 0.0, 0.0, 1.0, -0.05, 0.0)">
      <path d="M27.35 7.4 Q29.5 11.55 30.9 16.15 32.35 20.85 32.05 25.65 31.7 30.6 27.85 33.75 24.05 36.95 19.1 37.8 L16.5 38.0 Q12.9 38.0 9.45 36.85 4.8 35.25 2.35 31.35 -0.2 27.4 0.05 23.0 0.25 18.6 2.05 13.7 3.85 8.75 7.0 5.05 10.1 1.3 14.7 0.1 L16.5 0.0 Q18.4 0.05 20.2 0.8 24.95 2.85 27.35 7.4" fill="#795144" fill-rule="evenodd" stroke="none"/>
    </g>
    <g id="sprite1" transform="matrix(1.0, 0.0, 0.0, 1.0, 0.45, 0.5)">
      <use height="38.95" transform="matrix(1.0, 0.0, 0.0, 1.0, -0.45, -0.5)" width="33.05" xlink:href="#shape1"/>
    </g>
    <g id="shape1" transform="matrix(1.0, 0.0, 0.0, 1.0, 0.45, 0.5)">
      <path d="M27.35 7.4 Q24.95 2.85 20.2 0.8 17.55 -0.3 14.7 0.1 10.1 1.3 7.0 5.05 3.85 8.75 2.05 13.7 0.25 18.6 0.05 23.0 -0.2 27.4 2.35 31.35 4.8 35.25 9.45 36.85 14.1 38.4 19.1 37.8 24.05 36.95 27.85 33.75 31.7 30.6 32.05 25.65 32.35 20.85 30.9 16.15 29.5 11.55 27.35 7.4 Z" fill="none" stroke="#000000" stroke-linecap="round" stroke-linejoin="round" stroke-width="1.0"/>
    </g>
    <g id="shape2" transform="matrix(1.0, 0.0, 0.0, 1.0, 16.0, -1.9)">
      <path d="M22.05 3.5 L23.95 5.55 20.4 7.75 Q20.15 13.8 18.8 19.65 L16.35 21.2 Q2.4 27.45 -11.0 19.65 L-12.6 7.75 -16.0 5.4 -15.95 5.3 -15.2 4.35 Q-13.5 2.7 -11.35 1.9 L-11.25 2.0 -8.25 6.25 Q-6.2 7.3 -3.9 7.7 L4.6 8.9 Q14.5 9.8 19.15 1.9 20.8 2.2 22.05 3.5 M-5.9 21.05 Q3.4 24.2 12.9 21.4 15.5 20.5 17.65 18.95 19.0 13.15 19.1 7.1 L22.0 5.25 20.6 4.25 19.5 3.4 17.65 6.15 16.2 7.6 15.4 8.0 13.35 8.65 12.45 8.85 9.35 9.4 -4.55 8.75 -5.4 8.55 -7.15 7.95 -7.5 7.8 -9.35 6.3 -10.9 4.35 -11.6 3.25 -14.6 5.2 -11.65 7.1 -11.1 13.65 -10.8 15.7 -10.2 18.85 -7.4 20.45 -6.8 20.7 -5.9 21.05" fill="#1a171b" fill-rule="evenodd" stroke="none"/>
      <path d="M-10.8 15.7 L-11.1 13.65 -9.25 12.2 -11.65 7.1 -14.6 5.2 -11.6 3.25 -10.9 4.35 -9.35 6.3 -7.5 7.8 -7.95 7.7 -7.95 16.6 -10.8 15.7 M-7.15 7.95 L-5.4 8.55 -5.3 17.15 -5.3 17.2 -7.05 16.8 -7.15 7.95 M-4.55 8.75 L9.35 9.4 12.45 8.85 12.55 11.05 3.15 12.15 Q3.65 12.65 4.25 13.0 6.25 14.1 6.9 16.1 L6.4 16.4 Q1.2 18.35 -4.35 17.3 L-4.55 8.75 M13.35 8.65 L15.4 8.0 15.45 10.0 13.5 10.85 13.35 8.65 M16.2 7.6 L17.65 6.15 16.95 7.3 16.35 9.25 16.2 7.6 M11.95 18.95 Q6.95 20.75 1.7 20.4 L1.55 20.35 Q3.05 19.1 7.1 19.35 9.7 18.9 12.25 17.55 L11.95 18.95 M12.95 18.5 L13.3 16.95 Q14.25 15.8 14.3 14.1 L14.4 13.65 15.5 13.1 14.9 17.35 12.95 18.5" fill="#ffff00" fill-rule="evenodd" stroke="none"/>
      <path d="M20.6 4.25 Q16.85 7.0 17.65 12.1 18.15 15.45 15.7 17.7 L16.05 16.3 16.45 11.4 16.35 9.5 16.35 9.25 16.95 7.3 17.65 6.15 19.5 3.4 20.6 4.25 M14.6 18.5 L12.65 19.6 12.95 18.5 14.9 17.35 14.8 17.75 14.6 18.5 M11.6 20.05 Q5.8 22.1 -0.1 21.45 L-3.35 21.05 -4.35 17.3 Q1.2 18.35 6.4 16.4 L6.9 16.1 Q6.25 14.1 4.25 13.0 3.65 12.65 3.15 12.15 L12.55 11.05 12.65 12.7 12.25 17.55 Q9.7 18.9 7.1 19.35 3.05 19.1 1.55 20.35 L1.7 20.4 Q6.95 20.75 11.95 18.95 L11.7 19.75 11.6 20.05 M-4.25 20.95 L-6.05 20.65 -7.05 16.8 -5.3 17.2 -4.25 20.95 M-7.4 20.45 L-10.2 18.85 -10.8 15.7 -7.95 16.6 -7.8 17.5 -6.9 20.55 -7.4 20.45 M-11.1 13.65 L-11.65 7.1 -9.25 12.2 -11.1 13.65 M13.5 10.9 L13.5 10.85 15.45 10.0 15.5 12.2 15.5 13.1 14.4 13.65 14.3 14.1 Q14.25 15.8 13.3 16.95 L13.5 10.9" fill="#ffd700" fill-rule="evenodd" stroke="none"/>
      <path d="M20.6 4.25 L22.0 5.25 19.1 7.1 Q19.0 13.15 17.65 18.95 15.5 20.5 12.9 21.4 3.4 24.2 -5.9 21.05 L-6.05 20.65 -4.25 20.95 -4.0 21.5 -3.1 21.65 -3.15 21.5 -3.35 21.05 -0.1 21.45 Q5.8 22.1 11.6 20.05 L11.05 21.55 11.9 21.45 12.65 19.6 14.6 18.5 13.75 20.9 14.5 20.6 14.7 20.5 15.1 20.0 Q15.9 19.0 15.7 17.7 18.15 15.45 17.65 12.1 16.85 7.0 20.6 4.25 M-6.8 20.7 L-7.4 20.45 -6.9 20.55 -6.8 20.7" fill="#ff9500" fill-rule="evenodd" stroke="none"/>
      <path d="M13.75 20.9 L14.6 18.5 14.8 17.75 14.65 18.55 13.8 20.85 13.75 20.9 M-3.15 21.5 L-3.1 21.65 -4.0 21.5 -3.15 21.6 -3.15 21.5 M-7.5 7.8 L-7.15 7.95 -7.05 16.8 -7.95 16.6 -7.95 7.7 -7.5 7.8 M-5.4 8.55 L-4.55 8.75 -4.35 17.3 -5.3 17.15 -5.4 8.55 M12.45 8.85 L13.35 8.65 13.5 10.85 13.5 10.9 12.6 11.15 12.65 12.7 12.55 11.05 12.45 8.85 M15.4 8.0 L16.2 7.6 16.35 9.25 16.35 9.5 15.5 10.15 15.5 12.2 15.45 10.0 15.4 8.0" fill="#14fe04" fill-rule="evenodd" stroke="none"/>
      <path d="M15.7 17.7 Q15.9 19.0 15.1 20.0 L14.7 20.5 15.65 17.8 14.65 18.55 14.8 17.75 14.9 17.35 15.5 13.1 15.5 12.2 15.5 10.15 16.35 9.5 16.45 11.4 16.05 16.3 15.7 17.7 M14.5 20.6 L13.75 20.9 13.8 20.85 14.5 20.6 M12.65 19.6 L11.9 21.45 12.65 19.3 11.7 19.75 11.95 18.95 12.25 17.55 12.65 12.7 12.6 11.15 13.5 10.9 13.3 16.95 12.95 18.5 12.65 19.6 M-3.35 21.05 L-3.15 21.5 -3.15 21.6 -4.0 21.5 -4.25 20.95 -5.3 17.2 -5.3 17.15 -4.35 17.3 -3.35 21.05 M-6.05 20.65 L-5.9 21.05 -6.8 20.7 -6.9 20.55 -7.8 17.5 -7.95 16.6 -7.05 16.8 -6.05 20.65" fill="#00d904" fill-rule="evenodd" stroke="none"/>
      <path d="M14.7 20.5 L14.5 20.6 13.8 20.85 14.65 18.55 15.65 17.8 14.7 20.5 M11.9 21.45 L11.05 21.55 11.6 20.05 11.7 19.75 12.65 19.3 11.9 21.45" fill="#00c004" fill-rule="evenodd" stroke="none"/>
    </g>
  </defs>
</svg>
