<?xml version="1.0" encoding="UTF-8" standalone="no"?>
<svg xmlns:xlink="http://www.w3.org/1999/xlink" height="82.0px" width="84.85px" xmlns="http://www.w3.org/2000/svg">
  <g transform="matrix(1.0, 0.0, 0.0, 1.0, 37.4, 42.25)">
    <use height="38.0" transform="matrix(1.0, 0.0, 0.0, 1.0, -11.95, -17.45)" width="32.05" xlink:href="#sprite0"/>
    <use height="38.95" transform="matrix(1.0, 0.0, 0.0, 1.0, -12.45, -17.95)" width="33.05" xlink:href="#sprite1"/>
    <use height="24.65" transform="matrix(1.0, 0.0, 0.0, 1.0, -19.4, 2.85)" width="47.15" xlink:href="#shape2"/>
  </g>
  <defs>
    <g id="sprite0" transform="matrix(1.0, 0.0, 0.0, 1.0, -0.05, 0.0)">
      <use height="38.0" transform="matrix(1.0, 0.0, 0.0, 1.0, 0.05, 0.0)" width="32.05" xlink:href="#shape0"/>
    </g>
    <g id="shape0" transform="matrix(1.0, 0.0, 0.0, 1.0, -0.05, 0.0)">
      <path d="M27.35 7.4 Q29.5 11.55 30.9 16.15 32.35 20.85 32.05 25.65 31.7 30.6 27.85 33.75 24.05 36.95 19.1 37.8 L16.5 38.0 Q12.9 38.0 9.45 36.85 4.8 35.25 2.35 31.35 -0.2 27.4 0.05 23.0 0.25 18.6 2.05 13.7 3.85 8.75 7.0 5.05 10.1 1.3 14.7 0.1 L16.5 0.0 Q18.4 0.05 20.2 0.8 24.95 2.85 27.35 7.4" fill="#bc8f88" fill-rule="evenodd" stroke="none"/>
    </g>
    <g id="sprite1" transform="matrix(1.0, 0.0, 0.0, 1.0, 0.45, 0.5)">
      <use height="38.95" transform="matrix(1.0, 0.0, 0.0, 1.0, -0.45, -0.5)" width="33.05" xlink:href="#shape1"/>
    </g>
    <g id="shape1" transform="matrix(1.0, 0.0, 0.0, 1.0, 0.45, 0.5)">
      <path d="M27.35 7.4 Q24.95 2.85 20.2 0.8 17.55 -0.3 14.7 0.1 10.1 1.3 7.0 5.05 3.85 8.75 2.05 13.7 0.25 18.6 0.05 23.0 -0.2 27.4 2.35 31.35 4.8 35.25 9.45 36.85 14.1 38.4 19.1 37.8 24.05 36.95 27.85 33.75 31.7 30.6 32.05 25.65 32.35 20.85 30.9 16.15 29.5 11.55 27.35 7.4 Z" fill="none" stroke="#803333" stroke-linecap="round" stroke-linejoin="round" stroke-width="1.0"/>
    </g>
    <g id="shape2" transform="matrix(1.0, 0.0, 0.0, 1.0, 19.4, -2.85)">
      <path d="M21.45 5.0 L21.05 13.55 Q24.5 15.3 27.05 18.25 28.4 19.75 27.1 21.25 L26.3 21.8 Q24.85 22.4 23.4 22.4 19.3 22.35 16.3 24.85 L14.15 26.6 Q13.05 27.4 11.65 27.4 9.4 27.45 7.3 26.45 L0.0 26.65 Q-1.75 27.55 -3.45 27.5 -5.7 27.05 -7.55 25.5 L-10.5 23.6 Q-11.4 23.05 -12.4 22.9 L-15.2 22.35 -18.05 21.9 Q-19.5 21.4 -19.4 19.9 -19.3 18.25 -17.95 17.25 L-12.85 13.55 Q-13.05 8.9 -12.8 4.3 -12.75 3.7 -12.2 3.35 L-11.0 3.2 Q-10.25 3.2 -9.7 3.75 L-8.2 5.8 -7.45 7.4 Q-4.05 9.95 0.2 10.05 L4.0 10.3 6.0 9.95 Q9.35 10.5 12.55 9.35 L14.55 8.15 15.9 6.65 16.95 4.65 Q17.65 3.2 19.1 2.9 L20.2 2.85 Q21.0 3.1 21.25 3.75 L21.45 5.0 M19.25 14.75 L20.15 13.9 20.65 5.35 20.6 4.9 Q20.4 4.1 19.55 3.8 L18.35 4.05 16.25 8.2 16.15 8.35 16.1 8.4 15.85 8.95 Q14.9 10.95 13.25 12.5 11.8 13.85 9.9 14.25 L6.25 15.0 5.1 15.1 1.25 14.95 -0.4 14.65 Q-4.5 13.9 -6.7 10.4 -8.15 8.15 -9.2 5.55 -9.5 4.85 -9.95 4.3 L-10.65 3.75 -11.75 3.85 -12.55 5.25 -12.1 13.6 Q-9.45 16.3 -5.85 17.4 -3.7 18.2 -1.5 18.2 -7.95 18.35 -12.9 14.35 L-13.5 14.8 -17.3 17.4 -18.55 19.1 -18.65 19.65 -18.7 19.8 Q-18.4 21.25 -16.85 21.4 L-14.9 21.6 Q-11.35 21.75 -8.7 23.7 -6.65 25.2 -4.3 26.2 L-3.05 26.45 -1.2 26.15 2.1 24.95 4.0 24.65 5.8 24.95 5.9 24.95 8.6 25.95 Q9.95 26.55 11.3 26.45 12.65 26.5 13.6 25.75 16.35 23.6 19.6 22.45 L22.9 21.6 23.15 21.6 23.4 21.55 24.5 21.45 24.75 21.4 25.15 21.25 25.55 21.1 25.9 20.95 25.95 20.95 26.0 20.9 26.45 20.55 26.75 19.8 26.65 19.1 25.35 17.4 21.05 14.45 20.15 15.35 Q17.75 17.3 14.65 17.75 L13.55 17.9 9.65 18.2 13.45 17.6 Q15.9 17.15 18.0 15.65 L19.25 14.75 M6.55 11.2 L7.6 12.3 7.8 12.3 9.2 13.45 10.05 14.0 Q12.2 13.15 13.7 11.65 L15.45 8.85 13.2 9.6 8.85 10.4 6.55 10.7 Q6.2 10.75 6.55 11.2 M0.9 12.3 L0.95 12.3 1.2 12.05 2.0 11.2 Q2.3 10.9 2.05 10.7 L-0.35 10.85 Q-4.15 10.55 -7.2 8.55 L-7.15 8.6 -5.5 11.45 -5.4 11.55 -5.3 11.65 Q-3.65 13.25 -1.6 14.05 L-0.5 13.4 -0.35 13.3 0.9 12.3 M3.25 11.3 L3.15 11.3 4.7 11.5 Q5.25 11.55 5.35 11.0 L5.2 10.85 4.85 10.85 3.1 10.7 Q2.75 10.9 3.25 11.3 M2.75 11.6 Q1.9 13.05 0.5 13.8 L-0.35 14.35 Q4.05 15.55 8.7 14.3 L5.55 11.8 4.1 11.8 2.75 11.6" fill="#1d1d24" fill-rule="evenodd" stroke="none"/>
      <path d="M-17.3 17.4 L-17.25 18.25 Q-15.85 19.35 -13.75 19.1 L-14.85 19.9 -15.4 20.35 Q-16.9 20.3 -18.05 19.5 L-18.55 19.15 -18.55 19.1 -17.3 17.4 M-10.4 19.8 Q-9.55 20.15 -8.75 20.65 L-5.65 22.6 Q-4.7 23.2 -3.55 23.5 -2.45 23.95 -1.3 23.5 L-1.05 23.35 -2.25 25.1 Q-4.05 25.35 -5.55 24.4 L-9.45 21.8 -9.5 21.7 -10.5 19.75 -10.4 19.8 M7.95 22.95 Q9.95 24.3 12.15 23.3 L14.45 22.05 14.55 22.0 14.3 24.0 13.55 24.45 8.35 24.6 7.95 22.95 M24.45 18.9 L25.15 18.65 25.45 17.95 25.4 17.5 25.35 17.4 26.65 19.1 26.6 19.15 25.35 20.0 25.35 19.95 24.45 18.9 M7.8 12.3 L12.65 11.95 12.35 12.35 Q11.1 13.75 9.2 13.45 L7.8 12.3 M0.9 12.3 L-0.35 13.3 -0.5 13.4 -1.25 13.4 Q-2.95 13.4 -4.05 11.95 L0.9 12.3 M-5.3 11.65 L-5.4 11.55 -4.55 11.8 -5.3 11.65 M2.0 11.2 L1.2 12.05 1.95 11.2 2.0 11.2" fill="#f7ef00" fill-rule="evenodd" stroke="none"/>
      <path d="M16.25 8.2 L16.2 8.35 16.15 8.35 16.25 8.2 M25.35 20.0 L26.6 19.15 26.75 19.8 26.45 20.55 26.0 20.9 25.35 20.0 M22.9 21.6 L19.6 22.45 Q16.35 23.6 13.6 25.75 12.65 26.5 11.3 26.45 9.95 26.55 8.6 25.95 L8.3 24.6 8.35 24.6 13.55 24.45 14.3 24.0 14.0 25.35 Q17.15 22.65 21.1 21.75 L22.9 21.6 M-3.05 26.45 L-4.3 26.2 Q-6.65 25.2 -8.7 23.7 -11.35 21.75 -14.9 21.6 L-16.85 21.4 Q-18.4 21.25 -18.7 19.8 L-18.65 19.65 -18.55 19.15 -18.05 19.5 Q-16.9 20.3 -15.4 20.35 L-16.5 21.4 -14.9 21.55 Q-11.65 21.55 -9.05 23.3 L-9.45 21.8 -5.55 24.4 Q-4.05 25.35 -2.25 25.1 L-2.3 25.2 -2.2 25.2 -3.05 26.45 M25.55 21.1 L25.95 20.95 25.9 20.95 25.55 21.1 M6.55 11.2 Q9.1 11.6 11.6 10.65 L13.5 9.9 13.4 10.95 12.85 11.8 13.05 11.8 12.65 11.95 7.8 12.3 7.6 12.3 6.55 11.2 M1.2 12.05 L0.95 12.3 0.9 12.3 -4.05 11.95 -4.55 11.8 -5.4 11.55 -5.5 11.45 -4.1 11.85 -4.9 9.9 -2.95 10.6 Q-0.55 11.6 1.95 11.2 L1.2 12.05 M3.25 11.3 L4.85 10.85 5.2 10.85 5.35 11.0 Q5.25 11.55 4.7 11.5 L3.15 11.3 3.25 11.3" fill="#c51e1b" fill-rule="evenodd" stroke="none"/>
      <path d="M12.65 11.95 L13.05 11.8 13.7 11.65 Q12.2 13.15 10.05 14.0 L9.2 13.45 Q11.1 13.75 12.35 12.35 L12.65 11.95 M-0.5 13.4 L-1.6 14.05 Q-3.65 13.25 -5.3 11.65 L-4.55 11.8 -4.05 11.95 Q-2.95 13.4 -1.25 13.4 L-0.5 13.4" fill="#ff9500" fill-rule="evenodd" stroke="none"/>
      <path d="M16.2 8.35 L15.85 8.95 16.1 8.4 16.2 8.35 M13.05 11.8 L12.85 11.8 13.4 10.95 13.5 9.9 15.45 8.85 13.7 11.65 13.05 11.8 M-5.5 11.45 L-7.15 8.6 -4.9 9.9 -4.1 11.85 -5.5 11.45" fill="#7c1e1b" fill-rule="evenodd" stroke="none"/>
      <path d="M13.5 9.9 L11.6 10.65 Q9.1 11.6 6.55 11.2 6.2 10.75 6.55 10.7 L8.85 10.4 13.2 9.6 15.45 8.85 13.5 9.9 M16.15 8.35 L16.2 8.35 16.1 8.4 16.15 8.35 M-7.15 8.6 L-7.2 8.55 Q-4.15 10.55 -0.35 10.85 L2.05 10.7 Q2.3 10.9 2.0 11.2 L1.95 11.2 Q-0.55 11.6 -2.95 10.6 L-4.9 9.9 -7.15 8.6 M4.85 10.85 L3.25 11.3 Q2.75 10.9 3.1 10.7 L4.85 10.85" fill="#ff4221" fill-rule="evenodd" stroke="none"/>
      <path d="M16.25 8.2 L18.35 4.05 19.55 3.8 Q20.4 4.1 20.6 4.9 L20.65 5.35 20.15 13.9 19.25 14.75 18.75 14.45 18.95 6.2 16.95 11.1 Q16.35 12.6 15.35 13.95 L13.3 16.4 13.45 17.6 9.65 18.2 13.55 17.9 14.0 18.8 Q14.95 20.3 14.45 22.05 L12.15 23.3 Q9.95 24.3 7.95 22.95 L7.3 21.25 6.25 19.5 Q5.15 18.05 3.55 18.7 L2.1 19.7 Q0.1 21.3 -1.3 23.5 -2.45 23.95 -3.55 23.5 -4.7 23.2 -5.65 22.6 L-8.75 20.65 Q-9.55 20.15 -10.4 19.8 -11.2 18.45 -12.85 18.75 L-13.6 19.05 -13.75 19.1 Q-15.85 19.35 -17.25 18.25 L-17.3 17.4 -13.5 14.8 -12.9 14.35 Q-7.95 18.35 -1.5 18.2 -3.7 18.2 -5.85 17.4 -9.45 16.3 -12.1 13.6 L-12.55 5.25 -11.75 3.85 -10.65 3.75 -9.95 4.3 Q-9.5 4.85 -9.2 5.55 -8.15 8.15 -6.7 10.4 -4.5 13.9 -0.4 14.65 L1.25 14.95 -1.65 14.7 Q-0.5 15.1 0.3 15.95 L1.3 17.05 1.9 17.75 3.2 17.5 Q4.45 16.45 6.15 16.15 9.6 15.75 12.45 13.95 L14.25 12.55 Q16.5 10.5 17.6 7.7 L19.1 4.0 17.2 7.05 Q16.4 8.95 15.15 10.65 14.1 12.15 12.65 13.15 9.55 15.2 5.7 15.1 L5.1 15.1 6.25 15.0 9.9 14.25 Q11.8 13.85 13.25 12.5 14.9 10.95 15.85 8.95 L16.2 8.35 16.25 8.2 M-13.5 14.8 L-15.95 16.55 Q-16.6 17.05 -16.6 17.7 L-11.15 17.5 Q-11.7 16.85 -12.95 17.05 -14.0 17.1 -14.35 16.25 L-13.5 14.8 M25.35 17.4 L25.4 17.5 25.45 17.95 25.15 18.65 24.45 18.9 20.15 15.35 21.05 14.45 25.35 17.4 M26.6 19.15 L26.65 19.1 26.75 19.8 26.6 19.15 M-18.65 19.65 L-18.55 19.1 -18.55 19.15 -18.65 19.65 M10.95 19.3 L10.15 19.9 Q9.2 20.8 8.9 22.2 L11.2 22.95 Q11.5 22.35 11.4 21.55 L10.95 19.3 M-6.5 20.55 L-6.45 20.65 -3.15 22.9 Q-1.8 22.35 -1.05 20.95 L0.0 19.25 Q-2.9 18.9 -5.65 19.95 L-6.5 20.55" fill="#57d900" fill-rule="evenodd" stroke="none"/>
      <path d="M-13.6 19.05 L-12.85 18.75 Q-11.2 18.45 -10.4 19.8 L-10.5 19.75 -10.6 19.6 Q-11.95 19.0 -13.6 19.05 M-1.3 23.5 Q0.1 21.3 2.1 19.7 L3.55 18.7 Q5.15 18.05 6.25 19.5 L7.3 21.25 7.95 22.95 0.8 22.7 0.3 22.85 -1.05 23.35 -1.3 23.5 M14.45 22.05 Q14.95 20.3 14.0 18.8 L13.55 17.9 14.65 17.75 Q17.75 17.3 20.15 15.35 L24.45 18.9 20.25 19.3 16.55 20.65 14.55 22.0 14.45 22.05 M13.45 17.6 L13.3 16.4 15.35 13.95 Q16.35 12.6 16.95 11.1 L18.95 6.2 18.75 14.45 19.25 14.75 18.0 15.65 Q15.9 17.15 13.45 17.6" fill="#00c500" fill-rule="evenodd" stroke="none"/>
      <path d="M-13.75 19.1 L-13.6 19.05 Q-11.95 19.0 -10.6 19.6 L-10.5 19.75 -9.5 21.7 -11.5 21.0 -15.3 20.3 -14.85 19.9 -13.75 19.1 M24.45 18.9 L25.35 19.95 22.9 20.4 Q19.5 20.35 16.6 22.35 L14.3 24.0 14.55 22.0 16.55 20.65 20.25 19.3 24.45 18.9 M8.35 24.6 L8.3 24.6 Q5.8 23.35 3.1 23.6 L1.15 24.15 -2.2 25.2 -2.3 25.2 -2.25 25.1 -1.05 23.35 0.3 22.85 0.8 22.7 7.95 22.95 8.35 24.6" fill="#f7b800" fill-rule="evenodd" stroke="none"/>
      <path d="M25.35 19.95 L25.35 20.0 26.0 20.9 25.95 20.95 25.55 21.1 25.15 21.25 24.75 21.4 24.5 21.45 23.4 21.55 23.15 21.6 22.9 21.6 21.1 21.75 Q17.15 22.65 14.0 25.35 L14.3 24.0 16.6 22.35 Q19.5 20.35 22.9 20.4 L25.35 19.95 M8.6 25.95 L5.9 24.95 5.8 24.95 4.0 24.65 2.1 24.95 -1.2 26.15 -3.05 26.45 -2.2 25.2 1.15 24.15 3.1 23.6 Q5.8 23.35 8.3 24.6 L8.6 25.95 M26.0 20.9 L25.95 20.95 26.0 20.9 M-9.45 21.8 L-9.05 23.3 Q-11.65 21.55 -14.9 21.55 L-16.5 21.4 -15.4 20.35 -14.85 19.9 -15.3 20.3 -11.5 21.0 -9.5 21.7 -9.45 21.8" fill="#881e1b" fill-rule="evenodd" stroke="none"/>
      <path d="M5.1 15.1 L5.7 15.1 Q9.55 15.2 12.65 13.15 14.1 12.15 15.15 10.65 16.4 8.95 17.2 7.05 L19.1 4.0 17.6 7.7 Q16.5 10.5 14.25 12.55 L12.45 13.95 Q9.6 15.75 6.15 16.15 4.45 16.45 3.2 17.5 L1.9 17.75 1.3 17.05 0.3 15.95 Q-0.5 15.1 -1.65 14.7 L1.25 14.95 5.1 15.1 M-13.5 14.8 L-14.35 16.25 Q-14.0 17.1 -12.95 17.05 -11.7 16.85 -11.15 17.5 L-16.6 17.7 Q-16.6 17.05 -15.95 16.55 L-13.5 14.8 M10.95 19.3 L11.4 21.55 Q11.5 22.35 11.2 22.95 L8.9 22.2 Q9.2 20.8 10.15 19.9 L10.95 19.3 M-6.5 20.55 L-5.65 19.95 Q-2.9 18.9 0.0 19.25 L-1.05 20.95 Q-1.8 22.35 -3.15 22.9 L-6.45 20.65 -6.5 20.55" fill="#8cfc42" fill-rule="evenodd" stroke="none"/>
    </g>
  </defs>
</svg>
