<svg xmlns:xlink="http://www.w3.org/1999/xlink" height="82" width="84.85" xmlns="http://www.w3.org/2000/svg"><g transform="translate(37.4 42.25)"><use height="38" transform="translate(-11.95 -17.45)" width="32.05" xlink:href="#a"/><use height="38.95" transform="translate(-12.45 -17.95)" width="33.05" xlink:href="#b"/><use height="19.35" transform="translate(-12.35 4.55)" width="33" xlink:href="#c"/><use height="11" transform="translate(13.45 -1.7)" width="12.05" xlink:href="#d"/><use height="11" transform="matrix(-1 0 0 1 -5.1 -1.7)" width="12.05" xlink:href="#d"/><use height="14.25" transform="translate(-11.4 7.55)" width="31.15" xlink:href="#e"/></g><defs><use height="38" width="32.05" xlink:href="#f" id="a"/><use height="38.95" width="33.05" xlink:href="#g" id="b"/><use height="11" width="12.05" xlink:href="#h" id="d"/><g id="c" fill-rule="evenodd"><path d="m-10.95 7.5-.35 11.15 1.65 1q8.7 4.15 18.3 3.25 6.25-.75 10.8-5.2l-.7-9.95h1.15l.75 10.1Q18.9 20.9 15.8 22q-9.5 3.15-19.45 1.05-4.85-1-8.7-3.75l.25-11.8h1.15M15.5 6.05Q13.35 7.7 10.55 8.4.95 10.6-7.3 5.55v-1l3.55 1.7q10.05 4.2 19.25-1.5v1.3" fill="#03102d" transform="translate(12.35 -4.55)"/><path d="m18.75 7.75.7 9.95q-4.55 4.45-10.8 5.2-9.6.9-18.3-3.25l-1.65-1 .35-11.15 3.65-1.95Q.95 10.6 10.55 8.4q2.8-.7 4.95-2.35l3.25 1.7" fill="#fff" transform="translate(12.35 -4.55)"/></g><g id="h" fill-rule="evenodd"><path d="M6.95 1.85 6.3 1.5 2.25 5.95q2.55-1.1 5.4-1.8L6.35 7.5l4.2-.9-.35-.95Q9 3.15 7.1 1.9l-.15-.1v.05m-4.4 7.6-.65-.5-1.1-1.2-.75-1.3 1-1.65q1.9-3 4.9-4.8Q7 0 7.7.7q2.8 2.75 4.4 6.25l-.45.4Q8.55 9.6 5 11l-.75-.45L10.45 7l-1.05.3-3.9.75L7.3 4.5 1.7 6.55l.2-.45q1.4-2.3 3.25-4.15l-1.3 1.1Q1.95 4.7 1.1 6.95l1.45 2.5" fill="#03102d" transform="translate(-.05)"/><path d="M2.55 9.45 1.1 6.95q.85-2.25 2.75-3.9l1.3-1.1Q3.3 3.8 1.9 6.1l-.2.45L7.3 4.5 5.5 8.05l3.9-.75 1.05-.3-6.2 3.55-.85.4-.85-1.5" fill="#fff" transform="translate(-.05)"/><path d="M7.1 1.9Q9 3.15 10.2 5.65l.35.95-4.2.9 1.3-3.35q-2.85.7-5.4 1.8L6.3 1.5l.65.35q-1.75 1.1-3 2.8 1.35-.7 2.75-1.1l1.65-.4L7.1 1.9m1.9 2L7.35 6.5l2.75-.85L9 3.9" fill="#d31fff" transform="translate(-.05)"/><path d="M6.95 1.85V1.8l.15.1 1.25 1.25-1.65.4q-1.4.4-2.75 1.1 1.25-1.7 3-2.8M9 3.9l1.1 1.75-2.75.85L9 3.9" fill="#8af1ff" transform="translate(-.05)"/></g><g id="e"><path d="M7.15 16.55q1.95-4.05 5.25-7.3l1.15-1.5q.7 1.45.35 2.9-.45 2.05-1.95 3.55 1.2-.4 2.15-1.3 1.25-1.05 2-2.6l.3-.8q0 2.85-1.75 4.95-1.6 1.95-4.15 2.1l.5.25.5.15h1.1l2.05-.7-.8 1q-1.3 1-3.1.95l-1.95-.05-.35.3.15.5.2.4.2.25.7.3.9.35.7-.4q-.5.85-1.7 1.05-1.2.35-2.2-.5-1-.85-.9-2 .35 1.3 1.55 1.9l.65.2-1.6-2 .95-.95 3.55-.1-2.95-.85q3.25.25 5.4-2.05-2.2 1.3-4.8.9 2.5-.95 3.45-3.45l-5.55 4.55m3-6.95h.25l-1.2 1.2q-1.1.95-2.6 1.25-.6-.35-1.25-.55-2.1-.75-4 .45l-.95-.5q-1.65-.65-2.85-1.65l4.9 1-.2-1.05 1.85.75 1.55-.7-.2 1 1.2-.1q1.75-.25 3.5-1.1M1.3 11.8l.9-.5-3.5-.85 2.6 1.35m5.4-.2 2.6-1.4-3.15 1 .55.4m-1.1 2.9-.8-.3-.5.55q1.5 3.4.4 6.7l-1 .15-1.5-1.55 1.35.9.7-.15.3-.4q-1.2-3.55-.35-7.2l-1.6-.55.9.2 1.75.55.35 1.1m-2.85 2-.15.75q-1 5.3-5.85 2.45l.6.2q2.15.55 2.4-1.4l-.4-.35q-3.7 1.45-5.85-1.9 2.05 1.75 4.15.3-5.8-1.05-5.9-7.05 1.45 3.2 4.45 4.7-2.55-2.8-1.6-6.45 3.6 5 8.15 8.75M.1 17.55l1.05.95-.8 1.15-.4.5-.5.35q1.15-.05 1.65-1.05l.45-1.3.15-1.05q-2.85-3.05-6.25-5.1l.75 1 1.75 1.75.95.7-1.2.2-2.35-.65-1.25-.45 2.5 1.3 2.55.8-1.3.45-.7.25-.75.1 3.7.1m17.2.75-1-1.3 2.6.5-.75-1.4-1.55-2.2 2.85.75.1 3.55-1.45.95-.55-.6 1.15.1.4-.35-2.15-.75.35.75m1.9-1.25-.3-.8-.45-.8-.8-.6 1.55 2.2m-30 1.95-.45-.25.1-3.55 2.8-.7-2.25 3.6 2.55-.5-1.7 2 .95-1.45-2 .85m-.2-1.25-.1.55.9-1.15q.55-.75.6-1.7l-.6.65-.8 1.65" fill="#d31fff" fill-rule="evenodd" transform="translate(11.4 -7.55)"/><path d="m6.5 18.4.65-1.85L12.7 12q-.95 2.5-3.45 3.45 2.6.4 4.8-.9-2.15 2.3-5.4 2.05l2.95.85-3.55.1-.95.95 1.6 2-.65-.2q-1.2-.6-1.55-1.9m-5.2-6.6-2.6-1.35 3.5.85-.9.5m5.4-.2-.55-.4 3.15-1-2.6 1.4M.1 17.55l-3.7-.1.75-.1.7-.25 1.3-.45-2.55-.8-2.5-1.3 1.25.45 2.35.65 1.2-.2-.95-.7L-3.8 13l-.75-1q3.4 2.05 6.25 5.1l-.15 1.05-.45 1.3q-.5 1-1.65 1.05l.5-.35.4-.5.8-1.15-1.05-.95m17.2.75-.35-.75 2.15.75-.4.35-1.15-.1-.25-.25m1.9-1.25-1.55-2.2.8.6.45.8.3.8M-9.75 19.6l-1.05-.6 2-.85-.95 1.45M-11 17.75l.8-1.65.6-.65q-.05.95-.6 1.7l-.9 1.15.1-.55" fill="#8af1ff" fill-rule="evenodd" transform="translate(11.4 -7.55)"/><path d="M10.4 9.6h.55q-1.35 1.35-3.1 2.15l-1.3.65q-1.8-1.45-3.75-.8l-1.35.65Q0 12.1-1.2 11.1l-1.95-1.95 4.95 1.3.15-.95 1.1.15.5.15.45.25 1.5-.75.45.85 4.2-.55q-1.75.85-3.5 1.1l-1.2.1.2-1-1.55.7-1.85-.75.2 1.05-4.9-1q1.2 1 2.85 1.65l.95.5q1.9-1.2 4-.45.65.2 1.25.55 1.5-.3 2.6-1.25l1.2-1.2m7.15 8.95.55.6 1.45-.95-.1-3.55-2.85-.75 1.55 2.2.75 1.4-2.6-.5 1 1.3.25.25m-28.95.35.05-4 1.95-.65 2-.2-2.55 3.6.8-.25.75-.15.75-.25.75-.35L-9.55 20l-1.85-1.1m27.05-5.4 3.9.75.2 4.05-1.85 1.25-2.75-3.45 3.1.95-2.6-3.55m-25.4 6.1 1.7-2-2.55.5 2.25-3.6-2.8.7-.1 3.55.45.25 1.05.6" fill="#03102d" fill-rule="evenodd" transform="translate(11.4 -7.55)"/><path d="M18.55 9q1.95-4.05 5.25-7.3L24.95.2q.7 1.45.35 2.9-.45 2.05-1.95 3.55 1.2-.4 2.15-1.3 1.25-1.05 2-2.6l.3-.8q0 2.85-1.75 4.95-1.6 1.95-4.15 2.1l.5.25.5.15H24l2.05-.7-.8 1q-1.3 1-3.1.95l-1.95-.05-.35.3.15.5.2.4.2.25.7.3.9.35.7-.4q-.5.85-1.7 1.05-1.2.35-2.2-.5-1-.85-.9-2L18.55 9M17 6.95l-.8-.3-.5.55q1.5 3.4.4 6.7l-1 .15-1.5-1.55 1.35.9.7-.15.3-.4q-1.2-3.55-.35-7.2L14 5.1l.9.2 1.75.55.35 1.1m-2.85 2Q9.6 5.2 6 .2q-.95 3.65 1.6 6.45-3-1.5-4.45-4.7.1 6 5.9 7.05-2.1 1.45-4.15-.3 2.15 3.35 5.85 1.9l.4.35q-.25 1.95-2.4 1.4l-.6-.2Q13 15 14 9.7l.15-.75" fill="none" stroke="#03102d" stroke-linecap="round" stroke-linejoin="round" stroke-width=".4"/></g><path d="M27.35 7.4q2.15 4.15 3.55 8.75 1.45 4.7 1.15 9.5-.35 4.95-4.2 8.1-3.8 3.2-8.75 4.05l-2.6.2q-3.6 0-7.05-1.15-4.65-1.6-7.1-5.5Q-.2 27.4.05 23q.2-4.4 2-9.3Q3.85 8.75 7 5.05 10.1 1.3 14.7.1l1.8-.1q1.9.05 3.7.8 4.75 2.05 7.15 6.6" fill="#ffc192" fill-rule="evenodd" transform="translate(-.05)" id="f"/><path d="M27.35 7.4Q24.95 2.85 20.2.8 17.55-.3 14.7.1 10.1 1.3 7 5.05q-3.15 3.7-4.95 8.65-1.8 4.9-2 9.3-.25 4.4 2.3 8.35 2.45 3.9 7.1 5.5 4.65 1.55 9.65.95 4.95-.85 8.75-4.05 3.85-3.15 4.2-8.1.3-4.8-1.15-9.5-1.4-4.6-3.55-8.75Z" fill="none" stroke="#333" stroke-linecap="round" stroke-linejoin="round" transform="translate(.45 .5)" id="g"/></defs></svg>