<?xml version="1.0" encoding="UTF-8" standalone="no"?>
<svg xmlns:xlink="http://www.w3.org/1999/xlink" height="82.0px" width="84.85px" xmlns="http://www.w3.org/2000/svg">
  <g transform="matrix(1.0, 0.0, 0.0, 1.0, 37.4, 42.25)">
    <use height="38.0" transform="matrix(1.0, 0.0, 0.0, 1.0, -11.95, -17.45)" width="32.05" xlink:href="#sprite0"/>
    <use height="38.95" transform="matrix(1.0, 0.0, 0.0, 1.0, -12.45, -17.95)" width="33.05" xlink:href="#sprite1"/>
    <use height="20.2" transform="matrix(1.0, 0.0, 0.0, 1.0, -12.8, 2.85)" width="33.5" xlink:href="#shape2"/>
  </g>
  <defs>
    <g id="sprite0" transform="matrix(1.0, 0.0, 0.0, 1.0, -0.05, 0.0)">
      <use height="38.0" transform="matrix(1.0, 0.0, 0.0, 1.0, 0.05, 0.0)" width="32.05" xlink:href="#shape0"/>
    </g>
    <g id="shape0" transform="matrix(1.0, 0.0, 0.0, 1.0, -0.05, 0.0)">
      <path d="M27.35 7.4 Q29.5 11.55 30.9 16.15 32.35 20.85 32.05 25.65 31.7 30.6 27.85 33.75 24.05 36.95 19.1 37.8 L16.5 38.0 Q12.9 38.0 9.45 36.85 4.8 35.25 2.35 31.35 -0.2 27.4 0.05 23.0 0.25 18.6 2.05 13.7 3.85 8.75 7.0 5.05 10.1 1.3 14.7 0.1 L16.5 0.0 Q18.4 0.05 20.2 0.8 24.95 2.85 27.35 7.4" fill="#ffffff" fill-rule="evenodd" stroke="none"/>
    </g>
    <g id="sprite1" transform="matrix(1.0, 0.0, 0.0, 1.0, 0.45, 0.5)">
      <use height="38.95" transform="matrix(1.0, 0.0, 0.0, 1.0, -0.45, -0.5)" width="33.05" xlink:href="#shape1"/>
    </g>
    <g id="shape1" transform="matrix(1.0, 0.0, 0.0, 1.0, 0.45, 0.5)">
      <path d="M27.35 7.4 Q24.95 2.85 20.2 0.8 17.55 -0.3 14.7 0.1 10.1 1.3 7.0 5.05 3.85 8.75 2.05 13.7 0.25 18.6 0.05 23.0 -0.2 27.4 2.35 31.35 4.8 35.25 9.45 36.85 14.1 38.4 19.1 37.8 24.05 36.95 27.85 33.75 31.7 30.6 32.05 25.65 32.35 20.85 30.9 16.15 29.5 11.55 27.35 7.4 Z" fill="none" stroke="#1e1e1e" stroke-linecap="round" stroke-linejoin="round" stroke-width="1.0"/>
    </g>
    <g id="shape2" transform="matrix(1.0, 0.0, 0.0, 1.0, 12.8, -2.85)">
      <path d="M20.35 4.65 Q19.9 4.8 19.9 5.2 L19.95 5.6 Q19.1 5.85 17.7 8.3 16.95 9.7 16.95 11.5 16.95 12.2 17.1 12.7 L17.7 13.65 17.65 13.8 Q17.65 14.15 17.95 14.15 18.6 14.15 19.9 11.2 L19.95 11.1 20.7 7.0 Q20.7 5.05 20.35 4.65" fill="#000000" fill-rule="evenodd" stroke="none"/>
      <path d="M-9.05 11.5 Q-9.05 12.2 -9.2 12.7 L-9.8 13.65 -9.75 13.8 Q-9.75 14.15 -10.05 14.15 -10.7 14.15 -12.0 11.2 L-12.05 11.1 -12.8 7.0 Q-12.8 5.05 -12.45 4.65 -12.0 4.8 -12.0 5.2 L-12.05 5.6 Q-11.2 5.85 -9.8 8.3 -9.05 9.7 -9.05 11.5" fill="#000000" fill-rule="evenodd" stroke="none"/>
      <path d="M18.7 3.85 L18.75 3.85 Q19.55 3.05 19.8 3.05 L19.95 3.1 20.4 3.35 20.7 3.95 20.7 4.0 Q20.9 6.15 19.0 7.05 19.2 7.8 18.65 8.0 L18.8 9.7 18.85 9.7 19.25 19.85 19.2 20.15 18.95 20.3 17.9 20.75 17.7 20.85 17.6 20.9 17.5 20.95 Q2.15 25.35 -8.95 20.6 L-9.0 20.55 -10.05 20.0 Q-10.3 19.8 -10.45 19.75 L-10.65 19.55 -10.7 19.3 -9.8 9.85 -9.95 9.35 Q-11.45 8.65 -11.1 6.9 -13.0 6.05 -12.3 3.35 L-12.2 3.0 Q-12.1 2.85 -11.9 2.85 L-11.55 2.85 -10.9 3.2 -10.55 3.45 -9.5 4.4 -9.3 4.5 -9.7 4.45 -11.1 4.15 -11.45 4.05 Q-11.65 5.65 -10.35 6.1 L-10.05 6.35 -10.0 6.7 Q-10.45 8.1 -9.45 8.55 L-9.25 8.7 -9.15 8.95 -8.95 9.7 -8.9 9.95 -9.0 11.4 -9.1 11.4 -9.65 19.05 -9.55 19.15 -8.65 19.65 -8.6 19.65 Q2.15 24.3 17.15 20.0 L17.3 19.9 17.45 19.85 17.55 19.85 18.25 19.55 18.1 11.4 18.05 11.4 18.0 8.25 18.05 8.1 18.0 7.15 18.0 6.85 18.0 6.5 Q18.1 6.3 18.3 6.25 19.6 5.75 19.7 4.55 L19.7 4.1 19.65 4.15 18.25 4.45 18.25 4.4 18.3 4.35 18.25 4.35 18.1 4.4 18.7 3.85" fill="#000000" fill-rule="evenodd" stroke="none"/>
      <path d="M18.7 3.85 L18.1 4.4 18.25 4.35 18.2 4.4 18.25 4.4 18.25 4.45 19.65 4.15 19.65 4.55 Q17.75 6.95 14.65 7.6 L8.6 8.4 3.4 7.85 -2.35 7.25 Q-5.1 7.05 -7.75 6.1 L-11.15 4.15 -9.65 4.5 -9.7 4.45 -9.3 4.5 -9.5 4.4 -10.55 3.45 Q-7.25 5.15 0.45 6.65 L-0.2 6.5 4.6 7.0 9.2 6.85 13.4 6.15 Q15.75 5.6 17.55 4.55 L18.7 3.85" fill="#676767" fill-rule="evenodd" stroke="none"/>
      <path d="M-9.5 9.1 L-9.0 10.4 -9.0 10.6 -9.4 19.15 -7.5 19.85 Q-3.15 21.35 1.35 21.85 L9.7 21.25 9.05 22.2 Q4.3 22.9 -0.4 22.35 -4.65 21.85 -8.45 20.15 L-10.2 19.3 -9.5 9.1 M17.5 9.85 L17.55 9.8 17.5 9.45 17.45 9.0 18.05 9.1 18.2 19.55 11.8 20.85 12.65 20.35 13.75 19.5 17.05 18.5 16.9 11.3 17.55 10.55 17.5 9.85" fill="#ffcc00" fill-rule="evenodd" stroke="none"/>
      <path d="M-7.65 11.0 L-7.2 10.8 -7.15 11.85 -7.3 11.8 -7.65 11.0 M-7.05 11.95 L-6.15 12.3 -6.0 13.4 -4.65 14.25 Q-2.6 14.3 -2.45 12.35 L-1.7 12.45 -1.2 12.35 -1.05 11.8 -1.05 11.1 -0.25 11.25 0.45 10.9 0.4 10.0 0.4 9.95 1.85 9.85 Q2.45 9.55 2.65 8.65 L2.75 8.1 5.6 8.1 5.6 8.85 3.0 8.85 2.9 9.5 Q2.85 10.35 2.1 10.85 L0.6 10.95 0.45 12.05 -0.85 12.1 -0.85 12.6 -1.0 13.45 -1.2 13.5 -2.3 13.45 Q-2.1 14.65 -3.35 15.2 -5.7 16.2 -6.0 13.4 -6.45 13.4 -6.75 13.0 L-7.05 11.95 M5.65 9.15 L5.95 9.65 6.3 10.05 7.55 9.95 7.9 11.15 8.65 11.3 9.15 12.2 9.55 12.65 10.75 12.55 11.25 13.75 11.6 14.15 12.05 14.55 13.3 14.45 13.85 14.2 14.25 13.8 14.55 12.45 15.05 12.35 15.6 11.6 15.5 10.7 16.8 10.8 16.9 11.3 17.05 18.5 13.75 19.5 10.45 20.2 1.7 20.7 Q-2.45 20.35 -6.3 18.9 L-0.85 16.4 -0.7 16.7 0.5 16.2 3.15 16.2 3.25 18.15 2.95 19.1 3.25 18.15 3.25 18.65 2.95 19.1 3.15 19.3 3.5 19.35 3.65 19.3 3.8 19.45 Q4.45 20.2 5.0 19.3 L5.1 19.35 5.75 19.65 6.05 19.6 5.5 18.35 5.3 16.25 7.9 16.25 8.3 16.55 8.7 16.9 8.7 16.85 8.7 16.9 8.3 16.55 8.7 16.85 8.65 16.05 8.85 15.6 9.0 15.15 8.85 15.1 8.75 14.95 8.65 14.35 8.85 13.85 8.85 13.55 8.75 13.65 8.65 13.65 7.65 14.3 5.3 14.3 5.3 12.1 5.3 11.95 6.35 10.95 5.85 10.45 5.65 9.15 M8.85 13.55 L8.65 13.65 8.85 13.55 M3.15 13.8 L3.15 14.3 2.45 14.3 3.15 13.8" fill="#510000" fill-rule="evenodd" stroke="none"/>
      <path d="M-7.7 11.0 L-7.65 11.0 -7.3 11.8 -7.15 11.85 -7.05 11.95 -6.75 13.0 Q-6.45 13.4 -6.0 13.4 -5.7 16.2 -3.35 15.2 -2.1 14.65 -2.3 13.45 L-1.2 13.5 -1.0 13.45 -0.85 12.6 -0.85 12.1 0.45 12.05 0.6 10.95 2.1 10.85 Q2.85 10.35 2.9 9.5 L3.0 8.85 5.6 8.85 5.65 9.15 5.85 10.45 6.35 10.95 5.3 11.95 5.9 11.25 5.2 11.1 4.85 11.45 4.5 11.0 4.1 10.85 3.45 11.45 Q3.35 11.1 2.95 11.05 L2.45 11.1 2.95 11.05 Q3.35 11.1 3.45 11.45 L2.45 11.1 2.35 11.15 2.4 11.2 2.35 11.15 2.45 11.1 2.4 11.2 3.0 11.9 3.0 11.95 3.05 11.95 3.1 13.0 3.15 13.45 3.15 13.8 3.1 13.0 3.15 13.8 2.45 14.3 1.7 14.3 0.55 14.3 -0.05 14.0 -0.5 13.7 -0.3 14.55 Q-0.6 14.55 -0.8 14.8 L-1.05 15.3 -0.55 15.65 -0.5 15.75 -0.45 15.8 -0.75 16.25 -0.85 16.4 -6.3 18.9 -8.5 17.95 -8.0 11.5 -7.7 11.0 M-0.3 14.55 L-0.45 14.4 Q-0.8 13.7 -0.5 13.7 -0.8 13.7 -0.45 14.4 L-0.3 14.55 M-0.5 15.75 L-1.05 15.3 -0.5 15.75" fill="#990000" fill-rule="evenodd" stroke="none"/>
      <path d="M11.8 20.85 L9.7 21.25 1.35 21.85 Q-3.15 21.35 -7.5 19.85 L-6.3 18.9 Q-2.45 20.35 1.7 20.7 L10.45 20.2 13.75 19.5 12.65 20.35 11.8 20.85 M8.85 13.55 L8.85 13.85 8.65 14.35 8.75 14.95 8.85 15.1 9.0 15.15 8.85 15.6 8.65 16.05 8.7 16.85 8.3 16.55 7.9 16.25 5.3 16.25 5.5 18.35 6.05 19.6 5.75 19.65 5.1 19.35 5.0 19.3 Q4.45 20.2 3.8 19.45 L3.65 19.3 3.5 19.35 3.15 19.3 2.95 19.1 3.25 18.65 3.25 18.15 3.15 16.2 0.5 16.2 -0.7 16.7 -0.85 16.4 -0.75 16.25 -0.45 15.8 -0.5 15.75 -0.55 15.65 1.7 14.3 2.45 14.3 3.15 14.3 3.15 13.8 3.15 13.45 5.3 12.1 5.3 14.3 7.65 14.3 8.65 13.65 8.75 13.65 8.85 13.55 M8.45 15.9 L8.4 15.85 8.45 15.85 8.85 15.6 8.45 15.85 8.45 15.9 8.65 16.05 8.45 15.9 8.45 15.85 8.4 15.85 8.45 15.9 M8.85 15.1 L8.2 14.75 8.65 14.35 8.2 14.75 8.85 15.1 M-0.7 16.7 L-0.75 16.25 -0.7 16.7 M5.0 19.3 L5.05 19.25 5.1 19.35 5.05 19.25 5.0 19.3" fill="#ffff37" fill-rule="evenodd" stroke="none"/>
      <path d="M-7.5 19.85 L-9.4 19.15 -9.0 10.6 -8.0 11.5 -8.5 17.95 -6.3 18.9 -7.5 19.85" fill="#ffff66" fill-rule="evenodd" stroke="none"/>
      <path d="M2.4 11.2 L2.45 11.1 3.45 11.45 4.1 10.85 4.5 11.0 4.85 11.45 5.2 11.1 5.9 11.25 5.3 11.95 5.3 12.1 3.15 13.45 3.1 13.0 3.05 11.95 3.0 11.95 3.0 11.9 3.05 11.95 3.0 11.9 2.4 11.2 M1.7 14.3 L-0.55 15.65 -1.05 15.3 -0.8 14.8 Q-0.6 14.55 -0.3 14.55 L-0.5 13.7 -0.05 14.0 0.55 14.3 1.7 14.3" fill="#ffff99" fill-rule="evenodd" stroke="none"/>
      <path d="M-9.0 10.4 Q-8.9 10.9 -8.15 11.05 L-7.7 11.0 -8.0 11.5 -9.0 10.6 -9.0 10.4 M16.8 10.8 L17.5 9.85 17.55 10.55 16.9 11.3 16.8 10.8 M17.5 9.45 L17.3 8.5 18.05 8.6 18.05 9.1 17.45 9.0 17.5 9.45 M18.5 8.25 L18.55 8.1 18.5 8.9 18.5 8.25" fill="#9b9b00" fill-opacity="0.33333334" fill-rule="evenodd" stroke="none"/>
      <path d="M16.8 8.3 L16.75 8.35 16.75 8.3 16.8 8.3 M13.85 12.05 L13.8 12.05 13.8 12.0 13.85 12.05 M11.4 12.65 Q11.25 11.9 10.4 11.9 L10.0 11.7 9.55 10.6 8.6 10.35 8.15 9.5 6.75 9.0 6.4 8.15 Q11.45 8.0 16.15 5.95 L16.25 6.75 14.75 7.7 15.4 8.65 15.25 9.45 14.0 9.5 Q14.75 10.75 13.75 11.2 L13.45 11.3 12.9 11.4 13.05 12.1 12.9 12.4 Q12.55 12.9 11.9 12.9 L11.4 12.65 M0.4 10.0 L0.35 9.95 0.4 9.95 0.4 10.0 M0.85 7.95 L0.25 8.95 -0.65 8.9 Q-1.7 8.75 -1.35 9.1 L-1.5 9.25 -2.7 9.45 -2.5 10.4 -3.1 11.2 -3.9 11.15 -3.85 11.6 Q-3.6 12.45 -4.25 12.65 L-5.1 12.85 -5.55 12.5 -5.7 11.9 -6.6 11.55 -6.85 11.4 -6.8 10.5 -8.5 9.8 -8.6 8.4 -9.45 8.15 -9.95 6.15 Q-11.45 5.35 -11.45 3.7 -5.65 7.0 0.85 7.95 M-1.55 10.6 L-1.6 10.55 -1.5 10.6 -1.55 10.6 M0.0 10.3 L-0.05 10.3 0.0 10.2 0.0 10.3" fill="#ffffff" fill-rule="evenodd" stroke="none"/>
      <path d="M18.05 8.6 L18.5 8.25 18.5 8.9 18.75 19.85 18.15 20.15 Q13.8 21.85 9.05 22.2 L9.7 21.25 11.8 20.85 18.2 19.55 18.05 9.1 18.05 8.6" fill="#e6a000" fill-rule="evenodd" stroke="none"/>
      <path d="M16.8 8.3 L17.75 7.8 18.0 7.55 18.2 7.25 18.1 6.4 19.35 5.8 19.6 4.3 16.15 5.95 Q11.45 8.0 6.4 8.15 L6.75 9.0 8.15 9.5 8.6 10.35 9.55 10.6 10.0 11.7 10.4 11.9 Q11.25 11.9 11.4 12.65 L12.3 13.55 13.6 12.9 13.8 12.05 13.85 12.05 14.7 11.75 15.0 11.3 15.05 10.25 16.05 10.05 16.95 9.75 16.75 8.35 16.8 8.3 M-9.5 9.1 L-10.05 8.45 Q-10.65 7.75 -10.5 7.0 L-10.4 6.4 -11.25 5.6 Q-12.05 4.45 -11.7 3.2 -6.9 5.7 -1.65 6.85 L6.2 7.45 Q13.45 6.8 19.9 3.4 L20.25 3.95 Q20.6 4.8 20.0 5.55 L19.8 5.9 18.55 6.55 18.55 8.1 18.5 8.25 18.05 8.6 17.3 8.5 17.5 9.45 17.55 9.8 17.5 9.85 16.8 10.8 15.5 10.7 15.6 11.6 15.05 12.35 14.55 12.45 14.25 13.8 13.85 14.2 13.3 14.45 12.05 14.55 11.6 14.15 11.25 13.75 10.75 12.55 9.55 12.65 9.15 12.2 8.65 11.3 7.9 11.15 7.55 9.95 6.3 10.05 5.95 9.65 5.65 9.15 5.6 8.85 5.6 8.1 2.75 8.1 2.65 8.65 Q2.45 9.55 1.85 9.85 L0.4 9.95 0.35 9.95 0.4 10.0 0.45 10.9 -0.25 11.25 -1.05 11.1 -1.05 11.8 -1.2 12.35 -1.7 12.45 -2.45 12.35 Q-2.6 14.3 -4.65 14.25 L-6.0 13.4 -6.15 12.3 -7.05 11.95 -7.15 11.85 -7.2 10.8 -7.65 11.0 -7.7 11.0 -8.15 11.05 Q-8.9 10.9 -9.0 10.4 L-9.5 9.1 M-5.55 12.5 Q-5.5 13.35 -4.8 13.6 L-3.5 13.35 -3.15 12.2 -1.85 11.6 -1.55 10.6 -1.5 10.6 -1.25 10.6 Q-0.35 10.95 0.0 10.3 L0.0 10.2 0.0 9.85 0.2 9.65 1.75 9.35 2.4 8.05 0.85 7.95 Q-5.65 7.0 -11.45 3.7 -11.45 5.35 -9.95 6.15 L-9.45 8.15 -8.6 8.4 -8.5 9.8 -6.8 10.5 -6.85 11.4 -6.6 11.55 -5.7 11.9 -5.55 12.5" fill="#ffa41c" fill-rule="evenodd" stroke="none"/>
      <path d="M16.15 5.95 L19.6 4.3 19.35 5.8 18.1 6.4 18.2 7.25 18.0 7.55 17.75 7.8 16.8 8.3 16.75 8.3 16.75 8.35 16.95 9.75 16.05 10.05 15.05 10.25 15.0 11.3 14.7 11.75 13.85 12.05 13.8 12.0 13.8 12.05 13.6 12.9 12.3 13.55 11.4 12.65 11.9 12.9 Q12.55 12.9 12.9 12.4 L13.05 12.1 12.9 11.4 13.45 11.3 13.75 11.2 Q14.75 10.75 14.0 9.5 L15.25 9.45 15.4 8.65 14.75 7.7 16.25 6.75 16.15 5.95 M-5.55 12.5 L-5.1 12.85 -4.25 12.65 Q-3.6 12.45 -3.85 11.6 L-3.9 11.15 -3.1 11.2 -2.5 10.4 -2.7 9.45 -1.5 9.25 -1.35 9.1 Q-1.7 8.75 -0.65 8.9 L0.25 8.95 0.85 7.95 2.4 8.05 1.75 9.35 0.2 9.65 0.0 9.85 0.0 10.2 -0.05 10.3 0.0 10.3 Q-0.35 10.95 -1.25 10.6 L-1.5 10.6 -1.6 10.55 -1.55 10.6 -1.85 11.6 -3.15 12.2 -3.5 13.35 -4.8 13.6 Q-5.5 13.35 -5.55 12.5" fill="#9b9b00" fill-opacity="0.49019608" fill-rule="evenodd" stroke="none"/>
      <path d="M2.45 11.1 L2.35 11.15 2.4 11.2 3.0 11.9 3.05 11.95 3.1 13.0 3.15 13.8 3.15 14.3 2.45 14.3 1.7 14.3 0.55 14.3 -0.05 14.0 -0.5 13.7 Q-0.8 13.7 -0.45 14.4 L-0.3 14.55 Q-0.6 14.55 -0.8 14.8 L-1.05 15.3 -0.5 15.75 -0.45 15.8 -0.75 16.25 -0.7 16.7 0.5 16.2 3.15 16.2 3.25 18.15 2.95 19.1 3.15 19.3 3.5 19.35 3.65 19.3 3.8 19.45 Q4.45 20.2 5.0 19.3 L5.05 19.25 5.1 19.35 5.75 19.65 6.05 19.6 5.5 18.35 5.3 16.25 7.9 16.25 8.3 16.55 8.7 16.9 8.7 16.85 8.65 16.05 8.45 15.9 8.45 15.85 8.4 15.85 8.45 15.9 M2.45 11.1 L2.95 11.05 Q3.35 11.1 3.45 11.45 L4.1 10.85 4.5 11.0 4.85 11.45 5.2 11.1 5.9 11.25 5.3 11.95 5.3 12.1 5.3 14.3 7.65 14.3 8.65 13.65 8.85 13.55 8.85 13.85 8.65 14.35 8.2 14.75 8.85 15.1 9.0 15.15 8.85 15.6 8.45 15.85" fill="none" stroke="#ffcc00" stroke-linecap="round" stroke-linejoin="round" stroke-width="0.25"/>
    </g>
  </defs>
</svg>
