<?xml version="1.0" encoding="UTF-8" standalone="no"?>
<svg xmlns:xlink="http://www.w3.org/1999/xlink" height="82.0px" width="84.85px" xmlns="http://www.w3.org/2000/svg">
  <g transform="matrix(1.0, 0.0, 0.0, 1.0, 37.4, 42.25)">
    <use height="38.0" transform="matrix(1.0, 0.0, 0.0, 1.0, -11.95, -17.45)" width="32.05" xlink:href="#sprite0"/>
    <use height="38.95" transform="matrix(1.0, 0.0, 0.0, 1.0, -12.45, -17.95)" width="33.05" xlink:href="#sprite1"/>
    <use height="26.05" transform="matrix(1.0, 0.0, 0.0, 1.0, -15.95, -2.8)" width="39.85" xlink:href="#shape2"/>
  </g>
  <defs>
    <g id="sprite0" transform="matrix(1.0, 0.0, 0.0, 1.0, -0.05, 0.0)">
      <use height="38.0" transform="matrix(1.0, 0.0, 0.0, 1.0, 0.05, 0.0)" width="32.05" xlink:href="#shape0"/>
    </g>
    <g id="shape0" transform="matrix(1.0, 0.0, 0.0, 1.0, -0.05, 0.0)">
      <path d="M27.35 7.4 Q29.5 11.55 30.9 16.15 32.35 20.85 32.05 25.65 31.7 30.6 27.85 33.75 24.05 36.95 19.1 37.8 L16.5 38.0 Q12.9 38.0 9.45 36.85 4.8 35.25 2.35 31.35 -0.2 27.4 0.05 23.0 0.25 18.6 2.05 13.7 3.85 8.75 7.0 5.05 10.1 1.3 14.7 0.1 L16.5 0.0 Q18.4 0.05 20.2 0.8 24.95 2.85 27.35 7.4" fill="#ffffff" fill-rule="evenodd" stroke="none"/>
    </g>
    <g id="sprite1" transform="matrix(1.0, 0.0, 0.0, 1.0, 0.45, 0.5)">
      <use height="38.95" transform="matrix(1.0, 0.0, 0.0, 1.0, -0.45, -0.5)" width="33.05" xlink:href="#shape1"/>
    </g>
    <g id="shape1" transform="matrix(1.0, 0.0, 0.0, 1.0, 0.45, 0.5)">
      <path d="M27.35 7.4 Q24.95 2.85 20.2 0.8 17.55 -0.3 14.7 0.1 10.1 1.3 7.0 5.05 3.85 8.75 2.05 13.7 0.25 18.6 0.05 23.0 -0.2 27.4 2.35 31.35 4.8 35.25 9.45 36.85 14.1 38.4 19.1 37.8 24.05 36.95 27.85 33.75 31.7 30.6 32.05 25.65 32.35 20.85 30.9 16.15 29.5 11.55 27.35 7.4 Z" fill="none" stroke="#1e1e1e" stroke-linecap="round" stroke-linejoin="round" stroke-width="1.0"/>
    </g>
    <g id="shape2" transform="matrix(1.0, 0.0, 0.0, 1.0, 15.95, 2.8)">
      <path d="M2.2 20.95 L2.2 19.95 6.7 20.0 6.65 21.0 2.2 20.95 M2.2 15.0 L2.25 13.85 4.5 15.35 6.8 13.95 6.8 15.1 4.5 16.55 2.2 15.0" fill="#540404" fill-rule="evenodd" stroke="none"/>
      <path d="M2.2 19.95 L2.2 15.0 4.5 16.55 6.8 15.1 6.7 20.0 2.2 19.95" fill="#f00000" fill-rule="evenodd" stroke="none"/>
      <path d="M20.5 6.6 L20.7 7.8 19.4 9.05 Q16.05 11.7 11.75 12.55 L7.75 13.0 7.75 15.45 7.75 18.05 7.7 20.0 7.6 20.95 6.45 22.6 6.65 21.0 6.7 20.0 6.8 15.1 6.8 13.95 6.8 13.0 6.5 12.6 Q6.15 9.35 6.95 6.25 L7.85 6.15 Q15.15 6.6 20.6 2.1 19.9 2.8 20.0 3.8 L16.0 5.9 14.7 6.3 Q11.7 7.35 8.45 7.3 L7.6 7.25 7.45 10.1 7.35 12.0 Q14.45 11.0 20.5 6.6 M1.65 12.2 L1.8 11.15 1.85 10.1 1.8 9.0 1.55 7.45 0.0 7.55 -3.6 6.95 -8.5 5.25 -11.4 3.75 -11.15 2.8 Q-5.15 6.55 2.3 6.5 3.6 9.95 2.25 13.25 L2.25 13.85 2.2 15.0 2.2 19.95 2.2 20.95 2.25 23.2 1.1 23.15 1.5 23.05 1.7 22.8 Q1.7 22.65 1.3 22.45 L1.1 20.15 1.1 18.25 1.15 16.95 1.2 15.65 1.2 14.75 1.3 13.25 -2.65 12.75 -4.45 12.15 Q-8.95 10.8 -12.45 7.55 L-12.15 6.4 -11.85 6.75 Q-9.9 7.95 -8.05 9.3 -3.65 12.7 1.65 12.2 M-13.3 6.45 L-13.45 5.65 Q-13.75 4.0 -13.0 2.45 L-13.3 6.45" fill="#9a0000" fill-rule="evenodd" stroke="none"/>
      <path d="M21.0 5.85 Q21.7 4.6 21.0 3.6 L20.65 3.1 20.0 3.8 Q19.9 2.8 20.6 2.1 20.7 1.95 20.85 1.9 21.3 2.45 21.35 3.05 L22.2 11.0 Q22.55 13.5 23.6 15.75 24.45 17.65 22.8 18.9 14.95 24.7 6.45 22.6 L7.6 20.95 7.45 22.25 Q15.55 22.95 21.9 18.15 L22.3 17.8 22.6 17.45 21.95 16.5 21.75 15.2 21.45 15.75 21.3 15.55 21.0 14.75 20.95 14.25 21.9 13.05 20.9 11.8 20.7 7.8 20.5 6.6 21.0 5.85 M-11.4 3.75 L-12.2 2.95 -12.6 3.55 Q-13.1 4.4 -12.75 5.25 L-12.8 5.2 -12.3 6.15 -12.15 6.4 -12.45 7.55 -12.65 11.75 -13.8 12.9 -12.8 14.15 -13.4 15.65 -13.6 15.25 -14.65 17.25 -13.3 18.35 Q-8.45 21.95 -2.4 22.4 L1.3 22.45 Q1.7 22.65 1.7 22.8 L1.5 23.05 1.1 23.15 0.95 23.15 0.6 23.15 Q-8.0 23.85 -14.95 18.35 L-15.95 17.4 -13.9 11.25 Q-13.2 8.9 -13.3 6.45 L-13.0 2.45 -12.55 1.85 -11.15 2.75 -11.15 2.8 -11.4 3.75" fill="#260000" fill-rule="evenodd" stroke="none"/>
      <path d="M21.0 4.8 L20.85 3.4 19.85 4.4 21.0 4.8 M20.0 3.8 L20.65 3.1 21.0 3.6 Q21.7 4.6 21.0 5.85 L21.2 5.05 Q15.2 10.2 7.45 10.1 L7.6 7.25 8.45 7.3 Q11.7 7.35 14.7 6.3 L13.4 6.85 Q10.85 7.65 8.3 7.6 L8.0 8.75 8.05 9.15 8.3 9.45 Q8.65 9.15 9.1 9.05 13.45 7.65 17.5 5.4 L16.0 5.9 20.0 3.8 M15.9 17.1 L16.15 18.65 10.75 20.0 10.8 18.15 15.9 17.1 M-3.6 6.95 L0.0 7.55 1.55 7.45 1.8 9.0 1.85 10.1 1.8 11.15 1.65 12.2 1.45 10.55 Q-6.7 10.6 -12.75 5.25 -13.1 4.4 -12.6 3.55 L-12.2 2.95 -11.4 3.75 -8.5 5.25 -10.4 4.6 -7.5 6.15 -3.2 8.15 -0.75 7.9 -3.6 6.95 M-11.85 6.75 L-12.15 6.4 -12.3 6.15 -11.85 6.75 M-12.45 7.55 Q-8.95 10.8 -4.45 12.15 L-2.65 12.75 -3.2 15.25 -3.2 15.3 -4.75 14.8 -10.35 12.7 -9.65 10.3 -10.8 12.4 -12.5 10.65 -12.35 11.35 -12.65 11.75 -12.45 7.55 M1.2 14.75 L1.2 15.65 1.15 15.65 1.2 14.75 M10.4 15.45 L10.45 14.5 9.9 14.05 10.85 13.5 11.7 12.75 8.2 13.75 Q9.15 14.05 9.6 14.85 L9.75 15.5 7.75 15.45 7.75 13.0 11.75 12.55 15.1 12.65 15.3 14.25 10.4 15.45 M9.75 18.25 L9.75 20.1 7.7 20.0 7.75 18.05 9.75 18.25 M-12.15 3.3 Q-12.9 3.75 -12.7 4.75 L-12.6 5.0 -11.8 3.7 -12.15 3.3 M-11.9 14.95 L-12.8 16.25 -13.4 15.65 -12.8 14.15 -11.9 14.95 M-11.7 17.0 L-11.15 15.45 Q-10.45 15.85 -9.7 16.3 -7.2 17.6 -4.2 17.95 L-4.85 19.5 -7.3 18.7 -11.7 17.0" fill="#ffbe00" fill-rule="evenodd" stroke="none"/>
      <path d="M20.9 11.8 L21.9 13.05 20.95 14.25 20.95 14.2 20.9 11.8 M21.45 15.75 L21.75 15.2 21.95 16.5 21.45 15.75 M22.6 17.45 L22.3 17.8 22.3 17.75 22.6 17.45 M21.9 18.15 Q15.55 22.95 7.45 22.25 L7.6 20.95 7.7 20.0 9.75 20.1 9.55 21.9 10.15 22.05 Q11.1 22.0 11.75 21.4 L10.75 20.5 10.75 20.0 16.15 18.65 16.4 21.0 19.8 19.3 20.7 18.8 21.1 18.6 21.9 18.15 M1.2 15.65 L1.15 16.95 1.15 15.65 1.2 15.65 M9.75 15.5 L9.05 17.1 9.75 18.25 7.75 18.05 7.75 15.45 9.75 15.5 M10.8 18.15 Q9.7 17.5 10.15 16.2 L10.4 15.45 15.3 14.25 15.9 17.1 10.8 18.15 M-3.2 15.3 L-4.2 17.95 Q-7.2 17.6 -9.7 16.3 -10.45 15.85 -11.15 15.45 L-10.35 12.7 -4.75 14.8 -3.2 15.3 M-4.85 19.5 L-6.0 21.65 -2.4 22.4 Q-8.45 21.95 -13.3 18.35 L-14.65 17.25 -13.6 15.25 -13.4 15.65 -12.8 16.25 -13.3 17.15 -14.05 17.3 -12.65 18.6 -12.7 17.75 -12.15 17.65 -11.7 17.0 -7.3 18.7 -4.85 19.5 M-12.65 11.75 L-12.35 11.35 -12.5 10.65 -10.8 12.4 -11.9 13.75 -11.9 14.95 -12.8 14.15 -13.8 12.9 -12.65 11.75" fill="#ffff00" fill-rule="evenodd" stroke="none"/>
      <path d="M21.0 5.85 L20.5 6.6 Q14.45 11.0 7.35 12.0 L7.45 10.1 Q15.2 10.2 21.2 5.05 L21.0 5.85 M20.7 7.8 L20.9 11.8 20.7 10.9 19.8 12.0 19.75 11.9 19.65 12.1 15.3 14.25 15.1 12.65 11.75 12.55 Q16.05 11.7 19.4 9.05 L20.7 7.8 M20.95 14.25 L21.0 14.75 20.8 14.35 20.95 14.2 20.95 14.25 M21.3 15.55 L21.45 15.75 21.45 15.8 21.3 15.55 M20.25 14.9 L20.6 16.6 16.15 18.65 15.9 17.1 20.25 14.9 M-12.75 5.25 Q-6.7 10.6 1.45 10.55 L1.65 12.2 Q-3.65 12.7 -8.05 9.3 -9.9 7.95 -11.85 6.75 L-12.3 6.15 -12.8 5.2 -12.75 5.25 M-2.65 12.75 L1.3 13.25 1.2 14.75 1.15 15.65 -3.2 15.25 -2.65 12.75 M1.1 18.25 L1.1 20.15 1.05 20.15 0.85 18.35 0.45 20.25 -4.85 19.5 -4.2 17.95 1.1 18.25" fill="#ff6900" fill-rule="evenodd" stroke="none"/>
      <path d="M21.95 16.5 L22.6 17.45 22.3 17.75 21.45 15.8 21.45 15.75 21.95 16.5 M19.8 12.0 L20.7 10.9 20.9 11.8 20.95 14.2 20.8 14.35 19.8 12.0 M20.6 16.6 L20.7 18.8 19.8 19.3 16.4 21.0 16.15 18.65 20.6 16.6 M19.65 12.1 L20.25 14.9 15.9 17.1 15.3 14.25 19.65 12.1 M1.15 16.95 L1.1 18.25 -4.2 17.95 -3.2 15.3 -3.2 15.25 1.15 15.65 1.15 16.95 M1.1 20.15 L1.3 22.45 -2.4 22.4 -6.0 21.65 -4.85 19.5 0.45 20.25 -0.3 22.25 0.9 21.55 1.05 20.15 1.1 20.15" fill="#ffb400" fill-rule="evenodd" stroke="none"/>
      <path d="M21.0 4.8 L19.85 4.4 20.85 3.4 21.0 4.8 M21.0 14.75 L21.3 15.55 21.45 15.8 22.3 17.75 22.3 17.8 21.9 18.15 21.1 18.6 20.7 18.8 20.6 16.6 20.25 14.9 19.65 12.1 19.75 11.9 19.8 12.0 20.8 14.35 21.0 14.75 M16.0 5.9 L17.5 5.4 Q13.45 7.65 9.1 9.05 8.65 9.15 8.3 9.45 L8.05 9.15 8.0 8.75 8.3 7.6 Q10.85 7.65 13.4 6.85 L14.7 6.3 16.0 5.9 M-3.6 6.95 L-0.75 7.9 -3.2 8.15 -7.5 6.15 -10.4 4.6 -8.5 5.25 -3.6 6.95 M9.75 15.5 L9.6 14.85 Q9.15 14.05 8.2 13.75 L11.7 12.75 10.85 13.5 9.9 14.05 10.45 14.5 10.4 15.45 10.15 16.2 Q9.7 17.5 10.8 18.15 L10.75 20.0 10.75 20.5 11.75 21.4 Q11.1 22.0 10.15 22.05 L9.55 21.9 9.75 20.1 9.75 18.25 9.05 17.1 9.75 15.5 M1.05 20.15 L0.9 21.55 -0.3 22.25 0.45 20.25 0.85 18.35 1.05 20.15 M-12.15 3.3 L-11.8 3.7 -12.6 5.0 -12.7 4.75 Q-12.9 3.75 -12.15 3.3 M-10.8 12.4 L-9.65 10.3 -10.35 12.7 -11.15 15.45 -11.7 17.0 -12.15 17.65 -12.7 17.75 -12.65 18.6 -14.05 17.3 -13.3 17.15 -12.8 16.25 -11.9 14.95 -11.9 13.75 -10.8 12.4" fill="#ffffff" fill-rule="evenodd" stroke="none"/>
      <path d="M0.7 15.8 L0.55 17.45 0.35 18.7 Q-1.35 20.75 -3.85 21.9 L-4.1 22.0 Q-6.1 21.05 -7.45 19.6 -8.65 18.45 -8.6 16.9 -8.5 15.1 -7.95 13.6 -6.8 12.65 -5.3 13.05 -2.55 12.85 0.0 13.65 0.8 14.6 0.7 15.8 M-0.25 16.35 L-0.65 14.5 -1.15 14.35 Q-3.3 13.7 -5.75 13.75 L-6.35 13.85 -7.1 14.15 -7.5 15.45 Q-7.9 16.75 -7.35 18.0 L-7.3 18.05 Q-6.0 19.85 -4.1 20.9 L-2.05 19.45 -0.85 18.1 -0.25 16.35" fill="#540404" fill-rule="evenodd" stroke="none"/>
      <path d="M-3.75 18.65 L-5.05 18.15 -4.6 15.3 -2.45 15.4 -2.25 14.45 -5.2 14.5 -5.6 15.15 -6.05 17.85 -7.5 15.75 -7.35 18.0 Q-7.9 16.75 -7.5 15.45 L-7.1 14.15 -6.35 13.85 Q-7.05 14.35 -7.25 15.1 -7.45 15.8 -6.9 16.4 L-5.75 13.75 Q-3.3 13.7 -1.15 14.35 L-0.65 14.5 -0.25 16.35 -0.8 16.85 Q-2.05 18.1 -3.75 18.65" fill="#d20000" fill-rule="evenodd" stroke="none"/>
      <path d="M-3.75 18.65 Q-2.05 18.1 -0.8 16.85 L-0.25 16.35 -0.85 18.1 -2.05 19.45 -4.1 20.9 Q-6.0 19.85 -7.3 18.05 L-7.35 18.0 -7.5 15.75 -6.05 17.85 Q-6.15 18.9 -5.2 19.3 L-2.7 19.65 -2.75 18.65 -3.75 18.65" fill="#910000" fill-rule="evenodd" stroke="none"/>
      <path d="M-6.05 17.85 L-5.6 15.15 -5.2 14.5 -2.25 14.45 -2.45 15.4 -4.6 15.3 -5.05 18.15 -3.75 18.65 -2.75 18.65 -2.7 19.65 -5.2 19.3 Q-6.15 18.9 -6.05 17.85" fill="#ffffff" fill-rule="evenodd" stroke="none"/>
      <path d="M-5.75 13.75 L-6.9 16.4 Q-7.45 15.8 -7.25 15.1 -7.05 14.35 -6.35 13.85 L-5.75 13.75" fill="#efd2cb" fill-rule="evenodd" stroke="none"/>
      <path d="M17.7 -0.55 L17.55 -0.05 Q16.5 2.45 14.0 3.0 L13.2 3.0 17.7 -0.55 M13.45 -0.75 L16.1 -2.8 Q15.45 -1.0 13.9 0.0 L11.75 1.2 Q12.5 0.1 13.45 -0.75 M-5.7 -0.7 Q-4.1 0.55 -2.65 2.05 L-6.1 0.35 Q-8.1 -0.75 -8.65 -2.8 -7.1 -1.9 -5.7 -0.7 M-7.9 2.3 L-9.25 0.2 -8.55 0.5 Q-7.6 1.05 -6.75 1.7 L-5.15 3.2 -7.9 2.3" fill="#9e9e9e" fill-rule="evenodd" stroke="none"/>
    </g>
  </defs>
</svg>
