<?xml version="1.0" encoding="UTF-8" standalone="no"?>
<svg xmlns:xlink="http://www.w3.org/1999/xlink" height="82.0px" width="84.85px" xmlns="http://www.w3.org/2000/svg">
  <g transform="matrix(1.0, 0.0, 0.0, 1.0, 37.4, 42.25)">
    <use height="38.0" transform="matrix(1.0, 0.0, 0.0, 1.0, -11.95, -17.45)" width="32.05" xlink:href="#sprite0"/>
    <use height="38.95" transform="matrix(1.0, 0.0, 0.0, 1.0, -12.45, -17.95)" width="33.05" xlink:href="#sprite1"/>
    <use height="26.75" transform="matrix(1.0, 0.0, 0.0, 1.0, -11.85, -6.25)" width="31.95" xlink:href="#sprite2"/>
  </g>
  <defs>
    <g id="sprite0" transform="matrix(1.0, 0.0, 0.0, 1.0, -0.05, 0.0)">
      <use height="38.0" transform="matrix(1.0, 0.0, 0.0, 1.0, 0.05, 0.0)" width="32.05" xlink:href="#shape0"/>
    </g>
    <g id="shape0" transform="matrix(1.0, 0.0, 0.0, 1.0, -0.05, 0.0)">
      <path d="M27.35 7.4 Q29.5 11.55 30.9 16.15 32.35 20.85 32.05 25.65 31.7 30.6 27.85 33.75 24.05 36.95 19.1 37.8 L16.5 38.0 Q12.9 38.0 9.45 36.85 4.8 35.25 2.35 31.35 -0.2 27.4 0.05 23.0 0.25 18.6 2.05 13.7 3.85 8.75 7.0 5.05 10.1 1.3 14.7 0.1 L16.5 0.0 Q18.4 0.05 20.2 0.8 24.95 2.85 27.35 7.4" fill="#000000" fill-rule="evenodd" stroke="none"/>
    </g>
    <g id="sprite1" transform="matrix(1.0, 0.0, 0.0, 1.0, 0.45, 0.5)">
      <use height="38.95" transform="matrix(1.0, 0.0, 0.0, 1.0, -0.45, -0.5)" width="33.05" xlink:href="#shape1"/>
    </g>
    <g id="shape1" transform="matrix(1.0, 0.0, 0.0, 1.0, 0.45, 0.5)">
      <path d="M27.35 7.4 Q24.95 2.85 20.2 0.8 17.55 -0.3 14.7 0.1 10.1 1.3 7.0 5.05 3.85 8.75 2.05 13.7 0.25 18.6 0.05 23.0 -0.2 27.4 2.35 31.35 4.8 35.25 9.45 36.85 14.1 38.4 19.1 37.8 24.05 36.95 27.85 33.75 31.7 30.6 32.05 25.65 32.35 20.85 30.9 16.15 29.5 11.55 27.35 7.4 Z" fill="none" stroke="#000000" stroke-linecap="round" stroke-linejoin="round" stroke-width="1.0"/>
    </g>
    <g id="sprite2" transform="matrix(1.0, 0.0, 0.0, 1.0, 0.0, 0.0)">
      <use height="26.75" transform="matrix(1.0, 0.0, 0.0, 1.0, 0.0, 0.0)" width="31.95" xlink:href="#shape2"/>
    </g>
    <g id="shape2" transform="matrix(1.0, 0.0, 0.0, 1.0, 0.0, 0.0)">
      <path d="M31.65 8.45 Q28.55 11.4 25.15 11.55 28.3 13.4 31.95 13.25 L31.9 13.55 31.9 13.95 Q28.45 17.7 22.7 16.95 24.1 18.5 25.95 19.45 27.65 20.4 29.65 20.6 L28.9 21.45 22.65 20.9 21.2 20.5 22.95 25.45 21.95 25.85 Q19.6 25.55 18.2 23.35 L16.95 26.75 15.45 26.75 Q14.85 25.15 15.15 23.55 13.8 25.6 11.1 25.95 L11.0 25.9 8.95 25.15 10.8 22.15 11.45 20.65 Q8.2 22.45 4.5 22.0 L3.75 21.15 6.45 18.5 8.1 16.75 Q6.3 17.4 4.3 17.65 L1.45 17.45 0.55 15.3 0.15 14.0 0.05 13.45 Q4.95 13.8 8.65 10.85 4.15 11.05 0.0 9.05 L0.3 6.85 0.4 6.35 Q5.9 8.15 11.6 6.65 L10.3 6.4 Q5.55 5.05 2.45 0.3 4.15 2.4 12.15 4.6 20.15 6.75 28.9 0.0 25.2 5.25 20.95 6.9 L22.3 7.1 Q26.75 7.6 31.35 7.0 L31.65 8.45" fill="#ffcc00" fill-rule="evenodd" stroke="none"/>
    </g>
  </defs>
</svg>
