<svg xmlns:xlink="http://www.w3.org/1999/xlink" height="82" width="84.85" xmlns="http://www.w3.org/2000/svg"><g transform="translate(37.4 42.25)"><use height="38" transform="translate(-11.95 -17.45)" width="32.05" xlink:href="#a"/><use height="38.95" transform="translate(-12.45 -17.95)" width="33.05" xlink:href="#b"/><use height="25" transform="translate(-15.65 2.1)" width="39.05" xlink:href="#c"/><use height="4.3" transform="translate(9.35 -2)" width="8.35" xlink:href="#d"/><use height="4.3" transform="matrix(-1 0 0 1 -1.45 -2.1)" width="8.35" xlink:href="#d"/></g><defs><path d="M27.35 7.4q2.15 4.15 3.55 8.75 1.45 4.7 1.15 9.5-.35 4.95-4.2 8.1-3.8 3.2-8.75 4.05l-2.6.2q-3.6 0-7.05-1.15-4.65-1.6-7.1-5.5Q-.2 27.4.05 23q.2-4.4 2-9.3Q3.85 8.75 7 5.05 10.1 1.3 14.7.1l1.8-.1q1.9.05 3.7.8 4.75 2.05 7.15 6.6" fill="#fff" fill-rule="evenodd" transform="translate(-.05)" id="e"/><path d="M27.35 7.4Q24.95 2.85 20.2.8 17.55-.3 14.7.1 10.1 1.3 7 5.05q-3.15 3.7-4.95 8.65-1.8 4.9-2 9.3-.25 4.4 2.3 8.35 2.45 3.9 7.1 5.5 4.65 1.55 9.65.95 4.95-.85 8.75-4.05 3.85-3.15 4.2-8.1.3-4.8-1.15-9.5-1.4-4.6-3.55-8.75Z" fill="none" stroke="#000" stroke-linecap="round" stroke-linejoin="round" transform="translate(.45 .5)" id="f"/><path d="M.55-.1Q.65.5.1.5-.4.6-.5 0q-.1-.55.5-.55.55-.1.55.45" fill="#cc3131" fill-rule="evenodd" transform="translate(.5 .55)" id="g"/><use height="38" width="32.05" xlink:href="#e" id="a"/><use height="38.95" width="33.05" xlink:href="#f" id="b"/><use height="1.05" width="1.05" xlink:href="#g" id="h"/><g id="c" fill-rule="evenodd"><path d="M23.25 18.25q.25.25.1.6-.55 1.5-3.3 3.45-2.95 2.05-6.7 3.25Q-.9 30.2-15.4 20.7q-.35-.2-.2-.65 3.6-8.35 2.65-16.7-.1-.4.25-.55l.65.1Q-7.8 7.15-4.9 8.15q4.25-3.1 8.65.3Q5.6 6.7 8.2 6.85q2.95.1 4.7 2 5.55-4.8 6.95-6.55.25-.35.6-.15.4.15.3.55-.85 4.95 0 9.65.8 4.35 2.5 5.9" fill="#490200" transform="translate(15.65 -2.1)"/><path d="m18.7 18.05-.55-.65q-.2-1 .8-1.5.85-.5 1.4.15.35.45.3 1.1L19 17.2l-.3.85m1.75 0-.15.45-.45.15-.4-.15-.2-.45.2-.4.4-.2q.25 0 .45.2l.15.4m-30.9 4.3-2.5-1.35.65-.55q1-.75 1.85-.95 1.9-.2 3.4 1.05l2.5-.35q2.05-.4 3.5.95Q.3 22.55 0 24.55h-.05l-1.8.05q-.4-2.05-2.4-2.55-1.5-.35-2.65.55-1.6-1.3-3.55-.25m-2.4-6.6 1.05-4.4.5.35.45.05q0 2.15 2.05 2.6l.95.1q1.7-.6 1.9-2.2l.55.3 1 .25-.85.45 2.15.95 2.5.85.1.05-2.2.05-2.2-.6Q-5 16.4-6.8 17.5q-1.7 1.1-3.7.45-1.65-.55-2.35-2.2m1.3-8.85-.25-2.2.9.8-.45 1.2-.2.2m1.75-.5.45.4-.25-.2-.2-.2m.7.6 3.95 2.15-.05.8q-.45.55-1.2.6l-.55-.25-.35.75-.75.3-.8-.3-.35-1-.7-.35-.3-1.2.85-.7.25-.8m6.35 1.25 3.4-.2.55.7q.85 1.25.8 2.6h-.05L-2 11.6q.7-1.5-.35-2.8l-.4-.55m13.4.4H11l.6.5.05.55-.05.55-.6.6q-.7.25-1.25-.2l-.25-.2.25-.15q.9-.7.2-1.65h.7M13.2 9.9l1.7-1.3 2.2.15-1.15 1.5v.05l-.65.1-2.1-.5m5.9-5.3.55-.65L19.3 7l.1-1.8.05-.3.05-.7-.4.4m-9.5 6.5L7.85 11l-1.7.1.9-.25q1.4-.35 2.75.3l-.2-.05m-6.5 4.4 2.6.05-.1 1q-2 .65-1.8 2.65.1.95.6 1.8.55.95 1.6 1-.1 1 .5 1.9l-2.5.4v-.6l-1.8-.95q-1.3-.8-1.65-2.3Q.25 19.2.7 18q.7-1.75 2.4-2.5m11.6-4-.95.6-.8.45-1.3-.8 3.05-.25m-12-.45.3-.95q.85-.65 1.55 0 .6.95-.25 1.65l-.25.15-.15-.5-.3-.45-.9.1m.8.35.1.25-.1.3-.3.1-.25-.1-.15-.3.15-.25.25-.15q.15 0 .3.15m5.8-2.5.35.15.1.35-.1.35-.35.15-.3-.15-.15-.35q0-.2.15-.35.1-.15.3-.15m.65 8.7.75-.05q.55.35.35 1.05l.45.7-.5.7-.8-.1-.75.75q-1-.6-1.4-1.65.2-.7.65-1.2l.35-.35.5-.05.4.2M2.4 24.3v.45h-.45v-.45h.45m0-.35-.7.1-.05.85-.3-.15-.25-.25q-.2-.55.35-.9l.25-.05.7.4m-14.2-5.8-.05.95-.1.3q-.55.4-1.15.2l-.35-.2q-.25-.4-.1-1.25l.2-.3q-.1.75.4.95.95.3 1.15-.65m-.75-.1q-.05-.45.2-.15l.1.15q-.25.7-.3 0m11.25.35q-.65 1.45-2.3.9l-.55-.3q-.7-.85-.3-2.05l.3-.55 2.35-.15-.45.35q-.5.75.15 1.5l.8.3m.6-1.7.2.5-.2.5q-.2.2-.5.2l-.5-.2-.2-.5.2-.5.5-.2q.3 0 .5.2" fill="#ff0" transform="translate(15.65 -2.1)"/><path d="M20.65 17.15q.05-.65-.3-1.1-.55-.65-1.4-.15-1 .5-.8 1.5l.55.65.2.45.5.6 1.3-.2.1-.9-.15-.85m-.6-2.9q.6 1.8 1.5 3.35l.55.95-.4.7-1.45 1.7-1.15.8q.25-1.95-1.15-3.4l-.8-1q-.05-.05.05-.15l.35-1 .1-.85-.1-.7-.1-.7-.2-.25-2.55-2.2 1.25-1.2v-.05h.15l.8-.35q-.1 2.6 2.15 3.8l1 .55M4.4 25.9l-3.25-.15L-.1 25l.05-.45H0l1.1-.05.25.25.3.15.75.25.15-.15q.45-.15.15-.6l1.3-.1.4 1.6m-6.25-.6-1.05-.2-.15-.5h1.15l.05.7m21.15-16 .25 2.4-.05-.05q-1.55-.55-1.85-2.15l-.15-.95-.4.15.95-1.45V7.2l.1.65q.15 1.1 1.15 1.4v.05m-7.65 2.45-.6.35-1.45-1 .2.05 1.85.6m-5.5-.65-1.2.85q-1.6 1.25-1.5 3.4l-.5.15-3.45-.4-.1-.05.8-.5q1.75-1.1 1.75-3.2H2l.5.15-.05.2q-.1.55.45.75.95.35 1.15-.45l2-.85.1-.05m-.4 4.45q.7-1.75 2.75-1.9 1.2-.05 2.1.75.8-.45 1.7-.45 1.4.05 2.2 1.15l.2.3.2.6q.2.95-.25 1.75l.95 1.55q.45.7.25 1.85Q15.6 22.55 14 23q-1.25.4-2.45-.25l-.3.6q-.7 1.15-1.95 1.55-1.8.35-2.8-1l1-.2q1.2-.25 1.9-1l.85-.35.5-1.15q.85.6 1.8.3.8-.2 1-1.05.35-1.35-.8-2.15l-.2-1.5q-.2-.6-.75-.85-.75-.4-1.55.15l-.45-.35-.1-.75-3.95.55" fill="#f328cf" transform="translate(15.65 -2.1)"/><path d="m20.65 17.15.15.85-.1.9-1.3.2-.5-.6-.2-.45.3-.85 1.65-.05m-.2.9-.15-.4q-.2-.2-.45-.2l-.4.2-.2.4.2.45.4.15.45-.15.15-.45m-25.3 6.45-.85-.35-3.1-1 .8.15 1.2.35.7-.3q1.95-.6 3.05 1.25l-1.8-.1m-4.5-17.7.25.2-.25.8-.85.7.3 1.2.7.35.35 1 .8.3.75-.3.35-.75.55.25q.75-.05 1.2-.6l.05-.8.4.15.6-.45.25.65q.25.95-.5 1.55l-.4.15-.8.2-.9-.35-.25.75q-.5.45-1.3.7l-.8-.55-.8-1.25-.65-.35q-.6-.5-.65-1.25-.05-1.15 1.1-1.55l.25-.95.25.2m25.7.45 2.25-2.1.5-.55.4-.4-.05.4-1.4 2.6v.05l-.8.1-.9-.1M19.3 7l.2 2.35-.15-.05h-.05V7m-9.8 3.45-.9-.25q-.35-.45-.15-1.1.15-.6.9-.6l.6.15q.7.95-.2 1.65l-.25.15M4.05 12q-.2.8-1.15.45-.55-.2-.45-.75l.05-.2.2-.45.9-.1.3.45.15.5v.1m-.55-.6q-.15-.15-.3-.15l-.25.15-.15.25.15.3.25.1.3-.1.1-.3-.1-.25m5.8-2.5q-.2 0-.3.15-.15.15-.15.35l.15.35.3.15.35-.15.1-.35-.1-.35-.35-.15M2.4 24.3h-.45v.45h.45v-.45m-.75.6.05-.85.7-.1.3.45q.3.45-.15.6l-.15.15-.75-.25m-15-7.05.75-.45.35.05.2.2.25.45v.05q-.2.95-1.15.65-.5-.2-.4-.95m.8.2q.05.7.3 0l-.1-.15q-.25-.3-.2.15m10.75-1.8 1.4.2q.4.65.15 1.3l-.15.4-.9.25-.8-.3q-.65-.75-.15-1.5l.45-.35m1.1.45q-.2-.2-.5-.2l-.5.2-.2.5.2.5.5.2q.3 0 .5-.2l.2-.5-.2-.5" fill="#0f0" transform="translate(15.65 -2.1)"/><path d="M22.1 18.55q0 .95-1.1 1.85l-.75.55 1.45-1.7.4-.7m-30.9 4.6-1.65-.8q1.95-1.05 3.55.25 1.15-.9 2.65-.55 2 .5 2.4 2.55h-1.2q-1.1-1.85-3.05-1.25l-.7.3-1.2-.35-.8-.15M-12.95 21l-1.55-.95 1.65-4.3q.7 1.65 2.35 2.2 2 .65 3.7-.45 1.8-1.1 1.9-2.95l2.2.6 2.2-.05 3.45.4h.15Q1.4 16.25.7 18q-.45 1.2-.15 2.45.35 1.5 1.65 2.3l1.8.95v.6l-1.3.1-.3-.45-.7-.4-.25.05q-.55.35-.35.9l-1.1.05q.3-2-1.05-3.4-1.45-1.35-3.5-.95l-2.5.35q-1.5-1.25-3.4-1.05-.85.2-1.85.95l-.65.55m1.15-9.65.15-2.05.1-2.4.2-.2.45-1.2 1.1.9.2.2-.25.95q-1.15.4-1.1 1.55.05.75.65 1.25l.65.35.8 1.25.8.55q.8-.25 1.3-.7l.25-.75.9.35.8-.2.4-.15q.75-.6.5-1.55l-.25-.65 1.4-.6.4.55q1.05 1.3.35 2.8l-.45.4q-.65.55-1.5.75l-.45.05-1-.25-.55-.3q-.2 1.6-1.9 2.2l-.95-.1q-2.05-.45-2.05-2.6l-.45-.05-.5-.35M.65 8.05q.8.25 1.55.65.85.4 1.65.95 1-.7 2.1-1.1 1.2-.45 2.55-.6l2.15.7h-.7l-.6-.15q-.75 0-.9.6-.2.65.15 1.1l.9.25.25.2q.55.45 1.25.2l.6-.6.05-.55-.05-.55L13 10l.2-.1 2.1.5.65-.1-1.25 1.2-3.05.25-1.85-.6q-1.35-.65-2.75-.3l-.9.25-.1.05-2 .85v-.1l.25-.15q.85-.7.25-1.65-.7-.65-1.55 0l-.3.95-.2.45-.5-.15q.05-1.35-.8-2.6l-.55-.7m14.25.55-.1-.05 1.55-1.3.9.1.8-.1-.95 1.45v.05l-2.2-.15m4.65 3.1h-.05v-.05l.05.05m-.1-6.8v-.3l.05-.4-.05.7M5.7 15.55h.05L9.7 15l.1.75-.75-.25-.4.05q-1.45.4-1.5 1.85-.95.35-1.25 1.1v.65q.1 1.4 1.45 1.7l.1.55q.45 1.7 1.95 1.3-.7.75-1.9 1l-1 .2Q5.9 23 6 22q-1.05-.05-1.6-1-.5-.85-.6-1.8-.2-2 1.8-2.65l.1-1m-19.05 2.3-.2.3q-.15.85.1 1.25l.35.2q.6.2 1.15-.2l.1-.3.05-.95v-.05l-.25-.45-.2-.2-.35-.05-.75.45m11.55-1.6-2.35.15-.3.55q-.4 1.2.3 2.05l.55.3q1.65.55 2.3-.9l.9-.25.15-.4q.25-.65-.15-1.3l-1.4-.2" fill="#ff38ff" transform="translate(15.65 -2.1)"/><path d="m-2.9 25.1-2.35-.65.4.05 1.8.1.15.5M19.45 4.9l-.05.3-.1 1.8v2.25q-1-.3-1.15-1.4l-.1-.65 1.4-2.6v.3" fill="#3eb51a" transform="translate(15.65 -2.1)"/><path d="M19.1 21.75 16 23.3l-3.5 1.4-.25-.15-.05.25-1.9.5-3.9.55-2 .05-.4-1.6 2.5-.4q1 1.35 2.8 1 1.25-.4 1.95-1.55l.3-.6q1.2.65 2.45.25 1.6-.45 1.85-1.85.2-1.15-.25-1.85l-.95-1.55q.45-.8.25-1.75l-.2-.6-.2-.3q-.8-1.1-2.2-1.15-.9 0-1.7.45-.9-.8-2.1-.75-2.05.15-2.75 1.9H5.7l-2.6-.05h-.15l.5-.15q-.1-2.15 1.5-3.4l1.2-.85 1.7-.1 1.75.1 1.45 1 .6-.35 1.3.8.8-.45.95-.6 2.55 2.2.2.25.1.7.1.7-.1.85-.35 1q-.1.1-.05.15l.8 1q1.4 1.45 1.15 3.4m-17.95 4-3-.45-.05-.7h.05l1.8-.05-.05.45 1.25.75M19.5 11.7l.55 2.55-1-.55q-2.25-1.2-2.15-3.8l-.8.35h-.15l1.15-1.5V8.7l.4-.15.15.95q.3 1.6 1.85 2.15v.05m-17.55-.35q0 2.1-1.75 3.2l-.8.5-2.5-.85-2.15-.95.85-.45.45-.05q.85-.2 1.5-.75l.45-.4 3.95-.25" fill="#f3b51a" transform="translate(15.65 -2.1)"/><path d="M9.4 22.7q-1.5.4-1.95-1.3l-.1-.55q-1.35-.3-1.45-1.7v-.65q.3-.75 1.25-1.1.05-1.45 1.5-1.85l.4-.05.75.25.45.35q.8-.55 1.55-.15.55.25.75.85l.2 1.5q1.15.8.8 2.15-.2.85-1 1.05-.95.3-1.8-.3l-.5 1.15-.85.35m.55-5.1-.4-.2-.5.05-.35.35q-.45.5-.65 1.2.4 1.05 1.4 1.65l.75-.75.8.1.5-.7-.45-.7q.2-.7-.35-1.05l-.75.05" fill="#82e600" transform="translate(15.65 -2.1)"/><path d="m12.5 24.7-.3.1.05-.25.25.15" fill="#f157b6" transform="translate(15.65 -2.1)"/></g><g id="d"><use height="1.05" transform="translate(7.3 .35)" width="1.05" xlink:href="#h"/><use height="1.05" transform="translate(4.85)" width="1.05" xlink:href="#h"/><use height="1.05" transform="translate(4.6 2.3)" width="1.05" xlink:href="#h"/><use height="1.05" transform="translate(1.45 3.25)" width="1.05" xlink:href="#h"/><use height="1.05" transform="translate(0 1.9)" width="1.05" xlink:href="#h"/><use height="1.05" transform="translate(2.2 .75)" width="1.05" xlink:href="#h"/></g></defs></svg>