<svg xmlns:xlink="http://www.w3.org/1999/xlink" height="82" width="84.85" xmlns="http://www.w3.org/2000/svg"><g transform="translate(37.4 42.25)"><use height="38.95" transform="translate(-12.45 -17.95)" width="33.05" xlink:href="#a"/><use height="23.05" transform="translate(-11.1 -.05)" width="31.35" xlink:href="#b"/></g><defs><path d="M27.35 7.4q2.15 4.15 3.55 8.75 1.45 4.7 1.15 9.5-.35 4.95-4.2 8.1-3.8 3.2-8.75 4.05l-2.6.2q-3.6 0-7.05-1.15-4.65-1.6-7.1-5.5Q-.2 27.4.05 23q.2-4.4 2-9.3Q3.85 8.75 7 5.05 10.1 1.3 14.7.1l1.8-.1q1.9.05 3.7.8 4.75 2.05 7.15 6.6" fill="#c78349" fill-rule="evenodd" transform="translate(-.05)" id="c"/><path d="M27.35 7.4Q24.95 2.85 20.2.8 17.55-.3 14.7.1 10.1 1.3 7 5.05q-3.15 3.7-4.95 8.65-1.8 4.9-2 9.3-.25 4.4 2.3 8.35 2.45 3.9 7.1 5.5 4.65 1.55 9.65.95 4.95-.85 8.75-4.05 3.85-3.15 4.2-8.1.3-4.8-1.15-9.5-1.4-4.6-3.55-8.75Z" fill="none" stroke="#000" stroke-linecap="round" stroke-linejoin="round" transform="translate(.45 .5)" id="d"/><path d="m9.85-13.1.45.85q1.65 2.35 3.75 7.7-2.6 4.55-11.8 2.8L.2-2.95v.1q-1.3.95-2.15 1.2Q-11.2-.15-13.7-4.8l1.8-3.9q2.1-4.05 3.45-5.1l3.35-.3q2.35.05 3.95 1l.4.2.25.2.85.8.05-.05v-.2Q2.7-15 9.05-13.7l.05.05.75.55" fill="#f3b372" fill-rule="evenodd" transform="translate(13.7 14.1)" id="g"/><use height="38" width="32.05" xlink:href="#c" id="e"/><use height="38.95" width="33.05" xlink:href="#d" id="f"/><g id="a" transform="translate(16.5 19.5)"><use height="38" transform="translate(-16 -19)" width="32.05" xlink:href="#e"/><use height="38.95" transform="translate(-16.5 -19.5)" width="33.05" xlink:href="#f"/><use height="12.85" transform="translate(-13.7 -14.1)" width="27.75" xlink:href="#g"/></g><g id="b" fill-rule="evenodd"><path d="m8.7 6.8.35-.25V5.8l.85-.45v1.7l.85-.25.3 1.45.9-.75.85-.55q-.7.85-.8 1.9L11.5 10l-.2.15-.5-.25-.9-2.55-.05.45-.65.15-.25.25-.15.85.85-.25.2-.85-.35 3.35-.85.25.2-1.7-.7.4-.1.3q-.35.25-.75.45L7 9.3l-.5.05-.15-.4-.05.15-.1.15-.7.1-.15-1.1L6 7.1l.3.8.85-.3.15 2.1.75-.55L8 8.7l.4-.2.3-1.7m-5.95-.4-.05-.8.9-.4.25.55.85-.2v.1l.15.05.45.05.9-.6-.05 1.05-.85.6-.5 1.5-1.05.1-.6.8-.3.2q-.4-.05-.35-.35l-.2.15-.4.1-.5 1.55-.4-.55-.45.05L.5 9.8l-.3 1.5-.4.2-.45.05-.2-2.7.55-.35-.15-.7q-.15-.5-.5-.05l-.05-.7-.2.9-.1.45-.35 1.4-.8.3-.9-3.05 1.35 1 .2-.8q.6-.45.75-1.45l.85-.4-.05.55q0 .9.55.3l-.5.85.15 1.45.55-.1-.05.9H.9l.4-.2.1-1.6.7.05.3-.65.4 1.15.9-.3-.75-1.4h-.2m10.2 3.95-.05.1-.7.1v-1.8l.85-.4-.1 2M6.3 6.1l.3-.4.4-.35h.15l.05.5.1-.85.85-.45-.1 1.4-.75.4-.1 1.05-.55-1.3-.1-.1-.25.1m1.9.1h.2l.3.55-.65.2.15-.75M.85 5.8.75 5l.85-.45.2 1.25.8-.45.05 1.1-.15-.7-.85.45-.25 1.3-.55-1.7M-4.2 8.75l.85-.4v2l-.4.25-.45-.05v-1.8" fill="#a56535" transform="translate(11.1 .05)"/><path d="m8.7 6.8-.3 1.7-.4.2.05.45-.75.55-.15-2.1-.85.3-.3-.8-.65 1.15-.55.05.5-1.5.85-.6.15-.1.25-.1.1.1.55 1.3.1-1.05.75-.4.15.25-.15.75.65-.2v.05m1.15 1.15-.2.85-.85.25.15-.85.25-.25.65-.15v.15M2.75 6.4h.2l.75 1.4-.9.3-.4-1.15-.3.65-.7-.05-.1 1.6-.4.2H.45l.05-.9-.55.1L-.2 7.1l.5-.85.55-.45.55 1.7.25-1.3.85-.45.15.7.1-.05m-4.05 2 .1-.45.25-.2q.35-.45.5.05l.15.7-.55.35-.2-.1-.25-.35" fill="#874a21" transform="translate(11.1 .05)"/><path d="m17.5.8 1.35-.85.3 1.2q-1.05.5-1.65 1.25-1.2 1.55 1.1 3-3.2.5-2.5-2.7-1.25-.4-2.75.35-3 1.5-4.4 7.2Q8.8 7.8 9.8 5.4q2-4.8 7.7-4.6" transform="translate(11.1 .05)"/><path d="M13.35 9.4q2.9-.05 5.1-1.35V7.5l-5.75-.2.75-1.7q.95-1.8 1.75-2.2l-.75 2.8 1.9.2q2.1 0 3.3-1 .35 2.75 0 3.25-3.5 3.05-8.75.55l2.45.2" transform="translate(11.1 .05)"/><path d="m10.1 13.1-.2-.3-3.2-.4 13.55-1.05-.3 1.1v-.15l-2.5.15-.6.1-6.75.55m-9.75-.75-.9.25q-.4.2-.4.55l-7.75-.6-.2-.05-1.75-.2-.1-.9 11.1.95m1.45 5.1.9-.75-.4.55-.65 1.35 1.55.2 1.25-3.35h.1l-.65 2.4-.4 1.35 1.75-.1.4 1.85Q5.9 22 6.95 22.5l-.3.05.35-.05 1.5-.05 3.6-.35 3.6-.45 1.6-.45.25-.1 1.15-3.55q.35-1.85.05-3.65l-1.9-.1 2.85-.55q.6 1.65.15 3.55l-1.1 3.55-.6 1.3q-4.15 1.3-8.6 1.25l-4.15-.05-.75-1.35-.55-.25L3 22.9.55 23l-3.2-.3-6.7-1.1q-.8-.8-1.15-2.05-.8-3.05-.5-6.4l.1.05h.05l.95.3.55.15-.5.05v.15l-.2.2-.1 3.05-.35-.75 1.15 4.6.6.15 1.1.2.75.1 2.95.5 3.2.5 3.15.1.25-.3.25-.35.5-1.25-1.5-.6-2.8-1.4-1.5-1.1.75.3-.85-.65 1.75.9 2.2.75.3-1.15.05-.2m2.9-1.95.1.05 1.2 3.5h.55l.45-.1.45-.35-.5-1.5.65.55.35 1.1-.55.35-1.3.35-.35-.1-.95-3.5-.1-.35m.3.1h.05l.1.05.05.1.1.1-.3-.25m1.3 7 .35-.05-.35.05" transform="translate(11.1 .05)"/><path d="m-1.55 14.35-.05.6q.1 1.45 1 2.7l-1.15-.15 1 .55-1.75-.9.85.65-.75-.3 1.5 1.1L1.9 20l-.4.75H0l-3.95-.25-3.6-.85-.65-2.8q-.4-1.7.25-3.15l5.35.5 1.05.15m3 3.3.35-.2-.05.2h-.3m1.8-1.55.9-.75-.65.6-.25.15m1.3-.65.15.05.1.35-.1.25.3 2.1-.85.15-.25-.5.65-2.4m3.05 2.2 1.9.25.65-.85q.9-1.25.5-2.6l3.85-.35.1 1.1q.15 1.7-.3 3.05l-.4.85-3.4.9q-1.8.3-3.1-.9l.55-.35-.35-1.1m-17.75-.55.1-3.05.2-.2.2 4-.5-.75m23.9 1.65q1-1.45.4-3.15 0 2.1-1.3 3.5l.9-.35m-22.3-5.1h.1l-.5 1.3.4-1.3m.95 1.95v.9q-.1 1.7 1.45 2.25l1.3.4.35-.25-.85-2.05q-.5-1.2.2-2.25l.4-.45-2.4-.25-.45 1.7" fill="#302f2f" transform="translate(11.1 .05)"/><path d="m-.6 17.65.4.3h.45l1.2-.3h.3l-.3 1.15-2.2-.75-1-.55 1.15.15m5.75-2 .1.05H5.2v.05l-.05-.1M1.9 20l1.5.6-.5 1.25-.25.35-.25.3-3.15-.1-3.2-.5-2.95-.5-.75-.1-.5-1.65.65 1.6.6.15-.65-1.75 3.6.85 3.95.25h1.5l.4-.75m-10.65 1.1-.6-.15-1.15-4.6.35.75.5.75Q-9.7 19.1-9 20.8l.25.3m25.6-7.3 1.9.1q.3 1.8-.05 3.65l-1.15 3.55-.25.1-1.6.45-3.6.45-3.6.35-1.5.05-.35.05.3-.05q-1.05-.5-1.3-1.55l-.4-1.85-1.75.1.4-1.35.25.5.85-.15-.3-2.1.1-.25.95 3.5.35.1 1.3-.35q1.3 1.2 3.1.9l3.4-.9.4-.85q.45-1.35.3-3.05l-.1-1.1 2.35-.3M7 22.5h-.05H7" fill="#1e1d1d" transform="translate(11.1 .05)"/><path d="M9.1 13.35h.35l.25.5q.45 1.2-.05 2.4l-.25.2q-1.5.75-2.75-.35l-1.15-.85-.9-1.2-.15-.2-.15.25q-.35.75-1.15 1.3l-.6.45-.05.05-1.15.55q-.85.4-1.7-.2-.95-1.15-.35-2.45l.25-.5.2-.15.75-.1-.9.65-.35.9q.65-1 1.7-1.5l.4-.15 7.7.4.15.65.05 1.05-.1.95-.05.3q1.35-1.55 0-2.95m-4.95 2 .3.1L3.2 18.8l-1.55-.2.75-.05.65.05 1.15-3.1-.45.65.2-.4-.45.2.65-.6m.65.2.2.05.3.25.4.7.5 2.05.6-.1.65.1-.45.35-.45.1H6l-1.2-3.5m3.05-.9-2.75-1.1 1.2.75.3.25.1.05.45.4.4.1h.15l.35-.05.05-.25v-.25l-.25.1M2 14.6l.05-.05.5-.35.95-.65q-1.5.4-2.95.95v.35l.15.25h.55l.2-.1.55-.4m-9.65 6.7-1.1-.2-.25-.3q-.7-1.7-.65-2.95l-.2-4v-.15l.5-.05.65-.05.2.05h-.05l-.4 1.3L-9 16q.1 1.8.85 3.65l.5 1.65" fill="#f8c606" transform="translate(11.1 .05)"/><path d="M-.35 16.25q.85.6 1.7.2l1.15-.55-1.9 1.15-.25.15q-.7-.05-.8-.7l.1-.25m2.9-.4.6-.45q.8-.55 1.15-1.3l.15-.25.15.2.9 1.2 1.15.85q1.25 1.1 2.75.35l.25-.2-.4.8q-.6.3-1.15 0l-2.65-1.7.45.3-1.5-1.05-.55.4-1.3.85m14.3-3.3.6-.1.4.7-5.05.3 4.05-.9m-17.9.7-.5 1.1-1.05-.15-6.05-.7 7.6-.25m-7.4.4.5.05q-.65 1.45-.25 3.15l.65 2.8.65 1.75-.6-.15-.65-1.6Q-8.9 17.8-9 16l.05-1.05.5-1.3" fill="#f87006" transform="translate(11.1 .05)"/><path d="m10.1 13.1 6.75-.55-4.05.9 5.05-.3-.4-.7 2.5-.15v.15l-.25.8-2.85.55-2.35.3-3.85.35-.05-.2 4.75-.6-4.9.15-.35-.7m-11.05.05-.1.1-7.6.25 6.05.7-5.35-.5-.5-.05h-.05l-.2-.05-1.2-.1-.95-.3h-.05l.05-.9h.2l1.75.2-.25.75 5.05-.1h-1.05q-1.85.05-3.55-.6l7.75.6" fill="#ffbe00" transform="translate(11.1 .05)"/><path d="M9.1 13.35q1.35 1.4 0 2.95l.05-.3.1-.95L9.2 14l-.15-.65-.05-.1.1.1m-7.75-.4-.4.15q-1.05.5-1.7 1.5l.35-.9.9-.65h.2l.35-.05.3-.05m9.25 1.3-.15-.45 4.9-.15-4.75.6M-8.9 12.5l.2.05q1.7.65 3.55.6h1.05l-5.05.1.25-.75" fill="#fff" transform="translate(11.1 .05)"/><path d="m13.75 18.75-.9.35q1.3-1.4 1.3-3.5.6 1.7-.4 3.15M-7.6 15.6l.45-1.7 2.4.25-.4.45q-.7 1.05-.2 2.25l.85 2.05-.35.25-1.3-.4Q-7.7 18.2-7.6 16.5v-.9" fill="#aaa9a9" transform="translate(11.1 .05)"/><path d="m2.7 16.7.55-.6.25-.15.45-.2-.2.4-1.35 2.4-.75.05.65-1.35.4-.55m2.55-1 1.6 1.3.1.1.5 1.5-.65-.1-1.1-1.95-.4-.7-.1-.1v-.05h.05m2.6-1.05-.25.1q-.85-.15-1.6-.7l.3.25-1.2-.75 2.75 1.1M6.7 14.6l1 .5.25-.15.1-.1.05-.05-.05.25-.35.05h-.15l-.4-.1-.45-.4m-6.15.05v-.15q1.45-.55 2.95-.95l-.95.65-.5.35-.05.05-1 .2-.45-.15" fill="#b75009" transform="translate(11.1 .05)"/><path d="M9.65 16.25q.5-1.2.05-2.4l-.25-.5H9.1l-.1-.1.05.1-7.7-.4-.3.05-.35.05H.5l-.75.1-.2.15-.25.5q-.6 1.3.35 2.45l-.1.25q.1.65.8.7l.25-.15 1.9-1.15.05-.05 1.3-.85.55-.4 1.5 1.05-.45-.3 2.65 1.7q.55.3 1.15 0l.4-.8M6.7 12.4l3.2.4.2.3.35.7.15.45.05.2q.4 1.35-.5 2.6l-.65.85-1.9-.25-.65-.55-.1-.1-1.6-1.3-.1-.05-.1-.05H5l-.2-.05-.1-.05-.15-.05h-.1l-.3-.1-.9.75-.55.6-.9.75-.35.2-1.2.3H-.2l-.4-.3q-.9-1.25-1-2.7l.05-.6.5-1.1.1-.1q0-.35.4-.55l.9-.25 6.35.05" fill="#211502" transform="translate(11.1 .05)"/><path d="m5.7 16.55 1.1 1.95-.6.1-.5-2.05m-1.95-.4.45-.65-1.15 3.1-.65-.05 1.35-2.4" fill="#f7e09f" transform="translate(11.1 .05)"/><path d="m6.3 14.3-.3-.25q.75.55 1.6.7l.25-.1.25-.1v.25l-.05.05-.1.1-.25.15-1-.5-.1-.05-.3-.25m-4.3.3-.55.4-.2.1H.7l-.15-.25v-.2l.45.15 1-.2-.55.4.55-.4" fill="#441e04" transform="translate(11.1 .05)"/></g></defs></svg>