<?xml version="1.0" encoding="UTF-8" standalone="no"?>
<svg xmlns:xlink="http://www.w3.org/1999/xlink" height="82.0px" width="84.85px" xmlns="http://www.w3.org/2000/svg">
  <g transform="matrix(1.0, 0.0, 0.0, 1.0, 37.4, 42.25)">
    <use height="38.95" transform="matrix(1.0, 0.0, 0.0, 1.0, -12.45, -17.95)" width="33.05" xlink:href="#sprite0"/>
    <use height="29.5" transform="matrix(1.0, 0.0, 0.0, 1.0, -12.5, -3.45)" width="37.35" xlink:href="#shape3"/>
  </g>
  <defs>
    <g id="sprite0" transform="matrix(1.0, 0.0, 0.0, 1.0, 16.5, 19.5)">
      <use height="38.0" transform="matrix(1.0, 0.0, 0.0, 1.0, -16.0, -19.0)" width="32.05" xlink:href="#sprite1"/>
      <use height="38.95" transform="matrix(1.0, 0.0, 0.0, 1.0, -16.5, -19.5)" width="33.05" xlink:href="#sprite2"/>
      <use height="12.85" transform="matrix(1.0, 0.0, 0.0, 1.0, -13.7, -14.1)" width="27.75" xlink:href="#shape2"/>
    </g>
    <g id="sprite1" transform="matrix(1.0, 0.0, 0.0, 1.0, -0.05, 0.0)">
      <use height="38.0" transform="matrix(1.0, 0.0, 0.0, 1.0, 0.05, 0.0)" width="32.05" xlink:href="#shape0"/>
    </g>
    <g id="shape0" transform="matrix(1.0, 0.0, 0.0, 1.0, -0.05, 0.0)">
      <path d="M27.35 7.4 Q29.5 11.55 30.9 16.15 32.35 20.85 32.05 25.65 31.7 30.6 27.85 33.75 24.05 36.95 19.1 37.8 L16.5 38.0 Q12.9 38.0 9.45 36.85 4.8 35.25 2.35 31.35 -0.2 27.4 0.05 23.0 0.25 18.6 2.05 13.7 3.85 8.75 7.0 5.05 10.1 1.3 14.7 0.1 L16.5 0.0 Q18.4 0.05 20.2 0.8 24.95 2.85 27.35 7.4" fill="#c98036" fill-rule="evenodd" stroke="none"/>
    </g>
    <g id="sprite2" transform="matrix(1.0, 0.0, 0.0, 1.0, 0.45, 0.5)">
      <use height="38.95" transform="matrix(1.0, 0.0, 0.0, 1.0, -0.45, -0.5)" width="33.05" xlink:href="#shape1"/>
    </g>
    <g id="shape1" transform="matrix(1.0, 0.0, 0.0, 1.0, 0.45, 0.5)">
      <path d="M27.35 7.4 Q24.95 2.85 20.2 0.8 17.55 -0.3 14.7 0.1 10.1 1.3 7.0 5.05 3.85 8.75 2.05 13.7 0.25 18.6 0.05 23.0 -0.2 27.4 2.35 31.35 4.8 35.25 9.45 36.85 14.1 38.4 19.1 37.8 24.05 36.95 27.85 33.75 31.7 30.6 32.05 25.65 32.35 20.85 30.9 16.15 29.5 11.55 27.35 7.4 Z" fill="none" stroke="#000000" stroke-linecap="round" stroke-linejoin="round" stroke-width="1.0"/>
    </g>
    <g id="shape2" transform="matrix(1.0, 0.0, 0.0, 1.0, 13.7, 14.1)">
      <path d="M9.85 -13.1 L10.3 -12.25 Q11.95 -9.9 14.05 -4.55 11.45 0.0 2.25 -1.75 L0.2 -2.95 0.2 -2.85 Q-1.1 -1.9 -1.95 -1.65 -11.2 -0.15 -13.7 -4.8 L-11.9 -8.7 Q-9.8 -12.75 -8.45 -13.8 L-5.1 -14.1 Q-2.75 -14.05 -1.15 -13.1 L-0.75 -12.9 -0.5 -12.7 0.35 -11.9 0.4 -11.95 0.4 -12.15 Q2.7 -15.0 9.05 -13.7 L9.1 -13.65 9.85 -13.1" fill="#f3b372" fill-rule="evenodd" stroke="none"/>
    </g>
    <g id="shape3" transform="matrix(1.0, 0.0, 0.0, 1.0, 12.5, 3.45)">
      <path d="M18.1 9.3 L17.4 9.15 17.55 8.6 17.65 7.35 17.3 5.95 16.05 3.65 17.0 2.55 Q18.55 0.65 19.7 -1.45 L19.35 -2.6 Q18.65 -0.45 17.15 1.45 14.8 4.4 11.7 6.4 L8.5 8.15 6.75 8.95 5.35 9.5 3.6 9.5 2.85 9.35 2.2 9.1 0.15 8.1 -2.5 6.35 -5.0 4.5 -7.15 2.2 -11.1 -3.15 -11.4 -2.25 -10.4 -0.65 Q-9.1 1.5 -7.4 3.45 L-8.55 6.0 Q-9.15 7.65 -8.45 9.2 L-9.2 9.3 -8.95 8.75 Q-9.5 7.6 -9.0 6.3 L-7.75 3.45 -9.2 1.85 -11.25 -1.85 -11.55 -2.75 -10.9 -3.45 Q-8.8 0.7 -5.25 4.0 -1.45 7.6 3.75 8.9 L5.45 8.85 Q6.6 8.7 7.65 8.2 9.75 7.4 11.7 6.1 14.3 4.35 16.2 1.85 L17.1 0.6 17.95 -0.6 18.55 -1.75 19.1 -2.8 19.55 -2.65 Q20.15 -2.3 19.8 -1.5 L18.6 0.85 16.35 3.75 Q17.6 5.15 17.9 7.15 L17.9 8.25 17.75 8.75 18.1 9.3 M18.05 10.05 L16.8 10.55 15.05 11.2 13.35 11.8 9.6 11.4 6.25 10.1 Q5.1 10.75 3.65 10.4 L2.3 10.1 0.35 10.7 1.1 10.35 2.3 9.75 3.85 10.1 5.25 10.05 7.05 9.5 6.2 9.8 8.65 10.65 8.9 10.75 9.6 10.95 9.75 11.0 10.2 11.1 12.85 11.45 Q14.6 11.3 16.25 10.5 L16.75 10.15 18.05 10.05 M22.25 17.65 L22.7 16.8 23.2 15.6 20.0 15.0 18.1 14.4 18.05 14.35 17.85 14.2 17.85 14.3 17.7 14.35 16.05 17.7 17.3 18.2 18.15 18.3 Q18.25 19.6 18.5 20.9 L19.25 24.1 20.7 24.8 22.85 24.25 23.35 24.0 22.4 21.45 Q23.45 21.15 24.1 20.15 L24.15 20.2 24.45 19.6 24.5 19.4 22.25 17.65 M18.8 13.95 L21.25 14.75 23.0 15.15 23.85 15.0 23.2 16.75 22.75 17.55 24.8 19.25 24.85 19.85 23.7 21.15 23.05 21.85 23.75 24.05 22.45 24.9 21.1 25.35 20.25 25.15 19.45 25.0 18.9 24.85 17.7 18.95 16.4 18.55 15.75 18.25 15.7 18.25 15.6 18.2 15.05 17.9 16.65 15.55 16.75 15.25 16.8 15.05 16.85 14.9 17.0 14.5 17.0 14.45 17.0 14.4 17.05 14.35 17.05 14.3 17.15 14.05 17.6 13.7 18.3 13.75 18.8 13.95" fill="#1e0114" fill-rule="evenodd" stroke="none"/>
      <path d="M18.1 9.3 L17.75 8.75 17.9 8.25 17.9 7.15 Q17.6 5.15 16.35 3.75 L18.6 0.85 19.8 -1.5 Q20.15 -2.3 19.55 -2.65 L19.1 -2.8 18.55 -1.75 17.95 -0.6 17.1 0.6 16.2 1.85 Q14.3 4.35 11.7 6.1 9.75 7.4 7.65 8.2 6.6 8.7 5.45 8.85 L3.75 8.9 Q-1.45 7.6 -5.25 4.0 -8.8 0.7 -10.9 -3.45 L-11.55 -2.75 -11.25 -1.85 -9.2 1.85 -7.75 3.45 -9.0 6.3 Q-9.5 7.6 -8.95 8.75 L-9.2 9.3 -8.45 9.2 Q-9.15 7.65 -8.55 6.0 L-7.4 3.45 Q-9.1 1.5 -10.4 -0.65 L-11.4 -2.25 -11.1 -3.15 -7.15 2.2 -5.0 4.5 -2.5 6.35 0.15 8.1 2.2 9.1 2.85 9.35 3.6 9.5 5.35 9.5 6.75 8.95 8.5 8.15 11.7 6.4 Q14.8 4.4 17.15 1.45 18.65 -0.45 19.35 -2.6 L19.7 -1.45 Q18.55 0.65 17.0 2.55 L16.05 3.65 17.3 5.95 17.65 7.35 17.55 8.6 17.4 9.15 18.1 9.3 20.55 10.15 20.15 10.7 18.05 10.05 20.15 10.7 20.55 10.15 18.1 9.3 M0.35 10.7 L2.3 10.1 3.65 10.4 Q5.1 10.75 6.25 10.1 L9.6 11.4 13.35 11.8 15.05 11.2 16.8 10.55 18.05 10.05 16.75 10.15 16.25 10.5 Q14.6 11.3 12.85 11.45 L10.2 11.1 9.75 11.0 13.65 11.2 Q15.2 11.05 16.25 9.8 17.05 9.3 17.15 8.25 L17.1 6.85 Q16.8 5.2 15.8 3.9 16.7 5.3 16.4 6.9 16.15 8.25 14.9 8.8 L13.35 9.1 6.8 9.8 8.65 10.65 6.2 9.8 7.05 9.5 5.25 10.05 3.85 10.1 2.3 9.75 1.1 10.35 0.35 10.7 -1.55 11.2 -2.5 11.25 -5.0 11.0 -8.85 10.1 -5.2 11.2 Q-3.45 11.45 -1.65 11.2 L-1.55 11.2 -1.65 11.2 Q-3.45 11.45 -5.2 11.2 L-8.85 10.1 -5.0 11.0 -2.5 11.25 -1.55 11.2 0.35 10.7 M15.95 4.55 L15.6 3.95 13.95 5.55 12.2 6.8 9.0 8.75 Q11.65 8.15 13.9 6.85 L14.8 6.2 15.95 5.15 15.95 4.55 M-6.25 4.8 L-5.75 5.55 -3.9 7.0 0.55 8.7 -1.4 7.6 -3.6 6.15 -6.0 3.95 -6.25 4.8 M-7.25 4.05 L-8.2 6.0 -8.1 8.15 Q-7.95 8.85 -7.3 9.2 -5.55 10.2 -3.55 10.6 L-1.95 10.55 1.9 9.55 -1.1 9.75 -3.9 9.15 Q-5.05 9.05 -6.0 8.55 L-7.15 7.45 Q-7.55 6.8 -7.55 6.05 L-7.25 4.05 M-8.85 10.1 L-9.6 10.15 -11.0 10.5 -11.6 10.8 -12.0 10.2 -10.05 9.5 -9.2 9.3 -10.05 9.5 -12.0 10.2 -11.6 10.8 -11.0 10.5 -9.6 10.15 -8.85 10.1" fill="#a1108a" fill-rule="evenodd" stroke="none"/>
      <path d="M8.65 10.65 L6.8 9.8 13.35 9.1 14.9 8.8 Q16.15 8.25 16.4 6.9 16.7 5.3 15.8 3.9 16.8 5.2 17.1 6.85 L17.15 8.25 Q17.05 9.3 16.25 9.8 15.2 11.05 13.65 11.2 L9.75 11.0 9.6 10.95 8.9 10.75 8.65 10.65 M-7.25 4.05 L-7.55 6.05 Q-7.55 6.8 -7.15 7.45 L-6.0 8.55 Q-5.05 9.05 -3.9 9.15 L-1.1 9.75 1.9 9.55 -1.95 10.55 -3.55 10.6 Q-5.55 10.2 -7.3 9.2 -7.95 8.85 -8.1 8.15 L-8.2 6.0 -7.25 4.05" fill="#750468" fill-rule="evenodd" stroke="none"/>
      <path d="M15.95 4.55 L15.95 5.15 14.8 6.2 13.9 6.85 Q11.65 8.15 9.0 8.75 L12.2 6.8 13.95 5.55 15.6 3.95 15.95 4.55 M-6.25 4.8 L-6.0 3.95 -3.6 6.15 -1.4 7.6 0.55 8.7 -3.9 7.0 -5.75 5.55 -6.25 4.8" fill="#eab9e4" fill-rule="evenodd" stroke="none"/>
      <path d="M20.25 25.15 L20.35 25.65 18.7 26.05 16.85 25.8 12.75 24.95 8.95 24.85 5.15 25.15 2.65 25.4 0.75 25.8 -1.65 25.7 -3.8 25.1 -5.7 24.9 -7.65 24.95 -12.5 25.55 -11.65 24.05 -11.9 21.55 -11.7 19.0 -11.4 17.65 -11.15 16.3 -10.75 13.55 -9.25 12.95 -7.4 13.6 -3.7 14.4 -0.3 15.0 2.95 15.0 6.55 15.0 10.35 14.65 12.4 14.4 14.6 14.1 17.6 13.7 17.15 14.05 14.65 14.55 12.05 15.05 8.2 15.55 4.3 15.55 5.85 15.4 2.6 15.35 -0.65 15.35 -3.75 15.05 -10.1 13.7 -10.1 14.15 -10.15 14.65 -10.25 16.35 -10.4 17.05 -10.45 17.85 -10.4 18.0 -10.4 18.05 -10.45 18.5 -10.6 19.6 -11.0 20.6 -11.05 20.7 -11.5 22.3 -11.5 22.35 -11.5 22.45 -11.45 22.45 -11.15 23.7 -11.0 24.15 -11.9 25.15 -9.2 24.65 -8.2 24.5 -4.35 24.35 -1.75 25.0 -1.65 25.0 -1.1 25.15 0.4 25.3 0.5 25.35 2.6 24.75 10.85 24.25 11.65 24.3 12.25 24.35 14.35 24.7 17.8 25.5 19.5 25.2 19.45 25.0 20.25 25.15 M18.3 13.75 L18.35 13.75 18.5 13.8 18.8 13.95 18.3 13.75" fill="#49022c" fill-rule="evenodd" stroke="none"/>
      <path d="M22.7 16.8 L22.6 16.75 20.45 15.8 18.5 14.7 18.1 14.4 20.0 15.0 23.2 15.6 22.7 16.8 M18.35 13.75 L18.5 13.7 18.5 13.8 18.35 13.75 M24.1 20.15 Q23.45 21.15 22.4 21.45 L23.65 20.7 17.85 14.2 18.6 15.4 19.3 17.35 20.6 20.65 21.7 23.15 22.3 24.35 23.35 24.0 22.85 24.25 20.7 24.8 19.75 21.85 18.7 18.15 17.95 15.2 18.15 18.3 17.3 18.2 17.45 15.2 16.05 17.7 17.7 14.35 17.85 14.3 17.85 14.2 18.05 14.35 18.1 14.4 24.1 20.15 M10.55 16.25 L8.85 16.75 5.1 17.8 1.7 18.6 -1.4 19.2 -4.8 19.6 -8.65 19.7 -10.6 19.6 -10.45 18.5 -8.5 18.8 -6.25 18.9 -2.4 18.75 0.55 18.4 3.75 17.85 7.25 17.1 10.55 16.25 M10.6 16.7 L14.95 15.25 13.85 15.75 10.4 17.15 8.25 18.0 6.2 18.75 4.25 19.55 2.45 20.25 -0.95 21.45 -4.0 22.45 -6.6 23.25 -9.4 23.85 -11.0 24.15 -11.15 23.7 -8.0 22.8 -4.8 21.9 -2.15 21.1 0.55 20.2 3.35 19.3 6.25 18.3 9.15 17.3 10.6 16.7 M-9.2 24.65 L-8.5 24.5 -8.2 24.5 -9.2 24.65 M15.85 15.1 L17.0 14.5 16.85 14.9 14.9 16.15 13.0 17.3 11.3 18.35 8.0 20.25 5.2 21.8 2.35 23.2 -1.15 24.65 -1.9 24.85 -2.25 24.85 -1.75 25.0 -4.35 24.35 4.85 20.35 6.05 19.85 9.25 18.45 11.2 17.45 14.2 16.0 16.9 14.6 15.85 15.1 M16.8 14.5 L16.0 14.85 16.65 14.55 16.8 14.5 M-9.75 18.25 L-10.4 18.05 -10.4 18.0 -10.2 18.05 -9.75 18.25 M-10.15 14.65 Q-9.3 15.15 -8.35 15.45 -6.85 16.05 -5.0 16.0 L-1.8 16.05 1.4 15.8 4.3 15.55 8.2 15.55 12.05 15.05 14.65 14.55 12.55 15.0 10.5 15.4 6.75 16.05 3.15 16.55 -0.1 16.85 -3.1 17.0 -6.3 16.9 -8.15 16.85 -10.25 16.35 -10.15 14.65 M-3.75 15.05 L-10.1 14.15 -10.1 13.7 -3.75 15.05 M2.6 24.75 L2.75 24.7 2.85 24.65 6.2 23.25 8.4 21.9 11.2 19.95 14.15 17.75 16.65 15.55 15.05 17.9 12.95 20.5 10.25 23.3 9.15 24.15 10.95 24.2 10.85 24.25 2.6 24.75 M16.9 14.45 L16.7 14.5 17.05 14.35 17.0 14.4 16.9 14.45 M16.8 15.05 L16.75 15.25 13.75 17.5 16.8 15.05 M17.85 14.3 L17.55 18.2 18.1 18.2 17.85 14.3 M11.65 24.3 L12.3 24.2 12.4 24.2 12.25 24.35 11.65 24.3 M14.35 24.7 L14.9 24.75 16.35 18.8 17.15 19.65 17.45 23.75 17.8 25.5 14.35 24.7" fill="#ff2995" fill-rule="evenodd" stroke="none"/>
      <path d="M-10.6 19.6 L-8.65 19.7 -4.8 19.6 -1.4 19.2 1.7 18.6 5.1 17.8 8.85 16.75 10.55 16.25 10.95 16.15 11.15 16.1 11.2 16.1 11.45 16.0 15.6 14.75 16.65 14.55 16.0 14.85 16.8 14.5 17.0 14.45 17.0 14.5 15.85 15.1 14.05 15.95 10.45 17.55 7.2 19.0 4.2 20.25 0.85 21.5 -2.65 22.9 -4.25 23.4 -7.7 24.35 -9.0 24.5 -8.5 24.5 -9.2 24.65 -11.9 25.15 -11.0 24.15 -9.4 23.85 -6.6 23.25 -4.0 22.45 -0.95 21.45 2.45 20.25 4.25 19.55 6.2 18.75 8.25 18.0 10.4 17.15 13.85 15.75 14.95 15.25 10.6 16.7 12.55 16.0 0.75 19.1 -2.4 19.75 -5.45 20.2 -8.3 20.55 -11.05 20.7 -11.0 20.6 -10.6 19.6 M4.3 15.55 L1.4 15.8 -1.8 16.05 -5.0 16.0 Q-6.85 16.05 -8.35 15.45 -9.3 15.15 -10.15 14.65 L-10.1 14.15 -3.75 15.05 -0.65 15.35 2.6 15.35 5.85 15.4 4.3 15.55 M-10.25 16.35 L-8.15 16.85 -6.3 16.9 -3.1 17.0 -0.1 16.85 3.15 16.55 6.75 16.05 10.5 15.4 12.55 15.0 14.65 14.55 17.15 14.05 17.05 14.3 17.05 14.35 16.7 14.5 16.0 14.65 17.05 14.3 13.35 15.2 10.55 15.75 7.0 16.35 4.8 16.7 0.9 17.3 -2.5 17.6 -6.45 17.8 -9.8 17.25 -10.4 17.05 -10.25 16.35 M-10.45 17.85 L-10.2 18.05 -10.4 18.0 -10.45 17.85 M13.75 17.5 L12.2 18.35 8.95 20.45 7.0 21.6 3.7 23.5 0.4 25.3 -1.1 25.15 -1.65 25.0 -1.75 25.0 -2.25 24.85 -1.9 24.85 -1.15 24.65 2.35 23.2 5.2 21.8 8.0 20.25 11.3 18.35 13.0 17.3 14.9 16.15 16.85 14.9 16.8 15.05 13.75 17.5 M10.95 24.2 L9.15 24.15 10.25 23.3 12.95 20.5 15.05 17.9 15.6 18.2 14.55 19.65 12.3 22.6 10.95 24.2 M17.0 14.45 L16.9 14.45 17.0 14.4 17.0 14.45 M15.7 18.25 L15.75 18.25 15.3 19.15 15.7 18.25 M16.4 18.55 L17.7 18.95 18.9 24.85 19.45 25.0 19.5 25.2 17.8 25.5 17.45 23.75 17.15 19.65 16.35 18.8 16.4 18.55 M12.4 24.2 L12.3 24.2 12.55 24.0 12.4 24.2" fill="#c40063" fill-rule="evenodd" stroke="none"/>
      <path d="M18.5 14.7 L20.45 15.8 22.6 16.75 22.7 16.8 22.25 17.65 18.5 14.7 M20.7 24.8 L19.25 24.1 18.5 20.9 Q18.25 19.6 18.15 18.3 L17.95 15.2 18.7 18.15 19.75 21.85 20.7 24.8 M17.3 18.2 L16.05 17.7 17.45 15.2 17.3 18.2 M17.85 14.2 L23.65 20.7 22.4 21.45 18.6 15.4 17.85 14.2 M-11.05 20.7 L-8.3 20.55 -5.45 20.2 -2.4 19.75 0.75 19.1 -11.5 22.3 -11.05 20.7 M17.0 14.45 L16.8 14.5 16.65 14.55 15.6 14.75 16.0 14.65 16.7 14.5 16.9 14.45 17.0 14.45 M13.35 15.2 L10.1 15.95 7.7 16.45 5.4 16.9 1.5 17.55 -0.5 17.85 -4.05 18.4 -6.7 18.55 -9.75 18.25 -10.2 18.05 -10.45 17.85 -10.4 17.05 -9.8 17.25 -6.45 17.8 -2.5 17.6 0.9 17.3 4.8 16.7 7.0 16.35 10.55 15.75 13.35 15.2 M2.85 24.65 L2.75 24.7 2.6 24.75 0.5 25.35 0.4 25.3 3.7 23.5 7.0 21.6 8.95 20.45 12.2 18.35 13.75 17.5 11.6 19.1 9.05 20.95 5.7 22.95 2.85 24.65 M10.85 24.25 L10.95 24.2 12.3 22.6 14.55 19.65 15.6 18.2 15.7 18.25 15.3 19.15 12.55 24.0 12.3 24.2 11.65 24.3 10.85 24.25 M-11.45 22.45 L-11.5 22.45 -11.5 22.35 -11.45 22.45" fill="#9e0459" fill-rule="evenodd" stroke="none"/>
      <path d="M18.5 14.7 L22.25 17.65 24.5 19.4 24.45 19.6 24.15 20.2 24.1 20.15 18.1 14.4 18.5 14.7 M22.4 21.45 L23.35 24.0 22.3 24.35 21.7 23.15 20.6 20.65 19.3 17.35 18.6 15.4 22.4 21.45 M0.75 19.1 L12.55 16.0 10.6 16.7 9.15 17.3 6.25 18.3 3.35 19.3 0.55 20.2 -2.15 21.1 -4.8 21.9 -8.0 22.8 -11.15 23.7 -11.45 22.45 -11.5 22.35 -11.5 22.3 0.75 19.1 M-8.5 24.5 L-9.0 24.5 -7.7 24.35 -4.25 23.4 -2.65 22.9 0.85 21.5 4.2 20.25 7.2 19.0 10.45 17.55 14.05 15.95 15.85 15.1 16.9 14.6 14.2 16.0 11.2 17.45 9.25 18.45 6.05 19.85 4.85 20.35 -4.35 24.35 -8.2 24.5 -8.5 24.5 M15.6 14.75 L11.45 16.0 11.2 16.1 11.15 16.1 10.95 16.15 10.55 16.25 7.25 17.1 3.75 17.85 0.55 18.4 -2.4 18.75 -6.25 18.9 -8.5 18.8 -10.45 18.5 -10.4 18.05 -9.75 18.25 -6.7 18.55 -4.05 18.4 -0.5 17.85 1.5 17.55 5.4 16.9 7.7 16.45 10.1 15.95 13.35 15.2 17.05 14.3 16.0 14.65 15.6 14.75 M2.85 24.65 L5.7 22.95 9.05 20.95 11.6 19.1 13.75 17.5 16.75 15.25 16.65 15.55 14.15 17.75 11.2 19.95 8.4 21.9 6.2 23.25 2.85 24.65 M15.75 18.25 L16.4 18.55 16.35 18.8 14.9 24.75 14.35 24.7 12.25 24.35 12.4 24.2 12.55 24.0 15.3 19.15 15.75 18.25 M17.85 14.3 L18.1 18.2 17.55 18.2 17.85 14.3" fill="#f7c9e2" fill-rule="evenodd" stroke="none"/>
    </g>
  </defs>
</svg>
