<?xml version="1.0" encoding="UTF-8" standalone="no"?>
<svg xmlns:xlink="http://www.w3.org/1999/xlink" height="82.0px" width="84.85px" xmlns="http://www.w3.org/2000/svg">
  <g transform="matrix(1.0, 0.0, 0.0, 1.0, 37.4, 42.25)">
    <use height="38.95" transform="matrix(1.0, 0.0, 0.0, 1.0, -12.45, -17.95)" width="33.05" xlink:href="#sprite0"/>
    <use height="25.05" transform="matrix(1.0, 0.0, 0.0, 1.0, -16.05, 0.75)" width="39.55" xlink:href="#shape3"/>
  </g>
  <defs>
    <g id="sprite0" transform="matrix(1.0, 0.0, 0.0, 1.0, 16.5, 19.5)">
      <use height="38.0" transform="matrix(1.0, 0.0, 0.0, 1.0, -16.0, -19.0)" width="32.05" xlink:href="#sprite1"/>
      <use height="38.95" transform="matrix(1.0, 0.0, 0.0, 1.0, -16.5, -19.5)" width="33.05" xlink:href="#sprite2"/>
      <use height="12.85" transform="matrix(1.0, 0.0, 0.0, 1.0, -13.7, -14.1)" width="27.75" xlink:href="#shape2"/>
    </g>
    <g id="sprite1" transform="matrix(1.0, 0.0, 0.0, 1.0, -0.05, 0.0)">
      <use height="38.0" transform="matrix(1.0, 0.0, 0.0, 1.0, 0.05, 0.0)" width="32.05" xlink:href="#shape0"/>
    </g>
    <g id="shape0" transform="matrix(1.0, 0.0, 0.0, 1.0, -0.05, 0.0)">
      <path d="M27.35 7.4 Q29.5 11.55 30.9 16.15 32.35 20.85 32.05 25.65 31.7 30.6 27.85 33.75 24.05 36.95 19.1 37.8 L16.5 38.0 Q12.9 38.0 9.45 36.85 4.8 35.25 2.35 31.35 -0.2 27.4 0.05 23.0 0.25 18.6 2.05 13.7 3.85 8.75 7.0 5.05 10.1 1.3 14.7 0.1 L16.5 0.0 Q18.4 0.05 20.2 0.8 24.95 2.85 27.35 7.4" fill="#c98036" fill-rule="evenodd" stroke="none"/>
    </g>
    <g id="sprite2" transform="matrix(1.0, 0.0, 0.0, 1.0, 0.45, 0.5)">
      <use height="38.95" transform="matrix(1.0, 0.0, 0.0, 1.0, -0.45, -0.5)" width="33.05" xlink:href="#shape1"/>
    </g>
    <g id="shape1" transform="matrix(1.0, 0.0, 0.0, 1.0, 0.45, 0.5)">
      <path d="M27.35 7.4 Q24.95 2.85 20.2 0.8 17.55 -0.3 14.7 0.1 10.1 1.3 7.0 5.05 3.85 8.75 2.05 13.7 0.25 18.6 0.05 23.0 -0.2 27.4 2.35 31.35 4.8 35.25 9.45 36.85 14.1 38.4 19.1 37.8 24.05 36.95 27.85 33.75 31.7 30.6 32.05 25.65 32.35 20.85 30.9 16.15 29.5 11.55 27.35 7.4 Z" fill="none" stroke="#000000" stroke-linecap="round" stroke-linejoin="round" stroke-width="1.0"/>
    </g>
    <g id="shape2" transform="matrix(1.0, 0.0, 0.0, 1.0, 13.7, 14.1)">
      <path d="M9.85 -13.1 L10.3 -12.25 Q11.95 -9.9 14.05 -4.55 11.45 0.0 2.25 -1.75 L0.2 -2.95 0.2 -2.85 Q-1.1 -1.9 -1.95 -1.65 -11.2 -0.15 -13.7 -4.8 L-11.9 -8.7 Q-9.8 -12.75 -8.45 -13.8 L-5.1 -14.1 Q-2.75 -14.05 -1.15 -13.1 L-0.75 -12.9 -0.5 -12.7 0.35 -11.9 0.4 -11.95 0.4 -12.15 Q2.7 -15.0 9.05 -13.7 L9.1 -13.65 9.85 -13.1" fill="#f3b372" fill-rule="evenodd" stroke="none"/>
    </g>
    <g id="shape3" transform="matrix(1.0, 0.0, 0.0, 1.0, 16.05, -0.75)">
      <path d="M20.25 5.25 L20.25 5.2 20.25 5.25 20.0 3.35 20.0 1.95 20.05 1.85 20.0 1.9 19.8 1.95 19.7 1.2 20.35 1.25 Q21.15 2.45 20.8 3.5 L20.2 3.85 20.4 4.3 Q21.2 4.9 21.35 5.8 L20.3 5.85 20.25 5.3 20.25 5.25 M22.45 16.95 L23.5 16.85 Q23.45 18.35 22.35 19.35 22.5 20.8 22.15 22.3 L21.35 22.95 20.6 23.35 18.45 21.7 Q18.15 22.8 17.15 23.4 16.25 24.0 15.3 24.2 16.85 23.0 17.7 21.35 L18.1 20.8 20.85 22.55 21.3 22.25 21.45 21.4 20.7 22.4 20.6 21.45 20.3 20.85 18.3 20.65 18.15 20.65 18.7 20.3 18.95 20.1 20.05 19.85 20.8 20.05 21.35 20.65 20.8 19.85 20.9 19.95 21.25 20.3 21.4 18.9 21.85 17.95 22.0 17.7 22.45 17.05 22.45 16.95 M13.85 24.35 L6.65 25.4 4.65 25.8 3.15 25.8 0.6 24.85 -1.55 24.45 -7.1 24.85 Q-8.8 24.35 -9.85 23.35 L-11.15 21.95 -13.45 24.0 Q-14.65 23.5 -14.7 21.9 L-14.75 20.6 Q-14.7 19.4 -15.0 18.35 -15.4 17.05 -16.05 15.85 L-14.45 15.9 -14.55 16.4 -14.55 17.0 -14.9 17.2 -14.25 18.25 -13.7 19.55 -13.6 20.55 -11.85 18.85 -10.7 17.8 -9.8 17.2 -8.85 16.7 -7.75 16.3 -8.2 16.7 -10.1 18.25 -12.25 20.05 -10.75 20.8 -10.6 20.95 -10.5 21.1 Q-11.9 21.95 -13.35 22.6 L-13.45 22.55 Q-14.1 21.55 -13.5 20.55 L-13.6 20.55 -13.5 20.55 Q-14.1 21.55 -13.45 22.55 L-13.7 22.1 Q-14.0 21.3 -13.6 20.55 -14.0 21.3 -13.7 22.1 L-13.45 22.55 -13.35 22.6 Q-11.9 21.95 -10.5 21.1 L-9.45 22.5 -7.4 24.4 -6.4 24.45 -5.9 24.3 Q-4.1 24.75 -2.5 23.75 L-1.8 23.35 1.95 24.7 Q2.7 25.2 3.55 25.3 L3.9 25.3 4.0 25.3 6.85 24.15 9.25 23.2 13.15 24.2 13.8 24.3 13.85 24.35 M-12.25 2.05 L-12.4 3.3 -12.1 3.35 -11.9 3.8 -12.25 5.15 Q-12.4 5.05 -12.4 5.1 L-12.3 5.3 -12.35 5.35 -12.45 5.25 -12.35 5.45 -12.85 6.45 -12.9 6.5 Q-13.25 6.4 -13.2 5.95 -13.15 4.95 -12.4 4.0 L-12.9 3.75 -12.65 1.25 -11.8 0.75 -11.85 2.05 -11.95 2.05 -12.25 1.9 -12.25 2.0 -12.3 2.0 -12.25 2.05 M-2.4 22.85 L-2.2 23.05 -2.3 23.05 Q-4.25 23.05 -5.85 24.0 L-5.8 23.9 -4.85 22.55 -3.55 22.35 -2.4 22.85 M11.4 22.05 Q12.1 22.15 12.6 22.55 L13.45 23.9 13.45 23.95 12.5 23.4 Q11.4 22.8 10.15 22.75 L10.05 22.75 11.4 22.05 M-12.15 20.2 L-10.65 21.0 -13.2 21.75 -13.25 21.0 -13.15 20.7 -12.15 20.2" fill="#470441" fill-rule="evenodd" stroke="none"/>
      <path d="M17.25 6.5 L17.9 5.25 Q18.7 3.9 19.95 3.35 L17.8 5.95 17.65 6.05 17.3 6.5 17.25 6.5 M13.5 6.95 L10.3 6.95 6.45 6.85 12.15 6.85 13.5 6.95 M-4.4 11.65 L-2.5 11.85 1.3 11.95 4.5 11.95 8.15 11.9 11.7 11.75 15.2 11.6 18.55 11.35 14.95 12.1 11.25 12.5 7.65 12.8 3.95 12.8 0.35 12.8 -3.25 12.5 -6.8 12.05 -10.4 11.35 -7.85 11.45 -4.95 11.6 -4.4 11.65 M-5.1 7.05 L-6.05 7.05 -6.35 6.65 -8.15 4.95 Q-6.75 5.9 -5.7 7.0 L-5.1 7.05 M-12.1 3.35 L-11.9 3.4 Q-10.65 4.05 -10.0 5.4 L-9.45 6.45 -9.55 6.45 -11.9 3.8 -12.1 3.35 M16.9 13.95 L13.9 14.7 8.65 15.5 7.1 15.45 4.55 15.05 6.75 15.15 11.25 14.55 15.05 13.7 17.2 13.1 17.3 13.8 17.3 13.85 16.9 13.95 M-2.5 15.5 L-5.85 15.05 -7.25 14.75 -8.4 14.35 -9.15 13.95 -9.2 13.95 -9.25 13.85 -8.7 13.2 -5.45 14.4 -3.75 15.05 -0.55 15.65 -2.5 15.5" fill="#29b4ff" fill-rule="evenodd" stroke="none"/>
      <path d="M20.0 1.9 L20.05 1.85 20.0 1.95 20.0 1.9 M-7.2 13.35 L-9.2 12.75 -9.3 12.25 -1.45 13.75 1.05 14.0 3.45 14.05 5.9 14.05 8.3 13.9 10.75 13.65 13.15 13.3 17.95 12.2 17.75 12.6 15.55 13.25 13.2 13.7 9.5 14.2 8.2 14.25 8.1 14.25 8.0 14.25 7.9 14.25 4.1 14.4 2.15 14.4 -1.1 14.15 -7.2 13.35 M19.8 1.95 L18.5 2.95 16.05 4.95 13.85 6.95 13.5 6.95 12.15 6.85 6.45 6.85 3.75 6.8 1.65 6.9 -5.1 7.05 -5.7 7.0 Q-6.75 5.9 -8.15 4.95 L-10.35 3.2 -11.4 2.45 -11.95 2.05 -11.85 2.05 Q-10.3 2.55 -8.95 3.5 L-5.75 5.8 -4.6 6.75 2.55 5.95 8.85 6.25 11.1 6.45 12.35 6.55 15.05 4.65 16.5 3.75 19.8 1.95 M17.8 5.95 L20.15 5.1 19.15 5.7 17.3 6.5 17.65 6.05 17.8 5.95 M-9.45 6.45 L-9.45 6.5 -9.75 6.55 -11.95 5.6 -12.3 5.3 -12.4 5.1 Q-12.4 5.05 -12.25 5.15 L-9.55 6.45 -9.45 6.45" fill="#0041a0" fill-rule="evenodd" stroke="none"/>
      <path d="M20.25 5.25 L20.25 5.3 19.4 7.5 20.05 5.4 20.25 5.25 M19.8 1.95 L20.0 1.9 20.0 1.95 20.0 3.35 19.95 3.35 Q18.7 3.9 17.9 5.25 L17.25 6.5 13.85 6.95 16.05 4.95 18.5 2.95 19.8 1.95 M22.35 16.95 L22.45 16.95 22.45 17.05 22.0 17.7 21.8 18.0 21.15 18.1 21.5 16.85 22.35 16.95 M21.4 18.9 L21.25 20.3 20.9 19.95 21.05 20.05 21.4 18.9 M10.3 6.95 L10.1 7.7 Q9.75 8.75 9.1 9.45 L6.55 10.0 8.2 10.35 7.8 10.65 5.5 10.3 7.25 10.95 5.55 11.4 3.55 11.85 19.3 11.25 Q18.65 10.15 19.0 8.8 L19.05 8.6 Q18.8 10.0 19.35 11.3 L18.55 11.35 15.2 11.6 11.7 11.75 8.15 11.9 4.5 11.95 1.3 11.95 -2.5 11.85 -4.4 11.65 -3.35 11.4 -3.15 11.25 Q-4.2 11.15 -5.05 10.5 L-9.75 6.55 -9.45 6.5 -9.45 6.45 -10.0 5.4 Q-10.65 4.05 -11.9 3.4 L-12.1 3.35 -12.4 3.3 -12.25 2.05 -9.1 4.55 -6.95 7.1 -6.4 7.2 -6.9 6.3 -6.55 6.6 -10.35 3.2 -8.15 4.95 -6.35 6.65 -6.05 7.05 -5.1 7.05 1.65 6.9 3.75 6.8 6.45 6.85 10.3 6.95 M-7.85 11.45 L-10.4 11.35 -11.65 11.3 Q-11.2 10.55 -11.2 9.75 -11.25 7.5 -12.35 5.45 L-12.45 5.25 -12.35 5.35 -12.1 5.55 -12.2 5.5 -9.05 11.35 -7.85 11.45 M0.05 11.2 L1.95 10.6 3.0 10.3 0.55 10.95 Q-1.3 11.1 -2.95 10.25 L-5.2 8.85 -6.4 7.85 -4.25 10.2 -2.6 10.9 0.05 11.2 M17.3 16.4 L17.8 16.45 18.15 16.45 19.6 17.8 17.65 17.05 17.45 16.9 17.4 16.9 16.85 16.55 18.35 17.3 17.3 16.4 M-0.8 10.55 Q0.65 11.0 2.05 10.1 L-2.9 9.0 -2.4 9.6 Q-1.7 10.35 -0.8 10.55 M-11.95 2.05 L-11.4 2.45 Q-11.85 2.2 -12.25 2.0 L-12.25 1.9 -11.95 2.05 M-14.9 17.2 L-14.5 17.15 -14.15 17.9 Q-13.75 18.7 -13.7 19.55 L-14.25 18.25 -14.9 17.2 M-10.7 17.8 L-10.85 17.85 -9.5 16.8 -11.0 17.4 -11.95 18.25 -12.95 18.35 -11.65 16.85 -9.85 16.65 -9.0 16.7 -9.8 17.2 -10.7 17.8" fill="#ff2990" fill-rule="evenodd" stroke="none"/>
      <path d="M20.05 5.4 L19.4 7.5 19.35 7.6 19.05 8.6 19.0 8.8 Q18.65 10.15 19.3 11.25 L3.55 11.85 5.55 11.4 7.25 10.95 10.95 11.1 Q12.7 10.55 13.95 9.05 L14.9 7.85 Q13.4 9.6 11.2 10.35 L7.8 10.65 8.2 10.35 8.4 10.4 10.1 9.9 11.45 8.95 9.1 9.45 Q9.75 8.75 10.1 7.7 L10.3 6.95 13.5 6.95 13.85 6.95 17.25 6.5 17.3 6.5 19.15 5.7 20.15 5.1 20.05 5.4 M15.3 24.2 L14.0 24.3 13.85 24.35 13.8 24.3 13.55 24.05 13.45 23.9 12.6 22.55 12.3 22.1 11.8 21.15 12.85 22.15 Q13.9 23.25 15.1 23.55 L13.95 22.95 15.65 22.15 Q17.3 21.6 18.3 20.1 L17.7 21.35 Q16.85 23.0 15.3 24.2 M-14.45 15.9 L-14.1 15.75 Q-13.05 15.15 -11.8 15.0 L-10.75 14.7 -9.75 14.4 -8.4 14.35 -7.25 14.75 -5.85 15.05 -2.5 15.5 -1.0 15.7 2.0 15.9 5.2 15.8 7.8 15.65 14.6 14.65 16.9 13.95 17.3 13.85 17.3 13.8 18.05 13.55 18.1 13.45 21.7 15.75 21.6 16.35 21.5 16.85 21.15 18.1 21.8 18.0 21.85 17.95 21.4 18.9 21.05 20.05 20.9 19.95 20.8 19.85 19.45 18.5 Q18.25 17.25 16.8 16.7 L16.7 16.6 17.3 16.9 17.65 17.05 19.6 17.8 18.15 16.45 17.9 16.35 16.9 15.9 16.45 15.85 16.05 15.65 13.95 15.6 15.9 16.15 15.85 16.35 15.35 16.2 15.75 16.5 15.65 16.85 Q15.0 17.65 16.05 17.65 L16.2 17.7 16.05 17.85 Q14.5 18.8 12.85 18.5 L12.25 18.15 Q11.15 17.45 9.9 17.05 L9.35 16.6 7.05 17.2 6.95 16.9 Q5.75 17.1 5.15 17.65 L4.3 18.85 4.0 20.0 3.85 17.55 3.4 18.5 3.2 18.05 3.15 17.75 3.1 17.85 Q2.75 17.25 2.1 17.2 L-1.15 16.3 -8.2 16.7 -7.75 16.3 -8.85 16.7 -9.0 16.7 -9.85 16.65 -11.15 16.5 -11.65 16.85 -12.95 18.35 -11.95 18.25 -12.25 18.95 -10.85 17.85 -10.7 17.8 -11.85 18.85 -13.6 20.55 -13.7 19.55 Q-13.75 18.7 -14.15 17.9 L-14.5 17.15 -14.55 17.0 -14.55 16.4 -14.45 15.9 M-4.4 11.65 L-4.95 11.6 -7.85 11.45 -9.05 11.35 -12.2 5.5 -12.1 5.55 -11.95 5.6 -9.75 6.55 -5.05 10.5 Q-4.2 11.15 -3.15 11.25 L-3.35 11.4 -4.4 11.65 M4.0 21.9 L4.4 23.05 4.8 23.7 Q5.75 23.85 6.7 23.3 8.15 22.45 9.2 21.2 9.3 21.9 8.8 22.55 7.95 23.55 6.85 24.15 L4.0 25.3 3.9 25.3 3.55 25.3 Q2.7 25.2 1.95 24.7 1.45 24.4 0.8 24.2 -0.55 23.75 -1.25 22.8 0.5 23.85 2.7 23.1 L3.35 21.85 3.6 23.7 4.0 21.9 M-10.8 19.8 L-9.4 21.05 -6.55 22.9 -5.85 22.35 -4.65 21.2 -2.2 18.75 -3.65 20.7 -4.85 22.55 -5.8 23.9 -6.0 24.2 -6.4 24.45 -7.4 24.4 -9.45 22.5 -10.5 21.1 -10.6 20.95 -10.8 19.8" fill="#c91169" fill-rule="evenodd" stroke="none"/>
      <path d="M-11.8 15.0 L-10.95 14.4 -10.75 14.7 -11.8 15.0 M21.6 16.35 L22.35 16.95 21.5 16.85 21.6 16.35 M17.8 16.45 L17.85 16.35 17.9 16.35 18.15 16.45 17.8 16.45" fill="#ff2d92" fill-rule="evenodd" stroke="none"/>
      <path d="M21.8 18.0 L22.0 17.7 21.85 17.95 21.8 18.0 M18.15 20.65 L18.3 20.65 18.1 20.8 17.7 21.35 18.3 20.1 Q17.3 21.6 15.65 22.15 L13.95 22.95 15.1 23.55 Q13.9 23.25 12.85 22.15 L11.8 21.15 10.1 19.0 8.1 16.95 8.65 17.55 Q9.55 18.75 9.7 20.25 9.9 22.45 8.1 23.55 L9.5 23.1 9.25 23.2 6.85 24.15 Q7.95 23.55 8.8 22.55 9.3 21.9 9.2 21.2 8.15 22.45 6.7 23.3 5.75 23.85 4.8 23.7 L4.4 23.05 4.0 21.9 4.0 20.0 4.3 18.85 5.15 17.65 Q5.75 17.1 6.95 16.9 L7.05 17.2 9.35 16.6 9.9 17.05 9.05 16.85 Q11.15 18.25 12.95 20.1 L13.95 21.7 13.95 20.75 Q13.9 19.3 12.85 18.5 14.5 18.8 16.05 17.85 L16.2 17.7 16.05 17.65 Q15.0 17.65 15.65 16.85 L15.95 16.85 16.25 16.85 17.35 17.7 Q18.15 18.65 18.3 20.0 L18.3 20.1 18.15 20.65 M21.45 21.4 L21.3 22.25 20.85 22.55 21.45 21.4 M3.2 18.05 L3.4 18.5 3.3 21.15 3.35 21.85 2.7 23.1 Q0.5 23.85 -1.25 22.8 -0.55 23.75 0.8 24.2 1.45 24.4 1.95 24.7 L-1.8 23.35 -2.3 23.05 -2.2 23.05 -2.4 22.85 -0.8 23.6 -1.6 22.25 -1.85 20.8 Q-1.65 18.8 -0.5 17.2 L-2.2 18.75 -4.65 21.2 -5.85 22.35 -6.55 22.9 -9.4 21.05 -10.8 19.8 -10.1 18.25 -8.2 16.7 -1.15 16.3 2.1 17.2 Q2.75 17.25 3.1 17.85 2.35 19.45 2.9 21.15 L3.1 21.7 3.2 18.05 M17.3 16.9 L17.35 16.9 17.4 16.9 17.45 16.9 17.65 17.05 17.3 16.9 M13.15 24.2 L13.55 24.05 13.8 24.3 13.15 24.2 M-14.55 17.0 L-14.5 17.15 -14.9 17.2 -14.55 17.0 M-11.65 16.85 L-11.15 16.5 -9.85 16.65 -11.65 16.85 M-9.0 16.7 L-8.85 16.7 -9.8 17.2 -9.0 16.7 M-10.6 20.95 L-10.75 20.8 -10.8 19.8 -10.6 20.95 M-6.4 24.45 L-6.0 24.2 -5.9 24.3 -6.4 24.45 M-1.15 17.2 Q-3.3 17.5 -4.8 19.1 L-5.55 20.0 -6.0 21.95 Q-5.45 20.9 -4.45 20.0 L-2.25 18.1 -1.15 17.2" fill="#fb288e" fill-rule="evenodd" stroke="none"/>
      <path d="M-10.1 13.85 L-9.9 13.7 -9.2 13.95 -9.15 13.95 -8.4 14.35 -9.75 14.4 -10.1 13.85 M15.95 16.85 L15.65 16.85 15.75 16.5 16.1 16.75 15.95 16.85 M16.9 15.9 L16.8 16.05 16.45 15.85 16.9 15.9 M16.5 16.35 L16.3 16.5 15.85 16.35 15.9 16.15 16.5 16.35" fill="#fe2b8e" fill-rule="evenodd" stroke="none"/>
      <path d="M20.05 19.85 L18.95 20.1 18.7 20.3 18.15 20.65 18.3 20.1 18.3 20.0 Q18.15 18.65 17.35 17.7 L20.05 19.85 M9.5 23.1 L8.1 23.55 Q9.9 22.45 9.7 20.25 9.55 18.75 8.65 17.55 L9.55 18.6 Q10.85 20.0 11.4 22.05 L10.05 22.75 10.15 22.75 9.5 23.1 M-10.1 18.25 L-10.8 19.8 -10.75 20.8 -12.25 20.05 -10.1 18.25 M-0.5 17.2 Q-1.65 18.8 -1.85 20.8 L-1.6 22.25 -0.8 23.6 -2.4 22.85 -3.55 22.35 -3.6 21.85 -3.45 21.3 -1.35 18.2 -0.5 17.2" fill="#ffb8e6" fill-rule="evenodd" stroke="none"/>
      <path d="M-10.95 14.4 L-10.1 13.85 -9.75 14.4 -10.75 14.7 -10.95 14.4 M16.25 16.85 L15.95 16.85 16.1 16.75 16.25 16.85 M16.8 16.05 L16.9 15.9 17.9 16.35 17.85 16.35 17.8 16.45 17.3 16.4 16.8 16.05 M17.3 16.9 L16.7 16.6 16.8 16.7 16.3 16.5 16.5 16.35 16.85 16.55 17.4 16.9 17.35 16.9 17.3 16.9" fill="#fb298d" fill-rule="evenodd" stroke="none"/>
      <path d="M20.8 19.85 L21.35 20.65 20.8 20.05 20.05 19.85 17.35 17.7 16.25 16.85 16.1 16.75 15.75 16.5 15.35 16.2 15.85 16.35 16.3 16.5 16.8 16.7 Q18.25 17.25 19.45 18.5 L20.8 19.85 M18.3 20.65 L20.3 20.85 20.6 21.45 20.7 22.4 21.45 21.4 20.85 22.55 18.1 20.8 18.3 20.65 M7.8 10.65 L11.2 10.35 Q13.4 9.6 14.9 7.85 L13.95 9.05 Q12.7 10.55 10.95 11.1 L7.25 10.95 5.5 10.3 7.8 10.65 M0.05 11.2 L-2.6 10.9 -4.25 10.2 -6.4 7.85 -5.2 8.85 -2.95 10.25 Q-1.3 11.1 0.55 10.95 L3.0 10.3 1.95 10.6 0.05 11.2 M4.0 20.0 L4.0 21.9 3.6 23.7 3.35 21.85 3.3 21.15 3.4 18.5 3.85 17.55 4.0 20.0 M9.25 23.2 L9.5 23.1 10.15 22.75 Q11.4 22.8 12.5 23.4 L13.45 23.95 13.45 23.9 13.55 24.05 13.15 24.2 9.25 23.2 M8.65 17.55 L8.1 16.95 10.1 19.0 11.8 21.15 12.3 22.1 12.6 22.55 Q12.1 22.15 11.4 22.05 10.85 20.0 9.55 18.6 L8.65 17.55 M-2.2 18.75 L-0.5 17.2 -1.35 18.2 -3.45 21.3 -3.6 21.85 -3.55 22.35 -4.85 22.55 -3.65 20.7 -2.2 18.75 M-2.3 23.05 L-1.8 23.35 -2.5 23.75 Q-4.1 24.75 -5.9 24.3 L-6.0 24.2 -5.8 23.9 -5.85 24.0 Q-4.25 23.05 -2.3 23.05 M-12.15 20.2 L-13.15 20.7 -13.25 21.0 -13.2 21.75 -10.65 21.0 -12.15 20.2" fill="#99064d" fill-rule="evenodd" stroke="none"/>
      <path d="M12.85 18.5 Q13.9 19.3 13.95 20.75 L13.95 21.7 12.95 20.1 Q11.15 18.25 9.05 16.85 L9.9 17.05 Q11.15 17.45 12.25 18.15 L12.85 18.5 M3.1 17.85 L3.15 17.75 3.2 18.05 3.1 21.7 2.9 21.15 Q2.35 19.45 3.1 17.85 M16.45 15.85 L16.8 16.05 17.3 16.4 18.35 17.3 16.85 16.55 16.5 16.35 15.9 16.15 13.95 15.6 16.05 15.65 16.45 15.85 M-10.85 17.85 L-12.25 18.95 -11.95 18.25 -11.0 17.4 -9.5 16.8 -10.85 17.85 M-1.15 17.2 L-2.25 18.1 -4.45 20.0 Q-5.45 20.9 -6.0 21.95 L-5.55 20.0 -4.8 19.1 Q-3.3 17.5 -1.15 17.2" fill="#f7dcf7" fill-rule="evenodd" stroke="none"/>
      <path d="M9.1 9.45 L11.45 8.95 10.1 9.9 8.4 10.4 8.2 10.35 6.55 10.0 9.1 9.45 M-10.35 3.2 L-6.55 6.6 -6.9 6.3 -9.1 4.55 -12.25 2.05 -12.3 2.0 -12.25 2.0 Q-11.85 2.2 -11.4 2.45 L-10.35 3.2 M-1.1 14.15 L2.15 14.4 4.1 14.4 7.9 14.25 8.0 14.25 5.2 14.8 1.85 14.9 -1.25 14.8 -4.2 14.2 -5.65 13.75 -1.1 14.15 M-0.8 10.55 Q-1.7 10.35 -2.4 9.6 L-2.9 9.0 2.05 10.1 Q0.65 11.0 -0.8 10.55" fill="#ffffff" fill-rule="evenodd" stroke="none"/>
      <path d="M-9.9 13.7 L-9.9 12.95 -7.2 13.35 -1.1 14.15 -5.65 13.75 -4.2 14.2 -1.25 14.8 1.85 14.9 5.2 14.8 8.0 14.25 8.1 14.25 8.2 14.25 9.5 14.2 13.2 13.7 15.55 13.25 17.75 12.6 17.95 12.5 18.1 13.45 18.05 13.55 17.3 13.8 17.2 13.1 15.05 13.7 11.25 14.55 6.75 15.15 4.55 15.05 7.1 15.45 8.65 15.5 13.9 14.7 16.9 13.95 14.6 14.65 7.8 15.65 5.2 15.8 2.0 15.9 -1.0 15.7 -2.5 15.5 -0.55 15.65 -3.75 15.05 -5.45 14.4 -8.7 13.2 -9.25 13.85 -9.2 13.95 -9.9 13.7" fill="#7dd1ff" fill-rule="evenodd" stroke="none"/>
      <path d="M-6.9 6.3 L-6.4 7.2 -6.95 7.1 -9.1 4.55 -6.9 6.3" fill="#f286ef" fill-rule="evenodd" stroke="none"/>
      <path d="M10.5 9.85 L11.3 9.35 13.65 9.55 14.05 10.25 14.1 10.95 15.65 10.05 16.55 10.8 17.05 11.2 Q17.6 11.75 17.45 12.5 17.25 13.7 16.15 13.8 L17.35 14.55 17.45 15.0 17.15 15.5 15.95 17.05 Q15.05 17.6 14.05 17.45 L13.8 16.55 Q13.6 17.55 12.7 18.05 L10.1 17.75 9.65 17.0 Q9.45 16.6 9.6 16.15 L10.4 15.5 8.95 15.6 8.65 12.95 10.3 11.65 10.2 11.2 Q10.0 10.55 10.5 9.85 M15.85 10.75 L15.55 10.45 Q14.45 10.7 13.85 11.55 L13.6 10.6 12.9 9.8 12.3 9.55 Q11.3 9.55 10.6 10.2 10.35 11.45 11.4 12.55 L10.6 12.1 Q11.05 12.5 10.35 12.2 L9.95 12.3 9.2 12.75 9.1 13.1 Q8.7 14.2 9.25 15.2 L11.45 15.05 10.2 16.25 10.1 16.45 10.1 16.7 10.3 17.35 12.45 17.85 13.25 17.0 13.5 16.25 13.55 15.7 14.2 16.75 14.45 17.1 Q15.15 17.3 15.65 16.8 L16.8 15.35 17.05 14.85 17.05 14.65 Q16.75 14.25 16.2 14.15 L15.05 13.95 16.25 13.5 16.7 13.4 17.0 12.75 17.05 12.2 16.7 11.75 16.4 11.4 16.3 11.25 16.2 11.2 15.95 10.9 15.85 10.8 15.85 10.75" fill="#141423" fill-rule="evenodd" stroke="none"/>
      <path d="M11.45 15.05 L9.25 15.2 Q8.7 14.2 9.1 13.1 L9.2 12.75 9.95 12.3 10.35 12.2 Q11.05 12.5 10.6 12.1 L11.4 12.55 Q10.35 11.45 10.6 10.2 11.3 9.55 12.3 9.55 L12.9 9.8 13.6 10.6 13.85 11.55 Q14.45 10.7 15.55 10.45 L15.85 10.75 15.0 10.8 Q14.2 11.05 13.85 11.85 L14.05 12.35 15.85 10.8 15.95 10.9 16.2 11.2 16.3 11.25 16.4 11.4 16.7 11.75 17.05 12.2 17.0 12.75 16.7 13.4 16.25 13.5 15.05 13.95 16.2 14.15 Q16.75 14.25 17.05 14.65 L17.05 14.85 16.8 15.35 15.65 16.8 Q15.15 17.3 14.45 17.1 L14.2 16.75 13.55 15.7 13.5 16.25 13.25 17.0 12.45 17.85 10.3 17.35 10.1 16.7 10.1 16.45 10.2 16.25 11.45 15.05 11.7 15.55 11.95 15.75 12.2 15.7 13.65 15.15 14.35 14.85 13.85 14.0 13.95 13.9 14.6 13.7 14.85 13.2 14.9 13.1 14.85 13.05 14.8 12.95 14.4 12.9 13.3 12.5 12.7 13.95 11.95 13.7 12.75 13.05 Q13.2 12.5 12.65 12.5 L12.35 12.65 11.6 13.55 11.4 13.45 11.45 15.05 M11.5 9.95 Q12.25 10.1 12.95 10.6 L13.55 10.95 Q13.3 10.15 12.55 9.95 L12.0 9.85 11.5 9.95 M9.55 14.8 L9.45 13.75 9.7 13.3 Q10.2 12.65 11.05 12.6 L9.85 12.5 9.55 12.8 Q9.0 13.7 9.55 14.8 M16.75 15.15 L16.8 15.25 Q17.05 14.9 16.7 15.1 L16.75 15.15 15.35 16.45 14.8 16.85 14.6 16.7 14.4 16.65 14.2 16.25 14.55 16.45 14.8 16.45 15.4 16.15 16.7 15.1 16.2 14.45 14.55 14.2 Q15.55 14.3 15.65 15.15 L14.85 15.85 Q15.95 15.95 16.7 15.1 15.95 15.95 14.85 15.85 L15.65 15.15 Q15.55 14.3 14.55 14.2 L16.2 14.45 16.7 15.1 15.4 16.15 14.8 16.45 14.55 16.45 14.2 16.25 14.4 16.65 14.6 16.7 14.8 16.85 15.35 16.45 16.75 15.15 M10.35 16.1 L10.4 16.55 10.6 17.2 12.2 17.4 12.8 17.2 Q11.65 17.2 10.85 16.65 L10.35 16.1" fill="#51e5e1" fill-rule="evenodd" stroke="none"/>
      <path d="M11.45 15.05 L11.4 13.45 11.6 13.55 11.75 13.75 11.95 13.7 12.7 13.95 13.3 12.5 14.4 12.9 13.95 13.25 Q13.25 13.9 13.95 13.9 L13.85 14.0 14.35 14.85 13.65 15.15 12.2 15.7 11.95 15.75 11.7 15.55 11.45 15.05 M14.85 13.05 L14.9 13.1 14.85 13.2 14.85 13.05 M11.5 9.95 L12.0 9.85 12.55 9.95 Q13.3 10.15 13.55 10.95 L12.95 10.6 Q12.25 10.1 11.5 9.95 M9.55 14.8 Q9.0 13.7 9.55 12.8 L9.85 12.5 11.05 12.6 Q10.2 12.65 9.7 13.3 L9.45 13.75 9.55 14.8 M12.7 13.95 L12.35 14.35 12.2 14.65 12.1 14.75 Q12.1 15.5 12.8 15.4 L13.0 15.1 Q13.4 14.2 12.7 13.95 M10.35 16.1 L10.85 16.65 Q11.65 17.2 12.8 17.2 L12.2 17.4 10.6 17.2 10.4 16.55 10.35 16.1" fill="#2868b5" fill-rule="evenodd" stroke="none"/>
      <path d="M11.6 13.55 L12.35 12.65 12.65 12.5 Q13.2 12.5 12.75 13.05 L11.95 13.7 11.75 13.75 11.6 13.55 M14.4 12.9 L14.8 12.95 14.85 13.05 14.85 13.2 14.6 13.7 13.95 13.9 Q13.25 13.9 13.95 13.25 L14.4 12.9 M12.7 13.95 Q13.4 14.2 13.0 15.1 L12.8 15.4 Q12.1 15.5 12.1 14.75 L12.2 14.65 12.35 14.35 12.7 13.95" fill="#122a5b" fill-rule="evenodd" stroke="none"/>
      <path d="M15.85 10.8 L14.05 12.35 13.85 11.85 Q14.2 11.05 15.0 10.8 L15.85 10.75 15.85 10.8 M16.75 15.15 L16.7 15.1 Q17.05 14.9 16.8 15.25 L16.75 15.15" fill="#ffffff" fill-rule="evenodd" stroke="none"/>
    </g>
  </defs>
</svg>
