<svg xmlns:xlink="http://www.w3.org/1999/xlink" height="82" width="84.85" xmlns="http://www.w3.org/2000/svg"><g transform="translate(37.4 42.25)"><use height="43.25" transform="matrix(-1.0012 -.34 -.3211 .9456 47.47 -27.349)" width="43.85" xlink:href="#a"/><use height="38" transform="translate(-11.95 -17.45)" width="32.05" xlink:href="#b"/><use height="38.95" transform="translate(-12.45 -17.95)" width="33.05" xlink:href="#c"/><use height="27.6" transform="translate(-16.65 -8.05)" width="42.9" xlink:href="#d"/></g><defs><use height="43.25" width="43.85" xlink:href="#e" id="a"/><use height="38" width="32.05" xlink:href="#f" id="b"/><use height="38.95" width="33.05" xlink:href="#g" id="c"/><path d="M27.35 7.4q2.15 4.15 3.55 8.75 1.45 4.7 1.15 9.5-.35 4.95-4.2 8.1-3.8 3.2-8.75 4.05l-2.6.2q-3.6 0-7.05-1.15-4.65-1.6-7.1-5.5Q-.2 27.4.05 23q.2-4.4 2-9.3Q3.85 8.75 7 5.05 10.1 1.3 14.7.1l1.8-.1q1.9.05 3.7.8 4.75 2.05 7.15 6.6" fill="#fff" fill-rule="evenodd" transform="translate(-.05)" id="f"/><path d="M27.35 7.4Q24.95 2.85 20.2.8 17.55-.3 14.7.1 10.1 1.3 7 5.05q-3.15 3.7-4.95 8.65-1.8 4.9-2 9.3-.25 4.4 2.3 8.35 2.45 3.9 7.1 5.5 4.65 1.55 9.65.95 4.95-.85 8.75-4.05 3.85-3.15 4.2-8.1.3-4.8-1.15-9.5-1.4-4.6-3.55-8.75Z" fill="none" stroke="#000" stroke-linecap="round" stroke-linejoin="round" transform="translate(.45 .5)" id="g"/><g id="e" fill-rule="evenodd"><path d="M44 13.1q-.75 3.55-6.1 6.7-5.55 3.2-14 5-8.45 1.8-14.65 1.05-6.2-.75-8.2-3.75Q-.3 20.05.7 17.6l.5-.95h.05q1.4-2.35 4.95-4.5v-.05l11.25-8.25.1-.05v-.1q.1-1.1.35-1.75.6-1.5 2.2-1.7Q22.2.1 23 2.8l.1.1.1.05 15.9 3.7.05.05 2.7 1.4q2.75 1.95 2.15 5" fill="#1c191d" transform="translate(-.25 -.25)"/><path d="M38.85 7.55 4.4 14.8 20.2 3.2l18.65 4.35" fill="#fff9f6" transform="translate(-.25 -.25)"/><path d="M43.6 12.75q-.65 3.4-6.05 6.45-5.35 3.05-13.6 4.8-8.2 1.75-14.3 1.1-6.1-.65-8-3.5-1.45-2.2.2-4.85Q3.6 13.9 8.9 11.2q5.2-2.65 11.8-4.05 6.5-1.4 12.4-1.05 5.85.35 8.55 2.25 2.5 1.8 1.95 4.4" fill="#1c191d" transform="translate(-.25 -.25)"/><path d="M41.3 8.85q4.2 3-.65 7.45-5.15 4.7-16.8 7.15t-18.15.2q-6.15-2.15-3.4-6.6 1.75-2.85 7.1-5.5Q14.55 9 20.8 7.7q6.25-1.3 11.9-1.05 5.95.25 8.6 2.2" fill="#d4d2d4" transform="translate(-.25 -.25)"/><path d="M9.55 12.8q2.4-3.4 11.2-5.2 8.8-1.8 12.3.25 2.5 1.55-.5 3.95-3.15 2.55-10.2 4.05l-10.9.35q-3.65-1-1.9-3.4" fill="#a7a7a7" transform="translate(-.25 -.25)"/><path d="M20.95 5.5q-2.55.55-5.35 1.7l-2.25 1.05 3.35-2.5 3.8-1.3 4.3-.2 3.8.9-7.65.35" fill="red" transform="translate(-.25 -.25)"/><path d="M18.65 4.3q-.15-3 1.5-3.15 1.7-.1 2 2.45l-3.5.7" fill="#fff9f6" transform="translate(-.25 -.25)"/><path d="m26.25 6.85 1.25-.2L40.2 16.9l-.6.75-13.35-10.8M24 7.1l1.15-.15 11.5 11.7-.65.7L24 7.1m-1 .1.9-.1 7.9 14.5-.8.5-8-14.9m3.75 16.05-.85.25-3.85-16.1.85-.2 3.85 16.05M43.3 12.6l-.35.85L27.7 6.7l2.05-.1 13.55 6M14.6 9.4l1.4-.45L6.05 23.8l-.9-.35L14.6 9.4m2.6-.85 1.1-.3-8.35 16.3-1-.1 8.25-15.9m1.3-.35.95-.2-3.35 16.6-.95.05L18.5 8.2m1-.25.9-.2.95 16.6-.9.1-.95-16.5m-7.95 2.6 2.6-1.05-12.4 11.1-.25-1 10.05-9.05" fill="#4c281e" transform="translate(-.25 -.25)"/><path d="m26.05 43.5-5.5-35.8L22 7.4l5.5 35.85-1.45.25" fill="#3a281e" transform="translate(-.25 -.25)"/><path d="m22.95 19.8 14.3-9.9.25 1.05-13.95 9.55-.6-.7" fill="#623826" transform="translate(-.25 -.25)"/><path d="m23 19.5 12.95-6.05-.1 1.1-12.45 5.8-.4-.85" fill="#623826" transform="translate(-.25 -.25)"/><path d="m22.65 19.6 11.2-3.85-.2 1.1L23 20.5l-.35-.9" fill="#623826" transform="translate(-.25 -.25)"/><path d="m33.15 6.6 1 .15-10.1 13.35-.8-.5 9.9-13" fill="#623826" transform="translate(-.25 -.25)"/><path d="m26.7 6.75.85-.05-3.6 14.05-.95-.15 3.7-13.85" fill="#623826" transform="translate(-.25 -.25)"/><path d="m23.5 19.7-.05.95L3.9 18.7l-.3-1 19.9 2" fill="#623826" transform="translate(-.25 -.25)"/><path d="m26.1 18.4.1.95L7.35 21.8l-.6-.8 19.35-2.6" fill="#623826" transform="translate(-.25 -.25)"/><path d="m23.1 19.45.2.95-7.55 1.1-.15-.9 7.5-1.15" fill="#623826" transform="translate(-.25 -.25)"/><path d="m22.4 19.85-.45.85L6.9 12.9l.95-.6 14.55 7.55" fill="#623826" transform="translate(-.25 -.25)"/><path d="m23.4 19.85-.65.65-9.3-10.7.9-.35 9.05 10.4" fill="#623826" transform="translate(-.25 -.25)"/></g><g id="d" fill-rule="evenodd"><path d="M19.4 4.4q.8 5.6-2.85 10.2-3.65 4.55-11.65 4.45h-.85q3.7-1.9 4.55-10.25.4-4.05.75-5.1Q10 1.65 11.6 2q2.8.6 7.8 2.4" fill="#d4d2d4" transform="translate(16.65 8.05)"/><path d="m17.35 4.7 2.2-.35q.75 6.6-2.95 10.95T5.05 19.55H4.2q6.5-1.85 7.75-4.7 1.2-2.9 2.6-4.45 1.4-1.6 1.35-3.8-.1-2.25 1.45-1.9" fill="#a7a7a7" transform="translate(16.65 8.05)"/><path d="m2.35 10.7-6.1-.5q-2.3-.35-2.55-1.35-.35-1.1 2.15-1.95L4.3 5.7Q8 5.4 8.35 5q1.9-1.9 3.2-.7l1.5 2.2q.9 1.45.65 2.25-.55 1.9-3.05 2L8.2 10.7H2.35" fill="#fff" transform="translate(16.65 8.05)"/><path d="M1.75 12.45q-1.3 1-2.85 1l-3.25-.4Q-6.3 12-6.35 11q-.05-1.25 3.3-.15 1.05.35 7.6-.05h6q.85.2 1.05 1.4.15 1.15-.75 1.5l-.3.5q-.9 0-4.1-1.65-1.45-.85-1.9-.95-1.35-.25-2.8.85" fill="#d4d2d4" transform="translate(16.65 8.05)"/><path d="M1.65 12.95q0 2.8 2.8 2.8t2.8-2.8q0-2.8-2.8-2.8t-2.8 2.8M1.4 9.9q1.25-1.3 3.05-1.3 1.8 0 3.1 1.3 1.25 1.25 1.25 3.05 0 1.8-1.25 3.1-1.3 1.25-3.1 1.25T1.4 16.05q-1.3-1.3-1.3-3.1T1.4 9.9" fill="red" transform="translate(16.65 8.05)"/><path d="M4.4 11.35q1.6 0 1.6 1.6t-1.6 1.6q-1.6 0-1.6-1.6t1.6-1.6m2.85-3.2h1.6v5h-1.6v-5" fill="red" transform="translate(16.65 8.05)"/><path d="M7.25 7.4h3.15V9H7.25V7.4M1.7 8.95h-3.15v-1.6H1.7v1.6" fill="red" transform="translate(16.65 8.05)"/><path d="M.05 8.15H1.7v5H.05v-5m3.5-2.25H5.2v3.65H3.55V5.9" fill="red" transform="translate(16.65 8.05)"/><path d="M-14.9 1.85q.5-.45 6.15 0l5.5.6-13.4 3.85q1-3.7 1.75-4.45" fill="#1c191d" transform="translate(16.65 8.05)"/><path d="m-13.75 2.55 7.35.2-8.55 2.1q.5-2.05 1.2-2.3" fill="#fff" transform="translate(16.65 8.05)"/><path d="M15.75-8q.8 1.3 2.7 6.4 1.3 3.4 1.05 3.45l-4.8.35q1.25-1.1 1.5-2.1l.05-2.7-.15-2.85L15.75-8" fill="#d4d2d4" transform="translate(16.65 8.05)"/><path d="m12.9 2.25 5.55-.4L24.6 2q.75.8 1.65 4.5L12.9 2.25" fill="#1c191d" transform="translate(16.65 8.05)"/><path d="m16.05 2.65 7.4.05q1 1 1.1 2.35l-8.5-2.4" fill="#fff" transform="translate(16.65 8.05)"/><path d="m-13.4 4.5-1.65.4q.5-1.9 1.15-2.25l1.75-.1-1.25 1.95m36.8-1.8q.75.25 1.15 2.35L22.9 4.6l-1.25-2.05 1.75.15" fill="red" transform="translate(16.65 8.05)"/></g></defs></svg>