<?xml version="1.0" encoding="UTF-8" standalone="no"?>
<svg xmlns:xlink="http://www.w3.org/1999/xlink" height="82.0px" width="84.85px" xmlns="http://www.w3.org/2000/svg">
  <g transform="matrix(1.0, 0.0, 0.0, 1.0, 37.4, 42.25)">
    <use height="38.0" transform="matrix(1.0, 0.0, 0.0, 1.0, -11.95, -17.45)" width="32.05" xlink:href="#sprite0"/>
    <use height="38.95" transform="matrix(1.0, 0.0, 0.0, 1.0, -12.45, -17.95)" width="33.05" xlink:href="#sprite1"/>
    <use height="33.6" transform="matrix(1.0, 0.0, 0.0, 1.0, -14.65, -5.25)" width="37.2" xlink:href="#shape2"/>
  </g>
  <defs>
    <g id="sprite0" transform="matrix(1.0, 0.0, 0.0, 1.0, -0.05, 0.0)">
      <use height="38.0" transform="matrix(1.0, 0.0, 0.0, 1.0, 0.05, 0.0)" width="32.05" xlink:href="#shape0"/>
    </g>
    <g id="shape0" transform="matrix(1.0, 0.0, 0.0, 1.0, -0.05, 0.0)">
      <path d="M27.35 7.4 Q29.5 11.55 30.9 16.15 32.35 20.85 32.05 25.65 31.7 30.6 27.85 33.75 24.05 36.95 19.1 37.8 L16.5 38.0 Q12.9 38.0 9.45 36.85 4.8 35.25 2.35 31.35 -0.2 27.4 0.05 23.0 0.25 18.6 2.05 13.7 3.85 8.75 7.0 5.05 10.1 1.3 14.7 0.1 L16.5 0.0 Q18.4 0.05 20.2 0.8 24.95 2.85 27.35 7.4" fill="#c77843" fill-rule="evenodd" stroke="none"/>
    </g>
    <g id="sprite1" transform="matrix(1.0, 0.0, 0.0, 1.0, 0.45, 0.5)">
      <use height="38.95" transform="matrix(1.0, 0.0, 0.0, 1.0, -0.45, -0.5)" width="33.05" xlink:href="#shape1"/>
    </g>
    <g id="shape1" transform="matrix(1.0, 0.0, 0.0, 1.0, 0.45, 0.5)">
      <path d="M27.35 7.4 Q24.95 2.85 20.2 0.8 17.55 -0.3 14.7 0.1 10.1 1.3 7.0 5.05 3.85 8.75 2.05 13.7 0.25 18.6 0.05 23.0 -0.2 27.4 2.35 31.35 4.8 35.25 9.45 36.85 14.1 38.4 19.1 37.8 24.05 36.95 27.85 33.75 31.7 30.6 32.05 25.65 32.35 20.85 30.9 16.15 29.5 11.55 27.35 7.4 Z" fill="none" stroke="#4a2d17" stroke-linecap="round" stroke-linejoin="round" stroke-width="1.0"/>
    </g>
    <g id="shape2" transform="matrix(1.0, 0.0, 0.0, 1.0, 14.65, 5.25)">
      <path d="M-9.9 10.75 L-8.9 10.75 -8.95 12.45 -9.05 13.05 -9.05 13.1 -9.3 14.2 -10.25 13.95 -10.0 12.85 -9.9 11.85 -9.9 10.75" fill="#333333" fill-rule="evenodd" stroke="none"/>
      <path d="M-12.6 12.35 Q-12.5 12.0 -12.2 12.0 L-8.95 12.4 -8.7 12.6 Q-8.55 12.75 -8.65 12.9 L-11.7 21.0 Q-11.75 21.3 -12.05 21.3 L-13.8 21.3 -14.1 21.1 -14.55 20.45 -14.65 20.25 -14.65 20.15 -14.45 19.9 -13.8 19.5 -14.05 19.35 -14.2 19.05 -14.2 18.95 -13.65 17.2 -13.5 16.95 -13.35 16.85 -13.45 16.85 -13.8 16.7 -13.85 16.45 -13.85 16.35 -13.35 14.9 -13.15 14.7 -12.55 14.3 -12.6 14.3 -12.9 13.9 -12.9 13.85 -12.6 12.35" fill="#4f0000" fill-rule="evenodd" stroke="none"/>
      <path d="M-12.2 13.85 L-12.2 12.45 -9.05 12.8 -12.35 20.5 -13.45 20.65 -13.65 20.3 -13.1 19.55 -13.35 19.0 -12.9 17.4 -11.9 16.5 -12.95 16.25 -12.6 14.9 -11.6 14.2 -12.2 13.85" fill="#ffe7b3" fill-rule="evenodd" stroke="none"/>
      <path d="M-13.5 20.05 L-12.0 19.75 -12.35 20.5 -13.45 20.65 -13.65 20.3 -13.5 20.05" fill="#b59668" fill-rule="evenodd" stroke="none"/>
      <path d="M-13.15 18.3 Q-12.4 18.35 -10.9 17.15 L-11.6 18.75 -13.3 19.0 -13.35 19.0 -13.15 18.3" fill="#b59668" fill-rule="evenodd" stroke="none"/>
      <path d="M-11.6 14.2 L-9.65 14.2 -10.45 16.1 -12.8 15.5 -12.55 14.6 -11.6 14.2" fill="#b59668" fill-rule="evenodd" stroke="none"/>
      <path d="M20.8 13.65 L20.85 13.7 20.55 14.1 20.45 14.1 21.1 14.5 21.25 14.7 21.75 16.15 21.75 16.3 21.7 16.5 21.4 16.7 21.25 16.7 21.4 16.8 21.6 17.0 22.1 18.75 22.1 18.85 21.95 19.15 21.75 19.35 22.35 19.7 22.55 19.95 22.55 20.05 22.5 20.3 22.05 20.9 21.7 21.1 19.95 21.1 19.6 20.85 16.6 12.75 16.6 12.4 16.85 12.2 20.1 11.85 Q20.45 11.75 20.55 12.15 L20.8 13.65" fill="#4f0000" fill-rule="evenodd" stroke="none"/>
      <path d="M21.4 20.6 L19.8 20.45 16.95 12.6 19.9 12.3 20.15 13.65 19.55 14.0 20.45 14.75 20.85 16.0 19.8 16.35 20.9 17.25 21.3 18.9 Q21.05 19.15 20.75 19.35 L21.7 19.95 21.4 20.6" fill="#ffe7b3" fill-rule="evenodd" stroke="none"/>
      <path d="M18.9 18.0 Q19.85 18.15 21.0 17.55 L21.35 18.9 20.75 19.3 19.35 19.25 18.9 18.0" fill="#b59668" fill-rule="evenodd" stroke="none"/>
      <path d="M20.05 14.45 L20.45 14.75 20.85 16.1 18.35 16.45 17.55 14.25 20.05 14.45" fill="#b59668" fill-rule="evenodd" stroke="none"/>
      <path d="M19.65 20.05 L21.2 19.6 21.7 19.9 21.4 20.6 19.8 20.45 19.65 20.05" fill="#b59668" fill-rule="evenodd" stroke="none"/>
      <path d="M20.5 20.55 L20.5 21.0 Q19.6 22.6 15.55 23.7 10.35 25.1 5.05 23.15 L4.8 22.9 4.6 20.9 3.8 20.9 3.95 22.5 3.9 22.95 3.75 23.1 Q2.15 24.1 -2.7 24.15 -8.75 24.25 -12.2 21.6 L-12.35 21.1 Q-10.35 15.45 -10.6 12.75 L-10.45 12.4 -10.1 12.25 Q-0.3 14.05 9.05 13.3 16.2 12.75 17.45 11.8 L17.9 11.75 18.2 12.1 Q18.7 18.1 20.5 20.55" fill="#4f0000" fill-rule="evenodd" stroke="none"/>
      <path d="M19.6 20.75 Q18.9 22.05 15.1 22.95 10.25 24.15 5.55 22.4 L5.3 20.1 3.0 20.2 3.1 22.45 Q1.7 23.3 -2.65 23.3 -8.1 23.25 -11.4 21.05 -9.25 14.95 -9.75 13.2 0.35 15.05 9.65 14.2 16.85 13.55 17.45 12.6 17.9 17.7 19.6 20.75" fill="#f9d478" fill-rule="evenodd" stroke="none"/>
      <path d="M17.45 12.6 L17.8 15.45 Q12.4 17.55 7.8 14.35 16.7 13.75 17.45 12.6" fill="#d8a364" fill-rule="evenodd" stroke="none"/>
      <path d="M18.1 16.8 Q18.6 18.9 19.6 20.75 18.9 22.05 15.1 22.95 10.25 24.15 5.55 22.4 L5.3 20.1 3.0 20.2 3.1 22.45 Q0.9 23.9 -5.2 23.1 -4.25 20.6 -3.6 18.2 L-10.0 15.5 Q-9.65 13.55 -9.75 13.2 L5.0 14.45 Q7.9 17.6 11.4 18.5 15.4 19.5 18.1 16.8" fill="#d8a364" fill-rule="evenodd" stroke="none"/>
      <path d="M17.8 15.45 L18.1 16.8 Q15.4 19.5 11.4 18.5 7.9 17.6 5.0 14.45 L7.8 14.35 Q12.4 17.55 17.8 15.45" fill="#d8a364" fill-rule="evenodd" stroke="none"/>
      <path d="M11.55 15.95 Q9.55 15.5 7.95 14.4 L9.05 14.0 10.85 14.0 Q11.25 14.0 11.35 14.4 L11.55 15.95" fill="#03003b" fill-rule="evenodd" stroke="none"/>
      <path d="M5.55 14.95 Q8.5 17.9 11.9 18.65 L12.55 23.5 12.6 23.55 12.45 23.85 12.15 24.05 9.3 24.15 9.2 24.75 8.75 25.15 0.85 25.35 0.5 25.2 0.4 24.85 0.4 24.45 -3.2 24.05 -3.3 23.6 -2.6 18.1 -2.2 14.8 Q2.25 15.5 5.55 14.95" fill="#4f0000" fill-rule="evenodd" stroke="none"/>
      <path d="M4.65 14.0 L5.55 14.95 Q2.25 15.5 -2.2 14.8 -2.05 13.95 -1.7 13.95 L-1.7 14.0 4.65 14.0" fill="#03003b" fill-rule="evenodd" stroke="none"/>
      <path d="M11.9 18.65 Q8.5 17.9 5.55 14.95 L7.95 14.4 Q9.55 15.5 11.55 15.95 L11.9 18.65" fill="#4f0000" fill-rule="evenodd" stroke="none"/>
      <path d="M5.55 14.95 Q7.95 17.45 10.85 18.35 L11.3 23.35 8.5 23.5 8.35 24.25 1.35 24.4 1.25 23.6 -2.1 23.45 -1.55 15.05 -0.45 15.0 Q2.7 15.4 5.55 14.95" fill="#d80000" fill-rule="evenodd" stroke="none"/>
      <path d="M5.4 14.85 L5.55 14.95 Q2.7 15.4 -0.45 15.0 L5.4 14.85" fill="#037df2" fill-rule="evenodd" stroke="none"/>
      <path d="M10.85 18.35 Q7.95 17.45 5.55 14.95 L6.45 14.8 8.45 14.75 10.65 15.7 10.85 18.35" fill="#d80000" fill-rule="evenodd" stroke="none"/>
      <path d="M8.45 14.75 L10.55 14.65 10.65 15.7 8.45 14.75" fill="#037df2" fill-rule="evenodd" stroke="none"/>
      <path d="M0.45 19.75 L0.75 18.6 1.0 18.8 1.0 18.85 0.45 19.75 M0.2 22.05 L-0.2 22.65 -0.1 22.0 0.15 22.05 0.2 22.05" fill="#970000" fill-rule="evenodd" stroke="none"/>
      <path d="M10.9 18.35 L10.85 18.35 10.85 17.85 10.9 18.35" fill="#510000" fill-rule="evenodd" stroke="none"/>
      <path d="M10.65 16.3 L10.85 17.85 10.85 18.35 9.65 17.9 9.6 17.85 9.3 17.7 10.1 16.35 10.65 16.3" fill="#970000" fill-rule="evenodd" stroke="none"/>
      <path d="M10.85 18.35 L10.9 18.35 11.05 20.5 10.85 18.35" fill="#510000" fill-rule="evenodd" stroke="none"/>
      <path d="M9.65 17.9 L10.85 18.35 11.3 23.25 11.3 23.35 10.6 23.35 Q9.7 21.35 9.7 20.75 L9.45 20.3 9.1 20.1 9.05 20.05 9.3 19.7 9.1 19.2 8.45 18.6 9.3 17.7 9.6 17.85 9.65 17.9" fill="#970000" fill-rule="evenodd" stroke="none"/>
      <path d="M-0.6 16.8 L-1.65 16.5 -1.65 16.45 -0.75 16.5 -0.6 16.8" fill="#970000" fill-rule="evenodd" stroke="none"/>
      <path d="M19.15 10.9 Q19.65 11.75 19.65 12.55 L19.4 13.25 19.5 13.15 19.4 13.3 19.4 13.25 Q18.35 16.05 7.1 16.55 L-4.15 16.2 Q-11.05 15.3 -12.0 12.95 L-12.05 12.85 -11.65 9.35 -11.0 9.75 Q-6.55 12.4 5.3 11.95 15.85 11.55 17.95 10.2 L18.1 10.1 18.2 10.05 Q18.65 10.05 19.15 10.9" fill="#4f0000" fill-rule="evenodd" stroke="none"/>
      <path d="M18.45 11.0 Q19.35 11.9 18.85 12.5 17.9 15.6 4.2 15.75 -9.6 15.85 -11.05 12.4 L-10.75 10.85 Q-5.9 13.4 5.75 12.9 16.2 12.45 18.45 11.0" fill="#d80000" fill-rule="evenodd" stroke="none"/>
      <path d="M18.7 10.8 Q18.8 10.6 19.0 10.65 L19.15 10.95 18.15 14.0 16.5 12.1 Q15.8 14.45 15.45 14.45 15.15 14.6 13.5 12.55 12.75 15.05 12.3 15.05 12.0 15.35 10.4 12.85 9.1 15.5 8.8 15.5 8.35 15.5 6.8 13.15 L5.45 15.7 Q5.05 15.7 3.6 13.25 1.9 15.65 1.55 15.65 1.25 15.65 -0.05 13.25 -1.7 15.65 -2.1 15.45 -2.4 15.45 -3.3 13.1 -4.7 15.05 -5.15 15.05 -5.5 15.05 -6.1 12.75 L-8.05 14.4 Q-8.35 14.4 -8.9 12.1 L-10.55 13.8 Q-10.7 14.0 -10.9 13.8 L-10.9 13.45 -8.9 11.65 Q-8.35 11.95 -7.9 13.65 -6.55 12.3 -6.05 12.3 -5.65 12.3 -5.05 14.35 -3.65 12.65 -3.3 12.65 -2.6 13.0 -2.0 14.75 -0.5 12.9 -0.05 12.9 0.65 12.9 1.65 14.9 L3.5 12.95 Q4.15 12.95 5.4 14.85 6.2 12.8 6.75 12.8 7.3 12.8 8.7 14.7 9.8 12.55 10.35 12.55 11.0 12.55 12.3 14.45 12.8 12.6 13.45 12.25 14.15 12.25 15.35 13.6 15.95 11.7 16.45 11.7 L18.0 12.9 18.7 10.8" fill="#ffc200" fill-rule="evenodd" stroke="none"/>
      <path d="M-10.55 13.1 L-11.05 12.4 -10.2 12.8 -10.55 13.1 M-2.45 14.9 L-2.1 15.45 -1.6 15.0 -1.15 15.05 -1.05 15.55 Q-5.55 15.2 -8.05 14.4 L-7.35 13.85 -5.5 14.35 -5.15 15.05 -4.55 14.55 -2.45 14.9 M-8.1 14.35 Q-9.3 14.0 -10.15 13.4 L-9.75 13.0 -8.45 13.5 -8.1 14.35" fill="#b40000" fill-rule="evenodd" stroke="none"/>
      <path d="M-10.2 12.8 L-9.75 13.0 -10.15 13.4 -10.55 13.1 -10.2 12.8 M-2.45 14.9 L-1.6 15.0 -2.1 15.45 -2.45 14.9 M-8.05 14.4 L-8.1 14.35 -8.45 13.5 -7.35 13.85 -8.05 14.4 M-5.5 14.35 L-4.55 14.55 -5.15 15.05 -5.5 14.35" fill="#c86300" fill-rule="evenodd" stroke="none"/>
      <path d="M16.35 11.75 Q15.9 11.9 15.35 13.6 14.25 12.25 13.45 12.25 12.8 12.6 12.3 14.45 L10.9 13.0 11.65 12.45 13.15 12.25 16.35 11.75 M19.0 11.95 L18.85 12.5 18.8 12.65 18.5 13.05 18.95 11.6 19.0 11.95 M18.65 11.0 L18.0 12.9 Q17.05 11.7 16.45 11.7 L18.4 11.05 18.45 11.0 18.55 10.95 18.65 11.0 M10.45 14.4 L10.35 13.35 10.65 13.15 12.3 15.05 Q12.75 15.05 13.5 12.55 L15.45 14.45 Q15.8 14.45 16.5 12.1 L17.75 13.6 Q15.65 14.85 10.35 15.4 L10.45 14.4" fill="#b40000" fill-rule="evenodd" stroke="none"/>
      <path d="M18.95 11.6 L18.5 13.05 17.75 13.6 16.5 12.1 Q15.8 14.45 15.45 14.45 L13.5 12.55 Q12.75 15.05 12.3 15.05 L10.65 13.15 10.9 13.0 12.3 14.45 Q12.8 12.6 13.45 12.25 14.25 12.25 15.35 13.6 15.95 11.7 16.45 11.7 17.05 11.7 18.0 12.9 L18.65 11.0 18.95 11.6" fill="#c86300" fill-rule="evenodd" stroke="none"/>
      <path d="M3.9 -3.1 L10.95 -0.5 17.35 -3.85 11.1 1.7 3.9 -0.95 -3.55 1.7 -9.85 -3.1 -3.5 -0.45 3.9 -3.1" fill="#ffdf22" fill-rule="evenodd" stroke="none"/>
      <path d="M-9.0 -4.4 L-4.75 -4.55 -5.65 -2.75 -9.0 -4.4" fill="#ffdf22" fill-rule="evenodd" stroke="none"/>
      <path d="M13.9 -3.45 L13.05 -5.25 17.0 -4.95 13.9 -3.45" fill="#ffdf22" fill-rule="evenodd" stroke="none"/>
      <path d="M2.9 16.45 Q3.0 15.9 3.45 16.0 6.05 16.3 9.1 19.2 L9.3 19.7 9.05 20.05 9.1 20.1 9.45 20.3 9.7 20.75 Q9.7 22.55 11.35 24.7 11.6 24.95 11.45 25.2 L11.15 25.6 8.35 25.3 5.45 24.55 5.05 24.1 4.85 23.2 Q4.7 23.45 4.35 23.45 L4.15 23.4 3.9 23.15 Q2.35 19.35 2.9 16.45" fill="#283138" fill-rule="evenodd" stroke="none"/>
      <path d="M5.75 23.35 L5.35 21.65 4.8 22.45 Q3.55 19.4 3.9 17.4 6.0 17.65 8.2 19.85 L7.35 20.3 8.65 20.75 Q8.4 22.3 10.0 24.3 L7.7 24.0 5.75 23.35" fill="#ffffff" fill-rule="evenodd" stroke="none"/>
      <path d="M5.6 17.9 L6.95 19.2 7.8 19.75 Q7.4 19.75 7.15 20.25 7.95 20.75 8.4 20.85 L8.85 22.2 9.25 23.5 9.15 23.45 7.35 21.55 Q7.1 21.3 7.0 20.75 L6.85 20.45 6.55 20.55 5.6 19.15 5.1 18.45 5.6 17.9" fill="#abd9ff" fill-rule="evenodd" stroke="none"/>
      <path d="M4.25 18.4 L4.55 18.95 5.05 19.65 5.7 20.6 5.75 21.35 5.3 20.4 5.25 21.2 4.3 19.3 4.2 18.3 4.25 18.4" fill="#abd9ff" fill-rule="evenodd" stroke="none"/>
      <path d="M5.95 21.2 L5.85 20.55 Q3.85 17.7 4.05 17.6 L6.25 20.25 6.3 20.7 6.85 20.6 6.95 21.45 9.35 24.0 Q6.65 22.05 6.5 21.55 L6.55 21.15 5.95 21.2" fill="#333e49" fill-rule="evenodd" stroke="none"/>
      <path d="M3.5 16.15 Q3.85 15.95 4.2 16.3 5.65 18.45 5.7 22.65 L5.5 23.1 5.1 23.15 5.1 23.2 5.2 23.6 5.05 24.1 Q3.75 25.65 3.5 27.95 L3.2 28.35 2.75 28.35 Q2.25 28.1 1.05 26.1 -0.05 24.25 -0.3 23.4 L-0.35 23.3 -0.3 22.8 0.2 22.05 Q-0.1 22.15 -0.3 21.85 L-0.4 21.7 -0.4 21.3 Q1.15 17.65 3.5 16.15" fill="#283138" fill-rule="evenodd" stroke="none"/>
      <path d="M3.55 17.45 Q4.8 19.2 4.75 22.45 L3.85 22.05 4.4 23.4 Q3.15 24.15 2.85 26.8 2.5 26.6 1.5 24.85 0.5 23.1 0.6 22.9 L1.55 21.4 0.6 21.55 Q2.05 18.4 3.55 17.45" fill="#ffffff" fill-rule="evenodd" stroke="none"/>
      <path d="M4.35 19.1 L4.35 21.05 4.5 22.05 Q4.2 21.7 3.75 21.9 L4.2 23.25 Q3.9 23.55 3.55 24.5 L2.9 25.7 2.9 25.55 2.95 22.85 Q2.95 22.55 3.3 22.1 L3.35 21.8 3.15 21.6 3.45 19.95 Q3.45 19.25 3.6 19.1 L4.35 19.1" fill="#abd9ff" fill-rule="evenodd" stroke="none"/>
      <path d="M2.7 19.85 L2.55 21.0 2.0 21.55 2.4 20.55 1.75 21.05 2.5 19.05 Q2.75 18.05 3.1 18.3 L3.1 18.35 2.7 19.85" fill="#abd9ff" fill-rule="evenodd" stroke="none"/>
      <path d="M3.1 21.2 L2.85 21.55 3.3 21.9 2.75 22.55 2.6 26.15 2.4 22.25 2.7 22.0 2.25 21.6 2.65 21.05 Q3.1 17.5 3.45 17.7 L3.1 21.2" fill="#333e49" fill-rule="evenodd" stroke="none"/>
      <path d="M0.5 10.45 Q2.2 8.8 4.65 8.8 7.05 8.8 8.75 10.45 10.45 12.1 10.45 14.4 10.45 16.7 8.75 18.35 7.05 20.0 4.65 20.0 2.2 20.0 0.5 18.35 -1.2 16.75 -1.2 14.4 -1.2 12.05 0.5 10.45" fill="#4f0000" fill-rule="evenodd" stroke="none"/>
      <path d="M9.3 14.4 Q9.3 16.25 7.95 17.55 6.55 18.85 4.65 18.85 2.7 18.85 1.35 17.55 -0.05 16.25 -0.05 14.4 -0.05 12.55 1.35 11.2 2.7 9.9 4.65 9.9 6.55 9.9 7.95 11.2 9.3 12.55 9.3 14.4" fill="#ffc200" fill-rule="evenodd" stroke="none"/>
      <path d="M5.8 15.55 L3.45 15.6 3.4 13.2 5.75 13.15 5.8 15.55" fill="#d80000" fill-rule="evenodd" stroke="none"/>
      <path d="M2.9 12.5 L4.5 10.1 6.2 12.4 2.9 12.5" fill="#d80000" fill-rule="evenodd" stroke="none"/>
      <path d="M2.65 16.1 L0.25 14.5 2.55 12.8 2.65 16.1" fill="#d80000" fill-rule="evenodd" stroke="none"/>
      <path d="M6.45 12.7 L8.9 14.25 6.6 16.0 6.45 12.7" fill="#d80000" fill-rule="evenodd" stroke="none"/>
      <path d="M6.35 16.25 L4.8 18.65 3.1 16.35 6.35 16.25" fill="#d80000" fill-rule="evenodd" stroke="none"/>
      <path d="M8.3 11.6 L8.35 11.65 8.4 11.75 8.45 11.75 8.6 12.0 8.6 12.05 8.75 12.3 8.8 12.3 8.9 12.6 8.95 12.6 9.15 13.2 9.15 13.25 9.25 13.55 9.3 13.85 9.3 14.4 Q9.3 16.25 7.95 17.55 6.55 18.85 4.65 18.85 L4.1 18.85 Q2.85 18.7 2.0 18.05 L2.95 18.15 4.3 18.0 4.8 18.65 5.6 17.35 Q6.75 16.65 7.25 15.5 L8.9 14.25 7.7 13.5 7.7 13.45 Q7.7 11.6 6.45 10.25 7.35 10.65 7.95 11.2 L8.0 11.3 8.05 11.3 8.15 11.4 8.2 11.5 8.25 11.5 8.3 11.6" fill="#e07e00" fill-rule="evenodd" stroke="none"/>
      <path d="M7.25 15.5 Q7.7 14.6 7.7 13.5 L8.9 14.25 7.25 15.5" fill="#cc1b00" fill-rule="evenodd" stroke="none"/>
      <path d="M4.8 18.65 L4.3 18.0 5.6 17.35 4.8 18.65" fill="#cc1b00" fill-rule="evenodd" stroke="none"/>
    </g>
  </defs>
</svg>
