<svg xmlns="http://www.w3.org/2000/svg" xmlns:xlink="http://www.w3.org/1999/xlink" height="82" width="84.85" xmlns:v="https://vecta.io/nano"><g transform="translate(37.4 42.25)"><use height="38" width="32.05" xlink:href="#A" x="-11.95" y="-17.45"/><use height="38.95" width="33.05" xlink:href="#C" x="-12.45" y="-17.95"/><use height="20.9" width="25.5" xlink:href="#E" x="-8.35" y="-1.15"/></g><defs><use height="38" width="32.05" xlink:href="#B" id="A"/><path d="M27.35 7.4q2.15 4.15 3.55 8.75 1.45 4.7 1.15 9.5-.35 4.95-4.2 8.1-3.8 3.2-8.75 4.05l-2.6.2q-3.6 0-7.05-1.15-4.65-1.6-7.1-5.5Q-.2 27.4.05 23q.2-4.4 2-9.3Q3.85 8.75 7 5.05 10.1 1.3 14.7.1l1.8-.1q1.9.05 3.7.8 4.75 2.05 7.15 6.6" fill="#fc0" fill-rule="evenodd" stroke="none" id="B" transform="translate(-.05)"/><use height="38.95" width="33.05" xlink:href="#D" id="C"/><path d="M27.35 7.4Q24.95 2.85 20.2.8 17.55-.3 14.7.1 10.1 1.3 7 5.05q-3.15 3.7-4.95 8.65-1.8 4.9-2 9.3-.25 4.4 2.3 8.35 2.45 3.9 7.1 5.5 4.65 1.55 9.65.95 4.95-.85 8.75-4.05 3.85-3.15 4.2-8.1.3-4.8-1.15-9.5-1.4-4.6-3.55-8.75z" fill="none" stroke="#000" stroke-linejoin="round" stroke-width="1" id="D" transform="translate(.45 .5)"/><use height="2.4" transform="matrix(10.6042 0 0 8.7083 .025 0)" width="2.4" xlink:href="#F" id="E"/><path d="M.85-.85q.35.35.35.85 0 .5-.35.85Q.5 1.2 0 1.2q-.5 0-.85-.35Q-1.2.5-1.2 0q0-.5.35-.85.35-.35.85-.35.5 0 .85.35" fill="#fff" fill-rule="evenodd" stroke="none" id="F" transform="translate(1.2 1.2)"/></defs></svg>