<svg xmlns:xlink="http://www.w3.org/1999/xlink" height="82" width="84.85" xmlns="http://www.w3.org/2000/svg"><g transform="translate(37.4 42.25)"><use height="38" transform="translate(-11.95 -17.45)" width="32.05" xlink:href="#a"/><use height="38.95" transform="translate(-12.45 -17.95)" width="33.05" xlink:href="#b"/><use height="26.85" transform="translate(-13 3.1)" width="35.05" xlink:href="#c"/></g><defs><path d="M27.35 7.4q2.15 4.15 3.55 8.75 1.45 4.7 1.15 9.5-.35 4.95-4.2 8.1-3.8 3.2-8.75 4.05l-2.6.2q-3.6 0-7.05-1.15-4.65-1.6-7.1-5.5Q-.2 27.4.05 23q.2-4.4 2-9.3Q3.85 8.75 7 5.05 10.1 1.3 14.7.1l1.8-.1q1.9.05 3.7.8 4.75 2.05 7.15 6.6" fill="#c5753d" fill-rule="evenodd" transform="translate(-.05)" id="d"/><path d="M27.35 7.4Q24.95 2.85 20.2.8 17.55-.3 14.7.1 10.1 1.3 7 5.05q-3.15 3.7-4.95 8.65-1.8 4.9-2 9.3-.25 4.4 2.3 8.35 2.45 3.9 7.1 5.5 4.65 1.55 9.65.95 4.95-.85 8.75-4.05 3.85-3.15 4.2-8.1.3-4.8-1.15-9.5-1.4-4.6-3.55-8.75Z" fill="none" stroke="#402c1e" stroke-linecap="round" stroke-linejoin="round" transform="translate(.45 .5)" id="e"/><use height="38" width="32.05" xlink:href="#d" id="a"/><use height="38.95" width="33.05" xlink:href="#e" id="b"/><g id="c"><path d="m1.15 2.45.3-.1M3.7 8.3v1.15l-.25 1.2" fill="none" stroke="#333" stroke-linecap="round" stroke-linejoin="round" stroke-width=".95"/><path d="M20.9 17.15q.25 0 .35.25l.75 1.7q.1.35-.15.5l-2.55 1.65q-.2.2-.4 0l-.4-.25-.25.55-.15.2-3.6 2.05-.35-.05-.4-.2-.1.5-.2.3-3.4 1.95h-.3l-.4-.15v.35l-.15.3L5 29.95q-.35.1-5.45-2.9l-.2-.25-.15-.65-.5.35-.4.05-3.8-2.25-.2-.2-.2-.7-.4.2h-.35l-1.7-1-.55-.9-.35.2h-.3l-3.15-1.65q-.3-.2-.2-.45.55-1.8.9-1.9l32.9-.75" fill="#4f0000" fill-rule="evenodd" transform="translate(13 -3.1)"/><path d="m20.8 17.9.65 1.4-2.3 1.45-.95-.45-.45 1-3.35 1.9-.95-.4-.25.95-3.35 1.9-.85-.3-.2.75-3.9 2.8-4.85-2.4-.5-1.3-1 .45-3.65-1.75-.4-1.35-.9.4-1.45-.75-.7-1.15-.8.2L-12 19.9l.55-1.55 32.25-.45" fill="#ffe7b3" fill-rule="evenodd" transform="translate(13 -3.1)"/><path d="M7.55 18.1q.95 1.9 1.5 7.25H9l-.2.75L5 28.85q-.5-1.9-.5-5.35 0-3.5-.45-5.35l3.5-.05M-8.6 21.05l-.75.2-1-.55q.6-1.25.75-2.35l.85-.05.15 2.75m3.05-2.8h1.3q-.1 1.3-1.6 4.45l-.55.25-.95-.5q1.45-1.6 1.8-4.2m6.2-.05q.45 1.4-.1 3.6l-.95 3.5-.05-.1-1 .45-1.45-.7q.95-4.65 1.9-6.75H.65m20.15-.3.65 1.4-2.3 1.45-.95-.45-.45 1-3.35 1.9-.95-.4-.25.95-.8.45q-.35-3.55-1.8-6.15l10.2-.15" fill="#b59668" fill-rule="evenodd" transform="translate(13 -3.1)"/><path d="M21.4 17.9v.35l-2.7 1.6q-10.4 5.05-13.55 8L4.8 28l-.35-.15q-2.1-2.3-16.5-8.55-.4-.15-.3-.55l.45-2.55q.9-4.7.85-5.05l.25-.5q.25-.15.5 0 1.15.75 6.8 2.3l7.2 1.75q1.35.2 7.4-2.5 5.65-2.6 6.35-3.3l.65-.05q.8.5 3 7.95l.3 1.1" fill="#4f0000" fill-rule="evenodd" transform="translate(13 -3.1)"/><path d="M3.8 15.7q1.5.2 7.65-2.6 5.75-2.6 6.4-3.35.8.5 2.5 8.1.1.15-6.1 3.1-6.85 3.5-9.4 5.9-1.55-1.45-9-5.05l-7.15-3.3 1.05-6.7q1.15.7 6.8 2.25L3.8 15.7" fill="#f9d478" fill-rule="evenodd" transform="translate(13 -3.1)"/><path d="M10.55 19.25q-2.35 1.9-5.3 2.2-4.25-1.35-9.8-3.7-5.3-2.25-6.1-2.95l.4-3q1.15.7 6.8 2.25L3.8 15.7q1.5.2 7.65-2.6 5.75-2.6 6.4-3.35.8.5 2.5 8.1.1.15-6.1 3.1-6.85 3.5-9.4 5.9-.5-.4 1.85-2.6-1.55 0-3.35-1 5.2-.75 7.2-4" fill="#d8a364" fill-rule="evenodd" transform="translate(13 -3.1)"/><path d="m10.1 18.2-.2.25-4.7 1.7h-.25l-5.1-1.6-.25-.3-.05-.15-.35.35-.45.1-4.45-1.95-.2-.35v-.45l-.7.3h-.3l-3.85-1.7-.2-.35V14l.5-2.45 4.7-.45 23.7-.8q.4 0 1.75 2.75.15.3-.1.45-2.4 2.15-3.75 2.45l-.35-.1-.25-.35-.3.65-.15.15q-3.2 1.7-3.75 1.75l-.3-.05-.45-.4-.2.6" fill="#4f0000" fill-rule="evenodd" transform="translate(13 -3.1)"/><path d="m.3 17.9-.5-.85-.95.7-4.1-1.85-.15-1-1.35.45-3.75-1.7.4-2.05 28.05-.9L19.1 13q-2.05 1.8-3.35 2.1l-.75-.8-.65 1.4-3.25 1.55-1.15-.5-.5 1.05-4.4 1.6L.3 17.9" fill="#ffe7b3" fill-rule="evenodd" transform="translate(13 -3.1)"/><path d="m-6.7 11.5 2.45-.1q.05 1.6-1.15 3.55l-1.35.4q-.85-.35-1.7-.75Q-7 12.45-6.7 11.5m6.9-.25.15 3.1q.05 1.7-.55 2.7l-.95.7-2.3-1.05q.85-.7 1.35-2.5l.9-2.9 1.4-.05m4.5-.1L8.15 11q1.8 4.55 1.8 5.8l-.5 1-4.35 1.55q1-1.8.6-4.1l-1-4.1m6.75 6q.55-3.8-1.6-6.2l8.1-.25L19.1 13q-2.05 1.8-3.35 2.1l-.75-.8-.65 1.4-2.9 1.45" fill="#b59668" fill-rule="evenodd" transform="translate(13 -3.1)"/><path d="m20.85 3.2.15.5-1.75 6.3-.1.15Q14.4 15.55 4.4 18.2h-.25q-12.15-3.95-15.4-7-1.1-.95-1.75-7.25l.2-.45.5-.1q2.7 1.05 6.5 4.05.5.4.95.75 5.1-1.65 8.65 1l.35-.2q3.9-2.2 8.4-.9 5.65-4.1 7.75-5l.55.1" fill="#4f0000" fill-rule="evenodd" transform="translate(13 -3.1)"/><path d="M4.25 17.2Q-7.85 13.35-11 10.05q-.55-.5-.85-2.9l-.2-2.35Q-8.55 6.1-5 9.25L.35 8.9q2.4.45 3.4 1.4L6.7 8.95l6.2.15 7.2-4.75-.95 4.55q-4.9 5.65-14.9 8.3" fill="#f9d478" fill-rule="evenodd" transform="translate(13 -3.1)"/><path d="M9.6 14.65q-3.5 1-5.25.9-6.95-.75-9.1-3.6Q-2.4 10.8.6 11.5q2.4.6 3.55 1.65 4.55-3.4 10.05-1.6l5-3.05-.85 1.1q-1.3 1.4-3.85 3.05-1.4.95-4.9 2" fill="#d8a364" fill-rule="evenodd" transform="translate(13 -3.1)"/></g></defs></svg>