<?xml version="1.0" encoding="UTF-8" standalone="no"?>
<svg xmlns:xlink="http://www.w3.org/1999/xlink" height="82.0px" width="84.85px" xmlns="http://www.w3.org/2000/svg">
  <g transform="matrix(1.0, 0.0, 0.0, 1.0, 37.4, 42.25)">
    <use height="38.0" transform="matrix(1.0, 0.0, 0.0, 1.0, -11.95, -17.45)" width="32.05" xlink:href="#sprite0"/>
    <use height="38.95" transform="matrix(1.0, 0.0, 0.0, 1.0, -12.45, -17.95)" width="33.05" xlink:href="#sprite1"/>
    <use height="26.85" transform="matrix(1.0, 0.0, 0.0, 1.0, -13.0, 3.1)" width="35.05" xlink:href="#shape2"/>
  </g>
  <defs>
    <g id="sprite0" transform="matrix(1.0, 0.0, 0.0, 1.0, -0.05, 0.0)">
      <use height="38.0" transform="matrix(1.0, 0.0, 0.0, 1.0, 0.05, 0.0)" width="32.05" xlink:href="#shape0"/>
    </g>
    <g id="shape0" transform="matrix(1.0, 0.0, 0.0, 1.0, -0.05, 0.0)">
      <path d="M27.35 7.4 Q29.5 11.55 30.9 16.15 32.35 20.85 32.05 25.65 31.7 30.6 27.85 33.75 24.05 36.95 19.1 37.8 L16.5 38.0 Q12.9 38.0 9.45 36.85 4.8 35.25 2.35 31.35 -0.2 27.4 0.05 23.0 0.25 18.6 2.05 13.7 3.85 8.75 7.0 5.05 10.1 1.3 14.7 0.1 L16.5 0.0 Q18.4 0.05 20.2 0.8 24.95 2.85 27.35 7.4" fill="#c5753d" fill-rule="evenodd" stroke="none"/>
    </g>
    <g id="sprite1" transform="matrix(1.0, 0.0, 0.0, 1.0, 0.45, 0.5)">
      <use height="38.95" transform="matrix(1.0, 0.0, 0.0, 1.0, -0.45, -0.5)" width="33.05" xlink:href="#shape1"/>
    </g>
    <g id="shape1" transform="matrix(1.0, 0.0, 0.0, 1.0, 0.45, 0.5)">
      <path d="M27.35 7.4 Q24.95 2.85 20.2 0.8 17.55 -0.3 14.7 0.1 10.1 1.3 7.0 5.05 3.85 8.75 2.05 13.7 0.25 18.6 0.05 23.0 -0.2 27.4 2.35 31.35 4.8 35.25 9.45 36.85 14.1 38.4 19.1 37.8 24.05 36.95 27.85 33.75 31.7 30.6 32.05 25.65 32.35 20.85 30.9 16.15 29.5 11.55 27.35 7.4 Z" fill="none" stroke="#402c1e" stroke-linecap="round" stroke-linejoin="round" stroke-width="1.0"/>
    </g>
    <g id="shape2" transform="matrix(1.0, 0.0, 0.0, 1.0, 13.0, -3.1)">
      <path d="M-11.85 5.55 L-11.55 5.45" fill="none" stroke="#333333" stroke-linecap="round" stroke-linejoin="round" stroke-width="0.9500000000000001"/>
      <path d="M-9.3 11.4 L-9.3 12.55 -9.55 13.75" fill="none" stroke="#333333" stroke-linecap="round" stroke-linejoin="round" stroke-width="0.9500000000000001"/>
      <path d="M20.9 17.15 Q21.15 17.15 21.25 17.4 L22.0 19.1 Q22.1 19.45 21.85 19.6 L19.3 21.25 Q19.1 21.45 18.9 21.25 L18.5 21.0 18.25 21.55 18.1 21.75 14.5 23.8 14.15 23.75 13.75 23.55 13.65 24.05 13.45 24.35 10.05 26.3 9.75 26.3 9.35 26.15 9.35 26.5 9.2 26.8 5.0 29.95 Q4.65 30.05 -0.45 27.05 L-0.65 26.8 -0.8 26.15 -1.3 26.5 -1.7 26.55 -5.5 24.3 -5.7 24.1 -5.9 23.4 -6.3 23.6 -6.65 23.6 -8.35 22.6 -8.9 21.7 -9.25 21.9 -9.55 21.9 -12.7 20.25 Q-13.0 20.05 -12.9 19.8 -12.35 18.0 -12.0 17.9 L20.9 17.15" fill="#4f0000" fill-rule="evenodd" stroke="none"/>
      <path d="M20.8 17.9 L21.45 19.3 19.15 20.75 18.2 20.3 17.75 21.3 14.4 23.2 13.45 22.8 13.2 23.75 9.85 25.65 9.0 25.35 8.8 26.1 4.9 28.9 0.05 26.5 -0.45 25.2 -1.45 25.65 -5.1 23.9 -5.5 22.55 -6.4 22.95 -7.85 22.2 -8.55 21.05 -9.35 21.25 -12.0 19.9 -11.45 18.35 20.8 17.9" fill="#ffe7b3" fill-rule="evenodd" stroke="none"/>
      <path d="M7.55 18.1 Q8.5 20.0 9.05 25.35 L9.0 25.35 8.8 26.1 5.0 28.85 Q4.5 26.95 4.5 23.5 4.5 20.0 4.05 18.15 L7.55 18.1" fill="#b59668" fill-rule="evenodd" stroke="none"/>
      <path d="M-8.6 21.05 L-9.35 21.25 -10.35 20.7 Q-9.75 19.45 -9.6 18.35 L-8.75 18.3 -8.6 21.05" fill="#b59668" fill-rule="evenodd" stroke="none"/>
      <path d="M-5.55 18.25 L-4.25 18.25 Q-4.35 19.55 -5.85 22.7 L-6.4 22.95 -7.35 22.45 Q-5.9 20.85 -5.55 18.25" fill="#b59668" fill-rule="evenodd" stroke="none"/>
      <path d="M0.65 18.2 Q1.1 19.6 0.55 21.8 L-0.4 25.3 -0.45 25.2 -1.45 25.65 -2.9 24.95 Q-1.95 20.3 -1.0 18.2 L0.65 18.2" fill="#b59668" fill-rule="evenodd" stroke="none"/>
      <path d="M20.8 17.9 L21.45 19.3 19.15 20.75 18.2 20.3 17.75 21.3 14.4 23.2 13.45 22.8 13.2 23.75 12.4 24.2 Q12.05 20.65 10.6 18.05 L20.8 17.9" fill="#b59668" fill-rule="evenodd" stroke="none"/>
      <path d="M21.4 17.9 L21.4 18.25 18.7 19.85 Q8.3 24.9 5.15 27.85 L4.8 28.0 4.45 27.85 Q2.35 25.55 -12.05 19.3 -12.45 19.15 -12.35 18.75 L-11.9 16.2 Q-11.0 11.5 -11.05 11.15 L-10.8 10.65 Q-10.55 10.5 -10.3 10.65 -9.15 11.4 -3.5 12.95 L3.7 14.7 Q5.05 14.9 11.1 12.2 16.75 9.6 17.45 8.9 L18.1 8.85 Q18.9 9.35 21.1 16.8 L21.4 17.9" fill="#4f0000" fill-rule="evenodd" stroke="none"/>
      <path d="M3.8 15.7 Q5.3 15.9 11.45 13.1 17.2 10.5 17.85 9.75 18.65 10.25 20.35 17.85 20.45 18.0 14.25 20.95 7.4 24.45 4.85 26.85 3.3 25.4 -4.15 21.8 L-11.3 18.5 -10.25 11.8 Q-9.1 12.5 -3.45 14.05 L3.8 15.7" fill="#f9d478" fill-rule="evenodd" stroke="none"/>
      <path d="M10.55 19.25 Q8.2 21.15 5.25 21.45 1.0 20.1 -4.55 17.75 -9.85 15.5 -10.65 14.8 L-10.25 11.8 Q-9.1 12.5 -3.45 14.05 L3.8 15.7 Q5.3 15.9 11.45 13.1 17.2 10.5 17.85 9.75 18.65 10.25 20.35 17.85 20.45 18.0 14.25 20.95 7.4 24.45 4.85 26.85 4.35 26.45 6.7 24.25 5.15 24.25 3.35 23.25 8.55 22.5 10.55 19.25" fill="#d8a364" fill-rule="evenodd" stroke="none"/>
      <path d="M10.1 18.2 L9.9 18.45 5.2 20.15 4.95 20.15 -0.15 18.55 -0.4 18.25 -0.45 18.1 -0.8 18.45 -1.25 18.55 -5.7 16.6 -5.9 16.25 -5.9 15.8 -6.6 16.1 -6.9 16.1 -10.75 14.4 -10.95 14.05 -10.95 14.0 -10.45 11.55 -5.75 11.1 17.95 10.3 Q18.35 10.3 19.7 13.05 19.85 13.35 19.6 13.5 17.2 15.65 15.85 15.95 L15.5 15.85 15.25 15.5 14.95 16.15 14.8 16.3 Q11.6 18.0 11.05 18.05 L10.75 18.0 10.3 17.6 10.1 18.2" fill="#4f0000" fill-rule="evenodd" stroke="none"/>
      <path d="M0.3 17.9 L-0.2 17.05 -1.15 17.75 -5.25 15.9 -5.4 14.9 -6.75 15.35 -10.5 13.65 -10.1 11.6 17.95 10.7 19.1 13.0 Q17.05 14.8 15.75 15.1 L15.0 14.3 14.35 15.7 11.1 17.25 9.95 16.75 9.45 17.8 5.05 19.4 0.3 17.9" fill="#ffe7b3" fill-rule="evenodd" stroke="none"/>
      <path d="M-6.7 11.5 L-4.25 11.4 Q-4.2 13.0 -5.4 14.95 L-6.75 15.35 Q-7.6 15.0 -8.45 14.6 -7.0 12.45 -6.7 11.5" fill="#b59668" fill-rule="evenodd" stroke="none"/>
      <path d="M0.2 11.25 L0.35 14.35 Q0.4 16.05 -0.2 17.05 L-1.15 17.75 -3.45 16.7 Q-2.6 16.0 -2.1 14.2 L-1.2 11.3 0.2 11.25" fill="#b59668" fill-rule="evenodd" stroke="none"/>
      <path d="M4.7 11.15 L8.15 11.0 Q9.95 15.55 9.95 16.8 L9.45 17.8 5.1 19.35 Q6.1 17.55 5.7 15.25 L4.7 11.15" fill="#b59668" fill-rule="evenodd" stroke="none"/>
      <path d="M11.45 17.15 Q12.0 13.35 9.85 10.95 L17.95 10.7 19.1 13.0 Q17.05 14.8 15.75 15.1 L15.0 14.3 14.35 15.7 11.45 17.15" fill="#b59668" fill-rule="evenodd" stroke="none"/>
      <path d="M20.85 3.2 L21.0 3.7 19.25 10.0 19.15 10.15 Q14.4 15.55 4.4 18.2 L4.15 18.2 Q-8.0 14.25 -11.25 11.2 -12.35 10.25 -13.0 3.95 L-12.8 3.5 -12.3 3.4 Q-9.6 4.45 -5.8 7.45 -5.3 7.85 -4.85 8.2 0.25 6.55 3.8 9.2 L4.15 9.0 Q8.05 6.8 12.55 8.1 18.2 4.0 20.3 3.1 L20.85 3.2" fill="#4f0000" fill-rule="evenodd" stroke="none"/>
      <path d="M4.25 17.2 Q-7.85 13.35 -11.0 10.05 -11.55 9.55 -11.85 7.15 L-12.05 4.8 Q-8.55 6.1 -5.0 9.25 L0.35 8.9 Q2.75 9.35 3.75 10.3 L6.7 8.95 12.9 9.1 20.1 4.35 19.15 8.9 Q14.25 14.55 4.25 17.2" fill="#f9d478" fill-rule="evenodd" stroke="none"/>
      <path d="M9.6 14.65 Q6.1 15.65 4.35 15.55 -2.6 14.8 -4.75 11.95 -2.4 10.8 0.6 11.5 3.0 12.1 4.15 13.15 8.7 9.75 14.2 11.55 L19.2 8.5 18.35 9.6 Q17.05 11.0 14.5 12.65 13.1 13.6 9.6 14.65" fill="#d8a364" fill-rule="evenodd" stroke="none"/>
    </g>
  </defs>
</svg>
