<?xml version="1.0" encoding="UTF-8" standalone="no"?>
<svg xmlns:xlink="http://www.w3.org/1999/xlink" height="82.0px" width="84.85px" xmlns="http://www.w3.org/2000/svg">
  <g transform="matrix(1.0, 0.0, 0.0, 1.0, 37.4, 42.25)">
    <use height="16.95" transform="matrix(1.0, 0.0, 0.0, 1.0, -29.1, 1.0)" width="66.7" xlink:href="#shape0"/>
    <use height="38.0" transform="matrix(1.0, 0.0, 0.0, 1.0, -11.95, -17.45)" width="32.05" xlink:href="#sprite0"/>
    <use height="38.95" transform="matrix(1.0, 0.0, 0.0, 1.0, -12.45, -17.95)" width="33.05" xlink:href="#sprite1"/>
    <use height="20.6" transform="matrix(1.0, 0.0, 0.0, 1.0, -14.25, 2.2)" width="36.2" xlink:href="#shape3"/>
  </g>
  <defs>
    <g id="shape0" transform="matrix(1.0, 0.0, 0.0, 1.0, 29.1, -1.0)">
      <path d="M-10.15 1.0 Q-6.15 5.95 -1.7 14.6 -4.2 14.3 -11.9 14.85 L-19.1 15.45 Q-18.6 17.9 -20.1 17.35 -22.9 16.65 -26.3 12.2 L-29.1 7.9 Q-28.8 5.15 -26.3 4.8 L-23.85 5.0 -10.15 1.0" fill="#000000" fill-rule="evenodd" stroke="none"/>
      <path d="M-7.1 6.45 L-22.8 10.0 -24.1 5.85 -10.25 1.5 -7.1 6.45" fill="#fdffff" fill-rule="evenodd" stroke="none"/>
      <path d="M-20.6 9.65 L-22.6 8.35 -23.7 5.7 -23.25 5.5 -17.8 9.6 -20.6 9.65" fill="#fd4a38" fill-rule="evenodd" stroke="none"/>
      <path d="M-21.8 5.1 L-19.25 4.35 -13.7 8.45 -16.45 9.1 -21.8 5.1" fill="#fd4a38" fill-rule="evenodd" stroke="none"/>
      <path d="M-17.9 3.85 L-15.4 3.1 Q-12.65 5.2 -9.95 7.25 L-12.6 7.85 -17.9 3.85" fill="#fd4a38" fill-rule="evenodd" stroke="none"/>
      <path d="M-8.85 3.7 L-7.2 6.25 -8.45 6.6 -13.8 2.6 -11.3 1.85 -8.85 3.7" fill="#fd4a38" fill-rule="evenodd" stroke="none"/>
      <path d="M-22.4 9.5 L-7.2 6.15 -2.8 14.0 -10.8 14.35 -21.1 15.35 -23.05 9.7 -22.4 9.5" fill="#3494ff" fill-rule="evenodd" stroke="none"/>
      <path d="M-23.7 5.75 L-19.85 15.3 Q-19.1 18.3 -21.75 15.95 L-26.05 11.2 Q-28.5 8.15 -28.55 7.7 -28.3 6.8 -27.55 6.15 -26.1 4.75 -23.7 5.75" fill="#0a72d2" fill-rule="evenodd" stroke="none"/>
      <path d="M-27.45 8.6 L-22.8 12.85 Q-21.95 13.6 -22.45 12.35 L-23.65 6.7 -20.7 14.95 Q-19.3 17.55 -21.2 16.05 L-27.45 8.6" fill="#371f9b" fill-rule="evenodd" stroke="none"/>
      <path d="M-24.0 13.0 Q-22.45 14.0 -21.8 14.0 -21.3 14.0 -21.3 13.4 L-20.6 15.2 Q-20.4 15.9 -20.85 15.9 L-21.9 15.4 -24.0 13.0" fill="#251569" fill-rule="evenodd" stroke="none"/>
      <path d="M-24.1 5.85 Q-25.8 5.7 -26.2 7.3 L-26.3 8.95 -28.05 7.45 Q-27.65 5.75 -25.85 5.6 L-24.1 5.85" fill="#ffffff" fill-rule="evenodd" stroke="none"/>
      <path d="M-7.95 6.75 Q-4.4 12.25 -4.1 13.35 L-17.6 14.1 Q-16.95 10.85 -20.6 10.85 -17.1 10.1 -16.45 9.1 L-16.1 8.35 -7.95 6.75" fill="#173a87" fill-rule="evenodd" stroke="none"/>
      <path d="M-14.05 3.05 L-13.4 2.85 -12.55 3.5 -13.25 3.15 -13.2 3.6 -14.05 3.05 M-15.1 3.35 L-14.2 3.05 -14.1 4.1 -15.1 3.35 M-15.6 7.05 L-15.2 5.85 -13.75 6.95 -15.25 7.3 -15.6 7.05" fill="#aeadaa" fill-rule="evenodd" stroke="none"/>
      <path d="M-15.75 7.4 L-15.6 7.05 -15.25 7.3 -15.75 7.4" fill="#ae3729" fill-rule="evenodd" stroke="none"/>
      <path d="M-13.75 6.95 L-15.2 5.85 Q-15.0 4.25 -16.95 3.95 L-15.1 3.35 -14.1 4.1 -13.6 6.95 -13.75 6.95" fill="#ae3729" fill-rule="evenodd" stroke="none"/>
      <path d="M18.7 1.5 L32.35 5.5 34.85 5.3 Q37.35 5.65 37.6 8.4 33.1 16.7 28.6 17.85 27.1 18.4 27.6 15.95 L10.25 15.1 Q14.7 6.45 18.7 1.5" fill="#000000" fill-rule="evenodd" stroke="none"/>
      <path d="M15.6 6.95 L18.8 2.0 32.6 6.35 31.3 10.5 15.6 6.95" fill="#fdffff" fill-rule="evenodd" stroke="none"/>
      <path d="M29.15 10.15 L26.35 10.1 31.75 6.0 32.2 6.2 31.15 8.85 29.15 10.15" fill="#fd4a38" fill-rule="evenodd" stroke="none"/>
      <path d="M30.3 5.6 L25.0 9.6 22.25 8.95 27.8 4.85 30.3 5.6" fill="#fd4a38" fill-rule="evenodd" stroke="none"/>
      <path d="M26.45 4.35 L21.1 8.35 18.5 7.75 23.95 3.6 26.45 4.35" fill="#fd4a38" fill-rule="evenodd" stroke="none"/>
      <path d="M17.4 4.15 L19.8 2.35 22.3 3.1 17.0 7.1 15.7 6.75 17.4 4.15" fill="#fd4a38" fill-rule="evenodd" stroke="none"/>
      <path d="M30.95 10.0 L31.55 10.2 29.6 15.85 19.35 14.85 11.3 14.5 15.75 6.65 30.95 10.0" fill="#3494ff" fill-rule="evenodd" stroke="none"/>
      <path d="M32.2 6.25 Q36.1 4.65 37.1 8.2 37.05 8.65 34.55 11.7 L30.25 16.45 Q27.65 18.8 28.4 15.8 L32.2 6.25" fill="#0a72d2" fill-rule="evenodd" stroke="none"/>
      <path d="M32.2 6.25 Q29.3 14.5 28.4 15.8 L28.1 15.85 Q32.0 7.2 32.05 5.9 L32.2 6.25" fill="#000000" fill-rule="evenodd" stroke="none"/>
      <path d="M36.35 8.75 Q30.95 15.65 29.75 16.55 27.8 18.05 29.25 15.45 L32.15 7.2 Q31.65 11.8 31.0 12.85 30.5 14.1 31.3 13.4 L36.35 8.75" fill="#371f9b" fill-rule="evenodd" stroke="none"/>
      <path d="M30.4 15.85 Q29.7 16.4 29.4 16.4 29.0 16.4 29.1 15.7 L29.25 15.45 29.8 13.9 Q29.8 14.5 30.35 14.5 30.95 14.5 32.5 13.5 L30.4 15.85" fill="#251569" fill-rule="evenodd" stroke="none"/>
      <path d="M32.6 6.35 L34.4 6.1 Q36.25 6.25 36.6 7.95 L34.85 9.45 Q35.35 6.1 32.6 6.35" fill="#ffffff" fill-rule="evenodd" stroke="none"/>
      <path d="M16.45 7.25 L24.65 8.85 25.0 9.6 Q25.6 10.6 29.1 11.35 26.85 11.35 26.25 13.0 25.95 13.8 26.1 14.6 L12.6 13.85 Q12.85 13.0 16.45 7.25" fill="#173a87" fill-rule="evenodd" stroke="none"/>
      <path d="M23.8 7.8 L22.25 7.45 23.75 6.35 24.1 7.55 23.8 7.8 M21.8 5.2 L21.85 3.45 21.95 3.35 23.6 3.85 21.8 5.2" fill="#aeadaa" fill-rule="evenodd" stroke="none"/>
      <path d="M24.3 7.9 L23.8 7.8 24.1 7.55 24.3 7.9" fill="#ae3729" fill-rule="evenodd" stroke="none"/>
      <path d="M22.25 7.45 L21.65 7.35 21.8 5.2 23.6 3.85 25.5 4.45 Q23.45 4.8 23.75 6.35 L22.25 7.45" fill="#ae3729" fill-rule="evenodd" stroke="none"/>
    </g>
    <g id="sprite0" transform="matrix(1.0, 0.0, 0.0, 1.0, -0.05, 0.0)">
      <use height="38.0" transform="matrix(1.0, 0.0, 0.0, 1.0, 0.05, 0.0)" width="32.05" xlink:href="#shape1"/>
    </g>
    <g id="shape1" transform="matrix(1.0, 0.0, 0.0, 1.0, -0.05, 0.0)">
      <path d="M27.35 7.4 Q29.5 11.55 30.9 16.15 32.35 20.85 32.05 25.65 31.7 30.6 27.85 33.75 24.05 36.95 19.1 37.8 L16.5 38.0 Q12.9 38.0 9.45 36.85 4.8 35.25 2.35 31.35 -0.2 27.4 0.05 23.0 0.25 18.6 2.05 13.7 3.85 8.75 7.0 5.05 10.1 1.3 14.7 0.1 L16.5 0.0 Q18.4 0.05 20.2 0.8 24.95 2.85 27.35 7.4" fill="#fcf6f6" fill-rule="evenodd" stroke="none"/>
    </g>
    <g id="sprite1" transform="matrix(1.0, 0.0, 0.0, 1.0, 0.45, 0.5)">
      <use height="38.95" transform="matrix(1.0, 0.0, 0.0, 1.0, -0.45, -0.5)" width="33.05" xlink:href="#shape2"/>
    </g>
    <g id="shape2" transform="matrix(1.0, 0.0, 0.0, 1.0, 0.45, 0.5)">
      <path d="M27.35 7.4 Q24.95 2.85 20.2 0.8 17.55 -0.3 14.7 0.1 10.1 1.3 7.0 5.05 3.85 8.75 2.05 13.7 0.25 18.6 0.05 23.0 -0.2 27.4 2.35 31.35 4.8 35.25 9.45 36.85 14.1 38.4 19.1 37.8 24.05 36.95 27.85 33.75 31.7 30.6 32.05 25.65 32.35 20.85 30.9 16.15 29.5 11.55 27.35 7.4 Z" fill="none" stroke="#000000" stroke-linecap="round" stroke-linejoin="round" stroke-width="1.0"/>
    </g>
    <g id="shape3" transform="matrix(1.0, 0.0, 0.0, 1.0, 14.25, -2.2)">
      <path d="M-12.55 3.5 L-13.4 2.85 -12.4 2.65 -12.55 3.5" fill="#ae3729" fill-rule="evenodd" stroke="none"/>
      <path d="M20.45 3.25 L20.4 3.05 21.6 3.3 21.0 3.65 20.95 3.3 20.45 3.6 20.45 3.25" fill="#ae3729" fill-rule="evenodd" stroke="none"/>
      <path d="M-14.2 2.6 L-12.15 2.25 -12.4 3.3 -14.2 2.6" fill="#680710" fill-rule="evenodd" stroke="none"/>
      <path d="M21.8 2.85 L21.65 3.25 20.25 3.3 20.15 2.2 21.8 2.85" fill="#680710" fill-rule="evenodd" stroke="none"/>
      <path d="M10.2 7.7 Q17.1 6.2 21.85 3.15 22.05 10.8 18.6 15.7 16.85 18.2 15.1 19.1 11.85 19.25 9.05 20.7 L6.9 22.1 Q3.65 23.55 2.05 21.9 -0.15 20.6 -3.15 20.1 L-5.7 19.85 Q-10.45 17.5 -12.8 9.95 L-14.2 2.9 Q-3.6 10.7 10.2 7.7" fill="#0a0a0a" fill-rule="evenodd" stroke="none"/>
      <path d="M11.55 7.35 Q-1.3 9.4 -14.25 3.75 L-14.2 2.6 -8.6 4.45 Q-2.7 6.3 -1.15 6.35 L2.1 5.65 Q6.1 5.2 9.65 6.55 L21.8 2.85 21.85 4.2 Q18.0 6.35 11.55 7.35" fill="#03257c" fill-rule="evenodd" stroke="none"/>
      <path d="M3.55 21.9 L2.35 21.5 Q0.9 20.2 -2.4 19.6 L-5.4 19.25 Q-10.2 16.85 -12.2 9.75 L-13.25 3.15 Q-1.55 9.85 10.9 7.25 17.1 5.95 20.95 3.3 21.35 9.85 18.2 14.85 16.6 17.35 14.95 18.5 10.65 18.95 8.1 20.35 6.85 21.0 6.45 21.6 L3.55 21.9" fill="#f8f8fc" fill-rule="evenodd" stroke="none"/>
      <path d="M10.6 19.25 Q6.75 20.5 1.7 20.2 L-2.6 19.6 10.6 19.25" fill="#274401" fill-rule="evenodd" stroke="none"/>
      <path d="M14.95 18.5 Q7.2 20.85 -5.4 19.25 L-7.0 18.3 1.5 18.7 Q11.0 18.85 16.05 17.65 L14.95 18.5" fill="#77d120" fill-rule="evenodd" stroke="none"/>
      <path d="M5.35 19.7 L-5.4 19.25 -7.0 18.3 -2.5 18.8 Q2.4 19.25 4.45 18.95 L5.35 19.7" fill="#5c9e15" fill-rule="evenodd" stroke="none"/>
      <path d="M-2.5 18.85 L0.1 19.6 -5.2 19.2 -6.85 18.3 -2.5 18.85" fill="#3b6308" fill-rule="evenodd" stroke="none"/>
      <path d="M15.25 18.0 L14.8 18.4 Q11.45 19.35 9.65 19.2 L15.25 18.0" fill="#ffffff" fill-rule="evenodd" stroke="none"/>
      <path d="M4.45 18.95 L4.95 18.95 6.15 19.65 5.35 19.7 4.45 18.95" fill="#ffffff" fill-rule="evenodd" stroke="none"/>
      <path d="M17.0 16.55 L15.95 17.6 Q7.6 20.0 -7.0 18.3 L-8.6 17.0 -1.55 16.35 Q7.1 15.85 17.0 16.55" fill="#48505f" fill-rule="evenodd" stroke="none"/>
      <path d="M6.45 16.35 Q4.1 17.55 7.3 18.0 L11.0 18.25 Q7.45 18.85 -0.05 18.5 L-6.8 18.0 -8.15 17.0 6.45 16.35" fill="#262f3d" fill-rule="evenodd" stroke="none"/>
      <path d="M-8.0 17.0 L-2.65 16.55 Q-3.75 17.0 -1.3 17.9 L1.4 18.7 -6.8 18.0 -8.0 17.0" fill="#111926" fill-rule="evenodd" stroke="none"/>
      <path d="M13.15 17.95 L12.55 17.25 Q12.15 16.5 13.25 16.45 L16.7 16.6 15.95 17.55 13.15 17.95" fill="#262f3d" fill-rule="evenodd" stroke="none"/>
      <path d="M13.25 16.45 L12.6 16.75 Q12.1 17.15 13.15 17.95 L12.25 18.25 11.45 17.4 Q10.9 16.45 12.0 16.25 L13.25 16.45" fill="#b2b8c1" fill-rule="evenodd" stroke="none"/>
      <path d="M17.15 16.4 L16.95 16.55 Q7.2 16.1 -1.55 16.5 L-8.4 16.95 -8.65 16.75 Q1.2 15.15 17.15 16.4" fill="#111926" fill-rule="evenodd" stroke="none"/>
      <path d="M15.75 17.75 Q7.45 20.05 -6.6 18.35 L-7.0 18.3 -6.75 18.3 -6.6 18.35 0.35 18.65 16.05 17.5 15.75 17.75" fill="#111926" fill-rule="evenodd" stroke="none"/>
      <path d="M-8.4 17.1 Q-5.2 15.8 -4.5 14.55 -4.85 17.35 -8.05 17.35 L-8.4 17.1" fill="#4c0805" fill-rule="evenodd" stroke="none"/>
      <path d="M-9.65 15.4 Q-7.15 14.55 -6.65 13.6 -7.55 15.65 -9.4 15.8 L-9.65 15.4" fill="#4c0805" fill-rule="evenodd" stroke="none"/>
      <path d="M-5.75 11.6 L-3.8 11.6 Q-4.15 17.2 -8.3 17.1 L-9.55 15.65 Q-6.65 15.5 -5.75 11.6" fill="#e1001a" fill-rule="evenodd" stroke="none"/>
      <path d="M-7.65 16.9 L-7.75 16.9 Q-8.45 16.65 -8.75 15.85 L-7.95 16.05 Q-6.95 16.05 -6.7 14.65 L-5.2 15.35 -5.15 15.35 Q-6.7 16.9 -7.65 16.9" fill="#9c0715" fill-rule="evenodd" stroke="none"/>
      <path d="M17.2 16.45 L16.85 16.75 Q14.85 16.7 13.85 15.35 L13.25 13.95 Q14.0 15.2 17.2 16.45" fill="#4c0805" fill-rule="evenodd" stroke="none"/>
      <path d="M18.45 14.8 L18.2 15.2 Q17.05 15.1 16.15 14.0 L15.65 13.2 Q16.3 14.0 18.45 14.8" fill="#4c0805" fill-rule="evenodd" stroke="none"/>
      <path d="M14.55 10.95 L15.35 12.9 Q16.5 14.9 18.3 15.0 L17.1 16.45 Q12.95 16.55 12.6 10.95 L14.55 10.95" fill="#e1001a" fill-rule="evenodd" stroke="none"/>
      <path d="M16.45 16.25 L13.95 14.7 14.0 14.7 Q14.65 14.7 15.5 14.0 15.75 15.4 16.75 15.4 L17.55 15.2 Q17.25 16.0 16.55 16.25 L16.45 16.25" fill="#9c0715" fill-rule="evenodd" stroke="none"/>
      <path d="M6.85 13.0 Q3.15 15.45 -1.2 15.7 -9.9 16.15 -13.3 5.2 L-13.55 4.25 -12.65 4.75 -11.6 6.8 Q-10.2 9.2 -8.45 10.85 -2.85 16.2 4.2 12.5 L6.85 13.0" fill="#173a87" fill-rule="evenodd" stroke="none"/>
      <path d="M4.2 12.5 Q8.05 14.55 11.4 13.8 L10.0 15.55 Q7.65 15.55 5.2 14.6 L3.25 13.6 4.2 12.5" fill="#173a87" fill-rule="evenodd" stroke="none"/>
      <path d="M21.0 4.75 L21.95 4.25 21.7 5.2 Q17.75 15.55 10.0 15.55 L11.4 13.8 Q17.85 12.55 21.0 4.75" fill="#03257c" fill-rule="evenodd" stroke="none"/>
      <path d="M5.25 13.45 L-12.55 4.2 -10.1 5.3 Q-6.95 6.5 -3.2 7.05 8.75 8.75 21.75 3.2 20.0 9.8 15.55 12.9 12.15 15.95 5.25 13.45" fill="#3494ff" fill-rule="evenodd" stroke="none"/>
      <path d="M10.9 7.35 Q16.15 6.75 19.3 5.3 L3.4 13.45 Q-0.9 15.0 -4.35 14.1 L-6.95 12.9 Q-9.7 10.95 -12.0 6.8 L-13.8 3.0 Q-0.8 8.6 10.9 7.35" fill="#3494ff" fill-rule="evenodd" stroke="none"/>
      <path d="M4.35 12.9 Q2.3 14.1 -0.45 14.35 -5.95 14.9 -9.55 10.1 -11.3 7.5 -11.15 5.2 -8.4 6.6 -5.7 7.95 0.5 10.05 4.2 6.75 L4.35 12.9" fill="#2280c6" fill-rule="evenodd" stroke="none"/>
      <path d="M6.35 11.25 Q16.1 12.1 19.0 8.2 17.85 10.6 15.45 12.35 10.65 15.9 4.45 12.6 L6.35 11.0 6.35 11.25" fill="#2280c6" fill-rule="evenodd" stroke="none"/>
      <path d="M9.85 13.75 Q13.95 12.45 15.35 10.85 16.25 9.85 16.75 8.45 L17.1 7.2 17.7 6.0 18.85 6.0 Q19.35 8.0 17.75 9.85 14.9 13.25 13.7 13.25 L9.85 13.75" fill="#2951aa" fill-rule="evenodd" stroke="none"/>
      <path d="M-2.2 9.1 Q-2.25 9.8 -0.4 10.9 L1.95 11.95 Q1.05 12.7 -2.15 13.55 L-3.95 13.7 -5.05 13.1 Q-2.35 11.95 -2.2 9.1" fill="#2951aa" fill-rule="evenodd" stroke="none"/>
      <path d="M9.5 6.7 Q10.1 8.1 9.95 10.4 L8.0 11.1 Q7.25 11.8 4.35 12.9 L0.8 11.05 -1.2 10.45 Q-1.65 9.95 -1.3 8.3 L-0.8 6.7 9.5 6.7" fill="#000000" fill-rule="evenodd" stroke="none"/>
      <path d="M4.9 10.05 Q9.25 9.6 8.5 10.35 7.25 11.5 4.4 12.65 L0.4 10.6 4.9 10.05" fill="#77d120" fill-rule="evenodd" stroke="none"/>
      <path d="M6.6 6.15 L4.45 11.2 -1.05 10.25 -0.65 7.0 Q0.7 5.35 6.6 6.15" fill="#77d120" fill-rule="evenodd" stroke="none"/>
      <path d="M4.2 11.2 L2.05 6.15 Q8.05 5.3 9.3 7.0 L9.7 10.25 Q7.3 11.2 4.2 11.2" fill="#77d120" fill-rule="evenodd" stroke="none"/>
      <path d="M7.1 6.3 Q3.45 7.0 5.2 8.95 6.1 9.9 7.7 10.7 L4.35 12.3 1.05 10.65 -0.85 10.2 Q-1.2 10.0 -0.9 8.5 L-0.5 7.0 Q2.85 5.45 7.1 6.3" fill="#5c9e15" fill-rule="evenodd" stroke="none"/>
      <path d="M3.75 6.95 Q1.8 7.5 2.85 9.7 L4.35 11.8 Q4.8 12.1 6.85 11.2 6.35 11.65 4.35 12.3 L1.05 10.65 -0.75 10.0 -0.35 6.95 Q4.1 5.2 8.8 6.95 L9.3 7.95 Q8.6 7.35 6.1 7.1 L3.75 6.95" fill="#42700f" fill-rule="evenodd" stroke="none"/>
      <path d="M9.45 8.3 Q9.9 10.1 9.1 10.3 L8.1 10.6 Q9.7 9.95 9.45 8.3" fill="#ffffff" fill-rule="evenodd" stroke="none"/>
      <path d="M-3.45 10.6 Q-3.45 12.45 -5.5 12.45 -7.6 12.45 -7.6 10.6 -7.6 8.7 -5.5 8.7 -3.45 8.7 -3.45 10.6" fill="#4c0805" fill-rule="evenodd" stroke="none"/>
      <path d="M-3.4 10.4 Q-3.4 12.1 -5.35 12.1 -7.35 12.1 -7.35 10.4 -7.35 8.7 -5.35 8.7 -3.4 8.7 -3.4 10.4" fill="#ff4735" fill-rule="evenodd" stroke="none"/>
      <path d="M-6.1 10.55 Q-7.05 11.1 -5.7 9.8 -5.75 9.2 -6.7 9.55 L-6.6 9.45 -4.2 9.35 Q-2.75 11.35 -4.75 11.85 L-5.95 11.65 Q-5.2 11.6 -4.85 11.2 L-5.25 10.75 Q-5.7 10.35 -6.1 10.55" fill="#cc251d" fill-rule="evenodd" stroke="none"/>
      <path d="M18.1 5.2 Q20.45 4.35 21.1 3.75 19.45 9.7 16.45 11.85 L18.75 8.35 19.1 5.85 18.25 5.7 Q17.25 5.75 16.45 6.7 16.4 6.4 16.6 6.05 16.95 5.35 18.1 5.2" fill="#f4eadc" fill-rule="evenodd" stroke="none"/>
      <path d="M-11.55 4.25 Q-12.0 5.45 -10.3 8.75 -11.05 8.2 -12.15 5.8 L-13.15 3.5 Q-12.65 4.1 -11.55 4.25" fill="#f4eadc" fill-rule="evenodd" stroke="none"/>
      <path d="M20.35 3.55 L20.2 2.7 21.65 3.25 Q20.75 4.05 20.35 3.55" fill="#3494ff" fill-rule="evenodd" stroke="none"/>
      <path d="M-13.95 2.9 L-12.3 2.6 -12.5 3.6 -13.95 2.9" fill="#3494ff" fill-rule="evenodd" stroke="none"/>
      <path d="M2.35 21.5 L1.05 20.35 6.45 20.55 Q5.9 20.65 5.95 21.0 L6.2 21.4 2.35 21.5" fill="#cbcbd3" fill-rule="evenodd" stroke="none"/>
      <path d="M6.95 15.75 L2.3 15.4 Q4.3 15.0 4.45 14.65 L6.95 15.75" fill="#cbcbd3" fill-rule="evenodd" stroke="none"/>
    </g>
  </defs>
</svg>
