<?xml version="1.0" encoding="UTF-8" standalone="no"?>
<svg xmlns:xlink="http://www.w3.org/1999/xlink" height="82.0px" width="84.85px" xmlns="http://www.w3.org/2000/svg">
  <g transform="matrix(1.0, 0.0, 0.0, 1.0, 37.4, 42.25)">
    <use height="38.0" transform="matrix(1.0, 0.0, 0.0, 1.0, -11.95, -17.45)" width="32.05" xlink:href="#sprite0"/>
    <use height="38.95" transform="matrix(1.0, 0.0, 0.0, 1.0, -12.45, -17.95)" width="33.05" xlink:href="#sprite1"/>
    <use height="20.75" transform="matrix(1.0, 0.0, 0.0, 1.0, -13.55, 3.1)" width="35.4" xlink:href="#shape2"/>
  </g>
  <defs>
    <g id="sprite0" transform="matrix(1.0, 0.0, 0.0, 1.0, -0.05, 0.0)">
      <use height="38.0" transform="matrix(1.0, 0.0, 0.0, 1.0, 0.05, 0.0)" width="32.05" xlink:href="#shape0"/>
    </g>
    <g id="shape0" transform="matrix(1.0, 0.0, 0.0, 1.0, -0.05, 0.0)">
      <path d="M27.35 7.4 Q29.5 11.55 30.9 16.15 32.35 20.85 32.05 25.65 31.7 30.6 27.85 33.75 24.05 36.95 19.1 37.8 L16.5 38.0 Q12.9 38.0 9.45 36.85 4.8 35.25 2.35 31.35 -0.2 27.4 0.05 23.0 0.25 18.6 2.05 13.7 3.85 8.75 7.0 5.05 10.1 1.3 14.7 0.1 L16.5 0.0 Q18.4 0.05 20.2 0.8 24.95 2.85 27.35 7.4" fill="#f9eded" fill-rule="evenodd" stroke="none"/>
    </g>
    <g id="sprite1" transform="matrix(1.0, 0.0, 0.0, 1.0, 0.45, 0.5)">
      <use height="38.95" transform="matrix(1.0, 0.0, 0.0, 1.0, -0.45, -0.5)" width="33.05" xlink:href="#shape1"/>
    </g>
    <g id="shape1" transform="matrix(1.0, 0.0, 0.0, 1.0, 0.45, 0.5)">
      <path d="M27.35 7.4 Q24.95 2.85 20.2 0.8 17.55 -0.3 14.7 0.1 10.1 1.3 7.0 5.05 3.85 8.75 2.05 13.7 0.25 18.6 0.05 23.0 -0.2 27.4 2.35 31.35 4.8 35.25 9.45 36.85 14.1 38.4 19.1 37.8 24.05 36.95 27.85 33.75 31.7 30.6 32.05 25.65 32.35 20.85 30.9 16.15 29.5 11.55 27.35 7.4 Z" fill="none" stroke="#000000" stroke-linecap="round" stroke-linejoin="round" stroke-width="1.0"/>
    </g>
    <g id="shape2" transform="matrix(1.0, 0.0, 0.0, 1.0, 13.55, -3.1)">
      <path d="M21.25 6.05 Q20.15 7.7 17.7 5.2 18.0 5.4 19.65 3.1 L21.05 3.4 Q22.5 4.15 21.25 6.05" fill="#380f38" fill-rule="evenodd" stroke="none"/>
      <path d="M-11.7 4.95 L-7.35 7.45 -4.8 13.7 -7.55 15.1 -11.2 14.6 -11.55 13.85 -11.95 10.95 -12.35 7.3 -12.5 5.25 -11.7 4.95" fill="#380f38" fill-rule="evenodd" stroke="none"/>
      <path d="M-11.05 3.7 L-11.0 5.35 -12.3 6.15 -13.5 5.25 Q-13.65 4.05 -12.95 3.45 L-12.25 3.1 -11.05 3.7" fill="#380f38" fill-rule="evenodd" stroke="none"/>
      <path d="M20.95 5.1 Q21.6 5.05 20.95 9.85 20.8 11.4 19.1 13.95 L19.95 15.05 20.2 16.1 Q20.0 16.9 17.95 17.45 L18.7 18.3 Q19.9 19.35 17.35 19.95 L14.3 20.8 Q10.85 21.85 8.8 23.15 5.8 24.15 7.15 22.45 L6.15 22.6 Q3.4 24.95 2.15 22.85 L1.4 22.55 Q1.7 24.25 -0.3 23.35 -4.6 20.35 -9.3 20.0 -12.2 19.6 -10.3 18.4 L-10.75 17.95 Q-13.6 17.25 -12.2 15.25 L-11.2 13.45 Q3.05 15.65 12.55 13.35 15.35 12.7 17.95 8.9 20.45 5.15 20.95 5.1" fill="#380f38" fill-rule="evenodd" stroke="none"/>
      <path d="M9.45 8.9 Q15.45 8.45 19.85 7.05 L5.05 22.1 1.65 21.85 -0.1 21.3 Q-1.8 19.1 -5.55 18.4 L-8.9 18.15 Q-10.3 17.3 -10.55 14.3 L-11.3 10.45 Q-11.65 7.95 -11.35 6.3 -11.1 4.9 -10.6 5.15 -2.55 9.85 9.45 8.9" fill="#fd8bc3" fill-rule="evenodd" stroke="none"/>
      <path d="M20.2 5.2 Q21.55 4.6 19.3 11.25 L16.8 18.05 13.6 18.35 Q10.05 19.1 8.35 21.3 4.8 22.5 2.6 22.1 L2.45 22.15 -4.75 15.75 -10.15 7.1 Q-6.65 8.45 -1.1 8.85 10.0 9.75 20.2 5.2" fill="#ff00a6" fill-rule="evenodd" stroke="none"/>
      <path d="M-11.0 7.15 L-12.5 5.25 -11.6 4.25 -9.8 5.65 Q-7.7 7.1 -6.1 7.35 L-7.15 8.15 -9.7 8.1 -11.0 7.15" fill="#fd8bc3" fill-rule="evenodd" stroke="none"/>
      <path d="M20.6 5.1 L20.5 7.2 Q19.95 13.15 17.7 14.55 L13.4 14.65 Q8.35 15.4 4.45 18.8 12.9 10.7 13.25 7.8 17.75 7.15 20.05 4.3 L20.6 5.1" fill="#e82c8b" fill-rule="evenodd" stroke="none"/>
      <path d="M17.25 15.3 Q16.5 17.2 16.6 17.65 L15.15 18.6 Q12.7 18.35 10.3 19.8 9.1 20.55 8.35 21.3 9.45 19.4 8.25 18.8 L6.8 18.55 Q14.5 13.6 17.25 15.3" fill="#f754a6" fill-rule="evenodd" stroke="none"/>
      <path d="M3.45 18.95 L3.15 21.6 Q4.75 20.95 3.0 21.7 1.25 22.45 -0.15 21.2 -1.05 20.0 -1.75 19.85 L-1.9 19.9 Q0.15 19.35 -3.35 16.8 L-3.45 16.1 3.45 18.95" fill="#f754a6" fill-rule="evenodd" stroke="none"/>
      <path d="M12.65 10.2 Q8.05 8.8 1.6 9.1 11.15 8.35 13.25 7.55 L15.25 7.8 Q15.45 9.2 15.25 9.45 L14.45 10.1 13.5 10.45 12.65 10.2" fill="#e82c8b" fill-rule="evenodd" stroke="none"/>
      <path d="M-5.95 7.55 L-6.6 10.5 Q-6.4 13.9 -2.2 16.1 L-10.05 15.1 Q-11.05 12.55 -10.75 7.3 L-12.5 5.25 -11.95 4.35 -11.15 4.45 -5.95 7.55" fill="#fd8bc2" fill-rule="evenodd" stroke="none"/>
      <path d="M9.65 17.45 L5.7 19.5 Q5.8 21.0 5.45 22.1 3.8 23.8 2.6 22.1 L2.65 19.4 4.7 17.95 Q10.1 14.15 14.9 13.9 17.35 13.8 18.65 14.4 20.9 15.9 16.65 16.8 17.1 16.55 16.55 16.0 L16.3 15.95 Q14.0 15.5 9.65 17.45" fill="#ffffff" fill-rule="evenodd" stroke="none"/>
      <path d="M2.7 19.6 L-1.85 17.6 Q-6.85 15.7 -9.1 16.25 -8.25 16.2 -9.3 16.4 L-10.0 17.05 Q-12.95 16.2 -10.7 14.7 L-7.1 14.0 Q-2.25 14.15 3.7 18.1 L4.75 18.8 2.7 19.6" fill="#ffffff" fill-rule="evenodd" stroke="none"/>
      <path d="M17.1 19.15 L14.25 19.7 Q10.85 20.5 9.15 21.9 8.6 22.45 8.2 22.4 7.8 22.35 8.55 21.2 9.2 20.3 10.6 19.4 13.35 17.6 16.8 17.95 19.1 18.4 17.1 19.15" fill="#ffffff" fill-rule="evenodd" stroke="none"/>
      <path d="M-8.75 18.1 Q-3.2 17.5 -0.15 21.2 0.6 22.35 0.2 22.4 -0.15 22.45 -0.75 21.9 -2.45 20.5 -6.0 19.75 L-9.05 19.25 Q-11.05 18.55 -8.75 18.1" fill="#ffffff" fill-rule="evenodd" stroke="none"/>
      <path d="M17.05 18.85 L14.45 19.25 Q11.75 19.8 11.1 20.45 L11.45 19.3 16.85 18.3 Q18.15 18.8 17.05 18.85" fill="#e3e3e5" fill-rule="evenodd" stroke="none"/>
      <path d="M5.0 19.3 L5.05 22.1 Q5.25 22.6 5.1 22.3 L3.15 22.2 Q4.9 21.05 5.0 19.3" fill="#e3e3e5" fill-rule="evenodd" stroke="none"/>
      <path d="M17.45 16.45 Q18.65 15.05 14.3 15.85 L16.4 14.7 18.0 14.55 Q19.45 14.6 18.9 15.55 L17.45 16.45" fill="#e3e3e5" fill-rule="evenodd" stroke="none"/>
      <path d="M-3.05 19.35 L-2.7 20.55 Q-3.35 19.85 -6.25 19.4 L-9.05 19.1 Q-9.75 19.05 -9.4 18.75 L-8.85 18.5 -3.05 19.35" fill="#e3e3e5" fill-rule="evenodd" stroke="none"/>
      <path d="M-10.65 14.85 L-6.9 15.8 Q-9.25 15.7 -9.5 16.2 L-9.25 16.7 Q-11.3 16.25 -11.15 15.5 L-10.65 14.85" fill="#e3e3e5" fill-rule="evenodd" stroke="none"/>
      <path d="M3.5 20.35 Q3.15 17.95 -4.9 15.35 L-1.25 16.35 Q2.65 17.6 3.95 18.7 L3.5 20.35" fill="#e3e3e5" fill-rule="evenodd" stroke="none"/>
      <path d="M18.55 5.7 Q15.25 7.6 10.0 8.55 -0.45 10.4 -10.25 5.6 L-8.2 6.05 -6.4 6.85 -1.25 8.2 Q7.6 9.55 17.25 5.85 L18.55 5.7" fill="#3d093d" fill-rule="evenodd" stroke="none"/>
      <path d="M18.4 5.8 L17.45 6.15 17.25 5.85 19.85 4.1 18.4 5.8" fill="#3d093d" fill-rule="evenodd" stroke="none"/>
      <path d="M-8.2 6.05 L-8.7 6.3 -11.6 4.25 -8.2 6.05" fill="#3d093d" fill-rule="evenodd" stroke="none"/>
      <path d="M16.2 17.05 Q16.5 15.55 11.5 17.1 L14.35 16.05 Q17.1 15.3 16.65 16.8 L16.2 17.05" fill="#541e54" fill-rule="evenodd" stroke="none"/>
      <path d="M7.45 21.7 Q7.65 20.85 8.45 19.95 10.05 18.25 13.1 18.35 12.25 18.55 11.2 19.05 9.1 20.0 8.2 21.55 L7.45 21.7" fill="#b82a65" fill-rule="evenodd" stroke="none"/>
      <path d="M0.3 21.7 Q-1.35 18.85 -5.2 18.3 L-6.7 18.0 -5.35 18.1 -2.6 18.8 Q0.45 19.9 1.8 21.85 L0.3 21.7" fill="#b82a65" fill-rule="evenodd" stroke="none"/>
      <path d="M2.6 22.1 L1.5 19.9 -3.35 17.1 Q-1.25 17.55 2.65 19.4 L2.6 22.1" fill="#541e54" fill-rule="evenodd" stroke="none"/>
      <path d="M19.65 3.1 L20.2 4.05 18.9 5.3 19.65 3.1" fill="#3d093d" fill-rule="evenodd" stroke="none"/>
      <path d="M-6.3 14.1 L-7.85 14.05 Q-9.7 14.2 -11.05 15.05 L-11.7 15.6 Q-11.55 14.9 -10.8 14.4 -9.3 13.3 -6.3 14.1" fill="#541e54" fill-rule="evenodd" stroke="none"/>
      <path d="M19.0 14.7 Q17.95 13.85 15.5 13.95 L10.35 14.85 Q17.9 12.4 19.0 14.7" fill="#541e54" fill-rule="evenodd" stroke="none"/>
      <path d="M11.85 17.05 Q14.45 16.05 14.0 16.6 13.05 16.6 9.7 18.2 L6.55 19.8 5.5 22.05 5.7 19.5 11.85 17.05" fill="#541e54" fill-rule="evenodd" stroke="none"/>
      <path d="M-9.55 5.55 L-9.55 5.75 Q-11.15 4.7 -12.3 4.4 L-13.15 4.35 -12.25 3.1 Q-10.65 3.15 -9.55 5.55" fill="#3d093d" fill-rule="evenodd" stroke="none"/>
      <path d="M18.9 4.85 L19.55 4.75 Q17.8 8.55 6.45 8.5 9.5 8.3 18.9 4.85" fill="#3d093d" fill-rule="evenodd" stroke="none"/>
      <path d="M-0.8 8.45 Q-8.35 7.55 -12.5 4.2 L-11.05 3.7 -10.15 4.25 Q-4.4 7.8 -0.8 8.45" fill="#3d093d" fill-rule="evenodd" stroke="none"/>
      <path d="M11.55 11.5 Q12.1 12.2 11.55 12.75 L9.0 12.65 8.35 12.45 Q7.65 12.45 7.35 13.15 L6.55 12.3 8.3 11.75 Q8.4 11.15 8.8 10.75 9.55 9.95 10.9 10.9 L11.55 11.5" fill="#5c0059" fill-rule="evenodd" stroke="none"/>
      <path d="M11.3 11.9 L8.75 11.85 8.1 11.65 Q7.4 11.6 7.05 12.35 L6.3 11.5 8.05 10.9 Q8.15 10.3 8.55 9.9 9.3 9.1 10.65 10.05 L11.3 10.65 Q11.85 11.35 11.3 11.9" fill="#5c0059" fill-rule="evenodd" stroke="none"/>
      <path d="M1.75 10.4 L3.85 10.0 Q6.15 9.75 7.25 10.7 9.4 13.65 6.35 15.5 3.0 17.25 1.25 14.4 0.1 12.05 1.75 10.4" fill="#5c0059" fill-rule="evenodd" stroke="none"/>
      <path d="M0.55 10.75 L0.95 11.75 2.7 12.45 1.85 13.25 Q1.6 12.5 0.9 12.5 L0.25 12.65 -2.35 12.55 Q-2.8 11.95 -2.25 11.3 L-1.55 10.75 Q-0.15 9.9 0.55 10.75" fill="#5c0059" fill-rule="evenodd" stroke="none"/>
      <path d="M1.75 10.9 L3.5 11.6 2.65 12.4 Q2.35 11.65 1.65 11.65 L1.0 11.8 -1.55 11.7 Q-2.05 11.15 -1.45 10.45 L-0.8 9.9 Q0.65 9.05 1.35 9.9 L1.75 10.9" fill="#5c0059" fill-rule="evenodd" stroke="none"/>
      <path d="M11.4 12.15 L8.95 12.1 8.35 11.95 Q7.7 11.9 7.4 12.5 L6.7 11.75 8.35 11.25 Q8.45 10.75 8.8 10.4 9.5 9.75 10.75 10.55 L11.35 11.05 Q11.85 11.7 11.4 12.15" fill="#ffffff" fill-rule="evenodd" stroke="none"/>
      <path d="M2.5 10.95 L3.95 10.65 Q5.6 10.45 6.5 11.2 8.35 13.5 5.8 14.9 3.55 16.25 2.1 14.05 1.15 12.2 2.5 10.95" fill="#ffffff" fill-rule="evenodd" stroke="none"/>
      <path d="M1.2 11.2 L2.85 11.8 2.05 12.5 Q1.8 11.85 1.15 11.85 L0.55 11.95 -1.85 11.9 Q-2.3 11.4 -1.8 10.85 L-1.15 10.35 Q0.15 9.6 0.8 10.35 L1.2 11.2" fill="#ffffff" fill-rule="evenodd" stroke="none"/>
      <path d="M3.5 10.7 L5.2 10.65 Q6.95 10.9 7.15 12.4 L6.7 14.4 Q5.6 16.1 2.65 14.65 5.8 13.3 3.6 10.95 L3.5 10.7" fill="#e3e3e5" fill-rule="evenodd" stroke="none"/>
      <path d="M9.7 10.5 L9.8 10.5 Q11.35 11.1 11.25 11.75 11.25 12.5 10.05 12.25 L9.75 12.15 Q9.3 12.05 10.1 11.75 11.15 11.35 9.7 10.5" fill="#e3e3e5" fill-rule="evenodd" stroke="none"/>
      <path d="M0.05 10.15 Q0.8 10.05 0.95 11.15 L-0.8 11.0 -1.8 11.55 Q-1.85 10.95 -0.9 10.5 L0.05 10.15" fill="#e3e3e5" fill-rule="evenodd" stroke="none"/>
      <path d="M-4.4 9.45 L-7.9 8.7 Q-9.1 8.25 -8.8 7.8 L-8.3 7.45 -4.4 9.45" fill="#ffffff" fill-rule="evenodd" stroke="none"/>
      <path d="M15.75 13.25 Q12.85 13.3 11.9 13.85 L14.9 11.4 Q17.4 9.55 14.8 8.65 L19.55 6.3 19.35 9.0 Q19.05 11.95 18.4 13.3 L15.75 13.25" fill="#cf007c" fill-rule="evenodd" stroke="none"/>
      <path d="M-3.0 9.9 Q-3.1 10.5 -4.25 10.8 -5.4 11.15 -5.4 11.5 L-4.75 12.6 -4.1 13.35 -6.1 12.05 Q-6.8 11.6 -6.65 11.2 -6.1 10.15 -5.3 10.6 L-4.55 10.2 -7.0 8.7 -5.95 8.35 -3.0 9.9" fill="#ffffff" fill-rule="evenodd" stroke="none"/>
      <path d="M12.25 9.85 L14.55 9.25 16.65 8.9 Q13.25 11.55 12.3 10.3 L12.25 9.85" fill="#ffffff" fill-rule="evenodd" stroke="none"/>
      <path d="M-2.3 17.6 L-4.8 16.85 -8.35 16.4 Q-9.25 16.65 -9.6 17.1 L-9.75 17.5 -10.15 17.05 -9.85 16.6 Q-9.35 16.15 -8.25 16.1 -6.45 16.0 -2.75 17.25 L-2.3 17.6" fill="#541e54" fill-rule="evenodd" stroke="none"/>
    </g>
  </defs>
</svg>
