<svg xmlns:xlink="http://www.w3.org/1999/xlink" height="82" width="84.85" xmlns="http://www.w3.org/2000/svg"><g transform="translate(37.4 42.25)"><use height="38" transform="translate(-11.95 -17.45)" width="32.05" xlink:href="#a"/><use height="38.95" transform="translate(-12.45 -17.95)" width="33.05" xlink:href="#b"/><use height="16.45" transform="translate(-11.9 11.4)" width="32.9" xlink:href="#c"/><use height="23.8" transform="translate(-18.3 -8.6)" width="44.8" xlink:href="#d"/></g><defs><use height="38" width="32.05" xlink:href="#e" id="a"/><use height="38.95" width="33.05" xlink:href="#f" id="b"/><use height="16.45" width="32.9" xlink:href="#g" id="c"/><use height="23.8" width="44.8" xlink:href="#h" id="d"/><path d="M27.35 7.4q2.15 4.15 3.55 8.75 1.45 4.7 1.15 9.5-.35 4.95-4.2 8.1-3.8 3.2-8.75 4.05l-2.6.2q-3.6 0-7.05-1.15-4.65-1.6-7.1-5.5Q-.2 27.4.05 23q.2-4.4 2-9.3Q3.85 8.75 7 5.05 10.1 1.3 14.7.1l1.8-.1q1.9.05 3.7.8 4.75 2.05 7.15 6.6" fill="#f7e4e4" fill-rule="evenodd" transform="translate(-.05)" id="e"/><path d="M27.35 7.4Q24.95 2.85 20.2.8 17.55-.3 14.7.1 10.1 1.3 7 5.05q-3.15 3.7-4.95 8.65-1.8 4.9-2 9.3-.25 4.4 2.3 8.35 2.45 3.9 7.1 5.5 4.65 1.55 9.65.95 4.95-.85 8.75-4.05 3.85-3.15 4.2-8.1.3-4.8-1.15-9.5-1.4-4.6-3.55-8.75Z" fill="none" stroke="#000" stroke-linecap="round" stroke-linejoin="round" transform="translate(.45 .5)" id="f"/><g id="g" fill-rule="evenodd"><path d="m14.9-7.35 1.45-.2-1.7 4.3q1.8 7.55 1.8 9.8l-.25 1q-.35.5-2.15.55-.6.1-1.15-.9-.6 1.05-1.3 1.05-.5 0-.85-.55l-.3.2-2.5.2H7.7q-.55-.1-.9-.95-.7.85-1.3.75l-3-.55q-.5-.15-.85-.8-.6.45-1.1.3l-3.7-1.2-.65-.8-.9.1-3.6-1.8-.5-.65-.1.05-.35.1-.35-.2q-.4-.25-.65-1.05l-.3.15-.4.1-4.6-2.8h.1l-.75-.5-.15-.65q0-.8.7-2.4l-.8-3.5 1.3.3 4.95.9 9.7.9 15.4-1.25" fill="#1a171b" transform="translate(16.45 8.2)"/><path d="m-15.3-7.05 3.5.65 1.2 7.05-.25.1L-15.3-2q-.35-.05.05-1.3l.5-1.3-.55-2.45" fill="red" transform="translate(16.45 8.2)"/><path d="M2.3-4.7q6.4.45 9.9-.15-.55 2.1-1.25 6.95-.9 3.95-3.35 4.55h-.1L7.15 5.1l-.9 1.3Q-4.9 4.05-7.55-4.9q3-.3 9.85.2" fill="#7e230f" transform="translate(16.45 8.2)"/><path d="m-11.8-6.4 3.95.6q2.5 9.75 14.1 12.2l-.65.7-2.9-.6-.75-1.35-1.2.9-3.55-1.2q-.35-1.65-.65-1.8-.7 1.2-.9 1.15L-7.9 2.4Q-8.05.65-8.3.55q-.65 1.25-.85 1.15L-9.8-.5l-.8 1.15-1.2-7.05" fill="#b6230f" transform="translate(16.45 8.2)"/><path d="m15.55 7-.6.2q-.85-6.6-1-9.7 2.1 8.9 1.6 9.5" fill="red" transform="translate(16.45 8.2)"/><path d="m15-6.5-1.2 3.2.15.8q.15 3.1 1 9.7l-.95.05q-.3.05-1.15-1.95Q12 7.4 11.6 7.4q-.25 0-.5-2.5-.5 2.05-1 2.25l-2.3.1-.35-.75q1.4-.65 1.95-2.15.7-1.7 1.15-6.4 1.5-1.95 2-4.15L15-6.5" fill="#b6230f" transform="translate(16.45 8.2)"/><path d="m-5.3 3.75-1.4-.7 3 .4-.25.45-1.35-.15m20.55-.45.1.5Q6.15 5-3.05 4l-.15-.5q9.25 1 18.45-.2m-30.4-6.75.2-.45Q-3.8-.8 14.15-2l.1.5q-18 1.2-29.4-1.95" fill="#ff4700" transform="translate(16.45 8.2)"/><path d="m12.55-6.2-.35 1.35q-3.5.6-9.9.15-6.85-.5-9.85-.2l-.3-.9 7.35.55 13.05-.95" fill="#b6230f" transform="translate(16.45 8.2)"/><path d="m-3.65-3.4-.05-1.95h.5l.05 2-.55 6.65-.55.85.6-7.55m-5.3-2.55.05 1.7-.75 4.6-.15-.85-.3.5.7-4.3-.05-1.7.5.05M-13-6.6l-.1 1.85-.9 3.5-.45-.25.9-3.3q-.15-.9.1-1.9l.45.1m24.85 3.4-.05-.1.05-.1 1.25-2.85.6-.05-1.35 3q.65 1.85 2.1 10.55h-.5Q12.2-2.5 11.85-3.2M2.4-5.3 2.25-3l.2 9.25-.5-1.1H1.9L1.75-3l.15-2.3h.5m5.25-.35-.4 2.35Q8.2 1.25 8.5 7.3L8 7.25Q7.7 1.3 6.75-3.3l.4-2.3.5-.05" fill="#ffa96a" transform="translate(16.45 8.2)"/><path d="m7.55 6.8-.05-.15h.1l-.05.15" fill="#97230f" transform="translate(16.45 8.2)"/><path d="M-13.25-2.4q-1.65-.55-2.1-.85l-.3-.15.2-3.5.85.7 1.7.8q2.4.9 6.05 1.3 1.1-1.25 2.7-1.25 1.15 0 2.05.6l1.65-.3 1.7.3q.9-.6 2.05-.6 1.6 0 2.7 1.25 6-.65 7.95-2.1l.85-.7.2 3.5-.35.15Q11.65-1.8 6.8-1q-.55 2.45-3.15 2.8Q2.3 4.25-.45 4.25q-2.75 0-4.1-2.5-2.5-.25-3.1-2.75-3.05-.5-5.6-1.4" fill="#1a171b" transform="translate(16.45 8.2)"/><path d="m-14.95-5.8.9.55v1.95l-1-.45.1-2.05" fill="#533029" transform="translate(16.45 8.2)"/><path d="m-13.15-4.9-.2 1.9-.7-.3v-1.95l.9.35" fill="#ca9577" transform="translate(16.45 8.2)"/><path d="m11.3-4.5.35 1.8Q5.85-1-.55-1l-7.95-.7.55-1.95 7.6.45q7.25 0 11.65-1.3" fill="#321e17" transform="translate(16.45 8.2)"/><path d="m12.35-4.85.65 1.7-1.35.45-.35-1.8 1.05-.35" fill="#533029" transform="translate(16.45 8.2)"/><path d="m13.4-5.25.55 1.7-.95.4-.65-1.7 1.05-.4" fill="#8b6249" transform="translate(16.45 8.2)"/><path d="m14.3-5.8.1 2.05-.45.2-.55-1.7.9-.55m-27.45.9q2.3.85 5.2 1.25L-8.5-1.7-13.35-3l.2-1.9m6 3.15q0-3.05 3-3.05 3.05 0 3.05 3.05 0 3-3.05 3-3 0-3-3" fill="#533029" transform="translate(16.45 8.2)"/><path d="M.25-1.75Q.25-4.8 3.3-4.8q3 0 3 3.05 0 3-3 3-3.05 0-3.05-3" fill="#321e17" transform="translate(16.45 8.2)"/><path d="M2.45-3.3q1.2 1.2 1.2 2.9t-1.2 2.9q-1.2 1.2-2.9 1.2t-2.9-1.2q-1.2-1.2-1.2-2.9t1.2-2.9q1.2-1.2 2.9-1.2t2.9 1.2" fill="#533029" transform="translate(16.45 8.2)"/><path d="M-6.6-1.75q0-2.5 2.45-2.5t2.45 2.5Q-1.7.7-4.15.7T-6.6-1.75m7.45 0q0-2.5 2.45-2.5t2.45 2.5Q5.75.7 3.3.7T.85-1.75" fill="#585858" transform="translate(16.45 8.2)"/><path d="M-4-.4q0-1.45 1.05-2.5t2.5-1.05q1.45 0 2.5 1.05T3.1-.4q0 1.45-1.05 2.5t-2.5 1.05q-1.45 0-2.5-1.05T-4-.4" fill="#585858" transform="translate(16.45 8.2)"/><path d="M-3.1-.95q0-2.4 2.4-2.4t2.4 2.4q0 2.4-2.4 2.4t-2.4-2.4" fill="#959792" transform="translate(16.45 8.2)"/><path d="M-5.7-2.3q0-1.35 1.3-1.35 1.35 0 1.35 1.35Q-3.05-1-4.4-1q-1.3 0-1.3-1.3m7.4 0q0-1.35 1.35-1.35 1.3 0 1.3 1.35 0 1.3-1.3 1.3Q1.7-1 1.7-2.3" fill="#959792" transform="translate(16.45 8.2)"/><path d="M-5.4-2.4q0-1 1-1 1.05 0 1.05 1 0 1.05-1.05 1.05-1 0-1-1.05" fill="#e3e1de" transform="translate(16.45 8.2)"/><path d="M-6.15-1.75q0-2.05 2-2.05 2.05 0 2.05 2.05 0 2-2.05 2-2 0-2-2m3.8 0q0-1.8-1.8-1.8-1.75 0-1.75 1.8Q-5.9 0-4.15 0q1.8 0 1.8-1.75m3.6 0q0-2.05 2.05-2.05 2 0 2 2.05 0 2-2 2-2.05 0-2.05-2m3.8 0q0-1.8-1.75-1.8-1.8 0-1.8 1.8Q1.5 0 3.3 0q1.75 0 1.75-1.75" fill="#959792" transform="translate(16.45 8.2)"/><path d="M-3.55-.4q0-3.1 3.1-3.1t3.1 3.1q0 3.1-3.1 3.1t-3.1-3.1m3.1-2.85Q-3.3-3.25-3.3-.4t2.85 2.85Q2.4 2.45 2.4-.4T-.45-3.25" fill="#959792" transform="translate(16.45 8.2)"/><path d="M1.9-2.4q0-1.05 1.05-1.05T4-2.4q0 1.05-1.05 1.05T1.9-2.4m-4.5 1.2q0-1.85 1.85-1.85 1.9 0 1.9 1.85Q1.15.7-.75.7-2.6.7-2.6-1.2" fill="#e3e1de" transform="translate(16.45 8.2)"/></g><g id="h" fill-rule="evenodd"><path d="m-21.45-6.3-.05-1.1 1.5-.7 2.8-3.6.45.85.05-.35 2.45.25 2.95-.4-.85 1.5-.75 1.8q-.8 2.15-.85 4.15l.25.15.45.4-.1.85.7.7.6.15.45.05.6 1 3.6 2.1 1.35.15h.55l.35.8.3-.55 2.7 2.1 2.7 1.1.05.5.45 3.15-.05.95-3.3-.45v.1l-.55 1.3-1-1.05-.35 1.3-1-.95q-1.2-1.2-1.65-1.3l-4.6-1.1q-2.4-.7-3.85-1.8l-3.95-2.25-.5-.35.05-.55-1.25.45V.25l.05.1-.65-1.55L-22.4-7l.95.7" fill="#1a171b" transform="translate(22.4 11.9)"/><path d="M-20.6-5v-1.85l1.25-.65 2-2.7q.3 1 .8.8.55-.25.5-.85l1.85.15 1.35-.15-.85 2q-.9 2.4-.9 4.65l.65.6v.85l1 1q.3.3 1 .35l.65.9 3.75 2.2 1.7.2.75 1q.5.25.75-.25L-2.3 4.8l2.25.95.45 3-2.9-.4-.45.75-1-.9-.5 1.1q-1.5-1.4-2.05-1.5l-3.35-.7-1.1-.35q-2.3-.7-3.65-1.7l-4.1-2.3q.2-.85 0-1.1l-1.15.15-.1-1.85-.6-1.4-.7-3.6.65.05" fill="#4e2b29" transform="translate(22.4 11.9)"/><path d="m16-11.9.75.95 1-.35L20-8.1l1.55.7-.05.6-.25 1.35L22.4-3.9 20.7.35l.05-.1V1.8l-.1 1.2-1.1-.4.05.65-.55.25-3.9 2.25q-1.2.85-3 1.5l-.5 1.2-1.6-.55-2.65.6-.75 1.7-1.95-.7-1.6 1.2-1-1.45-3.3.45v-.95l.5-3.65L1.95 4l1.9-1.4.8-.7.3.55.4-.8h.55l1.3-.15 3.55-2.05.7-1.1h.45l.55-.15.7-.7-.05-.35v-.6l.65-.45q-.05-2-.85-4.15l-.75-1.8-.9-1.5L16-11.9" fill="#1a171b" transform="translate(22.4 11.9)"/><path d="m16.55-9.4 1.2-.55L19.4-7.5l1.25.65V-5q.05.45.9 1.05l-1 2.5-.6 1.4q-.1.25-.05 1.85l-1.15-.15q-.25.25-.05 1.1l-4.05 2.3q-1.1.85-2.7 1.35l-.7 1.05-1.4-.35-3.35.7-.55 1.4-1.5-.95-1 .95L3 8.4l-3.35.35.4-3L2.3 4.8l2.1-1.55q.2.5.75.25.35-.2.75-1l1.7-.2L11.3.1l.65-.9L13-1.15l.95-1V-3l.7-.6q0-2.25-.85-4.65l-.9-2 .75-.4 2.05-.25.85 1.5" fill="#4e2b29" transform="translate(22.4 11.9)"/><path d="m-13.1-9.95-1.1 2.9q-1.6 1.25-1.5 3.15l.85-1.5-.2 3.5q.35.75 2.45 1.35l-.35.5q-.25.55.1.8l3.05 1-.8.35q-.7.4-.35.6l3 .5-.05.5q.1.55.75.75 1.05.3.4-.95l2.8 2 2.7.35-3 .45 1.5 1.15-6.75-2q-.9-.3.1.45l1.2.85q-4.05-1.7-4.3-2.3l-4.45-2.7q-.4.1-1-2.05l-1.2.55q0-3-.35-3.7-.3-.55.4-1.95.15-.15-.5-1.25 1.35-.85 1.95-1.6.25-.3.3.15 0 .65.6.35 1.05-.5 2-1.8.1.85 1.75-.4" fill="#8b473a" transform="translate(22.4 11.9)"/><path d="M-18.75-1.55q0 1.1.45 1.35L-19.45.95l.7-2.5m-.8-2.65-.35-.75q.45-.35.3-.6l-.4-.75 1.5.75-.75.55 1 .7-.95.1.4 1-1.25.1q.7-.6.5-1.1m.95 1.65 1.15-1.3.2 1.5 1.25-.9-.7 1.8 1.25.55-1.15.35q0 .4 1.85 1.05l-.65.5 2.9 1.55-1.55-.2-2.65-.3-.1-1.5-.65.45.4-2.75-.7.65-.1-1.4-.75-.05m1.05-3.95.95-2.05-.1 1.2q.2.1 1.3-2.2l-.05 1.25 1-.5-1.05 1.65-.5-.55-1.05 1.55-.05-.9-.45.55m-.65-1.7.1 1.05-.6.55.5-1.6m6.15 12.25.55.4.25-.9 1.7 1.05.2 1.1-1.75-1.4-.1 1.55-.85-1.8M-13.3.3l1.55-.3-.7.6 1.35.15-.75.7L-13.3.3" fill="#ca9577" transform="translate(22.4 11.9)"/><path d="M16.8-7.75q.6.3.6-.35.05-.45.3-.15.6.75 1.95 1.6l-1.1 1.95q.15.2 1.65.95h-1.45l.15.95-1.1.8L19.2.25 18-.3q-.6 2.15-1 2.05-.4-.15-3.7 1.35l-.65 1.35h-.9l-.05.9-1.05-.5-2.4 1.9Q9.65 4.2 8.2 4.7L4.5 7.2l-.2-.9-3-.45L4 5.5l.45-1.2 1.45-.6 1.6-.75 3.4-.25q.55-.35-1.15-.95l3.05-1q.6-.4-.25-1.3 2.1-.6 2.45-1.35l-.2-3.5.85 1.5q.1-1.9-1.5-3.15l-1.1-2.9q1.65 1.25 1.75.4l2 1.8" fill="#8b473a" transform="translate(22.4 11.9)"/><path d="M16.55.05Q17-.2 17-1.3l.75 2.5-1.2-1.15m.7-4.5q-.2.5.5 1.1l-1.25-.1.4-1-.95-.1 1-.7-.75-.55 1.5-.75-.4.75q-.15.25.3.6l-.35.75m-6.15 7.1-.95-.75 1.35-.05-.05-2 .85 1.35.75-1.35.6 1.65-.7-.25-.6 1.3-.45-.9L11.65 3l-.35 1.4-1-.95Q10.2 5 9.95 4.5l-2.3-.05-1.5-.4 3.25-.4q.3-.15-.45-.7l2.15-.3m5.3-9.9-.5-.55-.05.9-1.05-1.55-.45.55-1.1-1.65 1.05.5-.05-1.25q1.1 2.3 1.3 2.2.2-.1-.1-1.2l.95 2.05M15.1-4.1l.5 1.55-.65-.5.15-1.05M5.05 6 4.2 7.8l-.05-1.55L2.4 7.6l.15-1.05 1.7-1.05.25.85.55-.35m10.9-7.75L14.5-.65l-.75-.65 1.3-.15-.65-.6 1.55.3" fill="#ca9577" transform="translate(22.4 11.9)"/><path d="M.15 3.6q1.75 0 2.95 1.2 1.2 1.25 1.2 2.95 0 1.75-1.2 2.95-1.2 1.2-2.95 1.2-1.75 0-2.95-1.2-1.25-1.25-1.25-2.95 0-1.7 1.25-2.95Q-1.6 3.6.15 3.6" fill="#1a171b" transform="translate(22.4 11.9)"/><path d="M.15 4.2q1.45 0 2.5 1.05 1 1.05 1 2.5t-1 2.5Q1.6 11.3.15 11.3t-2.5-1.05Q-3.4 9.2-3.4 7.75t1.05-2.5Q-1.3 4.2.15 4.2" fill="#585858" transform="translate(22.4 11.9)"/><path d="M.15 4.2q2.3 0 3.2 2.1Q2.55 4.65 0 4.8q-2.75.1-3.4 2.95 0-1.45 1.05-2.5T.15 4.2" fill="#959792" transform="translate(22.4 11.9)"/><path d="M.15 4.15q1.55 0 2.5 1.1-1.6-1.05-3.4-.6-1.5.4-2.35 1.55Q-2.05 4.15.15 4.15" fill="#e3e1de" transform="translate(22.4 11.9)"/><path d="M2.7 10.35Q1.65 11.4.2 11.4q-2.3 0-3.25-2.1.85 1.6 3.35 1.5 2.75-.1 3.4-2.95 0 1.45-1 2.5" fill="#282626" transform="translate(22.4 11.9)"/><path d="M.4 5.45q2.55 0 2.55 2.6 0 2.55-2.55 2.55-2.6 0-2.6-2.55 0-2.6 2.6-2.6" fill="#282626" transform="translate(22.4 11.9)"/><path d="M.1 5.2q2.55 0 2.55 2.55 0 2.5-2.55 2.5-2.5 0-2.5-2.5Q-2.4 5.2.1 5.2" fill="#959792" transform="translate(22.4 11.9)"/><path d="M-.15 8.9q-1.7 0-1.7-1.7t1.7-1.7q1.7 0 1.7 1.7t-1.7 1.7" fill="#e3e1de" transform="translate(22.4 11.9)"/><path d="m2.05 6.1-.85-.35-1.7.05q-2.25.85-1.5 3.3-.65-1-.2-2.2.4-1.25 1.6-1.6 1.6-.45 2.65.8" fill="#e3e1de" transform="translate(22.4 11.9)"/></g></defs></svg>