<svg xmlns:xlink="http://www.w3.org/1999/xlink" height="82" width="84.85" xmlns="http://www.w3.org/2000/svg"><g transform="translate(37.4 42.25)"><use height="38" transform="translate(-11.95 -17.45)" width="32.05" xlink:href="#a"/><use height="25.8" transform="translate(-13.6 1.7)" width="36.6" xlink:href="#b"/><use height="38.95" transform="translate(-12.45 -17.95)" width="33.05" xlink:href="#c"/><use height="23.3" transform="translate(-12.45 3.1)" width="34.35" xlink:href="#d"/><use height="23.2" transform="translate(-11.9 3.15)" width="33.8" xlink:href="#e"/><use height="14.9" transform="translate(-3.9 6.75)" width="16.65" xlink:href="#f"/></g><defs><use height="38" width="32.05" xlink:href="#g" id="a"/><use height="25.8" width="36.6" xlink:href="#h" id="b"/><use height="38.95" width="33.05" xlink:href="#i" id="c"/><use height="23.3" width="34.35" xlink:href="#j" id="d"/><use height="23.2" width="33.8" xlink:href="#k" id="e"/><use height="14.9" width="16.65" xlink:href="#l" id="f"/><path d="M27.35 7.4q2.15 4.15 3.55 8.75 1.45 4.7 1.15 9.5-.35 4.95-4.2 8.1-3.8 3.2-8.75 4.05l-2.6.2q-3.6 0-7.05-1.15-4.65-1.6-7.1-5.5Q-.2 27.4.05 23q.2-4.4 2-9.3Q3.85 8.75 7 5.05 10.1 1.3 14.7.1l1.8-.1q1.9.05 3.7.8 4.75 2.05 7.15 6.6" fill="#f1d2d2" fill-rule="evenodd" transform="translate(-.05)" id="g"/><path d="m15.5-12.8.4-.1.35.3.15 2.05-.15 1.8v1.65q.1 5.75.35 8.3l.8 2.35-.15.6-.25.2q.65 2.15 1.25 3.2l-.05.65q-1.9 2-5.1 3.4-6.4 2.7-13.05-.25l-.3-.45.1-2.3h-.8l.1 2.35-.15.35q-1.1 1.15-6.8.85-7.9-.4-10.45-3.85l-.1-.55q.55-1.5 1-3.65l-.2-.45V3.5l.6-2.05v-.2q-.25-1.4-.5-10.25l-.2-1.55.15-2.1.35-.25.45.1q6.25 4.55 15.2 4.35l.4.15.15.4L-1-4.75H.5l-.1-3.1.15-.35.35-.15q8.6.15 14.6-4.45" fill="#040114" fill-rule="evenodd" transform="translate(18.35 12.9)" id="h"/><path d="M27.35 7.4Q24.95 2.85 20.2.8 17.55-.3 14.7.1 10.1 1.3 7 5.05q-3.15 3.7-4.95 8.65-1.8 4.9-2 9.3-.25 4.4 2.3 8.35 2.45 3.9 7.1 5.5 4.65 1.55 9.65.95 4.95-.85 8.75-4.05 3.85-3.15 4.2-8.1.3-4.8-1.15-9.5-1.4-4.6-3.55-8.75Z" fill="none" stroke="#000" stroke-linecap="round" stroke-linejoin="round" transform="translate(.45 .5)" id="i"/><path d="M-16.55-11.65q4.05 2.55 9.1 3.55v-.1l2.65.5 2.85.2L-2-4.45q-10.25.05-14.35-4.7-.7-1.45-.2-2.5M-.2-3.9h.75v.1q.1.5.5.5 9.3.2 14.2-4.3l.3 8.7.75 2.25Q13 6.05 5.1 7l-.85.1q-10 1.05-18.6-2.9l-2-1 .5-1.9q-.2-.5-.45-8.9 5.2 4.5 14.8 4.2.4 0 .5-.45h.8v-.05m1.75-.5-.1-1.4h.05l-.05-1.65q6.8-.2 12.15-3.05v-.05l1.2-.6.3-.2.35-.25q.5 1-.2 2.5-3.9 4.75-13.7 4.7M16.5 8.25l-.4.35q-2.55 2.15-6.1 2.8-4.45.85-9.1-1.1l.05-1.85 3.75-.3 3.05-.45q5.45-1 8.4-2.85l1.05 2.7-.7.7M-1.9 10.5q-1 1-6.8.45-6.3-.65-8.45-3.3l.8-3.15q3.5 1.85 7.25 2.85L-2 8.4l.1 2.05v.05" fill="#000f6b" fill-rule="evenodd" transform="translate(17.15 11.65)" id="j"/><path d="M-2.3-4.45q-10.25.05-14.35-4.7l-.25-.9q5.75 4.25 7.75 3.75.95 0 1.4-1.8v-.1l2.65.5 2.85.2-.05 3.05m3.55.05-.1-1.4h.05q3.95.3 7.35-.85Q12.3-8 13.3-10.5v-.05l1.2-.6.3-.2.35-.25q.5 1-.2 2.5-3.9 4.75-13.7 4.7m-.5 1.1q9.3.2 14.2-4.3l.3 8.7.75 2.25Q12.7 6.05 4.8 7l-.85.1q-10 1.05-18.6-2.9l9.15.8q-2.85-.95-4.7-1.9L-.5 2v-5.9h.75v.1q.1.5.5.5M15.8 8.6q-2.55 2.15-6.1 2.8l-2 .2-.25-3.9q5.45-1 8.4-2.85l1.05 2.7-.7.7-.4.35m-18 1.9q-.65.6-4.3.55-4.05-.05-7.2-1.1 2.55-1 4.3-2.6l7.1 1.05.1 2.05v.05" fill="#000640" fill-rule="evenodd" transform="translate(16.9 11.6)" id="k"/><g id="l" fill-rule="evenodd"><path d="M-2.5-.5q0-2.35 2.4-2.35 2.45 0 2.45 2.35 0 2.4-2.45 2.4-2.4 0-2.4-2.4" fill="#0f0801" transform="translate(8.3 7.4)"/><path d="M-.1-2.25q1.85 0 1.85 1.75 0 1.8-1.85 1.8-1.8 0-1.8-1.8 0-1.75 1.8-1.75" fill="#f8c606" transform="translate(8.3 7.4)"/><path d="m-.5-2.15-.35.05.75-.15q1.85 0 1.85 1.75 0 1.8-1.85 1.8-1.6 0-1.8-1.65.35 1 1.4 1Q1 .65 1-.75t-1.5-1.4" fill="#b57a06" transform="translate(8.3 7.4)"/><path d="M-.85-1.75Q0-1.75 0-.9 0 0-.85 0q-.8 0-.8-.9 0-.85.8-.85" fill="#fff" transform="translate(8.3 7.4)"/><path d="M-2.5 5.15q0-2.4 2.4-2.4 2.45 0 2.45 2.4Q2.35 7.5-.1 7.5q-2.4 0-2.4-2.35" fill="#0f0801" transform="translate(8.3 7.4)"/><path d="M-.1 3.35q1.85 0 1.85 1.8Q1.75 6.9-.1 6.9q-1.8 0-1.8-1.75 0-1.8 1.8-1.8" fill="#f8c606" transform="translate(8.3 7.4)"/><path d="M-.1 6.9q-1.6 0-1.8-1.65.35 1.05 1.4 1.05Q1 6.3 1 4.9T-.5 3.5l-.35.05.75-.2q1.85 0 1.85 1.8Q1.75 6.9-.1 6.9" fill="#b57a06" transform="translate(8.3 7.4)"/><path d="M-.85 3.85q.85 0 .85.9 0 .85-.85.85-.8 0-.8-.85 0-.9.8-.9" fill="#fff" transform="translate(8.3 7.4)"/><path d="m-2.35-6.7.35.15q.2.2.1.4l-.15 1.7q0 .45-.5.45-4.1-.2-5.45-.75l-.3-.5.15-1.7.2-.35.4-.05 5.2.65" fill="#0f0801" transform="translate(8.3 7.4)"/><path d="m-7.25-6.7 4.45.55-.15 1.45-4.45-.6.15-1.4" fill="#f8c606" transform="translate(8.3 7.4)"/><path d="m-7.4-5.35 3.35.2q.4.05.8-.35l.45-.65-.15 1.45q-3.35 0-4.4-.6l-.05-.05" fill="#b57a06" transform="translate(8.3 7.4)"/><path d="m-7.2-5.95.05-.5.05-.05 1.65.35 1.85.2-.8.1-2.8-.1" fill="#fff" transform="translate(8.3 7.4)"/><path d="m7.6-7.4.45.05.2.35.1 1.7q.05.3-.25.5-1.35.6-5.45.75-.45 0-.55-.45l-.15-1.7.1-.4q.15-.15.35-.15l5.2-.65" fill="#0f0801" transform="translate(8.3 7.4)"/><path d="m7.35-6.75.1 1.4q-1 .5-4.45.6L2.85-6.2l4.5-.55" fill="#f8c606" transform="translate(8.3 7.4)"/><path d="m3-4.75 2-.5 1.35-.5 1-1 .1 1.45-.55.2-.6.05-3.3.3" fill="#b57a06" transform="translate(8.3 7.4)"/><path d="m6.1-5.9-1.55.3-1.45.15L3-6l1.6-.1 1.45.2h.05" fill="#fff" transform="translate(8.3 7.4)"/></g></defs></svg>