<?xml version="1.0" encoding="UTF-8" standalone="no"?>
<svg xmlns:xlink="http://www.w3.org/1999/xlink" height="82.0px" width="84.85px" xmlns="http://www.w3.org/2000/svg">
  <g transform="matrix(1.0, 0.0, 0.0, 1.0, 37.4, 42.25)">
    <use height="38.0" transform="matrix(1.0, 0.0, 0.0, 1.0, -11.95, -17.45)" width="32.05" xlink:href="#sprite0"/>
    <use height="38.95" transform="matrix(1.0, 0.0, 0.0, 1.0, -12.45, -17.95)" width="33.05" xlink:href="#sprite1"/>
    <use height="25.8" transform="matrix(1.0, 0.0, 0.0, 1.0, -13.6, 1.7)" width="36.6" xlink:href="#sprite2"/>
    <use height="23.3" transform="matrix(1.0, 0.0, 0.0, 1.0, -12.45, 3.1)" width="34.35" xlink:href="#sprite3"/>
    <use height="23.2" transform="matrix(1.0, 0.0, 0.0, 1.0, -11.9, 3.15)" width="33.8" xlink:href="#sprite4"/>
    <use height="14.9" transform="matrix(1.0, 0.0, 0.0, 1.0, -3.9, 6.75)" width="16.65" xlink:href="#sprite5"/>
  </g>
  <defs>
    <g id="sprite0" transform="matrix(1.0, 0.0, 0.0, 1.0, -0.05, 0.0)">
      <use height="38.0" transform="matrix(1.0, 0.0, 0.0, 1.0, 0.05, 0.0)" width="32.05" xlink:href="#shape0"/>
    </g>
    <g id="shape0" transform="matrix(1.0, 0.0, 0.0, 1.0, -0.05, 0.0)">
      <path d="M27.35 7.4 Q29.5 11.55 30.9 16.15 32.35 20.85 32.05 25.65 31.7 30.6 27.85 33.75 24.05 36.95 19.1 37.8 L16.5 38.0 Q12.9 38.0 9.45 36.85 4.8 35.25 2.35 31.35 -0.2 27.4 0.05 23.0 0.25 18.6 2.05 13.7 3.85 8.75 7.0 5.05 10.1 1.3 14.7 0.1 L16.5 0.0 Q18.4 0.05 20.2 0.8 24.95 2.85 27.35 7.4" fill="#ecc1c1" fill-rule="evenodd" stroke="none"/>
    </g>
    <g id="sprite1" transform="matrix(1.0, 0.0, 0.0, 1.0, 0.45, 0.5)">
      <use height="38.95" transform="matrix(1.0, 0.0, 0.0, 1.0, -0.45, -0.5)" width="33.05" xlink:href="#shape1"/>
    </g>
    <g id="shape1" transform="matrix(1.0, 0.0, 0.0, 1.0, 0.45, 0.5)">
      <path d="M27.35 7.4 Q24.95 2.85 20.2 0.8 17.55 -0.3 14.7 0.1 10.1 1.3 7.0 5.05 3.85 8.75 2.05 13.7 0.25 18.6 0.05 23.0 -0.2 27.4 2.35 31.35 4.8 35.25 9.45 36.85 14.1 38.4 19.1 37.8 24.05 36.95 27.85 33.75 31.7 30.6 32.05 25.65 32.35 20.85 30.9 16.15 29.5 11.55 27.35 7.4 Z" fill="none" stroke="#000000" stroke-linecap="round" stroke-linejoin="round" stroke-width="1.0"/>
    </g>
    <g id="sprite2" transform="matrix(1.0, 0.0, 0.0, 1.0, 18.35, 12.9)">
      <use height="25.8" transform="matrix(1.0, 0.0, 0.0, 1.0, -18.35, -12.9)" width="36.6" xlink:href="#shape2"/>
    </g>
    <g id="shape2" transform="matrix(1.0, 0.0, 0.0, 1.0, 18.35, 12.9)">
      <path d="M15.5 -12.8 L15.9 -12.9 16.25 -12.6 16.4 -10.55 16.25 -8.75 16.25 -7.1 Q16.35 -1.35 16.6 1.2 L17.4 3.55 17.25 4.15 17.0 4.35 Q17.65 6.5 18.25 7.55 L18.2 8.2 Q16.3 10.2 13.1 11.6 6.7 14.3 0.05 11.35 L-0.25 10.9 -0.15 8.6 -0.95 8.6 -0.85 10.95 -1.0 11.3 Q-2.1 12.45 -7.8 12.15 -15.7 11.75 -18.25 8.3 L-18.35 7.75 Q-17.8 6.25 -17.35 4.1 L-17.55 3.65 -17.55 3.5 -16.95 1.45 -16.95 1.25 Q-17.2 -0.15 -17.45 -9.0 L-17.65 -10.55 -17.5 -12.65 -17.15 -12.9 -16.7 -12.8 Q-10.45 -8.25 -1.5 -8.45 L-1.1 -8.3 -0.95 -7.9 -1.0 -4.75 0.5 -4.75 0.4 -7.85 0.55 -8.2 0.9 -8.35 Q9.5 -8.2 15.5 -12.8" fill="#020202" fill-rule="evenodd" stroke="none"/>
    </g>
    <g id="sprite3" transform="matrix(1.0, 0.0, 0.0, 1.0, 17.15, 11.65)">
      <use height="23.3" transform="matrix(1.0, 0.0, 0.0, 1.0, -17.15, -11.65)" width="34.35" xlink:href="#shape3"/>
    </g>
    <g id="shape3" transform="matrix(1.0, 0.0, 0.0, 1.0, 17.15, 11.65)">
      <path d="M-16.55 -11.65 Q-12.5 -9.1 -7.45 -8.1 L-7.45 -8.2 -4.8 -7.7 -1.95 -7.5 -2.0 -4.45 Q-12.25 -4.4 -16.35 -9.15 -17.05 -10.6 -16.55 -11.65 M-0.2 -3.9 L0.55 -3.9 0.55 -3.8 Q0.65 -3.3 1.05 -3.3 10.35 -3.1 15.25 -7.6 L15.55 1.1 16.3 3.35 Q13.0 6.05 5.1 7.0 L4.25 7.1 Q-5.75 8.15 -14.35 4.2 L-16.35 3.2 -15.85 1.3 Q-16.05 0.8 -16.3 -7.6 -11.1 -3.1 -1.5 -3.4 -1.1 -3.4 -1.0 -3.85 L-0.2 -3.85 -0.2 -3.9 M1.55 -4.4 L1.45 -5.8 1.5 -5.8 1.45 -7.45 Q8.25 -7.65 13.6 -10.5 L13.6 -10.55 14.8 -11.15 15.1 -11.35 15.45 -11.6 Q15.95 -10.6 15.25 -9.1 11.35 -4.35 1.55 -4.4 M16.5 8.25 L16.1 8.6 Q13.55 10.75 10.0 11.4 5.55 12.25 0.9 10.3 L0.95 8.45 4.7 8.15 7.75 7.7 Q13.2 6.7 16.15 4.85 L17.2 7.55 16.5 8.25 M-1.9 10.5 Q-2.9 11.5 -8.7 10.95 -15.0 10.3 -17.15 7.65 L-16.35 4.5 Q-12.85 6.35 -9.1 7.35 L-2.0 8.4 -1.9 10.45 -1.9 10.5" fill="#323333" fill-rule="evenodd" stroke="none"/>
    </g>
    <g id="sprite4" transform="matrix(1.0, 0.0, 0.0, 1.0, 16.9, 11.6)">
      <use height="23.2" transform="matrix(1.0, 0.0, 0.0, 1.0, -16.9, -11.6)" width="33.8" xlink:href="#shape4"/>
    </g>
    <g id="shape4" transform="matrix(1.0, 0.0, 0.0, 1.0, 16.9, 11.6)">
      <path d="M-2.3 -4.45 Q-12.55 -4.4 -16.65 -9.15 L-16.9 -10.05 Q-11.15 -5.8 -9.15 -6.3 -8.2 -6.3 -7.75 -8.1 L-7.75 -8.2 -5.1 -7.7 -2.25 -7.5 -2.3 -4.45 M1.25 -4.4 L1.15 -5.8 1.2 -5.8 Q5.15 -5.5 8.55 -6.65 12.3 -8.0 13.3 -10.5 L13.3 -10.55 14.5 -11.15 14.8 -11.35 15.15 -11.6 Q15.65 -10.6 14.95 -9.1 11.05 -4.35 1.25 -4.4 M0.75 -3.3 Q10.05 -3.1 14.95 -7.6 L15.25 1.1 16.0 3.35 Q12.7 6.05 4.8 7.0 L3.95 7.1 Q-6.05 8.15 -14.65 4.2 L-5.5 5.0 Q-8.35 4.05 -10.2 3.1 L-0.5 2.0 -0.5 -3.9 0.25 -3.9 0.25 -3.8 Q0.35 -3.3 0.75 -3.3 M15.8 8.6 Q13.25 10.75 9.7 11.4 L7.7 11.6 7.45 7.7 Q12.9 6.7 15.85 4.85 L16.9 7.55 16.2 8.25 15.8 8.6 M-2.2 10.5 Q-2.85 11.1 -6.5 11.05 -10.55 11.0 -13.7 9.95 -11.15 8.95 -9.4 7.35 L-2.3 8.4 -2.2 10.45 -2.2 10.5" fill="#141616" fill-rule="evenodd" stroke="none"/>
    </g>
    <g id="sprite5" transform="matrix(1.0, 0.0, 0.0, 1.0, 8.3, 7.4)">
      <use height="14.9" transform="matrix(1.0, 0.0, 0.0, 1.0, -8.3, -7.4)" width="16.65" xlink:href="#shape5"/>
    </g>
    <g id="shape5" transform="matrix(1.0, 0.0, 0.0, 1.0, 8.3, 7.4)">
      <path d="M-2.5 -0.5 Q-2.5 -2.85 -0.1 -2.85 2.35 -2.85 2.35 -0.5 2.35 1.9 -0.1 1.9 -2.5 1.9 -2.5 -0.5" fill="#0f0801" fill-rule="evenodd" stroke="none"/>
      <path d="M-0.1 -2.25 Q1.75 -2.25 1.75 -0.5 1.75 1.3 -0.1 1.3 -1.9 1.3 -1.9 -0.5 -1.9 -2.25 -0.1 -2.25" fill="#f8c606" fill-rule="evenodd" stroke="none"/>
      <path d="M-0.5 -2.15 L-0.85 -2.1 -0.1 -2.25 Q1.75 -2.25 1.75 -0.5 1.75 1.3 -0.1 1.3 -1.7 1.3 -1.9 -0.35 -1.55 0.65 -0.5 0.65 1.0 0.65 1.0 -0.75 1.0 -2.15 -0.5 -2.15" fill="#b57a06" fill-rule="evenodd" stroke="none"/>
      <path d="M-0.85 -1.75 Q0.0 -1.75 0.0 -0.9 0.0 0.0 -0.85 0.0 -1.65 0.0 -1.65 -0.9 -1.65 -1.75 -0.85 -1.75" fill="#ffffff" fill-rule="evenodd" stroke="none"/>
      <path d="M-2.5 5.15 Q-2.5 2.75 -0.1 2.75 2.35 2.75 2.35 5.15 2.35 7.5 -0.1 7.5 -2.5 7.5 -2.5 5.15" fill="#0f0801" fill-rule="evenodd" stroke="none"/>
      <path d="M-0.1 3.35 Q1.75 3.35 1.75 5.15 1.75 6.9 -0.1 6.9 -1.9 6.9 -1.9 5.15 -1.9 3.35 -0.1 3.35" fill="#f8c606" fill-rule="evenodd" stroke="none"/>
      <path d="M-0.1 6.9 Q-1.7 6.9 -1.9 5.25 -1.55 6.3 -0.5 6.3 1.0 6.3 1.0 4.9 1.0 3.5 -0.5 3.5 L-0.85 3.55 -0.1 3.35 Q1.75 3.35 1.75 5.15 1.75 6.9 -0.1 6.9" fill="#b57a06" fill-rule="evenodd" stroke="none"/>
      <path d="M-0.85 3.85 Q0.0 3.85 0.0 4.75 0.0 5.6 -0.85 5.6 -1.65 5.6 -1.65 4.75 -1.65 3.85 -0.85 3.85" fill="#ffffff" fill-rule="evenodd" stroke="none"/>
      <path d="M-2.35 -6.7 L-2.0 -6.55 Q-1.8 -6.35 -1.9 -6.15 L-2.05 -4.45 Q-2.05 -4.0 -2.55 -4.0 -6.65 -4.2 -8.0 -4.75 L-8.3 -5.25 -8.15 -6.95 -7.95 -7.3 -7.55 -7.35 -2.35 -6.7" fill="#0f0801" fill-rule="evenodd" stroke="none"/>
      <path d="M-7.25 -6.7 L-2.8 -6.15 -2.95 -4.7 -7.4 -5.3 -7.25 -6.7" fill="#f8c606" fill-rule="evenodd" stroke="none"/>
      <path d="M-7.4 -5.35 L-4.05 -5.15 Q-3.65 -5.1 -3.25 -5.5 L-2.8 -6.15 -2.95 -4.7 Q-6.3 -4.7 -7.35 -5.3 L-7.4 -5.35" fill="#b57a06" fill-rule="evenodd" stroke="none"/>
      <path d="M-7.2 -5.95 L-7.15 -6.45 -7.1 -6.5 -5.45 -6.15 -3.6 -5.95 -4.4 -5.85 -7.2 -5.95" fill="#ffffff" fill-rule="evenodd" stroke="none"/>
      <path d="M7.6 -7.4 L8.05 -7.35 8.25 -7.0 8.35 -5.3 Q8.4 -5.0 8.1 -4.8 6.75 -4.2 2.65 -4.05 2.2 -4.05 2.1 -4.5 L1.95 -6.2 2.05 -6.6 Q2.2 -6.75 2.4 -6.75 L7.6 -7.4" fill="#0f0801" fill-rule="evenodd" stroke="none"/>
      <path d="M7.35 -6.75 L7.45 -5.35 Q6.45 -4.85 3.0 -4.75 L2.85 -6.2 7.35 -6.75" fill="#f8c606" fill-rule="evenodd" stroke="none"/>
      <path d="M3.0 -4.75 L5.0 -5.25 6.35 -5.75 7.35 -6.75 7.45 -5.3 6.9 -5.1 6.3 -5.05 3.0 -4.75" fill="#b57a06" fill-rule="evenodd" stroke="none"/>
      <path d="M6.1 -5.9 L4.55 -5.6 3.1 -5.45 3.0 -6.0 4.6 -6.1 6.05 -5.9 6.1 -5.9" fill="#ffffff" fill-rule="evenodd" stroke="none"/>
    </g>
  </defs>
</svg>
