<?xml version="1.0" encoding="UTF-8" standalone="no"?>
<svg xmlns:xlink="http://www.w3.org/1999/xlink" height="82.0px" width="84.85px" xmlns="http://www.w3.org/2000/svg">
  <g transform="matrix(1.0, 0.0, 0.0, 1.0, 37.4, 42.25)">
    <use height="38.0" transform="matrix(1.0, 0.0, 0.0, 1.0, -11.95, -17.45)" width="32.05" xlink:href="#sprite0"/>
    <use height="38.95" transform="matrix(1.0, 0.0, 0.0, 1.0, -12.45, -17.95)" width="33.05" xlink:href="#sprite1"/>
    <use height="24.8" transform="matrix(1.0, 0.0, 0.0, 1.0, -19.0, 0.15)" width="45.7" xlink:href="#shape2"/>
  </g>
  <defs>
    <g id="sprite0" transform="matrix(1.0, 0.0, 0.0, 1.0, -0.05, 0.0)">
      <use height="38.0" transform="matrix(1.0, 0.0, 0.0, 1.0, 0.05, 0.0)" width="32.05" xlink:href="#shape0"/>
    </g>
    <g id="shape0" transform="matrix(1.0, 0.0, 0.0, 1.0, -0.05, 0.0)">
      <path d="M27.35 7.4 Q29.5 11.55 30.9 16.15 32.35 20.85 32.05 25.65 31.7 30.6 27.85 33.75 24.05 36.95 19.1 37.8 L16.5 38.0 Q12.9 38.0 9.45 36.85 4.8 35.25 2.35 31.35 -0.2 27.4 0.05 23.0 0.25 18.6 2.05 13.7 3.85 8.75 7.0 5.05 10.1 1.3 14.7 0.1 L16.5 0.0 Q18.4 0.05 20.2 0.8 24.95 2.85 27.35 7.4" fill="#d67979" fill-rule="evenodd" stroke="none"/>
    </g>
    <g id="sprite1" transform="matrix(1.0, 0.0, 0.0, 1.0, 0.45, 0.5)">
      <use height="38.95" transform="matrix(1.0, 0.0, 0.0, 1.0, -0.45, -0.5)" width="33.05" xlink:href="#shape1"/>
    </g>
    <g id="shape1" transform="matrix(1.0, 0.0, 0.0, 1.0, 0.45, 0.5)">
      <path d="M27.35 7.4 Q24.95 2.85 20.2 0.8 17.55 -0.3 14.7 0.1 10.1 1.3 7.0 5.05 3.85 8.75 2.05 13.7 0.25 18.6 0.05 23.0 -0.2 27.4 2.35 31.35 4.8 35.25 9.45 36.85 14.1 38.4 19.1 37.8 24.05 36.95 27.85 33.75 31.7 30.6 32.05 25.65 32.35 20.85 30.9 16.15 29.5 11.55 27.35 7.4 Z" fill="none" stroke="#000000" stroke-linecap="round" stroke-linejoin="round" stroke-width="1.0"/>
    </g>
    <g id="shape2" transform="matrix(1.0, 0.0, 0.0, 1.0, 19.0, -0.15)">
      <path d="M24.45 21.65 L24.15 22.5 Q23.0 23.7 15.15 24.4 L4.8 24.95 2.9 24.95 Q-14.5 24.95 -16.7 22.6 L-17.05 21.7 Q-15.5 18.3 -14.7 16.15 L-17.15 16.05 Q-19.85 14.4 -18.65 10.2 -17.7 7.1 -14.95 3.6 -12.2 0.1 -10.75 0.15 -9.5 0.2 -7.2 1.75 -2.15 5.1 3.8 5.1 9.85 5.1 14.85 1.75 17.15 0.2 18.4 0.15 19.85 0.1 22.65 3.6 25.4 7.15 26.3 10.2 27.55 14.35 24.75 16.1 L22.15 16.15 24.45 21.65" fill="#0d090e" fill-rule="evenodd" stroke="none"/>
      <path d="M20.3 13.7 L23.6 21.7 Q23.65 22.6 17.0 23.4 L4.8 24.1 2.9 24.1 -9.4 23.45 Q-16.25 22.7 -16.2 21.75 L-12.75 13.55 Q-14.7 16.35 -16.7 15.35 -20.0 13.3 -16.25 7.0 -12.7 0.95 -10.75 1.0 -10.2 1.0 -6.0 3.5 -1.9 5.95 3.8 5.95 9.5 5.95 13.7 3.5 17.95 1.0 18.45 1.0 20.4 0.95 23.95 7.0 27.65 13.3 24.35 15.35 22.35 16.35 20.3 13.7" fill="#825540" fill-rule="evenodd" stroke="none"/>
      <path d="M-13.7 6.25 Q-11.5 6.6 -12.75 10.75 -14.0 14.85 -15.95 14.5 -17.9 14.2 -16.9 10.05 -15.9 5.9 -13.7 6.25" fill="#3a1917" fill-rule="evenodd" stroke="none"/>
      <path d="M21.45 6.25 Q23.6 5.9 24.6 10.05 25.6 14.2 23.7 14.5 21.75 14.85 20.5 10.75 19.25 6.6 21.45 6.25" fill="#3a1917" fill-rule="evenodd" stroke="none"/>
      <path d="M20.55 17.15 Q21.5 20.55 20.9 20.5 20.45 20.5 19.3 17.8 18.2 15.2 17.9 15.35 17.55 15.55 18.55 18.3 L19.4 21.2 Q17.65 22.3 16.65 21.95 16.2 21.75 15.0 18.95 13.85 16.15 13.55 16.1 13.15 16.0 13.35 17.5 13.55 18.95 13.9 19.35 14.25 19.75 14.2 20.65 14.15 21.6 13.65 22.0 11.2 24.0 10.3 23.45 L7.6 20.65 Q5.2 18.2 4.9 18.45 2.8 22.75 2.3 23.0 1.65 23.3 0.3 22.6 -0.1 22.4 -0.85 22.9 -1.55 23.4 -1.85 23.25 -2.15 23.1 -2.3 22.0 -2.45 20.9 -2.7 20.85 -3.7 22.2 -4.2 22.1 -4.4 22.05 -4.0 19.15 -3.6 16.25 -4.0 16.25 -4.4 16.25 -5.7 19.1 -7.0 21.9 -7.25 21.85 -7.5 21.8 -7.2 18.7 -6.95 15.55 -7.2 15.35 -7.45 15.15 -8.55 16.6 -9.65 17.95 -9.75 17.7 L-8.95 12.85 -7.2 8.95 Q-6.95 8.95 -6.6 7.85 -6.0 7.7 -5.2 9.2 -4.6 9.1 -4.7 6.5 -4.5 6.5 -3.9 7.85 -3.3 9.25 -2.95 9.2 -2.6 9.15 -2.45 7.9 -2.3 6.7 -2.0 6.75 -1.45 6.95 -0.2 9.7 0.25 9.7 0.65 8.1 L1.25 9.15 Q1.7 10.05 2.15 9.85 2.9 9.5 3.05 7.7 L3.65 8.95 Q4.0 10.05 4.5 9.85 5.3 9.5 5.8 7.85 L6.35 8.7 Q6.7 9.4 7.15 9.25 7.9 9.0 9.0 6.75 8.5 9.5 9.3 9.2 L10.85 7.5 Q11.9 6.05 12.25 6.1 12.55 6.15 12.3 7.3 12.0 8.45 12.4 8.45 13.15 8.45 15.05 5.2 14.65 8.35 15.3 7.75 L17.05 4.95 Q17.4 4.95 18.9 12.25 L20.55 17.15" fill="#5d3021" fill-rule="evenodd" stroke="none"/>
      <path d="M4.25 10.4 Q11.0 10.35 18.7 7.9 L20.0 12.1 19.95 12.15 Q13.0 14.75 4.55 14.85 L4.15 14.85 Q-1.25 14.8 -6.85 13.5 L-11.55 12.15 -12.3 11.9 -11.2 7.6 -10.35 7.9 -5.55 9.15 Q0.0 10.35 4.25 10.4" fill="#0d090e" fill-rule="evenodd" stroke="none"/>
      <path d="M4.25 11.25 Q11.2 11.2 19.0 8.7 L19.65 11.35 Q12.85 13.95 4.35 14.0 L4.15 14.0 Q-1.2 13.95 -6.95 12.65 L-11.6 11.3 -10.7 8.65 -5.85 9.95 Q-0.1 11.2 4.25 11.25" fill="#825540" fill-rule="evenodd" stroke="none"/>
      <path d="M1.9 10.5 Q2.2 10.1 3.45 9.7 L5.4 9.5 Q6.15 9.7 7.55 10.85 8.95 12.05 8.9 12.5 L8.55 14.95 10.8 18.25 Q12.8 21.35 12.5 21.75 11.75 22.8 8.3 23.7 7.55 23.85 4.8 17.0 1.5 22.2 1.15 22.1 -3.2 20.5 -2.95 19.85 L1.15 14.5 Q0.3 13.85 0.5 12.95 L1.9 10.5" fill="#0d090e" fill-rule="evenodd" stroke="none"/>
      <path d="M2.55 11.1 Q3.7 9.95 5.15 10.35 5.65 10.45 6.75 11.35 L8.05 12.6 7.65 15.1 8.4 16.15 Q10.65 19.1 11.6 21.4 10.3 22.25 8.45 22.75 7.75 21.9 5.6 16.7 L5.0 15.2 4.1 16.55 0.95 21.15 -1.9 19.8 1.75 15.1 2.35 14.45 1.7 13.85 Q1.3 13.55 1.3 13.15 L1.3 13.1 Q1.45 12.3 2.55 11.1" fill="#825540" fill-rule="evenodd" stroke="none"/>
      <path d="M-15.2 15.6 Q-13.1 15.6 -11.5 9.5 -11.7 10.55 -11.55 11.65 L-13.25 14.8 -15.7 19.95 -14.5 15.85 -15.2 15.6" fill="#0d090e" fill-rule="evenodd" stroke="none"/>
      <path d="M22.55 15.4 L21.9 15.85 23.05 19.95 Q19.75 14.2 18.9 9.5 19.15 10.45 19.85 11.6 21.25 15.3 22.55 15.4" fill="#0d090e" fill-rule="evenodd" stroke="none"/>
      <path d="M18.1 9.55 Q18.9 11.6 18.7 11.7 14.3 13.25 8.7 13.7 L8.85 12.2 12.35 11.9 18.1 9.55" fill="#5d3021" fill-rule="evenodd" stroke="none"/>
      <path d="M0.65 13.85 Q-6.45 13.1 -9.4 12.0 L-4.65 12.35 Q-8.85 10.9 -8.9 10.65 L0.75 12.3 0.45 13.2 0.65 13.85" fill="#5d3021" fill-rule="evenodd" stroke="none"/>
      <path d="M7.7 14.5 L7.7 15.25 Q10.2 19.35 9.9 19.25 L8.95 18.3 Q8.2 17.55 8.2 17.95 9.25 21.7 8.75 21.4 L5.8 15.35 Q6.75 15.5 7.7 14.5" fill="#5d3021" fill-rule="evenodd" stroke="none"/>
      <path d="M4.85 15.3 L1.7 20.0 2.05 18.1 Q2.15 17.7 1.2 18.35 L0.0 19.0 2.45 16.25 Q3.35 15.35 2.35 14.45 3.7 15.5 4.85 15.3" fill="#5d3021" fill-rule="evenodd" stroke="none"/>
      <path d="M8.05 12.6 L7.7 14.5 Q6.9 15.6 4.15 15.35 3.2 15.3 2.3 14.45 L1.65 13.6 4.2 14.25 Q5.0 14.05 5.0 12.5 L6.45 12.55 Q7.0 12.4 6.4 11.4 L8.05 12.6" fill="#5d3021" fill-rule="evenodd" stroke="none"/>
      <path d="M4.0 10.65 Q4.6 10.75 5.1 11.15 5.6 11.55 5.1 11.6 L3.4 12.85 Q2.9 13.1 1.9 12.4 1.45 12.05 2.75 11.0 L4.0 10.65" fill="#b87c62" fill-rule="evenodd" stroke="none"/>
      <path d="M1.05 11.5 L-8.65 9.6 Q-10.1 9.55 -10.2 10.55 -10.3 11.4 -10.95 11.25 -11.15 11.15 -11.0 10.0 -10.9 8.8 -10.45 8.85 L1.3 11.1 1.05 11.5" fill="#b87c62" fill-rule="evenodd" stroke="none"/>
      <path d="M7.9 11.1 L15.8 9.5 Q15.2 10.2 11.5 11.05 L7.9 11.1" fill="#b87c62" fill-rule="evenodd" stroke="none"/>
      <path d="M-16.0 21.75 Q-16.3 21.15 -14.05 16.65 L-11.75 12.25 Q-13.2 16.25 -12.7 15.75 L-10.7 13.5 -12.4 17.35 Q-13.95 20.8 -13.5 20.6 -12.75 20.3 -10.75 18.9 L-11.55 21.1 Q-12.4 22.95 -12.75 22.9 -15.65 22.65 -16.0 21.75" fill="#b87c62" fill-rule="evenodd" stroke="none"/>
      <path d="M-10.5 23.25 Q-11.0 23.0 -8.1 19.25 -7.4 23.35 -8.1 23.4 L-10.5 23.25" fill="#b87c62" fill-rule="evenodd" stroke="none"/>
      <path d="M-5.5 20.4 Q-5.25 23.65 -5.45 23.65 L-6.9 23.6 Q-7.4 23.55 -5.5 20.4" fill="#b87c62" fill-rule="evenodd" stroke="none"/>
      <path d="M4.25 22.0 L5.1 24.0 3.1 24.05 Q4.0 21.95 4.25 22.0" fill="#b87c62" fill-rule="evenodd" stroke="none"/>
      <path d="M19.9 13.25 L23.6 21.55 Q23.9 22.4 21.8 22.5 22.55 21.6 22.5 21.15 L19.9 13.25" fill="#b87c62" fill-rule="evenodd" stroke="none"/>
      <path d="M-16.95 8.5 Q-18.25 14.25 -14.5 15.2 -16.0 16.3 -17.75 14.2 -18.6 13.2 -17.85 10.75 L-16.95 8.5" fill="#b87c62" fill-rule="evenodd" stroke="none"/>
      <path d="M19.8 11.0 Q20.75 13.6 23.05 14.35 24.15 14.7 25.9 12.25 25.55 15.6 23.3 15.5 21.6 15.45 20.5 13.2 L19.8 11.0" fill="#b87c62" fill-rule="evenodd" stroke="none"/>
    </g>
  </defs>
</svg>
