<?xml version="1.0" encoding="UTF-8" standalone="no"?>
<svg xmlns:xlink="http://www.w3.org/1999/xlink" height="82.0px" width="84.85px" xmlns="http://www.w3.org/2000/svg">
  <g transform="matrix(1.0, 0.0, 0.0, 1.0, 37.4, 42.25)">
    <use height="38.0" transform="matrix(1.0, 0.0, 0.0, 1.0, -11.95, -17.45)" width="32.05" xlink:href="#sprite0"/>
    <use height="38.95" transform="matrix(1.0, 0.0, 0.0, 1.0, -12.45, -17.95)" width="33.05" xlink:href="#sprite1"/>
    <use height="21.65" transform="matrix(1.0, 0.0, 0.0, 1.0, -17.15, 0.15)" width="41.8" xlink:href="#sprite2"/>
    <use height="9.65" transform="matrix(1.0, 0.0, 0.0, 1.0, -11.85, 0.85)" width="31.55" xlink:href="#sprite3"/>
    <use height="18.8" transform="matrix(1.0, 0.0, 0.0, 1.0, -16.1, 1.9)" width="39.65" xlink:href="#sprite4"/>
    <use height="7.85" transform="matrix(1.0, 0.0, 0.0, 1.0, -12.55, 18.6)" width="32.85" xlink:href="#sprite5"/>
    <use height="2.9" transform="matrix(1.0, 0.0, 0.0, 1.0, -4.7, 6.7)" width="17.05" xlink:href="#sprite6"/>
    <use height="2.15" transform="matrix(1.0, 0.0, 0.0, 1.0, -3.95, 7.05)" width="15.15" xlink:href="#sprite7"/>
    <use height="14.55" transform="matrix(1.0, 0.0, 0.0, 1.0, -10.45, 4.35)" width="32.15" xlink:href="#sprite8"/>
    <use height="8.3" transform="matrix(1.0, 0.0, 0.0, 1.0, -3.25, 11.6)" width="17.6" xlink:href="#sprite9"/>
  </g>
  <defs>
    <g id="sprite0" transform="matrix(1.0, 0.0, 0.0, 1.0, -0.05, 0.0)">
      <use height="38.0" transform="matrix(1.0, 0.0, 0.0, 1.0, 0.05, 0.0)" width="32.05" xlink:href="#shape0"/>
    </g>
    <g id="shape0" transform="matrix(1.0, 0.0, 0.0, 1.0, -0.05, 0.0)">
      <path d="M27.35 7.4 Q29.5 11.55 30.9 16.15 32.35 20.85 32.05 25.65 31.7 30.6 27.85 33.75 24.05 36.95 19.1 37.8 L16.5 38.0 Q12.9 38.0 9.45 36.85 4.8 35.25 2.35 31.35 -0.2 27.4 0.05 23.0 0.25 18.6 2.05 13.7 3.85 8.75 7.0 5.05 10.1 1.3 14.7 0.1 L16.5 0.0 Q18.4 0.05 20.2 0.8 24.95 2.85 27.35 7.4" fill="#d06767" fill-rule="evenodd" stroke="none"/>
    </g>
    <g id="sprite1" transform="matrix(1.0, 0.0, 0.0, 1.0, 0.45, 0.5)">
      <use height="38.95" transform="matrix(1.0, 0.0, 0.0, 1.0, -0.45, -0.5)" width="33.05" xlink:href="#shape1"/>
    </g>
    <g id="shape1" transform="matrix(1.0, 0.0, 0.0, 1.0, 0.45, 0.5)">
      <path d="M27.35 7.4 Q24.95 2.85 20.2 0.8 17.55 -0.3 14.7 0.1 10.1 1.3 7.0 5.05 3.85 8.75 2.05 13.7 0.25 18.6 0.05 23.0 -0.2 27.4 2.35 31.35 4.8 35.25 9.45 36.85 14.1 38.4 19.1 37.8 24.05 36.95 27.85 33.75 31.7 30.6 32.05 25.65 32.35 20.85 30.9 16.15 29.5 11.55 27.35 7.4 Z" fill="none" stroke="#000000" stroke-linecap="round" stroke-linejoin="round" stroke-width="1.0"/>
    </g>
    <g id="sprite2" transform="matrix(1.0, 0.0, 0.0, 1.0, 20.9, 10.75)">
      <use height="21.65" transform="matrix(1.0, 0.0, 0.0, 1.0, -20.9, -10.75)" width="41.8" xlink:href="#shape2"/>
    </g>
    <g id="shape2" transform="matrix(1.0, 0.0, 0.0, 1.0, 20.9, 10.75)">
      <path d="M1.45 -2.7 L4.1 -3.65 7.0 -4.4 Q8.3 -4.85 9.9 -5.9 L12.3 -8.2 Q13.5 -10.05 14.45 -10.6 L15.8 -10.75 Q16.8 -10.35 16.75 -9.85 L16.2 -8.65 15.5 -7.6 Q14.6 -6.15 13.35 -5.0 L10.7 -3.1 Q8.85 -2.0 8.0 -1.65 L5.05 -0.65 3.5 -0.45 2.75 -0.6 2.4 -0.7 2.35 -0.7 2.25 -0.75 Q1.95 -0.95 1.7 -1.5 L1.55 -2.15 1.45 -2.7" fill="#000000" fill-rule="evenodd" stroke="none"/>
      <path d="M-11.3 -7.5 Q-10.35 -6.55 -8.8 -5.7 -6.6 -4.6 -2.3 -3.5 L-1.4 -3.25 Q-1.0 -3.15 -0.75 -2.55 -0.2 -1.45 -0.65 -0.55 L-3.85 -0.65 -7.75 -1.2 Q-13.55 -2.55 -15.45 -6.5 L-15.55 -7.0 -15.4 -7.6 -16.0 -8.4 -15.7 -8.5 -16.3 -8.95 -16.3 -9.45 -15.2 -10.25 Q-14.6 -10.85 -14.3 -10.6 L-13.9 -10.15 -13.4 -9.7 -12.4 -8.65 -11.3 -7.5" fill="#000000" fill-rule="evenodd" stroke="none"/>
      <path d="M2.1 -0.85 L2.65 -0.95 3.1 -1.05 4.35 -1.15 5.8 -1.4 7.05 -1.85 8.7 -2.85 10.7 -4.15 12.75 -5.9 14.25 -7.5 15.45 -8.4 16.5 -8.85 17.0 -7.8 Q17.25 -7.2 17.7 -7.05 L18.45 -6.5 19.45 -5.8 20.4 -4.85 20.9 -3.85 20.9 -3.3 20.65 -2.85 Q20.2 -2.2 19.85 -2.25 L17.6 -2.05 Q16.4 -1.7 15.95 -0.15 15.65 0.8 15.8 1.8 L16.1 3.7 15.9 5.65 15.8 7.4 15.6 7.85 Q15.2 8.2 14.75 8.5 L9.1 9.85 6.9 10.4 4.55 10.7 2.5 10.85 0.0 10.9 -2.55 10.75 -5.1 10.35 -7.5 10.05 -10.0 9.45 -12.85 8.85 -14.2 9.0 -14.55 8.75 -14.7 8.3 -14.75 4.75 -14.9 3.6 -15.0 3.05 -15.0 2.5 -14.75 1.05 Q-14.6 0.35 -15.45 -0.15 -16.0 -0.55 -17.1 -0.65 -19.1 -0.85 -19.4 -1.15 L-20.5 -2.95 Q-21.25 -4.35 -20.6 -4.95 L-18.6 -6.55 -16.95 -7.95 Q-16.15 -8.85 -15.35 -8.85 L-15.45 -8.8 -15.05 -8.55 -14.6 -8.1 -14.15 -7.4 -13.65 -6.9 Q-11.8 -4.95 -10.75 -4.45 L-8.6 -3.2 -7.1 -2.5 -5.6 -1.95 -2.85 -1.0 -1.05 -0.5 0.6 0.65 Q1.35 0.55 2.1 -0.85" fill="#000000" fill-rule="evenodd" stroke="none"/>
    </g>
    <g id="sprite3" transform="matrix(1.0, 0.0, 0.0, 1.0, 15.75, 4.8)">
      <use height="9.65" transform="matrix(1.0, 0.0, 0.0, 1.0, -15.75, -4.8)" width="31.55" xlink:href="#shape3"/>
    </g>
    <g id="shape3" transform="matrix(1.0, 0.0, 0.0, 1.0, 15.75, 4.8)">
      <path d="M-15.7 -3.85 Q-15.85 -4.65 -14.9 -4.65 -14.4 -4.65 -13.9 -3.75 -13.6 -3.1 -11.5 -1.35 -8.9 0.85 -6.65 1.5 L-3.2 2.35 Q-2.05 2.7 -1.95 2.85 -1.8 3.1 -1.8 3.5 -1.65 4.05 -1.8 4.3 L-3.15 4.45 -4.65 4.2 -7.6 3.3 -10.25 2.1 -12.65 0.5 -14.55 -1.8 Q-16.05 -3.3 -15.7 -3.85" fill="#efa707" fill-rule="evenodd" stroke="none"/>
      <path d="M14.65 -4.35 L15.15 -4.8 15.6 -4.45 15.8 -3.85 Q15.4 -1.55 13.75 0.05 L10.05 2.85 Q7.7 4.25 5.85 4.7 4.1 5.15 2.5 4.3 L2.6 3.65 Q2.4 3.0 2.55 2.85 L3.25 2.75 4.0 2.6 Q5.2 2.5 6.8 1.85 8.5 1.2 9.6 0.45 L12.0 -1.3 14.65 -4.35" fill="#efa707" fill-rule="evenodd" stroke="none"/>
    </g>
    <g id="sprite4" transform="matrix(1.0, 0.0, 0.0, 1.0, 19.8, 9.45)">
      <use height="18.8" transform="matrix(1.0, 0.0, 0.0, 1.0, -19.8, -9.45)" width="39.65" xlink:href="#shape4"/>
    </g>
    <g id="shape4" transform="matrix(1.0, 0.0, 0.0, 1.0, 19.8, 9.45)">
      <path d="M-15.1 -1.1 Q-16.25 -5.85 -16.0 -7.4 L-15.35 -9.45 -11.6 -5.5 Q-7.25 -1.8 -1.85 -1.35 L-1.25 -1.1 -0.65 -0.2 Q0.0 0.5 0.55 0.5 1.75 0.45 2.4 -1.2 L3.0 -1.45 Q8.35 -1.9 12.4 -5.5 L15.85 -9.3 16.45 -6.65 Q16.6 -4.7 16.25 -0.9 L16.05 2.55 Q15.05 6.45 15.25 6.4 L13.25 7.5 10.95 8.35 6.2 9.2 0.65 9.35 0.5 9.35 -6.45 9.15 Q-9.6 8.7 -10.6 8.05 L-13.8 7.6 -14.0 4.8 -14.25 2.1 -15.1 -1.1" fill="#000000" fill-rule="evenodd" stroke="none"/>
      <path d="M-15.7 -8.85 L-14.85 -5.95 Q-13.8 -4.9 -13.75 -4.45 -13.65 -3.3 -13.8 -2.4 -14.15 1.05 -15.7 0.9 -16.15 0.85 -18.6 -1.8 -20.7 -4.25 -19.15 -5.8 -16.25 -7.5 -15.7 -8.85" fill="#000000" fill-rule="evenodd" stroke="none"/>
      <path d="M15.75 -8.85 Q16.3 -7.5 19.2 -5.8 20.75 -4.25 18.65 -1.8 16.2 0.85 15.75 0.9 14.2 1.05 13.85 -2.4 13.7 -3.3 13.8 -4.45 13.85 -4.9 14.9 -5.95 L15.75 -8.85" fill="#000000" fill-rule="evenodd" stroke="none"/>
    </g>
    <g id="sprite5" transform="matrix(1.0, 0.0, 0.0, 1.0, 16.4, 3.85)">
      <use height="7.85" transform="matrix(1.0, 0.0, 0.0, 1.0, -16.4, -3.85)" width="32.85" xlink:href="#shape5"/>
    </g>
    <g id="shape5" transform="matrix(1.0, 0.0, 0.0, 1.0, 16.4, 3.85)">
      <path d="M4.4 -2.05 L6.65 -2.35 8.4 -2.75 10.8 -3.35 12.35 -3.85 14.45 -3.8 15.2 -3.2 15.9 -2.35 16.0 -1.8 15.75 -1.35 15.45 -0.75 15.8 -0.5 Q16.6 -0.3 16.45 0.4 L16.0 1.35 Q16.45 1.45 16.25 2.1 L15.55 2.85 14.35 3.25 10.85 3.55 8.95 3.65 5.75 3.7 2.65 3.65 1.55 3.35 1.15 3.1 Q1.1 2.95 1.3 2.75 L1.6 2.2 1.35 1.8 0.25 1.65 Q-0.55 1.65 -0.55 2.15 L-0.45 2.7 -0.5 3.3 Q-0.6 3.95 -1.05 4.0 L-1.9 3.95 -2.75 3.85 -9.3 3.45 -13.2 3.5 -15.6 3.4 -16.2 3.1 -16.35 3.0 -16.4 2.75 -15.95 1.85 Q-15.5 1.35 -15.5 0.75 -15.8 0.05 -15.7 -0.35 -15.6 -0.7 -14.8 -1.1 L-13.9 -1.75 Q-13.8 -1.9 -13.85 -2.25 L-13.9 -2.85 Q-13.9 -3.8 -13.6 -3.7 L-13.65 -3.65 -12.85 -3.5 -12.0 -3.45 -8.45 -2.75 -0.35 -1.9 4.4 -2.05" fill="#000000" fill-rule="evenodd" stroke="none"/>
      <path d="M5.75 -2.15 L14.15 -3.75 14.45 -3.55 15.25 -1.65 14.55 -0.65 Q14.6 -0.25 15.35 0.2 L15.45 0.75 15.45 1.3 Q15.85 1.85 15.7 1.95 L14.45 2.3 13.0 2.65 9.35 3.15 5.7 3.3 4.45 3.3 3.15 3.2 Q2.3 2.9 2.5 2.5 3.05 2.0 2.85 1.65 2.65 1.3 1.7 1.3 L0.9 1.25 0.2 1.3 Q-0.65 1.3 -1.05 1.7 L-0.9 2.8 Q-0.7 3.4 -1.65 3.3 L-2.8 3.2 -6.95 2.95 -11.75 2.6 -14.9 2.8 Q-15.75 2.9 -15.5 2.25 L-14.95 1.45 Q-14.75 1.1 -14.95 0.35 -15.1 -0.35 -14.65 -0.6 -13.45 -1.2 -13.25 -1.95 -13.15 -2.35 -13.45 -2.9 L-13.65 -3.35 Q-13.55 -3.7 -13.25 -3.7 L-13.4 -3.7 -12.75 -3.8 -12.1 -3.85 -9.75 -3.4 Q-3.9 -1.8 -0.2 -1.85 L5.75 -2.15" fill="#4680a3" fill-rule="evenodd" stroke="none"/>
      <path d="M5.75 -2.15 L14.15 -3.75 14.45 -3.55 15.25 -1.65 14.55 -0.65 Q14.6 -0.25 15.35 0.2 L15.45 0.75 15.45 1.3 Q15.85 1.85 15.7 1.95 L14.45 2.3 13.0 2.65 9.35 3.15 5.7 3.3 4.45 3.3 3.15 3.2 Q2.3 2.9 2.5 2.5 3.05 2.0 2.85 1.65 2.65 1.3 1.7 1.3 L0.9 1.25 0.2 1.3 Q-0.65 1.3 -1.05 1.7 L-0.9 2.8 Q-0.7 3.4 -1.65 3.3 L-2.8 3.2 -6.95 2.95 -11.75 2.6 -14.9 2.8 Q-15.75 2.9 -15.5 2.25 L-14.95 1.45 Q-14.75 1.1 -14.95 0.35 -15.1 -0.35 -14.65 -0.6 -13.45 -1.2 -13.25 -1.95 -13.15 -2.35 -13.45 -2.9 L-13.65 -3.35 Q-13.55 -3.7 -13.25 -3.7 L-13.4 -3.7 -12.75 -3.8 -12.1 -3.85 -9.75 -3.4 Q-3.9 -1.8 -0.2 -1.85 L5.75 -2.15" fill="#4680a3" fill-rule="evenodd" stroke="none"/>
      <path d="M1.25 -0.95 L2.4 -0.9 2.65 0.25 2.8 0.95 2.5 1.2 1.35 1.1 -0.9 1.3 Q-1.3 1.3 -1.45 0.4 L-1.65 -0.6 -1.7 -0.9 -1.65 -0.9 -1.7 -0.95 -0.35 -0.9 1.25 -0.95" fill="#80bdd8" fill-rule="evenodd" stroke="none"/>
      <path d="M-10.75 -1.2 L-11.45 -0.3 -12.35 0.25 Q-12.65 0.75 -12.6 1.3 L-12.3 2.15 -11.65 2.65 -12.15 2.8 -12.7 2.7 -13.75 2.7 Q-13.6 2.5 -13.6 2.0 L-13.6 1.2 Q-13.6 0.05 -13.4 -0.15 L-12.65 -0.65 -12.0 -1.4 -11.85 -2.95 -11.7 -2.95 -11.75 -3.0 -10.95 -2.85 -10.4 -2.4 -10.75 -1.2" fill="#000000" fill-rule="evenodd" stroke="none"/>
      <path d="M12.6 -3.2 L13.9 -2.05 Q13.9 -1.5 13.1 -0.85 13.0 -0.45 14.25 0.15 14.55 0.25 14.5 0.5 L13.95 1.4 Q13.85 1.8 14.25 2.5 L13.4 2.65 Q13.25 2.65 13.05 1.95 L13.3 1.05 Q13.35 0.65 12.55 0.3 10.95 -0.35 12.2 -1.35 L12.85 -2.05 Q12.85 -2.6 12.15 -2.75 12.05 -3.1 12.5 -3.1 L12.6 -3.2" fill="#000000" fill-rule="evenodd" stroke="none"/>
      <path d="M8.7 -0.1 L7.25 0.25 5.65 0.35 3.7 0.3 Q2.7 0.3 2.4 -0.05 2.2 -0.25 2.45 -0.55 L2.95 -0.75 Q3.1 -0.45 4.0 -0.45 L6.1 -0.2 7.6 -0.15 8.7 -0.1" fill="#80bdd8" fill-rule="evenodd" stroke="none"/>
      <path d="M-7.4 -0.65 Q-8.95 -0.95 -9.3 -1.45 L-9.05 -1.5 Q-9.1 -1.85 -8.1 -1.7 L-7.0 -1.5 -1.9 -0.75 Q-1.8 0.05 -2.35 0.3 L-3.75 0.05 -7.4 -0.65" fill="#80bdd8" fill-rule="evenodd" stroke="none"/>
      <path d="M-7.05 2.2 L-9.7 2.0 -11.1 1.85 -12.2 1.7 -12.0 1.65 Q-12.3 1.7 -12.3 0.85 -12.15 0.25 -11.4 0.45 -11.05 0.5 -10.45 1.0 L-9.0 1.55 -5.05 2.05 -3.6 2.2 -2.35 2.25 -3.3 2.5 -4.45 2.45 -7.05 2.2" fill="#80bdd8" fill-rule="evenodd" stroke="none"/>
      <path d="M10.15 0.75 L12.25 0.65 Q12.85 0.95 12.65 1.3 L11.8 1.6 9.1 2.0 6.05 2.15 4.8 2.05 4.35 2.1 6.2 1.4 8.8 0.85 10.15 0.75" fill="#80bdd8" fill-rule="evenodd" stroke="none"/>
      <path d="M-13.95 -0.4 L-14.2 -0.3 -13.75 -0.05 Q-13.6 0.65 -14.4 0.55 -14.85 0.45 -14.95 -0.05 -14.95 -0.4 -13.95 -0.4" fill="#80bdd8" fill-rule="evenodd" stroke="none"/>
      <path d="M13.3 -0.8 L13.9 -1.05 Q14.4 -1.1 14.35 -0.65 14.3 -0.4 13.6 -0.25 13.2 -0.25 13.2 -0.75 L13.3 -0.8" fill="#80bdd8" fill-rule="evenodd" stroke="none"/>
    </g>
    <g id="sprite6" transform="matrix(1.0, 0.0, 0.0, 1.0, 8.5, 1.45)">
      <use height="2.9" transform="matrix(1.0, 0.0, 0.0, 1.0, -8.5, -1.45)" width="17.05" xlink:href="#shape6"/>
    </g>
    <g id="shape6" transform="matrix(1.0, 0.0, 0.0, 1.0, 8.5, 1.45)">
      <path d="M-7.1 -1.25 L-6.5 -1.0 -4.55 -0.5 -4.35 -0.35 -4.4 0.1 -4.55 0.75 -4.7 1.1 -4.8 1.45 -5.2 1.3 -6.7 1.0 -7.75 0.6 -8.2 0.35 -8.35 0.2 -8.5 0.0 -8.45 0.0 -7.7 -1.45 -7.1 -1.25" fill="#f9d953" fill-rule="evenodd" stroke="none"/>
      <path d="M8.3 -0.4 L8.55 0.25 7.8 0.6 7.0 0.9 6.1 1.2 5.65 1.35 5.25 1.45 4.95 0.65 4.75 0.05 4.95 0.0 5.0 0.0 4.95 -0.05 5.85 -0.25 6.85 -0.65 8.0 -1.1 8.3 -0.4" fill="#f9d953" fill-rule="evenodd" stroke="none"/>
    </g>
    <g id="sprite7" transform="matrix(1.0, 0.0, 0.0, 1.0, 7.55, 1.05)">
      <use height="2.15" transform="matrix(1.0, 0.0, 0.0, 1.0, -7.55, -1.05)" width="15.15" xlink:href="#shape7"/>
    </g>
    <g id="shape7" transform="matrix(1.0, 0.0, 0.0, 1.0, 7.55, 1.05)">
      <path d="M-5.6 -0.85 L-5.75 -0.5 -5.85 -0.05 -6.3 1.1 -6.75 1.0 -7.2 0.85 -7.55 0.75 -7.45 0.75 -7.2 0.2 -6.9 -0.45 -6.75 -1.05 -6.2 -0.95 -5.6 -0.85" fill="#ffffff" fill-rule="evenodd" stroke="none"/>
      <path d="M6.3 -0.35 L6.25 -0.35 6.6 -0.5 6.95 -0.55 7.05 -0.25 7.3 0.25 7.6 0.8 7.1 0.95 6.75 0.9 6.55 0.3 6.3 -0.35" fill="#ffffff" fill-rule="evenodd" stroke="none"/>
    </g>
    <g id="sprite8" transform="matrix(1.0, 0.0, 0.0, 1.0, 16.1, 7.25)">
      <use height="14.55" transform="matrix(1.0, 0.0, 0.0, 1.0, -16.1, -7.25)" width="32.15" xlink:href="#shape8"/>
    </g>
    <g id="shape8" transform="matrix(1.0, 0.0, 0.0, 1.0, 16.1, 7.25)">
      <path d="M-13.65 -0.35 L-14.05 0.1 -13.85 -0.1 -13.65 -0.35 -12.6 -1.2 Q-13.45 -0.9 -13.95 -0.25 L-14.3 0.25 -14.4 0.4 -14.3 0.35 -14.0 -0.2 -13.95 -0.25 Q-13.2 -1.35 -11.95 -1.55 -13.4 -1.45 -14.3 0.25 M-13.5 -0.4 L-13.3 -0.55 -12.15 -1.2 -11.5 -1.45 -12.3 -1.3 -11.8 -1.55 -11.55 -1.6 -11.4 -1.6 -11.0 -1.55 -10.95 -1.55 Q-9.3 -1.8 -8.65 -0.3 L-8.2 0.1 -8.2 0.0 Q-9.3 -1.6 -10.55 -1.85 L-11.7 -1.55 -11.8 -1.55 -11.2 -1.5 -11.0 -1.55 -10.55 -1.45 -10.25 -1.4 -10.95 -1.55 M-13.45 -1.55 L-13.9 -1.2 Q-15.3 0.0 -14.9 1.7 -14.95 -0.3 -12.4 -1.6 L-10.55 -1.85 Q-9.3 -1.9 -8.4 -0.6 L-8.2 0.0 -7.4 1.4 -7.4 1.95 -7.4 2.4 Q-7.05 1.35 -7.3 0.4 L-7.85 -0.65 -8.9 -1.7 -10.35 -2.75 -11.75 -3.0 Q-13.45 -2.65 -14.9 -0.45 L-15.7 1.1 -15.75 1.4 Q-16.0 3.8 -14.4 5.4 L-12.5 5.8 -12.4 5.8 -13.4 5.4 -13.6 5.2 -14.8 4.25 -15.4 3.4 -14.45 4.1 Q-15.15 3.0 -15.25 1.9 -15.45 0.05 -13.9 -1.2 M-11.7 -1.55 L-11.55 -1.6 M-13.0 -0.15 L-12.4 -0.6 -11.85 -0.75 -12.1 -0.75 -11.4 -0.85 -11.3 -0.85 -10.35 -0.75 -9.6 -0.8 -9.9 -1.1 -10.15 -1.2 -10.95 -1.45 -11.4 -1.45 -11.5 -1.45 -11.2 -1.5 -10.95 -1.45 -10.55 -1.45 Q-10.2 -1.35 -9.9 -1.1 L-9.2 -0.75 -10.25 -1.4 Q-9.35 -1.25 -8.8 -0.45 L-8.65 -0.3 -8.4 0.35 -8.15 1.05 -8.15 1.15 -8.05 1.35 Q-8.05 0.75 -8.2 0.1 -7.55 0.9 -7.4 1.95 -7.55 3.15 -8.1 4.0 L-8.85 5.0 Q-7.4 4.1 -7.4 2.4 -6.15 0.5 -7.25 -0.85 L-9.4 -2.6 Q-10.6 -3.2 -11.75 -3.0 -12.6 -3.0 -13.4 -2.6 -15.4 -1.25 -15.7 1.1 -16.7 3.7 -14.4 5.4 M-11.85 -0.75 L-11.3 -0.85 M-9.65 -0.6 L-9.45 -0.6 -10.1 -0.7 -9.9 -0.65 -9.65 -0.6 -9.35 -0.45 -9.45 -0.6 -9.6 -0.8 -8.9 -0.4 -9.2 -0.75 -8.8 -0.45 -8.4 0.35 -8.65 0.0 -8.25 0.8 -8.4 0.4 -8.4 0.35 -8.9 -0.4 -8.65 0.0 -9.4 -0.6 -9.2 -0.35 -8.9 -0.1 Q-8.45 0.35 -8.25 0.95 L-8.25 0.8 -8.15 1.05 M-9.35 -0.45 L-9.2 -0.35 Q-8.8 0.2 -8.6 1.1 L-8.4 1.4 -8.2 1.8 -8.25 1.0 -8.25 0.95 -8.15 1.3 -8.15 1.15 M-9.4 -0.6 L-9.45 -0.6 M-7.85 -0.65 L-8.3 -1.35 -8.5 -1.45 -8.9 -1.7 M-10.35 -2.75 L-10.0 -2.6 Q-9.0 -2.15 -8.3 -1.35 M-10.1 -0.7 L-10.35 -0.75 M-11.85 -0.75 L-9.9 -0.65 Q-9.3 -0.35 -8.95 0.3 L-9.35 -0.45 M-8.65 1.05 L-8.95 0.35 -8.75 0.95 -8.65 1.05 -8.6 1.1 -8.45 2.2 -8.4 1.55 -8.4 1.4 M-10.0 1.3 L-9.8 1.8 Q-9.45 2.95 -9.7 3.6 -8.6 2.0 -10.1 1.0 L-10.0 1.3 Q-10.1 1.2 -10.3 1.2 L-10.4 1.4 Q-10.4 3.3 -11.5 3.55 L-13.2 3.4 Q-12.25 4.1 -11.3 4.3 -10.25 3.25 -9.9 2.15 L-9.8 1.8 M-8.15 2.1 L-8.15 2.0 -8.2 1.8 -8.3 2.8 -8.15 2.3 -8.15 2.1 -8.1 1.8 -8.15 1.3 -8.15 1.55 -8.15 2.0 M-8.15 2.1 L-8.1 2.25 -8.1 1.8 -8.05 1.35 Q-7.6 2.85 -8.1 4.0 L-8.4 4.35 -9.75 5.3 -10.0 5.4 -10.2 5.55 -9.75 5.4 -8.85 5.0 -9.4 5.4 Q-10.05 5.75 -10.8 5.8 -11.55 6.0 -12.4 5.8 L-11.75 5.8 -12.75 5.55 -13.6 5.2 -14.15 4.5 -14.3 4.4 -14.8 4.25 M-8.75 0.95 L-8.45 2.5 -8.45 2.25 -8.45 2.2 -8.65 1.05 M-8.4 1.55 L-8.4 2.85 -8.4 3.05 -8.4 3.1 -8.3 2.8 -8.4 3.4 -8.2 2.8 -8.15 2.3 M-8.4 2.85 L-8.45 2.25 M-8.25 3.1 L-8.4 3.4 -8.4 3.45 M-8.45 3.25 L-8.55 3.7 M-9.7 3.6 L-10.05 4.05 -10.4 4.4 Q-7.1 2.8 -10.25 -0.45 L-8.75 0.95 M-9.0 4.3 L-8.45 3.25 M-10.35 0.5 L-10.4 0.4 -10.5 0.4 Q-10.4 0.4 -10.35 0.5 L-10.25 0.65 -10.1 1.0 -10.25 0.9 -10.3 1.2 -11.4 1.4 -13.45 2.25 -13.5 2.95 -13.4 3.25 -13.2 3.4 -13.35 3.4 -13.15 3.65 -12.9 3.85 -11.35 4.35 -11.3 4.3 -10.95 4.4 -10.05 4.05 M-10.85 0.4 L-11.4 0.4 -11.15 0.5 -10.85 0.4 -10.5 0.4 M-10.25 0.65 L-10.25 0.9 -11.15 0.5 -12.75 1.4 -13.45 1.9 -13.45 2.25 -13.6 2.3 -13.5 2.95 -13.5 3.15 -13.5 3.2 -13.4 3.25 -13.4 3.4 -13.35 3.4 M-13.65 1.35 L-13.4 0.75 -13.4 0.4 -13.0 -0.15 M-13.6 2.3 L-13.65 2.25 -13.6 2.1 -13.65 1.4 -13.65 1.35 M-14.05 0.1 L-14.1 0.2 -14.1 0.25 -14.15 0.3 -14.45 0.9 -14.6 1.5 -14.6 1.65 -14.4 2.4 -13.65 3.1 -13.5 3.2 -13.45 3.3 -13.4 3.4 M-14.4 0.4 Q-14.7 1.05 -14.65 1.65 L-14.55 1.0 -14.5 0.75 -14.4 0.4 M-14.05 0.1 L-14.3 0.35 -14.5 0.75 -14.6 1.5 M-14.9 1.7 L-14.65 2.4 -14.65 2.15 -14.65 2.1 -14.65 1.65 -14.5 2.25 -14.6 1.65 M-14.65 2.4 L-14.4 3.4 -13.95 3.55 -14.05 3.4 -14.6 2.45 -14.65 2.4 M-14.25 2.65 L-14.4 2.4 -14.5 2.25 -13.85 3.6 -13.4 3.85 -14.1 2.9 -14.25 2.65 M-14.65 2.15 L-14.6 2.45 M-13.45 1.9 L-13.6 2.1 -13.6 2.3 M-12.4 -0.6 L-13.4 0.75 -13.45 1.9 M-14.45 0.9 Q-14.7 1.6 -14.4 2.4 M-13.85 3.6 L-13.75 3.7 -13.25 4.05 -13.25 4.0 -13.4 3.85 -13.3 3.9 -13.4 3.6 -13.45 3.55 -13.9 3.15 -14.1 2.9 M-13.4 3.55 L-13.45 3.3 -13.65 3.1 -13.45 3.55 -13.4 3.55 -12.9 3.85 -12.55 4.15 -11.35 4.35 -11.05 4.4 -10.95 4.4 -10.4 4.4 -10.45 4.45 -11.8 4.75 -12.2 4.95 -11.8 5.2 -10.75 5.05 Q-8.85 4.5 -8.45 2.5 M-13.4 3.55 L-13.4 3.6 -12.9 4.05 -12.55 4.15 -12.4 4.25 -11.35 4.4 -11.35 4.35 -11.1 4.4 -11.05 4.4 M-13.75 4.4 L-14.3 4.2 -14.05 4.4 -13.9 4.4 -13.75 4.4 -13.25 4.45 -13.75 3.85 -14.4 3.4 Q-14.85 2.5 -14.9 1.7 M-13.05 4.2 L-12.9 4.3 -12.4 4.55 -11.8 4.55 -12.3 4.3 -12.55 4.25 -13.2 4.05 -13.2 4.1 -13.05 4.2 M-12.9 4.3 L-12.5 4.55 -13.25 4.05 -13.2 4.1 M-13.75 3.7 L-13.5 3.95 -13.25 4.05 M-13.75 3.7 L-13.95 3.55 -13.75 3.85 -13.5 3.95 -12.2 4.95 -12.4 5.05 -11.8 5.2 -12.4 5.15 -12.4 5.3 -11.4 5.4 -11.8 5.2 -10.65 5.25 -9.45 4.9 -10.35 5.55 M-14.9 3.85 L-15.2 3.6 -15.0 3.8 -14.9 3.85 -14.3 4.35 -14.45 4.1 -14.3 4.2 M-14.2 4.4 L-13.75 4.65 -14.05 4.4 -14.2 4.4 Q-13.4 5.0 -12.55 5.25 L-12.7 5.1 -13.75 4.65 M-15.0 3.8 L-14.8 3.95 -14.9 3.85 M-12.7 5.1 L-12.65 5.1 -12.45 5.05 -12.45 5.0 -12.95 4.85 -12.7 5.1 M-13.75 4.4 L-12.95 4.85 -13.25 4.45 -12.45 5.0 -12.4 5.05 -12.45 5.05 -12.4 5.15 -12.65 5.1 M-14.05 3.4 L-13.85 3.6 M-12.5 4.55 L-11.8 4.75 -11.6 4.6 -12.4 4.55 -12.5 4.55 M-11.4 4.4 L-11.45 4.45 -11.6 4.6 -10.45 4.45 M-11.4 4.4 L-11.8 4.55 -11.6 4.6 M-12.4 5.3 L-12.4 5.4 -12.55 5.25 -12.4 5.3 M-15.2 3.6 L-15.25 3.55 -15.3 3.5 -15.35 3.45 -15.4 3.4" fill="none" stroke="#6b6b6b" stroke-linecap="round" stroke-linejoin="round" stroke-width="0.25"/>
      <path d="M-13.65 -0.35 L-13.5 -0.4 -13.45 -0.45 -13.85 -0.1 -14.15 0.3 -14.4 1.4 Q-14.4 2.15 -13.65 3.1 L-13.75 2.65 -13.65 1.35 Q-13.65 0.4 -13.0 -0.15 -12.65 -0.6 -12.1 -0.75 L-12.65 -0.7 -13.45 -0.45 -13.3 -0.55 -12.3 -1.3 -12.6 -1.2 -11.8 -1.55 -11.95 -1.55 M-8.45 2.5 L-8.4 3.05 -8.45 3.25 -8.4 3.2 -8.4 3.1 M-13.25 4.05 L-13.2 4.05 -13.25 4.0 -13.3 3.9 -12.9 4.05 -12.55 4.25 -12.4 4.25 -12.3 4.3 -11.4 4.4 -11.35 4.4 -11.1 4.4" fill="none" stroke="#6b6b6b" stroke-linecap="round" stroke-linejoin="round" stroke-width="0.25"/>
      <path d="M-8.95 0.35 L-8.95 0.3 M-8.4 3.2 L-8.4 3.4" fill="none" stroke="#6b6b6b" stroke-linecap="round" stroke-linejoin="round" stroke-width="0.25"/>
      <path d="M-8.1 2.25 L-8.15 2.55 -8.2 2.8 -8.25 3.1 -8.4 4.35 -8.4 4.1 -8.4 3.45 -8.55 3.7 -9.0 4.3 -9.15 4.55 -9.45 4.9 -10.0 5.4 -10.35 5.55 -11.1 5.7 -10.2 5.55 -10.8 5.8 -11.65 5.8 -11.75 5.8 M-14.25 4.4 L-14.2 4.4 -14.3 4.35 -14.25 4.4 -14.8 3.95 -14.3 4.4 -14.25 4.4 -14.15 4.5 Q-12.5 5.8 -11.1 5.7 L-11.35 5.75 -11.65 5.8" fill="none" stroke="#6b6b6b" stroke-linecap="round" stroke-linejoin="round" stroke-width="0.25"/>
      <path d="M4.7 -0.9 L4.85 -1.25 5.85 -2.9 6.65 -3.15 6.1 -2.4 5.15 -0.7 6.25 -0.75 7.3 -0.9 7.45 -1.35 7.3 -1.95 7.75 -2.15 Q8.05 -1.45 9.0 -1.1 L10.25 -1.05 10.6 -1.45 10.65 -1.55 10.55 -1.8 9.55 -2.55 9.5 -2.55 9.85 -2.95 Q10.6 -2.4 12.0 -1.95 13.7 -1.55 14.1 -2.35 L14.2 -2.65 14.2 -2.8 13.2 -3.75 12.75 -4.0 12.45 -4.05 11.5 -4.3 11.55 -4.8 11.65 -4.8 12.8 -4.5 14.65 -4.35 14.95 -4.6 14.9 -4.95 14.25 -5.75 Q13.3 -6.35 11.4 -6.15 L10.7 -6.0 11.25 -6.6 11.35 -6.65 Q13.55 -6.85 14.55 -6.15 L15.35 -5.05 15.45 -4.4 14.8 -3.9 14.1 -3.75 14.65 -2.95 14.7 -2.65 14.55 -2.1 Q13.9 -0.95 11.85 -1.5 L11.05 -1.75 11.15 -1.55 11.1 -1.3 Q11.05 -0.95 10.45 -0.6 L8.8 -0.65 7.85 -1.2 7.7 -0.6 Q7.2 0.0 6.15 -0.3 L5.2 -0.15 5.0 0.3 4.4 0.7 4.4 0.45 4.25 0.45 Q4.2 -0.1 4.7 -0.9" fill="#6b6b6b" fill-rule="evenodd" stroke="none"/>
      <path d="M4.2 -1.15 L4.95 -2.4 5.1 -2.6 5.1 -2.65 5.5 -2.75 5.4 -2.55 5.25 -2.45 4.85 -1.8 4.3 -0.65 4.15 -0.25 4.05 0.5 4.1 0.95 4.1 1.15 4.0 1.35 Q3.85 1.3 3.85 0.95 L3.8 0.5 3.9 -0.35 4.2 -1.15" fill="#6b6b6b" fill-rule="evenodd" stroke="none"/>
      <path d="M5.6 -0.15 L6.0 -0.1 6.1 -0.05 6.65 0.1 7.35 -0.05 7.8 -0.5 7.9 -0.7 7.9 -0.8 7.95 -0.95 8.05 -0.95 8.95 -0.6 9.9 -0.35 Q10.8 -0.35 11.2 -0.75 L11.45 -1.2 11.35 -1.3 11.35 -1.35 11.2 -1.65 11.5 -1.5 11.55 -1.5 11.8 -1.4 12.85 -1.2 13.55 -1.2 14.25 -1.45 14.9 -1.95 15.2 -2.55 15.25 -3.1 15.05 -3.45 14.65 -3.6 14.7 -3.85 15.05 -3.9 15.35 -4.0 15.7 -4.4 15.8 -4.95 15.65 -5.45 15.35 -5.95 14.9 -6.35 14.4 -6.65 13.15 -7.0 11.8 -6.95 11.45 -6.85 11.7 -7.2 13.25 -7.25 14.5 -6.9 15.05 -6.55 15.55 -6.1 15.9 -5.55 16.05 -4.95 15.9 -4.3 15.55 -3.85 15.15 -3.65 15.2 -3.6 15.5 -3.15 15.45 -2.45 15.05 -1.75 14.35 -1.25 13.55 -0.95 12.85 -0.95 11.65 -1.2 11.4 -0.6 Q10.85 -0.05 9.9 -0.1 L8.9 -0.35 8.15 -0.65 8.0 -0.35 7.45 0.15 6.65 0.35 6.05 0.2 5.9 0.15 5.65 0.1 5.35 0.25 5.15 0.55 5.05 0.75 4.85 1.05 4.35 1.5 4.05 1.45 4.25 1.3 4.4 1.15 4.5 1.0 4.65 0.85 4.85 0.55 4.95 0.35 5.15 0.05 5.6 -0.15" fill="#6b6b6b" fill-rule="evenodd" stroke="none"/>
      <path d="M8.3 -3.25 L8.3 -4.05 8.5 -4.1 Q9.4 -4.4 9.65 -4.75 L9.75 -3.7 Q9.75 2.9 10.45 6.1 L10.7 6.65 9.7 6.8 8.6 7.0 8.8 6.25 Q10.3 1.05 8.3 -3.25" fill="#6b6b6b" fill-rule="evenodd" stroke="none"/>
      <path d="M8.15 0.1 L-9.75 2.55 -10.25 2.45 -7.05 1.65 -0.4 0.75 5.5 0.15 7.45 0.0 8.15 0.1" fill="#6b6b6b" fill-rule="evenodd" stroke="none"/>
      <path d="M10.6 2.05 L-10.15 4.15 0.05 2.8 7.75 2.1 10.6 2.05" fill="#6b6b6b" fill-rule="evenodd" stroke="none"/>
      <path d="M10.75 3.05 L-10.5 6.05 Q1.75 3.65 10.95 3.0 L10.75 3.05" fill="#6b6b6b" fill-rule="evenodd" stroke="none"/>
      <path d="M-3.55 6.85 L7.5 5.25 13.0 4.8 -3.55 6.85" fill="#6b6b6b" fill-rule="evenodd" stroke="none"/>
    </g>
    <g id="sprite9" transform="matrix(1.0, 0.0, 0.0, 1.0, 8.8, 4.15)">
      <use height="8.3" transform="matrix(1.0, 0.0, 0.0, 1.0, -8.8, -4.15)" width="17.6" xlink:href="#shape9"/>
    </g>
    <g id="shape9" transform="matrix(1.0, 0.0, 0.0, 1.0, 8.8, 4.15)">
      <path d="M-5.2 -3.6 L-4.8 -2.9 -4.75 -2.75 Q-4.85 -2.15 -5.0 -2.65 -5.2 -3.65 -5.35 -3.65 L-5.45 -2.5 Q-5.35 -0.7 -5.7 -2.45 -6.05 -3.65 -6.15 -2.45 -6.45 -1.9 -6.55 -2.5 L-6.6 -1.75 -6.75 -2.45 -7.25 -2.75 -7.45 -1.75 Q-7.65 -2.4 -7.7 -2.0 L-7.6 -0.7 -7.45 0.0 -7.05 0.95 -6.9 0.75 -6.65 0.85 -6.1 1.4 Q-5.6 2.35 -5.55 1.05 -5.3 1.35 -5.25 1.2 -5.0 1.65 -4.95 0.9 -4.85 1.35 -4.5 0.6 -4.25 1.0 -4.3 -0.1 L-4.3 -1.0 -4.05 0.35 Q-3.85 1.55 -3.85 0.4 -3.45 1.85 -3.45 0.95 -3.65 -2.4 -3.35 1.0 L-3.55 1.35 Q-3.6 3.2 -3.8 2.15 L-4.25 1.8 Q-4.3 2.7 -4.7 1.55 L-4.95 1.35 -5.1 2.05 Q-5.1 4.25 -5.4 2.7 -5.6 2.8 -5.8 2.05 L-6.2 1.35 Q-6.3 2.45 -6.5 1.95 L-7.0 1.15 Q-7.25 1.05 -7.3 1.75 -7.65 2.25 -7.9 1.45 -8.25 1.95 -8.5 0.8 -8.6 1.5 -8.8 -0.15 L-8.75 -1.2 Q-8.65 -1.0 -8.45 -2.15 -8.4 -2.85 -8.15 -2.8 L-7.8 -3.0 Q-7.75 -3.9 -7.45 -3.8 L-6.95 -3.5 Q-6.6 -2.45 -6.55 -3.0 -6.35 -3.1 -6.3 -3.65 L-5.85 -3.85 Q-5.7 -4.4 -5.2 -3.6" fill="#9e042c" fill-rule="evenodd" stroke="none"/>
      <path d="M0.0 -1.2 L0.0 -1.45 -0.05 -1.85 0.0 -1.2 -0.05 -1.65 -0.1 -2.45 -0.15 -3.1 Q-0.05 -2.7 0.45 -3.65 0.7 -3.25 0.7 -4.15 L0.95 -3.45 Q1.15 -2.65 1.1 -3.4 L1.25 -2.45 1.25 -1.3 1.3 -0.15 Q1.55 1.45 1.55 0.5 L1.6 0.85 1.6 1.45 1.7 2.4 1.75 2.6 1.7 2.0 Q1.9 3.5 1.9 2.75 2.15 4.5 2.1 3.5 L2.2 4.05 1.9 4.15 1.35 3.9 Q1.15 4.4 1.0 3.6 L0.8 2.8 Q0.7 1.75 0.75 3.1 L0.75 3.8 0.55 2.35 0.55 2.4 0.4 1.65 Q0.4 2.0 0.35 1.55 L0.15 1.05 -0.1 0.6 Q-0.35 0.2 -0.5 0.8 L-0.7 0.0 -0.4 -0.05 Q-0.05 0.5 -0.05 -0.2 L0.0 -1.2 M-0.7 0.0 L-0.9 0.0 -1.0 1.0 -1.1 1.65 -0.9 2.4 -0.75 3.1 -0.75 3.45 -0.75 3.75 Q-1.2 3.85 -1.5 2.95 L-1.85 3.4 -2.25 2.25 -2.45 1.05 -2.55 0.25 -2.5 -0.1 -2.6 -0.85 -2.75 -1.65 Q-2.65 -1.05 -2.7 -2.1 -2.6 -1.9 -2.6 -2.85 -2.55 -2.8 -2.45 -3.45 -2.3 -4.1 -2.05 -3.15 -1.8 -2.15 -1.55 -3.1 L-1.35 -3.7 Q-1.3 -3.95 -1.2 -2.6 L-1.3 -2.75 -1.35 -1.7 -1.45 -2.0 -1.4 -0.8 Q-1.25 0.8 -1.15 -0.2 L-0.9 0.0 -0.9 -0.05 -0.7 0.0 M-2.55 0.8 L-2.6 0.55 -2.55 0.75 -2.55 0.8" fill="#9e042c" fill-rule="evenodd" stroke="none"/>
      <path d="M2.85 -3.9 Q2.9 -4.55 3.15 -3.3 3.4 -2.95 3.35 -3.95 3.7 -2.9 3.75 -3.4 L4.1 -4.0 Q4.45 -3.15 4.9 -3.9 L5.7 -3.85 Q5.95 -4.4 6.5 -3.75 L7.2 -3.45 7.4 -3.0 Q7.45 -2.25 7.15 -1.7 L6.45 -0.35 Q5.8 0.3 5.65 0.8 5.45 0.8 5.2 1.25 5.1 1.9 4.8 1.95 5.05 2.75 5.3 2.4 L5.65 1.9 6.0 1.6 Q6.25 1.35 6.5 1.75 6.6 1.45 7.25 1.6 L8.4 1.65 8.8 2.05 8.7 2.5 8.25 2.75 Q7.65 3.3 7.25 2.9 L6.15 3.0 5.05 3.15 4.55 3.6 4.0 3.25 Q3.9 4.1 3.7 3.35 L3.3 3.4 Q2.85 3.55 2.6 3.0 2.6 2.55 2.95 2.35 3.5 2.6 3.65 1.5 3.9 1.9 4.2 1.0 4.35 0.05 4.55 0.15 L4.9 0.2 5.3 -0.5 5.65 -1.1 5.95 -2.25 5.6 -2.6 Q5.0 -2.1 4.95 -2.7 L4.55 -2.3 Q4.2 -1.85 4.0 -2.75 L3.75 -3.0 3.5 -2.65 Q3.25 -2.8 3.25 -2.1 3.35 -0.1 3.0 -2.6 2.65 -3.25 2.5 -2.3 L2.0 -2.7 1.95 -3.05 2.0 -3.4 Q2.3 -3.15 2.4 -3.75 L2.6 -4.1 Q2.7 -4.3 2.85 -3.9" fill="#9e042c" fill-rule="evenodd" stroke="none"/>
    </g>
  </defs>
</svg>
