<?xml version="1.0" encoding="UTF-8" standalone="no"?>
<svg xmlns:xlink="http://www.w3.org/1999/xlink" height="82.0px" width="84.85px" xmlns="http://www.w3.org/2000/svg">
  <g transform="matrix(1.0, 0.0, 0.0, 1.0, 37.4, 42.25)">
    <use height="38.0" transform="matrix(1.0, 0.0, 0.0, 1.0, -11.95, -17.45)" width="32.05" xlink:href="#sprite0"/>
    <use height="38.95" transform="matrix(1.0, 0.0, 0.0, 1.0, -12.45, -17.95)" width="33.05" xlink:href="#sprite1"/>
    <use height="25.15" transform="matrix(1.0, 0.0, 0.0, 1.0, -15.25, 0.1)" width="39.75" xlink:href="#shape2"/>
  </g>
  <defs>
    <g id="sprite0" transform="matrix(1.0, 0.0, 0.0, 1.0, -0.05, 0.0)">
      <use height="38.0" transform="matrix(1.0, 0.0, 0.0, 1.0, 0.05, 0.0)" width="32.05" xlink:href="#shape0"/>
    </g>
    <g id="shape0" transform="matrix(1.0, 0.0, 0.0, 1.0, -0.05, 0.0)">
      <path d="M27.35 7.4 Q29.5 11.55 30.9 16.15 32.35 20.85 32.05 25.65 31.7 30.6 27.85 33.75 24.05 36.95 19.1 37.8 L16.5 38.0 Q12.9 38.0 9.45 36.85 4.8 35.25 2.35 31.35 -0.2 27.4 0.05 23.0 0.25 18.6 2.05 13.7 3.85 8.75 7.0 5.05 10.1 1.3 14.7 0.1 L16.5 0.0 Q18.4 0.05 20.2 0.8 24.95 2.85 27.35 7.4" fill="#cb5656" fill-rule="evenodd" stroke="none"/>
    </g>
    <g id="sprite1" transform="matrix(1.0, 0.0, 0.0, 1.0, 0.45, 0.5)">
      <use height="38.95" transform="matrix(1.0, 0.0, 0.0, 1.0, -0.45, -0.5)" width="33.05" xlink:href="#shape1"/>
    </g>
    <g id="shape1" transform="matrix(1.0, 0.0, 0.0, 1.0, 0.45, 0.5)">
      <path d="M27.35 7.4 Q24.95 2.85 20.2 0.8 17.55 -0.3 14.7 0.1 10.1 1.3 7.0 5.05 3.85 8.75 2.05 13.7 0.25 18.6 0.05 23.0 -0.2 27.4 2.35 31.35 4.8 35.25 9.45 36.85 14.1 38.4 19.1 37.8 24.05 36.95 27.85 33.75 31.7 30.6 32.05 25.65 32.35 20.85 30.9 16.15 29.5 11.55 27.35 7.4 Z" fill="none" stroke="#000000" stroke-linecap="round" stroke-linejoin="round" stroke-width="1.0"/>
    </g>
    <g id="shape2" transform="matrix(1.0, 0.0, 0.0, 1.0, 15.25, -0.1)">
      <path d="M22.0 20.55 Q22.25 20.7 22.15 21.05 L21.65 21.35 20.0 21.3 20.4 21.85 20.5 22.1 20.4 22.35 19.95 22.6 17.55 22.4 17.8 23.15 17.8 23.3 17.65 23.6 17.15 23.7 15.6 23.15 15.55 24.35 15.25 24.75 14.75 24.7 13.15 23.5 12.85 24.4 12.55 24.7 12.05 24.6 11.05 23.75 10.4 25.0 9.95 25.25 Q9.65 25.25 9.55 25.05 L8.55 23.6 7.5 24.45 7.0 24.55 6.65 24.15 6.5 22.7 4.75 23.2 Q4.4 23.3 4.25 23.05 L4.1 22.75 4.2 22.5 5.2 20.75 3.0 20.8 3.4 23.1 3.4 23.15 3.25 23.55 2.75 23.6 1.15 23.0 0.95 24.35 0.65 24.7 0.15 24.65 -1.6 23.2 -2.15 24.25 -2.55 24.55 -3.0 24.35 -4.0 23.2 -5.2 24.15 -5.75 24.2 -6.05 23.75 -6.0 23.15 -6.8 23.75 -7.3 23.8 -7.6 23.4 -7.65 22.25 -10.05 23.0 Q-10.3 23.1 -10.5 22.8 L-10.6 22.55 -10.5 22.35 Q-10.25 21.9 -10.1 21.05 L-12.7 21.1 -13.05 20.75 -12.9 20.3 Q-9.85 17.8 -9.75 14.55 -9.75 14.1 -9.25 14.1 L-8.85 14.3 Q12.8 17.7 17.5 14.45 L18.0 14.4 18.3 14.8 Q18.45 17.6 22.0 20.55" fill="#000000" fill-rule="evenodd" stroke="none"/>
      <path d="M2.35 22.55 L0.3 21.75 0.2 23.6 -1.9 21.75 -2.65 23.5 -3.9 22.05 -5.05 23.1 -5.1 21.4 -6.8 22.8 -6.8 20.8 Q-8.7 21.95 -9.35 22.05 L-9.1 19.9 Q-10.3 20.5 -11.55 20.25 -9.2 17.3 -8.9 15.3 12.3 18.25 17.4 15.5 18.0 18.1 20.65 20.5 L18.55 20.35 19.45 21.8 16.45 21.5 16.95 22.9 14.75 22.05 14.85 23.95 12.6 22.1 12.3 23.9 10.8 22.55 9.95 24.35 8.8 22.15 7.4 23.5 7.25 21.4 5.45 22.2 6.7 19.75 1.8 19.75 2.35 22.55" fill="#a30000" fill-rule="evenodd" stroke="none"/>
      <path d="M0.3 21.75 L0.2 23.6 -1.9 21.75 -2.65 23.5 -3.9 22.05 -5.05 23.1 -5.1 21.4 -5.9 22.05 Q-4.35 18.65 0.2 18.65 L8.5 18.3 Q8.5 20.25 7.25 21.65 L7.25 21.4 5.45 22.2 6.7 19.75 1.8 19.75 2.35 22.55 0.3 21.75" fill="#660000" fill-rule="evenodd" stroke="none"/>
      <path d="M11.95 16.65 Q15.65 16.4 17.4 15.5 18.0 18.1 20.65 20.5 L18.55 20.35 19.45 21.8 16.45 21.5 16.95 22.9 14.75 22.05 14.85 23.95 13.6 22.95 Q13.6 19.65 11.95 16.65" fill="#660000" fill-rule="evenodd" stroke="none"/>
      <path d="M18.7 14.2 Q18.85 14.6 18.6 15.75 16.4 17.9 6.8 18.35 -3.95 18.85 -9.95 15.35 L-10.1 13.85 Q-1.75 17.5 18.7 14.2" fill="#000000" fill-rule="evenodd" stroke="none"/>
      <path d="M2.25 15.85 Q3.2 17.9 2.85 17.95 1.2 21.1 0.6 20.9 L-1.4 19.35 Q1.8 15.9 2.25 15.85" fill="#000000" fill-rule="evenodd" stroke="none"/>
      <path d="M5.85 16.25 Q6.3 16.25 10.05 19.1 9.05 20.65 8.35 21.0 7.85 21.25 5.6 18.4 5.3 18.4 5.85 16.25" fill="#000000" fill-rule="evenodd" stroke="none"/>
      <path d="M6.9 15.6 L6.45 15.9 Q-1.45 16.8 -7.25 15.05 -11.6 13.7 -12.1 12.3 -12.45 11.45 -12.55 7.0 -12.65 1.95 -11.65 1.45 L-11.2 1.4 Q-8.05 2.15 -2.2 6.65 3.65 11.1 6.85 15.15 7.05 15.4 6.9 15.6" fill="#000000" fill-rule="evenodd" stroke="none"/>
      <path d="M-11.05 12.0 Q-11.4 11.1 -11.6 7.1 -11.8 2.8 -11.1 2.45 -8.1 3.45 -3.05 7.15 2.4 11.2 5.4 15.05 -5.7 15.8 -11.05 12.0" fill="#a30000" fill-rule="evenodd" stroke="none"/>
      <path d="M1.5 10.9 Q3.9 13.1 5.4 15.05 -5.7 15.8 -11.05 12.0 L-11.2 10.5 Q-10.55 10.5 -8.55 11.15 -7.0 11.65 -5.9 11.15 L-6.65 12.65 Q-6.75 13.05 -5.5 13.65 1.45 16.1 1.5 10.9" fill="#660000" fill-rule="evenodd" stroke="none"/>
      <path d="M8.05 15.55 Q7.75 16.3 6.5 16.55 3.95 16.85 2.85 15.7 0.15 11.75 -5.65 7.6 -10.4 4.2 -12.8 3.45 L-13.15 3.1 Q-13.35 1.6 -11.85 0.2 L-11.4 0.1 Q-8.5 0.3 -1.9 5.15 5.25 10.4 8.0 15.25 L8.05 15.55" fill="#000000" fill-rule="evenodd" stroke="none"/>
      <path d="M6.95 15.4 Q5.6 16.2 3.75 15.2 1.1 11.2 -4.8 7.0 -9.6 3.6 -12.0 2.85 -12.1 1.85 -11.2 1.1 -8.5 1.3 -2.45 5.7 4.25 10.6 6.95 15.4" fill="#a30000" fill-rule="evenodd" stroke="none"/>
      <path d="M6.95 15.4 Q5.6 16.2 3.75 15.2 L-1.9 9.2 1.9 11.85 Q2.15 9.45 -4.45 4.35 3.65 9.65 6.95 15.4" fill="#660000" fill-rule="evenodd" stroke="none"/>
      <path d="M20.2 1.85 L20.65 1.9 Q22.2 2.75 20.75 12.75 20.2 14.15 15.8 15.35 L2.05 15.8 1.65 15.55 Q1.5 15.3 1.7 15.1 5.0 11.1 11.05 6.8 17.05 2.5 20.2 1.85" fill="#000000" fill-rule="evenodd" stroke="none"/>
      <path d="M3.2 15.0 Q6.35 11.25 11.9 7.35 17.1 3.75 20.1 2.9 20.75 3.25 20.4 7.55 20.1 11.5 19.7 12.45 14.1 16.05 3.2 15.0" fill="#a30000" fill-rule="evenodd" stroke="none"/>
      <path d="M14.25 11.6 Q14.25 10.25 13.2 10.5 L14.95 8.55 Q15.25 9.1 14.85 11.75 14.6 13.15 16.75 12.05 17.15 9.95 16.35 8.25 15.55 6.65 14.3 6.2 L20.1 2.9 Q20.75 3.25 20.4 7.55 20.1 11.5 19.7 12.45 14.1 16.05 3.2 15.0 L5.3 12.75 Q6.3 14.0 8.7 14.2 L12.5 13.65 Q14.25 12.95 14.25 11.6" fill="#660000" fill-rule="evenodd" stroke="none"/>
      <path d="M21.7 3.5 L21.35 3.85 Q18.95 4.55 14.1 7.8 8.1 11.8 5.35 15.65 4.1 16.8 1.65 16.4 0.4 16.15 0.15 15.4 L0.15 15.05 Q3.05 10.3 10.4 5.25 17.15 0.6 20.05 0.45 L20.5 0.6 Q22.0 1.9 21.7 3.5" fill="#000000" fill-rule="evenodd" stroke="none"/>
      <path d="M1.25 15.25 Q4.1 10.55 10.95 5.85 17.1 1.6 19.85 1.45 20.75 2.2 20.6 3.2 18.2 3.9 13.25 7.2 7.25 11.2 4.4 15.1 L1.25 15.25" fill="#a30000" fill-rule="evenodd" stroke="none"/>
      <path d="M19.85 1.45 Q20.75 2.2 20.6 3.2 18.2 3.9 13.25 7.2 7.25 11.2 4.4 15.1 L2.95 15.5 Q5.15 12.0 9.55 8.75 13.55 6.1 17.5 3.4 14.8 3.7 10.95 5.85 17.15 1.55 19.85 1.45" fill="#660000" fill-rule="evenodd" stroke="none"/>
      <path d="M-8.8 7.5 L-9.35 6.9 -8.95 7.7 -8.8 7.5 M-7.9 4.2 L-8.75 6.15 -7.55 7.4 -8.2 8.35 -6.85 9.8 -8.9 11.35 -9.05 10.6 Q-10.0 6.35 -11.5 6.05 -12.05 5.95 -12.85 6.85 L-13.15 7.25 -15.25 5.7 -13.8 4.7 -14.9 3.15 -12.05 3.35 -11.3 1.55 -9.95 4.2 -7.9 4.2" fill="#000000" fill-rule="evenodd" stroke="none"/>
      <path d="M-9.95 7.2 Q-11.2 4.3 -12.95 6.4 L-14.05 5.7 -12.8 4.95 -13.6 3.85 -11.6 4.3 -11.2 3.0 -10.45 4.95 -8.9 4.9 -9.3 6.25 -8.2 7.45 -8.8 8.4 -7.55 9.75 -9.1 10.5 Q-9.35 8.65 -9.95 7.2" fill="#a30000" fill-rule="evenodd" stroke="none"/>
      <path d="M18.05 7.45 L18.2 7.65 18.6 6.85 18.05 7.45 M20.55 1.5 L21.25 3.3 24.15 3.05 23.05 4.65 24.5 5.65 22.4 7.2 22.1 6.8 Q21.3 5.9 20.75 6.0 19.25 6.3 18.3 10.55 L18.15 11.3 16.1 9.75 17.45 8.3 16.8 7.35 18.0 6.1 17.15 4.15 19.2 4.15 20.55 1.5" fill="#000000" fill-rule="evenodd" stroke="none"/>
      <path d="M23.3 5.6 L22.2 6.35 Q20.4 4.25 19.2 7.15 18.6 8.6 18.35 10.45 L16.8 9.7 18.05 8.35 17.45 7.4 18.55 6.2 18.1 4.85 19.7 4.9 20.45 2.95 20.85 4.25 22.85 3.75 22.05 4.9 23.3 5.6" fill="#660000" fill-rule="evenodd" stroke="none"/>
    </g>
  </defs>
</svg>
