<svg xmlns:xlink="http://www.w3.org/1999/xlink" height="82" width="84.85" xmlns="http://www.w3.org/2000/svg"><g transform="translate(37.4 42.25)"><use height="38" transform="translate(-11.95 -17.45)" width="32.05" xlink:href="#a"/><use height="38.95" transform="translate(-12.45 -17.95)" width="33.05" xlink:href="#b"/><use height="25.15" transform="translate(-15.25 .1)" width="39.75" xlink:href="#c"/></g><defs><path d="M27.35 7.4q2.15 4.15 3.55 8.75 1.45 4.7 1.15 9.5-.35 4.95-4.2 8.1-3.8 3.2-8.75 4.05l-2.6.2q-3.6 0-7.05-1.15-4.65-1.6-7.1-5.5Q-.2 27.4.05 23q.2-4.4 2-9.3Q3.85 8.75 7 5.05 10.1 1.3 14.7.1l1.8-.1q1.9.05 3.7.8 4.75 2.05 7.15 6.6" fill="#cb5656" fill-rule="evenodd" transform="translate(-.05)" id="d"/><path d="M27.35 7.4Q24.95 2.85 20.2.8 17.55-.3 14.7.1 10.1 1.3 7 5.05q-3.15 3.7-4.95 8.65-1.8 4.9-2 9.3-.25 4.4 2.3 8.35 2.45 3.9 7.1 5.5 4.65 1.55 9.65.95 4.95-.85 8.75-4.05 3.85-3.15 4.2-8.1.3-4.8-1.15-9.5-1.4-4.6-3.55-8.75Z" fill="none" stroke="#000" stroke-linecap="round" stroke-linejoin="round" transform="translate(.45 .5)" id="e"/><use height="38" width="32.05" xlink:href="#d" id="a"/><use height="38.95" width="33.05" xlink:href="#e" id="b"/><g id="c" fill-rule="evenodd"><path d="M22 20.55q.25.15.15.5l-.5.3L20 21.3l.4.55.1.25-.1.25-.45.25-2.4-.2.25.75v.15l-.15.3-.5.1-1.55-.55-.05 1.2-.3.4-.5-.05-1.6-1.2-.3.9-.3.3-.5-.1-1-.85L10.4 25l-.45.25q-.3 0-.4-.2l-1-1.45-1.05.85-.5.1-.35-.4-.15-1.45-1.75.5q-.35.1-.5-.15l-.15-.3.1-.25 1-1.75-2.2.05.4 2.3v.05l-.15.4-.5.05-1.6-.6-.2 1.35-.3.35-.5-.05-1.75-1.45-.55 1.05-.4.3-.45-.2-1-1.15-1.2.95-.55.05-.3-.45.05-.6-.8.6-.5.05-.3-.4-.05-1.15-2.4.75q-.25.1-.45-.2l-.1-.25.1-.2q.25-.45.4-1.3l-2.6.05-.35-.35.15-.45q3.05-2.5 3.15-5.75 0-.45.5-.45l.4.2q21.65 3.4 26.35.15l.5-.05.3.4q.15 2.8 3.7 5.75" transform="translate(15.25 -.1)"/><path d="m2.35 22.55-2.05-.8-.1 1.85-2.1-1.85-.75 1.75-1.25-1.45-1.15 1.05-.05-1.7-1.7 1.4v-2q-1.9 1.15-2.55 1.25l.25-2.15q-1.2.6-2.45.35Q-9.2 17.3-8.9 15.3q21.2 2.95 26.3.2.6 2.6 3.25 5l-2.1-.15.9 1.45-3-.3.5 1.4-2.2-.85.1 1.9-2.25-1.85-.3 1.8-1.5-1.35-.85 1.8-1.15-2.2-1.4 1.35-.15-2.1-1.8.8 1.25-2.45H1.8l.55 2.8" fill="#a30000" transform="translate(15.25 -.1)"/><path d="M.3 21.75.2 23.6l-2.1-1.85-.75 1.75-1.25-1.45-1.15 1.05-.05-1.7-.8.65q1.55-3.4 6.1-3.4l8.3-.35q0 1.95-1.25 3.35v-.25l-1.8.8 1.25-2.45H1.8l.55 2.8-2.05-.8m11.65-5.1q3.7-.25 5.45-1.15.6 2.6 3.25 5l-2.1-.15.9 1.45-3-.3.5 1.4-2.2-.85.1 1.9-1.25-1q0-3.3-1.65-6.3" fill="#600" transform="translate(15.25 -.1)"/><path d="M18.7 14.2q.15.4-.1 1.55-2.2 2.15-11.8 2.6-10.75.5-16.75-3l-.15-1.5q8.35 3.65 28.8.35" transform="translate(15.25 -.1)"/><path d="M2.25 15.85q.95 2.05.6 2.1Q1.2 21.1.6 20.9l-2-1.55q3.2-3.45 3.65-3.5m3.6.4q.45 0 4.2 2.85-1 1.55-1.7 1.9-.5.25-2.75-2.6-.3 0 .25-2.15" transform="translate(15.25 -.1)"/><path d="m6.9 15.6-.45.3q-7.9.9-13.7-.85-4.35-1.35-4.85-2.75-.35-.85-.45-5.3-.1-5.05.9-5.55l.45-.05q3.15.75 9 5.25 5.85 4.45 9.05 8.5.2.25.05.45" transform="translate(15.25 -.1)"/><path d="M-11.05 12q-.35-.9-.55-4.9-.2-4.3.5-4.65 3 1 8.05 4.7 5.45 4.05 8.45 7.9-11.1.75-16.45-3.05" fill="#a30000" transform="translate(15.25 -.1)"/><path d="M1.5 10.9q2.4 2.2 3.9 4.15-11.1.75-16.45-3.05l-.15-1.5q.65 0 2.65.65 1.55.5 2.65 0l-.75 1.5q-.1.4 1.15 1 6.95 2.45 7-2.75" fill="#600" transform="translate(15.25 -.1)"/><path d="M8.05 15.55q-.3.75-1.55 1-2.55.3-3.65-.85-2.7-3.95-8.5-8.1-4.75-3.4-7.15-4.15l-.35-.35q-.2-1.5 1.3-2.9l.45-.1q2.9.2 9.5 5.05Q5.25 10.4 8 15.25l.05.3" transform="translate(15.25 -.1)"/><path d="M6.95 15.4q-1.35.8-3.2-.2Q1.1 11.2-4.8 7-9.6 3.6-12 2.85q-.1-1 .8-1.75 2.7.2 8.75 4.6 6.7 4.9 9.4 9.7" fill="#a30000" transform="translate(15.25 -.1)"/><path d="M6.95 15.4q-1.35.8-3.2-.2l-5.65-6 3.8 2.65q.25-2.4-6.35-7.5 8.1 5.3 11.4 11.05" fill="#600" transform="translate(15.25 -.1)"/><path d="m20.2 1.85.45.05q1.55.85.1 10.85-.55 1.4-4.95 2.6l-13.75.45-.4-.25q-.15-.25.05-.45 3.3-4 9.35-8.3 6-4.3 9.15-4.95" transform="translate(15.25 -.1)"/><path d="M3.2 15q3.15-3.75 8.7-7.65 5.2-3.6 8.2-4.45.65.35.3 4.65-.3 3.95-.7 4.9-5.6 3.6-16.5 2.55" fill="#a30000" transform="translate(15.25 -.1)"/><path d="M14.25 11.6q0-1.35-1.05-1.1l1.75-1.95q.3.55-.1 3.2-.25 1.4 1.9.3.4-2.1-.4-3.8-.8-1.6-2.05-2.05l5.8-3.3q.65.35.3 4.65-.3 3.95-.7 4.9-5.6 3.6-16.5 2.55l2.1-2.25q1 1.25 3.4 1.45l3.8-.55q1.75-.7 1.75-2.05" fill="#600" transform="translate(15.25 -.1)"/><path d="m21.7 3.5-.35.35q-2.4.7-7.25 3.95-6 4-8.75 7.85-1.25 1.15-3.7.75-1.25-.25-1.5-1v-.35q2.9-4.75 10.25-9.8Q17.15.6 20.05.45l.45.15q1.5 1.3 1.2 2.9" transform="translate(15.25 -.1)"/><path d="M1.25 15.25q2.85-4.7 9.7-9.4 6.15-4.25 8.9-4.4.9.75.75 1.75-2.4.7-7.35 4-6 4-8.85 7.9l-3.15.15" fill="#a30000" transform="translate(15.25 -.1)"/><path d="M19.85 1.45q.9.75.75 1.75-2.4.7-7.35 4-6 4-8.85 7.9l-1.45.4q2.2-3.5 6.6-6.75 4-2.65 7.95-5.35-2.7.3-6.55 2.45 6.2-4.3 8.9-4.4" fill="#600" transform="translate(15.25 -.1)"/><path d="m-8.8 7.5-.55-.6.4.8.15-.2m.9-3.3-.85 1.95 1.2 1.25-.65.95 1.35 1.45-2.05 1.55-.15-.75Q-10 6.35-11.5 6.05q-.55-.1-1.35.8l-.3.4-2.1-1.55 1.45-1-1.1-1.55 2.85.2.75-1.8 1.35 2.65h2.05" transform="translate(15.25 -.1)"/><path d="M-9.95 7.2q-1.25-2.9-3-.8l-1.1-.7 1.25-.75-.8-1.1 2 .45.4-1.3.75 1.95 1.55-.05-.4 1.35 1.1 1.2-.6.95 1.25 1.35-1.55.75q-.25-1.85-.85-3.3" fill="#a30000" transform="translate(15.25 -.1)"/><path d="m18.05 7.45.15.2.4-.8-.55.6m2.5-5.95.7 1.8 2.9-.25-1.1 1.6 1.45 1-2.1 1.55-.3-.4q-.8-.9-1.35-.8-1.5.3-2.45 4.55l-.15.75-2.05-1.55 1.35-1.45-.65-.95L18 6.1l-.85-1.95h2.05l1.35-2.65" transform="translate(15.25 -.1)"/><path d="m23.3 5.6-1.1.75q-1.8-2.1-3 .8-.6 1.45-.85 3.3L16.8 9.7l1.25-1.35-.6-.95 1.1-1.2-.45-1.35 1.6.05.75-1.95.4 1.3 2-.5-.8 1.15 1.25.7" fill="#600" transform="translate(15.25 -.1)"/></g></defs></svg>