<?xml version="1.0" encoding="UTF-8" standalone="no"?>
<svg xmlns:xlink="http://www.w3.org/1999/xlink" height="82.0px" width="84.85px" xmlns="http://www.w3.org/2000/svg">
  <g transform="matrix(1.0, 0.0, 0.0, 1.0, 37.4, 42.25)">
    <use height="38.0" transform="matrix(1.0, 0.0, 0.0, 1.0, -11.95, -17.45)" width="32.05" xlink:href="#sprite0"/>
    <use height="38.95" transform="matrix(1.0, 0.0, 0.0, 1.0, -12.45, -17.95)" width="33.05" xlink:href="#sprite1"/>
    <use height="21.0" transform="matrix(1.0, 0.0, 0.0, 1.0, -15.85, 2.8)" width="40.95" xlink:href="#shape2"/>
  </g>
  <defs>
    <g id="sprite0" transform="matrix(1.0, 0.0, 0.0, 1.0, -0.05, 0.0)">
      <use height="38.0" transform="matrix(1.0, 0.0, 0.0, 1.0, 0.05, 0.0)" width="32.05" xlink:href="#shape0"/>
    </g>
    <g id="shape0" transform="matrix(1.0, 0.0, 0.0, 1.0, -0.05, 0.0)">
      <path d="M27.35 7.4 Q29.5 11.55 30.9 16.15 32.35 20.85 32.05 25.65 31.7 30.6 27.85 33.75 24.05 36.95 19.1 37.8 L16.5 38.0 Q12.9 38.0 9.45 36.85 4.8 35.25 2.35 31.35 -0.2 27.4 0.05 23.0 0.25 18.6 2.05 13.7 3.85 8.75 7.0 5.05 10.1 1.3 14.7 0.1 L16.5 0.0 Q18.4 0.05 20.2 0.8 24.95 2.85 27.35 7.4" fill="#c54444" fill-rule="evenodd" stroke="none"/>
    </g>
    <g id="sprite1" transform="matrix(1.0, 0.0, 0.0, 1.0, 0.45, 0.5)">
      <use height="38.95" transform="matrix(1.0, 0.0, 0.0, 1.0, -0.45, -0.5)" width="33.05" xlink:href="#shape1"/>
    </g>
    <g id="shape1" transform="matrix(1.0, 0.0, 0.0, 1.0, 0.45, 0.5)">
      <path d="M27.35 7.4 Q24.95 2.85 20.2 0.8 17.55 -0.3 14.7 0.1 10.1 1.3 7.0 5.05 3.85 8.75 2.05 13.7 0.25 18.6 0.05 23.0 -0.2 27.4 2.35 31.35 4.8 35.25 9.45 36.85 14.1 38.4 19.1 37.8 24.05 36.95 27.85 33.75 31.7 30.6 32.05 25.65 32.35 20.85 30.9 16.15 29.5 11.55 27.35 7.4 Z" fill="none" stroke="#000000" stroke-linecap="round" stroke-linejoin="round" stroke-width="1.0"/>
    </g>
    <g id="shape2" transform="matrix(1.0, 0.0, 0.0, 1.0, 15.85, -2.8)">
      <path d="M4.2 8.6 Q8.55 8.6 11.9 6.95 15.2 5.3 16.05 2.8 L20.85 2.85 25.1 6.85 20.05 11.05 Q20.95 15.45 22.3 18.8 15.8 23.45 4.85 23.75 -5.55 24.1 -12.5 20.55 -11.5 16.0 -10.95 10.9 L-15.85 6.85 -11.6 2.85 -7.7 2.8 Q-6.85 5.3 -3.55 6.95 -0.2 8.6 4.2 8.6" fill="#000000" fill-rule="evenodd" stroke="none"/>
      <path d="M20.5 3.65 L23.85 6.8 19.1 10.7 19.2 11.2 Q20.0 15.1 21.3 18.45 15.0 22.55 4.8 22.85 -4.85 23.15 -11.55 20.0 -10.7 16.0 -10.1 10.95 L-10.05 10.5 -14.6 6.8 -11.3 3.65 -8.25 3.6 Q-7.05 6.25 -3.65 7.85 -0.2 9.45 4.2 9.45 8.6 9.45 12.0 7.85 15.4 6.25 16.6 3.65 L17.0 3.65 Q19.9 3.45 20.5 3.65" fill="#212321" fill-rule="evenodd" stroke="none"/>
      <path d="M3.0 9.45 Q2.9 17.45 2.35 22.9 -3.35 22.75 -8.0 21.4 -7.1 16.5 -6.3 6.4 -2.75 9.2 3.0 9.45" fill="#474749" fill-rule="evenodd" stroke="none"/>
      <path d="M14.7 11.0 L14.75 11.75 13.3 11.9 13.3 12.7 Q13.6 12.3 14.0 12.3 14.45 12.25 14.7 12.5 L14.95 13.5 14.9 14.9 14.7 15.35 14.3 15.7 13.6 15.85 12.85 15.8 12.35 15.35 Q12.2 15.05 12.2 14.4 L12.2 14.15 13.35 14.05 13.4 14.95 13.6 15.15 13.75 15.05 13.8 14.95 13.8 13.5 13.75 13.15 13.6 13.05 13.45 13.1 13.35 13.2 13.35 13.5 12.2 13.6 12.25 11.25 14.7 11.0 M11.1 11.35 L11.8 11.25 11.8 15.95 10.65 16.05 10.6 12.9 10.45 12.75 9.95 12.75 9.85 12.75 9.85 12.2 Q10.6 12.0 11.1 11.35" fill="#fdff2f" fill-rule="evenodd" stroke="none"/>
      <path d="M7.8 14.15 L8.7 14.1 Q8.9 17.5 12.3 17.4 L12.3 18.3 Q10.45 18.4 9.15 17.2 7.9 16.05 7.8 14.15 M12.65 9.65 L12.65 8.75 Q14.5 8.7 15.8 9.85 17.1 11.05 17.15 12.9 L16.25 13.0 Q16.1 9.55 12.65 9.65" fill="#fdff2f" fill-rule="evenodd" stroke="none"/>
    </g>
  </defs>
</svg>
