<?xml version="1.0" encoding="UTF-8" standalone="no"?>
<svg xmlns:xlink="http://www.w3.org/1999/xlink" height="82.0px" width="84.85px" xmlns="http://www.w3.org/2000/svg">
  <g transform="matrix(1.0, 0.0, 0.0, 1.0, 37.4, 42.25)">
    <use height="38.0" transform="matrix(1.0, 0.0, 0.0, 1.0, -11.95, -17.45)" width="32.05" xlink:href="#sprite0"/>
    <use height="38.95" transform="matrix(1.0, 0.0, 0.0, 1.0, -12.45, -17.95)" width="33.05" xlink:href="#sprite1"/>
    <use height="17.95" transform="matrix(1.0, 0.0, 0.0, 1.0, -11.8, 4.9)" width="32.1" xlink:href="#shape2"/>
  </g>
  <defs>
    <g id="sprite0" transform="matrix(1.0, 0.0, 0.0, 1.0, -0.05, 0.0)">
      <use height="38.0" transform="matrix(1.0, 0.0, 0.0, 1.0, 0.05, 0.0)" width="32.05" xlink:href="#shape0"/>
    </g>
    <g id="shape0" transform="matrix(1.0, 0.0, 0.0, 1.0, -0.05, 0.0)">
      <path d="M27.35 7.4 Q29.5 11.55 30.9 16.15 32.35 20.85 32.05 25.65 31.7 30.6 27.85 33.75 24.05 36.95 19.1 37.8 L16.5 38.0 Q12.9 38.0 9.45 36.85 4.8 35.25 2.35 31.35 -0.2 27.4 0.05 23.0 0.25 18.6 2.05 13.7 3.85 8.75 7.0 5.05 10.1 1.3 14.7 0.1 L16.5 0.0 Q18.4 0.05 20.2 0.8 24.95 2.85 27.35 7.4" fill="#c23b3b" fill-rule="evenodd" stroke="none"/>
    </g>
    <g id="sprite1" transform="matrix(1.0, 0.0, 0.0, 1.0, 0.45, 0.5)">
      <use height="38.95" transform="matrix(1.0, 0.0, 0.0, 1.0, -0.45, -0.5)" width="33.05" xlink:href="#shape1"/>
    </g>
    <g id="shape1" transform="matrix(1.0, 0.0, 0.0, 1.0, 0.45, 0.5)">
      <path d="M27.35 7.4 Q24.95 2.85 20.2 0.8 17.55 -0.3 14.7 0.1 10.1 1.3 7.0 5.05 3.85 8.75 2.05 13.7 0.25 18.6 0.05 23.0 -0.2 27.4 2.35 31.35 4.8 35.25 9.45 36.85 14.1 38.4 19.1 37.8 24.05 36.95 27.85 33.75 31.7 30.6 32.05 25.65 32.35 20.85 30.9 16.15 29.5 11.55 27.35 7.4 Z" fill="none" stroke="#000000" stroke-linecap="round" stroke-linejoin="round" stroke-width="1.0"/>
    </g>
    <g id="shape2" transform="matrix(1.0, 0.0, 0.0, 1.0, 11.8, -4.9)">
      <path d="M4.5 22.85 Q-1.4 22.85 -6.9 20.9 L-11.25 18.95 -10.15 14.55 -5.05 15.45 4.7 16.3 Q11.0 16.3 18.95 14.15 L20.3 19.15 Q13.95 22.85 4.5 22.85" fill="#000000" fill-rule="evenodd" stroke="none"/>
      <path d="M4.7 16.35 Q10.25 16.35 18.25 14.4 18.35 15.2 19.4 18.8 18.2 19.8 14.4 20.8 9.7 22.0 4.5 22.0 -4.0 22.0 -10.35 18.5 -9.5 15.75 -9.4 14.75 -1.05 16.35 4.7 16.35" fill="#ffffff" fill-rule="evenodd" stroke="none"/>
      <path d="M4.6 21.05 Q2.45 21.1 -2.25 19.1 -6.6 17.25 -7.75 16.15 -8.4 15.55 -9.1 14.9 L18.0 15.1 17.9 19.65 13.9 20.85 Q13.45 19.8 10.15 20.25 L4.6 21.05" fill="#d7d7d9" fill-rule="evenodd" stroke="none"/>
      <path d="M4.7 16.35 Q10.25 16.35 18.25 14.4 18.35 15.2 19.4 18.8 L16.7 20.05 Q16.55 17.7 15.6 17.65 4.85 21.1 2.65 20.3 L-8.25 15.45 -6.15 15.3 4.7 16.35" fill="#a4a4a7" fill-rule="evenodd" stroke="none"/>
      <path d="M4.25 11.15 Q10.15 4.75 19.25 4.9 L20.2 4.9 18.95 14.25 18.4 14.4 Q12.1 15.75 4.2 15.75 L-5.75 15.1 -10.0 14.4 -10.6 14.25 -11.8 4.9 -10.9 4.9 -5.4 5.65 Q0.5 7.15 4.25 11.15" fill="#000000" fill-rule="evenodd" stroke="none"/>
      <path d="M4.25 11.75 Q7.8 7.45 13.9 6.15 L19.25 5.75 18.2 13.55 Q12.1 14.9 4.2 14.9 L-5.75 14.25 -9.8 13.55 -10.85 5.75 -5.45 6.15 Q0.65 7.45 4.25 11.75" fill="#ff9a00" fill-rule="evenodd" stroke="none"/>
      <path d="M3.55 12.25 L4.25 13.1 4.95 12.25 Q9.65 6.55 18.2 6.55 L17.4 13.85 Q10.55 15.1 4.2 15.1 -0.45 15.1 -9.0 13.55 L-9.85 6.55 Q-1.2 6.55 3.55 12.25" fill="#fbc733" fill-rule="evenodd" stroke="none"/>
      <path d="M-5.45 17.8 L-5.1 17.6 -5.65 20.45 -6.15 20.25 -5.45 17.8 M-8.1 17.1 L-7.8 16.9 -8.3 19.45 -8.7 19.25 -8.1 17.1 M-2.3 18.5 L-1.9 18.25 -2.25 21.35 -2.8 21.2 -2.3 18.5 M14.4 17.65 L14.65 17.3 15.2 20.55 14.65 20.7 14.4 17.65 M11.25 18.45 L11.55 18.05 12.0 21.3 11.45 21.4 11.25 18.45 M16.95 17.05 L17.15 16.75 17.9 19.65 17.45 19.85 16.95 17.05 M8.15 21.8 L8.0 18.75 8.3 18.4 8.7 21.75 8.15 21.8 M4.3 22.0 L4.35 18.8 4.7 18.45 4.85 22.0 4.3 22.0 M1.15 21.8 L0.6 21.75 0.95 18.8 1.3 18.5 1.15 21.8" fill="#262b26" fill-rule="evenodd" stroke="none"/>
      <path d="M9.15 14.55 Q16.35 11.35 17.35 10.45 L17.3 13.35 Q11.8 14.8 9.15 14.55" fill="#ff9a00" fill-rule="evenodd" stroke="none"/>
      <path d="M-1.4 14.45 L-5.85 14.05 -9.15 13.35 -9.4 11.75 -9.75 11.2 Q-9.95 10.8 -9.5 11.25 -6.7 13.85 -1.4 14.45" fill="#ff9a00" fill-rule="evenodd" stroke="none"/>
      <path d="M4.35 13.85 Q-5.15 13.3 -8.4 8.7 L-9.1 6.65 -7.35 6.6 Q-5.05 6.8 -2.35 8.1 2.5 10.35 4.25 12.5 7.75 7.45 16.8 6.8 15.15 7.25 14.1 8.85 12.85 10.8 11.85 11.35 8.55 13.25 4.35 13.85" fill="#fbff33" fill-rule="evenodd" stroke="none"/>
      <path d="M4.3 14.75 Q12.8 14.7 18.95 13.15 L18.95 15.0 Q12.75 17.25 4.3 17.25 -4.1 17.25 -10.25 15.0 L-10.25 13.15 -6.15 13.95 4.3 14.75" fill="#000000" fill-rule="evenodd" stroke="none"/>
      <path d="M4.3 15.15 Q11.7 15.15 18.55 13.7 L18.55 14.7 Q12.45 16.85 4.3 16.85 -3.75 16.85 -9.8 14.7 L-9.8 13.7 Q-3.15 15.15 4.3 15.15" fill="#262b26" fill-rule="evenodd" stroke="none"/>
      <path d="M9.85 16.3 Q9.85 17.8 8.25 18.85 6.65 19.9 4.4 19.9 2.1 19.9 0.5 18.85 -1.1 17.8 -1.1 16.3 -1.1 14.85 0.5 13.75 2.15 12.7 4.4 12.7 6.65 12.7 8.25 13.75 9.85 14.85 9.85 16.3" fill="#000000" fill-rule="evenodd" stroke="none"/>
      <path d="M0.85 14.25 Q2.35 13.35 4.4 13.35 6.45 13.35 7.95 14.25 9.45 15.1 9.45 16.3 9.45 17.5 7.95 18.4 6.45 19.3 4.4 19.3 2.35 19.3 0.85 18.4 -0.65 17.5 -0.65 16.3 -0.65 15.1 0.85 14.25" fill="#ff9a00" fill-rule="evenodd" stroke="none"/>
      <path d="M0.75 18.4 Q0.05 18.0 3.7 15.9 7.3 13.85 8.0 14.3 9.4 15.15 9.4 16.3 9.4 17.5 7.9 18.4 6.4 19.3 4.35 19.3 2.3 19.3 0.75 18.4" fill="#ff6d00" fill-rule="evenodd" stroke="none"/>
      <path d="M0.6 16.05 L1.3 15.9 Q1.75 16.05 1.75 16.15 L1.55 17.0 1.85 17.5 Q1.7 17.55 1.05 17.1 L0.75 17.9 Q0.55 17.9 0.6 16.05" fill="#fdff2f" fill-rule="evenodd" stroke="none"/>
      <path d="M2.35 16.5 L2.65 16.4 3.0 16.35 Q3.6 16.55 3.05 17.1 2.95 17.2 2.95 16.9 L2.4 17.3 Q2.15 17.35 2.15 17.05 L2.35 16.5" fill="#fdff2f" fill-rule="evenodd" stroke="none"/>
      <path d="M3.25 16.25 Q3.75 16.65 3.75 16.5 3.75 15.15 4.2 16.05 3.7 17.6 3.4 17.45 3.65 16.75 3.5 16.6 L3.25 16.25" fill="#fdff2f" fill-rule="evenodd" stroke="none"/>
      <path d="M4.8 15.1 Q5.15 15.1 5.35 16.0 5.75 16.0 5.5 16.6 L4.7 16.7 Q4.55 16.7 4.8 15.1" fill="#fdff2f" fill-rule="evenodd" stroke="none"/>
      <path d="M5.95 15.95 Q6.45 15.7 6.45 16.2 6.45 16.7 6.1 16.7 L5.7 16.4 Q5.65 16.1 5.95 15.95" fill="#fdff2f" fill-rule="evenodd" stroke="none"/>
      <path d="M6.7 16.45 L6.75 15.8 7.0 16.1 7.45 15.85 8.55 16.25 8.15 16.6 Q7.7 15.95 7.4 16.2 L6.7 16.45" fill="#fdff2f" fill-rule="evenodd" stroke="none"/>
      <path d="M1.85 15.6 Q1.55 15.1 1.1 15.2 L2.65 14.45 Q3.7 14.5 2.9 15.7 L2.05 16.2 1.85 15.6" fill="#fdff2f" fill-rule="evenodd" stroke="none"/>
      <path d="M3.6 15.65 L3.5 14.3 4.3 14.1 5.6 14.35 5.4 15.15 4.7 14.75 4.35 15.65 3.6 15.65" fill="#fdff2f" fill-rule="evenodd" stroke="none"/>
      <path d="M6.05 14.4 L8.35 15.3 Q8.95 15.85 8.2 15.75 L6.4 15.3 5.8 15.45 6.05 14.4" fill="#fdff2f" fill-rule="evenodd" stroke="none"/>
      <path d="M1.25 17.75 L3.4 17.75 Q3.75 17.9 3.9 17.45 4.0 18.6 3.6 18.6 L1.25 17.75" fill="#fdff2f" fill-rule="evenodd" stroke="none"/>
      <path d="M4.3 17.6 L4.45 17.1 5.6 17.15 Q6.35 18.3 5.95 18.45 L4.2 18.55 4.3 17.6" fill="#fdff2f" fill-rule="evenodd" stroke="none"/>
      <path d="M6.2 17.25 L7.65 17.05 Q8.5 17.05 8.3 17.25 7.3 18.45 6.55 18.3 L6.2 17.25" fill="#fdff2f" fill-rule="evenodd" stroke="none"/>
      <path d="M-8.0 15.35 L-7.85 14.1 -1.65 14.9 -1.6 15.85 -1.65 16.5 -8.0 15.35" fill="#4e514e" fill-rule="evenodd" stroke="none"/>
      <path d="M17.5 14.0 L17.65 15.05 16.55 15.35 16.3 14.15 17.5 14.0" fill="#4e514e" fill-rule="evenodd" stroke="none"/>
      <path d="M-5.85 14.4 L-5.85 15.85 -6.35 15.75 -6.3 14.35 -5.85 14.4" fill="#a4a4a7" fill-rule="evenodd" stroke="none"/>
      <path d="M6.4 9.2 L10.35 6.85 6.8 9.75 10.25 12.8 6.4 10.3 4.55 14.5 5.75 10.05 1.2 9.6 5.8 9.4 4.8 4.9 6.4 9.2" fill="#ffffff" fill-rule="evenodd" stroke="none"/>
      <path d="M12.6 10.3 L11.5 8.0 9.45 9.5 11.25 7.75 9.25 6.2 11.45 7.4 12.3 5.0 11.85 7.5 14.4 7.55 11.85 7.9 12.6 10.3" fill="#ffffff" fill-rule="evenodd" stroke="none"/>
      <path d="M2.6 11.0 L2.6 13.2 2.3 11.0 0.15 11.7 2.15 10.7 0.9 8.9 2.4 10.5 3.75 8.7 2.7 10.65 4.8 11.4 2.6 11.0" fill="#ffffff" fill-rule="evenodd" stroke="none"/>
    </g>
  </defs>
</svg>
