<?xml version="1.0" encoding="UTF-8" standalone="no"?>
<svg xmlns:xlink="http://www.w3.org/1999/xlink" height="82.0px" width="84.85px" xmlns="http://www.w3.org/2000/svg">
  <g transform="matrix(1.0, 0.0, 0.0, 1.0, 37.4, 42.25)">
    <use height="38.0" transform="matrix(1.0, 0.0, 0.0, 1.0, -11.95, -17.45)" width="32.05" xlink:href="#sprite0"/>
    <use height="38.95" transform="matrix(1.0, 0.0, 0.0, 1.0, -12.45, -17.95)" width="33.05" xlink:href="#sprite1"/>
    <use height="36.45" transform="matrix(1.0, 0.0, 0.0, 1.0, -23.75, -9.9)" width="56.75" xlink:href="#shape2"/>
  </g>
  <defs>
    <g id="sprite0" transform="matrix(1.0, 0.0, 0.0, 1.0, -0.05, 0.0)">
      <use height="38.0" transform="matrix(1.0, 0.0, 0.0, 1.0, 0.05, 0.0)" width="32.05" xlink:href="#shape0"/>
    </g>
    <g id="shape0" transform="matrix(1.0, 0.0, 0.0, 1.0, -0.05, 0.0)">
      <path d="M27.35 7.4 Q29.5 11.55 30.9 16.15 32.35 20.85 32.05 25.65 31.7 30.6 27.85 33.75 24.05 36.95 19.1 37.8 L16.5 38.0 Q12.9 38.0 9.45 36.85 4.8 35.25 2.35 31.35 -0.2 27.4 0.05 23.0 0.25 18.6 2.05 13.7 3.85 8.75 7.0 5.05 10.1 1.3 14.7 0.1 L16.5 0.0 Q18.4 0.05 20.2 0.8 24.95 2.85 27.35 7.4" fill="#c03232" fill-rule="evenodd" stroke="none"/>
    </g>
    <g id="sprite1" transform="matrix(1.0, 0.0, 0.0, 1.0, 0.45, 0.5)">
      <use height="38.95" transform="matrix(1.0, 0.0, 0.0, 1.0, -0.45, -0.5)" width="33.05" xlink:href="#shape1"/>
    </g>
    <g id="shape1" transform="matrix(1.0, 0.0, 0.0, 1.0, 0.45, 0.5)">
      <path d="M27.35 7.4 Q24.95 2.85 20.2 0.8 17.55 -0.3 14.7 0.1 10.1 1.3 7.0 5.05 3.85 8.75 2.05 13.7 0.25 18.6 0.05 23.0 -0.2 27.4 2.35 31.35 4.8 35.25 9.45 36.85 14.1 38.4 19.1 37.8 24.05 36.95 27.85 33.75 31.7 30.6 32.05 25.65 32.35 20.85 30.9 16.15 29.5 11.55 27.35 7.4 Z" fill="none" stroke="#000000" stroke-linecap="round" stroke-linejoin="round" stroke-width="1.0"/>
    </g>
    <g id="shape2" transform="matrix(1.0, 0.0, 0.0, 1.0, 23.75, 9.9)">
      <path d="M23.05 10.75 Q23.05 11.5 22.65 12.05 22.3 12.7 21.45 12.95 L21.6 13.55 21.25 14.75 Q20.6 15.7 19.15 15.8 L19.15 16.05 Q19.05 17.05 18.3 17.75 17.65 18.35 16.6 18.35 L16.6 18.4 16.5 19.05 Q16.15 20.1 15.3 20.55 L13.8 20.8 Q13.7 22.45 12.1 23.0 L10.45 22.95 Q10.45 25.4 7.95 25.4 L6.8 25.1 Q6.05 26.6 4.65 26.55 L4.55 26.55 Q3.35 26.55 2.65 25.55 L2.35 25.1 1.25 25.4 Q-1.2 25.4 -1.3 22.95 L-2.9 23.0 Q-4.5 22.45 -4.6 20.8 L-6.05 20.55 Q-7.0 20.05 -7.25 19.05 L-7.35 18.4 -7.35 18.35 Q-8.3 18.4 -9.05 17.75 -9.9 17.0 -9.9 15.9 L-9.9 15.8 Q-11.35 15.7 -11.95 14.7 -12.3 14.2 -12.3 13.55 L-12.2 12.95 Q-12.95 12.75 -13.4 12.05 -13.8 11.4 -13.8 10.75 L-13.55 9.7 -14.45 8.65 -14.65 7.7 Q-14.65 6.05 -13.05 5.4 L-9.7 4.25 -8.05 2.45 -7.85 2.3 -7.75 1.65 -4.4 1.85 Q-0.4 2.8 2.95 6.4 3.85 5.9 4.7 5.9 5.6 5.9 6.4 6.35 9.55 2.95 13.35 1.95 L16.7 1.65 17.45 2.25 17.85 2.35 19.85 4.55 22.35 5.4 Q23.3 5.8 23.7 6.75 L23.9 7.7 23.75 8.65 22.8 9.7 23.05 10.75" fill="#000000" fill-rule="evenodd" stroke="none"/>
      <path d="M22.55 5.7 Q24.15 6.3 23.5 7.9 23.1 8.95 22.0 8.95 23.35 9.95 22.5 11.3 21.9 12.25 20.75 12.05 21.65 13.0 21.0 14.05 20.15 15.45 18.35 14.55 L18.25 14.5 18.3 14.55 Q19.5 15.8 18.15 16.95 16.85 18.1 15.65 16.8 L15.2 16.3 15.85 17.4 Q16.7 18.85 15.2 19.75 13.7 20.55 12.8 19.1 L13.15 20.0 Q13.8 21.6 12.05 22.15 10.4 22.7 9.85 21.1 L9.6 20.45 9.8 22.85 Q9.8 24.6 8.05 24.6 6.7 24.6 6.35 23.3 L6.35 23.95 Q6.25 25.8 4.65 25.8 L4.5 25.8 Q3.8 25.8 3.25 25.1 2.85 24.6 2.85 23.95 L2.8 23.3 Q2.45 24.6 1.15 24.6 -0.6 24.6 -0.6 22.85 L-0.4 20.45 -0.65 21.1 Q-1.2 22.7 -2.85 22.15 -4.5 21.65 -3.95 20.0 L-3.6 19.1 Q-4.5 20.55 -5.95 19.75 -7.45 18.9 -6.65 17.4 L-5.95 16.3 -6.4 16.8 Q-7.6 18.1 -8.9 16.95 -10.2 15.8 -9.05 14.55 L-9.0 14.5 -9.1 14.55 Q-10.8 15.4 -11.75 14.05 -12.4 13.0 -11.5 12.05 -12.65 12.25 -13.2 11.3 -14.1 9.9 -12.7 8.95 -13.75 8.95 -14.25 7.9 -14.9 6.35 -13.25 5.7 -9.6 4.25 -7.25 3.8 -5.5 3.5 -5.2 5.2 -5.1 5.8 -5.4 6.3 -4.3 6.55 -4.05 7.7 L-4.05 7.95 Q-3.25 8.15 -2.9 8.75 L-2.65 9.45 -1.55 8.8 Q-0.05 7.95 0.85 9.4 L0.95 9.6 Q1.95 9.5 2.55 10.25 3.55 11.6 2.2 12.65 L2.55 12.85 Q3.9 13.95 2.8 15.25 L2.55 15.55 3.25 15.75 Q3.95 16.15 4.1 16.75 L4.5 16.7 4.65 16.7 5.05 16.75 Q5.3 16.1 5.9 15.75 L6.65 15.55 6.4 15.25 Q5.2 13.95 6.6 12.85 L6.95 12.65 Q5.6 11.55 6.65 10.25 7.25 9.5 8.25 9.6 L8.35 9.4 Q9.2 7.9 10.75 8.8 L11.85 9.45 12.1 8.75 Q12.45 8.15 13.25 7.95 L13.3 7.7 Q13.45 6.55 14.6 6.3 14.35 5.7 14.4 5.2 14.75 3.55 16.45 3.8 L22.55 5.7" fill="#442d00" fill-rule="evenodd" stroke="none"/>
      <path d="M1.45 16.9 Q2.0 15.9 3.05 16.45 4.05 17.0 3.5 18.05 L2.95 19.55 Q2.35 21.4 2.35 23.25 2.35 24.4 1.15 24.4 0.0 24.4 0.0 23.25 0.0 21.0 0.7 18.8 L1.45 16.9" fill="#ffc032" fill-rule="evenodd" stroke="none"/>
      <path d="M4.5 17.5 Q5.05 17.5 5.35 17.85 L5.7 18.65 5.8 24.35 Q5.7 25.65 4.55 25.65 3.5 25.65 3.4 24.35 L3.35 18.7 Q3.35 17.5 4.5 17.5" fill="#ffc032" fill-rule="evenodd" stroke="none"/>
      <path d="M0.55 13.55 Q1.4 12.6 2.25 13.4 3.15 14.1 2.4 15.05 L1.0 17.0 Q-0.45 19.25 -1.15 21.25 -1.5 22.4 -2.65 22.0 -3.45 21.7 -3.45 20.85 L-3.4 20.5 Q-2.6 18.2 -1.0 15.7 L0.55 13.55" fill="#ffc032" fill-rule="evenodd" stroke="none"/>
      <path d="M0.35 9.7 Q0.6 10.05 0.5 10.6 L-0.05 11.35 Q-4.15 13.65 -6.85 16.65 -7.1 16.95 -7.65 17.05 L-8.5 16.75 Q-8.9 16.35 -8.9 15.85 -8.9 15.4 -8.6 15.1 -6.9 13.15 -3.95 11.05 L-1.25 9.25 Q-0.2 8.7 0.35 9.7" fill="#ffc032" fill-rule="evenodd" stroke="none"/>
      <path d="M-4.95 8.65 Q-4.0 8.05 -3.35 9.05 -3.05 9.45 -3.2 9.95 -3.25 10.4 -3.75 10.7 L-9.35 14.2 Q-10.6 14.85 -11.25 13.85 L-11.35 13.05 Q-11.2 12.55 -10.65 12.25 L-4.95 8.65" fill="#ffc032" fill-rule="evenodd" stroke="none"/>
      <path d="M-5.95 6.75 Q-4.8 6.55 -4.6 7.75 -4.4 8.9 -5.6 9.1 L-7.2 9.5 Q-9.2 10.2 -11.1 11.4 L-11.95 11.6 -12.7 11.05 -12.9 10.4 Q-12.9 9.75 -12.35 9.45 -10.15 8.05 -7.85 7.25 -6.4 6.75 -5.95 6.75" fill="#ffc032" fill-rule="evenodd" stroke="none"/>
      <path d="M-7.1 4.25 Q-5.9 4.05 -5.75 5.2 -5.55 6.35 -6.7 6.6 -8.9 7.05 -12.15 8.35 -13.25 8.8 -13.7 7.7 L-13.75 7.25 Q-13.75 6.4 -13.05 6.15 -9.4 4.65 -7.1 4.25" fill="#ffc032" fill-rule="evenodd" stroke="none"/>
      <path d="M0.45 10.4 Q1.4 9.65 2.1 10.65 2.85 11.6 1.85 12.3 L-0.35 14.3 Q-2.75 16.65 -4.05 19.05 L-4.75 19.6 -5.65 19.5 -6.25 18.8 Q-6.35 18.25 -6.1 17.9 -4.6 15.2 -1.95 12.55 L0.45 10.4" fill="#ffc032" fill-rule="evenodd" stroke="none"/>
      <path d="M7.8 16.9 L8.6 18.8 Q9.3 21.0 9.3 23.25 9.3 24.4 8.1 24.4 6.9 24.4 6.9 23.25 6.9 21.4 6.35 19.55 L5.75 18.05 Q5.2 16.95 6.25 16.45 7.25 15.9 7.8 16.9" fill="#ffc032" fill-rule="evenodd" stroke="none"/>
      <path d="M4.75 17.5 Q5.9 17.5 5.9 18.7 L5.85 24.35 Q5.75 25.65 4.7 25.65 3.55 25.65 3.45 24.35 L3.55 18.65 Q3.55 18.15 3.9 17.85 4.2 17.5 4.75 17.5" fill="#ffc032" fill-rule="evenodd" stroke="none"/>
      <path d="M8.7 13.55 L10.25 15.7 Q11.85 18.2 12.65 20.5 L12.7 20.85 Q12.7 21.7 11.9 22.0 10.85 22.35 10.4 21.25 9.75 19.25 8.25 17.0 L6.85 15.05 Q6.1 14.1 7.0 13.4 7.85 12.6 8.7 13.55" fill="#ffc032" fill-rule="evenodd" stroke="none"/>
      <path d="M13.2 11.05 Q16.15 13.15 17.85 15.1 L18.15 15.85 Q18.15 16.35 17.75 16.75 17.4 17.05 16.9 17.05 16.35 16.95 16.1 16.65 14.55 14.9 11.95 13.05 L9.35 11.35 8.75 10.6 Q8.65 10.05 8.9 9.7 9.45 8.7 10.5 9.25 L13.2 11.05" fill="#ffc032" fill-rule="evenodd" stroke="none"/>
      <path d="M14.2 8.65 L19.95 12.25 Q20.45 12.5 20.6 13.05 20.75 13.5 20.5 13.85 19.85 14.85 18.6 14.2 L13.0 10.7 Q12.6 10.45 12.45 9.95 12.4 9.45 12.6 9.05 13.25 8.05 14.2 8.65" fill="#ffc032" fill-rule="evenodd" stroke="none"/>
      <path d="M22.15 10.4 L22.0 11.05 21.25 11.6 20.35 11.4 Q18.45 10.2 16.5 9.5 L14.85 9.1 Q13.75 8.95 13.85 7.75 14.05 6.55 15.2 6.75 L17.15 7.25 Q19.4 8.05 21.6 9.45 22.15 9.75 22.15 10.4" fill="#ffc032" fill-rule="evenodd" stroke="none"/>
      <path d="M16.35 4.25 L22.3 6.15 Q23.05 6.4 23.05 7.25 L22.95 7.7 Q22.5 8.8 21.4 8.35 18.2 7.05 15.95 6.6 14.85 6.35 15.0 5.2 15.2 4.05 16.35 4.25" fill="#ffc032" fill-rule="evenodd" stroke="none"/>
      <path d="M8.8 10.4 L11.2 12.55 Q13.85 15.2 15.4 17.9 15.65 18.4 15.5 18.8 L14.95 19.5 14.05 19.6 13.3 19.05 Q12.0 16.65 9.6 14.3 L7.4 12.3 Q6.4 11.6 7.15 10.65 7.85 9.65 8.8 10.4" fill="#ffc032" fill-rule="evenodd" stroke="none"/>
      <path d="M3.55 10.35 Q4.2 9.35 5.2 9.95 6.25 10.55 5.6 11.55 L4.5 13.7 Q3.45 16.1 3.05 18.2 2.85 19.4 1.7 19.2 0.85 19.05 0.75 18.2 L0.75 17.85 Q1.15 15.45 2.35 12.75 3.1 11.0 3.55 10.35" fill="#c27400" fill-rule="evenodd" stroke="none"/>
      <path d="M1.45 9.95 L4.4 8.6 Q5.55 8.2 5.9 9.3 L5.9 10.2 5.2 10.85 Q0.95 12.25 -2.3 15.0 -2.7 15.35 -3.15 15.25 -3.65 15.25 -3.95 14.85 -4.3 14.5 -4.2 13.9 -4.1 13.4 -3.8 13.2 -1.75 11.5 1.45 9.95" fill="#c27400" fill-rule="evenodd" stroke="none"/>
      <path d="M2.1 10.55 L4.5 8.4 Q5.45 7.65 6.15 8.65 6.9 9.55 5.95 10.3 L3.75 12.3 Q1.35 14.65 0.0 17.05 L-0.7 17.6 -1.6 17.5 -2.15 16.8 Q-2.3 16.4 -2.05 15.9 -0.55 13.2 2.1 10.55" fill="#c27400" fill-rule="evenodd" stroke="none"/>
      <path d="M7.8 10.35 L9.0 12.75 Q10.2 15.45 10.6 17.85 L10.6 18.2 Q10.5 19.05 9.65 19.2 8.5 19.4 8.3 18.2 7.9 16.1 6.85 13.7 L5.75 11.55 Q5.15 10.45 6.2 9.95 7.15 9.35 7.8 10.35" fill="#c27400" fill-rule="evenodd" stroke="none"/>
      <path d="M9.95 9.95 Q13.15 11.5 15.15 13.2 15.45 13.4 15.55 13.9 L15.3 14.85 Q15.0 15.25 14.5 15.25 L13.65 15.0 Q10.4 12.25 6.15 10.85 5.65 10.6 5.5 10.2 5.3 9.8 5.45 9.3 5.9 8.25 7.0 8.6 L9.95 9.95" fill="#c27400" fill-rule="evenodd" stroke="none"/>
      <path d="M9.25 10.55 Q11.9 13.2 13.4 15.9 13.65 16.4 13.5 16.8 L12.95 17.5 12.05 17.6 11.35 17.05 Q10.05 14.65 7.65 12.3 L5.45 10.3 Q4.45 9.6 5.2 8.65 5.9 7.65 6.85 8.4 L9.25 10.55" fill="#c27400" fill-rule="evenodd" stroke="none"/>
      <path d="M2.7 7.75 L3.4 8.1 3.55 7.4 3.75 9.8 Q3.65 10.3 1.95 11.25 0.05 12.3 -1.7 12.5 -7.1 13.05 -9.95 6.35 L-10.1 6.05 -6.95 2.55 -6.85 2.5 -4.0 2.85 Q-0.5 3.95 2.7 7.75" fill="#c27400" fill-rule="evenodd" stroke="none"/>
      <path d="M21.0 6.05 L20.85 6.35 Q18.65 11.5 14.95 12.35 12.5 12.9 9.75 11.65 L7.35 10.15 7.2 10.0 7.15 9.8 7.35 7.4 7.35 7.2 7.45 7.1 Q10.6 3.45 14.35 2.55 L17.65 2.45 17.8 2.5 21.0 6.05" fill="#c27400" fill-rule="evenodd" stroke="none"/>
      <path d="M2.4 9.0 L2.65 8.25 5.55 10.65 8.45 8.25 8.75 9.0 Q9.5 11.25 9.5 13.4 9.5 18.05 6.2 20.85 L5.55 21.35 4.9 20.85 Q1.65 17.95 1.65 13.4 1.65 11.25 2.4 9.0" fill="#c27400" fill-rule="evenodd" stroke="none"/>
      <path d="M2.75 10.2 Q3.4 9.2 4.35 9.8 5.4 10.3 4.8 11.4 4.4 12.0 3.7 13.55 2.65 15.95 2.25 18.05 2.05 19.25 0.9 19.05 0.05 18.9 -0.05 18.05 L-0.05 17.65 Q0.35 15.25 1.55 12.55 L2.75 10.2" fill="#442d00" fill-rule="evenodd" stroke="none"/>
      <path d="M4.35 10.65 L4.3 11.1 3.15 13.4 Q2.05 15.85 1.7 17.95 1.6 18.6 1.0 18.45 0.6 18.35 0.5 17.95 L0.5 17.75 Q0.9 15.4 2.1 12.75 3.1 10.5 3.25 10.5 L3.6 10.2 4.1 10.25 4.35 10.65" fill="#ffc032" fill-rule="evenodd" stroke="none"/>
      <path d="M0.6 9.75 Q3.0 8.55 3.6 8.45 4.65 8.0 5.1 9.15 L5.05 10.05 4.4 10.65 1.55 11.95 Q-1.35 13.4 -3.1 14.85 L-3.95 15.1 Q-4.45 15.1 -4.75 14.7 -5.15 14.25 -5.05 13.75 L-4.6 13.0 Q-2.55 11.3 0.6 9.75" fill="#442d00" fill-rule="evenodd" stroke="none"/>
      <path d="M0.9 10.25 Q3.15 9.15 3.8 9.0 4.35 8.7 4.55 9.35 L4.55 9.8 4.2 10.15 Q0.15 11.35 -3.45 14.4 L-3.9 14.55 -4.35 14.35 -4.5 13.95 -4.45 13.85 -4.25 13.45 Q-2.25 11.8 0.9 10.25" fill="#ffc032" fill-rule="evenodd" stroke="none"/>
      <path d="M1.3 10.4 L3.7 8.25 Q4.6 7.5 5.35 8.45 6.05 9.45 5.1 10.15 4.4 10.65 2.9 12.15 0.5 14.5 -0.8 16.9 L-1.5 17.45 -2.4 17.35 -3.0 16.65 Q-3.1 16.05 -2.85 15.75 -1.35 13.05 1.3 10.4" fill="#442d00" fill-rule="evenodd" stroke="none"/>
      <path d="M1.7 10.8 L4.05 8.7 4.9 8.8 Q5.25 9.35 4.8 9.7 L2.5 11.75 Q0.1 14.15 -1.3 16.6 L-1.65 16.9 -2.15 16.85 -2.45 16.5 -2.4 16.0 Q-0.95 13.4 1.7 10.8" fill="#ffc032" fill-rule="evenodd" stroke="none"/>
      <path d="M7.0 10.2 L8.2 12.55 Q9.4 15.25 9.8 17.65 L9.8 18.05 Q9.7 18.9 8.85 19.05 7.7 19.25 7.5 18.05 7.1 15.95 6.05 13.55 L4.95 11.4 Q4.35 10.35 5.35 9.8 6.35 9.2 7.0 10.2" fill="#442d00" fill-rule="evenodd" stroke="none"/>
      <path d="M6.5 10.5 L7.65 12.75 Q8.85 15.45 9.25 17.75 L9.25 17.95 8.75 18.45 Q8.15 18.6 8.05 17.95 7.45 14.6 5.45 11.1 L5.4 10.65 Q5.4 10.4 5.65 10.25 L6.15 10.2 6.5 10.5" fill="#ffc032" fill-rule="evenodd" stroke="none"/>
      <path d="M9.1 9.75 Q12.3 11.35 14.35 13.0 L14.75 13.75 14.5 14.7 Q14.2 15.1 13.7 15.1 13.25 15.2 12.85 14.85 11.05 13.35 8.2 11.95 L5.35 10.65 Q4.85 10.5 4.65 10.05 4.5 9.6 4.65 9.15 5.1 8.0 6.15 8.45 L9.1 9.75" fill="#442d00" fill-rule="evenodd" stroke="none"/>
      <path d="M8.85 10.25 Q12.0 11.8 14.0 13.45 L14.2 13.85 14.2 13.95 14.05 14.35 Q13.85 14.55 13.65 14.55 L13.2 14.4 Q9.75 11.55 5.55 10.15 L5.2 9.8 Q5.05 9.6 5.2 9.35 5.4 8.7 5.95 9.0 6.6 9.15 8.85 10.25" fill="#ffc032" fill-rule="evenodd" stroke="none"/>
      <path d="M8.45 10.4 Q11.1 13.05 12.6 15.75 12.85 16.2 12.7 16.65 L12.15 17.35 11.25 17.45 10.55 16.9 Q9.2 14.5 6.85 12.15 L4.6 10.15 Q3.7 9.45 4.4 8.45 5.15 7.5 6.05 8.25 L8.45 10.4" fill="#442d00" fill-rule="evenodd" stroke="none"/>
      <path d="M8.05 10.8 Q10.65 13.4 12.1 16.0 L12.15 16.5 11.9 16.85 11.4 16.9 11.05 16.6 Q9.65 14.15 7.25 11.75 L4.95 9.7 Q4.5 9.35 4.85 8.8 L5.7 8.7 8.05 10.8" fill="#ffc032" fill-rule="evenodd" stroke="none"/>
      <path d="M2.45 7.25 L2.8 7.5 2.95 9.65 Q2.85 10.15 1.15 11.05 -0.75 12.1 -2.5 12.3 -7.9 12.95 -10.75 6.2 L-10.9 5.9 -7.8 2.4 -8.1 3.2 -4.7 2.95 Q-0.75 3.45 2.45 7.25" fill="#442d00" fill-rule="evenodd" stroke="none"/>
      <path d="M2.4 9.55 Q0.35 11.3 -2.25 11.7 -7.45 12.55 -10.25 6.0 L-7.45 2.85 -4.4 2.95 Q-0.8 3.75 2.2 7.3 L2.4 9.55" fill="#ffc032" fill-rule="evenodd" stroke="none"/>
      <path d="M13.8 2.85 L17.1 2.95 17.0 2.35 20.15 5.9 20.05 6.2 Q17.9 11.3 14.1 12.2 11.7 12.75 8.95 11.5 L6.55 10.0 6.4 9.85 6.35 9.65 6.55 7.2 6.55 7.05 6.95 7.15 Q10.1 3.5 13.8 2.85" fill="#442d00" fill-rule="evenodd" stroke="none"/>
      <path d="M16.7 2.85 L19.5 6.0 Q16.7 12.55 11.5 11.7 9.9 11.45 8.25 10.45 L6.9 9.55 7.1 7.3 Q10.1 3.75 13.7 2.95 L16.7 2.85" fill="#ffc032" fill-rule="evenodd" stroke="none"/>
      <path d="M1.6 8.85 L1.85 8.05 4.75 10.5 7.65 8.1 7.9 8.85 Q8.7 11.05 8.7 13.2 8.7 17.9 5.4 20.7 5.4 20.9 4.7 21.15 L4.1 20.7 Q0.8 17.75 0.8 13.25 0.8 11.25 1.6 8.85" fill="#442d00" fill-rule="evenodd" stroke="none"/>
      <path d="M7.4 9.05 Q9.9 16.25 4.85 20.4 L4.75 20.5 4.7 20.4 Q-0.45 16.4 2.15 9.05 L4.75 11.2 7.4 9.05" fill="#ffc032" fill-rule="evenodd" stroke="none"/>
      <path d="M2.15 7.4 L1.45 8.9 Q-2.2 7.8 -2.8 6.35 -2.7 4.65 -3.15 3.95 -3.9 2.7 -8.15 3.05 -1.3 2.0 2.15 7.4" fill="#ffff9a" fill-rule="evenodd" stroke="none"/>
      <path d="M7.85 9.4 Q7.85 12.55 4.7 12.55 1.6 12.55 1.6 9.4 1.6 6.65 4.7 6.65 7.85 6.65 7.85 9.4" fill="#442d00" fill-rule="evenodd" stroke="none"/>
      <path d="M2.15 9.4 Q2.15 6.85 4.7 6.85 7.3 6.85 7.3 9.4 7.3 12.0 4.7 12.0 2.15 12.0 2.15 9.4" fill="#ffc032" fill-rule="evenodd" stroke="none"/>
      <path d="M2.15 9.45 Q2.15 6.9 4.75 6.9 6.8 6.9 7.25 8.95 L6.75 8.6 Q6.05 8.25 5.15 8.85 4.25 9.45 4.0 10.75 L3.7 11.8 Q2.15 11.1 2.15 9.45" fill="#ffff9a" fill-rule="evenodd" stroke="none"/>
      <path d="M-5.9 10.2 Q-2.25 11.6 1.2 10.3 -1.95 12.55 -5.3 11.4 -6.75 10.9 -7.95 9.7 L-8.8 8.6 -5.9 10.2" fill="#ffff9a" fill-rule="evenodd" stroke="none"/>
      <path d="M7.95 10.3 Q13.55 12.35 17.95 8.6 16.95 10.6 14.6 11.4 L10.05 11.3 7.95 10.3" fill="#ffff9a" fill-rule="evenodd" stroke="none"/>
      <path d="M1.65 10.45 Q1.75 11.0 3.15 12.25 4.45 13.45 4.4 14.05 4.35 15.15 4.65 17.65 L2.8 12.9 2.35 14.6 Q2.15 16.75 3.6 19.3 1.55 17.25 1.4 13.65 L1.65 10.45" fill="#ffff9a" fill-rule="evenodd" stroke="none"/>
      <path d="M-1.45 20.8 Q-1.45 21.6 -2.3 21.6 -3.1 21.6 -3.1 20.8 -3.1 20.35 -1.9 18.25 -1.45 19.95 -1.45 20.8" fill="#ffff9a" fill-rule="evenodd" stroke="none"/>
      <path d="M1.9 22.95 Q2.0 23.75 1.2 23.85 0.4 23.95 0.3 23.15 0.25 22.7 1.15 20.45 L1.9 22.95" fill="#ffff9a" fill-rule="evenodd" stroke="none"/>
      <path d="M5.3 24.2 Q5.55 24.95 4.8 25.25 4.0 25.4 3.75 24.7 3.65 24.25 4.15 21.9 L5.3 24.2" fill="#ffff9a" fill-rule="evenodd" stroke="none"/>
      <path d="M-4.2 18.65 Q-4.5 19.4 -5.25 19.15 -6.0 18.85 -5.75 18.15 -5.65 17.7 -3.85 16.05 -3.95 17.5 -4.2 18.65" fill="#ffff9a" fill-rule="evenodd" stroke="none"/>
      <path d="M-6.9 16.05 Q-7.3 16.8 -8.0 16.45 -8.7 16.1 -8.35 15.35 -8.15 14.95 -6.15 13.6 -6.45 15.2 -6.9 16.05" fill="#ffff9a" fill-rule="evenodd" stroke="none"/>
      <path d="M-9.5 13.6 Q-10.0 14.3 -10.6 13.75 -11.25 13.3 -10.8 12.65 L-8.3 11.3 -9.5 13.6" fill="#ffff9a" fill-rule="evenodd" stroke="none"/>
      <path d="M10.7 20.95 Q10.7 20.05 11.15 18.35 12.3 20.5 12.3 20.95 12.3 21.75 11.5 21.75 10.7 21.75 10.7 20.95" fill="#ffff9a" fill-rule="evenodd" stroke="none"/>
      <path d="M7.35 23.05 L8.1 20.6 Q9.0 22.85 8.95 23.25 8.85 24.15 8.05 23.95 7.25 23.85 7.35 23.05" fill="#ffff9a" fill-rule="evenodd" stroke="none"/>
      <path d="M3.9 24.35 Q3.7 22.55 4.1 21.9 5.6 24.4 5.5 24.8 5.25 25.6 4.45 25.35 3.7 25.1 3.9 24.35" fill="#ffff9a" fill-rule="evenodd" stroke="none"/>
      <path d="M13.45 18.75 L13.1 16.2 15.0 18.25 Q15.25 19.05 14.45 19.3 13.7 19.5 13.45 18.75" fill="#ffff9a" fill-rule="evenodd" stroke="none"/>
      <path d="M16.1 16.2 L15.35 13.7 17.55 15.45 Q17.9 16.2 17.2 16.55 16.45 16.9 16.1 16.2" fill="#ffff9a" fill-rule="evenodd" stroke="none"/>
      <path d="M18.7 13.75 L17.5 11.4 Q19.75 12.4 20.0 12.75 20.5 13.45 19.85 13.9 19.15 14.4 18.7 13.75" fill="#ffff9a" fill-rule="evenodd" stroke="none"/>
      <path d="M-3.5 14.1 Q-3.75 14.45 -4.1 14.2 -4.45 13.9 -4.2 13.55 L-2.8 12.85 -3.5 14.1" fill="#ffff9a" fill-rule="evenodd" stroke="none"/>
      <path d="M-1.35 16.3 Q-1.45 16.8 -1.9 16.6 -2.3 16.5 -2.2 16.05 L-1.2 14.9 Q-1.2 15.95 -1.35 16.3" fill="#ffff9a" fill-rule="evenodd" stroke="none"/>
      <path d="M1.5 17.75 Q1.6 18.2 1.1 18.2 0.65 18.2 0.65 17.8 0.6 17.55 1.2 16.35 L1.5 17.75" fill="#ffff9a" fill-rule="evenodd" stroke="none"/>
      <path d="M13.25 14.1 L12.55 12.85 13.95 13.55 Q14.25 13.9 13.85 14.2 L13.25 14.1" fill="#ffff9a" fill-rule="evenodd" stroke="none"/>
      <path d="M11.1 16.3 Q10.95 15.95 10.95 14.9 L11.95 16.05 Q12.05 16.5 11.65 16.6 11.2 16.8 11.1 16.3" fill="#ffff9a" fill-rule="evenodd" stroke="none"/>
      <path d="M8.25 17.75 L8.5 16.35 9.1 17.8 Q9.1 18.2 8.65 18.2 8.15 18.2 8.25 17.75" fill="#ffff9a" fill-rule="evenodd" stroke="none"/>
      <path d="M3.6 7.55 Q5.15 6.85 5.85 7.7 6.25 8.1 4.6 8.55 4.2 8.7 3.8 9.7 3.45 10.5 3.05 10.25 2.5 9.85 2.7 8.85 2.9 7.85 3.6 7.55" fill="#ffffff" fill-rule="evenodd" stroke="none"/>
      <path d="M-4.65 4.0 L-5.3 5.4 Q-5.7 7.0 -4.4 8.1 -2.6 9.6 -0.3 9.95 -6.35 9.35 -7.95 8.2 L-10.35 6.35 Q-6.7 5.65 -4.65 4.0" fill="#c27400" fill-rule="evenodd" stroke="none"/>
      <path d="M-8.75 13.9 Q-7.45 12.05 -7.35 11.05 -6.85 11.6 -5.65 11.95 L-8.75 13.9" fill="#c27400" fill-rule="evenodd" stroke="none"/>
      <path d="M-4.75 14.7 L-5.9 15.65 Q-4.8 13.45 -5.75 12.5 L-5.4 12.15 -3.75 12.4 -4.95 13.5 Q-5.3 14.15 -4.75 14.7" fill="#c27400" fill-rule="evenodd" stroke="none"/>
      <path d="M-4.65 15.7 L-4.3 15.15 Q-3.55 15.15 -3.05 14.75 L-2.5 15.05 Q-3.6 16.0 -4.65 15.7" fill="#c27400" fill-rule="evenodd" stroke="none"/>
      <path d="M7.35 7.75 L12.1 8.85 Q14.1 10.25 18.2 7.1 14.65 10.95 8.25 9.75 L7.35 7.75" fill="#c27400" fill-rule="evenodd" stroke="none"/>
      <path d="M7.4 11.05 L7.45 13.95 Q7.05 17.3 4.85 19.4 5.75 18.25 5.95 15.9 6.15 13.7 5.6 12.4 6.9 12.0 7.4 11.05" fill="#c27400" fill-rule="evenodd" stroke="none"/>
      <path d="M-23.75 -2.3 L-21.2 -1.15 -19.05 -0.7 -12.35 -1.2 Q-8.2 -2.0 -5.7 0.2 -4.45 1.3 -4.05 2.6 L-3.95 2.85 -4.05 3.1 Q-4.7 5.25 -11.15 6.4 -15.2 7.1 -19.05 3.8 L-22.25 0.1 -23.75 -2.3" fill="#000000" fill-rule="evenodd" stroke="none"/>
      <path d="M-4.85 2.85 Q-5.35 4.55 -11.3 5.55 -15.0 6.2 -18.65 3.0 L-21.55 -0.35 -19.35 0.15 -12.15 -0.35 Q-6.25 -1.55 -4.85 2.85" fill="#ffc032" fill-rule="evenodd" stroke="none"/>
      <path d="M-5.25 2.1 L-4.85 2.85 Q-6.2 4.3 -8.3 4.8 -10.75 5.4 -12.55 4.1 L-16.75 0.1 -11.35 0.8 Q-5.8 1.65 -5.25 2.1" fill="#c27400" fill-rule="evenodd" stroke="none"/>
      <path d="M-17.35 -7.95 L-16.8 -9.9 -15.8 -8.1 -14.3 -6.25 Q-12.25 -4.2 -9.45 -3.1 -5.4 -1.6 -5.2 2.65 L-5.2 3.0 -5.45 3.3 Q-7.85 5.7 -13.65 2.65 -17.75 0.45 -17.75 -4.9 -17.75 -6.65 -17.35 -7.95" fill="#000000" fill-rule="evenodd" stroke="none"/>
      <path d="M-16.85 -3.95 L-16.55 -7.7 -14.95 -5.7 Q-12.8 -3.5 -9.75 -2.35 -6.2 -1.0 -6.05 2.7 -8.0 4.65 -13.25 1.9 -16.55 0.2 -16.85 -3.95" fill="#ffc032" fill-rule="evenodd" stroke="none"/>
      <path d="M-16.5 0.15 L-17.25 0.3 Q-17.85 0.7 -17.4 1.8 -16.35 4.35 -12.75 5.65 -18.25 5.55 -21.55 -0.35 L-16.5 0.15" fill="#ffff9a" fill-rule="evenodd" stroke="none"/>
      <path d="M-10.8 -2.75 L-14.2 -3.5 -15.35 -4.05 -15.05 -1.85 Q-14.0 0.8 -10.05 3.15 -14.7 2.1 -16.3 -1.4 -17.55 -4.25 -16.55 -7.7 -15.05 -5.1 -10.8 -2.75" fill="#ffff9a" fill-rule="evenodd" stroke="none"/>
      <path d="M-7.45 -0.75 Q-6.2 0.75 -6.05 2.7 -7.7 3.6 -9.8 3.1 -8.05 1.85 -7.9 0.75 L-8.65 -1.85 -7.45 -0.75" fill="#c27400" fill-rule="evenodd" stroke="none"/>
      <path d="M33.0 -2.3 L31.55 0.1 Q26.8 7.5 20.35 6.4 13.85 5.25 13.2 3.1 L13.1 2.85 13.2 2.6 Q13.65 1.3 14.9 0.2 17.4 -2.0 21.55 -1.2 27.75 0.05 30.45 -1.15 L33.0 -2.3" fill="#000000" fill-rule="evenodd" stroke="none"/>
      <path d="M14.0 2.85 Q14.35 1.75 15.45 0.8 17.65 -1.1 21.35 -0.35 28.05 0.95 30.8 -0.35 26.45 6.55 20.5 5.55 16.75 4.95 15.0 3.85 L14.0 2.85" fill="#ffc032" fill-rule="evenodd" stroke="none"/>
      <path d="M14.4 2.1 Q15.0 1.65 20.55 0.8 L25.95 0.1 21.75 4.1 Q19.95 5.4 17.5 4.8 15.4 4.3 14.0 2.85 L14.4 2.1" fill="#c27400" fill-rule="evenodd" stroke="none"/>
      <path d="M26.6 -7.95 Q27.0 -6.35 27.0 -4.9 27.0 0.5 22.85 2.65 17.0 5.7 14.6 3.3 L14.35 3.0 14.35 2.65 Q14.4 1.5 15.0 0.3 16.1 -2.15 18.6 -3.1 23.15 -4.85 25.0 -8.1 L26.05 -9.9 26.6 -7.95" fill="#000000" fill-rule="evenodd" stroke="none"/>
      <path d="M26.05 -3.95 Q25.75 0.2 22.45 1.9 17.15 4.65 15.2 2.7 15.25 1.8 15.7 0.7 16.7 -1.5 18.9 -2.35 23.8 -4.2 25.75 -7.7 L26.05 -3.95" fill="#ffc032" fill-rule="evenodd" stroke="none"/>
      <path d="M25.7 0.15 L30.8 -0.35 Q27.45 5.55 21.95 5.65 26.9 4.35 27.95 1.8 28.4 0.7 27.1 0.3 L25.7 0.15" fill="#ffff9a" fill-rule="evenodd" stroke="none"/>
      <path d="M20.0 -2.75 Q24.25 -5.1 25.75 -7.7 26.8 -4.25 25.5 -1.4 23.95 2.1 19.25 3.15 23.55 0.95 24.7 -2.4 L25.0 -5.25 Q22.95 -3.0 20.0 -2.75" fill="#ffff9a" fill-rule="evenodd" stroke="none"/>
      <path d="M16.6 -0.75 L17.85 -1.85 17.1 0.75 Q17.2 1.85 19.0 3.1 16.85 3.6 15.2 2.7 15.35 0.75 16.6 -0.75" fill="#c27400" fill-rule="evenodd" stroke="none"/>
      <path d="M7.2 7.35 L8.85 5.6 Q11.0 3.75 13.2 3.1 13.7 5.5 14.1 6.0 L9.4 6.6 7.2 7.35" fill="#ffff9a" fill-rule="evenodd" stroke="none"/>
    </g>
  </defs>
</svg>
