<?xml version="1.0" encoding="UTF-8" standalone="no"?>
<svg xmlns:xlink="http://www.w3.org/1999/xlink" height="82.0px" width="84.85px" xmlns="http://www.w3.org/2000/svg">
  <g transform="matrix(1.0, 0.0, 0.0, 1.0, 37.4, 42.25)">
    <use height="32.0" transform="matrix(-1.0, 0.0, 0.0, 1.0, -6.7, -20.95)" width="30.7" xlink:href="#sprite0"/>
    <use height="32.0" transform="matrix(1.0, 0.0, 0.0, 1.0, 15.2, -20.95)" width="30.7" xlink:href="#sprite0"/>
    <use height="38.0" transform="matrix(1.0, 0.0, 0.0, 1.0, -11.95, -17.45)" width="32.05" xlink:href="#sprite1"/>
    <use height="38.95" transform="matrix(1.0, 0.0, 0.0, 1.0, -12.45, -17.95)" width="33.05" xlink:href="#sprite2"/>
    <use height="20.9" transform="matrix(1.0, 0.0, 0.0, 1.0, -8.35, -1.15)" width="25.5" xlink:href="#sprite3"/>
  </g>
  <defs>
    <g id="sprite0" transform="matrix(1.0, 0.0, 0.0, 1.0, 15.35, 16.0)">
      <use height="32.0" transform="matrix(1.0, 0.0, 0.0, 1.0, -15.35, -16.0)" width="30.7" xlink:href="#shape0"/>
    </g>
    <g id="shape0" transform="matrix(1.0, 0.0, 0.0, 1.0, 15.35, 16.0)">
      <path d="M-11.65 1.3 Q-8.45 -0.1 -10.65 -6.1 -2.95 -2.6 -1.95 -0.15 -1.75 0.4 -0.65 0.35 L-0.55 0.45 1.7 4.0 Q3.85 7.6 4.2 8.95 L4.15 8.9 Q0.3 1.8 -1.55 1.65 L-3.25 1.7 Q-3.45 1.6 -3.5 0.3 -7.05 -3.4 -9.35 -4.1 -8.4 1.55 -11.6 1.4 L-11.65 1.4 -11.65 1.3 M-1.6 -3.25 Q-7.0 -5.65 -8.5 -6.7 L-8.85 -7.3 -1.1 -7.65 0.1 -6.4 Q0.7 -6.2 1.2 -7.0 9.5 -3.35 12.7 -0.45 L7.95 -2.65 Q1.7 -5.4 1.05 -5.05 L0.0 -4.45 -0.15 -4.65 Q-1.6 -4.6 -1.65 -5.8 L-6.2 -6.25 -1.6 -3.25 M-1.4 -9.65 L-8.6 -9.15 -9.0 -9.15 -7.35 -10.25 Q-5.15 -11.6 -3.3 -12.1 L-2.6 -12.0 -2.15 -12.5 Q3.8 -13.85 8.35 -12.25 10.2 -11.6 11.3 -10.7 L8.6 -11.75 Q2.75 -13.6 -2.15 -11.55 L-7.0 -9.75 -1.4 -9.65 M13.3 -9.65 L13.4 -9.6 13.45 -9.55 13.5 -9.5 13.3 -9.6 13.3 -9.65" fill="#6d0909" fill-rule="evenodd" stroke="none"/>
      <path d="M1.05 -13.4 L1.35 -13.4 2.1 -13.5 6.4 -13.3 7.5 -13.15 9.45 -12.25 9.5 -12.25 11.9 -10.85 13.4 -9.6 13.3 -9.65 11.7 -10.35 11.4 -10.6 11.3 -10.7 Q10.2 -11.6 8.35 -12.25 3.8 -13.85 -2.15 -12.5 L-2.6 -12.0 -3.3 -12.1 Q-5.15 -11.6 -7.35 -10.25 L-9.0 -9.15 -8.6 -9.15 -1.4 -9.65 -0.75 -9.8 -0.75 -9.85 Q1.65 -11.2 1.55 -9.45 L1.4 -9.45 Q2.75 -9.3 9.3 -5.4 L9.55 -5.25 9.65 -4.7 9.85 -4.3 9.9 -4.25 10.15 -4.05 10.4 -3.8 7.9 -5.3 3.0 -8.2 3.0 -8.35 1.8 -8.95 1.7 -9.0 1.85 -8.75 Q2.15 -8.0 1.45 -7.35 L2.75 -6.8 6.95 -4.85 9.35 -3.55 12.7 -1.1 14.1 0.5 14.3 0.95 14.35 1.25 14.25 1.0 14.3 1.3 14.35 1.5 13.75 0.6 12.7 -0.45 Q9.5 -3.35 1.2 -7.0 0.7 -6.2 0.1 -6.4 L-1.1 -7.65 -8.85 -7.3 -8.5 -6.7 Q-7.0 -5.65 -1.6 -3.25 L-0.35 -2.7 1.0 -2.0 1.0 -1.65 4.8 5.15 4.9 5.35 4.8 5.65 4.75 5.5 4.2 4.45 2.2 1.1 1.05 -0.9 0.95 -0.7 0.95 -0.65 0.9 -0.75 0.4 -0.2 -0.3 0.3 3.4 6.0 1.85 2.9 1.8 2.7 2.15 3.25 2.75 4.25 Q4.3 7.05 5.2 10.85 L5.25 11.0 5.3 11.2 5.35 11.45 5.4 11.7 4.25 9.3 4.2 9.0 4.2 8.95 Q3.85 7.6 1.7 4.0 L-0.55 0.45 -0.65 0.35 Q-1.75 0.4 -1.95 -0.15 -2.95 -2.6 -10.65 -6.1 -8.45 -0.1 -11.65 1.3 L-11.75 0.95 -11.65 1.0 -11.5 1.0 Q-9.4 0.65 -10.95 -6.5 L-7.05 -4.55 Q-2.65 -2.1 -1.7 -0.25 L-0.95 0.2 0.2 -0.4 0.6 -1.25 0.65 -1.2 0.75 -1.45 0.85 -1.85 Q0.65 -2.4 -0.15 -2.3 L-0.6 -2.5 -0.75 -2.6 -0.75 -2.55 Q-8.55 -5.85 -9.55 -7.1 L-9.55 -7.15 -10.25 -7.05 -10.4 -6.95 -10.8 -6.45 -11.9 -7.4 -12.55 -7.4 Q-11.3 -8.1 -10.9 -7.25 L-10.8 -6.9 -10.7 -7.2 -10.55 -7.3 -10.35 -7.45 -9.8 -7.55 -10.2 -7.85 -10.35 -8.25 -10.25 -8.5 -9.75 -8.85 -9.9 -8.8 -10.55 -8.5 Q-11.65 -8.2 -11.5 -9.15 L-11.5 -9.2 -11.5 -9.25 -11.45 -9.2 Q-11.15 -8.7 -10.25 -8.9 -9.85 -9.05 -9.3 -9.35 -8.3 -10.2 -6.2 -11.2 L-3.5 -12.35 -2.65 -12.35 -2.35 -12.6 -2.3 -12.85 -2.2 -12.9 -2.35 -13.25 -2.5 -13.5 -2.9 -13.85 -3.05 -13.95 -3.15 -13.95 -3.45 -13.95 -3.2 -14.05 -3.1 -14.1 -2.9 -14.0 -2.75 -13.9 -2.6 -13.85 -2.55 -13.85 -2.5 -13.8 -2.3 -13.6 -2.1 -13.3 -2.1 -13.05 -2.1 -12.9 1.05 -13.4 M-2.75 -13.85 L-2.6 -13.85 -2.75 -13.85 M0.9 -9.9 L-0.35 -9.6 -1.05 -9.5 -9.1 -8.9 -9.25 -8.95 -9.85 -8.4 -9.95 -8.1 -9.9 -7.8 -9.85 -7.75 -9.7 -7.55 -9.6 -7.55 -9.5 -7.4 -5.1 -7.85 -1.0 -7.75 0.2 -6.7 1.1 -7.05 1.35 -7.4 1.4 -7.4 Q1.65 -7.95 1.05 -9.6 L0.9 -9.9" fill="#420505" fill-rule="evenodd" stroke="none"/>
      <path d="M-0.85 -14.2 L-0.85 -14.25 -1.25 -14.15 -2.1 -14.05 -2.9 -14.0 -3.1 -14.1 -3.2 -14.05 -3.25 -14.1 -3.75 -13.8 Q-5.3 -13.3 -7.85 -11.6 L-9.7 -10.3 -11.5 -9.3 -11.5 -9.25 -11.5 -9.2 -11.6 -9.2 Q-12.1 -9.2 -12.3 -10.05 L-12.4 -12.0 -13.05 -11.05 -13.7 -10.2 Q-14.2 -8.95 -13.5 -8.1 -13.0 -7.4 -12.1 -7.2 -11.1 -3.7 -11.1 -1.9 -11.15 -0.2 -12.1 -0.05 L-12.15 0.4 -11.75 0.95 -11.65 1.3 -11.65 1.4 -11.6 1.4 Q-9.95 6.6 -11.05 9.7 -6.35 6.15 -1.2 6.65 1.4 6.85 3.05 7.8 L4.15 8.9 4.2 8.95 4.2 9.0 4.25 9.3 5.4 11.7 5.6 12.8 5.65 13.15 5.7 13.45 5.8 14.65 5.95 14.15 Q7.5 10.85 5.5 7.35 L4.8 5.65 4.9 5.35 4.8 5.15 Q5.45 1.9 8.1 0.5 9.7 -0.4 11.25 -0.4 12.75 -0.35 13.75 0.6 L14.35 1.5 14.3 1.3 14.4 1.45 Q14.4 0.2 13.85 -0.85 13.3 -1.95 12.2 -2.85 L10.15 -4.05 9.9 -4.25 9.65 -4.7 9.55 -5.25 9.3 -5.4 Q8.75 -6.85 9.15 -8.45 L9.95 -10.4 11.4 -10.6 11.7 -10.35 13.3 -9.65 13.3 -9.6 13.85 -9.15 14.5 -8.45 14.4 -8.85 14.35 -9.05 Q13.6 -11.05 10.45 -13.05 L8.5 -14.2 6.85 -15.0 -0.85 -14.2 M15.3 -7.6 L15.25 -6.95 Q13.3 -8.95 11.75 -9.45 L10.55 -9.6 Q8.7 -6.45 11.15 -4.7 15.5 -2.15 15.3 0.6 15.2 1.95 14.2 2.8 14.1 1.7 13.0 1.0 L11.9 0.5 Q10.5 0.05 9.0 0.9 L7.75 1.85 Q5.55 3.25 5.7 5.75 6.8 7.15 7.45 9.75 7.4 15.75 5.15 16.0 5.25 13.2 4.05 10.8 L2.85 8.95 Q-1.35 6.3 -6.8 8.1 L-11.45 10.45 -11.3 9.9 Q-11.0 8.4 -11.45 4.75 L-11.9 1.35 Q-12.65 0.9 -12.55 0.2 L-12.3 -0.45 Q-11.0 -1.5 -12.85 -6.4 -16.85 -8.85 -14.4 -11.35 -13.15 -12.6 -11.15 -13.35 -12.05 -10.45 -11.3 -10.35 -5.35 -14.55 -3.6 -14.8 L6.7 -16.0 Q9.4 -15.4 13.65 -11.8 15.55 -10.3 15.3 -7.6" fill="#070000" fill-rule="evenodd" stroke="none"/>
      <path d="M-2.75 -13.9 L-2.9 -14.0 -2.1 -14.05 -2.75 -13.9 M-3.05 -13.95 L-2.9 -13.85 -2.95 -13.85 -3.05 -13.95 M-11.5 -9.2 L-11.5 -9.15 -11.6 -9.2 -11.5 -9.2 M4.8 5.15 L1.0 -1.65 1.0 -2.0 -0.35 -2.7 -1.6 -3.25 -6.2 -6.25 -1.65 -5.8 Q-1.6 -4.6 -0.15 -4.65 L0.0 -4.45 1.05 -5.05 Q1.7 -5.4 7.95 -2.65 L12.7 -0.45 13.75 0.6 Q12.75 -0.35 11.25 -0.4 9.7 -0.4 8.1 0.5 5.45 1.9 4.8 5.15 M14.3 1.3 L14.25 1.0 14.35 1.25 14.3 0.95 14.4 1.45 14.3 1.3 M10.4 -3.8 L10.15 -4.05 12.2 -2.85 Q13.3 -1.95 13.85 -0.85 L12.25 -2.7 11.0 -3.45 10.4 -3.8 M9.9 -4.25 L9.85 -4.3 9.65 -4.7 9.9 -4.25 M9.3 -5.4 Q2.75 -9.3 1.4 -9.45 L1.55 -9.45 Q1.65 -11.2 -0.75 -9.85 L-0.75 -9.8 -1.4 -9.65 -7.0 -9.75 -2.15 -11.55 Q2.75 -13.6 8.6 -11.75 L11.3 -10.7 11.4 -10.6 9.95 -10.4 9.15 -8.45 Q8.75 -6.85 9.3 -5.4 M13.85 -9.15 L13.3 -9.6 13.5 -9.5 13.85 -9.15 M8.65 -7.2 Q8.35 -8.25 9.2 -9.7 L10.1 -10.9 Q4.55 -12.6 0.25 -11.75 L-3.0 -10.55 Q2.1 -11.85 5.9 -9.65 7.8 -8.55 8.65 -7.2 M1.35 -4.75 L0.95 -4.6 Q1.3 -4.7 0.75 -4.4 L-1.8 -4.3 Q3.65 -3.45 5.9 1.8 6.9 0.15 9.3 -0.5 L11.45 -0.8 1.35 -4.75 M-12.55 -7.4 L-12.1 -7.2 Q-13.0 -7.4 -13.5 -8.1 L-12.55 -7.4 M-9.7 -10.3 L-7.85 -11.6 Q-5.3 -13.3 -3.75 -13.8 L-9.7 -10.3 M-3.85 0.5 Q-5.9 -1.7 -8.15 -2.75 L-5.55 1.55 Q-3.7 6.0 -7.05 7.0 L-4.15 6.2 Q-0.5 5.65 2.3 7.0 0.7 3.4 -1.65 1.9 -4.75 3.6 -3.85 0.5 M-11.6 1.4 Q-8.4 1.55 -9.35 -4.1 -7.05 -3.4 -3.5 0.3 -3.45 1.6 -3.25 1.7 L-1.55 1.65 Q0.3 1.8 4.15 8.9 L3.05 7.8 Q1.4 6.85 -1.2 6.65 -6.35 6.15 -11.05 9.7 -9.95 6.6 -11.6 1.4 M5.95 14.15 L5.8 14.65 5.7 13.45 5.85 14.3 5.95 14.15" fill="#ba2020" fill-rule="evenodd" stroke="none"/>
      <path d="M1.05 -13.4 L-2.1 -12.9 -2.1 -13.05 -2.1 -13.3 -2.3 -13.6 -2.5 -13.8 -2.55 -13.85 Q-1.9 -13.75 -2.1 -13.05 L1.05 -13.4 M7.5 -13.15 L8.05 -13.05 Q6.25 -14.5 3.2 -14.15 L0.5 -13.55 Q-0.8 -13.5 -0.95 -13.9 L-0.85 -14.2 6.85 -15.0 8.5 -14.2 6.95 -14.75 -0.55 -14.1 6.95 -14.3 8.25 -13.95 Q10.15 -13.1 13.1 -10.55 L10.45 -13.05 Q13.6 -11.05 14.35 -9.05 L14.4 -8.85 14.5 -8.45 13.85 -9.15 13.5 -9.5 13.45 -9.55 13.4 -9.6 11.9 -10.85 9.5 -12.25 9.45 -12.25 7.5 -13.15 M-1.25 -14.15 L-2.6 -13.85 -2.75 -13.9 -2.1 -14.05 -1.25 -14.15 M-3.2 -14.05 L-3.45 -13.95 -3.15 -13.95 -3.05 -13.95 -2.95 -13.85 -2.9 -13.85 -2.5 -13.5 -2.35 -13.25 -2.2 -12.9 -2.3 -12.85 -2.35 -12.6 -2.65 -12.35 -3.5 -12.35 -6.2 -11.2 Q-8.3 -10.2 -9.3 -9.35 -9.85 -9.05 -10.25 -8.9 -11.15 -8.7 -11.45 -9.2 L-11.5 -9.25 -11.5 -9.3 -9.7 -10.3 -3.75 -13.8 -3.25 -14.1 -3.2 -14.05 M-11.5 -9.15 Q-11.65 -8.2 -10.55 -8.5 L-9.9 -8.8 -9.75 -8.85 -10.25 -8.5 -10.35 -8.25 -10.2 -7.85 -9.8 -7.55 -10.35 -7.45 -10.55 -7.3 -10.7 -7.2 -10.8 -6.9 -10.9 -7.25 Q-11.3 -8.1 -12.55 -7.4 L-11.9 -7.4 -10.8 -6.45 -10.4 -6.95 -10.25 -7.05 -9.55 -7.15 -9.55 -7.1 Q-8.55 -5.85 -0.75 -2.55 -1.0 -1.15 -3.9 -2.8 L-1.45 -0.9 -0.9 -0.6 -1.5 -0.5 Q-0.25 0.8 0.65 -1.7 0.8 -2.0 0.4 -2.05 L-0.05 -2.05 Q0.95 -1.2 -0.3 -0.75 -0.05 -1.1 -0.05 -2.05 L-0.6 -2.5 -0.15 -2.3 Q0.65 -2.4 0.85 -1.85 L0.75 -1.45 0.65 -1.2 0.6 -1.25 0.2 -0.4 -0.95 0.2 -1.7 -0.25 Q-2.65 -2.1 -7.05 -4.55 L-10.95 -6.5 Q-9.4 0.65 -11.5 1.0 L-11.65 1.0 -11.75 0.95 -12.15 0.4 -12.1 -0.05 Q-11.15 -0.2 -11.1 -1.9 -11.1 -3.7 -12.1 -7.2 L-12.55 -7.4 -13.5 -8.1 Q-14.2 -8.95 -13.7 -10.2 L-13.05 -11.05 -12.4 -12.0 -12.3 -10.05 Q-12.1 -9.2 -11.6 -9.2 L-11.5 -9.15 M5.4 11.7 L5.35 11.45 5.3 11.2 5.25 11.0 5.2 10.85 Q4.3 7.05 2.75 4.25 L2.15 3.25 1.8 2.7 Q0.7 0.05 2.2 1.1 L4.2 4.45 4.75 5.5 4.8 5.65 5.5 7.35 Q7.5 10.85 5.95 14.15 L5.85 14.3 5.7 13.45 5.65 13.15 5.6 12.8 5.4 11.7 M-0.3 0.3 L0.4 -0.2 0.9 -0.75 0.95 -0.65 -0.25 0.3 -0.3 0.3 M14.3 0.95 L14.1 0.5 12.7 -1.1 9.35 -3.55 6.95 -4.85 7.45 -4.65 Q3.75 -6.6 3.0 -7.65 L3.0 -8.2 7.9 -5.3 13.45 -1.05 Q13.15 -2.1 11.4 -3.2 L11.0 -3.45 12.25 -2.7 13.85 -0.85 Q14.4 0.2 14.4 1.45 L14.3 0.95 M2.75 -6.8 L1.45 -7.35 Q2.15 -8.0 1.85 -8.75 2.2 -8.2 1.55 -7.4 L2.75 -6.8 M0.85 -9.65 L0.1 -9.6 Q1.4 -9.15 0.4 -6.95 1.8 -7.55 0.85 -9.65 M0.9 -9.9 L1.05 -9.6 Q1.65 -7.95 1.4 -7.4 L1.35 -7.4 1.1 -7.05 0.2 -6.7 -1.0 -7.75 -5.1 -7.85 -9.5 -7.4 -9.6 -7.55 -9.7 -7.55 -9.85 -7.75 -9.9 -7.8 -9.95 -8.1 -9.85 -8.4 -9.25 -8.95 -9.1 -8.9 -1.05 -9.5 -0.35 -9.6 0.9 -9.9 M-2.8 -12.7 L-2.55 -12.65 Q-2.45 -13.25 -2.95 -13.55 L-3.5 -13.75 -3.8 -13.45 -6.0 -11.55 -2.8 -12.7 M-12.95 -8.15 L-12.55 -7.9 -11.95 -8.1 -11.55 -8.1 -11.9 -8.65 Q-12.75 -8.25 -12.45 -11.55 L-12.6 -11.6 -13.35 -10.15 -13.35 -10.1 -13.55 -9.75 Q-13.85 -8.65 -12.8 -7.85 L-12.95 -8.15 M-0.15 -9.5 L-0.85 -9.3 Q0.45 -8.3 -4.15 -8.05 L-0.95 -8.15 0.15 -7.55 Q0.75 -8.75 -0.15 -9.5 M5.9 13.5 Q7.65 9.95 4.15 5.35 6.95 11.25 5.9 13.5" fill="#8e0404" fill-rule="evenodd" stroke="none"/>
      <path d="M2.1 -13.5 L1.35 -13.4 1.05 -13.4 -2.1 -13.05 Q-1.9 -13.75 -2.55 -13.85 L-2.6 -13.85 -1.25 -14.15 -0.85 -14.25 -0.85 -14.2 -0.95 -13.9 Q-0.8 -13.5 0.5 -13.55 L3.2 -14.15 Q6.25 -14.5 8.05 -13.05 L7.5 -13.15 6.4 -13.3 2.1 -13.5 M-0.75 -2.55 L-0.75 -2.6 -0.6 -2.5 -0.05 -2.05 Q-0.05 -1.1 -0.3 -0.75 -0.5 -0.45 -0.9 -0.6 L-1.45 -0.9 -3.9 -2.8 Q-1.0 -1.15 -0.75 -2.55 M1.8 2.7 L1.85 2.9 3.4 6.0 -0.3 0.3 -0.25 0.3 0.95 -0.65 0.95 -0.7 1.05 -0.9 2.2 1.1 Q0.7 0.05 1.8 2.7 M6.95 -4.85 L2.75 -6.8 1.55 -7.4 Q2.2 -8.2 1.85 -8.75 L1.7 -9.0 1.8 -8.95 3.0 -8.35 3.0 -8.2 3.0 -7.65 Q3.75 -6.6 7.45 -4.65 L6.95 -4.85 M-2.8 -12.7 L-6.0 -11.55 -3.8 -13.45 -3.5 -13.75 Q-2.6 -13.2 -3.4 -12.7 L-2.8 -12.7 M-13.35 -10.15 L-12.6 -11.6 -12.45 -11.55 Q-12.75 -8.25 -11.9 -8.65 L-11.55 -8.1 -11.95 -8.1 -12.55 -7.9 -12.95 -8.15 Q-13.4 -9.3 -12.75 -11.25 L-13.35 -10.15 M-0.15 -9.5 Q0.75 -8.75 0.15 -7.55 L-0.95 -8.15 -4.15 -8.05 Q0.45 -8.3 -0.85 -9.3 L-0.15 -9.5" fill="#700606" fill-rule="evenodd" stroke="none"/>
      <path d="M8.5 -14.2 L10.45 -13.05 13.1 -10.55 Q10.15 -13.1 8.25 -13.95 L6.95 -14.3 -0.55 -14.1 6.95 -14.75 8.5 -14.2 M0.85 -9.65 Q1.8 -7.55 0.4 -6.95 1.4 -9.15 0.1 -9.6 L0.85 -9.65 M-0.3 -0.75 Q0.95 -1.2 -0.05 -2.05 L0.4 -2.05 Q0.8 -2.0 0.65 -1.7 -0.25 0.8 -1.5 -0.5 L-0.9 -0.6 Q-0.5 -0.45 -0.3 -0.75 M-3.5 -13.75 L-2.95 -13.55 Q-2.45 -13.25 -2.55 -12.65 L-2.8 -12.7 -3.4 -12.7 Q-2.6 -13.2 -3.5 -13.75 M-13.35 -10.15 L-12.75 -11.25 Q-13.4 -9.3 -12.95 -8.15 L-12.8 -7.85 Q-13.85 -8.65 -13.55 -9.75 L-13.35 -10.1 -13.35 -10.15 M5.9 13.5 Q6.95 11.25 4.15 5.35 7.65 9.95 5.9 13.5" fill="#efabab" fill-rule="evenodd" stroke="none"/>
      <path d="M8.65 -7.2 Q7.8 -8.55 5.9 -9.65 2.1 -11.85 -3.0 -10.55 L0.25 -11.75 Q4.55 -12.6 10.1 -10.9 L9.2 -9.7 Q8.35 -8.25 8.65 -7.2 M1.35 -4.75 L11.45 -0.8 9.3 -0.5 Q6.9 0.15 5.9 1.8 3.65 -3.45 -1.8 -4.3 L0.75 -4.4 Q1.3 -4.7 0.95 -4.6 L1.35 -4.75 M-3.85 0.5 Q-4.75 3.6 -1.65 1.9 0.7 3.4 2.3 7.0 -0.5 5.65 -4.15 6.2 L-7.05 7.0 Q-3.7 6.0 -5.55 1.55 L-8.15 -2.75 Q-5.9 -1.7 -3.85 0.5" fill="#933a3a" fill-rule="evenodd" stroke="none"/>
    </g>
    <g id="sprite1" transform="matrix(1.0, 0.0, 0.0, 1.0, -0.05, 0.0)">
      <use height="38.0" transform="matrix(1.0, 0.0, 0.0, 1.0, 0.05, 0.0)" width="32.05" xlink:href="#shape1"/>
    </g>
    <g id="shape1" transform="matrix(1.0, 0.0, 0.0, 1.0, -0.05, 0.0)">
      <path d="M27.35 7.4 Q29.5 11.55 30.9 16.15 32.35 20.85 32.05 25.65 31.7 30.6 27.85 33.75 24.05 36.95 19.1 37.8 L16.5 38.0 Q12.9 38.0 9.45 36.85 4.8 35.25 2.35 31.35 -0.2 27.4 0.05 23.0 0.25 18.6 2.05 13.7 3.85 8.75 7.0 5.05 10.1 1.3 14.7 0.1 L16.5 0.0 Q18.4 0.05 20.2 0.8 24.95 2.85 27.35 7.4" fill="#ba2020" fill-rule="evenodd" stroke="none"/>
    </g>
    <g id="sprite2" transform="matrix(1.0, 0.0, 0.0, 1.0, 0.45, 0.5)">
      <use height="38.95" transform="matrix(1.0, 0.0, 0.0, 1.0, -0.45, -0.5)" width="33.05" xlink:href="#shape2"/>
    </g>
    <g id="shape2" transform="matrix(1.0, 0.0, 0.0, 1.0, 0.45, 0.5)">
      <path d="M27.35 7.4 Q24.95 2.85 20.2 0.8 17.55 -0.3 14.7 0.1 10.1 1.3 7.0 5.05 3.85 8.75 2.05 13.7 0.25 18.6 0.05 23.0 -0.2 27.4 2.35 31.35 4.8 35.25 9.45 36.85 14.1 38.4 19.1 37.8 24.05 36.95 27.85 33.75 31.7 30.6 32.05 25.65 32.35 20.85 30.9 16.15 29.5 11.55 27.35 7.4 Z" fill="none" stroke="#000000" stroke-linecap="round" stroke-linejoin="round" stroke-width="1.0"/>
    </g>
    <g id="sprite3" transform="matrix(1.0, 0.0, 0.0, 1.0, 0.0, 0.0)">
      <use height="2.4" transform="matrix(10.6042, 0.0, 0.0, 8.7083, 0.025, 0.0)" width="2.4" xlink:href="#shape3"/>
    </g>
    <g id="shape3" transform="matrix(1.0, 0.0, 0.0, 1.0, 1.2, 1.2)">
      <path d="M0.85 -0.85 Q1.2 -0.5 1.2 0.0 1.2 0.5 0.85 0.85 0.5 1.2 0.0 1.2 -0.5 1.2 -0.85 0.85 -1.2 0.5 -1.2 0.0 -1.2 -0.5 -0.85 -0.85 -0.5 -1.2 0.0 -1.2 0.5 -1.2 0.85 -0.85" fill="#df4444" fill-rule="evenodd" stroke="none"/>
    </g>
  </defs>
</svg>
