<?xml version="1.0" encoding="UTF-8" standalone="no"?>
<svg xmlns:xlink="http://www.w3.org/1999/xlink" height="82.0px" width="84.85px" xmlns="http://www.w3.org/2000/svg">
  <g transform="matrix(1.0, 0.0, 0.0, 1.0, 37.4, 42.25)">
    <use height="38.0" transform="matrix(1.0, 0.0, 0.0, 1.0, -11.95, -17.45)" width="32.05" xlink:href="#sprite0"/>
    <use height="38.95" transform="matrix(1.0, 0.0, 0.0, 1.0, -12.45, -17.95)" width="33.05" xlink:href="#sprite1"/>
    <use height="8.85" transform="matrix(-1.0, 0.0, 0.0, 1.0, 20.25, 17.7)" width="16.4" xlink:href="#sprite2"/>
    <use height="8.85" transform="matrix(1.0, 0.0, 0.0, 1.0, -12.1, 17.75)" width="16.4" xlink:href="#sprite2"/>
    <use height="21.1" transform="matrix(1.0, 0.0, 0.0, 1.0, -16.8, 0.0)" width="40.35" xlink:href="#shape3"/>
  </g>
  <defs>
    <g id="sprite0" transform="matrix(1.0, 0.0, 0.0, 1.0, -0.05, 0.0)">
      <use height="38.0" transform="matrix(1.0, 0.0, 0.0, 1.0, 0.05, 0.0)" width="32.05" xlink:href="#shape0"/>
    </g>
    <g id="shape0" transform="matrix(1.0, 0.0, 0.0, 1.0, -0.05, 0.0)">
      <path d="M27.35 7.4 Q29.5 11.55 30.9 16.15 32.35 20.85 32.05 25.65 31.7 30.6 27.85 33.75 24.05 36.95 19.1 37.8 L16.5 38.0 Q12.9 38.0 9.45 36.85 4.8 35.25 2.35 31.35 -0.2 27.4 0.05 23.0 0.25 18.6 2.05 13.7 3.85 8.75 7.0 5.05 10.1 1.3 14.7 0.1 L16.5 0.0 Q18.4 0.05 20.2 0.8 24.95 2.85 27.35 7.4" fill="#ffffff" fill-rule="evenodd" stroke="none"/>
    </g>
    <g id="sprite1" transform="matrix(1.0, 0.0, 0.0, 1.0, 0.45, 0.5)">
      <use height="38.95" transform="matrix(1.0, 0.0, 0.0, 1.0, -0.45, -0.5)" width="33.05" xlink:href="#shape1"/>
    </g>
    <g id="shape1" transform="matrix(1.0, 0.0, 0.0, 1.0, 0.45, 0.5)">
      <path d="M27.35 7.4 Q24.95 2.85 20.2 0.8 17.55 -0.3 14.7 0.1 10.1 1.3 7.0 5.05 3.85 8.75 2.05 13.7 0.25 18.6 0.05 23.0 -0.2 27.4 2.35 31.35 4.8 35.25 9.45 36.85 14.1 38.4 19.1 37.8 24.05 36.95 27.85 33.75 31.7 30.6 32.05 25.65 32.35 20.85 30.9 16.15 29.5 11.55 27.35 7.4 Z" fill="none" stroke="#000000" stroke-linecap="round" stroke-linejoin="round" stroke-width="1.0"/>
    </g>
    <g id="sprite2" transform="matrix(1.0, 0.0, 0.0, 1.0, 10.0, 0.45)">
      <use height="8.85" transform="matrix(1.0, 0.0, 0.0, 1.0, -10.0, -0.45)" width="16.4" xlink:href="#shape2"/>
    </g>
    <g id="shape2" transform="matrix(1.0, 0.0, 0.0, 1.0, 10.0, 0.45)">
      <path d="M6.05 0.55 L6.4 6.3 5.7 6.85 Q5.4 7.2 3.8 7.35 L1.6 7.25 -2.6 8.3 Q-4.75 8.7 -7.05 7.75 -8.95 6.9 -9.75 5.85 -10.3 5.05 -9.7 3.1 -9.2 1.35 -8.55 0.75 L6.05 0.55" fill="#000201" fill-rule="evenodd" stroke="none"/>
      <path d="M5.4 0.25 L5.4 2.15 5.4 2.25 5.95 4.4 Q5.9 5.9 4.25 6.4 L0.65 6.5 Q-5.25 8.25 -7.7 6.65 -9.2 5.75 -9.25 4.1 -9.25 3.3 -8.35 1.85 L-7.5 0.25 5.4 0.25" fill="#dd0eac" fill-rule="evenodd" stroke="none"/>
      <path d="M-7.05 5.85 Q-8.75 5.35 -8.4 3.45 -7.65 1.35 -7.65 0.65 L-6.05 0.6 -4.4 0.9 Q-4.1 1.25 -4.3 2.75 L-4.05 5.55 Q-4.25 6.05 -5.05 6.05 L-7.05 5.85" fill="#f26dd9" fill-rule="evenodd" stroke="none"/>
      <path d="M1.9 5.45 Q1.0 4.85 1.15 0.65 L2.75 0.65 4.4 0.9 4.45 2.8 4.5 5.4 Q4.35 5.8 3.7 5.8 2.55 5.9 1.9 5.45" fill="#f26dd9" fill-rule="evenodd" stroke="none"/>
      <path d="M2.0 -0.45 L2.75 -0.45 Q3.45 -0.45 3.55 -0.2 L3.6 1.65 3.6 4.3 3.2 4.7 Q2.6 4.7 2.35 4.35 2.0 3.85 2.0 -0.45" fill="#f7b0ed" fill-rule="evenodd" stroke="none"/>
      <path d="M-5.8 1.0 Q-5.6 1.1 -5.85 1.5 L-5.95 2.1 -6.05 3.5 Q-6.05 5.5 -7.35 4.7 -8.05 4.25 -7.9 3.55 L-7.6 2.25 Q-7.45 1.45 -7.15 1.2 L-5.8 1.0" fill="#f7b0ed" fill-rule="evenodd" stroke="none"/>
    </g>
    <g id="shape3" transform="matrix(1.0, 0.0, 0.0, 1.0, 16.8, 0.0)">
      <path d="M9.75 6.35 L4.4 11.5 -2.85 6.25 1.05 6.5 7.6 6.75 9.75 6.35" fill="#af5104" fill-rule="evenodd" stroke="none"/>
      <path d="M9.65 7.05 L4.3 12.15 -3.0 6.9 0.9 7.15 7.45 7.45 9.65 7.05" fill="#e06d05" fill-rule="evenodd" stroke="none"/>
      <path d="M9.65 7.9 L4.3 13.05 -3.0 7.8 0.9 8.05 7.45 8.35 9.65 7.9" fill="#ffa522" fill-rule="evenodd" stroke="none"/>
      <path d="M21.4 0.85 Q21.7 1.65 21.5 2.05 21.1 3.0 23.15 3.35 23.75 3.5 23.5 4.75 23.3 6.0 22.8 6.1 18.65 13.55 19.0 13.7 19.3 13.75 19.7 15.05 20.15 16.25 20.05 16.6 L19.7 17.6 Q19.9 17.6 19.75 18.2 L19.25 19.25 Q18.7 19.85 11.0 20.35 L7.05 20.75 Q4.0 20.9 3.2 20.7 L-3.5 21.05 Q-5.6 21.25 -8.55 20.4 -10.9 19.75 -11.3 19.35 -11.6 18.3 -12.35 17.85 -13.25 17.35 -11.1 14.1 -10.85 13.75 -13.4 10.55 L-16.3 7.05 Q-17.15 6.3 -16.55 4.5 -14.35 3.3 -14.45 3.1 -14.75 2.15 -14.1 1.25 -13.5 0.3 -11.35 0.85 -7.4 2.1 -4.1 4.1 -1.7 5.55 -1.2 6.25 4.05 9.95 4.15 9.7 L5.25 8.55 14.05 2.75 17.25 1.2 Q19.95 0.05 20.55 0.0 21.15 -0.05 21.4 0.85" fill="#000102" fill-rule="evenodd" stroke="none"/>
      <path d="M6.95 20.1 L4.5 20.05 1.65 19.8 -1.25 20.15 -8.15 19.85 -9.65 19.55 -10.45 19.25 -10.85 18.5 -10.85 17.55 -10.4 17.1 -9.65 16.8 -7.6 16.5 -4.0 16.1 3.65 15.6 11.65 15.55 16.3 15.85 17.5 16.25 Q18.55 16.85 18.75 17.6 18.85 18.05 18.45 18.35 L17.6 18.7 13.95 19.3 12.25 19.5 11.35 19.55 10.45 19.65 6.95 20.1" fill="#05739e" fill-rule="evenodd" stroke="none"/>
      <path d="M20.55 1.0 Q21.4 1.2 20.65 2.75 20.4 3.15 22.4 4.1 22.9 4.8 22.7 5.5 22.5 6.15 22.0 6.0 21.5 5.85 19.6 10.05 17.65 14.25 18.15 14.35 19.15 14.7 19.15 16.8 19.1 17.65 16.15 17.85 10.9 18.05 8.45 18.9 6.1 19.75 2.85 18.9 L-2.5 19.4 Q-3.95 19.75 -9.9 18.25 L-11.35 17.6 Q-11.6 16.3 -10.2 15.15 -9.9 14.9 -10.15 14.0 -15.75 6.7 -16.0 5.7 -16.25 4.75 -14.4 3.85 -13.7 3.6 -13.8 3.2 -13.95 2.2 -12.7 1.8 -12.45 1.75 -7.55 3.65 -3.6 5.2 -2.3 6.75 L1.9 9.65 4.3 11.45 Q4.45 10.5 4.75 10.2 L9.75 6.6 18.55 1.65 Q20.0 0.9 20.55 1.0" fill="#65a2c1" fill-rule="evenodd" stroke="none"/>
      <path d="M20.55 0.75 Q21.25 0.9 20.65 2.75 L16.8 3.95 Q16.45 4.05 8.3 8.5 4.8 12.8 4.7 12.25 L-2.1 8.3 -9.35 4.35 Q-11.05 3.25 -13.8 3.35 L-13.8 2.95 Q-13.95 1.95 -12.7 1.55 -12.55 1.5 -7.55 3.45 -3.85 4.8 -2.3 6.5 -1.9 7.0 1.9 9.45 3.55 10.45 4.3 11.2 4.45 10.25 4.75 9.95 L9.75 6.35 18.55 1.45 Q19.9 0.6 20.55 0.75" fill="#05739e" fill-rule="evenodd" stroke="none"/>
      <path d="M-6.15 9.35 L-7.15 9.4 Q-7.4 9.25 -7.25 8.95 L-6.45 8.7 Q-6.05 8.75 -5.85 9.25 -5.7 9.7 -6.1 10.0 -6.6 10.4 -7.4 10.2 -8.2 10.0 -8.45 9.45 -8.7 8.8 -7.95 8.15 -7.15 7.5 -5.75 7.6 -4.4 7.7 -3.75 8.4 -3.1 9.15 -3.7 10.35 L-4.7 12.15 Q-5.2 13.05 -5.1 13.6 L-4.3 14.7 -2.65 15.8 -0.6 16.5 1.5 16.85 4.2 16.95 6.6 16.35 7.85 16.5 9.2 16.95 10.75 17.05 Q12.0 16.95 13.0 16.2 L13.8 15.45 14.25 14.55 14.3 13.6 13.75 12.7 12.55 11.1 Q11.95 10.15 12.05 8.95 12.2 7.9 13.35 7.25 L14.75 6.75 Q15.8 6.55 16.3 6.75 16.85 7.0 17.05 7.35 17.25 7.8 16.75 8.55 15.95 9.9 14.15 10.0 12.4 10.15 12.15 9.25 11.95 8.45 13.4 8.05 L14.35 7.9 15.0 8.1 Q15.6 8.5 14.7 8.95 14.15 9.35 13.9 8.85 13.85 8.8 14.15 8.65" fill="none" stroke="#5ad4f9" stroke-linecap="round" stroke-linejoin="round" stroke-width="0.5"/>
      <path d="M0.8 16.55 Q0.0 16.5 -0.9 15.75 L-1.5 15.05 Q-1.85 14.3 -2.05 14.3 L-1.9 14.25 -2.95 14.3 -6.35 13.25 -7.5 12.4 -5.6 12.45 -4.6 12.55 -3.65 12.65 -4.6 10.95 -4.95 10.05 -4.85 9.05 Q-4.45 9.05 -3.2 10.3 L-1.95 11.85 -1.6 10.0 Q-0.6 11.15 -0.45 12.45 L-0.45 13.15 -0.75 13.75 Q-1.0 14.2 -0.4 15.0 L0.7 15.95 2.3 15.8 3.7 15.65 4.45 15.9 4.7 16.45 3.8 16.3 2.8 16.4 0.8 16.55" fill="#06a7cc" fill-rule="evenodd" stroke="none"/>
      <path d="M1.05 16.25 Q0.2 16.1 -0.6 15.4 L-1.25 14.7 -1.75 13.95 -2.65 13.95 -4.35 13.55 -6.1 12.9 -7.25 12.05 -5.35 12.1 -4.35 12.2 -3.35 12.3 -4.35 10.6 -4.65 9.7 -4.55 8.7 Q-4.1 8.7 -2.95 10.0 L-2.3 10.7 -1.7 11.55 -1.5 10.55 -1.35 9.65 Q-0.35 10.8 -0.15 12.15 L-0.15 12.8 -0.5 13.4 Q-0.7 13.85 -0.1 14.65 L1.0 15.6 2.6 15.45 4.0 15.3 4.75 15.55 4.95 16.15 4.1 15.95 3.1 16.05 1.05 16.25 M-1.75 13.95 L-1.6 13.95 -1.75 13.95" fill="#d9f1f9" fill-rule="evenodd" stroke="none"/>
      <path d="M11.95 10.9 L11.6 12.15 11.05 13.05 11.85 12.5 13.0 11.85 14.2 11.45 15.3 11.25 13.85 13.05 12.0 14.4 14.55 14.3 15.8 14.75 17.1 15.3 15.8 15.8 14.3 16.15 10.95 15.7 9.7 15.55 8.6 16.4 Q8.05 16.75 7.2 16.8 6.25 16.85 6.05 16.25 L7.95 16.0 8.8 15.55 9.05 14.95 9.2 15.2 8.85 14.25 Q8.55 13.35 8.7 12.35 8.85 11.25 9.8 10.1 11.05 8.55 12.35 8.15 12.5 9.2 11.95 10.9" fill="#06a7cc" fill-rule="evenodd" stroke="none"/>
      <path d="M-6.0 4.15 L-2.6 6.25 -3.6 7.3 -6.75 5.75 -6.0 4.15" fill="#06a7cc" fill-rule="evenodd" stroke="none"/>
      <path d="M11.6 10.6 L11.25 11.85 10.7 12.8 11.5 12.25 Q11.7 12.05 12.65 11.6 L13.85 11.2 14.95 11.0 13.5 12.8 11.6 14.15 14.15 14.05 Q14.8 14.2 15.4 14.5 L16.75 15.05 15.4 15.55 13.9 15.85 Q12.8 16.05 10.6 15.45 L9.35 15.3 8.25 16.1 Q7.7 16.5 6.85 16.55 5.9 16.6 5.7 15.95 L7.6 15.75 8.4 15.3 8.75 14.8 8.85 14.95 8.45 14.0 Q8.2 13.1 8.3 12.1 8.45 11.0 9.4 9.85 10.65 8.35 11.95 7.9 12.15 9.1 11.6 10.6" fill="#d9f1f9" fill-rule="evenodd" stroke="none"/>
      <path d="M-1.9 15.4 L-1.9 15.5 Q-0.6 14.65 -0.8 15.25 L-1.45 15.65 Q-1.7 15.9 -1.5 16.25 -0.6 18.2 -1.75 18.95 -2.05 18.25 -2.5 17.75 -2.7 17.55 -3.4 17.95 -3.75 18.25 -4.65 18.55 L-6.15 18.9 -5.85 18.65 Q-4.4 17.25 -4.55 16.5 L-6.35 16.25 -8.15 16.3 Q-7.55 15.65 -6.25 15.25 L-5.1 15.0 -2.8 14.95 -1.9 15.4" fill="#06a7cc" fill-rule="evenodd" stroke="none"/>
      <path d="M-2.1 15.1 L-2.1 15.2 Q-0.85 14.6 -0.95 15.0 L-1.65 15.4 -1.7 16.0 Q-0.75 17.85 -1.95 18.7 L-2.7 17.5 Q-2.95 17.2 -3.6 17.7 L-4.85 18.3 -6.3 18.6 Q-6.2 18.4 -6.0 18.35 -4.6 16.95 -4.75 16.2 L-6.5 15.95 -8.3 16.0 Q-7.85 15.45 -6.4 15.0 L-5.3 14.7 Q-3.8 14.4 -3.0 14.7 L-2.1 15.1" fill="#d9f1f9" fill-rule="evenodd" stroke="none"/>
      <path d="M5.3 14.7 L5.8 15.9 5.95 16.15 6.1 17.0 6.05 17.3 6.05 17.55 5.95 18.05 5.65 18.8 5.2 19.4 5.05 19.7 4.95 20.0 4.75 20.3 4.4 20.3 4.0 20.2 3.55 20.1 4.0 19.25 4.1 19.1 4.15 18.95 4.6 18.25 4.8 17.85 5.05 17.05 4.95 15.85 4.85 15.5 4.55 14.85 4.55 14.8 4.7 14.75 5.0 14.7 5.3 14.7" fill="#05536b" fill-rule="evenodd" stroke="none"/>
      <path d="M4.85 12.25 L4.55 13.15 4.85 14.05 5.6 16.1 Q5.9 17.6 5.6 18.5 L5.0 19.35 4.5 20.2 4.15 20.15 3.9 20.05 4.3 19.35 4.85 18.5 5.2 17.75 Q5.45 17.2 5.25 16.05 L4.8 14.5 4.45 13.7 4.4 12.85 4.45 12.5 4.55 12.15 4.85 12.25" fill="#020000" fill-rule="evenodd" stroke="none"/>
      <path d="M5.25 11.45 L5.65 11.3 6.05 12.55 6.45 13.9 Q6.55 14.75 5.75 14.8 L4.35 14.85 3.6 14.8 3.4 14.25 3.35 12.8 Q3.35 11.45 3.65 11.45 L5.25 11.45" fill="#000102" fill-rule="evenodd" stroke="none"/>
      <path d="M4.0 12.0 L5.55 12.2 5.65 13.1 5.85 14.05 4.85 14.25 Q4.15 14.4 3.95 14.05 L3.85 13.0 4.0 12.0" fill="#05739e" fill-rule="evenodd" stroke="none"/>
      <path d="M-11.45 1.85 L-12.15 3.4 -13.8 3.35 Q-14.0 1.95 -12.75 1.55 L-11.45 1.85" fill="#06a7cc" fill-rule="evenodd" stroke="none"/>
      <path d="M-4.3 5.1 Q-3.25 5.45 -3.35 5.7 L-4.35 6.9 -6.15 6.05 -6.2 5.95 -6.1 5.85 -5.7 5.25 -5.1 4.6 -4.55 4.95 Q-4.3 5.05 -4.3 5.1" fill="#62c6e8" fill-rule="evenodd" stroke="none"/>
      <path d="M-12.6 1.5 L-12.15 1.55 Q-11.8 1.65 -12.0 1.8 L-12.6 2.25 -13.0 2.7 -13.25 3.4 -13.35 3.45 -13.5 3.45 -13.6 3.4 -13.8 3.3 -13.85 3.15 -13.85 2.5 -13.75 2.3 -13.45 1.9 Q-13.05 1.4 -12.6 1.5" fill="#62c6e8" fill-rule="evenodd" stroke="none"/>
      <path d="M9.75 6.35 L12.35 4.75 13.05 5.8 10.35 7.35 9.75 6.35" fill="#06a7cc" fill-rule="evenodd" stroke="none"/>
      <path d="M18.8 1.3 Q19.55 0.7 20.2 0.7 L20.7 0.8 Q21.5 1.45 20.65 2.8 L19.3 3.15 18.8 1.3" fill="#06a7cc" fill-rule="evenodd" stroke="none"/>
      <path d="M10.6 5.9 L11.05 5.55 11.35 5.35 11.65 5.15 12.45 6.2 12.15 6.4 11.2 6.85 11.15 6.55 10.6 5.9" fill="#62c6e8" fill-rule="evenodd" stroke="none"/>
      <path d="M20.4 2.3 L20.4 1.8 Q20.4 1.3 20.05 1.1 L19.65 0.95 19.4 0.9 Q19.5 0.75 19.75 0.75 L20.35 0.7 Q20.95 0.7 21.05 1.3 L21.1 1.8 20.95 2.25 20.55 2.9 Q20.2 3.0 20.25 2.75 L20.35 2.55 20.4 2.3" fill="#62c6e8" fill-rule="evenodd" stroke="none"/>
      <path d="M4.35 12.1 L4.3 12.15 4.85 12.15 4.95 12.65 5.0 13.4 4.9 13.55 4.5 13.5 4.2 13.45 4.15 13.3 4.05 12.35 4.15 12.1 4.35 12.1" fill="#06a7cc" fill-rule="evenodd" stroke="none"/>
      <path d="M4.5 12.25 L4.65 12.6 4.7 12.95 4.7 13.1 4.3 13.1 4.15 12.25 4.5 12.25" fill="#5ad4f9" fill-rule="evenodd" stroke="none"/>
    </g>
  </defs>
</svg>
