<?xml version="1.0" encoding="UTF-8" standalone="no"?>
<svg xmlns:xlink="http://www.w3.org/1999/xlink" height="82.0px" width="84.85px" xmlns="http://www.w3.org/2000/svg">
  <g transform="matrix(1.0, 0.0, 0.0, 1.0, 37.4, 42.25)">
    <use height="38.0" transform="matrix(1.0, 0.0, 0.0, 1.0, -11.95, -17.45)" width="32.05" xlink:href="#sprite0"/>
    <use height="38.95" transform="matrix(1.0, 0.0, 0.0, 1.0, -12.45, -17.95)" width="33.05" xlink:href="#sprite1"/>
    <use height="25.6" transform="matrix(1.0, 0.0, 0.0, 1.0, 3.8, 0.9)" width="19.45" xlink:href="#sprite2"/>
    <use height="25.6" transform="matrix(-1.0, 0.0, 0.0, 1.0, 4.2, 0.9)" width="19.45" xlink:href="#sprite2"/>
    <use height="18.2" transform="matrix(1.0, 0.0, 0.0, 1.0, -13.4, 2.6)" width="35.7" xlink:href="#shape3"/>
  </g>
  <defs>
    <g id="sprite0" transform="matrix(1.0, 0.0, 0.0, 1.0, -0.05, 0.0)">
      <use height="38.0" transform="matrix(1.0, 0.0, 0.0, 1.0, 0.05, 0.0)" width="32.05" xlink:href="#shape0"/>
    </g>
    <g id="shape0" transform="matrix(1.0, 0.0, 0.0, 1.0, -0.05, 0.0)">
      <path d="M27.35 7.4 Q29.5 11.55 30.9 16.15 32.35 20.85 32.05 25.65 31.7 30.6 27.85 33.75 24.05 36.95 19.1 37.8 L16.5 38.0 Q12.9 38.0 9.45 36.85 4.8 35.25 2.35 31.35 -0.2 27.4 0.05 23.0 0.25 18.6 2.05 13.7 3.85 8.75 7.0 5.05 10.1 1.3 14.7 0.1 L16.5 0.0 Q18.4 0.05 20.2 0.8 24.95 2.85 27.35 7.4" fill="#ffffff" fill-rule="evenodd" stroke="none"/>
    </g>
    <g id="sprite1" transform="matrix(1.0, 0.0, 0.0, 1.0, 0.45, 0.5)">
      <use height="38.95" transform="matrix(1.0, 0.0, 0.0, 1.0, -0.45, -0.5)" width="33.05" xlink:href="#shape1"/>
    </g>
    <g id="shape1" transform="matrix(1.0, 0.0, 0.0, 1.0, 0.45, 0.5)">
      <path d="M27.35 7.4 Q24.95 2.85 20.2 0.8 17.55 -0.3 14.7 0.1 10.1 1.3 7.0 5.05 3.85 8.75 2.05 13.7 0.25 18.6 0.05 23.0 -0.2 27.4 2.35 31.35 4.8 35.25 9.45 36.85 14.1 38.4 19.1 37.8 24.05 36.95 27.85 33.75 31.7 30.6 32.05 25.65 32.35 20.85 30.9 16.15 29.5 11.55 27.35 7.4 Z" fill="none" stroke="#000000" stroke-linecap="round" stroke-linejoin="round" stroke-width="1.0"/>
    </g>
    <g id="sprite2" transform="matrix(1.0, 0.0, 0.0, 1.0, 9.7, 12.8)">
      <use height="25.6" transform="matrix(1.0, 0.0, 0.0, 1.0, -9.7, -12.8)" width="19.45" xlink:href="#shape2"/>
    </g>
    <g id="shape2" transform="matrix(1.0, 0.0, 0.0, 1.0, 9.7, 12.8)">
      <path d="M-8.4 -4.1 L-9.6 -3.85 -9.7 -3.85 -9.7 -3.9 -8.4 -4.1 M-9.7 -2.95 Q-3.05 -3.05 3.55 -11.6 L3.45 -11.65 4.05 -11.9 Q5.35 -12.5 6.45 -12.5 7.65 -12.5 8.7 -9.55 L8.45 -9.2 6.6 -7.15 5.55 -2.05 Q5.75 -0.4 6.7 2.05 L7.25 3.9 7.15 4.1 6.5 4.45 4.4 5.1 3.25 5.4 1.6 5.8 0.3 6.1 -2.45 6.6 -6.35 7.05 -7.8 7.1 -8.8 7.15 -9.1 7.15 -9.7 7.15 -9.7 -2.95" fill="#ff0000" fill-rule="evenodd" stroke="none"/>
      <path d="M4.05 -11.9 L4.2 -12.3 Q5.2 -13.3 7.2 -12.3 8.7 -11.6 9.4 -10.4 10.25 -9.05 9.15 -8.05 7.05 -6.25 6.9 -4.15 L7.7 0.0 Q8.55 3.85 7.1 4.7 L6.3 5.7 7.55 6.8 Q7.95 7.45 7.85 8.9 7.8 10.65 5.85 12.25 5.2 12.8 1.4 12.8 L-1.05 12.65 -3.05 12.05 -5.75 12.3 Q-7.4 12.55 -8.35 11.8 L-9.65 10.55 -9.7 10.4 -9.7 8.1 -9.55 7.75 -9.7 7.75 -9.7 7.15 -9.1 7.15 -8.8 7.15 -7.8 7.1 -6.35 7.05 -2.45 6.6 0.3 6.1 1.6 5.8 3.25 5.4 4.4 5.1 6.5 4.45 7.15 4.1 7.25 3.9 6.7 2.05 Q5.75 -0.4 5.55 -2.05 L6.6 -7.15 8.45 -9.2 8.7 -9.55 Q7.65 -12.5 6.45 -12.5 5.35 -12.5 4.05 -11.9 M5.85 5.45 L6.4 4.9 5.75 4.9 1.25 6.4 0.3 6.65 0.15 6.7 -2.55 7.25 -6.3 7.65 -7.7 7.75 -8.9 7.75 -9.4 9.3 Q-9.35 10.8 -7.5 11.3 L-3.6 11.4 Q2.6 13.25 5.4 11.6 7.0 10.65 7.05 9.0 7.1 8.35 6.4 7.15 L5.9 5.9 5.9 5.7 5.85 5.45" fill="#0d1f15" fill-rule="evenodd" stroke="none"/>
      <path d="M-9.7 -3.85 L-9.6 -3.85 -8.4 -4.1 Q-6.95 -4.6 -4.6 -6.25 L0.55 -10.05 Q2.95 -11.8 3.45 -11.65 L3.55 -11.6 Q-3.05 -3.05 -9.7 -2.95 L-9.7 -3.85" fill="#ff7a7a" fill-rule="evenodd" stroke="none"/>
      <path d="M5.85 5.45 L5.9 5.7 5.9 5.9 Q5.9 6.7 4.4 7.25 L1.15 7.35 0.3 6.65 1.25 6.4 3.6 6.2 5.85 5.45 M6.4 7.15 Q7.1 8.35 7.05 9.0 7.0 10.65 5.4 11.6 2.6 13.25 -3.6 11.4 L-7.5 11.3 Q-9.35 10.8 -9.4 9.3 L-8.9 7.75 -7.7 7.75 -7.7 7.85 -7.75 10.5 -6.5 10.9 -3.8 10.55 Q-2.6 10.05 -2.55 7.25 L0.15 6.7 0.15 9.1 Q0.2 10.05 1.1 10.1 L3.35 9.75 Q4.6 9.4 5.25 8.85 L6.45 7.55 6.4 7.15" fill="#2b6344" fill-rule="evenodd" stroke="none"/>
      <path d="M1.25 6.4 L5.75 4.9 6.4 4.9 5.85 5.45 3.6 6.2 1.25 6.4 M5.9 5.9 L6.4 7.15 6.45 7.55 5.25 8.85 Q4.6 9.4 3.35 9.75 L1.1 10.1 Q0.2 10.05 0.15 9.1 L0.15 6.7 0.3 6.65 1.15 7.35 4.4 7.25 Q5.9 6.7 5.9 5.9 M-7.7 7.75 L-6.3 7.65 -2.55 7.25 Q-2.6 10.05 -3.8 10.55 L-6.5 10.9 -7.75 10.5 -7.7 7.85 -7.7 7.75" fill="#388259" fill-rule="evenodd" stroke="none"/>
    </g>
    <g id="shape3" transform="matrix(1.0, 0.0, 0.0, 1.0, 13.4, -2.6)">
      <path d="M22.0 4.1 L22.3 4.35 22.0 4.85 21.2 5.85 Q20.05 7.1 19.95 9.55 L20.05 13.85 Q20.95 16.95 18.85 18.0 16.35 19.3 13.8 19.0 11.95 18.85 13.2 17.25 14.15 16.05 15.45 15.25 15.6 15.2 12.65 14.05 L11.15 14.0 Q9.65 13.75 10.8 13.2 L12.4 12.35 Q11.75 12.0 11.8 11.55 11.9 10.95 13.75 10.15 L16.15 8.9 17.6 4.95 Q18.3 3.15 19.75 2.7 21.25 2.15 22.0 4.1" fill="#d40000" fill-rule="evenodd" stroke="none"/>
      <path d="M1.15 14.05 L1.15 14.45 Q0.9 15.8 -3.6 15.3 -4.9 15.1 -6.35 14.15 -8.05 13.1 -8.25 12.05 -5.55 14.05 1.15 14.05" fill="#d40000" fill-rule="evenodd" stroke="none"/>
      <path d="M9.45 20.5 L2.05 20.8 Q-1.65 20.8 -0.35 20.0 0.6 19.45 2.9 19.95 L6.75 19.15 10.65 18.4 13.9 17.55 17.55 16.85 Q18.3 17.55 17.2 18.15 L15.45 18.95 9.45 20.5" fill="#d40000" fill-rule="evenodd" stroke="none"/>
      <path d="M-13.4 17.25 L-9.1 17.45 Q-8.3 17.75 -5.05 19.4 -6.55 19.65 -9.25 18.65 L-13.4 17.25" fill="#d40000" fill-rule="evenodd" stroke="none"/>
      <path d="M-7.8 10.95 L-7.55 9.1 -1.75 9.95 -2.25 12.85 Q-2.4 15.7 -0.35 15.7 1.9 15.7 1.45 16.7 1.0 17.7 -0.55 17.7 -1.75 17.7 -3.55 15.7 L-7.0 15.7 -7.4 14.7 -4.5 14.5 -4.8 14.1 -8.75 13.35 -8.55 11.8 -5.7 12.1 -5.7 11.45 -7.8 10.95" fill="#0b92f7" fill-rule="evenodd" stroke="none"/>
      <path d="M0.05 15.2 Q2.3 15.2 1.85 16.2 1.4 17.2 -0.15 17.2 -1.3 17.2 -3.1 15.2 L-6.6 15.2 -6.95 14.2 -4.05 14.0 -4.35 13.6 -8.3 12.85 -8.1 11.3 -5.3 11.65 -5.3 10.95 -7.35 10.5 -7.1 8.6 -1.35 9.45 -1.85 12.35 Q-1.95 15.2 0.05 15.2" fill="#e8fcff" fill-rule="evenodd" stroke="none"/>
      <path d="M15.55 8.55 L15.8 10.4 13.7 10.9 13.7 11.5 16.5 11.2 16.75 12.8 12.75 13.55 12.5 13.95 15.4 14.15 15.0 15.15 11.55 15.15 Q9.75 17.15 8.55 17.15 7.05 17.15 6.6 16.15 6.15 15.15 8.35 15.15 11.6 15.15 9.75 9.4 L15.55 8.55" fill="#0b92f7" fill-rule="evenodd" stroke="none"/>
      <path d="M14.95 8.0 L15.2 9.9 13.1 10.35 13.1 11.0 15.9 10.65 16.15 12.3 12.2 13.0 11.9 13.4 14.8 13.6 14.4 14.6 10.95 14.6 Q9.15 16.6 7.95 16.6 6.45 16.6 6.0 15.6 5.55 14.6 7.75 14.6 11.0 14.6 9.15 8.85 L14.95 8.0" fill="#e8fcff" fill-rule="evenodd" stroke="none"/>
      <path d="M3.7 13.6 L3.35 12.6 2.15 12.25 Q1.1 12.05 0.85 12.85 0.65 13.65 1.3 14.4 2.1 15.35 3.6 14.9 L3.65 14.85 Q3.95 14.4 3.7 13.6 M6.15 14.85 Q7.85 14.55 8.1 13.25 8.25 12.3 7.05 12.1 5.9 11.85 5.3 12.45 4.85 12.95 5.05 13.9 5.3 14.9 6.15 14.85 M0.2 12.1 Q1.3 11.35 4.1 11.0 L7.75 11.15 Q10.65 12.85 9.15 14.35 7.75 15.75 7.75 17.85 7.75 18.25 5.8 18.65 L2.95 18.8 Q2.15 18.6 1.85 17.9 L1.1 15.4 Q0.25 15.0 -0.25 14.0 -0.8 12.8 0.2 12.1" fill="#0b92f7" fill-rule="evenodd" stroke="none"/>
      <path d="M1.7 11.7 Q0.6 11.6 0.4 12.3 0.15 13.1 0.8 13.9 1.6 14.85 3.1 14.4 L3.15 14.3 Q3.4 14.0 3.25 13.05 L2.9 12.05 1.7 11.7 M3.6 10.45 L7.3 10.65 Q10.2 12.3 8.65 13.8 7.3 15.2 7.3 17.3 7.3 17.7 5.35 18.1 L2.45 18.25 Q1.65 18.05 1.35 17.35 L0.6 14.9 Q-0.3 14.45 -0.75 13.45 -1.3 12.3 -0.3 11.55 0.8 10.75 3.6 10.45 M6.55 11.55 Q5.4 11.3 4.8 11.9 4.35 12.4 4.55 13.35 4.8 14.35 5.65 14.3 7.4 14.0 7.6 12.7 7.75 11.8 6.55 11.55" fill="#e8fcff" fill-rule="evenodd" stroke="none"/>
      <path d="M6.25 16.45 L5.2 16.8 3.35 17.0 2.45 16.9 2.35 16.7 2.45 16.55 Q2.5 16.45 2.6 16.45 L5.95 16.05 6.15 16.1 6.25 16.25 6.25 16.45" fill="#ff0000" fill-rule="evenodd" stroke="none"/>
    </g>
  </defs>
</svg>
