<svg xmlns:xlink="http://www.w3.org/1999/xlink" height="82" width="84.85" xmlns="http://www.w3.org/2000/svg"><g transform="translate(37.4 42.25)"><use height="38" transform="translate(-11.95 -17.45)" width="32.05" xlink:href="#a"/><use height="38.95" transform="translate(-12.45 -17.95)" width="33.05" xlink:href="#b"/><use height="33.75" transform="translate(-21.75 -3.85)" width="50.75" xlink:href="#c"/></g><defs><use height="38" width="32.05" xlink:href="#d" id="a"/><use height="38.95" width="33.05" xlink:href="#e" id="b"/><use height="33.75" width="50.75" xlink:href="#f" id="c"/><path d="M27.35 7.4q2.15 4.15 3.55 8.75 1.45 4.7 1.15 9.5-.35 4.95-4.2 8.1-3.8 3.2-8.75 4.05l-2.6.2q-3.6 0-7.05-1.15-4.65-1.6-7.1-5.5Q-.2 27.4.05 23q.2-4.4 2-9.3Q3.85 8.75 7 5.05 10.1 1.3 14.7.1l1.8-.1q1.9.05 3.7.8 4.75 2.05 7.15 6.6" fill="#e3c791" fill-rule="evenodd" transform="translate(-.05)" id="d"/><path d="M27.35 7.4Q24.95 2.85 20.2.8 17.55-.3 14.7.1 10.1 1.3 7 5.05q-3.15 3.7-4.95 8.65-1.8 4.9-2 9.3-.25 4.4 2.3 8.35 2.45 3.9 7.1 5.5 4.65 1.55 9.65.95 4.95-.85 8.75-4.05 3.85-3.15 4.2-8.1.3-4.8-1.15-9.5-1.4-4.6-3.55-8.75Z" fill="none" stroke="#000" stroke-linecap="round" stroke-linejoin="round" transform="translate(.45 .5)" id="e"/><g id="f"><path d="m17.55-4.55.05.8q.35 8.1-.15 8.95-1.65 2.55-16.1 3.65-7.5.55-13.25-1.25-4.55-1.45-5.05-2.9-.35-1.05.15-8.9l.1-.8 34.25.45" fill="#1a171b" fill-rule="evenodd" transform="translate(25.35 18.85)"/><path d="M-11.55 6.75q-4.15-1.35-4.5-2.35-.25-.65.2-8.5l32.5.35q.3 8 0 8.45Q15.2 6.9 1.3 8q-7.25.55-12.85-1.25" fill="#9a8e6a" fill-rule="evenodd" transform="translate(25.35 18.85)"/><path d="m10.7-1.45-.45-1.8 4.45-1.6.8 1.9q.55 2.3-.7 4.15.75.9.75 3.1.05 2.1-.45 2.75-.65.75-5.35 1.05 1.3-2.95-.2-5.95Q10.9.7 10.7-1.45" fill="#725d42" fill-rule="evenodd" transform="translate(25.35 18.85)"/><path d="m15.55-3.75.05 1.7-.6-.4.6 1 .05 1.9-3.6-2.65.4.65.65 3q-.45-.85-1.8-1.6l-1.25-.6.2 1.2q.05 1.5-.6 2.8L8.25.05q.1 1.2-.8 3.1Q6.8 1.35 5.4.4q-.15 1.35-1.2 2.65L3 .4l-.8 2.5L.8.2-.6 1.3l-.05.05V1.3L-2.05.2l-1.4 2.7L-4.2.4l-1.2 2.65Q-6.45 1.75-6.6.4q-1.4.95-2.1 2.75-.85-1.9-.75-3.1l-1.4 3.2q-.65-1.3-.6-2.8l.2-1.2-1.25.6q-1.35.75-1.8 1.6l1.05-3.65L-15-1.15Q-16.8.1-17.2.95l.05-1.35.95-2.05-.9.65.15-2.3 32.5.35" fill="#725d42" fill-rule="evenodd" transform="translate(25.35 18.85)"/><path d="M9.3 19.65q6.75 2.5 16.7 2.45 10.6-.1 17.15-3.15" fill="none" stroke="#583f30" stroke-linecap="round" stroke-linejoin="round" stroke-width=".5"/><path d="M-12.7 2.25q-.1.25 2.55 2.5.6.6-.7 1.4.1-.55-.25-1.15l-.9.1-.6.55-1-1.45q-.4-.45-1-.15l-.55.4q-.2-.9-.45-1.1l.1-2.1 1.5.25q1.5.3 1.3.75" fill="#b2a98e" fill-rule="evenodd" transform="translate(25.35 18.85)"/><path d="m17.75 17.6-.3 3.05q-.25 3.45.2 5.5M11.2 17.6l-.3 3.05q-.25 3.45.2 5.5" fill="none" stroke="#583f30" stroke-linecap="round" stroke-linejoin="round" stroke-width=".5"/><path d="m33.4 17.6.3 3.05q.25 3.45-.2 5.5m6.9-8.55.3 3.05q.25 3.45-.2 5.5" fill="none" stroke="#583f30" stroke-linecap="round" stroke-linejoin="round" stroke-width=".45"/><path d="m15.65 4.25 2.3.2q2.1.45 2.85 1.2L19.55 6l1.3 1.3-1.25.1 1.05 1.55-1.6-.25-.15 1.5-1.3-1.15.3 2.2-2-1.45v2.65q-.45-1.05-1.15-1.55l-.55-.35v2.25l-1.35-1.55-.2 1.9-1.35-1.75-.2 2.05-1.3-1.9-.35 1.95-1.5-1.95-.4 2.35q-.1-1-.9-1.9l-.8-.75-.15 2.8-1.45-2.55L4 13.9l-.85-2.2-.9 2.35q0-1-.65-1.75-.1.8-.75 1.7l-.7-.95-.8 1.65-.95-2.4q-.6.85-.65 1.75l-1.6-2.55-1.05 2.9-.7-2.85-.85.6q-.9.75-1.05 1.75l-.45-2.35-1.5 1.95-.3-1.95-1.3 1.9-.2-2.05-1.35 1.75-.2-1.9-1.4 1.55v-2.25l-1.65 1.9V9.8l-2 1.45.3-2.2-1.3 1.15-.15-1.5-1.6.25 1.05-1.55-1.25-.1 1.3-1.3-1.25-.35q.75-.75 2.9-1.2l2.25-.2q.3.15.15.8l2-.15q.85.25.4 1.1l1.2-.2q.55.15.6.65l1.45-.4.85.75q1.05-.4 2.45.4.55-.35 1.6-.25 1.2.1 1.7.7l2.25-.2.95.2 1-.2 2.2.2q.5-.6 1.7-.7l1.65.25q1.35-.8 2.4-.4.25.15.9-.75l1.45.4.6-.65 1.2.2-.1-.45q-.05-.5.45-.65l2.05.15.15-.8" fill="#1a171b" fill-rule="evenodd" transform="translate(25.35 18.85)"/><path d="m16.3 5.1 2.15.35-.7.2 1.15.95-1.1.05 1.1 1.2-.6.4-.1.2-1.75-.75.35 1.55-1.9-.65.15 1.35.05.15-.65-.35-1.15-.3.05 1.1-1.3-.85-.05 1.15-.25-.2-1.2-.7-.1 1.1-1.3-2.15-.2 2.6L7.1 8.6v2.7l-.75-.75-1.3-.9-.05 1.4-1.4-2.1.1 2.3-.85-.95-.6 1.45-1.2-1.5-.3 2.15-.75-.75-.65 1.15-.35-2.55-1.55 1.7L-3.8 9.9l-.95 1.4-.1-1.35-1.45.6-.8.75V8.6l-1.8 2.9-.2-2.6-1.3 2.15-.1-1.1-1.2.7-.25.2L-12 9.7l-1.3.85-.05.05.1-1.15-1.15.3q-.15 0-.65.35v-.2l.2-1.3-1.3.4-.6.25.35-1.55-1.75.75-.1-.2q-.15-.25-.6-.4l.25-.25-.15-.45-.25-.45h.05l1.25-1.05-.7-.2 2.1-.35-.05 1.2 1.2-.45 1.3-.15-.5 1.85 1.65-.8.6-.1.1.9L-9.95 7q.65 1.05 1.3.6.8-.2 1.7.3l.45.3.45-.3q1.4-.7 2.2.3l.5.55.6-.4 1.6-.1.15.05h.2l.4.05.4.3.45-.3.35-.05H1l.2-.05 1.55.1.65.4.45-.55q.8-.9 2.25-.3l.45.3.4-.3q1.1-.6 1.65-.3.8.3 1.35-.6l2 .6.15-.95.6.1 1.65.65-.45-1.7 1.3.15 1.15.35-.05-1.1" fill="#aca285" fill-rule="evenodd" transform="translate(25.35 18.85)"/><path d="m-6.5 8.2 1.5-.5q.5.05 1.65 1.05l.5 1q.25.05.9-1.3l.45 1.2q.4.15.75-1.1L0 10.8l-.75-1.1-1.55 1.9-.2-1.15-.9 1.05-.1-2-1.05 1.45-.4-2.3-.85.5q-.9.75-1.3 1.85V8.6L-8.85 11l-.25-2.1-1.25 2-.1-1.15-1.5 1.1L-12 9.7l-1.35.9.25-1.05q-.45-.2-1.95.35l.2-1.3-1.65.45.2-1.65-1.85 1.05-.7-.6.2-.6q-.15-.5-.4-.5l.85-.9-.05-.4 1.95-.35q-.3.65-.05 1.05l2.5-.45q-.35.85-.35 1.7l1.95-.9q.45.15.25 1.05L-9.95 7q.4 0 .65.65l1.5-.2q.7.1 1.3.75m24.3-2.55 1.1.95-1.25-.05 1.25 1.3-.7.6-1.75-.75.35 1.55q-.7-.8-2.2-1.15l-1.4-.2 1.85 2.05-2.9-1.7.65 1.05-1.6-1 .35 1.25-1.6-1.75 1.55.15q.25-.3 1.55-.5t1.85 0l-.35-1q-.45-.65-.15-.65l2.15.65-.05-1.3 1.95.3-.65.2M1.6 8.8q-.05-.3.3-.4.65-.25 2.05.35.1-1.1 2.05-.45.45.25.7 1.75l-2-1.4.05 1.55L3.6 8.95l-.45 1.85L2.7 9l-.45 1.65-.5-1.6-.15-.25" fill="#ccc3aa" fill-rule="evenodd" transform="translate(25.35 18.85)"/><path d="m-9.85 8.65-.45 1q.4-1.2-.1-1.1L-11.75 10l.1-1.5-1.5 1.3.4-1.2-2.1.95 1.1-1.8-2.6.8q1.65-1.95 1.2-1.9-2.1.2-2.95 1.05-.5.4-.25-1.1l-.7.15q1.25-1.05.65-1.3l2.1-.35v.75l1.7.05q.35.25-.25 1.8l2.3-.95q.35.3-.5 1.6l1.95-.75.05.65 1.15-.1q.15.2.05.5" fill="#ece9e0" fill-rule="evenodd" transform="translate(25.35 18.85)"/><path d="m-.6-.25-.2-.9 2-.45 1.55.45-.3 1.2 2.3.45-2 .65 2 1.35-1.6-.1L4.7 3.85 2.85 4l1.65.55L2.95 5.6l1.65-.05-1.2.7L4.7 7.3l-1.75.2 1.8 1.15-1.2.5 1.6 1-1.1.4L5.3 12.3l-1.35-.5v2l-1-1.55-.5 2.45-.65-1.75-.7 1.95-.95-2.3-.8 1.85q-.55-.8-.3-2.4l-1.4.35 1.05-1.9-1.25-.1 1.5-1.25-1.5.1 1.45-1.7-1.65-.25.95-.65q-.35-.45-1-.75l1.7-.35q-.25-.5-1.45-1 .85.2 1.7-.55l-1.9-.15L-1.2 2.4l-1.6.1 2-1.35q-.75-.4-2-.65l2.2-.75" fill="#1a171b" fill-rule="evenodd" transform="translate(25.35 18.85)"/><path d="m1.2-1.15 1.05.3-.3 1.2L3 .55l-1.2.65 1.6.75-.85.15.2.45q0 .3.75 1l-1.85-.1.9.85.75.45-.7.6-.15.25.2.25.3.15-.25.15 1 .95h-.55l-1.4-.55.9 1.2 1.05.85-1.15.5 1.7.9-.8.45.7.95-.6-.2-.05 1.3-.1-.35-.85.1-.15 1.15-.75-1.95-.55 2.35-.65-1.65h-.3q-.25 0-.7 1.05l-.05-.35.1-1.15-.35-.1-.7.1.6-.95.5-.6-1.05-.1-.1-.05.75-.45.6-.25-.5-.45-.75-.2.95-1.1-.2-.25q-.1-.2-.8-.3l.4-.25-.3-.4-.35-.3.65-.05.75.05-.35-.65-.6-.65.75-.45.4-.35-.4-.3q-.2-.2-1.15-.3l.8-.6.25-.15-.1-.3q-.05-.25-.65-.35l1.6-.75-1.2-.65 1.1-.2-.35-1.2 1.5-.3" fill="#aca285" fill-rule="evenodd" transform="translate(25.35 18.85)"/><path d="M-.25-.7.6-.9Q1.7.35 1.45.5q-.4.3.25 1.45L1 1.9l-.45.3.85.35-1.2.8L1.9 4.7l-1.2.4 1.8 1.4-2.1-.2.65 1.65.15-1.1L2.7 8.6l-1.25-.35 1.2 1.5-1-.25.3 1.1L.9 9.75v2.3l-.65-.95-.8 2.1.1-2.45-1 1 1.4-1.7L-1.6 10q.8-.55 1.95-1.05l-1.95-.2 1.35-1.1-1.3-.65.5-.25q-.1-.4-.65-.7l1.3-.1-.95-1.2 1.15-.8q-.45-.4-1.55-.6l1.4-1.05-1.1-.25 1.5-.85-1.1-.65L-.1.1l-.15-.8" fill="#ccc3aa" fill-rule="evenodd" transform="translate(25.35 18.85)"/><path d="M-.9.5.65.15Q.3.75-.9.5" fill="#ece9e0" fill-rule="evenodd" transform="translate(25.35 18.85)"/><path d="M.75 1q.15.25-2.1 1Q.3.5.75 1M.8 3.9l-1 1.6q.75-1.75.55-2.1l-1.95-.15q1.55-.8 1.95-.7 1 .5.45 1.35" fill="#ece9e0" fill-rule="evenodd" transform="translate(25.35 18.85)"/><path d="m1 1.95 1.1.8q-2.15-.1-1.1-.8M.1 5.8l.05.1q.5.65-1.85.15L.1 5.8m-1.5 2.8L.5 7.35q.5.5-1.9 1.25m2.45.15H-.4l1.6-.5q.7.9-.55 2.15l.4-1.65m-1.25 1.4q.6-.1-.35 1.65l.1-.85-.95.6 1.2-1.4" fill="#ece9e0" fill-rule="evenodd" transform="translate(25.35 18.85)"/><path d="M-1.45 9.95 0 9.15q.7.1-1.45.8m0-2.95 1.25-.4q.4.35-1.25.4m.1-2.3 1.1-.45q.35.5-1.1.45" fill="#ece9e0" fill-rule="evenodd" transform="translate(25.35 18.85)"/><path d="m17.95-14.9.4 1.45 1.9-1.15-.25 2.1q.6-.65 1.4-.9l.7-.1-.55 2.05 2.55-.3-1.85 2 1 .05q1.15.1 2 .65L23.2-7.9 25.4-6l-2.8.05.8.95q.85 1.15.95 2.1l-2.7-.95.45.75q.35 1 .15 2.35-.35-1.2-2.8-2.55 1.15.8.05 2.6l-3.9-3.25.6.9q.55 1.15.45 2.55-.35-.85-2.2-2.1l-1.8-1.1.4.65.65 3q-.45-.85-1.75-1.6l-1.25-.6.15 1.2q.05 1.5-.6 2.8l-1.4-3.2q.1 1.2-.75 3.1Q7.4-.15 6-1.1 5.85.25 4.8 1.55L3.6-1.1l-.75 2.5-1.4-2.7L.05-.2v.05L0-.2l-1.4-1.1-1.4 2.7-.8-2.5-1.2 2.65Q-5.8.25-6-1.1q-1.35.95-2.05 2.75-.85-1.9-.8-3.1l-1.35 3.2q-.65-1.3-.6-2.8l.15-1.2-1.25.6q-1.35.75-1.75 1.6l1-3.65-1.75 1.1q-1.8 1.25-2.2 2.1-.1-1.4.45-2.55l.6-.9-3.9 3.25q-1.1-1.8.05-2.6-2.45 1.35-2.8 2.55-.2-1.35.15-2.35l.45-.75-2.7.95q.15-.95.95-2.1l.8-.95-2.8-.05 2.2-1.9q-1.15-1.15-2-1.15l1.95-.65 1-.05-1.85-2 2.55.3-.55-2.05.7.1 1.4.9-.25-2.1 1.9 1.15.4-1.45 2.1 2.85-.05-1.7 2.55 3.6-.05-1.6 2.85 2.55q.65-.05.55-1.4l1.55 2.1 1.05-1.45 1.5 2.1q.55.15 1.1-1.35l1.15 1.9q.6.15 1-.85l1.05 1.25q.25.2 1.55-.6v-.05l.05-.05v.1q1.25.75 1.5.6l1.1-1.25q.4 1 .95.85.6-.15 1.15-1.9.6 1.5 1.1 1.35.55-.1 1.55-2.1L8.45-8.5 10-10.6l.05.7q.1.65.45.7l2.85-2.55v1.6l2.5-3.6v1.7l2.1-2.85" fill="#1a171b" fill-rule="evenodd" transform="translate(25.35 18.85)"/><path d="m8.95-7.85.8-.9 1.1.65.4-.65 1.3-1.25v.1l.8 2.3.8-2.3 1-1.55.6 1.65.9-1.9.95-1.4.3 1 1.3-.85-.55 3.2 2.2-2.35-.55 2.15 1.5-.7-.35.65-.1.3.15.35q.25.5 1.2.5h.25l-.35.3-.55.65 1.25.95-2.35.6L22-5.3l.65.75-3.05-.35 1.45 1.6-1.2-.75-.85 1.5.15.2v.05L16.1-4.65 15-3.35l.15.2-2.05-1.3-1 1.35.3.7-3-1.15L9.9-2l.05.7-.4-.65L7.8-4.4l.2 3 .05.15-.2.85L6.5-1.8l-1.15-.8-.15 1.4-.3.9-1.45-3.2-.8 2.65-.9-1.7L0-1.25l-1.7-1.3-.9 1.7-.85-2.65L-4.9-.3l-.25-.9-.15-1.4-1.15.8-1.4 1.4-.15-.85v-.15l.25-3-1.8 2.45-.4.65.1-.7.5-1.55-3 1.15.3-.7-1-1.35-2.05 1.3.15-.2-1.1-1.3-3.05 2.35v-.05l.15-.2-.85-1.5-1.2.8 1.5-1.65-3.1.35.65-.75.7-.7-.75-.6-1.25-.35.2-.15 2.15.15-2-1.9h.25q.95 0 1.2-.5l.15-.35-.1-.3-.35-.6 1.55.7-.6-2.2 2.2 2.35-.55-3.2 1.3.85.3-1 .95 1.4.9 1.9.55-1.65 1.05 1.55.8 2.3.8-2.3v-.1l1.9 1.85.9-.6.75.9.5.35.5-.3.55-.5q.8 1.15 1.35 1.3.6.1 1.2-.4.4.75 1.05.9.6.2 1.2-.25l.55.55q.75.5 2.05-.35 1.35.85 2.05.35l.6-.55q.55.45 1.2.25.55-.15 1.05-.9.55.55 1.15.4.6-.15 1.35-1.3l.6.5.5.3.45-.35" fill="#aca285" fill-rule="evenodd" transform="translate(25.35 18.85)"/><path d="M2.8-4.7 3-6.15 4.45-5 4.4-6.15l1.75 1 .3-1.25L7-3.15 5.05-4.6l-.4 1.65q-.15-.75-1-1.95L2.5-3l-.35-1.15L0-2.35-1.7-4.2l-.85 1.75-.65-2.3-1.5 3.65-.25-2.15L-7.6-1.4l-.15-3.2-.6.45-1.45 2.5.6-2.5-2.85 1.05q.4-.45.05-1.1l-.45-.5-5.55-.45-4.1.3 1.55-1.35-1.5-.65h1.95l-1.85-1.8q1.35-.05.45-1.85.95 1.35 1.25 1.05.3-.3-.3-1.7l1.85 1.25-.3-2.6 1.25 1 .45-1q1.2 3.65 1.55 3.4.4-.25.8-1.85l1.85 4.1Q-12.75-7-12-8.7q1.95 1.95 2.25 1.6V-8l1.95 2.1.3-1.3.95 2.5 1.5-2.05.1.7q.2.75.6.85.6.1 1.8-.8 1.2.9 1.6.75l1-.7.5 1.25 1.75-1 .5 1m10.9-1.65 1.35-5 .7 1.75 1.8-3.3.2 1.4 1.45-1.35q-.05 2.35.1 2.35l1.55-1.6-1.15 2.35 2.1-.9-1.5 1.5 2.65.3-1.3.4q-.95.5.5.95l-4 .15L21.2-5.4l-6.9.4-.4-.4q-.5-.25-1.15.6.3-.6-.1-1.75l-.5-1.05q-.25 1.25-.75 1.1l-1.15-1 .95-.05 1.25-2.05q1.2 3.75 1.25 3.25" fill="#ccc3aa" fill-rule="evenodd" transform="translate(25.35 18.85)"/><path d="M-15.1-7.7q-1.85-2.35-2.5-2.7l.9 2.15q-1.9-.75-2.45-1.3l1.15 1.7-1.65-.95.85 1-3.15-.85 2 .25-1.55-2.1 1.75 1.25-.7-2.5 1.95 1.8q-.15-1.7-.5-2.55l1.1.95.45-.9 1.7 3.35.7-2.5 1.2 3.2-1.15-.95-.1 1.65m-4.65.8q.1.45-.15.45l-3.15-.5 3.3.05m-2.35 2.05 1.9-1.55.75.5-2.65 1.05m10.1-4.3 1.65 2.05q-.3.95-1.65-2.05m-.1 2.45-2.3-1.25 2.45.85-.15.4M-9.75-8l1.7 1.55q-.4.25-.8 0L-9.75-8" fill="#ece9e0" fill-rule="evenodd" transform="translate(25.35 18.85)"/><path d="m-9.9-6.4-.3.6-2.75.05 1.7-.55q.55-.1-.8-1.5 1.05.5 2.15 1.4m.2 1.7q-.3.65-1.25 1.15l-1.45 1.1q.3-.9 1.6-1.8 1.3-.95 1.1-.45" fill="#ece9e0" fill-rule="evenodd" transform="translate(25.35 18.85)"/><path d="M-10.45-4.15q-.95-.55-2.2-.65 2.4-.95 2.8-.2.15.25-.6.85m1.95-.75q.95.15-1.1 2.2.35-2.4 1.1-2.2" fill="#ece9e0" fill-rule="evenodd" transform="translate(25.35 18.85)"/><path d="M-9.65-5.55q1.4.3 1 .9l-1-.9m3.45.35 1.15-1.55-.7 2.05-1.65-.15 1.2-.35m4.05.4q0-.45 1.05-.8l1-.2q-2.05 1.3-2.05 1m-.35-1.45q-.85 2.2-1.3 1.15l1.3-1.15M-6.25-4.1q.4.35-.1.85L-7.45-2q.65-2.55 1.2-2.1m24.9-4.35L20-8.8l2.3.05-3.65 1.1v-.8M20.2-7.4l2.05 2.2-3.05-1.9 1-.3" fill="#ece9e0" fill-rule="evenodd" transform="translate(25.35 18.85)"/><path d="M7.3-17.75q1.15-1.1 2.75-1.1t2.7 1.1Q13.9-16.6 13.9-15t-1.15 2.7q-1.1 1.15-2.7 1.15T7.3-12.3Q6.2-13.4 6.2-15t1.1-2.75m-19.25 0q1.15-1.1 2.75-1.1t2.7 1.1Q-5.35-16.6-5.35-15t-1.15 2.7q-1.1 1.15-2.7 1.15t-2.75-1.15q-1.1-1.1-1.1-2.7t1.1-2.75" fill="#e0a394" fill-rule="evenodd" transform="translate(25.35 18.85)"/></g></defs></svg>