<?xml version="1.0" encoding="UTF-8" standalone="no"?>
<svg xmlns:xlink="http://www.w3.org/1999/xlink" height="82.0px" width="84.85px" xmlns="http://www.w3.org/2000/svg">
  <g transform="matrix(1.0, 0.0, 0.0, 1.0, 37.4, 42.25)">
    <use height="38.0" transform="matrix(1.0, 0.0, 0.0, 1.0, -11.95, -17.45)" width="32.05" xlink:href="#sprite0"/>
    <use height="31.7" transform="matrix(1.0, 0.0, 0.0, 1.0, -18.6, -5.25)" width="46.05" xlink:href="#sprite1"/>
    <use height="38.95" transform="matrix(1.0, 0.0, 0.0, 1.0, -12.45, -17.95)" width="33.05" xlink:href="#sprite2"/>
    <use height="17.9" transform="matrix(-1.0, 0.0, 0.0, 1.0, 5.1, 8.1)" width="20.15" xlink:href="#sprite3"/>
    <use height="17.9" transform="matrix(1.0, 0.0, 0.0, 1.0, 3.65, 8.1)" width="20.15" xlink:href="#sprite3"/>
    <use height="19.3" transform="matrix(1.0, 0.0, 0.0, 1.0, 5.5, 5.55)" width="21.05" xlink:href="#sprite4"/>
    <use height="19.3" transform="matrix(-1.0, 0.0, 0.0, 1.0, 3.3, 5.55)" width="21.05" xlink:href="#sprite4"/>
    <use height="14.5" transform="matrix(1.0, 0.0, 0.0, 1.0, -17.25, -4.3)" width="43.05" xlink:href="#sprite5"/>
    <use height="10.95" transform="matrix(1.0, 0.0, 0.0, 1.0, 3.55, 14.75)" width="0.35" xlink:href="#sprite7"/>
    <use height="13.75" transform="matrix(1.0, 0.0, 0.0, 1.0, -16.9, -4.3)" width="41.8" xlink:href="#sprite8"/>
    <use height="14.6" transform="matrix(1.0, 0.0, 0.0, 1.0, -15.2, 9.1)" width="29.95" xlink:href="#sprite9"/>
    <use height="12.9" transform="matrix(1.0, 0.0, 0.0, 1.0, -16.3, -3.75)" width="38.05" xlink:href="#sprite10"/>
    <use height="11.9" transform="matrix(1.0, 0.0, 0.0, 1.0, -14.85, 11.15)" width="26.25" xlink:href="#sprite11"/>
    <use height="7.5" transform="matrix(1.0, 0.0, 0.0, 1.0, -17.75, 5.55)" width="44.1" xlink:href="#sprite12"/>
    <use height="8.1" transform="matrix(1.0, 0.0, 0.0, 1.0, 1.65, 7.2)" width="6.95" xlink:href="#sprite13"/>
    <use height="6.2" transform="matrix(1.0, 0.0, 0.0, 1.0, 2.65, 8.1)" width="5.0" xlink:href="#sprite14"/>
    <use height="6.15" transform="matrix(1.0, 0.0, 0.0, 1.0, 2.65, 8.15)" width="4.95" xlink:href="#sprite15"/>
  </g>
  <defs>
    <g id="sprite0" transform="matrix(1.0, 0.0, 0.0, 1.0, -0.05, 0.0)">
      <use height="38.0" transform="matrix(1.0, 0.0, 0.0, 1.0, 0.05, 0.0)" width="32.05" xlink:href="#shape0"/>
    </g>
    <g id="shape0" transform="matrix(1.0, 0.0, 0.0, 1.0, -0.05, 0.0)">
      <path d="M27.35 7.4 Q29.5 11.55 30.9 16.15 32.35 20.85 32.05 25.65 31.7 30.6 27.85 33.75 24.05 36.95 19.1 37.8 L16.5 38.0 Q12.9 38.0 9.45 36.85 4.8 35.25 2.35 31.35 -0.2 27.4 0.05 23.0 0.25 18.6 2.05 13.7 3.85 8.75 7.0 5.05 10.1 1.3 14.7 0.1 L16.5 0.0 Q18.4 0.05 20.2 0.8 24.95 2.85 27.35 7.4" fill="#ffffff" fill-rule="evenodd" stroke="none"/>
    </g>
    <g id="sprite1" transform="matrix(1.0, 0.0, 0.0, 1.0, 23.0, 15.85)">
      <use height="31.7" transform="matrix(1.0, 0.0, 0.0, 1.0, -23.0, -15.85)" width="46.05" xlink:href="#shape1"/>
    </g>
    <g id="shape1" transform="matrix(1.0, 0.0, 0.0, 1.0, 23.0, 15.85)">
      <path d="M1.8 1.6 L1.6 1.35 -0.15 1.75 -0.25 1.95 1.8 1.6 M1.45 -2.65 Q2.15 -2.25 2.4 -1.3 L2.6 -0.3 3.6 1.1 3.65 1.2 3.7 1.65 Q3.7 3.35 2.0 3.75 L0.25 4.1 Q-1.8 4.55 -2.25 2.45 L-2.25 2.35 -1.9 0.85 -2.2 -0.35 -2.2 -0.75 Q-2.2 -2.5 -0.55 -2.85 L-0.15 -2.95 Q0.75 -3.1 1.45 -2.65" fill="#1a171b" fill-rule="evenodd" stroke="none"/>
      <path d="M10.15 -5.2 Q17.3 -6.8 18.4 -5.15 19.95 -2.75 18.2 -0.7 L19.0 -0.2 Q19.85 0.55 19.95 2.05 20.05 3.7 18.5 5.4 L19.3 5.7 Q20.15 6.2 20.25 7.5 20.7 12.2 11.45 14.25 6.8 15.3 3.15 15.1 L0.4 14.75 Q-1.4 13.85 -1.1 12.05 -0.85 10.45 0.6 9.3 -1.0 8.1 -1.05 6.2 -1.1 4.35 0.35 3.2 -1.55 1.5 -0.5 -0.45 0.3 -1.95 2.0 -2.75 4.8 -3.95 10.15 -5.2" fill="#1a171b" fill-rule="evenodd" stroke="none"/>
      <path d="M1.1 -1.0 L1.1 14.8 Q1.1 15.85 0.05 15.85 -0.95 15.85 -0.95 14.8 L-0.95 -1.0 Q-0.95 -2.05 0.05 -2.05 1.1 -2.05 1.1 -1.0" fill="#1a171b" fill-rule="evenodd" stroke="none"/>
      <path d="M-0.35 -2.05 Q0.7 -2.05 0.7 -1.0 L0.7 14.8 Q0.7 15.85 -0.35 15.85 -1.35 15.85 -1.35 14.8 L-1.35 -1.0 Q-1.35 -2.05 -0.35 -2.05" fill="#1a171b" fill-rule="evenodd" stroke="none"/>
      <path d="M20.75 -6.2 L22.3 -4.55 Q23.65 -2.6 22.5 -1.0 23.25 0.35 21.65 2.65 19.95 5.0 17.95 4.8 15.95 4.6 14.9 0.7 13.8 -3.1 15.2 -3.9 L20.75 -6.2" fill="#1a171b" fill-rule="evenodd" stroke="none"/>
      <path d="M-20.75 -6.2 L-15.2 -3.9 Q-13.8 -3.1 -14.9 0.7 -15.95 4.6 -17.95 4.8 -19.95 5.0 -21.65 2.65 -23.3 0.35 -22.5 -1.0 -23.6 -2.6 -22.3 -4.55 L-20.75 -6.2" fill="#1a171b" fill-rule="evenodd" stroke="none"/>
      <path d="M-10.25 -5.2 Q-4.8 -3.95 -2.05 -2.75 -0.35 -1.95 0.45 -0.45 1.5 1.5 -0.4 3.2 1.05 4.35 1.0 6.2 0.95 8.1 -0.65 9.3 0.8 10.45 1.05 12.05 1.35 13.85 -0.45 14.75 -4.05 15.9 -11.5 14.25 -20.8 12.15 -20.3 7.5 -20.15 6.2 -19.35 5.7 L-18.55 5.4 Q-20.15 3.7 -20.05 2.05 -19.95 0.55 -19.1 -0.2 L-18.25 -0.7 Q-20.05 -2.75 -18.45 -5.15 -17.4 -6.8 -10.25 -5.2" fill="#1a171b" fill-rule="evenodd" stroke="none"/>
      <path d="M18.85 -13.8 Q20.5 -13.5 21.8 -10.35 23.15 -7.1 20.9 -6.5 21.35 -4.5 18.5 -2.7 15.65 -0.9 13.65 -2.05 12.35 -0.2 9.4 0.3 6.5 0.85 5.7 -0.35 L2.85 -0.3 Q0.7 -1.1 0.65 -2.4 0.6 -3.7 2.65 -4.7 4.55 -5.6 5.5 -5.1 6.65 -6.2 9.6 -7.15 12.35 -8.1 13.05 -7.8 14.95 -10.05 15.6 -9.85 L13.55 -15.85 15.65 -15.5 Q17.9 -14.9 18.85 -13.8" fill="#1a171b" fill-rule="evenodd" stroke="none"/>
      <path d="M-21.35 -6.5 Q-23.75 -7.1 -22.3 -10.35 -20.9 -13.5 -19.2 -13.8 -18.2 -14.9 -16.0 -15.35 L-14.05 -15.55 -16.0 -10.0 Q-15.3 -10.2 -13.1 -7.8 -12.35 -8.1 -9.45 -7.15 -6.45 -6.2 -5.2 -5.1 -4.25 -5.6 -2.55 -4.85 -0.75 -4.05 -0.65 -2.7 -0.55 -1.35 -2.6 -0.45 L-5.4 -0.35 Q-6.25 0.85 -9.25 0.3 -12.4 -0.2 -13.75 -2.05 -15.85 -0.9 -18.85 -2.7 -21.85 -4.5 -21.35 -6.5" fill="#1a171b" fill-rule="evenodd" stroke="none"/>
    </g>
    <g id="sprite2" transform="matrix(1.0, 0.0, 0.0, 1.0, 0.45, 0.5)">
      <use height="38.95" transform="matrix(1.0, 0.0, 0.0, 1.0, -0.45, -0.5)" width="33.05" xlink:href="#shape2"/>
    </g>
    <g id="shape2" transform="matrix(1.0, 0.0, 0.0, 1.0, 0.45, 0.5)">
      <path d="M27.35 7.4 Q24.95 2.85 20.2 0.8 17.55 -0.3 14.7 0.1 10.1 1.3 7.0 5.05 3.85 8.75 2.05 13.7 0.25 18.6 0.05 23.0 -0.2 27.4 2.35 31.35 4.8 35.25 9.45 36.85 14.1 38.4 19.1 37.8 24.05 36.95 27.85 33.75 31.7 30.6 32.05 25.65 32.35 20.85 30.9 16.15 29.5 11.55 27.35 7.4 Z" fill="none" stroke="#000000" stroke-linecap="round" stroke-linejoin="round" stroke-width="1.0"/>
    </g>
    <g id="sprite3" transform="matrix(1.0, 0.0, 0.0, 1.0, 10.3, 8.4)">
      <use height="17.9" transform="matrix(1.0, 0.0, 0.0, 1.0, -10.3, -8.4)" width="20.15" xlink:href="#shape3"/>
    </g>
    <g id="shape3" transform="matrix(1.0, 0.0, 0.0, 1.0, 10.3, 8.4)">
      <path d="M8.45 -5.75 Q9.45 -5.75 9.55 -3.8 9.6 -2.5 8.3 -1.05 L7.2 0.2 8.9 0.35 Q9.7 0.35 9.85 1.65 10.25 5.6 1.7 7.5 -4.55 8.9 -8.25 8.2 L-8.25 3.95 -7.55 3.35 -8.25 2.85 -8.25 -2.05 -7.6 -2.2 Q-5.9 -2.6 -5.9 -4.3 L-5.95 -4.75 -6.0 -4.85 -7.0 -6.25 -7.0 -6.3 -6.7 -6.2 -3.85 -6.25 Q-3.05 -5.05 -0.15 -5.6 2.8 -6.1 4.1 -7.95 6.0 -6.85 8.65 -8.4 L8.0 -7.15 7.15 -6.1 8.45 -5.75 M-9.1 -1.9 L-9.1 8.9 Q-9.1 9.5 -9.7 9.5 -10.3 9.5 -10.3 8.9 L-10.3 -1.8 -9.35 -1.85 -9.1 -1.9" fill="#3b3a3c" fill-rule="evenodd" stroke="none"/>
    </g>
    <g id="sprite4" transform="matrix(1.0, 0.0, 0.0, 1.0, 10.5, 9.65)">
      <use height="19.3" transform="matrix(1.0, 0.0, 0.0, 1.0, -10.5, -9.65)" width="21.05" xlink:href="#shape4"/>
    </g>
    <g id="shape4" transform="matrix(1.0, 0.0, 0.0, 1.0, 10.5, 9.65)">
      <path d="M7.55 -7.7 Q8.8 -8.65 9.2 -9.65 10.55 -8.35 10.55 -7.2 10.55 -6.6 10.2 -6.1 L9.9 -5.65 10.15 -5.2 10.25 -4.75 Q10.25 -3.85 9.5 -2.6 L8.15 -1.1 8.35 -2.55 Q8.25 -4.05 7.4 -4.8 L6.6 -5.3 Q7.6 -6.45 7.55 -7.7" fill="#2b2a2c" fill-rule="evenodd" stroke="none"/>
      <path d="M-1.45 -3.15 Q4.5 -4.95 6.15 -6.2 L5.95 -5.8 5.15 -4.85 5.95 -4.65 Q-0.3 -0.7 -7.5 -0.55 -9.25 -0.5 -9.45 1.65 -9.65 3.8 -7.35 3.85 -1.2 4.05 6.5 -0.25 L6.4 0.1 5.2 1.45 6.9 1.6 7.1 1.65 Q0.35 5.05 -7.4 5.45 -9.9 5.55 -10.2 7.05 -10.55 8.55 -8.6 8.45 6.5 7.2 7.8 3.45 L7.85 3.45 Q7.45 7.05 -0.3 8.75 -6.75 10.2 -10.5 9.35 L-10.5 5.4 -10.4 5.3 -9.55 4.6 -10.45 3.95 -10.5 3.95 -10.5 -0.65 -9.6 -0.85 Q-8.5 -1.1 -8.1 -1.9 -6.3 -1.7 -1.45 -3.15" fill="#2b2a2c" fill-rule="evenodd" stroke="none"/>
    </g>
    <g id="sprite5" transform="matrix(1.0, 0.0, 0.0, 1.0, 21.65, 13.95)">
      <use height="14.5" transform="matrix(1.0, 0.0, 0.0, 1.0, 1.5, -13.95)" width="19.9" xlink:href="#sprite6"/>
      <use height="14.5" transform="matrix(-1.0, 0.0, 0.0, 1.0, -1.75, -13.95)" width="19.9" xlink:href="#sprite6"/>
    </g>
    <g id="sprite6" transform="matrix(1.0, 0.0, 0.0, 1.0, 9.95, 7.25)">
      <use height="14.5" transform="matrix(1.0, 0.0, 0.0, 1.0, -9.95, -7.25)" width="19.9" xlink:href="#shape5"/>
    </g>
    <g id="shape5" transform="matrix(1.0, 0.0, 0.0, 1.0, 9.95, 7.25)">
      <path d="M9.95 -0.8 L9.95 -0.7 Q9.95 0.1 9.25 0.3 L8.45 0.55 8.65 1.35 8.65 1.55 Q8.65 2.7 7.0 3.95 4.35 5.9 2.6 4.85 L1.95 4.5 1.5 5.1 Q0.0 7.25 -3.55 7.25 -4.8 7.25 -5.05 6.85 L-5.6 6.05 -6.35 6.7 Q-6.85 7.25 -8.8 6.35 -9.95 5.8 -9.95 5.2 -10.0 4.65 -9.05 4.1 -7.15 2.8 -6.35 3.3 L-5.75 3.55 -5.35 3.15 Q-4.35 2.25 -1.75 1.35 0.65 0.5 1.3 0.65 L1.9 0.85 2.25 0.4 Q3.6 -1.25 4.1 -1.4 L5.25 -1.3 4.95 -2.4 2.75 -7.25 Q6.2 -6.3 6.75 -5.6 L6.95 -5.4 7.25 -5.35 Q7.9 -5.2 8.85 -3.7 9.9 -2.05 9.95 -0.8" fill="#646465" fill-rule="evenodd" stroke="none"/>
    </g>
    <g id="sprite7" transform="matrix(1.0, 0.0, 0.0, 1.0, 0.5, -5.05)">
      <use height="10.95" transform="matrix(1.0, 0.0, 0.0, 1.0, -0.5, 5.05)" width="0.35" xlink:href="#shape6"/>
    </g>
    <g id="shape6" transform="matrix(1.0, 0.0, 0.0, 1.0, 0.5, -5.05)">
      <path d="M-0.15 5.1 L-0.15 15.8 -0.3 16.0 -0.5 15.8 -0.5 5.05 -0.15 5.1" fill="#8c8f91" fill-rule="evenodd" stroke="none"/>
    </g>
    <g id="sprite8" transform="matrix(1.0, 0.0, 0.0, 1.0, 20.9, 6.95)">
      <use height="13.75" transform="matrix(1.0, 0.0, 0.0, 1.0, -20.9, -6.95)" width="41.8" xlink:href="#shape7"/>
    </g>
    <g id="shape7" transform="matrix(1.0, 0.0, 0.0, 1.0, 20.9, 6.95)">
      <path d="M-17.6 -5.5 L-14.4 -6.65 -15.0 -5.15 -16.7 -5.0 -16.6 -4.1 Q-16.7 -3.45 -17.5 -1.1 L-16.1 -1.1 Q-14.65 -1.1 -13.2 1.45 L-15.1 0.0 Q-16.35 -0.6 -17.15 0.8 -17.95 2.35 -14.85 4.5 -15.5 4.6 -17.4 3.45 -19.3 2.35 -19.6 1.75 -19.8 1.3 -19.15 0.3 L-18.4 -0.55 -20.45 -0.45 Q-21.65 -0.9 -19.75 -3.85 -19.05 -5.0 -17.6 -5.5" fill="#949494" fill-rule="evenodd" stroke="none"/>
      <path d="M-7.0 3.0 L-8.75 2.55 Q-10.6 2.25 -11.15 2.8 -11.8 3.5 -10.8 4.7 -9.8 5.9 -7.85 6.75 -8.85 6.8 -10.75 5.8 L-12.8 4.25 Q-13.5 2.85 -12.2 1.6 -11.75 1.15 -9.3 2.0 -8.1 2.45 -7.0 3.0" fill="#949494" fill-rule="evenodd" stroke="none"/>
      <path d="M-4.35 3.9 L-3.75 3.75 -4.2 5.4 Q-3.45 6.5 -3.7 6.5 -5.15 6.65 -5.0 4.9 -4.95 4.2 -4.35 3.9" fill="#949494" fill-rule="evenodd" stroke="none"/>
      <path d="M3.15 4.25 L4.1 3.8 3.4 5.05 Q3.6 6.3 5.1 6.55 4.75 6.7 3.65 6.15 2.55 5.6 2.35 5.15 2.2 4.75 3.15 4.25" fill="#949494" fill-rule="evenodd" stroke="none"/>
      <path d="M16.8 -1.95 Q16.8 -2.5 14.6 -6.95 17.85 -6.15 17.25 -5.45 L18.75 -5.0 Q19.65 -4.75 20.75 -2.35 19.9 -3.55 19.1 -3.95 18.55 -4.2 18.45 -3.5 18.35 -2.9 18.65 -2.5 L20.9 -0.8 Q20.65 -0.45 18.3 -1.45 18.05 -1.35 18.95 -0.6 19.85 0.15 19.6 0.25 L17.35 0.6 Q15.4 0.9 15.5 1.55 15.6 2.65 18.0 3.55 17.25 4.3 15.6 4.0 14.7 3.85 14.3 2.9 L13.75 2.05 Q13.45 2.15 13.5 3.15 L13.35 4.25 Q13.2 4.3 12.6 2.65 12.5 2.25 10.5 3.2 8.45 4.15 8.35 4.75 8.25 5.55 10.3 6.55 L7.75 6.8 Q6.0 6.35 6.75 4.15 7.1 3.15 9.8 2.1 12.15 1.2 13.0 1.25 L14.05 1.15 15.55 -0.35 Q16.75 -1.1 16.8 -1.95" fill="#949494" fill-rule="evenodd" stroke="none"/>
    </g>
    <g id="sprite9" transform="matrix(1.0, 0.0, 0.0, 1.0, 15.0, 7.3)">
      <use height="14.6" transform="matrix(1.0, 0.0, 0.0, 1.0, -15.0, -7.3)" width="29.95" xlink:href="#shape8"/>
    </g>
    <g id="shape8" transform="matrix(1.0, 0.0, 0.0, 1.0, 15.0, 7.3)">
      <path d="M-13.15 -5.8 Q-9.45 -3.3 -5.1 -2.35 -5.15 -1.65 -5.8 -0.85 -7.0 0.55 -8.65 1.0 -11.1 0.05 -13.7 -1.4 L-13.6 -1.15 Q-14.8 -2.55 -14.75 -3.7 -14.7 -4.75 -14.15 -5.3 L-13.6 -5.7 -13.15 -5.8 M-6.85 3.25 Q-5.65 4.3 -6.6 5.0 -7.4 5.65 -8.45 5.95 -14.05 4.6 -14.95 2.45 L-15.0 1.75 Q-14.9 0.8 -14.3 0.5 -10.65 2.3 -6.85 3.25 M-8.0 -5.1 L-7.6 -4.85 Q-11.85 -6.25 -13.25 -7.3 -10.5 -6.45 -8.0 -5.1 M-14.3 0.5 L-14.05 0.4 -12.45 0.25 -12.4 0.3 -14.1 0.45 -14.3 0.5" fill="#535254" fill-rule="evenodd" stroke="none"/>
      <path d="M10.1 -4.75 Q10.5 -4.25 10.3 -3.2 L7.9 -3.05 8.15 -4.15 8.1 -4.6 8.05 -4.7 7.4 -5.6 Q9.55 -5.4 10.1 -4.75 M14.0 3.75 Q14.95 4.55 14.25 5.35 L12.1 6.85 7.45 7.3 Q5.5 7.4 5.85 5.9 6.15 4.4 8.65 4.3 L13.9 3.7 14.0 3.75 M12.55 -2.05 Q14.2 -1.85 14.7 -1.15 15.55 -0.1 13.7 2.2 L8.7 2.7 Q6.4 2.65 6.6 0.5 6.8 -1.65 8.55 -1.7 L12.55 -2.05" fill="#535254" fill-rule="evenodd" stroke="none"/>
    </g>
    <g id="sprite10" transform="matrix(1.0, 0.0, 0.0, 1.0, 19.0, 6.65)">
      <use height="12.9" transform="matrix(1.0, 0.0, 0.0, 1.0, -19.0, -6.65)" width="38.05" xlink:href="#shape9"/>
    </g>
    <g id="shape9" transform="matrix(1.0, 0.0, 0.0, 1.0, 19.0, 6.65)">
      <path d="M-16.15 -4.95 Q-15.55 -4.95 -15.85 -4.35 -16.2 -3.7 -17.1 -3.2 -17.9 -2.8 -17.45 -1.8 L-16.9 -0.9 Q-17.65 -0.55 -18.6 -0.9 -19.6 -1.25 -18.15 -3.8 -17.75 -4.6 -16.9 -4.85 L-16.15 -4.95" fill="#c6c7c8" fill-rule="evenodd" stroke="none"/>
      <path d="M-14.05 -0.45 L-16.1 -0.2 Q-17.05 0.5 -15.9 2.8 -15.25 3.95 -16.6 2.9 -17.95 1.8 -17.6 1.2 -16.75 -0.5 -16.15 -0.7 -14.85 -1.25 -14.05 -0.45" fill="#c6c7c8" fill-rule="evenodd" stroke="none"/>
      <path d="M-13.1 -6.35 L-13.4 -5.55 -14.95 -5.45 -15.6 -5.5 -13.1 -6.35" fill="#c6c7c8" fill-rule="evenodd" stroke="none"/>
      <path d="M-9.35 1.95 Q-9.5 2.25 -10.5 2.5 -10.65 2.85 -10.4 3.8 L-10.0 4.8 Q-10.4 5.05 -10.65 4.7 L-10.95 3.4 Q-11.0 2.35 -10.75 2.05 L-9.35 1.95" fill="#c6c7c8" fill-rule="evenodd" stroke="none"/>
      <path d="M8.8 3.7 Q9.15 3.3 11.8 2.45 11.75 2.95 9.2 4.4 8.85 4.95 9.75 6.25 L8.75 6.2 Q8.35 5.9 8.35 5.05 8.35 4.2 8.8 3.7" fill="#c6c7c8" fill-rule="evenodd" stroke="none"/>
      <path d="M16.95 0.3 Q17.2 0.5 16.35 1.75 16.7 3.05 17.55 3.35 18.2 3.6 16.95 3.7 L16.15 2.55 Q15.55 1.5 15.8 1.15 16.65 0.0 16.95 0.3" fill="#c6c7c8" fill-rule="evenodd" stroke="none"/>
      <path d="M16.1 -6.65 L16.15 -6.65 18.05 -5.75 Q18.4 -4.65 18.75 -4.5 L19.05 -3.9 Q19.1 -3.45 18.75 -3.25 L18.05 -2.75 16.1 -6.65" fill="#c6c7c8" fill-rule="evenodd" stroke="none"/>
    </g>
    <g id="sprite11" transform="matrix(1.0, 0.0, 0.0, 1.0, 13.15, 6.0)">
      <use height="11.9" transform="matrix(1.0, 0.0, 0.0, 1.0, -13.15, -6.0)" width="26.25" xlink:href="#shape10"/>
    </g>
    <g id="shape10" transform="matrix(1.0, 0.0, 0.0, 1.0, 13.15, 6.0)">
      <path d="M-12.0 -5.9 Q-11.05 -6.3 -8.85 -4.8 -6.7 -3.25 -7.4 -2.7 -8.1 -2.15 -9.7 -2.2 -11.3 -2.3 -12.15 -2.95 -12.95 -3.55 -12.75 -4.65 -12.6 -5.65 -12.0 -5.9" fill="#6c6b6d" fill-rule="evenodd" stroke="none"/>
      <path d="M-12.1 0.15 Q-11.05 0.05 -9.15 1.6 -7.25 3.15 -8.05 3.4 L-10.4 3.3 Q-11.95 2.9 -12.7 2.25 -13.4 1.65 -13.05 0.9 -12.7 0.2 -12.1 0.15" fill="#6c6b6d" fill-rule="evenodd" stroke="none"/>
      <path d="M9.1 -1.85 Q9.65 -2.6 11.5 -2.05 13.3 -1.55 13.05 -0.75 12.75 0.05 11.5 0.6 10.25 1.15 9.3 0.9 8.5 0.65 8.6 -0.4 8.65 -1.3 9.1 -1.85" fill="#6c6b6d" fill-rule="evenodd" stroke="none"/>
      <path d="M8.25 3.85 L10.95 3.95 Q12.9 4.55 12.45 5.1 11.95 5.65 10.6 5.9 L8.4 5.85 Q7.6 5.6 7.7 4.8 7.75 4.1 8.25 3.85" fill="#6c6b6d" fill-rule="evenodd" stroke="none"/>
    </g>
    <g id="sprite12" transform="matrix(1.0, 0.0, 0.0, 1.0, 22.05, 3.75)">
      <use height="7.5" transform="matrix(1.0, 0.0, 0.0, 1.0, -22.05, -3.75)" width="44.1" xlink:href="#shape11"/>
    </g>
    <g id="shape11" transform="matrix(1.0, 0.0, 0.0, 1.0, 22.05, 3.75)">
      <path d="M20.5 -2.95 L21.0 -3.75 Q22.8 -1.7 21.5 0.2 22.55 1.55 20.7 3.75 21.45 1.7 20.9 0.35 21.65 -0.75 21.15 -1.95 L20.5 -2.95" fill="#646465" fill-rule="evenodd" stroke="none"/>
      <path d="M-20.5 -2.95 L-21.15 -1.95 Q-21.65 -0.75 -20.9 0.35 -21.45 1.7 -20.7 3.75 -22.6 1.55 -21.55 0.2 -22.8 -1.7 -21.0 -3.75 L-20.5 -2.95" fill="#646465" fill-rule="evenodd" stroke="none"/>
    </g>
    <g id="sprite13" transform="matrix(1.0, 0.0, 0.0, 1.0, 3.45, 4.1)">
      <use height="8.1" transform="matrix(1.0, 0.0, 0.0, 1.0, -3.45, -4.1)" width="6.95" xlink:href="#shape12"/>
    </g>
    <g id="shape12" transform="matrix(1.0, 0.0, 0.0, 1.0, 3.45, 4.1)">
      <path d="M2.4 -1.05 L3.3 0.2 3.35 0.3 3.4 0.4 3.45 0.55 3.5 1.0 3.5 1.05 Q3.5 3.15 1.45 3.65 L1.4 3.65 -0.35 4.0 -2.35 3.75 Q-3.15 3.25 -3.45 1.95 L-3.45 1.85 -3.45 1.75 -3.4 1.65 -3.1 0.25 -3.35 -0.8 -3.4 -0.95 -3.4 -1.35 Q-3.4 -3.5 -1.35 -3.95 L-1.35 -3.9 -0.95 -4.0 -0.9 -4.05 Q0.15 -4.25 1.05 -3.65 L1.0 -3.65 Q1.85 -3.2 2.2 -2.0 L2.4 -1.05" fill="#1a171b" fill-rule="evenodd" stroke="none"/>
    </g>
    <g id="sprite14" transform="matrix(1.0, 0.0, 0.0, 1.0, 2.5, 3.1)">
      <use height="6.2" transform="matrix(1.0, 0.0, 0.0, 1.0, -2.5, -3.1)" width="5.0" xlink:href="#shape13"/>
    </g>
    <g id="shape13" transform="matrix(1.0, 0.0, 0.0, 1.0, 2.5, 3.1)">
      <path d="M1.2 -1.8 L1.45 -0.7 2.45 0.7 Q2.8 2.3 1.2 2.65 L-0.55 3.0 Q-2.2 3.4 -2.45 1.75 L-2.1 0.25 -2.4 -1.05 Q-2.8 -2.65 -1.15 -2.95 L-0.75 -3.05 Q0.85 -3.4 1.2 -1.8 M0.25 -1.6 Q0.1 -2.2 -0.55 -2.1 L-0.95 -2.0 Q-1.55 -1.9 -1.45 -1.25 L-1.25 -0.3 0.45 -0.65 0.25 -1.6 M-1.2 0.75 L-1.5 1.75 0.05 1.7 1.6 1.25 Q2.0 0.7 0.95 0.25 L-1.2 0.75" fill="#636264" fill-rule="evenodd" stroke="none"/>
    </g>
    <g id="sprite15" transform="matrix(1.0, 0.0, 0.0, 1.0, 2.45, 3.05)">
      <use height="6.15" transform="matrix(1.0, 0.0, 0.0, 1.0, -2.45, -3.05)" width="4.95" xlink:href="#shape14"/>
    </g>
    <g id="shape14" transform="matrix(1.0, 0.0, 0.0, 1.0, 2.45, 3.05)">
      <path d="M-0.95 -2.0 Q-1.55 -1.9 -1.45 -1.25 L-1.25 -0.3 -1.0 -0.35 -1.1 0.7 -1.15 0.75 -1.45 1.75 0.15 1.7 2.5 1.5 Q2.15 2.4 1.25 2.65 L-0.5 3.0 Q-2.15 3.4 -2.4 1.75 L-2.1 0.25 -2.35 -1.05 Q-2.75 -2.65 -1.1 -2.95 L-0.8 -3.05 -0.85 -2.0 -0.95 -2.0" fill="#8c8f91" fill-rule="evenodd" stroke="none"/>
    </g>
  </defs>
</svg>
