<svg xmlns:xlink="http://www.w3.org/1999/xlink" height="82" width="84.85" xmlns="http://www.w3.org/2000/svg"><g transform="translate(37.4 42.25)"><use height="38" transform="translate(-11.95 -17.45)" width="32.05" xlink:href="#a"/><use height="31.7" transform="translate(-18.6 -5.25)" width="46.05" xlink:href="#b"/><use height="38.95" transform="translate(-12.45 -17.95)" width="33.05" xlink:href="#c"/><use height="17.9" transform="matrix(-1 0 0 1 5.1 8.1)" width="20.15" xlink:href="#d"/><use height="17.9" transform="translate(3.65 8.1)" width="20.15" xlink:href="#d"/><use height="19.3" transform="translate(5.5 5.55)" width="21.05" xlink:href="#e"/><use height="19.3" transform="matrix(-1 0 0 1 3.3 5.55)" width="21.05" xlink:href="#e"/><use height="14.6" transform="translate(-15.2 9.1)" width="29.95" xlink:href="#f"/><use height="14.5" transform="translate(-17.25 -4.3)" width="43.05" xlink:href="#g"/><use height="13.75" transform="translate(-16.9 -4.3)" width="41.8" xlink:href="#h"/><use height="10.95" transform="translate(3.55 14.75)" width=".35" xlink:href="#i"/><use height="12.9" transform="translate(-16.3 -3.75)" width="38.05" xlink:href="#j"/><use height="11.9" transform="translate(-14.85 11.15)" width="26.25" xlink:href="#k"/><use height="8.1" transform="translate(1.65 7.15)" width="6.95" xlink:href="#l"/><use height="7.5" transform="translate(-17.75 5.55)" width="44.1" xlink:href="#m"/><use height="6.2" transform="translate(2.65 8.1)" width="5" xlink:href="#n"/><use height="6.15" transform="translate(2.65 8.15)" width="4.95" xlink:href="#o"/></g><defs><use height="38" width="32.05" xlink:href="#p" id="a"/><use height="31.7" width="46.05" xlink:href="#q" id="b"/><use height="38.95" width="33.05" xlink:href="#r" id="c"/><use height="17.9" width="20.15" xlink:href="#s" id="d"/><use height="19.3" width="21.05" xlink:href="#t" id="e"/><use height="14.6" width="29.95" xlink:href="#u" id="f"/><use height="14.5" width="19.9" xlink:href="#v" id="E"/><use height="13.75" width="41.8" xlink:href="#w" id="h"/><use height="10.95" width=".35" xlink:href="#x" id="i"/><use height="12.9" width="38.05" xlink:href="#y" id="j"/><use height="11.9" width="26.25" xlink:href="#z" id="k"/><use height="8.1" width="6.95" xlink:href="#A" id="l"/><use height="7.5" width="44.1" xlink:href="#B" id="m"/><use height="6.2" width="5" xlink:href="#C" id="n"/><use height="6.15" width="4.95" xlink:href="#D" id="o"/><path d="M27.35 7.4q2.15 4.15 3.55 8.75 1.45 4.7 1.15 9.5-.35 4.95-4.2 8.1-3.8 3.2-8.75 4.05l-2.6.2q-3.6 0-7.05-1.15-4.65-1.6-7.1-5.5Q-.2 27.4.05 23q.2-4.4 2-9.3Q3.85 8.75 7 5.05 10.1 1.3 14.7.1l1.8-.1q1.9.05 3.7.8 4.75 2.05 7.15 6.6" fill="#fff" fill-rule="evenodd" transform="translate(-.05)" id="p"/><path d="M27.35 7.4Q24.95 2.85 20.2.8 17.55-.3 14.7.1 10.1 1.3 7 5.05q-3.15 3.7-4.95 8.65-1.8 4.9-2 9.3-.25 4.4 2.3 8.35 2.45 3.9 7.1 5.5 4.65 1.55 9.65.95 4.95-.85 8.75-4.05 3.85-3.15 4.2-8.1.3-4.8-1.15-9.5-1.4-4.6-3.55-8.75Z" fill="none" stroke="#000" stroke-linecap="round" stroke-linejoin="round" transform="translate(.45 .5)" id="r"/><path d="M8.45-5.75q1 0 1.1 1.95.05 1.3-1.25 2.75L7.2.2l1.7.15q.8 0 .95 1.3.4 3.95-8.15 5.85-6.25 1.4-9.95.7V3.95l.7-.6-.7-.5v-4.9l.65-.15q1.7-.4 1.7-2.1l-.05-.45-.05-.1-1-1.4v-.05l.3.1 2.85-.05q.8 1.2 3.7.65Q2.8-6.1 4.1-7.95 6-6.85 8.65-8.4L8-7.15 7.15-6.1l1.3.35M-9.1-1.9V8.9q0 .6-.6.6t-.6-.6V-1.8l.95-.05.25-.05" fill="#e6d0a4" fill-rule="evenodd" transform="translate(10.3 8.4)" id="s"/><path d="M9.95-.8v.1q0 .8-.7 1l-.8.25.2.8v.2q0 1.15-1.65 2.4-2.65 1.95-4.4.9l-.65-.35-.45.6Q0 7.25-3.55 7.25q-1.25 0-1.5-.4l-.55-.8-.75.65q-.5.55-2.45-.35-1.15-.55-1.15-1.15-.05-.55.9-1.1 1.9-1.3 2.7-.8l.6.25.4-.4q1-.9 3.6-1.8Q.65.5 1.3.65l.6.2.35-.45Q3.6-1.25 4.1-1.4l1.15.1-.3-1.1-2.2-4.85q3.45.95 4 1.65l.2.2.3.05q.65.15 1.6 1.65Q9.9-2.05 9.95-.8" fill="#bc613a" fill-rule="evenodd" transform="translate(9.95 7.25)" id="v"/><path d="M-.15 5.1v10.7l-.15.2-.2-.2V5.05l.35.05" fill="#ccbaa2" fill-rule="evenodd" transform="translate(.5 -5.05)" id="x"/><path d="M2.4-1.05 3.3.2l.05.1.05.1.05.15.05.45v.05q0 2.1-2.05 2.6H1.4L-.35 4l-2-.25q-.8-.5-1.1-1.8v-.2l.05-.1.3-1.4-.25-1.05-.05-.15v-.4q0-2.15 2.05-2.6v.05l.4-.1.05-.05q1.05-.2 1.95.4H1Q1.85-3.2 2.2-2l.2.95" fill="#1a171b" fill-rule="evenodd" transform="translate(3.45 4.1)" id="A"/><path d="m1.2-1.8.25 1.1 1 1.4Q2.8 2.3 1.2 2.65L-.55 3q-1.65.4-1.9-1.25l.35-1.5-.3-1.3q-.4-1.6 1.25-1.9l.4-.1Q.85-3.4 1.2-1.8m-.95.2q-.15-.6-.8-.5l-.4.1q-.6.1-.5.75l.2.95 1.7-.35-.2-.95M-1.2.75l-.3 1L.05 1.7l1.55-.45Q2 .7.95.25l-2.15.5" fill="#e6d0a4" fill-rule="evenodd" transform="translate(2.5 3.1)" id="C"/><path d="M-.95-2q-.6.1-.5.75l.2.95.25-.05L-1.1.7l-.05.05-.3 1 1.6-.05 2.35-.2q-.35.9-1.25 1.15L-.5 3q-1.65.4-1.9-1.25l.3-1.5-.25-1.3q-.4-1.6 1.25-1.9l.3-.1L-.85-2h-.1" fill="#a68d60" fill-rule="evenodd" transform="translate(2.45 3.05)" id="D"/><path d="M7.55-7.7Q8.8-8.65 9.2-9.65q1.35 1.3 1.35 2.45 0 .6-.35 1.1l-.3.45.25.45.1.45q0 .9-.75 2.15L8.15-1.1l.2-1.45q-.1-1.5-.95-2.25l-.8-.5q1-1.15.95-2.4m-9 4.55q5.95-1.8 7.6-3.05l-.2.4-.8.95.8.2Q-.3-.7-7.5-.55q-1.75.05-1.95 2.2-.2 2.15 2.1 2.2 6.15.2 13.85-4.1L6.4.1 5.2 1.45l1.7.15.2.05Q.35 5.05-7.4 5.45q-2.5.1-2.8 1.6-.35 1.5 1.6 1.4 15.1-1.25 16.4-5h.05q-.4 3.6-8.15 5.3-6.45 1.45-10.2.6V5.4l.1-.1.85-.7-.9-.65h-.05v-4.6l.9-.2q1.1-.25 1.5-1.05 1.8.2 6.65-1.25" transform="translate(10.5 9.65)" id="t" fill="#a68d60" fill-rule="evenodd"/><path d="M-13.15-5.8q3.7 2.5 8.05 3.45-.05.7-.7 1.5Q-7 .55-8.65 1-11.1.05-13.7-1.4l.1.25q-1.2-1.4-1.15-2.55.05-1.05.6-1.6l.55-.4.45-.1m6.3 9.05Q-5.65 4.3-6.6 5q-.8.65-1.85.95-5.6-1.35-6.5-3.5l-.05-.7q.1-.95.7-1.25 3.65 1.8 7.45 2.75M-8-5.1l.4.25q-4.25-1.4-5.65-2.45 2.75.85 5.25 2.2M-14.3.5l.25-.1 1.6-.15.05.05-1.7.15-.2.05m24.4-5.25q.4.5.2 1.55l-2.4.15.25-1.1-.05-.45-.05-.1-.65-.9q2.15.2 2.7.85m3.9 8.5q.95.8.25 1.6l-2.15 1.5-4.65.45q-1.95.1-1.6-1.4.3-1.5 2.8-1.6l5.25-.6.1.05m-1.45-5.8q1.65.2 2.15.9.85 1.05-1 3.35l-5 .5Q6.4 2.65 6.6.5q.2-2.15 1.95-2.2l4-.35" transform="translate(15 7.3)" id="u" fill="#f1e7d1" fill-rule="evenodd"/><path d="m-17.6-5.5 3.2-1.15-.6 1.5-1.7.15.1.9q-.1.65-.9 3h1.4q1.45 0 2.9 2.55L-15.1 0q-1.25-.6-2.05.8-.8 1.55 2.3 3.7-.65.1-2.55-1.05-1.9-1.1-2.2-1.7-.2-.45.45-1.45l.75-.85-2.05.1q-1.2-.45.7-3.4.7-1.15 2.15-1.65M-7 3l-1.75-.45q-1.85-.3-2.4.25-.65.7.35 1.9t2.95 2.05q-1 .05-2.9-.95l-2.05-1.55q-.7-1.4.6-2.65.45-.45 2.9.4 1.2.45 2.3 1m2.65.9.6-.15-.45 1.65q.75 1.1.5 1.1-1.45.15-1.3-1.6.05-.7.65-1m7.5.35.95-.45-.7 1.25q.2 1.25 1.7 1.5-.35.15-1.45-.4t-1.3-1q-.15-.4.8-.9m13.65-6.2q0-.55-2.2-5 3.25.8 2.65 1.5l1.5.45q.9.25 2 2.65-.85-1.2-1.65-1.6-.55-.25-.65.45-.1.6.2 1L20.9-.8q-.25.35-2.6-.65-.25.1.65.85t.65.85L17.35.6q-1.95.3-1.85.95.1 1.1 2.5 2-.75.75-2.4.45-.9-.15-1.3-1.1l-.55-.85q-.3.1-.25 1.1l-.15 1.1q-.15.05-.75-1.6-.1-.4-2.1.55-2.05.95-2.15 1.55-.1.8 1.95 1.8l-2.55.25q-1.75-.45-1-2.65.35-1 3.05-2.05 2.35-.9 3.2-.85l1.05-.1 1.5-1.5q1.2-.75 1.25-1.6" transform="translate(20.9 6.95)" id="w" fill="#e87f60" fill-rule="evenodd"/><path d="M-16.15-4.95q.6 0 .3.6-.35.65-1.25 1.15-.8.4-.35 1.4l.55.9q-.75.35-1.7 0-1-.35.45-2.9.4-.8 1.25-1.05l.75-.1m2.1 4.5-2.05.25q-.95.7.2 3 .65 1.15-.7.1-1.35-1.1-1-1.7.85-1.7 1.45-1.9 1.3-.55 2.1.25m.95-5.9-.3.8-1.55.1-.65-.05 2.5-.85m3.75 8.3q-.15.3-1.15.55-.15.35.1 1.3l.4 1q-.4.25-.65-.1l-.3-1.3q-.05-1.05.2-1.35l1.4-.1M8.8 3.7q.35-.4 3-1.25-.05.5-2.6 1.95-.35.55.55 1.85l-1-.05q-.4-.3-.4-1.15 0-.85.45-1.35M16.95.3q.25.2-.6 1.45.35 1.3 1.2 1.6.65.25-.6.35l-.8-1.15q-.6-1.05-.35-1.4Q16.65 0 16.95.3m-.85-6.95h.05l1.9.9q.35 1.1.7 1.25l.3.6q.05.45-.3.65l-.7.5-1.95-3.9" transform="translate(19 6.65)" id="y" fill="#f6ae98" fill-rule="evenodd"/><path d="M-12-5.9q.95-.4 3.15 1.1Q-6.7-3.25-7.4-2.7t-2.3.5q-1.6-.1-2.45-.75-.8-.6-.6-1.7.15-1 .75-1.25m-.1 6.05q1.05-.1 2.95 1.45 1.9 1.55 1.1 1.8l-2.35-.1q-1.55-.4-2.3-1.05-.7-.6-.35-1.35.35-.7.95-.75m21.2-2q.55-.75 2.4-.2 1.8.5 1.55 1.3-.3.8-1.55 1.35T9.3.9Q8.5.65 8.6-.4q.05-.9.5-1.45m-.85 5.7 2.7.1q1.95.6 1.5 1.15-.5.55-1.85.8l-2.2-.05q-.8-.25-.7-1.05.05-.7.55-.95" transform="translate(13.15 6)" id="z" fill="#fff" fill-rule="evenodd"/><path d="m20.5-2.95.5-.8q1.8 2.05.5 3.95 1.05 1.35-.8 3.55.75-2.05.2-3.4.75-1.1.25-2.3l-.65-1m-41 0-.65 1q-.5 1.2.25 2.3-.55 1.35.2 3.4-1.9-2.2-.85-3.55-1.25-1.9.55-3.95l.5.8" transform="translate(22.05 3.75)" id="B" fill="#ebdbba" fill-rule="evenodd"/><g id="q" fill="#1a171b" fill-rule="evenodd"><path d="m1.8 1.6-.2-.25-1.75.4-.1.2L1.8 1.6m-.35-4.25q.7.4.95 1.35l.2 1 1 1.4.05.1.05.45q0 1.7-1.7 2.1L.25 4.1q-2.05.45-2.5-1.65v-.1l.35-1.5-.3-1.2v-.4q0-1.75 1.65-2.1l.4-.1q.9-.15 1.6.3" transform="translate(23 15.85)"/><path d="M10.15-5.2q7.15-1.6 8.25.05 1.55 2.4-.2 4.45l.8.5q.85.75.95 2.25.1 1.65-1.45 3.35l.8.3q.85.5.95 1.8.45 4.7-8.8 6.75-4.65 1.05-8.3.85L.4 14.75q-1.8-.9-1.5-2.7.25-1.6 1.7-2.75Q-1 8.1-1.05 6.2q-.05-1.85 1.4-3-1.9-1.7-.85-3.65.8-1.5 2.5-2.3 2.8-1.2 8.15-2.45" transform="translate(23 15.85)"/><path d="M1.1-1v15.8q0 1.05-1.05 1.05-1 0-1-1.05V-1q0-1.05 1-1.05Q1.1-2.05 1.1-1" transform="translate(23 15.85)"/><path d="M-.35-2.05Q.7-2.05.7-1v15.8q0 1.05-1.05 1.05-1 0-1-1.05V-1q0-1.05 1-1.05m21.1-4.15 1.55 1.65q1.35 1.95.2 3.55.75 1.35-.85 3.65-1.7 2.35-3.7 2.15-2-.2-3.05-4.1-1.1-3.8.3-4.6l5.55-2.3m-41.5 0 5.55 2.3q1.4.8.3 4.6-1.05 3.9-3.05 4.1-2 .2-3.7-2.15Q-23.3.35-22.5-1q-1.1-1.6.2-3.55l1.55-1.65" transform="translate(23 15.85)"/><path d="M-10.25-5.2q5.45 1.25 8.2 2.45 1.7.8 2.5 2.3Q1.5 1.5-.4 3.2q1.45 1.15 1.4 3Q.95 8.1-.65 9.3q1.45 1.15 1.7 2.75.3 1.8-1.5 2.7-3.6 1.15-11.05-.5-9.3-2.1-8.8-6.75.15-1.3.95-1.8l.8-.3q-1.6-1.7-1.5-3.35.1-1.5.95-2.25l.85-.5q-1.8-2.05-.2-4.45 1.05-1.65 8.2-.05m29.1-8.6q1.65.3 2.95 3.45 1.35 3.25-.9 3.85.45 2-2.4 3.8-2.85 1.8-4.85.65Q12.35-.2 9.4.3 6.5.85 5.7-.35L2.85-.3Q.7-1.1.65-2.4q-.05-1.3 2-2.3 1.9-.9 2.85-.4 1.15-1.1 4.1-2.05 2.75-.95 3.45-.65 1.9-2.25 2.55-2.05l-2.05-6 2.1.35q2.25.6 3.2 1.7" transform="translate(23 15.85)"/><path d="M-21.35-6.5q-2.4-.6-.95-3.85 1.4-3.15 3.1-3.45 1-1.1 3.2-1.55l1.95-.2L-16-10q.7-.2 2.9 2.2.75-.3 3.65.65 3 .95 4.25 2.05.95-.5 2.65.25 1.8.8 1.9 2.15.1 1.35-1.95 2.25l-2.8.1Q-6.25.85-9.25.3q-3.15-.5-4.5-2.35-2.1 1.15-5.1-.65-3-1.8-2.5-3.8" transform="translate(23 15.85)"/></g><g id="g" transform="translate(21.65 13.95)"><use height="14.5" transform="translate(1.5 -13.95)" width="19.9" xlink:href="#E"/><use height="14.5" transform="matrix(-1 0 0 1 -1.75 -13.95)" width="19.9" xlink:href="#E"/></g></defs></svg>