<svg xmlns:xlink="http://www.w3.org/1999/xlink" height="82" width="84.85" xmlns="http://www.w3.org/2000/svg"><g transform="translate(37.4 42.25)"><use height="38" transform="translate(-11.95 -17.45)" width="32.05" xlink:href="#a"/><use height="38.95" transform="translate(-12.45 -17.95)" width="33.05" xlink:href="#b"/><use height="21.3" transform="translate(-15.4 7.5)" width="38.8" xlink:href="#c"/><use height="19.65" transform="translate(-14.55 8.3)" width="37.1" xlink:href="#d"/><use height="18.45" transform="translate(-14.55 9.5)" width="30.1" xlink:href="#e"/><use height="19.65" transform="translate(-14.05 8.3)" width="36.1" xlink:href="#f"/><use height="21.3" transform="translate(-21.3 -6.25)" width="50.95" xlink:href="#g"/><use height="18" transform="translate(-19.7 -4.8)" width="47.75" xlink:href="#h"/><use height="8.1" transform="translate(1.65 8.7)" width="6.95" xlink:href="#i"/><use height="6.2" transform="translate(2.65 8.9)" width="5" xlink:href="#j"/><use height="16.6" transform="translate(-19.8 -4.8)" width="47.85" xlink:href="#k"/><use height="6.15" transform="translate(2.65 8.95)" width="4.95" xlink:href="#l"/><use height="13.3" transform="translate(-19.8 -4.8)" width="46.65" xlink:href="#m"/><use height="12.5" transform="translate(-13.75 14.7)" width="24.95" xlink:href="#n"/></g><defs><use height="38" width="32.05" xlink:href="#o" id="a"/><use height="38.95" width="33.05" xlink:href="#p" id="b"/><use height="21.3" width="38.8" xlink:href="#q" id="c"/><use height="19.65" width="37.1" xlink:href="#r" id="d"/><use height="18.45" width="30.1" xlink:href="#s" id="e"/><use height="19.65" width="36.1" xlink:href="#t" id="f"/><use height="21.3" width="50.95" xlink:href="#u" id="g"/><use height="18" width="47.75" xlink:href="#v" id="h"/><use height="8.1" width="6.95" xlink:href="#w" id="i"/><use height="6.2" width="5" xlink:href="#x" id="j"/><use height="16.6" width="47.85" xlink:href="#y" id="k"/><use height="6.15" width="4.95" xlink:href="#z" id="l"/><use height="13.3" width="46.65" xlink:href="#A" id="m"/><use height="12.5" width="24.95" xlink:href="#B" id="n"/><path d="M27.35 7.4q2.15 4.15 3.55 8.75 1.45 4.7 1.15 9.5-.35 4.95-4.2 8.1-3.8 3.2-8.75 4.05l-2.6.2q-3.6 0-7.05-1.15-4.65-1.6-7.1-5.5Q-.2 27.4.05 23q.2-4.4 2-9.3Q3.85 8.75 7 5.05 10.1 1.3 14.7.1l1.8-.1q1.9.05 3.7.8 4.75 2.05 7.15 6.6" fill="#fff" fill-rule="evenodd" transform="translate(-.05)" id="o"/><path d="M27.35 7.4Q24.95 2.85 20.2.8 17.55-.3 14.7.1 10.1 1.3 7 5.05q-3.15 3.7-4.95 8.65-1.8 4.9-2 9.3-.25 4.4 2.3 8.35 2.45 3.9 7.1 5.5 4.65 1.55 9.65.95 4.95-.85 8.75-4.05 3.85-3.15 4.2-8.1.3-4.8-1.15-9.5-1.4-4.6-3.55-8.75Z" fill="none" stroke="#000" stroke-linecap="round" stroke-linejoin="round" transform="translate(.45 .5)" id="p"/><path d="M-16.3-5.75q-1.6-1.9-.25-3.75.75-.95 6.5 1.05Q-4.95-6.7-2.4-5.2q.95.6 1.4 1.4v2.35l-.15.2-.6.6.6.6.15.15V4l-.15.15-.65.65.7.6.1.1v3.6q-2.9 1.1-8.55.55-6.1-.6-8.2-3.2-.95-1.2-.8-2.45.15-1.65 1.3-1.65l1.8-.15L-16.7.9q-1.55-1.55-1.5-3.1.05-1.15.7-1.75l.65-.4 1.5-.25-.95-1.15m17.35 4.3v-2.4l1.4-1.35Q5-6.7 10.05-8.45q5.75-2 6.5-1.05 1.4 1.85-.2 3.75l-1 1.15 1.5.25q1.25.4 1.35 2.15.1 1.5-1.5 3.1l-1.25 1.3 1.8.15q1.15 0 1.3 1.65.15 1.35-.75 2.45-2.2 2.6-8.25 3.2-3.75.4-6.55-.1L1.05 9.1V5.5l.1-.1.7-.6-.65-.65L1.05 4V.05l.1-.1.6-.6-.55-.6-.15-.2" fill="#ed7cfd" fill-rule="evenodd" transform="translate(18.55 9.8)" id="r"/><path d="M-13.45-9.2q4 1.55 6.8 3Q-1-3.35-2.4-2.1.1 1.5-4.1 3.45l1.2.8q1 .95-.3 1.9-2.7 2.05-11.5-.85-.45-.85-.35-1.85.15-1.35 1.3-1.65l1.8-.15L-13.2.4q-1.4-1.55-1.5-2.85l.25-1.4q.4-1 1.1-1l1.5-.25-.95-1.15q-1.2-1.4-.65-2.95m18 8.7.1-.1.6-.55-.55-.65-.15-.2v-1.75q3.4.5 8.5-2.9-3.55 3-.2 3.85l-1.05.6q-1.2.8-1.8 1.95-.6 1.05.25 2.4.85 1.35 2.15 1.25 1.75-.15 2.65-.65l-1.45 1Q12.2 5 12.4 6.5q.4 2.75-3.15 2.75-3.1-.05-4.7-.7v-3.6l.1-.1.7-.6-.65-.65-.15-.15V-.5" fill="#ed9dfc" fill-rule="evenodd" transform="translate(15.05 9.2)" id="s"/><path d="m8.8-1.3 1.15.7q.1-1.25-.4-1.65 1.2-.3 1.85.65l-1-1.75q1.3-.05 2.05.65l-.55-1.1 1.6.55-.15-1.5q1 .25 1.2.85l-.3-1.6q.6-.05 1.2.6-1.3-4.2-2.25-5.35l1.25.85.1-1.25 1.2 1.2.2-1L17.9-8.8l1.55-1.1 1 2 .75-.85q.5 1.05.6 2.1l1.8-.6-.3 1.7 1.6.5-.7 1.85h1.3q-.8 1.5-1.35 1.8l1.35.8L24 0l.85 1.2-1 .15-.1 1.35-1.25-.55-.05 1.3-1.25-.75v1.4q-1.05-.75-1.25-.8l-.65 1.65-.55-.6-.5 1.1q-.7-1.1-1-1.25l.15 1.45-1.55-1.55q.2 1.05-.15 2.15l-1.75-1.5q.25 1.55-.2 2.55L12.5 5.45q.25 1.55-.5 2.2-.8-1.3-1.25-1.5-.05 1.2-.6 2.15-.8-1.5-1.3-1.85 0 1.35-1.2 2.9Q7.1 7.75 6.5 7.3q0 1.3-.6 2.25l-1.05-1.4-.55 1.95-1.05-1.7q-.35.85-.2 2.2-1.2-1.45-1.25-1.85l-.4 1.7-1-1.35-1.15 1.55Q-.8 9.9-1.2 8.9q-.1.4-1.65 1.45-.05-1.1-.35-1.95l-1.05 1.7-.6-1.95-1.05 1.4q-.6-.95-.6-2.25-.55.45-1.15 2.05Q-8.8 7.8-8.8 6.45l-1.3 1.85q-.55-.95-.6-2.15l-1.25 1.5q-.8-.65-.5-2.2L-13.7 7.3q-.45-1-.2-2.55l-1.75 1.5q-.35-1.1-.15-2.15l-1.55 1.55.15-1.45-1 1.25-.5-1.1-.55.6-.65-1.65-1.25.8V2.7l-1.2.75-.1-1.3-1.2.55-.15-1.35q-.35-.4-1-.15l.85-1.2-1.5-.6 1.4-.8-1.4-1.8h1.3l-.7-1.85 1.65-.5-.35-1.7 1.85.6.55-2.1.75.85 1.05-2 1.5 1.1 1.95-1.65.2 1 1.2-1.2.7 1.3-1.65 4.8 1.2-.95-.25 1.6 1.2-.85-.15 1.5 1.55-.55-.5 1.1 2-.65-.95 1.75.45-.45 1.35-.2q-.45.4-.4 1.65.75-.2 1.2-.7.2.55-.05 1.4.75-.35 1.15-.85.2.4.05 1.4l1-.6.3 1.35.8-1.35q.2.35.45 1.95l1.25-.8v1.9l.95-.95.75 1.8.9-1.45.55 1.5.85-1.2.1.55.45 1.05.8-1.7.6 1.25.7-1.8.95.95V1.2l1.25.8Q5.3.4 5.5.05l.8 1.35.35-1.35.95.6q-.1-1 .05-1.4.4.5 1.2.85-.25-.85-.05-1.4" fill="#1a171b" fill-rule="evenodd" transform="translate(25.45 10.65)" id="u"/><path d="m-22.45-5.8 1.5.5.15-1.6.7.5 1.05-2.05 1.45 1.1.45-.85.65-.6.25 1.2 1.6-1.4.4 1.1q-.7 1.65-2.05 3.3l.2 1.2.75-.45 1.1.3-.15 1.85 1.3-.6q-.05.8.1.75.3.2 1-.45v1.6l1.25-.55-.05.35v.25l.1 1.05.95-.25-.45 1.5 1.75-.85-.2 1.35 1.5-.85.5 2.35.8-1.4.15 1.05 1-.6.05.5.5 2 1-1.65.85 2.2.9-1.45.6 1.25.75-1 .7 1.55.85-1.35.05-.1.65 1.35.95-2.45L4.2 5.5l.45-2L4.7 3l1 .6.15-1.05.8 1.35.55-2.3 1.45.85L8.5 1.1l1.7.85-.45-1.5.85.2.2-.85v-.75l1.25.5V-2l.9.5.2-.8 1.3.65-.25-1.65.85.85.25-1.7 1.25.95-2.35-5.1.7.1.15-.55L16.3-7.6l.25-1.2.65.6.5.8 1.45-1.05L20.2-6.4l.65-.5.1.5.05 1.1 1.5-.5-.2 1.05 1.5.45-.85 2.15h.95l-.2.25-1.65 1 1.35.4-.7.3.7 1.05-.2.15-.15.3-.05.35-1.4-.6.05 1.1-.55-.1-.75.1v.6l-.15-.05-.9-.55-.3 1.6V3.7l-.45-.05-.5.35-.4-.35L16.3 3l.05.6L15 2.35V4.7l-.65-.5-1.55-.9.3 1.75-.05-.05-1.75-1.45.4 2.55-.6-.5-1.15-.5-.05 1.25-.05.15-.5-.55-1.35-1v1.7L7.75 7.7 7 6.8 5.65 5.75V7.5l-.05.35-.4-.3-1.1-.45L4 8.25 3.05 6.7l-.6 1.6-.9-2.1L1 8.7l-.65-.8-.75 1v-.1l-.9-1.95L-2.05 9l.05-.2-.2.2-.9-2.2-.9 1.45-.1-1.15-1.05.45-.45.3v-2.1L-7 6.8l-.7.9-.25-1.05v-1.7l-1.4 1-.5.55v-.15l-.1-1.25-1.1.5-.6.5v-.3l.4-2.25L-13 5l-.05.05.3-1.75-1.55.9-.65.5v-.25l.15-1.95-1.5 1.1.05-.6-1.35.65-.4.35-.2-.15-.4-.2-.35.05v.05l-.1-.4-.05-1.3-1.2.7v-.6l-.75-.1-.5.05.1-1.15-1.5.7V1.2l-.2-.2-.2-.15.75-1.05-.75-.3L-22-.9l-1.65-1-.2-.25h.95l-.8-2.15 1.45-.45-.2-1.05" fill="#faf" fill-rule="evenodd" transform="translate(23.85 9)" id="v"/><path d="M2.4-1.05 3.3.2l.05.1.05.1.05.15.05.45v.05q0 2.1-2.05 2.6H1.4L-.35 4l-2-.25q-.8-.5-1.1-1.8v-.2l.05-.1.3-1.4-.25-1.05-.05-.15v-.4q0-2.15 2.05-2.6v.05l.4-.1.05-.05q1.05-.2 1.95.4H1Q1.85-3.2 2.2-2l.2.95" fill="#1a171b" fill-rule="evenodd" transform="translate(3.45 4.1)" id="w"/><path d="m1.2-1.8.25 1.1 1 1.4Q2.8 2.3 1.2 2.65L-.55 3q-1.65.4-1.9-1.25l.35-1.5-.3-1.3q-.4-1.6 1.25-1.9l.4-.1Q.85-3.4 1.2-1.8m-.95.2q-.15-.6-.8-.5l-.4.1q-.6.1-.5.75l.2.95 1.7-.35-.2-.95M-1.2.75l-.3 1L.05 1.7l1.55-.45Q2 .7.95.25l-2.15.5" fill="#409bb0" fill-rule="evenodd" transform="translate(2.5 3.1)" id="x"/><path d="M-.95-2q-.6.1-.5.75l.2.95.25-.05L-1.1.7l-.05.05-.3 1 1.6-.05 2.35-.2q-.35.9-1.25 1.15L-.5 3q-1.65.4-1.9-1.25l.3-1.5-.25-1.3q-.4-1.6 1.25-1.9l.3-.1L-.85-2h-.1" fill="#8cbbc6" fill-rule="evenodd" transform="translate(2.45 3.05)" id="z"/><path d="M-12.35 2.45q-.4-1.3.3-1.75l2.85.1q1.85.6 2.7 1.5.8.9-.5 1.85-1.4.95-3.2.35-1.7-.55-2.15-2.05m.55-6.85q-.25-1.55.9-1.6 1.2-.1 2.9.6 1.7.65 2.05 1.4.35.8-1.3 1.55l-3 .2q-1.3-.55-1.55-2.15M6.4 5.2q-.25-.75.3-1.3.65-.6 2.35-.7l2.2.35q.65.4-.45 1.4Q9.65 6 8.15 6.05q-1.4.05-1.75-.85M4.85-3.6h.35v9.9l-.15.2-.2-.2v-9.9M6.8-.8q-.3-1.3.8-1.7l2.8-.3q1.65.05 2 .55.35.55-1.2 1.7Q9.6.65 8.35.55 7.1.45 6.8-.8" fill="#f2c3fe" fill-rule="evenodd" transform="translate(12.5 6)" id="B"/><g id="q" fill="#1a171b" fill-rule="evenodd"><path d="M-16.95-5.2q-2.1-2.45-.25-4.85 1.15-1.55 7.85.85 5.05 1.85 7.4 3.25 1.25.75 1.9 2.1Q.7-2.1-.55-.7.5.3.55 1.95q0 1.65-1.1 2.75 1.1.95 1.3 2.35.3 1.6-.95 2.55-2.75 1.5-9.45.85-4.85-.5-7.5-2.3-2.5-1.8-2.25-4.3.15-1.45 1.15-2.05l.95-.35Q-19.15-.5-19.05-2.3q.1-1.65 1.1-2.45.5-.2 1-.45" transform="translate(19.4 10.65)"/><path d="M.1-3.85Q.7-5.2 2-5.95q2.35-1.4 7.4-3.25 6.65-2.4 7.8-.85 1.85 2.4-.25 4.85.5.25 1 .45 1 .8 1.1 2.45.1 1.8-1.75 3.75l.95.35q1 .6 1.15 2.05.25 2.5-2.25 4.3-2.6 1.8-7.5 2.3l-7.2-.2-2.2-.65q-1.25-.95-1-2.55Q-.5 5.65.6 4.7-.5 3.6-.5 1.95T.6-.7Q-.7-2.1.1-3.85" transform="translate(19.4 10.65)"/><path d="M1.1-6.85v15.8Q1.1 10 .05 10q-1 0-1-1.05v-15.8q0-1.05 1-1.05 1.05 0 1.05 1.05" transform="translate(19.4 10.65)"/></g><g id="t" fill-rule="evenodd"><path d="M1.15 9.1v-.4l6.55.55q7.1-.15 10.35-3-2.7 3-9.25 3.5-5.4.4-7.65-.65m14.5-6.85 1 .1Q9.5 4.55 2.55 5.3q-.85.1-1.4.8v-.6l.7-.7-.7-.65V3.7l.7.35q4.3 1.45 14.55-2.8l-.75 1M1.2-1.2q10.5-.55 15.45-5.15Q16.4-5.3 15.4-4.6l1.25.25q-1 0-5.45 1.7Q6.4-.85 2.45-.5q-.8.05-1.3 1.05V.1l.6-.7-.55-.6m-2.15-.4-.8.95.8.9.05.1v3.5l-.9.95.9.95V9l-.25.1q-2.15 1.05-7.6.65-6.6-.5-9.3-3.5Q-14.8 9.1-7.95 9.1q6.1 0 6.8-1.1.45-.65-.2-1.65-.7-1-1.85-1.1-4.4-.5-8.85-1.75l-4.6-1.15 1-.1-.75-1q9.95 4 14.25 2.6 1.6-.55 1.05-2.6-.5-1.95-1.7-2.1-3.95-.35-8.55-1.95-4.25-1.55-5.3-1.55l1.25-.25q-1-.7-1.25-1.75l3.95 2.45Q-7.4-1.45-.95-1.6" fill="#d43ffc" transform="translate(18.05 9.8)"/><path d="M-17.1-6.9q-.5-1.4.4-2.6.75-.95 6.5 1.05Q-5.1-6.7-2.55-5.2q1.3.9 1.65 2v.75q-.45.4-1.1.85l-.4-1.95-1.05 1.7-.6-1.95-1 1.4q-.6-.95-.6-2.25-.6.45-1.2 2.05Q-8-4.15-8-5.5l-1.3 1.85q-.55-.95-.6-2.15l-1.25 1.5q-.75-.65-.5-2.2l-1.25 1.85q-.45-1-.2-2.55l-1.75 1.5q-.3-1.1-.1-2.15l-1.6 1.55.15-1.45-.7.85M1.15-4.25l1.1-.95Q4.8-6.7 9.9-8.45q5.75-2 6.5-1.05.65.9.55 1.9l-.3-.25.05 1.25-.4.7-1.55-1.3q.25 1.55-.2 2.55L13.3-6.5q.3 1.55-.5 2.2l-1.25-1.5q-.05 1.2-.6 2.15-.75-1.5-1.3-1.85 0 1.35-1.15 2.9-.6-1.6-1.2-2.05 0 1.3-.55 2.25L5.7-3.8q-.1.75-.6 1.95l-1.05-1.7q-.3.85-.15 2.2Q2.7-2.8 2.6-3.2l-.4 1.7-1-1.35-.05.1v-1.5" fill="#d43ffc" transform="translate(18.05 9.8)"/><path d="M.6 9.1q0 .6-.6.6t-.6-.6V-1.1H.6V9.1" fill="#901eb8" transform="translate(18.05 9.8)"/></g><g id="y" fill="#ffdcfe" fill-rule="evenodd"><path d="m-23.65-3.6 1.5-.35-.35-1.3 1.65.6.1-1.55.7.5L-19-7.75l1.45 1.1 1.1-1.45.05.85 1.8-1.05.4 1.1-1.85 3.3q-.2.45 0 1.1l1.2-.85.3 1.3.55-.5-.35 1.85 1.4-.7.05 1.15.95-.75q.15.35 0 1.6l1.25-.75q-.1.65.2 1.65l1-.35-1.25 2.05 2.45-1.3-.7 2 1.9-1.3-.3 3.25q.1.7 1.6-2.3l-.4 1.7q.05.25 1.55-1.25l-.6 2.4q.1.3.8 0L-5.5 8.3l-.05-3.2-1.05.6q-1.1.8-1.2 1.8l-.25-2.95-1.85 1.7.4-2.15-.9.5q-.95.65-1.15 1.4l.7-2.8-2 1.8.6-2.3-2.65 2.45.75-3.2-2 2.25.85-1.95-1.15.7q-1.2.9-1.5 1.75-.2-.75.35-1.75l.55-.85-1.85 2.35.6-3.15-1.9 2.05.75-2.5-2 1.85.7-1.9-2.3 1.55 1.25-1.6-1.3.95.3-.6 1.05-.75L-23.3.2l2.05-.7-2.65-.85 1.1-.3-.85-1.95M16.6-8.1l1.15 1.4 1.45-1.05.9 1.9.8-.35-.95 2 2.5-.9-1.85 1.85q1.45-.9 3.25-.35-1 1.2-2.75 1.55l2.85.6-3.25.8 2.1.8-2.1.15.8.75-1.6-.1.35-.5-.8-.35 1.45-.25-1.5-.6q1.1-.35 1.65-.65l-2-.45q1.6-.6 2.1-.95l-1.8.3 1.1-1.4-1.7.95.8-2.4q-.5.65-1.35.8l-.6-1.3-.55 1.15 1.2.65-1.15.65q.7.3 1.2 0l-1.3.9 1.25.3-1.5.6 1.1.7q-.9.7-1.8.25l.4 1.3-1.25-.4-.3 1.05-1.15-.6-.15 1.35-1.65-1 .1 1.65-1.5-.8.95 1.65q-1.45-.4-2.55-1.15v1.25l-.4-1.85 1.85.75-.45-1.4.95.25-.05-1.65L12 .3q.3-1.25.1-1.6.7.15 1.35.9l-.25-1.2.75.3.3-1.3.95.9.1-1.65 1.05.35-2.1-4.6.6.15.25-.6 1.25 1.15.25-1.2M6.35 6.3l-1.3-.95-.9.65.6-2.3 1.6 2.6m1.2-3L6.7 5.25l.55-3.05L8.6 3.3H7.55" transform="translate(23.9 8.3)"/><path d="M16.45 4.45 14.4 2.6l1 .25q.2-.7-.1-1.15 1.1.45 1.95 1.45L17 1.85q1 .1 3.4 1.6L18.6 3q.4.7.45 1.4l-1.2-1.25q.35.7.25 1.55l-2.15-1.9.5 1.65m5.25-1.6-2.9-.95.7-.25-.7-.8 2.9 2m1.75-1.3-1.15-.1-.4-.75q.55.05 1.55.85" transform="translate(23.9 8.3)"/></g><g id="A" fill="#fffffe" fill-rule="evenodd"><path d="m-21.1-.4-1.95-1.55 2.4-.05-1.25-1.6 2.15 1-.4-1.95 1.65.95.1-2.5 1.45 1.1 1.1-1.45.05.85 1.8-1.05.4 1.25-1 1.55V-5.1l-1.45 2.05-.35-1.4-.4 1.1-.95-1.4.35 2.2q-.6.15-1.75-.65l.9 1.1-1.65.1 1.35.5-2 .3 2.35.3q-.45.35-1.95.85l2.35-.3L-19.3.7l2.4-.75-1 1.35 2.05-.7q-.1.75.15.7l1.95-.65q-.7 1.4-.35 1.2L-12.8.7l-.45 1.45 1-.2-1.9 1.5q.05-.4.5-1.05l-2.3 1.4.85-1.15-2.4 1.2q0-.5.8-1.2l-1.9.3.65-1-2.45.55 1-1.1-1.75.6.85-1.25-3-.45 2.2-.7" transform="translate(23.3 6.65)"/><path d="m-15.3-2.55-.15 1.4 1.2-.85.25 1 .6-.2-1.05 1.05-.2-1.2-.95.9-.5-.65.8-1.45m1.65 7.75 1.1-1.9-.25.95 2-1.05-.4 1.7-.1-.95-2.35 1.25m3.9-.55.15.55 1.2-.5v1.25l.9-.4-1.25 1.1-.05-1.25-1.45.6.5-1.35m25.95-7.7-1.35-2.9.6.15.25-.6 1.25 1.15.1-1.3 1.3 1.5q.8-.35 1.45-1.05l.6 1.9q.45 0 1.25-.6L20.6-3.15l-.15-.7-1.25.25.4-1.7-.8 1.25-1.2-1.05-.2 1.4-1.3-.95.1 1.6m4.7 1.5 1.2-1.25-.15 1 1.4.15q-.45.5-2.25 1.35l.95-.85-1.15-.4m-4.05 0-.4-1 1.2 1.25-1.25.5q.25.5-.35 1.75l-.85-1.1-.1 1.2-1.3-1 .75.3.3-1.3.8.9.25-1.65.95.15" transform="translate(23.3 6.65)"/></g></defs></svg>