<svg xmlns:xlink="http://www.w3.org/1999/xlink" height="82" width="84.85" xmlns="http://www.w3.org/2000/svg"><g transform="translate(37.4 42.25)"><use height="38" transform="translate(-11.95 -17.45)" width="32.05" xlink:href="#a"/><use height="38.95" transform="translate(-12.45 -17.95)" width="33.05" xlink:href="#b"/><use height="61.3" transform="translate(-28.45 -34.7)" width="63.65" xlink:href="#c"/></g><defs><path d="M27.35 7.4q2.15 4.15 3.55 8.75 1.45 4.7 1.15 9.5-.35 4.95-4.2 8.1-3.8 3.2-8.75 4.05l-2.6.2q-3.6 0-7.05-1.15-4.65-1.6-7.1-5.5Q-.2 27.4.05 23q.2-4.4 2-9.3Q3.85 8.75 7 5.05 10.1 1.3 14.7.1l1.8-.1q1.9.05 3.7.8 4.75 2.05 7.15 6.6" fill="#8a8483" fill-rule="evenodd" transform="translate(-.05)" id="d"/><path d="M27.35 7.4Q24.95 2.85 20.2.8 17.55-.3 14.7.1 10.1 1.3 7 5.05q-3.15 3.7-4.95 8.65-1.8 4.9-2 9.3-.25 4.4 2.3 8.35 2.45 3.9 7.1 5.5 4.65 1.55 9.65.95 4.95-.85 8.75-4.05 3.85-3.15 4.2-8.1.3-4.8-1.15-9.5-1.4-4.6-3.55-8.75Z" fill="none" stroke="#000" stroke-linecap="round" stroke-linejoin="round" transform="translate(.45 .5)" id="e"/><use height="38" width="32.05" xlink:href="#d" id="a"/><use height="38.95" width="33.05" xlink:href="#e" id="b"/><g id="c" fill-rule="evenodd"><path d="M8.35-12.6q-.2-1.45-.55-1.5-1.2 4.4-1.75 4.75-.2-1.8-.6-1.7L3.9-7.4v.2l-.05-.05-.05.05v-.2L2.35-11l-.7 1.75q-.5-.35-1.65-4.7-.35.05-.55 1.5-.2 1.35 0 2.3-.8-1.35-1.95-2.15l-.9-.55 1.1 3.3-3.4-1.35 1.8 3.45-2.05.05-1.25.45 2 1.25q-1.5 1.15-2.95 2.2l3.7.45q-2.7 1.4-1.2 1.55l2-.05Q-5.05-.75-6.5 0q-2.65 1.65-1.8 2.4l1.85-.3q1.45-.25 1.3 1.15.2-.4 1.1-.3.1.4-.4 1.2.85-.05.65 1.05l-1.1 1.7-.55 1.1q-.2.95.75.95.45-.05 2.5-2.85l-.3 1.45q-.2 1.45.35 1.1.9-.65 2.05-2.5l.2.8q.35.85.95.7L2.9 6.4l.15.75q.2.8.65.65.75-.2.8-1.4l1.8 1.25q1 .25 1.2-1.55l2 2.55q.85.5.35-2.25L12 8.95q1.35.05.65-1.6l-1.65-2q-.6-.55-.55-.85.2-.45.55-.35-.25-.4.15-.9.4-.45.65-.15-.45-.5-.15-1.05.25-.55 1.05-.35l1.5.7 1.55-.05q.9-.8-.7-2.2l-3.7-1.8q5.1.65.8-1.55.7-.55 3.85-.5-2.3-2.1-2.95-2.15 1.05-1.05 2-1.35-2.15-1-3.3-.45l1.95-3.55q-2.45.8-3.6 1.45l1.2-3.35q-1.55.6-2.95 2.8.2-.95 0-2.3M5.1-24.85l.85-1.9 1.6 2.35 3.2-1.7-.5 2.3q1-.75 4.2-1.35-.5.5-1.45 2.2.75-.6 3.7-.6l-1.4 1.85q.75-.45 3.9-.05-1 .6-1.6 1.3 2.25-.25 4 .9-1.1.05-2.2.65 1-.05 4.3 1.5-.7-.05-1.8.95 1.25.05 3.65 1.45l-2.5.7q1.75.4 3.75 1.7l-1.85 1.2 2.55 1.25-2.25 1.05 3.3 2.4-2.15.2q2.25 1.55 2.65 3.05-1 .25-1.9.7Q28.9-1 29.4 1.2 28.3.05 26.6.15q1.6.75 2.9 4l-2.7-.4 2.65 4L26.5 7l.7 1.2q.8 1.45 1 2.85l-2.7-1.4.7 1.2q.7 1.55.8 3.35l-2.45-1.7 1.35 3.1-2.65-.5 1 3.45-2.7-1.55.5 3.6-1.95-1.7-.05 2.95-2.4-2.2.45 3-2.7-2.15.4 1.2.15 2.45-2.95-2.1v3l-2.15-1.6L10.4 26q-.6-1.25-1.45-2.05l-.75-.45q-.1 1.9-1 3.1l-1.3-2.7q-.35.15-.75.5-.95.75-1.4 1.75L3.7 26v.15q-.45-1-1.35-1.75l-.85-.5-1.2 2.7-.9-2-.2-1.1-.7.45q-.9.8-1.45 2.05l-.45-2.55-2.15 1.6v-3l-2.95 2.1q-.2-1.1.2-2.45l.4-1.2-2.7 2.15.4-3-2.35 2.2-.1-2.95q-1.25.75-1.95 1.7l.5-3.6-2.7 1.55 1-3.45-2.6.5 1.3-3.1-2.5 1.7q.1-1.8.85-3.35l.7-1.2q-2.25 1-2.7 1.4.2-1.4 1-2.85L-19 7l-3.05.75 2.65-4-2.7.4q1.35-3.25 2.95-4-1-.05-2 .45l-.8.6.45-1.3q.7-1.5 1.75-2.65l-1.9-.7.5-.9 2.25-2.15-2.2-.2 3.25-2.4-2.2-1.05 2.5-1.25-1.85-1.2 3.75-1.7-2.45-.7 3.65-1.45-1.8-.95 4.3-1.5-2.2-.65 1.15-.55 2.85-.35-1.6-1.3 3.95.05-1.45-1.85 3.75.6-1.55-2.2 4.2 1.35-1.1-2.2q1.9.85 3.8 1.6l.75-3.65 1.75 3.2q.4-.5.75-2.3l2 2.3" fill="#1a171b" transform="translate(28.45 34.7)"/><path d="m12-12.7 1.15-1.95-2.1.75-1.85 1.3-1.45-3.25L6.2-11.6l-.2-.1-.35-.15-.15-.05h-.05q-.6-.1-1.6 2.4-.7-2-1.35-2.25l.05-.05h-.1l.05.05-.75.1-.2.15L0-15.6l-1.35 3.2q-1.3-1.25-1.75-1.25l-2.05-.7 1 1.9.55 1.4L-8-12.5l1.6 2.1 1.2 2.05q-1.4.15-2.3.65l-1.9.9 2 .65.7.35-2 1.7-1.75 1.5 2.35-.05h1.55l-.45.9.45.7q-.6.25-1.2.7Q-9.05.6-9.4 1.9q-.15.8.4 1.25L-6.65 3l.85-.15q.7.75.15.75l.6.05-.65 1 .9.05-.7 1.5-.85 1.8.15.85q.3.9 1.75.8l1.25-.7q.6.9 1.85.2L-.25 8l.2.2 1.4.2h.2l.8-.55.4.55q.6.45 1.25.2l1-.75.8.5.15.05q.8.25 1.45-.2l.15-.2 1.3 1.25q.8.5 1.4 0L10.6 9q.7.65 1.2.65 1.3.1 1.8-.9.5-1.2-1.25-3.15l-.7-.85 1.2.1q-.4-.2-1-1.15l1.15.25q-.85-.5-.65-1.45l2.1.65q1.6.4 2.15-.2.45-.45.35-1.15-.2-1.1-1.4-2.15L14.4-1.3l.3-.5v-.1l-.45-.95 3.95.05-1.7-1.5-2-1.65.85-.45 2-.65-1.95-.9-2.3-.65 1.2-2.05 1.75-2.2-4.6 1.55.55-1.4m7.05-6.85-1.55.9q1 0 4.25 1.3l-.4.25-1.55 1.35 2.05.1 1.4.4L20.5-14l2.35.55 2.35.9-1.9 1.25 2.3 1.15-2.05.9L26.4-7.4l-.35.1-1.45.6 1.3.9 1.95 1.9-2.1.9.85.85 1.15 1.6-1.2-.15-2.1.15L28.1 3.1l-3.35-.5 1.45 1.7 1.6 2.1-1.25-.2-1.9-.2 1.15 1.5 1 1.85-.95-.4-1 1.25 1.05 2.2-3.3-2.25 1.9 4.3-3.05-.55 1.1 1.6.55 1.45-3.25-1.9.95 2.3.3 1.25-1.95-1.25.15 2.6-3.2-2.5.95 3.25-3.65-2.6 1.2 2.75.5 1.55-2.95-1.9v2.95l-2.05-1.7-.15 2.15Q8.9 22.75 8.5 22.75l-1.05-.45-.05 1.2-.15.9q-.45-.95-.85-1.15l-.35-.3-.45.2q-1 .45-1.9 1.5-1.15-1.5-1.9-1.5l-.4-.2-.35.3q-.4.3-.85 1.15l-.15-.9L0 22.3l-1.05.45q-.4 0-1.5 1.15l-.1-2.15-2.1 1.7V20.5l-2.85 1.9.4-1.55 1.25-2.75-2.45 1.7-1.15.9.15-.8.7-2.45-3.1 2.5.1-2.6-1.95 1.25.25-1.25 1-2.3-3.3 1.9.55-1.45 1.2-1.65-3.1.6 1.85-4.3-3.25 2.25 1.75-4-2.7.95 1.05-1.85 1.1-1.5-1.85.2-1.25.2 1.6-2.1 1.45-1.7-3.35.5q.55-1.2 2.3-2.55l1.7-1.2-2.45-.05-1.2.15 1.15-1.6.9-.85-2.15-.9q.7-1.05 1.95-1.9l1.3-.9-1.75-.7 2.8-1.85-2.05-.9 2.3-1.15-1.95-1.25 4.25-1.7-2.2-1 1.35-.4 2.05-.1-1.55-1.35-.35-.25q2.3-1 3.95-1l-1.25-1.2 1.3-.05 2 .2-1.2-1.55-.15-.1 1.4.1 2.45 1.05-1.65-2.75q1.7.15 3 .8l-.4-1.5-.3-.5 1.8.75 1.55.45-.55-1.95 1.5.7.85 1.2.6-1.4.35-1.45.85 1.4.7.55.5-.75.45-1.05L5-23.65l.6-.5.55-.9.7 1 .65 1.3.75-1.2 1.35-.75-.6 2.9 1.75-1.3 1.75-.75-.8 1.7 3.2-.5-.35.5-1.25 2.2 2.4-1 1.35-.1-.1.1-1.2 1.55 1.95-.2 1.35.05" fill="#46a7df" transform="translate(28.45 34.7)"/><path d="m11.85-18.25 1.75-1-1.25 3.6 3.45-1.9q-.1 1.05-2.4 4.6 1.15-.9 4.4-.8L13.65-9.6l.65-1.05 1.75-2.2-4.6 1.55.55-1.4 1.15-1.95-2.1.75-1.85 1.3-1.45-3.25L6.2-11.6l-.2-.1-.35-.15-.15-.05h-.05q-.6-.1-1.6 2.4-.7-2-1.35-2.25l.05-.05h-.1l.05.05-.75.1-.2.15L0-15.6l-1.3 2.85-1.95-5.65 1.75 2.85.9-4.3 1.8 3-.25-4.45 2.25 7.8.9-7.55.95 6.4 2.45-8q.2 2.3-.15 5.65l3.1-3.8q-.3.8-.75 4.6.35-.8 2.15-2.05M17.3-7.1l-1.95-.85-1.85-.6 2.55.45q3.6.85 6.35 2.55l-3.45-.15 6.35 3.65q-2.65-1.3-4.5-1.65l-1.25-.05L23.5.55 19.25-.8l3.7 4L17.4.8l3.4 4.65q-1.45-.8-3.9-1.5l-2.6-.8-.15-.15 2.4-.1q.45-.45.35-1.15-.2-1.1-1.35-2.15l-1.2-.9.3-.55v-.1l-.45-.9 1.75-.05 2.25.05-1.75-1.5-2-1.65.85-.45 2-.65m5.85-8.1L20.5-14l2.35.55 2.35.9-1.9 1.25 2.3 1.15-2.05.9 2.8 1.85h-.2q-4.3-1.9-6.85-2.05l4.9-.6-6.1-1.2 5.85-1.15-5.15-1.5 4.35-1.3M16.6 10l-2.75-.65 3.6 4.1-4-2.35 1.35 3.55-3.15-3.5.75 4.55-2.45-3.4-.05 3.75-1.7-4.25-1.15 4.3-1.3-4.2-1.35 2.6-1.15-5.35L2.15 14l-.4-5.05L.65 14l-.2-4.85-3.3 6.3.35-2.5q-2.15 1.15-2.7 1.8l1.6-3.1q-2.7 1.4-3.6 1.95l2.3-2.95-2.5.65 1-1.35-2.3.65 2.55-3.3-.2.7.15.85q.3.9 1.75.8l1.25-.7V9q.6.85 1.85.15L-.25 8l.2.2 1.4.2h.2l.8-.55.4.55q.6.45 1.25.2l1-.75.8.5.15.05q.8.25 1.45-.2l.15-.2 1.3 1.25q.8.5 1.4 0L10.6 9q.7.65 1.2.65 1.3.1 1.8-.9.2-.55.05-1.25l.05.05L16.6 10M-3 .95l.35-.15v.1L-3 .95m-7.1-14.55 2.85.8-1.6-2.65q1.85 1.25 5.2 4.4l-4.4-1.45 1.6 2.1 1.2 2.05-2.3.65-1.85.9 1.95.65.7.35-3.75 3.2 2.35-.05h1.55l-.45.9.45.7-1.2.7Q-9.1.6-9.45 1.9l-.15-.15 2.15-3.15-4.5 1.9 2.9-2.5q-3.4.35-4.7 1.15L-9.8-4.3l-3.2.1 3.65-1.45-3.4-1.65 6.7-1.5-4.05-4.8" fill="#2584b3" transform="translate(28.45 34.7)"/><path d="m27.65-3.85-1.9.85.85.85 1.15 1.6-1.2-.15-2.1.15L28.1 3.1l-3.35-.5 1.45 1.7 1.6 2.1-1.25-.2-1.9-.2 1.15 1.5 1 1.85-.95-.4-1 1.25 1.05 2.2-3.3-2.25 1.9 4.3-3.05-.55 1.1 1.6.55 1.45-3.25-1.9.95 2.3.3 1.25-1.95-1.25.15 2.6-3.2-2.5.95 3.25-3.65-2.6 1.2 2.75.5 1.55-2.95-1.9v2.95l-2.05-1.7-.15 2.15Q8.9 22.75 8.5 22.75l-1.05-.45-.05 1.2-.15.9q-.45-.95-.85-1.15l-.35-.3-.45.2q-1 .45-1.9 1.5-1.15-1.5-1.9-1.5l-.4-.2-.35.3q-.4.3-.85 1.15l-.15-.9L0 22.3l-1.05.45q-.4 0-1.5 1.15l-.1-2.15-2.1 1.7V20.5l-2.85 1.9.4-1.55 1.25-2.75-2.45 1.7-1.15.9.15-.8.7-2.45-3.1 2.5.1-2.5 1.6-1.85-1 2.7 3.8-2.7-.7 2.7 2.8-2.6-.5 1.75 1.45-.85-1.45 3.5q1.25-1.2 1.95-1.4l-.2 3.15q1.65-2.1 2.55-4.2.55 2.45.4 3.25.7-1.25 1.45-3.9l.45 4.25L2 17.7l1.1 3.15.6-4.25.9 4.05.75-3.4.8 3.25.6-2.95 1.2 2.8.25-2.65 1.5 2.05.1-2.65.9 2.25q.4-.15.3-3.8l2.25 2.2-.15-3.15 2.95 2.15-1-3.25 4.3 1.8-2.2-3.6 4.25 1.25q-.85-1.4-3.2-3.6L15.95 7.4l4.95 2.1-5.2-4.55 3.65 1.1q3.85 1.3 5.05 2.4l-3.45-4.4L26.6 5.6l-2.85-3.65 3.3.6L23.85-1l2.8-.25-1.7-2.3 2.7-.3" fill="#2584b3" transform="translate(28.45 34.7)"/><path d="m.85-13.45.8.9.45-.8 1.75 2.45.7-4 .95 2.35 1.65-4.3.5 1.2L6.2-11.6l-.2-.1-.35-.15-.15-.05h-.05q-.6-.1-1.6 2.4-.7-2-1.35-2.25l.05-.05H2.4l.1.05-.75.1-.2.15-.7-1.95m16.1 15.2L16.6.8l1.85 3.1-2.35-.7q.25-.05.5-.3.45-.4.35-1.15M15.15-.8l-.75-.5.3-.55v-.1l-.45-.9L16-2.9l2.2.05-3.15-2.75q2.85 1 5.2 4.05-1-.7-3.2-.9.55.15 2.05 1.8-.3-.25-3.55-1.5l2.2 1.95-2.6-.6m-21.2 11.25.85-.85.75.05 1.25-.7V9q.6.85 1.85.15L-.25 8l.2.2.3.15-.3.4-3.2 3.5 1.6-2.55-2.7 1.6q.65-.7.9-1.8l-2.6.95m10.75.15-.25-2.25.55-.5.8.5-1.1 2.25m9.35-.15-1.55-.6.5 1.55-2.55-2.1.45 1.8-1.55-1.6-.15 2.15L7.6 8.3l-.45 3.2L5.8 8.35l.15.05q.8.25 1.45-.2l.15-.2 1.3 1.25q.8.5 1.4 0L10.6 9q.7.65 1.2.65.95.1 1.5-.55l.75 1.35m-.25 7.9.35-1.3 2.45 3.3-2.8-2m-11.95 4.8-.45-.2-.35.3q-.3.2-.85 1.15l-.15-.9L0 22.3l-1.05.45q-.45 0-1.45 1.15l-.25-2.15.7-.75.25 1.6Q0 21.05.05 20.55l.45 1.9q1.35-1.1 1.4-1.75l1.25 2.05.8-2 .6 2.2.6-2.05 1.6 1.45.3-1.65 1.5 1.4.35-1.85.95.85.4-1.45 1.35 2.15.15-3.35 1.55 1.7.4-1.4.95 2.1.45 1.55-2.9-1.9v2.95l-2.1-1.7-.15 2.15Q9 22.75 8.5 22.75l-1-.45-.25 2.1-.8-1.15-.4-.3-.45.2q-1 .45-1.9 1.5l-1.85-1.5m18.95-5.8.3 1.25-1.95-1.25.15 2.55-2.15-4.35 3.1.35.55 1.45m2.35-.4-1.5-.9.4.05-1.9-1.85 2.45 1.35.55 1.35" fill="#0c6791" transform="translate(28.45 34.7)"/><path d="M-11.45-33.8q-.2-.9.4-.9.65.05 1.3 1.05 1.75 2.8-.1 8.15-1.3 3.65-.35 4.35 3.7 2.7 3.9 4.3l-3.1.05-.15 2.7q-4.55-5.3-8.3-4.55-3.85 1.6-5.8 2.1-3.4.95-4.35-2.15-.85-3.1-.05-6.25.6-2.25 1.3-3.05v3.8q-.05 4.2 1.1 4.35 1.4.15 3-.45 1.35-.5 1.65-1-1.2-2.6-1.7-4.7-.75-3.15.25-4.65.2-.3 1.95 3.4 2 4.25 4.75 3.5 2.1-.55 3.55-4.4 1.25-3.5.75-5.65" fill="#1a171b" transform="translate(28.45 34.7)"/><path d="m-10.5-32.75-.05-.6.2.25q.55 1.25.55 2.85 0 2.05-.85 4.5-.8 2.35-.8 3.45 0 1.3.75 1.8 2.3 1.7 3.45 3.2l-2.4.2-.5 1.2q-4.55-4.3-7.85-3.6l-3.15 1.1q-3.7 1.7-4.95 1.1-.65-.35-1.05-1.6l-.45-3 .05-.45q.25 3.15 1.8 3.35 1.55.2 3.4-.5 1.65-.7 2.05-1.4l.15-.45-.55-1.6-1.25-3.25-.2-1.9.05-.65q2.85 6.8 6.55 5.85 2.25-.6 3.8-4.1 1.25-2.9 1.25-5.75" fill="#aec2d2" transform="translate(28.45 34.7)"/><path d="M-9.75-15.25q-4.45-5.1-8.05-4.3l-3.1 1.05q-3.9 1.75-5.25 1.1 3-.65 5.15-1.75l3.2-1.6q2.05-.55 4.7 1.1l3.4 2.6-.05 1.8" fill="#88a5bd" transform="translate(28.45 34.7)"/><path d="M-27.4-23.55q0 2.55.45 3.7l-.15 1.25-.2-.65q-.55-1.85-.55-2.95 0-1.55.5-3.3l-.05 1.95m5.2-5.5.25.75 1.35 2.75q-.5 1.35.05 2.95l-1.55-4-.15-1.9.05-.55m10.55 1.65q1.3-3.4 1.15-5.85.8 1.8.65 4-.25-.3-.55.65l-.9 2.5q-1.7 3.8-5.2 3.25 3.05-.05 4.85-4.55" fill="#fff" transform="translate(28.45 34.7)"/><path d="M33.5-28q.75.8 1.3 3.05.85 3.2-.05 6.25-.9 3.1-4.35 2.15-4.1-1.8-5.85-2.1-2.25-.45-5.5 2l-2.8 2.55-.1-2.7-3.15-.05.6-1.15q1-1.45 3.3-3.15.95-.65-.35-4.35-1.85-5.35-.1-8.15.65-1 1.3-1.05.6 0 .4.9-.5 2.15.75 5.65 1.4 3.85 3.55 4.4 2.8.75 4.85-3.5 1.75-3.65 1.9-3.4 1.05 1.6.3 4.65-.55 2.1-1.7 4.7.25.5 1.6 1 1.6.6 3.05.45 1.15-.15 1.1-4.35L33.5-28" fill="#1a171b" transform="translate(28.45 34.7)"/><path d="m28.7-26.2-1.2 3.25-.6 1.6.15.45q.4.7 2.1 1.4 1.75.7 3.4.5 1.55-.2 1.8-3.35l.05.45-.45 3q-.4 1.25-1.1 1.6-1.2.6-4.9-1.1l-3.2-1.1q-3.35-.7-7.9 3.6l-.45-1.2-2.45-.2q1.15-1.5 3.45-3.2.8-.55.8-1.8t-.85-3.45q-.85-2.45-.85-4.5 0-1.75.6-2.85l.15-.25-.05.6q0 2.8 1.3 5.75 1.55 3.5 3.8 4.1 3.85.95 6.5-5.85l.1.65-.2 1.9" fill="#aec2d2" transform="translate(28.45 34.7)"/><path d="M19.85-19.65q2.65-1.65 4.7-1.1l3.25 1.6q2.1 1.15 5.15 1.75-1.4.65-5.3-1.1l-3.15-1q-2.25-.45-5.35 1.85l-2.7 2.4-.05-1.8 3.45-2.6" fill="#88a5bd" transform="translate(28.45 34.7)"/><path d="m29-29.05.05.55-.25 1.9-.5 1.6q.2-.9-.55-1.1L29-29.05m-11.8-4.2q-.1 2.6.8 5.05-.85-1.85-1.45-1.05-.15-2.2.65-4m16.9 14-.25.65-.1-1.25q.4-1.2.4-3.7l-.05-1.95q.55 1.6.55 3.3 0 1.1-.55 2.95" fill="#fff" transform="translate(28.45 34.7)"/><path d="m15.3-18.75 2.45-2.05q.9-.85.2-3.25-1.5-4.8-1.4-5.55.15-1.05 1-.1l1.05 6q.8 2.3-.4 3l-2.9 1.95" fill="#fff" transform="translate(28.45 34.7)"/><path d="M21.45-20.35 25-21.2q1.95-.2 3.15-3.3-1.2 3.45-1.7 3.6-1.35.65-2.4.95-2.1.65-2.6-.4" fill="#88a5bd" transform="translate(28.45 34.7)"/><path d="M-23.9-.5Q-20-.1-12.2-2l-.6 2.5q1.4.65 1.35 1l-.55.75q-5.25 6.2-6.35 5.55-.8-.4-.65-1.55l1.9-3.5-5.55-.4q-3.3-.75-3.1-1.95.35-1.05 1.85-.9" fill="#1a171b" transform="translate(28.45 34.7)"/><path d="m-13.05.75.9.65-.35.4-2.75 3.05q-2.3 2.5-2.7 2.2-.45-.2.6-2.3l1.2-2.55-5.35-.4q-4.25-.4-2.95-1.55 4.05.4 11.8-1.45l-.4 1.95" fill="#aec2d2" transform="translate(28.45 34.7)"/><path d="M-23.55 1.35Q-25.05.7-24.8.4l3.35-.2q1.95.05 8.8-1.4l-10.9 2.55" fill="#fff" transform="translate(28.45 34.7)"/><path d="m-19.7 1.75 2.7-.15q2.95-.35 4.05-1.2l-.1.5-3.15 2.05q.15-.85-3.5-1.2" fill="#88a5bd" transform="translate(28.45 34.7)"/><path d="M-15.25 2.8q1-1.4 2.3-2.05l.7.8Q-13.7 3.6-16.8 6.5q.95-1.25 1.05-2.15.05-.95.5-1.55" fill="#88a5bd" transform="translate(28.45 34.7)"/><path d="M-17.95 7.2q-.25.05-.1-.7.2-1 1.05-2.1-.6 2.7-.95 2.8" fill="#fff" transform="translate(28.45 34.7)"/><path d="M30.7-.85q1.5-.15 1.8.9.2 1.15-3.05 1.9L24 2.4l1.85 3.45q.15 1.2-.6 1.6-.7.4-3.45-2.5L19 1.9l-.6-.8q-.05-.35 1.35-1l-.6-2.5 4.35.9 7.2.65" fill="#1a171b" transform="translate(28.45 34.7)"/><path d="M31.25-.1Q32.4 1 28.3 1.4l-5.25.4q2.6 4.5 1.8 4.95-.45.2-2.7-2.2l-2.7-3.1-.3-.4L20 .4l-.4-1.95 4.35.85 7.3.6" fill="#aec2d2" transform="translate(28.45 34.7)"/><path d="m28.25-.2 3.35.2q.2.35-1.25.95Q29 .25 19.6-1.55L28.25-.2" fill="#fff" transform="translate(28.45 34.7)"/><path d="M26.55 1.35q-2.25.2-3.05.8l-.4.5L20 .55 19.9 0q1.8 1.4 6.65 1.35" fill="#88a5bd" transform="translate(28.45 34.7)"/><path d="m22.2 2.45.45 1.5q.1.9 1.05 2.2-3-2.9-4.5-5l.7-.75 2.3 2.05" fill="#88a5bd" transform="translate(28.45 34.7)"/><path d="M24.8 6.85q-.4-.1-.9-2.8.8 1.1 1 2.05.15.8-.1.75" fill="#fff" transform="translate(28.45 34.7)"/></g></defs></svg>