<?xml version="1.0" encoding="UTF-8" standalone="no"?>
<svg xmlns:xlink="http://www.w3.org/1999/xlink" height="82.0px" width="84.85px" xmlns="http://www.w3.org/2000/svg">
  <g transform="matrix(1.0, 0.0, 0.0, 1.0, 37.4, 42.25)">
    <use height="38.0" transform="matrix(1.0, 0.0, 0.0, 1.0, -11.95, -17.45)" width="32.05" xlink:href="#sprite0"/>
    <use height="38.95" transform="matrix(1.0, 0.0, 0.0, 1.0, -12.45, -17.95)" width="33.05" xlink:href="#sprite1"/>
    <use height="8.0" transform="matrix(1.0, 0.0, 0.0, 1.0, -13.1, 0.75)" width="34.5" xlink:href="#sprite2"/>
    <use height="7.85" transform="matrix(1.0, 0.0, 0.0, 1.0, -12.8, 18.35)" width="32.85" xlink:href="#sprite3"/>
    <use height="19.45" transform="matrix(1.0, 0.0, 0.0, 1.0, -15.65, 1.4)" width="38.6" xlink:href="#sprite4"/>
    <use height="18.1" transform="matrix(1.0, 0.0, 0.0, 1.0, -14.65, 3.15)" width="28.9" xlink:href="#sprite5"/>
    <use height="15.9" transform="matrix(1.0, 0.0, 0.0, 1.0, 5.35, 3.4)" width="14.8" xlink:href="#sprite6"/>
    <use height="14.05" transform="matrix(1.0, 0.0, 0.0, 1.0, 14.5, 2.9)" width="7.95" xlink:href="#sprite7"/>
    <use height="8.35" transform="matrix(1.0, 0.0, 0.0, 1.0, -12.85, 1.15)" width="20.2" xlink:href="#sprite8"/>
    <use height="8.4" transform="matrix(1.0, 0.0, 0.0, 1.0, 0.35, 1.25)" width="20.45" xlink:href="#sprite9"/>
    <use height="4.95" transform="matrix(1.0, 0.0, 0.0, 1.0, -11.4, 17.05)" width="30.3" xlink:href="#sprite10"/>
    <use height="4.7" transform="matrix(1.0, 0.0, 0.0, 1.0, -11.0, 16.7)" width="29.25" xlink:href="#sprite11"/>
    <use height="2.35" transform="matrix(1.0, 0.0, 0.0, 1.0, -10.7, 17.2)" width="13.3" xlink:href="#sprite12"/>
    <use height="2.9" transform="matrix(1.0, 0.0, 0.0, 1.0, -11.0, 16.95)" width="10.15" xlink:href="#sprite13"/>
    <use height="2.9" transform="matrix(1.0, 0.0, 0.0, 1.0, 13.1, 17.0)" width="5.1" xlink:href="#sprite14"/>
    <use height="9.95" transform="matrix(1.0, 0.0, 0.0, 1.0, -3.55, 8.2)" width="14.4" xlink:href="#sprite15"/>
    <use height="4.3" transform="matrix(1.0, 0.0, 0.0, 1.0, 1.5, 17.15)" width="16.65" xlink:href="#sprite16"/>
    <use height="7.75" transform="matrix(1.0, 0.0, 0.0, 1.0, -11.7, 17.45)" width="30.85" xlink:href="#sprite17"/>
    <use height="7.15" transform="matrix(1.0, 0.0, 0.0, 1.0, -11.35, 17.55)" width="29.95" xlink:href="#sprite18"/>
    <use height="3.75" transform="matrix(1.0, 0.0, 0.0, 1.0, -12.6, 1.4)" width="6.85" xlink:href="#sprite19"/>
    <use height="4.5" transform="matrix(1.0, 0.0, 0.0, 1.0, -12.5, 1.4)" width="8.75" xlink:href="#sprite20"/>
  </g>
  <defs>
    <g id="sprite0" transform="matrix(1.0, 0.0, 0.0, 1.0, -0.05, 0.0)">
      <use height="38.0" transform="matrix(1.0, 0.0, 0.0, 1.0, 0.05, 0.0)" width="32.05" xlink:href="#shape0"/>
    </g>
    <g id="shape0" transform="matrix(1.0, 0.0, 0.0, 1.0, -0.05, 0.0)">
      <path d="M27.35 7.4 Q29.5 11.55 30.9 16.15 32.35 20.85 32.05 25.65 31.7 30.6 27.85 33.75 24.05 36.95 19.1 37.8 L16.5 38.0 Q12.9 38.0 9.45 36.85 4.8 35.25 2.35 31.35 -0.2 27.4 0.05 23.0 0.25 18.6 2.05 13.7 3.85 8.75 7.0 5.05 10.1 1.3 14.7 0.1 L16.5 0.0 Q18.4 0.05 20.2 0.8 24.95 2.85 27.35 7.4" fill="#ffffff" fill-rule="evenodd" stroke="none"/>
    </g>
    <g id="sprite1" transform="matrix(1.0, 0.0, 0.0, 1.0, 0.45, 0.5)">
      <use height="38.95" transform="matrix(1.0, 0.0, 0.0, 1.0, -0.45, -0.5)" width="33.05" xlink:href="#shape1"/>
    </g>
    <g id="shape1" transform="matrix(1.0, 0.0, 0.0, 1.0, 0.45, 0.5)">
      <path d="M27.35 7.4 Q24.95 2.85 20.2 0.8 17.55 -0.3 14.7 0.1 10.1 1.3 7.0 5.05 3.85 8.75 2.05 13.7 0.25 18.6 0.05 23.0 -0.2 27.4 2.35 31.35 4.8 35.25 9.45 36.85 14.1 38.4 19.1 37.8 24.05 36.95 27.85 33.75 31.7 30.6 32.05 25.65 32.35 20.85 30.9 16.15 29.5 11.55 27.35 7.4 Z" fill="none" stroke="#000000" stroke-linecap="round" stroke-linejoin="round" stroke-width="1.0"/>
    </g>
    <g id="sprite2" transform="matrix(1.0, 0.0, 0.0, 1.0, 0.0, 0.0)">
      <use height="8.0" transform="matrix(1.0, 0.0, 0.0, 1.0, 0.0, 0.0)" width="34.5" xlink:href="#shape2"/>
    </g>
    <g id="shape2" transform="matrix(1.0, 0.0, 0.0, 1.0, 0.0, 0.0)">
      <path d="M0.3 3.15 L0.0 1.6 Q-0.1 0.05 0.85 0.0 1.55 0.0 6.0 2.65 9.4 4.65 12.95 5.9 L18.5 6.6 18.4 8.0 13.6 7.65 2.4 3.1 0.3 3.15" fill="#000000" fill-rule="evenodd" stroke="none"/>
      <path d="M33.55 0.0 Q35.1 0.05 34.1 3.15 L32.0 3.1 20.8 7.65 16.0 8.0 15.9 6.6 Q18.85 6.7 21.45 5.9 24.85 4.95 28.4 2.9 L30.85 1.15 Q32.6 -0.05 33.55 0.0" fill="#000000" fill-rule="evenodd" stroke="none"/>
    </g>
    <g id="sprite3" transform="matrix(1.0, 0.0, 0.0, 1.0, 0.0, -0.1)">
      <use height="7.85" transform="matrix(1.0, 0.0, 0.0, 1.0, 0.0, 0.1)" width="32.85" xlink:href="#shape3"/>
    </g>
    <g id="shape3" transform="matrix(1.0, 0.0, 0.0, 1.0, 0.0, -0.1)">
      <path d="M32.3 1.6 L32.4 2.15 32.15 2.6 31.85 3.2 Q31.85 3.35 32.2 3.45 33.0 3.65 32.85 4.35 L32.4 5.3 Q32.85 5.45 32.65 6.05 L31.95 6.8 30.75 7.2 29.35 7.35 27.25 7.5 25.35 7.6 22.1 7.65 19.05 7.6 17.95 7.3 17.55 7.05 17.7 6.7 18.0 6.15 17.75 5.75 16.65 5.6 Q15.85 5.6 15.8 6.1 L15.95 6.65 15.9 7.25 Q15.8 7.9 15.35 7.95 L14.5 7.9 13.65 7.8 7.1 7.4 3.2 7.45 0.8 7.35 0.2 7.05 0.05 6.95 0.0 6.7 Q0.0 6.35 0.45 5.8 L0.9 4.7 Q0.6 4.0 0.7 3.6 0.8 3.25 1.6 2.85 L2.5 2.2 2.55 1.7 2.5 1.1 Q2.5 0.15 2.8 0.25 L2.75 0.3 3.55 0.45 4.4 0.5 7.95 1.2 16.05 2.05 20.8 1.9 23.05 1.6 24.8 1.2 27.2 0.6 28.75 0.1 30.85 0.15 31.6 0.75 32.3 1.6" fill="#000000" fill-rule="evenodd" stroke="none"/>
    </g>
    <g id="sprite4" transform="matrix(1.0, 0.0, 0.0, 1.0, 0.0, 0.0)">
      <use height="19.45" transform="matrix(1.0, 0.0, 0.0, 1.0, 0.0, 0.0)" width="38.6" xlink:href="#shape4"/>
    </g>
    <g id="shape4" transform="matrix(1.0, 0.0, 0.0, 1.0, 0.0, 0.0)">
      <path d="M3.4 0.35 L4.25 3.25 Q5.3 4.35 5.35 4.75 L5.3 6.8 Q4.95 10.25 3.4 10.1 2.95 10.05 0.5 7.4 -0.35 6.45 0.25 5.45 L2.1 3.4 3.4 0.35" fill="#000000" fill-rule="evenodd" stroke="none"/>
      <path d="M34.8 0.35 Q35.15 1.15 37.7 3.7 39.5 5.4 37.75 7.4 35.3 10.05 34.85 10.1 33.25 10.25 32.9 6.8 L32.9 4.75 Q32.95 4.3 34.0 3.25 L34.8 0.35" fill="#000000" fill-rule="evenodd" stroke="none"/>
      <path d="M35.25 0.45 Q37.25 -0.05 35.55 2.55 35.7 4.5 35.35 8.3 L35.1 11.75 Q34.15 15.65 34.35 15.6 28.05 19.0 20.65 19.45 L10.3 18.65 Q4.3 17.65 4.4 16.85 5.2 14.9 5.1 14.0 L4.85 11.3 4.0 8.1 Q2.85 3.35 3.1 1.8 L2.6 0.7 Q2.35 -0.2 3.55 0.1 12.75 6.2 20.0 6.45 26.05 6.65 30.95 3.65 34.85 0.55 35.25 0.45" fill="#000000" fill-rule="evenodd" stroke="none"/>
    </g>
    <g id="sprite5" transform="matrix(1.0, 0.0, 0.0, 1.0, 0.0, 0.0)">
      <use height="18.1" transform="matrix(1.0, 0.0, 0.0, 1.0, 0.0, 0.0)" width="28.9" xlink:href="#shape5"/>
    </g>
    <g id="shape5" transform="matrix(1.0, 0.0, 0.0, 1.0, 0.0, 0.0)">
      <path d="M26.75 4.1 L27.2 8.8 28.9 15.5 Q28.4 15.45 27.4 16.2 L24.95 16.45 22.7 17.65 16.05 18.1 11.55 16.9 8.6 15.75 Q5.1 15.0 4.6 14.05 L4.6 10.5 Q4.6 6.9 3.6 6.9 3.35 6.9 2.9 7.4 2.65 7.6 1.9 7.4 1.35 7.35 0.9 6.15 -0.35 4.0 0.15 3.1 L2.15 0.95 1.9 1.15 2.65 0.0 6.1 2.4 13.65 4.9 22.25 5.3 26.75 4.1" fill="#003300" fill-rule="evenodd" stroke="none"/>
    </g>
    <g id="sprite6" transform="matrix(1.0, 0.0, 0.0, 1.0, 0.0, 0.0)">
      <use height="15.9" transform="matrix(1.0, 0.0, 0.0, 1.0, 0.0, 0.0)" width="14.8" xlink:href="#shape6"/>
    </g>
    <g id="shape6" transform="matrix(1.0, 0.0, 0.0, 1.0, 0.0, 0.0)">
      <path d="M12.4 0.0 Q16.35 0.0 13.85 6.4 L13.35 10.75 Q13.1 13.55 11.9 14.3 8.9 16.4 0.75 15.75 L0.75 10.5 0.0 4.75 1.95 5.0 Q2.2 4.75 7.2 2.6 L12.4 0.0" fill="#002200" fill-rule="evenodd" stroke="none"/>
    </g>
    <g id="sprite7" transform="matrix(1.0, 0.0, 0.0, 1.0, 0.0, 0.0)">
      <use height="14.05" transform="matrix(1.0, 0.0, 0.0, 1.0, 0.0, 0.0)" width="7.95" xlink:href="#shape7"/>
    </g>
    <g id="shape7" transform="matrix(1.0, 0.0, 0.0, 1.0, 0.0, 0.0)">
      <path d="M6.0 6.0 L3.45 8.6 3.45 10.5 Q3.7 11.2 3.45 12.4 3.0 13.35 0.0 14.05 L1.25 7.15 Q1.75 3.1 3.25 1.65 L4.2 0.0 6.0 2.15 Q6.95 3.8 7.95 3.8 L7.2 5.0 6.0 6.0" fill="#001100" fill-rule="evenodd" stroke="none"/>
    </g>
    <g id="sprite8" transform="matrix(1.0, 0.0, 0.0, 1.0, 0.0, 0.0)">
      <use height="8.35" transform="matrix(1.0, 0.0, 0.0, 1.0, 0.0, 0.0)" width="20.2" xlink:href="#shape8"/>
    </g>
    <g id="shape8" transform="matrix(1.0, 0.0, 0.0, 1.0, 0.0, 0.0)">
      <path d="M20.0 7.6 Q21.05 8.35 16.7 8.35 12.55 8.35 7.05 5.85 3.5 4.25 1.45 2.8 0.05 1.8 0.0 0.75 -0.05 -0.65 1.95 0.6 5.3 2.75 7.75 4.0 13.6 6.8 16.8 6.8 18.95 6.8 20.0 7.6" fill="#679151" fill-rule="evenodd" stroke="none"/>
    </g>
    <g id="sprite9" transform="matrix(1.0, 0.0, 0.0, 1.0, 0.0, 0.0)">
      <use height="8.4" transform="matrix(1.0, 0.0, 0.0, 1.0, 0.0, 0.0)" width="20.45" xlink:href="#shape9"/>
    </g>
    <g id="shape9" transform="matrix(1.0, 0.0, 0.0, 1.0, 0.0, 0.0)">
      <path d="M3.4 8.4 Q-0.85 8.2 0.2 7.4 1.25 6.6 4.6 6.65 7.95 6.7 12.75 4.4 L18.5 0.55 Q20.55 -0.7 20.45 0.95 20.4 2.05 19.0 3.0 17.05 4.4 13.3 6.05 7.65 8.55 3.4 8.4" fill="#50703f" fill-rule="evenodd" stroke="none"/>
    </g>
    <g id="sprite10" transform="matrix(1.0, 0.0, 0.0, 1.0, 0.0, 0.0)">
      <use height="4.95" transform="matrix(1.0, 0.0, 0.0, 1.0, 0.0, 0.0)" width="30.3" xlink:href="#shape10"/>
    </g>
    <g id="shape10" transform="matrix(1.0, 0.0, 0.0, 1.0, 0.0, 0.0)">
      <path d="M30.25 1.65 Q29.7 2.9 24.15 3.95 18.6 5.1 12.7 4.9 6.75 4.7 4.1 3.6 L0.3 2.0 Q-0.1 1.2 0.05 0.85 L1.25 0.0 1.8 0.85 6.75 1.7 15.25 1.95 29.85 0.0 Q30.5 0.95 30.25 1.65" fill="#001100" fill-rule="evenodd" stroke="none"/>
    </g>
    <g id="sprite11" transform="matrix(1.0, 0.0, 0.0, 1.0, 0.0, 0.0)">
      <use height="4.7" transform="matrix(1.0, 0.0, 0.0, 1.0, 0.0, 0.0)" width="29.25" xlink:href="#shape11"/>
    </g>
    <g id="shape11" transform="matrix(1.0, 0.0, 0.0, 1.0, 0.0, 0.0)">
      <path d="M17.8 2.1 L17.8 4.5 11.4 4.7 9.7 4.5 4.0 3.5 Q2.7 3.2 1.2 2.3 L0.0 1.4 0.8 0.25 5.1 1.45 9.85 1.85 9.85 1.8 15.75 1.8 17.8 2.1 M25.2 1.0 Q27.65 0.6 28.85 0.0 L29.25 1.7 Q28.4 2.45 26.35 3.0 L20.75 4.1 20.75 4.15 18.95 4.45 18.05 4.5 Q18.4 3.85 18.45 1.85 L19.3 1.6 25.2 1.0" fill="#487548" fill-rule="evenodd" stroke="none"/>
    </g>
    <g id="sprite12" transform="matrix(1.0, 0.0, 0.0, 1.0, 0.0, 0.0)">
      <use height="2.35" transform="matrix(1.0, 0.0, 0.0, 1.0, 0.0, 0.0)" width="13.3" xlink:href="#shape12"/>
    </g>
    <g id="shape12" transform="matrix(1.0, 0.0, 0.0, 1.0, 0.0, 0.0)">
      <path d="M13.3 1.35 L13.05 1.75 Q12.85 2.35 6.9 2.35 L1.2 1.4 0.95 1.7 0.05 1.25 0.0 0.95 0.6 0.0 1.3 0.05 6.75 1.2 13.3 1.35" fill="#5a925a" fill-rule="evenodd" stroke="none"/>
    </g>
    <g id="sprite13" transform="matrix(1.0, 0.0, 0.0, 1.0, 0.0, 0.0)">
      <use height="2.9" transform="matrix(1.0, 0.0, 0.0, 1.0, 0.0, 0.0)" width="10.15" xlink:href="#shape13"/>
    </g>
    <g id="shape13" transform="matrix(1.0, 0.0, 0.0, 1.0, 0.0, 0.0)">
      <path d="M2.1 1.25 L2.95 1.55 2.95 2.9 2.05 2.35 2.1 1.25" fill="#6aa46a" fill-rule="evenodd" stroke="none"/>
      <path d="M0.8 0.0 L4.75 1.15 10.15 1.6 Q8.75 2.1 5.1 1.7 L1.0 0.8 0.5 1.55 0.0 1.15 0.8 0.0" fill="#6aa46a" fill-rule="evenodd" stroke="none"/>
    </g>
    <g id="sprite14" transform="matrix(1.0, 0.0, 0.0, 1.0, 0.0, 0.0)">
      <use height="2.9" transform="matrix(1.0, 0.0, 0.0, 1.0, 0.0, 0.0)" width="5.1" xlink:href="#shape14"/>
    </g>
    <g id="shape14" transform="matrix(1.0, 0.0, 0.0, 1.0, 0.0, 0.0)">
      <path d="M3.05 0.6 L4.85 0.0 5.1 1.4 Q4.45 2.0 3.55 2.3 L1.3 2.9 0.0 1.15 3.05 0.6" fill="#3d633d" fill-rule="evenodd" stroke="none"/>
    </g>
    <g id="sprite15" transform="matrix(1.0, 0.0, 0.0, 1.0, 0.0, 0.0)">
      <use height="9.95" transform="matrix(1.0, 0.0, 0.0, 1.0, 0.0, 0.0)" width="14.4" xlink:href="#shape15"/>
    </g>
    <g id="shape15" transform="matrix(1.0, 0.0, 0.0, 1.0, 0.0, 0.0)">
      <path d="M3.65 4.85 Q3.5 5.25 3.5 5.55 3.5 7.25 5.6 8.0 L3.6 9.8 Q1.95 9.25 0.9 8.05 L0.75 7.9 0.75 7.85 0.0 5.25 3.65 4.85 M7.15 0.0 L7.5 0.0 Q9.45 0.1 10.95 0.85 L9.55 3.4 Q8.55 2.85 7.25 2.85 6.0 2.85 5.05 3.35 L3.7 0.85 7.15 0.0 M14.4 5.4 L13.65 7.95 13.55 8.05 13.5 8.15 13.45 8.2 Q12.4 9.35 10.75 9.95 L8.7 8.05 Q11.0 7.35 11.0 5.55 L10.9 5.0 14.4 5.4" fill="#60ff47" fill-rule="evenodd" stroke="none"/>
      <path d="M9.3 5.55 Q9.3 7.05 7.25 7.05 5.15 7.05 5.15 5.55 5.15 4.05 7.25 4.05 9.3 4.05 9.3 5.55" fill="#60ff47" fill-rule="evenodd" stroke="none"/>
    </g>
    <g id="sprite16" transform="matrix(1.0, 0.0, 0.0, 1.0, 0.0, 0.0)">
      <use height="4.3" transform="matrix(1.0, 0.0, 0.0, 1.0, 0.0, 0.0)" width="16.65" xlink:href="#shape16"/>
    </g>
    <g id="shape16" transform="matrix(1.0, 0.0, 0.0, 1.0, 0.0, 0.0)">
      <path d="M7.8 1.0 L8.8 1.0 9.2 3.3 8.1 3.6 7.8 1.0" fill="#325032" fill-rule="evenodd" stroke="none"/>
      <path d="M16.15 0.0 L16.65 1.4 15.8 1.95 14.8 2.3 13.55 0.6 15.2 0.3 16.15 0.0" fill="#325032" fill-rule="evenodd" stroke="none"/>
      <path d="M4.4 1.65 L1.15 1.95 1.15 4.0 Q3.8 4.0 4.4 3.4 4.7 3.15 4.4 1.65 M5.3 1.35 L5.3 4.15 4.7 4.3 0.3 4.3 0.0 1.35 5.3 1.35" fill="#325032" fill-rule="evenodd" stroke="none"/>
    </g>
    <g id="sprite17" transform="matrix(1.0, 0.0, 0.0, 1.0, 0.0, 0.0)">
      <use height="7.75" transform="matrix(1.0, 0.0, 0.0, 1.0, 0.0, 0.0)" width="30.85" xlink:href="#shape17"/>
    </g>
    <g id="shape17" transform="matrix(1.0, 0.0, 0.0, 1.0, 0.0, 0.0)">
      <path d="M30.85 5.35 L30.6 5.9 30.2 6.45 30.55 6.85 29.2 7.25 27.6 7.5 24.45 7.6 20.9 7.75 17.9 7.55 Q17.35 7.55 17.4 7.3 L17.65 6.75 Q17.75 6.15 17.5 5.95 L16.75 5.85 15.15 6.0 Q14.1 6.25 13.95 6.55 L13.3 7.7 11.85 7.6 10.1 7.5 7.65 7.35 5.45 7.25 2.35 7.35 1.5 7.3 0.0 7.0 0.65 5.8 0.45 5.05 Q0.15 4.65 0.2 4.5 L1.25 3.75 1.75 3.35 2.05 2.9 2.7 2.55 4.4 3.25 12.05 4.4 24.45 3.35 Q28.25 2.8 29.75 2.05 L30.25 2.7 Q30.6 3.15 30.45 3.35 L29.85 3.8 Q29.4 4.2 29.5 4.6 29.65 5.0 30.15 5.1 30.8 5.25 30.85 5.35" fill="#68aa68" fill-rule="evenodd" stroke="none"/>
      <path d="M5.45 1.1 L5.45 2.75 5.7 3.55 5.2 3.45 Q4.85 2.95 4.85 2.25 L4.9 0.55 5.05 0.3 5.65 0.45 5.45 1.1" fill="#68aa68" fill-rule="evenodd" stroke="none"/>
      <path d="M25.7 0.8 L25.5 0.15 26.1 0.0 26.25 0.25 26.35 1.95 Q26.35 2.6 25.95 3.15 L25.45 3.25 25.75 2.45 25.7 0.8" fill="#68aa68" fill-rule="evenodd" stroke="none"/>
    </g>
    <g id="sprite18" transform="matrix(1.0, 0.0, 0.0, 1.0, 0.0, 0.0)">
      <use height="7.15" transform="matrix(1.0, 0.0, 0.0, 1.0, 0.0, 0.0)" width="29.95" xlink:href="#shape18"/>
    </g>
    <g id="shape18" transform="matrix(1.0, 0.0, 0.0, 1.0, 0.0, 0.0)">
      <path d="M10.5 7.1 L7.9 6.85 5.25 6.65 3.85 6.5 2.75 6.35 2.95 6.3 Q2.65 6.35 2.65 5.5 2.8 4.9 3.55 5.1 L4.5 5.65 5.95 6.2 9.9 6.7 12.6 6.9 11.65 7.15 10.5 7.1" fill="#487548" fill-rule="evenodd" stroke="none"/>
      <path d="M24.05 6.65 L21.0 6.8 17.7 7.05 21.15 6.05 23.75 5.5 25.1 5.4 27.2 5.3 Q27.8 5.6 27.6 5.95 27.45 6.2 26.75 6.25 L24.05 6.65" fill="#487548" fill-rule="evenodd" stroke="none"/>
      <path d="M1.0 4.25 L0.75 4.35 2.7 4.75 Q2.7 5.5 0.55 5.2 0.1 5.1 0.0 4.6 0.0 4.25 1.0 4.25" fill="#487548" fill-rule="evenodd" stroke="none"/>
      <path d="M25.4 2.35 L25.1 3.15 25.6 3.05 Q26.0 2.5 26.0 1.85 L25.9 0.15 25.85 0.05 26.2 0.0 Q26.6 1.25 26.4 2.6 26.35 2.9 25.45 3.25 L24.55 3.25 24.85 2.85 24.9 1.05 Q24.9 0.3 24.7 0.15 L25.15 0.1 25.35 0.7 25.4 2.35" fill="#487548" fill-rule="evenodd" stroke="none"/>
      <path d="M5.1 1.0 L5.3 0.4 5.8 0.45 Q5.6 0.55 5.6 1.35 L5.6 3.2 5.9 3.55 5.05 3.55 Q4.1 3.2 4.05 2.9 4.05 1.2 4.3 0.3 L4.65 0.35 4.55 0.45 4.5 2.15 Q4.5 2.85 4.85 3.35 L5.35 3.45 5.1 2.65 5.1 1.0" fill="#487548" fill-rule="evenodd" stroke="none"/>
      <path d="M22.2 4.9 L20.6 5.0 18.65 4.95 17.35 4.65 Q17.15 4.4 17.4 4.15 L17.45 4.1 18.15 4.1 18.95 4.2 21.05 4.45 22.5 4.5 25.65 4.35 22.2 4.9" fill="#487548" fill-rule="evenodd" stroke="none"/>
      <path d="M11.75 4.3 L13.9 4.3 Q17.55 5.55 17.2 5.7 L11.65 5.1 6.7 4.4 5.8 3.45 11.75 4.3" fill="#487548" fill-rule="evenodd" stroke="none"/>
      <path d="M27.55 2.9 Q30.0 2.8 29.95 3.2 29.9 3.6 29.2 3.6 L24.95 3.2 27.55 2.9" fill="#487548" fill-rule="evenodd" stroke="none"/>
    </g>
    <g id="sprite19" transform="matrix(1.0, 0.0, 0.0, 1.0, 0.0, -0.15)">
      <use height="3.75" transform="matrix(1.0, 0.0, 0.0, 1.0, 0.0, 0.15)" width="6.85" xlink:href="#shape19"/>
    </g>
    <g id="shape19" transform="matrix(1.0, 0.0, 0.0, 1.0, 0.0, -0.15)">
      <path d="M1.85 0.7 L6.85 3.75 3.3 3.9 1.8 3.15 0.15 1.55 Q-0.1 1.0 0.15 0.15 L1.1 0.2 1.85 0.7" fill="#79ab5f" fill-rule="evenodd" stroke="none"/>
    </g>
    <g id="sprite20" transform="matrix(1.0, 0.0, 0.0, 1.0, 0.0, 0.0)">
      <use height="4.5" transform="matrix(1.0, 0.0, 0.0, 1.0, 0.0, 0.0)" width="8.75" xlink:href="#shape20"/>
    </g>
    <g id="shape20" transform="matrix(1.0, 0.0, 0.0, 1.0, 0.0, 0.0)">
      <path d="M0.65 0.0 L3.0 1.3 8.75 4.5 0.45 0.85 0.0 0.25 0.65 0.0" fill="#b8d4c3" fill-rule="evenodd" stroke="none"/>
    </g>
  </defs>
</svg>
