<?xml version="1.0" encoding="UTF-8" standalone="no"?>
<svg xmlns:xlink="http://www.w3.org/1999/xlink" height="82.0px" width="84.85px" xmlns="http://www.w3.org/2000/svg">
  <g transform="matrix(1.0, 0.0, 0.0, 1.0, 37.4, 42.25)">
    <use height="38.0" transform="matrix(1.0, 0.0, 0.0, 1.0, -11.95, -17.45)" width="32.05" xlink:href="#sprite0"/>
    <use height="21.6" transform="matrix(1.0, 0.0, 0.0, 1.0, -12.25, -17.95)" width="32.65" xlink:href="#sprite1"/>
    <use height="29.25" transform="matrix(1.0, 0.0, 0.0, 1.0, -19.15, 2.4)" width="23.9" xlink:href="#sprite2"/>
    <use height="29.25" transform="matrix(-1.0, 0.0, 0.0, 1.0, 27.45, 2.4)" width="23.9" xlink:href="#sprite2"/>
    <use height="12.1" transform="matrix(1.0, 0.0, 0.0, 1.0, -11.7, 13.05)" width="31.55" xlink:href="#shape3"/>
    <use height="6.55" transform="matrix(1.0, 0.0, 0.0, 1.0, -1.5, 22.4)" width="7.15" xlink:href="#sprite3"/>
    <use height="8.4" transform="matrix(1.0, 0.0, 0.0, 1.0, -14.3, 18.9)" width="10.05" xlink:href="#sprite4"/>
    <use height="6.55" transform="matrix(1.0, 0.0, 0.0, 1.0, -16.25, 18.2)" width="7.15" xlink:href="#sprite3"/>
  </g>
  <defs>
    <g id="sprite0" transform="matrix(1.0, 0.0, 0.0, 1.0, -0.05, 0.0)">
      <use height="38.0" transform="matrix(1.0, 0.0, 0.0, 1.0, 0.05, 0.0)" width="32.05" xlink:href="#shape0"/>
    </g>
    <g id="shape0" transform="matrix(1.0, 0.0, 0.0, 1.0, -0.05, 0.0)">
      <path d="M27.35 7.4 Q29.5 11.55 30.9 16.15 32.35 20.85 32.05 25.65 31.7 30.6 27.85 33.75 24.05 36.95 19.1 37.8 L16.5 38.0 Q12.9 38.0 9.45 36.85 4.8 35.25 2.35 31.35 -0.2 27.4 0.05 23.0 0.25 18.6 2.05 13.7 3.85 8.75 7.0 5.05 10.1 1.3 14.7 0.1 L16.5 0.0 Q18.4 0.05 20.2 0.8 24.95 2.85 27.35 7.4" fill="#ffffff" fill-rule="evenodd" stroke="none"/>
    </g>
    <g id="sprite1" transform="matrix(1.0, 0.0, 0.0, 1.0, 0.25, 0.5)">
      <use height="21.6" transform="matrix(1.0, 0.0, 0.0, 1.0, -0.25, -0.5)" width="32.65" xlink:href="#shape1"/>
    </g>
    <g id="shape1" transform="matrix(1.0, 0.0, 0.0, 1.0, 0.25, 0.5)">
      <path d="M31.9 20.6 Q31.6 18.35 30.9 16.15 29.5 11.55 27.35 7.4 24.95 2.85 20.2 0.8 17.55 -0.3 14.7 0.1 10.1 1.3 7.0 5.05 3.85 8.75 2.05 13.7 0.7 17.3 0.25 20.6" fill="none" stroke="#000000" stroke-linecap="round" stroke-linejoin="round" stroke-width="1.0"/>
    </g>
    <g id="sprite2" transform="matrix(1.0, 0.0, 0.0, 1.0, 0.5, 0.5)">
      <use height="29.25" transform="matrix(1.0, 0.0, 0.0, 1.0, -0.5, -0.5)" width="23.9" xlink:href="#shape2"/>
    </g>
    <g id="shape2" transform="matrix(1.0, 0.0, 0.0, 1.0, 0.5, 0.5)">
      <path d="M22.9 11.0 Q22.05 9.4 20.2 8.7 18.6 8.1 17.15 8.95 L14.9 10.4 Q14.4 8.55 12.75 7.7 L9.95 6.2 17.25 5.95 Q20.2 6.45 22.9 7.55 L22.9 11.0" fill="#0195d3" fill-rule="evenodd" stroke="none"/>
      <path d="M22.9 23.95 L21.45 22.95 21.4 23.15 Q19.85 24.1 18.05 23.4 L17.7 23.15 17.35 22.25 Q16.5 23.0 15.3 23.15 13.65 23.25 13.2 21.9 L10.9 22.3 9.8 21.5 9.75 20.15 Q9.15 20.75 8.25 20.75 7.5 20.75 7.05 20.2 6.5 19.45 6.75 18.65 3.85 20.0 1.75 17.6 L2.8 16.35 Q5.3 13.35 8.55 11.1 L9.25 10.6 Q7.55 7.25 7.0 3.5 6.75 1.75 6.75 0.0 L9.25 3.55 Q9.95 4.85 9.95 6.2 L12.75 7.7 Q14.4 8.55 14.9 10.4 L17.15 8.95 Q18.6 8.1 20.2 8.7 22.05 9.4 22.9 11.0 L22.9 13.1 21.95 13.35 21.75 13.3 22.9 13.95 22.9 23.95 M18.65 13.05 L11.2 11.3 9.8 10.85 13.7 12.35 Q16.35 13.2 19.2 13.45 L20.55 13.2 18.65 13.05" fill="#ffffff" fill-rule="evenodd" stroke="none"/>
      <path d="M1.75 17.6 Q3.85 20.0 6.75 18.65 6.5 19.45 7.05 20.2 7.5 20.75 8.25 20.75 9.15 20.75 9.75 20.15 L9.8 21.5 10.9 22.3 13.2 21.9 Q13.65 23.25 15.3 23.15 16.5 23.0 17.35 22.25 L17.7 23.15 18.05 23.4 Q19.85 24.1 21.4 23.15 L21.45 22.95 22.9 23.95 22.9 27.5 22.5 27.05 Q20.35 29.2 17.95 27.5 17.55 27.15 17.1 26.95 L15.75 27.65 Q15.15 27.85 14.6 27.65 13.15 27.4 12.3 25.9 11.6 26.65 10.5 26.65 9.65 26.65 9.1 25.85 L8.25 24.45 Q7.45 25.0 6.6 25.0 5.65 25.05 5.1 24.05 L4.85 23.3 4.55 21.15 Q3.9 21.55 3.2 21.75 2.7 22.0 2.2 21.75 0.7 21.35 0.0 19.85 L1.75 17.6" fill="#ff3399" fill-rule="evenodd" stroke="none"/>
      <path d="M0.0 19.85 Q0.7 21.35 2.2 21.75 2.7 22.0 3.2 21.75 3.9 21.55 4.55 21.15 L4.85 23.3 5.1 24.05 Q5.65 25.05 6.6 25.0 7.45 25.0 8.25 24.45 L9.1 25.85 Q9.65 26.65 10.5 26.65 11.6 26.65 12.3 25.9 13.15 27.4 14.6 27.65 15.15 27.85 15.75 27.65 L17.1 26.95 Q17.55 27.15 17.95 27.5 20.35 29.2 22.5 27.05 M6.75 0.0 Q6.75 1.75 7.0 3.5 7.55 7.25 9.25 10.6 6.7 11.95 4.7 14.0 2.1 16.65 0.0 19.85" fill="none" stroke="#000000" stroke-linecap="round" stroke-linejoin="round" stroke-width="1.0"/>
      <path d="M9.95 6.2 Q9.95 4.85 9.25 3.55 L6.75 0.0 M9.95 6.2 L17.25 5.95 Q20.2 6.45 22.9 7.55" fill="none" stroke="#0195d3" stroke-linecap="round" stroke-linejoin="round" stroke-width="1.0"/>
    </g>
    <g id="shape3" transform="matrix(1.0, 0.0, 0.0, 1.0, 11.7, -13.05)">
      <path d="M6.85 18.15 L6.8 24.65 5.95 18.25 4.25 17.7 Q3.6 18.9 3.5 20.2 L3.15 23.95 Q3.3 20.55 2.2 17.45 0.1 16.9 -1.25 18.6 L-2.4 25.15 -2.1 17.55 -3.35 17.0 Q-4.5 17.25 -5.05 18.45 L-6.85 22.25 -5.35 17.5 -6.0 17.05 Q-8.25 17.8 -9.7 19.65 L-8.45 17.05 Q-9.55 16.7 -10.55 17.55 L-11.7 18.4 Q-9.75 16.7 -9.1 14.4 L-9.5 13.5 Q-1.9 16.6 6.3 15.6 9.55 15.4 12.7 14.45 L16.75 13.05 18.2 14.1 17.95 14.55 19.85 20.3 17.25 15.25 Q16.05 15.3 15.55 16.25 L17.0 21.5 Q16.2 18.8 14.25 16.4 L13.25 16.25 Q12.5 17.1 12.8 18.2 L13.25 20.5 13.6 22.8 Q12.9 20.15 11.6 17.85 L11.05 17.25 10.8 17.1 Q9.7 17.35 9.35 18.4 L10.05 21.7 8.55 17.65 7.2 17.7 6.85 18.15" fill="#76dcfe" fill-rule="evenodd" stroke="none"/>
    </g>
    <g id="sprite3" transform="matrix(1.0, 0.0, 0.0, 1.0, 3.6, 3.35)">
      <use height="6.55" transform="matrix(1.0, 0.0, 0.0, 1.0, -3.6, -3.35)" width="7.15" xlink:href="#shape4"/>
    </g>
    <g id="shape4" transform="matrix(1.0, 0.0, 0.0, 1.0, 3.6, 3.35)">
      <path d="M0.45 -0.7 Q-0.05 0.4 -1.0 -0.45 -1.15 -0.85 -0.9 -1.15 L-0.65 -1.45 -0.55 -1.5 -0.3 -1.5 -0.3 -1.55 Q0.35 -1.45 0.45 -0.85 L0.45 -0.7 M2.05 -1.35 Q2.85 -0.85 2.0 0.0 L1.7 0.15 1.0 -0.25 0.95 -0.55 0.95 -1.0 Q1.15 -1.45 1.6 -1.5 L1.7 -1.5 1.7 -1.55 2.05 -1.35 M0.85 1.1 Q0.35 2.2 -0.6 1.35 -0.75 0.95 -0.5 0.65 L-0.25 0.35 -0.15 0.3 0.1 0.3 0.1 0.25 Q0.75 0.35 0.85 0.95 L0.85 1.1" fill="#ffffff" fill-rule="evenodd" stroke="none"/>
      <path d="M0.45 -0.7 L0.45 -0.85 Q0.35 -1.45 -0.3 -1.55 L-0.3 -1.5 -0.55 -1.5 -0.65 -1.45 -0.9 -1.15 Q-1.15 -0.85 -1.0 -0.45 -0.05 0.4 0.45 -0.7 M1.6 -1.5 Q1.15 -1.45 0.95 -1.0 L0.95 -0.55 1.0 -0.25 1.7 0.15 2.0 0.0 Q2.85 -0.85 2.05 -1.35 3.25 -1.1 3.5 0.3 3.7 1.5 2.55 1.4 L2.35 1.4 Q2.7 2.05 1.7 3.05 L0.6 3.2 -0.4 2.25 Q-1.25 2.7 -2.45 2.55 L-2.8 2.35 -2.85 2.05 -2.85 1.6 -2.5 1.15 -3.5 0.7 -3.6 0.35 Q-3.35 -1.2 -1.65 -1.35 -2.05 -2.05 -1.1 -2.8 L-0.1 -3.35 Q2.4 -3.25 1.6 -1.5 M0.85 1.1 L0.85 0.95 Q0.75 0.35 0.1 0.25 L0.1 0.3 -0.15 0.3 -0.25 0.35 -0.5 0.65 Q-0.75 0.95 -0.6 1.35 0.35 2.2 0.85 1.1" fill="#ff99cc" fill-rule="evenodd" stroke="none"/>
    </g>
    <g id="sprite4" transform="matrix(1.0, 0.0, 0.0, 1.0, 5.05, 4.15)">
      <use height="8.4" transform="matrix(1.0, 0.0, 0.0, 1.0, -5.05, -4.15)" width="10.05" xlink:href="#shape5"/>
    </g>
    <g id="shape5" transform="matrix(1.0, 0.0, 0.0, 1.0, 5.05, 4.15)">
      <path d="M1.9 -0.95 Q1.25 -0.85 0.85 -0.3 L0.8 -0.15 0.9 0.15 Q1.65 1.0 2.55 0.25 L2.7 0.05 Q3.05 -0.95 1.9 -0.95 M0.3 -0.7 L0.6 -0.9 Q1.1 -2.0 -0.2 -2.05 L-0.6 -1.9 Q-1.05 -1.65 -0.95 -1.15 -0.5 -0.5 0.3 -0.7 M2.6 -3.25 L4.1 -3.1 Q5.25 -1.25 3.55 -0.85 L4.5 0.15 Q5.1 1.1 4.95 2.3 3.15 3.45 1.2 1.95 1.25 3.15 0.15 4.05 -0.95 4.9 -2.35 2.4 L-3.2 2.3 -4.7 1.65 Q-6.05 -0.05 -2.45 -1.2 L-2.65 -2.6 Q-2.75 -3.55 -1.4 -3.85 L1.0 -4.15 Q1.6 -3.85 1.75 -2.85 L2.6 -3.25 M-1.45 0.45 Q-1.55 0.9 -1.15 1.1 -0.45 1.45 0.05 0.85 0.75 -0.1 -0.4 -0.25 -1.05 -0.1 -1.45 0.45" fill="#ff3399" fill-rule="evenodd" stroke="none"/>
      <path d="M0.3 -0.7 Q-0.5 -0.5 -0.95 -1.15 -1.05 -1.65 -0.6 -1.9 L-0.2 -2.05 Q1.1 -2.0 0.6 -0.9 L0.3 -0.7 M1.9 -0.95 Q3.05 -0.95 2.7 0.05 L2.55 0.25 Q1.65 1.0 0.9 0.15 L0.8 -0.15 0.85 -0.3 Q1.25 -0.85 1.9 -0.95 M-1.45 0.45 Q-1.05 -0.1 -0.4 -0.25 0.75 -0.1 0.05 0.85 -0.45 1.45 -1.15 1.1 -1.55 0.9 -1.45 0.45" fill="#ffcc00" fill-rule="evenodd" stroke="none"/>
    </g>
  </defs>
</svg>
