<svg xmlns:xlink="http://www.w3.org/1999/xlink" height="82" width="84.85" xmlns="http://www.w3.org/2000/svg"><g transform="translate(37.4 42.25)"><use height="38" transform="translate(-11.95 -17.45)" width="32.05" xlink:href="#a"/><use height="38.95" transform="translate(-12.45 -17.95)" width="33.05" xlink:href="#b"/><use height="24.25" transform="matrix(-1 0 0 1 25.7 -.55)" width="22.2" xlink:href="#c"/><use height="22.6" transform="matrix(-1 0 0 1 25 .25)" width="20.65" xlink:href="#d"/><use height="24.25" transform="translate(-18.05 -.55)" width="22.2" xlink:href="#c"/><use height="22.6" transform="translate(-17.35 .25)" width="20.65" xlink:href="#d"/><use height="15.8" transform="translate(-14.1 6.75)" width="35.65" xlink:href="#e"/><use height="12.8" transform="translate(13.1 7.35)" width="7.7" xlink:href="#f"/><use height="12.35" transform="translate(-13.9 9.05)" width="8.8" xlink:href="#g"/><use height="15.45" transform="translate(-12.65 7.4)" width="14.35" xlink:href="#h"/><use height="13.65" transform="translate(5.9 9.2)" width="10.4" xlink:href="#i"/><use height="14.05" transform="translate(17.9 7.1)" width="2.4" xlink:href="#j"/><use height="1" transform="translate(-12.35 4.95)" width="1.25" xlink:href="#k"/><use height="4.8" transform="translate(1.35 6.95)" width="4.9" xlink:href="#l"/><use height="4.3" transform="translate(1.7 7.55)" width="4.25" xlink:href="#m"/><use height="2.7" transform="translate(2.25 7.9)" width="2.9" xlink:href="#n"/><use height=".95" transform="translate(2.75 8.15)" width="1.05" xlink:href="#o"/><use height="23.1" transform="translate(-18 -.25)" width="43.65" xlink:href="#p"/><use height="21.6" transform="translate(-17.35 .25)" width="42.35" xlink:href="#q"/><use height="19.75" transform="translate(5.45 .75)" width="18.65" xlink:href="#r"/><use height="17.45" transform="translate(-16.45 .8)" width="19.2" xlink:href="#s"/><use height="20.45" transform="translate(-16.5 .8)" width="19.8" xlink:href="#t"/><use height="20.45" transform="matrix(-1 0 0 1 24.15 .8)" width="19.8" xlink:href="#t"/><use height="8.3" transform="translate(10.2 -3.85)" width="7.5" xlink:href="#u"/><use height="4.3" transform="translate(10.95 -.3)" width="4.85" xlink:href="#v"/><use height="8.3" transform="matrix(-1 0 0 1 -2.4 -3.85)" width="7.5" xlink:href="#u"/><use height="4.3" transform="matrix(-1 0 0 1 -3.15 -.3)" width="4.85" xlink:href="#v"/></g><defs><path d="M27.35 7.4q2.15 4.15 3.55 8.75 1.45 4.7 1.15 9.5-.35 4.95-4.2 8.1-3.8 3.2-8.75 4.05l-2.6.2q-3.6 0-7.05-1.15-4.65-1.6-7.1-5.5Q-.2 27.4.05 23q.2-4.4 2-9.3Q3.85 8.75 7 5.05 10.1 1.3 14.7.1l1.8-.1q1.9.05 3.7.8 4.75 2.05 7.15 6.6" fill="#fff" fill-rule="evenodd" transform="translate(-.05)" id="w"/><path d="M27.35 7.4Q24.95 2.85 20.2.8 17.55-.3 14.7.1 10.1 1.3 7 5.05q-3.15 3.7-4.95 8.65-1.8 4.9-2 9.3-.25 4.4 2.3 8.35 2.45 3.9 7.1 5.5 4.65 1.55 9.65.95 4.95-.85 8.75-4.05 3.85-3.15 4.2-8.1.3-4.8-1.15-9.5-1.4-4.6-3.55-8.75Z" fill="none" stroke="#000" stroke-linecap="round" stroke-linejoin="round" transform="translate(.45 .5)" id="x"/><path d="m22.2 12.85-.4 11.35q-5.25.3-10.35-.75L9.15 23 8 22.75l-1.2-.5-.75-3.05-2.25 1.95h-.15L3.4 21l-.2-.3-.15-.35-.15-.65V7.3L0 5.65q.75-1.25 1.65-2.3l.95-1 1-.95L5.25 0l.6.15L19.4 8.1l2.8 4.75" fill="#200000" fill-rule="evenodd" id="y"/><path d="M20.25 22.6 11.7 22l-4.9-1.2-1.05-4.45-2.7 3.1V5.95L0 4.45 4.65 0 18.1 7.95l2.55 4.35-.4 10.3" fill="#300" fill-rule="evenodd" id="z"/><path d="m14.65 9.1-1.55 4.5-2.2.85-.6-8.3-.9.5-.3 1.45-2.75 2.55-3.6 2.9L0 15.6l8-8.5-2.15-2.65 2.5-.85 3.8.55q1 2.55 1.05 5.4L13 13.4l1.65-4.3 1.4 1.5-.1-10-3.7 1.55L16.65 0l.15 11.6-2.15-2.5m-22.5-4.75L-10.1 6.9l6.55 7.05 1.45 1.85q-3.8-2.3-6.4-5.75l-2.45-3.35 1-1.95q-3.35-1-6.65-2.4l-1.1-.5-1.15-.55V0l8.2 3.45 1.4.5 1.4.4" fill="#200000" fill-rule="evenodd" transform="translate(18.85)" id="A"/><path d="m6.3 8.5-1.65 4.3.2-3.85Q4.8 6.1 3.8 3.55L0 3l7.6-3 .1 10-1.4-1.5" fill-rule="evenodd" id="B"/><path d="m7.75 10.65 1.05 1.7-4.3-.75-2.4-4.5L0 9.05V0l.65 1.25q4.2 4.25 7.1 9.4" fill="#640000" fill-rule="evenodd" id="C"/><path d="M4 1.45h.4v12.8l-.4-.1V1.45m2 1.1h.4v12.1L6 14.6V2.55m2 .75h.4V15l-.4-.05V3.3M0 0h.4v9.95l-.4.45V0m2 .95h.4v12.8l-.3-.1-.1-.45V.95M12 11.1h.35v4.3l-.35-.05V11.1m2 4.35V13.3h.35v2.15H14M10 9h.35v6.25L10 15.2V9" fill="#d90000" fill-rule="evenodd" id="D"/><path d="M8 .6h.4v12.2l-.4.05V.6m-2 .8h.4v11.75l-.4.05V1.4M2 9.1h.4v4.45l-.4.05V9.1m-2 2.2h.4v2.35H0V11.3m4-4.1h.4v6.2l-.4.05V7.2M10.4 0v12.35l-.4.1V0h.4" fill="#d90000" fill-rule="evenodd" id="E"/><path d="M2.4 0v10.7l-.4-.45V0h.4M0 1h.4v12.5l-.15.45-.25.1V1" fill="#b00000" fill-rule="evenodd" id="F"/><path d="M.45.55.8.45" fill="none" stroke="#1a171b" stroke-linecap="round" stroke-linejoin="round" stroke-width=".95" id="k"/><path d="M0 .6 2.65 0Q3.5 0 4.9.6L2.5 4.8 0 .6" fill="#1b191e" fill-rule="evenodd" id="G"/><path d="M0 .5Q1.5 0 2.3 0l1.95.55L2.1 4.3 0 .5" fill="#6c0000" fill-rule="evenodd" id="H"/><path d="M0 .4Q.15 0 1.65 0 2.9.15 2.9.35l-.7.1q-.75.1-.85.6-.2.8.05 1.65L0 .4" fill="red" fill-rule="evenodd" id="I"/><path d="M.15.95 0 .2 1.05 0l-.9.95" fill="#f8eef8" fill-rule="evenodd" id="J"/><path d="m42.5 5.7-1.2.6-3.6 1.85q-4.25 2.25-8.8 3.35l1.3 1.35.8 1-.05.1-1 1.25-2.15 2.3-5.55 5.6-.45-10.4-.45 10.4-8.7-9.15-.05-.15.8-1.05 1.35-1.25-2.15-.8Q7.95 9.2 3.65 6.95L0 5.05 5.4 0l13.7 8.15 2.7 4.55 2.7-4.55L38.15.1l5.5 4.95-1.15.65" fill="#1b191e" fill-rule="evenodd" id="K"/><path d="m20.65 12.3-.4 9.3-8-8.1 1.05-1.15 1.65-1.55-1.2-.4q-4.3-1.15-8.2-3.1l-4.1-2.15L0 4.45 4.75 0l11.8 7.05L18.6 9.2l1.05 1.65 1 1.45m10.4-2.7-3.65 1.2 2.7 2.7-8.05 8.1-.4-9.3 2.6-4.35L37.6 0l4.75 4.45-3.6 1.9Q35 8.15 31.05 9.6" fill="#da0000" fill-rule="evenodd" id="L"/><path d="m14.8 0 3.85 3.9-2.95 1.55-1.15-.05-.3-1.75-1.4-.65-1.05-.25-2.3.3L14.8 0M0 19.75 4 9.8l2.35 3.15L0 19.75" fill="#900" fill-rule="evenodd" id="M"/><path d="M15.65 6.5q3.1 3.35 3.35 8.1l.2 2.85q-.6-2.4-2.05-4.5l-.95-1.55-3.85 1.5L16.4 9l-2.65-2.85L11.2 4.3l2.45 1 2 1.2M4 0l5.15 3L0 3.9 4 0" fill="red" fill-rule="evenodd" id="N"/><path d="m.85-6.7-4.4 3.95-.4-.15 4.45-4 .35.2m1.6 6.25L6-3.65l.35.2L2.9-.35l-.45-.1m.2-5.2-4.2 3.75-.35-.15 4.2-3.8.35.2M.3-1.2l3.9-3.55.35.25L.7-1.05.3-1.2m7.55-.9L2 3.15l-.25-.25 5.9-5.35.2.35m1 1.75L3.4 4.55l-.25-.25 5.55-5 .15.35m-11.6-8.5L-7.5-4.6l-.35-.15 4.75-4.3.35.2m1.8 1.05-4.6 4.15-.35-.15L-1.3-8l.35.2M-4.7-10l-4.85 4.35-.35-.2 4.85-4.35.35.2M9.9 4.1 6.2 7.4l-.25-.25L9.9 3.6v.5m0-2.7L4.8 6l-.25-.25 5.15-4.7.2.35m-.15 5.5L7.6 8.85l-.25-.25L9.8 6.4l-.05.5m-1 3.1.9-.8v.5l-.6.55-.3-.25" fill="red" fill-rule="evenodd" transform="translate(9.9 10.2)" id="O"/><path d="M6.75 2.1q-.95.15-1.75.8l1.2 1.8-.1.35-.2.45-1.15-.15L2.6 4.6l-.65.45q-.2 1.15.1 2.2l.1.7-.75.35Q.5 7.8.3 6.65L0 5.2q1.9-1.55 3.45-3.65l1-1.55q1.5.55 2.75 1.6l.3.3-.75.2" fill="red" fill-rule="evenodd" id="P"/><path d="M.45 4.15 0 2l1 1.8q-.2.75-.55.35m3.8-2.55L3.2 0l1.65 1.2q-.2.75-.6.4" fill="#f8eef8" fill-rule="evenodd" id="Q"/><use height="38" width="32.05" xlink:href="#w" id="a"/><use height="38.95" width="33.05" xlink:href="#x" id="b"/><use height="24.25" width="22.2" xlink:href="#y" id="c"/><use height="22.6" width="20.65" xlink:href="#z" id="d"/><use height="15.8" width="35.65" xlink:href="#A" id="e"/><use height="12.8" width="7.7" xlink:href="#B" id="f"/><use height="12.35" width="8.8" xlink:href="#C" id="g"/><use height="15.45" width="14.35" xlink:href="#D" id="h"/><use height="13.65" width="10.4" xlink:href="#E" id="i"/><use height="14.05" width="2.4" xlink:href="#F" id="j"/><use height="4.8" width="4.9" xlink:href="#G" id="l"/><use height="4.3" width="4.25" xlink:href="#H" id="m"/><use height="2.7" width="2.9" xlink:href="#I" id="n"/><use height=".95" width="1.05" xlink:href="#J" id="o"/><use height="23.1" width="43.65" xlink:href="#K" id="p"/><use height="21.6" width="42.35" xlink:href="#L" id="q"/><use height="19.75" width="18.65" xlink:href="#M" id="r"/><use height="17.45" width="19.2" xlink:href="#N" id="s"/><use height="20.45" width="19.8" xlink:href="#O" id="t"/><use height="8.3" width="7.5" xlink:href="#P" id="u"/><use height="4.3" width="4.85" xlink:href="#Q" id="v"/></defs></svg>