<svg xmlns:xlink="http://www.w3.org/1999/xlink" height="82" width="84.85" xmlns="http://www.w3.org/2000/svg"><g transform="translate(37.4 42.25)"><use height="38" transform="translate(-11.95 -17.45)" width="32.05" xlink:href="#a"/><use height="38.95" transform="translate(-12.45 -17.95)" width="33.05" xlink:href="#b"/><use height="7.45" transform="translate(13.25 -3.8)" width="3.4" xlink:href="#c"/><use height="28.5" transform="translate(-15.35 .4)" width="39.35" xlink:href="#d"/><use height="17.9" transform="translate(-12.55 5.1)" width="33.1" xlink:href="#e"/><use height="13.3" transform="translate(-11.75 9.7)" width="30.95" xlink:href="#f"/><use height="27.35" transform="translate(-14.9 .95)" width="38.5" xlink:href="#g"/><use height="6.2" transform="translate(13.25 -3.3)" width="3" xlink:href="#h"/><use height="4.05" transform="translate(14.1 -2.45)" width="1.75" xlink:href="#i"/><use height="12.15" transform="translate(-3.25 9.25)" width="23.05" xlink:href="#j"/><use height="8.6" transform="translate(-10.95 11.2)" width="5.6" xlink:href="#k"/><use height="26.75" transform="translate(-14.45 1.3)" width="37.45" xlink:href="#l"/><use height="2.6" transform="translate(14.45 -2.15)" width="1" xlink:href="#m"/></g><defs><path d="M27.35 7.4q2.15 4.15 3.55 8.75 1.45 4.7 1.15 9.5-.35 4.95-4.2 8.1-3.8 3.2-8.75 4.05l-2.6.2q-3.6 0-7.05-1.15-4.65-1.6-7.1-5.5Q-.2 27.4.05 23q.2-4.4 2-9.3Q3.85 8.75 7 5.05 10.1 1.3 14.7.1l1.8-.1q1.9.05 3.7.8 4.75 2.05 7.15 6.6" fill="#fff" fill-rule="evenodd" transform="translate(-.05)" id="n"/><path d="M27.35 7.4Q24.95 2.85 20.2.8 17.55-.3 14.7.1 10.1 1.3 7 5.05q-3.15 3.7-4.95 8.65-1.8 4.9-2 9.3-.25 4.4 2.3 8.35 2.45 3.9 7.1 5.5 4.65 1.55 9.65.95 4.95-.85 8.75-4.05 3.85-3.15 4.2-8.1.3-4.8-1.15-9.5-1.4-4.6-3.55-8.75Z" fill="none" stroke="#000" stroke-linecap="round" stroke-linejoin="round" transform="translate(.45 .5)" id="o"/><path d="m.25 0 1.4 1.05q3.1 2.75.7 6.1l-.85.3q-.7-.25-.85-.7L.6 6.6l.05-.05Q-.15 5.1 0 3.45-.1 1.75.25 0" fill-rule="evenodd" id="p"/><path d="M1.85 18.8q.7-2.95.8-5.9l.1-2.6.05-.95.15-2.65-.05-.05q-.5-.6-.6-1.55-.75.1-1.25-.4-.7-.7-.7-1.75 0-.85.5-1.65Q1.5.3 2.5.05 3.2-.1 3.85.3q.5.3.7 1.25l1.25.2q.45.35.6 1.3.75-.15 1.25.25.45.4.7 1.4.7-.3 1.4.15.55.35.9 1.4.8-.4 1.65 0 .8.4 1.3 1.6.95-.6 2.05-.3 1.35.4 2 1.8 1.05-.7 1.95-.7.9 0 1.95.7.7-1.35 2-1.75 1.05-.3 2.05.3.5-1.2 1.3-1.55.85-.4 1.7 0 .35-1.05.9-1.45l1.4-.15q.15-1 .7-1.4.5-.4 1.25-.25.2-.95.6-1.25.5-.4 1.3-.25.1-.8.65-1.25.65-.4 1.4-.25 1.05.25 1.65 1.25 1.2 2-.2 3.4-.55.55-1.3.45 0 .85-.55 1.5l-.65.4.15 2.3.15 3.5.4 3.85.3 1.65q1.15.25 2.05 1.9.85 1.5.4 2.8-.25.9-.95 1.2l-1.75-.2q-.35 1.15-1.1 1.45-.85.35-1.85-.3-.4 1.1-1.35 1.4-.95.3-1.9-.5-.45 1.15-1.5 1.4-.95.2-2-.65-.65 1.25-1.9 1.4-1.5.25-2.55-1.15-1.05 1.35-2.7 1.35-1.6 0-2.65-1.3-1.15 1.35-2.55 1.1-1.25-.15-1.9-1.4-1.05.85-2 .65-.95-.2-1.5-1.4-.95.8-1.9.5-.95-.3-1.35-1.4-1 .65-1.8.3-.75-.25-1.1-1.45-.95.6-1.8.2-.6-.25-.95-1.2-.4-1.4.4-2.8.6-1.05 1.3-1.5l.3-.2-.3.2" fill-rule="evenodd" id="q"/><path d="m32.1 3.2.55 7 .45 3.55-.45.1h-.05l-.25.15v.05q-.4.3-.65.9l-1.6-.15q-.65.2-1.1 1.1-.9-.5-1.65-.35-.75.2-1.2 1.15-.9-.65-1.75-.45-.8.15-1.35 1.2-.95-.8-1.95-.65-.85.15-1.65 1.1-1.05-1.2-2.6-1.2-.95 0-1.7.5l-.85.7-.45-.55q-.55-.5-1.2-.55l-.85.05q-.3.05-.55.25l-.55.35q-.45-.85-1.05-1.1l-.3-.1-1.1.1-.6.35-.7-.9-.5-.25q-.8-.15-1.7.35l-.05-.15q-.45-.75-1-.95l-.65-.1-1 .25q-.25-.8-.9-1.1l-.35-.1-.8-.05.45-3.45.55-7.9.45-.05q.1 1.15.65 1.7.65.6 1.55.35.15 1.15.85 1.7.85.6 1.8.2.45 1.3 1.2 1.7l1.8.1.3-.2q.6 1.35 1.65 1.7 1.2.4 2.5-.45.6 1.15 1.5 1.6l.7.25h.15l.05.05.65.05.75-.05v-.05h.1q.9 0 1.05-.45.7-.5 1.1-1.4.65.5 1.3.65l1.25-.1 1.25-.95.4-.8 1.05.35 1.1-.2.35-.25q.5-.5.85-1.5l1.75-.15.05-.05q.7-.55.85-1.7l.6.1.85-.35.1-.1.55-.85M28.15 0l-.05.05h-.05l.1-.05" fill="#200000" fill-rule="evenodd" id="r"/><path d="m30.95 8.85-.5-1L30 9.2l.35-3.1.6 2.75m-2.7.15-.8-1.05-.8 2.15.3-2.35.45-1.55.85 2.8M11 12.25q-.3.05-.55.25.3-1.85-.3-3.65l-.35.1-.5 1-.2.55-.25 1.25-.3-.1-1.1.1.15-3.85-.05-.65-.15-.85-.15-.5-.3.35-.5 1.85-.2 1.55-.1 1.55-.5-.25q-.8-.15-1.7.35l-.05-.15-.2-4.25-.05-.3-.15-.35q-.85.45-.9 1.6L2.45 9l-.2 1.1-1 .25q-.25-.8-.9-1.1L0 9.15 1.15 0l.5 6.65.8-2.15L3.2 3l.25-.35.2-.15q.7.55.75 1.5l.15.9.3 2.1.1 1.25 1.75-4.1q.4.05.6.3l.95 1.45.2.6.1.75q.9.25 1.65-.35l.8-.6v5.95m2.45-4.35.9 4.7-.85.7-.45-.55.25-1.5.1-2.05.05-1.3" fill="#7d0000" fill-rule="evenodd" id="s"/><path d="m38 2.95-.35.55-.55.6-.35.1-.8-.35q.3 1-.45 1.9l-.25.3-.35.05-.85-.35-.25 1.65q-.25.7-1.05.75l-.85-.5q.25 1.7-1.15 2.45h-.65l-.75-.55q.1 1.1-.7 1.75l-2.5-.1q-.5 2.4-2.9 1.9l-1.3-.7q-.35 1.6-1.8 2.15-1.55.45-2.75-.5-.85-.7-1.05-1.7-.55.95-1.85 1-1.9-.3-2.35-2.2l-2.35.05-.65-1-.2-.75-.85.6q-1.45-.1-1.6-1.7l-.05-.75-.8.45q-.7.15-1.05-.65-.35-.8-.3-1.7l-.75.35q-.95-.1-1.1-1.15L2.4 3.8l-.75.3q-.6-.15-.95-.95Q0 1.55 1.4.4q.75-.7 1.7-.2l.35.7.15.85.4-.2.7-.05q.75.35.75 1.3v.55L6.2 3q1 .1 1.15 1l.1 1.05.4-.25.8-.15Q9.7 4.9 9.8 6.1l.05.6q1.45-1.25 2.55.35l.5 1.1q1.75-1.45 3.25.35l.8 1.2q1.8-1.85 3.9-.3.25.1.5.35.7-2.4 3.05-1.9.5.05 1 .4.4-1.95 2.25-2.05l.85.55q.1-1.15.85-1.95l.75.15.8.15q-.05-.8.35-1.5l.25-.35.7-.2.4.15.25-.4.5-1.1.7-.15.75.25q0-.45.15-.85l.3-.65L36.5.05q1.25.8 1.5 2.55v.35m-.65-.35.1-.3-.05-.55-.7-.25q-.5.55.25 1l.4.1M36 2.2l-.35.5.15.45.6.25h.05q.3-.55-.35-1.15L36 2.2m-.55 1.25q-.3-.5-.65-.3-.55.85.45 1.25l.2-.05q.3-.4 0-.9m-1.15.5-.35.1-.2.35.45.8.25.2.15-.5v-.6l-.3-.35m-1.05.9q-.5 0-.55.5.05.8.65 1.05l.15-.15q.4-.35 0-1l-.25-.4M32.5 7.2q.65-.5.05-1l-.65-.45q-.3.5-.1 1.05l.6.5.1-.1m-2-.05q0 .65.3.95l.35.2.35-.5-.05-.7-.5-.5q-.1 0-.15.1l-.3.45m-8 4.85q.2.25.55.25l.6-.25.2-.65-.2-.6q-.25-.3-.6-.3t-.55.3q-.25.25-.25.6l.25.65m-2.2-.6q-.4 0-.7.3-.3.3-.3.7 0 .4.3.7.3.3.7.3l.7-.3.3-.7-.3-.7q-.3-.3-.7-.3m4.2-1.25q-.25.25-.25.6l.25.65.5.25.55-.25.2-.65-.2-.6q-.25-.3-.55-.3-.3 0-.5.3m5.4-2.75-.4.3-.2.6.2.65.4.25.45-.25.15-.65-.15-.6q-.2-.3-.45-.3M28 8.6l-.2.6.2.65.4.25.45-.25.15-.65-.15-.6q-.2-.3-.45-.3l-.4.3m-.5 1.4-.2-.6q-.2-.3-.45-.3t-.45.3l-.2.6.2.65.45.25.45-.25.2-.65m-3.1 14.05q-.25.3-.25.7l.25.7q.2.3.55.3.35 0 .6-.3l.2-.7-.2-.7q-.25-.3-.6-.3t-.55.3m-1.25 0q-.35 0-.55.3-.25.3-.25.7l.25.7q.2.3.55.3.35 0 .6-.3l.2-.7-.2-.7q-.25-.3-.6-.3m-1.35-1q.5-1.3 1.75-1.45 1.25-.05 2 .9.3-1.05 1.4-1.4l.85.1.9.55q.15-.9.75-1.25l.4-.25q.8-.05 1.4.35l.45.35q.15-.75.6-1.25l.3-.25 1.85.6.15-.95q.5-.75 1.35-.65 1.6.45 2.25 2.15l.3 1.05v.8l-.55.55-.4.25-1.3-.15-.6-.5q.2 1.3-.95 1.75l-.85.05-1.1-.7q.05 1.35-1.15 1.85-1.3.3-2.05-.95.1 1.55-1.35 1.85l-.5.1q-1-.25-1.55-1.25-.25 1.45-1.8 1.55l-1.2-.2-1.25-1.15q-.65 1.9-2.7 1.85-1.85-.05-2.65-1.8-.3.8-1.1 1.2l-.95.55q-.9-.25-1.35-.8l-.85-1.2q-.2.6-.95 1.05l-.5.2Q9.1 26.4 8.9 24.6q-.65 1.25-2 .8l-.65-.55-.5-1.15q-.75 1.05-1.95.65l-.6-.55-.4-1.2q-.45.8-1.45.85l-.8-.4q-.75-.85-.45-1.9.55-2.2 2.5-2.7.8 0 1.15.75l.3.85 1.8-.6q.75.25.85 1.05l.1.45q.7-.5 1.45-.7h.4q.75.35.95 1l.15.5q.8-.8 1.85-.8 1.25.3 1.3 1.55 1.8-1.9 3.45 0l.3.5q.8-1.45 2.55-1.6l1.45.6 1.15 1.05m-1.45 1.1q-.4 0-.7.3-.3.3-.3.7 0 .4.3.7l.7.3q.4 0 .7-.3l.3-.7-.3-.7q-.3-.3-.7-.3m5.9.1q.05.45.4.95l.2.2q.4-.15.75-.35.2-.9-.3-1.45l-.6-.15-.3.25-.15.55m3.75.2.25.15.2-.15.5-.25-.25-1.1-.8-.4q-.75.85.1 1.75m-1.8-1.25-.25.1q-.35.5.1 1.3l.4.3.25.1.35-.4.15-.25-.25-.75q-.15-.6-.75-.4m4.5-.35.45.7.25.1.45-.25.15-.2-.15-.75q-.15-.5-.65-.6h-.3q-.55.35-.2 1m-1.7-.1q-.15 1 .8 1.35h.15l.45-.65-.65-1.05-.45-.05-.3.4m4.35-.35q-.25-.95-1.1-1.05-.45.2-.3.75l.1.3q.15.65.7.75l.25-.05.3-.45.05-.25m.35-1.6-.2.8.3.65q.25.3.7.2.55-.15.3-.65l-.15-.45-.5-.4-.45-.15m1.05-.35q-.2.85.55 1.3l.4.1q.65-.45.1-1.05l-.4-.5-.65.15M10.5 8.55q-.2-.3-.45-.3t-.45.3l-.2.6.2.65q.2.25.45.25l.45-.25.2-.65-.2-.6m1.45 1.95.15-.35-.2-.85-.2-.25-.65.25q-.65.85.2 1.4.55.1.7-.2m2.8 1.45.55.25.6-.25.2-.65-.2-.6q-.25-.3-.6-.3t-.55.3q-.25.25-.25.6l.25.65m-.8-1.85-.55-.3-.5.3q-.25.25-.25.6l.25.65.5.25.55-.25.2-.65-.2-.6m4.1 1.3q-.4 0-.7.3-.3.3-.3.7 0 .4.3.7.3.3.7.3l.7-.3.3-.7-.3-.7-.7-.3M5.45 4.85q-.45-.35-.6.35l-.1.8.1.2q.85.15.7-.9l-.1-.45M5.8 5.9q-.15.2-.15.55l.15.6q.15.2.4.2l.4-.2.15-.6-.15-.55-.4-.25q-.25 0-.4.25M2.75 2.4l-.45-.25-.4.35v.85q.6.2.8-.5l.05-.45m-1.4-1.15q-.45 0-.45.65 0 .55.3.55.55 0 .55-.65 0-.55-.4-.55m2.55 3q-.2.25-.25.55l.35.55.25-.2.4-.8-.2-.45-.55.35m-1 .05q.65.3.9-.5.2-.5-.25-.7l-.65.3v.9M8 8.6l.5.55q.5-.25.6-.9.05-.55-.35-.8-.45-.2-.65.45l-.1.7m-.25-1.7-.5-.3q-.6.6-.35 1.4.15.3.5.1l.35-.4q.3-.4 0-.8m-5 13.9q-.6-.1-.9.55l-.05.7.2.4.5-.1.25-.15.15-.85-.15-.55m1.15.65-.45.25q-.4.65-.1 1.3l.15.1.5-.15.3-.15.3-1.05-.1-.2-.6-.1m-2.3-1.2-.45.05-.45.5q-.35.55-.1.95l.15.1q1.2-.05 1.1-1.4l-.25-.2m3.25 3.35.25-.1.55-.2.2-.7-.1-.45-.2-.3q-1.2.1-.95 1.35l.25.4m1.5-.85L6.2 23l.05.75.25.35q.85.2.95-.7l-.05-.65-.25-.4-.8.4m3.1 1.85.3.4.35.05.2-.2.25-.2q.3-.6.05-1.1l-.35-.4-.75.45q-.4.5-.05 1M8.3 22.75l-.25.1q-.95.85-.1 1.7.65.1.85-.35l.15-.65q.15-.9-.65-.8m5.1 1.1q-1.15.75-.35 1.8l1-.05.25-.75q.15-.75-.6-1.05l-.3.05m-1.65-.35h-.25l-.65.75q-.05.5.25 1l.2.1.55-.2.25-.15.05-1.3-.4-.2m6.35.65q-.4 0-.7.3-.3.3-.3.7 0 .4.3.7l.7.3.7-.3.3-.7-.3-.7q-.3-.3-.7-.3m-2.7-.1q-.35 0-.6.3t-.25.7l.25.7q.25.3.6.3l.6-.3.25-.7-.25-.7q-.25-.3-.6-.3" fill="#ff5e5e" fill-rule="evenodd" id="t"/><path d="m.55 0 .75.55q.95.85 1.5 1.95L3 4.2q.1 1.1-.6 2L.6 6.1l.05-.05Q-.15 4.6 0 2.95.1 1.55.55 0" fill="#e42824" fill-rule="evenodd" id="u"/><path d="m0 0 .45.3.05.05q2.05 1.15.8 3.1l-.5.6-.2-.2L0 0" fill="#f29ea7" fill-rule="evenodd" id="v"/><path d="m22.15 0 .05 1.6.85 8.25v.05l-1.45-5q.1 1.5-.15 2.9L21.3 9q-.05.45-.6.8-.3.05-.5-.45-.9-2-1.25-4.25l-.55 3.1q-.45 1.55-1.55 2.55l-.3.05-.4-.05-1.55-2.9q-.6.6-.7 1.25-.2 1.75-1.25 3.05l-.2-.6q-.7-2.25-2.1-4.05l-.25-.2q-.55.6-.75 1.4l-.8 2.55-.3.55-.4-.5-.15-1.6-.05-1.85-.65-.3-1.2-.3Q4.9 7 4.65 6.05q-.75.55-1.75.4Q1.55 6.1.65 5.05.15 4.55 0 3.9l.3-.2q.6 1.35 1.65 1.7 1.2.4 2.5-.45.6 1.15 1.6 1.65l.7.25h.1l.65.05.75-.05h.15q.65 0 .85-.4.8-.5 1.25-1.5.65.5 1.3.65 0 .7.45 1.5l.95-.5.7-1.2.4-.85.4-.8 1.05.35.05.5q.05.85.25 1.7l.25.55.55-1 .35-2.2.85-1.5L19.8 2l.15 1.15.3 1.5.3.55.3-.5q.5-2.15.45-4.35l.85-.35" fill-rule="evenodd" id="w"/><path d="M5.6 4.4q-.3 2.3-1.45 4.2l-.25-.25-1.05-4.4-.05-.2q-.55.45-.95 1.45L1.1 6.75l-.7.45q-.45-.65-.4-1.8L.2 0v2.55Q.2 4 .75 5.3l.1.1q1.4-1.2 1.8-2.9l.7 1.4.85 4q.9-1 1.2-2.5l.2-1" fill="#d00" fill-rule="evenodd" id="x"/><path d="m35.6.95-.65 1 .1.8-.45-.25-.75-.15q-.9.5-.8 1.7l.1.55-.35-.35-.35-.25h-.3q-.95.4-1.05 1.4v1.05l-.4-.35-.7-.4q-1.4.45-1.4 2.15l.05.5v.05l-.7-1Q26.3 7 25.8 8.7l-.35 1.2v-.1l-.65-.55h-.6l-.35.2-.45.7-.65-.35-.45.05-.4.4-.45 1-1.7-.35-.3-.05-.3.15-.25.35-.2.35-.4-.7-.7-.15q-1.2 0-1.3 1.2v.15l-.25-.85-.35.35.1-.5v-.9l-.7-.5-.8.1-.3.2-.05.1-.05-.25-.15-.3-.2-.25-.35-.2-.7.05-.3.3-.25.45-.05.3v-.15q-.45.7-1.2 1l-.4.05-.8-.35-.35-.75q-.05-.1.05-.15h.25l.3-.1.1-.15.3-.3-.05.15.4.9.2.15.85-.05.15-.2.25-1.35-.9-.6-.3.05-.15.15-.2.3-.1-.75-.65-.5-.35.05-.2.15-.3.4.05-.5q.05-.9-.65-.95l-.25-.05-.3.35-.05-.7-.5-.45-.7.3V5.9l-.05-.4-.2-.4-.2-.1h-.3l-.2-.05-.1-.4-.2-.2-.45-.2-.1.1-.25.15.1-.1-.25-.95L4 3.3l-.4-.1-.1-.4-.25-.25-.15-.1-.45.05-.1.15-.05-.4V1.9l-.2-.25-.45-.15h-.2l-.15-.25Q1.25.95.85 1L.65.95Q1.15.1 1.75 0l.75.1.2.5.05 1.45.55-.4.6-.2.25.05.55.6-.05 1.6.5-.45q.4-.25.9-.25.65.25.65 1.2v1.2l.55-.4.85-.4q.7.25.9 1.2L9.15 7l1.2-.9q1.55.1 1.8 1.8l.15.55q.65-1 1.75-1.05 2.05.35 2.3 2.6.95-1.2 2.35-1.4.85.05 1.5.65l.85.75q.4-2.55 2.85-2.45.8.3 1.25.95.2-1.2.95-2l.3-.3.75-.05 1.1.9.2-1.2.35-.85q.5-.7 1.4 0l.55.45.2-1.65.25-.65.55-.15 1.1.75V2.2l.1-.35.7-.4 1.05.65q-.05-.7.05-1.4L35 .15l.7-.1.95.8-.1-.05-.95.15m1 1.65.55-.25-.4.9-.3.2-.55-.05.25-.2.3-.55.15-.05m-12.5 19q.7.35 1.15 1.2.1-1.1.9-1.75.8-.6 1.55.2l.75.8q.15-.85.45-1.45l.25-.25q1.4-.45 2.35.9-.05-.85.25-1.45l.25-.25q1.35-.45 2.3.8-.25-1.15.55-1.9 1.6-.25 2.35 1.4l-1.45-.2q-.45.15-.8.65l-.25.65-.9-.25q-.45-.15-.9 0-1.05.55-1.05 1.35l-.85-.5-1.55.1q-.6.6-.65 1.5l-.75-.6-.85.35-.05.05-1.2.05-.35.6-.1.35-.15-.2-.25-.35-.85-.25-.65.4-.1.45-.5-.45-.85.05q-.65.35-.55 1v.1l-.2-.3-.25.7q.25-1-.75-1.35l-.9-.15q-.55.35-.75.85l-.7-.85q-1.45-.3-1.65 1.2l.25.65-.55-.95-.15.3-.2-1q-.6-.6-1.2-.25l-.5.45-.1-.45-.65-.4-.45.05q-.7.3-.8.85v-.15q.05-.6-.35-.85l-.35-.2-.9.4q-.1-.7-.85-.7-.55.2-.8.35v-.2l-.35-.4-.3-.2-.85.3-.5-.7-1.1.55-.1-.75-.4-.3-.85.2-.45-.65-1.05.4-.1-.65q-.45-.55-1.1-.2l-.4-.65-.8.15q.85-1.85 2.6-1.15l.15 1 .05.7q.7-.8 1.75-1l.3.05q.5.1.65.75l.15 1.1q.95-1.35 2.4-.9.6.5.55 1.1l.05.6q.5-.85 1.6-1.15.9-.05 1.25.85l.35 1.05q.7-1.35 2.15-1.4.85.2 1.2.9l.5 1.1q.75-1.8 2.6-2.05 2.05.05 2.6 2.1.35-1.4 1.8-1.85h.95m12.9.25.4-.05.05.15-.1.45-.55.4-.9-.4.65-.5.45-.05M15.7 11.8l-.55.45q-.7.75-1.75.3-.6-.2-1-.95v-.3l.9.05.25-.25.25-.3-.05.15.25.75.2.25.35.1 1.15-.25M1.05 2.6l.15.7-.1.15-.35-.25-.35-.8.65.05v.15M3 4.1q-.3.55.2.9l.3.2-.45.15-.45-.2q-.85-1.25.2-1.05H3m1.7 2 .25-.05.05.65q.65.35.45.65l-.55.05-.3-.2q-.65-.85-.35-1.05l.45-.05M6.4 8l.85-.1.1.65q.25.65.85.4l-.55.45-.9-.35L6.4 8M.6 22.65q-.55-.3-.6-1.1l.6.35.4-.25.4.7-.25.4-.55-.1m2.35.35.45.05.4-.25.5.7.15.05-.4.35H3.4l-.7-1.15.25.25m4.5 1.5.45-.1-1 .6q-.9-.05-1.2-1.2l.3.15.45.1.45-.35.55.8m12.4 1.6h.45l-.05.15q-.6.5-1.5.5-1.15 0-1.85-.95l.75.3.4-.05.45-.55.25-.35q.3.65.75.9l.35.05m-6.8.05-.7-.8.8.35.3-.1.2-.25.25-.3.15.5.6.4-.05.05.8-.25q-.7.95-1.75.8l-.6-.4m-2.1-.65q-.45.5-1.1.35l-.45-.4-.5-.75.35.25.5-.05.4-.4.15.4.7.4-.05.2" fill="#ffc4c4" fill-rule="evenodd" id="y"/><path d="m.15.05.8 1.65q.2.45-.3.9L.5 2.5Q-.25 1.65.1 0l.05.05" fill="#f6c7db" fill-rule="evenodd" id="z"/><use height="38" width="32.05" xlink:href="#n" id="a"/><use height="38.95" width="33.05" xlink:href="#o" id="b"/><use height="7.45" width="3.4" xlink:href="#p" id="c"/><use height="28.5" width="39.35" xlink:href="#q" id="d"/><use height="17.9" width="33.1" xlink:href="#r" id="e"/><use height="13.3" width="30.95" xlink:href="#s" id="f"/><use height="27.35" width="38.5" xlink:href="#t" id="g"/><use height="6.2" width="3" xlink:href="#u" id="h"/><use height="4.05" width="1.75" xlink:href="#v" id="i"/><use height="12.15" width="23.05" xlink:href="#w" id="j"/><use height="8.6" width="5.6" xlink:href="#x" id="k"/><use height="26.75" width="37.45" xlink:href="#y" id="l"/><use height="2.6" width="1" xlink:href="#z" id="m"/></defs></svg>