<?xml version="1.0" encoding="UTF-8" standalone="no"?>
<svg xmlns:xlink="http://www.w3.org/1999/xlink" height="82.0px" width="84.85px" xmlns="http://www.w3.org/2000/svg">
  <g transform="matrix(1.0, 0.0, 0.0, 1.0, 37.4, 42.25)">
    <use height="38.0" transform="matrix(1.0, 0.0, 0.0, 1.0, -11.95, -17.45)" width="32.05" xlink:href="#sprite0"/>
    <use height="38.95" transform="matrix(1.0, 0.0, 0.0, 1.0, -12.45, -17.95)" width="33.05" xlink:href="#sprite1"/>
    <use height="30.6" transform="matrix(1.0, 0.0, 0.0, 1.0, -15.15, -1.85)" width="39.2" xlink:href="#shape2"/>
  </g>
  <defs>
    <g id="sprite0" transform="matrix(1.0, 0.0, 0.0, 1.0, -0.05, 0.0)">
      <use height="38.0" transform="matrix(1.0, 0.0, 0.0, 1.0, 0.05, 0.0)" width="32.05" xlink:href="#shape0"/>
    </g>
    <g id="shape0" transform="matrix(1.0, 0.0, 0.0, 1.0, -0.05, 0.0)">
      <path d="M27.35 7.4 Q29.5 11.55 30.9 16.15 32.35 20.85 32.05 25.65 31.7 30.6 27.85 33.75 24.05 36.95 19.1 37.8 L16.5 38.0 Q12.9 38.0 9.45 36.85 4.8 35.25 2.35 31.35 -0.2 27.4 0.05 23.0 0.25 18.6 2.05 13.7 3.85 8.75 7.0 5.05 10.1 1.3 14.7 0.1 L16.5 0.0 Q18.4 0.05 20.2 0.8 24.95 2.85 27.35 7.4" fill="#e3d4c2" fill-rule="evenodd" stroke="none"/>
    </g>
    <g id="sprite1" transform="matrix(1.0, 0.0, 0.0, 1.0, 0.45, 0.5)">
      <use height="38.95" transform="matrix(1.0, 0.0, 0.0, 1.0, -0.45, -0.5)" width="33.05" xlink:href="#shape1"/>
    </g>
    <g id="shape1" transform="matrix(1.0, 0.0, 0.0, 1.0, 0.45, 0.5)">
      <path d="M27.35 7.4 Q24.95 2.85 20.2 0.8 17.55 -0.3 14.7 0.1 10.1 1.3 7.0 5.05 3.85 8.75 2.05 13.7 0.25 18.6 0.05 23.0 -0.2 27.4 2.35 31.35 4.8 35.25 9.45 36.85 14.1 38.4 19.1 37.8 24.05 36.95 27.85 33.75 31.7 30.6 32.05 25.65 32.35 20.85 30.9 16.15 29.5 11.55 27.35 7.4 Z" fill="none" stroke="#000000" stroke-linecap="round" stroke-linejoin="round" stroke-width="1.0"/>
    </g>
    <g id="shape2" transform="matrix(1.0, 0.0, 0.0, 1.0, 15.15, 1.85)">
      <path d="M18.85 -1.85 L19.7 -1.6 20.3 -1.2 Q21.25 0.0 22.85 0.35 L23.3 1.1 Q23.6 1.75 23.55 2.45 23.45 3.6 23.9 4.5 L23.35 5.7 Q23.4 6.75 23.05 7.65 21.95 10.6 22.85 13.75 L23.2 15.6 23.65 20.35 24.05 20.55 23.9 21.5 Q23.4 22.75 22.1 22.85 L23.6 25.25 22.7 26.1 Q22.4 26.95 21.6 27.45 20.4 28.2 18.75 28.4 11.75 28.8 5.15 28.7 4.75 28.4 4.35 28.25 L3.6 28.15 Q0.75 29.1 -2.2 28.6 L-12.4 27.75 Q-13.2 27.7 -14.0 27.15 L-14.1 25.8 -15.15 24.9 Q-14.8 23.5 -13.65 22.75 L-14.95 21.55 -14.3 20.5 -14.35 19.15 -14.2 17.8 -13.65 15.85 -12.65 13.35 Q-12.3 12.3 -12.5 11.5 -12.7 10.5 -13.15 9.65 L-14.45 7.2 -14.95 5.95 -15.0 4.85 -14.65 2.45 -14.0 1.1 Q-12.4 -0.55 -10.4 0.2 L-9.45 0.6 -6.3 1.15 -5.5 1.35 Q-4.0 2.0 -2.55 2.9 -1.5 3.65 -1.05 4.4 -0.2 5.85 1.4 6.25 4.75 6.95 7.95 6.15 7.5 3.0 10.35 1.9 L15.05 0.2 16.6 -0.2 Q17.8 -0.6 18.3 -1.5 L18.85 -1.85 M22.75 1.85 L22.6 1.3 22.2 0.65 19.45 -0.9 19.0 -1.1 18.9 -1.1 18.85 -0.7 17.65 0.25 15.4 1.05 15.0 1.0 11.65 2.25 11.25 2.4 11.65 2.4 10.55 2.8 9.55 3.15 9.35 3.5 Q9.2 4.3 9.55 5.1 L9.55 5.15 Q8.95 6.1 9.25 7.3 L9.95 9.4 Q10.95 11.75 11.15 14.3 L11.15 15.4 Q10.95 16.7 11.0 18.1 11.0 19.1 11.3 20.0 L11.8 20.7 12.15 21.2 11.75 22.75 11.95 22.95 Q13.9 24.05 16.15 23.7 L17.3 23.45 17.3 23.4 16.75 21.65 17.75 21.55 18.55 23.1 18.6 23.15 18.55 23.1 17.75 21.55 17.7 21.45 17.65 21.4 19.35 20.75 19.4 20.85 19.55 20.75 20.35 20.15 20.45 20.6 20.5 20.8 20.75 22.3 21.0 22.2 22.5 21.1 22.9 20.45 22.35 20.2 22.35 19.95 Q22.85 17.45 22.4 15.0 L22.3 14.7 22.2 14.5 21.75 13.75 21.65 13.1 Q21.4 10.2 21.85 7.35 22.35 6.15 23.15 5.25 L23.1 5.1 22.6 3.85 22.8 3.6 Q23.15 2.95 22.9 2.3 L22.85 2.2 22.75 1.85 M18.55 23.15 L18.75 23.1 19.05 23.0 19.3 22.95 20.75 22.3 19.3 22.95 19.05 23.0 18.75 23.1 18.55 23.15 18.05 23.3 17.3 23.45 18.05 23.3 18.6 23.15 18.55 23.15 19.05 23.0 18.55 23.15 M20.35 23.55 L19.9 23.7 17.25 24.35 16.8 24.4 16.45 24.4 13.95 24.25 11.4 23.4 10.8 22.55 5.55 22.7 2.05 22.4 2.0 22.85 1.7 24.55 1.6 24.95 1.25 25.7 1.0 25.85 -1.25 26.05 -4.55 24.5 -8.15 23.8 -10.65 23.7 -11.05 23.65 -12.1 23.35 -13.1 23.3 -13.4 23.85 -14.3 24.85 -13.3 25.75 -13.15 26.4 -13.05 26.55 -13.0 26.6 Q-12.8 26.8 -12.5 26.8 L-12.1 26.9 -11.75 26.95 -10.35 27.05 -9.9 27.1 -5.55 27.3 -2.15 27.35 1.55 27.75 2.5 27.95 Q3.35 27.8 3.5 27.05 L4.05 25.35 4.9 25.7 4.9 26.15 4.75 27.3 5.8 27.7 8.65 27.55 10.0 27.55 12.15 27.75 14.3 27.8 19.15 27.35 21.3 26.85 Q22.15 26.3 22.15 25.6 L22.75 25.3 21.9 24.0 21.6 23.5 21.55 23.3 Q21.55 23.05 20.95 23.3 L20.35 23.55 M7.65 7.2 L2.95 7.45 2.15 7.2 1.95 7.15 1.4 6.85 1.8 7.95 2.15 9.45 2.0 9.9 1.3 11.1 Q0.75 11.8 0.65 12.75 L0.6 14.05 Q0.8 16.95 0.65 19.9 L1.65 19.9 2.15 19.9 2.15 20.75 3.8 20.7 3.95 20.75 4.0 20.7 7.2 21.55 7.85 22.05 8.9 21.95 10.65 21.75 10.35 21.3 9.8 20.6 Q9.15 19.6 9.35 18.2 9.55 16.75 10.0 15.35 10.35 14.2 10.0 13.05 L8.1 7.2 7.65 7.2 M-0.65 19.8 Q-0.9 16.35 -0.55 13.15 -0.45 12.3 0.2 11.45 L0.5 11.1 Q1.7 8.05 -0.85 6.05 L-3.25 3.25 -4.35 2.55 Q-6.15 1.5 -8.35 1.4 L-9.2 1.25 -11.7 0.6 -12.35 0.55 -12.85 0.8 -13.6 2.95 -13.85 4.0 -14.25 4.3 -14.4 5.55 -11.7 12.1 -11.55 12.5 -11.85 13.25 -12.8 15.15 -13.7 18.65 -13.55 19.85 -13.5 20.0 -14.1 21.6 -13.75 22.0 Q-12.5 22.85 -11.35 22.65 L-11.75 22.4 -10.9 20.65 -10.7 20.75 -11.1 22.5 -9.95 22.75 -5.0 23.1 -3.55 21.55 -2.1 20.6 -3.25 21.65 Q-4.0 22.35 -4.05 23.35 -2.85 24.85 -1.0 25.0 0.0 25.1 0.6 24.45 L1.0 20.4 -0.65 19.8 M18.75 23.1 L20.3 22.4 19.4 20.85 20.3 22.4 18.75 23.1 M-8.85 1.4 L-9.0 1.4 -9.2 1.4 -10.25 1.15 -9.2 1.25 -8.85 1.4" fill="#000000" fill-rule="evenodd" stroke="none"/>
      <path d="M21.75 13.75 L22.2 14.5 22.2 14.6 20.8 15.6 Q19.25 17.0 18.3 18.75 L17.85 18.9 Q14.65 18.6 12.0 16.65 L12.35 14.25 21.65 13.6 21.75 13.75 M-12.8 15.15 L-11.85 13.25 Q-11.7 12.95 -11.2 13.45 L-10.45 13.95 -8.35 14.45 -1.45 14.45 -1.45 16.6 Q-5.45 16.9 -9.5 16.65 -11.5 16.6 -12.8 15.15 M13.95 24.25 L16.45 24.4 Q16.95 25.8 18.3 26.45 L19.25 26.55 20.25 26.2 18.85 26.8 10.0 27.4 9.4 27.35 8.45 27.05 Q7.75 26.95 7.75 26.2 L13.35 26.35 17.05 26.25 13.95 25.5 13.95 24.25 M10.0 27.55 L8.65 27.55 9.4 27.45 10.0 27.55 M1.55 27.75 L-2.15 27.35 -9.25 26.0 -8.0 24.35 -1.25 26.05 1.0 25.85 1.25 25.7 Q1.6 25.85 1.95 26.1 L2.1 26.25 1.7 26.85 Q1.2 27.6 0.35 27.45 L1.55 27.75 M-11.75 26.95 L-12.1 26.9 -11.95 26.9 -11.75 26.95 M-12.5 26.8 Q-12.8 26.8 -13.0 26.6 L-12.4 26.75 -12.5 26.8 M-13.15 26.4 L-13.3 25.75 -12.05 26.05 -12.35 26.05 -12.85 26.15 -13.15 26.35 -13.15 26.4 M-7.8 24.8 L-7.25 25.15 -2.3 26.6 Q-4.85 25.05 -7.8 24.8" fill="#f27c08" fill-rule="evenodd" stroke="none"/>
      <path d="M1.7 24.55 L2.0 22.85 Q2.75 22.95 3.15 23.25 3.5 23.5 3.4 23.85 L2.75 24.4 1.7 24.55 M11.4 23.4 L13.95 24.25 13.95 25.5 9.9 24.95 11.2 25.45 9.45 25.15 Q7.5 24.95 5.9 24.25 L5.65 23.95 5.9 23.65 11.4 23.4 M1.6 24.95 L4.05 25.35 3.5 27.05 Q3.35 27.8 2.5 27.95 L1.55 27.75 0.35 27.45 Q1.2 27.6 1.7 26.85 L2.1 26.25 1.95 26.1 Q1.6 25.85 1.25 25.7 L1.6 24.95 M4.9 26.15 L5.3 25.75 11.6 25.6 13.35 26.35 7.75 26.2 Q7.75 26.95 8.45 27.05 L9.4 27.35 10.0 27.4 9.75 27.45 9.4 27.45 8.65 27.55 5.8 27.7 4.75 27.3 4.9 26.15" fill="#bf5f08" fill-rule="evenodd" stroke="none"/>
      <path d="M20.35 23.55 L20.45 24.05 20.7 24.4 Q21.25 24.55 21.25 24.0 L21.6 23.5 21.9 24.0 Q21.6 25.0 20.3 24.95 18.2 25.4 16.8 24.4 L17.25 24.35 19.1 24.55 19.9 24.0 19.9 23.7 20.35 23.55 M-13.4 23.85 L-13.1 23.3 -12.2 24.05 Q-11.65 24.75 -11.15 23.95 L-11.05 23.65 -10.65 23.7 -10.65 24.05 -9.8 24.35 Q-8.75 24.4 -8.15 23.8 L-4.55 24.5 -1.25 26.05 -8.0 24.35 -8.25 24.15 Q-8.4 24.15 -8.55 24.4 -11.1 25.4 -13.35 24.05 L-13.4 23.85" fill="#aa4f04" fill-rule="evenodd" stroke="none"/>
      <path d="M16.8 24.4 Q18.2 25.4 20.3 24.95 21.6 25.0 21.9 24.0 L22.75 25.3 22.15 25.6 20.25 26.2 19.25 26.55 18.3 26.45 Q16.95 25.8 16.45 24.4 L16.8 24.4 M2.0 22.85 L2.05 22.4 5.55 22.7 10.8 22.55 11.4 23.4 5.9 23.65 5.65 23.95 5.9 24.25 Q7.5 24.95 9.45 25.15 L11.2 25.45 11.6 25.6 5.3 25.75 4.9 26.15 4.9 25.7 4.05 25.35 1.6 24.95 1.7 24.55 2.75 24.4 3.4 23.85 Q3.5 23.5 3.15 23.25 2.75 22.95 2.0 22.85 M-13.3 25.75 L-14.3 24.85 -13.4 23.85 -13.35 24.05 Q-11.1 25.4 -8.55 24.4 -8.4 24.15 -8.25 24.15 L-8.0 24.35 -9.25 26.0 -12.05 26.05 -13.3 25.75" fill="#8e3e03" fill-rule="evenodd" stroke="none"/>
      <path d="M21.65 13.6 L12.35 14.25 11.85 12.75 21.45 12.4 21.65 13.6 M-11.85 13.25 L-11.55 12.5 -11.4 12.1 -11.35 12.0 -11.1 12.1 -10.5 12.4 Q-5.95 13.95 -1.4 13.1 L-1.45 14.45 -8.35 14.45 -10.45 13.95 -11.2 13.45 Q-11.7 12.95 -11.85 13.25 M11.6 25.6 L11.2 25.45 9.9 24.95 13.95 25.5 17.05 26.25 13.35 26.35 11.6 25.6 M19.15 27.35 L12.15 27.75 10.0 27.55 9.4 27.45 9.75 27.45 10.0 27.4 18.85 26.8 20.25 26.2 22.15 25.6 Q22.15 26.3 21.3 26.85 L19.15 27.35 M-2.15 27.35 L-5.55 27.3 -5.55 27.2 -12.4 26.75 -13.0 26.6 -13.05 26.55 -13.15 26.4 -13.15 26.35 -12.85 26.15 -12.35 26.05 -12.05 26.05 -9.25 26.0 -2.15 27.35 M-10.35 27.05 L-11.75 26.95 -11.95 26.9 -10.35 27.05 M-7.8 24.8 Q-4.85 25.05 -2.3 26.6 L-7.25 25.15 -7.8 24.8" fill="#fcaa32" fill-rule="evenodd" stroke="none"/>
      <path d="M22.3 14.7 L22.4 15.0 22.2 20.3 20.45 20.6 20.35 20.15 19.55 20.75 19.35 20.75 17.65 21.4 16.25 21.7 15.8 21.75 Q13.8 22.3 12.15 21.2 L11.8 20.7 Q10.9 18.7 11.9 16.7 L12.0 16.65 Q14.65 18.6 17.85 18.9 L18.3 18.75 Q19.25 17.0 20.8 15.6 L22.2 14.6 22.3 14.7 M19.9 23.7 L19.9 24.0 19.1 24.55 17.25 24.35 19.9 23.7 M21.6 23.5 L21.25 24.0 20.95 23.3 Q21.55 23.05 21.55 23.3 L21.6 23.5 M-2.1 20.6 L-3.55 21.55 -9.4 21.1 -10.7 20.75 -10.9 20.65 -11.6 20.45 -12.4 20.05 -13.1 20.0 -13.3 19.5 -13.3 20.0 Q-13.35 20.5 -13.5 20.0 L-13.55 19.85 -13.7 18.65 -12.8 15.15 Q-11.5 16.6 -9.5 16.65 -5.45 16.9 -1.45 16.6 L-1.75 20.3 -2.1 20.6 M-13.1 23.3 L-12.1 23.35 -12.2 24.05 -13.1 23.3 M-10.65 23.7 L-8.15 23.8 Q-8.75 24.4 -9.8 24.35 L-10.65 24.05 -10.65 23.7" fill="#d36c07" fill-rule="evenodd" stroke="none"/>
      <path d="M18.85 -0.7 L18.9 -1.1 19.0 -1.1 19.45 -0.9 22.2 0.65 22.6 1.3 22.75 1.85 22.85 2.2 Q22.85 2.9 22.15 3.4 L20.5 3.85 22.25 2.9 Q22.5 2.1 21.95 1.7 L21.95 1.85 21.2 2.55 16.75 3.2 Q14.6 2.9 12.95 4.15 L11.55 5.1 13.2 4.55 10.45 6.25 9.55 5.1 Q9.2 4.3 9.35 3.5 L9.55 3.15 10.55 2.8 10.05 3.35 10.35 3.3 15.75 1.8 Q16.95 1.45 18.0 0.6 L18.6 -0.1 18.85 -0.7 M20.75 0.7 L19.95 0.35 19.65 1.0 15.4 2.5 15.6 2.55 19.3 2.3 Q20.2 2.25 20.85 1.5 L20.75 0.7 M21.0 22.2 L20.75 22.3 20.5 20.8 22.2 20.3 22.45 20.8 22.15 21.3 21.0 22.2 M17.75 21.55 L16.75 21.65 17.3 23.4 17.3 23.45 16.15 23.7 Q13.9 24.05 11.95 22.95 L11.75 22.75 12.15 21.2 Q13.8 22.3 15.8 21.75 L16.25 21.7 17.7 21.45 17.75 21.55 M21.25 24.0 Q21.25 24.55 20.7 24.4 L20.45 24.05 20.35 23.55 20.95 23.3 21.25 24.0 M-0.85 6.05 L-0.8 6.15 Q-0.9 6.1 -1.05 6.0 L-1.3 5.9 Q-2.55 5.35 -4.0 5.35 L-10.05 5.4 Q-12.05 4.95 -13.55 3.6 L-13.6 2.95 -12.85 0.8 -11.85 1.45 -9.3 1.85 -6.85 2.4 -3.5 3.7 -6.55 1.85 -3.25 3.25 -0.85 6.05 M-3.55 21.55 L-5.0 23.1 -9.95 22.75 -9.4 21.1 -3.55 21.55 M-11.75 22.4 L-11.35 22.65 Q-12.75 22.7 -13.6 21.75 L-13.65 21.5 -13.1 20.0 -12.4 20.05 -11.6 20.45 -12.6 22.2 -11.75 22.4 M-12.1 23.35 L-11.05 23.65 -11.15 23.95 Q-11.65 24.75 -12.2 24.05 L-12.1 23.35 M-8.45 4.4 Q-7.6 5.25 -6.0 5.25 L-3.4 5.3 -4.55 4.65 -4.1 4.75 -4.6 4.4 Q-7.25 3.55 -9.9 3.65 L-7.45 3.15 -8.55 2.7 -8.85 2.7 -12.45 1.6 -11.8 2.6 -11.3 3.15 -12.7 3.15 -12.0 3.65 Q-10.4 4.65 -8.45 4.4 M-6.1 4.45 L-7.75 4.7 -8.25 4.4 -6.1 4.45" fill="#f4d74d" fill-rule="evenodd" stroke="none"/>
      <path d="M4.9 8.75 L5.75 8.7 Q6.4 9.3 5.8 10.0 4.5 11.45 2.8 12.4 L1.1 15.15 1.65 19.9 0.65 19.9 Q0.8 16.95 0.6 14.05 L0.65 12.75 Q0.75 11.8 1.3 11.1 L2.0 9.9 2.15 9.45 3.4 9.55 2.4 10.5 Q1.1 11.25 0.85 12.85 L4.9 9.45 4.9 8.75 M7.75 8.75 L7.9 8.2 7.85 7.5 7.75 7.25 8.1 7.2 10.0 13.05 Q10.35 14.2 10.0 15.35 9.55 16.75 9.35 18.2 9.15 19.6 9.8 20.6 L10.35 21.3 10.65 21.75 9.4 21.1 9.2 20.6 Q9.0 20.35 8.7 20.35 L8.45 19.85 8.25 18.95 8.8 15.7 3.8 19.5 3.35 19.6 3.15 19.5 3.05 19.3 4.0 18.5 Q5.9 16.9 6.95 14.95 L8.0 12.4 8.2 11.0 7.8 9.0 7.75 8.75 M6.15 12.15 L5.5 13.8 4.4 13.6 Q4.35 12.15 5.65 11.6 L6.15 12.15" fill="#d11709" fill-rule="evenodd" stroke="none"/>
      <path d="M5.75 8.7 L7.75 8.75 7.8 9.0 6.4 9.6 4.8 11.4 Q3.95 12.1 3.5 13.25 2.85 14.8 2.55 16.5 2.25 17.95 3.05 19.3 L3.15 19.5 3.35 19.6 3.7 19.65 3.8 19.5 8.8 15.7 8.25 18.95 4.75 19.2 3.35 20.45 3.8 20.7 2.15 20.75 2.15 19.9 1.65 19.9 1.1 15.15 2.8 12.4 Q4.5 11.45 5.8 10.0 6.4 9.3 5.75 8.7 M7.75 7.25 L7.65 7.2 8.1 7.2 7.75 7.25 M10.65 21.75 L8.9 21.95 9.2 21.75 9.4 21.1 10.65 21.75 M7.2 21.55 L4.0 20.7 Q4.5 19.5 5.9 19.55 6.85 19.6 6.95 20.35 L7.2 21.55 M4.0 18.5 L4.55 16.05 5.5 15.15 Q7.35 13.4 8.2 11.0 L8.0 12.4 6.95 14.95 Q5.9 16.9 4.0 18.5 M8.45 19.85 L8.7 20.35 Q8.3 20.45 8.4 19.95 L8.45 19.85" fill="#f47003" fill-rule="evenodd" stroke="none"/>
      <path d="M1.8 7.95 L1.4 6.85 1.95 7.15 2.15 7.2 2.95 7.45 7.65 7.2 7.75 7.25 7.85 7.5 7.9 8.2 7.75 8.75 5.75 8.7 4.9 8.75 1.8 7.95" fill="#f7964d" fill-rule="evenodd" stroke="none"/>
      <path d="M1.8 7.95 L4.9 8.75 4.9 9.45 0.85 12.85 Q1.1 11.25 2.4 10.5 L3.4 9.55 2.15 9.45 1.8 7.95 M8.9 21.95 L7.85 22.05 7.2 21.55 6.95 20.35 Q6.85 19.6 5.9 19.55 4.5 19.5 4.0 20.7 L3.95 20.75 3.8 20.7 3.35 20.45 4.75 19.2 8.25 18.95 8.45 19.85 8.4 19.95 Q8.3 20.45 8.7 20.35 9.0 20.35 9.2 20.6 L9.4 21.1 9.2 21.75 8.9 21.95 M7.8 9.0 L8.2 11.0 Q7.35 13.4 5.5 15.15 L4.55 16.05 4.0 18.5 3.05 19.3 Q2.25 17.95 2.55 16.5 2.85 14.8 3.5 13.25 3.95 12.1 4.8 11.4 L6.4 9.6 7.8 9.0 M6.15 12.15 L5.65 11.6 Q4.35 12.15 4.4 13.6 L5.5 13.8 6.15 12.15 M3.35 19.6 L3.8 19.5 3.7 19.65 3.35 19.6" fill="#f4e206" fill-rule="evenodd" stroke="none"/>
      <path d="M18.6 -0.1 L18.0 0.6 Q16.95 1.45 15.75 1.8 L10.35 3.3 10.05 3.35 10.55 2.8 11.65 2.4 Q13.35 2.35 15.0 1.6 L15.4 1.3 15.4 1.05 17.65 0.25 18.6 -0.1 M-9.95 22.75 L-11.1 22.5 -10.7 20.75 -9.4 21.1 -9.95 22.75 M-10.9 20.65 L-11.75 22.4 -12.6 22.2 -11.6 20.45 -10.9 20.65 M-12.85 0.8 L-12.35 0.55 -11.7 0.6 Q-12.45 0.7 -11.75 0.8 L-10.25 1.15 -9.2 1.4 -8.45 1.55 -8.0 1.65 -6.55 1.85 -3.5 3.7 -6.85 2.4 -9.3 1.85 -11.85 1.45 -12.85 0.8 M19.15 27.35 L14.3 27.8 12.15 27.75 19.15 27.35 M-5.55 27.3 L-9.9 27.1 -10.35 27.05 -11.95 26.9 -12.1 26.9 -12.5 26.8 -12.4 26.75 -5.55 27.2 -5.55 27.3" fill="#f7e7a4" fill-rule="evenodd" stroke="none"/>
      <path d="M18.85 -0.7 L18.6 -0.1 17.65 0.25 18.85 -0.7 M22.3 4.0 L22.6 3.85 23.1 5.1 22.3 4.0 M21.85 7.35 Q21.4 10.2 21.65 13.1 L21.75 13.75 21.65 13.6 21.45 12.4 11.85 12.75 10.35 6.35 10.7 6.35 Q13.7 4.95 17.1 4.85 14.95 5.85 15.0 8.05 15.0 8.7 15.5 9.2 16.0 9.8 16.8 10.15 19.0 11.1 21.25 10.55 L21.85 7.35 M22.2 14.5 L22.3 14.7 22.2 14.6 22.2 14.5 M22.4 15.0 Q22.85 17.45 22.35 19.95 L22.35 20.2 22.9 20.45 22.5 21.1 21.0 22.2 22.15 21.3 22.45 20.8 22.2 20.3 20.5 20.8 20.45 20.6 22.2 20.3 22.4 15.0 M-1.05 6.0 Q0.6 8.9 -0.95 12.05 L-1.05 12.5 -1.6 20.15 -1.75 20.3 -1.45 16.6 -1.45 14.45 -1.4 13.1 Q-5.95 13.95 -10.5 12.4 L-11.1 12.1 Q-8.5 11.45 -6.6 9.3 L-5.8 8.6 Q-4.65 7.8 -5.4 6.45 L-1.6 5.9 -1.3 5.9 -1.05 6.0 M-11.35 22.65 Q-12.5 22.85 -13.75 22.0 L-14.1 21.6 -13.5 20.0 Q-13.35 20.5 -13.3 20.0 L-13.3 19.5 -13.1 20.0 -13.65 21.5 -13.6 21.75 Q-12.75 22.7 -11.35 22.65 M-11.55 12.5 L-11.7 12.1 -11.4 12.1 -11.55 12.5 M-14.4 5.55 L-14.25 4.3 -13.85 4.0 -13.85 4.05 -14.4 5.55 M-8.35 1.4 Q-6.15 1.5 -4.35 2.55 L-3.25 3.25 -6.55 1.85 -8.0 1.65 -6.9 1.7 -8.35 1.4 M16.25 21.7 L17.65 21.4 17.7 21.45 16.25 21.7 M19.35 20.75 L19.55 20.75 19.4 20.85 19.35 20.75 M-9.2 1.4 L-9.0 1.4 -8.85 1.4 -8.45 1.55 -9.2 1.4" fill="#f4e207" fill-rule="evenodd" stroke="none"/>
      <path d="M9.55 5.1 L10.45 6.25 13.2 4.55 20.5 3.85 22.15 3.4 Q22.85 2.9 22.85 2.2 L22.9 2.3 Q23.15 2.95 22.8 3.6 L22.6 3.85 22.3 4.0 20.65 4.25 17.1 4.85 Q13.7 4.95 10.7 6.35 L10.35 6.35 9.55 5.15 9.55 5.1 M-13.85 4.0 L-13.6 2.95 -13.55 3.6 Q-12.05 4.95 -10.05 5.4 L-4.0 5.35 Q-2.55 5.35 -1.3 5.9 L-1.6 5.9 -5.4 6.45 Q-7.6 6.95 -9.65 6.45 L-11.3 6.0 -13.85 4.05 -13.85 4.0" fill="#8e6106" fill-rule="evenodd" stroke="none"/>
      <path d="M13.2 4.55 L11.55 5.1 12.95 4.15 17.5 3.8 19.1 3.6 20.8 2.85 21.35 2.45 21.2 2.55 21.95 1.85 21.95 1.7 Q22.5 2.1 22.25 2.9 L20.5 3.85 13.2 4.55 M20.75 0.7 L20.85 1.5 Q20.2 2.25 19.3 2.3 L15.6 2.55 15.4 2.5 19.65 1.0 19.95 0.35 20.75 0.7 M-8.45 4.4 Q-10.4 4.65 -12.0 3.65 L-12.7 3.15 -11.3 3.15 -9.9 3.65 Q-7.25 3.55 -4.6 4.4 L-4.1 4.75 -4.55 4.65 -6.1 4.45 -8.25 4.4 -8.75 4.2 Q-9.3 4.1 -8.45 4.4 M-11.8 2.6 L-12.45 1.6 -8.85 2.7 -11.8 2.6" fill="#ddb303" fill-rule="evenodd" stroke="none"/>
      <path d="M23.1 5.1 L23.15 5.25 Q22.35 6.15 21.85 7.35 L21.25 10.55 Q19.0 11.1 16.8 10.15 16.0 9.8 15.5 9.2 15.0 8.7 15.0 8.05 14.95 5.85 17.1 4.85 L20.65 4.25 22.3 4.0 23.1 5.1 M-11.7 12.1 L-14.4 5.55 -13.85 4.05 -11.3 6.0 -9.65 6.45 Q-7.6 6.95 -5.4 6.45 -4.65 7.8 -5.8 8.6 L-6.6 9.3 Q-8.5 11.45 -11.1 12.1 L-11.35 12.0 -11.4 12.1 -11.7 12.1" fill="#af8f05" fill-rule="evenodd" stroke="none"/>
      <path d="M12.35 14.25 L12.0 16.65 11.9 16.7 Q10.9 18.7 11.8 20.7 L11.3 20.0 Q11.0 19.1 11.0 18.1 10.95 16.7 11.15 15.4 L11.15 14.3 Q10.95 11.75 9.95 9.4 L9.25 7.3 Q8.95 6.1 9.55 5.15 L10.35 6.35 11.85 12.75 12.35 14.25 M-0.85 6.05 Q1.7 8.05 0.5 11.1 L0.2 11.45 Q-0.45 12.3 -0.55 13.15 -0.9 16.35 -0.65 19.8 L-1.05 19.65 -1.6 20.15 -1.05 12.5 -0.95 12.05 Q0.6 8.9 -1.05 6.0 -0.9 6.1 -0.8 6.15 L-0.85 6.05" fill="#b7b6b6" fill-rule="evenodd" stroke="none"/>
      <path d="M12.95 4.15 Q14.6 2.9 16.75 3.2 L21.2 2.55 21.35 2.45 20.8 2.85 19.1 3.6 17.5 3.8 12.95 4.15 M18.55 23.15 L18.6 23.15 18.05 23.3 18.55 23.15 M15.4 1.05 L15.4 1.3 15.0 1.6 Q13.35 2.35 11.65 2.4 L11.25 2.4 11.65 2.25 15.0 1.0 15.4 1.05 M-11.7 0.6 L-9.2 1.25 -8.35 1.4 -6.9 1.7 -8.0 1.65 -8.45 1.55 -8.85 1.4 -9.2 1.25 -10.25 1.15 -11.75 0.8 Q-12.45 0.7 -11.7 0.6 M-4.55 4.65 L-3.4 5.3 -6.0 5.25 Q-7.6 5.25 -8.45 4.4 -9.3 4.1 -8.75 4.2 L-8.25 4.4 -7.75 4.7 -6.1 4.45 -4.55 4.65 M-11.3 3.15 L-11.8 2.6 -8.85 2.7 -8.55 2.7 -7.45 3.15 -9.9 3.65 -11.3 3.15" fill="#f9f2d7" fill-rule="evenodd" stroke="none"/>
      <path d="M-1.6 20.15 L-1.05 19.65 -0.65 19.8 1.0 20.4 0.6 24.45 Q0.0 25.1 -1.0 25.0 -2.85 24.85 -4.05 23.35 -4.0 22.35 -3.25 21.65 L-2.1 20.6 -1.75 20.3 -1.6 20.15 M0.45 20.6 L-0.7 20.0 -2.45 21.35 0.8 21.05 0.45 20.6" fill="#a0a0a0" fill-rule="evenodd" stroke="none"/>
      <path d="M0.45 20.6 L0.8 21.05 -2.45 21.35 -0.7 20.0 0.45 20.6" fill="#ffffff" fill-rule="evenodd" stroke="none"/>
    </g>
  </defs>
</svg>
