<?xml version="1.0" encoding="UTF-8" standalone="no"?>
<svg xmlns:xlink="http://www.w3.org/1999/xlink" height="82.0px" width="84.85px" xmlns="http://www.w3.org/2000/svg">
  <g transform="matrix(1.0, 0.0, 0.0, 1.0, 37.4, 42.25)">
    <use height="38.0" transform="matrix(1.0, 0.0, 0.0, 1.0, -11.95, -17.45)" width="32.05" xlink:href="#sprite0"/>
    <use height="38.95" transform="matrix(1.0, 0.0, 0.0, 1.0, -12.45, -17.95)" width="33.05" xlink:href="#sprite1"/>
    <use height="24.85" transform="matrix(1.0, 0.0, 0.0, 1.0, -16.15, -1.3)" width="41.45" xlink:href="#shape2"/>
  </g>
  <defs>
    <g id="sprite0" transform="matrix(1.0, 0.0, 0.0, 1.0, -0.05, 0.0)">
      <use height="38.0" transform="matrix(1.0, 0.0, 0.0, 1.0, 0.05, 0.0)" width="32.05" xlink:href="#shape0"/>
    </g>
    <g id="shape0" transform="matrix(1.0, 0.0, 0.0, 1.0, -0.05, 0.0)">
      <path d="M27.35 7.4 Q29.5 11.55 30.9 16.15 32.35 20.85 32.05 25.65 31.7 30.6 27.85 33.75 24.05 36.95 19.1 37.8 L16.5 38.0 Q12.9 38.0 9.45 36.85 4.8 35.25 2.35 31.35 -0.2 27.4 0.05 23.0 0.25 18.6 2.05 13.7 3.85 8.75 7.0 5.05 10.1 1.3 14.7 0.1 L16.5 0.0 Q18.4 0.05 20.2 0.8 24.95 2.85 27.35 7.4" fill="#c6a884" fill-rule="evenodd" stroke="none"/>
    </g>
    <g id="sprite1" transform="matrix(1.0, 0.0, 0.0, 1.0, 0.45, 0.5)">
      <use height="38.95" transform="matrix(1.0, 0.0, 0.0, 1.0, -0.45, -0.5)" width="33.05" xlink:href="#shape1"/>
    </g>
    <g id="shape1" transform="matrix(1.0, 0.0, 0.0, 1.0, 0.45, 0.5)">
      <path d="M27.35 7.4 Q24.95 2.85 20.2 0.8 17.55 -0.3 14.7 0.1 10.1 1.3 7.0 5.05 3.85 8.75 2.05 13.7 0.25 18.6 0.05 23.0 -0.2 27.4 2.35 31.35 4.8 35.25 9.45 36.85 14.1 38.4 19.1 37.8 24.05 36.95 27.85 33.75 31.7 30.6 32.05 25.65 32.35 20.85 30.9 16.15 29.5 11.55 27.35 7.4 Z" fill="none" stroke="#000000" stroke-linecap="round" stroke-linejoin="round" stroke-width="1.0"/>
    </g>
    <g id="shape2" transform="matrix(1.0, 0.0, 0.0, 1.0, 16.15, 1.3)">
      <path d="M20.0 -1.25 Q20.8 -1.2 21.25 -0.5 L21.4 0.35 21.85 0.5 23.25 2.85 24.45 4.1 25.1 5.25 Q25.55 6.3 24.85 7.3 L24.2 8.2 19.3 14.95 20.2 16.4 Q20.55 17.15 20.55 18.0 20.55 19.9 18.85 20.7 16.7 21.85 14.5 22.1 L10.25 22.45 7.7 22.55 Q6.8 23.3 5.55 23.55 3.7 23.6 2.7 21.95 L-5.1 21.2 Q-7.25 21.05 -9.35 21.2 L-10.35 20.7 -10.95 20.0 Q-12.05 16.95 -10.0 14.0 -11.95 10.9 -14.85 8.75 -15.9 7.9 -16.15 6.85 L-14.65 4.2 -15.3 3.1 -14.35 1.6 -13.0 0.2 -12.85 -0.7 -12.15 -1.25 Q-11.05 -1.35 -10.1 -0.85 L-6.6 0.65 Q-4.55 1.3 -3.25 3.1 L-3.0 3.3 -1.35 4.15 2.35 5.45 Q3.65 5.8 4.25 7.0 L5.45 7.1 6.55 6.15 12.85 4.05 13.2 3.15 19.3 -1.3 20.0 -1.25 M22.8 3.75 L22.2 1.15 21.25 0.65 21.05 0.05 20.0 -0.6 19.55 -0.4 Q16.4 1.35 14.05 4.2 L13.2 4.85 Q11.15 7.1 8.65 8.95 L7.65 9.7 7.45 9.85 7.55 10.2 7.55 12.1 Q7.85 12.7 7.8 13.65 7.75 14.5 7.05 15.05 5.35 16.4 5.5 18.45 L7.15 21.4 14.0 21.4 15.0 21.2 18.35 20.1 19.2 19.6 19.4 19.35 19.6 18.95 19.95 17.65 19.35 16.65 18.7 13.95 19.5 12.95 22.0 9.75 23.3 8.05 23.35 7.95 23.85 7.35 Q24.6 6.5 24.15 5.65 24.15 4.85 23.75 4.3 23.35 3.75 22.8 3.75 M3.7 7.65 Q3.3 6.75 2.5 6.35 L0.6 5.6 -2.5 4.7 3.05 9.1 3.7 7.65 M5.05 8.2 L5.05 8.1 4.8 8.2 4.15 8.2 Q3.55 9.4 3.4 10.55 3.15 12.2 4.75 12.5 6.1 12.65 6.95 11.9 7.3 11.15 6.85 10.1 L5.85 8.15 5.05 8.2 M2.35 9.5 L1.8 9.15 -4.7 6.45 -4.85 6.65 -5.2 7.05 -5.95 7.1 Q-9.5 6.85 -12.55 5.25 L-13.35 4.85 -13.45 4.8 -14.15 4.35 -14.45 3.15 Q-14.3 4.05 -13.3 4.45 -10.6 5.7 -7.95 6.3 -6.55 6.75 -5.15 6.3 L-3.65 3.55 -5.15 6.3 Q-6.55 6.75 -7.95 6.3 -10.6 5.7 -13.3 4.45 -14.3 4.05 -14.45 3.15 L-14.15 4.35 -13.45 4.8 -13.45 4.85 -13.5 4.85 -13.5 4.95 -13.9 5.3 -14.4 5.45 -14.85 5.55 -15.2 6.35 -15.05 7.15 -14.05 7.95 -12.75 9.35 -10.5 12.15 -9.8 13.2 Q-9.3 14.15 -9.15 15.25 L-9.85 16.55 -10.35 17.55 -10.4 19.45 -9.9 19.95 -8.45 20.35 -1.65 20.75 -0.2 20.9 2.1 21.2 1.45 20.1 1.15 19.2 Q0.75 17.75 1.45 16.55 L3.05 13.8 3.35 13.0 Q2.8 12.65 2.7 11.95 2.5 10.85 2.75 9.75 L2.65 9.75 2.35 9.5 M7.15 7.0 L6.15 7.4 7.15 9.1 12.3 5.55 8.2 6.7 7.15 7.0 M4.45 22.3 L4.55 22.7 6.4 22.5 6.6 22.3 6.6 22.25 Q5.45 20.55 4.6 18.55 4.05 17.25 4.95 16.15 L6.45 14.4 6.7 14.2 6.75 13.1 5.5 13.35 4.7 13.35 Q4.05 13.45 3.65 14.9 L3.5 15.35 3.35 15.55 Q1.95 17.15 2.35 19.0 2.6 20.25 3.45 21.35 L4.1 22.1 4.3 22.3 4.45 22.3 M1.8 9.15 L-2.4 5.6 Q-3.3 4.7 -3.65 3.55 L-4.35 2.65 -6.55 1.5 Q-9.15 0.3 -11.85 -0.8 L-12.85 0.0 -12.8 0.5 -14.45 3.15 -12.8 0.5 -12.85 0.0 -11.85 -0.8 Q-9.15 0.3 -6.55 1.5 L-4.35 2.65 -3.65 3.55 Q-3.3 4.7 -2.4 5.6 L1.8 9.15" fill="#000000" fill-rule="evenodd" stroke="none"/>
      <path d="M24.15 5.65 Q24.6 6.5 23.85 7.35 L23.35 7.95 23.4 7.9 23.4 7.85 24.1 5.85 24.15 5.65 M19.5 12.95 L18.7 13.95 18.65 13.55 19.5 12.95 M19.35 16.65 L19.95 17.65 19.6 18.95 19.35 16.65 M14.0 21.4 L7.15 21.4 Q8.3 21.2 9.15 20.6 10.05 20.1 10.35 19.2 L10.35 18.9 9.05 19.05 9.7 17.75 Q9.1 16.25 7.55 16.6 6.15 17.1 5.5 18.45 5.35 16.4 7.05 15.05 7.75 14.5 7.8 13.65 7.85 12.7 7.55 12.1 L7.55 10.2 13.65 7.4 13.4 7.75 Q12.95 8.4 12.95 9.35 L11.1 9.45 Q9.7 10.1 9.3 11.7 9.0 12.8 9.8 13.5 10.95 14.5 12.3 13.75 L10.25 21.25 14.0 21.4 M14.6 4.15 L17.55 1.5 15.25 4.35 14.6 4.15 M-3.15 7.5 L1.0 9.35 2.2 9.55 Q1.65 10.5 1.35 11.5 1.15 12.15 1.4 12.8 1.9 13.85 3.05 13.8 L1.45 16.55 Q-0.3 15.45 -1.8 17.1 -2.8 18.15 -2.65 19.4 -2.55 20.35 -1.65 20.75 L-8.45 20.35 Q-7.15 20.1 -6.0 19.3 -5.2 18.65 -5.5 17.85 L-6.8 18.0 -6.25 16.1 Q-7.05 15.4 -8.3 15.55 -9.3 15.85 -9.85 16.55 L-9.15 15.25 Q-9.3 14.15 -9.8 13.2 L-9.45 13.65 -8.85 13.8 Q-7.45 13.45 -6.65 12.2 -5.75 10.85 -5.6 9.1 L-3.15 7.5 M1.45 20.1 L2.1 21.2 -0.2 20.9 1.45 20.1 M-9.85 0.55 L-10.0 0.45 Q-7.4 1.35 -4.8 2.95 L-6.25 2.85 -7.5 2.3 Q-8.5 1.35 -9.85 0.55 M-8.55 4.35 L-9.0 3.9 -5.15 5.25 -6.4 5.35 Q-7.55 5.2 -8.55 4.35 M-13.35 4.85 L-13.45 4.85 -13.45 4.8 -13.35 4.85 M-13.5 4.95 L-13.55 5.15 -13.9 5.3 -13.5 4.95 M-14.4 5.45 L-14.9 5.85 -15.05 6.45 -14.05 7.95 -15.05 7.15 -15.2 6.35 -14.85 5.55 -14.4 5.45 M-1.25 11.25 Q-1.2 10.45 -2.2 10.2 L-3.4 10.15 Q-5.2 10.75 -5.6 12.6 -6.0 14.6 -3.95 14.95 L-2.6 14.6 Q-0.7 14.05 -0.6 12.4 L-1.9 12.55 -1.25 11.25" fill="#f9ce8a" fill-rule="evenodd" stroke="none"/>
      <path d="M18.7 13.95 L19.35 16.65 19.6 18.95 19.4 19.35 19.2 19.6 18.35 20.1 15.0 21.2 14.0 21.4 10.25 21.25 12.3 13.75 Q14.3 13.05 14.35 11.5 L13.05 11.65 13.65 10.0 12.95 9.35 Q12.95 8.4 13.4 7.75 L13.65 7.4 13.95 7.3 14.25 7.15 14.4 7.05 14.45 7.05 15.1 7.3 Q14.1 9.3 15.0 11.5 15.7 13.35 17.5 14.0 L18.65 13.55 18.7 13.95 M17.4 15.6 Q16.55 15.1 15.65 15.15 L14.7 15.75 Q13.7 16.55 13.35 17.65 13.0 18.7 13.95 19.4 15.05 20.25 16.45 19.65 18.4 19.0 18.45 17.45 L17.15 17.6 17.75 15.9 17.4 15.6" fill="#ebb663" fill-rule="evenodd" stroke="none"/>
      <path d="M7.15 21.4 L5.5 18.45 Q6.15 17.1 7.55 16.6 9.1 16.25 9.7 17.75 L9.05 19.05 10.35 18.9 10.35 19.2 Q10.05 20.1 9.15 20.6 8.3 21.2 7.15 21.4 M12.95 9.35 L13.65 10.0 13.05 11.65 14.35 11.5 Q14.3 13.05 12.3 13.75 10.95 14.5 9.8 13.5 9.0 12.8 9.3 11.7 9.7 10.1 11.1 9.45 L12.95 9.35 M2.2 9.55 L2.35 9.5 2.65 9.75 2.75 9.75 Q2.5 10.85 2.7 11.95 2.8 12.65 3.35 13.0 L3.05 13.8 Q1.9 13.85 1.4 12.8 1.15 12.15 1.35 11.5 1.65 10.5 2.2 9.55 M-4.85 6.65 L-3.15 7.5 -5.6 9.1 -5.95 7.1 -5.2 7.05 -4.85 6.65 M-9.85 16.55 Q-9.3 15.85 -8.3 15.55 -7.05 15.4 -6.25 16.1 L-6.8 18.0 -5.5 17.85 Q-5.2 18.65 -6.0 19.3 -7.15 20.1 -8.45 20.35 L-9.9 19.95 -10.4 19.45 -10.35 17.55 -9.85 16.55 M-1.65 20.75 Q-2.55 20.35 -2.65 19.4 -2.8 18.15 -1.8 17.1 -0.3 15.45 1.45 16.55 0.75 17.75 1.15 19.2 L1.45 20.1 -0.2 20.9 -1.65 20.75 M-1.25 11.25 L-1.9 12.55 -0.6 12.4 Q-0.7 14.05 -2.6 14.6 L-3.95 14.95 Q-6.0 14.6 -5.6 12.6 -5.2 10.75 -3.4 10.15 L-2.2 10.2 Q-1.2 10.45 -1.25 11.25" fill="#f7a731" fill-rule="evenodd" stroke="none"/>
      <path d="M7.55 10.2 L7.45 9.85 13.65 7.4 7.55 10.2 M2.2 9.55 L1.0 9.35 -3.15 7.5 -4.85 6.65 -4.7 6.45 1.8 9.15 2.35 9.5 2.2 9.55" fill="#602903" fill-rule="evenodd" stroke="none"/>
      <path d="M22.8 3.75 Q23.35 3.75 23.75 4.3 24.15 4.85 24.15 5.65 L23.65 5.05 23.3 5.0 Q21.95 5.65 21.0 6.55 L19.8 7.45 Q17.55 8.6 16.7 10.75 L16.35 12.25 16.4 13.05 17.4 13.75 Q18.65 13.85 19.35 12.75 20.25 11.35 21.75 9.95 L22.0 9.75 19.5 12.95 18.65 13.55 17.5 14.0 Q15.7 13.35 15.0 11.5 14.1 9.3 15.1 7.3 L20.4 6.1 Q22.05 5.65 22.85 4.5 L22.8 3.8 22.8 3.75 M-5.6 9.1 Q-5.75 10.85 -6.65 12.2 -7.45 13.45 -8.85 13.8 L-9.45 13.65 -9.8 13.2 -10.5 12.15 -12.75 9.35 -14.05 7.95 -15.05 6.45 -14.9 5.85 -14.4 5.45 -13.9 5.3 -13.55 5.15 -13.5 4.95 -13.5 4.85 -13.45 4.85 -13.35 4.85 -12.55 5.25 Q-9.5 6.85 -5.95 7.1 L-5.6 9.1" fill="#ce933e" fill-rule="evenodd" stroke="none"/>
      <path d="M7.45 9.85 L7.65 9.7 8.65 8.95 Q11.15 7.1 13.2 4.85 L14.05 4.2 14.0 4.45 14.25 5.45 Q14.55 6.35 15.2 6.75 L15.45 6.85 16.65 6.55 21.3 5.15 Q22.6 4.85 22.8 3.8 L22.85 4.5 Q22.05 5.65 20.4 6.1 L15.1 7.3 14.45 7.05 14.4 7.05 14.25 7.15 13.95 7.3 13.65 7.4 7.45 9.85" fill="#ad4c04" fill-rule="evenodd" stroke="none"/>
      <path d="M14.05 4.2 Q16.4 1.35 19.55 -0.4 L20.0 -0.6 21.05 0.05 21.25 0.65 22.2 1.15 22.8 3.75 22.8 3.8 Q22.6 4.85 21.3 5.15 L16.65 6.55 15.45 6.85 15.2 6.75 Q14.55 6.35 14.25 5.45 L14.0 4.45 14.05 4.2 M14.6 4.15 Q14.25 4.65 14.5 5.3 14.7 5.9 15.35 6.3 L17.75 5.9 Q20.3 5.35 22.35 4.0 22.6 3.35 22.35 2.65 22.1 1.8 21.3 1.5 20.9 1.5 20.7 1.15 L20.65 0.7 19.75 0.05 17.55 1.5 14.6 4.15 M21.25 3.15 Q21.9 2.65 21.3 2.6 19.7 2.55 18.65 4.05 18.2 4.7 18.75 4.35 L18.8 4.3 18.85 4.25 21.25 3.15 21.55 3.2 Q21.8 3.5 21.5 3.65 L18.5 4.5 18.75 4.35 18.5 4.5 21.5 3.65 Q21.8 3.5 21.55 3.2 L21.25 3.15 18.85 4.25 18.8 4.3 18.75 4.35 Q18.2 4.7 18.65 4.05 19.7 2.55 21.3 2.6 21.9 2.65 21.25 3.15 M19.7 1.1 Q20.15 0.8 20.1 1.45 L19.6 2.3 18.7 3.25 Q17.9 3.95 17.1 4.3 16.6 4.55 16.25 4.9 15.5 5.6 15.35 4.8 15.7 4.05 16.4 3.45 17.9 2.0 19.7 1.1 M-9.85 0.55 L-11.55 -0.2 -12.35 0.15 -12.35 1.1 -13.5 2.35 Q-14.15 3.05 -13.8 3.75 -12.7 4.5 -11.25 4.95 L-9.0 5.6 -5.1 5.75 -4.35 3.45 -4.8 2.95 Q-7.4 1.35 -10.0 0.45 L-9.85 0.55 M-7.2 5.3 L-13.2 3.25 -11.1 3.35 -9.75 4.1 -7.2 5.3 M-5.1 3.9 Q-7.65 4.5 -9.65 3.15 L-11.2 1.9 -12.0 1.0 -9.0 2.85 -5.1 3.9" fill="#e26905" fill-rule="evenodd" stroke="none"/>
      <path d="M17.55 1.5 L19.75 0.05 20.65 0.7 20.7 1.15 Q20.9 1.5 21.3 1.5 22.1 1.8 22.35 2.65 22.6 3.35 22.35 4.0 20.3 5.35 17.75 5.9 L15.35 6.3 Q14.7 5.9 14.5 5.3 14.25 4.65 14.6 4.15 L15.25 4.35 17.55 1.5 M19.7 1.1 Q17.9 2.0 16.4 3.45 15.7 4.05 15.35 4.8 15.5 5.6 16.25 4.9 16.6 4.55 17.1 4.3 17.9 3.95 18.7 3.25 L19.6 2.3 20.1 1.45 Q20.15 0.8 19.7 1.1 M-4.8 2.95 L-4.35 3.45 -5.1 5.75 -9.0 5.6 -11.25 4.95 Q-12.7 4.5 -13.8 3.75 -14.15 3.05 -13.5 2.35 L-12.35 1.1 -12.35 0.15 -11.55 -0.2 -9.85 0.55 Q-8.5 1.35 -7.5 2.3 L-6.25 2.85 -4.8 2.95 M-8.55 4.35 Q-7.55 5.2 -6.4 5.35 L-5.15 5.25 -9.0 3.9 -8.55 4.35 M-7.2 5.3 L-6.4 5.35 -7.2 5.3 -9.75 4.1 -11.1 3.35 -13.2 3.25 -7.2 5.3 M-5.1 3.9 L-9.0 2.85 -12.0 1.0 -11.2 1.9 -9.65 3.15 Q-7.65 4.5 -5.1 3.9" fill="#ef9e29" fill-rule="evenodd" stroke="none"/>
      <path d="M4.8 8.2 L5.05 8.1 5.05 8.2 4.1 11.55 3.95 11.65 3.6 11.5 4.05 8.95 4.3 8.35 4.8 8.2 M3.1 7.4 Q2.5 7.5 1.9 7.0 L1.25 6.4 2.8 6.7 3.1 7.4 M8.2 6.7 Q8.95 6.85 8.5 7.15 L7.55 7.5 Q7.15 7.7 6.8 7.5 L6.9 7.3 7.15 7.0 8.2 6.7 M5.5 13.35 L5.4 13.95 5.05 14.65 3.95 16.35 Q3.6 17.0 3.6 17.65 3.55 20.05 5.3 22.0 L4.45 22.3 4.3 22.3 4.1 22.1 3.45 21.35 Q2.6 20.25 2.35 19.0 1.95 17.15 3.35 15.55 L3.5 15.35 4.7 13.35 5.5 13.35" fill="#ffffff" fill-rule="evenodd" stroke="none"/>
      <path d="M3.7 7.65 L3.05 9.1 -2.5 4.7 0.6 5.6 2.5 6.35 Q3.3 6.75 3.7 7.65 M3.1 7.4 L2.8 6.7 1.25 6.4 1.9 7.0 Q2.5 7.5 3.1 7.4 M7.15 7.0 L6.9 7.3 6.8 7.5 Q7.15 7.7 7.55 7.5 L8.5 7.15 Q8.95 6.85 8.2 6.7 L12.3 5.55 7.15 9.1 6.15 7.4 7.15 7.0 M4.45 22.3 L5.3 22.0 Q3.55 20.05 3.6 17.65 3.6 17.0 3.95 16.35 L5.05 14.65 5.4 13.95 5.5 13.35 6.75 13.1 6.7 14.2 6.45 14.4 4.95 16.15 Q4.05 17.25 4.6 18.55 5.45 20.55 6.6 22.25 L6.6 22.3 6.4 22.5 4.55 22.7 4.45 22.3 M4.7 13.35 L3.5 15.35 3.65 14.9 Q4.05 13.45 4.7 13.35" fill="#d1d1d1" fill-rule="evenodd" stroke="none"/>
      <path d="M17.4 15.6 L17.75 15.9 17.15 17.6 18.45 17.45 Q18.4 19.0 16.45 19.65 15.05 20.25 13.95 19.4 13.0 18.7 13.35 17.65 13.7 16.55 14.7 15.75 L15.65 15.15 Q16.55 15.1 17.4 15.6" fill="#eb971c" fill-rule="evenodd" stroke="none"/>
      <path d="M23.35 7.95 L23.3 8.05 22.0 9.75 21.75 9.95 Q20.25 11.35 19.35 12.75 18.65 13.85 17.4 13.75 L16.4 13.05 16.35 12.25 16.7 10.75 Q17.55 8.6 19.8 7.45 L21.0 6.55 Q21.95 5.65 23.3 5.0 L23.65 5.05 24.15 5.65 24.1 5.85 23.4 7.85 23.4 7.9 23.35 7.95" fill="#b27215" fill-rule="evenodd" stroke="none"/>
      <path d="M4.8 8.2 L4.3 8.35 4.05 8.95 3.6 11.5 3.95 11.65 4.1 11.55 5.05 8.2 5.85 8.15 6.85 10.1 Q7.3 11.15 6.95 11.9 6.1 12.65 4.75 12.5 3.15 12.2 3.4 10.55 3.55 9.4 4.15 8.2 L4.8 8.2" fill="#bcbcbc" fill-rule="evenodd" stroke="none"/>
    </g>
  </defs>
</svg>
