<svg xmlns:xlink="http://www.w3.org/1999/xlink" height="82" width="84.85" xmlns="http://www.w3.org/2000/svg"><g transform="translate(37.4 42.25)"><use height="38" transform="translate(-11.95 -17.45)" width="32.05" xlink:href="#a"/><use height="38.95" transform="translate(-12.45 -17.95)" width="33.05" xlink:href="#b"/><use height="31.45" transform="translate(-14.15 -3.45)" width="36.05" xlink:href="#c"/></g><defs><path d="M27.35 7.4q2.15 4.15 3.55 8.75 1.45 4.7 1.15 9.5-.35 4.95-4.2 8.1-3.8 3.2-8.75 4.05l-2.6.2q-3.6 0-7.05-1.15-4.65-1.6-7.1-5.5Q-.2 27.4.05 23q.2-4.4 2-9.3Q3.85 8.75 7 5.05 10.1 1.3 14.7.1l1.8-.1q1.9.05 3.7.8 4.75 2.05 7.15 6.6" fill="#aa7355" fill-rule="evenodd" transform="translate(-.05)" id="d"/><path d="M27.35 7.4Q24.95 2.85 20.2.8 17.55-.3 14.7.1 10.1 1.3 7 5.05q-3.15 3.7-4.95 8.65-1.8 4.9-2 9.3-.25 4.4 2.3 8.35 2.45 3.9 7.1 5.5 4.65 1.55 9.65.95 4.95-.85 8.75-4.05 3.85-3.15 4.2-8.1.3-4.8-1.15-9.5-1.4-4.6-3.55-8.75Z" fill="none" stroke="#000" stroke-linecap="round" stroke-linejoin="round" transform="translate(.45 .5)" id="e"/><use height="38" width="32.05" xlink:href="#d" id="a"/><use height="38.95" width="33.05" xlink:href="#e" id="b"/><g id="c" fill-rule="evenodd"><path d="m17.9 15.75.15.55-.2.65-.35-.25-.25-.3v-.55l.65-.1m-27.25 3 .25-.8.7.15-.05.15-.5.4-.4.1m19.7-2.1L5.3 17.7q-4.3.8-8.4-.15l.75-.25 2.05.1q4.1 0 8.2-.9l2.45.15" fill="#a39f7c" transform="translate(14.15 3.45)"/><path d="M8.75 17.85 2.5 18.9l-10.95-.65.05-.15 5.3-.55q4.1.95 8.4.15l5.05-1.05 6.9-.8v.55l-6.7 1.1-1.8.35" fill="#eae9d3" transform="translate(14.15 3.45)"/><path d="m9.45 17.95-.05-.2-.65.1 1.8-.35 6.7-1.1.25.3-.6-.15-7.45 1.4m-6.95.95-.1.35-10.1-.3-1.25-.3.5-.4 10.95.65" fill="#cccab2" transform="translate(14.15 3.45)"/><path d="m17.85 16.95.05.05-.65.15.8 1.6.1.25-1.6.55v-.05l1.15-.45-.9-1.95-1.4.35-2.75.45.4 1.5.05.4q-.4.7-1.45.25h-.05l1.15-.2-.65-2.2-1.15.55-1.35.2-.15-.45 7.45-1.4.6.15.35.25m.95 1.4.75.9-.5 1.9.65.8q1.1 1.1 1.05 2.55-.95.9-2.45 1.25L8.55 27.5q-2 .2-3.9-.65L-2.4 28l-6.2-.65q-1.9-.1-3.25-1.2-.65-.6-.3-1.5.7-1.85 2.45-2.8l.2-.75.5.25-.15 1.05q-1.55.8-2 2.4.45 1.5 2.25 1.75l5.45.95 1.8-.15 5.5-.65.75-1.2-.15-.4-.2-1.25.95.85-.15 1.25.1.3L7 27l4.3-.8-.3.1-.9.3 3.2-.75 6.05-1.1.6-.9q-.25-1.4-1.5-2.55l.25-1.9-.4-.45.35-.15.15-.45m-16.4.9v.65l-1.7.35.3 1.6.05.35q-.05.2-.15 0l-.45.15-.35-2.5-1.45.4.05.2-3.35-.45-.1 1.75-.05.35-1.4-.05h.75v-2.4l-1.25-.15-1-.55 10.1.3" fill="#335572" transform="translate(14.15 3.45)"/><path d="M11.6 20.05h.05q1.05.45 1.45-.25l3-.2.2-.05h.25l1.6-.55.15-.05.4.45-.25 1.9q1.25 1.15 1.5 2.55l-.6.9-6.05 1.1 3.7-.9h.85l-4.05.15q-1.25.65-2.5 1.1L7 27l3.85-1.15-1.4.3q-1.3.1-2.75-.55l-.65-.4-.35-.55q.9-.95 2.5-.9l2.55-.65-10.25.45 1.8.4q.65.3 1.1.95l.8 1.05.25-.85.15.4-.75 1.2-5.5.65-1.8.15-5.45-.95q-1.8-.25-2.25-1.75.45-1.6 2-2.4l.15-1.05 1.55.45.5.2.75.05 1.4.05 3.9.25.4.05.95-.05.45-.15q.1.2.15 0l1.7-.3.4.65 7.05-1.35-.1-.95 1.15-.2h.35M8.45 22.3l.75-.1 1.9-.3 1.4-.25 1.3-.95-5.35 1.6m5.95-1.1-1.65.4 1.65-.4 1.6-.4.6-.2-2.2.6m4.15.9-.3-.35-.2-.95-7.3 3.45 7.8-2.15m-17.3 4.6q.4.15.25-.1l-9.1-.95Q-4 27.35.25 26.7h1m1.5-1.4-.65-.45q-.8-.4-1.6-.7l-5.3-1.1-4.15-.55-.35.6q1.45.65 3.15.9 4.5.15 8.9 1.3m-12.25-1q2.3.2 4.1 1.15l1.4.2 1.05.15-1.6-.65 5.4.4-6-1.3-2.75-.1h-1.9q-.65.05.3.15" fill="#71889e" transform="translate(14.15 3.45)"/><path d="m11.65 3.9-1.75.8q-4.5.9-8.95 0l-4.45-.95-1.15-.85-.3-.4L1.1 4.2l2.8.35 2.65-.15 5.1-.5M-13.7 2.35l.55.75.05.8.1.35 1.05 1.9q1.1 2.85 1.9 5.65l-.85.35-1.2-3.75-1.1-2.65-.45-1.65-.05-1.75M20.6 3.6l.45-1.4q.65.75.75 1.7l.1 2.4H20v-.55l1.25-.95-.1-.8-.55-.4m-2.2 9.95q.85.35.45 1.6l-.05.25-.9.35-.65.1-6.9.8-2.45-.15q-4.8-.95-9.35.55l-.9.25-.75.25-5.3.55-.7-.15-1-.7.05-1.35.9-.3v1.3l1 .35 1.8.2 4-.5L.7 16.3l9.2-.35 6.65-.45q1 .15 1.75-.45l.1-1.5m-10.8 5.7.45-.35-.45.1-1.6.35 2.7-.65v.05h-.05l-1.1 1.05 1.55-.3-.9 1h-.65l-.2-.1-.05-.15.05-.2.15-.3-1.1.15 1.2-.65" fill="#b3c1c6" transform="translate(14.15 3.45)"/><path d="m11.65 3.9 1.6-.9.4-.9 4.55-3.35q1.1-.85 2.35-.3l.3.55.25 1.6-.05 1.6-.45 1.4q-1.45 2.2-3.3 3.85l-.2.1-.25.65q-.1.55-.05 1.15h-.25l-.25-3.1.8.65 3.45-4.5q.2-1.9-.65-3.55l-.2-.2-4.4 3.45-.05-.05-.4.4-.95.75-3.1 2.1Q6.7 7.4 2.25 6.85q-2-.2-3.55-.95-2.45-1.2-4.55-3.05l-.25-.2.1-.15h.05l-.85-.85q-.3-.35-.55-.35l-4.3-4.25-.25-.1-.85.5-.75 4.15.4.5.85 1q1.3 1.4 2.45 2.95.4.5.75 0Q-7.8 7.3-7.6 9.15q.15 1.15-.45 2.05l-1.7.5 1.3-1.1q.5-1.7-.1-3.3l-.35-.85-.95.5-3.3-3.85-.55-.75-.45-.55.8-4.6q.9-.8 2.1-.65.95.3 1.7.9L-6.05.8l1.1 1.5v.2l.3.4 1.15.85q4.35 2.4 9.3 2.4Q7.85 5.7 9.9 4.7l1.75-.8M17.9 17l.9 1.35-.15.45-.35.15-.15.05-.1-.25.05-.3-.05-.55q-.25-.75-.8-.75l.65-.15m-27.4 4.1-.55-.25.1-1.55.6-.55.4-.1 1.25.3 1 .55-.05.1-2.6-.65-.5 1.55 2.5.95-.1.35-1.55-.45-.5-.25m-.55-5.2q-.75-.25-.9-1.25l-.25-1.4 1.2 1.8 1.6-.2q1.8.95 3.85.6L.9 15l9.5-.5 1.2.1 3.8-.4q1.05-.3 1.25-1.15l.8.05q.15 1.25-1.05 1.95l-.1.1-11.4.1-4.45.35q-4.7.6-9.2-.2l-.4.2-.9.3m19.5 2.05.15.45.45 1.5 1.15-.2.05.35-1.15.2.1.95-7.05 1.35-.4-.65-1.7.3-.05-.35 1.65-.3-.25-1.65v-.65l.1-.35 6.25-1.05.65-.1.05.2m3.65 1.85-.05-.4 2.95-.2.1.4-3 .2m3.45-.3v.05h-.25l.25-.05m-10.4-.9-3.2.65-.15 2.3q1 1.05 2.6.5l2.85-.75 1.1-.2.35-.85-.65-2.1-2.9.45M-.9 22.35l-3.9-.25.05-.35L-1 22l.1.35" fill="#020200" transform="translate(14.15 3.45)"/><path d="m19.2-.2.2-.15.45 2.35-1.6 2.1-2-2.35L18.5.25 16.75 1.5q1.05-.1 1.9-1.05l.55-.65M-8.05 11.2q.6-.9.45-2.05-.2-1.85-1.45-3.1l3.2-3.2Q-3.75 4.7-1.3 5.9q1.55.75 3.55.95Q6.7 7.4 10.8 5.3l3.1-2.1 2.4 3.05.25 3.1-3.95-.1-.75-2.7-2.15 2.7-2.35.05-.25-.85-6.2.5v.65l-1.9.25-1.8-2.5.2 2.8-.55-2.65-.75 2.85-4.15.85m9.5 1.15L1.3 9.4l5.3-.35.25 3.65-5.35.15 5.2-1.1-3.8.45 3.05-2.6-4.2 1.95-.3.8M9.6 18.4l1.35-.2.25 1.5-1.15.2-.45-1.5m3.45 1-.4-1.5 2.75-.45.6 1.75-2.95.2m5-.65-.8-1.6q.55 0 .8.75l.05.55-.05.3m-26.45-3.9 9.4-2 .1.8 6.2-.25.1-.85 9.25.5q-.2.85-1.25 1.15l-3.8.4-1.2-.1-9.5.5-5.45.45q-2.05.35-3.85-.6M2.4 19.9l.25 1.65-1.65.3-.3-1.6 1.7-.35m7.3.35-.2.45-2.3-.1-.15-.15.1-.25-1.6.25-.55.15.3-.2 2.3-1.15-1.2.65 1.1-.15-.15.3-.05.2.05.15.2.1h.65l.9-1-1.55.3 1.1-1.05h.05l.05-.1-.05.05-2.7.65L7.6 19l-3.5.9 2.05-1.3 2.9-.45.65 2.1m-11 .2L-1 22l-3.75-.25.1-1.75 3.35.45m-10.15-22.1-.8 2.75 2.1-1.75-1.3-1m-.05-.6 3.45 3.5-2.7 2.55-2.05-2.45.55-2.6.75-1m4.75 21.85-.6 1.85-2.5-.95.5-1.55 2.6.65" fill="#4f4f4e" transform="translate(14.15 3.45)"/><path d="m9.7 20.25-.35.85-1.1.2-2.85.75q-1.6.55-2.6-.5l.15-2.3 3.2-.65-2.05 1.3 3.5-.9.45-.1-.45.35-2.3 1.15-.3.2.55-.15 1.6-.25-.1.25.15.15 2.3.1.2-.45m-1-1.5v-.05l.05-.05-.05.1" fill="#2d2d28" transform="translate(14.15 3.45)"/><path d="m10.95 18.2 1.15-.55.65 2.2-1.15.2h-.35l-.05-.35-.25-1.5m4.45-.75 1.4-.35.9 1.95-1.15.45-.25.05-.2.05-.1-.4-.6-1.75M.45 22.35l-.95.05-.4-.05L-1 22l-.3-1.55-.05-.2 1.45-.4.35 2.5m-6.65-.3-.75-.05-.5-.2.1-.35.6-1.85.05-.1 1.25.15v2.4h-.75" fill="#597999" transform="translate(14.15 3.45)"/><path d="m4.45 25.1-.25.85-.8-1.05q-.45-.65-1.1-.95l-1.8-.4 10.25-.45-2.55.65q-1.6-.05-2.5.9l.35.55.65.4q1.45.65 2.75.55l1.4-.3L7 27l-1.85-.75-.1-.3.15-1.25-.95-.85.2 1.25m14.1-3-7.8 2.15 7.3-3.45.2.95.3.35m-17.3 4.6h-1q-4.25.65-7.85-1.05l9.1.95q.15.25-.25.1m1.5-1.4q-4.4-1.15-8.9-1.3-1.7-.25-3.15-.9l.35-.6 4.15.55 5.3 1.1q.8.3 1.6.7l.65.45" fill="#466884" transform="translate(14.15 3.45)"/><path d="M11.3 26.2q1.25-.45 2.5-1.1l4.05-.15H17l-3.7.9-3.2.75.9-.3.3-.1m-2.85-3.9 5.35-1.6-1.3.95-1.4.25-1.9.3-.75.1m5.95-1.1 2.2-.6-.6.2-1.6.4m-23.9 3.1q-.95-.1-.3-.15h1.9l2.75.1 6 1.3-5.4-.4 1.6.65-1.05-.15-1.4-.2q-1.8-.95-4.1-1.15" fill="#9bb2c4" transform="translate(14.15 3.45)"/><path d="M9.9 4.7q-2.05 1-4.1 1.45-4.95 0-9.3-2.4l4.45.95q4.45.9 8.95 0m-23.05-1.6 3.3 3.85.95-.5.35.85q.6 1.6.1 3.3l-1.3 1.1-.3.1q-.8-2.8-1.9-5.65L-13 4.25l-.1-.35-.05-.8M16.8 9.35q-.05-.6.05-1.15l.25-.65.2-.1q1.85-1.65 3.3-3.85l.55.4.1.8-1.25.95v.55l-.05 2.2q0 .9-.5 1.7-1-.8-2.1-.8l-.55-.05m1.5 3.75.1.45-.1 1.5q-.75.6-1.75.45l-6.65.45-9.2.35-3.05.65-4 .5-1.8-.2-1-.35v-1.3l.4-.2q4.5.8 9.2.2l4.45-.35 11.4-.1.1-.1q1.2-.7 1.05-1.95h.85" fill="#fff" transform="translate(14.15 3.45)"/><path d="m18.5.25.7-.5v.05l-.55.65q-.85.95-1.9 1.05L18.5.25m-6.65 6.3.75 2.7h-1.1l.25-2.3.1-.4m-14.45 3.6-1.3.2.75-2.85.55 2.65m4.05 2.2.3-.8 4.2-1.95-3.05 2.6 3.8-.45-5.2 1.1-.05-.5m-12.9-14 1.3 1-2.1 1.75.8-2.75" fill="#8c8c8c" transform="translate(14.15 3.45)"/><path d="M19.2-.2v-.05l-.7.5-2.25 1.5 2 2.35 1.6-2.1-.45-2.35-.2.15M-9.75 11.7l1.7-.5 4.15-.85 1.3-.2-.2-2.8 1.8 2.5L.9 9.6v-.65l6.2-.5.25.85 2.35-.05 2.15-2.7-.1.4-.4 2.35.15-.05h1.1l3.95.1h.25l.55.05q1.1 0 2.1.8l-1.15 2.9h-.85l-.8-.05-9.25-.5-.1.85-6.2.25-.1-.8-9.4 2-1.6.2-1.2-1.8-.15-.8.45-.3.85-.35.3-.1m.7-5.65q-.35.5-.75 0-1.15-1.55-2.45-2.95l-.85-1-.4-.5.75-4.15.85-.5.25.1 4.3 4.25q-.35-.05-.65.4l-1.45 1.7-.95 1q-.3.5.35 1l.25.3.35.3q1.4-.8 2.3-2.1l1.05-1.25.25.2-3.2 3.2M13.9 3.2l.95-.75-.65.65 2.65 3.4 1.25-1.4-2.8-3 4.4-3.45.2.2q.85 1.65.65 3.55L17.1 6.9l-.8-.65-2.4-3.05m-25.4-5.45-.75 1-.55 2.6 2.05 2.45 2.7-2.55-3.45-3.5" fill="#282828" transform="translate(14.15 3.45)"/><path d="M-7.35 1.3q.25 0 .55.35l.85.85H-6l-.1.15-1.05 1.25q-.9 1.3-2.3 2.1l-.35-.3-.25-.3q-.65-.5-.35-1l.95-1L-8 1.7q.3-.45.65-.4m22.2 1.15.4-.4.05.05 2.8 3-1.25 1.4-2.65-3.4.65-.65" fill="#070700" transform="translate(14.15 3.45)"/></g></defs></svg>