<?xml version="1.0" encoding="UTF-8" standalone="no"?>
<svg xmlns:xlink="http://www.w3.org/1999/xlink" height="82.0px" width="84.85px" xmlns="http://www.w3.org/2000/svg">
  <g transform="matrix(1.0, 0.0, 0.0, 1.0, 37.4, 42.25)">
    <use height="38.0" transform="matrix(1.0, 0.0, 0.0, 1.0, -11.95, -17.45)" width="32.05" xlink:href="#sprite0"/>
    <use height="38.95" transform="matrix(1.0, 0.0, 0.0, 1.0, -12.45, -17.95)" width="33.05" xlink:href="#sprite1"/>
    <use height="27.3" transform="matrix(1.0, 0.0, 0.0, 1.0, -18.75, -3.2)" width="45.75" xlink:href="#shape2"/>
  </g>
  <defs>
    <g id="sprite0" transform="matrix(1.0, 0.0, 0.0, 1.0, -0.05, 0.0)">
      <use height="38.0" transform="matrix(1.0, 0.0, 0.0, 1.0, 0.05, 0.0)" width="32.05" xlink:href="#shape0"/>
    </g>
    <g id="shape0" transform="matrix(1.0, 0.0, 0.0, 1.0, -0.05, 0.0)">
      <path d="M27.35 7.4 Q29.5 11.55 30.9 16.15 32.35 20.85 32.05 25.65 31.7 30.6 27.85 33.75 24.05 36.95 19.1 37.8 L16.5 38.0 Q12.9 38.0 9.45 36.85 4.8 35.25 2.35 31.35 -0.2 27.4 0.05 23.0 0.25 18.6 2.05 13.7 3.85 8.75 7.0 5.05 10.1 1.3 14.7 0.1 L16.5 0.0 Q18.4 0.05 20.2 0.8 24.95 2.85 27.35 7.4" fill="#ffffff" fill-rule="evenodd" stroke="none"/>
    </g>
    <g id="sprite1" transform="matrix(1.0, 0.0, 0.0, 1.0, 0.45, 0.5)">
      <use height="38.95" transform="matrix(1.0, 0.0, 0.0, 1.0, -0.45, -0.5)" width="33.05" xlink:href="#shape1"/>
    </g>
    <g id="shape1" transform="matrix(1.0, 0.0, 0.0, 1.0, 0.45, 0.5)">
      <path d="M27.35 7.4 Q24.95 2.85 20.2 0.8 17.55 -0.3 14.7 0.1 10.1 1.3 7.0 5.05 3.85 8.75 2.05 13.7 0.25 18.6 0.05 23.0 -0.2 27.4 2.35 31.35 4.8 35.25 9.45 36.85 14.1 38.4 19.1 37.8 24.05 36.95 27.85 33.75 31.7 30.6 32.05 25.65 32.35 20.85 30.9 16.15 29.5 11.55 27.35 7.4 Z" fill="none" stroke="#000000" stroke-linecap="round" stroke-linejoin="round" stroke-width="1.0"/>
    </g>
    <g id="shape2" transform="matrix(1.0, 0.0, 0.0, 1.0, 18.75, 3.2)">
      <path d="M7.4 9.65 L7.05 10.35 6.9 10.35 6.85 10.35 Q6.7 9.7 7.3 9.45 L7.4 9.65" fill="#ffffff" fill-rule="evenodd" stroke="none"/>
      <path d="M18.35 -3.15 L18.6 -2.95 Q19.05 -1.6 19.8 -0.3 L20.3 0.85 20.3 0.45 20.1 1.95 20.2 2.05 20.4 2.45 20.4 3.2 Q22.65 4.4 24.7 6.1 L25.3 6.65 Q28.05 10.15 26.4 14.6 L25.5 16.2 Q23.5 18.7 20.2 18.1 L20.5 18.75 Q21.0 19.75 20.15 20.35 17.4 22.2 14.35 23.5 L11.9 23.95 11.85 23.8 11.7 23.5 11.0 23.7 8.45 23.95 6.55 23.8 4.8 23.45 4.5 23.1 3.15 23.05 3.15 23.15 3.15 23.3 3.05 23.35 Q2.6 24.2 1.3 24.1 L-1.8 23.7 -2.9 23.45 -3.35 23.4 -3.4 23.5 -3.6 23.8 -3.6 23.95 -6.1 23.5 Q-9.15 22.2 -11.9 20.35 -12.75 19.75 -12.25 18.75 L-11.9 18.1 Q-15.25 18.7 -17.25 16.2 L-18.1 14.7 -18.15 14.6 Q-19.8 10.15 -17.05 6.65 L-16.45 6.1 Q-14.4 4.4 -12.15 3.2 L-12.15 2.45 -11.95 2.05 -11.8 1.95 Q-12.1 1.2 -12.0 0.45 L-12.0 0.85 -11.55 -0.3 Q-10.8 -1.6 -10.35 -2.95 L-10.1 -3.15 -9.95 -3.2 -9.75 -2.75 Q-8.55 0.25 -5.25 2.15 L-0.2 4.75 3.4 6.3 4.15 6.75 Q4.45 6.45 4.85 6.3 L8.45 4.75 11.15 3.4 13.5 2.15 Q16.85 0.25 18.05 -2.8 L18.2 -3.2 18.35 -3.15 M18.25 -2.5 L18.2 -2.4 16.45 0.15 16.25 0.35 12.55 3.4 12.45 3.45 12.2 3.6 11.15 4.15 9.35 4.9 8.45 5.25 7.4 5.65 Q5.75 6.4 4.35 7.3 L4.0 7.65 4.1 7.7 4.15 7.7 8.35 6.3 10.65 5.25 11.15 4.95 16.3 1.45 Q18.2 -0.2 18.25 -2.25 L18.25 -2.5 M19.55 0.15 L19.0 -0.3 18.95 -0.35 18.9 -0.3 Q17.55 0.6 16.55 2.05 15.65 3.35 14.25 4.1 L14.1 4.2 14.05 4.2 11.15 5.75 8.2 7.1 5.2 8.25 5.7 8.5 6.25 7.9 Q6.6 8.3 6.4 8.9 6.5 8.8 6.7 8.8 L7.8 8.4 7.9 8.4 11.15 7.2 Q15.7 5.2 19.35 1.95 L19.5 1.8 Q20.1 0.8 19.55 0.15 M21.6 4.65 L20.95 4.3 20.85 4.2 20.65 4.1 20.0 4.6 Q18.5 5.85 18.2 7.75 18.2 8.0 18.45 7.75 L19.05 7.3 Q19.95 6.7 21.05 6.5 L21.35 6.5 21.85 6.45 23.0 6.75 24.1 6.55 23.85 6.7 Q22.6 5.85 21.6 4.65 22.6 5.85 23.85 6.7 L24.1 6.55 24.1 6.4 24.05 6.35 23.95 6.2 23.9 6.15 23.75 6.0 23.25 5.7 22.0 4.9 21.55 4.65 21.6 4.65 M20.7 3.8 L20.25 3.6 20.25 3.65 20.7 3.8 M8.8 11.7 L11.15 11.3 12.95 11.1 15.25 10.55 15.15 10.3 Q17.35 8.25 18.7 5.4 19.4 3.95 19.3 3.0 L18.4 3.95 18.25 3.75 14.0 6.45 11.35 7.65 11.15 7.75 9.3 8.45 8.75 8.6 8.35 8.75 8.65 8.75 7.5 10.15 Q7.65 10.2 7.8 10.4 L8.65 10.5 Q8.9 10.7 8.5 11.35 L8.55 11.4 8.65 11.7 8.75 11.7 8.8 11.7 9.2 12.3 8.35 12.2 8.7 12.3 8.5 11.55 8.15 11.1 7.65 10.75 7.7 11.05 Q7.35 11.05 7.2 11.3 L7.35 11.5 6.2 11.65 6.1 11.65 6.15 11.7 6.2 11.75 6.05 12.05 5.95 12.1 6.0 12.2 5.8 12.3 5.85 12.1 5.85 12.0 Q5.85 11.5 5.45 11.45 L5.5 11.1 6.25 11.2 6.35 11.1 6.45 10.55 6.35 11.1 6.25 11.2 5.5 11.1 5.45 11.45 Q5.85 11.5 5.85 12.0 L5.85 12.1 5.8 12.3 6.0 12.2 5.95 12.1 6.05 12.05 6.2 11.75 6.15 11.7 6.1 11.65 6.2 11.65 7.35 11.5 7.2 11.3 Q7.35 11.05 7.7 11.05 L7.65 10.75 8.15 11.1 8.5 11.55 8.7 12.3 8.35 12.2 9.2 12.3 8.8 11.7 M23.1 7.25 L22.9 7.3 22.85 7.3 22.8 7.3 22.7 7.3 21.05 7.2 Q18.15 7.75 18.3 10.75 18.35 12.9 19.35 14.7 L19.4 14.85 20.2 16.05 20.9 16.45 22.1 16.6 22.15 16.6 Q23.45 16.5 24.2 15.45 L24.3 15.35 24.35 15.3 24.8 14.2 24.85 13.9 24.95 13.6 25.5 10.8 25.5 10.7 25.5 10.2 Q25.45 8.4 23.8 7.6 L23.1 7.25 M5.9 9.9 L6.05 10.6 6.05 10.65 6.45 10.55 Q6.65 9.9 7.2 9.45 6.5 9.4 6.15 10.05 L5.9 9.9 5.35 10.05 5.35 10.0 5.4 9.95 5.5 9.6 5.4 9.95 5.35 10.0 5.35 10.05 5.9 9.9 M5.35 9.55 L5.5 9.6 5.75 9.0 5.65 9.0 5.35 9.55 4.85 9.95 4.85 10.15 Q4.85 10.5 4.75 10.1 L4.75 10.05 4.75 10.1 Q4.85 10.5 4.85 10.15 L4.85 9.95 5.35 9.55 M2.75 10.6 L2.65 10.3 Q2.8 10.15 3.2 10.3 3.85 9.5 4.7 10.1 L4.75 10.05 4.7 10.05 4.25 9.85 4.2 9.85 3.75 9.5 3.9 9.8 3.6 9.7 3.4 9.85 3.05 9.65 Q2.95 9.65 2.9 9.75 L2.9 9.9 Q3.1 10.05 2.5 10.0 L2.5 10.1 2.75 10.6 2.75 10.65 2.75 10.7 2.7 10.75 2.75 10.7 2.75 10.65 2.75 10.6 M3.35 13.1 L3.3 13.0 3.25 12.95 Q1.55 12.2 2.25 11.1 L2.4 10.95 2.4 10.6 2.7 10.75 Q2.1 10.3 2.0 11.05 1.4 11.15 1.35 11.7 L2.0 11.95 1.7 12.15 1.75 12.2 2.05 12.5 2.0 12.55 Q1.1 13.15 1.45 13.85 L1.5 13.8 2.0 13.25 2.0 13.5 2.05 13.85 2.15 13.85 Q2.0 14.25 2.0 14.7 L2.45 14.6 2.6 14.85 2.75 14.85 2.75 14.95 2.85 15.25 4.25 15.5 5.15 16.3 5.1 16.3 5.1 18.05 5.0 21.25 4.95 21.5 4.95 21.75 4.95 21.85 Q4.95 22.75 5.65 23.1 L6.35 23.3 8.25 23.35 8.55 23.35 9.8 23.15 11.05 22.8 11.15 22.8 11.35 22.7 11.55 22.5 11.45 22.25 11.45 22.15 11.0 20.55 10.65 18.9 10.45 17.65 10.3 16.25 10.25 15.95 10.35 16.25 10.65 17.1 10.8 17.6 11.3 19.05 11.2 18.25 11.5 19.8 11.6 20.3 11.95 21.55 12.05 22.05 12.05 22.1 12.1 22.35 12.1 22.4 12.45 22.9 12.55 23.0 13.0 23.35 13.5 23.35 Q15.35 22.55 17.0 21.55 L18.05 20.85 19.9 19.4 20.05 19.3 Q20.25 19.1 20.05 18.85 L18.9 16.5 18.45 15.8 18.15 15.25 17.35 13.75 15.5 14.25 Q14.2 15.15 12.35 15.4 L11.15 15.6 9.6 15.85 9.45 16.05 Q9.35 16.1 9.2 15.95 L8.45 16.1 7.4 16.1 6.9 16.25 6.5 16.3 6.55 16.35 6.85 18.0 Q6.8 19.2 5.95 20.3 L5.8 20.15 5.7 19.1 5.85 19.5 6.0 19.6 6.35 19.05 6.4 19.05 6.55 18.6 Q6.7 17.75 6.15 16.8 L5.75 17.55 Q5.75 16.9 5.9 16.35 L5.55 16.35 5.55 16.1 Q6.2 16.05 6.2 15.25 L6.3 15.55 6.55 15.4 6.6 15.4 Q6.8 16.7 7.6 15.15 8.15 15.5 8.2 14.85 L8.1 14.1 Q8.55 14.25 8.6 13.85 L8.45 13.35 8.8 13.15 9.05 12.8 9.05 12.75 8.65 12.6 8.45 12.95 Q8.2 13.35 7.75 13.2 8.0 14.95 6.2 14.65 6.0 16.15 5.0 15.2 L5.0 15.0 5.0 14.8 4.6 14.2 4.4 14.3 4.6 14.2 5.0 14.8 5.0 15.0 5.0 15.2 4.95 15.3 4.95 15.25 4.95 15.15 4.65 14.55 4.35 14.35 4.4 14.3 3.95 13.85 3.55 13.35 3.75 13.3 3.95 13.7 4.2 13.2 3.45 12.9 3.35 13.1 3.45 12.9 4.2 13.2 3.95 13.7 3.75 13.3 3.55 13.35 Q3.1 13.4 2.75 13.75 L2.85 13.6 3.35 13.1 M8.35 12.2 L7.95 12.0 7.75 11.85 7.45 12.0 6.95 12.35 6.85 12.3 6.85 12.45 6.9 12.5 7.0 12.4 7.2 12.3 8.65 12.6 7.2 12.3 7.0 12.4 6.9 12.5 6.85 12.45 6.85 12.3 6.95 12.35 7.45 12.0 7.75 11.85 7.95 12.0 8.35 12.2 M15.15 11.8 L14.85 11.9 11.65 12.7 10.85 13.05 Q10.1 13.3 9.5 13.7 L9.5 13.9 9.45 14.4 10.4 14.25 10.5 14.15 10.5 14.25 11.15 14.1 11.3 14.05 14.95 12.75 15.3 12.6 15.45 12.5 16.7 11.85 16.8 11.6 16.5 11.5 16.35 11.45 15.15 11.8 M-0.7 6.0 L-0.75 6.0 -1.5 5.65 -6.5 2.65 -8.05 1.45 Q-9.9 -0.15 -10.0 -2.15 L-10.0 -2.5 -9.9 -2.35 -9.2 -1.2 -9.1 -1.05 -7.8 0.55 -7.6 0.75 -6.3 1.95 -1.45 4.75 -1.1 4.9 -0.2 5.2 -0.1 5.25 0.6 5.55 3.65 7.2 Q3.5 7.3 3.5 7.5 L-0.2 6.25 -0.7 6.0 Q0.25 6.25 0.9 5.7 L0.6 5.55 0.9 5.7 Q0.25 6.25 -0.7 6.0 L-0.2 6.25 3.5 7.5 Q3.5 7.3 3.65 7.2 L0.6 5.55 -0.1 5.25 -0.2 5.2 -1.1 4.9 -1.45 4.75 -6.3 1.95 -7.6 0.75 -7.8 0.55 -9.1 -1.05 -9.2 -1.2 -9.9 -2.35 -10.0 -2.5 -10.0 -2.15 Q-9.9 -0.15 -8.05 1.45 L-6.5 2.65 -1.5 5.65 -0.75 6.0 -0.7 6.0 M-10.85 -0.25 Q-12.1 0.55 -11.1 1.9 L-11.1 1.95 Q-6.4 6.15 -0.2 8.2 L0.45 8.4 Q1.65 8.75 2.85 9.25 L3.05 9.15 Q3.5 8.0 4.05 9.3 L4.45 8.95 3.9 8.65 3.85 8.5 -0.2 6.95 -4.2 5.1 -6.0 4.1 Q-7.4 3.35 -8.3 2.05 -9.3 0.65 -10.55 -0.25 L-10.7 -0.35 -10.75 -0.3 -10.85 -0.25 M0.8 11.85 L1.15 11.3 0.35 11.6 Q0.1 11.65 0.25 11.75 L0.8 11.85 M4.9 10.9 L4.95 10.9 4.95 11.0 4.9 10.9 M3.15 11.5 L3.2 11.55 3.0 11.55 3.15 11.45 3.15 11.5 M3.95 10.8 L4.0 10.75 4.05 10.6 4.1 10.35 4.3 10.7 Q4.5 11.2 4.85 11.2 L4.75 11.6 Q4.6 11.45 4.5 11.6 4.3 11.85 4.45 12.15 3.85 11.9 3.6 12.15 L3.55 11.9 Q3.75 11.95 4.0 11.65 L3.95 11.5 3.55 10.85 3.55 10.8 Q3.75 10.65 3.95 10.8 M7.4 9.65 L7.3 9.45 Q6.7 9.7 6.85 10.35 L6.9 10.35 7.05 10.35 7.4 9.65 M7.65 10.75 L7.7 10.55 Q7.4 10.6 7.3 10.35 L7.25 10.3 7.5 10.15 7.45 10.15 7.5 10.15 7.25 10.3 7.3 10.35 Q7.4 10.6 7.7 10.55 L7.65 10.75 M6.4 9.65 L7.0 9.2 6.15 9.5 6.4 9.65 M8.65 10.5 L8.3 11.15 8.5 11.35 8.3 11.15 8.65 10.5 M6.0 14.8 L5.95 14.8 Q5.45 14.4 5.35 15.1 L5.35 15.0 5.35 14.75 5.65 14.25 5.7 14.3 6.1 14.55 6.0 14.8 M7.55 13.15 L7.55 13.2 7.45 13.1 7.55 13.15 M6.75 13.9 L6.75 13.85 7.4 13.8 7.5 13.75 7.55 13.9 7.25 13.9 6.75 13.9 M-4.2 13.7 L-4.0 13.75 -3.95 13.8 -3.3 13.95 -3.1 14.0 -2.5 14.15 -2.0 14.25 -0.2 14.55 0.4 14.6 Q1.0 14.65 0.8 14.2 0.5 13.6 -0.2 13.35 L-0.7 13.2 -6.05 12.05 -8.1 11.45 -8.25 11.5 -8.55 11.6 -8.45 11.85 -6.3 12.95 -4.25 13.7 -4.2 13.7 M2.45 14.15 L2.35 14.3 2.35 14.25 2.45 14.15 M3.15 18.05 L3.2 16.3 2.9 16.35 1.35 16.25 0.85 16.1 0.35 16.15 -0.2 16.1 -4.1 15.4 -5.45 15.1 -5.85 14.95 -5.9 14.95 -6.35 14.75 -7.25 14.25 -7.85 14.1 -7.9 14.1 -9.0 13.8 -9.1 13.75 -9.7 14.95 -9.9 15.3 -10.1 15.7 -10.2 15.8 -10.65 16.5 -11.05 17.55 -11.8 18.85 Q-12.0 19.1 -11.8 19.3 L-11.45 19.55 -10.1 20.6 -7.15 22.45 -5.25 23.35 -5.2 23.4 -4.75 23.35 -4.15 22.85 -3.8 22.4 -3.75 21.9 -3.7 21.55 -3.35 20.3 -3.2 19.8 -2.9 18.25 -3.0 19.05 -2.55 17.55 -2.25 16.65 -2.0 15.95 -2.0 16.2 -2.1 17.1 -2.2 17.6 -2.2 17.75 -2.65 20.2 -2.75 20.55 -3.15 22.15 -3.25 22.5 -3.1 22.7 -1.4 23.2 -0.25 23.35 1.9 23.3 2.7 23.05 2.9 22.9 3.3 22.15 3.35 21.7 3.3 21.5 3.15 18.05 M4.55 18.2 Q5.0 17.25 4.15 16.25 3.6 17.15 3.95 18.65 4.0 18.95 4.15 18.75 L4.35 18.55 4.55 18.2 M-5.4 7.5 Q-6.6 6.9 -7.55 6.1 L-8.8 4.95 -10.4 3.7 -11.3 2.75 -11.65 2.15 -11.9 2.4 -11.6 3.7 -11.5 3.85 Q-9.1 6.1 -7.25 8.85 -6.85 9.4 -7.25 9.4 L-7.2 9.8 Q-4.6 11.1 -1.8 11.75 -1.75 11.45 -1.25 11.3 L-0.2 10.95 1.75 10.35 -0.2 9.6 -3.35 8.35 -4.2 8.05 -5.4 7.5 M-12.05 4.35 L-12.4 4.1 -12.6 4.2 -12.7 4.3 -15.0 5.7 Q-16.65 6.7 -15.15 6.75 L-14.75 6.75 -13.55 6.45 -12.4 6.6 Q-11.2 6.85 -10.2 7.75 -9.95 8.0 -9.95 7.75 -10.25 5.9 -11.6 4.7 L-12.05 4.35 M-15.55 7.6 Q-17.4 8.5 -17.25 10.7 -17.1 12.35 -16.6 13.9 L-15.95 15.45 -14.55 16.5 Q-13.85 16.7 -12.9 16.5 L-12.65 16.45 -11.95 16.05 -10.65 13.85 Q-10.1 12.4 -10.05 10.75 -9.9 7.75 -12.8 7.2 L-13.55 7.25 -14.45 7.3 -14.55 7.3 -14.85 7.25 -15.55 7.6 M-12.0 3.65 L-12.0 3.6 Q-12.3 3.65 -12.4 3.8 L-12.0 3.65" fill="#000000" fill-rule="evenodd" stroke="none"/>
      <path d="M18.2 -2.4 L18.25 -2.5 18.25 -2.25 Q18.2 -0.2 16.3 1.45 L11.15 4.95 10.65 5.25 9.6 5.55 8.4 5.8 7.75 5.8 7.4 5.65 8.45 5.25 9.35 4.9 11.15 4.15 12.2 3.6 12.45 3.45 12.55 3.4 16.25 0.35 16.45 0.15 Q17.5 -1.0 18.2 -2.4 M14.95 12.75 L11.3 14.05 11.15 14.1 10.5 14.25 10.5 14.15 10.4 14.25 9.45 14.4 9.5 13.9 9.5 13.7 Q10.1 13.3 10.85 13.05 L11.65 12.7 14.85 11.9 15.15 11.8 15.45 12.5 15.3 12.6 14.95 12.75 M3.95 10.8 Q3.75 10.65 3.55 10.8 L3.55 10.85 3.95 11.5 4.0 11.65 Q3.75 11.95 3.55 11.9 L3.6 12.15 Q3.85 11.9 4.45 12.15 4.3 11.85 4.5 11.6 4.6 11.45 4.75 11.6 L4.85 11.2 Q4.5 11.2 4.3 10.7 L4.1 10.35 4.05 10.6 4.0 10.75 3.95 10.8 M3.15 11.5 L3.15 11.45 3.0 11.55 3.2 11.55 3.15 11.5 M4.9 10.9 L4.95 11.0 4.95 10.9 4.9 10.9 M6.55 18.6 L6.4 19.05 6.35 19.05 5.85 19.05 5.7 18.9 5.7 18.8 5.7 18.75 Q5.8 18.25 6.2 18.1 L6.55 18.6 M6.75 13.9 L7.25 13.9 7.55 13.9 7.5 13.75 7.4 13.8 6.75 13.85 6.75 13.9 M7.55 13.15 L7.45 13.1 7.55 13.2 7.55 13.15 M6.0 14.8 L6.1 14.55 5.7 14.3 5.65 14.25 5.35 14.75 5.35 15.0 5.35 15.1 Q5.45 14.4 5.95 14.8 L6.0 14.8 M4.95 15.15 L4.8 15.0 4.65 14.55 4.95 15.15 M-6.05 12.05 L-0.7 13.2 -0.2 13.35 Q0.5 13.6 0.8 14.2 1.0 14.65 0.4 14.6 L-0.2 14.55 -2.0 14.25 -2.5 14.15 -3.1 14.0 -3.3 13.95 -3.95 13.8 -4.0 13.75 -4.2 13.7 -4.2 13.45 -4.25 13.7 -6.3 12.95 -6.3 12.85 -6.05 12.05 M4.55 18.2 L4.35 18.55 Q3.65 18.0 4.4 17.2 L4.7 17.75 4.55 18.2" fill="#e6ecec" fill-rule="evenodd" stroke="none"/>
      <path d="M18.2 -2.4 Q17.5 -1.0 16.45 0.15 L18.2 -2.4 M7.4 5.65 L7.75 5.8 8.4 5.8 9.6 5.55 10.65 5.25 8.35 6.3 4.15 7.7 4.1 7.7 4.0 7.65 4.35 7.3 Q5.75 6.4 7.4 5.65 M6.45 10.55 L6.05 10.65 6.05 10.6 5.9 9.9 6.15 10.05 Q6.5 9.4 7.2 9.45 6.65 9.9 6.45 10.55 M5.5 9.6 L5.35 9.55 5.65 9.0 5.75 9.0 5.5 9.6 M4.75 10.05 L4.7 10.1 Q3.85 9.5 3.2 10.3 2.8 10.15 2.65 10.3 L2.75 10.6 2.5 10.1 2.5 10.0 Q3.1 10.05 2.9 9.9 L2.9 9.75 Q2.95 9.65 3.05 9.65 L3.4 9.85 3.6 9.7 3.9 9.8 3.75 9.5 4.2 9.85 4.25 9.85 4.7 10.05 4.75 10.05 M2.7 10.75 L2.4 10.6 2.4 10.95 2.25 11.1 Q1.55 12.2 3.25 12.95 L3.3 13.0 3.35 13.1 2.85 13.6 2.75 13.75 Q3.1 13.4 3.55 13.35 L3.95 13.85 4.4 14.3 4.35 14.35 4.65 14.55 4.8 15.0 4.95 15.15 4.95 15.25 4.95 15.3 5.0 15.2 Q6.0 16.15 6.2 14.65 8.0 14.95 7.75 13.2 8.2 13.35 8.45 12.95 L8.65 12.6 9.05 12.75 9.05 12.8 8.8 13.15 8.45 13.35 8.6 13.85 Q8.55 14.25 8.1 14.1 L8.2 14.85 Q8.15 15.5 7.6 15.15 6.8 16.7 6.6 15.4 L6.55 15.4 6.3 15.55 6.2 15.25 Q6.2 16.05 5.55 16.1 L5.55 16.35 5.35 16.35 5.15 16.3 4.25 15.5 2.85 15.25 2.75 14.95 2.75 14.85 2.6 14.85 2.45 14.6 2.0 14.7 Q2.0 14.25 2.15 13.85 L2.05 13.85 2.0 13.5 2.0 13.25 1.5 13.8 1.45 13.85 Q1.1 13.15 2.0 12.55 L2.05 12.5 1.75 12.2 1.7 12.15 2.0 11.95 1.35 11.7 Q1.4 11.15 2.0 11.05 2.1 10.3 2.7 10.75 M15.15 11.8 L16.35 11.45 16.5 11.5 16.8 11.6 16.7 11.85 15.45 12.5 15.15 11.8 M5.75 17.55 L6.15 16.8 Q6.7 17.75 6.55 18.6 L6.2 18.1 Q5.8 18.25 5.7 18.75 L5.7 18.05 5.75 17.55 M6.35 19.05 L6.0 19.6 5.85 19.5 5.7 19.1 5.7 19.05 5.7 18.9 5.85 19.05 6.35 19.05 M-4.2 13.7 L-4.25 13.7 -4.2 13.45 -4.2 13.7 M-6.3 12.95 L-8.45 11.85 -8.55 11.6 -8.25 11.5 -8.1 11.45 -6.05 12.05 -6.3 12.85 -6.3 12.95 M2.45 14.15 L2.35 14.25 2.35 14.3 2.45 14.15 M4.35 18.55 L4.15 18.75 Q4.0 18.95 3.95 18.65 3.6 17.15 4.15 16.25 5.0 17.25 4.55 18.2 L4.7 17.75 4.4 17.2 Q3.65 18.0 4.35 18.55" fill="#b8cbcb" fill-rule="evenodd" stroke="none"/>
      <path d="M14.1 4.2 L14.25 4.1 Q15.65 3.35 16.55 2.05 17.55 0.6 18.9 -0.3 L18.95 -0.35 19.0 -0.3 19.55 0.15 19.75 0.45 19.25 0.95 19.1 1.1 Q16.8 3.35 14.1 4.2 M9.3 8.45 L11.15 7.75 11.35 7.65 14.0 6.45 Q17.95 10.4 10.1 10.8 8.65 10.9 9.0 9.3 L9.3 8.45 M-10.85 -0.25 L-10.75 -0.3 -10.7 -0.35 -10.55 -0.25 Q-9.3 0.65 -8.3 2.05 -7.4 3.35 -6.0 4.1 L-4.2 5.1 Q-9.35 5.35 -10.7 0.25 L-10.85 -0.25 M-5.4 7.5 L-4.2 8.05 -3.35 8.35 Q-0.6 10.65 -5.4 9.85 -7.15 9.55 -6.0 8.0 L-5.4 7.5 M-15.15 6.75 Q-16.65 6.7 -15.0 5.7 L-12.7 4.3 -12.6 4.2 -12.4 4.1 -12.05 4.35 Q-13.6 5.7 -15.15 6.75" fill="#606060" fill-rule="evenodd" stroke="none"/>
      <path d="M14.1 4.2 Q16.8 3.35 19.1 1.1 L19.25 0.95 19.75 0.45 19.55 0.15 Q20.1 0.8 19.5 1.8 L19.35 1.95 Q15.7 5.2 11.15 7.2 L7.9 8.4 7.8 8.4 6.7 8.8 Q6.5 8.8 6.4 8.9 6.6 8.3 6.25 7.9 L5.7 8.5 5.2 8.25 8.2 7.1 11.15 5.75 14.05 4.2 14.1 4.2 M20.7 3.8 L20.25 3.65 20.25 3.6 20.7 3.8 M24.1 6.55 L23.0 6.75 21.85 6.45 21.35 6.5 21.05 6.5 Q19.95 6.7 19.05 7.3 L18.45 7.75 Q18.2 8.0 18.2 7.75 18.5 5.85 20.0 4.6 L20.65 4.1 20.85 4.2 20.95 4.3 21.6 4.65 21.55 4.65 22.0 4.9 23.25 5.7 23.75 6.0 23.9 6.15 23.95 6.2 24.05 6.35 24.1 6.4 24.1 6.55 M23.1 7.25 L23.8 7.6 Q25.45 8.4 25.5 10.2 L25.5 10.7 25.5 10.8 24.95 13.6 24.85 13.9 24.8 14.2 24.35 15.3 24.3 15.35 24.2 15.45 Q23.45 16.5 22.15 16.6 L22.1 16.6 20.9 16.45 20.2 16.05 19.4 14.85 19.35 14.7 Q18.35 12.9 18.3 10.75 18.15 7.75 21.05 7.2 L22.7 7.3 22.8 7.3 22.85 7.3 22.9 7.3 23.1 7.25 M14.0 6.45 L18.25 3.75 18.4 3.95 19.3 3.0 Q19.4 3.95 18.7 5.4 17.35 8.25 15.15 10.3 L15.25 10.55 12.95 11.1 11.15 11.3 8.8 11.7 8.75 11.7 8.65 11.7 8.55 11.4 8.5 11.35 Q8.9 10.7 8.65 10.5 L7.8 10.4 Q7.65 10.2 7.5 10.15 L8.65 8.75 8.35 8.75 8.75 8.6 9.3 8.45 9.0 9.3 Q8.65 10.9 10.1 10.8 17.95 10.4 14.0 6.45 M-4.2 5.1 L-0.2 6.95 3.85 8.5 3.9 8.65 4.45 8.95 4.05 9.3 Q3.5 8.0 3.05 9.15 L2.85 9.25 Q1.65 8.75 0.45 8.4 L-0.2 8.2 Q-6.4 6.15 -11.1 1.95 L-11.1 1.9 Q-12.1 0.55 -10.85 -0.25 L-10.7 0.25 Q-9.35 5.35 -4.2 5.1 M0.8 11.85 L0.25 11.75 Q0.1 11.65 0.35 11.6 L1.15 11.3 0.8 11.85 M6.4 9.65 L6.15 9.5 7.0 9.2 6.4 9.65 M-3.35 8.35 L-0.2 9.6 1.75 10.35 -0.2 10.95 -1.25 11.3 Q-1.75 11.45 -1.8 11.75 -4.6 11.1 -7.2 9.8 L-7.25 9.4 Q-6.85 9.4 -7.25 8.85 -9.1 6.1 -11.5 3.85 L-11.6 3.7 -11.9 2.4 -11.65 2.15 -11.3 2.75 -10.4 3.7 -8.8 4.95 -7.55 6.1 Q-6.6 6.9 -5.4 7.5 L-6.0 8.0 Q-7.15 9.55 -5.4 9.85 -0.6 10.65 -3.35 8.35 M-12.05 4.35 L-11.6 4.7 Q-10.25 5.9 -9.95 7.75 -9.95 8.0 -10.2 7.75 -11.2 6.85 -12.4 6.6 L-13.55 6.45 -14.75 6.75 -15.15 6.75 Q-13.6 5.7 -12.05 4.35 M-12.0 3.65 L-12.4 3.8 Q-12.3 3.65 -12.0 3.6 L-12.0 3.65 M-15.55 7.6 L-14.85 7.25 -14.55 7.3 -14.45 7.3 -13.55 7.25 -12.8 7.2 Q-9.9 7.75 -10.05 10.75 -10.1 12.4 -10.65 13.85 L-11.95 16.05 -12.65 16.45 -12.9 16.5 Q-13.85 16.7 -14.55 16.5 L-15.95 15.45 -16.6 13.9 Q-17.1 12.35 -17.25 10.7 -17.4 8.5 -15.55 7.6" fill="#242424" fill-rule="evenodd" stroke="none"/>
      <path d="M5.7 19.1 L5.8 20.15 5.95 20.3 Q6.8 19.2 6.85 18.0 L8.1 17.9 7.95 18.8 7.95 21.45 8.05 22.5 8.1 22.65 8.25 23.35 6.35 23.3 5.65 23.1 Q4.95 22.75 4.95 21.85 L4.95 21.75 4.95 21.5 5.0 21.25 5.1 18.05 5.7 18.05 5.7 18.75 5.7 18.8 5.7 18.9 5.7 19.05 5.7 19.1 M17.0 21.55 Q15.35 22.55 13.5 23.35 L13.0 23.35 12.55 23.0 12.55 22.75 12.5 21.95 12.2 20.0 11.45 17.5 15.1 16.8 15.5 17.95 17.0 21.55 M10.45 17.65 L10.65 18.9 10.8 20.6 11.0 22.2 11.0 22.35 11.05 22.8 9.8 23.15 9.8 22.55 9.8 22.35 9.7 21.0 9.15 17.8 10.45 17.65 M3.15 18.05 L3.3 21.5 3.35 21.7 3.3 22.15 2.9 22.9 2.7 23.05 1.9 23.3 -0.25 23.35 -0.15 22.8 0.0 21.3 0.05 17.85 3.15 18.05 M-1.4 23.2 L-3.1 22.7 -3.25 22.5 -3.15 22.15 -2.75 20.55 -2.85 21.0 -2.7 20.6 Q-2.15 19.05 -1.95 17.65 L-0.95 17.75 -1.35 21.0 -1.4 22.6 -1.4 23.2 M-5.2 23.4 L-5.25 23.35 -5.1 23.0 -5.2 23.4 M-7.15 22.45 L-10.1 20.6 -7.4 17.85 -7.35 17.75 -6.9 17.2 Q-6.55 16.8 -6.2 16.9 L-4.45 17.25 -5.15 17.15 -5.4 17.75 -5.85 18.95 -7.15 22.45 M-9.9 15.3 L-9.7 14.95 -9.1 13.75 -9.0 13.8 -7.9 14.1 -8.5 14.35 -9.3 14.85 -9.4 14.9 -9.45 14.95 -9.6 15.05 -9.9 15.3 M-6.35 14.75 L-5.9 14.95 -6.25 14.95 -6.35 14.75 M-3.4 18.25 L-3.25 17.45 -2.95 17.5 -3.4 18.25" fill="#8a8a8a" fill-rule="evenodd" stroke="none"/>
      <path d="M5.55 16.35 L5.9 16.35 Q5.75 16.9 5.75 17.55 L5.7 18.05 5.1 18.05 5.1 16.3 5.15 16.3 5.35 16.35 5.55 16.35 M6.85 18.0 L6.55 16.35 6.5 16.3 6.9 16.25 7.4 16.1 8.45 16.1 9.2 15.95 Q9.35 16.1 9.45 16.05 L9.6 15.85 11.15 15.6 12.35 15.4 Q14.2 15.15 15.5 14.25 L17.35 13.75 18.15 15.25 18.45 15.8 18.9 16.5 20.05 18.85 Q20.25 19.1 20.05 19.3 L19.9 19.4 18.05 20.85 16.35 17.2 16.1 16.55 15.55 16.7 15.1 16.8 11.45 17.5 12.2 20.0 12.5 21.95 12.55 22.75 12.55 23.0 12.45 22.9 12.1 22.4 12.1 22.35 12.05 22.1 12.05 22.05 11.95 21.55 11.6 20.3 11.5 19.8 11.2 18.25 11.3 19.05 10.8 17.6 10.65 17.1 10.35 16.25 10.25 15.95 10.3 16.25 10.45 17.65 9.15 17.8 8.1 17.9 6.85 18.0 M10.65 18.9 L11.0 20.55 11.45 22.15 11.45 22.25 11.55 22.5 11.35 22.7 11.15 22.8 11.05 22.8 11.0 22.35 11.0 22.2 10.8 20.6 10.65 18.9 M-5.9 14.95 L-5.85 14.95 -5.45 15.1 -4.1 15.4 -0.2 16.1 0.35 16.15 0.85 16.1 1.35 16.25 2.9 16.35 3.2 16.3 3.15 18.05 0.05 17.85 -0.95 17.75 -1.95 17.65 Q-2.15 19.05 -2.7 20.6 L-2.85 21.0 -2.75 20.55 -2.65 20.2 -2.2 17.75 -2.2 17.6 -2.1 17.1 -2.0 16.2 -2.0 15.95 -2.25 16.65 -2.55 17.55 -3.0 19.05 -2.9 18.25 -3.2 19.8 -3.35 20.3 -3.7 21.55 -3.75 21.9 -3.8 22.4 -4.15 22.85 -4.75 23.35 -5.2 23.4 -5.1 23.0 -5.1 22.8 -4.95 22.25 -4.75 21.5 -3.6 18.6 -3.4 18.25 -2.95 17.5 -3.25 17.45 -3.35 17.45 -4.45 17.25 -6.2 16.9 Q-6.55 16.8 -6.9 17.2 L-7.35 17.75 -7.4 17.85 -10.1 20.6 -11.45 19.55 -11.8 19.3 Q-12.0 19.1 -11.8 18.85 L-11.05 17.55 -10.65 16.5 -10.2 15.8 -10.1 15.7 -9.9 15.3 -9.6 15.05 -9.45 14.95 -9.4 14.9 -9.3 14.85 -8.5 14.35 -7.9 14.1 -7.85 14.1 -7.25 14.25 -6.35 14.75 -6.25 14.95 -5.9 14.95" fill="#646464" fill-rule="evenodd" stroke="none"/>
      <path d="M18.05 20.85 L17.0 21.55 15.5 17.95 15.1 16.8 15.55 16.7 16.1 16.55 16.35 17.2 18.05 20.85 M9.8 23.15 L8.55 23.35 8.25 23.35 8.1 22.65 8.05 22.5 7.95 21.45 7.95 18.8 8.1 17.9 9.15 17.8 9.7 21.0 9.8 22.35 9.8 22.55 9.8 23.15 M-0.25 23.35 L-1.4 23.2 -1.4 22.6 -1.35 21.0 -0.95 17.75 0.05 17.85 0.0 21.3 -0.15 22.8 -0.25 23.35 M-5.25 23.35 L-7.15 22.45 -5.85 18.95 -5.4 17.75 -5.15 17.15 -4.45 17.25 -3.35 17.45 -3.25 17.45 -3.4 18.25 -3.6 18.6 -4.75 21.5 -4.95 22.25 -5.1 22.8 -5.1 23.0 -5.25 23.35" fill="#c8c8c8" fill-rule="evenodd" stroke="none"/>
    </g>
  </defs>
</svg>
