<svg xmlns:xlink="http://www.w3.org/1999/xlink" height="82" width="84.85" xmlns="http://www.w3.org/2000/svg"><g transform="translate(37.4 42.25)"><use height="38" transform="translate(-11.95 -17.45)" width="32.05" xlink:href="#a"/><use height="38.95" transform="translate(-12.45 -17.95)" width="33.05" xlink:href="#b"/><use height="27.15" transform="translate(-15.9 .85)" width="44.7" xlink:href="#c"/></g><defs><path d="M27.35 7.4q2.15 4.15 3.55 8.75 1.45 4.7 1.15 9.5-.35 4.95-4.2 8.1-3.8 3.2-8.75 4.05l-2.6.2q-3.6 0-7.05-1.15-4.65-1.6-7.1-5.5Q-.2 27.4.05 23q.2-4.4 2-9.3Q3.85 8.75 7 5.05 10.1 1.3 14.7.1l1.8-.1q1.9.05 3.7.8 4.75 2.05 7.15 6.6" fill="#fff" fill-rule="evenodd" transform="translate(-.05)" id="d"/><path d="M27.35 7.4Q24.95 2.85 20.2.8 17.55-.3 14.7.1 10.1 1.3 7 5.05q-3.15 3.7-4.95 8.65-1.8 4.9-2 9.3-.25 4.4 2.3 8.35 2.45 3.9 7.1 5.5 4.65 1.55 9.65.95 4.95-.85 8.75-4.05 3.85-3.15 4.2-8.1.3-4.8-1.15-9.5-1.4-4.6-3.55-8.75Z" fill="none" stroke="#000" stroke-linecap="round" stroke-linejoin="round" transform="translate(.45 .5)" id="e"/><use height="38" width="32.05" xlink:href="#d" id="a"/><use height="38.95" width="33.05" xlink:href="#e" id="b"/><g id="c" fill-rule="evenodd"><path d="M21.55 21.7h-1l-.95.05 1.05 2.2 1.4 1.8q.4.7-.15 1.25l-.7.3-.55-.15q-.4-.3-1.6-.5L8.5 24.1l-1.45-.3H6.9l-1.05 1.15q-.9 1.3-.9 2.05l-.4.75-.6.25-.2-.05q-1.15-.3-2.9-1.6l-2.9-1.75-2.55-1.45-.95-.6q-2-1.45-2.85-1.5h-.35q-1.35 0-4.15 1.1l-1.65.65-.35.1q-.35 0-.7-.35-.5-.4-.2-1.05l.5-1.45q.45-1.7 1.05-2.7l.55-.9 1.5-2.2q.3-.35.75-.35l.55.15h.25l.8-.05 2.7.15 2.7.2 6.55.2 6.45.2h.05l6.8-.5 2.4-.25q2.05 0 4.1 1.9 2.55 2.3 6.35 4.25.65.35.5 1.1-.15.75-1 .75h-.15l-3.15-.15-2.9-.15" fill="#020200" transform="translate(15.9 -.85)"/><path d="M21.55 21.2h-.65l-2.15.2 1.45 2.95 1.35 1.8q.25.25-.05.55l-.5.05-2.65-.8-8.9-2.1-2.4-.55H6.9q-.6 0-1.55 1.45-.95 1.4-.95 2.35l-.2.3-.25.1h-.1L0 25.2l-4.3-2.45q-3.5-2.1-4.1-2.15l-.35-.05q-.85 0-6 1.8l-.45-.1-.1-.45q.7-2.7 1.55-4.05l1.95-3.05.6-.05q.15.1.15.4.1-.35.4-.35l.8-.05 5.4.35 13.05.4 6.9-.5 2.3-.25q1.8 0 3.7 1.75 2.55 2.35 6.45 4.3l.25.5-.45.35h-.15l-6.05-.35" fill="#466775" transform="translate(15.9 -.85)"/><path d="M21.2 16.8q2.55 2.25 6.6 4.35l-6.9-.3-2.75.4 1.65 3.4 1.4 1.8-2.75-.8-5.05-1.35-3.85-.8-2.7-.55q-.8.05-1.85 1.6-1 1.5-1.05 2.6L.25 24.9l-4.35-2.4q-3.45-2.25-4.25-2.3-1.3-.05-6.55 1.85.7-2.75 1.5-4l1.95-3 .85.1 6.15.3 10.05.4 9.95-.45 3.05-.2q1.15.25 2.6 1.6" fill="#c1d5e0" transform="translate(15.9 -.85)"/><path d="m20.3 17.2 1.25 1.5q1.2.9 1.3 1.15l-3.2-.9-3.15-.9-1.35-.3q-.85.1-.45 2.25l.6 2.05.7 1.2q-2.25-.9-5-2.4L7.45 19.1q-1.15-.65-1.4-.65-1.15 0-3.35 3.3-.65.95-1.45 3l-.75-.8q-4.45-5.15-5.9-6l-4.1.2-2.85 1.5-1.45-.05 1.1-1.9 1.5-1.85 30.4-.5 1.1 1.85" fill="#8ab0c1" transform="translate(15.9 -.85)"/><path d="m-10.85 16.25 1.75.7q-2.1 1.45-2.75 1.2.1-1.15 1-1.9M3.3 17.6l-1 1.9-1.25 2.15-1.3-1.3Q-2 18-2.6 17.7l5.9-.1m4.9.5 5.2-1.15q-.3 1-.2 2.15l.3 1.55-5.3-2.55m8.6-1.25 2.1-1.1 1.25 2.5-1.6-.55-1.75-.85" fill="#466775" transform="translate(15.9 -.85)"/><path d="M16.95 18.55q1.1.3 1.2.6l-.35.9-.6.8q-.9.45-3.6-1.3l-3.65-1.7 3.7-.55.4.2 2.9 1.05" fill="#020200" transform="translate(15.9 -.85)"/><path d="m18.6 19.5-.95 1.05-2.4-.7q-1.1-.55-2.2-1.15-2-.6-2.55-1.1 1.95-.3 3.4.35l4.7 1.55" fill="#9e9e9e" transform="translate(15.9 -.85)"/><path d="M20.6 19.2q1.1.35 1.25.9l-.3 1.15q-1.2 2-2.45 2.5-.95.35-2.65-2.5-.3-.5.15-1.25l.95-1 3.05.2" fill="#020200" transform="translate(15.9 -.85)"/><path d="m17.7 19.35 1.85.1q1.7.35 1.8.85.15.5-.9 1.7L19 23.25q-.7.25-2.15-2.35-.45-.6.85-1.55" fill="#9e9e9e" transform="translate(15.9 -.85)"/><path d="M21.15 19.95q.65.25-.25 1.55l-1.35 1.35q-.5.5-.75.4l-1.25-1.3.05.05q.6.6.95.6.9-.2 1.4-1.1l.4-1.4-.2-.55 1 .4" fill="#666665" transform="translate(15.9 -.85)"/><path d="M23.35 5.5q.65 1.1-.05 1.6-.3.3-1.7 3.5l-1.55 3.6v.5q.05.5-1.05 1.3l-1.6 1.05-1.5.35q-4.45 1.05-12.15 1.05l-1.9-.1-5.65-.7-6.15-1.25q-1.95-.75-1.65-2.35 0-1.1-3.7-6.95l-.05-.7q.25-1.8 1.25-2.2l.65-.25.05-3.1 1.05 1.35q5.45 4.95 15.8 6.9l6.3.4q6.75 0 9.25-7.55.15-.5.6-.5.55 0 1.25 2.35 1.9.25 2.25 1.15l.25.55" fill="#020200" transform="translate(15.9 -.85)"/><path d="m22.55 5.5.4 1.5q-.4.25-3.45 7.45-.1.7-1.5.8-.3 1-2.25 1.45l-6.7.8q-5.35.4-7.1.15l-10.9-1.7-1.4-.4q-.8-.35-.7-1.05.15-.7-1.8-4.1l-1.95-3.25q-.15-.15.25-1.05l.7-1 .85-.35q.2-.05.15-1.55Q-1.2 10.35 9.8 10.65q2 .1 4.95-1.45 4.35-2.3 4.8-6.75l.85 2.25 2.15.8" fill="#c60537" transform="translate(15.9 -.85)"/><path d="M18.45 7.5q.75-1.35 1-3l.15-1.6.8 2.25h.2q-.35.4-.95 2.45-.55 1.95-1.85 3.05-3.75 3.25-13.4 2.65-2.5-.15-8.35-1.95-5.8-1.8-7-2.75-1.05-.9-2.5-3.2l.5-.2q.2-.05.15-1 11.6 7.75 22.6 7.55 6.35-.1 8.65-4.25" fill="#fff" transform="translate(15.9 -.85)"/><path d="m20.4 11.25.75-.65q-1.2 2.6-1.4 3.9l-1 .9q-1.4.95-3 1.3l-6.7.8q-5.35.4-7.1.15l-10.65-1.5q-2.45-.95-2.35-1.65.1-.55-.85-2.25 7.8 2.85 14.4 2.7l8.8-.25q5.95-.65 9.1-3.45" fill="#fff" transform="translate(15.9 -.85)"/><path d="m18.85 19.65.1.1-.3.2q-.7.3-.75.8-.05.45.2.9l.15.35-.25.05q-.35-.15-.65-.7-.5-.8-.15-1.35.45-.8 1.7-.4l-.05.05" fill="#c6c6c6" transform="translate(15.9 -.85)"/><path d="m17.9 19.7-.05.05-.3 1q-.2.4-.4-.4l.1-.4q.45-.3.65-.25" fill="#e2e0e1" transform="translate(15.9 -.85)"/><path d="m16.85 19.3-.6.55-1.1-.35-2.6-1.2 1.4.4 1.5.6h1.4" fill="#c6c6c6" transform="translate(15.9 -.85)"/><path d="m16.9 5.6 1.9-.4-2.3 3.25-.1.1-.1.05-10.05 2.55-.85.9v.15l.15.7.75 1.5.6 1.1q.6 1.25-.55 2.25l-.3.25-.85 1.1q-1.7 2.35-2.45 2.35l-.35-.05q-.6-.4-1.3-3.45L.75 16.7Q.1 15 1.7 12.05q-.45-.4-.55-1.45L-9.3 6.45l-.05-.15-.35-2.05q-.15-1.5.1-1.8l.1-.2h.25Q-8.95 3.5 1.5 8.3l.05-.05q.5-.5 2.35-.5 2.5 0 2.95.8l.1.25 9.8-4 .4.55-.25.25" fill="#020200" transform="translate(15.9 -.85)"/><path d="m1.15 8.8-.55.75-10.45-4-.2-1.4q0-.95.2-.9l11 5.55m4.75 2.15-.15-.9L16.4 5.6l-.85.85 2-.55-1.55 2-10.1 3.05" fill="#990231" transform="translate(15.9 -.85)"/><path d="M2 11.9q-.55-.15-.55-1.6-.05-1.4.3-1.8.4-.5 2.4-.4 2 .05 2.35.6.35.6-.25 1.75-.55 1.1-1.2 1.4l-3.2.15.15-.1" fill="#990231" transform="translate(15.9 -.85)"/><path d="M2.4 11.35v.2l1.95-.45.8 1.9 1.35 2.65q.5 1.05-.75 2.1-2.4 3.8-3.25 3.35-.4-.25-.9-2.15l-.6-2.4q-.65-1.65 1.4-5.2" fill="#990231" transform="translate(15.9 -.85)"/><path d="m2 11.95 3-.15-.05.6q-1.1 1.45-2 1.15-1.45-.45-.95-1.6M6.75 9.1h.2l1.3-.5-1.15 2.05-1.1.15q.45-.4.75-1.7m-6.7-.4-1.25-.5.35.1 2.4.3.1.05-.4 1.95-.9-.55q-.5-.25-.2-.35l.65-.2q.5-.3-.75-.8" fill="#020200" transform="translate(15.9 -.85)"/><path d="M2.05 8.75q4.65-.6 3.8 1.15-.45.9-1.55 1.6l-2-.05L4 11.2q1.1-.2.9-1.25-.1-.55-1.75-.55-1.7 0-1-.65h-.1m-.1 5.4v.05l.5 1.8q.15.45 1.05 1.35.75.75.4 1.6l-.95 1.2q-.3-.25-.9-2.6-.65-3.05-.1-3.4m7-5.1q.5-.4 3.75-1.45l2.85-.85q-.8.8-4.25 1.85l-2.6.6.25-.15M-9.5 3.6q3.75 1.65 7.1 3.5l-4.8-1.85Q-8.85 4-9.9 3.5l.4.1" fill="#c60537" transform="translate(15.9 -.85)"/><path d="M5.6 14.45q.9 1.1.6 2L4.75 14.4q-.8-1.65-1-.3-.05.45.55 1.6.5 1.05.3 1.6L3.5 15q-.85-1.55-.8-2.1l1.55-.25 1.35 1.8M7.45 9.5q.15.55 1.1.6l-1.8.5q-.15-.45.65-1l.05-.1m-6.05 0q-.1.95 2.8.4l-1.85.5-1.15.15.2-1.05" fill="#020200" transform="translate(15.9 -.85)"/><path d="M3.25 9.05 2.7 8.9l1-.2 1.55.05q.9.3 0 1.35.15-1.05-2-1.05M-7.9 4.75l2.65.8q1.8.55 2.1 1l-.1.05-4.65-1.85M9 8.9q.65-.55 2.25-1.05L14.6 7l-3.3 1.3-2.3.6m-7.25 5.6q.45.15.45 2.3l.45.85q.3.3 1.05.45.15.3-.1.85l-.55.5q-.25-.05-.45-1.35L1.85 16q-.4-.95-.1-1.5" fill="#f73e81" transform="translate(15.9 -.85)"/></g></defs></svg>