<?xml version="1.0" encoding="UTF-8" standalone="no"?>
<svg xmlns:xlink="http://www.w3.org/1999/xlink" height="82.0px" width="84.85px" xmlns="http://www.w3.org/2000/svg">
  <g transform="matrix(1.0, 0.0, 0.0, 1.0, 37.4, 42.25)">
    <use height="38.0" transform="matrix(1.0, 0.0, 0.0, 1.0, -11.95, -17.45)" width="32.05" xlink:href="#sprite0"/>
    <use height="38.95" transform="matrix(1.0, 0.0, 0.0, 1.0, -12.45, -17.95)" width="33.05" xlink:href="#sprite1"/>
    <use height="38.3" transform="matrix(1.0, 0.0, 0.0, 1.0, -17.4, -4.3)" width="44.2" xlink:href="#shape2"/>
  </g>
  <defs>
    <g id="sprite0" transform="matrix(1.0, 0.0, 0.0, 1.0, -0.05, 0.0)">
      <use height="38.0" transform="matrix(1.0, 0.0, 0.0, 1.0, 0.05, 0.0)" width="32.05" xlink:href="#shape0"/>
    </g>
    <g id="shape0" transform="matrix(1.0, 0.0, 0.0, 1.0, -0.05, 0.0)">
      <path d="M27.35 7.4 Q29.5 11.55 30.9 16.15 32.35 20.85 32.05 25.65 31.7 30.6 27.85 33.75 24.05 36.95 19.1 37.8 L16.5 38.0 Q12.9 38.0 9.45 36.85 4.8 35.25 2.35 31.35 -0.2 27.4 0.05 23.0 0.25 18.6 2.05 13.7 3.85 8.75 7.0 5.05 10.1 1.3 14.7 0.1 L16.5 0.0 Q18.4 0.05 20.2 0.8 24.95 2.85 27.35 7.4" fill="#c17745" fill-rule="evenodd" stroke="none"/>
    </g>
    <g id="sprite1" transform="matrix(1.0, 0.0, 0.0, 1.0, 0.45, 0.5)">
      <use height="38.95" transform="matrix(1.0, 0.0, 0.0, 1.0, -0.45, -0.5)" width="33.05" xlink:href="#shape1"/>
    </g>
    <g id="shape1" transform="matrix(1.0, 0.0, 0.0, 1.0, 0.45, 0.5)">
      <path d="M27.35 7.4 Q24.95 2.85 20.2 0.8 17.55 -0.3 14.7 0.1 10.1 1.3 7.0 5.05 3.85 8.75 2.05 13.7 0.25 18.6 0.05 23.0 -0.2 27.4 2.35 31.35 4.8 35.25 9.45 36.85 14.1 38.4 19.1 37.8 24.05 36.95 27.85 33.75 31.7 30.6 32.05 25.65 32.35 20.85 30.9 16.15 29.5 11.55 27.35 7.4 Z" fill="none" stroke="#000000" stroke-linecap="round" stroke-linejoin="round" stroke-width="1.0"/>
    </g>
    <g id="shape2" transform="matrix(1.0, 0.0, 0.0, 1.0, 17.4, 4.3)">
      <path d="M-1.8 4.05 L-1.35 4.7 Q-0.95 3.0 0.7 4.3 L0.7 4.25 0.75 4.2 1.05 4.55 1.3 4.3 1.35 4.25 1.4 4.2 1.4 4.25 Q2.7 3.3 4.25 4.45 L5.35 3.85 5.8 3.7 Q6.8 3.85 7.15 4.4 L7.2 4.35 7.25 4.5 7.35 4.2 7.35 4.05 9.7 4.0 9.85 3.85 9.95 3.65 Q10.4 3.65 10.5 4.1 10.7 3.7 11.15 3.6 L11.7 4.5 11.7 4.45 11.75 4.45 11.95 4.35 12.0 4.35 Q12.2 2.45 13.85 3.65 L13.95 3.5 13.95 3.55 15.1 2.65 Q16.3 1.95 17.75 2.2 L17.8 2.15 17.9 1.9 17.95 1.85 18.0 1.9 Q18.7 1.05 19.9 1.1 L20.5 1.1 Q21.9 1.75 20.5 3.4 L20.45 3.45 Q20.9 4.05 20.6 4.55 22.5 5.45 20.85 6.2 L20.85 6.3 20.85 6.35 20.7 6.55 20.5 7.5 20.45 7.85 20.2 6.95 Q20.05 6.95 20.05 7.1 L19.9 7.65 19.75 7.5 19.6 7.7 19.2 7.5 18.75 7.6 Q17.7 7.9 16.9 8.35 L15.95 8.7 15.75 8.75 14.75 8.6 14.2 8.65 Q13.2 7.7 12.95 8.85 L12.25 8.85 Q10.45 8.4 8.85 9.15 L8.9 9.2 8.1 9.6 6.8 9.8 2.5 9.4 2.15 9.4 0.35 9.65 Q0.8 11.3 0.65 13.25 L0.55 14.05 -0.25 13.85 Q-0.15 11.75 -0.5 9.6 L-1.9 9.3 -3.25 9.05 -6.9 8.6 -8.1 8.75 -8.15 8.7 -8.2 8.75 -10.0 8.0 -10.45 7.9 Q-10.85 8.0 -11.05 8.3 L-11.05 8.35 Q-9.65 9.4 -8.2 9.75 L-7.95 9.95 Q-7.8 10.0 -7.6 10.15 L-7.55 10.3 -7.8 10.2 -7.9 10.2 Q-8.85 9.65 -10.0 9.35 L-10.25 9.5 -11.7 8.5 -11.8 8.5 -12.05 7.2 -12.05 7.05 -12.1 6.55 -12.15 6.55 -12.2 6.5 -12.85 6.0 -12.45 4.65 -12.4 4.6 -12.5 3.9 -12.65 3.6 -12.6 3.25 -12.7 3.0 -13.0 2.1 -12.95 2.0 -12.7 1.75 -12.5 1.65 -11.45 1.75 -11.0 2.0 -10.9 2.0 -10.3 2.6 -9.95 2.35 -10.25 2.7 Q-9.75 3.3 -9.55 4.05 L-9.2 4.2 -8.8 4.35 -7.65 4.75 -8.25 4.0 -8.85 3.85 -8.85 3.6 -8.8 2.9 -8.8 2.85 -8.8 2.8 -8.85 2.8 Q-9.0 2.3 -9.65 2.2 -9.05 1.95 -8.65 2.6 L-8.6 2.65 -8.6 2.6 -8.55 2.55 -8.05 3.1 -8.05 3.0 -7.95 2.85 -6.3 2.9 -6.25 3.2 -6.25 3.05 -6.2 3.0 -6.1 3.15 -5.65 2.6 Q-4.2 2.65 -4.1 3.7 L-4.05 4.05 -3.7 3.8 -3.7 3.85 -3.75 3.9 -3.6 4.7 -3.55 4.95 -4.05 5.65 -1.5 6.0 -1.9 5.2 -2.1 5.15 -2.05 4.75 -2.0 4.7 -1.95 4.65 -1.95 4.25 -1.85 4.2 -1.85 4.25 -1.8 4.1 -1.8 4.05 M19.4 12.75 L19.95 13.6 20.55 14.2 21.4 14.7 21.4 14.65 Q21.6 14.7 21.65 14.85 L21.7 14.9 21.55 15.15 21.5 15.2 21.4 15.3 21.35 15.35 21.25 15.45 21.0 15.7 Q19.4 17.25 17.35 18.25 14.5 19.6 11.5 20.25 L11.4 20.25 11.35 20.3 11.25 20.3 10.0 20.5 4.15 20.75 2.5 20.8 3.25 20.2 9.6 19.7 Q8.95 19.05 8.6 18.1 L9.35 17.95 9.8 19.5 9.85 19.65 11.5 19.3 Q14.65 18.55 17.65 17.25 L18.7 15.95 Q20.3 14.85 18.0 14.05 L18.35 13.8 18.8 14.0 18.85 13.95 18.9 13.3 19.4 12.75 M-12.95 15.5 L-12.95 15.45 -13.05 15.35 -13.25 15.15 -13.15 15.05 Q-12.65 14.15 -11.7 13.65 L-11.65 13.6 -11.5 13.45 Q-11.1 14.05 -11.0 13.55 L-10.2 14.1 -10.1 14.35 -10.05 14.4 -9.85 14.3 -9.5 14.5 Q-11.8 15.4 -9.5 16.65 L-9.2 16.8 -8.9 16.95 -8.85 16.95 -9.35 17.25 Q-6.7 18.7 -3.6 19.45 -6.7 18.7 -9.35 17.25 L-8.85 16.95 -8.9 16.95 -7.1 17.85 Q-5.35 18.6 -3.6 18.7 L-3.6 19.45 -3.4 20.2 Q-6.3 19.55 -9.05 18.25 -10.55 17.55 -11.75 16.55 L-12.5 15.9 -12.55 15.85 -12.95 15.5 M-3.6 3.75 L-3.55 3.7 -3.45 3.6 -3.4 3.65 Q-2.6 3.25 -1.95 3.9 L-2.35 3.75 -2.5 3.75 -3.35 3.65 -3.45 3.7 -3.6 3.75 M21.0 5.5 L21.15 5.4 21.15 5.35 20.85 5.05 20.65 5.1 20.45 5.0 20.3 4.9 19.35 5.35 19.55 5.55 19.5 5.55 Q19.45 5.5 19.35 5.6 L19.15 5.8 Q19.5 6.25 19.85 6.0 L20.35 5.95 20.7 5.9 21.0 5.5 M19.8 2.95 L19.65 3.4 20.15 3.15 20.25 3.25 Q20.7 2.7 20.35 1.75 L19.85 2.2 19.85 2.45 Q19.55 2.65 19.6 3.0 L19.7 3.0 19.8 2.95 M18.45 3.15 L18.45 3.05 18.65 2.15 18.85 1.9 Q19.25 1.9 19.35 2.15 L19.0 3.6 18.95 3.6 18.75 3.7 18.9 2.1 18.85 2.15 Q18.5 2.6 18.45 3.05 18.5 2.6 18.85 2.15 L18.9 2.1 18.75 3.7 18.95 3.6 19.0 3.6 19.35 2.15 Q19.25 1.9 18.85 1.9 L18.65 2.15 18.45 3.05 18.45 3.15 18.15 3.25 17.95 3.95 18.6 3.75 18.45 3.15 M18.75 3.7 L18.6 3.75 18.75 3.7 M17.6 2.65 L17.45 2.45 Q16.1 2.25 15.75 3.35 L15.5 4.6 17.35 4.1 17.6 4.05 17.65 2.6 17.6 2.65 M16.05 6.95 L16.4 7.7 Q17.1 7.4 17.2 7.0 16.75 6.65 16.9 6.0 L16.95 5.95 17.05 6.0 17.1 5.95 17.15 5.9 17.25 5.95 17.15 6.15 Q17.4 6.7 17.9 6.85 L18.4 7.15 18.45 7.15 19.25 6.35 Q18.75 6.15 18.55 5.55 L16.45 6.0 10.3 6.85 8.4 7.1 8.85 7.15 8.7 7.35 8.7 7.45 8.9 8.0 8.85 8.3 10.5 8.05 10.55 8.1 10.35 7.55 10.45 7.35 Q10.55 7.25 10.6 7.3 11.25 7.7 11.3 8.4 L12.45 8.35 Q11.95 7.85 11.75 7.15 L11.8 7.15 12.25 7.4 12.35 7.5 12.6 7.75 12.55 7.65 13.05 7.6 13.0 7.05 13.05 7.0 13.0 6.7 13.1 6.65 Q13.75 7.1 14.0 7.8 L14.1 7.8 15.4 7.9 15.85 7.85 Q15.2 7.45 15.45 6.45 L15.55 6.4 15.9 6.7 16.05 6.95 M12.65 3.75 Q12.25 3.75 12.2 4.15 L12.25 4.65 12.0 4.65 12.15 5.25 13.0 5.1 13.5 5.0 13.55 5.0 13.5 4.95 Q13.65 4.4 13.4 4.05 13.2 3.8 12.8 3.7 L12.65 3.75 M11.3 5.4 L11.6 5.35 11.65 4.5 11.6 4.45 11.2 4.25 11.15 4.3 Q10.85 4.7 11.2 4.95 L11.15 5.45 11.3 5.4 M9.9 5.6 L10.8 5.5 Q10.5 5.15 10.55 4.75 L10.1 4.1 Q9.9 4.1 9.85 4.2 L9.8 4.15 9.6 4.25 Q9.35 4.5 9.4 4.85 L9.5 4.95 9.6 5.0 9.35 5.05 9.1 5.7 9.7 5.65 9.9 5.6 M14.55 3.35 L14.45 3.25 14.05 3.7 Q14.25 4.25 14.1 4.9 L15.0 4.7 14.95 4.1 Q15.25 3.35 15.15 2.7 L14.8 3.15 14.75 3.05 14.55 3.35 M8.7 13.9 L7.9 14.15 Q7.75 11.85 8.1 9.6 L8.45 9.45 8.7 13.9 M18.7 8.65 L18.2 9.1 16.65 9.8 16.4 9.85 16.35 9.75 16.9 9.35 Q17.8 9.1 18.7 8.65 M4.65 4.9 L4.55 5.4 4.4 5.4 4.45 6.0 6.0 5.95 6.45 5.95 Q7.4 4.0 5.35 3.95 4.85 4.1 4.7 4.6 L4.65 4.9 M7.6 4.45 L7.35 4.85 7.2 5.9 8.4 5.8 8.75 5.75 8.9 4.1 8.85 4.15 8.8 3.9 8.75 3.9 Q7.85 3.9 7.6 4.45 M0.65 4.85 L0.75 4.7 1.2 4.7 0.75 4.65 0.75 4.5 0.7 4.45 0.65 4.4 0.45 4.25 0.4 4.25 -0.5 3.9 -0.5 3.95 -0.45 4.1 Q-0.8 4.25 -0.8 4.7 L-0.75 5.35 -1.2 5.8 -1.2 5.95 -1.25 5.95 -1.25 6.0 -0.45 6.05 -0.1 6.05 1.25 6.05 1.05 5.5 0.9 5.4 0.6 5.35 0.75 5.2 0.65 4.85 M2.05 4.7 Q1.75 5.05 2.0 5.4 L1.8 5.4 1.9 6.05 3.2 6.05 3.7 6.05 Q3.25 5.55 3.25 4.95 L3.3 4.95 Q3.35 5.45 3.75 5.9 L3.75 5.85 3.45 4.9 3.5 4.9 3.35 4.6 3.3 4.55 2.8 4.1 2.6 4.15 Q2.1 4.35 2.05 4.7 M2.8 8.2 L2.5 8.65 4.0 8.6 4.1 8.7 4.9 9.15 Q4.4 8.45 5.0 7.4 L5.05 7.4 2.65 7.55 2.8 7.9 2.75 8.15 2.8 8.2 M-1.5 8.45 L-1.6 8.65 Q-1.55 9.4 0.55 9.4 2.35 9.35 2.25 8.65 2.2 8.1 2.5 7.55 L0.6 7.6 -1.4 7.55 -1.45 7.95 -1.45 8.15 -1.5 8.45 M8.35 7.1 L8.0 7.1 5.1 7.4 5.45 7.85 5.55 7.9 Q5.55 8.55 5.15 9.2 L6.3 9.3 6.45 9.3 7.4 9.15 8.15 8.75 Q7.75 8.05 8.2 7.3 L8.25 7.45 8.35 7.1 M-4.5 4.0 L-4.5 3.9 Q-4.75 3.4 -5.3 3.35 L-5.4 3.25 -5.6 3.45 -5.6 3.5 -5.65 3.85 -5.3 4.65 -5.25 5.4 -4.2 5.65 -4.3 5.2 -4.45 4.9 -4.5 4.85 -4.45 4.8 -4.5 4.0 M-12.0 6.1 Q-11.85 6.4 -11.15 6.7 L-11.0 6.75 -10.1 6.55 -10.0 6.4 -9.95 6.4 -9.85 6.25 Q-9.85 5.9 -9.45 5.6 L-9.4 5.6 -9.35 5.65 -9.2 5.55 -9.95 5.2 -11.4 4.55 -11.5 4.5 -11.5 4.6 -11.85 5.2 Q-12.35 5.4 -12.0 6.1 M-8.8 5.75 L-8.8 5.8 -8.75 5.75 -8.8 5.75 M-7.5 4.1 L-7.35 4.85 -5.5 5.35 -5.7 5.05 -5.7 5.1 -5.7 5.15 -6.15 4.6 -6.55 4.5 Q-6.25 3.6 -6.75 3.05 L-6.75 3.1 -6.9 3.2 -7.0 3.15 -7.05 3.15 -7.1 3.2 -7.45 3.15 -7.7 3.4 -7.55 4.1 -7.5 4.1 M-5.25 7.35 L-4.85 7.05 -5.2 6.95 -5.25 7.35 M-6.6 7.15 L-6.9 7.45 -6.85 7.5 -6.8 7.55 Q-6.55 8.15 -5.9 7.7 L-5.45 6.9 -6.25 6.7 -6.5 7.1 -6.6 7.15 M-7.2 7.4 L-7.15 7.4 -7.15 7.3 -7.2 7.35 -7.2 7.4 M-7.3 6.35 L-8.1 6.0 -9.25 7.05 Q-8.8 8.1 -7.75 7.65 L-7.3 7.4 -7.3 6.35 M-5.1 8.05 L-5.35 8.2 -5.1 8.35 -4.25 8.5 -3.55 8.5 -2.95 7.4 -4.0 7.2 -4.15 7.4 -4.15 7.35 Q-4.8 7.6 -5.1 8.05 M-2.25 7.45 L-2.35 7.45 -2.55 7.45 -2.6 7.6 -2.8 7.9 -2.75 7.9 -2.8 7.95 -3.2 8.45 -2.8 8.3 -2.0 8.4 Q-2.1 7.95 -1.7 7.55 L-2.25 7.45 M-4.6 7.5 L-4.2 7.2 -4.55 7.1 -4.6 7.5 M-12.3 2.1 L-12.5 2.25 Q-12.5 3.35 -11.85 3.75 -11.25 3.45 -10.3 3.75 L-10.5 3.5 -10.55 3.4 -10.6 3.55 -10.95 3.5 -11.25 2.6 -11.25 2.55 -11.3 2.5 Q-11.65 2.2 -12.15 2.05 L-12.25 1.95 -12.3 2.1 M-7.45 15.65 Q-5.35 16.7 -3.05 17.45 -3.5 18.0 -3.6 18.7 -5.35 18.6 -7.1 17.85 L-8.9 16.95 Q-8.1 16.4 -7.45 15.65" fill="#480002" fill-rule="evenodd" stroke="none"/>
      <path d="M-3.7 3.8 L-3.6 3.75 -3.45 3.7 -3.35 3.65 -2.5 3.75 Q-2.05 3.9 -2.25 4.6 L-2.3 4.65 -2.35 4.65 -2.8 4.6 -2.75 4.95 -2.8 5.35 -2.8 5.7 -2.8 5.75 -2.95 5.6 -3.05 5.7 -3.55 4.95 -3.6 4.7 -3.75 3.9 -3.7 3.85 -3.7 3.8 M20.65 5.1 L20.85 5.05 21.15 5.35 21.15 5.4 21.0 5.5 Q20.7 5.8 20.5 5.35 L20.65 5.1 M19.85 6.0 Q19.5 6.25 19.15 5.8 L19.35 5.6 Q19.45 5.5 19.5 5.55 L19.55 5.55 19.9 5.85 19.9 5.9 19.85 6.0 M19.8 2.95 L19.7 3.0 19.6 3.0 Q19.55 2.65 19.85 2.45 L19.95 2.4 20.0 2.35 Q20.3 2.7 19.8 2.95 M22.95 24.65 L23.8 24.6 23.9 24.35 23.9 24.25 24.6 24.0 Q24.55 23.65 25.1 23.5 L25.15 23.5 25.05 23.25 25.0 23.15 24.95 23.1 Q25.1 22.85 25.4 22.7 L25.25 22.35 25.2 22.3 25.55 22.05 25.5 21.55 25.55 21.55 Q26.15 22.3 25.35 23.1 L25.3 23.15 25.35 23.2 Q25.55 23.6 25.3 23.8 L24.95 23.95 24.85 24.3 24.85 24.35 24.15 24.45 Q23.7 25.3 22.9 24.85 22.7 25.9 21.0 25.5 L19.75 25.35 Q19.2 25.8 18.6 25.15 17.05 25.35 16.7 24.3 16.25 25.0 15.55 24.15 14.6 24.15 13.6 23.5 L12.8 22.95 12.7 22.7 Q12.2 22.6 12.1 22.1 L11.65 22.0 11.6 22.0 Q11.25 21.75 11.4 21.25 L10.35 22.1 10.3 22.1 10.1 22.55 10.1 22.6 9.5 22.65 Q9.5 23.25 8.85 23.1 L8.8 23.1 Q8.7 23.75 7.95 23.5 7.85 24.35 7.15 24.0 L7.15 24.2 7.15 24.25 5.75 24.8 Q5.45 25.4 4.65 25.05 4.25 25.65 3.45 25.4 3.25 26.1 2.5 25.8 1.75 26.4 1.1 25.8 L1.1 25.75 2.15 25.75 2.35 25.35 2.4 25.3 3.9 25.05 Q4.5 24.7 5.35 24.85 L5.45 24.55 5.5 24.5 6.15 24.45 Q6.4 24.0 7.05 24.0 L7.1 24.0 7.05 23.95 7.05 23.9 Q7.6 23.95 7.7 23.45 L7.8 23.15 8.55 23.2 Q8.6 22.65 9.25 22.85 L9.25 22.55 9.3 22.5 Q10.0 22.5 10.0 22.0 L10.6 21.4 11.35 21.0 11.45 21.05 11.7 21.85 11.75 21.9 12.15 21.55 12.45 22.3 12.95 22.3 13.0 22.75 13.05 22.8 13.7 22.8 Q14.0 23.5 14.3 23.05 L14.6 23.1 Q14.6 23.7 15.25 23.95 15.35 23.65 15.6 23.5 15.75 24.0 16.25 24.3 L16.7 24.2 16.7 24.25 17.25 24.7 17.3 24.7 17.45 24.4 17.5 24.3 17.5 24.35 Q17.75 24.75 18.3 24.95 L19.25 25.0 19.3 25.0 19.3 24.9 19.35 24.9 Q19.95 24.95 20.7 25.35 L20.8 25.1 20.8 25.05 21.9 25.3 22.0 25.0 22.05 24.95 Q22.7 25.1 22.7 24.75 22.65 24.5 22.9 24.6 L22.9 24.65 22.95 24.65 M17.6 2.65 L17.65 2.6 17.6 4.05 17.35 4.1 Q17.15 3.3 17.6 2.65 M15.9 6.7 L15.9 6.15 15.95 6.1 16.5 7.05 16.5 7.1 16.05 6.95 15.9 6.7 M17.25 5.95 L17.4 5.9 Q18.5 6.15 18.1 6.9 L18.05 6.9 17.9 6.85 Q17.4 6.7 17.15 6.15 L17.25 5.95 M8.85 7.15 L8.95 7.1 Q9.85 7.45 9.3 8.15 L9.3 8.2 8.9 8.0 8.7 7.45 8.7 7.35 8.85 7.15 M12.25 7.4 Q12.1 7.2 12.25 6.8 L12.3 6.8 12.85 7.5 12.85 7.55 12.35 7.5 12.25 7.4 M13.0 5.1 L12.55 4.15 12.5 3.9 12.55 3.85 12.65 3.75 12.8 3.7 Q13.2 3.8 13.4 4.05 13.65 4.4 13.5 4.95 L13.5 5.0 13.0 5.1 M11.2 4.95 Q10.85 4.7 11.15 4.3 L11.2 4.25 11.6 4.45 11.65 4.5 11.6 5.35 11.3 5.4 11.35 5.2 11.4 5.0 11.2 4.95 M9.9 5.6 L9.7 5.65 9.75 5.55 9.85 5.25 9.6 5.0 9.5 4.95 9.4 4.85 Q9.35 4.5 9.6 4.25 L9.8 4.15 9.85 4.2 Q10.8 4.6 9.9 5.6 M14.95 4.1 L14.75 4.55 14.7 4.6 14.65 4.4 Q14.2 3.9 14.55 3.35 L14.75 3.05 14.8 3.15 15.15 2.7 Q15.25 3.35 14.95 4.1 M13.85 6.55 Q14.75 6.9 15.1 7.7 L15.1 7.75 Q13.85 8.0 13.75 6.65 L13.85 6.55 M11.1 6.85 Q11.8 7.3 11.95 8.1 L11.95 8.15 Q11.0 7.95 11.0 6.9 L11.1 6.85 M14.65 11.5 L14.6 11.55 11.4 12.95 9.6 13.05 Q8.7 11.15 11.15 11.55 12.45 11.8 13.5 11.1 L9.3 10.85 Q9.6 9.6 10.65 9.15 14.2 9.55 17.75 8.45 15.6 9.5 14.4 11.4 L14.65 11.5 M7.5 14.3 L7.45 14.3 6.95 14.35 6.5 13.9 Q5.5 13.0 4.25 12.85 L3.95 13.05 3.7 12.85 2.75 13.1 Q1.25 12.35 1.3 10.55 1.3 9.5 2.65 9.75 L7.0 10.35 7.05 10.4 6.85 10.75 5.85 11.7 Q8.0 11.55 7.2 12.95 L7.0 13.25 6.5 13.9 Q7.45 13.8 7.5 14.3 M-1.7 13.45 Q-4.3 12.65 -6.7 11.5 L-6.1 11.3 -5.95 11.05 Q-6.45 9.95 -7.3 9.05 L-4.8 9.45 -4.15 9.4 Q-1.1 8.95 -0.55 11.2 L-4.75 11.5 Q-3.75 12.2 -2.45 11.95 0.0 11.55 -0.85 13.45 L-1.7 13.45 M14.6 10.6 L14.6 10.55 14.5 10.55 14.6 10.6 M6.0 5.95 L6.0 5.85 6.2 4.9 6.2 4.8 5.7 4.75 5.2 5.2 5.1 5.1 4.95 5.1 4.65 4.9 4.7 4.6 Q4.85 4.1 5.35 3.95 7.4 4.0 6.45 5.95 L6.0 5.95 M8.4 5.8 Q8.4 5.2 8.65 4.65 L7.55 4.7 7.5 4.7 7.6 4.45 Q7.85 3.9 8.75 3.9 L8.8 3.9 8.85 4.15 8.9 4.1 8.75 5.75 8.4 5.8 M0.4 4.25 L0.45 4.25 0.65 4.4 0.7 4.45 0.75 4.5 0.75 4.65 1.2 4.7 0.75 4.7 0.65 4.85 0.3 5.0 Q0.0 5.0 -0.15 5.15 L-0.1 5.65 -0.1 6.05 -0.45 6.05 -0.75 5.35 -0.8 4.7 Q-0.8 4.25 -0.45 4.1 L-0.3 4.05 0.4 4.25 M3.25 4.95 L2.1 5.2 2.05 4.7 Q2.1 4.35 2.6 4.15 L2.8 4.1 3.3 4.55 3.35 4.6 3.5 4.9 3.45 4.9 3.75 5.85 3.75 5.9 Q3.35 5.45 3.3 4.95 L3.25 4.95 M2.8 7.9 L3.1 7.65 Q3.1 7.55 3.2 7.6 3.4 8.15 4.25 8.45 L4.2 8.45 2.8 8.2 2.75 8.15 2.8 7.9 M-1.45 8.15 L-1.15 7.85 -0.85 7.8 -1.1 8.2 -1.15 8.25 1.25 8.25 1.45 8.85 1.4 9.05 Q-0.1 9.4 -1.25 8.7 L-1.5 8.45 -1.45 8.15 M6.0 7.95 L6.3 7.3 6.5 7.8 6.45 7.85 7.45 8.1 Q7.4 9.3 6.1 8.8 L6.0 8.75 6.0 7.95 M5.55 11.05 L5.6 11.0 5.5 10.95 5.55 11.05 M8.2 18.2 L8.25 19.1 5.7 19.4 5.7 19.05 Q6.6 18.85 7.1 18.35 L8.2 18.2 M10.45 17.65 L11.25 17.4 Q14.05 16.45 16.6 14.95 L16.95 14.95 17.2 15.35 17.5 15.55 16.85 16.3 Q16.6 16.85 16.9 16.9 L15.8 17.45 Q13.1 18.65 10.5 18.2 10.35 18.2 10.6 17.9 L10.45 17.65 M-5.3 3.35 Q-4.75 3.4 -4.5 3.9 L-4.5 4.0 -5.0 4.15 -5.15 4.1 -5.05 4.55 -5.15 4.9 -5.3 4.65 -5.65 3.85 -5.6 3.5 -5.35 3.35 -5.3 3.35 M-9.2 4.2 Q-9.65 3.55 -9.45 2.65 L-9.3 2.5 -8.85 2.8 -8.8 2.8 -8.8 2.85 -8.8 2.9 -8.85 3.6 -8.85 3.85 -8.8 4.35 -9.2 4.2 M-11.85 5.2 L-11.35 5.1 -11.05 5.05 Q-10.75 5.5 -11.4 5.9 L-11.85 6.1 -12.0 6.1 Q-12.35 5.4 -11.85 5.2 M-7.5 4.1 L-7.55 4.1 -7.7 3.4 -7.45 3.15 -7.1 3.2 -6.65 3.55 -6.65 3.6 -7.45 4.1 -7.5 4.1 M-6.5 7.1 L-6.15 7.0 Q-5.7 7.5 -6.55 7.6 L-6.6 7.6 -6.6 7.15 -6.5 7.1 M-7.5 6.8 L-8.45 7.45 -8.55 7.45 Q-8.65 7.05 -8.35 6.6 -8.25 6.4 -8.05 6.4 -7.8 6.5 -7.55 6.7 L-7.5 6.8 M-4.15 7.4 Q-3.9 8.3 -5.1 8.1 L-5.1 8.05 Q-4.8 7.6 -4.15 7.35 L-4.15 7.4 M-5.8 10.95 L-5.85 10.95 -5.85 11.0 -5.8 10.95 M-2.35 7.45 L-2.25 7.45 Q-1.85 8.2 -2.75 7.9 L-2.8 7.9 -2.6 7.6 -2.35 7.45 M-12.3 2.1 L-12.25 1.95 -12.15 2.05 Q-11.4 2.7 -11.55 3.55 L-11.55 3.6 Q-12.7 2.95 -12.3 2.1 M-4.95 26.85 Q-6.0 28.05 -7.05 26.95 -8.55 27.35 -10.1 26.6 -11.45 27.05 -11.3 25.85 -12.0 27.05 -13.15 25.85 L-13.65 25.5 Q-14.8 24.95 -15.3 24.0 L-15.65 23.9 -15.95 23.65 -16.05 22.95 Q-16.65 22.6 -16.4 21.9 L-16.35 21.85 Q-15.85 22.5 -15.65 23.25 L-15.5 23.55 -15.0 23.65 Q-15.0 24.7 -13.85 24.55 -13.75 25.4 -12.8 25.3 -12.35 26.3 -11.3 25.8 L-11.3 25.85 Q-10.85 26.75 -10.2 26.2 L-10.15 26.15 Q-9.5 26.8 -8.55 26.45 L-6.95 26.5 Q-6.3 27.5 -5.0 26.8 L-4.95 26.85 M-4.9 26.8 Q-4.15 26.95 -3.75 26.35 -2.9 27.0 -2.25 26.1 -1.1 27.35 -0.15 25.95 L-0.05 25.9 Q0.55 26.45 1.1 25.8 1.45 26.75 -0.05 26.65 -0.2 26.6 -0.4 26.8 -1.35 27.55 -2.2 26.6 -3.6 27.45 -4.9 26.85 L-4.9 26.8" fill="#c60005" fill-rule="evenodd" stroke="none"/>
      <path d="M26.1 24.3 Q27.2 26.3 26.5 28.7 L26.2 29.05 Q22.7 31.6 18.35 32.55 L14.7 32.45 14.45 33.5 14.25 33.6 5.75 34.0 Q3.45 33.85 1.9 32.7 L1.9 32.45 Q0.0 33.7 -2.65 33.05 -8.7 31.55 -14.3 28.95 L-15.25 28.3 -16.35 27.4 -16.85 26.9 Q-17.25 26.35 -16.95 25.7 L-16.5 24.65 -16.35 24.7 -16.35 24.8 -16.3 25.5 Q-16.05 26.05 -15.1 26.0 -15.0 27.15 -13.95 26.8 -13.6 27.55 -12.8 27.1 L-12.6 27.45 -11.15 27.4 Q-10.8 28.5 -9.6 27.8 -9.1 28.65 -8.15 28.05 -7.35 29.05 -6.4 28.3 -5.75 28.7 -5.25 28.3 -4.5 28.9 -3.95 28.15 -3.0 28.35 -2.8 27.85 L-1.55 27.9 Q-0.8 28.2 -0.5 27.45 0.3 27.8 0.6 27.1 1.4 27.55 1.8 26.9 2.55 27.65 3.1 26.65 L3.15 26.65 Q4.35 26.5 4.15 25.65 4.9 26.7 5.5 25.55 6.4 25.9 6.6 25.05 7.45 25.15 7.65 24.35 8.8 24.65 9.15 23.45 9.95 23.45 10.15 22.65 L10.2 22.6 10.25 22.55 Q11.0 22.35 11.35 22.0 11.5 22.55 12.2 22.9 13.5 24.35 15.5 24.85 L16.4 25.5 16.75 25.6 18.2 25.55 Q18.35 26.5 19.6 26.05 L19.75 26.2 Q20.7 27.05 20.9 26.05 L22.7 26.15 23.4 26.3 23.45 26.2 23.5 25.9 Q24.45 26.1 24.7 25.15 L24.75 25.1 24.8 25.05 25.85 24.95 26.1 24.3 M-9.95 2.35 L-9.65 2.2 Q-9.0 2.3 -8.85 2.8 L-9.3 2.5 -9.45 2.65 Q-9.65 3.55 -9.2 4.2 L-9.55 4.05 Q-9.75 3.3 -10.25 2.7 L-9.95 2.35 M-1.95 3.9 L-1.8 4.05 -1.8 4.1 -1.85 4.25 -1.85 4.2 -1.95 4.25 -1.95 4.65 -2.0 4.7 -2.05 4.75 -2.1 5.15 -1.9 5.2 -1.5 6.0 -4.05 5.65 -3.55 4.95 -3.05 5.7 -2.95 5.6 -2.8 5.75 -2.8 5.7 -2.8 5.35 -2.75 4.95 -2.8 4.6 -2.35 4.65 -2.3 4.65 -2.25 4.6 Q-2.05 3.9 -2.5 3.75 L-2.35 3.75 -1.95 3.9 M21.0 5.5 L20.7 5.9 20.35 5.95 19.85 6.0 19.9 5.9 19.9 5.85 19.55 5.55 19.35 5.35 20.3 4.9 20.45 5.0 20.65 5.1 20.5 5.35 Q20.7 5.8 21.0 5.5 M19.85 2.45 L19.85 2.2 20.35 1.75 Q20.7 2.7 20.25 3.25 L20.15 3.15 19.65 3.4 19.8 2.95 Q20.3 2.7 20.0 2.35 L19.95 2.4 19.85 2.45 M18.45 3.15 L18.6 3.75 17.95 3.95 18.15 3.25 18.45 3.15 M17.35 4.1 L15.5 4.6 15.75 3.35 Q16.1 2.25 17.45 2.45 L17.6 2.65 Q17.15 3.3 17.35 4.1 M16.05 6.95 L16.5 7.1 16.5 7.05 15.95 6.1 15.9 6.15 15.9 6.7 15.55 6.4 15.45 6.45 Q15.2 7.45 15.85 7.85 L15.4 7.9 14.1 7.8 14.0 7.8 Q13.75 7.1 13.1 6.65 L13.0 6.7 13.05 7.0 13.0 7.05 13.05 7.6 12.55 7.65 12.6 7.75 12.35 7.5 12.85 7.55 12.85 7.5 12.3 6.8 12.25 6.8 Q12.1 7.2 12.25 7.4 L11.8 7.15 11.75 7.15 Q11.95 7.85 12.45 8.35 L11.3 8.4 Q11.25 7.7 10.6 7.3 10.55 7.25 10.45 7.35 L10.35 7.55 10.55 8.1 10.5 8.05 8.85 8.3 8.9 8.0 9.3 8.2 9.3 8.15 Q9.85 7.45 8.95 7.1 L8.85 7.15 8.4 7.1 10.3 6.85 16.45 6.0 18.55 5.55 Q18.75 6.15 19.25 6.35 L18.45 7.15 18.4 7.15 17.9 6.85 18.05 6.9 18.1 6.9 Q18.5 6.15 17.4 5.9 L17.25 5.95 17.15 5.9 17.1 5.95 17.05 6.0 16.95 5.95 16.9 6.0 Q16.75 6.65 17.2 7.0 17.1 7.4 16.4 7.7 L16.05 6.95 M12.65 3.75 L12.55 3.85 12.5 3.9 12.55 4.15 13.0 5.1 12.15 5.25 12.0 4.65 12.25 4.65 12.2 4.15 Q12.25 3.75 12.65 3.75 M13.5 5.0 L13.5 4.95 13.55 5.0 13.5 5.0 M11.3 5.4 L11.15 5.45 11.2 4.95 11.4 5.0 11.35 5.2 11.3 5.4 M9.85 4.2 Q9.9 4.1 10.1 4.1 L10.55 4.75 Q10.5 5.15 10.8 5.5 L9.9 5.6 Q10.8 4.6 9.85 4.2 M9.7 5.65 L9.1 5.7 9.35 5.05 9.6 5.0 9.85 5.25 9.75 5.55 9.7 5.65 M14.95 4.1 L15.0 4.7 14.1 4.9 Q14.25 4.25 14.05 3.7 L14.45 3.25 14.55 3.35 Q14.2 3.9 14.65 4.4 L14.7 4.6 14.75 4.55 14.95 4.1 M13.85 6.55 L13.75 6.65 Q13.85 8.0 15.1 7.75 L15.1 7.7 Q14.75 6.9 13.85 6.55 M0.55 14.05 L0.65 13.25 Q0.8 11.3 0.35 9.65 L2.15 9.4 2.5 9.4 6.8 9.8 8.1 9.6 8.9 9.2 8.85 9.15 Q10.45 8.4 12.25 8.85 L12.95 8.85 Q13.2 7.7 14.2 8.65 L14.75 8.6 15.75 8.75 15.95 8.7 16.9 8.35 Q17.7 7.9 18.75 7.6 L19.2 7.5 19.6 7.7 18.7 8.65 Q17.8 9.1 16.9 9.35 L16.35 9.75 16.4 9.85 16.65 9.8 18.2 9.1 14.65 11.5 14.4 11.4 Q15.6 9.5 17.75 8.45 14.2 9.55 10.65 9.15 9.6 9.6 9.3 10.85 L13.5 11.1 Q12.45 11.8 11.15 11.55 8.7 11.15 9.6 13.05 L11.4 12.95 8.7 13.9 8.45 9.45 8.1 9.6 Q7.75 11.85 7.9 14.15 L7.5 14.3 Q7.45 13.8 6.5 13.9 L7.0 13.25 7.2 12.95 Q8.0 11.55 5.85 11.7 L6.85 10.75 7.05 10.4 7.0 10.35 2.65 9.75 Q1.3 9.5 1.3 10.55 1.25 12.35 2.75 13.1 L1.45 13.9 1.15 14.2 0.55 14.05 M11.1 6.85 L11.0 6.9 Q11.0 7.95 11.95 8.15 L11.95 8.1 Q11.8 7.3 11.1 6.85 M-0.25 13.85 L-1.7 13.45 -0.85 13.45 Q0.0 11.55 -2.45 11.95 -3.75 12.2 -4.75 11.5 L-0.55 11.2 Q-1.1 8.95 -4.15 9.4 L-4.8 9.45 -7.3 9.05 Q-6.45 9.95 -5.95 11.05 L-6.1 11.3 -6.7 11.5 Q-8.55 10.6 -10.25 9.5 L-10.0 9.35 Q-8.85 9.65 -7.9 10.2 L-7.8 10.2 -7.55 10.3 -7.6 10.15 Q-7.8 10.0 -7.95 9.95 L-8.2 9.75 Q-9.65 9.4 -11.05 8.35 L-11.05 8.3 Q-10.85 8.0 -10.45 7.9 L-10.0 8.0 -8.2 8.75 -8.15 8.7 -8.1 8.75 -6.9 8.6 -3.25 9.05 -1.9 9.3 -0.5 9.6 Q-0.15 11.75 -0.25 13.85 M14.6 10.6 L14.5 10.55 14.6 10.55 14.6 10.6 M4.65 4.9 L4.95 5.1 5.1 5.1 5.2 5.2 5.7 4.75 6.2 4.8 6.2 4.9 6.0 5.85 6.0 5.95 4.45 6.0 4.4 5.4 4.55 5.4 4.65 4.9 M7.6 4.45 L7.5 4.7 7.55 4.7 8.65 4.65 Q8.4 5.2 8.4 5.8 L7.2 5.9 7.35 4.85 7.6 4.45 M0.65 4.85 L0.75 5.2 0.6 5.35 0.9 5.4 1.05 5.5 1.25 6.05 -0.1 6.05 -0.1 5.65 -0.15 5.15 Q0.0 5.0 0.3 5.0 L0.65 4.85 M-0.45 6.05 L-1.25 6.0 -1.25 5.95 -1.2 5.95 -1.2 5.8 -0.75 5.35 -0.45 6.05 M-0.45 4.1 L-0.5 3.95 -0.5 3.9 0.4 4.25 -0.3 4.05 -0.45 4.1 M2.05 4.7 L2.1 5.2 3.25 4.95 Q3.25 5.55 3.7 6.05 L3.2 6.05 1.9 6.05 1.8 5.4 2.0 5.4 Q1.75 5.05 2.05 4.7 M2.8 7.9 L2.65 7.55 5.05 7.4 5.0 7.4 Q4.4 8.45 4.9 9.15 L4.1 8.7 4.0 8.6 2.5 8.65 2.8 8.2 4.2 8.45 4.25 8.45 Q3.4 8.15 3.2 7.6 3.1 7.55 3.1 7.65 L2.8 7.9 M-1.5 8.45 L-1.25 8.7 Q-0.1 9.4 1.4 9.05 L1.45 8.85 1.25 8.25 -1.15 8.25 -1.1 8.2 -0.85 7.8 -1.15 7.85 -1.45 8.15 -1.45 7.95 -1.4 7.55 0.6 7.6 2.5 7.55 Q2.2 8.1 2.25 8.65 2.35 9.35 0.55 9.4 -1.55 9.4 -1.6 8.65 L-1.5 8.45 M8.35 7.1 L8.25 7.45 8.2 7.3 Q7.75 8.05 8.15 8.75 L7.4 9.15 6.45 9.3 6.3 9.3 5.15 9.2 Q5.55 8.55 5.55 7.9 L5.45 7.85 5.1 7.4 8.0 7.1 8.35 7.1 M5.55 11.05 L5.5 10.95 5.6 11.0 5.55 11.05 M6.0 7.95 L6.0 8.75 6.1 8.8 Q7.4 9.3 7.45 8.1 L6.45 7.85 6.5 7.8 6.3 7.3 6.0 7.95 M8.2 18.2 L8.6 18.1 Q8.95 19.05 9.6 19.7 L3.25 20.2 3.6 19.95 3.8 19.8 3.9 19.75 3.95 19.75 4.1 19.75 Q4.45 20.2 5.25 19.9 L5.7 19.4 8.25 19.1 8.2 18.2 M9.35 17.95 L10.45 17.65 10.6 17.9 Q10.35 18.2 10.5 18.2 13.1 18.65 15.8 17.45 L16.9 16.9 Q16.6 16.85 16.85 16.3 L17.5 15.55 17.2 15.35 16.95 14.95 16.6 14.95 17.45 14.4 18.0 14.05 Q20.3 14.85 18.7 15.95 L17.65 17.25 Q14.65 18.55 11.5 19.3 L9.85 19.65 9.8 19.5 9.35 17.95 M18.35 13.8 L18.9 13.3 18.85 13.95 18.8 14.0 18.35 13.8 M11.4 25.55 L11.3 24.7 11.25 24.45 11.0 23.3 10.95 22.9 10.9 22.7 9.75 23.8 9.5 24.05 9.2 24.3 8.4 24.9 8.35 25.0 8.2 25.05 7.95 25.25 7.95 26.15 7.45 33.5 11.8 33.5 11.75 32.1 Q11.85 28.75 11.4 25.55 M11.25 22.75 L11.15 22.6 11.2 22.75 11.25 23.2 11.55 24.7 11.7 25.55 Q12.15 28.85 12.15 32.25 L12.2 33.45 13.75 33.35 13.9 33.15 Q13.85 30.75 13.3 28.25 L12.5 25.55 12.2 24.8 12.0 24.3 11.25 22.75 M16.1 26.85 L15.4 25.55 14.1 24.8 13.95 24.7 12.95 24.0 12.85 24.15 12.9 24.25 13.0 24.95 13.1 25.15 13.15 25.55 Q14.0 28.75 16.15 31.55 L16.2 31.65 16.3 31.75 16.7 31.95 17.15 31.95 18.35 32.15 Q17.4 29.4 16.1 26.85 M20.1 27.5 L19.95 27.0 18.2 26.65 Q16.85 26.25 15.65 25.7 L16.35 26.9 Q17.75 29.35 18.6 32.15 L18.95 32.05 20.4 31.2 21.05 31.0 20.1 27.5 M7.55 26.35 L7.6 25.55 7.2 25.8 Q6.25 26.45 5.35 26.75 L4.65 26.9 4.55 26.9 4.45 26.9 4.1 26.95 3.9 26.95 3.75 26.95 3.65 27.1 3.5 27.95 Q3.3 29.55 3.55 31.25 L3.75 32.55 Q3.8 33.0 4.25 33.15 L4.35 33.15 7.25 33.45 7.55 26.35 M-0.6 32.95 Q0.0 32.9 0.3 32.5 L0.35 32.5 1.45 27.95 1.35 27.6 -0.5 28.35 -2.0 28.75 -2.05 28.95 -2.65 31.7 -2.8 32.45 -2.5 32.55 -1.0 32.9 -0.6 32.95 M26.45 27.8 Q26.6 26.7 26.4 25.9 L26.2 25.3 25.2 25.5 25.2 25.55 Q25.75 27.15 25.7 28.85 L26.45 27.8 M25.0 25.65 L25.05 25.55 24.95 25.65 24.45 25.95 23.35 26.5 Q24.0 28.0 24.25 29.6 L25.4 29.05 25.0 25.65 M22.85 30.3 L23.9 29.8 23.3 27.2 23.15 26.65 23.15 26.6 22.7 26.7 21.9 26.9 20.25 27.0 20.2 27.0 20.25 27.1 20.25 27.2 20.4 27.5 21.4 30.85 22.8 30.3 22.85 30.3 M-5.3 3.35 L-5.35 3.35 -5.6 3.5 -5.6 3.45 -5.4 3.25 -5.3 3.35 M-5.3 4.65 L-5.15 4.9 -5.05 4.55 -5.15 4.1 -5.0 4.15 -4.5 4.0 -4.45 4.8 -4.5 4.85 -4.45 4.9 -4.3 5.2 -4.2 5.65 -5.25 5.4 -5.3 4.65 M-8.85 3.85 L-8.25 4.0 -7.65 4.75 -8.8 4.35 -8.85 3.85 M-11.4 4.55 L-9.95 5.2 -9.2 5.55 -9.35 5.65 -9.4 5.6 -9.45 5.6 Q-9.85 5.9 -9.85 6.25 L-9.95 6.4 -10.0 6.4 -10.1 6.55 -11.0 6.75 -11.15 6.7 Q-11.85 6.4 -12.0 6.1 L-11.85 6.1 -11.4 5.9 Q-10.75 5.5 -11.05 5.05 L-11.35 5.1 -11.85 5.2 -11.5 4.6 -11.4 4.55 M-8.8 5.75 L-8.75 5.75 -8.8 5.8 -8.8 5.75 M-7.1 3.2 L-7.05 3.15 -7.0 3.15 -6.9 3.2 -6.75 3.1 -6.75 3.05 Q-6.25 3.6 -6.55 4.5 L-6.15 4.6 -5.7 5.15 -5.7 5.1 -5.7 5.05 -5.5 5.35 -7.35 4.85 -7.5 4.1 -7.45 4.1 -6.65 3.6 -6.65 3.55 -7.1 3.2 M-6.5 7.1 L-6.25 6.7 -5.45 6.9 -5.9 7.7 Q-6.55 8.15 -6.8 7.55 L-6.85 7.5 -6.9 7.45 -6.6 7.15 -6.6 7.6 -6.55 7.6 Q-5.7 7.5 -6.15 7.0 L-6.5 7.1 M-5.25 7.35 L-5.2 6.95 -4.85 7.05 -5.25 7.35 M-7.5 6.8 L-7.55 6.7 Q-7.8 6.5 -8.05 6.4 -8.25 6.4 -8.35 6.6 -8.65 7.05 -8.55 7.45 L-8.45 7.45 -7.5 6.8 M-7.3 6.35 L-7.3 7.4 -7.75 7.65 Q-8.8 8.1 -9.25 7.05 L-8.1 6.0 -7.3 6.35 M-7.2 7.4 L-7.2 7.35 -7.15 7.3 -7.15 7.4 -7.2 7.4 M-5.1 8.05 L-5.1 8.1 Q-3.9 8.3 -4.15 7.4 L-4.0 7.2 -2.95 7.4 -3.55 8.5 -4.25 8.5 -5.1 8.35 -5.35 8.2 -5.1 8.05 M-5.8 10.95 L-5.85 11.0 -5.85 10.95 -5.8 10.95 M-2.25 7.45 L-1.7 7.55 Q-2.1 7.95 -2.0 8.4 L-2.8 8.3 -3.2 8.45 -2.8 7.95 -2.75 7.9 Q-1.85 8.2 -2.25 7.45 M-2.6 7.6 L-2.55 7.45 -2.35 7.45 -2.6 7.6 M-4.6 7.5 L-4.55 7.1 -4.2 7.2 -4.6 7.5 M-11.25 2.6 L-10.95 3.5 -10.6 3.55 -10.55 3.4 -10.5 3.5 -10.3 3.75 Q-11.25 3.45 -11.85 3.75 -12.5 3.35 -12.5 2.25 L-12.3 2.1 Q-12.7 2.95 -11.55 3.6 L-11.55 3.55 Q-11.4 2.7 -12.15 2.05 -11.65 2.2 -11.3 2.5 L-11.25 2.6 M-9.85 14.3 L-10.05 14.4 -10.1 14.35 -10.2 14.1 Q-10.0 14.15 -9.85 14.3 M-8.9 16.95 L-9.2 16.8 -9.5 16.65 Q-11.8 15.4 -9.5 14.5 L-7.45 15.65 Q-8.1 16.4 -8.9 16.95 M-2.65 28.95 L-2.6 28.85 -3.35 28.95 -5.5 29.15 -7.35 29.1 -7.3 29.1 -7.4 29.45 -7.75 30.75 -6.7 31.15 -3.3 32.35 -3.0 30.4 -2.65 28.95 M-7.8 29.55 L-7.65 29.05 -9.55 28.8 -9.6 28.8 -10.55 28.55 -10.8 28.45 -11.2 28.4 -11.85 28.15 -11.95 28.15 -12.25 29.15 -10.95 29.6 -10.35 29.8 -10.2 29.85 -8.05 30.6 -7.8 29.55 M-14.45 28.2 L-14.0 28.45 -13.7 28.65 -13.6 28.65 -12.8 28.95 -12.6 29.05 -12.3 28.0 -13.15 27.7 Q-13.45 27.55 -13.7 27.45 L-13.9 27.35 -15.1 26.75 -15.55 26.55 -15.6 26.5 -16.3 26.1 -15.85 26.9 -15.8 27.0 -15.5 27.35 -15.35 27.45 -15.35 27.5 -14.45 28.2" fill="#910003" fill-rule="evenodd" stroke="none"/>
      <path d="M21.5 15.2 Q22.55 16.05 22.75 17.5 L22.75 17.55 23.95 17.8 Q24.2 18.25 23.85 18.65 L23.65 19.15 Q25.4 20.15 25.15 21.45 L25.1 21.55 Q24.9 22.4 23.85 23.35 22.15 24.85 19.8 24.35 15.0 23.3 11.55 20.5 L11.45 20.45 11.35 20.35 Q9.7 22.0 7.75 23.1 5.5 24.35 2.75 24.95 L-6.5 26.15 Q-11.6 26.4 -14.75 23.3 L-14.95 23.1 -15.2 22.85 -15.3 22.7 -15.5 22.45 -15.8 22.05 -16.2 21.4 -16.25 20.25 Q-15.9 17.5 -13.75 16.45 L-13.6 16.4 -12.95 15.5 -12.55 15.85 -12.5 15.9 -11.75 16.55 Q-10.55 17.55 -9.05 18.25 -6.3 19.55 -3.4 20.2 L-3.05 21.0 Q-1.1 24.8 1.55 21.8 L2.5 20.8 4.15 20.75 10.0 20.5 11.25 20.3 11.35 20.3 11.4 20.25 11.5 20.25 Q14.5 19.6 17.35 18.25 19.4 17.25 21.0 15.7 L21.25 15.45 21.35 15.35 21.4 15.3 21.5 15.2 M22.2 18.35 L19.4 18.85 Q17.1 18.8 15.85 19.85 L15.8 19.9 15.9 19.95 Q20.3 20.6 23.45 18.25 L23.45 18.2 Q23.25 17.95 22.95 18.05 L22.9 18.1 22.95 17.95 22.85 18.0 22.2 18.35 M22.5 19.85 Q21.9 20.0 21.3 20.3 L20.0 20.6 12.65 20.4 Q16.5 23.55 21.6 23.5 23.1 23.5 23.85 22.25 25.25 19.85 22.5 19.85 M-15.6 19.7 Q-15.55 21.15 -14.9 22.25 -13.85 24.05 -11.2 24.8 L-9.25 25.25 1.3 24.95 Q5.75 23.85 9.35 21.35 6.65 20.65 3.65 21.45 3.1 21.6 2.9 21.95 1.15 24.15 -1.5 23.45 L-3.65 23.2 Q-11.0 23.95 -14.6 18.3 L-15.65 19.1 -15.6 19.65 -15.6 19.7 M19.45 17.6 Q19.45 18.15 20.05 18.15 23.2 18.1 21.45 16.25 L19.45 17.6 M-12.7 16.45 Q-12.9 16.45 -13.0 16.6 L-12.75 17.9 Q-9.5 22.95 -3.2 22.35 -3.0 21.75 -3.35 21.3 -3.6 21.05 -3.8 20.95 -8.45 19.1 -12.7 16.45 M-13.35 17.7 L-13.65 17.2 -13.65 17.15 -13.7 17.25 Q-14.0 19.0 -12.6 19.4 L-12.6 19.35 -13.0 18.5 -12.7 18.45 -12.7 18.4 -13.25 17.65 -13.35 17.7" fill="#6f2400" fill-rule="evenodd" stroke="none"/>
      <path d="M22.2 18.35 L21.75 18.55 21.5 18.65 19.15 19.3 19.0 19.35 19.15 19.35 19.55 19.35 19.15 19.45 20.3 19.65 Q21.3 19.5 21.6 19.1 L22.9 18.1 22.95 18.05 Q23.25 17.95 23.45 18.2 L23.45 18.25 Q20.3 20.6 15.9 19.95 L15.85 19.85 Q17.1 18.8 19.4 18.85 L22.2 18.35 M20.8 17.5 L20.85 17.55 Q21.7 17.45 21.25 16.9 20.8 17.05 20.8 17.5 M21.3 21.0 L15.5 21.5 14.95 21.4 Q15.7 21.95 16.75 22.3 L22.1 22.15 Q24.55 21.3 23.05 20.1 L22.8 20.25 22.45 20.6 22.3 20.65 22.2 20.4 21.3 21.0 M22.5 19.85 Q25.25 19.85 23.85 22.25 23.1 23.5 21.6 23.5 16.5 23.55 12.65 20.4 L20.0 20.6 21.3 20.3 Q21.9 20.0 22.5 19.85 M2.35 23.2 L2.35 23.15 2.3 23.2 2.35 23.2 M5.5 22.4 Q5.3 22.25 5.0 22.4 L3.1 23.2 Q-0.35 24.2 -4.0 24.1 L-6.4 24.05 -7.5 24.0 -7.6 24.0 Q-11.4 23.2 -13.65 20.25 -13.55 21.15 -12.95 22.0 -14.35 20.9 -15.3 19.2 -15.65 19.3 -15.55 19.65 -14.95 21.65 -13.35 22.8 -11.55 24.55 -9.25 25.15 -6.95 25.7 -4.1 25.15 L-0.1 24.75 Q4.2 23.9 8.1 21.85 L6.3 22.05 5.5 22.4 M-15.6 19.7 L-15.55 19.65 -15.6 19.65 -15.65 19.1 -14.6 18.3 Q-11.0 23.95 -3.65 23.2 L-1.5 23.45 Q1.15 24.15 2.9 21.95 3.1 21.6 3.65 21.45 6.65 20.65 9.35 21.35 5.75 23.85 1.3 24.95 L-9.25 25.25 -11.2 24.8 Q-13.85 24.05 -14.9 22.25 -15.55 21.15 -15.6 19.7 M19.45 17.6 L21.45 16.25 Q23.2 18.1 20.05 18.15 19.45 18.15 19.45 17.6 M10.2 22.6 L10.15 22.65 10.1 22.6 10.2 22.6 M15.4 21.35 L15.5 21.45 15.45 21.35 15.4 21.35 M-12.7 16.45 Q-8.45 19.1 -3.8 20.95 -3.6 21.05 -3.35 21.3 -3.0 21.75 -3.2 22.35 -9.5 22.95 -12.75 17.9 L-13.0 16.6 Q-12.9 16.45 -12.7 16.45 M-13.35 17.7 L-13.35 17.75 Q-13.5 18.45 -13.0 18.5 L-12.6 19.35 -12.6 19.4 Q-14.0 19.0 -13.7 17.25 L-13.65 17.2 -13.35 17.7 M-8.7 20.05 L-9.0 19.85 -10.95 18.2 -11.05 18.3 -12.3 16.9 Q-12.6 16.9 -12.5 17.15 -9.95 22.35 -4.25 21.75 L-4.15 21.7 -4.25 21.65 Q-6.75 21.2 -8.7 20.05 M-6.55 20.5 L-7.2 20.35 Q-7.5 20.35 -7.35 20.45 L-6.55 20.55 -6.55 20.5" fill="#c47500" fill-rule="evenodd" stroke="none"/>
      <path d="M21.6 19.1 Q21.3 19.5 20.3 19.65 L19.15 19.45 19.55 19.35 21.5 18.65 21.75 18.55 21.6 19.1 M21.3 21.0 L22.2 20.4 22.3 20.65 Q22.5 21.55 21.05 22.1 L17.35 21.95 Q19.55 21.95 21.3 21.0 M22.05 24.95 L22.0 25.0 22.0 24.95 22.05 24.95 M7.05 23.9 L7.05 23.95 7.0 23.9 7.05 23.9 M6.75 15.15 Q5.9 14.15 4.45 13.65 L4.55 13.65 Q5.95 13.95 6.75 15.1 L6.75 15.15 M3.2 18.8 L3.2 18.6 3.2 18.55 3.0 18.95 2.85 19.1 Q2.75 17.85 4.0 17.25 L4.0 17.3 4.1 17.1 4.2 17.0 4.25 16.65 4.4 17.15 5.2 17.95 6.5 17.9 Q5.9 18.6 5.35 18.3 L5.4 18.8 5.35 18.85 Q4.85 18.65 4.55 18.05 L4.45 17.9 4.65 18.65 4.5 19.05 4.0 18.3 3.85 18.05 3.6 18.8 3.4 19.0 3.2 18.85 3.2 18.8 M3.1 13.55 L3.45 13.6 3.5 13.6 Q3.6 14.25 2.85 14.15 L2.75 14.1 Q2.6 13.85 2.9 13.65 L3.1 13.55 M1.5 15.1 Q1.65 14.5 2.15 14.2 L2.25 14.15 Q2.25 14.65 1.55 15.1 L1.5 15.1 M3.1 23.2 L5.0 22.4 Q5.3 22.25 5.5 22.4 L5.6 22.45 Q-0.35 25.1 -6.85 24.7 -9.55 24.55 -11.7 23.15 L-12.95 22.0 Q-13.55 21.15 -13.65 20.25 -11.4 23.2 -7.6 24.0 L-7.5 24.0 Q-2.0 25.1 3.1 23.2 M-8.7 20.05 L-6.85 21.2 -6.85 21.25 Q-9.4 20.8 -10.95 18.5 L-11.05 18.3 -10.95 18.2 -9.0 19.85 -8.7 20.05" fill="#ffffff" fill-rule="evenodd" stroke="none"/>
      <path d="M20.8 17.5 Q20.8 17.05 21.25 16.9 21.7 17.45 20.85 17.55 L20.8 17.5 M21.75 18.55 L22.2 18.35 22.85 18.0 22.9 18.1 21.6 19.1 21.75 18.55 M19.55 19.35 L19.15 19.35 19.15 19.3 21.5 18.65 19.55 19.35 M22.3 20.65 L22.45 20.6 22.8 20.25 23.05 20.1 Q24.55 21.3 22.1 22.15 L16.75 22.3 Q15.7 21.95 14.95 21.4 L15.5 21.5 21.3 21.0 Q19.55 21.95 17.35 21.95 L21.05 22.1 Q22.5 21.55 22.3 20.65 M16.95 21.9 L17.35 21.95 16.95 21.9 M19.3 24.9 L19.3 25.0 19.25 25.0 19.3 24.9 M25.55 21.5 L25.6 21.45 25.55 21.55 25.55 21.5 M6.75 15.15 L6.75 15.1 Q5.95 13.95 4.55 13.65 L4.45 13.65 Q5.9 14.15 6.75 15.15 M3.2 18.8 L3.15 18.7 Q2.85 19.05 3.1 19.5 L2.9 19.45 Q2.3 19.2 2.5 18.65 0.25 18.2 0.9 15.6 1.05 14.85 1.6 14.3 L1.75 14.15 Q2.6 13.4 3.7 13.25 L4.0 13.45 4.25 13.25 Q5.35 13.4 6.2 14.15 L6.4 14.35 6.7 14.7 7.1 15.6 Q7.5 17.4 6.6 18.15 6.15 18.5 5.5 18.65 L5.5 18.85 Q5.5 19.25 5.1 19.45 L5.0 19.45 4.9 18.6 4.85 18.6 Q4.55 19.1 4.75 19.55 L4.35 19.5 4.15 19.35 Q4.25 18.85 4.0 18.45 3.65 18.9 3.85 19.35 L3.4 19.55 3.2 19.55 3.2 18.85 3.4 19.0 3.6 18.8 3.85 18.05 4.0 18.3 4.5 19.05 4.65 18.65 4.45 17.9 4.55 18.05 Q4.85 18.65 5.35 18.85 L5.4 18.8 5.35 18.3 Q5.9 18.6 6.5 17.9 L5.2 17.95 4.4 17.15 4.25 16.65 4.2 17.0 4.1 17.1 4.0 17.3 4.0 17.25 Q2.75 17.85 2.85 19.1 L3.0 18.95 3.2 18.55 3.2 18.6 3.2 18.8 M7.0 16.35 Q6.65 15.05 5.55 14.4 3.55 15.0 4.8 17.15 5.6 18.5 6.75 17.45 7.15 17.0 7.0 16.35 M3.1 13.55 L2.9 13.65 Q2.6 13.85 2.75 14.1 L2.85 14.15 Q3.6 14.25 3.5 13.6 L3.45 13.6 3.1 13.55 M1.5 15.1 L1.55 15.1 Q2.25 14.65 2.25 14.15 L2.15 14.2 Q1.65 14.5 1.5 15.1 M1.3 16.35 Q1.15 17.0 1.55 17.4 2.7 18.45 3.5 17.1 4.7 14.95 2.75 14.4 1.65 15.05 1.3 16.35 M5.5 22.4 L6.3 22.05 8.1 21.85 Q4.2 23.9 -0.1 24.75 L-4.1 25.15 Q-6.95 25.7 -9.25 25.15 -11.55 24.55 -13.35 22.8 -14.95 21.65 -15.55 19.65 -15.65 19.3 -15.3 19.2 -14.35 20.9 -12.95 22.0 L-11.7 23.15 Q-9.55 24.55 -6.85 24.7 -0.35 25.1 5.6 22.45 L5.5 22.4 M-7.5 24.0 L-6.4 24.05 -4.0 24.1 Q-0.35 24.2 3.1 23.2 -2.0 25.1 -7.5 24.0 M-13.35 17.75 L-13.35 17.7 -13.25 17.65 -12.7 18.4 -12.7 18.45 -13.0 18.5 Q-13.5 18.45 -13.35 17.75 M-11.05 18.3 L-10.95 18.5 Q-9.4 20.8 -6.85 21.25 L-6.85 21.2 -8.7 20.05 Q-6.75 21.2 -4.25 21.65 L-4.25 21.75 Q-9.95 22.35 -12.5 17.15 -12.6 16.9 -12.3 16.9 L-11.05 18.3 M-11.05 23.9 L-10.35 24.2 -10.4 24.1 -11.05 23.9 M-6.55 20.5 L-6.55 20.55 -7.35 20.45 Q-7.5 20.35 -7.2 20.35 L-6.55 20.5 M-9.0 20.45 L-9.05 20.45 -8.3 20.9 -8.2 20.9 -9.0 20.45" fill="#ffbe46" fill-rule="evenodd" stroke="none"/>
      <path d="M19.15 19.35 L19.0 19.35 19.15 19.3 19.15 19.35 M22.85 18.0 L22.95 17.95 22.9 18.1 22.85 18.0 M22.8 30.3 L21.4 30.85 20.4 27.5 22.1 27.45 22.8 30.15 22.8 30.3 M-4.25 21.75 L-4.25 21.65 -4.15 21.7 -4.25 21.75 M-15.05 27.7 L-14.45 28.2 -15.35 27.5 -15.35 27.45 -15.3 27.35 -15.35 27.5 -15.05 27.7 M-15.55 26.55 L-15.8 27.0 -15.85 26.9 -15.6 26.5 -15.55 26.55" fill="#ffc1c2" fill-rule="evenodd" stroke="none"/>
      <path d="M25.15 21.45 L25.2 21.45 25.55 21.45 25.6 21.45 Q26.05 21.55 26.15 22.1 27.0 22.15 26.75 22.85 L26.6 23.05 Q26.85 23.4 26.65 23.85 L26.1 24.2 26.1 24.3 25.85 24.95 24.8 25.05 24.75 25.1 24.7 25.1 24.7 25.15 Q24.45 26.1 23.5 25.9 L23.45 26.2 23.4 26.3 22.7 26.15 20.9 26.05 Q20.7 27.05 19.75 26.2 L19.6 26.05 Q18.35 26.5 18.2 25.55 L16.75 25.6 16.4 25.5 15.5 24.85 Q13.5 24.35 12.2 22.9 11.5 22.55 11.35 22.0 11.0 22.35 10.25 22.55 L10.2 22.6 10.1 22.6 10.15 22.65 Q9.95 23.45 9.15 23.45 8.8 24.65 7.65 24.35 7.45 25.15 6.6 25.05 6.4 25.9 5.5 25.55 4.9 26.7 4.15 25.65 4.35 26.5 3.15 26.65 L3.1 26.65 Q2.55 27.65 1.8 26.9 1.4 27.55 0.6 27.1 0.3 27.8 -0.5 27.45 -0.8 28.2 -1.55 27.9 L-2.8 27.85 Q-3.0 28.35 -3.95 28.15 -4.5 28.9 -5.25 28.3 -5.75 28.7 -6.4 28.3 -7.35 29.05 -8.15 28.05 -9.1 28.65 -9.6 27.8 -10.8 28.5 -11.15 27.4 L-12.6 27.45 -12.8 27.1 Q-13.6 27.55 -13.95 26.8 -15.0 27.15 -15.1 26.0 -16.05 26.05 -16.3 25.5 L-16.35 24.8 -16.35 24.7 -16.5 24.65 Q-18.35 24.1 -16.45 23.0 L-16.35 22.9 Q-17.35 21.9 -16.2 21.4 L-15.8 22.05 -15.5 22.45 -15.3 22.7 -15.2 22.85 -14.95 23.1 -14.75 23.3 Q-11.6 26.4 -6.5 26.15 L2.75 24.95 Q5.5 24.35 7.75 23.1 9.7 22.0 11.35 20.35 L11.45 20.45 11.55 20.5 Q15.0 23.3 19.8 24.35 22.15 24.85 23.85 23.35 24.9 22.4 25.1 21.55 L25.15 21.45 M25.5 21.55 L25.55 22.05 25.2 22.3 25.25 22.35 25.4 22.7 Q25.1 22.85 24.95 23.1 L25.0 23.15 25.05 23.25 25.15 23.5 25.1 23.5 Q24.55 23.65 24.6 24.0 L23.9 24.25 23.9 24.35 23.8 24.6 22.95 24.65 22.9 24.6 Q22.65 24.5 22.7 24.75 22.7 25.1 22.05 24.95 L22.0 24.95 22.0 25.0 21.9 25.3 20.8 25.05 20.8 25.1 20.7 25.35 Q19.95 24.95 19.35 24.9 L19.3 24.9 19.25 25.0 18.3 24.95 Q17.75 24.75 17.5 24.35 L17.5 24.3 17.45 24.4 17.3 24.7 17.25 24.7 16.7 24.25 16.75 24.2 16.7 24.2 16.25 24.3 Q15.75 24.0 15.6 23.5 15.35 23.65 15.25 23.95 14.6 23.7 14.6 23.1 L14.3 23.05 Q14.0 23.5 13.7 22.8 L13.05 22.8 13.0 22.75 12.95 22.3 12.45 22.3 12.15 21.55 11.75 21.9 11.7 21.85 11.45 21.05 11.45 20.95 11.35 21.0 10.6 21.4 10.0 22.0 Q10.0 22.5 9.3 22.5 L9.25 22.55 9.25 22.85 Q8.6 22.65 8.55 23.2 L7.8 23.15 7.7 23.45 Q7.6 23.95 7.05 23.9 L7.0 23.9 7.05 23.95 7.05 24.0 Q6.4 24.0 6.15 24.45 L5.5 24.5 5.45 24.55 5.35 24.85 Q4.5 24.7 3.9 25.05 L2.4 25.3 2.35 25.35 2.15 25.75 1.1 25.75 1.05 25.75 1.05 25.8 1.1 25.8 Q1.75 26.4 2.5 25.8 3.25 26.1 3.45 25.4 4.25 25.65 4.65 25.05 5.45 25.4 5.75 24.8 L7.15 24.25 7.15 24.2 7.15 24.0 Q7.85 24.35 7.95 23.5 8.7 23.75 8.8 23.1 L8.85 23.1 Q9.5 23.25 9.5 22.65 L10.1 22.6 10.1 22.55 10.3 22.1 10.35 22.1 11.4 21.25 Q11.25 21.75 11.6 22.0 L11.65 22.0 12.1 22.1 Q12.2 22.6 12.7 22.7 L12.8 22.95 13.6 23.5 Q14.6 24.15 15.55 24.15 16.25 25.0 16.7 24.3 17.05 25.35 18.6 25.15 19.2 25.8 19.75 25.35 L21.0 25.5 Q22.7 25.9 22.9 24.85 23.7 25.3 24.15 24.45 L24.85 24.35 24.85 24.3 24.95 23.95 25.3 23.8 Q25.55 23.6 25.35 23.2 L25.35 23.1 Q26.15 22.3 25.55 21.55 L25.6 21.45 25.55 21.5 25.5 21.55 M-11.3 25.8 Q-12.35 26.3 -12.8 25.3 -13.75 25.4 -13.85 24.55 -15.0 24.7 -15.0 23.65 L-15.5 23.55 -15.65 23.25 Q-15.85 22.5 -16.35 21.85 L-16.4 21.9 Q-16.65 22.6 -16.05 22.95 L-15.95 23.65 -15.65 23.9 -15.3 24.0 Q-14.8 24.95 -13.65 25.5 L-13.15 25.85 Q-12.0 27.05 -11.3 25.85 -11.45 27.05 -10.1 26.6 -8.55 27.35 -7.05 26.95 -6.0 28.05 -4.95 26.85 L-4.9 26.85 Q-3.6 27.45 -2.2 26.6 -1.35 27.55 -0.4 26.8 -0.2 26.6 -0.05 26.65 1.45 26.75 1.1 25.8 0.55 26.45 -0.05 25.9 L-0.15 25.95 Q-1.1 27.35 -2.25 26.1 -2.9 27.0 -3.75 26.35 -4.15 26.95 -4.9 26.8 L-4.95 26.75 -5.0 26.75 -5.1 26.7 -5.0 26.8 Q-6.3 27.5 -6.95 26.5 L-8.55 26.45 Q-9.5 26.8 -10.15 26.15 L-10.2 26.2 Q-10.85 26.75 -11.3 25.85 L-11.25 25.8 -11.3 25.8" fill="#4c0002" fill-rule="evenodd" stroke="none"/>
      <path d="M22.95 24.65 L22.9 24.65 22.9 24.6 22.95 24.65 M7.05 23.95 L7.1 24.0 7.05 24.0 7.05 23.95" fill="#9bc1c6" fill-rule="evenodd" stroke="none"/>
      <path d="M16.7 24.25 L16.7 24.2 16.75 24.2 16.7 24.25 M11.45 21.05 L11.35 21.0 11.45 20.95 11.45 21.05 M1.1 25.75 L1.1 25.8 1.05 25.8 1.05 25.75 1.1 25.75 M25.55 21.55 L25.5 21.55 25.55 21.5 25.55 21.55 M-11.3 25.8 L-11.25 25.8 -11.3 25.85 -11.3 25.8 M-5.0 26.8 L-5.1 26.7 -5.0 26.75 -4.95 26.75 -4.9 26.8 -4.9 26.85 -4.95 26.85 -5.0 26.8 M-4.95 26.85 L-4.95 26.8 -4.95 26.85" fill="#d8e7e9" fill-rule="evenodd" stroke="none"/>
      <path d="M25.35 23.2 L25.3 23.15 25.35 23.1 25.35 23.2" fill="#41585a" fill-rule="evenodd" stroke="none"/>
      <path d="M15.85 19.85 L15.9 19.95 15.8 19.9 15.85 19.85 M24.7 25.15 L24.7 25.1 24.75 25.1 24.7 25.15 M-13.65 17.2 L-13.7 17.25 -13.65 17.15 -13.65 17.2 M-11.05 23.9 L-10.4 24.1 -10.35 24.2 -11.05 23.9 M-9.0 20.45 L-8.2 20.9 -8.3 20.9 -9.05 20.45 -9.0 20.45" fill="#e67d80" fill-rule="evenodd" stroke="none"/>
      <path d="M20.45 7.85 Q21.1 10.7 19.4 12.75 L18.9 13.3 18.35 13.8 18.0 14.05 17.45 14.4 16.6 14.95 Q14.05 16.45 11.25 17.4 L10.45 17.65 9.35 17.95 8.6 18.1 8.2 18.2 7.1 18.35 Q6.6 18.85 5.7 19.05 L5.7 19.4 5.25 19.9 Q4.45 20.2 4.1 19.75 L3.95 19.75 3.9 19.75 3.85 19.75 3.8 19.8 3.6 19.95 3.25 20.2 2.5 20.8 1.55 21.8 Q-1.1 24.8 -3.05 21.0 L-3.4 20.2 -3.6 19.45 -3.6 18.7 Q-3.5 18.0 -3.05 17.45 -5.35 16.7 -7.45 15.65 L-9.5 14.5 -9.85 14.3 Q-10.0 14.15 -10.2 14.1 L-11.0 13.55 Q-11.1 14.05 -11.5 13.45 L-11.55 13.3 -12.0 12.15 Q-12.5 10.25 -12.0 8.8 L-12.0 8.65 -11.9 8.55 -11.85 8.45 -11.8 8.5 -11.7 8.5 -10.25 9.5 Q-8.55 10.6 -6.7 11.5 -4.3 12.65 -1.7 13.45 L-0.25 13.85 0.55 14.05 1.15 14.2 1.45 13.9 2.75 13.1 3.7 12.85 3.95 13.05 4.25 12.85 Q5.5 13.0 6.5 13.9 L6.95 14.35 7.45 14.3 7.5 14.3 7.9 14.15 8.7 13.9 11.4 12.95 14.6 11.55 14.65 11.5 18.2 9.1 18.7 8.65 19.6 7.7 19.75 7.5 19.9 7.65 20.05 7.1 Q20.05 6.95 20.2 6.95 L20.45 7.85 M8.85 14.55 L7.2 14.7 7.5 15.5 Q7.9 17.1 7.35 18.0 12.25 16.95 16.45 14.3 L17.65 13.55 17.9 13.35 Q21.0 11.15 19.9 8.05 L17.55 10.3 Q14.9 12.45 11.5 13.8 L11.2 13.9 8.85 14.55 M5.45 14.65 L5.4 14.65 Q5.0 14.75 5.0 15.1 L5.4 14.95 Q6.1 15.3 6.5 15.95 L5.45 14.65 M4.9 18.6 L5.0 19.45 5.1 19.45 Q5.5 19.25 5.5 18.85 L5.5 18.65 Q6.15 18.5 6.6 18.15 7.5 17.4 7.1 15.6 L6.7 14.7 6.4 14.35 6.2 14.15 Q5.35 13.4 4.25 13.25 L4.0 13.45 3.7 13.25 Q2.6 13.4 1.75 14.15 L1.6 14.3 Q1.05 14.85 0.9 15.6 0.25 18.2 2.5 18.65 2.3 19.2 2.9 19.45 L3.1 19.5 Q2.85 19.05 3.15 18.7 L3.2 18.8 3.2 18.85 3.2 19.55 3.4 19.55 3.85 19.35 Q3.65 18.9 4.0 18.45 4.25 18.85 4.15 19.35 L4.35 19.5 4.75 19.55 Q4.55 19.1 4.85 18.6 L4.9 18.6 M6.05 17.55 Q7.05 17.25 6.65 16.3 6.9 17.15 6.0 17.55 L6.05 17.55 M7.0 16.35 Q7.15 17.0 6.75 17.45 5.6 18.5 4.8 17.15 3.55 15.0 5.55 14.4 6.65 15.05 7.0 16.35 M9.7 15.9 Q9.25 16.6 8.55 16.2 L8.5 16.15 9.0 15.7 9.2 15.65 9.7 15.85 9.7 15.9 M3.35 15.3 L3.35 15.25 3.1 14.7 2.6 15.05 3.35 15.3 M-7.55 11.4 L-10.3 10.0 -10.3 9.95 -10.6 9.85 -11.4 9.35 -11.55 9.3 Q-11.95 9.55 -11.7 9.85 -12.5 12.3 -9.85 13.7 L-9.7 13.8 -7.9 14.8 -6.3 15.65 Q-4.5 16.7 -2.5 16.8 L-1.8 16.65 Q-0.85 15.95 -0.65 15.25 L-0.35 15.3 -0.15 15.25 -0.45 15.05 0.4 14.75 0.35 14.7 -0.15 14.45 0.0 14.4 -0.05 14.35 -3.0 13.45 -3.75 13.1 -4.6 12.75 -4.85 12.65 -6.0 12.15 -7.45 11.35 -7.55 11.35 -7.55 11.4 M1.3 16.35 Q1.65 15.05 2.75 14.4 4.7 14.95 3.5 17.1 2.7 18.45 1.55 17.4 1.15 17.0 1.3 16.35 M3.5 16.05 L3.45 16.05 Q3.35 17.35 2.2 17.55 3.5 17.45 3.5 16.05 M2.95 20.0 L2.7 19.9 Q2.05 19.65 2.25 19.05 -0.15 18.5 0.35 15.85 L-1.75 17.45 Q-4.05 19.65 -1.55 22.1 -0.95 22.65 -0.2 22.3 L2.95 20.0 M1.0 18.95 Q1.0 19.8 0.2 19.6 0.15 19.0 0.75 18.85 L0.95 18.9 1.0 18.95 M12.45 15.1 Q11.85 15.7 11.4 15.1 11.6 14.7 12.15 14.8 L12.45 15.1" fill="#371200" fill-rule="evenodd" stroke="none"/>
      <path d="M8.85 14.55 L7.9 14.7 11.1 14.55 Q13.85 13.45 16.3 11.75 17.3 11.0 17.25 10.65 14.55 12.7 11.5 13.8 14.9 12.45 17.55 10.3 L19.9 8.05 Q21.0 11.15 17.9 13.35 L17.65 13.55 16.45 14.3 Q12.25 16.95 7.35 18.0 7.9 17.1 7.5 15.5 L7.2 14.7 8.85 14.55 M9.7 15.9 L9.7 15.85 9.2 15.65 9.0 15.7 8.5 16.15 8.55 16.2 Q9.25 16.6 9.7 15.9 M2.95 20.0 L-0.2 22.3 Q-0.95 22.65 -1.55 22.1 -4.05 19.65 -1.75 17.45 L0.35 15.85 Q-0.15 18.5 2.25 19.05 2.05 19.65 2.7 19.9 L2.95 20.0 M1.0 18.95 L0.95 18.9 0.75 18.85 Q0.15 19.0 0.2 19.6 1.0 19.8 1.0 18.95 M12.45 15.1 L12.15 14.8 Q11.6 14.7 11.4 15.1 11.85 15.7 12.45 15.1 M-0.1 16.2 L-1.65 17.7 Q-3.85 20.35 -0.85 22.3 L-2.05 20.45 Q-2.35 19.85 -2.05 19.35 L-0.1 16.2" fill="url(#gradient0)" fill-rule="evenodd" stroke="none"/>
      <path d="M11.5 13.8 Q14.55 12.7 17.25 10.65 17.3 11.0 16.3 11.75 13.85 13.45 11.1 14.55 L7.9 14.7 8.85 14.55 11.2 13.9 11.5 13.8 M-7.55 11.35 L-7.45 11.35 -6.0 12.15 -4.85 12.65 -4.6 12.75 -3.0 13.45 -0.05 14.35 0.0 14.4 -0.15 14.45 -1.85 14.25 Q-2.2 14.05 -2.65 14.0 -5.35 13.3 -7.35 11.5 L-7.55 11.35 M-0.1 16.2 L-2.05 19.35 Q-2.35 19.85 -2.05 20.45 L-0.85 22.3 Q-3.85 20.35 -1.65 17.7 L-0.1 16.2" fill="#b5631a" fill-rule="evenodd" stroke="none"/>
      <path d="M5.45 14.65 L6.5 15.95 Q6.1 15.3 5.4 14.95 L5.0 15.1 Q5.0 14.75 5.4 14.65 L5.45 14.65 M6.05 17.55 L6.0 17.55 Q6.9 17.15 6.65 16.3 7.05 17.25 6.05 17.55 M3.35 15.3 L2.6 15.05 3.1 14.7 3.35 15.25 3.35 15.3 M3.5 16.05 Q3.5 17.45 2.2 17.55 3.35 17.35 3.45 16.05 L3.5 16.05" fill="#ffad33" fill-rule="evenodd" stroke="none"/>
      <path d="M-0.15 14.45 L0.35 14.7 0.4 14.75 -0.45 15.05 -0.15 15.25 -0.35 15.3 -0.65 15.25 Q-0.85 15.95 -1.8 16.65 L-2.5 16.8 Q-4.5 16.7 -6.3 15.65 L-7.9 14.8 -9.7 13.8 -9.85 13.7 Q-12.5 12.3 -11.7 9.85 -11.95 9.55 -11.55 9.3 L-11.4 9.35 -10.6 9.85 -10.3 9.95 -10.3 10.0 -7.55 11.4 -7.35 11.5 Q-5.35 13.3 -2.65 14.0 -2.2 14.05 -1.85 14.25 L-0.15 14.45" fill="url(#gradient1)" fill-rule="evenodd" stroke="none"/>
      <path d="M3.9 19.75 L3.8 19.8 3.85 19.75 3.9 19.75 M-7.55 11.4 L-7.55 11.35 -7.35 11.5 -7.55 11.4 M-15.1 26.75 L-14.85 26.9 -15.05 27.7 -15.35 27.5 -15.3 27.35 -15.25 27.1 -15.15 26.85 -15.1 26.75" fill="#481f13" fill-rule="evenodd" stroke="none"/>
      <path d="M2.35 23.2 L2.3 23.2 2.35 23.15 2.35 23.2 M15.4 21.35 L15.45 21.35 15.5 21.45 15.4 21.35" fill="#bf3e41" fill-rule="evenodd" stroke="none"/>
      <path d="M7.95 26.15 L7.95 25.25 8.2 25.05 8.35 25.0 8.4 24.9 9.2 24.3 9.5 24.05 9.75 23.8 10.9 22.7 10.95 22.9 11.0 23.3 11.25 24.45 11.3 24.7 11.4 25.55 10.75 25.45 8.95 25.7 Q8.45 25.95 7.95 26.15 M11.2 22.75 L11.25 22.75 12.0 24.3 12.2 24.8 12.5 25.55 11.7 25.55 11.55 24.7 11.25 23.2 11.2 22.75 M16.7 31.95 L16.3 31.75 16.2 31.65 16.15 31.55 Q14.0 28.75 13.15 25.55 L13.1 25.15 13.0 24.95 12.9 24.25 12.85 24.15 12.95 24.0 13.95 24.7 14.1 24.8 15.4 25.55 16.1 26.85 15.25 26.8 15.1 26.75 16.4 30.7 16.7 31.95 M16.35 26.9 L15.65 25.7 Q16.85 26.25 18.2 26.65 L19.95 27.0 20.1 27.5 18.9 27.3 16.35 26.9 M4.25 33.15 Q3.8 33.0 3.75 32.55 L3.55 31.25 Q3.3 29.55 3.5 27.95 L3.65 27.1 3.75 26.95 3.9 26.95 4.1 26.95 4.45 26.9 4.55 26.9 4.65 26.9 5.35 26.75 Q6.25 26.45 7.2 25.8 L7.6 25.55 7.55 26.35 4.55 27.65 4.45 28.6 Q4.15 30.3 4.3 32.1 L4.25 33.15 M-2.05 28.95 L-2.0 28.75 -0.5 28.35 1.35 27.6 1.45 27.95 0.35 32.5 0.3 32.5 Q0.0 32.9 -0.6 32.95 L-0.3 31.7 0.6 29.2 -2.05 28.95 M26.45 27.8 L25.7 28.85 Q25.75 27.15 25.2 25.55 L25.2 25.5 26.2 25.3 26.4 25.9 Q26.6 26.7 26.45 27.8 M24.95 25.65 L25.0 25.65 25.4 29.05 24.25 29.6 Q24.0 28.0 23.35 26.5 L24.45 25.95 24.95 25.65 M20.25 27.0 L21.9 26.9 22.7 26.7 23.15 26.6 23.15 26.65 23.3 27.2 23.9 29.8 22.85 30.3 22.8 30.15 22.1 27.45 20.4 27.5 20.25 27.2 20.25 27.1 20.25 27.0 M-7.8 29.55 L-9.6 29.8 -10.2 29.85 -10.35 29.8 -10.95 29.6 -12.25 29.15 -11.95 28.15 -11.85 28.15 -11.2 28.4 -10.8 28.45 -10.55 28.55 -9.6 28.8 -9.55 28.8 -7.65 29.05 -7.8 29.55 M-15.05 27.7 L-14.85 26.9 -15.1 26.75 -13.9 27.35 -13.7 27.45 Q-13.45 27.55 -13.15 27.7 L-12.3 28.0 -12.6 29.05 -12.8 28.95 -13.6 28.65 -13.7 28.65 -14.0 28.45 -14.45 28.2 -15.05 27.7 M-15.55 26.55 L-15.1 26.75 -15.15 26.85 -15.25 27.1 -15.3 27.35 -15.35 27.45 -15.5 27.35 -15.8 27.0 -15.55 26.55" fill="#ff8285" fill-rule="evenodd" stroke="none"/>
      <path d="M11.2 22.75 L11.15 22.6 11.25 22.75 11.2 22.75 M24.95 25.65 L25.05 25.55 25.0 25.65 24.95 25.65 M22.85 30.3 L22.8 30.3 22.8 30.15 22.85 30.3 M20.25 27.1 L20.2 27.0 20.25 27.0 20.25 27.1 M-3.35 28.95 L-2.6 28.85 -2.65 28.95 -3.35 28.95 M-7.4 29.45 L-7.3 29.1 -7.35 29.1 -5.5 29.15 -6.65 29.35 -7.4 29.45 M-15.6 26.5 L-15.85 26.9 -16.3 26.1 -15.6 26.5" fill="#e89193" fill-rule="evenodd" stroke="none"/>
      <path d="M7.95 26.15 Q8.45 25.95 8.95 25.7 L10.75 25.45 11.4 25.55 Q11.85 28.75 11.75 32.1 L11.8 33.5 7.45 33.5 7.95 26.15 M12.5 25.55 L13.3 28.25 Q13.85 30.75 13.9 33.15 L13.75 33.35 12.2 33.45 12.15 32.25 Q12.15 28.85 11.7 25.55 L12.5 25.55 M16.7 31.95 L16.4 30.7 15.1 26.75 15.25 26.8 16.1 26.85 Q17.4 29.4 18.35 32.15 L17.15 31.95 16.7 31.95 M20.1 27.5 L21.05 31.0 20.4 31.2 18.95 32.05 18.6 32.15 Q17.75 29.35 16.35 26.9 L18.9 27.3 20.1 27.5 M7.55 26.35 L7.25 33.45 4.35 33.15 4.25 33.15 4.3 32.1 Q4.15 30.3 4.45 28.6 L4.55 27.65 7.55 26.35 M-2.05 28.95 L0.6 29.2 -0.3 31.7 -0.6 32.95 -1.0 32.9 -2.5 32.55 -2.8 32.45 -2.65 31.7 -2.05 28.95 M-3.35 28.95 L-2.65 28.95 -3.0 30.4 -3.3 32.35 -6.7 31.15 -7.75 30.75 -7.4 29.45 -6.65 29.35 -5.5 29.15 -3.35 28.95 M-10.2 29.85 L-9.6 29.8 -7.8 29.55 -8.05 30.6 -10.2 29.85" fill="#ffbbbd" fill-rule="evenodd" stroke="none"/>
      <path d="M-15.55 19.65 L-15.6 19.7 -15.6 19.65 -15.55 19.65" fill="#abc0c2" fill-rule="evenodd" stroke="none"/>
      <path d="M-4.6 12.75 L-3.75 13.1 -3.0 13.45 -4.6 12.75" fill="url(#gradient2)" fill-rule="evenodd" stroke="none"/>
      <path d="M-6.8 -4.3 L-6.45 -4.15 -6.2 -3.7 -6.4 -3.25 Q-6.6 -3.0 -6.8 -3.05 L-7.25 -3.25 -7.45 -3.7 -7.25 -4.1 -7.15 -4.2 -6.8 -4.3 M-6.85 -3.5 L-6.8 -3.5 -6.7 -3.55 -6.65 -3.7 -6.7 -3.8 -6.8 -3.85 -7.0 -3.7 -6.85 -3.5 M-5.9 -2.6 L-5.65 -2.05 Q-5.65 -1.75 -5.85 -1.55 L-5.9 -1.5 -6.05 -1.35 -6.4 -1.25 -6.75 -1.35 -6.85 -1.4 -6.95 -1.5 -7.15 -2.05 -7.0 -2.55 -6.95 -2.6 -6.4 -2.85 -5.9 -2.6 M-5.15 -0.7 L-5.2 -0.65 -5.15 -0.65 -5.15 -0.7 M-3.4 -0.3 L-3.05 -0.2 -2.95 -0.1 Q-2.8 0.0 -2.8 0.3 L-2.9 0.65 -3.05 0.8 -3.1 0.85 -3.3 0.95 -3.55 0.9 -3.8 0.75 -4.0 0.2 -3.75 -0.15 -3.4 -0.3 M-5.7 -1.2 L-5.65 -1.25 -5.15 -1.45 -4.7 -1.25 Q-4.4 -1.05 -4.4 -0.65 -4.35 -0.4 -4.65 -0.15 -4.9 0.15 -5.15 0.1 L-5.7 -0.15 -5.95 -0.65 -5.7 -1.2" fill="#000000" fill-rule="evenodd" stroke="none"/>
      <path d="M-6.85 -3.5 L-7.0 -3.7 -6.8 -3.85 -6.7 -3.8 -6.65 -3.7 -6.7 -3.55 -6.8 -3.5 -6.85 -3.5 M-5.15 -0.7 L-5.15 -0.65 -5.2 -0.65 -5.15 -0.7" fill="#2b1038" fill-rule="evenodd" stroke="none"/>
      <path d="M14.3 -2.6 L14.4 -2.45 14.55 -2.1 14.55 -1.9 14.5 -1.8 14.4 -1.55 14.3 -1.4 13.9 -1.2 13.65 -1.2 13.25 -1.5 13.05 -1.75 13.0 -2.0 Q13.0 -2.35 13.25 -2.55 L13.75 -2.8 14.3 -2.6 M11.75 -0.65 L11.95 -1.1 12.2 -1.35 12.55 -1.45 12.9 -1.35 13.05 -1.25 13.1 -1.2 13.15 -1.15 13.3 -0.65 13.15 -0.15 13.05 -0.05 12.75 0.1 12.45 0.15 12.05 -0.1 Q11.7 -0.45 11.75 -0.65 M13.8 -4.1 L14.15 -4.25 14.55 -4.2 14.7 -4.0 14.8 -3.65 14.7 -3.3 14.55 -3.15 14.2 -3.05 Q13.9 -3.05 13.8 -3.2 13.5 -3.5 13.55 -3.65 L13.8 -4.1" fill="#000000" fill-rule="evenodd" stroke="none"/>
      <path d="M10.55 -0.25 L10.8 -0.3 11.05 -0.15 Q11.5 0.3 11.35 0.5 11.35 0.9 10.85 0.8 L10.55 0.75 10.55 0.7 Q10.1 0.5 10.25 0.15 L10.55 -0.25" fill="#000000" fill-rule="evenodd" stroke="none"/>
    </g>
    <linearGradient gradientTransform="matrix(0.0141, 0.0, 0.0, 0.0088, 8.65, 15.25)" gradientUnits="userSpaceOnUse" id="gradient0" spreadMethod="pad" x1="-819.2" x2="819.2">
      <stop offset="0.0" stop-color="#59310d"/>
      <stop offset="0.5490196078431373" stop-color="#b35500"/>
      <stop offset="0.9764705882352941" stop-color="#61350e"/>
    </linearGradient>
    <linearGradient gradientTransform="matrix(0.0075, 0.0, 0.0, 0.0046, -5.75, 13.05)" gradientUnits="userSpaceOnUse" id="gradient1" spreadMethod="pad" x1="-819.2" x2="819.2">
      <stop offset="0.0" stop-color="#59310d"/>
      <stop offset="0.5490196078431373" stop-color="#b35500"/>
      <stop offset="0.9764705882352941" stop-color="#61350e"/>
    </linearGradient>
    <linearGradient gradientTransform="matrix(0.0075, 0.0, 0.0, 0.0046, -5.75, 13.05)" gradientUnits="userSpaceOnUse" id="gradient2" spreadMethod="pad" x1="-819.2" x2="819.2">
      <stop offset="0.0" stop-color="#713f10"/>
      <stop offset="0.5490196078431373" stop-color="#b8651b"/>
      <stop offset="0.9764705882352941" stop-color="#713f10"/>
    </linearGradient>
  </defs>
</svg>
