<svg xmlns:xlink="http://www.w3.org/1999/xlink" height="82" width="84.85" xmlns="http://www.w3.org/2000/svg"><g transform="translate(37.4 42.25)"><use height="38" transform="translate(-11.95 -17.45)" width="32.05" xlink:href="#a"/><use height="38.95" transform="translate(-12.45 -17.95)" width="33.05" xlink:href="#b"/><use height="31.1" transform="translate(-18.85 -4.3)" width="46.65" xlink:href="#c"/></g><defs><path d="M27.35 7.4q2.15 4.15 3.55 8.75 1.45 4.7 1.15 9.5-.35 4.95-4.2 8.1-3.8 3.2-8.75 4.05l-2.6.2q-3.6 0-7.05-1.15-4.65-1.6-7.1-5.5Q-.2 27.4.05 23q.2-4.4 2-9.3Q3.85 8.75 7 5.05 10.1 1.3 14.7.1l1.8-.1q1.9.05 3.7.8 4.75 2.05 7.15 6.6" fill="#fff" fill-rule="evenodd" transform="translate(-.05)" id="d"/><path d="M27.35 7.4Q24.95 2.85 20.2.8 17.55-.3 14.7.1 10.1 1.3 7 5.05q-3.15 3.7-4.95 8.65-1.8 4.9-2 9.3-.25 4.4 2.3 8.35 2.45 3.9 7.1 5.5 4.65 1.55 9.65.95 4.95-.85 8.75-4.05 3.85-3.15 4.2-8.1.3-4.8-1.15-9.5-1.4-4.6-3.55-8.75Z" fill="none" stroke="#000" stroke-linecap="round" stroke-linejoin="round" transform="translate(.45 .5)" id="e"/><use height="38" width="32.05" xlink:href="#d" id="a"/><use height="38.95" width="33.05" xlink:href="#e" id="b"/><g id="c" fill-rule="evenodd"><path d="M18.6-4.3h-.1.1l.5.25.3.65-.05.35q1.5.3 2.8 1.35.35.3.8.35 2.15.2 1.7 2.3L24.2 2.3q3.1 3.35 3.6 8 .1.65-.35 1.1l-1.4 1.25Q28 13.3 27.2 15q-.7 1.45-1.75 2.35l.4.5.05.1q-.65 3.2-3.55 4.15L21 23l-1.15.1-.15.85-.2.6-.05.05-1 .45-3.45.9-2.7.25q-1.45.2-2.45-.35l-.05.1q-.1-1.9-.6-3.65l-.25-.8-.1-.3-.2-.55L8 19.1l-.75-2.05-.25-.3-.25-.5-.1-.1.4-.25.55.2.6-.25.25-.45-.25.45-.6.25-.55-.2-.4.25.1.1-.95.15q.8 1.15.45 2.75l-.35.3-.1.05.05 1.2v.65L5.7 22.6l-.1.5q0 .2-.2 0l-.6-.75q-.15-.4-.15-.95v-.95l-.2-2.85q-.2-.55-.6-.85l.1.55.2 1.5v1.7l-.05.55v.25l-.05.5-.15 1.65q0 .2-.2.05-.6-.35-.75-1.05L2.9 22v-1.9l-.4-.4-.2-.7q-.05-1.45.4-2.6l-1.4-.3.05-.1-.45-.25-.1.1-.6.25-.45-.15-.15-.1-.2-.3.4.15.1-.2q.55.1.05-.5.15-.3.55-.4v-.05l-.35-.15H.2l.5.15.1.1.2.35-.5-.15q-.45.2-.1.45.75.55 1.4.55l.15.05.25-.1v-.05l.3-.2-.2-.1 1.15.05q.2-.4.85-.35l.45.25 1.5-.25.55-.2.2-.3q.2-.2.55-.25l-.3.1-.15.3.5.15-.5-.15.15-.3.3-.1q-.35.05-.55.25l-.2.3-.55.2-.35-1.3.35 1.3-2.55-.4-1.1.4-.55.2-.4-.2.25-.85-.75-.35H1.1l-.3.2-.3.05-.6-.25-.25-.6.25-.6h.05q.2-.25.55-.25l.2.05H.6l-.4.2v-.1q-.6.35-.35 1.1l.1.05.1-.2.1.05Q0 13.5.2 13.4l.45-.25.4-.45.05.05.2.3.55.15L1 13q-.6.55.5.85l2.15.55q1.3.3 2-.3l-2.1-.5.35.05 1.95-.9v.05-.25h-.2L4.3 12.5l-2.35.6-.1-1 .45-.1-.5-.25-.05-.15h-.1l-.85-.25.05-.05.05-.05.1-.05.5-.3.15-.05-.15.05-.5.3-.1.05-.05.05-.05.05-3.3.2-.3-.2-.8-.6q-.85-.85-1.85-1.35.2 1.15-.15 2.45-.45 1.6-2.4 1.9l-2 .2h-.15l-.05-.05-.05-.05-.1.05h-.45l-2.35-.3q-1.2-.25-2.1-1l-.2-.15-.25-.25-.5-.55q-3.05-3.5 0-7.65l.7-.85q-.8-.7-1.05-2.15-.5-2.1 1.7-2.3.4-.05.75-.35 1.3-1.05 2.9-1.4l.05.05-.05-.4.25-.65.65-.25.65.25q.25.25.25.65l-.05.35.15.55-.1.45.3.15.25.65V-1q.25 0 .45.2.25.25.25.65v.05l.55.25q.2.2.25.5h.05l.65.25.25.45h.15q.35 0 .65.25l.25.55.3-.05.65.25q.2.2.25.5l.5-.1q.4-.05.7.3l.3.55.45-.1q.4-.05.7.3l.25.4.45-.1q.4-.05.7.3l.25.35.6-.2q.45 0 .8.35l.25.35.4-.1q.45 0 .8.35l.25.35q.35-.35.8-.35h.05q.45 0 .8.35h.05l.25-.35q.3-.35.75-.35l.45.1.25-.35q.3-.35.75-.35l.65.2.2-.35q.3-.35.75-.3l.4.1.25-.4q.3-.35.75-.3l.45.1q0-.35.25-.55.3-.35.75-.3l.5.1q0-.3.25-.5.25-.25.65-.25l.25.05.3-.55q.25-.25.65-.25h.15q.05-.25.25-.45.25-.25.65-.25h.05q0-.3.25-.5l.5-.25v-.05q0-.4.3-.65.15-.2.45-.2L17-1.25q0-.4.3-.65l.25-.15-.1-.45.2-.55-.1-.35q0-.4.3-.65l.45-.15-.1.1h-.05l-.05.15v.05q-.05.4.3.35h.25q-.1.15.05.15.95.25.35-.35l-.45-.55m-.9 2.6-.2.2q-.15.35.2.4 1.6.1.45-.8l-.2.05-.25.15m-.5.9-.1-.1-.35.3q-.1.2.05.25h.05l.2.15.4.05h-.05V.1q.8.3.4-.35l-.5-.55h-.1m2.15-2.25L19.3-3l-.1.15.1.35-.1.4-.1.15.1-.15.1-.4-.1-.35.1-.15.05-.05M11 5.35l2.05-1q4.05-1.95 6-5.65l.05-.65-.1.1-.25.2.1.4-.3.65-.45.25.05.2-.3.65-.5.25V.8l-.3.65-.6.25h-.1l-.25.5-.6.25h-.2l-.25.45-.6.25-.3-.05-.3.55-.6.25-.4-.05-.3.65-.7.3-.45-.1-.3.55-.1.1-.3.15.3-.15M-11-2.1l-.1.6q1.9 3.9 6.15 5.9L.6 7l1.75.55q1.1.2 1.55.95l.1.15.05.05v-.1l.1-.15Q4.6 7.7 5.7 7.5l1.8-.55 3.2-1.45-.3.05-.45-.1-.25.4q-.3.3-.7.3L8.5 6l-.3.45-.8.35-.4-.1-.25.35q-.35.35-.8.35-.45 0-.75-.35h-.05l-.25.35-.8.35h-.05q-.45 0-.8-.35L3 7.05q-.35.35-.8.35-.45 0-.8-.35l-.25-.35-.4.1q-.45 0-.8-.35L-.3 6l-.5.15q-.45 0-.75-.3l-.25-.4-.4.1-.75-.3-.25-.55-.45.1q-.45 0-.75-.3l-.3-.65-.35.05-.65-.25-.25-.55-.3.05-.65-.25-.25-.45h-.15l-.65-.25-.25-.5h-.05l-.65-.25-.25-.65V.75L-9.7.5l-.25-.65v-.2l-.45-.25-.25-.65.1-.4-.3-.2-.15-.25-.1-.4.05-.35-.1-.15.1.15-.05.35.1.4m29.4-.95-.15-.15-.4.3v.2q-.1.55.5.35 1.15-.4.05-.7M18.2-1q-.35.1-.35.5h.05q.85.1.3-.5M6.3 10.65v.05l.05-.05.45.3.15.1H7v.05l.05.05.8.4.55.15 2.15-.2.3-.2.85-.6q1.05-1.1 2.5-1.7l.1-.15.05.1h.05v.2l.15.4.1.6.45 1.15h-.05l.05.05.15.25-.05-.05 1.1 1.3.45.35.1-.1.15.15.35.2q1.55.3 2.85.95v-.05h1.25l.85-.15 2.7-.9.05-.05 1-.6-1 .6-.05.05-2.7.9-.85.15H20.2v.05q-1.3-.65-2.85-.95l-.35-.2-.15-.15-.1.1-.45-.35-1.1-1.3.05.05-.15-.25-.05-.05h.05l-.45-1.15-.1-.6-.15-.4v-.2h-.05l-.05-.1-.1.15q-1.45.6-2.5 1.7l-.85.6-.3.2-2.15.2-.55-.15-.8-.4L7 11.1v-.05h-.05l-.15-.1-.45-.3-.05.05v-.05h-.05L5 9.6l-.6-.75h-.35l-.3.05H3.7l-.65.75-1.15 1-.25.2 2.75.5 1.9-.7m.75.5h.05l-1 .5-.1.05-.05.15-.1.7.1-.7.05-.15.1-.05 1-.5h-.05M16.45 1l.05.1q.95.25.4-.25.6-.35-.5-.85-.75.2-.35.85l.35.15h.05m-.6.2-.4-.45q-.35.05-.45.4v.2l.05.3.2.25.05.1q.7.25.45-.2.55-.2.1-.6m-2.2 1.6-.45-.55-.2.1q-.4.1-.35.55.05.3.25.3h.15v.05q.65.55.3-.05.5-.1.3-.4m1.1-.95-.15-.15-.15-.1-.15-.05q-.35.1-.35.45v.05l.05.45q.1.3.3.25 1.1-.3.45-.9m-2.95 1.1-.05-.05q-.7.2-.4.9l.35.2.05.05q.75.15.5-.2.4-.2.15-.5l-.45-.5-.15.1M10.9 4l-.65-.3q-.25.05-.25.25-.2.2-.15.55.05.45.4.4v.05q.8.35.5-.2.7-.3.15-.75M8.45 15.4l.3.4q.2.3.3.1l.1-.25h.05q-.2.5 1.35.2Q12.2 15.5 13 14.5l.1-.05.7-.25.1-.05q1.15-1.55-.6-3.4l-.2.35V11q-1.6 1-3.6 1-.4 0-.55.25l-.2.5-.1-.15q-.75.65-.7 1.4-.05.25.05.5l.2.15.25.6v.15l-.05.1h-.05l-.15-.15.15.15h.05l.05-.1m-.85-.45.05.25.15.2.4-.05q.3-.2-.3-.8-.3.15-.3.4m-1.2-9.3-.3-.45-.35.2Q5 5.75 5.4 6.55l.15.2h.05l.05.05q.7.35.4-.05 1.05-.65.35-1.1m1.4.3q1.1-.8-.2-1.15l-.2-.15-.3.3q-.35.3 0 .95l.2.15q-.1.15.1.2.95.25.4-.3m-7.1-.1L.5 6q-.1.25.05.25 1 .2.15-.4M.25 5.3q-.2.45.3.45 1.55-.1.35-.95l-.15-.15q-.45.1-.5.6v.05m1.6.2q-.25.15-.25.55 0 .65.65.45l-.05.05q-.25.2 0 .3.85.35.2-.4 1.15-.45-.2-1.1l-.05.05-.05-.05-.25.15m2.9.7-.65-.5-.25.2q-.2.05-.25.2l-.1.3q-.15 0-.2.15-.1.25.1.3l.2.05v.05q.2.45.65.2.85-.55.5-.95m-.6 5.65 1.45.1.1-.05q-1.7-.8-3.75-.85l-.1.1.75.3q.35.5 1.5.55l.1-.1-.05-.05m-1.6.35-.2.05-.1.15q.75.55.3-.2m3.55-.85q.5-.1 0-.6-.6.15-.65.6h.65m1.6 2.1.05-.3-.25-.6-.6-.25h-.1l-.3.15h-.05l.6.25-.25.5q-.05.25.15.25l.45-.05-.05.3h.05l.3-.25-.2.3-.6.25-.6-.25-.1-.15-.3.15.3-.15.1.15.6.25.6-.25.2-.3m-1.8.4v-.1l-.1.05-.05.05h.15m2.1.65-.4-.1h-.05.05l.4.1m-1.8-1.85.05-.05.05-.05q.2-.2.5-.25-.3.05-.5.25l-.05.05-.05.05-.35.2v-.05q-.6.25-1.1.7l.55.15q1.45-.3.9-1m-.8 2.7q-.2 0-.1.1 1.1.8 2.05-.2v-.05l-.2-.15-1.75.3m.5 1.5-.1-.45q-.2-.5-.95-.85l-.65-.35-.3.1q-.2.1-.05.2.8.8 1.1 1.95.15.8.6 1.4.15.2.2 0 .4-1.15.15-2m-3.65-2.3-.1.05-.1.2.05.05.3.05v-.05q.15-.25-.15-.3m.5 2.9-.1.6-.05.3.1.5q1 1.25.85-.35-.05-.35.05-.65.25-1.1-.25-1.8-.45.6-.6 1.4m1.05 3.9-.05-.3V21l-.15-.45-.15-.25-.1.3-.1.4-.05.7v.3l.05.35v.05l.1.05.25-.3.2-.55v-.25m1.2-.2.3.75.05.05v-.05l.05-.1.2-.6v-.55q-.05-.65-.45-1.25H5.1q-.2.6-.15 1.15l.05.55v.05M-10.1-4.1l-.15-.15-.5.25q-.25.3.05.35.8.15.85 0 .15 0-.15-.5l-.1.05m-.15 1.75q1.3-.05.2-.85-.5 0-.6.45v.2l.05.15q.6.45.35.05m.45.65-.2.15q-.15.2.05.25 1.2.25.75-.25L-9.55-2l-.25.2v.1m.65 1.55-.1.05-.1.15q.65.55.2-.2M-10-1.2l-.1.2q.7.55.15-.2H-10m.9.5-.2.25q-.15.2.05.25 1.45.3.45-.6h-.1l-.2.1m3.95 3.85q1.45-.1.25-.9l-.15.05-.15-.1q-.3.05-.25.35l.05.15-.05.2.15.25-.05.15q.85.55.2-.15m1.5.8q1-.2.35-.65l-.35-.4-.3.3-.1.2-.05.1-.1.2.25.25h.15l-.05.05-.05.25q.9.3.25-.3m1.05.15-.05.25.25.25h.15q1.25-.05.15-.9l-.1.05-.1-.1-.3.3v.15m.35.5q-.2 0-.3.25l.1.2q.95.25.2-.45m2 .1q0-.15-.65-.4l-.25.3-.1.45.25.35-.05.05.1.2q.95.2.3-.35.75-.25.4-.6M-7.1.95-7.3.7l-.3.3v.1l-.15.45.1.25-.05.1q.8.45.4-.05 1.2-.25.2-.9M-8 .2l-.1-.2-.25.1-.05.1-.2.25q-.1.3.2.3 1.25.1.4-.55m-.5.65-.1.05-.05.2q.75.55.15-.25" fill="#371200" transform="translate(18.85 4.3)"/><path d="M18.5-4.3h.1l.45.55-.1-.1-.15.05-.35-.45-.25.15.1-.1.2-.1m-.4.35.05.05.6.15-.1.15v.05h-.25q-.35.05-.3-.35v-.05m-.4 2.25-.1.15q-.1.2.05.2.85.3.3-.5l.2-.05q1.15.9-.45.8-.35-.05-.2-.4l.2-.2m-.5.9h.1l.5.55-.1-.1q-.2 0-.25.2l-.4-.05-.2-.15q.95.2.35-.45m1.2-2.25q1.1.3-.05.7-.6.2-.5-.35l.1.05q1.1.25.45-.4M16.9.85l-.1-.1h-.05l-.3.25h-.05l-.35-.15q-.4-.65.35-.85 1.1.5.5.85m-.9-.5.1.2q1.25.2.2-.5l-.3.3m-1 1 .2.15q.8 0 .65-.3.45.4-.1.6l-.15-.2q-.2 0-.3.2l-.05.1-.2-.25-.05-.3m-2 1-.15.25q-.05.3.2.3l.6-.1q.2.3-.3.4l-.1-.15-.1.05-.1.1h-.15q-.2 0-.25-.3-.05-.45.35-.55m1.75-.5q.65.6-.45.9-.2.05-.3-.25l-.05-.45.15.2q.9-.1.65-.4M11.7 4l-.35-.2q-.3-.7.4-.9l.05.05-.25.3q-.1.2.05.25.95.25.8-.15.25.3-.15.5l-.2-.25q-.2.05-.3.25L11.7 4M10 3.95l-.05.15.35.25.6-.35q.55.45-.15.75l-.15-.2q-.2.05-.3.25l-.05.1q-.35.05-.4-.4-.05-.35.15-.55m-7.7 11.5.2.1-.3.2-.05-.35.05.05h.1m-.5.4q-.65 0-1.4-.55-.35-.25.1-.45L1 15h.05v.05h.1q-.1.4.65.8M.15 14.4l.35.15v.05q-.4.1-.55.4l-.1-.15-.3.3.1.25.25.1-.1.2-.4-.15-.05-.3.25-.6.55-.25M6.4 5.65q.7.45-.35 1.1L5.8 6.5l-.15.05-.1.2-.15-.2q-.4-.8.35-1.15l-.1.15q-.1.25.1.3.95.3.65-.2m1.4.3-.15-.15-.2.05-.15.2-.2-.15q-.35-.65 0-.95l-.15.4q-.05.3.2.25 1.3-.1.45-.8 1.3.35.2 1.15M9.5 4.7l-.45-.45q-.1 0-.15.1l-.15.15q-.2.35.2.35l.55-.15q.3.35-.15.65.2.3-.4.2l-.1-.05v-.15l.3-.25.2.25-.2-.25-.3.25v.15l.1.05q.6.1.4-.2.45-.3.15-.65m-.6-.35q-.7.2-.25.95l.3.25-.3-.25q-.45-.75.25-.95M.25 5.3l.2.2q1.05-.1.45-.7 1.2.85-.35.95-.5 0-.3-.45m1.6.2-.1.25q-.05.3.15.3 1.15-.05.25-.65l.05-.05q1.35.65.2 1.1l-.15.05q-.65.2-.65-.45 0-.4.25-.55m2 .4-.1.2q-.05.35.25.3l.75-.2q.35.4-.5.95-.45.25-.65-.2V6.9q.85.2 0-.55l-.1.05.1-.3q.05-.15.25-.2M2.6 11.45l-.75-.3.1-.1q2.05.05 3.75.85l-.1.05-1.45-.1q-.5-.65-1.65-.6l.1.2m-.05.75q.45.75-.3.2l.1-.15.2-.05m3.55-.85-.15-.25h-.1l.25.25h-.65q.05-.45.65-.6.5.5 0 .6m.7.95h.1l.6.25.25.6-.05.3-.3.25h-.05l.05-.3q.5-.2-.2-.85l-.15.15-.6-.25h.05l.3-.15m-.6.35q.55.7-.9 1l-.55-.15q.5-.45 1.1-.7v.05l.35-.2m-2.65.95 2.1.5q-.7.6-2 .3l-2.15-.55Q.4 13.55 1 13l.85.2.1.05 1.6.35m-2.5-.9-.4.45-.2-.45q-.35.1-.45.5l.05.2H.2q-.2.1-.05.25l-.1-.05-.1.2-.1-.05q-.25-.75.35-1.1v.1l.4-.2h.1l.1.05h.1l.15.1m4.35 2.65 1.75-.3.2.15v.05q-.95 1-2.05.2-.1-.1.1-.1m-.55.2-.15-.05-.15.05q-.1 0-.15.1l1.1 1.9q.05.2.15.05l.25-.75q.25.85-.15 2-.05.2-.2 0-.45-.6-.6-1.4-.3-1.15-1.1-1.95-.15-.1.05-.2l.3-.1.65.35m-.25-1.1.05-.05-2.45-.9q-.35.1 0 .3 1.1.7 2.4.65m-2.35.1q.3.05.15.3v.05l-.3-.05-.05-.05.1-.2.1-.05m.5 2.9q.15-.8.6-1.4.5.7.25 1.8-.1.3-.05.65.15 1.6-.85.35l-.1-.5.05-.3.05.6q.1.25.2.1 1.1-.9.35-2.05-.4.3-.5.75m1.05 3.9-.05-.05-.1-.05H3.6q-.15.3.1.45l.05-.05.05-.05-.2.55-.25.3-.1-.05v-.05L3.2 22v-.3l.05-.7.1-.4.1-.3.15.25.15.45v.05l.05.3m1.2-.2v-.05l-.05-.55Q4.9 20 5.1 19.4h.05q.4.6.45 1.25v.55l-.2.6-.05.1v.05l-.05-.05-.3-.75m.55-.5-.25-.45-.05.05-.1.35q-.1.35.3.55v-.05l.1-.45m-15.4-24.3q-.05.15-.85 0-.3-.05-.05-.35l.5-.25.15.15h-.05l-.05.2.35.25m-.5.75.05.2q.95.2.2-.45l-.25.25m-.3.35v-.2q.1-.45.6-.45 1.1.8-.2.85l-.2-.3h-.05l-.15.1m1.45 1q.45.5-.75.25-.2-.05-.05-.25l.2-.15v.1l.6.05m.3.75h.1q1 .9-.45.6-.2-.05-.05-.25l.2-.25-.05.1v.15q1.05.2.25-.35m3.85 3.1.15-.05q1.2.8-.25.9l-.05-.05-.1.05-.15-.25.05-.2.1.1q.95-.05.25-.5m1.75 1q.65.45-.35.65l-.05-.05-.1.05h-.15l-.25-.25.1-.2.1.2q.85-.05.7-.4m1.05 1.3h-.15l-.25-.25.05-.25.1.1q1.2.2.3-.45l.1-.05q1.1.85-.15.9m2 .1q.35.35-.4.6l-.15-.1-.2.2-.25-.35.1-.45v.05l.25.25.65-.2M-7.6 1.1l.05.15q.95.25.45-.3 1 .65-.2.9l-.15-.15h-.05l-.15.1-.1-.25.15-.45m1.1 1.4-.15-.3.2-.45V1.7l.3-.2.15.1q.65.55-.4.35-.2 0-.05-.2-.15.2.05.2 1.05.2.4-.35l-.15-.1-.3.2v.05l-.2.45.15.3.05.25q.8.25.3-.25l-.15-.15-.15.1-.05.05m.5-.9q1 .65-.15.9Q-5 2.25-6 1.6M-8 .2q.85.65-.4.55-.3 0-.2-.3l.2-.25.05.15q.7.5.35-.15" fill="#ffbe46" transform="translate(18.85 4.3)"/><path d="m18.2-4.1.25-.15.35.45.15-.05.1.1q.6.6-.35.35-.15 0-.05-.15v-.05l.1-.15-.6-.15-.05-.05.05-.15h.05m-.25 2.25q.55.8-.3.5-.15 0-.05-.2l.1-.15.25-.15m-1.1 1.5h-.05q-.15-.05-.05-.25l.35-.3.1.1q.6.65-.35.45m.95.1q.4.65-.4.35v-.25h.05q.05-.2.25-.2l.1.1M14 7.6l-.25-1.05-.05-.05q-.3.7-.1 1.5l-.15-.05q-.65-.15-.75-.9l.7-2.45 2.35-1.25V3.3l.3-.1.7-.5.85-1 1.7.55 1 1q-4.35.3-6.3 4.35m-6.25 3.2-.85-.35-.45-.3-.8-.6L5.2 9h-.05l-.3-.5-.05-.05-.05-.05.05-.1.3-.05.4-.1.95-.3L8.4 6.9q.05.75.75 1.4l.1.05q-.15-.8-.65-1.55l.3-.1 2 1.2 1.25 1.15v.05l-.65 1 .05.25-1.05.35-.75-.85.65.9-1.35.15-1.3-.1M10.2 7l-.8-.5-.05-.05 3.35-1.6.4-.15v.05q-.2.3-.25.6l-.15.6h-.05l-.05.1-.25.1q-1.2.4-2.15.85m7.65-9.7v-.2l.4-.3.15.15q.65.65-.45.4l-.1-.05M18.2-1q.55.6-.3.5h-.05q0-.4.35-.5m4.45.55h-.2l.1.15.1-.15m-1.8 4.95-.05-.05h.05l.05.05.15.05.7.35 1.5 1.5.7 1.5-.3-.55-.9-1.3-.2-.2-.05-.05-.9-.85-.65-.4-.1-.05m-1.25.1-.35.1-.15.05h-.05l.3-.15.2-.05.05.05m4.1-.8.15.2.15.4.05.6q-.05 1.05-.95-.1-1-1.2-.25-2l.85.9m1.4.9q2 2.3.55 5.05l-.3.25-.3.1-.35-.3.1-2.75.3-.2v-.1q0-.05.15-.1L25 4.8l.1-.1m-.1 6.75.45-.3q.55-.3.7-.95l.5-1.35q.9.85.1 2.05l-1.2 1.2-.45.3-.3.15q-1.15.65-2.25.3.3-1.1 1.4-1.35l.55-.15.5.1M16.45 1l.3-.25h.05l.1.1q.55.5-.4.25l-.05-.1M16 .35l.3-.3q1.05.7-.2.5l-.1-.2m-.15.85q.15.3-.65.3l-.2-.15v-.2q.1-.35.45-.4l.4.45m-.6.7.05-.1q.1-.2.3-.2l.15.2q.25.45-.45.2l-.05-.1m3.65 1.95.1-.05h.05l-.15.05m-1.7 2.9-.75 1.2v-.1q.25-1.25 1.3-2.05l.1-.05-.65 1M13 2.35l.2-.1.45.55-.6.1q-.25 0-.2-.3l.15-.25m.35.85q.35.6-.3.05V3.2l.1-.1.1-.05.1.15m1.25-1.5.15.15q.25.3-.65.4l-.15-.2V2q0-.35.35-.45l.15.05.15.1m-2.8 1.25.15-.1.45.5q.15.4-.8.15-.15-.05-.05-.25l.25-.3m.45.9q.25.35-.5.2L11.7 4l.05-.15q.1-.2.3-.25l.2.25m-2.25.1q0-.2.25-.25l.65.3-.6.35-.35-.25.05-.15m.75.8q.3.55-.5.2V4.9l.05-.1q.1-.2.3-.25l.15.2m2.45-.1h.05l-.05.05v-.05m-5 10.7-.4.05-.15-.2-.05-.25q0-.25.3-.4.6.6.3.8m-6 .4v.05l-.25.1-.15-.05q-.75-.4-.65-.8h.05l.45.1.4.2.1.05.05.35M-.05 15q.5.6-.05.5l-.25-.1-.1-.25.3-.3.1.15m5.8-9.6.35-.2.3.45q.3.5-.65.2-.2-.05-.1-.3l.1-.15m.3 1.35q.3.4-.4.05l-.05-.05h-.05l.1-.2.15-.05.25.25m1.25-.7.15-.2.2-.05.15.15q.55.55-.4.3-.2-.05-.1-.2m.3-1.25q.85.7-.45.8-.25.05-.2-.25l.15-.4.3-.3.2.15m1.3-.45q.05-.1.15-.1l.45.45-.55.15q-.4 0-.2-.35l.15-.15M.7 5.85q.85.6-.15.4Q.4 6.25.5 6l.2-.15M.9 4.8q.6.6-.45.7l-.2-.2v-.05q.05-.5.5-.6l.15.15m1.25.6q.9.6-.25.65-.2 0-.15-.3l.1-.25.25-.15.05.05m.1 1.1.15-.05q.65.75-.2.4-.25-.1 0-.3l.05-.05m2.5-.3L4 6.4q-.3.05-.25-.3l.1-.2.25-.2.65.5m-1.25.2.1-.05q.85.75 0 .55l-.2-.05q-.2-.05-.1-.3.05-.15.2-.15m-6.25 1.5L-.7 6.7l.25.1q-.5.75-.65 1.55l.1-.05q.7-.65.75-1.4l1.95.95.95.3.4.1.3.05.05.1-.05.05v.05L3 9l-.65.65-.6.5-.5.3-.05.05-.35.15-.2.05-.25.1H.25l-1.15.1-1.35-.15.65-.9-.7.85-1.1-.35.05-.25-.65-1v-.05l1.25-1.15m-2.7.1q.2-.8-.1-1.5l-.05.05-.25 1.05q-1.95-4.05-6.3-4.35l1-1 1.75-.55.8 1 .75.5.25.1.05.05 2.3 1.25.75 2.45q-.15.75-.8.9l-.15.05m-7.75-5.15q-.35-.8-.85-1.05l-.1-.1q-.4-.85-1.3-.7l.25.9v.05l-.15.2v.05q-.6-.05-.65-.7l-.05-.2v-.05q-.15-.8.1-1.4l.05-.05.55-.65.3-.2.2.2.4-.45.5-.15q.55-.1 1-.5.65-.55 1.6-.55l.05.2q-.65 1.05-.8 2.35l.05.05q.55-.65.8-1.4v.1l.05.2.6 1.2.95 1.2-1 .2-1.05-1.9-.85 1-.9 1 .25 1.1v.05m8.7 3.1-.15-.6-.25-.6-.05-.05.45.15 3.35 1.6-.1.05L-2 7l-2.2-.85-.25-.1-.05-.1m7.55 3.7.65-.75h.05l.3-.05h.35l.6.75 1.25 1.05q-2.3.4-4.35 0l1.15-1 .75-.05h.35-.35l-.75.05m1.1 2.2.05.05-.1.1q-1.15-.05-1.5-.55l-.1-.2q1.15-.05 1.65.6M3.45 10l.15.1q1.55-.05.15-.45l-.2.1-.1.1V10q-.05.7.9.25 1.05-.5-.2-.65H5h-.85q1.25.15.2.65-.95.45-.9-.25v-.15l.1-.1q.05-.15.25-.15-.2 0-.25.15l.2-.1q1.4.4-.15.45l-.15-.1m2.65 1.35-.25-.25h.1l.15.25m-5.45 1.8-.45.25H.05L0 13.2q.1-.4.45-.5l.2.45m6.75.25-.45.05q-.2 0-.15-.25l.25-.5.15-.15q.7.65.2.85m-2.55 2.15q.75.35.95.85l.1.45-.25.75q-.1.15-.15-.05l-1.1-1.9q.05-.1.15-.1l.15-.05.15.05m1.95 3.5q.5.55.6 1.4l.05.25q-.5-.05-.9-.3l.25-1.35m-2.2-4.6q-1.3.05-2.4-.65-.35-.2 0-.3l2.45.9-.05.05m-1.95 3.6.1-.6q.1-.45.5-.75.75 1.15-.35 2.05-.1.15-.2-.1l-.05-.6M3.8 21.6l-.05.05-.05.05q-.25-.15-.1-.45h.05l.1.05.05.05v.25m-2.7-.5.35.3h.05q.25-.55 1-.2 0 1.35-.9.95l-.05-.1-.3.05-.2.3-.05.05-.2-.4-.2.05-.3.25-.1.05q-.4-.5.25-.8l.1-.35.1-.1.45-.05m.95-2.15.35 1.55v.05l-1.9.15.7-.85.85-.9m3.5 1.7-.1.45v.05q-.4-.2-.3-.55l.1-.35.05-.05.25.45m1.6.3q.5.5.2 1.25v.05q-.7-.45-.25-1.25l.05-.05m-.85 1.2q-.5-.55.2-1.15.5.55-.1 1.1l-.1.05m12.95-8.9.55.3v.05q-.6.05-.55-.35m-29.1-16.9-.35-.25.05-.2h.05l.1-.05q.3.5.15.5m-4.5 3.35.05-.15h-.2l.15.15m4-2.6.25-.25q.75.65-.2.45l-.05-.2m.1.55q.25.4-.35-.05l-.05-.15.15-.1h.05l.2.3m.45.65v-.1l.25-.2.35.45-.6-.05v-.1m-.2.5h.05q.55.75-.15.2l.1-.2m.85 1.05q.45.75-.2.2l.1-.15.1-.05m.05-.55.2-.1q.8.55-.25.35V-.6l.05-.1m3.95 3.85q.65.7-.2.15l.05-.15.1-.05.05.05m-.25-.45-.05-.15q-.05-.3.25-.35l.15.1q.7.45-.25.5l-.1-.1m2.1.6q.15.35-.7.4l-.1-.2.05-.1.1-.2.3-.3.35.4m-.5.65.1-.05.05.05q.65.6-.25.3l.05-.25.05-.05m1.2.15v-.15l.3-.3.1.1q.9.65-.3.45l-.1-.1m.35.5q.75.7-.2.45l-.1-.2q.1-.25.3-.25m-2.8.05v.05l-.05-.05h.05m3.9-.05.25-.3q.65.25.65.4l-.65.2-.25-.25V4.6m.5.7q.65.55-.3.35l-.1-.2.05-.05.2-.2.15.1M-7.6 1.1V1l.3-.3.2.25q.5.55-.45.3l-.05-.15m.3.75q.4.5-.4.05l.05-.1.15-.1h.05l.15.15m.8.65.05-.05.15-.1.15.15q.5.5-.3.25l-.05-.25M-8.4.2l.05-.1.25-.1.1.2q.35.65-.35.15L-8.4.2m-.1.65q.6.8-.15.25l.05-.2.1-.05m1.95 8.85.5-1.05q.3.65-.05 1.45v.05l-.45-.45M-10 5.05l1.2 1.4v.05q-1.1-1-2.45-1.45l-1-.25-.3-.05q-.6-.1-1.05.35l-.25.25-1.05 2q-.8-.4.05-1.2l1.1-.95.2-.2.65-.6.1-.05.3-.1.75.1.55.1.55.2v.05l.65.35m-5.6-1.25.15-.2.85-.9q.75.8-.25 2-.9 1.15-.95.1l.05-.6.15-.4m4.75 0h.05l.1.05-.15-.05m-5.25 4.5-.2.45h-.2q-1-1.05-.4-2.15.7.45.8 1.1v.6m.9 3.2.8.7v.05q-.65.15-.85-.7l.05-.05" fill="#fff" transform="translate(18.85 4.3)"/><path d="M9.2 22.3q-.65.55-1.7.2-.45.4-.95 0-.5.5-.85.1l.15-1.25v-.65l-.05-1.2.1-.05.35-.3q.35-1.6-.45-2.75l.95-.15.25.5.25.3L8 19.1l.65 1.55.2.55.1.3.25.8m-4.4.05L4.6 22l-.55-.2.05-.5v-.25l.05-.55v-1.7l-.2-1.5-.1-.55q.4.3.6.85l.2 2.85v.95q0 .55.15.95m-1.85.1H2.6q-.45.75-1.2.2L.35 22.6q-.75.8-1.15-.1l-.55.1.1-.45.4-1.2.3-.65.35-.6q.8-1.3.9-2.5l.1-.2.5-.9 1.4.3q-.45 1.15-.4 2.6l.2.7.4.4V22l.05.45m16.1-18.6h.05l.45-.15.45-.1.45-.05.1-.05.4-.15-.15-.25-.2-.5.2.1.35.45.2-.3.05-.05.2-1.1-.9-1-.85-1-1.05 1.9-.95-.2.9-1.2.6-1.2.05-.2v-.1q.25.75.8 1.4l.05-.05q-.15-1.3-.75-2.35v-.2q.95 0 1.6.55.45.4 1 .5l.5.15-.5-.15q-.55-.1-1-.5-.65-.55-1.6-.55v.2q.6 1.05.75 2.35L20.2.1q-.55-.65-.8-1.4v.1l-.05.2-.6 1.2-.9 1.2.95.2 1.05-1.9.85 1 .9 1-.2 1.1-.05.05-.2.3-.35-.45-.2-.1.2.5.15.25-.4.15-.1.05-.45.05-.45.1-.45.15h-.05V3.8H19l-.1.05v.05l.15-.05M14 7.6v.45l1.55-2 .1-.25.7-.8 1.3-.65.9-.35.25-.1h.1-.1l-.25.1-.9.35-1.3.65-.7.8-.1.25-1.55 2V7.6q1.95-4.05 6.3-4.35l-1-1-1.7-.55-.85 1-.7.5-.3.1v.05L13.4 4.6l-.7 2.45h-.05q-.05-.6.05-1.1l.15-.6q.05-.3.25-.6V4.7l-.4.15-3.35 1.6.05.05.8.5 1.2 1.15h-.05l-.45-.25-2-1.2-.3.1q.5.75.65 1.55l-.1-.05q-.7-.65-.75-1.4l-1.95.95-.95.3-.4.1-.3.05-.05.1.05.05.05.05.3.5h.05l.45.55.8.6.45.3.85.35L9 11h.75l.75-.1 1.05-.55h.05l.1-.1.45-.45.25-.45h.05V9.3q-.05-.8.15-1.55h.05l.15 1.3.95-.7L13.6 8q-.2-.8.1-1.5l.05.05L14 7.6m4.8-6q.7.3 1.3.85h-.05l-.75-.2.75.2h.05q-.6-.55-1.3-.85m4.4-2.65.35.2-.3-.2-.65-.25.45.45.15-.2m.35.2.55.65v.05q.25.6.1 1.4v.05l-.05.2q-.05.65-.65.7v-.05l-.1-.2.1.2v.05q.6-.05.65-.7l.05-.2v-.05q.15-.8-.1-1.4V-.2l-.55-.65m-1.2 2.55.6-.5.35.25.05.45.05.05V1.9q-.05-.35.2-.9-.9-.15-1.25.7l-.15.1q-.5.25-.85 1.05.35-.8.85-1.05l.15-.1m.1.65-.35.7h-.05l-.25.35-.05.1-.35.45h-.05l-2.25.45-.05.05.25.05 2.05-.35h.05l.1-.2.05.05.1.6.3.25.95.9q.4.3.95.4l.45-.05.2-.9.05-.1v1.35l-.05.45-.35.25.15.45-.25 1.2q-.1.65.05 1.05l-.1.1.05.3q.2.8.65.25.45.15 1.2-.35-.55 1.05-1.8 1.15l-.35-.35Q22.25 12 21.05 13q-.3.25.05.25h.3q-.25.4.5.4h.15q1.3-.05 2.55-.65l.1-.05.85-.45.4-.3.95-1q1.25-1.85-.25-3.6-.1-2.25-1.95-4.05l-.1.05q-.4-.9-1.75-1.55l-.4.3M20.9 4.5l-.05-.05h-.05l.05.05-1-.1-.35.1-.15.05-.3.15-.1.05-.25.15-.05.05.5-.15.05-.05.05-.05.35-.1.2-.05.55-.1.3.1h.05l.2.1.25.1.45.2.9.85.05.05.2.2.25.55.45.95.05.2.05.9-.15.8-.2.6-1.15 1.25-1.35.65-.6.15q-1.8-.5-2.75-2v-.05l-.1-.15-.15-.4-.45-.4v.25l-.15-.4-.05-.1-.25.3h-.05l.1-.6-.15-.35q-.25 1.15.35 2.55l.3.45.1.1q1 .8 2.45 1.2h.1l1.05-.05.35-.1 1.3-.55.6-.45.65-.65.55-1.5v-.3q.05-.85-.25-1.55l.3.55-.7-1.5-1.5-1.5-.45-.3-.1-.05-.15-.1-.15.05m-3.05 8.6q1.4 1.05 2.9.9l.55-.1-.05-.05-.8-.35-.5.25.5-.3.05-.05.25-.3-.15-.1-3-.45-.25.2.5.35m.85-8.5-.15-.05q-2.3.6-3.1 2.6-.6.5-.85 1.15l.15.45-.1-.4.15.2q-.15.65.05 1.45.35 1.2 1.25 1.6l-.05-.3.2-.05-.5-1.1q-.5-.9-.1-2.2.6-1.85 2.3-2.95l.5-.25.2-.15h.05m-.85 1.15.35-.4V5.3l.15-.15-.1.05.05-.15-.15.2h-.2l.1-.1Q17 5.9 16.6 7q-.3.45-.45 1l.25.25.05-.05.05-.3h.05l.05.2.15-.15-.15.55.35.4V7.8l.25-1.05.65-1V5.7v.05m-4.65-1.1v.05l.05-.05h-.05m3.1 7.45-.05.1q.3.7.9.55v-.05l-.1-.2q.1-.4-.4-.5h-.2l.1.1-.1-.05-.15.05m-.5-1.5-.05-.05-.15-.15.3.25h-.05l-.05-.05m1.35.4-.1-.1v-.1l.1.2M.4 10.8l.25-.1.2-.05.35-.15.05-.05.5-.3.6-.5L3 9l.35-.5v-.05l.05-.05-.05-.1-.3-.05-.4-.1-.95-.3-1.95-.95Q-.3 7.65-1 8.3l-.1.05q.15-.8.65-1.55l-.25-.1-2.05 1.2-.45.25Q-2.7 7.45-2 7l.75-.5.1-.05-3.35-1.6-.45-.15.05.05.25.6.15.6v1.1l-.75-2.45-2.3-1.25-.05-.05-.25-.1-.75-.5-.8-1-1.75.55-.75.2 1.25-.85 1-.2-.95-1.2-.6-1.2-.05-.2v-.1q-.25.75-.8 1.4l-.05-.05q.15-1.3.8-2.35l-.05-.2q-.95 0-1.6.55-.45.4-1 .5l-.5.15-.6.25h-.05l-.25.2-.55.65-.05.05q-.25.6-.1 1.4v.05l.05.2q.05.65.65.7v-.05l.15-.2V1.9l.05-.45.35-.25.65.5.1.1q.5.25.85 1.05l.2.3.35-.45.2-.1-.2.5-.1.25.35.15.1.05.5.05.45.1.45.15.2.05h.05l.25.1.9.35q.65.25 1.3.65l.7.8.15.25 1.5 2V7.6l.25-1.05.05-.05q.3.7.1 1.5l-.1.35.9.7.15-1.3h.05q.2.75.15 1.55l.05.05.3.45.4.45.15.1 1.1.55.7.1h.75l1.15-.15.1-.05m.7 10.3-.45.05-.1.1-.1.35q-.65.3-.25.8l.1-.05.3-.25.2-.05.2.4.05-.05.2-.3.3-.05.05.1q.9.4.9-.95-.75-.35-1 .2h-.05l-.35-.3m-.95.25L0 20.8l-.3.2-.1.2.1.1q-.3.2-.25.55l.05.05q.45-.1.5-.3h.05l.1-.25m1.9-2.4-.2-1.7Q.55 18.65 0 20.4l.5.3 1.9-.15v-.05l-.35-1.55m-.35 3.4-.05-.05v.05h.05m6.35-1.2q-.25-.05-.35.15.1.5.5.75l.3-.3v-.05l-.45-.55m-1.75 1 .1-.05q.6-.55.1-1.1-.7.6-.2 1.15m.85-1.2L7.1 21q-.45.8.25 1.25v-.05q.3-.75-.2-1.25m-12.2-16.3h-.05l.05.05v-.05m-1.5 5.05-.45.4h-.05l.1-.15-.65.5.75-.8.5-1.55q-.25-.65-.85-1.15-.8-2-3.1-2.6 1.65.85 2.6 2.4.5.85.5 1.85 0 .8-.25 1.35l-.55 1.1.8.05.55-.1.65-.85q.4-.75 0-1.5h-.05l-.5 1.05m-4.7-4.65q1.55.8 2.2 2.1l.4.65.15-.15-.15-.5-.2-.3h.05l.05.05-.05-.2.05-.05.25.4.25.25.15-.2q-.7-1.3-1.9-2.05l-.65-.35v-.05l-.55-.2-.4-.1-.4-.15-.85.15q-.45.15-.7.65l-.2.2q-.45.25-.75.6l-.7.6-.35 1.15q-.1 3.6 3.5 4.65 1.65.45 2.85-.55l.8-.85.8-1.8v-.7l-.3-.25-.15.25.15.95v.05l-.3-.8-.1.15.1.15-.35 1.7-.55.65q-1.25 1.15-3 .6-.85-.25-1.5-.8l-.7-.95q-.8-1.25-.5-2.25-.05-.5.25-1.1.5-.95 1.3-1.45.15-.25.65-.35l.35-.05 1 .25m3.5 2.75-.05-.1v.05l.05.05m-.65 4q-.5.1-.4.5.15 1.15 1.3.75.65-.15 1.15-.65.75-.75.2-1.65-.95.9-2.25 1.05m-7.2-8-.6.85-.05.35q.55 1.2 1.9.25.95-.7 1.05-1.7l.2.2.1.25.05.05.75-.15-.9-.15-.4-.45-.05-.1-.25-.35-.6-.3-.2.15-.85.9-.15.2m-.5 3.9.05-.3.15-.45-.4-.3.05-.45-.2-.6-.05-.2v-.15l-.45 1q-.4 1.05-.2 1.95-.05.95.65 2 .5.7.7-.15l.05-.3q-.35-.6-.35-1.45v-.6m.6 3.05q-.45.3-.3.7l.4.65.05.05.35.25q.95.7 2.15.65.35 0 .1-.2l-.05-.05-1.3-1-.85-.65-.55-.4m4.95 3h.05l.55-.1h.2q1.8-.45.4-1.3l-3 .45-.15.1.05.1q.6.75 1.9.75" fill="#2e3d3c" transform="translate(18.85 4.3)"/><path d="m19.05 3.85-.15.05v-.05l.15-.05v.05m-7.5 6.5-1.05.55-.75.1H9l-1.25-.2 1.3.1 1.35-.15.1.05h.05l-.05-.1 1.05-.35m11.1-10.8-.1.15-.1-.15h.2m.55-.6h.05l.3.2-.35-.2m.15 2.95h.05v.05l-.05-.05m1.25 3.15.05.15h-.05v-.15M.4 10.8l-.1.05-1.15.15h-.75l-.7-.1-1.1-.55 1.1.35-.1.1h.05l.1-.05 1.35.15 1.15-.1H.4m-11.1-6.9-.2-.05.05-.05.15.05v.05m-4.65-4.75.25-.2h.05l-.3.2m1 .55-.15-.15h.2l-.05.15" fill="#f2debf" transform="translate(18.85 4.3)"/><path d="m13.6 8 .15.35-.95.7-.15-1.3h-.05q-.2.75-.15 1.55v.05h-.05l-.25.45-.45.45-.1.1h-.05l-.05-.25.65-1v-.05L10.9 7.9l.45.25h.05L10.2 7q.95-.45 2.15-.85l.25-.1.05-.1h.05q-.1.5-.05 1.1v.05l.05-.05q.1.75.75.9l.15.05m9.65-9.05h-.05l-.15.2-.45-.45.65.25m.1 2.95-.05-.45-.35-.25-.6.5Q22.7.85 23.6 1q-.25.55-.2.9h-.05m-.9.45.4-.3q1.35.65 1.75 1.55l.1-.05q1.85 1.8 1.95 4.05 1.5 1.75.25 3.6l-.95 1-.4.3-.85.45-.1.05q-1.25.6-2.55.65h-.15q-.75 0-.5-.4h-.3q-.35 0-.05-.25 1.2-1 2.7-2.05l.35.35q1.25-.1 1.8-1.15-.75.5-1.2.35-.45.55-.65-.25l-.05-.3.1-.1q-.15-.4-.05-1.05l.25-1.2-.15-.45.35-.25.05-.45V5.1l-.05.1-.2.9-.45.05q-.55-.1-.95-.4l-.95-.9-.3-.25-.1-.6-.05-.05-.1.2h-.05l-2.05.35-.25-.05.05-.05 2.25-.45h.05l.35-.45.05-.1.25-.35h.05l.35-.7M20.9 4.5l.15-.05.15.1.1.05.45.3-.7-.35-.15-.05m2.75 2.85q.3.7.25 1.55v.3l-.55 1.5-.65.65-.6.45-1.3.55-.35.1-1.05.05h-.1q-1.45-.4-2.45-1.2l-.1-.1-.3-.45q-.6-1.4-.35-2.55l.15.35-.1.6h.05l.25-.3.05.1.15.4V9.1l.45.4.15.4.1.15v.05q.95 1.5 2.75 2l.6-.15 1.35-.65 1.15-1.25.2-.6.15-.8-.05-.9-.05-.2L23 6.6l-.25-.55.9 1.3m-2.05-2.4-.45-.2-.25-.1-.2-.1h-.05l-.3-.1-.55.1-.2.05-.05-.05-.2.05-.3.15h.05l.15-.05-.05.05-.05.05-.5.15.05-.05.25-.15.1-.05.3-.15.15-.05.35-.1 1 .1.1.05.65.4m2.1-1.15-.85-.9q-.75.8.25 2 .9 1.15.95.1L24 4.4l-.15-.4-.15-.2m.9 1.25v.15h.05l-.05-.15m.4 6.4-.5-.1-.55.15q-1.1.25-1.4 1.35 1.1.35 2.25-.3l.3-.15.45-.3 1.2-1.2q.8-1.2-.1-2.05l-.5 1.35q-.15.65-.7.95l-.45.3m.1-6.75-.1.1.25 1.85q-.15.05-.15.1v.1l-.3.2-.1 2.75.35.3.3-.1.3-.25Q27.1 7 25.1 4.7m-7.25 8.4-.5-.35.25-.2 3 .45.15.1-.25.3-.05.05-.5.3.5-.25.8.35.05.05-.55.1q-1.5.15-2.9-.9l-.1-.1.1.1.15.05-.15-.05m-.65-6.35-.25 1.05v1.1l-.35-.4.15-.55-.15.15-.05-.2h-.05l-.05.3-.05.05-.25-.25q.15-.55.45-1 .4-1.1 1.45-1.85l-.1.1h.2l.15-.2-.05.15.1-.05-.15.15v.05l-.35.4-.1.05q-1.05.8-1.3 2.05v.1l.75-1.2m1.5-2.15h-.05l-.2.15-.5.25q-1.7 1.1-2.3 2.95-.4 1.3.1 2.2l.5 1.1-.2.05.05.3q-.9-.4-1.25-1.6-.2-.8-.05-1.45l-.15-.2.1.4-.15-.45q.25-.65.85-1.15.8-2 3.1-2.6l.15.05m-.85 1.15V5.7v.05M10.5 10.7l.05.1h-.05l-.1-.05-.65-.9.75.85m5.3-.1.05.05h.05l-.3-.25.15.15.05.05m.5 1.5.15-.05.1.05-.1-.1h.2q.5.1.4.5l.1.2v.05q-.6.15-.9-.55l.05-.1m.25 0 .25.25-.25-.25m.6-1.1-.1-.2v.1l.1.1m-20.55-.65-.15-.1-.4-.45-.3-.45-.05-.05q.05-.8-.15-1.55h-.05l-.15 1.3-.9-.7.1-.35.15-.05q.65-.15.8-.9v-1.1l.05.1.25.1L-2 7q-.7.45-1.2 1.15l.45-.25L-4 9.05v.05l.65 1-.05.25M-5.85 7.6v.45l-1.5-2-.15-.25-.7-.8q-.65-.4-1.3-.65l-.9-.35-.25-.1h-.05v-.05l-.1-.05h-.05l-.05.05-.45-.15-.45-.1-.5-.05-.1-.05-.35-.15.1-.25.2-.5-.2.1-.35.45-.2-.3V2.8l-.25-1.1.9-1 .85-1 1.05 1.9-1.25.85.75-.2-1 1q4.35.3 6.3 4.35m-8.3-5.9-.65-.5-.35.25-.05.45-.25-.9q.9-.15 1.3.7m-.9-2.75.6-.25-.4.45-.2-.2M-2.3 10.7l.7-.85-.65.9-.1.05h-.05l.1-.1m9.1 8.35-.15-1.55-.1-.35v-.1h.15l.25.45.25.4-.25-.4-.25-.45h-.15v.05l.1-.15.05.1-.05-.1-.1.15v.05l.1.35.15 1.55-.25 1.35q.4.25.9.3l-.05-.25q-.1-.85-.6-1.4m.4-1.15 1 2.6-.05.05-.7.15.7-.15.05-.05-1-2.6M.15 21.35 0 21.6l.15-.25-.1.25H0q-.05.2-.5.3l-.05-.05q-.05-.35.25-.55l-.1-.1.1-.2.3-.2.15.55m.35-.65-.5-.3q.55-1.75 1.85-3.15l.2 1.7-.85.9-.7.85m7.55.45.45.55v.05l-.3.3q-.4-.25-.5-.75.1-.2.35-.15m11.2-7.9q-.05.4.55.35v-.05l-.55-.3m-25.3-4.6H-6q.4.75 0 1.5l-.65.85-.55.1-.8-.05.55-1.1q.25-.55.25-1.35 0-1-.5-1.85-.95-1.55-2.6-2.4 2.3.6 3.1 2.6.6.5.85 1.15l-.5 1.55-.75.8.65-.5-.1.15H-7l.45-.4.45.45v-.05q.35-.8.05-1.45M-10 5.05q1.2.75 1.9 2.05l-.15.2-.25-.25-.25-.4-.05.05.05.2-.05-.05h-.05l.2.3.15.5-.15.15-.4-.65q-.65-1.3-2.2-2.1Q-9.9 5.5-8.8 6.5v-.05l-1.2-1.4m-2.25-.25-.35.05q-.5.1-.65.35-.8.5-1.3 1.45-.3.6-.25 1.1-.3 1 .5 2.25l.7.95q.65.55 1.5.8 1.75.55 3-.6l.55-.65.35-1.7-.1-.15.1-.15.3.8v-.05l-.15-.95.15-.25.3.25V9l-.8 1.8-.8.85q-1.2 1-2.85.55-3.6-1.05-3.5-4.65l.35-1.15.7-.6q.3-.35.75-.6l-1.1.95q-.85.8-.05 1.2l1.05-2 .25-.25q.45-.45 1.05-.35l.3.05m-1.3.2q.25-.5.7-.65l.85-.15.4.15.4.1-.55-.1-.75-.1-.3.1-.1.05-.65.6m5.8 2.8-.05-.05V7.7l.05.1m.15 2.65h-.05.05m-.8 1.35q1.3-.15 2.25-1.05.55.9-.2 1.65-.5.5-1.15.65-1.15.4-1.3-.75-.1-.4.4-.5m5.15-3.65h.05-.05M-4.5 7.1v-.05.05m-7.4-4.65h-.05.05m-2.7.25.2-.15.6.3.25.35.05.1.4.45.9.15-.75.15L-13 4l-.1-.25-.2-.2q-.1 1-1.05 1.7-1.35.95-1.9-.25l.05-.35.6-.85-.15.4-.05.6q.05 1.05.95-.1 1-1.2.25-2m-1.5 5.6q0 .85.35 1.45l-.05.3q-.2.85-.7.15-.7-1.05-.65-2-.2-.9.2-1.95l.45-1v.15l.05.2.2.6-.05.45.4.3-.15.45-.05.3q-.1-.65-.8-1.1-.6 1.1.4 2.15h.2l.2-.45m.6 2.45.55.4.85.65 1.3 1 .05.05q.25.2-.1.2-1.2.05-2.15-.65l-.35-.25-.05-.05-.4-.65q-.15-.4.3-.7m.3.75-.05.05q.2.85.85.7v-.05l-.8-.7m4.65 2.25q-1.3 0-1.9-.75l-.05-.1.15-.1 3-.45q1.4.85-.4 1.3h-.2l-.55.1h-.05" fill="#96c4c7" transform="translate(18.85 4.3)"/><path d="m25.5 13.75.5.5-.5.9-1.15-.9.7-.3.45-.2m-6.25 1.45q-1.2-.7-2.55-1.2h.25l.5.2q2 .85 4.15.7 1.2.65 2.25 1.6l.15.25.15.2.3.4v.2q.9.8-.35 1.8l-2.05-2.15q1.7-1.05-1.1-2.15-.65.35-.7.75l-.15-.1-.35-.2-.25-.15-.05-.05-.1-.05-.1-.05m.85 2.75q1.45 1.65 2 4l-.45.35-.4.15-.05-.2-.25.15h-.05l-.25-.1-.3-.15-.05-.05-.45-.4.25.25-1.75-2.35-.9-1.05v-.05q-.5-.75-1.4-1.35H16l-2.5-1.7 1.05-.5.75-.05 1.65.7q-1.7.55-.3 1.85Q18.2 18.9 20 19.6q.4.15.4-.15l-.3-1.5m-8.75 1.35-1.25-1.15q-.4 0-.55.35-.25.65-.15 1.35-.8-1.4-.95-2.95l.6.05h.2l2.1 2.35m-.8 2.9q.6.6 1.55.75.4.1.4-.2.05-1.25-.45-2.3 1.3 2.25 1.6 5h-.55l-1.75-.05-.2-.05-.1-.85-.15-1.2-.35-1.1m-20.65-7.5h.1l1.2-.3.1-.05.75.25.1-.05.4.2-1.35.7-.6.5q-.1-.65-.7-1.25m.65 1.75 1.4-1 .85-.55.2.1-1 .95-1.7 1.2.25-.7m-2.05 2.45-2.55 2.9-.4-.2q-1.1-.7-1.15-1.4v-.05l.05-.45v-.2q1.15-1.9 2.95-3.25-.7.75-.9 1.7-.7 2.85 2 .95m-5.45-3.15.45-.2.05-.05.05-.05q.7-.5.6-.95h-.05l-.1.05-.2.15.05-.05 1.15-.9h.05l.35.2.2.1.2.1 1.45.5-.75.8.05.05v-.05l.2-.1-.2.15-1.2.85h-.05l-.1.1-.1.1L-16 17.7l-.05-.1v-.05l-.35-.3-1-1.3.1-.1.35-.1m1-3.1.25.35q-1.2.4-2.1 1.2v.05q-.25-.65.9-1.05l.95-.55m.2 2.55q-.05.6.45.55 3.1-.25.75-1.75-1.05.2-1.2 1.2m7.4 6.6-1.1 1.4-.4.1-1.25-.35h-.1q.7-1.65 1.7-3l2-2.4q-1.45 1.8-1.35 3.85 0 .6.5.4m1.7-5.1 1.1-.95 1.35.7-.05.05-.05.05-.05.05-1 .85.25-.3q-.15-.45-.65-.85l-.9.4m1.7 1 .5-.6-.5.75v-.15m1.7.7.9-1.3.2.05 1 .1.05.05.45.2-.25.3-.8 1.25q-.1-.8-.7-1.4-.5.3-.85.75m.2 4-1 3.45-1.25-.45.55-1.9h-.05q-.6.95-.55 1.85l-.9-.55q.5-1.85 1.35-3.5v-.05l.45.95q.75.6 1.4.2" fill="#910003" transform="translate(18.85 4.3)"/><path d="m-1.35 22.6-.05.15-.3 1.2q-.6 1.45-.6 2.85l-.55-.1q-3.35-.65-5.75-2.65-5.8.85-7.75-4.05-.35-.75.1-1.5-1.1-.85-1.6-1.7l-.4-1.05-.05-.25h-.05l-.5-1.15q.9-1.8 2.65-2.7l.5.55.25.25.2.15q.9.75 2.1 1l2.35.3h.6l.05.05h.15l2-.2q1.95-.3 2.4-1.9.35-1.3.15-2.45 1 .5 1.85 1.35l.8.6.3.2 3.3-.2.85.25h.1l.05.15.05.35.1 1v.15l-.1-.05-.55-.15-.2-.3-.05-.05-.15-.1H.8l-.1-.05-.2-.05q-.35 0-.55.25-1.9-.4-3.6-1.5-1.05.3-.6 1.25.6 1.3-.45 2.3l1.1.8.7.4 2.65-.05.45.15.6-.25.1-.1.45.25-.05.1-.5.9-.1.2q-.1 1.2-.9 2.5l-.35.6-.3.65-.4 1.2-.1.45m26.85-8.85-.45.2-.7.3 1.15.9.5-.9-.5-.5m-4.1 2.9.25.2.35.35h.05l2.05 2.15q1.25-1 .35-1.8v-.2l-.3-.4-.15-.2-.15-.25q-1.05-.95-2.25-1.6-2.15.15-4.15-.7l-.5-.2h-.25q1.35.5 2.55 1.2l-.85-.1-.25.2q.55 1.75 2.75 2.75l.35.05L20 16.75h.05l.7.5.65.55v-1.15m-.15 5.8.4-.15.45-.35q-.55-2.35-2-4-1.25-1.45-3.15-2.35l-1.65-.7-.75.05-1.05.5 2.5 1.7h.05q.9.6 1.4 1.35v.05l.9 1.05 1.75 2.35-.25-.25.45.4.05.05.3.15.25.1h.05l.3.05M17.1 25.1l.4-.1h.15l.25-.05.5-.2v-.1l-.95-3.2.3-.2.15-1.65-.9-1.25h.05l.6.55-.2-.35.2.35-.6-.55H17l.9 1.25-.15 1.65-.3.2.95 3.2v.1l-.5.2-.25.05h-.15l-.4.1-.1-.05v.05h.1m-2.5-3.45.45 1.15 1 2.35.05.1.25-.05.65-.1-.65.1-.25.05-.05-.1-1-2.35-.45-1.15v-.05l-.3-.6-1-1.7-.35-.5-1.2-.65q-.75.3-.25 1.1 1.2 1.95 2.7 3.55.25.3.25.05l.15-1.2m1.55-2.8-.1-.2q-1.3-1.85-3.25-2.85l-.6.25-.05.2h-.1l-.45.2-.1-.1-.55.2q1.1 1 2 2.25-.9-1.25-2-2.25l.55-.2.1.1.45-.2h.1l.05-.2.6-.25q1.95 1 3.25 2.85l.1.2-.05-.05q-.7-1.05-2.2-1.75-.85.25-.55 1.15.85 2.45 2.8 3.8.5.35.55-.1.25-1.4-.25-2.5v-.05l-.3-.5m1.3 2.6-.35-.9-.65-1.2.65 1.2.35.9M1 15l-.2-.35-.1-.1v-.1l.1-.3.3-.2h.05l.75.35-.25.85-.45-.1h-.15V15H1m10.35 4.3-2.1-2.35h-.2l-.6-.05q.15 1.55.95 2.95v.05l.25.45.2.35.7 1.5.35 1.1.15 1.2.1.85.2.05 1.75.05h.55q-.3-2.75-1.6-5l-.05-.1-.65-1.05m4.7-.65-.55-.7v-.55l.15.1v-.05l-.1-.15v-.15l.2-.15.25.15-.25-.15-.2.15v.15l.1.15v.05l-.15-.1v.55l.55.7M12.9 12.5l-.1-.1.1-.1v.2m.45 3.4-.3-.2-.15.05.45.15m-18.1-5.25h.1l-.05-.05-.05.05m-5.35 4.05-.95.5-.3.2-.1.05-.85.6-.3.2q-1.8 1.35-2.95 3.25v.2l-.05.45h-.05l.05.05q.05.7 1.15 1.4l.4.2 2.55-2.9.35-.4.5-.5.95-.85 1.7-1.2 1-.95-.2-.1-.85.55-1.4 1q-1.2.95-2.05 2.25.25-1.15 1.45-2.2l.65-.55.6-.5 1.35-.7-.4-.2-.1.05-.75-.25-.1.05-1.2.3h-.1m-4.75 1.85.1-.1.1-.1h.05l1.2-.85.2-.15-.2.1v.05l-.05-.05.75-.8-1.45-.5-.2-.1-.2-.1-.35-.2h-.05l-1.15.9-.05.05.2-.15.1-.05h.05q.1.45-.6.95l-.05.05-.05.05-.45.2-.5.1.05.1 1 1.3.35.3v.05l.15.35.15-.25.15-.25.2-.25.05-.05.5-.6m-1.1-3.9-.95.55q-1.15.4-.9 1.05v-.05q.9-.8 2.1-1.2l-.25-.35m6.45 7.3q-1 1.35-1.7 3h.1l1.25.35.4-.1 1.1-1.4 1.4-1.7-.3.6.75-1.1q-.3.9.05 1.8.25.65.8.35l.75-.45q-.85 1.65-1.35 3.5l.9.55q-.05-.9.55-1.85h.05l-.55 1.9 1.25.45 1-3.45.15-.4.85-2.15v-.05l.35-.7v-.05l.8-1.25.25-.3-.45-.2-.05-.05-1-.1-.2-.05-.9 1.3-.5.75q-.15-.7-.8-1.4l-.45.15.05-.05.5-.75-.5.6-.05.05h-.05l-1.2 1.3.3-.7-.1.1h-.05l.5-.65.25-.35 1-.85.05-.05.1-.05h.05l-.05-.05-1.35-.7-1.1.95-.05.05-.55.5Q-7.3 16.6-7.9 16q-1.4.65-2.4 1.85-.8.95-1.2 2.1-.3 1.05.8.55l1.2-.55m-.2 3.7.85.2v-.05l-.85-.15" transform="translate(18.85 4.3)"/><path d="M21.4 16.65v1.15l-.65-.55-.7-.5H20l1.25 1.35-.35-.05q-2.2-1-2.75-2.75l.25-.2.85.1.1.05.1.05.05.05.25.15.35.2.15.1 1.15.85m-.15 5.8-.3-.05.25-.15.05.2M17.1 25.1H17v-.05l.1.05m-2.5-3.45-.15 1.2q0 .25-.25-.05-1.5-1.6-2.7-3.55-.5-.8.25-1.1l1.2.65.35.5 1 1.7.3.6v.05M8 14.5q-.1-.25-.05-.5-.05-.75.7-1.4l.1.15.2-.5Q9.1 12 9.5 12q2 0 3.6-1v.1l.2-.35q1.75 1.85.6 3.4l-.1.05-.7.25-.1.05q-.8 1-2.45 1.35-1.55.3-1.35-.2h-.05l-.1.25q-.1.2-.3-.1l-.3-.4v-.15l-.25-.6-.2-.15m-7.3.05-.5-.15H.15l-.55.25-.25.6.05.3.2.3.15.1-2.65.05-.7-.4-1.1-.8q1.05-1 .45-2.3-.45-.95.6-1.25 1.7 1.1 3.6 1.5H-.1l-.25.6.25.6.6.25.3-.05-.1.3v.1m12.2-2.05v-.2l-.1.1.1.1m.45 3.4-.45-.15.15-.05.3.2m-18.1-5.25.05-.05.05.05h-.1m-5.6 3.25.1-.05.05.05h-.15m-4.5 2.65-.5.6-.05.05-.2.25-.15.25-.15.25-.15-.35.05.1 1.15-1.15m-2.55-.6-.05-.1.5-.1-.35.1-.1.1m7.9 4-1.2.55q-1.1.5-.8-.55.4-1.15 1.2-2.1 1-1.2 2.4-1.85.6.6.65 1.25l-.15.15-.1.15-2 2.4m5.3-3.5.05.05h-.05l-.1.05.05-.05.05-.05M-5 17.9l.45-.15q.65.7.8 1.4l-.1.15-.8 1.45-.25.45v.1l-.75.45q-.55.3-.8-.35-.35-.9-.05-1.8l1.25-1.45.25-.25" fill="#454545" transform="translate(18.85 4.3)"/><path d="M22.05 17.2H22l-.35-.35-.25-.2-1.15-.85q.05-.4.7-.75 2.8 1.1 1.1 2.15m-5.9 1.65.3.5v.05q.5 1.1.25 2.5-.05.45-.55.1-1.95-1.35-2.8-3.8-.3-.9.55-1.15 1.5.7 2.2 1.75l.05.05m-6.75 1q-.1-.7.15-1.35.15-.35.55-.35l1.25 1.15.65 1.05.05.1q.5 1.05.45 2.3 0 .3-.4.2-.95-.15-1.55-.75l-.7-1.5-.2-.35-.25-.45v-.05m10.7-1.9.3 1.5q0 .3-.4.15-1.8-.7-3.35-2.15-1.4-1.3.3-1.85 1.9.9 3.15 2.35m-32.7-1.7.3-.2.85-.6.1-.05.3-.2.95-.5q.6.6.7 1.25l-.65.55q-1.2 1.05-1.45 2.2.85-1.3 2.05-2.25l-.25.7-.95.85-.5.5-.35.4q-2.7 1.9-2-.95.2-.95.9-1.7m-3.15-1.05q.15-1 1.2-1.2 2.35 1.5-.75 1.75-.5.05-.45-.55m8.5 2.05.55-.5.05-.05.9-.4q.5.4.65.85l-.25.3-.25.35-.5.65h.05l.1-.1-.3.7 1.2-1.3H-5l.05-.05v.15l-.05.05-.25.25-1.25 1.45-.75 1.1.3-.6-1.4 1.7q-.5.2-.5-.4-.1-2.05 1.35-3.85l.1-.15.15-.15m3.5 1.9.5-.75q.35-.45.85-.75.6.6.7 1.4v.05l-.35.7v.05L-2.9 22l-.15.4q-.65.4-1.4-.2l-.45-.95v-.05l.25-.45.8-1.45.1-.15" fill="#c60005" transform="translate(18.85 4.3)"/><path d="M12.65 7.05h.05l-.05.05v-.05" fill="#c08325" transform="translate(18.85 4.3)"/></g></defs></svg>