<?xml version="1.0" encoding="UTF-8" standalone="no"?>
<svg xmlns:xlink="http://www.w3.org/1999/xlink" height="82.0px" width="84.85px" xmlns="http://www.w3.org/2000/svg">
  <g transform="matrix(1.0, 0.0, 0.0, 1.0, 37.4, 42.25)">
    <use height="38.0" transform="matrix(1.0, 0.0, 0.0, 1.0, -11.95, -17.45)" width="32.05" xlink:href="#sprite0"/>
    <use height="38.95" transform="matrix(1.0, 0.0, 0.0, 1.0, -12.45, -17.95)" width="33.05" xlink:href="#sprite1"/>
    <use height="31.1" transform="matrix(1.0, 0.0, 0.0, 1.0, -18.85, -4.3)" width="46.65" xlink:href="#shape2"/>
  </g>
  <defs>
    <g id="sprite0" transform="matrix(1.0, 0.0, 0.0, 1.0, -0.05, 0.0)">
      <use height="38.0" transform="matrix(1.0, 0.0, 0.0, 1.0, 0.05, 0.0)" width="32.05" xlink:href="#shape0"/>
    </g>
    <g id="shape0" transform="matrix(1.0, 0.0, 0.0, 1.0, -0.05, 0.0)">
      <path d="M27.35 7.4 Q29.5 11.55 30.9 16.15 32.35 20.85 32.05 25.65 31.7 30.6 27.85 33.75 24.05 36.95 19.1 37.8 L16.5 38.0 Q12.9 38.0 9.45 36.85 4.8 35.25 2.35 31.35 -0.2 27.4 0.05 23.0 0.25 18.6 2.05 13.7 3.85 8.75 7.0 5.05 10.1 1.3 14.7 0.1 L16.5 0.0 Q18.4 0.05 20.2 0.8 24.95 2.85 27.35 7.4" fill="#ffffff" fill-rule="evenodd" stroke="none"/>
    </g>
    <g id="sprite1" transform="matrix(1.0, 0.0, 0.0, 1.0, 0.45, 0.5)">
      <use height="38.95" transform="matrix(1.0, 0.0, 0.0, 1.0, -0.45, -0.5)" width="33.05" xlink:href="#shape1"/>
    </g>
    <g id="shape1" transform="matrix(1.0, 0.0, 0.0, 1.0, 0.45, 0.5)">
      <path d="M27.35 7.4 Q24.95 2.85 20.2 0.8 17.55 -0.3 14.7 0.1 10.1 1.3 7.0 5.05 3.85 8.75 2.05 13.7 0.25 18.6 0.05 23.0 -0.2 27.4 2.35 31.35 4.8 35.25 9.45 36.85 14.1 38.4 19.1 37.8 24.05 36.95 27.85 33.75 31.7 30.6 32.05 25.65 32.35 20.85 30.9 16.15 29.5 11.55 27.35 7.4 Z" fill="none" stroke="#000000" stroke-linecap="round" stroke-linejoin="round" stroke-width="1.0"/>
    </g>
    <g id="shape2" transform="matrix(1.0, 0.0, 0.0, 1.0, 18.85, 4.3)">
      <path d="M18.6 -4.3 L18.5 -4.3 18.6 -4.3 19.1 -4.05 19.4 -3.4 19.35 -3.05 Q20.85 -2.75 22.15 -1.7 22.5 -1.4 22.95 -1.35 25.1 -1.15 24.65 0.95 L24.2 2.3 Q27.3 5.65 27.8 10.3 27.9 10.95 27.45 11.4 L26.05 12.65 Q28.0 13.3 27.2 15.0 26.5 16.45 25.45 17.35 L25.85 17.85 25.9 17.95 Q25.25 21.15 22.35 22.1 L21.0 23.0 19.85 23.1 19.7 23.95 19.5 24.55 19.45 24.6 18.45 25.05 15.0 25.95 12.3 26.2 Q10.85 26.4 9.85 25.85 L9.8 25.95 Q9.7 24.05 9.2 22.3 L8.95 21.5 8.85 21.2 8.65 20.65 8.0 19.1 7.25 17.05 7.0 16.75 6.75 16.25 6.65 16.15 7.05 15.9 7.6 16.1 8.2 15.85 8.45 15.4 8.2 15.85 7.6 16.1 7.05 15.9 6.65 16.15 6.75 16.25 5.8 16.4 Q6.6 17.55 6.25 19.15 L5.9 19.45 5.8 19.5 5.85 20.7 5.85 21.2 5.85 21.35 5.7 22.6 5.6 23.1 Q5.6 23.3 5.4 23.1 L4.8 22.35 Q4.65 21.95 4.65 21.4 L4.65 21.1 4.65 21.05 4.65 20.45 4.45 17.6 Q4.25 17.05 3.85 16.75 L3.95 17.3 4.15 18.8 4.15 20.5 4.1 21.05 4.1 21.3 4.05 21.8 3.9 23.45 Q3.9 23.65 3.7 23.5 3.1 23.15 2.95 22.45 L2.9 22.0 2.9 21.7 2.9 21.0 2.9 20.6 2.9 20.1 2.5 19.7 2.3 19.0 Q2.25 17.55 2.7 16.4 L1.3 16.1 1.35 16.0 0.9 15.75 0.8 15.85 0.2 16.1 -0.25 15.95 -0.4 15.85 -0.6 15.55 -0.2 15.7 -0.1 15.5 Q0.45 15.6 -0.05 15.0 0.1 14.7 0.5 14.6 L0.5 14.55 0.15 14.4 0.2 14.4 0.7 14.55 0.8 14.65 1.0 15.0 0.5 14.85 Q0.05 15.05 0.4 15.3 1.15 15.85 1.8 15.85 L1.95 15.9 2.2 15.8 2.2 15.75 2.5 15.55 2.3 15.45 3.45 15.5 Q3.65 15.1 4.3 15.15 L4.75 15.4 6.25 15.15 6.8 14.95 7.0 14.65 Q7.2 14.45 7.55 14.4 L7.25 14.5 7.1 14.8 7.6 14.95 7.1 14.8 7.25 14.5 7.55 14.4 Q7.2 14.45 7.0 14.65 L6.8 14.95 6.25 15.15 5.9 13.85 6.25 15.15 3.7 14.75 2.6 15.15 2.05 15.35 1.65 15.15 1.9 14.3 1.15 13.95 1.1 13.95 0.8 14.15 0.5 14.2 -0.1 13.95 -0.35 13.35 -0.1 12.75 -0.05 12.75 Q0.15 12.5 0.5 12.5 L0.7 12.55 0.6 12.55 0.2 12.75 0.2 12.65 Q-0.4 13.0 -0.15 13.75 L-0.05 13.8 0.05 13.6 0.15 13.65 Q0.0 13.5 0.2 13.4 L0.65 13.15 1.05 12.7 1.1 12.75 1.3 13.05 1.85 13.2 1.0 13.0 Q0.4 13.55 1.5 13.85 L3.65 14.4 Q4.95 14.7 5.65 14.1 L3.55 13.6 3.9 13.65 5.85 12.75 5.85 12.8 5.85 12.75 5.85 12.55 5.65 12.55 4.3 12.5 1.95 13.1 1.85 12.1 2.3 12.0 1.8 11.75 1.75 11.6 1.65 11.6 0.8 11.35 0.85 11.3 0.9 11.25 1.0 11.2 1.5 10.9 1.65 10.85 1.5 10.9 1.0 11.2 0.9 11.25 0.85 11.3 0.8 11.35 -2.5 11.55 -2.8 11.35 -3.6 10.75 Q-4.45 9.9 -5.45 9.4 -5.25 10.55 -5.6 11.85 -6.05 13.45 -8.0 13.75 L-10.0 13.95 -10.1 13.95 -10.15 13.95 -10.2 13.9 -10.25 13.85 -10.35 13.9 -10.5 13.9 -10.75 13.9 -10.8 13.9 -13.15 13.6 Q-14.35 13.35 -15.25 12.6 L-15.45 12.45 -15.7 12.2 -16.2 11.65 Q-19.25 8.15 -16.2 4.0 L-15.5 3.15 Q-16.3 2.45 -16.55 1.0 -17.05 -1.1 -14.85 -1.3 -14.45 -1.35 -14.1 -1.65 -12.8 -2.7 -11.2 -3.05 L-11.15 -3.0 -11.2 -3.4 -10.95 -4.05 -10.3 -4.3 -9.65 -4.05 Q-9.4 -3.8 -9.4 -3.4 L-9.45 -3.05 -9.3 -2.5 -9.4 -2.05 -9.1 -1.9 -8.85 -1.25 -8.85 -1.0 Q-8.6 -1.0 -8.4 -0.8 -8.15 -0.55 -8.15 -0.15 L-8.15 -0.1 -7.6 0.15 Q-7.4 0.35 -7.35 0.65 L-7.3 0.65 -6.65 0.9 -6.4 1.35 -6.25 1.35 Q-5.9 1.35 -5.6 1.6 L-5.35 2.15 -5.05 2.1 -4.4 2.35 Q-4.2 2.55 -4.15 2.85 L-3.65 2.75 Q-3.25 2.7 -2.95 3.05 L-2.65 3.6 -2.2 3.5 Q-1.8 3.45 -1.5 3.8 L-1.25 4.2 -0.8 4.1 Q-0.4 4.05 -0.1 4.4 L0.15 4.75 0.75 4.55 Q1.2 4.55 1.55 4.9 L1.8 5.25 2.2 5.15 Q2.65 5.15 3.0 5.5 L3.25 5.85 Q3.6 5.5 4.05 5.5 L4.1 5.5 Q4.55 5.5 4.9 5.85 L4.95 5.85 5.2 5.5 Q5.5 5.15 5.95 5.15 L6.4 5.25 6.65 4.9 Q6.95 4.55 7.4 4.55 L8.05 4.75 8.25 4.4 Q8.55 4.05 9.0 4.1 L9.4 4.2 9.65 3.8 Q9.95 3.45 10.4 3.5 L10.85 3.6 Q10.85 3.25 11.1 3.05 11.4 2.7 11.85 2.75 L12.35 2.85 Q12.35 2.55 12.6 2.35 12.85 2.1 13.25 2.1 L13.5 2.15 13.8 1.6 Q14.05 1.35 14.45 1.35 L14.6 1.35 Q14.65 1.1 14.85 0.9 15.1 0.65 15.5 0.65 L15.55 0.65 Q15.55 0.35 15.8 0.15 L16.3 -0.1 16.3 -0.15 Q16.3 -0.55 16.6 -0.8 16.75 -1.0 17.05 -1.0 L17.0 -1.25 Q17.0 -1.65 17.3 -1.9 L17.55 -2.05 17.45 -2.5 17.65 -3.05 17.55 -3.4 Q17.55 -3.8 17.85 -4.05 L18.3 -4.2 18.2 -4.1 18.15 -4.1 18.1 -3.95 18.1 -3.9 Q18.05 -3.5 18.4 -3.55 L18.65 -3.55 Q18.55 -3.4 18.7 -3.4 19.65 -3.15 19.05 -3.75 L18.6 -4.3 M17.7 -1.7 L17.5 -1.5 Q17.35 -1.15 17.7 -1.1 19.3 -1.0 18.15 -1.9 L17.95 -1.85 17.7 -1.7 M17.2 -0.8 L17.1 -0.9 16.75 -0.6 Q16.65 -0.4 16.8 -0.35 L16.85 -0.35 17.05 -0.2 17.45 -0.15 17.4 -0.15 17.4 0.1 Q18.2 0.4 17.8 -0.25 L17.3 -0.8 17.2 -0.8 M19.35 -3.05 L19.3 -3.0 19.2 -2.85 19.3 -2.5 19.2 -2.1 19.1 -1.95 19.2 -2.1 19.3 -2.5 19.2 -2.85 19.3 -3.0 19.35 -3.05 M11.0 5.35 L13.05 4.35 Q17.1 2.4 19.05 -1.3 L19.1 -1.95 19.0 -1.85 18.75 -1.65 18.85 -1.25 18.55 -0.6 18.1 -0.35 18.15 -0.15 17.85 0.5 17.35 0.75 17.35 0.8 17.05 1.45 16.45 1.7 16.35 1.7 16.1 2.2 15.5 2.45 15.3 2.45 15.05 2.9 14.45 3.15 14.15 3.1 13.85 3.65 13.25 3.9 12.85 3.85 12.55 4.5 11.85 4.8 11.4 4.7 11.1 5.25 11.0 5.35 10.7 5.5 11.0 5.35 M-11.0 -2.1 L-11.1 -1.5 Q-9.2 2.4 -4.95 4.4 L0.6 7.0 2.35 7.55 Q3.45 7.75 3.9 8.5 L4.0 8.65 4.05 8.7 4.05 8.6 4.15 8.45 Q4.6 7.7 5.7 7.5 L7.5 6.95 10.7 5.5 10.4 5.55 9.95 5.45 9.7 5.85 Q9.4 6.15 9.0 6.15 L8.5 6.0 8.2 6.45 7.4 6.8 7.0 6.7 6.75 7.05 Q6.4 7.4 5.95 7.4 5.5 7.4 5.2 7.05 L5.15 7.05 4.9 7.4 4.1 7.75 4.05 7.75 Q3.6 7.75 3.25 7.4 L3.0 7.05 Q2.65 7.4 2.2 7.4 1.75 7.4 1.4 7.05 L1.15 6.7 0.75 6.8 Q0.3 6.8 -0.05 6.45 L-0.3 6.0 -0.8 6.15 Q-1.25 6.15 -1.55 5.85 L-1.8 5.45 -2.2 5.55 -2.95 5.25 -3.2 4.7 -3.65 4.8 Q-4.1 4.8 -4.4 4.5 L-4.7 3.85 -5.05 3.9 -5.7 3.65 -5.95 3.1 -6.25 3.15 -6.9 2.9 -7.15 2.45 -7.3 2.45 -7.95 2.2 -8.2 1.7 -8.25 1.7 -8.9 1.45 -9.15 0.8 -9.15 0.75 -9.7 0.5 -9.95 -0.15 -9.95 -0.35 -10.4 -0.6 -10.65 -1.25 -10.55 -1.65 -10.85 -1.85 -11.0 -2.1 -11.1 -2.5 -11.05 -2.85 -11.15 -3.0 -11.05 -2.85 -11.1 -2.5 -11.0 -2.1 M18.4 -3.05 L18.25 -3.2 17.85 -2.9 17.85 -2.7 Q17.75 -2.15 18.35 -2.35 19.5 -2.75 18.4 -3.05 M18.2 -1.0 Q17.85 -0.9 17.85 -0.5 L17.9 -0.5 Q18.75 -0.4 18.2 -1.0 M6.3 10.65 L6.3 10.7 6.35 10.65 6.8 10.95 6.95 11.05 7.0 11.05 7.0 11.1 7.05 11.15 7.85 11.55 8.4 11.7 10.55 11.5 10.85 11.3 11.7 10.7 Q12.75 9.6 14.2 9.0 L14.3 8.85 14.35 8.95 14.4 8.95 14.4 9.15 14.55 9.55 14.65 10.15 15.1 11.3 15.05 11.3 15.1 11.35 15.25 11.6 15.2 11.55 16.3 12.85 16.75 13.2 16.85 13.1 17.0 13.25 17.35 13.45 Q18.9 13.75 20.2 14.4 L20.2 14.35 21.45 14.35 22.3 14.2 25.0 13.3 25.05 13.25 26.05 12.65 25.05 13.25 25.0 13.3 22.3 14.2 21.45 14.35 20.2 14.35 20.2 14.4 Q18.9 13.75 17.35 13.45 L17.0 13.25 16.85 13.1 16.75 13.2 16.3 12.85 15.2 11.55 15.25 11.6 15.1 11.35 15.05 11.3 15.1 11.3 14.65 10.15 14.55 9.55 14.4 9.15 14.4 8.95 14.35 8.95 14.3 8.85 14.2 9.0 Q12.75 9.6 11.7 10.7 L10.85 11.3 10.55 11.5 8.4 11.7 7.85 11.55 7.05 11.15 7.0 11.1 7.0 11.05 6.95 11.05 6.8 10.95 6.35 10.65 6.3 10.7 6.3 10.65 6.25 10.65 5.0 9.6 4.4 8.85 4.3 8.85 4.05 8.85 3.75 8.9 3.7 8.9 3.05 9.65 1.9 10.65 1.65 10.85 4.4 11.35 6.3 10.65 M7.05 11.15 L7.1 11.15 6.1 11.65 6.0 11.7 5.95 11.85 5.85 12.55 5.95 11.85 6.0 11.7 6.1 11.65 7.1 11.15 7.05 11.15 M16.45 1.0 L16.5 1.1 Q17.45 1.35 16.9 0.85 17.5 0.5 16.4 0.0 15.65 0.2 16.05 0.85 L16.4 1.0 16.45 1.0 M15.85 1.2 L15.45 0.75 Q15.1 0.8 15.0 1.15 L15.0 1.35 15.05 1.65 15.25 1.9 15.3 2.0 Q16.0 2.25 15.75 1.8 16.3 1.6 15.85 1.2 M13.65 2.8 L13.2 2.25 13.0 2.35 Q12.6 2.45 12.65 2.9 12.7 3.2 12.9 3.2 L13.05 3.2 13.05 3.25 Q13.7 3.8 13.35 3.2 13.85 3.1 13.65 2.8 M14.75 1.85 L14.6 1.7 14.45 1.6 14.3 1.55 Q13.95 1.65 13.95 2.0 L13.95 2.05 14.0 2.5 Q14.1 2.8 14.3 2.75 15.4 2.45 14.75 1.85 M11.8 2.95 L11.75 2.9 Q11.05 3.1 11.35 3.8 L11.7 4.0 11.75 4.05 Q12.5 4.2 12.25 3.85 12.65 3.65 12.4 3.35 L11.95 2.85 11.8 2.95 M10.9 4.0 L10.25 3.7 Q10.0 3.75 10.0 3.95 9.8 4.15 9.85 4.5 9.9 4.95 10.25 4.9 L10.25 4.95 Q11.05 5.3 10.75 4.75 11.45 4.45 10.9 4.0 M8.45 15.4 L8.75 15.8 Q8.95 16.1 9.05 15.9 L9.15 15.65 9.2 15.65 Q9.0 16.15 10.55 15.85 12.2 15.5 13.0 14.5 L13.1 14.45 13.8 14.2 13.9 14.15 Q15.05 12.6 13.3 10.75 L13.1 11.1 13.1 11.0 Q11.5 12.0 9.5 12.0 9.1 12.0 8.95 12.25 L8.75 12.75 8.65 12.6 Q7.9 13.25 7.95 14.0 7.9 14.25 8.0 14.5 L8.2 14.65 8.45 15.25 8.45 15.4 8.4 15.5 8.35 15.5 8.2 15.35 8.35 15.5 8.4 15.5 8.45 15.4 M7.6 14.95 L7.65 15.2 7.8 15.4 8.2 15.35 Q8.5 15.15 7.9 14.55 7.6 14.7 7.6 14.95 M6.4 5.65 L6.1 5.2 5.75 5.4 Q5.0 5.75 5.4 6.55 L5.55 6.75 5.6 6.75 5.65 6.8 Q6.35 7.15 6.05 6.75 7.1 6.1 6.4 5.65 M7.8 5.95 Q8.9 5.15 7.6 4.8 L7.4 4.65 7.1 4.95 Q6.75 5.25 7.1 5.9 L7.3 6.05 Q7.2 6.2 7.4 6.25 8.35 6.5 7.8 5.95 M0.7 5.85 L0.5 6.0 Q0.4 6.25 0.55 6.25 1.55 6.45 0.7 5.85 M0.25 5.3 Q0.05 5.75 0.55 5.75 2.1 5.65 0.9 4.8 L0.75 4.65 Q0.3 4.75 0.25 5.25 L0.25 5.3 M1.85 5.5 Q1.6 5.65 1.6 6.05 1.6 6.7 2.25 6.5 L2.2 6.55 Q1.95 6.75 2.2 6.85 3.05 7.2 2.4 6.45 3.55 6.0 2.2 5.35 L2.15 5.4 2.1 5.35 1.85 5.5 M4.75 6.2 L4.1 5.7 3.85 5.9 Q3.65 5.95 3.6 6.1 L3.5 6.4 Q3.35 6.4 3.3 6.55 3.2 6.8 3.4 6.85 L3.6 6.9 3.6 6.95 Q3.8 7.4 4.25 7.15 5.1 6.6 4.75 6.2 M4.15 11.85 L5.6 11.95 5.7 11.9 Q4.0 11.1 1.95 11.05 L1.85 11.15 2.6 11.45 Q2.95 11.95 4.1 12.0 L4.2 11.9 4.15 11.85 M2.55 12.2 L2.35 12.25 2.25 12.4 Q3.0 12.95 2.55 12.2 M6.1 11.35 Q6.6 11.25 6.1 10.75 5.5 10.9 5.45 11.35 L6.1 11.35 M7.7 13.45 L7.75 13.15 7.5 12.55 6.9 12.3 6.85 12.3 6.8 12.3 6.5 12.45 6.45 12.45 7.05 12.7 6.8 13.2 Q6.75 13.45 6.95 13.45 L7.4 13.4 7.35 13.7 7.4 13.7 7.7 13.45 7.5 13.75 6.9 14.0 6.3 13.75 6.2 13.6 5.9 13.75 6.2 13.6 6.3 13.75 6.9 14.0 7.5 13.75 7.7 13.45 M5.9 13.85 L5.9 13.75 5.8 13.8 5.75 13.85 5.9 13.85 M8.0 14.5 L7.6 14.4 7.55 14.4 7.6 14.4 8.0 14.5 M6.2 12.65 L6.25 12.6 6.3 12.55 Q6.5 12.35 6.8 12.3 6.5 12.35 6.3 12.55 L6.25 12.6 6.2 12.65 5.85 12.85 5.85 12.8 Q5.25 13.05 4.75 13.5 L5.3 13.65 Q6.75 13.35 6.2 12.65 M5.4 15.35 Q5.2 15.35 5.3 15.45 6.4 16.25 7.35 15.25 L7.35 15.2 7.15 15.05 5.4 15.35 M5.9 16.85 L5.8 16.4 Q5.6 15.9 4.85 15.55 L4.2 15.2 3.9 15.3 Q3.7 15.4 3.85 15.5 4.65 16.3 4.95 17.45 5.1 18.25 5.55 18.85 5.7 19.05 5.75 18.85 6.15 17.7 5.9 16.85 M2.25 14.55 L2.15 14.6 2.05 14.8 2.1 14.85 2.4 14.9 2.4 14.85 Q2.55 14.6 2.25 14.55 M2.75 17.45 L2.65 18.05 2.6 18.35 2.7 18.85 Q3.7 20.1 3.55 18.5 3.5 18.15 3.6 17.85 3.85 16.75 3.35 16.05 2.9 16.65 2.75 17.45 M3.8 21.35 L3.75 21.05 3.75 21.0 3.6 20.55 3.45 20.3 3.35 20.6 3.25 21.0 3.2 21.7 3.2 22.0 3.25 22.35 3.25 22.4 3.35 22.45 3.6 22.15 3.8 21.6 3.8 21.35 M5.0 21.15 L5.3 21.9 5.35 21.95 5.35 21.9 5.4 21.8 5.6 21.2 5.6 20.65 Q5.55 20.0 5.15 19.4 L5.1 19.4 Q4.9 20.0 4.95 20.55 L5.0 21.1 5.0 21.15 M-10.1 -4.1 L-10.25 -4.25 -10.75 -4.0 Q-11.0 -3.7 -10.7 -3.65 -9.9 -3.5 -9.85 -3.65 -9.7 -3.65 -10.0 -4.15 L-10.1 -4.1 M-10.25 -2.35 Q-8.95 -2.4 -10.05 -3.2 -10.55 -3.2 -10.65 -2.75 L-10.65 -2.55 -10.6 -2.4 Q-10.0 -1.95 -10.25 -2.35 M-9.8 -1.7 L-10.0 -1.55 Q-10.15 -1.35 -9.95 -1.3 -8.75 -1.05 -9.2 -1.55 L-9.55 -2.0 -9.8 -1.8 -9.8 -1.7 M-9.15 -0.15 L-9.25 -0.1 -9.35 0.05 Q-8.7 0.6 -9.15 -0.15 M-10.0 -1.2 L-10.1 -1.0 Q-9.4 -0.45 -9.95 -1.2 L-10.0 -1.2 M-9.1 -0.7 L-9.3 -0.45 Q-9.45 -0.25 -9.25 -0.2 -7.8 0.1 -8.8 -0.8 L-8.9 -0.8 -9.1 -0.7 M-5.15 3.15 Q-3.7 3.05 -4.9 2.25 L-5.05 2.3 -5.2 2.2 Q-5.5 2.25 -5.45 2.55 L-5.4 2.7 -5.45 2.9 -5.3 3.15 -5.35 3.3 Q-4.5 3.85 -5.15 3.15 M-3.65 3.95 Q-2.65 3.75 -3.3 3.3 L-3.65 2.9 -3.95 3.2 -4.05 3.4 -4.1 3.5 -4.2 3.7 -3.95 3.95 -3.8 3.95 -3.85 4.0 -3.9 4.25 Q-3.0 4.55 -3.65 3.95 M-2.6 4.1 L-2.65 4.35 -2.4 4.6 -2.25 4.6 Q-1.0 4.55 -2.1 3.7 L-2.2 3.75 -2.3 3.65 -2.6 3.95 -2.6 4.1 M-2.25 4.6 Q-2.45 4.6 -2.55 4.85 L-2.45 5.05 Q-1.5 5.3 -2.25 4.6 M-0.25 4.7 Q-0.25 4.55 -0.9 4.3 L-1.15 4.6 -1.25 5.05 -1.0 5.4 -1.05 5.45 -0.95 5.65 Q0.0 5.85 -0.65 5.3 0.1 5.05 -0.25 4.7 M-7.1 0.95 L-7.3 0.7 -7.6 1.0 -7.6 1.1 -7.75 1.55 -7.65 1.8 -7.7 1.9 Q-6.9 2.35 -7.3 1.85 -6.1 1.6 -7.1 0.95 M-8.0 0.2 L-8.1 0.0 -8.35 0.1 -8.4 0.2 -8.6 0.45 Q-8.7 0.75 -8.4 0.75 -7.15 0.85 -8.0 0.2 M-8.5 0.85 L-8.6 0.9 -8.65 1.1 Q-7.9 1.65 -8.5 0.85" fill="#371200" fill-rule="evenodd" stroke="none"/>
      <path d="M18.5 -4.3 L18.6 -4.3 19.05 -3.75 18.95 -3.85 18.8 -3.8 18.45 -4.25 18.2 -4.1 18.3 -4.2 18.5 -4.3 M18.1 -3.95 L18.15 -3.9 18.75 -3.75 18.65 -3.6 18.65 -3.55 18.4 -3.55 Q18.05 -3.5 18.1 -3.9 L18.1 -3.95 M17.7 -1.7 L17.6 -1.55 Q17.5 -1.35 17.65 -1.35 18.5 -1.05 17.95 -1.85 L18.15 -1.9 Q19.3 -1.0 17.7 -1.1 17.35 -1.15 17.5 -1.5 L17.7 -1.7 M17.2 -0.8 L17.3 -0.8 17.8 -0.25 17.7 -0.35 Q17.5 -0.35 17.45 -0.15 L17.05 -0.2 16.85 -0.35 Q17.8 -0.15 17.2 -0.8 M18.4 -3.05 Q19.5 -2.75 18.35 -2.35 17.75 -2.15 17.85 -2.7 L17.95 -2.65 Q19.05 -2.4 18.4 -3.05 M16.9 0.85 L16.8 0.75 16.75 0.75 16.45 1.0 16.4 1.0 16.05 0.85 Q15.65 0.2 16.4 0.0 17.5 0.5 16.9 0.85 M16.0 0.35 L16.1 0.55 Q17.35 0.75 16.3 0.05 L16.0 0.35 M15.0 1.35 L15.2 1.5 Q16.0 1.5 15.85 1.2 16.3 1.6 15.75 1.8 L15.6 1.6 Q15.4 1.6 15.3 1.8 L15.25 1.9 15.05 1.65 15.0 1.35 M13.0 2.35 L12.85 2.6 Q12.8 2.9 13.05 2.9 L13.65 2.8 Q13.85 3.1 13.35 3.2 L13.25 3.05 13.15 3.1 13.05 3.2 12.9 3.2 Q12.7 3.2 12.65 2.9 12.6 2.45 13.0 2.35 M14.75 1.85 Q15.4 2.45 14.3 2.75 14.1 2.8 14.0 2.5 L13.95 2.05 14.1 2.25 Q15.0 2.15 14.75 1.85 M11.7 4.0 L11.35 3.8 Q11.05 3.1 11.75 2.9 L11.8 2.95 11.55 3.25 Q11.45 3.45 11.6 3.5 12.55 3.75 12.4 3.35 12.65 3.65 12.25 3.85 L12.05 3.6 Q11.85 3.65 11.75 3.85 L11.7 4.0 M10.0 3.95 L9.95 4.1 10.3 4.35 10.9 4.0 Q11.45 4.45 10.75 4.75 L10.6 4.55 Q10.4 4.6 10.3 4.8 L10.25 4.9 Q9.9 4.95 9.85 4.5 9.8 4.15 10.0 3.95 M2.3 15.45 L2.5 15.55 2.2 15.75 2.15 15.4 2.2 15.45 2.3 15.45 M1.8 15.85 Q1.15 15.85 0.4 15.3 0.05 15.05 0.5 14.85 L1.0 15.0 1.05 15.0 1.05 15.05 1.15 15.05 Q1.05 15.45 1.8 15.85 M0.15 14.4 L0.5 14.55 0.5 14.6 Q0.1 14.7 -0.05 15.0 L-0.15 14.85 -0.45 15.15 -0.35 15.4 -0.1 15.5 -0.2 15.7 -0.6 15.55 -0.65 15.25 -0.4 14.65 0.15 14.4 M6.4 5.65 Q7.1 6.1 6.05 6.75 L5.8 6.5 5.65 6.55 5.55 6.75 5.4 6.55 Q5.0 5.75 5.75 5.4 L5.65 5.55 Q5.55 5.8 5.75 5.85 6.7 6.15 6.4 5.65 M7.8 5.95 L7.65 5.8 7.45 5.85 7.3 6.05 7.1 5.9 Q6.75 5.25 7.1 4.95 L6.95 5.35 Q6.9 5.65 7.15 5.6 8.45 5.5 7.6 4.8 8.9 5.15 7.8 5.95 M9.5 4.7 L9.05 4.25 Q8.95 4.25 8.9 4.35 L8.75 4.5 Q8.55 4.85 8.95 4.85 L9.5 4.7 Q9.8 5.05 9.35 5.35 9.55 5.65 8.95 5.55 L8.85 5.5 8.85 5.35 9.15 5.1 9.35 5.35 9.15 5.1 8.85 5.35 8.85 5.5 8.95 5.55 Q9.55 5.65 9.35 5.35 9.8 5.05 9.5 4.7 M8.9 4.35 Q8.2 4.55 8.65 5.3 L8.95 5.55 8.65 5.3 Q8.2 4.55 8.9 4.35 M0.25 5.3 L0.45 5.5 Q1.5 5.4 0.9 4.8 2.1 5.65 0.55 5.75 0.05 5.75 0.25 5.3 M1.85 5.5 L1.75 5.75 Q1.7 6.05 1.9 6.05 3.05 6.0 2.15 5.4 L2.2 5.35 Q3.55 6.0 2.4 6.45 L2.25 6.5 Q1.6 6.7 1.6 6.05 1.6 5.65 1.85 5.5 M3.85 5.9 L3.75 6.1 Q3.7 6.45 4.0 6.4 L4.75 6.2 Q5.1 6.6 4.25 7.15 3.8 7.4 3.6 6.95 L3.6 6.9 Q4.45 7.1 3.6 6.35 L3.5 6.4 3.6 6.1 Q3.65 5.95 3.85 5.9 M2.6 11.45 L1.85 11.15 1.95 11.05 Q4.0 11.1 5.7 11.9 L5.6 11.95 4.15 11.85 Q3.65 11.2 2.5 11.25 L2.6 11.45 M2.55 12.2 Q3.0 12.95 2.25 12.4 L2.35 12.25 2.55 12.2 M6.1 11.35 L5.95 11.1 5.85 11.1 6.1 11.35 5.45 11.35 Q5.5 10.9 6.1 10.75 6.6 11.25 6.1 11.35 M6.8 12.3 L6.85 12.3 6.9 12.3 7.5 12.55 7.75 13.15 7.7 13.45 7.4 13.7 7.35 13.7 7.4 13.4 Q7.9 13.2 7.2 12.55 L7.05 12.7 6.45 12.45 6.5 12.45 6.8 12.3 M6.2 12.65 Q6.75 13.35 5.3 13.65 L4.75 13.5 Q5.25 13.05 5.85 12.8 L5.85 12.85 6.2 12.65 M3.55 13.6 L5.65 14.1 Q4.95 14.7 3.65 14.4 L1.5 13.85 Q0.4 13.55 1.0 13.0 L1.85 13.2 1.95 13.25 3.55 13.6 M1.05 12.7 L0.65 13.15 0.45 12.7 Q0.1 12.8 0.0 13.2 L0.05 13.4 0.2 13.4 Q0.0 13.5 0.15 13.65 L0.05 13.6 -0.05 13.8 -0.15 13.75 Q-0.4 13.0 0.2 12.65 L0.2 12.75 0.6 12.55 0.7 12.55 0.8 12.6 0.9 12.6 1.05 12.7 M5.4 15.35 L7.15 15.05 7.35 15.2 7.35 15.25 Q6.4 16.25 5.3 15.45 5.2 15.35 5.4 15.35 M4.85 15.55 L4.7 15.5 4.55 15.55 Q4.45 15.55 4.4 15.65 L5.5 17.55 Q5.55 17.75 5.65 17.6 L5.9 16.85 Q6.15 17.7 5.75 18.85 5.7 19.05 5.55 18.85 5.1 18.25 4.95 17.45 4.65 16.3 3.85 15.5 3.7 15.4 3.9 15.3 L4.2 15.2 4.85 15.55 M4.6 14.45 L4.65 14.4 2.2 13.5 Q1.85 13.6 2.2 13.8 3.3 14.5 4.6 14.45 M2.25 14.55 Q2.55 14.6 2.4 14.85 L2.4 14.9 2.1 14.85 2.05 14.8 2.15 14.6 2.25 14.55 M2.75 17.45 Q2.9 16.65 3.35 16.05 3.85 16.75 3.6 17.85 3.5 18.15 3.55 18.5 3.7 20.1 2.7 18.85 L2.6 18.35 2.65 18.05 2.7 18.65 Q2.8 18.9 2.9 18.75 4.0 17.85 3.25 16.7 2.85 17.0 2.75 17.45 M3.8 21.35 L3.75 21.3 3.65 21.25 3.6 21.25 Q3.45 21.55 3.7 21.7 L3.75 21.65 3.8 21.6 3.6 22.15 3.35 22.45 3.25 22.4 3.25 22.35 3.2 22.0 3.2 21.7 3.25 21.0 3.35 20.6 3.45 20.3 3.6 20.55 3.75 21.0 3.75 21.05 3.8 21.35 M5.0 21.15 L5.0 21.1 4.95 20.55 Q4.9 20.0 5.1 19.4 L5.15 19.4 Q5.55 20.0 5.6 20.65 L5.6 21.2 5.4 21.8 5.35 21.9 5.35 21.95 5.3 21.9 5.0 21.15 M5.55 20.65 L5.3 20.2 5.25 20.25 5.15 20.6 Q5.05 20.95 5.45 21.15 L5.45 21.1 5.55 20.65 M-9.85 -3.65 Q-9.9 -3.5 -10.7 -3.65 -11.0 -3.7 -10.75 -4.0 L-10.25 -4.25 -10.1 -4.1 -10.15 -4.1 -10.2 -3.9 -9.85 -3.65 M-10.35 -2.9 L-10.3 -2.7 Q-9.35 -2.5 -10.1 -3.15 L-10.35 -2.9 M-10.65 -2.55 L-10.65 -2.75 Q-10.55 -3.2 -10.05 -3.2 -8.95 -2.4 -10.25 -2.35 L-10.45 -2.65 -10.5 -2.65 -10.65 -2.55 M-9.2 -1.55 Q-8.75 -1.05 -9.95 -1.3 -10.15 -1.35 -10.0 -1.55 L-9.8 -1.7 -9.8 -1.6 -9.2 -1.55 M-8.9 -0.8 L-8.8 -0.8 Q-7.8 0.1 -9.25 -0.2 -9.45 -0.25 -9.3 -0.45 L-9.1 -0.7 -9.15 -0.6 -9.15 -0.45 Q-8.1 -0.25 -8.9 -0.8 M-5.05 2.3 L-4.9 2.25 Q-3.7 3.05 -5.15 3.15 L-5.2 3.1 -5.3 3.15 -5.45 2.9 -5.4 2.7 -5.3 2.8 Q-4.35 2.75 -5.05 2.3 M-3.3 3.3 Q-2.65 3.75 -3.65 3.95 L-3.7 3.9 -3.8 3.95 -3.95 3.95 -4.2 3.7 -4.1 3.5 -4.0 3.7 Q-3.15 3.65 -3.3 3.3 M-2.25 4.6 L-2.4 4.6 -2.65 4.35 -2.6 4.1 -2.5 4.2 Q-1.3 4.4 -2.2 3.75 L-2.1 3.7 Q-1.0 4.55 -2.25 4.6 M-0.25 4.7 Q0.1 5.05 -0.65 5.3 L-0.8 5.2 -1.0 5.4 -1.25 5.05 -1.15 4.6 -1.15 4.65 -0.9 4.9 -0.25 4.7 M-7.6 1.1 L-7.55 1.25 Q-6.6 1.5 -7.1 0.95 -6.1 1.6 -7.3 1.85 L-7.45 1.7 -7.5 1.7 -7.65 1.8 -7.75 1.55 -7.6 1.1 M-6.5 2.5 L-6.65 2.2 -6.45 1.75 -6.45 1.7 -6.15 1.5 -6.0 1.6 Q-5.35 2.15 -6.4 1.95 -6.6 1.95 -6.45 1.75 -6.6 1.95 -6.4 1.95 -5.35 2.15 -6.0 1.6 L-6.15 1.5 -6.45 1.7 -6.45 1.75 -6.65 2.2 -6.5 2.5 -6.45 2.75 Q-5.65 3.0 -6.15 2.5 L-6.3 2.35 -6.45 2.45 -6.5 2.5 M-6.0 1.6 Q-5.0 2.25 -6.15 2.5 -5.0 2.25 -6.0 1.6 M-8.0 0.2 Q-7.15 0.85 -8.4 0.75 -8.7 0.75 -8.6 0.45 L-8.4 0.2 -8.35 0.35 Q-7.65 0.85 -8.0 0.2" fill="#ffbe46" fill-rule="evenodd" stroke="none"/>
      <path d="M18.2 -4.1 L18.45 -4.25 18.8 -3.8 18.95 -3.85 19.05 -3.75 Q19.65 -3.15 18.7 -3.4 18.55 -3.4 18.65 -3.55 L18.65 -3.6 18.75 -3.75 18.15 -3.9 18.1 -3.95 18.15 -4.1 18.2 -4.1 M17.95 -1.85 Q18.5 -1.05 17.65 -1.35 17.5 -1.35 17.6 -1.55 L17.7 -1.7 17.95 -1.85 M16.85 -0.35 L16.8 -0.35 Q16.65 -0.4 16.75 -0.6 L17.1 -0.9 17.2 -0.8 Q17.8 -0.15 16.85 -0.35 M17.8 -0.25 Q18.2 0.4 17.4 0.1 L17.4 -0.15 17.45 -0.15 Q17.5 -0.35 17.7 -0.35 L17.8 -0.25 M14.0 7.6 L13.75 6.55 13.7 6.5 Q13.4 7.2 13.6 8.0 L13.45 7.95 Q12.8 7.8 12.7 7.05 L13.4 4.6 15.75 3.35 15.75 3.3 16.05 3.2 16.75 2.7 17.6 1.7 19.3 2.25 20.3 3.25 Q15.95 3.55 14.0 7.6 M7.75 10.8 L6.9 10.45 6.45 10.15 5.65 9.55 5.2 9.0 5.15 9.0 4.85 8.5 4.8 8.45 4.75 8.4 4.8 8.3 5.1 8.25 5.5 8.15 6.45 7.85 8.4 6.9 Q8.45 7.65 9.15 8.3 L9.25 8.35 Q9.1 7.55 8.6 6.8 L8.9 6.7 10.9 7.9 12.15 9.05 12.15 9.1 11.5 10.1 11.55 10.35 10.5 10.7 9.75 9.85 10.4 10.75 9.05 10.9 7.75 10.8 M10.2 7.0 L9.4 6.5 9.35 6.45 12.7 4.85 13.1 4.7 13.1 4.75 Q12.9 5.05 12.85 5.35 L12.7 5.95 12.65 5.95 12.6 6.05 12.35 6.15 Q11.15 6.55 10.2 7.0 M17.85 -2.7 L17.85 -2.9 18.25 -3.2 18.4 -3.05 Q19.05 -2.4 17.95 -2.65 L17.85 -2.7 M18.2 -1.0 Q18.75 -0.4 17.9 -0.5 L17.85 -0.5 Q17.85 -0.9 18.2 -1.0 M22.65 -0.45 L22.45 -0.45 22.55 -0.3 22.65 -0.45 M20.85 4.5 L20.8 4.45 20.85 4.45 20.9 4.5 21.05 4.55 21.75 4.9 23.25 6.4 23.95 7.9 23.65 7.35 22.75 6.05 22.55 5.85 22.5 5.8 21.6 4.95 20.95 4.55 20.85 4.5 M19.6 4.6 L19.25 4.7 19.1 4.75 19.05 4.75 19.35 4.6 19.55 4.55 19.6 4.6 M23.7 3.8 L23.85 4.0 24.0 4.4 24.05 5.0 Q24.0 6.05 23.1 4.9 22.1 3.7 22.85 2.9 L23.7 3.8 M25.1 4.7 Q27.1 7.0 25.65 9.75 L25.35 10.0 25.05 10.1 24.7 9.8 24.8 7.05 25.1 6.85 25.1 6.75 Q25.1 6.7 25.25 6.65 L25.0 4.8 25.1 4.7 M25.0 11.45 L25.45 11.15 Q26.0 10.85 26.15 10.2 L26.65 8.85 Q27.55 9.7 26.75 10.9 L25.55 12.1 25.1 12.4 24.8 12.55 Q23.65 13.2 22.55 12.85 22.85 11.75 23.95 11.5 L24.5 11.35 25.0 11.45 M16.45 1.0 L16.75 0.75 16.8 0.75 16.9 0.85 Q17.45 1.35 16.5 1.1 L16.45 1.0 M16.0 0.35 L16.3 0.05 Q17.35 0.75 16.1 0.55 L16.0 0.35 M15.85 1.2 Q16.0 1.5 15.2 1.5 L15.0 1.35 15.0 1.15 Q15.1 0.8 15.45 0.75 L15.85 1.2 M15.25 1.9 L15.3 1.8 Q15.4 1.6 15.6 1.6 L15.75 1.8 Q16.0 2.25 15.3 2.0 L15.25 1.9 M18.9 3.85 L19.0 3.8 19.05 3.8 18.9 3.85 M17.2 6.75 L16.45 7.95 16.45 7.85 Q16.7 6.6 17.75 5.8 L17.85 5.75 17.2 6.75 M13.0 2.35 L13.2 2.25 13.65 2.8 13.05 2.9 Q12.8 2.9 12.85 2.6 L13.0 2.35 M13.35 3.2 Q13.7 3.8 13.05 3.25 L13.05 3.2 13.15 3.1 13.25 3.05 13.35 3.2 M14.6 1.7 L14.75 1.85 Q15.0 2.15 14.1 2.25 L13.95 2.05 13.95 2.0 Q13.95 1.65 14.3 1.55 L14.45 1.6 14.6 1.7 M11.8 2.95 L11.95 2.85 12.4 3.35 Q12.55 3.75 11.6 3.5 11.45 3.45 11.55 3.25 L11.8 2.95 M12.25 3.85 Q12.5 4.2 11.75 4.05 L11.7 4.0 11.75 3.85 Q11.85 3.65 12.05 3.6 L12.25 3.85 M10.0 3.95 Q10.0 3.75 10.25 3.7 L10.9 4.0 10.3 4.35 9.95 4.1 10.0 3.95 M10.75 4.75 Q11.05 5.3 10.25 4.95 L10.25 4.9 10.3 4.8 Q10.4 4.6 10.6 4.55 L10.75 4.75 M13.2 4.65 L13.25 4.65 13.2 4.7 13.2 4.65 M8.2 15.35 L7.8 15.4 7.65 15.2 7.6 14.95 Q7.6 14.7 7.9 14.55 8.5 15.15 8.2 15.35 M2.2 15.75 L2.2 15.8 1.95 15.9 1.8 15.85 Q1.05 15.45 1.15 15.05 L1.2 15.05 1.65 15.15 2.05 15.35 2.15 15.4 2.2 15.75 M-0.05 15.0 Q0.45 15.6 -0.1 15.5 L-0.35 15.4 -0.45 15.15 -0.15 14.85 -0.05 15.0 M5.75 5.4 L6.1 5.2 6.4 5.65 Q6.7 6.15 5.75 5.85 5.55 5.8 5.65 5.55 L5.75 5.4 M6.05 6.75 Q6.35 7.15 5.65 6.8 L5.6 6.75 5.55 6.75 5.65 6.55 5.8 6.5 6.05 6.75 M7.3 6.05 L7.45 5.85 7.65 5.8 7.8 5.95 Q8.35 6.5 7.4 6.25 7.2 6.2 7.3 6.05 M7.6 4.8 Q8.45 5.5 7.15 5.6 6.9 5.65 6.95 5.35 L7.1 4.95 7.4 4.65 7.6 4.8 M8.9 4.35 Q8.95 4.25 9.05 4.25 L9.5 4.7 8.95 4.85 Q8.55 4.85 8.75 4.5 L8.9 4.35 M0.7 5.85 Q1.55 6.45 0.55 6.25 0.4 6.25 0.5 6.0 L0.7 5.85 M0.9 4.8 Q1.5 5.4 0.45 5.5 L0.25 5.3 0.25 5.25 Q0.3 4.75 0.75 4.65 L0.9 4.8 M2.15 5.4 Q3.05 6.0 1.9 6.05 1.7 6.05 1.75 5.75 L1.85 5.5 2.1 5.35 2.15 5.4 M2.25 6.5 L2.4 6.45 Q3.05 7.2 2.2 6.85 1.95 6.75 2.2 6.55 L2.25 6.5 M4.75 6.2 L4.0 6.4 Q3.7 6.45 3.75 6.1 L3.85 5.9 4.1 5.7 4.75 6.2 M3.5 6.4 L3.6 6.35 Q4.45 7.1 3.6 6.9 L3.4 6.85 Q3.2 6.8 3.3 6.55 3.35 6.4 3.5 6.4 M-2.75 7.9 L-0.7 6.7 -0.45 6.8 Q-0.95 7.55 -1.1 8.35 L-1.0 8.3 Q-0.3 7.65 -0.25 6.9 L1.7 7.85 2.65 8.15 3.05 8.25 3.35 8.3 3.4 8.4 3.35 8.45 3.35 8.5 3.0 9.0 2.35 9.65 1.75 10.15 1.25 10.45 1.2 10.5 0.85 10.65 0.65 10.7 0.4 10.8 0.25 10.8 -0.9 10.9 -2.25 10.75 -1.6 9.85 -2.3 10.7 -3.4 10.35 -3.35 10.1 -4.0 9.1 -4.0 9.05 -2.75 7.9 M-5.45 8.0 Q-5.25 7.2 -5.55 6.5 L-5.6 6.55 -5.85 7.6 Q-7.8 3.55 -12.15 3.25 L-11.15 2.25 -9.4 1.7 -8.6 2.7 -7.85 3.2 -7.6 3.3 -7.55 3.35 -5.25 4.6 -4.5 7.05 Q-4.65 7.8 -5.3 7.95 L-5.45 8.0 M-13.2 2.85 Q-13.55 2.05 -14.05 1.8 L-14.15 1.7 Q-14.55 0.85 -15.45 1.0 L-15.2 1.9 -15.2 1.95 -15.35 2.15 -15.35 2.2 Q-15.95 2.15 -16.0 1.5 L-16.05 1.3 -16.05 1.25 Q-16.2 0.45 -15.95 -0.15 L-15.9 -0.2 -15.35 -0.85 -15.05 -1.05 -14.85 -0.85 -14.45 -1.3 -13.95 -1.45 Q-13.4 -1.55 -12.95 -1.95 -12.3 -2.5 -11.35 -2.5 L-11.3 -2.3 Q-11.95 -1.25 -12.1 0.05 L-12.05 0.1 Q-11.5 -0.55 -11.25 -1.3 L-11.25 -1.2 -11.2 -1.0 -10.6 0.2 -9.65 1.4 -10.65 1.6 -11.7 -0.3 -12.55 0.7 -13.45 1.7 -13.2 2.8 -13.2 2.85 M-4.5 5.95 L-4.65 5.35 -4.9 4.75 -4.95 4.7 -4.5 4.85 -1.15 6.45 -1.25 6.5 -2.0 7.0 -4.2 6.15 -4.45 6.05 -4.5 5.95 M3.05 9.65 L3.7 8.9 3.75 8.9 4.05 8.85 4.3 8.85 4.4 8.85 5.0 9.6 6.25 10.65 Q3.95 11.05 1.9 10.65 L3.05 9.65 3.8 9.6 4.0 9.6 4.15 9.6 4.0 9.6 3.8 9.6 3.05 9.65 M4.15 11.85 L4.2 11.9 4.1 12.0 Q2.95 11.95 2.6 11.45 L2.5 11.25 Q3.65 11.2 4.15 11.85 M3.45 10.0 L3.6 10.1 Q5.15 10.05 3.75 9.65 L3.55 9.75 3.45 9.85 3.45 10.0 Q3.4 10.7 4.35 10.25 5.4 9.75 4.15 9.6 L5.0 9.6 4.15 9.6 Q5.4 9.75 4.35 10.25 3.4 10.7 3.45 10.0 L3.45 9.85 3.55 9.75 Q3.6 9.6 3.8 9.6 3.6 9.6 3.55 9.75 L3.75 9.65 Q5.15 10.05 3.6 10.1 L3.45 10.0 M6.1 11.35 L5.85 11.1 5.95 11.1 6.1 11.35 M0.65 13.15 L0.2 13.4 0.05 13.4 0.0 13.2 Q0.1 12.8 0.45 12.7 L0.65 13.15 M7.4 13.4 L6.95 13.45 Q6.75 13.45 6.8 13.2 L7.05 12.7 7.2 12.55 Q7.9 13.2 7.4 13.4 M4.85 15.55 Q5.6 15.9 5.8 16.4 L5.9 16.85 5.65 17.6 Q5.55 17.75 5.5 17.55 L4.4 15.65 Q4.45 15.55 4.55 15.55 L4.7 15.5 4.85 15.55 M6.8 19.05 Q7.3 19.6 7.4 20.45 L7.45 20.7 Q6.95 20.65 6.55 20.4 L6.8 19.05 M4.6 14.45 Q3.3 14.5 2.2 13.8 1.85 13.6 2.2 13.5 L4.65 14.4 4.6 14.45 M2.65 18.05 L2.75 17.45 Q2.85 17.0 3.25 16.7 4.0 17.85 2.9 18.75 2.8 18.9 2.7 18.65 L2.65 18.05 M3.8 21.6 L3.75 21.65 3.7 21.7 Q3.45 21.55 3.6 21.25 L3.65 21.25 3.75 21.3 3.8 21.35 3.8 21.6 M1.1 21.1 L1.45 21.4 1.5 21.4 Q1.75 20.85 2.5 21.2 2.5 22.55 1.6 22.15 L1.55 22.05 1.25 22.1 1.05 22.4 1.0 22.45 0.8 22.05 0.6 22.1 0.3 22.35 0.2 22.4 Q-0.2 21.9 0.45 21.6 L0.55 21.25 0.65 21.15 1.1 21.1 M2.05 18.95 L2.4 20.5 2.4 20.55 0.5 20.7 1.2 19.85 2.05 18.95 M5.55 20.65 L5.45 21.1 5.45 21.15 Q5.05 20.95 5.15 20.6 L5.25 20.25 5.3 20.2 5.55 20.65 M7.15 20.95 Q7.65 21.45 7.35 22.2 L7.35 22.25 Q6.65 21.8 7.1 21.0 L7.15 20.95 M6.3 22.15 Q5.8 21.6 6.5 21.0 7.0 21.55 6.4 22.1 L6.3 22.15 M19.25 13.25 L19.8 13.55 19.8 13.6 Q19.2 13.65 19.25 13.25 M-9.85 -3.65 L-10.2 -3.9 -10.15 -4.1 -10.1 -4.1 -10.0 -4.15 Q-9.7 -3.65 -9.85 -3.65 M-14.35 -0.3 L-14.3 -0.45 -14.5 -0.45 -14.35 -0.3 M-10.35 -2.9 L-10.1 -3.15 Q-9.35 -2.5 -10.3 -2.7 L-10.35 -2.9 M-10.25 -2.35 Q-10.0 -1.95 -10.6 -2.4 L-10.65 -2.55 -10.5 -2.65 -10.45 -2.65 -10.25 -2.35 M-9.8 -1.7 L-9.8 -1.8 -9.55 -2.0 -9.2 -1.55 -9.8 -1.6 -9.8 -1.7 M-10.0 -1.2 L-9.95 -1.2 Q-9.4 -0.45 -10.1 -1.0 L-10.0 -1.2 M-9.15 -0.15 Q-8.7 0.6 -9.35 0.05 L-9.25 -0.1 -9.15 -0.15 M-9.1 -0.7 L-8.9 -0.8 Q-8.1 -0.25 -9.15 -0.45 L-9.15 -0.6 -9.1 -0.7 M-5.15 3.15 Q-4.5 3.85 -5.35 3.3 L-5.3 3.15 -5.2 3.1 -5.15 3.15 M-5.4 2.7 L-5.45 2.55 Q-5.5 2.25 -5.2 2.2 L-5.05 2.3 Q-4.35 2.75 -5.3 2.8 L-5.4 2.7 M-3.3 3.3 Q-3.15 3.65 -4.0 3.7 L-4.1 3.5 -4.05 3.4 -3.95 3.2 -3.65 2.9 -3.3 3.3 M-3.8 3.95 L-3.7 3.9 -3.65 3.95 Q-3.0 4.55 -3.9 4.25 L-3.85 4.0 -3.8 3.95 M-2.6 4.1 L-2.6 3.95 -2.3 3.65 -2.2 3.75 Q-1.3 4.4 -2.5 4.2 L-2.6 4.1 M-2.25 4.6 Q-1.5 5.3 -2.45 5.05 L-2.55 4.85 Q-2.45 4.6 -2.25 4.6 M-5.05 4.65 L-5.05 4.7 -5.1 4.65 -5.05 4.65 M-1.15 4.6 L-0.9 4.3 Q-0.25 4.55 -0.25 4.7 L-0.9 4.9 -1.15 4.65 -1.15 4.6 M-0.65 5.3 Q0.0 5.85 -0.95 5.65 L-1.05 5.45 -1.0 5.4 -0.8 5.2 -0.65 5.3 M-7.6 1.1 L-7.6 1.0 -7.3 0.7 -7.1 0.95 Q-6.6 1.5 -7.55 1.25 L-7.6 1.1 M-7.3 1.85 Q-6.9 2.35 -7.7 1.9 L-7.65 1.8 -7.5 1.7 -7.45 1.7 -7.3 1.85 M-6.5 2.5 L-6.45 2.45 -6.3 2.35 -6.15 2.5 Q-5.65 3.0 -6.45 2.75 L-6.5 2.5 M-8.4 0.2 L-8.35 0.1 -8.1 0.0 -8.0 0.2 Q-7.65 0.85 -8.35 0.35 L-8.4 0.2 M-8.5 0.85 Q-7.9 1.65 -8.65 1.1 L-8.6 0.9 -8.5 0.85 M-6.55 9.7 L-6.05 8.65 Q-5.75 9.3 -6.1 10.1 L-6.1 10.15 -6.55 9.7 M-10.0 5.05 L-8.8 6.45 -8.8 6.5 Q-9.9 5.5 -11.25 5.05 L-12.25 4.8 -12.55 4.75 Q-13.15 4.65 -13.6 5.1 L-13.85 5.35 -14.9 7.35 Q-15.7 6.95 -14.85 6.15 L-13.75 5.2 -13.55 5.0 -12.9 4.4 -12.8 4.35 -12.5 4.25 -11.75 4.35 -11.2 4.45 -10.65 4.65 -10.65 4.7 -10.0 5.05 M-15.6 3.8 L-15.45 3.6 -14.6 2.7 Q-13.85 3.5 -14.85 4.7 -15.75 5.85 -15.8 4.8 L-15.75 4.2 -15.6 3.8 M-10.85 3.8 L-10.8 3.8 -10.7 3.85 -10.85 3.8 M-16.1 8.3 L-16.3 8.75 -16.5 8.75 Q-17.5 7.7 -16.9 6.6 -16.2 7.05 -16.1 7.7 L-16.1 8.3 M-15.2 11.5 L-14.4 12.2 -14.4 12.25 Q-15.05 12.4 -15.25 11.55 L-15.2 11.5" fill="#ffffff" fill-rule="evenodd" stroke="none"/>
      <path d="M9.2 22.3 Q8.55 22.85 7.5 22.5 7.05 22.9 6.55 22.5 6.05 23.0 5.7 22.6 L5.85 21.35 5.85 21.2 5.85 20.7 5.8 19.5 5.9 19.45 6.25 19.15 Q6.6 17.55 5.8 16.4 L6.75 16.25 7.0 16.75 7.25 17.05 8.0 19.1 8.65 20.65 8.85 21.2 8.95 21.5 9.2 22.3 M4.8 22.35 L4.6 22.0 4.05 21.8 4.1 21.3 4.1 21.05 4.15 20.5 4.15 18.8 3.95 17.3 3.85 16.75 Q4.25 17.05 4.45 17.6 L4.65 20.45 4.65 21.05 4.65 21.1 4.65 21.4 Q4.65 21.95 4.8 22.35 M2.95 22.45 L2.7 22.45 2.6 22.45 Q2.15 23.2 1.4 22.65 L0.35 22.6 Q-0.4 23.4 -0.8 22.5 L-1.35 22.6 -1.25 22.15 -0.85 20.95 -0.55 20.3 -0.2 19.7 Q0.6 18.4 0.7 17.2 L0.8 17.0 1.3 16.1 2.7 16.4 Q2.25 17.55 2.3 19.0 L2.5 19.7 2.9 20.1 2.9 20.6 2.9 21.0 2.9 21.7 2.9 22.0 2.95 22.45 M19.05 3.85 L19.1 3.85 19.55 3.7 20.0 3.6 20.45 3.55 20.55 3.5 20.95 3.35 20.8 3.1 20.6 2.6 20.8 2.7 21.15 3.15 21.35 2.85 21.4 2.8 21.6 1.7 20.7 0.7 19.85 -0.3 18.8 1.6 17.85 1.4 18.75 0.2 19.35 -1.0 19.4 -1.2 19.4 -1.3 Q19.65 -0.55 20.2 0.1 L20.25 0.05 Q20.1 -1.25 19.5 -2.3 L19.5 -2.5 Q20.45 -2.5 21.1 -1.95 21.55 -1.55 22.1 -1.45 L22.6 -1.3 22.1 -1.45 Q21.55 -1.55 21.1 -1.95 20.45 -2.5 19.5 -2.5 L19.5 -2.3 Q20.1 -1.25 20.25 0.05 L20.2 0.1 Q19.65 -0.55 19.4 -1.3 L19.4 -1.2 19.35 -1.0 18.75 0.2 17.85 1.4 18.8 1.6 19.85 -0.3 20.7 0.7 21.6 1.7 21.4 2.8 21.35 2.85 21.15 3.15 20.8 2.7 20.6 2.6 20.8 3.1 20.95 3.35 20.55 3.5 20.45 3.55 20.0 3.6 19.55 3.7 19.1 3.85 19.05 3.85 19.05 3.8 19.0 3.8 18.9 3.85 18.9 3.9 19.05 3.85 M14.0 7.6 L14.0 8.05 15.55 6.05 15.65 5.8 16.35 5.0 17.65 4.35 18.55 4.0 18.8 3.9 18.9 3.9 18.8 3.9 18.55 4.0 17.65 4.35 16.35 5.0 15.65 5.8 15.55 6.05 14.0 8.05 14.0 7.6 Q15.95 3.55 20.3 3.25 L19.3 2.25 17.6 1.7 16.75 2.7 16.05 3.2 15.75 3.3 15.75 3.35 13.4 4.6 12.7 7.05 12.65 7.05 Q12.6 6.45 12.7 5.95 L12.85 5.35 Q12.9 5.05 13.1 4.75 L13.1 4.7 12.7 4.85 9.35 6.45 9.4 6.5 10.2 7.0 11.4 8.15 11.35 8.15 10.9 7.9 8.9 6.7 8.6 6.8 Q9.1 7.55 9.25 8.35 L9.15 8.3 Q8.45 7.65 8.4 6.9 L6.45 7.85 5.5 8.15 5.1 8.25 4.8 8.3 4.75 8.4 4.8 8.45 4.85 8.5 5.15 9.0 5.2 9.0 5.65 9.55 6.45 10.15 6.9 10.45 7.75 10.8 9.0 11.0 9.75 11.0 10.5 10.9 11.55 10.35 11.6 10.35 11.7 10.25 12.15 9.8 12.4 9.35 12.45 9.35 12.45 9.3 Q12.4 8.5 12.6 7.75 L12.65 7.75 12.8 9.05 13.75 8.35 13.6 8.0 Q13.4 7.2 13.7 6.5 L13.75 6.55 14.0 7.6 M18.8 1.6 Q19.5 1.9 20.1 2.45 L20.05 2.45 19.3 2.25 20.05 2.45 20.1 2.45 Q19.5 1.9 18.8 1.6 M23.2 -1.05 L23.55 -0.85 23.25 -1.05 22.6 -1.3 23.05 -0.85 23.2 -1.05 M23.55 -0.85 L24.1 -0.2 24.1 -0.15 Q24.35 0.45 24.2 1.25 L24.2 1.3 24.15 1.5 Q24.1 2.15 23.5 2.2 L23.5 2.15 23.4 1.95 23.5 2.15 23.5 2.2 Q24.1 2.15 24.15 1.5 L24.2 1.3 24.2 1.25 Q24.35 0.45 24.1 -0.15 L24.1 -0.2 23.55 -0.85 M22.35 1.7 L22.95 1.2 23.3 1.45 23.35 1.9 23.4 1.95 23.4 1.9 Q23.35 1.55 23.6 1.0 22.7 0.85 22.35 1.7 L22.2 1.8 Q21.7 2.05 21.35 2.85 21.7 2.05 22.2 1.8 L22.35 1.7 M22.45 2.35 L22.1 3.05 22.05 3.05 21.8 3.4 21.75 3.5 21.4 3.95 21.35 3.95 19.1 4.4 19.05 4.45 19.3 4.5 21.35 4.15 21.4 4.15 21.5 3.95 21.55 4.0 21.65 4.6 21.95 4.85 22.9 5.75 Q23.3 6.05 23.85 6.15 L24.3 6.1 24.5 5.2 24.55 5.1 24.55 6.4 24.55 6.45 24.5 6.9 24.15 7.15 24.3 7.6 24.05 8.8 Q23.95 9.45 24.1 9.85 L24.0 9.95 24.05 10.25 Q24.25 11.05 24.7 10.5 25.15 10.65 25.9 10.15 25.35 11.2 24.1 11.3 L23.75 10.95 Q22.25 12.0 21.05 13.0 20.75 13.25 21.1 13.25 L21.4 13.25 Q21.15 13.65 21.9 13.65 L22.05 13.65 Q23.35 13.6 24.6 13.0 L24.7 12.95 25.55 12.5 25.95 12.2 26.9 11.2 Q28.15 9.35 26.65 7.6 26.55 5.35 24.7 3.55 L24.6 3.6 Q24.2 2.7 22.85 2.05 L22.45 2.35 M20.9 4.5 L20.85 4.45 20.8 4.45 20.85 4.5 19.85 4.4 19.5 4.5 19.35 4.55 19.05 4.7 18.95 4.75 18.7 4.9 18.65 4.95 19.15 4.8 19.2 4.75 19.25 4.7 19.6 4.6 19.8 4.55 20.35 4.45 20.65 4.55 20.7 4.55 20.9 4.65 21.15 4.75 21.6 4.95 22.5 5.8 22.55 5.85 22.75 6.05 23.0 6.6 23.45 7.55 23.5 7.75 23.55 8.65 23.4 9.45 23.2 10.05 22.05 11.3 20.7 11.95 20.1 12.1 Q18.3 11.6 17.35 10.1 L17.35 10.05 17.25 9.9 17.1 9.5 16.65 9.1 16.65 9.35 16.5 8.95 16.45 8.85 16.2 9.15 16.15 9.15 16.25 8.55 16.1 8.2 Q15.85 9.35 16.45 10.75 L16.75 11.2 16.85 11.3 Q17.85 12.1 19.3 12.5 L19.4 12.5 20.45 12.45 20.8 12.35 22.1 11.8 22.7 11.35 23.35 10.7 23.9 9.2 23.9 8.9 Q23.95 8.05 23.65 7.35 L23.95 7.9 23.25 6.4 21.75 4.9 21.3 4.6 21.2 4.55 21.05 4.45 20.9 4.5 M17.85 13.1 Q19.25 14.15 20.75 14.0 L21.3 13.9 21.25 13.85 20.45 13.5 19.95 13.75 20.45 13.45 20.5 13.4 20.75 13.1 20.6 13.0 17.6 12.55 17.35 12.75 17.85 13.1 M18.7 4.6 L18.55 4.55 Q16.25 5.15 15.45 7.15 14.85 7.65 14.6 8.3 L14.75 8.75 14.65 8.35 14.8 8.55 Q14.65 9.2 14.85 10.0 15.2 11.2 16.1 11.6 L16.05 11.3 16.25 11.25 15.75 10.15 Q15.25 9.25 15.65 7.95 16.25 6.1 17.95 5.0 L18.45 4.75 18.65 4.6 18.7 4.6 M17.85 5.75 L18.2 5.35 18.2 5.3 18.35 5.15 18.25 5.2 18.3 5.05 18.15 5.25 17.95 5.25 18.05 5.15 Q17.0 5.9 16.6 7.0 16.3 7.45 16.15 8.0 L16.4 8.25 16.45 8.2 16.5 7.9 16.55 7.9 16.6 8.1 16.75 7.95 16.6 8.5 16.95 8.9 16.95 7.8 17.2 6.75 17.85 5.75 17.85 5.7 17.85 5.75 M13.2 4.65 L13.2 4.7 13.25 4.65 13.2 4.65 M16.3 12.1 L16.25 12.2 Q16.55 12.9 17.15 12.75 L17.15 12.7 17.05 12.5 Q17.15 12.1 16.65 12.0 L16.45 12.0 16.55 12.1 16.45 12.05 16.3 12.1 M15.8 10.6 L15.75 10.55 15.6 10.4 15.9 10.65 15.85 10.65 15.8 10.6 M17.15 11.0 L17.05 10.9 17.05 10.8 17.15 11.0 M0.4 10.8 L0.65 10.7 0.85 10.65 1.2 10.5 1.25 10.45 1.75 10.15 2.35 9.65 3.0 9.0 3.35 8.5 3.35 8.45 3.4 8.4 3.35 8.3 3.05 8.25 2.65 8.15 1.7 7.85 -0.25 6.9 Q-0.3 7.65 -1.0 8.3 L-1.1 8.35 Q-0.95 7.55 -0.45 6.8 L-0.7 6.7 -2.75 7.9 -3.2 8.15 Q-2.7 7.45 -2.0 7.0 L-1.25 6.5 -1.15 6.45 -4.5 4.85 -4.95 4.7 -4.9 4.75 -4.65 5.35 -4.5 5.95 -4.5 7.05 -5.25 4.6 -7.55 3.35 -7.6 3.3 -7.85 3.2 -8.6 2.7 -9.4 1.7 -11.15 2.25 -11.9 2.45 -10.65 1.6 -9.65 1.4 -10.6 0.2 -11.2 -1.0 -11.25 -1.2 -11.25 -1.3 Q-11.5 -0.55 -12.05 0.1 L-12.1 0.05 Q-11.95 -1.25 -11.3 -2.3 L-11.35 -2.5 Q-12.3 -2.5 -12.95 -1.95 -13.4 -1.55 -13.95 -1.45 L-14.45 -1.3 -15.05 -1.05 -15.1 -1.05 -15.35 -0.85 -15.9 -0.2 -15.95 -0.15 Q-16.2 0.45 -16.05 1.25 L-16.05 1.3 -16.0 1.5 Q-15.95 2.15 -15.35 2.2 L-15.35 2.15 -15.2 1.95 -15.2 1.9 -15.15 1.45 -14.8 1.2 -14.15 1.7 -14.05 1.8 Q-13.55 2.05 -13.2 2.85 L-13.0 3.15 -12.65 2.7 -12.45 2.6 -12.65 3.1 -12.75 3.35 -12.4 3.5 -12.3 3.55 -11.8 3.6 -11.35 3.7 -10.9 3.85 -10.7 3.9 -10.65 3.9 -10.4 4.0 -9.5 4.35 Q-8.85 4.6 -8.2 5.0 L-7.5 5.8 -7.35 6.05 -5.85 8.05 -5.85 7.6 -5.6 6.55 -5.55 6.5 Q-5.25 7.2 -5.45 8.0 L-5.55 8.35 -4.65 9.05 -4.5 7.75 -4.45 7.75 Q-4.25 8.5 -4.3 9.3 L-4.25 9.35 -3.95 9.8 -3.55 10.25 -3.4 10.35 -2.3 10.9 -1.6 11.0 -0.85 11.0 0.3 10.85 0.4 10.8 M1.1 21.1 L0.65 21.15 0.55 21.25 0.45 21.6 Q-0.2 21.9 0.2 22.4 L0.3 22.35 0.6 22.1 0.8 22.05 1.0 22.45 1.05 22.4 1.25 22.1 1.55 22.05 1.6 22.15 Q2.5 22.55 2.5 21.2 1.75 20.85 1.5 21.4 L1.45 21.4 1.1 21.1 M0.15 21.35 L0.0 20.8 -0.3 21.0 -0.4 21.2 -0.3 21.3 Q-0.6 21.5 -0.55 21.85 L-0.5 21.9 Q-0.05 21.8 0.0 21.6 L0.05 21.6 0.15 21.35 M2.05 18.95 L1.85 17.25 Q0.55 18.65 0.0 20.4 L0.5 20.7 2.4 20.55 2.4 20.5 2.05 18.95 M1.7 22.35 L1.65 22.3 1.65 22.35 1.7 22.35 M8.05 21.15 Q7.8 21.1 7.7 21.3 7.8 21.8 8.2 22.05 L8.5 21.75 8.5 21.7 8.05 21.15 M6.3 22.15 L6.4 22.1 Q7.0 21.55 6.5 21.0 5.8 21.6 6.3 22.15 M7.15 20.95 L7.1 21.0 Q6.65 21.8 7.35 22.25 L7.35 22.2 Q7.65 21.45 7.15 20.95 M-5.05 4.65 L-5.1 4.65 -5.05 4.7 -5.05 4.65 M-6.55 9.7 L-7.0 10.1 -7.05 10.1 -6.95 9.95 -7.6 10.45 -6.85 9.65 -6.35 8.1 Q-6.6 7.45 -7.2 6.95 -8.0 4.95 -10.3 4.35 -8.65 5.2 -7.7 6.75 -7.2 7.6 -7.2 8.6 -7.2 9.4 -7.45 9.95 L-8.0 11.05 -7.2 11.1 -6.65 11.0 -6.0 10.15 Q-5.6 9.4 -6.0 8.65 L-6.05 8.65 -6.55 9.7 M-11.25 5.05 Q-9.7 5.85 -9.05 7.15 L-8.65 7.8 -8.5 7.65 -8.65 7.15 -8.85 6.85 -8.8 6.85 -8.75 6.9 -8.8 6.7 -8.75 6.65 -8.5 7.05 -8.25 7.3 -8.1 7.1 Q-8.8 5.8 -10.0 5.05 L-10.65 4.7 -10.65 4.65 -11.2 4.45 -11.6 4.35 -12.0 4.2 -12.85 4.35 Q-13.3 4.5 -13.55 5.0 L-13.75 5.2 Q-14.2 5.45 -14.5 5.8 L-15.2 6.4 -15.55 7.55 Q-15.65 11.15 -12.05 12.2 -10.4 12.65 -9.2 11.65 L-8.4 10.8 -7.6 9.0 -7.6 8.3 -7.9 8.05 -8.05 8.3 -7.9 9.25 -7.9 9.3 -8.2 8.5 -8.3 8.65 -8.2 8.8 -8.55 10.5 -9.1 11.15 Q-10.35 12.3 -12.1 11.75 -12.95 11.5 -13.6 10.95 L-14.3 10.0 Q-15.1 8.75 -14.8 7.75 -14.85 7.25 -14.55 6.65 -14.05 5.7 -13.25 5.2 -13.1 4.95 -12.6 4.85 L-12.25 4.8 -11.25 5.05 M-7.75 7.8 L-7.8 7.7 -7.8 7.75 -7.75 7.8 M-8.4 11.8 Q-8.9 11.9 -8.8 12.3 -8.65 13.45 -7.5 13.05 -6.85 12.9 -6.35 12.4 -5.6 11.65 -6.15 10.75 -7.1 11.65 -8.4 11.8 M-15.6 3.8 L-16.2 4.65 -16.25 5.0 Q-15.7 6.2 -14.35 5.25 -13.4 4.55 -13.3 3.55 L-13.1 3.75 -13.0 4.0 -12.95 4.05 -12.2 3.9 -13.1 3.75 -13.5 3.3 -13.55 3.2 -13.8 2.85 -14.4 2.55 -14.6 2.7 -15.45 3.6 -15.6 3.8 M-16.1 7.7 L-16.05 7.4 -15.9 6.95 -16.3 6.65 -16.25 6.2 -16.45 5.6 -16.5 5.4 -16.5 5.25 -16.95 6.25 Q-17.35 7.3 -17.15 8.2 -17.2 9.15 -16.5 10.2 -16.0 10.9 -15.8 10.05 L-15.75 9.75 Q-16.1 9.15 -16.1 8.3 L-16.1 7.7 M-15.5 10.75 Q-15.95 11.05 -15.8 11.45 L-15.4 12.1 -15.35 12.15 -15.0 12.4 Q-14.05 13.1 -12.85 13.05 -12.5 13.05 -12.75 12.85 L-12.8 12.8 -14.1 11.8 -14.95 11.15 -15.5 10.75 M-10.55 13.75 L-10.5 13.75 -9.95 13.65 -9.75 13.65 Q-7.95 13.2 -9.35 12.35 L-12.35 12.8 -12.5 12.9 -12.45 13.0 Q-11.85 13.75 -10.55 13.75" fill="#2e3d3c" fill-rule="evenodd" stroke="none"/>
      <path d="M19.05 3.85 L18.9 3.9 18.9 3.85 19.05 3.8 19.05 3.85 M11.55 10.35 L10.5 10.9 9.75 11.0 9.0 11.0 7.75 10.8 9.05 10.9 10.4 10.75 10.5 10.8 10.55 10.8 10.5 10.7 11.55 10.35 M22.65 -0.45 L22.55 -0.3 22.45 -0.45 22.65 -0.45 M23.2 -1.05 L23.25 -1.05 23.55 -0.85 23.2 -1.05 M23.35 1.9 L23.4 1.9 23.4 1.95 23.35 1.9 M24.6 5.05 L24.65 5.2 24.6 5.2 24.6 5.05 M0.4 10.8 L0.3 10.85 -0.85 11.0 -1.6 11.0 -2.3 10.9 -3.4 10.35 -2.3 10.7 -2.4 10.8 -2.35 10.8 -2.25 10.75 -0.9 10.9 0.25 10.8 0.4 10.8 M-10.7 3.9 L-10.9 3.85 -10.85 3.8 -10.7 3.85 -10.7 3.9 M-15.35 -0.85 L-15.1 -1.05 -15.05 -1.05 -15.35 -0.85 M-14.35 -0.3 L-14.5 -0.45 -14.3 -0.45 -14.35 -0.3" fill="#f2debf" fill-rule="evenodd" stroke="none"/>
      <path d="M13.6 8.0 L13.75 8.35 12.8 9.05 12.65 7.75 12.6 7.75 Q12.4 8.5 12.45 9.3 L12.45 9.35 12.4 9.35 12.15 9.8 11.7 10.25 11.6 10.35 11.55 10.35 11.5 10.1 12.15 9.1 12.15 9.05 10.9 7.9 11.35 8.15 11.4 8.15 10.2 7.0 Q11.15 6.55 12.35 6.15 L12.6 6.05 12.65 5.95 12.7 5.95 Q12.6 6.45 12.65 7.05 L12.65 7.1 12.7 7.05 Q12.8 7.8 13.45 7.95 L13.6 8.0 M23.25 -1.05 L23.2 -1.05 23.05 -0.85 22.6 -1.3 23.25 -1.05 M23.35 1.9 L23.3 1.45 22.95 1.2 22.35 1.7 Q22.7 0.85 23.6 1.0 23.35 1.55 23.4 1.9 L23.35 1.9 M22.45 2.35 L22.85 2.05 Q24.2 2.7 24.6 3.6 L24.7 3.55 Q26.55 5.35 26.65 7.6 28.15 9.35 26.9 11.2 L25.95 12.2 25.55 12.5 24.7 12.95 24.6 13.0 Q23.35 13.6 22.05 13.65 L21.9 13.65 Q21.15 13.65 21.4 13.25 L21.1 13.25 Q20.75 13.25 21.05 13.0 22.25 12.0 23.75 10.95 L24.1 11.3 Q25.35 11.2 25.9 10.15 25.15 10.65 24.7 10.5 24.25 11.05 24.05 10.25 L24.0 9.95 24.1 9.85 Q23.95 9.45 24.05 8.8 L24.3 7.6 24.15 7.15 24.5 6.9 24.55 6.45 24.55 6.4 24.55 5.1 24.5 5.2 24.3 6.1 23.85 6.15 Q23.3 6.05 22.9 5.75 L21.95 4.85 21.65 4.6 21.55 4.0 21.5 3.95 21.4 4.15 21.35 4.15 19.3 4.5 19.05 4.45 19.1 4.4 21.35 3.95 21.4 3.95 21.75 3.5 21.8 3.4 22.05 3.05 22.1 3.05 22.45 2.35 M20.9 4.5 L21.05 4.45 21.2 4.55 21.3 4.6 21.75 4.9 21.05 4.55 20.9 4.5 M23.65 7.35 Q23.95 8.05 23.9 8.9 L23.9 9.2 23.35 10.7 22.7 11.35 22.1 11.8 20.8 12.35 20.45 12.45 19.4 12.5 19.3 12.5 Q17.85 12.1 16.85 11.3 L16.75 11.2 16.45 10.75 Q15.85 9.35 16.1 8.2 L16.25 8.55 16.15 9.15 16.2 9.15 16.45 8.85 16.5 8.95 16.65 9.35 16.65 9.1 17.1 9.5 17.25 9.9 17.35 10.05 17.35 10.1 Q18.3 11.6 20.1 12.1 L20.7 11.95 22.05 11.3 23.2 10.05 23.4 9.45 23.55 8.65 23.5 7.75 23.45 7.55 23.0 6.6 22.75 6.05 23.65 7.35 M21.6 4.95 L21.15 4.75 20.9 4.65 20.7 4.55 20.65 4.55 20.35 4.45 19.8 4.55 19.6 4.6 19.55 4.55 19.35 4.6 19.05 4.75 19.1 4.75 19.25 4.7 19.2 4.75 19.15 4.8 18.65 4.95 18.7 4.9 18.95 4.75 19.05 4.7 19.35 4.55 19.5 4.5 19.85 4.4 20.85 4.5 20.95 4.55 21.6 4.95 M23.7 3.8 L22.85 2.9 Q22.1 3.7 23.1 4.9 24.0 6.05 24.05 5.0 L24.0 4.4 23.85 4.0 23.7 3.8 M24.6 5.05 L24.6 5.2 24.65 5.2 24.6 5.05 M25.0 11.45 L24.5 11.35 23.95 11.5 Q22.85 11.75 22.55 12.85 23.65 13.2 24.8 12.55 L25.1 12.4 25.55 12.1 26.75 10.9 Q27.55 9.7 26.65 8.85 L26.15 10.2 Q26.0 10.85 25.45 11.15 L25.0 11.45 M25.1 4.7 L25.0 4.8 25.25 6.65 Q25.1 6.7 25.1 6.75 L25.1 6.85 24.8 7.05 24.7 9.8 25.05 10.1 25.35 10.0 25.65 9.75 Q27.1 7.0 25.1 4.7 M17.85 13.1 L17.35 12.75 17.6 12.55 20.6 13.0 20.75 13.1 20.5 13.4 20.45 13.45 19.95 13.75 20.45 13.5 21.25 13.85 21.3 13.9 20.75 14.0 Q19.25 14.15 17.85 13.1 L17.75 13.0 17.85 13.1 18.0 13.15 17.85 13.1 M17.2 6.75 L16.95 7.8 16.95 8.9 16.6 8.5 16.75 7.95 16.6 8.1 16.55 7.9 16.5 7.9 16.45 8.2 16.4 8.25 16.15 8.0 Q16.3 7.45 16.6 7.0 17.0 5.9 18.05 5.15 L17.95 5.25 18.15 5.25 18.3 5.05 18.25 5.2 18.35 5.15 18.2 5.3 18.2 5.35 17.85 5.75 17.75 5.8 Q16.7 6.6 16.45 7.85 L16.45 7.95 17.2 6.75 M18.7 4.6 L18.65 4.6 18.45 4.75 17.95 5.0 Q16.25 6.1 15.65 7.95 15.25 9.25 15.75 10.15 L16.25 11.25 16.05 11.3 16.1 11.6 Q15.2 11.2 14.85 10.0 14.65 9.2 14.8 8.55 L14.65 8.35 14.75 8.75 14.6 8.3 Q14.85 7.65 15.45 7.15 16.25 5.15 18.55 4.55 L18.7 4.6 M17.85 5.75 L17.85 5.7 17.85 5.75 M10.5 10.7 L10.55 10.8 10.5 10.8 10.4 10.75 9.75 9.85 10.5 10.7 M15.8 10.6 L15.85 10.65 15.9 10.65 15.6 10.4 15.75 10.55 15.8 10.6 M16.3 12.1 L16.45 12.05 16.55 12.1 16.45 12.0 16.65 12.0 Q17.15 12.1 17.05 12.5 L17.15 12.7 17.15 12.75 Q16.55 12.9 16.25 12.2 L16.3 12.1 M16.55 12.1 L16.8 12.35 16.55 12.1 M17.15 11.0 L17.05 10.8 17.05 10.9 17.15 11.0 M-3.4 10.35 L-3.55 10.25 -3.95 9.8 -4.25 9.35 -4.3 9.3 Q-4.25 8.5 -4.45 7.75 L-4.5 7.75 -4.65 9.05 -5.55 8.35 -5.45 8.0 -5.3 7.95 Q-4.65 7.8 -4.5 7.05 L-4.5 5.95 -4.45 6.05 -4.2 6.15 -2.0 7.0 Q-2.7 7.45 -3.2 8.15 L-2.75 7.9 -4.0 9.05 -4.0 9.1 -3.35 10.1 -3.4 10.35 M-5.85 7.6 L-5.85 8.05 -7.35 6.05 -7.5 5.8 -8.2 5.0 Q-8.85 4.6 -9.5 4.35 L-10.4 4.0 -10.65 3.9 -10.7 3.9 -10.7 3.85 -10.8 3.8 -10.85 3.8 -10.9 3.85 -11.35 3.7 -11.8 3.6 -12.3 3.55 -12.4 3.5 -12.75 3.35 -12.65 3.1 -12.45 2.6 -12.65 2.7 -13.0 3.15 -13.2 2.85 -13.2 2.8 -13.45 1.7 -12.55 0.7 -11.7 -0.3 -10.65 1.6 -11.9 2.45 -11.15 2.25 -12.15 3.25 Q-7.8 3.55 -5.85 7.6 M-14.15 1.7 L-14.8 1.2 -15.15 1.45 -15.2 1.9 -15.45 1.0 Q-14.55 0.85 -14.15 1.7 M-15.05 -1.05 L-14.45 -1.3 -14.85 -0.85 -15.05 -1.05 M-2.3 10.7 L-1.6 9.85 -2.25 10.75 -2.35 10.8 -2.4 10.8 -2.3 10.7 M6.8 19.05 L6.65 17.5 6.55 17.15 6.55 17.1 6.55 17.05 6.6 17.05 6.7 17.05 6.95 17.5 7.2 17.9 6.95 17.5 6.7 17.05 6.6 17.05 6.55 17.05 6.55 17.1 6.65 16.95 6.7 17.05 6.65 16.95 6.55 17.1 6.55 17.15 6.65 17.5 6.8 19.05 6.55 20.4 Q6.95 20.65 7.45 20.7 L7.4 20.45 Q7.3 19.6 6.8 19.05 M7.2 17.9 L8.2 20.5 8.15 20.55 7.45 20.7 8.15 20.55 8.2 20.5 7.2 17.9 M0.15 21.35 L0.0 21.6 0.15 21.35 0.05 21.6 0.0 21.6 Q-0.05 21.8 -0.5 21.9 L-0.55 21.85 Q-0.6 21.5 -0.3 21.3 L-0.4 21.2 -0.3 21.0 0.0 20.8 0.15 21.35 M0.5 20.7 L0.0 20.4 Q0.55 18.65 1.85 17.25 L2.05 18.95 1.2 19.85 0.5 20.7 M8.05 21.15 L8.5 21.7 8.5 21.75 8.2 22.05 Q7.8 21.8 7.7 21.3 7.8 21.1 8.05 21.15 M19.25 13.25 Q19.2 13.65 19.8 13.6 L19.8 13.55 19.25 13.25 M-6.05 8.65 L-6.0 8.65 Q-5.6 9.4 -6.0 10.15 L-6.65 11.0 -7.2 11.1 -8.0 11.05 -7.45 9.95 Q-7.2 9.4 -7.2 8.6 -7.2 7.6 -7.7 6.75 -8.65 5.2 -10.3 4.35 -8.0 4.95 -7.2 6.95 -6.6 7.45 -6.35 8.1 L-6.85 9.65 -7.6 10.45 -6.95 9.95 -7.05 10.1 -7.0 10.1 -6.55 9.7 -6.1 10.15 -6.1 10.1 Q-5.75 9.3 -6.05 8.65 M-10.0 5.05 Q-8.8 5.8 -8.1 7.1 L-8.25 7.3 -8.5 7.05 -8.75 6.65 -8.8 6.7 -8.75 6.9 -8.8 6.85 -8.85 6.85 -8.65 7.15 -8.5 7.65 -8.65 7.8 -9.05 7.15 Q-9.7 5.85 -11.25 5.05 -9.9 5.5 -8.8 6.5 L-8.8 6.45 -10.0 5.05 M-12.25 4.8 L-12.6 4.85 Q-13.1 4.95 -13.25 5.2 -14.05 5.7 -14.55 6.65 -14.85 7.25 -14.8 7.75 -15.1 8.75 -14.3 10.0 L-13.6 10.95 Q-12.95 11.5 -12.1 11.75 -10.35 12.3 -9.1 11.15 L-8.55 10.5 -8.2 8.8 -8.3 8.65 -8.2 8.5 -7.9 9.3 -7.9 9.25 -8.05 8.3 -7.9 8.05 -7.6 8.3 -7.6 9.0 -8.4 10.8 -9.2 11.65 Q-10.4 12.65 -12.05 12.2 -15.65 11.15 -15.55 7.55 L-15.2 6.4 -14.5 5.8 Q-14.2 5.45 -13.75 5.2 L-14.85 6.15 Q-15.7 6.95 -14.9 7.35 L-13.85 5.35 -13.6 5.1 Q-13.15 4.65 -12.55 4.75 L-12.25 4.8 M-13.55 5.0 Q-13.3 4.5 -12.85 4.35 L-12.0 4.2 -11.6 4.35 -11.2 4.45 -11.75 4.35 -12.5 4.25 -12.8 4.35 -12.9 4.4 -13.55 5.0 M-7.75 7.8 L-7.8 7.75 -7.8 7.7 -7.75 7.8 M-7.6 10.45 L-7.65 10.45 -7.6 10.45 M-8.4 11.8 Q-7.1 11.65 -6.15 10.75 -5.6 11.65 -6.35 12.4 -6.85 12.9 -7.5 13.05 -8.65 13.45 -8.8 12.3 -8.9 11.9 -8.4 11.8 M-3.25 8.15 L-3.2 8.15 -3.25 8.15 M-4.5 7.1 L-4.5 7.05 -4.5 7.1 M-11.9 2.45 L-11.95 2.45 -11.9 2.45 M-14.6 2.7 L-14.4 2.55 -13.8 2.85 -13.55 3.2 -13.5 3.3 -13.1 3.75 -12.2 3.9 -12.95 4.05 -13.0 4.0 -13.1 3.75 -13.3 3.55 Q-13.4 4.55 -14.35 5.25 -15.7 6.2 -16.25 5.0 L-16.2 4.65 -15.6 3.8 -15.75 4.2 -15.8 4.8 Q-15.75 5.85 -14.85 4.7 -13.85 3.5 -14.6 2.7 M-16.1 8.3 Q-16.1 9.15 -15.75 9.75 L-15.8 10.05 Q-16.0 10.9 -16.5 10.2 -17.2 9.15 -17.15 8.2 -17.35 7.3 -16.95 6.25 L-16.5 5.25 -16.5 5.4 -16.45 5.6 -16.25 6.2 -16.3 6.65 -15.9 6.95 -16.05 7.4 -16.1 7.7 Q-16.2 7.05 -16.9 6.6 -17.5 7.7 -16.5 8.75 L-16.3 8.75 -16.1 8.3 M-15.5 10.75 L-14.95 11.15 -14.1 11.8 -12.8 12.8 -12.75 12.85 Q-12.5 13.05 -12.85 13.05 -14.05 13.1 -15.0 12.4 L-15.35 12.15 -15.4 12.1 -15.8 11.45 Q-15.95 11.05 -15.5 10.75 M-15.2 11.5 L-15.25 11.55 Q-15.05 12.4 -14.4 12.25 L-14.4 12.2 -15.2 11.5 M-10.55 13.75 Q-11.85 13.75 -12.45 13.0 L-12.5 12.9 -12.35 12.8 -9.35 12.35 Q-7.95 13.2 -9.75 13.65 L-9.95 13.65 -10.5 13.75 -10.55 13.75" fill="#96c4c7" fill-rule="evenodd" stroke="none"/>
      <path d="M25.5 13.75 L26.0 14.25 25.5 15.15 24.35 14.25 25.05 13.95 25.5 13.75 M19.25 15.2 Q18.05 14.5 16.7 14.0 L16.95 14.0 17.45 14.2 Q19.45 15.05 21.6 14.9 22.8 15.55 23.85 16.5 L24.0 16.75 24.15 16.95 24.45 17.35 24.45 17.55 Q25.35 18.35 24.1 19.35 L22.05 17.2 Q23.75 16.15 20.95 15.05 20.3 15.4 20.25 15.8 L20.1 15.7 19.75 15.5 19.5 15.35 19.45 15.3 19.35 15.25 19.25 15.2 M20.1 17.95 Q21.55 19.6 22.1 21.95 L21.65 22.3 21.25 22.45 21.2 22.25 20.95 22.4 20.9 22.4 20.65 22.3 20.35 22.15 20.3 22.1 19.85 21.7 20.1 21.95 18.35 19.6 17.45 18.55 17.45 18.5 Q16.95 17.75 16.05 17.15 L16.0 17.15 13.5 15.45 14.55 14.95 15.3 14.9 16.95 15.6 Q15.25 16.15 16.65 17.45 18.2 18.9 20.0 19.6 20.4 19.75 20.4 19.45 L20.1 17.95 M11.35 19.3 L10.1 18.15 Q9.7 18.15 9.55 18.5 9.3 19.15 9.4 19.85 8.6 18.45 8.45 16.9 L9.05 16.95 9.25 16.95 11.35 19.3 M10.55 22.2 Q11.15 22.8 12.1 22.95 12.5 23.05 12.5 22.75 12.55 21.5 12.05 20.45 13.35 22.7 13.65 25.45 L13.1 25.45 11.35 25.4 11.15 25.35 11.05 24.5 10.9 23.3 10.55 22.2 M-10.1 14.7 L-10.0 14.7 -8.8 14.4 -8.7 14.35 -7.95 14.6 -7.85 14.55 -7.45 14.75 -8.8 15.45 -9.4 15.95 Q-9.5 15.3 -10.1 14.7 M-9.45 16.45 L-8.05 15.45 -7.2 14.9 -7.0 15.0 -8.0 15.95 -9.7 17.15 -9.45 16.45 M-11.5 18.9 L-14.05 21.8 -14.45 21.6 Q-15.55 20.9 -15.6 20.2 L-15.6 20.15 -15.55 19.7 -15.55 19.55 -15.55 19.5 Q-14.4 17.6 -12.6 16.25 -13.3 17.0 -13.5 17.95 -14.2 20.8 -11.5 18.9 M-16.95 15.75 L-16.5 15.55 -16.45 15.5 -16.4 15.45 Q-15.7 14.95 -15.8 14.5 L-15.85 14.5 -15.95 14.55 -16.15 14.7 -16.1 14.65 -14.95 13.75 -14.9 13.75 -14.55 13.95 -14.35 14.05 -14.15 14.15 -12.7 14.65 -13.45 15.45 -13.4 15.5 -13.4 15.45 -13.2 15.35 -13.4 15.5 -14.6 16.35 -14.65 16.35 -14.75 16.45 -14.85 16.55 -16.0 17.7 -16.05 17.6 -16.05 17.55 -16.4 17.25 -17.4 15.95 -17.3 15.85 -16.95 15.75 M-15.95 12.65 L-15.7 13.0 Q-16.9 13.4 -17.8 14.2 L-17.8 14.25 Q-18.05 13.6 -16.9 13.2 L-15.95 12.65 M-15.75 15.2 Q-15.8 15.8 -15.3 15.75 -12.2 15.5 -14.55 14.0 -15.6 14.2 -15.75 15.2 M-8.35 21.8 L-9.45 23.2 -9.85 23.3 -11.1 22.95 -11.2 22.95 Q-10.5 21.3 -9.5 19.95 L-7.5 17.55 Q-8.95 19.35 -8.85 21.4 -8.85 22.0 -8.35 21.8 M-6.65 16.7 L-5.55 15.75 -4.2 16.45 -4.25 16.5 -4.3 16.55 -4.35 16.6 -5.35 17.45 -5.1 17.15 Q-5.25 16.7 -5.75 16.3 L-6.65 16.7 M-4.95 17.7 L-4.45 17.1 -4.95 17.85 -4.95 17.7 M-3.25 18.4 L-2.35 17.1 -2.15 17.15 -1.15 17.25 -1.1 17.3 -0.65 17.5 -0.9 17.8 -1.7 19.05 Q-1.8 18.25 -2.4 17.65 -2.9 17.95 -3.25 18.4 M-3.05 22.4 L-4.05 25.85 -5.3 25.4 -4.75 23.5 -4.8 23.5 Q-5.4 24.45 -5.35 25.35 L-6.25 24.8 Q-5.75 22.95 -4.9 21.3 L-4.9 21.25 -4.45 22.2 Q-3.7 22.8 -3.05 22.4" fill="#910003" fill-rule="evenodd" stroke="none"/>
      <path d="M-1.35 22.6 L-1.4 22.75 -1.7 23.95 Q-2.3 25.4 -2.3 26.8 L-2.85 26.7 Q-6.2 26.05 -8.6 24.05 -14.4 24.9 -16.35 20.0 -16.7 19.25 -16.25 18.5 -17.35 17.65 -17.85 16.8 L-18.25 15.75 -18.3 15.5 -18.35 15.5 -18.85 14.35 Q-17.95 12.55 -16.2 11.65 L-15.7 12.2 -15.45 12.45 -15.25 12.6 Q-14.35 13.35 -13.15 13.6 L-10.8 13.9 -10.75 13.9 -10.5 13.9 -10.35 13.9 -10.2 13.9 -10.15 13.95 -10.1 13.95 -10.0 13.95 -8.0 13.75 Q-6.05 13.45 -5.6 11.85 -5.25 10.55 -5.45 9.4 -4.45 9.9 -3.6 10.75 L-2.8 11.35 -2.5 11.55 0.8 11.35 1.65 11.6 1.75 11.6 1.8 11.75 1.85 12.1 1.95 13.1 1.95 13.25 1.85 13.2 1.3 13.05 1.1 12.75 1.05 12.7 0.9 12.6 0.8 12.6 0.7 12.55 0.5 12.5 Q0.15 12.5 -0.05 12.75 -1.95 12.35 -3.65 11.25 -4.7 11.55 -4.25 12.5 -3.65 13.8 -4.7 14.8 L-3.6 15.6 -2.9 16.0 -0.25 15.95 0.2 16.1 0.8 15.85 0.9 15.75 1.35 16.0 1.3 16.1 0.8 17.0 0.7 17.2 Q0.6 18.4 -0.2 19.7 L-0.55 20.3 -0.85 20.95 -1.25 22.15 -1.35 22.6 M25.5 13.75 L25.05 13.95 24.35 14.25 25.5 15.15 26.0 14.25 25.5 13.75 M21.4 16.65 L21.65 16.85 22.0 17.2 22.05 17.2 24.1 19.35 Q25.35 18.35 24.45 17.55 L24.45 17.35 24.15 16.95 24.0 16.75 23.85 16.5 Q22.8 15.55 21.6 14.9 19.45 15.05 17.45 14.2 L16.95 14.0 16.7 14.0 Q18.05 14.5 19.25 15.2 L18.4 15.1 18.15 15.3 Q18.7 17.05 20.9 18.05 L21.25 18.1 20.0 16.75 20.05 16.75 20.75 17.25 21.4 17.8 21.4 17.75 21.4 16.65 M21.25 22.45 L21.65 22.3 22.1 21.95 Q21.55 19.6 20.1 17.95 18.85 16.5 16.95 15.6 L15.3 14.9 14.55 14.95 13.5 15.45 16.0 17.15 16.05 17.15 Q16.95 17.75 17.45 18.5 L17.45 18.55 18.35 19.6 20.1 21.95 19.85 21.7 20.3 22.1 20.35 22.15 20.65 22.3 20.9 22.4 20.95 22.4 21.25 22.45 M17.1 25.1 L17.5 25.0 17.65 25.0 17.9 24.95 18.4 24.75 18.4 24.65 17.45 21.45 17.75 21.25 17.9 19.6 17.0 18.35 17.05 18.35 17.65 18.9 17.45 18.55 17.65 18.9 17.05 18.35 17.0 18.35 17.9 19.6 17.75 21.25 17.45 21.45 18.4 24.65 18.4 24.75 17.9 24.95 17.65 25.0 17.5 25.0 17.1 25.1 17.0 25.05 17.0 25.1 17.1 25.1 M14.6 21.65 L15.05 22.8 16.05 25.15 16.1 25.25 16.35 25.2 17.0 25.1 16.35 25.2 16.1 25.25 16.05 25.15 15.05 22.8 14.6 21.65 14.6 21.6 14.3 21.0 13.3 19.3 12.95 18.8 11.75 18.15 Q11.0 18.45 11.5 19.25 12.7 21.2 14.2 22.8 14.45 23.1 14.45 22.85 L14.6 21.65 M16.15 18.85 L16.05 18.65 Q14.75 16.8 12.8 15.8 L12.2 16.05 12.15 16.25 12.05 16.25 11.6 16.45 11.5 16.35 10.95 16.55 Q12.05 17.55 12.95 18.8 12.05 17.55 10.95 16.55 L11.5 16.35 11.6 16.45 12.05 16.25 12.15 16.25 12.2 16.05 12.8 15.8 Q14.75 16.8 16.05 18.65 L16.15 18.85 16.1 18.8 Q15.4 17.75 13.9 17.05 13.05 17.3 13.35 18.2 14.2 20.65 16.15 22.0 16.65 22.35 16.7 21.9 16.95 20.5 16.45 19.4 L16.45 19.35 16.15 18.85 M17.45 21.45 L17.1 20.55 16.45 19.35 17.1 20.55 17.45 21.45 M1.0 15.0 L0.8 14.65 0.7 14.55 0.7 14.45 0.8 14.15 1.1 13.95 1.15 13.95 1.9 14.3 1.65 15.15 1.2 15.05 1.15 15.05 1.05 15.05 1.05 15.0 1.0 15.0 M11.35 19.3 L9.25 16.95 9.05 16.95 8.45 16.9 Q8.6 18.45 9.4 19.85 L9.4 19.9 9.65 20.35 9.85 20.7 10.55 22.2 10.9 23.3 11.05 24.5 11.15 25.35 11.35 25.4 13.1 25.45 13.65 25.45 Q13.35 22.7 12.05 20.45 L12.0 20.35 11.35 19.3 M16.05 18.65 L15.5 17.95 15.5 17.4 15.65 17.5 15.65 17.45 15.55 17.3 15.55 17.15 15.75 17.0 16.0 17.15 15.75 17.0 15.55 17.15 15.55 17.3 15.65 17.45 15.65 17.5 15.5 17.4 15.5 17.95 16.05 18.65 M12.9 12.5 L12.8 12.4 12.9 12.3 12.9 12.5 M13.35 15.9 L13.05 15.7 12.9 15.75 13.35 15.9 M-4.75 10.65 L-4.65 10.65 -4.7 10.6 -4.75 10.65 M-10.1 14.7 L-11.05 15.2 -11.35 15.4 -11.45 15.45 -12.3 16.05 -12.6 16.25 Q-14.4 17.6 -15.55 19.5 L-15.55 19.55 -15.55 19.7 -15.6 20.15 -15.65 20.15 -15.6 20.2 Q-15.55 20.9 -14.45 21.6 L-14.05 21.8 -11.5 18.9 -11.15 18.5 -10.65 18.0 -9.7 17.15 -8.0 15.95 -7.0 15.0 -7.2 14.9 -8.05 15.45 -9.45 16.45 Q-10.65 17.4 -11.5 18.7 -11.25 17.55 -10.05 16.5 L-9.4 15.95 -8.8 15.45 -7.45 14.75 -7.85 14.55 -7.95 14.6 -8.7 14.35 -8.8 14.4 -10.0 14.7 -10.1 14.7 M-14.85 16.55 L-14.75 16.45 -14.65 16.35 -14.6 16.35 -13.4 15.5 -13.2 15.35 -13.4 15.45 -13.4 15.5 -13.45 15.45 -12.7 14.65 -14.15 14.15 -14.35 14.05 -14.55 13.95 -14.9 13.75 -14.95 13.75 -16.1 14.65 -16.15 14.7 -15.95 14.55 -15.85 14.5 -15.8 14.5 Q-15.7 14.95 -16.4 15.45 L-16.45 15.5 -16.5 15.55 -16.95 15.75 -17.45 15.85 -17.4 15.95 -16.4 17.25 -16.05 17.55 -16.05 17.6 -15.9 17.95 -15.75 17.7 -15.6 17.45 -15.4 17.2 -15.35 17.15 -14.85 16.55 M-15.95 12.65 L-16.9 13.2 Q-18.05 13.6 -17.8 14.25 L-17.8 14.2 Q-16.9 13.4 -15.7 13.0 L-15.95 12.65 M-9.5 19.95 Q-10.5 21.3 -11.2 22.95 L-11.1 22.95 -9.85 23.3 -9.45 23.2 -8.35 21.8 -6.95 20.1 -7.25 20.7 -6.5 19.6 Q-6.8 20.5 -6.45 21.4 -6.2 22.05 -5.65 21.75 L-4.9 21.3 Q-5.75 22.95 -6.25 24.8 L-5.35 25.35 Q-5.4 24.45 -4.8 23.5 L-4.75 23.5 -5.3 25.4 -4.05 25.85 -3.05 22.4 -2.9 22.0 -2.05 19.85 -2.05 19.8 -1.7 19.1 -1.7 19.05 -0.9 17.8 -0.65 17.5 -1.1 17.3 -1.15 17.25 -2.15 17.15 -2.35 17.1 -3.25 18.4 -3.75 19.15 Q-3.9 18.45 -4.55 17.75 L-5.0 17.9 -4.95 17.85 -4.45 17.1 -4.95 17.7 -5.0 17.75 -5.05 17.75 -6.25 19.05 -5.95 18.35 -6.05 18.45 -6.1 18.45 -5.6 17.8 -5.35 17.45 -4.35 16.6 -4.3 16.55 -4.2 16.5 -4.15 16.5 -4.2 16.45 -5.55 15.75 -6.65 16.7 -6.7 16.75 -7.25 17.25 Q-7.3 16.6 -7.9 16.0 -9.3 16.65 -10.3 17.85 -11.1 18.8 -11.5 19.95 -11.8 21.0 -10.7 20.5 L-9.5 19.95 M-9.7 23.65 L-8.85 23.85 -8.85 23.8 -9.7 23.65" fill="#000000" fill-rule="evenodd" stroke="none"/>
      <path d="M21.4 16.65 L21.4 17.75 21.4 17.8 20.75 17.25 20.05 16.75 20.0 16.75 21.25 18.1 20.9 18.05 Q18.7 17.05 18.15 15.3 L18.4 15.1 19.25 15.2 19.35 15.25 19.45 15.3 19.5 15.35 19.75 15.5 20.1 15.7 20.25 15.8 21.4 16.65 M21.25 22.45 L20.95 22.4 21.2 22.25 21.25 22.45 M17.1 25.1 L17.0 25.1 17.0 25.05 17.1 25.1 M14.6 21.65 L14.45 22.85 Q14.45 23.1 14.2 22.8 12.7 21.2 11.5 19.25 11.0 18.45 11.75 18.15 L12.95 18.8 13.3 19.3 14.3 21.0 14.6 21.6 14.6 21.65 M8.0 14.5 Q7.9 14.25 7.95 14.0 7.9 13.25 8.65 12.6 L8.75 12.75 8.95 12.25 Q9.1 12.0 9.5 12.0 11.5 12.0 13.1 11.0 L13.1 11.1 13.3 10.75 Q15.05 12.6 13.9 14.15 L13.8 14.2 13.1 14.45 13.0 14.5 Q12.2 15.5 10.55 15.85 9.0 16.15 9.2 15.65 L9.15 15.65 9.05 15.9 Q8.95 16.1 8.75 15.8 L8.45 15.4 8.45 15.25 8.2 14.65 8.0 14.5 M0.7 14.55 L0.2 14.4 0.15 14.4 -0.4 14.65 -0.65 15.25 -0.6 15.55 -0.4 15.85 -0.25 15.95 -2.9 16.0 -3.6 15.6 -4.7 14.8 Q-3.65 13.8 -4.25 12.5 -4.7 11.55 -3.65 11.25 -1.95 12.35 -0.05 12.75 L-0.1 12.75 -0.35 13.35 -0.1 13.95 0.5 14.2 0.8 14.15 0.7 14.45 0.7 14.55 M12.9 12.5 L12.9 12.3 12.8 12.4 12.9 12.5 M13.35 15.9 L12.9 15.75 13.05 15.7 13.35 15.9 M-4.75 10.65 L-4.7 10.6 -4.65 10.65 -4.75 10.65 M-10.35 13.9 L-10.25 13.85 -10.2 13.9 -10.35 13.9 M-14.85 16.55 L-15.35 17.15 -15.4 17.2 -15.6 17.45 -15.75 17.7 -15.9 17.95 -16.05 17.6 -16.0 17.7 -14.85 16.55 M-17.4 15.95 L-17.45 15.85 -16.95 15.75 -17.3 15.85 -17.4 15.95 M-9.5 19.95 L-10.7 20.5 Q-11.8 21.0 -11.5 19.95 -11.1 18.8 -10.3 17.85 -9.3 16.65 -7.9 16.0 -7.3 16.6 -7.25 17.25 L-7.4 17.4 -7.5 17.55 -9.5 19.95 M-4.2 16.45 L-4.15 16.5 -4.2 16.5 -4.3 16.55 -4.25 16.5 -4.2 16.45 M-5.0 17.9 L-4.55 17.75 Q-3.9 18.45 -3.75 19.15 L-3.85 19.3 -4.65 20.75 -4.9 21.2 -4.9 21.25 -4.9 21.3 -5.65 21.75 Q-6.2 22.05 -6.45 21.4 -6.8 20.5 -6.5 19.6 L-5.25 18.15 -5.0 17.9" fill="#454545" fill-rule="evenodd" stroke="none"/>
      <path d="M22.05 17.2 L22.0 17.2 21.65 16.85 21.4 16.65 20.25 15.8 Q20.3 15.4 20.95 15.05 23.75 16.15 22.05 17.2 M16.15 18.85 L16.45 19.35 16.45 19.4 Q16.95 20.5 16.7 21.9 16.65 22.35 16.15 22.0 14.2 20.65 13.35 18.2 13.05 17.3 13.9 17.05 15.4 17.75 16.1 18.8 L16.15 18.85 M9.4 19.85 Q9.3 19.15 9.55 18.5 9.7 18.15 10.1 18.15 L11.35 19.3 12.0 20.35 12.05 20.45 Q12.55 21.5 12.5 22.75 12.5 23.05 12.1 22.95 11.15 22.8 10.55 22.2 L9.85 20.7 9.65 20.35 9.4 19.9 9.4 19.85 M20.1 17.95 L20.4 19.45 Q20.4 19.75 20.0 19.6 18.2 18.9 16.65 17.45 15.25 16.15 16.95 15.6 18.85 16.5 20.1 17.95 M-12.6 16.25 L-12.3 16.05 -11.45 15.45 -11.35 15.4 -11.05 15.2 -10.1 14.7 Q-9.5 15.3 -9.4 15.95 L-10.05 16.5 Q-11.25 17.55 -11.5 18.7 -10.65 17.4 -9.45 16.45 L-9.7 17.15 -10.65 18.0 -11.15 18.5 -11.5 18.9 Q-14.2 20.8 -13.5 17.95 -13.3 17.0 -12.6 16.25 M-15.75 15.2 Q-15.6 14.2 -14.55 14.0 -12.2 15.5 -15.3 15.75 -15.8 15.8 -15.75 15.2 M-7.25 17.25 L-6.7 16.75 -6.65 16.7 -5.75 16.3 Q-5.25 16.7 -5.1 17.15 L-5.35 17.45 -5.6 17.8 -6.1 18.45 -6.05 18.45 -5.95 18.35 -6.25 19.05 -5.05 17.75 -5.0 17.75 -4.95 17.7 -4.95 17.85 -5.0 17.9 -5.25 18.15 -6.5 19.6 -7.25 20.7 -6.95 20.1 -8.35 21.8 Q-8.85 22.0 -8.85 21.4 -8.95 19.35 -7.5 17.55 L-7.4 17.4 -7.25 17.25 M-3.75 19.15 L-3.25 18.4 Q-2.9 17.95 -2.4 17.65 -1.8 18.25 -1.7 19.05 L-1.7 19.1 -2.05 19.8 -2.05 19.85 -2.9 22.0 -3.05 22.4 Q-3.7 22.8 -4.45 22.2 L-4.9 21.25 -4.9 21.2 -4.65 20.75 -3.85 19.3 -3.75 19.15" fill="#c60005" fill-rule="evenodd" stroke="none"/>
      <path d="M12.65 7.05 L12.7 7.05 12.65 7.1 12.65 7.05" fill="#c08325" fill-rule="evenodd" stroke="none"/>
    </g>
  </defs>
</svg>
