<?xml version="1.0" encoding="UTF-8" standalone="no"?>
<svg
   height="82"
   width="84.85"
   version="1.1"
   id="svg5716"
   sodipodi:docname="354.svg"
   inkscape:version="1.1.2 (0a00cf5339, 2022-02-04, custom)"
   xmlns:inkscape="http://www.inkscape.org/namespaces/inkscape"
   xmlns:sodipodi="http://sodipodi.sourceforge.net/DTD/sodipodi-0.dtd"
   xmlns:xlink="http://www.w3.org/1999/xlink"
   xmlns="http://www.w3.org/2000/svg"
   xmlns:svg="http://www.w3.org/2000/svg">
  <sodipodi:namedview
     id="namedview5718"
     pagecolor="#505050"
     bordercolor="#eeeeee"
     borderopacity="1"
     inkscape:pageshadow="0"
     inkscape:pageopacity="0"
     inkscape:pagecheckerboard="0"
     showgrid="false"
     inkscape:current-layer="svg5716" />
  <defs
     id="defs5714">
    <g
       id="a">
      <path
         d="m-.15-15.45-.15.85q-.65 1.55-1.95 2.45l-.15.1q-1.35.6-2.25-.2l.05.6.3.7q.4.65-.3 1.3-.7.6-1.2 2.15-.5 1.5.9 6.05L-6.95-.3Q-8.4-5.25-7.5-9.15l-.25.45q-.75 1.6-1.8 5.65l-.05-1.5q.05-2.2.95-4.25L-6.6-12l1.45-1.7q2.15-1.9 5-1.75M-10.3-.2l-.1.65-.25 2-.45-.6-.55-.5L-10.3-.2m29.1 1.65L18.55-.9q.55.5 1.05.65l-.8 1.7M7.35 9.6l-.35.65-.7 1.4q-1 2-1.05 4.35L5 18.15h-.05l-.2.9V19H4.1l-.85-5.25q-.35-1.65-1.2-3l-.45-.65q.35-1.55 1.35-.85l.55.6q-.15-1.45.9-1l.3.35.1.4q.45-1.15 1.05-.45l.15.5 1.35-.05"
         fill="#54483d"
         fill-rule="evenodd"
         transform="translate(11.65 19.55)"
         id="path5666" />
      <path
         d="M-6.6 5.6V.7Q-4.9.2-3.3-.7l1.65-1.1Q.3-3.3 2.9-3.25q2.9-.45 5.5.85 1.7.85 3.35 1.75l1.45.8.3.15 1 .45v4.8q-.5.1-.6.4l-1.05.4-1.75.5q-1.35.3-2.35.85l-1.4 1.9L6 9.65l-.15-.5q-.6-.7-1.05.45l-.1-.4-.3-.35q-1.05-.45-.9 1l-.55-.6q-1-.7-1.35.85l-1.45-2 .4-.55h-.9l-1.7-.4-1.45-.25-2.35-.95q-.4-.15-.75-.35"
         fill="#b09e8c"
         fill-rule="evenodd"
         transform="translate(11.65 19.55)"
         id="path5668" />
      <path
         d="M11.1 11.45v-.05l.05.05h-.05"
         fill-rule="evenodd"
         transform="translate(11.65 19.55)"
         id="path5670" />
      <path
         d="m5 18.15-.25 1.25v-.35l.2-.9H5"
         fill="#ffc"
         fill-rule="evenodd"
         transform="translate(11.65 19.55)"
         id="path5672" />
      <path
         d="M17.85-3.55q.05-2.15-.6-4.2-.7-2.25-1.9-4.15l-.15-.2-.6-.65q-1.45-1.05-2.3-1.3m-21.85 11L-10.3-.2l-.1.65-.25 2m29.45-1L18.55-.9l-.7-2.65m-18-11.9q-2.85-.15-5 1.75L-6.6-12l-2.05 3.2q-.9 2.05-.95 4.25l.05 1.5"
         fill="none"
         stroke="#000"
         stroke-linecap="round"
         stroke-linejoin="round"
         transform="translate(11.65 19.55)"
         id="path5674" />
      <path
         d="M11.1 11.45v-.05Q9.85 9.95 8.75 7.7"
         fill="none"
         stroke="#a97e01"
         stroke-linecap="round"
         stroke-linejoin="round"
         transform="translate(11.65 19.55)"
         id="path5676" />
      <path
         d="M13.15 0 14 1.4l2.05-1.6m-.9 3.05L14 1.4l-.5.3-2.35 1.5.85 1.5m-3.35 0 2.5-1.5q-.65-.8-1.6-1.35"
         fill="none"
         stroke="#7b5f2f"
         stroke-linecap="round"
         stroke-linejoin="round"
         transform="translate(11.65 19.55)"
         id="path5678" />
      <path
         d="M12.3-14.05q-.15.5-1.95.8l-3.8.3q-2 0-3.85-.55-1.95-.6-2.85-1.95 1.15.1 2.1-.4l5.8-2.65q4.9-2.15 4.55 4.45m-4.65-.6q.7-.75.75-1.75-.05 1-.75 1.75m1.75-.45.2-.4-.2.4m-3.7-.1.4-.6-.4.6"
         fill="#54483d"
         fill-rule="evenodd"
         transform="translate(11.65 19.55)"
         id="path5680" />
      <path
         d="M-.15-15.45q1.15.1 2.1-.4l5.8-2.65q4.9-2.15 4.55 4.45"
         fill="none"
         stroke="#000"
         stroke-linecap="round"
         stroke-linejoin="round"
         transform="translate(11.65 19.55)"
         id="path5682" />
      <path
         d="m6.1-15.8-.4.6m3.9-.3-.2.4m-1-1.3q-.05 1-.75 1.75"
         fill="none"
         stroke="#a97e01"
         stroke-linecap="round"
         stroke-linejoin="round"
         transform="translate(11.65 19.55)"
         id="path5684" />
    </g>
    <g
       id="d">
      <path
         d="M4.5 7.95q1.1 2.25 2.35 3.7v.05h.05l1.15 1.85 2.65-2.7.3-.3 2.05-2.75.3-.4 1.25-2.55.8-2.75q1.25 4.45 1.1 9.45v6.9l-2.95.45-1 .1.2-1.2.75-5.85q.25-2.25-.15-4.55.4 2.3.15 4.55l-.75 5.85-.2 1.2-1.55.5-.45.1-1.3.35q-2 .75-4.15.85h-.85l-2.85.65-.1.05-.95.1H0v-.85h.05l.1.85.15-.85.45-2.35 1.3-2.1 1.6-2.5q.85-1.45.85-5.85m2.35 3.75q-.35 2.45-1.15 4.55-.65 1.6-1.4 4.5l-.05.05.05-.05q.75-2.9 1.4-4.5.8-2.1 1.15-4.55M11 10.55v2.05q-.25 3.95-1.75 7.35 1.5-3.4 1.75-7.35v-2.05"
         fill="#ffc"
         fill-rule="evenodd"
         transform="translate(.5 .5)"
         id="path5687" />
      <path
         d="M.75 18.4 1 16.25q.05-2.35 1.05-4.35l.7-1.4.35-.65 1.4-1.9q0 4.4-.85 5.85l-1.6 2.5-1.3 2.1"
         fill="#333"
         fill-rule="evenodd"
         transform="translate(.5 .5)"
         id="path5689" />
      <path
         d="M.05 20.75H.3l-.15.85-.1-.85"
         fill="#54483d"
         fill-rule="evenodd"
         transform="translate(.5 .5)"
         id="path5691" />
      <path
         d="m13.55 18.9.05 3-3.05 1-5.45.8-3.75-.15-.05-2.05.1-.05 2.85-.65h.85q2.15-.1 4.15-.85l1.3-.35.45-.1 1.55-.5 1-.1"
         fill="#f1db92"
         fill-rule="evenodd"
         transform="translate(.5 .5)"
         id="path5693" />
      <path
         d="M15.4 2.1q1.25 4.45 1.1 9.45v6.9l-2.95.45.05 3-3.05 1-5.45.8-3.75-.15-.05-2.05-.95.1H0m.3-.85.45-2.35 1.3-2.1 1.6-2.5q.85-1.45.85-5.85M12.55 19l1-.1M.15 21.6l.15-.85m-.25 0 .1.85m12.4-2.6-1.55.5-.45.1-1.3.35q-2 .75-4.15.85h-.85l-2.85.65-.1.05"
         fill="none"
         stroke="#a97e01"
         stroke-linecap="round"
         stroke-linejoin="round"
         transform="translate(.5 .5)"
         id="path5695" />
      <path
         d="M13.35 7.4q.4 2.3.15 4.55l-.75 5.85-.2 1.2m-8.3 1.8.05-.05q.75-2.9 1.4-4.5.8-2.1 1.15-4.55m2.4 8.25q1.5-3.4 1.75-7.35v-2.05"
         fill="none"
         stroke="#f1db92"
         stroke-linecap="round"
         stroke-linejoin="round"
         transform="translate(.5 .5)"
         id="path5697" />
      <path
         d="M.75 18.4 1 16.25q.05-2.35 1.05-4.35l.7-1.4.35-.65 1.4-1.9"
         fill="none"
         stroke="#000"
         stroke-linecap="round"
         stroke-linejoin="round"
         transform="translate(.5 .5)"
         id="path5699" />
      <path
         d="m14.55 1.7.8-1.7q-.05 1.4.05 2.1l-.8 2.75-1.25 2.55-.3.4L11 10.55l-.3.3-2.65 2.7L6.9 11.7l-.05-.05Q5.6 10.2 4.25 7.9l2.6-.8 1.75-.5 1.05-.4q1.6-.95 2.9-2.15l2-2.35"
         fill="url(#c)"
         fill-rule="evenodd"
         transform="translate(.5 .5)"
         id="path5701" />
      <path
         d="m14.55 1.7.8-1.7q-.05 1.4.05 2.1l-.8 2.75-1.25 2.55-.3.4L11 10.55l-.3.3-2.65 2.7L6.9 11.7l-.05-.05Q5.6 10.2 4.25 7.9l2.6-.8 1.75-.5 1.05-.4q1.6-.95 2.9-2.15l2-2.35Z"
         fill="none"
         stroke="#000"
         stroke-linecap="round"
         stroke-linejoin="round"
         transform="translate(.5 .5)"
         id="path5703" />
    </g>
    <linearGradient
       gradientTransform="matrix(-.0038 .0037 -.0057 -.006 7.35 5.75)"
       gradientUnits="userSpaceOnUse"
       id="c"
       spreadMethod="pad"
       x1="-819.2"
       x2="819.2">
      <stop
         offset="0"
         id="stop5706" />
      <stop
         offset=".545"
         stop-color="#999"
         id="stop5708" />
      <stop
         offset="1"
         id="stop5710" />
    </linearGradient>
    <use
       height="24.7"
       width="17.5"
       xlink:href="#d"
       id="b" />
    <linearGradient
       gradientUnits="userSpaceOnUse"
       color-interpolation="sRGB"
       x1="10.5"
       y1="2.75"
       x2="4.1999998"
       y2="8.75"
       id="linearGradient">
      <stop
         stop-color="#000"
         stop-opacity="1"
         offset="0"
         id="stop2494" />
      <stop
         stop-color="#999"
         stop-opacity="1"
         offset="0.5451"
         id="stop2496" />
      <stop
         stop-color="#000"
         stop-opacity="1"
         offset="1"
         id="stop2498" />
    </linearGradient>
    <linearGradient
       inkscape:collect="always"
       xlink:href="#linearGradient"
       id="linearGradient5949"
       gradientUnits="userSpaceOnUse"
       x1="10.5"
       y1="2.75"
       x2="4.1999998"
       y2="8.75" />
    <linearGradient
       inkscape:collect="always"
       xlink:href="#linearGradient"
       id="linearGradient5989"
       gradientUnits="userSpaceOnUse"
       x1="10.5"
       y1="2.75"
       x2="4.1999998"
       y2="8.75" />
  </defs>
  <g
     style="display:inline"
     id="g4760"
     transform="translate(37.4,42.25)">
    <path
       fill="#f2d097"
       d="m 12.275,-14.05 q -0.139,0.502 -1.95,0.775 -1.819,0.275 -3.8,0.3 -1.976,0.025 -3.825,-0.525 -1.95,-0.6 -2.85,-1.95 -0.046,0.594 -0.15,0.825 -0.663,1.55 -1.975,2.475 -0.074,0.051 -0.15,0.1 -1.307,0.579 -2.225,-0.2 -0.124,0.225 0.025,0.575 0.149,0.35 0.325,0.725 0.417,0.665 -0.3,1.275 -0.71,0.604 -1.2,2.15 -0.487,1.548 0.9,6.075 L -6.95,-0.3 Q -8.407,-5.234 -7.5,-9.15 l -0.25,0.425 V -8.7 q -0.766,1.579 -1.8,5.65 -0.637,1.919 -0.75,2.85 -0.11,0.529 -0.125,0.65 -0.176,1.4 -0.25,1.975 0.097,0.129 0.2,0.25 1.801,1.804 3.875,2.9 V 0.7 q 1.693,-0.488 3.275,-1.4 0.855,-0.489 1.675,-1.1 1.95,-1.5 4.55,-1.45 2.9,-0.45 5.5,0.85 1.682,0.841 3.325,1.725 0.723,0.39 1.45,0.8 0.158,0.082 0.325,0.175 0.5,0.2 1,0.45 v 4.8 Q 14,5.65 13.9,5.95 15.5,5 16.8,3.8 17.846,2.867 18.8,1.45 18.726,0.277 18.525,-0.9 18.271,-2.223 17.85,-3.55 16.982,-6.343 16.6,-7.45 l -0.225,-0.5 H 16.4 q -0.088,-0.156 -0.275,-0.55 0.67,3.468 -0.775,7.9 l -2,-1.05 q 0.718,-3.671 0.675,-4.825 -0.036,-1.162 -0.3,-2 Q 13.453,-9.304 13,-9.95 q 0.8,-0.65 -0.1,-1.35 -0.35,-0.3 -0.65,-0.7 -0.645,-0.992 0.05,-2.05 h -0.025"
       id="path4712" />
    <path
       fill="#54483d"
       d="m 14.575,-12.75 q -1.415,-1.029 -2.275,-1.3 -0.695,1.058 -0.05,2.05 0.3,0.4 0.65,0.7 0.9,0.7 0.1,1.35 0.453,0.646 0.725,1.475 0.264,0.838 0.3,2 0.043,1.154 -0.675,4.825 l 2,1.05 q 1.445,-4.432 0.775,-7.9 0.187,0.394 0.275,0.55 0.148,0.357 0.2,0.5 0.382,1.107 1.25,3.9 0.05,-2.15 -0.6,-4.2 -0.687,-2.257 -1.925,-4.175 L 15.2,-12.1 q -0.278,-0.396 -0.625,-0.65"
       id="path4714" />
    <path
       fill="#b09e8c"
       d="M 8.4,-2.4 Q 5.8,-3.7 2.9,-3.25 0.3,-3.3 -1.65,-1.8 -2.47,-1.189 -3.325,-0.7 -4.907,0.212 -6.6,0.7 v 4.875 q 0.371,0.201 0.75,0.375 1.278,0.583 2.325,0.925 0.73,0.183 1.45,0.25 1.195,0.117 1.725,0.4 0.584,0.054 0.9,0.025 -0.202,0.259 -0.4,0.525 l 1.425,2 Q 1.95,8.55 2.95,9.25 3.3,9.5 3.5,9.85 3.35,8.4 4.4,8.85 4.65,8.95 4.7,9.2 4.8,9.4 4.8,9.6 5.25,8.45 5.85,9.15 6,9.35 6,9.65 6.25,9.05 7.325,9.6 L 8.75,7.7 Q 9.735,7.146 11.075,6.825 12.407,6.501 12.85,6.35 13.298,6.2 13.9,5.95 14,5.65 14.5,5.55 V 0.75 Q 14,0.5 13.5,0.3 13.333,0.207 13.175,0.125 12.448,-0.285 11.725,-0.675 10.082,-1.559 8.4,-2.4"
       id="path4716" />
    <path
       fill="#54483d"
       d="M 19.6,-0.25 Q 19.079,-0.392 18.525,-0.9 18.726,0.277 18.8,1.45 19.105,1 19.6,-0.25"
       id="path4718" />
    <path
       fill="#000000"
       d="m 11.075,11.425 0.075,0.025 q -0.035,-0.041 -0.075,-0.075 -0.003,0.025 0,0.05"
       id="path4720" />
    <path
       fill="#54483d"
       d="m 1.575,10.075 q 0.246,0.327 0.45,0.675 0.865,1.362 1.225,3 0.349,1.513 0.85,5.25 h 0.65 v 0.05 q 0.145,-0.851 0.2,-0.9 L 4.975,18.125 Q 5.223,16.576 5.25,16 5.3,13.65 6.3,11.65 6.64,10.935 7,10.25 7.157,9.919 7.325,9.6 6.25,9.05 6,9.65 6,9.35 5.85,9.15 5.25,8.45 4.8,9.6 4.8,9.4 4.7,9.2 4.65,8.95 4.4,8.85 3.35,8.4 3.5,9.85 3.3,9.5 2.95,9.25 q -1,-0.7 -1.375,0.825"
       id="path4722" />
    <path
       fill="#ffffcc"
       d="M 4.975,18.125 4.95,18.15 q -0.055,0.049 -0.2,0.9 v 0.35 q 0.128,-0.699 0.225,-1.275"
       id="path4724" />
    <path
       fill="#54483d"
       d="m -0.15,-15.45 q -2.853,-0.153 -5.025,1.725 -0.906,0.783 -1.45,1.7 -1.225,1.475 -2.025,3.225 -0.9,2.05 -0.95,4.25 0,0.75 0.05,1.5 1.034,-4.071 1.8,-5.65 V -8.725 L -7.5,-9.15 q -0.907,3.916 0.55,8.85 l 2.05,-1.15 q -1.387,-4.527 -0.9,-6.075 0.49,-1.546 1.2,-2.15 0.717,-0.61 0.3,-1.275 -0.176,-0.375 -0.325,-0.725 -0.149,-0.35 -0.025,-0.575 0.918,0.779 2.225,0.2 0.076,-0.049 0.15,-0.1 1.312,-0.925 1.975,-2.475 0.104,-0.231 0.15,-0.825"
       id="path4726" />
    <path
       fill="#54483d"
       d="m -11.1,1.85 q 0.207,0.306 0.425,0.575 0.074,-0.575 0.25,-1.975 0.015,-0.121 0.125,-0.65 -0.7,0.7 -1.35,1.55 0.388,0.242 0.55,0.5"
       id="path4728" />
    <path
       fill="none"
       stroke="#333333"
       stroke-width="1"
       stroke-linecap="round"
       stroke-linejoin="round"
       vector-effect="non-scaling-stroke"
       d="M 12.275,-14.05 H 12.3"
       id="path4730" />
    <path
       fill="none"
       stroke="#000000"
       stroke-linecap="round"
       stroke-linejoin="round"
       d="m -5.175,-13.725 q 2.172,-1.878 5.025,-1.725 m -6.475,3.425 q 0.544,-0.917 1.45,-1.7 M -8.65,-8.8 q 0.8,-1.75 2.025,-3.225 M -9.6,-4.55 q 0.05,-2.2 0.95,-4.25 m -0.9,5.75 Q -9.6,-3.8 -9.6,-4.55 m -0.7,4.35 q 0.113,-0.931 0.75,-2.85 m 27.4,-0.5 q 0.421,1.327 0.675,2.65 M 17.25,-7.75 q 0.65,2.05 0.6,4.2 m -2.525,-8.375 q 1.238,1.918 1.925,4.175 m -2.05,-4.35 0.125,0.175 m -0.75,-0.825 q 0.347,0.254 0.625,0.65 m -2.9,-1.95 q 0.86,0.271 2.275,1.3"
       id="path4732" />
    <path
       fill="none"
       stroke="#a97e01"
       stroke-linecap="round"
       stroke-linejoin="round"
       d="m 11.075,11.425 q -0.003,-0.025 0,-0.05 M 8.75,7.7 q 1.125,2.247 2.325,3.675"
       id="path4734" />
    <path
       fill="none"
       stroke="#000000"
       stroke-linecap="round"
       stroke-linejoin="round"
       d="m -10.3,-0.2 q -0.11,0.529 -0.125,0.65 -0.176,1.4 -0.25,1.975 M 18.8,1.45 Q 18.726,0.277 18.525,-0.9"
       id="path4736" />
    <path
       fill="none"
       stroke="#7b5f2f"
       stroke-linecap="round"
       stroke-linejoin="round"
       d="M 15.15,2.825 Q 14.526,2.123 14,1.375 13.756,1.543 13.5,1.7 12.335,2.438 11.15,3.175 11.696,3.843 12,4.7 M 11.15,3.175 Q 9.898,3.938 8.625,4.7 M 11.15,3.175 Q 10.503,2.382 9.525,1.85 M 14,1.375 q -0.477,-0.681 -0.875,-1.4 M 14,1.375 q 1.064,-0.73 2.025,-1.575"
       id="path4738" />
    <path
       fill="#54483d"
       d="m 10.325,-13.275 q 1.811,-0.273 1.95,-0.775 0.383,-6.579 -4.525,-4.45 -4.896,2.139 -5.825,2.65 -0.929,0.499 -2.075,0.4 0.9,1.35 2.85,1.95 1.849,0.55 3.825,0.525 1.981,-0.025 3.8,-0.3"
       id="path4740" />
    <path
       fill="#54483d"
       d="m 6.1,-15.8 q -0.2,0.3 -0.4,0.6 0.2,-0.3 0.4,-0.6"
       id="path4742" />
    <path
       fill="#54483d"
       d="m 9.6,-15.5 q -0.1,0.2 -0.2,0.4 0.1,-0.2 0.2,-0.4"
       id="path4744" />
    <path
       fill="#54483d"
       d="m 8.4,-16.4 q -0.05,1 -0.75,1.75 0.7,-0.75 0.75,-1.75"
       id="path4746" />
    <path
       fill="none"
       stroke="#000000"
       stroke-linecap="round"
       stroke-linejoin="round"
       d="m 12.275,-14.05 q 0.383,-6.579 -4.525,-4.45 -4.896,2.139 -5.825,2.65 -0.929,0.499 -2.075,0.4"
       id="path4748" />
    <path
       fill="none"
       stroke="#a97e01"
       stroke-linecap="round"
       stroke-linejoin="round"
       d="m 6.1,-15.8 q -0.2,0.3 -0.4,0.6"
       id="path4750" />
    <path
       fill="none"
       stroke="#a97e01"
       stroke-linecap="round"
       stroke-linejoin="round"
       d="m 9.6,-15.5 q -0.1,0.2 -0.2,0.4"
       id="path4752" />
    <path
       fill="none"
       stroke="#a97e01"
       stroke-linecap="round"
       stroke-linejoin="round"
       d="m 8.4,-16.4 q -0.05,1 -0.75,1.75"
       id="path4754" />
    <g
       id="use4756"
       transform="translate(4.25,-0.199)">
      <path
         fill="#ffffcc"
         d="m 16.5,11.55 q 0.15,-5 -1.1,-9.45 -0.3,1.4 -0.8,2.75 -0.45,1.2 -1.25,2.55 0.4,2.3 0.15,4.55 -0.1,1.05 -0.75,5.85 -0.1,0.55 -0.2,1.2 0.5,-0.05 1,-0.1 1.3,-0.15 2.95,-0.45 v -6.9"
         id="path5911" />
      <path
         fill="#ffffcc"
         d="M 11,10.55 Q 10.85,10.7 10.7,10.85 9.4,12.2 8.05,13.55 7.65,12.7 6.9,11.7 H 6.85 q -0.35,2.45 -1.15,4.55 -0.65,1.6 -1.4,4.5 -0.05,0 -0.05,0.05 0.45,0 0.85,0 2.15,-0.1 4.15,-0.85 1.5,-3.4 1.75,-7.35 0.05,-1.05 0,-2.05"
         id="path5913" />
      <path
         fill="#ffffcc"
         d="M 13.05,7.8 Q 12.1,9.2 11,10.55 q 0.05,1 0,2.05 -0.25,3.95 -1.75,7.35 0.65,-0.25 1.3,-0.35 0.2,-0.05 0.45,-0.1 0.85,-0.1 1.55,-0.5 0.1,-0.65 0.2,-1.2 Q 13.4,13 13.5,11.95 13.75,9.7 13.35,7.4 13.2,7.6 13.05,7.8"
         id="path5915" />
      <path
         fill="#ffffcc"
         d="M 6.85,11.65 Q 5.6,10.2 4.5,7.95 q 0,4.4 -0.85,5.85 -0.85,1.4 -1.6,2.5 -0.75,1.05 -1.3,2.1 -0.2,0.95 -0.45,2.35 -0.1,0.4 -0.15,0.85 0.1,0 0.2,0 0.4,-0.05 0.95,-0.1 0.05,-0.05 0.1,-0.05 1.4,-0.25 2.85,-0.65 0,-0.05 0.05,-0.05 0.75,-2.9 1.4,-4.5 0.8,-2.1 1.15,-4.55 -0.05,-0.05 0,-0.05"
         id="path5917" />
      <path
         fill="#333333"
         d="M 4.5,7.95 3.1,9.85 Q 2.9,10.15 2.75,10.5 2.4,11.2 2.05,11.9 1.05,13.9 1,16.25 0.95,16.85 0.75,18.4 1.3,17.35 2.05,16.3 2.8,15.2 3.65,13.8 4.5,12.35 4.5,7.95"
         id="path5919" />
      <path
         fill="#ffffcc"
         d="M 0.05,20.75 H 0 V 21.6 H 0.15 Q 0.1,21.15 0.05,20.75"
         id="path5921" />
      <path
         fill="#54483d"
         d="M 0.3,20.75 H 0.05 q 0.05,0.4 0.1,0.85 0.05,-0.45 0.15,-0.85"
         id="path5923" />
      <path
         fill="#f1db92"
         d="m 1.4,21.45 q -0.05,0 -0.1,0.05 l 0.05,2.05 q 1.9,0.2 3.75,0.15 2.75,-0.15 5.45,-0.8 1.55,-0.4 3.05,-1 l -0.05,-3 q -0.5,0.05 -1,0.1 -0.7,0.4 -1.55,0.5 -0.25,0.05 -0.45,0.1 -0.65,0.1 -1.3,0.35 -2,0.75 -4.15,0.85 -0.4,0 -0.85,0 -1.45,0.4 -2.85,0.65"
         id="path5925" />
      <path
         fill="none"
         stroke="#a97e01"
         stroke-linecap="round"
         stroke-linejoin="round"
         d="m 0.3,20.75 q 0.25,-1.4 0.45,-2.35 m -0.6,3.2 H 0 m 0.35,0 q -0.1,0 -0.2,0 M 1.3,21.5 q -0.55,0.05 -0.95,0.1 m 1,1.95 L 1.3,21.5 m 3.8,2.2 Q 3.25,23.75 1.35,23.55 m 9.2,-0.65 q -2.7,0.65 -5.45,0.8 m 8.5,-1.8 q -1.5,0.6 -3.05,1 m 3,-4 0.05,3 m 2.9,-3.45 q -1.65,0.3 -2.95,0.45 m 2.95,-7.35 v 6.9 M 15.4,2.1 q 1.25,4.45 1.1,9.45"
         id="path5927" />
      <path
         fill="none"
         stroke="#000000"
         stroke-linecap="round"
         stroke-linejoin="round"
         d="M 3.1,9.85 4.5,7.95 M 2.75,10.5 Q 2.9,10.15 3.1,9.85 M 2.05,11.9 Q 2.4,11.2 2.75,10.5 M 1,16.25 Q 1.05,13.9 2.05,11.9 m -1.3,6.5 Q 0.95,16.85 1,16.25"
         id="path5929" />
      <path
         fill="none"
         stroke="#f1db92"
         stroke-linecap="round"
         stroke-linejoin="round"
         d="m 13.35,7.4 q 0.4,2.3 0.15,4.55 -0.1,1.05 -0.75,5.85 -0.1,0.55 -0.2,1.2"
         id="path5931" />
      <path
         fill="none"
         stroke="#a97e01"
         stroke-linecap="round"
         stroke-linejoin="round"
         d="m 12.55,19 q 0.5,-0.05 1,-0.1"
         id="path5933" />
      <path
         fill="none"
         stroke="#f1db92"
         stroke-linecap="round"
         stroke-linejoin="round"
         d="m 6.85,11.7 q -0.35,2.45 -1.15,4.55 -0.65,1.6 -1.4,4.5 -0.05,0 -0.05,0.05 m 5,-0.85 q 1.5,-3.4 1.75,-7.35 0.05,-1.05 0,-2.05"
         id="path5935" />
      <path
         fill="none"
         stroke="#a97e01"
         stroke-linecap="round"
         stroke-linejoin="round"
         d="m 4.25,20.8 q 0.45,0 0.85,0 2.15,-0.1 4.15,-0.85"
         id="path5937" />
      <path
         fill="none"
         stroke="#a97e01"
         stroke-linecap="round"
         stroke-linejoin="round"
         d="M 9.25,19.95 Q 9.9,19.7 10.55,19.6 10.75,19.55 11,19.5 11.85,19.4 12.55,19"
         id="path5939" />
      <path
         fill="none"
         stroke="#a97e01"
         stroke-linecap="round"
         stroke-linejoin="round"
         d="m 4.5,7.95 q 0,4.4 -0.85,5.85 -0.85,1.4 -1.6,2.5 -0.75,1.05 -1.3,2.1 M 0.3,20.75 Q 0.2,21.15 0.15,21.6 M 1.3,21.5 Q 1.35,21.45 1.4,21.45 2.8,21.2 4.25,20.8"
         id="path5941" />
      <path
         fill="none"
         stroke="#a97e01"
         stroke-linecap="round"
         stroke-linejoin="round"
         d="M 0.15,21.6 Q 0.1,21.15 0.05,20.75"
         id="path5943" />
      <path
         fill="url(#linearGradient)"
         stroke="#000000"
         stroke-linecap="round"
         stroke-linejoin="round"
         d="m 15.35,0 q -0.5,1.25 -0.8,1.7 -0.95,1.4 -2,2.35 -1.3,1.2 -2.9,2.15 Q 9.05,6.45 8.6,6.6 8.15,6.75 6.85,7.1 5.5,7.4 4.25,7.9 5.6,10.2 6.85,11.65 L 6.9,11.7 q 0.75,1 1.15,1.85 Q 9.4,12.2 10.7,10.85 10.85,10.7 11,10.55 12.1,9.2 13.05,7.8 13.2,7.6 13.35,7.4 14.15,6.05 14.6,4.85 15.1,3.5 15.4,2.1 15.3,1.4 15.35,0"
         id="path5945"
         style="fill:url(#linearGradient5949)" />
    </g>
    <g
       id="use4758"
       transform="matrix(-1,0,0,1,4.55,-0.149)">
      <path
         fill="#ffffcc"
         d="m 16.5,11.55 q 0.15,-5 -1.1,-9.45 -0.3,1.4 -0.8,2.75 -0.45,1.2 -1.25,2.55 0.4,2.3 0.15,4.55 -0.1,1.05 -0.75,5.85 -0.1,0.55 -0.2,1.2 0.5,-0.05 1,-0.1 1.3,-0.15 2.95,-0.45 v -6.9"
         id="path5951" />
      <path
         fill="#ffffcc"
         d="M 11,10.55 Q 10.85,10.7 10.7,10.85 9.4,12.2 8.05,13.55 7.65,12.7 6.9,11.7 H 6.85 q -0.35,2.45 -1.15,4.55 -0.65,1.6 -1.4,4.5 -0.05,0 -0.05,0.05 0.45,0 0.85,0 2.15,-0.1 4.15,-0.85 1.5,-3.4 1.75,-7.35 0.05,-1.05 0,-2.05"
         id="path5953" />
      <path
         fill="#ffffcc"
         d="M 13.05,7.8 Q 12.1,9.2 11,10.55 q 0.05,1 0,2.05 -0.25,3.95 -1.75,7.35 0.65,-0.25 1.3,-0.35 0.2,-0.05 0.45,-0.1 0.85,-0.1 1.55,-0.5 0.1,-0.65 0.2,-1.2 Q 13.4,13 13.5,11.95 13.75,9.7 13.35,7.4 13.2,7.6 13.05,7.8"
         id="path5955" />
      <path
         fill="#ffffcc"
         d="M 6.85,11.65 Q 5.6,10.2 4.5,7.95 q 0,4.4 -0.85,5.85 -0.85,1.4 -1.6,2.5 -0.75,1.05 -1.3,2.1 -0.2,0.95 -0.45,2.35 -0.1,0.4 -0.15,0.85 0.1,0 0.2,0 0.4,-0.05 0.95,-0.1 0.05,-0.05 0.1,-0.05 1.4,-0.25 2.85,-0.65 0,-0.05 0.05,-0.05 0.75,-2.9 1.4,-4.5 0.8,-2.1 1.15,-4.55 -0.05,-0.05 0,-0.05"
         id="path5957" />
      <path
         fill="#333333"
         d="M 4.5,7.95 3.1,9.85 Q 2.9,10.15 2.75,10.5 2.4,11.2 2.05,11.9 1.05,13.9 1,16.25 0.95,16.85 0.75,18.4 1.3,17.35 2.05,16.3 2.8,15.2 3.65,13.8 4.5,12.35 4.5,7.95"
         id="path5959" />
      <path
         fill="#ffffcc"
         d="M 0.05,20.75 H 0 V 21.6 H 0.15 Q 0.1,21.15 0.05,20.75"
         id="path5961" />
      <path
         fill="#54483d"
         d="M 0.3,20.75 H 0.05 q 0.05,0.4 0.1,0.85 0.05,-0.45 0.15,-0.85"
         id="path5963" />
      <path
         fill="#f1db92"
         d="m 1.4,21.45 q -0.05,0 -0.1,0.05 l 0.05,2.05 q 1.9,0.2 3.75,0.15 2.75,-0.15 5.45,-0.8 1.55,-0.4 3.05,-1 l -0.05,-3 q -0.5,0.05 -1,0.1 -0.7,0.4 -1.55,0.5 -0.25,0.05 -0.45,0.1 -0.65,0.1 -1.3,0.35 -2,0.75 -4.15,0.85 -0.4,0 -0.85,0 -1.45,0.4 -2.85,0.65"
         id="path5965" />
      <path
         fill="none"
         stroke="#a97e01"
         stroke-linecap="round"
         stroke-linejoin="round"
         d="m 0.3,20.75 q 0.25,-1.4 0.45,-2.35 m -0.6,3.2 H 0 m 0.35,0 q -0.1,0 -0.2,0 M 1.3,21.5 q -0.55,0.05 -0.95,0.1 m 1,1.95 L 1.3,21.5 m 3.8,2.2 Q 3.25,23.75 1.35,23.55 m 9.2,-0.65 q -2.7,0.65 -5.45,0.8 m 8.5,-1.8 q -1.5,0.6 -3.05,1 m 3,-4 0.05,3 m 2.9,-3.45 q -1.65,0.3 -2.95,0.45 m 2.95,-7.35 v 6.9 M 15.4,2.1 q 1.25,4.45 1.1,9.45"
         id="path5967" />
      <path
         fill="none"
         stroke="#000000"
         stroke-linecap="round"
         stroke-linejoin="round"
         d="M 3.1,9.85 4.5,7.95 M 2.75,10.5 Q 2.9,10.15 3.1,9.85 M 2.05,11.9 Q 2.4,11.2 2.75,10.5 M 1,16.25 Q 1.05,13.9 2.05,11.9 m -1.3,6.5 Q 0.95,16.85 1,16.25"
         id="path5969" />
      <path
         fill="none"
         stroke="#f1db92"
         stroke-linecap="round"
         stroke-linejoin="round"
         d="m 13.35,7.4 q 0.4,2.3 0.15,4.55 -0.1,1.05 -0.75,5.85 -0.1,0.55 -0.2,1.2"
         id="path5971" />
      <path
         fill="none"
         stroke="#a97e01"
         stroke-linecap="round"
         stroke-linejoin="round"
         d="m 12.55,19 q 0.5,-0.05 1,-0.1"
         id="path5973" />
      <path
         fill="none"
         stroke="#f1db92"
         stroke-linecap="round"
         stroke-linejoin="round"
         d="m 6.85,11.7 q -0.35,2.45 -1.15,4.55 -0.65,1.6 -1.4,4.5 -0.05,0 -0.05,0.05 m 5,-0.85 q 1.5,-3.4 1.75,-7.35 0.05,-1.05 0,-2.05"
         id="path5975" />
      <path
         fill="none"
         stroke="#a97e01"
         stroke-linecap="round"
         stroke-linejoin="round"
         d="m 4.25,20.8 q 0.45,0 0.85,0 2.15,-0.1 4.15,-0.85"
         id="path5977" />
      <path
         fill="none"
         stroke="#a97e01"
         stroke-linecap="round"
         stroke-linejoin="round"
         d="M 9.25,19.95 Q 9.9,19.7 10.55,19.6 10.75,19.55 11,19.5 11.85,19.4 12.55,19"
         id="path5979" />
      <path
         fill="none"
         stroke="#a97e01"
         stroke-linecap="round"
         stroke-linejoin="round"
         d="m 4.5,7.95 q 0,4.4 -0.85,5.85 -0.85,1.4 -1.6,2.5 -0.75,1.05 -1.3,2.1 M 0.3,20.75 Q 0.2,21.15 0.15,21.6 M 1.3,21.5 Q 1.35,21.45 1.4,21.45 2.8,21.2 4.25,20.8"
         id="path5981" />
      <path
         fill="none"
         stroke="#a97e01"
         stroke-linecap="round"
         stroke-linejoin="round"
         d="M 0.15,21.6 Q 0.1,21.15 0.05,20.75"
         id="path5983" />
      <path
         fill="url(#linearGradient)"
         stroke="#000000"
         stroke-linecap="round"
         stroke-linejoin="round"
         d="m 15.35,0 q -0.5,1.25 -0.8,1.7 -0.95,1.4 -2,2.35 -1.3,1.2 -2.9,2.15 Q 9.05,6.45 8.6,6.6 8.15,6.75 6.85,7.1 5.5,7.4 4.25,7.9 5.6,10.2 6.85,11.65 L 6.9,11.7 q 0.75,1 1.15,1.85 Q 9.4,12.2 10.7,10.85 10.85,10.7 11,10.55 12.1,9.2 13.05,7.8 13.2,7.6 13.35,7.4 14.15,6.05 14.6,4.85 15.1,3.5 15.4,2.1 15.3,1.4 15.35,0"
         id="path5985"
         style="fill:url(#linearGradient5989)" />
    </g>
    <animate
       attributeName="display"
       repeatCount="indefinite"
       dur="4.95s"
       keyTimes="0;0.374;0.384;1"
       values="none;inline;none;none" />
  </g>
</svg>
