<svg height="82" width="84.85" xmlns="http://www.w3.org/2000/svg"><g style="display:inline" transform="translate(37.425 42.275)"><path fill="#fff" d="M18.951-1.249q-1.4-4.6-3.55-8.75-2.4-4.55-7.15-6.6-1.804-.749-3.7-.8-.89-.028-1.8.1-4.602 1.2-7.725 4.925-3.121 3.728-4.925 8.65-1.811 4.923-2.025 9.325-.207 4.398 2.3 8.325 2.493 3.927 7.125 5.5 3.426 1.162 7.05 1.15 1.288-.018 2.6-.175 4.95-.85 8.75-4.05 3.85-3.15 4.2-8.1.3-4.8-1.15-9.5"/><path fill="#fc0" d="M19.725 4.125 16.1 6.075l-10.225 2.4-13.125-2.95-4.7-1.675q-.492 3.881.7 7.3.219 1.453 2.15 2.05.415.064.825.125 4.187.335 7.15.525-.375-.655-.375-1.2v-.2q.1-.85.8-1.35.8-.55 1.55-.35.45.15.95.7 1.35-.5 2.1-.5.274 0 .5.025.224.05.4.125.35-.2.85-.3.8 0 2.05.65.35-.35.85-.45l1.25.25.65 1.1.05.2q0 .474-.5 1.225 1.122-.124 7.8-.475.162-.022.325-.05.318-.045.65-.1 2.405-4.32.95-9.025"/><path d="M1.8 11.45q-.5-.55-.95-.7-.75-.2-1.55.35-.7.5-.8 1.35v.2q0 .545.375 1.2.083.181.2.35l.025.05q-.05.45-.2 1.35l.1.525v.025q-.55.35-.75.95l-.05.4q0 .7.6 1.35.7.8 1.6.8.85.05 1.7-.6 2.5.25 5-.3.75.75 1.4.8.95.1 1.7-.75.6-.6.6-1.35l-.05-.5q-.2-.45-.75-.8v-.05l.1-1.15q0-.038-.1-.675-.015-.18-.05-.425l.05-.075q.5-.751.5-1.225l-.05-.2-.65-1.1L8.55 11q-.5.1-.85.45-1.25-.65-2.05-.65-.5.1-.85.3-.176-.075-.4-.125-.226-.025-.5-.025-.75 0-2.1.5"/><path fill="#6196b6" d="M4.95 12.35H4.8q-.15-.4-.9-.4-1 0-2.5.7-.65-1.4-1.5-.75-1 .7.25 2.1-.45 1.5-.05 2.75-1.45.45-.55 1.45.9 1 2.3-.2 2.65.4 5.6-.3.95 1.55 2.05.4.95-1.05-.75-1.35.65-1.35.15-3.2 1-1 .35-1.45-.65-.45-1.35.6-1.5-.95-2.15-.9-.55.05-.8.55"/><path fill="#98cce4" d="M7.55 14.15q-.65-.9-2.4-.9-3.35 0-4 .6-.45.35-.35 1.6.1 1.15.5 1.65.35.4 2.8.2 2.4-.15 3.3-.55 1.55-.65.15-2.6"/><path fill="#d5a89f" d="M10 14.275q.1.637.1.675L10 16.1q1.697-.184 3.6-.475 1.89-.302 3.975-.7.088-.008.175-.025l1.8-1.9q-.271.048-.525.1l-.125.025q-.061.01-.125.025-.332.055-.65.1-.163.028-.325.05-.622.108-1.225.2-3.534.536-6.575.775"/><path fill="#839ac0" d="M10 16.1v.05q.55.35.75.8l.05.5q0 .75-.6 1.35-.75.85-1.7.75-.65-.05-1.4-.8-2.5.55-5 .3-.85.65-1.7.6-.9 0-1.6-.8-.6-.65-.6-1.35l.05-.4q.2-.6.75-.95v-.025l-.425-.025q-2.948-.187-6.525-.575l1.2 1.375 1.5.85 5 2.1 4.75.5L12.25 19l2.65-1.65q.25-.1 2.35-2l.125-.175-3.775.45q-1.903.291-3.6.475"/><path fill="#55eee5" d="m18.9 13.125.125-.025.075-.1q-.103.059-.2.125m-1.525 2.05.2-.25q-2.085.398-3.975.7l3.775-.45"/><path fill="#d5a89f" d="m-.9 14.25-.025-.05q-3.364-.284-7.35-.875-.455-.037-.925-.125-.148-.027-1-.25l.875.5 1.175 2.05 6.725.6.425.025-.1-.525q.15-.9.2-1.35"/><path fill="#e7e278" d="M-.925 14.2q-.117-.169-.2-.35-2.963-.19-7.15-.525 3.986.591 7.35.875"/><path fill="#d5a89f" d="M-8.275 13.325q-.41-.061-.825-.125-.047-.004-.1 0 .47.088.925.125m.125 2.175.2.025q3.577.388 6.525.575l-6.725-.6"/><path fill="none" stroke="#776456" stroke-linecap="round" stroke-linejoin="round" d="M-8.275 13.325q4.187.335 7.15.525M10 13.775q1.122-.124 7.8-.475M10 16.1q1.697-.184 3.6-.475m-14.6.5-.425-.025m18.8-.925-3.775.45m-21.875-2.3q-.455-.037-.925-.125m1.05 2.3 6.725.6"/><path fill="none" stroke="#000" stroke-linecap="round" stroke-linejoin="round" d="M18.951-1.249q-1.4-4.6-3.55-8.75-2.4-4.55-7.15-6.6-2.65-1.1-5.5-.7-4.602 1.2-7.725 4.925-3.121 3.728-4.925 8.65-1.811 4.923-2.025 9.325-.207 4.398 2.3 8.325 2.493 3.927 7.125 5.5 4.644 1.574 9.65.975 4.95-.85 8.75-4.05 3.85-3.15 4.2-8.1.3-4.8-1.15-9.5"/><path fill="#e4192b" d="m17.825-7.3-.225.9q.123.303.25.6h.025q.533 1.313 1 2.7l.5-1.05q.572-1.085 1.85-1.35 2.064-.45 4.075 1.525l.25.175h.025q3.396-1.83 3.9-9.95-1.702 3.371-4.025 4.15-1.107.39-2.225-.125-1.17-.562-2.675-.175-1.817.475-2.725 2.6"/><path fill="#e4192b" d="m18.9-5.7.525-1.025q.778-1 2.025-1.05 2.005-.101 4.45.5-2.445-.601-4.45-.5-1.247.05-2.025 1.05L18.9-5.7m-.025 2.6q.233.688.45 1.4.024.074.025.15.006.04.025.1.251.769.45 1.55.146.609.25 1.225-.189.15-.55.45-.899.741-3.975 2.075l-2.3 2.35 2.3-2.35q-.756.332-1.65.7Q9 6.6 4.65 6.7q-6.4.3-9.5-1.4-4.173-2.177-5.95-2.875-.598-.233-.925-.3-.229-.003-.4.05-.823.992-.725 1.875.005.033.025.075.039.042.075.075l5.9 4.65q1.225.81 2.35 1.45 8.583 4.99 9.05 5 .559-.016 2.4-1.1 3.742-2.191 12.8-8.8.422-.065 1-.625.598-1.595-.3-3.4L23 2q3.303.503 5.325-.075l.1.075h.25l-.175-.125q.458-.145.85-.35 3.449-1.838 4.4-4.325-3.067.63-4.575.6-.534.372-2.225-.675L25.7-3.7q-.084-.034-.175-.075l.025-.025-.25-.175Q23.289-5.95 21.225-5.5q-1.278.265-1.85 1.35l-.5 1.05M-4.5 10.3q-1.125-.64-2.35-1.45l.4.3q9.445 6.147 11 6.15-.467-.01-9.05-5m-7.625-8.125q-.823.992-.725 1.875.005.033.025.075-.471-.55.375-1.725.125-.146.325-.225"/><path fill="#e4192b" d="M20.725-3.525q.735-.584 1.575-.325 1.296.389 3.525 2.225l3.25.6-3.25-.6Q23.596-3.461 22.3-3.85q-.84-.259-1.575.325l-.575.675.575-.675M15.55 6.3l3.35-2-3.35 2M5.4 9.9q.85-.05 2.35-.7-1.5.65-2.35.7l-2.2-.55-4.5-2.15 4.5 2.15 2.2.55"/><path fill="#e4192b" d="M5.7 12.85q1.85-.6 6.05-3.1-4.2 2.5-6.05 3.1-1.8.6-5.75-3.05 3.95 3.65 5.75 3.05m-15.8-9.2 3 1.5-3-1.5"/><path fill="#b70216" d="M20.8 5.175v-.45l-.05.05q-.578.56-1 .625-9.058 6.609-12.8 8.8.103.068.2.125.556-.363 1.15-.875l5.5-3.15-5.5 3.15q-.594.512-1.15.875 2.365 1.506 3.5.825.2-.15 4-4.2t5.4-5.15q.386-.258.65-.525.05-.052.1-.1"/><path fill="#e4192b" d="M20.8 5.175q-.05.048-.1.1l.1.025v-.125M-10.05 6.5q1.676 1.313 3.2 2.35l-5.9-4.65q-.036-.033-.075-.075.284.472 2.775 2.375m-2.075-4.325q.171-.053.4-.05-.308-.061-.375.025l-.025.025"/><path fill="none" stroke="#b70216" stroke-linecap="round" stroke-linejoin="round" d="M-11.45 2.15q.4.05.65.275m-.925-.3q.128.004.275.025m-1 .25q.125-.146.325-.225m-.7 1.95q-.471-.55.375-1.725m6 6.75-.4-.3m11.4 6.45q-1.555-.003-11-6.15m13.6 5.175q-1.442.975-2.6.975m22.4-18.175q1.691 1.047 2.225.675M25.7-3.7l1.25.825M18.875-3.1l.5-1.05q.572-1.085 1.85-1.35 2.064-.45 4.075 1.525l.25.175"/><path fill="none" stroke="#fb85b0" stroke-linecap="round" stroke-linejoin="round" d="m18.9-5.7.525-1.025q.778-1 2.025-1.05 2.005-.101 4.45.5M15.55 3.85l-2.3 2.35"/><path fill="none" stroke="#b70216" stroke-linecap="round" stroke-linejoin="round" d="M-11.725 2.125q-.229-.003-.4.05m-.7 1.95q.039.042.075.075l5.9 4.65"/><path fill="none" stroke="#fb85b0" stroke-linecap="round" stroke-linejoin="round" d="M20.725-3.525q.735-.584 1.575-.325 1.296.389 3.525 2.225l3.25.6m-8.35-2.5-.575.675"/><path fill="none" stroke="#b70216" stroke-linecap="round" stroke-linejoin="round" d="m15.55 6.3 3.35-2"/><path fill="none" stroke="#fb85b0" stroke-linecap="round" stroke-linejoin="round" d="M5.4 9.9q.85-.05 2.35-.7m-2.35.7-2.2-.55-4.5-2.15"/><path fill="none" stroke="#b70216" stroke-linecap="round" stroke-linejoin="round" d="M5.7 12.85q1.85-.6 6.05-3.1m-6.05 3.1q-1.8.6-5.75-3.05M-10.1 3.65l3 1.5m14.25 9.175q.556-.363 1.15-.875l5.5-3.15"/></g></svg>