<?xml version="1.0" encoding="UTF-8" standalone="no"?>
<svg
   height="82"
   width="84.85"
   version="1.1"
   id="svg11996"
   sodipodi:docname="362.svg"
   inkscape:version="1.1.2 (0a00cf5339, 2022-02-04, custom)"
   xmlns:inkscape="http://www.inkscape.org/namespaces/inkscape"
   xmlns:sodipodi="http://sodipodi.sourceforge.net/DTD/sodipodi-0.dtd"
   xmlns:xlink="http://www.w3.org/1999/xlink"
   xmlns="http://www.w3.org/2000/svg"
   xmlns:svg="http://www.w3.org/2000/svg">
  <sodipodi:namedview
     id="namedview11998"
     pagecolor="#505050"
     bordercolor="#eeeeee"
     borderopacity="1"
     inkscape:pageshadow="0"
     inkscape:pageopacity="0"
     inkscape:pagecheckerboard="0"
     showgrid="false"
     inkscape:current-layer="svg11996" />
  <defs
     id="defs11994">
    <path
       d="M27.35 7.4q2.15 4.15 3.55 8.75 1.45 4.7 1.15 9.5-.35 4.95-4.2 8.1-3.8 3.2-8.75 4.05l-2.6.2q-3.6 0-7.05-1.15-4.65-1.6-7.1-5.5Q-.2 27.4.05 23q.2-4.4 2-9.3Q3.85 8.75 7 5.05 10.1 1.3 14.7.1l1.8-.1q1.9.05 3.7.8 4.75 2.05 7.15 6.6"
       fill="#fff"
       fill-rule="evenodd"
       transform="translate(-.05)"
       id="e" />
    <path
       d="M27.35 7.4Q24.95 2.85 20.2.8 17.55-.3 14.7.1 10.1 1.3 7 5.05q-3.15 3.7-4.95 8.65-1.8 4.9-2 9.3-.25 4.4 2.3 8.35 2.45 3.9 7.1 5.5 4.65 1.55 9.65.95 4.95-.85 8.75-4.05 3.85-3.15 4.2-8.1.3-4.8-1.15-9.5-1.4-4.6-3.55-8.75Z"
       fill="none"
       stroke="#000"
       stroke-linecap="round"
       stroke-linejoin="round"
       transform="translate(.45 .5)"
       id="f" />
    <use
       height="38"
       width="32.05"
       xlink:href="#e"
       id="a" />
    <use
       height="38.95"
       width="33.05"
       xlink:href="#f"
       id="c" />
    <g
       id="b">
      <path
         d="m18.9 13.15.2-.15-.05.1-.15.05m-1.3 1.8-.2.25-3.8.45 4-.7"
         fill="#55eee5"
         fill-rule="evenodd"
         transform="translate(12.1 -3.85)"
         id="path11966" />
      <path
         d="m-8.25 13.35 7.15.5.2.35-7.35-.85"
         fill="#e7e278"
         fill-rule="evenodd"
         transform="translate(12.1 -3.85)"
         id="path11968" />
      <path
         d="M18.8 13.15h.1l.15-.05.5-.1-1.8 1.9-.15.05-4 .7-3.6.45.1-1.15-.1-.65 6.6-.8 1.2-.2.35-.05.65-.1m-26.75 2.4-.2-.05-1.15-2.05-.9-.5 1 .25h.1l.85.15 7.35.85v.05l-.2 1.35.1.55-.4-.05-4.9-.4-1.65-.15M-9.2 13.2l.95.15-.95-.15m1.05 2.3 1.85.2-1.85-.2"
         fill="#d5a89f"
         fill-rule="evenodd"
         transform="translate(12.1 -3.85)"
         id="path11970" />
      <path
         d="M-1.1 13.85q-.4-.65-.4-1.2v-.2q.1-.85.8-1.35.8-.55 1.55-.35l.95.7q1.35-.5 2.1-.5l.5.05.4.1q.35-.2.85-.3.8 0 2.05.65.35-.35.85-.45l1.25.25.65 1.1.05.2-.5 1.25-.05.05.05.45.1.65-.1 1.15v.05l.75.8.05.5q0 .75-.6 1.35-.75.85-1.7.75-.65-.05-1.4-.8l-5 .3q-.85.65-1.7.6-.9 0-1.6-.8-.6-.65-.6-1.35l.05-.4q.2-.6.75-.95l-.1-.55.2-1.35v-.05l-.2-.35m5.9-1.5q-.15-.4-.9-.4-1 0-2.5.7-.65-1.4-1.5-.75-1 .7.25 2.1-.45 1.5-.05 2.75-1.45.45-.55 1.45.9 1 2.3-.2l5.6-.3q.95 1.55 2.05.4.95-1.05-.75-1.35.65-1.35.15-3.2 1-1 .35-1.45-.65-.45-1.35.6-1.5-.95-2.15-.9-.55.05-.8.55H4.8"
         fill-rule="evenodd"
         transform="translate(12.1 -3.85)"
         id="path11972" />
      <path
         d="M7.55 14.15q1.4 1.95-.15 2.6l-3.3.55-2.8-.2q-.4-.5-.5-1.65-.1-1.25.35-1.6.65-.6 4-.6 1.75 0 2.4.9"
         fill="#98cce4"
         fill-rule="evenodd"
         transform="translate(12.1 -3.85)"
         id="path11974" />
      <path
         d="M4.8 12.35h.15q.25-.5.8-.55.65-.05 2.15.9.7-1.05 1.35-.6.65.45-.35 1.45.5 1.85-.15 3.2 1.7.3.75 1.35-1.1 1.15-2.05-.4l-5.6.3q-1.4 1.2-2.3.2-.9-1 .55-1.45Q-.3 15.5.15 14q-1.25-1.4-.25-2.1.85-.65 1.5.75 1.5-.7 2.5-.7.75 0 .9.4m2.75 1.8q-.65-.9-2.4-.9-3.35 0-4 .6-.45.35-.35 1.6.1 1.15.5 1.65l2.8.2 3.3-.55q1.55-.65.15-2.6"
         fill="#6196b6"
         fill-rule="evenodd"
         transform="translate(12.1 -3.85)"
         id="path11976" />
      <path
         d="m17.4 15.2-.15.15-2.35 2L12.25 19 4.5 20.35l-4.75-.5-5-2.1-1.5-.85-1.2-1.35 1.65.15 4.9.4.4.05q-.55.35-.75.95l-.05.4q0 .7.6 1.35.7.8 1.6.8.85.05 1.7-.6l5-.3q.75.75 1.4.8.95.1 1.7-.75.6-.6.6-1.35l-.05-.5-.75-.8v-.05l3.6-.45 3.8-.45"
         fill="#839ac0"
         fill-rule="evenodd"
         transform="translate(12.1 -3.85)"
         id="path11978" />
      <path
         d="M-9.1 13.2q-1.95-.6-2.15-2.05-1.2-3.4-.7-7.3l4.7 1.7L5.9 8.5l10.2-2.4 3.65-1.95q1.45 4.7-.95 9l-.65.1-.35.05-7.8.5.5-1.25-.05-.2-.65-1.1L8.55 11q-.5.1-.85.45-1.25-.65-2.05-.65-.5.1-.85.3l-.4-.1-.5-.05q-.75 0-2.1.5l-.95-.7q-.75-.2-1.55.35-.7.5-.8 1.35v.2q0 .55.4 1.2l-7.15-.5-.85-.15"
         fill="#fc0"
         fill-rule="evenodd"
         transform="translate(12.1 -3.85)"
         id="path11980" />
      <path
         d="m-8.25 13.35 7.15.5M10 13.8l7.8-.5M10 16.1l3.6-.45 3.8-.45m-18.4.95-.4-.05-4.9-.4-1.85-.2m-.1-2.15-.95-.15"
         fill="none"
         stroke="#776456"
         stroke-linecap="round"
         stroke-linejoin="round"
         transform="translate(12.1 -3.85)"
         id="path11982" />
    </g>
    <g
       id="d">
      <path
         d="m18.9-3.1-1-2.7h-.05l-.25-.6.25-.9q.9-2.15 2.7-2.6l2.7.2 2.2.1q2.3-.8 4.05-4.15-.55 8.1-3.9 9.95h-.05l-.25-.15q-2-2-4.05-1.55-1.3.25-1.85 1.35l-.5 1.05m1.9 8.3v.1h-.1l.1-.1M29.1-1l-3.25-.6Q23.6-3.45 22.3-3.85q-.85-.25-1.55.35l-.6.65.6-.65q.7-.6 1.55-.35 1.3.4 3.55 2.25l3.25.6m-3.2-6.25-4.45-.5q-1.25.05-2 1.05l-.55 1 .55-1q.75-1 2-1.05l4.45.5m-7 11.55-3.35 2 3.35-2M7.75 9.2q-1.5.65-2.35.7l-2.2-.55-4.5-2.15 4.5 2.15 2.2.55q.85-.05 2.35-.7M-7.1 5.15l-3-1.5 3 1.5m18.85 4.6q-4.2 2.5-6.05 3.1-1.8.6-5.75-3.05 3.95 3.65 5.75 3.05 1.85-.6 6.05-3.1m-23.45-7.6-.4.05v-.05h.4"
         fill="#e4192b"
         fill-rule="evenodd"
         transform="translate(13.5 13.75)"
         id="path11985" />
      <path
         d="m20.75 4.8.05-.05v.45l-.1.1-.65.5q-1.6 1.1-5.4 5.15l-4 4.2q-1.15.7-3.5-.8l1.15-.9 5.5-3.15-5.5 3.15-1.15.9-.2-.15 12.8-8.8 1-.6"
         fill="#b70216"
         fill-rule="evenodd"
         transform="translate(13.5 13.75)"
         id="path11987" />
      <path
         d="m25.7-3.7 1.25.85q1.7 1 2.25.65M7.15 14.35q-1.45.95-2.6.95-1.55 0-11-6.15l-.4-.3-5.9-4.65-.05-.05q-.5-.6.35-1.75l.35-.2.4-.05h.25q.4.05.65.3M18.9-3.1l.5-1.05q.55-1.1 1.85-1.35 2.05-.45 4.05 1.55l.25.15m-10 10.1 3.35-2M7.15 14.35l1.15-.9 5.5-3.15M-.05 9.8q3.95 3.65 5.75 3.05 1.85-.6 6.05-3.1m-21.85-6.1 3 1.5"
         fill="none"
         stroke="#b70216"
         stroke-linecap="round"
         stroke-linejoin="round"
         transform="translate(13.5 13.75)"
         id="path11989" />
      <path
         d="m15.55 3.85-2.3 2.35m-14.55 1 4.5 2.15 2.2.55q.85-.05 2.35-.7M18.9-5.7l.55-1q.75-1 2-1.05l4.45.5m-5.75 4.4.6-.65q.7-.6 1.55-.35 1.3.4 3.55 2.25l3.25.6"
         fill="none"
         stroke="#fb85b0"
         stroke-linecap="round"
         stroke-linejoin="round"
         transform="translate(13.5 13.75)"
         id="path11991" />
    </g>
  </defs>
  <g
     style="display:inline"
     id="g4584"
     transform="translate(37.425,42.275)">
    <g
       id="use4502"
       transform="translate(-11.949,-17.399)">
      <path
         fill="#ffffff"
         d="M 30.9,16.15 Q 29.5,11.55 27.35,7.4 24.95,2.85 20.2,0.8 18.396,0.051 16.5,0 15.61,-0.028 14.7,0.1 10.098,1.3 6.975,5.025 3.854,8.753 2.05,13.675 0.239,18.598 0.025,23 q -0.207,4.398 2.3,8.325 2.493,3.927 7.125,5.5 3.426,1.162 7.05,1.15 1.288,-0.018 2.6,-0.175 4.95,-0.85 8.75,-4.05 3.85,-3.15 4.2,-8.1 0.3,-4.8 -1.15,-9.5"
         id="path12251" />
    </g>
    <path
       fill="#ffcc00"
       d="M 19.725,4.125 16.1,6.075 5.875,8.475 -7.25,5.525 -11.95,3.85 q -0.492,3.881 0.7,7.3 0.219,1.453 2.15,2.05 0.415,0.064 0.825,0.125 4.187,0.335 7.15,0.525 Q -1.5,13.195 -1.5,12.65 v -0.2 q 0.1,-0.85 0.8,-1.35 0.8,-0.55 1.55,-0.35 0.45,0.15 0.95,0.7 1.35,-0.5 2.1,-0.5 0.274,0 0.5,0.025 0.224,0.05 0.4,0.125 0.35,-0.2 0.85,-0.3 0.8,0 2.05,0.65 Q 8.05,11.1 8.55,11 l 1.25,0.25 0.65,1.1 0.05,0.2 q 0,0.474 -0.5,1.225 1.122,-0.124 7.8,-0.475 0.162,-0.022 0.325,-0.05 0.318,-0.045 0.65,-0.1 2.405,-4.32 0.95,-9.025"
       id="path4504" />
    <path
       fill="#000000"
       d="M 1.8,11.45 Q 1.3,10.9 0.85,10.75 0.1,10.55 -0.7,11.1 q -0.7,0.5 -0.8,1.35 v 0.2 q 0,0.545 0.375,1.2 0.083,0.181 0.2,0.35 l 0.025,0.05 q -0.05,0.45 -0.2,1.35 l 0.1,0.525 v 0.025 q -0.55,0.35 -0.75,0.95 l -0.05,0.4 q 0,0.7 0.6,1.35 0.7,0.8 1.6,0.8 0.85,0.05 1.7,-0.6 2.5,0.25 5,-0.3 0.75,0.75 1.4,0.8 0.95,0.1 1.7,-0.75 0.6,-0.6 0.6,-1.35 l -0.05,-0.5 Q 10.55,16.5 10,16.15 V 16.1 l 0.1,-1.15 Q 10.1,14.912 10,14.275 9.985,14.095 9.95,13.85 9.979,13.808 10,13.775 10.5,13.024 10.5,12.55 L 10.45,12.35 9.8,11.25 8.55,11 Q 8.05,11.1 7.7,11.45 6.45,10.8 5.65,10.8 5.15,10.9 4.8,11.1 4.624,11.025 4.4,10.975 4.174,10.95 3.9,10.95 q -0.75,0 -2.1,0.5"
       id="path4506" />
    <path
       fill="#6196b6"
       d="M 4.95,12.35 H 4.8 q -0.15,-0.4 -0.9,-0.4 -1,0 -2.5,0.7 -0.65,-1.4 -1.5,-0.75 -1,0.7 0.25,2.1 -0.45,1.5 -0.05,2.75 -1.45,0.45 -0.55,1.45 0.9,1 2.3,-0.2 2.65,0.4 5.6,-0.3 0.95,1.55 2.05,0.4 0.95,-1.05 -0.75,-1.35 0.65,-1.35 0.15,-3.2 1,-1 0.35,-1.45 Q 8.6,11.65 7.9,12.7 6.4,11.75 5.75,11.8 5.2,11.85 4.95,12.35"
       id="path4508" />
    <path
       fill="#98cce4"
       d="m 7.55,14.15 q -0.65,-0.9 -2.4,-0.9 -3.35,0 -4,0.6 -0.45,0.35 -0.35,1.6 0.1,1.15 0.5,1.65 0.35,0.4 2.8,0.2 2.4,-0.15 3.3,-0.55 1.55,-0.65 0.15,-2.6"
       id="path4510" />
    <path
       fill="#d5a89f"
       d="m 10,14.275 q 0.1,0.637 0.1,0.675 L 10,16.1 q 1.697,-0.184 3.6,-0.475 1.89,-0.302 3.975,-0.7 0.088,-0.008 0.175,-0.025 l 1.8,-1.9 q -0.271,0.048 -0.525,0.1 -0.067,0.013 -0.125,0.025 -0.061,0.01 -0.125,0.025 -0.332,0.055 -0.65,0.1 -0.163,0.028 -0.325,0.05 -0.622,0.108 -1.225,0.2 -3.534,0.536 -6.575,0.775"
       id="path4512" />
    <path
       fill="#839ac0"
       d="m 10,16.1 v 0.05 q 0.55,0.35 0.75,0.8 l 0.05,0.5 q 0,0.75 -0.6,1.35 -0.75,0.85 -1.7,0.75 -0.65,-0.05 -1.4,-0.8 -2.5,0.55 -5,0.3 -0.85,0.65 -1.7,0.6 -0.9,0 -1.6,-0.8 -0.6,-0.65 -0.6,-1.35 l 0.05,-0.4 Q -1.55,16.5 -1,16.15 V 16.125 L -1.425,16.1 Q -4.373,15.913 -7.95,15.525 l 1.2,1.375 1.5,0.85 5,2.1 4.75,0.5 7.75,-1.35 2.65,-1.65 q 0.25,-0.1 2.35,-2 l 0.125,-0.175 Q 15.328,15.419 13.6,15.625 11.697,15.916 10,16.1"
       id="path4514" />
    <path
       fill="#55eee5"
       d="M 18.9,13.125 Q 18.958,13.113 19.025,13.1 L 19.1,13 q -0.103,0.059 -0.2,0.125"
       id="path4516" />
    <path
       fill="#55eee5"
       d="m 17.375,15.175 0.2,-0.25 q -2.085,0.398 -3.975,0.7 1.728,-0.206 3.775,-0.45"
       id="path4518" />
    <path
       fill="#d5a89f"
       d="M -0.9,14.25 -0.925,14.2 Q -4.289,13.916 -8.275,13.325 -8.73,13.288 -9.2,13.2 q -0.148,-0.027 -1,-0.25 l 0.875,0.5 1.175,2.05 q 3.907,0.349 6.725,0.6 L -1,16.125 -1.1,15.6 q 0.15,-0.9 0.2,-1.35"
       id="path4520" />
    <path
       fill="#e7e278"
       d="m -0.925,14.2 q -0.117,-0.169 -0.2,-0.35 -2.963,-0.19 -7.15,-0.525 3.986,0.591 7.35,0.875"
       id="path4522" />
    <path
       fill="#d5a89f"
       d="M -8.275,13.325 Q -8.685,13.264 -9.1,13.2 q -0.047,-0.004 -0.1,0 0.47,0.088 0.925,0.125"
       id="path4524" />
    <path
       fill="#d5a89f"
       d="m -8.15,15.5 q 0.104,0.012 0.2,0.025 3.577,0.388 6.525,0.575 -2.818,-0.251 -6.725,-0.6"
       id="path4526" />
    <path
       fill="none"
       stroke="#776456"
       stroke-linecap="round"
       stroke-linejoin="round"
       d="m -8.275,13.325 q 4.187,0.335 7.15,0.525 M 10,13.775 q 1.122,-0.124 7.8,-0.475"
       id="path4528" />
    <path
       fill="none"
       stroke="#776456"
       stroke-linecap="round"
       stroke-linejoin="round"
       d="m 10,16.1 q 1.697,-0.184 3.6,-0.475"
       id="path4530" />
    <path
       fill="none"
       stroke="#776456"
       stroke-linecap="round"
       stroke-linejoin="round"
       d="M -1,16.125 -1.425,16.1 m 18.8,-0.925 q -2.047,0.244 -3.775,0.45"
       id="path4532" />
    <path
       fill="none"
       stroke="#776456"
       stroke-linecap="round"
       stroke-linejoin="round"
       d="M -8.275,13.325 Q -8.73,13.288 -9.2,13.2 m 1.05,2.3 q 3.907,0.349 6.725,0.6"
       id="path4534" />
    <g
       id="use4536"
       transform="translate(-11.949,-17.399)">
      <path
         fill="none"
         stroke="#000000"
         stroke-linecap="round"
         stroke-linejoin="round"
         d="M 30.9,16.15 Q 29.5,11.55 27.35,7.4 24.95,2.85 20.2,0.8 17.55,-0.3 14.7,0.1 10.098,1.3 6.975,5.025 3.854,8.753 2.05,13.675 0.239,18.598 0.025,23 q -0.207,4.398 2.3,8.325 2.493,3.927 7.125,5.5 4.644,1.574 9.65,0.975 4.95,-0.85 8.75,-4.05 3.85,-3.15 4.2,-8.1 0.3,-4.8 -1.15,-9.5"
         id="path12255" />
    </g>
    <path
       fill="#e4192b"
       d="M 17.825,-7.3 17.6,-6.4 q 0.123,0.303 0.25,0.6 h 0.025 q 0.533,1.313 1,2.7 l 0.5,-1.05 q 0.572,-1.085 1.85,-1.35 2.064,-0.45 4.075,1.525 l 0.25,0.175 h 0.025 q 3.396,-1.83 3.9,-9.95 -1.702,3.371 -4.025,4.15 -1.107,0.39 -2.225,-0.125 -1.17,-0.562 -2.675,-0.175 -1.817,0.475 -2.725,2.6"
       id="path4538" />
    <path
       fill="#e4192b"
       d="m 18.9,-5.7 0.525,-1.025 q 0.778,-1 2.025,-1.05 2.005,-0.101 4.45,0.5 -2.445,-0.601 -4.45,-0.5 -1.247,0.05 -2.025,1.05 L 18.9,-5.7"
       id="path4540" />
    <path
       fill="#e4192b"
       d="m 18.875,-3.1 q 0.233,0.688 0.45,1.4 0.024,0.074 0.025,0.15 0.006,0.04 0.025,0.1 0.251,0.769 0.45,1.55 0.146,0.609 0.25,1.225 -0.189,0.15 -0.55,0.45 -0.899,0.741 -3.975,2.075 l -2.3,2.35 2.3,-2.35 Q 14.794,4.182 13.9,4.55 9,6.6 4.65,6.7 -1.75,7 -4.85,5.3 -9.023,3.123 -10.8,2.425 q -0.598,-0.233 -0.925,-0.3 -0.229,-0.003 -0.4,0.05 -0.823,0.992 -0.725,1.875 0.005,0.033 0.025,0.075 0.039,0.042 0.075,0.075 l 5.9,4.65 q 1.225,0.81 2.35,1.45 8.583,4.99 9.05,5 0.559,-0.016 2.4,-1.1 3.742,-2.191 12.8,-8.8 0.422,-0.065 1,-0.625 0.598,-1.595 -0.3,-3.4 L 23,2 q 3.303,0.503 5.325,-0.075 L 28.425,2 h 0.25 Q 28.586,1.937 28.5,1.875 q 0.458,-0.145 0.85,-0.35 3.449,-1.838 4.4,-4.325 -3.067,0.63 -4.575,0.6 -0.534,0.372 -2.225,-0.675 L 25.7,-3.7 Q 25.616,-3.734 25.525,-3.775 L 25.55,-3.8 25.3,-3.975 Q 23.289,-5.95 21.225,-5.5 q -1.278,0.265 -1.85,1.35 l -0.5,1.05 M -4.5,10.3 Q -5.625,9.66 -6.85,8.85 l 0.4,0.3 q 9.445,6.147 11,6.15 -0.467,-0.01 -9.05,-5 m -7.625,-8.125 q -0.823,0.992 -0.725,1.875 0.005,0.033 0.025,0.075 -0.471,-0.55 0.375,-1.725 0.125,-0.146 0.325,-0.225"
       id="path4542" />
    <path
       fill="#e4192b"
       d="m 20.725,-3.525 q 0.735,-0.584 1.575,-0.325 1.296,0.389 3.525,2.225 l 3.25,0.6 -3.25,-0.6 Q 23.596,-3.461 22.3,-3.85 21.46,-4.109 20.725,-3.525 l -0.575,0.675 0.575,-0.675"
       id="path4544" />
    <path
       fill="#e4192b"
       d="m 15.55,6.3 3.35,-2 -3.35,2"
       id="path4546" />
    <path
       fill="#e4192b"
       d="M 5.4,9.9 Q 6.25,9.85 7.75,9.2 6.25,9.85 5.4,9.9 L 3.2,9.35 -1.3,7.2 3.2,9.35 5.4,9.9"
       id="path4548" />
    <path
       fill="#e4192b"
       d="m 5.7,12.85 q 1.85,-0.6 6.05,-3.1 -4.2,2.5 -6.05,3.1 -1.8,0.6 -5.75,-3.05 3.95,3.65 5.75,3.05"
       id="path4550" />
    <path
       fill="#e4192b"
       d="m -10.1,3.65 3,1.5 -3,-1.5"
       id="path4552" />
    <path
       fill="#b70216"
       d="m 20.8,5.175 v -0.45 q -0.025,0.025 -0.05,0.05 -0.578,0.56 -1,0.625 -9.058,6.609 -12.8,8.8 0.103,0.068 0.2,0.125 0.556,-0.363 1.15,-0.875 l 5.5,-3.15 -5.5,3.15 q -0.594,0.512 -1.15,0.875 2.365,1.506 3.5,0.825 0.2,-0.15 4,-4.2 3.8,-4.05 5.4,-5.15 0.386,-0.258 0.65,-0.525 0.05,-0.052 0.1,-0.1"
       id="path4554" />
    <path
       fill="#e4192b"
       d="m 20.8,5.175 q -0.05,0.048 -0.1,0.1 L 20.8,5.3 V 5.175"
       id="path4556" />
    <path
       fill="#e4192b"
       d="m -10.05,6.5 q 1.676,1.313 3.2,2.35 l -5.9,-4.65 q -0.036,-0.033 -0.075,-0.075 0.284,0.472 2.775,2.375"
       id="path4558" />
    <path
       fill="#e4192b"
       d="m -12.125,2.175 q 0.171,-0.053 0.4,-0.05 -0.308,-0.061 -0.375,0.025 l -0.025,0.025"
       id="path4560" />
    <path
       fill="none"
       stroke="#b70216"
       stroke-linecap="round"
       stroke-linejoin="round"
       d="m -11.45,2.15 q 0.4,0.05 0.65,0.275 m -0.925,-0.3 q 0.128,0.004 0.275,0.025 m -1,0.25 q 0.125,-0.146 0.325,-0.225 m -0.7,1.95 Q -13.296,3.575 -12.45,2.4 m 6,6.75 -0.4,-0.3 m 11.4,6.45 q -1.555,-0.003 -11,-6.15 m 13.6,5.175 Q 5.708,15.3 4.55,15.3 m 22.4,-18.175 q 1.691,1.047 2.225,0.675 m -3.475,-1.5 1.25,0.825"
       id="path4562" />
    <path
       fill="none"
       stroke="#b70216"
       stroke-linecap="round"
       stroke-linejoin="round"
       d="m 18.875,-3.1 0.5,-1.05 q 0.572,-1.085 1.85,-1.35 2.064,-0.45 4.075,1.525 l 0.25,0.175"
       id="path4564" />
    <path
       fill="none"
       stroke="#fb85b0"
       stroke-linecap="round"
       stroke-linejoin="round"
       d="m 18.9,-5.7 0.525,-1.025 q 0.778,-1 2.025,-1.05 2.005,-0.101 4.45,0.5"
       id="path4566" />
    <path
       fill="none"
       stroke="#fb85b0"
       stroke-linecap="round"
       stroke-linejoin="round"
       d="M 15.55,3.85 13.25,6.2"
       id="path4568" />
    <path
       fill="none"
       stroke="#b70216"
       stroke-linecap="round"
       stroke-linejoin="round"
       d="m -11.725,2.125 q -0.229,-0.003 -0.4,0.05 m -0.7,1.95 q 0.039,0.042 0.075,0.075 l 5.9,4.65"
       id="path4570" />
    <path
       fill="none"
       stroke="#fb85b0"
       stroke-linecap="round"
       stroke-linejoin="round"
       d="m 20.725,-3.525 q 0.735,-0.584 1.575,-0.325 1.296,0.389 3.525,2.225 l 3.25,0.6 m -8.35,-2.5 -0.575,0.675"
       id="path4572" />
    <path
       fill="none"
       stroke="#b70216"
       stroke-linecap="round"
       stroke-linejoin="round"
       d="m 15.55,6.3 3.35,-2"
       id="path4574" />
    <path
       fill="none"
       stroke="#fb85b0"
       stroke-linecap="round"
       stroke-linejoin="round"
       d="M 5.4,9.9 Q 6.25,9.85 7.75,9.2 M 5.4,9.9 3.2,9.35 -1.3,7.2"
       id="path4576" />
    <path
       fill="none"
       stroke="#b70216"
       stroke-linecap="round"
       stroke-linejoin="round"
       d="m 5.7,12.85 q 1.85,-0.6 6.05,-3.1 M 5.7,12.85 Q 3.9,13.45 -0.05,9.8"
       id="path4578" />
    <path
       fill="none"
       stroke="#b70216"
       stroke-linecap="round"
       stroke-linejoin="round"
       d="m -10.1,3.65 3,1.5"
       id="path4580" />
    <path
       fill="none"
       stroke="#b70216"
       stroke-linecap="round"
       stroke-linejoin="round"
       d="M 7.15,14.325 Q 7.706,13.962 8.3,13.45 l 5.5,-3.15"
       id="path4582" />
    <animate
       attributeName="display"
       repeatCount="indefinite"
       dur="4.95s"
       keyTimes="0;0.455;0.465;1"
       values="none;inline;none;none" />
  </g>
</svg>
