<?xml version="1.0" encoding="UTF-8" standalone="no"?>
<svg xmlns:xlink="http://www.w3.org/1999/xlink" height="82.0px" width="84.85px" xmlns="http://www.w3.org/2000/svg">
  <g transform="matrix(1.0, 0.0, 0.0, 1.0, 37.4, 42.25)">
    <use height="41.7" transform="matrix(1.0, 0.0, 0.0, 1.0, -17.0, -18.6)" width="42.8" xlink:href="#sprite0"/>
  </g>
  <defs>
    <g id="sprite0" transform="matrix(1.0, 0.0, 0.0, 1.0, 0.75, 0.75)">
      <use height="41.7" transform="matrix(1.0, 0.0, 0.0, 1.0, -0.75, -0.75)" width="22.1" xlink:href="#sprite1"/>
      <use height="41.7" transform="matrix(-1.0, 0.0, 0.0, 1.0, 42.05, -0.75)" width="22.1" xlink:href="#sprite1"/>
      <use height="24.95" transform="matrix(1.0, 0.0, 0.0, 1.0, 0.0, 12.4)" width="34.75" xlink:href="#shape1"/>
      <use height="7.8" transform="matrix(1.0, 0.0, 0.0, 1.0, 9.25, 21.55)" width="7.8" xlink:href="#sprite2"/>
      <use height="7.8" transform="matrix(1.0, 0.0, 0.0, 1.0, 6.55, 27.3)" width="7.8" xlink:href="#sprite4"/>
      <use height="7.8" transform="matrix(1.0, 0.0, 0.0, 1.0, 23.85, 21.7)" width="7.8" xlink:href="#sprite4"/>
      <use height="7.8" transform="matrix(1.0, 0.0, 0.0, 1.0, 27.15, 27.7)" width="7.8" xlink:href="#sprite2"/>
      <use height="7.8" transform="matrix(1.0, 0.0, 0.0, 1.0, 16.65, 23.85)" width="7.8" xlink:href="#sprite5"/>
      <use height="7.8" transform="matrix(1.0, 0.0, 0.0, 1.0, 2.85, 18.1)" width="7.8" xlink:href="#sprite5"/>
      <use height="7.8" transform="matrix(1.0, 0.0, 0.0, 1.0, 30.0, 18.2)" width="7.8" xlink:href="#sprite5"/>
      <use height="7.8" transform="matrix(1.0, 0.0, 0.0, 1.0, 16.6, 30.25)" width="7.8" xlink:href="#sprite2"/>
    </g>
    <g id="sprite1" transform="matrix(1.0, 0.0, 0.0, 1.0, 0.75, 0.75)">
      <use height="41.7" transform="matrix(1.0, 0.0, 0.0, 1.0, -0.75, -0.75)" width="22.1" xlink:href="#shape0"/>
    </g>
    <g id="shape0" transform="matrix(1.0, 0.0, 0.0, 1.0, 0.75, 0.75)">
      <path d="M20.65 -0.75 L21.3 -0.3 21.1 0.55 21.0 38.2 21.35 39.15 18.0 40.95 15.6 38.85 14.2 40.25 11.15 37.2 8.6 38.8 7.45 35.25 6.05 36.3 5.25 36.1 4.5 32.15 2.7 32.75 Q2.45 31.65 2.7 30.4 L2.95 29.4 3.3 28.4 1.4 28.4 2.25 25.6 1.45 25.7 0.75 24.1 2.4 22.35 -0.55 22.0 Q-0.6 19.85 2.3 18.9 L1.5 18.65 0.75 18.45 0.1 18.05 -0.75 17.5 Q0.0 16.15 1.45 15.6 L3.95 14.35 0.1 13.0 Q1.0 10.85 4.1 10.45 L0.45 9.15 Q1.25 8.25 3.5 7.25 4.9 6.75 6.1 5.9 12.15 1.8 18.95 -0.4 L20.65 -0.75" fill="#336600" fill-rule="evenodd" stroke="none"/>
    </g>
    <g id="shape1" transform="matrix(1.0, 0.0, 0.0, 1.0, 0.0, -12.4)">
      <path d="M29.45 17.55 L29.75 17.2 31.45 16.95 31.95 16.1 32.9 17.2 30.4 19.2 34.15 19.7 30.0 21.2 33.0 21.85 29.75 23.1 34.65 24.2 31.9 25.7 34.75 27.35 29.25 28.7 32.4 31.25 29.75 31.2 26.25 30.6 28.9 34.85 25.0 33.7 27.0 37.15 21.75 34.6 21.65 37.35 19.0 34.95 18.15 35.85 17.85 36.1 17.5 36.3 16.75 36.4 15.3 34.8 14.4 36.45 11.45 33.95 9.5 34.95 8.35 33.1 5.8 35.5 5.7 35.35 Q5.45 34.15 5.35 32.95 L5.25 30.8 3.0 32.1 4.65 27.1 4.0 27.5 3.3 27.8 1.9 27.85 2.8 26.3 3.15 25.5 3.35 24.6 1.7 24.95 1.5 24.05 4.45 21.7 0.0 21.5 5.2 17.65 Q3.5 18.35 1.75 18.05 L0.55 17.7 0.0 17.35 Q2.4 16.65 4.25 15.1 L5.6 14.05 8.1 13.45 9.9 12.85 10.65 12.4 10.6 13.35 8.5 15.5 11.4 15.2 10.15 17.35 12.75 16.2 12.4 17.4 15.4 17.3 16.0 16.95 16.45 16.7 Q18.2 15.65 20.25 15.8 L23.2 16.15 Q26.3 16.5 29.45 17.55" fill="#339900" fill-rule="evenodd" stroke="none"/>
      <path d="M28.0 23.0 L26.9 22.45 M8.8 20.65 L7.15 20.7 M7.8 23.35 L6.4 23.6 M14.95 24.35 L15.0 24.0 M12.95 29.0 L14.75 27.0 M15.8 30.2 L16.45 29.1 M18.75 34.2 L18.7 33.7 M12.05 32.2 L11.45 33.95 M8.3 31.95 L9.75 31.1 M6.75 27.5 L9.8 25.65 M31.25 27.1 L29.75 26.6 M24.65 26.7 L23.9 26.2 M20.25 24.95 L20.25 25.6 M20.25 29.55 L20.25 30.5 M23.45 28.95 L22.4 27.35 M26.75 30.1 L26.15 29.45" fill="none" stroke="#62d801" stroke-linecap="round" stroke-linejoin="round" stroke-width="1.0"/>
      <path d="M12.5 23.95 L11.75 24.1" fill="none" stroke="#33cc00" stroke-linecap="round" stroke-linejoin="round" stroke-width="1.0"/>
    </g>
    <g id="sprite2" transform="matrix(1.0, 0.0, 0.0, 1.0, 2.3, 2.3)">
      <use height="4.0" transform="matrix(1.0, 0.0, 0.0, 1.0, -0.5, -0.5)" width="4.0" xlink:href="#sprite3"/>
    </g>
    <g id="sprite3" transform="matrix(1.0, 0.0, 0.0, 1.0, 0.5, 0.5)">
      <use height="4.0" transform="matrix(1.0, 0.0, 0.0, 1.0, -0.5, -0.5)" width="4.0" xlink:href="#shape2"/>
    </g>
    <g id="shape2" transform="matrix(1.0, 0.0, 0.0, 1.0, 0.5, 0.5)">
      <path d="M0.8 1.55 Q0.2 0.8 1.15 0.5 2.3 1.0 1.25 1.65 1.0 1.8 0.8 1.55" fill="#ffffff" fill-rule="evenodd" stroke="none"/>
      <path d="M2.55 2.55 L2.3 2.75 1.5 3.0 Q0.9 3.0 0.45 2.55 0.0 2.1 0.0 1.5 0.0 0.9 0.45 0.45 0.9 0.0 1.5 0.0 L2.3 0.25 2.55 0.45 Q3.0 0.9 3.0 1.5 3.0 2.1 2.55 2.55 M0.8 1.55 Q1.0 1.8 1.25 1.65 2.3 1.0 1.15 0.5 0.2 0.8 0.8 1.55" fill="#cccccc" fill-rule="evenodd" stroke="none"/>
      <path d="M2.55 2.55 L2.3 2.75 1.5 3.0 Q0.9 3.0 0.45 2.55 0.0 2.1 0.0 1.5 0.0 0.9 0.45 0.45 0.9 0.0 1.5 0.0 L2.3 0.25 2.55 0.45 Q3.0 0.9 3.0 1.5 3.0 2.1 2.55 2.55 Z" fill="none" stroke="#999999" stroke-linecap="round" stroke-linejoin="round" stroke-width="1.0"/>
    </g>
    <g id="sprite4" transform="matrix(1.0, 0.0, 0.0, 1.0, 2.3, 2.3)">
      <use height="4.0" transform="matrix(1.0, 0.0, 0.0, 1.0, -0.5, -0.5)" width="4.0" xlink:href="#sprite3"/>
    </g>
    <g id="sprite5" transform="matrix(1.0, 0.0, 0.0, 1.0, 2.3, 2.3)">
      <use height="4.0" transform="matrix(1.0, 0.0, 0.0, 1.0, -0.5, -0.5)" width="4.0" xlink:href="#sprite3"/>
    </g>
  </defs>
</svg>
