<svg height="82" width="84.85" xmlns="http://www.w3.org/2000/svg"><defs><filter id="a" filterUnits="objectBoundingBox" width="1" height="1" x="0" y="0"><feColorMatrix in="SourceGraphic" values="0 0 0 0 1 0 0 0 0 1 0 0 0 0 1 0 0 0 1 0" result="colorTrans"/></filter></defs><g style="display:inline" transform="translate(37.4 42.25)"><path fill="#fff" d="M30.9 16.15q-1.4-4.6-3.55-8.75-2.4-4.55-7.15-6.6-1.804-.749-3.7-.8-.89-.028-1.8.1-4.602 1.2-7.725 4.925-3.121 3.728-4.925 8.65Q.239 18.598.025 23q-.207 4.398 2.3 8.325 2.493 3.927 7.125 5.5 3.426 1.162 7.05 1.15 1.288-.018 2.6-.175 4.95-.85 8.75-4.05 3.85-3.15 4.2-8.1.3-4.8-1.15-9.5" style="filter:url(#a)" transform="translate(-11.949 -17.399)"/><path fill="none" stroke="#000" stroke-linecap="round" stroke-linejoin="round" d="M18.951-1.249q-1.4-4.6-3.55-8.75-2.4-4.55-7.15-6.6-2.65-1.1-5.5-.7-4.602 1.2-7.725 4.925-3.121 3.728-4.925 8.65-1.811 4.923-2.025 9.325-.207 4.398 2.3 8.325 2.493 3.927 7.125 5.5 4.644 1.574 9.65.975 4.95-.85 8.75-4.05 3.85-3.15 4.2-8.1.3-4.8-1.15-9.5"/><path fill="#0088ec" d="M9.625 17.925q.204-.139.4-.275.139-.06.275-.1.05-.004.1-.05l.1-.075.05-.05q.233.01.425-.125l-.025-.05.05-.025q1.961-.956 4.2-1.3l1.6-.275 1.15-1.475-1.975.1q-11.443 2.682-22.85.025-.796-.273-1.65-.425-.116-.009-.225-.025l-.5.075q-.071-.09-.15-.175h-.025q-.044-.004-.075-.025h-.05q-.05-.008-.05.025-.1.009-.15.1 0 .038.05.075.489.589.9 1.225.126.21.25.425.106.048.2.05.335.319.85.475.119.03.225.05.621.179 1.125.25h.05q1.292.165 2.45.6l.15.05.05.025-.025.05.025.025q.2.204.55.325.549.206 1.025.5h.625l.05-.025.025.025q.554.733 1.125 1.3.47.454.95.8 3.06 1.554 6.375-.05.272-.183.55-.4.886-.676 1.8-1.65M-8.75 13.8l-.5.075q-.071-.09-.15-.175h-.025q-.044-.004-.075-.025h-.05q.266-.048.525.025.246.068.5.125-.116-.009-.225-.025"/><path fill="#0088ec" d="M.9 20.025q2.984 2.195 6.375-.05-3.315 1.604-6.375.05m.175-4.9q3.277.417 7.075 0l.225-.025q3.647-.388 6.25-.725h.025q.298-.077.55-.125l.775-.025q-11.443 2.682-22.85.025.075.011.15.025.779.083 1.55.15 1.296.134 2.6.225.363.04 3.475.45.08.013.175.025"/><path fill="#8e9ad7" d="M11 17.225v-.05l-.05.025.025.05.025-.025M-3.5 17q0 .041.025.075l.025-.05L-3.5 17"/><path fill="none" stroke="#1ed2ff" stroke-linecap="round" stroke-linejoin="round" d="m15.2 11.45 4.6-1.4M11.7 5.9q5.198-2.294 8.5-2.2"/><path fill="none" stroke="#0064c8" stroke-linecap="round" stroke-linejoin="round" d="M.9 20.025q-.48-.346-.95-.8m7.875.35q-.278.217-.55.4"/><path fill="none" stroke="#0cf" stroke-linecap="round" stroke-linejoin="round" d="M15.975 14.225q.908-.225 1.825-.475m-26.325.075q.854.152 1.65.425m-2.15-.55q.246.068.5.125m-1.025-.15q.266-.048.525.025"/><path fill="none" stroke="#0cf" stroke-linecap="round" stroke-linejoin="round" d="M15.975 14.225q-11.443 2.682-22.85.025"/><path fill="none" stroke="#0064c8" stroke-linecap="round" stroke-linejoin="round" d="M.9 20.025q3.06 1.554 6.375-.05"/><path fill="none" stroke="#1ed2ff" stroke-linecap="round" stroke-linejoin="round" d="m-6.5 11.45-4.75-1.4M-3.4 5.8q-4.291-1.854-8.4-2.3m19 8.4H1.15"/><path fill="#0088ec" d="M1.1 8q-.428-.324-.9-.675-1.155-.87-2.225-1.35-1.07-.47-1.475-.225l-2.35 3.5q-.098.071-.175.15-.625.628-.625 1.4v.075q1.047.517 2.15.8l.1.025q1.872.465 3.9.25.5-.05.95-.25 1.613-.605 3.15-1.275h.025Q3.446 9.629 2.55 9q-.098-.068-.2-.125-.099-.068-.2-.125-.194-.11.1.15-.53-.424-1.15-.9"/><path fill="#0cf" d="M-.8 11.15q.4.15.65-.15 2-2.15-.95-3.15-.7.05-.95.7-.75 2 1.25 2.6"/><path fill="#f90000" d="M3.65 10.725q-.006-.153-.025-.3H3.6q.041.149.05.3"/><path fill="#0064c8" d="M3.65 10.8v-.075q-.009-.151-.05-.3-1.537.67-3.15 1.275-.45.2-.95.25-2.028.215-3.9-.25l-.1-.025q-1.103-.283-2.15-.8 1.3 2.575 4.25 2.875 2.8.35 5.1-1.2.25-.25.475-.525H3.2l.35-.6.1-.4q-.004-.046 0-.1V10.8"/><path fill="none" stroke="#0cf" stroke-linecap="round" stroke-linejoin="round" d="M-2.025 5.975q1.07.48 2.225 1.35M-3.5 5.75q.405-.245 1.475.225M-5.85 9.25l2.35-3.5M-6.025 9.4q.077-.079.175-.15m-.8 1.55q0-.772.625-1.4m-.625 1.475V10.8M2.55 9q.896.629 1.075 1.425M2.35 8.875q.102.057.2.125m-.4-.25q.101.057.2.125m-.1.025q-.294-.26-.1-.15M1.1 8q.62.476 1.15.9M.2 7.325q.472.351.9.675"/><path fill="none" stroke="#014d96" stroke-linecap="round" stroke-linejoin="round" d="M-2.4 13.75q-2.95-.3-4.25-2.875M2.7 12.55q-2.3 1.55-5.1 1.2m5.575-1.725q-.225.275-.475.525m.5-.525h-.025m.375-.6-.35.6m.45-1-.1.4m.1-.5q-.004.054 0 .1m0-.225v.125m0-.2v.075"/><path fill="#0088ec" d="M12.3 5.85q-.405-.245-1.475.225-1.07.48-2.225 1.35-.472.351-.9.675-.62.476-1.15.9.294-.26.1-.15-.101.057-.2.125-.102.057-.2.125-.896.629-1.075 1.425H5.2q1.537.67 3.15 1.275.45.2.95.25 2.028.215 3.9-.25l.1-.025q1.103-.283 2.15-.8V10.9q0-.772-.625-1.4-.077-.079-.175-.15l-2.35-3.5"/><path fill="#0cf" d="M12 7.95q-.764.259-1.2.6-1.052.817-.125 2.1.158.217.375.45.25.3.65.15 2-.6 1.25-2.6-.25-.65-.95-.7"/><path fill="#0064c8" d="m13.3 11.775-.1.025q-1.872.465-3.9.25-.5-.05-.95-.25-1.613-.605-3.15-1.275-.041.149-.05.3v.2q.004.054 0 .1l.1.4.35.6h.025q.225.275.475.525 2.3 1.55 5.1 1.2 2.95-.3 4.25-2.875-1.047.517-2.15.8"/><path fill="#f90000" d="M5.2 10.525h-.025q-.019.147-.025.3.009-.151.05-.3"/><path fill="none" stroke="#0cf" stroke-linecap="round" stroke-linejoin="round" d="M8.6 7.425q1.155-.87 2.225-1.35M7.7 8.1q.428-.324.9-.675M6.55 9q.53-.424 1.15-.9m-1.05.75q.194-.11-.1.15m-.1-.025q.099-.068.2-.125m-.4.25q.098-.068.2-.125m-1.275 1.55Q5.354 9.729 6.25 9.1m9.2 1.8v.075M14.825 9.5q.625.628.625 1.4m-.8-1.55q.098.071.175.15M12.3 5.85l2.35 3.5m-3.825-3.275q1.07-.47 1.475-.225"/><path fill="none" stroke="#014d96" stroke-linecap="round" stroke-linejoin="round" d="M5.15 10.9v-.075m0 .2V10.9m0 .225q.004-.046 0-.1m.1.5-.1-.4m.45 1-.35-.6m.375.6H5.6m.5.525q-.25-.25-.475-.525M11.2 13.85q-2.8.35-5.1-1.2m9.35-1.675q-1.3 2.575-4.25 2.875"/><path fill="none" stroke="#0064c8" stroke-linecap="round" stroke-linejoin="round" d="M7.875 19.65q.969-.71 1.95-1.775 2.983-1.553 6.175-2.15m-23.7.25q4.148 1.011 5.95 1.95.776.839 1.55 1.45"/><animate attributeName="display" repeatCount="indefinite" dur="4.95s" keyTimes="0;0.566;0.576;1" values="none;inline;none;none"/></g></svg>