<svg xmlns:xlink="http://www.w3.org/1999/xlink" height="82" width="84.85" xmlns="http://www.w3.org/2000/svg"><g transform="translate(37.4 42.25)"><use height="38" transform="translate(-11.45 -17.45)" width="32.05" xlink:href="#a"/><use height="21.6" transform="translate(-12.25 -17.95)" width="32.65" xlink:href="#b"/><use height="23.05" transform="translate(-15.1 -.95)" width="37.95" xlink:href="#c"/></g><defs><path d="M27.35 7.4q2.15 4.15 3.55 8.75 1.45 4.7 1.15 9.5-.35 4.95-4.2 8.1-3.8 3.2-8.75 4.05l-2.6.2q-3.6 0-7.05-1.15-4.65-1.6-7.1-5.5Q-.2 27.4.05 23q.2-4.4 2-9.3Q3.85 8.75 7 5.05 10.1 1.3 14.7.1l1.8-.1q1.9.05 3.7.8 4.75 2.05 7.15 6.6" fill="#e8bf64" fill-rule="evenodd" transform="translate(-.05)" id="d"/><path d="M31.9 20.6q-.3-2.25-1-4.45-1.4-4.6-3.55-8.75-2.4-4.55-7.15-6.6-2.65-1.1-5.5-.7Q10.1 1.3 7 5.05q-3.15 3.7-4.95 8.65Q.7 17.3.25 20.6" fill="none" stroke="#333" stroke-linecap="round" stroke-linejoin="round" transform="translate(.25 .5)" id="e"/><use height="38" width="32.05" xlink:href="#d" id="a"/><use height="21.6" width="32.65" xlink:href="#e" id="b"/><g id="c"><path d="m19.85 5.5.05.1-.05-.1-3.55 2.35-1.4.7q-4.85 2.3-9.95 2.15l-.05.05-.75.25L4 9.5v-.65.65l.15 1.5-.7-.25H3.1q-5.65.15-10.2-1.9l-1.9-1L-11.75 6l-.65-.55-1.8-.75q-.95-1.5.35-2.25h.8q-.5-1.6.95-2.25l.6.85q5.75 5.3 15.45 6.35H4Q14.9 5.55 19.4.35l1.1-.8q1.55.4 1.3 2.05 1.75 2.45-1.9 4l-.05-.05V5.5M4.2 8.8q3.35.05 6.7-.95Q16.4 6.2 21.8 1.6q-5.4 4.6-10.9 6.25-3.35 1-6.7.95l-.25-.1.05.15.2-.05m-.25-.1V7.4v1.3q-4.2.35-8-.85-4.8-1.5-9-5.4 4.2 3.9 9 5.4 3.8 1.2 8 .85" fill="#f39" fill-rule="evenodd" transform="translate(15.1 .95)"/><path d="m4.9 10.75.05-.05q5.1.15 9.95-2.15-.25 1-.15 1.9l.55 1.85 1.05 1.35q.7.5 1.45.6l.25.2-1.6 1.7Q14.35 18 11.75 19l-4.6 1.45h-.1L5 20.6l-.1-9.85m-1.8 0v9.75q-2.85-.05-5.7-1-4.15-1.45-6.55-4.7.85-.1 1.35-.9l.5-.8q.5-.8.5-1.75.05-.95-.15-1.9l-.15-.6q4.55 2.05 10.2 1.9" fill="#fff" fill-rule="evenodd" transform="translate(15.1 .95)"/><path d="m4.2 8.8-.2.05-.05-.15.25.1" fill="#ffe085" fill-rule="evenodd" transform="translate(15.1 .95)"/><path d="m4.15 11 .75-.25.1 9.85-.25 1h-1.4l-.25-1.1v-9.75h.35l.7.25" fill="#929292" fill-rule="evenodd" transform="translate(15.1 .95)"/><path d="M19.9 5.6q3.65-1.55 1.9-4-5.4 4.6-10.9 6.25-3.35 1-6.7.95l-.2.05v.65l.15 1.5.75-.25.05-.05q5.1.15 9.95-2.15l1.4-.7 3.55-2.35M14.9 8.55q-.25 1-.15 1.9l.55 1.85 1.05 1.35q.7.5 1.45.6m.25.2q1-1.45 1.5-3.15.85-2.6.35-5.7M3.95 8.7l.05.15M4.15 11l-.7-.25H3.1q-5.65.15-10.2-1.9l.15.6q.2.95.15 1.9 0 .95-.5 1.75l-.5.8q-.5.8-1.35.9 2.4 3.25 6.55 4.7 2.85.95 5.7 1l.25 1.1h1.4l.25-1 2.05-.15h.1l4.6-1.45q2.6-1 4.7-2.85l1.6-1.7M4 7.4Q14.9 5.55 19.4.35l1.1-.8q1.55.4 1.3 2.05M-7.1 8.85l-1.9-1L-11.75 6l-.65-.55q1.1 6.25 2.75 8.45l-.05.1.55.8m-3.25-9.35-1.8-.75q-.95-1.5.35-2.25h.8q-.5-1.6.95-2.25l.6.85q5.75 5.3 15.45 6.35m0 1.3q-4.2.35-8-.85-4.8-1.5-9-5.4" fill="none" stroke="#936" stroke-linecap="round" stroke-linejoin="round" transform="translate(15.1 .95)"/><path d="m19.9 5.6-.05-.1M4 7.4h-.05v1.3l.25.1" fill="none" stroke="#936" stroke-linecap="round" stroke-linejoin="round" transform="translate(15.1 .95)"/><path d="m4.9 7.6.9 6-4.65-.9L2.8 7.6h2.1" fill="#ccc" fill-rule="evenodd" transform="translate(15.1 .95)"/><path d="m4.9 7.6.9 6-4.65-.9L2.8 7.6h2.1Z" fill="none" stroke="#666" stroke-linecap="round" stroke-linejoin="round" transform="translate(15.1 .95)"/></g></defs></svg>