<svg xmlns:xlink="http://www.w3.org/1999/xlink" height="82" width="84.85" xmlns="http://www.w3.org/2000/svg"><g transform="translate(37.4 42.25)"><use height="38" transform="translate(-11.95 -17.45)" width="32.05" xlink:href="#a"/><use height="21.6" transform="translate(-12.25 -17.95)" width="32.65" xlink:href="#b"/><use height="17.7" transform="translate(-12.4 3.3)" width="33.1" xlink:href="#c"/><use height="7.35" transform="translate(.95 9.45)" width="5.3" xlink:href="#d"/><use height="4" transform="translate(5.1 8.15)" width="4" xlink:href="#e"/><use height="4" transform="translate(7.95 7)" width="4" xlink:href="#e"/><use height="4" transform="translate(-4.25 6.85)" width="4" xlink:href="#e"/><use height="4" transform="translate(-1.6 7.9)" width="4" xlink:href="#e"/></g><defs><use height="38" width="32.05" xlink:href="#f" id="a"/><use height="21.6" width="32.65" xlink:href="#g" id="b"/><use height="7.35" width="5.3" xlink:href="#h" id="d"/><use height="4" width="4" xlink:href="#i" id="e"/><g id="c"><path d="M19.95 3.85q.3 2.1.15 4.2l-.45 2.55q-.6 2.3-2.15 3.95l-3.65 3.15q-1.9 1.3-4 2.05l-4.35.75-4.9-.25q-2.25-.4-4.25-1.25-2.05-.9-3.75-2.5-1.6-1.6-2.7-3.6-1-1.9-1.45-4.05-.45-2.4-.3-4.85l2.4 3.6q1.05 1.45 3.25 2.65Q-4 11.4-2.35 13.3-.7 15.15.5 17.25q1.2 2.1 3.35 3.1 2-1.05 4.15-4.25 2.1-3.25 3.45-3.75l2.85-1.5q1.55-.95 3.05-3l2.6-4" fill="#f39" fill-rule="evenodd" transform="translate(12.4 -3.3)"/><path d="m-11.85 4 2.4 3.6q1.05 1.45 3.25 2.65Q-4 11.4-2.35 13.3-.7 15.15.5 17.25q1.2 2.1 3.35 3.1 2-1.05 4.15-4.25 2.1-3.25 3.45-3.75l2.85-1.5q1.55-.95 3.05-3l2.6-4" fill="none" stroke="#c00" stroke-linecap="round" stroke-linejoin="round" transform="translate(12.4 -3.3)"/><path d="M19.95 3.85q.3 2.1.15 4.2l-.45 2.55q-.6 2.3-2.15 3.95l-3.65 3.15q-1.9 1.3-4 2.05l-4.35.75-4.9-.25q-2.25-.4-4.25-1.25-2.05-.9-3.75-2.5-1.6-1.6-2.7-3.6-1-1.9-1.45-4.05-.45-2.4-.3-4.85Z" fill="none" stroke="#000" stroke-linecap="round" stroke-linejoin="round" transform="translate(12.4 -3.3)"/><path d="M-11.65 4Q-3.5 9.15 4.2 10.95q7.95-2 16-7.15" fill="none" stroke="#cca300" stroke-linecap="round" stroke-linejoin="round" transform="translate(12.4 -3.3)"/></g><g id="h"><path d="m.95 4.85.1.1q.4.4.4.95 0 .55-.4.95-.4.4-.95.4-.55 0-.95-.4-.4-.4-.4-.95 0-.55.4-.95l.2-.15q.3-.25.75-.25.5 0 .85.3" fill="#fc0" fill-rule="evenodd" transform="translate(2.65 -.4)"/><path d="m.95 4.85.1.1q.4.4.4.95 0 .55-.4.95-.4.4-.95.4-.55 0-.95-.4-.4-.4-.4-.95 0-.55.4-.95l.2-.15q.3-.25.75-.25.5 0 .85.3Z" fill="none" stroke="#cca300" stroke-linecap="round" stroke-linejoin="round" transform="translate(2.65 -.4)"/><path d="M-.65 5.1q-.5-.15-.85-.55-.65-.6-.65-1.5t.65-1.5Q-.85.9 0 .9q.9 0 1.55.65.6.6.6 1.5t-.6 1.5l-.95.6-.65-.25-.6.2M.3 3.05q.25.35.6.1 1.25-.8-.15-1.4-1.2.35-.45 1.3" fill="#fc0" fill-rule="evenodd" transform="translate(2.65 -.4)"/><path d="M.3 3.05q-.75-.95.45-1.3 1.4.6.15 1.4-.35.25-.6-.1" fill="#fff" fill-rule="evenodd" transform="translate(2.65 -.4)"/><path d="m.6 5.15.95-.6q.6-.6.6-1.5t-.6-1.5Q.9.9 0 .9q-.85 0-1.5.65-.65.6-.65 1.5t.65 1.5q.35.4.85.55" fill="none" stroke="#cca300" stroke-linecap="round" stroke-linejoin="round" transform="translate(2.65 -.4)"/></g><g id="i"><path d="M.8 1.55Q.2.8 1.15.5q1.15.5.1 1.15Q1 1.8.8 1.55" fill="#ffcc4c" fill-rule="evenodd" transform="translate(.5 .5)"/><path d="m2.55 2.55-.25.2-.8.25Q.9 3 .45 2.55 0 2.1 0 1.5 0 .9.45.45.9 0 1.5 0l.8.25.25.2Q3 .9 3 1.5q0 .6-.45 1.05m-1.75-1q.2.25.45.1Q2.3 1 1.15.5.2.8.8 1.55" fill="#cca33d" fill-rule="evenodd" transform="translate(.5 .5)"/><path d="m2.55 2.55-.25.2-.8.25Q.9 3 .45 2.55 0 2.1 0 1.5 0 .9.45.45.9 0 1.5 0l.8.25.25.2Q3 .9 3 1.5q0 .6-.45 1.05Z" fill="none" stroke="#997a2e" stroke-linecap="round" stroke-linejoin="round" transform="translate(.5 .5)"/></g><path d="M27.35 7.4q2.15 4.15 3.55 8.75 1.45 4.7 1.15 9.5-.35 4.95-4.2 8.1-3.8 3.2-8.75 4.05l-2.6.2q-3.6 0-7.05-1.15-4.65-1.6-7.1-5.5Q-.2 27.4.05 23q.2-4.4 2-9.3Q3.85 8.75 7 5.05 10.1 1.3 14.7.1l1.8-.1q1.9.05 3.7.8 4.75 2.05 7.15 6.6" fill="#f1cea5" fill-rule="evenodd" transform="translate(-.05)" id="f"/><path d="M31.9 20.6q-.3-2.25-1-4.45-1.4-4.6-3.55-8.75-2.4-4.55-7.15-6.6-2.65-1.1-5.5-.7Q10.1 1.3 7 5.05q-3.15 3.7-4.95 8.65Q.7 17.3.25 20.6" fill="none" stroke="#000" stroke-linecap="round" stroke-linejoin="round" transform="translate(.25 .5)" id="g"/></defs></svg>