<svg xmlns:xlink="http://www.w3.org/1999/xlink" height="82" width="84.85" xmlns="http://www.w3.org/2000/svg"><use height="41.55" transform="translate(21.4 23.95)" width="40.3" xlink:href="#a"/><defs><g id="a" fill-rule="evenodd"><path d="M13.85-13.6q1.7.4 2.4 2.25l.05.15.2 1.05.65.5.05.05q1.45 1.2 1.5 3.05v.9l.9 1.8.05.1.6 1.45.05.1.05.3 2.45-.15.7.25.35.65.05.45v.05l-.1.45h.05l-.7 1.1.4.15.35.25.05.05.2.35.15.45v.65q-.7 1.9-2.55 3.25l-.05.05q-.3 3.85-2 7.15l-.3.55.25.5.1.45q0 1.05-.85 1.7l-.65.6-.1.1-1.4 1.6-.05.1-1.2.7-.15.05-.4.1-.2.3q-1.65 2.1-4.3 1.85h-.05l-.15-.05q-1.1 1.15-2.7 1.45H7.2q-1.45-.2-2.8-.95l-.1-.05-.1-.05q-1.05.75-2.5.9h-.1q-2 0-3.45-1.3-1.9.3-3.45-.65l-.1-.1q-.65-.5-.95-1.2-2.2.1-3.2-2.2l-.6-.85-.75-.75-.4-.5-.1-.55.2-.8V14l.2-.35q-1.85-3.4-2.2-7.4-2-1.15-2.7-3.4l-.05-.05-.05-.15.05-.85.2-.45.05-.05q.15-.2.45-.25h-.05l.5-.15-.6-1-.05-.05-.05-.1-.15-.8.15-.5.4-.35v-.05l.5-.1 2.55.15Q-12.3-3.45-11-4.8l.65-.65q-.15-1.95.9-3.55l.05-.05.05-.05 1.05-.9q-.1-1.55 1.25-2.9.55-.55 1.3-.7.55-1.3 2-1.8h.15v-.05h.3l.95-1v-.05l1.35-1 .05-.05q1.7-.9 3.65-.5l3.6-.2q2.55-.3 4.25 1.4l.05.05.75 1 1.6 1.25.9.95" fill="#3f4852" transform="translate(16 18.3)"/><path d="M6.45-17.05q1.15.05 2.05.65l3.85 2.5.9 1.2q2.45.55 2.2 3.1 2.75 1.4 2.2 4.1Q19.1-3.45 19.5-.85l3.35-.2.05.45q-.55 1.1-1.7 1.9l2 .7.15.45q-.65 2.05-2.6 3.05.1 4.55-2.5 8.25l.5 1-.2.75-.9 1q-1.45 2.3-3.7 2.25l-.15.55q-1.4 2.15-3.95 1.4-2.75 2.8-5.7.15-2.65 2.3-5.7-.15-2.85.6-4.1-1.95l-.85.05q-2.25-1.55-3.9-3.7l.55-1.45q-2.05-3.9-2.4-8.05Q-14.5 4.55-15 2l1.75-.55-1.4-2.5 3.65.2q-.4-2.65 1.7-4.3-.25-2.9 2.1-4.3-.05-2.55 2.15-3.25l.3-.5 1.35-1.25.55-.05q.8-.9 1.8-1.4 3.5-1.75 7.5-1.15" fill="#fff" transform="translate(16 18.3)"/><path d="M17.35-8q.5.75.3 2.45-.05.45.65 1.15l.75 1q.7 1.2.45 2.25l.2.1-3.3.25q1.4-2.05-.85-3.85 1.2-2.3-1.65-4.3 1.35-2.5 1.2-3.25.55 2.2.3 2.7.95-.05 1.95 1.5M21.3 5.15q.1.7-.75 2.55l-1.15 4q-.3 1-.3 3.5-.4.8-2.4 1.6.3.7-.7 1.55l-2.15.3q-.05.95-.5 1.35-.6.5-1.35.7l-2.15-.05-.9.85q-1.4.9-2.95.55-1.75-.8-2.75-.95-.05 0 .6-.45l.75-.1 1.3.05q1.05-.3 1.85-1.3.4-.5.85-.45l1.15.1q1.45 0 2.05-.65l.45-2q2.45-.2 2.9-1 .8-1.3-.3-2.4.65.65 1.5-1.05 1.05-1.5.45-2.65l-.3-.85.6-.9q.15-.5-.25-2.15h.65l3.8-.15M-4 17.85l-.3-1.4 2.15 1.75q1.25.85 4.25 1.25-2.15 1.1-4.25.35-1.3-.45-1.85-1.95m-2.95-5.15-.05-.75 1.25 1.4 2 1.6q-1.25-.15-2.3-.9-.7-.45-.9-1.35M7-13.7q-.05-1.5 1-1.7 1.3-.25 2 1.45T8.85-12.2Q7.1-12.15 7-13.7m-5.1 0q-.1 1.55-1.85 1.5-1.85-.05-1.15-1.75.7-1.7 2-1.45 1.05.25 1 1.7" fill="#cedae7" transform="translate(16 18.3)"/></g></defs></svg>