<svg xmlns:xlink="http://www.w3.org/1999/xlink" height="82" width="84.85" xmlns="http://www.w3.org/2000/svg"><g transform="translate(37.4 42.25)"><use height="38" transform="translate(-11.95 -17.45)" width="32.05" xlink:href="#a"/><use height="18.3" transform="translate(-11.75 1.5)" width="31.9" xlink:href="#b"/><use height="38.95" transform="translate(-12.45 -17.95)" width="33.05" xlink:href="#c"/><use height="18.05" transform="translate(10.9 -1.05)" width="10.8" xlink:href="#d"/><use height="27.05" transform="translate(10.5 -3.45)" width="12.8" xlink:href="#e"/><use height="27.05" transform="matrix(-1 0 0 1 -1.8 -3.45)" width="12.8" xlink:href="#e"/></g><defs><use height="38" width="32.05" xlink:href="#f" id="a"/><use height="38.95" width="33.05" xlink:href="#g" id="c"/><use height="27.05" width="12.8" xlink:href="#h" id="e"/><g id="b"><path d="m10.5 6.25.3-.1 1.9-.5 3.2-1.55 4-2.6q.35 2.25.2 4.55-.25 3.85-2.35 7l-9.8 1.05 9.8-1.05-.3.4-9.55 1.1.05-.45-.7-1.7q-.95-.45-1.95-.55l-3 .3q-1.05.2-1.9.9l-.8 1.05-.05.35-8-.95q-1.9-2.75-2.85-5.9-.75-2.5-.3-4.9l4.15 2.2 4.35 1.65 3.15.35L3 8.75l.8.4q.5.2 1.2 0L6.85 8v-.05q.7-.55 1.5-.95l2.15-.75M-.4 14.1l-8.05-.6 8.05.6" fill="#fff" fill-rule="evenodd" transform="translate(11.75 -1.5)"/><path d="m7.3 16.45 5.95-.65 4-.7-.2.25-1.75 1.6-.65.5q-1.35.85-2.85 1.35-3.8 1-7.7 1l-4.55-.25q-3.4-1.05-6.5-2.75l-1.35-1.1h.3l8.05.65q1.2 2.65 4 2.45 2.25-.2 3.25-2.35m11.4-3.2-.15.05.15-.1v.05m-5.45 2.55 3.8-.45-3.8.45m-22.9-2.2.8 1.4-1.4-1.6.6.2" fill="#ec5394" fill-rule="evenodd" transform="translate(11.75 -1.5)"/><path d="m7.3 16.45.6-1.9 9.55-1.1 1.1-.15.15-.05.5-.1-1.95 1.95-4 .7-5.95.65m-7.25-.1L-8 15.7h-.3l-.2-.05-.35-.65-.8-1.4-.05-.25h.15l1.1.15 8 .95.5 1.9" fill="#facbe3" fill-rule="evenodd" transform="translate(11.75 -1.5)"/><path d="m-.4 14.1.8-1.05q.85-.7 1.9-.9l3-.3q1 .1 1.95.55l.7 1.7-.05.45-.6 1.9q-1 2.15-3.25 2.35-2.8.2-4-2.45l-.5-1.9.05-.35m5.15-.85-3.45.35-.55.25q-.35.5-.15 1.1.35 1.25.95 2.3l2.8.15 1.25-.3q1.95-.75 1.6-2.85l.05-.85q-.55-.65-1.15-.6-.85-.2-1.35.45" fill="#97246c" fill-rule="evenodd" transform="translate(11.75 -1.5)"/><path d="M7.2 14.25q.35 2.1-1.6 2.85l-1.25.3-2.8-.15q-.6-1.05-.95-2.3-.2-.6.15-1.1l.55-.25 3.45-.35-.25 1.35 1.65.95.9-1 .15-.3" fill="#faa9ee" fill-rule="evenodd" transform="translate(11.75 -1.5)"/><path d="m7.2 14.25-.15.3-.9 1-1.65-.95.25-1.35q.5-.65 1.35-.45.6-.05 1.15.6l-.05.85" fill="#fcdafa" fill-rule="evenodd" transform="translate(11.75 -1.5)"/><path d="M6.85 7.95V8L5 9.15q-.7.2-1.2 0l-.8-.4Q1.85 7.7.65 7.05l-.6-.15-3.15-.35-4.35-1.65m23.35-.8-3.2 1.55-1.9.5m-.3.1-2.3.6q-.4.2-.7.5l-.65.6" fill="none" stroke="#29a3c0" stroke-linecap="round" stroke-linejoin="round" transform="translate(11.75 -1.5)"/><path d="m7.3 16.45 5.95-.65 3.8-.45.6-.1m-17.6 1.1L-8 15.7" fill="none" stroke="#ba145a" stroke-linecap="round" stroke-linejoin="round" transform="translate(11.75 -1.5)"/><path d="m-8.45 13.5 8.05.6m8.35 0 9.8-1.05m-27.3.3 1.1.15" fill="none" stroke="#f5adcf" stroke-linecap="round" stroke-linejoin="round" transform="translate(11.75 -1.5)"/><path d="m10.8 6.15-.3.1" fill="none" stroke="#29a3c0" stroke-linecap="round" stroke-linejoin="round" transform="translate(11.75 -1.5)"/></g><g id="d"><path d="M19.5.4q1.5 4.25 1.65 7.25.3 8.25-.75 8.85l-9-.85q3.5-4.65 5.1-7.4 1.65-2.75 2.65-8.8l.35.95" fill="#be2e4e" fill-rule="evenodd" transform="translate(-10.9 1.05)"/><path d="M19.15-.55q-1 6.05-2.65 8.8-1.6 2.75-5.1 7.4l9 .85q1.05-.6.75-8.85Q21 4.65 19.5.4" fill="none" stroke="#4d483b" stroke-linecap="round" stroke-linejoin="round" transform="translate(-10.9 1.05)"/></g><g id="h"><path d="M8.15.45 9.7 5.2q1.2 3.65 1.85 7.4.5 2.95.15 5.8l-.95-.45-2.5.2q-.95-.1-1.7.4-1.55.9-3.2.2-1.25-.5-1.25-1.7.1-.15.25-.15l1.25-.25.55.15-.25.85-.45.2.8.25 1-.4.35-1.6q.2-.9-.45-1.45l-1-.05q-1.9.05-2.95 1.6L3 13l.6-2.1.4-2.95.05-.2.1-.45.05-.2.15-.55 2.35-4.1Q7.25 1.15 7.95.5l.2-.15v.1" fill="#f89ec9" fill-rule="evenodd" transform="translate(.45 .15)"/><path d="M8.15.45q1.05 1.8 1.7 3.85 1.05 3.25 1.6 6.8.65 3.8.45 7.6l-.2-.3q.35-2.85-.15-5.8-.65-3.75-1.85-7.4L8.15.45m-7.3 16.3L2.3 13.7Q3.35 11 4 7.95l-.4 2.95L3 13l-1.8 3.2-.3.5-.05.05" fill="#f990f2" fill-rule="evenodd" transform="translate(.45 .15)"/><path d="m11.8 19.7-.75 4.75-.25 1.4v.25l-.5.15-.35-.4-.05.1-.7.3-1.45-.75q-.1-.5-.4-.7-.15-.15-.5 0l-.9-.7-.85-.65.05-.45-.4.2-.25-.15-1.7-1.2-.05-.05v-.65l-.8.1-.7-.5-.15-.15-.05-1.05-.4.15-.5-.2v-.45L.1 18.7l-.05-.2.2-.65.3-.55.35-.6.3-.5q1.05-1.55 2.95-1.6l1 .05q.65.55.45 1.45l-.35 1.6-1 .4-.8-.25.45-.2.25-.85-.55-.15-1.25.25q-.15 0-.25.15 0 1.2 1.25 1.7 1.65.7 3.2-.2.75-.5 1.7-.4l2.5-.2.95.45.1 1.3M.65 18.35l-.5 1 .5-1M2.1 19.4l-.85 1.35.85-1.35m1.45.85-.75 1.6.75-1.6m1.95.95-1 1.85 1-1.85m1.5.75L5.95 24.1 7 21.95m3.75.65-.85 3.35.85-3.35m-2-.2-1 3.1 1-3.1" fill="#ec5394" fill-rule="evenodd" transform="translate(.45 .15)"/><path d="m11.7 18.4.2.3-.1 1-.1-1.3m-1.4 7.85-.55.15-.55-.15.7-.3.05-.1.35.4m-2.55-.75-.9-.7q.35-.15.5 0 .3.2.4.7M5.1 23.45l-.35-.25.4-.2-.05.45M2.75 21.8l-.8-.55.8-.1v.65M1.1 20.6l-.95-1.1.5.2.4-.15.05 1.05m-.55-3.3.3-.55.05-.05-.35.6m9.2 9.1.15-.45-.15.45" fill="#fc3be8" fill-rule="evenodd" transform="translate(.45 .15)"/><path d="m4 7.95.05-.2.1-.45.05-.2.15-.55 2.35-4.1Q7.25 1.15 7.95.5l.2-.15M4 7.95l-.4 2.95L3 13l-1.8 3.2-.3.5-.35.6" fill="none" stroke="#ec5394" stroke-linecap="round" stroke-linejoin="round" transform="translate(.45 .15)"/><path d="m10.9 25.55-.1.55-.5.15-.35-.4-.05.1-.7.3-1-.2-.45-.55q-.1-.5-.4-.7-.15-.15-.5 0l-1.4-.1-.25-.25q-.4-.4-.1-1l.05-.45-.4.2q-.85 0-1.4-.35-.6-.4-.6-.9v-.8l-.8.1-.6-.2-.25-.45-.05-1.05-.4.15-.5-.2v-.45L.1 18.7l-.05-.2.2-.65" fill="none" stroke="#91004b" stroke-linecap="round" stroke-linejoin="round" transform="translate(.45 .15)"/><path d="m.15 19.35.5-1m.6 2.4.85-1.35m.65 2.55.05-.1.75-1.6m.95 2.8 1-1.85m.45 2.9L7 21.95M5.95 24.1l-.2.35m4.15 1.5.85-3.35m-.85 3.35-.15.45m-2-.9 1-3.1" fill="none" stroke="#fcffe8" stroke-linecap="round" stroke-linejoin="round" transform="translate(.45 .15)"/><path d="M8.15.45 9.7 5.2q1.2 3.65 1.85 7.4.5 2.95.15 5.8l.1 1.3-.75 4.75-.15 1.1-.1.3" fill="none" stroke="#833066" stroke-linecap="round" stroke-linejoin="round" transform="translate(.45 .15)"/></g><path d="M27.35 7.4q2.15 4.15 3.55 8.75 1.45 4.7 1.15 9.5-.35 4.95-4.2 8.1-3.8 3.2-8.75 4.05l-2.6.2q-3.6 0-7.05-1.15-4.65-1.6-7.1-5.5Q-.2 27.4.05 23q.2-4.4 2-9.3Q3.85 8.75 7 5.05 10.1 1.3 14.7.1l1.8-.1q1.9.05 3.7.8 4.75 2.05 7.15 6.6" fill="#f1cea5" fill-rule="evenodd" transform="translate(-.05)" id="f"/><path d="M27.35 7.4Q24.95 2.85 20.2.8 17.55-.3 14.7.1 10.1 1.3 7 5.05q-3.15 3.7-4.95 8.65-1.8 4.9-2 9.3-.25 4.4 2.3 8.35 2.45 3.9 7.1 5.5 4.65 1.55 9.65.95 4.95-.85 8.75-4.05 3.85-3.15 4.2-8.1.3-4.8-1.15-9.5-1.4-4.6-3.55-8.75Z" fill="none" stroke="#000" stroke-linecap="round" stroke-linejoin="round" transform="translate(.45 .5)" id="g"/></defs></svg>