<svg xmlns:xlink="http://www.w3.org/1999/xlink" height="82" width="84.85" xmlns="http://www.w3.org/2000/svg"><g transform="translate(37.4 42.25)"><use height="38" transform="translate(-11.95 -17.45)" width="32.05" xlink:href="#a"/><use height="38.95" transform="translate(-12.45 -17.95)" width="33.05" xlink:href="#b"/><use height="20.2" transform="translate(-12.8 2.85)" width="33.5" xlink:href="#c"/></g><defs><path d="M27.35 7.4q2.15 4.15 3.55 8.75 1.45 4.7 1.15 9.5-.35 4.95-4.2 8.1-3.8 3.2-8.75 4.05l-2.6.2q-3.6 0-7.05-1.15-4.65-1.6-7.1-5.5Q-.2 27.4.05 23q.2-4.4 2-9.3Q3.85 8.75 7 5.05 10.1 1.3 14.7.1l1.8-.1q1.9.05 3.7.8 4.75 2.05 7.15 6.6" fill="#fff" fill-rule="evenodd" transform="translate(-.05)" id="d"/><path d="M27.35 7.4Q24.95 2.85 20.2.8 17.55-.3 14.7.1 10.1 1.3 7 5.05q-3.15 3.7-4.95 8.65-1.8 4.9-2 9.3-.25 4.4 2.3 8.35 2.45 3.9 7.1 5.5 4.65 1.55 9.65.95 4.95-.85 8.75-4.05 3.85-3.15 4.2-8.1.3-4.8-1.15-9.5-1.4-4.6-3.55-8.75Z" fill="none" stroke="#1e1e1e" stroke-linecap="round" stroke-linejoin="round" transform="translate(.45 .5)" id="e"/><use height="38" width="32.05" xlink:href="#d" id="a"/><use height="38.95" width="33.05" xlink:href="#e" id="b"/><g id="c"><path d="M20.35 4.65q-.45.15-.45.55l.05.4q-.85.25-2.25 2.7-.75 1.4-.75 3.2 0 .7.15 1.2l.6.95-.05.15q0 .35.3.35.65 0 1.95-2.95l.05-.1.75-4.1q0-1.95-.35-2.35m-29.4 6.85q0 .7-.15 1.2l-.6.95.05.15q0 .35-.3.35-.65 0-1.95-2.95l-.05-.1-.75-4.1q0-1.95.35-2.35.45.15.45.55l-.05.4q.85.25 2.25 2.7.75 1.4.75 3.2" fill-rule="evenodd" transform="translate(12.8 -2.85)"/><path d="M18.7 3.85h.05q.8-.8 1.05-.8l.15.05.45.25.3.6V4q.2 2.15-1.7 3.05.2.75-.35.95l.15 1.7h.05l.4 10.15-.05.3-.25.15-1.05.45-.2.1-.1.05-.1.05q-15.35 4.4-26.45-.35l-.05-.05-1.05-.55q-.25-.2-.4-.25l-.2-.2-.05-.25.9-9.45-.15-.5q-1.5-.7-1.15-2.45-1.9-.85-1.2-3.55l.1-.35q.1-.15.3-.15h.35l.65.35.35.25 1.05.95.2.1-.4-.05-1.4-.3-.35-.1q-.2 1.6 1.1 2.05l.3.25.05.35q-.45 1.4.55 1.85l.2.15.1.25.2.75.05.25-.1 1.45h-.1l-.55 7.65.1.1.9.5h.05Q2.15 24.3 17.15 20l.15-.1.15-.05h.1l.7-.3-.15-8.15h-.05L18 8.25l.05-.15-.05-.95V6.5q.1-.2.3-.25 1.3-.5 1.4-1.7V4.1l-.05.05-1.4.3V4.4l.05-.05h-.05l-.15.05.6-.55" fill-rule="evenodd" transform="translate(12.8 -2.85)"/><path d="m18.7 3.85-.6.55.15-.05-.05.05h.05v.05l1.4-.3v.4q-1.9 2.4-5 3.05l-6.05.8-5.2-.55-5.75-.6q-2.75-.2-5.4-1.15l-3.4-1.95 1.5.35-.05-.05.4.05-.2-.1-1.05-.95q3.3 1.7 11 3.2L-.2 6.5l4.8.5 4.6-.15 4.2-.7q2.35-.55 4.15-1.6l1.15-.7" fill="#676767" fill-rule="evenodd" transform="translate(12.8 -2.85)"/><path d="m-9.5 9.1.5 1.3v.2l-.4 8.55 1.9.7q4.35 1.5 8.85 2l8.35-.6-.65.95q-4.75.7-9.45.15-4.25-.5-8.05-2.2l-1.75-.85.7-10.2m27 .75.05-.05-.05-.35-.05-.45.6.1.15 10.45-6.4 1.3.85-.5 1.1-.85 3.3-1-.15-7.2.65-.75-.05-.7" fill="#fc0" fill-rule="evenodd" transform="translate(12.8 -2.85)"/><path d="m-7.65 11 .45-.2.05 1.05-.15-.05-.35-.8m.6.95.9.35.15 1.1 1.35.85q2.05.05 2.2-1.9l.75.1.5-.1.15-.55v-.7l.8.15.7-.35L.4 10v-.05l1.45-.1q.6-.3.8-1.2l.1-.55H5.6v.75H3l-.1.65q-.05.85-.8 1.35l-1.5.1-.15 1.1-1.3.05v.5l-.15.85-.2.05-1.1-.05q.2 1.2-1.05 1.75-2.35 1-2.65-1.8-.45 0-.75-.4l-.3-1.05m12.7-2.8.3.5.35.4 1.25-.1.35 1.2.75.15.5.9.4.45 1.2-.1.5 1.2.35.4.45.4 1.25-.1.55-.25.4-.4.3-1.35.5-.1.55-.75-.1-.9 1.3.1.1.5.15 7.2-3.3 1-3.3.7-8.75.5q-4.15-.35-8-1.8l5.45-2.5.15.3 1.2-.5h2.65l.1 1.95-.3.95.3-.95v.5l-.3.45.2.2.35.05.15-.05.15.15q.65.75 1.2-.15l.1.05.65.3.3-.05-.55-1.25-.2-2.1h2.6l.4.3.4.35v-.05.05l-.4-.35.4.3-.05-.8.2-.45.15-.45-.15-.05-.1-.15-.1-.6.2-.5v-.3l-.1.1h-.1l-1 .65H5.3v-2.35l1.05-1-.5-.5-.2-1.3m3.2 4.4-.2.1.2-.1m-5.7.25v.5h-.7l.7-.5" fill="#510000" fill-rule="evenodd" transform="translate(12.8 -2.85)"/><path d="M-7.7 11h.05l.35.8.15.05.1.1.3 1.05q.3.4.75.4.3 2.8 2.65 1.8 1.25-.55 1.05-1.75l1.1.05.2-.05.15-.85v-.5l1.3-.05.15-1.1 1.5-.1q.75-.5.8-1.35l.1-.65h2.6l.05.3.2 1.3.5.5-1.05 1 .6-.7-.7-.15-.35.35L4.5 11l-.4-.15-.65.6q-.1-.35-.5-.4l-.5.05.5-.05q.4.05.5.4l-1-.35-.1.05.05.05-.05-.05.1-.05-.05.1.6.7v.05h.05L3.1 13l.05.45v.35L3.1 13l.05.8-.7.5H.55l-.6-.3-.45-.3.2.85q-.3 0-.5.25l-.25.5.5.35.05.1.05.05-.3.45-.1.15-5.45 2.5-2.2-.95.5-6.45.3-.5m7.4 3.55-.15-.15q-.35-.7-.05-.7-.3 0 .05.7l.15.15m-.2 1.2-.55-.45.55.45" fill="#900" fill-rule="evenodd" transform="translate(12.8 -2.85)"/><path d="m11.8 20.85-2.1.4-8.35.6q-4.5-.5-8.85-2l1.2-.95q3.85 1.45 8 1.8l8.75-.5 3.3-.7-1.1.85-.85.5m-2.95-7.3v.3l-.2.5.1.6.1.15.15.05-.15.45-.2.45.05.8-.4-.3-.4-.3H5.3l.2 2.1.55 1.25-.3.05-.65-.3-.1-.05q-.55.9-1.2.15l-.15-.15-.15.05-.35-.05-.2-.2.3-.45v-.5l-.1-1.95H.5l-1.2.5-.15-.3.1-.15.3-.45-.05-.05-.05-.1L1.7 14.3h1.45v-.85L5.3 12.1v2.2h2.35l1-.65h.1l.1-.1m-.4 2.35-.05-.05h.05l.4-.25-.4.25v.05l.2.15-.2-.15v-.05H8.4l.05.05m.4-.8-.65-.35.45-.4-.45.4.65.35M-.7 16.7l-.05-.45.05.45M5 19.3l.05-.05.05.1-.05-.1-.05.05" fill="#ffff37" fill-rule="evenodd" transform="translate(12.8 -2.85)"/><path d="m-7.5 19.85-1.9-.7.4-8.55 1 .9-.5 6.45 2.2.95-1.2.95" fill="#ff6" fill-rule="evenodd" transform="translate(12.8 -2.85)"/><path d="m2.4 11.2.05-.1 1 .35.65-.6.4.15.35.45.35-.35.7.15-.6.7v.15l-2.15 1.35L3.1 13l-.05-1.05H3v-.05l.05.05L3 11.9l-.6-.7m-.7 3.1-2.25 1.35-.5-.35.25-.5q.2-.25.5-.25l-.2-.85.45.3.6.3H1.7" fill="#ff9" fill-rule="evenodd" transform="translate(12.8 -2.85)"/><path d="M-9 10.4q.1.5.85.65l.45-.05-.3.5-1-.9v-.2m25.8.4.7-.95.05.7-.65.75-.1-.5m.7-1.35-.2-.95.75.1v.5l-.6-.1.05.45m1-1.2.05-.15-.05.8v-.65" fill="#9b9b00" fill-opacity=".333" fill-rule="evenodd" transform="translate(12.8 -2.85)"/><path d="m16.8 8.3-.05.05V8.3h.05m-2.95 3.75h-.05V12l.05.05m-2.45.6q-.15-.75-1-.75l-.4-.2-.45-1.1-.95-.25-.45-.85-1.4-.5-.35-.85q5.05-.15 9.75-2.2l.1.8-1.5.95.65.95-.15.8L14 9.5q.75 1.25-.25 1.7l-.3.1-.55.1.15.7-.15.3q-.35.5-1 .5l-.5-.25M.4 10l-.05-.05H.4V10m.45-2.05-.6 1-.9-.05q-1.05-.15-.7.2l-.15.15-1.2.2.2.95-.6.8-.8-.05.05.45q.25.85-.4 1.05l-.85.2-.45-.35-.15-.6-.9-.35-.25-.15.05-.9-1.7-.7-.1-1.4-.85-.25-.5-2q-1.5-.8-1.5-2.45Q-5.65 7 .85 7.95m-2.4 2.65-.05-.05.1.05h-.05M0 10.3h-.05l.05-.1v.1" fill="#fff" fill-rule="evenodd" transform="translate(12.8 -2.85)"/><path d="m18.05 8.6.45-.35v.65l.25 10.95-.6.3q-4.35 1.7-9.1 2.05l.65-.95 2.1-.4 6.4-1.3-.15-10.45v-.5" fill="#e6a000" fill-rule="evenodd" transform="translate(12.8 -2.85)"/><path d="m16.8 8.3.95-.5.25-.25.2-.3-.1-.85 1.25-.6.25-1.5-3.45 1.65Q11.45 8 6.4 8.15l.35.85 1.4.5.45.85.95.25.45 1.1.4.2q.85 0 1 .75l.9.9 1.3-.65.2-.85h.05l.85-.3.3-.45.05-1.05 1-.2.9-.3-.2-1.4.05-.05m-26.3.8-.55-.65q-.6-.7-.45-1.45l.1-.6-.85-.8q-.8-1.15-.45-2.4 4.8 2.5 10.05 3.65l7.85.6q7.25-.65 13.7-4.05l.35.55q.35.85-.25 1.6l-.2.35-1.25.65V8.1l-.05.15-.45.35-.75-.1.2.95.05.35-.05.05-.7.95-1.3-.1.1.9-.55.75-.5.1-.3 1.35-.4.4-.55.25-1.25.1-.45-.4-.35-.4-.5-1.2-1.2.1-.4-.45-.5-.9-.75-.15-.35-1.2-1.25.1-.35-.4-.3-.5-.05-.3V8.1H2.75l-.1.55q-.2.9-.8 1.2l-1.45.1H.35L.4 10l.05.9-.7.35-.8-.15v.7l-.15.55-.5.1-.75-.1q-.15 1.95-2.2 1.9L-6 13.4l-.15-1.1-.9-.35-.1-.1-.05-1.05-.45.2h-.05l-.45.05q-.75-.15-.85-.65l-.5-1.3m3.95 3.4q.05.85.75 1.1l1.3-.25.35-1.15 1.3-.6.3-1h.3q.9.35 1.25-.3v-.45l.2-.2 1.55-.3.65-1.3-1.55-.1Q-5.65 7-11.45 3.7q0 1.65 1.5 2.45l.5 2 .85.25.1 1.4 1.7.7-.05.9.25.15.9.35.15.6" fill="#ffa41c" fill-rule="evenodd" transform="translate(12.8 -2.85)"/><path d="M16.15 5.95 19.6 4.3l-.25 1.5-1.25.6.1.85-.2.3-.25.25-.95.5h-.05v.05l.2 1.4-.9.3-1 .2L15 11.3l-.3.45-.85.3-.05-.05v.05l-.2.85-1.3.65-.9-.9.5.25q.65 0 1-.5l.15-.3-.15-.7.55-.1.3-.1q1-.45.25-1.7l1.25-.05.15-.8-.65-.95 1.5-.95-.1-.8m-21.7 6.55.45.35.85-.2q.65-.2.4-1.05l-.05-.45.8.05.6-.8-.2-.95 1.2-.2.15-.15q-.35-.35.7-.2l.9.05.6-1 1.55.1-.65 1.3-1.55.3-.2.2v.35l-.05.1H0q-.35.65-1.25.3h-.25l-.1-.05.05.05-.3 1-1.3.6-.35 1.15-1.3.25q-.7-.25-.75-1.1" fill="#9b9b00" fill-opacity=".49" fill-rule="evenodd" transform="translate(12.8 -2.85)"/><path d="m15.25 8.25-.1.05.05.05.6.7.05.05.05 1.05.05.8v.5h-2.6l-.6-.3-.45-.3q-.3 0 .05.7l.15.15q-.3 0-.5.25l-.25.5.55.45.05.05-.3.45.05.45 1.2-.5h2.65l.1 1.95-.3.95.2.2.35.05.15-.05.15.15q.65.75 1.2-.15l.05-.05.05.1.65.3.3-.05-.55-1.25-.2-2.1h2.6l.4.3.4.35V14l-.05-.8-.2-.15V13h-.05l.05.05m-6-4.8.5-.05q.4.05.5.4l.65-.6.4.15.35.45.35-.35.7.15-.6.7v2.35h2.35l1-.65.2-.1v.3l-.2.5-.45.4.65.35.15.05-.15.45-.4.25" fill="none" stroke="#fc0" stroke-linecap="round" stroke-linejoin="round" stroke-width=".25"/></g></defs></svg>