<?xml version="1.0" encoding="UTF-8" standalone="no"?>
<svg xmlns:xlink="http://www.w3.org/1999/xlink" height="82.0px" width="84.85px" xmlns="http://www.w3.org/2000/svg">
  <g transform="matrix(1.0, 0.0, 0.0, 1.0, 37.4, 42.25)">
    <use height="4.0" transform="matrix(1.0, 0.0, 0.0, 1.0, 4.4, 7.0)" width="5.9" xlink:href="#shape0"/>
    <use height="38.0" transform="matrix(1.0, 0.0, 0.0, 1.0, -11.95, -17.45)" width="32.05" xlink:href="#sprite0"/>
    <use height="38.95" transform="matrix(1.0, 0.0, 0.0, 1.0, -12.45, -17.95)" width="33.05" xlink:href="#sprite1"/>
    <use height="20.7" transform="matrix(1.0, 0.0, 0.0, 1.0, -11.9, -0.3)" width="16.55" xlink:href="#sprite2"/>
    <use height="20.7" transform="matrix(-1.0, 0.0, 0.0, 1.0, 20.1, -0.2)" width="16.55" xlink:href="#sprite2"/>
  </g>
  <defs>
    <g id="shape0" transform="matrix(1.0, 0.0, 0.0, 1.0, -4.4, -7.0)">
      <path d="M10.3 7.0 L4.4 11.0" fill="none" stroke="#fd7b7b" stroke-linecap="round" stroke-linejoin="round" stroke-width="0.05"/>
    </g>
    <g id="sprite0" transform="matrix(1.0, 0.0, 0.0, 1.0, -0.05, 0.0)">
      <use height="38.0" transform="matrix(1.0, 0.0, 0.0, 1.0, 0.05, 0.0)" width="32.05" xlink:href="#shape1"/>
    </g>
    <g id="shape1" transform="matrix(1.0, 0.0, 0.0, 1.0, -0.05, 0.0)">
      <path d="M27.35 7.4 Q29.5 11.55 30.9 16.15 32.35 20.85 32.05 25.65 31.7 30.6 27.85 33.75 24.05 36.95 19.1 37.8 L16.5 38.0 Q12.9 38.0 9.45 36.85 4.8 35.25 2.35 31.35 -0.2 27.4 0.05 23.0 0.25 18.6 2.05 13.7 3.85 8.75 7.0 5.05 10.1 1.3 14.7 0.1 L16.5 0.0 Q18.4 0.05 20.2 0.8 24.95 2.85 27.35 7.4" fill="#ffffff" fill-rule="evenodd" stroke="none"/>
    </g>
    <g id="sprite1" transform="matrix(1.0, 0.0, 0.0, 1.0, 0.45, 0.5)">
      <use height="38.95" transform="matrix(1.0, 0.0, 0.0, 1.0, -0.45, -0.5)" width="33.05" xlink:href="#shape2"/>
    </g>
    <g id="shape2" transform="matrix(1.0, 0.0, 0.0, 1.0, 0.45, 0.5)">
      <path d="M27.35 7.4 Q24.95 2.85 20.2 0.8 17.55 -0.3 14.7 0.1 10.1 1.3 7.0 5.05 3.85 8.75 2.05 13.7 0.25 18.6 0.05 23.0 -0.2 27.4 2.35 31.35 4.8 35.25 9.45 36.85 14.1 38.4 19.1 37.8 24.05 36.95 27.85 33.75 31.7 30.6 32.05 25.65 32.35 20.85 30.9 16.15 29.5 11.55 27.35 7.4 Z" fill="none" stroke="#000000" stroke-linecap="round" stroke-linejoin="round" stroke-width="1.0"/>
    </g>
    <g id="sprite2" transform="matrix(1.0, 0.0, 0.0, 1.0, 0.0, 0.5)">
      <use height="20.7" transform="matrix(1.0, 0.0, 0.0, 1.0, 0.0, -0.5)" width="16.55" xlink:href="#shape3"/>
    </g>
    <g id="shape3" transform="matrix(1.0, 0.0, 0.0, 1.0, 0.0, 0.5)">
      <path d="M16.3 10.8 L16.05 11.0 9.85 6.8" fill="none" stroke="#fd7b7b" stroke-linecap="round" stroke-linejoin="round" stroke-width="0.05"/>
      <path d="M16.1 11.0 L16.1 20.2 Q0.15 19.35 0.05 5.1 L9.9 6.85 16.05 11.0 16.1 11.0" fill="#cd0101" fill-rule="evenodd" stroke="none"/>
      <path d="M16.05 10.55 L9.85 7.0" fill="none" stroke="#820202" stroke-linecap="round" stroke-linejoin="round" stroke-width="1.0"/>
      <path d="M16.05 13.35 L9.85 9.8" fill="none" stroke="#820202" stroke-linecap="round" stroke-linejoin="round" stroke-width="1.0"/>
      <path d="M10.35 6.35 L10.35 6.4 10.25 6.65 10.1 6.8 9.65 6.85 8.9 6.5 Q7.55 5.8 6.0 5.6 L5.6 5.45 Q3.55 4.45 1.4 3.8 L0.75 4.5 0.45 4.45 Q-0.3 3.85 0.35 2.9 0.15 2.15 0.5 1.5 0.9 0.6 1.7 0.3 L3.45 1.05 1.7 0.3 1.9 0.25 3.45 1.05 3.65 1.15 4.2 1.35 4.25 1.35 Q6.15 1.6 7.75 2.45 L8.5 2.85 Q10.1 3.7 10.25 5.3 L10.2 6.0 10.35 6.35 M4.2 1.35 L8.35 3.05 Q9.85 3.65 10.25 5.3 9.85 3.65 8.35 3.05 L4.2 1.35" fill="#cd0101" fill-rule="evenodd" stroke="none"/>
      <path d="M10.25 5.3 L10.35 6.35 10.35 6.4 10.25 6.65 M1.7 0.3 L0.95 0.0 M10.25 5.3 Q9.85 3.65 8.35 3.05 L4.2 1.35 3.45 1.05 1.7 0.3" fill="none" stroke="#8f0101" stroke-linecap="round" stroke-linejoin="round" stroke-width="1.0"/>
      <path d="M10.3 7.55 L10.3 8.95 10.4 9.45 10.4 10.05 9.3 10.95 6.8 8.55 9.15 6.45 10.3 7.55 M10.35 11.95 L10.35 15.0 9.55 15.75 10.35 16.45 10.3 19.35 10.2 19.45 10.0 19.4 9.35 19.2 8.65 18.9 7.5 17.85 7.15 18.25 6.25 17.7 4.2 16.1 4.9 15.25 2.55 12.8 2.05 13.4 Q1.25 12.1 0.8 10.8 L2.55 12.8 4.45 10.8 2.1 8.2 0.5 9.9 0.4 9.55 0.1 8.1 0.0 6.85 0.1 5.75 2.1 8.2 4.45 6.0 6.8 8.55 4.45 10.8 6.85 13.2 4.9 15.25 7.5 17.85 9.55 15.75 6.85 13.2 9.3 10.95 10.35 11.95 M0.1 5.05 Q0.15 3.25 1.1 2.4 L1.2 2.5 1.8 2.75 2.2 3.25 0.1 5.05 M2.5 3.0 L6.25 4.55 4.45 6.0 2.2 3.25 2.5 3.0 M8.1 5.35 L9.7 6.0 9.15 6.45 8.1 5.35" fill="#000000" fill-rule="evenodd" stroke="none"/>
      <path d="M9.7 6.0 L10.3 6.25 10.3 7.55 9.15 6.45 9.7 6.0 M10.4 10.05 L10.35 11.95 9.3 10.95 10.4 10.05 M10.35 15.0 L10.35 16.45 9.55 15.75 10.35 15.0 M10.3 19.35 L10.3 19.5 10.2 19.45 10.3 19.35 M8.65 18.9 L8.6 18.9 7.15 18.25 7.5 17.85 8.65 18.9 M4.2 16.1 L3.9 15.8 2.25 13.7 2.1 13.5 2.05 13.4 2.55 12.8 4.9 15.25 4.2 16.1 M0.8 10.8 L0.7 10.6 0.5 9.9 2.1 8.2 4.45 10.8 2.55 12.8 0.8 10.8 M0.1 5.75 L0.1 5.6 0.1 5.05 2.2 3.25 1.8 2.75 2.5 3.0 2.2 3.25 4.45 6.0 6.25 4.55 8.1 5.35 9.15 6.45 6.8 8.55 9.3 10.95 6.85 13.2 9.55 15.75 7.5 17.85 4.9 15.25 6.85 13.2 4.45 10.8 6.8 8.55 4.45 6.0 2.1 8.2 0.1 5.75" fill="#ea0000" fill-rule="evenodd" stroke="none"/>
      <path d="M0.8 2.2 L10.35 6.05 10.3 19.5" fill="none" stroke="#8f0101" stroke-linecap="round" stroke-linejoin="round" stroke-width="1.0"/>
    </g>
  </defs>
</svg>
