<svg xmlns:xlink="http://www.w3.org/1999/xlink" height="82" width="84.85" xmlns="http://www.w3.org/2000/svg"><g transform="translate(37.4 42.25)"><use height="38.95" transform="translate(-12.45 -17.95)" width="33.05" xlink:href="#a"/><use height="25.05" transform="translate(-16.05 .75)" width="39.55" xlink:href="#b"/></g><defs><path d="M27.35 7.4q2.15 4.15 3.55 8.75 1.45 4.7 1.15 9.5-.35 4.95-4.2 8.1-3.8 3.2-8.75 4.05l-2.6.2q-3.6 0-7.05-1.15-4.65-1.6-7.1-5.5Q-.2 27.4.05 23q.2-4.4 2-9.3Q3.85 8.75 7 5.05 10.1 1.3 14.7.1l1.8-.1q1.9.05 3.7.8 4.75 2.05 7.15 6.6" fill="#c98036" fill-rule="evenodd" transform="translate(-.05)" id="c"/><path d="M27.35 7.4Q24.95 2.85 20.2.8 17.55-.3 14.7.1 10.1 1.3 7 5.05q-3.15 3.7-4.95 8.65-1.8 4.9-2 9.3-.25 4.4 2.3 8.35 2.45 3.9 7.1 5.5 4.65 1.55 9.65.95 4.95-.85 8.75-4.05 3.85-3.15 4.2-8.1.3-4.8-1.15-9.5-1.4-4.6-3.55-8.75Z" fill="none" stroke="#000" stroke-linecap="round" stroke-linejoin="round" transform="translate(.45 .5)" id="d"/><path d="m9.85-13.1.45.85q1.65 2.35 3.75 7.7-2.6 4.55-11.8 2.8L.2-2.95v.1q-1.3.95-2.15 1.2Q-11.2-.15-13.7-4.8l1.8-3.9q2.1-4.05 3.45-5.1l3.35-.3q2.35.05 3.95 1l.4.2.25.2.85.8.05-.05v-.2Q2.7-15 9.05-13.7l.05.05.75.55" fill="#f3b372" fill-rule="evenodd" transform="translate(13.7 14.1)" id="g"/><use height="38" width="32.05" xlink:href="#c" id="e"/><use height="38.95" width="33.05" xlink:href="#d" id="f"/><g id="a" transform="translate(16.5 19.5)"><use height="38" transform="translate(-16 -19)" width="32.05" xlink:href="#e"/><use height="38.95" transform="translate(-16.5 -19.5)" width="33.05" xlink:href="#f"/><use height="12.85" transform="translate(-13.7 -14.1)" width="27.75" xlink:href="#g"/></g><g id="b" fill-rule="evenodd"><path d="M20.25 5.25V5.2v.05L20 3.35v-1.4l.05-.1-.05.05-.2.05-.1-.75.65.05q.8 1.2.45 2.25l-.6.35.2.45q.8.6.95 1.5l-1.05.05-.05-.55v-.05m2.2 11.7 1.05-.1q-.05 1.5-1.15 2.5.15 1.45-.2 2.95l-.8.65-.75.4-2.15-1.65q-.3 1.1-1.3 1.7-.9.6-1.85.8 1.55-1.2 2.4-2.85l.4-.55 2.75 1.75.45-.3.15-.85-.75 1-.1-.95-.3-.6-2-.2h-.15l.55-.35.25-.2 1.1-.25.75.2.55.6-.55-.8.1.1.35.35.15-1.4.45-.95.15-.25.45-.65v-.1m-8.6 7.4-7.2 1.05-2 .4h-1.5L.6 24.85l-2.15-.4-5.55.4q-1.7-.5-2.75-1.5l-1.3-1.4-2.3 2.05q-1.2-.5-1.25-2.1l-.05-1.3q.05-1.2-.25-2.25-.4-1.3-1.05-2.5l1.6.05-.1.5v.6l-.35.2.65 1.05.55 1.3.1 1 1.75-1.7 1.15-1.05.9-.6.95-.5 1.1-.4-.45.4-1.9 1.55-2.15 1.8 1.5.75.15.15.1.15q-1.4.85-2.85 1.5l-.1-.05q-.65-1-.05-2h-.1.1q-.6 1 .05 2l-.25-.45q-.3-.8.1-1.55-.4.75-.1 1.55l.25.45.1.05q1.45-.65 2.85-1.5l1.05 1.4 2.05 1.9 1 .05.5-.15q1.8.45 3.4-.55l.7-.4 3.75 1.35q.75.5 1.6.6H4l2.85-1.15 2.4-.95 3.9 1 .65.1.05.05m-26.1-22.3-.15 1.25.3.05.2.45-.35 1.35q-.15-.1-.15-.05l.1.2-.05.05-.1-.1.1.2-.5 1-.05.05q-.35-.1-.3-.55.05-1 .8-1.95l-.5-.25.25-2.5.85-.5-.05 1.3h-.1l-.3-.15V2h-.05l.05.05m9.85 20.8.2.2h-.1q-1.95 0-3.55.95l.05-.1.95-1.35 1.3-.2 1.15.5m13.8-.8q.7.1 1.2.5l.85 1.35v.05l-.95-.55q-1.1-.6-2.35-.65h-.1l1.35-.7m-23.55-1.85 1.5.8-2.55.75-.05-.75.1-.3 1-.5" fill="#470441" transform="translate(16.05 -.75)"/><path d="m17.25 6.5.65-1.25q.8-1.35 2.05-1.9l-2.15 2.6-.15.1-.35.45h-.05m-3.75.45h-3.2l-3.85-.1h5.7l1.35.1m-17.9 4.7 1.9.2 3.8.1h3.2l3.65-.05 3.55-.15 3.5-.15 3.35-.25-3.6.75-3.7.4-3.6.3H.35l-3.6-.3-3.55-.45-3.6-.7 2.55.1 2.9.15.55.05m-.7-4.6h-.95l-.3-.4-1.8-1.7Q-6.75 5.9-5.7 7l.6.05m-7-3.7.2.05q1.25.65 1.9 2l.55 1.05h-.1L-11.9 3.8l-.2-.45m29 10.6-3 .75-5.25.8-1.55-.05-2.55-.4 2.2.1 4.5-.6 3.8-.85 2.15-.6.1.7v.05l-.4.1M-2.5 15.5l-3.35-.45-1.4-.3-1.15-.4-.75-.4h-.05l-.05-.1.55-.65 3.25 1.2 1.7.65 3.2.6-1.95-.15" fill="#29b4ff" transform="translate(16.05 -.75)"/><path d="m20 1.9.05-.05-.05.1V1.9M-7.2 13.35l-2-.6-.1-.5 7.85 1.5 2.5.25 2.4.05H5.9l2.4-.15 2.45-.25 2.4-.35 4.8-1.1-.2.4-2.2.65-2.35.45-3.7.5-1.3.05h-.3l-3.8.15H2.15l-3.25-.25-6.1-.8m27-11.4-1.3 1-2.45 2-2.2 2h-.35l-1.35-.1h-5.7l-2.7-.05-2.1.1-6.75.15-.6-.05q-1.05-1.1-2.45-2.05l-2.2-1.75-1.05-.75-.55-.4h.1q1.55.5 2.9 1.45l3.2 2.3 1.15.95 7.15-.8 6.3.3 2.25.2 1.25.1 2.7-1.9 1.45-.9 3.3-1.8m-2 4 2.35-.85-1 .6-1.85.8.35-.45.15-.1m-27.25.5v.05l-.3.05-2.2-.95-.35-.3-.1-.2q0-.05.15.05l2.7 1.3h.1" fill="#0041a0" transform="translate(16.05 -.75)"/><path d="M20.25 5.25v.05l-.85 2.2.65-2.1.2-.15m-.45-3.3.2-.05v1.45h-.05q-1.25.55-2.05 1.9l-.65 1.25-3.4.45 2.2-2 2.45-2 1.3-1m2.55 15h.1v.1l-.45.65-.2.3-.65.1.35-1.25.85.1m-.95 1.95-.15 1.4-.35-.35.15.1.35-1.15M10.3 6.95l-.2.75q-.35 1.05-1 1.75L6.55 10l1.65.35-.4.3-2.3-.35 1.75.65-1.7.45-2 .45 15.75-.6q-.65-1.1-.3-2.45l.05-.2q-.25 1.4.3 2.7l-.8.05-3.35.25-3.5.15-3.55.15-3.65.05H1.3l-3.8-.1-1.9-.2 1.05-.25.2-.15q-1.05-.1-1.9-.75l-4.7-3.95.3-.05v-.05L-10 5.4q-.65-1.35-1.9-2l-.2-.05-.3-.05.15-1.25 3.15 2.5 2.15 2.55.55.1-.5-.9.35.3-3.8-3.4 2.2 1.75 1.8 1.7.3.4h.95l6.75-.15 2.1-.1 2.7.05 3.85.1m-18.15 4.5-2.55-.1-1.25-.05q.45-.75.45-1.55-.05-2.25-1.15-4.3l-.1-.2.1.1.25.2-.1-.05 3.15 5.85 1.2.1m7.9-.25 1.9-.6L3 10.3l-2.45.65q-1.85.15-3.5-.7l-2.25-1.4-1.2-1 2.15 2.35 1.65.7 2.65.3m17.25 5.2.5.05h.35l1.45 1.35-1.95-.75-.2-.15h-.05l-.55-.35 1.5.75-1.05-.9M-.8 10.55q1.45.45 2.85-.45L-2.9 9l.5.6q.7.75 1.6.95m-11.15-8.5.55.4q-.45-.25-.85-.45v-.1l.3.15M-14.9 17.2l.4-.05.35.75q.4.8.45 1.65l-.55-1.3-.65-1.05m4.2.6-.15.05 1.35-1.05-1.5.6-.95.85-1 .1 1.3-1.5 1.8-.2.85.05-.8.5-.9.6" fill="#ff2990" transform="translate(16.05 -.75)"/><path d="m20.05 5.4-.65 2.1-.05.1-.3 1-.05.2q-.35 1.35.3 2.45l-15.75.6 2-.45 1.7-.45 3.7.15q1.75-.55 3-2.05l.95-1.2q-1.5 1.75-3.7 2.5l-3.4.3.4-.3.2.05 1.7-.5 1.35-.95-2.35.5q.65-.7 1-1.75l.2-.75h3.55l3.4-.45h.05l1.85-.8 1-.6-.1.3M15.3 24.2l-1.3.1-.15.05-.05-.05-.25-.25-.1-.15-.85-1.35-.3-.45-.5-.95 1.05 1q1.05 1.1 2.25 1.4l-1.15-.6 1.7-.8q1.65-.55 2.65-2.05l-.6 1.25q-.85 1.65-2.4 2.85m-29.75-8.3.35-.15q1.05-.6 2.3-.75l1.05-.3 1-.3 1.35-.05 1.15.4 1.4.3 3.35.45 1.5.2 3 .2 3.2-.1 2.6-.15 6.8-1 2.3-.7.4-.1v-.05l.75-.25.05-.1 3.6 2.3-.1.6-.1.5-.35 1.25.65-.1.05-.05-.45.95-.35 1.15-.15-.1-.1-.1-1.35-1.35q-1.2-1.25-2.65-1.8l-.1-.1.6.3.35.15 1.95.75-1.45-1.35-.25-.1-1-.45-.45-.05-.4-.2-2.1-.05 1.95.55-.05.2-.5-.15.4.3-.1.35q-.65.8.4.8l.15.05-.15.15q-1.55.95-3.2.65l-.6-.35q-1.1-.7-2.35-1.1l-.55-.45-2.3.6-.1-.3q-1.2.2-1.8.75l-.85 1.2L4 20l-.15-2.45-.45.95-.2-.45-.05-.3-.05.1q-.35-.6-1-.65l-3.25-.9-7.05.4.45-.4-1.1.4H-9l-.85-.05-1.3-.15-.5.35-1.3 1.5 1-.1-.3.7 1.4-1.1.15-.05-1.15 1.05-1.75 1.7-.1-1q-.05-.85-.45-1.65l-.35-.75-.05-.15v-.6l.1-.5m10.05-4.25-.55-.05-2.9-.15-1.2-.1-3.15-5.85.1.05.15.05 2.2.95 4.7 3.95q.85.65 1.9.75l-.2.15-1.05.25M4 21.9l.4 1.15.4.65q.95.15 1.9-.4 1.45-.85 2.5-2.1.1.7-.4 1.35-.85 1-1.95 1.6L4 25.3h-.45q-.85-.1-1.6-.6-.5-.3-1.15-.5-1.35-.45-2.05-1.4 1.75 1.05 3.95.3l.65-1.25.25 1.85.4-1.8m-14.8-2.1 1.4 1.25 2.85 1.85.7-.55 1.2-1.15 2.45-2.45-1.45 1.95-1.2 1.85-.95 1.35-.2.3-.4.25-1-.05-2.05-1.9-1.05-1.4-.1-.15-.2-1.15" fill="#c91169" transform="translate(16.05 -.75)"/><path d="m-11.8 15 .85-.6.2.3-1.05.3m33.4 1.35.75.6-.85-.1.1-.5m-3.8.1.05-.1h.05l.25.1h-.35" fill="#ff2d92" transform="translate(16.05 -.75)"/><path d="m21.8 18 .2-.3-.15.25-.05.05m-3.65 2.65h.15l-.2.15-.4.55.6-1.25q-1 1.5-2.65 2.05l-1.7.8 1.15.6q-1.2-.3-2.25-1.4l-1.05-1L10.1 19l-2-2.05.55.6q.9 1.2 1.05 2.7.2 2.2-1.6 3.3l1.4-.45-.25.1-2.4.95q1.1-.6 1.95-1.6.5-.65.4-1.35-1.05 1.25-2.5 2.1-.95.55-1.9.4l-.4-.65L4 21.9V20l.3-1.15.85-1.2q.6-.55 1.8-.75l.1.3 2.3-.6.55.45-.85-.2q2.1 1.4 3.9 3.25l1 1.6v-.95q-.05-1.45-1.1-2.25 1.65.3 3.2-.65l.15-.15-.15-.05q-1.05 0-.4-.8h.6l1.1.85q.8.95.95 2.3v.1l-.15.55m3.3.75-.15.85-.45.3.6-1.15M3.2 18.05l.2.45-.1 2.65.05.7-.65 1.25q-2.2.75-3.95-.3.7.95 2.05 1.4.65.2 1.15.5l-3.75-1.35-.5-.3h.1l-.2-.2 1.6.75-.8-1.35-.25-1.45q.2-2 1.35-3.6l-1.7 1.55-2.45 2.45-1.2 1.15-.7.55-2.85-1.85-1.4-1.25.7-1.55 1.9-1.55 7.05-.4 3.25.9q.65.05 1 .65-.75 1.6-.2 3.3l.2.55.1-3.65m14.1-1.15h.15l.2.15-.35-.15m-4.15 7.3.4-.15.25.25-.65-.1m-27.7-7.2.05.15-.4.05.35-.2m2.9-.15.5-.35 1.3.15-1.8.2M-9 16.7h.15l-.95.5.8-.5m-1.6 4.25-.15-.15-.05-1 .2 1.15m4.2 3.5.4-.25.1.1-.5.15m5.25-7.25q-2.15.3-3.65 1.9l-.75.9-.45 1.95q.55-1.05 1.55-1.95l2.2-1.9 1.1-.9" fill="#fb288e" transform="translate(16.05 -.75)"/><path d="m-10.1 13.85.2-.15.7.25h.05l.75.4-1.35.05-.35-.55m26.05 3h-.3l.1-.35.35.25-.15.1m.95-.95-.1.15-.35-.2.45.05m-.4.45-.2.15-.45-.15.05-.2.6.2" fill="#fe2b8e" transform="translate(16.05 -.75)"/><path d="m20.05 19.85-1.1.25-.25.2-.55.35.15-.55V20q-.15-1.35-.95-2.3l2.7 2.15M9.5 23.1l-1.4.45q1.8-1.1 1.6-3.3-.15-1.5-1.05-2.7l.9 1.05q1.3 1.4 1.85 3.45l-1.35.7h.1l-.65.35m-19.6-4.85-.7 1.55.05 1-1.5-.75 2.15-1.8m9.6-1.05q-1.15 1.6-1.35 3.6l.25 1.45.8 1.35-1.6-.75-1.15-.5-.05-.5.15-.55 2.1-3.1.85-1" fill="#ffb8e6" transform="translate(16.05 -.75)"/><path d="m-10.95 14.4.85-.55.35.55-1 .3-.2-.3m27.2 2.45h-.3l.15-.1.15.1m.55-.8.1-.15 1 .45h-.05l-.05.1-.5-.05-.5-.35m.5.85-.6-.3.1.1-.5-.2.2-.15.35.2.55.35h-.1" fill="#fb298d" transform="translate(16.05 -.75)"/><path d="m20.8 19.85.55.8-.55-.6-.75-.2-2.7-2.15-1.1-.85-.15-.1-.35-.25-.4-.3.5.15.45.15.5.2q1.45.55 2.65 1.8l1.35 1.35m-2.5.8 2 .2.3.6.1.95.75-1-.6 1.15-2.75-1.75.2-.15m-10.5-10 3.4-.3q2.2-.75 3.7-2.5l-.95 1.2q-1.25 1.5-3 2.05l-3.7-.15-1.75-.65 2.3.35m-7.75.55-2.65-.3-1.65-.7-2.15-2.35 1.2 1 2.25 1.4q1.65.85 3.5.7L3 10.3l-1.05.3-1.9.6M4 20v1.9l-.4 1.8-.25-1.85-.05-.7.1-2.65.45-.95L4 20m5.25 3.2.25-.1.65-.35q1.25.05 2.35.65l.95.55v-.05l.1.15-.4.15-3.9-1m-.6-5.65-.55-.6 2 2.05 1.7 2.15.5.95.3.45q-.5-.4-1.2-.5-.55-2.05-1.85-3.45l-.9-1.05m-10.85 1.2 1.7-1.55-.85 1-2.1 3.1-.15.55.05.5-1.3.2 1.2-1.85 1.45-1.95m-.1 4.3.5.3-.7.4q-1.6 1-3.4.55l-.1-.1.2-.3-.05.1q1.6-.95 3.55-.95m-9.85-2.85-1 .5-.1.3.05.75 2.55-.75-1.5-.8" fill="#99064d" transform="translate(16.05 -.75)"/><path d="M12.85 18.5q1.05.8 1.1 2.25v.95l-1-1.6q-1.8-1.85-3.9-3.25l.85.2q1.25.4 2.35 1.1l.6.35m-9.75-.65.05-.1.05.3-.1 3.65-.2-.55q-.55-1.7.2-3.3m13.35-2 .35.2.5.35 1.05.9-1.5-.75-.35-.2-.6-.2-1.95-.55 2.1.05.4.2m-27.3 2-1.4 1.1.3-.7.95-.85 1.5-.6-1.35 1.05m9.7-.65-1.1.9-2.2 1.9q-1 .9-1.55 1.95l.45-1.95.75-.9q1.5-1.6 3.65-1.9" fill="#f7dcf7" transform="translate(16.05 -.75)"/><path d="m9.1 9.45 2.35-.5-1.35.95-1.7.5-.2-.05L6.55 10l2.55-.55M-10.35 3.2l3.8 3.4-.35-.3-2.2-1.75-3.15-2.5-.05-.05h.05q.4.2.85.45l1.05.75m9.25 10.95 3.25.25H4.1l3.8-.15H8l-2.8.55-3.35.1-3.1-.1-2.95-.6-1.45-.45 4.55.4m.3-3.6q-.9-.2-1.6-.95l-.5-.6 4.95 1.1q-1.4.9-2.85.45" fill="#fff" transform="translate(16.05 -.75)"/><path d="M-9.9 13.7v-.75l2.7.4 6.1.8-4.55-.4 1.45.45 2.95.6 3.1.1 3.35-.1 2.8-.55h.2l1.3-.05 3.7-.5 2.35-.45 2.2-.65.2-.1.15.95-.05.1-.75.25-.1-.7-2.15.6-3.8.85-4.5.6-2.2-.1 2.55.4 1.55.05 5.25-.8 3-.75-2.3.7-6.8 1-2.6.15-3.2.1-3-.2-1.5-.2 1.95.15-3.2-.6-1.7-.65-3.25-1.2-.55.65.05.1-.7-.25" fill="#7dd1ff" transform="translate(16.05 -.75)"/><path d="m-6.9 6.3.5.9-.55-.1-2.15-2.55 2.2 1.75" fill="#f286ef" transform="translate(16.05 -.75)"/><path d="m10.5 9.85.8-.5 2.35.2.4.7.05.7 1.55-.9.9.75.5.4q.55.55.4 1.3-.2 1.2-1.3 1.3l1.2.75.1.45-.3.5-1.2 1.55q-.9.55-1.9.4l-.25-.9q-.2 1-1.1 1.5l-2.6-.3-.45-.75q-.2-.4-.05-.85l.8-.65-1.45.1-.3-2.65 1.65-1.3-.1-.45q-.2-.65.3-1.35m5.35.9-.3-.3q-1.1.25-1.7 1.1l-.25-.95-.7-.8-.6-.25q-1 0-1.7.65-.25 1.25.8 2.35l-.8-.45q.45.4-.25.1l-.4.1-.75.45-.1.35q-.4 1.1.15 2.1l2.2-.15-1.25 1.2-.1.2v.25l.2.65 2.15.5.8-.85.25-.75.05-.55.65 1.05.25.35q.7.2 1.2-.3l1.15-1.45.25-.5v-.2q-.3-.4-.85-.5l-1.15-.2 1.2-.45.45-.1.3-.65.05-.55-.35-.45-.3-.35-.1-.15-.1-.05-.25-.3-.1-.1v-.05" fill="#141423" transform="translate(16.05 -.75)"/><path d="m11.45 15.05-2.2.15q-.55-1-.15-2.1l.1-.35.75-.45.4-.1q.7.3.25-.1l.8.45q-1.05-1.1-.8-2.35.7-.65 1.7-.65l.6.25.7.8.25.95q.6-.85 1.7-1.1l.3.3-.85.05q-.8.25-1.15 1.05l.2.5 1.8-1.55.1.1.25.3.1.05.1.15.3.35.35.45-.05.55-.3.65-.45.1-1.2.45 1.15.2q.55.1.85.5v.2l-.25.5-1.15 1.45q-.5.5-1.2.3l-.25-.35-.65-1.05-.05.55-.25.75-.8.85-2.15-.5-.2-.65v-.25l.1-.2 1.25-1.2.25.5.25.2.25-.05 1.45-.55.7-.3-.5-.85.1-.1.65-.2.25-.5.05-.1-.05-.05-.05-.1-.4-.05-1.1-.4-.6 1.45-.75-.25.8-.65q.45-.55-.1-.55l-.3.15-.75.9-.2-.1.05 1.6m.05-5.1q.75.15 1.45.65l.6.35q-.25-.8-1-1l-.55-.1-.5.1M9.55 14.8l-.1-1.05.25-.45q.5-.65 1.35-.7l-1.2-.1-.3.3q-.55.9 0 2m7.2.35.05.1q.25-.35-.1-.15l.05.05-1.4 1.3-.55.4-.2-.15-.2-.05-.2-.4.35.2h.25l.6-.3 1.3-1.05-.5-.65-1.65-.25q1 .1 1.1.95l-.8.7q1.1.1 1.85-.75-.75.85-1.85.75l.8-.7q-.1-.85-1.1-.95l1.65.25.5.65-1.3 1.05-.6.3h-.25l-.35-.2.2.4.2.05.2.15.55-.4 1.4-1.3m-6.4.95.05.45.2.65 1.6.2.6-.2q-1.15 0-1.95-.55l-.5-.55" fill="#51e5e1" transform="translate(16.05 -.75)"/><path d="m11.45 15.05-.05-1.6.2.1.15.2.2-.05.75.25.6-1.45 1.1.4-.45.35q-.7.65 0 .65l-.1.1.5.85-.7.3-1.45.55-.25.05-.25-.2-.25-.5m3.4-2 .05.05-.05.1v-.15m-3.35-3.1.5-.1.55.1q.75.2 1 1l-.6-.35q-.7-.5-1.45-.65M9.55 14.8q-.55-1.1 0-2l.3-.3 1.2.1q-.85.05-1.35.7l-.25.45.1 1.05m3.15-.85-.35.4-.15.3-.1.1q0 .75.7.65l.2-.3q.4-.9-.3-1.15m-2.35 2.15.5.55q.8.55 1.95.55l-.6.2-1.6-.2-.2-.65-.05-.45" fill="#2868b5" transform="translate(16.05 -.75)"/><path d="m11.6 13.55.75-.9.3-.15q.55 0 .1.55l-.8.65-.2.05-.15-.2m2.8-.65.4.05.05.1v.15l-.25.5-.65.2q-.7 0 0-.65l.45-.35m-1.7 1.05q.7.25.3 1.15l-.2.3q-.7.1-.7-.65l.1-.1.15-.3.35-.4" fill="#122a5b" transform="translate(16.05 -.75)"/><path d="m15.85 10.8-1.8 1.55-.2-.5q.35-.8 1.15-1.05l.85-.05v.05m.9 4.35-.05-.05q.35-.2.1.15l-.05-.1" fill="#fff" transform="translate(16.05 -.75)"/></g></defs></svg>