<svg xmlns:xlink="http://www.w3.org/1999/xlink" height="82" width="84.85" xmlns="http://www.w3.org/2000/svg"><g transform="translate(37.4 42.25)"><use height="38" transform="translate(-11.95 -17.45)" width="32.05" xlink:href="#a"/><use height="38.95" transform="translate(-12.45 -17.95)" width="33.05" xlink:href="#b"/><use height="24.45" transform="translate(-15.8 2.15)" width="39" xlink:href="#c"/></g><defs><path d="M27.35 7.4q2.15 4.15 3.55 8.75 1.45 4.7 1.15 9.5-.35 4.95-4.2 8.1-3.8 3.2-8.75 4.05l-2.6.2q-3.6 0-7.05-1.15-4.65-1.6-7.1-5.5Q-.2 27.4.05 23q.2-4.4 2-9.3Q3.85 8.75 7 5.05 10.1 1.3 14.7.1l1.8-.1q1.9.05 3.7.8 4.75 2.05 7.15 6.6" fill="#fff" fill-rule="evenodd" transform="translate(-.05)" id="d"/><path d="M27.35 7.4Q24.95 2.85 20.2.8 17.55-.3 14.7.1 10.1 1.3 7 5.05q-3.15 3.7-4.95 8.65-1.8 4.9-2 9.3-.25 4.4 2.3 8.35 2.45 3.9 7.1 5.5 4.65 1.55 9.65.95 4.95-.85 8.75-4.05 3.85-3.15 4.2-8.1.3-4.8-1.15-9.5-1.4-4.6-3.55-8.75Z" fill="none" stroke="#000" stroke-linecap="round" stroke-linejoin="round" transform="translate(.45 .5)" id="e"/><use height="38" width="32.05" xlink:href="#d" id="a"/><use height="38.95" width="33.05" xlink:href="#e" id="b"/><g id="c" fill-rule="evenodd"><path d="M20.55 15.4q1 4.2 1.95 5.85.2.45-.1.65-1.9 2.05-5.1 3.4-6.35 2.75-13-.25-.3-.15-.3-.45l.05-3.3.05-.35-.85.05.15 3.7-.15.3q-1.1 1.15-6.8.85-7.9-.4-10.5-3.85l-.05-.5q1.4-3.75 1.6-9.35l.05-.55.35-.45.55.1q3.05 2.8 15.7 2.45 12.2-.35 14.65-2.5l.55-.1.35.4.85 3.9" fill="#0a2228" transform="translate(15.8 -2.15)"/><path d="m18.75 12.45.75 3.4q.95 3.75 1.85 5.6-1.6 1.7-4.45 2.9-5.7 2.4-11.85-.15l.1-4.2-2.85.05Q2 20 2.3 24.3q-.95 1.05-6.8.5-6.35-.65-8.5-3.25.95-2.75 1.35-5.85l.25-3.05q4.1 2.45 16.15 2 11.2-.45 14-2.2" fill="#50ceff" transform="translate(15.8 -2.15)"/><path d="m.2 20.8 2.15.1q.2.55 0 1.9v1.65L.7 24.8q-.5-2.5-1.15-3.5H-.5q-.3-.5.7-.5m7.25-.05 6.65-.9 2-.15 2.05-.6q1.65-.55 1.8-.4 1.35 1.5 1.15 2.8-.25 1.25-4.3 2.9-4.8 1.95-9.25.65l-.95-.3q1.25-.35 1.35-.8L7.8 20.9l-.4-.05.05-.1" fill="#19658a" transform="translate(15.8 -2.15)"/><path d="M19.6 3.1q.25-.15.5 0 .35.2.55 4.85.25 7.85.6 8.4.4.4-.2.9-2.6 2.75-12.6 3.95-12.6 1.5-21.85-3.9l-.25-.55q.55-2.75.6-8.3l-.05-5 .05-.25 1.3.05L3.4 9.6q1.25-.35 16.2-6.5" fill="#0a2228" transform="translate(15.8 -2.15)"/><path d="M20.3 16.6q-.5.65-3.6 1.7-3.75 1.25-8 1.8-12.35 1.55-21.3-3.55.55-2.8.6-7.85l-.1-4.5 15.4 6.4q.4.05 16.15-6.35l.3 5.65q.15 6.05.55 6.7" fill="#50ceff" transform="translate(15.8 -2.15)"/><path d="m9.45 11.5-.1 5.45.1 3.05-4.85.4q2.9-1.15 3.1-1.55l-2.85-.15q1.95-.95 2.85-2.4l-2.45.15q1.9-1.1 2.55-2.5l-2.3.25 1.8-1.25-2.5.15 2.6-.95 2.05-.65m-10.55.2q1 .65 3.75 1.5l-2.7.15 1.95 1.3-2.4.3 2.05 1.35-1.95.95q1.4 1.1 2.5 1.4l-2.7.65q.3.45 2.1 1.1l-3.25-.3v-.65l.15-2.2.05-3.65.2-2.05.25.15" fill="#19658c" transform="translate(15.8 -2.15)"/><path d="M19.8 3.2q.3-.1.55.15l.5.95q.4 1.2.1 2.7l-.2.3q-.85.6-8 3.4-7.55 2.95-9.1 3-1.85.05-16.95-6.75l-.15-.1q-.65-1 .05-2.95.45-1.1.8-1.1.35-.1 16 6.45L19.8 3.2" fill="#0a2228" transform="translate(15.8 -2.15)"/><path d="M3.5 12.7q-1.5.05-16.1-6.5-.45-.7-.15-1.5.25-.75.5-.8L3.4 10.4l16.55-6.2.05 2.35q-.85.6-7.8 3.3-7.25 2.8-8.7 2.85" fill="#50ceff" transform="translate(15.8 -2.15)"/><path d="m20.35 5.2.05.25-.15.05L20 6.55 12.2 9.9q-7.25 2.85-8.7 2.9-1.5.05-16.1-6.6-.65-1 0-1.2l16.05 6.7 16.8-6.2.1-.3" fill="#19658c" transform="translate(15.8 -2.15)"/><path d="M-1.2 6.65q.35.1.35.5Q-.85 24.2-2.2 25l-.25.1q-2.15.1-5.6-.85-5.1-1.35-7.65-4.15l-.1-.35v-.1l.25-.35 1.4-1.45-.05-.45-.3-6.25q0-4.95 1.3-8.7l.3-.25h.4l11.3 4.45" fill="#414244" transform="translate(15.8 -2.15)"/><path d="M-13.15 18.1Q-14 7.85-12.4 3.3q7.7 3.35 10.55 4.2.15 15.9-.9 16.6-1.9.15-5.65-.9-4.55-1.3-6.15-3.4l1.4-1.7" fill="#fff" transform="translate(15.8 -2.15)"/><path d="M-7.55 11.15-6 10.3q-4.7-3.15-6.85-5.6l.4-1.65 10.95 3.9q.4 2.3-.05 8.65-.4 5.6-.85 7.45-.35.2-1.45 0-1.05-.2-1.3-.5l.55-3.95q-2.95-3.25-2.95-7.45" fill="#abb8d9" transform="translate(15.8 -2.15)"/><path d="M-6.8 10.95q1.1-.4 3.6-2.65-1.45.65-2.2 1.4-6.85-4.45-8.15-6.1l.75-1.45Q-9 3.55-1.15 6.7q.45 2.25-.05 8.6-.4 5.45-.8 7.45-.8.15-2.75-.5l.6-3.55q-1.95-3.15-2.65-7.75" fill="#414244" transform="translate(15.8 -2.15)"/><path d="M-6 11.2q1.2-.6 3.4-3.1-1.05-.1-2 .35l-.75.45q-6.95-4.55-7.55-5.3l.35-.75q4 1.95 10.8 4.6.55 9.4-1.1 14.65L-4 21.75l.5-3.2q-1.7-2.4-2.5-7.35" fill="#fff" transform="translate(15.8 -2.15)"/><path d="m20.3 2.25.25.3Q21.9 6.3 21.9 11.2l-.35 6.25v.5l1.35 1.45.3.35v.1l-.1.35q-2.6 2.8-7.7 4.15l-5.6.85-.25-.1Q8.3 24.25 8.2 7.25q0-.4.4-.5 2.95-.9 11.3-4.5h.4" fill="#414244" transform="translate(15.8 -2.15)"/><path d="m20.55 18.2 1.4 1.65q-1.6 2.1-6.2 3.45-3.7 1.05-5.6.9-1.1-.7-.95-16.6l10.55-4.2q1.65 4.55.8 14.8" fill="#fff" transform="translate(15.8 -2.15)"/><path d="M14.85 11.6q-.95 4.95-2.65 7.75l.55 3.35-3 .5q-.4-1.75-.7-7.35-.3-6.2.15-8.55l10.45-4.05.65 1.8q-3 3.45-6.25 5.65l.8.9" fill="#abb8d9" transform="translate(15.8 -2.15)"/><path d="m8.55 6.75 11.65-4.5.75 1.45q-1.2 1.5-8.15 6.1l-2.2-1.4 3.6 2.65q-.95 5.05-2.65 7.75l.6 3.55-2.75.5Q8.95 21 8.55 15.4q-.45-6.35 0-8.65" fill="#414244" transform="translate(15.8 -2.15)"/><path d="M10 8.2q2.1 2.45 3.4 3.05-.75 4.95-2.5 7.4l.5 3.2-1.2.35Q8.6 16.95 9.15 7.5q6.8-2.65 10.8-4.55l.35.75q-.55.7-7.55 5.25Q11.7 8 10 8.2" fill="#fff" transform="translate(15.8 -2.15)"/><path d="M-5.5 20.75q-.3 2.2-.9 2.35l-1.6-.2q-1.35-.25-1.8-.65l2.65.35q-3.15-.65-4.1-1.5 1.85.9 3.85.4l-4.35-2.2 5.25 1.25 1 .2" fill="#abb8d9" transform="translate(15.8 -2.15)"/><path d="m-11.85 19.35.55-2.35 6.5 1.6-.6 2.35-6.45-1.6" fill="#414244" transform="translate(15.8 -2.15)"/><path d="m-6.15 20.05-4.6-1.1.3-1.15 4.55 1.15-.25 1.1" fill="#fff" transform="translate(15.8 -2.15)"/><path d="M20.3 13.2q.8.7.35 5.1l.85 1.05-1.3 1.3-.9.5-1.1.45 1.1-.9-3 .6q1.6-.35 2-1.5l-2 .55-2.65-.05 1.75-.45 2.55-.6q1.6-.45 1.45-1.15l-.45-1-2.05.35-2.35.35q.65-.15 1.95-1.2.7-.5.7-1.25l-.15-2.8.15-.1-.1.05q.45-.75 1.65-.35 1.05.35 1.55 1.05" fill="#abb8d9" transform="translate(15.8 -2.15)"/><path d="m19.25 16.5.65 2.3-6.4 1.85-.7-2.35 6.45-1.8" fill="#414244" transform="translate(15.8 -2.15)"/><path d="m14.25 19.7-.35-1.1 4.55-1.3.3 1.15-4.5 1.25" fill="#fff" transform="translate(15.8 -2.15)"/><path d="m-13.2 18.1 1.05.6-1.7.2.6-.8h.05m-.1-1.2v-.15l1.55 1.35-1.45-.2-.1-1" fill="#abb8d9" transform="translate(15.8 -2.15)"/></g></defs></svg>