<?xml version="1.0" encoding="UTF-8" standalone="no"?>
<svg xmlns:xlink="http://www.w3.org/1999/xlink" height="82.0px" width="84.85px" xmlns="http://www.w3.org/2000/svg">
  <g transform="matrix(1.0, 0.0, 0.0, 1.0, 37.4, 42.25)">
    <use height="38.0" transform="matrix(1.0, 0.0, 0.0, 1.0, -11.95, -17.45)" width="32.05" xlink:href="#sprite0"/>
    <use height="38.95" transform="matrix(1.0, 0.0, 0.0, 1.0, -12.45, -17.95)" width="33.05" xlink:href="#sprite1"/>
    <use height="27.15" transform="matrix(1.0, 0.0, 0.0, 1.0, -15.8, -0.35)" width="39.2" xlink:href="#shape2"/>
  </g>
  <defs>
    <g id="sprite0" transform="matrix(1.0, 0.0, 0.0, 1.0, -0.05, 0.0)">
      <use height="38.0" transform="matrix(1.0, 0.0, 0.0, 1.0, 0.05, 0.0)" width="32.05" xlink:href="#shape0"/>
    </g>
    <g id="shape0" transform="matrix(1.0, 0.0, 0.0, 1.0, -0.05, 0.0)">
      <path d="M27.35 7.4 Q29.5 11.55 30.9 16.15 32.35 20.85 32.05 25.65 31.7 30.6 27.85 33.75 24.05 36.95 19.1 37.8 L16.5 38.0 Q12.9 38.0 9.45 36.85 4.8 35.25 2.35 31.35 -0.2 27.4 0.05 23.0 0.25 18.6 2.05 13.7 3.85 8.75 7.0 5.05 10.1 1.3 14.7 0.1 L16.5 0.0 Q18.4 0.05 20.2 0.8 24.95 2.85 27.35 7.4" fill="#e8cbb1" fill-rule="evenodd" stroke="none"/>
    </g>
    <g id="sprite1" transform="matrix(1.0, 0.0, 0.0, 1.0, 0.45, 0.5)">
      <use height="38.95" transform="matrix(1.0, 0.0, 0.0, 1.0, -0.45, -0.5)" width="33.05" xlink:href="#shape1"/>
    </g>
    <g id="shape1" transform="matrix(1.0, 0.0, 0.0, 1.0, 0.45, 0.5)">
      <path d="M27.35 7.4 Q24.95 2.85 20.2 0.8 17.55 -0.3 14.7 0.1 10.1 1.3 7.0 5.05 3.85 8.75 2.05 13.7 0.25 18.6 0.05 23.0 -0.2 27.4 2.35 31.35 4.8 35.25 9.45 36.85 14.1 38.4 19.1 37.8 24.05 36.95 27.85 33.75 31.7 30.6 32.05 25.65 32.35 20.85 30.9 16.15 29.5 11.55 27.35 7.4 Z" fill="none" stroke="#000000" stroke-linecap="round" stroke-linejoin="round" stroke-width="1.0"/>
    </g>
    <g id="shape2" transform="matrix(1.0, 0.0, 0.0, 1.0, 15.8, 0.35)">
      <path d="M20.95 14.2 L21.0 14.2 22.65 18.45 23.15 21.3 Q21.0 19.95 20.0 19.55 19.25 19.25 18.5 17.8 L18.4 17.85 18.65 20.95 Q18.65 22.45 16.75 24.8 14.15 23.45 13.5 22.7 L11.9 19.7 Q11.9 22.15 11.4 22.95 L9.4 25.3 Q7.15 23.3 6.65 22.45 L6.0 20.45 Q5.15 23.55 4.5 24.3 L2.15 26.3 Q0.65 24.05 0.25 23.05 L-0.35 20.45 -0.4 20.45 Q-1.15 23.3 -1.5 23.8 -1.85 24.45 -4.1 25.95 L-5.6 22.8 -6.25 20.2 -7.75 22.95 Q-8.5 23.55 -10.6 24.8 L-11.25 20.3 -11.0 18.55 Q-12.0 20.3 -13.0 20.8 L-15.1 21.7 Q-15.1 19.95 -14.35 18.7 L-12.45 15.05 Q-12.3 13.7 -11.5 12.45 L-10.75 11.5 Q-10.05 10.75 -6.4 11.95 -1.45 13.6 2.6 13.5 6.65 13.4 13.35 11.8 18.65 10.55 19.1 11.0 20.35 12.25 20.95 14.2" fill="#85a33e" fill-rule="evenodd" stroke="none"/>
      <path d="M18.5 10.8 Q16.0 10.95 15.25 11.45 L9.8 12.8 2.6 13.65 -4.85 12.7 Q-9.95 10.8 -11.0 11.7" fill="none" stroke="#628a00" stroke-linecap="round" stroke-linejoin="round" stroke-width="1.0"/>
      <path d="M-11.1 11.2 L-12.5 15.8 -14.85 21.2 Q-13.6 21.3 -13.0 20.8 L-11.0 19.2" fill="none" stroke="#628a00" stroke-linecap="round" stroke-linejoin="round" stroke-width="1.0"/>
      <path d="M18.0 15.8 Q18.95 20.1 18.4 22.2 17.9 24.05 16.75 24.8 13.15 21.95 12.4 20.8 L11.0 15.95" fill="none" stroke="#628a00" stroke-linecap="round" stroke-linejoin="round" stroke-width="1.0"/>
      <path d="M18.9 9.95 L21.25 15.05 22.9 21.3 Q20.5 19.55 19.65 18.55 L17.5 14.2" fill="none" stroke="#628a00" stroke-linecap="round" stroke-linejoin="round" stroke-width="1.0"/>
      <path d="M11.9 18.8 Q11.9 21.95 11.25 23.2 10.65 24.45 9.4 25.3 7.15 22.2 6.5 20.7 L5.5 17.05" fill="none" stroke="#628a00" stroke-linecap="round" stroke-linejoin="round" stroke-width="1.0"/>
      <path d="M6.15 20.55 Q5.4 24.55 2.15 26.3 0.15 21.3 -0.1 19.7 L0.0 16.3" fill="none" stroke="#628a00" stroke-linecap="round" stroke-linejoin="round" stroke-width="1.0"/>
      <path d="M-0.4 20.45 L-1.5 23.8 Q-2.25 25.2 -4.1 25.95 -4.85 23.95 -5.75 22.05 -6.3 20.9 -5.7 17.95 L-5.0 15.2" fill="none" stroke="#628a00" stroke-linecap="round" stroke-linejoin="round" stroke-width="1.0"/>
      <path d="M-9.75 12.8 L-11.0 19.2 Q-11.25 21.8 -10.25 24.55" fill="none" stroke="#628a00" stroke-linecap="round" stroke-linejoin="round" stroke-width="1.0"/>
      <path d="M10.25 9.35 Q12.25 8.6 19.4 4.75 L18.9 9.25 17.4 10.75 16.15 11.5 14.75 12.5 14.15 13.35 12.9 14.5 10.75 15.25 9.75 15.65 9.65 16.0 8.75 17.25 5.25 18.1 Q3.65 18.35 3.6 18.1 L3.65 17.6 1.15 17.6 -1.25 17.0 -2.6 16.1 -3.25 15.85 -4.1 15.1 Q-4.95 14.35 -5.5 14.35 L-7.35 13.85 -8.5 12.0 -9.5 11.5 -10.5 10.1 -11.1 9.0 -11.85 8.75 Q-13.75 8.5 -12.2 6.35 L-11.75 5.35 -10.25 5.1 Q-9.8 5.1 -8.0 6.0 -5.8 7.1 -4.1 9.0 -3.5 9.7 -1.0 10.4 L3.15 11.0 Q5.85 11.0 10.25 9.35" fill="#85674e" fill-opacity="0.6" fill-rule="evenodd" stroke="none"/>
      <path d="M-6.6 20.95 Q-7.25 23.05 -8.1 23.55 L-10.6 24.8" fill="none" stroke="#628a00" stroke-linecap="round" stroke-linejoin="round" stroke-width="1.0"/>
      <path d="M21.5 0.25 Q22.0 0.6 21.15 1.35 23.5 1.6 23.25 2.25 23.0 2.85 22.4 3.0 L23.4 3.85 Q23.5 4.5 22.4 4.6 22.75 5.5 21.9 5.85 L21.0 6.25 Q20.75 6.85 20.0 6.85 19.55 6.85 19.6 6.45 L19.75 6.0 Q17.9 6.25 17.9 5.35 17.9 4.8 18.35 4.6 L18.75 4.5 Q17.5 4.35 17.4 3.85 L18.15 3.0 17.15 2.0 Q17.25 1.5 17.9 1.5 L17.85 1.15 Q17.9 0.75 18.5 0.75 L19.05 0.05 Q19.65 -0.6 19.9 -0.25 L20.25 0.35 21.5 0.25" fill="#fff56b" fill-rule="evenodd" stroke="none"/>
      <path d="M21.0 4.1 Q22.0 4.1 21.75 4.5 L21.15 5.35 21.75 6.0 21.0 6.75 Q21.5 7.6 21.0 7.85 L19.5 7.35 Q19.65 7.1 19.15 7.6 L18.5 7.55 18.25 7.1 Q17.4 7.75 17.15 7.35 L17.15 6.6 Q16.25 6.75 16.15 6.35 L17.15 5.75 15.75 4.6 16.5 4.35 16.75 3.6 Q17.1 3.45 17.65 2.0 L17.7 1.8 Q17.65 1.4 18.15 1.1 18.6 0.85 19.3 2.0 19.65 2.5 21.15 2.85 21.5 3.5 21.0 4.1" fill="#ffc963" fill-rule="evenodd" stroke="none"/>
      <path d="M16.5 3.35 L17.25 2.5 Q17.75 2.6 18.0 3.25 L19.15 3.6 Q19.65 4.1 19.25 5.0 L20.25 5.0 Q20.65 5.5 19.65 5.75 L20.5 6.35 Q20.65 7.0 19.4 7.25 20.9 8.25 20.5 8.5 L19.5 8.5 Q19.65 9.25 19.15 9.35 L18.5 9.0 Q17.65 9.5 17.0 9.35 16.65 9.3 16.85 8.65 L17.15 8.0 Q15.25 8.25 15.15 7.6 L15.65 6.75 Q14.5 6.6 14.65 6.0 L15.4 5.25 15.05 4.3 Q14.8 3.3 15.5 3.0 16.1 2.75 16.5 3.35" fill="#ff4ad5" fill-rule="evenodd" stroke="none"/>
      <path d="M16.85 4.55 Q17.45 4.55 17.9 5.0 18.65 5.7 17.9 6.3 19.3 7.2 19.15 7.65 L18.05 9.25 Q18.5 10.45 17.75 10.75 L16.05 10.45 Q16.2 11.35 15.3 11.5 14.7 11.6 14.15 10.9 13.6 10.25 13.75 9.85 12.7 9.25 12.4 8.7 L12.55 6.9 11.7 6.3 Q10.9 5.6 11.0 5.15 11.1 4.7 11.75 4.7 L12.4 4.85 12.25 4.45 Q12.2 4.05 12.55 3.95 13.7 3.65 14.05 3.95 L14.45 3.55 Q15.0 3.15 15.45 3.35 16.2 3.65 16.35 4.7 L16.85 4.55" fill="#ffc963" fill-rule="evenodd" stroke="none"/>
      <path d="M12.15 5.35 L12.2 5.05 Q12.35 4.8 12.9 4.85 13.75 5.0 14.5 6.1 L15.4 5.35 Q15.9 5.6 16.15 6.85 L17.0 7.75 Q17.25 8.75 16.4 8.6 16.9 10.1 16.5 10.75 16.15 11.35 15.15 11.25 15.25 12.85 14.75 13.0 L14.15 12.1 12.75 12.35 12.65 11.25 Q11.5 11.35 11.25 10.75 L11.65 9.25 Q9.5 9.6 9.5 9.0 L10.65 7.85 9.25 7.0 10.25 6.85 10.5 5.5 12.15 5.35" fill="#fff56b" fill-rule="evenodd" stroke="none"/>
      <path d="M13.75 11.25 Q14.5 13.35 13.65 13.75 13.1 13.95 12.6 13.55 L12.25 13.1 Q10.65 13.1 10.4 12.75 L10.5 11.75 Q9.5 11.85 9.25 11.1 9.1 10.65 9.4 10.4 9.55 10.3 9.75 10.25 8.4 10.5 8.4 9.6 L8.75 8.6 8.05 8.05 Q7.45 7.45 7.9 7.25 8.65 6.85 8.9 7.85 L8.85 7.1 Q8.9 6.35 9.25 6.35 10.25 6.35 10.25 6.75 L11.5 6.25 Q11.9 6.5 11.75 7.35 L13.15 7.75 Q13.75 8.1 13.5 9.35 L14.1 9.45 Q14.6 9.45 14.75 10.0 15.0 11.0 13.75 11.25" fill="#ffc963" fill-rule="evenodd" stroke="none"/>
      <path d="M13.15 11.85 L12.4 12.5 Q13.4 13.0 12.9 13.35 L11.65 13.55 Q12.4 14.35 11.5 14.6 L10.5 14.4 10.15 14.0 Q9.75 15.0 9.15 14.75 L8.4 13.5 Q7.15 12.6 7.15 12.1 L7.75 11.5 Q6.5 10.6 6.5 10.1 L7.15 9.6 6.25 7.85 7.25 7.75 7.75 7.35 Q8.3 7.15 8.5 7.5 L9.9 7.25 Q10.65 7.25 10.4 8.0 L11.5 8.25 Q12.0 8.75 10.75 9.35 L11.45 9.3 Q12.15 9.4 12.4 9.85 12.75 10.6 11.75 10.6 13.65 11.25 13.15 11.85" fill="#ff4ad5" fill-rule="evenodd" stroke="none"/>
      <path d="M4.4 10.85 Q5.0 10.35 5.5 10.25 L4.25 9.6 Q3.1 8.9 3.65 8.6 4.5 8.1 5.4 8.6 L5.15 8.05 Q5.05 7.45 5.65 7.25 6.75 6.8 6.9 7.25 L7.35 7.15 Q7.9 6.65 8.4 6.75 8.95 6.8 9.1 7.95 L9.0 9.35 Q8.9 9.75 10.25 10.6 10.5 11.35 10.0 11.6 11.0 12.1 10.65 12.35 L9.4 12.35 Q10.4 14.0 9.9 14.1 L8.5 14.5 Q9.9 15.25 8.75 16.0 L7.55 16.1 7.15 15.6 Q6.5 17.0 5.75 16.75 5.3 16.6 5.7 15.7 L6.25 14.85 Q5.0 15.75 4.25 14.85 3.8 14.3 4.1 13.9 L4.5 13.6 Q3.5 13.5 3.65 12.6 3.7 12.05 4.3 12.25 L4.9 12.5 4.4 11.85 Q4.0 11.15 4.4 10.85" fill="#ffc963" fill-rule="evenodd" stroke="none"/>
      <path d="M-11.2 4.85 L-10.75 4.95 Q-10.3 5.2 -10.3 5.75 -10.3 6.6 -12.2 6.35 -11.7 7.25 -12.45 7.25 -13.2 7.25 -13.45 6.6 L-14.3 6.25 Q-15.2 5.85 -14.8 5.0 -15.9 4.85 -15.8 4.25 L-14.8 3.35 Q-15.45 3.25 -15.7 2.6 -15.9 2.0 -13.55 1.75 -14.45 1.0 -13.95 0.6 L-12.7 0.75 -12.3 0.1 Q-11.95 -0.45 -10.95 1.1 -9.95 1.1 -10.3 1.85 L-9.55 2.35 Q-9.45 2.85 -10.55 3.35 L-9.8 4.25 Q-9.95 4.75 -11.2 4.85" fill="#fff56b" fill-rule="evenodd" stroke="none"/>
      <path d="M-8.95 4.0 Q-8.7 4.1 -8.7 4.75 L-7.95 5.0 Q-7.8 5.35 -9.3 6.1 -8.2 6.35 -8.3 6.75 -8.45 7.1 -9.3 7.0 -9.05 7.35 -9.3 7.75 -9.55 8.1 -10.45 7.5 -10.8 8.5 -11.3 8.0 L-11.7 7.75 Q-12.7 8.5 -13.2 8.25 L-13.2 7.1 -13.95 6.35 -13.3 5.75 -13.95 4.85 -13.2 4.5 Q-13.7 3.85 -13.3 3.25 -11.8 2.85 -11.5 2.35 -10.8 1.2 -10.3 1.5 -9.45 2.0 -9.8 2.35 -9.45 2.25 -8.95 4.0" fill="#ffc963" fill-rule="evenodd" stroke="none"/>
      <path d="M-8.55 3.25 L-7.55 2.85 Q-6.45 3.35 -7.45 5.1 L-6.7 5.85 Q-6.55 6.5 -7.7 6.6 L-7.2 7.5 Q-7.3 8.1 -9.2 7.85 -8.45 9.1 -9.05 9.25 L-10.55 8.85 Q-10.7 9.35 -11.2 9.25 L-11.55 8.35 Q-12.2 8.6 -12.55 8.35 L-11.45 7.1 Q-12.7 6.85 -12.55 6.25 L-11.7 5.6 Q-12.7 5.35 -12.3 4.85 L-11.3 4.85 Q-11.7 4.0 -11.2 3.5 -10.7 3.0 -10.05 3.1 L-9.3 2.35 Q-8.8 2.25 -8.55 3.25" fill="#ff4ad5" fill-rule="evenodd" stroke="none"/>
      <path d="M-4.95 5.35 L-4.3 5.2 Q-3.65 5.2 -3.55 5.65 -3.4 6.35 -5.1 7.4 -4.65 8.6 -4.95 9.2 L-6.35 10.35 Q-6.2 10.75 -6.7 11.4 -7.25 12.1 -7.85 12.0 -8.45 11.9 -8.6 11.4 L-8.65 10.95 Q-9.55 11.55 -10.3 11.25 -10.8 11.05 -10.75 10.4 L-10.65 9.75 -11.7 8.15 -10.45 6.8 Q-11.25 6.2 -10.45 5.5 -9.7 4.75 -8.95 5.2 L-8.0 3.85 Q-7.25 3.55 -6.65 4.45 L-5.1 4.45 Q-4.5 4.6 -4.95 5.35" fill="#ffc963" fill-rule="evenodd" stroke="none"/>
      <path d="M-4.55 6.0 L-2.95 6.1 -2.7 7.5 -1.7 7.6 Q-1.55 8.1 -3.05 8.5 L-1.95 9.6 Q-1.95 10.25 -4.05 9.85 -3.45 10.75 -3.7 11.35 -3.95 12.0 -5.05 11.85 -4.7 12.75 -5.2 13.0 -5.7 13.25 -6.55 12.75 -6.7 13.75 -7.2 13.6 L-7.55 11.85 Q-8.55 12.0 -8.95 11.35 L-8.8 9.25 Q-9.7 9.35 -9.45 8.35 L-8.9 7.55 -8.55 7.5 -7.8 6.0 Q-7.3 5.75 -6.95 6.75 L-5.3 5.5 Q-4.45 5.35 -4.55 6.0" fill="#fff56b" fill-rule="evenodd" stroke="none"/>
      <path d="M-6.05 9.6 L-5.7 8.0 -4.3 7.6 -4.05 6.5 Q-3.7 6.25 -2.8 7.0 L-1.8 6.6 Q-1.2 6.6 -1.45 8.1 L-1.25 7.65 Q-0.9 7.25 -0.45 7.5 0.3 7.85 -1.3 8.85 L-0.95 9.85 Q-0.95 10.75 -2.3 10.5 L-1.95 10.65 Q-1.65 10.9 -1.8 11.35 -2.05 12.1 -3.05 12.0 -2.7 12.6 -2.95 13.0 -3.2 13.35 -4.8 13.35 -5.3 14.35 -6.2 14.0 -6.75 13.75 -6.55 12.6 L-6.3 11.5 Q-7.55 11.25 -7.3 10.25 -7.15 9.7 -6.65 9.7 L-6.05 9.6" fill="#ffc963" fill-rule="evenodd" stroke="none"/>
      <path d="M0.7 7.35 Q1.3 7.6 1.2 7.75 L2.2 7.85 1.3 9.6 1.95 10.1 Q1.95 10.6 0.7 11.5 L1.3 12.1 Q1.3 12.6 0.05 13.5 -0.05 14.5 -0.7 14.75 -1.3 15.0 -1.7 14.0 -2.2 14.85 -3.05 14.6 -3.6 14.45 -3.45 14.0 L-3.2 13.55 Q-3.95 13.75 -4.45 13.35 -4.75 13.15 -4.4 12.8 L-3.95 12.5 -4.7 11.85 Q-5.0 11.5 -4.2 11.0 L-3.3 10.6 Q-4.3 10.6 -3.95 9.85 -3.7 9.4 -2.95 9.3 L-2.3 9.35 -2.85 9.0 Q-3.35 8.55 -3.05 8.25 -2.55 7.75 -1.95 8.0 L-2.0 7.65 Q-1.9 7.25 -1.45 7.25 L-0.05 7.5 0.7 7.35" fill="#ff4ad5" fill-rule="evenodd" stroke="none"/>
      <path d="M2.55 7.75 Q3.55 8.1 2.8 9.1 L4.55 9.1 Q5.45 9.6 2.7 10.75 L3.8 11.35 Q4.45 11.85 3.3 13.0 L3.9 12.75 Q4.5 12.55 4.55 13.1 4.7 14.0 3.7 14.1 4.7 14.5 3.95 15.35 3.2 16.25 1.95 15.35 3.2 17.0 2.45 17.25 1.7 17.5 1.05 16.1 0.55 17.25 -0.55 16.5 -1.25 16.05 -0.85 15.45 L-0.3 15.0 -1.7 14.6 -1.2 12.85 Q-2.05 13.1 -2.45 12.85 L-1.8 12.1 Q-2.3 11.85 -2.05 11.1 -0.7 10.25 -0.8 9.85 -1.0 9.45 -0.85 8.45 -0.75 7.3 -0.2 7.25 0.3 7.15 0.85 7.65 1.25 7.95 1.3 7.75 1.45 7.3 2.55 7.75" fill="#ffc963" fill-rule="evenodd" stroke="none"/>
      <path d="M4.9 10.35 L5.1 9.5 Q5.4 8.8 6.0 9.25 7.0 10.0 6.4 10.6 8.15 10.85 7.9 11.6 7.65 12.35 6.15 12.6 L6.7 13.05 Q7.2 13.55 7.15 14.1 7.0 15.0 6.0 15.1 5.65 16.5 5.0 16.5 4.3 16.5 4.1 15.8 L4.0 15.1 Q3.9 15.85 3.15 15.85 2.6 15.85 2.35 15.45 2.05 15.05 2.25 14.75 L1.95 14.45 Q1.4 14.25 1.25 13.6 1.1 12.9 1.5 12.55 L1.9 12.35 Q0.5 12.0 1.15 11.25 1.55 10.75 2.1 10.95 L1.6 10.6 Q0.7 9.9 1.15 9.5 1.9 8.85 2.5 9.85 2.95 7.75 4.0 7.85 4.9 8.0 4.9 10.35" fill="#fff56b" fill-rule="evenodd" stroke="none"/>
    </g>
  </defs>
</svg>
