<svg xmlns:xlink="http://www.w3.org/1999/xlink" height="82" width="84.85" xmlns="http://www.w3.org/2000/svg"><g transform="translate(37.4 42.25)"><use height="38" transform="translate(-11.95 -17.45)" width="32.05" xlink:href="#a"/><use height="38.95" transform="translate(-12.45 -17.95)" width="33.05" xlink:href="#b"/><use height="18.3" transform="translate(-12.3 3)" width="33" xlink:href="#c"/></g><defs><path d="M27.35 7.4q2.15 4.15 3.55 8.75 1.45 4.7 1.15 9.5-.35 4.95-4.2 8.1-3.8 3.2-8.75 4.05l-2.6.2q-3.6 0-7.05-1.15-4.65-1.6-7.1-5.5Q-.2 27.4.05 23q.2-4.4 2-9.3Q3.85 8.75 7 5.05 10.1 1.3 14.7.1l1.8-.1q1.9.05 3.7.8 4.75 2.05 7.15 6.6" fill="#fff" fill-rule="evenodd" transform="translate(-.05)" id="d"/><path d="M27.35 7.4Q24.95 2.85 20.2.8 17.55-.3 14.7.1 10.1 1.3 7 5.05q-3.15 3.7-4.95 8.65-1.8 4.9-2 9.3-.25 4.4 2.3 8.35 2.45 3.9 7.1 5.5 4.65 1.55 9.65.95 4.95-.85 8.75-4.05 3.85-3.15 4.2-8.1.3-4.8-1.15-9.5-1.4-4.6-3.55-8.75Z" fill="none" stroke="#000" stroke-linecap="round" stroke-linejoin="round" transform="translate(.45 .5)" id="e"/><use height="38" width="32.05" xlink:href="#d" id="a"/><use height="38.95" width="33.05" xlink:href="#e" id="b"/><g id="c"><path d="M7.3 20q-3.4 2.2-6.4.05Q3.95 21.6 7.3 20" fill="#0088ec" fill-rule="evenodd" transform="translate(12.3 -3)"/><path d="m-3.45 17.1-.05-.1.05.05v.05m14.45.15-.05-.05H11v.05" fill="#8e9ad7" fill-rule="evenodd" transform="translate(12.3 -3)"/><path d="m15.2 11.45 4.6-1.4M11.7 5.9q5.2-2.3 8.5-2.2m-26.7 7.75-4.75-1.4M-3.4 5.8q-4.3-1.85-8.4-2.3" fill="none" stroke="#1ed2ff" stroke-linecap="round" stroke-linejoin="round" transform="translate(12.3 -3)"/><path d="M7.3 20q-3.35 1.6-6.4.05l-.95-.8M7.3 20l.55-.4" fill="none" stroke="#0064c8" stroke-linecap="round" stroke-linejoin="round" transform="translate(12.3 -3)"/><path d="m16 14.25 1.8-.5m-27.35-.05h.05m0 0h.5l.5.15 1.65.4q11.4 2.65 22.85 0" fill="none" stroke="#0cf" stroke-linecap="round" stroke-linejoin="round" transform="translate(12.3 -3)"/><path d="M7.2 11.9H1.15" fill="none" stroke="#1ed2ff" stroke-linecap="round" stroke-linejoin="round" transform="translate(12.3 -3)"/><path d="M3.65 10.45v.3l-.05-.3h.05" fill="#f90000" fill-rule="evenodd" transform="translate(12.3 -3)"/><path d="M-6.65 10.9v-.1q0-.75.65-1.4l.15-.15 2.35-3.5Q-3.1 5.5-2 6q1.05.45 2.2 1.35l.9.65 1.15.9q-.3-.25-.1-.15l.2.15.2.1q.9.65 1.1 1.45H3.6L.45 11.7l-.95.25-3.9-.25h-.1q-1.1-.3-2.15-.8m5.85.25q.4.15.65-.15 2-2.15-.95-3.15-.7.05-.95.7-.75 2 1.25 2.6" fill="#0088ec" fill-rule="evenodd" transform="translate(12.3 -3)"/><path d="M3.65 10.75v.3l-.1.4-.35.6-.5.5q-2.3 1.55-5.1 1.2-2.95-.3-4.25-2.85 1.05.5 2.15.8h.1l3.9.25.95-.25 3.15-1.25.05.3" fill="#0064c8" fill-rule="evenodd" transform="translate(12.3 -3)"/><path d="M-.8 11.15q-2-.6-1.25-2.6.25-.65.95-.7 2.95 1 .95 3.15-.25.3-.65.15" fill="#0cf" fill-rule="evenodd" transform="translate(12.3 -3)"/><path d="M3.65 10.75v.3l-.1.4-.35.6-.5.5q-2.3 1.55-5.1 1.2-2.95-.3-4.25-2.85" fill="none" stroke="#014d96" stroke-linecap="round" stroke-linejoin="round" transform="translate(12.3 -3)"/><path d="M-6.65 10.9v-.1q0-.75.65-1.4l.15-.15 2.35-3.5Q-3.1 5.5-2 6q1.05.45 2.2 1.35l.9.65 1.15.9q-.3-.25-.1-.15l.2.15.2.1q.9.65 1.1 1.45" fill="none" stroke="#0cf" stroke-linecap="round" stroke-linejoin="round" transform="translate(12.3 -3)"/><path d="M5.2 10.55q.15-.8 1.05-1.45l.2-.1.2-.15-.1.15 1.15-.9.9-.65q1.15-.9 2.25-1.35 1.05-.5 1.45-.25l2.35 3.5.2.15q.6.65.6 1.4v.1l-2.15.8h-.1l-3.9.25-.95-.25-3.15-1.25m5.6-2q-1.05.8-.1 2.1l.35.45.65.15q2-.6 1.25-2.6-.25-.65-.95-.7-.75.25-1.2.6" fill="#0088ec" fill-rule="evenodd" transform="translate(12.3 -3)"/><path d="m5.2 10.55 3.15 1.25.95.25 3.9-.25h.1l2.15-.8q-1.3 2.55-4.25 2.85-2.8.35-5.1-1.2l-.45-.5H5.6l-.35-.6-.1-.4v-.3l.05-.3" fill="#0064c8" fill-rule="evenodd" transform="translate(12.3 -3)"/><path d="M10.8 8.55q.45-.35 1.2-.6.7.05.95.7.75 2-1.25 2.6l-.65-.15-.35-.45q-.95-1.3.1-2.1" fill="#0cf" fill-rule="evenodd" transform="translate(12.3 -3)"/><path d="M15.45 11q-1.3 2.55-4.25 2.85-2.8.35-5.1-1.2l-.45-.5H5.6l-.35-.6-.1-.4v-.3" fill="none" stroke="#014d96" stroke-linecap="round" stroke-linejoin="round" transform="translate(12.3 -3)"/><path d="M15.45 11v-.1q0-.75-.6-1.4l-.2-.15-2.35-3.5q-.4-.25-1.45.25-1.1.45-2.25 1.35l-.9.65-1.15.9.1-.15-.2.15-.2.1q-.9.65-1.05 1.45" fill="none" stroke="#0cf" stroke-linecap="round" stroke-linejoin="round" transform="translate(12.3 -3)"/><path d="m7.9 19.65 1.95-1.75q2.95-1.6 6.15-2.15M-7.7 16q4.15 1 5.95 1.95L-.2 19.4" fill="none" stroke="#0064c8" stroke-linecap="round" stroke-linejoin="round" transform="translate(12.3 -3)"/></g></defs></svg>