<?xml version="1.0" encoding="UTF-8" standalone="no"?>
<svg xmlns:xlink="http://www.w3.org/1999/xlink" height="82.0px" width="84.85px" xmlns="http://www.w3.org/2000/svg">
  <g transform="matrix(1.0, 0.0, 0.0, 1.0, 37.4, 42.25)">
    <use height="38.0" transform="matrix(1.0, 0.0, 0.0, 1.0, -11.45, -17.45)" width="32.05" xlink:href="#sprite0"/>
    <use height="21.6" transform="matrix(1.0, 0.0, 0.0, 1.0, -12.25, -17.95)" width="32.65" xlink:href="#sprite1"/>
    <use height="23.05" transform="matrix(1.0, 0.0, 0.0, 1.0, -15.1, -0.95)" width="37.95" xlink:href="#shape2"/>
  </g>
  <defs>
    <g id="sprite0" transform="matrix(1.0, 0.0, 0.0, 1.0, -0.05, 0.0)">
      <use height="38.0" transform="matrix(1.0, 0.0, 0.0, 1.0, 0.05, 0.0)" width="32.05" xlink:href="#shape0"/>
    </g>
    <g id="shape0" transform="matrix(1.0, 0.0, 0.0, 1.0, -0.05, 0.0)">
      <path d="M27.35 7.4 Q29.5 11.55 30.9 16.15 32.35 20.85 32.05 25.65 31.7 30.6 27.85 33.75 24.05 36.95 19.1 37.8 L16.5 38.0 Q12.9 38.0 9.45 36.85 4.8 35.25 2.35 31.35 -0.2 27.4 0.05 23.0 0.25 18.6 2.05 13.7 3.85 8.75 7.0 5.05 10.1 1.3 14.7 0.1 L16.5 0.0 Q18.4 0.05 20.2 0.8 24.95 2.85 27.35 7.4" fill="#e8bf64" fill-rule="evenodd" stroke="none"/>
    </g>
    <g id="sprite1" transform="matrix(1.0, 0.0, 0.0, 1.0, 0.25, 0.5)">
      <use height="21.6" transform="matrix(1.0, 0.0, 0.0, 1.0, -0.25, -0.5)" width="32.65" xlink:href="#shape1"/>
    </g>
    <g id="shape1" transform="matrix(1.0, 0.0, 0.0, 1.0, 0.25, 0.5)">
      <path d="M31.9 20.6 Q31.6 18.35 30.9 16.15 29.5 11.55 27.35 7.4 24.95 2.85 20.2 0.8 17.55 -0.3 14.7 0.1 10.1 1.3 7.0 5.05 3.85 8.75 2.05 13.7 0.7 17.3 0.25 20.6" fill="none" stroke="#333333" stroke-linecap="round" stroke-linejoin="round" stroke-width="1.0"/>
    </g>
    <g id="shape2" transform="matrix(1.0, 0.0, 0.0, 1.0, 15.1, 0.95)">
      <path d="M19.85 5.5 L19.9 5.6 19.85 5.5 16.3 7.85 14.9 8.55 Q10.05 10.85 4.95 10.7 L4.9 10.75 4.15 11.0 4.0 9.5 4.0 8.85 4.0 9.5 4.15 11.0 3.45 10.75 3.1 10.75 Q-2.55 10.9 -7.1 8.85 L-9.0 7.85 -11.75 6.0 -12.4 5.45 -14.2 4.7 Q-15.15 3.2 -13.85 2.45 L-13.05 2.45 Q-13.55 0.85 -12.1 0.2 L-11.5 1.05 Q-5.75 6.35 3.95 7.4 L4.0 7.4 Q14.9 5.55 19.4 0.35 L20.5 -0.45 Q22.05 -0.05 21.8 1.6 23.55 4.05 19.9 5.6 L19.85 5.55 19.85 5.5 M4.2 8.8 Q7.55 8.85 10.9 7.85 16.4 6.2 21.8 1.6 16.4 6.2 10.9 7.85 7.55 8.85 4.2 8.8 L3.95 8.7 4.0 8.85 4.2 8.8 M3.95 8.7 L3.95 7.85 3.95 7.4 3.95 7.85 3.95 8.7 Q-0.25 9.05 -4.05 7.85 -8.85 6.35 -13.05 2.45 -8.85 6.35 -4.05 7.85 -0.25 9.05 3.95 8.7" fill="#ff3399" fill-rule="evenodd" stroke="none"/>
      <path d="M4.9 10.75 L4.95 10.7 Q10.05 10.85 14.9 8.55 14.65 9.55 14.75 10.45 L15.3 12.3 16.35 13.65 Q17.05 14.15 17.8 14.25 L18.05 14.45 16.45 16.15 Q14.35 18.0 11.75 19.0 L7.15 20.45 7.05 20.45 5.0 20.6 4.9 10.75 M3.1 10.75 L3.1 20.5 Q0.25 20.45 -2.6 19.5 -6.75 18.05 -9.15 14.8 -8.3 14.7 -7.8 13.9 L-7.3 13.1 Q-6.8 12.3 -6.8 11.35 -6.75 10.4 -6.95 9.45 L-7.1 8.85 Q-2.55 10.9 3.1 10.75" fill="#ffffff" fill-rule="evenodd" stroke="none"/>
      <path d="M4.2 8.8 L4.0 8.85 3.95 8.7 4.2 8.8" fill="#ffe085" fill-rule="evenodd" stroke="none"/>
      <path d="M4.15 11.0 L4.9 10.75 5.0 20.6 4.75 21.6 3.4 21.6 3.35 21.6 3.1 20.5 3.1 10.75 3.45 10.75 4.15 11.0" fill="#929292" fill-rule="evenodd" stroke="none"/>
      <path d="M19.9 5.6 Q23.55 4.05 21.8 1.6 16.4 6.2 10.9 7.85 7.55 8.85 4.2 8.8 L4.0 8.85 4.0 9.5 4.15 11.0 4.9 10.75 4.95 10.7 Q10.05 10.85 14.9 8.55 L16.3 7.85 19.85 5.5 M14.9 8.55 Q14.65 9.55 14.75 10.45 L15.3 12.3 16.35 13.65 Q17.05 14.15 17.8 14.25 M18.05 14.45 Q19.05 13.0 19.55 11.3 20.4 8.7 19.9 5.6 M3.95 8.7 L4.0 8.85 M4.15 11.0 L3.45 10.75 3.1 10.75 Q-2.55 10.9 -7.1 8.85 L-6.95 9.45 Q-6.75 10.4 -6.8 11.35 -6.8 12.3 -7.3 13.1 L-7.8 13.9 Q-8.3 14.7 -9.15 14.8 -6.75 18.05 -2.6 19.5 0.25 20.45 3.1 20.5 L3.35 21.6 3.4 21.6 4.75 21.6 5.0 20.6 7.05 20.45 7.15 20.45 11.75 19.0 Q14.35 18.0 16.45 16.15 L18.05 14.45 M4.0 7.4 Q14.9 5.55 19.4 0.35 L20.5 -0.45 Q22.05 -0.05 21.8 1.6 M-7.1 8.85 L-9.0 7.85 -11.75 6.0 -12.4 5.45 Q-11.3 11.7 -9.65 13.9 L-9.7 14.0 -9.15 14.8 M-12.4 5.45 L-14.2 4.7 Q-15.15 3.2 -13.85 2.45 L-13.05 2.45 Q-13.55 0.85 -12.1 0.2 L-11.5 1.05 Q-5.75 6.35 3.95 7.4 M3.95 8.7 Q-0.25 9.05 -4.05 7.85 -8.85 6.35 -13.05 2.45" fill="none" stroke="#993366" stroke-linecap="round" stroke-linejoin="round" stroke-width="1.0"/>
      <path d="M19.9 5.6 L19.85 5.5 M4.0 7.4 L3.95 7.4 3.95 7.85 3.95 8.7 4.2 8.8" fill="none" stroke="#993366" stroke-linecap="round" stroke-linejoin="round" stroke-width="1.0"/>
      <path d="M4.9 7.6 L5.8 13.6 1.15 12.7 2.8 7.6 4.9 7.6" fill="#cccccc" fill-rule="evenodd" stroke="none"/>
      <path d="M4.9 7.6 L5.8 13.6 1.15 12.7 2.8 7.6 4.9 7.6 Z" fill="none" stroke="#666666" stroke-linecap="round" stroke-linejoin="round" stroke-width="1.0"/>
    </g>
  </defs>
</svg>
