<?xml version="1.0" encoding="UTF-8" standalone="no"?>
<svg xmlns:xlink="http://www.w3.org/1999/xlink" height="82.0px" width="84.85px" xmlns="http://www.w3.org/2000/svg">
  <g transform="matrix(1.0, 0.0, 0.0, 1.0, 37.4, 42.25)">
    <use height="38.0" transform="matrix(1.0, 0.0, 0.0, 1.0, -11.95, -17.45)" width="32.05" xlink:href="#sprite0"/>
    <use height="38.95" transform="matrix(1.0, 0.0, 0.0, 1.0, -12.45, -17.95)" width="33.05" xlink:href="#sprite1"/>
    <use height="23.55" transform="matrix(1.0, 0.0, 0.0, 1.0, -13.65, 2.75)" width="35.8" xlink:href="#shape2"/>
  </g>
  <defs>
    <g id="sprite0" transform="matrix(1.0, 0.0, 0.0, 1.0, -0.05, 0.0)">
      <use height="38.0" transform="matrix(1.0, 0.0, 0.0, 1.0, 0.05, 0.0)" width="32.05" xlink:href="#shape0"/>
    </g>
    <g id="shape0" transform="matrix(1.0, 0.0, 0.0, 1.0, -0.05, 0.0)">
      <path d="M27.35 7.4 Q29.5 11.55 30.9 16.15 32.35 20.85 32.05 25.65 31.7 30.6 27.85 33.75 24.05 36.95 19.1 37.8 L16.5 38.0 Q12.9 38.0 9.45 36.85 4.8 35.25 2.35 31.35 -0.2 27.4 0.05 23.0 0.25 18.6 2.05 13.7 3.85 8.75 7.0 5.05 10.1 1.3 14.7 0.1 L16.5 0.0 Q18.4 0.05 20.2 0.8 24.95 2.85 27.35 7.4" fill="#ffffff" fill-rule="evenodd" stroke="none"/>
    </g>
    <g id="sprite1" transform="matrix(1.0, 0.0, 0.0, 1.0, 0.45, 0.5)">
      <use height="38.95" transform="matrix(1.0, 0.0, 0.0, 1.0, -0.45, -0.5)" width="33.05" xlink:href="#shape1"/>
    </g>
    <g id="shape1" transform="matrix(1.0, 0.0, 0.0, 1.0, 0.45, 0.5)">
      <path d="M27.35 7.4 Q24.95 2.85 20.2 0.8 17.55 -0.3 14.7 0.1 10.1 1.3 7.0 5.05 3.85 8.75 2.05 13.7 0.25 18.6 0.05 23.0 -0.2 27.4 2.35 31.35 4.8 35.25 9.45 36.85 14.1 38.4 19.1 37.8 24.05 36.95 27.85 33.75 31.7 30.6 32.05 25.65 32.35 20.85 30.9 16.15 29.5 11.55 27.35 7.4 Z" fill="none" stroke="#333333" stroke-linecap="round" stroke-linejoin="round" stroke-width="1.0"/>
    </g>
    <g id="shape2" transform="matrix(1.0, 0.0, 0.0, 1.0, 13.65, -2.75)">
      <path d="M21.7 22.35 Q21.75 23.3 20.6 23.6 20.05 23.75 18.55 23.1 L16.65 24.7 Q15.9 24.85 15.0 24.05 L14.2 23.2 Q12.45 25.6 10.95 25.6 10.0 25.6 8.75 24.75 L7.7 23.85 Q6.2 25.85 3.35 25.85 0.5 25.85 -0.95 24.1 -2.2 25.85 -3.8 25.85 -5.45 25.85 -6.55 23.35 -7.75 24.95 -8.85 24.85 -9.95 24.7 -10.35 23.3 -11.5 23.95 -11.95 23.85 -13.2 23.55 -13.2 22.35 L-11.75 14.2 Q-10.5 3.85 4.55 2.85 19.6 1.85 19.8 12.3 L21.7 22.35" fill="#ffffff" fill-rule="evenodd" stroke="none"/>
      <path d="M7.7 23.85 Q7.45 24.9 7.45 20.7 7.45 18.0 7.8 17.5 L8.6 17.3 Q9.75 17.1 10.5 22.2 L10.95 25.6 7.7 23.85" fill="#d3d7e0" fill-rule="evenodd" stroke="none"/>
      <path d="M14.2 23.2 L14.5 17.7 Q14.9 17.5 15.75 20.95 L16.5 24.5 Q15.35 24.25 15.1 24.0 L14.2 23.2" fill="#d3d7e0" fill-rule="evenodd" stroke="none"/>
      <path d="M3.2 25.7 L1.85 25.6 Q-0.25 24.9 -0.65 24.5 -1.05 24.1 -0.85 20.7 -0.65 17.45 -0.2 15.7 0.2 14.2 1.35 16.7 2.35 18.95 2.75 21.05 3.7 25.75 3.2 25.7" fill="#d3d7e0" fill-rule="evenodd" stroke="none"/>
      <path d="M-4.0 25.5 L-4.9 25.5 -6.55 23.7 Q-6.75 23.25 -6.3 20.3 -5.8 17.3 -5.3 17.05 -3.95 16.45 -4.15 21.8 -4.25 24.7 -4.0 25.5" fill="#d3d7e0" fill-rule="evenodd" stroke="none"/>
      <path d="M-8.85 24.85 L-9.4 24.6 -10.35 23.3 Q-9.5 19.1 -9.05 17.95 -8.7 17.0 -8.45 18.3 -8.15 19.7 -8.4 21.75 L-8.85 24.85" fill="#d3d7e0" fill-rule="evenodd" stroke="none"/>
      <path d="M-10.35 23.3 L-12.25 23.85 -13.0 22.15 Q-12.85 22.1 -12.45 19.55 L-10.85 13.45 -10.35 20.4 -10.35 23.3" fill="#d3d7e0" fill-rule="evenodd" stroke="none"/>
      <path d="M18.5 22.95 L18.15 20.8 Q17.9 18.6 18.25 18.45 18.65 18.3 19.5 20.75 L20.3 23.2 18.5 22.95" fill="#d3d7e0" fill-rule="evenodd" stroke="none"/>
      <path d="M-11.45 9.8 Q-11.15 12.1 -11.45 12.5 L-13.2 22.35 Q-13.2 23.55 -11.95 23.85 -11.5 23.95 -10.35 23.3 -9.95 24.7 -8.85 24.85 -7.75 24.95 -6.55 23.35 -5.45 25.85 -3.8 25.85 -2.2 25.85 -0.95 24.1 0.5 25.85 3.35 25.85 6.2 25.85 7.7 23.85 L8.75 24.75 Q10.0 25.6 10.95 25.6 12.45 25.6 14.2 23.2 L15.0 24.05 Q15.9 24.85 16.65 24.7 L18.55 23.1 Q20.05 23.75 20.6 23.6 21.75 23.3 21.7 22.35 L19.65 11.6 Q19.5 10.85 20.2 8.35" fill="none" stroke="#333333" stroke-linecap="round" stroke-linejoin="round" stroke-width="0.9500000000000001"/>
    </g>
  </defs>
</svg>
