<svg xmlns:xlink="http://www.w3.org/1999/xlink" height="82" width="84.85" xmlns="http://www.w3.org/2000/svg"><g transform="translate(37.4 42.25)"><use height="16.05" transform="translate(-17.85 -2.6)" width="44.1" xlink:href="#a"/><use height="38" transform="translate(-11.95 -17.45)" width="32.05" xlink:href="#b"/><use height="38.95" transform="translate(-12.45 -17.95)" width="33.05" xlink:href="#c"/><use height="23.75" transform="translate(-15.25 -.35)" width="38.05" xlink:href="#d"/></g><defs><path d="M20.2-2.55q2-.2 3.35 1.1l.05.05q1.55-.05 2.15 1.35l.1 1-.1.35q.45.6.5 1.4.05 1.05-.75 1.75-.55 1.4-2.05 2.05-2 .8-3.8-.5-.85-.6-1.15-1.65l-.25-.65q-.8-2-.65-4.1l.3-.6.15-.2q.15-.65.85-.95l1.3-.4m-33.65.25q2.35-.25 2.85 1.95.1.5-.35.75-.1 3.1-2.1 5.5-.7.9-1.85.7-1.4-.25-2.05-1.3l-.2-.7v-.3q-.9-1.3-.6-2.9.15-.8.85-1.25.1-2.1 2.25-2.05L-14-2l.05-.05.5-.25" fill="#4b2563" fill-rule="evenodd" transform="translate(17.85 2.6)" id="a"/><path d="M27.35 7.4q2.15 4.15 3.55 8.75 1.45 4.7 1.15 9.5-.35 4.95-4.2 8.1-3.8 3.2-8.75 4.05l-2.6.2q-3.6 0-7.05-1.15-4.65-1.6-7.1-5.5Q-.2 27.4.05 23q.2-4.4 2-9.3Q3.85 8.75 7 5.05 10.1 1.3 14.7.1l1.8-.1q1.9.05 3.7.8 4.75 2.05 7.15 6.6" fill="#da7" fill-rule="evenodd" transform="translate(-.05)" id="e"/><path d="M27.35 7.4Q24.95 2.85 20.2.8 17.55-.3 14.7.1 10.1 1.3 7 5.05q-3.15 3.7-4.95 8.65-1.8 4.9-2 9.3-.25 4.4 2.3 8.35 2.45 3.9 7.1 5.5 4.65 1.55 9.65.95 4.95-.85 8.75-4.05 3.85-3.15 4.2-8.1.3-4.8-1.15-9.5-1.4-4.6-3.55-8.75Z" fill="none" stroke="#333" stroke-linecap="round" stroke-linejoin="round" transform="translate(.45 .5)" id="f"/><use height="38" width="32.05" xlink:href="#e" id="b"/><use height="38.95" width="33.05" xlink:href="#f" id="c"/><g id="d"><path d="m-11.1 6.9.25.45q.95 1.4 2.4 2.1l5.15 1.95.85.2h.1q3 .2 6 0 2.25-.15 4.45-.05l.75-.05q3.05-.3 5.95-1.25l1.45-.6.8-.45.7-.45 1.35-1.3.15-.2-.2.85-.9 1.75-.7.8-3.5 3.1-6 3.85-1.35.6q-4.45 1.25-8.7-.45-1.6-.65-2.95-1.7l-1.2-1-2.35-2.1-1.35-1.85-.9-2.1-.2-.45q-.4-1-.3-2.15l.15.35v.05l.1.1m19.2 4.65-.25.05h-.3.3l.25-.05m8.95-2.35-.3.2.4-.25-.1.05.1-.05-.4.25-.4.25.4-.25.3-.2" fill="#fff" fill-rule="evenodd" transform="translate(15.25 .35)"/><path d="m21.2 5.05-1.35 1.9.1 5.35v4.6q-6.8 4.4-13.9 4.75H4.6l.55-1.4.1-.15q.5-.85.25-1.65l-.7-1.7 3.2-5.9q5.9-.45 12.7-6l.5.2M2.95 16.75l.05.05.45.65q.55.8.3 1.75l-.3.9-.05.15-.6 1.15q-7.4.1-13.9-2.8V8.5l-2.05-2.7.75-.35q4.95 4.3 11.6 5.15l3.2 5.2.1.2.45.75" fill="#93c" fill-rule="evenodd" transform="translate(15.25 .35)"/><path d="m7.65 10.6.4-.05q6.55-.75 12.65-5.7l.5.2-1.35 1.9.1 5.35v4.6q-6.8 4.4-13.9 4.75h-2.4l-.85-.25q-7.4.1-13.9-2.8V8.5l-2.05-2.7.75-.35q5 4.3 11.75 5.15L0 11.75l2.8 4.9m4.55-4.8.7-1.3M4.9 16.7l2.45-4.85" fill="none" stroke="#682268" stroke-linecap="round" stroke-linejoin="round" transform="translate(15.25 .35)"/><path d="m0 11.75 7.35.1" fill="none" stroke="#09c" stroke-linecap="round" stroke-linejoin="round" transform="translate(15.25 .35)"/><path d="m5 17.15.25.55.25.75q.25.8-.25 1.65l-.1.15-.55 1.4h-.95l-.85-.25.6-1.15.05-.15.3-.9q.2-.8-.15-1.5l-.15-.25-.2-.3H5" fill="#ccc" fill-rule="evenodd" transform="translate(15.25 .35)"/><path d="m5 17.15.25.55.25.75q.25.8-.25 1.65l-.1.15-.55 1.4m-1.8-.25.6-1.15.05-.15.3-.9q.2-.8-.15-1.5l-.15-.25-.2-.3" fill="none" stroke="#666" stroke-linecap="round" stroke-linejoin="round" transform="translate(15.25 .35)"/><path d="m4.95 16.9.9 6L1.2 22l1.65-5.1h2.1" fill="#4d2640" fill-rule="evenodd" transform="translate(15.25 .35)"/><path d="m4.95 16.9.9 6L1.2 22" fill="none" stroke="#000" stroke-linecap="round" stroke-linejoin="round" transform="translate(15.25 .35)"/><path d="m1.2 22 1.65-5.1h2.1Z" fill="none" stroke="#c484ca" stroke-linecap="round" stroke-linejoin="round" transform="translate(15.25 .35)"/><path d="m22.35 4.25-1.15.9-.1-.1-1.05.65Q18.4 7.1 16.6 8.15L12.8 9.5l-.2.05q-.35.05-.55.25l-3.6.7q-.7.05-.9.4l-.05-.05-.2-.2v-.1l-.2-.3q-.7-1.85 1.3-2.5Q11 6.9 13.45 5.7l3.2-1.7.35-.45.85-1.05.5-.6.4-.7.85-1.2q.3-.35.7-.35 2 .25 2.45 2.3.25 1.25-.4 2.3M.05 10.4l-.1.15-.25-.05-.1.05-.4-.05-.1-.1-.75-.05-1.85-.3q-2.15-.65-4.15-1.6L-13.5 5.3h-.15l-.55-.45q-.75-.8-1-1.8-.25-1.8 1.5-2.55l.5-.1q1.5.1 2.35 1.4 1.25.8 2.35 1.9l1.05.7 3.15 1.5q1.5.6 2.8 1.3l.1.15q1.05.2 1.7 1 .2.7 0 1.3L.25 10l-.2.4" fill="#cb98e5" fill-rule="evenodd" transform="translate(15.25 .35)"/><path d="m10.3 16.3-1.1-4.15 2.55 1.2.95-1.55 1.05 1.45 2.35-1.6-1.05 4.65-2.25 2.15-2.5-2.15" fill="#fc0" fill-rule="evenodd" transform="translate(15.25 .35)"/><path d="M-.2 10.5q.5-.95.3-2.05l-.2-.9-5.4-2.05-2.35-1.4-2-1.55-2-2.05" fill="none" stroke="#a54fd2" stroke-linecap="round" stroke-linejoin="round" transform="translate(15.25 .35)"/><path d="M-.65 10.75q-2.7-.05-5.25-1.1-2.65-1.2-5.1-2.85l-3.25-2.05" fill="none" stroke="#471748" stroke-linecap="round" stroke-linejoin="round" transform="translate(15.25 .35)"/><path d="M7.8 10.6q-.5-.95-.3-2.05l.2-.9q2.7-.8 5.4-2.05 1.25-.6 2.35-1.4l2-1.55 2-2.05" fill="none" stroke="#a54fd2" stroke-linecap="round" stroke-linejoin="round" transform="translate(15.25 .35)"/><path d="M8.25 10.85q2.7-.05 5.25-1.1 2.65-1.2 5.1-2.85l3.25-2.05" fill="none" stroke="#471748" stroke-linecap="round" stroke-linejoin="round" transform="translate(15.25 .35)"/></g></defs></svg>