<?xml version="1.0" encoding="UTF-8" standalone="no"?>
<svg xmlns:xlink="http://www.w3.org/1999/xlink" height="82.0px" width="84.85px" xmlns="http://www.w3.org/2000/svg">
  <g transform="matrix(1.0, 0.0, 0.0, 1.0, 37.4, 42.25)">
    <use height="16.05" transform="matrix(1.0, 0.0, 0.0, 1.0, -17.85, -2.6)" width="44.1" xlink:href="#shape0"/>
    <use height="38.0" transform="matrix(1.0, 0.0, 0.0, 1.0, -11.95, -17.45)" width="32.05" xlink:href="#sprite0"/>
    <use height="38.95" transform="matrix(1.0, 0.0, 0.0, 1.0, -12.45, -17.95)" width="33.05" xlink:href="#sprite1"/>
    <use height="23.75" transform="matrix(1.0, 0.0, 0.0, 1.0, -15.25, -0.35)" width="38.05" xlink:href="#shape3"/>
  </g>
  <defs>
    <g id="shape0" transform="matrix(1.0, 0.0, 0.0, 1.0, 17.85, 2.6)">
      <path d="M20.2 -2.55 Q22.2 -2.75 23.55 -1.45 L23.6 -1.4 Q25.15 -1.45 25.75 -0.05 L25.85 0.95 25.75 1.3 Q26.2 1.9 26.25 2.7 26.3 3.75 25.5 4.45 24.95 5.85 23.45 6.5 21.45 7.3 19.65 6.0 18.8 5.4 18.5 4.35 L18.25 3.7 Q17.45 1.7 17.6 -0.4 L17.9 -1.0 18.05 -1.2 Q18.2 -1.85 18.9 -2.15 L20.2 -2.55 M-13.45 -2.3 Q-11.1 -2.55 -10.6 -0.35 -10.5 0.15 -10.95 0.4 -11.05 3.5 -13.05 5.9 -13.75 6.8 -14.9 6.6 -16.3 6.35 -16.95 5.3 L-17.15 4.6 -17.15 4.3 Q-18.05 3.0 -17.75 1.4 -17.6 0.6 -16.9 0.15 -16.8 -1.95 -14.65 -1.9 L-14.0 -2.0 -13.95 -2.05 -13.45 -2.3" fill="#4b2563" fill-rule="evenodd" stroke="none"/>
    </g>
    <g id="sprite0" transform="matrix(1.0, 0.0, 0.0, 1.0, -0.05, 0.0)">
      <use height="38.0" transform="matrix(1.0, 0.0, 0.0, 1.0, 0.05, 0.0)" width="32.05" xlink:href="#shape1"/>
    </g>
    <g id="shape1" transform="matrix(1.0, 0.0, 0.0, 1.0, -0.05, 0.0)">
      <path d="M27.35 7.4 Q29.5 11.55 30.9 16.15 32.35 20.85 32.05 25.65 31.7 30.6 27.85 33.75 24.05 36.95 19.1 37.8 L16.5 38.0 Q12.9 38.0 9.45 36.85 4.8 35.25 2.35 31.35 -0.2 27.4 0.05 23.0 0.25 18.6 2.05 13.7 3.85 8.75 7.0 5.05 10.1 1.3 14.7 0.1 L16.5 0.0 Q18.4 0.05 20.2 0.8 24.95 2.85 27.35 7.4" fill="#ddaa77" fill-rule="evenodd" stroke="none"/>
    </g>
    <g id="sprite1" transform="matrix(1.0, 0.0, 0.0, 1.0, 0.45, 0.5)">
      <use height="38.95" transform="matrix(1.0, 0.0, 0.0, 1.0, -0.45, -0.5)" width="33.05" xlink:href="#shape2"/>
    </g>
    <g id="shape2" transform="matrix(1.0, 0.0, 0.0, 1.0, 0.45, 0.5)">
      <path d="M27.35 7.4 Q24.95 2.85 20.2 0.8 17.55 -0.3 14.7 0.1 10.1 1.3 7.0 5.05 3.85 8.75 2.05 13.7 0.25 18.6 0.05 23.0 -0.2 27.4 2.35 31.35 4.8 35.25 9.45 36.85 14.1 38.4 19.1 37.8 24.05 36.95 27.85 33.75 31.7 30.6 32.05 25.65 32.35 20.85 30.9 16.15 29.5 11.55 27.35 7.4 Z" fill="none" stroke="#333333" stroke-linecap="round" stroke-linejoin="round" stroke-width="1.0"/>
    </g>
    <g id="shape3" transform="matrix(1.0, 0.0, 0.0, 1.0, 15.25, 0.35)">
      <path d="M-11.1 6.9 L-10.85 7.35 Q-9.9 8.75 -8.45 9.45 L-3.3 11.4 -2.45 11.6 -2.35 11.6 Q0.65 11.8 3.65 11.6 5.9 11.45 8.1 11.55 L8.85 11.5 Q11.9 11.2 14.8 10.25 L16.25 9.65 17.05 9.2 17.75 8.75 19.1 7.45 19.25 7.25 19.05 8.1 18.15 9.85 17.45 10.65 13.95 13.75 7.95 17.6 6.6 18.2 Q2.15 19.45 -2.1 17.75 -3.7 17.1 -5.05 16.05 L-6.25 15.05 -8.6 12.95 -9.95 11.1 -10.85 9.0 -11.05 8.55 Q-11.45 7.55 -11.35 6.4 L-11.2 6.75 -11.2 6.8 -11.1 6.9 M8.1 11.55 L7.85 11.6 7.55 11.6 7.85 11.6 8.1 11.55 M17.05 9.2 L16.75 9.4 17.15 9.15 17.05 9.2 17.15 9.15 16.75 9.4 16.35 9.65 16.75 9.4 17.05 9.2" fill="#ffffff" fill-rule="evenodd" stroke="none"/>
      <path d="M21.2 5.05 L19.85 6.95 19.95 12.3 19.95 16.9 Q13.15 21.3 6.05 21.65 L4.6 21.65 5.15 20.25 5.25 20.1 Q5.75 19.25 5.5 18.45 L4.8 16.75 8.0 10.85 Q13.9 10.4 20.7 4.85 L21.2 5.05 M2.95 16.75 L3.0 16.8 3.45 17.45 Q4.0 18.25 3.75 19.2 L3.45 20.1 3.4 20.25 2.8 21.4 Q-4.6 21.5 -11.1 18.6 L-11.1 8.5 -13.15 5.8 -12.4 5.45 Q-7.45 9.75 -0.8 10.6 L2.4 15.8 2.5 16.0 2.95 16.75" fill="#9933cc" fill-rule="evenodd" stroke="none"/>
      <path d="M7.65 10.6 L8.05 10.55 Q14.6 9.8 20.7 4.85 L21.2 5.05 19.85 6.95 19.95 12.3 19.95 16.9 Q13.15 21.3 6.05 21.65 L3.65 21.65 2.8 21.4 Q-4.6 21.5 -11.1 18.6 L-11.1 8.5 -13.15 5.8 -12.4 5.45 Q-7.4 9.75 -0.65 10.6 L0.0 11.75 2.8 16.65 M7.35 11.85 L8.05 10.55 M4.9 16.7 L7.35 11.85" fill="none" stroke="#682268" stroke-linecap="round" stroke-linejoin="round" stroke-width="1.0"/>
      <path d="M0.0 11.75 L7.35 11.85" fill="none" stroke="#0099cc" stroke-linecap="round" stroke-linejoin="round" stroke-width="1.0"/>
      <path d="M5.0 17.15 L5.25 17.7 5.5 18.45 Q5.75 19.25 5.25 20.1 L5.15 20.25 4.6 21.65 3.65 21.65 2.8 21.4 3.4 20.25 3.45 20.1 3.75 19.2 Q3.95 18.4 3.6 17.7 L3.45 17.45 3.25 17.15 5.0 17.15" fill="#cccccc" fill-rule="evenodd" stroke="none"/>
      <path d="M5.0 17.15 L5.25 17.7 5.5 18.45 Q5.75 19.25 5.25 20.1 L5.15 20.25 4.6 21.65 M2.8 21.4 L3.4 20.25 3.45 20.1 3.75 19.2 Q3.95 18.4 3.6 17.7 L3.45 17.45 3.25 17.15" fill="none" stroke="#666666" stroke-linecap="round" stroke-linejoin="round" stroke-width="1.0"/>
      <path d="M4.95 16.9 L5.85 22.9 1.2 22.0 2.85 16.9 4.95 16.9" fill="#4d2640" fill-rule="evenodd" stroke="none"/>
      <path d="M4.95 16.9 L5.85 22.9 1.2 22.0" fill="none" stroke="#000000" stroke-linecap="round" stroke-linejoin="round" stroke-width="1.0"/>
      <path d="M1.2 22.0 L2.85 16.9 4.95 16.9 Z" fill="none" stroke="#c484ca" stroke-linecap="round" stroke-linejoin="round" stroke-width="1.0"/>
      <path d="M22.35 4.25 L21.2 5.15 21.1 5.05 20.05 5.7 Q18.4 7.1 16.6 8.15 L12.8 9.5 12.6 9.55 Q12.25 9.6 12.05 9.8 L8.45 10.5 Q7.75 10.55 7.55 10.9 L7.5 10.85 7.3 10.65 7.3 10.55 7.1 10.25 Q6.4 8.4 8.4 7.75 11.0 6.9 13.45 5.7 L16.65 4.0 17.0 3.55 17.85 2.5 18.35 1.9 18.75 1.2 19.6 0.0 Q19.9 -0.35 20.3 -0.35 22.3 -0.1 22.75 1.95 23.0 3.2 22.35 4.25 M0.05 10.4 L-0.05 10.55 -0.3 10.5 -0.4 10.55 -0.8 10.5 -0.9 10.4 -1.65 10.35 -3.5 10.05 Q-5.65 9.4 -7.65 8.45 L-13.5 5.3 -13.6 5.3 -13.65 5.3 -14.2 4.85 Q-14.95 4.05 -15.2 3.05 -15.45 1.25 -13.7 0.5 L-13.2 0.4 Q-11.7 0.5 -10.85 1.8 -9.6 2.6 -8.5 3.7 L-7.45 4.4 -4.3 5.9 Q-2.8 6.5 -1.5 7.2 L-1.4 7.35 Q-0.35 7.55 0.3 8.35 0.5 9.05 0.3 9.65 L0.25 10.0 0.05 10.4" fill="#cb98e5" fill-rule="evenodd" stroke="none"/>
      <path d="M10.3 16.3 L9.2 12.15 11.75 13.35 12.7 11.8 13.75 13.25 16.1 11.65 15.05 16.3 12.8 18.45 10.3 16.3" fill="#ffcc00" fill-rule="evenodd" stroke="none"/>
      <path d="M-0.2 10.5 Q0.3 9.55 0.1 8.45 L-0.1 7.55 -5.5 5.5 -7.85 4.1 -9.85 2.55 -11.85 0.5" fill="none" stroke="#a54fd2" stroke-linecap="round" stroke-linejoin="round" stroke-width="1.0"/>
      <path d="M-0.65 10.75 Q-3.35 10.7 -5.9 9.65 -8.55 8.45 -11.0 6.8 L-14.25 4.75" fill="none" stroke="#471748" stroke-linecap="round" stroke-linejoin="round" stroke-width="1.0"/>
      <path d="M7.8 10.6 Q7.3 9.65 7.5 8.55 L7.7 7.65 Q10.4 6.85 13.1 5.6 14.35 5.0 15.45 4.2 L17.45 2.65 19.45 0.6" fill="none" stroke="#a54fd2" stroke-linecap="round" stroke-linejoin="round" stroke-width="1.0"/>
      <path d="M8.25 10.85 Q10.95 10.8 13.5 9.75 16.15 8.55 18.6 6.9 L21.85 4.85" fill="none" stroke="#471748" stroke-linecap="round" stroke-linejoin="round" stroke-width="1.0"/>
    </g>
  </defs>
</svg>
