<?xml version="1.0" encoding="UTF-8" standalone="no"?>
<svg xmlns:xlink="http://www.w3.org/1999/xlink" height="82.0px" width="84.85px" xmlns="http://www.w3.org/2000/svg">
  <g transform="matrix(1.0, 0.0, 0.0, 1.0, 37.4, 42.25)">
    <use height="38.0" transform="matrix(1.0, 0.0, 0.0, 1.0, -11.95, -17.45)" width="32.05" xlink:href="#sprite0"/>
    <use height="38.95" transform="matrix(1.0, 0.0, 0.0, 1.0, -12.45, -17.95)" width="33.05" xlink:href="#sprite1"/>
    <use height="23.15" transform="matrix(1.0, 0.0, 0.0, 1.0, -15.0, -1.0)" width="38.15" xlink:href="#shape2"/>
  </g>
  <defs>
    <g id="sprite0" transform="matrix(1.0, 0.0, 0.0, 1.0, -0.05, 0.0)">
      <use height="38.0" transform="matrix(1.0, 0.0, 0.0, 1.0, 0.05, 0.0)" width="32.05" xlink:href="#shape0"/>
    </g>
    <g id="shape0" transform="matrix(1.0, 0.0, 0.0, 1.0, -0.05, 0.0)">
      <path d="M27.35 7.4 Q29.5 11.55 30.9 16.15 32.35 20.85 32.05 25.65 31.7 30.6 27.85 33.75 24.05 36.95 19.1 37.8 L16.5 38.0 Q12.9 38.0 9.45 36.85 4.8 35.25 2.35 31.35 -0.2 27.4 0.05 23.0 0.25 18.6 2.05 13.7 3.85 8.75 7.0 5.05 10.1 1.3 14.7 0.1 L16.5 0.0 Q18.4 0.05 20.2 0.8 24.95 2.85 27.35 7.4" fill="#e4c9a0" fill-rule="evenodd" stroke="none"/>
    </g>
    <g id="sprite1" transform="matrix(1.0, 0.0, 0.0, 1.0, 0.45, 0.5)">
      <use height="38.95" transform="matrix(1.0, 0.0, 0.0, 1.0, -0.45, -0.5)" width="33.05" xlink:href="#shape1"/>
    </g>
    <g id="shape1" transform="matrix(1.0, 0.0, 0.0, 1.0, 0.45, 0.5)">
      <path d="M27.35 7.4 Q24.95 2.85 20.2 0.8 17.55 -0.3 14.7 0.1 10.1 1.3 7.0 5.05 3.85 8.75 2.05 13.7 0.25 18.6 0.05 23.0 -0.2 27.4 2.35 31.35 4.8 35.25 9.45 36.85 14.1 38.4 19.1 37.8 24.05 36.95 27.85 33.75 31.7 30.6 32.05 25.65 32.35 20.85 30.9 16.15 29.5 11.55 27.35 7.4 Z" fill="none" stroke="#1a1a1a" stroke-linecap="round" stroke-linejoin="round" stroke-width="1.0"/>
    </g>
    <g id="shape2" transform="matrix(1.0, 0.0, 0.0, 1.0, 15.0, 1.0)">
      <path d="M20.7 4.85 L21.2 5.05 19.85 6.95 19.95 12.3 19.95 16.9 Q13.15 21.3 6.05 21.65 L4.6 21.65 5.15 20.25 5.25 20.1 Q5.75 19.25 5.5 18.45 L4.8 16.75 4.0 15.05 4.0 14.6 4.7 12.75 Q5.05 11.85 4.95 10.7 13.2 10.95 20.7 4.85 M2.8 21.4 Q-4.6 21.5 -11.1 18.6 L-11.1 8.5 -13.15 5.8 -12.4 5.45 Q-5.9 11.05 3.45 10.75 L2.6 13.0 Q2.2 13.85 2.2 14.8 2.15 15.45 2.5 16.0 L3.45 17.45 Q4.0 18.25 3.75 19.2 L3.45 20.1 3.4 20.25 2.8 21.4 M16.4 11.8 L19.85 6.95 16.4 11.8 M-7.95 12.7 L-11.1 8.5 -7.95 12.7" fill="#435032" fill-rule="evenodd" stroke="none"/>
      <path d="M4.0 7.4 Q12.4 7.05 19.4 0.35 L21.25 -0.5 21.8 1.6 22.35 1.35 22.65 4.15 20.7 4.85 Q13.2 10.95 4.95 10.7 L4.15 11.0 3.45 10.75 Q-5.9 11.05 -12.4 5.45 L-14.5 4.75 -14.5 1.9 -13.05 2.45 -13.05 -0.35 -11.5 1.05 Q-4.65 7.55 3.95 7.4 L4.0 7.4 M4.2 8.8 L3.95 8.7 4.0 8.85 4.2 8.8 Q13.2 8.95 21.8 1.6 13.2 8.95 4.2 8.8 M-13.05 2.45 Q-5.5 9.45 3.95 8.7 L3.95 7.4 3.95 8.7 Q-5.5 9.45 -13.05 2.45 M4.0 8.85 L4.0 9.5 4.15 11.0 4.0 9.5 4.0 8.85" fill="#666600" fill-rule="evenodd" stroke="none"/>
      <path d="M4.2 8.8 L4.0 8.85 3.95 8.7 4.2 8.8" fill="#ffe085" fill-rule="evenodd" stroke="none"/>
      <path d="M4.6 21.65 L3.65 21.65 2.8 21.4 3.4 20.25 3.45 20.1 3.75 19.2 Q4.0 18.25 3.45 17.45 L2.5 16.0 Q2.15 15.45 2.2 14.8 2.2 13.85 2.6 13.0 L3.45 10.75 4.15 11.0 4.95 10.7 Q5.05 11.85 4.7 12.75 L4.0 14.6 4.0 15.05 4.8 16.75 5.5 18.45 Q5.75 19.25 5.25 20.1 L5.15 20.25 4.6 21.65" fill="#cccccc" fill-rule="evenodd" stroke="none"/>
      <path d="M4.0 7.4 Q12.4 7.05 19.4 0.35 L21.25 -0.5 21.8 1.6 22.35 1.35 22.65 4.15 20.7 4.85 21.2 5.05 19.85 6.95 19.95 12.3 19.95 16.9 Q13.15 21.3 6.05 21.65 L4.6 21.65 3.65 21.65 2.8 21.4 Q-4.6 21.5 -11.1 18.6 L-11.1 8.5 -13.15 5.8 -12.4 5.45 -14.5 4.75 -14.5 1.9 -13.05 2.45 -13.05 -0.35 -11.5 1.05 Q-4.65 7.55 3.95 7.4 L4.0 7.4 M19.85 6.95 L16.4 11.8 M4.2 8.8 L3.95 8.7 4.0 8.85 4.2 8.8 Q13.2 8.95 21.8 1.6 M3.95 7.4 L3.95 8.7 Q-5.5 9.45 -13.05 2.45 M4.95 10.7 L4.15 11.0 3.45 10.75 Q-5.9 11.05 -12.4 5.45 M4.15 11.0 L4.0 9.5 4.0 8.85 M4.95 10.7 Q13.2 10.95 20.7 4.85 M-11.1 8.5 L-7.95 12.7" fill="none" stroke="#000000" stroke-linecap="round" stroke-linejoin="round" stroke-width="1.0"/>
      <path d="M3.45 10.75 L2.6 13.0 Q2.2 13.85 2.2 14.8 2.15 15.45 2.5 16.0 L3.45 17.45 Q4.0 18.25 3.75 19.2 L3.45 20.1 3.4 20.25 2.8 21.4 M4.6 21.65 L5.15 20.25 5.25 20.1 Q5.75 19.25 5.5 18.45 L4.8 16.75 4.0 15.05 4.0 14.6 4.7 12.75 Q5.05 11.85 4.95 10.7" fill="none" stroke="#666666" stroke-linecap="round" stroke-linejoin="round" stroke-width="1.0"/>
      <path d="M4.9 7.6 L5.8 13.6 1.15 12.7 2.8 7.6 4.9 7.6" fill="#cccccc" fill-rule="evenodd" stroke="none"/>
      <path d="M4.9 7.6 L5.8 13.6 1.15 12.7 2.8 7.6 4.9 7.6 Z" fill="none" stroke="#666666" stroke-linecap="round" stroke-linejoin="round" stroke-width="1.0"/>
      <path d="M9.75 18.0 L9.75 15.5 8.45 13.7 10.3 13.7 11.55 11.75 12.95 13.8 15.0 13.8 13.25 15.55 13.75 18.1 11.55 16.25 9.75 18.0" fill="#ff0000" fill-rule="evenodd" stroke="none"/>
    </g>
  </defs>
</svg>
