<?xml version="1.0" encoding="UTF-8" standalone="no"?>
<svg xmlns:xlink="http://www.w3.org/1999/xlink" height="82.0px" width="84.85px" xmlns="http://www.w3.org/2000/svg">
  <g transform="matrix(1.0, 0.0, 0.0, 1.0, 37.4, 42.25)">
    <use height="38.0" transform="matrix(1.0, 0.0, 0.0, 1.0, -11.95, -17.45)" width="32.05" xlink:href="#sprite0"/>
    <use height="38.95" transform="matrix(1.0, 0.0, 0.0, 1.0, -12.45, -17.95)" width="33.05" xlink:href="#sprite1"/>
    <use height="13.3" transform="matrix(1.0, 0.0, 0.0, 1.0, -8.4, 7.7)" width="26.85" xlink:href="#shape2"/>
    <use height="22.4" transform="matrix(1.0, 0.0, 0.0, 1.0, 11.3, -2.7)" width="13.15" xlink:href="#sprite2"/>
    <use height="22.4" transform="matrix(-1.0, 0.0, 0.0, 1.0, -3.1, -2.7)" width="13.15" xlink:href="#sprite2"/>
  </g>
  <defs>
    <g id="sprite0" transform="matrix(1.0, 0.0, 0.0, 1.0, -0.05, 0.0)">
      <use height="38.0" transform="matrix(1.0, 0.0, 0.0, 1.0, 0.05, 0.0)" width="32.05" xlink:href="#shape0"/>
    </g>
    <g id="shape0" transform="matrix(1.0, 0.0, 0.0, 1.0, -0.05, 0.0)">
      <path d="M27.35 7.4 Q29.5 11.55 30.9 16.15 32.35 20.85 32.05 25.65 31.7 30.6 27.85 33.75 24.05 36.95 19.1 37.8 L16.5 38.0 Q12.9 38.0 9.45 36.85 4.8 35.25 2.35 31.35 -0.2 27.4 0.05 23.0 0.25 18.6 2.05 13.7 3.85 8.75 7.0 5.05 10.1 1.3 14.7 0.1 L16.5 0.0 Q18.4 0.05 20.2 0.8 24.95 2.85 27.35 7.4" fill="#ba866d" fill-rule="evenodd" stroke="none"/>
    </g>
    <g id="sprite1" transform="matrix(1.0, 0.0, 0.0, 1.0, 0.45, 0.5)">
      <use height="38.95" transform="matrix(1.0, 0.0, 0.0, 1.0, -0.45, -0.5)" width="33.05" xlink:href="#shape1"/>
    </g>
    <g id="shape1" transform="matrix(1.0, 0.0, 0.0, 1.0, 0.45, 0.5)">
      <path d="M27.35 7.4 Q24.95 2.85 20.2 0.8 17.55 -0.3 14.7 0.1 10.1 1.3 7.0 5.05 3.85 8.75 2.05 13.7 0.25 18.6 0.05 23.0 -0.2 27.4 2.35 31.35 4.8 35.25 9.45 36.85 14.1 38.4 19.1 37.8 24.05 36.95 27.85 33.75 31.7 30.6 32.05 25.65 32.35 20.85 30.9 16.15 29.5 11.55 27.35 7.4 Z" fill="none" stroke="#000000" stroke-linecap="round" stroke-linejoin="round" stroke-width="1.0"/>
    </g>
    <g id="shape2" transform="matrix(1.0, 0.0, 0.0, 1.0, 8.4, -7.7)">
      <path d="M4.35 20.5 Q-2.0 20.5 -7.9 17.15 L-4.65 9.75 4.6 16.4 12.75 10.5 16.5 16.65 Q10.65 20.5 4.35 20.5" fill="#ebf4ff" fill-rule="evenodd" stroke="none"/>
      <path d="M1.75 15.15 Q-0.2 13.15 -1.2 12.75 L-6.35 10.5 -4.4 7.7 1.8 10.75 Q3.6 11.95 4.5 13.35 4.95 13.35 7.05 10.75 9.25 9.2 12.5 7.85 L14.0 11.0 Q11.45 11.3 9.55 12.75 L7.25 15.35 Q6.05 16.8 4.65 16.8 3.4 16.8 1.75 15.15" fill="#ed61dc" fill-rule="evenodd" stroke="none"/>
      <path d="M-3.4 8.4 L1.8 10.75 3.7 12.65 Q4.4 13.55 4.75 13.55 5.35 13.55 7.05 10.75 8.95 9.3 11.9 8.5" fill="none" stroke="#8c1f72" stroke-linecap="round" stroke-linejoin="round" stroke-width="1.0"/>
      <path d="M-7.9 17.15 Q-2.75 20.5 4.35 20.5 11.4 20.5 17.95 15.95" fill="none" stroke="#22395e" stroke-linecap="round" stroke-linejoin="round" stroke-width="1.0"/>
    </g>
    <g id="sprite2" transform="matrix(1.0, 0.0, 0.0, 1.0, 0.5, 0.15)">
      <use height="22.4" transform="matrix(1.0, 0.0, 0.0, 1.0, -0.5, -0.15)" width="13.15" xlink:href="#shape3"/>
    </g>
    <g id="shape3" transform="matrix(1.0, 0.0, 0.0, 1.0, 0.5, 0.15)">
      <path d="M10.25 0.5 L10.6 2.75 9.1 5.25 8.0 3.0 7.1 -0.05 10.25 0.5" fill="#2c2754" fill-rule="evenodd" stroke="none"/>
      <path d="M0.1 12.1 L1.95 8.85 Q9.55 6.05 9.95 6.7 10.6 18.4 9.35 19.3 6.2 21.7 3.5 21.7 2.3 21.7 1.3 20.2 0.45 18.9 0.35 17.8 L0.1 12.1" fill="#b01e8e" fill-rule="evenodd" stroke="none"/>
      <path d="M10.1 8.55 Q10.85 14.0 9.5 19.4 L9.0 19.65 7.25 20.45 3.8 21.7 Q1.9 22.1 0.55 18.7 L0.2 14.1" fill="none" stroke="#5e0c47" stroke-linecap="round" stroke-linejoin="round" stroke-width="1.0"/>
      <path d="M9.9 0.35 L11.65 2.3 Q12.25 4.45 12.05 5.55 10.3 8.05 8.1 10.1 6.0 12.05 3.0 13.95 L0.45 14.05 Q-0.55 10.6 0.75 9.35 L6.2 4.7 9.9 0.35" fill="#fab2ff" fill-rule="evenodd" stroke="none"/>
      <path d="M8.85 1.8 L10.25 4.05 11.15 6.85" fill="none" stroke="#bf56a6" stroke-linecap="round" stroke-linejoin="round" stroke-width="1.0"/>
      <path d="M6.75 3.85 L8.2 6.1 9.1 8.9" fill="none" stroke="#bf56a6" stroke-linecap="round" stroke-linejoin="round" stroke-width="1.0"/>
      <path d="M4.25 6.25 L5.65 8.5 6.6 11.25" fill="none" stroke="#bf56a6" stroke-linecap="round" stroke-linejoin="round" stroke-width="1.0"/>
      <path d="M1.05 8.9 L2.5 11.15 3.4 13.9" fill="none" stroke="#bf56a6" stroke-linecap="round" stroke-linejoin="round" stroke-width="1.0"/>
      <path d="M0.45 14.05 Q1.25 14.8 3.25 13.6 7.35 11.05 10.05 8.15 12.2 5.95 12.15 5.3" fill="none" stroke="#bf56a6" stroke-linecap="round" stroke-linejoin="round" stroke-width="1.0"/>
      <path d="M9.9 0.35 L10.65 0.9 Q11.45 1.65 11.8 2.7 12.35 4.4 12.05 5.55" fill="none" stroke="#5e0c47" stroke-linecap="round" stroke-linejoin="round" stroke-width="1.0"/>
      <path d="M0.45 14.05 Q-0.4 11.3 0.35 9.8 L5.2 5.45 Q7.75 3.3 9.2 0.85 9.75 0.3 10.25 0.5" fill="none" stroke="#fff0fc" stroke-linecap="round" stroke-linejoin="round" stroke-width="1.0"/>
    </g>
  </defs>
</svg>
