<?xml version="1.0" encoding="UTF-8" standalone="no"?>
<svg xmlns:xlink="http://www.w3.org/1999/xlink" height="82.0px" width="84.85px" xmlns="http://www.w3.org/2000/svg">
  <g transform="matrix(1.0, 0.0, 0.0, 1.0, 37.4, 42.25)">
    <use height="38.0" transform="matrix(1.0, 0.0, 0.0, 1.0, -11.95, -17.45)" width="32.05" xlink:href="#sprite0"/>
    <use height="38.95" transform="matrix(1.0, 0.0, 0.0, 1.0, -12.45, -17.95)" width="33.05" xlink:href="#sprite1"/>
    <use height="16.6" transform="matrix(1.0, 0.0, 0.0, 1.0, -12.8, 2.75)" width="33.65" xlink:href="#shape2"/>
    <use height="4.0" transform="matrix(1.0, 0.0, 0.0, 1.0, 8.5, 7.65)" width="4.0" xlink:href="#sprite2"/>
    <use height="4.0" transform="matrix(1.0, 0.0, 0.0, 1.0, 12.65, 5.4)" width="4.0" xlink:href="#sprite2"/>
    <use height="4.0" transform="matrix(1.0, 0.0, 0.0, 1.0, 16.1, 3.05)" width="4.0" xlink:href="#sprite2"/>
    <use height="4.0" transform="matrix(1.0, 0.0, 0.0, 1.0, -11.55, 3.75)" width="4.0" xlink:href="#sprite2"/>
    <use height="4.0" transform="matrix(1.0, 0.0, 0.0, 1.0, -7.8, 6.15)" width="4.0" xlink:href="#sprite2"/>
    <use height="4.0" transform="matrix(1.0, 0.0, 0.0, 1.0, -4.15, 7.95)" width="4.0" xlink:href="#sprite2"/>
    <use height="22.4" transform="matrix(1.0, 0.0, 0.0, 1.0, 11.3, -2.7)" width="13.15" xlink:href="#sprite3"/>
    <use height="22.4" transform="matrix(-1.0, 0.0, 0.0, 1.0, -3.2, -2.75)" width="13.15" xlink:href="#sprite3"/>
  </g>
  <defs>
    <g id="sprite0" transform="matrix(1.0, 0.0, 0.0, 1.0, -0.05, 0.0)">
      <use height="38.0" transform="matrix(1.0, 0.0, 0.0, 1.0, 0.05, 0.0)" width="32.05" xlink:href="#shape0"/>
    </g>
    <g id="shape0" transform="matrix(1.0, 0.0, 0.0, 1.0, -0.05, 0.0)">
      <path d="M27.35 7.4 Q29.5 11.55 30.9 16.15 32.35 20.85 32.05 25.65 31.7 30.6 27.85 33.75 24.05 36.95 19.1 37.8 L16.5 38.0 Q12.9 38.0 9.45 36.85 4.8 35.25 2.35 31.35 -0.2 27.4 0.05 23.0 0.25 18.6 2.05 13.7 3.85 8.75 7.0 5.05 10.1 1.3 14.7 0.1 L16.5 0.0 Q18.4 0.05 20.2 0.8 24.95 2.85 27.35 7.4" fill="#947c46" fill-rule="evenodd" stroke="none"/>
    </g>
    <g id="sprite1" transform="matrix(1.0, 0.0, 0.0, 1.0, 0.45, 0.5)">
      <use height="38.95" transform="matrix(1.0, 0.0, 0.0, 1.0, -0.45, -0.5)" width="33.05" xlink:href="#shape1"/>
    </g>
    <g id="shape1" transform="matrix(1.0, 0.0, 0.0, 1.0, 0.45, 0.5)">
      <path d="M27.35 7.4 Q24.95 2.85 20.2 0.8 17.55 -0.3 14.7 0.1 10.1 1.3 7.0 5.05 3.85 8.75 2.05 13.7 0.25 18.6 0.05 23.0 -0.2 27.4 2.35 31.35 4.8 35.25 9.45 36.85 14.1 38.4 19.1 37.8 24.05 36.95 27.85 33.75 31.7 30.6 32.05 25.65 32.35 20.85 30.9 16.15 29.5 11.55 27.35 7.4 Z" fill="none" stroke="#333333" stroke-linecap="round" stroke-linejoin="round" stroke-width="1.0"/>
    </g>
    <g id="shape2" transform="matrix(1.0, 0.0, 0.0, 1.0, 12.8, -2.75)">
      <path d="M-11.8 4.15 Q-4.55 9.95 4.1 12.15 12.15 9.9 19.85 3.75" fill="none" stroke="#666666" stroke-linecap="round" stroke-linejoin="round" stroke-width="2.0"/>
      <path d="M6.35 10.6 L6.85 11.15 7.2 11.65 5.65 13.05 4.25 14.4 3.45 15.15 2.55 16.0 1.85 16.7 1.4 17.25 Q0.75 16.3 0.6 15.15 L0.6 14.95 1.7 14.05 3.3 12.9 4.75 11.85 5.7 11.15 6.35 10.6" fill="#ffffff" fill-rule="evenodd" stroke="none"/>
      <path d="M0.6 14.95 L0.55 14.35 Q0.55 12.5 1.6 11.15 2.7 9.85 4.25 9.85 5.45 9.85 6.35 10.6 L5.7 11.15 4.75 11.85 3.3 12.9 1.7 14.05 0.6 14.95 M7.2 11.65 Q7.95 12.85 7.95 14.35 7.95 16.2 6.85 17.5 5.8 18.85 4.25 18.85 2.7 18.85 1.6 17.5 L1.4 17.25 1.85 16.7 2.55 16.0 3.45 15.15 4.25 14.4 5.65 13.05 7.2 11.65" fill="#ffcc00" fill-rule="evenodd" stroke="none"/>
      <path d="M0.6 14.95 L0.55 14.35 Q0.55 12.5 1.6 11.15 2.7 9.85 4.25 9.85 5.45 9.85 6.35 10.6 L6.85 11.15 7.2 11.65 Q7.95 12.85 7.95 14.35 7.95 16.2 6.85 17.5 5.8 18.85 4.25 18.85 2.7 18.85 1.6 17.5 L1.4 17.25 Q0.75 16.3 0.6 15.15" fill="none" stroke="#695616" stroke-linecap="round" stroke-linejoin="round" stroke-width="1.0"/>
      <path d="M4.3 12.5 L3.7 12.9 3.7 15.15 4.3 15.95 4.95 15.4 5.35 16.05 4.3 17.1 2.85 15.45 2.85 12.6 4.35 11.25 5.55 12.55 5.05 13.2 4.3 12.5" fill="#695616" fill-rule="evenodd" stroke="none"/>
    </g>
    <g id="sprite2" transform="matrix(1.0, 0.0, 0.0, 1.0, 0.5, 0.5)">
      <use height="4.0" transform="matrix(1.0, 0.0, 0.0, 1.0, -0.5, -0.5)" width="4.0" xlink:href="#shape3"/>
    </g>
    <g id="shape3" transform="matrix(1.0, 0.0, 0.0, 1.0, 0.5, 0.5)">
      <path d="M0.8 1.55 Q0.2 0.8 1.15 0.5 2.3 1.0 1.25 1.65 1.0 1.8 0.8 1.55" fill="#ffffff" fill-rule="evenodd" stroke="none"/>
      <path d="M2.55 2.55 L2.3 2.75 1.5 3.0 Q0.9 3.0 0.45 2.55 0.0 2.1 0.0 1.5 0.0 0.9 0.45 0.45 0.9 0.0 1.5 0.0 L2.3 0.25 2.55 0.45 Q3.0 0.9 3.0 1.5 3.0 2.1 2.55 2.55 M0.8 1.55 Q1.0 1.8 1.25 1.65 2.3 1.0 1.15 0.5 0.2 0.8 0.8 1.55" fill="#ffcc00" fill-rule="evenodd" stroke="none"/>
      <path d="M2.55 2.55 L2.3 2.75 1.5 3.0 Q0.9 3.0 0.45 2.55 0.0 2.1 0.0 1.5 0.0 0.9 0.45 0.45 0.9 0.0 1.5 0.0 L2.3 0.25 2.55 0.45 Q3.0 0.9 3.0 1.5 3.0 2.1 2.55 2.55 Z" fill="none" stroke="#695616" stroke-linecap="round" stroke-linejoin="round" stroke-width="1.0"/>
    </g>
    <g id="sprite3" transform="matrix(1.0, 0.0, 0.0, 1.0, 0.5, 0.15)">
      <use height="22.4" transform="matrix(1.0, 0.0, 0.0, 1.0, -0.5, -0.15)" width="13.15" xlink:href="#shape4"/>
    </g>
    <g id="shape4" transform="matrix(1.0, 0.0, 0.0, 1.0, 0.5, 0.15)">
      <path d="M10.25 0.5 L10.6 2.75 9.1 5.25 8.3 3.35 7.3 0.05 Q8.7 -0.1 10.25 0.5" fill="#2c2754" fill-rule="evenodd" stroke="none"/>
      <path d="M10.15 10.95 Q10.35 18.6 9.35 19.3 6.2 21.7 3.5 21.7 2.3 21.7 1.3 20.2 0.45 18.9 0.35 17.8 L0.35 17.4 1.45 17.05 Q4.9 15.7 7.85 13.35 L10.15 10.95" fill="#5192d2" fill-rule="evenodd" stroke="none"/>
      <path d="M0.35 17.4 L0.1 12.1 1.95 8.85 Q9.55 6.05 9.95 6.7 L10.1 9.1 10.1 9.55 10.15 10.9 10.15 10.95 7.85 13.35 Q4.9 15.7 1.45 17.05 L0.35 17.4" fill="#3670cd" fill-rule="evenodd" stroke="none"/>
      <path d="M10.1 8.55 Q10.85 14.0 9.5 19.4 L9.0 19.65 7.25 20.45 3.8 21.7 Q1.9 22.1 0.55 18.7 L0.2 14.1" fill="none" stroke="#00439c" stroke-linecap="round" stroke-linejoin="round" stroke-width="1.0"/>
      <path d="M0.2 12.9 Q-0.3 10.4 0.75 9.35 L6.2 4.7 9.9 0.35 11.65 2.3 11.8 2.85 9.2 6.35 5.4 10.15 Q3.6 11.6 1.4 12.45 L0.2 12.9" fill="#ffffff" fill-rule="evenodd" stroke="none"/>
      <path d="M11.8 2.85 Q12.2 4.6 12.05 5.55 10.3 8.05 8.1 10.1 6.0 12.05 3.0 13.95 L0.45 14.05 0.4 13.9 0.2 13.0 0.2 12.9 1.4 12.45 Q3.6 11.6 5.4 10.15 L9.2 6.35 11.8 2.85" fill="#c6d2fb" fill-rule="evenodd" stroke="none"/>
      <path d="M8.85 1.8 L10.25 4.05 11.15 6.85 M6.75 3.85 L8.2 6.1 9.1 8.9 M4.25 6.25 L5.65 8.5 6.6 11.25 M1.05 8.9 L2.5 11.15 3.4 13.55" fill="none" stroke="#8cbdff" stroke-linecap="round" stroke-linejoin="round" stroke-width="1.0"/>
      <path d="M0.45 14.05 Q1.25 14.8 3.25 13.6 7.35 11.05 10.05 8.15 12.2 5.95 12.15 5.3" fill="none" stroke="#00439c" stroke-linecap="round" stroke-linejoin="round" stroke-width="1.0"/>
      <path d="M9.9 0.35 L10.65 0.9 Q11.45 1.65 11.8 2.7 12.35 4.4 12.05 5.55" fill="none" stroke="#003377" stroke-linecap="round" stroke-linejoin="round" stroke-width="1.0"/>
      <path d="M0.45 14.05 Q-0.4 11.3 0.35 9.8 L5.2 5.45 Q7.75 3.3 9.2 0.85 9.75 0.3 10.25 0.5" fill="none" stroke="#ffffff" stroke-linecap="round" stroke-linejoin="round" stroke-width="1.0"/>
    </g>
  </defs>
</svg>
