<svg xmlns:xlink="http://www.w3.org/1999/xlink" height="82" width="84.85" xmlns="http://www.w3.org/2000/svg"><g transform="translate(37.4 42.25)"><use height="38" transform="translate(-11.95 -17.45)" width="32.05" xlink:href="#a"/><use height="38.95" transform="translate(-12.45 -17.95)" width="33.05" xlink:href="#b"/><use height="31" transform="translate(-14.05 -11.1)" width="35.8" xlink:href="#c"/></g><defs><path d="M27.35 7.4q2.15 4.15 3.55 8.75 1.45 4.7 1.15 9.5-.35 4.95-4.2 8.1-3.8 3.2-8.75 4.05l-2.6.2q-3.6 0-7.05-1.15-4.65-1.6-7.1-5.5Q-.2 27.4.05 23q.2-4.4 2-9.3Q3.85 8.75 7 5.05 10.1 1.3 14.7.1l1.8-.1q1.9.05 3.7.8 4.75 2.05 7.15 6.6" fill="#fff" fill-rule="evenodd" transform="translate(-.05)" id="d"/><path d="M27.35 7.4Q24.95 2.85 20.2.8 17.55-.3 14.7.1 10.1 1.3 7 5.05q-3.15 3.7-4.95 8.65-1.8 4.9-2 9.3-.25 4.4 2.3 8.35 2.45 3.9 7.1 5.5 4.65 1.55 9.65.95 4.95-.85 8.75-4.05 3.85-3.15 4.2-8.1.3-4.8-1.15-9.5-1.4-4.6-3.55-8.75Z" fill="none" stroke="#000" stroke-linecap="round" stroke-linejoin="round" transform="translate(.45 .5)" id="e"/><use height="38" width="32.05" xlink:href="#d" id="a"/><use height="38.95" width="33.05" xlink:href="#e" id="b"/><g id="c"><path d="m13.45 12.1-.9-2.15L4.4 19.9l-8.25-9.2-1.35 1.85-1.8-3.5 1.9-3.25.3.2 8.85 6.1 9.25-6.2 2.55 3.55-2.4 2.65" fill="#c00" fill-rule="evenodd" transform="translate(14.05 11.1)"/><path d="m16.4-7.5 4.85-3.1-2.1 10.55h-3.3V-7.5h.45v-.2l.1.2m-24.8.15.25-.5v.35l1.4 1.25-.7 6.2h-3.65l-2.45-10.2 5.15 2.9" fill="#fff" fill-rule="evenodd" transform="translate(14.05 11.1)"/><path d="m19.15-.05 2.1-10.55-4.85 3.1m-24.8.15-5.15-2.9 2.45 10.2" fill="none" stroke="#000" stroke-linecap="round" stroke-linejoin="round" transform="translate(14.05 11.1)"/></g></defs></svg>