<?xml version="1.0" encoding="UTF-8" standalone="no"?>
<svg xmlns:xlink="http://www.w3.org/1999/xlink" height="82.0px" width="84.85px" xmlns="http://www.w3.org/2000/svg">
  <g transform="matrix(1.0, 0.0, 0.0, 1.0, 37.4, 42.25)">
    <use height="2.4" transform="matrix(1.0, 0.0, 0.0, 1.0, -6.8, -2.8)" width="2.35" xlink:href="#shape0"/>
    <use height="38.0" transform="matrix(1.0, 0.0, 0.0, 1.0, -11.95, -17.45)" width="32.05" xlink:href="#sprite0"/>
    <use height="21.6" transform="matrix(1.0, 0.0, 0.0, 1.0, -12.25, -17.95)" width="32.65" xlink:href="#sprite1"/>
    <use height="24.1" transform="matrix(1.0, 0.0, 0.0, 1.0, -20.9, 2.2)" width="50.35" xlink:href="#shape3"/>
  </g>
  <defs>
    <g id="shape0" transform="matrix(1.0, 0.0, 0.0, 1.0, 6.8, 2.8)">
      <path d="M-5.65 -2.8 Q-3.4 -1.85 -5.45 -0.55 -5.95 -0.2 -6.35 -0.7 -7.55 -2.25 -5.65 -2.8" fill="#d1c0b1" fill-rule="evenodd" stroke="none"/>
    </g>
    <g id="sprite0" transform="matrix(1.0, 0.0, 0.0, 1.0, -0.05, 0.0)">
      <use height="38.0" transform="matrix(1.0, 0.0, 0.0, 1.0, 0.05, 0.0)" width="32.05" xlink:href="#shape1"/>
    </g>
    <g id="shape1" transform="matrix(1.0, 0.0, 0.0, 1.0, -0.05, 0.0)">
      <path d="M27.35 7.4 Q29.5 11.55 30.9 16.15 32.35 20.85 32.05 25.65 31.7 30.6 27.85 33.75 24.05 36.95 19.1 37.8 L16.5 38.0 Q12.9 38.0 9.45 36.85 4.8 35.25 2.35 31.35 -0.2 27.4 0.05 23.0 0.25 18.6 2.05 13.7 3.85 8.75 7.0 5.05 10.1 1.3 14.7 0.1 L16.5 0.0 Q18.4 0.05 20.2 0.8 24.95 2.85 27.35 7.4" fill="#ffffff" fill-rule="evenodd" stroke="none"/>
    </g>
    <g id="sprite1" transform="matrix(1.0, 0.0, 0.0, 1.0, 0.25, 0.5)">
      <use height="21.6" transform="matrix(1.0, 0.0, 0.0, 1.0, -0.25, -0.5)" width="32.65" xlink:href="#shape2"/>
    </g>
    <g id="shape2" transform="matrix(1.0, 0.0, 0.0, 1.0, 0.25, 0.5)">
      <path d="M31.9 20.6 Q31.6 18.35 30.9 16.15 29.5 11.55 27.35 7.4 24.95 2.85 20.2 0.8 17.55 -0.3 14.7 0.1 10.1 1.3 7.0 5.05 3.85 8.75 2.05 13.7 0.7 17.3 0.25 20.6" fill="none" stroke="#333333" stroke-linecap="round" stroke-linejoin="round" stroke-width="1.0"/>
    </g>
    <g id="shape3" transform="matrix(1.0, 0.0, 0.0, 1.0, 20.9, -2.2)">
      <path d="M20.85 22.25 L21.1 22.2 23.1 22.1 24.65 21.75 24.75 21.7 25.0 21.65 Q25.4 21.65 25.7 21.3 L26.0 20.35 25.7 21.3 Q25.4 21.65 25.0 21.65 L25.75 20.25 26.0 20.35 27.75 21.85 25.7 22.4 25.05 23.1 Q17.2 25.5 8.85 26.3 L-10.55 25.1 Q-15.45 24.3 -20.0 22.25 L-18.55 20.35 -18.25 20.55 -18.55 20.35 -18.45 20.2 -18.25 20.55 -18.2 20.6 -18.15 20.75 -17.55 22.15 -15.8 22.35 -17.55 22.15 -18.15 20.75 -17.1 21.9 -15.8 22.35 -15.7 22.35 -15.55 22.4 -13.95 22.85 -11.25 23.3 -13.95 22.85 -15.55 22.4 -13.1 22.2 -11.25 23.3 -9.6 23.55 -7.2 24.0 -3.0 24.7 -0.65 24.55 -3.0 24.7 -7.2 24.0 -4.35 23.3 Q-2.5 24.3 -0.65 24.55 L0.2 24.3 4.35 23.9 5.3 23.45 7.1 24.15 Q10.4 25.75 13.25 23.5 L15.55 23.85 Q18.6 24.4 20.85 22.25 M4.35 23.9 Q6.9 24.05 9.4 25.3 13.4 23.45 17.75 24.35 L18.95 23.7 23.1 22.1 18.95 23.7 17.75 24.35 Q13.4 23.45 9.4 25.3 6.9 24.05 4.35 23.9" fill="#e0e7ff" fill-rule="evenodd" stroke="none"/>
      <path d="M16.7 7.0 Q18.9 5.6 19.45 3.2 L19.55 2.2 20.45 8.65 21.0 8.35 22.4 9.9 18.65 10.8 18.45 10.05 Q13.9 12.6 8.65 12.6 L-4.55 12.0 -8.15 11.05 -11.9 9.9 -10.7 11.45 -12.85 11.5 Q-9.45 14.3 -5.0 14.6 L-5.5 14.85 -5.85 15.35 -6.05 15.8 -7.5 16.5 -6.55 18.85 -5.25 18.45 -4.9 18.4 -4.2 18.7 -3.1 18.45 -3.35 17.1 -2.45 16.25 -3.95 15.65 -3.7 14.8 -0.95 14.95 1.5 14.8 1.6 21.3 -10.75 19.7 Q-14.7 19.25 -16.65 16.6 L-18.85 15.4 -16.7 12.55 -12.2 8.85 -11.75 2.95 -10.85 5.5 -10.5 6.25 -9.45 8.15 -8.75 8.4 Q-0.7 5.6 4.4 11.95 8.8 5.1 16.7 7.0 M26.6 14.6 L26.75 14.75 28.1 16.8 27.85 16.45 26.6 14.6 M28.1 16.9 L28.2 16.9 28.95 18.7 28.95 18.8 28.1 16.9 M21.1 22.2 L24.45 21.75 23.1 22.1 24.45 21.75 24.65 21.75 23.1 22.1 21.1 22.2 M24.75 21.7 L25.7 20.3 25.75 20.25 25.0 21.65 24.75 21.7 M28.7 19.35 L28.8 19.3 28.75 19.35 28.7 19.35 M-18.8 20.0 L-20.3 19.25 -19.6 16.65 -19.6 16.6 -17.9 16.9 -16.35 19.3 -12.35 20.3 -10.6 20.55 Q-5.1 21.25 0.85 22.75 L1.8 22.5 2.05 22.75 Q2.35 23.05 2.55 22.3 L4.9 21.55 8.2 21.2 Q8.35 22.65 9.35 23.75 L9.6 24.0 11.7 23.6 10.7 21.95 13.0 22.4 17.55 23.6 16.8 20.95 17.35 21.15 18.6 23.0 20.85 22.25 Q18.6 24.4 15.55 23.85 L13.25 23.5 Q10.4 25.75 7.1 24.15 L5.3 23.45 4.35 23.9 0.2 24.3 -0.65 24.55 Q-2.5 24.3 -4.35 23.3 L-7.2 24.0 -9.6 23.55 -11.25 23.3 -13.1 22.2 -15.55 22.4 -15.7 22.35 -15.8 22.35 -17.1 21.9 -18.15 20.75 -18.2 20.6 -18.25 20.55 -18.45 20.2 -18.8 20.0 M16.3 17.45 L15.65 17.65 14.5 14.4 15.2 14.25 16.3 17.45 M15.95 18.6 L16.45 19.2 16.2 19.3 15.95 18.6 M2.8 20.95 L3.25 15.05 6.75 15.3 7.8 19.6 2.8 20.95 M10.15 20.1 L9.0 15.25 10.45 14.95 12.4 20.85 10.15 20.1" fill="#ff6969" fill-rule="evenodd" stroke="none"/>
      <path d="M-9.45 8.15 Q-8.6 5.3 -6.1 6.75 L-5.65 7.2 Q-5.3 5.75 -4.1 5.3 L-2.15 5.6 -1.25 7.15 Q1.45 5.2 2.95 7.85 L2.75 9.0 Q4.45 8.2 6.1 8.75 5.95 4.35 10.0 5.95 L10.4 4.65 Q12.0 3.4 13.4 4.95 L13.95 5.75 14.75 4.35 15.85 4.45 16.7 7.0 Q8.8 5.1 4.4 11.95 -0.7 5.6 -8.75 8.4 L-9.45 8.15" fill="#f20000" fill-rule="evenodd" stroke="none"/>
      <path d="M22.4 9.9 L26.6 14.6 27.85 16.45 27.5 16.0 25.55 15.95 Q23.8 16.75 22.7 18.5 L20.35 18.6 20.7 16.95 19.0 17.0 18.75 16.05 17.9 15.8 17.15 16.3 17.0 17.25 16.3 17.45 15.2 14.25 14.5 14.4 15.65 17.65 15.95 18.6 16.2 19.3 14.35 20.15 12.4 20.85 10.45 14.95 9.0 15.25 10.15 20.1 7.8 19.6 6.75 15.3 3.25 15.05 2.8 20.95 1.6 21.3 1.5 14.8 -0.95 14.95 -3.7 14.8 -3.95 15.65 -5.0 14.6 Q-9.45 14.3 -12.85 11.5 L-10.7 11.45 -11.9 9.9 -8.15 11.05 -4.55 12.0 8.65 12.6 Q13.9 12.6 18.45 10.05 L18.65 10.8 22.4 9.9 M20.75 19.85 L22.95 20.4 23.4 20.2 25.8 16.7 28.1 16.9 28.95 18.8 28.8 19.3 28.7 19.35 26.15 19.8 26.0 19.95 25.9 20.1 25.75 20.25 25.7 20.3 24.75 21.7 24.45 21.75 24.75 21.7 24.65 21.75 24.45 21.75 21.1 22.2 20.85 22.25 18.6 23.0 17.35 21.15 18.5 20.25 20.75 19.85 M16.55 20.4 L16.8 20.95 17.55 23.6 13.0 22.4 16.55 20.4 M1.5 14.8 L4.75 14.95 Q11.4 15.0 17.35 12.15 L14.25 12.65 Q7.65 13.95 1.0 13.7 L-9.25 12.1 -9.55 12.6 Q-4.1 14.35 1.5 14.8 M8.2 21.2 L10.7 21.95 11.7 23.6 9.6 24.0 9.35 23.75 Q8.35 22.65 8.2 21.2 M1.8 22.5 L2.55 22.3 Q2.35 23.05 2.05 22.75 L1.8 22.5" fill="#f74242" fill-rule="evenodd" stroke="none"/>
      <path d="M20.35 18.6 L22.7 18.5 Q23.8 16.75 25.55 15.95 L27.5 16.0 27.85 16.45 28.1 16.8 28.2 16.9 28.1 16.9 25.8 16.7 23.4 20.2 22.95 20.4 20.75 19.85 20.7 19.35 20.35 18.6 M16.45 19.2 L16.55 20.4 13.0 22.4 10.7 21.95 8.2 21.2 4.9 21.55 2.55 22.3 1.8 22.5 0.85 22.75 Q-5.1 21.25 -10.6 20.55 L-12.35 20.3 -16.35 19.3 -17.9 16.9 -19.6 16.6 -19.65 16.6 -19.45 16.3 -19.25 15.95 -18.85 15.4 -16.65 16.6 Q-14.7 19.25 -10.75 19.7 L1.6 21.3 2.8 20.95 7.8 19.6 10.15 20.1 12.4 20.85 14.35 20.15 16.2 19.3 16.45 19.2" fill="#b60c0c" fill-rule="evenodd" stroke="none"/>
      <path d="M20.35 18.6 L20.7 19.35 20.75 19.85 18.5 20.25 17.35 21.15 16.8 20.95 16.55 20.4 16.45 19.2 15.95 18.6 15.65 17.65 16.3 17.45 17.0 17.25 17.15 16.3 17.9 15.8 18.75 16.05 19.0 17.0 20.7 16.95 20.35 18.6 M-5.0 14.6 L-3.95 15.65 -2.45 16.25 -3.35 17.1 -3.1 18.45 -4.2 18.7 -4.9 18.4 -5.25 18.45 -6.55 18.85 -7.5 16.5 -6.05 15.8 -5.85 15.35 -5.5 14.85 -5.0 14.6 M17.8 17.85 Q17.55 18.1 17.55 18.45 L17.8 19.05 18.3 19.3 18.85 19.05 19.05 18.45 18.85 17.85 Q18.6 17.6 18.3 17.6 18.0 17.6 17.8 17.85 M-5.0 16.25 L-5.6 16.45 -5.85 16.95 -5.6 17.45 -5.0 17.65 -4.4 17.45 -4.15 16.95 Q-4.15 16.65 -4.4 16.45 L-5.0 16.25" fill="#ffffff" fill-rule="evenodd" stroke="none"/>
      <path d="M1.5 14.8 Q-4.1 14.35 -9.55 12.6 L-9.25 12.1 1.0 13.7 Q7.65 13.95 14.25 12.65 L17.35 12.15 Q11.4 15.0 4.75 14.95 L1.5 14.8" fill="#9c1b1b" fill-rule="evenodd" stroke="none"/>
      <path d="M17.8 17.85 Q18.0 17.6 18.3 17.6 18.6 17.6 18.85 17.85 L19.05 18.45 18.85 19.05 18.3 19.3 17.8 19.05 17.55 18.45 Q17.55 18.1 17.8 17.85 M-5.0 16.25 L-4.4 16.45 Q-4.15 16.65 -4.15 16.95 L-4.4 17.45 -5.0 17.65 -5.6 17.45 -5.85 16.95 -5.6 16.45 -5.0 16.25" fill="#ffc300" fill-rule="evenodd" stroke="none"/>
      <path d="M24.45 21.75 L24.75 21.7 25.0 21.65 Q25.4 21.65 25.7 21.3 L26.0 20.35 M24.45 21.75 L23.1 22.1 18.95 23.7 17.75 24.35 Q13.4 23.45 9.4 25.3 6.9 24.05 4.35 23.9 L0.2 24.3 -0.65 24.55 -3.0 24.7 -7.2 24.0 -9.6 23.55 -11.25 23.3 -13.95 22.85 -15.55 22.4 -15.7 22.35 -15.8 22.35 -17.55 22.15 -18.15 20.75 -18.2 20.6" fill="none" stroke="#bac1d1" stroke-linecap="round" stroke-linejoin="round" stroke-width="1.0"/>
      <path d="M26.75 14.75 L24.85 12.0 M28.2 16.9 L28.1 16.8 26.75 14.75 M25.7 20.3 L25.75 20.25 28.75 19.35 28.8 19.3 28.95 18.8 28.95 18.7 28.2 16.9 M-18.55 20.35 L-18.8 20.0 -20.3 19.25 -20.4 18.85 Q-20.4 14.85 -16.7 12.55 M-18.2 20.6 L-18.25 20.55 -18.55 20.35" fill="none" stroke="#9c1b1b" stroke-linecap="round" stroke-linejoin="round" stroke-width="1.0"/>
    </g>
  </defs>
</svg>
