<svg xmlns:xlink="http://www.w3.org/1999/xlink" height="82" width="84.85" xmlns="http://www.w3.org/2000/svg"><g transform="translate(37.4 42.25)"><use height="2.4" transform="translate(-6.8 -2.8)" width="2.35" xlink:href="#a"/><use height="38" transform="translate(-11.95 -17.45)" width="32.05" xlink:href="#b"/><use height="21.6" transform="translate(-12.25 -17.95)" width="32.65" xlink:href="#c"/><use height="24.1" transform="translate(-20.9 2.2)" width="50.35" xlink:href="#d"/></g><defs><path d="M-5.65-2.8q2.25.95.2 2.25-.5.35-.9-.15-1.2-1.55.7-2.1" fill="#d1c0b1" fill-rule="evenodd" transform="translate(6.8 2.8)" id="a"/><path d="M27.35 7.4q2.15 4.15 3.55 8.75 1.45 4.7 1.15 9.5-.35 4.95-4.2 8.1-3.8 3.2-8.75 4.05l-2.6.2q-3.6 0-7.05-1.15-4.65-1.6-7.1-5.5Q-.2 27.4.05 23q.2-4.4 2-9.3Q3.85 8.75 7 5.05 10.1 1.3 14.7.1l1.8-.1q1.9.05 3.7.8 4.75 2.05 7.15 6.6" fill="#fff" fill-rule="evenodd" transform="translate(-.05)" id="e"/><path d="M31.9 20.6q-.3-2.25-1-4.45-1.4-4.6-3.55-8.75-2.4-4.55-7.15-6.6-2.65-1.1-5.5-.7Q10.1 1.3 7 5.05q-3.15 3.7-4.95 8.65Q.7 17.3.25 20.6" fill="none" stroke="#333" stroke-linecap="round" stroke-linejoin="round" transform="translate(.25 .5)" id="f"/><use height="38" width="32.05" xlink:href="#e" id="b"/><use height="21.6" width="32.65" xlink:href="#f" id="c"/><g id="d"><path d="m20.85 22.25.25-.05 2-.1 1.55-.35.1-.05.25-.05q.4 0 .7-.35l.3-.95-.3.95q-.3.35-.7.35l.75-1.4.25.1 1.75 1.5-2.05.55-.65.7q-7.85 2.4-16.2 3.2l-19.4-1.2q-4.9-.8-9.45-2.85l1.45-1.9.3.2-.3-.2.1-.15.2.35.05.05.05.15.6 1.4 1.75.2-1.75-.2-.6-1.4 1.05 1.15 1.3.45h.1l.15.05 1.6.45 2.7.45-2.7-.45-1.6-.45 2.45-.2 1.85 1.1 1.65.25 2.4.45 4.2.7 2.35-.15-2.35.15-4.2-.7 2.85-.7q1.85 1 3.7 1.25l.85-.25 4.15-.4.95-.45 1.8.7q3.3 1.6 6.15-.65l2.3.35q3.05.55 5.3-1.6M4.35 23.9q2.55.15 5.05 1.4 4-1.85 8.35-.95l1.2-.65 4.15-1.6-4.15 1.6-1.2.65q-4.35-.9-8.35.95-2.5-1.25-5.05-1.4" fill="#e0e7ff" fill-rule="evenodd" transform="translate(20.9 -2.2)"/><path d="M16.7 7q2.2-1.4 2.75-3.8l.1-1 .9 6.45.55-.3 1.4 1.55-3.75.9-.2-.75q-4.55 2.55-9.8 2.55l-13.2-.6-3.6-.95-3.75-1.15 1.2 1.55-2.15.05q3.4 2.8 7.85 3.1l-.5.25-.35.5-.2.45-1.45.7.95 2.35 1.3-.4.35-.05.7.3 1.1-.25-.25-1.35.9-.85-1.5-.6.25-.85 2.75.15 2.45-.15.1 6.5-12.35-1.6q-3.95-.45-5.9-3.1l-2.2-1.2 2.15-2.85 4.5-3.7.45-5.9.9 2.55.35.75 1.05 1.9.7.25Q-.7 5.6 4.4 11.95 8.8 5.1 16.7 7m9.9 7.6.15.15 1.35 2.05-.25-.35-1.25-1.85m1.5 2.3h.1l.75 1.8v.1l-.85-1.9m-7 5.3 3.35-.45-1.35.35 1.35-.35h.2l-1.55.35-2 .1m3.65-.5.95-1.4.05-.05-.75 1.4-.25.05m3.95-2.35.1-.05-.05.05h-.05m-47.5.65-1.5-.75.7-2.6v-.05l1.7.3 1.55 2.4 4 1 1.75.25q5.5.7 11.45 2.2l.95-.25.25.25q.3.3.5-.45l2.35-.75 3.3-.35q.15 1.45 1.15 2.55l.25.25 2.1-.4-1-1.65 2.3.45 4.55 1.2-.75-2.65.55.2L18.6 23l2.25-.75q-2.25 2.15-5.3 1.6l-2.3-.35q-2.85 2.25-6.15.65l-1.8-.7-.95.45-4.15.4-.85.25q-1.85-.25-3.7-1.25l-2.85.7-2.4-.45-1.65-.25-1.85-1.1-2.45.2-.15-.05h-.1l-1.3-.45-1.05-1.15-.05-.15-.05-.05-.2-.35-.35-.2m35.1-2.55-.65.2-1.15-3.25.7-.15 1.1 3.2m-.35 1.15.5.6-.25.1-.25-.7M2.8 20.95l.45-5.9 3.5.25 1.05 4.3-5 1.35m7.35-.85L9 15.25l1.45-.3 1.95 5.9-2.25-.75" fill="#ff6969" fill-rule="evenodd" transform="translate(20.9 -2.2)"/><path d="M-9.45 8.15q.85-2.85 3.35-1.4l.45.45q.35-1.45 1.55-1.9l1.95.3.9 1.55q2.7-1.95 4.2.7L2.75 9q1.7-.8 3.35-.25-.15-4.4 3.9-2.8l.4-1.3q1.6-1.25 3 .3l.55.8.8-1.4 1.1.1L16.7 7Q8.8 5.1 4.4 11.95-.7 5.6-8.75 8.4l-.7-.25" fill="#f20000" fill-rule="evenodd" transform="translate(20.9 -2.2)"/><path d="m22.4 9.9 4.2 4.7 1.25 1.85-.35-.45-1.95-.05q-1.75.8-2.85 2.55l-2.35.1.35-1.65L19 17l-.25-.95-.85-.25-.75.5-.15.95-.7.2-1.1-3.2-.7.15 1.15 3.25.3.95.25.7-1.85.85-1.95.7-1.95-5.9-1.45.3 1.15 4.85-2.35-.5-1.05-4.3-3.5-.25-.45 5.9-1.2.35-.1-6.5-2.45.15-2.75-.15-.25.85L-5 14.6q-4.45-.3-7.85-3.1l2.15-.05-1.2-1.55 3.75 1.15 3.6.95 13.2.6q5.25 0 9.8-2.55l.2.75 3.75-.9m-1.65 9.95 2.2.55.45-.2 2.4-3.5 2.3.2.85 1.9-.15.5-.1.05-2.55.45-.15.15-.1.15-.15.15-.05.05-.95 1.4-.3.05.3-.05-.1.05h-.2l-3.35.45-.25.05-2.25.75-1.25-1.85 1.15-.9 2.25-.4m-4.2.55.25.55.75 2.65L13 22.4l3.55-2M1.5 14.8l3.25.15q6.65.05 12.6-2.8l-3.1.5Q7.65 13.95 1 13.7l-10.25-1.6-.3.5q5.45 1.75 11.05 2.2m6.7 6.4 2.5.75 1 1.65-2.1.4-.25-.25q-1-1.1-1.15-2.55m-6.4 1.3.75-.2q-.2.75-.5.45l-.25-.25" fill="#f74242" fill-rule="evenodd" transform="translate(20.9 -2.2)"/><path d="m20.35 18.6 2.35-.1q1.1-1.75 2.85-2.55l1.95.05.35.45.25.35.1.1h-.1l-2.3-.2-2.4 3.5-.45.2-2.2-.55-.05-.5-.35-.75m-3.9.6.1 1.2-3.55 2-2.3-.45-2.5-.75-3.3.35-2.35.75-.75.2-.95.25q-5.95-1.5-11.45-2.2l-1.75-.25-4-1-1.55-2.4-1.7-.3h-.05l.2-.3.2-.35.4-.55 2.2 1.2q1.95 2.65 5.9 3.1L1.6 21.3l1.2-.35 5-1.35 2.35.5 2.25.75 1.95-.7 1.85-.85.25-.1" fill="#b60c0c" fill-rule="evenodd" transform="translate(20.9 -2.2)"/><path d="m20.35 18.6.35.75.05.5-2.25.4-1.15.9-.55-.2-.25-.55-.1-1.2-.5-.6-.3-.95.65-.2.7-.2.15-.95.75-.5.85.25.25.95 1.7-.05-.35 1.65M-5 14.6l1.05 1.05 1.5.6-.9.85.25 1.35-1.1.25-.7-.3-.35.05-1.3.4-.95-2.35 1.45-.7.2-.45.35-.5.5-.25m22.8 3.25q-.25.25-.25.6l.25.6.5.25.55-.25.2-.6-.2-.6q-.25-.25-.55-.25-.3 0-.5.25M-5 16.25l-.6.2-.25.5.25.5.6.2.6-.2.25-.5q0-.3-.25-.5l-.6-.2" fill="#fff" fill-rule="evenodd" transform="translate(20.9 -2.2)"/><path d="M1.5 14.8q-5.6-.45-11.05-2.2l.3-.5L1 13.7q6.65.25 13.25-1.05l3.1-.5Q11.4 15 4.75 14.95L1.5 14.8" fill="#9c1b1b" fill-rule="evenodd" transform="translate(20.9 -2.2)"/><path d="M17.8 17.85q.2-.25.5-.25t.55.25l.2.6-.2.6-.55.25-.5-.25-.25-.6q0-.35.25-.6M-5 16.25l.6.2q.25.2.25.5l-.25.5-.6.2-.6-.2-.25-.5.25-.5.6-.2" fill="#ffc300" fill-rule="evenodd" transform="translate(20.9 -2.2)"/><path d="m24.45 21.75.3-.05.25-.05q.4 0 .7-.35l.3-.95m-1.55 1.4-1.35.35-4.15 1.6-1.2.65q-4.35-.9-8.35.95-2.5-1.25-5.05-1.4l-4.15.4-.85.25-2.35.15-4.2-.7-2.4-.45-1.65-.25-2.7-.45-1.6-.45-.15-.05h-.1l-1.75-.2-.6-1.4-.05-.15" fill="none" stroke="#bac1d1" stroke-linecap="round" stroke-linejoin="round" transform="translate(20.9 -2.2)"/><path d="M26.75 14.75 24.85 12m3.35 4.9-.1-.1-1.35-2.05M25.7 20.3l.05-.05 3-.9.05-.05.15-.5v-.1l-.75-1.8m-46.75 3.45-.25-.35-1.5-.75-.1-.4q0-4 3.7-6.3m-1.5 8.05-.05-.05-.3-.2" fill="none" stroke="#9c1b1b" stroke-linecap="round" stroke-linejoin="round" transform="translate(20.9 -2.2)"/></g></defs></svg>