<?xml version="1.0" encoding="UTF-8" standalone="no"?>
<svg xmlns:xlink="http://www.w3.org/1999/xlink" height="82.0px" width="84.85px" xmlns="http://www.w3.org/2000/svg">
  <g transform="matrix(1.0, 0.0, 0.0, 1.0, 37.4, 42.25)">
    <use height="38.0" transform="matrix(1.0, 0.0, 0.0, 1.0, -11.95, -17.45)" width="32.05" xlink:href="#sprite0"/>
    <use height="38.95" transform="matrix(1.0, 0.0, 0.0, 1.0, -12.45, -17.95)" width="33.05" xlink:href="#sprite1"/>
    <use height="34.85" transform="matrix(1.0, 0.0, 0.0, 1.0, -10.05, -15.7)" width="28.15" xlink:href="#shape2"/>
    <use height="37.8" transform="matrix(1.0, 0.0, 0.0, 1.0, 2.15, -17.45)" width="18.0" xlink:href="#sprite2"/>
    <use height="7.55" transform="matrix(1.0, 0.0, 0.0, 1.0, -4.3, -14.65)" width="6.6" xlink:href="#sprite3"/>
  </g>
  <defs>
    <g id="sprite0" transform="matrix(1.0, 0.0, 0.0, 1.0, -0.05, 0.0)">
      <use height="38.0" transform="matrix(1.0, 0.0, 0.0, 1.0, 0.05, 0.0)" width="32.05" xlink:href="#shape0"/>
    </g>
    <g id="shape0" transform="matrix(1.0, 0.0, 0.0, 1.0, -0.05, 0.0)">
      <path d="M27.35 7.4 Q29.5 11.55 30.9 16.15 32.35 20.85 32.05 25.65 31.7 30.6 27.85 33.75 24.05 36.95 19.1 37.8 L16.5 38.0 Q12.9 38.0 9.45 36.85 4.8 35.25 2.35 31.35 -0.2 27.4 0.05 23.0 0.25 18.6 2.05 13.7 3.85 8.75 7.0 5.05 10.1 1.3 14.7 0.1 L16.5 0.0 Q18.4 0.05 20.2 0.8 24.95 2.85 27.35 7.4" fill="#76e1f3" fill-rule="evenodd" stroke="none"/>
    </g>
    <g id="sprite1" transform="matrix(1.0, 0.0, 0.0, 1.0, 0.45, 0.5)">
      <use height="38.95" transform="matrix(1.0, 0.0, 0.0, 1.0, -0.45, -0.5)" width="33.05" xlink:href="#shape1"/>
    </g>
    <g id="shape1" transform="matrix(1.0, 0.0, 0.0, 1.0, 0.45, 0.5)">
      <path d="M27.35 7.4 Q24.95 2.85 20.2 0.8 17.55 -0.3 14.7 0.1 10.1 1.3 7.0 5.05 3.85 8.75 2.05 13.7 0.25 18.6 0.05 23.0 -0.2 27.4 2.35 31.35 4.8 35.25 9.45 36.85 14.1 38.4 19.1 37.8 24.05 36.95 27.85 33.75 31.7 30.6 32.05 25.65 32.35 20.85 30.9 16.15 29.5 11.55 27.35 7.4 Z" fill="none" stroke="#333333" stroke-linecap="round" stroke-linejoin="round" stroke-width="1.0"/>
    </g>
    <g id="shape2" transform="matrix(1.0, 0.0, 0.0, 1.0, 10.05, 15.7)">
      <path d="M9.65 6.15 Q13.1 5.15 13.0 9.25 12.85 13.4 9.4 14.05 5.9 14.7 6.05 10.95 6.15 7.2 9.65 6.15" fill="#ffb13d" fill-rule="evenodd" stroke="none"/>
      <path d="M-1.35 6.15 Q2.1 7.2 2.25 10.95 2.35 14.7 -1.1 14.05 -4.6 13.4 -4.7 9.25 -4.85 5.15 -1.35 6.15" fill="#fff98f" fill-rule="evenodd" stroke="none"/>
      <path d="M4.1 15.55 Q7.35 15.55 7.6 17.35 7.8 19.15 4.2 19.15 0.65 19.15 0.75 17.35 0.85 15.55 4.1 15.55" fill="#29dbc1" fill-rule="evenodd" stroke="none"/>
      <path d="M12.75 15.65 Q11.95 15.1 14.55 12.05 17.15 9.0 17.9 9.8 18.75 10.65 16.35 13.55 13.95 16.5 12.75 15.65" fill="#ffa3a3" fill-rule="evenodd" stroke="none"/>
      <path d="M-4.75 15.65 Q-5.9 16.5 -8.3 13.55 -10.7 10.65 -9.85 9.8 -9.1 9.0 -6.5 12.05 -3.95 15.1 -4.75 15.65" fill="#ffe83d" fill-rule="evenodd" stroke="none"/>
      <path d="M17.7 1.6 Q18.05 5.9 15.25 5.1 12.5 4.3 12.75 0.75 12.95 -2.7 15.15 -2.7 17.35 -2.7 17.7 1.6" fill="#40c0ff" fill-rule="evenodd" stroke="none"/>
      <path d="M-9.65 1.7 Q-9.2 -2.7 -7.0 -2.7 -4.8 -2.7 -4.7 0.85 -4.6 4.45 -7.4 5.25 -10.15 6.05 -9.65 1.7" fill="#74d92f" fill-rule="evenodd" stroke="none"/>
      <path d="M4.0 -15.7 Q6.75 -15.7 7.6 -14.55 8.5 -13.45 4.25 -13.45 0.05 -13.45 0.7 -14.55 1.3 -15.7 4.0 -15.7" fill="#d1ff66" fill-rule="evenodd" stroke="none"/>
      <path d="M9.9 -11.95 Q11.7 -12.65 13.35 -9.0 15.0 -5.4 12.75 -4.85 10.5 -4.3 9.3 -7.8 8.1 -11.3 9.9 -11.95" fill="#ffade8" fill-rule="evenodd" stroke="none"/>
      <path d="M-2.1 -11.95 Q-0.3 -11.25 -1.5 -7.8 -2.75 -4.3 -5.0 -4.85 -7.25 -5.4 -5.55 -9.0 -3.85 -12.65 -2.1 -11.95" fill="#ffa3a3" fill-rule="evenodd" stroke="none"/>
    </g>
    <g id="sprite2" transform="matrix(1.0, 0.0, 0.0, 1.0, 0.0, 0.0)">
      <use height="37.8" transform="matrix(1.0, 0.0, 0.0, 1.0, 0.0, 0.0)" width="18.0" xlink:href="#shape3"/>
    </g>
    <g id="shape3" transform="matrix(1.0, 0.0, 0.0, 1.0, 0.0, 0.0)">
      <path d="M11.7 5.95 L13.15 7.95 15.5 12.45 17.35 18.4 17.8 20.7 18.0 23.5 Q17.55 26.6 16.5 29.65 L15.0 32.15 14.25 33.05 12.6 34.55 12.2 34.85 9.65 36.3 4.9 37.55 2.0 37.8 4.7 36.6 Q6.2 35.9 7.3 34.65 10.75 30.6 12.15 26.25 L12.1 24.45 Q11.8 15.4 6.9 7.5 5.0 4.4 2.6 1.7 L0.0 0.2 1.1 0.0 3.2 0.1 4.35 0.45 6.45 1.35 8.4 2.55 9.3 3.3 11.7 5.95" fill="#7d5756" fill-opacity="0.3019608" fill-rule="evenodd" stroke="none"/>
    </g>
    <g id="sprite3" transform="matrix(1.0, 0.0, 0.0, 1.0, 0.0, 0.0)">
      <use height="7.55" transform="matrix(1.0, 0.0, 0.0, 1.0, 0.0, 0.0)" width="6.6" xlink:href="#shape4"/>
    </g>
    <g id="shape4" transform="matrix(1.0, 0.0, 0.0, 1.0, 0.0, 0.0)">
      <path d="M1.1 3.0 Q1.05 3.45 1.4 3.8 2.5 5.05 4.0 4.05 6.55 2.35 4.8 0.25 4.6 0.0 4.3 0.0 1.2 0.25 1.1 3.0" fill="#ffe3df" fill-rule="evenodd" stroke="none"/>
      <path d="M0.95 7.1 Q1.95 7.8 3.3 7.4 4.65 6.95 5.65 5.65 6.6 4.35 6.6 2.95 6.65 1.5 5.7 0.8 4.75 0.05 3.4 0.5 2.05 0.9 1.0 2.25 0.05 3.55 0.0 4.95 0.0 6.35 0.95 7.1" fill="#ffe3df" fill-opacity="0.5019608" fill-rule="evenodd" stroke="none"/>
    </g>
  </defs>
</svg>
