<svg xmlns:xlink="http://www.w3.org/1999/xlink" height="82" width="84.85" xmlns="http://www.w3.org/2000/svg"><g transform="translate(37.4 42.25)"><use height="38" transform="translate(-11.95 -17.45)" width="32.05" xlink:href="#a"/><use height="38.95" transform="translate(-12.45 -17.95)" width="33.05" xlink:href="#b"/><use height="23.9" transform="translate(-17.45 -.4)" width="43.1" xlink:href="#c"/></g><defs><path d="M27.35 7.4q2.15 4.15 3.55 8.75 1.45 4.7 1.15 9.5-.35 4.95-4.2 8.1-3.8 3.2-8.75 4.05l-2.6.2q-3.6 0-7.05-1.15-4.65-1.6-7.1-5.5Q-.2 27.4.05 23q.2-4.4 2-9.3Q3.85 8.75 7 5.05 10.1 1.3 14.7.1l1.8-.1q1.9.05 3.7.8 4.75 2.05 7.15 6.6" fill="#fff" fill-rule="evenodd" transform="translate(-.05)" id="d"/><path d="M27.35 7.4Q24.95 2.85 20.2.8 17.55-.3 14.7.1 10.1 1.3 7 5.05q-3.15 3.7-4.95 8.65-1.8 4.9-2 9.3-.25 4.4 2.3 8.35 2.45 3.9 7.1 5.5 4.65 1.55 9.65.95 4.95-.85 8.75-4.05 3.85-3.15 4.2-8.1.3-4.8-1.15-9.5-1.4-4.6-3.55-8.75Z" fill="none" stroke="#333" stroke-linecap="round" stroke-linejoin="round" transform="translate(.45 .5)" id="e"/><use height="38" width="32.05" xlink:href="#d" id="a"/><use height="38.95" width="33.05" xlink:href="#e" id="b"/><g id="c"><path d="M-12.4.95Q-3.2 8.6-2.9 9.6q.35 1 .25 10-9.95 2.1-11.05-2-.45-1.65.35-9.3l.95-7.35" fill="#d3b878" fill-rule="evenodd" transform="translate(17.45 .4)"/><path d="m-8.95 3.15-4.5 6.15q-2.35-5.5-1.5-6.85l3.3-.15 2.7.85" fill="#d3b878" fill-rule="evenodd" transform="translate(17.45 .4)"/><path d="M-10 1.9h-2.5q-2.55.15-2.8.85-.35 1.15 1.25 4.25" fill="none" stroke="#5c4023" stroke-linecap="round" stroke-linejoin="round" transform="translate(17.45 .4)"/><path d="M3.1 19.4q-4.55-.1-7.05-1.5-7.6-4.3-7.95-10.3-.3-6 .25-6.9l8.4 5.15 7.85 6.1-1.5 7.45" fill="#d3b878" fill-rule="evenodd" transform="translate(17.45 .4)"/><path d="m-.7 21.8.1.1-.7-.15.6.05" fill="#cd43a4" fill-rule="evenodd" transform="translate(17.45 .4)"/><path d="M-3.95 19.85q4.85-3.65 7.2-8Q5.6 7.5 19 .45l.15-.25q.2-.05.4.95.95 4.4-1.75 9.6l-4.95 7.45q-3.05 4.55-7.9 4.6h-.2l-1.3-.05-1.35-.25-2.7-.6-.1-.1-.9-.25-2.3-1.6-.05-.1" fill="#d3b878" fill-rule="evenodd" transform="translate(17.45 .4)"/><path d="M4.95 22.8q4.85-.05 7.9-4.6l4.95-7.45q2.7-5.2 1.75-9.6-.2-1-.4-.95L19 .45Q5.6 7.5 3.25 11.85q-2.35 4.35-7.2 8" fill="none" stroke="#273561" stroke-linecap="round" stroke-linejoin="round" transform="translate(17.45 .4)"/><path d="m2.95 23.1 8.85-12.35q.65-1.05 4.55-3.9 3.95-2.9 3.95-2.1.9 12.8-2.5 14.5-9.35 4.7-14.85 3.85" fill="#d3b878" fill-rule="evenodd" transform="translate(17.45 .4)"/><path d="m6.1 9.1-2.15 2.5L-6.4 4.1l12.5 5" fill="#fff" fill-rule="evenodd" transform="translate(17.45 .4)"/><path d="M1.95 9.6 14.8 3.1 4.1 12.45 1.95 9.6" fill="#fff" fill-rule="evenodd" transform="translate(17.45 .4)"/><path d="M-6 4.35 6.1 9.1m-2.5-1 9.5-4" fill="none" stroke="#616161" stroke-linecap="round" stroke-linejoin="round" transform="translate(17.45 .4)"/><path d="m-8.7 15.6-.9-.25q.85-.1.85-.95l-.3-.7 1.5.45q3.35 1 8.2 1l5.2-.55L12 14l4.4-1.9h.15l.85-.4q-.35.45-.35.65l.1.4.35.3-2.9 1.4-2.75.95-1.65.55-1.85.5-3.95.25H1.6l-3.85-.1-3.65-.65-2.8-.35" fill="#a18548" fill-rule="evenodd" transform="translate(17.45 .4)"/><path d="M14.6 14.45q4.45-1.65 2.55.05l-.05.2q-1.7 1.5-3.75 2.8-.85.55-1.75.55l-1.45.2-1.7.4-2.15.2H3.45l-5.85-.2-1.55-.25-4.3-1q-.9-.15-1.5-.75l-.05-.2.2-.65.9-.2 2.8.35 3.65.65 3.85.1h2.8l3.95-.25 1.85-.5 1.65-.55 2.75-.95" fill="#e3d2ac" fill-rule="evenodd" transform="translate(17.45 .4)"/><path d="M-2.3 5.65q3.2 2.1 6.55 5.3L2.6 12.6q-3.95-4.15-7.1-6.15l-.4-.25.1-.05 2.5-.5m-6.6-1.8-3.6-2.15.6-2.1 5.05 3.3-1.35.55-.7.4" fill="#6a1e20" fill-rule="evenodd" transform="translate(17.45 .4)"/><path d="m-4.9 6.2-1.45-.85.4-.15 1.8-.7q.9.5 1.85 1.15l-2.5.5-.1.05m-2.8-1.65-.55-.3-.3-.2-.35-.2.7-.4 1.35-.55.4.25.9.55-1.5.55-.65.3" fill="#9c303a" fill-rule="evenodd" transform="translate(17.45 .4)"/><path d="m-6.35 5.35-.8-.45-.55-.35.65-.3 1.5-.55 1.15.65.2.1.05.05-1.8.7-.4.15" fill="#cf636d" fill-rule="evenodd" transform="translate(17.45 .4)"/><path d="M17.3 2.85 20 2q2.75-.65 3.3.2.8 1.3-1.5 6.8l-4.5-6.15" fill="#d3b878" fill-rule="evenodd" transform="translate(17.45 .4)"/><path d="m17.1 1.85 3.1-.1q3.2 0 3.4.7.4 1.15-1.25 4.25" fill="none" stroke="#5c4023" stroke-linecap="round" stroke-linejoin="round" transform="translate(17.45 .4)"/><path d="m12.75 3.75.75-.55Q16.35 1.4 19 .45l.45 1.5-4.45 3-1.2-.6q-.55-.45-1.05-.6m1.05 2-.2.15.1-.15h.1M9.6 8.9l-2.3 2.05-3.45 3.85-4.2.1-.25-.05h.3l-.25-.05 4.3-4.1L7.7 7.5l-.7.6 1.4.2 1.2.6m-7.15 7.55-.35.45-4.25-.4-.65.7-.5.5 1.3-1.35H.7l1.75.1M.6 18.65l-.5.6-2 2.1L-5 19.5l1.55-1.65q.75.7 4.05.8" fill="#6a1e20" fill-rule="evenodd" transform="translate(17.45 .4)"/><path d="m3.85 14.8-.35.4-.25.3-.8.95-1.75-.1H-2l.4-.45.95-1 .05-.05.05-.05.25.05h-.3l.25.05 4.2-.1" fill="#48151b" fill-rule="evenodd" transform="translate(17.45 .4)"/><path d="m15 4.95-1.2.8h-.1l-.1.15-2.95 2.2-.6.45-.45.35-1.2-.6L7 8.1l.7-.6.65-.5.1-.1.65-.5.95.4 1.2.8 1.9-1.4-.7-.5-1.35-.8 1-.7q.3-.25.65-.45.5.15 1.05.6l1.2.6M2.1 16.9l-.8.9-.35.45-.15.2-.2.2q-3.3-.1-4.05-.8l.15-.15.5-.5.65-.7 4.25.4" fill="#9c303a" fill-rule="evenodd" transform="translate(17.45 .4)"/><path d="m9.1 6.4 2-1.5 1.35.8.7.5-1.9 1.4-1.2-.8-.95-.4" fill="#ca4654" fill-rule="evenodd" transform="translate(17.45 .4)"/><path d="M16.85 19.25Q19.55 18 20.1 17q.6-1-1.35-4.05" fill="none" stroke="#d3b878" stroke-linecap="round" stroke-linejoin="round" transform="translate(17.45 .4)"/><path d="m18.95 12.25.9-.9v.2l-.9.7" fill="#c4ae91" fill-rule="evenodd" transform="translate(17.45 .4)"/><path d="M-13 13.55q3.6 3.15 15.6 3.15 7.5 0 12.95-2.5 2.75-1.25 3.95-2.5" fill="none" stroke="#333" stroke-linecap="round" stroke-linejoin="round" transform="translate(17.45 .4)"/><path d="M24.95 11.25q.45 2.85-.3 6.05-.9 3.8-3.05 4.15-1.95.3-3.6-1.65l-1.2-2.05.15-3.8 2.7-11.55 2.45 3.3q2.55 3.7 2.85 5.55" fill="#d3b878" fill-rule="evenodd" transform="translate(17.45 .4)"/><path d="m23.2 3.2-.15.3-1.55.45-1.8.7-4.15.45h-.7l3.45-2.15q1.25-.8 1.75-.9h.1l2.8.3q0 .55.25.85" fill="#e3d2ac" fill-rule="evenodd" transform="translate(17.45 .4)"/><path d="M24.45 12.1q-4.85 8.65-6.35 8.5-.95-.1-1.15-3.75l.35-7.1q2.4-2.8 5.9-.85 1.25 1.05 1.25 3.2" fill="#a18548" fill-rule="evenodd" transform="translate(17.45 .4)"/><path d="M20.8 7.8q-1.3 0-1.8.45l-.75.45-.65-.7q0-.45.75-.95 1.1-.75 3.05-.5.9 0 1.7.55l.85 1q0 .6-.65.6-.4 0-.95-.45-.5-.45-1.55-.45" fill="#ece0c6" fill-rule="evenodd" transform="translate(17.45 .4)"/><path d="m17.6 10.85-.6 3.5q.1 1.7.65 4.25" fill="none" stroke="#7b6037" stroke-linecap="round" stroke-linejoin="round" transform="translate(17.45 .4)"/><path d="m17.65 18.6.2 1 .45 1 .25.25q.85.75 2.55.75l.55-.05q4.25-.6 3.35-11.1-.8-3.35-2.35-3.9" fill="none" stroke="#5c4023" stroke-linecap="round" stroke-linejoin="round" transform="translate(17.45 .4)"/><path d="M14 9.65q1.55-.65 1.5.4-.1 1-1.15 2-1 .95-1.4-.45-.4-1.35 1.05-1.95m-20.05.85.1.05q1 .6.95 1.55-.05.95-1.15.6-1.2-.4-1.25-1.55-.1-1.1 1.35-.65" fill="#7b552f" fill-rule="evenodd" transform="translate(17.45 .4)"/><path d="M17.9 9.5q.25 7.75.6 8.6.35 1 1 1.85" fill="none" stroke="#d3b878" stroke-linecap="round" stroke-linejoin="round" transform="translate(17.45 .4)"/><path d="M17.3 19.1q-2.75 3.25-10.85 3.85-8.05.55-10.4-3.1m-8.95-6.4-1.65 4.5q.1 1.25 3.5 1.75 3.9 1 7.1-.1" fill="none" stroke="#5c4023" stroke-linecap="round" stroke-linejoin="round" transform="translate(17.45 .4)"/><path d="m-13.6 6.95 2.2-4.55 2.6 11.95.2 3.4q-1.65 4.2-4.8 3.7-2.15-.35-3.05-4.15-.75-3.2-.8-5.6-.05-2.4 3.65-4.75" fill="#d3b878" fill-rule="evenodd" transform="translate(17.45 .4)"/><path d="M-12.45 8.4q1.2-.35 2 1.45 1.7 3.85 1.55 5.5l-.7 2.6-.9 2.25q-.45.55-2.15-.6-.75-.5-3-7.65.65-3.5 3.2-3.55" fill="#a18548" fill-rule="evenodd" transform="translate(17.45 .4)"/><path d="m-9.05 9.45-.8-.7q-.6-.7-2.2-.7-.5 0-1.95.65-.65 0-.7-.65 0-.75 2.45-1.25h.45q3.35-.1 3.35 1.95 0 .7-.6.7" fill="#ece0c6" fill-rule="evenodd" transform="translate(17.45 .4)"/><path d="m-10.15 10.35.5 5q-.1 1.25-1.6 5.1" fill="none" stroke="#d3b878" stroke-linecap="round" stroke-linejoin="round" transform="translate(17.45 .4)"/><path d="m-9.4 10.85.6 3.5q-.1 2-.85 5.25v.2" fill="none" stroke="#7b6037" stroke-linecap="round" stroke-linejoin="round" transform="translate(17.45 .4)"/><path d="M-9.65 19.8q-.25 1.35-1.9 1.7l-1.35.1h-.15q-4.65-.15-3.75-11.05 1-3.1 3.05-3.65" fill="none" stroke="#5c4023" stroke-linecap="round" stroke-linejoin="round" transform="translate(17.45 .4)"/><path d="M-7.55 5.45h.7L-10.3 3.3q-1.25-.8-1.75-.9h-.1l-2.8.3q0 .55-.25.85l.15.3 1.55.45 1.8.7 4.15.45" fill="#e3d2ac" fill-rule="evenodd" transform="translate(17.45 .4)"/></g></defs></svg>