<?xml version="1.0" encoding="UTF-8" standalone="no"?>
<svg xmlns:xlink="http://www.w3.org/1999/xlink" height="82.0px" width="84.85px" xmlns="http://www.w3.org/2000/svg">
  <g transform="matrix(1.0, 0.0, 0.0, 1.0, 37.4, 42.25)">
    <use height="38.0" transform="matrix(1.0, 0.0, 0.0, 1.0, -11.95, -17.45)" width="32.05" xlink:href="#sprite0"/>
    <use height="38.95" transform="matrix(1.0, 0.0, 0.0, 1.0, -12.45, -17.95)" width="33.05" xlink:href="#sprite1"/>
    <use height="39.9" transform="matrix(1.0, 0.0, 0.0, 1.0, -16.9, -14.45)" width="42.3" xlink:href="#shape2"/>
  </g>
  <defs>
    <g id="sprite0" transform="matrix(1.0, 0.0, 0.0, 1.0, -0.05, 0.0)">
      <use height="38.0" transform="matrix(1.0, 0.0, 0.0, 1.0, 0.05, 0.0)" width="32.05" xlink:href="#shape0"/>
    </g>
    <g id="shape0" transform="matrix(1.0, 0.0, 0.0, 1.0, -0.05, 0.0)">
      <path d="M27.35 7.4 Q29.5 11.55 30.9 16.15 32.35 20.85 32.05 25.65 31.7 30.6 27.85 33.75 24.05 36.95 19.1 37.8 L16.5 38.0 Q12.9 38.0 9.45 36.85 4.8 35.25 2.35 31.35 -0.2 27.4 0.05 23.0 0.25 18.6 2.05 13.7 3.85 8.75 7.0 5.05 10.1 1.3 14.7 0.1 L16.5 0.0 Q18.4 0.05 20.2 0.8 24.95 2.85 27.35 7.4" fill="#ffffff" fill-rule="evenodd" stroke="none"/>
    </g>
    <g id="sprite1" transform="matrix(1.0, 0.0, 0.0, 1.0, 0.45, 0.5)">
      <use height="38.95" transform="matrix(1.0, 0.0, 0.0, 1.0, -0.45, -0.5)" width="33.05" xlink:href="#shape1"/>
    </g>
    <g id="shape1" transform="matrix(1.0, 0.0, 0.0, 1.0, 0.45, 0.5)">
      <path d="M27.35 7.4 Q24.95 2.85 20.2 0.8 17.55 -0.3 14.7 0.1 10.1 1.3 7.0 5.05 3.85 8.75 2.05 13.7 0.25 18.6 0.05 23.0 -0.2 27.4 2.35 31.35 4.8 35.25 9.45 36.85 14.1 38.4 19.1 37.8 24.05 36.95 27.85 33.75 31.7 30.6 32.05 25.65 32.35 20.85 30.9 16.15 29.5 11.55 27.35 7.4 Z" fill="none" stroke="#333333" stroke-linecap="round" stroke-linejoin="round" stroke-width="1.0"/>
    </g>
    <g id="shape2" transform="matrix(1.0, 0.0, 0.0, 1.0, 16.9, 14.45)">
      <path d="M15.0 4.15 L3.95 14.05 -3.75 10.05 15.0 4.15" fill="#e8ffff" fill-rule="evenodd" stroke="none"/>
      <path d="M14.75 3.9 L3.0 7.75" fill="none" stroke="#55adb2" stroke-linecap="round" stroke-linejoin="round" stroke-width="1.0"/>
      <path d="M5.2 8.35 L0.6 13.3 -6.95 3.85 5.2 8.35" fill="#e8ffff" fill-rule="evenodd" stroke="none"/>
      <path d="M-6.25 4.35 L8.75 9.45" fill="none" stroke="#55adb2" stroke-linecap="round" stroke-linejoin="round" stroke-width="1.0"/>
      <path d="M4.15 12.45 L19.1 1.05 Q21.35 3.05 19.35 10.7 18.0 15.8 12.8 18.55 8.75 20.7 4.5 20.7 L4.15 12.45" fill="#ffa8f0" fill-rule="evenodd" stroke="none"/>
      <path d="M5.5 13.4 L4.5 20.7 Q0.15 20.7 -4.15 18.55 -9.7 15.75 -11.05 10.7 -13.05 3.05 -10.8 1.05 L5.5 13.4" fill="#ffa8f0" fill-rule="evenodd" stroke="none"/>
      <path d="M-11.25 1.3 L-10.65 0.7 Q-9.7 0.25 -8.25 1.2 -5.2 3.15 -1.85 6.3 L3.6 11.95 -1.1 13.65 -11.25 1.3" fill="#ffa8f0" fill-rule="evenodd" stroke="none"/>
      <path d="M24.5 18.2 Q22.5 21.8 12.5 16.8 L18.75 3.2 20.15 2.95 Q21.8 3.1 23.0 4.8 25.0 7.7 25.35 12.1 25.65 16.1 24.5 18.2" fill="#ffa8f0" fill-rule="evenodd" stroke="none"/>
      <path d="M-10.3 3.2 L-4.05 16.8 Q-14.05 21.8 -16.05 18.2 -17.15 16.1 -16.85 12.1 -16.5 7.7 -14.55 4.8 -12.6 2.05 -10.3 3.2" fill="#ffa8f0" fill-rule="evenodd" stroke="none"/>
      <path d="M-6.4 3.7 Q-5.85 4.1 -4.0 6.45 L0.6 10.8 -4.5 9.4 Q-7.85 8.55 -8.6 7.55 -9.85 5.9 -11.15 5.8 L-13.15 5.8 Q-14.5 5.7 -14.55 4.8 -14.6 4.05 -13.35 3.5 -11.85 3.05 -11.5 2.8 L-11.9 2.45 Q-10.8 0.2 -6.4 3.7" fill="#f7f2f6" fill-rule="evenodd" stroke="none"/>
      <path d="M0.35 13.95 Q-3.6 8.85 -6.1 6.45 -10.1 2.55 -10.85 2.8 L-11.6 2.8 -11.25 1.45 Q-10.75 0.2 -9.9 0.65 -6.85 2.15 -4.0 4.9 -0.85 7.9 1.75 9.95 L3.35 11.9 0.35 13.95" fill="#ff4fae" fill-rule="evenodd" stroke="none"/>
      <path d="M9.75 -13.3 Q9.75 -12.2 8.55 -12.2 7.35 -12.2 7.35 -13.3 7.35 -14.45 8.55 -14.45 9.75 -14.45 9.75 -13.3" fill="#3b3b3b" fill-rule="evenodd" stroke="none"/>
      <path d="M1.75 -13.3 Q1.75 -12.2 0.55 -12.2 -0.65 -12.2 -0.65 -13.3 -0.65 -14.45 0.55 -14.45 1.75 -14.45 1.75 -13.3" fill="#3b3b3b" fill-rule="evenodd" stroke="none"/>
      <path d="M19.85 16.55 Q18.25 23.2 14.0 23.2 L2.35 23.3 Q-3.0 23.1 -3.0 20.05 -3.0 17.55 2.4 15.65 5.2 14.7 14.5 14.3 L19.85 16.55" fill="#ffa8f0" fill-rule="evenodd" stroke="none"/>
      <path d="M-8.4 14.8 L-7.45 15.1 Q1.1 17.15 1.1 20.05 1.1 23.2 -6.75 23.2 -11.0 23.2 -12.65 16.55 L-8.4 14.8 Q-8.65 14.65 -8.25 14.5 L-7.25 14.3 -8.4 14.8" fill="#ffa8f0" fill-rule="evenodd" stroke="none"/>
      <path d="M9.0 9.95 L8.6 9.45 11.35 5.7 Q14.55 1.4 18.65 2.1 23.55 3.0 23.3 5.85 L18.35 5.65 Q17.45 6.05 16.85 7.6 16.25 9.1 15.3 9.45 L9.0 9.95" fill="#f7f2f6" fill-rule="evenodd" stroke="none"/>
      <path d="M18.9 3.55 L14.65 6.95 -2.65 21.4 -3.25 17.3 15.6 1.8 18.1 0.7 19.85 1.2 19.95 0.95 20.3 1.5 Q20.6 2.3 20.5 2.95 19.4 3.2 18.9 3.55" fill="#ff4fae" fill-rule="evenodd" stroke="none"/>
      <path d="M20.6 2.05 Q19.1 -0.7 15.6 1.8 12.1 4.3 -3.25 17.3 L-3.3 18.5 Q-3.3 19.9 -2.75 20.95 -1.9 22.65 -0.5 22.9 L9.25 23.2 Q15.7 23.2 17.4 21.45 L19.5 19.3" fill="none" stroke="#870f49" stroke-linecap="round" stroke-linejoin="round" stroke-width="1.0"/>
      <path d="M3.25 12.7 Q8.6 12.7 16.1 10.9 15.5 13.8 16.85 16.95 L3.5 17.4 Q-2.0 17.5 -9.1 17.2 -8.15 16.15 -7.9 14.3 L-7.6 10.65 Q-2.1 12.7 3.25 12.7" fill="#ff87ba" fill-rule="evenodd" stroke="none"/>
      <path d="M3.15 11.55 Q-6.2 2.4 -8.9 0.9 -10.35 0.1 -11.2 0.7 L-11.75 1.45" fill="none" stroke="#870f49" stroke-linecap="round" stroke-linejoin="round" stroke-width="1.0"/>
      <path d="M16.1 10.9 Q8.6 12.7 3.25 12.7 -2.1 12.7 -7.6 10.65" fill="none" stroke="#b00053" stroke-linecap="round" stroke-linejoin="round" stroke-width="1.0"/>
      <path d="M16.15 11.8 Q8.65 13.6 3.35 13.6 -2.0 13.6 -7.5 11.55" fill="none" stroke="#ffd9eb" stroke-linecap="round" stroke-linejoin="round" stroke-width="1.0"/>
      <path d="M17.1 17.55 L-9.15 18.3 -7.25 15.5 4.25 16.1 15.85 15.1 17.1 17.55" fill="#ffd9eb" fill-rule="evenodd" stroke="none"/>
      <path d="M17.9 18.45 L4.25 18.55 -10.05 19.2" fill="none" stroke="#b00053" stroke-linecap="round" stroke-linejoin="round" stroke-width="1.0"/>
      <path d="M17.1 17.55 L-9.15 18.3" fill="none" stroke="#ff80b4" stroke-linecap="round" stroke-linejoin="round" stroke-width="1.0"/>
      <path d="M-7.8 8.95 L-7.35 11.0 Q-7.0 13.3 -7.55 14.7 -9.1 18.75 -10.05 19.2 L-11.3 19.45 Q-15.3 20.2 -16.05 18.2 -16.6 16.7 -16.1 11.45 -15.6 6.2 -14.8 5.2 L-12.05 2.95 -11.75 1.45" fill="none" stroke="#870f49" stroke-linecap="round" stroke-linejoin="round" stroke-width="1.0"/>
      <path d="M-16.4 13.55 Q-16.5 8.15 -12.05 7.8 -7.25 7.4 -10.4 15.45 -11.35 17.95 -13.75 17.65 -16.25 17.4 -16.4 13.55" fill="#c973bb" fill-rule="evenodd" stroke="none"/>
      <path d="M16.25 8.95 L15.8 11.0 Q15.45 13.3 16.0 14.7 17.55 18.75 18.5 19.2 L19.75 19.45 Q23.75 20.2 24.5 18.2 25.05 16.7 24.55 11.45 24.05 6.2 23.25 5.2 L20.5 2.95 20.3 1.5" fill="none" stroke="#870f49" stroke-linecap="round" stroke-linejoin="round" stroke-width="1.0"/>
      <path d="M24.85 9.8 Q25.35 10.9 25.1 13.45 24.75 17.0 22.1 17.55 19.5 18.15 18.5 15.05 17.3 11.4 18.25 9.45 19.2 7.55 21.6 7.95 24.1 8.3 24.85 9.8" fill="#c973bb" fill-rule="evenodd" stroke="none"/>
      <path d="M-11.6 19.55 Q-10.4 23.05 -7.0 23.15 -3.6 23.2 -1.65 22.2" fill="none" stroke="#870f49" stroke-linecap="round" stroke-linejoin="round" stroke-width="1.0"/>
      <path d="M10.1 14.45 L10.15 18.45" fill="none" stroke="#750000" stroke-linecap="round" stroke-linejoin="round" stroke-width="2.5"/>
      <path d="M13.5 12.85 Q13.5 14.25 12.5 15.2 11.55 16.2 10.15 16.2 8.8 16.2 7.85 15.2 6.85 14.25 6.85 12.85 6.85 11.5 7.85 10.55 8.8 9.55 10.15 9.55 11.55 9.55 12.5 10.55 13.5 11.5 13.5 12.85" fill="#850000" fill-rule="evenodd" stroke="none"/>
      <path d="M12.9 12.85 Q12.9 15.6 10.15 15.6 7.4 15.6 7.4 12.85 7.4 10.1 10.15 10.1 12.9 10.1 12.9 12.85" fill="#ff0000" fill-rule="evenodd" stroke="none"/>
      <path d="M11.4 12.85 Q11.4 14.1 10.15 14.1 8.95 14.1 8.95 12.85 8.95 11.65 10.15 11.65 11.4 11.65 11.4 12.85" fill="#ffdbdb" fill-rule="evenodd" stroke="none"/>
      <path d="M7.15 22.05 Q8.3 19.3 8.3 18.6 L8.25 18.45 Q8.25 17.85 10.15 17.85 12.1 17.85 12.1 18.45 L12.05 18.55 13.1 20.6 14.4 23.15 Q14.45 23.85 13.9 23.75 L13.0 23.15 13.15 24.2 11.35 24.6 Q10.75 24.55 10.35 23.5 9.95 24.15 9.9 24.7 L8.1 24.35 Q7.65 24.1 7.65 22.9 6.8 24.85 6.5 23.55 L7.15 22.05" fill="#fff4d6" fill-rule="evenodd" stroke="none"/>
      <path d="M7.15 22.05 L6.5 23.55 Q6.8 24.85 7.65 22.9 7.65 24.1 8.1 24.35 L9.9 24.7 Q9.95 24.15 10.35 23.5 10.75 24.55 11.35 24.6 L13.15 24.2 13.0 23.15 13.9 23.75 Q14.45 23.85 14.4 23.15 L13.1 20.6 12.05 18.55 12.1 18.45 Q12.1 17.85 10.15 17.85 8.25 17.85 8.25 18.45 L8.3 18.6 Q8.3 19.3 7.15 22.05 Z" fill="none" stroke="#870000" stroke-linecap="round" stroke-linejoin="round" stroke-width="1.5"/>
      <path d="M10.1 14.45 L10.15 18.45" fill="none" stroke="#ff0000" stroke-linecap="round" stroke-linejoin="round" stroke-width="1.0"/>
      <path d="M8.35 18.45 L8.9 18.35 11.95 18.5 Q12.2 18.6 13.1 20.6 L14.4 23.15 Q14.45 23.85 13.9 23.75 L13.0 23.15 13.15 24.2 11.35 24.6 Q10.75 24.55 10.35 23.5 9.95 24.15 9.9 24.7 L8.1 24.35 Q7.65 24.1 7.65 22.9 6.8 24.85 6.5 23.55 L7.15 22.05 Q8.35 19.4 8.35 18.45" fill="#fff7f7" fill-rule="evenodd" stroke="none"/>
      <path d="M12.1 18.45 Q12.1 19.05 10.15 19.05 8.25 19.05 8.25 18.45 8.25 17.85 10.15 17.85 12.1 17.85 12.1 18.45" fill="#ff0000" fill-rule="evenodd" stroke="none"/>
    </g>
  </defs>
</svg>
