<svg xmlns:xlink="http://www.w3.org/1999/xlink" height="82" width="84.85" xmlns="http://www.w3.org/2000/svg"><g transform="translate(37.4 42.25)"><use height="38" transform="translate(-11.95 -17.45)" width="32.05" xlink:href="#a"/><use height="38.95" transform="translate(-12.45 -17.95)" width="33.05" xlink:href="#b"/><use height="20.55" transform="translate(2.85 .85)" width="22.1" xlink:href="#c"/><use height="20.55" transform="matrix(-1 0 0 1 5.4 .85)" width="22.1" xlink:href="#c"/></g><defs><use height="38" width="32.05" xlink:href="#d" id="a"/><use height="38.95" width="33.05" xlink:href="#e" id="b"/><use height="20.55" width="22.1" xlink:href="#f" id="c"/><path d="M27.35 7.4q2.15 4.15 3.55 8.75 1.45 4.7 1.15 9.5-.35 4.95-4.2 8.1-3.8 3.2-8.75 4.05l-2.6.2q-3.6 0-7.05-1.15-4.65-1.6-7.1-5.5Q-.2 27.4.05 23q.2-4.4 2-9.3Q3.85 8.75 7 5.05 10.1 1.3 14.7.1l1.8-.1q1.9.05 3.7.8 4.75 2.05 7.15 6.6" fill="#fff" fill-rule="evenodd" transform="translate(-.05)" id="d"/><path d="M27.35 7.4Q24.95 2.85 20.2.8 17.55-.3 14.7.1 10.1 1.3 7 5.05q-3.15 3.7-4.95 8.65-1.8 4.9-2 9.3-.25 4.4 2.3 8.35 2.45 3.9 7.1 5.5 4.65 1.55 9.65.95 4.95-.85 8.75-4.05 3.85-3.15 4.2-8.1.3-4.8-1.15-9.5-1.4-4.6-3.55-8.75Z" fill="none" stroke="#333" stroke-linecap="round" stroke-linejoin="round" transform="translate(.45 .5)" id="e"/><g id="f"><path d="m3.85 6.55.1.05v11.75h-2.8V8.3q1.55-.1 2.7-1.75" fill="#37cbe5" fill-rule="evenodd" transform="translate(0 .85)"/><path d="m1.8 19.5.8.05 8.45-.85q3.15-.1 3-2.2 3.85-2.15 4.3-5.1v-.15L18.7 10q1.6-3.75 1.85-6.05.7-.8.5-1.75 0-.45-.65-.9t-1.25-.25l-1.9.2" fill="none" stroke="#000" stroke-linecap="round" stroke-linejoin="round" stroke-width="2"/><path d="M4.25 6.7q.35-.25 2.4-.95l13.8-4.35q-.05 3.25-2.1 9.15-.45 2.95-4.3 5.1-.15 1.65-2.35 2.05l-11.65.45 2.2-6L3.2 8.9q.05-1.5 1.05-2.2" fill-rule="evenodd" transform="translate(0 .85)"/><path d="M18.85 6.85q.1 3.4-1.35 5.7l-1.75-.8-6.85-6.7L20.45 1.4q-1.7 2-1.6 5.45" fill="red" fill-rule="evenodd" transform="translate(0 .85)"/><path d="m9.6 5.8 5.2 5.05 1.4 1 1.3.7" fill="none" stroke="#fff" stroke-linecap="round" stroke-linejoin="round" transform="translate(0 .85)"/><path d="M20.4.45q.65.45.65.9.05 2.3-1.95 2.4-5.85.65-7.55 1.2-4.75 1.4-5.95 2L3.2 8.9q-.9-3.45 2.95-5.25Q10 1.8 19.15.2q.6-.2 1.25.25M1.4 15l7.2.25 4.05-.05 2.5-.5-1.1.95q.15 2.1-3 2.2l-8.45.85-2.3-.25L1.4 15" fill="#ededed" fill-rule="evenodd" transform="translate(0 .85)"/><path d="M15.9 14.5q-2.7 1.3-4.65 1.3l-9.75-.55" fill="none" stroke="#c7c7c7" stroke-linecap="round" stroke-linejoin="round" transform="translate(0 .85)"/><path d="M3.3 7.5 5.9 6q-1.55 3.7-2.35 6.1-.8 2.4-1.75 6.65L0 18.3q.9-4.05 1.9-6.95L3.3 7.5" fill="#a6a6a6" fill-rule="evenodd" transform="translate(0 .85)"/><path d="m13.3 12.05-.4 1.15q-.35 1.3-1.4 1.25l-2.3-.2q-1.2-.35-1.15-1.1l.45-1.5 2.6.4h2.2" fill="red" fill-rule="evenodd" transform="translate(0 .85)"/><path d="M4.4 5.1q1.9-2.4 4.9-3.25-3.6 3.75-4.15 4.7l-.6.9-1.75.9L4.4 5.1" fill="#a6a6a6" fill-rule="evenodd" transform="translate(0 .85)"/><path d="M17.35 0Q12.85.8 10 1.85q-1.8.65-3.35 1.9L5.4 4.85" fill="none" stroke="#a6a6a6" stroke-linecap="round" stroke-linejoin="round" transform="translate(0 .85)"/><path d="M20.9 1.6Q20 .4 19.15.75 9.75 1.7 6.8 5L5.15 7.75" fill="none" stroke="#fff" stroke-linecap="round" stroke-linejoin="round" transform="translate(0 .85)"/></g></defs></svg>