<?xml version="1.0" encoding="UTF-8" standalone="no"?>
<svg xmlns:xlink="http://www.w3.org/1999/xlink" height="40.35px" width="167.05px" xmlns="http://www.w3.org/2000/svg">
  <g transform="matrix(1.0, 0.0, 0.0, 1.0, 89.1, 26.4)">
    <use height="28.3" transform="matrix(1.0, 0.0, 0.0, 1.0, -76.55, -14.5)" width="153.9" xlink:href="#sprite0"/>
    <use height="32.75" transform="matrix(1.0, 0.0, 0.0, 1.0015, -89.1, -26.3881)" width="16.2" xlink:href="#sprite4"/>
    <use height="21.05" id="label" transform="matrix(1.0, 0.0, 0.0, 1.0, -67.9, -10.5)" width="128.8" xlink:href="#text0"/>
  </g>
  <defs>
    <g id="sprite0" transform="matrix(1.0, 0.0, 0.0, 1.0, 0.0, 0.0)">
      <use height="25.0" transform="matrix(1.0, 0.0, 0.0, 1.0018, 0.0, 3.2779)" width="153.9" xlink:href="#sprite1"/>
      <use height="25.0" transform="matrix(1.0, 0.0, 0.0, 1.0018, 0.0, 1.7779)" width="153.9" xlink:href="#sprite1"/>
      <use height="25.0" transform="matrix(1.0, 0.0, 0.0, 1.0018, 0.0, 0.7279)" width="153.9" xlink:href="#sprite2"/>
      <use height="25.0" transform="matrix(1.0, 0.0, 0.0, 1.0018, 0.0, -0.0221)" width="153.9" xlink:href="#sprite2"/>
      <use height="25.0" transform="matrix(1.0, 0.0, 0.0, 1.0018, 0.0, -0.0221)" width="153.9" xlink:href="#sprite1"/>
      <use height="13.25" transform="matrix(1.0, 0.0, 0.0, 1.0018, 2.35, 1.0382)" width="150.0" xlink:href="#sprite3"/>
    </g>
    <g id="sprite1" transform="matrix(1.0, 0.0, 0.0, 1.0, 76.95, 12.5)">
      <use height="25.0" transform="matrix(1.0, 0.0, 0.0, 1.0, -76.95, -12.5)" width="153.9" xlink:href="#shape0"/>
    </g>
    <g id="shape0" transform="matrix(1.0, 0.0, 0.0, 1.0, 76.95, 12.5)">
      <path d="M69.0 -12.5 Q76.9 -12.5 76.95 -4.6 L76.95 4.55 Q76.9 12.45 69.0 12.5 L-69.05 12.5 Q-76.95 12.45 -76.95 4.55 L-76.95 -4.6 Q-76.95 -12.5 -69.05 -12.5 L69.0 -12.5" fill="url(#gradient0)" fill-rule="evenodd" stroke="none"/>
    </g>
    <linearGradient gradientTransform="matrix(0.0, -0.0081, 0.0153, 0.0, 0.8, 9.85)" gradientUnits="userSpaceOnUse" id="gradient0" spreadMethod="pad" x1="-819.2" x2="819.2">
      <stop offset="0.0" stop-color="#b2b2b2" stop-opacity="0.3764706"/>
      <stop offset="1.0" stop-color="#b2b2b2" stop-opacity="0.0"/>
    </linearGradient>
    <g id="sprite2" transform="matrix(1.0, 0.0, 0.0, 1.0, 76.95, 12.5)">
      <use height="25.0" transform="matrix(1.0, 0.0, 0.0, 1.0, -76.95, -12.5)" width="153.9" xlink:href="#shape1"/>
    </g>
    <g id="shape1" transform="matrix(1.0, 0.0, 0.0, 1.0, 76.95, 12.5)">
      <path d="M-69.05 12.5 Q-76.95 12.45 -76.95 4.55 L-76.95 -4.6 Q-76.95 -12.5 -69.05 -12.5 L69.0 -12.5 Q76.9 -12.5 76.95 -4.6 L76.95 4.55 Q76.9 12.45 69.0 12.5 L-69.05 12.5" fill="#a25b1a" fill-rule="evenodd" stroke="none"/>
    </g>
    <g id="sprite3" transform="matrix(1.0, 0.0, 0.0, 1.0, 75.0, 6.65)">
      <use height="13.25" transform="matrix(1.0, 0.0, 0.0, 1.0, -75.0, -6.65)" width="150.0" xlink:href="#shape2"/>
    </g>
    <g id="shape2" transform="matrix(1.0, 0.0, 0.0, 1.0, 75.0, 6.65)">
      <path d="M69.1 -6.65 Q71.55 -6.65 73.3 -4.9 75.0 -3.15 75.0 -0.65 L75.0 0.6 Q75.0 3.1 73.3 4.85 71.55 6.6 69.1 6.6 L-69.1 6.6 Q-71.55 6.6 -73.25 4.85 -75.0 3.1 -75.0 0.6 L-75.0 -0.65 Q-75.0 -3.15 -73.25 -4.9 -71.55 -6.65 -69.1 -6.65 L69.1 -6.65" fill="url(#gradient1)" fill-rule="evenodd" stroke="none"/>
    </g>
    <linearGradient gradientTransform="matrix(0.0, 0.0074, -0.0079, 0.0, 0.05, 0.0)" gradientUnits="userSpaceOnUse" id="gradient1" spreadMethod="pad" x1="-819.2" x2="819.2">
      <stop offset="0.0" stop-color="#ffffff"/>
      <stop offset="1.0" stop-color="#ffffff" stop-opacity="0.0"/>
    </linearGradient>
    <g id="sprite4" transform="matrix(1.0, 0.0, 0.0, 1.0, 8.5, 25.0)">
      <use height="32.75" transform="matrix(1.0, 0.0, 0.0, 1.0, -8.5, -25.0)" width="16.2" xlink:href="#shape3"/>
    </g>
    <g id="shape3" transform="matrix(1.0, 0.0, 0.0, 1.0, 8.5, 25.0)">
      <path d="M-8.2 -2.45 Q-7.45 -5.3 -5.05 -6.9 L-5.05 -16.4 -6.35 -17.9 Q-7.35 -19.6 -6.85 -21.45 -6.35 -23.4 -4.65 -24.35 -2.95 -25.35 -1.05 -24.85 L-1.0 -24.85 Q0.85 -24.35 1.85 -22.6 2.8 -20.95 2.3 -19.05 1.8 -17.15 0.1 -16.15 L-0.05 -16.05 -0.05 -8.45 1.7 -8.15 Q4.9 -7.3 6.6 -4.35 8.25 -1.5 7.4 1.75 6.55 4.95 3.65 6.65 0.75 8.3 -2.5 7.45 -5.7 6.55 -7.4 3.7 -9.05 0.8 -8.2 -2.45" fill="#d3b9a1" fill-rule="evenodd" stroke="none"/>
      <path d="M-4.05 -12.05 L-4.05 -18.3 Q-4.1 -18.95 -3.65 -19.35 -3.2 -19.8 -2.55 -19.8 -1.9 -19.8 -1.45 -19.35 -1.05 -18.95 -1.05 -18.3 L-1.05 -12.05 -4.05 -12.05" fill="url(#gradient2)" fill-rule="evenodd" stroke="none"/>
      <path d="M-4.05 -12.05 L-1.05 -12.05 -1.05 -6.3 Q-1.05 -5.7 -1.45 -5.25 -1.9 -4.8 -2.55 -4.8 -3.2 -4.8 -3.65 -5.25 -4.1 -5.7 -4.05 -6.3 L-4.05 -12.05" fill="url(#gradient3)" fill-rule="evenodd" stroke="none"/>
      <path d="M-5.5 -18.4 Q-6.3 -19.75 -5.9 -21.2 -5.5 -22.7 -4.15 -23.5 -2.8 -24.25 -1.35 -23.85 0.2 -23.5 1.0 -22.15 1.75 -20.8 1.3 -19.3 0.95 -17.8 -0.4 -17.05 -1.75 -16.25 -3.25 -16.65 -4.75 -17.05 -5.5 -18.4" fill="url(#gradient4)" fill-rule="evenodd" stroke="none"/>
      <path d="M-6.5 3.2 Q-8.0 0.65 -7.2 -2.2 -6.45 -5.0 -3.9 -6.45 -1.4 -7.95 1.45 -7.2 4.25 -6.4 5.7 -3.85 7.2 -1.35 6.45 1.5 5.65 4.3 3.15 5.75 0.6 7.2 -2.25 6.45 -5.05 5.7 -6.5 3.2" fill="url(#gradient5)" fill-rule="evenodd" stroke="none"/>
    </g>
    <linearGradient gradientTransform="matrix(-0.0018, 0.0, 0.0, -0.0105, -2.55, -11.2)" gradientUnits="userSpaceOnUse" id="gradient2" spreadMethod="pad" x1="-819.2" x2="819.2">
      <stop offset="0.0" stop-color="#f2caa1"/>
      <stop offset="0.48627450980392156" stop-color="#fed9b4"/>
      <stop offset="1.0" stop-color="#fff7f0"/>
    </linearGradient>
    <linearGradient gradientTransform="matrix(-0.0018, 0.0, 0.0, -0.0105, -2.55, -13.4)" gradientUnits="userSpaceOnUse" id="gradient3" spreadMethod="pad" x1="-819.2" x2="819.2">
      <stop offset="0.0" stop-color="#f2caa1"/>
      <stop offset="0.48627450980392156" stop-color="#fed9b4"/>
      <stop offset="1.0" stop-color="#fff7f0"/>
    </linearGradient>
    <linearGradient gradientTransform="matrix(-0.0015, -0.0025, 0.004, -0.0023, -2.25, -20.25)" gradientUnits="userSpaceOnUse" id="gradient4" spreadMethod="pad" x1="-819.2" x2="819.2">
      <stop offset="0.0" stop-color="#f2caa1"/>
      <stop offset="0.48627450980392156" stop-color="#fed0a1"/>
      <stop offset="1.0" stop-color="#fff7f0"/>
    </linearGradient>
    <linearGradient gradientTransform="matrix(-0.0028, -0.0048, 0.0075, -0.0043, -0.4, -0.35)" gradientUnits="userSpaceOnUse" id="gradient5" spreadMethod="pad" x1="-819.2" x2="819.2">
      <stop offset="0.0" stop-color="#f2caa1"/>
      <stop offset="0.48627450980392156" stop-color="#ffdebd"/>
      <stop offset="1.0" stop-color="#fff7f0"/>
    </linearGradient>
  </defs>
</svg>
