<?xml version="1.0" encoding="UTF-8" standalone="no"?>
<svg
   height="58.65"
   width="49.15"
   version="1.1"
   id="svg15"
   sodipodi:docname="1952.svg"
   inkscape:version="1.1.2 (b8e25be833, 2022-02-05)"
   xmlns:inkscape="http://www.inkscape.org/namespaces/inkscape"
   xmlns:sodipodi="http://sodipodi.sourceforge.net/DTD/sodipodi-0.dtd"
   xmlns="http://www.w3.org/2000/svg"
   xmlns:svg="http://www.w3.org/2000/svg">
  <sodipodi:namedview
     id="namedview17"
     pagecolor="#ffffff"
     bordercolor="#666666"
     borderopacity="1.0"
     inkscape:pageshadow="2"
     inkscape:pageopacity="0.0"
     inkscape:pagecheckerboard="0"
     showgrid="false"
     inkscape:zoom="4"
     inkscape:cx="101.875"
     inkscape:cy="46"
     inkscape:window-width="1920"
     inkscape:window-height="986"
     inkscape:window-x="-11"
     inkscape:window-y="-11"
     inkscape:window-maximized="1"
     inkscape:current-layer="svg15" />
  <defs
     id="defs13">
    <g
       id="a"
       fill-rule="evenodd">
      <path
         d="M-13 9.2q.1-1.45.65-2.65h24.5l.15.35q.6 1.3.7 2.9l-1.1-1.5q-.65-.6-1.55-.65L8.6 7.6H6.85l-1.7.05-1.65.15-1.75.2-1.65.25h-1.7L-3.3 8-5 7.85h-3.25l-1.65.1-1.6.35q-.9.2-1.5.9m26 1.15q0 1.7-.6 3.15l-2.6.5H6.6l-3.2-.5-3.45-1-.05.05-3.45.95-3.45.35-3.15-.55q-1.55-.45-2.65-1.35l-.2-1.7 1.6.65-.1-.25q-.35-.95.55-1.5.6-.5 1.35-.5 2.65.3 1.85 2.6l-.2.3h1.6L-6.4 11l.25.35q.35.3.65 0 .75-.75-.05-1.2l-.45.2-.3.2q.2-.6.8-.65 1.65.05 1.4 1.35 2.1-.55 4-1.75l1.6.7.45-.55q.4-.45.95-.45 1.6.5.85 1.7l5.95.5 3.3-1.05m-3 6.1q-1.6 1.2-3.65 1.25-2.75-.05-4.7-2.2l3.2-.2 3.15.3q1.15.2 2 .85M-1.8 15.3q-1.9 2-4.55 2-2.05 0-3.7-1.2l2.95-.8 3.4-.3 1.9.3m4.05-5.55q-.6.3-.15.85.3.45.7.1.85-.7-.05-1.15l-.5.2M-11.4 10.9q.15.65 1.4.85.65.05 1-.35 1.35-1.65-.8-2.3l-.25.05q-.85.05-1.2.75l-.15 1"
         fill="#3a5887"
         transform="translate(13 -6.55)"
         id="path4" />
      <path
         d="M-13 9.2q.6-.7 1.5-.9l1.6-.35 1.65-.1H-5l1.7.15 1.7.25H.1L1.75 8l1.75-.2 1.65-.15 1.7-.05H8.6l1.75.05q.9.05 1.55.65L13 9.8v.55L9.7 11.4l-5.95-.5q.75-1.2-.85-1.7-.55 0-.95.45l-.45.55-1.6-.7q-1.9 1.2-4 1.75.25-1.3-1.4-1.35-.6.05-.8.65l-.1.45.05.55h-1.6l.2-.3q.8-2.3-1.85-2.6-.75 0-1.35.5-.9.55-.55 1.5l.1.25-1.6-.65V9.2"
         fill="#233750"
         transform="translate(13 -6.55)"
         id="path6" />
      <path
         d="m2.25 9.75.5-.2q.9.45.05 1.15-.4.35-.7-.1-.45-.55.15-.85M-11.4 10.9l.15-1q.35-.7 1.2-.75l.25-.05q2.15.65.8 2.3-.35.4-1 .35-1.25-.2-1.4-.85m5 .1.1-.45.3-.2.45-.2q.8.45.05 1.2-.3.3-.65 0L-6.4 11"
         fill="#8cb3ff"
         transform="translate(13 -6.55)"
         id="path8" />
      <path
         d="m12.4 13.5-1.35 2-1.05.95q-.85-.65-2-.85l-3.15-.3-3.2.2H1.6q-1.2-1.35-1.65-3l3.45 1 3.2.5h3.2l2.6-.5m-12.5-.95q-.5 1.4-1.55 2.55l-.15.2-1.9-.3-3.4.3-2.95.8-1.05-1q-1.25-1.4-1.7-3.15 1.1.9 2.65 1.35l3.15.55 3.45-.35 3.45-.95"
         fill="#5280c4"
         transform="translate(13 -6.55)"
         id="path10" />
    </g>
  </defs>
  <g
     transform="translate(23.5,41.7)"
     id="g55">
    <path
       d="m 16.6,-14.9 q 0,2.7 -1.4,4.75 Q 13.65,-7.85 11,-6.9 8.65,-6 6.35,-6 3.6,-5.95 1.4,-7.6 l -1.5,-1.2 -1.5,1.2 q -2.2,1.65 -4.95,1.6 -2.3,0 -4.65,-0.9 -2.65,-0.95 -4.2,-3.25 -1.4,-2.05 -1.4,-4.75 -0.05,-3.05 1.9,-5.1 l 1.3,-0.5 3.55,-0.35 h 0.4 l 8.55,0.6 h 0.85 v -0.05 l 0.2,0.05 0.25,-0.05 h 0.15 v 0.05 H 0.9 l 8.55,-0.6 h 0.4 l 3.55,0.35 1.3,0.5 q 1.95,2.05 1.9,5.1"
       fill="#00222b"
       fill-rule="evenodd"
       stroke="none"
       id="path19" />
    <path
       d="m -15.1,-14.65 -0.1,-1.6 q -0.05,-1.75 0.7,-3.3 0.3,-0.65 0.95,-0.55 l 13.4,0.4 H -0.05 0 v 0.05 l 10.75,-0.65 q 3.4,0 3.85,1.05 0.45,1.05 0.5,2.55 l -2.65,0.05 -21.1,1.3 -5.7,0.6 -0.75,0.1"
       fill="#3cafcc"
       fill-rule="evenodd"
       stroke="none"
       id="path21" />
    <path
       d="m 13.95,-11 -0.45,0.85 Q 12.95,-9.4 12.2,-8.8 L 12.05,-8.65 11,-8 10.4,-7.65 q -2.35,1.1 -4.95,0.8 L 4.95,-6.7 Q 3.4,-6.7 1.5,-8.35 l -2.05,-1.5 -0.1,0.1 -0.45,0.35 -0.3,0.2 q -0.85,0.6 -1.65,1.15 L -4.7,-7 q -4.2,0.85 -7.6,-1.8 l -0.1,-0.05 -0.05,-0.05 -0.4,-0.35 -0.3,-0.3 -0.8,-1.15 1.65,0.15 2.05,-0.05 4.3,0.25 4,0.2 1,-0.35 h 0.05 l 0.25,0.05 0.25,-0.05 0.2,0.2 h 0.05 v 0.05 l 0.05,0.05 0.05,-0.05 0.35,0.35 0.15,0.1 1.35,0.1 4.05,0.1 H 7.6 L 8.5,-9.65 10.55,-9.8 13.9,-11 h 0.05"
       fill="#ffffff"
       fill-rule="evenodd"
       stroke="none"
       id="path23" />
    <path
       d="m 15.1,-16.7 v 0.45 Q 15,-13.6 14,-11.15 L 13.95,-11 H 13.9 L 10.55,-9.8 8.5,-9.65 7.6,-9.6 H 5.85 L 1.8,-9.7 0.45,-9.8 0.3,-9.9 -0.05,-10.25 -0.1,-10.2 -0.15,-10.25 V -10.3 H -0.2 l -0.2,-0.2 -0.25,0.05 -0.25,-0.05 h -0.05 l -1,0.35 -4,-0.2 -4.3,-0.25 -2.05,0.05 -1.65,-0.15 -0.2,-0.45 q -0.7,-1.7 -0.95,-3.5 l 0.75,-0.1 5.7,-0.6 21.1,-1.3 2.65,-0.05"
       fill="#72c6da"
       fill-rule="evenodd"
       stroke="none"
       id="path25" />
    <path
       d="m 14.5,-16.7 q -4.6,1.65 -9.15,0 -4.75,-1.75 -9.75,-1.5 -5.3,0.3 -10,2.9 -0.15,-1.9 0.55,-2.9 h 0.1 l 1.95,-0.1 0.9,-0.05 14.1,-0.05 10.9,-0.15 q 0.45,0.7 0.4,1.85"
       fill="#97f0ff"
       fill-rule="evenodd"
       stroke="none"
       id="path27" />
    <path
       d="m -12.9,-11.15 1.95,0.7 2.3,0.45 q 3.95,0.55 8,-0.6 -4.15,4.65 -9.55,2 -1.7,-0.85 -2.7,-2.55 m 12.7,0.5 3.9,0.65 3.55,0.1 3.85,-0.7 2.15,-0.8 q -1.45,2.3 -3.95,3.25 -5.25,1.9 -9.5,-2.5"
       fill="#00475a"
       fill-rule="evenodd"
       stroke="none"
       id="path29" />
    <path
       d="m 13.75,-12.65 -1.15,-0.05 -7.95,0.15 -1.15,-0.35 -5,-0.6 -3.55,0.05 -1.15,0.1 -0.6,-0.05 q -1,-0.05 -3.9,1.35 l -1.65,0.3 -0.85,0.1 q -0.8,-1.5 -1.1,-3.15 l -0.1,-0.5 q 4.7,-2.6 10,-2.9 5,-0.25 9.75,1.5 4.55,1.65 9.15,0 v 0.3 l -0.75,3.75"
       fill="#1a8392"
       fill-rule="evenodd"
       stroke="none"
       id="path31" />
    <path
       d="m 14.1,-18.55 -10.9,0.15 -14.1,0.05 -0.9,0.05 -1.95,0.1 h -0.1 q 0.9,-1.4 3.4,-1.1 l 10.55,0.4 9.6,-0.75 0.45,-0.05 1.6,-0.05 q 1.65,0.15 2.35,1.2"
       fill="#ffffff"
       fill-rule="evenodd"
       stroke="none"
       id="path33" />
    <path
       d="m -13.2,-11.65 0.85,-0.1 1.65,-0.3 q 2.9,-1.4 3.9,-1.35 l 0.6,0.05 1.15,-0.1 3.55,-0.05 5,0.6 1.15,0.35 7.95,-0.15 1.15,0.05 -0.3,0.8 -0.15,0.45 h -0.05 l -2.15,0.8 -3.85,0.7 -3.55,-0.1 -3.9,-0.65 -0.45,0.05 q -4.05,1.15 -8,0.6 l -2.3,-0.45 -1.95,-0.7 -0.2,-0.4 -0.1,-0.1"
       fill="#046072"
       fill-rule="evenodd"
       stroke="none"
       id="path35" />
    <path
       d="M 8.6,-8 8.25,-8.5 Q 8.1,-8.8 8.1,-9.2 V -9.5 L 8.15,-10 8.3,-10.05 h 0.5 l 1.45,-0.05 0.25,-0.15 0.2,-0.15 0.25,-0.05 0.85,-0.35 0.15,0.15 0.25,0.4 0.15,0.65 L 12.3,-9.85 10.5,-8.6 8.6,-8"
       fill="#dbffff"
       fill-rule="evenodd"
       stroke="none"
       id="path37" />
    <path
       d="m 12.35,-9.6 v 0.05 0.1 q 0,0.65 -0.6,1.3 -0.7,0.65 -1.65,0.65 H 10.05 L 8.85,-7.8 8.8,-7.85 8.6,-8 l 1.9,-0.6 1.8,-1.25 0.05,0.25"
       fill="#ffffff"
       fill-rule="evenodd"
       stroke="none"
       id="path39" />
    <path
       d="m 8.15,-10 v -0.05 q 0.05,-0.4 0.25,-0.65 l 0.05,-0.05 0.05,-0.05 0.25,-0.25 Q 9.2,-11.5 10.1,-11.5 l 0.5,0.05 q 0.55,0.05 1,0.45 l 0.2,0.2 -0.85,0.35 -0.25,0.05 -0.2,0.15 -0.25,0.15 -1.45,0.05 H 8.3 L 8.15,-10"
       fill="#c5e6e6"
       fill-rule="evenodd"
       stroke="none"
       id="path41" />
    <path
       d="m -9.45,-16.35 v 0.15 -0.15 m -4.75,1.1 -0.2,-1.15 0.45,-1.5 q 0.7,-1.05 2,-1.05 1.45,0 2.1,1.25 l 0.2,0.35 -2.75,1.1 -1.9,0.55 0.1,0.45"
       fill="#dbffff"
       fill-rule="evenodd"
       stroke="none"
       id="path43" />
    <path
       d="m -9.65,-17.35 0.15,0.5 0.05,0.45 v 0.05 0.15 l -0.1,0.5 -0.4,0.85 q -0.75,1 -2,1 -1.3,0 -2,-0.95 l -0.05,-0.1 -0.1,-0.15 -0.1,-0.2 -0.1,-0.45 1.9,-0.55 2.75,-1.1"
       fill="#bad9d9"
       fill-rule="evenodd"
       stroke="none"
       id="path45" />
    <path
       d="m -4.9,-15.7 q 0,0.6 -0.35,1.1 -0.5,0.75 -1.4,0.75 -1.05,0 -1.55,-0.9 l -0.25,-0.95 0.35,-1.1 q 0.5,-0.7 1.45,-0.7 1,0 1.5,0.85 l 0.25,0.95"
       fill="#dbffff"
       fill-rule="evenodd"
       stroke="none"
       id="path47" />
    <path
       d="m -7.9,-12.6 0.1,0.25 -0.1,0.25 -0.35,0.2 q -0.4,0 -0.45,-0.45 l 0.1,-0.3 0.35,-0.15 q 0.25,0 0.35,0.2"
       fill="#dbffff"
       fill-rule="evenodd"
       stroke="none"
       id="path49" />
    <path
       d="m -12,-17.85 0.1,0.65 q 0,1.5 -1.4,1.5 -1.1,0 -1.15,-1.1 0,-1.65 1.6,-1.65 0.65,0 0.85,0.6"
       fill="#ffffff"
       fill-rule="evenodd"
       stroke="none"
       id="path51" />
    <path
       d="m -6.45,-16.25 v 0.55 q 0,1.05 -1,1.05 -1.05,0 -1.05,-0.85 0,-1.25 1.3,-1.25 0.65,0 0.75,0.5"
       fill="#ffffff"
       fill-rule="evenodd"
       stroke="none"
       id="path53" />
  </g>
</svg>
