<svg xmlns="http://www.w3.org/2000/svg" xmlns:xlink="http://www.w3.org/1999/xlink" width="49.15" height="58.65"><use xlink:href="#a" width="27.8" height="15.55" transform="translate(12.95 23.5)"/><defs><g id="a"><path fill="#857445" fill-rule="evenodd" d="M13.8 1.1q4.65.8 9.75 6.4-1.2 2.6-3.6 4.1-2.35 1.5-4.95.45-1.5-.6-2.65-1.45Q10 8.8 10.7 5.9q.65-2.85 3.1-4.8"/><path fill="none" stroke="#665835" stroke-linecap="round" stroke-linejoin="round" d="M13.8 1.1q-2.45 1.95-3.1 4.8-.7 2.9 1.65 4.7 1.15.85 2.65 1.45 2.6 1.05 4.95-.45 2.4-1.5 3.6-4.1-5.1-5.6-9.75-6.4Z"/><path fill="none" stroke="#333" stroke-linecap="round" stroke-linejoin="round" d="m12.95 6.65.8-1.4Q7.5 2.15.5.5m13.25 4.75.15-.3.5-.7m4.45 5.95.8-1.65.4-.6M19.8 9.2q4 2.6 7.5 5.85"/><path fill="none" stroke="#b39f6c" stroke-linecap="round" stroke-linejoin="round" d="m13.8 7.2.8-1.4.15-.3.5-.7"/></g></defs></svg>