<svg xmlns="http://www.w3.org/2000/svg" xmlns:xlink="http://www.w3.org/1999/xlink" width="49.15" height="58.65"><use xlink:href="#a" width="23.1" height="10.55" transform="translate(12.05 26.75)"/><defs><g id="a" fill-rule="evenodd"><path fill="#c24800" d="M4.35 6.75q0 1.6-1.6 1.6t-1.6-1.6q0-1.6 1.6-1.6t1.6 1.6"/><path fill="#c24800" d="M3.6 7.8q0 1.55-1.6 1.55T.4 7.8Q.4 6.2 2 6.2t1.6 1.6"/><path fill="#c24800" d="m.45 7.85 1.15-.5q1.55 0 1.55 1.6t-1.55 1.6q-1.6 0-1.6-1.6l.45-1.1m21.5-1.1q0 1.6-1.6 1.6-1.55 0-1.55-1.6t1.55-1.6q1.6 0 1.6 1.6"/><path fill="#c24800" d="M22.7 7.8q0 1.55-1.6 1.55-1.55 0-1.55-1.55 0-1.6 1.55-1.6 1.6 0 1.6 1.6"/><path fill="#c24800" d="M19.95 8.95q0-1.6 1.55-1.6 1.6 0 1.6 1.6t-1.6 1.6q-1.55 0-1.55-1.6M2.15 0q.3 0 1.45 1.15 1.6 1.25 2.95 1.3L9.5 2.1l1.65.05q1.15.75.5 3.35-.3 1.15-1.65 2.2-1.5 1.15-3.05 1.15-2.1 0-4.05-1.95l-.2-.2-.95-.4Q.8 6 .55 4.7v-.1l.15-.7.05-.05q.3-.4 1-.5L.9 1l.3-.65.05-.05q.4-.4.9-.3m8.5 2.9L9.7 3l-3.2.35Q4.85 3.3 3 1.85L1.95.9 1.9.95 1.8 1l.85 2.05.4.95-.9.2-.6.15-.05.2q.05.3 1 .55 1.05.35 1.3.6l.2.25Q5.45 7.4 6.95 7.4q1.25 0 2.5-1 1.1-.95 1.3-1.8.35-1.4-.1-1.7"/><path fill="#d9f1f1" d="m3.3 3.6-.55-1.15q1.5 1.15 2.5 1.4.25 1.9 2 3.2l-.35.05q-1.25 0-2.6-1.35l-.2-.2q-.45-.45-1.55-.75l-.15-.05q.65-.1.9-.45l.05-.35-.05-.35"/><path fill="#e6b800" d="M3.35 6.75q0 .6-.6.6t-.6-.6q0-.6.6-.6t.6.6"/><path fill="#e6b800" d="M2.6 7.8q0 .55-.6.55t-.6-.55q0-.6.6-.6t.6.6m-.45 1.15q0 .6-.55.6-.6 0-.6-.6t.6-.6q.55 0 .55.6"/><path fill="#f6e201" d="M3.35 6.75q0 .6-.6.6t-.6-.6q0-.6.6-.6t.6.6"/><path fill="#f6e201" d="M2.6 7.8q0 .55-.6.55t-.6-.55q0-.6.6-.6t.6.6m-.45 1.15q0 .6-.55.6-.6 0-.6-.6t.6-.6q.55 0 .55.6M2 .55l1.3 1.1q1.6 1.3 3.2 1.4l3.05-.35 1.3-.05q.7.5.3 2.2-.25 1.05-1.5 2.05Q8.3 8 6.9 8 5.15 8 3.65 6.4l-.2-.25Q3.1 5.9 2.3 5.7 1.05 5.3.95 4.75l.15-.5q.15-.25.95-.35l.35-.1-.2-.4-.9-2.25.2-.35.5-.25m8.4 3.15v-.2l-.65.1-3.3.35L4.3 3.5q-.95.9.15 2.4 1.2 1.2 2.45 1.2 1 0 2.15-.9 1.05-.8 1.2-1.55l.15-.95"/><path fill="#c24800" d="M16.8 3.35 13.6 3l-.95-.1q-.45.3-.1 1.7.2.85 1.3 1.8 1.25 1 2.5 1 1.5 0 2.95-1.45l.2-.25q.35-.3 1.35-.6l1-.55-.05-.2-.6-.15-.95-.2.45-.95.8-2.05-.05-.05-.1-.05-1 .95Q18.4 3.3 16.8 3.35m-4.65-1.2 1.65-.05 2.95.35q1.35-.05 2.95-1.3Q20.85 0 21.2 0q.45-.1.85.3l.05.05.3.65-.85 2.35q.7.1 1 .5l.05.05.2.7-.05.1q-.25 1.35-1.2 1.6l-.95.4-.2.2q-1.8 1.95-4.05 1.95-1.55 0-3-1.15Q12 6.65 11.7 5.5q-.65-2.65.45-3.35"/><path fill="#d9f1f1" d="m20.55 2.45-.5 1.15-.1.35.1.35.85.45-.15.05q-1.1.3-1.5.75l-.25.2Q17.65 7.1 16.4 7.1l-.35-.05q1.75-1.3 2-3.2l2.5-1.4"/><path fill="#f6e201" d="m13.75 2.7 3.1.35q1.6-.1 3.2-1.4l1.3-1.1q.25-.05.45.25l.2.35-.85 2.25-.2.4.3.1q.85.1 1 .35l.1.5q-.1.55-1.35.95l-1.1.45-.25.25Q18.15 8 16.4 8q-1.35 0-2.75-1.1-1.25-1-1.5-2.05-.4-1.7.3-2.2l1.3.05m-.8.8-.05.2.15.95q.2.75 1.25 1.55 1.1.9 2.1.9 1.25 0 2.45-1.2Q20 4.4 19 3.5l-2.15.45-3.3-.35-.6-.1"/><path fill="#e6b800" d="M19.8 6.75q0-.6.55-.6.6 0 .6.6t-.6.6q-.55 0-.55-.6"/><path fill="#e6b800" d="M20.55 7.8q0-.6.55-.6.6 0 .6.6 0 .55-.6.55-.55 0-.55-.55m.4 1.15q0-.6.55-.6.6 0 .6.6t-.6.6q-.55 0-.55-.6"/><path fill="#f6e201" d="M19.8 6.75q0-.6.55-.6.6 0 .6.6t-.6.6q-.55 0-.55-.6"/><path fill="#f6e201" d="M20.55 7.8q0-.6.55-.6.6 0 .6.6 0 .55-.6.55-.55 0-.55-.55m.4 1.15q0-.6.55-.6.6 0 .6.6t-.6.6q-.55 0-.55-.6"/></g></defs></svg>