<svg xmlns:xlink="http://www.w3.org/1999/xlink" height="58.65" width="49.15" xmlns="http://www.w3.org/2000/svg"><use height="10.55" transform="translate(12.05 26.75)" width="23.1" xlink:href="#a"/><defs><g id="a" fill-rule="evenodd"><path d="M-7.7 15.4q0 1.6-1.6 1.6t-1.6-1.6q0-1.6 1.6-1.6t1.6 1.6" fill="#c24800" transform="translate(12.05 -8.65)"/><path d="M-8.45 16.45q0 1.55-1.6 1.55t-1.6-1.55q0-1.6 1.6-1.6t1.6 1.6" fill="#c24800" transform="translate(12.05 -8.65)"/><path d="m-11.6 16.5 1.15-.5q1.55 0 1.55 1.6t-1.55 1.6q-1.6 0-1.6-1.6l.45-1.1m21.5-1.1q0 1.6-1.6 1.6-1.55 0-1.55-1.6t1.55-1.6q1.6 0 1.6 1.6" fill="#c24800" transform="translate(12.05 -8.65)"/><path d="M10.65 16.45q0 1.55-1.6 1.55-1.55 0-1.55-1.55 0-1.6 1.55-1.6 1.6 0 1.6 1.6" fill="#c24800" transform="translate(12.05 -8.65)"/><path d="M7.9 17.6q0-1.6 1.55-1.6 1.6 0 1.6 1.6t-1.6 1.6q-1.55 0-1.55-1.6M-9.9 8.65q.3 0 1.45 1.15 1.6 1.25 2.95 1.3l2.95-.35 1.65.05q1.15.75.5 3.35-.3 1.15-1.65 2.2-1.5 1.15-3.05 1.15-2.1 0-4.05-1.95l-.2-.2-.95-.4q-.95-.3-1.2-1.6v-.1l.15-.7.05-.05q.3-.4 1-.5l-.85-2.35.3-.65.05-.05q.4-.4.9-.3m8.5 2.9-.95.1-3.2.35q-1.65-.05-3.5-1.5l-1.05-.95-.05.05-.1.05.85 2.05.4.95-.9.2-.6.15-.05.2q.05.3 1 .55 1.05.35 1.3.6l.2.25q1.45 1.45 2.95 1.45 1.25 0 2.5-1 1.1-.95 1.3-1.8.35-1.4-.1-1.7" fill="#c24800" transform="translate(12.05 -8.65)"/><path d="m-8.75 12.25-.55-1.15q1.5 1.15 2.5 1.4.25 1.9 2 3.2l-.35.05q-1.25 0-2.6-1.35l-.2-.2q-.45-.45-1.55-.75l-.15-.05q.65-.1.9-.45l.05-.35-.05-.35" fill="#d9f1f1" transform="translate(12.05 -8.65)"/><path d="M-8.7 15.4q0 .6-.6.6t-.6-.6q0-.6.6-.6t.6.6" fill="#e6b800" transform="translate(12.05 -8.65)"/><path d="M-9.45 16.45q0 .55-.6.55t-.6-.55q0-.6.6-.6t.6.6m-.45 1.15q0 .6-.55.6-.6 0-.6-.6t.6-.6q.55 0 .55.6" fill="#e6b800" transform="translate(12.05 -8.65)"/><path d="M-8.7 15.4q0 .6-.6.6t-.6-.6q0-.6.6-.6t.6.6" fill="#f6e201" transform="translate(12.05 -8.65)"/><path d="M-9.45 16.45q0 .55-.6.55t-.6-.55q0-.6.6-.6t.6.6m-.45 1.15q0 .6-.55.6-.6 0-.6-.6t.6-.6q.55 0 .55.6m-.15-8.4 1.3 1.1q1.6 1.3 3.2 1.4l3.05-.35 1.3-.05q.7.5.3 2.2-.25 1.05-1.5 2.05-1.35 1.1-2.75 1.1-1.75 0-3.25-1.6l-.2-.25q-.35-.25-1.15-.45-1.25-.4-1.35-.95l.15-.5q.15-.25.95-.35l.35-.1-.2-.4-.9-2.25.2-.35.5-.25m8.4 3.15v-.2l-.65.1-3.3.35-2.15-.45q-.95.9.15 2.4 1.2 1.2 2.45 1.2 1 0 2.15-.9 1.05-.8 1.2-1.55l.15-.95" fill="#f6e201" transform="translate(12.05 -8.65)"/><path d="m4.75 12-3.2-.35-.95-.1q-.45.3-.1 1.7.2.85 1.3 1.8 1.25 1 2.5 1 1.5 0 2.95-1.45l.2-.25q.35-.3 1.35-.6l1-.55-.05-.2-.6-.15-.95-.2.45-.95.8-2.05-.05-.05-.1-.05-1 .95Q6.35 11.95 4.75 12M.1 10.8l1.65-.05 2.95.35q1.35-.05 2.95-1.3 1.15-1.15 1.5-1.15.45-.1.85.3l.05.05.3.65L9.5 12q.7.1 1 .5l.05.05.2.7-.05.1q-.25 1.35-1.2 1.6l-.95.4-.2.2Q6.55 17.5 4.3 17.5q-1.55 0-3-1.15-1.35-1.05-1.65-2.2Q-1 11.5.1 10.8" fill="#c24800" transform="translate(12.05 -8.65)"/><path d="M8.5 11.1 8 12.25l-.1.35.1.35.85.45-.15.05q-1.1.3-1.5.75l-.25.2q-1.35 1.35-2.6 1.35L4 15.7q1.75-1.3 2-3.2l2.5-1.4" fill="#d9f1f1" transform="translate(12.05 -8.65)"/><path d="m1.7 11.35 3.1.35q1.6-.1 3.2-1.4l1.3-1.1q.25-.05.45.25l.2.35-.85 2.25-.2.4.3.1q.85.1 1 .35l.1.5q-.1.55-1.35.95l-1.1.45-.25.25q-1.5 1.6-3.25 1.6-1.35 0-2.75-1.1-1.25-1-1.5-2.05-.4-1.7.3-2.2l1.3.05m-.8.8-.05.2.15.95q.2.75 1.25 1.55 1.1.9 2.1.9 1.25 0 2.45-1.2 1.15-1.5.15-2.4l-2.15.45-3.3-.35-.6-.1" fill="#f6e201" transform="translate(12.05 -8.65)"/><path d="M7.75 15.4q0-.6.55-.6.6 0 .6.6t-.6.6q-.55 0-.55-.6" fill="#e6b800" transform="translate(12.05 -8.65)"/><path d="M8.5 16.45q0-.6.55-.6.6 0 .6.6 0 .55-.6.55-.55 0-.55-.55m.4 1.15q0-.6.55-.6.6 0 .6.6t-.6.6q-.55 0-.55-.6" fill="#e6b800" transform="translate(12.05 -8.65)"/><path d="M7.75 15.4q0-.6.55-.6.6 0 .6.6t-.6.6q-.55 0-.55-.6" fill="#f6e201" transform="translate(12.05 -8.65)"/><path d="M8.5 16.45q0-.6.55-.6.6 0 .6.6 0 .55-.6.55-.55 0-.55-.55m.4 1.15q0-.6.55-.6.6 0 .6.6t-.6.6q-.55 0-.55-.6" fill="#f6e201" transform="translate(12.05 -8.65)"/></g></defs></svg>