<svg xmlns="http://www.w3.org/2000/svg" xmlns:xlink="http://www.w3.org/1999/xlink" width="49.15" height="58.65"><use xlink:href="#a" width="35.35" height="13.4" transform="translate(6.3 23.05)"/><defs><g id="a"><path fill="#ff6e6e" fill-rule="evenodd" d="m34 1.5-15.85-.05Q19 .5 19.4.5h14.7l-.1 1m-17.45-.05L1 1.4l-.05.4L.8.5l14.85.05.9.9"/><path fill="red" fill-opacity=".6" fill-rule="evenodd" d="m7.55 3.05 5.45.1 4.35 4.6 4.5-4.6 3.3-.05 3.05 7.85-7.6 1.95-3.35-3.95-3.3 3.95-3.55-.95q-1.55-3-2.25-6.4l-.6-2.5m18.95 0 7.35-.15-.75 6.75-3.55.95-3.05-7.55m-17.7 8.5-7-1.9-.75-6.75 4.8.1Q7 7.35 8.8 11.55"/><path fill="#ffc1c1" fill-opacity=".843" fill-rule="evenodd" d="m25.15 3.1 1.35-.05 3.05 7.55-1.35.35-3.05-7.85M10.4 11.95l-1.6-.4Q7 7.35 5.85 3l1.7.05.6 2.5q.7 3.4 2.25 6.4"/><path fill="#a21717" fill-rule="evenodd" d="M34.1 2.9h-.25L34 1.5l.1 1.4M16.55 1.45h1.6l-.75.85-.85-.85M.95 1.8l.1 1.1h-.3l.2-1.1"/><path fill="#a30a0a" fill-rule="evenodd" d="m33.85 2.9-12 .25-4.5 4.6L13 3.15 1.05 2.9l-.1-1.1.05-.4 15.55.05.85.85.75-.85L34 1.5l-.15 1.4"/><path fill="red" fill-rule="evenodd" d="M34.85 1.65 20.9 1.9l-3.55 2.85-3.6-2.85-13.5-.25V.5l15.4.05 1.6 1.25L18.9.55 34.85.5v1.15"/><path fill="none" stroke="#8c0000" stroke-linecap="round" stroke-linejoin="round" d="M33.1 9.65 20.6 12.9l-3.35-3.95-3.3 3.95L1.8 9.65"/><path fill="none" stroke="#ff8585" stroke-linecap="round" stroke-linejoin="round" d="M18.9.55 34.85.5m-17.6 1.3L15.65.55H.5"/><path fill="none" stroke="#ffdbdb" stroke-linecap="round" stroke-linejoin="round" d="M14.1.55h1.75l1.1.85M33.4.5h1.3v1.15"/></g></defs></svg>