<svg xmlns="http://www.w3.org/2000/svg" xmlns:xlink="http://www.w3.org/1999/xlink" width="49.15" height="58.65"><use xlink:href="#a" width="32.8" height="16.1" transform="translate(7.3 21.6)"/><defs><g id="a"><path fill="#706b94" fill-opacity=".302" fill-rule="evenodd" d="m22 16.1-2.65-.35q-2-1.2-3.1-1.1l-2.6.85-3.3.25q-4.5 0-6.25-.7-2.35-.95-2.35-4.25l.1.45 1.3 1.6q1.2 1.05 1.95 1.05l8.5.2q1 0 2.85-1.85 2.45 1.85 3.3 1.85l8-.2q1.6 0 3.1-2.3l-.45 2.15q-1.05 1.7-7.05 2.25l-1.35.1"/><path fill="#fffbe5" fill-rule="evenodd" d="m12.2 2.5-4.7-.1q-2.45 0-2.45 3.3v3.45q0 3.25 3.25 3.25l4.75.1q2.4 0 2.4-3.3V5.75q0-3.25-3.25-3.25M3 .75 16.4.5v11.7l.05.05q-1.85 1.85-2.8 1.85l-8.55-.2q-.75 0-1.95-1.05l-1.3-1.6q-1.1-3.3-1.1-6.5Q.4 3.25.55 2.4.75.75 3 .75"/><path fill="red" fill-opacity=".502" fill-rule="evenodd" d="M8.3 12.4q-3.25 0-3.25-3.25V5.7q0-3.3 2.45-3.3l4.7.1q3.25 0 3.25 3.25V9.2q0 3.3-2.4 3.3l-4.75-.1"/><path fill="#fffbe5" fill-rule="evenodd" d="M32.15 4.75q0 3.05-1.15 6.5l-1.3 1.6q-1.15 1.05-1.95 1.05l-8 .2-3.35-1.9V.5l13.5.25q2.25 0 2.5 1.65l-.25 2.35M20.65 2.5q-3.25 0-3.25 3.25V9.2q0 3.3 2.45 3.3l4.7-.1q3.25 0 3.25-3.25V5.7q0-3.3-2.4-3.3l-4.75.1"/><path fill="#3100ff" fill-opacity=".502" fill-rule="evenodd" d="M17.4 9.2V5.75q0-3.25 3.25-3.25l4.75-.1q2.4 0 2.4 3.3v3.45q0 3.25-3.25 3.25l-4.7.1q-2.45 0-2.45-3.3"/><path fill="none" stroke="#757470" stroke-linecap="round" stroke-linejoin="round" d="M29.9.75 16.5.5 3 .75Q.7.75.5 2.8l.45 3.95.65 3.2q.9 3.95 5.85 3.95l5.9.2q.7 0 3.05-1.9.7 0 3.35 1.9l4.3-.2q3.1 0 4.35-.6 1.5-.75 2.55-3.1L32 7Q33.2.75 29.9.75Z"/></g></defs></svg>