<svg xmlns:xlink="http://www.w3.org/1999/xlink" height="58.65" width="49.15" xmlns="http://www.w3.org/2000/svg"><g transform="translate(24.1 18.1)"><use height="29.95" transform="translate(-15.9 6.4)" width="30.75" xlink:href="#a"/><use height="27.9" transform="matrix(-.7098 0 0 .5786 13.769 -5.722)" width="13.95" xlink:href="#b"/><use height="27.9" transform="matrix(.7098 0 0 .5786 -13.169 -5.772)" width="13.95" xlink:href="#b"/><use height="25.4" transform="translate(-9.7 -3.2)" width="20.25" xlink:href="#c"/></g><defs><g id="a"><path d="M12.85 23.75q-.25 1.75-1.7 2.8l-2.25 1.8-.85.6v.1l-.3.15q.3.55.1 1.4-.4 1.55-2.05 2.05-.1 2-2.2 2.05l-.5-.1q-.5 1.15-1.65 1.7l-.65.05q-1.4-.35-2.05-1.7-2.3.05-3.5-2.1-1.45.05-2.2-1.4l-.15-.8-.45-.7q-6.8-1.75-7.5-8.5-.3-2.7.85-4.85l.55-.35q1.9 1 1.35 3.55-.25 1-.15 2.05.5 3.75 4.3 5 1.55.5 2.55 1.65l1.6 1.5 2 1.5q.85.15 1.3.85l2.55-.1q-2.3.45-4.65-.05l-.95-.25.3.35q.5-.2.95.15 1.1-.3 1.7.7.5.15.55.7v.15l.5.35v.05h.3Q.9 33 1.9 32.45h.45l1.45.1.35-.8.1-.2v-.35l-.4.2.5-2.2q.15-.5.75-.55l.4-.1q.6-1.9 2.45-3.05l.65-.5 1.4-1.05q-.35-2.2 1.2-3.2l.15-.05q1.75.8 1.5 3.05" fill="#24213f" fill-opacity=".251" fill-rule="evenodd" transform="translate(15.9 -6.4)"/><path d="m-2.45 8.8.9.2 3.35.15q1.7-.15 3.1-.7l.85-.8.05-.4V7.2l.75.4.65.4v.05l.7.6.35.35 1.4 1.7 1.15 1.95.85 1.85.6 1.45h.05l.65 3.15q.9.15 1.4 1.05-.75 1.15-1.75 1.05 1.4.3.75 1.4l-1.85-.3q2.05.9 1.6 1.65-.45.75-2.5.3l-.2.95v.05l-.1.2h-.25L8.7 26.8l-.8.6-.7.45v.05l-.95.5.15.5.25.75q.25.65-.25 1.1l-.1-.05q-.4-.1-.65-.35l-.7-.9q.1 1.55-.35 3.15l-.45.4-.35-.2-1.2-1.4.05 1.7q-.2 1.15-1.3 1.6l-.15-.1-.9-1.25-.55-1.45-.1-.65-.1.7q-.05.75-.9.9l-.25-4.45h1.5l-3.85-3.3h-.35l-.7-.75-1.75-1.9v-1.1l3.9-11.4.4-1.15" fill="#fcc" fill-rule="evenodd" transform="translate(15.9 -6.4)"/><path d="M-1.6 28.4h-.05l.25 4.45-.6-.3q-.65-.25-.9-.9l-.55-2.1-.75.55-.5.05-.15-.2-.8-2.1q-2.4-.85-4.3-2.4h-.45l-.25-.3-1-1.2-.1-.1-1.55.25q-.65-.05-.55-.45.2-1.05.85-1.4l-1.35.1q-.7-.75.5-1.4h.05l.25-.15-.3.05q-.85 0-1.55-.5.75-.9 1.95-1.3-.3-2.05.35-3.05l.9-1.5 1.95-2.75 2.05-2.3 1.45-1.3 1.75-1 .45-.25-.05.75q.9.75 2.15 1.15l-.4 1.15-3.9 11.4v1.1l1.75 1.9.7.75h.3l3.85 3.3H-1.6" fill="#ffaeae" fill-rule="evenodd" transform="translate(15.9 -6.4)"/><path d="m-13.8 20.95-.05-.1.3-.05-.25.15" fill="#fff" fill-rule="evenodd" transform="translate(15.9 -6.4)"/><path d="m7.15 8 .75.65.35.35 1.4 1.7 1.15 1.95.85 1.85.6 1.45.7 3.15q.9.15 1.4 1.05-.75 1.15-1.75 1.05 1.4.3.75 1.4l-1.85-.3q2.05.9 1.6 1.65-.45.75-2.5.3l-.2.95q-.25.1-.35.25L8.7 26.8l-.8.6-.8.5-.95.5.15.5.25.75q.25.65-.25 1.1l-.1-.05-.6-.35-.75-.9q.1 1.55-.35 3.15l-.45.4-.35-.2-1.2-1.4.05 1.7q-.2 1.15-1.25 1.6l-.15-.1-.9-1.25-.55-1.45-.1-.65-.1.7q-.05.75-.9.9l-.6-.3q-.65-.25-.9-.9l-.55-2.1-.75.55-.5.05-.15-.2-.8-2.1q-2.4-.85-4.3-2.4l-.45-.35-.25-.2-1.05-1.1-.05.05-1.55.25q-.65-.05-.55-.45.2-1.05.85-1.4l-1.35.1q-.7-.75.5-1.4h.05l.25-.15-.3.05q-.85 0-1.55-.5.75-.9 1.95-1.3-.3-2.05.35-3.05l.9-1.5 1.95-2.75 2.05-2.3 1.45-1.3 1.75-1 .45-.25m17.5 12.2h-.85m-1.5 5.15-1.1-.35m-22.25-5-.7.15m1.75 4.75 1.15-.5" fill="none" stroke="#f66" stroke-linecap="round" stroke-linejoin="round" transform="translate(15.9 -6.4)"/></g><g id="e"><path d="m-6.1-2.85-.3-.6q-.5-4.95 2.3-8.95l.75-1.05q5.25 2.2 6.05 8.1.8 5.85 1.9 9.8l1.85 7.15q-.4.2-1.25.7l-1.05.45q-.6-6.05-2.5-11.7Q.05-3.7-3.1-7.7l-1.6.05q-.75.55-.95 2.35-.2 1.8-.45 2.45" fill="#fcc" fill-rule="evenodd" transform="translate(7 13.95)"/><path d="M-6.1-2.85q.25-.65.45-2.45.2-1.8.95-2.35l1.6-.05q3.15 4 4.75 8.75 1.9 5.65 2.5 11.7l-1.85.7q-2.2-3.2-4-6.9l-4.4-9.4" fill="#fff" fill-rule="evenodd" transform="translate(7 13.95)"/><path d="M2.3 13.45q-2.2-3.2-4-6.9l-4.4-9.4-.3-.6q-.5-4.95 2.3-8.95l.75-1.05q5.25 2.2 6.05 8.1.8 5.85 1.9 9.8l1.85 7.15" fill="none" stroke="#f66" stroke-linecap="round" stroke-linejoin="round" transform="translate(7 13.95)"/></g><g id="c"><path d="M.5-2.65Q2.05-2.9 1.75-1.3q-.15.7-.8.5-1.8-.45-.45-1.85m4.15 2.5q-1.15-1.3.15-2Q6.45-2.3 6.35-.9 6.1.8 4.9.05l-.25-.2m.15 6.1V7.4l-.4.35-.5.2-2.7.3-2.45-.2-.3-.1-1.6-.45-.55-.3V5.6l2.6.9 2.75.15 2.6-.6.55-.1m-8-5.3q-.55.3-1.1-.55-.95-1.4.75-1.6 1.4.65.35 2.15" fill="#f60" fill-rule="evenodd" transform="translate(9.7 3.2)"/><path d="m4.65-.15.25.2L4.8 0l-.15-.15" fill="#f90" fill-rule="evenodd" transform="translate(9.7 3.2)"/><path d="m4.9.05-.05 3.4q-.1 1.25-.05 2.5l-.55.1-2.6.6-2.75-.15-2.6-.9V2.55q-.1-1.3.5-1.9 1.3.65 2.05 1.85l.6 1.75Q-.4 1.6.6.2l.25-.5Q1.65.9 2.1 4.25 2.6.95 4.35 0l.3-.15.15.15.1.05M4.8 7.4v.55l-.05.35-.7.7-2.55.6-2.75-.15-.7-.2q-1.05-.3-1.8-.95v-.6l.05-.5.55.3 1.6.45.3.1 2.45.2 2.7-.3.5-.2.4-.35" fill="url(#d)" fill-rule="evenodd" transform="translate(9.7 3.2)"/><path d="M.5-2.65Q-.85-1.25.95-.8q.65.2.8-.5.3-1.6-1.25-1.35m4.15 2.5q-1.15-1.3.15-2Q6.45-2.3 6.35-.9 6.1.8 4.9.05l-.05 3.4q-.1 1.25-.05 2.5v2l-.05.35-.7.7-2.55.6-2.75-.15-.7-.2q-1.05-.3-1.8-.95v-.6l.05-.5V2.55q-.1-1.3.5-1.9-.55.3-1.1-.55-.95-1.4.75-1.6 1.4.65.35 2.15 1.3.65 2.05 1.85l.6 1.75Q-.4 1.6.6.2l.25-.5Q1.65.9 2.1 4.25 2.6.95 4.35 0l.3-.15.15.15.1.05" fill="none" stroke="#c46200" stroke-linecap="round" stroke-linejoin="round" transform="translate(9.7 3.2)"/><path d="m3.75 15.95-2.9-.4-3.25.3-1.45-.15q0-.5 1.3-1.45l.65-.4q1.1-.55 2.45-.6 1.4 0 2.45.6l.6.4q1.3.95 1.3 1.5 0 .45-1.15.2" fill="#ffa1cc" fill-rule="evenodd" transform="translate(9.7 3.2)"/><path d="m.35 20.4-1.9-2.45q1.55-.55 4.1 0L.35 20.4" fill="#c00" fill-rule="evenodd" transform="translate(9.7 3.2)"/><path d="m8.1 16.25 1.9-.5M8.1 17.4l1.95-.5m-9.7 4.7v-1.2m-7.6-4.55-1.95-.5m1.95 1.6-1.95-.45" fill="none" stroke="#f66" stroke-linecap="round" stroke-linejoin="round" transform="translate(9.7 3.2)"/><path d="m.35 21.6.85.1h2.1q1.3-.15 2.55-.85 1.2-.7 3.4-1.65m-17.85-.45q2.2.95 3.35 1.7 1.15.7 2.5 1.1l2.2.15.9-.1m1.8-6.8.85-.95q1.25-1.25 2.5-1.15 1.6.1 2.4 1.4m-9 .65-.8-.9q-1.3-1.3-2.55-1.2-1.65.1-2.45 1.4" fill="none" stroke="#bb4851" stroke-linecap="round" stroke-linejoin="round" transform="translate(9.7 3.2)"/></g><linearGradient gradientTransform="matrix(.0053 0 0 .0042 .6 3.15)" gradientUnits="userSpaceOnUse" id="d" spreadMethod="pad" x1="-819.2" x2="819.2"><stop offset="0" stop-color="#f90"/><stop offset=".475" stop-color="#ff3"/><stop offset="1" stop-color="#f90"/></linearGradient><use height="27.9" width="13.95" xlink:href="#e" id="b"/></defs></svg>