<svg xmlns:xlink="http://www.w3.org/1999/xlink" height="58.65" width="49.15" xmlns="http://www.w3.org/2000/svg"><use height="33.7" transform="translate(8.15 15.6)" width="32" xlink:href="#a"/><defs><g id="a"><path d="M14.9 24.2q.5.55-.25 1.4l-1 .95q-2.55 1.35-5.25 2.5L2.55 31.2l-6.05-.15-4.8-1.95-3.2-1.5-1.6-1q-1.65-1.3-2.4-3.5l-.1-.8.05-.15-.05-.25-.05-.05q-.7-1.6.3-2.95l.3-.15q1.05.35.5 1.4l-.05.35.35 1.15.05.15.55 1.1q.25.45.15.95.55.25.3.7l.7.75q.35-.05.65.3l.55.55.6.25.45.15 5.15 1.65 5.5.85 1.35.2q2.7-.6 5.2-1.65 1.35-.65 2.85-1.05 1.5-.5 2.8-1.6 1.4-1.2 1.65-2.95-.25-.75.45-.95l.1-.05q1.15.45.7 1.75l-.6 1.45" fill="#282639" fill-opacity=".302" fill-rule="evenodd" transform="translate(15.95 2.5)"/><path d="M9.3-1.3q1.55-1.1 2.95-.45 1.4.65 1.65 2.5l.7 6.9q.25 2.45-1.5 4.2t-3.55.95L3.2 9.95q-1.85-.85-1.6-3.3.15-2.55 2.1-3.9L9.3-1.3" fill="#faf8ed" fill-rule="evenodd" transform="translate(15.95 2.5)"/><path d="M4.35 6.1Q4 5.2 7.15 3 10.3.85 11.1 1.2q.8.35 1.25 4.15Q12.8 9.2 12 9.5q-.8.3-4.05-1.1Q4.7 7 4.35 6.1" fill="#ff8282" fill-rule="evenodd" transform="translate(15.95 2.5)"/><path d="m-10-1.3 5.6 4.05q2 1.4 2.15 3.9.15 2.5-1.65 3.3l-6.35 2.85q-1.75.8-3.55-.95-1.75-1.85-1.5-4.2l.7-6.9q.25-1.85 1.65-2.5 1.4-.65 2.95.45" fill="#faf8ed" fill-rule="evenodd" transform="translate(15.95 2.5)"/><path d="M-5 6.1q-.35.9-3.6 2.3t-4.1 1.1q-.75-.3-.35-4.15.45-3.8 1.25-4.15.85-.35 3.95 1.8Q-4.7 5.15-5 6.1" fill="#ff8282" fill-rule="evenodd" transform="translate(15.95 2.5)"/><path d="M.25 4.05h3.8q3.1 0 6.75 2.9 4.75 3.7 4.75 9.6 0 9.8-7.8 10.55-1.65.15-3.9 1.35-2.1 1.1-3.6 1.1H.2q-1.55 0-3.6-1.1-2.25-1.2-3.9-1.35-7.85-.75-7.85-10.55 0-5.9 4.75-9.6 3.65-2.9 6.75-2.9H.2v.25l.05-.25" fill="#faf8ed" fill-rule="evenodd" transform="translate(15.95 2.5)"/><path d="M9.3-1.3 3.7 2.75l-1.2 1.3H.25L.2 4.3v-.25h-3.35l-1.25-1.3L-10-1.3q-1.55-1.1-2.95-.45-1.4.65-1.65 2.5l-.7 6.9q-.25 2.1 1.25 3.85-1.1 2.3-1.1 5.05 0 9.8 7.85 10.55 1.65.15 3.9 1.35 2.05 1.1 3.6 1.1h.05q1.5 0 3.6-1.1 2.25-1.2 3.9-1.35 7.8-.75 7.8-10.55 0-3.3-1.55-6 .75-1.35.6-2.9l-.7-6.9q-.25-1.85-1.65-2.5-1.4-.65-2.95.45Z" fill="none" stroke="#6b6a66" stroke-linecap="round" stroke-linejoin="round" transform="translate(15.95 2.5)"/><path d="M.1 17h.3l.45.05H.9l.1.05 1.05.5q.6.45-.2 1.55Q1.1 20.2.3 20.2H.25q-.8 0-1.6-1.05-.8-1.1-.2-1.55.45-.35 1.1-.5l.1-.05h.05L.1 17" fill="red" fill-rule="evenodd" transform="translate(15.95 2.5)"/><path d="M.1 19.3v3.75m0-.4.45.65q.6.6 1.6.6 1.6 0 2.1-.75m-8.45-.5.45.65q.6.6 1.6.6 1.65 0 2.1-.75" fill="none" stroke="red" stroke-linecap="round" stroke-linejoin="round" transform="translate(15.95 2.5)"/><path d="M5.4 24.45Q3.65 27.3-.05 27.3T-5 24.2q1.65 2 5.05 2t5.35-1.75M.3 14.4q3.55 0 5.45 3.5Q3 15.95.25 15.95q-1.75 0-3.75 1.05l-1.65 1.05Q-3.25 14.4.3 14.4" fill="#e0ca63" fill-rule="evenodd" transform="translate(15.95 2.5)"/><path d="m1.15 15.4 1.4-2.85q.5 0 0 3.25l-1.4-.4" fill="#e0ca63" fill-rule="evenodd" transform="translate(15.95 2.5)"/><path d="M12.35 18.35q0 2.35-2.35 2.35t-2.35-2.35Q7.65 16 10 16t2.35 2.35m-19.85 0q0 2.35-2.35 2.35t-2.35-2.35q0-2.35 2.35-2.35t2.35 2.35" fill="#ffc7d8" fill-rule="evenodd" transform="translate(15.95 2.5)"/><path d="M11.5 18.35q0 1.5-1.5 1.5t-1.5-1.5q0-1.5 1.5-1.5t1.5 1.5m-19.9.1q0 1.5-1.5 1.5t-1.5-1.5q0-1.5 1.5-1.5t1.5 1.5" fill="#ff7dcb" fill-rule="evenodd" transform="translate(15.95 2.5)"/><path d="m20.1 20.2 5.45-2.35M21 22.25l5.8-1.3m-5.3 3.4 5.45 1.25m-14.9-5.4L6.6 17.85m4.7 4.4-5.95-1.3m5.35 3.4L5.25 25.6" fill="none" stroke="#000" stroke-linecap="round" stroke-linejoin="round" stroke-width=".5"/><path d="M6 9.25Q5 9.1 5.05 7.7q0-1.35.6-1.7Q9.1 9.7 6 9.25M-6.15 9.2q-3.15.9-.15-3.25.7.25.85 1.55.2 1.4-.7 1.7" fill="#ffabab" fill-rule="evenodd" transform="translate(15.95 2.5)"/><path d="m4.15 13.8 1.15-1.6q1.45-1.55 2.8-1.35 2.25.3 3.65 3.35m-14.85-.4q-1.75-3.25-3.95-2.95-2.25.3-3.65 3.35" fill="none" stroke="#000" stroke-linecap="round" stroke-linejoin="round" transform="translate(15.95 2.5)"/></g></defs></svg>