<svg xmlns="http://www.w3.org/2000/svg" xmlns:xlink="http://www.w3.org/1999/xlink" width="49.15" height="58.65"><use xlink:href="#a" width="32" height="33.7" transform="translate(8.15 15.6)"/><defs><g id="a"><path fill="#282639" fill-opacity=".302" fill-rule="evenodd" d="M30.85 26.7q.5.55-.25 1.4l-1 .95q-2.55 1.35-5.25 2.5L18.5 33.7l-6.05-.15-4.8-1.95-3.2-1.5-1.6-1Q1.2 27.8.45 25.6l-.1-.8.05-.15-.05-.25-.05-.05q-.7-1.6.3-2.95l.3-.15q1.05.35.5 1.4l-.05.35.35 1.15.05.15.55 1.1q.25.45.15.95.55.25.3.7l.7.75q.35-.05.65.3l.55.55.6.25.45.15 5.15 1.65 5.5.85 1.35.2q2.7-.6 5.2-1.65 1.35-.65 2.85-1.05 1.5-.5 2.8-1.6 1.4-1.2 1.65-2.95-.25-.75.45-.95l.1-.05q1.15.45.7 1.75l-.6 1.45"/><path fill="#faf8ed" fill-rule="evenodd" d="M25.25 1.2Q26.8.1 28.2.75q1.4.65 1.65 2.5l.7 6.9q.25 2.45-1.5 4.2t-3.55.95l-6.35-2.85q-1.85-.85-1.6-3.3.15-2.55 2.1-3.9l5.6-4.05"/><path fill="#ff8282" fill-rule="evenodd" d="M20.3 8.6q-.35-.9 2.8-3.1 3.15-2.15 3.95-1.8.8.35 1.25 4.15.45 3.85-.35 4.15-.8.3-4.05-1.1-3.25-1.4-3.6-2.3"/><path fill="#faf8ed" fill-rule="evenodd" d="m5.95 1.2 5.6 4.05q2 1.4 2.15 3.9.15 2.5-1.65 3.3L5.7 15.3q-1.75.8-3.55-.95Q.4 12.5.65 10.15l.7-6.9Q1.6 1.4 3 .75 4.4.1 5.95 1.2"/><path fill="#ff8282" fill-rule="evenodd" d="M10.95 8.6q-.35.9-3.6 2.3T3.25 12q-.75-.3-.35-4.15.45-3.8 1.25-4.15Q5 3.35 8.1 5.5q3.15 2.15 2.85 3.1"/><path fill="#faf8ed" fill-rule="evenodd" d="M16.2 6.55H20q3.1 0 6.75 2.9 4.75 3.7 4.75 9.6 0 9.8-7.8 10.55-1.65.15-3.9 1.35-2.1 1.1-3.6 1.1h-.05q-1.55 0-3.6-1.1-2.25-1.2-3.9-1.35Q.8 28.85.8 19.05q0-5.9 4.75-9.6 3.65-2.9 6.75-2.9h3.85v.25l.05-.25"/><path fill="none" stroke="#6b6a66" stroke-linecap="round" stroke-linejoin="round" d="m25.25 1.2-5.6 4.05-1.2 1.3H16.2l-.05.25v-.25H12.8l-1.25-1.3-5.6-4.05Q4.4.1 3 .75q-1.4.65-1.65 2.5l-.7 6.9Q.4 12.25 1.9 14 .8 16.3.8 19.05q0 9.8 7.85 10.55 1.65.15 3.9 1.35 2.05 1.1 3.6 1.1h.05q1.5 0 3.6-1.1 2.25-1.2 3.9-1.35 7.8-.75 7.8-10.55 0-3.3-1.55-6 .75-1.35.6-2.9l-.7-6.9Q29.6 1.4 28.2.75q-1.4-.65-2.95.45Z"/><path fill="red" fill-rule="evenodd" d="M16.05 19.5h.3l.45.05h.05l.1.05 1.05.5q.6.45-.2 1.55-.75 1.05-1.55 1.05h-.05q-.8 0-1.6-1.05-.8-1.1-.2-1.55.45-.35 1.1-.5l.1-.05h.05l.4-.05"/><path fill="none" stroke="red" stroke-linecap="round" stroke-linejoin="round" d="M16.05 21.8v3.75m0-.4.45.65q.6.6 1.6.6 1.6 0 2.1-.75m-8.45-.5.45.65q.6.6 1.6.6 1.65 0 2.1-.75"/><path fill="#e0ca63" fill-rule="evenodd" d="M21.35 26.95Q19.6 29.8 15.9 29.8t-4.95-3.1q1.65 2 5.05 2t5.35-1.75m-5.1-10.05q3.55 0 5.45 3.5-2.75-1.95-5.5-1.95-1.75 0-3.75 1.05l-1.65 1.05q1.9-3.65 5.45-3.65"/><path fill="#e0ca63" fill-rule="evenodd" d="m17.1 17.9 1.4-2.85q.5 0 0 3.25l-1.4-.4"/><path fill="#ffc7d8" fill-rule="evenodd" d="M28.3 20.85q0 2.35-2.35 2.35t-2.35-2.35q0-2.35 2.35-2.35t2.35 2.35m-19.85 0q0 2.35-2.35 2.35t-2.35-2.35q0-2.35 2.35-2.35t2.35 2.35"/><path fill="#ff7dcb" fill-rule="evenodd" d="M27.45 20.85q0 1.5-1.5 1.5t-1.5-1.5q0-1.5 1.5-1.5t1.5 1.5m-19.9.1q0 1.5-1.5 1.5t-1.5-1.5q0-1.5 1.5-1.5t1.5 1.5"/><path fill="none" stroke="#000" stroke-linecap="round" stroke-linejoin="round" stroke-width=".5" d="m20.1 20.2 5.45-2.35M21 22.25l5.8-1.3m-5.3 3.4 5.45 1.25m-14.9-5.4L6.6 17.85m4.7 4.4-5.95-1.3m5.35 3.4L5.25 25.6"/><path fill="#ffabab" fill-rule="evenodd" d="M21.95 11.75q-1-.15-.95-1.55 0-1.35.6-1.7 3.45 3.7.35 3.25M9.8 11.7q-3.15.9-.15-3.25.7.25.85 1.55.2 1.4-.7 1.7"/><path fill="none" stroke="#000" stroke-linecap="round" stroke-linejoin="round" d="m20.1 16.3 1.15-1.6q1.45-1.55 2.8-1.35 2.25.3 3.65 3.35m-14.85-.4q-1.75-3.25-3.95-2.95-2.25.3-3.65 3.35"/></g></defs></svg>