<svg xmlns:xlink="http://www.w3.org/1999/xlink" height="58.65" width="49.15" xmlns="http://www.w3.org/2000/svg"><g transform="translate(24.1 18.1)"><use height="9.4" transform="translate(-14.7 7.8)" width="29.4" xlink:href="#a"/><use height="4.65" transform="translate(-10.95 10.25)" width="21.9" xlink:href="#b"/></g><defs><g id="c" fill-rule="evenodd"><path d="M6.85 5q-.25.75-1.9 1.05L1.9 6Q-.45 5.5.1 3.55q.65-1.9 3-1.4 1.5.3 2.7 1.2 1.3.9 1.05 1.65m15.7 0q-.2-.75 1.05-1.65 1.25-.9 2.7-1.2 2.35-.5 3 1.4.55 1.95-1.8 2.45l-3.05.05q-1.65-.3-1.9-1.05" fill="#454545" transform="translate(0 -.15)"/><path d="M27.5 2.6q.85 2.15-3.1 5.35-4.35 1.05-6.65.55-1-.2-2.1-1l-.95-.8q-1.1 1.4-3.05 1.8Q9.35 9 5 7.95 1.05 4.75 1.9 2.6q.45-1.15 4.8-1.55l6.8.3q.95 1.3 1.2 1.25l1.25-1.25 6.8-.3q4.35.4 4.75 1.55" fill="#454545" transform="translate(0 -.15)"/><path d="m24.8 8.8-.2.05-7 .55q-1.3-.25-2.85-1.45-1.4 1.2-2.95 1.45-2.45.5-7-.55l-.2-.05-.15-.15q-1.1-.8-2.3-2.5-1.7-2.4-1.1-3.9Q1.7.55 6.6.15l7.1.3.3.05.7 1.05.65-1 .35-.1 7.1-.3q4.95.4 5.55 2.1.6 1.5-1.1 3.9-1.15 1.7-2.3 2.5l-.15.15m-.85-1.7q2.75-2.3 2.75-3.95v-.2q-.55-.65-4.05-.95l-6.2.2-.15.25q-.55.9-1.45 1.05-1.05.2-1.75-1.05l-.15-.25-6.15-.25q-3.55.35-4.05.95l-.05.2q0 1.6 2.75 4 3.9.95 6 .5 1.6-.3 2.55-1.45l.65-.8.7.75 2.6 1.5q2.1.45 6-.5" fill="#454545" transform="translate(0 -.15)"/><path d="m24.4 8-6.65.5q-1.65-.05-2.9-1.45l11.8-1.4L24.4 8" fill="#d5d5d5" transform="translate(0 -.15)"/><path d="m15.95 1.35 6.8-.3q4.35.4 4.75 1.55.2.35 0 1.1-5.5-2-11.65-2.25l.1-.1" fill="#fff" transform="translate(0 -.15)"/><path d="M26.6 5.85 15 7.2l-.3-.5-.15.5q-3.95.3-10.4 0l-1.8-2.5q4.6-3 11.2-3.25.85 1.2 1.15 1.15l1.15-1.15Q22 1.7 27.5 3.7q-.35 1.35-.9 2.15" fill="#ececec" transform="translate(0 -.15)"/><path d="M13.55 1.45q-6.6.25-11.2 3.25l-.5-1.3 4.6-2.3 7.05.25.05.1" fill="#d5d5d5" transform="translate(0 -.15)"/><path d="M1.95 2.5q.45-1.05 4.6-1.4-3.1 1.65-4.7 2.3l.1-.9" fill="#fff" transform="translate(0 -.15)"/><path d="M14.5 7.1q-.9 1.1-2.85 1.4Q9.25 8.95 5 8l-.85-.8q4.95.2 10.35-.1" fill="#d5d5d5" transform="translate(0 -.15)"/><path d="M12.9 2.9q1.45.6 1 2.15-.4 1.25-1.45 2.1-.7.6-3.3.5l-3.3-.4q-1.45-.4-2.05-3.4-.35-1.4 4.1-1.4l5 .45m3.6 0 5-.45q4.45 0 4.1 1.4-.6 3-2.05 3.4l-3.3.4q-2.6.1-3.3-.5-1.05-.85-1.45-2.1-.45-1.55 1-2.15" transform="translate(0 -.15)"/><path d="m5.6 1.85 1.55-.2.1.55-1.55.3-.1-.65m2.3-.3 1.5-.05.05.65H7.9v-.6m2.25.65.05-.6 1.5.15v.6l-1.55-.15m12.8-.15.15-.6 1.5.25-.1.6-1.55-.25m-2.2-.1.05-.6h1.5v.6h-1.55m-2.25-.4L20 1.4l.1.65-1.6.1v-.6M9.6 7.7l2.55-.2q.7.35.15.55l-2.75.25.05-.6m6.7-.2.3-.5q1.2.8 1.6.8v.6q-1.2 0-1.9-.9" fill="#797979" transform="translate(0 -.15)"/><path d="M3.4 1.55 8.85.7q1.4-.05 1.3.85l-4.8.35-1.55.45-.4-.8m12.25-.1q.4-.4 3.15-.5l.3.5-2.75.65V2l-.9.1.2-.65" fill="#fff" transform="translate(0 -.15)"/><path d="M3 3.55q0 .75-.35.75-.4 0-.4-.75t.4-.75q.35 0 .35.75m24.05 0q0 .75-.35.75-.4 0-.4-.75t.4-.75q.35 0 .35.75" fill="#797979" transform="translate(0 -.15)"/></g><g id="b" fill-rule="evenodd"><path d="M-2.25 10.7q2.65 1-.4 3.55-1.55 1.25-6.3.05-1.45-.45-1.95-2.75-.35-1.3 3.9-1.3l4.75.45" fill="#00a0fa" transform="translate(10.95 -10.25)"/><path d="M-5.7 10.65q1.15.35-2.45.95-.25 1.5-.8 1.4-.85-.15-1.2-1.5-.3-.65 1.95-.8l2.5-.05" fill="#fff" transform="translate(10.95 -10.25)"/><path d="M-1.7 12.8q-.35.85-1.15 1.45-.6.5-3.3.4l.95-.9q1.8-.25 3.5-.95" fill="#002f90" transform="translate(10.95 -10.25)"/><path d="M-9.5 13.75q2.35.35 4.3 0l-.95.9-2.6-.35q-.45-.05-.75-.55" fill="#005ad2" transform="translate(10.95 -10.25)"/><path d="M2.15 10.7 7 10.25q4.25 0 3.9 1.3-.5 2.3-1.95 2.75-4.75 1.2-6.4-.05-3-2.55-.4-3.55" fill="#00a0fa" transform="translate(10.95 -10.25)"/><path d="m2.3 13-.15-.1Q.55 11.65 2 11.1l2.95-.15L2.3 13" fill="#fff" transform="translate(10.95 -10.25)"/><path d="M10.3 11.7q-.5 2.45-1.8 2.8l-1.4.2 2.05-3.95q1.35.25 1.15.95" fill="#002f90" transform="translate(10.95 -10.25)"/><path d="M2.9 14.55q3-1.6 5.1-3.95l1.15.15L7.1 14.7l-4.2-.15" fill="#005ad2" transform="translate(10.95 -10.25)"/></g><use height="9.4" width="29.4" xlink:href="#c" id="a"/></defs></svg>