<svg xmlns:xlink="http://www.w3.org/1999/xlink" height="58.65" width="49.15" xmlns="http://www.w3.org/2000/svg"><use height="4.8" transform="translate(11.2 32.95)" width="25" xlink:href="#a"/><defs><g id="a" fill-rule="evenodd"><path d="M-12.75 17.2q-.7-2.4 1.65-2.35 3.15.15 3.6 1.95.25.85-.5 1.8-.8 1-1.75 1.05-2.25 0-3-2.45" fill="#fff" transform="translate(12.9 -14.85)"/><path d="M-7.5 16.8v.75q-3.2-1.6-5.15-2 .4-.7 1.55-.7 3.15.15 3.6 1.95m-5.3.05 4.15 2.4-1.1.4q-2.65 0-3.05-2.8" fill="#3ba6db" transform="translate(12.9 -14.85)"/><path d="M10.25 14.85q2.4-.05 1.65 2.35-.7 2.45-3 2.45-.95-.05-1.7-1.05-.75-.95-.5-1.8.45-1.8 3.55-1.95" fill="#fff" transform="translate(12.9 -14.85)"/><path d="M6.7 16.8q.45-1.8 3.55-1.95 1.15 0 1.6.7-2.15.45-5.15 2v-.75m5.3.05q-.5 2.8-3.1 2.8l-1.05-.4 4.15-2.4" fill="#3ba6db" transform="translate(12.9 -14.85)"/></g></defs></svg>