<svg xmlns="http://www.w3.org/2000/svg" xmlns:xlink="http://www.w3.org/1999/xlink" width="49.15" height="58.65"><use xlink:href="#a" width="25.15" height="4.8" transform="translate(11.1 32.4)"/><defs><g id="a" fill-rule="evenodd"><path fill="#fff" d="M.15 2.35Q-.55-.05 1.8 0q3.15.15 3.6 1.95.25.85-.55 1.8-.75 1-1.7 1.05-2.25 0-3-2.45"/><path fill="#0004ff" d="m1.8 0 .65.1-1.9 3.15q-.7-1.2-.4-2.2Q.45-.05 1.8 0"/><path fill="red" d="M5.4 1.95q.25.85-.55 1.8-.75 1-1.7 1.05l-.45-.05L4.4.85q.8.5 1 1.1"/><path fill="#fff" d="M.15 2.35Q-.55-.05 1.8 0q3.15.15 3.6 1.95.25.85-.55 1.8-.75 1-1.7 1.05-2.25 0-3-2.45"/><path fill="#00bf49" d="m1.8 0 .65.1-1.9 3.15q-.7-1.2-.4-2.2Q.45-.05 1.8 0"/><path fill="red" d="M5.4 1.95q.25.85-.55 1.8-.75 1-1.7 1.05l-.45-.05L4.4.85q.8.5 1 1.1"/><path fill="#fff" d="M23.25 0q2.45-.05 1.7 2.35-.75 2.45-3 2.45-.95-.05-1.7-1.05-.8-.95-.55-1.8.45-1.8 3.55-1.95"/><path fill="red" d="M23.25 0Q24.7-.05 25 1.05q.3 1-.45 2.2L22.65.1l.6-.1"/><path fill="#00bf49" d="M19.7 1.95q.15-.6 1-1.1l1.65 3.9-.4.05q-.95-.05-1.7-1.05-.8-.95-.55-1.8"/></g></defs></svg>