<svg xmlns="http://www.w3.org/2000/svg" xmlns:xlink="http://www.w3.org/1999/xlink" width="49.15" height="58.65"><use xlink:href="#a" width="25" height="4.8" transform="translate(11.1 32.8)"/><defs><g id="a" fill-rule="evenodd"><path fill="red" d="M.15 2.35Q-.55-.05 1.8 0q3.15.15 3.6 1.95.25.85-.5 1.8-.8 1-1.75 1.05-2.25 0-3-2.45"/><path d="M5.4 1.95v.75Q2.2 1.1.25.7.65 0 1.8 0q3.15.15 3.6 1.95"/><path fill="#fbff00" d="M.1 2q3.05 1.9 4.15 2.4-.6.35-1.1.4Q.5 4.8.1 2"/><path fill="red" d="M23.15 0q2.4-.05 1.65 2.35-.7 2.45-3 2.45-.95-.05-1.7-1.05-.75-.95-.5-1.8.45-1.8 3.55-1.95"/><path d="M19.6 1.95Q20.05.15 23.15 0q1.15 0 1.6.7-2.15.45-5.15 2v-.75"/><path fill="#fbff00" d="M24.9 2q-.5 2.8-3.1 2.8l-1.05-.4L24.9 2"/></g></defs></svg>