<svg xmlns="http://www.w3.org/2000/svg" xmlns:xlink="http://www.w3.org/1999/xlink" width="49.15" height="58.65"><use xlink:href="#a" width="26.1" height="4.9" transform="translate(10.7 32.85)"/><defs><g id="a"><path fill="#fff" fill-rule="evenodd" d="M23.8.05Q26.2 0 25.45 2.4q-.7 2.45-3 2.4-.95 0-1.7-1t-.5-1.85q.2-.75 1.5-1.35Q22.9.05 23.8.05"/><path fill="none" stroke="red" stroke-linecap="round" stroke-linejoin="round" d="m22.35.5 1.5 3.9m1.75-3.25-4.75 2.1"/><path fill="#fff" fill-rule="evenodd" d="M2.25.05q.9 0 2.05.55 1.3.6 1.55 1.35.25.85-.55 1.85-.75 1-1.7 1-2.25.05-3-2.4Q-.15 0 2.25.05"/><path fill="none" stroke="red" stroke-linecap="round" stroke-linejoin="round" d="m3.75.5-1.5 3.9M.5 1.15l4.75 2.1"/></g></defs></svg>