<svg xmlns:xlink="http://www.w3.org/1999/xlink" height="58.65" width="49.15" xmlns="http://www.w3.org/2000/svg"><g transform="translate(24.1 18.1)"><use height="11.5" transform="translate(-14.15 -.65)" width="27.8" xlink:href="#a"/><use height="4.55" transform="translate(-11.45 .75)" width="22.7" xlink:href="#b"/></g><defs><g id="c" fill-rule="evenodd"><path d="M5.65 5.2q.45.85-.4 2.7-.8 1.75-1.95 2.9-1.85 1.85-2.95-.3-1-2.2.85-4.05 1.15-1.15 2.55-1.6 1.5-.5 1.9.35M22 4.5q.35-.9 1.85-.5 1.4.35 2.65 1.45 1.95 1.75.95 4t-2.9.45q-1.2-1.1-2.05-2.75-.9-1.8-.5-2.65" fill="#303030" transform="translate(0 -.15)"/><path d="M26.5 2.8q1.05 1.75-.4 3.35L23.7 8q-4.3 1.05-6.6.55L14 6.75q-1.1 1.4-3.05 1.8L4.35 8l-2-1.4q-1.15-1.2-.6-3.4Q2.1 2 6.2 1.35q4.05-.6 6.6.05L14 2.65l1.25-1.25q2.45-.65 6.55-.15 4.05.5 4.7 1.55" fill="#454545" transform="translate(0 -.15)"/><path d="M25.7 2.95q-.5-.65-3.9-.95l-6.05.2-.15.25q-.6.95-1.45 1.1-1.1.15-1.7-1.05l-.2-.3-5.95-.15q-3.35.3-3.85.85L2.3 4q0 1.55 1.95 2.8l.45.35q3.95.95 6.05.5 1.6-.3 2.55-1.45l.65-.8.7.7 2.6 1.55 6.05-.5.35-.25Q26 5.2 26 4l-.3-1.05M21.8.15q4.5.4 5.5 2.2 1.65 3-2.6 6-6 1.2-7.9.8l-2.55-2Q12 9.05 11.1 9.2l-7.2-.4-.65-.45Q.1 6.25.9 2.95q.15-.65.95-1.15Q3.5.8 7.15.4q3.7-.45 5.85.1h.3l.7 1.1.7-1 .3-.1 6.8-.35" fill="#454545" transform="translate(0 -.15)"/><path d="M23.75 7.45 17.1 8q-1.3-.1-2.05-.95l10.9-1.35-2.2 1.75" fill="#d5d5d5" transform="translate(0 -.15)"/><path d="m15.25 1.4 6.7-.45q4.3.35 4.9 2l-.05.8q-5.75-2.1-11.65-2.25l.1-.1" fill="#fff" transform="translate(0 -.15)"/><path d="M24.9 7.3q-2.2.4-4.95.05l-4.9-.3-.6-1.2q-.45-.9-.8 0l-.6 1.55-9.6-.15-1.5-1.15q-1-.95-.8-2.65Q3.2 2.1 6.7 1.75l6.15-.25L14 2.65l1.15-1.15q8.1.2 11.85 1.55.35 2.75-2.1 4.25" fill="#ececec" transform="translate(0 -.15)"/><path d="M12.85 1.5q-6.6.25-11.2 3.25l-.5-1.3Q3.5 2.3 5.8 1.1l7 .3.05.1" fill="#d5d5d5" transform="translate(0 -.15)"/><path d="M1.15 3.35q.8-1.85 4.7-2.2l-4.7 2.2" fill="#fff" transform="translate(0 -.15)"/><path d="M13.25 7.15q-.6.65-2.15.95l-6.95-.45-.7-.4q5.35.15 9.8-.1" fill="#d5d5d5" transform="translate(0 -.15)"/><path d="M11.7 1.6q1.55.45 1.2 2-.25 1.3-1.2 2.25-.65.65-3.25.8l-3.35-.1Q3.65 6.3 2.75 3.4q-.5-1.35 3.95-1.8 3.85-.35 5 0m4.6.2 5.05-.25q4.4.15 4 1.55-.75 2.95-2.15 3.3l-3.35.3q-2.6 0-3.3-.65-1.05-1-1.35-2.2-.4-1.5 1.1-2.05" transform="translate(0 -.15)"/><path d="m9.4 7.2 2.2-.3.15.6L9 7.75l.4-.55m6.3-.3.3-.5 1.3.8.3.55q-.75 0-1.9-.85M2.3 4.55q.4.7 0 .8-.4.2-.65-.5-.35-.6 0-.8.35-.2.65.5m24.05-.25q-.25.7-.65.5-.25-.2 0-.8.4-.65.65-.5.35.2 0 .8" fill="#797979" transform="translate(0 -.15)"/></g><g id="b" fill-rule="evenodd"><path d="M-11.4 2.6q-.45-1.25 3.75-1.65Q-4.05.6-2.85.9q2.75.8-.05 3.6-.65.6-3.1.75l-3.2-.1q-1.5-.3-2.2-2.55" fill="#ffbc3a" transform="translate(11.45 -.75)"/><path d="M-6.3 1.25q1.2.2-2.35 1.15-.15 1.5-.7 1.45-.8-.05-1.3-1.35-.35-.6 1.85-1l2.5-.25" fill="#fff" transform="translate(11.45 -.75)"/><path d="M-5.5 4.25-2.1 3q-.4 1-1.05 1.55-.55.55-3.2.65l.85-.95" fill="#b02a1d" transform="translate(11.45 -.75)"/><path d="m-9.8 4.7 4.3-.45-.85.95L-9 5.15l-.8-.45" fill="#cd5c26" transform="translate(11.45 -.75)"/><path d="M11.2 2.35Q10.7 4.6 9.15 5l-3.2.25q-2.55 0-3.2-.6Q-.2 2 2.5 1.1L7.35.85q4.25.2 3.85 1.5" fill="#ffbc3a" transform="translate(11.45 -.75)"/><path d="m2.55 3.4-.1-.05Q.8 2 2.3 1.5l2.95-.05Q4.2 2.65 2.55 3.4" fill="#fff" transform="translate(11.45 -.75)"/><path d="M10.6 2.45q-.65 2.45-1.9 2.7l-1.45.15L9.5 1.45q1.3.35 1.1 1" fill="#b02a1d" transform="translate(11.45 -.75)"/><path d="M9.5 1.45 7.25 5.3 3.05 5q3.05-1.5 5.3-3.75l1.15.2" fill="#cd5c26" transform="translate(11.45 -.75)"/></g><use height="11.5" width="27.8" xlink:href="#c" id="a"/></defs></svg>