<svg xmlns:xlink="http://www.w3.org/1999/xlink" height="58.65" width="49.15" xmlns="http://www.w3.org/2000/svg"><use height="18.8" transform="translate(9.2 12.7)" width="30.3" xlink:href="#a"/><defs><g id="a"><path d="M28.55 17.05q.15-1.95-.05-3.95l.7-1.35q.35-1.2-.6-2.85-.8-2-2.85-4.8-.9-1.2-4.3-2.15Q18.1 1 14.85 1l-.05.1-.05-.1q-3.25 0-6.5.95-3.25.9-4.2 2.15-2.35 3.25-2.7 5.5-.55 1.2-.25 2.15l.2.5-.3 5.3" fill="none" stroke="#630040" stroke-linecap="round" stroke-linejoin="round" stroke-width="2"/><path d="M.1.25q7.1 0 11.75 7.35Q7.1 4.75-.05 4.75q-7.1 0-12.1 4.1 1.3-2.15 3.45-4.3Q-4.35.25.1.25" fill-rule="evenodd" transform="translate(14.9 5.4)"/><path d="m9.6 7.8 1.95-.7 1.9-.05.35 3.75q.2 2.85-.35 1.75L9.6 7.8m-19.3 0-3.85 4.75q-.55 1.1-.35-1.75l.35-3.75 1.95.05 1.9.7" fill="#ff54c3" fill-rule="evenodd" transform="translate(14.9 5.4)"/><path d="M13.6 3.4q1.15 1.55.7 2.95-.4 1.35-1.25 1.8l-2.45-.7Q4.55 5.5.05 5.5q-4.85 0-1.1-3.9l7.2-.55L13.6 3.4" fill="#b80077" fill-rule="evenodd" transform="translate(14.9 5.4)"/><path d="M1.55 1.6Q5.3 5.5.45 5.5q-4.65 0-10.5 1.95l-2.5.7q-.85-.45-1.25-1.8-.25-.85.2-2l.5-.95 7.45-2.35 7.2.55" fill="#b80077" fill-rule="evenodd" transform="translate(14.9 5.4)"/><path d="M-10.85-1.3q.95-1.25 4.2-2.15 3.25-.95 6.5-.95 4.2 7 1.05 7-1.9 0-6.75 1.25L-12.4 5.5q-1.85.35-.75-2.55.85-2.25 2.3-4.25" fill="#ff00a6" fill-rule="evenodd" transform="translate(14.9 5.4)"/><path d="M10.85-1.3q5.5 7.45 2.05 6.8Q2.8 2.6-.4 2.6q-3.15 0 .35-7 3.25 0 6.6.95 3.4.95 4.3 2.15" fill="#ff00a6" fill-rule="evenodd" transform="translate(14.9 5.4)"/><path d="M-6.4 1.85q-4.25 1.45-4.65 1.3-.6-.25 0-1.65.6-1.3 1.5-2.2Q-7.05-3.2.1-3.2 3.45.15.1.25q-1.8.05-6.5 1.6" fill="#fff" fill-rule="evenodd" transform="translate(14.9 5.4)"/><path d="M9.9-.7q.9.9 1.5 2.2.6 1.4 0 1.65-.4.15-4.65-1.3Q2.05.3.25.25-3.1.15.25-3.2 7.4-3.2 9.9-.7" fill="#fff" fill-rule="evenodd" transform="translate(14.9 5.4)"/><path d="M9.65-.05q1 .7 1.95 3.2L9.7 3Q8.65 1 7.85.65 4.9-.7-.75-.7-6.1-.7-7.9.95-9.1 2-8.95 2.8l-2.4.9.45-1.4 2-3q.95-1.6 8.65-1.9 2.55-.15 5.9.85 2.85.85 4 1.7" fill-rule="evenodd" transform="translate(14.9 5.4)"/><path d="m-.05-1.7-7.6 1.25q-1.15.2-2.85 3.75l-.85.4q-.45-.55.35-2.2.85-1.7 2.2-2.85Q-6.65-3.1.25-3.2q2.35 1.5-.3 1.5" fill="#b80077" fill-rule="evenodd" transform="translate(14.9 5.4)"/><path d="M9-1.35q2.55 2 2.75 3.9.05.35-.5.6-1.4-3.25-3.4-3.6L.25-1.7q-1.65 0-1.15-.75l.8-.75 3.75.3q4 .5 5.35 1.55" fill="#b80077" fill-rule="evenodd" transform="translate(14.9 5.4)"/><path d="m-13.85 12.9 3.6-5.25q.55-.5 3.35-1.2Q-3.3 5.5.45 5.5q5.8 0 9.8 1.95l3.4 5.2" fill="none" stroke="#630040" stroke-linecap="round" stroke-linejoin="round" transform="translate(14.9 5.4)"/><path d="M10.3.9q1.05 1.45.95 2-.25 1-4.1-.75L1.85.55Q.85.25.25-1l-.4-1.2 8.3 1.1q1.05.45 2.15 2" fill="#fff" fill-rule="evenodd" transform="translate(14.9 5.4)"/></g></defs></svg>