<svg xmlns="http://www.w3.org/2000/svg" xmlns:xlink="http://www.w3.org/1999/xlink" width="49.15" height="58.65"><g transform="translate(24.1 18.1)"><use xlink:href="#a" width="43.1" height="22.3" transform="translate(-21.3 -1.95)"/><use xlink:href="#b" width="14.4" height="9.45" transform="translate(-16.75 18.1)"/></g><defs><g id="c" fill-rule="evenodd"><path fill="#202429" d="m9.7 11.3.25 1.45-.6 5.5q-.45 3.5-3.3 4-.3 0-.25-2.2.05-2.45.75-3.95l3.15-4.8"/><path fill="#08090a" d="M8.8 7.9q.15.45-.2.7L8 9l1.2.4q.6.45.6 2.5l-.65 1-2.8 7.9-.15 1.5q-1.55.05-2.75-.45-.75-.3-1.3-1.4L1.7 19.4Q.65 18.75.15 16.85q-.3-1.15.05-3.05l.45-1.7 2.65-4q2.4-2.05 3.9-2.05l4.8-2.5.15-.45 1.05-.9q1.2-.6 2.15.25l1.95-.1.95 1.05-4.8 2.85-1.05-.15-3.6 1.8"/><path fill="#3d474f" d="M9.3 12.85q0 3.4-1.4 7.3-.3.85-1.35 1.35l-1.95.15q-1.45-.5-2.25-2.1-.45-.8 1.7-7.25.9-2.8 3.25-2.75 2.1 0 2 3.3"/><path fill="#303940" d="M8.45 9.85q1.1.4.9 2.9l-.4 3.15-.3 1.9-.7 2.45q-.25.55-.95.95l-1.05.7-1.65-.25q-1.7-.65.75-2.25.75-.45 1.25-1.6l1.4-3q.2-.7.2-3.8 0-1.35.55-1.15"/><path fill="#1a1d21" d="M6.85 9.5Q5.65 10.9 5 12.8q-.85 2.7-.85 4.55 0 2.1-.65 2.25H2.45l-.25-.15q-.05-4.65.6-6.95t2.9-3.1l1.15.1"/><path fill="#abc0c4" d="M2.45 10.65q.8-.45 1.8-.35l1 .4q-.8 1.25-1.25 3.9l-.45 4.35q-.65.65-1.75-.15-1-.75-1.15-1.75-.25-1.45.3-3.65.6-2.3 1.5-2.75"/><path fill="#c6dfe3" d="m5.4 10.65-1 2.1-1.1-.65-1.85-.1 1.15-1.85q.4-.5 1.5-.35l1.05.25.25.6"/><path fill="#384547" d="m5.3 10.75-.35.9q-.3-.35-1.1-.7L2 11q.95-.4 1.85-.85 1.15.05 1.45.6"/><path fill="#3a3e42" d="m11.25 5.9-3.7 2-1-.55L9.5 5.5l3.9-1.9q1.6-.65.9.8-1.8.75-3.05 1.5"/><path fill="#2e2f33" d="m12.7 4.5.45-.15L13 5 7.55 7.9l-.3-.25L12.7 4.5"/><path fill="#7e92a3" d="m5.25 10.85-1.6-.4-1.8.7L4.4 8.3q1.15-.9 2.65-1.45.95 1.1.8 1.2l-1.05.8-1.55 2"/><path fill="#849496" d="m2.95 19.25-1-.35q-.8-.45-1.25-1.6l.05-3.15L1.8 16q.65.55 1.9.55l-.1.55v1.75q0 .4-.65.4"/><path fill="#f5feff" d="m4.7 12.15-.3.95-1.75-1.25 2.05.3"/><path fill="#aac4db" d="m2.95 10.6-1.1.55 1.9-2.3Q4.95 7.8 6.65 7l.5.35-2.4 1.5-1.8 1.75"/><path fill="#08090a" d="m28.85 2.4-.25 1.45Q26 .95 21.8.95q-2.65 0-5.2 1.35l-2.05 1.35L13.8 3l1.85-1.5Q18.25 0 21.7 0q4.2 0 7.15 2.4"/><path fill="#202429" d="M36.55 16.1q.7 1.5.75 3.95.05 2.2-.25 2.2-2.85-.5-3.3-4l-.6-5.5.25-1.45 3.15 4.8"/><path fill="#08090a" d="m31.1 3.55 4.8 2.5 1.05.25 2.85 1.8q1.35 1.2 2.65 4 1 2.9.5 4.75-.5 1.9-1.55 2.55-.55 1.95-1.75 2.45l-2.75.45-.15-1.5-2.8-7.9-.65-1 .6-2.5q.65-.4 1.2-.4l-.6-.4-.2-.7-3.6-1.8-1.05.15-4.8-2.85.95-1.05 1.95.1.65-.35 1.5.1q1.25.6 1.2 1.35"/><path fill="#08090a" d="M27.5 4.95Q25.3 3 21.65 3q-2.3 0-4.8 1.1L14.8 5.15l-.65-1.3 2.1-1.2Q18.9 1.4 21.6 1.4q4.4 0 6.65 2.6l-.75.95"/><path fill="#3a3e42" d="m21.65 2.65-4.6.8-2.1.75-.35-1.3 1.65-1.2Q18.55.5 21.5.5q4.75 0 7.55 2.65L28.2 4.3Q25 2.65 21.65 2.65"/><path fill="#5a6066" d="m14.7 2.8 1.1-.85Q17.3 1 19.55.6 23.2.05 26.5 1.7l-6-.35q-1.7.05-3.65 1.1l-1.6 1.05-.55-.7"/><path fill="#3d474f" d="M36.55 21.5q-1.05-.5-1.35-1.35-1.4-3.9-1.4-7.3-.1-3.3 2-3.3 2.35-.05 3.25 2.75 2.15 6.4 1.7 7.25-.8 1.6-2.25 2.1l-1.95-.15"/><path fill="#637480" d="m35.85 9.5 1 .15q-1.45.7-2 1.35l-.25 6.9-.6-3.45q-.65-3.35.4-4.55.4-.45 1.45-.4"/><path fill="#333c42" d="M37.4 13.5q-1.35-2.65-.15-3.1.7-.2 1.65 1.55 1.45 1.25 1.6 3.25l.1 1.5q.5 2.3.1 3.1-.85 1.8-2.1 1.85-.7 0-1.2-.5t-.1-1.85q.3-.9.3-4.3l-.2-1.5"/><path fill="#1a1d21" d="m36.25 9.5 1.15-.1 1.2.7q1.3.95 1.7 2.4.65 2.3.6 6.95l-.25.15H39.6q-.65-.15-.65-2.25 0-1.85-.85-4.55l-1.85-3.3"/><path fill="#abc0c4" d="M40.65 10.65q.9.45 1.5 2.75.6 2.2.3 3.65-.15 1-1.15 1.75-1.05.8-1.75.15l-.45-4.35q-1.35-3.7-1.25-3.9.2-.3 1.05-.4.95-.1 1.75.35"/><path fill="#c6dfe3" d="m37.7 10.65.25-.6L39 9.8q1.1-.15 1.5.35L41.65 12l-1.85.1-1.1.65-1-2.1"/><path fill="#384547" d="m37.8 10.75 1.45-.6q1.1 0 1.85.85l-1.85-.05-1.1.7-.35-.9"/><path fill="#3a3e42" d="M31.85 5.9q-2.5-1.2-3.05-1.5-.55-.3-.35-.75l1.25-.05 3.9 1.9 2.95 1.85-1 .55-3.7-2"/><path fill="#2e2f33" d="m30.4 4.5 5.45 3.15-.3.25L30.1 5l-.15-.65.45.15"/><path fill="#7e92a3" d="m37.85 10.85-1.55-2-1.1-.8.85-1.2q.3.2 2.65 1.45 2.05 1.6 2.55 2.85-1-.65-1.8-.7l-1.6.4m-7.4-7.4q.2 2.25-.85 1.85l-2-.9q-.4-.25.2-1 .6-.8 1.15-.7l1.5.75m-17.75 0 1.5-.75q.55-.1 1.15.7.6.75.2 1-.85.55-2 .9-.75.25-.95-.65-.25-.9.1-1.2"/><path fill="#849496" d="M40.15 19.25q-.65 0-.65-.4V17.1l-.1-.55 1.9-.55q.65-.55 1.05-1.85.45 2.25.05 3.15-.45 1.15-1.25 1.6l-1 .35"/><path fill="#f5feff" d="m38.4 12.15 2.05-.3-1.75 1.25-.3-.95"/><path fill="#aac4db" d="m40.15 10.6-.45-.4-1.35-1.35-2.4-1.5.5-.35 2.9 1.85q1.2 1.05 1.9 2.3l-1.1-.55"/><path fill="#586673" d="m28.05 3.4.8.3q1.55.8 1.5 1.1-.05.7-1.4.2-.95-.25-1.2-.5-.9-.75.3-1.1M15.3 4.7l-1.4.55-.95.05q-.65-.25-.35-.65L13.95 4l1.5-.45.3.45q.05.2-.45.7"/></g><g id="b" fill-rule="evenodd"><path fill="#202429" d="m2.55 1.4 2.8 2.75q1.25.75 4.7 1.75l.4-.55q.6-.55 1.75-.45 2.6.25 2.15 3.15-.15 1.1-1.65 1.35-1.45.2-2.1-.45l-.65-.85q-4.6-1.05-6.3-2.25Q2.1 4.8 1.2 3.4L.6 2.15l1.1-.3.85-.45"/><path fill="#7e92a3" d="M.1.55Q-.2-.1.4 0q.65.05.85.55 1 2.2 3.55 4l5.95 2.15q.55.2.6.55.05.35-.5.3Q8.9 7.4 5 5.95 2.75 5.1.1.55"/><path fill="#3d474f" d="M10.35 6.95q.2-1.8 1.85-1.45 1.7.4 1.7 1.95 0 1.55-1.85 1.45-1.9-.15-1.7-1.95"/></g><use xlink:href="#c" id="a" width="43.1" height="22.3"/></defs></svg>