<svg xmlns="http://www.w3.org/2000/svg" xmlns:xlink="http://www.w3.org/1999/xlink" width="49.15" height="58.65"><use xlink:href="#a" width="36.2" height="15.5" transform="translate(6.05 10.7)"/><defs><use xlink:href="#b" id="g" width="36.2" height="15.5"/><use xlink:href="#c" id="h" width="30.1" height="11.95"/><use xlink:href="#d" id="i" width="25.05" height="6.35"/><use xlink:href="#e" id="j" width="21.9" height="3.95"/><use xlink:href="#f" id="k" width="19.2" height="1.2"/><path id="c" fill="#a06a0a" fill-rule="evenodd" d="M12.35-4.9q2.55 1.55 2.7 6.1.15 4.55-2.2 4.75l-5-.6q-3.85-.8-4.4-1.5Q2.3 2.5 1.85.05v-.1q-.05-1.05.4-2.55.65-2 1.95-2.45 4.6-2 8.15.15m-24.7 0q3.55-2.15 8.15-.15 1.3.45 1.95 2.45.45 1.5.4 2.55v.1q-.45 2.45-1.6 3.8-.55.7-4.4 1.5l-5 .6q-2.35-.2-2.2-4.75.15-4.55 2.7-6.1" transform="translate(15.05 6)"/><path id="d" fill="#cc8621" fill-rule="evenodd" d="M-4.75-1.2q-.1.25-.85.25l-1 .3Q-10.15.8-10.75 3.1L-11.9 2l-.65-1.55.25-1.5v-.05q.2-.85.75-1.35l1.55-.5q2.4-.6 3.95.3l.85.65q.6.6.45.8m10.4-1.2q.35-.3 1.6-.55 2.55-.55 3.95.3l.85.65.45.85-1.9.55Q7.1.7 6.5 3.15L5.35 2Q4.7.95 4.7.45q0-1.65.55-2.25l.4-.6" transform="translate(12.55 3.2)"/><path id="e" fill="#e8a64d" fill-rule="evenodd" d="m-9.1-.05-1.1.85-.55.95.1.05-.1.15-.1-.1.1-.1-.2-.7.05-1.05q.15-1.1 1.05-1.55l2-.4q1.65-.15 1.55.55L-9.1-.05m17.2 0L7.05.8l-.55 1h.1l-.1.15-.1-.05.1-.1q-.3-.15-.2-.7L6.35.05q.15-1.2 1.05-1.6l2-.4q1.65-.1 1.55.6Q9.7-.9 8.1-.05" transform="translate(10.95 2)"/><path id="f" fill="#f4c587" fill-rule="evenodd" d="m-7.75-.55-.1.1h.25q.2.5-1.85 1.05-.5-.55.5-1.05l1.2-.1M9.45-.6l-.1.05.25.05Q9.8 0 7.75.55q-.5-.55.5-1.05l1.2-.1" transform="translate(9.6 .6)"/><g id="a" transform="translate(18.1 7.75)"><use xlink:href="#g" width="36.2" height="15.5" transform="translate(-18.1 -7.75)"/><use xlink:href="#h" width="30.1" height="11.95" transform="translate(-15.25 -5.8)"/><use xlink:href="#i" width="25.05" height="6.35" transform="translate(-14.75 -4.85)"/><use xlink:href="#j" width="21.9" height="3.95" transform="translate(-13.8 -4.35)"/><use xlink:href="#k" width="19.2" height="1.2" transform="translate(-13.25 -3.8)"/></g><g id="b" fill-rule="evenodd"><path fill="#050008" d="m6.95.8 2.3-.2 3.95.15q1.25.4 2.85 1.35l1.15 1 .85 1q.8.25 2.2-1.65l.9-.75.75-.7.6-.35.9-.15 1.95-.5q2.15-.15 4.05.65 4.55 2.05 5.35 5.15.25.95.1 1.85l-.5 1.85-.4 1.7v1.95q-.35 1.15-.8 1.55l-1.7.65-4.05.15-1.95-.4L20 13.25q-.9-.45-1.05-1.05l-.25-.85q-.15-.65-.45-.7-.45-.1-.85 1.35-.2 1.05-1.2 1.4l-3.8 1-4 .95-4.3-.1Q2.4 15 1.75 12.9l-.4-1.85v-.65L1.1 9.25V8.6l-.15-.65.1.1.4-1.65.5-1.6q.4-1.2 1.1-1.85l.9-.85 1.15-.55L6.95.8"/><path fill="#020002" d="M32.7 7.7q1.85-1.3 2.7-.25 1.35 1.6.35 3.9-.9 2-1.8 2.2-.45.15-1.75-.8L31 11.8q-1.4-1.8 1.7-4.1"/><path fill="#4f4f4f" d="M34.15 12.2V7.55L35.5 8.9l-1.35 3.3"/><path fill="#020002" d="M3.45 7.6q3.1 2.3 1.7 4.1-2.2 1.95-2.95 1.75-.9-.2-1.75-2.2-1.05-2.3.3-3.9.85-1.05 2.7.25"/><path fill="#4f4f4f" d="M2.15 12.2.75 8.9l1.4-1.35v4.65"/></g></defs></svg>