<svg xmlns:xlink="http://www.w3.org/1999/xlink" height="58.65" width="49.15" xmlns="http://www.w3.org/2000/svg"><use height="15.6" transform="translate(5 22.2)" width="33.9" xlink:href="#a"/><defs><g id="a" fill-rule="evenodd"><path d="M7.15 5.3q5.4.85 6.9 2.25.75.75.75 1.6.15 5.05-.7 7.05-1.25 2.7-5.4 3.4-3.9.65-7.75-3.35l-1.05-1-1.1 1q-3.8 3.9-7.65 3.35-3.65-.5-5-2.75-1.1-1.8-1.1-5.7v-2q.1-.95.8-1.6 1.55-1.4 6.9-2.25l7.15-.6 7.25.6" transform="translate(19.1 -4.1)"/><path d="M7 5.7q5.3.85 6.75 2.2.55.5.65 1.25.2 4.9-.65 6.75-1.15 2.6-5.1 3.3-3.7.6-7.4-3.25L-.1 14.8l-1.4 1.15q-3.65 3.75-7.25 3.25-3.9-.55-5.05-3.2-.85-1.9-.7-6.85 0-.7.65-1.25 1.45-1.35 6.7-2.2l7.05-.55L7 5.7" fill="#fdc42f" transform="translate(19.1 -4.1)"/><path d="M7.9 6.7q5.6 1.05 5.65 2.5.15 4.8-.65 6.5-1 2.1-4.4 2.65-2.9.45-5.55-1.9-2.75-2.5-3.05-2.5l-3.05 2.45q-2.6 2.35-5.5 1.95-3.4-.5-4.35-2.6-.8-1.75-.65-6.55.05-1.45 5.6-2.5L-.1 6l8 .7" fill="#212321" transform="translate(19.1 -4.1)"/><path d="m-4.45 18.85-.35-.3q1.5-.75 3.25-2.6l.95-.9.3.35-.95.85q-1.6 1.7-3.2 2.6M-6.4 5.6q-4.05.55-6.1 1.45l-.1-.4q2.3-.95 6.05-1.45l.15.4" fill="#212321" transform="translate(19.1 -4.1)"/><path d="m-12.2 7.8-.3-.75q2.05-.9 6.1-1.45l.35.8q-3.95.5-6.15 1.4m6.75 10.1q1.2-.5 2.5-1.7l1.8-1.75.55.6-.95.9q-1.75 1.85-3.25 2.6l-.65-.65" fill="#fdff2f" transform="translate(19.1 -4.1)"/><path d="M-12.2 7.8q2.2-.9 6.15-1.4 1.95 4.55 4.9 8.05l-1.8 1.75q-1.3 1.2-2.5 1.7-4.4-4.15-6.75-10.1" fill="#6f6f6f" transform="translate(19.1 -4.1)"/><path d="M4 18.3q1.6.95 3.4 1l.3.4-2.75-.45L4 18.3M.9 4.7l.05.45H-.1l-2.9.1-.1-.45 3-.1h1" fill="#212321" transform="translate(19.1 -4.1)"/><path d="m.95 5.15.2.85H-.1l-2.7.05-.2-.8 2.9-.1H.95m.1 9.4 2.3 2.25q1.7 1.4 3.45 1.6l.6.9q-1.8-.05-3.4-1-1.8-1.85-2.95-3.75" fill="#fdff2f" transform="translate(19.1 -4.1)"/><path d="M1.15 6q1.1 5.15 5.65 12.4-1.75-.2-3.45-1.6l-2.3-2.25q-2.4-3.7-3.85-8.5L-.1 6h1.25" fill="#3f4447" transform="translate(19.1 -4.1)"/><path d="m-12.95 9.8.6-.3.5.1q.1.25.05.8l.4.4-.8-.15q.15.8-.05.85l-.7-1.7" fill="#fdff2f" transform="translate(19.1 -4.1)"/><path d="m-11.25 9.7.3-.15.3-.2.2.3.05.4-.15-.2q-.05.45-.35.6-.8.25-.35-.75m.75-.5.55.05q-.4-1.25.3-.55 0 1.6-.3 1.55 0-.7-.2-.8l-.35-.25m1.1-1.5q.3-.1.8.6.3-.05.3.5l-.7.4-.4-1.5" fill="#fdff2f" transform="translate(19.1 -4.1)"/><path d="M-8.1 8.05q.4-.35.55.1.15.5-.2.6-.3.1-.45-.2-.15-.25.1-.5m.85.3-.15-.6q.2-.1.3.2l.35-.4 1.15.05q.1.3-.25.4l-.85-.1-.55.45" fill="#fdff2f" transform="translate(19.1 -4.1)"/><path d="m-14.3 9.95 2.95-3.5-2.4 3.9 4.25 1.75-4.45-1.1-.35 4.6-.35-4.6-4.45 1.1 4.25-1.75-2.4-3.9 2.95 3.5" fill="#fff" transform="translate(19.1 -4.1)"/><path d="m-9.9 7.2-1.45 2.05L-10.2 7l-2.45-.8 2.55.4-.05-2.5.4 2.5 2.4-.8-2.25 1.15L-8.1 9l-1.8-1.8m-3.4 5.2-.35 2.2 2.25-.05-2.2.4.7 2.1-1-2-1.8 1.35 1.6-1.6-1.85-1.25 2 1 .65-2.15" fill="#fff" transform="translate(19.1 -4.1)"/></g></defs></svg>