<svg xmlns="http://www.w3.org/2000/svg" width="19.968" height="21.504"><g style="display:inline"><path d="M2.324.38C1.244.38.381 1.245.381 2.325v4.71c.57-.906 2.488-3.453 4.562-.612.507-3.008 1.968-4.5 3.4-4.48 1.265.016 2.505 1.21 3.046 3.574C13.597.382 16.323 3.7 16.758 7.488c.646-1.704 2.302-1.93 2.828-1.681V2.324c0-1.08-.863-1.943-1.943-1.943z" style="color:#000;display:inline;fill:#fff;fill-opacity:.66;stroke-width:.381125;stroke-linecap:round;stroke-linejoin:round;-inkscape-stroke:none"/><path d="M8.344 1.941c-1.433-.019-2.894 1.473-3.4 4.48C2.868 3.582.95 6.129.38 7.034v6.656c5.169-1.018 14.763-1.429 19.205.15V5.808c-.526-.25-2.182-.023-2.828 1.681-.435-3.788-3.161-7.106-5.37-1.972-.54-2.364-1.78-3.558-3.044-3.575Z" style="opacity:1;fill:#fff;fill-opacity:.33;stroke:none;stroke-width:1px;stroke-linecap:butt;stroke-linejoin:miter;stroke-opacity:1"/></g></svg>