<svg xmlns:xlink="http://www.w3.org/1999/xlink" height="35.1" width="44.6" xmlns="http://www.w3.org/2000/svg"><use height="16.15" transform="translate(1.85 13.65)" width="41.2" xlink:href="#a"/><defs><path d="M12.75 1.45q2.05.8 1.65 3.3l-.15 1.15.6.1 1.75.75q1.4.55 3 1.75t1 2.05q-.55.85-2.95 1.35l-3.45.55-.35 4.55-.35.4q-1.5.5-1.9-.55l-.15.1-.35.1-.15.25q-.55.55-1.3.15l-.35-.25-.05.05q-1.8 1.05-2.25-.9l-.2-1.45v-2.75L5.35 13.7q.75 1.25.2 2.55-.55-.05-.7-.65l-.35-.65-.1.1-.7.75-.35.05q-.25-.05-.35-.3l-.05-.05v-.2l.75-1.45H3l-.35-.05-.25-.35-.1-.15q.55-.8 1.7-.65l.6.1 1.3-1.25h-.85l-1.7.05v-.1q-.75-.05-1-.75-.25-.85.05-1.35-.3-.15-.45-.6-.5-1.7 1.25-2l3.1.05-1.45-1.35-2.55.2q.1-.55.7-.7.6-.15.65-.35l-.1-.1-.8-.7v-.35q0-.25.25-.35l.1-.05.15-.05 1.5.8-.05-.7.05-.35.35-.3.15-.05q.85.55.65 1.7l-.1.55L6.9 5.8l.05-2.45Q7 1.75 8.5 1.45q.65.3 1 .7l.15-.2q.45-.45.95-.5.7.3 1.1.75.35-.7 1.05-.75m1.6 5.65h-.1q-.55 0-.95.5-1.95 2 .6 3.2l.35.1q.45.1.9-.3 2.4-2.35-.8-3.5m-.1 1.3h.05q.75.25.15.9l-.15.05-.15-.05q-.65-.25-.15-.75.1-.15.25-.15m-28.2 0 .3.15q.45.5-.15.8h-.15l-.2-.05q-.6-.6.2-.9m11-5.35h.2l.05.05.3.35-.05.35-.75.7-.15.1q.05.2.7.35.55.1.65.7l-2.55-.2L-6 6.8l3.1-.05q1.75.3 1.25 2l-.45.6q.3.5.05 1.35-.25.7-.95.75h-.05v.1l-1.7-.05-.85.05q.75.55 1.35 1.25l.55-.15q1.15-.15 1.7.65l-.1.15-.25.35-.3.05h-.75l.8 1.45-.05.2v.05l-.4.3h-.35l-.7-.8-.1-.1-.35.65q-.15.6-.7.65-.55-1.3.2-2.55l-1.45-1.55v2.75l-.2 1.45q-.45 1.95-2.2.9l-.1-.05-.35.25q-.75.4-1.25-.2l-.2-.15-.3-.15-.2-.1q-.4 1.05-1.9.55l-.35-.4-.35-4.55-3.4-.5q-2.45-.55-3-1.4-.6-.9 1-2.05t3-1.75l1.75-.75.6-.1-.15-1.15q-.4-2.45 1.65-3.3.7.05 1.05.75.4-.5 1.1-.75.55.05.95.55l.15.15q.35-.45 1.05-.7 1.45.25 1.5 1.9l.1 2.45 1.1-1.15-.15-.55q-.2-1.15.65-1.7l.15.1q.25.05.35.25l.05.35v.7l1.45-.75M-14 7.1q-3.25 1.15-.8 3.5.35.35.85.3l.35-.1q2.6-1.15.65-3.2-.45-.5-1-.5H-14" transform="translate(20.45 -1.45)" id="a" fill="red" fill-rule="evenodd"/></defs></svg>