<svg xmlns:xlink="http://www.w3.org/1999/xlink" height="35.1" width="44.6" xmlns="http://www.w3.org/2000/svg"><use height="16.9" transform="translate(13.35 12.2)" width="17.95" xlink:href="#a"/><defs><path d="M9 1.55q0 .65-.45 1.15-.4.35-.85.4h-.4q-.6 0-1-.4-.45-.5-.45-1.15 0-.65.45-1.1.45-.5 1.1-.45.65-.05 1.15.45Q9 .9 9 1.55M.3 3.1H.2l2 4.5 4.45-4.5q-1 4.45-1.45 9.15-5.25 2.25-10.5.05-.5-4.95-1.7-9.2h-.4q-.65 0-1.1-.4-.45-.5-.45-1.15l.45-1.1q.45-.5 1.1-.45.65-.05 1.15.45.45.45.45 1.1 0 .65-.45 1.15l-.65.35 4.45 4.55 2.5-4.5Q-.6 3.1-1 2.7q-.5-.5-.45-1.15Q-1.5.9-1 .45-.55-.05.1 0q.65-.05 1.1.45.45.45.45 1.1L1.2 2.7q-.35.35-.85.4H.3m4.8 12.05q-5.2 3.5-10.45 0l.05-1.65q5.45 2.95 10.4 0v1.65" fill="red" fill-rule="evenodd" transform="translate(8.95)" id="a"/></defs></svg>