<svg xmlns:xlink="http://www.w3.org/1999/xlink" height="35.1" width="44.6" xmlns="http://www.w3.org/2000/svg"><use height="21" transform="translate(1.15 12.2)" width="42.35" xlink:href="#a"/><defs><path d="m20.75 6.8-1.85.65-.4.1-3.85 1.3-.2.2-.05.25.2.2.3.05 3.9-1.3.3-.1h.05l.65.05.15.1.2.35.05.45-.45.55-6.1 2.05-.2.2q-.1.1-.05.3l.2.2h.3l4.25-1.4.7.05.35.45v.45l-.45.55-4.3 1.45q-.2.05-.25.2v.3l.2.2h.25l1.55-.5h.1l.7.05.35.45.05.45-.45.5-4.1 1.4q-6.4 5.35-6.35 3.5.05-1.9 1.15-6.6l1.3-4.3v-.05q.25-.5.8-.8.3-.15.5-.15h.05l9.8-3.3.7.05.4.45v.45l-.45.55M8.55 2.7q-.4.35-.85.4h-.4q-.6 0-1-.4-.45-.5-.45-1.15 0-.65.45-1.1.45-.5 1.1-.45.65-.05 1.15.45Q9 .9 9 1.55q0 .65-.45 1.15M.3 3.1H.2l2 4.5 4.45-4.5q-1 4.45-1.45 9.15-5.25 2.25-10.5.05-.5-4.95-1.7-9.2h-.4q-.65 0-1.1-.4-.45-.5-.45-1.15l.45-1.1q.45-.5 1.1-.45.65-.05 1.15.45.45.45.45 1.1 0 .65-.45 1.15l-.65.35 4.45 4.55 2.5-4.5Q-.6 3.1-1 2.7q-.5-.5-.45-1.15Q-1.5.9-1 .45-.55-.05.1 0q.65-.05 1.1.45.45.45.45 1.1L1.2 2.7q-.35.35-.85.4H.3m4.8 12.05q-5.2 3.5-10.45 0l.05-1.65q5.45 2.95 10.4 0v1.65M-9.7 8.3q.5.25.8.8.35.7 1.3 4.3 1.05 4.75 1.15 6.6.05 1.85-6.35-3.45l-4.1-1.4-.45-.55.05-.45.35-.45.7-.05h.1l1.55.55h.3l.15-.25v-.25l-.2-.2-4.35-1.5-.45-.5v-.05l.05-.4.35-.5v.05l.65-.1 4.25 1.4h.3l.2-.2-.05-.3-.2-.2-6.1-2.05-.45-.5.05-.45.2-.4.15-.1.65-.05h.05l.3.15h.05l3.85 1.25h.3l.2-.2v-.3q-.1-.15-.25-.2l-3.85-1.3-.35-.1h-.05l-1.85-.65-.4-.55v-.4l.35-.5.7-.05 9.8 3.3h.05l.5.2" fill="red" fill-rule="evenodd" transform="translate(21.15)" id="a"/></defs></svg>