<svg xmlns="http://www.w3.org/2000/svg" xmlns:xlink="http://www.w3.org/1999/xlink" height="100.8" width="132.65" xmlns:v="https://vecta.io/nano"><style><![CDATA[#i,#j,#k,#l,#m,#n,#o,#p,#q,#r{animation:0.4s linear _k infinite}#i{animation-delay:0s}#j{animation-delay:0.04s}#k{animation-delay:0.08s}#l{animation-delay:0.12s}#m{animation-delay:0.16s}#n{animation-delay:0.2s}#o{animation-delay:0.24s}#p{animation-delay:0.28s}#q{animation-delay:0.32s}#r{animation-delay:0.36s}@keyframes _k{0%,10.000000%{visibility:visible}10.000250%,100%{visibility:hidden}}.B{fill-rule:evenodd}.C{fill:#fff}.D{fill:none}.E{stroke-linejoin:round}.F{fill:#c00}.G{stroke:#333}.H{visibility:hidden}]]></style><use height="28.5" width="25.5" xlink:href="#A" x="65" y="60.85"/><defs><g id="A"><g transform="translate(12.75 12.7)" class="B"><path d="M9-8.55q3.75 4.15 3.75 10.1 0 5.9-3.75 10.05t-9 4.2q-5.3-.05-9-4.2-3.75-4.15-3.75-10.05 0-5.95 3.75-10.1 3.7-4.15 9-4.15 5.25 0 9 4.15" fill="url(#C)"/><path d="M1.35-3.15v.05l-.05.7-.2.1.25-.85" class="C"/></g><path d="m1.35-3.15.35-.8q.6-1.1 1.4-1.35l.55-.1q1.15 0 1.95 1.45.65 1.1.8 2.65v.8M1.35-3.15l-.25.85-.15.9v.1L.9-.6m-7.6-.05.05-.65q.15-1.5.8-2.6.75-1.45 1.9-1.45l.65.15q.75.25 1.3 1.3.6 1.05.75 2.45v.15l.05.6" stroke="#666" stroke-linecap="round" transform="translate(12.75 12.7)" class="D E"/></g><g ><g transform="translate(13.2 .55)" class="B"><path d="M8.05.2q.25 1.25-.95 2.85h-1L5.7 3v-.45l-.05-.5-.2-.55q-.2-.35-.7-.35-.55-.05-.8.35-.25.35-.35.85l-.05.55-10.25.65q-.65-.7-.95-2.75L5.2-.05 8.05.2" class="C"/><path d="M-6.6 6.85q5.85-2.7 12.85-.2L.3 8.9-6.6 6.85" class="F"/><path d="M-7.65.8q.3 2.05.95 2.75L3.55 2.9l.05-.55q.1-.5.35-.85.25-.4.8-.35.5 0 .7.35l.2.55.05.5V3l.4.05h1q1.2-1.6.95-2.85l2.3.25q4.25 2.1-4.1 6.2-7-2.5-12.85.2-4.55-1.75-5.75-3.1-1.2-1.4 2-2.5l2.7-.45"/></g><path d="M8.05.2 5.2-.05-7.65.8l-2.7.45q-3.2 1.1-2 2.5 1.2 1.35 5.75 3.1L.3 8.9l5.95-2.25q8.35-4.1 4.1-6.2L8.05.2Z" transform="translate(13.2 .55)" class="D E G"/></g><radialGradient cx="0" cy="0" gradientTransform="matrix(.0288 0 0 .0247 0 1.5)" gradientUnits="userSpaceOnUse" id="C" r="819.2" spreadMethod="pad"><stop offset="0" stop-color="#f33"/><stop offset=".537" stop-color="#f33" stop-opacity="0"/></radialGradient><path d="M.85-.85q.35.35.35.85T.85.85Q.5 1.2 0 1.2T-.85.85Q-1.2.5-1.2 0t.35-.85Q-.5-1.2 0-1.2t.85.35" transform="translate(1.2 1.2)" id="D" class="B C"/><use height="9.95" width="25.5" xlink:href="#G" id="E"/><use height="2.4" width="2.4" xlink:href="#g" id="F" href="#D"/><g id="G"><g transform="translate(13.2 .55)" class="B"><path d="M8.05.2q.25 1.25-.95 2.85h-1L5.7 3v-.45l-.05-.5-.2-.55q-.2-.35-.7-.35-.55-.05-.8.35-.25.35-.35.85l-.05.55-10.25.65q-.65-.7-.95-2.75L5.2-.05 8.05.2" class="C"/><path d="M-6.6 6.85q5.85-2.7 12.85-.2L.3 8.9-6.6 6.85" class="F"/><path d="M-7.65.8q.3 2.05.95 2.75L3.55 2.9l.05-.55q.1-.5.35-.85.25-.4.8-.35.5 0 .7.35l.2.55.05.5V3l.4.05h1q1.2-1.6.95-2.85l2.3.25q4.25 2.1-4.1 6.2-7-2.5-12.85.2-4.55-1.75-5.75-3.1-1.2-1.4 2-2.5l2.7-.45"/></g><path d="M8.05.2 5.2-.05-7.65.8l-2.7.45q-3.2 1.1-2 2.5 1.2 1.35 5.75 3.1L.3 8.9l5.95-2.25q8.35-4.1 4.1-6.2L8.05.2Z" transform="translate(13.2 .55)" class="D E G"/></g><use height="9.95" width="25.5" xlink:href="#J" id="H"/><use height="2.4" width="2.4" xlink:href="#o" id="I" href="#D"/><g id="J"><g transform="translate(13.2 .55)" class="B"><path d="M8.05.2q.25 1.25-.95 2.85h-1L5.7 3v-.45l-.05-.5-.2-.55q-.2-.35-.7-.35-.55-.05-.8.35-.25.35-.35.85l-.05.55-10.25.65q-.65-.7-.95-2.75L5.2-.05 8.05.2" class="C"/><path d="M-6.6 6.85q5.85-2.7 12.85-.2L.3 8.9-6.6 6.85" class="F"/><path d="M-7.65.8q.3 2.05.95 2.75L3.55 2.9l.05-.55q.1-.5.35-.85.25-.4.8-.35.5 0 .7.35l.2.55.05.5V3l.4.05h1q1.2-1.6.95-2.85l2.3.25q4.25 2.1-4.1 6.2-7-2.5-12.85.2-4.55-1.75-5.75-3.1-1.2-1.4 2-2.5l2.7-.45"/></g><path d="M8.05.2 5.2-.05-7.65.8l-2.7.45q-3.2 1.1-2 2.5 1.2 1.35 5.75 3.1L.3 8.9l5.95-2.25q8.35-4.1 4.1-6.2L8.05.2Z" transform="translate(13.2 .55)" class="D E G"/></g><use height="9.95" width="25.5" xlink:href="#M" id="K"/><use height="2.4" width="2.4" xlink:href="#w" id="L" href="#D"/><g id="M"><g transform="translate(13.2 .55)" class="B"><path d="M8.05.2q.25 1.25-.95 2.85h-1L5.7 3v-.45l-.05-.5-.2-.55q-.2-.35-.7-.35-.55-.05-.8.35-.25.35-.35.85l-.05.55-10.25.65q-.65-.7-.95-2.75L5.2-.05 8.05.2" class="C"/><path d="M-6.6 6.85q5.85-2.7 12.85-.2L.3 8.9-6.6 6.85" class="F"/><path d="M-7.65.8q.3 2.05.95 2.75L3.55 2.9l.05-.55q.1-.5.35-.85.25-.4.8-.35.5 0 .7.35l.2.55.05.5V3l.4.05h1q1.2-1.6.95-2.85l2.3.25q4.25 2.1-4.1 6.2-7-2.5-12.85.2-4.55-1.75-5.75-3.1-1.2-1.4 2-2.5l2.7-.45"/></g><path d="M8.05.2 5.2-.05-7.65.8l-2.7.45q-3.2 1.1-2 2.5 1.2 1.35 5.75 3.1L.3 8.9l5.95-2.25q8.35-4.1 4.1-6.2L8.05.2Z" transform="translate(13.2 .55)" class="D E G"/></g><use height="9.95" width="25.5" xlink:href="#P" id="N"/><use height="2.4" width="2.4" xlink:href="#AE" id="O" href="#D"/><g id="P"><g transform="translate(13.2 .55)" class="B"><path d="M8.05.2q.25 1.25-.95 2.85h-1L5.7 3v-.45l-.05-.5-.2-.55q-.2-.35-.7-.35-.55-.05-.8.35-.25.35-.35.85l-.05.55-10.25.65q-.65-.7-.95-2.75L5.2-.05 8.05.2" class="C"/><path d="M-6.6 6.85q5.85-2.7 12.85-.2L.3 8.9-6.6 6.85" class="F"/><path d="M-7.65.8q.3 2.05.95 2.75L3.55 2.9l.05-.55q.1-.5.35-.85.25-.4.8-.35.5 0 .7.35l.2.55.05.5V3l.4.05h1q1.2-1.6.95-2.85l2.3.25q4.25 2.1-4.1 6.2-7-2.5-12.85.2-4.55-1.75-5.75-3.1-1.2-1.4 2-2.5l2.7-.45"/></g><path d="M8.05.2 5.2-.05-7.65.8l-2.7.45q-3.2 1.1-2 2.5 1.2 1.35 5.75 3.1L.3 8.9l5.95-2.25q8.35-4.1 4.1-6.2L8.05.2Z" transform="translate(13.2 .55)" class="D E G"/></g><use height="9.95" width="25.5" xlink:href="#S" id="Q"/><use height="2.4" width="2.4" xlink:href="#AM" id="R" href="#D"/><g id="S"><g transform="translate(13.2 .55)" class="B"><path d="M8.05.2q.25 1.25-.95 2.85h-1L5.7 3v-.45l-.05-.5-.2-.55q-.2-.35-.7-.35-.55-.05-.8.35-.25.35-.35.85l-.05.55-10.25.65q-.65-.7-.95-2.75L5.2-.05 8.05.2" class="C"/><path d="M-6.6 6.85q5.85-2.7 12.85-.2L.3 8.9-6.6 6.85" class="F"/><path d="M-7.65.8q.3 2.05.95 2.75L3.55 2.9l.05-.55q.1-.5.35-.85.25-.4.8-.35.5 0 .7.35l.2.55.05.5V3l.4.05h1q1.2-1.6.95-2.85l2.3.25q4.25 2.1-4.1 6.2-7-2.5-12.85.2-4.55-1.75-5.75-3.1-1.2-1.4 2-2.5l2.7-.45"/></g><path d="M8.05.2 5.2-.05-7.65.8l-2.7.45q-3.2 1.1-2 2.5 1.2 1.35 5.75 3.1L.3 8.9l5.95-2.25q8.35-4.1 4.1-6.2L8.05.2Z" transform="translate(13.2 .55)" class="D E G"/></g><use height="9.95" width="25.5" xlink:href="#V" id="T"/><use height="2.4" width="2.4" xlink:href="#AU" id="U" href="#D"/><g id="V"><g transform="translate(13.2 .55)" class="B"><path d="M8.05.2q.25 1.25-.95 2.85h-1L5.7 3v-.45l-.05-.5-.2-.55q-.2-.35-.7-.35-.55-.05-.8.35-.25.35-.35.85l-.05.55-10.25.65q-.65-.7-.95-2.75L5.2-.05 8.05.2" class="C"/><path d="M-6.6 6.85q5.85-2.7 12.85-.2L.3 8.9-6.6 6.85" class="F"/><path d="M-7.65.8q.3 2.05.95 2.75L3.55 2.9l.05-.55q.1-.5.35-.85.25-.4.8-.35.5 0 .7.35l.2.55.05.5V3l.4.05h1q1.2-1.6.95-2.85l2.3.25q4.25 2.1-4.1 6.2-7-2.5-12.85.2-4.55-1.75-5.75-3.1-1.2-1.4 2-2.5l2.7-.45"/></g><path d="M8.05.2 5.2-.05-7.65.8l-2.7.45q-3.2 1.1-2 2.5 1.2 1.35 5.75 3.1L.3 8.9l5.95-2.25q8.35-4.1 4.1-6.2L8.05.2Z" transform="translate(13.2 .55)" class="D E G"/></g><use height="9.95" width="25.5" xlink:href="#Y" id="W"/><use height="2.4" width="2.4" xlink:href="#Ac" id="X" href="#D"/><g id="Y"><g transform="translate(13.2 .55)" class="B"><path d="M8.05.2q.25 1.25-.95 2.85h-1L5.7 3v-.45l-.05-.5-.2-.55q-.2-.35-.7-.35-.55-.05-.8.35-.25.35-.35.85l-.05.55-10.25.65q-.65-.7-.95-2.75L5.2-.05 8.05.2" class="C"/><path d="M-6.6 6.85q5.85-2.7 12.85-.2L.3 8.9-6.6 6.85" class="F"/><path d="M-7.65.8q.3 2.05.95 2.75L3.55 2.9l.05-.55q.1-.5.35-.85.25-.4.8-.35.5 0 .7.35l.2.55.05.5V3l.4.05h1q1.2-1.6.95-2.85l2.3.25q4.25 2.1-4.1 6.2-7-2.5-12.85.2-4.55-1.75-5.75-3.1-1.2-1.4 2-2.5l2.7-.45"/></g><path d="M8.05.2 5.2-.05-7.65.8l-2.7.45q-3.2 1.1-2 2.5 1.2 1.35 5.75 3.1L.3 8.9l5.95-2.25q8.35-4.1 4.1-6.2L8.05.2Z" transform="translate(13.2 .55)" class="D E G"/></g><use height="9.95" width="25.5" xlink:href="#b" id="Z"/><use height="2.4" width="2.4" xlink:href="#Ak" id="a" href="#D"/><g id="b"><g transform="translate(13.2 .55)" class="B"><path d="M8.05.2q.25 1.25-.95 2.85h-1L5.7 3v-.45l-.05-.5-.2-.55q-.2-.35-.7-.35-.55-.05-.8.35-.25.35-.35.85l-.05.55-10.25.65q-.65-.7-.95-2.75L5.2-.05 8.05.2" class="C"/><path d="M-6.6 6.85q5.85-2.7 12.85-.2L.3 8.9-6.6 6.85" class="F"/><path d="M-7.65.8q.3 2.05.95 2.75L3.55 2.9l.05-.55q.1-.5.35-.85.25-.4.8-.35.5 0 .7.35l.2.55.05.5V3l.4.05h1q1.2-1.6.95-2.85l2.3.25q4.25 2.1-4.1 6.2-7-2.5-12.85.2-4.55-1.75-5.75-3.1-1.2-1.4 2-2.5l2.7-.45"/></g><path d="M8.05.2 5.2-.05-7.65.8l-2.7.45q-3.2 1.1-2 2.5 1.2 1.35 5.75 3.1L.3 8.9l5.95-2.25q8.35-4.1 4.1-6.2L8.05.2Z" transform="translate(13.2 .55)" class="D E G"/></g><use height="9.95" width="25.5" xlink:href="#e" id="c"/><use height="2.4" width="2.4" xlink:href="#As" id="d" href="#D"/><g id="e"><g transform="translate(13.2 .55)" class="B"><path d="M8.05.2q.25 1.25-.95 2.85h-1L5.7 3v-.45l-.05-.5-.2-.55q-.2-.35-.7-.35-.55-.05-.8.35-.25.35-.35.85l-.05.55-10.25.65q-.65-.7-.95-2.75L5.2-.05 8.05.2" class="C"/><path d="M-6.6 6.85q5.85-2.7 12.85-.2L.3 8.9-6.6 6.85" class="F"/><path d="M-7.65.8q.3 2.05.95 2.75L3.55 2.9l.05-.55q.1-.5.35-.85.25-.4.8-.35.5 0 .7.35l.2.55.05.5V3l.4.05h1q1.2-1.6.95-2.85l2.3.25q4.25 2.1-4.1 6.2-7-2.5-12.85.2-4.55-1.75-5.75-3.1-1.2-1.4 2-2.5l2.7-.45"/></g><path d="M8.05.2 5.2-.05-7.65.8l-2.7.45q-3.2 1.1-2 2.5 1.2 1.35 5.75 3.1L.3 8.9l5.95-2.25q8.35-4.1 4.1-6.2L8.05.2Z" transform="translate(13.2 .55)" class="D E G"/></g><use height="9.95" width="25.5" xlink:href="#h" id="f"/><use height="2.4" width="2.4" xlink:href="#BA" id="g" href="#D"/><g id="h"><g transform="translate(13.2 .55)" class="B"><path d="M8.05.2q.25 1.25-.95 2.85h-1L5.7 3v-.45l-.05-.5-.2-.55q-.2-.35-.7-.35-.55-.05-.8.35-.25.35-.35.85l-.05.55-10.25.65q-.65-.7-.95-2.75L5.2-.05 8.05.2" class="C"/><path d="M-6.6 6.85q5.85-2.7 12.85-.2L.3 8.9-6.6 6.85" class="F"/><path d="M-7.65.8q.3 2.05.95 2.75L3.55 2.9l.05-.55q.1-.5.35-.85.25-.4.8-.35.5 0 .7.35l.2.55.05.5V3l.4.05h1q1.2-1.6.95-2.85l2.3.25q4.25 2.1-4.1 6.2-7-2.5-12.85.2-4.55-1.75-5.75-3.1-1.2-1.4 2-2.5l2.7-.45"/></g><path d="M8.05.2 5.2-.05-7.65.8l-2.7.45q-3.2 1.1-2 2.5 1.2 1.35 5.75 3.1L.3 8.9l5.95-2.25q8.35-4.1 4.1-6.2L8.05.2Z" transform="translate(13.2 .55)" class="D E G"/></g></defs><g transform="translate(54.25 51.2)" class="H"><g id="i">&gt;<g transform="translate(23.45 29.5)"><use height="9.95" transform="matrix(.9409 0 0 1.309 -12.42 -6.57)" width="25.5" xlink:href="#E"/><use height="2.4" width="2.4" xlink:href="#F" x="-22.35" y="-10.6"/><use height="2.4" width="2.4" xlink:href="#F" x="-23.45" y="-17"/><use height="2.4" width="2.4" xlink:href="#F" x="-13.55" y="-25.6"/><use height="2.4" width="2.4" xlink:href="#F" x="1.45" y="-29.5"/><use height="2.4" width="2.4" xlink:href="#F" x="4.45" y="-25.6"/><use height="2.4" width="2.4" xlink:href="#F" x="15.05" y="-14.8"/><use height="2.4" width="2.4" xlink:href="#F" x="22.65" y="-12.2"/><use height="2.4" width="2.4" xlink:href="#F" x="20.45" y="-8.2"/></g></g><g id="j">&gt;<g transform="translate(23.45 29.5)"><use height="9.95" transform="matrix(.9953 0 0 1.2289 -13.137 -6.426)" width="25.5" xlink:href="#H"/><use height="2.4" width="2.4" xlink:href="#I" x="-22.35" y="-10.6"/><use height="2.4" width="2.4" xlink:href="#I" x="-23.45" y="-17"/><use height="2.4" width="2.4" xlink:href="#I" x="-13.55" y="-25.6"/><use height="2.4" width="2.4" xlink:href="#I" x="1.45" y="-29.5"/><use height="2.4" width="2.4" xlink:href="#I" x="4.45" y="-25.6"/><use height="2.4" width="2.4" xlink:href="#I" x="15.05" y="-14.8"/><use height="2.4" width="2.4" xlink:href="#I" x="22.65" y="-12.2"/><use height="2.4" width="2.4" xlink:href="#I" x="20.45" y="-8.2"/></g></g><g id="k">&gt;<g transform="translate(23.45 29.5)"><use height="9.95" transform="matrix(1.0496 0 0 1.1489 -13.854 -6.282)" width="25.5" xlink:href="#K"/><use height="2.4" width="2.4" xlink:href="#L" x="-22.35" y="-10.6"/><use height="2.4" width="2.4" xlink:href="#L" x="-23.45" y="-17"/><use height="2.4" width="2.4" xlink:href="#L" x="-13.55" y="-25.6"/><use height="2.4" width="2.4" xlink:href="#L" x="1.45" y="-29.5"/><use height="2.4" width="2.4" xlink:href="#L" x="4.45" y="-25.6"/><use height="2.4" width="2.4" xlink:href="#L" x="15.05" y="-14.8"/><use height="2.4" width="2.4" xlink:href="#L" x="22.65" y="-12.2"/><use height="2.4" width="2.4" xlink:href="#L" x="20.45" y="-8.2"/></g></g><g id="l">&gt;<g transform="translate(23.45 29.5)"><use height="9.95" transform="matrix(1.1039 0 0 1.0688 -14.571 -6.088)" width="25.5" xlink:href="#N"/><use height="2.4" width="2.4" xlink:href="#O" x="-22.35" y="-10.6"/><use height="2.4" width="2.4" xlink:href="#O" x="-23.45" y="-17"/><use height="2.4" width="2.4" xlink:href="#O" x="-13.55" y="-25.6"/><use height="2.4" width="2.4" xlink:href="#O" x="1.45" y="-29.5"/><use height="2.4" width="2.4" xlink:href="#O" x="4.45" y="-25.6"/><use height="2.4" width="2.4" xlink:href="#O" x="15.05" y="-14.8"/><use height="2.4" width="2.4" xlink:href="#O" x="22.65" y="-12.2"/><use height="2.4" width="2.4" xlink:href="#O" x="20.45" y="-8.2"/></g></g><g id="m">&gt;<g transform="translate(23.45 29.5)"><use height="9.95" transform="matrix(1.1582 0 0 .9888 -15.288 -5.894)" width="25.5" xlink:href="#Q"/><use height="2.4" width="2.4" xlink:href="#R" x="-22.35" y="-10.6"/><use height="2.4" width="2.4" xlink:href="#R" x="-23.45" y="-17"/><use height="2.4" width="2.4" xlink:href="#R" x="-13.55" y="-25.6"/><use height="2.4" width="2.4" xlink:href="#R" x="1.45" y="-29.5"/><use height="2.4" width="2.4" xlink:href="#R" x="4.45" y="-25.6"/><use height="2.4" width="2.4" xlink:href="#R" x="15.05" y="-14.8"/><use height="2.4" width="2.4" xlink:href="#R" x="22.65" y="-12.2"/><use height="2.4" width="2.4" xlink:href="#R" x="20.45" y="-8.2"/></g></g><g id="n">&gt;<g transform="translate(23.45 29.5)"><use height="9.95" transform="matrix(1.1147 0 0 1.0528 -14.714 -6.029)" width="25.5" xlink:href="#T"/><use height="2.4" width="2.4" xlink:href="#U" x="21.1" y="-8.9"/><use height="2.4" width="2.4" xlink:href="#U" x="21.1" y="-15.5"/><use height="2.4" width="2.4" xlink:href="#U" x="18" y="-20.7"/><use height="2.4" width="2.4" xlink:href="#U" x="13.2" y="-15"/><use height="2.4" width="2.4" xlink:href="#U" x="-5.5" y="-26.1"/><use height="2.4" width="2.4" xlink:href="#U" x="-11.4" y="-24.4"/><use height="2.4" width="2.4" xlink:href="#U" x="-22.3" y="-16.5"/><use height="2.4" width="2.4" xlink:href="#U" x="-15.4" y="-18.8"/><use height="2.4" width="2.4" xlink:href="#U" x="-21.9" y="-3.8"/></g></g><g id="o">&gt;<g transform="translate(23.45 29.5)"><use height="9.95" transform="matrix(1.0713 0 0 1.1169 -14.141 -6.164)" width="25.5" xlink:href="#W"/><use height="2.4" width="2.4" xlink:href="#X" x="21.1" y="-8.9"/><use height="2.4" width="2.4" xlink:href="#X" x="21.1" y="-15.5"/><use height="2.4" width="2.4" xlink:href="#X" x="18" y="-20.7"/><use height="2.4" width="2.4" xlink:href="#X" x="13.2" y="-15"/><use height="2.4" width="2.4" xlink:href="#X" x="-5.5" y="-26.1"/><use height="2.4" width="2.4" xlink:href="#X" x="-11.4" y="-24.4"/><use height="2.4" width="2.4" xlink:href="#X" x="-22.3" y="-16.5"/><use height="2.4" width="2.4" xlink:href="#X" x="-15.4" y="-18.8"/><use height="2.4" width="2.4" xlink:href="#X" x="-21.9" y="-3.8"/></g></g><g id="p">&gt;<g transform="translate(23.45 29.5)"><use height="9.95" transform="matrix(1.0278 0 0 1.1809 -13.567 -6.3)" width="25.5" xlink:href="#Z"/><use height="2.4" width="2.4" xlink:href="#a" x="21.1" y="-8.9"/><use height="2.4" width="2.4" xlink:href="#a" x="21.1" y="-15.5"/><use height="2.4" width="2.4" xlink:href="#a" x="18" y="-20.7"/><use height="2.4" width="2.4" xlink:href="#a" x="13.2" y="-15"/><use height="2.4" width="2.4" xlink:href="#a" x="-5.5" y="-26.1"/><use height="2.4" width="2.4" xlink:href="#a" x="-11.4" y="-24.4"/><use height="2.4" width="2.4" xlink:href="#a" x="-22.3" y="-16.5"/><use height="2.4" width="2.4" xlink:href="#a" x="-15.4" y="-18.8"/><use height="2.4" width="2.4" xlink:href="#a" x="-21.9" y="-3.8"/></g></g><g id="q">&gt;<g transform="translate(23.45 29.5)"><use height="9.95" transform="matrix(.9844 0 0 1.2449 -12.994 -6.485)" width="25.5" xlink:href="#c"/><use height="2.4" width="2.4" xlink:href="#d" x="21.1" y="-8.9"/><use height="2.4" width="2.4" xlink:href="#d" x="21.1" y="-15.5"/><use height="2.4" width="2.4" xlink:href="#d" x="18" y="-20.7"/><use height="2.4" width="2.4" xlink:href="#d" x="13.2" y="-15"/><use height="2.4" width="2.4" xlink:href="#d" x="-5.5" y="-26.1"/><use height="2.4" width="2.4" xlink:href="#d" x="-11.4" y="-24.4"/><use height="2.4" width="2.4" xlink:href="#d" x="-22.3" y="-16.5"/><use height="2.4" width="2.4" xlink:href="#d" x="-15.4" y="-18.8"/><use height="2.4" width="2.4" xlink:href="#d" x="-21.9" y="-3.8"/></g></g><g id="r">&gt;<g transform="translate(23.45 29.5)"><use height="9.95" transform="matrix(.9409 0 0 1.309 -12.42 -6.57)" width="25.5" xlink:href="#f"/><use height="2.4" width="2.4" xlink:href="#g" x="21.1" y="-8.9"/><use height="2.4" width="2.4" xlink:href="#g" x="21.1" y="-15.5"/><use height="2.4" width="2.4" xlink:href="#g" x="18" y="-20.7"/><use height="2.4" width="2.4" xlink:href="#g" x="13.2" y="-15"/><use height="2.4" width="2.4" xlink:href="#g" x="-5.5" y="-26.1"/><use height="2.4" width="2.4" xlink:href="#g" x="-11.4" y="-24.4"/><use height="2.4" width="2.4" xlink:href="#g" x="-22.3" y="-16.5"/><use height="2.4" width="2.4" xlink:href="#g" x="-15.4" y="-18.8"/><use height="2.4" width="2.4" xlink:href="#g" x="-21.9" y="-3.8"/></g></g></g></svg>