<svg xmlns:xlink="http://www.w3.org/1999/xlink" height="100.8" width="132.65" xmlns="http://www.w3.org/2000/svg"><use height="13.05" transform="translate(65.8 67.7)" width="24.45" xlink:href="#a"/><defs><g id="a"><path d="m3.3-3.55.35-.15.3.15.2.5-.2.45-.3.2q-.25-.05-.35-.2-.15-.2-.15-.45l.15-.5m1.15-.8q1.1-.6 2.4-.85l3 .25h.2l-1.1 2.7-.6 1.1-.9 1.6q-1 1.2-2.3 1.4l-.5.05-1-.15Q2.6 1.4 1.85.45q-.65-.8-.9-1.7L.9-1.4l1.8-1.85q-.1.25-.05.65-.05.75.35 1.3.4.5.95.5.55 0 .95-.5.4-.55.4-1.3 0-.85-.4-1.35l-.45-.4M-2.5 1.6l-1.5.35-1.1-.2q-.95-.3-1.7-1.25l-.9-1.6q-.65-1.95-.75-4.15 4.65-.55 7.15 2.4l1.1 1.4-.05.2Q-.55-.3-1.2.5l-1.3 1.1" fill="#fff" fill-rule="evenodd" transform="translate(11.95 5.85)"/><path d="m3.3-3.55-.15.5q0 .25.15.45.1.15.35.2l.3-.2.2-.45-.2-.5-.3-.15-.35.15m-.6.3.3-.7q.4-.55.95-.5l.5.1q-.95.4-1.75 1.1.8-.7 1.75-1.1l.45.4q.4.5.4 1.35 0 .75-.4 1.3-.4.5-.95.5-.55 0-.95-.5-.4-.55-.35-1.3-.05-.4.05-.65" fill-rule="evenodd" transform="translate(11.95 5.85)"/><path d="m8.35-1.15.6.3q3.5 1.8 3.55 2.8 0 .95-3.15.4l-4.2-.5q1.3-.2 2.3-1.4l.9-1.6m-4.7 2.9L1.2 1.6h-3.7L-1.2.5q.65-.8.95-1.75l.05-.2.15-1.2H.7L.9-1.4l.05.15q.25.9.9 1.7.75.95 1.8 1.3m-8.75 0-2.75.4-4.1-.2q0-.95 3.7-2.75l.55-.3.9 1.6q.75.95 1.7 1.25" fill-opacity=".153" fill-rule="evenodd" transform="translate(11.95 5.85)"/><path d="M2.7-3.25q.8-.7 1.75-1.1 1.1-.6 2.4-.85l3 .25m-18.3-.3q4.65-.55 7.15 2.4l1.1 1.4.15-1.2m.75 0L.9-1.4l1.8-1.85M6.35 6.7Q1.7 2.4-3.65 5q-1.4.6-2.65 1.45" fill="none" stroke="#666" stroke-linecap="round" stroke-linejoin="round" transform="translate(11.95 5.85)"/><path d="m10.05-4.95-1.1 2.7-.6 1.1-.9 1.6q-1 1.2-2.3 1.4l-.5.05-1-.15Q2.6 1.4 1.85.45q-.65-.8-.9-1.7L.9-1.4m-3.4 3-1.5.35-1.1-.2q-.95-.3-1.7-1.25l-.9-1.6q-.65-1.95-.75-4.15m8.25 3.8-.05.2Q-.55-.3-1.2.5l-1.3 1.1" fill="none" stroke="#900" stroke-linecap="round" stroke-linejoin="round" transform="translate(11.95 5.85)"/><path d="m-3.85-3.55-.15.5.15.4.35.25.3-.25q.15-.15.15-.4l-.15-.5q-.1-.2-.3-.2l-.35.2m-.3-.45q.4-.5.95-.45.55-.05.95.45.4.55.4 1.35t-.4 1.3q-.4.55-.95.55-.55 0-.95-.55-.4-.5-.4-1.3t.4-1.35" fill-rule="evenodd" transform="translate(11.95 5.85)"/><path d="m-3.85-3.55.35-.2q.2 0 .3.2l.15.5q0 .25-.15.4l-.3.25-.35-.25-.15-.4.15-.5" fill="#fff" fill-rule="evenodd" transform="translate(11.95 5.85)"/></g></defs></svg>