<svg xmlns="http://www.w3.org/2000/svg" xmlns:xlink="http://www.w3.org/1999/xlink" height="100.8" width="132.65" xmlns:v="https://vecta.io/nano"><style><![CDATA[#h,#i,#j,#k,#l,#m,#n,#o,#p,#q{animation:0.4s linear _k infinite}#h{animation-delay:0s}#i{animation-delay:0.04s}#j{animation-delay:0.08s}#k{animation-delay:0.12s}#l{animation-delay:0.16s}#m{animation-delay:0.2s}#n{animation-delay:0.24s}#o{animation-delay:0.28s}#p{animation-delay:0.32s}#q{animation-delay:0.36s}@keyframes _k{0%,10.000000%{visibility:visible}10.000250%,100%{visibility:hidden}}.B{fill-rule:evenodd}.C{fill:#fff}.D{fill:none}.E{stroke-linejoin:round}.F{fill:#c00}.G{stroke:#333}.H{visibility:hidden}]]></style><use height="9.55" width="24.45" xlink:href="#A" x="65.5" y="65.1"/><defs><g id="A" transform="translate(12.25 8.45)"><path d="m.95-1.6 5.4.6h.05L11.5.2l.7.7-3.15.2-1.7-.15L4.85.8.9.65l-6.3.1-2.5.2-.25.05-.6.05-3.45-.1-.05-.1q0-.6 2.35-1.35l3.2-.65h.05l5.4-.5 1.6.05h.6" fill-opacity=".153" class="B"/><path d="m6.4-1.8-.15-1.3-.45-1.85-.75-1.75-.9-1-1.05-.25-.7.85-.65 1.25-.35 1.2-.2 1.25v.45M-6.65-1.8l.05-.4q.15-2.05.75-3.6.75-2.2 1.9-2.15l.65.15q.75.45 1.3 2 .6 1.6.55 2.55" stroke="#666" stroke-linecap="round" class="D E"/></g><g ><g transform="translate(13.2 .55)" class="B"><path d="M8.05.2q.25 1.25-.95 2.85h-1L5.7 3v-.45l-.05-.5-.2-.55q-.2-.35-.7-.35-.55-.05-.8.35-.25.35-.35.85l-.05.55-10.25.65q-.65-.7-.95-2.75L5.2-.05 8.05.2" class="C"/><path d="M-6.6 6.85q5.85-2.7 12.85-.2L.3 8.9-6.6 6.85" class="F"/><path d="M-7.65.8q.3 2.05.95 2.75L3.55 2.9l.05-.55q.1-.5.35-.85.25-.4.8-.35.5 0 .7.35l.2.55.05.5V3l.4.05h1q1.2-1.6.95-2.85l2.3.25q4.25 2.1-4.1 6.2-7-2.5-12.85.2-4.55-1.75-5.75-3.1-1.2-1.4 2-2.5l2.7-.45"/></g><path d="M8.05.2 5.2-.05-7.65.8l-2.7.45q-3.2 1.1-2 2.5 1.2 1.35 5.75 3.1L.3 8.9l5.95-2.25q8.35-4.1 4.1-6.2L8.05.2Z" transform="translate(13.2 .55)" class="D E G"/></g><path d="M.85-.85q.35.35.35.85T.85.85Q.5 1.2 0 1.2T-.85.85Q-1.2.5-1.2 0t.35-.85Q-.5-1.2 0-1.2t.85.35" transform="translate(1.2 1.2)" id="C" class="B C"/><use height="9.95" width="25.5" xlink:href="#F" id="D"/><use height="2.4" width="2.4" xlink:href="#c" id="E" href="#C"/><g id="F"><g transform="translate(13.2 .55)" class="B"><path d="M8.05.2q.25 1.25-.95 2.85h-1L5.7 3v-.45l-.05-.5-.2-.55q-.2-.35-.7-.35-.55-.05-.8.35-.25.35-.35.85l-.05.55-10.25.65q-.65-.7-.95-2.75L5.2-.05 8.05.2" class="C"/><path d="M-6.6 6.85q5.85-2.7 12.85-.2L.3 8.9-6.6 6.85" class="F"/><path d="M-7.65.8q.3 2.05.95 2.75L3.55 2.9l.05-.55q.1-.5.35-.85.25-.4.8-.35.5 0 .7.35l.2.55.05.5V3l.4.05h1q1.2-1.6.95-2.85l2.3.25q4.25 2.1-4.1 6.2-7-2.5-12.85.2-4.55-1.75-5.75-3.1-1.2-1.4 2-2.5l2.7-.45"/></g><path d="M8.05.2 5.2-.05-7.65.8l-2.7.45q-3.2 1.1-2 2.5 1.2 1.35 5.75 3.1L.3 8.9l5.95-2.25q8.35-4.1 4.1-6.2L8.05.2Z" transform="translate(13.2 .55)" class="D E G"/></g><use height="9.95" width="25.5" xlink:href="#I" id="G"/><use height="2.4" width="2.4" xlink:href="#k" id="H" href="#C"/><g id="I"><g transform="translate(13.2 .55)" class="B"><path d="M8.05.2q.25 1.25-.95 2.85h-1L5.7 3v-.45l-.05-.5-.2-.55q-.2-.35-.7-.35-.55-.05-.8.35-.25.35-.35.85l-.05.55-10.25.65q-.65-.7-.95-2.75L5.2-.05 8.05.2" class="C"/><path d="M-6.6 6.85q5.85-2.7 12.85-.2L.3 8.9-6.6 6.85" class="F"/><path d="M-7.65.8q.3 2.05.95 2.75L3.55 2.9l.05-.55q.1-.5.35-.85.25-.4.8-.35.5 0 .7.35l.2.55.05.5V3l.4.05h1q1.2-1.6.95-2.85l2.3.25q4.25 2.1-4.1 6.2-7-2.5-12.85.2-4.55-1.75-5.75-3.1-1.2-1.4 2-2.5l2.7-.45"/></g><path d="M8.05.2 5.2-.05-7.65.8l-2.7.45q-3.2 1.1-2 2.5 1.2 1.35 5.75 3.1L.3 8.9l5.95-2.25q8.35-4.1 4.1-6.2L8.05.2Z" transform="translate(13.2 .55)" class="D E G"/></g><use height="9.95" width="25.5" xlink:href="#L" id="J"/><use height="2.4" width="2.4" xlink:href="#s" id="K" href="#C"/><g id="L"><g transform="translate(13.2 .55)" class="B"><path d="M8.05.2q.25 1.25-.95 2.85h-1L5.7 3v-.45l-.05-.5-.2-.55q-.2-.35-.7-.35-.55-.05-.8.35-.25.35-.35.85l-.05.55-10.25.65q-.65-.7-.95-2.75L5.2-.05 8.05.2" class="C"/><path d="M-6.6 6.85q5.85-2.7 12.85-.2L.3 8.9-6.6 6.85" class="F"/><path d="M-7.65.8q.3 2.05.95 2.75L3.55 2.9l.05-.55q.1-.5.35-.85.25-.4.8-.35.5 0 .7.35l.2.55.05.5V3l.4.05h1q1.2-1.6.95-2.85l2.3.25q4.25 2.1-4.1 6.2-7-2.5-12.85.2-4.55-1.75-5.75-3.1-1.2-1.4 2-2.5l2.7-.45"/></g><path d="M8.05.2 5.2-.05-7.65.8l-2.7.45q-3.2 1.1-2 2.5 1.2 1.35 5.75 3.1L.3 8.9l5.95-2.25q8.35-4.1 4.1-6.2L8.05.2Z" transform="translate(13.2 .55)" class="D E G"/></g><use height="9.95" width="25.5" xlink:href="#O" id="M"/><use height="2.4" width="2.4" xlink:href="#AA" id="N" href="#C"/><g id="O"><g transform="translate(13.2 .55)" class="B"><path d="M8.05.2q.25 1.25-.95 2.85h-1L5.7 3v-.45l-.05-.5-.2-.55q-.2-.35-.7-.35-.55-.05-.8.35-.25.35-.35.85l-.05.55-10.25.65q-.65-.7-.95-2.75L5.2-.05 8.05.2" class="C"/><path d="M-6.6 6.85q5.85-2.7 12.85-.2L.3 8.9-6.6 6.85" class="F"/><path d="M-7.65.8q.3 2.05.95 2.75L3.55 2.9l.05-.55q.1-.5.35-.85.25-.4.8-.35.5 0 .7.35l.2.55.05.5V3l.4.05h1q1.2-1.6.95-2.85l2.3.25q4.25 2.1-4.1 6.2-7-2.5-12.85.2-4.55-1.75-5.75-3.1-1.2-1.4 2-2.5l2.7-.45"/></g><path d="M8.05.2 5.2-.05-7.65.8l-2.7.45q-3.2 1.1-2 2.5 1.2 1.35 5.75 3.1L.3 8.9l5.95-2.25q8.35-4.1 4.1-6.2L8.05.2Z" transform="translate(13.2 .55)" class="D E G"/></g><use height="9.95" width="25.5" xlink:href="#R" id="P"/><use height="2.4" width="2.4" xlink:href="#AI" id="Q" href="#C"/><g id="R"><g transform="translate(13.2 .55)" class="B"><path d="M8.05.2q.25 1.25-.95 2.85h-1L5.7 3v-.45l-.05-.5-.2-.55q-.2-.35-.7-.35-.55-.05-.8.35-.25.35-.35.85l-.05.55-10.25.65q-.65-.7-.95-2.75L5.2-.05 8.05.2" class="C"/><path d="M-6.6 6.85q5.85-2.7 12.85-.2L.3 8.9-6.6 6.85" class="F"/><path d="M-7.65.8q.3 2.05.95 2.75L3.55 2.9l.05-.55q.1-.5.35-.85.25-.4.8-.35.5 0 .7.35l.2.55.05.5V3l.4.05h1q1.2-1.6.95-2.85l2.3.25q4.25 2.1-4.1 6.2-7-2.5-12.85.2-4.55-1.75-5.75-3.1-1.2-1.4 2-2.5l2.7-.45"/></g><path d="M8.05.2 5.2-.05-7.65.8l-2.7.45q-3.2 1.1-2 2.5 1.2 1.35 5.75 3.1L.3 8.9l5.95-2.25q8.35-4.1 4.1-6.2L8.05.2Z" transform="translate(13.2 .55)" class="D E G"/></g><use height="9.95" width="25.5" xlink:href="#U" id="S"/><use height="2.4" width="2.4" xlink:href="#AQ" id="T" href="#C"/><g id="U"><g transform="translate(13.2 .55)" class="B"><path d="M8.05.2q.25 1.25-.95 2.85h-1L5.7 3v-.45l-.05-.5-.2-.55q-.2-.35-.7-.35-.55-.05-.8.35-.25.35-.35.85l-.05.55-10.25.65q-.65-.7-.95-2.75L5.2-.05 8.05.2" class="C"/><path d="M-6.6 6.85q5.85-2.7 12.85-.2L.3 8.9-6.6 6.85" class="F"/><path d="M-7.65.8q.3 2.05.95 2.75L3.55 2.9l.05-.55q.1-.5.35-.85.25-.4.8-.35.5 0 .7.35l.2.55.05.5V3l.4.05h1q1.2-1.6.95-2.85l2.3.25q4.25 2.1-4.1 6.2-7-2.5-12.85.2-4.55-1.75-5.75-3.1-1.2-1.4 2-2.5l2.7-.45"/></g><path d="M8.05.2 5.2-.05-7.65.8l-2.7.45q-3.2 1.1-2 2.5 1.2 1.35 5.75 3.1L.3 8.9l5.95-2.25q8.35-4.1 4.1-6.2L8.05.2Z" transform="translate(13.2 .55)" class="D E G"/></g><use height="9.95" width="25.5" xlink:href="#X" id="V"/><use height="2.4" width="2.4" xlink:href="#AY" id="W" href="#C"/><g id="X"><g transform="translate(13.2 .55)" class="B"><path d="M8.05.2q.25 1.25-.95 2.85h-1L5.7 3v-.45l-.05-.5-.2-.55q-.2-.35-.7-.35-.55-.05-.8.35-.25.35-.35.85l-.05.55-10.25.65q-.65-.7-.95-2.75L5.2-.05 8.05.2" class="C"/><path d="M-6.6 6.85q5.85-2.7 12.85-.2L.3 8.9-6.6 6.85" class="F"/><path d="M-7.65.8q.3 2.05.95 2.75L3.55 2.9l.05-.55q.1-.5.35-.85.25-.4.8-.35.5 0 .7.35l.2.55.05.5V3l.4.05h1q1.2-1.6.95-2.85l2.3.25q4.25 2.1-4.1 6.2-7-2.5-12.85.2-4.55-1.75-5.75-3.1-1.2-1.4 2-2.5l2.7-.45"/></g><path d="M8.05.2 5.2-.05-7.65.8l-2.7.45q-3.2 1.1-2 2.5 1.2 1.35 5.75 3.1L.3 8.9l5.95-2.25q8.35-4.1 4.1-6.2L8.05.2Z" transform="translate(13.2 .55)" class="D E G"/></g><use height="9.95" width="25.5" xlink:href="#a" id="Y"/><use height="2.4" width="2.4" xlink:href="#Ag" id="Z" href="#C"/><g id="a"><g transform="translate(13.2 .55)" class="B"><path d="M8.05.2q.25 1.25-.95 2.85h-1L5.7 3v-.45l-.05-.5-.2-.55q-.2-.35-.7-.35-.55-.05-.8.35-.25.35-.35.85l-.05.55-10.25.65q-.65-.7-.95-2.75L5.2-.05 8.05.2" class="C"/><path d="M-6.6 6.85q5.85-2.7 12.85-.2L.3 8.9-6.6 6.85" class="F"/><path d="M-7.65.8q.3 2.05.95 2.75L3.55 2.9l.05-.55q.1-.5.35-.85.25-.4.8-.35.5 0 .7.35l.2.55.05.5V3l.4.05h1q1.2-1.6.95-2.85l2.3.25q4.25 2.1-4.1 6.2-7-2.5-12.85.2-4.55-1.75-5.75-3.1-1.2-1.4 2-2.5l2.7-.45"/></g><path d="M8.05.2 5.2-.05-7.65.8l-2.7.45q-3.2 1.1-2 2.5 1.2 1.35 5.75 3.1L.3 8.9l5.95-2.25q8.35-4.1 4.1-6.2L8.05.2Z" transform="translate(13.2 .55)" class="D E G"/></g><use height="9.95" width="25.5" xlink:href="#d" id="b"/><use height="2.4" width="2.4" xlink:href="#Ao" id="c" href="#C"/><g id="d"><g transform="translate(13.2 .55)" class="B"><path d="M8.05.2q.25 1.25-.95 2.85h-1L5.7 3v-.45l-.05-.5-.2-.55q-.2-.35-.7-.35-.55-.05-.8.35-.25.35-.35.85l-.05.55-10.25.65q-.65-.7-.95-2.75L5.2-.05 8.05.2" class="C"/><path d="M-6.6 6.85q5.85-2.7 12.85-.2L.3 8.9-6.6 6.85" class="F"/><path d="M-7.65.8q.3 2.05.95 2.75L3.55 2.9l.05-.55q.1-.5.35-.85.25-.4.8-.35.5 0 .7.35l.2.55.05.5V3l.4.05h1q1.2-1.6.95-2.85l2.3.25q4.25 2.1-4.1 6.2-7-2.5-12.85.2-4.55-1.75-5.75-3.1-1.2-1.4 2-2.5l2.7-.45"/></g><path d="M8.05.2 5.2-.05-7.65.8l-2.7.45q-3.2 1.1-2 2.5 1.2 1.35 5.75 3.1L.3 8.9l5.95-2.25q8.35-4.1 4.1-6.2L8.05.2Z" transform="translate(13.2 .55)" class="D E G"/></g><use height="9.95" width="25.5" xlink:href="#g" id="e"/><use height="2.4" width="2.4" xlink:href="#Aw" id="f" href="#C"/><g id="g"><g transform="translate(13.2 .55)" class="B"><path d="M8.05.2q.25 1.25-.95 2.85h-1L5.7 3v-.45l-.05-.5-.2-.55q-.2-.35-.7-.35-.55-.05-.8.35-.25.35-.35.85l-.05.55-10.25.65q-.65-.7-.95-2.75L5.2-.05 8.05.2" class="C"/><path d="M-6.6 6.85q5.85-2.7 12.85-.2L.3 8.9-6.6 6.85" class="F"/><path d="M-7.65.8q.3 2.05.95 2.75L3.55 2.9l.05-.55q.1-.5.35-.85.25-.4.8-.35.5 0 .7.35l.2.55.05.5V3l.4.05h1q1.2-1.6.95-2.85l2.3.25q4.25 2.1-4.1 6.2-7-2.5-12.85.2-4.55-1.75-5.75-3.1-1.2-1.4 2-2.5l2.7-.45"/></g><path d="M8.05.2 5.2-.05-7.65.8l-2.7.45q-3.2 1.1-2 2.5 1.2 1.35 5.75 3.1L.3 8.9l5.95-2.25q8.35-4.1 4.1-6.2L8.05.2Z" transform="translate(13.2 .55)" class="D E G"/></g></defs><g transform="translate(54.25 51.2)" class="H"><g id="h">&gt;<g transform="translate(23.45 29.5)"><use height="9.95" transform="matrix(.9409 0 0 1.309 -12.42 -6.57)" width="25.5" xlink:href="#D"/><use height="2.4" width="2.4" xlink:href="#E" x="-22.35" y="-10.6"/><use height="2.4" width="2.4" xlink:href="#E" x="-23.45" y="-17"/><use height="2.4" width="2.4" xlink:href="#E" x="-13.55" y="-25.6"/><use height="2.4" width="2.4" xlink:href="#E" x="1.45" y="-29.5"/><use height="2.4" width="2.4" xlink:href="#E" x="4.45" y="-25.6"/><use height="2.4" width="2.4" xlink:href="#E" x="15.05" y="-14.8"/><use height="2.4" width="2.4" xlink:href="#E" x="22.65" y="-12.2"/><use height="2.4" width="2.4" xlink:href="#E" x="20.45" y="-8.2"/></g></g><g id="i">&gt;<g transform="translate(23.45 29.5)"><use height="9.95" transform="matrix(.9953 0 0 1.2289 -13.137 -6.426)" width="25.5" xlink:href="#G"/><use height="2.4" width="2.4" xlink:href="#H" x="-22.35" y="-10.6"/><use height="2.4" width="2.4" xlink:href="#H" x="-23.45" y="-17"/><use height="2.4" width="2.4" xlink:href="#H" x="-13.55" y="-25.6"/><use height="2.4" width="2.4" xlink:href="#H" x="1.45" y="-29.5"/><use height="2.4" width="2.4" xlink:href="#H" x="4.45" y="-25.6"/><use height="2.4" width="2.4" xlink:href="#H" x="15.05" y="-14.8"/><use height="2.4" width="2.4" xlink:href="#H" x="22.65" y="-12.2"/><use height="2.4" width="2.4" xlink:href="#H" x="20.45" y="-8.2"/></g></g><g id="j">&gt;<g transform="translate(23.45 29.5)"><use height="9.95" transform="matrix(1.0496 0 0 1.1489 -13.854 -6.282)" width="25.5" xlink:href="#J"/><use height="2.4" width="2.4" xlink:href="#K" x="-22.35" y="-10.6"/><use height="2.4" width="2.4" xlink:href="#K" x="-23.45" y="-17"/><use height="2.4" width="2.4" xlink:href="#K" x="-13.55" y="-25.6"/><use height="2.4" width="2.4" xlink:href="#K" x="1.45" y="-29.5"/><use height="2.4" width="2.4" xlink:href="#K" x="4.45" y="-25.6"/><use height="2.4" width="2.4" xlink:href="#K" x="15.05" y="-14.8"/><use height="2.4" width="2.4" xlink:href="#K" x="22.65" y="-12.2"/><use height="2.4" width="2.4" xlink:href="#K" x="20.45" y="-8.2"/></g></g><g id="k">&gt;<g transform="translate(23.45 29.5)"><use height="9.95" transform="matrix(1.1039 0 0 1.0688 -14.571 -6.088)" width="25.5" xlink:href="#M"/><use height="2.4" width="2.4" xlink:href="#N" x="-22.35" y="-10.6"/><use height="2.4" width="2.4" xlink:href="#N" x="-23.45" y="-17"/><use height="2.4" width="2.4" xlink:href="#N" x="-13.55" y="-25.6"/><use height="2.4" width="2.4" xlink:href="#N" x="1.45" y="-29.5"/><use height="2.4" width="2.4" xlink:href="#N" x="4.45" y="-25.6"/><use height="2.4" width="2.4" xlink:href="#N" x="15.05" y="-14.8"/><use height="2.4" width="2.4" xlink:href="#N" x="22.65" y="-12.2"/><use height="2.4" width="2.4" xlink:href="#N" x="20.45" y="-8.2"/></g></g><g id="l">&gt;<g transform="translate(23.45 29.5)"><use height="9.95" transform="matrix(1.1582 0 0 .9888 -15.288 -5.894)" width="25.5" xlink:href="#P"/><use height="2.4" width="2.4" xlink:href="#Q" x="-22.35" y="-10.6"/><use height="2.4" width="2.4" xlink:href="#Q" x="-23.45" y="-17"/><use height="2.4" width="2.4" xlink:href="#Q" x="-13.55" y="-25.6"/><use height="2.4" width="2.4" xlink:href="#Q" x="1.45" y="-29.5"/><use height="2.4" width="2.4" xlink:href="#Q" x="4.45" y="-25.6"/><use height="2.4" width="2.4" xlink:href="#Q" x="15.05" y="-14.8"/><use height="2.4" width="2.4" xlink:href="#Q" x="22.65" y="-12.2"/><use height="2.4" width="2.4" xlink:href="#Q" x="20.45" y="-8.2"/></g></g><g id="m">&gt;<g transform="translate(23.45 29.5)"><use height="9.95" transform="matrix(1.1147 0 0 1.0528 -14.714 -6.029)" width="25.5" xlink:href="#S"/><use height="2.4" width="2.4" xlink:href="#T" x="21.1" y="-8.9"/><use height="2.4" width="2.4" xlink:href="#T" x="21.1" y="-15.5"/><use height="2.4" width="2.4" xlink:href="#T" x="18" y="-20.7"/><use height="2.4" width="2.4" xlink:href="#T" x="13.2" y="-15"/><use height="2.4" width="2.4" xlink:href="#T" x="-5.5" y="-26.1"/><use height="2.4" width="2.4" xlink:href="#T" x="-11.4" y="-24.4"/><use height="2.4" width="2.4" xlink:href="#T" x="-22.3" y="-16.5"/><use height="2.4" width="2.4" xlink:href="#T" x="-15.4" y="-18.8"/><use height="2.4" width="2.4" xlink:href="#T" x="-21.9" y="-3.8"/></g></g><g id="n">&gt;<g transform="translate(23.45 29.5)"><use height="9.95" transform="matrix(1.0713 0 0 1.1169 -14.141 -6.164)" width="25.5" xlink:href="#V"/><use height="2.4" width="2.4" xlink:href="#W" x="21.1" y="-8.9"/><use height="2.4" width="2.4" xlink:href="#W" x="21.1" y="-15.5"/><use height="2.4" width="2.4" xlink:href="#W" x="18" y="-20.7"/><use height="2.4" width="2.4" xlink:href="#W" x="13.2" y="-15"/><use height="2.4" width="2.4" xlink:href="#W" x="-5.5" y="-26.1"/><use height="2.4" width="2.4" xlink:href="#W" x="-11.4" y="-24.4"/><use height="2.4" width="2.4" xlink:href="#W" x="-22.3" y="-16.5"/><use height="2.4" width="2.4" xlink:href="#W" x="-15.4" y="-18.8"/><use height="2.4" width="2.4" xlink:href="#W" x="-21.9" y="-3.8"/></g></g><g id="o">&gt;<g transform="translate(23.45 29.5)"><use height="9.95" transform="matrix(1.0278 0 0 1.1809 -13.567 -6.3)" width="25.5" xlink:href="#Y"/><use height="2.4" width="2.4" xlink:href="#Z" x="21.1" y="-8.9"/><use height="2.4" width="2.4" xlink:href="#Z" x="21.1" y="-15.5"/><use height="2.4" width="2.4" xlink:href="#Z" x="18" y="-20.7"/><use height="2.4" width="2.4" xlink:href="#Z" x="13.2" y="-15"/><use height="2.4" width="2.4" xlink:href="#Z" x="-5.5" y="-26.1"/><use height="2.4" width="2.4" xlink:href="#Z" x="-11.4" y="-24.4"/><use height="2.4" width="2.4" xlink:href="#Z" x="-22.3" y="-16.5"/><use height="2.4" width="2.4" xlink:href="#Z" x="-15.4" y="-18.8"/><use height="2.4" width="2.4" xlink:href="#Z" x="-21.9" y="-3.8"/></g></g><g id="p">&gt;<g transform="translate(23.45 29.5)"><use height="9.95" transform="matrix(.9844 0 0 1.2449 -12.994 -6.485)" width="25.5" xlink:href="#b"/><use height="2.4" width="2.4" xlink:href="#c" x="21.1" y="-8.9"/><use height="2.4" width="2.4" xlink:href="#c" x="21.1" y="-15.5"/><use height="2.4" width="2.4" xlink:href="#c" x="18" y="-20.7"/><use height="2.4" width="2.4" xlink:href="#c" x="13.2" y="-15"/><use height="2.4" width="2.4" xlink:href="#c" x="-5.5" y="-26.1"/><use height="2.4" width="2.4" xlink:href="#c" x="-11.4" y="-24.4"/><use height="2.4" width="2.4" xlink:href="#c" x="-22.3" y="-16.5"/><use height="2.4" width="2.4" xlink:href="#c" x="-15.4" y="-18.8"/><use height="2.4" width="2.4" xlink:href="#c" x="-21.9" y="-3.8"/></g></g><g id="q">&gt;<g transform="translate(23.45 29.5)"><use height="9.95" transform="matrix(.9409 0 0 1.309 -12.42 -6.57)" width="25.5" xlink:href="#e"/><use height="2.4" width="2.4" xlink:href="#f" x="21.1" y="-8.9"/><use height="2.4" width="2.4" xlink:href="#f" x="21.1" y="-15.5"/><use height="2.4" width="2.4" xlink:href="#f" x="18" y="-20.7"/><use height="2.4" width="2.4" xlink:href="#f" x="13.2" y="-15"/><use height="2.4" width="2.4" xlink:href="#f" x="-5.5" y="-26.1"/><use height="2.4" width="2.4" xlink:href="#f" x="-11.4" y="-24.4"/><use height="2.4" width="2.4" xlink:href="#f" x="-22.3" y="-16.5"/><use height="2.4" width="2.4" xlink:href="#f" x="-15.4" y="-18.8"/><use height="2.4" width="2.4" xlink:href="#f" x="-21.9" y="-3.8"/></g></g></g></svg>