<?xml version="1.0" encoding="UTF-8" standalone="no"?>
<!-- Created with Inkscape (http://www.inkscape.org/) -->

<svg
   version="1.1"
   id="svg1191"
   width="19"
   height="21"
   viewBox="0 0 19.230526 21.854561"
   xmlns="http://www.w3.org/2000/svg"
   xmlns:svg="http://www.w3.org/2000/svg">
  <defs
     id="defs1195" />
  <g
     id="g1197"
     transform="translate(-8.3897915,-8.5376706)">
    <g
       id="g1736">
      <path
         style="fill:#ffffff;fill-opacity:1;stroke:none;stroke-width:1px;stroke-linecap:butt;stroke-linejoin:miter;stroke-opacity:1"
         d="m 12.076588,10.552546 c 1.606395,2.943238 12.107572,17.162018 13.740501,13.49693 1.632929,-3.665087 -0.958156,-8.218198 -1.43422,-8.848091 5.832934,-4.805671 -4.456687,-8.710007 -12.306281,-4.648839 z"
         id="path5844" />
      <path
         style="fill:#f7e11b;stroke-width:0.096"
         d="M 15.84,30.26929 C 12.849063,29.948983 10.514543,28.608126 9.2388805,26.477861 8.0713582,24.528184 8.4390877,22.018662 9.9600003,21.556674 10.230126,21.474621 10.235499,21.350598 9.9749705,21.211168 9.3835937,20.894672 9.3600003,20.670192 9.3600003,15.36 c 0,-5.7667333 -0.0054,-5.7464618 1.7443677,-6.5540218 0.918267,-0.4238035 13.048251,-0.3173939 13.909698,0.122022 2.218431,1.1315988 2.436249,5.7381348 0.30031,6.3511438 -0.221306,0.06351 -0.415466,0.124381 -0.431466,0.13526 -0.016,0.01088 0.308727,0.359487 0.721616,0.774687 2.015442,2.026722 2.642483,6.371004 1.317259,9.126258 C 25.016701,29.276182 21.450977,30.870184 15.84,30.26929 Z m 10.084688,-7.142048 c 0.51678,-0.965611 -0.02689,-4.125148 -0.93799,-5.451151 -0.928524,-1.35136 -3.041294,-2.218759 -3.887681,-1.596091 -0.501782,0.369151 -0.385263,0.65758 0.73251,1.813239 1.229134,1.270795 2.357926,3.028145 2.361412,3.676341 0.0049,0.912909 1.403535,2.170935 1.731749,1.557662 z M 25.227875,11.998427 C 25.262918,11.212012 24.985253,10.615522 24.441448,10.308995 23.837,9.9682851 13.522051,9.8699503 13.190266,10.201735 13.11234,10.27966 13.266404,10.56 13.387154,10.56 c 0.06524,0 0.200038,0.1512 0.29956,0.336 0.09952,0.1848 0.230635,0.336 0.291363,0.336 0.06073,0 0.164193,0.0648 0.229923,0.144 0.06573,0.0792 0.21967,0.144 0.34209,0.144 0.122418,0 0.246226,0.03826 0.275129,0.08503 0.04512,0.073 2.310781,0.08539 2.310781,0.01263 0,-0.04299 0.545857,-0.09529 0.968259,-0.09278 0.215743,0.0013 0.496543,-0.03703 0.624,-0.08515 0.132892,-0.05017 0.743605,-0.05647 1.431742,-0.01477 1.245363,0.07546 1.238786,0.07377 3.504,0.899626 1.376449,0.501828 1.528393,0.470139 1.563874,-0.326159 z"
         id="path1746" />
      <path
         style="fill:#cfaf05;stroke-width:0.096"
         d="M 15.456,30.196996 C 12.589995,29.786559 10.804813,28.743426 9.3801801,26.646719 8.150028,24.83624 8.3174199,22.39346 9.7201078,21.686097 9.9444483,21.572963 10.144062,21.466049 10.163692,21.448508 10.183323,21.430968 10.071029,21.28826 9.9141488,21.131379 9.3814217,20.598652 9.3600003,20.371841 9.3600003,15.264 c 0,-5.203853 -0.02834,-4.971397 0.6971747,-5.7184367 0.921498,-0.9488356 0.933888,-0.9504472 7.542306,-0.9810457 7.038548,-0.03259 7.226934,-0.01182 8.166165,0.9003503 1.552243,1.5075191 1.234344,5.3800771 -0.477028,5.8110061 -0.533186,0.134258 -0.552159,0.07468 0.284154,0.892211 1.310061,1.280638 1.875305,2.827296 1.950071,5.335916 0.18565,6.229089 -4.699146,9.748113 -12.066843,8.692995 z m 2.448,-3.899671 c 0.211201,-0.05588 0.520129,-0.163643 0.686509,-0.239464 0.16638,-0.07582 0.348984,-0.13786 0.405787,-0.13786 0.0568,0 0.178876,-0.1188 0.271274,-0.264 0.0924,-0.1452 0.209153,-0.292945 0.259457,-0.328323 0.489362,-0.344159 -0.372445,-1.138334 -0.877031,-0.808203 -0.847097,0.554221 -1.239132,0.406438 -1.983743,-0.747803 -0.892757,-1.383885 -2.535668,-1.963782 -3.909252,-1.379848 -2.028758,0.86246 2.800028,4.526502 5.146999,3.905501 z m 7.167337,-0.90543 c 1.993765,-2.91286 1.049356,-7.817606 -1.762328,-9.152557 -1.35227,-0.64204 -3.578892,-0.663512 -5.309009,-0.0512 -1.176454,0.416365 -1.065237,0.473118 -1.134337,-0.57884 -0.09217,-1.403213 -0.311375,-1.334406 4.110338,-1.290238 3.951972,0.03948 4.321064,-0.155202 4.305739,-2.271063 C 25.26708,10.023434 24.963649,9.9505086 16.8,10.009493 c -5.385671,0.03891 -5.663819,0.0946 -4.823042,0.965622 0.21283,0.220486 0.478759,0.584482 0.590954,0.808882 0.112195,0.2244 0.243402,0.408 0.291571,0.408 0.04817,0 0.117104,0.0972 0.153191,0.216 0.03609,0.1188 0.168544,0.353448 0.294351,0.521441 0.375818,0.501836 0.575561,1.191268 0.856351,2.955773 0.145443,0.913979 0.504012,1.598089 0.87463,1.668697 0.0979,0.01865 0.253241,0.100627 0.34521,0.182169 0.207211,0.183719 1.694916,0.337457 1.872771,0.193531 1.060737,-0.858386 3.444216,0.759608 3.992696,2.71039 0.2321,0.825512 0.198201,3.033801 -0.05118,3.334291 -0.05505,0.06633 -0.0794,0.228853 -0.05411,0.361157 0.03086,0.161452 0.003,0.240552 -0.0847,0.240552 -0.07188,0 -0.130687,0.04006 -0.130687,0.08903 0,0.125106 0.477739,0.486968 0.642908,0.486968 0.213519,0 1.081948,0.301247 1.140216,0.395526 0.02871,0.04646 0.211658,0.08643 0.406542,0.08881 0.194883,0.0024 0.548734,0.108991 0.786334,0.236899 0.583276,0.314 0.638547,0.291209 1.167336,-0.481343 z"
         id="path1744" />
      <path
         style="fill:#ab8f02;stroke-width:0.096"
         d="M 16.056146,30.240117 C 12.935402,29.911377 10.907349,28.834202 9.4822214,26.748458 8.1412011,24.78581 8.2941713,22.465104 9.8160003,21.684707 10.236244,21.469205 10.261094,21.358568 9.9450857,21.109995 9.4329039,20.707113 9.4080003,20.438883 9.4080003,15.325209 c 0,-7.1865148 -0.5663194,-6.7416034 8.5478887,-6.715386 7.466363,0.021477 7.606524,0.049918 8.388111,1.702058 0.866425,1.831472 0.149302,4.943841 -1.14136,4.953589 -0.532389,0.004 -0.482168,0.164309 0.272226,0.868829 1.907268,1.781178 2.680598,5.843967 1.639069,8.611056 -1.573249,4.179736 -5.415698,6.0891 -11.057789,5.494762 z m 7.278453,-2.866608 c 3.732106,-2.239572 3.727853,-9.441913 -0.0066,-11.168959 -1.499716,-0.693564 -4.143379,-0.663037 -5.736326,0.06624 -0.679049,0.31088 -0.709256,0.27406 -0.675476,-0.823396 C 16.944,14.544 16.944,14.544 20.352001,14.493322 c 2.537688,-0.03774 3.513369,-0.08487 3.82061,-0.184576 1.653225,-0.536498 1.556624,-3.750319 -0.126775,-4.217669 -0.540229,-0.1499791 -11.414064,-0.1480572 -12.010486,0.0021 -1.133277,0.285362 -1.481484,1.487566 -0.643178,2.220607 0.195106,0.170607 0.400883,0.367289 0.457283,0.437075 0.0564,0.06978 0.174876,0.206914 0.263279,0.304732 0.224506,0.248418 0.330036,0.474409 0.403637,0.864386 0.03488,0.1848 0.146433,0.4008 0.2479,0.48 0.140219,0.109448 0.220993,0.392907 0.336636,1.181352 0.08368,0.570544 0.18891,1.110544 0.233838,1.200001 0.109158,0.217347 0.267341,0.757272 0.342967,1.170648 0.03381,0.1848 0.112954,0.440269 0.175879,0.567709 0.08928,0.180815 0.0886,0.240376 -0.0031,0.271171 -0.08751,0.02939 -0.07873,0.09865 0.0344,0.271313 0.138836,0.211891 0.138622,0.236952 -0.0025,0.291099 -0.08492,0.03259 -0.154399,0.15478 -0.154399,0.27154 0,0.116759 -0.151447,0.382138 -0.336549,0.589729 -0.474722,0.532402 -0.305572,0.651481 0.838727,0.590453 1.109395,-0.05917 1.689251,-0.335216 2.268738,-1.08007 0.899889,-1.156689 2.568401,-0.989594 2.623093,0.262692 0.120786,2.76559 -0.103388,4.217139 -0.708232,4.585903 -0.66339,0.404457 -1.041133,0.227511 -1.731753,-0.811207 -1.069396,-1.608411 -3.531444,-2.140945 -5.152263,-1.114419 -0.397257,0.251597 0.536664,1.636468 1.808504,2.681753 0.234445,0.192683 0.532353,0.447534 0.662017,0.566334 0.129665,0.1188 0.276447,0.216 0.326184,0.216 0.04974,0 0.423365,0.146383 0.830287,0.325296 0.922526,0.405611 2.210498,0.63098 3.120113,0.545957 1.384378,-0.129402 2.899998,-0.04931 3.277084,0.173177 0.189764,0.111964 0.40699,0.20357 0.482724,0.20357 0.07573,0 0.191656,0.0864 0.257605,0.192 0.169549,0.271491 0.338858,0.242442 1.040319,-0.178492 z"
         id="path1742" />
      <path
         style="fill:#8c700b;stroke-width:0.096"
         d="M 15.84,30.17329 C 10.32204,29.582359 6.0968288,23.729284 9.7680003,21.761907 10.336355,21.457327 10.370589,21.381025 10.036966,21.162427 9.4783478,20.796406 9.4560003,20.571361 9.4560003,15.312 c 0,-5.3555565 -0.036073,-5.053404 0.6871777,-5.7558167 0.922445,-0.8958668 0.673446,-0.8681831 7.808822,-0.8681831 7.025204,0 6.604613,-0.033129 7.509066,0.5914646 1.78571,1.2331662 1.570187,5.6471662 -0.290262,5.9446642 -0.534079,0.0854 -0.509342,0.206413 0.161465,0.789863 2.117395,1.841654 2.864578,6.451752 1.503955,9.279356 -1.886467,3.920394 -5.3993,5.479331 -10.996224,4.879942 z m 4.809684,-1.604056 c 4.296568,-0.697476 6.681485,-5.184059 5.08337,-9.562999 -1.114333,-3.053346 -4.609602,-4.286297 -8.048225,-2.839001 -0.325074,0.136822 -0.613944,0.248766 -0.641936,0.248766 -0.02799,0 -0.05089,-0.4104 -0.05089,-0.912 0,-1.056095 -0.473043,-0.944152 4.032001,-0.954144 2.78233,-0.0062 3.189001,-0.0562 3.695527,-0.454635 0.778374,-0.612269 0.878416,-2.776806 0.164811,-3.565922 -0.48055,-0.5313989 -0.340124,-0.519936 -6.836342,-0.5580735 -6.63733,-0.038967 -6.381948,-0.061097 -7.004336,0.6069595 -0.356993,0.383185 -0.198457,3.937643 0.194284,4.356003 0.102329,0.109003 0.186052,0.289288 0.186052,0.400634 0,0.111346 0.101765,0.324562 0.226145,0.473812 0.242144,0.290566 0.356672,0.737302 0.395187,1.541493 0.01323,0.276168 0.07434,0.562723 0.135808,0.636788 0.08722,0.105095 0.07827,0.147515 -0.04077,0.193196 -0.0839,0.03219 -0.124478,0.10393 -0.09019,0.159417 0.03429,0.05549 0.01283,0.160552 -0.0477,0.233481 -0.06053,0.07293 -0.123058,0.254636 -0.13896,0.403794 -0.0159,0.149158 -0.08158,0.271197 -0.145958,0.271197 -0.06437,0 -0.172322,0.0756 -0.239886,0.168 -0.06757,0.0924 -0.172083,0.168001 -0.232262,0.168001 -0.579566,0 0.04781,0.908709 0.763942,1.106513 1.972601,0.544858 3.454993,0.273798 4.517175,-0.82598 1.680635,-1.740121 2.547692,-1.020914 2.455321,2.036637 -0.09296,3.077024 -0.93728,3.752096 -2.276179,1.819908 -1.094955,-1.580146 -2.106791,-1.885814 -4.609676,-1.392544 -1.416101,0.279086 -1.847099,0.59178 -1.973014,1.431443 -0.113337,0.755784 0.396272,1.704692 0.755423,1.406622 0.07693,-0.06385 0.174789,-0.05037 0.300211,0.04134 0.102343,0.07484 0.254919,0.136063 0.33906,0.136063 0.08414,0 0.281083,0.106178 0.437652,0.23595 0.682268,0.565507 0.872796,0.701571 1.0678,0.762568 0.113922,0.03563 0.231367,0.127946 0.260986,0.205136 0.02962,0.07719 0.124547,0.140346 0.210947,0.140346 0.0864,0 0.336156,0.120146 0.555013,0.26699 0.218857,0.146844 0.570722,0.345019 0.781922,0.440389 0.2112,0.09537 0.6,0.272364 0.864,0.393321 0.767839,0.351802 1.01738,0.440834 1.09724,0.391478 0.04117,-0.02544 0.175061,0.06041 0.29754,0.19078 0.269575,0.28695 0.38047,0.302905 0.313036,0.04504 -0.06744,-0.257879 0.08324,-0.242244 0.364977,0.03787 0.284953,0.283308 1.537364,0.33346 2.880891,0.11536 z"
         id="path1740" />
      <path
         style="fill:#7c5900;stroke-width:0.096"
         d="M 15.84,30.046335 C 12.973561,29.712357 11.085968,28.717612 9.7403215,26.831857 8.30388,24.818864 8.4254493,22.421586 9.9970947,21.768439 10.539395,21.54307 10.596544,21.335692 10.183577,21.091747 9.5716009,20.730243 9.5520003,20.550873 9.5520003,15.312 c 0,-5.6076698 -0.016489,-5.5448186 1.6575997,-6.3181056 0.882162,-0.4074837 12.825254,-0.3129609 13.680808,0.1082759 2.173843,1.0703037 2.330476,5.4740287 0.213593,6.0050967 -0.657667,0.16499 -0.669236,0.381184 -0.04568,0.853665 2.53308,1.919371 3.117956,6.967689 1.180008,10.185164 -1.912759,3.175653 -5.397868,4.482859 -10.398326,3.900239 z m 4.560001,-1.254349 c 4.895639,-0.825447 7.342145,-5.915711 5.11192,-10.635991 -1.15978,-2.454678 -5.280752,-3.448001 -8.159921,-1.966873 -0.264,0.135809 -0.264,0.135809 -0.264,-0.726237 0,-0.862047 0,-0.862047 3.528001,-0.890466 4.643029,-0.0374 5.364302,-0.497798 4.827886,-3.081702 C 25.095584,9.8129571 25.216749,9.8400003 18.048,9.8400003 c -8.2186903,0 -7.323267,-0.6876865 -7.240204,5.5604827 0.07558,5.685012 -0.06116,5.273946 1.839693,5.530747 2.062258,0.278607 3.109662,-0.0067 4.097064,-1.116105 0.631927,-0.709995 1.40482,-0.844084 1.916897,-0.332562 0.44156,0.441081 0.294051,4.309121 -0.183331,4.807402 -0.581579,0.607037 -0.962175,0.436562 -1.761726,-0.789103 -0.96195,-1.474616 -2.163827,-1.773293 -4.900946,-1.217932 -4.1288659,0.837747 -1.011598,5.865707 3.985888,6.42899 0.522866,0.05893 1.166665,0.14368 1.430665,0.188326 0.55526,0.0939 2.328383,0.03331 3.168001,-0.10826 z"
         id="path1738" />
    </g>
  </g>
</svg>
