<?xml version="1.0" encoding="UTF-8" standalone="no"?>
<!-- Created with Inkscape (http://www.inkscape.org/) -->

<svg
   version="1.1"
   id="svg1124"
   width="19"
   height="21"
   viewBox="0 0 20.502685 21.931526"
   xmlns="http://www.w3.org/2000/svg"
   xmlns:svg="http://www.w3.org/2000/svg">
  <defs
     id="defs1128" />
  <g
     id="g1130"
     transform="translate(-8.4751339,-8.4819397)">
    <g
       id="g1768">
      <path
         style="fill:#fefefc;fill-opacity:1;stroke:none;stroke-width:1px;stroke-linecap:butt;stroke-linejoin:miter;stroke-opacity:1"
         d="M 15.169329,10.98921 C 27.089197,24.265804 25.409862,26.863837 27.06277,24.136949 28.715678,21.41006 25.857345,16.587354 25.857345,16.587354 32.019761,14.061816 19.86849,4.7606257 15.169329,10.98921 Z"
         id="path5089" />
      <path
         style="fill:#f8e11b;stroke-width:0.096"
         d="M 15.512158,30.18663 C 9.9764868,29.432986 8.477535,27.114004 8.5657158,19.44 8.6291424,13.92026 9.5654272,11.477183 12.221469,9.9009353 15.074177,8.2079726 22.223891,8.0465293 25.384531,9.6037078 c 3.270935,1.6115192 4.237606,5.7230172 1.635037,6.9542292 -0.617846,0.292289 -0.619166,0.295544 -0.19205,0.474004 1.174791,0.49086 2.235125,3.180732 2.139648,5.427897 -0.249792,5.879137 -5.381257,8.825978 -13.455008,7.726792 z m 11.819228,-6.978629 c 0.805949,-1.493946 -0.47441,-4.696612 -2.310398,-5.779185 -2.150059,-1.267762 -3.221445,-0.135334 -1.569324,1.658737 1.005077,1.091434 1.364794,1.588922 1.950281,2.697237 0.902724,1.70884 1.52695,2.169287 1.929441,1.423211 z m -0.372619,-9.472587 c 0.207485,-2.116113 -3.299635,-3.7514137 -8.045408,-3.7514137 -2.092881,0 -3.897419,0.4946427 -3.025359,0.8292837 0.0792,0.03039 0.144,0.128869 0.144,0.218839 0,0.278774 0.818268,0.415266 2.433196,0.405871 0.800142,-0.0047 1.584403,0.03244 1.742803,0.08242 0.1584,0.04999 0.7416,0.225414 1.296,0.389837 0.600081,0.177971 1.493619,0.552028 2.208,0.924321 2.390061,1.245562 3.191175,1.467836 3.246768,0.900838 z"
         id="path1778" />
      <path
         style="fill:#d3b208;stroke-width:0.096"
         d="M 15.552,30.187386 C 10.074666,29.426831 8.5449571,27.161463 8.5442702,19.80954 c -4.896e-4,-5.210035 0.6989641,-7.461106 2.8952288,-9.317828 3.223559,-2.7251972 12.549163,-2.6449447 15.3925,0.132461 2.082377,2.034091 2.275036,4.729595 0.413246,5.781739 -0.863069,0.487742 -0.83469,0.449672 -0.454478,0.609659 1.062588,0.447122 2.07736,2.705469 2.16782,4.82443 0.26105,6.11479 -5.163085,9.492036 -13.406587,8.347385 z m 3.724796,-4.06925 c 1.152722,-0.36825 1.438863,-0.996413 0.826583,-1.814589 -0.01336,-0.01785 -0.152786,0.06255 -0.309841,0.178666 -0.77408,0.572303 -1.831385,0.235023 -2.113528,-0.674212 -0.582635,-1.877603 -0.173985,-3.637257 0.934109,-4.022295 0.284967,-0.09902 0.557113,-0.24971 0.60477,-0.33487 0.312114,-0.557715 1.85001,-0.02562 2.423607,0.83854 0.645341,0.972248 1.022926,3.147094 0.681931,3.927847 -0.139222,0.31877 1.128733,1.118582 2.018372,1.273166 0.528265,0.09179 1.157389,0.305721 1.436087,0.488331 0.432289,0.283247 0.935451,-0.442706 1.457402,-2.102714 0.950803,-3.023923 -0.659805,-6.293341 -3.428289,-6.959177 -1.448415,-0.348353 -4.220525,-0.144029 -5.746863,0.423582 -0.669059,0.248809 -0.967479,-2.502941 -0.335005,-3.089099 0.481069,-0.445841 1.51469,-0.506746 2.018316,-0.118929 0.08119,0.06252 0.09725,0.02502 0.05778,-0.134896 -0.05467,-0.221487 -0.05467,-0.221487 0.191655,0.0038 0.246326,0.225315 0.246326,0.225315 0.278223,0.01442 0.0319,-0.210897 0.0319,-0.210897 0.283042,-0.01246 0.13813,0.109141 0.278594,0.170988 0.312144,0.137438 0.136367,-0.136366 0.578121,0.234643 0.746162,0.626669 0.215067,0.501729 0.214712,0.49662 0.03455,0.49662 -0.331506,0 -0.10782,0.18385 0.340726,0.280046 0.994001,0.213174 3.916288,-0.05944 4.460661,-0.416126 1.199467,-0.785921 0.324332,-3.109981 -1.548031,-4.111041 -3.581559,-1.9148837 -12.953676,-0.966588 -11.989693,1.213149 0.302205,0.683338 0.520935,2.261788 0.586714,4.233972 0.02642,0.792 0.06732,1.6776 0.09089,1.968 0.02357,0.2904 0.0636,1.0464 0.08895,1.68 0.07232,1.807757 0.22061,2.919076 0.436023,3.267623 0.104369,0.168871 0.189762,0.359222 0.189762,0.423001 0,0.199973 0.86898,1.255632 1.28363,1.559383 1.192867,0.873836 2.489083,1.139508 3.689166,0.756129 z"
         id="path1776" />
      <path
         style="fill:#ab8f03;stroke-width:0.096"
         d="M 16.32,30.229661 C 9.8823329,29.665401 7.8613037,26.205449 8.6299616,17.064506 9.1835231,10.481509 13.509279,7.6668186 21.50813,8.6849187 c 6.103504,0.7768588 9.652086,6.0677913 5.316158,7.9263873 -0.50836,0.217908 -0.5151,0.244175 -0.106462,0.414915 1.24583,0.52054 2.435605,3.517493 2.238474,5.638544 -0.524988,5.648659 -4.863805,8.246152 -12.6363,7.564896 z m 8.697115,-3.044794 c 3.417541,-2.213321 3.342858,-8.033786 -0.126811,-9.8831 -1.475825,-0.786607 -3.86779,-0.84382 -6.342511,-0.151707 -1.072048,0.299823 -0.945284,0.446395 -1.004,-1.160886 -0.04891,-1.338828 -0.04891,-1.338828 0.213205,-1.60094 0.587391,-0.587392 1.110057,-0.501497 2.261764,0.371698 2.347071,1.77949 7.05239,1.213365 7.053088,-0.848599 0.0016,-4.7257784 -13.514465,-5.5609733 -15.643236,-0.966638 -0.166232,0.358764 -0.203199,0.527905 -0.125827,0.575724 0.21164,0.1308 0.717605,1.414194 0.800931,2.031581 0.173198,1.283287 0.286598,2.390884 0.378406,3.696 0.14192,2.01749 0.245532,2.8356 0.417945,3.300071 0.08576,0.231038 0.159326,0.490238 0.163476,0.576 0.0041,0.08576 0.132883,0.35033 0.286074,0.58793 0.153189,0.2376 0.325243,0.54 0.382342,0.672 0.232036,0.536421 1.303635,1.433278 2.206054,1.846321 1.315636,0.602174 2.328111,0.767643 3.789984,0.619396 2.631232,-0.266829 3.841091,-0.115501 4.18291,0.523194 0.146209,0.273195 0.48221,0.216077 1.106206,-0.188045 z m -6.788493,-2.657163 c -1.368449,-0.74367 -0.772816,-4.766809 0.668711,-4.516737 1.020207,0.176983 1.166911,0.458655 1.166131,2.238977 -9.6e-4,2.166272 -0.621791,2.936981 -1.834842,2.27776 z"
         id="path1774" />
      <path
         style="fill:#8b6f09;stroke-width:0.096"
         d="M 15.792,30.135278 C 10.365644,29.500901 8.7593582,27.333779 8.6667227,20.522209 8.555965,12.378097 10.216441,9.7754153 16.159966,8.7770614 c 1.971602,-0.3311767 5.894879,-0.1139923 7.905584,0.437637 4.12296,1.1311176 5.949705,5.9864036 2.751109,7.3121466 -0.572598,0.237329 -0.654017,0.418853 -0.229669,0.512055 1.407645,0.309171 2.669558,3.958079 2.211946,6.395998 -0.981898,5.231041 -5.530854,7.574385 -13.006936,6.70038 z m 6.659725,-1.712628 c 2.56989,-0.538324 4.158647,-1.962768 4.84997,-4.348378 1.564505,-5.39878 -2.899702,-8.897263 -8.869743,-6.950986 -0.913562,0.297829 -0.863952,0.36118 -0.863952,-1.103263 0,-1.958127 0.69674,-2.474747 1.983565,-1.470776 1.755413,1.36956 2.637346,1.551114 5.389498,1.109476 1.722014,-0.276333 2.169498,-0.609807 2.175614,-1.621313 0.03154,-5.2160585 -13.623371,-5.8043444 -16.094991,-0.69341 -0.646245,1.336337 -0.979702,3.755437 -0.570246,4.136903 0.11485,0.106999 0.186122,0.231265 0.158383,0.276148 -0.02774,0.04488 0.0294,0.269108 0.126985,0.498277 0.09758,0.22917 0.158434,0.472125 0.13523,0.5399 -0.0232,0.06777 0.0087,0.184502 0.07082,0.259393 0.06216,0.07489 0.08493,0.224639 0.05061,0.332772 -0.03628,0.114321 -0.01951,0.196608 0.04007,0.196608 0.05636,0 0.104366,0.0756 0.106683,0.168 0.0023,0.0924 0.06144,0.328292 0.131384,0.524206 0.08511,0.238407 0.09388,0.3673 0.02651,0.389757 -0.06295,0.02098 -0.06976,0.103314 -0.01817,0.219794 0.04537,0.102434 0.09378,0.251043 0.107581,0.330243 0.11504,0.660063 0.732556,2.513795 0.906066,2.719943 0.05187,0.06163 0.270197,0.389638 0.485161,0.728905 0.214964,0.339266 0.564072,0.771266 0.775794,0.96 0.211722,0.188733 0.499364,0.453472 0.639204,0.588308 0.233444,0.22509 1.187816,0.904373 1.510125,1.074844 0.07487,0.0396 0.21173,0.115302 0.30413,0.168229 0.0924,0.05293 0.275921,0.142333 0.407824,0.198682 0.131903,0.05635 0.312781,0.168478 0.401951,0.249174 0.08917,0.0807 0.206351,0.119391 0.260404,0.08599 0.05405,-0.03341 0.279256,0.07036 0.500453,0.230596 0.239538,0.17352 0.522521,0.291928 0.699771,0.292803 0.163678,7.68e-4 0.362397,0.04621 0.441597,0.1009 0.222345,0.153526 2.688386,0.02683 3.731725,-0.19172 z m -4.094952,-3.895129 c -1.038154,-0.451075 -1.022016,-4.035531 0.01983,-4.404807 1.25811,-0.445928 2.246099,2.446811 1.378076,4.034878 -0.257264,0.47067 -0.82206,0.620132 -1.397908,0.369929 z"
         id="path1772" />
      <path
         style="fill:#7c5900;stroke-width:0.096"
         d="M 16.08,30.038345 C 10.20008,29.424958 8.6377593,27.118657 8.7622154,19.235823 8.8967768,10.712939 12.62467,7.7217869 21.676361,8.8738933 c 5.853288,0.7450113 9.256141,5.9992427 4.945162,7.6356607 -0.6028,0.228818 -0.619025,0.461946 -0.04546,0.653135 1.442758,0.48092 2.578363,3.925941 2.089473,6.338715 -1.039134,5.128336 -5.228698,7.3044 -12.58554,6.536941 z m 5.510538,-1.292502 c 3.690662,-0.584158 5.874728,-2.824424 6.12425,-6.281842 0.3328,-4.611315 -3.891446,-7.11541 -9.224495,-5.468199 -0.788817,0.24364 -0.692706,0.377526 -0.773019,-1.076835 -0.07627,-1.381201 -0.01264,-1.54185 0.66074,-1.668178 0.497809,-0.09339 0.700017,-0.01055 1.445985,0.592394 1.476911,1.19374 4.293108,1.474537 6.406778,0.638807 2.36389,-0.934667 0.51805,-4.368146 -2.794102,-5.197357 -5.614214,-1.4055434 -10.788332,-0.171739 -12.486812,2.977565 -1.1350345,2.104568 -1.3245884,11.38248 -0.23306,11.407326 0.05984,0.0014 0.140021,0.09968 0.178176,0.218477 0.05875,0.182929 0.07624,0.190277 0.114235,0.048 0.02468,-0.0924 0.07664,-0.168 0.115476,-0.168 0.103187,0 0.458542,0.281335 0.359915,0.284947 -0.1169,0.0043 0.405565,0.67406 0.751233,0.963053 0.491079,0.410562 0.637163,0.57977 0.580162,0.672 -0.06494,0.105067 0.667951,0.864 0.834348,0.864 0.06289,0 0.03049,0.0648 -0.072,0.144 -0.249969,0.193162 -0.03198,0.370835 0.722111,0.588549 0.292347,0.0844 0.629175,0.19098 0.748506,0.236838 0.119331,0.04586 0.594531,0.128472 1.056,0.183589 0.461469,0.05512 1.141435,0.139587 1.511035,0.187711 0.851168,0.110828 2.801935,0.03875 3.974538,-0.146845 z"
         id="path1770" />
    </g>
  </g>
</svg>
