<svg xmlns="http://www.w3.org/2000/svg" xmlns:xlink="http://www.w3.org/1999/xlink" width="36.05" height="38.3"><use xlink:href="#a" width="22.75" height="15.8" transform="translate(9.1 11.95)"/><defs><g id="a"><path fill="#004566" fill-rule="evenodd" d="M9.95 1.6Q12.5.2 15.65.55q1.8.15 3.4 1l-2.9.85-3.95-.15-.2-.05-2.05-.6m10.5 2.95 1.7 3.55-1.6 1.75-.9.55-1.8.85q-.55.15-1.15.4-.1-1.45.15-2.85l.2-.75.35-.85.1-.15q1.35-1.65 2.95-2.5"/><path fill="#69c" fill-rule="evenodd" d="m9.95 1.6 2.05.6.2.05 3.95.15 2.9-.85 1.4 3q-1.6.85-2.95 2.5l-.1.15-.35.85-.2.75q-.25 1.4-.15 2.85l-3.2.9-3.65.7q-4.9.6-8.4-.7l-.55-.3-.25-.35q-.55-.95 1.1-2.95L2.6 7.9l5.45-5.1 1.9-1.2m-5.8 8.5 1.6-2.3L8.1 5.45l2.6-2.1 1.5-1.1-1.5 1.1-2.6 2.1L5.75 7.8l-1.6 2.3"/><path fill="#fff" fill-rule="evenodd" d="M22.15 8.1q.2 1.9-.05 2.3l-.1.15q-1.85 2.25-8.4 3.9-7.25 1.75-12.05 0l-.55-.3Q.65 13.8.65 11.9l.25.35.55.3q3.5 1.3 8.4.7l3.65-.7 3.2-.9q.6-.25 1.15-.4l1.8-.85.9-.55 1.6-1.75"/><path fill="none" stroke="#000" stroke-linecap="round" stroke-linejoin="round" d="M19.05 1.55q-1.6-.85-3.4-1Q12.5.2 9.95 1.6l-1.9 1.2L2.6 7.9l-.85 1.05q-1.65 2-1.1 2.95 0 1.9.35 2.25l.55.3q4.8 1.75 12.05 0 6.55-1.65 8.4-3.9l.1-.15q.25-.4.05-2.3l-1.7-3.55-1.4-3m-6.85.7-1.5 1.1-2.6 2.1L5.75 7.8l-1.6 2.3"/><path fill="none" stroke="#000" stroke-linecap="round" stroke-linejoin="round" d="M8.6 2.3h-.45l-.7.3-.3.7.3.7m-.6.5-1.4-.15q-.45 0-.7.3-.35.25-.35.7l.3.7m-.45.7-1.2-.1q-.45 0-.7.3-.35.25-.35.7l.3.7"/><path fill="#fff" fill-rule="evenodd" d="M6.2 7.2h-.05q1.6.5 3 1.85.3.25.3.7l-.25.7q-.3.3-.7.3l-.75-.25q-1-1-2.2-1.4L3.3 8.7l-.7-.3-.3-.7q0-.45.35-.7.25-.3.7-.3l2.85.5m5.35-.45q.3.25.3.7 0 .4-.25.7-.3.3-.7.3l-.75-.25Q9.1 7.2 7.9 6.75L5.7 6.4 5 6.1l-.3-.7q0-.45.35-.7.25-.3.7-.3l2.75.45h.05q1.65.55 3 1.9m-3.8-4.1.7-.3 2.65.4q1.7.5 3.15 1.9.3.25.3.7l-.25.7-.7.3-.75-.25q-1.05-1.05-2.3-1.45h-.05l-2.05-.3-.7-.3-.3-.7.3-.7"/></g></defs><path fill="#69c" fill-rule="evenodd" d="m21.1 14.15.2.05-.1.05-.1-.1"/><path fill="#385683" fill-rule="evenodd" d="m21.3 14.2 3.95.15 2.9-.85 1.4 3q-1.6.85-2.95 2.5l-.1.15-.35.85-.2.75q-.25 1.4-.15 2.85l-3.2.9-3.65.7q-4.9.6-8.4-.7l-.55-.3-.25-.35q-.55-.95 1.1-2.95l.85-1.05 5.45-5.1 1.9-1.2 2.05.6.1.1.1-.05m-8.05 7.85 1.6-2.3 2.35-2.35 2.6-2.1 1.4-1.05-1.4 1.05-2.6 2.1-2.35 2.35-1.6 2.3"/><path fill="#22344d" fill-rule="evenodd" d="m28.15 13.5-2.9.85-3.95-.15-.2-.05-2.05-.6q2.55-1.4 5.7-1.05 1.8.15 3.4 1"/><path fill="#fff" fill-rule="evenodd" d="m9.75 23.85.25.35.55.3q3.5 1.3 8.4.7l3.65-.7 3.2-.9q-.1-1.45.15-2.85l.2-.75.35-.85.1-.15q1.35-1.65 2.95-2.5l1.7 3.55q.2 1.9-.05 2.3l-.1.15q-1.85 2.25-8.4 3.9-7.25 1.75-12.05 0l-.55-.3q-.35-.35-.35-2.25"/><path fill="none" stroke="#000" stroke-linecap="round" stroke-linejoin="round" d="M28.15 13.5q-1.6-.85-3.4-1-3.15-.35-5.7 1.05m10.5 2.95-1.4-3m1.4 3 1.7 3.55q.2 1.9-.05 2.3l-.1.15q-1.85 2.25-8.4 3.9-7.25 1.75-12.05 0l-.55-.3q-.35-.35-.35-2.25-.55-.95 1.1-2.95l.85-1.05 5.45-5.1 1.9-1.2"/><path fill="none" stroke="#003" stroke-linecap="round" stroke-linejoin="round" d="m21.3 14.2-.1.05-1.4 1.05-2.6 2.1-2.35 2.35-1.6 2.3"/><path fill="none" stroke="#000" stroke-linecap="round" stroke-linejoin="round" d="M17.7 14.25h-.45l-.7.3-.3.7.3.7m-.6.5-1.4-.15q-.45 0-.7.3-.35.25-.35.7l.3.7m-.45.7-1.2-.1-.7.3q-.35.25-.35.7l.3.7"/><path fill="#e7f0fe" fill-rule="evenodd" d="M15.3 19.15h-.05q1.6.5 3 1.85.3.25.3.7l-.25.7q-.3.3-.7.3l-.75-.25q-1-1-2.2-1.4l-2.25-.4q-.45 0-.7-.3l-.3-.7q0-.45.35-.7.25-.3.7-.3l2.85.5m5.35-.45.3.7-.25.7q-.3.3-.7.3l-.75-.25q-1.05-1-2.25-1.45l-2.2-.35q-.45 0-.7-.3l-.3-.7q0-.45.35-.7.25-.3.7-.3l2.75.45h.05q1.65.55 3 1.9m2.7-2.1.3.7-.25.7q-.3.3-.7.3-.45 0-.75-.25-1.05-1.05-2.3-1.45h-.05l-2.05-.3q-.4 0-.7-.3l-.3-.7.3-.7.7-.3 2.65.4q1.7.5 3.15 1.9"/><path fill="#69c" fill-rule="evenodd" d="m21.05 14.15.2.05-.1.05-.1-.1"/><path fill="#fff" fill-rule="evenodd" d="m9.7 23.85.25.35.55.3q3.5 1.3 8.4.7l3.65-.7 3.2-.9q-.1-1.45.15-2.85l.2-.75.35-.85.1-.15q1.35-1.65 2.95-2.5l1.7 3.55q.2 1.9-.05 2.3l-.1.15q-1.85 2.25-8.4 3.9-7.25 1.75-12.05 0l-.55-.3q-.35-.35-.35-2.25"/><path fill="#c91dc9" fill-rule="evenodd" d="m21.25 14.2 3.95.15 2.9-.85 1.4 3q-1.6.85-2.95 2.5l-.1.15-.35.85-.2.75q-.25 1.4-.15 2.85l-3.2.9-3.65.7q-4.9.6-8.4-.7l-.55-.3-.25-.35q-.55-.95 1.1-2.95l.85-1.05 5.45-5.1 1.9-1.2 2.05.6.1.1.1-.05m-8.05 7.85 1.6-2.3 2.35-2.35 2.6-2.1 1.4-1.05-1.4 1.05-2.6 2.1-2.35 2.35-1.6 2.3"/><path fill="#702168" fill-rule="evenodd" d="m28.1 13.5-2.9.85-3.95-.15-.2-.05-2.05-.6q2.55-1.4 5.7-1.05 1.8.15 3.4 1"/><path fill="none" stroke="#000" stroke-linecap="round" stroke-linejoin="round" d="M28.1 13.5q-1.6-.85-3.4-1-3.15-.35-5.7 1.05m10.5 2.95-1.4-3m1.4 3 1.7 3.55q.2 1.9-.05 2.3l-.1.15q-1.85 2.25-8.4 3.9-7.25 1.75-12.05 0l-.55-.3q-.35-.35-.35-2.25-.55-.95 1.1-2.95l.85-1.05 5.45-5.1 1.9-1.2"/><path fill="none" stroke="#7e127e" stroke-linecap="round" stroke-linejoin="round" d="m21.25 14.2-.1.05-1.4 1.05-2.6 2.1-2.35 2.35-1.6 2.3"/><path fill="none" stroke="#000" stroke-linecap="round" stroke-linejoin="round" d="M17.65 14.25h-.45l-.7.3-.3.7.3.7m-.6.5-1.4-.15q-.45 0-.7.3-.35.25-.35.7l.3.7m-.45.7-1.2-.1-.7.3q-.35.25-.35.7l.3.7"/><path fill="#fff" fill-rule="evenodd" d="M15.25 19.15h-.05q1.6.5 3 1.85.3.25.3.7l-.25.7q-.3.3-.7.3l-.75-.25q-1-1-2.2-1.4l-2.25-.4q-.45 0-.7-.3l-.3-.7q0-.45.35-.7.25-.3.7-.3l2.85.5m5.35-.45.3.7-.25.7q-.3.3-.7.3l-.75-.25q-1.05-1-2.25-1.45l-2.2-.35q-.45 0-.7-.3l-.3-.7q0-.45.35-.7.25-.3.7-.3l2.75.45h.05q1.65.55 3 1.9m2.7-2.1.3.7-.25.7q-.3.3-.7.3-.45 0-.75-.25-1.05-1.05-2.3-1.45h-.05l-2.05-.3q-.4 0-.7-.3l-.3-.7.3-.7.7-.3 2.65.4q1.7.5 3.15 1.9"/></svg>