<svg xmlns="http://www.w3.org/2000/svg" xmlns:xlink="http://www.w3.org/1999/xlink" width="36.05" height="38.3"><use xlink:href="#a" width="23.15" height="16.5" transform="translate(9.35 11.6)"/><defs><g id="a"><path fill="#fff" fill-rule="evenodd" d="M.65 11.2q.35-1.05 1.5-2.25L3 7.9l5.45-5.1 1.9-1.2Q12.9.2 16.05.55q1.8.15 3.4 1 2.6 2.5 3.05 5.8l-2.55 2-2.85 1.55-3.4 1.65q-1.8.85-3.65 1.15l-3.8-.1q.15-1.95 2.25-4.2-2.1 2.25-2.25 4.2Q4 13.55 2.7 12.2q-1.2.2-2.05-1m3.7-1.95q-1.3 1.5-1.65 2.95.35-1.45 1.65-2.95"/><path fill="#ffb79f" fill-rule="evenodd" d="M.65 11.2q.85 1.2 2.05 1 1.3 1.35 3.55 1.4l3.8.1q1.85-.3 3.65-1.15l3.4-1.65 2.85-1.55 2.55-2 .05.75q.2 1.9-.05 2.3l-.1.15q-1.85 2.25-7.85 4.3t-8.05.45q-2.2.7-3.75-.6l-.8-.25-.55-.3Q.1 12.85.65 11.2m5.6 2.4.25 1.7-.25-1.7m-3.5 1.1q-.35-1.25-.05-2.5-.3 1.25.05 2.5"/><path fill="none" stroke="#000" stroke-linecap="round" stroke-linejoin="round" d="M22.5 7.35q-.45-3.3-3.05-5.8-1.6-.85-3.4-1Q12.9.2 10.35 1.6l-1.9 1.2L3 7.9l-.85 1.05Q1 10.15.65 11.2q-.55 1.65.75 2.95l.55.3.8.25q1.55 1.3 3.75.6l-.25-1.7q.15-1.95 2.25-4.2m-5.8 2.8q.35-1.45 1.65-2.95m18.15-1.9.05.75q.2 1.9-.05 2.3l-.1.15q-1.85 2.25-7.85 4.3t-8.05.45m-3.8-3.1q-.3 1.25.05 2.5"/></g></defs></svg>