<svg xmlns:xlink="http://www.w3.org/1999/xlink" height="38.3" width="36.05" xmlns="http://www.w3.org/2000/svg"><use height="15.8" transform="translate(9.1 11.95)" width="22.75" xlink:href="#a"/><defs><use height="15.8" width="22.75" xlink:href="#b" id="a"/><g id="b"><path d="m7.65-6.3-2.9.85L.8-5.6l-.2-.05-2.05-.6q2.55-1.4 5.7-1.05 1.8.15 3.4 1" fill="#600" fill-rule="evenodd" transform="translate(11.4 7.85)"/><path d="m.8-5.6 3.95.15 2.9-.85 1.4 3q-1.6.85-2.95 2.5L6-.65 5.65.2l-.2.75Q5.2 2.35 5.3 3.8l-3.2.9-3.65.7q-4.9.6-8.4-.7l-.55-.3-.25-.35q-.55-.95 1.1-2.95L-8.8.05l5.45-5.1 1.9-1.2 2.05.6.1.1.1-.05m-8.05 7.85 1.6-2.3L-3.3-2.4l2.6-2.1L.7-5.55-.7-4.5l-2.6 2.1-2.35 2.35-1.6 2.3" fill="#f39" fill-rule="evenodd" transform="translate(11.4 7.85)"/><path d="m.6-5.65.2.05-.1.05-.1-.1" fill="#69c" fill-rule="evenodd" transform="translate(11.4 7.85)"/><path d="m-10.75 4.05.25.35.55.3q3.5 1.3 8.4.7l3.65-.7 3.2-.9q-.1-1.45.15-2.85l.2-.75L6-.65l.1-.15q1.35-1.65 2.95-2.5l1.7 3.55q.2 1.9-.05 2.3l-.1.15Q8.75 4.95 2.2 6.6q-7.25 1.75-12.05 0l-.55-.3q-.35-.35-.35-2.25" fill="#fff" fill-rule="evenodd" transform="translate(11.4 7.85)"/><path d="M7.65-6.3q-1.6-.85-3.4-1-3.15-.35-5.7 1.05l-1.9 1.2L-8.8.05l-.85 1.05q-1.65 2-1.1 2.95 0 1.9.35 2.25l.55.3q4.8 1.75 12.05 0 6.55-1.65 8.4-3.9l.1-.15q.25-.4.05-2.3L9.05-3.3l-1.4-3" fill="none" stroke="#000" stroke-linecap="round" stroke-linejoin="round" transform="translate(11.4 7.85)"/><path d="m.8-5.6-.1.05L-.7-4.5l-2.6 2.1-2.35 2.35-1.6 2.3" fill="none" stroke="#333" stroke-linecap="round" stroke-linejoin="round" transform="translate(11.4 7.85)"/><path d="m-7.15-1.1-1.2-.1-.7.3q-.35.25-.35.7l.3.7m4.55-3.85-1.4-.15q-.45 0-.7.3-.35.25-.35.7l.3.7m3.9-3.75h-.45l-.7.3-.3.7.3.7" fill="none" stroke="#000" stroke-linecap="round" stroke-linejoin="round" transform="translate(11.4 7.85)"/><path d="M-5.2-.65h-.05q1.6.5 3 1.85.3.25.3.7l-.25.7q-.3.3-.7.3l-.75-.25q-1-1-2.2-1.4L-8.1.85q-.45 0-.7-.3l-.3-.7q0-.45.35-.7.25-.3.7-.3l2.85.5M2.85-3.2l.3.7-.25.7q-.3.3-.7.3-.45 0-.75-.25Q.4-2.8-.85-3.2H-.9l-2.05-.3q-.4 0-.7-.3l-.3-.7.3-.7.7-.3 2.65.4q1.7.5 3.15 1.9M.15-1.1l.3.7L.2.3q-.3.3-.7.3l-.75-.25Q-2.3-.65-3.5-1.1l-2.2-.35q-.45 0-.7-.3l-.3-.7q0-.45.35-.7.25-.3.7-.3L-2.9-3h.05q1.65.55 3 1.9" fill="#fff" fill-rule="evenodd" transform="translate(11.4 7.85)"/></g></defs></svg>