<svg xmlns="http://www.w3.org/2000/svg" xmlns:xlink="http://www.w3.org/1999/xlink" width="36.05" height="38.3"><use xlink:href="#a" width="22.5" height="15.85" transform="translate(9.25 11.95)"/><defs><use xlink:href="#b" id="a" width="22.5" height="15.85"/><g id="b"><path fill="#004566" fill-rule="evenodd" d="M.5 10.85v-.05l.05.15-.05-.1M9.8 1.6Q12.35.2 15.5.55q1.8.15 3.4 1-.4.2-1.2.45l-1.7.4-1.75.15q-1.85-.1-4.45-.95"/><path fill="#f8f801" fill-rule="evenodd" d="m18.9 1.55 1.05 2.1q-1.4 4.65-6.35 7.05-.6-.75-1.55-1Q16.6 7.15 17.7 2q.8-.25 1.2-.45"/><path fill="#8f8e01" fill-rule="evenodd" d="m19.95 3.65 1.85 3.7-1.4 1.4-.9.55q-2.1 1.1-5.55 2l-.35-.6q4.95-2.4 6.35-7.05m-5.7-1.1L16 2.4l1.7-.4q-1.1 5.15-5.65 7.7l-1.9-.35.2-.5q2.2-3.1 3.9-6.3"/><path fill="#ccc" fill-rule="evenodd" d="M21.8 7.35q.35 2.75.15 3.05l-.1.15-1.7 1.4-2.65 1.3-3.55 1.1-.5.1-3.6.7q-4.9.6-8.45-.7l-.55-.3Q.6 13.9.5 10.85l.05.1-.05-.15.25.35.55.3q3.5 1.3 8.4.7l.1-.05 3.55-.65.6-.15q3.45-.9 5.55-2l.9-.55 1.4-1.4m-4.3 5.9v-.05q-.25-.9-.2-1.75-.05.85.2 1.75v.05m2.65-3.2v1.9-1.9M9.8 13.3l.05 1.85-.05-1.85m3.95-.9.2 1.95-.2-1.95"/><path fill="#660" fill-rule="evenodd" d="M.5 10.8q.2-.8 1.1-1.85L9.8 1.6q2.6.85 4.45.95-1.7 3.2-3.9 6.3l-.2.5 1.9.35q.95.25 1.55 1l.35.6-.6.15-3.55.65-.1.05q-4.9.6-8.4-.7l-.55-.3-.25-.35"/><path fill="none" stroke="#000" stroke-linecap="round" stroke-linejoin="round" d="m19.95 3.65 1.85 3.7q.35 2.75.15 3.05l-.1.15-1.7 1.4-2.65 1.3-3.55 1.1-.5.1-3.6.7q-4.9.6-8.45-.7l-.55-.3Q.6 13.9.5 10.85v-.05q.2-.8 1.1-1.85L9.8 1.6Q12.35.2 15.5.55q1.8.15 3.4 1l1.05 2.1m.2 8.3v-1.9m-2.85 1.4q-.05.85.2 1.75v.05M.5 10.8l.05.15-.05-.1m13.45 3.5-.2-1.95m-3.9 2.75L9.8 13.3"/><path fill="#f8f801" fill-rule="evenodd" d="M8.65 4.65q.65 0 .85.45.15.5-.2 1.15l-1.15 1.1q-.75.5-1.4.5-.65 0-.85-.5-.2-.45.2-1.1L7.25 5.1l1.4-.45"/></g></defs></svg>