<svg xmlns="http://www.w3.org/2000/svg" xmlns:xlink="http://www.w3.org/1999/xlink" width="36.05" height="38.3"><use xlink:href="#a" width="23.4" height="16.4" transform="translate(9 12.45)"/><defs><g id="a"><path fill="#900" fill-rule="evenodd" d="M11.3 1.15Q13.55.3 16.15.6q1.9.15 3.55 1.05l-1.25.4-1.75.5-1.8.1-1.35-.1-.5-.5-1.75-.9m9.5 1.55q2.4 1.55 1.9 4.95L21.25 9.1l-.95.6-1.9.85q-.65-.55-.7-1.45-.05-1.05.15-2 .1-.95.5-1.8.4-.9 1.05-1.55l1.4-1.05M.65 11.15q-.4-1.95.35-4 .7-2.05 5.25-2.9l.2.05q2.25.8 3.4 3 1.35 2.55.45 5.25L6.55 13q-3.15-.05-5.9-1.75v-.1"/><path fill="#fff" fill-rule="evenodd" d="m13.55 2.55 1.35.1 1.8-.1 1.75-.5 1.25-.4 1.1 1.05-1.4 1.05q-.65.65-1.05 1.55-.4.85-.5 1.8-.2.95-.15 2 .05.9.7 1.45l-3.85 1.2-.6.15-3.65.65q.9-2.7-.45-5.25-1.15-2.2-3.4-3l1.6.1 1.7.2q.95.15 1.75.7l1.55 1.2 1.1.15.4-.15q.5-.4.5-1.2-.05-1-.6-1.8l-.9-.95"/><path fill="#ccc" fill-rule="evenodd" d="M22.7 7.65q.35 2.85.15 3.15l-.1.2L21 12.45l-2.75 1.3-3.65 1.15-.55.15-3.75.65q-5.05.65-8.75-.7L1 14.7q-.3-.3-.35-3.45 2.75 1.7 5.9 1.75l3.75-.45 3.65-.65.6-.15 3.85-1.2 1.9-.85.95-.6 1.45-1.45m-22 3.7-.05-.1.05.1m17.35.55q-.05.9.2 1.85-.25-.95-.2-1.85m-3.7 1 .25 2-.25-2m-4.05.95v1.85-1.85m10.7-3.4v2-2"/><path fill="red" fill-rule="evenodd" d="m11.3 1.15 1.75.9.5.5.9.95q.55.8.6 1.8 0 .8-.5 1.2l-.4.15-1.1-.15-1.55-1.2q-.8-.55-1.75-.7l-1.7-.2-1.6-.1-.2-.05-.05-.05-.05-.35.2-.6 1.1-1.5q.85-.6 1.8-.7l2.05.1"/><path fill="#8f8e01" fill-rule="evenodd" d="M.65 11.25H.6l.05-.1v.1"/><path fill="none" stroke="#333" stroke-linecap="round" stroke-linejoin="round" d="M19.7 1.65Q18.05.75 16.15.6q-2.6-.3-4.85.55l-2.05-.1q-.95.1-1.8.7l-1.1 1.5m13.35-1.6 1.1 1.05q2.4 1.55 1.9 4.95.35 2.85.15 3.15l-.1.2L21 12.45l-2.75 1.3-3.65 1.15-.55.15-3.75.65q-5.05.65-8.75-.7L1 14.7q-.3-.3-.35-3.45H.6l.05-.1q-.4-1.95.35-4 .7-2.05 5.25-2.9m-5.6 7 .05.1m-.05-.1v-.1m9.65 4.55v-1.85m4.3 1.05-.25-2m3.9.85q-.25-.95-.2-1.85m2.95.55v-2"/></g></defs></svg>