<svg xmlns="http://www.w3.org/2000/svg" xmlns:xlink="http://www.w3.org/1999/xlink" width="36.05" height="38.3"><use xlink:href="#a" width="27.4" height="20.35" transform="translate(8.65 7.6)"/><defs><use xlink:href="#b" id="a" width="27.4" height="20.35"/><g id="b"><path fill="#cc8d69" fill-rule="evenodd" d="M23.05 16.1q-.2 1.3-2.55 2.05l-.8-.2 2.05-.45 1.3-1.4M.75 18.35l-.3-1.5Q.3 15.2.65 14.7l3.2-2.35.2-.15 1.35-1.3.5-.6q-1.5 2-5.05 4.4-.35.5-.35 2.15l.25 1.5M10.5.8q1.4.25 2 1.85l2.95-1.5 2.6.95-2.5-.6-3.05 1.15-2-1.85"/><path fill-rule="evenodd" d="m18.05 2.1.2.1.95.4.1.05q.45.35 1.4 3.75l.25.95.7-2.1q.25-.9 1.15-.9.95 0 1.25.85l1 2.7h1.05q.75 0 1.25.75l.05.5q0 .6-.3.85L26 11.2l1 1.7.2.65-.3.8q-.55.7-1.4.4l-1.45-.5-1.15 1.2.1.35.05.3-1.3 1.4-2.05.45-.45-.5-.15-.3-.65-1.15-.55 1.95-.8.8-5.45 1.1-5.8-.3-4.75-.8-.2-.15-.15-.25-.25-1.5q0-1.65.35-2.15 3.55-2.4 5.05-4.4l.4-.6.05-.1.05-.05q1.3-2.35 2.05-8.5L10.5.8l2 1.85 3.05-1.15 2.5.6m1.5 5.6Q18.3 6.3 16.4 6.35q-1.1.05-2 .95-1.1 1.1-1.55 1.25-1.4.4-4.4-1.95 3 2.35 4.4 1.95.45-.15 1.55-1.25.9-.9 2-.95 1.9-.05 3.15 1.35m1.4-.35.25 1 .3 1.1-.3-1.1-.25-1m1.7 6.55 1.05-1.2 2.25.85-1.5-2.45 1.65-1.95h-1.95l-1.3-3.5-1.2 3.7-.15.1.5 2.2h.05l.85 3.8-.25-1.55m-16.7 1.4-3.7-.45 3.7.45"/><path fill="#c5cdd6" fill-rule="evenodd" d="m21.5 9.45.15-.1 1.2-3.7 1.3 3.5h1.95l-1.65 1.95 1.5 2.45-2.25-.85-1.05 1.2-.45-2.3-.15.05-.55-2.2"/><path fill="#7de8ff" fill-rule="evenodd" d="M22.05 11.65H22l-.5-2.2.55 2.2"/><path fill="#875d37" fill-rule="evenodd" d="m22.65 13.9.25 1.55-.85-3.8.15-.05.45 2.3"/><path fill="none" stroke="#000909" stroke-linecap="round" stroke-linejoin="round" d="m18.05 2.1.2.1.95.4.1.05q.45.35 1.4 3.75l.25.95.25 1 .3 1.1.55 2.2.85 3.8m.1.35.05.3q-.2 1.3-2.55 2.05l-.8-.2-.45-.5-.15-.3-.65-1.15-.55 1.95-.8.8-5.45 1.1-5.8-.3-4.75-.8-.2-.15-.15-.25-.25-1.5q0-1.65.35-2.15 3.55-2.4 5.05-4.4l.4-.6.05-.1.05-.05q.6-1.2.95-4.35.4-3.25 1.1-4.15Q9.25.1 10.5.8l2 1.85 3.05-1.15 2.5.6"/><path fill="none" stroke="#cfcfcf" stroke-linecap="round" stroke-linejoin="round" d="M8.45 6.6q3 2.35 4.4 1.95.45-.15 1.55-1.25.9-.9 2-.95 1.9-.05 3.15 1.35m-17.3 7.15 3.7.45"/></g></defs></svg>