<svg xmlns="http://www.w3.org/2000/svg" xmlns:xlink="http://www.w3.org/1999/xlink" width="36.05" height="38.3"><use xlink:href="#a" width="24.95" height="17.8" transform="translate(7.75 12.2)"/><defs><g id="a"><path fill="#c00" fill-rule="evenodd" d="M15.65 10.3q-1.8 1.55-4.65 2.5-3.8 1.3-5.75-2.3Q2.5 12.55.85 9.4 1.45 7.95 3 7.05 4.4 5 7.5 2.65q2.2 0 3.9 1.1 1.65 1.05 3.05 3.05l-.65.65 1.35 2.15.5.7M7.6 8.8q-1.35 0-2.35 1.7 1-1.7 2.35-1.7"/><path fill="#fff" fill-rule="evenodd" d="M12.8 1.55q3.55-2 5.9-.1l1.9 2.05-.95.35-1.55.3 2.1 3.7q.6 1.25.8 2.65l1.7-.55.25 1.25-.1.95q-3.55 1.9-7.35 3.35l.6-.2-1.3.5-.2.05-.95.35-1.1.35-1 .3-2.55.4-2.95.05-.3-.95q-.2-.95.1-1.75l5.4-.2q3.5-1.55 5.55-2.2l-1.15-1.9-.5-.7-1.35-2.15.65-.65.6-.35L16.8 9l.3.5 1.25 2.15.4-.15.9-.4q-.35-1.6-1-2.95L17.3 5.5l-.1-.2.9-1.15q-.95 0-1.75-.5l-3.55-2.1M4.25 13.8q-.65.9-.55 1.8l.4.95-.3-.4-2.05-.25-.35-1q-.2-.85 0-1.5.6.4 1.2.5l1.65-.1m11.25 1.7-.7.3.7-.3m2.85-3.85-1.1.4-.45.15.45-.15 1.1-.4M21 10.5l-1.2.55-.15.05.15-.05 1.2-.55"/><path fill="#900" fill-rule="evenodd" d="m7.5 2.65.8-.6 2.55-1.5 1.95 1 3.55 2.1q.8.5 1.75.5l-.9 1.15.1.2 1.35 2.65q.65 1.35 1 2.95l-.9.4-.4.15L17.1 9.5l-.3-.5-1.75-2.55-.6.35q-1.4-2-3.05-3.05-1.7-1.1-3.9-1.1m13.1.85q1.15-.55 1.6-.75 1.4 1.25 1.85 3.2l.15.85.2 1.75q-.6.85-1.7 1.4l-1.7.55q-.2-1.4-.8-2.65l-2.1-3.7 1.55-.3.95-.35m-15.35 7Q7.2 14.1 11 12.8q2.85-.95 4.65-2.5l1.15 1.9q-2.05.65-5.55 2.2l-5.4.2q-.8-.3-1.55-.8h-.05l-1.65.1q-.6-.1-1.2-.5l-.65-.45-.2-.85q-.2-1.55.3-2.7 1.65 3.15 4.4 1.1l-.05.05q-.75 1.4-.9 3.25.15-1.85.9-3.25l.05-.05"/><path fill="#c9d8e4" fill-rule="evenodd" d="m24.4 8.55.05 1.95-.2.85-1.4.8.1-.95-.25-1.25q1.1-.55 1.7-1.4M4.25 13.8h.05q.75.5 1.55.8-.3.8-.1 1.75l.3.95-.75-.2-1.2-.55-.4-.95q-.1-.9.55-1.8m-2.85-.4q-.2.65 0 1.5l.35 1-.9-.6q-.55-.6-.1-2.35l.65.45"/><path fill="none" stroke="#600" stroke-linecap="round" stroke-linejoin="round" d="M5.25 10.5q1-1.7 2.35-1.7m-3.3 5q.15-1.85.9-3.25l.05-.05"/><path fill="none" stroke="#600" stroke-linecap="round" stroke-linejoin="round" d="m7.5 2.65.8-.6 2.55-1.5 1.95 1 3.55 2.1q.8.5 1.75.5l1.55-.3.95-.35q1.15-.55 1.6-.75 1.4 1.25 1.85 3.2l.15.85.2 1.75.05 1.95-.2.85-1.4.8q-3.55 1.9-7.35 3.35l-.7.3-.2.05-.95.35-1.1.35-1 .3-2.55.4-2.95.05-.75-.2-1.2-.55-.3-.4-2.05-.25-.9-.6q-.55-.6-.1-2.35l-.2-.85q-.2-1.55.3-2.7.6-1.45 2.15-2.35Q4.4 5 7.5 2.65m10.85 9 .4-.15.9-.4.15-.05 1.2-.55 1.7-.55q1.1-.55 1.7-1.4M5.85 14.6q-.8-.3-1.55-.8h-.05l-1.65.1q-.6-.1-1.2-.5l-.65-.45m5.1 1.65 5.4-.2q3.5-1.55 5.55-2.2l.45-.15 1.1-.4"/><path fill="none" stroke="#000" stroke-linecap="round" stroke-linejoin="round" d="M12.8 1.55q3.55-2 5.9-.1l1.9 2.05"/></g></defs></svg>