<svg xmlns="http://www.w3.org/2000/svg" xmlns:xlink="http://www.w3.org/1999/xlink" width="36.05" height="38.3"><use xlink:href="#a" width="23.35" height="15.8" transform="translate(9.4 12.75)"/><defs><g id="a"><path fill="#c99f55" fill-rule="evenodd" d="m19.7 12.2.85-1.6q.5-.3 1.25-2.9l1 .75q.3.4.15 1.25-.15.95-.8 1.35L19.7 12.2"/><path fill="#4fbcff" fill-rule="evenodd" d="M19.5 12.3q-7.7 2.45-11.15 2.45-4.95 0-6.6-1.1-.9-.65-.7-1.9.2-1.25 1.05-1.4l1.95-2.5Q10.25.95 16.1 1q1.7.05 3.95 2.8 2.05 2.65 2.1 4.2.15 3.4-2.65 4.3"/><path fill="#c49480" fill-rule="evenodd" d="M21.7 6.45q.7 1.8.55 2.15-1 1.9-4.3 2.6l-5 1.2-2.15.85-3.6.25q-1.25-.7-1.9-.7l-2.25-.45-1-.7.3-1.75Q3 8.3 6.55 4.65q3.7-4.3 8.5-3.95 4.85.35 6.65 5.75"/><path fill="none" stroke="#94765c" stroke-linecap="round" stroke-linejoin="round" d="M22.05 7.5q.25 1.65-3.1 2.85-3.3 1.3-4.2 1.1m-9.1 1.05-2.35-.7-.95-.7-.3-1.35"/><path fill="none" stroke="#27128f" stroke-linecap="round" stroke-linejoin="round" d="m1.2 10.4-.5.65q-.4.8 0 1.75 1.35 2.8 9.25 2.45 3.85-.25 10.7-3.45 2.6-1.1 2.15-3.35"/><path fill="none" stroke="#000" stroke-linecap="round" stroke-linejoin="round" d="M22.8 8.65q0-1.15-.7-2.3-.65-1.75-2.25-3.3-1.6-1.6-4-2.3-2.45-.7-5.3.7-2 .9-3.3 2.35l-5.3 6-.75.65"/><path fill="none" stroke="#94765c" stroke-linecap="round" stroke-linejoin="round" d="M13.5 11.8q-1.3 1.65-3.9 1.65-2.55 0-2.5-.55"/><path fill="#4fbcff" fill-rule="evenodd" d="M6.8 4.8q4.2.15 5.6 2.4 1.45 2.2 2.2 5.35-3.6 3-9.05 1.45-4.3-1.3-4.3-2.5 0-.55 2.55-3.55l3-3.15"/><path fill="#0081cf" fill-rule="evenodd" d="M5.3 5.8q1.55-1.05 1.55 1.45 0 1.15-1.15 3.45l1.9-1.35q2.35-1.45 3.55-1 1 .3 1.25 1.45.3 1.15-.4 1.7-.85.7-2.4-.45.75-.05 1.2-.9.3-.65-.4-.7-.7-.1-1.35.35-1.85 1.25.1 2.75 1.05.75 4.85.75l2.75.15-3.7 1-3.6.45L6 14.6q-3.75-1-4.4-1.6l-.75-2.4 2-.3q1.35-.5 1.9-1.45.6-1.15.4-1.6-.25-.45-1.15.3l-.85.85Q4.3 6.55 5.3 5.8"/></g></defs></svg>