<svg xmlns="http://www.w3.org/2000/svg" xmlns:xlink="http://www.w3.org/1999/xlink" width="36.05" height="38.3"><use xlink:href="#a" width="24" height="16.1" transform="translate(9.2 12.4)"/><defs><g id="a"><path fill="#ff7b00" fill-rule="evenodd" d="M17 .9q1.75.05 4.05 2.9 2.1 2.7 2.2 4.3.1 3.5-5.25 5.6-4.7 1.85-8.65 1.8l-1.5-.05q-4.35-.4-5.7-1.3-1.35-.9-1.1-2.2.15-1.3 1.05-1.4l2.05-2.6Q10.5.85 16.55.9H17"/><path fill="#ffddbc" fill-rule="evenodd" d="M13.25 12.6q-3.95 1.2-5.2 1.1-1-.1.85-3.1l3.5-2.3-3.2-.2q-.85.05-2.3 1.8-.4.4-.85 1.85Q5.75 13 5.4 13l-2.35-.45-1-.7.3-1.8 4.7-5Q11.55.4 15.45.6q5 .35 6.85 5.9.7 1.85.55 2.2-1 1.95-4.45 2.65l-5.15 1.25"/><path fill="none" stroke="#e8c9ac" stroke-linecap="round" stroke-linejoin="round" d="M22.65 7.6q.25 1.7-3.2 2.95-3.4 1.3-4.3 1.1l-1.3.35m-8.1.7-2.4-.7-1-.7-.3-1.4"/><path fill="none" stroke="#8c4400" stroke-linecap="round" stroke-linejoin="round" d="m1.15 10.6-.45.65q-.4.8 0 1.75 1.35 2.9 9.5 2.55 3.95-.25 11.05-3.55 2.65-1.1 2.15-3.4"/><path fill="none" stroke="#000" stroke-linecap="round" stroke-linejoin="round" d="M23.45 8.75q0-1.15-.7-2.35L20.25 3q-1.6-1.6-4-2.25-2.5-.8-5.2 1.05l-4.7 4.15-4.4 4-.75.65"/><path fill="none" stroke="#e8c9ac" stroke-linecap="round" stroke-linejoin="round" d="M13.85 12q-1.35 1.7-4 1.7t-2.6-.55"/><path fill="#ff7b00" fill-rule="evenodd" d="M15.75 7.9q2.75.7 4.65 3.3l-1.75.55q-.85-1.05-2.9-2.2l-4-.25-2.45.6-2.35.1.45-1.2q.6-1.15 0-2.05l-.75-.4L7.7 5l1.2.85q.7 1.2.6 2.4l2.05-.5 4.2.15"/></g></defs></svg>