<svg xmlns="http://www.w3.org/2000/svg" xmlns:xlink="http://www.w3.org/1999/xlink" width="36.05" height="38.3"><use xlink:href="#a" width="23" height="15.3" transform="translate(8.35 12.2)"/><defs><g id="a"><path fill-rule="evenodd" d="M8.8 3.9Q11.7.75 14.75.5q1.8-.05 4.95 1.2l2.8 6.1q0 2.05-1.8 3-2 1.15-6 2.45-4.75 1.55-7.5 1.55-5.95 0-6.7-1.6-.25-.6 3.25-4.2L8.8 3.9"/><path fill="none" stroke="#000" stroke-linecap="round" stroke-linejoin="round" d="M8.8 3.85Q11.7.75 14.75.5q1.8-.05 4.95 1.2l2.8 6.1q0 2.05-1.8 3-2 1.15-6 2.45-4.75 1.55-7.5 1.55-5.95 0-6.7-1.6-.25-.6 3.25-4.2L8.8 3.85Z"/><path fill="none" stroke="#828282" stroke-linecap="round" stroke-linejoin="round" d="M12.5 3.8 7.05 9.25m-5.5 2.2 4.25 1.1"/></g></defs></svg>