<svg xmlns="http://www.w3.org/2000/svg" xmlns:xlink="http://www.w3.org/1999/xlink" width="36.05" height="38.3"><use xlink:href="#a" width="27.95" height="15.9" transform="translate(3.45 11.85)"/><defs><g id="a"><path fill="#306600" fill-rule="evenodd" d="m16 1.2 1.5-.25 2.25.6-2.95 5.4-2.75.9L16 1.2"/><path fill="none" stroke="#57ba00" stroke-linecap="round" stroke-linejoin="round" d="M19.15 1.95q-.5-.6-1.65-.6l-2.1.4"/><path fill-rule="evenodd" d="m16.55.3-1.2 6.1 4.2-5.95 4.75.5.9-.5q.6 0 1.2.7l1.35 3.65q.5 1.2-.2 6.6l-1 .5-.5-2.05q-3.6 3.65-5.6 4.55l-6.85 1.2q-3.5.65-8 0-2.25-.35-5.6-2.95l.5-1.05q4.3 1.25 5.6.7.95-.4 4.2-3.7 3.2-3.25 3.45-3.95L15.35 0l1.2.3"/><path fill="#91989e" fill-rule="evenodd" d="m13.55 3.6 3.4.35q1.85.5 2.45 1.25.6.7-.45 3.5-1.1 2.85-2.4 3.4-1.25.65-4.4-.3-3.05-1-3.45-1.8-.3-.75 1.85-3.45 2.1-2.8 3-2.95"/><path fill-rule="evenodd" d="m13 5.3 2.15.05q1.15.6 1.3 1.4.3 2.65-1.4 3.25l-2.25-.2q-1.4-.45-1.65-1.05-.2-.45.65-1.8L13 5.3"/><path fill="#91989e" fill-rule="evenodd" d="m11.6 6.1 3.45 1.4-.8.6-3.45-.8.8-1.2"/><path fill="none" stroke="#676c70" stroke-linecap="round" stroke-linejoin="round" d="M14.5 3.35q-.9.15-1.45.55-2.1 1.6-2.65 2.45-1.6 2.4-1.8 3.35l.3 1"/><path fill="none" stroke="#dbe5ed" stroke-linecap="round" stroke-linejoin="round" d="m12.55 6.45 1.6.6m1.9-2.6L14.2 3.8m-1.9 6.1-1.2-.4"/></g></defs></svg>