<svg xmlns="http://www.w3.org/2000/svg" xmlns:xlink="http://www.w3.org/1999/xlink" width="36.05" height="38.3"><use xlink:href="#a" width="23.85" height="16.9" transform="translate(8.55 12.1)"/><defs><g id="a"><path fill="#93c" fill-rule="evenodd" d="m12.05 1.75 1.2.95q3.55.9 6.8-.85l1.15 1.1q-.85.4-1.45 1.05L18.7 5.6q-.4.85-.55 1.8l-.1.85-.05 1.2.1.45q.1.6.6 1l-3.9 1.25-.6.2-1.65.35-2.1.3.05-.1q.85-2.7-.45-5.3-1.2-2.2-3.5-3v-.05l.4-.25q2.55-1.45 5.1-2.55"/><path fill="#612387" fill-rule="evenodd" d="M20.05 1.85q-3.25 1.75-6.8.85l-1.2-.95 1.4-.65q3.4-1.45 6.6.75M6.55 4.6q2.3.8 3.5 3 1.3 2.6.45 5.3l-.05.1v-.05.05l-3.8.4q-3.2-.05-6-1.75v-.1Q.2 9.6 1 7.5q.7-2.15 5.35-3l.2.1m12.15 6.3q-.5-.4-.6-1l-.1-.45.05-1.2.1-.85q.15-.95.55-1.8L19.75 4q.6-.65 1.45-1.05 2.45 1.6 1.95 5.05L21.6 9.45l-.9.6-2 .85"/><path fill="#c00" fill-rule="evenodd" d="M6.55 4.55v.05l-.2-.1.2.05"/><path fill="#fc0" fill-rule="evenodd" d="m10.45 13 2.1-.3 1.65-.35.6-.2 3.9-1.25 2-.85.9-.6L23.15 8q.35 2.9.1 3.2l-.1.2q-.6.75-1.75 1.45l-2.8 1.35-3.75 1.15-.55.15-3.8.7q-5.2.65-8.95-.75l-.55-.3q-.3-.3-.35-3.5 2.8 1.7 6 1.75l3.8-.4M.7 11.75l-.05-.1.05.1m13.9 1.55.25 2.05-.25-2.05m-4.15 1 .05 1.9-.05-1.9m10.95-3.45v2-2m-3 1.5q-.1.85.2 1.85-.3-1-.2-1.85"/><path fill="#8f8e01" fill-rule="evenodd" d="M.65 11.65H.6l.05-.1v.1"/><path fill="none" stroke="#333" stroke-linecap="round" stroke-linejoin="round" d="M20.05 1.85q-3.2-2.2-6.6-.75l-1.4.65Q9.5 2.85 6.95 4.3l-.4.25m14.65-1.6-1.15-1.1m-19.4 9.8.05.1m-.05-.1H.6l.05-.1Q.2 9.6 1 7.5q.7-2.15 5.35-3m-5.7 7.15v-.1M23.15 8q.35 2.9.1 3.2l-.1.2q-.6.75-1.75 1.45l-2.8 1.35-3.75 1.15-.55.15-3.8.7q-5.2.65-8.95-.75l-.55-.3q-.3-.3-.35-3.5m9.85 4.55-.05-1.9m4.4 1.05-.25-2.05m6.6-10.35q2.45 1.6 1.95 5.05m-4.55 6.2q-.3-1-.2-1.85m3 .5v-2"/><path fill="none" stroke="#333" stroke-linecap="round" stroke-linejoin="round" d="m10.2 2.95-1.4-.5-.8.1-.5.6q-.15.4.1.75m5-2.7-.5-.15-.75.1-.5.65.1.75m-4 2q-.55-.3-1.2-.5l-.8.2q-.45.15-.55.6l.1.75"/><path fill="#e2a0df" fill-rule="evenodd" d="M8.8 5.55h-.05q1.5.95 2.55 2.65.25.4.15.8t-.5.65l-.8.15q-.4-.15-.65-.5-.8-1.3-1.9-2-.95-.65-2.2-1.05l-.6-.5q-.25-.4-.1-.75.1-.45.5-.65l.8-.1q1.6.45 2.8 1.3m3.65-4.35q1.4.4 2.55 1.15 1.6.95 2.7 2.75.25.35.15.8l-.5.65-.8.15q-.4-.15-.65-.5-.8-1.35-1.95-2.1h-.05l-2-.85-.65-.5-.15-.8.55-.65.8-.1M8.3 2.65l.8-.1q1.5.45 2.7 1.25 1.55 1 2.6 2.75.2.35.1.75-.1.45-.45.7l-.8.1-.7-.5q-.8-1.3-1.9-2.05-.95-.6-2.15-.95l-.65-.55q-.2-.4-.05-.8l.5-.6"/></g></defs></svg>