<svg xmlns:xlink="http://www.w3.org/1999/xlink" height="38.3" width="36.05" xmlns="http://www.w3.org/2000/svg"><use height="16.9" transform="translate(8.55 12.1)" width="23.85" xlink:href="#a"/><defs><g id="a"><path d="m-3.2-1 1.2.95q3.55.9 6.8-.85L5.95.2Q5.1.6 4.5 1.25l-1.05 1.6q-.4.85-.55 1.8l-.1.85-.05 1.2.1.45q.1.6.6 1L-.45 9.4l-.6.2-1.65.35-2.1.3.05-.1q.85-2.7-.45-5.3-1.2-2.2-3.5-3V1.8l.4-.25Q-5.75.1-3.2-1" fill="#93c" fill-rule="evenodd" transform="translate(15.25 2.75)"/><path d="M4.8-.9Q1.55.85-2-.05L-3.2-1l1.4-.65Q1.6-3.1 4.8-.9M-8.7 1.85q2.3.8 3.5 3 1.3 2.6.45 5.3l-.05.1v-.05.05l-3.8.4q-3.2-.05-6-1.75v-.1q-.45-1.95.35-4.05.7-2.15 5.35-3l.2.1m12.15 6.3q-.5-.4-.6-1l-.1-.45.05-1.2.1-.85q.15-.95.55-1.8l1.05-1.6Q5.1.6 5.95.2 8.4 1.8 7.9 5.25L6.35 6.7l-.9.6-2 .85" fill="#612387" fill-rule="evenodd" transform="translate(15.25 2.75)"/><path d="M-8.7 1.8v.05l-.2-.1.2.05" fill="#c00" fill-rule="evenodd" transform="translate(15.25 2.75)"/><path d="m-4.8 10.25 2.1-.3 1.65-.35.6-.2 3.9-1.25 2-.85.9-.6L7.9 5.25q.35 2.9.1 3.2l-.1.2q-.6.75-1.75 1.45l-2.8 1.35L-.4 12.6l-.55.15-3.8.7q-5.2.65-8.95-.75l-.55-.3q-.3-.3-.35-3.5 2.8 1.7 6 1.75l3.8-.4M-14.55 9l-.05-.1.05.1m13.9 1.55.25 2.05-.25-2.05m-4.15 1 .05 1.9-.05-1.9M6.15 8.1v2-2m-3 1.5q-.1.85.2 1.85-.3-1-.2-1.85" fill="#fc0" fill-rule="evenodd" transform="translate(15.25 2.75)"/><path d="M-14.6 8.9h-.05l.05-.1v.1" fill="#8f8e01" fill-rule="evenodd" transform="translate(15.25 2.75)"/><path d="M4.8-.9q-3.2-2.2-6.6-.75L-3.2-1Q-5.75.1-8.3 1.55l-.4.25M5.95.2 4.8-.9m-19.4 9.8.05.1m-.05-.1h-.05l.05-.1q-.45-1.95.35-4.05.7-2.15 5.35-3m-5.7 7.15v-.1M7.9 5.25q.35 2.9.1 3.2l-.1.2q-.6.75-1.75 1.45l-2.8 1.35L-.4 12.6l-.55.15-3.8.7q-5.2.65-8.95-.75l-.55-.3q-.3-.3-.35-3.5m9.85 4.55-.05-1.9m4.4 1.05-.25-2.05M5.95.2Q8.4 1.8 7.9 5.25m-4.55 6.2q-.3-1-.2-1.85m3 .5v-2" fill="none" stroke="#333" stroke-linecap="round" stroke-linejoin="round" transform="translate(15.25 2.75)"/><path d="m-5.05.2-1.4-.5-.8.1-.5.6q-.15.4.1.75m5-2.7-.5-.15-.75.1-.5.65.1.75m-4 2q-.55-.3-1.2-.5l-.8.2q-.45.15-.55.6l.1.75" fill="none" stroke="#333" stroke-linecap="round" stroke-linejoin="round" transform="translate(15.25 2.75)"/><path d="M-6.45 2.8h-.05q1.5.95 2.55 2.65.25.4.15.8t-.5.65l-.8.15q-.4-.15-.65-.5-.8-1.3-1.9-2-.95-.65-2.2-1.05l-.6-.5q-.25-.4-.1-.75.1-.45.5-.65l.8-.1q1.6.45 2.8 1.3m3.65-4.35q1.4.4 2.55 1.15 1.6.95 2.7 2.75.25.35.15.8l-.5.65-.8.15q-.4-.15-.65-.5-.8-1.35-1.95-2.1h-.05l-2-.85L-4 0l-.15-.8.55-.65.8-.1M-6.95-.1l.8-.1q1.5.45 2.7 1.25 1.55 1 2.6 2.75.2.35.1.75-.1.45-.45.7l-.8.1-.7-.5q-.8-1.3-1.9-2.05-.95-.6-2.15-.95l-.65-.55q-.2-.4-.05-.8l.5-.6" fill="#e2a0df" fill-rule="evenodd" transform="translate(15.25 2.75)"/></g></defs></svg>