<svg xmlns="http://www.w3.org/2000/svg" xmlns:xlink="http://www.w3.org/1999/xlink" width="36.05" height="38.3"><use xlink:href="#a" width="22.8" height="16.2" transform="translate(9.05 11.75)"/><defs><g id="a"><path fill="#004566" fill-rule="evenodd" d="m19.1 1.75-2.9.85q-2.25.5-6.2-.8Q12.55.4 15.7.75q1.8.15 3.4 1M1.8 9.15q3.05-.65 5.75.55 3.05 1.35 2.35 3.75-4.9.6-8.4-.7l-.55-.3-.25-.35q-.55-.95 1.1-2.95"/><path fill="#69c" fill-rule="evenodd" d="M10 1.8q3.95 1.3 6.2.8l2.9-.85 3.1 6.55-1.6 1.75-.9.55q-2.25 1.15-6.15 2.15l-3.65.7q.7-2.4-2.35-3.75-2.7-1.2-5.75-.55l.85-1.05 2.95.1q1.45.2 2.55.85 3.8 2.2 6.55-.25.95-.95.8-2.1-.6-3.3-5.15-3.8L8.1 3 10 1.8"/><path fill="#fff" fill-rule="evenodd" d="m8.1 3 2.25-.1q4.55.5 5.15 3.8.15 1.15-.8 2.1-2.75 2.45-6.55.25-1.1-.65-2.55-.85l-2.95-.1L8.1 3m1.8 10.45 3.65-.7q3.9-1 6.15-2.15l.9-.55 1.6-1.75q.2 1.9-.05 2.3l-.1.15q-1.85 2.25-8.4 3.9-7.25 1.75-12.05 0l-.55-.3Q.7 14 .7 12.1l.25.35.55.3q3.5 1.3 8.4.7M9.4.4l.4.7-.4-.35V.4"/><path fill="none" stroke="#333" stroke-linecap="round" stroke-linejoin="round" d="M19.1 1.75q-1.6-.85-3.4-1Q12.55.4 10 1.8L8.1 3 2.65 8.1 1.8 9.15q-1.65 2-1.1 2.95 0 1.9.35 2.25l.55.3q4.8 1.75 12.05 0 6.55-1.65 8.4-3.9l.1-.15q.25-.4.05-2.3l-3.1-6.55Z"/><path fill="#ff006a" fill-rule="evenodd" d="M19.1 1.8q2.95 5.7 3.05 6.95.4 2.6-1.85 3.55-8.45 3.4-14.85 3.4Q.8 15.7.5 12.65.4 10.7 2.35 8.4q2.8-3 7.65-6.6Q11.95.2 15.85.55q1.6.15 3.25 1.25"/><path fill="#bd004e" fill-rule="evenodd" d="m10.55 1.35 2.35-.9q2.3-.25 4.8.75 2 .8 3.85 6.35.8 2.4 0 3.7-.5.8-5.25 2.7.3-3.1.5-3.75.4-1.05-1.25-3.75-1.05-2-4.1-2.75-2.3-.5-.9-2.35"/><path fill="#fff" fill-rule="evenodd" d="M22.05 9.05q-.15 3-3.6 4.2l-6.3 1.35-5.45 1q-3.6.35-5.15-1.1-1.6-1.8-.3-2.3.8.75 2.95 1.05l7.45-.5 5.75-1.85 4.65-1.85"/><path fill="#bdb7ba" fill-rule="evenodd" d="m17.2 11.45-.4-.6q3.2-1.7 4.95-1.8.05 2.2-1.55 3.1-2.2.8-3.35 1.6l.35-2.3"/><path fill="none" stroke="#000" stroke-linecap="round" stroke-linejoin="round" d="M19.1 1.8q2.95 5.7 3.05 6.95.4 2.6-1.85 3.55-8.45 3.4-14.85 3.4Q.8 15.7.5 12.65.4 10.7 2.35 8.4q2.8-3 7.65-6.6Q11.95.2 15.85.55q1.6.15 3.25 1.25Z"/><path fill="#fff" fill-rule="evenodd" d="M14.75 3.55q2.95-.4 2.3 1.95-.9 2.9-4.8 4.1-5.9 1.9-10.05.1v-.35L6.95 4.9q1.95-2 3.35-2.65.9.6-1.15 3.55 2.85-1.95 5.6-2.25"/><path fill="#bdb7ba" fill-rule="evenodd" d="M16 7.25q-.5-1.35-1.05-1.85l-2.2-1.35L14 3.4q1.5-.45 2.8.55 1.65 1.25-.8 3.3M10.55 2.6l-.15.8-1.55-.2L10 2.3l.55.3"/></g></defs></svg>