<svg xmlns="http://www.w3.org/2000/svg" xmlns:xlink="http://www.w3.org/1999/xlink" width="36.05" height="38.3"><use xlink:href="#a" width="24.35" height="18.15" transform="translate(8.6 14.2)"/><defs><g id="a"><path fill="#cc9f70" fill-rule="evenodd" d="m23.5 9.65-15.85 6.4-6.95-3.7v-2.5L12.1 4.6l8.55 1.15.1.05q.6.05 2.6 1.45l.15 2.4"/><path fill="#cc9f70" fill-rule="evenodd" d="m18.15 14.8-3.8-1.65.3-2.35 3.5.75v3.25"/><path fill="#ab7941" fill-rule="evenodd" d="m21 9.95-.05 3.65-2.8 1.4-.25-3.55 3.1-1.5"/><path fill="#cc9f70" fill-rule="evenodd" d="m12.8 17.6-3.2-2.45 1.35-1.95 1.75.3.1 4.1"/><path fill="#ab7941" fill-rule="evenodd" d="m23.5 9.65-15.85 6.4-.1-2.25L23.2 7.6l.3 2.05"/><path fill="#fff" fill-rule="evenodd" d="m11.15.5-.45.1.75.75 2.1 1.85q2.35 3 7.4 3h.25q-2.35 2.15-4.15 2.75-1.5.5-4.4 2-1 .3-1.1.5l-5.6.35-.75.2-.05-.45q-4.15.1-3.05-3Q4.4 1.65 11.15.5"/><path fill="#e1e1e1" fill-rule="evenodd" d="M11.15.5 13.4.3h.1q8.6-.25 8.95 5.15l-.1.7q-.65 1.65-4.9 3.7-4.8 2.3-9.1 2.95-2.75.35-3.15-.8l.75-.2 5.6-.35q.1-.2 1.1-.5 2.9-1.5 4.4-2 1.8-.6 4.15-2.75h-.25q-5.05 0-7.4-3l-2.1-1.85L10.7.6l.45-.1"/><path fill="#ab7941" fill-rule="evenodd" d="m15.4 15.75-2.6 1.85-.3-4.25 2.9-.95v3.35"/><path fill="#c2c2c2" fill-rule="evenodd" d="M7.3 6.05q.55-.2.2 1.4l-1.6 2.2q-.5.8-.8 1.9-1.15-1.2-.65-2.5l1.2-1.7 1.65-1.3"/><path fill="#b07b42" fill-rule="evenodd" d="M12.2 7.55q.85 1.75 1.15 4.8.05.95-.85 1.15-.95.15-.85-.6.3-1.45 0-2.85-.3-1.85-1.3-2.75-.95-.8-1.95-.4l-.9.55q-.2-2.1-1.25-2.55-2.25-1.1-2.4.55-.55-.7.35-1.3 1.05-.75 3.5.05 3.4 1.1 4.5 3.35"/><path fill="#e0be9b" fill-rule="evenodd" d="m.75 10.05 6.8 3.75.1 2.25-6.95-3.7.05-2.3"/><path fill="none" stroke="#373737" stroke-linecap="round" stroke-linejoin="round" d="m21 10.95.3 2.75-3.15 1.3-2.6-1.3.15 2.4-2.85 1.55-3.25-2.5-2.25.95L.5 11.7l.25-1.65.75-1.35.65-2.05Q3.65 4.6 6.7 2.4 10.65-.25 18.45.75q5.4.8 4.2 5.65l1.2.75-.35 2.55-2.5 1.25Z"/></g></defs></svg>