<svg xmlns="http://www.w3.org/2000/svg" xmlns:xlink="http://www.w3.org/1999/xlink" width="36.05" height="38.3"><use xlink:href="#a" width="21.25" height="19.05" transform="translate(13 14.55)"/><defs><g id="a"><path fill="none" stroke="#4c4c4c" stroke-linecap="round" stroke-linejoin="round" stroke-width="2" d="M16.5 6.05q-2.15-5.65-9.05-5-5.55.55-5 5.25l-1 .3q-.8.3-.2 3.65.65 3.05 1.15 3.85 2.6 3.5 3.3 3.7 1.85.6 7.9-.15 2.55-.3 4.3-1.65l1.65-1.65.55-.65-.05-.2.2-1.4q0-.5-1.35-1.7-.3-.95-1.5-2.55.7-1-.65-1.75l-.25-.05Z"/><path fill="#fffdf2" fill-rule="evenodd" d="M15.75 8.05q4.45 2.85 4.5 4.05.25 1.95-2.35 3.9-1.75 1.35-4.3 1.65-6.05.75-7.9.15-.7-.2-3.3-3.7-.5-.8-1.15-3.85-.6-3.35.2-3.65 3-1.35 8.65-1.35 1.4 0 5.65 2.8"/><path fill="#dbd9cc" fill-rule="evenodd" d="m15.95 9.5 2.35 1.4 1.05 1q.4.85-1.35 1.35l-2.8.55h-1.55l-1.05.55q-1.7.7-4.65-.8l-2.05-1.6-2.15-1.6-1.2-2.1-.25-1.2.35-1L3.8 5.7l1.95-.2 2.6.35 4 1.8 3.6 1.85"/><path fill="#e0d8cd" fill-rule="evenodd" d="m15.3 17.4-10 .35 2.6-.95q1.8-.85 3.4-2.05l4.45-.45q2.4-.35 4.5-1.3-.25 1.35-1.8 2.75-1.5 1.4-3.15 1.65"/><path fill="#fff" fill-rule="evenodd" d="M13.4 13q-1.9 2.15-4.55.25Q3.5 9.3 2.6 7.05q-.65-1.65.25-3.35 1.2-2.35 4.6-2.65 6.2-.55 9.5 6l1.6 2.45q.85 1.6.3 2.55-.65.95-5.45.95"/><path fill="none" stroke="#a8a79d" stroke-linecap="round" stroke-linejoin="round" stroke-width=".5" d="M2.3 5.7 3.15 8q.9 1.3 3.25 3.2 2.45 2.25 4.4 2.4 1.8.15 4.8-.85l2.15-.15q1.5-.55 1.3-1.85L18.1 8.6l-1.15-1.55"/><path fill="#de0000" fill-rule="evenodd" d="m14.6 10.65-2.15-1.4q-1.05-.55-3.35-.7-2.7-.1-3.6.85l-1.05 1.2q-1.15 0-.7-.7 1.1-2.1 3.6-2.75 3.45-.85 7.25 1.9l.95 1q.5.95-.05 1.15-.55.2-.9-.55"/><path fill="#de0000" fill-rule="evenodd" d="M14.65 9.8q-.4-4.6 2.1-3.7.45.1.65.85.25.8-.05.95-.6-1.1-1.2-1-.6.2-.4 3.8.05.9-.45.5-.5-.3-.65-1.4"/><path fill="#f2e9dc" fill-rule="evenodd" d="m1.25 6.6.65 2.15 3.9 3.9q1.8 1.65 3.8 2.15-.2.7-.95 1.45-1.55 1.8-3.35 1.5L2.85 14.9Q1.75 13.3 1.2 10q-.5-2.5.05-3.35V6.6"/><path fill="#dfe8eb" fill-rule="evenodd" d="M13.35 2.65q0 .65-1.9 1.3l-3.1.2-2.9-.2Q3.8 4.3 3.8 8.55L2.3 6.1 2.65 4q.5-1.7 3.65-2.85 2.7-1 5.25.25 1.85.9 1.8 1.25"/></g></defs></svg>