<svg xmlns:xlink="http://www.w3.org/1999/xlink" height="38.3" width="36.05" xmlns="http://www.w3.org/2000/svg"><use height="17.2" transform="translate(14.7 11.8)" width="18.85" xlink:href="#a"/><defs><g id="a"><path d="M6.9 4.85Q3.5-2.4-4.55-2.55q-2.9-.05-3.75 4-.6 3.05 0 5.05.85 2.95 3.65 5.55 1.5 1.55 3.75 1.6 2.25.05 2.25-1.25.85.75 2.85.55 2.15-.2 2.1-1.6 1.05.5 2 0 1-.4.95-1.45 0-1.5-.9-2.85-1.1-1.35-1.45-2.2" fill="#fff" fill-rule="evenodd" transform="translate(9.1 3.05)"/><path d="M6.9 4.85Q3.5-2.4-4.55-2.55-7.45-2.6-8.3 1.5q-.6 3 0 5.05.85 2.9 3.65 5.5 1.5 1.55 3.8 1.6 2.25.05 2.25-1.25.8.75 2.85.55 2.1-.2 2.05-1.55 1.05.45 2 0 1-.45.95-1.5 0-1.5-.85-2.8L6.9 4.85Z" fill="none" stroke="#000" stroke-linecap="round" stroke-linejoin="round" transform="translate(9.1 3.05)"/><path d="M-2.55-2q-2.85-.55-4 .65-.8.75-1.25 3.8-.9 6.15 2.35 7.75l-.45-1.6V6.05q0-3.25 2.65-4.7Q.3-.75 3.15.55L1.5-.35Q-.1-1.45-2.55-2" fill="#cedae7" fill-rule="evenodd" transform="translate(9.1 3.05)"/><path d="M-5.85 9.85q1.1 2.05 3 2.7 2.45.8.55-1.55-1.6-1.7-2.35-3.15-.7-1.05-.95-2.9l-.4-1.8q-.65-.25-.85 1.45-.35 1.7.3 3.8l.7 1.45" fill="#cedae7" fill-rule="evenodd" transform="translate(9.1 3.05)"/><path d="M.8 10.75q.2 1.1 1.45 1.45 1.85.5 1.35-.9-.75-2.5-3.2-3l.4 2.45m4.8-.2.2-.1 1.6.45q.15-.9-.95-2.15-1.1-1.25-2-1.05l1.15 2.85" fill="#8ba7c6" fill-rule="evenodd" transform="translate(9.1 3.05)"/></g></defs></svg>