<svg xmlns="http://www.w3.org/2000/svg" xmlns:xlink="http://www.w3.org/1999/xlink" width="36.05" height="38.3"><use xlink:href="#a" width="18.85" height="17.2" transform="translate(14.7 11.8)"/><defs><g id="a"><path fill="#fff" fill-rule="evenodd" d="M16 7.9Q12.6.65 4.55.5 1.65.45.8 4.5.2 7.55.8 9.55q.85 2.95 3.65 5.55 1.5 1.55 3.75 1.6 2.25.05 2.25-1.25.85.75 2.85.55 2.15-.2 2.1-1.6 1.05.5 2 0 1-.4.95-1.45 0-1.5-.9-2.85-1.1-1.35-1.45-2.2"/><path fill="none" stroke="#000" stroke-linecap="round" stroke-linejoin="round" d="M16 7.9Q12.6.65 4.55.5 1.65.45.8 4.55q-.6 3 0 5.05.85 2.9 3.65 5.5 1.5 1.55 3.8 1.6 2.25.05 2.25-1.25.8.75 2.85.55 2.1-.2 2.05-1.55 1.05.45 2 0 1-.45.95-1.5 0-1.5-.85-2.8L16 7.9Z"/><path fill="#cedae7" fill-rule="evenodd" d="M6.55 1.05Q3.7.5 2.55 1.7q-.8.75-1.25 3.8-.9 6.15 2.35 7.75l-.45-1.6V9.1q0-3.25 2.65-4.7 3.55-2.1 6.4-.8l-1.65-.9Q9 1.6 6.55 1.05"/><path fill="#cedae7" fill-rule="evenodd" d="M3.25 12.9q1.1 2.05 3 2.7 2.45.8.55-1.55-1.6-1.7-2.35-3.15-.7-1.05-.95-2.9l-.4-1.8q-.65-.25-.85 1.45-.35 1.7.3 3.8l.7 1.45"/><path fill="#8ba7c6" fill-rule="evenodd" d="M9.9 13.8q.2 1.1 1.45 1.45 1.85.5 1.35-.9-.75-2.5-3.2-3l.4 2.45m4.8-.2.2-.1 1.6.45q.15-.9-.95-2.15-1.1-1.25-2-1.05l1.15 2.85"/></g></defs></svg>