<svg xmlns="http://www.w3.org/2000/svg" xmlns:xlink="http://www.w3.org/1999/xlink" width="36.05" height="38.3"><use xlink:href="#a" width="22" height="15.7" transform="translate(9.75 11.8)"/><defs><g id="a" fill-rule="evenodd"><path d="M18.05 1.5q1 .55 2.45 3Q22 7.05 22 8.4q0 3-3.8 4.6l-4.45 1.85q-3.1 1-7.05.85-4.05-.15-5.7-2.6-1.35-1.9-.9-3.85 1.5-5.95 5.6-5.8 2.1.1 2.15.6Q8.95.35 13 .25l3.15.15 1.9 1.1"/><path fill="#18601e" d="M15.2.75q2 0 4.15 3.35 2 3.3 1.75 5.35-.25 1.9-6.15 3.95-5.7 1.95-8.65 1.45-6.55-1.15-4.9-6.3.9-2.85 2.5-3.9l2.25-.1q.55.65-.1 1.5L5.2 7.5q0 1.8 2.9-2 .75-1.75 1.65-2.85 1.6-1.9 5.45-1.9"/><path d="m5.3 7.15 1.85-.75-.65 1q-.6 1.05-.25 1.65l1.35 1q-1.25.3-1.9-.45l-.4-2.45"/><path fill="#0d4917" d="M4.3 14.5Q1 13.05 1 10.3q0-2.1 1.65-4.35 1.75-2.3 3.1-1.7L4.4 5.7Q3.1 7.55 3.25 9.35q.1 2.05 2.25 3.8l1.55 1 1.6.15q-.35.65-2.05.6l-2.3-.4"/><path fill="#0d4917" d="M9.4 3q.35-.7 1.25-1.1l.85-.3q4.15 2.95 3.45 2.95-3.15 0-4.2.6L6.35 8.5l.2-1 1.55-2L9.4 3"/><path fill="#0d4917" d="M10.85 2.5 11.5.85Q15.2.25 18.2 3q1.9 1.7 2.75 4.55.5 1.9-.55 3.2-.65.85-.65-.35l.05-2.3q-.35-2.4-6.4-3.4-2.65-.45-2.55-2.2"/><path fill="#0e1d20" d="M6.6.55q2.65 1.4 1.55 4.4Q7.05 8 3.45 6.5-.3 4.9 1.65 1.95q1.9-3 4.95-1.4"/><path fill="#799aaa" d="M6.1 1.15q1.85 1.3.95 3.35-.9 2.15-3.15 1-2.65-1.3-1.1-3.45 1.5-2.15 3.3-.9"/><path fill="#586f7b" d="m3.75 2.05 1.2 1.85 1.95-.15-.55 1.05v-.25q-1.4.95-2.2.3-1.3-.95-1-1.95l.6-.85"/></g></defs></svg>