<svg xmlns="http://www.w3.org/2000/svg" xmlns:xlink="http://www.w3.org/1999/xlink" width="36.05" height="38.3"><use xlink:href="#a" width="21.45" height="15.6" transform="translate(10.3 12.05)"/><defs><g id="a" fill-rule="evenodd"><path d="M17.6 1.5q1 .55 2.4 3 1.45 2.5 1.45 3.85 0 3-3.7 4.55l-4.35 1.85q-3 1-6.85.85Q2.6 15.5 1 13.05-.35 11.15.1 9.2q1.5-5.9 5.45-5.75 2.05.1 2.1.6Q8.75.4 12.7.25l3.05.2Q16.7 1 17.6 1.5"/><path fill="#c63021" d="M14.8.75q2 0 4.05 3.35 2 3.25 1.7 5.3-.2 1.9-5.95 3.9-5.6 1.95-8.4 1.45-6.4-1.1-4.85-6.25.9-2.85 2.45-3.9L6 4.55q.55.6-.1 1.45-.8 1.05-.8 1.45 0 1.8 2.85-1.95.7-1.8 1.55-2.85 1.6-1.9 5.3-1.9"/><path d="M5.2 7.1 7 6.4l-.65.95Q5.8 8.4 6.1 9l1.35 1q-1.2.3-1.9-.45L5.2 7.1"/><path fill="#9f261a" d="M4.2 14.4Q1 12.95 1 10.25q0-2.05 1.6-4.3 1.7-2.3 3.05-1.75L4.3 5.65Q3.05 7.5 3.15 9.3q.15 2.05 2.2 3.8.95.8 1.55 1l1.55.1q-.35.65-2 .6l-2.25-.4"/><path fill="#9f261a" d="m10.4 1.9.8-.3q4.05 2.95 3.4 2.95-3.05 0-4.1.55L6.25 8.45l.15-1L7.95 5.5 9.2 3q.3-.65 1.2-1.1"/><path fill="#9f261a" d="m10.6 2.5.6-1.6Q14.8.25 17.75 3q1.9 1.65 2.7 4.5.5 1.9-.55 3.2-.65.8-.65-.35l.05-2.3q-.35-2.4-6.25-3.4Q10.5 4.2 10.6 2.5"/><path fill="#0e1d20" d="M6.45.55Q9 1.95 8 4.95q-1.1 3-4.6 1.5-3.7-1.55-1.75-4.5Q3.5-1 6.45.55"/><path fill="#d17c2b" d="M5.95 1.15q1.8 1.3.95 3.35-.9 2.1-3.1 1-2.55-1.35-1.05-3.45 1.45-2.1 3.2-.9"/><path fill="#964b1c" d="M6.25 4.55q-1.4.95-2.2.3Q2.8 3.9 3.1 2.9l.55-.85 1.2 1.85q.85.4 1.85-.2l-.45 1.1v-.25"/><path fill="#fff" d="M6.25 1.75q.8.4.3 1.35-.45.85-1.15-.3-.7-1.3-.6-1.55l1.45.5"/></g></defs></svg>