<svg xmlns="http://www.w3.org/2000/svg" xmlns:xlink="http://www.w3.org/1999/xlink" width="36.05" height="38.3"><use xlink:href="#a" width="18.65" height="15.9" transform="translate(12.9 12.5)"/><defs><g id="a" fill-rule="evenodd"><path fill="#033110" d="M11.25.2q7.4 1.8 7.4 8.1 0 5.6-7.5 7.25-4.15.95-7.8-.7-3.5-1.55-3.35-3.8Q.1 8.7 1.55 5.9 2.95 3 4.8 1.8 8.35-.55 11.25.2"/><path fill="#537c2f" d="M16.05 11.65q-4.55 3.8-9.85 2.9-4.45-.7-4.95-3.3-.3-1.5 1.2-5.4.65-1.7 3.15-3.3 3.3-2.15 6.9-.9 3.1 1.1 4.6 4.35 1.6 3.5-1.05 5.65"/><path fill="#436526" d="M14.95 6.75h.3l1.35.4-.15 4-2.3 2.05-.85.15q-1-.9-1.55-2.2-1.05-2.45.15-3.4.85-.65 2-.85l1.05-.15"/><path fill="#c78349" d="M11.95 6.35Q10.6 8.3 5.65 7.7l-2.3-.35q-1.25-.4-.75-1.8Q3.15 4.5 4.9 3 7.65.7 10.4 1q4.5.55 6.2 4.3l-1.8-.25q-2.05.05-2.85 1.3"/><path fill="#033110" d="M12.15 11.85q1.4.8 1.6 1.45l-1.1.55q-1-1.75-2.35-2.3l-2.25-.95 4.1 1.25"/><path fill="#344f1d" d="m13.4 5.4 3.2-.1 1.05 3.65q0 1.8-2.85 3.7.85-1.7.85-4 0-.9-1.1-2.15L13.4 5.4"/><path fill="#9e6939" d="M13.7 2.1q1.45.7 2.9 3.2l-1.55-.05-1.65.15q-.95-1-2.55-1.25l-4.25-.2Q4.55 2.25 8.3 1.1q2.05-.6 5.4 1"/><path fill="#344f1d" d="m5.2 10.15.1 1.1-1.55 1.4q-.65.15-1.45-1.1-.35-.6 0-1.9.35-1.4 1.25-1.4l2.3.1q1.3.5 1.5 2.8.15 3.55-2.3 3h-.7L3.1 13.5l2.5-.15q.45 0 .75-1.15.2-1.2-.05-2.15-.5-1.95-2.65-.7-.5.25-.5 1.05.05.8.6.9.75.25 1.45-1.15"/></g></defs></svg>