<svg xmlns="http://www.w3.org/2000/svg" xmlns:xlink="http://www.w3.org/1999/xlink" width="36.05" height="38.3"><use xlink:href="#a" width="18.95" height="17.45" transform="translate(13.5 10.35)"/><defs><g id="a" fill-rule="evenodd"><path d="M3.85 2.65Q5.75.3 8.05.1q6-.5 8.5 2 .95.95 1.9 3.4l.5 2.4q0 .55-.85 1.05l.35.7q.3 1.95-.05 3.05-.1 1-1 1.4l-1.3.4q-1.1 1.75-3.55 2.6l-9.05.35q-2.25-.4-3.2-3-.8-2.2.65-3.25L2 9.2l-.45-.5L.3 7.5l1.35-2 2.2-2.85"/><path fill="#71381e" d="m12.5 16.1-4.7.55-4.5-.25q-1.55-.4-2.2-2-.45-1.5.25-2.45 1.3-1.75 2-3.9l.8-2.5q.35-.65 6.25-.8h6.05l1.3 4.75q.55 2.25-.25 3.35l-.85.65-.85.15q-.75 1.55-3.3 2.45"/><path fill="#64321a" d="M12 5.5q.7-.6 3.1-.55L17.25 7l.5 2.5-.1 3.05-.55-2.65-1.15-1.7-.05 1.7-1.8 1.75q-2.25 1-8.05.85-2.1-.05-3.05-1.1l-.6-1.1.75-1.9q8.7-2.65 8.85-2.9"/><path fill="#350d04" d="M3.05 8.2 14.1 4.45q1.9.75 2 .95l1.35 2.75.15.9-.65-.05-1.7-1.8-.3 2.9q-.45.95-6.15.85L3.9 10l-1-.75.15-1.05"/><path fill="#9f4e2b" d="M3.55 4.6q2.3-2.9 3.25-3.3 1.85-.7 5.5-.1 3.9.65 5.05 3.85L18 7.7q-.95.9-1.25.65L14.8 5.4q.35 4.55-.5 4.65-5.25.85-9.6-.6-1.95-.65-2.85-1.4L1.3 7.4l2.25-2.8"/><path fill="#803f22" d="M10.85 1.05q2.3.05 4.8 1.35 1.7.85 2.35 5.3l-.5.55-1.9-2.7-.95-.3-.75 3.7V6.9q.25-2.05-1.4-2.1-3.9-.1-5.75-1.4L6.4 1.6 8.05 1l2.8.05"/><path fill="#61301b" d="M13.35 4.25 8.6 3.8q-2.15-.45-1.3-1.2.75-.85 2.1-.8 4.35.1 5.7 1.6.55.7-1.75.85"/><path fill="#3d2717" d="m15.85 13.65.85-2.5.15 1.4-.2.95-.8.15"/><path fill="#64321a" d="m12.95 11.55 2.8-1.25q0 .85-.85 2.45-.8 1.7-1.95 2.05.75-.45 1.1-1.55.15-.65-.45-1.2l-.65-.5"/><path fill="#c66235" d="M10.4 5.5q1.55.25 3.2.05-3.35 1.5-5.75.7Q6.3 5.7 5.75 4.5L5.4 3.35l1.15 1.3q1 .6 3.85.85"/><path fill="#994b28" d="m2.35 13.2 2.4.45 3.55.75-2.9.4q-1.25 0-3.05-1.6"/><path fill="#c68a73" d="M3.2 13.45v-.15l2.2.2 2.05.8-2.4.05-1.85-.9"/><path fill="#eda689" d="m9.25 5.85-2.7-1.2L12.3 5.9l-3.05-.05"/></g></defs></svg>