<svg xmlns="http://www.w3.org/2000/svg" xmlns:xlink="http://www.w3.org/1999/xlink" width="36.05" height="38.3"><use xlink:href="#a" width="22.2" height="14.35" transform="translate(9.55 14.45)"/><defs><g id="a"><path fill="none" stroke="#005c6d" stroke-linecap="round" stroke-linejoin="round" d="M14.85.6Q10.85.95 8 2.75q-3.8 2.4-6.1 5.2l-.4.55Q.35 9.65.5 10.95q.05 1.3 1 2.1l.05.15h.15q11.25 2.4 19.65-4.25l.15-.15v-.25q.65-4.25-1.5-6.9Q18.8.2 14.85.6m5.65 7.5q-7.6 5.85-18.45 3.95-.45-.5-.5-1.15v-.05q0-.75.75-1.55l.4-.5q2.25-2.7 5.85-5.05Q11.2 2.1 14.9 1.8q3.45-.35 4.3.7 1.35 1.65 1.35 4.4l-.05 1.2"/><path fill="#00596e" fill-rule="evenodd" d="M20.05 1.65q2.1 2.6 1.5 6.9v.25l-.15.15Q13 15.6 1.8 13.2h-.2l-.05-.15q-1-.85-1.05-2.1Q.4 9.6 1.55 8.5l.4-.55q2.3-2.8 6.1-5.2 2.8-1.8 6.8-2.15 3.95-.4 5.2 1.05"/><path fill="none" stroke="#005c6d" stroke-linecap="round" stroke-linejoin="round" d="M20.05 1.65Q18.8.2 14.85.6q-4 .35-6.8 2.15-3.8 2.4-6.1 5.2l-.4.55Q.4 9.6.5 10.95q.05 1.25 1.05 2.1l.05.15h.2Q13 15.6 21.4 8.95l.15-.15v-.25q.6-4.3-1.5-6.9Z"/><path fill="#acd495" fill-rule="evenodd" d="m21.15 7.5-.1 1Q12.8 15 1.8 12.6l-.55-.85Q12.95-4 21.15 7.5"/><path fill="#d4eff5" fill-rule="evenodd" d="M1.2 11.8q-.6-1.45.7-2.95 3.7-3.95 6.4-5.6l1.35-.7q7 3.4 9.25 6.1-8.35 4.25-17.7 3.15"/><path fill="#81d2e4" fill-rule="evenodd" d="M19.6 2.1q1.7 2.05 1.5 5.45l-2.2 1.1q-2.25-2.7-9.25-6.1 2.75-1.25 5.9-1.4 3.15-.1 4.05.95"/><path fill="#34bed6" fill-rule="evenodd" d="M5.05 5.35 9 2.95q2.9 1.45 2.2 2.85-.65 1.3-3.1 1.15l-3.05-1.6"/></g></defs></svg>