<svg xmlns:xlink="http://www.w3.org/1999/xlink" height="38.3" width="36.05" xmlns="http://www.w3.org/2000/svg"><use height="19.35" transform="translate(12.85 9.65)" width="18.3" xlink:href="#a"/><defs><use height="19.35" width="18.3" xlink:href="#b" id="a"/><g id="b"><path d="m13.4 3.85 2.25.3q.85.35 1.35 2.1.5 1.65.15 3-1.3 5.55-2.9 4.25-.35-.3-1.65 1.5-4.65 4.2-10.05 3.15-2.8-.55-2.5-4.4l.85-3.7q-.05-.55.5-1.4L3 5.8q.35-.4 1.15-.7 1.8-5.3 5-5.1 3.75.3 4.25 3.85" fill="#9c0c15" fill-rule="evenodd" transform="translate(.5 .5)"/><path d="M13.4 3.85Q12.9.3 9.15 0q-3.2-.2-5 5.1-.8.3-1.15.7L1.4 8.65q-.55.85-.5 1.4l-.85 3.7q-.3 3.85 2.5 4.4Q7.95 19.2 12.6 15q1.3-1.8 1.65-1.5 1.6 1.3 2.9-4.25.35-1.35-.15-3-.5-1.75-1.35-2.1l-2.25-.3Z" fill="none" stroke="#700" stroke-linecap="round" stroke-linejoin="round" transform="translate(.5 .5)"/><path d="M4.45 5.7q.2-1.35.9-2.75Q6.65.2 9.05.1q2.45-.15 3.65 2.65.8 1.85.8 3.85l-9.05-.9" fill="#e93a35" fill-rule="evenodd" transform="translate(.5 .5)"/><path d="m12.9 3.85 2.55.4q2.2 1.1 1.4 4.6-.95 4.4-1.65 4.35l.1-1.7q.1-1.35-.55.05L12.9 14.5q-2.75 2.25-5.95 3l-5.15-.25Q.05 16.4.5 13.35l1-3.8 9.35.85q2.1-5.8 2.05-6.55" fill="#c00b1d" fill-rule="evenodd" transform="translate(.5 .5)"/><path d="M10.6.75q1.65.4 2.9 4.6.25.8-1 2.6l-3.35 4.3q-3.6 3.4-6.05 2.95-.55-.05-1.15-1.05-.6-1.2-.45-2.45.25-1.8 1.85-3.8l1.6-2.4q.3-2.1 2.1-3.7Q8.85.3 10.6.75" fill="#e1001a" fill-rule="evenodd" transform="translate(.5 .5)"/><path d="m2.35 9.35 2.2-3q3-1.05 8.3.4L9.9 9.85Q6.65 8.9 4.2 9l-1.85.35" fill="#ffdc00" fill-rule="evenodd" transform="translate(.5 .5)"/><path d="M4.75 6.7q-.25.05-1.05 1.75 3.05-.1 6.05.75l1.4-2-6.4-.5m7.9-.75q.4.15.5.55 0 1.25-2.85 3.9l-.55.15q-3.1-1-5.45-.85l-1.7.3q-.4.15-.7-.25-.2-.55.1-.85l.9-1.7q.85-1.55 1.55-1.8 3.1-1.1 8.2.55" fill="#f8b100" fill-rule="evenodd" transform="translate(.5 .5)"/><path d="M11 8.15 11.7 7l-4.05-.5q-.45-.05.3-.6 4.45.35 4.6.65.05.4-1 1.9l-.75.6q-.35-.2.2-.9" fill="#fef0bc" fill-rule="evenodd" transform="translate(.5 .5)"/><path d="m13.15 3.9-.4-1.25 2.1 1.2q.6.45-.7 1.45-.45-.15-1-1.4" fill="#9c0c15" fill-rule="evenodd" transform="translate(.5 .5)"/><path d="M10.35 2.65q1.3.55.45 1.6-.8.9-1.85.35l-.55-.3-1.05.25q-1.2-.25-1.1-1.2.25-1 1.25-1-.15-.35.1-.9Q8.3.35 9.5.9q1.15.7.5 1.6l.35.15" fill="#ffd400" fill-rule="evenodd" transform="translate(.5 .5)"/></g></defs></svg>