<svg xmlns="http://www.w3.org/2000/svg" xmlns:xlink="http://www.w3.org/1999/xlink" width="36.05" height="38.3"><use xlink:href="#a" width="23.05" height="16.1" transform="translate(8.7 11.95)"/><defs><g id="a"><path fill="#ba582e" fill-rule="evenodd" d="M16.5 13.75q-7.35 2.65-15.3.5L1.15 12q-.5-.8 1.1-3.1 1.7-2.4 4.4-4.55 7.05-5.7 12.05-2.9 4.05 4.95 3.55 9.2-2.05 1.75-5.75 3.1"/><path fill="#91341e" fill-rule="evenodd" d="M16.65 9.25q3.65-.35 5.1-3.05.75 1.8.5 4.45-2.05 1.75-5.75 3.1-7.35 2.65-15.3.5L1.15 12q-.4-.6.55-2.25.1 1.75 3.25 2.2 3.1.4 5.55-1 1.55-1.2 6.15-1.7"/><path fill="#623806" fill-rule="evenodd" d="M16 2.5q-4.8.15-5.5-.6-.75-.5 2.9-.9 3.6-.4 5.4.45 1.9.9-2.8 1.05"/><path fill="none" stroke="#3c0c03" stroke-linecap="round" stroke-linejoin="round" stroke-width=".5" d="M1.15 12.6q4.15 2.1 12.4 0 7.75-1.95 8.7-4.15"/><path fill="none" stroke="#3c0c03" stroke-linecap="round" stroke-linejoin="round" stroke-width=".5" d="M9.75 13.1q.2-3.15-3.3-4.2-2.9-.9-3.95-.25M14.9 2.5q3.1.1 4.3-.85.95.95 1.2 2.95-3.1.35-3.9 2.85-2.1 1.95-5.8 1.05-3.55-.75-3.15-2.3l4.25-3.8 3.1.1Z"/><path fill="none" stroke="#3c0c03" stroke-linecap="round" stroke-linejoin="round" stroke-width=".5" d="M4.5 6.4q.25.45 1.55.35 1.25-.1 1.5-.55M10.8 1v.85q0 .5 1 .55"/><path fill="none" stroke="#1c0601" stroke-linecap="round" stroke-linejoin="round" d="m18.55 1.25.85.4 3.15 6.6v2.1l-.05.1v.2l-.1.05v.15l-1.25 1.05-2.4 1.25h-.2l-.15.1q-.15.1-.25.15l-4.35 1.35-6 .85-3.65-.2-2.5-.65-.4-.25-.1-.05-.25-.3-.1-.2-.1-.55-.05-1.2-.15-.3v-.65l.2-.35.1-.45.6-.85 1.3-1.5 5.55-5.15 1.9-1.25 2.75-1 1.4-.2 2.95.35 1.3.4Z"/><path fill="none" stroke="#000" stroke-linecap="round" stroke-linejoin="round" stroke-width=".75" d="M7 5.65q1.7-.4 4.45 1.85M8.4 3.85q1.55-.35 4.5 1.85"/><path fill="#fff" fill-rule="evenodd" d="M2.7 9.4q.5-.4 1.45 0l-.45 1.35-2.25.5Q2.05 9.6 2.7 9.4m2.25 0q2.5.75 3.1 1.5l-3.75-.5.65-1"/></g></defs></svg>