<svg xmlns="http://www.w3.org/2000/svg" xmlns:xlink="http://www.w3.org/1999/xlink" width="36.05" height="38.3"><use xlink:href="#a" width="24.95" height="21.4" transform="translate(7.35 8.2)"/><defs><g id="a"><path fill="none" stroke="#300000" stroke-linecap="round" stroke-linejoin="round" stroke-width="1.5" d="M17.35.9Q14.9.25 14.4 2.1q-1 3.1-3.65 5.65l-4.25 3-1.4-.25L3 12.25h1.35L2.5 14l-.1.9-1.4.8-.25 1.2q-.1 1.3.65 2.05.85.9 4.85 1.45 3.85.5 5.4.05 3.3-1.4 6.6-2.85 5.15-2.5 5.65-3.2.95-1.45-.9-3.95v-.1q-.1-1.1-1.25-2.35-1.1-1.3-1.35-2.55l-.7-3.55q-1.1-.7-2.35-1Z"/><path fill="#6d0000" fill-rule="evenodd" d="M22 9.65q.95.1 1.7 2.05.7 1.95.2 2.7-.5.7-5.65 3.2-3.3 1.45-6.6 2.85-1.55.45-5.4-.05-4-.55-4.85-1.45-.75-.75-.65-2.05L1 15.7q.65-1 10.4-3.6Q20.75 9.5 22 9.65"/><path fill="#0a50d2" fill-rule="evenodd" d="M1.2 15.7q.95-1.25 11.65-3.05 10.65-1.9 10.75-.7.25 3-13 6.55-5.1 1.4-7.75-.55L1.2 15.7"/><path fill="#c54900" fill-rule="evenodd" d="m20.6 10.9.65 2.05 1.9-1.5q.2 1.9-2.15 2.4-1.35.3-6.5 2.65-4.55 2.4-6.65 2.15-1.35-.15-1.45-1.2l.1-1.05q-1.75 1.35-2.8 1.25-.75-.05-1.1-1.4Q2.2 15 2.5 14l7.25-5.4-.3.65q3-.1 5.15-1.4-.45 1.35-.7 4Q15 11.1 17.7 10q-.2.75-.1 2.35.75-.7 3-1.45"/><path fill="#952d00" fill-rule="evenodd" d="M6.2 14.85q1.15.1.5 1.25-1 1.85-3.45 1.5-.6-.15-.05-1.1.95.45 3-1.65M20.45 14q-5.8 2-6.95 3.15-.9.85-3.85 1.35-3 .45-3.15-.4-.15-1.2.5-1.1l11.4-3.3 2.05.3"/><path fill="#0a50d2" fill-rule="evenodd" d="m5.1 10.5 3.1.65q3.5.85 5.65 2.1-1.25.35-2.4 1.25-4.5-2.55-8.45-2.25l2.1-1.75"/><path fill="#1f0082" fill-rule="evenodd" d="M13.85 13.25q2.25 1.25 2.55 2.85-1.05.75-1.95.5l-.7-.45q-.85-.75-2.3-1.65 1.15-.9 2.4-1.25"/><path fill="none" stroke="#0a50d2" stroke-linecap="round" stroke-linejoin="round" d="M6.15 17.95q.25-2 2.55-3.55 1.2-.8 2.3-1.2"/><path fill="#952d00" fill-rule="evenodd" d="M14.4 2.1q.25-.9 1.05-1.2 2.45.35 4.3 1.1l.65 3.45Q20.65 6.7 21.75 8 22.9 9.25 23 10.35l.15 1.1-1.9 1.5-.65-2.05q-2.25.75-3 1.45-.1-1.6.1-2.35-2.7 1.1-3.8 1.85.25-2.65.7-4-2.15 1.3-5.15 1.4l.3-.65 1-.85Q13.4 5.2 14.4 2.1"/><path fill="#c54900" fill-rule="evenodd" d="M8.65 15.4q.1 1.45-1 2.5-1.15 1-1.55-.2-.35-1.05 1.1-1.8l1.45-.5"/></g></defs></svg>