<svg xmlns:xlink="http://www.w3.org/1999/xlink" height="38.3" width="36.05" xmlns="http://www.w3.org/2000/svg"><use height="14.65" transform="translate(8.05 13.4)" width="24.6" xlink:href="#a"/><defs><g id="a" fill-rule="evenodd"><path d="M8.1 4.8q1.4.15.2 1.95-6.7 5.8-14.65 6.35-5.65.5-7.95-1.15-2.5-1.75-.65-2.85.35-3.85 2.8-6 1.75-1.6 3.6-2.4.3-.15.7-2.1.5-.2 2.4 1.2l6.9-.4Q3.9-.55 5.9 1.1q1.95 1.55 2.2 3.7" fill="#832c00" transform="translate(15.75 1.45)"/><path d="M7.15 5.6q1.15-.05.1 1-6.05 4.9-13.5 5.45-5.4.4-7.15-.85-1.85-1.4-.25-1.6.9-.15 1.6 1 5.95 1.75 13.2-1.45 3.55-1.65 6-3.55" fill="#868688" transform="translate(15.75 1.45)"/><path d="M7.15 5.6Q.75 10.65-4.6 11.2q-3.75.45-6.55-.1-2.6-.6-2.5-1.5v-.5l.45-1.95q.8-2.2 2.25-3.45 1.9-1.6 3.2-2.05L-7.2-.3q.65-.15 1.95 1.1L1.5.45Q6.6.5 7.15 5.6" fill="#ba4e00" transform="translate(15.75 1.45)"/><path d="M1.6.95q3.35.1 3.3 1.6.05 1.1-5.15 2.75-1.55.55-2.6-1.4l-1.7-2.6L1.6.95" fill="#411300" transform="translate(15.75 1.45)"/><path d="m-7.05.15 2.4 1.95q.95 1.2 2.05 3.5-.35.15-2.8-3.1L-7.15.8l.1-.65" fill="#da7d24" transform="translate(15.75 1.45)"/><path d="m6.45 3.4.3.9q-7 5.85-14.35 5.6l-4.25-.8-1.55-.65.15-.7q6 2.9 13.4-.45 3.8-1.7 6.3-3.9" fill="#d0d034" transform="translate(15.75 1.45)"/><path d="M-11.15 3.8-9 2.3q3.25.6 5 3.65 1.35 2.4 1.25 4.85l-3.6.55-.2-2.4q-.8-2.9-2.75-4.3l-1.85-.85" fill="#d0d034" transform="translate(15.75 1.45)"/><path d="m-6.55 9 3.5-.6.3 1-3.7.55-.1-.95" fill="#ffffa3" transform="translate(15.75 1.45)"/><path d="M1.9 4.55q1.3-.6 2.55-1.25.45 1.25.75 3.75l-2.55 1.5-.75-4" fill="#d0d034" transform="translate(15.75 1.45)"/><path d="m2.4 6.25 2.4-1.6.2.95-2.45 1.65-.15-1" fill="#ffffa3" transform="translate(15.75 1.45)"/><path d="m1.6.95-3.4.1Q-2.4.65-3 .6L.2.4l1.4.55" fill="#d0d034" transform="translate(15.75 1.45)"/></g></defs></svg>