<svg xmlns:xlink="http://www.w3.org/1999/xlink" height="38.3" width="36.05" xmlns="http://www.w3.org/2000/svg"><use height="17.8" transform="translate(8.95 12.85)" width="22.95" xlink:href="#a"/><defs><g id="a" fill-rule="evenodd"><path d="M-.1-.1h2.15q2.6.2 4.4 1.15 2 1.05 1.6 4.2-.35 2.7-1.6 4.1-2.2 2.5-7.95 4.9-7.8 3.2-12.25-.25-1.65-1.25-.85-5.5 1-4.95 6.15-7.6Q-5.9-2.25-2.9-1.95q1.85.1 2.8 1.85" fill="#231f20" transform="translate(14.85 2)"/><path d="M5.5 9q-1.8 2.1-7.1 4.2-7.05 2.8-11.05-.2-1.5-1.15-.8-4.7.9-4.3 5.5-6.5Q-5.6-.9-2.9-.7-1.2-.6-.4.9h2q2.3.2 3.9 1 1.85.9 1.4 3.65Q6.65 7.8 5.5 9" fill="#056" transform="translate(14.85 2)"/><path d="M-6.35 4.25v.2q-4.05 8.75-4.65 9-.45.1-1.1-.85-.65-1-.55-1.8 3.7-7.15 3.6-6.65l2.7.1" fill="#002a37" transform="translate(14.85 2)"/><path d="m.3 7.75-3.15 3.65q-1.65 1.55-4.1 2.25-2.45.65-3.9 0-2.05-.9-.3-3.1l6.9-2.9L-1.8 5.6Q.6 3.8 1.85 3.9q1.95.25 3.3 3.7-.35 1.9-1.5 1.2-.6-.35-.75-1.65-.15-1.25-.5-1.3Q2 5.7.3 7.75" fill="#002a37" transform="translate(14.85 2)"/><path d="M1.4 11.7Q3.9 9.9 5 7.45q1.8-3.85.7-5.5l.75.7q.75.9.65 2.15-.4 3.5-1.8 4.6l-3.9 2.3" fill="#002a37" transform="translate(14.85 2)"/><path d="M1.4 3q3.65-1.25 4.9.3Q7.35 4.7 5 7.9q-.4.55-.95-.8-.7-1.8-1.1-2.15Q1.3 3.3-2.85 9.7q-2.55 3.75-7.6 3.05-1.45-.2-.65-2.4.65-1.95 2.25-3.8Q-5.4 2.25-3.9 3.1q2.05 1.2 5.3-.1" fill="#dff000" transform="translate(14.85 2)"/><path d="M3.4 1.75q.75.3-3.5.85.35-.5.1-1.15l3.4.3" fill="#231f20" transform="translate(14.85 2)"/><path d="M-8.4 2.5q2.4-.2 1.3.5-2.8 1.95-4.3 5.4-.75 1.75-.9 3.1-1.25-.05-.75-3.25.8-4.4 4.65-5.75m5.2-3.2Q.25.1-.85 1.7q-.3.4-1.6-.3Q-4 .5-4.65.5q-2.9 1-2.25.25l1.25-.9q1.4-.8 2.45-.55" fill="#dff000" transform="translate(14.85 2)"/><path d="M-9.9 10.7q0-1 1.05-1.35l2.65-.4 2.55-.2q1 .2-2.65 1.35-3.6 1.15-3.6.6m2.1-3.45q-.65-.35.85-1.3 6.15-.7 5.2-.1l-3.2 1.05-2.85.35m-4.65 2.55q-.15.65-.15-2.35.35 0 .55.95l-.4 1.4m1.55-3.85q-1.2.75-.25-1.4 1.15 0 1.05.25l-.8 1.15" fill="#002a37" transform="translate(14.85 2)"/><path d="M-5.3-.45q1.65-.85 3.05-.4Q0-.15-.85 1.7-1.4.75-2.5.05L-4.95 0l-1.7.5 1.35-.95m11.8 4.3q.2.75-.7 2.75.35-2.6-1.3-2.95l-6.2.15L1 3.1q2.1-.7 3.75-.7 1.45 0 1.75 1.45m-11.55-.9q.5-.2 1.45.3Q-5.55 2.9-8.65 7q-1.4 1.95-2 3.9l-.2 1.65q-.55 0-.5-.75.25-3.2 3.05-6.2 1.9-2.1 3.25-2.65" fill="#faffde" transform="translate(14.85 2)"/></g></defs></svg>