<svg xmlns="http://www.w3.org/2000/svg" xmlns:xlink="http://www.w3.org/1999/xlink" width="36.05" height="38.3"><use xlink:href="#a" width="22.95" height="17.8" transform="translate(8.95 12.85)"/><defs><g id="a" fill-rule="evenodd"><path fill="#231f20" d="M14.75 1.9h2.15q2.6.2 4.4 1.15 2 1.05 1.6 4.2-.35 2.7-1.6 4.1-2.2 2.5-7.95 4.9-7.8 3.2-12.25-.25-1.65-1.25-.85-5.5 1-4.95 6.15-7.6Q8.95-.25 11.95.05q1.85.1 2.8 1.85"/><path fill="#056" d="M20.35 11q-1.8 2.1-7.1 4.2Q6.2 18 2.2 15q-1.5-1.15-.8-4.7.9-4.3 5.5-6.5 2.35-2.7 5.05-2.5 1.7.1 2.5 1.6h2q2.3.2 3.9 1 1.85.9 1.4 3.65-.25 2.25-1.4 3.45"/><path fill="#002a37" d="M8.5 6.25v.2q-4.05 8.75-4.65 9-.45.1-1.1-.85-.65-1-.55-1.8 3.7-7.15 3.6-6.65l2.7.1"/><path fill="#002a37" d="M15.15 9.75 12 13.4q-1.65 1.55-4.1 2.25-2.45.65-3.9 0-2.05-.9-.3-3.1l6.9-2.9 2.45-2.05q2.4-1.8 3.65-1.7 1.95.25 3.3 3.7-.35 1.9-1.5 1.2-.6-.35-.75-1.65-.15-1.25-.5-1.3-.4-.15-2.1 1.9"/><path fill="#002a37" d="M16.25 13.7q2.5-1.8 3.6-4.25 1.8-3.85.7-5.5l.75.7q.75.9.65 2.15-.4 3.5-1.8 4.6l-3.9 2.3"/><path fill="#dff000" d="M16.25 5q3.65-1.25 4.9.3 1.05 1.4-1.3 4.6-.4.55-.95-.8-.7-1.8-1.1-2.15Q16.15 5.3 12 11.7q-2.55 3.75-7.6 3.05-1.45-.2-.65-2.4Q4.4 10.4 6 8.55q3.45-4.3 4.95-3.45Q13 6.3 16.25 5"/><path fill="#231f20" d="M18.25 3.75q.75.3-3.5.85.35-.5.1-1.15l3.4.3"/><path fill="#dff000" d="M6.45 4.5q2.4-.2 1.3.5-2.8 1.95-4.3 5.4-.75 1.75-.9 3.1-1.25-.05-.75-3.25.8-4.4 4.65-5.75m5.2-3.2q3.45.8 2.35 2.4-.3.4-1.6-.3-1.55-.9-2.2-.9-2.9 1-2.25.25l1.25-.9q1.4-.8 2.45-.55"/><path fill="#002a37" d="M4.95 12.7q0-1 1.05-1.35l2.65-.4 2.55-.2q1 .2-2.65 1.35-3.6 1.15-3.6.6m2.1-3.45q-.65-.35.85-1.3 6.15-.7 5.2-.1L9.9 8.9l-2.85.35M2.4 11.8q-.15.65-.15-2.35.35 0 .55.95l-.4 1.4m1.55-3.85q-1.2.75-.25-1.4 1.15 0 1.05.25l-.8 1.15"/><path fill="#faffde" d="M9.55 1.55q1.65-.85 3.05-.4 2.25.7 1.4 2.55-.55-.95-1.65-1.65L9.9 2l-1.7.5 1.35-.95m11.8 4.3q.2.75-.7 2.75.35-2.6-1.3-2.95l-6.2.15 2.7-.7q2.1-.7 3.75-.7 1.45 0 1.75 1.45M9.8 4.95q.5-.2 1.45.3Q9.3 4.9 6.2 9q-1.4 1.95-2 3.9L4 14.55q-.55 0-.5-.75.25-3.2 3.05-6.2 1.9-2.1 3.25-2.65"/></g></defs></svg>