<svg xmlns="http://www.w3.org/2000/svg" xmlns:xlink="http://www.w3.org/1999/xlink" width="36.05" height="38.3"><use xlink:href="#a" width="24.85" height="19.35" transform="translate(7.15 11.3)"/><defs><g id="a" fill-rule="evenodd"><path fill="#351e02" d="m19 15.4.05.1q.15.4.45.4 1.95.5 4.15-.9 1-.65 1.05-1.3.45-3.05-.45-8.85-.55-3.7-5.5-4.7-5.8-1.05-9.2 4.8-1.9 3.2-2.65 3.8L1.7 9Q.65 9.2.25 10.1L0 11.35q0 1.75 1.25 4.25l.15.15q6.25 6.1 15.6 1.9 1-.65 2-2.25"/><path fill="#f9c00d" d="M13.15 2.9q-1.6 1-2.85 2.85-1.05 3.9-1.5 3.9l-6.3.45q-2.35.4-.2 4.3 5.85 5.1 14.4 1.5 1-.7 1.85-2.25l.65-1.45.3 1.8q1.3.25 2.65-.3 1.15-.5 1.3-1.05.35-1.8.2-4.3l-.2-1.4v-.2l-.2-1.25q-.45-3-5-3.6-2.45-.3-4.35.6h-.15l-.6.4"/><path fill="#351e02" d="M16.45 8.15q-1-1.4-3.45-2.55-2.6-1.25-4.05-.65Q7.2 5.4 6.25 7q-.45.65-.45 1.35l.15.6q.1.5.75.5 2.55-.45 5.2 3 1.35 1.4 4.05-.8 1.8-1.65.5-3.5"/><path fill="#b27247" d="M7.25 8.1q2.8-.35 5.5 3.3 3.45-.9 2.05-2.8-.65-.95-2.5-1.95-1.9-1.05-2.8-.7-1.7.3-2.25 2.15"/><path fill="#6d4224" d="m7.25 8.1 1.55.35 1.7.9q1.45 1 2.25 2.25.5.05 1.5-.5-1-2.2-3.3-3.15l-2.4-.85q-1.3-.6-1.3 1"/><path fill="#fff" d="M2.75 11h-.1q1.75 1.9 3.65 1.95 2.7.15 3.75-1.2l-2.9.2-2.35-.25-2.05-.7M20.3 9.85 22.15 8q-.4.5-1.65 1l-1.75.35-.25.05q.15 1.05 1.8.45"/><path fill="#cf7a00" d="m18.2 11.75-.7 1.4-2.75 1.7q-2.35.9-6.2.5l-3.4-.6q-1.7-.5-3.2-1.35.05.7.75 1.35l1.8 1.35 2.55 1 3.5.3 3.15-.45q2.8-.75 3.55-1.45l1.25-1.6.55-1.55.45 1.65q2.5.65 4-.85.4-.45.05-4.15-1.1 1.4-1.75 1.6l-2.55.65q-.85.15-1.05.5"/></g></defs></svg>