<svg xmlns="http://www.w3.org/2000/svg" xmlns:xlink="http://www.w3.org/1999/xlink" width="36.05" height="38.3"><use xlink:href="#a" width="21.25" height="18.75" transform="translate(10.5 9.85)"/><defs><g id="a"><path fill="#333" fill-rule="evenodd" d="M19.85 10.35v-.05q.7-6.65-3.4-8.45Q12.7.1 10.55 3.4l-.6.9-1.3-.1h-.2L9.6 2.65Q12-1.1 16.35.5q5.2 1.7 4.55 9.55l-.25-.15q-.4-.1-.6.2l-.2.25M1.05 12.3l.25-1.45 1-1.25.4.3.85.25q-1.1.95-1.25 2.7l-1.1-.5-.15-.05M5.5 7.25l1.1-1q.05.4.5.55l.6.15-.7.65-1.5-.35"/><path fill="#fff" fill-rule="evenodd" d="m9.95 4.3.6-.9q2.15-3.3 5.9-1.55 4.1 1.8 3.4 8.45v.05L18.1 11.7q-2.5-6.6-8.15-7.4M7.7 6.95q5.35 1.5 6.65 6V13l-1.3.1H13q-.8-1.45-2.1-2.9Q9.05 8.3 7 7.6l.7-.65m-2.75 4.4q-1.2.45-1.25 1.95.05-1.5 1.25-1.95m-1.4-1.2q1.65.5 3.4 1.8 1.4 1.05 1.95 1.8l-5.2-.45-1.4-.45q.15-1.75 1.25-2.7"/><path fill="#3f0f0d" fill-rule="evenodd" d="M9.95 4.3q5.65.8 8.15 7.4l1.75-1.35.2-.25q.2-.3.6-.2l.25.15.25.35.1 1.5-.3 2.25q-.7 2.5-7.45 3.3-5.4 2.4-11.1.3-1.55-.6-2.05-1.6-.7-1.8 0-3.5l.35-.3.35-.05.15.05 1.1.5 1.4.45 5.2.45q-.55-.75-1.95-1.8-1.75-1.3-3.4-1.8L2.7 9.9l-.4-.3v-.05q-.15-.4.05-.55 1-1.8 2.85-1.8l.3.05L7 7.6q2.05.7 3.9 2.6 1.3 1.45 2.1 2.9h.05l1.3-.1v-.05q-1.3-4.5-6.65-6l-.6-.15q-.45-.15-.5-.55V6.1q.1-.9 1.05-1.5l.8-.4h.2l1.3.1m3.65 5.55h-.05l1 1.6.25.55.15.6 2.35-.8-.8-1.8q-2.45-4.8-7.6-5.15l-.65.3-.5.5-.3.65q2.1.1 4.4 1.9 1.05.75 1.75 1.65m4.95 2.95q.05 1.25-.55 2.7l-.95.35 2.25-.95 1-1.1q.25-.9.05-2.5l-1.8 1.5v-.1q-1.65.9-3.5 1.3l-1.25.15-.65.05h-.1v.05-.05h.1l.65-.05 1.25-.15q1.85-.4 3.5-1.3v.1m-17.2 1.05q-.45 1.5.05 2.1 1.1 1.3 5.4 1.55l4.6-.25-3.2.25 4.85-3.25-8.3.35-3.15-1-.15-.1-.1.35M5.3 8l-.8.1q-.85.3-1.3 1.1 3.3.7 5.2 2.7l-.15.05 1.15 1.2.3.5 2.35-.35q-.55-1.25-1.55-2.45-1.7-1.95-3.7-2.6L5.3 8"/><path fill="#b74513" fill-rule="evenodd" d="m16.5 10-1-1.55-1.9 1.4q-.7-.9-1.75-1.65-2.3-1.8-4.4-1.9l.3-.65.5-.5.65-.3q5.15.35 7.6 5.15m.55 5.85.95-.35q.6-1.45.55-2.7l1.8-1.5q.2 1.6-.05 2.5l-1 1.1-2.25.95-1.05.3-2.6.4-1.15.45-.85.25.85-.25 1.15-.45 2.6-.4 1.05-.3m-4-1.6L8.2 17.5l3.2-.25-4.6.25q-4.3-.25-5.4-1.55-.5-.6-.05-2.1l-.1.95q5.15 2.4 6.9.1l-3.4-.3 8.3-.35M8.4 11.9q-1.9-2-5.2-2.7.45-.8 1.3-1.1l.8-.1-1.55.6 4.45.35-1.4-.7q2 .65 3.7 2.6 1 1.2 1.55 2.45-.5-1-1.35-2.15l-2.3.75m.5-7.05-1.15.8 4.65.25q-1.5-.85-3.5-1.05"/><path fill="#dd995e" fill-rule="evenodd" d="m1.35 13.85.1-.35.15.1 3.15 1 3.4.3q-1.75 2.3-6.9-.1l.1-.95m5.45-5.6 1.4.7-4.45-.35L5.3 8l1.5.25m2.1-3.4q2 .2 3.5 1.05l-4.65-.25 1.15-.8"/><path fill="#6b2613" fill-rule="evenodd" d="m16.5 10 .8 1.8-2.35.8-.15-.6-.25-.55-1-1.6h.05l1.9-1.4 1 1.55m-8.1 1.9 2.3-.75q.85 1.15 1.35 2.15l-2.35.35-.3-.5-1.15-1.2.15-.05"/><path fill="none" stroke="#333" stroke-linecap="round" stroke-linejoin="round" stroke-width=".75" d="M3.7 13.3q.05-1.5 1.25-1.95"/></g></defs></svg>