<svg xmlns="http://www.w3.org/2000/svg" xmlns:xlink="http://www.w3.org/1999/xlink" width="36.05" height="38.3"><use xlink:href="#a" width="25.1" height="22.85" transform="translate(7.9 9.1)"/><defs><g id="a" fill-rule="evenodd"><path fill="#303030" d="m16.8 17.45-.15-.6q0-.4.45-.8.95-.7 2.75-.95l.55.2.2.5v.05l3.1-1.35.5-.05.4.3.45 1.35q.15.35-.25.65-6.6 4.2-13.85 5.55-5.6 1-8.6.15-2.8-1.35-2.25-3Q.2 19 .7 19l3.25-.2-.05-.35q0-.45.4-.75 1.65-1.4 5.05-.45.5.2.5.5l.05.2-.2.4.6.35q1.9 1.05 6.5-1.25"/><path fill="#b5b5b5" d="m17.9 17.85-.25-1.35 2.4-.8.4 1.1q.65.05 3.5-1.55l.2.55Q17.6 20 10.8 21.3q-5.1.95-7.75.15-1.15-.45-1.7-1.4l2-.1 1.75-.35q-.4-1.4-.15-1.6.6-.45 2.45-.4l1.9.25-.35.65q-.15.55.95 1.1 1.75.95 8-1.75"/><path fill="#fff" d="m7.4 17.6 1.9.25-.35.95-2.4 2.95-3.5-.3q-1.15-.45-1.7-1.4l2-.1 1.75-.35q-.4-1.4-.15-1.6.6-.45 2.45-.4m10.5.25-.25-1.35q0-.45 1.8-.75l-.4 2.85q-3.45 1.6-6.5 2.25l.65-1.3q4.45-1 4.7-1.7"/><path d="m20.05 4.55 3.1 6.65v.4l.05.45v.7h-.05v.5l-.05.2v.1l-.05.05v.15L21.8 14.8l-1.9 1.05-.55.2h-.15l-.05.05-1.7.7-3 .9-5.25.8H6.15l-2.7-.45-1.25-.35-.5-.35-.15-.3-.1-.2-.15-.9v-.85l-.15-.3-.05-.25.05-.35.15-.4.4-.8 1.6-2 5.55-5.15L10.8 4.6q1-.35 1.9-.8l2.25-.3 2.9.25 2.2.8"/><path fill="#fff" d="M7.6 10.5q-1.5-.55-2.2-.25.05-.45 1.45-1.5.85-.7 3.25.35 2.3 1.15 1.85 1.45l-2.05 1.5q-.7-1-2.3-1.55"/><path fill="#ccc" d="M8.15 10.75q.3-.95 2.5-1.3 1.65.9 1.3 1.1l-2.05 1.5q-.5-.75-1.75-1.3"/><path fill="#fff" d="M4.95 12.85q-1.5-.55-2.15-.3.05-.45 1.4-1.5.95-.7 3.25.45 2.4 1.05 1.9 1.45l-2.05 1.5q-.7-.95-2.35-1.6"/><path fill="#ccc" d="M4.6 12.75q2.25 0 2.8-1.3 2.45 1.1 1.95 1.5l-2.05 1.5q-.75-1.1-2.7-1.7"/><path fill="#03102d" d="m9.9 1.8.15-.2q.65-.85 4.3-1.35 5-.7 6.7.6.55.65 1.55 4.95.95 4.2.8 4.9l-.75.85q-1.3.7-4.45.8-3.5.15-5.25-.8l-.25-.2q-1.1-1.8-3.65-2.25l-2.95.15q-.5.25-.75-.2-.3-.45.1-.8l.5-.4q2.45-2 3.95-6.05"/><path fill="#0075d6" d="M15.35 1.1q3.75-.25 4.85.65.5.5 1.35 4.35.8 3.85.65 4.4-.8.7-4 .8-3.4.15-4.65-.8-1.25-1.95-3.45-2.45l-2.9.15q2.45-2.35 3.75-5.85.7-.9 4.4-1.25"/><path fill="#243c89" d="M22.2 10.5q-.65.55-3.35.8l-4.5-.35q3.45-.7 4.75-1.95 1.7-1.45 1.95-4.95 1.4 5.5 1.15 6.45"/><path fill="#03102d" d="M7.7 4.6q.35-1.25 2.5-1.35 4.6-.45 5.7 2.3v.4l-1.35 2.8q-.45.45-.85.1-2.5-1.8-5.85-1.55-.8.15-1-.25-.2-.25 0-.75l.85-1.7"/><path fill="#fff" d="m8.7 4.7 2.85-.25q2.05.35 3.05 1.4l-.7 1.75q-2.35-1.55-4.5-1.55l-1.35.05.65-1.4"/><path fill="#ccc" d="m14.6 5.85-.7 1.75q-1.25-.8-3-1.35 1.65-.75 2.3-1.3l1.4.9"/><path fill="#999" d="M2.2 13.35q.45 0 2.5.85-.55.9-1.3.75-1-.45-1.75-.6l.55-1"/><path fill="#8af1ff" d="m16.9 1.2.65.15q-1.65 1.85-2.75 2l-3.2-.15q-1.15-.1-.45-.75l1.3-.85 4.45-.4"/><path fill="#606060" d="M16.55 15.45q-5.15 1.6-8.95 1.85 8.6-1.8 14.95-5.5v.45q-.5 1.45-6 3.2"/></g></defs></svg>