<svg xmlns="http://www.w3.org/2000/svg" xmlns:xlink="http://www.w3.org/1999/xlink" width="36.05" height="38.3"><use xlink:href="#a" width="20.55" height="19.45" transform="translate(11.75 9.3)"/><defs><g id="a"><path fill="#b5e6e6" fill-rule="evenodd" d="M14.9 2.3h-.05l.05.1v.25h-.2l-.1-.05-.15-.15h-.2l-.05.05-.6-.05q-2.45-.65-5.2.35 2.75-1 5.2-.35l-2.7.1.85.15.5-.1h.55q.85.05 1.35.6l.45-.4h.1l.2.1-.2-.1.2.05v.05l-.1.85-.3 1.05-.1.15V5l-.55.4-.05-.05v.05l-.15.05-.3.1h-.1l-.55.05-.1-.15.35-.85.1-.25.1-.2h-.05v-.4l-.05-.15-.15-.1q-.9-.5-1.95-.6L10 2.85h-.1V2.8h-.2l-.1.05-.55.1-.55.1h-.05V3l-.05-.2-.05-.05.2-.1-.05-.05h-.1l-.25-.8q3.7-1.05 6.8.05l-.05.45m-5.45-.05L9 2.2v.1l.15.05.3-.1"/><path fill="#f9c" fill-rule="evenodd" d="m7.65 3.75.3-.25.15.05-.25.65-.05-.1.05-.15-.15.1v-.1l-.05-.2m7.9 4.15-.5-.45-.35-.15-.2-.05-1.1 2.35.1.1.75.65-.35.45-.85-.55-.2.05-1.25 2.1.15.15.75.55q-.15.2-.05.45v.05l-.8.55q-2 1.15-4.5 1.35l-4.3.45-.3-1 .2-1.4.05.1.3.1q.8.1 1.15-.45.8-1.15-.6-1.7l-.1-.15h-.3l-.45.15-.1.05.05-.2.1-.2.55-1.2.85-1.2L5.9 6.5v.1l.45.25.2.15.05.05-.5 1h-.05v.05q-1 .4-1.2.9-.35.35-.25.75l.45.35-.1.15v.05l.05-.1.1-.05.05.05-.4 1 .25.2.1.1 1.05.6 2.45.35.55-.05.25-.05.5-.05.15-.05.15-.05.05-.1.3-.95q.8-.15 1.15-.5.35-.4.25-1.05l-.6-.6.45-1.2h.05l.6-.45.35-.7.05-.05q1.35 0 2.1-.6l.25.35.3 1.1.05.25v.2m-10.8 8.35-.4-.05h.35l.05.05m-3-4.1.05-.25.1-.05v-.05h.05l.1-.3.15-.25v.15l-.1.1h-.05v.05l-.1.25-.2.35M7.5 4.4l.05.1-.05.25.05.1-.3.05L7 5l.5-.6m1.05.25.05-.2.25-.75h.05l.15.05q1.6-.15 2.8.45h.1l-.15.4-.2.7-.55-.2-.3-.05-.3-.1-1.7-.3h-.2m2 3.95-.1-.15-.2-.05-2.45-.45h-.6l.2-.4.05-.15.85.1 1.7.35h.25l.6.05-.3.7m-4.7 2 .25.1.25.05 1.6.25.6.05h.05l.35.2.5-.05.1.15.05-.1h.2l-.15.4-.4.05q-2.1.2-3.6-.7l.15-.3.05-.1m-3.6.6.05-.2.8-1.25-.55.95-.15.4-.15.1m-.6 2.6.15.5v.05l-.15-.55"/><path fill="#804" fill-rule="evenodd" d="m14.75 8.45.1.05.4.3-.4.65-.2.45-.5-.3.6-1.15m-7.1-3.1h.65l2.45.4.05.05 1.3.45.1.35v.05l.1.1v.15l-.25.25H12l-.1.1-.8.3-.2-.05-3.15-.7-.5-.1H6.6v-.25l.3-.25.15-.15L7.1 6l.55-.5.2-.1-.2-.05m5.25 6 .3.25-.05.05-.4.5-.35-.15.5-.65m.5-.05-.05.1-.3-.15.1-.2.25.25M7.9 8.6v-.05.05m-1.5.2.25-.1.2-.05 1.2-.15-.15.05q1.25.05 2.55.65l.15.1.35.1.15.2.05.05q.2.4.1.65l-.3.15-.05.05h-.05l-.85.2-.4.05-3.3-.65-.1-.15q-.25-.35.05-.65l.15-.5"/><path fill="#ff59ac" fill-rule="evenodd" d="M12.85 14.9q-1.2.7-2.45 1.05l-5.3.3h-.35l-.05-.05h-.35l-1.5-.15v-.1l4.3-.45q2.5-.2 4.5-1.35l.8-.55v-.05l.1.35.15.7.15.3"/><path fill="#ff1a8c" fill-rule="evenodd" d="m14.05 16.35-1.25.95q-4.05 1.35-9.4.5l-.45-1.15 7.75.3 2.7-1.15.65.55"/><path fill="#fde" fill-rule="evenodd" d="m3.4 17.8-.25-.05-.65-1.2.45.1.45 1.15m-.55-1.75-.1-.05-.3-.05-.05-.15-.1-.2-.25-.45L2 15l-.05-.05v-.05l-.1.05-.05-.05.2-.05-.1-.25-.05-.2-.05-.05v-.05l-.15-.5v-1.05l.05-.3.05-.25v-.05l.2-.35.1-.25v-.05h.05l.1-.1v-.25l.05.05.15-.1.15-.4.55-.95.5-.8.3-.65.05.05.25-.3 1.9-2.5-.05.2.05-.05.15-.25 1.2-1.15.05.1L7 5q-1.05.55-1.1 1.5L4.25 8.85l-.85 1.2-.55 1.2-.1.2-.05.2.1-.05.45-.15h.3l.1.15q1.4.55.6 1.7-.35.55-1.15.45l-.3-.1-.05-.1-.2 1.4.3 1v.1m4.85-12 .15-.1-.05.15-.1-.05m6.95 5.85-.1.1-.45-.35.05-.05.5.3M6.6 6.7h-.05q0-.9.85-1.25l.2-.1h.05l.2.05-.2.1-.55.5-.05.05-.15.15-.3.25v.25m6.15 5.45-.05.1-.35-.2.05-.05.35.15M6.3 10.1h-.15l-.4-.05-.1-.75q.25-.35.75-.5l-.15.5q-.3.3-.05.65l.1.15"/><path fill="#530029" fill-rule="evenodd" d="M7.25 2.8v-.3l.4 1.25-.75.7V4.3l.05-.05H6.7l-.1.15-.2.45-.2.1Q4.9 6.2 3.95 7.7l-.6 1.35L2.3 11l-.2.4-.3.5-.05.25-.2.2-.05.5q-.25.6-.05 1.15l.05-.05h.05l.2 1.35.3.7h.7l.1.05 1.5.15.4.05h.35l5.3-.3q1.25-.35 2.45-1.05l1-.7-1.35-1.1-.75-.55-.15-.15 1.25-2.1.2-.05.85.55 2 1.3.15-.25-1.8-1.5-.75-.65-.1-.1 1.1-2.35.2.05.35.15.5.45 2.1 1.8.1-.2.05-.05h.05l.4-.4.9-.95.1-.1.05-.05.1.3v.15l.65 2.15-.05.35q-3.3 5.3-6.6 7.25l-.1.05q-4.45 1.5-10.7.05l-.7-1.2-.5-.7-.2-.4-.05-.2H1.1l-.35-1-.05-.05-.05-.2v-.1q-.5-1.95.45-3.5l.05-.05L6.8 3.4v-.05l.3-.4.15-.15m9.4 1.5.05.1-.05.05-.05-.1.05-.05m1.5 1.7.05.1-.05-.05V6m-4.1 10.35q2.55-1.95 5.45-5.8l-.4-1.1-.4.55v.05l-.25.15-.55 1.05.35-.75-1.9 2.4-.85 1.1v.05l-.05.1-.35.35v.05H15l-1.6 1.25-2.7 1.15-7.75-.3-.45-.1.65 1.2.25.05q5.35.85 9.4-.5l1.25-.95m-1.2-9.75-.05.05-.35.7-.6.45h-.05l-.95.1-.6-.05H10L8.3 7.5l-.85-.1H7.3l-.25-.1-.45-.25L6.55 7l-.2-.15-.45-.25v-.1Q5.95 5.55 7 5l.25-.1.3-.05.6-.2h.6l1.7.3.3.1.3.05.55.2.4.1.65.7.3.15-.05.05.05.05-.15.05h.05v.2M11.35 9l.6.6q.1.65-.25 1.05-.35.35-1.15.5l-.75.1h-.2l-.05.1-.1-.15-.5.05-.35-.2h-.05l-.6-.05-1.6-.25-.25-.05-.25-.1-.5-.3-.2-.1-.05-.05-.05-.05-.45-.35q-.1-.4.25-.75.2-.5 1.2-.9v-.05h.05L7 8l.2-.05h.6l2.45.45.2.05.1.15.35.1.1.05h.05l.3.25m3.2 1 2 1.4.7-1.25-2.4-1.95-.1.25-.6 1.15-.05.05.45.35M6.6 6.7h.65l.5.1 3.15.7.2.05.8-.3.1-.1h.05l.25-.25v-.15l-.1-.1V6.6l-.1-.35-1.3-.45-.05-.05-2.45-.4h-.7l-.2.1q-.85.35-.85 1.25h.05m6.1 5.55 1.9 1.25.65-.6-1.85-1.6-.25-.25-.1.2-.15.1-.5.65-.05.05.35.2M6.3 10.1l3.3.65.4-.05.85-.2h.05l.05-.05.3-.15q.1-.25-.1-.65l-.05-.05-.15-.2-.35-.1-.15-.1q-1.3-.6-2.55-.65l.15-.05-1.2.15-.2.05-.25.1q-.5.15-.75.5-.25.25-.15.7l.25.05.4.05h.15"/><path fill="#3e001f" fill-opacity=".373" fill-rule="evenodd" d="m14.95 6 .2-.2.2-.25.05-.1.2-.25.05-.05v-.3l.1.3.15.9v.15l.15.45.3.6h.1l-.1.05.35.55.05.1.6.7.25.3V9l.15.2.05.05.05.05-.05.1-.05.1-.1.2-2.1-1.8v-.2l-.05-.25-.3-1.1-.25-.35m3.35 2.35-.05.05-.1.25-.05.05v.15l-.05.05-.05-.05-.1-.1q-.95-1-1.5-3.45l1.85 2.95.05.1m-4.9 7.45 1.6-1.25h.1v-.05l.35-.35.05-.1V14l.85-1.1 1.9-2.4-.35.75.55-1.05.25-.15V10l.4-.55.4 1.1q-2.9 3.85-5.45 5.8l-.65-.55m.85-5.45 1.8 1.5-.15.25-2-1.3.35-.45M12.5 13.1l1.35 1.1-1 .7-.15-.3-.15-.7-.1-.35q-.1-.25.05-.45m2.15-3.2.2-.45.4-.65-.4-.3-.1-.05.1-.25 2.4 1.95-.7 1.25-2-1.4.1-.1m-1.9 2.25.4-.5.05-.05-.3-.25.15-.1.3.15.05-.1 1.85 1.6-.65.6-1.9-1.25.05-.1"/><path fill="#6cc" fill-rule="evenodd" d="M14.9 2.4v-.1l.05-.45q-3.1-1.1-6.8-.05l.25.8-.05.15.05.05.05.2v.05l-.3.35-.05.15-.15-.05-.3.25-.4-1.25v.3l-.1-1.15.05-.2q.6-.3.65-.3 4.1-1.3 7.55 0l.25.2.15.3-.1 1.95.15.1v.05l-.4.45-1 .7-.05.05.1-.15.3-1.05.1-.85v-.5"/><path fill="#f4007a" fill-rule="evenodd" d="m8.1 3.55.05-.15.3-.35h.05l.55-.1.55-.1h.4l.95.05q1.05.1 1.95.6l.15.1.05.15v.4l-.05.2-.1.25-.35.85v.15h.1l.55-.05h.1l.3-.1.15-.05h.05l.55-.4v-.05l.05-.05 1-.7.4-.45V3.7l.2.15.3.25.3.2-.05.05.05.1.05-.05.05.05L18.15 6v.05l.05.05.7 1.05.05.1.05.1.05.05v.05l.15.2.05.05v.05l.05.2-.05.05-.1.1-.9.95-.4.4h-.05l-.05.05.05-.1.05-.1-.05-.05-.05-.05-.15-.2v-.05l-.25-.3-.6-.7-.05-.1-.35-.55.1-.05h-.1l-.3-.6-.15-.45v-.15l-.15-.9-.1-.3v.3l-.05.05-.2.25-.05.1-.2.25-.2.2q-.75.6-2.1.6v-.2h-.05l.15-.05-.05-.05.05-.05-.3-.15-.65-.7-.4-.1.2-.7.15-.4h-.1q-1.2-.6-2.8-.45L8.9 3.7h-.05l-.25.75-.05.2h-.4l-.6.2-.05-.1.05-.25-.05-.1-.05-.1-.05-.25-.2.2-.75.85-.2.25-.05.05.05-.05.2-.25.75-.85.2-.2.05.25-1.2 1.15-.15.25-.05.05.05-.2.1-.15 1.15-1.25-.15.1.15-.1L6.2 5.4l-.1.15-1.9 2.5-.25.3-.05-.05-.3.65-.5.8L2.3 11l1.05-1.95.6-1.35Q4.9 6.2 6.2 4.95l.2-.1.2-.45.1-.15h.25l-.05.05v.15l.75-.7.05.2v.1l.1.05.05.1.25-.65m10.2 4.8-.05-.1L16.4 5.3q.55 2.45 1.5 3.45l.1.1.05.05.05-.05V8.7l.05-.05.1-.25.05-.05M2.75 16h-.7l-.3-.7-.2-1.35H1.5l-.05.05q-.2-.55.05-1.15l.05-.5.2-.2v.05l-.05.25-.05.3v1.05l.15.55.05.05.05.2.1.25-.2.05.05.05.1-.05v.05L2 15l.05.15.25.45.1.2.05.15.3.05m9.05-8.2L11.35 9l-.3-.25H11l-.1-.05-.35-.1.3-.7.95-.1m-1.25 3.35-.3.95-.05.1-.15.05-.15.05-.5.05-.25.05-.55.05-2.45-.35-1.05-.6-.1-.1-.25-.2.4-1 .2.1.5.3-.05.1-.15.3q1.5.9 3.6.7l.4-.05.15-.4.75-.1M6.1 8.05l.5-1 .45.25.25.1h.15l-.05.15-.2.4L7 8l-.9.05m-.35 2L5.5 10q-.1-.45.15-.7l.1.75"/><path fill="none" stroke="#ff59ac" stroke-linecap="round" stroke-linejoin="round" d="M8.4 2.8q2.75-1 5.2-.35l1.1.35.2.1"/><path fill="none" stroke="#000" stroke-linecap="round" stroke-linejoin="round" d="m15.85 3.7-.15-.1.1-1.95-.15-.3-.25-.2q-3.45-1.3-7.55 0-.05 0-.65.3l-.05.2.1 1.15-.15.15-.3.4v.05l-5.65 7.45-.05.05q-.95 1.55-.45 3.5v.1l.05.2.05.05.35 1h.05l.05.2.2.4.5.7.7 1.2q6.25 1.45 10.7-.05l.1-.05q3.3-1.95 6.6-7.25l.05-.35-.65-2.15v-.15l-.1-.3-.05-.2V7.7l-.05-.05-.15-.2V7.4L19 7.35l-.05-.1-.05-.1-.7-1.05m-3.8-1.15.05-.05 1-.7.4-.45V3.7m.85.7.05.05L18.15 6"/><path fill="#b5e6e6" fill-rule="evenodd" d="m14.85 2.3.1.2v.05l-.05.05-.1.05h-.1l-.1-.05-.15-.15h-.2l-.05.05-3.3.05.85.15.5-.1h.55q.85.05 1.35.6l.45-.4.35.05.1 1.35-.25.95h-.3q-.25.3-.65.25l-.05-.05q-.8.8-1.25 0l.05-.25.55-.95q-.4-.1-.65-.45v-.05l-.2-.3-.1-.05-.4-.05h-.2v.05l-.05.1-1.2-.2q-.35-.05-.45-.25V2.8h-.2q-.35.25-.85.4l-.5.2-.5-.1-.1-.1v-.1l.2-.1.6-.35-.05-.05q-.25-.05-.4-.25l-.15-.5.05-.2.4-.05.05.05L10.3 1l1.05-.15h.15l.1.1V1l1.25.1.2.1 1.65.3.6.35v.2q-.2.2-.45.25m-5.4-.05L9 2.2v.1l.15.05.3-.1"/><path fill="#f9c" fill-rule="evenodd" d="M15.6 4.8v-.05l.15-.25h.2l.05.05.15.15.05.05.1.15.05.05.25.25-.3.1-.05-.05-.1.05-.15.05-.05.1h-.05l-.1-.6h-.05l-.1-.05h-.05M17.15 6l1.5 1.9.1.35.25.1q.15.65-.9.95l.2-.3v-.25l.05-1.1-.3-.05-.1-.2-.8-1.4m.1 3.55-.65-.45L15.25 8l-.1-.1-.4-.2-1.25 1.9q1.3.75 2.3 1.8l-.15-.05-.45-.2-.1-.25-.05.05V11l-.05.05-.1.4-.05-.05-.15.1q-1-.3-1.55-1.1l-.1-.1h-.1l-.1.15-1.1 1.65.35.3.85.9q-.3.05-.5.25v.05l-.8.55q-2 1.15-4.5 1.35l-4.3.45-.3-1 .2-1.4.05.1.3.1q.8.1 1.15-.45.8-1.15-.6-1.7l-.1-.15h-.3l-.45.15-.1.05.05-.2.1-.2.55-1.2.85-1.2 3.6-4.9-1.6 1.5-.15.25-.05.05.05-.2.1-.15 1.15-1.25-.45.3-.5.4.2-.45.1-.15h.25l-.05.05v.15l.75-.7.3-.25.15.05v.05l.05.05-.3.55-.2.15-.05.05.05.1v.2l-.05.1.05.1v.05l-.05.1-.65 1.05-.3.45.1-.1h.05l.25.1L7 6.8h.05l.2.05.45.1 3.9.75.6-.65.15-.1-.2-.15-.05-.1h.1q.1-.1.15-.1.15-.2.5-.25l.65-.1q.45-.3.95-.35l.1.1.55-.3.1-.25q.05 2.1 1.6 3.7l.3.1v.05l.15.25m-1.2 2.2.1.1h-.05l-.05-.05v-.05m-.15.45h-.05l-.35-.25h.1l.2.2.1.05m-.55-.35-.05-.05.05-.05v.1m-2.25 1.6.1.05h-.1v-.05m.6.35h.35l.05.1.05.05-.1.45v.05l-.35.1.1.15v.05l-.55.05-1.05.6.05-.1.45-.2.2-.1 1.15-1.05-.45.25.1-.4m-2.85 2.15-.3.2-.65.25-.05.15v.05l-.2.15-1.15.05-.3-.1-.65.05-1.15.05-.5-.15-1.75-.05-1.25-.2v-.05l1.8-.15.4.05v.05l.05.1 5-.25.05-.05.05-.05.35-.05.25-.05m-8.8.05-.3-.7-.2-1.35.1-.15.15.5.15 1.45.15.1V16h-.05m-.55-3.15.05-.5.2-.2.15-.3v-.05h.05l.1-.3.15-.25v.15l-.1.1h-.05v.05l-.1.25-.2.35-.05.1v.2h-.05l-.05.1-.05.05v.1l-.05.15m.75-1.65 1.1-2.15-.15.45-.65 1.2-.15.4-.15.1M9.4 3.3l.5.2 1.3-.05.4.25.05.1-.05.05v.1l.15.05.1.05q.35.5.2 1.1l-.45.8-.2.2-.55-.2V5.9l-.05-.05V5.7l-.1-.15-.05-.15-.55-.05h-.05l-.1-.2.2-.2V4.9l-.3.15h-.4V5l-.3.15-.05.05q-.25 0-.35-.15V5q.05-.2-.25-.25l-.1-.05v-.55l.5-.75.15.05.15-.05.1-.1h.1m-.45 5.35L9 8.4l-2.7-.15-1.35 2v.05l.05-.1.1-.05.25.05.05.05.05.1 4.45.9.1.15v.05l1.2-1.35-.2-.1q-.2-.25.05-.55l.1-.25V9l-1.4-.25-.6-.05-.2-.05m7.2-2.6L16.1 6l-.15-.45.2.5"/><path fill="#804" fill-rule="evenodd" d="m15.25 8 1.85 1.65.25.4q0 .75-.6 1.3-1.2-1-2.65-1.75h-.2l-.05.05.25-.35.15-.05.4-.75.25-.3V8l.15-.05.1-.05.1.1m-3 3.95v-.1l.05-.1h.15v-.1l.25-.15-.05-.1-.05-.15.55-.2.25.1.1.05q.65.25 1.35.95l.65.9-.25.35h-.1l-.35-.1-.05.1-.15.1-.2-.05v-.05q-.85-1-2.15-1.45m1.4 1.2-.9-.65-.05-.1-.35-.15-.05-.15V12l1.35 1.15"/><path fill="#ff59ac" fill-rule="evenodd" d="m16.6 5.2.1.05.45.75.8 1.4.1.2.3.05-.05 1.1V9l-.2.3-.05.05-.25.3.05.1-.1.1h-.1l-.25-.05-.15-.25-.15-.25v-.05l-.3-.1q-1.55-1.6-1.6-3.7l.05-.15.1-.45.25-.05h.05l.1.05h.05l.1.6h.05l.05-.1.15-.05.1-.05.05.05.3-.1m-.8 6.2.25.1.05.1v.1l-.05.05v.05l.05.05h.05v.25l-.05.1h-.2l-.1-.05-.2-.2h-.2l-.05-.05v-.15l-.05.05-.1.05-.3-.3v-.1l.1-.4.05-.05v-.05l.05-.05.1.25.45.2.15.05m-2.85 1.9.15-.05v.25h.1l.45.15h.05v.15l-.1.4.45-.25L12.9 15l-.2.1-.45.2-.05.1-1.35.55-.25.05-.35.05-.05.05-.05.05-5 .25-.05-.1v-.05l-.4-.05-1.8.15-.05-.4 4.3-.45q2.5-.2 4.5-1.35l.8-.55v-.05q.2-.2.5-.25m-10.8 3.05-.2-.25L2 16h.1l.05.35m.25 0-.05-.25.05.15.05.1H2.4m13.75-10.3-.2-.5.15.45.05.05M13.1 13.5v.05-.05"/><path fill="#ff1a8c" fill-rule="evenodd" d="m9.65 16.75.2-.05.85-.25 2.7-1 1.4-.85.9-.95L16.85 12l1.3-1.3.1-.15.65-1.05.1-.1.15-.2h.05l.35.8q.35.45-.05 1l-3.2 3.45.05.1v.1q-1.25 2.15-3.95 2.9-.45.45-.8.2l-.05.05h-.05l-.05.05-.3.05-.75.3-.55-.15-.25.05-.1.05-.15-.05-.15-.05h-.05l-.1.05v.05l-.1.1-3.3.05-.2-.15H3.3l.05-.1V18l-.05-.1.1-.05v-.05l-.5-1.4 1.25.2.45.1 1 .05.8.05 1.15-.05.95.05 1.15-.05m-6.6 1.3-.45-.6-.25-.5-.05-.1.1-.05v-.4h.05l.6 1.65"/><path fill="#fde" fill-rule="evenodd" d="m16.75 11.35.1.15.05.05-.05.1-.1.05-1.55-1-.55-.35-.8-.6v-.1l.05-.05h.2q1.45.75 2.65 1.75M3.3 18.15h-.05l-.2-.05v-.05l-.6-1.65v-.05l-.05-.1-.05-.15.05.25v.45l-.1.05-.1-.1-.05-.4L2.1 16v-.15l-.15-.1-.15-1.45-.15-.5-.1.15H1.5l-.05.05q-.2-.55.05-1.15l.05-.15v-.1l.05-.05.05-.1h.05v-.2l.05-.1.2-.35.1-.25v-.05h.05l.1-.1v-.25l.05.05.15-.1.15-.4.65-1.2.15-.45.6-1.35Q4.9 6.2 6.2 4.95l.2-.1.5-.4.45-.3L6.2 5.4l-.1.15-.05.2.05-.05.15-.25 1.6-1.5-3.6 4.9-.85 1.2-.55 1.2-.1.2-.05.2.1-.05.45-.15h.3l.1.15q1.4.55.6 1.7-.35.55-1.15.45l-.3-.1-.05-.1-.2 1.4.3 1 .05.4v.05l.5 1.4v.05l-.1.05.05.1v.05l-.05.1m11.1-4.7-.05.05-.05.05h-.1l-.55-.4L12.3 12l-.15-.1h.05l.05.05q1.3.45 2.15 1.45v.05"/><path fill="#530029" fill-rule="evenodd" d="m7.6 5.05.05.05.1.7.25.05V5.8l.05-.3.3-.35-.65 1.8-.45-.1V6.1L7.1 6l-.15.1.65-1.05m-2.25.35h-.1L6 4.45l-.65.95m11.3-1.1.05.1-.05.05-.05-.1.05-.05M11.2 6.6l.2-.4-.05.15.1.1.15-.05h.05l-.05.1h-.05l-.1-.05-.05.05-.05-.05-.1.05v.05h-.05v.05m6.95-.6.05.1-.05-.05V6m-6 .7.05-.1.1-.2.1-.05.2-.25h.05l.3.15-.1.1q-.35.05-.5.25h-.15v.1h-.05"/><path fill="#3e001f" fill-opacity=".373" fill-rule="evenodd" d="M14.95 5.35H15l.9-1.05.3-.1.1.15.05.1v.1q2 1.6 2.9 3.75l.15.4.35 1.25.1.1v.4l-.25.5V11l-.6.8-.1.1v.15l-1.1 1.4-2.15 2.75-.95.65h-.2l-.15-.3-.1-.05q-1.25-.8-1.55-1.9l-.15-.7q-.4-1.15.6-2.25l.05-.05-.5-.55h.05l.6.35 1.5-1.95.4-.65-.4-.3-.2-.15v-.3l.1-.05.7.5.1-.25V7.7l-.05-.25-.3-1.1-.3-.5h-.05l-.05-.05-.05-.1.15-.3.05-.05m-.4 6.45-.05.05v.05l.05-.1"/><path fill="none" stroke="#ff59ac" stroke-linecap="round" stroke-linejoin="round" d="M14.9 2.9q-3.1-1.4-6.8-.05"/><path fill="#6cc" fill-rule="evenodd" d="m15.4 1.15.25.2.15.3-.1 1.95.15.1q-.55.8-1.45 1.25l.1-.15.3-1.05.15-1.9q-3.1-1.1-6.8-.05l.3 1.2v.05l-.35.5-.15-.05-.3.25-.4-1.25v.3l-.1-1.15.05-.2q.6-.3.65-.3 4.1-1.3 7.55 0"/><path fill="#f4007a" fill-rule="evenodd" d="m17.75 9.5.05-.1.05-.1-.05-.05-.05-.05-.15-.2v-.05l-.25-.3-.6-.7-.05-.1-.35-.55.1-.05h-.1l-.3-.6-.15-.45v-.15l-.15-.9-.1-.3v.3l-.05.05-.2.25-.05.1-.2.25q-.85.85-2.65.8v-.05l.45-.3-.3-.15h-.05l-.2.25-.1.05-.2.5-.75 2.25h-.1l-.1.3v.2l-.9 2.45-.05.1-.15.05-.15.05-.5.05-.25.05-.55.05-2.45-.35-1.05-.6-.1-.1-.25-.2L6.9 6.1l.2-.1.15.1v.05q.05.55-.2 1.05v.1l.45-.25.1.05-.2.45-1.6 3.15-.15.3q1.5.9 3.6.7l.4-.05L11.2 6.6v-.05h.05V6.5l.1-.05.05.05.05-.05.1.05h.05l.05-.1h-.05l-.15.05-.1-.1.05-.15.15-.75V5.4l.25-.8.15-.4h-.1q-1.2-.6-2.8-.45L8.9 3.7h-.05l-.25.75-.25.7-.3.35-.05.3v.05l-.25-.05-.1-.7-.15-.35.05-.25-.05-.1-.1-.35-.2.2-.75.85-.2.25-2.05 2.7-.25.3-.05-.05-.3.65-1.5 2.45q-.4.6-.45 1.35v.55l.2 1.1.05.2.1.25-.2.05.05.05.1-.05v.05L2 15l.05.15.25.45.1.2.05.15.3.05-1.45-.1-.1.05-.05-.2H1.1l-.35-1-.05-.05-.05-.2v-.1q-.5-1.95.45-3.5l.05-.05 4.1-5.45h.1L6 4.45l.8-1.05v-.05l.3-.4.15-.15v-.3l.45 1.45.15.25.6-1.15h.05l.55-.1.95-.1.95.05q1.05.1 1.95.6l.15.1.05.15v.4l-.15.45-.1.35-.25.65h.1l.55-.05h.1l.3-.1.15-.05.6-.4v-.05q.9-.45 1.45-1.25l.2.15.3.25.3.2-.05.05.05.1.05-.05.05.05L18.15 6v.05l.05.05.7 1.05.05.1.05.1.05.05v.05l.15.2.05.05v.05l.05.2-.05.05-1 1.05-.4.4h-.05l-.05.05m.55-1.15-.05-.1L16.4 5.3q.55 2.45 1.5 3.45l.1.1.05.05.05-.05V8.7l.05-.05.1-.25.05-.05"/><path fill="#530029" fill-rule="evenodd" d="m17.75 9.5.05-.05h.05l.4-.4 1-1.05.05-.05.1.3v.15l.65 2.15-.05.35q-3.3 5.3-6.6 7.25l-.1.05q-4.45 1.5-10.7.05l-.7-1.2-.5-.7-.2-.4.1-.05 1.45.1q4.7.8 7.65-.05 1.8-.45 3.45-1.75l-2.1-1.65-.15-.15 1.25-2.1.2-.05 2.85 1.85.15-.25L13.5 9.7l-.1-.1 1.1-2.35.2.05.35.15 2.6 2.25.1-.2m1.35-.05-.4.55v.05l-.25.15-.55 1.05.35-.75-1.9 2.4-.85 1.1v.05l-.05.1-.35.35v.05H15q-2 1.8-4.3 2.4l-8.2-.4.65 1.2 9.65-.45q3.05-1.85 6.7-6.75l-.4-1.1m-2.55 1.95.7-1.25-2.4-1.95-.75 1.45 2.45 1.75m-1.95 2.1.65-.6-2.1-1.85-.8 1 2.25 1.45"/><path fill="#530029" fill-rule="evenodd" d="M6.6 6.7q2.6.25 4.5.85l.8-.3.1-.1.3-.4-.2-.5-1.35-.5-2.45-.4h-.7q-1.1.3-1.05 1.35h.05m2.15-2.05 1.7.3.3.1.3.05.95.3.95.95-.15.05h.05v.05l-.05.2-.35.7-.6.45-1.6.05H10L8.3 7.5l-1-.1-.75-.4-.2-.15-.45-.25q0-1.1 1.35-1.7l.9-.25h.6m1.5 3.75.2.05.45.25.1.05h.05l.9.85q.1.65-.25 1.05-.45.5-2.1.6l-.05.1-.1-.15-.5.05-.35-.2h-.05l-.6-.05-1.6-.25-.25-.05-.75-.4-.75-.55q-.1-.4.25-.75.2-.5 1.2-.9v-.05L7 8l.8-.05 2.45.45m-2.35.15.15-.05-1.4.2-.25.1q-.5.15-.75.5-.25.25-.15.7l.25.05.55.05 3.3.65 1.35-.3.3-.15q.1-.25-.15-.7l-.15-.2-.35-.1q-1.35-.7-2.7-.75"/><path fill="#804" fill-rule="evenodd" d="M7.65 5.35h.65l2.45.4 1.35.5.2.5-.3.4-.1.1-.8.3q-1.9-.6-4.5-.85v-.25L7.85 5.4l-.2-.05m.25 3.2v.05-.05q1.35.05 2.7.75l.35.1.15.2q.25.45.15.7l-.3.15-1.35.3-3.3-.65q-.35-.4-.05-.8l.15-.5.25-.1 1.4-.2-.15.05"/><path fill="#fde" fill-rule="evenodd" d="m7.65 5.35.2.05L6.6 6.45v.25h-.05Q6.5 5.65 7.6 5.35h.05M6.4 8.8l-.15.5q-.3.4.05.8l-.55-.05-.1-.75q.25-.35.75-.5"/></g></defs></svg>