<svg xmlns="http://www.w3.org/2000/svg" xmlns:xlink="http://www.w3.org/1999/xlink" width="36.05" height="38.3"><use xlink:href="#a" width="22.75" height="18.4" transform="translate(9.75 10.85)"/><defs><g id="a" fill-rule="evenodd"><path fill="#3f0f0f" d="M21.45 8.9q.4.1.6.45 1.15 3.4.4 4.65-1.4 1.9-2.95 1.3l-.3-.3Q15 19.5 6.05 18.05q-4.8-.75-5.5-2.15Q0 15.25 0 14.05q0-.95.35-1.25 3.7-3.95 12.2-4.45l8.9.55"/><path fill="#db7a03" d="M21 9.95q1.05 2.1.55 3-.15.9-1.6 1.15l-.3-1.2Q15.1 20 1.55 15.45q-1-1.05-.3-1.7 3.8-4 12.1-4.4 7.4-.3 7.65.6"/><path fill="#912c09" d="M21.15 10.5q.6 2.05.4 2.45-.15.9-1.6 1.15l-.3-1.2Q15.1 20 1.55 15.45l-.5-1.1q5.8 2.5 11 1.7 5.75-.85 9.1-5.55"/><path fill="#b74513" d="m18.25.95.9 1.1 1.3 4.15q.65 3 .25 3.75-.45.9-3.35 2.7-2.85 1.8-4.65 2.4-3.4 1.2-7.25-.6-2.3.4-3.35-1.1l-.05-.1-.15-.4-.45-2.2q-.15-2 1.95-2.85L9.15.75q1.2-.9 4.7-.7 3.1.25 4.4.9"/><path fill="#b74513" d="M9.55 1.95q.95-.8 4.1-.7l4.3.75q.5.25 1.3 3.35.8 3.2.35 3.9-.4.7-3.3 2.5-2.95 1.8-4.65 2.4-1.6.55-3.85 0-1.8-.45-2.3-.95-1.55.8-2.4-.4l-.65-2.15q0-1.2 1.8-1.8 3.7-4.05 5.3-6.9"/><path fill="#b74513" d="M6.1 9.45q.5-.2.85.35.25.6-.3.75-.55.2-.8 1.8l-.3 1.6q-.45 0-.5-2.05Q4.9 9.85 6.1 9.45"/><path fill="#21100a" d="M18.25 1q.45.15.9 1.05l1.3 4.15q.65 3 .25 3.8-.45.9-3.35 2.7-2.85 1.8-4.65 2.4-3.4 1.2-7.25-.6-2.25.35-3.35-1.15l-.05-.05-.15-.45q-.5-1.2-.45-2.2-.15-2 1.95-2.85L9.2.75q1.15-.9 4.65-.65 3.1.2 4.4.9"/><path fill="#ad7a4b" d="m9.4 2.2 1 1.3q1.7 1.55 4.8 1.55l3.55-.65.25-.1.25 1.05q.8 3.2.35 3.9l-3.3 2.55q-2.95 1.8-4.65 2.4-1.6.5-3.85 0-1.8-.5-2.3-1-1.55.8-2.4-.4l-.65-2.15q0-1.2 1.8-1.8Q7.8 5 9.4 2.2"/><path fill="#835130" d="m9.4 2.2.15-.25q.95-.8 4.15-.65 2.95.1 4.25.7.4.2 1.05 2.3l-.25.1-3.55.65q-3.1 0-4.8-1.55l-1-1.3"/><path fill="#21100a" d="M6.1 9.45q.5-.2.85.35.25.6-.3.8-.55.15-.75 1.8l-.3 1.55q-.5 0-.55-2.05Q4.9 9.85 6.1 9.45"/><path fill="#3f0f0f" d="m21.35 9.75.6.15q-.2.8-1.75 2.35-2.1 2.1-4.9 3.2-7.4 2.9-14.6-1L.6 14q6.3 3.35 13 1.5 5.25-1.5 7.75-5.75"/><path fill="#49022e" d="M12.7 15.15q-3.05-6.7-9.3-7.2-.3-1.5.9-2.8 1.1-1.2 2.4-1.3 3-.2 7.55 1.9 3.6 1.7 4.95 2.95 1.25 1.25 1.05 1.7-.75 1.9-2.2 1.9-.5.15-.7-.3-1.2-1.55-4.2-2.35l3.1 4.15q0 .35-1.15.9l-2.4.45"/><path fill="#ff6eba" d="M19 10.1q.15 1.25-1.15 1-.7-.9-3.15-1.8-2.45-.95-3.35-.6 1.7 1.1 3.9 4.75-1.05.85-2.1.6Q10.3 8.1 4.05 7.1q.45-1.95 2.6-2.3 2.2-.45 7.25 1.85Q18.85 8.9 19 10.1"/><path fill="#ef4daa" d="M13.15 14.05q-.75-1.55-2.1-3.2l1.8-.75q1.7 2.05 2.4 3.35-1.05.85-2.1.6m2.9-6.3q2.9 1.5 2.95 2.35.15 1.25-1.15 1-.8-1.05-3.45-1.9l1.65-1.45"/><path fill="#ffe6ff" d="M5.55 6.6q0 .35-.3.35L4.9 6.6q0-.35.35-.35.3 0 .3.35m1.2-.95q0 .35-.3.35l-.3-.35.3-.4q.3 0 .3.4M8.4 7.4l-.3.25q-.3 0-.3-.25t.3-.25q.3 0 .3.25m1.25-1.15q0 .35-.35.35l-.45-.35q0-.35.45-.35.35 0 .35.35m-2.4.7q0 .25-.3.25l-.25-.25.25-.3q.3 0 .3.3m3.1 1.2q0 .4-.3.4-.35 0-.35-.4 0-.35.35-.35.3 0 .3.35m1.5-.35.25-.35q.3 0 .3.35 0 .3-.3.3l-.25-.3m-4.2-2.2q0 .3-.15.3-.2 0-.2-.3l.2-.25q.15 0 .15.25m-1.7.25-.25.3-.3-.3q0-.4.3-.4.25 0 .25.4m.45 1.3-.25.25-.2-.25q0-.3.2-.3.25 0 .25.3m1.8-.6-.25.25-.15-.25.15-.3q.25 0 .25.3m.65-1.1-.2.3-.2-.3q0-.3.2-.3t.2.3m-2.25.9-.15.2-.15-.2.15-.1.15.1m-1.95.5-.1.1-.2-.1.2-.05.1.05m5.1.6-.3.2-.2-.2.2-.25q.3 0 .3.25m-.9.65-.2.25-.25-.25q0-.15.25-.15l.2.15m-1.4-.4-.2.1-.2-.1.2-.2.2.2m-.4-2.6-.1.2-.1-.2.1-.1.1.1m.3 1.15-.15.1-.2-.1.2-.1.15.1m1.5.8-.1.1-.2-.1.2-.2.1.2m1.8-.45-.1.2-.1-.2.1-.15.1.15m.55 1.1q0 .25-.35.25-.3 0-.3-.25t.3-.25q.35 0 .35.25m-.45 1.8-.2.3-.25-.3.25-.25.2.25"/><path fill="#ffe6ff" d="m10.75 9.5-.2.3-.25-.3.25-.25.2.25m-1.1-.65-.2.15-.1-.15.1-.25.2.25m1.9 1.3-.1.25-.2-.25.2-.25.1.25m1 .8-.15.1-.15-.1.15-.2.15.2m-1.15-1.6-.15.2-.15-.2.15-.1.15.1m.55 1.6-.2.1-.25-.1.25-.2.2.2m.65-.7-.25.2-.25-.2.25-.2q.25 0 .25.2m.15 1.5-.1.25-.2-.25.2-.2.1.2"/><path fill="#ffe6ff" d="m12.75 11.75-.1.25-.2-.25.2-.2.1.2m-1.8-3.1-.1.25-.2-.25.2-.2.1.2m-.95.5-.1.1-.15-.1.15-.2.1.2m4.5 3.7-.3.2-.3-.2.3-.25q.3 0 .3.25m-1.15.7-.1.2-.2-.2.2-.15.1.15m.5-1.3-.2.1-.15-.1.15-.1.2.1m-.65.4q0 .2-.25.2l-.2-.2.2-.15q.25 0 .25.15m.35-1.25-.2.2-.1-.2.1-.1.2.1m.35 2.05.15.1-.15.15-.15-.15.15-.1m.75 0-.15.05-.1-.05.1-.1.15.1m-2.5-1.8-.1.1-.05-.1.05-.2.1.2m1.5-3.4-.2.15-.3-.15.3-.25.2.25m1.2 0-.3.15q-.3 0-.3-.15l.3-.25.3.25m-3.3-1.45-.2.3-.2-.3q0-.3.2-.3t.2.3m-1.05-.85q0 .3-.3.3l-.35-.3.35-.3q.3 0 .3.3m-.15 1.1-.15.15-.15-.15.15-.2.15.2m-.9-1.5-.15.15-.2-.15.2-.2.15.2M7.9 5.1l-.1.2-.15-.2.15-.1.1.1m.35.75-.15.1-.2-.1.2-.2.15.2M13.5 7.1q0 .55-.55.55t-.55-.55q0-.55.55-.55t.55.55m2.15 1.95-.2.2-.2-.2q0-.15.2-.15l.2.15m1.5.25-.25.25-.25-.25q0-.25.25-.25l.25.25"/><path fill="#ffe6ff" d="M16.35 8.55q0 .45-.5.45t-.5-.45q0-.55.5-.55t.5.55m1.6 1.65-.2.25-.25-.25.25-.15q.2 0 .2.15m.65-.45-.2.15-.25-.15.25-.2.2.2m-1.8 0-.25.15-.2-.15.2-.2.25.2M14.45 8.7l-.2.25q-.15 0-.15-.25 0-.15.15-.15l.2.15m-.25-1.25-.1.1-.15-.1.15-.1.1.1m2.7 1.15-.15.1-.15-.1.15-.15.15.15m1.05.85-.15.1-.15-.1.15-.2.15.2m-3.1-1.8-.1.1-.2-.1.2-.2.1.2m-2.7-1.35-.2.2-.2-.2q0-.1.2-.1l.2.1m-1-.3-.1.2-.15-.2.15-.15.1.15m.6 2.1-.2.2-.1-.2.1-.1.2.1m6.65 2.55-.1.15-.15-.15q0-.25.15-.25l.1.25"/><path fill="#2d021f" d="M8.5 8.95q0 2.1-2.1 2.1-2.05 0-2.05-2.1 0-2.05 2.05-2.05 2.1 0 2.1 2.05"/><path fill="#ff00e1" d="M4.85 8.95q0-1.5 1.55-1.5 1.65 0 1.65 1.5 0 1.55-1.65 1.55-1.55 0-1.55-1.55"/><path fill="#84037b" d="m6.1 7.55-.35.1.65-.2q1.65 0 1.65 1.5 0 1.55-1.65 1.55-1.55 0-1.55-1.55.2 1 1.25 1 1.25 0 1.25-1.2T6.1 7.55"/><path fill="#fcfcfc" d="M6.4 8.75q0 .7-.65.7-.7 0-.7-.7 0-.65.7-.65.65 0 .65.65"/></g></defs></svg>