<svg xmlns="http://www.w3.org/2000/svg" xmlns:xlink="http://www.w3.org/1999/xlink" width="36.05" height="38.3"><use xlink:href="#a" width="21.3" height="17.3" transform="translate(9.3 11.1)"/><defs><g id="a" fill-rule="evenodd"><path fill="#1b181e" d="M11.35.7q.9.35 4.85-.7 1.35-.05 2.8 1.45 1.75 1.7 1.6 4.1 1.4 4.35-.05 6.5.05 1.8-.4 2.2-6 2.8-10.55 3.05l-6.2-.35Q.65 16.35.5 15.3l-.15-1.65q-.9-2.6.4-4.3l3.8-3.45L7.3 2.75 8.45 1.3q1.3-1.15 2.9-.6"/><path fill="#242121" d="M11.4 1.65q.65.3 3.45-.6l1.4-.1q.85 0 2.05 1.15 1.3 1.5 1.4 2.8l-.05.6v.2l.05.15.7 3.15q.1 1.6-.65 2.55l-.15.3.05.25-.1 1.45Q14.05 16.1 9.5 16.4q-7.35.45-8.1-1.3l-.15-1.15-.25.45.2-.4.05-.65q-.7-2.15.25-3.45 1.3-1.55 3.1-2.85L8.05 3.3 9.2 2.1q1.15-.95 2.2-.45"/><path fill="#515151" d="M19.4 5.85q1.45 3.6.15 5.35-1.4 1.9-1.55.85 2-4.35 1.4-6.2m-8.25-4.2q1.45.15 2.6 2.35 1.15 2 .6 2.9L11.8 9.25Q7.6 13.8 4.4 13.6.75 13.35 1 11.85q.15-.9 2.3-3.1Q7.7 4 8.65 3.55L9.4 2.4q.5-.85 1.75-.75"/><path fill="#b30002" d="M19.65 10.55q-.1.5-1.75 1.05-1.65.6-2.45.4-.85-.15.45-2.35 1.25-2.2 2.6-2.3.9-.05 1.2 1.1.3 1-.05 2.1m-17.2 2.3q-1.45-.4-1.05-1.7.45-1.25 2.45-2.4L8 8.65q2.15 1.05 1.25 2.4-1.15 1.7-3.65 2.05l-3.15-.25m8.05-4.1q-1-.65-4.6-1.05-1.8-.35.35-1.4.9-.45 2.7 0 1.75.45 2.55 1.2 1 .85-1 1.25M7.6 5.3q-1.3-.25.4-1.15 2.35-1.2 4.95.7 1.2.85.95 1.75l-1.65-.05Q11.55 6 7.6 5.3"/><path fill="#1b181e" d="m13.9 1.85 2.4-.25q.9.1 1.65.75.8.75.2 1.5-.5.75-3.95 1-1-2.55-1.95-2.85l1.65-.15m5.95 9.95-.15.5q-3.2 2.35-10.9 2.8l-5.7-.4-2-.6.1-.55.95.6 6.5.45q7.5-.15 11.2-2.8"/><path fill="#bbb" d="M7.2 4.65 5.5 7.3 2.55 9.6 7.2 4.65"/><path fill="#ff0002" d="M5.9 9q1 .65.1 1.05l-1.9.25q-1.25.05-1.6.45-.25.4.5 1.5.6.8.15.7-1.9-.25-1.75-1.55.05-.8 1.15-1.7l1.15-.75L5.9 9m1.15-1.25q-1.9 0-1.75-.55.3-.95 1.9-1.05.8 0 1.1.3.25.4-.3.65l-.95.65m2-2.4-1.75-.2q-.3-.15 0-.5.35-.45 1.15-.55l1.3.15q.4.3.1.5l-.8.6"/><path fill="#515151" d="m3.45 14.85-.45.2q-.3.4.35.9-1.7-.3-1.95-.75l-.15-1 2.2.65m16.1-2.4v1.1q-.2.4-1.6.65.75-.45.8-1.35l.8-.4"/><path fill="#ff0002" d="m19.3 7.75.5 2q-.1 1.15-1.25 1.6.85-2.45.75-3.6"/><path fill="#515151" d="M18.5 2.15q-1.1-.6-2.2-.55l-3.05-.15Q12.8 1 16.6 1l1.9 1.15"/><path fill="#bbb" d="M11.65 1.8q-1.2 0-1.95.9l-.5.85-.65-.1.85-1.3q.7-.75 2.25-.35"/><path fill="#fff" d="M8.95 8.85q.45.15.3.65-.25.55-.7.3-1.95-.8-4-.45-.5.1-.6-.45-.15-.5.45-.6 2.35-.35 4.55.55m2.35-2.4q.45.25.2.7-.35.55-.75.2-1.8-.9-3.85-.55-.5 0-.6-.45 0-.5.45-.6 2.45-.4 4.55.7m-3.35-2.3q-.1-.5.45-.6 2.35-.4 4.45.7.55.25.25.7-.25.55-.75.2-1.75-.9-3.8-.55-.5.1-.6-.45"/></g></defs></svg>