<svg xmlns="http://www.w3.org/2000/svg" xmlns:xlink="http://www.w3.org/1999/xlink" width="36.05" height="38.3"><use xlink:href="#a" width="24.9" height="17.9" transform="translate(8.35 10.25)"/><defs><g id="a" fill-rule="evenodd"><path fill="#3f0f02" d="m22.55 1.5.25.35L24.9 13l-.15.4q-2.05 2.1-5.3 1.4l-.2-.15-.6.7q-7.4 4.3-17.6 1.4l-.4-.35Q-.1 14.9 0 12.15l.15-.65.3-.25Q2.95 9.9 6.25 7l.65-3.6v-.1q0-.75 1.3-1.55 2.45-1.4 6.45-1.7 4.75-.4 7.9 1.45"/><path fill="#b74513" d="M8.25 3.35q1-1.3 4.95-2Q18 .4 21.55 2.5l.9 3.25q.85 3.85 1 7-1.25 1.25-3.15.9-.75-2.25-.65-2.6L17.9 14.3q-5.5 4.35-16.1 1.35l-.5-1.85q-.25-1.55.1-1.55 2.8-1.5 6.15-4.75l.7-4.15"/><path fill="#912c09" d="M17.25 1.1q2.55.3 4.3 1.4l.9 3.25q.85 3.85 1 7-1.25 1.25-3.15.9-.75-2.25-.65-2.6L17.9 14.3q-5.5 4.35-16.1 1.35-.6-1.55-.6-3.35 3 1.5 8.5 1.05 5.7-.45 7.6-2.55 1.1-2.95.7-5.7l-.75-4"/><path fill="#f9ff00" d="M17.75 4.5q-.7-.25-.7-1.1 0-.55.4-.85l.6-.3q.65 0 .95.6.25-.7.95-.7Q21 2.15 21 3.3v.1q.9.15.9 1.15 0 1.2-1 1.2l-.6-.2.25.7q0 1.15-1.05 1.15-.75 0-1-.85l-.7.3-.05-.05q-.95-.15-.95-1.15 0-1.05.95-1.15"/><path fill="#d80000" d="M18.65 4.6q0-.75.65-.75.7 0 .7.75t-.7.75q-.65 0-.65-.75"/><path fill="#dbb000" d="m17.5 2.5.55-.25q.65 0 .95.6.25-.7.95-.7Q21 2.15 21 3.3v.1q.9.15.9 1.15 0 1.2-1 1.2l-.6-.2.25.7q0 1.15-1.05 1.15-.6 0-1-.8l-.45.2q.4-.9-.05-2.25-.05-1.15-.5-2.05"/><path fill="#b80000" d="M18.65 4.6q0-.75.65-.75.7 0 .7.75t-.7.75q-.65 0-.65-.75"/><path fill="#f9ff00" d="m6.45 8.55.1.05q.35-.5.9-.7 1.25-.4 1.6.7L9 9.3q1 0 1.2.75.25 1.1-1.05 1.45l-.45.05.05.05q.25 1.15-1 1.45-1.3.3-1.6-.75l.05-.55q-.25.25-.7.35-1.25.45-1.6-.7-.2-.75.65-1.3l1.9-1.55"/><path fill="#d80000" d="M7.45 10.3q0 .6-.7.6-.6 0-.6-.6 0-.65.6-.65.7 0 .7.65"/><path fill="#f9ff00" d="M3.8 12.55q.35.2.2.6l.75.1q.55.3.05.9l-.05.1.05.05q.25.35-.05.8-.45.55-.95.2l-.15-.3-.2.4q-.5.6-.95.15-.45-.3-.1-.8l-.5-.15q-.45-.35 0-.95.4-.55.9-.15l-.05-.6.15-.25q.5-.55.9-.1"/><path fill="#d80000" d="M3.3 13.65q.45 0 .45.45 0 .5-.45.5-.35 0-.35-.5 0-.45.35-.45"/><path fill="#dbb000" d="M4 13.15q1.2-.1 1 .65l-.25.45.05.05q.25.35-.05.8-.45.55-.95.2l-.15-.3-.2.4q-.5.6-.95.15-.45-.3-.1-.8l-.5-.15q-.45-.35 0-.95.4-.5.85-.15v-.65l1.25.3"/><path fill="#b80000" d="M3.3 13.65q.45 0 .45.45 0 .5-.45.5-.35 0-.35-.5 0-.45.35-.45"/><path fill="#f9ff00" d="M15.7 11.65q.25.45.1.85-.15.55-.8.55.5.45.3 1.05-.35.8-1.3.5l-.05-.05q-.45.7-1.25.35-.95-.35-.65-1.25l.35-.35h-.65l-.35-.25q-.5-.4-.35-1 .35-.55 1.1-.55l-.1-.65q.35-.8 1.35-.5.8.3.65 1.15.5-.5 1.1-.2.35.1.55.35"/><path fill="#d80000" d="M13.5 12q.5 0 .65.5l-1.25.35-.1-.25q0-.6.7-.6"/><path fill="#d80000" d="m12.9 12.85 1.25-.35.05.1q0 .65-.7.65l-.6-.4"/><path fill="#dbb000" d="M15.8 11.85v.65q-.15.55-.8.55.5.45.3 1.05-.35.8-1.3.5l-.05-.05q-.45.7-1.25.35-.95-.35-.65-1.25l.2-.3-.5-.05-.25-.2 1.5-.25.15.25 2.65-1.25"/><path fill="#b80000" d="m12.9 12.85 1.3-.3v.05q0 .65-.7.65l-.6-.4"/><path fill="#dbb000" d="M22.15 10.3q.3-.3.75 0 .4.45 0 1h-.1q.45.45 0 .95-.5.55-.9.1l-.2-.3-.2.45q-.5.55-.95.1-.35-.25-.1-.75l-.45-.1q-.5-.45-.05-1 .45-.5.95-.2-.2-.45.05-.8.45-.6 1-.15.3.2.2.7"/><path fill="#b80000" d="M21.95 11.1q0 .5-.45.5t-.45-.5q0-.45.45-.45t.45.45"/><path fill="#f9ff00" d="M12.05 6.65q.35.35.2.7.45-.2.75 0 .5.45.05 1L13 8.4q.3.35 0 .9-.45.55-1 .1l-.2-.25-.1.4q-.45.55-1 .2-.4-.4-.15-.85l-.4-.1q-.5-.5 0-1 .3-.45.85-.2-.25-.35.15-.75.4-.55.9-.2"/><path fill="#d80000" d="M12.15 8.25q0 .4-.5.4-.45 0-.45-.4 0-.45.45-.45.5 0 .5.45"/></g></defs></svg>