<svg xmlns="http://www.w3.org/2000/svg" xmlns:xlink="http://www.w3.org/1999/xlink" width="36.05" height="38.3"><use xlink:href="#a" width="22.25" height="20.4" transform="translate(11.05 8.7)"/><defs><g id="a" fill-rule="evenodd"><path fill="#490200" d="M4.8 5.4q-1.25-.6-1.25-2 0-2.25 2.15-2.25l.5.05.75.4.15.1.05-.1Q7.75 0 9.4 0q1.25 0 1.95 1.1.5.65.5 1.45 0 .8-.45 1.5Q13 4.7 13 6.2q0 2.25-2.55 2.25l-1.1-.25q-.75 1.25-2.3 1.25-2.8 0-2.8-2.6 0-.65.55-1.45"/><path fill="#ff59ff" d="M5.45 5.3q-.95-.55-.95-1.65 0-1.75 1.7-1.75h.35l.65.3.15.1v-.1Q7.9.9 9.15.9q1 0 1.6.85.35.55.35 1.25 0 .65-.35 1.2 1.15.4 1.15 1.7 0 1.8-1.9 1.8l-.85-.15q-.7 1-1.95 1-2.15 0-2.15-2.1 0-.6.4-1.15"/><path fill="#ffb0ff" d="m6.65 2.55.85.3.55-.7.85-.35.6.15q.95.4.95 1.45 0 .6-.25.9.85.45.85 1.3 0 1.45-1.45 1.45l-.7-.2q-.45.8-1.45.8-1.7 0-1.7-1.6l.3-.9q-.7-.4-.7-1.25 0-1.35 1.3-1.35"/><path fill="#ff59ff" d="M9.4 4.5q.55.2.55.8 0 .85-.9.85l-.4-.1q-.3.5-.9.5-1.1 0-1.1-.95L6.9 5q-.5-.2-.5-.75 0-.9.85-.9l.5.25q.25-.7.9-.7.95 0 .95 1l-.2.6"/><path fill="#ffb0ff" d="m7.6 4.85-.2-.35.35-.45.25.15q.1-.3.45-.3.4 0 .4.45l-.05.25.25.4q0 .4-.45.4l-.15-.05Q8.2 5.6 8 5.6q-.5 0-.5-.5l.1-.25"/><path fill="#3f0f0f" d="M21.9 12.15q.6.8.2 3.2v.2l-.15.1Q16.85 21 7.9 20.35 1.7 19.9.3 17.9l-.05-.1-.15-.35q-.3-1.5.25-2.95l.1-.3.4-.05q20.45-2.75 21.05-2"/><path fill="#b74513" d="M20.85 12.35q.45.6.2 2.65-4.35 4.45-11.95 4.25-6.4-.2-7.85-1.95-.15-1.75.2-2.65 19.05-2.8 19.4-2.3"/><path fill="#912c09" d="M20.85 12.35q.45.6.2 2.65-3.1 3.1-8 3.95-1.05-3-3.7-5.45l11.5-1.15"/><path fill="#3f0f0f" d="m16.45 9.7 1.2.4q4.55 1 4.25 2.45-.25 1.05-2.35 2.45-6.8 4.35-16.6 2.2Q1 16.45.6 15.25q-.35-.8-.05-1.1v-.1l.1-.15q1.7-1.75 8.3-3.25 6.2-1.4 7.5-.95"/><path fill="#912c09" d="M15.85 15.65q-5.9 2.1-12.6.45-2.3-.85-1.3-1.85 1.55-1.6 7.65-3.1 5.55-1.25 6.6-.9l2.8.85q2 .6 1.85 1.35-.3 1.6-5 3.2"/><path fill="#333" d="m20.5 3.1.2.25q1 4.5.15 7.45-1.15 4-7.65 5-.65.85-5.25.6-5-.25-6.45-2.05l-.05-.15q-1.7-3.75 6-8.25l.45-.3q.4-.35.9-1.95.4-1.5 1-1.7 7-2.55 10.7 1.1"/><path fill="#fff" d="M19.6 3.75q.85 3.65.2 6.7-.25 2.9-6.65 4.2-.95 1.1-5.05.85-4.25-.25-5.6-1.9-.85-2.35 2.55-4.9L8.8 6.4q.9-3.2 1.5-3.4 1.85-.8 3.55-1 3.5-.4 5.75 1.75"/><path fill="#b8bcbc" d="M17.7 2.5q1.1.5 1.9 1.25.85 3.65.2 6.7-.25 2.9-6.65 4.2-.1.3-1.1.6l-1.55.1q-.35-2.6 3.5-5.35 3.95-2.85 3.7-7.5"/><path fill="#333" d="M8.25 15.5q-.55-1.65.05-2.85l1 .75q-.4 1.3 0 2.2l-.25.25q-.55.25-.8-.35m2.8-3.95q.05.3-1.65 1.5l-.1.35-1-.75.05-.2q2.65-1.2 2.7-.9m-4-.4-.4.35-.3-.2.7-.15M5.5 12l.85-.7.3.2q-1.15 1-.9 3.6 0 .5-.35.5-.45.15-.55-.35Q4.6 13.3 5.5 12m-2.8 2.75q-.1-2 .95-3.25.85-1.1 1.5-.75l-.85.85q-.9 1.15-.75 2.95.15.45-.3.55l-.55-.35"/><path fill="#3f0f0f" d="M16.2 12.65q1.2 1.75.5 2.55-.45.4-2.5.9l-.55-.25q-.25-.2-.1-.55.35-1.1-.1-1.75-1-1.4-4-1.4l-.55-.35q-.4-1.3-2.8-1.8-2.65-.6-3.55.45l-.8.05-.2-.5.1-.3.05-.05q2.6-3.45 6.25-2.2 2.1.75 2.85 2.15 3.65-.25 5.4 3.05"/><path fill="#b74513" d="m15.9 14.55-1.2.65q.45-2.55-2.15-3.55l-2.75-.5Q8.25 9.25 5.7 9q-2.25-.25-3.4.85 2.05-2.5 5.2-1.35 2.8.95 2.75 2.05 4.65-.65 5.65 4"/><path fill="#912c09" d="m10.25 10.55-.45.6q-1.3-1.7-3.7-2.1l.7-.8q1.3.3 2.5 1.15.95.8.95 1.15m3.4.55q1.2.75 1.9 2.1.6 1.05.35 1.35l-1.2.65q.45-2.4-1.8-3.4l.75-.7"/><path fill="#3f0f0f" d="m20.85 4.2.5.35q.15.25-.3.35l-6.55.3q-3.7-.3-5.3-.9l-.7-.55v-.1q.05-1.05.4-1.4V2.2l.4-.25h.4q2.65 1.1 11.15 2.25"/><path fill="#b74513" d="M14.15 4.6q-3.65-.45-4.7-1-.15-.6.15-1 2.05.8 10.5 1.9-1.95.55-5.95.1"/><path fill="#912c09" d="m20.1 4.5-4.65.25V3.9l4.65.6"/><path fill="#3f0f0f" d="m20.55 4.05.5.1.3.4.05.15q.3.75.25 2.3l-.05.15-.85.75-5.85.25q-4.55-.45-7.15-1.9-.4-.2-.3-.65l.6-.45q9 0 12.5-1.1"/><path fill="#b74513" d="M20.55 6.6q-1.15.7-5.15.65-4.5-.1-6.55-1.4l11.7-.75q.45.45 0 1.5"/><path fill="#912c09" d="M16.4 5.75q2.85-.15 4.15-.65.45.45 0 1.5-.9.65-4.65.65l.5-1.5"/></g></defs></svg>