<svg xmlns="http://www.w3.org/2000/svg" xmlns:xlink="http://www.w3.org/1999/xlink" width="36.05" height="38.3"><use xlink:href="#a" width="20.7" height="18.7" transform="translate(11.7 11.3)"/><defs><g id="a" fill-rule="evenodd"><path fill="#141423" d="M18.85 4.4Q16.7 2.8 8.8 6.85q-4 2.05-7.45 4.4l-.9 1.3q-.8 1.65-.2 2.9Q.3 16.7 1.9 17.1q4.2 2.4 10 1.2 4-.95 5.65-3.7.45-1.7 1.65-2.45 3.15-5.1-.35-7.75"/><path fill="#52a0ff" d="M18.85 5.1Q17.35 3.9 9 8q-4.2 2.05-8 4.3l-.25 1.75q0 1.85.95 2.6 5.15 2.55 10.45.85 3.45-1.05 4.75-3.3.4-1.5 1.65-2.65 2.85-4.4.3-6.45"/><path fill="#004aa3" d="m19.7 7.75.05-1.15q-.15 1.9-2.35 3.8-.7.5-1.1 2.05l-1.7 2.25q-4.25 2.55-9.95 1.4-4.05-1-3.55-3.7-1.4 3.6 3.7 4.25 2.65.65 5.9.05l2.7-.7q1.85-.85 2.8-2.25l1.65-3.1q1.55-1.35 1.85-2.9"/><path fill="#7dd1ff" d="M18.85 5.1Q17.4 4.05 9.3 7.35l-7.65 3.4v.05Q-.95 15 4.6 16.05q5.55 1 8.75-.75 1.8-.5 3-2.8.3-1.6 1.05-2.05 1.05-.7 1.7-1.85 1.45-2.15-.25-3.5"/><path d="M12.4 0 9.8.3q-2.75.75-3.9 2.95L4.65 6.3l-2.85 4q-.95 1.6-.6 2.5 1.1 2.15 4.4 2 2.1 1.65 5.3.4 3.75-.2 5.6-4.9L18 8.95q2.3-2.8-.3-7.2L16.8 1q-1.5-.8-4.4-1"/><path fill="#c98036" d="M9.25 1.3Q7.3 2 6.2 4.2l-.6 1.9q-.35 1.2-1.2 2.1l-2.1 2.75q-.95 3.1 1.75 3.05 1.3.25 2.2-.55.6 2.65 5.9.55 2.8-1.25 3.45-3.8 2.3-1.8 2.85-4.1 0-1.6-.95-2.95Q15.6.3 11 1.05l-1.75.25"/><path d="m6.1 13.9.5.35q-.75-.65-.4-3.55Q5 12 6.1 13.9"/><path d="m5.85 12.9.25-1.85-.6-.45q-.7.35.35 2.3"/><path fill="#965112" d="M17.25 2.85q-.8-1.2-2.65-1.75L12.85.8Q9.45.7 7.8 2.05q-2.25 2 9.45.8m.7 1.55-1.2 2.35Q15.4 9.1 14.6 9.3l-.3.15-2.05 2.25q-.4 1.2-.1.2-2.6 1.5-4.25.35-.45 2 .5 2.15 4.8.8 7.2-4.35l2.5-3.25q.6-1.5-.15-2.4"/><path fill="#965112" d="m13.8 11.55 2.85-3.85-.95.6q-3.25 1.45-3.45 3.4l-.75 1h.7l1.6-1.15m-8.45.15Q3.5 13.6 2.1 12.9q.7 2 3.8.75l-.55-1.95"/><path fill="#004aa3" d="M14.55 13.65q.95-.45 1.45-1.4l.2-.9q-3.05-3.65-6.5-3.7-1.75 0-2.85.65-1.5-.9-2.95-.85l-1.1.2q-1.2.15-.75 2.25.9-.5 2.55.45.8.45 1.5 1 1.3-1.75 5 .05l3.45 2.25"/><path fill="#7dd1ff" d="M14.55 13.35q.9-.45 1.15-1.2l.1-.75q-2.9-3.2-6.25-3.3-1.65-.05-2.8.55-.6-.65-2.1-.75h-1.4q-.75.4-.95 1.65.85-.4 2.45.35l1.4.9q2.15-1.55 5.45.3 1.7 1 2.95 2.25"/><path fill="#004aa3" d="M2.05 9.7q-.1.5.25.5l.6-.45-.85-.05"/><path fill="#52a0ff" d="m15.75 11.55-1.5-1.65-4.7.15 5 3.05q.65-.1 1-.85l.2-.7m-9-2.95Q5.35 10 5 9.45l-1.6.05 1.1.4 1.65.85.6-2.15"/><path fill="#fff" d="m5.6 8.65-.5-.35q-.65-.35-1.55-.25l-.85.55-.1.3q.25-.3.8-.5.95-.4 2.2.25m1.45.45q1.25-.55 2.7-.45l1.25.2-.4-.55q-1.65-.35-3.55.8"/></g></defs></svg>