<svg xmlns="http://www.w3.org/2000/svg" xmlns:xlink="http://www.w3.org/1999/xlink" width="36.05" height="38.3"><use xlink:href="#a" width="24.65" height="22.5" transform="translate(8.4 6.15)"/><defs><g id="a" fill-rule="evenodd"><path fill="#1c191d" d="M8.55 0h6.1l5.75 2.95L24.65 19l-10.5 1.05L6 22.5l-5.25-.3L0 16.05l7-7.1L8.55 0"/><path fill="#fdfaf9" d="m10.05 1.95 4.5-.25 4.75 2.45 3.55 13.6-8.95.9-8.1 2.4-3.75-.25-.55-4.1 6.9-7.15 1.65-7.6"/><path fill="#1c191d" d="m7.05 9.9.3-.4 6.4.7 1.3 8.7-9.3 2.9-4.4-.3-.6-5.1 6.3-6.5"/><path fill="red" d="m12.8 11 1.2 7.5-8.25 2.45-3.6-.2-.6-4.2L7.6 10.3l5.2.7"/><path fill="#d4d2d4" d="m13.65 10.4.9-8.7 4.75 2.45 3.55 13.6-7.55.75-1.65-8.1"/><path fill="#ff5151" d="m12.8 11-7.45 5.9.4 4.05-3.6-.2-.6-4.2L7.6 10.3l5.2.7"/><path fill="#acacac" d="m21.1 10.95 1.75 6.8-7.8.8-.65-3.8 6.7-3.8M14.15 13l-.25-1.25L20.3 8l.35 1.4-6.5 3.6"/><path fill="#fff" d="M8.85 10.5 2.6 16.55l-.45 4.2-.6-4.2L7.6 10.3l1.25.2"/></g></defs></svg>