<svg xmlns="http://www.w3.org/2000/svg" xmlns:xlink="http://www.w3.org/1999/xlink" width="36.05" height="38.3"><use xlink:href="#a" width="21.25" height="19.55" transform="translate(11.5 10.65)"/><defs><g id="a" fill-rule="evenodd"><path fill="#1c191d" d="M21.2 10.15q-.25 2.9-5.65 6.6-1.35 1.05-4.1 2-3.8 1.25-6.5.55-2.65-.55-3.75-2.9-3.45-6.6 3-13.75Q7.25-.6 13.7.15q8.3 1.15 7.5 10"/><path fill="#fff" d="M8.9 17.55q-4.65.85-6.15-1.95Q-.2 9.9 5.5 3.9q2.5-2.65 8-2 6.45.9 5.95 8.1-.2 2.1-4.9 5.3-2.3 1.6-5.65 2.25"/><path fill="#d4d2d4" d="M19.3 10q-.1 2.1-4.8 5.3-2.3 1.6-5.75 2.25-4.6.85-6.05-1.95-1.5-2.95 7.55-5.1 9.25-2.25 9.05-.5"/><path fill="red" d="m8.75 4 2.95-2.2 2.25.25-2.8 2.35q-3 2.85-4 4.9-1.6 3.25-1.35 8.45L4 17.1q-.45-4.25.9-8.05.8-2.4 3.85-5.05"/><path fill="#c00000" d="M6.4 11.65q-.65 2.85-.6 6-1-.1-1.8-.6l.05-4.25 2.35-1.15"/></g></defs></svg>