<svg xmlns="http://www.w3.org/2000/svg" xmlns:xlink="http://www.w3.org/1999/xlink" width="36.05" height="38.3"><use xlink:href="#a" width="23.9" height="19.5" transform="translate(8.15 10.6)"/><defs><g id="a" fill-rule="evenodd"><path fill="#1c140c" d="m21.7 3.95.7 2.9.75.85q.6 1.05.05 2.45l.55 1.4q.4 1.65-.3 3.2-6.6 5.05-13.15 4.7-6.25.35-9.25-1.55-2-1.95-.25-4.35l.9-.95q-.35-1.6 1.15-2.5-.3-.95 1.75-2.45h1.9l.55-.5q-1.15-.6.3-1.8l1.15-.9h1l.65-.3q-.9-1.7 1.8-2.6l.4.1 1.4-1.2L16.4 0q3.05.3 5.3 3.95"/><path fill="#dd994f" d="M8.05 14.3q-3.5-.2-5.75-1.25-.25-1.35 1.35-2.8l1.65-1.1q2.1-.9 5.3-4.8l2.8-3.5q4.8-1.6 7.4 2.9 1.5 1.5 1 6.7-6.65 4.25-13.75 3.85"/><path fill="#a05d05" d="M17 12.9q3.5-1.2 5.4-2.85 1.5 1.25.45 4.3-6.7 4.8-14.6 4.4-3.9-.2-6.55-1.4L.65 15.3q.2-1.45 1-1.95l.7-.3q7.7 2.25 14.65-.15"/><path fill="#a05d05" d="M3.75 10.05q-.85-.1.1-1.15l1.1-1.1q6.8.05 9 6.25-3.1 1.25-4.6.35-1-2.95-3.4-3.95l-2.2-.4"/><path fill="#a05d05" d="M7.55 6.9q-.7-.4.2-1.3l1.05-.8q6.65-.05 10.75 7.1-2.6 1.5-4.7 1.5-2.15-4.15-4.9-5.7l-2.4-.8"/><path fill="#a05d05" d="m11.8 2.05 3.85.3q4.4 1.25 7.05 6 1.1 1.75-1.95 2.9-4.2-7.1-10.2-7.1V3.2q.2-.95 1.25-1.15"/><path fill="#ffff1c" d="M3.8 9.75q-.35-.2.35-.85L5 8.25q5.25-.45 8.65 5.7-1.4 1-3.55.9-1.25-3.75-3.9-4.8l-2.4-.3"/><path fill="#ffff1c" d="M18.95 12.15v.4q-.45.6-3.15 1.45-2.45-4.95-5.45-6.6l-2.5-.65q-.45-.2.3-.85l.75-.65q5.25-.3 10.05 6.9"/><path fill="#ffff1c" d="M22.1 10.15q1.1 2.1.2 4.1-6.65 4.3-14.3 3.95-3.85-.2-6.3-1.25-.95-1.15-.3-2.6l.8-1.2q8.05 2 14.8-.3 3.35-1.15 5.1-2.7"/><path fill="#ffff1c" d="M10.85 4.05q-.4-.3.15-1.05l.6-.65Q19 2 22.1 7.95q1.2 1.5-.95 3.15-3.35-5.15-7.2-6.6l-3.1-.45"/><path fill="#a05d05" d="M16.65 13.45q-7.45 2.2-14.95.1l.65-.5q2.7.9 6.5.95 7.6.15 13.25-3.85l.5.6q-2.25 1.55-5.95 2.7"/><path fill="#991" d="M8.85 17.7q-3.05 0-6.95-1.45-.5-.4-.3-1.35l.3-.85q.1 2.1 8.1 3.6l-1.15.05"/><path fill="#ffffcf" d="M18.7 12.75q-2.1 4.5-5.55 5.1l-3.3.2q4.2-.5 7.2-4.7l1.65-.6"/><path fill="#e6cf1c" d="M18.7 12.75q.75 0 3.9-2 .4.6-.3 3.5-2.85 2.3-9.15 3.6 4.2-1.1 5.55-5.1m-9.85-3.3q1.45.4 4.5 4.2l-3.6.05.05-.8-.95-3.45m6.6 3.65-.05-.15-1.4-2.2q1.45-.3-1.8-4.75 2.9 1.2 6.55 5.95l-3.3 1.15m5.65-2.4-4.35-4.95q2.1-.2-2.6-3.35 7.1 3.05 7.7 6 .4 1.45-.75 2.3"/><path fill="#cd7c00" d="m22.65 11.3.05.85q.05 1.55-.4 2.1l-1.05.6q1.35-2.4 1.4-3.55M19.4 5.35q4.65 3.4 1.75 5.35l-1.5-1.95q2.2.45-.25-3.4m-3.05 4 2.15 2.5q-.95.6-3.05 1.25l-.7-1.25q2.85.05 1.6-2.5m-4.4 2.85q.4.15 1.4 1.45l-3.55.3-.05-.25q1.9-.25 2.2-1.5"/><path fill="#ffffcf" d="m10.9 3.8.95-1.4q.2 1.15 2.45 2l-3.4-.6m-2 1.45q-.25.6 2.3 2.5-1.55-1.1-2.55-1.2l-.8.2 1.05-1.5m-3.9 3q-.15.7 4.4 3.45l-.5.3q-1.6-1.75-3.4-2.35L4 9.45l1-1.2"/></g></defs></svg>