<svg xmlns="http://www.w3.org/2000/svg" xmlns:xlink="http://www.w3.org/1999/xlink" width="36.05" height="38.3"><use xlink:href="#a" width="21.1" height="18.05" transform="translate(11.55 10.1)"/><defs><g id="a"><path fill="#1a171b" fill-rule="evenodd" d="M12.65 0q5 .3 6.45.95 1.1.4 1.6 1.8L21 4.3l.1 1.15-2.25.3h-.1q.9 1.75.9 5.2 0 2.05-.9 2.55l-2.25 1.55q-2.05 1.8-4.4 2.45l-6.75.55q-3.7-.25-4.85-1.1-.5-.5-.5-1.2 0-1.3 1.25-3.15 1.6-2.3 5.65-5.8l.05-1.2-2.05-.35L4 4.8 5.7.3l.5-.1 6.45-.2"/><path fill="#d9c288" fill-rule="evenodd" d="m12.65 1.05 6.05.8q.75.4 1 1.25l.25 1.2v.25l-2.6.2.4 1.25q1.7 5.85.4 6.6l-1.65 1.15q-3.25 2.3-4.65 2.75l-6.5.45q-3.35-.2-4.15-.9-.75-.35.95-2.85L7.6 7.7l.35-.35.15-2.8H6.95l-1.6-.25q.85-2 1.15-3.1l6.15-.15"/><path fill="#b69a65" fill-rule="evenodd" d="M11.85 16.5q-1.15.3.35-2.7Q14 10 13.85 8.85q-.25-1.35-3.1-1.55l-2.8.05.15-2.8 4.25.55 3.9-.05 1.35 3 .3 4.75-1.4.95q-3.25 2.3-4.65 2.75"/><path fill="#533a2d" fill-rule="evenodd" d="M17.7 5.75q-7 .5-9.6-.2v-1l5.5.4 3.75-.2.35 1"/><path fill="#ffe3ae" fill-rule="evenodd" d="m2.15 14.85.5-1.3q.8-1.45 2.7-2.1l4-.1q1.65.7.3 1.95-4.7 4.05-7.5 1.55m3.6-10.8 1-2.5q.85-1 6.35.05 1.65.25-2.95 1.85-1.45 1.05-4.4.6m11.9-2q1.85-.25 1.7 1.65l-.4.6q-.35.05-.7-.5l-.8-1.1q-.45-.6.2-.65"/><path fill="none" stroke="#533a2d" stroke-linecap="round" stroke-linejoin="round" stroke-width=".5" d="m7.6 7.8 1.6-.25q1.95-.05 3.3.8m-6.25.85 1.7-.25q1.95-.1 3.3.8M5 11l1.65-.25q1.95-.15 3.3.75"/></g></defs></svg>