<svg xmlns="http://www.w3.org/2000/svg" xmlns:xlink="http://www.w3.org/1999/xlink" width="36.05" height="38.3"><use xlink:href="#a" width="20.4" height="28.35" transform="translate(14.55 .9)"/><defs><g id="a" fill-rule="evenodd"><path fill="#0d090e" d="M16.6 24.55q-3 4.8-10.85 3.5l-.7-.2L5 26l-.4 1.85H4L.55 26.2l-.5-.35L0 25.3q-.2-6.25 3.3-9.2 2.35-2 6.05-2.25l3.4.2.25.05.25.15 1.75 2.3q1.65 3.05 1.75 7.45v.3l-.15.25"/><path fill="#44423d" d="m12.55 15.05 1.5 2.05q1.55 2.85 1.6 6.9-2.6 4.2-9.65 3l-.6-4.2-1.4 4-2.95-1.55q-.25-7.9 5.6-9.8l5.9-.4"/><path fill="#0d090e" d="M16.35 1.05h-.05L16.25 1l.5.6.75 1.6q1.35 2.5 1.8 2.85l-1.2-.5 2.3 3.15-2.35.15q-.45 1.25-1.15 1.6l-2.6.3h-.65l.15 1.85q0 2.7-.9 4.1-.65.9-1.75 1.05-2 .1-3.25-1.65-1.15-1.3-1.75-1.4l-1.35-.2.45-1.3.1-.5v-.15l-1.7.5 1.85-3.5.15-.25-1.4-.6.5-.5H4.5l.65-.5.15-.2 2.05-1.4h.15l1-.4-.95-1.25q-1.5-1.9-1.5-2.6 0-.8 1-1.25l4.6-.6q3.45 0 4.6 1l.1.05"/><path fill="#795241" d="m15.8 2.05.7 1.5q.6 1.15 1.4 1.95l-1-.55.2 1.05q.8 1.45 1.4 1.85l-1.35.2q-.1 1.15-.6 1.4l-2.7.25q-1.5 0-1.3.65.35 1.5.1 3.6-.25 2.55-1.55 2.75-1.45.05-2.35-1.2v.05q-1.5-1.95-2.5-1.95.35-.8.1-1.6-.25-.75-.6-.65 1.15-1.8 1.1-2.15L6 8.3l1.8-1.2q.45-.15.3-.15l1.65-.45q1.1-.15-2.65-4.65 0-.6 3.75-.75 3.8-.15 4.7.7l.25.25"/><path fill="#442119" d="M9.3 4.1Q8 1.6 9 1.6l3.85.25Q16.65 6.8 15.1 7q-1.95.25-4.05-.4-.45-.05-1.75-2.5"/><path fill="#b8957e" d="m15.55 1.8.25.25q.7 2 2.2 3.45l-1.1-.55 1.65 2.9q-1.05-.15-1.45.35l-.2.5-1.35-6.9m-3.7 5.25 2.8.45-3.1.25q-3.25.55-3.5 2.1-.25 1.35.75 5.7-1.5-1.95-2.55-1.95.35-.8.1-1.6-.25-.75-.55-.65Q7 9.55 6.9 9.2L6 8.3l1.85-1.2q1-.4 4-.05"/><path fill="#0d090e" d="M8.4 6.8q-.55.25-.85-.25-.4-.45.45-.7l6.15 1L8.4 6.8m7.15 3q-.2.55-1.25.95l-2.15-.05q-1.25-.4-.75-.7l4.15-.2"/><path fill="#a99d90" d="M1.35 25.1q.5-7.15 4.4-8.9-1.7.8-2.6 5.25l-.5 4.3-1.3-.65m13-.35q.75-3.3-.8-7.75l.85 2.3q.85 2.65.85 4.55-.75 1.15-.9.9"/><path fill="#442119" d="m12.55 10.95-.7 4.3q-.45.7-.6-5 .85.85 1.3.7"/></g></defs></svg>