<svg xmlns="http://www.w3.org/2000/svg" xmlns:xlink="http://www.w3.org/1999/xlink" width="36.05" height="38.3"><use xlink:href="#a" width="18.9" height="17.3" transform="translate(14.15 10.9)"/><defs><g id="a" fill-rule="evenodd"><path d="M10.6 0 8 .05l-2.7.8-1.05.65-.9.7L2 3.9Q.4 6.05.4 8.1l.05 1.05.1.5-.2.35L0 11.05l.25 1q2.55 4.9 9.2 5.25l1.9-.2 3.5-1.2q3.15-1.6 4-3.95.2-.6-.15-.95l-.3-.3.05-.5.15-1v-.45l-.1-.5-.35-.95-1.05-2.05-1.75-2.45-1.55-1.3Q12.35.2 10.6 0"/><path fill="#c92505" d="m12 16.1 1.2-.3 2.05-.9.9-.6.65-.65 1.35-1.8.05-1.1-.2-.45-.15-.35q-.5-.25-1.55.65l-1.45 1-1.9 1.15-2.5.5H8.7l-.85-.05-1.55-.45-3.5-1.95q-1.25-.85-1.55-.5-.45.4-.05 1.05l.7 1.05 1.7 1.55 2.15 1.45 2 .7 2.75.2 1.5-.2"/><path fill="#ead8b9" d="M9.2 1.05Q6.3.9 3.8 3.4l-.45.5L2.2 5.35l-.35.6-.4.95Q.7 8.75 1.2 10.4l.35.8 1.75 1.85q2.3 2.3 6.05 2.3l3.5-.5 1.55-.55q1.7-.7 1.35-1.05l1.05-1q.3.3.8-1.65h.05v-.05h-.05L17.65 9l-.35-1.45-.7-1.4-.85-1.6-.9-1.2q-1.55-1.8-3.55-2.2l-2.1-.1"/><path fill="#020000" d="m9.45 1.9-3.65.55q-1.35.5-3.45 4.7-.3.65.05 1.35 5.2 5 13.5.7.8-1.7-.7-4.4-1.45-2.7-5.75-2.9"/><path fill="#020000" d="M15.65 3.85Q14.1.05 9.4.05t-6.45 3.9q-.85 1.9-.8 3.85l7.25.85 6.85-1q.15-1.9-.6-3.8"/><path fill="#fff" d="M13.85 9.45q1.65-.8 1.8-1.6Q16.45.8 9.6.8 2.95.8 2.95 7.05q0 .8 1.6 1.95 1.95 1.4 4.6 1.4 2.7 0 4.7-.95"/><path fill="#ccc" d="M7.05 1.05q-1.75.5-2.8 1.85-2.35 3.05-.9 4.85 1.85 2.5 4 2.5-2.9-2.2-2.95-5.2Q4.35 3.2 6.45 1.8L8.6.8l-1.55.25"/><path fill="#9e9e9e" d="m11 9.9-.2.45 1.2-.25.3-.1-.05-.65.25-.65.35-.8-1.35.05-.65.05-.65.15.5.35.25.15.05.45v.8"/><path fill="#ccc" d="m13.7 7.75-.7.2-.6.35q-.5.5-.5 1.2-.05.55.05.65h.1l1-.4q-.35-.45-.15-1.15.15-.4.8-.85"/><path fill="#753b07" d="m14 10.25-2 .55 1.05.4 1.65.25h1.45l.95.35.45-.75-.05.05v-.05q-.1-.15-.5-.15l-.85-.1-1.9-.5-.25-.05M9.75 15.4l.35-.05 2.25-.35 1.3-.4-.35-.35-.5-.25-1.15-.6-1.05-.8-.5-.55q-.4-.45-1.05-.7l-.4-.2-.15-.05h-.25L8 11.05 7.5 11l.6.65.5 1 .3 1.2.25.35.1.35.3.5.2.35m6.7-2.8h.05l-1.5-.35-1-.1 1.35 1.3.25.05.5-.4.45-.4-.1-.1M3.9 9.7h.05l-.6-.45-.25.05v.4l.2.8.55 1 .85 1.7.1.8.65.4 1.05.45-.15-.2-.1-.3-.3-.55-.4-1.65-.05-.85q0-.25-.5-.75L3.9 9.7M2.35 8.25l-.1-.8-1.05.15q-.4.85-.2 2.25l1.35-1.6M17 7.3h-.65l-.05.15.05.25-.05.4.15.1h1.1l-.15-.6-.15-.25L17 7.3"/></g></defs></svg>