<svg xmlns="http://www.w3.org/2000/svg" xmlns:xlink="http://www.w3.org/1999/xlink" width="36.05" height="38.3"><use xlink:href="#a" width="20.85" height="20.1" transform="translate(11.7 10.1)"/><defs><g id="a" fill-rule="evenodd"><path d="m19.05 13.75 1.25-3.1.4-1.25q.35-2-.2-4.65-.75-3.3-2.8-4Q10.5-1.5 5.45 3.1q-1 .85-3.15 4.3Q.75 9.95.25 12.1q-.45 2.15-.1 3.65.5 2.75 1.8 3.5 1.5.9 4.5.85 4.05-.1 7.25-2.5l2.55-2.5q.65.85.95.8.95-.15 1.85-2.15"/><path fill="#ca0000" d="M13.3.95Q8.95 1 6 3.65 4.25 5.4 2.7 8l-.15.15q-1.4 2.55-1.8 4.3-.3 1.5.05 2.4.9 2.8 1.6 3.1 5.15 2.05 10.8-1.1l1.85-1.75 1.5-1.6.5.75.6.5q.5-1.55 1.9-4.55l.4-1.05q.35-1.75-.15-4.2Q19.2 2 17.65 1.5L13.3.95"/><path fill="#720000" d="m15.7 1.45-4.45.25Q8.4 2.45 7.15 4l-2.1 2.9q1.25-.55 4-.05 1.6.25 2.5 1.35l1.15.95q.55-.15 1.75-2.05 1.35-2.25 2.8-3.15 1.7-1 .25-1.85l-1.8-.65"/><path fill="#a20000" d="m17.65 14.75 2.3-5.6q.55-1.4-.4-5.15-.1-.55-2.05 2.9-1.85 3.35-2.55 5.3-.75 1.9-4.3 3.95-3.7 2.2-6.15 2-3.3-.2-3.8-4.3-.4 4.3 2.7 5 5.75 1.25 9.25-1.6 3.3-3.5 4.15-3.8.15 1.5.85 1.3"/><path fill="#720000" d="M16.7 13.65q.75 1.3.95 1.1l1.25-2.5q1.05-2.55 1.15-3.6l-.25-3.4-.4 2.4q-1.4 1.45-2.7 6"/><path fill="#ff7281" d="m8 2.85 3.95-1.75-1.5.3Q8.65 1.9 7 2.95l-3 3.3Q.7 10.45.9 13.7q.05-1.25.85-3Q2.9 8.35 4.5 7.85l4.15-.2 2.4.2q.15-.25-.85-.7-1.25-.55-2.95-.4L4.4 7.2l.65-1Q6.9 3.65 8 2.85"/><path fill="#720000" d="M7.95 7.9q-2.05-.3-3.55.5-1.15.6-1.65 1.45L2.3 10.9q-.5 1.8.85 3.2l-.45 1.1q.2.65 1.05 1l1.25.05.9.6q.55.15 1.1-.2l1.25.1.9-.5q.35-.4.35-1.15 1.8-.75 2.3-1.4l.65-.95q.85-1.65-.45-3.1-1.3-1.4-4.05-1.75"/><path d="M7.5 7.7q-2-.25-3.55.5L2.3 9.65l-.35 1.05q-.5 1.8.75 3.2-.5.7-.4 1.1.25.75.7.95l1.2.15 1 .5 1.35-.15 1.25.15q.6-.1.9-.5.5-.6.5-1.2 1.5-.45 2.2-1.4l.6-1q.8-1.65-.5-3.05-1.25-1.35-4-1.75"/><path fill="#fff" d="m5.3 16.15 1.2-.4q.25.45 1.2.35.55-.1.8-.85l.05-.75q1.95-.1 2.9-2.15Q13 8.85 7.4 8q-4.1-.5-5.15 2.9-.5 1.75 1 2.8-1.35 1.25.05 1.8l1.15-.05q.1.5.85.7"/><path fill="#32322d" d="M6.4 11.4q2.1 2 3.1.8 1.65-1.95-1.2-1.75-1 0-1.9.95m-.5 1.35q-.35.5 0 .85l.55.05q.35-.2-.55-.9"/><path fill="#d2d2d2" d="M9.65 9.85q1 1.75-.95 3.05l-2.9 2q.75-.3 1.6-.45.6 0 .4.8-.1.7.1.6.3-1.5.5-1.45 2.1-1 2.75-2.7.8-2.2-2.9-3.45l1.4 1.6"/><path fill="#959595" d="m10.3 9.65.1.95q.5 1.1-1.85 3.1l-1.6.55 1.2.25 2.05-1.6q1-.75.7-2.05l-.6-1.2"/><path fill="#32322d" d="m5.05 11.15-1.5-1.05q-1.65-.15-.5 1.55.85 1.25 2-.5m.25 1.6q-1 .35-.6.7l.6.15q.35-.2 0-.85"/><path fill="#d2d2d2" d="M5.8 15.85h-.05l-.35-.05-.4-.05.4.05.35.05h.05l.45.05q1.05-.65.55-1.5l-.8.25q.3.25.2.7-.15.45-.4.5m-2.8-.7q1.65.85 1.95-.7L3.8 13.7l.65.9q0 .85-1.45.55"/><path d="M7.2 4.1 5.15 6.95l4-.1q1.55.3 2.5 1.4.8.95 1.1.9.55-.15 1.45-1.5 1.1-1.8 1.8-2.55-1.25.8-3.2 3.4-.5.1-2.5-1.75-.9-.55-2.75-.5L6 6.5l1.9-2.55q1.4-1.6 5.8-2.2l3.05.4q1.5.6 1 1.5 1.05-.9-.35-1.65l-1.65-.55-4.45.25q-2.85.75-4.1 2.4"/><path d="m12.25 4.6 4.25-.2-4.55-.2q-1.8.45-3.15 2.25l.75.05q1.6-1.55 2.7-1.9"/></g></defs></svg>