<svg xmlns="http://www.w3.org/2000/svg" xmlns:xlink="http://www.w3.org/1999/xlink" width="36.05" height="38.3"><use xlink:href="#a" width="19.55" height="18.5" transform="translate(13.35 9.75)"/><defs><g id="a" fill-rule="evenodd"><path fill="#020000" d="M14.2.6Q11.7-.25 10 .1L4.65 1.65q-.5.4-1.6 0-.55-.1-1.15.4-.7.55-.65 1.25l.95 3.3q.45 1.75.2 2Q.15 11.1.55 12.35q.15.45-.55 1.3 0 3.35.7 3.5 4.45 1.7 10.35 1.25 7.2-.4 7.65-2.1.6-2.45.25-2.75l-.55-.3q0-1.95-.6-2.65-1.4-1.8-.25-2.85.75-.85 1.5-2.7.9-2.15.15-2.55-1.8-1.15-2.9-.95L14.2.6"/><path fill="#e0d3d1" d="M17.4 13.8q-10.75 3.7-15.7-.7-.5-.5-1 .45-.2.35 0 1.55.2 1.25.6 1.5 2.7 1.5 8.65 1.15 7.45-.6 8-1.4 1.35-2.05.3-2.5l-.85-.05"/><path fill="#aa9d9b" d="M10.5 17.35q-5.75.15-9.35-2.1Q.7 15 .8 13.8l-.05 1.5q.2 1.25.7 1.5 2.3 1.5 8.55 1.1 7.4-.4 8.05-1.35 1.45-2.05.35-2.5-.2-.05.05.6.05.9-.9 1.4-2.3 1.25-7.05 1.3"/><path fill="#698907" d="M14.55 1.25 13.3.85l-1.15-.2-2.5.15-2.35.45L4.15 2.3l-.6.1-.4.15h.1L3 2.6l.55.4.6.5q.9.55 3.1.8L13.2 4q1.35-.35 2.45-1.1l.85-.65-1.95-1"/><path fill="#5f7505" d="m13.75 1.3-2.45-.25-1.15.05-1.35.15-2.3.6-2.55.9q-1.2.6-1.4.35l-.05.05 1.65 1.5q1.05.95 3.6 1.45l2.55.2 2.45-.3q1.9-.5 2.8-1.7.4-.45.4-1.15l-.4-.8-.85-.6-.95-.45"/><path fill="#698907" d="M2.55 2.55q-1.5 1-.1 3.05 1.5 2.25.5 3.4-2.2 2.55-1.65 4.4.7 2.25 4.85 2.45l2.15.05 5.9-.3q3.1-.3 3.35-1.3.6-1.8-.5-3.8-1.1-2.15-.3-3.1 2.3-3.5 1.7-4.35-1.15-1.75-2.65-.8-2.4 1.35-5.75 1.35L5.4 3.15q-1.85-1.25-2.85-.6"/><path fill="#526002" d="m13.95 1.3-1.2-.25L11.5 1l1.15.1q.6.2.3.65-.15.25-.75.35l-1.5.15H9.25l-1 .05-1.05.2-.75.1q-.4 0-.4-.3l.1-.2.1-.2-.35.1-1.6.55-.25.2q-.15.3.6.55.6.45 2.4.7l4.75-.2 3-.5.9-.5-.05-.5-.7-.55-1-.45"/><path fill="#374402" d="m13.3 4 1.6-.6q.55-.15.75-.6.4-.75-.65-1.2l-1.6-.45.85.75.05.65-.65.35-2.2.6-2.5.4-.4.15.35.1.55.2h.35l.6.05 1-.05L13.3 4"/><path fill="#374402" d="m13.65 3.4-2.9-.5q-2.95-.35-3.85.45-.4.3.05 1.9.55 1.8-.25 5.25-.3 1.5.25.85l6.5-.2-.25-1.25.45-6.5"/><path fill="#98c6d8" d="M13.45 4.1q-1.95-.7-6.15.05-1.55.35-.65 1.65l1.6-.2 4.5-.2 1.8-.05q.5-.8-1.1-1.25"/><path fill="#98c6d8" d="M14.3 6.55q-3.75-1.05-7.35.1-1.65.6-.75 1l1.25.1 4.35-.15 2.5.4.25-.7q.1-.65-.25-.75m-.3 2.2q-5.45-.9-6.8-.1L5.95 9.9q.3.5 2.55 0l4.45.35q1.05.6 1.45-.35.5-1.1-.4-1.15"/><path fill="#020000" d="m6.5 4.25-.1-.2-.2.05.05-.05-.6.2-.7.35-.25.5.3.55.5.45.75.15q.25-.1.05-.4l-.35-.5-.05-.45.6-.65M5.75 6.5l-.7.05-.5.6v.65l.4.45.6.15.7-.15-.5-.35-.35-.55.35-.45.25-.15q.25 0 .15-.15h-.1l.1-.05-.4-.05M5.7 8.9l-1.25.25q-.5.25-.4.65l.5.85 1.2.25.45-.25-.55-.15q-.65-.35-.5-.7l.6-.55Q6 9 5.8 8.9h-.1m9.45-4.4v.6l-.5.5-.25.2-.25.05.05.2.25.05.75-.05q.6-.15.8-.4l.3-.6-.05-.3L16 4.4l-.7-.35h-.75l.6.45m.55 2.1-.65-.2h-.25q-.3 0-.05.15l.3.1.15.4v.45l-.25.35-.5.4.2.1q.5.15.9-.25l.45-.75-.05-.45-.25-.3m.3 2.7q-.2-.45-.8-.55l-.25.05h-.15l.4.3.2.55q.15.6-.7.7l-.25.05q-.4 0-.3.15l.15.2.7.1q.55.15.95-.35l.2-.5-.15-.7"/><path fill="#e0d3d1" d="M17.75 11.9q-.3-1.25-8.3-.85-7.95.3-8.15 1.5-.35 3.1 3.95 3.35 10.45.4 12.05-1.1.95-.95.45-2.9"/><path fill="#991b07" d="M16.05 15.3q1.35-.25 1.7-1.3l.05-.4q-.5 1.55-3.85 1.3-9.8.4-11.75-.85L1.25 13q.05 1.55 1.5 2.15 1.65.9 6.75.75l6.55-.6"/><path fill="#fff" d="m13.75 5-.05-.4-1.25-.3-1.25-.05q-.25.05.05.3l.7.2.8.35.7.2.3-.3m.5 2.1-.7-.35-1-.25-1.05-.15h-.6l-.35.05q-.05.25.45.25l1.4.2 1.4.45.45-.15V7.1M11.4 8.65l-1.1.15.2.2h.5l.75.1 1.15.4.3.15.45.15.6-.15h-.05l-.9-.55-.85-.3-1.05-.15m.4 7.45-1.1.15-1.05.05 1.8.25h.85l.25-.05 1.25-.15 1.85-.2L17 15.8v-.05l.05.05q-.05-.15.2-.25l-.8-.05-2.5.35-2.15.25"/><path fill="#abc609" d="M2.45 3.25q-.2.35-.05 1.15l.3.95q.35.65.75.55l1.05-.35-.1-.4.05-.4.25-.45.35-.3H5q-.6-.1-1.25-.7l-1.3-.05M17.7 2.8l-.55-.3-.85.05-.25.55-.15.2-.25.2q-.4.1.25.3l.55.3.2.3.05.35q.05.15.55.35L17.9 4l.1-.7-.3-.5"/><path fill="#efe2e1" d="M12.15 11.65q-.25-.15-1 .6-.15.15-.15.6l.45.5q.5.3 1.3.45h2.2q2.35-.4 2.05-1.25-.2-.5-.75-.7l-1.75-.35h-1.3l-.65.05-.4.1"/><path fill="#fff" d="M13.3 11.8h.2v.05l-.6.8q.5.65 2.15.5 1-.1 1.1-.6l-.45-.5-2.4-.25"/></g></defs></svg>