<svg xmlns="http://www.w3.org/2000/svg" xmlns:xlink="http://www.w3.org/1999/xlink" width="36.05" height="38.3"><use xlink:href="#a" width="19.95" height="20.55" transform="translate(13.2 9.85)"/><defs><g id="a" fill-rule="evenodd"><path fill="#020000" d="M16.65 1.75q1.1-.2 2.95 1.05.75.5-.1 2.9-.75 2.05-1.6 2.85-1.1 1.35.35 3.25.55.75.6 2.95l.5.3q.45.4-.2 3.1-.55 1.85-7.8 2.35-5.85.4-10.6-1.35Q0 18.9 0 15.2q.75-.95.55-1.45-.3-1.5 1.85-4.2.2-.25-.15-2.25L1.3 3.7q-.05-.8.6-1.4.7-.55 1.25-.35l1.6-.05q.6-.6 5.5-1.75 2.8-.65 6.4 1.6"/><path fill="#fff" d="M17.8 15.4q.2-.25.85 0 1.15.65-.3 2.8-.6.95-8.25 1.5-6.1.45-8.75-1.25-.5-.3-.7-1.7-.15-1.3.1-1.7.4-1.05 1-.5 5 4.9 16.05.85"/><path fill="#aa9d9b" d="M11.15 19.25q4.75-.2 6.85-1.35 1.6-.95.8-2.25 1.05.6-.3 2.8-.65.95-8.25 1.5-7.1.5-8.85-1.25-.85-.8-.85-3.25.05 2.3.85 2.55 4.4 1.5 9.75 1.25"/><path fill="#698907" d="M14.9 1.4q.75.25 2 1.1l-.9.8q-.9.65-2.45 1.15L7.4 4.8q-2.25-.25-3.15-.85l-1.2-1 .25-.05h-.15l.45-.15 3.9-1.3 2.35-.5 2.55-.2 2.5.65"/><path fill="#870675" d="m15.5 1.45.85.7.45.9-.45 1.25q-.95 1.25-2.85 1.9l-2.5.3-2.65-.2q-2.7-.65-3.7-1.6L3.4 3.55 3 3l.05-.05q.25.35 1.35-.4l1.25-.65 1.25-.45L9.4.9l1.4-.2h1.25l1.25.05 1.2.2 1 .5"/><path fill="#f2db08" d="M16.15 2.5q1.6-1.1 2.7.9.3.5-.5 2.5L17.1 8.25q-.85 1.05.4 3.45 1.05 2.2.5 4.2-.35 1.1-3.5 1.5l-5.95.3-2.25-.05q-4.4-.2-4.95-2.7Q.8 12.95 3 10q.9-1.2-.5-3.75-1.4-2.35.1-3.35 1-.7 2.9.65l4.8.45q3.75 0 5.85-1.5"/><path fill="#b50894" d="m14.05 1.2 1 .5.75.7q.2.15 0 .5l-.9.55-3.05.55L7 4.2q-1.9-.3-2.5-.75-.75-.25-.65-.65.4-.15.7-.35L5.8 2l.3-.05-.05.1L6 2.3q0 .4.35.4l.75-.15 1.05-.25 1-.05h1.5l1.6-.1.8-.45q.2-.55-.4-.7l-1.1-.1 1.25.05 1.25.25"/><path fill="#870675" d="m14.3 2.9-.75 8.35q-6.45-3.5-7-5.55-.65-2.25.2-2.95.9-.8 4.15-.6 3.4.4 3.4.75"/><path fill="#bf7c06" d="m14.3 3.65-.25 8.3-7.9.5q.95-3.95.4-6-.65-2.25.2-2.95.9-.8 4.15-.6 3.4.4 3.4.75"/><path fill="#f4a506" d="m13.9 3.8-.35 7.2q.2.65 0 .7h-6.7q.8-3.8.25-5.9-.5-1.65-.1-2.05 1-.85 4.05-.5 2.8.2 2.85.55"/><path fill="#e02bb9" d="M6.35 11.9q-3.55 1.35-4.75.85.65-1.85 1.25-2.55.45-.45.25-1.75-.2-1.2-.45-1.55l-.4-1.1 2.15.1q2.35.15 2.75.75.75.85-.8 5.25m5.4 1.15q.75.15 2.85 3.15-1.2.85-8.75-.05l.95-1.65 1.3-1.45q.95-.4 3.65 0m6.15-.3q-3.65.05-3.85-.8-.75-5.25-.05-5.5l4.4-.8-1.05 2.25-.5 1.8 1.05 3.05"/><path fill="#020000" d="m6.65 8.55.15-.05q.25 0 .05.2l-.25.35-.35.45.05.45.45.6q.3.35-.1.35l-.8-.1-.5-.55-.25-.55.2-.55.7-.45.65-.15M7 5.25l.05.25-.65.75.1.5.35.55q.25.4-.05.4l-.75-.15-.55-.5-.25-.55.25-.55.65-.45.65-.2-.05.1.25-.15m8-.3-.35-.3-.25-.2h.75l.7.45.25.3.05.35-.25.7-.85.4-.75.05-.25-.05-.05-.2.25-.05.25-.2.5-.55v-.7m-1.2 3.1h-.15l.9.1q.45.1.7.35l.25.3.05.4-.25.75-.9.35-.75.1-.25-.15-.05-.1.25-.15.25-.2.5-.55v-.6l-.3-.4-.25-.2"/><path fill="#f4a506" d="M18.3 14.55q.3 2-1.9 2.5l-6.65.7q-5.35.15-6.95-.85-1.55-.85-1.4-3l1.25 1.25q1.65 1.5 11.75 1.05 3.1-.2 3.9-1.65"/><path fill="#fff" d="M16.85 17.25h.75l-.2.3q-.25.4-1.4.45l-1.9.2-.6.1h-.65l-.25.1h-.3l-.65.05-1.8-.3L10.9 18l5.95-.75"/><path fill="#1f1e21" d="M14.5 4.55q.4.65-.4 1.7-.7 1.05-2.45.9L7.8 7.5l.05-.05q-.55.25-.95-.25l-.15-.8q.3-1 1.75-1.5 1.4-.65 3.35-.85 2.2-.15 2.65.5"/><path fill="#1f1e21" d="M11.4 7.25q1.75-.1 2.4.9.55 1-.15 1.85-.25.4-2.05.4l-2.8.15-1.9.2q-.8-.95.2-2.05l.9-.75.9-.45.85-.05 1.65-.2"/><path fill="#c1bab9" d="m13.3 6.2-1.2.35-4.5.6q-.55-.1-.25-1 .25-.65 1.55-1 3.9-1.15 4.85-.4.3.25-.45 1.45m-.4 1.95q.25.1.2.8l-.35.8-2.4.15-2.95.55q-.5-.15.15-1.45.35-.75 1.1-.85 2.4-.75 4.25 0"/><path fill="#fff" d="M8.8 7.05 7.25 6.9q-.4-.6.5-1.35l1.9-.65q.7-.15-.85 2.25v-.1m.85.85-.5 2.25-1.3.3q-.6 0-.7-.3 0-.75.75-1.65l1.75-.6"/></g></defs></svg>