<svg xmlns="http://www.w3.org/2000/svg" xmlns:xlink="http://www.w3.org/1999/xlink" width="36.05" height="38.3"><use xlink:href="#a" width="24.35" height="18.8" transform="translate(7.9 10.95)"/><defs><g id="a" fill-rule="evenodd"><path fill="#3a3629" d="M20 3.2q.9 3.55-.4 6.95l-.95 2.05-.4.8.7 2.25.5.2 2.3-.65q.85-4.6-.15-9.4l-.45-2.2H20m-2.15 9.4.5-.65.9-2.5.4-3.1.2-3.1-1.5.25Q18.3 6.75 17 9.8l-.5.9-.5-.6.35-.75L18 3.55l-2.15.05q-.55 1.8-1.75 3.55l-.6.85.7.65-5.35-3.2h.25l.2-.2.4-.4.15.05-.35.5-.15.2.35.2q.9.6 2.2 1l.15-.2 1.3-3.25-2.15-.6-.95-.3-.5.2L8.5 4.7l-.25.3-.1.1-.8-.35q1.1-1.3 2.15-3.05l.25-.1q3.6-2.25 7.8-1.35l2.2 1.1L22.2 3.2l.85 2.35-.9-1.45-.9-.85q2.25 5.6.85 11.4 1-.3 1.3-1.45.7-2.9.15-5.85v-.1l.5 1.95.3 2.7q0 2.5-2.3 3l-.2.55.05-.5-2.85 1-.15.5-.45-1.95-.6-1.9m-1.9 4.6-1.15.5v-.05l-.1.05-1.5.5-.35-.25Q12 16.45 11 15.1q-.9-1.3-2.2-2.15-1.35-.9-2.85-1.3L1.2 10.6q.1-1.65 1.4-2.75Q3.7 6.95 5 6.6q.1-.05.15.05l.9.3h-.1L3 8.35l-.3.4q-.4 0-.65.75l-.1.55 2.15.3-.05-.5h.1q-.2.65.4.5 2.9.25 5.15 2l-.2-.65.2-.7L11 9.75h.05l-.1-.05-.5-.65-.95-.6-.65.25-.2-.1.45-.35L8.6 8l-1.35-.5-2.9 1.7-.15-.1.3-.55.1-.1.15-.25 1.7-1.1L6.3 7l2.3.9q2.45.95 4.25 2.85 2.05 2.2 3.15 4.95.3.8-.05 1.5m-2.1-10.1 1.75-3.5-2.15-.25-.1.75q-.2 1.4-1.15 2.55l-.3.35 1.3.85.65-.75m-3.6 4.3-.5.7 1.05 1.1.55.5.85-.25.65-.3.9-.5.05-.1q-.8-1.9-2.1-2.4l-1.45 1.25m2.05 2.2-1 .2 1.85 2.55 2.05-.85-.4-.8-.25-.65L14 13l-.65.3-1.05.3m1.05 3.7v-.05l.25.3 2.2-1-.6-.55q-.95.5-2.05.55l.05.15-.05.15-.2.15.25.3-.05.1.2-.1"/><path fill="#3d5f4b" d="M20 3.2h1.15l.45 2.2q1 4.8.15 9.4l-2.3.65-.5-.2-.7-2.25.4-.8.95-2.05q1.3-3.4.4-6.95m-3 6.6q1.3-3.05 1.35-6.3l1.5-.25-.2 3.1-.4 3.1-.9 2.5-.5.65-.85-1.1V9.8m6.55-2.55v.1q.55 2.95-.15 5.85-.3 1.15-1.3 1.45 1.4-5.8-.85-11.4l.9.85.9 1.45.45 1.6.05.1M8.15 5.1l.1-.1.85.45h-.25l-.7-.35m.35-.4 1.25-2.05.5-.2.95.3 2.15.6-1.3 3.25L9.5 5.4l.35-.5.25-.55-.4.5-.4.4-.6-.45-.15-.1H8.5m5.6 2.45q1.2-1.75 1.75-3.55L18 3.55l-1.65 5.8-1.2-2.05-1.05-.15M4.75 8.2l-.15.25V8.3l.15-.1m-.25.35-.3.55-.15.75.05.5-2.15-.3.1-.55q.25-.75.65-.75h.05l-.15.5.8-.3.85-.2.25-.2m5-.1.95.6.5.65L9.5 8.45M9.7 11l-.2.7.2.65q-2.25-1.75-5.15-2-.6.15-.4-.5l.2-.65.85.15q.55.6 1.4.5l.5-.1.3.1-.2 1 .3-.95.3.1q0 .4.55.7l1.25.25.1.05m1.5-8.25-.3.65.3-.65m1 3.9q.95-1.15 1.15-2.55l.1-.75 2.15.25-1.75 3.5-1.25-.35h-.1l-.3-.1m0 6.8-.85.25-.55-.5-1.05-1.1.5-.7.25.2q0 .45.6.9l.65.45.4.5h.05m-.5-3.3q1.3.5 2.1 2.4l-.05.1-2.05-2.5m.9 3.75.45.45 1.4.7q.55.25.35-.35l.4.8-2.05.85-1.85-2.55 1-.2.3.3m.6 2.8-.05-.15q1.1-.05 2.05-.55l.6.55-2.2 1-.25-.3v.05h-.15l-.25-.3.2-.15.05-.05v-.1"/><path fill="#4d351e" d="m17.85 12.6.6 1.9.45 1.95-.55.9-2.4-.15q.35-.7.05-1.5-1.1-2.75-3.15-4.95-1.8-1.9-4.25-2.85L6.3 7l-.2-.1-.05.05-.9-.3Q5.1 6.55 5 6.6l.15-1 .4-.35q.75-.6 1.8-.5l.8.35.7.35 5.35 3.2L16 10.1l.5.6.5.8.85 1.1m-8-7.7-.15-.05.4-.5-.25.55m-3.65.55-.35.35q2.65 1.1 5.2 2.9 2 1.4 3.3 3.7L16 15.55l.65 1q.7.25 1.45-.3l.2-.25q-.05-1.25-.8-2.25l-2.95-3.8-3.3-2.6q-2-1.5-4.3-1.8l-.75-.1m8.6 12.25h-.1l.1-.05v.05m-1.6.5-3.6.6-3.4-.1q-2.95.05-5.15-1.85-1.2-1.1-1-2.55.25-2.05 1.15-3.7l4.75 1.05q1.5.4 2.85 1.3 1.3.85 2.2 2.15 1 1.35 1.85 2.85l.35.25m-9-9.1.15.1-.2.65h-.1l.15-.75m4.45-.5.2.1-.75.55-.6.65-.3.95.2-1L8.65 8.6m-5.8 4.95-.05.65.45.3q.55.25.6-.1 0-.35-.3-.6l-.7-.25M1.2 13.2l-.25.25q-.2.35 0 .8l.25.05q.5.05.55-.45l-.05-.2-.5-.45m.4 1.9-.1-.2-.2-.1-.2-.2q-.55.3-.2 1H1l1-.1-.4-.4m.95.2.15.55q.35.5.9.25l.1-.85-.25-.25-.8.1-.1.2m3.05.05-.4-.6-.1.15-.1-.1-.15.1.05.15-.3.35-.1.25 1 .2.3-.2-.05-.05h.1l-.25-.25m-.75 1.55.2.5.45.2.45-.2.2-.5-.2-.5-.45-.2-.45.2-.2.5m-.6.5.15-.05-.65-.85-.7.55 1.2.35m-1.85-.7-.35-.85q-.6.25-.05.75l.4.1m10.95.6-.2.1.05-.1h.15m-.2-.45.05-.15v.1l-.05.05m-2.9.9q-.4-.7-1.1-.6l-.05.1.3.85.85-.35m-2.3-.55q-.2 0-.35.15l-.15.35.15.35.35.15.35-.15.15-.35q0-.2-.15-.35-.15-.15-.35-.15m-1.45-.7q-.3.65.6.7.75 0 .05-.6l-.3-.3-.35.2"/><path fill="#4f7b63" d="m8.25 5 .25-.3h.05v.15l.15-.05.6.45-.2.2L8.25 5m3.8 1.6-.15.2q-1.3-.4-2.2-1l-.35-.2.15-.2 2.55 1.2m2.15 2.05L13.5 8l.6-.85 1.05.15 1.2 2.05-.35.75-1.8-1.45m2.3 2.05.5-.9v1.7l-.5-.8M6.45 7.1l-1.7 1.1-.15.1q-.6-.55-1.3 0l-.55.45H2.7l.3-.4 2.95-1.4.5.15M4.6 8.45l-.1.1-.25.2-.85.2 1.2-.65v.15m-.25.75 2.9-1.7L8.6 8l.5.25-.45.35L7.4 9.85l-.3-.1.15-.95q.05-.15.25-.2l-.05-.25q-.45-.45-1.4 0-.85.45-.85 1l-.85-.15m4.5-.5.65-.25 1.45 1.25.1.05H11L9.7 11l-.1-.05-.5-1.15.1-.1-.6-.5-.8.8-.3-.1.6-.65.75-.55m5-1.6-.65.75L11.9 7l.3-.35.3.1v.05l.1-.05 1.25.35m-1.7 6.35-.4-.5q0-.55-.35-.95-.4-.4-.9-.4l-.25-.2 1.45-1.25 2.05 2.5-.9.5-.7.3m.9.9q.1-.8-.4-.55l-.05.1-.3-.3 1.05-.3.65-.3.55 1.05.25.65q.2.6-.35.35l-1.4-.7"/><path fill="#741" d="m14.55 9.95 2.95 3.8q.75 1 .8 2.25l-.2.25q-.75.55-1.45.3l-.65-1-1.65-3.15q-1.3-2.3-3.3-3.7-2.55-1.8-5.2-2.9l.35-.35q1.5.8 3 1.75l4.1 2.95 3.6 3.25-2.35-3.45M6.3 7l.15.1-.5-.15h.1l.05-.05.2.1m5.9 6.45h-.05l.7-.3-.65.3m-9.35.1.3.6.7.25q-.05.35-.6.1l-.45-.3.05-.65M1.2 13.2v.25l.1.35.15.15.25-.3.05.2q-.05.5-.55.45l-.25-.05q-.2-.45 0-.8l.25-.25m.1 1.6-.2.1-.1.25.1.25.2.1.2-.1.1-.25v-.05l.4.4-1 .1H.9q-.35-.7.2-1l.2.2m1.35.3.8-.1.25.25-.1.85q-.55.25-.9-.25l-.15-.55q.45.7 1.05.1.05-.1-.05-.25l-.9-.05m2.45-.2.1-.15.4.6-.5-.45m.65.7.05.05-.3.2-1-.2.1-.25.3-.35.3.5.55.05M2.4 16.7l-.4-.1q-.55-.5.05-.75l.35.85m1.85.7-1.2-.35.7-.55.65.85-.15.05m.6-.5.2-.5.45-.2.45.2.2.5-.2.5-.45.2-.45-.2-.2-.5m3.1.3q.2 0 .35.15.15.15.15.35l-.15.35-.35.15-.35-.15-.15-.35.15-.35q.15-.15.35-.15m2.3.55-.85.35-.3-.85.05-.1q.7-.1 1.1.6M6.5 16.5q.05.6.6.25l.05-.15q.7.6-.05.6-.9-.05-.6-.7"/><path fill="#a2c4b0" d="M12.5 6.75h.1l-.1.05v-.05M8.7 4.8l-.15.05V4.7l.15.1M7.1 9.75l-.5.1q-.85.1-1.4-.5 0-.55.85-1 .95-.45 1.4 0l.05.25q-.2.05-.25.2l-.15.95m.7.25.8-.8.6.5-.1.1.5 1.15-1.25-.25q-.55-.3-.55-.7m3.95 2.95-.65-.45q-.6-.45-.6-.9.5 0 .9.4.35.4.35.95m1.3 1.4-.45-.45.05-.1q.5-.25.4.55M3.4 8.95l-.8.3.15-.5.55-.45q.7-.55 1.3 0l-1.2.65"/><path fill="#e49443" d="m14.55 9.95 2.35 3.45-3.6-3.25L9.2 7.2q-1.5-.95-3-1.75l.75.1q2.3.3 4.3 1.8l3.3 2.6M3.85 14.4l-.7-.25-.3-.6.7.25q.3.25.3.6m-2.15-.75-.25.3-.15-.15-.1-.35v-.25l.5.45m-.4 1.15.2.1.1.2v.05l-.1.25-.2.1-.2-.1-.1-.25.1-.25.2-.1m1.25.5.1-.2.9.05q.1.15.05.25-.6.6-1.05-.1m2.55-.4.5.45.25.25h-.1l-.55-.05-.3-.5-.05-.15.15-.1.1.1m2.05 1.7-.05.15q-.55.35-.6-.25l.35-.2.3.3"/></g></defs></svg>