<svg xmlns="http://www.w3.org/2000/svg" xmlns:xlink="http://www.w3.org/1999/xlink" width="36.05" height="38.3"><use xlink:href="#a" width="25.1" height="18.65" transform="translate(7.75 10.3)"/><defs><g id="a" fill-rule="evenodd"><path d="m21.9 1.8-2-.65Q15.6 0 11.15 1.2l-.15.05-1.1.55-1.5.15-.9 1.8-3.65 2.9 3.7.9q.45.2.95.45 2.15.95 3.15 2.9l.1.4-.3-.15-1.1-.9q-1.5-1.2-3.4-1.9l-.35-.1q-2.05-.85-4.05-.5L1.2 9.25q-.95 1.45-.4 3l.35 1.1 1.25.9q4.3 1.5 9 1.15l2.6-.35q3.05-.6 5.1-3l.65-.75q1.95-.6 3.45-1.95l.35-.65.2-1.4q.45-1.9 0-3.95-.15-.8-.95-1.35l-.9-.2M17.35.05l2.5.55 2.45.7q1.55.45 1.75 2l.3 3.8.5 1 .25 1.7q.1 2.45-2.2 3.4-.75.25-1.45.6-2.05 1.05-3.8 2.75-1.65 1.6-3.95 2.1l-6.8-.2-5.35-.9-.65-.6q-.95-1.15-.9-2.8v-2.1q-.1-2.7 1.75-4.25L3.9 6l2.05-1.7q.85-.7 1.3-1.6l.95-1.25 1.15-.2 1.7-.5q3-.9 6.3-.7m-2.45 17.4q3.6-1.15 6.25-4.2 1.6-.1 2.7-1.2 1.2-1.1.6-2.95-.5.6-1.15 1l-1.95 1.5-4.9 3.4q-1.55.9-3.45 1.15l-9.25-.55Q2.1 15.7 1 14.5l-.4-1.1q-.35 1.2.15 2.2l.75.85.1.25.95.15q3.85 1.3 8.05 1.3l2.1-.2.25-.05 1.95-.45"/><path fill="#8c023a" d="M21.2 2.3q-1-.75-2.3-.75l-.65-.05q-2.7.95-5.25-.1l-1.85-.2Q15.6 0 19.9 1.15l2 .65-.7.5"/><path fill="#5b0333" d="m11.15 1.2 1.85.2q2.55 1.05 5.25.1l.65.05q1.3 0 2.3.75l-.8.75-5.4.45-3-1.3-.45-.1-1.65-.3 1.1-.55.15-.05"/><path fill="#bcbcbc" d="m16.5 4.05 1.1.5-.05.25q-.65 1.95-2.2 3.45l-.45-.05.35-4.1 1.25-.05m-15 12.4-.75-.85q-.5-1-.15-2.2l.4 1.1q1.1 1.2 2.75 1.1l9.25.55q1.9-.25 3.45-1.15l4.9-3.4 1.95-1.5q.65-.4 1.15-1 .6 1.85-.6 2.95-1.1 1.1-2.7 1.2-2.65 3.05-6.25 4.2l1.85-1.4-2.85.7q-2.05.75-4.25.7l-2.75.25 5.8.25-2.1.2q-4.2 0-8.05-1.3l1.45.2-.5-.15q-1.2-.4-2.25-1.2l.25.75"/><path fill="#020200" d="M19.9 3.6v-.05l.05-.15-3.45.65-1.25.05-.35 4.1.2.6h.25l4.55-5.2M15 3.5l5.4-.45-.1.4-.25 1.5-.45.75q-1 1.5-2.55 2.45l-2.9 1.4V8l.05-.5.8-4"/><path fill="#f9f9f9" d="m9.9 1.8 1.65.3-1.6 2.2-2.45-.55.9-1.8 1.5-.15m10.5 1.25.8-.75-.9 1.15.1-.4m-.35 1.9 3.7 2.35-.2 1.4-.35.65q-1.5 1.35-3.45 1.95l-.65-1.05q-.95-1.2-2.05-2.1Q18.6 7.2 19.6 5.7l.45-.75M14 15.05l-2.6.35q-4.7.35-9-1.15l.5.1 1.9-3.1 4.3 3.2-.7.85h2.1l-1.4-.85 2.35-3.3.3.15L14 15.05M1.2 9.25l1.35-1.5q2-.35 4.05.5l.35.1-2.15 2.9-3.6-2m10.45 1.65q-1-1.95-3.15-2.9-.5-.25-.95-.45l2.4-3.15 4.25 3.1-.05.5-2.5 2.9"/><path fill="#424242" d="m21.2 2.3.7-.5.9.2q.8.55.95 1.35.45 2.05 0 3.95l-3.7-2.35.25-1.5.9-1.15m-9.65-.2.45.1 3 1.3-.8 4-4.25-3.1-2.4 3.15-3.7-.9 3.65-2.9 2.45.55 1.6-2.2m8.2 9.2-.65.75q-2.05 2.4-5.1 3l-2.25-3.75-.1-.4 2.5-2.9v1.55l2.9-1.4q1.1.9 2.05 2.1l.65 1.05M2.4 14.25l-1.25-.9-.35-1.1q-.55-1.55.4-3l3.6 2 2.15-2.9q1.9.7 3.4 1.9l1.1.9-2.35 3.3 1.4.85H8.4l.7-.85-4.3-3.2-1.9 3.1-.5-.1"/><path fill="#777" d="m16.5 4.05 3.45-.65-.05.15v.05l-4.55 5.2h-.25l-.2-.6.45.05q1.55-1.5 2.2-3.45l.05-.25-1.1-.5"/><path fill="#e5e5e5" d="m14.9 17.45-1.95.45-.25.05-5.8-.25 2.75-.25q2.2.05 4.25-.7l2.85-.7-1.85 1.4m-12.35-.6-.95-.15-.1-.25-.25-.75q1.05.8 2.25 1.2l.5.15-1.45-.2"/></g></defs></svg>