<svg xmlns="http://www.w3.org/2000/svg" xmlns:xlink="http://www.w3.org/1999/xlink" width="36.05" height="38.3"><use xlink:href="#a" width="18.75" height="19.5" transform="translate(14.9 10.55)"/><defs><g id="a" fill-rule="evenodd"><path d="M4.8 17.75q-3-2-4.25-4L0 12.05q.5-1 .5-1.5-.1-3.1.55-4.5 2-4.7 6.4-5.65 4.15-1 7.75 2.8L17 5.8q1.55 2.7 1.4 4.25-.2 1.65-.05 1.8.65.55.2 1.5-.7 1.65-4.25 4.2-2.7 1.85-4.65 1.95-2.1.05-4.85-1.75"/><path fill="#ba16d0" d="m17.3 10.9-.05-.05q.7.35.45 1.7-.15 1-1.4 2.25-1.95 1.95-4.15 2.9-1.7.75-2.55.75-4.65 0-8.1-5-1-1.4-.8-2 .2-.65 1.5.2 3.7 2.4 5.2 2.7 3.25.55 5.45-.7l2.6-1.8q1.6-1.2 1.85-.95"/><path fill="#fff" d="M9.6 17.6q-3.4 0-6.35-3.45L1.5 12.2q-1-1.9-.1-4.6 1.05-3.1 3.65-4.85Q7.7.9 10.8 1.3q3.1.45 5.25 4.6l1.25 3.05q.3.95.2 2.7 0 1.4-2.7 3.5-2.95 2.45-5.2 2.45"/><path fill="#020000" d="M13.95 4q2.1 1.75 2.15 4.6.05 2.4-4.8 3.3l-5.35-.3q-3.35-1.05-3.2-3.8.1-1.35 1.9-3.75Q6.1 2.1 9.35 2.3q2.7.1 4.6 1.7"/><path fill="#020000" d="M12.7.9q3.95 1.85 3.6 7.5l-8.1.9-5.15-.4q-.85-.15-.55-2.55.75-3.65 3.8-5.25l6.4-.2"/><path fill="#ccc" d="M8.25 1.1q3-.55 5.15 1.15Q16 4.1 15.45 8q-.35 1.05-2.85 2.7-2.6 1.8-3.3 1.7-.8-.1-4.75-3.05Q2.1 7.5 3.9 4.05 5.15 1.6 8.25 1.1"/><path fill="#030303" d="M9.05 13.65q-1.35-.1-4.8-3.15l-.85-2 2.7 1.85q1.4 1 2.45 1.05 2 .05 6.95-2.85-.35 1.1-3.1 3.15-2.65 2-3.35 1.95"/><path fill="#fff" d="M9.05 13.15Q7.7 13 4.25 9.95l-.85-2 2.7 1.9q1.4 1 2.45 1.05 2 .05 6.95-2.9-.35 1.1-3.1 3.2-2.65 2-3.35 1.95M14.3 2.1q1.2.8 1.65 2.25Q13 5.95 9.9 5.9L3.55 4.6l.35-1.2Q7-2.7 14.3 2.1"/><path fill="#fff" d="M15.55 5.75v1.4q-.1 1.35-6.3 1.6-1.85.15-6.2-2l.2-1.4q.2.5 2.65 1.3l3.45.9q1.3.2 6.2-1.8"/><path fill="#030303" d="m15.95 5.45 1.6 4.45-2 .05.4-4.5"/><path fill="#030303" d="m15.65 9.25.3 4.85-4.5.1v-2.35q2.75-.9 4.2-2.6m-5.95 8.4q-1.25-.05-3.2-1l.1-2.45h4.85l-.05 3-1.7.45M6.5 12.1l.1 2.1-4.5-1.05-1-1.7Q.5 10.1 1 9.65l2.6-.9 2.9 3.35M2.6 7.05l-1.4-.1L2.8 4.1l.4.35-.6 2.6"/></g></defs></svg>