<svg xmlns="http://www.w3.org/2000/svg" xmlns:xlink="http://www.w3.org/1999/xlink" width="36.05" height="38.3"><use xlink:href="#a" width="23.8" height="19.2" transform="translate(7.95 10.6)"/><defs><g id="a" fill-rule="evenodd"><path fill="#020200" d="M20.8 14.6 15.15 18q-3 1.85-9.65.85l-3.35-.75q-1-.35-1.5-.85Q0 16.6 0 14.65q.25-3.45 1.5-3.45.45 0 .65.65 4 2.1 6.8 2.1 2.6.05 5.9-1.15l5.75-2.05q1.9-.45 2.15-1.35l.2-1.65.35.4q.4.65.4 1.4.2 1.3-.1 2.5-.2.95-2.8 2.55"/><path fill="#020200" d="m20.2 14.7-5.45 3.45Q12 19.7 4.2 18.35.9 17.85.65 16.7q-.6-2.1 0-3.25l22.3-4.8q1.2 3.65-2.75 6.05"/><path fill="#f9f4f4" d="M20.25 14.05Q18.4 15.1 14.8 17.5q-2.85 1.55-10.5.2-3.35-.5-3.65-1.65-.55-2.2.05-3.25L23 8q1.25 3.65-2.75 6.05"/><path fill="#c60537" d="m20.15 13-5.65 3.35q-2.75 1.6-10.35.25-2.95-.55-3.3-1.75-.6-2.3 0-3.4L22.1 7.3q2.8 3.55-1.95 5.7"/><path fill="#fff" d="M12.35 13q-3.2 1.1-7.1-.55-1.75-.85-.9-3.6l7.4-5.7q1.5.75 6.25 1.4.95.15 4.15-.9 1.5 5 .45 6-1.15 1.15-2.6.85-2.35-.55-3.25.3-.75.8-4.4 2.2"/><path fill="#020200" d="M22.5 2.05q.45.95.45 6.8l-.3 1.05q-.55 1.15-2.65 1.95l-5.45 3.4-6.95.5q-5.65-.25-6.75-2.1-.55-3.05.35-4.2l4-2.55q5.4-3.5 5.6-4.4.05-.65 4.85 1.15 3.85.8 4.4-1.3Q20 .1 20.55 0q1.3-.1 1.95 2.05M18.05 9.4q.25.75.55.75.25.05.35-.65l-.9-.1-.5-1.95q-.65-2.7-1.1-2.75l-3.7-.7q-.75 0-1.6.95-.9 1.05-.3 1.9.65.85 3.55 2.4l1.5.85q.8-.8 2.15-.7m-11.8-.95q-2.7 2.35 1.65 3.8l6.6-.65.85-.85-9.1-2.3"/></g></defs></svg>