<svg xmlns="http://www.w3.org/2000/svg" xmlns:xlink="http://www.w3.org/1999/xlink" width="36.05" height="38.3"><use xlink:href="#a" width="20" height="15.5" transform="translate(12.95 12.7)"/><defs><g id="a" fill-rule="evenodd"><path fill="#371200" d="m17.15 2.2-.95-.5-2.6-.65-2.05.05-.7.05-.3.05-2.95.35-.2.05.1.05-1.75-.4-.45-.15.15.35q.3.75.95 1.2l.2.15-.05.05h.15l.15.1.05-.05.05.05.35-.1.25-.05h.15l.05-.05L13.5 3l1.8.4.4.1.15-.05.2-.05.05-.1.3-.15.35-.2.45-.3.1-.1h.25V2.5l-.1-.05.1-.25h-.4m1.55-.15-.05.05-.95 1.2q1.05 1.35 1.8 3.25.85 2.3.3 4.65l-.45 1q.8 1.95-2.5 2.65-7.55 1.55-14.9-.6-1.75-.5-1.1-1.7-1.15-.9-.75-2.7 1.1-4.8 4.3-7.55Q3.45.85 3.9 0l4 .15L15 .8l2.05.3 1.8.6-.15.3v.05m-1.5 7.3q-1.1.7-3.35.5l-5.2-.7-3.15-.5-.35-.3-1.7-.45q-.85-.25-.55-1.15.65-2.2 2.2-3.5l-.05-.05-.1-.1Q2.4 4.55 1.4 7.5.85 9.15.7 10.9q.45.7 1.25.9 6.85 1.5 13.95.75 1-.15 1.7-.8 3.4-3.05 0-7.15l-.3-.35-.5-.6-.25-.05q1 .6 1.4 2.35l.15 1.75-.9 1.65M12.55 8.2h1.2l3.3-.25.15-.05.3-.15.05-.1.05-.4q.05-.95-.55-1.6l-.6-.45-.2-.1-.55-.4-.4-.25-.7-.35h-.85l-5.9-.3-1.1.1-1.1.35-.75.45.25.05Q4 5.9 3.6 7.4l.45-.1v.05h.1L5.1 8l2.4.2.4.05h.3l2.25.1 1.25-.1h.35l.5-.05M9.5 6.4l-3.05-.6-.05-.25.05-.05v-.05l.75-.55h.05q4.8-.7 7.95.85.3.1-.15.25l-2.3.35-3.25.05m9.4 6.75.25-.25-.1-.1-.55-.3-.35.2q-7.8 1.75-15 .65l-.75-.15h-.25l-.75-.15q1.1.85 2.65 1.2 6.25 1.35 12.65.3 2.5-.4 2.2-1.4"/><path fill="#a95101" d="m7.5 1.65-.1-.05.2-.05 2.95-.35.3-.05.7-.05 2.05-.05 2.6.65.95.5.3.25.1.05v.05h-.75q.1.25-.3.15l-.75-.2-.8-.05-.85-.05-6.4-.75h-.2m9.7 7.7.9-1.65.35-.75q1.45 3.2-2 3.8l-.55.25 1.3-1.65M15 11.2q-4.2.5-8-.2h.25l7.75.15v.05m3.15 1.5.35-.2.55.3.1.1-.25.25q-1.7 1.5-4.05.65 1.75-.3 3.3-1.1m-15.95.5h.2l.75.15 3 .75q-2.15.4-3.85-.85h-.05l-.05-.05m.55-6.65q.1 1.9 1.05 3.5l-.05.05Q.8 9.9 2.55 6.75l.2-.2"/><path fill="#64350b" d="M17.15 2.2h.4l-.1.25-.3-.25m.15.35-.1.1-.45.3-.35.2-.3.15-.05.1-.2.05-.15.05-.4-.1-1.8-.4-5.75-.25-.05.05h-.15l-.25.05-.35.1-.05-.05-.05.05-.15-.1-.1-.05-.2-.15q-.65-.45-.95-1.2L5.3 1.1l.45.15 1.75.4h.2l6.4.75.85.05.8.05.75.2q.4.1.3-.15h.5m.8 5.15-.15-1.75q-.4-1.75-1.4-2.35l.25.05.5.6.3.35q3.4 4.1 0 7.15-.7.65-1.7.8-7.1.75-13.95-.75-.8-.2-1.25-.9.15-1.75.7-3.4 1-2.95 3.55-4.4l.1.1.05.05q-1.55 1.3-2.2 3.5-.3.9.55 1.15l1.7.45.35.3 3.15.5 5.2.7q2.25.2 3.35-.5L15.9 11l.55-.25q3.45-.6 2-3.8l-.35.75M15 11.2v-.05L7.25 11H7q3.8.7 8 .2m3.9 1.95q.3 1-2.2 1.4-6.4 1.05-12.65-.3-1.55-.35-2.65-1.2l.75.15h.05l.05.05-.1-.05.05.15.1-.1q1.7 1.25 3.85.85l-3-.75q7.2 1.1 15-.65-1.55.8-3.3 1.1 2.35.85 4.05-.65M2.75 6.55l-.2.2Q.8 9.9 3.75 10.1l.05-.05q-.95-1.6-1.05-3.5"/><path fill="#96c4c7" d="M6.7 2.85h-.15l.05-.05.1.05"/><path fill="#c47500" d="m16.25 5.1.2.1.6.45q.6.65.55 1.6l-.05.4-.05.1-.3.15-.15.05-3.3.25H12.4l-.35.05h-.35l-1.25.1-2.25-.1h-.3l-.3-.05h-.1L5.1 8l-.95-.65h-.1V7.3l-.45.1Q4 5.9 5.15 4.75L4.9 4.7l.75-.45 1.1-.35 1.1-.1 5.9.3q.15.95 1.85 1.7l-.1.4q-.1.15-.05.35l-2.7-.2 2.3-.35q.45-.15.15-.25-3.15-1.55-7.95-.85H7.2l.1-.15-.05-.1-.2-.2-.5-.1-.4.1-.25.1q-.6.25-.55.85l.05.05.25.05.8-.05v.05l-.05.05.05.25 3.05.6-3.65.4-.4.05.15.2h.2q5.95 1 10.75-.1l.4-.1-.05-.05-.4-.25-.2-.05.1-.2.1-.25q.15-.5-.25-.95m-1.9-1h.25l.7.35-.95-.35"/><path fill="#ffbe46" d="M16.25 5.1q.4.45.25.95l-.1.25-.1.2.2.05.4.25.05.05-.4.1q-4.8 1.1-10.75.1h-.2l-.15-.2.4-.05 3.65-.4 3.25-.05 2.7.2q-.05-.2.05-.35l.1-.4q-1.7-.75-1.85-1.7h.6l.95.35.4.25.55.4m-9.8.35-.8.05-.25-.05-.05-.05q-.05-.6.55-.85l.25-.1.4-.1.5.1.2.2.05.1-.1.15-.75.55"/></g></defs></svg>