<svg xmlns="http://www.w3.org/2000/svg" xmlns:xlink="http://www.w3.org/1999/xlink" width="80.15" height="65.4"><use xlink:href="#a" width="33.2" height="34.2" transform="translate(14.65 25.2)"/><defs><g id="a" fill-rule="evenodd"><path fill="#282a2e" d="M6.45 6.55 8.9 5.3Q11.7 4 13.4 4q2.65 0 3.15 1.4l-.35 4.35L5.55 14.5l-3.4-6.75V3.5l.8-3.5 1.5 4.5 2 2.05"/><path fill="#282a2e" d="M16.95 4.7q.9-.7 2.55-.7 2.65 0 6.9 2.55l.45-.4L28.4 4.5 29.9.05 32.15 3l-1.4 4.75-3.4 6.75-10.7-4.75-.3-4.35.6-.7"/><path d="M25.45 11.85q3.8-3.5 4.35-5.75l.4-5.25 2.45 2.75q.55 1.3.55 4.15 0 1.75-1.15 3.65l.6 3.5q0 1.95-1.6 3.2l-.4 3.4q-.5 1.25-2.75 1.8l-1.15 2.8q-1.2 1.9-4 1.8l-.45 1.7q-.55 1-2.35 1.45l.85.2q.35 2.3-1.5 2.8-2.75.75-4.4-1.75l-1.15-2.7q-1.25-.05-3-.95-1.05-.55-1.55-1.7l-.25-1.05q-1.55-.4-2.8-1.15-1.6-1-1.9-2.4l.05-1.25q-.85.55-2.6-1.8Q.6 17.8.65 15l.3-2.5-.8-4.1q-.5-2.5.55-4.75L2.95 0l.75 5.25q.95 5.5 2 6.8 1.3 1.65 4.9 2.9 3.85 1.35 7.35 1.1 3.3-.25 7.5-4.2"/><path fill="#c4cfdc" d="M27.35 8.15q.9-.3 1.7-1.5l.85-1.25q.9-.45.65 2.8-.15 1.6 0 3.3.15 2.35-.2 5.2l-.95 4.6q-1.55 1.45-2.85 1.35v1.85q-.2.55-1.2 1.3-1.4 1.3-3.3 1.35-.1 1.8-.85 2.35l-1.05.75-1.15.3-.35.75-.1.6q1.2 0 1.3-.35.1 1.5-.4 1.75-1.6.85-3.05-.7-1.15-1.2-1.65-2.7-.45-1.1-1.25-1.2-3.8-.55-3.8-3.45-1.9.05-3.55-1.7-.85-.85-.95-2.05l.1-1.05q-2.25.1-2.9-2.65-.45-1.8-.35-4.45l.05-3.9-.5-2.5q-.3-2.25.2-2.55l.15-.6L4.7 6q.55.35 1.4 1.6.7 1 1.35 1.15 2.05.5 6.35.05l7.85.2 5.7-.85"/><path fill="#c4cfdc" d="m28.05 6.3 1.65-1.75.5-3.3.9 1.4q.9 1.65.95 2.85.2 3.75-1.75 8-1.65 3.55-2.85.55l.7-4.8L26.2 9l1.85-2.7m-22 2.3L4.8 8.25l.75 5.8q-.5 2.65-2.85-.55-1.9-2.7-1.75-8Q1 4.3 1.9 2.65l.9-1.4.65 4.5q.25 1.8 2.6 2.85"/><path fill="#c4cfdc" d="M17.2 5.65q.85-.65 1.7-.6 2.95.05 5.65 1.45 1.75.85 2.8 2.15-.1 1.85-1.9 2.15l-7.25-.7.05.05h-3.7l.05-.05-7.45.9q-1.1-.2-1.6-1.2l-.25-.95L8.5 6.6q3.85-1.45 5.45-1.5 1.3 0 2.35 1.2h.2l.7-.65m14.3 7.05q.65 1.9.2 3.05-.65 1.8-2.5 2.55l-.5-4.4 2.1-2.9.7 1.7"/><path fill="#8d959e" d="M26.7 12.75q1.2.15 1.8-1 .45-1 .25-2.1-.05-.6.15-.85l1.05-.65q1-1.65 1-2.65l-.75-4.25 1.95 3.55q.25.9-.6 4.95-.4 1.8-.4 5.5-.3 1.25-2.15 2.85-.3.7-.3 2.1-.35.7-1.35 1.05H26q-.5-.05-.75.7l-.1 2.05q0 1.15-.85 1.8l-1.8.5-1.5.1q-.05 1.5-1.65 3.35-1.75 2.1.6 2.05.2.95-.25 1.6l-1.85-.1q-.65-.35-1.3-1.8-.35-2.35-.65-3.5-1.05-1.5-.95-2.15l2.6.2Q19 25.6 18.8 24.4q2.2.45 3.15-.4.8-.75.9-1.7l-.3-1.3h1.8q.95-.05 1.6-.7 1.6-1.55.1-2.95 1.6.2 1.75-2.2.05-.65-.45-1.25l-.65-1.15"/><path fill="#8d959e" d="M18.25 27.2q-.3 2.4-2.1 3.05-.35-1.7-1.45-2.1h1q-2.15-.05-3.15-.85-1.2-.85-1.5-2.8-1.1-.05-2.35-1.3l-.95-1 .05-1.45q-1.85-.75-2.65-2.1l3.45.45q-.55.95 0 1.65.55.65 1.6.6l.4 2 2.35.3q-.3 2.15 3.15 2 1.3-1.15 1.35-1.95 1.15 1.4.8 3.5"/><path fill="#585b62" d="m17.9 10.6-1.2-1.3 1.35.85q1.6.85 3 .7 2.25-.2 3.35-1.45-.8 2.15-3.4 2.35-1.6.15-3.1-1.15"/><path fill="#585b62" d="m22.65 10.9 1.5-1.3 2.15.05 3.05.15q-.75.6-2.25.7l-2.25-.35-2.2.75M16.5 9.3q-1.75 2.7-4.3 2.45-1.6-.1-2.65-1.25L8.8 9.4l.85.65q1.1.7 2.5.8 2.25.2 4.35-1.55"/><path fill="#585b62" d="M10.55 10.9q-1.5-.75-2.2-.75l-2.25.35-2.2-.7 3-.15 2.15-.05q.75.35 1.5 1.3"/><path fill="#7e848e" d="m19.1 16.55-2.2-.45q-.35.65-2.4.7-.85.05-1.9-1.1l-.9-1.15 1.9 1q1.05 0 1.8-.8l.2.4q.3.35.95.35 1 0 1.65-1l.1.4 1.3.35q1.5 0 2.3-1.1-1.4 2.4-2.8 2.4"/><path fill="#fdfdfd" d="M3.2 6.9q-.8-.95-1.4-.75-.55.2-.5 2.05l.15 1.8Q.7 7.25 1.2 4.4l1.6-3.15.5 3.4 1.75 1.6q.85.5 1.15 1.8L3.9 7.9l-.7-1"/><path fill="#fdfdfd" d="M5.95 8 9.4 6.1q2.65-1.05 4.85-1.05 1.95 0 1.2 2.7-1.15 1.1-3.5 1.3l-2.65-.4-.9-.6L5.95 8M17.7 5.65q1.2-.7 3.5-.4 2.3.25 4.45 2.15l-1.7.1q-1.1 0-2.95.85l-2.45.25q-1.5-.25-1.75-1.25-.25-1.1.9-1.7m9 2.25 1.6-2.1 1.25-1 .65-3.55.2 4.25q-.2 1.3-1.2 2.15l-1.25.75-1.25-.5m-9.05 3.9 4.15.75q-.85 1-2.35 1l-1.65-.4q-.65.75-1.35.75l-.75-.4q-1.3.75-2.3.9-.6.1-1.3-.75l-.55-.85h1.4q.85 0 2.1-.75l2.6-.25M8.5 13.25q.1 2.05.45 2.5l2.15 1.7q-3.8.4-3.75-1.2Q4.45 16.1 4.6 15l-1.45-.05q.2-1.35.1-2.05-1.3.1-1.1-3.5 2.55 1.35 4.95 1.5-.35.3-.35 1.95l1.75.4"/><path fill="#fdfdfd" d="M20.2 22.2q-1.65 1.4-2.9-.15-.6.8-1.9.7-1.4-.15-1.3-1.35-.65 1.1-1.9.35-.4-.25-.5-1.75l-1.65-.1q-.4-.2-.4-1 0-.9-.15-1.15l-.7-1.25q1.05.25 2.9 1.05v.1q1 1.15 2.6.5 1.05 1.4 3.3 1.5l3.8.05q.1 1.5-1.2 2.5"/><path fill="#fdfdfd" d="m25.55 14.15.1.75q.9.15-2.35 3.25-.05 1-.4 1.25l-1.35.2q0 1.8-1.5 1.8l-1.5.1q-1.3.55-2.65-.5-1.35-1-1.25-2.4 1.65.9 2.15.9.55-.05 2-1.05.6.7 1.35.1l1.15-1.05q1 0 1.55-.5.8-.7.7-1.6 1-.05 2-1.25"/></g></defs></svg>