<svg xmlns="http://www.w3.org/2000/svg" xmlns:xlink="http://www.w3.org/1999/xlink" width="80.15" height="65.4"><use xlink:href="#a" width="30.15" height="18.5" transform="translate(18.15 32.35)"/><defs><g id="a" fill-rule="evenodd"><path fill="#2b0302" d="m29.9 0 .25 2-.95 2.8q-1.45 3.1-3.9 4.7l-8.75 5.35-1.15 1.35q-3.4 2.45-6.25 2.3-1.2-.05-1.75-.5l-.35-.5q-1.6.25-3.75-.05-1.45-.2-2.5-1.1-.9-.8-.8-1.45.1-.55 1.1-1.15l.95-.5L4.7 12.2l.5-1.05q.1-.75 2-1.9t3.55-1.45l3.45.2 15.7-8"/><path fill="#4f270c" d="m29.45.85-.2 2.25q-1 2.9-3.4 4.9-2.35 2-9.3 5.85-3.45 1.95-6.6 2.5l-4.85.35q-2.3.15-3.45-.9L.9 14.75q9.65-3.95 14.75-6.45Q20.8 5.8 29.45.85"/><path fill="#2b0302" d="m14.3 11.05 1.25 1.2 1.25 2.05-2.25 1.5.1-.35.6-1.4-.95-3"/><path fill="#d4e2e4" d="M15.5 14.65q-.5.85-3.15 2.05-2.8 1.25-3.8.75-1.15-.55-2.1-2.65-1-2.15-.45-3.45.3-.75 2.95-1.75 2.55-1 3.5-.95.9.05 2.2 2.65 1.25 2.6.85 3.35"/><path fill="#4f270c" d="M7.45 12.3q.25-.4 2.25-1.3 2-.85 2.5-.85.45.05 1.1 1.85.7 1.75.45 2.15-.2.35-2.15 1.05l-2.45.45q-.45-.2-1.15-1.6-.75-1.4-.55-1.75"/><path fill="#d4e2e4" d="M14.05 12.55 10.45 14l-.4-.8 3.45-1.9.55 1.25"/><path fill="#8a591d" d="m.9 14.75 4.85-2 .2 1.1-3.8 1.2-1.25-.3M27.5 3.2 18 8.35 14.25 10l-.7-.7 8-3.95q2.5-1.25 7.9-4.5L27.5 3.2"/><path fill="#f7ffff" d="M5.9 13q-.15-1.35.45-2Q8 9.35 10.95 8.8q1.1-.2 1.75 0l.6.4q-2.45.2-3.9.8-2.4 1-3.5 3m7.85.4.8 1-1 .95q-1.65.95-4.1 1.15-.85.05-1-.75l.05-.8 1.15.5q1 0 3.3-1.1.95-.45.8-.95m.2-2.5.15.65-3.95 1.9-.3-.5 4.1-2.05"/><path fill="#59777b" d="m13.55 12.7 1.1-.3-.9 1.3-.2-1"/><path d="m7.95 13.85-.5-1.55 2.25-1.2 2.5-.95q.45.1.7.9l-.4-.1h-1.25l-2.7 1.25-.6 1.65"/></g></defs></svg>