<svg xmlns="http://www.w3.org/2000/svg" xmlns:xlink="http://www.w3.org/1999/xlink" width="80.15" height="65.4"><use xlink:href="#a" width="7.85" height="23.95" transform="translate(40.2 25.45)"/><defs><g id="a" fill-rule="evenodd"><path fill="#001751" d="M3.85 18H5.4q.7 2.5 1.95 3 .5.2.5 1-.25 1.5-1.5 1.95l-2-.25Q1.6 22 1.1 18h1.55q.45 3 2.5 4.5l.7.25.25-.75q-1.5-1.5-2.25-4"/><path fill="#003272" d="M3.85 3 4.1.75q0-.25.5-.75l1 .25q2 2.5 1.25 5-2.5 8-1.45 12.75H3.85l-.25-3q0-4.25 2-10.2v-.55L5.4 3v.5Q1.85 14 2.65 18H1.1Q.6 13.25 3.85 3"/><path fill="#003272" d="M1.85 11.25q4-1.25 4 2.5 0 1.75-3.7 1.75-.8-.25-1.8-1.75-.45-.75 1.5-2.5"/><path fill="#5c83bc" d="M4.6 18H1.85q-.5-5.25 2.75-14.75l.25-2.5q2 2.25 1.5 4.3Q3.6 13 4.6 18"/><path fill="#144f9e" d="M4.6 18q.8 3 2.5 3.75Q6.6 24.2 4.6 23q-2.2-1.25-2.75-5H4.6"/><path fill="red" d="M4.85 7q-2 5.25-.75 11h-1q-.95-6 .75-11.5L5.4 2.75q.7.25.7 1L4.85 7"/><path fill="#5d0000" d="m4.6 20.25 2 2-.75.5q-1.25 0-2-2.25L3.1 18h1l.5 2.25"/><path fill="#00286f" d="M5.4 12.25q-.55-.5-2.55-.5-2-.25-1.5 2.75l3.25.5q1.25 0 .8-2.75m-2.75-2q3.7.25 3.95 1Q6.85 16 4.85 16l-4.7-.5q-.25-1.75 0-3 .7-2.5 2.5-2.25"/><path fill="#001751" d="M5.4 14q.2-.5.95-.25 0 .75-.75 1.95-1 .8-2.95.3 0-1 .95-1l1.25-.25.55-.75"/><path fill="#144f9e" d="M.6 11.5q.75-2 3.5-1l-.75 1q-.95-.75-1.5.25-.5.75-1.25-.25"/></g></defs></svg>