<svg xmlns="http://www.w3.org/2000/svg" xmlns:xlink="http://www.w3.org/1999/xlink" width="80.15" height="65.4"><g transform="translate(31.6 13.8)"><use xlink:href="#a" width="16.8" height="17.5" transform="translate(-8.45 15.65)"/><use xlink:href="#b" width="4.25" height="4.35" transform="translate(-6.45 30)"/></g><defs><g id="a"><path fill="#422100" fill-rule="evenodd" d="M14.65 12.4q-.3-2.25-1.1-4.5 2.3-2.65 1.65-3.95Q14.3 2 12.65 1.1l-2.7.05Q10.5.8 11.3.6q1.8-.45 4.4 2.25 1.55 1.55-1.2 5.05.7 2 .65 4l-.5.5m-5.9 3.15-.6 1.2-1.2.2 2.15-6.1q.45 3.3-.9 4.4l.55.3m4.2-6.15q-1 2.1-.7 4.55l-.9.9q.1-7.55 1.6-5.45"/><path fill="#592d00" fill-rule="evenodd" d="m9.95 1.15 2.7-.05q1.65.9 2.55 2.85.65 1.3-1.65 3.95.8 2.25 1.1 4.5l-1.15.1q-.1-2.6-.55-3.15v.05q-1.5-2.1-1.6 5.45l-1.25-.1-.5.85-.8-.05h-.05l-.55-.3q1.35-1.1.9-4.4l-2.15 6.1-.55-.35q1.05-3 .7-6.35-1.85 1.45-1.8 5.15l-1 .05-.05-.05q-.6-.2-.85-.8l.1-1.5q-1 .25-1.75 0 .2-2.95 1.8-5.2-1.9-1.9-2-3.05-.15-1.2 1.4-3.15 1.5-2 4.7-.05l.25.25.8.35q.35-.65 1.25-1.1M4.4 9.8q-.5 3.5-.15 5.6-.35-2.1.15-5.6m4.05-7.05.1-.2-.3-.05.05.2q-1.45-1-3.7-1-1.5.85-1.95 2.7-.2 2.2 4.15 4l1.55-.95 1.6 1q4.35-1.8 4.15-4-.45-1.85-1.95-2.7-2.25 0-3.7 1"/><path fill="#c60" fill-rule="evenodd" d="M7.65 1.65q-3.2-1.95-4.7.05-1.55 1.95-1.4 3.15.1 1.15 2 3.05-1.6 2.25-1.8 5.2l-.65-.35Q1.25 10 2.65 8-.5 4.35 1.05 2.8 3.65.1 5.45.55q1.45.4 2.2 1.1"/><path fill="none" stroke="#422100" stroke-linecap="round" stroke-linejoin="round" stroke-width=".25" d="m9.95 1.15 2.7-.05q1.65.9 2.55 2.85.65 1.3-1.65 3.95.8 2.25 1.1 4.5M8.8 15.55h-.05l-.55-.3m3.15-.4q.1-7.55 1.6-5.45m-6 7.55 2.15-6.1"/><path fill="none" stroke="#c60" stroke-linecap="round" stroke-linejoin="round" stroke-width=".25" d="M7.65 1.65q-3.2-1.95-4.7.05-1.55 1.95-1.4 3.15.1 1.15 2 3.05-1.6 2.25-1.8 5.2m2.5 2.3q-.35-2.1.15-5.6m-.1 5.65-.05-.05m4.85-4.55q.45 3.3-.9 4.4"/><path fill="#351b00" fill-rule="evenodd" d="m2.95 13.05.1.35.35.2.35-.1.2-.35.75-4.1q-1.5 1.85-1.75 4m7.3 2.2.55-1.15q.4-1.05.15-4.55-.5 3.45-1.05 4.6-.55 1.1-.4 1.05h.35l.4.05m-1.8-.2q1.25-1.8.5-4.95-.3 2.9-1.3 4.4l-.1.35.2.3.4.1.3-.2"/><path fill="#351b00" fill-rule="evenodd" d="M12 2.25q1.2.75 1.6 2.25.05 1.8-3.6 3.4l-1.65-.95-1.6.9q-3.65-1.6-3.6-3.4.4-1.5 1.55-2.25 2 0 3.65 1.05 1.7-1 3.65-1m3.1 6-.1-.2q2.95-3.8 1.05-5.55Q13.2-.45 11.15.15q-2 .55-2.75 1.6Q7.65.65 5.55.1 3.55-.5.7 2.45-1.2 4.2 2.2 7.8.7 10.45.6 12.75l.05.25.15.15q.95.7 2.05.5l.05.95v.2q.5 1.5 2.5 1.1l.3-.15.1-.35q-.05-2.55 1-4.55-.05 3.2-.9 5.6v.25l.15.25q.95 1 2.3.25l.25-.2.4-.9.25.05.45-.05.2-.1.1-.15.3-.45q1.35.45 2.35-1.15l.1-.35q-.2-1.55.1-3.95l.15 2.6.1.25.2.2q1.25.5 2.25-.8l.1-.25q.05-1.85-.55-3.7m-2.7-6.9-.25-.1q-.85 0-3.75 1.25Q10.75.7 12 .65q1.3-.1 2.9 1.9 1.65 1.95.35 3.6l-1.05 1.4.45 4.15-.7.4q-.1-2.5-1.25-3.3-1.2 2.75-1 5.05-.6.8-1.4.45h-.35l-.3.2-.4.65-.2.05-.1-.1-.3-.4.1.2-.3-.4q-.1-.2-.3-.2l-.35.05-.25.3.05.35.35.5.15.15-.35.75-.9-.05q1.1-2.9.35-6.6h-.1q-2.25 1.55-2.3 5.2-.65 0-.9-.45v-2.35l-.15.75-.15-.3-.25-.15-1.75.05q.15-2.15 1.1-3.85l.25-.95-1.3-1.6Q.2 4.4 1.8 2.5 3.4.55 4.65.65 5.9.7 8.4 2.5 5.45 1.2 4.6 1.2l-.25.1q-1.7.9-2.2 3v.05q-.35 2.5 4.45 4.5l.2.05.25-.05 1.3-1.2 1.3 1.25.25.05.25-.05q4.8-2 4.45-4.5l-.05-.05q-.45-2.1-2.15-3"/></g><g id="c" fill-rule="evenodd"><path d="m3.35.55.6-.05.1.2h.05l.15 2.15-.05.1-.15.45v.1l-.25.25-.2.1-.05.05q-1.85.95-3-.2l-.1-.15-.2-.2q-.3-.4-.2-.7V1L.7 0h.05l.35.1q1.25.45 2.25.45"/><path fill="#360" d="M.85.85q1.2.8 2.55.55l-.1 1.55Q1.9 3.5.75 2.7L.85.85"/><path fill="#214200" d="M.55.65.65.5l.1-.05L.9.5l2.5.4.2-.05.15.15-.05 1.75-.1.35-.2.2-.15.05.05-.4.1-1.55Q2.05 1.65.85.85l-.3-.2"/><path fill="#509f00" d="M3.25 3.35.9 3.25.75 3.1l-.1-.15L.5 2.5V.9L.55.65l.3.2-.1 1.85q1.15.8 2.55.25l-.05.4"/><path fill="#fff" fill-opacity=".592" d="m1.95 1.05-.8-.1-.35 2.1v.1l.95.25.2-2.35"/></g><use xlink:href="#c" id="b" width="4.25" height="4.35"/></defs></svg>