<svg xmlns="http://www.w3.org/2000/svg" xmlns:xlink="http://www.w3.org/1999/xlink" width="80.15" height="65.4"><g transform="translate(31.6 13.8)"><use xlink:href="#a" width="22.25" height="21.4" transform="translate(-31.6 19.05)"/><use xlink:href="#a" width="22.25" height="21.4" transform="matrix(-1 0 0 1 32.1 19.05)"/></g><defs><use xlink:href="#b" id="a" width="22.25" height="21.4"/><g id="b" fill-rule="evenodd"><path fill="#58130c" d="m2.75 9.65-2-.1-.15-.7q1.65-4.2 5.1-6.7 3.5-2.5 7.15-2.1 7.6.8 9.4 12.1l-.2.55q-.25.25-.55.15l-1.35-.35.05.35q0 4.1-2.55 5.4l-.4.05h-.15l-.35-.15-.2-.15-.3-.35-1.05 1.2-1.45-.25q-.9 2.25-1.8 2.75l-.8.05q-.85-.65-1.85-.7-.55 0-.55-.55v-.95l-1.3.9q-.35.45-.7.15l-1.5-1.05q-.35-.25-.35-.65l.1-.3.15-.25-.8.35q-.4.1-.65-.25l-.1-.35.05-.3.2-1-.05-.95-.15.35-.7.1-1.35-1.2-.15-.4v-.1q.4-2.5 1.3-4.6"/><path fill="#e23725" d="M19.25 11.3q.4 1.05-.05 3.15-.5 2.15-1.4 2.85l-1.25-.2q1.05-1.05.7-3.25-1.35 4.3-2.2 3.9l-1.8-.35q-.05.75-.7 2-.6 1.2-.8 1.05-.75-.6-2.2-.7 0-1.15-.25-1.8-.65-.15-2.1 1.55-.75-.35-1.3-1.25.85-1.05.95-3.8-.55 2.35-2.3 2.9.25-.5-.05-1.85-.35-1.45.35-3.5-1 .6-1.3 2.7l-1-.8q.15-3.45 1.6-5.65L1.8 8.7q1.3-3.25 4.1-5.4 2.8-2.1 5.9-2.2 7.55-.15 9.35 10.55l-1.9-.35"/><path fill="#af3740" d="M5.1 10.4q.1-.6.7-.4L7 9.85q.55 2.15-.45 5.6l-.9 1.3q.55-1.35.15-3.15l-.7-3.2M3.85 8.75l1.25.05q-.1 2.25-.4 3.35-.9.65-1.15 2.55l-1-.8q.15-3 1.3-5.15m13.3-3.25-.6-2.85q3.55 2.65 4.6 9l-1.9-.35q.4 1.05-.05 3.15-.5 2.15-1.4 2.85l-1.25-.2q1.05-1.05.7-3.25-1.35 4.3-2.2 3.9l-1.8-.35q-.05.75-.7 2-.6 1.2-.8 1.05-.75-.6-2.2-.7 0-1.15-.25-1.8-.65-.15-2.1 1.55l-.55-.3q1.75-1.65 2.45-3.8.2-.6-.1-2.4-.25-1.55.25-2.3l.25 1.65.8-2.75.85-2 .05 2.35q0 1.5.35 2.25 1.65.75 2.15.2.45-.55.25-4.15L13.6 6.1q.95.95 1.75 3.4l.7 1.8q1.6-1.2 1.1-5.8"/><path fill="#58130c" d="m17.85 9.1 1.8-.45Q20.9 8.8 21.2 13q.15 1.7-.45 1.85l-2.25-.05q-.3-.3-.2-.6.5-2.35-.6-4.45-.25-.4.15-.65"/><path fill="#af3740" d="m17.25 9.15.55-.7q.75-.6 1.85.2.5.35.95 2.7.45 2.4 0 2.7l-1.7-.1q.35-3.25-1.65-4.8"/><path fill="#58130c" d="m12.35 7.8.3-.55q1.45-1.2 2.55-.75 1.6.65 2 4.25l.5 3.55q.05.35-.3.55l-1.75.35q-.2-.15-.45-.9-.7 2.35-1.75 3.1l-.3.1-1.8-.45-.25-.35v-.1l.1-.3q.85-1.05 1.35-3.35l-1.5 2.15q-.25.35-.65.1L9 14.35 8.75 14v-.05l.15-.35q2.4-2.5 3.45-5.8"/><path fill="#e23725" d="m12.35 9.65.6-2q2.1-1.75 3.15.55.5 1.15.65 2.75l.3 3.1q-1 .7-1 .45-.4-1.95-1.2-2.5.1 3.55-1.75 4.7l-1.05-.2Q13 15.3 13.3 13l.1-2.1-2.65 3.45-1.05-.6q1.75-1.85 2.65-4.1"/><path fill="#e23725" d="m12.8 11.55.05.05-2.1 2.75-1.05-.6q1.35-1.4 2.35-3.4l.75 1.2"/><path fill="#af3740" d="m13.1 16.7-1.05-.2.45-.7q1.1-1.05 2.2-3.25-.3 3.35-1.6 4.15m2.8-6.9h-1.6l-1.5 1.75-.75-1.2.9-2.7q2.7-2.25 3.65 2.15l.45 4.25q-1 .7-1 .45l-.35-.85.7-.3-.5-3.55"/><path fill="#58130c" d="M15.5 4.75q.5 1.35.5 2.5l-.1.85.85.1q-.25-2.1-1.25-3.45M12 2.45q1.25-.85 3.55.85 1.9 1.35 2.2 5l-.15.9-.65.05-1.65-.2q-.25 0-.4-.2l-.1-.3.05-.15.05-.4-1.25 2.3q-.2.25-.45.15l-.4-.25q-.6-1.3-1.55-2.2-.3-.3 0-.65 1.05-1.65.6-3.25-.4-1.3.15-1.65"/><path fill="#e23725" d="M11.85 2.7q-.75-1.1.5-1.05 1.25.05 2.85 1.3 1.7 1.35 2 5.35l-1.75-.05q.15-1.4-.25-2.65l-.45-.95q.2 2.6-1.3 4.75L11.8 7.45q1.5-2.6.05-4.75"/><path fill="#af3740" d="M12.3 7.9q1.6-.2 2.25-1.1-.35 1.55-1.1 2.6L12.3 7.9M17 6.5q.4 1.7.2 1.8L16 8.25q.85-.7 1-1.75"/><path fill="#58130c" d="M7.7 6.45q.75 1-.1 2.5-1 1.85-.4 3.95l-1.25.3-1.65-.05-.3-.3-.1-1.1.1-1.15-.5 1.3-.3.35h-.45l-2.3-.35-.4-.25L0 11.4l.05-.2q1.6-3.4 4-5.2.95-.65 2.1-.45 1.05.15 1.55.9"/><path fill="#e23725" d="M5.05 5.95q1.6-1.1 3.05-.5 1.5.6.25 2.05-2.5 1.6-1.85 4.6l-.7.25-.95-.05q-.75-2.45.7-3.9-1.3.55-2.15 1.75l-.65 1.1L1 11q1.2-3.15 4.05-5.05"/><path fill="#faafad" d="M12.35 2.6q1.55 1.3 1.25 3.3-.55 1.05-1.15 1.2.9-.85.7-2.6-.2-1.25-.8-1.9"/><path fill="#ef7d83" d="M14.45 3.5 14 2.85q1.9 1.3 2 3.55-.15 1.35-.5 1.75.6-2.3-1.05-4.65"/><path fill="#fde5e4" d="M2.9 8q1.2-1.35 2.85-2.35L3.5 8.1Q2.65 9.3 2.25 11l-1.2-.15Q1.3 10.05 2.9 8m2 2.15Q5.3 8.5 6.85 7.5q-1.65 1.65-.9 4.1l-.85.8q-.55-.9-.2-2.25"/><path fill="#faafad" d="m8.45 4.1.9-.2q-1.7.9-1.4 1.6-.7.4-1.75.85.45-1.5 2.25-2.25"/><path fill="#fde5e4" d="M10.45 1.5Q9.25 1.6 7.5 3L5.2 4.75l-1.85 1.7q2.7-4.6 7.1-4.95"/><path fill="#faafad" d="M10.85 1.8Q9.9 2.9 9 2.85q.85-1.1 1.85-1.05M7.5 14.75l.1-2.6q.65 3.15.4 4.1-.95 2.35-1.65 1.65.95-1.7 1.15-3.15m2-6.85q-.9 1.1-.95 2.3l-1.1.15.55-1.6L9.6 7.1l1.15-1.5Q10.5 6.65 9.5 7.9m2.75 2.2h.25l.4.25-1.35 2.3q-.9 1.55-1.75 1 1.45-2.45 2.45-3.55"/><path fill="#ef7d83" d="m16.25 13.1-.5.15q-.5-.75-1.15-3.15.6.75 1.65 3"/><path fill="#faafad" d="m13.45 11.6.3-.25.25.1q.1 1.6-1 4.7l-.55-.1q.6-.6.95-2.15.4-1.6.05-2.3M4.6 13.75q.45 0 .6 1.4 0 1.5-.4 1.9.15-.3-.15-1.4l-.05-1.9"/></g></defs></svg>