<svg xmlns="http://www.w3.org/2000/svg" xmlns:xlink="http://www.w3.org/1999/xlink" width="80.15" height="65.4"><g transform="translate(31.6 13.8)"><use xlink:href="#a" width="22.25" height="21.5" transform="translate(-31.6 19.1)"/><use xlink:href="#a" width="22.25" height="21.5" transform="matrix(-1 0 0 1 32.1 19.1)"/></g><defs><use xlink:href="#b" id="a" width="22.25" height="21.5"/><g id="b" fill-rule="evenodd"><path fill="#03102a" d="M.8 9.55q-.3-.3-.2-.7 1.65-4.2 5.15-6.7 3.5-2.5 7.15-2.1 7.55.8 9.35 12.1l-.2.55q-.25.25-.55.15l-1.35-.35.05.35q0 4.15-2.55 5.4l-.35.05h-.15l-.4-.15-.2-.15-.3-.35-1.05 1.15-1.45-.2Q13 20.7 12 21.35q-.45.3-.85 0-.85-.6-1.85-.65-.55 0-.55-.55v-.95q-.7.25-1.25.9-.4.4-.75.15l-1.5-1.05q-.35-.25-.35-.65l.1-.3.15-.25-.8.35-.6-.25-.15-.35.05-.3.2-1v-.6l-.05-.4q0 .35-.15.4l-.7.1-1.35-1.2-.15-.4.05-.1q.35-2.5 1.25-4.6L.8 9.55"/><path fill="#0075d6" d="M1.85 8.7q1.25-3.25 4.1-5.4 2.8-2.1 5.85-2.2 7.6-.15 9.35 10.55l-1.9-.35q.4 1.05-.05 3.15-.5 2.15-1.35 2.85l-1.25-.2q.95-1.3.7-3.25-1.45 4.3-2.25 3.9l-1.8-.35q-.05.75-.7 2-.6 1.2-.8 1.05-.75-.6-2.15-.7l-.25-1.8q-.7-.1-2.15 1.55-.75-.35-1.3-1.25.95-1.15.95-3.8-.5 2.35-2.3 2.9.25-.5-.05-1.85-.3-1.45.4-3.5-1.05.6-1.35 2.7l-.95-.8q.1-3.45 1.55-5.65l-2.3.45"/><path fill="#243c89" d="m5.8 9.95 1.25-.1q.5 2.2-.5 5.6-.4.95-.9 1.3.55-1.35.15-3.15l-.65-3.25q.1-.6.65-.4m-1.9-1.2 1.2.05q0 1.9-.4 3.35-.85.6-1.15 2.55l-.95-.8q.1-3 1.3-5.15M17.15 5.5l-.55-2.85q3.5 2.6 4.55 9l-1.9-.35q.4 1.05-.05 3.15-.5 2.15-1.35 2.85l-1.25-.2q.95-1.3.7-3.25-1.45 4.3-2.25 3.9l-1.8-.35q-.05.75-.7 2-.6 1.2-.8 1.05-.75-.6-2.15-.7l-.25-1.8q-.7-.1-2.15 1.55l-.5-.3q1.7-1.7 2.4-3.8.2-.65-.05-2.4-.3-1.55.2-2.3l.25 1.65.85-2.75.8-2 .4 4.6q1.7.75 2.15.2.65-.7.25-4.15L13.6 6.1q.95.95 1.75 3.4l.75 1.8q1.55-1.2 1.05-5.8"/><path fill="#03102a" d="M17.7 9.75q-.2-.35.15-.65l1.8-.45Q20.9 8.8 21.2 13q.15 1.7-.45 1.85l-2.25-.05q-.3-.3-.2-.6.5-2.45-.6-4.45"/><path fill="#243c89" d="m17.25 9.15.55-.7q.8-.6 1.85.2.5.35.95 2.7.5 2.4.05 2.7l-.95.1q-.8 0-.8-.2.35-3.3-1.65-4.8"/><path fill="#03102a" d="M12.65 7.25q1.45-1.2 2.55-.75 1.45.55 2.05 4.25l.45 3.55q.1.4-.25.5-1.3.65-1.8.4-.2-.15-.45-.9-.7 2.35-1.75 3.1l-.3.1-1.75-.45-.25-.35v-.1l.1-.3q.8-1.1 1.3-3.35l-1.5 2.15q-.25.35-.65.1L9 14.35 8.8 14l-.05-.05.2-.35q2.35-2.45 3.4-5.8l.3-.55"/><path fill="#0075d6" d="M12.95 7.65q2.1-1.75 3.15.55.55 1.15.7 2.75l.3 3.1q-1.05.7-1.05.45-.3-1.7-1.15-2.55l-.35 1.85q-.35 2.2-1.4 2.9l-1.05-.2q.9-1.2 1.2-3.5l.1-2.1-2.65 3.45-1.05-.65q1.75-1.8 2.65-4.05l.6-2"/><path fill="#0075d6" d="M10.75 14.35 9.7 13.7q1.55-1.55 2.35-3.4l.75 1.25.05.05-2.1 2.75"/><path fill="#243c89" d="M14.7 12.55q-.3 3.35-1.55 4.15l-1.05-.2.45-.7q1.05-1.05 2.15-3.25m1.2-2.75h-1.6l-1.5 1.75-.75-1.25.9-2.65q2.7-2.25 3.65 2.15l.5 4.25q-1.05.7-1.05.45l-.3-.85q.35-.15.65-.35l-.5-3.5"/><path fill="#03102a" d="m15.55 4.75.45 2.5-.1.85.85.1q-.25-2.05-1.2-3.45m-3.7-.65q-.4-1.3.15-1.65 1.25-.85 3.55.85 2.05 1.45 2.2 5l-.15.9-.6.05-1.65-.2q-.25 0-.4-.2l-.1-.3V8.4l.05-.4-1.25 2.3q-.2.25-.45.15l-.4-.3Q12.15 8.8 11.3 8q-.3-.25-.05-.7 1.05-1.6.6-3.2"/><path fill="#0075d6" d="M11.9 2.7q-.75-1.15.5-1.1 1.25.05 2.8 1.35 1.7 1.35 2 5.35l-1.75-.1q.15-1.35-.25-2.6l-.45-.95q.2 2.6-1.3 4.75-.7-1.15-1.6-1.95 1.4-2.65.05-4.75"/><path fill="#243c89" d="M13.45 9.4 12.3 7.9q1.6-.2 2.25-1.1-.35 1.55-1.1 2.6M16 8.25q.85-.65 1-1.75.4 1.7.2 1.8L16 8.25"/><path fill="#03102a" d="M4.05 6q2.25-1.55 3.7.45.7 1-.1 2.5-1.05 1.8-.45 3.95l-1.2.3-1.7-.05-.3-.35-.1-1.05.1-1.15-.5 1.3-.3.35h-.45l-2.3-.35-.4-.25L0 11.4l.05-.2q1.65-3.45 4-5.2"/><path fill="#0075d6" d="M5.1 5.95q1.6-1.1 3.05-.5 1.45.6.25 2.05-2.45 1.6-1.9 4.6l-.7.25-.9-.05q-.75-2.5.7-3.9-1.3.55-2.2 1.75l-.65 1.1-1.75-.3q1.35-3.45 4.1-5"/><path fill="#8af1ff" d="M12.45 7.1q.9-.85.7-2.6-.2-1.25-.85-1.9 1.75 1.4 1.3 3.3-.55 1.05-1.15 1.2"/><path fill="#61dfe5" d="M15.55 8.15q.5-2.35-1.1-4.65L14 2.85q1.9 1.3 2 3.55-.15 1.35-.45 1.75"/><path fill="#deeef9" d="M2.95 8q1.1-1.35 2.8-2.35L3.5 8.1Q2.65 9.3 2.25 11l-1.2-.2Q1.4 9.75 2.95 8m1.95 2.15Q5.3 8.5 6.85 7.5q-1.65 1.65-.9 4.1l-.85.8q-.55-.9-.2-2.25"/><path fill="#8af1ff" d="M6.2 6.35q.45-1.5 2.25-2.25l.9-.2q-1.7.9-1.4 1.6-.7.4-1.75.85"/><path fill="#deeef9" d="M3.35 6.45Q6 1.85 10.45 1.5 9.5 1.6 7.5 3L5.2 4.75l-1.85 1.7"/><path fill="#8af1ff" d="M9 2.85q.85-1.1 1.85-1.05Q9.9 2.9 9 2.85m-1.4 9.3q.65 3.2.4 4.1-.95 2.35-1.65 1.65.95-1.7 1.15-3.15l.1-2.6m-.15-1.85.6-1.55 2.7-3.15q-.2 1-1.25 2.3-.9 1.05-.9 2.3l-1.15.1m4.8-.2h.25l.45.25-1.4 2.3q-.9 1.55-1.75 1 1.45-2.45 2.45-3.55"/><path fill="#61dfe5" d="m16.25 13.1-.5.15q-.5-.75-1.15-3.15.6.75 1.65 3"/><path fill="#8af1ff" d="M13.4 13.9q.4-1.6.05-2.3l.3-.25.25.1q.1 1.6-1 4.7l-.55-.1q.6-.6.95-2.15m-8.75 1.75-.05-1.9q.45 0 .6 1.4 0 1.5-.4 1.9.15-.3-.15-1.4"/></g></defs></svg>