<svg xmlns="http://www.w3.org/2000/svg" xmlns:xlink="http://www.w3.org/1999/xlink" width="80.15" height="65.4"><use xlink:href="#a" width="16.15" height="8.75" transform="translate(23.2 31.55)"/><defs><g id="a" fill-rule="evenodd"><path fill="#363634" d="m2 0 1.9 1.55q-.95.7-1.8 1.9Q.35 5.8.7 8.3l-.35.45L0 4.9.3 3Q.8.95 2 0"/><path fill="#e7dfde" d="m3.3 1.65-1.1.95Q1 4.05.6 6.5 0 10.4.5 6.4V4.25Q.75 1.9 1.8.6l1.5 1.05"/><path fill="#8c8a84" d="M.25 6.15.5 3.9Q.9 1.4 1.8.6l.6.25-1.05 2.1Q.4 5.1.25 6.15"/><path fill="#363634" d="M14.15 0q1.95 1.5 2 4.9l-.35 3.85-.35-.45q.35-2.5-1.4-4.85l-1.8-1.9L14.15 0"/><path fill="#e7dfde" d="M12.9 1.65 14.35.6q1.75 2.05 1.35 5.8.5 4-.1.1-.35-2.45-1.55-3.9l-1.15-.95"/><path fill="#8c8a84" d="m13.8.85.55-.25q1.45 1.25 1.55 5.7-.05-1.05-1.05-3.35L13.8.85"/></g></defs></svg>