<svg xmlns="http://www.w3.org/2000/svg" xmlns:xlink="http://www.w3.org/1999/xlink" width="80.15" height="65.4"><use xlink:href="#a" width="73.15" height="25.55" transform="translate(6.05 33.3)"/><defs><g id="a" fill-rule="evenodd"><path fill="#1b191e" d="M60.95 8.95q-2.45.55-7.75-1L21.25 15.4q6.8 3.1 7.05 4.2l.05.1-.15.7v.05l-15.3.45q-7.95 4.85-9.25 4.65-1.65-.3-.2-8.75Q-.3 11.7 0 10.45l.3-.55q.95-.8 9.3 1.5 8.8-6.15 10.2-5.55.9.4.5 2.15l-1.45 3.85 32.6-8.2L55.8 0l.55.35L61.6 2.3q6.15 1.4 11.55-.75l-12.2 7.4"/><path fill="#9e2eb0" d="M2.15 13.65Q.3 10.75.65 10.4q.4-.3 4.7.7l4.2 1.1 4.45-3q4.6-2.95 5.15-2.7.95.45-2.55 7.8 11.25 4.7 10.65 5.6-.65.85-14.75 0-7.95 4.95-8.9 4.75-.95-.2.5-8.2l-1.95-2.8"/><path fill="#be6dca" d="M2.2 13.55Q.3 10.65.65 10.3q.4-.3 4.7.7l4.2 1.1 4.45-3q4.6-2.95 5.2-2.7.95.45-2.6 7.8l7.55 3.4-4.8-1.3q-6.95-1.8-9.9-.95-2.95.85-4.9 4.4l-1.2 2.35.8-5.75-1.95-2.8"/><path fill="#f8eef8" d="M4.7 15.95q-2.6-3.4-3.35-5.2 1.9.1 8.15 1.85l.25.05.2-.15q6.9-4.8 8.9-5.5l-.05.4q-.45 1.85-2.6 6.5l-.25.55 4.9 1.9-5.7-1.65q.65-3.35.1-3.45-1.1-.25-3 1.1l-2.65 1.7q-2.45.75-6.2-1.8l1.3 3.7"/><path fill="#696969" d="m53.45 6.95-43.1 10.2-.65-2.4 41.95-10.5L55.5 1l4.35 1.85q5.3 1.55 10.25-.05-3.8 2.5-7.05 4.1L60.5 8q-4.8-.05-7.05-1.05"/><path fill="#86888b" d="M60.65 7.65q3.5-2.3 1.3-3.25l-6.25-2-3.2 2.85-42.2 10.6-.25-.9L51.8 4.55l3.7-3.15q6.05 3.55 12.9 2.15l-7.75 4.1"/><path fill="#1b191e" d="m7.45 14.1.5-.15L9 18.8l-.5.1-1.05-4.8"/><path fill="#f8eef8" d="m4.45 17.7.25.55-1.05 2.9.8-3.45"/><path fill="#be6dca" d="m3.9 24.15 8.45-5.2 13.9.55q-9.4.35-13.8-.1-2.1 1.4-8.55 4.75"/><path fill="#1b191e" d="M58.6 3.35q0 .65-.6.65t-.6-.65q0-.6.6-.6t.6.6m1.3.4q0 .6-.65.6-.6 0-.6-.6 0-.65.6-.65.65 0 .65.65m1.25.25q0 .6-.6.6t-.6-.6q0-.65.6-.65t.6.65m1.5.25q0 .6-.6.6t-.6-.6q0-.6.6-.6t.6.6"/></g></defs></svg>