<svg xmlns:xlink="http://www.w3.org/1999/xlink" height="65.4" width="80.15" xmlns="http://www.w3.org/2000/svg"><use height="25.6" transform="translate(7 34.05)" width="73.15" xlink:href="#a"/><defs><g id="a" fill-rule="evenodd"><path d="M36.35 29.25v-.05q-2.3.6-7.75-1l-31.95 7.5q6.75 3.05 7.05 4.2l.05.05-.15.7v.05l-15.3.45q-7.95 4.9-9.25 4.7-1.65-.4-.2-8.8-3.75-5.1-3.45-6.35l.3-.55q1-.75 9.3 1.55 8.8-6.2 10.2-5.6.95.45.5 2.15l-1.45 3.9 32.6-8.25 4.35-3.65.55.35 5.25 2q6.15 1.4 11.55-.75l-12.2 7.4" fill="#1b191e" transform="translate(24.6 -20.25)"/><path d="m-20.5 36.7-1.95-2.8q-1.85-2.9-1.5-3.2.4-.35 4.7.7l4.2 1.1 4.45-3q4.6-3 5.15-2.7.95.4-2.55 7.75 11.25 4.7 10.65 5.6-.65.9-14.75.05-7.95 4.9-8.9 4.75-.95-.2.5-8.25" transform="translate(24.6 -20.25)"/><path d="M-22.4 33.8q-1.9-2.9-1.55-3.2.4-.3 4.7.7l4.2 1.1 4.45-3q4.6-3 5.2-2.7.95.4-2.6 7.75l7.55 3.45-4.8-1.35q-6.95-1.85-9.9-.95-2.95.9-4.9 4.45l-1.2 2.3.8-5.7-1.95-2.85" fill="#5c5c5c" transform="translate(24.6 -20.25)"/><path d="m-5.75 27.25-.05.4q-.4 1.7-2.6 6.55l-.25.5.5.25 4.4 1.7-5.7-1.7q.65-3.3.1-3.45-1.1-.25-3 1.1L-15 34.35q-2.45.75-6.2-1.85l1.3 3.75q-2.65-3.6-3.35-5.2 1.75.1 8.15 1.8l.25.1.2-.15q6.8-4.8 8.9-5.55" fill="#e5e5e5" transform="translate(24.6 -20.25)"/><path d="m28.85 27.25-43.1 10.15-.65-2.35 41.95-10.5 3.85-3.25 4.35 1.85q5.3 1.55 10.25-.1-3.8 2.55-7.05 4.1l-2.55 1.1q-4.8 0-7.05-1" fill="#696969" transform="translate(24.6 -20.25)"/><path d="M35.95 27.95q3.6-2.3 1.4-3.3L31.1 22.7l-3.2 2.8-42.2 10.65-.25-.9L27.2 24.8l3.7-3.15q6.05 3.55 12.9 2.15l-7.85 4.15" fill="#86888b" transform="translate(24.6 -20.25)"/><path d="m-15.6 39.05-.5.15-1.05-4.85.5-.1 1.05 4.8" fill="#1b191e" transform="translate(24.6 -20.25)"/><path d="m-20.15 38 .25.55-1.05 2.9.8-3.45" fill="#e5e5e5" transform="translate(24.6 -20.25)"/><path d="m-20.7 44.4 8.45-5.2 13.9.6q-9.4.35-13.8-.1l-8.55 4.7" fill="#696969" transform="translate(24.6 -20.25)"/><path d="M34 23.65q0 .6-.6.6t-.6-.6q0-.6.6-.6t.6.6m1.3.35q0 .6-.65.6-.6 0-.6-.6t.6-.6q.65 0 .65.6m1.25.25q0 .6-.6.6t-.6-.6q0-.6.6-.6t.6.6m1.5.25q0 .6-.6.6t-.6-.6q0-.6.6-.6t.6.6" fill="#1b191e" transform="translate(24.6 -20.25)"/></g></defs></svg>