<svg xmlns="http://www.w3.org/2000/svg" xmlns:xlink="http://www.w3.org/1999/xlink" width="80.15" height="65.4"><use xlink:href="#a" width="30.9" height="36" transform="translate(16.45 22.7)"/><defs><g id="a" fill-rule="evenodd"><path fill="#0d090e" d="M18.85 11.85q-.8.55-2.1-.9-.35.55-1.35-.15l-1.4.15q-1.3 1.45-2.05.9-.2.35-1.1.65l2.5 1.35 1.35-.95v-.45l.7.05.7-.05v.45l1.3.95q.75-.9 2.5-1.35-.9-.3-1.05-.65m9-11.85L28 2q2.4 1.15 1.75 4.35Q31.2 8 30.85 12.2l-2.1-.1q1.05 1.15.7 5.75-1.25-1-1.85-.65.3 1.6-1.1 5.25-.95-1.1-1.75-1-.1 2-1.3 5.55l-1.6-1.4q-.4 1.5-1.35 2.15l-1.15 4.15q-1 3.7-3 4.1-.15-3.15-1.7-5.65L13.1 28.5l-.75 1.75q-1.8-1.25-2.6-3.3l-.5-1.85-1.15 2q-2-3.65-2.1-5.65-.55-.05-.8.85l-.2.9q-2.15-4.4-1.8-6l-1.6.3q-.65-4.25.4-5.4l-1.25.05-.65.45q-.35-4.8.9-6.25Q.35 3.15 2.75 2l.2-2Q3.8.45 4.6.85l-.65 2Q4.7 3.4 5.6 5.2q.9 1.7.85 2.3-.05.4.5.7.7.35.8.8 3.7-3.55 6.35-2l1.3.75L16.65 7Q19.3 5.5 23 9q.15-.45.8-.8.6-.3.55-.7-.1-.6.8-2.3.9-1.8 1.7-2.35l-.7-2q.95 0 1.7-.85"/><path fill="#a96f3a" d="m19 10.9-.5.2q-.45 0-1.1-.75l-1.2-.15-.45-.15H15l-.45.15-1.2.15q-.55.75-1.1.75l-.7-.2-.3.45-.7.35-2.65 1 2.75.65q1.4.25 2.05 1.05l.45.6 2.25-1.6 2.2 1.6.5-.6q.65-.8 2-1.05l2.75-.65-2.65-1-.65-.35.05.1-.6-.55m8.75-7.65-.05-.45q1.3.7 1.3 2.4l-.1.95-.1.45.3.3q.95 1.15.95 4.2v.05l-1.75.2-.9.55.7.75q.55.65.55 3.55v.2q-.85-.25-1.45 0l-.6.3.15.65v.4L26.1 21q-.75-.45-1.4-.4l-.75.05-.05.75q-.05 1.2-.9 4.1l-1.6-1.45-.35 1.3q-.35 1.2-1.05 1.7-.6.5-1.05 2.8-.85 3.85-1.9 4.85-.4-2.85-1.9-5.1l-1.5-1.75-.9-.75-.75 1.75q-1.05-1.05-1.6-2.5L10.1 25l-.25-2.65-1.7 2.95q-1.25-2.85-1.3-3.9l-.05-.75-.75-.05q-.55-.05-1.05.45-1-2.45-1-3.5v-.2l.15-.65-.6-.3-1.2-.05-.1-1.4q0-1.8.4-2.3l.7-.75-.9-.55L.9 11.2q0-3.4.75-4.3l.3-.3-.1-.45-.1-.95q0-1.7 1.3-2.4L3 3.25l.45.3q.6.35 1.4 1.95.7 1.4.75 1.9l-.05.2q0 .7 1 1.35.35.15.4.3l.4 1.4 1-1.05 1.9-1.45q2.1-1.2 3.4-.4l1.75 1 1.7-1q2.15-1.25 5.3 1.85l1.05 1.05.35-1.4q.05-.15.4-.3 1-.65 1-1.35v-.15q0-.5.75-1.95.75-1.55 1.35-1.95l.45-.3"/><path fill="#cf9f6f" d="m18.75 9.25-2.9-.35q3.1-2.2 5.65.5 1.65 1.8 5.7 1.15 3.75-.55-2.15 1.3l2.05 1q-1.45 1.05-3.15.75.55.3 1.9 1.85l-2.4-.3q.65.45 1.55 3.7-.9-1.55-2.85-2.2.75.6.25 4.55l-2.25-3.4q.45.75.85 4.35l-2.55-2.55q.8 1.6.65 7.1l-1.3-1.3-.5 8.6q0-2.1-.9-7l-.95-4.5v5.35l-2.7-6.5-.8 2.25q-.65 2.8.05 5.25-2.05-1.9-1.8-5.6l.65-3.35-1 1.45Q8.7 23.2 8.15 25.3q-.85-1.45-.85-4.4 0-2.3-.45-2.2-.65.15-1.3 1.25L5 21.05l-.95-2.9.7-3.1q-.7 0-2.4 1.05-.45-1.85.15-3.15.45-1 2.2-1.95-2.2-1.35-3.65 0 0-1.8.8-3.1l.75-.95q.7-1.1.4-2.8L4.15 5.9q.8 1.3.2 1.4-.6.1-1.45 1.05l-.7.95 2.25-.95q1.2 0 2.5.9H5q2.4 1.05 5.45-.9 2.65-1.8 5 1.45-3.25-.5-4.3.7-1.6 1.9-6.15 2.15l2.25.25-1.9.8 3.8-.1-.6.25q-.75.55-1.5 2.1.75-.95 2.3-1.7l1.4-.5-.8 2.6q.35-.95 1.25-1.5l.85-.35.05 2.6 1.55-2.15-.25 2.7q.25-1.2 1.95-4.05-1.35 3.3-.55 7.6l.7-5.5q0 2.25 1.7 6.45.2-2.95-.8-6.35l3 3q-.25-1.5-1.35-3.35l3.3 2.25q-.8-1.5-2.05-2.4 1.25 0 3.4.8l-2.55-2.2 3.15.45q.65-.45-1.35-1.5l2.4-.3q-1.05.25-2.85-1.8-1.1-1.25-2.75-1.5"/><path fill="#ffdea4" d="M14.2 9.45q-3.05-.1-5.65 1.65-1.15.8-4.25.85l2.85-1.45L4.8 10l1.1.1q1 .25 3.1-1.15 2.25-1.55 3.3-1.55 2.25 0 2.9 1.55-2.3-.9-3.4-.65-1.5.3 2.4 1.15M7.4 14l-1.5 2.7 3.4-1.55L9 19.1l2.3-2.65.4 3.45 1-1.95 1.55 4.6-1.5-2.35q-.8.75-1.4 2.6-.7 2-.4 3.5-.75-2.9-.3-5.35l.6-1.9-1.7 1.5q-1.7 1.6-1.85 2.25l.2-5.5-1.4.7q-1.45.8-1.7 1.4l.6-4.5-2.75.5.35-1.05q.55-1.15 1.45-1.4l2.75-.15-2.75 1.7q1.95-.6 2.95-.5m-6.05-4Q1.5 8.2 2.5 7.1q1-1.05.75-2.3.65 2.05.2 2.4-1.9 1.5-2.1 2.8m15.7-1.25.95-.4 1.95.15 2.15 1.65q1.4 1.05 2.45.9l2.2-.3q-2.9 1.25-4 .5-2.9-2.1-3.55-2.35l-2.15-.15"/><path fill="#cf9f6f" d="M29.45 9.95q-2.2-1.2-3.05-1.1 1.1-.6 1.5-.55.75.1 1.55 1.65m-3-3.15.5-.9q.65-1 1.5-1.4-.55.4-.65.85-.1.6.8.55 0 .25-2.15.9"/><path fill="#ffdea4" d="M17.45 18.25q1.25 3.75.65 6.7l-.65-6.7m-.85 4q1 3.75.6 7.35l-1.7-10.4 1.1 3.05m2.25-5.75 1.35.7q1.45 1.05 1.75 2.65l-3.1-3.35m2.4-1.9 1.3.65q1.45.95 1.9 2.6l-3.2-3.25"/></g></defs></svg>