<svg xmlns="http://www.w3.org/2000/svg" xmlns:xlink="http://www.w3.org/1999/xlink" width="80.15" height="65.4"><g transform="translate(31.6 13.8)"><use xlink:href="#a" width="19.2" height="29.45" transform="translate(-28.1 20.95)"/><use xlink:href="#b" width="17.6" height="26.05" transform="translate(-27.45 23.5)"/><use xlink:href="#c" width="9.7" height="10.9" transform="translate(-25.85 29.9)"/><use xlink:href="#d" width="15.3" height="24.35" transform="translate(-26.15 21.75)"/><use xlink:href="#e" width="14.9" height="15.35" transform="translate(-26.25 32.15)"/><use xlink:href="#f" width="14.35" height="20.4" transform="translate(-25.65 23.1)"/><use xlink:href="#g" width="5.35" height="13" transform="translate(-17.1 24.05)"/></g><defs><use xlink:href="#h" id="a" width="19.2" height="29.45"/><use xlink:href="#i" id="b" width="17.6" height="26.05"/><use xlink:href="#j" id="d" width="15.3" height="24.35"/><use xlink:href="#k" id="e" width="14.9" height="15.35"/><use xlink:href="#l" id="f" width="14.35" height="20.4"/><use xlink:href="#m" id="g" width="5.35" height="13"/><g id="h" fill-rule="evenodd"><path fill="#000200" d="m7.25 4.05-.15.05.1.3q.1.35-.1.95L6.65 6.7l-.2 1.65q.1 1.6.55 2.4l1.45 2.05 1.1 1.1q.65.5 1.45.8l2.95.15q1.05-.65 1.6-2.05l.4-1.65-.15-1.5-.35-1.55-.6-1.4q-1-2.75-2.6-3.7-1.2-.7-2.5-.45l-1.3.6-.7.4-.5.5V4v.05M13.15 0q.8 0 1.9 2l.5.85q1.05 1.3 1.55 5.35l.35 5q1.6 4.6 1.75 7.75l-.25 3.15q-.4 1.55-1.1 2.5-.9 1.35-2.35 2-1.55.75-3 .85-1.45.05-4-2.25Q.15 22.15 0 17.45 0 15.4.8 14l1.8-3.4.85-.75q.65-.35.65-.6l-.05-.1h.1l.1-.45.1-1.6.7-2.3q.8-1.85 1.45-2.4.65-.55 1.5-.55l.5-.05q.65-.15 4.65-1.8"/><path fill="#010500" d="M12.55 11.45 12 13.5q-.1.05-7.1-4.15l3.65-1.6q.2-.05.3.2l.4 2.3.2.05.3.8q.45.8 1.15 1.05l1.4-.3.25-.4"/></g><g id="i" fill-rule="evenodd"><path fill="#0a4703" d="M.05 13.9q.45-3.05 4.2-7.1 6.8 3.55 7.1 4.1l-1.9 5.25Q7.5 21.4 8.05 22.8l.8 1.45Q3.6 22.1.35 16.2q-.5-.75-.3-2.3"/><path fill="#0a4703" d="m17.35 15 .2 3.35q.3 2.4-.9 4.75-1.4 2.65-4.6 2.9-3.35.3-3.95-2.75-.25-1.15.2-1.25l1.45.4q2.9.75 4.95-1.4 1.2-1.25 1.6-4.75.5-3.25.2-4.4.7.95.85 3.15"/><path fill="#093a02" d="M4.45 6.95q-.8-1.85 1.1-5.45.8-1.55 2.2-1.5L9 .3Q7.55 1.55 7.4 3.6q-.05.6.45 1.85l-3.4 1.5"/></g><g id="c" fill-rule="evenodd"><path fill="#020002" d="M6.95 1.55q2.95 2 2.75 2.85-6.25 7.7-8.45 6.3Q0 9.9 0 7.2q.05-3.6 3.35-7Q4-.5 6.95 1.55"/><path fill="#146608" d="M8.85 3.9Q4.2 9.8 2.25 8.65 1.1 7.9 1 6.05.8 3.45 3.6.55q5.15 3 5.25 3.35"/><path fill="#000200" d="M3.8 8.2Q2.45 10.4.9 9.5-.6 8.55.8 6.35t2.9-1.3q1.45.95.1 3.15"/><path fill="#e0a30b" d="M3.35 8.25q-1 1.5-2.05.9-1-.75-.05-2.25Q2.3 5.3 3.3 6q1.05.6.05 2.25"/><path fill="#e8b749" d="M2.95 7.5q-.75.75-1.25.15-.55-.55.2-1.25.8-.7 1.3-.15.55.55-.25 1.25"/><path fill="#f9dd64" d="m2.85 7.2-.95.1q-.35-.35.2-.9l.9-.1q.35.45-.15.9"/><path fill="#0b8204" d="m5.35 1.6-.05-.05.75.9q-1.5-1.2-2.75-.3L2 3q.15-.6 1.3-1.85.5-.5 2.05.45"/><path fill="#1dbc11" d="m2.95 1.85-.2.2.6-.75.7-.2q.9 0 .65.4l-.35.05H3.9l-.95.3"/></g><g id="j" fill="#0c6005" fill-rule="evenodd"><path d="M8.45 24.15 7 23.75l-.1.05-.2-.15-.15-.25q.15-1.75 1.1-4.8 1.7-5.1 2.4-5.95l4.4-.75q.4.2.85 2.45L15 18q-.4 3.5-1.6 4.75-2.05 2.15-4.95 1.4"/><path d="M7 1.8 10.75 0q3.95 2.65 3.75 11.95l-4.45.7q1.65-4.5-.35-7.95Q8.65 2.85 7 1.8m-6.7 10 .25-.5.75-1 .35-.45.2-.2L2 9.4v-.1l.2.25.2.1-.3.4-1.2 2-.15.6v.3l-.1.2-.5-.35-.15-.25v-.3l.3-.45"/></g><path id="k" fill="#0c2d01" fill-rule="evenodd" d="m6.65-7.45.5-.1.2-.1.1.8-.1.95-.15-.2-.2-.15-.5-.25-1.15.1-2.3.7-.35.2.2-.5.1-.6h-.05l.55-.3.45-.2 1.75-.35h.95M-7.4 1.3q.35.1 2.1 1.3 1.15.75 2.55.25 1-.3 2.4-2.25 1.35-1.85 1.6-3 0 1.2-1.2 5Q-.9 5.65-.3 7.7l-3.55-2.4q-3.05-2.35-3.6-4h.05" transform="translate(7.45 7.65)"/><path id="l" fill="#0b8204" fill-rule="evenodd" d="m7.15 2.7-.2 2.25q0 2.05-1.2 3.7-1.35 1.8-3.15 1.6-2.55-.2-1.8-4.4.75-4 2.4-4.7Q7.05-.25 7.15 2.7M6.2-6.8q-.25.3-1.9.9l-1.7.65-.2-.95-.45-.9Q1.2-8.25.7-8.45l.15-.15H.8l1.8-.95 1.1-.55.8-.05 1 1.65.6 1.25.1.45M-7.2-.05l.55-.8.45-.25q.4.15.3.35l-.2.2-.35.65-.3.2-.4-.3-.05-.05" transform="translate(7.2 10.15)"/><path id="m" fill="#1dbc11" fill-rule="evenodd" d="m.9-6.5.3.25.4.75-2.2 1.15q-.35.2-.75.35l-.4.15-.7-1.05-.25-.25L.9-6.5m-.8 13h-2.35l.35-.85q.3-1.5 2.85-1.8Q3.4 3.55 2.3 5.5q-.6 1.1-2.2 1" transform="translate(2.7 6.5)"/></defs></svg>