<svg xmlns="http://www.w3.org/2000/svg" xmlns:xlink="http://www.w3.org/1999/xlink" width="80.15" height="65.4"><use xlink:href="#a" width="9.5" height="16.3" transform="translate(14.3 32.6)"/><defs><g id="a"><path fill="#030001" fill-rule="evenodd" d="M6.75 7.3 8.4 5.6q.35 6.85 0 8.7-.35 1.8-3.85 2l-1.3-2.2q2.65 1.5 3-1.15l.5-5.65"/><path fill="#910032" fill-rule="evenodd" d="M2.5.35q1.1-.55 3.45 1T8.9 4.6q1.05 3.05-2.65 3.65Q5.35 8.4 5 7q-.55-2.05-.85-2.5-.5-.7-1.85-.65l-1.75.1q-.3-.05.3-2Q1.2 1 2.5.35"/><path fill="#6e0026" fill-rule="evenodd" d="M.5 4.45.75 2.8q2.9-1.4 4.3.35Q6.5 4.9 6.85 6.8l-.3.8-.65-.1-1.25-2.9-1.1-.5-3.05.35"/><path fill="none" stroke="#24000c" stroke-linecap="round" stroke-linejoin="round" d="M.5 4.45.75 2.8l.8-1.75q2.4-1.25 4.65.4Q7.85 2.7 8.6 4.5q.75 1.75.1 2.45-.85.85-2.45 1.3-.95-.2-1.25-1.4Q4.25 4.2 3.55 4.1L.5 4.45Z"/></g></defs></svg>