<svg xmlns="http://www.w3.org/2000/svg" xmlns:xlink="http://www.w3.org/1999/xlink" width="80.15" height="65.4"><use xlink:href="#a" width="40.9" height="31.45" transform="translate(7.8 32.75)"/><defs><g id="a" fill-rule="evenodd"><path fill="#000202" d="M40.7 3.8Q33.25 9.9 27 12.65q-7.85 2.7-13.25 5.1Q8.4 30.4 8.2 30.5l-.95.15q-.15.6-.45.7-2.3.35-2.5-.45l-.1-.85-1-.65-.5.45-1.1-.7q-.9-.65-.9-1L1.05 27q-1.25-.65-1-3.1l.7-8.3q0-.4 1.15-1.95l1.95-2.35 1.6-1.4.6.6q.4.6.4 1.05-.1 1.45.5 1.55.95 1.55 1.35 1.4l14.4-4.85Q30.15 6.9 38.55 0l1.1.35Q40 1.95 40.7 2.5l.2.65-.2.65"/><path fill="#7f2900" d="m1.8 26.75 1.35 1.85q-.1.75-.35.8-.5.1-1.5-1-.55-.55.5-1.65m2.9 2.7 2.5.45q-.4 1.1-.75 1.2-1.2.2-1.85-.45l.1-1.2"/><path fill="#631300" d="m1.55 28.55.8-.45.8.8q-.1.65-.55.45l-1.05-.8m5.55 1.7q-.3.75-.65.85l-1.25-.2q1.1-.45.6-.75l1.3.1"/><path fill="#aa4600" d="m1.75 27.2.45.6-.3.3q-.3.3-.55-.2-.1-.45.4-.7m3 2.55.65.3-.25.4q-.35 0-.5-.2l.1-.5"/><path fill="#ff8900" d="M40.35 2.95q-.7 1.45-3.3 2.25l-2.25 2q-2.5 2.25-6.9 4.15-7.3 3.25-15.15 5.75-.5.4-5.3-1.15L8.6 15Q19 12.05 23.95 9.85 28.9 7.6 38.7.7q.55-.55.95.4l.7 1.85"/><path fill="#f26500" d="m39.1 1.35.25.85q-10.4 6.85-13.3 8.15-2.95 1.35-15.45 5.5l-1.65-.25q13-4.5 16.55-6.1 3.55-1.65 13.6-8.15"/><path fill="#f26500" d="M40.1 3.15q-6.5 6-12.1 8.55-5.65 2.6-14.8 5-.35.2-1.55-.55Q22.1 13.4 27.45 11q5.4-2.45 12.3-8.3l.35.45"/><path fill="#ff4d00" d="M1.55 27q-.3-.5.3-2.15l4.1-8.95q.4-.85 1.35-.65l2.8.4q2.5.35 2.8.8.5.7.4 1-5.25 12.7-5.6 12.75-3.85.8-6.15-3.2"/><path fill="#c93d00" d="m.7 22.75.4-5.2q.15-2.3.6-2.85l1.85-2.55q1.4-1.85 2.15-1.5.7.3.55.55l.55 2q.45.05 1.5 1.8.35-.1-6.65 11.45-1.45.45-.95-3.7m11.5-6.35q.65.1.8 1-5 12.55-5.4 12.55-5 .25-5.5-3.6l4.75.8q.35.05 5.35-10.75"/><path fill="#cf7f06" d="M1.9 25.85q-.55-11.65 1.65-12.9 2.15-1.25 4 3.45L5.7 19.35l-.65-2.55q-.7-2.5-1-2.3l-.75 8.75-1.4 2.6"/><path fill="#ff7b42" d="m2 26.1 6.3-10.6 2.85.45-2.6.2Q3.9 26.55 2 26.1"/><path fill="#efc129" d="M2.15 16.9q.3-3.8 1.75-4.15 1.45-.35 3 2.35l-1.8 1.65-1.05-2.25L3.6 17l-1.45-.1"/><path fill="#efe2b6" d="M2.25 15.85q.5-2.6 1.65-3.1.95-.4 2.05 1l-1.45 1.5-.45-.75-.25.9-1.55.45"/><path fill="#ff4d00" d="M3.8 12.3q-.35.15 1.65-1.4.25.1.65 1.8l-.7-.35-1.6-.05"/><path fill="#ff7b42" d="m4.6 11.65.5-.4h.35q.15.1.15.35l-.65.3q-.5.2-.4-.3l.05.05"/><path fill="#ffa882" d="M8.9 16.25q.55-.45 1.25 0l-4.1 5.5 2.85-5.5"/><path fill="#ffb27a" d="M9.55 15.4 9 15.3l-.25-.25L23 10.55 9.55 15.4m26.8-13.35 2.8-1.3q.5.5-2.8 1.3m.65 2.2q2.95-1.7 3.05-1.55.2.45-3.05 1.55m-25.95 11.5L21.9 12.5l-9.45 3.65-1.4-.4m1.95.85 5.95-2.1-5.5 2.7-.45-.6"/></g></defs></svg>