<svg xmlns="http://www.w3.org/2000/svg" xmlns:xlink="http://www.w3.org/1999/xlink" width="80.15" height="65.4"><use xlink:href="#a" width="42.35" height="8.05" transform="translate(10.35 35.45)"/><defs><g id="a" fill-rule="evenodd"><path fill="#3a3629" d="m42 2.45.2.4.15.25h-.1q.35 1.25-.45 2.75l-1.4 1.8-2.15.4Q37.2 7.9 36.1 7.3q-1.7-1-1.7-2.1l-.05.15-.05-.05q-.45-2.05-.15-3.8l.3-.6.05-.15.05.1q2-1.1 4.6-.8h.15l.05.05.15.15.05.05.05.1L42 2.6v-.15m-7.15-1.2-.05.05h-.1l-.05.05-.1.85v1.25l.3 1.15v.05q.55 1.2 1.9 1.85l1.2.4.45.05.45.05 1-.35.2-.15.1-.05.1-.1.95-1 .3-.6.1-.35q.3-1.4-1.45-2.85L38.6.45q-2.05.1-3.75.8m1.35.55-.55.4v.05q1.6.5 3.3-.5l.05-.1-.05-.15v-.05l-.25-.1-.1-.05h-.35q-1.2.05-2.05.5m-1.15-.2.8-.05q.95-.4 2.15-.5l.45-.1 1.35.75q1.6 1.35.6 3-1.05 1.75-2.2 1.4l.65-.2q-1.45.7-2.6-.85-1.1-1.5-1.2-3.45m4.25.65-1.1.25q-.55.1-1.05.35v.05l-.9.45v.05q1.85.7 3.8-.65l-.25-.5-.25-.05-.25.05m-1.8 2.2-.55.3v.05q1.65.8 3.15-.75L40 3.8l-.25-.1-.4.1-.1.05-.3.05-.5.15-.95.4M4.15 1.3h-.4l-.1.05-.25.1v.05l-.05.15.05.1q1.7 1 3.3.5V2.2l-.55-.4-2-.5M2.8.3l.05-.05L3 .1l.05-.05h.15q2.6-.3 4.65.8v-.1l.1.15.3.6q.25 1.75-.2 3.8L8 5.35l-.05-.15q0 1.1-1.7 2.1l-2.1.75L2 7.65.55 5.85Q-.25 4.35.1 3.1H0l.2-.25.15-.4.05.15Q1.3 1.4 2.8.4V.3m2.45 2.6v-.05Q4.7 2.6 4.2 2.5l-1.1-.25h-.05L2.8 2.2l-.25.05q-.3.15-.25.5 1.95 1.35 3.8.65v-.05l-.85-.45M4.4 1.05l2.1.5.8.05q-.1 1.95-1.2 3.45-1.15 1.55-2.55.85l.65.2Q3 6.45 1.95 4.7q-1-1.65.6-3L3.9.95l.5.1m3.1.2Q5.8.55 3.75.45L2.2 1.55Q.45 3 .75 4.4l.1.35.3.6 1 1 .05.1.1.05.25.15 1 .35.4-.05.5-.05 1.15-.4q1.35-.65 1.9-1.85l.05-.05.25-1.15V2.2l-.1-.85-.05-.05H7.6l-.1-.05m-2.6 3.2-1-.4-.45-.15-.2-.05-.2-.05-.45-.1-.25.1-.1.25q1.5 1.55 3.15.75v-.05l-.5-.3"/><path fill="#fff" d="M36.2 1.8q.85-.45 2.05-.5-.5 1.15-2.05.5m3.1.45.3.05.25.15v.2L37 3.1v-.05l.15-.15v-.05q.5-.25 1.05-.35l1.1-.25m-1.8 2.2.95-.4.5-.15.3-.05.1-.05h.15l.25.25q-1.2.95-2.25.4M6.15 1.8q-1.55.65-2-.5l2 .5m-3.1.45h.05l1.1.25q.5.1 1.05.35v.05l.1.15v.05q-1.3.15-2.85-.45v-.2l.25-.15.3-.05m.4 1.65.45.15 1 .4q-1.1.55-2.3-.4l.25-.25h.2l.2.05.2.05"/><path fill="#dfa63c" d="M38.25 1.3h.35l.1.05.25.1v.05l.05.15-.05.1q-1.7 1-3.3.5V2.2l.55-.4q1.55.65 2.05-.5m-1.1 1.6-.15.15v.05l2.85-.45v-.2l-.25-.15-.3-.05.25-.05.25.05.25.5q-1.95 1.35-3.8.65v-.05l.9-.45m2.2.9.4-.1.25.1.1.25q-1.5 1.55-3.15.75v-.05l.55-.3q1.05.55 2.25-.4l-.25-.25h-.15m-33.2-2 .55.4v.05q-1.6.5-3.3-.5l-.05-.1.05-.15v-.05l.25-.1.1-.05h.4q.45 1.15 2 .5m-.9 1.1.85.45v.05q-1.85.7-3.8-.65-.05-.35.25-.5l.25-.05.25.05-.3.05-.25.15v.2q1.55.6 2.85.45v-.05l-.1-.15M4.9 4.45l.5.3v.05q-1.65.8-3.15-.75l.1-.25.25-.1.45.1h-.2l-.25.25q1.2.95 2.3.4"/><path fill="#4f7b63" d="m34.85 4.65.15.2.05.05v-.05l1.15 1.2.1.05-1.15-2.65-.3-2.15v-.05q1.7-.7 3.75-.8l1.55 1.1Q41.9 3 41.6 4.4l-.1-.85Q40.45 5.6 38.85 7l-.45-.05-.45-.05q.15-.55-.5-.7l-.3-.1q-.3-.05-.45.2l-.05.05.1.15q-1.35-.65-1.9-1.85m.2-3.05q.1 1.95 1.2 3.45 1.15 1.55 2.6.85l-.65.2q1.15.35 2.2-1.4 1-1.65-.6-3L38.45.95l-.45.1q-1.2.1-2.15.5l-.8.05M.75 4.4Q.45 3 2.2 1.55L3.75.45q2.05.1 3.75.8v.05l-.25 2.15-1.2 2.65.1-.05 1.15-1.2v.05l.05-.05.15-.2q-.55 1.2-1.9 1.85l.1-.15-.05-.05q-.15-.25-.45-.2l-.3.1q-.65.15-.45.7l-.5.05-.4.05Q1.9 5.6.85 3.55l-.1.85M4.4 1.05l-.5-.1-1.35.75q-1.6 1.35-.6 3Q3 6.45 4.2 6.1l-.65-.2q1.4.7 2.55-.85 1.1-1.5 1.2-3.45l-.8-.05-2.1-.5"/><path fill="#a2c4b0" d="M34.85 4.65V4.6l-.3-1.15V2.2l.1-.85.05-.05h.1l.05-.05v.05l.3 2.15L36.3 6.1l-.1-.05-1.15-1.2v.05L35 4.85l-.15-.2m6.75-.25-.1.35-.3.6-.95 1-.1.1-.1.05-.2.15-1 .35q1.6-1.4 2.65-3.45l.1.85m-3.65 2.5-1.2-.4-.1-.15.05-.05q.15-.25.45-.2l.3.1q.65.15.5.7M.75 4.4l.1-.85Q1.9 5.6 3.55 7l-1-.35-.25-.15-.1-.05-.05-.1-1-1-.3-.6-.1-.35m3.7 2.5q-.2-.55.45-.7l.3-.1q.3-.05.45.2l.05.05-.1.15-1.15.4M7.5 4.65l-.15.2-.05.05v-.05l-1.15 1.2-.1.05 1.2-2.65.25-2.15v-.05l.1.05h.05l.05.05.1.85v1.25L7.55 4.6l-.05.05"/></g></defs></svg>