<svg xmlns:xlink="http://www.w3.org/1999/xlink" height="65.4" width="80.15" xmlns="http://www.w3.org/2000/svg"><use height="13.15" transform="translate(38.8 40.35)" width="9.35" xlink:href="#a"/><defs><g id="a" fill-rule="evenodd"><path d="M14.7 29.1v.05h-.05l.05-.05m-.25 2.65.15.15-.05.25q-1.15 2.95-2.15 6-.3-.4-.65-.15v.05l-.3-.3 2.15-4.6-.3.7.95-1.8.2-.3M8 36.2l4.95-5.25.55.6-2.6 5.05-.55 1.2q-.8-.95-1.9-1.65l-.25-.1-.2.15m2.65 2.45.15-.15-.1.2-.05-.05m2.95-.4-.35-.2 1.6-6 .35-.15-.85 6.75-.4-.2.35.15.05-.05v-.05l-.6-.45q-.15 0-.15.15v.05" fill="#93c400" transform="translate(-7.2 -26.55)"/><path d="m11.85 31.95 4.05-4.35-.05.5-.1 1.35-.2 1.55-.05.65-.35 2.95-.3 2.25v.1l-.3 1.95v.1L13 38.35l-.3.8-1.4-1.1-.65 1.2-2.8-2.85.05.25-.15-.25v-.1l.05-.15.05.05.4-.4 3.6-3.85m2.85-2.85-.05.05h.05v-.05m-.25 2.65-.1-.1h-.05l-.7 1.5-2.15 4.6.3.3.75.65 2.05-6.55.05-.25-.15-.15m-.5 6.7.4.2.85-6.75-.35.15-1.6 6 .35.2.35.2m-6.2-2.15.1.1v-.1h-.1" fill="#405500" transform="translate(-7.2 -26.55)"/><path d="m15.15 34.6.35-2.95.05-.65.2-1.55.1-1.35.05-.5-4.05 4.35.4-1.05-.05.05-4.65 4.9.7-.05-.4.4-.05-.05-.05.15v.15l-.05.05-.45-.1-.05-.05v.05l.2-.55v-.05l8.55-9.25q.4.45.6 1.05l-1.4 12.1h-.05l-.2-.05v-.15l-.1.05v-.45l-.25-.1v-.1l.3-1.95.1 2.1.05-.1.45-5.5-.05.05-.25 1.1" fill="#765425" transform="translate(-7.2 -26.55)"/><path d="m13.6 33.15.7-1.5h.05l.1.1-.2.3-.95 1.8.3-.7m.95-1L12.5 38.7l-.75-.65V38q.35-.25.65.15 1-3.05 2.15-6m-1.05-.6-.55-.6L8 36.2l.2-.15.25.1q1.1.7 1.9 1.65l.55-1.2 2.6-5.05.5.15-3.1 6.65-.1.15.05-.05v-.05l.05-.05-.05.05v.05l-.05.05.1-.15L14 31.7l-.5-.15m-2.85 7.1-.45-.45-.05-.05L8.1 36.2l.35-.05-.35.05 2.05 1.95.05.05.45.45.05.05.1-.2-.15.15m2.95-.4v-.05q0-.15.15-.15l.6.45v.05l-.05.05-.35-.15-.35-.2M8 36.2l.45-.05-.45.05" fill="#c8ff20" transform="translate(-7.2 -26.55)"/><path d="m15.15 34.6.25-1.1.05-.05-.45 5.5-.05.1-.1-2.1v-.1l.3-2.25m-6.9 1.2-.7.05 4.65-4.9.05-.05-.4 1.05-3.6 3.85" fill="#a58343" transform="translate(-7.2 -26.55)"/></g></defs></svg>