<svg xmlns:xlink="http://www.w3.org/1999/xlink" height="65.4" width="80.15" xmlns="http://www.w3.org/2000/svg"><use height="19.35" transform="translate(45.15 30)" width="14.9" xlink:href="#a"/><defs><g id="a" fill-rule="evenodd"><path d="M25.95 17.15v-.3l-.1-.15-.15.1-.1.05v.05l-.25.25q-.25.25-.25.65l.1.65.05.1.85 1.05.45.05-.8-.95q-.2-.35-.05-.7l.35.85.8.65.8-.05.25-.55v-.2l-.05-.5-.3-.45-.85-.7-.2-.05h-.25l-.3.15m-.8-.6 1.05.05-.25-.05.5.2h.05q.7.25 1.2 1l.45 1.3v.1l-.1.55h.05l-.15.2.15-.1v.1l-.05.2v.05l-.85.15q-3.1-.85-2.25-3.55l.2-.2M22.8 21.3l-.15-.2q-.4-.5-.45-.95v-.2l.3-.5.15-.1.8-.75.05-.05.75-.8q-.05.35.05.7l.05.25-.1-.05-.25.15-.65.6-.65.35q1.1.2 1.7-.85l.35.7-1.55 1.25-.4.45m-5.35 7.3.1-.05q.85.7-.05.5l-.15-.25.1-.2m2.05-7 .05.1-.4.3-.05.05.05-.1.3-.35h.05m-3.2 1.15-.2.2v.2q.8.25.5-.25.5.6-.65.6l-.1-.25q.1-.4.45-.5m-.8 1.6h.05q.5.05.15-.25l-.2.25m.8.3h-.05q1.1.6-.25 1.3-.35.2-.45-.2-.15-.85.65-1.1l-.25-.15-1.3.15q.45-.4 1.15-.6h.05q.7.05.45.55v.05m1.85-2.1.2.05.2-.25q-.2 1.45-1.65 1.7l.8-.75q.95-.05.45-.75m-.3.25v-.2l.2-.05-.2.25m.75 7.6-.4-.3q.4-.6.35-1.4v-.35l.25.3v.1l-.2 1.6v.05m-2.55-5.55-.15.1-.05.15.1.25q.9.3.15-.5h-.05" fill="#ffbe46" transform="translate(-13.55 -16.2)"/><path d="M25.7 18q-.15.35.05.7l.8.95-.45-.05-.85-1.05-.05-.1-.1-.65q0-.4.25-.65l.25-.25v-.05l.1-.05.15-.1.1.15v.35l-.25.7v.1m-1.35.7.05.2q-.6 1.05-1.7.85l.65-.35.65-.6.25-.15.1.05m-8.05 4.05.1-.05h.05l.15.2q.3.5-.5.25v-.2l.2-.2m-.8 1.6.2-.25q.35.3-.15.25h-.05m2.2-1.05h-.05l.2-.5.2-.25.05-.05.05.05q.5.7-.45.75m.85 5.05L18.5 28l.45-.35q1.1 1.45-.35 2.75v-.05l.2-1.6v-.1l-.25-.3m-2.5-3.5h.05q.75.8-.15.5l-.1-.25.05-.15.15-.1" fill="#fff" transform="translate(-13.55 -16.2)"/><path d="m25.95 17.15.3-.15h.25l.2.05.85.7.3.45.05.5v.2l-.25.55-.8.05-.8-.65-.35-.85v-.1l.25-.7v-.05m2.1 3v-.05l.05-.2v-.1l-.15.1.15-.2h-.05l.1-.55v-.1l-.45-1.3q-.5-.75-1.2-1h-.05l-.5-.2.25.05-1.05-.05.05-.05q-1.05.9-.55 1.9.15 1.1 1.65 1.95 1.4.85 1.75-.2m-2-3.95q3.2 1.35 2.1 4.3-.2.5-.75.55l-1.15-.1q-.9.35-1.65.8-3.15 2.75-4.75 6.55-.15.35-.05.75.5 2.8-.6 5.3-.35.85-1.25 1.05-2.6.6-3.75-1.05l-.1-.05h.05l-.5-.95-.1-.6q.15-3.5 1.6-6.6h-.05l-.1-.05q-.2-.7.3-1.2l-1.1.15q.25-1.05 1.65-1.15l-.15-.2q-.55-1.15.75-1.3.95.65.55 1.1h.25l.4-.5-.15.05q-.35.1-.15-.2.5-.65 1.15-1l.1.25q.75-.7 1.6-1.3l.5-.35 3.35-2.9q-.15-.4.45-1 .5-.45 1.2-.35h.35m-1.7 2.5-.05-.25q-.1-.35-.05-.7l-.75.8-.05.05-.8.75-.15.1-.3.5v.2q.05.45.45.95l.15.2.5.35.15.05.75-.05.05-.05.1-.05 1.75-.75q-.6-.25-1.05-.8l-.3-.4-.35-.7-.05-.2M21.8 21l-.05-.1-.1-.65q-.7.35-1.3.9l-.7.7-.85.85.05.05v.05l-.2.45v.05l-.2.3-1.3.8-.15 1.05-.55.75-.5.15h-.05q-.85.75-1.25 1.95-.75 2.45-.55 4.95l.25 1.05.95-.2.15-.05 1.4-1.1h.05l.15-.2.15-.15.3-.25.1-.1.2-.05.35-.05h.1l.45.05.2.05.65.55v-1.55q-.25.45-.8.55h-.1l-.35-.05-.25-.05-.85-.5q-.35-.4-.4-1.05v-.05q0-.6.45-.9l.1-.4.15.25q.9.2.05-.5l-.1.05.05-.15.15-.35.2-.3.6-.45h.5l.05.05h.05l.25.15.2.1.1-.05q.2-.85.75-1.6l1.1-1.45.35-.5.5-.6 1-1.05-.05.2.1-.25v-.05l-.5-.1-.9 1.15v.05q-1.5 1.95-2.9 4l.8-1.65.2-.3.4-.7 1.4-1.65.4-.4.55-.5-.5-.35-.15-.2-.3-.5-.05-.15m-2.3.6h-.05l-.3.35-.05.1.05-.05.4-.3-.05-.1m-2.9 1.3-.15-.2h-.05l-.1.05q-.35.1-.45.5l.1.25q1.15 0 .65-.6m1.1.4-.8.75q1.45-.25 1.65-1.7l-.2.25-.2-.05-.05-.05-.05.05-.2.05v.2l-.2.5h.05m-1.4 1.35v-.05q.25-.5-.45-.55h-.05q-.7.2-1.15.6l1.3-.15.25.15q-.8.25-.65 1.1.1.4.45.2 1.35-.7.25-1.3h.05M19.5 33l-.1-.15.05-.05-.05-.05v-.05q-1.75-.75-2.7.75l-.4.5q-.9.85-1.8.55l.7.35q.45.35 1.2.35l1.25-.25q1.6-.65 1.85-1.95" fill="#371200" transform="translate(-13.55 -16.2)"/><path d="M28.05 20.15q-.35 1.05-1.75.2-1.5-.85-1.65-1.95-.5-1 .55-1.9l-.05.05-.2.2q-.85 2.7 2.25 3.55l.85-.15m-3.3-.55.3.4q.45.55 1.05.8l-1.75.75-.1.05-.05.05-.75.05-.15-.05-.5-.35.4-.45 1.55-1.25M18.6 30.4l.35.05h.15l.3-.45-.1.4.25-1.45q.05-1.3-.95-1.45l-.15.2.15-.2q1 .15.95 1.45l-.25 1.45.1-.4-.3.45h-.15l-.35-.05q1.45-1.3.35-2.75l-.45.35.05.35v.35q.05.8-.35 1.4l.4.3m.7 0-.05.05-.1.2v.05l-.05.05-.25.45-.5.05q-.3.05-.4-.2l-.2-.45-.25-.65.4-.35.15-.1.1-.35q-.1-.85.3-1.45l.05.3-.05-.3q-.4.6-.3 1.45l-.1.35-.15.1-.4.35.25.65.2.45q.1.25.4.2l.5-.05.25-.45.05-.05v-.05l.1-.2.05-.05" fill="#c47500" transform="translate(-13.55 -16.2)"/><path d="m21.35 20.6-.25.1q-1.15.95-2 2.1l2.3-2.05-.05-.15M15.3 34.1l-.95.2-.25-1.05q-.2-2.5.55-4.95.4-1.2 1.25-1.95h.05l.5-.15.55-.75.15-1.05 1.3-.8.2-.3v-.05l.2-.45v-.05l-.05-.05.85-.85.7-.7q.6-.55 1.3-.9l.1.65.05.1q-1.8 1.45-3.2 3.25l1.85-1.75 1.4-1.35.3.5q-1.9 1.7-3.4 3.7-1.2.9-1.65 2.25l-.3.95q-.25.85 0 1.55v.05q.05.65.4 1.05v.65h.05l.15.55.1-.05-.3.25-.1.05-.05.1q-1.15-2.05-.65-4.45l-.05.05q-.9 2.45.55 4.6h-.05l-1.4 1.1-.25-.5q-.1.3.1.55m2.55-6.3-.2.3-.15.35.2-.75.15.1m.2 3.9.25.05-.05.4h-.1l-.35.05-.25-.5.2-.05.2.05h.1m0-7.15q1-1.55 2.55-2.65l.8-.75-2.65 2.2-.7 1.2-.1.15.1-.15m3.8-3.15-.05.05-.45.5h.05l.45-.55m-3.4 3.9 1.25-1.55h-.05l-1.2 1.55-.45.5.45-.5m-2.75 1.5-.2.2q-1.15 2.25-1.25 4.85-.1 1.85 1.7 1.3.2-.05.05-.25l-.1-.15q-1.85-.5-1.35-2.9.35-1.65 1.15-3.05m-.45 2.55.5-2.15q-1.2 2.3-.45 4.85l.45.5q-.95-1.4-.5-3.2m3.8 2.75-.15.05-.1-.35.5.2.05.05-.25.05h-.05" fill="#95550f" transform="translate(-13.55 -16.2)"/><path d="m21.35 20.6.05.15-2.3 2.05q.85-1.15 2-2.1l.25-.1m.5.8-.45.55h-.05l.45-.5.05-.05m-3.8 3.15.7-1.2 2.65-2.2-.8.75q-1.55 1.1-2.55 2.65m.4.75 1.2-1.55h.05l-1.25 1.55m-2.75 1.5q-.8 1.4-1.15 3.05-.5 2.4 1.35 2.9l.1.15q.15.2-.05.25-1.8.55-1.7-1.3.1-2.6 1.25-4.85l.2-.2m-.45 2.55q-.45 1.8.5 3.2l-.45-.5q-.75-2.55.45-4.85l-.5 2.15m3.8 2.75h.05l.15.05-.2-.05" fill="#efad65" transform="translate(-13.55 -16.2)"/><path d="m21.8 21 .05.15-1.4 1.35-1.85 1.75q1.4-1.8 3.2-3.25m.35.65.15.2.5.35-.55.5-.4.4-1.4 1.65-.4.7-.2.3-.8 1.65q1.4-2.05 2.9-4v-.05l.9-1.15.5.1v.05l-.1.25.05-.2-1 1.05-.5.6-.35.5-1.1 1.45q-.55.75-.75 1.6l-.1.05-.2-.1-.25-.15H19l-.05-.05h-.5l-.6.45-.15-.1-.2.75-.05.15-.1.2-.1.4q-.45.3-.45.9-.25-.7 0-1.55l.3-.95q.45-1.35 1.65-2.25 1.5-2 3.4-3.7M17.2 31.2l.85.5h-.1l-.2-.05-.2.05.25.5-.2.05-.1.1-.1.05-.15-.55h-.05v-.65m1.1.55.35.05h.1q.55-.1.8-.55v1.55l-.65-.55-.2-.05-.45-.05.05-.4m-1.1.85-.15.15-.15.2q-1.45-2.15-.55-4.6l.05-.05q-.5 2.4.65 4.45l.05-.1.1-.05m-1.75 1.45-.15.05q-.2-.25-.1-.55l.25.5m3.65-1.95.25-.05-.05-.05-.5-.2.1.35.15-.05.2.05-.15-.05m.4.9q-.25 1.3-1.85 1.95l-1.25.25q-.75 0-1.2-.35l-.7-.35q.9.3 1.8-.55l.4-.5q.95-1.5 2.7-.75v.05l.05.05-.05.05.1.15" fill="#58330a" transform="translate(-13.55 -16.2)"/></g></defs></svg>