<?xml version="1.0" encoding="UTF-8" standalone="no"?>
<svg xmlns:xlink="http://www.w3.org/1999/xlink" height="17.5px" width="25.05px" xmlns="http://www.w3.org/2000/svg">
  <g transform="matrix(1.0, 0.0, 0.0, 1.0, 0.0, -3.15)">
    <use height="63.15" transform="matrix(0.2778, 0.0, 0.0, 0.277, 0.0224, 3.1659)" width="90.15" xlink:href="#sprite0"/>
  </g>
  <defs>
    <g id="sprite0" transform="matrix(1.0, 0.0, 0.0, 1.0, 19.9, -4.75)">
      <use height="63.15" transform="matrix(1.0, 0.0, 0.0, 1.0, -19.9, 4.75)" width="90.15" xlink:href="#shape0"/>
    </g>
    <g id="shape0" transform="matrix(1.0, 0.0, 0.0, 1.0, 19.9, -4.75)">
      <path d="M-1.65 35.3 L-1.6 34.9 Q0.4 40.8 2.05 43.75 L2.05 44.9 Q-0.35 42.6 -1.3 39.5 -1.9 37.55 -1.65 35.3 M4.45 46.75 L4.5 46.75 4.75 46.95 4.45 46.75" fill="#6985a0" fill-rule="evenodd" stroke="none"/>
      <path d="M42.35 38.15 Q46.35 36.05 51.1 30.45 L51.95 32.8 50.7 31.45 Q47.0 36.25 42.35 38.15" fill="#91adc8" fill-rule="evenodd" stroke="none"/>
      <path d="M45.8 11.15 Q50.7 14.9 54.05 22.2 57.6 29.25 57.4 35.2 69.2 36.35 70.2 44.65 71.0 52.7 61.95 59.4 49.1 68.65 17.6 67.85 -16.45 67.1 -19.6 51.5 -21.2 44.25 -13.7 37.55 -4.45 30.45 -1.5 26.3 2.05 21.2 7.95 9.55 14.25 1.5 24.9 7.0 L25.5 6.4 Q28.25 9.4 34.75 9.0 42.05 8.6 45.8 11.15 M53.5 35.05 Q53.35 31.25 51.9 26.1 49.1 15.5 44.2 13.7 40.85 12.55 36.5 16.05 31.8 20.0 29.05 19.6 26.5 19.2 22.95 14.9 19.0 10.15 16.65 9.4 L14.65 7.8 Q7.55 17.25 3.85 22.95 1.0 27.05 -0.4 30.55 L-2.1 33.4 -1.6 34.9 -1.65 35.3 Q-3.4 35.85 -5.05 36.55 -17.65 42.05 -15.1 52.9 -11.15 69.65 32.2 62.75 L50.3 59.8 Q61.95 56.45 64.1 49.15 64.8 47.1 63.95 45.15 63.6 43.75 62.7 42.25 59.55 36.95 53.5 35.05" fill="#405c77" fill-opacity="0.9137255" fill-rule="evenodd" stroke="none"/>
      <path d="M43.4 16.25 Q39.3 19.4 37.3 26.9 34.95 35.0 41.05 34.4 47.95 34.0 49.5 29.05 51.1 24.15 46.15 19.8 L43.4 16.25 M51.95 32.8 L51.1 30.45 Q46.35 36.05 42.35 38.15 L39.3 39.1 25.4 40.25 12.3 39.1 8.9 38.15 Q8.1 37.0 7.0 36.55 L5.25 36.55 Q0.95 34.1 -0.1 30.05 L-0.4 30.55 Q1.0 27.05 3.85 22.95 7.55 17.25 14.65 7.8 L16.65 9.4 Q19.0 10.15 22.95 14.9 26.5 19.2 29.05 19.6 31.8 20.0 36.5 16.05 40.85 12.55 44.2 13.7 49.1 15.5 51.9 26.1 53.35 31.25 53.5 35.05 52.9 33.9 51.95 32.8 M63.95 45.15 Q64.8 47.1 64.1 49.15 61.95 56.45 50.3 59.8 L32.2 62.75 Q-11.15 69.65 -15.1 52.9 -17.65 42.05 -5.05 36.55 -3.4 35.85 -1.65 35.3 -1.9 37.55 -1.3 39.5 -0.35 42.6 2.05 44.9 L2.25 46.4 4.45 46.75 4.75 46.95 Q8.05 49.6 12.85 50.8 37.6 62.0 52.65 56.85 65.75 52.5 63.95 45.15 M39.85 14.3 Q33.15 18.25 31.2 21.8 29.65 24.95 31.8 25.7 38.1 28.1 41.25 14.7 L39.85 14.3 M14.1 13.9 L12.3 13.7 Q9.15 18.45 7.55 21.6 5.0 27.3 9.35 27.5 13.5 27.5 14.25 22.0 L14.45 17.95 Q14.7 19.85 15.25 22.0 17.0 30.25 20.35 31.45 23.15 32.4 25.9 27.3 28.65 22.35 21.95 15.7 15.45 9.2 14.65 9.95 14.1 11.6 14.1 13.9 M5.8 52.5 Q-2.1 43.25 -2.3 42.45 L-5.25 40.9 Q-12.7 45.6 -9.15 52.1 -5.6 58.2 2.65 58.0 10.35 57.8 5.8 52.5" fill="#405c77" fill-opacity="0.3019608" fill-rule="evenodd" stroke="none"/>
      <path d="M39.85 14.3 L41.25 14.7 Q38.1 28.1 31.8 25.7 29.65 24.95 31.2 21.8 33.15 18.25 39.85 14.3 M14.1 13.9 L14.45 13.9 14.45 17.95 14.25 22.0 Q13.5 27.5 9.35 27.5 5.0 27.3 7.55 21.6 9.15 18.45 12.3 13.7 L14.1 13.9 M5.8 52.5 Q10.35 57.8 2.65 58.0 -5.6 58.2 -9.15 52.1 -12.7 45.6 -5.25 40.9 L-2.3 42.45 Q-2.1 43.25 5.8 52.5" fill="#405c77" fill-opacity="0.09019608" fill-rule="evenodd" stroke="none"/>
      <path d="M43.4 16.25 L46.15 19.8 Q51.1 24.15 49.5 29.05 47.95 34.0 41.05 34.4 34.95 35.0 37.3 26.9 39.3 19.4 43.4 16.25 M25.45 51.65 Q31.25 53.0 39.3 50.95 48.75 48.35 52.45 43.45 55.65 39.3 53.5 35.05 59.55 36.95 62.7 42.25 63.6 43.75 63.95 45.15 65.75 52.5 52.65 56.85 37.6 62.0 12.85 50.8 18.25 52.15 25.45 51.65 M14.45 17.95 L14.45 13.9 14.1 13.9 Q14.1 11.6 14.65 9.95 15.45 9.2 21.95 15.7 28.65 22.35 25.9 27.3 23.15 32.4 20.35 31.45 17.0 30.25 15.25 22.0 14.7 19.85 14.45 17.95" fill="#405c77" fill-opacity="0.6901961" fill-rule="evenodd" stroke="none"/>
      <path d="M-0.4 30.55 L-0.1 30.05 Q0.95 34.1 5.25 36.55 L4.6 36.55 Q2.2 40.35 2.05 43.75 0.4 40.8 -1.6 34.9 L-2.1 33.4 -0.4 30.55 M8.9 38.15 L12.3 39.1 25.4 40.25 25.1 40.3 18.6 41.85 Q16.65 48.95 23.7 51.15 L25.45 51.65 Q18.25 52.15 12.85 50.8 8.05 49.6 4.75 46.95 L4.5 46.75 10.9 48.0 10.15 41.5 Q9.75 39.4 8.9 38.15" fill="#405c77" fill-opacity="0.17254902" fill-rule="evenodd" stroke="none"/>
      <path d="M42.35 38.15 Q47.0 36.25 50.7 31.45 L51.95 32.8 Q52.9 33.9 53.5 35.05 55.65 39.3 52.45 43.45 48.75 48.35 39.3 50.95 31.25 53.0 25.45 51.65 L23.7 51.15 Q16.65 48.95 18.6 41.85 L25.1 40.3 25.4 40.25 39.3 39.1 42.35 38.15" fill="#405c77" fill-opacity="0.4" fill-rule="evenodd" stroke="none"/>
    </g>
  </defs>
</svg>
