<svg height="57.6" width="57.6" xmlns:xlink="http://www.w3.org/1999/xlink" xmlns="http://www.w3.org/2000/svg"><g transform="translate(28.8 28.8)" style="stroke:none;stroke-opacity:1"><use height="50" transform="translate(-28.776 -28.776) scale(1.151)" width="50" xlink:href="#a" style="fill:#fff;fill-opacity:1"/><use height="50" transform="rotate(.533 2700.418 -2675.622)" width="50" xlink:href="#a" style="stroke:none;stroke-opacity:1" fill="url(#b)"/><use height="75" transform="matrix(.491 0 0 .5192 -15.939 -20.367)" width="63.6" xlink:href="#c" style="stroke:none;stroke-opacity:1"/><use height="21" transform="translate(-.55 -24)" width="21" xlink:href="#d" style="display:inline;stroke:none;stroke-opacity:1"/></g><defs><path d="M17.7-17.7Q25-10.35 25 0q0 10.3-7.3 17.65Q10.35 25 0 25t-17.65-7.35Q-25 10.3-25 0q0-10.35 7.35-17.7Q-10.35-25.05 0-25q10.35-.05 17.7 7.3" fill-rule="evenodd" transform="translate(25 25)" id="e"/><path d="m-18.65 22.35 2.35-1.45q3.1-1.75 6.95-1.35 2.2.2 4.15 1.25l3.8 7.95q.25 2.4-.1 2.85l-.1.2q-2.25 2.75-10.25 4.75-8.8 2.1-14.7-.05l-.65-.35q-.4-.4-.45-2.7-.65-1.2 1.35-3.65l1.05-1.25 6.6-6.2M6.1-36.2q7.15 3.05 10.75 9.9 3.2 6.2 5.3 13.1 1.45 4.65 1.75 9.4 3.5 1.1 6.2 3.7 2.55 2.55 1.4 5.85l-.8.55-.25 2.7-.2.6h-.45q-.05 1.25-.9 2.25l-.9.65-1.5-.45q-2.15-2.25-3-5.1L22.35 9.5l-1.25-.05q-1.45 2.05-3.5 3.75-5.7 4.8-13.15 6.1-7.5.85-14.45-1.5-6.95-2.35-10.65-8.2l-.3.8-1.3.05-1.1-2.55q-.9 2.85-3 5.1l-1.5.45-.9-.65q-.9-1-.95-2.25h-.4l-.25-.6-.2-2.7-.85-.55q-1.1-3.3 1.45-5.85 2.5-2.45 5.8-3.6v-.15q.3-6.6 3.05-14 2.7-7.4 7.4-12.95 4.65-5.6 11.55-7.4 4.3-.6 8.25 1.05m13.3 57.8 6.65 6.2 1.05 1.25q1.95 2.45 1.3 3.65-.05 2.3-.45 2.7l-.65.35q-5.9 2.15-14.65.05-8.05-2-10.25-4.75l-.15-.2Q1.9 30.4 2.2 28L6 20.05Q7.9 19 10.15 18.8q3.8-.4 6.95 1.35l2.3 1.45" fill="#fff" fill-rule="evenodd" transform="translate(31.75 37.4)" id="f"/><use height="50" width="50" xlink:href="#e" id="a"/><use height="75" width="63.6" xlink:href="#f" id="c"/><radialGradient cx="0" cy="0" gradientTransform="scale(.0307)" gradientUnits="userSpaceOnUse" id="b" r="819.2" spreadMethod="pad"><stop offset=".435" stop-color="#860039"/><stop offset=".804" stop-color="#f6005d"/></radialGradient><g id="d" fill="#fff" fill-rule="evenodd"><path d="M2.55-6.05q-3.1-3.1-3.1-7.45t3.1-7.4Q5.6-24 9.95-24q4.35 0 7.45 3.1 3.05 3.05 3.05 7.4 0 4.35-3.05 7.45Q14.3-3 9.95-3t-7.4-3.05" fill-opacity=".192" transform="translate(.55 24)"/><path d="M4.85-8.85q-1.9-1.9-1.9-4.6 0-2.7 1.9-4.6 1.9-1.9 4.6-1.9 2.7 0 4.6 1.9 1.9 1.9 1.9 4.6 0 2.7-1.9 4.6-1.9 1.9-4.6 1.9-2.7 0-4.6-1.9" fill-opacity=".502" transform="translate(.55 24)"/></g></defs></svg>