<svg xmlns="http://www.w3.org/2000/svg" xmlns:xlink="http://www.w3.org/1999/xlink" width="25" height="14.6"><use xlink:href="#a" width="89.8" height="52.65" transform="matrix(.2783 0 0 .2775 .024 -.018)"/><defs><use xlink:href="#b" id="a" width="89.8" height="52.65"/><g id="b" fill="#3f5a75" fill-rule="evenodd"><path fill-opacity=".953" d="M72.1 5Q70.75 3.9 69 3.9q.8 2.55 3.35 4.3l1.55.95q2.2 2.8 3.35 5.35l2.35 3.9q1.55 1.55 3.9 1.4-.95 0-2.75-3.95l-2.35-4.7q-1.95-3.3-3.1-4.5Q73.85 5.2 72.1 5m-4.05 4.2Q62.95 4.5 64.1 0q9.25-.4 17.25 10.4 7.45 9.55 8.4 19.15.8 10-7.2 17.05-7.85 6.45-18.05 6.05-13.3-.5-19.45-9.7-6.3 9.2-19.9 9.7-10 .4-17.8-6.05Q-.9 39.55.1 29.55q.8-9.6 8.2-19.15Q16.35-.4 25.55 0q1.35 4.5-3.9 9.2-5.9 5.3-6.1 7.85 4.3-1.4 10.4-.6 5.85.6 9.8 2.75 4.45 2.3 7.3 4.9h2.1l1.55.1q2.8-2.65 7.25-5 4.1-2.15 9.8-2.75 6.05-.8 10.35.6-.2-2.75-6.05-7.85m-18.3 28.7q.4 4.55 6.35 6.95 9.2 3.7 19.55-.6 11-4.5 8.45-13.3-1.15-4.25-4.1-6.55-1.95-5.4-11.55-5.8-8.85-.4-14.9 2.55-3.8 1.8-5.35 4.8l-.15.1-.1.15q-9.2-3.2-6.75 4.55 2.7 7.85 6.65 4.5.65 1.55 1.9 2.65M16.9 8.2l1.6-.95q2.75-1.75 3.35-4.3-1.7 0-3 1.05-1.75.15-3.3 1.7-1.15 1.15-3.1 4.5Q8.1 19 7.15 19l.55.05Q4.8 20.1 4.55 22.4q-3.9 3.2-3.5 8.95.5 6.2 6.25 7.75 2.15 3.05 7.3 5.15 10.35 4.3 19.55.6Q43 41.5 39.65 32.9q-1.7-4.2-5.2-6.85l-.3-1.55Q32.6 18.4 22.4 18q-7.75-.35-13.4 1.9l-.3-.95q1.5-.3 2.55-1.5l2.35-3.95q1.05-2.35 3.3-5.3"/><path fill-opacity=".282" d="M73.9 9.15q1.7.85 3.55 1.25L73.7 6.05l-.75-.2L72.1 5q1.75.2 3.2 1.65 1.15 1.2 3.1 4.5l2.35 4.7q1.8 3.95 2.75 3.95-2.35.15-3.9-1.4l-2.35-3.9q-1.15-2.55-3.35-5.35M18.85 4l-.95.9-.75.2-3.75 4.3q1.85-.4 3.5-1.2-2.25 2.95-3.3 5.3l-2.35 3.95q-1.05 1.2-2.55 1.5l-1 .1-.55-.05q.95 0 5.3-8.8 1.95-3.35 3.1-4.5 1.55-1.55 3.3-1.7"/><path fill-opacity=".8" d="M49.75 37.9q-1.25-1.1-1.9-2.65-3.95 3.35-6.65-4.5-2.45-7.75 6.75-4.55-.6 1.15-.25 3.15 2.5-.2 3.9-2.15 1.15-1.95-.4-3.3l-.4.6q-1.8.7-2.6 1.45 1.55-3 5.35-4.8 6.05-2.95 14.9-2.55 9.6.4 11.55 5.8-4.25-3.3-12.35-2.45Q54.55 23.3 50.6 32.9q-1.1 2.75-.85 5M9 19.9q5.65-2.25 13.4-1.9 10.2.4 11.75 6.5l.3 1.55q-4.5-3.35-11.85-4.1-13.7-1.4-16.45 9-1.35 4.7 1.15 8.15-5.75-1.55-6.25-7.75-.4-5.75 3.5-8.95l.05 1.3q2.55 0 3.9-1.95.6-.95.5-1.85"/><path fill-opacity=".49" d="M75.85 25.05q-2.7-2.15-7.2-2.15-4.15.2-7.65 1.75-2.75 1-5.7 4.15-3.7 3.7-.6 5.45 3.15 1.95 12.35-3.5 4.5-2.75 8.8-5.7M80 24.4q2.95 2.3 4.1 6.55 2.55 8.8-8.45 13.3-10.35 4.3-19.55.6-5.95-2.4-6.35-6.95-.25-2.25.85-5 3.95-9.6 17.05-10.95 8.1-.85 12.35 2.45m2.55 6.75q-1.2.55-3.35 2.55-1.95 2.35-3.55 2.9-3.9 1.95-10.55 2.75L54.55 40.9q5.25 4.7 14.85 4.35 3.95 0 7.05-2.55 6.45-4.3 6.1-11.55m-48.1-5.1q3.5 2.65 5.2 6.85 3.35 8.6-5.5 11.95-9.2 3.7-19.55-.6-5.15-2.1-7.3-5.15-2.5-3.45-1.15-8.15 2.75-10.4 16.45-9 7.35.75 11.85 4.1m-7.35-.2q-3.9-1.95-7.05-2.35-3.7-.8-7.4 1-4.15 2.15-4.35 5.65-.35 5.3 11.95 5.5 12.15.2 12.55-3.55.2-3.7-5.7-6.25m-2.35 20.5L28.9 46q4.85-.95 7.8-3.3 3.55-2.95 2.15-7.45-2.35-.6-6.05 2.15-4.5 3.35-6.1 3.7l-8.4.8q-6.4 0-7.95-1.7 5.25 6.05 13.9 6.15l.3.05.2-.05"/><path fill-opacity=".224" d="M75.85 25.05q-4.3 2.95-8.8 5.7-9.2 5.45-12.35 3.5-3.1-1.75.6-5.45 2.95-3.15 5.7-4.15 3.5-1.55 7.65-1.75 4.5 0 7.2 2.15m-13.1 1L59.6 27q-2.35 0-3.7 1.8-1.35 1.75-1 4.1 3.75.2 8.45-2.95 4.9-3.15-.6-3.9m-45.05 0q-2.55-1-5.85.95-3.75 2-1.4 4.7 1.6 1.8 6.3-.2 4.9-1.95 2.55-4.7l-1.6-.75m9.4-.2q5.9 2.55 5.7 6.25-.4 3.75-12.55 3.55-12.3-.2-11.95-5.5.2-3.5 4.35-5.65 3.7-1.8 7.4-1 3.15.4 7.05 2.35"/><path fill-opacity=".702" d="M82.55 31.15q.35 7.25-6.1 11.55-3.1 2.55-7.05 2.55-9.6.35-14.85-4.35l10.55-1.55q6.65-.8 10.55-2.75 1.6-.55 3.55-2.9 2.15-2 3.35-2.55m-58.3 15.2q-8.65-.1-13.9-6.15 1.55 1.7 7.95 1.7l8.4-.8q1.6-.35 6.1-3.7 3.7-2.75 6.05-2.15 1.4 4.5-2.15 7.45-2.95 2.35-7.8 3.3l-4.15.35 5.3-1.7q1.95.4 3.15-.8 1.35-.95 1.15-3.1-3.1.15-12.7 4.7.5.5 2.6.9M78.8 37.4q-9.6 1.35-13.9 4.5v1.2q11.95 3.1 13.9-5.7"/><path fill-opacity=".733" d="M24.25 46.35q-2.1-.4-2.6-.9 9.6-4.55 12.7-4.7.2 2.15-1.15 3.1-1.2 1.2-3.15.8l-5.3 1.7-.2.05-.3-.05M78.8 37.4q-1.95 8.8-13.9 5.7v-1.2q4.3-3.15 13.9-4.5"/></g></defs></svg>