<svg xmlns="http://www.w3.org/2000/svg" xmlns:xlink="http://www.w3.org/1999/xlink" width="21.25" height="20.85"><use xlink:href="#a" width="76.25" height="75.1" transform="matrix(.2783 0 0 .2775 .007 0)"/><defs><use xlink:href="#b" id="a" width="76.25" height="75.1"/><g id="b" fill="#3f5a75" fill-rule="evenodd"><path fill-opacity=".643" d="M54.8 69.7q-6.1-.15-10.55-4.6-4.55-4.45-4.55-11 0-6.4 4.55-10.95 4.2-4.2 9.85-4.55-1.65.15-3.25.75v1.35q-1.9.5-3.95 2.9-3.75 4.45-3.1 7.9.65 2.8 2.75 2.6l4.3-.8v15.75l3.95.65"/><path fill-opacity=".792" d="M56.8 38.65q5.4.45 9.45 4.5 4.6 4.55 4.6 10.95 0 6.55-4.6 11-3.2 3.2-7.25 4.2l2.8-1.1V40q-2.7-1.1-5-1.35"/><path fill-opacity=".733" d="M31.8 10q4.6 4.45 4.6 11 0 6.4-4.6 10.95-4.6 4.6-11 4.6-6.35 0-10.95-4.6Q5.25 27.4 5.25 21q0-6.55 4.6-11 4.6-4.6 10.95-4.6 6.4 0 11 4.6m-8.95 3.85Q23 11.95 21.5 10q-3.45-4.25-9.55 0-6.2 4.25-3.1 8.7 1.8 2.7 4.6 2.65.1 2.85 2.15 4.9 2.1 2.1 5.2 2.1 3.15 0 5.25-2.1Q28.2 24.1 28.2 21q0-3.15-2.15-5.25-1.35-1.4-3.2-1.9"/><path fill-opacity=".18" d="M22.85 13.85q1.85.5 3.2 1.9 2.15 2.1 2.15 5.25 0 3.1-2.15 5.25-2.1 2.1-5.25 2.1-3.1 0-5.2-2.1-2.05-2.05-2.15-4.9 2.3-.1 5.25-2 3.9-2.65 4.15-5.5"/><path fill-opacity=".961" d="M70 39.35q6.25 6.25 6.25 14.75 0 8.7-6.25 14.95-6.05 6.05-14.75 6.05T40.5 69.05q-6.05-6.25-6.05-14.95 0-8.5 6.05-14.75 6.25-6.05 14.75-6.05 8.7 0 14.75 6.05M59 69.3q4.05-1 7.25-4.2 4.6-4.45 4.6-11 0-6.4-4.6-10.95-4.05-4.05-9.45-4.5l-2.7-.05q-5.65.35-9.85 4.55Q39.7 47.7 39.7 54.1q0 6.55 4.55 11 4.45 4.45 10.55 4.6h1.05l3.15-.4M31.8 10q-4.6-4.6-11-4.6-6.35 0-10.95 4.6-4.6 4.45-4.6 11 0 6.4 4.6 10.95 4.6 4.6 10.95 4.6 6.4 0 11-4.6Q36.4 27.4 36.4 21q0-6.55-4.6-11m3.8 25.75q-6.1 6.05-14.8 6.05-8.5 0-14.75-6.05Q0 29.7 0 21T6.05 6.05Q12.15 0 20.8 0q8.7 0 14.8 6.05Q41.8 12.3 41.8 21q0 8.5-6.2 14.75"/></g></defs></svg>