<svg xmlns="http://www.w3.org/2000/svg" xmlns:xlink="http://www.w3.org/1999/xlink" width="17.9" height="22.95"><use xlink:href="#a" width="69.1" height="88.6" transform="matrix(.259 0 0 .2591 -.014 -.004)"/><defs><use xlink:href="#b" id="a" width="69.1" height="88.6"/><g id="b" fill-rule="evenodd"><path fill="#7590ab" d="M50.75 76.4q-.65.4-2.5-.45l2.5.45"/><path fill="#5a7590" d="M51.25 70.3h.25l-.4 6.05-.35.05-2.5-.45q-1.45-.45-3.2-1.4-3.15-1.7-3.85-3.45l-.2-.8h10.25"/><path fill="#3f5a75" fill-opacity=".902" d="m54.35 21.8 2-8.25q1-4.85-.4-8.7L51.7 8.7q-2.8 2.4-4.05 4.45l-10.3-.4-4.6.75-4.65-.75-10.3.4-4.05-4.45L9.5 4.85q-1.4 3.85-.4 8.7l2 8.25q.45 2.85.45 7l.35.3 3.45 1.4q1.8 1.4 1.8 2.85 0 1.6-2 2-1.3.2-3.35-1l.4 1.6 2.15.4 5.85 3.25q-1.3 1.05-5.3.9l.25.3q3.65 4.25 9.9 5.65l7.65.5q3.65.55 7.7-.5 6.25-1.4 9.9-5.65l.4-.4q-1.5-.25-2.2-.8l4.25-2.35.7-1.9q-1.95-.45-1.95-2 0-1.45 2.05-2.85l.35-.15q-.05-5.2.45-8.55m3.25 12-.4 2.2 5-.85q5.45-.6 6.7 1.6Q66.85 39 58.8 40l-3.3.4-.35.65q2.9 2.95 5.45 6.8 5.65 8.7 7.05 17.6l1.45 8.5q.2 4.6-3.45 7.25-2.85 2-8.5 1.8-5.85-.4-7.05-3.2-2.25-1.45-5.65-2.05-1.2 2.05-2.85 5.65-1.6 3.05-4.85 4.25-3.4 1.65-7.85.4-5.05-1.2-5.05-4.65l-5.65.45q-4.05.2-5.25-1.05-2.25-2.2 0-8.25 2.8-7.5 2.8-9.3 0-3.65-1.2-10.9-1.1-5.85-1.35-9.6-2.35-2.15-3.8-4.8-7.65-1-9.4-3.2 1.2-2.2 6.45-1.6l1.25.1-.45-2.95-.1-1.5-3.7-2.5Q.6 26.05 1 23.85l6 2.2q-.25-9 .05-25.45L9.5 0q2.4 1 4.85 4.25 2.6 3.65 4.25 4.65 3.2 1.8 6.65.6 4.25-1.6 6.45-1.2l.8.2.85-.2q2.2-.4 6.65 1.2 3.45 1.2 6.45-.6 1.6-1 4.25-4.65Q53.1 1 55.75 0l2.2.6q.7 17.3.15 27.5 3.2-2.15 9.55-4.25.6 2.2-2.2 4.45-3.65 2.2-5.05 3.2l-2.8 2.3m-21-3.4q.05-1.05.35-1.9 1.45-4.05 3.85-4.05 2.45 0 2.45 4.25 0 3-2.25 6.05h-4.05l-.35-4.35m-7.05 4.35h-3.3q-2.2-3.05-2.2-6.05l.2-2.15q.5-2.3 2.2-2.3 1.05 0 1.9.75 1 .9 1.75 2.95l.2.55q.8 2.4 0 6.25h-.75m22.7 9.85-.55.45q-4.65 4.25-13.75 6.45l-1.8.4-3.65.4-3.6-.4-1.85-.4q-5.3-1.4-9.2-3.5l.05.35q-.05 3.15.9 8.8 1.2 6.9.2 10.7-.8 3.05-2.85 8.1-.6 3.45 6.05 3.05.85-1.25 1.85-5.7.8-3.6 2-4.4.4 1 .6 9.45 0 4.65 5.05 5.25 6.7.65 6.5-4.2-1.45-6.7-.85-9.9.6-2.65 1.05-3.45.45-.7 1.2.25-1.4 1.9 1.6 4.8.7 1.75 3.85 3.45 1.75.95 3.2 1.4 1.85.85 2.5.45l.35-.05.4-6.05h-.25q.05-1.85.25-3.05l-.15-.05q1.15-1.45 3.2 2.9 1.4 2.8 1.6 6.85.8 2.45 6.65 1.2 1.65-8.65-.8-17.75-2.8-9.3-8.9-15.55l-.55-.55-.3.3"/><path fill="#3f5a75" fill-opacity=".6" d="M48.6 25.35q-.25-4.9-5.6-5.75-5.25-.8-6.25 4.65v.1q-.15-9.3 8.1-6.55 6.5 2.05 3.75 7.55M28.4 20.9q-1.6-1.7-4.75-1.1-6.3.95-5.7 7.35-5.1-6.95 2.65-9.35 6.5-2.2 7.8 3.1M17.9 48.35l-.05-.35q3.9 2.1 9.2 3.5l1.85.4 3.6.4 3.65-.4 1.8-.4q9.1-2.2 13.75-6.45l.55-.45.25 1.85q.2 11.95-16.75 12.75-16.3.8-17.85-10.85M51.35 67.2l.15.05q-.2 1.2-.25 3.05H41l.2.8q-3-2.9-1.6-4.8l.6-.65q.6-.6 2.4-.6 1.65 0 8.75 2.15M32.7 40.4q-2.8 0-5.05-2-2.2-2.05 4.65-2.05 7.1 0 5.05 2.05-1.8 2-4.65 2m-4 37.15.2-1.8q1.6-1.2 4.45-.8 2.8.6 2.2 2.8l-6.85-.2m-9.9-5.65q2.6-.4 2.6 2.05-1.8.2-4.05-.85l1.45-1.2"/><path fill="#3f5a75" fill-opacity=".2" d="M54.35 21.8q-.5 3.35-.45 8.55l-.35.15q-2.05 1.4-2.05 2.85 0 1.55 1.95 2l-.7 1.9-4.25 2.35q.7.55 2.2.8l-.4.4q-3.65 4.25-9.9 5.65-4.05 1.05-7.7.5l-7.65-.5q-6.25-1.4-9.9-5.65l-.25-.3q4 .15 5.3-.9l-5.85-3.25-2.15-.4-.4-1.6q2.05 1.2 3.35 1 2-.4 2-2 0-1.45-1.8-2.85l-3.45-1.4-.35-.3q0-4.15-.45-7l-2-8.25q-1-4.85.4-8.7l4.25 3.85 4.05 4.45 10.3-.4 4.65.75 4.6-.75 10.3.4Q48.9 11.1 51.7 8.7l4.25-3.85q1.4 3.85.4 8.7l-2 8.25m-5.75 3.55q2.75-5.5-3.75-7.55-8.25-2.75-8.1 6.55-.4 1.9-.15 6.05l.35 4.35q6.5.4 9.7-1 2.1-5.1 1.95-8.4m-18.5 2.6q.1-2.4-.2-3.7-.4-2.2-1.5-3.35-1.3-5.3-7.8-3.1-7.75 2.4-2.65 9.35.25 2.85 1.85 6.8 2.6 1 9.7 1l.05-.2h.75q.8-3.85 0-6.25l-.2-.55m-12.2 20.4Q19.45 60 35.75 59.2q16.95-.8 16.75-12.75l-.25-1.85.3-.3.55.55Q59.2 51.1 62 60.4q2.45 9.1.8 17.75-5.85 1.25-6.65-1.2-.2-4.05-1.6-6.85-2.05-4.35-3.2-2.9-7.1-2.15-8.75-2.15-1.8 0-2.4.6l-.6.65q-.75-.95-1.2-.25-.45.8-1.05 3.45-.6 3.2.85 9.9.2 4.85-6.5 4.2-5.05-.6-5.05-5.25-.2-8.45-.6-9.45-1.2.8-2 4.4-1 4.45-1.85 5.7-6.65.4-6.05-3.05 2.05-5.05 2.85-8.1 1-3.8-.2-10.7-.95-5.65-.9-8.8m14.8-7.95q2.85 0 4.65-2 2.05-2.05-5.05-2.05-6.85 0-4.65 2.05 2.25 2 5.05 2M18.8 71.9l-1.45 1.2q2.25 1.05 4.05.85 0-2.45-2.6-2.05m9.9 5.65 6.85.2q.6-2.2-2.2-2.8-2.85-.4-4.45.8l-.2 1.8"/></g></defs></svg>