<svg xmlns:xlink="http://www.w3.org/1999/xlink" height="38.45" width="65.05" xmlns="http://www.w3.org/2000/svg"><use height="38.45" width="65.05" xlink:href="#a"/><defs><linearGradient gradientTransform="matrix(0 .0091 -.0109 0 -1.6 6.55)" gradientUnits="userSpaceOnUse" id="b" spreadMethod="pad" x1="-819.2" x2="819.2"><stop offset="0" stop-color="#a35b1f"/><stop offset="1" stop-color="#f4a33b"/></linearGradient><linearGradient gradientTransform="matrix(0 -.008 .0087 0 -6.3 -8.3)" gradientUnits="userSpaceOnUse" id="c" spreadMethod="pad" x1="-819.2" x2="819.2"><stop offset="0" stop-color="#f9c441"/><stop offset="1" stop-color="#b16322"/></linearGradient><linearGradient gradientTransform="matrix(0 -.0056 .0037 0 22.25 -3.95)" gradientUnits="userSpaceOnUse" id="d" spreadMethod="pad" x1="-819.2" x2="819.2"><stop offset="0" stop-color="#f9c441"/><stop offset="1" stop-color="#b16322"/></linearGradient><linearGradient gradientTransform="matrix(0 .0061 -.0085 0 4.8 12.35)" gradientUnits="userSpaceOnUse" id="e" spreadMethod="pad" x1="-819.2" x2="819.2"><stop offset="0" stop-color="#a35b1f"/><stop offset="1" stop-color="#f9a73d"/></linearGradient><linearGradient gradientTransform="matrix(0 .0051 -.0075 0 .85 5.9)" gradientUnits="userSpaceOnUse" id="f" spreadMethod="pad" x1="-819.2" x2="819.2"><stop offset="0" stop-color="#a35b1f"/><stop offset="1" stop-color="#f9a73d"/></linearGradient><linearGradient gradientTransform="matrix(.0149 -.0065 .3991 .9156 -8.05 -.4)" gradientUnits="userSpaceOnUse" id="g" spreadMethod="pad" x1="-819.2" x2="819.2"><stop offset="0" stop-color="#f9c441"/><stop offset="1" stop-color="#d28e2f"/></linearGradient><linearGradient gradientTransform="matrix(-.0129 .0075 -.0033 -.0058 -4.7 -6.05)" gradientUnits="userSpaceOnUse" id="h" spreadMethod="pad" x1="-819.2" x2="819.2"><stop offset="0" stop-color="#f9c441"/><stop offset="1" stop-color="#b16322"/></linearGradient><linearGradient gradientTransform="matrix(0 .0053 -.0065 0 -11.05 4.8)" gradientUnits="userSpaceOnUse" id="i" spreadMethod="pad" x1="-819.2" x2="819.2"><stop offset="0" stop-color="#a35b1f"/><stop offset="1" stop-color="#f9a73d"/></linearGradient><linearGradient gradientTransform="matrix(.0013 .0023 -.0023 .0014 -13.4 2.6)" gradientUnits="userSpaceOnUse" id="j" spreadMethod="pad" x1="-819.2" x2="819.2"><stop offset="0" stop-color="#99521c"/><stop offset="1" stop-color="#e79736"/></linearGradient><linearGradient gradientTransform="matrix(-.0008 .0029 -.0024 -.0006 -11.35 -2.6)" gradientUnits="userSpaceOnUse" id="k" spreadMethod="pad" x1="-819.2" x2="819.2"><stop offset="0" stop-color="#cc862c"/><stop offset="1" stop-color="#f1b73d"/></linearGradient><linearGradient gradientTransform="matrix(0 .0051 -.0067 0 4.3 -4.25)" gradientUnits="userSpaceOnUse" id="l" spreadMethod="pad" x1="-819.2" x2="819.2"><stop offset="0" stop-color="#b16322"/><stop offset="1" stop-color="#f9c441"/></linearGradient><linearGradient gradientTransform="matrix(0 .0063 -1 0 -.15 -2.3)" gradientUnits="userSpaceOnUse" id="m" spreadMethod="pad" x1="-819.2" x2="819.2"><stop offset="0" stop-color="#b16322"/><stop offset="1" stop-color="#f9c441"/></linearGradient><linearGradient gradientTransform="matrix(0 .0043 -.0062 0 -4.15 4.95)" gradientUnits="userSpaceOnUse" id="n" spreadMethod="pad" x1="-819.2" x2="819.2"><stop offset="0" stop-color="#a35b1f"/><stop offset="1" stop-color="#f9a73d"/></linearGradient><linearGradient gradientTransform="matrix(0 .0054 -.0078 0 9.4 4.85)" gradientUnits="userSpaceOnUse" id="o" spreadMethod="pad" x1="-819.2" x2="819.2"><stop offset="0" stop-color="#a35b1f"/><stop offset="1" stop-color="#f9a73d"/></linearGradient><linearGradient gradientTransform="matrix(0 .0032 -.0062 0 -1.4 5.6)" gradientUnits="userSpaceOnUse" id="p" spreadMethod="pad" x1="-819.2" x2="819.2"><stop offset="0" stop-color="#a65c1f"/><stop offset="1" stop-color="#e79736"/></linearGradient><linearGradient gradientTransform="matrix(0 .0046 -.0052 0 11.15 5.4)" gradientUnits="userSpaceOnUse" id="q" spreadMethod="pad" x1="-819.2" x2="819.2"><stop offset="0" stop-color="#a65c1f"/><stop offset="1" stop-color="#e79736"/></linearGradient><linearGradient gradientTransform="matrix(-.0009 .0033 -.0034 -.0009 -.05 -5)" gradientUnits="userSpaceOnUse" id="r" spreadMethod="pad" x1="-819.2" x2="819.2"><stop offset="0" stop-color="#db9833"/><stop offset="1" stop-color="#f9c441"/></linearGradient><linearGradient gradientTransform="matrix(-.0022 .0013 -.0013 -.0022 6.05 1.9)" gradientUnits="userSpaceOnUse" id="s" spreadMethod="pad" x1="-819.2" x2="819.2"><stop offset="0" stop-color="#a35b1f"/><stop offset="1" stop-color="#e19234"/></linearGradient><linearGradient gradientTransform="matrix(-.0006 -.0023 .0051 -.0014 10.4 9.65)" gradientUnits="userSpaceOnUse" id="t" spreadMethod="pad" x1="-819.2" x2="819.2"><stop offset="0" stop-color="#a65c1f"/><stop offset="1" stop-color="#e79736"/></linearGradient><linearGradient gradientTransform="matrix(-.0041 .0041 -.003 -.003 -15.1 -4.7)" gradientUnits="userSpaceOnUse" id="u" spreadMethod="pad" x1="-819.2" x2="819.2"><stop offset="0" stop-color="#d69330"/><stop offset="1" stop-color="#f9c441"/></linearGradient><linearGradient gradientTransform="matrix(0 .0024 -.003 0 -8.25 3.3)" gradientUnits="userSpaceOnUse" id="v" spreadMethod="pad" x1="-819.2" x2="819.2"><stop offset="0" stop-color="#a35b1f"/><stop offset="1" stop-color="#e19234"/></linearGradient><linearGradient gradientTransform="matrix(.0071 .0071 -.0023 .0023 -10.1 7.7)" gradientUnits="userSpaceOnUse" id="w" spreadMethod="pad" x1="-819.2" x2="819.2"><stop offset="0" stop-color="#a65c1f"/><stop offset="1" stop-color="#e79736"/></linearGradient><linearGradient gradientTransform="matrix(.0047 .0047 -.0064 .0064 20 -9.1)" gradientUnits="userSpaceOnUse" id="x" spreadMethod="pad" x1="-819.2" x2="819.2"><stop offset="0" stop-color="#914e22"/><stop offset="1" stop-color="#f9c441"/></linearGradient><g id="a" fill-rule="evenodd"><path d="m14.35-14.75 1.9-.3.8.05.45-.65q2.1-3 5.6-2.35 3.55.65 4.45 4.15l.2.8.75.25q3.45 1 3.95 4.65v.1l.05.55v.05q0 3.05-2.65 4.75l-.65.4v.95q0 1.05-.6 2.35.75 3.15.75 4.6 0 5.85-5.05 9.8-4.4 3.5-9.65 3.7l-25.95-1-.15-.05q-8.75-.95-11.75-2-4.55-1.6-6.85-5.7-2.5-4.45-2.5-11.15 0-10.95 6.4-15.25 4.45-3 11.15-3.15l11.85 1.05.9.15 16.6 3.25" fill="#f5d07c" transform="translate(32.55 19.2)"/><path d="m14.45-12.7 1.65-.35 1.95.15 1.1-1.6q1.3-1.95 3.6-1.5 2.25.4 2.85 2.65l.45 1.9 1.9.55q2.25.65 2.5 3l.05.45q0 1.9-1.7 3.05l-1.65 1 .05 2.05q0 1.2-.75 2.1.9 3.15.9 4.85 0 4.95-4.4 8.35-3.85 3-8.4 3.15l-25.6-1h-.2q-8.35-.95-11-1.85-4.1-1.35-6.05-4.85-2.25-4.2-2.25-10.2 0-9.8 5.5-13.6 4.05-2.7 10.35-2.8l11.25 1.05.9.1q6.65 1 17 3.35" fill="#e0b962" transform="translate(32.55 19.2)"/><path d="M14.55-11.75q.7-.45 1.5-.4l2.45.15 1.4-2q.95-1.4 2.7-1.15 1.75.35 2.15 2l.55 2.4 2.4.7q1.65.5 1.9 2.25v.35q0 1.45-1.25 2.25l-2.1 1.3.05 2.55q0 1.1-.8 1.9.95 3.4.95 5.05 0 4.55-4.1 7.7-3.55 2.75-7.85 2.95l-25.45-1.05h-.2l-10.65-1.75q-3.9-1.25-5.7-4.5Q-30.2 4.1-29.6-3q.65-7.7 5.05-10.65 3.85-2.6 10-2.65l11 1.05.85.1q6.35.95 17.25 3.4" fill="#873017" transform="translate(32.55 19.2)"/><path d="M-2.35-12.4q11 .65 16.85 2.35 4.75 1.35 6.95 6.2 2.15 4.7 1 10.4Q20.95 14 1.9 14q-22.4 0-27.15-6.1-3.25-4.15.05-11.2 2.9-6.15 6.3-7.85 4.15-2 16.55-1.25" fill="#5c130c" transform="translate(32.55 19.2)"/><path d="m-4.35-9.4 11.85.5 7.7 1.15 2.05 1.55q.85.65 2.05 3.65L19.45.5q0 7.4-3.8 9.45-4.15 2.3-12.95 1.75l-3.4-.15q-13.35 0-20.2-2.55-3.75-1.35-2.25-9.1 1.65-7.85 6.45-8.8l12.35-.5" fill="#8c2217" transform="translate(32.55 19.2)"/><path d="M-6.45 2.95q1.1-.05 1.15-.6l.05-5.5q-.4 1.95-2.2 1.85h-3.05q-1.6 0-2 .45-.3.35-.3 1.8 0 1.2.45 1.5.7.5 3.3.5h2.6M3.8-.8v.2l.2-.5-.25-.05.05.35m9.7-2.3v.15q-.05 3.4-1.95 5.9l2.9 2.65 1.9 1.85q.45.55.45 1.35l-.05.35q-.05.9-.8 1.4l-3 2.3q-1.2.8-2.65-.25l-1.8-1.7-5.3-5Q2.25 8.4-.4 9.95q-2.45 1.5-5.1 1.5l-4.65-.05q-5.55-.1-8.25-1.8Q-22 7.25-22 1.35-22-10-10.75-10l3.55.3q1.95.45 1.95 2.3v3.55l.05-2.55q0-2.85 2.3-3.25l.5-.1 5.95-.35q5.65 0 8.25 2.7 1.7 1.7 1.7 4.3" fill="#5f150d" transform="translate(32.55 19.2)"/><path d="m20.3-1.35 3.3 1 .75.15q1.2 4 1.2 5.8 0 4.2-3.85 7.1-3.35 2.5-7.2 2.65l-25.35-1.05q-7.95-.9-10.4-1.65-3.8-1.15-5.5-4.15-2.4-4.3-2-10.9l5.25.15-.55 2q-1.55 8.5 2.85 10.1 3.05 1.1 10.2 1.9l10.3.7 8 .3q5.25-.05 8.8-2 4.85-2.65 4.2-12.1" fill="url(#b)" transform="translate(32.55 19.2)"/><path d="m16.25-10.45-.7 1.85L7.6-9.8l-12-.5-12.45.5q-4.9 1-6.95 8.55l-5-.15q.2-8.4 4.75-11.5 3.8-2.55 10.05-2.55l11.2 1.2q6.4.95 19.05 3.8" fill="url(#c)" transform="translate(32.55 19.2)"/><path d="m20.15-2.75 2.65-1.8 2.05 6.1L24 1.5l-3.65-.25-.2-4" fill="url(#d)" transform="translate(32.55 19.2)"/><path d="m23.25 1.55 1.7.3q.6 2.4.6 3.75 0 4.2-3.85 7.1-3.35 2.5-7.2 2.65l-25.35-1.05-2.3-.25-.7-.25 11.55.85q12.4.65 16.8-.3 9.4-2 9.5-8.6l-.75-4.2" fill="url(#e)" transform="translate(32.55 19.2)"/><path d="M21.8 4.65q0 3.35-1.45 4.95-3.3 3.5-13.9 4-10.35.45-20.4-1.75l-8-2.3L-13.2 11l13.05 1.45 8.55.25q3 0 6.1-1.35 3.35-1.4 4.4-3.55 1.1-2.45 1.45-6.4l.8-.05q.65 2.05.65 3.3" fill="url(#f)" transform="translate(32.55 19.2)"/><path d="m21.15 1.35-.8.05.1-2.1.7 2.05" fill="#ffe24e" transform="translate(32.55 19.2)"/><path d="m-28.8-1.8.9.15-.8 3.1-.1-3.25" fill="#dc8d32" transform="translate(32.55 19.2)"/><path d="M-12.3-13.75q-6 0-9.85 2.3-4.35 2.6-5.7 9.7l-.05.1-.9-.15q.25-8.1 4.75-11.1 3.8-2.55 10.05-2.55l11.2 1.2 9.7 1.8-19.2-1.3" fill="url(#g)" transform="translate(32.55 19.2)"/><path d="M-24.85-1.05v-.05l.9.4-.1.45q-1.15 5.75.5 8.3-2.35-1.95-1.3-9.1" fill="#c06c32" transform="translate(32.55 19.2)"/><path d="M9.25-10.45q4.25.5 6.4 1.7l-.1.15L7.6-9.8l-6.65-.35-5.05-.2-3.35.05-9.4.5q-5.1 1.05-7.1 9.1l-.9-.4q1.5-10.1 10.8-10.45l23.3 1.1" fill="url(#h)" transform="translate(32.55 19.2)"/><path d="M-23.1-13.15q1.6-.8 2.2-.3.6.5-1 1.45-1.5.95-1.95.2-.4-.75.75-1.35" fill="#fff" transform="translate(32.55 19.2)"/><path d="m22.05-4 .75-.55 2.05 6.1L24 1.5h-.85L22.05-4" fill="#de9529" transform="translate(32.55 19.2)"/><path d="M11.15-6.8q1.45 1.45 1.45 3.7v.15q-.05 3.35-2 5.7-.25.35.05.6L13.9 6.3 15.65 8l.25.8V9q-.05.5-.5.85l-2.95 2.25q-.75.5-1.55-.2l-1.75-1.65-5.45-5.1-.3-.35-.45-.15-.3.35Q1.95 7.45-.6 9.05q-2.3 1.5-4.9 1.5l-4.65-.05q-5.55-.1-8-1.8-2.95-2.1-2.95-7.35 0-10.5 10.35-10.5l3.35.35q1.25.25 1.25 1.4v4.05Q-6.35-2.1-7.4-2.2h-3.1q-2.05 0-2.7.75-.5.65-.5 2.4t.95 2.3q.95.6 3.7.6h2.65q1.8-.05 1.95-1.35l.05-.1.1-8.8q0-2.15 1.55-2.35l.55-.1 5.75-.4q5.25 0 7.6 2.45M4.85-.85l.1-.45-.1-.3q-.3-.5-1.45-.5-.45 0-.45.35l-.1.55.05.45V1.2q0 .35.35.45.35.1.5-.25l1.1-2.25" fill="#e6ac37" transform="translate(32.55 19.2)"/><path d="m-20.55-.45 3.2-.05 3.25.6-.05.85q0 2 1.2 2.7 1.05.65 3.9.65h2.65q2.45-.15 2.45-2.35l.9-.3.35 2.65h2.05l.2.75-4.75 5h-4.1q-5.9 0-8.45-1.7-2.9-1.95-2.9-7l.1-1.8" fill="url(#i)" transform="translate(32.55 19.2)"/><path d="m-14.2.55.1 1.4.75 1.35q.8.9 1.8.9l-2.3-.15q-1.6-.65-2.1-2.4l-.2-1.65.85-.2 1.1.75" fill="url(#j)" transform="translate(32.55 19.2)"/><path d="m-16.15-.6.3-1.2q.45-1.35 1.25-1.85 1.9-1.15 5.8-1 2.55.1 2.2 1.2-.2.75-1.3.75h-3.4q-1.75 0-2.5 1.15l-.3 1-2.05-.05" fill="url(#k)" transform="translate(32.55 19.2)"/><path d="m-17.3 0-3.3-.1.15-.95q.8-.4 1.85-.4 1.1-.1 2.65.75H-14l-.15 1.65-1.15-.6q-.65-.35-2-.35" fill="#884c1b" transform="translate(32.55 19.2)"/><path d="M3.55-8.8q8.75 0 8.6 5.85-.05 2.3-1.1 4.2L8.3.9Q6.2.2 5.55.15H4.9l.35-.8q.85-1.9-2-1.9-.95 0-.8 1.85V.9Q.35 2.55-.5 2.2L-1.9.6q-.6-.5-2.05.85l.1-7.85q0-1.75 1.2-1.95l6.2-.45" fill="url(#l)" transform="translate(32.55 19.2)"/><path d="M10.3-.8q.45-1.75.1-3.65t-3.05-3.3l-2.65-1 3.35.6q3.45 1.2 4.05 4.05.5 2.4-.55 3.7L10.3-.8" fill="url(#m)" transform="translate(32.55 19.2)"/><path d="M.3-.45q-.2-1.4.05-2.4.4-1.65 2.9-1.55 2 .15 2.1 2.7-.8-.8-1.4-.85-1.45-.1-1.45.65l-.05.75-.8.45L.3-.45" fill="#ae7928" transform="translate(32.55 19.2)"/><path d="m1.15 1.45-3 1.2-2.1-1v-2.6l.95-.1 1.55.45 1.15.15 2.75-.65v2.5l-1.3.05m10.2-2.9.7-.2Q11.65.45 10.6 2l-3.75-.5-2.55-.1.95-2.05q.25-.55.1-.9l2.7-.1 3.3.2" fill="#884c1b" transform="translate(32.55 19.2)"/><path d="M2.45.55 2.4 3.6Q2.35 6.4-.35 8.35q-2.4 1.75-5.15 1.75l-4.6-.05q6.1-.3 6.1-5.3L-3.95.5l.9-.5Q-2 0-.2.75.1.75 1.6 0q.2-.1.85.55" fill="url(#n)" transform="translate(32.55 19.2)"/><path d="M5.1-.35q.65-.65 1.25-.5l4.4.2q.45-.15.7 1.1-.75 1.7-1.75 2.65l3.4 3.1 2.2 2.1q.7.7-.15 1.15l-2.9 2.25-1.1-.15L7.4 8 4 4.8q-1-.9-.35-2.35L5.1-.35" fill="url(#o)" transform="translate(32.55 19.2)"/><path d="m.5.35.4.1.75-.55.8.7-.05 1.6q0 3.65-1.95 5.55Q-1.9 10-5.35 10.1q2-.6 2.9-1.15Q-.3 7.5.3 5.15L.55.55v-.1L.5.35" fill="url(#p)" transform="translate(32.55 19.2)"/><path d="M10.3-.3h.8l.35.55-.5 1.25-1.2 1.6 2.55 2.35 3 2.85-1.95-.75-5.6-3.95Q7.6 2.75 9.1 1.2l1.2-1.5" fill="url(#q)" transform="translate(32.55 19.2)"/><path d="M.6-7.7q-2.3.45-2.5 1.55l-1 4.1-.05-3.35q0-2 1.4-2.25l4.4-.25-2.25.2" fill="url(#r)" transform="translate(32.55 19.2)"/><path d="M5.7.7 5 3.25l.15 1.6-.65-.8q-.55-.55-.1-1.5L5.7.7" fill="url(#s)" transform="translate(32.55 19.2)"/><path d="m7.85 7.4 3.7 2.65q.8.4 2.4-.35-1.6 1.45-2.15 1.45-.5 0-3.85-3.65l-.1-.1" fill="url(#t)" transform="translate(32.55 19.2)"/><path d="m-19.85-1.25.65-1.95q.95-2.2 2.65-3.25 1.65-1.05 4.1-1.45l2.1-.2-1.6.4q-2 .65-3.9 1.95-2.35 1.6-4 4.5" fill="url(#u)" transform="translate(32.55 19.2)"/><path d="m-3.25-4.4-.15-1.45q-.05-1.5.5-1.8l2.1-.6-1.95 1.7-.5 2.15m-16.3 1.7q.65-2.45 2.55-3.8 1.2-.8 3.15-1.3l1.75-.35-1.8.55q-1.95.7-2.9 1.6-2.35 2.3-2.75 3.3M4.4 1.75l.45-.4-.45 1.6q-.15.7.4 1.8-1-.65-1.1-1.4l.7-1.6" fill="#fff" transform="translate(32.55 19.2)"/><path d="M-3.75 5.15q-.7.95-4.7.4-2.25-.35-3.8-1.3l-1.1-.85 3.3.9 4.2-.05Q-4 4.25-4 2.7l.05-1.9.6 1.5q.45 1.75-.4 2.85" fill="url(#v)" transform="translate(32.55 19.2)"/><path d="M-.2 6.75-.85 8.3l-1.45 1q-1.8.9-4.4.9l-7.2-.45q-3.1-.25-5-2.6l-1.3-2.35 1.8 1.5q2.25 1.6 4.6 2.15l7.15.4q5.3 0 6.45-2.1" fill="url(#w)" transform="translate(32.55 19.2)"/><path d="m5.25-1.85.15.45v.2l-.1.45-.05.1-1.15 2.3q-.3.55-1 .4-.65-.15-.65-.85l.05-3q.1-.75.9-.75 1.45.1 1.85.7" fill="#832017" transform="translate(32.55 19.2)"/><path d="m16-11.25 2.95.2 1.7-2.45q.65-1 1.8-.75 1.15.15 1.4 1.35l.7 2.85 2.9.85q1.1.35 1.25 1.5v.25q0 1.05-.85 1.5l-2.5 1.6.05 3q0 1.1-1 1.6-1.1.5-1.95-.25L20.2-1.9l-2.8 1q-1.05.4-1.9-.45-.5-.5-.5-1.25l.15-.65 1.1-2.8-1.8-2.35q-.4-.5-.4-1.1l.25-.85q.5-1 1.7-.9" fill="url(#x)" transform="translate(32.55 19.2)"/><path d="m22.1-12.5 1 3.9 3.8 1.15-3.4 2.1.1 4-3.05-2.6L16.8-2.6l1.5-3.7-2.45-3.2 4 .3 2.25-3.3" fill="#ffe37f" transform="translate(32.55 19.2)"/><path d="M20-9.15 20.9-7l-5.05-2.5 4.15.35" fill="#fffbe5" transform="translate(32.55 19.2)"/><path d="m16.95-2.75 4-3.85-.4 2.65-3.6 1.2" fill="#d29d45" transform="translate(32.55 19.2)"/><path d="M23.6-1.35 20.95-6.6l2.55 1.25.1 4" fill="#e4b261" transform="translate(32.55 19.2)"/><path d="m20.95-6.6 5.95-.85-3.4 2.1-2.55-1.25" fill="#d29d45" transform="translate(32.55 19.2)"/><path d="m20.95-6.6 1.3-5.75.85 3.75-2.15 2m0-.15-2.65.45-2.45-3.2 5.1 2.75" fill="#e4b261" transform="translate(32.55 19.2)"/></g></defs></svg>