<svg xmlns="http://www.w3.org/2000/svg" width="19" height="21"><path d="M7.19 2.336c-.614.828-5.831 13.109-3.585 13.799s14.159 1.203 14.293-.307-1.144-6.63-1.144-6.63S19.795.629 7.19 2.336z" fill="#ffe8f2"/><path d="M7.533 20.914c-6.535-.7-9.704-6.301-5.885-10.402.37-.398.546-.647.504-.716a12.488 12.488 0 0 0-.559-.684C-.298 6.904 1.205 3.1 4.555 1.619 7.76.201 13.127.52 15.785 2.285c2.563 1.702 3.411 5.262 1.728 7.252-.494.585-.498.518.052.897 1.911 1.316 1.901 5.255-.02 7.561-1.771 2.126-5.974 3.352-10.012 2.919zm1.742-4.821c.326-.274.322-.328-.038-.499-.407-.193-.596-.465-.708-1.018-.175-.864-.283-.963-.871-.8-.477.133-.648 1.107-.287 1.633.544.793 1.406 1.102 1.904.684zm7.967-1.582c.554-1.327-.61-3.358-2.245-3.915-.467-.159-.484-.274-.081-.539.545-.359.615-.674.102-.459-1.118.467-1.232 2.357-.194 3.219.066.054.12.141.121.193.004.263.919 1.391 1.266 1.561.729.357.86.349 1.031-.059zM9.199 9.42c.172-.218-.051-.603-.351-.605-.032 0-.161-.178-.285-.396-.318-.557-.351-.591-.523-.546-.295.077-.526.503-.465.859.135.797 1.188 1.243 1.624.688zm.564-1.401c.308-.216.191-.62-.179-.62-.191 0-.469.227-.469.383 0 .098.305.367.416.367a.864.864 0 0 0 .231-.13zm6.812-.62c.988-2.752-2.84-5.235-7.668-4.972-1.602.087-2.501.565-1.634.869.074.026.21.112.302.192.148.129.972.31 1.416.312 2.294.007 4.229.909 5.577 2.598 1.024 1.283 1.772 1.656 2.007 1.001z" fill="#ff8fcb"/><path d="M7.354 20.877c-6.399-.734-9.46-6.306-5.697-10.371.66-.713.659-.567.009-1.328-1.12-1.313-1.183-2.85-.2-4.852 2.398-4.881 13.89-4.768 16.331.16.866 1.747.707 3.966-.366 5.14-.391.427-.393.462-.051.696 2.588 1.773 1.97 6.733-1.097 8.814-2.095 1.421-5.66 2.116-8.928 1.742zm2.338-3.91c.764-.234 1.035-.43 1.161-.84.141-.458-.032-.889-.308-.77-1.524.656-2.171.034-2.082-2.004.025-.572.075-.83.204-1.048.094-.159.195-.382.225-.495.129-.488 1.233-1.249 1.805-1.245.61.005 1.648.795 1.228.935-.071.024-.036.124.113.319.346.455.495.789.396.887-.059.059-.043.17.053.355.077.148.121.34.098.426s-.004.18.042.208.059.176.029.339c-.034.18-.016.334.047.41.077.092.078.145.005.219-.115.115-.129.396-.019.396.068 0 .198.269.21.433.015.217.697.493 2.002.812a4.88 4.88 0 0 1 .706.28c.552.265.659.22 1.06-.442 1.288-2.126.705-4.422-1.379-5.431-.712-.345-.712-.345-.467-.516 2.608-1.821 2.451-5.198-.313-6.74-2.294-1.279-6.903-1.407-9.197-.254-1.019.512-1.065.777-.357 2.054.174.315.52 1.295.623 1.769a32.11 32.11 0 0 0 .2.859c.05.198.069.396.041.441s-.001.141.059.213.117.324.126.558a7.76 7.76 0 0 0 .075.78c.038.231.024.394-.041.472s-.078.231-.043.418c.049.262.038.292-.091.242-.123-.047-.14-.02-.104.165.025.133-.004.259-.073.317-.064.053-.093.165-.066.25.034.106.008.155-.081.155-.074 0-.131.07-.131.163s-.033.249-.074.354c-.451 1.168-.096 2.346 1.035 3.429.959.919 2.371 1.404 3.279 1.125zm-.658-8.092c-1.179-.596-.658-2.494.685-2.494.218 0 .418-.034.443-.075s.091-.046.145-.011.155.067.223.07c.518.027 1.329.907 1.134 1.232-.072.12-.068.166.016.196s.085.067-.012.177a.75.75 0 0 0-.152.304c-.025.134-.097.167-.371.168-.264.001-.409.061-.647.271-.341.299-1.041.377-1.465.163zm.804-.926c.263-.226.115-.549-.251-.549-.403 0-.592.407-.287.62.241.169.263.166.538-.071z" fill="#ff007f"/><path d="M7.908 20.881c-3.085-.213-5.698-1.548-6.995-3.573-.548-.855-.597-1.028-.829-2.89-.142-1.137.489-2.68 1.558-3.817.682-.726.681-.703.06-1.417C.569 7.88.517 6.165 1.551 4.224c2.474-4.641 13.353-4.63 16.081.016 1.038 1.767.871 4.429-.347 5.524-.265.238-.216.399.202.663 1.86 1.175 1.953 4.968.179 7.354-1.218 1.639-4.081 2.922-6.844 3.066-1.739.091-2.023.094-2.914.033zm7.26-3.157c2.913-1.456 2.929-5.762.026-7.098-.541-.249-.541-.249-.25-.465C19.968 6.444 14.09.95 6.858 2.603c-2.335.534-4.09 2.024-3.318 2.817.719.738 1.358 2.177 1.453 3.27.016.183.055.455.086.604.04.19.027.271-.045.271-.066 0-.087.079-.06.223.023.123.014.282-.022.354s-.111.281-.168.464-.145.384-.194.446c-.358.448-.591 2.031-.378 2.567.051.129.107.341.124.472.116.886 1.869 2.534 3.238 3.045 1.172.437 1.454.464 3.206.298a50.919 50.919 0 0 1 1.832-.141 2.21 2.21 0 0 1 1.374.4c.511.342.558.343 1.182.032zm-6.207-2.375c-.614-.517-.653-2.557-.059-3.114.82-.77 1.708.002 1.78 1.547.058 1.253-.257 1.779-1.066 1.779-.31 0-.461-.049-.654-.211zm.107-6.52c-.766-.358-.804-1.902-.054-2.187.684-.26 1.418-.003 1.605.561.389 1.179-.503 2.116-1.55 1.626zm.797-.846c.223-.223.21-.384-.045-.551-.411-.269-.958.214-.623.549.214.214.455.215.668.002z" fill="#ba005a"/><path d="M7.575 20.836c-6.741-.733-9.827-6.717-5.507-10.683.295-.271.297-.264-.32-.985C.649 7.887.56 6.251 1.488 4.418c2.361-4.659 12.984-4.905 15.96-.37 1.102 1.679 1.093 4.209-.019 5.48-.497.568-.498.543.033.938 2.521 1.872 1.635 6.963-1.536 8.826-2.026 1.19-5.574 1.846-8.352 1.544zm4.619-1.92c5.238-.939 7.273-6.221 3.178-8.25-.612-.303-.612-.303-.291-.554 1.559-1.215 2.139-3.27 1.368-4.837-1.948-3.958-12.09-3.952-13.573.008-.416 1.111-.391 2.337.052 2.576.373.201.474.402.46.918s.176.858.644 1.182c.427.295.419.346-.092.645-1.222.717-2.403 2.645-1.724 2.816.295.074.991.782 1.321 1.343.319.543 1.356 1.623 2.232 2.324.553.443.787.59 1.349.847.16.073.488.231.729.35s.459.195.486.168.182.042.345.153.363.201.445.201.203.054.27.121c.227.227 1.501.222 2.803-.012zm-3.281-3.65c-.504-.544-.504-2.421.001-2.926.887-.887 1.85.341 1.66 2.118-.103.959-1.08 1.434-1.661.808zm.137-6.489c-.656-.296-.698-1.801-.058-2.045.929-.353 1.581.072 1.581 1.033S9.915 9.168 9.05 8.777zm.809-.761c.349-.294.184-.7-.285-.7-.514 0-.688.568-.25.816.23.131.246.127.535-.116z" fill="#9a004b"/><path d="M7.496 20.713c-6.438-.678-9.52-6.384-5.547-10.271.536-.524.532-.566-.121-1.334-1.84-2.165-.64-5.594 2.517-7.192C7.26.439 12.697.626 15.468 2.298c2.653 1.601 3.588 5.135 1.89 7.143-.526.622-.521.704.067 1.117 1.572 1.103 1.853 3.986.622 6.372-1.393 2.699-5.809 4.282-10.55 3.783zm4.303-1.581c3.332-.609 5.051-1.922 5.607-4.283.422-1.795-.368-3.516-1.959-4.263-.483-.227-.483-.227.072-.74 4.477-4.145-2.43-9.424-9.401-7.185-3.891 1.25-5.084 5.407-2.139 7.454.234.163.234.163-.355.565-1.688 1.153-2.269 2.798-1.681 4.762.191.637.463 1.004.559.753.029-.075.108-.136.177-.136s.106.049.08.116.039.195.142.291c.238.223.376.23.176.008-.234-.259-.079-.296.211-.051.143.12.312.219.375.219s.157.077.207.171.186.207.303.251c.138.052.195.124.164.204-.026.068-.016.124.022.124.123 0 .508.435.508.574 0 1.013 4.046 1.694 6.93 1.167zm-6.68-1.2c0-.023.019-.042.042-.042s.042.019.042.042-.019.042-.042.042-.042-.019-.042-.042zm3.876-2.736c-.641-.641-.441-2.772.277-2.966.883-.238 1.449.853 1.223 2.357-.114.762-.991 1.118-1.5.608zm.162-6.456c-.781-.341-.72-1.819.082-1.99.873-.186 1.323.213 1.271 1.13-.043.766-.664 1.162-1.354.861zm.785-.641c-11.264-9.571-5.632-4.785 0 0zm-5.444 9.713c-.03-.049-.095-.089-.143-.089-.055 0-.049.048.017.127.114.138.216.107.127-.038z" fill="#7a003b"/></svg>