<svg xmlns="http://www.w3.org/2000/svg" width="19" height="21"><path d="M2.706 10.126c0-8.191 0-8.191 7.503-8.191s7.503 0 7.503 8.191 0 8.191-7.503 8.191-7.503 0-7.503-8.191z" fill="#ffe8f2"/><path d="m7.685 20.912-1.091-.132c-5.286-.613-8.56-5.765-4.678-7.361.437-.18.475-.263.157-.343C.576 12.7-.477 8.633.277 6.139 1.483 2.152 4.393.548 10.167.688c7.015.169 8.737 2.06 8.737 9.592 0 7.063-1.363 9.287-6.367 10.388-.99.218-3.957.368-4.853.245zm9.673-7.25c.524-2.092.222-7.321-.513-8.877-.96-2.032-4.798-3.215-8.759-2.7-2.277.296-1.66 1.29.819 1.32 4.076.05 6.738 2.093 6.965 5.347.019.277.059.724.088.993a30.36 30.36 0 0 1 .091 1.603c.063 1.853.097 2.014.523 2.504.486.558.605.529.785-.19z" fill="#ff8fcb"/><path d="M7.055 20.833c-2.461-.283-4.348-1.041-5.408-2.174-1.702-1.82-1.568-4.53.259-5.227.472-.18.481-.227.08-.418C.643 12.373-.35 9.148.117 6.941 1.083 2.383 4.119.511 10.257.688c5.92.171 8.206 1.98 8.612 6.816.877 10.465-2.599 14.387-11.814 13.329zm2.811-3.736.506-.255c.655-.336.41-1.15-.323-1.073-.707.074-.843.026-1.563-.552-1.52-1.221-3.574-1.398-3.842-.333-.32 1.276 3.691 2.976 5.222 2.213zm6.682-.69c1.61-2.492 1.452-10.363-.251-12.5-2.106-2.641-13.875-2.398-12.376.256.1.177.154.355.428 1.417.047.183.102.483.122.668.082.75.579 2.696.797 3.117.512.99 1.191 1.753 1.964 2.206 1.072.628 3.539-.22 3.472-1.194-.027-.392-.078-.421-.442-.248s-.65.188-1.118.047c-1.367-.409-1.193-4.526.191-4.528.125 0 .273-.046.328-.102 1.446-1.446 4.109 2.78 2.785 4.42-.112.139-.185 1.099-.087 1.159.047.029.086.149.086.265s.035.234.078.261c.275.17.532 1.639.494 2.823-.03.947-.03.947.322 1.272.194.179.352.364.352.411s.122.085.271.085.421.077.605.171.478.198.653.23.434.131.575.218c.318.197.332.189.749-.457z" fill="#ff007f"/><path d="M7.328 20.827c-5.828-.591-9.559-5.639-5.432-7.35.572-.237.598-.299.181-.436-2.384-.787-2.69-6.881-.477-9.493 3.41-4.024 13.559-3.952 16.16.115 1.318 2.061 1.646 9.078.573 12.272-1.271 3.783-5.11 5.489-11.006 4.891zm7.752-2.721c1.842-1.155 2.42-2.776 2.504-7.025.13-6.558-.73-8.109-4.913-8.862-1.864-.336-5.061-.266-6.672.146-2.077.53-4.252 2.49-3.39 3.054.122.08.223.209.223.286s.08.242.178.366.178.292.178.373.065.239.145.353.178.333.217.487a10.5 10.5 0 0 0 .598 1.63c.477.938.909 1.866.909 1.954 0 .054.104.293.231.532.19.357.212.465.126.603-.069.11-.075.198-.017.256s.044.193-.04.394c-.353.845 1.923.901 4.398.108 1.05-.336 1.001-.392 1.001 1.134 0 1.474-.063 1.617-.797 1.815-.505.136-.797.026-1.563-.59-1.59-1.279-4.873-1.276-4.551.004.056.222 1.075 1.389 1.214 1.389.039 0 .311.136.605.302 1.746.987 2.936 1.147 5.639.758 1.054-.152 2.056-.019 2.364.313.117.126.293.23.39.23s.2.06.229.134c.078.203.309.162.794-.143zm-6.193-8.072c-.78-.39-.78-3.703 0-4.093 1.111-.555 1.794.304 1.79 2.248-.004 1.847-.586 2.447-1.79 1.845z" fill="#ba005a"/><path d="M7.195 20.776C3.961 20.45 1.854 19.338.931 17.47c-.939-1.9-.38-3.544 1.396-4.111.239-.076.138-.248-.213-.363C.539 12.476-.383 8.671.422 6.017 1.558 2.275 4.163.793 9.599.799c7.966.008 10.139 3.028 9.163 12.738-.557 5.543-4.419 7.96-11.567 7.239zm4.99-1.537c4.028-.654 5.309-2.49 5.474-7.846.23-7.462-1.08-9.147-7.348-9.446-4.979-.238-7.922 1.317-8.587 4.535-.194.937-.183 1.115.072 1.212a1.12 1.12 0 0 1 .391.309c.099.126.265.229.368.229.173 0 .233.096.193.305-.019.101.248.639.462.931.086.117.156.269.156.339s.087.315.193.545c.205.444.291 1.326.148 1.503-1.048 1.295 2.99 1.992 6.009 1.038 1.006-.318.983-.345.934 1.082-.046 1.356-.103 1.488-.716 1.653-.506.136-.752.049-1.449-.51-1.455-1.169-2.9-1.288-5.753-.476-.63.179-1.014.882-.796 1.456.083.22.135.24.936.372.193.032.449.135.569.229s.266.171.326.171.259.119.441.264.411.289.507.319.404.204.682.385c.511.332 1.26.664 1.753.777.147.034.439.156.649.271s.435.21.501.21.169.06.23.134a.42.42 0 0 0 .3.127c.104-.004.139-.027.078-.052s-.111-.106-.111-.181c0-.095.046-.116.156-.069a2.21 2.21 0 0 0 .401.109c.277.047.323.166.089.228-.387.103 1.983-.028 2.742-.152z" fill="#9a004b"/><path d="M7.103 20.651c-5.731-.654-9.28-6.096-4.695-7.2.39-.094.324-.381-.118-.513-1.569-.47-2.585-4.191-1.832-6.71C1.597 2.417 4.205.886 9.554.889c6.465.003 8.756 1.71 9.139 6.808.772 10.283-2.542 13.986-11.59 12.954zm5.255-1.292c4.201-.874 5.431-2.931 5.431-9.079 0-6.853-1.562-8.422-8.369-8.408-5.367.011-8.071 2.132-8.05 6.316.022 4.272 3.755 6.379 8.442 4.767.289-.1.56-.181.601-.181.201 0 .082 2.484-.125 2.619-.578.374-.928.299-1.776-.38-1.331-1.066-2.139-1.202-4.552-.764-2.158.391-2.611.887-2.07 2.266.708 1.803 2.647 2.738 6.283 3.027l1.308.12c.07.07 2.125-.145 2.877-.301zm-3.219-9.273c-.877-.233-1.073-3.611-.234-4.044 1.094-.566 1.734.37 1.655 2.419-.051 1.32-.375 1.853-1.049 1.721a17.276 17.276 0 0 1-.371-.096z" fill="#7a003b"/></svg>