<?xml version="1.0" encoding="UTF-8" standalone="no"?>
<svg
   height="52.517868"
   width="42.168247"
   version="1.1"
   id="svg1479"
   sodipodi:docname="body.svg"
   inkscape:version="1.1.2 (0a00cf5339, 2022-02-04, custom)"
   xmlns:inkscape="http://www.inkscape.org/namespaces/inkscape"
   xmlns:sodipodi="http://sodipodi.sourceforge.net/DTD/sodipodi-0.dtd"
   xmlns:xlink="http://www.w3.org/1999/xlink"
   xmlns="http://www.w3.org/2000/svg"
   xmlns:svg="http://www.w3.org/2000/svg">
  <sodipodi:namedview
     id="namedview1481"
     pagecolor="#505050"
     bordercolor="#eeeeee"
     borderopacity="1"
     inkscape:pageshadow="0"
     inkscape:pageopacity="0"
     inkscape:pagecheckerboard="0"
     showgrid="false"
     inkscape:current-layer="svg1479" />
  <g
     transform="translate(21.915548,47.2485)"
     id="g1323">
    <use
       height="16.5"
       id="shoer"
       transform="matrix(-0.8127,0,0,0.8127,18.9942,-8.6414)"
       width="23.15"
       xlink:href="#sprite0"
       x="0"
       y="0" />
    <use
       height="16.5"
       id="shoel"
       transform="matrix(0.8127,0,0,0.8127,-18.9942,-8.1414)"
       width="23.15"
       xlink:href="#sprite0"
       x="0"
       y="0" />
    <use
       height="121.15"
       id="corps"
       transform="translate(-179.4973,-117.1985)"
       width="301.85001"
       xlink:href="#sprite2"
       x="0"
       y="0" />
  </g>
  <defs
     id="defs1477">
    <g
       id="sprite0"
       transform="translate(14.45,3.25)">
      <use
         height="16.5"
         transform="translate(-14.45,-3.25)"
         width="23.15"
         xlink:href="#sprite1"
         id="use1325"
         x="0"
         y="0" />
    </g>
    <g
       id="sprite1"
       transform="translate(11.6,8.25)">
      <use
         height="16.5"
         transform="translate(-11.6,-8.25)"
         width="23.15"
         xlink:href="#shape0"
         id="use1328"
         x="0"
         y="0" />
    </g>
    <g
       id="shape0"
       transform="translate(11.6,8.25)">
      <path
         d="m -10.95,2.95 q 0.85,1.2 2.05,1 -0.3,1.25 0.05,2.5 L -9.65,6.2 -10.2,5.9 q -1.3,-1.3 -0.75,-2.95 m 21.85,-3.85 0.05,0.75 q 0.2,1.9 -0.05,2.3 L 10.8,2.3 q -1.85,2.25 -7.85,4.3 -6,2.05 -8.05,0.45 l -0.25,-1.7 0.25,1.7 Q -7.3,7.75 -8.85,6.45 -9.2,5.2 -8.9,3.95 q 1.3,1.35 3.55,1.4 l 3.8,0.1 Q 0.3,5.15 2.1,4.3 L 5.5,2.65 8.35,1.1 l 2.55,-2"
         fill="#ffb79f"
         fill-rule="evenodd"
         stroke="none"
         id="path1331" />
      <path
         d="M -10.95,2.95 Q -10.6,1.9 -9.45,0.7 l 0.85,-1.05 5.45,-5.1 1.9,-1.2 q 2.55,-1.4 5.7,-1.05 1.8,0.15 3.4,1 2.6,2.5 3.05,5.8 L 8.35,1.1 5.5,2.65 2.1,4.3 Q 0.3,5.15 -1.55,5.45 l -3.8,-0.1 Q -5.2,3.4 -3.1,1.15 -5.2,3.4 -5.35,5.35 -7.6,5.3 -8.9,3.95 q -1.2,0.2 -2.05,-1 M -7.25,1 Q -8.55,2.5 -8.9,3.95 -8.55,2.5 -7.25,1"
         fill="#ead6ae"
         fill-rule="evenodd"
         stroke="none"
         id="path1333" />
      <path
         d="m 10.9,-0.9 q -0.45,-3.3 -3.05,-5.8 -1.6,-0.85 -3.4,-1 -3.15,-0.35 -5.7,1.05 l -1.9,1.2 -5.45,5.1 -0.85,1.05 q -1.15,1.2 -1.5,2.25 -0.55,1.65 0.75,2.95 l 0.55,0.3 0.8,0.25 q 1.55,1.3 3.75,0.6 2.05,1.6 8.05,-0.45 6,-2.05 7.85,-4.3 l 0.1,-0.15 q 0.25,-0.4 0.05,-2.3 L 10.9,-0.9 M -8.9,3.95 Q -8.55,2.5 -7.25,1 m 1.9,4.35 0.25,1.7 M -5.35,5.35 Q -5.2,3.4 -3.1,1.15 m -5.8,2.8 q -0.3,1.25 0.05,2.5"
         fill="none"
         stroke="#333333"
         stroke-linecap="round"
         stroke-linejoin="round"
         stroke-width="1"
         id="path1335" />
    </g>
    <g
       id="sprite2"
       transform="translate(179.15,98.6)">
      <use
         height="49.849998"
         id="corpsgrafic"
         transform="translate(-18.7,-27.3)"
         width="41.700001"
         xlink:href="#sprite3"
         x="0"
         y="0" />
      <use
         height="114.85"
         id="face"
         transform="translate(-179.15,-98.6)"
         width="301.85001"
         xlink:href="#sprite5"
         x="0"
         y="0" />
      <use
         height="32.450001"
         id="chapeau"
         transform="translate(-20.25,-28.9)"
         width="40.849998"
         xlink:href="#sprite8"
         x="0"
         y="0" />
      <use
         height="11.6"
         transform="matrix(0.6198,-0.7827,-0.7827,-0.6198,4.9537,9.136)"
         width="8.5500002"
         xlink:href="#sprite11"
         id="use1341"
         x="0"
         y="0" />
      <use
         height="11.9"
         transform="translate(-21.6,-4.25)"
         width="8.6999998"
         xlink:href="#sprite12"
         id="use1343"
         x="0"
         y="0" />
    </g>
    <g
       id="sprite3"
       transform="translate(14.65,17.95)">
      <use
         height="49.849998"
         transform="translate(-14.65,-17.95)"
         width="41.700001"
         xlink:href="#shape1"
         id="use1346"
         x="0"
         y="0" />
      <use
         height="8.6499996"
         transform="translate(-12.6,3.05)"
         width="12.7"
         xlink:href="#sprite4"
         id="use1348"
         x="0"
         y="0" />
    </g>
    <g
       id="shape1"
       transform="translate(14.65,17.95)">
      <path
         d="m -10.8,11.4 -0.6,-1.15 q -1.25,-2.8 -0.9,-4.65 l 0.45,-2.7 q 0.35,-4.1 1.9,-7.85 1.75,-4.3 4.9,-7.75 3.15,-3.45 7.75,-4.65 2.85,-0.4 5.5,0.7 4.75,2.05 7.15,6.6 2.15,4.15 3.55,8.75 l 0.85,3.6 0.1,0.8 -0.1,0.05 q -21.05,7.55 -24,8 l -4.25,0.7 q -1.25,0.2 -2.3,-0.45"
         fill="#ead6ae"
         fill-rule="evenodd"
         stroke="none"
         id="path1351" />
      <path
         d="M 19.85,3.1 19.75,2.3 20,3.9 20.5,5.4 19.7,5.7 19.95,5.25 19.7,5.7 18.5,7.05 17.4,7.85 Q 16.35,8.5 14.75,9.15 L 14.1,9.4 V 8.85 L 14.25,8.8 Q 15.75,8.05 16.3,8 17.1,7.95 19.95,5.25 L 20.25,4.95 20.2,4.6 20.15,4.5 20,3.9 19.85,3.1 m -0.45,22.7 0.2,0.25 q 0.45,0.45 0,0.4 -0.45,1.45 -1.1,2.1 L 18.25,28.2 q -0.35,-1.45 -1.45,-2 l 2.6,-0.4 m -3.45,2.55 -0.8,2.45 -1.15,-0.3 0.15,-0.7 -1.8,-3.85 q 0.7,0.65 1.95,0.65 l 0.95,-0.1 0.7,1.85 M 11.6,15.45 11.65,15.4 11.6,15.55 v -0.1"
         fill="#0e0268"
         fill-rule="evenodd"
         stroke="none"
         id="path1353" />
      <path
         d="m -10.8,11.4 q 1.05,0.65 2.3,0.45 l 4.25,-0.7 q 2.95,-0.45 24,-8 l 0.1,-0.05 0.15,0.8 0.15,0.6 0.05,0.1 -0.1,0.05 -0.35,0.2 q -2.35,1.3 -4.95,2 l -3.35,1 q -1.4,0.45 -2.7,1 L 2.45,11 -4,12.75 q -3,0.85 -6.8,1.1 l -0.45,-0.2 q 0.3,-0.95 0.45,-2.25 m 29.3,17.15 -0.1,0.1 q -1,0.75 -2.45,-0.3 l -0.7,-1.85 0.5,-0.1 1.05,-0.2 q 1.1,0.55 1.45,2 l 0.25,0.35"
         fill="#090143"
         fill-rule="evenodd"
         stroke="none"
         id="path1355" />
      <path
         d="m 19.95,5.25 -0.2,-0.4 0.35,-0.2 0.1,-0.05 0.05,0.35 -0.3,0.3 M 11.75,10 11.9,9.95 11.8,10 h -0.05"
         fill="#130387"
         fill-rule="evenodd"
         stroke="none"
         id="path1357" />
      <path
         d="m 11.9,9.95 q 1.25,-0.7 2.2,-1.1 V 9.4 l -2.2,0.55"
         fill="#6a000e"
         fill-rule="evenodd"
         stroke="none"
         id="path1359" />
      <path
         d="M 18.25,8.95 V 8.9 8.95 m -6.95,6.55 0.3,-0.25 0.05,0.15 -0.05,0.05 v -0.2 0.2 l -0.3,0.05"
         fill="#ffffff"
         fill-rule="evenodd"
         stroke="none"
         id="path1361" />
      <path
         d="m -12.2,23.35 q -0.8,-2.5 -0.75,-4.1 0,-2.3 1,-4.25 l 0.7,-1.35 0.45,0.2 Q -7,13.6 -4,12.75 L 2.45,11 8.75,8.85 q 1.3,-0.55 2.7,-1 l 3.35,-1 q 2.6,-0.7 4.95,-2 l 0.2,0.4 Q 17.1,7.95 16.3,8 15.75,8.05 14.25,8.8 L 14.1,8.85 q -0.95,0.4 -2.2,1.1 L 11.75,10 11.5,9.95 11.2,10 l 0.4,3.45 -0.75,0.1 -5.25,3 q -2.7,1.55 -5.55,2.7 -3.3,1.3 -6.5,2 -3.15,0.65 -5.75,2.1"
         fill="#1d05c5"
         fill-rule="evenodd"
         stroke="none"
         id="path1363" />
      <path
         d="m 21.15,25.6 -1.25,0.15 -0.5,0.05 -2.6,0.4 -1.05,0.2 -0.5,0.1 -0.95,0.1 V 23.95 L 14.15,16.1 Q 14,12.9 14.1,9.4 l 0.65,-0.25 q 1.6,-0.65 2.65,-1.3 l 1.1,-0.8 0.35,0.4 0.7,2.55 q 0.45,2.05 0.7,6.6 0.25,4.45 0.45,5.7 l 0.35,2.25 0.1,1.05 m -9.8,4.2 v 1 q -0.75,0.55 -1.5,0.6 L 9.6,30.7 Q 8.05,28.75 7.8,25.3 7.55,21.85 6.55,18.95 l 1.2,-0.85 1.5,-1.1 0.1,5.85 q 0.05,3.95 2,6.95 m -4.45,0 Q 4.8,31.15 0.85,30.75 L -6.95,30 q -3.7,-0.35 -6.95,0 l -0.25,-0.45 q 1.9,-1.5 2.7,-4 3,-0.95 6.65,-1.75 3.65,-0.8 6.7,-2.25 L 4.75,20.1 q 0.7,1.6 0.9,3.15 L 6.9,29.8 M 18.25,8.95 V 8.9 8.95"
         fill="#140392"
         fill-rule="evenodd"
         stroke="none"
         id="path1365" />
      <path
         d="m 14,30.5 -2.65,-0.7 q -1.95,-3 -2,-6.95 L 9.25,17 11.3,15.5 11.6,15.45 v 0.1 l -0.2,7.05 q -0.15,2.4 0.95,3.35 L 14.15,29.8 14,30.5 M 9.85,31.4 H 9.65 9.4 Q 8.4,31.2 7.35,30.1 L 6.9,29.8 5.65,23.25 Q 5.45,21.7 4.75,20.1 l 1.8,-1.15 q 1,2.9 1.25,6.35 0.25,3.45 1.8,5.4 l 0.25,0.7"
         fill="#0b0154"
         fill-rule="evenodd"
         stroke="none"
         id="path1367" />
      <path
         d="m 20.5,5.4 1.4,5.25 q 0.75,3.15 0.75,7.05 0,3.85 0.65,7.75 L 21.15,25.6 21.05,24.55 20.7,22.3 Q 20.5,21.05 20.25,16.6 20,12.05 19.55,10 L 18.85,7.45 18.5,7.05 19.7,5.7 20.5,5.4"
         fill="#d99000"
         fill-rule="evenodd"
         stroke="none"
         id="path1369" />
      <path
         d="m -11.45,25.55 -0.75,-2.2 q 2.6,-1.45 5.75,-2.1 3.2,-0.7 6.5,-2 2.85,-1.15 5.55,-2.7 l 5.25,-3 0.75,-0.1 L 11.2,10 11.5,9.95 11.75,10 H 11.8 L 11.9,9.95 14.1,9.4 q -0.1,3.5 0.05,6.7 l 0.15,7.85 v 2.65 q -1.25,0 -1.95,-0.65 Q 11.25,25 11.4,22.6 L 11.6,15.55 11.65,15.4 11.6,15.25 11.3,15.5 9.25,17 7.75,18.1 6.55,18.95 4.75,20.1 1.9,21.55 q -3.05,1.45 -6.7,2.25 -3.65,0.8 -6.65,1.75 M 11.6,13.45 v 0.3 1 0.5 -0.5 -1 -0.3"
         fill="#8c000d"
         fill-rule="evenodd"
         stroke="none"
         id="path1371" />
      <path
         d="M 19.75,2.3 18.9,-1.3 q -1.4,-4.6 -3.55,-8.75 -2.4,-4.55 -7.15,-6.6 -2.65,-1.1 -5.5,-0.7 -4.6,1.2 -7.75,4.65 -3.15,3.45 -4.9,7.75 -1.55,3.75 -1.9,7.85 l -0.45,2.7 q -0.35,1.85 0.9,4.65 l 0.6,1.15 M 19.75,2.3 20,3.9"
         fill="none"
         stroke="#333333"
         stroke-linecap="round"
         stroke-linejoin="round"
         stroke-width="1"
         id="path1373" />
      <path
         d="m 20,3.9 0.5,1.5 M 11.75,10 11.9,9.95 m 2.4,16.65 0.95,-0.1 M 11.75,10 h 0.05 m -0.2,5.25 v 0.2"
         fill="none"
         stroke="#050123"
         stroke-linecap="round"
         stroke-linejoin="round"
         stroke-width="1"
         id="path1375" />
      <path
         d="m 20.5,5.4 1.4,5.25 q 0.75,3.15 0.75,7.05 0,3.85 0.65,7.75 l -2.15,0.15 -1.25,0.15 -0.5,0.05 -2.6,0.4 -1.05,0.2 -0.5,0.1 m 4.35,-0.05 q -0.45,1.45 -1.1,2.1 l -0.1,0.1 q -1,0.75 -2.45,-0.3 L 15.15,30.8 14,30.5 11.35,29.8 v 1 q -0.75,0.55 -1.5,0.6 H 9.65 9.4 Q 8.4,31.2 7.35,30.1 M 20.2,4.6 20.15,4.5 20,3.9 m 0.2,0.7 0.05,0.35 m -0.3,0.3 -0.25,0.45 -1.2,1.35 -1.1,0.8 Q 16.35,8.5 14.75,9.15 L 14.1,9.4 11.9,9.95 M 11.6,13.45 11.2,10 11.5,9.95 11.75,10 m -0.15,5.25 v -0.5 -1 -0.3 m 0,2.1 -0.2,7.05 q -0.15,2.4 0.95,3.35 0.7,0.65 1.95,0.65"
         fill="none"
         stroke="#090143"
         stroke-linecap="round"
         stroke-linejoin="round"
         stroke-width="1"
         id="path1377" />
      <path
         d="M 19.85,3.1 19.75,2.3 M 20,3.9 19.85,3.1"
         fill="none"
         stroke="#15029d"
         stroke-linecap="round"
         stroke-linejoin="round"
         stroke-width="1"
         id="path1379" />
      <path
         d="m -10.8,11.4 q 1.05,0.65 2.3,0.45 l 4.25,-0.7 q 2.95,-0.45 24,-8 l 0.1,-0.05"
         fill="none"
         stroke="#d99000"
         stroke-linecap="round"
         stroke-linejoin="round"
         stroke-width="1"
         id="path1381" />
      <path
         d="M 6.9,29.8 Q 4.8,31.15 0.85,30.75 L -6.95,30 q -3.7,-0.35 -6.95,0 m -0.25,-0.45 q 1.9,-1.5 2.7,-4 l -0.75,-2.2 q -0.8,-2.5 -0.75,-4.1 0,-2.3 1,-4.25 l 0.7,-1.35 q 0.3,-0.95 0.45,-2.25"
         fill="none"
         stroke="#0e0266"
         stroke-linecap="round"
         stroke-linejoin="round"
         stroke-width="1"
         id="path1383" />
    </g>
    <g
       id="sprite4"
       transform="translate(16.45,5.75)">
      <use
         height="8.6499996"
         transform="translate(-16.45,-5.75)"
         width="12.7"
         xlink:href="#shape2"
         id="use1386"
         x="0"
         y="0" />
    </g>
    <g
       id="shape2"
       transform="translate(16.45,5.75)">
      <path
         d="M -3.75,0.75 Q -5.55,1 -7.3,1.7 -9.45,2.55 -12.55,2.65 l -0.85,-0.5 q 1.6,-2 2.3,-2.1 3.75,-0.5 7.35,0.7"
         fill="#15029d"
         fill-rule="evenodd"
         stroke="none"
         id="path1389" />
      <path
         d="m -3.75,0.75 q -3.6,-1.2 -7.35,-0.7 -0.7,0.1 -2.3,2.1"
         fill="none"
         stroke="#15029d"
         stroke-linecap="round"
         stroke-linejoin="round"
         stroke-width="0.05"
         id="path1391" />
      <path
         d="m -13.4,2.15 q 1,-4.05 -2.3,-7.15"
         fill="none"
         stroke="#15029d"
         stroke-linecap="round"
         stroke-linejoin="round"
         stroke-width="1.5"
         id="path1393" />
    </g>
    <g
       id="sprite5"
       transform="translate(179.1,85.8)">
      <use
         height="3.45"
         transform="translate(-3.95,4.25)"
         width="7.9499998"
         xlink:href="#shape3"
         id="use1396"
         x="0"
         y="0" />
      <use
         height="13.35"
         transform="matrix(0.8127,0,0,0.8127,-12.2318,-7.5828)"
         width="30.049999"
         xlink:href="#sprite6"
         id="use1398"
         x="0"
         y="0" />
    </g>
    <g
       id="shape3"
       transform="translate(3.95,-4.25)">
      <path
         d="M -3.45,4.75 0.1,7.2 3.5,4.9"
         fill="none"
         stroke="#54253d"
         stroke-linecap="round"
         stroke-linejoin="round"
         stroke-width="1"
         id="path1401" />
    </g>
    <g
       id="sprite6"
       transform="translate(15.05,6.5)">
      <use
         height="6.4499998"
         transform="translate(-15.05,0.4)"
         width="30.049999"
         xlink:href="#shape4"
         id="use1404"
         x="0"
         y="0" />
      <use
         height="13"
         transform="matrix(1,0,0,0.8,-10.7,-5.1499)"
         width="10.75"
         xlink:href="#sprite7"
         id="use1406"
         x="0"
         y="0" />
      <use
         height="13"
         transform="matrix(-1,0,0,0.8,11.35,-5.1499)"
         width="10.75"
         xlink:href="#sprite7"
         id="use1408"
         x="0"
         y="0" />
    </g>
    <g
       id="shape4"
       transform="translate(15.05,-0.4)">
      <path
         d="M 10.65,2.65 Q 14.95,4.9 15,6.1 15,7.25 11.1,6.6 l -10,-0.95 -11.15,0.7 q -5,0.9 -5,-0.3 0,-1.15 4.5,-3.35 4.5,-2.25 10.7,-2.3 6.2,-0.05 10.5,2.25"
         fill="#e0bf89"
         fill-rule="evenodd"
         stroke="none"
         id="path1411" />
    </g>
    <g
       id="sprite7"
       transform="translate(5.4,6.5)">
      <use
         height="13"
         transform="translate(-5.4,-6.5)"
         width="10.75"
         xlink:href="#shape5"
         id="use1414"
         x="0"
         y="0" />
    </g>
    <g
       id="shape5"
       transform="translate(5.4,6.5)">
      <path
         d="m 0,-6 q 2,0 3.45,1.75 1.4,1.75 1.4,4.25 0,2.5 -1.4,4.25 Q 2,6 0,6 -2.05,6 -3.45,4.25 -4.9,2.5 -4.9,0 -4.9,-2.5 -3.45,-4.25 -2.05,-6 0,-6"
         fill="#ffffff"
         fill-rule="evenodd"
         stroke="none"
         id="path1417" />
      <path
         d="m 0,-6 q 2,0 3.45,1.75 1.4,1.75 1.4,4.25 0,2.5 -1.4,4.25 Q 2,6 0,6 -2.05,6 -3.45,4.25 -4.9,2.5 -4.9,0 -4.9,-2.5 -3.45,-4.25 -2.05,-6 0,-6 Z"
         fill="none"
         stroke="#424242"
         stroke-linecap="round"
         stroke-linejoin="round"
         stroke-width="1"
         id="path1419" />
      <path
         d="m 1,-1.85 q 0.65,-0.05 1.15,0.6 0.5,0.65 0.5,1.65 0,0.95 -0.5,1.6 Q 1.65,2.65 1,2.65 0.3,2.65 -0.2,2 -0.65,1.35 -0.65,0.4 q 0,-1 0.45,-1.65 Q 0.3,-1.9 1,-1.85 M 0,-0.1 0.2,0.4 Q 0.35,0.65 0.6,0.7 L 1,0.4 1.2,-0.1 1,-0.75 0.6,-0.95 q -0.25,0 -0.4,0.2 L 0,-0.1"
         fill="#000000"
         fill-rule="evenodd"
         stroke="none"
         id="path1421" />
      <path
         d="m 0,-0.1 0.2,-0.65 q 0.15,-0.2 0.4,-0.2 L 1,-0.75 1.2,-0.1 1,0.4 0.6,0.7 Q 0.35,0.65 0.2,0.4 L 0,-0.1"
         fill="#ffffff"
         fill-rule="evenodd"
         stroke="none"
         id="path1423" />
    </g>
    <g
       id="sprite8"
       transform="translate(20.5,1.75)">
      <use
         height="3.9000001"
         transform="translate(-2.95,4.25)"
         width="5.1999998"
         xlink:href="#shape6"
         id="use1426"
         x="0"
         y="0" />
      <use
         height="32.349998"
         transform="translate(-20.5,-1.65)"
         width="20.75"
         xlink:href="#sprite9"
         id="use1428"
         x="0"
         y="0" />
      <use
         height="32.349998"
         transform="matrix(-1,0,0,1,20.35,-1.75)"
         width="20.75"
         xlink:href="#sprite9"
         id="use1430"
         x="0"
         y="0" />
      <use
         height="2.7"
         transform="translate(-0.45,-0.55)"
         width="0.80000001"
         xlink:href="#shape8"
         id="use1432"
         x="0"
         y="0" />
      <use
         height="8.5"
         transform="translate(-19.75,5.95)"
         width="10.05"
         xlink:href="#sprite10"
         id="use1434"
         x="0"
         y="0" />
    </g>
    <g
       id="shape6"
       transform="translate(2.95,-4.25)">
      <path
         d="M 2.25,6.35 1.6,7.4 q -0.8,0.75 -1.95,0.75 -1.1,0 -1.9,-0.75 L -2.9,6.25 -2.95,6.2 h 1.15 v 0.05 l 0.25,0.3 q 0.5,0.5 1.2,0.55 0.7,-0.05 1.2,-0.55 l 0.2,-0.2 h 1.2 M 0.7,5.3 0.4,6.05 q -0.3,0.3 -0.75,0.3 -0.45,0 -0.75,-0.3 L -1.4,5.3 q 0,-0.45 0.3,-0.75 0.3,-0.3 0.75,-0.3 0.45,0 0.75,0.3 L 0.7,5.3"
         fill="#ca0000"
         fill-rule="evenodd"
         stroke="none"
         id="path1437" />
    </g>
    <g
       id="sprite9"
       transform="translate(9.55,13.5)">
      <use
         height="32.349998"
         transform="translate(-9.55,-13.5)"
         width="20.75"
         xlink:href="#shape7"
         id="use1440"
         x="0"
         y="0" />
    </g>
    <g
       id="shape7"
       transform="translate(9.55,13.5)">
      <path
         d="m 1.15,-10.9 0.9,-0.7 q 1.3,-1 2.95,-1.55 l 4.45,-0.1 1.15,0.55 0.05,0.35 0.05,0.35 -0.05,0.05 0.55,0.4 v 0.15 l -0.15,0.45 -0.3,0.55 q -1.55,1.35 -3,1.85 l -1.9,0.4 -0.95,0.1 Q 4.1,-8.3 3.3,-8.65 2.5,-8.95 1.8,-9.5 0.95,-10.1 1.15,-10.9 m 1,5.3 Q -0.1,-2.75 -0.5,3.55 -0.95,9.8 2,17.15 -1.8,10.35 -1.6,4.95 -1.8,7.6 -0.95,11.55 -0.55,13.3 0.25,15 1,16.7 2.05,18.2 0,17.35 -1.2,15.35 l 1.35,3.25 q -2.95,0.75 -5.7,-0.55 L -7.95,16.3 -7.1,15 q -1,0.45 -1.8,0 L -9.55,14.75 Q -7.75,13.6 -7.15,11.4 -6.5,9 -6.2,6.65 -5.8,3.5 -4.9,0.55 l 1.15,-3.5 0.75,-1.95 1.6,-2.9 1.15,0.4 1.2,0.65 0.95,0.8 0.25,0.35"
         fill="#000000"
         fill-rule="evenodd"
         stroke="none"
         id="path1443" />
      <path
         d="M 4.9,-8.05 Q 3.3,-7.1 2.15,-5.65 V -5.6 L 1.9,-5.95 0.95,-6.75 -0.25,-7.4 -1.4,-7.8 -1.25,-8.1 q 1,-1.65 2.4,-2.8 -0.2,0.8 0.65,1.4 0.7,0.55 1.5,0.85 0.8,0.35 1.6,0.6"
         fill="#333333"
         fill-rule="evenodd"
         stroke="none"
         id="path1445" />
    </g>
    <g
       id="shape8"
       transform="translate(0.45,0.55)">
      <path
         d="m -0.05,-0.55 0.25,0.4 0.15,0.95 -0.15,0.95 -0.25,0.4 -0.3,-0.4 -0.1,-0.95 0.1,-0.95 0.3,-0.4"
         fill="#990000"
         fill-rule="evenodd"
         stroke="none"
         id="path1448" />
    </g>
    <g
       id="sprite10"
       transform="translate(5.05,4.25)">
      <use
         height="8.5"
         transform="translate(-5.05,-4.25)"
         width="10.05"
         xlink:href="#shape9"
         id="use1451"
         x="0"
         y="0" />
    </g>
    <g
       id="shape9"
       transform="translate(5.05,4.25)">
      <path
         d="M 0.3,-0.7 0.6,-0.9 Q 1.1,-2 -0.2,-2.05 l -0.4,0.15 q -0.45,0.25 -0.35,0.75 0.45,0.65 1.25,0.45 m 0.55,0.4 -0.05,0.15 0.1,0.3 Q 1.65,1 2.55,0.25 L 2.7,0.05 q 0.35,-1 -0.8,-1 -0.65,0.1 -1.05,0.65 M 4.1,-3.1 q 1.15,1.85 -0.55,2.25 l 0.95,1 Q 5.1,1.1 4.95,2.3 3.15,3.45 1.2,1.95 1.25,3.15 0.15,4.05 -0.95,4.9 -2.35,2.4 L -3.2,2.3 -4.7,1.65 q -1.35,-1.7 2.25,-2.85 l -0.2,-1.4 q -0.1,-0.95 1.25,-1.25 L 1,-4.15 q 0.6,0.3 0.75,1.3 l 0.85,-0.4 1.5,0.15 m -5.55,3.55 q -0.1,0.45 0.3,0.65 0.7,0.35 1.2,-0.25 0.7,-0.95 -0.45,-1.1 -0.65,0.15 -1.05,0.7"
         fill="#ff3399"
         fill-rule="evenodd"
         stroke="none"
         id="path1454" />
      <path
         d="m 0.85,-0.3 q 0.4,-0.55 1.05,-0.65 1.15,0 0.8,1 L 2.55,0.25 Q 1.65,1 0.9,0.15 L 0.8,-0.15 0.85,-0.3 M 0.3,-0.7 q -0.8,0.2 -1.25,-0.45 -0.1,-0.5 0.35,-0.75 l 0.4,-0.15 Q 1.1,-2 0.6,-0.9 l -0.3,0.2 m -1.75,1.15 q 0.4,-0.55 1.05,-0.7 1.15,0.15 0.45,1.1 -0.5,0.6 -1.2,0.25 -0.4,-0.2 -0.3,-0.65"
         fill="#ffd5ea"
         fill-rule="evenodd"
         stroke="none"
         id="path1456" />
    </g>
    <g
       id="sprite11"
       transform="translate(4.4,5.15)">
      <use
         height="11.6"
         transform="translate(-4.4,-5.15)"
         width="8.5500002"
         xlink:href="#shape10"
         id="use1459"
         x="0"
         y="0" />
    </g>
    <g
       id="shape10"
       transform="translate(4.4,5.15)">
      <path
         d="M -2.8,4 -2.95,3.6 -2.5,4 h -0.3"
         fill="#d1b492"
         fill-rule="evenodd"
         stroke="none"
         id="path1462" />
      <path
         d="M -3.1,1.8 -3.65,1.45 q -0.75,-2.2 0.95,-3.9 l 2.15,-2.2 Q 2.6,-2.5 3.5,-0.9 3.9,2.45 3.3,3.9 L 2.45,3.95 1.7,2.25 q -0.6,1.9 -2,3.4 l -1,0.3 L -1.9,5.5 Q -2.5,4.85 -2.5,4 L -2.95,3.6 -3.1,1.8 -2.45,0.1 -3.1,1.8 M -1.55,1.75 -2.5,4 -1.55,1.75"
         fill="#ead6ae"
         fill-rule="evenodd"
         stroke="none"
         id="path1464" />
      <path
         d="m -0.55,-4.65 -2.15,2.2 q -1.7,1.7 -0.95,3.9 L -3.1,1.8 -2.45,0.1 M -2.95,3.6 -2.8,4 M -2.95,3.6 -3.1,1.8 M -2.5,4 q 0,0.85 0.6,1.5 l 0.6,0.45 1,-0.3 q 1.4,-1.5 2,-3.4 L 2.45,3.95 3.3,3.9 Q 3.9,2.45 3.5,-0.9 m -6,4.9 0.95,-2.25"
         fill="none"
         stroke="#333333"
         stroke-linecap="round"
         stroke-linejoin="round"
         stroke-width="1"
         id="path1466" />
    </g>
    <g
       id="sprite12"
       transform="translate(7.25,4.7)">
      <use
         height="11.9"
         transform="translate(-7.25,-4.7)"
         width="8.6999998"
         xlink:href="#shape11"
         id="use1469"
         x="0"
         y="0" />
    </g>
    <g
       id="shape11"
       transform="translate(7.25,4.7)">
      <path
         d="M -5.95,2.55 -6.5,2.2 q -0.75,-2.2 0.95,-3.9 1.8,-1.75 4.2,-2.5 2.45,1.25 2.25,6 0.15,1.4 -0.45,2.85 L -0.4,4.7 -1.15,3 q -0.6,1.9 -2,3.4 l -1,0.3 -0.6,-0.45 q -0.6,-0.65 -0.6,-1.5 h -0.3 L -5.8,4.35 -5.95,2.55 -5.3,0.85 -5.95,2.55 M -4.4,2.5 -5.35,4.75 -4.4,2.5"
         fill="#ead6ae"
         fill-rule="evenodd"
         stroke="none"
         id="path1472" />
      <path
         d="m -1.35,-4.2 q -2.4,0.75 -4.2,2.5 -1.7,1.7 -0.95,3.9 l 0.55,0.35 0.65,-1.7 m -0.05,3.9 q 0,0.85 0.6,1.5 l 0.6,0.45 1,-0.3 q 1.4,-1.5 2,-3.4 L -0.4,4.7 0.45,4.65 Q 1.05,3.2 0.9,1.8 M -5.35,4.75 -4.4,2.5 m -1.55,0.05 0.15,1.8 0.15,0.4"
         fill="none"
         stroke="#333333"
         stroke-linecap="round"
         stroke-linejoin="round"
         stroke-width="1"
         id="path1474" />
    </g>
  </defs>
</svg>
