<svg xmlns:xlink="http://www.w3.org/1999/xlink" height="27.6" width="44.45" xmlns="http://www.w3.org/2000/svg"><use height="20.05" transform="translate(3.05 3.7)" width="25.5" xlink:href="#a"/><defs><path d="m-2.75 2.75.25-.05.9-1.05 1.05-.6Q.05.75.7.6L2.75.35l1.6.1.4.4-.15.3-.85.3-.9.2Q1.45 2.35.95 3L-1 5l-.05.05h-.1l-.7.35-.25.45-.25.65.3.65.3.2 1.7-.25q.9-.65 1.8-.95l.4-.05q.75 0 1.5.6l.25-.05.4.15.4.2q.4.05 1 .45l1.75.85q1.15.05 1.5-.4.35-.85.35-2.05L9.2 4.3l-.1-1.55q0-1.15.3-1.95l.3-.35.25-.15.3.05-.3 2.95.05.35-.05.9-.05 1q-.2 1.35-.35 6.35v3.6l.05 3.6-.25.4-.2.05q-.3-.05-.35-.25l-.25-4.2-.55-.7-.35-.15q-.25 0-.6.25l-.2.75.05.5.05.5.05.7-.3.6h-.35l-.25-.3.2-1.65-.15-.95-.6-.35-.6.15-.2.1q-.6.85-.5 2.7v2.95l-.35.15-.35-.4-.1-1.1v-.9l.05-.9q0-1.7-.9-2.35l-.95.15-.1-.05-.05-.05-.25.15q-.65.85-.6 2.5V20l-.35.35q-.2-.1-.25-.4l-.15-2.3-.2-2.35q-.25-.6-1-.8l-.25.1q-.85.6-.85 1.95v1.55q0 .85-.25 1.4l-.5-.15-.2-1.6.1-1.4.05-1.45-.05-.85q-.1-1.45-.5-1.95l-.6-.1-.55.25-.5 1.5-.9.15-.65-.65L-7.2 12l-.45-4.9-.2-.3-1.05-.95-2-1.6-1.75-1.8q-1.05-.95-2.25-1.2l-.35-.5 1.6-.4.85.2 1.15.3 1.2.5.5.4.5.45 2.3 1.65q.4.2.8.35l.2-.05.2.15.45.15L-4.25 4l.6-.1v-.2l.75-.75.15-.2m-3.85 5-.15.95.2.7.85.3.35-.05q.45-.3.6-1.4-.2-.65-1-.8-.4 0-.85.3" fill="#f39" fill-rule="evenodd" transform="translate(15.25 -.3)" id="a"/></defs></svg>