<svg xmlns:xlink="http://www.w3.org/1999/xlink" height="27.6" width="44.45" xmlns="http://www.w3.org/2000/svg"><use height="17.85" transform="translate(8.85 5.8)" width="18.95" xlink:href="#a"/><defs><path d="m.15 11.95.15.15q2.1 1.25 4.1 4.55l.25.6v.2l-.3 1.45-.4.6-1.15.65-1.3-.25-.75-.5-.55-.65v-.05.05l-.05-.05-.1-.25-.3.4-.45.65-.75.45q-.65.35-1.3.3l-1.2-.65-.35-.65-.35-1.4v-.25l.25-.6q2-3.25 4.1-4.55l.15-.1.1-.05H0v-.1h.1l.05.05m4.1-8.5.1.2q.5.7.2 1.55l-.35.9-.3.35-.05.1-.55.75-2.85 2.95-.3.25-.05.25-.5-.4-2.85-3-.6-.7-.05-.1-.3-.4-.35-.85q-.3-.85.2-1.6l.1-.15.3-.4q.65-.65 1.65-.65.95 0 1.6.65l.45.55.25.35.25-.45.4-.45q.7-.75 1.7-.75.95 0 1.65.75l.25.3M9.4 8.3l-.1.05h.1V8.3l.1.5-.25.95-.45.6-.25.15-.05.05.3-.2-1.7 1.4 1.5.45q.9.55.85 1.45l-.8 1.65-.3.3-1.25.35-1.05-.2-.3-.2-.4-.3-.05-.05q-1.85-1.3-3.3-3l-.75-.95.2-.35Q2.65 8.8 6 6.75l1.1-.25q1-.05 1.65.7h.05l.55.95.05.15M0 13.85l.05-.9-.05-.6v1.5m-7.05-7.3L-6 6.8q3.35 2.1 4.6 4.2l.15.35-.75.95q-1.4 1.65-3.25 2.95l-.05.05-.05.05-.4.3-.3.2-1 .2-1.3-.35-.3-.35q-.6-.7-.8-1.65h.05q-.1-.85.8-1.4.75-.45 1.55-.5l-1.45-1.2h-.05l-.1-.1-.1-.05-.05-.05-.45-.6-.2-.9.1-.5.05-.2.5-.9.05-.05q.7-.7 1.7-.7" fill="#f39" fill-rule="evenodd" transform="translate(9.45 -2.4)" id="a"/></defs></svg>