<svg xmlns:xlink="http://www.w3.org/1999/xlink" height="27.6" width="44.45" xmlns="http://www.w3.org/2000/svg"><use height="24.2" transform="translate(8.35 .05)" width="19.85" xlink:href="#a"/><defs><path d="m-1.25-3.35.1 6.55.55.1v.45h-.65L-.6 5.1h.2l.3-.3.55-1.5q.2-.2-.45-.6v-.65l-.2-.3Q.15 1.1-.6.9q0-.25.85-.95l.1.2.95-.1-.1-.3.3-.45.85-.4 1.55.2.45 1.05-.3.3.1.65q-.25.2-.15.5-.4-.1-.8.25l-.65-.1-.5-.45v1.6q.95.4.9.6l.15 2.55.5.6V7l-.2.2-.45.2.05.55h1.65q.2-.25.85-.2.75.7 1.9 1.05l1.65-.1.85 1.95v.1l-.6-.1v.25q.6.6.5 1.35l-.4-.4-.3.1.3 1.35-.3.75-.25-.3v.8l1.05.65q.1.95-.3 1.15l-.2-.5-1.15-.1v3.95l-.1.05-.25-.15-.1.45-.3-.2v.5q-.75.75-1.9.4v-.3h.2l-.1.1.3.2 1.05-.1q.05-.5-.3-.8h-.4l-.55.5q.45-.65 1.05-.85.55-2.3.35-3.05l-.65-.85-2-1.75-.2-.35-.3.35-.25 2.2-2 2.75-.2.95-.4-.05-.1.45q-.35-.45-.75-.3.2.7-.55.7l-.95-.2.65-.95 1.35-.75.65-.8.75-1.3-.1-1.35-.55-.95q-.2-.85 0-1.15l-1.7.6h-1.45l-.3.55.1.55-1.05-.05-.45.85-.7 3.7-.35.55-.3-.25-.1.55h-.35q-.5.65-1.35.3v-.3L-5 19l.6-2.1.2-2.35-.3-1.05-1.15-.2q-2.1-1.25-2-1.45l-.55.5.1.75.35.4.1 1.15.5.45v.95q-.6.2-.8-.35l.5.25.2-.1-.2-.75h-.3l-.25.4-.7-.7-.3-2.65q0-1.25.9-1.5h.65Q-6.2 11.2-6 11l-.2-.35q.35-.6.35-1.85l-.55-.15-.1-.9h-.2l.1.3h-.45l.15.3-.75-.65-.2.15h-.45V7.7l-1.05.05q.3-1.05.2-2.75l-.1-.45q-.5.1-.7-.5v-.1l.6.1-.2-.75.3.1.2-1.05.75.85h.1q-.1-.65.65-.95h.3l-.1.2.65-.2-.2.2 1.15-.4q0 .4-.35.4v.1q.95-.2 1.1 0l-.45.25h.85l-.2.3h1.05l.4.3-.65-.1.95.55-.2.1.65.3-.1.2-.55-.2.65.75-.45-.1.25.3-1.15-.1v.2q1.45-.1 1.65.3l.2.15-.2.1.2.4-.6-.2.4.4-.1.1.2.35.65.1v.2h.65l-.15-.5.55-.75-.55-.35q-.7-1.15-1.05-1.05l.1-.8-.7-.15.1-.3q.65.1.65-.3-.05-1.8.6-6.35h.1m8.85 14h.1q.1-.6-.3-.95h-.1l.3.95m.2 2.75-.1-.5-.5.8.2.25.4-.55M.35 1.6h.2l-.1-.2h-.2l.1.2m-3.9 2.35-.1-.2h-.3l.2.2h.2m.65 1.75v.05h.3V5.7h-.3m2.1 2.05h-.1v.1h.1v-.1h.3V7.7h-.3v.05M-8.4 5.5h.1v-.3h-.1v.3m1.05 1.2 1.25 1 .15-.3q0-1.15-.35-1.65h-.2l-.1.4q-.75.1-.75.55m1.25 13.65.95-.1-.2-.55q-.1-.2-.75.45v.2m3.4-6.65v.25l.2-.2v-.15l-.2.1m1.8 6.65 1.05-.2L0 19.3l-.5.2-.5.65.1.2" fill="#f39" fill-rule="evenodd" transform="translate(9.95 3.35)" id="a"/></defs></svg>