<svg xmlns:xlink="http://www.w3.org/1999/xlink" height="27.6" width="44.45" xmlns="http://www.w3.org/2000/svg"><use height="22.45" transform="translate(7.5 1.8)" width="21.65" xlink:href="#a"/><defs><path d="M-6.35 7.35q0-.6.5-.95l.9-.5q.6 0 1 .5.35.35.35.95 0 .5-.35.9-.4.35-1 .35-.5 0-.9-.35l-.5-.9m.9-3.2q-1.15 0-1.9.75-.75.85-.75 1.95v5q0 1.1.75 2 .75.7 1.9.75H3.6q1.1-.05 1.9-.75.85-.9.85-2v-5q0-1.1-.85-1.95-.8-.75-1.9-.75h-9.05m9-5.7.05-.05L5.25-.25l-3.5 2.4H8.1q1.1 0 2 .85.7.75.75 1.9v10.7q-.05 1.1-.75 1.85-.9.85-2 .85h-.9l.55 2.55H5.4l-.8-2.55h-9.7l-.8 2.55h-2.35l.55-2.55h-.4q-1.1 0-1.85-.85-.85-.75-.85-1.85V4.9q0-1.15.85-1.9.75-.85 1.85-.85H-3L-6.2-.6l1.35-1L-.6 1.5l4.15-3.05M-1.6 9.9l.8-.6q.45 0 .8.6.35.6.35 1.45T0 12.8q-.35.6-.8.6l-.8-.6-.3-1.45.3-1.45m9.95 6.3q1.1 0 1.1-1.1 0-1.15-1.1-1.15-1.15 0-1.15 1.15 0 1.1 1.15 1.1m-4-8.95L4 8.1q-.4.5-1 .5-.5 0-1-.5l-.4-.85q0-.65.4-1 .5-.35 1-.35.6 0 1 .35.35.35.35 1" fill="#f39" fill-rule="evenodd" transform="translate(10.8 1.6)" id="a"/></defs></svg>