<svg xmlns:xlink="http://www.w3.org/1999/xlink" height="27.6" width="44.45" xmlns="http://www.w3.org/2000/svg"><use height="11.2" transform="translate(5.176 .011) scale(2.0736)" width="18.95" xlink:href="#a"/><defs><path d="M14.5-19.05q0 1.05-.7 1.75t-1.75.7q-1 0-1.7-.7-.75-.7-.75-1.75 0-1 .75-1.7.7-.7 1.7-.7 1.05 0 1.75.7t.7 1.7m29.55 1.1q0-1.05 1.1-3.95 1.1-2.9 1.1-4.3 0-.85-.5-.95-.9-.2-4.15 2.85-3.45 3.3-3.8 3.35-.4.05-3.65-1.2l-7-2.5Q22.45-26 19.1-26q-4.95 0-10.4 1.6-7.5 2.15-7.5 5.8 0 3.75 7.85 5.85 5.7 1.55 10.75 1.55 4.45 0 8.65-1.3 2.7-.8 6.05-2.4 2.8-1.3 3.3-1.3.85 0 3.6 3 2.7 3 3.75 3 .7 0 .7-1 0-1.1-.9-3.55-.9-2.5-.9-3.2" fill-rule="evenodd" id="b"/><use fill="#f39" height="11.2" transform="translate(-.35 10.85) scale(.2734)" width="18.95" xlink:href="#b" id="a"/></defs></svg>