<svg xmlns:xlink="http://www.w3.org/1999/xlink" height="27.6" width="44.45" xmlns="http://www.w3.org/2000/svg"><use height="20" transform="translate(9.3 2.9)" width="19.3" xlink:href="#a"/><defs><path d="M3.7 1.85q-.6 0-1.1.35l-.3.35-.1.6q0 .85.75 1.55l1 .35 2.55.5q1.65.25 2.5.7 1.3 1.4 1.3 3.25l-.1.95-1 1.5-.15.1-.85.5-.7.65-.6 1.9h-.1l.1-1.4-.1-.2q-.1-.2-.9-.3-1 .2-1.3.9l-.45 1.55-.35.25-.2-.05.2-1.45-.4-.25-.6-.05q-1.1 0-2.15.55l-.25.5q-.3 1.2-1 2.1-.7.9-1.75 1.5-1.25.75-2.65.75l-2.05-.45-.8-.75-.2-.55-.35-.6-.2-1.15q0-1.35.95-2.2l.8-.35.45-.15.45-.05.35.1-.55 1.85.2.75q1.05.95 2.55 1.15 1.75-.45 2.6-1.5l.1-.75-.2-.65-1.4-1.05-1.05-.85-1-.85v-.3l.05-.1v-.1l4-2.3.15-.85q0-.45-.25-.8-1.4-1.3-2.7-1.55-1.9.2-2.6.9l-.1.5-.05.45-.05.3q0 .6.45 1.05.35.5.1.75l-.5.05-.75-.1-.7-.15-.65-.4q-.9-.85-1.05-1.9-.1-2.3.8-2.95l.4-.25.1-.1 2.6-.85 1.9.35Q-.7 4.35.25 6.8L.5 7l.4 1.35.3.6q.15.4.45.45l.25.2 1.4.4.5-.15-.05-1.7.45.6q0 1.1.55 1.55l1.15.3.35-.2.2-.3.1-.4-.25-.75q-.25-.5-.2-.8l.3.05.65 1.45.45.4.4.1.8-.3.65-.65.1-.5-.35-1.25Q8.45 6.6 7.2 6.3l-2.4-.2-2.3-.45-.75-.45L1 4.75.6 4.3q-.9-.65-.9-1.95l.1-.75Q-.1 1 .35.5l.9-.8L2.3-.5Q4.35-.4 5.2.75l.15.35q.6.5.55 1.9l-.15.05L4.3 2l-.6-.15M.55 11.5l-.15-.75-1-.2-.55.3-.35.55q.2.8.85 1l.9-.1.15-.35.15-.45" fill="#f39" fill-rule="evenodd" transform="translate(9 .5)" id="a"/></defs></svg>