<svg xmlns:xlink="http://www.w3.org/1999/xlink" height="27.6" width="44.45" xmlns="http://www.w3.org/2000/svg"><use height="20" transform="translate(8.35 3.35)" width="19.35" xlink:href="#a"/><defs><path d="m4.25.75.1.1.05.05-.6.95-.6.45q-.35.4-.35.8l.1.35q.3.5 1 .65l1.2.25 2.5.15.1 1.25.5.95.7.9v.25h-1.7l-3.9.6-1.4.3L.6 9l-.55-.05-2.5.15-.3-.1-.35-.05q-2.6 0-4.05-.9-.45-.6-.4-1.2 0-.7-.65-1.4-.35-.35-.35-1.05l.1-.65.1-.15q1.6-1.1 3.65-1l.55-.05.95.05.9.1.65-.05v-.2l.4-.25L-1 2l.15-.2L.8.2l.5-.25 1.45.2 1.5.6M-6.6 4.7l-.05.45q0 .8.55 1.3l1 .2.6-.1.45-.35.2-.65q.1-.75-.6-1.45l-.45-.15-.4-.05q-1.15.25-1.3.8m9 7.2.6.05 1.45-.1q2.6 0 4.3 1.2.65.45.65 1.1l-.05.25-.9.75q-.5 0-.8.45l-.2.65.15.7.25.7-.25.5-.75.35-2.55.45-.4-.05h-.35q-2.05-.1-2.8.95l-.55.1-.15-.15-.9.15-.25-.1-1.05-.05-.95-.35.2-.6.15-.65-.05-.35-.25-.4-.3-.3h-.15l-.95-.7-.55-.5-3.35-.8-.1-.1v-.5q0-1.15-.75-1.75l-.35-.25-.35-.45-.05-.35.2-.25 1 .25.9.45 3.95.55.3-.1.65.05 1-.25 1.1-.1L.3 12.2h.4l1.7-.3m2.75 1.55-.8.1-.2.1q-.35.6-.35 1.15l.05.4q.5.7.85.75h.7l.65-.15.5-.75-.05-.8-.25-.45q-.4-.35-1.1-.35" fill="#f39" fill-rule="evenodd" transform="translate(9.95 .05)" id="a"/></defs></svg>