<svg xmlns:xlink="http://www.w3.org/1999/xlink" height="27.6" width="44.45" xmlns="http://www.w3.org/2000/svg"><use height="20" transform="translate(6.5 3.45)" width="23.1" xlink:href="#a"/><defs><path d="M9.55 1.45q.7.4.65.7l.25.35-.1.7q0 .7.5 1.85.5 1.2.45 1.85l-.6 1.4q-.3.35-.3 1.35 0 .9-.5 1.25l-1.3.35-.7 1.1q-.2.1-.9.5l-1 .3-.45 1.15.05.2q1.05.8 1.8.75l.8.45.05.9q-.15.25-.9.5-1.5-.2-2.3-1.3l-.95-.45-.8-.25-.75-.15-.35.05-.5.4-.1.95.85 1.65.55.4.7.25h.2q.7 0 .75.45l-.3.75-1.05.2-.75-.25-.6-.5-.25-.35-.4-.35-1.2-2.35-1.25-1.35-1.65-.65-.6.2q-.4.15-.45.4l-.1.35-.3.25.1 1.6.75 1 .95.8v.2l-.25.4-.35.15-.85-.4-.2-.25-.6-.8-.5-1-.3-1.25-.3-1.35-.5-.95-.6-.6h-.25l-.1-.05q-.1-.1-.15-.1l-1 .3q-.45.55-.45 1.2l.25 1.4.5 1.35.3.25.3 1.15q.05.8-.5.95l-.35-.05-.55-.65-.3-1-.25-1.1.1-.3-.7-2.8-.2-.3-.3-.25-.35-.7-.2-.75-.35-.65-.3-.75-.05-.8q0-1.55 1-3.35.8-.85 2.5-1.45l1.7.1 1.15-.1h.65l1.55-.2.2-.3q.2-.7-.1-1.1l-.8-.45-.95.05h-.8q-.5 0-.65-.2l-.25-.7.45-.55h.2L-5 .9q1.15 0 2.7.9l.75 1.45-.1.8-.35.65-.4.2-.15.15-1.8.65-1.6.15H-7.5l-1.4.35-.65.85-.15.75q.15.95 1 1.45l1.25-.2.25-.2 1.5-.7.25-.15 2.05-.1.6-.05h.9l1-.25q.4-.3.45-1.25Q-.4 5.4 0 5q.4-.35.4-1.25.05-1.05.25-1.4L2.3 1.5 3.15.35 4.9.3l.3.15 1.25-.3.5-.1q.4 0 .85.35l.75.65 1 .4M7.15 4.8l.85.15 1-.25.3-.35V3.4l-.95-.9q-.75-.05-1.6.55l-.1.55q0 .7.35 1.05l.15.15m-4.4-.45.5.4.85.05.75-.35.15-.2q-.1-.2.2-.5l-.1-.2-.05-.4-.2-.3-.3-.3-.9-.1q-.55 0-.85.4l-.05 1.5m2.45 4.7.55-.1.75.1.85.1q.55 0 .95-.3l.25-.35.05-.6q0-1.05-.55-1.4l-.45-.25-.05-.1-.1-.1-1.9-.3q-1.25 0-2 .55l-.4.3q-.35.55-.35 1.25 0 .4.15.8.65.5 1.4.5l.55-.1h.3" fill="#f39" fill-rule="evenodd" transform="translate(11.8 -.05)" id="a"/></defs></svg>