<svg xmlns:xlink="http://www.w3.org/1999/xlink" height="27.6" width="44.45" xmlns="http://www.w3.org/2000/svg"><use height="20.9" transform="translate(7.75 3.55)" width="20.9" xlink:href="#a"/><defs><path d="M2.45.45q2.8.7 4.85 2.75 3.05 3.05 3.05 7.4 0 4.3-3.05 7.4-2.05 2.05-4.85 2.75H2.4l-2.5.3-2.55-.3h-.05q-2.75-.7-4.8-2.75-3.05-3.1-3.05-7.4 0-3.65 2.2-6.5Q-6.1 1.3-2.7.45l.05-.05v.05L-.1.15l2.5.3.05-.05v.05M.65 1.7V4h2.3l-1.4-2.15-.9-.15m-2.45.15L-3.15 4H-.9V1.7l-.9.15m7.65 6H8.4q-.4-1.2-1.15-2.3h-2l.6 2.3M5.9 4 3.95 2.65 4.65 4H5.9M3.65 5.55h-3v2.3H4.3l-.65-2.3m-4.55 0h-2.95l-.65 2.3h3.6v-2.3m1.55 6.2h3.8L4.5 9.4H.65v2.35M-.9 9.4h-3.8l.05 2.35H-.9V9.4m6.85 2.35H8.7l.1-1.15-.1-1.2H6l-.05 2.35M.65 13.3v2.35H3.5l.7-2.35H.65M-4.9 4l.7-1.35L-6.1 4h1.2m-.6 1.55h-1.95q-.75 1.1-1.15 2.3h2.55l.55-2.3m-3.45 6.2h2.8l-.1-2.35h-2.7l-.1 1.2.1 1.15m.35 1.55q.4 1.25 1.15 2.35h2.15l-.65-2.35H-8.6m4.6 5.3-.7-1.4h-1.4l2.1 1.4m7.8 0 2.1-1.4H4.5l-.7 1.4m-1-1.4H.65v2.25l.9-.1L2.8 17.2m-4.6 2.15.9.1V17.2h-2.15l1.25 2.15m6.9-3.7h2.15L8.4 13.3H5.7l-.6 2.35m-6 0V13.3h-3.5l.7 2.35h2.8" fill="#f39" fill-rule="evenodd" transform="translate(10.55 -.15)" id="a"/></defs></svg>