<?xml version="1.0" encoding="UTF-8" standalone="no"?>
<svg xmlns:xlink="http://www.w3.org/1999/xlink" height="21.4px" width="22.0px" xmlns="http://www.w3.org/2000/svg">
  <g transform="matrix(1.0, 0.0, 0.0, 1.0, -1.5, -1.8)">
    <use height="77.55" transform="matrix(0.2757, 0.0, 0.0, 0.2758, 1.5122, 1.8065)" width="79.75" xlink:href="#sprite0"/>
  </g>
  <defs>
    <g id="sprite0" transform="matrix(1.0, 0.0, 0.0, 1.0, 15.55, -3.65)">
      <use height="77.55" transform="matrix(1.0, 0.0, 0.0, 1.0, -15.55, 3.65)" width="79.75" xlink:href="#shape0"/>
    </g>
    <g id="shape0" transform="matrix(1.0, 0.0, 0.0, 1.0, 15.55, -3.65)">
      <path d="M-13.15 42.4 L-12.95 42.25 -13.1 42.45 -13.15 42.4" fill="#85a0bb" fill-rule="evenodd" stroke="none"/>
      <path d="M-13.15 42.45 L-13.15 42.4 -13.1 42.45 -13.15 42.45" fill="#98b3ce" fill-rule="evenodd" stroke="none"/>
      <path d="M46.7 17.3 L44.45 16.2 35.95 11.9 35.95 11.7 35.75 11.8 27.3 7.5 27.1 7.35 26.3 6.7 26.1 6.9 23.55 5.6 -11.35 40.6 -11.65 40.45 -12.95 42.25 -13.15 42.4 -13.15 42.45 -13.95 43.55 -12.9 44.05 -12.5 46.95 23.55 66.3 25.45 66.8 25.45 66.95 61.15 30.95 61.5 27.85 62.6 26.75 61.3 23.65 60.65 24.35 46.7 17.3 M55.95 40.8 L56.3 43.2 Q57.3 48.7 56.15 52.25 54.55 57.1 49.2 54.85 47.0 53.9 46.2 50.3 L26.15 69.9 Q26.8 74.55 25.8 77.75 24.2 82.8 18.85 80.5 15.8 79.05 15.45 72.75 L15.85 65.0 3.3 58.5 3.35 58.9 Q4.3 64.35 3.2 67.9 1.55 72.75 -3.75 70.5 -6.85 69.05 -7.15 62.9 -6.7 56.05 -6.8 53.2 L-13.95 49.5 -15.55 41.9 20.95 3.65 26.45 3.65 64.2 21.9 63.75 33.2 55.95 40.8 M51.55 45.1 L49.25 47.35 Q49.2 50.5 51.95 51.3 L52.25 45.3 51.55 45.1 M21.6 76.8 L21.9 71.0 19.15 70.2 Q17.9 75.85 21.6 76.8 M-1.0 66.8 L-0.7 61.0 -3.45 60.15 Q-4.75 66.0 -1.0 66.8" fill="#3f5a75" fill-opacity="0.9529412" fill-rule="evenodd" stroke="none"/>
      <path d="M51.55 45.1 L52.25 45.3 51.95 51.3 Q49.2 50.5 49.25 47.35 L51.55 45.1 M21.6 76.8 Q17.9 75.85 19.15 70.2 L21.9 71.0 21.6 76.8 M-1.0 66.8 Q-4.75 66.0 -3.45 60.15 L-0.7 61.0 -1.0 66.8" fill="#3f5a75" fill-opacity="0.19215687" fill-rule="evenodd" stroke="none"/>
      <path d="M25.45 66.8 L23.55 66.3 -12.5 46.95 -12.9 44.05 24.8 62.1 25.45 66.8" fill="#3f5a75" fill-opacity="0.2627451" fill-rule="evenodd" stroke="none"/>
      <path d="M61.5 27.85 L61.15 30.95 25.45 66.95 25.45 66.8 24.8 62.1 24.85 62.1 25.65 63.4 61.5 27.85" fill="#3f5a75" fill-opacity="0.48235294" fill-rule="evenodd" stroke="none"/>
      <path d="M60.65 24.35 L61.3 23.65 62.6 26.75 61.5 27.85 25.65 63.4 24.85 62.1 24.35 61.3 26.3 59.35 32.1 53.45 38.5 46.9 56.25 28.85 58.15 26.9 60.65 24.35" fill="#3f5a75" fill-opacity="0.72156864" fill-rule="evenodd" stroke="none"/>
      <path d="M48.4 18.5 L46.45 17.4 45.5 16.75 40.65 23.65 Q37.6 28.2 34.65 29.65 33.4 30.3 30.8 30.6 L26.75 31.45 Q21.6 32.7 20.45 32.55 24.5 33.55 25.3 34.35 26.3 35.45 25.15 38.7 L23.2 43.7 Q21.9 46.95 22.1 48.7 25.15 46.1 28.7 41.45 L34.2 33.2 Q36.75 29.5 45.5 23.35 L50.0 20.1 Q49.7 19.3 48.4 18.5 M44.45 16.2 L46.7 17.3 47.75 18.0 52.9 21.4 Q40.95 27.4 32.9 39.2 30.95 41.9 28.55 46.95 L24.35 55.0 22.4 57.45 14.15 53.3 Q19.95 48.3 21.25 44.5 24.35 35.15 18.7 34.15 14.95 33.35 10.75 36.1 7.4 38.35 4.95 41.9 L2.55 45.3 1.05 46.8 -7.55 42.5 Q-4.95 40.75 -1.0 37.25 4.0 32.7 7.2 31.25 9.5 30.3 13.2 30.3 L19.35 30.45 Q29.5 30.45 35.15 24.15 L38.4 19.65 Q40.95 16.25 42.25 15.9 43.1 15.7 44.45 16.2 M26.1 6.9 L26.3 6.7 27.1 7.35 27.3 7.5 Q30.0 9.5 30.45 10.45 29.2 10.6 26.3 12.35 21.9 15.1 25.45 14.65 28.85 14.15 31.75 12.7 33.9 11.55 35.4 11.95 30.3 14.0 20.95 20.75 24.65 21.1 30.0 18.85 34.65 16.75 38.05 14.0 37.4 13.0 35.95 12.2 L35.95 12.1 Q36.85 12.4 39.7 14.65 38.55 15.9 33.7 18.35 28.85 22.05 25.65 23.65 19.8 26.9 17.05 24.0 14.35 21.1 19.0 14.95 21.55 11.6 26.1 6.9 M32.1 53.45 Q31.6 44.95 38.55 36.25 45.8 27.4 54.2 26.75 L58.15 26.9 56.25 28.85 Q48.9 28.4 43.7 35.95 41.8 38.85 38.5 46.9 L32.1 53.45" fill="#3f5a75" fill-opacity="0.42352942" fill-rule="evenodd" stroke="none"/>
      <path d="M48.4 18.5 Q49.7 19.3 50.0 20.1 L45.5 23.35 Q36.75 29.5 34.2 33.2 L28.7 41.45 Q25.15 46.1 22.1 48.7 21.9 46.95 23.2 43.7 L25.15 38.7 Q26.3 35.45 25.3 34.35 24.5 33.55 20.45 32.55 21.6 32.7 26.75 31.45 L30.8 30.6 Q33.4 30.3 34.65 29.65 37.6 28.2 40.65 23.65 L45.5 16.75 46.45 17.4 48.4 18.5 M27.3 7.5 L35.75 11.8 35.4 11.95 Q33.9 11.55 31.75 12.7 28.85 14.15 25.45 14.65 21.9 15.1 26.3 12.35 29.2 10.6 30.45 10.45 30.0 9.5 27.3 7.5 M38.5 46.9 Q41.8 38.85 43.7 35.95 48.9 28.4 56.25 28.85 L38.5 46.9" fill="#3f5a75" fill-opacity="0.5529412" fill-rule="evenodd" stroke="none"/>
      <path d="M44.45 16.2 Q43.1 15.7 42.25 15.9 40.95 16.25 38.4 19.65 L35.15 24.15 Q29.5 30.45 19.35 30.45 L13.2 30.3 Q9.5 30.3 7.2 31.25 4.0 32.7 -1.0 37.25 -4.95 40.75 -7.55 42.5 L-11.35 40.6 23.55 5.6 26.1 6.9 Q21.55 11.6 19.0 14.95 14.35 21.1 17.05 24.0 19.8 26.9 25.65 23.65 28.85 22.05 33.7 18.35 38.55 15.9 39.7 14.65 36.85 12.4 35.95 12.1 L35.95 12.2 Q37.4 13.0 38.05 14.0 34.65 16.75 30.0 18.85 24.65 21.1 20.95 20.75 30.3 14.0 35.4 11.95 L35.75 11.8 35.95 11.7 35.95 11.9 44.45 16.2 M1.05 46.8 L2.55 45.3 4.95 41.9 Q7.4 38.35 10.75 36.1 14.95 33.35 18.7 34.15 24.35 35.15 21.25 44.5 19.95 48.3 14.15 53.3 L1.05 46.8 M6.55 47.25 L8.2 48.4 Q10.6 49.35 13.7 47.9 16.9 46.45 15.95 43.4 14.95 40.15 10.95 42.4 7.05 44.35 6.55 47.25" fill="#3f5a75" fill-opacity="0.3019608" fill-rule="evenodd" stroke="none"/>
      <path d="M6.55 47.25 Q7.05 44.35 10.95 42.4 14.95 40.15 15.95 43.4 16.9 46.45 13.7 47.9 10.6 49.35 8.2 48.4 L6.55 47.25" fill="#3f5a75" fill-opacity="0.11372549" fill-rule="evenodd" stroke="none"/>
      <path d="M22.4 57.45 L24.35 55.0 28.55 46.95 Q30.95 41.9 32.9 39.2 40.95 27.4 52.9 21.4 L47.75 18.0 46.7 17.3 60.65 24.35 58.15 26.9 54.2 26.75 Q45.8 27.4 38.55 36.25 31.6 44.95 32.1 53.45 L26.3 59.35 22.4 57.45" fill="#3f5a75" fill-opacity="0.3529412" fill-rule="evenodd" stroke="none"/>
    </g>
  </defs>
</svg>
