<svg xmlns:xlink="http://www.w3.org/1999/xlink" height="27.6" width="44.45" xmlns="http://www.w3.org/2000/svg"><use height="24.7" transform="translate(7.3 1.95)" width="22" xlink:href="#a"/><defs><path d="m6.7.05-1.3 1.7v.1l1-.8.7-.8-.8 1.4.8-.5.7-.2 2.1-1.8.5-.6-.2 1.3Q9 1.45 8.9 1.95l1.8-1.4.3-.4v.2q-.4 1.05-1.7 2.6l-1.1.9v.1l.6-.1 1.3-.7-.2.7-1.4 1.4-1.7 1.2 1.6-.2q0 .4-1.6 1.5-1.35.2-1.4.6l2.5-.2q-.15.6-.7.8l-2.7.7 1.9.2-.4.4-2.1.4h.8q-.55.5-2.6.6l1.7.8 1.7 1.4.8 1.3.7.6q1.25.3 1.9-.7v-.7l-.9-.7.6-.4q-.7-1-.3-2.8l.8-1.6q1.1-1.2.6-2.1l-.5.1v-.4l.3-.3.9.1.2.4v1.1q-.35.6-.3 1.1v.1l.1.4-1 1.1-.3.7.2 1.6q.65 1.3.2 3 .3.2.2.9l-.6-.4-1.9.3q-.7 0-1-.4l-1-1.5-.4-.2.3.5-.4-.2q.05.6.3.6.1.6-.3.7l.5.6-.3.1.5.7h-.2l.5 1-.1 1.6-.4-.5-.1.4.1 1 .1.2.7.3q.05 1.3-.2 1.3-.2-.5-.7-.6l-.3-.6q-.4-.1-.6.3.3.25.2.7-.6.5-.4 1.1l-.5-.2-.3-.8q.45-.5.3-.7l-.9.2-.2.5H2l-.4-.4-.4.4.1-.7.4-.3v-.2h1.1v-.2l-.9-.2.1-.1-.1-.3-.4-.2.3-.3.8.2.6.6.6-1.1-.1-.6-.8-.5h-.2l.1.7q-.75 0-.9-.8l-.4.2-.4-.1.7-.8-.3-.8-.1-1-1 .3-.1.2-.1-.5q-.2-.1-1.15.5h.05l-.2.1.15-.1-.45.1-.5 1h-.4l-.3 1-.9-.6q-.3-.3-1.9.6l.3.5q.9.25.7.8-.1.6-.6.8-.2-.8-.4-.8l-.4-.1q.2-.55-.4-.7l-.2 1h-.4l-.1.7q-.6 0-.7-1.2l.5-.6q.2-.35-.1-.4l-1.3.2q-.2-.75-.9-.2l.3-.8q.35 0 .5-.4h.4q.75.6 1.3.4l-.1-.2-.9-.3.1-.4-.6-.1.2-.3 1.6.1v.7q.45.4 2.2 0l.2-.4.1-.9q.1-.5-.7-.7l.9-.1.3-.4-.4-.4h.6q1.45-.75 2.2-.6 1.75-.05 2.5.4l.1-.1q.1-.35-.7-.8l-.6.1-.5-.4-1.3.1-.7-.4v.2l-.5-.4-.7.8-.3-.2q0 .3-.6.3l-.1-.2-1 .1.1-.3-1.5.1.1.3.5.4q.05 1-.3 1.1-.2-.7-.4-.7h-.4l-.3-.6-.6-.4h-.3l-.6.8h-.3l-.3.4-.3-.1q-.15-.4.3-1.2l.7-.1.2-.3q-.85.1-.8-.3l-.5.1q-.35-.4-.7-.1v-.3l.3-.4.9-.4.8.7h.3v-.3l-.4-.5q.25-.8-.2-1.1l.4.1-.1.1.2.5h.3v-.2l-.3-.3.5.2.3.4q-.55.9.3 1.1h1.3l-.1-.2.1-.1 1.3.1-.6-1.1-1.8-.5.4-.3q-.7-.2-1-.6l.2-.1-.1-.3-.7-.3-.1-.5h.4l-.7-.6.6-.1-.6-.7.7-.2-.1-1.9h-.2l-.2 1.2-1.7.1.7-.1-.1-.4.5-.5.4-1.3-.7.1q-.3-.45-1.1-.7l1-.2.5-.3h.5l-.3-.8v-.3h.3q.2-.2-.4-.8.7-.1 1.4.6l-.1.8h.4l.3-.5h.4l.3-.4.2.4-.1.6.1.1-.2.3q-1.2.1-1.3 1.1-.3.2.7 2.3l.3-.1.1.6v.1l.3-.2q.05 1 .7.8l-.2-.1q.2-.7.8-1l-.2-.2q.6-.5.9-.3l.3-.3h-.2l.6-.7-1-.4v-.4q.5.2 1.4 0l-1.2-1.1q-.4-.15-.5.4l-.4-.2q-.15-.75.2-.9l.6-.1.5-.5 2.2.1.2-.5Q.2-.9.5-.45l-.2.7.8-.4.8-.1-.3 1-.4.5q.2.05 0 .3l-.6.5-.1.3-.8.4.3.9.9-.9Q4.2 1.1 4.3.65l-.5 1.3.3-.2 3.3-3.2-.7 1.5M4 22.25l-.3.2v.4l.3-.4v-.2m1.7-.2.2-.3-.1-.4-.3.2.2.5m-3.4-1.7-.1-.4h-.4l.3.4h.2m-.4 1.1-.3.1v.1H2l-.1-.2m-.4.2v.1h.1v-.1h-.1M-8.9.45l.2.7h.3q.2-.1-.4-.7h-.1m6.4 1.6h-.3v.3l.4-.1-.1-.2m-.7.3q.1-.45-.2-.5h-.1l.2.5h.1m-.5 10.5v-.1h-.1v.1h.1m2.3-.1h.2v-.1h-.2v.1m1.9.3h.1v-.2H.5v.2m-10.4-7.3h.4v-.3l-.4.2v.1m-.9 6.2.5-.1-.1-.4-.4.3v.2m.8 1.9.4-.2v-.3l-.4.1v.4m.8 4.3q.3-.35.9-.2l-.2-.3h-.4l-.3.3v.2m2.5-3.7.2-.2v-.5h-.4l.2.7m-.9 1.9v.2h.3v-.2h-.3m2.9 3.7-.1-.7-.4.1.2.7.3-.1m-2.2-.5-.3.1v.5l.4-.4-.1-.2" fill="#f39" fill-rule="evenodd" transform="translate(11 1.45)" id="a"/></defs></svg>