<svg xmlns:xlink="http://www.w3.org/1999/xlink" height="27.6" width="44.45" xmlns="http://www.w3.org/2000/svg"><use height="20.35" transform="translate(9.5 3.8)" width="17.55" xlink:href="#a"/><defs><path d="M3.25 2.9 3 3.5l1.6-1.05h.65l.15.2-.55 2.25-.8 1.05.1.5.7.45q.45.9.4 2.15l1.45-.4.55.25q.05.4.45.25l-.4 2.15-.4.9v.25L4.8 15.9q-.2.35 0 .55l1.8-.1 2.15-.15v.4l-.5 1.8q-.55.4-.55 1l-.3.1.15-.75-.05-.25-.2.1-.15 1-.15.1-.1-.1.1-.55q-.35.05-.3-.25.3-.5.05-.65l-.15.2-.25 1.05-.45.35q.35-.95 0-1.15l-.25.05-.3.5.05.45-.6.35-.2.3-1.1.5h-.3q0-.35-1.1-.45v-.2l1.4-.1.3-.4.2-.7-.8-1.05-.2.1-.3.8.25.65.5.3-1.15-.1-.65-.85.45-1.45-.75.15.2.9-.1.3-.8-1.5-1.2-.15-.15.7-.65.8v-1.45h-.45l.05 1.75-1 .6h-.55l.8-.8q.05-1.15-.6-1.15-.55-.1-.75.15l-.2 1q.35 1.05 1.6 1.15-.5 0-.8.4h-.3l-1.7-.15-.4-.8-.6-.45.05-.65h-.45l.15.95.55.8-.85-.45v.1l-.4-.1v-.25l-.5-.4q-.4-.55-.25-.9v-.05l-.2.15.55 1.45q-1.2-.6-1.2-1.8v-.85l.8-.55.6-.25.9.1 1.85.3.3-.8-.15-.75-.95-.8v-.25L-6.5 12.4l-1.1-2.25q-.1-.95.2-.95l.5.1q.05-.25.5-.25l.95.35-.4-.8-.35-.35-1.1-.55q-1.6-1.05-1.35-2.55L-8 3.5l.4-.6h-1.2l1.4-1L-6.2.8h.2l-.25.8q-.2 1 0 2.45L-7 3l-.55 1.55Q-7.5 6.9-5 7.5q.95.2 1.35-.9v-.15l-.8-.55L-5 4.55q-.5-1.7-.25-2.35h.35q.05.5 1.1 1.35l.7.25-.3-1.5q.8-1.15 2.3-1.9h.15l.9 1.05-.8.2-.3.65.6.7.4-.2.45.2.2-.2.4.2.45-.6q0-1.15-.7-.95l.9-.8.9.45.8.75V2.9M2.1 5.95l.85-.15.25-.4-.55-.4H2.1v.95m-1.05 0h.85l-.25-.7q-.3-.1-1 .45l.4.25m0 1.65v.25h.55L1.45 7H1.3l-.25.6m5.55 5.1v-.05h-.1v.05h.1m.9 5.35v.2l.2-.2v-.5l-.2.5M-2.75 5.35l.3.35.5.25h.3l-.25-.8h-.6l-.25.2m1.6-.1h-.2l-.05.3v.4l.95-.15-.7-.55m0 2.55-.5-.95-.15.05v.8l.4.1h.25" fill="#f39" fill-rule="evenodd" transform="translate(8.8 -.4)" id="a"/></defs></svg>