<svg xmlns:xlink="http://www.w3.org/1999/xlink" height="58.45" width="59" xmlns="http://www.w3.org/2000/svg"><g transform="translate(1 .95)"><use height="58.45" transform="translate(-1 -.95)" width="59" xlink:href="#a"/><use height="40.85" transform="translate(8.25 15.05) scale(.7102)" width="56.65" xlink:href="#b"/></g><defs><path d="m51.05 3.95-1.1 4.4q4-.25 6 3.45 2.15 3.95-2.1 7.6-3.6 3.15-8.75 3.25h-.2l-1.55-.05q-4.85 6.25-11.05 7.6v2.2q3.45.25 6.1 1.1 4.05 1.25 4.05 3.05 0 1.8-4.05 3.05-4 1.25-9.7 1.25-5.7 0-9.75-1.25-4-1.25-4-3.05 0-1.8 4-3.05 2.85-.9 6.55-1.15V30.3q-6.85-1.35-12.1-8.5l-1.65.05h-.2q-5.15-.1-8.75-3.25Q-1.45 14.95.7 11q2.15-3.95 6.6-3.4l-.85-3.45h.05V4.1q1.75-1.7 6.55-2.7Q19.9 0 28.7 0t15.35 1.3q4.8.9 6.4 2.05l.55.5.05.1m-.75.75.65-.65-.4.35-.25.3m2.85 10.6q-.35-3.25-1.9-3.6-1.2-.3-2.05-.75-1.85 5.6-4.05 9.15 8.3-1.65 8-4.8M5.4 10.9q-1.55.35-1.9 3.6-.35 3.2 8.3 4.85Q9.55 15.5 7.95 9.9q-1 .6-2.55 1" fill="#f39" fill-rule="evenodd" id="c"/><use height="40.85" width="56.65" xlink:href="#c" id="b"/><g id="a"><path d="M50.85 23.5 57 27.3l-5.9 4.15 4.55 5.6L48.7 39l2.3 6.8-7.25-.6-.1 7.3-6.55-3.1-2.65 6.75-5.1-5.15-4.75 5.5-3.1-6.55-6.35 3.45-.6-7.2-7.2 1.15L9.2 40.3l-7.1-1.35 4.1-5.9L0 29.2l5.95-4.1-4.55-5.65 7-1.95-2.3-6.8 7.2.6.1-7.25 6.65 3L22.6.35l5.2 5.1 4.75-5.4L35.6 6.5l6.35-3.4.65 7.15 7.15-1.05-1.85 6.95 7.1 1.4-4.15 5.95m-31.5 6.45q0 1.3.5 1.65l.1-.05h-.1q-.4-.2-.5-1.6m17.2 1.2h.15-.15L36 31q-1.75-.8-3.45-.3l-1 .3 1-.25q1.7-.55 3.4.25l.6.15m-11.4-3.8.1.15.25-.15h-.35m.2 2.85.05-.05h-.15l-.1.05h.2m-.05.85.85.05-.85-.05-2.65-.25-.45.15.4-.1 2.7.2" fill="#fff" fill-rule="evenodd" transform="translate(1 .95)"/><path d="m51.85 24.45 6.15 3.8-5.9 4.15 4.55 5.6-6.95 1.95 2.3 6.8-7.25-.6-.1 7.3-6.55-3.1-2.65 6.75-5.1-5.15-4.75 5.5-3.1-6.55-6.35 3.45-.6-7.2-7.2 1.15 1.85-7.05-7.1-1.35L7.2 34 1 30.15l5.95-4.1L2.4 20.4l7-1.95-2.3-6.8 7.2.6.1-7.25 6.65 3 2.55-6.7 5.2 5.1L33.55 1l3.05 6.45 6.35-3.4.65 7.15 7.15-1.05-1.85 6.95 7.1 1.4-4.15 5.95Z" fill="none" stroke="#f09" stroke-linecap="round" stroke-linejoin="round" stroke-width="2"/></g></defs></svg>