<svg xmlns:xlink="http://www.w3.org/1999/xlink" height="58.5" width="59" xmlns="http://www.w3.org/2000/svg"><use height="58.45" width="59" xlink:href="#a"/><defs><g id="a"><path d="m47.9 16.1 7.1 1.4-4.15 5.95 6.15 3.8-5.9 4.15 4.55 5.6-6.95 1.95 2.3 6.8-7.25-.6-.1 7.3-6.55-3.1-2.65 6.75-5.1-5.15-4.75 5.5-3.1-6.55-6.35 3.45-.6-7.2-7.2 1.15 1.85-7.05-7.1-1.35L6.2 33 0 29.15l5.95-4.1L1.4 19.4l7-1.95-2.3-6.8 7.2.6.1-7.25 6.65 3L22.6.3l5.2 5.1L32.55 0l3.05 6.45 6.35-3.4.65 7.15 7.15-1.05-1.85 6.95m-18.1 12h-5.5q1.45-4.15 3.45-7.75 1.2 1.95 2.05 7.75m3-6.5q-2-4.8-5.55-5.25-2-.35-4.1 4.1-1.2 2.5-3.3 7.55-.55 1-1.3 5.7-.7 4.5-.7 6.45v1.7q.35 1.5 1.9 1.5.9 0 2.25-6.75.5-2.45 1.15-4.75h7.15l.2 2.15q.85 8.85 3.25 8.85 1.85 0 1.85-2.3l-.8-6.25q-.8-5.1-.7-5.95.35-2.8-1.3-6.75" fill="#fff" fill-rule="evenodd" transform="translate(1 1)"/><path d="M32.8 21.6q1.65 3.95 1.3 6.75-.1.85.7 5.95l.8 6.25q0 2.3-1.85 2.3-2.4 0-3.25-8.85l-.2-2.15h-7.15q-.65 2.3-1.15 4.75-1.35 6.75-2.25 6.75-1.55 0-1.9-1.5v-1.7q0-1.95.7-6.45.75-4.7 1.3-5.7 2.1-5.05 3.3-7.55 2.1-4.45 4.1-4.1 3.55.45 5.55 5.25m-3 6.5q-.85-5.8-2.05-7.75-2 3.6-3.45 7.75h5.5" fill="#f09" fill-rule="evenodd" transform="translate(1 1)"/><path d="m48.9 17.1 7.1 1.4-4.15 5.95 6.15 3.8-5.9 4.15 4.55 5.6-6.95 1.95 2.3 6.8-7.25-.6-.1 7.3-6.55-3.1-2.65 6.75-5.1-5.15-4.75 5.5-3.1-6.55-6.35 3.45-.6-7.2-7.2 1.15 1.85-7.05-7.1-1.35L7.2 34 1 30.15l5.95-4.1L2.4 20.4l7-1.95-2.3-6.8 7.2.6.1-7.25 6.65 3 2.55-6.7 5.2 5.1L33.55 1l3.05 6.45 6.35-3.4.65 7.15 7.15-1.05-1.85 6.95Z" fill="none" stroke="#f09" stroke-linecap="round" stroke-linejoin="round" stroke-width="2"/></g></defs></svg>