<svg xmlns:xlink="http://www.w3.org/1999/xlink" height="67.75" width="69.2" xmlns="http://www.w3.org/2000/svg"><use height="64.35" transform="translate(5.3)" width="58.65" xlink:href="#a"/><defs><linearGradient gradientTransform="matrix(.0285 0 0 .0313 -.3 34.8)" gradientUnits="userSpaceOnUse" id="b" spreadMethod="pad" x1="-819.2" x2="819.2"><stop offset="0" stop-color="#fff" stop-opacity="0"/><stop offset=".737" stop-color="#fff" stop-opacity=".502"/></linearGradient><linearGradient gradientTransform="matrix(-.0142 0 0 -.0312 11.45 34.8)" gradientUnits="userSpaceOnUse" id="c" spreadMethod="pad" x1="-819.2" x2="819.2"><stop offset="0" stop-color="#fff" stop-opacity="0"/><stop offset=".737" stop-color="#fff" stop-opacity=".502"/></linearGradient><linearGradient gradientTransform="matrix(.018 0 0 .0387 13.75 34.65)" gradientUnits="userSpaceOnUse" id="d" spreadMethod="pad" x1="-819.2" x2="819.2"><stop offset="0" stop-color="#fff" stop-opacity="0"/><stop offset=".404" stop-color="#fff" stop-opacity=".502"/><stop offset=".733" stop-color="#fff" stop-opacity=".514"/><stop offset="1" stop-color="#fff" stop-opacity="0"/></linearGradient><linearGradient gradientTransform="matrix(-.0176 0 0 -.0385 -12.45 34.75)" gradientUnits="userSpaceOnUse" id="e" spreadMethod="pad" x1="-819.2" x2="819.2"><stop offset="0" stop-color="#fff" stop-opacity="0"/><stop offset=".404" stop-color="#fff" stop-opacity=".502"/><stop offset=".733" stop-color="#fff" stop-opacity=".514"/><stop offset="1" stop-color="#fff" stop-opacity="0"/></linearGradient><linearGradient gradientTransform="matrix(.0144 0 0 .0313 -9.5 35.05)" gradientUnits="userSpaceOnUse" id="f" spreadMethod="pad" x1="-819.2" x2="819.2"><stop offset="0" stop-color="#fff" stop-opacity="0"/><stop offset=".737" stop-color="#fff" stop-opacity=".502"/></linearGradient><linearGradient gradientTransform="matrix(.0142 0 0 .0312 12.15 39.15)" gradientUnits="userSpaceOnUse" id="g" spreadMethod="pad" x1="-819.2" x2="819.2"><stop offset="0" stop-color="#fff" stop-opacity="0"/><stop offset=".737" stop-color="#fff" stop-opacity=".502"/></linearGradient><g id="a"><path d="m.05 60.15.05.2v.05l-.1.05-.3.05h-.05l.35-.1-.15-.8.2.55" fill="url(#b)" fill-rule="evenodd" transform="translate(29.75 -2.45)"/><path d="M.1 60.4v-.05l-.05-.2.05.25" fill="url(#c)" fill-rule="evenodd" transform="translate(29.75 -2.45)"/><path d="m-.3 60.5.3-.05.1-.05Q23.85 55.6 23 18.5 9.9 15.4-.15 9.25l-.1-.05-.05-.05h-.65V3.3l.65-.35Q12.2 10.6 28.5 14.5 29.6 60.75-.3 66.3v-5.8" fill="url(#d)" fill-rule="evenodd" transform="translate(29.75 -2.45)"/><path d="M-.35 60.5h.05v5.8q-6.5-1.1-11.55-4.4-5.3-3.45-8.95-9.35-8.15-13.05-8.3-38.05Q-13.8 10.1-.95 3.3v5.85q-10.4 5.8-22.7 9.35.1 23.6 9.05 34.05l2.75 2.75q4.8 4.05 11.5 5.2" fill="url(#e)" fill-rule="evenodd" transform="translate(29.75 -2.45)"/><path d="m-.15 59.6.15.8-.35.1q-6.7-1.15-11.5-5.2l-2.75-2.75q-8.95-10.45-9.05-34.05 12.3-3.55 22.7-9.35h.65l.05.05.1.05V59.6" fill="url(#f)" fill-rule="evenodd" transform="translate(29.75 -2.45)"/><path d="m.1 60.4-.05-.25-.2-.55V9.25Q9.9 15.4 23 18.5 23.85 55.6.1 60.4" fill="url(#g)" fill-rule="evenodd" transform="translate(29.75 -2.45)"/><path d="M-1.1 3.3q-12.85 6.8-28.15 11.2.15 25 8.3 38.05 3.65 5.9 8.95 9.35 5.05 3.3 11.55 4.4 29.9-5.55 28.8-51.8-16.3-3.9-28.8-11.55l-.65.35Z" fill="none" stroke="#2a5380" stroke-linecap="round" stroke-linejoin="round" transform="translate(29.75 -2.45)"/></g></defs></svg>