<?xml version="1.0" encoding="UTF-8" standalone="no"?>
<!-- Created with Inkscape (http://www.inkscape.org/) -->

<svg
   width="210mm"
   height="297mm"
   viewBox="0 0 210 297"
   version="1.1"
   id="svg5"
   inkscape:version="1.1 (c4e8f9ed74, 2021-05-24)"
   sodipodi:docname="drawing.svg"
   xmlns:inkscape="http://www.inkscape.org/namespaces/inkscape"
   xmlns:sodipodi="http://sodipodi.sourceforge.net/DTD/sodipodi-0.dtd"
   xmlns="http://www.w3.org/2000/svg"
   xmlns:svg="http://www.w3.org/2000/svg">
  <sodipodi:namedview
     id="namedview7"
     pagecolor="#505050"
     bordercolor="#eeeeee"
     borderopacity="1"
     inkscape:pageshadow="0"
     inkscape:pageopacity="0"
     inkscape:pagecheckerboard="0"
     inkscape:document-units="mm"
     showgrid="false"
     inkscape:zoom="0.51213161"
     inkscape:cx="162.06772"
     inkscape:cy="907.96973"
     inkscape:current-layer="layer1" />
  <defs
     id="defs2" />
  <g
     inkscape:label="Layer 1"
     inkscape:groupmode="layer"
     id="layer1">
    <g
       id="g3116"
       transform="translate(41.675271,-33.053064)">
      <path
         style="fill:#fcfbf3;stroke-width:0.264583"
         d="m 101.33539,149.61291 -0.51255,-4.25066 4.08374,-2.04478 3.17149,0.84153 0.66471,3.82893 -0.69302,3.44187 -2.10386,1.88798 -4.26727,-0.83075 z"
         id="path3130"
         sodipodi:nodetypes="ccccccccc" />
      <path
         style="fill:#ebe2a5;stroke-width:0.264583"
         d="m 101.9346,153.39669 c -1.34462,-0.91302 -2.293271,-3.22727 -1.32292,-3.22727 0.34413,0 0.34413,-0.97794 0,-1.19062 -0.53251,-0.32911 -0.31008,-3.55858 0.30456,-4.42176 0.98761,-1.38697 6.04544,-2.66817 6.04544,-1.53137 0,0.14552 0.19036,0.26459 0.42302,0.26459 1.37781,0 1.95823,1.46118 1.95823,4.92973 v 3.28628 l -1.18366,1.18366 -1.18366,1.18366 -2.18978,-0.0139 c -1.60585,-0.0102 -2.36616,-0.13364 -2.85123,-0.46302 z m 2.83751,-2.08249 c 0.0508,-0.15255 -0.2096,-0.47528 -0.57878,-0.71717 -0.65535,-0.4294 -0.67123,-0.42453 -0.67123,0.2057 0,0.84948 1.00083,1.25899 1.25001,0.51147 z m 2.67452,-1.12627 c 0.11667,-0.79675 -0.16462,-1.87059 -0.48999,-1.87059 -0.14275,0 -0.25954,0.60523 -0.25954,1.34497 0,1.38944 0.56503,1.78569 0.74953,0.52562 z m -2.60161,-1.82958 c 0,-0.12297 -0.23813,-0.43908 -0.52917,-0.70247 -0.51299,-0.46425 -0.52917,-0.46213 -0.52917,0.0692 0,0.49207 0.29224,0.77616 0.8599,0.83592 0.10914,0.0115 0.19844,-0.0797 0.19844,-0.20269 z m 3.65254,-2.21259 c 0.0997,-0.83455 -0.96658,-2.16205 -1.62681,-2.02544 -0.414,0.0857 -0.39141,0.19383 0.21044,1.00728 0.37083,0.50121 0.67424,1.13621 0.67424,1.41111 0,0.74045 0.64775,0.39748 0.74213,-0.39295 z"
         id="path3128" />
      <path
         style="fill:#f2cb0f;stroke-width:0.264583"
         d="m 102.19918,153.28427 c -1.42158,-0.71795 -2.18088,-2.29468 -1.45472,-3.02083 0.48019,-0.4802 0.48016,-0.57613 -4.8e-4,-1.41693 -1.716444,-3.0026 0.70543,-5.9935 4.66749,-5.76414 3.18427,0.18434 3.93563,1.172 3.92565,5.16033 -0.012,4.79345 -3.18777,7.03653 -7.13794,5.04157 z m 2.80057,-1.82823 c 0.19756,-0.31966 -0.85065,-1.27076 -1.4115,-1.28073 -0.42143,-0.007 -0.43037,0.84698 -0.0132,1.26411 0.40144,0.40145 1.18127,0.41054 1.42473,0.0166 z m 2.44029,-1.64028 c 0.1001,-1.56624 -0.50288,-2.60613 -0.77778,-1.34135 -0.3608,1.66 -0.2626,2.79839 0.23328,2.70422 0.35023,-0.0665 0.48287,-0.39849 0.5445,-1.36287 z m -2.33044,-1.39143 c 0,-0.38837 -1.12395,-1.68516 -1.34315,-1.54969 -0.28144,0.17394 -0.33005,1.26881 -0.068,1.53089 0.21877,0.21878 1.41111,0.23466 1.41111,0.0188 z m 3.38643,-2.13271 c 0.0984,-1.31677 -0.51779,-2.13725 -1.79033,-2.38369 l -0.91743,-0.17767 0.81785,1.03677 c 0.44982,0.57022 0.90328,1.43003 1.00769,1.91068 0.25358,1.16744 0.78341,0.93557 0.88222,-0.38609 z"
         id="path3126" />
      <path
         style="fill:#d2aa01;stroke-width:0.264583"
         d="m 102.19918,153.28427 c -1.42158,-0.71795 -2.18088,-2.29468 -1.45472,-3.02083 0.48019,-0.4802 0.48016,-0.57613 -4.8e-4,-1.41693 -1.716444,-3.0026 0.70543,-5.9935 4.66749,-5.76414 3.18427,0.18434 3.93563,1.172 3.92565,5.16033 -0.012,4.79345 -3.18777,7.03653 -7.13794,5.04157 z m 5.85058,-1.85447 c 2.38407,-4.2601 -0.92288,-9.05813 -5.06159,-7.34382 -0.84739,0.351 -0.86078,0.38417 -0.80004,1.9824 0.0751,1.97534 0.40095,2.27825 2.85394,2.65272 1.32489,0.20226 1.44077,0.33682 1.2239,1.42115 -0.18558,0.9279 -0.94236,1.10641 -1.8334,0.43246 -0.49337,-0.37316 -1.9688,-0.56471 -1.9688,-0.2556 0,0.28737 0.61071,1.30709 0.8995,1.50193 0.49901,0.33665 4.4644,0.006 4.68649,-0.39124 z m -3.60854,-4.27884 c -0.20724,-0.49599 -0.49578,-0.94248 -0.64121,-0.99219 -0.50895,-0.17399 0.0439,-1.2853 0.72439,-1.45609 1.17893,-0.29589 2.35921,2.03372 1.24666,2.46065 -0.21828,0.0838 -0.39688,0.31815 -0.39688,0.52086 0,0.68905 -0.55474,0.37199 -0.93296,-0.53323 z"
         id="path3124" />
      <path
         style="fill:#b59204;stroke-width:0.264583"
         d="m 102.19918,153.28427 c -1.42158,-0.71795 -2.18088,-2.29468 -1.45472,-3.02083 0.48019,-0.4802 0.48016,-0.57613 -4.8e-4,-1.41693 -1.716444,-3.0026 0.70543,-5.9935 4.66749,-5.76414 3.18427,0.18434 3.93563,1.172 3.92565,5.16033 -0.012,4.79345 -3.18777,7.03653 -7.13794,5.04157 z m 4.76984,-0.74707 c 1.52919,-0.60956 2.33405,-6.40523 1.10098,-7.92801 -1.9241,-2.37616 -6.38121,-0.75654 -6.43442,2.33813 -0.0407,2.36863 -0.0248,2.38522 2.34954,2.45344 1.65572,0.0476 1.91823,0.12078 1.91823,0.53488 0,0.72183 -0.87338,1.09171 -1.4848,0.62882 -0.93627,-0.70881 -2.74853,-0.51448 -2.74853,0.29473 0,0.50195 0.1072,0.64863 0.3937,0.53869 0.21653,-0.0831 0.38103,-0.0661 0.36554,0.0378 -0.0855,0.5736 0.0975,0.89135 0.62982,1.09347 0.8416,0.31956 3.11665,0.32423 3.90994,0.008 z m -3.97609,-3.5584 c 0,-0.0728 0.0595,-0.13229 0.1323,-0.13229 0.0728,0 0.13229,0.0595 0.13229,0.13229 0,0.0728 -0.0595,0.13229 -0.13229,0.13229 -0.0728,0 -0.1323,-0.0595 -0.1323,-0.13229 z m 1.32292,0 c 0,-0.0728 0.0595,-0.13229 0.13229,-0.13229 0.0728,0 0.13229,0.0595 0.13229,0.13229 0,0.0728 -0.0595,0.13229 -0.13229,0.13229 -0.0728,0 -0.13229,-0.0595 -0.13229,-0.13229 z m 0.43441,-1.19804 c -0.0678,-0.2142 -0.25277,-0.79418 -0.41111,-1.28884 -0.39692,-1.24 -0.37175,-1.35015 0.30743,-1.34553 0.48139,0.003 0.51937,0.0531 0.19844,0.26053 -0.33917,0.21919 -0.32955,0.25707 0.0661,0.26054 0.34601,0.003 0.462,0.22136 0.45897,0.86394 -0.005,1.0346 -0.42189,1.8751 -0.61987,1.24936 z m -2.81566,4.10845 c 0,-0.0728 -0.0595,-0.13229 -0.13229,-0.13229 -0.0728,0 -0.13229,0.0595 -0.13229,0.13229 0,0.0728 0.0595,0.1323 0.13229,0.1323 0.0728,0 0.13229,-0.0595 0.13229,-0.1323 z"
         id="path3122" />
      <path
         style="fill:#8e6b0b;stroke-width:0.264583"
         d="m 102.78611,153.48445 c -1.86596,-0.58264 -2.65077,-1.9306 -1.91954,-3.2969 0.23843,-0.44552 0.21531,-0.74319 -0.10807,-1.39143 -1.521449,-3.04981 0.35992,-5.63816 4.09815,-5.63816 3.661,0 4.48628,0.93724 4.48628,5.09482 0,4.62609 -2.38973,6.53285 -6.55682,5.23167 z m 4.09957,-0.84113 c 1.39515,-0.68156 1.68686,-1.47174 1.69796,-4.59945 0.014,-3.94987 -1.48523,-5.16394 -5.16878,-4.18559 -2.78103,0.73864 -3.27639,5.17547 -0.64488,5.77604 l 0.88441,0.20184 -1.12448,0.20045 c -1.10508,0.19699 -1.27644,0.41737 -1.13195,1.45573 0.23244,1.67031 3.16544,2.28546 5.48772,1.15098 z m -2.64154,-2.23362 c -0.5919,-0.34459 -0.34889,-0.76944 0.4401,-0.76944 0.73681,0 0.96266,0.20012 0.7757,0.68732 -0.16694,0.43503 -0.56359,0.46182 -1.2158,0.0821 z m 0.53473,-2.50873 c -0.28726,-0.29096 -0.24422,-1.96488 0.0505,-1.96488 0.38281,0 0.45575,0.31668 0.29516,1.28137 -0.081,0.48648 -0.23655,0.79405 -0.34569,0.68351 z"
         id="path3120" />
      <path
         style="fill:#7a5700;stroke-width:0.264583"
         d="m 103.91898,153.60901 c -0.097,-0.15701 0.21042,-0.26459 0.75619,-0.26459 2.98391,0 4.00631,-1.39546 4.00631,-5.46816 0,-3.75897 -1.36745,-4.89314 -5.06357,-4.19974 -2.63758,0.49481 -3.704295,5.06647 -1.38257,5.92533 0.56225,0.20799 0.55084,0.23106 -0.25283,0.51123 -1.29967,0.45306 -1.06653,2.01124 0.42176,2.81891 0.62909,0.34139 0.65146,0.3926 0.17553,0.40184 -1.16807,0.0227 -1.78591,-0.98084 -1.61436,-2.62215 0.11001,-1.05249 0.0419,-1.71131 -0.23122,-2.23781 -0.4395,-0.84715 -0.49767,-1.80068 -0.15101,-2.47522 0.12987,-0.25269 0.36257,-0.78056 0.51712,-1.17305 0.93766,-2.38118 7.71344,-2.21705 7.71344,0.18685 0,0.3453 0.11906,0.70141 0.26458,0.79135 1.56432,0.9668 -0.53584,7.54062 -2.40902,7.54062 -0.42129,0 -0.76598,0.11907 -0.76598,0.26459 0,0.14552 -0.40969,0.26458 -0.91043,0.26458 -0.50073,0 -0.98401,-0.11906 -1.07394,-0.26458 z m 0.66145,-3.3073 c 0,-0.21828 0.11907,-0.39687 0.26459,-0.39687 0.14552,0 0.26458,0.17859 0.26458,0.39687 0,0.21829 -0.11906,0.39688 -0.26458,0.39688 -0.14552,0 -0.26459,-0.17859 -0.26459,-0.39688 z m 0.17639,-2.68993 c -0.27698,-0.27698 -0.2061,-1.41111 0.0882,-1.41111 0.14552,0 0.26458,0.35719 0.26458,0.79375 0,0.82203 -0.0539,0.91628 -0.35278,0.61736 z"
         id="path3118" />
    </g>
    <g
       id="g3002"
       transform="translate(32.150271,-33.053064)">
      <path
         style="fill:#f9f7ea;stroke-width:0.264583"
         d="m 101.4057,147.84101 0.0877,-3.27254 3.35165,-1.80738 2.81055,1.46094 1.20307,1.31323 -0.35973,6.63642 -3.65389,1.70191 -3.17262,-1.05904 z"
         id="path3016"
         sodipodi:nodetypes="ccccccccc" />
      <path
         style="fill:#fce753;stroke-width:0.264583"
         d="m 102.14563,153.44025 c -1.58781,-0.83766 -2.535838,-4.01519 -1.50539,-5.04563 0.21436,-0.21437 0.21446,-0.53157 3.4e-4,-1.18034 -0.801402,-2.42827 1.1104,-4.45319 4.20444,-4.45319 3.01776,0 4.90296,1.79812 4.27388,4.07645 -0.18524,0.67089 -0.1521,1.21516 0.1225,2.0122 1.20279,3.49111 -3.46081,6.50816 -7.09577,4.59051 z m 2.96397,-2.04977 c 0,-0.41054 -1.28389,-1.34827 -1.52114,-1.11102 -0.0838,0.0838 -0.0165,0.45047 0.14957,0.81489 0.32143,0.70546 1.37157,0.9322 1.37157,0.29613 z m 3.43958,-1.39429 c 0,-0.79785 -0.89142,-1.94343 -1.51225,-1.94343 -0.68995,0 -0.71771,0.0794 -0.30677,0.87729 0.75222,1.46053 1.81902,2.08579 1.81902,1.06614 z m -3.96875,-2.6502 c 0,-0.26684 -0.84321,-1.14532 -1.09934,-1.14532 -0.33094,0 -0.27111,0.64038 0.0939,1.00542 0.3404,0.3404 1.00541,0.43293 1.00541,0.1399 z m 3.70417,-1.6388 c 0,-0.70618 -1.00567,-1.88777 -1.6067,-1.88777 -0.70394,0 -0.66742,0.98893 0.0653,1.76889 0.7009,0.74607 1.54138,0.8109 1.54138,0.11888 z"
         id="path3014" />
      <path
         style="fill:#f3cb10;stroke-width:0.264583"
         d="m 102.28595,153.37526 c -1.60606,-0.75027 -2.02403,-1.52569 -1.8305,-3.39594 0.0871,-0.84133 0.15071,-2.30824 0.14143,-3.25981 -0.0262,-2.68889 1.32314,-3.95842 4.20733,-3.95842 3.07039,0 4.82578,1.80743 4.19175,4.31602 -0.17964,0.71071 -0.16604,1.09763 0.046,1.30968 0.42693,0.42693 0.37327,2.72743 -0.0843,3.61218 -0.83882,1.62209 -4.52001,2.38147 -6.67176,1.37629 z m 2.81751,-1.47864 c 0.5139,-0.61922 -1.17401,-2.53935 -1.85971,-2.11556 -0.4413,0.27273 0.75752,2.50503 1.34529,2.50503 0.10515,0 0.33664,-0.17526 0.51442,-0.38947 z m 2.24324,0.22512 c 1.19703,-0.45935 1.53388,-2.7033 0.55305,-3.68413 -1.16535,-1.16535 -2.24105,-0.70046 -1.34369,0.5807 0.29606,0.42269 0.32744,0.76574 0.13229,1.44619 -0.47688,1.66278 -0.32862,2.03597 0.65835,1.65724 z m -2.46787,-4.79955 c -0.71587,-1.33762 -1.99156,-1.73561 -1.68583,-0.52594 0.18263,0.72261 0.53271,0.98253 1.3306,0.98787 0.49572,0.003 0.5597,-0.0799 0.35523,-0.46193 z m 3.24517,-0.21711 c 0.82445,-2.14848 -0.46594,-3.55546 -3.25232,-3.54619 -2.28026,0.008 -2.42075,0.54876 -0.23657,0.91122 1.03567,0.17186 1.74717,0.86094 2.32209,2.2489 0.36131,0.87229 0.91049,1.054 1.1668,0.38607 z"
         id="path3012" />
      <path
         style="fill:#d4ab03;stroke-width:0.264583"
         d="m 102.28595,153.37526 c -1.60606,-0.75027 -2.02403,-1.52569 -1.8305,-3.39594 0.0871,-0.84133 0.15071,-2.30824 0.14143,-3.25981 -0.0262,-2.68889 1.32314,-3.95842 4.20733,-3.95842 3.07039,0 4.82578,1.80743 4.19175,4.31602 -0.17964,0.71071 -0.16604,1.09763 0.046,1.30968 0.42693,0.42693 0.37327,2.72743 -0.0843,3.61218 -0.83882,1.62209 -4.52001,2.38147 -6.67176,1.37629 z m 4.64429,-0.85327 c 1.4992,-0.52262 2.11344,-2.71089 1.11664,-3.97811 -0.43906,-0.55817 -0.45571,-0.70227 -0.13229,-1.14458 1.43151,-1.9577 -0.14175,-3.84446 -3.20567,-3.84446 -2.52797,0 -3.20392,0.9653 -2.11286,3.0173 0.78932,1.48452 0.78883,1.48062 0.18521,1.48062 -1.25296,0 -1.20284,1.12058 0.12817,2.86562 1.2659,1.65967 2.47577,2.14221 4.0208,1.60361 z m -2.32808,-1.9075 c -0.6297,-0.62971 -0.0105,-2.56173 0.82104,-2.56173 0.49356,0 1.00932,0.92556 1.00932,1.8113 0,0.58156 -1.4179,1.16288 -1.83036,0.75043 z m -0.27523,-4.19461 c -0.45069,-0.74111 -0.38387,-1.80671 0.1133,-1.80671 1.22736,0 2.13699,1.61629 1.27678,2.26868 -0.68372,0.51853 -0.82168,0.47268 -1.39008,-0.46197 z"
         id="path3010" />
      <path
         style="fill:#b69402;stroke-width:0.264583"
         d="m 102.28595,153.37526 c -1.60606,-0.75027 -2.02403,-1.52569 -1.8305,-3.39594 0.0871,-0.84133 0.15071,-2.30824 0.14143,-3.25981 -0.0262,-2.68889 1.32314,-3.95842 4.20733,-3.95842 3.07039,0 4.82578,1.80743 4.19175,4.31602 -0.17964,0.71071 -0.16604,1.09763 0.046,1.30968 0.42693,0.42693 0.37327,2.72743 -0.0843,3.61218 -0.83882,1.62209 -4.52001,2.38147 -6.67176,1.37629 z m 4.94032,-0.92135 c 1.28324,-0.58222 1.73269,-2.08207 1.04786,-3.49675 -0.43346,-0.8954 -0.50789,-1.28563 -0.28728,-1.50624 0.79959,-0.79959 0.28408,-2.95899 -0.84588,-3.54331 -3.31846,-1.71605 -7.637426,1.60206 -4.48387,3.44479 0.3052,0.17834 0.20904,0.33344 -0.45845,0.73936 -0.98259,0.59755 -0.94929,1.25311 0.14893,2.93189 0.35494,0.54258 0.64535,1.0835 0.64535,1.20205 0,0.71733 2.82023,0.86936 4.23334,0.22821 z m -2.70667,-1.90435 c -0.2351,-0.23509 0.1878,-1.52489 0.53828,-1.64172 0.20612,-0.0687 0.3163,0.22484 0.3163,0.84266 0,0.87156 -0.40417,1.24947 -0.85458,0.79906 z m 1.01333,-1.59722 c -0.0942,-0.24539 -0.11167,-0.50569 -0.0389,-0.57845 0.0728,-0.0728 0.20933,0.0685 0.3035,0.31387 0.0942,0.24538 0.11167,0.50568 0.0389,0.57844 -0.0728,0.0728 -0.20933,-0.0685 -0.3035,-0.31386 z m -0.91014,-2.0214 c -0.4599,-0.4599 -0.41412,-1.94235 0.0481,-1.55871 0.19529,0.16208 0.40848,0.24128 0.47375,0.17601 0.0653,-0.0653 0.14491,0.22559 0.17697,0.64636 0.066,0.86617 -0.24322,1.19198 -0.69885,0.73634 z"
         id="path3008" />
      <path
         style="fill:#8d6809;stroke-width:0.264583"
         d="m 102.24755,153.30777 c -1.62374,-0.80373 -1.98228,-1.46518 -1.80419,-3.32845 0.0804,-0.84133 0.18095,-2.38043 0.22341,-3.42023 0.11119,-2.72286 1.28242,-3.798 4.13744,-3.798 2.9701,0 4.41475,1.34518 4.1816,3.89366 -0.086,0.93987 -0.0417,1.71192 0.10333,1.80155 3.33537,2.06137 -3.16538,6.67115 -6.84159,4.85147 z m 4.52419,-0.58829 c 1.81246,-0.76713 2.53772,-2.85891 1.41961,-4.09441 -0.37696,-0.41654 -0.41767,-0.64121 -0.19242,-1.06208 0.9128,-1.70558 0.096,-3.54588 -1.77288,-3.99421 -3.2521,-0.78016 -6.00251,1.39424 -4.6531,3.67861 0.41062,0.69512 0.40264,0.77135 -0.16048,1.533 -1.94356,2.62882 1.85631,5.42174 5.35927,3.93909 z m -2.19131,-2.81464 c 0,-0.55269 0.11257,-0.80033 0.33073,-0.7276 0.42989,0.14329 0.42989,1.31191 0,1.4552 -0.21816,0.0727 -0.33073,-0.17491 -0.33073,-0.7276 z m 0,-3.62857 c 0,-0.6617 0.0337,-0.68449 0.42818,-0.28997 0.2355,0.2355 0.34754,0.55867 0.24897,0.71815 -0.3247,0.52538 -0.67715,0.30252 -0.67715,-0.42818 z"
         id="path3006" />
      <path
         style="fill:#7b5700;stroke-width:0.264583"
         d="m 103.38981,153.60901 c -0.0899,-0.14552 -0.44182,-0.26459 -0.78196,-0.26459 -1.69227,0 -2.817014,-2.91933 -1.84725,-4.79464 0.32103,-0.62081 0.34381,-0.88358 0.10189,-1.17508 -0.84505,-1.01823 0.53491,-4.08444 1.83822,-4.08444 0.28907,0 0.59916,-0.11907 0.6891,-0.26459 0.21341,-0.3453 3.04271,-0.3453 3.04271,0 0,0.14552 0.22206,0.26459 0.49348,0.26459 1.42618,0 2.50129,2.05794 1.9305,3.6953 -0.21314,0.61141 -0.18916,0.96894 0.10247,1.528 0.76467,1.4659 0.26018,3.64447 -1.00784,4.35213 -1.65377,0.92296 -4.19442,1.33698 -4.56132,0.74332 z m 3.00704,-0.67538 c 2.12221,-0.63023 2.98913,-2.47769 2.03158,-4.32939 -0.29719,-0.5747 -0.32377,-0.96816 -0.11617,-1.71999 0.76177,-2.75893 -2.08066,-4.46211 -5.29824,-3.17468 -1.62387,0.64974 -2.51847,2.7983 -1.56299,3.75379 0.2372,0.23719 0.19668,0.52096 -0.17217,1.20589 -1.626498,3.02021 1.24655,5.41407 5.11799,4.26438 z m -1.67149,-2.56577 c -0.11085,-0.25466 -0.11085,-0.67138 0,-0.92604 0.25366,-0.58274 0.49909,0.14505 0.31229,0.92604 -0.10547,0.44097 -0.12034,0.44097 -0.31229,0 z m 0.048,-3.53329 c -0.10611,-0.10611 -0.19293,-0.37549 -0.19293,-0.59862 0,-0.29781 0.0783,-0.32742 0.29435,-0.11134 0.16189,0.16189 0.24871,0.43127 0.19293,0.59862 -0.0558,0.16734 -0.18824,0.21745 -0.29435,0.11134 z"
         id="path3004" />
    </g>
    <g
       id="g2888"
       transform="translate(22.889843,-33.053064)">
      <path
         style="fill:#f9f8f0;stroke-width:0.264583"
         d="m 102.63719,145.41467 -0.40388,-1.21846 3.47002,-0.98201 2.9678,0.78119 -2.1614,7.26117 -1.69654,1.29015 -1.57932,-1.83123 0.82355,-3.23836 z"
         id="path2902"
         sodipodi:nodetypes="ccccccccc" />
      <path
         style="fill:#fde858;stroke-width:0.264583"
         d="m 102.42359,153.42257 c -0.73466,-0.8543 -0.73252,-1.01047 0.0502,-3.66719 0.94629,-3.21183 0.94491,-3.02554 0.0224,-3.02554 -1.26808,0 -1.97436,-1.59454 -1.28913,-2.91042 0.50526,-0.97026 6.31302,-1.33048 7.276,-0.45128 0.6153,0.56177 0.83513,2.20188 0.36369,2.71347 -0.12739,0.13825 -0.67891,1.62057 -1.2256,3.29406 -1.41857,4.34248 -1.46224,4.40186 -3.28549,4.46766 -1.16457,0.042 -1.59565,-0.0528 -1.91205,-0.42076 z m 3.58311,-2.85627 c 0.0887,-0.50932 0.2338,-1.34276 0.32248,-1.85209 0.0935,-0.53679 0.0525,-0.92604 -0.0974,-0.92604 -0.32351,0 -1.20939,3.08436 -0.98853,3.44173 0.31302,0.50647 0.60375,0.25377 0.76348,-0.6636 z m 2.01867,-5.16937 c 0.64596,-1.20699 0.14337,-1.57751 -2.13984,-1.57751 -2.27139,0 -2.80623,0.36301 -0.94587,0.64198 0.87605,0.13138 1.2242,0.32923 1.44953,0.8238 0.36205,0.79459 1.23869,0.85446 1.63618,0.11173 z"
         id="path2900" />
      <path
         style="fill:#f5cf1a;stroke-width:0.264583"
         d="m 102.7945,153.49295 c -1.07802,-0.48588 -1.10678,-1.08252 -0.19844,-4.11728 0.81782,-2.73229 0.82108,-2.64583 -0.0999,-2.64583 -1.39644,0 -2.08355,-2.51731 -0.91945,-3.36852 0.90862,-0.6644 6.97247,-0.35094 6.97247,0.36043 0,0.19924 0.11906,0.36226 0.26458,0.36226 0.33513,0 0.34472,1.18288 0.0145,1.78952 -0.13754,0.25269 -0.73977,1.96864 -1.33828,3.81323 -1.34337,4.14017 -2.27642,4.89651 -4.6955,3.80619 z m 4.08971,-5.3079 c 0.37874,-1.01865 0.84876,-2.08694 1.0445,-2.37398 1.14587,-1.68033 0.0101,-2.38481 -3.41275,-2.11684 -2.67958,0.20977 -2.80355,0.51225 -0.31899,0.77832 1.19374,0.12784 1.78954,0.31404 1.89646,0.59267 0.23684,0.61719 -0.36864,3.46848 -0.83573,3.93557 -0.76938,0.76938 -0.82311,1.73358 -0.12796,2.29648 l 0.62908,0.50939 0.21839,-0.88476 c 0.12011,-0.48662 0.52826,-1.71821 0.907,-2.73685 z"
         id="path2898" />
      <path
         style="fill:#cda703;stroke-width:0.264583"
         d="m 102.7945,153.49295 c -1.07802,-0.48588 -1.10678,-1.08252 -0.19844,-4.11728 0.81782,-2.73229 0.82108,-2.64583 -0.0999,-2.64583 -1.39644,0 -2.08355,-2.51731 -0.91945,-3.36852 0.90862,-0.6644 6.97247,-0.35094 6.97247,0.36043 0,0.19924 0.11906,0.36226 0.26458,0.36226 0.33513,0 0.34472,1.18288 0.0145,1.78952 -0.13754,0.25269 -0.73977,1.96864 -1.33828,3.81323 -1.34337,4.14017 -2.27642,4.89651 -4.6955,3.80619 z m 2.96065,-1.80217 c 0.70037,-1.61723 2.31815,-6.1506 2.45324,-6.87456 0.1988,-1.06528 -0.76536,-1.34566 -3.83767,-1.11598 -2.67619,0.20006 -3.27168,0.72706 -0.96022,0.84978 2.36934,0.1258 2.49286,0.19892 2.49286,1.47578 0,0.93041 -0.1791,1.34719 -0.982,2.2852 -1.07134,1.25162 -1.21747,2.44421 -0.44654,3.64436 0.5228,0.81389 0.84182,0.74796 1.28033,-0.26458 z"
         id="path2896" />
      <path
         style="fill:#b69202;stroke-width:0.264583"
         d="m 102.7945,153.49295 c -1.07802,-0.48588 -1.10678,-1.08252 -0.19844,-4.11728 0.81782,-2.73229 0.82108,-2.64583 -0.0999,-2.64583 -1.39644,0 -2.08355,-2.51731 -0.91945,-3.36852 0.90862,-0.6644 6.97247,-0.35094 6.97247,0.36043 0,0.19924 0.11906,0.36226 0.26458,0.36226 0.33513,0 0.34472,1.18288 0.0145,1.78952 -0.13754,0.25269 -0.73977,1.96864 -1.33828,3.81323 -1.34337,4.14017 -2.27642,4.89651 -4.6955,3.80619 z m 2.69308,-0.82888 c 0.22868,-0.22868 0.41578,-0.56317 0.41578,-0.74332 0,-0.18015 0.53578,-1.80168 1.19062,-3.60341 1.73657,-4.77797 1.63951,-4.94325 -2.71198,-4.61795 l -2.44739,0.18296 v 0.89458 c 0,0.98032 -0.0137,0.97383 2.11666,1.00534 1.3701,0.0203 1.45521,0.0602 1.45521,0.68299 0,0.73724 -0.68851,0.93153 -0.95729,0.27014 -0.10487,-0.25804 -0.27982,0.0248 -0.48761,0.78819 -0.17823,0.65484 -0.56152,1.9442 -0.85176,2.86524 -0.55966,1.77599 -0.55684,1.79342 0.37375,2.3076 0.83758,0.4628 1.41873,0.45292 1.90401,-0.0324 z m -2.23006,-0.51027 c 0,-0.0728 0.0595,-0.13229 0.13229,-0.13229 0.0728,0 0.1323,0.0595 0.1323,0.13229 0,0.0728 -0.0595,0.13229 -0.1323,0.13229 -0.0728,0 -0.13229,-0.0595 -0.13229,-0.13229 z"
         id="path2894" />
      <path
         style="fill:#8b680a;stroke-width:0.264583"
         d="m 102.92626,153.56589 c -1.08787,-0.3973 -1.16888,-1.26746 -0.36731,-3.94521 0.86546,-2.89118 0.86547,-2.89084 -0.0628,-2.89084 -1.05666,0 -1.39992,-0.53416 -1.3045,-2.02996 l 0.0815,-1.27733 1.45521,-0.17042 c 2.2069,-0.25845 5.82083,0.0359 5.82083,0.47403 0,0.19682 0.11906,0.35785 0.26458,0.35785 0.31442,0 0.35531,1.10871 0.0542,1.46843 -0.11573,0.13825 -0.73973,1.90024 -1.38665,3.91554 -1.41268,4.40082 -2.0805,5.00162 -4.55502,4.09791 z m 2.63002,-0.81678 c 0.36914,-0.5723 2.52912,-6.90502 2.65978,-7.79807 0.18814,-1.28586 -0.58797,-1.53677 -3.82872,-1.2378 l -2.58503,0.23847 v 0.92605 c 0,0.91842 0.0104,0.92671 1.26983,1.00721 1.07238,0.0686 1.24691,0.15342 1.12238,0.54578 -0.0811,0.25553 -0.32511,1.0822 -0.54223,1.83705 -0.21712,0.75485 -0.57467,1.99753 -0.79456,2.76152 -0.47502,1.65043 -0.1837,2.05052 1.49308,2.05052 0.54568,0 1.08815,-0.14883 1.20547,-0.33073 z"
         id="path2892" />
      <path
         style="fill:#7b5700;stroke-width:0.264583"
         d="m 103.78669,153.62658 c 0,-0.13585 -0.31541,-0.28468 -0.70092,-0.33073 -1.39088,-0.16613 -1.35758,-0.8079 0.33027,-6.36432 0.1191,-0.39208 0.0145,-0.43473 -0.71059,-0.28971 -1.02821,0.20564 -1.56459,-0.36369 -1.56459,-1.6607 0,-1.70236 -0.0263,-1.69086 3.86476,-1.69086 h 3.54357 l -0.0209,0.7276 c -0.0122,0.42438 -0.0838,0.56221 -0.17196,0.33073 -0.31669,-0.83194 -1.57925,-0.98758 -5.06,-0.62377 l -1.62632,0.16999 v 0.99233 c 0,1.08038 0.28935,1.31353 1.63017,1.31353 0.92235,0 0.91039,0.20856 -0.20908,3.6462 -0.86745,2.66375 -0.83833,2.88393 0.43178,3.26446 1.85131,0.55467 2.08049,0.28695 3.56414,-4.16362 0.72197,-2.16571 1.35546,-3.72713 1.40775,-3.46981 0.19224,0.94603 -2.32586,7.86652 -2.86233,7.86652 -0.27039,0 -0.5652,0.11907 -0.65514,0.26459 -0.20657,0.33425 -1.19062,0.34877 -1.19062,0.0176 z"
         id="path2890" />
    </g>
    <g
       id="g2774"
       transform="translate(13.894013,-33.053064)">
      <path
         style="fill:#f8f5e8;stroke-width:0.264583"
         d="m 101.01024,148.92059 0.37867,-3.54583 2.75809,-1.86977 3.97285,0.13714 0.83212,1.893 -0.40278,5.19653 -3.11539,2.16966 -2.89467,-0.34952 z"
         id="path2788"
         sodipodi:nodetypes="ccccccccc" />
      <path
         style="fill:#fbe658;stroke-width:0.264583"
         d="m 102.52413,153.46602 c -1.87758,-0.85112 -2.72777,-5.93328 -1.43671,-8.58826 1.28296,-2.63834 6.81533,-2.80683 8.09261,-0.24646 0.46863,0.93938 0.5619,1.83396 0.19121,1.83396 -0.45535,0 -0.56633,0.87458 -0.16697,1.31586 2.67947,2.96079 -2.66191,7.50638 -6.68014,5.6849 z m 2.58547,-2.28358 c 0,-0.43928 -0.80815,-1.2776 -1.23163,-1.2776 -0.44162,0 -0.46703,0.84133 -0.0384,1.27 0.4071,0.4071 1.27,0.41226 1.27,0.008 z m 3.43959,-2.02809 c 0,-1.27949 -1.22348,-2.43381 -1.72299,-1.62559 -0.24823,0.40165 0.37427,2.07077 0.87729,2.35227 0.59929,0.33538 0.8457,0.12364 0.8457,-0.72668 z m -4.10105,-2.44294 c 0,-0.39515 -0.17524,-0.66953 -0.46302,-0.72495 -0.47032,-0.0906 -0.68663,0.96073 -0.28112,1.36625 0.3419,0.3419 0.74414,-0.005 0.74414,-0.6413 z m 4.10105,-1.52295 c 0,-0.36008 -1.14774,-1.28562 -1.78568,-1.43997 -0.9946,-0.24065 -0.93234,0.26739 0.12046,0.98279 1.00026,0.67969 1.66522,0.86226 1.66522,0.45718 z"
         id="path2786" />
      <path
         style="fill:#f3cc12;stroke-width:0.264583"
         d="m 102.91615,153.46204 c -3.086137,-0.98476 -3.376669,-8.77942 -0.374,-10.03402 2.38748,-0.99755 6.5362,-0.15479 6.5362,1.32775 0,0.21261 0.11907,0.38657 0.26459,0.38657 0.14552,0 0.26458,0.23812 0.26458,0.52917 0,0.29104 -0.10518,0.52916 -0.23373,0.52916 -0.44116,0 -0.5315,1.13976 -0.14898,1.87949 1.7935,3.46825 -2.04461,6.74252 -6.30866,5.38188 z m 2.44852,-2.03585 c -0.0181,-0.62905 -1.22857,-1.84104 -1.74111,-1.74329 -0.73914,0.14098 -0.77434,1.1496 -0.0576,1.6516 0.71771,0.5027 1.81218,0.55849 1.79875,0.0917 z m 3.18452,-0.69453 c 0,-0.27285 0.0701,-0.84649 0.15573,-1.27476 0.27707,-1.38537 -1.6856,-3.03716 -3.00651,-2.53028 -0.28078,0.10775 -0.20749,0.2937 0.30187,0.76601 0.37012,0.34319 0.75326,1.07019 0.85186,1.6164 0.31588,1.74985 1.69705,2.90768 1.69705,1.42263 z m -4.20613,-3.00604 c 0.35787,-0.69264 0.28504,-1.71462 -0.13363,-1.87528 -0.58837,-0.22578 -0.68849,0.0608 -0.66942,1.91578 0.015,1.46015 0.0622,1.63487 0.29179,1.08039 0.15064,-0.36381 0.3807,-0.86821 0.51126,-1.12089 z m 4.20613,-2.29706 c 0,-1.32075 -3.18823,-2.658 -3.83646,-1.60914 -0.0899,0.14552 0.0519,0.26662 0.31511,0.2691 0.26325,0.002 1.07395,0.35764 1.80155,0.78924 1.41208,0.83761 1.7198,0.93616 1.7198,0.5508 z"
         id="path2784" />
      <path
         style="fill:#d1aa04;stroke-width:0.264583"
         d="m 102.91615,153.46204 c -3.086137,-0.98476 -3.376669,-8.77942 -0.374,-10.03402 2.38748,-0.99755 6.5362,-0.15479 6.5362,1.32775 0,0.21261 0.11907,0.38657 0.26459,0.38657 0.14552,0 0.26458,0.23812 0.26458,0.52917 0,0.29104 -0.10518,0.52916 -0.23373,0.52916 -0.44116,0 -0.5315,1.13976 -0.14898,1.87949 1.7935,3.46825 -2.04461,6.74252 -6.30866,5.38188 z m 5.54767,-2.39665 c 1.09607,-2.56699 -1.04787,-5.05055 -3.42036,-3.96218 -0.37601,0.17249 -0.46302,0.0845 -0.46302,-0.46805 0,-0.41676 -0.21169,-0.79374 -0.54625,-0.9728 -0.4552,-0.24361 -0.49011,-0.35999 -0.20942,-0.6982 0.47363,-0.57068 2.12013,-0.30432 3.41475,0.55242 1.3497,0.89319 1.69227,0.66609 1.14531,-0.75926 -1.05281,-2.74359 -6.76421,-1.03388 -6.17633,1.8489 0.17708,0.86835 0.40006,2.25732 0.4955,3.08658 0.0954,0.82926 0.22926,1.55584 0.29738,1.61462 1.21365,1.04734 4.98321,0.88032 5.46244,-0.24203 z m -3.58827,-0.52037 c -0.64788,-0.82365 -0.66179,-0.92038 -0.25928,-1.8038 0.71768,-1.57513 1.90444,-0.9055 1.93144,1.08982 0.0212,1.56409 -0.74585,1.89159 -1.67216,0.71398 z"
         id="path2782" />
      <path
         style="fill:#b89704;stroke-width:0.264583"
         d="m 102.91615,153.46204 c -3.086137,-0.98476 -3.376669,-8.77942 -0.374,-10.03402 2.38748,-0.99755 6.5362,-0.15479 6.5362,1.32775 0,0.21261 0.11907,0.38657 0.26459,0.38657 0.14552,0 0.26458,0.23812 0.26458,0.52917 0,0.29104 -0.10518,0.52916 -0.23373,0.52916 -0.44116,0 -0.5315,1.13976 -0.14898,1.87949 1.7935,3.46825 -2.04461,6.74252 -6.30866,5.38188 z m 4.97484,-1.3493 c 1.47691,-1.47691 1.10701,-4.38444 -0.65041,-5.11239 -0.76453,-0.31668 -1.18048,-0.29493 -2.16771,0.11337 -0.35214,0.14563 -0.45287,-0.0227 -0.53616,-0.89603 -0.0917,-0.9619 -0.0413,-1.07535 0.47812,-1.07535 0.85744,0 1.41769,0.27258 1.41769,0.68977 0,0.20271 0.22839,0.36856 0.50753,0.36856 0.27914,0 0.69485,0.0719 0.92381,0.15975 0.51904,0.19917 0.80081,-0.45735 0.57774,-1.34615 -0.25209,-1.0044 -1.55692,-1.55052 -3.31513,-1.38749 -2.76957,0.2568 -3.46191,0.92463 -3.60421,3.47659 -0.0628,1.12662 -0.0337,1.33247 0.0968,0.6848 0.27891,-1.38377 0.81752,0.10068 0.98973,2.72775 0.12632,1.92701 3.83181,3.04719 5.28218,1.59682 z m -2.99305,-1.46707 c -0.39007,-0.39006 -0.40797,-1.13575 -0.0436,-1.81656 0.47287,-0.88356 0.78444,-0.56138 0.78444,0.81115 0,1.34397 -0.17066,1.57558 -0.74083,1.00541 z m 1.04719,-1.00541 c 0,-0.36381 0.06,-0.51263 0.13345,-0.33073 0.0734,0.1819 0.0734,0.47955 0,0.66146 -0.0734,0.1819 -0.13345,0.0331 -0.13345,-0.33073 z"
         id="path2780" />
      <path
         style="fill:#8c6609;stroke-width:0.264583"
         d="m 103.27978,153.48222 c -2.32991,-0.56319 -2.81822,-1.6161 -2.61581,-5.6403 0.19743,-3.92536 0.96973,-4.68776 4.7385,-4.67783 3.15565,0.008 4.31397,1.07627 3.65594,3.37072 -0.15835,0.55213 -0.11009,1.01066 0.16169,1.53623 0.76105,1.47172 0.0309,4.30618 -1.27708,4.95742 -1.65192,0.82252 -2.71124,0.92559 -4.66324,0.45376 z m 3.94281,-0.86581 c 1.9013,-0.9536 2.24516,-3.7521 0.6463,-5.26002 l -0.94488,-0.89113 h 0.81259 c 1.07028,0 1.16141,-1.26274 0.16315,-2.26099 -1.28303,-1.28303 -5.11765,-0.7173 -6.05509,0.89333 -2.041975,3.50838 -0.28634,7.98142 3.13265,7.98142 0.7314,0 1.73534,-0.20685 2.24528,-0.46261 z m -2.52973,-2.56424 c -0.17127,-0.68239 0.0164,-1.20566 0.43236,-1.20566 0.13693,0 0.24897,0.41672 0.24897,0.92604 0,1.0611 -0.43988,1.24163 -0.68133,0.27962 z m -0.11242,-3.58691 c 0,-0.61012 0.0974,-0.63727 0.84689,-0.23615 0.43915,0.23503 0.47498,0.33896 0.18104,0.52512 -0.61089,0.38688 -1.02793,0.26964 -1.02793,-0.28897 z"
         id="path2778" />
      <path
         style="fill:#7a5600;stroke-width:0.264583"
         d="m 104.71938,153.61977 c -0.10221,-0.16537 0.12667,-0.27767 0.57305,-0.28116 2.96159,-0.0231 4.70152,-3.26071 3.09373,-5.75661 -0.3434,-0.53308 -0.34113,-0.65038 0.0196,-1.01108 1.05062,-1.05063 -0.0564,-2.79048 -1.97321,-3.10133 -0.45086,-0.0731 -0.34173,-0.11874 0.34276,-0.1433 1.69391,-0.0608 3.31754,2.74534 2.04391,3.53249 -0.16917,0.10455 -0.16917,0.33968 0,0.67708 0.14254,0.28429 0.37823,0.75341 0.52375,1.04247 0.34045,0.67629 0.34045,1.77756 0,1.98797 -0.14552,0.0899 -0.26459,0.38798 -0.26459,0.66232 0,0.77662 -1.09505,1.85726 -2.11666,2.08881 -0.50933,0.11543 -1.18392,0.29264 -1.49909,0.39378 -0.31787,0.10201 -0.64883,0.0613 -0.74322,-0.0914 z m -3.14211,-1.07035 c -2.468184,-2.93328 -0.82738,-8.94829 2.55379,-9.36194 1.4782,-0.18084 1.47139,0.22046 -0.008,0.45841 -2.15461,0.34661 -2.9833,1.66127 -2.98095,4.7291 0.003,3.28435 0.42652,4.13054 2.36432,4.71855 0.61296,0.18599 0.5854,0.20755 -0.29176,0.22814 -0.76723,0.018 -1.10777,-0.14258 -1.63762,-0.77226 z m 3.26775,-2.77687 c 0,-0.39442 0.11393,-0.62228 0.26458,-0.52917 0.14552,0.0899 0.26459,0.32806 0.26459,0.52917 0,0.2011 -0.11907,0.43923 -0.26459,0.52916 -0.15065,0.0931 -0.26458,-0.13474 -0.26458,-0.52916 z m 0,-3.18331 c 0,-0.42793 0.41344,-0.52528 0.64432,-0.15171 0.0805,0.13027 -0.0315,0.30513 -0.24896,0.38857 -0.24016,0.0922 -0.39536,-8.3e-4 -0.39536,-0.23686 z"
         id="path2776" />
    </g>
    <g
       id="g2660"
       transform="translate(4.633603,-33.053064)">
      <path
         style="fill:#f8f6ea;stroke-width:0.264583"
         d="m 101.80228,148.9788 -0.13226,-5.12185 3.15295,-0.54514 2.98777,0.41115 0.74806,4.59798 -1.60602,3.83746 -2.10776,1.71519 -2.78845,-1.86758 z"
         id="path2674"
         sodipodi:nodetypes="ccccccccc" />
      <path
         style="fill:#fcea56;stroke-width:0.264583"
         d="m 102.27971,153.35607 c -1.23277,-0.75167 -2.532331,-3.45123 -1.66141,-3.45123 0.15256,0 0.25797,-1.23903 0.25797,-3.0324 0,-4.0343 0.073,-4.11135 3.89837,-4.11135 3.62431,0 4.62194,0.81389 3.7639,3.07069 -0.20877,0.54912 -0.17683,0.96979 0.1323,1.74237 1.66487,4.16094 -2.64903,8.06362 -6.39113,5.78192 z m 2.30072,-2.64248 c 0,-0.36003 -1.09412,-1.07333 -1.64637,-1.07333 -0.60459,0 -0.6094,0.68643 -0.007,1.03714 0.58678,0.34177 1.65364,0.36512 1.65364,0.0362 z m 3.38603,-1.90195 c 0.088,-0.7329 -0.83262,-2.0818 -1.42086,-2.0818 -0.47757,0 -0.47881,0.48755 -0.004,1.62133 0.62379,1.48993 1.27603,1.70069 1.42499,0.46047 z m -3.38603,-1.69323 c 0,-0.22285 -0.18659,-0.47678 -0.41466,-0.5643 -0.49761,-0.19095 -1.04025,0.27727 -0.79021,0.68184 0.26953,0.43612 1.20487,0.34487 1.20487,-0.11754 z m 2.5508,-2.76982 c 0.36958,0 0.58412,-0.11539 0.49191,-0.26458 -0.28464,-0.46057 -1.98437,-0.32301 -1.98437,0.1606 0,0.279 0.14388,0.36997 0.41851,0.26458 0.23018,-0.0883 0.71346,-0.1606 1.07395,-0.1606 z"
         id="path2672" />
      <path
         style="fill:#f4ca11;stroke-width:0.264583"
         d="m 102.86659,153.51572 c -1.40682,-0.42404 -2.35345,-1.78077 -2.15019,-3.08171 0.0796,-0.50933 0.14691,-2.1762 0.14963,-3.70417 0.007,-3.70653 0.0371,-3.7381 3.7144,-3.84716 3.33046,-0.0988 5.77192,2.17235 3.70711,3.44847 -0.16042,0.0991 -0.0975,0.41216 0.16257,0.80913 2.33301,3.56062 -1.27065,7.6754 -5.58352,6.37544 z m 1.71384,-2.59786 c 0,-0.53102 -0.84856,-1.2776 -1.45211,-1.2776 -0.72089,0 -0.93535,0.20511 -0.74181,0.70946 0.26841,0.69946 2.19392,1.19809 2.19392,0.56814 z m 2.82722,-0.26539 c 1.25942,-1.18316 0.62131,-3.67871 -1.04128,-4.07232 -0.87308,-0.2067 -0.87955,-0.15483 -0.1739,1.39418 0.4444,0.97552 0.49663,1.34073 0.26459,1.85002 -0.64077,1.40633 -0.13442,1.84744 0.95059,0.82812 z m -2.91912,-3.27103 c 0.15406,-0.40146 -0.57355,-1.44535 -1.00744,-1.44535 -0.12296,0 -0.22357,0.41672 -0.22357,0.92604 0,0.99581 0.90213,1.37638 1.23101,0.51931 z m 2.5393,-2.76639 c 0.89578,-0.002 1.02134,-0.78256 0.13229,-0.82211 -1.87289,-0.0833 -5.12812,0.10207 -5.33652,0.3039 -0.45226,0.438 1.01049,0.78323 2.75683,0.65066 0.94589,-0.0718 2.04722,-0.13141 2.4474,-0.13245 z"
         id="path2670" />
      <path
         style="fill:#d8ae00;stroke-width:0.264583"
         d="m 102.86659,153.51572 c -1.40682,-0.42404 -2.35345,-1.78077 -2.15019,-3.08171 0.0796,-0.50933 0.14691,-2.1762 0.14963,-3.70417 0.007,-3.70653 0.0371,-3.7381 3.7144,-3.84716 3.33046,-0.0988 5.77192,2.17235 3.70711,3.44847 -0.16042,0.0991 -0.0975,0.41216 0.16257,0.80913 2.33301,3.56062 -1.27065,7.6754 -5.58352,6.37544 z m 3.89639,-1.92858 c 2.39391,-0.39569 1.66077,-5.12188 -0.79451,-5.12188 -0.85457,0 -1.01021,0.65018 -0.35503,1.48311 0.71993,0.91523 0.69985,1.4934 -0.0835,2.4041 l -0.63799,0.74171 -0.57183,-0.72696 c -0.55645,-0.70741 -2.12093,-1.06444 -2.12093,-0.48402 0,1.43923 1.8919,2.14558 4.5638,1.70394 z m -2.56975,-3.80264 c 0.47121,-0.17916 0.6527,-0.39887 0.54639,-0.66146 -0.0876,-0.21626 -0.22859,-0.56432 -0.31341,-0.77347 -0.14749,-0.36364 1.10907,-1.09462 2.73391,-1.59041 1.94751,-0.59424 0.38175,-1.10601 -3.02171,-0.98765 l -2.4264,0.0844 0.13719,1.50311 c 0.10496,1.15004 0.28994,1.64296 0.7875,2.09843 0.75587,0.69193 0.65344,0.67041 1.55653,0.32706 z"
         id="path2668" />
      <path
         style="fill:#b28e02;stroke-width:0.264583"
         d="m 102.86659,153.51572 c -1.40682,-0.42404 -2.35345,-1.78077 -2.15019,-3.08171 0.0796,-0.50933 0.14691,-2.1762 0.14963,-3.70417 0.007,-3.70653 0.0371,-3.7381 3.7144,-3.84716 3.33046,-0.0988 5.77192,2.17235 3.70711,3.44847 -0.16042,0.0991 -0.0975,0.41216 0.16257,0.80913 2.33301,3.56062 -1.27065,7.6754 -5.58352,6.37544 z m 4.08619,-1.35732 c 2.38292,-1.23225 1.25882,-5.96596 -1.33413,-5.61817 -0.7813,0.1048 -1.03822,0.0473 -1.03822,-0.23244 0,-0.26312 0.34147,-0.3717 1.16899,-0.3717 1.69,0 2.00601,-0.18717 2.00601,-1.18809 0,-1.0473 -0.18113,-1.0959 -3.63802,-0.97595 l -2.44739,0.0849 v 1.26721 c 0,3.64773 0.74048,4.71264 2.41569,3.47411 1.15813,-0.85625 1.37252,-0.71953 1.22812,0.78319 -0.16114,1.67703 -0.32659,1.83385 -1.01348,0.96062 -0.63538,-0.80776 -1.82186,-0.94337 -2.48159,-0.28363 -1.40814,1.40814 2.99169,3.20777 5.13402,2.09992 z"
         id="path2666" />
      <path
         style="fill:#8c6809;stroke-width:0.264583"
         d="m 103.12523,153.52273 c -1.97468,-0.7727 -2.76106,-1.85981 -2.37415,-3.28203 0.10964,-0.403 0.21243,-2.03813 0.22841,-3.63362 0.0282,-2.81167 0.0494,-2.9116 0.69053,-3.24927 0.9647,-0.50809 6.2754,-0.35004 6.62062,0.19703 0.31731,0.50284 0.32534,2.13063 0.013,2.62416 -0.15332,0.24223 -0.098,0.58807 0.15605,0.97582 2.20618,3.36706 -1.54862,7.84932 -5.33441,6.36791 z m 3.74303,-0.95257 c 1.6381,-0.99885 1.89452,-4.11005 0.46197,-5.6053 -0.74757,-0.7803 -0.74815,-0.78365 -0.16252,-0.93679 0.32325,-0.0845 0.58935,-0.22911 0.59134,-0.32128 0.002,-0.0922 0.0708,-0.41772 0.15283,-0.72344 0.28015,-1.04359 -0.50058,-1.42888 -2.88732,-1.4249 -3.52486,0.006 -3.386,-0.11513 -3.29758,2.87392 l 0.0753,2.54643 1.08121,0.0792 c 0.73097,0.0536 1.19143,-0.0536 1.42146,-0.33073 0.57236,-0.68965 0.80462,-0.46431 0.80462,0.78065 0,1.37584 -0.0619,1.40819 -1.07067,0.55939 -1.5406,-1.29633 -3.29328,-0.0376 -2.36439,1.69802 0.68124,1.27291 3.66721,1.7356 5.19372,0.80479 z m -1.93505,-6.28129 c 0.097,-0.097 0.25577,-0.097 0.35278,0 0.097,0.097 0.0176,0.17639 -0.17639,0.17639 -0.19403,0 -0.2734,-0.0794 -0.17639,-0.17639 z"
         id="path2664" />
      <path
         style="fill:#7b5800;stroke-width:0.264583"
         d="m 103.91898,153.60901 c -0.0899,-0.14552 -0.5031,-0.26459 -0.91814,-0.26459 -1.78905,0 -3.036672,-6.2978 -1.86049,-9.3914 0.34939,-0.91896 6.65255,-1.05235 7.13494,-0.15099 0.3639,0.67995 0.3485,1.95362 -0.0282,2.33028 -0.22636,0.22636 -0.1932,0.53146 0.13229,1.21739 1.10486,2.32832 -0.0236,5.99472 -1.84512,5.99472 -0.32984,0 -0.6733,0.11907 -0.76324,0.26459 -0.0899,0.14552 -0.50666,0.26458 -0.92604,0.26458 -0.41939,0 -0.83611,-0.11906 -0.92604,-0.26458 z m 2.34532,-0.6294 c 2.0027,-0.83678 2.82133,-4.10173 1.46179,-5.8301 -0.51596,-0.65594 -0.52604,-0.74591 -0.13229,-1.181 0.50212,-0.55483 0.55872,-1.64617 0.10872,-2.09617 -0.43401,-0.43401 -5.54558,-0.43401 -5.97959,0 -0.72884,0.72885 -0.18821,5.40399 0.61394,5.30904 0.40925,-0.0484 0.37915,0.008 -0.13769,0.25726 -2.924062,1.41135 0.99396,4.82418 4.06512,3.54097 z m -2.12028,-2.97463 c -0.5368,-0.56204 -0.54306,-0.61866 -0.11146,-1.00925 0.64888,-0.58723 0.74088,-0.53102 0.86455,0.5283 0.13469,1.15374 -0.0176,1.25101 -0.75309,0.48095 z"
         id="path2662" />
    </g>
    <g
       id="g2546"
       transform="translate(-4.626817,-33.053064)">
      <path
         style="fill:#fbf9f3;stroke-width:0.264583"
         d="m 102.35237,147.12401 1.19093,-3.19263 1.30172,-1.17029 2.77539,1.07804 1.19336,5.56483 -1.8239,2.35294 -3.3141,-0.96251 -2.24283,-0.4707 z"
         id="path2560"
         sodipodi:nodetypes="ccccccccc" />
      <path
         style="fill:#fde757;stroke-width:0.264583"
         d="m 104.51429,153.31397 c -0.40018,-0.29857 -0.7276,-0.71151 -0.7276,-0.91766 0,-0.26782 -0.33984,-0.3748 -1.19063,-0.3748 -2.835485,0 -2.864611,-1.8608 -0.12117,-7.74141 1.46811,-3.14692 5.85515,-1.79938 6.02951,1.85206 0.0767,1.60669 0.21514,2.18001 0.63688,2.63776 0.65962,0.71594 0.4991,2.35226 -0.2924,2.98064 -0.27936,0.22178 -0.58816,0.67113 -0.68622,0.99855 -0.0981,0.32742 -0.34887,0.59531 -0.55735,0.59531 -0.20847,0 -0.37904,0.11907 -0.37904,0.26459 0,0.48025 -1.95839,0.2672 -2.71198,-0.29504 z m -0.24822,-3.7429 c 0.0514,-0.26695 -0.0732,-0.45998 -0.29683,-0.45998 -0.21198,0 -0.45281,-0.2577 -0.53518,-0.57268 -0.15573,-0.59552 -0.97029,-0.27164 -0.97029,0.38581 0,0.98543 1.62479,1.56857 1.8023,0.64685 z m 4.5477,-0.16709 c 0,-0.31072 -0.77372,-0.60108 -1.08653,-0.40776 -0.13476,0.0833 -0.17652,0.26227 -0.0928,0.39774 0.19455,0.31479 1.17933,0.32316 1.17933,0.01 z m -1.32292,-2.69153 c 0,-2.07661 -0.29688,-2.89303 -1.05202,-2.89303 -0.80621,0 -0.85315,0.42548 -0.14037,1.27257 0.51839,0.61607 0.66323,1.08319 0.66323,2.13907 0,0.74297 0.11906,1.35086 0.26458,1.35086 0.15142,0 0.26458,-0.79954 0.26458,-1.86947 z"
         id="path2558" />
      <path
         style="fill:#f0c708;stroke-width:0.264583"
         d="m 104.51429,153.31397 c -0.40018,-0.29857 -0.7276,-0.71151 -0.7276,-0.91766 0,-0.26782 -0.33984,-0.3748 -1.19063,-0.3748 -2.51383,0 -2.769439,-1.21111 -1.11185,-5.26819 2.21653,-5.42516 6.80039,-5.80619 6.80039,-0.56528 0,1.17111 0.10537,2.1293 0.23416,2.1293 0.99896,0 1.17616,2.94121 0.20978,3.48202 -0.21168,0.11846 -0.45996,0.51456 -0.55174,0.88023 -0.0918,0.36566 -0.34319,0.66483 -0.5587,0.66483 -0.2155,0 -0.39183,0.11907 -0.39183,0.26459 0,0.48025 -1.95839,0.2672 -2.71198,-0.29504 z m 2.83622,-2.82015 c 0.14109,-0.31207 0.49828,-0.60202 0.79375,-0.64434 0.69357,-0.0993 0.69992,-0.84697 0.008,-0.9478 -0.47435,-0.0691 -0.53366,-0.29644 -0.57256,-2.19443 -0.0496,-2.42174 -0.30649,-2.88783 -1.59151,-2.88783 -0.88612,0 -0.89844,0.0146 -0.49676,0.58804 0.23157,0.33062 0.41187,1.13482 0.41187,1.83708 0,0.98997 0.12171,1.33429 0.58675,1.66002 0.57226,0.40082 0.57533,0.4303 0.12429,1.19384 -0.29875,0.50575 -0.40161,1.02527 -0.29058,1.46764 0.19724,0.78589 0.65324,0.75382 1.0267,-0.0722 z m -2.82567,-0.8855 c 0.049,-0.25848 -0.14795,-0.48874 -0.4957,-0.57968 -0.42676,-0.1116 -0.53985,-0.29268 -0.43446,-0.69567 0.16108,-0.61599 0.0903,-0.65059 -0.58801,-0.28756 -0.72713,0.38915 -0.87949,1.07674 -0.36465,1.64563 0.54209,0.599 1.76387,0.54532 1.88282,-0.0827 z"
         id="path2556" />
      <path
         style="fill:#d9af01;stroke-width:0.264583"
         d="m 104.51429,153.31397 c -0.40018,-0.29857 -0.7276,-0.71151 -0.7276,-0.91766 0,-0.26782 -0.33984,-0.3748 -1.19063,-0.3748 -2.51383,0 -2.769439,-1.21111 -1.11185,-5.26819 2.21653,-5.42516 6.80039,-5.80619 6.80039,-0.56528 0,1.17111 0.10537,2.1293 0.23416,2.1293 0.99896,0 1.17616,2.94121 0.20978,3.48202 -0.21168,0.11846 -0.45996,0.51456 -0.55174,0.88023 -0.0918,0.36566 -0.34319,0.66483 -0.5587,0.66483 -0.2155,0 -0.39183,0.11907 -0.39183,0.26459 0,0.48025 -1.95839,0.2672 -2.71198,-0.29504 z m 2.47558,-1.55705 c 0.13723,0 0.36539,-0.30482 0.50704,-0.67738 0.14164,-0.37255 0.37704,-0.60352 0.52311,-0.51324 0.30451,0.1882 0.87414,-1.11108 0.64774,-1.47741 -0.0824,-0.13331 -0.35114,-0.24294 -0.59721,-0.24362 -0.37971,-0.001 -0.4541,-0.32658 -0.49164,-2.15145 -0.0287,-1.39326 -0.16837,-2.27012 -0.39687,-2.49082 -0.54907,-0.53033 -2.86619,-0.60905 -2.86619,-0.0974 0,0.15741 -0.40312,0.78249 -0.89582,1.38907 -1.94256,2.3915 -2.40063,4.67473 -0.93786,4.67473 0.48929,0 2.80963,1.13641 3.28144,1.60712 0.14143,0.14109 0.41906,0.1944 0.61696,0.11846 0.1979,-0.0759 0.47208,-0.13808 0.6093,-0.13808 z m -3.35351,-2.9943 c -0.20727,-0.54014 0.7343,-2.42966 1.21074,-2.42966 0.8432,0 0.52093,2.63133 -0.33431,2.7297 -0.45446,0.0523 -0.78461,-0.0607 -0.87643,-0.30004 z"
         id="path2554" />
      <path
         style="fill:#b29008;stroke-width:0.264583"
         d="m 104.51429,153.31397 c -0.40018,-0.29857 -0.7276,-0.71151 -0.7276,-0.91766 0,-0.26782 -0.33984,-0.3748 -1.19063,-0.3748 -2.51383,0 -2.769439,-1.21111 -1.11185,-5.26819 2.21653,-5.42516 6.80039,-5.80619 6.80039,-0.56528 0,1.17111 0.10537,2.1293 0.23416,2.1293 0.99896,0 1.17616,2.94121 0.20978,3.48202 -0.21168,0.11846 -0.45996,0.51456 -0.55174,0.88023 -0.0918,0.36566 -0.34319,0.66483 -0.5587,0.66483 -0.2155,0 -0.39183,0.11907 -0.39183,0.26459 0,0.48025 -1.95839,0.2672 -2.71198,-0.29504 z m 2.3647,-0.70659 c 0.17279,-0.10987 0.43774,-0.52477 0.58876,-0.92199 0.15102,-0.39722 0.44262,-0.72222 0.64798,-0.72222 0.21804,0 0.42782,-0.35776 0.50421,-0.85989 0.15762,-1.03604 0.0524,-1.25677 -0.5989,-1.25677 -0.41116,0 -0.47427,-0.14841 -0.36567,-0.8599 0.26981,-1.76772 -0.23022,-3.73127 -1.05028,-4.12431 -1.05432,-0.50533 -2.4976,-0.19116 -2.86927,0.62456 -0.1601,0.35139 -0.3778,0.5853 -0.48378,0.5198 -0.19046,-0.11771 -1.7626,3.41479 -2.03342,4.56897 -0.20396,0.86928 0.36561,1.38754 1.52491,1.38754 1.40198,0 2.408,0.42323 2.31198,0.97264 -0.0501,0.28666 0.15946,0.51555 0.58326,0.63705 0.90576,0.25969 0.88692,0.25917 1.24022,0.0345 z m -3.2174,-3.74923 c -0.19813,-0.32058 0.49106,-1.99622 0.93353,-2.26968 0.24203,-0.14958 0.29241,-0.0498 0.18406,0.36458 -0.0821,0.3138 -0.0413,0.57054 0.0906,0.57054 0.34877,0 0.2938,0.89851 -0.0777,1.27 -0.38172,0.38172 -0.91565,0.41222 -1.13051,0.0646 z"
         id="path2552" />
      <path
         style="fill:#8b6809;stroke-width:0.264583"
         d="m 104.62163,153.32695 c -0.34115,-0.13669 -0.68246,-0.48633 -0.75847,-0.77698 -0.11041,-0.42221 -0.3612,-0.52846 -1.24739,-0.52846 -2.42172,0 -2.709194,-1.45601 -1.07265,-5.43285 2.12846,-5.1722 6.74148,-5.43964 6.74148,-0.39083 0,1.71844 0.0829,2.13961 0.46302,2.35234 0.5794,0.32424 0.67588,2.95941 0.1152,3.14631 -0.19131,0.0638 -0.45706,0.40324 -0.59057,0.75439 -0.39155,1.02986 -2.18976,1.46139 -3.65062,0.87608 z m 2.87837,-1.1972 c 0.12887,-0.33895 0.47718,-0.85916 0.77404,-1.15601 0.6925,-0.6925 0.71695,-1.86585 0.0426,-2.0422 -0.42509,-0.11117 -0.51438,-0.45807 -0.61594,-2.39289 -0.13341,-2.54176 -0.42803,-2.98381 -1.98867,-2.98381 -1.66512,0 -2.57483,0.5955 -3.08064,2.01659 -0.25267,0.70988 -0.75093,1.91842 -1.10724,2.68563 -1.09684,2.36171 -0.90773,2.74667 1.45799,2.96791 1.26621,0.11842 1.46321,0.21548 1.59715,0.78689 0.27137,1.15775 2.49132,1.24736 2.92075,0.11789 z m -3.71331,-3.76184 c 0,-0.26323 0.1676,-0.7078 0.37244,-0.98794 0.34372,-0.47006 0.37028,-0.43315 0.34444,0.4786 -0.0281,0.99273 -0.71688,1.48209 -0.71688,0.50934 z"
         id="path2550" />
      <path
         style="fill:#7c5800;stroke-width:0.264583"
         d="m 103.98717,152.59486 c -0.36661,-0.62062 -0.58132,-0.72923 -1.24817,-0.63135 -2.34343,0.34394 -2.70888,-1.75864 -0.99394,-5.71856 1.13851,-2.62888 1.38219,-2.95469 2.20991,-2.95469 0.34795,0 0.86618,-0.14585 1.15162,-0.32411 0.37909,-0.23674 0.59783,-0.24524 0.81155,-0.0315 0.21372,0.21372 -0.0639,0.37809 -1.02985,0.60983 -1.6159,0.38765 -1.93127,0.72963 -2.69342,2.9208 -0.32901,0.94588 -0.76029,1.95464 -0.9584,2.24168 -1.05156,1.5236 -0.13037,2.7854 2.0335,2.7854 0.73004,0 1.04588,0.11414 1.04588,0.37798 0,0.62669 0.78246,1.20952 1.6238,1.20952 0.95909,0 1.81579,-0.42195 1.81579,-0.89434 0,-0.19061 0.23812,-0.56206 0.52916,-0.82545 0.29104,-0.26339 0.52917,-0.78191 0.52917,-1.15226 0,-0.47246 0.0833,-0.59005 0.27923,-0.39414 0.31018,0.31018 0.062,1.67869 -0.30436,1.67869 -0.1278,0 -0.40647,0.41672 -0.61928,0.92604 -0.54893,1.31378 -3.43835,1.43571 -4.18219,0.17648 z m 4.8266,-3.46594 c 0,-0.13571 -0.23813,-0.32233 -0.52917,-0.41471 -0.4591,-0.14571 -0.52964,-0.40206 -0.53278,-1.93605 -0.005,-2.24242 -0.16755,-2.83096 -0.87924,-3.17523 l -0.57235,-0.27686 0.58031,-0.0179 c 0.98395,-0.0304 1.40406,0.9319 1.40406,3.21597 0,1.65276 0.0781,2.05779 0.39688,2.05779 0.21828,0 0.39687,0.1786 0.39687,0.39688 0,0.21828 -0.0595,0.39687 -0.13229,0.39687 -0.0728,0 -0.13229,-0.11104 -0.13229,-0.24675 z m -5.00444,-0.547 c -0.008,-0.21828 0.10088,-0.57547 0.24194,-0.79375 0.31256,-0.48365 0.31256,-0.0659 0,0.66146 -0.14993,0.34892 -0.23235,0.39398 -0.24194,0.13229 z"
         id="path2548" />
    </g>
    <g
       id="g2432"
       transform="translate(-14.151817,-33.053064)">
      <path
         style="fill:#fcfbf8;stroke-width:0.264583"
         d="m 102.89539,147.92813 -1.12048,-2.8997 3.07011,-2.26734 3.12133,1.65425 0.62813,4.23106 -0.95931,3.51942 -2.78702,1.24465 -3.18924,-3.59272 z"
         id="path2446"
         sodipodi:nodetypes="ccccccccc" />
      <path
         style="fill:#ebe3a7;stroke-width:0.264583"
         d="m 101.7553,153.20499 c -1.67206,-1.31798 -1.72484,-3.67338 -0.0897,-4.00042 1.17073,-0.23415 1.17371,-1.68778 0.004,-2.12916 -1.23237,-0.46517 -1.15621,-2.1902 0.15113,-3.42318 2.81174,-2.65181 8.18143,-0.16418 7.27551,3.37054 -0.17964,0.7009 -0.24154,1.41201 -0.13756,1.58025 2.14441,3.46974 -3.81249,7.27516 -7.2038,4.60197 z m 2.41707,-2.4883 c 0.14692,-0.23771 -0.81794,-1.07643 -1.2383,-1.07643 -0.39355,0 -0.20272,0.7692 0.2573,1.03714 0.58435,0.34035 0.78985,0.34858 0.981,0.0393 z m 4.11223,-1.15414 c 0,-0.41289 -0.82325,-1.24521 -1.23163,-1.24521 -0.49612,0 -0.44795,1.19304 0.069,1.71003 0.44112,0.44112 1.16259,0.15267 1.16259,-0.46482 z m -4.23333,-1.77438 c 0,-0.14552 -0.17859,-0.26458 -0.39688,-0.26458 -0.21828,0 -0.39687,0.11906 -0.39687,0.26458 0,0.14552 0.17859,0.26459 0.39687,0.26459 0.21829,0 0.39688,-0.11907 0.39688,-0.26459 z m 3.96875,-2.10636 c 0,-0.87024 -0.87228,-1.86239 -1.63739,-1.86239 -0.73985,0 -0.5739,0.80323 0.36638,1.77334 1.04207,1.07515 1.27101,1.09119 1.27101,0.0891 z"
         id="path2444" />
      <path
         style="fill:#fbe54f;stroke-width:0.264583"
         d="m 102.31132,153.37214 c -1.90193,-0.86382 -2.327135,-3.24657 -0.71317,-3.99647 1.18484,-0.55051 1.2203,-1.78065 0.0702,-2.43509 -2.797562,-1.59189 1.1619,-4.87751 4.75752,-3.94786 2.16996,0.56105 3.60394,3.47358 2.33498,4.74254 -0.24694,0.24694 -0.24694,0.38805 0,0.635 2.71547,2.71546 -2.52879,6.7826 -6.44953,5.00188 z m 2.00453,-2.79653 c 0,-0.42491 -0.78465,-0.93535 -1.43781,-0.93535 -0.5594,0 -0.5264,0.70214 0.0487,1.03714 0.67864,0.39527 1.38906,0.34321 1.38906,-0.10179 z m 3.91858,-0.98719 c 0.0602,-0.51937 -0.0958,-0.82536 -0.58367,-1.14503 -1.13625,-0.74449 -1.65878,0.18558 -0.79617,1.41713 0.54779,0.78208 1.2743,0.63881 1.37984,-0.2721 z m -3.91858,-1.96085 c 0,-0.20271 -0.21828,-0.36856 -0.48507,-0.36856 -0.66397,0 -0.88922,0.28075 -0.55162,0.68753 0.33993,0.40959 1.03669,0.19522 1.03669,-0.31897 z m 3.70417,-1.86908 c 0,-1.19109 -0.62818,-1.93907 -1.62851,-1.93907 -1.05705,0 -0.9768,0.67428 0.227,1.90708 1.21773,1.24706 1.40151,1.25126 1.40151,0.032 z"
         id="path2442" />
      <path
         style="fill:#f3cc12;stroke-width:0.264583"
         d="m 102.31132,153.37214 c -1.90193,-0.86382 -2.327135,-3.24657 -0.71317,-3.99647 1.18484,-0.55051 1.2203,-1.78065 0.0702,-2.43509 -2.824242,-1.60707 1.05536,-4.80464 4.75316,-3.91755 2.1736,0.52144 3.63642,3.41515 2.36775,4.68382 -0.20907,0.20907 -0.20907,0.43862 0,0.82927 1.83862,3.43551 -2.47358,6.65472 -6.47794,4.83602 z m 5.43381,-1.40052 c 1.17496,-1.26117 0.52049,-4.06775 -0.90114,-3.86436 -0.55968,0.0801 -0.92927,1.18939 -0.50077,1.50307 0.79547,0.58233 0.88172,1.01858 0.33804,1.70976 -0.91957,1.16904 0.0363,1.75445 1.06387,0.65153 z m -3.69601,-1.85714 c -0.61465,-0.49771 -1.97924,-0.64257 -2.23007,-0.23673 -0.26349,0.42635 2.01136,1.37851 2.44119,1.02178 0.31638,-0.26257 0.28361,-0.38444 -0.21112,-0.78505 z m 0.21382,-2.11464 c 0.49036,-0.49037 0.37936,-0.74083 -0.32835,-0.74083 -0.69688,0 -1.07235,0.36822 -0.80936,0.79375 0.22135,0.35815 0.75129,0.3335 1.13771,-0.0529 z m 3.96963,-1.83635 c 0.13279,-1.58638 -0.77973,-2.39974 -2.73998,-2.44224 -1.73411,-0.0376 -2.24669,0.54155 -0.81758,0.92375 0.87676,0.23449 1.75751,0.95887 1.75751,1.44549 0,1.36225 1.68641,1.43064 1.80005,0.073 z"
         id="path2440" />
      <path
         style="fill:#d5ab02;stroke-width:0.264583"
         d="m 102.31132,153.37214 c -1.90193,-0.86382 -2.327135,-3.24657 -0.71317,-3.99647 1.18484,-0.55051 1.2203,-1.78065 0.0702,-2.43509 -2.824242,-1.60707 1.05536,-4.80464 4.75316,-3.91755 2.1736,0.52144 3.63642,3.41515 2.36775,4.68382 -0.20907,0.20907 -0.20907,0.43862 0,0.82927 1.83862,3.43551 -2.47358,6.65472 -6.47794,4.83602 z m 5.32385,-1.20632 c 0.59639,-0.59638 0.82629,-1.57289 0.6569,-2.79015 -0.0989,-0.71067 -0.86623,-1.32291 -1.65802,-1.32291 -0.50584,0 -0.73419,-0.11481 -0.65781,-0.33073 0.0695,-0.19655 0.47286,-0.30095 0.99414,-0.25733 1.42868,0.11954 1.85827,-1.66265 0.71891,-2.98243 -1.49495,-1.73168 -7.02019,-0.37976 -5.89417,1.44218 0.31894,0.51606 0.86794,0.27886 1.19782,-0.51753 0.37269,-0.89976 0.32433,-0.88443 1.63843,-0.51945 1.83771,0.5104 1.37171,2.37154 -0.5938,2.37154 -0.41185,0 -0.82563,0.12427 -0.9195,0.27617 -0.27607,0.44668 0.3569,0.98237 1.01264,0.85702 0.95005,-0.18161 1.89409,0.72815 1.67235,1.61162 -0.25169,1.00283 -0.78422,1.10912 -1.57832,0.31502 -0.76213,-0.76213 -1.90005,-0.88987 -2.70217,-0.30334 -0.74669,0.54599 -0.67425,0.58903 3.52089,2.092 0.47294,0.16944 0.85989,0.398 0.85989,0.50791 0,0.44879 1.12568,0.15656 1.73182,-0.44959 z"
         id="path2438" />
      <path
         style="fill:#8b6508;stroke-width:0.264583"
         d="m 102.31132,153.37214 c -1.96302,-0.89157 -2.320627,-3.23112 -0.62096,-4.06252 1.19623,-0.58514 1.17705,-1.677 -0.0418,-2.37649 -1.687519,-0.96851 -0.53714,-3.32915 1.90822,-3.91579 3.18021,-0.76291 5.6995,0.77064 5.4152,3.29637 -0.18166,1.61387 -0.18158,1.70667 0.003,3.74406 0.28472,3.14216 -3.21279,4.88172 -6.66373,3.31437 z m 5.49672,-1.32324 c 0.88518,-0.99069 0.98142,-2.2964 0.23885,-3.24043 -0.43906,-0.55818 -0.45572,-0.70228 -0.13229,-1.14459 0.63376,-0.86673 0.47135,-2.59867 -0.31277,-3.33532 -1.60617,-1.50891 -5.93181,-0.58622 -5.93181,1.2653 0,1.02101 1.08489,1.25293 2.56184,0.54766 0.3176,-0.15166 0.7775,-0.19898 1.02198,-0.10516 0.66222,0.25411 0.0212,0.90305 -1.09979,1.11335 -1.51149,0.28356 -1.40685,1.74025 0.14735,2.05109 0.87621,0.17525 1.31979,0.82746 0.8692,1.27804 -0.18873,0.18874 -0.51597,0.0948 -1.05292,-0.30216 -1.58059,-1.16858 -3.39436,-0.33112 -2.73427,1.26248 0.77854,1.87956 4.93738,2.27426 6.42463,0.60974 z"
         id="path2436" />
      <path
         style="fill:#7a5700;stroke-width:0.264583"
         d="m 103.5221,153.60901 c 0,-0.14552 -0.30681,-0.26459 -0.68181,-0.26459 -2.35241,0 -2.986661,-3.56919 -0.73468,-4.1344 0.54062,-0.13568 0.63405,-0.28243 0.50562,-0.79414 -0.24936,-0.99353 0.26173,-0.72933 0.57713,0.29833 0.27832,0.90685 0.26872,0.92605 -0.46313,0.92605 -2.20929,0 -2.21815,2.38764 -0.0121,3.27032 3.32342,1.32976 6.08855,-0.22233 5.72386,-3.21286 -0.21865,-1.79298 -0.21873,-1.70858 0.003,-3.28598 0.38345,-2.72575 -3.82828,-4.17152 -6.19292,-2.12584 -1.68639,1.45892 -0.19784,3.10361 1.93107,2.13362 0.5018,-0.22864 0.75891,-0.2325 0.97676,-0.0147 0.21785,0.21785 0.0941,0.33932 -0.4702,0.46149 -0.42123,0.0912 -0.99256,0.25356 -1.26962,0.3608 -1.01973,0.39471 -2.27438,-0.48634 -2.27438,-1.59715 0,-1.14238 0.92311,-2.33975 1.80383,-2.33975 0.30389,0 0.82698,-0.12505 1.16243,-0.27789 2.01013,-0.91588 5.10658,1.12244 4.8434,3.1883 -0.19024,1.49334 -0.18755,2.16317 0.0156,3.89296 0.21395,1.82162 -0.4084,2.74943 -2.24779,3.35107 -1.46631,0.4796 -3.19622,0.56853 -3.19622,0.16431 z m 0.76843,-3.6024 c -0.30688,-0.36976 -0.28745,-0.41435 0.14411,-0.33072 0.27435,0.0532 0.54838,0.24549 0.60894,0.42739 0.15715,0.47199 -0.33337,0.40902 -0.75305,-0.0967 z"
         id="path2434" />
    </g>
    <g
       id="g2318"
       transform="translate(-31.614307,-33.053064)">
      <path
         style="fill:#faf9f3;stroke-width:0.264583"
         d="m 106.37383,151.14412 -3.08001,-6.39829 1.35269,-1.41764 2.64971,1.21508 c 0.50225,5.70603 -0.20614,7.54438 -0.92239,6.60085 z"
         id="path2332"
         sodipodi:nodetypes="ccccc" />
      <path
         style="fill:#fde74f;stroke-width:0.264583"
         d="m 103.86004,153.40469 c -0.5377,-0.41797 -0.59438,-0.71573 -0.66145,-3.47508 -0.0674,-2.77261 -0.11579,-3.02413 -0.59528,-3.09409 -1.85686,-0.27092 -1.2669,-2.92124 0.76371,-3.43089 0.37634,-0.0945 0.68425,-0.27789 0.68425,-0.40764 0,-0.41128 2.21634,-0.21633 3.0427,0.26764 l 0.79375,0.46487 0.0756,4.21215 c 0.0416,2.31668 0.0147,4.45963 -0.0598,4.7621 -0.2769,1.12437 -2.91128,1.58104 -4.04352,0.70094 z m 3.36623,-5.8622 c 0,-2.27588 -0.0885,-2.98004 -0.41578,-3.30729 -0.45732,-0.45733 -2.49464,-0.5808 -2.49464,-0.15119 0,0.14552 0.17585,0.26458 0.39078,0.26458 0.5402,0 1.12412,0.98658 1.33108,2.24896 0.22874,1.39534 0.90555,3.83646 1.06366,3.83646 0.0687,0 0.1249,-1.30119 0.1249,-2.89152 z"
         id="path2330" />
      <path
         style="fill:#f4cc0e;stroke-width:0.264583"
         d="m 104.32554,153.56526 c -0.95156,-0.3585 -0.9246,-0.26725 -1.06802,-3.61513 -0.12662,-2.95559 -0.15785,-3.09163 -0.72819,-3.17262 -3.03774,-0.4314 -0.017,-3.89645 3.21114,-3.68339 2.3242,0.1534 3.76594,8.78216 1.68423,10.08012 -0.80461,0.50168 -2.30348,0.6908 -3.09916,0.39102 z m 2.99855,-3.1974 c 0.78232,-2.91924 0.005,-6.39307 -1.48016,-6.61711 -1.95793,-0.29531 -3.36842,0.78226 -1.92496,1.4706 0.65613,0.31288 0.926,0.61636 0.92588,1.04119 -4.3e-4,1.52246 2.1965,5.16033 2.47924,4.10532 z"
         id="path2328" />
      <path
         style="fill:#d4ac01;stroke-width:0.264583"
         d="m 104.32554,153.56526 c -0.95156,-0.3585 -0.9246,-0.26725 -1.06802,-3.61513 -0.12662,-2.95559 -0.15785,-3.09163 -0.72819,-3.17262 -3.03774,-0.4314 -0.017,-3.89645 3.21114,-3.68339 2.3242,0.1534 3.76594,8.78216 1.68423,10.08012 -0.80461,0.50168 -2.30348,0.6908 -3.09916,0.39102 z m 2.76454,-1.47761 c 1.70215,-4.26 -0.0361,-9.08004 -2.95179,-8.18518 -1.90029,0.58322 -2.28513,2.24488 -0.45098,1.94724 l 0.94959,-0.1541 -0.16841,1.12306 c -0.31829,2.12248 2.00947,6.80092 2.62159,5.26898 z"
         id="path2326" />
      <path
         style="fill:#b59400;stroke-width:0.264583"
         d="m 104.32554,153.56526 c -0.95156,-0.3585 -0.9246,-0.26725 -1.06802,-3.61513 -0.12662,-2.95559 -0.15785,-3.09163 -0.72819,-3.17262 -3.03774,-0.4314 -0.017,-3.89645 3.21114,-3.68339 2.3242,0.1534 3.76594,8.78216 1.68423,10.08012 -0.80461,0.50168 -2.30348,0.6908 -3.09916,0.39102 z m 2.94071,-2.34026 c 0.36903,-3.11138 0.25655,-6.24916 -0.24627,-6.87012 -0.79383,-0.98034 -4.42791,-0.56152 -4.5959,0.52967 -0.12204,0.79269 -0.0138,0.93061 0.82528,1.05154 0.91173,0.1314 0.91737,0.14061 0.84099,1.37156 -0.0582,0.93832 0.12045,1.66566 0.73576,2.99503 0.44696,0.96566 0.81266,1.85658 0.81266,1.97982 0,0.28404 0.54196,0.51244 1.05833,0.44601 0.27356,-0.0352 0.4504,-0.50236 0.56915,-1.50351 z"
         id="path2324" />
      <path
         style="fill:#8b690a;stroke-width:0.264583"
         d="m 103.84555,153.19713 c -0.54906,-0.38458 -0.58803,-0.61136 -0.58803,-3.42201 v -3.01013 l -0.72761,-0.0837 c -2.982171,-0.34314 0.16811,-3.81783 3.23,-3.56261 2.23601,0.18637 2.26011,0.24358 2.26011,5.36654 0,4.93713 -0.0868,5.12381 -2.38125,5.12381 -0.66285,0 -1.46979,-0.18535 -1.79322,-0.41188 z m 3.20309,-0.64881 c 0.47297,-0.42717 0.55322,-7.32945 0.0934,-8.03125 -0.75327,-1.14963 -3.1432,-1.12922 -4.47982,0.0383 -0.62858,0.54905 -0.60178,1.38075 0.0445,1.38075 1.17908,0 1.22528,0.12979 1.12187,3.15118 -0.12309,3.59625 1.33506,5.16353 3.22006,3.46105 z"
         id="path2322" />
      <path
         style="fill:#7a5700;stroke-width:0.264583"
         d="m 103.57502,153.02692 c -0.20948,-0.20948 -0.3175,-1.33467 -0.3175,-3.30729 0,-2.70267 -0.0457,-2.98979 -0.47625,-2.98979 -1.54641,0 -1.54962,-2.03743 -0.005,-2.90579 3.79544,-2.13316 5.24333,-0.82585 5.24333,4.73427 0,4.85513 0.0343,4.7861 -2.38125,4.7861 -1.00542,0 -1.88095,-0.13469 -2.06375,-0.3175 z m 3.50006,-0.36285 c 0.61306,-0.61307 0.61306,-8.08039 0,-8.69346 -0.64762,-0.64761 -2.75622,-0.54336 -3.84458,0.19008 -1.1707,0.78893 -1.26339,1.86577 -0.17142,1.99141 l 0.7276,0.0837 v 3.10451 c 0,2.06184 0.10664,3.21114 0.3175,3.42201 0.46335,0.46334 2.47585,0.39677 2.9709,-0.0983 z"
         id="path2320" />
    </g>
    <g
       id="g2204"
       transform="translate(-39.816387,-33.053064)">
      <path
         style="fill:#f6f3e6;stroke-width:0.264583"
         d="m 100.3471,148.31734 1.12427,-3.48691 3.37365,-2.06934 2.92321,1.73846 1.34448,3.83499 -1.24815,3.14985 -2.90865,1.9249 -2.79067,-0.60036 z"
         id="path2218"
         sodipodi:nodetypes="ccccccccc" />
      <path
         style="fill:#fde857;stroke-width:0.264583"
         d="m 102.46904,153.41016 c -1.77385,-0.89121 -3.430995,-8.26782 -1.85736,-8.26782 0.14552,0 0.26459,-0.15784 0.26459,-0.35075 0,-3.19844 7.47572,-2.2475 8.09042,1.02913 1.11259,5.93063 -2.16936,9.76404 -6.49765,7.58944 z m 1.75902,-5.13163 c -0.1836,-2.38086 -0.22296,-2.48287 -0.86327,-2.23716 -0.36596,0.14043 -0.41882,0.41566 -0.2985,1.55404 0.35581,3.36628 1.41679,3.99013 1.16177,0.68312 z m 4.05654,-0.89573 c 0,-2.73251 -0.98702,-3.63391 -3.84414,-3.51065 -2.18263,0.0942 -2.44113,0.54882 -0.42701,0.75104 1.62226,0.16287 3.34798,1.65796 3.64858,3.16097 0.24065,1.20328 0.62257,0.95706 0.62257,-0.40136 z"
         id="path2216" />
      <path
         style="fill:#f7d019;stroke-width:0.264583"
         d="m 103.13849,153.58893 c -3.354672,-0.82886 -4.117293,-8.29235 -1.03147,-10.09457 3.72083,-2.17308 6.83904,0.0419 6.83904,4.85809 0,4.63001 -1.77706,6.23233 -5.80757,5.23648 z m 1.17331,-4.67628 c -0.004,-2.85025 -0.22688,-3.54913 -0.98061,-3.08149 -1.08695,0.67439 -0.85058,3.77628 0.39611,5.19816 0.59259,0.67585 0.58891,0.68918 0.5845,-2.11667 z m 3.96629,-0.6746 c 0.0111,-3.97666 -1.88675,-5.46838 -5.48359,-4.31009 -0.96872,0.31195 -0.68066,0.68518 0.52916,0.68562 2.85778,10e-4 5.12068,3.84427 3.51415,5.96829 -0.61521,0.81338 -0.47493,0.93391 0.51424,0.44185 l 0.91953,-0.45742 0.007,-2.32825 z"
         id="path2214" />
      <path
         style="fill:#d1a902;stroke-width:0.264583"
         d="m 103.13849,153.58893 c -3.354672,-0.82886 -4.117293,-8.29235 -1.03147,-10.09457 3.72083,-2.17308 6.83904,0.0419 6.83904,4.85809 0,4.63001 -1.77706,6.23233 -5.80757,5.23648 z m 4.17132,-2.1362 c 1.65391,-0.87055 1.3397,-6.46542 -0.41587,-7.40498 -1.87887,-1.00554 -6.01334,0.18878 -5.00591,1.44605 0.13662,0.1705 0.30004,1.3391 0.36316,2.5969 0.17422,3.47183 2.24072,4.84526 5.05862,3.36203 z m -2.81757,-0.40136 c -0.097,-0.097 -0.17639,-1.17641 -0.17639,-2.39865 0,-1.22224 -0.13009,-2.46533 -0.28909,-2.76243 -0.65675,-1.22714 1.22518,-1.31971 2.02463,-0.0996 0.23807,0.36334 0.48413,1.49699 0.56927,2.62272 l 0.14996,1.98277 -0.99511,0.41578 c -1.1553,0.48271 -1.05809,0.46458 -1.28327,0.2394 z"
         id="path2212" />
      <path
         style="fill:#b49105;stroke-width:0.264583"
         d="m 103.13849,153.58893 c -3.354672,-0.82886 -4.117293,-8.29235 -1.03147,-10.09457 3.72083,-2.17308 6.83904,0.0419 6.83904,4.85809 0,4.63001 -1.77706,6.23233 -5.80757,5.23648 z m 3.46654,-1.04581 c 2.22377,-0.77521 2.44704,-7.34037 0.28891,-8.49537 -0.64353,-0.34441 -3.15824,-0.42295 -4.07577,-0.1273 -2.81061,0.90563 -1.69365,8.31687 1.30415,8.65324 0.76128,0.0854 1.45569,0.17472 1.54311,0.19844 0.0874,0.0237 0.51025,-0.0793 0.9396,-0.22901 z m -2.33741,-4.23575 c -0.089,-2.84627 -0.0113,-3.09252 0.83339,-2.64046 0.6553,0.35071 1.01011,1.56475 0.54187,1.85414 -0.18265,0.11288 -0.40712,0.89416 -0.49883,1.73616 -0.28564,2.62254 -0.78151,2.08513 -0.87643,-0.94984 z"
         id="path2210" />
      <path
         style="fill:#8a6709;stroke-width:0.264583"
         d="m 103.06615,153.51689 c -3.980585,-1.08564 -3.77294,-9.74539 0.24933,-10.39812 4.73737,-0.76877 8.03272,5.58556 4.85509,9.36195 -0.98801,1.17419 -3.05781,1.59434 -5.10442,1.03617 z m 4.03488,-1.0788 c 1.6213,-1.06232 1.89384,-6.24329 0.41403,-7.87078 -1.52981,-1.6825 -5.3499,-1.15046 -6.02855,0.83961 -1.774367,5.20318 1.72195,9.58168 5.61452,7.03117 z m -2.78518,-4.1428 c 0,-2.01671 0.0807,-2.64097 0.33073,-2.55764 0.1819,0.0606 0.32329,0.42775 0.31419,0.8158 -0.0858,3.65973 -0.15046,4.40972 -0.38034,4.40972 -0.15889,0 -0.26458,-1.06568 -0.26458,-2.66788 z"
         id="path2208" />
      <path
         style="fill:#765300;stroke-width:0.264583"
         d="m 104.18356,153.6091 c -0.29104,-0.12512 -0.84053,-0.23585 -1.22109,-0.24608 -1.04304,-0.028 -2.00091,-0.92364 -2.20877,-2.06519 -0.36707,-2.01595 -0.45463,-4.62579 -0.16491,-4.91552 0.15811,-0.15811 0.28748,-0.62653 0.28748,-1.04094 0,-0.97353 1.12895,-2.03725 2.22144,-2.09308 5.0311,-0.2571 5.71606,0.39999 5.71606,5.48348 0,3.48787 -0.36488,4.23235 -2.25667,4.60435 -0.57784,0.11362 -1.22922,0.27271 -1.4475,0.35353 -0.21828,0.0808 -0.635,0.0446 -0.92604,-0.0805 z m 2.77812,-0.88143 c 1.46897,-0.68822 1.91978,-3.65138 1.16068,-7.6292 -0.36796,-1.92813 -5.61424,-2.09725 -6.58893,-0.2124 -2.529464,4.89144 0.96142,9.93432 5.42825,7.8416 z m -2.46944,-1.94089 c -0.28874,-0.28874 -0.2058,-4.85069 0.0882,-4.85069 0.15782,0 0.26459,1.01424 0.26459,2.51354 0,2.51422 -0.0231,2.66689 -0.35278,2.33715 z"
         id="path2206" />
    </g>
    <g
       id="g2010"
       transform="translate(-30.034207,-32.909254)">
      <path
         style="display:inline;fill:#f4f0e0;stroke-width:0.264583"
         d="m 107.60208,151.57073 1.32791,-7.61296 2.50565,-0.91114 2.92829,0.99365 0.71532,2.77103 -2.24783,3.21041 2.42628,0.76135 -1.0298,1.89493 z"
         id="path2024"
         sodipodi:nodetypes="ccccccccc" />
      <path
         style="display:inline;fill:#fce854;stroke-width:0.264583"
         d="m 107.56439,153.22526 c -0.85292,-0.72545 -0.82268,-2.74402 0.0661,-4.41568 0.76103,-1.4313 0.76065,-1.4298 0.3599,-1.4298 -1.08921,0 -1.28305,-1.85592 -0.32502,-3.11195 1.94369,-2.54832 6.98313,-2.12003 7.7549,0.65907 0.49016,1.76505 0.0846,3.67925 -0.8958,4.2279 -0.37409,0.20935 -0.3427,0.28915 0.23541,0.59855 1.1132,0.59576 1.23346,2.62416 0.20762,3.50168 -0.76768,0.65669 -6.62377,0.63314 -7.40316,-0.0298 z m 7.2099,-2.14131 c 0,-0.23627 -0.29444,-0.43076 -0.72761,-0.4806 -0.59249,-0.0682 -0.7276,0.0211 -0.7276,0.4806 0,0.45952 0.13511,0.54877 0.7276,0.48059 0.43317,-0.0498 0.72761,-0.24432 0.72761,-0.48059 z m -6.21771,-0.89931 c 0,-0.14796 0.43875,-0.71833 0.975,-1.26749 1.06429,-1.08994 1.06482,-1.43166 0.002,-1.02742 -0.87822,0.3339 -1.49328,1.28148 -1.66875,2.57092 -0.13071,0.96048 -0.11452,0.99012 0.27667,0.50658 0.22853,-0.28247 0.41551,-0.63464 0.41551,-0.78259 z m 6.08542,-4.5099 c 0,-1.27233 -1.05837,-2.07852 -2.90396,-2.21201 -1.78224,-0.12892 -2.28401,0.46561 -0.62629,0.74205 0.47834,0.0798 1.13745,0.52624 1.66003,1.12448 1.01701,1.16426 1.87022,1.32187 1.87022,0.34548 z"
         id="path2022" />
      <path
         style="display:inline;fill:#f5cd13;stroke-width:0.264583"
         d="m 109.91556,153.26786 c -3.16734,-0.12827 -3.80641,-1.45191 -2.19431,-4.54479 0.67413,-1.29335 0.68156,-1.34329 0.19975,-1.34329 -1.33015,0 -0.82814,-2.9516 0.69075,-4.06129 4.01578,-2.93388 9.6371,2.6636 5.85033,5.82551 -0.41037,0.34265 -0.62706,0.59807 -0.48154,0.56759 1.12394,-0.23536 1.90511,0.98462 1.57956,2.46685 -0.21125,0.9618 -0.8416,1.3012 -2.28977,1.2329 -0.62803,-0.0296 -2.13768,-0.0942 -3.35477,-0.14348 z m 4.93836,-1.96762 c 0.12315,-0.64813 -0.73772,-0.99563 -2.03533,-0.82158 -1.17522,0.15763 -1.70713,0.74194 -1.05942,1.16379 0.65123,0.42415 2.99845,0.16459 3.09475,-0.34221 z m -5.15436,-1.62108 c 1.10887,-1.93027 1.10602,-2.27654 -0.0155,-1.88213 -0.95212,0.33485 -1.92125,1.82219 -1.92125,2.94857 0,1.41884 0.74455,1.00886 1.93673,-1.06644 z m 4.41327,-2.29938 c 1.43935,-1.43935 0.19261,-3.74874 -2.21903,-4.11038 -1.39944,-0.20986 -3.14522,0.48099 -3.29798,1.30509 -0.0953,0.51416 0.52623,0.51847 2.24169,0.0155 0.92831,-0.27216 2.53176,1.30037 2.20426,2.16175 -0.48841,1.28463 0.0807,1.61833 1.07106,0.628 z"
         id="path2020" />
      <path
         style="display:inline;fill:#d3a902;stroke-width:0.264583"
         d="m 109.91556,153.26786 c -3.16734,-0.12827 -3.80641,-1.45191 -2.19431,-4.54479 0.67413,-1.29335 0.68156,-1.34329 0.19975,-1.34329 -1.33015,0 -0.82814,-2.9516 0.69075,-4.06129 4.01578,-2.93388 9.6371,2.6636 5.85033,5.82551 -0.41037,0.34265 -0.62706,0.59807 -0.48154,0.56759 1.12394,-0.23536 1.90511,0.98462 1.57956,2.46685 -0.21125,0.9618 -0.8416,1.3012 -2.28977,1.2329 -0.62803,-0.0296 -2.13768,-0.0942 -3.35477,-0.14348 z m 4.8927,-1.56362 c 0.22592,-0.90013 -0.47833,-1.46724 -1.60862,-1.29538 -3.11009,0.47289 -3.32014,0.46734 -3.32014,-0.0877 0,-1.03247 1.07955,-1.85801 2.89279,-2.2121 1.86953,-0.36509 2.29218,-0.932 1.95431,-2.62135 -0.59964,-2.99821 -5.9975,-3.00541 -6.59683,-0.009 -0.20071,1.00357 0.32631,1.15532 1.08827,0.31337 0.55031,-0.60809 2.02915,-0.71594 2.47361,-0.18041 0.43761,0.52729 -0.34016,1.45823 -1.70824,2.04466 -2.06858,0.88669 -3.25311,4.16819 -1.40678,3.8972 0.44759,-0.0657 1.54891,0.0909 2.44739,0.348 2.51861,0.72067 3.56754,0.66593 3.78424,-0.19749 z"
         id="path2018" />
      <path
         style="display:inline;fill:#b28f0a;stroke-width:0.264583"
         d="m 109.91556,153.26786 c -3.16734,-0.12827 -3.80641,-1.45191 -2.19431,-4.54479 0.67413,-1.29335 0.68156,-1.34329 0.19975,-1.34329 -1.33015,0 -0.82814,-2.9516 0.69075,-4.06129 4.01578,-2.93388 9.6371,2.6636 5.85033,5.82551 -0.41037,0.34265 -0.62706,0.59807 -0.48154,0.56759 1.12394,-0.23536 1.90511,0.98462 1.57956,2.46685 -0.21125,0.9618 -0.8416,1.3012 -2.28977,1.2329 -0.62803,-0.0296 -2.13768,-0.0942 -3.35477,-0.14348 z m -0.19151,-0.49185 c 0.22934,-0.088 0.35134,-0.26624 0.2711,-0.39607 -0.0802,-0.12983 0.16632,-0.11736 0.54791,0.0277 1.95603,0.74368 4.36352,0.21037 4.36352,-0.96661 0,-0.86901 -0.62718,-1.08928 -2.74414,-0.96379 l -1.88607,0.11181 0.73182,-0.66954 c 0.40251,-0.36825 1.18727,-0.79218 1.74393,-0.94207 3.22196,-0.86759 2.59685,-5.18993 -0.8248,-5.70304 -2.13242,-0.31977 -4.04544,1.02039 -3.85299,2.6992 0.1101,0.96041 1.89929,0.95774 2.65078,-0.004 0.3456,-0.44228 0.5209,-0.50233 0.76273,-0.26131 0.51152,0.5098 0.089,1.07768 -1.34087,1.80226 -1.85541,0.9402 -3.48403,4.36709 -2.07546,4.36709 0.16977,0 0.22557,0.0831 0.12399,0.18468 -0.10157,0.10158 0.0869,0.33549 0.41893,0.51979 0.73264,0.40674 0.61044,0.38539 1.10962,0.19384 z m -0.55011,-0.54554 c 0.097,-0.097 0.25577,-0.097 0.35278,0 0.097,0.097 0.0176,0.17639 -0.17639,0.17639 -0.19403,0 -0.2734,-0.0794 -0.17639,-0.17639 z m 2.11667,-3.43958 c 0.097,-0.097 0.25576,-0.097 0.35278,0 0.097,0.097 0.0176,0.17639 -0.17639,0.17639 -0.19403,0 -0.27341,-0.0794 -0.17639,-0.17639 z m 0.79375,-0.26458 c 0.097,-0.097 0.25576,-0.097 0.35278,0 0.097,0.097 0.0176,0.17639 -0.17639,0.17639 -0.19403,0 -0.27341,-0.0794 -0.17639,-0.17639 z"
         id="path2016" />
      <path
         style="display:inline;fill:#8b680d;stroke-width:0.264583"
         d="m 107.49825,152.83286 c 0,-0.21004 -0.11741,-0.42159 -0.26091,-0.47009 -0.3711,-0.12544 0.17359,-3.28084 0.70681,-4.09464 0.4044,-0.6172 0.39544,-0.6729 -0.17227,-1.07054 -2.97709,-2.08523 2.33819,-5.71833 5.90981,-4.03947 1.98976,0.9353 2.54128,4.22893 0.95791,5.72059 -0.78892,0.74323 -0.79072,0.75133 -0.19843,0.89351 0.84013,0.20167 1.33513,1.34123 1.05419,2.4269 l -0.22492,0.8692 -3.8861,0.0732 c -3.24401,0.0611 -3.88609,0.0101 -3.88609,-0.30868 z m 6.72965,-0.15486 c 2.0848,-0.79265 0.56241,-2.57107 -1.9909,-2.32573 -1.40851,0.13534 -1.66679,-0.23287 -0.50752,-0.72353 3.03518,-1.28464 3.61033,-2.14087 2.94029,-4.37726 -0.77324,-2.58085 -5.49632,-2.85227 -6.53125,-0.37534 -0.78514,1.8791 1.74005,3.1628 2.58287,1.31301 0.32191,-0.7065 0.60923,-0.83158 0.88506,-0.38528 0.25281,0.40905 -0.35143,1.01075 -1.71033,1.70313 -4.92457,2.50913 -0.99739,7.19714 4.33178,5.171 z"
         id="path2014" />
      <path
         style="display:inline;fill:#7b5700;stroke-width:0.264583"
         d="m 107.5023,152.6053 c 0.003,-0.43855 0.0644,-0.5 0.23335,-0.23335 0.12612,0.19907 0.39219,0.46514 0.59126,0.59126 0.26665,0.16892 0.2052,0.23037 -0.23335,0.23335 -0.44336,0.003 -0.59428,-0.1479 -0.59126,-0.59126 z m 4.68017,0.35211 c 2.45859,-0.17405 2.79764,-0.38192 2.67724,-1.64138 l -0.0854,-0.89354 -1.98438,-0.14044 -1.98437,-0.14043 0.98369,-0.45488 c 0.54103,-0.25018 1.09744,-0.45488 1.23647,-0.45488 1.50463,0 2.50891,-3.21895 1.46794,-4.70514 -0.86763,-1.23872 -3.26833,-1.77826 -4.99367,-1.12228 -1.47968,0.56257 -2.28386,3.2172 -1.02875,3.39591 0.94543,0.13462 1.2831,0.75079 0.60912,1.11149 -0.31281,0.16741 -0.79413,0.80079 -1.06961,1.40752 -0.43807,0.96484 -0.50159,1.01639 -0.50667,0.41121 -0.003,-0.38056 0.23231,-0.99465 0.52335,-1.36465 0.65521,-0.83296 0.65521,-0.89146 0,-1.0628 -1.52567,-0.39898 -0.24713,-4.15667 1.41429,-4.15667 0.22361,0 0.48015,-0.11907 0.57009,-0.26459 0.21281,-0.34433 2.43302,-0.34433 2.64583,0 0.0899,0.14552 0.40638,0.26459 0.70321,0.26459 2.07195,0 2.89014,4.06345 1.14888,5.70568 -0.9877,0.93152 -1.15853,1.24609 -0.54985,1.01251 0.81729,-0.31362 1.47589,0.38812 1.47589,1.57257 0,1.6205 -0.26413,1.77034 -3.02948,1.71864 l -2.39448,-0.0448 z m -1.83268,-5.98951 c 0.32342,-0.22653 0.58804,-0.58372 0.58804,-0.79375 0,-0.21003 0.17859,-0.38187 0.39688,-0.38187 0.21828,0 0.39687,0.11042 0.39687,0.24538 0,0.30838 -1.29557,1.34212 -1.68205,1.34212 -0.15828,0 -0.0232,-0.18535 0.30026,-0.41188 z"
         id="path2012" />
    </g>
    <rect
       style="fill:#a4d0eb;fill-rule:evenodd;stroke-width:1.4;stroke-linecap:round;stroke-linejoin:bevel;paint-order:stroke fill markers;stop-color:#000000"
       id="rect6049"
       width="10.054168"
       height="11.1125"
       x="153.00211"
       y="109.70802" />
  </g>
</svg>
