<?xml version="1.0" encoding="UTF-8" standalone="no"?>
<!-- Created with Inkscape (http://www.inkscape.org/) -->

<svg
   width="210mm"
   height="297mm"
   viewBox="0 0 210 297"
   version="1.1"
   id="svg5"
   inkscape:version="1.1 (c4e8f9ed74, 2021-05-24)"
   sodipodi:docname="drawing.svg"
   xmlns:inkscape="http://www.inkscape.org/namespaces/inkscape"
   xmlns:sodipodi="http://sodipodi.sourceforge.net/DTD/sodipodi-0.dtd"
   xmlns="http://www.w3.org/2000/svg"
   xmlns:svg="http://www.w3.org/2000/svg">
  <sodipodi:namedview
     id="namedview7"
     pagecolor="#505050"
     bordercolor="#eeeeee"
     borderopacity="1"
     inkscape:pageshadow="0"
     inkscape:pageopacity="0"
     inkscape:pagecheckerboard="0"
     inkscape:document-units="mm"
     showgrid="false"
     inkscape:zoom="46.352862"
     inkscape:cx="293.29365"
     inkscape:cy="432.6378"
     inkscape:current-layer="layer1" />
  <defs
     id="defs2" />
  <g
     inkscape:label="Layer 1"
     inkscape:groupmode="layer"
     id="layer1">
    <g
       id="g3116"
       transform="translate(41.675271,-33.053064)"
       inkscape:label="9">
      <path
         style="fill:#fcfbf3;stroke-width:0.264583"
         d="m 101.33539,149.61291 -0.41901,-4.17755 3.9902,-2.11789 3.17149,0.84153 0.66471,3.82893 -0.69302,3.44187 -2.10386,1.88798 -4.26727,-0.83075 z"
         id="path3130"
         sodipodi:nodetypes="ccccccccc" />
      <path
         style="fill:#ebe2a5;stroke-width:0.264583"
         d="m 101.87956,152.93345 c -1.31514,-0.95499 -1.07504,-2.40093 -0.67285,-2.73483 0.26477,-0.21982 0.38699,-1.00017 0.0429,-1.21285 -0.53251,-0.32911 -0.50127,-3.43344 0.11337,-4.29662 4.75574,-2.76297 7.73567,-0.0796 7.76244,3.49355 l -0.34757,2.86942 -0.89733,1.32512 -1.07793,0.88839 -2.59609,0.24675 c -1.59868,0.15195 -1.43994,0.0652 -1.91438,-0.27935 z m 2.89255,-1.61925 c 0.0508,-0.15255 -0.2096,-0.47528 -0.57878,-0.71717 -0.65535,-0.4294 -0.67123,-0.42453 -0.67123,0.2057 0,0.84948 1.00083,1.25899 1.25001,0.51147 z m 2.67452,-1.12627 c 0.11667,-0.79675 -0.16462,-1.87059 -0.48999,-1.87059 -0.14275,0 -0.25954,0.60523 -0.25954,1.34497 0,1.38944 0.56503,1.78569 0.74953,0.52562 z m -2.60161,-1.82958 c 0,-0.12297 -0.23813,-0.43908 -0.52917,-0.70247 -0.51299,-0.46425 -0.52917,-0.46213 -0.52917,0.0692 0,0.49207 0.29224,0.77616 0.8599,0.83592 0.10914,0.0115 0.19844,-0.0797 0.19844,-0.20269 z m 3.65254,-2.21259 c 0.0997,-0.83455 -0.96658,-2.16205 -1.62681,-2.02544 -0.414,0.0857 -0.39141,0.19383 0.21044,1.00728 0.37083,0.50121 0.67424,1.13621 0.67424,1.41111 0,0.74045 0.64775,0.39748 0.74213,-0.39295 z"
         id="path3128"
         sodipodi:nodetypes="ssscccccssscsscsssscsssccccssc" />
      <path
         style="fill:#f2cb0f;stroke-width:0.264583"
         d="m 102.19918,153.28427 c -1.47423,-0.60249 -1.66524,-2.4461 -0.93908,-3.17225 0.48019,-0.4802 0.35603,-0.11829 -0.12459,-0.95909 -1.716439,-3.0026 0.21367,-6.10462 4.17958,-5.95607 2.40767,0.0902 3.80468,1.04769 3.7947,5.03602 -0.012,4.79345 -4.53996,6.02024 -6.91061,5.05139 z m 2.80057,-1.82823 c 0.19756,-0.31966 -0.85065,-1.27076 -1.4115,-1.28073 -0.42143,-0.007 -0.43037,0.84698 -0.0132,1.26411 0.40144,0.40145 1.18127,0.41054 1.42473,0.0166 z m 2.44029,-1.64028 c 0.1001,-1.56624 -0.50288,-2.60613 -0.77778,-1.34135 -0.3608,1.66 -0.2626,2.79839 0.23328,2.70422 0.35023,-0.0665 0.48287,-0.39849 0.5445,-1.36287 z m -2.33044,-1.39143 c 0,-0.38837 -1.12395,-1.68516 -1.34315,-1.54969 -0.28144,0.17394 -0.33005,1.26881 -0.068,1.53089 0.21877,0.21878 1.41111,0.23466 1.41111,0.0188 z m 3.38643,-2.13271 c 0.0984,-1.31677 -0.51779,-2.13725 -1.79033,-2.38369 l -0.91743,-0.17767 0.81785,1.03677 c 0.44982,0.57022 0.90328,1.43003 1.00769,1.91068 0.25358,1.16744 0.78341,0.93557 0.88222,-0.38609 z"
         id="path3126"
         sodipodi:nodetypes="ssssssccsccsssscsscccscssc" />
      <path
         style="fill:#d2aa01;stroke-width:0.264583"
         d="m 102.19918,153.28427 c -1.46978,-0.61325 -1.65027,-2.37347 -0.92411,-3.09962 0.48019,-0.4802 0.3737,-0.17544 -0.10699,-1.01624 -1.716445,-3.0026 0.2618,-6.05811 4.22938,-5.96438 2.88353,0.0681 3.70506,1.05824 3.69508,5.04657 -0.012,4.79345 -4.39906,6.07439 -6.89336,5.03367 z m 5.85058,-1.85447 c 2.38407,-4.2601 -0.92288,-9.05813 -5.06159,-7.34382 -0.84739,0.351 -0.86078,0.38417 -0.80004,1.9824 0.0751,1.97534 0.40095,2.27825 2.85394,2.65272 1.32489,0.20226 1.44077,0.33682 1.2239,1.42115 -0.18558,0.9279 -0.94236,1.10641 -1.8334,0.43246 -0.49337,-0.37316 -1.9688,-0.56471 -1.9688,-0.2556 0,0.28737 0.61071,1.30709 0.8995,1.50193 0.49901,0.33665 4.4644,0.006 4.68649,-0.39124 z m -3.60854,-4.27884 c -0.20724,-0.49599 -0.49578,-0.94248 -0.64121,-0.99219 -0.50895,-0.17399 0.0439,-1.2853 0.72439,-1.45609 1.17893,-0.29589 2.35921,2.03372 1.24666,2.46065 -0.21828,0.0838 -0.39688,0.31815 -0.39688,0.52086 0,0.68905 -0.55474,0.37199 -0.93296,-0.53323 z"
         id="path3124"
         sodipodi:nodetypes="sssssscssssssscssssss" />
      <path
         style="fill:#b59204;stroke-width:0.264583"
         d="m 102.19918,153.28427 c -0.27476,-0.054 -0.8637,-1.7991 -0.39972,-2.49842 0.37545,-0.56587 -0.0729,-0.73273 -0.55351,-1.57353 -1.716441,-3.0026 0.11026,-6.1634 4.07232,-5.93404 3.18427,0.18434 4.05171,0.98526 3.79599,4.9654 -0.30687,4.77614 -3.52561,5.7062 -6.91508,5.04059 z m 4.76984,-0.74707 c 1.52919,-0.60956 2.33405,-6.40523 1.10098,-7.92801 -1.9241,-2.37616 -6.38121,-0.75654 -6.43442,2.33813 -0.0407,2.36863 -0.0248,2.38522 2.34954,2.45344 1.65572,0.0476 1.91823,0.12078 1.91823,0.53488 0,0.72183 -0.87338,1.09171 -1.4848,0.62882 -0.93627,-0.70881 -2.74853,-0.51448 -2.74853,0.29473 0,0.50195 0.1072,0.64863 0.3937,0.53869 0.21653,-0.0831 0.38103,-0.0661 0.36554,0.0378 -0.0855,0.5736 0.0975,0.89135 0.62982,1.09347 0.8416,0.31956 3.11665,0.32423 3.90994,0.008 z m -2.21876,-4.75644 c -0.0678,-0.2142 -0.25277,-0.79418 -0.41111,-1.28884 -0.39692,-1.24 -0.37175,-1.35015 0.30743,-1.34553 0.48139,0.003 0.51937,0.0531 0.19844,0.26053 -0.33917,0.21919 -0.32955,0.25707 0.0661,0.26054 0.34601,0.003 0.462,0.22136 0.45897,0.86394 -0.005,1.0346 -0.42189,1.8751 -0.61987,1.24936 z"
         id="path3122"
         sodipodi:nodetypes="sssssscssssssssscccscssccc" />
      <path
         style="fill:#8e6b0b;stroke-width:0.264583"
         d="m 102.78611,153.48445 c -1.89052,-0.49721 -2.31619,-1.92607 -1.58496,-3.29237 0.23843,-0.44552 -0.0284,-0.63723 -0.1808,-1.34545 -0.5944,-2.76273 0.10793,-5.95956 3.8363,-5.68867 3.27874,0.23823 4.23897,0.96895 4.23897,5.12653 0,4.62609 -3.32663,5.98446 -6.30951,5.19996 z m 4.09957,-0.84113 c 1.39515,-0.68156 1.68686,-1.47174 1.69796,-4.59945 0.014,-3.94987 -1.48523,-5.16394 -5.16878,-4.18559 -2.78103,0.73864 -3.27639,5.17547 -0.64488,5.77604 l 0.88441,0.20184 -1.12448,0.20045 c -1.10508,0.19699 -1.27644,0.41737 -1.13195,1.45573 0.23244,1.67031 3.16544,2.28546 5.48772,1.15098 z m -2.64154,-2.23362 c -0.5919,-0.34459 -0.34889,-0.76944 0.4401,-0.76944 0.73681,0 0.96266,0.20012 0.7757,0.68732 -0.16694,0.43503 -0.56359,0.46182 -1.2158,0.0821 z m 0.53473,-2.50873 c -0.28726,-0.29096 -0.24422,-1.96488 0.0505,-1.96488 0.38281,0 0.45575,0.31668 0.29516,1.28137 -0.081,0.48648 -0.23655,0.79405 -0.34569,0.68351 z"
         id="path3120"
         sodipodi:nodetypes="sssssssssscsssssssscsscc" />
      <path
         style="fill:#7a5700;stroke-width:0.264583"
         d="m 104.67517,153.34442 c 2.98391,0 4.00631,-1.39546 4.00631,-5.46816 0,-3.75897 -1.36745,-4.89314 -5.06357,-4.19974 -2.63758,0.49481 -3.704295,5.06647 -1.38257,5.92533 0.56225,0.20799 0.55084,0.23106 -0.25283,0.51123 -1.29967,0.45306 -1.06653,2.01124 0.42176,2.81891 m -1.63134,-2.14282 c 0.29318,-0.70288 0.57444,-0.98088 0.30132,-1.50738 -0.99766,-1.93035 -1.06844,-3.28047 -0.0462,-4.57034 1.64795,-2.48269 6.99023,-2.19772 7.8076,0.0272 0.12668,0.34484 0.1978,0.90004 0.24267,1.06512 0.2568,0.94482 0.0665,4.54599 -0.39079,6.10831 -0.92972,1.68533 -3.02127,2.02186 -3.66206,2.02757 -0.82651,-0.005 -1.8714,-0.20692 -2.52636,-0.35799 -1.25253,-0.33138 -2.36367,-1.83631 -1.72621,-2.79254 z m 3.80754,-0.48746 c 0,-0.21828 0.11907,-0.39687 0.26459,-0.39687 0.14552,0 0.26458,0.17859 0.26458,0.39687 0,0.21829 -0.11906,0.39688 -0.26458,0.39688 -0.14552,0 -0.26459,-0.17859 -0.26459,-0.39688 z m 0.17639,-2.68993 c -0.27698,-0.27698 -0.2061,-1.41111 0.0882,-1.41111 0.14552,0 0.26458,0.35719 0.26458,0.79375 0,0.82203 -0.0539,0.91628 -0.35278,0.61736 z"
         id="path3118"
         sodipodi:nodetypes="cssssccccssccccsssssssss" />
    </g>
    <g
       id="g3002"
       transform="translate(32.150271,-33.053064)"
       inkscape:label="8">
      <path
         style="fill:#f9f7ea;stroke-width:0.264583"
         d="m 101.4057,147.84101 0.0877,-3.27254 3.35165,-1.80738 2.81055,1.46094 1.20307,1.31323 -0.35973,6.63642 -3.63063,1.58624 -3.19588,-0.94337 z"
         id="path3016"
         sodipodi:nodetypes="ccccccccc" />
      <path
         style="fill:#fce753;stroke-width:0.264583"
         d="m 101.70736,152.98791 c -1.58781,-0.83766 -1.51498,-3.95761 -0.48453,-4.98805 0.21436,-0.21437 -0.13024,-0.33501 -0.29941,-0.99692 -0.50515,-1.97654 0.82756,-4.24185 3.9216,-4.24185 3.01776,0 4.46583,1.57574 4.03049,3.74322 -0.13706,0.68236 -0.28704,1.07787 -0.0724,1.89309 0.86799,3.29643 -3.46081,6.50816 -7.09577,4.59051 z m 3.40224,-1.59743 c 0,-0.41054 -1.28389,-1.34827 -1.52114,-1.11102 -0.0838,0.0838 -0.0165,0.45047 0.14957,0.81489 0.32143,0.70546 1.37157,0.9322 1.37157,0.29613 z m 3.43958,-1.39429 c 0,-0.79785 -0.89142,-1.94343 -1.51225,-1.94343 -0.68995,0 -0.71771,0.0794 -0.30677,0.87729 0.75222,1.46053 1.81902,2.08579 1.81902,1.06614 z m -3.96875,-2.6502 c 0,-0.26684 -0.84321,-1.14532 -1.09934,-1.14532 -0.33094,0 -0.27111,0.64038 0.0939,1.00542 0.3404,0.3404 1.00541,0.43293 1.00541,0.1399 z m 3.70417,-1.6388 c 0,-0.70618 -1.00567,-1.88777 -1.6067,-1.88777 -0.70394,0 -0.66742,0.98893 0.0653,1.76889 0.7009,0.74607 1.54138,0.8109 1.54138,0.11888 z"
         id="path3014"
         sodipodi:nodetypes="ssssssssscssssssssssssssss" />
      <path
         style="fill:#f3cb10;stroke-width:0.264583"
         d="m 102.28595,153.37526 c -1.60606,-0.75027 -2.02403,-1.52569 -1.8305,-3.39594 0.0871,-0.84133 0.95025,-2.13831 0.37643,-3.16536 -0.18773,-1.24504 1.08814,-4.05287 3.97233,-4.05287 3.07039,0 4.43859,1.65446 3.80456,4.16305 -0.17964,0.71071 -0.0882,1.26452 0.1238,1.47657 0.42693,0.42693 0.49276,2.5245 0.0352,3.40925 -0.83882,1.62209 -4.33011,2.57048 -6.48186,1.5653 z m 2.81751,-1.47864 c 0.5139,-0.61922 -1.17401,-2.53935 -1.85971,-2.11556 -0.4413,0.27273 0.75752,2.50503 1.34529,2.50503 0.10515,0 0.33664,-0.17526 0.51442,-0.38947 z m 2.24324,0.22512 c 1.19703,-0.45935 1.53388,-2.7033 0.55305,-3.68413 -1.16535,-1.16535 -2.24105,-0.70046 -1.34369,0.5807 0.29606,0.42269 0.32744,0.76574 0.13229,1.44619 -0.47688,1.66278 -0.32862,2.03597 0.65835,1.65724 z m -2.46787,-4.79955 c -0.71587,-1.33762 -1.99156,-1.73561 -1.68583,-0.52594 0.18263,0.72261 0.53271,0.98253 1.3306,0.98787 0.49572,0.003 0.5597,-0.0799 0.35523,-0.46193 z m 3.24517,-0.21711 c 0.82445,-2.14848 -0.46594,-3.55546 -3.25232,-3.54619 -2.28026,0.008 -2.42075,0.54876 -0.23657,0.91122 1.03567,0.17186 1.74717,0.86094 2.32209,2.2489 0.36131,0.87229 0.91049,1.054 1.1668,0.38607 z"
         id="path3012"
         sodipodi:nodetypes="cccssscccssssssssscsccscsss" />
      <path
         style="fill:#d4ab03;stroke-width:0.264583"
         d="m 102.28595,153.37526 c -1.60606,-0.75027 -2.02403,-1.52569 -1.8305,-3.39594 0.0871,-0.84133 1.21893,-2.05862 0.27383,-3.64735 0.62753,-1.3697 1.19074,-3.57088 4.07493,-3.57088 3.07039,0 4.56822,1.55458 3.93419,4.06317 -0.17964,0.71071 -0.17911,1.35608 0.0329,1.56813 0.42693,0.42693 0.13965,2.54621 -0.31792,3.43096 -0.83882,1.62209 -4.01576,2.55709 -6.16751,1.55191 z m 4.64429,-0.85327 c 1.4992,-0.52262 2.11344,-2.71089 1.11664,-3.97811 -0.43906,-0.55817 -0.45571,-0.70227 -0.13229,-1.14458 1.43151,-1.9577 -0.14175,-3.84446 -3.20567,-3.84446 -2.52797,0 -3.20392,0.9653 -2.11286,3.0173 0.78932,1.48452 0.78883,1.48062 0.18521,1.48062 -1.25296,0 -1.20284,1.12058 0.12817,2.86562 1.2659,1.65967 2.47577,2.14221 4.0208,1.60361 z m -2.32808,-1.9075 c -0.6297,-0.62971 -0.0105,-2.56173 0.82104,-2.56173 0.49356,0 1.00932,0.92556 1.00932,1.8113 0,0.58156 -1.4179,1.16288 -1.83036,0.75043 z m -0.27523,-4.19461 c -0.45069,-0.74111 -0.38387,-1.80671 0.1133,-1.80671 1.22736,0 2.13699,1.61629 1.27678,2.26868 -0.68372,0.51853 -0.82168,0.47268 -1.39008,-0.46197 z"
         id="path3010"
         sodipodi:nodetypes="cccssscccssssssssssssssss" />
      <path
         style="fill:#b69402;stroke-width:0.264583"
         d="m 102.31808,153.07205 c -1.60606,-0.75027 -2.05616,-1.22248 -1.86263,-3.09273 0.0871,-0.84133 0.95025,-2.13831 0.37643,-3.16536 0.0826,-1.67183 1.08814,-4.05287 3.97233,-4.05287 3.07039,0 4.41543,1.5469 3.7814,4.05549 -0.17964,0.71071 -0.0955,1.18604 0.0849,1.52079 0.28644,0.5315 0.52651,2.52448 0.0689,3.40923 -0.83882,1.62209 -3.95397,2.47514 -6.10572,1.46996 z m 4.90819,-0.61814 c 1.28324,-0.58222 1.73269,-2.08207 1.04786,-3.49675 -0.43346,-0.8954 -0.50789,-1.28563 -0.28728,-1.50624 0.79959,-0.79959 0.28408,-2.95899 -0.84588,-3.54331 -3.31846,-1.71605 -7.637426,1.60206 -4.48387,3.44479 0.3052,0.17834 0.20904,0.33344 -0.45845,0.73936 -0.98259,0.59755 -0.94929,1.25311 0.14893,2.93189 0.35494,0.54258 0.64535,1.0835 0.64535,1.20205 0,0.71733 2.82023,0.86936 4.23334,0.22821 z m -2.70667,-1.90435 c -0.2351,-0.23509 0.1878,-1.52489 0.53828,-1.64172 0.20612,-0.0687 0.3163,0.22484 0.3163,0.84266 0,0.87156 -0.40417,1.24947 -0.85458,0.79906 z m 1.01333,-1.59722 c -0.0942,-0.24539 -0.11167,-0.50569 -0.0389,-0.57845 0.0728,-0.0728 0.20933,0.0685 0.3035,0.31387 0.0942,0.24538 0.11167,0.50568 0.0389,0.57844 -0.0728,0.0728 -0.20933,-0.0685 -0.3035,-0.31386 z m -0.91014,-2.0214 c -0.4599,-0.4599 -0.41412,-1.94235 0.0481,-1.55871 0.19529,0.16208 0.40848,0.24128 0.47375,0.17601 0.0653,-0.0653 0.14491,0.22559 0.17697,0.64636 0.066,0.86617 -0.24322,1.19198 -0.69885,0.73634 z"
         id="path3008"
         sodipodi:nodetypes="cccssscccsssssssssssssssssscssscc" />
      <path
         style="display:inline;fill:#8d6809;stroke-width:0.264583"
         d="m 102.24755,153.30777 c -1.7115,-0.59437 -1.98228,-1.46518 -1.80419,-3.32845 0.0804,-0.84133 1.13199,-2.05468 0.22341,-3.42023 -0.1202,-0.95569 1.28242,-3.798 4.13744,-3.798 2.9701,0 4.28253,1.37795 4.04938,3.92643 -0.086,0.93987 -0.2837,1.76628 -0.13867,1.85591 1.54138,2.80387 -2.5779,6.11508 -6.46737,4.76434 z m 4.52419,-0.58829 c 1.81246,-0.76713 2.53772,-2.85891 1.41961,-4.09441 -0.37696,-0.41654 -0.41767,-0.64121 -0.19242,-1.06208 0.9128,-1.70558 0.096,-3.54588 -1.77288,-3.99421 -3.2521,-0.78016 -6.00251,1.39424 -4.6531,3.67861 0.41062,0.69512 0.40264,0.77135 -0.16048,1.533 -1.94356,2.62882 1.85631,5.42174 5.35927,3.93909 z m -2.19131,-2.81464 c 0,-0.55269 0.11257,-0.80033 0.33073,-0.7276 0.42989,0.14329 0.42989,1.31191 0,1.4552 -0.21816,0.0727 -0.33073,-0.17491 -0.33073,-0.7276 z m 0,-3.62857 c 0,-0.6617 0.0337,-0.68449 0.42818,-0.28997 0.2355,0.2355 0.34754,0.55867 0.24897,0.71815 -0.3247,0.52538 -0.67715,0.30252 -0.67715,-0.42818 z"
         id="path3006"
         sodipodi:nodetypes="sscsscssssssssssssssss" />
      <path
         style="display:inline;fill:#7b5700;stroke-width:0.264583"
         d="m 100.59571,152.4304 c -0.53343,-1.17971 -0.834705,-1.85432 0.16489,-3.88062 0.3092,-0.62679 0.28604,-0.88862 0.0441,-1.18012 -0.845052,-1.01823 0.43777,-3.65472 1.82317,-4.17433 1.91017,-0.71642 3.48819,-0.56602 4.54013,-0.1807 1.09402,0.40073 2.35899,2.32286 1.7882,3.96022 -0.21314,0.61141 -0.28888,0.97965 0.003,1.53871 0.76467,1.4659 0.31925,3.79691 -0.94877,4.50457 -1.70155,0.9819 -4.40255,1.22272 -6.08297,0.48705 0,0 -1.09672,-0.55499 -1.33175,-1.07478 z m 5.80114,0.50323 c 2.12221,-0.63023 2.98913,-2.47769 2.03158,-4.32939 -0.29719,-0.5747 -0.32377,-0.96816 -0.11617,-1.71999 0.76177,-2.75893 -2.08066,-4.46211 -5.29824,-3.17468 -1.62387,0.64974 -2.51847,2.7983 -1.56299,3.75379 0.2372,0.23719 0.19668,0.52096 -0.17217,1.20589 -1.626498,3.02021 1.24655,5.41407 5.11799,4.26438 z m -1.67149,-2.56577 c -0.11085,-0.25466 -0.11085,-0.67138 0,-0.92604 0.25366,-0.58274 0.49909,0.14505 0.31229,0.92604 -0.10547,0.44097 -0.12034,0.44097 -0.31229,0 z m 0.048,-3.53329 c -0.10611,-0.10611 -0.19293,-0.37549 -0.19293,-0.59862 0,-0.29781 0.0783,-0.32742 0.29435,-0.11134 0.16189,0.16189 0.24871,0.43127 0.19293,0.59862 -0.0558,0.16734 -0.18824,0.21745 -0.29435,0.11134 z"
         id="path3004"
         sodipodi:nodetypes="assssssccassscssssssssssss" />
    </g>
    <g
       id="g2888"
       transform="translate(22.889843,-33.053064)"
       inkscape:label="7">
      <path
         style="fill:#f9f8f0;stroke-width:0.264583"
         d="m 102.63719,145.41467 -0.40388,-1.21846 3.47002,-0.98201 2.85862,0.85432 -2.05222,7.18804 -1.69654,1.29015 -1.57932,-1.83123 0.82355,-3.23836 z"
         id="path2902"
         sodipodi:nodetypes="ccccccccc" />
      <path
         style="fill:#fde858;stroke-width:0.264583"
         d="m 102.42359,153.42257 c -0.73466,-0.8543 -0.49212,-0.96512 0.2906,-3.62184 0.94629,-3.21183 1.14874,-3.34777 -0.0338,-3.26367 -1.26488,0.09 -1.92852,-1.24157 -1.24329,-2.55745 0.50526,-0.97026 5.42505,-0.73201 6.77059,-0.44495 0.32651,1.15467 0.50049,1.91722 0.029,2.42881 -0.12739,0.13825 -0.1539,1.71073 -0.84049,3.33185 -1.68071,3.96833 -1.0818,4.15099 -2.90505,4.21679 -1.16457,0.042 -1.7512,0.27842 -2.0676,-0.0895 z m 3.58311,-2.85627 c 0.0887,-0.50932 0.2338,-1.34276 0.32248,-1.85209 0.0935,-0.53679 0.0525,-0.92604 -0.0974,-0.92604 -0.32351,0 -1.20939,3.08436 -0.98853,3.44173 0.31302,0.50647 0.60375,0.25377 0.76348,-0.6636 z m 2.01867,-5.16937 c 0.64596,-1.20699 0.14337,-1.57751 -2.13984,-1.57751 -2.27139,0 -2.80623,0.36301 -0.94587,0.64198 0.87605,0.13138 1.2242,0.32923 1.44953,0.8238 0.36205,0.79459 1.23869,0.85446 1.63618,0.11173 z"
         id="path2900"
         sodipodi:nodetypes="sssscsssssccssccsssss" />
      <path
         style="fill:#f5cf1a;stroke-width:0.264583"
         d="m 102.73346,153.32972 c -0.84052,-0.15419 -0.92339,-0.89468 -0.015,-3.92944 0.81782,-2.73229 1.3973,-2.96722 -0.0981,-2.87545 -1.06933,0.0656 -1.77563,-2.34786 -0.93482,-2.80145 0.9243,-0.49863 6.86372,-0.713 6.86372,-0.002 -0.2122,0.76721 0.15246,1.62697 -0.14087,2.19534 -0.13754,0.25269 -0.47048,1.87046 -1.06899,3.71505 -1.34337,4.14017 -2.84704,4.02023 -4.39446,3.73636 z m 4.15075,-5.14467 c 0.37874,-1.01865 0.84876,-2.08694 1.0445,-2.37398 1.14587,-1.68033 0.0101,-2.38481 -3.41275,-2.11684 -2.67958,0.20977 -2.80355,0.51225 -0.31899,0.77832 1.19374,0.12784 1.78954,0.31404 1.89646,0.59267 0.23684,0.61719 -0.36864,3.46848 -0.83573,3.93557 -0.76938,0.76938 -0.82311,1.73358 -0.12796,2.29648 l 0.62908,0.50939 0.21839,-0.88476 c 0.12011,-0.48662 0.52826,-1.71821 0.907,-2.73685 z"
         id="path2898"
         sodipodi:nodetypes="ssssccsssssssssscss" />
      <path
         style="fill:#cda703;stroke-width:0.264583"
         d="m 102.7945,153.49295 c -1.07802,-0.48588 -0.83793,-1.06061 0.0704,-4.09537 0.81782,-2.73229 0.96466,-2.94669 -0.19798,-2.91059 -1.39577,0.0433 -2.082,-1.94334 -0.9179,-2.79455 0.90862,-0.6644 6.80015,-0.68206 6.80015,0.0293 0.15542,0.79818 -0.18138,1.30924 -0.14082,2.17425 -0.13754,0.25269 -0.49375,1.75184 -1.09226,3.59643 -1.34337,4.14017 -2.94197,4.52707 -4.52162,4.00052 z m 2.96065,-1.80217 c 0.70037,-1.61723 2.31815,-6.1506 2.45324,-6.87456 0.1988,-1.06528 -0.76536,-1.34566 -3.83767,-1.11598 -2.67619,0.20006 -3.27168,0.72706 -0.96022,0.84978 2.36934,0.1258 2.49286,0.19892 2.49286,1.47578 0,0.93041 -0.1791,1.34719 -0.982,2.2852 -1.07134,1.25162 -1.21747,2.44421 -0.44654,3.64436 0.5228,0.81389 0.84182,0.74796 1.28033,-0.26458 z"
         id="path2896"
         sodipodi:nodetypes="ssssccsssssssssss" />
      <path
         style="fill:#b69202;stroke-width:0.264583"
         d="m 103.10919,153.35536 c -1.16412,-0.2074 -1.27994,-0.9034 -0.3716,-3.93816 0.81782,-2.73229 1.21139,-3.08975 -0.2808,-2.99306 -0.94281,0.0611 -1.97398,-1.90249 -0.80988,-2.7537 0.90862,-0.6644 6.21263,-0.43815 6.70913,0.0273 0.15459,0.94606 0.33732,1.38832 -0.0481,2.14933 -0.13754,0.25269 -0.38171,1.93392 -0.98022,3.77851 -1.63228,3.65601 -1.46441,4.22045 -4.21853,3.72978 z m 2.37839,-0.69129 c 0.22868,-0.22868 0.41578,-0.56317 0.41578,-0.74332 0,-0.18015 0.53578,-1.80168 1.19062,-3.60341 1.73657,-4.77797 1.63951,-4.94325 -2.71198,-4.61795 l -2.44739,0.18296 v 0.89458 c 0,0.98032 -0.0137,0.97383 2.11666,1.00534 1.3701,0.0203 1.45521,0.0602 1.45521,0.68299 0,0.73724 -0.68851,0.93153 -0.95729,0.27014 -0.10487,-0.25804 -0.27982,0.0248 -0.48761,0.78819 -0.17823,0.65484 -0.56152,1.9442 -0.85176,2.86524 -0.55966,1.77599 -0.55684,1.79342 0.37375,2.3076 0.83758,0.4628 1.41873,0.45292 1.90401,-0.0324 z"
         id="path2894"
         sodipodi:nodetypes="cssscccccssscscssssscc" />
      <path
         style="fill:#8b680a;stroke-width:0.264583"
         d="m 103.10919,153.35536 c -1.14384,-0.18155 -1.10952,-1.58558 -0.27783,-3.60868 1.36316,-3.31593 0.74884,-3.31141 -0.23261,-3.27784 -1.05604,0.0361 -1.50252,-0.27316 -1.4071,-1.76896 l 0.23668,-0.85108 1.34398,-0.4298 c 0.62163,-0.19879 5.65157,0.0172 5.77688,0.30716 0.0781,0.18067 -0.40555,0.0227 -0.26003,0.0227 0.31442,0 0.43513,1.36717 0.13402,1.72689 -0.84984,3.81435 -1.62953,8.46439 -5.31399,7.87961 z m 2.44709,-0.60625 c 0.36914,-0.5723 2.52912,-6.90502 2.65978,-7.79807 0.18814,-1.28586 -0.58797,-1.53677 -3.82872,-1.2378 l -2.58503,0.23847 v 0.92605 c 0,0.91842 0.0104,0.92671 1.26983,1.00721 1.07238,0.0686 1.24691,0.15342 1.12238,0.54578 -0.0811,0.25553 -0.32511,1.0822 -0.54223,1.83705 -0.21712,0.75485 -0.57467,1.99753 -0.79456,2.76152 -0.47502,1.65043 -0.1837,2.05052 1.49308,2.05052 0.54568,0 1.08815,-0.14883 1.20547,-0.33073 z"
         id="path2892"
         sodipodi:nodetypes="cssscsssccssscscsssss" />
      <path
         style="fill:#7b5700;stroke-width:0.264583"
         d="m 108.66709,143.39521 c -0.39032,-0.20771 -3.58467,-0.26218 -3.58467,-0.26218 -3.89106,0 -3.94156,0.14573 -3.94156,1.84809 0,1.29701 0.51649,1.69232 1.56459,1.6607 0.54857,-0.0165 0.82969,-0.10237 0.71059,0.28971 -1.68785,5.55642 -1.95735,6.3254 -0.62846,6.76836 2.06515,0.68839 2.50702,-0.22707 2.84486,-0.35547 0.72938,-0.30732 3.40545,-8.00921 3.21321,-8.95524 m -0.47846,0.0509 c -0.74221,2.47956 -2.00415,9.50558 -4.84431,8.67117 -1.27011,-0.38053 -1.29923,-0.60071 -0.43178,-3.26446 1.11947,-3.43764 1.13143,-3.6462 0.20908,-3.6462 -1.34082,0 -1.63017,-0.23315 -1.63017,-1.31353 v -0.99233 l 1.62632,-0.16999 c 3.48075,-0.36381 4.74331,-0.20817 5.06,0.62377"
         id="path2890"
         sodipodi:nodetypes="csssssccccssscsc" />
    </g>
    <g
       id="g2774"
       transform="translate(13.894013,-33.053064)"
       inkscape:label="6">
      <path
         style="fill:#f8f5e8;stroke-width:0.264583"
         d="m 101.01024,148.92059 0.37867,-3.54583 2.75809,-1.86977 3.97285,0.13714 0.83212,1.893 -0.40278,5.19653 -3.11539,2.16966 -2.89467,-0.34952 z"
         id="path2788"
         sodipodi:nodetypes="ccccccccc" />
      <path
         style="fill:#fbe658;stroke-width:0.264583"
         d="m 101.29471,145.00011 c 1.09175,-1.7491 6.77278,-2.1265 7.57801,-0.10006 0.38766,0.97559 0.36602,1.73597 -0.005,1.73597 -0.45535,0 -0.40149,0.90048 -0.002,1.34176 1.11139,2.29901 -1.58432,6.11265 -5.89487,5.17291 -2.92822,-1.03821 -2.69742,-6.3391 -1.67597,-8.15058 z m 3.81489,6.18233 c 0,-0.43928 -0.80815,-1.2776 -1.23163,-1.2776 -0.44162,0 -0.46703,0.84133 -0.0384,1.27 0.4071,0.4071 1.27,0.41226 1.27,0.008 z m 3.43959,-2.02809 c 0,-1.27949 -1.22348,-2.43381 -1.72299,-1.62559 -0.24823,0.40165 0.37427,2.07077 0.87729,2.35227 0.59929,0.33538 0.8457,0.12364 0.8457,-0.72668 z m -4.10105,-2.44294 c 0,-0.39515 -0.17524,-0.66953 -0.46302,-0.72495 -0.47032,-0.0906 -0.68663,0.96073 -0.28112,1.36625 0.3419,0.3419 0.74414,-0.005 0.74414,-0.6413 z m 4.08757,-1.48329 c 0,-0.36008 -1.13426,-1.32528 -1.7722,-1.47963 -0.9946,-0.24065 -0.93234,0.26739 0.12046,0.98279 1.00026,0.67969 1.65174,0.90192 1.65174,0.49684 z"
         id="path2786"
         sodipodi:nodetypes="ssscccssssssssssssssssss" />
      <path
         style="fill:#f3cc12;stroke-width:0.264583"
         d="m 102.87849,153.25867 c -3.087795,-0.97955 -3.230604,-8.42936 -0.22793,-9.68396 2.38748,-0.99755 6.2702,-0.24029 6.2702,1.24224 0.16186,1.45274 -0.71506,1.86387 0.0463,3.43616 0.56204,3.15832 -2.45974,6.15675 -6.08852,5.00556 z m 2.48618,-1.83248 c -0.0181,-0.62905 -1.22857,-1.84104 -1.74111,-1.74329 -0.73914,0.14098 -0.77434,1.1496 -0.0576,1.6516 0.71771,0.5027 1.81218,0.55849 1.79875,0.0917 z m 3.18452,-0.69453 c 0,-0.27285 0.0701,-0.84649 0.15573,-1.27476 0.27707,-1.38537 -1.6856,-3.03716 -3.00651,-2.53028 -0.28078,0.10775 -0.20749,0.2937 0.30187,0.76601 0.37012,0.34319 0.75326,1.07019 0.85186,1.6164 0.31588,1.74985 1.69705,2.90768 1.69705,1.42263 z m -4.20613,-3.00604 c 0.35787,-0.69264 0.28504,-1.71462 -0.13363,-1.87528 -0.58837,-0.22578 -0.68849,0.0608 -0.66942,1.91578 0.015,1.46015 0.0622,1.63487 0.29179,1.08039 0.15064,-0.36381 0.3807,-0.86821 0.51126,-1.12089 z m 4.20613,-2.29706 c 0,-1.32075 -3.18823,-2.658 -3.83646,-1.60914 -0.0899,0.14552 0.0519,0.26662 0.31511,0.2691 0.26325,0.002 1.07395,0.35764 1.80155,0.78924 1.41208,0.83761 1.7198,0.93616 1.7198,0.5508 z"
         id="path2784"
         sodipodi:nodetypes="csccscssccssssssssssssscsss" />
      <path
         style="fill:#d1aa04;stroke-width:0.264583"
         d="m 102.7834,153.2425 c -2.989861,-1.2469 -2.969876,-8.42239 0.0328,-9.67699 2.38748,-0.99755 5.62675,0.31595 6.10456,1.25144 0.28646,1.4477 -0.45725,1.69092 0.30406,3.26321 0.90033,3.38164 -2.97934,6.60617 -6.44141,5.16234 z m 5.68042,-2.17711 c 1.09607,-2.56699 -1.04787,-5.05055 -3.42036,-3.96218 -0.37601,0.17249 -0.46302,0.0845 -0.46302,-0.46805 0,-0.41676 -0.21169,-0.79374 -0.54625,-0.9728 -0.4552,-0.24361 -0.49011,-0.35999 -0.20942,-0.6982 0.47363,-0.57068 2.12013,-0.30432 3.41475,0.55242 1.3497,0.89319 1.69227,0.66609 1.14531,-0.75926 -1.05281,-2.74359 -6.76421,-1.03388 -6.17633,1.8489 0.17708,0.86835 0.40006,2.25732 0.4955,3.08658 0.0954,0.82926 0.22926,1.55584 0.29738,1.61462 1.21365,1.04734 4.98321,0.88032 5.46244,-0.24203 z m -3.58827,-0.52037 c -0.64788,-0.82365 -0.66179,-0.92038 -0.25928,-1.8038 0.71768,-1.57513 1.90444,-0.9055 1.93144,1.08982 0.0212,1.56409 -0.74585,1.89159 -1.67216,0.71398 z"
         id="path2782"
         sodipodi:nodetypes="ssccsssssssssccssscs" />
      <path
         style="fill:#b89704;stroke-width:0.264583"
         d="m 102.65,153.09136 c -2.783471,-1.65719 -1.89416,-8.43573 0.0649,-9.56316 2.24265,-1.29062 6.01007,0.43484 6.12941,1.58696 0.22222,4.36254 1.79884,9.90803 -6.19435,7.9762 z m 5.24099,-0.97862 c 1.47691,-1.47691 1.10701,-4.38444 -0.65041,-5.11239 -0.76453,-0.31668 -1.18048,-0.29493 -2.16771,0.11337 -0.35214,0.14563 -0.45287,-0.0227 -0.53616,-0.89603 -0.0917,-0.9619 -0.0413,-1.07535 0.47812,-1.07535 0.85744,0 1.41769,0.27258 1.41769,0.68977 0,0.20271 0.22839,0.36856 0.50753,0.36856 0.27914,0 0.69485,0.0719 0.92381,0.15975 0.51904,0.19917 0.80081,-0.45735 0.57774,-1.34615 -0.25209,-1.0044 -1.55692,-1.55052 -3.31513,-1.38749 -2.76957,0.2568 -3.46191,0.92463 -3.60421,3.47659 -0.0628,1.12662 -0.0337,1.33247 0.0968,0.6848 0.27891,-1.38377 0.81752,0.10068 0.98973,2.72775 0.12632,1.92701 3.83181,3.04719 5.28218,1.59682 z m -2.99305,-1.46707 c -0.39007,-0.39006 -0.40797,-1.13575 -0.0436,-1.81656 0.47287,-0.88356 0.78444,-0.56138 0.78444,0.81115 0,1.34397 -0.17066,1.57558 -0.74083,1.00541 z m 1.04719,-1.00541 c 0,-0.36381 0.06,-0.51263 0.13345,-0.33073 0.0734,0.1819 0.0734,0.47955 0,0.66146 -0.0734,0.1819 -0.13345,0.0331 -0.13345,-0.33073 z"
         id="path2780"
         sodipodi:nodetypes="ssccsscssssssscssssscssscsscs" />
      <path
         style="fill:#8c6609;stroke-width:0.264583"
         d="m 103.89375,153.36679 c -2.39596,-0.0711 -3.43219,-1.50067 -3.22978,-5.52487 0.19743,-3.92536 0.96973,-4.68776 4.7385,-4.67783 3.15565,0.008 4.31397,1.07627 3.65594,3.37072 -0.15835,0.55213 -0.11009,1.01066 0.16169,1.53623 0.76105,1.47172 -0.16123,4.08046 -1.46921,4.7317 -1.65192,0.82252 -2.19745,0.61329 -3.85714,0.56405 z m 3.32884,-0.75038 c 1.9013,-0.9536 2.24516,-3.7521 0.6463,-5.26002 l -0.94488,-0.89113 h 0.81259 c 1.07028,0 1.16141,-1.26274 0.16315,-2.26099 -1.28303,-1.28303 -5.11765,-0.7173 -6.05509,0.89333 -2.041975,3.50838 -0.28634,7.98142 3.13265,7.98142 0.7314,0 1.73534,-0.20685 2.24528,-0.46261 z m -2.52973,-2.56424 c -0.17127,-0.68239 0.0164,-1.20566 0.43236,-1.20566 0.13693,0 0.24897,0.41672 0.24897,0.92604 0,1.0611 -0.43988,1.24163 -0.68133,0.27962 z m -0.11242,-3.58691 c 0,-0.61012 0.0974,-0.63727 0.84689,-0.23615 0.43915,0.23503 0.47498,0.33896 0.18104,0.52512 -0.61089,0.38688 -1.02793,0.26964 -1.02793,-0.28897 z"
         id="path2778"
         sodipodi:nodetypes="sscsssssscsssssssssssss" />
      <path
         style="fill:#7a5600;stroke-width:0.264583"
         d="m 105.27779,143.55774 c -3.30937,0.43476 -4.13806,1.74942 -4.13571,4.81725 0.003,3.28435 2.11977,4.80554 4.09294,4.95396 -0.86722,0.51001 -2.64709,0.38852 -3.65797,-0.77953 h 2.2e-4 c -2.294508,-3.33315 -1.45411,-9.14072 2.39417,-9.70561 0.27226,-0.04 0.82766,-0.0661 2.51231,0.0323 1.93852,0.11321 3.65191,2.23557 2.68369,3.64413 -0.21555,0.31358 -0.25415,0.6816 0.0839,1.04688 1.85717,2.00677 -0.31412,6.3961 -4.05071,6.15053 -2.26723,0.03 -2.45318,-0.44321 -1.68148,-0.58376 0.37604,0.0193 2.16354,-0.0607 2.67287,-0.17614 0.58041,-0.22069 3.68354,-1.84616 2.79779,-3.80499 -0.14552,-0.28906 -0.51741,-1.14786 -0.65995,-1.43215 -0.16917,-0.3374 -0.32798,-1.07239 -0.15881,-1.17694 1.27363,-0.78715 0.12335,-2.75327 -2.1729,-2.96853 m -1.15316,6.19741 c 0,-0.39442 0.11393,-0.62228 0.26458,-0.52917 0.14552,0.0899 0.26459,0.32806 0.26459,0.52917 0,0.2011 -0.11907,0.43923 -0.26459,0.52916 -0.15065,0.0931 -0.26458,-0.13474 -0.26458,-0.52916 z m 0,-3.18331 c 0,-0.42793 0.41344,-0.52528 0.64432,-0.15171 0.0805,0.13027 -0.0315,0.30513 -0.24896,0.38857 -0.24016,0.0922 -0.39536,-8.3e-4 -0.39536,-0.23686 z"
         id="path2776"
         sodipodi:nodetypes="ccccsssssccccsscsssssscss" />
    </g>
    <g
       id="g2660"
       transform="translate(4.633603,-33.053064)"
       inkscape:label="5">
      <path
         style="fill:#f8f6ea;stroke-width:0.264583"
         d="m 101.80228,148.9788 -0.13226,-5.12185 3.15295,-0.54514 2.98777,0.41115 c 0,0 -0.0429,3.20898 0.74806,4.59798 0.72726,1.27719 -1.60602,3.83746 -1.60602,3.83746 l -2.10776,1.71519 -2.78845,-1.86758 z"
         id="path2674"
         sodipodi:nodetypes="ccccccccc" />
      <path
         style="fill:#fcea56;stroke-width:0.264583"
         d="m 102.30237,152.98626 c -1.23277,-0.75167 -2.04374,-3.24584 -1.17282,-3.24584 0.15256,0 0.25235,-0.95297 0.0271,-2.79912 -0.39704,-3.25416 -0.31378,-3.68086 3.51158,-3.68086 3.62431,0 4.22809,1.51845 3.50727,2.55406 -0.34169,0.4909 -0.0609,1.18077 0.24827,1.95335 1.66487,4.16094 -2.3793,7.50011 -6.1214,5.21841 z m 2.27806,-2.27267 c 0,-0.36003 -1.09412,-1.07333 -1.64637,-1.07333 -0.60459,0 -0.6094,0.68643 -0.007,1.03714 0.58678,0.34177 1.65364,0.36512 1.65364,0.0362 z m 3.38603,-1.90195 c 0.088,-0.7329 -0.83262,-2.0818 -1.42086,-2.0818 -0.47757,0 -0.47881,0.48755 -0.004,1.62133 0.62379,1.48993 1.27603,1.70069 1.42499,0.46047 z m -3.38603,-1.69323 c 0,-0.22285 -0.18659,-0.47678 -0.41466,-0.5643 -0.49761,-0.19095 -1.04025,0.27727 -0.79021,0.68184 0.26953,0.43612 1.20487,0.34487 1.20487,-0.11754 z m 2.5508,-2.76982 c 0.36958,0 0.58412,-0.11539 0.49191,-0.26458 -0.28464,-0.46057 -1.98437,-0.32301 -1.98437,0.1606 0,0.279 0.14388,0.36997 0.41851,0.26458 0.23018,-0.0883 0.71346,-0.1606 1.07395,-0.1606 z"
         id="path2672"
         sodipodi:nodetypes="ssssssscsccccscccsssssssss" />
      <path
         style="fill:#f4ca11;stroke-width:0.264583"
         d="m 102.93257,153.43525 c -1.40682,-0.42404 -2.53199,-2.07931 -1.86319,-3.21353 0.7329,-1.24292 0.14534,-1.9956 0.14806,-3.52357 0.007,-3.70653 -0.34725,-3.34882 3.33005,-3.45788 3.33046,-0.0988 4.34548,1.77928 3.25686,3.04325 -0.16042,0.0991 0.0681,0.62356 0.32814,1.02053 0.19093,3.06961 -0.88705,7.43116 -5.19992,6.1312 z m 1.64786,-2.51739 c 0,-0.53102 -0.84856,-1.2776 -1.45211,-1.2776 -0.72089,0 -0.93535,0.20511 -0.74181,0.70946 0.26841,0.69946 2.19392,1.19809 2.19392,0.56814 z m 2.82722,-0.26539 c 1.25942,-1.18316 0.62131,-3.67871 -1.04128,-4.07232 -0.87308,-0.2067 -0.87955,-0.15483 -0.1739,1.39418 0.4444,0.97552 0.49663,1.34073 0.26459,1.85002 -0.64077,1.40633 -0.13442,1.84744 0.95059,0.82812 z m -2.91912,-3.27103 c 0.15406,-0.40146 -0.57355,-1.44535 -1.00744,-1.44535 -0.12296,0 -0.22357,0.41672 -0.22357,0.92604 0,0.99581 0.90213,1.37638 1.23101,0.51931 z m 2.5393,-2.76639 c 0.89578,-0.002 1.02134,-0.78256 0.13229,-0.82211 -1.87289,-0.0833 -5.12812,0.10207 -5.33652,0.3039 -0.45226,0.438 1.01049,0.78323 2.75683,0.65066 0.94589,-0.0718 2.04722,-0.13141 2.4474,-0.13245 z"
         id="path2670"
         sodipodi:nodetypes="sscsccsssssssssssssscsssc" />
      <path
         style="fill:#d8ae00;stroke-width:0.264583"
         d="m 103.17931,153.32789 c -1.45613,-0.19658 -2.97782,-1.83649 -2.16547,-2.87276 0.78736,-1.00439 0.076,-2.0794 0.0787,-3.60737 0.007,-3.70653 -0.31798,-3.41093 3.35932,-3.51999 3.33046,-0.0988 4.28773,1.20769 3.35246,2.95575 -0.16042,0.0991 0.12584,0.81694 0.38593,1.21391 1.68251,3.4474 -0.4435,6.44707 -4.90753,5.84442 z m 3.58367,-1.74075 c 2.39391,-0.39569 1.66077,-5.12188 -0.79451,-5.12188 -0.85457,0 -1.01021,0.65018 -0.35503,1.48311 0.71993,0.91523 0.69985,1.4934 -0.0835,2.4041 l -0.63799,0.74171 -0.57183,-0.72696 c -0.55645,-0.70741 -2.12093,-1.06444 -2.12093,-0.48402 0,1.43923 1.8919,2.14558 4.5638,1.70394 z m -2.56975,-3.80264 c 0.47121,-0.17916 0.6527,-0.39887 0.54639,-0.66146 -0.0876,-0.21626 -0.22859,-0.56432 -0.31341,-0.77347 -0.14749,-0.36364 1.10907,-1.09462 2.73391,-1.59041 1.94751,-0.59424 0.38175,-1.10601 -3.02171,-0.98765 l -2.4264,0.0844 0.13719,1.50311 c 0.10496,1.15004 0.28994,1.64296 0.7875,2.09843 0.75587,0.69193 0.65344,0.67041 1.55653,0.32706 z"
         id="path2668"
         sodipodi:nodetypes="sscsccssssscssssscssscssssc" />
      <path
         style="fill:#b28e02;stroke-width:0.264583"
         d="m 103.08327,153.25226 c -1.45945,-0.17019 -2.92268,-1.9952 -2.0745,-3.00235 0.63191,-0.75033 0.20595,-2.02379 0.20867,-3.55176 0.007,-3.70653 -0.33861,-3.33023 3.33873,-3.43929 3.33046,-0.0988 4.13978,1.34973 3.24818,3.02466 -0.16042,0.0991 0.068,0.62356 0.32811,1.02053 1.7268,3.95999 -1.2837,6.38732 -5.04919,5.94821 z m 3.86951,-1.09386 c 2.38292,-1.23225 1.25882,-5.96596 -1.33413,-5.61817 -0.7813,0.1048 -1.03822,0.0473 -1.03822,-0.23244 0,-0.26312 0.34147,-0.3717 1.16899,-0.3717 1.69,0 2.00601,-0.18717 2.00601,-1.18809 0,-1.0473 -0.18113,-1.0959 -3.63802,-0.97595 l -2.44739,0.0849 v 1.26721 c 0,3.64773 0.74048,4.71264 2.41569,3.47411 1.15813,-0.85625 1.37252,-0.71953 1.22812,0.78319 -0.16114,1.67703 -0.32659,1.83385 -1.01348,0.96062 -0.63538,-0.80776 -1.82186,-0.94337 -2.48159,-0.28363 -1.40814,1.40814 2.99169,3.20777 5.13402,2.09992 z"
         id="path2666"
         sodipodi:nodetypes="sscsccscssssscssssscc" />
      <path
         style="fill:#8c6809;stroke-width:0.264583"
         d="m 103.12523,153.52273 c -1.97468,-0.7727 -2.3466,-2.17721 -1.95969,-3.59943 0.10964,-0.403 0.3056,-1.4963 0.0519,-3.22515 0.0282,-2.81167 -0.18852,-3.00267 0.45261,-3.34034 0.9647,-0.50809 6.2754,-0.35004 6.62062,0.19703 0.31731,0.50284 0.32534,2.13063 0.013,2.62416 -0.15332,0.24223 -0.42523,0.7373 -0.17118,1.12505 1.39246,3.66379 -1.22139,7.70009 -5.00718,6.21868 z m 3.74303,-0.95257 c 1.6381,-0.99885 1.89452,-4.11005 0.46197,-5.6053 -0.74757,-0.7803 -0.74815,-0.78365 -0.16252,-0.93679 0.32325,-0.0845 0.58935,-0.22911 0.59134,-0.32128 0.002,-0.0922 0.0708,-0.41772 0.15283,-0.72344 0.28015,-1.04359 -0.50058,-1.42888 -2.88732,-1.4249 -3.52486,0.006 -3.386,-0.11513 -3.29758,2.87392 l 0.0753,2.54643 1.08121,0.0792 c 0.73097,0.0536 1.19143,-0.0536 1.42146,-0.33073 0.57236,-0.68965 0.80462,-0.46431 0.80462,0.78065 0,1.37584 -0.0619,1.40819 -1.07067,0.55939 -1.5406,-1.29633 -3.29328,-0.0376 -2.36439,1.69802 0.68124,1.27291 3.66721,1.7356 5.19372,0.80479 z m -1.93505,-6.28129 c 0.097,-0.097 0.25577,-0.097 0.35278,0 0.097,0.097 0.0176,0.17639 -0.17639,0.17639 -0.19403,0 -0.2734,-0.0794 -0.17639,-0.17639 z"
         id="path2664"
         sodipodi:nodetypes="sscssscsscsssccscccsssccssss" />
      <path
         style="fill:#7b5800;stroke-width:0.264583"
         d="m 102.93624,153.51176 c -1.60568,-0.34833 -3.190626,-2.70846 -1.66226,-4.40914 -0.24541,-1.67819 -0.52077,-3.90011 -0.19475,-5.29606 0.27321,-1.16979 6.76382,-1.12358 7.24621,-0.22222 0.3639,0.67995 0.27072,2.06855 0.0447,2.55094 -0.25706,0.54874 -0.31629,0.52849 0.009,1.21442 1.10485,2.32833 0.17281,5.40452 -1.70134,6.06097 -0.61841,0.21661 -1.2373,0.49261 -1.83306,0.46292 -0.68251,-0.034 -1.3147,-0.23297 -1.90874,-0.36183 z m 3.32806,-0.53215 c 2.0027,-0.83678 2.82133,-4.10173 1.46179,-5.8301 -0.51596,-0.65594 -0.52604,-0.74591 -0.13229,-1.181 0.50212,-0.55483 0.55872,-1.64617 0.10872,-2.09617 -0.43401,-0.43401 -5.54558,-0.43401 -5.97959,0 -0.72884,0.72885 -0.18821,5.40399 0.61394,5.30904 0.40925,-0.0484 0.37915,0.008 -0.13769,0.25726 -2.924062,1.41135 0.99396,4.82418 4.06512,3.54097 z m -2.12028,-2.97463 c -0.5368,-0.56204 -0.54306,-0.61866 -0.11146,-1.00925 0.64888,-0.58723 0.74088,-0.53102 0.86455,0.5283 0.13469,1.15374 -0.0176,1.25101 -0.75309,0.48095 z"
         id="path2662"
         sodipodi:nodetypes="scssssssssssssccsssss" />
    </g>
    <g
       id="g2546"
       transform="translate(-4.626817,-33.053064)"
       inkscape:label="4">
      <path
         style="fill:#fbf9f3;stroke-width:0.264583"
         d="m 102.35237,147.12401 1.19093,-3.19263 1.52854,-0.68966 2.54857,0.59741 c 0,0 0.55678,4.68861 1.19336,5.56483 -0.32103,1.40862 -1.8239,2.35294 -1.8239,2.35294 l -3.3141,-0.96251 -2.24283,-0.4707 z"
         id="path2560"
         sodipodi:nodetypes="ccccccccc" />
      <path
         style="fill:#fde757;stroke-width:0.264583"
         d="m 104.79088,153.14171 c -0.40018,-0.29857 -0.83146,-0.58271 -0.83146,-0.78886 0,-0.26782 -0.22143,-0.56946 -1.07224,-0.56946 -2.83548,0 -2.917736,-1.27794 -0.17429,-7.15855 1.46811,-3.14692 5.57458,-0.6428 5.47373,1.78783 -0.0728,1.75559 0.37918,1.97093 0.69883,2.50499 0.46302,0.77362 0.54979,1.94075 -0.26044,2.54479 -0.23146,0.17256 -0.51322,0.8943 -0.61128,1.22172 -0.0981,0.32742 -0.29056,0.41224 -0.49904,0.41224 -0.90163,0.53236 -1.79244,0.68741 -2.72381,0.0453 z m -0.52481,-3.57064 c 0.0514,-0.26695 -0.0732,-0.45998 -0.29683,-0.45998 -0.21198,0 -0.45281,-0.2577 -0.53518,-0.57268 -0.15573,-0.59552 -0.97029,-0.27164 -0.97029,0.38581 0,0.98543 1.62479,1.56857 1.8023,0.64685 z m 4.5477,-0.16709 c 0,-0.31072 -0.77372,-0.60108 -1.08653,-0.40776 -0.13476,0.0833 -0.17652,0.26227 -0.0928,0.39774 0.19455,0.31479 1.17933,0.32316 1.17933,0.01 z m -1.32292,-2.69153 c 0,-2.07661 -0.29688,-2.89303 -1.05202,-2.89303 -0.80621,0 -0.85315,0.42548 -0.14037,1.27257 0.51839,0.61607 0.66323,1.08319 0.66323,2.13907 0,0.74297 0.11906,1.35086 0.26458,1.35086 0.15142,0 0.26458,-0.79954 0.26458,-1.86947 z"
         id="path2558"
         sodipodi:nodetypes="csssssscccssssssssssssssss" />
      <path
         style="fill:#f0c708;stroke-width:0.264583"
         d="m 104.79088,153.14171 c -0.40018,-0.29857 -0.80747,-0.57085 -0.80747,-0.777 0,-0.26782 -0.19072,-0.5568 -1.04172,-0.5568 -2.51383,0 -2.91758,-0.90811 -1.25999,-4.96519 2.21653,-5.42516 6.84353,-4.48209 6.44299,-0.58533 -0.13058,1.27041 0.26528,2.05995 0.39407,2.05995 0.99896,0 1.03331,2.66408 0.0669,3.20489 -0.21168,0.11846 -0.46517,0.76753 -0.55695,1.1332 -0.0918,0.36566 -0.29854,0.44098 -0.51405,0.44098 -0.92458,0.50751 -1.77275,0.70099 -2.72381,0.0453 z m 2.55963,-2.64789 c 0.14109,-0.31207 0.49828,-0.60202 0.79375,-0.64434 0.69357,-0.0993 0.69992,-0.84697 0.008,-0.9478 -0.47435,-0.0691 -0.53366,-0.29644 -0.57256,-2.19443 -0.0496,-2.42174 -0.30649,-2.88783 -1.59151,-2.88783 -0.88612,0 -0.89844,0.0146 -0.49676,0.58804 0.23157,0.33062 0.41187,1.13482 0.41187,1.83708 0,0.98997 0.12171,1.33429 0.58675,1.66002 0.57226,0.40082 0.57533,0.4303 0.12429,1.19384 -0.29875,0.50575 -0.40161,1.02527 -0.29058,1.46764 0.19724,0.78589 0.65324,0.75382 1.0267,-0.0722 z m -2.82567,-0.8855 c 0.049,-0.25848 -0.14795,-0.48874 -0.4957,-0.57968 -0.42676,-0.1116 -0.53985,-0.29268 -0.43446,-0.69567 0.16108,-0.61599 0.0903,-0.65059 -0.58801,-0.28756 -0.72713,0.38915 -0.87949,1.07674 -0.36465,1.64563 0.54209,0.599 1.76387,0.54532 1.88282,-0.0827 z"
         id="path2556"
         sodipodi:nodetypes="cssssssscccsscssssssccssssssss" />
      <path
         style="fill:#d9af01;stroke-width:0.264583"
         d="m 104.79088,153.14171 c -0.40018,-0.29857 -0.839,-0.57583 -0.839,-0.78198 0,-0.26782 -0.16419,-0.52946 -1.0149,-0.52946 -2.51383,0 -2.947652,-1.00673 -1.29006,-5.06381 2.21653,-5.42516 6.41992,-3.25736 6.51581,-0.53864 0.0456,1.29234 0.22724,2.08952 0.35603,2.08952 0.99896,0 1.01272,2.67549 0.0463,3.2163 -0.21168,0.11846 -0.44223,0.76138 -0.53401,1.12705 -0.0918,0.36566 -0.30089,0.43572 -0.5164,0.43572 -0.92458,0.50751 -1.77275,0.70099 -2.72381,0.0453 z m 2.19899,-1.38479 c 0.13723,0 0.36539,-0.30482 0.50704,-0.67738 0.14164,-0.37255 0.37704,-0.60352 0.52311,-0.51324 0.30451,0.1882 0.87414,-1.11108 0.64774,-1.47741 -0.0824,-0.13331 -0.35114,-0.24294 -0.59721,-0.24362 -0.37971,-0.001 -0.4541,-0.32658 -0.49164,-2.15145 -0.0287,-1.39326 -0.16837,-2.27012 -0.39687,-2.49082 -0.54907,-0.53033 -2.86619,-0.60905 -2.86619,-0.0974 0,0.15741 -0.40312,0.78249 -0.89582,1.38907 -1.94256,2.3915 -2.40063,4.67473 -0.93786,4.67473 0.48929,0 2.80963,1.13641 3.28144,1.60712 0.14143,0.14109 0.41906,0.1944 0.61696,0.11846 0.1979,-0.0759 0.47208,-0.13808 0.6093,-0.13808 z m -3.35351,-2.9943 c -0.20727,-0.54014 0.7343,-2.42966 1.21074,-2.42966 0.8432,0 0.52093,2.63133 -0.33431,2.7297 -0.45446,0.0523 -0.78461,-0.0607 -0.87643,-0.30004 z"
         id="path2554"
         sodipodi:nodetypes="ssssssssccscssccsscsscsscsscs" />
      <path
         style="fill:#b29008;stroke-width:0.264583"
         d="m 104.79088,153.14172 c -0.40018,-0.29857 -0.83788,-0.56542 -0.83788,-0.77157 0,-0.26782 -0.20631,-0.51755 -1.05706,-0.51755 -2.51383,0 -2.81239,-1.05342 -1.1548,-5.1105 2.21653,-5.42516 6.74649,-3.91082 6.47752,-0.57749 -0.11219,1.39023 0.17131,2.15273 0.3001,2.15273 0.99896,0 1.00306,2.69179 0.0367,3.2326 -0.21168,0.11846 -0.4186,0.70745 -0.51038,1.07312 -0.0918,0.36566 -0.31486,0.47335 -0.53037,0.47335 -0.92458,0.50752 -1.77275,0.701 -2.72381,0.0453 z m 2.08811,-0.53434 c 0.17279,-0.10987 0.43774,-0.52477 0.58876,-0.92199 0.15102,-0.39722 0.44262,-0.72222 0.64798,-0.72222 0.21804,0 0.42782,-0.35776 0.50421,-0.85989 0.15762,-1.03604 0.0524,-1.25677 -0.5989,-1.25677 -0.41116,0 -0.47427,-0.14841 -0.36567,-0.8599 0.26981,-1.76772 -0.23022,-3.73127 -1.05028,-4.12431 -1.05432,-0.50533 -2.4976,-0.19116 -2.86927,0.62456 -0.1601,0.35139 -0.3778,0.5853 -0.48378,0.5198 -0.19046,-0.11771 -1.7626,3.41479 -2.03342,4.56897 -0.20396,0.86928 0.36561,1.38754 1.52491,1.38754 1.40198,0 2.408,0.42323 2.31198,0.97264 -0.0501,0.28666 0.15946,0.51555 0.58326,0.63705 0.90576,0.25969 0.88692,0.25917 1.24022,0.0345 z m -3.2174,-3.74923 c -0.19813,-0.32058 0.49106,-1.99622 0.93353,-2.26968 0.24203,-0.14958 0.29241,-0.0498 0.18406,0.36458 -0.0821,0.3138 -0.0413,0.57054 0.0906,0.57054 0.34877,0 0.2938,0.89851 -0.0777,1.27 -0.38172,0.38172 -0.91565,0.41222 -1.13051,0.0646 z"
         id="path2552"
         sodipodi:nodetypes="ssssssssccscssssssssssssscscssccs" />
      <path
         style="fill:#8b6809;stroke-width:0.264583"
         d="m 104.79088,153.14172 c -0.35278,-0.10303 -0.65369,-0.29496 -0.7297,-0.58561 -0.11041,-0.42221 -0.30464,-0.72854 -1.19083,-0.72854 -2.42172,0 -2.7992,-1.21895 -1.16266,-5.19579 2.12846,-5.1722 6.72195,-3.68054 6.52537,-0.44358 -0.11485,1.89106 0.13444,2.14924 0.51456,2.36197 0.5794,0.32424 0.40914,2.70738 -0.15154,2.89428 -0.19131,0.0638 -0.53954,0.71251 -0.67305,1.06366 -0.39155,1.02986 -1.63542,1.07074 -3.13215,0.63361 z M 107.5,152.12975 c 0.12887,-0.33895 0.47718,-0.85916 0.77404,-1.15601 0.6925,-0.6925 0.71695,-1.86585 0.0426,-2.0422 -0.42509,-0.11117 -0.51438,-0.45807 -0.61594,-2.39289 -0.13341,-2.54176 -0.42803,-2.98381 -1.98867,-2.98381 -1.66512,0 -2.57483,0.5955 -3.08064,2.01659 -0.25267,0.70988 -0.75093,1.91842 -1.10724,2.68563 -1.09684,2.36171 -0.90773,2.74667 1.45799,2.96791 1.26621,0.11842 1.46321,0.21548 1.59715,0.78689 0.27137,1.15775 2.49132,1.24736 2.92075,0.11789 z m -3.71331,-3.76184 c 0,-0.26323 0.1676,-0.7078 0.37244,-0.98794 0.34372,-0.47006 0.37028,-0.43315 0.34444,0.4786 -0.0281,0.99273 -0.71688,1.48209 -0.71688,0.50934 z"
         id="path2550"
         sodipodi:nodetypes="ssssssssscssssssssccsscs" />
      <path
         style="fill:#7c5800;stroke-width:0.264583"
         d="m 102.19487,146.46528 c -0.32901,0.94588 -0.76029,1.95464 -0.9584,2.24168 -1.05156,1.5236 -0.13037,2.7854 2.0335,2.7854 0.73004,0 1.04588,0.11414 1.04588,0.37798 0,0.62669 0.78246,1.20952 1.6238,1.20952 0.95909,0 1.81579,-0.42195 1.81579,-0.89434 0,-0.19061 0.24436,-0.51957 0.5354,-0.78296 0.29104,-0.26339 0.52812,-0.78191 0.52917,-1.15226 0.001,-0.3793 0.1992,-0.7332 0.39513,-0.53729 0.31018,0.31018 -0.0601,1.77935 -0.4265,1.77935 -0.1278,0 -0.59136,0.37475 -0.61928,0.92604 -0.0817,1.61354 -4.18219,1.44434 -4.18219,0.17648 v -2e-5 c -0.36661,-0.62062 -0.65792,-0.56204 -1.32804,-0.63418 -2.718803,-0.29271 -2.70888,-1.75864 -0.99394,-5.71856 1.13851,-2.62888 1.1373,-2.71614 2.34738,-3.24302 0.4599,-0.20024 1.76241,-0.0468 2.19092,-0.011 0.8791,0.0734 0.82956,0.80309 -0.17391,0.36639 -2.93734,0.43355 -3.07256,0.9196 -3.83471,3.11077 z m 6.08973,0.0589 c 0,1.65276 0.11364,1.74815 0.43245,1.74815 0.21828,0 0.43804,0.57132 0.4912,0.78302 0.0426,0.16948 0.14262,0.91925 0.10464,0.98919 -0.0201,0.037 -0.30322,0.67912 -0.43608,0.66369 -0.0723,-0.008 -0.063,-1.44355 -0.063,-1.57926 v -1e-5 c 0,-0.13571 -0.23813,-0.32233 -0.52917,-0.41471 -0.4591,-0.14571 -0.52964,-0.40206 -0.53278,-1.93605 -0.004,-1.93168 -0.69509,-3.11731 -1.15616,-3.28597 -0.47091,-0.17226 -0.20354,-0.47228 -0.12209,-0.45493 1.01812,0.2168 1.81105,1.20281 1.81105,3.48688 z m -4.47527,2.05778 c -0.008,-0.21828 0.10088,-0.57547 0.24194,-0.79375 0.31256,-0.48365 0.31256,-0.0659 0,0.66146 -0.14993,0.34892 -0.23235,0.39398 -0.24194,0.13229 z"
         id="path2548"
         sodipodi:nodetypes="ssssssssssssssssscssssssssscscsssssss" />
    </g>
    <g
       id="g2432"
       transform="translate(-14.151817,-33.053064)"
       inkscape:label="3">
      <path
         style="fill:#fcfbf8;stroke-width:0.264583"
         d="m 102.99578,147.95887 -1.22087,-2.93044 3.07011,-2.26734 3.12133,1.65425 0.62813,4.23106 -0.95931,3.51942 -2.78702,1.24465 -3.18924,-3.59272 z"
         id="path2446"
         sodipodi:nodetypes="ccccccccc" />
      <path
         style="fill:#ebe3a7;stroke-width:0.264583"
         d="m 101.7553,153.20499 c -1.67206,-1.31798 -0.75075,-2.90757 0.39257,-3.77863 0.9497,-0.72354 0.92062,-2.12201 -0.24909,-2.56339 -1.23237,-0.46517 -1.11943,-2.00031 0.32357,-3.07135 2.35301,-1.74646 7.33307,-0.2069 6.42715,3.32782 -0.17964,0.7009 -0.159,1.35872 -0.055,1.52696 0.17526,2.862 -3.71811,5.58386 -6.8396,4.55859 z m 2.41707,-2.4883 c 0.14692,-0.23771 -0.81794,-1.07643 -1.2383,-1.07643 -0.39355,0 -0.20272,0.7692 0.2573,1.03714 0.58435,0.34035 0.78985,0.34858 0.981,0.0393 z m 4.11223,-1.15414 c 0,-0.41289 -0.82325,-1.24521 -1.23163,-1.24521 -0.49612,0 -0.44795,1.19304 0.069,1.71003 0.44112,0.44112 1.16259,0.15267 1.16259,-0.46482 z m -4.23333,-1.77438 c 0,-0.14552 -0.17859,-0.26458 -0.39688,-0.26458 -0.21828,0 -0.39687,0.11906 -0.39687,0.26458 0,0.14552 0.17859,0.26459 0.39687,0.26459 0.21829,0 0.39688,-0.11907 0.39688,-0.26459 z m 3.96875,-2.10636 c 0,-0.87024 -0.87228,-1.86239 -1.63739,-1.86239 -0.73985,0 -0.5739,0.80323 0.36638,1.77334 1.04207,1.07515 1.27101,1.09119 1.27101,0.0891 z"
         id="path2444"
         sodipodi:nodetypes="cscsscccssssscssccssssssssss" />
      <path
         style="fill:#fbe54f;stroke-width:0.264583"
         d="m 102.31132,153.37214 c -1.90193,-0.86382 -2.23584,-3.18644 -0.62188,-3.93634 1.18484,-0.55051 1.42256,-1.86415 0.27246,-2.51859 -2.797558,-1.59189 1.05823,-4.51603 4.46397,-3.92449 2.20826,0.38355 2.40889,3.47321 2.33498,4.74254 -0.0203,0.34864 -0.24694,0.38805 0,0.635 0.60971,3.15381 -2.52879,6.7826 -6.44953,5.00188 z m 2.00453,-2.79653 c 0,-0.42491 -0.78465,-0.93535 -1.43781,-0.93535 -0.5594,0 -0.5264,0.70214 0.0487,1.03714 0.67864,0.39527 1.38906,0.34321 1.38906,-0.10179 z m 3.91858,-0.98719 c 0.0602,-0.51937 -0.0958,-0.82536 -0.58367,-1.14503 -1.13625,-0.74449 -1.65878,0.18558 -0.79617,1.41713 0.54779,0.78208 1.2743,0.63881 1.37984,-0.2721 z m -3.91858,-1.96085 c 0,-0.20271 -0.21828,-0.36856 -0.48507,-0.36856 -0.66397,0 -0.88922,0.28075 -0.55162,0.68753 0.33993,0.40959 1.03669,0.19522 1.03669,-0.31897 z m 3.70417,-1.86908 c 0,-1.19109 -0.62818,-1.93907 -1.62851,-1.93907 -1.05705,0 -0.9768,0.67428 0.227,1.90708 1.21773,1.24706 1.40151,1.25126 1.40151,0.032 z"
         id="path2442"
         sodipodi:nodetypes="ssssscscscccsssssssssssss" />
      <path
         style="fill:#f3cc12;stroke-width:0.264583"
         d="m 102.31132,153.37214 c -1.90193,-0.86382 -2.224,-3.18966 -0.61004,-3.93956 1.18484,-0.55051 1.21191,-1.80711 0.11617,-2.54898 -2.186794,-1.48058 0.90626,-4.74766 4.60406,-3.86057 2.1736,0.52144 2.5918,3.11964 2.29681,4.63619 -0.0564,0.29023 0.0301,0.43571 0.0709,0.8769 0.28363,3.06413 -2.47358,6.65472 -6.47794,4.83602 z m 5.43381,-1.40052 c 1.17496,-1.26117 0.52049,-4.06775 -0.90114,-3.86436 -0.55968,0.0801 -0.92927,1.18939 -0.50077,1.50307 0.79547,0.58233 0.88172,1.01858 0.33804,1.70976 -0.91957,1.16904 0.0363,1.75445 1.06387,0.65153 z m -3.69601,-1.85714 c -0.61465,-0.49771 -1.97924,-0.64257 -2.23007,-0.23673 -0.26349,0.42635 2.01136,1.37851 2.44119,1.02178 0.31638,-0.26257 0.28361,-0.38444 -0.21112,-0.78505 z m 0.21382,-2.11464 c 0.49036,-0.49037 0.37936,-0.74083 -0.32835,-0.74083 -0.69688,0 -1.07235,0.36822 -0.80936,0.79375 0.22135,0.35815 0.75129,0.3335 1.13771,-0.0529 z m 3.96963,-1.83635 c 0.13279,-1.58638 -0.77973,-2.39974 -2.73998,-2.44224 -1.73411,-0.0376 -2.24669,0.54155 -0.81758,0.92375 0.87676,0.23449 1.75751,0.95887 1.75751,1.44549 0,1.36225 1.68641,1.43064 1.80005,0.073 z"
         id="path2440"
         sodipodi:nodetypes="ssssssscssscssssssssssssss" />
      <path
         style="fill:#d5ab02;stroke-width:0.264583"
         d="m 102.28958,153.21982 c -1.90193,-0.86382 -2.06176,-3.11734 -0.4478,-3.86724 1.18484,-0.55051 1.17574,-1.70791 0.0702,-2.43509 -2.316404,-1.52364 0.81173,-4.78155 4.50953,-3.89446 2.1736,0.52144 2.43281,3.47033 2.36775,4.68382 -0.0158,0.29525 -0.0431,0.23439 -0.0217,0.67695 0.20976,4.33586 -2.47358,6.65472 -6.47794,4.83602 z m 5.34559,-1.054 c 0.59639,-0.59638 0.82629,-1.57289 0.6569,-2.79015 -0.0989,-0.71067 -0.86623,-1.32291 -1.65802,-1.32291 -0.50584,0 -0.73419,-0.11481 -0.65781,-0.33073 0.0695,-0.19655 0.47286,-0.30095 0.99414,-0.25733 1.42868,0.11954 1.85827,-1.66265 0.71891,-2.98243 -1.49495,-1.73168 -7.02019,-0.37976 -5.89417,1.44218 0.31894,0.51606 0.86794,0.27886 1.19782,-0.51753 0.37269,-0.89976 0.32433,-0.88443 1.63843,-0.51945 1.83771,0.5104 1.37171,2.37154 -0.5938,2.37154 -0.41185,0 -0.82563,0.12427 -0.9195,0.27617 -0.27607,0.44668 0.3569,0.98237 1.01264,0.85702 0.95005,-0.18161 1.89409,0.72815 1.67235,1.61162 -0.25169,1.00283 -0.78422,1.10912 -1.57832,0.31502 -0.76213,-0.76213 -1.90005,-0.88987 -2.70217,-0.30334 -0.74669,0.54599 -0.67425,0.58903 3.52089,2.092 0.47294,0.16944 0.85989,0.398 0.85989,0.50791 0,0.44879 1.12568,0.15656 1.73182,-0.44959 z"
         id="path2438"
         sodipodi:nodetypes="ssssssssssssssssscssssssss" />
      <path
         style="fill:#8b6508;stroke-width:0.264583"
         d="m 102.31132,153.37214 c -1.96302,-0.89157 -2.320627,-3.23112 -0.62096,-4.06252 1.19623,-0.58514 1.15212,-1.62092 -0.0667,-2.32041 -1.2459,-1.00108 -0.53714,-3.32915 1.90822,-3.91579 3.18021,-0.76291 5.64153,0.69742 5.35723,3.22315 -0.18166,1.61387 -0.17539,1.69232 0.009,3.72971 0.28472,3.14216 -3.13608,4.91321 -6.58702,3.34586 z m 5.49672,-1.32324 c 0.88518,-0.99069 0.98142,-2.2964 0.23885,-3.24043 -0.43906,-0.55818 -0.45572,-0.70228 -0.13229,-1.14459 0.63376,-0.86673 0.47135,-2.59867 -0.31277,-3.33532 -1.60617,-1.50891 -5.93181,-0.58622 -5.93181,1.2653 0,1.02101 1.08489,1.25293 2.56184,0.54766 0.3176,-0.15166 0.7775,-0.19898 1.02198,-0.10516 0.66222,0.25411 0.0212,0.90305 -1.09979,1.11335 -1.51149,0.28356 -1.40685,1.74025 0.14735,2.05109 0.87621,0.17525 1.31979,0.82746 0.8692,1.27804 -0.18873,0.18874 -0.51597,0.0948 -1.05292,-0.30216 -1.58059,-1.16858 -3.39436,-0.33112 -2.73427,1.26248 0.77854,1.87956 4.93738,2.27426 6.42463,0.60974 z"
         id="path2436"
         sodipodi:nodetypes="cscsscccsssssssssscss" />
      <path
         style="fill:#7a5700;stroke-width:0.264583"
         d="m 102.68084,153.72116 c -2.29722,-0.50659 -2.827211,-3.94593 -0.57523,-4.51114 0.54062,-0.13568 0.63405,-0.28243 0.50562,-0.79414 -0.24936,-0.99353 0.26173,-0.72933 0.57713,0.29833 0.27832,0.90685 0.26872,0.92605 -0.46313,0.92605 -2.20929,0 -2.21815,2.38764 -0.0121,3.27032 3.32342,1.32976 6.08855,-0.22233 5.72386,-3.21286 -0.21865,-1.79298 -0.21873,-1.70858 0.003,-3.28598 0.38345,-2.72575 -3.82828,-4.17152 -6.19292,-2.12584 -1.68639,1.45892 -0.19784,3.10361 1.93107,2.13362 0.5018,-0.22864 0.75891,-0.2325 0.97676,-0.0147 0.21785,0.21785 0.0941,0.33932 -0.4702,0.46149 -0.42123,0.0912 -1.1589,0.24523 -1.43596,0.35247 -1.01973,0.39471 -2.27438,-0.48634 -2.27438,-1.59715 0,-1.14238 1.32669,-2.47523 2.19122,-2.6433 4.32084,-0.83998 5.9577,0.6876 5.78478,3.22229 -0.19024,1.49334 -0.18755,2.16317 0.0156,3.89296 0.21395,1.82162 -0.48726,2.86342 -2.2964,3.55069 -1.9255,0.73148 -3.13974,0.26412 -3.98872,0.0769 z m 1.60969,-3.71455 c -0.30688,-0.36976 -0.28745,-0.41435 0.14411,-0.33072 0.27435,0.0532 0.54838,0.24549 0.60894,0.42739 0.15715,0.47199 -0.33337,0.40902 -0.75305,-0.0967 z"
         id="path2434"
         sodipodi:nodetypes="ssssssscsscsssscsssccscc" />
    </g>
    <g
       id="g2010"
       transform="translate(-30.034207,-32.909254)"
       inkscape:label="2">
      <path
         style="display:inline;fill:#f4f0e0;stroke-width:0.264583"
         d="m 107.60208,151.57073 c 0.0702,-2.13835 1.545,-4.06961 1.32791,-7.61296 0.95935,-1.44245 2.50565,-0.91114 2.50565,-0.91114 l 2.92829,0.99365 0.71532,2.77103 -2.24783,3.21041 2.42628,0.76135 -1.0298,1.89493 z"
         id="path2024"
         sodipodi:nodetypes="ccccccccc" />
      <path
         style="display:inline;fill:#fce854;stroke-width:0.264583"
         d="m 107.43232,152.00021 c -0.32017,-0.76037 0.12849,-1.25292 0.50411,-3.0721 0.76103,-1.4313 1.08236,-1.61551 0.68161,-1.61551 -1.08921,0 -1.67824,-1.71717 -0.72021,-2.9732 1.94369,-2.54832 6.47598,-2.13094 7.24775,0.64816 0.49016,1.76505 -0.0752,3.64857 -1.05557,4.19722 -0.37409,0.20935 -0.17966,0.52273 0.39845,0.83213 1.1132,0.59576 1.15253,1.74062 0.32192,2.67625 -0.67068,0.75549 -6.62377,0.63314 -7.40316,-0.0298 z m 7.34197,-0.91626 c 0,-0.23627 -0.29444,-0.43076 -0.72761,-0.4806 -0.59249,-0.0682 -0.7276,0.0211 -0.7276,0.4806 0,0.45952 0.13511,0.54877 0.7276,0.48059 0.43317,-0.0498 0.72761,-0.24432 0.72761,-0.48059 z m -6.21771,-0.89931 c 0,-0.14796 0.43875,-0.71833 0.975,-1.26749 1.06429,-1.08994 1.06482,-1.43166 0.002,-1.02742 -0.87822,0.3339 -1.49328,1.28148 -1.66875,2.57092 -0.13071,0.96048 -0.11452,0.99012 0.27667,0.50658 0.22853,-0.28247 0.41551,-0.63464 0.41551,-0.78259 z m 6.08542,-4.5099 c 0,-1.27233 -1.05837,-2.07852 -2.90396,-2.21201 -1.78224,-0.12892 -2.28401,0.46561 -0.62629,0.74205 0.47834,0.0798 1.13745,0.52624 1.66003,1.12448 1.01701,1.16426 1.87022,1.32187 1.87022,0.34548 z"
         id="path2022"
         sodipodi:nodetypes="ccssssssccssscscscssccsscss" />
      <path
         style="display:inline;fill:#f5cd13;stroke-width:0.264583"
         d="m 109.91556,153.26786 c -3.16734,-0.12827 -3.55492,-1.38575 -1.94282,-4.47863 0.67413,-1.29335 0.75501,-1.6253 0.2732,-1.6253 -1.33015,0 -1.15308,-2.73575 0.36581,-3.84544 4.01578,-2.93388 8.38614,3.27516 5.58519,5.76654 -0.39946,0.35531 -0.36192,0.65704 -0.2164,0.62656 1.12394,-0.23536 1.58136,0.73546 1.25581,2.21769 -0.21125,0.9618 -0.51785,1.55036 -1.96602,1.48206 -0.62803,-0.0296 -2.13768,-0.0942 -3.35477,-0.14348 z m 4.93836,-1.96762 c 0.12315,-0.64813 -0.73772,-0.99563 -2.03533,-0.82158 -1.17522,0.15763 -1.70713,0.74194 -1.05942,1.16379 0.65123,0.42415 2.99845,0.16459 3.09475,-0.34221 z m -5.15436,-1.62108 c 1.10887,-1.93027 1.10602,-2.27654 -0.0155,-1.88213 -0.95212,0.33485 -1.92125,1.82219 -1.92125,2.94857 0,1.41884 0.74455,1.00886 1.93673,-1.06644 z m 4.41327,-2.29938 c 1.43935,-1.43935 0.19261,-3.74874 -2.21903,-4.11038 -1.39944,-0.20986 -3.14522,0.48099 -3.29798,1.30509 -0.0953,0.51416 0.52623,0.51847 2.24169,0.0155 0.92831,-0.27216 2.53176,1.30037 2.20426,2.16175 -0.48841,1.28463 0.0807,1.61833 1.07106,0.628 z"
         id="path2020"
         sodipodi:nodetypes="ssssscsssssssssssscsssscc" />
      <path
         style="display:inline;fill:#d3a902;stroke-width:0.264583"
         d="m 109.91556,153.26786 c -3.16734,-0.12827 -3.58006,-1.35101 -1.96796,-4.44389 0.67413,-1.29335 0.69627,-1.61725 0.21446,-1.61725 -1.33015,0 -1.0692,-2.77854 0.44969,-3.88823 4.01578,-2.93388 8.18824,3.09663 5.59712,5.75099 -0.37345,0.38255 -0.37385,0.67259 -0.22833,0.64211 0.8592,0.12976 1.58004,0.81016 1.25449,2.29239 -0.21125,0.9618 -0.4986,1.3315 -1.94677,1.2632 -0.62803,-0.0296 -2.15561,0.05 -3.3727,6.8e-4 z m 4.8927,-1.56362 c 0.22592,-0.90013 -0.47833,-1.46724 -1.60862,-1.29538 -3.11009,0.47289 -3.32014,0.46734 -3.32014,-0.0877 0,-1.03247 1.07955,-1.85801 2.89279,-2.2121 1.86953,-0.36509 2.29218,-0.932 1.95431,-2.62135 -0.59964,-2.99821 -5.9975,-3.00541 -6.59683,-0.009 -0.20071,1.00357 0.32631,1.15532 1.08827,0.31337 0.55031,-0.60809 2.02915,-0.71594 2.47361,-0.18041 0.43761,0.52729 -0.34016,1.45823 -1.70824,2.04466 -2.06858,0.88669 -3.25311,4.16819 -1.40678,3.8972 0.44759,-0.0657 1.54891,0.0909 2.44739,0.348 2.51861,0.72067 3.56754,0.66593 3.78424,-0.19749 z"
         id="path2018"
         sodipodi:nodetypes="ssssscssscsssssssssccc" />
      <path
         style="display:inline;fill:#b28f0a;stroke-width:0.264583"
         d="m 110.0725,153.12902 c -3.16734,-0.12827 -3.61616,-1.25515 -2.00406,-4.34803 0.67413,-1.29335 0.76524,-1.42552 0.28345,-1.42552 -1.33015,0 -1.25901,-2.92729 0.25988,-4.03698 4.01578,-2.93388 8.42713,2.90411 5.63166,5.87301 -0.36649,0.38923 -0.62706,0.59807 -0.48154,0.56759 1.04894,0.13465 1.86544,0.88717 1.53989,2.3694 -0.21125,0.9618 -0.57573,1.23417 -2.0239,1.16587 -0.62803,-0.0296 -1.98827,-0.11606 -3.20536,-0.16534 z m 0.47056,-0.72138 c 1.95603,0.74368 4.36352,0.21037 4.36352,-0.96661 0,-0.86901 -0.62718,-1.08928 -2.74414,-0.96379 l -1.88607,0.11181 0.73182,-0.66954 c 0.40251,-0.36825 1.18727,-0.79218 1.74393,-0.94207 3.22196,-0.86759 2.59685,-5.18993 -0.8248,-5.70304 -2.13242,-0.31977 -4.04544,1.02039 -3.85299,2.6992 0.1101,0.96041 1.89929,0.95774 2.65078,-0.004 0.3456,-0.44228 0.5209,-0.50233 0.76273,-0.26131 0.51152,0.5098 0.089,1.07768 -1.34087,1.80226 -1.85541,0.9402 -3.48403,4.36709 -2.07546,4.36709 0.16977,0 0.22557,0.0831 0.12399,0.18468 0.79057,0.24303 1.76489,0.1285 2.34756,0.34532 z"
         id="path2016"
         sodipodi:nodetypes="csssscsssccscssssssssscc" />
      <path
         style="display:inline;fill:#8b680d;stroke-width:0.264583"
         d="m 107.49825,152.83286 c 0,-0.21004 -0.11741,-0.42159 -0.26091,-0.47009 -0.3711,-0.12544 0.368,-3.1791 0.90122,-3.9929 0.4044,-0.6172 0.79955,-0.78278 -0.17493,-1.2786 -2.62284,-1.33449 2.14644,-5.61201 5.71806,-3.93315 1.98976,0.9353 2.27359,4.23445 0.69022,5.72611 -0.78892,0.74323 -0.52303,0.74581 0.0693,0.88799 0.84013,0.20167 1.04046,1.1634 0.68276,2.22626 l -0.28556,0.84851 -3.45403,0.29453 c -3.23285,0.27567 -3.88609,0.0101 -3.88609,-0.30868 z m 6.72965,-0.15486 c 2.0848,-0.79265 0.56241,-2.57107 -1.9909,-2.32573 -1.40851,0.13534 -1.66679,-0.23287 -0.50752,-0.72353 3.03518,-1.28464 3.61033,-2.14087 2.94029,-4.37726 -0.77324,-2.58085 -5.49632,-2.85227 -6.53125,-0.37534 -0.78514,1.8791 1.74005,3.1628 2.58287,1.31301 0.32191,-0.7065 0.60923,-0.83158 0.88506,-0.38528 0.25281,0.40905 -0.35143,1.01075 -1.71033,1.70313 -4.92457,2.50913 -0.99739,7.19714 4.33178,5.171 z"
         id="path2014"
         sodipodi:nodetypes="cssssssscsccsssssssss" />
      <path
         style="display:inline;fill:#7b5700;stroke-width:0.264583"
         d="m 106.7496,151.40288 c 0.0737,-1.23934 0.65517,-2.00587 0.79386,-1.97437 0.46106,0.10473 -0.14541,1.08023 -0.17771,1.72232 -0.0159,0.31589 0.29129,1.09706 0.3699,1.22112 0.12613,0.19906 0.84423,0.54979 1.0433,0.67591 0.26665,0.16892 0.86678,0.88509 -0.77426,0.30386 -0.41793,-0.14803 -1.28139,-1.50625 -1.25509,-1.94884 z m 5.43287,1.55453 c 2.46426,-0.049 2.79764,-0.38192 2.67724,-1.64138 0,0 0.0428,-0.44369 -0.16019,-0.63303 -0.47091,-0.43917 -1.90959,-0.40095 -1.90959,-0.40095 l -1.98437,-0.14043 0.98369,-0.45488 c 0.54103,-0.25018 1.09744,-0.45488 1.23647,-0.45488 1.50463,0 2.50891,-3.21895 1.46794,-4.70514 -0.86763,-1.23872 -3.26833,-1.77826 -4.99367,-1.12228 -1.47968,0.56257 -2.28386,3.2172 -1.02875,3.39591 0.94543,0.13462 1.2831,0.75079 0.60912,1.11149 -0.31281,0.16741 -0.79413,0.80079 -1.06961,1.40752 -0.43807,0.96484 -0.50159,1.01639 -0.50667,0.41121 -0.003,-0.38056 -0.81912,0.79838 0.52335,-1.36465 0.55885,-0.90045 0.65521,-0.89146 0,-1.0628 -1.52567,-0.39898 -0.82061,-3.57272 1.2765,-4.49365 1.29288,-0.63854 2.81783,-0.50727 3.9381,-0.0129 2.38104,1.13702 3.01432,4.42998 1.38532,6.13934 -0.65538,0.56319 -0.73558,0.74363 -0.28603,0.69973 0.87125,-0.0851 1.09445,0.61716 1.09445,1.80161 0,1.6205 -0.55514,2.10652 -3.32049,2.05482 l -3.08419,0.0895 -0.30744,-0.55538 z m -1.83268,-5.98951 c 0.32342,-0.22653 0.58804,-0.58372 0.58804,-0.79375 0,-0.21003 0.17859,-0.38187 0.39688,-0.38187 0.21828,0 0.39687,0.11042 0.39687,0.24538 0,0.30838 -1.29557,1.34212 -1.68205,1.34212 -0.15828,0 -0.0232,-0.18535 0.30026,-0.41188 z"
         id="path2012"
         sodipodi:nodetypes="ssssssssssccssssssscsscccsscccsssssss" />
    </g>
    <g
       id="g2318"
       transform="translate(-31.614307,-33.053064)"
       inkscape:label="1">
      <path
         style="fill:#faf9f3;stroke-width:0.264583"
         d="m 106.37383,151.14412 -3.08001,-6.39829 1.35269,-1.41764 2.64971,1.21508 c 0.50225,5.70603 -0.20614,7.54438 -0.92239,6.60085 z"
         id="path2332"
         sodipodi:nodetypes="ccccc" />
      <path
         style="fill:#fde74f;stroke-width:0.264583"
         d="m 104.20584,153.08941 c -0.5377,-0.41797 -0.63926,-0.35035 -0.70633,-3.1097 -0.0674,-2.77261 -0.11147,-3.42294 -0.59096,-3.4929 -1.85686,-0.27092 -1.37982,-2.39081 0.65079,-2.90046 1.53005,-0.58302 1.08717,-0.25816 2.9381,-0.15148 l 0.88975,0.4488 0.57613,4.05798 c -0.35849,4.63516 -1.46664,3.95863 -3.75748,5.14776 z m 3.02043,-5.54692 c 0,-2.27588 -0.0885,-2.98004 -0.41578,-3.30729 -0.45732,-0.45733 -2.49464,-0.5808 -2.49464,-0.15119 0,0.14552 0.17585,0.26458 0.39078,0.26458 0.5402,0 1.12412,0.98658 1.33108,2.24896 0.22874,1.39534 0.90555,3.83646 1.06366,3.83646 0.0687,0 0.1249,-1.30119 0.1249,-2.89152 z"
         id="path2330"
         sodipodi:nodetypes="csscccccscsssss" />
      <path
         style="fill:#f4cc0e;stroke-width:0.264583"
         d="m 104.20584,153.08941 c -0.95156,-0.3585 -0.58674,0.2252 -0.73016,-3.12268 -0.12662,-2.95559 -0.15173,-3.41632 -0.72207,-3.49731 -1.57327,-0.42583 -0.24128,-3.58836 2.98686,-3.3753 2.3242,0.1534 2.41885,7.27003 1.63223,9.64448 -0.29818,0.90009 -2.37118,0.65059 -3.16686,0.35081 z m 3.11825,-2.72155 c 0.78232,-2.91924 0.005,-6.39307 -1.48016,-6.61711 -1.95793,-0.29531 -3.36842,0.78226 -1.92496,1.4706 0.65613,0.31288 0.926,0.61636 0.92588,1.04119 -4.3e-4,1.52246 2.1965,5.16033 2.47924,4.10532 z"
         id="path2328"
         sodipodi:nodetypes="sscsssccssc" />
      <path
         style="fill:#d4ac01;stroke-width:0.264583"
         d="m 104.20238,153.12174 c -0.95156,-0.3585 -0.59688,0.17627 -0.7403,-3.17161 -0.12662,-2.95559 -0.22473,-3.31121 -0.79507,-3.3922 -2.33011,-0.46429 -0.15468,-3.67687 3.07346,-3.46381 2.3242,0.1534 2.71951,7.80755 1.71716,9.74414 -0.43585,0.84209 -2.45957,0.58326 -3.25525,0.28348 z m 2.8877,-1.03409 c 1.70215,-4.26 -0.0361,-9.08004 -2.95179,-8.18518 -1.90029,0.58322 -2.28513,2.24488 -0.45098,1.94724 l 0.94959,-0.1541 -0.16841,1.12306 c -0.31829,2.12248 2.00947,6.80092 2.62159,5.26898 z"
         id="path2326"
         sodipodi:nodetypes="sscsssssscss" />
      <path
         style="fill:#b59400;stroke-width:0.264583"
         d="m 104.69712,153.19832 c -0.95156,-0.3585 -1.14399,0.078 -1.28741,-3.26988 -0.12662,-2.95559 -0.0567,-3.4228 -0.62706,-3.50379 -2.22754,-0.32698 -0.27032,-3.54359 2.95782,-3.33053 2.3242,0.1534 2.71558,7.96265 1.56592,9.79877 -0.5032,0.80366 -1.81359,0.60521 -2.60927,0.30543 z m 2.56913,-1.97332 c 0.36903,-3.11138 0.25655,-6.24916 -0.24627,-6.87012 -0.79383,-0.98034 -4.42791,-0.56152 -4.5959,0.52967 -0.12204,0.79269 -0.0138,0.93061 0.82528,1.05154 0.91173,0.1314 0.91737,0.14061 0.84099,1.37156 -0.0582,0.93832 0.12045,1.66566 0.73576,2.99503 0.44696,0.96566 0.81266,1.85658 0.81266,1.97982 0,0.28404 0.54196,0.51244 1.05833,0.44601 0.27356,-0.0352 0.4504,-0.50236 0.56915,-1.50351 z"
         id="path2324"
         sodipodi:nodetypes="sscssssssssssss" />
      <path
         style="fill:#8b690a;stroke-width:0.264583"
         d="m 103.84555,153.19713 c -0.54906,-0.38458 -0.23963,-0.40239 -0.40176,-3.20836 l -0.18627,-3.22378 -0.72761,-0.0837 c -1.84656,-0.21242 0.18896,-4.00119 3.23,-3.56261 1.26561,0.18253 2.09366,0.26746 2.09366,5.39042 0,4.93713 0.21674,4.73419 -2.07771,4.73419 -0.66285,0 -1.60688,0.18039 -1.93031,-0.0461 z m 3.20309,-0.64881 c 0.47297,-0.42717 0.55322,-7.32945 0.0934,-8.03125 -0.75327,-1.14963 -3.1432,-1.12922 -4.47982,0.0383 -0.62858,0.54905 -0.60178,1.38075 0.0445,1.38075 1.17908,0 1.22528,0.12979 1.12187,3.15118 -0.12309,3.59625 1.33506,5.16353 3.22006,3.46105 z"
         id="path2322"
         sodipodi:nodetypes="sscsssssscsssssc" />
      <path
         style="fill:#7a5700;stroke-width:0.264583"
         d="m 103.57502,153.02692 c -0.20948,-0.20948 -0.3175,-1.33467 -0.3175,-3.30729 0,-2.70267 -0.0457,-2.98979 -0.47625,-2.98979 -1.54641,0 -1.58536,-2.12329 -0.0407,-2.99165 4.59437,-1.95275 5.35969,-0.82606 5.27907,4.82013 -0.0693,4.85464 -0.0236,4.93018 -2.43916,4.93018 -0.75433,-0.15645 -1.31712,0.17528 -2.00542,-0.46158 z m 3.50006,-0.36285 c 0.61306,-0.61307 0.61306,-8.08039 0,-8.69346 -0.64762,-0.64761 -2.75622,-0.54336 -3.84458,0.19008 -1.1707,0.78893 -1.26339,1.86577 -0.17142,1.99141 l 0.7276,0.0837 v 3.10451 c 0,2.06184 0.10664,3.21114 0.3175,3.42201 0.46335,0.46334 2.47585,0.39677 2.9709,-0.0983 z"
         id="path2320"
         sodipodi:nodetypes="csscscccssscsscc" />
    </g>
    <g
       id="g2204"
       transform="translate(-39.816387,-33.053064)"
       inkscape:label="0">
      <path
         style="fill:#f6f3e6;stroke-width:0.264583"
         d="m 100.51228,148.32965 0.95909,-3.49922 c 0,0 2.02206,-1.44219 2.92325,-1.59581 1.00776,0.091 3.37361,1.26493 3.37361,1.26493 l 0.95039,3.85714 -0.85406,3.1277 -2.90865,1.9249 -2.79067,-0.60036 z"
         id="path2218"
         sodipodi:nodetypes="ccccccccc" />
      <path
         style="fill:#fde857;stroke-width:0.264583"
         d="m 102.16524,152.80893 c -2.25165,-2.14325 -1.07128,-7.57107 -0.69387,-7.9785 2.17045,-2.34929 6.45663,-2.02517 7.07133,1.25146 1.11259,5.93063 -2.20867,8.29598 -6.37746,6.72704 z m 2.06282,-4.5304 c -0.1836,-2.38086 -0.22296,-2.48287 -0.86327,-2.23716 -0.36596,0.14043 -0.41882,0.41566 -0.2985,1.55404 0.35581,3.36628 1.41679,3.99013 1.16177,0.68312 z m 4.05654,-0.89573 c 0,-2.73251 -0.98702,-3.63391 -3.84414,-3.51065 -2.18263,0.0942 -2.44113,0.54882 -0.42701,0.75104 1.62226,0.16287 3.34798,1.65796 3.64858,3.16097 0.24065,1.20328 0.62257,0.95706 0.62257,-0.40136 z"
         id="path2216"
         sodipodi:nodetypes="ccscssssscsss" />
      <path
         style="fill:#f7d019;stroke-width:0.264583"
         d="m 102.82815,153.06265 c -2.6021,-1.06028 -3.278308,-7.80449 -0.6089,-9.35957 3.90015,-0.30614 6.47942,-0.15484 6.47942,4.66135 0,4.63001 -3.26842,5.7585 -5.87052,4.69822 z m 1.48365,-4.15 c -0.004,-2.85025 -0.22688,-3.54913 -0.98061,-3.08149 -1.08695,0.67439 -0.85058,3.77628 0.39611,5.19816 0.59259,0.67585 0.58891,0.68918 0.5845,-2.11667 z m 3.96629,-0.6746 c 0.0111,-3.97666 -1.88675,-5.46838 -5.48359,-4.31009 -0.96872,0.31195 -0.68066,0.68518 0.52916,0.68562 2.85778,10e-4 5.12068,3.84427 3.51415,5.96829 -0.61521,0.81338 -0.47493,0.93391 0.51424,0.44185 l 0.91953,-0.45742 0.007,-2.32825 z"
         id="path2214"
         sodipodi:nodetypes="ccsccssccscssccc" />
      <path
         style="fill:#d1a902;stroke-width:0.264583"
         d="m 102.82815,153.06265 c -2.75553,-1.07566 -3.278308,-7.80449 -0.6089,-9.35957 2.62577,-0.94199 6.49727,-0.18783 6.47599,4.50669 -0.0213,4.69453 -2.31016,5.56814 -5.86709,4.85288 z m 4.48166,-1.60992 c 1.65391,-0.87055 1.3397,-6.46542 -0.41587,-7.40498 -1.87887,-1.00554 -6.01334,0.18878 -5.00591,1.44605 0.13662,0.1705 0.30004,1.3391 0.36316,2.5969 0.17422,3.47183 2.24072,4.84526 5.05862,3.36203 z m -2.81757,-0.40136 c -0.097,-0.097 -0.17639,-1.17641 -0.17639,-2.39865 0,-1.22224 -0.13009,-2.46533 -0.28909,-2.76243 -0.65675,-1.22714 1.22518,-1.31971 2.02463,-0.0996 0.23807,0.36334 0.48413,1.49699 0.56927,2.62272 l 0.14996,1.98277 -0.99511,0.41578 c -1.1553,0.48271 -1.05809,0.46458 -1.28327,0.2394 z"
         id="path2212"
         sodipodi:nodetypes="cczcsssssssssscsss" />
      <path
         style="fill:#b49105;stroke-width:0.264583"
         d="m 102.82815,153.06265 c -2.59669,-1.17477 -2.60842,-8.07861 -0.6089,-9.35957 4.49687,-0.59378 6.44531,-0.24474 6.49544,4.68459 0.06,2.5869 -2.69907,5.28034 -5.88654,4.67498 z m 3.77688,-0.51953 c 2.22377,-0.77521 2.44704,-7.34037 0.28891,-8.49537 -0.64353,-0.34441 -3.15824,-0.42295 -4.07577,-0.1273 -2.81061,0.90563 -1.69365,8.31687 1.30415,8.65324 0.76128,0.0854 1.45569,0.17472 1.54311,0.19844 0.0874,0.0237 0.51025,-0.0793 0.9396,-0.22901 z m -2.33741,-4.23575 c -0.089,-2.84627 -0.0113,-3.09252 0.83339,-2.64046 0.6553,0.35071 1.01011,1.56475 0.54187,1.85414 -0.18265,0.11288 -0.40712,0.89416 -0.49883,1.73616 -0.28564,2.62254 -0.78151,2.08513 -0.87643,-0.94984 z"
         id="path2210"
         sodipodi:nodetypes="cccccsssscsssss" />
      <path
         style="fill:#8a6709;stroke-width:0.264583"
         d="m 102.16524,152.80893 c -1.90569,-1.67931 -2.4664,-8.65185 1.15838,-9.50909 4.48724,-0.13615 6.24526,0.41978 4.54176,9.18592 -0.94174,0.44823 -3.82061,1.53965 -5.70014,0.32317 z m 4.93579,-0.37084 c 1.6213,-1.06232 1.89384,-6.24329 0.41403,-7.87078 -1.52981,-1.6825 -5.3499,-1.15046 -6.02855,0.83961 -1.774367,5.20318 1.72195,9.58168 5.61452,7.03117 z m -2.78518,-4.1428 c 0,-2.01671 0.0807,-2.64097 0.33073,-2.55764 0.1819,0.0606 0.32329,0.42775 0.31419,0.8158 -0.0858,3.65973 -0.15046,4.40972 -0.38034,4.40972 -0.15889,0 -0.26458,-1.06568 -0.26458,-2.66788 z"
         id="path2208"
         sodipodi:nodetypes="ccccsssssssss" />
      <path
         style="fill:#765300;stroke-width:0.264583"
         d="m 102.96247,153.36302 c -0.9203,-0.38867 -1.59862,-1.19508 -2.07361,-2.16385 -0.61094,-1.24607 -0.78449,-3.64556 -0.2707,-5.40849 0.33845,-1.16128 0.95308,-2.41257 2.47955,-2.54239 5.0311,-0.2571 5.71606,0.39999 5.71606,5.48348 0,3.48787 -0.83013,3.88679 -2.25667,4.60435 -1.07045,0.53844 -2.49079,0.49308 -3.59463,0.0269 z m 3.99921,-0.63535 c 1.46897,-0.68822 1.91978,-3.65138 1.16068,-7.6292 -0.36796,-1.92813 -5.61424,-2.09725 -6.58893,-0.2124 -2.529464,4.89144 0.96142,9.93432 5.42825,7.8416 z m -2.46944,-1.94089 c -0.28874,-0.28874 -0.2058,-4.85069 0.0882,-4.85069 0.15782,0 0.26459,1.01424 0.26459,2.51354 0,2.51422 -0.0231,2.66689 -0.35278,2.33715 z"
         id="path2206"
         sodipodi:nodetypes="asscssasssssssss" />
    </g>
    <rect
       style="fill:#a4d0eb;fill-rule:evenodd;stroke-width:1.4;stroke-linecap:round;stroke-linejoin:bevel;paint-order:stroke fill markers;stop-color:#000000"
       id="rect6049"
       width="10.054168"
       height="11.1125"
       x="153.00211"
       y="109.70802" />
  </g>
</svg>
