<svg height="23.5" width="23.5" xmlns:xlink="http://www.w3.org/1999/xlink" xmlns="http://www.w3.org/2000/svg"><use height="14.4" transform="translate(5.4 4.5)" width="12.95" xlink:href="#a"/><defs><path d="M-28.15 5.9q-2.65 0-4.55-2.5-1.4-1.75-1.85-3.55 6.85.85 12.7-.2-.35 2-1.75 3.75-1.9 2.5-4.55 2.5M-31.5-8.5q1.25 0 2.2.9.9.95.9 2.3 0 1.3-.9 2.25-.95.9-2.2.9-1.35 0-2.25-.9-.9-.95-.9-2.25 0-1.35.9-2.3.9-.9 2.25-.9m-.6 1.95q-.25-.3-.55-.25l-.5.25-.25.65.25.65.5.3.55-.3q.25-.25.25-.65l-.25-.65m9.5-.75q.9 1.1.9 2.7t-.9 2.75q-.95 1.1-2.25 1.1t-2.2-1.1q-.9-1.15-.9-2.75t.9-2.7q.9-1.15 2.2-1.15 1.3 0 2.25 1.15m-1.6 1.55q-.45-.05-.75.35l-.3 1.05.3 1.05.75.4.75-.4q.3-.45.35-1.05-.05-.65-.35-1.05-.35-.4-.75-.35" transform="translate(34.65 8.5)" id="a" fill="#fff" fill-rule="evenodd"/></defs></svg>