<svg xmlns="http://www.w3.org/2000/svg" xmlns:xlink="http://www.w3.org/1999/xlink" width="23.5" height="23.5"><use xlink:href="#a" width="10.65" height="10.85" transform="translate(6.6 6.95)"/><defs><path id="a" fill="#fff" fill-rule="evenodd" d="M-32.25.9q1.7-2.15 4.2-2.15 2.4-.05 3.95 2 1.5 2.05 1.25 4.05-5-2.85-10.3-.2-.85-1.55.9-3.7m2.6-3.9q-.55.55-1.3.55T-32.2-3q-.55-.5-.55-1.25t.55-1.3q.5-.5 1.25-.5t1.3.5q.5.55.5 1.3t-.5 1.25m2.95.05q-.55-.5-.55-1.25t.55-1.3q.5-.5 1.25-.5t1.3.5q.5.55.5 1.3t-.5 1.25q-.55.55-1.3.55t-1.25-.55" transform="translate(33.45 6.05)"/></defs></svg>