<svg height="23.5" width="23.5" xmlns:xlink="http://www.w3.org/1999/xlink" xmlns="http://www.w3.org/2000/svg"><use height="10.25" transform="translate(6.05 7.15)" width="12.45" xlink:href="#a"/><defs><path d="m-30.7-5.85 1.8.45q.9.45 1.2 1.25l.45-.7q.9-1.05 2.45-1 1.25 0 2.25.7l.35.3v.05l.15.15.05.05q.45.6.45 1.35 0 2.3-3.2 4.65-2.3 1.6-5.65 3v-.15l.1-.9q0-1.35-.95-2.4l-1.8-1.7Q-34-1.8-34-3.05q0-1.25.95-2l.05-.05.05-.05.15-.1h.05l.05-.05.05-.05h.05v-.05l.6-.2.5-.2h.05l.75-.05" fill="#fff" fill-rule="evenodd" transform="translate(34 5.85)" id="a"/></defs></svg>