<svg xmlns="http://www.w3.org/2000/svg" xmlns:xlink="http://www.w3.org/1999/xlink" width="23.55" height="23.5"><use xlink:href="#a" width="19.5" height="15.95" transform="translate(4.05 1.45)"/><defs><g id="a"><path fill="none" stroke="#fff" stroke-linecap="round" stroke-linejoin="round" stroke-width="1.5" d="M.75 8.15q2.9-5.3 5.7 0m8.1 0q-2.9-5.3-5.7 0"/><path fill="#fff" fill-rule="evenodd" d="M13.75 7.5v-.05l.3-1.45 2.6-6v.05l.05.05.05.15L19.2 6q.35.9.3 2.35-.05 1.4-.75 1.95-.75.5-2.1.55-1.45-.05-2.2-.55-.75-.55-.75-1.95l.05-.8V7.5"/><path fill="none" stroke="#fff" stroke-linecap="round" stroke-linejoin="round" stroke-width="1.5" d="m10.55 13.15-3 2.05-3-2.05"/></g></defs></svg>