<?xml version="1.0" encoding="UTF-8" standalone="no"?>
<svg xmlns:xlink="http://www.w3.org/1999/xlink" height="23.5px" width="23.5px" xmlns="http://www.w3.org/2000/svg">
  <g transform="matrix(1.0, 0.0, 0.0, 1.0, 40.05, 13.0)">
    <use height="23.45" transform="matrix(1.0, 0.0, 0.0, 1.0, -40.0, -13.0)" width="23.45" xlink:href="#sprite0"/>
    <use height="14.4" transform="matrix(1.0, 0.0, 0.0, 1.0, -34.65, -8.5)" width="12.95" xlink:href="#shape1"/>
  </g>
  <defs>
    <g id="sprite0" transform="matrix(1.0, 0.0, 0.0, 1.0, 11.7, 11.75)">
      <use height="23.45" transform="matrix(1.0, 0.0, 0.0, 1.0, -11.7, -11.75)" width="23.45" xlink:href="#shape0"/>
    </g>
    <g id="shape0" transform="matrix(1.0, 0.0, 0.0, 1.0, 11.7, 11.75)">
      <path d="M-3.35 -10.25 L0.05 -10.75 2.25 -10.55 Q4.45 -10.1 6.25 -8.75 L7.6 -7.6 Q10.75 -4.4 10.75 0.0 10.75 4.45 7.6 7.6 L7.6 7.65 Q4.4 10.7 0.05 10.7 L-2.35 10.45 Q-4.65 9.95 -6.55 8.55 L-7.55 7.65 -7.6 7.6 Q-10.75 4.45 -10.7 0.05 L-10.7 -0.1 Q-10.75 -3.05 -9.25 -5.45 L-7.6 -7.6 -6.9 -8.25 -5.05 -9.5 -3.35 -10.25 M1.9 1.85 L1.85 1.85 1.85 1.9 1.9 1.85" fill="#ff3399" fill-rule="evenodd" stroke="none"/>
      <path d="M-7.6 7.6 L-7.55 7.65 -6.55 8.55 Q-4.65 9.95 -2.35 10.45 M6.25 -8.75 Q4.45 -10.1 2.25 -10.55" fill="none" stroke="#ff3399" stroke-linecap="round" stroke-linejoin="round" stroke-width="2.0"/>
      <path d="M-2.35 10.45 L0.05 10.7 Q4.4 10.7 7.6 7.65 L7.6 7.6 Q10.75 4.45 10.75 0.0 10.75 -4.4 7.6 -7.6 L6.25 -8.75" fill="none" stroke="#cc0066" stroke-linecap="round" stroke-linejoin="round" stroke-width="2.0"/>
      <path d="M2.25 -10.55 L0.05 -10.75 -3.35 -10.25 M-5.05 -9.5 L-6.9 -8.25 M-9.25 -5.45 Q-10.75 -3.05 -10.7 -0.1 L-10.7 0.05 Q-10.75 4.45 -7.6 7.6" fill="none" stroke="#ff99cc" stroke-linecap="round" stroke-linejoin="round" stroke-width="2.0"/>
      <path d="M-3.35 -10.25 L-5.05 -9.5 M-6.9 -8.25 L-7.6 -7.6 -9.25 -5.45" fill="none" stroke="#ffffff" stroke-linecap="round" stroke-linejoin="round" stroke-width="2.0"/>
    </g>
    <g id="shape1" transform="matrix(1.0, 0.0, 0.0, 1.0, 34.65, 8.5)">
      <path d="M-28.15 5.9 Q-30.8 5.9 -32.7 3.4 -34.1 1.65 -34.55 -0.15 -27.7 0.7 -21.85 -0.35 -22.2 1.65 -23.6 3.4 -25.5 5.9 -28.15 5.9" fill="#ffffff" fill-rule="evenodd" stroke="none"/>
      <path d="M-31.5 -8.5 Q-30.25 -8.5 -29.3 -7.6 -28.4 -6.65 -28.4 -5.3 -28.4 -4.0 -29.3 -3.05 -30.25 -2.15 -31.5 -2.15 -32.85 -2.15 -33.75 -3.05 -34.65 -4.0 -34.65 -5.3 -34.65 -6.65 -33.75 -7.6 -32.85 -8.5 -31.5 -8.5 M-32.1 -6.55 Q-32.35 -6.85 -32.65 -6.8 L-33.15 -6.55 -33.4 -5.9 -33.15 -5.25 -32.65 -4.95 -32.1 -5.25 Q-31.85 -5.5 -31.85 -5.9 L-32.1 -6.55 M-22.6 -7.3 Q-21.7 -6.2 -21.7 -4.6 -21.7 -3.0 -22.6 -1.85 -23.55 -0.75 -24.85 -0.75 -26.15 -0.75 -27.05 -1.85 -27.95 -3.0 -27.95 -4.6 -27.95 -6.2 -27.05 -7.3 -26.15 -8.45 -24.85 -8.45 -23.55 -8.45 -22.6 -7.3 M-24.2 -5.75 Q-24.65 -5.8 -24.95 -5.4 L-25.25 -4.35 -24.95 -3.3 -24.2 -2.9 -23.45 -3.3 Q-23.15 -3.75 -23.1 -4.35 -23.15 -5.0 -23.45 -5.4 -23.8 -5.8 -24.2 -5.75" fill="#ffffff" fill-rule="evenodd" stroke="none"/>
    </g>
  </defs>
</svg>
