<?xml version="1.0" encoding="UTF-8" standalone="no"?>
<svg xmlns:xlink="http://www.w3.org/1999/xlink" height="22.5px" width="22.5px" xmlns="http://www.w3.org/2000/svg">
  <g transform="matrix(1.0, 0.0, 0.0, 1.0, 39.55, 12.5)">
    <use height="22.45" transform="matrix(1.0, 0.0, 0.0, 1.0, -39.55, -12.45)" width="22.5" xlink:href="#sprite0"/>
    <use height="17.55" transform="matrix(1.0, 0.0, 0.0, 1.0, -36.8, -12.2)" width="16.55" xlink:href="#shape1"/>
  </g>
  <defs>
    <g id="sprite0" transform="matrix(1.0, 0.0, 0.0, 1.0, 11.25, 11.2)">
      <use height="22.45" transform="matrix(1.0, 0.0, 0.0, 1.0, -11.25, -11.2)" width="22.5" xlink:href="#sprite1"/>
    </g>
    <g id="sprite1" transform="matrix(1.0, 0.0, 0.0, 1.0, 11.25, 11.25)">
      <use height="22.45" transform="matrix(1.0, 0.0, 0.0, 1.0, -11.25, -11.25)" width="22.5" xlink:href="#shape0"/>
    </g>
    <g id="shape0" transform="matrix(1.0, 0.0, 0.0, 1.0, 11.25, 11.25)">
      <path d="M-7.6 7.6 L-7.05 8.1 -7.55 7.65 -7.6 7.6" fill="url(#gradient0)" fill-rule="evenodd" stroke="none"/>
      <path d="M-7.6 7.6 Q-10.75 4.45 -10.7 0.05 L-10.7 -0.1 Q-10.75 -3.05 -9.25 -5.45 L-7.6 -7.6 -6.9 -8.25 -5.05 -9.5 -3.35 -10.25 0.05 -10.75 2.25 -10.55 Q4.45 -10.1 6.25 -8.75 L7.6 -7.6 Q10.75 -4.4 10.75 0.0 10.75 2.55 9.7 4.7 L8.25 6.95 7.6 7.6 7.6 7.65 Q4.4 10.7 0.05 10.7 L-2.35 10.45 Q-4.65 9.95 -6.55 8.55 L-7.05 8.1 -7.6 7.6 M1.85 1.85 L1.85 1.9 1.9 1.85 1.85 1.85" fill="#ff3399" fill-rule="evenodd" stroke="none"/>
      <path d="M-9.25 -5.45 Q-10.75 -3.05 -10.7 -0.1 L-10.7 0.05 Q-10.75 4.45 -7.6 7.6 M-5.05 -9.5 L-6.9 -8.25" fill="none" stroke="#ff99cc" stroke-linecap="round" stroke-linejoin="round" stroke-width="1.0"/>
      <path d="M-7.6 7.6 L-7.05 8.1 -6.55 8.55 Q-4.65 9.95 -2.35 10.45 M6.25 -8.75 Q4.45 -10.1 2.25 -10.55" fill="none" stroke="#ff3399" stroke-linecap="round" stroke-linejoin="round" stroke-width="1.0"/>
      <path d="M-2.35 10.45 L0.05 10.7 Q4.4 10.7 7.6 7.65 L8.25 6.95 9.7 4.7 Q10.75 2.55 10.75 0.0 10.75 -4.4 7.6 -7.6 L6.25 -8.75" fill="none" stroke="#cc0066" stroke-linecap="round" stroke-linejoin="round" stroke-width="1.0"/>
      <path d="M2.25 -10.55 L0.05 -10.75 -3.35 -10.25" fill="none" stroke="#ff99cc" stroke-linecap="round" stroke-linejoin="round" stroke-width="1.0"/>
      <path d="M-3.35 -10.25 L-5.05 -9.5 M-6.9 -8.25 L-7.6 -7.6 -9.25 -5.45 Z" fill="none" stroke="#ffc1e0" stroke-linecap="round" stroke-linejoin="round" stroke-width="1.0"/>
    </g>
    <radialGradient cx="0" cy="0" gradientTransform="matrix(0.0179, 0.0, 0.0, 0.0179, -2.0, -1.9)" gradientUnits="userSpaceOnUse" id="gradient0" r="819.2" spreadMethod="pad">
      <stop offset="0.26666666666666666" stop-color="#ffbbdd"/>
      <stop offset="1.0" stop-color="#f10179"/>
    </radialGradient>
    <g id="shape1" transform="matrix(1.0, 0.0, 0.0, 1.0, 36.8, 12.2)">
      <path d="M-36.05 -2.1 L-21.0 -2.1 M-22.4 3.1 L-26.7 3.1 -27.15 4.0 Q-27.55 4.6 -28.25 4.6 -28.9 4.6 -29.3 4.0 L-29.75 3.1 -34.25 3.1" fill="none" stroke="#ffffff" stroke-linecap="round" stroke-linejoin="round" stroke-width="1.5"/>
      <path d="M-22.2 -10.3 L-22.3 -4.85 M-24.3 -11.45 L-24.3 -4.8 M-26.3 -11.05 L-26.3 -5.15" fill="none" stroke="#ffffff" stroke-linecap="round" stroke-linejoin="round" stroke-width="1.5"/>
    </g>
  </defs>
</svg>
