<?xml version="1.0" encoding="UTF-8" standalone="no"?>
<svg xmlns:xlink="http://www.w3.org/1999/xlink" height="23.5px" width="23.5px" xmlns="http://www.w3.org/2000/svg">
  <g transform="matrix(1.0, 0.0, 0.0, 1.0, 40.05, 13.0)">
    <use height="23.45" transform="matrix(1.0, 0.0, 0.0, 1.0, -40.0, -13.0)" width="23.45" xlink:href="#sprite0"/>
    <use height="12.4" transform="matrix(1.0, 0.0, 0.0, 1.0, -34.55, -7.4)" width="12.75" xlink:href="#shape1"/>
  </g>
  <defs>
    <g id="sprite0" transform="matrix(1.0, 0.0, 0.0, 1.0, 11.7, 11.75)">
      <use height="23.45" transform="matrix(1.0, 0.0, 0.0, 1.0, -11.7, -11.75)" width="23.45" xlink:href="#shape0"/>
    </g>
    <g id="shape0" transform="matrix(1.0, 0.0, 0.0, 1.0, 11.7, 11.75)">
      <path d="M-3.35 -10.25 L0.05 -10.75 2.25 -10.55 Q4.45 -10.1 6.25 -8.75 L7.6 -7.6 Q10.75 -4.4 10.75 0.0 10.75 4.45 7.6 7.6 L7.6 7.65 Q4.4 10.7 0.05 10.7 L-2.35 10.45 Q-4.65 9.95 -6.55 8.55 L-7.55 7.65 -7.6 7.6 Q-10.75 4.45 -10.7 0.05 L-10.7 -0.1 Q-10.75 -3.05 -9.25 -5.45 L-7.6 -7.6 -6.9 -8.25 -5.05 -9.5 -3.35 -10.25 M1.9 1.85 L1.85 1.85 1.85 1.9 1.9 1.85" fill="#ff3399" fill-rule="evenodd" stroke="none"/>
      <path d="M-7.6 7.6 L-7.55 7.65 -6.55 8.55 Q-4.65 9.95 -2.35 10.45 M6.25 -8.75 Q4.45 -10.1 2.25 -10.55" fill="none" stroke="#ff3399" stroke-linecap="round" stroke-linejoin="round" stroke-width="2.0"/>
      <path d="M-2.35 10.45 L0.05 10.7 Q4.4 10.7 7.6 7.65 L7.6 7.6 Q10.75 4.45 10.75 0.0 10.75 -4.4 7.6 -7.6 L6.25 -8.75" fill="none" stroke="#cc0066" stroke-linecap="round" stroke-linejoin="round" stroke-width="2.0"/>
      <path d="M2.25 -10.55 L0.05 -10.75 -3.35 -10.25 M-5.05 -9.5 L-6.9 -8.25 M-9.25 -5.45 Q-10.75 -3.05 -10.7 -0.1 L-10.7 0.05 Q-10.75 4.45 -7.6 7.6" fill="none" stroke="#ff99cc" stroke-linecap="round" stroke-linejoin="round" stroke-width="2.0"/>
      <path d="M-3.35 -10.25 L-5.05 -9.5 M-6.9 -8.25 L-7.6 -7.6 -9.25 -5.45" fill="none" stroke="#ffffff" stroke-linecap="round" stroke-linejoin="round" stroke-width="2.0"/>
    </g>
    <g id="shape1" transform="matrix(1.0, 0.0, 0.0, 1.0, 34.55, 7.4)">
      <path d="M-31.5 -7.4 Q-30.25 -7.4 -29.35 -6.25 -28.45 -5.2 -28.45 -3.6 L-28.45 -3.4 Q-28.55 -2.0 -29.35 -0.95 -29.8 -0.4 -30.35 -0.15 L-31.5 0.15 -32.35 0.0 Q-33.1 -0.25 -33.65 -0.95 L-34.35 -2.2 -34.55 -3.6 Q-34.55 -5.2 -33.65 -6.25 -32.8 -7.4 -31.5 -7.4 M-32.0 -3.9 Q-31.7 -4.35 -31.7 -4.9 -31.7 -5.55 -32.0 -5.95 -32.35 -6.35 -32.7 -6.3 -33.15 -6.35 -33.45 -5.95 L-33.75 -4.9 -33.45 -3.9 Q-33.15 -3.5 -32.7 -3.5 -32.35 -3.5 -32.0 -3.9 M-22.7 -6.3 Q-21.8 -5.25 -21.8 -3.65 L-22.0 -2.25 -22.7 -1.0 Q-23.45 -0.1 -24.5 0.05 L-24.85 0.1 -25.6 -0.05 Q-26.4 -0.25 -27.0 -1.0 -27.85 -2.05 -27.9 -3.4 L-27.9 -3.65 Q-27.9 -5.25 -27.0 -6.3 -26.15 -7.4 -24.85 -7.4 -23.6 -7.4 -22.7 -6.3 M-25.35 -3.9 Q-25.05 -4.35 -25.05 -4.9 -25.05 -5.55 -25.35 -5.95 L-26.05 -6.3 Q-26.5 -6.35 -26.8 -5.95 L-27.1 -4.9 -26.8 -3.9 Q-26.5 -3.5 -26.05 -3.5 L-25.35 -3.9" fill="#ffffff" fill-rule="evenodd" stroke="none"/>
      <path d="M-25.2 2.2 L-28.2 4.25 -31.2 2.2" fill="none" stroke="#ffffff" stroke-linecap="round" stroke-linejoin="round" stroke-width="1.5"/>
    </g>
  </defs>
</svg>
