<svg xmlns:xlink="http://www.w3.org/1999/xlink" height="23.5" width="26.6" xmlns="http://www.w3.org/2000/svg"><g transform="translate(40.05 13)"><use height="23.45" transform="translate(-40 -13)" width="23.45" xlink:href="#a"/><use height="13.95" transform="translate(-35.75 -8.55)" width="22.3" xlink:href="#b"/></g><defs><g id="c"><path d="m-3.35-10.25 3.4-.5 2.2.2q2.2.45 4 1.8L7.6-7.6q3.15 3.2 3.15 7.6 0 4.45-3.15 7.6v.05Q4.4 10.7.05 10.7l-2.4-.25q-2.3-.5-4.2-1.9l-1-.9-.05-.05q-3.15-3.15-3.1-7.55V-.1q-.05-2.95 1.45-5.35L-7.6-7.6l.7-.65 1.85-1.25 1.7-.75M1.9 1.85h-.05v.05l.05-.05" fill="#f39" fill-rule="evenodd" transform="translate(11.7 11.75)"/><path d="m4.1 19.35.05.05 1 .9q1.9 1.4 4.2 1.9M17.95 3q-1.8-1.35-4-1.8" fill="none" stroke="#f39" stroke-linecap="round" stroke-linejoin="round" stroke-width="2"/><path d="m9.35 22.2 2.4.25q4.35 0 7.55-3.05v-.05q3.15-3.15 3.15-7.6 0-4.4-3.15-7.6L17.95 3" fill="none" stroke="#c06" stroke-linecap="round" stroke-linejoin="round" stroke-width="2"/><path d="m13.95 1.2-2.2-.2-3.4.5m-1.7.75L4.8 3.5M2.45 6.3Q.95 8.7 1 11.65v.15q-.05 4.4 3.1 7.55" fill="none" stroke="#f9c" stroke-linecap="round" stroke-linejoin="round" stroke-width="2"/><path d="m8.35 1.5-1.7.75M4.8 3.5l-.7.65L2.45 6.3" fill="none" stroke="#fff" stroke-linecap="round" stroke-linejoin="round" stroke-width="2"/></g><g id="b"><path d="m-26.75 1.95.2 1.85-.05.35-.45.75q-.45.5-1.05.5-.65 0-1.15-.5l-.4-.75V3.8l.15-1.85.25-.65q.5-.5 1.15-.45.6-.05 1.05.45l.3.65" fill="#fff" fill-rule="evenodd" transform="translate(35.75 8.55)"/><path d="M14.55 4.7q-2.9 5.3-5.7 0m-8.1 0q2.9 5.3 5.7 0" fill="none" stroke="#fff" stroke-linecap="round" stroke-linejoin="round" stroke-width="1.5"/><path d="M-14.05-8.05h.45v1.2l-3.8 4.65h3.5v.5h.45v1.3h-6.2v-.5h-.4v-1.4l3.6-4.45h-2.75v-.5h-.4v-1.3h5.55v.5" fill="#fff" fill-rule="evenodd" transform="translate(35.75 8.55)"/></g><use height="23.45" width="23.45" xlink:href="#c" id="a"/></defs></svg>