<?xml version="1.0" encoding="UTF-8" standalone="no"?>
<!-- Created with Inkscape (http://www.inkscape.org/) -->

<svg
   version="1.1"
   id="svg1392"
   width="19"
   height="21"
   viewBox="0 0 19.388998 21.833746"
   sodipodi:docname="2.svg"
   inkscape:version="1.1 (c4e8f9ed74, 2021-05-24)"
   xmlns:inkscape="http://www.inkscape.org/namespaces/inkscape"
   xmlns:sodipodi="http://sodipodi.sourceforge.net/DTD/sodipodi-0.dtd"
   xmlns="http://www.w3.org/2000/svg"
   xmlns:svg="http://www.w3.org/2000/svg">
  <sodipodi:namedview
     id="namedview7418"
     pagecolor="#505050"
     bordercolor="#eeeeee"
     borderopacity="1"
     inkscape:pageshadow="0"
     inkscape:pageopacity="0"
     inkscape:pagecheckerboard="0"
     showgrid="false"
     inkscape:zoom="20.962252"
     inkscape:cx="9.6840739"
     inkscape:cy="10.972103"
     inkscape:current-layer="svg1392" />
  <defs
     id="defs1396" />
  <g
     id="g1398"
     transform="translate(-8.5365235,-8.4509046)">
    <g
       id="g1558">
      <path
         style="fill:#ffffff;fill-opacity:1;stroke:none;stroke-width:1px;stroke-linecap:butt;stroke-linejoin:miter;stroke-opacity:1"
         d="m 16.598835,23.075108 c -1.93757,2.593876 -0.01932,3.134726 -0.01932,3.134726 0,0 9.490466,2.066205 9.962261,1.326331 0.471795,-0.739874 0.514911,-3.010029 -0.646728,-3.377448 -1.16164,-0.36742 -9.296217,-1.083609 -9.296217,-1.083609 z"
         id="path3294" />
      <path
         style="fill:#ffffff;fill-opacity:1;stroke:none;stroke-width:1px;stroke-linecap:butt;stroke-linejoin:miter;stroke-opacity:1"
         d="m 15.895428,9.6576061 c -1.534927,1.6506609 -0.03235,2.1572449 1.100681,2.0394589 1.13303,-0.117786 4.828294,-0.117226 8.060265,5.398155 3.231971,5.515381 1.751346,-2.068973 1.751346,-2.068973 0,0 -1.865343,-7.5592866 -10.912292,-5.3686409 z"
         id="path3530" />
      <path
         style="display:inline;fill:#f6da18;stroke-width:0.096"
         d="M 9.9106282,29.948373 C 8.6113807,29.203271 8.3026022,27.830466 8.6959488,24.548006 9.013861,21.895042 9.9397046,20.356002 11.999659,19.056215 13.020761,18.411921 13.01869,18.404883 11.763482,18.254151 9.3556957,17.965013 8.116196,16.314549 8.6734066,14.139543 10.585908,6.6743193 26.06771,6.5352543 27.593672,13.969593 28.48758,18.32463 27.145928,20.868916 23.088,22.514064 c -0.3696,0.149842 -0.708308,0.303144 -0.752685,0.340673 -0.04438,0.03753 0.603622,0.09543 1.44,0.128668 2.357986,0.09371 3.119811,0.442767 3.776618,1.730397 0.908428,1.780918 0.06248,4.702918 -1.556849,5.37751 C 25.19476,30.424718 10.51374,30.294251 9.9106282,29.948373 Z m 16.4970708,-3.17876 c 0.270217,-0.504904 -0.1202,-1.594698 -0.711546,-1.98618 C 25.310313,24.528 25.310313,24.528 20.887157,24.48 16.464,24.432 16.464,24.432 16.413402,24.096 16.350672,23.679428 16.128,23.968356 16.128,24.466323 c 0,0.980871 1.202814,1.357677 4.333886,1.357677 1.768287,0 1.945626,0.02968 3.778114,0.632256 1.829239,0.601511 2.000254,0.626232 2.167699,0.313357 z m -0.2428,-9.822529 c 0.318235,-0.761645 0.08017,-2.770771 -0.453603,-3.828174 -0.94775,-1.877483 -3.970395,-3.1379897 -7.515647,-3.1341852 -3.139712,0.00337 -3.595657,1.2283762 -0.537997,1.4454572 3.197138,0.226985 5.288906,1.532616 6.545324,4.085438 0.475146,0.965416 0.887081,1.438284 1.449726,1.664168 0.337182,0.135369 0.363379,0.123467 0.512197,-0.232704 z"
         id="path1568" />
      <path
         style="fill:#d4b205;stroke-width:0.096"
         d="M 10.128,30.057606 C 8.7146336,29.4018 8.3255926,27.988382 8.6860514,24.81889 9.0112706,21.959257 9.8541226,20.480977 11.928,19.132829 13.079711,18.384146 13.080242,18.39666 11.890807,18.257106 9.7021094,18.000314 8.6026848,16.919284 8.6026848,15.024 c 0,-7.8016448 16.9010112,-8.9886058 18.9019842,-1.32749 1.132345,4.335403 -0.423672,7.305498 -4.662054,8.898837 -0.877165,0.329754 -0.724769,0.39222 1.084812,0.444653 2.267215,0.06569 3.085633,0.466981 3.703101,1.815708 0.77431,1.691317 -0.05605,4.461083 -1.554941,5.186683 -0.606692,0.293694 -15.317172,0.30773 -15.947587,0.01522 z M 25.83368,28.11832 C 26.538465,27.413535 26.678743,25.846301 26.1026,25.113854 25.603649,24.479541 25.607428,24.48 20.880811,24.48 c -4.746928,0 -4.555102,0.02809 -4.245317,-0.621542 0.387226,-0.812021 1.028329,-1.287913 2.403384,-1.784038 0.846878,-0.305556 0.846878,-0.305556 0.58531,-0.578574 -0.143863,-0.150161 -0.291118,-0.254756 -0.327234,-0.232435 -0.121176,0.07489 -0.486482,-0.248859 -0.412956,-0.365979 0.03917,-0.06239 0.05989,-0.182419 0.04606,-0.266735 -0.01383,-0.08432 0.04125,-0.208407 0.122396,-0.275756 C 19.133604,20.287594 19.2,20.19992 19.2,20.16011 c 0,-0.116282 0.735454,-0.86411 0.849812,-0.86411 0.05729,0 0.0793,-0.0648 0.0489,-0.144 -0.03886,-0.101278 0.0078,-0.144 0.157284,-0.144 0.157252,0 0.19688,-0.04081 0.152334,-0.1569 -0.05137,-0.133872 -0.0036,-0.149303 0.325729,-0.105135 0.340287,0.04564 0.385937,0.02883 0.385937,-0.142141 0,-0.185693 0.01035,-0.187124 0.244376,-0.03378 0.134406,0.08807 0.324443,0.134709 0.422303,0.10365 0.285186,-0.09051 1.414573,0.128005 1.863779,0.360615 0.226975,0.117533 0.567482,0.295488 0.756682,0.395457 1.59336,0.841889 2.582186,-3.747532 1.352103,-6.275493 -0.939702,-1.931193 -3.913139,-3.1719403 -7.59616,-3.1697016 -2.765862,0.00168 -6.200428,1.2374226 -5.644643,2.0309176 0.08446,0.120581 0.153881,0.285224 0.154273,0.365877 0.0037,0.754619 2.065783,2.066749 2.665529,1.696087 0.06571,-0.04061 0.208662,-0.04554 0.317667,-0.01094 0.121342,0.03851 0.241989,0.01001 0.311141,-0.0735 0.06212,-0.07502 0.30735,-0.191863 0.54495,-0.259649 0.2376,-0.06779 0.531046,-0.169812 0.652101,-0.226724 1.325188,-0.623 3.761063,0.801945 3.763538,2.201606 1.92e-4,0.112334 0.06516,0.258024 0.144361,0.323754 0.186801,0.15503 0.183814,0.288 -0.0065,0.288 -0.100358,0 -0.132479,0.05668 -0.09645,0.170201 0.291118,0.917232 -1.460211,1.919927 -2.270391,1.299876 C 18.259702,17.454108 17.994932,17.448426 17.21836,17.758308 15.907724,18.281302 14.4,19.165875 14.4,19.411824 c 0,0.05833 -0.09985,0.23973 -0.221888,0.403115 -0.837412,1.12112 -0.959542,3.649615 -0.2382,4.931517 0.631084,1.121504 2.175613,1.722901 5.09282,1.983004 0.910397,0.08117 1.892868,0.174483 2.183268,0.207358 0.2904,0.03287 0.636,0.06949 0.768,0.08136 0.809237,0.07279 2.568196,0.668259 3.158125,1.069126 0.416384,0.282941 0.438634,0.283938 0.691555,0.03102 z"
         id="path1566" />
      <path
         style="fill:#ac8f02;stroke-width:0.096"
         d="M 10.127301,30.014274 C 8.7165548,29.357323 8.3491198,28.079287 8.6845846,24.996126 c 0.32858,-3.019883 1.1538256,-4.495534 3.2746534,-5.85552 1.156936,-0.741888 1.156195,-0.763373 -0.03096,-0.897856 -5.7147152,-0.647371 -3.68819,-7.647116 2.681379,-9.2616422 7.272237,-1.8433295 13.090357,1.2704692 13.084874,7.0028922 -0.0034,3.603186 -1.029118,5.033142 -4.664034,6.502435 -1.221139,0.493604 -1.163092,0.531794 0.873503,0.574681 1.910901,0.04024 2.242342,0.132626 3.00809,0.838468 1.625903,1.498705 1.138307,5.116492 -0.821192,6.092952 -0.747065,0.372277 -15.168671,0.391916 -15.963597,0.02174 z m 15.494878,-1.49528 c 0.704798,-0.501861 1.104764,-2.249957 0.697462,-3.048334 -0.507821,-0.995413 -0.352668,-0.96631 -5.525324,-1.036426 -4.600238,-0.06236 -4.333629,-0.02937 -4.132594,-0.51137 0.385501,-0.924278 0.87009,-1.205421 3.608593,-2.09359 5.4686,-1.773613 6.871009,-3.570638 5.902508,-7.563383 C 25.12081,9.9288586 16.78266,8.3724064 12.21051,11.659596 c -0.772725,0.555558 -1.472097,1.559594 -1.025763,1.472613 0.165933,-0.03234 0.252705,0.03262 1.682298,1.259281 0.579126,0.49692 1.052955,0.962246 1.052955,1.034058 0,0.07181 0.106645,0.179159 0.236989,0.238548 0.130345,0.05939 0.215815,0.142242 0.189935,0.184118 -0.120549,0.195052 0.08052,0.855786 0.260429,0.855786 0.658312,0 1.190117,-0.455138 1.821998,-1.55933 1.17171,-2.047528 3.83715,-1.011186 2.771535,1.077593 -0.294814,0.577883 -0.521674,0.723493 -2.976886,1.910709 -3.072684,1.485795 -5.047973,3.212236 -4.43965,3.880343 0.105508,0.115876 0.245157,0.448285 0.310329,0.738685 0.712057,3.172824 1.890444,3.9474 7.297321,4.796665 1.788337,0.280897 2.369495,0.437699 3.408,0.919509 0.60216,0.27937 2.45437,0.312722 2.822179,0.05082 z"
         id="path1564" />
      <path
         style="fill:#8b6e0a;stroke-width:0.096"
         d="M 10.124284,29.964571 C 9.1037874,29.498639 8.638896,28.518294 8.6419008,26.838576 c 0.00725,-4.053025 0.9124221,-6.094252 3.4137422,-7.698229 1.308128,-0.838841 1.32246,-0.7937 -0.31401,-0.989024 C 9.4044126,17.872359 8.223466,16.270558 8.7731448,14.124951 10.657773,6.7685292 25.958748,6.6701264 27.501582,14.004506 c 0.931408,4.427759 -0.579058,7.033298 -5.013582,8.64838 -0.879952,0.320484 -0.780651,0.355686 1.219942,0.432466 2.037104,0.07818 2.566802,0.228161 3.262344,0.923704 1.380131,1.380129 1.015244,4.631159 -0.650515,5.795905 -0.532275,0.372182 -15.408793,0.518793 -16.195487,0.15961 z M 25.678792,28.591799 C 26.621871,27.849972 26.836694,25.698157 26.04352,24.938426 25.468515,24.387664 25.434446,24.384 20.888749,24.384 c -4.509452,0 -4.391485,0.01578 -4.101171,-0.548707 0.434175,-0.844218 0.814298,-1.053472 3.385658,-1.863759 5.603263,-1.765701 6.928944,-3.412153 6.075233,-7.545238 C 25.03456,8.5493892 12.349719,8.2080338 10.357452,13.99866 c -0.4341845,1.261978 -0.07151,2.23836 0.930109,2.50403 3.093443,0.820504 4.304289,0.489523 5.344141,-1.460808 0.94694,-1.776065 3.313044,-0.783374 2.483851,1.04209 -0.264325,0.581908 -0.649631,0.847408 -2.671105,1.840554 -4.967697,2.440617 -7.5508947,5.845835 -5.532379,7.29288 0.307963,0.220774 0.763245,0.596239 1.01174,0.834369 0.667978,0.640116 2.410124,1.692225 2.802088,1.692225 0.07665,0 0.261487,0.102089 0.410737,0.226864 0.149251,0.124775 0.379366,0.259485 0.511366,0.299355 0.132,0.03987 0.3048,0.126443 0.384,0.192385 0.174593,0.145366 -0.02906,0.127685 2.592,0.225042 4.564817,0.169558 6.755217,0.139798 7.054792,-0.09585 z"
         id="path1562" />
      <path
         style="fill:#7c5900;stroke-width:0.096"
         d="M 10.090057,29.795031 C 8.8178912,29.161085 8.5304923,27.952654 8.8890334,24.745069 9.1978307,21.982504 10.073796,20.508964 12.190386,19.191564 13.576903,18.328575 13.557719,18.231257 11.968044,18.063616 9.6290064,17.81695 8.4966713,16.510666 8.8321767,14.446018 10.04735,6.9680268 25.927569,6.6994926 27.404919,14.131953 c 0.856275,4.307862 -0.78551,7.061037 -5.023225,8.423643 -1.415526,0.455153 -1.045953,0.673025 1.144882,0.674934 2.470421,0.0022 3.21156,0.307734 3.839383,1.583024 0.838949,1.704148 0.105584,4.354444 -1.397959,5.05206 -0.7198,0.333975 -15.195233,0.269627 -15.877943,-0.07058 z m 15.778695,-1.312153 c 0.902509,-0.941909 1.068719,-2.557063 0.361134,-3.509328 -0.502893,-0.676791 -0.535718,-0.681085 -5.22422,-0.683442 -4.582704,-0.0023 -4.415502,0.02298 -4.015785,-0.607306 0.425055,-0.670242 0.851662,-0.886996 3.187553,-1.619564 5.664729,-1.776535 7.076331,-3.542942 6.181683,-7.735447 -1.348232,-6.3181018 -15.467141,-5.9745991 -16.340542,0.397553 -0.1908332,1.392283 0.478399,1.968295 2.570353,2.212313 2.427671,0.283178 3.122746,-0.02088 4.094241,-1.79099 0.704418,-1.283486 2.060599,-1.314873 2.437642,-0.05642 0.30098,1.004583 -0.202832,1.513786 -2.730044,2.759257 -4.705938,2.319202 -6.079757,3.862994 -6.284903,7.062492 -0.1596995,2.490715 -0.06901,3.301289 0.414325,3.702992 0.574773,0.477701 14.882258,0.354549 15.348563,-0.132114 z"
         id="path1560" />
    </g>
  </g>
</svg>
