<?xml version="1.0" encoding="UTF-8" standalone="no"?>
<!-- Created with Inkscape (http://www.inkscape.org/) -->

<svg
   version="1.1"
   id="svg1325"
   width="19"
   height="21"
   viewBox="0 0 19.72656 22.37035"
   xmlns="http://www.w3.org/2000/svg"
   xmlns:svg="http://www.w3.org/2000/svg">
  <defs
     id="defs1329" />
  <g
     id="g1331"
     transform="translate(-8.4506784,-8.4829643)">
    <g
       id="g1640">
      <path
         style="fill:#fefefc;fill-opacity:1;stroke:none;stroke-width:1px;stroke-linecap:butt;stroke-linejoin:miter;stroke-opacity:1"
         d="m 14.720806,10.561785 c 0,0 9.597674,16.254004 11.294763,14.90415 1.697089,-1.349855 0.818511,-4.947517 -0.23527,-6.795933 2.768824,-2.242533 1.983089,-12.9634013 -11.059493,-8.108217 z"
         id="path7140" />
      <path
         style="fill:#f6de1c;stroke-width:0.096"
         d="m 14.832,30.561549 c -7.2519359,-1.523078 -8.8514105,-8.752276 -2.04,-9.220256 0.462,-0.03174 0.84,-0.0893 0.84,-0.127902 0,-0.0386 -0.115029,-0.321446 -0.255621,-0.628539 -0.427081,-0.932867 -0.424452,-1.767898 0.0078,-2.476482 0.461514,-0.756557 0.43585,-0.82837 -0.296031,-0.82837 -4.4761205,0 -5.0234198,-4.989939 -0.825153,-7.5232346 3.18022,-1.9189929 10.266355,-1.6200977 13.324324,0.5620236 2.776896,1.981551 3.296005,6.32102 0.968763,8.098311 -0.546165,0.4171 -0.546165,0.4171 0.07269,1.073121 2.38316,2.526276 1.95972,6.927181 -0.886142,9.209841 -2.242439,1.798657 -7.190357,2.642832 -10.910628,1.861487 z m 11.767665,-6.297548 c 0.500271,-1.837747 -0.718331,-4.069982 -2.615345,-4.79079 -1.171491,-0.445132 -1.047738,1.163834 0.261307,3.397379 0.181705,0.310034 0.330374,0.585124 0.330374,0.611312 0,0.106132 0.699637,0.75834 1.034161,0.964054 0.581497,0.357591 0.856389,0.307042 0.989503,-0.181955 z m -0.238788,-8.633164 c 1.686137,-3.260631 -4.499511,-6.5421473 -10.269321,-5.447925 -1.339451,0.254021 -0.399948,1.238905 1.186729,1.244053 1.667395,0.0054 2.401603,0.146931 3.841716,0.74051 0.861881,0.355246 2.216524,1.321219 2.591688,1.848088 1.138185,1.598433 2.293594,2.302914 2.649188,1.615274 z"
         id="path1650" />
      <path
         style="fill:#d0af06;stroke-width:0.096"
         d="m 15.726333,30.712538 c -3.886049,-0.570089 -6.1688327,-2.16224 -6.993658,-4.877798 -0.7668574,-2.524711 1.2051771,-4.522739 4.4639,-4.522739 0.547942,0 0.555246,-0.02354 0.225772,-0.727609 -0.523062,-1.117758 -0.467888,-1.878013 0.209937,-2.892771 0.238368,-0.356856 0.34061,-0.305287 -1.008123,-0.508477 C 6.5818248,16.272849 9.3363096,9.3594662 16.032,8.6299281 c 8.039685,-0.8759748 13.146355,2.6124269 11.665042,7.9684709 -0.292493,1.057582 -0.430163,1.260474 -1.346751,1.984789 -0.373546,0.295188 -0.373546,0.295188 0.222059,0.877986 2.687147,2.629373 1.811564,7.791975 -1.660349,9.789721 -2.1574,1.241372 -6.249065,1.892447 -9.185668,1.461643 z m 2.368251,-3.927736 c 0.31602,-0.05175 0.692271,-0.181097 0.836112,-0.287444 0.143841,-0.106347 0.319401,-0.193357 0.390132,-0.193357 0.261931,0 0.382401,-0.616776 0.19658,-1.006446 -0.152869,-0.320571 -0.19499,-0.347312 -0.458863,-0.291306 -1.272996,0.270183 -1.432423,0.202477 -2.258545,-0.959165 -0.632815,-0.889827 -1.143533,-1.100533 -2.841331,-1.172237 -2.075733,-0.08767 -2.867689,0.213228 -2.282315,0.867141 1.854021,2.071105 4.549204,3.348862 6.41823,3.042814 z m 7.609387,-0.312801 c 1.761804,-1.822349 1.070857,-5.681834 -1.215182,-6.78775 -0.814666,-0.394109 -0.8139,-0.390799 -0.174067,-0.751899 3.069794,-1.732484 2.820604,-6.366633 -0.426294,-7.927711 -4.368171,-2.1001763 -13.456768,-0.707945 -10.072763,1.542989 0.833002,0.554088 0.79413,0.546387 2.840335,0.562656 2.802828,0.02228 3.76657,0.489125 4.334858,2.099824 0.176007,0.498859 -0.04721,1.733612 -0.351992,1.94709 -0.104976,0.07353 -0.190865,0.176245 -0.190865,0.228258 0,0.129583 -0.299324,0.426625 -0.504,0.500159 -0.0924,0.0332 -0.173883,0.158913 -0.181074,0.279371 -0.01307,0.219012 -0.01307,0.219012 -0.05468,0.003 -0.04359,-0.226307 -0.260414,-0.278708 -0.50732,-0.122605 -0.160813,0.101671 -0.523989,-0.08715 -0.777537,-0.40426 -0.156037,-0.195152 -1.589518,-0.235009 -1.77517,-0.04936 -0.261672,0.261674 1.364273,1.123954 1.805398,0.957448 0.161983,-0.06114 0.333277,-0.08721 0.380653,-0.05793 0.04737,0.02928 0.143313,0.0058 0.213195,-0.05221 0.09442,-0.07836 0.158008,-0.06816 0.247549,0.03974 0.06627,0.07985 0.169202,0.146346 0.228737,0.147766 0.397556,0.0095 1.692246,2.071016 1.692246,2.694559 0,0.103963 0.07291,0.349635 0.162015,0.54594 0.189312,0.417051 0.210354,0.603756 0.214765,1.905508 0.0051,1.499496 0.147976,1.67506 1.78322,2.190923 0.4752,0.149908 1.1016,0.392363 1.392,0.538787 0.661594,0.333585 0.581671,0.336173 0.93597,-0.0303 z"
         id="path1648" />
      <path
         style="fill:#ae9102;stroke-width:0.096"
         d="M 15.984,30.722018 C 12.019937,30.144293 9.8391651,28.770745 8.8986412,26.259342 7.8386936,23.429051 9.7654054,21.319188 13.416,21.312567 c 0.375207,-6.72e-4 0.374523,0.0061 0.06513,-0.647871 -0.549507,-1.161566 -0.53458,-1.840676 0.0602,-2.738626 0.368276,-0.555996 0.339072,-0.603941 -0.414921,-0.68119 C 8.6073908,16.781893 8.0139293,12.647919 12.078853,9.9477439 15.720055,7.529031 23.755343,8.236558 26.516578,11.219022 c 1.877907,2.028363 1.905456,5.791215 0.05223,7.13378 -0.681255,0.493535 -0.682899,0.456447 0.05421,1.223513 2.271314,2.363637 1.910457,6.72757 -0.740408,8.953954 -1.964887,1.650249 -6.588924,2.674104 -9.898605,2.191749 z m 8.256001,-2.962892 c 3.216566,-1.522969 3.350871,-6.598912 0.21529,-8.136745 -0.673726,-0.330426 -0.673957,-0.334824 -0.0364,-0.694637 2.333216,-1.316785 2.824857,-4.854671 0.950709,-6.841367 -2.32288,-2.4623748 -9.825385,-2.9591769 -12.581173,-0.833102 -0.453811,0.350113 -1.152245,1.186504 -1.061677,1.271383 0.01829,0.01714 0.20337,0.101691 0.411292,0.187892 0.20792,0.0862 0.609909,0.310635 0.893308,0.498744 0.283397,0.188109 0.890881,0.512828 1.349961,0.721597 1.278967,0.581619 1.500409,0.697288 1.583463,0.827109 0.118921,0.185887 0.239581,0.149007 0.853278,-0.260804 1.470286,-0.981819 2.926049,-0.242043 2.741726,1.393265 -0.107519,0.953912 -0.699679,1.340703 -2.262516,1.477848 -0.893878,0.07844 -1.335642,0.17777 -1.53591,0.345347 -0.01686,0.01411 0.01089,0.105454 0.06167,0.202996 0.05078,0.09754 0.141175,0.300385 0.200883,0.450763 0.07502,0.188943 0.154919,0.255626 0.258608,0.215837 0.105118,-0.04034 0.182613,0.0287 0.258815,0.230585 0.07639,0.202377 0.172946,0.288163 0.324344,0.288163 0.118567,0 0.261816,0.0864 0.318331,0.192 0.05652,0.1056 0.164516,0.192 0.24,0.192 0.07549,0 0.185664,0.09047 0.244843,0.201048 0.06527,0.121964 0.172736,0.184012 0.273197,0.157741 0.344813,-0.09017 1.178048,0.878482 0.970642,1.12839 -0.06227,0.07503 -0.08417,0.183395 -0.04868,0.240822 0.03549,0.05743 0.01776,0.16076 -0.0394,0.229633 -0.07747,0.09334 -0.05434,0.170096 0.09083,0.301478 0.751933,0.68049 0.892103,2.488089 0.233134,3.006433 -0.811072,0.63799 -1.401222,0.477409 -2.212109,-0.601919 -0.739991,-0.984963 -1.282125,-1.237644 -2.920464,-1.361182 -2.385568,-0.179884 -4.6582799,1.05879 -3.071551,1.674056 0.317045,0.122938 0.879298,0.457518 1.249449,0.743512 0.370151,0.285993 0.698874,0.519989 0.730494,0.519989 0.03162,0 0.365769,0.191471 0.74255,0.425492 0.676611,0.420245 2.258957,1.028068 2.994337,1.150208 0.640853,0.106439 2.093528,0.146826 2.198952,0.06113 0.647364,-0.526197 4.133991,-0.148506 4.472774,0.484517 0.129301,0.241599 0.226616,0.231919 0.906996,-0.09023 z"
         id="path1646" />
      <path
         style="fill:#8c6e0c;stroke-width:0.096"
         d="M 14.881626,30.474286 C 11.417358,29.740429 9.6805625,28.471813 8.8862751,26.095074 8.0083375,23.468028 9.538911,21.634207 12.773974,21.437118 c 1.098193,-0.0669 1.093562,-0.06098 0.690832,-0.883549 -0.429581,-0.877407 -0.42392,-1.721193 0.01641,-2.445199 0.289234,-0.475574 0.42393,-0.82837 0.31627,-0.82837 -5.1610005,0 -5.945216,-4.886759 -1.221482,-7.6115374 2.907706,-1.6772441 9.990297,-1.3405977 12.824786,0.6095814 2.790553,1.919952 3.426103,6.371488 1.149752,8.053127 -0.713549,0.52713 -0.712971,0.501237 -0.02633,1.177869 2.512176,2.47557 1.893383,7.299728 -1.20634,9.404709 -2.332544,1.584 -7.018064,2.284628 -10.436239,1.560537 z m 6.21992,-1.527514 c 3.98988,-0.59927 5.988081,-2.722749 5.588439,-5.938806 -0.217392,-1.749424 -0.860315,-2.758609 -2.165115,-3.398543 -0.630124,-0.309041 -0.638048,-0.347781 -0.124703,-0.60967 2.405407,-1.227147 2.909169,-5.084658 0.918799,-7.035613 -2.224452,-2.1803996 -9.188686,-2.8237381 -12.079217,-1.115848 -2.497169,1.475469 -3.193501,4.38865 -1.060624,4.437233 0.282939,0.0064 0.503491,0.05967 0.529642,0.12782 0.0607,0.158178 1.59649,0.367295 2.222769,0.302657 0.626295,-0.06464 1.004934,-0.257052 1.669213,-0.848244 1.170883,-1.042057 2.396335,-0.898651 2.787773,0.326232 0.388667,1.21621 -0.369477,1.939533 -2.199451,2.098433 -2.114437,0.1836 -2.623087,0.573212 -2.607084,1.996959 0.01831,1.628908 0.481988,2.065952 2.34004,2.205617 1.958994,0.147252 2.47931,0.577311 2.487842,2.056286 0.0045,0.786924 -0.177986,1.1447 -0.688123,1.348816 -0.792252,0.316996 -1.122315,0.184588 -1.71928,-0.689704 -0.797076,-1.167369 -1.538342,-1.466428 -3.631009,-1.46491 -2.519191,0.0018 -3.7415873,1.038739 -3.155693,2.676856 0.272056,0.760649 0.490705,0.977658 0.985049,0.977658 0.488289,0 1.069102,0.240526 3.007187,1.245335 0.1848,0.09581 0.552,0.240917 0.816,0.322458 0.731322,0.225884 1.489032,0.521554 1.624321,0.633834 0.06674,0.05539 0.149941,0.07211 0.184891,0.03716 0.03495,-0.03495 0.178341,0.04103 0.318647,0.168833 0.140306,0.127809 0.223986,0.178379 0.185956,0.112379 -0.136292,-0.23653 0.05235,-0.332133 0.264313,-0.133955 0.333041,0.311385 1.989745,0.387476 3.499418,0.160727 z"
         id="path1644" />
      <path
         style="fill:#7c5900;stroke-width:0.096"
         d="m 15.739467,30.529124 c -7.7233592,-1.237909 -9.9548381,-8.52045 -2.755467,-8.9926 1.090467,-0.07152 1.079275,-0.05396 0.624,-0.978658 -0.468173,-0.950898 -0.452535,-1.771868 0.048,-2.519803 0.531945,-0.794867 0.476071,-0.949357 -0.343851,-0.950736 C 6.8794875,17.076516 9.252191,9.5631774 15.915766,8.8427863 24.035438,7.9649782 29.084533,11.379605 27.468902,16.656 c -0.307198,1.003261 -0.381602,1.106995 -1.294006,1.804093 -0.462997,0.353742 -0.444746,0.475895 0.153105,1.024714 2.821131,2.589758 1.850308,7.854787 -1.800521,9.764696 -2.011085,1.052088 -6.305909,1.677456 -8.788013,1.279621 z m 5.668534,-1.474371 c 3.602712,-0.751686 5.478113,-2.593196 5.470333,-5.371478 -0.0053,-1.878122 -0.783525,-3.384347 -2.115521,-4.094294 -0.58159,-0.309984 -0.58159,-0.309984 -0.166883,-0.572984 3.788945,-2.402877 2.388596,-7.596478 -2.371929,-8.796992 -5.511892,-1.3899938 -10.9961,0.355064 -11.525774,3.667466 -0.323146,2.020843 4.038989,2.82719 5.946976,1.099308 1.185656,-1.073736 2.320221,-0.949449 2.654172,0.290754 0.314768,1.168956 -0.549551,1.905371 -2.2401,1.908607 -1.842018,0.0035 -2.618573,0.639683 -2.601954,2.131534 0.01834,1.645941 0.542626,2.138893 2.422858,2.278031 1.896112,0.140315 2.455557,0.607872 2.399764,2.005609 -0.06356,1.59234 -1.258143,1.870768 -2.18303,0.508811 -1.428082,-2.102943 -6.542718,-2.034667 -7.1161758,0.09499 -0.9179916,3.40916 5.4271248,6.10253 11.4272638,4.850634 z"
         id="path1642" />
    </g>
  </g>
</svg>
