<svg xmlns="http://www.w3.org/2000/svg" width="19" height="21"><path d="M8.194 2.495c1.5 5.067 6.154 15.228 8.189 13.686s1.667-3.295 1.667-3.295l-1.832-1.74s-.014-7.859-.676-8.378C13.256.98 8.194 2.495 8.194 2.495z" fill="#fff"/><path d="M11.381 20.953c-2.163-.198-3.656-1.252-3.795-2.677-.051-.529-.051-.529-2.606-.573s-2.555-.044-3.027-.306C.313 16.489-.382 14.77.207 13.079c.316-.907 4.616-9.884 4.964-10.366C6.701.6 13.147.13 15.301 1.974c1.161.994 1.292 1.55 1.349 5.731.047 3.435.047 3.435.655 3.631 2.352.755 2.219 5.633-.168 6.199l-.551.134c-.073.019-.111.216-.112.583-.005 1.365-1.439 2.482-3.432 2.673l-.707.071c-.121.013-.551-.006-.954-.043zm6.162-6.398c.417-1.072-.295-2.135-1.487-2.22-.682-.048-.682-.048-.733-3.88-.06-4.563-.141-4.966-1.118-5.58-.903-.568-3.233-.856-4.639-.573-1.15.231-.445 1.134 1.227 1.572 1.146.3 1.869.812 2.445 1.73.415.661.434.819.453 3.732.016 2.504.029 2.617.376 3.334.451.934 1.324 1.608 2.541 1.961.731.212.826.205.935-.076z" fill="#ffe35c"/><path d="M10.58 20.826c-1.709-.371-2.854-1.343-2.986-2.536-.06-.543-.06-.543-2.615-.587s-2.555-.044-2.995-.302C.302 16.415-.365 14.81.208 13.123c.505-1.49 4.786-10.226 5.235-10.684C7.385.455 13.59.278 15.465 2.153c1.033 1.033 1.183 1.765 1.185 5.777.002 3.287.008 3.342.394 3.344 2.61.012 2.542 5.71-.075 6.298-.449.101-.449.101-.51.773-.176 1.923-2.986 3.109-5.878 2.482zm4.419-4.41c.034-.054.412-.118.839-.142.979-.056 1.281-.201 1.464-.705.726-2.001.289-3.12-1.266-3.234-.661-.049-.661-.049-.711-3.925-.052-4.026-.064-4.151-.457-4.841-.844-1.483-5.127-1.894-7.451-.716-.72.365-.761.464-.409.978.165.241.302.529.304.64.004.246.415 1.077.61 1.231.278.221.803.444.853.364.028-.045.152-.002.276.096s.28.178.346.178c.156 0 1.177 1.02 1.177 1.176 0 .065.099.304.219.531s.211.507.202.623a.99.99 0 0 0 .111.452c.1.188.104.25.019.279-.073.025-.11.23-.11.611 0 .689-.2 1.428-.466 1.725a3.02 3.02 0 0 0-.292.383c-.097.166-.396.137-.926-.09-.1-.043-.157-.007-.19.121-.05.192-2.798.188-3.008-.005-.049-.045.142-.54.474-1.23.824-1.711.804-2.14-.101-2.251-1.227-.15-2.637 2.953-1.935 4.258.483.899 2.654 1.416 4.154.99.86-.244 1.886.008 2.188.537.081.142.211.258.289.259s.245.156.371.346.309.371.408.402.18.099.18.151c0 .124 1.067 1.128 1.198 1.128.056 0 .15.058.209.13s.252.157.427.19.439.133.586.222c.266.162.266.162.311-.3.025-.254.073-.506.108-.56z" fill="#ebc500"/><path d="M11.146 20.906c-2.023-.324-3.477-1.383-3.481-2.537-.002-.686.146-.647-2.642-.681-2.377-.028-2.529-.04-2.868-.221C.309 16.481-.397 14.76.297 12.939c.334-.875 4.607-9.77 4.883-10.164C6.677.637 13.143.155 15.266 2.023c1.187 1.045 1.321 1.615 1.366 5.798.026 2.455.064 3.383.138 3.405 1.239.362 1.614.647 1.916 1.452.469 1.253.221 3.287-.504 4.134-.359.42-.62.573-1.23.724-.536.133-.561.17-.563.854-.004 1.624-2.707 2.921-5.243 2.515zm3.328-1.999c.468-.195.518-.322.579-1.444.056-1.037.056-1.037.864-1.088 1.144-.072 1.387-.269 1.604-1.297.379-1.792-.094-2.676-1.498-2.799-.685-.06-.685-.06-.711-3.991-.03-4.468-.024-4.429-.802-5.191-1.418-1.389-6.843-1.168-8.104.33-.259.308-1.137 2.481-1.159 2.868a1.56 1.56 0 0 1-.231.749c-.045.073-.149.261-.23.418s-.19.287-.242.289c-.347.009-1.2 2.299-1.156 3.103.146 2.668 1.08 3.55 3.945 3.724.498.03 1.004.089 1.125.131a44.91 44.91 0 0 0 .969.303c.776.235.778.236 2.114 1.493.17.159.665.589 1.101.954.947.794 1.148 1.003 1.269 1.323.104.275.166.289.561.124zm-7.711-6.729c-.375-.017-.683-.05-.683-.071 0-.124 2.575-5.234 2.682-5.323.282-.234.313-.013.303 2.182-.016 3.626.198 3.328-2.303 3.212z" fill="#bda00d"/><path d="M10.43 20.705c-1.741-.468-2.632-1.265-2.75-2.462-.058-.583-.058-.583-2.656-.627-2.944-.05-2.936-.048-3.927-.984-1.74-1.644-1.394-2.88 3.622-12.937 1.021-2.047 2.441-2.673 6.075-2.68 5.005-.01 5.766.905 5.769 6.935.001 3.665-.086 3.265.758 3.49 2.287.611 2.026 5.591-.316 6.042-.615.118-.591.087-.634.829-.11 1.901-3.176 3.137-5.94 2.394zm3.506-1.434c1.061-.322 1.168-.477 1.203-1.734.029-1.067.029-1.067.661-1.069 1.206-.004 1.633-.377 1.823-1.597.271-1.743-.286-2.63-1.652-2.63-.538 0-.538 0-.57-3.854-.05-5.824-.357-6.236-4.65-6.226-3.075.007-4.233.551-5.048 2.372-.217.485-.959 2.07-1.648 3.524-2.435 5.134-2.629 5.658-2.064 5.566.322-.052 1.298.465 1.475.781.039.07.124.127.188.127s.168.061.23.136.16.118.218.096.22.035.36.128.364.168.497.169.242.037.242.082.129.109.286.142.334.1.393.147.142.063.187.036.353-.011.687.037.804.102 1.047.12c.45.034 1.551.367 2.027.613.234.121 1.423 1.293 1.604 1.582.038.06.18.18.316.266.175.111.232.204.195.321-.029.09-.011.189.04.221s.092.23.092.441c0 .294.036.393.154.421.289.067 1.122-.039 1.711-.217z" fill="#9d7d07"/><path d="M10.618 20.641c-1.71-.365-2.727-1.253-2.849-2.487-.058-.583-.058-.583-2.656-.627s-2.599-.044-3.066-.303c-1.568-.869-2.236-2.583-1.633-4.19.321-.853 4.625-9.808 4.9-10.193C6.824.722 13.405.353 15.331 2.279c1.008 1.008 1.142 1.688 1.144 5.802.002 3.643-.111 3.201.887 3.489 2.035.588 1.853 5.249-.225 5.764l-.595.142c-.224.05-.242.087-.242.489 0 2.077-2.646 3.323-5.682 2.676zm2.991-1.141c1.372-.354 1.634-.676 1.634-2.012 0-.929 0-.929.49-.929 1.203 0 1.686-.351 1.924-1.398.437-1.922-.145-3.006-1.613-3.006-.526 0-.526 0-.554-3.854-.043-5.841-.499-6.401-5.091-6.248-3.871.129-3.553-.229-7.72 8.674C.37 15.661.67 16.202 5.755 16.267c3.436.044 3.212 0 3.314.642.059.371.13.51.349.682.252.197.276.259.276.724 0 .377.04.541.154.636.275.227.955.514 1.434.605.258.049.491.113.519.142.078.081 1.211-.042 1.809-.196zm-7.441-7.412c-.001-.079 2.131-4.301 2.457-4.867.347-.602.458.789.304 3.81-.048.937-2.755 1.973-2.761 1.057z" fill="#7d5a00"/></svg>