<?xml version="1.0" encoding="UTF-8" standalone="no"?>
<!-- Created with Inkscape (http://www.inkscape.org/) -->

<svg
   version="1.1"
   id="svg1258"
   width="19"
   height="21"
   viewBox="0 0 20.705628 21.98583"
   xmlns="http://www.w3.org/2000/svg"
   xmlns:svg="http://www.w3.org/2000/svg">
  <defs
     id="defs1262" />
  <g
     id="g1264"
     transform="translate(-8.5410206,-8.4864871)">
    <g
       id="g1704">
      <path
         style="fill:#ffffff;fill-opacity:1;stroke:none;stroke-width:1px;stroke-linecap:butt;stroke-linejoin:miter;stroke-opacity:1"
         d="m 17.470536,10.305901 c 1.634675,5.522261 6.706111,16.595062 8.92393,14.914757 2.21782,-1.680306 1.81649,-3.590566 1.81649,-3.590566 L 26.215039,19.73421 c 0,0 -0.01478,-8.564849 -0.736917,-9.129913 -2.491584,-1.9496447 -8.007586,-0.298396 -8.007586,-0.298396 z"
         id="path6271" />
      <path
         style="fill:#f6de1a;stroke-width:0.096"
         d="m 20.943829,30.420807 c -2.356704,-0.216286 -3.98473,-1.364469 -4.135781,-2.916806 -0.05605,-0.576 -0.05605,-0.576 -2.840048,-0.624 -2.784,-0.048 -2.784,-0.048 -3.299051,-0.333272 C 8.8817422,25.556847 8.1243441,23.682615 8.7669073,21.840001 9.1115394,20.851735 13.796827,11.068333 14.177028,10.543068 15.84334,8.2409796 22.867764,7.7288778 25.215367,9.7383394 c 1.265446,1.0831736 1.408028,1.6890156 1.469843,6.2454886 0.05079,3.743828 0.05079,3.743828 0.71431,3.956908 2.563024,0.82308 2.418623,6.138675 -0.183519,6.755658 -0.264,0.0626 -0.534,0.128159 -0.6,0.145696 -0.07958,0.02115 -0.120711,0.234994 -0.122108,0.634899 -0.0052,1.487476 -1.568243,2.705085 -3.739818,2.913318 -0.291541,0.02796 -0.638074,0.06278 -0.770074,0.07738 -0.132,0.0146 -0.600077,-0.0065 -1.040172,-0.04688 z m 6.71564,-6.972806 c 0.454597,-1.168398 -0.321402,-2.327134 -1.620173,-2.41927 -0.743295,-0.05273 -0.743295,-0.05273 -0.798419,-4.22873 -0.06564,-4.972662 -0.153534,-5.411497 -1.217847,-6.080493 -0.984569,-0.61887 -3.522702,-0.9323814 -5.055793,-0.624492 -1.252915,0.251621 -0.484525,1.236269 1.336764,1.712985 1.248495,0.326789 2.036626,0.884362 2.664524,1.885048 0.45195,0.720277 0.472837,0.892413 0.493479,4.066952 0.01774,2.728393 0.03164,2.851791 0.409316,3.633493 0.491661,1.01763 1.443155,1.752185 2.768681,2.137424 0.796635,0.231528 0.900409,0.223088 1.019468,-0.08292 z"
         id="path1714" />
      <path
         style="fill:#d0b007;stroke-width:0.096"
         d="M 20.070913,30.282914 C 18.208085,29.878932 16.960668,28.819567 16.817282,27.519777 16.752,26.928001 16.752,26.928001 13.968,26.880001 c -2.784,-0.048 -2.784,-0.048 -3.264,-0.329279 C 8.8700585,25.476038 8.1432003,23.726195 8.7671769,21.888001 9.3181363,20.264912 13.983184,10.744106 14.472159,10.244813 16.589112,8.0831919 23.351485,7.8904321 25.394527,9.9334738 c 1.12591,1.1259102 1.289672,1.9239662 1.291807,6.2953272 0.0017,3.581615 0.0089,3.642136 0.428867,3.644138 2.84417,0.01355 2.769753,6.222138 -0.08226,6.86325 -0.488937,0.109909 -0.488937,0.109909 -0.555967,0.842018 -0.19185,2.095393 -3.254014,3.388273 -6.406058,2.704707 z m 4.81544,-4.805446 c 0.03758,-0.05859 0.448952,-0.128234 0.914153,-0.154759 1.0666,-0.06081 1.395485,-0.21932 1.594907,-0.768663 0.791563,-2.180495 0.314477,-3.399595 -1.379412,-3.524819 -0.72,-0.05323 -0.72,-0.05323 -0.775078,-4.277226 -0.0572,-4.387085 -0.07013,-4.524038 -0.497955,-5.275535 -0.919892,-1.6158505 -5.587201,-2.0643006 -8.119477,-0.780146 -0.784645,0.397904 -0.829758,0.505727 -0.445897,1.065728 0.18019,0.262874 0.329146,0.576589 0.331013,0.697144 0.0042,0.268433 0.452632,1.173625 0.664763,1.34174 0.303358,0.240412 0.874872,0.484343 0.929124,0.396562 0.03021,-0.04888 0.165732,-0.0017 0.301162,0.104817 0.135431,0.106529 0.305211,0.19369 0.377291,0.19369 0.16992,0 1.283054,1.11196 1.283054,1.281702 0,0.07133 0.107417,0.331727 0.238705,0.578645 0.131288,0.246919 0.23015,0.552319 0.219694,0.678667 -0.01046,0.126346 0.04412,0.348225 0.121294,0.493062 0.108994,0.204572 0.113525,0.272334 0.02031,0.303633 -0.07959,0.02672 -0.12,0.250824 -0.12,0.665516 0,0.750667 -0.217616,1.555951 -0.507988,1.879798 -0.116607,0.130051 -0.259786,0.317809 -0.318176,0.417242 -0.106189,0.18083 -0.431995,0.149034 -1.00922,-0.09849 -0.108801,-0.04666 -0.170915,-0.0072 -0.207188,0.131472 -0.05473,0.209274 -3.049519,0.204412 -3.278445,-0.0053 -0.05316,-0.0487 0.154995,-0.588557 0.516747,-1.340204 0.897498,-1.864818 0.87645,-2.332415 -0.110428,-2.453277 -1.337449,-0.163795 -2.873783,3.217632 -2.108378,4.640484 0.526749,0.979203 2.892245,1.542918 4.527075,1.078835 0.937685,-0.266183 2.055523,0.0084 2.383911,0.585636 0.08805,0.154765 0.229949,0.281663 0.315332,0.281997 0.08538,2.88e-4 0.267322,0.169968 0.404305,0.376965 0.136984,0.206997 0.337125,0.404308 0.444758,0.438469 0.107632,0.03416 0.195695,0.108143 0.195695,0.164403 0,0.13463 1.162635,1.22877 1.305694,1.22877 0.06094,0 0.163627,0.06366 0.228197,0.14146 0.06457,0.0778 0.274183,0.170871 0.465805,0.206821 0.191623,0.03595 0.478882,0.145021 0.638354,0.242383 0.28995,0.177024 0.28995,0.177024 0.33896,-0.32682 0.02696,-0.277114 0.07976,-0.551783 0.117342,-0.610377 z"
         id="path1712" />
      <path
         style="fill:#ab8f03;stroke-width:0.096"
         d="m 20.688001,30.369639 c -2.204794,-0.352637 -3.789663,-1.507586 -3.79347,-2.764432 -0.0023,-0.747256 0.159597,-0.705564 -2.87924,-0.741622 -2.590873,-0.03074 -2.755916,-0.04347 -3.125941,-0.241119 C 8.8775906,25.547892 8.1078626,23.671796 8.8646955,21.687679 9.2282929,20.73447 13.885584,11.040201 14.186109,10.611023 15.81763,8.2810552 22.863985,7.7558126 25.176937,9.7917547 c 1.29327,1.1383823 1.439818,1.7602913 1.488928,6.3186153 0.02883,2.675929 0.06995,3.687236 0.150882,3.710903 1.349782,0.394707 1.759085,0.705036 2.087459,1.582695 0.511058,1.365924 0.240955,3.582076 -0.549069,4.505042 -0.391616,0.457516 -0.67548,0.624687 -1.340635,0.789519 -0.584266,0.144786 -0.611222,0.185689 -0.613032,0.93024 -0.0043,1.770016 -2.949585,3.18293 -5.713469,2.74087 z m 3.627083,-2.178767 c 0.509531,-0.212987 0.564741,-0.350566 0.631367,-1.573299 0.06155,-1.129572 0.06155,-1.129572 0.941493,-1.185252 1.246755,-0.07889 1.511244,-0.292651 1.748382,-1.413045 0.413257,-1.952491 -0.10289,-2.916706 -1.632758,-3.050158 -0.746461,-0.06512 -0.746461,-0.06512 -0.775014,-4.349116 -0.03245,-4.868669 -0.02595,-4.826573 -0.874132,-5.656944 -1.545807,-1.5133394 -7.457758,-1.272637 -8.831158,0.359557 -0.282101,0.335258 -1.239426,2.703498 -1.263389,3.125386 -0.01717,0.302236 -0.101075,0.574593 -0.251393,0.816 -0.04932,0.0792 -0.1622,0.2844 -0.250854,0.456 -0.08865,0.1716 -0.207187,0.313174 -0.263408,0.314609 -0.377922,0.0096 -1.307354,2.505604 -1.259377,3.382014 0.159141,2.907094 1.177242,3.868269 4.298655,4.058299 0.542576,0.03303 1.094502,0.09718 1.226502,0.142541 0.132,0.04537 0.6072,0.193752 1.056,0.32975 0.845518,0.256211 0.847552,0.257647 2.304001,1.62713 0.1848,0.173765 0.7248,0.641787 1.2,1.040048 1.032403,0.865249 1.251302,1.093388 1.383229,1.441609 0.113745,0.300231 0.180867,0.315026 0.611854,0.134871 z M 15.912,20.858335 c -0.4092,-0.01893 -0.744,-0.05395 -0.744,-0.07782 0,-0.134815 2.806283,-5.703493 2.923064,-5.800413 0.307487,-0.255192 0.34103,-0.0139 0.330518,2.377569 -0.01737,3.951683 0.215597,3.62671 -2.509582,3.500668 z"
         id="path1710" />
      <path
         style="fill:#8c7009;stroke-width:0.096"
         d="M 19.907777,30.150507 C 18.009971,29.640564 17.039884,28.77194 16.910809,27.466994 16.848,26.832001 16.848,26.832001 14.016,26.784001 10.807277,26.729616 10.816049,26.731814 9.7365919,25.712008 7.8404362,23.920634 8.2175448,22.573784 13.684116,11.613363 14.796548,9.3829479 16.34412,8.7001084 20.304001,8.6924541 c 5.454455,-0.010543 6.283939,0.9866475 6.286581,7.5576049 0.0016,3.994437 -0.0932,3.557959 0.826154,3.803577 2.492549,0.665921 2.208372,6.093415 -0.344735,6.584121 -0.670616,0.128891 -0.644338,0.09454 -0.691166,0.903468 -0.119953,2.072103 -3.460628,3.418725 -6.473058,2.609282 z m 3.82121,-1.562357 c 1.155716,-0.350608 1.273321,-0.520094 1.311054,-1.889414 0.03204,-1.162735 0.03204,-1.162735 0.72,-1.164843 1.314713,-0.004 1.779438,-0.411171 1.986164,-1.740059 0.295522,-1.899701 -0.311517,-2.865833 -1.800658,-2.865833 -0.585834,0 -0.585834,0 -0.621655,-4.2 -0.05413,-6.346642 -0.389385,-6.7954661 -5.067891,-6.7846517 -3.351321,0.00775 -4.61299,0.6004857 -5.501529,2.5846517 -0.236446,0.528 -1.044636,2.256 -1.795977,3.84 -2.653574,5.59435 -2.865488,6.165747 -2.24962,6.065805 0.350481,-0.05688 1.414097,0.506714 1.607083,0.851563 0.04267,0.07625 0.134947,0.138632 0.205058,0.138632 0.07011,0 0.182886,0.06677 0.25061,0.148369 0.06772,0.0816 0.174838,0.128529 0.238032,0.104279 0.06319,-0.02425 0.239872,0.0383 0.392619,0.138999 0.152748,0.100698 0.396523,0.183373 0.541723,0.183721 0.1452,3.84e-4 0.264,0.0404 0.264,0.089 0,0.0486 0.1404,0.118394 0.312,0.155086 0.1716,0.03669 0.364108,0.108643 0.427796,0.159892 0.06369,0.05125 0.155169,0.06884 0.203294,0.0391 0.04813,-0.02974 0.384817,-0.01157 0.748205,0.04039 0.363388,0.05196 0.876705,0.110661 1.140705,0.130449 0.490487,0.03676 1.690242,0.399621 2.208477,0.667938 0.254898,0.131975 1.550381,1.409396 1.748412,1.724036 0.04131,0.06564 0.19606,0.196307 0.343886,0.290377 0.190883,0.121471 0.252348,0.222789 0.212094,0.349616 -0.03117,0.09822 -0.01172,0.206365 0.04323,0.240325 0.05495,0.03396 0.09991,0.250428 0.09991,0.48104 0,0.320443 0.03961,0.428507 0.168,0.458371 0.315008,0.07327 1.222736,-0.04201 1.864986,-0.236849 z m -8.465504,-7.828149 c -5.76e-4,-0.08631 2.322382,-4.68756 2.677709,-5.303829 0.378386,-0.656264 0.499491,0.860022 0.331604,4.151829 -0.05208,1.021109 -3.00214,2.150427 -3.009313,1.152 z"
         id="path1708" />
      <path
         style="fill:#7c5900;stroke-width:0.096"
         d="M 20.112001,30.080955 C 18.248673,29.683354 17.13981,28.715627 17.006809,27.370994 16.944,26.736001 16.944,26.736001 14.112,26.688001 c -2.832,-0.048 -2.832,-0.048 -3.341522,-0.330262 -1.7088792,-0.946678 -2.4370868,-2.815268 -1.7793109,-4.565738 0.3493062,-0.929572 5.0405079,-10.688529 5.3399179,-11.10846 1.646423,-2.3091576 8.817907,-2.7116919 10.916839,-0.61276 1.098223,1.098223 1.244264,1.839113 1.24641,6.323278 0.0019,3.969977 -0.120688,3.487843 0.966668,3.801854 2.21768,0.640429 2.01956,5.72006 -0.245001,6.281612 -0.2112,0.05237 -0.5028,0.121978 -0.648,0.154678 -0.244276,0.05501 -0.264,0.09483 -0.264,0.532902 0,2.263743 -2.883831,3.621756 -6.192,2.91585 z m 3.259849,-1.243514 c 1.495219,-0.385383 1.780151,-0.736343 1.780151,-2.192672 0,-1.012768 0,-1.012768 0.533489,-1.012768 1.311402,0 1.837551,-0.38226 2.097151,-1.523631 0.476409,-2.094611 -0.157698,-3.276369 -1.758033,-3.276369 -0.57356,0 -0.57356,0 -0.604156,-4.2 -0.04637,-6.365256 -0.543686,-6.9755784 -5.548451,-6.8092325 -4.218263,0.1402042 -3.871874,-0.2490141 -8.412517,9.4526925 -2.5167188,5.377314 -2.1894827,5.966655 3.352021,6.036874 3.744287,0.04745 3.500752,2.88e-4 3.611291,0.699536 0.06384,0.403864 0.141733,0.555846 0.380733,0.742892 0.274769,0.21504 0.300472,0.282556 0.300472,0.789317 0,0.41086 0.04344,0.590083 0.168,0.693064 0.29976,0.247838 1.040402,0.560318 1.562958,0.659419 0.280719,0.05324 0.535292,0.122752 0.56572,0.154479 0.08457,0.08818 1.319492,-0.04563 1.971171,-0.213601 z"
         id="path1706" />
    </g>
  </g>
</svg>
