<?xml version="1.0" encoding="UTF-8" standalone="no"?>
<!-- Created with Inkscape (http://www.inkscape.org/) -->

<svg
   version="1.1"
   id="svg1057"
   width="19"
   height="21"
   viewBox="0 0 18.014229 21.718208"
   xmlns="http://www.w3.org/2000/svg"
   xmlns:svg="http://www.w3.org/2000/svg">
  <defs
     id="defs1061" />
  <g
     id="g1063"
     transform="translate(-8.5608587,-8.5149254)">
    <g
       id="g1800">
      <path
         style="fill:#fefefd;stroke-width:0.0206574"
         d="m 11.30095,12.070062 c 0,-2.2176884 0,-2.2176884 7.095422,-2.2176884 7.09542,0 7.09542,0 7.09542,2.2176884 0,2.217689 0,2.217689 -7.09542,2.217689 -7.095422,0 -7.095422,0 -7.095422,-2.217689 z"
         id="path1812" />
      <path
         style="fill:#f9ea27;stroke-width:0.096"
         d="m 13.296001,29.962884 c -1.672258,-0.48611 -2.592558,-1.461632 -2.59139,-2.746884 5.76e-4,-0.619937 0.140016,-1.080205 1.8,-5.940957 0.989664,-2.897926 1.79939,-5.301207 1.79939,-5.340621 0,-0.03942 -0.8316,-0.0902 -1.848,-0.112846 C 10.382305,15.775366 10.11241,15.702274 9.5187326,15.026112 8.0208737,13.320145 8.3294731,10.027173 10.096827,8.8574331 10.610415,8.5175105 23.812139,8.3760259 24.669297,8.701258 c 1.185666,0.4498778 1.875109,1.628173 1.873985,3.202742 -9.6e-4,1.319688 -5.702765,16.067052 -6.585481,17.032884 -1.029055,1.12595 -4.486274,1.658404 -6.6618,1.026 z M 24.867257,12.84 C 25.286983,12.097411 25.0804,10.863756 24.43723,10.272 24.178133,10.033617 13.39184,9.874345 12.840584,10.100763 c -0.813588,0.334166 0.93309,1.200185 2.458089,1.218745 0.46787,0.0057 0.893042,0.03654 0.944827,0.06854 0.08663,0.05354 0.45135,0.07884 2.476501,0.171813 0.396,0.01818 1.042014,0.07851 1.435587,0.134066 0.393573,0.05556 0.739173,0.09509 0.768,0.08786 0.178057,-0.04467 0.906872,0.319925 1.701418,0.851149 1.229476,0.822016 1.861667,0.880395 2.242251,0.207059 z"
         id="path1810" />
      <path
         style="fill:#ceae07;stroke-width:0.096"
         d="m 13.515038,29.994918 c -1.180196,-0.28612 -2.153228,-0.961607 -2.589226,-1.797468 -0.445367,-0.85382 -0.412589,-0.995314 1.58929,-6.860694 2.144104,-6.282084 2.170003,-5.57422 -0.205299,-5.611113 -1.893392,-0.02941 -1.911683,-0.03172 -2.302431,-0.29054 C 8.0592194,14.144682 8.1339525,10.118985 10.12906,8.88 10.704139,8.5228698 23.598467,8.3633152 24.614412,8.700758 c 1.178553,0.3914523 1.91289,1.61619 1.920622,3.203242 0.007,1.441417 -5.926389,16.493907 -6.806033,17.266244 -1.016116,0.892162 -4.195254,1.314075 -6.213963,0.824674 z m 6.088103,-3.870191 c 0.158946,-0.3502 1.255275,-3.089666 2.436286,-6.087702 1.18101,-2.998037 2.369683,-5.976179 2.641496,-6.618095 0.55842,-1.318771 0.589321,-1.779746 0.176469,-2.632584 -0.418449,-0.8643994 0.04323,-0.8139092 -7.049391,-0.770949 -7.529773,0.04561 -7.193899,-0.0044 -6.176206,0.919408 0.967988,0.878683 1.65896,1.163203 3.392206,1.396802 3.336115,0.449625 4.655376,2.79091 3.356291,5.956393 -0.06501,0.1584 -0.171199,0.4608 -0.235984,0.672 -0.06478,0.2112 -0.174646,0.5136 -0.244136,0.672 -0.06949,0.1584 -0.181476,0.4608 -0.248856,0.672 -0.06738,0.2112 -0.156891,0.42504 -0.198912,0.4752 -0.04202,0.05016 -0.0764,0.18801 -0.0764,0.306334 0,0.118324 -0.0432,0.241834 -0.096,0.274466 -0.0528,0.03263 -0.096,0.164782 -0.096,0.293666 0,0.128884 -0.04269,0.234334 -0.09487,0.234334 -0.05218,0 -0.08488,0.0756 -0.07267,0.168 0.01221,0.0924 -0.08106,0.587904 -0.207275,1.101119 -0.314482,1.278792 0.02396,2.156059 1.088453,2.821378 0.2442,0.152626 0.624185,0.415104 0.844411,0.583283 0.48416,0.369736 0.498125,0.362647 0.861088,-0.437053 z"
         id="path1808" />
      <path
         style="fill:#ab8f02;stroke-width:0.096"
         d="m 13.920001,30.052818 c -1.416081,-0.262391 -2.466544,-0.927616 -2.944604,-1.864726 -0.44848,-0.879128 -0.446114,-0.889375 1.584349,-6.86214 2.143743,-6.305986 2.139255,-5.581824 0.03459,-5.582488 -2.080619,-6.72e-4 -2.318044,-0.05795 -2.9578525,-0.713783 -1.7946479,-1.839598 -1.0763872,-5.9106331 1.1261645,-6.3829959 0.848177,-0.1819014 13.08364,-0.1379844 13.71404,0.049224 1.296023,0.3848775 2.293012,2.1627319 2.066058,3.6842409 -0.06082,0.407729 -5.794622,15.168876 -6.187007,15.927878 -0.748343,1.447543 -3.708632,2.250105 -6.435737,1.74479 z m 4.676978,-2.017928 c 0.499265,-0.304415 0.622262,-0.581706 3.390208,-7.643017 1.00715,-2.569344 2.13125,-5.422727 2.497998,-6.340851 0.86329,-2.161171 0.87952,-2.865506 0.08527,-3.700439 -0.352041,-0.3700716 -12.524431,-0.6068988 -13.511293,-0.262877 -0.613949,0.214024 -0.960713,1.553711 -0.427158,1.650288 0.36616,0.06628 1.388503,0.448994 1.545684,0.578631 0.07133,0.05883 0.179327,0.118353 0.24,0.132278 0.227582,0.05223 1.658496,0.538068 1.961573,0.666012 0.173391,0.0732 0.379823,0.133085 0.458737,0.133085 0.533311,0 1.943923,1.032029 2.261517,1.654565 0.355864,0.697549 0.314506,2.494734 -0.07175,3.118058 -0.07247,0.116942 -0.131757,0.260061 -0.131757,0.318043 0,0.05798 -0.103778,0.329501 -0.230617,0.603377 -0.347236,0.749766 -0.800074,1.973903 -0.929971,2.513957 -0.0635,0.264 -0.175431,0.599529 -0.248735,0.745619 -0.07389,0.147265 -0.149337,0.660569 -0.169315,1.152 -0.01982,0.48751 -0.04841,0.929581 -0.06353,0.982381 -0.16266,0.567884 0.488978,1.497958 2.015877,2.877235 0.23194,0.209516 0.480919,0.522649 0.553288,0.695851 0.152409,0.364766 0.33373,0.394238 0.773981,0.125804 z"
         id="path1806" />
      <path
         style="fill:#8c6f0b;stroke-width:0.096"
         d="M 13.410367,29.907956 C 11.711301,29.426034 10.807325,28.491519 10.806383,27.216 c -4.8e-4,-0.620978 0.135946,-1.07217 1.79656,-5.942538 0.988382,-2.898796 1.797058,-5.323752 1.797058,-5.388791 0,-0.0884 -0.478678,-0.127834 -1.896,-0.156203 -1.800772,-0.03604 -1.917473,-0.04987 -2.323517,-0.275209 -2.0547354,-1.140315 -2.0001742,-5.4926465 0.08262,-6.5902842 0.699289,-0.3685276 13.833572,-0.3473716 14.577777,0.023481 1.072797,0.5345974 1.607126,1.5218952 1.607126,2.9695442 0,0.956941 -5.445241,15.440728 -6.278333,16.699726 -0.840856,1.270732 -4.479937,1.998747 -6.759302,1.35223 z m 4.961816,-1.582235 c 0.742518,-0.359446 0.482214,0.215618 4.289907,-9.477286 3.009816,-7.661821 3.073973,-8.008495 1.625911,-8.785672 -0.714782,-0.3836254 -13.299546,-0.2053611 -13.632131,0.1931 -0.7454486,0.893102 -0.7456915,2.837085 -4.8e-4,3.582329 0.316799,0.316766 1.152611,0.410898 1.152611,0.129808 0,-0.168025 0.297151,-0.192448 0.452415,-0.03718 0.06035,0.06035 0.70562,0.140195 1.4832,0.183538 1.71182,0.09542 2.565997,0.191172 2.630059,0.294827 0.07248,0.117273 -0.44817,2.194917 -0.683329,2.72682 -0.382957,0.866205 -1.639797,4.48338 -2.195134,6.317576 -0.377729,1.247583 -0.411008,1.522648 -0.204917,1.693688 0.07606,0.06313 0.114639,0.176416 0.08573,0.251755 -0.03256,0.08486 0.0083,0.136981 0.107373,0.136981 0.08796,0 0.135082,-0.04021 0.104705,-0.08937 -0.03038,-0.04915 -0.01133,-0.116502 0.04233,-0.149666 0.05366,-0.03316 0.09757,0.0129 0.09757,0.102358 0,0.08946 0.108,0.262748 0.24,0.385082 0.132,0.122333 0.24,0.30662 0.24,0.409526 0,0.112225 0.135055,0.266785 0.337476,0.386217 0.185612,0.109514 0.382824,0.318389 0.43825,0.464169 0.05542,0.145779 0.178952,0.337889 0.274505,0.426909 0.09555,0.08902 0.203002,0.357044 0.238776,0.595607 0.077,0.513461 0.150723,0.537043 1.555845,0.497661 0.674986,-0.01892 0.978719,-0.07389 1.31933,-0.238776 z"
         id="path1804" />
      <path
         style="fill:#7c5900;stroke-width:0.096"
         d="m 13.584001,29.821941 c -1.565292,-0.402475 -2.572922,-1.308861 -2.699327,-2.428106 -0.04751,-0.420664 0.128643,-1.001781 1.816632,-5.992936 2.227846,-6.587448 2.253372,-5.848428 -0.202076,-5.850478 -1.780035,-0.0015 -1.913545,-0.01422 -2.270764,-0.21655 -1.9106062,-1.082177 -1.9286912,-5.031462 -0.0288,-6.2889735 0.506971,-0.3355572 13.526022,-0.4742546 14.370704,-0.1530973 1.098895,0.4178122 1.770889,1.5383958 1.777577,2.9641998 0.0048,1.033938 -5.731854,16.008753 -6.457612,16.856638 -0.916301,1.070491 -4.206445,1.649238 -6.306335,1.109303 z m 4.456121,-1.268495 c 1.076982,-0.319829 0.857481,0.115137 4.090333,-8.105446 1.06936,-2.7192 2.235088,-5.675652 2.590504,-6.569892 0.741136,-1.864729 0.771705,-2.230811 0.26789,-3.208071 -0.489051,-0.948622 0.03823,-0.8882552 -7.486611,-0.8571205 -7.466267,0.030892 -6.922387,-0.05611 -7.316807,1.1704425 -0.3564282,1.108402 -0.332842,1.734253 0.09897,2.626262 0.349127,0.721201 0.346529,0.720592 3.234053,0.758948 1.408849,0.01871 2.612786,0.05263 2.675415,0.07536 0.154595,0.05612 -0.09337,0.847271 -2.017231,6.436068 -2.306998,6.701814 -2.3029,6.677155 -1.21664,7.319688 0.942833,0.557696 3.737963,0.752337 5.080121,0.353758 z"
         id="path1802" />
    </g>
  </g>
</svg>
