<svg xmlns="http://www.w3.org/2000/svg" width="19" height="21"><path d="M3.44 3.438c0-2.144 0-2.144 6.861-2.144s6.861 0 6.861 2.144 0 2.144-6.861 2.144-6.861 0-6.861-2.144z" fill="#fff"/><path d="M5.369 20.739c-1.617-.47-2.507-1.413-2.506-2.656.001-.599.135-1.044 1.74-5.744l1.74-5.164c0-.038-.804-.087-1.787-.109-2.005-.045-2.266-.115-2.84-.769C.269 4.646.567 1.462 2.276.331 2.773.003 15.538-.134 16.366.18c1.146.435 1.813 1.574 1.812 3.097-.001 1.276-5.514 15.536-6.368 16.47-.995 1.089-4.338 1.604-6.442.992zM16.558 4.182c.406-.718.206-1.911-.416-2.483-.251-.23-10.68-.385-11.213-.166-.787.323.902 1.16 2.377 1.178.452.006.864.035.914.066.084.052.436.076 2.395.166.383.018 1.008.076 1.388.13s.715.092.743.085c.172-.043.877.309 1.645.823 1.189.795 1.8.851 2.168.2z" fill="#ffe35c"/><path d="M5.581 20.77c-1.141-.277-2.082-.93-2.504-1.738-.431-.826-.399-.962 1.537-6.634 2.073-6.074 2.098-5.39-.199-5.426-1.831-.028-1.848-.031-2.226-.281C.306 5.444.378 1.551 2.307.353c.556-.345 13.024-.5 14.006-.173 1.14.379 1.85 1.563 1.857 3.097.007 1.394-5.73 15.948-6.581 16.695-.983.863-4.057 1.271-6.008.797zm5.887-3.742c.154-.339 1.214-2.987 2.356-5.886l2.554-6.399c.54-1.275.57-1.721.171-2.546-.405-.836.042-.787-6.816-.745-7.281.044-6.956-.004-5.972.889.936.85 1.604 1.125 3.28 1.351 3.226.435 4.501 2.699 3.245 5.759a9.21 9.21 0 0 0-.228.65 7.516 7.516 0 0 1-.236.65 8.13 8.13 0 0 0-.241.65c-.065.204-.152.411-.192.459s-.074.182-.074.296-.042.234-.093.265-.093.159-.093.284-.041.227-.092.227-.082.073-.07.162-.078.568-.2 1.065c-.304 1.237.023 2.085 1.052 2.728a12.85 12.85 0 0 1 .816.564c.468.358.482.351.833-.423z" fill="#ebc500"/><path d="M5.973 20.826c-1.369-.254-2.385-.897-2.847-1.803-.434-.85-.431-.86 1.532-6.635C6.73 6.29 6.726 6.99 4.691 6.99c-2.012-.001-2.241-.056-2.86-.69C.096 4.521.79.584 2.92.127c.82-.176 12.651-.133 13.261.048 1.253.372 2.217 2.091 1.998 3.562-.059.394-5.603 14.667-5.982 15.401-.724 1.4-3.586 2.176-6.223 1.687zm4.522-1.951c.483-.294.602-.562 3.278-7.39l2.415-6.131c.835-2.09.85-2.771.082-3.578-.34-.358-12.11-.587-13.064-.254-.594.207-.929 1.502-.413 1.596.354.064 1.343.434 1.495.559a.71.71 0 0 0 .232.128c.22.051 1.604.52 1.897.644a1.63 1.63 0 0 0 .444.129c.516 0 1.88.998 2.187 1.6.344.674.304 2.412-.069 3.015-.07.113-.127.251-.127.308s-.1.319-.223.583c-.336.725-.774 1.909-.899 2.431-.061.255-.17.58-.241.721s-.144.639-.164 1.114-.047.899-.061.95c-.157.549.473 1.448 1.949 2.782.224.203.465.505.535.673.147.353.323.381.748.122z" fill="#bda00d"/><path d="M5.48 20.686c-1.643-.466-2.517-1.37-2.518-2.603 0-.6.131-1.037 1.737-5.746l1.738-5.211c0-.085-.463-.124-1.833-.151-1.741-.035-1.854-.048-2.247-.266C.37 5.606.423 1.398 2.437.337 3.113-.02 15.813.001 16.532.359c1.037.517 1.554 1.472 1.554 2.871 0 .925-5.265 14.93-6.071 16.147-.813 1.229-4.332 1.933-6.536 1.308zm4.798-1.53c.718-.348.466.208 4.148-9.164 2.91-7.408 2.972-7.744 1.572-8.495-.691-.371-12.86-.199-13.181.187-.721.864-.721 2.743 0 3.464.306.306 1.114.397 1.114.126 0-.162.287-.186.437-.036.058.058.682.136 1.434.177 1.655.092 2.481.185 2.543.285.07.113-.433 2.122-.661 2.637-.37.838-1.586 4.335-2.123 6.109-.365 1.206-.397 1.472-.198 1.638.074.061.111.171.083.243-.031.082.008.132.104.132.085 0 .131-.039.101-.086s-.011-.113.041-.145.094.012.094.099.104.254.232.372.232.296.232.396c0 .109.131.258.326.373.179.106.37.308.424.449a1.3 1.3 0 0 0 .265.413c.092.086.196.345.231.576.074.496.146.519 1.504.481.653-.018.946-.071 1.276-.231z" fill="#9d7d07"/><path d="M5.648 20.602c-1.514-.389-2.488-1.266-2.61-2.348-.046-.407.124-.969 1.757-5.795 2.154-6.37 2.179-5.655-.195-5.657-1.721-.001-1.85-.014-2.196-.209C.556 5.547.538 1.728 2.375.512 2.866.188 15.454.054 16.271.364c1.063.404 1.712 1.488 1.719 2.866.005 1-5.542 15.479-6.244 16.299-.886 1.035-4.067 1.595-6.098 1.073zm4.309-1.227c1.041-.309.829.111 3.955-7.837l2.505-6.353c.717-1.803.746-2.157.259-3.102-.473-.917.037-.859-7.239-.829-7.219.03-6.693-.054-7.075 1.132-.345 1.072-.322 1.677.096 2.539.338.697.335.697 3.127.734 1.362.018 2.526.051 2.587.073.149.054-.09.819-1.951 6.223-2.231 6.48-2.227 6.456-1.176 7.078.912.539 3.614.727 4.912.342z" fill="#7d5a00"/></svg>