<svg height="26.3" width="37.6" xmlns:xlink="http://www.w3.org/1999/xlink" xmlns="http://www.w3.org/2000/svg"><use height="26.3" width="37.6" xlink:href="#a"/><defs><path d="M-18.7-6.15h37.35q0 5.1-3.6 8.7-3.6 3.6-8.75 3.6H-6.4q-5.1 0-8.7-3.6-3.6-3.6-3.6-8.7" fill="#527ca3" fill-rule="evenodd" transform="translate(18.7 6.15)" id="c"/><path d="M18.8-7.5v4.7q0 4.3-3 7.3-3.05 3-7.35 3H-8.5q-4.25 0-7.3-3-3-3-3-7.3v-4.7h37.6" fill="#9f3400" fill-rule="evenodd" transform="translate(18.8 7.5)" id="d"/><path d="M18.8-1.3v2.65q0 4.3-3 7.3-3.05 3-7.35 3H-8.5q-4.25 0-7.3-3-3-3-3-7.3V-1.3q0-4.3 3-7.35 3-3 7.3-3H8.45q4.3 0 7.35 3 3 3.05 3 7.35" fill="#f80" fill-rule="evenodd" transform="translate(18.8 11.65)" id="e"/><path d="M-5.75-5.1Q-1.5-9.8-.2-9.8 1-9.8 5.5-5 9.95-.3 9.95.6q0 1.15-2.7 1.5l.15 3q0 2.85-.8 3.65Q5.55 9.8 0 9.8t-6.6-1.05q-.75-.75-.75-3.6l.15-2.95Q-9.95 1.95-9.95.6q0-1.1 4.2-5.7" fill="#fb6a00" fill-rule="evenodd" transform="translate(9.95 9.8)" id="f"/><path d="M2.6 4.7V.6h-4.1v4.1h4.1M9.5-.85q0 .4-2.75.65.5 6.1-.3 6.8-.75.8-5.95.75-5.1 0-5.85-.75-.7-.7-.25-6.7-2.8-.25-2.8-.75 0-.6 3.95-4.95 4-4.45 4.8-4.45.75 0 5 4.55Q9.5-1.3 9.5-.85" fill="url(#b)" fill-rule="evenodd" transform="translate(8.4 10.25)" id="l"/><use height="12.3" width="37.35" xlink:href="#c" id="g"/><use height="15" width="37.6" xlink:href="#d" id="h"/><use height="23.3" width="37.6" xlink:href="#e" id="i"/><use height="19.6" width="19.9" xlink:href="#f" id="k"/><linearGradient gradientTransform="matrix(0 -.0079 .0086 0 1.2 2.25)" gradientUnits="userSpaceOnUse" id="m" spreadMethod="pad" x1="-819.2" x2="819.2"><stop offset="0" stop-color="#fc8536"/><stop offset="1" stop-color="#d15503"/></linearGradient><linearGradient gradientTransform="matrix(0 .007 -.0072 0 .55 -6)" gradientUnits="userSpaceOnUse" id="n" spreadMethod="pad" x1="-819.2" x2="819.2"><stop offset="0" stop-color="#fec9b4"/><stop offset="1" stop-color="#ff7b00"/></linearGradient><linearGradient gradientTransform="matrix(-.0077 -.0077 .0076 -.0076 .55 -1.45)" gradientUnits="userSpaceOnUse" id="b" spreadMethod="pad" x1="-819.2" x2="819.2"><stop offset="0" stop-color="#ffc7a2"/><stop offset="1" stop-color="#fff"/></linearGradient><g id="a" transform="translate(18.8 13.15)"><use height="12.3" transform="translate(-18.8 .85)" width="37.35" xlink:href="#g"/><use height="15" transform="translate(-18.8 -3.5)" width="37.6" xlink:href="#h"/><use height="23.3" transform="translate(-18.8 -13.15)" width="37.6" xlink:href="#i"/><use height="21.25" transform="translate(-15 -11.9)" width="32.6" xlink:href="#j"/><use height="19.6" transform="translate(-9.4 -11.25)" width="19.9" xlink:href="#k"/><use height="17.6" transform="translate(-8.4 -10.25)" width="17.9" xlink:href="#l"/></g><g id="j" fill-rule="evenodd"><path d="M-9.8-4.8h21.95q5.45 0 5.45 5.15 0 2.7-2.3 5.3-2.35 2.7-4.95 2.7l-15.85 1q-5.15 0-8.8-6-1.55-3.2.25-5.8 1.6-2.35 4.25-2.35" fill="url(#m)" transform="translate(15 11.9)"/><path d="M14.95-5.35q0 2.15-1.5 3.65Q11.9-.15 9.75-.15H-8.7q-2.15 0-3.7-1.55-1.5-1.5-1.5-3.65V-6.7q0-2.15 1.5-3.65 1.55-1.55 3.7-1.55H9.75q2.15 0 3.7 1.55 1.5 1.5 1.5 3.65v1.35" fill="url(#n)" transform="translate(15 11.9)"/></g></defs></svg>