<svg height="26.3" width="37.6" xmlns:xlink="http://www.w3.org/1999/xlink" xmlns="http://www.w3.org/2000/svg"><use height="26.3" width="37.6" xlink:href="#a" style="opacity:1"/><defs><path d="M-18.7-6.15h37.35q0 5.1-3.6 8.7-3.6 3.6-8.75 3.6H-6.4q-5.1 0-8.7-3.6-3.6-3.6-3.6-8.7" fill="#527ca3" fill-rule="evenodd" transform="translate(18.7 6.15)" id="c"/><path d="M18.8-7.5v4.7q0 4.3-3 7.3-3.05 3-7.35 3H-8.5q-4.25 0-7.3-3-3-3-3-7.3v-4.7h37.6" fill="#00808c" fill-rule="evenodd" transform="translate(18.8 7.5)" id="d"/><path d="M18.8-1.3v2.65q0 4.3-3 7.3-3.05 3-7.35 3H-8.5q-4.25 0-7.3-3-3-3-3-7.3V-1.3q0-4.3 3-7.35 3-3 7.3-3H8.45q4.3 0 7.35 3 3 3.05 3 7.35" fill="#00f0cc" fill-rule="evenodd" transform="translate(18.8 11.65)" id="e"/><path d="M.95-8.9q.85-.75 2.1-.35 1.15.5 1.25 1.7l.45 4L8.2-1.4q.95.55.95 1.75V.5L9 1.1q-.3.8-1.05 1.1L4.3 3.9 3.25 8.05q-.4 1-1.45 1.25-1.15.35-2-.6l-2.75-3-4 .3q-1.25.1-1.9-.95-.55-.85-.15-1.9l2.1-3.7-1.55-3.75-.15-.8.15-.75.35-.55q.8-.95 2-.7l3.95.8 3.1-2.6" fill="#38bbff" fill-rule="evenodd" transform="translate(9.15 9.4)" id="f"/><path d="m2.75-8.6 1.1-.15q.65.3.65.85L5-3.4 8.85-1q.6.35.5.95L9.3.3l-.55.55L4.6 2.7 3.55 7.1l-.05.15-.75.65q-.55.15-1.05-.35l-3-3.3-4.5.3q-.65.1-1-.5-.3-.35-.1-.95l.05-.15 2.25-3.9-1.7-4.2v-.8l.15-.25q.4-.5 1.05-.4l4.4.95L2.75-8.6" fill="url(#b)" fill-rule="evenodd" transform="translate(7 8.85)" id="l"/><use height="12.3" width="37.35" xlink:href="#c" id="g"/><use height="15" width="37.6" xlink:href="#d" id="h"/><use height="23.3" width="37.6" xlink:href="#e" id="i"/><use height="18.8" width="18.3" xlink:href="#f" id="k"/><linearGradient gradientTransform="matrix(0 .0079 -.0086 0 1.4 2.25)" gradientUnits="userSpaceOnUse" id="m" spreadMethod="pad" x1="-819.2" x2="819.2"><stop offset="0" stop-color="#03afaf"/><stop offset="1" stop-color="#02fdfd"/></linearGradient><linearGradient gradientTransform="matrix(0 .007 -.0072 0 .55 -6)" gradientUnits="userSpaceOnUse" id="n" spreadMethod="pad" x1="-819.2" x2="819.2"><stop offset="0" stop-color="#f7feff"/><stop offset="1" stop-color="#3bcaff"/></linearGradient><linearGradient gradientTransform="matrix(-.0026 -.0096 .0099 -.0027 .15 -.15)" gradientUnits="userSpaceOnUse" id="b" spreadMethod="pad" x1="-819.2" x2="819.2"><stop offset="0" stop-color="#88e8ff"/><stop offset="1" stop-color="#fff"/></linearGradient><g id="a" transform="translate(18.8 13.15)"><use height="12.3" transform="translate(-18.8 .85)" width="37.35" xlink:href="#g"/><use height="15" transform="translate(-18.8 -3.5)" width="37.6" xlink:href="#h"/><use height="23.3" transform="translate(-18.8 -13.15)" width="37.6" xlink:href="#i"/><use height="21.25" transform="translate(-15 -11.9)" width="32.6" xlink:href="#j"/><use height="18.8" transform="translate(-7.95 -9.9)" width="18.3" xlink:href="#k"/><use height="16.8" transform="translate(-7 -8.85)" width="16.35" xlink:href="#l"/></g><g id="j" fill-rule="evenodd"><path d="M-9.8-4.8h21.95q5.45 0 5.45 5.15 0 2.7-2.3 5.3-2.35 2.7-4.95 2.7l-15.85 1q-5.15 0-8.8-6-1.55-3.2.25-5.8 1.6-2.35 4.25-2.35" fill="url(#m)" transform="translate(15 11.9)"/><path d="M14.95-5.35q0 2.15-1.5 3.65Q11.9-.15 9.75-.15H-8.7q-2.15 0-3.7-1.55-1.5-1.5-1.5-3.65V-6.7q0-2.15 1.5-3.65 1.55-1.55 3.7-1.55H9.75q2.15 0 3.7 1.55 1.5 1.5 1.5 3.65v1.35" fill="url(#n)" transform="translate(15 11.9)"/></g></defs></svg>