<svg height="26.3" width="37.6" xmlns:xlink="http://www.w3.org/1999/xlink" xmlns="http://www.w3.org/2000/svg"><use height="26.3" width="37.6" xlink:href="#a"/><defs><path d="M-18.7-6.15h37.35q0 5.1-3.6 8.7-3.6 3.6-8.75 3.6H-6.4q-5.1 0-8.7-3.6-3.6-3.6-3.6-8.7" fill="#527ca3" fill-rule="evenodd" transform="translate(18.7 6.15)" id="c"/><path d="M18.8-7.5v4.7q0 4.3-3 7.3-3.05 3-7.35 3H-8.5q-4.25 0-7.3-3-3-3-3-7.3v-4.7h37.6" fill="#a10000" fill-rule="evenodd" transform="translate(18.8 7.5)" id="d"/><path d="M18.8-1.3v2.65q0 4.3-3 7.3-3.05 3-7.35 3H-8.5q-4.25 0-7.3-3-3-3-3-7.3V-1.3q0-4.3 3-7.35 3-3 7.3-3H8.45q4.3 0 7.35 3 3 3.05 3 7.35" fill="#ff2d2d" fill-rule="evenodd" transform="translate(18.8 11.65)" id="e"/><path d="M0-6.55Q1.7-8.9 4.2-8.9q2.25 0 3.9 1.95 1.55 1.85 1.55 4.1l-.05.55q0 3.85-3.65 7.65-3.4 3.5-5.95 3.5-2.6 0-5.95-3.5-3.7-3.8-3.7-7.65l.05-.25-.05-.3q0-2.25 1.55-4.1Q-6.45-8.9-4.2-8.9q2.5 0 4.2 2.35" fill="#ff3e3e" fill-rule="evenodd" transform="translate(9.65 8.9)" id="f"/><path d="M.65-5.65q1.1-3.5 4.2-3.5 1.8 0 3.15 1.6Q9.3-6 9.3-4.1l-.05.45v.1q0 3.4-3.35 6.9Q2.8 6.6.65 6.6T-4.6 3.35Q-8-.15-8-3.55l.05-.25-.05-.3Q-8-6-6.7-7.55q1.35-1.6 3.15-1.6 3.1 0 4.2 3.5" fill="url(#b)" fill-rule="evenodd" transform="translate(8 9.15)" id="l"/><use height="12.3" width="37.35" xlink:href="#c" id="g"/><use height="15" width="37.6" xlink:href="#d" id="h"/><use height="23.3" width="37.6" xlink:href="#e" id="i"/><use height="17.75" width="19.3" xlink:href="#f" id="k"/><linearGradient gradientTransform="matrix(0 .0079 -.0086 0 1.4 2.25)" gradientUnits="userSpaceOnUse" id="m" spreadMethod="pad" x1="-819.2" x2="819.2"><stop offset="0" stop-color="#d10303"/><stop offset=".522" stop-color="#ff0909"/><stop offset="1" stop-color="#fd2424"/></linearGradient><linearGradient gradientTransform="matrix(0 .007 -.0072 0 .55 -6)" gradientUnits="userSpaceOnUse" id="n" spreadMethod="pad" x1="-819.2" x2="819.2"><stop offset="0" stop-color="#ffe6e6"/><stop offset="1" stop-color="#fb0d0d"/></linearGradient><linearGradient gradientTransform="matrix(-.0091 -.0053 .0048 -.0083 .65 -1.25)" gradientUnits="userSpaceOnUse" id="b" spreadMethod="pad" x1="-819.2" x2="819.2"><stop offset="0" stop-color="#f99"/><stop offset="1" stop-color="#fff"/></linearGradient><g id="a" transform="translate(18.8 13.15)"><use height="12.3" transform="translate(-18.8 .85)" width="37.35" xlink:href="#g"/><use height="15" transform="translate(-18.8 -3.5)" width="37.6" xlink:href="#h"/><use height="23.3" transform="translate(-18.8 -13.15)" width="37.6" xlink:href="#i"/><use height="21.25" transform="translate(-15 -11.9)" width="32.6" xlink:href="#j"/><use height="17.75" transform="translate(-9 -10.15)" width="19.3" xlink:href="#k"/><use height="15.75" transform="translate(-8 -9.15)" width="17.3" xlink:href="#l"/></g><g id="j" fill-rule="evenodd"><path d="M-9.8-4.8h21.95q5.45 0 5.45 5.15 0 2.7-2.3 5.3-2.35 2.7-4.95 2.7l-15.85 1q-5.15 0-8.8-6-1.55-3.2.25-5.8 1.6-2.35 4.25-2.35" fill="url(#m)" transform="translate(15 11.9)"/><path d="M14.95-5.35q0 2.15-1.5 3.65Q11.9-.15 9.75-.15H-8.7q-2.15 0-3.7-1.55-1.5-1.5-1.5-3.65V-6.7q0-2.15 1.5-3.65 1.55-1.55 3.7-1.55H9.75q2.15 0 3.7 1.55 1.5 1.5 1.5 3.65v1.35" fill="url(#n)" transform="translate(15 11.9)"/></g></defs></svg>