<?xml version="1.0" encoding="UTF-8" standalone="no"?>
<svg xmlns:xlink="http://www.w3.org/1999/xlink" height="18.5px" width="18.35px" xmlns="http://www.w3.org/2000/svg">
  <g transform="matrix(1.0, 0.0, 0.0, 1.0, -1.1, 2.15)">
    <use height="50.0" transform="matrix(0.36, 0.0, 0.0, 0.36, 1.45, -1.65)" width="50.0" xlink:href="#sprite0"/>
    <use height="17.95" transform="matrix(1.0, 0.0, 0.0, 1.0, 10.8, -1.65)" width="8.65" xlink:href="#sprite1"/>
    <use height="13.6" transform="matrix(1.0, 0.0, 0.0, 1.0, 5.05, 0.45)" width="11.3" xlink:href="#sprite2"/>
    <use height="13.6" transform="matrix(1.0, 0.0, 0.0, 1.0, 5.05, 0.45)" width="11.3" xlink:href="#sprite3"/>
  </g>
  <defs>
    <g id="sprite0" transform="matrix(1.0, 0.0, 0.0, 1.0, 25.0, 25.0)">
      <use height="50.0" transform="matrix(1.0, 0.0, 0.0, 1.0, -25.0, -25.0)" width="50.0" xlink:href="#shape0"/>
    </g>
    <g id="shape0" transform="matrix(1.0, 0.0, 0.0, 1.0, 25.0, 25.0)">
      <path d="M25.0 0.0 Q25.0 10.3 17.7 17.65 10.35 25.0 0.0 25.0 -10.35 25.0 -17.65 17.65 -25.0 10.3 -25.0 0.0 -25.0 -10.35 -17.65 -17.7 -10.35 -25.05 0.0 -25.0 10.35 -25.05 17.7 -17.7 25.0 -10.35 25.0 0.0" fill="#ffffff" fill-rule="evenodd" stroke="none"/>
    </g>
    <g id="sprite1" transform="matrix(1.0, 0.0, 0.0, 1.0, 0.0, 0.0)">
      <use height="17.95" transform="matrix(1.0, 0.0, 0.0, 1.0, 0.0, 0.0)" width="8.65" xlink:href="#shape1"/>
    </g>
    <g id="shape1" transform="matrix(1.0, 0.0, 0.0, 1.0, 0.0, 0.0)">
      <path d="M0.0 0.0 Q3.6 0.15 6.15 2.75 8.65 5.35 8.65 9.0 8.65 12.65 6.15 15.25 3.6 17.85 0.0 17.95 L0.0 0.0" fill="url(#gradient0)" fill-rule="evenodd" stroke="none"/>
    </g>
    <linearGradient gradientTransform="matrix(0.0053, 0.0, 0.0, 0.011, 4.3, 8.95)" gradientUnits="userSpaceOnUse" id="gradient0" spreadMethod="pad" x1="-819.2" x2="819.2">
      <stop offset="0.0" stop-color="#ff9966"/>
      <stop offset="1.0" stop-color="#ff9966" stop-opacity="0.0"/>
    </linearGradient>
    <g id="sprite2" transform="matrix(1.0, 0.0, 0.0, 1.0, 0.0, 0.0)">
      <use height="13.6" transform="matrix(1.0, 0.0, 0.0, 1.0, 0.0, 0.0)" width="11.3" xlink:href="#shape2"/>
    </g>
    <g id="shape2" transform="matrix(1.0, 0.0, 0.0, 1.0, 0.0, 0.0)">
      <path d="M11.3 7.2 Q11.0 7.8 10.05 7.8 L9.85 7.6 Q9.2 10.35 5.65 10.35 2.2 10.35 1.5 7.75 L1.3 7.8 Q0.35 7.8 0.05 7.2 -0.1 7.05 0.5 6.2 L1.35 5.3 Q1.6 3.7 2.6 2.15 3.95 0.0 5.65 0.0 7.35 0.0 8.7 2.15 9.7 3.65 9.95 5.25 L10.85 6.2 11.3 7.2 M3.65 10.7 Q5.2 10.7 5.2 12.75 5.2 13.45 3.6 13.55 L1.4 13.25 Q0.5 12.75 1.7 11.7 2.8 10.7 3.65 10.7 M7.8 10.7 Q8.65 10.7 9.75 11.7 10.9 12.75 10.05 13.25 9.35 13.7 7.85 13.55 6.25 13.45 6.25 12.75 6.25 10.7 7.8 10.7" fill="#ff3300" fill-rule="evenodd" stroke="none"/>
    </g>
    <g id="sprite3" transform="matrix(1.0, 0.0, 0.0, 1.0, 0.0, 0.0)">
      <use height="13.6" transform="matrix(1.0, 0.0, 0.0, 1.0, 0.0, 0.0)" width="11.3" xlink:href="#shape3"/>
    </g>
    <g id="shape3" transform="matrix(1.0, 0.0, 0.0, 1.0, 0.0, 0.0)">
      <path d="M11.3 7.2 Q11.0 7.8 10.05 7.8 L9.85 7.6 Q9.2 10.35 5.65 10.35 2.2 10.35 1.5 7.75 L1.3 7.8 Q0.35 7.8 0.05 7.2 -0.1 7.05 0.5 6.2 L1.35 5.3 Q1.6 3.7 2.6 2.15 3.95 0.0 5.65 0.0 7.35 0.0 8.7 2.15 9.7 3.65 9.95 5.25 L10.85 6.2 11.3 7.2 M3.65 10.7 Q5.2 10.7 5.2 12.75 5.2 13.45 3.6 13.55 L1.4 13.25 Q0.5 12.75 1.7 11.7 2.8 10.7 3.65 10.7 M7.8 10.7 Q8.65 10.7 9.75 11.7 10.9 12.75 10.05 13.25 9.35 13.7 7.85 13.55 6.25 13.45 6.25 12.75 6.25 10.7 7.8 10.7" fill="url(#gradient1)" fill-rule="evenodd" stroke="none"/>
    </g>
    <linearGradient gradientTransform="matrix(0.0062, 0.0, 0.0, 0.0063, 5.65, 5.15)" gradientUnits="userSpaceOnUse" id="gradient1" spreadMethod="pad" x1="-819.2" x2="819.2">
      <stop offset="0.0" stop-color="#ff9966"/>
      <stop offset="1.0" stop-color="#ff9966" stop-opacity="0.0"/>
    </linearGradient>
  </defs>
</svg>
