<?xml version="1.0" encoding="UTF-8" standalone="no"?>
<svg
   height="13.503846"
   width="13.701137"
   version="1.1"
   id="svg1183"
   sodipodi:docname="home.svg"
   inkscape:version="1.1 (c4e8f9ed74, 2021-05-24)"
   xmlns:inkscape="http://www.inkscape.org/namespaces/inkscape"
   xmlns:sodipodi="http://sodipodi.sourceforge.net/DTD/sodipodi-0.dtd"
   xmlns:xlink="http://www.w3.org/1999/xlink"
   xmlns="http://www.w3.org/2000/svg"
   xmlns:svg="http://www.w3.org/2000/svg">
  <sodipodi:namedview
     id="namedview1185"
     pagecolor="#505050"
     bordercolor="#eeeeee"
     borderopacity="1"
     inkscape:pageshadow="0"
     inkscape:pageopacity="0"
     inkscape:pagecheckerboard="0"
     showgrid="false"
     inkscape:zoom="39.297297"
     inkscape:cx="3.4862448"
     inkscape:cy="6.9470426"
     inkscape:window-width="1922"
     inkscape:window-height="1059"
     inkscape:window-x="1919"
     inkscape:window-y="23"
     inkscape:window-maximized="1"
     inkscape:current-layer="svg1183" />
  <g
     transform="translate(-1.1488636,-0.15)"
     id="g1162">
    <use
       height="13.5"
       transform="translate(1.15,0.15)"
       width="13.7"
       xlink:href="#sprite0"
       id="use1158"
       x="0"
       y="0" />
    <use
       height="13.5"
       transform="translate(1.15,0.15)"
       width="13.7"
       xlink:href="#sprite1"
       id="use1160"
       x="0"
       y="0" />
  </g>
  <defs
     id="defs1181">
    <g
       id="sprite0">
      <use
         height="13.5"
         width="13.7"
         xlink:href="#shape0"
         id="use1164"
         x="0"
         y="0" />
    </g>
    <g
       id="shape0">
      <path
         d="M 8.45,11.5 V 8.3 h -3.2 v 3.2 h 3.2 M 10.5,3.45 q 3.2,3.4 3.2,3.75 0,0.35 -2.1,0.5 0.35,4.65 -0.2,5.25 -0.6,0.6 -4.55,0.55 -4,0 -4.55,-0.55 Q 1.7,12.35 2.1,7.75 -0.05,7.6 0,7.2 -0.05,6.75 3,3.4 6.1,0 6.7,0 7.2,0 10.5,3.45"
         fill="#ffffff"
         fill-rule="evenodd"
         stroke="none"
         id="path1167" />
    </g>
    <g
       id="sprite1">
      <use
         height="13.5"
         width="13.7"
         xlink:href="#shape1"
         id="use1170"
         x="0"
         y="0" />
    </g>
    <g
       id="shape1">
      <path
         d="m 8.45,8.3 h -3.2 v 3.2 h 3.2 V 8.3 M 13.7,7.2 q 0,0.35 -2.1,0.5 0.35,4.65 -0.2,5.25 -0.6,0.6 -4.55,0.55 -4,0 -4.55,-0.55 Q 1.7,12.35 2.1,7.75 -0.05,7.6 0,7.2 -0.05,6.75 3,3.4 6.1,0 6.7,0 q 0.5,0 3.8,3.45 3.2,3.4 3.2,3.75"
         fill="url(#gradient0)"
         fill-rule="evenodd"
         stroke="none"
         id="path1173" />
    </g>
    <linearGradient
       gradientTransform="matrix(0.0084,0,0,0.0083,4.1,6.8)"
       gradientUnits="userSpaceOnUse"
       id="gradient0"
       spreadMethod="pad"
       x1="-819.20001"
       x2="819.20001">
      <stop
         offset="0.0"
         stop-color="#ff9966"
         id="stop1176" />
      <stop
         offset="1.0"
         stop-color="#ff9966"
         stop-opacity="0.0"
         id="stop1178" />
    </linearGradient>
  </defs>
</svg>
