<?xml version="1.0" encoding="UTF-8" standalone="no"?>
<svg
   height="16"
   width="62.65"
   version="1.1"
   id="svg902"
   sodipodi:docname="1.svg"
   inkscape:version="1.1 (c4e8f9ed74, 2021-05-24)"
   xmlns:inkscape="http://www.inkscape.org/namespaces/inkscape"
   xmlns:sodipodi="http://sodipodi.sourceforge.net/DTD/sodipodi-0.dtd"
   xmlns:xlink="http://www.w3.org/1999/xlink"
   xmlns="http://www.w3.org/2000/svg"
   xmlns:svg="http://www.w3.org/2000/svg">
  <sodipodi:namedview
     id="namedview904"
     pagecolor="#505050"
     bordercolor="#eeeeee"
     borderopacity="1"
     inkscape:pageshadow="0"
     inkscape:pageopacity="0"
     inkscape:pagecheckerboard="0"
     showgrid="false"
     inkscape:zoom="11.692939"
     inkscape:cx="26.64001"
     inkscape:cy="18.301644"
     inkscape:current-layer="svg902" />
  <rect
     style="display:none;opacity:1;fill:#ff0000;fill-opacity:1;fill-rule:evenodd;stroke-width:5.29134;stroke-linecap:round;stroke-linejoin:bevel;paint-order:fill markers stroke;stop-color:#000000"
     id="rect3030"
     width="78.01033"
     height="25.303423"
     x="-9.3327398"
     y="-4.2120252" />
  <g
     transform="translate(50.9,-0.45)"
     id="g828"
     style="display:inline">
    <use
       height="16"
       transform="translate(-50.9,0.45)"
       width="37.950001"
       xlink:href="#a"
       id="use824"
       x="0"
       y="0" />
    <use
       height="16"
       transform="translate(-26.25,0.45)"
       width="38"
       xlink:href="#b"
       style="opacity:1"
       id="use826"
       x="0"
       y="0" />
  </g>
  <defs
     id="defs900">
    <linearGradient
       gradientTransform="matrix(.0016 -.002 .0151 0 4.8 -5.95)"
       gradientUnits="userSpaceOnUse"
       id="e"
       spreadMethod="pad"
       x1="-819.2"
       x2="819.2">
      <stop
         offset="0"
         stop-color="#ffeaf5"
         id="stop830" />
      <stop
         offset="1"
         stop-color="#ffeaf5"
         stop-opacity="0"
         id="stop832" />
    </linearGradient>
    <linearGradient
       gradientTransform="matrix(-.004 .0049 .0151 0 .15 -.35)"
       gradientUnits="userSpaceOnUse"
       id="f"
       spreadMethod="pad"
       x1="-819.2"
       x2="819.2">
      <stop
         offset="0"
         stop-color="#ffeaf5"
         id="stop835" />
      <stop
         offset="1"
         stop-color="#ffeaf5"
         stop-opacity="0"
         id="stop837" />
    </linearGradient>
    <linearGradient
       gradientTransform="matrix(.0037 -.0045 .015 0 -3.7 4.3)"
       gradientUnits="userSpaceOnUse"
       id="g"
       spreadMethod="pad"
       x1="-819.2"
       x2="819.2">
      <stop
         offset="0"
         stop-color="#f85"
         id="stop840" />
      <stop
         offset="1"
         stop-color="#ff97d2"
         stop-opacity="0"
         id="stop842" />
    </linearGradient>
    <linearGradient
       gradientTransform="matrix(.0018 -.0022 .0151 0 5 -6.1)"
       gradientUnits="userSpaceOnUse"
       id="h"
       spreadMethod="pad"
       x1="-819.2"
       x2="819.2">
      <stop
         offset="0"
         stop-color="#ffe1f0"
         id="stop845" />
      <stop
         offset="1"
         stop-color="#ffe1f0"
         stop-opacity="0"
         id="stop847" />
    </linearGradient>
    <linearGradient
       gradientTransform="matrix(-.004 .0049 .0151 0 .2 -.35)"
       gradientUnits="userSpaceOnUse"
       id="i"
       spreadMethod="pad"
       x1="-819.2"
       x2="819.2">
      <stop
         offset="0"
         stop-color="#ffe1f0"
         id="stop850" />
      <stop
         offset="1"
         stop-color="#ffe1f0"
         stop-opacity="0"
         id="stop852" />
    </linearGradient>
    <linearGradient
       gradientTransform="matrix(.0037 -.0045 .015 0 -7.1 6.5)"
       gradientUnits="userSpaceOnUse"
       id="j"
       spreadMethod="pad"
       x1="-819.2"
       x2="819.2">
      <stop
         offset="0"
         stop-color="#ff824d"
         id="stop855" />
      <stop
         offset="1"
         stop-color="#930049"
         stop-opacity="0"
         id="stop857" />
    </linearGradient>
    <use
       height="16"
       width="37.95"
       xlink:href="#c"
       id="a" />
    <use
       height="16"
       width="38"
       xlink:href="#d"
       id="b" />
    <g
       id="c"
       fill-rule="evenodd">
      <path
         d="M18.75-7.95 5.55 8h-24.5l13.2-15.95h24.5"
         fill="#fca"
         transform="translate(19 8)"
         id="path862" />
      <path
         d="M8.65-2.55Q4.2 1.9 4.5 7.95h-21.6V8h-.4Q-8.15 1.1-5.05-3.4q6.85-.45 13.7.85"
         fill="#ffa691"
         transform="translate(19 8)"
         id="path864" />
      <path
         d="M4.5 7.95h-21.6V8h-.4q6.4-4.75 9.9-8.3L6.45.25Q4.25 3.7 4.5 7.95"
         fill="#f60"
         transform="translate(19 8)"
         id="path866" />
      <path
         d="M-3.55-7.95Q-2.55-3-17.5 8h-1.4L-5.8-7.95h2.25"
         fill="#ff8466"
         fill-opacity=".502"
         transform="translate(19 8)"
         id="path868" />
      <path
         d="M17.35-8h1.6L5.8 7.95H4.5Q4-2.35 17.35-8"
         fill="#ffbc91"
         fill-opacity=".502"
         transform="translate(19 8)"
         id="path870" />
      <path
         d="m-8.85-4.3 2.65-3.25h24.8L15.85-4.3h-24.7"
         fill="url(#e)"
         transform="translate(19 8)"
         id="path872" />
      <path
         d="M15.85-4.3 9.3 3.65h-24.75l6.6-7.95h24.7"
         fill="url(#f)"
         transform="translate(19 8)"
         id="path874" />
      <path
         d="M9.15 3.65 5.55 8H-19l3.55-4.35h24.6"
         fill="url(#g)"
         transform="translate(19 8)"
         id="path876" />
    </g>
    <g
       id="d"
       fill-rule="evenodd">
      <path
         d="M18.8-7.95 5.6 8h-24.5L-5.7-7.95h24.5"
         fill="#ff7b44"
         transform="translate(19 8)"
         id="path879" />
      <path
         d="M8.7-2.55Q11.85-5.7 17.4-8H19L5.8 7.95H4.55Q4.25 1.9 8.7-2.55"
         fill="#fea5d2"
         fill-opacity=".502"
         transform="translate(19 8)"
         id="path881" />
      <path
         d="M-17.45 8h-1.4l13.1-15.95h2.25Q-3.15-6.1-5-3.4-8.1 1.1-17.45 8"
         fill="#ff3395"
         fill-opacity=".502"
         transform="translate(19 8)"
         id="path883" />
      <path
         d="M-17.45 8Q-8.1 1.1-5-3.4q6.85-.45 13.7.85Q4.25 1.9 4.55 7.95h-21.6V8h-.4"
         fill="#f76200"
         transform="translate(19 8)"
         id="path885" />
      <path
         d="M4.55 7.95h-21.6V8h-.4q6.4-4.75 9.9-8.3L6.5.25Q4.3 3.7 4.55 7.95"
         fill="#e62e00"
         transform="translate(19 8)"
         id="path887" />
      <path
         d="M-3.5-7.95Q-2.5-3-17.45 8h-1.4l13.1-15.95h2.25"
         fill="#f33"
         fill-opacity=".502"
         transform="translate(19 8)"
         id="path889" />
      <path
         d="M17.4-8H19L5.8 7.95H4.55Q4.05-2.4 17.4-8"
         fill="#fe8181"
         fill-opacity=".502"
         transform="translate(19 8)"
         id="path891" />
      <path
         d="m-8.8-4.3 2.95-3.6H18.9l-3 3.6H-8.8"
         fill="url(#h)"
         transform="translate(19 8)"
         id="path893" />
      <path
         d="M15.9-4.3 9.35 3.65H-15.4l6.6-7.95h24.7"
         fill="url(#i)"
         transform="translate(19 8)"
         id="path895" />
      <path
         d="M9.2 3.65 5.6 8H-19l3.6-4.35H9.2"
         fill="url(#j)"
         transform="translate(19 8)"
         id="path897" />
    </g>
  </defs>
</svg>
