<?xml version="1.0" encoding="UTF-8" standalone="no"?>
<svg xmlns:xlink="http://www.w3.org/1999/xlink" height="26.3px" width="37.6px" xmlns="http://www.w3.org/2000/svg">
  <g transform="matrix(1.0, 0.0, 0.0, 1.0, 18.8, 13.15)">
    <use height="26.3" transform="matrix(1.0, 0.0, 0.0, 1.0, -18.8, -13.15)" width="37.6" xlink:href="#sprite0"/>
    <use height="19.6" transform="matrix(1.0, 0.0, 0.0, 1.0, -9.4, -11.25)" width="19.9" xlink:href="#sprite4"/>
    <use height="17.6" transform="matrix(1.0, 0.0, 0.0, 1.0, -8.4, -10.25)" width="17.9" xlink:href="#sprite5"/>
  </g>
  <defs>
    <g id="sprite0" transform="matrix(1.0, 0.0, 0.0, 1.0, 18.9, 13.15)">
      <use height="12.3" transform="matrix(1.0, 0.0, 0.0, 1.0, -18.9, 0.85)" width="37.35" xlink:href="#sprite1"/>
      <use height="15.0" transform="matrix(1.0, 0.0, 0.0, 1.0, -18.9, -3.5)" width="37.6" xlink:href="#sprite2"/>
      <use height="23.3" transform="matrix(1.0, 0.0, 0.0, 1.0, -18.9, -13.15)" width="37.6" xlink:href="#sprite3"/>
      <use height="21.25" transform="matrix(1.0, 0.0, 0.0, 1.0, -15.1, -11.9)" width="32.6" xlink:href="#shape3"/>
    </g>
    <g id="sprite1" transform="matrix(1.0, 0.0, 0.0, 1.0, 18.7, 6.15)">
      <use height="12.3" transform="matrix(1.0, 0.0, 0.0, 1.0, -18.7, -6.15)" width="37.35" xlink:href="#shape0"/>
    </g>
    <g id="shape0" transform="matrix(1.0, 0.0, 0.0, 1.0, 18.7, 6.15)">
      <path d="M-18.7 -6.15 L18.65 -6.15 Q18.65 -1.05 15.05 2.55 11.45 6.15 6.3 6.15 L-6.4 6.15 Q-11.5 6.15 -15.1 2.55 -18.7 -1.05 -18.7 -6.15" fill="#527ca3" fill-rule="evenodd" stroke="none"/>
    </g>
    <g id="sprite2" transform="matrix(1.0, 0.0, 0.0, 1.0, 18.8, 7.5)">
      <use height="15.0" transform="matrix(1.0, 0.0, 0.0, 1.0, -18.8, -7.5)" width="37.6" xlink:href="#shape1"/>
    </g>
    <g id="shape1" transform="matrix(1.0, 0.0, 0.0, 1.0, 18.8, 7.5)">
      <path d="M18.8 -7.5 L18.8 -2.8 Q18.8 1.5 15.8 4.5 12.75 7.5 8.45 7.5 L-8.5 7.5 Q-12.75 7.5 -15.8 4.5 -18.8 1.5 -18.8 -2.8 L-18.8 -7.5 18.8 -7.5" fill="#a10069" fill-rule="evenodd" stroke="none"/>
    </g>
    <g id="sprite3" transform="matrix(1.0, 0.0, 0.0, 1.0, 18.8, 11.65)">
      <use height="23.3" transform="matrix(1.0, 0.0, 0.0, 1.0, -18.8, -11.65)" width="37.6" xlink:href="#shape2"/>
    </g>
    <g id="shape2" transform="matrix(1.0, 0.0, 0.0, 1.0, 18.8, 11.65)">
      <path d="M18.8 -1.3 L18.8 1.35 Q18.8 5.65 15.8 8.65 12.75 11.65 8.45 11.65 L-8.5 11.65 Q-12.75 11.65 -15.8 8.65 -18.8 5.65 -18.8 1.35 L-18.8 -1.3 Q-18.8 -5.6 -15.8 -8.65 -12.8 -11.65 -8.5 -11.65 L8.45 -11.65 Q12.75 -11.65 15.8 -8.65 18.8 -5.6 18.8 -1.3" fill="#f0009c" fill-rule="evenodd" stroke="none"/>
    </g>
    <g id="shape3" transform="matrix(1.0, 0.0, 0.0, 1.0, 15.1, 11.9)">
      <path d="M12.05 -4.8 Q17.5 -4.8 17.5 0.35 17.5 3.05 15.2 5.65 12.85 8.35 10.25 8.35 L-5.6 9.35 Q-10.75 9.35 -14.4 3.35 -15.95 0.15 -14.15 -2.45 -12.55 -4.8 -9.9 -4.8 L12.05 -4.8" fill="url(#gradient0)" fill-rule="evenodd" stroke="none"/>
      <path d="M-14.0 -6.7 Q-14.0 -8.85 -12.5 -10.35 -10.95 -11.9 -8.8 -11.9 L9.65 -11.9 Q11.8 -11.9 13.35 -10.35 14.85 -8.85 14.85 -6.7 L14.85 -5.35 Q14.85 -3.2 13.35 -1.7 11.8 -0.15 9.65 -0.15 L-8.8 -0.15 Q-10.95 -0.15 -12.5 -1.7 -14.0 -3.2 -14.0 -5.35 L-14.0 -6.7" fill="url(#gradient1)" fill-rule="evenodd" stroke="none"/>
    </g>
    <linearGradient gradientTransform="matrix(0.0, 0.0079, -0.0086, 0.0, 1.3, 2.25)" gradientUnits="userSpaceOnUse" id="gradient0" spreadMethod="pad" x1="-819.2" x2="819.2">
      <stop offset="0.0" stop-color="#c10276"/>
      <stop offset="1.0" stop-color="#ff009c"/>
    </linearGradient>
    <linearGradient gradientTransform="matrix(0.0, 0.007, -0.0072, 0.0, 0.45, -6.0)" gradientUnits="userSpaceOnUse" id="gradient1" spreadMethod="pad" x1="-819.2" x2="819.2">
      <stop offset="0.0" stop-color="#fe9ae0"/>
      <stop offset="1.0" stop-color="#ff00a6"/>
    </linearGradient>
    <g id="sprite4" transform="matrix(1.0, 0.0, 0.0, 1.0, 9.95, 9.8)">
      <use height="19.6" transform="matrix(1.0, 0.0, 0.0, 1.0, -9.95, -9.8)" width="19.9" xlink:href="#shape4"/>
    </g>
    <g id="shape4" transform="matrix(1.0, 0.0, 0.0, 1.0, 9.95, 9.8)">
      <path d="M-5.75 -5.1 Q-1.5 -9.8 -0.2 -9.8 1.0 -9.8 5.5 -5.0 9.95 -0.3 9.95 0.6 9.95 1.75 7.25 2.1 L7.4 5.1 Q7.4 7.95 6.6 8.75 5.55 9.8 0.0 9.8 -5.55 9.8 -6.6 8.75 -7.35 8.0 -7.35 5.15 L-7.2 2.2 Q-9.95 1.95 -9.95 0.6 -9.95 -0.5 -5.75 -5.1" fill="#f0009c" fill-rule="evenodd" stroke="none"/>
    </g>
    <g id="sprite5" transform="matrix(1.0, 0.0, 0.0, 1.0, 8.95, 8.8)">
      <use height="17.6" transform="matrix(1.0, 0.0, 0.0, 1.0, -8.95, -8.8)" width="17.9" xlink:href="#shape5"/>
    </g>
    <g id="shape5" transform="matrix(1.0, 0.0, 0.0, 1.0, 8.95, 8.8)">
      <path d="M-2.05 2.05 L-2.05 6.15 2.05 6.15 2.05 2.05 -2.05 2.05 M-5.0 -4.35 Q-1.0 -8.8 -0.2 -8.8 0.55 -8.8 4.8 -4.25 8.95 0.15 8.95 0.6 8.95 1.0 6.2 1.25 6.7 7.35 5.9 8.05 5.15 8.85 -0.05 8.8 -5.15 8.8 -5.9 8.05 -6.6 7.35 -6.15 1.35 -8.95 1.1 -8.95 0.6 -8.95 0.0 -5.0 -4.35" fill="url(#gradient2)" fill-rule="evenodd" stroke="none"/>
    </g>
    <linearGradient gradientTransform="matrix(-0.0077, -0.0077, 0.0076, -0.0076, 0.0, 0.0)" gradientUnits="userSpaceOnUse" id="gradient2" spreadMethod="pad" x1="-819.2" x2="819.2">
      <stop offset="0.0" stop-color="#febde9"/>
      <stop offset="1.0" stop-color="#ffffff"/>
    </linearGradient>
  </defs>
</svg>
