<?xml version="1.0" encoding="UTF-8" standalone="no"?>
<svg xmlns:xlink="http://www.w3.org/1999/xlink" height="12.25px" width="14.35px" xmlns="http://www.w3.org/2000/svg">
  <g transform="matrix(1.0, 0.0, 0.0, 1.0, -0.05, 0.0)">
    <path d="M14.4 5.25 Q14.4 7.4 12.3 8.95 L12.3 9.0 Q10.15 10.45 7.25 10.45 L5.65 10.35 4.65 10.15 4.45 10.05 0.15 12.25 1.85 8.7 Q0.0 7.25 0.05 5.25 L0.05 5.2 Q0.0 3.75 1.0 2.6 L2.15 1.55 Q2.35 1.35 2.6 1.25 3.15 0.85 3.85 0.6 L4.95 0.25 7.25 0.0 8.7 0.1 Q10.15 0.3 11.4 0.95 L12.3 1.55 Q14.4 3.1 14.4 5.25" fill="#f20000" fill-rule="evenodd" stroke="none"/>
    <path d="M14.4 5.25 Q14.4 3.1 12.3 1.55 L11.4 0.95 Q10.15 0.3 8.7 0.1 L7.25 0.0 4.95 0.25 3.85 0.6 Q3.15 0.85 2.6 1.25 2.35 1.35 2.15 1.55 L1.0 2.6 Q0.0 3.75 0.05 5.2 L0.05 5.25 Q0.0 7.25 1.85 8.7 L0.15 12.25 4.45 10.05 4.65 10.15 5.65 10.35 7.25 10.45 Q10.15 10.45 12.3 9.0 L12.3 8.95 Q14.4 7.4 14.4 5.25 Z" fill="none" stroke="#990000" stroke-linecap="round" stroke-linejoin="round" stroke-width="0.05"/>
    <path d="M11.0 5.9 L9.5 5.9 9.5 4.45 11.0 4.45 11.0 5.9 M6.55 5.9 L6.55 4.45 8.05 4.45 8.05 5.9 6.55 5.9 M3.6 5.9 L3.6 4.45 5.05 4.45 5.05 5.9 3.6 5.9" fill="#990000" fill-rule="evenodd" stroke="none"/>
  </g>
</svg>
