<svg xmlns:xlink="http://www.w3.org/1999/xlink" height="20.15" width="20.95" xmlns="http://www.w3.org/2000/svg"><use height="20.15" width="20.95" xlink:href="#a"/><defs><linearGradient gradientTransform="matrix(.0064 0 0 .0123 5.2 -.05)" gradientUnits="userSpaceOnUse" id="b" spreadMethod="pad" x1="-819.2" x2="819.2"><stop offset="0" stop-color="#ffc2ea"/><stop offset="1" stop-color="#fff"/></linearGradient><linearGradient gradientTransform="matrix(.0019 -.0033 .0037 .0021 44.95 28.25)" gradientUnits="userSpaceOnUse" id="c" spreadMethod="pad" x1="-819.2" x2="819.2"><stop offset="0" stop-color="#6b1449"/><stop offset="1" stop-color="#af2076"/></linearGradient><g id="a" fill-rule="evenodd"><path d="M-10.5-6.5 0-10.1v20.15Q-3.65 7-5.9 3.85-8.4.25-10.5-6.5" fill="#fff" transform="translate(10.5 10.1)"/><path d="m0-10.1 10.45 3.6q-2 6.75-4.6 10.35Q3.9 6.8 0 10.05V-10.1" fill="url(#b)" transform="translate(10.5 10.1)"/><path d="m-4.55 1.8-.05-.05 2-2q-.55-1-.55-2.2 0-1.95 1.4-3.3 1.35-1.4 3.3-1.4 1.9 0 3.3 1.4Q6.2-4.4 6.2-2.45q0 1.9-1.35 3.3-1.4 1.35-3.3 1.35l-1.9-.35-1.7 1.7-.4.45-2.15-.05q-1.05-1.05 0-2.15h.05M1.55.4Q4.4.4 4.4-2.45T1.55-5.3q-2.85 0-2.85 2.85T1.55.4" fill="url(#c)" transform="translate(10.5 10.1)"/></g></defs></svg>