<?xml version="1.0" encoding="UTF-8" standalone="no"?>
<svg xmlns:xlink="http://www.w3.org/1999/xlink" height="20.15px" width="20.95px" xmlns="http://www.w3.org/2000/svg">
  <g transform="matrix(1.0, 0.0, 0.0, 1.0, 10.5, 10.1)">
    <use height="20.15" transform="matrix(1.0, 0.0, 0.0, 1.0, -10.5, -10.1)" width="20.95" xlink:href="#shape0"/>
  </g>
  <defs>
    <g id="shape0" transform="matrix(1.0, 0.0, 0.0, 1.0, 10.5, 10.1)">
      <path d="M-10.5 -6.5 L0.0 -10.1 0.0 10.05 Q-3.65 7.0 -5.9 3.85 -8.4 0.25 -10.5 -6.5" fill="#ffffff" fill-rule="evenodd" stroke="none"/>
      <path d="M0.0 -10.1 L10.45 -6.5 Q8.45 0.25 5.85 3.85 3.9 6.8 0.0 10.05 L0.0 -10.1" fill="url(#gradient0)" fill-rule="evenodd" stroke="none"/>
      <path d="M0.1 -7.05 Q3.05 -7.05 3.05 -4.25 L3.05 1.15 1.85 1.15 1.85 -4.15 Q1.85 -5.95 0.1 -5.95 -1.85 -5.95 -1.85 -4.15 L-1.85 0.6 -3.05 0.6 -3.05 -4.15 Q-3.05 -5.25 -2.1 -6.15 -1.15 -7.05 0.1 -7.05" fill="url(#gradient1)" fill-rule="evenodd" stroke="none"/>
      <path d="M0.0 2.3 Q1.3 2.3 1.3 0.95 1.3 -0.4 0.0 -0.4 -1.35 -0.4 -1.35 0.95 -1.35 2.3 0.0 2.3 M4.1 4.05 L-4.25 4.05 -4.25 -2.25 4.1 -2.25 4.1 4.05" fill="url(#gradient2)" fill-rule="evenodd" stroke="none"/>
    </g>
    <linearGradient gradientTransform="matrix(0.0064, 0.0, 0.0, 0.0123, 5.2, -0.05)" gradientUnits="userSpaceOnUse" id="gradient0" spreadMethod="pad" x1="-819.2" x2="819.2">
      <stop offset="0.0" stop-color="#ffc2ea"/>
      <stop offset="1.0" stop-color="#ffffff"/>
    </linearGradient>
    <linearGradient gradientTransform="matrix(0.0, -0.0018, 0.005, 0.0, -0.45, -3.2)" gradientUnits="userSpaceOnUse" id="gradient1" spreadMethod="pad" x1="-819.2" x2="819.2">
      <stop offset="0.0" stop-color="#6b1449"/>
      <stop offset="1.0" stop-color="#af2076"/>
    </linearGradient>
    <linearGradient gradientTransform="matrix(0.0, -0.0024, 0.0043, 0.0, 28.5, 2.4)" gradientUnits="userSpaceOnUse" id="gradient2" spreadMethod="pad" x1="-819.2" x2="819.2">
      <stop offset="0.0" stop-color="#6b1449"/>
      <stop offset="1.0" stop-color="#af2076"/>
    </linearGradient>
  </defs>
</svg>
