<svg xmlns="http://www.w3.org/2000/svg" xmlns:xlink="http://www.w3.org/1999/xlink" width="11" height="11"><use xlink:href="#a" width="127.95" height="17.6" transform="translate(-4.4 -3.65)"/><defs><path id="b" fill="#900" fill-rule="evenodd" d="M25 0q0 10.3-7.3 17.65Q10.35 25 0 25t-17.65-7.35Q-25 10.3-25 0q0-10.35 7.35-17.7Q-10.35-25.05 0-25q10.35-.05 17.7 7.3Q25-10.35 25 0" transform="translate(25 25)"/><path id="c" fill="#fff" fill-rule="evenodd" d="m0 8.7 1.75-7.3h8.2l1.8 7.2L0 8.7" transform="translate(0 -1.4)"/><use xlink:href="#b" id="d" width="50" height="50"/><use xlink:href="#c" id="e" width="11.75" height="7.3"/><g id="a"><use xlink:href="#sprite0" width="127.95" height="17.15" transform="translate(0 .45)"/><use xlink:href="#d" width="50" height="50" transform="matrix(.22 0 0 .22 4.4 3.65)"/><use xlink:href="#e" width="11.75" height="7.3" transform="rotate(-134.991 8.21 -.07) scale(.1 -1.4998)"/><use xlink:href="#e" width="11.75" height="7.3" transform="rotate(-45.009 9.731 -4.079) scale(.1 1.4998)"/><use xlink:href="#text0" width="105.7" height="16.05" transform="translate(18.3)"/></g></defs></svg>