<?xml version="1.0" standalone="no"?>
<!DOCTYPE svg PUBLIC "-//W3C//DTD SVG 20010904//EN"
 "http://www.w3.org/TR/2001/REC-SVG-20010904/DTD/svg10.dtd">
<svg version="1.0" xmlns="http://www.w3.org/2000/svg"
 width="1120.000000pt" height="1120.000000pt" viewBox="0 0 1120.000000 1120.000000"
 preserveAspectRatio="xMidYMid meet">
<metadata>
Created by potrace 1.14, written by Peter Selinger 2001-2017
</metadata>
<g transform="translate(0.000000,1120.000000) scale(0.100000,-0.100000)"
fill="#000000" stroke="none">
<path d="M5557 11193 c-4 -4 -173 -10 -375 -14 -546 -11 -917 -55 -1334 -159
-612 -153 -1138 -408 -1593 -775 -832 -669 -1350 -1652 -1534 -2910 -19 -132
-21 -228 -36 -1630 l-16 -1490 25 -296 c41 -463 115 -834 241 -1214 202 -605
474 -1064 855 -1445 194 -194 359 -323 610 -475 162 -98 254 -139 931 -408
l664 -264 115 -12 c63 -6 311 -29 550 -50 432 -40 438 -40 965 -42 l530 -3
445 46 c555 57 693 82 965 168 372 119 856 341 1088 499 230 157 528 418 776
679 605 638 990 1255 1092 1746 19 90 20 122 15 286 -4 102 -24 775 -46 1495
-22 721 -44 1414 -50 1540 -9 197 -38 983 -81 2175 -9 268 -14 318 -36 415
-86 370 -251 581 -784 1007 -46 37 -122 100 -169 139 -173 143 -378 271 -643
399 -375 181 -714 298 -1222 420 -409 98 -405 98 -1025 137 -583 36 -910 49
-923 36z m544 -658 c233 -14 512 -30 619 -36 279 -15 500 -59 787 -156 215
-72 347 -132 571 -259 114 -64 279 -158 367 -208 95 -54 197 -121 250 -165
121 -100 382 -362 489 -491 151 -181 292 -408 350 -562 l26 -68 40 -1202 c22
-662 63 -1858 91 -2658 27 -800 50 -1520 51 -1600 1 -213 -35 -355 -148 -586
-114 -234 -277 -447 -554 -724 -345 -345 -530 -486 -907 -689 -257 -140 -540
-251 -828 -326 -267 -70 -246 -67 -1207 -145 l-496 -40 -324 20 c-177 10 -505
35 -728 55 -444 38 -472 44 -729 135 -547 193 -1101 475 -1377 701 -398 325
-709 806 -909 1405 -95 285 -195 711 -195 836 0 29 -7 114 -15 188 -21 195
-22 2771 -1 3025 23 275 86 624 162 898 218 787 586 1377 1157 1852 326 271
652 448 1083 588 455 149 871 210 1529 227 160 3 320 7 356 8 36 1 256 -9 490
-23z"/>
<path d="M5790 9613 c-36 -1 -238 -7 -450 -13 -531 -14 -794 -44 -1095 -126
-231 -63 -503 -184 -677 -301 -331 -222 -586 -558 -761 -1003 -120 -307 -184
-594 -217 -990 -18 -206 -20 -325 -20 -1435 0 -1135 2 -1221 20 -1395 64 -604
220 -1049 473 -1355 103 -124 267 -255 388 -309 83 -37 541 -230 769 -323
l205 -84 190 -14 c507 -38 917 -65 984 -65 41 0 320 20 620 45 589 49 668 60
906 135 151 47 289 105 420 177 321 177 506 318 669 513 189 225 294 434 410
808 58 190 65 223 85 397 33 301 25 428 -40 596 -57 148 -175 292 -303 368
-114 68 -292 121 -511 151 -124 17 -564 24 -683 11 -274 -30 -466 -95 -669
-227 -115 -74 -193 -155 -239 -249 l-38 -76 -8 -202 c-12 -319 -47 -547 -98
-647 -10 -20 -78 -92 -150 -160 l-131 -124 -122 -18 c-96 -14 -135 -15 -182
-7 -167 28 -298 150 -374 348 -65 169 -63 130 -72 1211 -13 1372 -7 2331 14
2429 60 274 243 403 525 371 192 -21 268 -56 390 -177 90 -89 110 -138 128
-320 27 -266 72 -440 157 -607 160 -312 497 -440 1117 -423 244 7 870 68 963
94 170 47 283 185 343 418 21 82 27 132 31 271 8 251 -17 392 -127 726 -146
444 -345 721 -723 1010 -287 219 -538 344 -927 461 -193 58 -245 65 -635 87
-203 11 -397 21 -430 23 -33 2 -89 2 -125 0z"/>
</g>
</svg>
