<svg xmlns="http://www.w3.org/2000/svg" xmlns:xlink="http://www.w3.org/1999/xlink" width="43.65" height="54.5"><use xlink:href="#a" width="43.65" height="54.5"/><defs><linearGradient id="b" x1="-819.2" x2="819.2" gradientTransform="matrix(.0135 .0132 -.007 .0071 6.35 .2)" gradientUnits="userSpaceOnUse" spreadMethod="pad"><stop offset="0" stop-color="#f4b000"/><stop offset="1" stop-color="#e77607"/></linearGradient><g id="a" fill-rule="evenodd"><path fill="#764701" d="M43.4 10.4q.6 1.95-.25 3.8l-.05.05-3.4 7-.05.1q-.9 1.7-2.65 2.5l-.1.05-1.65.4v7q1.2 0 2.35.55l.15.05q1.75.95 2.5 2.8l.05.1 2.7 7.3q.55 1.4.3 2.85v.2q-.35 1.3-1.3 2.35l-.2.2-2.15 1.4h-.05l-3.55 1.1-.7.2-.2.05q-.35 1.35-1.45 2.45l-.05.05q-1.55 1.55-3.7 1.55H26l-1.95-.3-1.95.3h-3.9q-2.2 0-3.7-1.55l-.1-.05q-1.55-1.55-1.55-3.7v-.35l-2.2-1-.9-.5-.2-.05-2.5-1.8-.2-.15-.6-.6-.05-.1-2.1-2.75q-1.8-2.8-2.75-5.75l-.1-.2q-1-2.8-1.2-5.8v-.05q-.2-2.7.15-5.4.2-1.95.8-3.7l.2-.5.15-.25q1.2-2.75 3-5.05l.2-.25q1.55-2.25 3.6-3.8L8.3 11l3.75-2.55.35-.2.45-.2v-2.7q0-2.2 1.55-3.7l.1-.1Q16 0 18.2 0h3.9l1.95.35L26 0h3.95q2.15 0 3.7 1.55l.05.1q1.55 1.5 1.55 3.7l2.35.4.65.2.2.05q1.35.45 2.75 1.35l.2.15q1.55 1.1 2 3.05v-.15"/><path fill="url(#b)" d="m16.45-15.7-.05.25L13-8.4l-8.4-2.3q-5.85 0-9.55 3.45Q-9-4.15-8.9.85q-.05 4.3 3.7 7.75 4 3.1 9.45 3.1l9.1-2.3 2.75 7.3q-3.15 1.35-8.15 1.55v3.6h-3.7v-3.5L.2 18.1v3.75h-3.8v-4.3q-13.15-3-13.15-16.7 0-5.95 3.45-10.2l2.95-2.85q3-2.35 6.75-3.65v-6H.2v5.05l4.05-.4v-4.65h3.7v4.65q5.1.25 8.5 1.5M7.95 8.2h-3.7V-8.2h3.7V8.2M-3.6 5.5V-4.85L.2-8.2V8.2l-3.8-2.7" transform="translate(21.85 27.25)"/><path fill="#fff" fill-opacity=".482" d="m29.8 10.05 2.85.25-6.55 6.25q-5.6.1-9.2 3.45-4.05 3.1-3.95 8.1v.6L6.1 34.75q-1-2.95-1-6.65v-.8l1.45-6.15.3-.65 1.4-1.1L16 12.35l2.25-.95v-1.2l3.8-3.6v3.85l4.05-.4V5.4h3.7v4.65m0 21.4L26.1 35v-7.15l3.7-3.65v7.25m-11.55-7.6V22.4l3.8-3.35v1.3l-3.8 3.5m3.8 7.95v3.65l-2.2-1.55 2.2-2.1M16.3 44.3l-.2-.1q-2.7-.9-4.7-2.25l2.15-2.05 3.75-3.55q2.3 1.55 5.05 2.2l-4.7 4.35-1.35 1.4"/><path fill="#fdf3df" d="M29.8 10.05q5.1.25 8.5 1.5l-.05.25-.4.85q-3.3-1.15-8.05-1.35v-1.25m-3.7 0v1.25l-4.05.4v-1.25l4.05-.4m3.7-3.4h-3.7V5.4h3.7v1.25m-16.85 22.7v-.7q.2 4 3.7 7.2 4 3.1 9.45 3.1l9.1-2.3 2.75 7.3-.4.15-2.35-6.2-9.1 2.3q-5.45 0-9.45-3.1-3.75-3.45-3.7-7.75M11.5 16.3l-2.95 2.85q-3.3 4.05-3.45 9.6v-.65q0-5.95 3.45-10.2l2.95-2.85q3-2.35 6.75-3.65v1.25q-3.75 1.3-6.75 3.65m10.55 4-3.8 3.35V22.4l3.8-3.35v1.25m-3.8-13.65V5.4h3.8v1.25h-3.8M29.8 20.3h-3.7v-1.25h3.7v1.25"/></g></defs></svg>