<svg height="30.838" width="81.128" xmlns:xlink="http://www.w3.org/1999/xlink" xmlns="http://www.w3.org/2000/svg"><g transform="translate(-3.953 -1.802)"><use height="23.9" transform="translate(21.657 7.434) scale(.9998)" width="63.4" xlink:href="#a" style="display:inline"/><use height="50" transform="translate(5.06 4.96) scale(.5536)" width="50" xlink:href="#b" style="display:inline;fill:#1c5f95;fill-opacity:1"/><use height="50" transform="translate(3.953 1.802) scale(.5979)" width="50" xlink:href="#b" style="display:inline;fill:#144670;fill-opacity:1"/><g fill-rule="evenodd"><path d="M82.418 10.252h.05q.85-.15 1.6.35.7.45.95 1.3v.05q.2.85-.25 1.6-1.85 3.2-4.75 5.3l-.05.05h-.05l-.65.4 1.25 1.05h.05l.15.2q2.6 2.75 4.05 6.85v-.05q.3.8 0 1.6-.35.8-1.1 1.2l-1.55.15-5.6-1.2-.2-.05-5.3-1.05h.05l-.3-.1-.4-.1q-4-1.05-8.05-2.6-8.45-3.2-12.2-3.55-1.45-.15-3.25.05l-5.85 1.25-.15.05q-6.2 1.9-8.5 1.5-4.55-.65-7.75-3.5l-.15-.15-.1-.05-.2-.2-.05-.05-.45-.8-1.85-5.3v.05q-.25-.7-.1-1.35v-.05l1.05-3.7q.2-.7.75-1.15v.05l1.25-.55h.05q.7 0 1.35.4h-.05q3.25 2 4.85 2.25 1.7.1 5.65-1.2l.15-.05q5.35-1.8 9.45-2.4h.05l4.05-.3q5.95 0 13.65 2.2 5.35 1.5 9.7 2.1h.2l8.55-.5" fill="#144670"/><path d="M20.15-6.65h.15l8.95-.55.9.2.5.75-.1.9Q28.8-2.3 26.1-.4l-.1.05-1.95 1.1 2.5 2 .1.05q2.45 2.65 3.8 6.5v.9l-.6.65-.85.1-5.7-1.2V9.7l-5.4-1.1-.25-.05-.4-.1Q13.3 7.4 9.3 5.85.65 2.6-3.15 2.25-4.7 2.1-6.6 2.3q-2.8.35-6.25 1.35h.05q-5.9 1.8-8.1 1.45-4.3-.6-7.3-3.35l-.1-.05-.2-.2-.25-.45-1.85-5.3-.05-.75 1-3.7.45-.65q.3-.25.7-.3l.75.25Q-24.3-7.2-22.5-7q1.9.15 6.2-1.3 5.3-1.8 9.3-2.35l3.95-.3q5.8 0 13.35 2.15 5.45 1.55 9.85 2.15m2.15 8.1.3-.15-.1-.05-.15.15-.05.05M22.75 0l-.05-.05.05.05" fill="url(#c)" style="fill:url(#d)" transform="translate(53.368 18.402)"/><path d="m20.1-5.4 9.35-.55Q27.85-3.2 25.4-1.4 23.15-.1 21.35.4h.2l-.35.3.05.05h.1q.75.3 1.55.75l2.85 2.15q2.3 2.45 3.55 6.05l-5.8-1.2-5.35-1.1-.6-.2L9.7 4.65Q.9 1.4-3.05 1.05-4.7.85-6.8 1.1q-2.9.35-6.4 1.35-5.5 1.65-7.5 1.4-3.95-.5-6.65-2.95l-.25-.25-1.85-5.3 1-3.75q3.85 2.45 5.85 2.65 2 .25 6.7-1.4 5.15-1.7 9.1-2.3l3.75-.2q5.7-.05 13 2.05 5.6 1.55 10.1 2.2h.05m.85.5-.2-.15.15.15h.05m-.3 5.6v.15h.25L20.65.7" fill="url(#e)" style="fill:url(#f)" transform="translate(53.368 18.402)"/><path d="m20.65.7.25.15h-.25V.7" fill="url(#g)" style="fill:url(#h)" transform="translate(53.368 18.402)"/></g><use height="50" transform="translate(5.06 2.91) scale(.5536)" width="50" xlink:href="#b" style="display:inline;fill:#2785d1;fill-opacity:1"/><use height="50" transform="translate(6.439 4.289) scale(.4984)" width="50" xlink:href="#b" style="display:inline;fill:#82d0ff;fill-opacity:1"/><use height="50" transform="translate(7.534 5.407) scale(.4546)" width="50" xlink:href="#i" style="display:inline"/><use height="50" transform="matrix(.396 0 0 .396 6.45 2.62)" width="50" xlink:href="#i"/><use height="14.8" transform="translate(11 10.05)" width="15.75" xlink:href="#j"/></g><defs><linearGradient gradientTransform="matrix(.029 .013 .0022 -.0123 -4.35 31.2)" gradientUnits="userSpaceOnUse" id="e" spreadMethod="pad" x1="-819.2" x2="819.2"><stop offset="0" stop-color="#1c5f95"/><stop offset=".212" stop-color="#1c5f95"/><stop offset=".588" stop-color="#1c5f95"/><stop offset=".792" stop-color="#1c5f95"/><stop offset="1" stop-color="#1c5f95"/></linearGradient><linearGradient gradientTransform="matrix(.029 .013 .0022 -.0123 -.4 3.4)" gradientUnits="userSpaceOnUse" id="g" spreadMethod="pad" x1="-819.2" x2="819.2"><stop offset="0" stop-color="#1c5f95"/><stop offset=".192" stop-color="#1c5f95"/><stop offset=".565" stop-color="#1c5f95"/><stop offset=".725" stop-color="#1c5f95"/><stop offset="1" stop-color="#1c5f95"/></linearGradient><linearGradient gradientTransform="matrix(.0291 .0108 .002 -.0099 -.9 1.3)" gradientUnits="userSpaceOnUse" id="o" spreadMethod="pad" x1="-819.2" x2="819.2"><stop offset="0" stop-color="#1c5f95"/><stop offset=".192" stop-color="#1c5f95"/><stop offset=".565" stop-color="#1c5f95"/><stop offset=".725" stop-color="#1c5f95"/><stop offset="1" stop-color="#1c5f95"/></linearGradient><linearGradient gradientTransform="matrix(-.0049 -.0015 .0021 -.0069 21.45 17.35)" gradientUnits="userSpaceOnUse" id="p" spreadMethod="pad" x1="-819.2" x2="819.2"><stop offset="0" stop-color="#650120"/><stop offset="1" stop-color="#ff1171"/></linearGradient><linearGradient gradientTransform="matrix(-.0026 -.0005 .0004 -.0019 20.55 23.1)" gradientUnits="userSpaceOnUse" id="q" spreadMethod="pad" x1="-819.2" x2="819.2"><stop offset="0" stop-color="#650120"/><stop offset="1" stop-color="#ff1171"/></linearGradient><linearGradient gradientTransform="matrix(-.0021 0 0 .0021 25.1 11.75)" gradientUnits="userSpaceOnUse" id="r" spreadMethod="pad" x1="-819.2" x2="819.2"><stop offset="0" stop-color="#650120"/><stop offset="1" stop-color="#ff1171"/></linearGradient><linearGradient gradientTransform="matrix(-.0021 0 0 .0021 18.85 11.75)" gradientUnits="userSpaceOnUse" id="s" spreadMethod="pad" x1="-819.2" x2="819.2"><stop offset="0" stop-color="#650120"/><stop offset="1" stop-color="#ff1171"/></linearGradient><linearGradient gradientTransform="matrix(-.0021 0 0 .0021 12.65 11.75)" gradientUnits="userSpaceOnUse" id="t" spreadMethod="pad" x1="-819.2" x2="819.2"><stop offset="0" stop-color="#650120"/><stop offset="1" stop-color="#ff1171"/></linearGradient><linearGradient gradientTransform="matrix(.029 .013 .0022 -.0123 -4.35 31.2)" gradientUnits="userSpaceOnUse" id="d" spreadMethod="pad" x1="-819.2" x2="819.2"><stop offset="0" stop-color="#0280fd"/><stop offset=".212" stop-color="#b2d7fc"/><stop offset=".588" stop-color="#047bf2"/><stop offset=".792" stop-color="#68aff7"/><stop offset="1" stop-color="#3899d8"/></linearGradient><linearGradient gradientTransform="matrix(.029 .013 .0022 -.0123 -.4 3.4)" gradientUnits="userSpaceOnUse" id="f" spreadMethod="pad" x1="-819.2" x2="819.2"><stop offset="0" stop-color="#c4e1ff"/><stop offset=".192" stop-color="#fff"/><stop offset=".565" stop-color="#92c9fe"/><stop offset=".725" stop-color="#fff"/><stop offset="1" stop-color="#b8d6f1"/></linearGradient><linearGradient gradientTransform="matrix(.0291 .0108 .002 -.0099 -.9 1.3)" gradientUnits="userSpaceOnUse" id="h" spreadMethod="pad" x1="-819.2" x2="819.2"><stop offset="0" stop-color="#c4e1ff"/><stop offset=".192" stop-color="#fff"/><stop offset=".565" stop-color="#92c9fe"/><stop offset=".725" stop-color="#fff"/><stop offset="1" stop-color="#b8d6f1"/></linearGradient><use height="23.9" width="63.4" xlink:href="#k" id="a"/><use height="50" width="50" xlink:href="#l" id="b"/><use height="50" width="50" xlink:href="#m" id="i"/><radialGradient cx="0" cy="0" gradientTransform="scale(.0307)" gradientUnits="userSpaceOnUse" id="c" r="819.2" spreadMethod="pad"><stop offset="0" stop-color="#123d5f" stop-opacity=".467"/><stop offset="1" stop-color="#123d5f" stop-opacity="0"/></radialGradient><radialGradient cx="0" cy="0" gradientTransform="scale(.0307)" gradientUnits="userSpaceOnUse" id="n" r="819.2" spreadMethod="pad"><stop offset=".337" stop-color="#e7f1f8"/><stop offset="1" stop-color="#e7f1f8" stop-opacity="0"/></radialGradient><path d="M25 0q0 10.3-7.3 17.65Q10.35 25 0 25t-17.65-7.35Q-25 10.3-25 0q0-10.35 7.35-17.7Q-10.35-25.05 0-25q10.35-.05 17.7 7.3Q25-10.35 25 0" fill-rule="evenodd" transform="translate(25 25)" id="l"/><path d="M0-24.95q10.3 0 17.6 7.3Q24.95-10.3 25 .05q-.05 10.3-7.4 17.6Q10.3 25 0 25.05q-10.35-.05-17.7-7.4-7.3-7.3-7.3-17.6 0-10.35 7.3-17.7 7.35-7.3 17.7-7.3" fill="url(#n)" fill-rule="evenodd" transform="translate(25 24.95)" id="m"/><g id="k" fill-rule="evenodd"><path d="M29.05-8.15h.05q.85-.15 1.6.35.7.45.95 1.3v.05q.2.85-.25 1.6-1.85 3.2-4.75 5.3L26.6.5h-.05l-.65.4 1.25 1.05h.05l.15.2Q29.95 4.9 31.4 9v-.05q.3.8 0 1.6-.35.8-1.1 1.2l-1.55.15-5.6-1.2-.2-.05-5.3-1.05h.05l-.3-.1-.4-.1q-4-1.05-8.05-2.6Q.5 3.6-3.25 3.25-4.7 3.1-6.5 3.3l-5.85 1.25-.15.05q-6.2 1.9-8.5 1.5-4.55-.65-7.75-3.5l-.15-.15-.1-.05-.2-.2-.05-.05-.45-.8-1.85-5.3v.05q-.25-.7-.1-1.35v-.05L-30.6-9q.2-.7.75-1.15v.05l1.25-.55h.05q.7 0 1.35.4h-.05Q-24-8.25-22.4-8q1.7.1 5.65-1.2l.15-.05q5.35-1.8 9.45-2.4h.05l4.05-.3q5.95 0 13.65 2.2 5.35 1.5 9.7 2.1h.2l8.55-.5" fill="#1c5f95" transform="translate(31.7 11.95)"/><path d="M20.15-6.65h.15l8.95-.55.9.2.5.75-.1.9Q28.8-2.3 26.1-.4l-.1.05-1.95 1.1 2.5 2 .1.05q2.45 2.65 3.8 6.5v.9l-.6.65-.85.1-5.7-1.2V9.7l-5.4-1.1-.25-.05-.4-.1Q13.3 7.4 9.3 5.85.65 2.6-3.15 2.25-4.7 2.1-6.6 2.3q-2.8.35-6.25 1.35h.05q-5.9 1.8-8.1 1.45-4.3-.6-7.3-3.35l-.1-.05-.2-.2-.25-.45-1.85-5.3-.05-.75 1-3.7.45-.65q.3-.25.7-.3l.75.25Q-24.3-7.2-22.5-7q1.9.15 6.2-1.3 5.3-1.8 9.3-2.35l3.95-.3q5.8 0 13.35 2.15 5.45 1.55 9.85 2.15m2.15 8.1.3-.15-.1-.05-.15.15-.05.05M22.75 0l-.05-.05.05.05" fill="url(#e)" transform="translate(31.7 11.95)"/><path d="m20.1-5.4 9.35-.55Q27.85-3.2 25.4-1.4 23.15-.1 21.35.4h.2l-.35.3.05.05h.1q.75.3 1.55.75l2.85 2.15q2.3 2.45 3.55 6.05l-5.8-1.2-5.35-1.1-.6-.2L9.7 4.65Q.9 1.4-3.05 1.05-4.7.85-6.8 1.1q-2.9.35-6.4 1.35-5.5 1.65-7.5 1.4-3.95-.5-6.65-2.95l-.25-.25-1.85-5.3 1-3.75q3.85 2.45 5.85 2.65 2 .25 6.7-1.4 5.15-1.7 9.1-2.3l3.75-.2q5.7-.05 13 2.05 5.6 1.55 10.1 2.2h.05m.85.5-.2-.15.15.15h.05m-.3 5.6v.15h.25L20.65.7" fill="url(#g)" transform="translate(31.7 11.95)"/><path d="m20.65.7.25.15h-.25V.7" fill="url(#o)" transform="translate(31.7 11.95)"/></g><g id="j" fill-rule="evenodd"><path d="M18.65 13.4h.05v-.35h.5v.5h.05l2 3.15 3.35-3.3v-.05h.05-.05V13h.55v.4l-1.55 7.55q-1.85.95-4.6 1-2.95-.05-4.55-1l-1.6-7.4v-.5h.5v.2h-.05l3.4 3.45 1.95-3.3" fill="url(#p)" transform="translate(-11 -10.05)"/><path d="M14.6 23.2v-1.45q1 .65 2.3 1l2.1.35 2.1-.35q1.5-.35 2.5-1l-.15 1.45q-1.35 1.65-4.3 1.65h-.3q-3 0-4.25-1.65" fill="url(#q)" transform="translate(-11 -10.05)"/><path d="M23.4 11.75q0 .7.5 1.2t1.2.5q.65 0 1.15-.5.5-.5.5-1.2t-.5-1.2q-.5-.5-1.15-.5-.7 0-1.2.5t-.5 1.2" fill="url(#r)" transform="translate(-11 -10.05)"/><path d="M17.2 11.75q0 .7.5 1.2t1.15.5q.7 0 1.2-.5t.5-1.2q0-.7-.5-1.2t-1.2-.5q-.65 0-1.15.5-.5.5-.5 1.2" fill="url(#s)" transform="translate(-11 -10.05)"/><path d="M11 11.75q0 .7.5 1.2t1.15.5q.7 0 1.2-.5t.5-1.2q0-.7-.5-1.2t-1.2-.5q-.65 0-1.15.5-.5.5-.5 1.2" fill="url(#t)" transform="translate(-11 -10.05)"/></g></defs></svg>