<svg xmlns="http://www.w3.org/2000/svg" width="37.036" height="25.776" viewBox="0 0 9.799 6.82"><defs><linearGradient id="a" x1="89.91" y1="135.362" x2="96.43" y2="135.362" gradientUnits="userSpaceOnUse"><stop offset="0" stop-color="#fff"/><stop offset="1" stop-color="#d5fbff"/></linearGradient><linearGradient id="b" x1="89.91" y1="135.362" x2="96.43" y2="135.362" gradientUnits="userSpaceOnUse"><stop offset="0" stop-color="#85f0df"/><stop offset="1" stop-color="#17967c"/></linearGradient><linearGradient id="c" gradientTransform="matrix(-.00169 -.0026 .00219 -.0011 96.774 133.993)" x1="-339.246" y1="1009.728" x2="477.689" y2="-910.07" gradientUnits="userSpaceOnUse" spreadMethod="pad"><stop offset="0" stop-color="#53c2a7"/><stop offset="1" stop-color="#91dcdc"/></linearGradient></defs><g transform="translate(-89.76 -131.952)"><circle r="3.26" cx="93.17" cy="135.362" fill="url(#a)" stroke="url(#b)" stroke-width=".3" paint-order="markers fill stroke"/><path d="M91.879 133.19c-1.938.454-2.106 4.28.288 4.307 1.012.012 1.466-.989 1.466-.989l-1.584-.598 1.832-.981c-.246-1.176-1.08-1.953-2.001-1.737z" fill="#59a4b8"/><g fill="#fff"><path d="M92.453 134.984c-.862.146-.953-.949-.216-1.086.534-.1.705 1.003.216 1.086z"/><path d="M93.297 134.607c-.455.307-.943-.688-.378-.913.509-.204.834.605.378.913z"/></g><path d="M93.079 133.999c-.245-.066-.376.512-.092.554.341.05.348-.486.092-.554z" fill="#59a4b8"/><path d="M96.758 132.164c.772 0 1.434.157 1.987.471.542.314.814.688.814 1.123 0 .443-.271.822-.814 1.136-.553.314-1.215.471-1.987.471 0 0-1.081-.035-1.538-.31l-1.227.455.489-.814c-.294-.254-.508-.514-.508-.939 0-.434.271-.808.814-1.123.553-.314 1.21-.471 1.971-.471" fill="url(#c)" fill-rule="evenodd"/><path d="M92.427 134.24c-.274.027-.183.56.075.518.291-.048.192-.544-.075-.518z" fill="#59a4b8"/></g></svg>