<svg height="18" width="18" xmlns:xlink="http://www.w3.org/1999/xlink" xmlns="http://www.w3.org/2000/svg"><g transform="translate(-1.45 1.65)"><use height="50" transform="matrix(.36 0 0 .36 1.45 -1.65)" width="50" xlink:href="#a"/><use height="17.95" transform="translate(10.8 -1.65)" width="8.65" xlink:href="#b"/><use height="8.8" transform="translate(5.9 3.35)" width="9.55" xlink:href="#c"/><use height="8.8" transform="translate(5.9 3.35)" width="9.55" xlink:href="#d"/></g><defs><path d="M25 0q0 10.3-7.3 17.65Q10.35 25 0 25t-17.65-7.35Q-25 10.3-25 0q0-10.35 7.35-17.7Q-10.35-25.05 0-25q10.35-.05 17.7 7.3Q25-10.35 25 0" fill="#fff" fill-rule="evenodd" transform="translate(25 25)" id="g"/><path d="M0 0q3.6.15 6.15 2.75 2.5 2.6 2.5 6.25t-2.5 6.25Q3.6 17.85 0 17.95V0" fill="url(#e)" fill-rule="evenodd" id="h"/><path d="M4.75 5.3 7.3 0q2.25 1.4 2.25 4 0 2-1.4 3.4t-3.4 1.4Q2.8 8.8 1.4 7.4 0 6 0 4q0-2.6 2.25-4l2.5 5.3" fill="#f30" fill-rule="evenodd" id="i"/><path d="M4.75 5.3 7.3 0q2.25 1.4 2.25 4 0 2-1.4 3.4t-3.4 1.4Q2.8 8.8 1.4 7.4 0 6 0 4q0-2.6 2.25-4l2.5 5.3" fill="url(#f)" fill-rule="evenodd" id="j"/><use height="50" width="50" xlink:href="#g" id="a"/><use height="17.95" width="8.65" xlink:href="#h" id="b"/><use height="8.8" width="9.55" xlink:href="#i" id="c"/><use height="8.8" width="9.55" xlink:href="#j" id="d"/><linearGradient gradientTransform="matrix(.0053 0 0 .011 4.3 8.95)" gradientUnits="userSpaceOnUse" id="e" spreadMethod="pad" x1="-819.2" x2="819.2"><stop offset="0" stop-color="#f96"/><stop offset="1" stop-color="#f96" stop-opacity="0"/></linearGradient><linearGradient gradientTransform="matrix(.0058 0 0 .0054 4.75 4.4)" gradientUnits="userSpaceOnUse" id="f" spreadMethod="pad" x1="-819.2" x2="819.2"><stop offset="0" stop-color="#f96"/><stop offset="1" stop-color="#f96" stop-opacity="0"/></linearGradient></defs></svg>