<svg height="19.6" width="19.9" xmlns:xlink="http://www.w3.org/1999/xlink" xmlns="http://www.w3.org/2000/svg"><use height="26.3" width="37.6" xlink:href="#a" transform="translate(-9.4 -1.9)"/><defs><path d="M-5.75-5.1Q-1.5-9.8-.2-9.8 1-9.8 5.5-5 9.95-.3 9.95.6q0 1.15-2.7 1.5l.15 3q0 2.85-.8 3.65Q5.55 9.8 0 9.8t-6.6-1.05q-.75-.75-.75-3.6l.15-2.95Q-9.95 1.95-9.95.6q0-1.1 4.2-5.7" fill="#fb6a00" fill-rule="evenodd" transform="translate(9.95 9.8)" id="c"/><path d="M2.6 4.7V.6h-4.1v4.1h4.1M9.5-.85q0 .4-2.75.65.5 6.1-.3 6.8-.75.8-5.95.75-5.1 0-5.85-.75-.7-.7-.25-6.7-2.8-.25-2.8-.75 0-.6 3.95-4.95 4-4.45 4.8-4.45.75 0 5 4.55Q9.5-1.3 9.5-.85" fill="url(#b)" fill-rule="evenodd" transform="translate(8.4 10.25)" id="e"/><linearGradient gradientTransform="matrix(-.0077 -.0077 .0076 -.0076 .55 -1.45)" gradientUnits="userSpaceOnUse" id="b" spreadMethod="pad" x1="-819.2" x2="819.2"><stop offset="0" stop-color="#ffc7a2"/><stop offset="1" stop-color="#fff"/></linearGradient><use height="19.6" width="19.9" xlink:href="#c" id="d" x="0" y="0"/><g id="a" transform="translate(18.8 13.15)"><use height="12.3" transform="translate(-18.8 .85)" width="37.35" xlink:href="#g"/><use height="15" transform="translate(-18.8 -3.5)" width="37.6" xlink:href="#h"/><use height="23.3" transform="translate(-18.8 -13.15)" width="37.6" xlink:href="#i"/><use height="21.25" transform="translate(-15 -11.9)" width="32.6" xlink:href="#j"/><use height="19.6" transform="translate(-9.4 -11.25)" width="19.9" xlink:href="#d"/><use height="17.6" transform="translate(-8.4 -10.25)" width="17.9" xlink:href="#e"/></g></defs></svg>