<svg xmlns:xlink="http://www.w3.org/1999/xlink" height="18.8" width="25" xmlns="http://www.w3.org/2000/svg"><use height="67.1" transform="matrix(.2791 0 0 .2796 -.001 .02)" width="89.5" xlink:href="#a"/><defs><use height="67.1" width="89.5" xlink:href="#b" id="a"/><g id="b" fill-rule="evenodd"><path d="m57.45 47.15-2.65.65-1.15-2 .35.25q1.6 1.15 3.45 1.1M-6 48.8q-.95-.15-2.5-2.5l2.5 2.5M3.75 74l.85.45h-.85V74m9.45.65h3.95l4.15.15-8.1-.15" fill="#6e89a4" transform="translate(19.35 -12.05)"/><path d="M4.55 46.25h2.7l-1.6.6-.5.8-.55-.9-.3-.5h.25m12.35 0q23.7.05 29.25.2l.15 2.75-.55-2.35-11.1-.4H23.3l-6.4-.2m27.75-12.1q-.35-.65-1.05-1l1 .25.05.75" fill="#98b3ce" transform="translate(19.35 -12.05)"/><path d="m61.5 45 .6-.45q4.2-3.3 4.8-6.35.75-4.6-11.15-16.5l-4.2-4.45q-3.1-2.85-5-2.65-2.1.2-5.75 4-4.05 4.6-5.4 5.2-9.6 5-22.45-2.7L6.6 17.25Q3.95 16.5-.1 19.4l-4.05 3.75-1.9 1.25q-9.6 6.7-9.2 7.45l.1.1-.3.1q4.05 9.6 6.6 13.7l-.1.1.45.45q1.55 2.35 2.5 2.5l.15.15q1.7 0 4.4-1.35 3.05-1.55 4.6-1.75L3 44.6l1.3-.65.25 2.3H4.3l.3.5q.3 4.9-.3 12.35-.7 8.15-.65 12.75-.9.5-.7 1.1.2.6.8 1.05v.45h.85l6.25.4 2.35-.2 8.1.15 2 .05h16.15l5.7-.55h1.2q1.15-.2 1.7-2.7.4-2.3 0-6.35-.75-5.15-.75-6.5l.2-16.15h.85q2.1.9 5.3 3.2l1.15 2 2.65-.65q2.1-.1 4.45-1.85l-.4-.3m-9.2-31.95q3.85 2.3 7.65 8.05 5 7.7 6.55 9.25 8.05 9-1.75 17.05-7.65 6.15-13.4 1.75-1.55 5.15-.8 13.8l.8 14q-6.35 2.5-16.5 2.15l-16.9-.8-17.1-.55q-.4-11.9.6-29.4-.8.8-3.85 2.3-2.5 1.15-3.25 2.7-5-.95-13.65-20.15-.6-1.55 8.65-8.65L.1 16.5q4-3.25 6.15-3.65 1.5-.35 2.85.4l.6.55 2.1 1.95q3.25 3.05 5.95 4.6 5 2.7 10.95 2.1 3.65-.4 11.9-6.9 6.7-5.4 11.7-2.5" fill="#3f5a75" fill-opacity=".922" transform="translate(19.35 -12.05)"/><path d="M-4.15 23.15-.1 19.4q4.05-2.9 6.7-2.15l6.35 3.85q12.85 7.7 22.45 2.7 1.35-.6 5.4-5.2 3.65-3.8 5.75-4 1.9-.2 5 2.65l4.2 4.45q11.9 11.9 11.15 16.5-.6 3.05-4.8 6.35l-.6.45q-3.2-2.65-13.45-8.9l-1.7-1.75v7.7q.85.05 2 .55h-.85l-.2 16.15q0 1.35.75 6.5.4 4.05 0 6.35-.55 2.5-1.7 2.7h-1.2l.6-.2q1.75-.95 1.55-5.4l.2-4.4q0-3.25-1.15-3.25 0 5.55-4.05 7.65-2.85 1.55-8.8 1.55-9.4-.2-16.9 0-10.55.3-12.95 1.6-.05-4.6.65-12.75.6-7.45.3-12.35l.55.9q-.55 1.45-.1 4.5-.35 2.4.6 5.65 7.85.75 20.55.35l20.55-.95-.25-4.4h.05l-.25-3.6-.15-2.75q-5.55-.15-29.25-.2l-9.15-.2-.5.2h-2.7l-.25-2.3-1.3.65q-.55-5.05-.25-7.95L.85 38.6q-.95 1.9-4.6 4-4.15 2.35-5.1 3.15-2.55-4.1-6.6-13.7l.3-.1.85.5q4 .55 12.65-5.2 9.05-6.35 7.1-10-1.55.35-9.6 5.9m55.85-.7L56.9 29l4.25 3.8q2.45 2.15 3.8 3.85.8-3.85-5.55-10.35-7.3-6.7-9-9.05l-2.5-1.15q-1.95.4-2.3 1 2.85 1.5 6.1 5.35m-7 14.4h.1q.35-1.7-.15-2.7l-.05-.75-1-.25-1.5-.5-.5.05-14.65-1.05-18.05.8-2.95.75H5.1q-.35.8-.35 1.75-.35 2.25-.05 5.95 20.15.35 40.1 0l-.1-4.05" fill="#3f5a75" fill-opacity=".702" transform="translate(19.35 -12.05)"/><path d="M-8.85 45.75q.95-.8 5.1-3.15 3.65-2.1 4.6-4l1.9-1.95q-.3 2.9.25 7.95l.15 1.25q-1.55.2-4.6 1.75-2.7 1.35-4.4 1.35L-6 48.8l-2.5-2.5-.45-.45.1-.1m12.5 26.1q2.4-1.3 12.95-1.6 7.5-.2 16.9 0 5.95 0 8.8-1.55 4.05-2.1 4.05-7.65 1.15 0 1.15 3.25l-.2 4.4q.2 4.45-1.55 5.4l-.6.2-5.7.55H23.3l-2-.05-4.15-.15H13.2l-2.35.2-6.25-.4-.85-.45q-.6-.45-.8-1.05-.2-.6.7-1.1m44.7-29.25q-1.15-.5-2-.55v-7.7l1.7 1.75Q58.3 42.35 61.5 45l.4.3q-2.35 1.75-4.45 1.85-1.85.05-3.45-1.1l-.35-.25q-3.2-2.3-5.3-3.2" fill="#3f5a75" fill-opacity=".8" transform="translate(19.35 -12.05)"/><path d="M-4.15 23.15q8.05-5.55 9.6-5.9 1.95 3.65-7.1 10-8.65 5.75-12.65 5.2l-.85-.5-.1-.1q-.4-.75 9.2-7.45l1.9-1.25M46.5 52.8l.25 4.4-20.55.95q-12.7.4-20.55-.35-.95-3.25-.6-5.65l.2 1.2Q18.9 53 46.5 52.8m5.2-30.35q-3.25-3.85-6.1-5.35.35-.6 2.3-1l2.5 1.15q1.7 2.35 9 9.05 6.35 6.5 5.55 10.35-1.35-1.7-3.8-3.85L56.9 29l-5.2-6.55M4.75 34.95l.15 1.5q22 .6 39.8.4l.1 4.05q-19.95.35-40.1 0-.3-3.7.05-5.95" fill="#3f5a75" fill-opacity=".2" transform="translate(19.35 -12.05)"/></g></defs></svg>