<?xml version="1.0" encoding="UTF-8" standalone="no"?>
<svg
   height="58.45"
   width="59"
   version="1.1"
   id="svg964"
   sodipodi:docname="mazo.svg"
   inkscape:version="1.1.1 (3bf5ae0d25, 2021-09-20, custom)"
   xmlns:inkscape="http://www.inkscape.org/namespaces/inkscape"
   xmlns:sodipodi="http://sodipodi.sourceforge.net/DTD/sodipodi-0.dtd"
   xmlns:xlink="http://www.w3.org/1999/xlink"
   xmlns="http://www.w3.org/2000/svg"
   xmlns:svg="http://www.w3.org/2000/svg">
  <sodipodi:namedview
     id="namedview966"
     pagecolor="#505050"
     bordercolor="#eeeeee"
     borderopacity="1"
     inkscape:pageshadow="0"
     inkscape:pageopacity="0"
     inkscape:pagecheckerboard="0"
     showgrid="false"
     inkscape:current-layer="svg964" />
  <g
     transform="translate(1,0.95)"
     id="g953">
    <use
       height="58.450001"
       transform="translate(-1,-0.95)"
       width="59"
       xlink:href="#a"
       id="use949"
       x="0"
       y="0" />
  </g>
  <defs
     id="defs962">
    <path
       d="m51.05 3.95-1.1 4.4q4-.25 6 3.45 2.15 3.95-2.1 7.6-3.6 3.15-8.75 3.25h-.2l-1.55-.05q-4.85 6.25-11.05 7.6v2.2q3.45.25 6.1 1.1 4.05 1.25 4.05 3.05 0 1.8-4.05 3.05-4 1.25-9.7 1.25-5.7 0-9.75-1.25-4-1.25-4-3.05 0-1.8 4-3.05 2.85-.9 6.55-1.15V30.3q-6.85-1.35-12.1-8.5l-1.65.05h-.2q-5.15-.1-8.75-3.25Q-1.45 14.95.7 11q2.15-3.95 6.6-3.4l-.85-3.45h.05V4.1q1.75-1.7 6.55-2.7Q19.9 0 28.7 0t15.35 1.3q4.8.9 6.4 2.05l.55.5.05.1m-.75.75.65-.65-.4.35-.25.3m2.85 10.6q-.35-3.25-1.9-3.6-1.2-.3-2.05-.75-1.85 5.6-4.05 9.15 8.3-1.65 8-4.8M5.4 10.9q-1.55.35-1.9 3.6-.35 3.2 8.3 4.85Q9.55 15.5 7.95 9.9q-1 .6-2.55 1"
       fill="#4594c0"
       fill-rule="evenodd"
       id="c" />
    <use
       height="40.85"
       width="56.65"
       xlink:href="#c"
       id="b" />
    <g
       id="a">
      <path
         d="M50.85 23.5 57 27.3l-5.9 4.15 4.55 5.6L48.7 39l2.3 6.8-7.25-.6-.1 7.3-6.55-3.1-2.65 6.75-5.1-5.15-4.75 5.5-3.1-6.55-6.35 3.45-.6-7.2-7.2 1.15L9.2 40.3l-7.1-1.35 4.1-5.9L0 29.2l5.95-4.1-4.55-5.65 7-1.95-2.3-6.8 7.2.6.1-7.25 6.65 3L22.6.35l5.2 5.1 4.75-5.4L35.6 6.5l6.35-3.4.65 7.15 7.15-1.05-1.85 6.95 7.1 1.4-4.15 5.95m-31.5 6.45q0 1.3.5 1.65l.1-.05h-.1q-.4-.2-.5-1.6m17.2 1.2h.15-.15L36 31q-1.75-.8-3.45-.3l-1 .3 1-.25q1.7-.55 3.4.25l.6.15m-11.4-3.8.1.15.25-.15h-.35m.2 2.85.05-.05h-.15l-.1.05h.2m-.05.85.85.05-.85-.05-2.65-.25-.45.15.4-.1 2.7.2"
         fill="#fff"
         fill-rule="evenodd"
         transform="translate(1 .95)"
         id="path957" />
      <path
         d="m51.85 24.45 6.15 3.8-5.9 4.15 4.55 5.6-6.95 1.95 2.3 6.8-7.25-.6-.1 7.3-6.55-3.1-2.65 6.75-5.1-5.15-4.75 5.5-3.1-6.55-6.35 3.45-.6-7.2-7.2 1.15 1.85-7.05-7.1-1.35L7.2 34 1 30.15l5.95-4.1L2.4 20.4l7-1.95-2.3-6.8 7.2.6.1-7.25 6.65 3 2.55-6.7 5.2 5.1L33.55 1l3.05 6.45 6.35-3.4.65 7.15 7.15-1.05-1.85 6.95 7.1 1.4-4.15 5.95Z"
         fill="none"
         stroke="#4594c0"
         stroke-linecap="round"
         stroke-linejoin="round"
         stroke-width="2"
         id="path959" />
    </g>
  </defs>
  <g
     id="g4552"
     transform="translate(-1.1597495,13.03651)">
    <path
       style="fill:#4594c0;stroke-width:0.923992"
       d="m 13.395851,23.932817 c -4.06746,-4.632582 -3.894053,-6.093288 0.72336,-6.093288 2.032782,0 3.695967,-0.331097 3.695967,-0.73581 0,-0.404679 -1.444647,-3.003421 -3.210323,-5.774948 -1.765676,-2.771528 -3.220963,-5.3502927 -3.233971,-5.7305971 -0.01299,-0.3802804 2.053832,0.8010623 4.592971,2.6252531 4.725058,3.394616 5.00688,3.345192 5.757686,-1.009803 0.203278,-1.179225 0.911912,-1.7450736 1.958116,-1.5636151 0.906812,0.1572711 2.470326,-0.7718219 3.498536,-2.0789815 2.339013,-2.973569 3.875226,-2.9877129 5.79788,-0.05337 0.940171,1.4348773 2.380588,2.3099793 3.802236,2.3099793 1.781668,-4.8e-6 2.288679,0.4775883 2.288679,2.1559763 0,3.525817 0.955278,3.522391 5.781984,-0.02069 L 49.438579,4.5938382 47.992551,7.289738 c -0.795311,1.482747 -2.294589,3.943289 -3.331722,5.467875 -2.779872,4.086411 -2.438313,5.081955 1.743563,5.081955 2.002791,0 3.872012,0.373062 4.153829,0.829071 0.473546,0.76621 -4.907084,8.300323 -5.947282,8.327562 -0.254098,0.0067 -1.301053,-1.323224 -2.326568,-2.955282 l -1.864577,-2.96738 -9.422353,-0.262953 c -9.948181,-0.27763 -10.914778,0.06535 -13.674625,4.852497 -0.864505,1.499547 -1.234222,1.33665 -3.926965,-1.730213 z M 34.029154,15.394628 C 39.066988,7.983613 36.007849,7.818546 33.061042,7.278241 31.36827,4.4335054 28.739176,4.4424695 27.078373,7.249171 c -3.156726,0.94237 -5.356832,-0.03556 -2.155817,6.919775 2.271254,4.935101 6.332679,5.306296 9.106598,1.22566 z m -7.613148,9.604851 c -2.052638,-0.938906 -3.660884,-3.463983 -2.206252,-3.463983 1.146823,0 5.241093,3.457679 4.693325,3.963588 -0.254098,0.234704 -1.373283,0.0096 -2.487073,-0.499605 z m 6.9784,-1.646741 c 2.372295,-1.976317 3.824599,-2.327858 3.824599,-0.925758 0,1.05143 -3.050381,2.817737 -4.790214,2.773741 -0.695342,-0.01781 -0.28201,-0.808603 0.965615,-1.847983 z"
       id="path4554"
       sodipodi:nodetypes="ssssssssssssscsssscscsssssccsscsscsscs" />
  </g>
</svg>
