<?xml version="1.0" encoding="UTF-8" standalone="no"?>
<!-- Created with Inkscape (http://www.inkscape.org/) -->

<svg
   version="1.1"
   id="svg4670"
   width="3.990114"
   height="3.7967701"
   viewBox="0 0 3.990114 3.7967701"
   sodipodi:docname="unknown.svg"
   inkscape:version="1.1.1 (3bf5ae0d25, 2021-09-20, custom)"
   xmlns:inkscape="http://www.inkscape.org/namespaces/inkscape"
   xmlns:sodipodi="http://sodipodi.sourceforge.net/DTD/sodipodi-0.dtd"
   xmlns="http://www.w3.org/2000/svg"
   xmlns:svg="http://www.w3.org/2000/svg">
  <defs
     id="defs4674" />
  <sodipodi:namedview
     id="namedview4672"
     pagecolor="#505050"
     bordercolor="#eeeeee"
     borderopacity="1"
     inkscape:pageshadow="0"
     inkscape:pageopacity="0"
     inkscape:pagecheckerboard="0"
     showgrid="false"
     inkscape:current-layer="g12963" />
  <g
     inkscape:groupmode="layer"
     inkscape:label="Image"
     id="g4676"
     transform="translate(-22.185387,-1.8422361)">
    <g
       id="g12963"
       transform="translate(-6.4098133,2.3787931)">
      <path
         style="fill:#f7f7f8;stroke-width:0.192"
         d="m 29.519945,2.9310209 c -0.879526,-0.4319553 -1.16137,-1.3155503 -0.716918,-2.2475753 0.453959,-0.9519624 1.112042,-1.3167826 2.161839,-1.1984553 1.192083,0.1343651 1.620448,0.5658388 1.620448,1.6322105 0,0.7145814 -0.106215,0.9596574 -0.6528,1.5062424 -0.743279,0.7432787 -1.364227,0.8224427 -2.412569,0.3075777 z m 2.210096,-0.5100503 c 0.2592,-0.2592001 0.471273,-0.6090907 0.471273,-0.7775348 0,-0.3809739 -0.555768,-1.4863581 -0.842791,-1.6762526 -0.445633,-0.2948321 -1.295585,-0.1380192 -1.757937,0.3243326 -0.634071,0.6340708 -0.602629,1.3469098 0.08996,2.0394966 0.692587,0.6925865 1.405426,0.7240285 2.039497,0.089958 z"
         id="path12979-3"
         sodipodi:nodetypes="sssssscsssscc" />
    </g>
  </g>
</svg>
