<?xml version="1.0" encoding="UTF-8" standalone="no"?>
<svg xmlns:xlink="http://www.w3.org/1999/xlink" height="34.5px" width="34.5px" xmlns="http://www.w3.org/2000/svg">
  <g transform="matrix(1.0, 0.0, 0.0, 1.0, 0.0, 0.0)">
    <use height="50.0" transform="matrix(0.6906, 0.0, 0.0, 0.6906, -0.0157, -0.0157)" width="50.0" xlink:href="#sprite0"/>
    <use height="50.0" transform="matrix(0.6204, 0.0, 0.0, 0.6204, 1.7398, 1.7398)" width="50.0" xlink:href="#sprite0"/>
    <use height="25.75" transform="matrix(1.0, 0.0, 0.0, 1.0, 4.4, 4.4)" width="25.75" xlink:href="#shape1"/>
    <use height="50.0" transform="matrix(0.2521, 0.0, 0.0, 0.2521, 17.5474, 2.4474)" width="50.0" xlink:href="#sprite0"/>
    <use height="50.0" transform="matrix(0.1563, 0.0, 0.0, 0.1563, 19.6426, 4.8926)" width="50.0" xlink:href="#sprite0"/>
  </g>
  <defs>
    <g id="sprite0" transform="matrix(1.0, 0.0, 0.0, 1.0, 25.0, 25.0)">
      <use height="16.4" transform="matrix(3.0395, 0.0, 0.0, 3.0488, -24.9981, -24.9841)" width="16.45" xlink:href="#shape0"/>
    </g>
    <g id="shape0" transform="matrix(1.0, 0.0, 0.0, 1.0, -237.9, -19.8)">
      <path d="M251.95 33.8 Q249.5 36.2 246.1 36.2 242.7 36.2 240.3 33.8 237.9 31.4 237.9 28.0 237.9 24.6 240.3 22.15 242.7 19.75 246.1 19.8 249.5 19.75 251.95 22.15 254.35 24.6 254.35 28.0 254.35 31.4 251.95 33.8" fill="#ffffff" fill-rule="evenodd" stroke="none"/>
    </g>
    <g id="shape1" transform="matrix(1.0, 0.0, 0.0, 1.0, -4.4, -4.4)">
      <path d="M26.35 26.35 Q22.55 30.15 17.25 30.15 11.85 30.15 8.1 26.4 4.35 22.6 4.4 17.25 4.35 11.9 8.15 8.15 11.9 4.4 17.2 4.4 22.55 4.4 26.35 8.15 30.1 11.95 30.15 17.3 30.1 22.6 26.35 26.35" fill="url(#gradient0)" fill-rule="evenodd" stroke="none"/>
      <path d="M10.1 14.3 L10.45 14.25 24.6 14.25 Q25.8 14.25 26.7 15.15 27.55 16.0 27.6 17.25 27.55 18.45 26.7 19.35 25.8 20.2 24.6 20.25 L10.45 20.25 10.1 20.2 Q9.1 20.1 8.35 19.35 7.5 18.45 7.5 17.25 7.5 16.0 8.35 15.15 9.1 14.4 10.1 14.3" fill="#ffffff" fill-rule="evenodd" stroke="none"/>
    </g>
    <linearGradient gradientTransform="matrix(-0.0098, 0.0096, -0.6002, -0.608, 88.95, 89.9)" gradientUnits="userSpaceOnUse" id="gradient0" spreadMethod="pad" x1="-819.2" x2="819.2">
      <stop offset="0.0" stop-color="#fe9e9e"/>
      <stop offset="0.4666666666666667" stop-color="#fc0303"/>
      <stop offset="1.0" stop-color="#b40101"/>
    </linearGradient>
  </defs>
</svg>
