<svg height="26.3" width="37.6" xmlns:xlink="http://www.w3.org/1999/xlink" xmlns="http://www.w3.org/2000/svg"><use height="26.3" width="37.6" xlink:href="#a"/><defs><path d="M-18.7-6.15h37.35q0 5.1-3.6 8.7-3.6 3.6-8.75 3.6H-6.4q-5.1 0-8.7-3.6-3.6-3.6-3.6-8.7" fill="#527ca3" fill-rule="evenodd" transform="translate(18.7 6.15)" id="c"/><path d="M18.8-7.5v4.7q0 4.3-3 7.3-3.05 3-7.35 3H-8.5q-4.25 0-7.3-3-3-3-3-7.3v-4.7h37.6" fill="#488c00" fill-rule="evenodd" transform="translate(18.8 7.5)" id="d"/><path d="M18.8-1.3v2.65q0 4.3-3 7.3-3.05 3-7.35 3H-8.5q-4.25 0-7.3-3-3-3-3-7.3V-1.3q0-4.3 3-7.35 3-3 7.3-3H8.45q4.3 0 7.35 3 3 3.05 3 7.35" fill="#28f000" fill-rule="evenodd" transform="translate(18.8 11.65)" id="e"/><path d="M-8.15-4.7Q-5.25-7.6 0-7.6q4 0 6.85 1.85 3.1 2 3.1 4.9 0 2.95-3.1 4.95Q4 5.95 0 5.95q-2.05 0-3.95-.6L-7.7 7.4l-1.2-.15-.3-.7.15-.45 1.35-2.7Q-9.9 1.5-9.9-.85q0-2.1 1.75-3.85" fill="#34de2f" fill-rule="evenodd" transform="translate(9.9 7.6)" id="f"/><path d="M.45-7.2q3.7 0 6.35 1.7 2.6 1.7 2.6 4.05 0 2.4-2.6 4.1-2.65 1.7-6.35 1.7l-4.1-.65-4.1 2.25L-6 2.55q-2.45-1.7-2.45-4 0-2.35 2.6-4.05Q-3.2-7.2.45-7.2" fill="url(#b)" fill-rule="evenodd" transform="translate(8.45 7.2)" id="l"/><use height="12.3" width="37.35" xlink:href="#c" id="g"/><use height="15" width="37.6" xlink:href="#d" id="h"/><use height="23.3" width="37.6" xlink:href="#e" id="i"/><use height="15.15" width="19.85" xlink:href="#f" id="k"/><linearGradient gradientTransform="matrix(0 .0079 -.0086 0 1.4 2.25)" gradientUnits="userSpaceOnUse" id="m" spreadMethod="pad" x1="-819.2" x2="819.2"><stop offset="0" stop-color="#14ba01"/><stop offset="1" stop-color="#18ee00"/></linearGradient><linearGradient gradientTransform="matrix(0 .007 -.0072 0 .55 -6)" gradientUnits="userSpaceOnUse" id="n" spreadMethod="pad" x1="-819.2" x2="819.2"><stop offset="0" stop-color="#d5ffd9"/><stop offset="1" stop-color="#26e300"/></linearGradient><linearGradient gradientTransform="matrix(-.0054 -.0094 .007 -.004 .5 -.6)" gradientUnits="userSpaceOnUse" id="b" spreadMethod="pad" x1="-819.2" x2="819.2"><stop offset="0" stop-color="#aaffc4"/><stop offset="1" stop-color="#fff"/></linearGradient><g id="a" transform="translate(18.8 13.15)"><use height="12.3" transform="translate(-18.8 .85)" width="37.35" xlink:href="#g"/><use height="15" transform="translate(-18.8 -3.5)" width="37.6" xlink:href="#h"/><use height="23.3" transform="translate(-18.8 -13.15)" width="37.6" xlink:href="#i"/><use height="21.25" transform="translate(-15 -11.9)" width="32.6" xlink:href="#j"/><use height="15.15" transform="translate(-9.45 -8.2)" width="19.85" xlink:href="#k"/><use height="13.15" transform="translate(-8.45 -7.2)" width="17.85" xlink:href="#l"/></g><g id="j" fill-rule="evenodd"><path d="M-9.8-4.8h21.95q5.45 0 5.45 5.15 0 2.7-2.3 5.3-2.35 2.7-4.95 2.7l-15.85 1q-5.15 0-8.8-6-1.55-3.2.25-5.8 1.6-2.35 4.25-2.35" fill="url(#m)" transform="translate(15 11.9)"/><path d="M14.95-5.35q0 2.15-1.5 3.65Q11.9-.15 9.75-.15H-8.7q-2.15 0-3.7-1.55-1.5-1.5-1.5-3.65V-6.7q0-2.15 1.5-3.65 1.55-1.55 3.7-1.55H9.75q2.15 0 3.7 1.55 1.5 1.5 1.5 3.65v1.35" fill="url(#n)" transform="translate(15 11.9)"/></g></defs></svg>