<svg xmlns="http://www.w3.org/2000/svg" xmlns:xlink="http://www.w3.org/1999/xlink" width="82.2" height="99.2"><use xlink:href="#a" width="35.95" height="28.45" transform="translate(12.7 62.05)"/><defs><g id="a" fill-rule="evenodd"><path fill="#020202" d="M34.1 4.7q-2.45 2.9-6.75 6.05-5.8 4.25-9.25 3.95-2.9-.2-7.4-2.9-4.9-2.95-9.4-7.6l1.35-1.3q4.2 4.3 8.85 7.15 4.2 2.55 6.75 2.75 2.65.25 7.75-3.45 4.2-3.05 6.65-5.9L34.1 4.7"/><path fill="#020202" d="m19.6 13.75.15 6.8-1.9.05-.15-6.8 1.9-.05"/><path d="M18.65 20.5q1.65 0 2.8 1.15 1.15 1.2 1.15 2.8 0 1.65-1.15 2.85-1.15 1.15-2.8 1.15t-2.8-1.15q-1.2-1.2-1.2-2.85 0-1.6 1.2-2.8 1.15-1.15 2.8-1.15"/><path fill="#a2a3a2" d="M21.7 24.45q0 3.1-3.05 3.1t-3.05-3.1q0-3.05 3.05-3.05t3.05 3.05"/><path fill="#fff" d="M18.55 24.2v.1l-1.35-2.5.85-.3.5 2.7m-.15-.1v.55l-2.05 1.85q-.75-.9-.75-2.05 0-1.1.75-2l2.05 1.65"/><path fill="#686867" d="m18.6 24.75.05-.05.4 2.8h-.9l.45-2.75m.1.15.2-.5 2.6-1q.4 1.05 0 2.15-.45 1.1-1.45 1.65l-1.35-2.3"/><path fill="#fff" d="m18.7 24.9.05-.1 1.95 1.9-.65.5-1.35-2.3"/><path fill="#020202" d="M20.1 24.45q0 1.5-1.45 1.5-1.5 0-1.5-1.5 0-1.45 1.5-1.45 1.45 0 1.45 1.45"/><path d="m20.45 15.15-.25 3.5h-2.6l-.5-3.5-2.75-1 .75-3 3.6 1.5 4.1-1.85.95 2.9-3.3 1.45"/><path fill="#8e8e8d" d="m22.6 13.15-3.05 1.35-.25 3.2-.75-.05-.6-3.2-2.5-.9.3-1.1 3 1.25 3.5-1.6.35 1.05"/><path fill="#050505" d="m4.3 2.6-.45.55.3.4.1.4-.1.25Q2.9 5.7 1.65 5.5l-.35-.15Q-.45 3.6.15 2 .8.4 2.3.25q.5 0 1.15.6.9.9.9 1.5l-.05.25"/><path fill="#8e8e8d" d="M1.9 4.5Q.55 3.2 1.15 2.1q.45-.8 1.2-.9 1 0 1 1.05l-.55.65.5.8q-1.15 1.6-1.4.8"/><path fill="#050505" d="M33.65 0q1.4 0 2.15 1.7.55 1.65-1.15 3.35l-.35.2-1.4-.5-1.1-.85-.1-.25.1-.35.3-.45-.4-.5-.1-.3.95-1.45 1.1-.6"/><path fill="#8e8e8d" d="M34.05 4.25q-.15.45-1.4-.8l.5-.85-.55-.6q0-1.15 1-1.05.7 0 1.2.85.6 1.1-.75 2.45"/></g></defs></svg>