<svg xmlns:xlink="http://www.w3.org/1999/xlink" height="99.2" width="82.2" xmlns="http://www.w3.org/2000/svg"><g transform="translate(31 46.75)"><use height="16.9" transform="translate(.5 17.2)" width="15.9" xlink:href="#a"/><use height="16.9" transform="matrix(-1 0 0 1 -1.35 17.15)" width="15.9" xlink:href="#a"/><use height="10.7" transform="translate(-6.3 31.45)" width="11.25" xlink:href="#b"/></g><defs><g id="c" fill-rule="evenodd"><path d="M7.95-6.45q.1 1.1-.75 2.05v.05q-.9 1-2.15 1H4.9q-.1.85-.75 1.65v-.05Q3.3-.75 2.1-.7q0 .95-.75 1.75v.05q-.8.9-1.9 1 .15.95-.4 1.9H-1q-.85 1.25-2.05 1.35.05.85-.45 1.75h-.05q-.95 1.35-2.3 1.35l-1.05-.3v.05q-.85-.55-1-1.65-.15-1 .45-1.9V4.6q.85-1.25 2.1-1.35-.1-.9.45-1.7.8-1.3 2.05-1.4-.1-1.15.75-2.1h.05q.85-1 2-1.05 0-.95.75-1.75h.05Q1.6-5.8 2.8-5.8h.05l.1.05q.1-.9.75-1.65h.05q.9-1.05 2.1-1.05.85 0 1.35.5l.05.05q.6.4.7 1.45" fill="#2b2b2b" transform="translate(7.95 8.45)"/><path d="M-7.05 4.9q1.2-1.8 2.65-.9 1.55.9.35 2.8-1.2 1.8-2.65.9-1.55-1-.35-2.8" fill="#c6c6c6" transform="translate(7.95 8.45)"/><path d="M-4.5 1.8Q-3.3-.05-1.8.9q1.45.9.3 2.8-1.15 1.8-2.65.9-1.45-1-.35-2.8" fill="#c6c6c6" transform="translate(7.95 8.45)"/><path d="M-1.75-1.6Q-.25-3.25 1-2.1 2.35-.95.9.7q-1.45 1.65-2.75.5-1.35-1.15.1-2.8" fill="#c6c6c6" transform="translate(7.95 8.45)"/><path d="M1.05-4.4q1.5-1.65 2.75-.5 1.35 1.15-.1 2.8Q2.25-.45.95-1.6q-1.35-1.15.1-2.8" fill="#c6c6c6" transform="translate(7.95 8.45)"/><path d="M4.1-7.05q1.4-1.65 2.75-.5t-.1 2.8Q5.25-3.1 4-4.25q-1.35-1.15.1-2.8" fill="#c6c6c6" transform="translate(7.95 8.45)"/><path d="M-4.45 6.05q.4-.8-.1-1.3l-1.5.05-.8-.25q1.5-1.6 2.8-.3 1 1-.05 2.45l-.35-.65m2.55-3.1q.45-.85-.1-1.3l-1.45.05-.85-.25q1.55-1.55 2.8-.3 1.05 1.05 0 2.45l-.4-.65M.7-.25q.45-.75-.1-1.3l-1.45.1-.85-.3q1.55-1.55 2.8-.3 1 1 0 2.45L.7-.25m2.8-2.8q.45-.75-.1-1.3l-1.45.1-.85-.25v-.05q1.5-1.5 2.8-.3 1.05 1.05 0 2.5l-.4-.7M6.55-5.7Q7-6.5 6.5-7L5-6.9l-.85-.3h.05q1.5-1.55 2.75-.3Q8-6.45 6.95-5l-.4-.7" fill="#f9f4f4" transform="translate(7.95 8.45)"/></g><g id="b" fill-rule="evenodd"><path d="M.6 35.45q2.2.4 2.25-1.2l1.8 1.65q1.15 1.95-1.85 3.5-.15-2.1-2.25-1.45-.25 1.9 1.4 2-.75 1.25-1.8 1.9-2.1 1.2-3.55-2.05 1.9 0 1.45-1.85-1.45-.3-1.9.45l-.15.75q-1.25-.6-1.9-1.55-1.3-1.85 1.8-3.55l.4.85q.6.8 1.85.5.4-1.9-1.4-2l1.55-1.65q1.95-1.1 3.75 1.65l-.95.3q-.85.55-.5 1.75" fill="#333" transform="translate(6.3 -31.45)"/><path d="M.35 35.65q2.45.75 2.6-.85 2.3 1.75.1 3.9-.6-1.65-2.7-1-.3 2.15.9 2.2-1.8 2.15-3.95.1 1.55-.55 1.1-2.35-2.5-.6-2.55.85-2.25-1.75-.1-3.9l.55.75q.75.65 2 .35.4-2.3-.9-2.35l1.2-.8q1.45-.55 2.8.7-.4.15-.75.5-.7.7-.3 1.9" fill="#c6c6c6" transform="translate(6.3 -31.45)"/><path d="M-1.05 34.95q0-.8-.15-1.15l-.35-.7 1.85-.15q-.7.2-1.35 2m-2.65 1.6q-.75.45-.35 1l-.7-1.2q-.05-.55.3-1l.05.1q.7.75 1.7.75l-1 .35m5.95-.6.85-.4.45 1.05-.3 1-2.3-1.25.05-.1 1.25-.3M-1.3 39.2l.2-.6.25.65 1.15.7-1.2.3-1.35-.2q.65-.15.95-.85m-.55-2.85q.75-.2.85-.45l.55-1.1q-.15.95.05 1.25l1.5.9H-.5l.2 1.45-.6-.65-.4-.65-.55-.2h-.9l.85-.45.05-.1" fill="#f9f4f4" transform="translate(6.3 -31.45)"/></g><use height="16.9" width="15.9" xlink:href="#c" id="a"/></defs></svg>