<svg xmlns="http://www.w3.org/2000/svg" xmlns:xlink="http://www.w3.org/1999/xlink" width="82.2" height="99.2"><use xlink:href="#a" width="7.8" height="15.7" transform="translate(35.1 69.25)"/><defs><g id="a" fill-rule="evenodd"><path fill="#765425" d="M1.95 3.3h.1q-.2-1.65 1.25-3 .3-.35.7-.3 2.7.6 2.1 3.2h.25q2.7 1.45.45 3.55l-.9.3L5.6 7l-.25-.05-.45-.2v.45q.35.05.6.25l.05.1-.7.35-.1.55-.3 1.5-.1 1.2-.25 3.45-.05.7-.05-.7q-.35-2.6-.2-5.25l-.15-.9V8q-.6-.15-1.1-.65-.1-.15.1-.2l.65-.1h.35v-.4q-.4.3-1.05.3h-.55Q0 6.85 0 4.65 0 3.3 1.35 3.2l.25.05h.25l.1.05.2.1Q3 3.7 3.5 4.65l-1.95-.6q-.4-.15-.6.3-.4 1.25.85 1.55l1.6.1-2.2-.05-.65-.8.65.8L3.4 6l-1.6-.1Q.55 5.6.95 4.35q.2-.45.6-.3l1.95.6Q3 3.7 2.15 3.4l-.2-.1M.5 4.85v.05q-.1.2.05.25L.9 5.1v-.35l-.3-.1H.55l-.05.2-.1-.3q-.05-.7.5-1.1-.35.2-.4.6l.6-.4q.75.5 1.45.3V3.9l-.4-.5.4.5v.05q-.7.2-1.45-.3l-.6.4q.05-.4.4-.6-.55.4-.5 1.1l.1.3m3.4-3.3q-1 1.35-.2 2.75l.4.55.55-.9.05-.05q.4-1.2-.4-2.25l-.4-.1m1.9.2Q5.55 1 4.45.5q-1.2.35-1.6 1.05-.4.7 0 1.7-.2-.8.35-1.5.25-.3.6-.3Q5.35 1.4 5.3 3.4h.05q.65-.95.45-1.65M4.25 5.1l-.1-.1q-.35.1-.45.5-.05.25.15.3 1.1.35.8-.25l-.4-.45m.65.2v.05q1.7 1.2 1.6-.6l-.5-.4-.5.3-.55.55-.05.1M1.35 3.2l-.25.1-.2.15.2-.15.25-.1m.1 1.1Q.7 5.95 2.85 5.75l.25-.15-.2-.25-.35-.65q-.5-.35-1.1-.4M4.7 7.35q.4-.3-.35-.95-.5.15-.45.75l.2.25.55-.05h.05"/><path fill="#fff" d="M.55 5.15Q.4 5.1.5 4.9v-.05l.05-.2H.6l.3.1v.35l-.35.05m5.25-3.4L5.6 2q-.1.2-.35 0-1.2-1.2-2.4-.45.4-.7 1.6-1.05 1.1.5 1.35 1.25m1.75 2.8-.3.3q-.1.1-.25-.15-.5-1.05-1.65-.6l.2-.35.25-.1.4-.1.15-.05 1.2 1.05m-2.9 1-.6-.25q-.15-.1.1-.2h.1l.4.45m0 1.8-.4-.3q-.15-.1.1-.2h.1l.25.5h-.05"/><path fill="#deb762" d="M2.85 1.55Q4.05.8 5.25 2q.25.2.35 0l.2-.25q.2.7-.45 1.65H5.3q.05-2-1.5-1.95-.35 0-.6.3-.55.7-.35 1.5-.4-1 0-1.7m4.7 3L6.35 3.5l-.15.05-.4.1-.25.1-.2.35Q6.5 3.65 7 4.7q.15.25.25.15l.3-.3v.6l-.2.35q-.35-.1-.2-.4l.1-.15h.1l.2.15-.2-.15h-.1l-.1.15q-.15.3.2.4l.2-.35v-.6m0 .6L6.3 6.35l-.95.05q-.4-.1-.3-.45 1.85.85 1.5-1.1-.15-.95-.95-.4l-1.1.7q.25-1.25 1.3-1.5-1.05.25-1.3 1.5l1.1-.7q.8-.55.95.4.35 1.95-1.5 1.1-.1.35.3.45l.95-.05 1.25-1.2m-3.3-.05h-.1q-.25.1-.1.2l.6.25q.3.6-.8.25-.2-.05-.15-.3.1-.4.45-.5l.1.1m.45 2.25-.25-.5h-.1q-.25.1-.1.2l.4.3-.55.05-.2-.25q-.05-.6.45-.75.75.65.35.95"/><path fill="#744e22" d="M5.9 7.05q.45.6.45 1.45v4.85q0 .95-.75 1.6-.65.75-1.6.75h-.1q-1 0-1.7-.75-.65-.65-.65-1.6V8.5q0-.9.5-1.55h.4l-.1.1q-.7.7-.6 1.6v4.5q-.1.9.6 1.55.65.65 1.55.65H4q.9 0 1.5-.65.65-.65.7-1.55v-4.5q-.05-.9-.7-1.6l-.15-.1.25.05.3.05"/><path fill="#ddb45d" d="m5.35 6.95.15.1q.65.7.7 1.6v4.5q-.05.9-.7 1.55-.6.65-1.5.65h-.1q-.9 0-1.55-.65-.7-.65-.6-1.55v-4.5q-.1-.9.6-1.6l.1-.1h.15q.65 0 1.05-.3v.4H3.3l-.65.1q-.2.05-.1.2.5.5 1.1.65v.45h-1.2v.05l.4 5.6.25.2.9.3.05.7.05-.7q1.65.2 1.5-1.85-.1-2.3.1-4.45l-.95.15.1-.55.7-.35-.05-.1q-.25-.2-.6-.25v-.45l.45.2"/><path fill="#eed8ac" d="m4.75 8.45.95-.15q-.2 2.15-.1 4.45.15 2.05-1.5 1.85l.25-3.45.1-1.2.3-1.5M4 14.6l-.9-.3-.25-.2-.4-5.6v-.05h1.2l.15.9Q3.65 12 4 14.6"/></g></defs></svg>