<svg xmlns="http://www.w3.org/2000/svg" xmlns:xlink="http://www.w3.org/1999/xlink" width="82.2" height="99.2"><use xlink:href="#a" width="19.1" height="10.8" transform="translate(42.75 70.05)"/><defs><g id="a" fill-rule="evenodd"><path fill="#fbb941" d="M2.45 2.7q.2-.5.7-.85.95-.7 2.1-.95l.85.15L5.75 1q-.3 0-.4.25.8 1.55 2.35 2.65l.5-.05q.6-1.5-.55-2.25 1.9 1 1.7 3.4l-.6.45-.45-.7q-.55-.55-1.35-.55t-1.35.55q-.55.55-.55 1.35t.55 1.35l.1.1q-2.5-.4-3.15-2.6l.2-.1Q5.1 3.5 2.45 2.7M6.1 1.05 6.15.9q.65.2 1.05.5l-1.1-.35m.65 4q-.4.25-.6.9l-.25.6q-.75-.35-.05-1.4.3-.5.9-.55l-.4.35.4.1m1-.4.55.55v.05l-.75-.3.25-.15-.05-.15m-.05.75-.05.05q-.3.9 1.05 1.05l.5-.1q3.55-2.6 7.15-.35l.35.35q.4 1.2-1.1 1.95L13.75 9q-.8.15.15.2 2.65.2 4.15-1.9l.05-.75-.05-.15.3.45q.25.3.05.65-1.05 1.85-3.2 2.35-1.8.4-2.6-.75-.1-.15.1-.25l1.9-.65q1.5-.5.45-1.6-.6-.65-1.5-.7-2.05-.2-3.75 1l-.75.5-.8.15v.1l-.6-.3q-1.6-1-.2-2.05l.25.1m4.95-1q-.65.15-1.2.45l-1.6.55q1.3-.8 2.8-1M6.1 7.05l.75.45.05.05q-.65.35-.85-.45l.05-.05m-2.25 1q2.85 1.1.45 1.2-1.3.05-.95-1.1l.35-.1h.15"/><path fill="#fff" d="M2.45 2.7q2.65.8.3 2.15l-.2.1q-.35.05-.6-.4-.65-1.25.5-1.85m5.2-1.1q1.15.75.55 2.25l-.5.05Q6.15 2.8 5.35 1.25q.1-.25.4-.25l.35.05 1.1.35.45.2m-.9 3 .55-.15q.3-.05.45.2l.05.15-.25.15-.8.1-.4-.1.4-.35m11.3 1.8.05.15-.05.75q-1.5 2.1-4.15 1.9-.95-.05-.15-.2l1.85-.65q1.5-.75 1.1-1.95l-.35-.35q-3.6-2.25-7.15.35l-.5.1q-1.35-.15-1.05-1.05l.05-.05.2-.05 1.95.05 1.6-.55q.55-.3 1.2-.45l.9-.15h.65q2.6.1 3.85 2.15"/><path fill="#c47500" d="M6.1 1.05 5.25.9q-1.15.25-2.1.95-.5.35-.7.85-1.15.6-.5 1.85.25.45.6.4.65 2.2 3.15 2.6.5.45 1.25.45h.15l.05.05.1-.15h.05l.85.4h.05l.1.45L7.2 9.9l-.3.05V9.9l-1.5.25Q3.4 10.1 2 8.7.6 7.35.6 5.35T2 1.95Q3.4.55 5.4.55t3.4 1.4Q9.9 3.1 10.15 4.6l-.45.2-.35.2q.2-2.4-1.7-3.4l-.45-.2q-.4-.3-1.05-.5l-.05.15m-2.25 7H3.7l-.35.1Q3 9.3 4.3 9.25q2.4-.1-.45-1.2"/><path fill="#371200" d="m5.7 7.55-.1-.1q-.55-.55-.55-1.35t.55-1.35q.55-.55 1.35-.55t1.35.55l.45.7.6-.45.35-.2.45-.2Q9.9 3.1 8.8 1.95 7.4.55 5.4.55T2 1.95Q.6 3.35.6 5.35T2 8.7q1.4 1.4 3.4 1.45l1.5-.25v.05l.3-.05 1.1-1.15-.1-.45h-.05l-.85-.4h-.05l-.1.15L7.1 8h-.15Q6.2 8 5.7 7.55M6.75 4.6q-.6.05-.9.55-.7 1.05.05 1.4l.25-.6q.2-.65.6-.9l.8-.1.75.3V5.2l-.55-.55q-.15-.25-.45-.2l-.55.15m11.3 1.8Q16.8 4.35 14.2 4.25h-.65l-.9.15q-1.5.2-2.8 1L7.9 5.35l-.2.05-.25-.1q-1.4 1.05.2 2.05l.6.3v-.1l.8-.15.75-.5q1.7-1.2 3.75-1 .9.05 1.5.7 1.05 1.1-.45 1.6l-1.9.65q-.2.1-.1.25.8 1.15 2.6.75 2.15-.5 3.2-2.35.2-.35-.05-.65l-.3-.45M6.1 7.05l-.05.05q.2.8.85.45l-.05-.05-.75-.45m-4.55-5.5Q3.15 0 5.4 0t3.8 1.55q1.25 1.25 1.55 2.85l2.65-.35q2.1 0 3.65.75l.2.1q2.95 1.3 1.25 3.8l-.4.5-.25.2-.95.45h-.05l-.2.1-.7.25-1.45.25-.8-.2q-.9-.25-1.35-1.05-.6-1 .95-1.25l.65-.35q.9-1.1-1-1l-1.3.2q-.55.1-.95.45L9.3 8.5q-.55.5-.8 1.15l-1.05.55-.75.45-1.3.15q-2.25 0-3.85-1.6Q0 7.65 0 5.4t1.55-3.85"/></g></defs></svg>