<svg xmlns:xlink="http://www.w3.org/1999/xlink" height="99.2" width="82.2" xmlns="http://www.w3.org/2000/svg"><use height="35.2" transform="translate(42.15 47.9)" width="25.4" xlink:href="#a"/><defs><g id="a" fill-rule="evenodd"><path d="m20.55 23.6.5-.65 1.4-2 9.5-14.55q1.85-2.9 3.75-5.25 1.15 1.8.75 3.6-.05 7.2-5.45 13.4l-7.2 7.55-.3.25V26l-.1.2-.05.05-.45.35-1.1.85-.45-.05-.05-.05q-1.2-.8-2.1-1.9l.35-.4 1.15-1.6-.15.15m15.1-20.7-.15-.2q-4.1 7.05-8.85 13.7l-4.9 6.9-.2.2-.4.55-.5.65-1.1.75.7.7.5-.8.85-.85.35-.35q7.9-8.8 13.95-19.1-.2-1-.25-2.15M27 21.35l1.85-1.95q5.6-5.2 6.55-12.45l-3.15 5.5Q30.5 15.4 28.45 18l-7.25 8.95 5.8-5.6" fill="#666" transform="translate(-11.15 -1.15)"/><path d="M35.65 2.9q.05 1.15.25 2.15-6.05 10.3-13.95 19.1l-.35.35-.85.85-.5.8-.7-.7 1.1-.75.5-.65.4-.55.2-.2 4.9-6.9Q31.4 9.75 35.5 2.7l.15.2m-19.5 21.95q-.15-.8 1.15-.95h.25q1.35 1.25-.4 1.9-.4.1-.65-.2l-.35-.75M20.8 32l-.15.05-.1.05-.05.05-.15.05-.25.05q-.65.05-1.05-.7-.35-.6 0-1.3.65-1.45 2.15-1.35 1.75 1.85-.4 3.1m3.1-1.4.05-.45q0-1-.35-1.9-.05-.15.1-.15h.15q1 1.6.8 3.05l-.35 1.2-1.1 1.5q-1.5 1.5-3.55 1.85l-.35-.05q2.5-.35 3.9-2.8l.65-1.8.05-.45m-8.8-.65q.5.95-.55.4-.3-.1 0-.3l.55-.1m-.45 2.55q.05.7-.5.35l-.1-.05.05-.2.55-.25v.15m-2.05 1.6q.2-.35.55-.25.65 1.35-.5.55-.2-.1-.05-.3" fill="#fff" transform="translate(-11.15 -1.15)"/><path d="m23.5 26 .25.35q.6.85.85 1.85 1.3 2.55-.55 5.2-2.95 4.2-7.5 2.4l-.9-.5-.3-.15q-1.2-.6-1.25-1.2l-.05.05-.05.95q-.25.55-.8.75l-1.1.05q-.6-.25-.8-.85-.25-.5 0-1.05.2-.6.75-.85.5-.15 1 0l.1-.15 1-1.15-.65-1.15q-.9-2.05-.05-4 .8-2 2.8-2.85 2.05-.9 4.05-.05l.15.05.1-.05v-.05l.15-.15-1.15 1.6-.35.4q.9 1.1 2.1 1.9l.05.05.45.05 1.1-.85.45-.35.05-.05.1-.2m-4.7-2.5q-1.3-.15-2.5.5-2.95 1.6-2.65 5.05.15 1.1.8 2.05 1.55 1.95 3.45 2.05l1.3.1q1.05-.2 2-.9l1.3-1.25.4-.75.15-.5.05-.15.2-.45-.4-.65h.05q.9.65 1 1.55l-.05.45-.25.8v-.1l-.15.3-.25.5q-.6 1.05-1.6 1.7l-.05.05q-3.2 1.9-6.7.5.9 1.15 2.5 1.5 2.45.55 4.6-.7 1.65-.95 2.35-2.65l.4-1.7-.05-.5-.1-.8-.1-.35v-.05l-.1-.25-.15-.45-.05-.05-.3-.55-.05-.05-.15-.2-.35-.25h-.15l.05-.3q-.85.2-1.4.95L21 27.3h-.05v-.05h-.05L19.4 26l-.5-.5.65-1.45.15-.05v-.1l-.15-.1-.15-.15-.35-.1h-.2l-.05-.05m3.5 4.7-.1-.05h.2l-.1.05m-9.1 5.55-.25-.3q-1.45-.2-1.1 1.2.15.45.55.45 1.05-.1 1.15-.6l-.35-.75m.95-.25h.1l.05-.05.55-.4q.45-.5-.15-1.05-.65.15-.95.85-.6 1.1.4.65m1.45-.5-.8.5q4.2 2.95 7.65-.95l1.2-2.05-.25-.85-.25.8q-.8 2-2.8 2.85-2.05.85-4 .05L15.6 33" fill="#371200" transform="translate(-11.15 -1.15)"/><path d="m27 21.35-5.8 5.6L28.45 18q2.05-2.6 3.8-5.55l3.15-5.5q-.95 7.25-6.55 12.45L27 21.35" fill="#ccc" transform="translate(-11.15 -1.15)"/><path d="M17.4 23.9h-.1q-1.3.15-1.15.95-1.55 1.65.15 4l.05.3q-.45 1.95 1.25 2.9l1.35.3 1.15-.1.25-.05.15-.05.05-.05.1-.05.15-.05 1.7-.9-1.3 1.25q-.95.7-2 .9l-1.3-.1q-1.9-.1-3.45-2.05-.65-.95-.8-2.05-.3-3.45 2.65-5.05 1.2-.65 2.5-.5l-1.4.4m2.15.15-.65 1.45.5.5 1.5 1.25h.05v.05H21l.85.65q.55-.75 1.4-.95l-.05.3h.15l-.2.2-.25.25-.2.25-.3.15h-.2l.1.05h-.15l-.55-.05h-.1l-.15-.05-.5-.15-.05-.05-1.25-.8-.05-.05q-.55-.6-.75-1.35l-.05-.15v-.3q-.05-.8.85-1.2m5.05 5.45.1.8-.15-.75.05-.05m.15 1.3-.4 1.7q-.7 1.7-2.35 2.65-2.15 1.25-4.6.7-1.6-.35-2.5-1.5 3.5 1.4 6.7-.5-.9.7-2 1.05l-2.1.55q-.95.2.2.4 4.5.7 6.55-3.35l.05-.15.35-1.2.05-.2.05-.15m-9.65-.85-.55.1q-.3.2 0 .3 1.05.55.55-.4m-1.9 3.8-.15-.15q-1.05-.1-.8.95.1.35.45.35.7-.1.85-.4-.1.5-1.15.6-.4 0-.55-.45-.35-1.4 1.1-1.2l.25.3m.95-.25q-1 .45-.4-.65.3-.7.95-.85.6.55.15 1.05l-.1-.6-.1.05v-.15l-.55.25-.05.2.1.05-.35.55q-.1.2.15.15l.2-.05" fill="#c47500" transform="translate(-11.15 -1.15)"/><path d="m17.4 23.9 1.4-.4.05.05h.2l.35.1.15.15.15.1v.1l-.15.05q-.9.4-.85 1.2v.3l.05.15q.2.75.75 1.35l.05.05 1.25.8.05.05.5.15.15.05h.1l.55.05h.15l.1-.05.3-.15.2-.25.25-.25.2-.2.35.25.15.2.05.05.3.55.05.05.15.45.1.25v.05l.1.35-.05.05.15.75.05.5-.05.15-.05.2q.2-1.45-.8-3.05h-.15q-.15 0-.1.15.35.9.35 1.9-.1-.9-1-1.55h-.05l.4.65-.2.45-.05.15-.15.5-.4.75-1.7.9q2.15-1.25.4-3.1-1.5-.1-2.15 1.35-.35.7 0 1.3.4.75 1.05.7l-1.15.1-1.35-.3q-1.7-.95-1.25-2.9l-.05-.3q-1.7-2.35-.15-4l.35.75q.25.3.65.2 1.75-.65.4-1.9h-.15m4.2 9.95.05-.05q1-.65 1.6-1.7l.25-.5.15-.3v.1l.25-.8-.05.45-.65 1.8q-1.4 2.45-3.9 2.8l.35.05q2.05-.35 3.55-1.85l1.1-1.5-.05.15q-2.05 4.05-6.55 3.35-1.15-.2-.2-.4l2.1-.55q1.1-.35 2-1.05m-8.05.65q-.15.3-.85.4-.35 0-.45-.35-.25-1.05.8-.95l.15.15.35.75m1.3-1.45-.55.4-.05.05h-.1l-.2.05q-.25.05-.15-.15l.35-.55q.55.35.5-.35l.1-.05.1.6M12.6 34.1q-.15.2.05.3 1.15.8.5-.55-.35-.1-.55.25" fill="#fbb941" transform="translate(-11.15 -1.15)"/></g></defs></svg>