<svg xmlns="http://www.w3.org/2000/svg" width="82.2" height="99.2"><path fill="#47b3d7" fill-rule="evenodd" d="m34.736 75.804-.044.044h.044l-.089.09-.088.044v.133l-.132.31-.133.4-.132.533q0 .533.265.977l.353.443L35 79l.089.045q.926.71 2.206.71 1.368 0 2.207-.71.926-.71.926-1.643l-.22-.977-.133-.177-2.824-4.573v.045l-.044-.09-2.56 4.174h.089m2.736-6.304 3.707 6.57.22.267.265 1.376q0 1.42-1.236 2.397-1.103 1.021-2.824 1.021-1.721 0-2.912-1.02l-.795-.933q-.397-.666-.397-1.465l.177-.755.22-.577.177-.488v-.133l.088-.045v-.177l3.31-6.038"/><path fill="#80dfff" fill-rule="evenodd" d="M34.736 75.848v-.044h-.089l2.56-4.173.044.089 2.78 4.484.044.044.089.133.22.977q0 .932-.926 1.642-.839.71-2.207.71-1.28 0-2.206-.71H35l-.22-.222-.353-.443q-.265-.444-.265-.977l.132-.533.133-.4.132-.31v-.133l.088-.045.089-.089"/><path fill="none" stroke="#16355f" stroke-linecap="round" stroke-linejoin="round" d="m81.85-37.3 4.2 7.4.25.3.3 1.55q0 1.6-1.4 2.7-1.25 1.15-3.2 1.15-1.95 0-3.3-1.15l-.9-1.05q-.45-.75-.45-1.65l.2-.85.25-.65.2-.55v-.15l.1-.05v-.2" transform="matrix(.8826 0 0 .88792 -34.769 102.62)"/><path fill="none" stroke="#2a5e8c" stroke-linecap="round" stroke-linejoin="round" d="m78.1-30.5 3.75-6.8z" transform="matrix(.8826 0 0 .88792 -34.769 102.62)"/><path fill="#dbf6ff" fill-rule="evenodd" d="m34.692 75.404 1.544-2.619 1.633 2.841.088.134.132.621q0 .577-.573 1.021-.486.444-1.28.444-.75 0-1.28-.444l-.397-.4-.132-.62.044-.312.088-.31.133-.178v-.178"/></svg>