<?xml version="1.0" encoding="UTF-8" standalone="no"?>
<svg
   height="99.2"
   width="82.2"
   version="1.1"
   id="svg19"
   sodipodi:docname="950.svg"
   inkscape:version="1.1.2 (b8e25be833, 2022-02-05)"
   xmlns:inkscape="http://www.inkscape.org/namespaces/inkscape"
   xmlns:sodipodi="http://sodipodi.sourceforge.net/DTD/sodipodi-0.dtd"
   xmlns="http://www.w3.org/2000/svg"
   xmlns:svg="http://www.w3.org/2000/svg">
  <sodipodi:namedview
     id="namedview21"
     pagecolor="#ffffff"
     bordercolor="#666666"
     borderopacity="1.0"
     inkscape:pageshadow="2"
     inkscape:pageopacity="0.0"
     inkscape:pagecheckerboard="0"
     showgrid="false"
     inkscape:zoom="7.8830648"
     inkscape:cx="41.037339"
     inkscape:cy="49.599998"
     inkscape:window-width="1920"
     inkscape:window-height="986"
     inkscape:window-x="-11"
     inkscape:window-y="-11"
     inkscape:window-maximized="1"
     inkscape:current-layer="svg19" />
  <defs
     id="defs17">
    <g
       id="a">
      <path
         d="M3.55.75q1.4 0 2.2.8.8.85.6 2.2Q6.2 5.8 4.65 7.4L6.2 9.25 4.85 10.4l-1.3-1.8-1.15 1.6-1.65-.95L2.8 7.3Q1.45 5.65 1.15 4q-.2-1.25.65-2.3.75-.95 1.75-.95Z"
         fill="none"
         stroke="#940101"
         stroke-linecap="round"
         stroke-linejoin="round"
         stroke-width="1.5"
         id="path4" />
      <path
         d="M3.75 6.05Q2.65 4.5 2.6 3.55q-.1-1.2 1.3-1.3 1 0 .95 1.45-.05 1.1-1.1 2.35Z"
         fill="none"
         stroke="#8a0101"
         stroke-linecap="round"
         stroke-linejoin="round"
         stroke-width="1.5"
         id="path6" />
      <path
         d="M7.95 26.2Q8 24.75 7 24.75q-1.4.1-1.3 1.3.05.95 1.15 2.5 1.05-1.25 1.1-2.35m-1.3-2.9q1.35-.05 2.15.8.8.85.65 2.15-.2 2.1-1.7 3.65l1.55 1.85-1.35 1.15-1.3-1.75L5.5 32.7l-1.65-.95 2.05-1.9q-1.4-1.7-1.65-3.3-.25-1.3.6-2.3.8-.95 1.8-.95"
         fill="#f00202"
         fill-rule="evenodd"
         transform="translate(-3.1 -22.5)"
         id="path8" />
      <path
         d="m6.2 27.5 3.1 4.25-.85.75q-.7-.85-1.15-1.95L6.2 27.5m2.85-3.15q.5.55.4 1.05-.45.6-1.3-.35-.85-.95-.1-1.55l1 .85"
         fill="#ffb8b8"
         fill-rule="evenodd"
         transform="translate(-3.1 -22.5)"
         id="path10" />
      <path
         d="M9 23.75q.55.2.2.8-.35.65-.7.35-.35-.3-.2-.8.15-.5.7-.35m-.9 6.55 1.2 1.45-.65.35-.95-1.8-.6-1.7 1 1.7"
         fill="#fff"
         fill-rule="evenodd"
         transform="translate(-3.1 -22.5)"
         id="path12" />
      <path
         d="m6.65 31.1-.2.3-1.05-1.2.5-.4.75 1.3"
         fill="#940000"
         fill-rule="evenodd"
         transform="translate(-3.1 -22.5)"
         id="path14" />
    </g>
    <g
       id="a-1">
      <path
         d="M3.55.75q1.4 0 2.2.8.8.85.6 2.2Q6.2 5.8 4.65 7.4L6.2 9.25 4.85 10.4l-1.3-1.8-1.15 1.6-1.65-.95L2.8 7.3Q1.45 5.65 1.15 4q-.2-1.25.65-2.3.75-.95 1.75-.95Z"
         fill="none"
         stroke="#940101"
         stroke-linecap="round"
         stroke-linejoin="round"
         stroke-width="1.5"
         id="path25" />
      <path
         d="M3.75 6.05Q2.65 4.5 2.6 3.55q-.1-1.2 1.3-1.3 1 0 .95 1.45-.05 1.1-1.1 2.35Z"
         fill="none"
         stroke="#8a0101"
         stroke-linecap="round"
         stroke-linejoin="round"
         stroke-width="1.5"
         id="path27" />
      <path
         d="M7.95 26.2Q8 24.75 7 24.75q-1.4.1-1.3 1.3.05.95 1.15 2.5 1.05-1.25 1.1-2.35m-1.3-2.9q1.35-.05 2.15.8.8.85.65 2.15-.2 2.1-1.7 3.65l1.55 1.85-1.35 1.15-1.3-1.75L5.5 32.7l-1.65-.95 2.05-1.9q-1.4-1.7-1.65-3.3-.25-1.3.6-2.3.8-.95 1.8-.95"
         fill="#f00202"
         fill-rule="evenodd"
         transform="translate(-3.1 -22.5)"
         id="path29" />
      <path
         d="m6.2 27.5 3.1 4.25-.85.75q-.7-.85-1.15-1.95L6.2 27.5m2.85-3.15q.5.55.4 1.05-.45.6-1.3-.35-.85-.95-.1-1.55l1 .85"
         fill="#ffb8b8"
         fill-rule="evenodd"
         transform="translate(-3.1 -22.5)"
         id="path31" />
      <path
         d="M9 23.75q.55.2.2.8-.35.65-.7.35-.35-.3-.2-.8.15-.5.7-.35m-.9 6.55 1.2 1.45-.65.35-.95-1.8-.6-1.7 1 1.7"
         fill="#fff"
         fill-rule="evenodd"
         transform="translate(-3.1 -22.5)"
         id="path33" />
      <path
         d="m6.65 31.1-.2.3-1.05-1.2.5-.4.75 1.3"
         fill="#940000"
         fill-rule="evenodd"
         transform="translate(-3.1 -22.5)"
         id="path35" />
    </g>
  </defs>
  <g
     transform="matrix(0.88259504,0,0,0.88791832,-34.768727,102.61908)"
     id="g62">
    <path
       d="m 78.75,-30.2 -0.05,0.05 h 0.05 l -0.1,0.1 -0.1,0.05 v 0.15 l -0.15,0.35 -0.15,0.45 -0.15,0.6 q 0,0.6 0.3,1.1 l 0.4,0.5 0.25,0.25 0.1,0.05 q 1.05,0.8 2.5,0.8 1.55,0 2.5,-0.8 1.05,-0.8 1.05,-1.85 l -0.25,-1.1 -0.15,-0.2 -3.2,-5.15 v 0.05 l -0.05,-0.1 -2.9,4.7 h 0.1 m 3.1,-7.1 4.2,7.4 0.25,0.3 0.3,1.55 q 0,1.6 -1.4,2.7 -1.25,1.15 -3.2,1.15 -1.95,0 -3.3,-1.15 l -0.9,-1.05 q -0.45,-0.75 -0.45,-1.65 l 0.2,-0.85 0.25,-0.65 0.2,-0.55 v -0.15 l 0.1,-0.05 v -0.2 l 3.75,-6.8"
       fill="#47b3d7"
       fill-rule="evenodd"
       stroke="none"
       id="path52" />
    <path
       d="m 78.75,-30.15 v -0.05 h -0.1 l 2.9,-4.7 0.05,0.1 3.15,5.05 0.05,0.05 0.1,0.15 0.25,1.1 q 0,1.05 -1.05,1.85 -0.95,0.8 -2.5,0.8 -1.45,0 -2.5,-0.8 h -0.05 l -0.25,-0.25 -0.4,-0.5 q -0.3,-0.5 -0.3,-1.1 l 0.15,-0.6 0.15,-0.45 0.15,-0.35 V -30 l 0.1,-0.05 0.1,-0.1"
       fill="#80dfff"
       fill-rule="evenodd"
       stroke="none"
       id="path54" />
    <path
       d="m 81.85,-37.3 4.2,7.4 0.25,0.3 0.3,1.55 q 0,1.6 -1.4,2.7 -1.25,1.15 -3.2,1.15 -1.95,0 -3.3,-1.15 l -0.9,-1.05 q -0.45,-0.75 -0.45,-1.65 l 0.2,-0.85 0.25,-0.65 0.2,-0.55 v -0.15 l 0.1,-0.05 v -0.2"
       fill="none"
       stroke="#16355f"
       stroke-linecap="round"
       stroke-linejoin="round"
       stroke-width="1"
       id="path56" />
    <path
       d="m 78.1,-30.5 3.75,-6.8 z"
       fill="none"
       stroke="#2a5e8c"
       stroke-linecap="round"
       stroke-linejoin="round"
       stroke-width="1"
       id="path58" />
    <path
       d="m 78.7,-30.65 1.75,-2.95 1.85,3.2 0.1,0.15 0.15,0.7 q 0,0.65 -0.65,1.15 -0.55,0.5 -1.45,0.5 -0.85,0 -1.45,-0.5 l -0.45,-0.45 -0.15,-0.7 0.05,-0.35 0.1,-0.35 0.15,-0.2 v -0.1 -0.1"
       fill="#dbf6ff"
       fill-rule="evenodd"
       stroke="none"
       id="path60" />
  </g>
</svg>
