<svg xmlns="http://www.w3.org/2000/svg" xmlns:xlink="http://www.w3.org/1999/xlink" width="82.2" height="99.2"><use xlink:href="#a" width="34" height="18.65" transform="translate(13.85 67.25)"/><defs><g id="a" fill-rule="evenodd"><path d="M19.2 18q-1.25.65-2.3.65-1 0-2.4-1l-1.3-1.2.25-1q-1-1.75-1-3.05 0-1.05.95-2.25 1.35-1.7 3.75-1.7t3.6 2q.8 1.3.8 2.4-.1 1.65-1.15 2.75l.05 1.4-1.25 1"/><path fill="#c2934e" d="M20.65 12.85q0 1.5-1.05 2.55-1.05 1.05-2.55 1.05-1.45 0-2.5-1.05t-1.05-2.55q0-1.45 1.05-2.5t2.5-1.05q1.5 0 2.55 1.05 1.05 1.05 1.05 2.5"/><path fill="#c2934e" d="m19.55 14.75.35 1.75q-1.65 1.3-2.9 1.3-.8 0-1.9-.7l-.95-.7.3-1.85 5.1.2"/><path d="M19.65 12.75q0 .95-.95.95t-.95-.95q0-.9.95-.9t.95.9m-3.35 0q0 .95-.9.95-.95 0-.95-.95 0-.9.95-.9.9 0 .9.9m.25 2.45.55-1.4.45 1.4h-1"/><path fill="#ffc567" d="M13.5 12.85q.1-1.75 1.2-2.65.9-.75 2.2-.85l1.1.05-1.25.35q-1.4.5-1.9 1.15l-1.35 1.95m3.55 0 .1.55-.55 1.3-.55-.25 1-1.6m-2.5 2.3 2 .7q-.45 1.05-.95 1.05l-1.15-.8.1-.95"/><path d="m30.6 1.55.9-.15.45-.95.7-.2.35.15-3.95 5.45L25.7 8.5l-3.25 2.05-1.3.45-1-1.3q.5-.8 1.2-1.3l1.75-.1q.05-.9.95-1.45l1.45-.1 1.2-1.6 1.2-.25.8-1.5 1.35-.25.55-1.6"/><path d="M33.15 2.75Q31.1 5.85 28 8l-6.45 4.25L21 11l-.9-.9v-.15q3.8-1.8 5.95-3.35 3.75-2.65 5.35-4.75l1.25-1.8L33 0l.55.65q.3 1-.4 2.1"/><path d="m33.2.25.7.95q.3.8-.5 1.35l-.15 1.05q-.2.55-1.55 1.15l-.35 1.35q-.75.9-1.85.7L29 8.2q-.95.95-2.1.5l-.7 1.45q-.75.5-1.95.3l-.65 1.2q-.65.5-2.2.5l.1-1.25 6.1-4.1L33.2.25"/><path fill="#c2934e" d="M23.65 10.15q.1 1.35-1.25 1.45-1.3 0-1.4-1.3-.1-1.3 1.25-1.4 1.3-.1 1.4 1.25M26.4 8.6q.1 1.3-1.25 1.4-1.4 0-1.4-1.25Q23.65 7.4 25 7.3q1.3 0 1.4 1.3"/><path fill="#c2934e" d="M26.25 6.9q-.1-1.3 1.25-1.4 1.4-.1 1.4 1.25.1 1.3-1.25 1.4-1.3.1-1.4-1.25"/><path fill="#c2934e" d="M29.8 3.55q1.3-.1 1.4 1.25.1 1.3-1.25 1.4-1.35.1-1.45-1.25 0-1.3 1.3-1.4"/><path fill="#c2934e" d="M32.95 2.8q.1 1.15-1.1 1.25-1.15 0-1.25-1.1-.1-1.25 1.1-1.25 1.15-.1 1.25 1.1"/><path fill="#c2934e" d="M33.45 1.15q.55.75-.2 1.2-.7.45-1.2-.35t.2-1.2q.75-.45 1.2.35"/><path d="m3.95 3.15 1.3.3q.4.25.8 1.5l1.25.25q.8.4 1.15 1.55l1.45.15q.9.55.95 1.4l1.75.15q.7.45 1.2 1.3l-1 1.25-1.35-.45-3.2-2.05L4.9 5.85.95.45l.35-.2.7.2q.25.2.45.95l.9.15q.35.35.6 1.6"/><path d="M.8 2.75Q.1 1.7.45.65.65.1 1 0l.35.05 1.2 1.8q1.5 2 5.35 4.75 2.15 1.55 5.95 3.35v.2l-.9.9-.55 1.2L5.95 8Q2.85 5.85.8 2.75"/><path d="m.75.25 5.6 6.6 6.1 4.1.1 1.2-2.25-.45-.6-1.25q-1.2.25-1.95-.3l-.7-1.45q-1.15.45-2.1-.5l-.5-1.4q-1.1.2-1.85-.7l-.35-1.35Q.9 4.15.7 3.6L.55 2.55Q-.2 2 .1 1.2L.75.25"/><path fill="#c2934e" d="M10.3 10.2q.1-1.35 1.4-1.25 1.35.1 1.25 1.4-.1 1.35-1.4 1.25-1.35-.1-1.25-1.4M7.55 8.6q.1-1.35 1.4-1.25 1.35.1 1.25 1.4 0 1.35-1.4 1.25-1.35-.1-1.25-1.4"/><path fill="#c2934e" d="M7.7 6.9q-.1 1.35-1.4 1.25-1.35-.1-1.25-1.4.1-1.35 1.4-1.25 1.35.1 1.25 1.4"/><path fill="#c2934e" d="M2.75 4.8q.1-1.35 1.45-1.25 1.35.1 1.25 1.4-.1 1.35-1.4 1.25-1.3 0-1.3-1.4"/><path fill="#c2934e" d="M1 2.8q.1-1.2 1.25-1.1 1.2.1 1.1 1.25 0 1.2-1.25 1.1Q1 3.95 1 2.8"/><path fill="#c2934e" d="M.5 1.15Q.95.35 1.7.8q.7.35.25 1.2-.5.8-1.2.35-.7-.45-.25-1.2"/><path fill="#ffc567" d="m.85.9.7.1q.15.3-.35.55-.65.4-.35-.65m.7.8v-.15l1.15.2q.35.35-.4.85l-1.1-.05Q.85 2 1.55 1.7m1.7 1.95q1-.45 1.2.15.25.55-.6 1-.8.35-1.1-.2-.3-.55.5-.95M5.6 5.6q1-.25 1.15.25.15.45-.8.8Q5 7 4.9 6.4q-.1-.6.7-.8m2.75 1.85q.85-.4 1.15.15.3.5-.6.85L7.75 8.3q-.2-.45.6-.85m2.55 1.8q1.05-.5 1.3.1.25.65-.7 1-.9.35-1.1-.2-.25-.55.5-.9m10.15.7q.55-.7 1-.6.45.15 0 .9-.6 1.05-1-.3m3.15-2.2q.45-.5.75-.2.25.3-.15 1.15-.45.9-.75.25-.35-.6.15-1.2m2.95-1.2q-.2.8-.6-.2.15-.5.45-.45.3.05.15.65m1.65-2.2q.15-.4.5-.1.4.25.1.75-.35.6-.6.3-.25-.25 0-.95"/></g></defs></svg>