<svg xmlns:xlink="http://www.w3.org/1999/xlink" height="99.2" width="82.2" xmlns="http://www.w3.org/2000/svg"><use height="26.55" transform="translate(13.25 63)" width="34.5" xlink:href="#a"/><defs><g id="a"><path d="m14.75 16.25 2 1.75q-5.5 11.9-16.8 11.9-6.9 0-11.9-3.85-4.3-3.3-5.8-8.05l2.5-1.5q1.75 4.2 5.3 7 4.3 3.4 9.9 3.4 9.7 0 14.8-10.65" fill="#191900" fill-rule="evenodd" transform="translate(17.75 -16.25)"/><path d="M10.45 23.2q2.95-2.8 4.6-6.25l1.3 1.15q-3.7 5.25-4.95 6.4-4.85 4.6-11.45 4.6-6.3 0-11.1-3.5-3.9-2.9-5.95-7.35l1.7-1q1.05 3.9 5.1 6.95 4.5 3.4 10.25 3.4 5.85 0 10.5-4.4" fill="#fc0" fill-rule="evenodd" transform="translate(17.75 -16.25)"/><path d="M-14.35 19.2q-.15 1.45-1.55 1.75m3.6 1.1q.5.35 0 1.3-.55.9-1.05.55m3.95.6q.65 1.5-.8 2.05m4-.4q.55 1.7-.7 2.1m3.6-1.1q.5.15.3 1.2t-.7.9" fill="none" stroke="#191900" stroke-linecap="round" stroke-linejoin="round" transform="translate(17.75 -16.25)"/><path d="m-15.45 19.05.7.1q.2 1.35-1.15 1.35-.4-2.1-.55-2.3l1 .85m2.45 3.4.5-.2q.3.55-.9 1.5l-.65-2.1 1.05.8m2.65 2.5.7-.3q.35.45 0 1.05-.3.55-.8.55l-1.05-1.9 1.15.6m2.8 1.7.85-.15q.75 1.25-.5 1.5l-1.35-1.65 1 .3m2 .85 1.05.3 1.1-.5q.75.75-.3 1.6l-1.85-1.4" fill="#825e00" fill-rule="evenodd" transform="translate(17.75 -16.25)"/><path d="M-14.95 18.6q-.15-.4-1.65.6l-.4-.9q1.45-1.3 1.65-.8l.4 1.1m-.2 2.95q.9-1.55 1.15-1.2l.7.95q-.25-.25-1.3.95l-.55-.7m2.6 2.9q.75-1.45.95-1.3l.95.75-1.3 1-.6-.45m3.1 2.15q-.25-.15.7-1.3l1.25.55q-.45-.1-.95.4-.45.45-.25.8l-.75-.45" fill="#fff" fill-rule="evenodd" transform="translate(17.75 -16.25)"/><path d="M13.45 19.25q.15 1.6 1.2 1.8M11.4 22.1q-.55.35 0 1.3.5.9 1 .55m-3.95.55q-.7 1.45.75 2.05m-3.85-.3q-.6 1.65.65 2.05m-3.6-1.1q-.5.15-.35 1.2.2 1 .7.85" fill="none" stroke="#191900" stroke-linecap="round" stroke-linejoin="round" transform="translate(17.75 -16.25)"/><path d="m14.55 19.15 1.05-.85-.95 2.3q-.3.15-.65-.35-.4-.5-.1-1l.65-.1M12.1 22.5l1.05-.75-.85 1.75q-.3.5-.9-1.25l.7.25m-2.7 2.45 1.15-.6-1.1 1.9q-.5 0-.8-.55-.3-.6 0-1.05l.75.3m-2.85 1.7 1.05-.3-1.45 1.6q-1.2-.25-.45-1.5l.85.2m-1.9.9-1.9 1.35q-1.15-.85-.25-1.55l1.1.45 1.05-.25" fill="#825e00" fill-rule="evenodd" transform="translate(17.75 -16.25)"/><path d="m14.4 17.95.7-.95q1.3.75 1.2 1.05l-.5.9q.15-.45-1.4-1m-2.15 3.4.7-.7q1.3.45.9 1.05l-.5.65q.15-.35-.35-.7l-.75-.3m-2.55 2.5.7-.65q.35-.4.8.25.5.65.15 1.1l-.75.6q.15-.1-.9-1.3m-2.9 2.1.7-.35q1.2 1.1.7 1.3l-.7.35-.7-1.3M3.85 27l.75-.2.4 1.5-.75.2-.4-1.5" fill="#fff" fill-rule="evenodd" transform="translate(17.75 -16.25)"/><path d="M-.25 32.65H-.5v5.5h.25v-5.5m-3 1.5q-.65.8-.65 1.5 0 1.15.65 1.7v-3.2m5.5-6.4v2.15q1.6.5 3.6 2l-2.5 2.35-1.1-1.05v4l1.5-1.3L6 38.25q-1.15 1.4-3.75 2.45v2h-2.5v-1.4H-.5v1.5l-2.75-.05v-2Q-7.05 39.2-7 35.4q.05-3.3 3.75-4.95l.05-2.6h2.75L-.5 29.6h.25v-1.85h2.5" fill="#191900" fill-rule="evenodd" transform="translate(17.75 -16.25)"/><path d="M-2.3 32.2q-2.45 1.25-2.45 3.5 0 2.1 2.45 3.1v-6.6m2.8 7v-7.55l-.6-.05-1.15.15v7.35l1.15.15.6-.05m0-10.9h1.05v2.2q1.75.55 3.05 1.45l-1.4 1q-.45-.7-1.65-1.1v7L3.85 37l1.05 1.25q-1 1.15-3.35 2v1.8H.5V40.5l-.65.05-1.1-.1v1.65H-2.3v-1.9q-3.95-1.25-3.95-4.5 0-3.15 3.95-4.95v-2.4h1.05v2.05l1.15-.2.6.05V28.3" fill="#fc0" fill-rule="evenodd" transform="translate(17.75 -16.25)"/><path d="m-3.7 38.1 1.75.95-.7 1.05-2.05-1.3 1-.7" fill="#825e00" fill-rule="evenodd" transform="translate(17.75 -16.25)"/><path d="M-1.35 40.75V42h-.95l.1-1 .85-.25" fill="#fff" fill-rule="evenodd" transform="translate(17.75 -16.25)"/><path d="m1.45 34.35-.9 1.2.1-4.2.8-.8v3.8m-2.75 3.6-.9 1.45v-3.3l1-1.15-.1 3m-2.9-6Q-1.75 30 .5 30.3l-1.45 1.25q-1.8.5-2.55 1.25l-1.25 2-1.35 1.1.15-1.3q.45-1.55 1.75-2.65" fill="#825e00" fill-rule="evenodd" transform="translate(17.75 -16.25)"/><path d="m4.5 38.35-3 1.8-.15 1.25-.7.65v-1.7l-1.25.05 2.45-1 1.8-2.1.85 1.05m-3.05-7.8 1.85.75-.75.85-1.1-.5.05 1.5-.85.9-.1-2.5H.3l1.15-1M-1.3 35.9l-.9 1.25-.05-2.95.95-1.05v2.75m-3.5.4q.5 1.4 1.5 2l-.75.9q-1.35-.6-1.85-1.95l1.1-.95m.45-4.05q1.8-1.65 3.9-1.95-4.6 3.75-5.7 4.85l.3-.95q.55-1.1 1.5-1.95" fill="#fff" fill-rule="evenodd" transform="translate(17.75 -16.25)"/></g></defs></svg>