<svg xmlns:xlink="http://www.w3.org/1999/xlink" height="99.2" width="82.2" xmlns="http://www.w3.org/2000/svg"><use height="22.1" transform="translate(15.05 67.05)" width="31.5" xlink:href="#a"/><defs><g id="a" fill-rule="evenodd"><path d="m.55 32.9-.15.8-.25.3q-.45.1-.95-.2-.35-.2 0-.6.35-.4.75-.5l.6.2" fill="#3a1412" transform="translate(15.95 -20.3)"/><path d="m-1.1 26.95.85.6.05.95-.9-1.55m3.45.75-1.3-.8 1.1.3.2.5" fill="#ab8172" transform="translate(15.95 -20.3)"/><path d="M15.55 21.05v.8l-1.35 1.7q-4.8 5-14.35 5t-14.25-5.2l-1.55-2.1v-.95l1.35 1.75q4.55 4.85 14.25 4.85 10.2 0 14.85-4.65l1.05-1.2" fill="#d7a400" transform="translate(15.95 -20.3)"/><path d="M10.85 26.1q-4.35 2.45-11 2.45L-.3 26.9q6.65 0 11-2.05 1.1.3.15 1.25" fill="#be6c18" transform="translate(15.95 -20.3)"/><path d="M14.15 23.25q-4.8 5-14.35 5t-14.25-5.2l-1.15-1.45v-.2l.95 1.15Q-10.1 27.3-.4 27.3q10.2 0 14.85-4.55l1.05-1.15-1.35 1.65" fill="#ffe168" transform="translate(15.95 -20.3)"/><path d="m-2.5 27.3-.4.5q-3.25-.3-5.8-1.65 2.2.85 6.2 1.15" fill="#fcfbae" transform="translate(15.95 -20.3)"/><path d="M1.6 40.4q0 2-1.75 2-1.1 0-1.7-1l-.35-1q-4.45-.35-5.15-1.35-.35-.5.9-1.6Q-5.1 36.2-5.1 35.6q0-6.8 4.95-6.8 5 0 5 6.8 0 .55 1.3 1.65 1.15.95.9 1.4-.85 1.4-5.45 1.75" fill="#d7a400" transform="translate(15.95 -20.3)"/><path d="M2.95 35.5q0-.95-.75-2.65l-.95-2.5q-.1-.35.5-1.2Q4.9 30.6 4.9 35.6q0 .55 1.3 1.65 1.15.95.9 1.4-.6 1.1-4.15 1.6-.15.05-.85-.65l.85-4.1" fill="#be6c18" transform="translate(15.95 -20.3)"/><path d="M1.35 39.7H-1.9q-3.85-.35-4.4-1.2-.3-.4.75-1.35 1.15-1 1.15-1.55 0-6 4.25-6t4.25 6q0 .45 1.1 1.4 1 .8.8 1.2-.65 1.15-4.65 1.5" fill="#ffe168" transform="translate(15.95 -20.3)"/><path d="m-1.75 30.55 1.5-.1q.85.35.1.5-.95.15-1.35 2l-.35 2.5q-.65 3-1.2 3.3-.45.2-2.1-.75 1.5-1.35 1.7-3.1.35-3.55 1.7-4.35" fill="#fcfb88" transform="translate(15.95 -20.3)"/><path d="M-.45 41.8q-.7 0-.8-.55-.1-.55.95-.5.65 1.05-.15 1.05" fill="#fcce00" transform="translate(15.95 -20.3)"/><path d="M1.35 30.75q-1.25.2-2-.4Q.8 29.8.65 29.7l1.75.85q1.75 1.55 1.75 5.1 0 .4 1.6 2 .45.35.15.8-.4.7-2.75 1-.85.1-1.05-3.8-.35-4.2-.75-4.9" fill="#fabf15" transform="translate(15.95 -20.3)"/><path d="M-1.8 31q1.15-.85 1.05-.15 0 .15-.65.5l-1.55 3.1Q-2.6 31.7-1.8 31" fill="#fff" transform="translate(15.95 -20.3)"/><path d="M-.15 30.5q-2.05 0-2.05-2.05t2.05-2.05q2.05 0 2.05 2.05T-.15 30.5" fill="#d7a400" transform="translate(15.95 -20.3)"/><path d="M-.2 29.85q-1.5 0-1.5-1.5 0-1.55 1.5-1.55t1.5 1.55q0 1.5-1.5 1.5" fill="#ffe168" transform="translate(15.95 -20.3)"/><path d="M-.45 28.85q-.9 0-.9-.95t.9-.95q.95 0 .95.95t-.95.95" fill="#fcfb88" transform="translate(15.95 -20.3)"/><path d="M-.4 28.25q-.55 0-.55-.5 0-.55.55-.55.5 0 .5.55 0 .5-.5.5" fill="#fff" transform="translate(15.95 -20.3)"/><path d="m2.7 32.3 1 4q.5 1 1.4 1.75-.05.35-.65.45-.6.1-1.4-2.3l-.35-3.9" fill="#fcfb88" transform="translate(15.95 -20.3)"/><path d="M1.6 40.4q-.1 1.85-1.4 1.95.95-.6.2-1.85l1.2-.1m.35-12.15q.1 2.25-2.15 2.3 1-.75 1.05-1.1.65-.75.35-1.75l-.35-1.05 1.1 1.6" fill="#be6c18" transform="translate(15.95 -20.3)"/></g></defs></svg>