<svg xmlns="http://www.w3.org/2000/svg" xmlns:xlink="http://www.w3.org/1999/xlink" width="82.2" height="99.2"><use xlink:href="#a" width="33.15" height="18.2" transform="translate(14.1 68.1)"/><defs><g id="a" fill-rule="evenodd"><path fill="#351e02" d="M31.05.4q.2-.4 1.25-.4.75.1.85.5v.1q0 1.05-1.1 2.85-1.5 2.45-4 3.6 2.35 1.3 2.35 3.35l-.1.65q-.45 2.5-2.8 2.5-2.65-.05-4.1-2.6-.8-1.45-.8-2.7l.05-.15q-1.75.1-2.4.7 1.6 1.75 1.6 4.2 0 1.3-.45 2.4-1.2 2.95-4.25 2.8-3.35-.3-4.2-2.9l-.2-1.6q0-2.7 1.35-4.5-.7-.7-1.9-.8v.1q0 2.45-1.5 4.15-1.55 1.85-4.2 1.25-2.05-.55-2.15-2.4l-.05-.2q0-1.9 1.55-3.55Q.5 5.6 0 1.1V1L.1.8.65.2 1 .1l.3.2q.65 1.1 2.5 2.75 2.15 1.9 3.85 2.45h.2q7.3.1 9.35 2.3 1.8-2.4 8.65-2.75Q28.75 5 31.05.4m-1.2 4.55q1.2-1.2 1.95-2.8l.6-1.6-1 .05-.5 1.3q-.7 1.3-1.95 2.35-1.3 1.05-2.85 1.55l-2.65.3-2.6.55q-2.8.8-3.55 2.3l-.1-.15q-1.15-1.35-3.6-1.95L9.9 6.4l-2.5-.05q-1.3-.4-2.85-1.7Q2.25 2.75 1.1 1l-.45.4q.4 2.3 2.95 4.1 1.8 1.3 3.75 1.95-1.1.4-1.9 2.45-.95 2.25.9 3.05l.5.15q2.8.6 4-2.1.95-2.15.45-3.45l1.95.4q1.5.45 1.9 1.1-1.1 1-1.5 3.05l-.2 1.15q-.25 2.1 1.05 3.15.6.5 1.55.75l1.15.2h.05q3.25.05 3.75-3.25.55-3.2-1.8-5.35.35-.65 1.95-1.15l2.35-.4v.1l-.15-.05v.4q-.1.6.2 1.5.35 1.9 1.65 2.7.95.8 2.3.85l.75-.15Q29.9 12 29.7 10.2q-.2-1.95-3.05-3.1 1.75-.7 3.2-2.15"/><path fill="#b57a06" d="m28.95 4.25.9.7Q28.4 6.4 26.65 7.1q2.85 1.15 3.05 3.1.2 1.8-1.45 2.35l-.55-.75.45-.3q1.3-1.1-.45-3-1.6-1.9-2.9-.8l-.1.1-1.25-1.7 2.65-.3q1.55-.5 2.85-1.55m-7.8 3.35q-1.6.5-1.95 1.15 2.35 2.15 1.8 5.35-.5 3.3-3.75 3.25v-.8h.05q2.55 0 2.55-3.4 0-3.35-2.55-3.35h-.1v-1l.1.15q.75-1.5 3.55-2.3l.3.95m-7.9.35-1.95-.4q.5 1.3-.45 3.45-1.2 2.7-4 2.1l-.5-.15.5-.9.55.4q1.5.7 2.6-1.65 1-2.25-.45-3l-.35-.1.7-1.3 3.7.45-.35 1.1"/><path fill="#f4c606" d="M28.95 4.25Q30.2 3.2 30.9 1.9l.5-1.3 1-.05-.6 1.6q-.75 1.6-1.95 2.8l-.9-.7m-.7 8.3-.75.15q-1.35-.05-2.3-.85l.95.4v-.5q-.9-.2-1.75-1.85l-.8-2.6h-.1v-.1l-2.35.4-.3-.95 2.6-.55 1.25 1.7q-1.1 1.05.55 2.9 1.35 1.6 2.45 1.1l.55.75m-11 4.8h-.05l-1.15-.2.8-.05v-.4q-.65.1-1.45-.75l-.9-1.45q-.7-2.3.55-4.85l-.25.2q-.85 1.15-1.15 2.25.4-2.05 1.5-3.05-.4-.65-1.9-1.1l.35-1.1q2.45.6 3.6 1.95v1q-2.45.05-2.45 3.35 0 3.35 2.5 3.4v.8m-2.75-.95q-1.3-1.05-1.05-3.15-.05.9.3 1.8l.75 1.35m-8.15-3.45q-1.85-.8-.9-3.05.8-2.05 1.9-2.45Q5.4 6.8 3.6 5.5 1.05 3.7.65 1.4L1.1 1q1.15 1.75 3.45 3.65 1.55 1.3 2.85 1.7l2.5.05-.7 1.3q-1.3-.3-2.25 1.75-.75 1.75-.1 2.6l-.5.9M6.5 8.4v-.05q-.8.7-1.05 2.2-.25 1.6.7 2.1l.5-.7q-.7-.4-.15-3.55"/><path fill="#d63600" d="m24.7 7.8.1-.1q1.3-1.1 2.9.8 1.75 1.9.45 3l-.45.3q-1.1.5-2.45-1.1-1.65-1.85-.55-2.9m1.8 1q.55-.15 1.2.65l.15.2-.6-1.1q-1.4-1.5-2.35-.6-1 .85.35 2.4.85.95 1.7.85l-.65-.5q-.6-.7-.5-1.2.65-.05.7-.7m-8.75 3.45q1.15.15 1.15 1.9v.3l.3-1.45q0-2.7-2.05-2.7T15.1 13q0 1.85 1.3 2.5-.45-.5-.45-1.35l.25-1.2.4.05q.95 0 1.15-.75M17.2 9.8h.1q2.55 0 2.55 3.35 0 3.4-2.55 3.4h-.05q-2.5-.05-2.5-3.4 0-3.3 2.45-3.35M6.85 12.05q-.65-.85.1-2.6Q7.9 7.4 9.2 7.7l.35.1q1.45.75.45 3-1.1 2.35-2.6 1.65l-.55-.4m.85-2.1.45.1q.75 0 .85-.55.65.3.3 1.45l.25-.5q.9-1.8-.35-2.4-1.25-.5-2.05 1.3-.75 1.7.25 2.35-.25-.6.1-1.35l.2-.4"/><path fill="#ff7d00" d="M25.8 9.5q-.1.5.5 1.2l.65.5q-.85.1-1.7-.85-1.35-1.55-.35-2.4.95-.9 2.35.6l.6 1.1-.15-.2q-.65-.8-1.2-.65v-.15q0-.8-.85-.8-.8 0-.8.8 0 .85.8.85h.15m-9.6 3.45-.25 1.2q0 .85.45 1.35-1.3-.65-1.3-2.5 0-2.7 2.05-2.7T19.2 13l-.3 1.45v-.3q0-1.75-1.15-1.9l.05-.45q0-1.2-1.2-1.2t-1.2 1.2q0 .95.8 1.15M9 9.5v-.25q0-.8-.85-.8-.8 0-.8.8 0 .55.35.7l-.2.4q-.35.75-.1 1.35-1-.65-.25-2.35.8-1.8 2.05-1.3 1.25.6.35 2.4l-.25.5Q9.65 9.8 9 9.5"/><path fill="#fff" d="M25.2 11.85q-1.3-.8-1.65-2.7-.3-.9-.2-1.5v-.4l.15.05h.1l.8 2.6q.85 1.65 1.75 1.85v.5l-.95-.4m-9.15 5.3q-.95-.25-1.55-.75l-.75-1.35q-.35-.9-.3-1.8l.2-1.15q.3-1.1 1.15-2.25l.25-.2q-1.25 2.55-.55 4.85l.9 1.45q.8.85 1.45.75v.4l-.8.05M25.8 9.5h-.15q-.8 0-.8-.85 0-.8.8-.8.85 0 .85.8v.15q-.05.65-.7.7m-9.6 3.45q-.8-.2-.8-1.15 0-1.2 1.2-1.2t1.2 1.2l-.05.45q-.2.75-1.15.75l-.4-.05m-8.5-3q-.35-.15-.35-.7 0-.8.8-.8.85 0 .85.8v.25q-.1.55-.85.55l-.45-.1M6.5 8.4q-.55 3.15.15 3.55l-.5.7q-.95-.5-.7-2.1.25-1.5 1.05-2.2v.05"/></g></defs></svg>