<svg xmlns="http://www.w3.org/2000/svg" xmlns:xlink="http://www.w3.org/1999/xlink" width="82.2" height="99.2"><use xlink:href="#a" width="33.95" height="23.55" transform="translate(13.45 67.9)"/><defs><g id="a" fill-rule="evenodd"><path fill="#aa2f11" d="m33.15.4.1-.05.6.05.1.05v.1l-.05.95-.55 1.65v.05q-.9 1.85-2.35 3.4-4.8 4.95-14.1 4.95-9.35 0-14-5.15Q1.35 4.8.55 2.8L0 1.1V.2L.05.1l.1-.05L.7 0l.1.05.05.05v.05l.5 1.4q.7 1.65 2.05 3.1Q7.7 9.1 16.7 9.1q9.5 0 13.85-4.3 1.35-1.35 2.05-2.95L33.05.5l.05-.05.05-.05"/><path fill="#f99952" d="M30.75 6.3q-4.65 4.8-13.85 4.8t-13.75-5Q1.7 4.5.95 2.6l-.5-1.55V.2L.9 1.65q.7 1.75 2.05 3.2Q7.35 9.5 16.7 9.5q9.8 0 14.3-4.45 1.4-1.45 2.1-3.1l.4-1.4v.9l-.5 1.5q-.85 1.8-2.25 3.35"/><path fill="#f9cd52" d="M27.5 8.75q-4.25 2.35-10.6 2.35l-.2-1.6q6.5 0 10.65-1.95 1 .35.15 1.2"/><path fill="#f9ff99" d="M30.7 6q-4.65 4.8-13.85 4.8T3.1 5.8Q1.75 4.3 1 2.55q.7 1.5 1.95 2.8 4.4 4.55 13.7 4.55 9.85 0 14.3-4.35L32 4.35 30.7 6"/><path fill="#fbfae4" d="m14.6 9.95-.35.45q-3.15-.3-5.6-1.6 2.1.8 5.95 1.15m3.25.5-.5-.45 8.4-1.15q-2.15.8-5.25 1.3l-2.65.3"/><path fill="#a32d10" d="M21.95 12.55q1.9 1.9 1.9 4.55t-1.9 4.55q-1.9 1.9-4.55 1.9t-4.55-1.9q-1.9-1.9-1.9-4.55t1.9-4.55q1.9-1.85 4.55-1.85t4.55 1.85"/><path fill="#f9cd52" d="M23.15 17q0 2.45-1.75 4.2-1.7 1.75-4.15 1.75t-4.2-1.75Q11.3 19.45 11.3 17t1.75-4.15q1.75-1.75 4.2-1.75t4.15 1.75q1.75 1.7 1.75 4.15"/><path fill="#f99952" d="m19.9 11.9.15.05q3.35 1.6 3.35 5.3 0 2.45-1.75 4.15-1.7 1.75-4.15 1.75-2.3 0-3.95-1.5l-.3-2.15q0-3.15 1.95-5.35 1.95-2.25 4.7-2.25"/><path fill="#f9ff99" d="M22.7 16.9q0 2.2-1.55 3.8-1.6 1.55-3.8 1.55-2.2 0-3.8-1.55Q12 19.1 12 16.9q0-2.2 1.55-3.8 1.6-1.55 3.8-1.55 2.2 0 3.8 1.55 1.55 1.6 1.55 3.8"/><path fill="#ed794d" d="M17.8 13.8q2.95.55 2.5 3.45-.55 2.95-3.5 2.5-3-.55-2.45-3.5.55-3 3.45-2.45"/><path fill="#ed794d" d="M18.15 14.1q2.9.55 2.45 3.5-.55 2.9-3.45 2.45-2.95-.55-2.5-3.5.55-2.9 3.5-2.45"/><path fill="#f99952" d="M17.8 13.75q1.05.15 1.85 1.1 0 .7-1.65 2.35-.95.95-2 1.3l-1 .15q-.9-1.1-.7-2.45.55-3 3.5-2.45"/><path fill="#f9cd52" d="M17.3 14.75q-1.5.65-2.4 2 .05-2.2 1.9-2.5l1.8.1-1.3.4"/><path fill="#f9ff99" d="m19.15 14.1 1.4-.05q2 .9-1.25 4.2-1.5 1.55-3 2.15-1.5.55-2-.3-.3-.65.25-1.85l.05.5q.9 1.35 3.7-1.45 2.45-2.45 1.15-3.1l-.3-.1m-2.5.7-1.2.6.7-.7 1.65-.3-1.15.4"/><path fill="#ed794d" d="M20.25 14.1q1.85-.6 1.6.9-.05.6-2.2 3.15-1.5 1.95-4.35 2.7-.7.2-1.4 0-.7-.25-.65-.65l1.15.4q1.7-.25 4-2.05 3.25-2.45 3-3.8-.05-.55-.75-.55l-.65.1.25-.2"/><path fill="#fbfae4" d="M13.15 13.7Q12 15.5 12 18.1q-.55-3.1.95-4.9.95-1.1 2.85-1.55l1.7-.2-1.75.45q-1.9.7-2.6 1.8"/></g></defs></svg>