<svg xmlns:xlink="http://www.w3.org/1999/xlink" height="99.2" width="82.2" xmlns="http://www.w3.org/2000/svg"><use height="11.2" transform="translate(31.75 69.6)" width="11.55" xlink:href="#a"/><defs><g id="a"><path d="M5.8 5.7Q4.55-.5 8.35 1.5q3.8 2.05-2.55 4.2Zm0 0q-6.45 2-4.2-2.55 2.3-4.5 4.2 2.55Z" fill="none" stroke="#000" stroke-linecap="round" stroke-linejoin="round" stroke-width="2"/><path d="M5.8 5.65q2 6.8 4.2 2.55 2.15-4.25-4.2-2.55Z" fill="none" stroke="#000" stroke-linecap="round" stroke-linejoin="round" stroke-width="2"/><path d="M5.8 5.65Q-.6 8.2 3.25 9.85q3.9 1.65 2.55-4.2Z" fill="none" stroke="#000" stroke-linecap="round" stroke-linejoin="round" stroke-width="2"/><path d="M10.15 25.1q1.6 1.7-3.6 3.45L6.3 27l.2-.25.3-.35.2-.15.15-1.15q.4-.5 1.35-.35l1.65.35" fill="#549e16" fill-rule="evenodd" transform="translate(-.75 -22.85)"/><path d="m10.15 25.1-1.65-.35q-.95-.15-1.35.35L7 26.25l-.2.15-.3.35-.2.25q-.45-4.35 2.8-2.65.7.35 1.05.75" fill="#74dc1f" fill-rule="evenodd" transform="translate(-.75 -22.85)"/><path d="m5.3 25.25 1.25 3.3q-3.15.95-4.2.4h.25q-.2-1.05 0-1.6.15-.6.65-1.3l.55-.7 1.45-.1h.05" fill="#549e16" fill-rule="evenodd" transform="translate(-.75 -22.85)"/><path d="M5.3 25.25h-.05l-1.45.1-.55.7q-.5.7-.65 1.3-.2.55 0 1.6h-.25q-1.15-.6 0-2.95 1.55-3.05 2.95-.75" fill="#74dc1f" fill-rule="evenodd" transform="translate(-.75 -22.85)"/><path d="M6.55 28.5q6.35-1.7 4.2 2.55-2.2 4.25-4.2-2.55" fill="#549e16" fill-rule="evenodd" transform="translate(-.75 -22.85)"/><path d="m4.4 29.5 2.15-1Q7.9 34.35 4 32.7q-1-.45-1.3-.95l.9-.35q1.2-.45 1.5-1.6l-.7-.3" fill="#549e16" fill-rule="evenodd" transform="translate(-.75 -22.85)"/><path d="m2.7 31.75-.1-.5q.5-1.15 1.8-1.75l.7.3q-.3 1.15-1.5 1.6l-.9.35" fill="#74dc1f" fill-rule="evenodd" transform="translate(-.75 -22.85)"/></g></defs></svg>