<svg xmlns="http://www.w3.org/2000/svg" xmlns:xlink="http://www.w3.org/1999/xlink" width="82.2" height="99.2"><use xlink:href="#a" width="9.85" height="9.9" transform="translate(33.3 71.45)"/><defs><g id="a"><path fill-rule="evenodd" d="M4.9 9.9q-2 0-3.45-1.45Q0 6.95 0 4.95 0 2.9 1.45 1.5 2.9 0 4.9 0q2.05 0 3.5 1.5 1.45 1.4 1.45 3.45 0 2-1.45 3.5Q6.95 9.9 4.9 9.9"/><path fill="red" fill-rule="evenodd" d="M4.9 9.05q-1.7 0-2.85-1.2-1.2-1.2-1.2-2.9t1.2-2.9Q3.2.85 4.9.85q1.7 0 2.95 1.2 1.2 1.2 1.2 2.9t-1.2 2.9Q6.6 9.05 4.9 9.05"/><path fill-rule="evenodd" d="M4.9.85q2.9 0 3.85 2.65h-7.7Q2.05.85 4.9.85"/><path fill="#ffd400" fill-rule="evenodd" d="M4.9 9.05q-2.7 0-3.75-2.55H8.7Q7.6 9.05 4.9 9.05"/><path fill="none" stroke="#fff" stroke-linecap="round" stroke-linejoin="round" stroke-opacity=".6" d="M2.2 2.45q1.3-.9 2.7-.9 1.8 0 2.8 1.1"/><path fill="none" stroke="#000" stroke-linecap="round" stroke-linejoin="round" stroke-opacity=".302" d="M7.7 7.7q-1.3.9-2.7.9-1.8 0-2.8-1.1"/></g></defs></svg>