<svg xmlns="http://www.w3.org/2000/svg" xmlns:xlink="http://www.w3.org/1999/xlink" width="82.2" height="99.2"><use xlink:href="#a" width="9.9" height="9.85" transform="translate(33.3 71.5)"/><defs><g id="a"><path fill-rule="evenodd" d="M9.9 4.9q-.05 2-1.5 3.5-1.45 1.45-3.5 1.45-2 0-3.4-1.45Q0 6.9 0 4.9q0-2.05 1.5-3.45Q2.9-.05 4.9 0q2.05-.05 3.5 1.45 1.45 1.4 1.5 3.45"/><path fill="#eef5ff" fill-rule="evenodd" d="M8.85 4.9q0 1.6-1.1 2.8-1.2 1.15-2.85 1.15-1.65 0-2.8-1.15Q.95 6.5.95 4.9q0-1.65 1.15-2.85Q3.25.9 4.9.95 6.55.9 7.75 2.05q1.1 1.2 1.1 2.85"/><path fill="none" stroke="red" stroke-linecap="round" stroke-linejoin="round" stroke-width=".65" d="M4.85.95V8.9M.75 4.85H8.9"/><path fill="none" stroke="#fff" stroke-linecap="round" stroke-linejoin="round" stroke-opacity=".6" d="M2.2 2.4q1.3-.9 2.7-.9 1.8 0 2.8 1.1"/><path fill="none" stroke="#000" stroke-linecap="round" stroke-linejoin="round" stroke-opacity=".302" d="M7.7 7.65q-1.3.9-2.7.9-1.8 0-2.8-1.1"/></g></defs></svg>