<svg xmlns="http://www.w3.org/2000/svg" xmlns:xlink="http://www.w3.org/1999/xlink" width="82.2" height="99.2"><use xlink:href="#a" width="9.9" height="9.9" transform="translate(33.3 71.45)"/><defs><g id="a"><path fill-rule="evenodd" d="M9.9 4.95q0 2.05-1.4 3.5Q7 9.9 5 9.9q-2.05 0-3.5-1.45Q0 7 0 4.95T1.5 1.5Q2.95 0 5 0q2 0 3.5 1.5 1.4 1.4 1.4 3.45"/><path fill="#3d7a15" fill-rule="evenodd" d="M9.05 4.95q0 1.7-1.2 2.9Q6.7 9.05 5 9.05q-1.7 0-2.9-1.2Q.85 6.65.85 4.95t1.25-2.9Q3.3.85 5 .85t2.85 1.2q1.2 1.2 1.2 2.9"/><path fill="#fff100" fill-rule="evenodd" d="m1.35 5.35 3.85-4.1L8.6 5.2 4.95 8.6l-3.6-3.25"/><path fill="#0062ff" fill-rule="evenodd" d="M6.55 5.1q0 1.55-1.5 1.55-1.55 0-1.55-1.55 0-1.5 1.55-1.5 1.5 0 1.5 1.5"/><path fill="none" stroke="#fff" stroke-linecap="round" stroke-linejoin="round" stroke-opacity=".6" d="M2.2 2.45q1.3-.9 2.7-.9 1.8 0 2.8 1.1"/><path fill="none" stroke="#000" stroke-linecap="round" stroke-linejoin="round" stroke-opacity=".302" d="M7.7 7.7q-1.3.9-2.7.9-1.8 0-2.8-1.1"/></g></defs></svg>