<svg xmlns:xlink="http://www.w3.org/1999/xlink" height="99.2" width="82.2" xmlns="http://www.w3.org/2000/svg"><use height="14.1" transform="translate(12.2 66.45)" width="36.5" xlink:href="#a"/><defs><g id="a"><path d="M22.95 6.25H20q-.55 0-1.05.4l-.05.1-.25.3-.25-.4v.05q-.4-.45-.95-.45H14.5l-.4.05-.6.3-.3-.35m-.25 3.15-.5.75-.05.2-.2 1.1h.05l-.1.3.35.85q.35.45 1 .5h4.25l.1-.05.05-.1.1-.55v-.25l-.4-.7.2-.15.3-.3.15-.3.1-.35.2-1.25h1.2l-.35 2.2-.05.15h.05l-.1.3q-.05.5.35.85l.55.4.4.1h1.25l.1-.05.05-.1.95-5.4M12.8 9.05h.7" fill="none" stroke="#642b00" stroke-linecap="round" stroke-linejoin="round" stroke-width="2"/><path d="M34.8 3.15h-.05q.4-.05.6-.45l.05-.05.1-.8v.05q-.05-.5-.45-.7-.35-.35-.75-.15V1M3.1 2.1H3l-.1-.25-.05-.05-.15-.2q-.2-.2-.45-.25l-.8.15-.1.1-.35.7.05-.05.05.75v.05l.75.45h.45l.05.05.05.1" fill="none" stroke="#000" stroke-linecap="round" stroke-linejoin="round" stroke-width="2"/><path d="m34.3 1-.65.5q-.15.15-.15.4V2l-.45-.1q-.55-.05-1.15.25h.05l-.4.15h.05q-.4.2-.65.55-.25.35-.2.7l-.45-.1-1.2.25-.15.1h-.05v.05q-.25.05-.4.25l-.35.3q-.25.35-.2.7l-.15-.05-.1-.05-1.25.1-1.05.65q-.4.45-.25.95L25 6.5l-.5-.3.05.05-.65-.15-.6.05q-.7.15-1.05.6V6.7l-.25.25m-.05 1q.15.35.7.5h-.05l1.2.05 1.15-.55.35-.9.7.4 1.2-.1 1.05-.65v-.05l.3-.6V6l.4.05 1.15-.2.95-.8.2-.65.5.1 1.15-.2.95-.8.05-.1h.05l.05-.2.05-.15.75.1m-32.4.5.05.05.9.8 1.25.2.4-.1.25.65.9.8 1.25.2.35-.05.3.7v-.05l1.05.7 1.2.1h.05l.65-.4q-.1.5.4.9l1.05.55 1.25-.05-.05.4v.05m.4-2.2q-.45-.4-1-.55H13l-.55-.05h-.1l-.6.15.05-.05q-.45.15-.65.4v-.35l-.1-.3L11 6.1l-.15-.15q-.4-.45-1-.65L8.6 5.2l-.25.1-.25-.7-.1-.1q-.35-.4-.8-.6l-.55-.2.05.05-.7-.1-.45.1-.25-.7q-.35-.45-.9-.7L3.2 2.1h-.1m10.95 7.2-.2.15" fill="none" stroke="#642b00" stroke-linecap="round" stroke-linejoin="round" stroke-width="2"/><path d="M10 23.95q-.1.2-.05.4l-.05.1.05.05v.1l.25.15q1.45.25 1.95-.85.15.3-.1.7l-.85.7-1.05.2-.7-.4q-.2-.4.1-.85.25-.35.65-.55l-.2.25m4.95-2.35.1-.25q.15-.3.5-.4l.55.15.35.5-.1.65-.45.35-.6-.1-.3-.55.15.1q1.05.35 1.05-.7v-.05q-.2-.3-.6-.2-.45.1-.65.5m-1.9.7-.15-.1-.35.45-.15.35.35.05q.45.4 1.1.2.95-.2 1.1-.95.15.3-.1.75l-.85.7-1.05.2-.7-.4q-.2-.4.1-.85l.55-.5.3-.15 1.05-.2.5.15-.7-.15q-.55.05-1 .45M9.5 25.7l-.25.5-.95.6-1.05.1q-.55-.15-.65-.5-.15-.4.2-.8t.9-.6l1.1-.05q.5.1.65.45-.45-.55-1.3-.4l-.65.25q-.35.15-.4.45l-.1.1.35.3q.95.5 1.9-.3l.25-.1M4.05 27q.7.7 1.7.3l.3-.4-.05-.55.2.35-.25.75q-.4.35-1 .5L3.9 27.9l-.5-.3v-.8l.2-.2q.35-.35.95-.5l.55-.05-.45.1q-.35.1-.5.35l-.4-.05q-.2.75.3.55m-20.2-5.35.1.5v.1l-.35.55-.05.05-.5.1-.55-.35-.05-.6.25-.55h1l.15.2m2.5 2.2q-.2.25-.6.3l-1.1-.2-.8-.7-.2-.4.05-.05.35-.55v-.1l.35-.1 1.1.2.8.65q.3.45.15.85l-.1.1v-.3l-.35-.85h-.05l-.5-.2h-.1l-.2.3v.6q.45.8 1.2.45m-2.95-2.15q-.65.35-.25.95h.35q.35-.5 0-1l-.1.05m5.6 2.6.1.15q.3.45.15.85-.2.35-.7.4l-1.1-.2-.8-.7q-.3-.45-.1-.8.15-.35.65-.4l.6.05q-.2.05-.35.2l-.1.35.05.3q.5 1.1 1.65.75v-.05q.1-.55-.05-.9m4.55 1.95-.05.05h-.1l-.2.1-.05.55q.5.7 1.3.8h.25v.4l-.25.05-.75-.05q-.6-.15-.95-.5-.4-.35-.3-.75.1-.4.6-.55l.5-.1m-1.45 0-.05-.05q-.55-.9-1.6-.9l-.2.1v.2q.3 1.35 1.7 1l.05-.05.05-.15.05-.1v.3q-.15.35-.65.5l-1.1-.1-.9-.6q-.35-.4-.2-.75.1-.4.6-.5l1.1.05q.55.2.9.6l.25.45" fill="#fc0" fill-rule="evenodd" transform="translate(18.8 -19.7)"/><path d="m10 23.95.2-.25.7-.3.75-.05q.4.05.55.4v.05l-.05.1q-.5 1.1-1.95.85l-.25-.15v-.1q.5.5.9-.3.2-.3-.15-.2v-.1l-.7.05m5-2-.05-.05v-.3q.2-.4.65-.5.4-.1.6.2v.05q0 1.05-1.05.7l-.15-.1m-2.25 1.1h.4q.45-.45-.1-.75.45-.4 1-.45l.7.15.15.05h.05v.25q-.15.75-1.1.95-.65.2-1.1-.2m2.5-1.45q.1.35.35.1l.15-.2q-.7-.4-.5.1M9.5 25.7l-.25.1q-.95.8-1.9.3l.3-.15.25-.4q-.2-.15-.7 0l-.1.15q.05-.3.4-.45l.65-.25q.85-.15 1.3.4l.1.2-.05.05v.05m-3.5.65.05.55-.3.4q-1 .4-1.7-.3l.35-.25.1-.25h-.35q.15-.25.5-.35l.45-.1q.7-.05.9.3m-19.65-2.5q-.75.35-1.2-.45v-.6l.2-.3h.1l.5.2h.05l.35.85v.3m-2.95-2.15.1-.05q.35.5 0 1h-.35q-.4-.6.25-.95m5.6 2.6q.15.35.05.9v.05q-1.15.35-1.65-.75l-.05-.3.1-.35q.15-.15.35-.2l.15-.05q.75.2 1.05.7m4.55 1.95h.1l.8.1.25.1.35.3.05.05.2.35v.05l-.05.15-.05.15-.15.2-.05.05h-.55q-.8-.1-1.3-.8l.05-.55.2-.1h.1l.05-.05m-1.45.05-.05.1-.05.15-.05.05q-1.4.35-1.7-1v-.2l.2-.1q1.05 0 1.6.9l.05.05v.05" fill="#b08d00" fill-rule="evenodd" transform="translate(18.8 -19.7)"/><path d="m9.95 24.5-.05-.05.05-.1q-.05-.2.05-.4l.7-.05v.1q.35-.1.15.2-.4.8-.9.3m2.8-1.45L12.4 23l.15-.35.35-.45.15.1q.55.3.1.75h-.4m2.5-1.45q-.2-.5.5-.1l-.15.2q-.25.25-.35-.1m-7.9 4.5L7 25.8l.1-.1.1-.15q.5-.15.7 0l-.25.4-.3.15m-3.3.9q-.5.2-.3-.55l.4.05h.35l-.1.25-.35.25M-9.8 25.35q.3.15.05.4l-.3.1q-.55-.35-.1-.5h.35m3.05 1.9-.25-.1-.15-.25.15-.25.25-.1.3.1.1.25-.1.25-.3.1m-6.15-3.35q.5-.25.7.3l-.15.1q-.5.5-.85-.2l.3-.2m-2.35-.8q-.45.05-.45-.45 0-.85.7-.3l.05.2-.3.55M-17 22q-.4-.65.4-.45l-.1.4-.3.05" fill="#fff" fill-rule="evenodd" transform="translate(18.8 -19.7)"/><path d="M30.95 4.1q.15.35-.1.8l-.85.7-1.05.2-.7-.4q-.2-.4.1-.85l.85-.65 1.05-.2q.5.05.7.4m.2-1.1.85-.65 1.05-.2q.5.05.7.4.15.35-.1.8l-.85.7-1.05.2-.7-.4q-.2-.4.1-.85m2.7-1.35q.15-.3.5-.4l.55.15.35.5-.1.65-.45.35-.6-.1-.3-.55q-.1-.35.05-.6M27.1 7.1l-1.05.1q-.55-.15-.65-.5-.15-.4.2-.8t.9-.6l1.1-.05q.5.1.65.5.1.35-.2.75l-.95.6m-2.35.65q-.4.35-1 .5L22.7 8.2q-.55-.15-.6-.55-.1-.4.3-.75.35-.35.95-.5l1.1.05L25 7l-.25.75M2.15 1.6q-.35-.1-.6.15-.25.2-.3.55l.05.6.55.35.5-.1.05-.05.35-.55v-.1l-.1-.5q-.2-.3-.5-.35m.25 1.5.25.45.8.7 1.1.2q.5-.05.7-.4.15-.4-.15-.85l-.8-.65-1.1-.2-.45.1M6 3.9q-.5.05-.65.4-.2.35.1.8l.8.7 1.1.2q.5-.05.7-.4.15-.4-.15-.85l-.8-.65L6 3.9m7.9 3.2q-.4-.35-.95-.5l-1.1.05q-.5.15-.6.55-.1.4.3.75.35.35.95.5l1.1-.05.2-.05.4-.5-.05-.45-.25-.3m-3.65.3q.5-.15.65-.5.1-.4-.25-.8t-.9-.6l-1.1-.05q-.5.1-.6.5-.15.35.2.75l.9.6 1.1.1" fill="none" stroke="#f90" stroke-linecap="round" stroke-linejoin="round" stroke-width=".5"/><path d="m.7 26.65.2-.3q.05-.1.2-.1l.15.05.35-.05.15.15.1-.05.3.15.1-.1.2.1v.05h.15l.3-.15h.05l.2.1.05.05h.3l.05-.15h.1l.1.1h.05q-.05 2.15-.6 4.35l-.2.6v.05h.15l.05.15.05.1-.05.1-.35.25-1.15-.2-.2-.2.7-3.8-1.6-.2-.1-.05-.1-.05.2-.65v-.1h.05v-.15H.7v-.05m-4.7-.1 1.3-.2q.65-.2 1.25 0l.3-.05q.85.3.7 1.15v.1l-.1.05-.05.25q.25 1.3-.25 2.4l-.1.15-.15.1q.05.2-.05.4l-3.55.1v.2l2.4-.2h.35l.1.1.55.3q.2 0 .25.2v.05l-.05.1v.1h-4.05l-.05-.1-.1-.05q-.35-.85.05-1.7l.25-.25 1.15-.05 1.55-.1h.15l.35-1.7h-2.9v-.3l-.05-.05h.05l.2-1v-.15l.05-.05.25-.35.05.55H-4" fill="#b08d00" fill-rule="evenodd" transform="translate(18.8 -19.7)"/><path d="M.7 26.65v.05H.65v.15H.6v.1l-.2.65.1.05.1.05 1.6.2-.7 3.8.2.2 1.15.2-.1.15h-.9q-.4-.05-.65-.3-.2-.25-.1-.5v-.1l.5-2.9v-.1l-.1-.05H-.05l.2-.85q.05-.4.35-.65l.2-.15m3.8.5-.1-.3q-.15-.35.1-.7v1m-5.6 4.7q.5.05.25.05l-.55.05.05.15v.15H-5.3l-.25-.05-.35-.2-.05-.05-.1-.5v-.1l.15-1.15v-.1l.35-.6.05-.05.75-.15h1.9l.15-.1v-.15l.1-.6v-.15h-2.95l.15-.85.4-.65.1-.15.15-.05.25-.05-.2 1h-.05l.05.05v.3h2.9l-.35 1.7h-.15l-1.55.1-1.15.05-.25.25q-.4.85-.05 1.7l.1.05.05.1h4.05m-4.55-5 .1-.2v-.05l-.25-.45.25.35.05.05.05.55-.1.25-.35.3-.05.05-.25.1-.1.05v-.5h.35l.05-.05.2-.25.05-.2" fill="#fc0" fill-rule="evenodd" transform="translate(18.8 -19.7)"/><path d="M2.65 26.9h.1l.4.15v.05l-.05.1-.1.1-.65-.15q.05-.2.25-.25h.05m-.95 1.05.25 1.25q0 1.3-.6 2.7l.5.4-.2.25-.75-.4Q1 31 1.35 30l.15-.8q.1-.75-.5-.75l-1.15.15q.05-1 .75-1.75l-.1 1.2 1.2-.1m-3.85-1.1q.45.05.85.25l-1.35-.05.35-.2h.15m-1 2.35q.3-.15.25-.75l-2.75-.25v-.15l.7-1.55-.2 1.4h.65l.85.05q.65-.25 1.15.4l-.15.85v.1l-2.05.3v.05l-.2-.05-.35.15q-.3.45-.2.75-.05 1-.5 1.9-.3-1.45.3-3 .1-.55.75-.35l.4.05.5.1.1.1.75-.1m.55 2.25.95.05.05.1q-.55.3-1.3 0l.3-.15" fill="#fff" fill-rule="evenodd" transform="translate(18.8 -19.7)"/><path d="M1.2 31.95q.25.25.65.3h.9l1-5.7H1.2q-.35 0-.7.25-.3.25-.35.65l-.2.85H1.5l.1.05v.1l-.5 2.9v.1q-.1.25.1.5V32v-.05m3.2-5.9v.1L3.25 32.7l-.05.05-.1.05H1.85q-.65 0-1-.5-.4-.35-.35-.85l.1-.3v.05l.35-2.35H-.2l-.2 1.25q-.15.65-.75 1.05.35.35.35.95v.05l-.05.55-.05.05-.15.05H-5.3q-.65 0-1-.5l-.35-.85.1-.3v.05l.15-1.1q.1-.65.6-1h-.1q.25-.25.65-.3H-6l-.05-.1-.1-.05v-.05l.2-.9.5-.6-.05-.55.2-.2h-.1q.45-.45 1.05-.35h3q.55 0 .95.4v-.05l.3.35.25-.35H.2q.45-.45 1-.35h3.1l.1.05m-10.35 5.9.65.3h3.95v-.15l-.2-.6h-.05l-.6-.15h-2.65l-.1-.1v-.1l.05-.05v-.15h2.7l.8-.3.45-.65.4-2.45v-.25q0-.25-.15-.45-.2-.3-.65-.3h-3q-.35 0-.65.25l-.4.65-.15.85h2.95v.15l-.1.6v.15l-.15.1h-1.9l-.75.15q-.3.25-.4.75l-.15 1.15v.1l.1.5V32v-.05" fill="#f90" fill-rule="evenodd" transform="translate(18.8 -19.7)"/></g></defs></svg>