<svg xmlns:xlink="http://www.w3.org/1999/xlink" height="99.2" width="82.2" xmlns="http://www.w3.org/2000/svg"><use height="16.2" transform="translate(8 69.9)" width="17.1" xlink:href="#a"/><defs><g id="a" fill-rule="evenodd"><path d="m-22.7 30.45.55.1q1.25 1 3.85.7 4.15-.35 5.7-2.3l.5-.15.35.4.1.3q1.15 3.2-.5 5.45-1.25 1.65-3.3 3-2.8 1.9-4.75 1.2-3.05-1.05-2.8-8.25l.3-.45" fill="#353535" transform="translate(23 -23.15)"/><path d="m-22.05 31.65 5.05.2q3-.75 4.5-2l.45 1.35q.2 1.3-.9 2.85-2.4 3.25-5.35 4-4 .95-3.75-6.4" fill="#b7b7b7" transform="translate(23 -23.15)"/><path d="m-18.1 32.05-3.25 4.6q-.6-1.05-.65-2.85l1.75-1.65 2.15-.1m2.9-.75 1.25-.55-2.2 6.25q-1.65 1.05-2.85 1.1 1.55-2.45 3.8-6.8" fill="#fff" transform="translate(23 -23.15)"/><path d="m-18.4 38-.75.15q-1.35 0-2.15-1.35l-.05-.1 1.85.4 1.25-.15-.75 1.15.6-.1m2.25-1 .3-.95 2.75-1.85-.7.8-.05.05v.05l-2.3 1.9" fill="#8d8d8d" transform="translate(23 -23.15)"/><path d="m-16.15 37-.35.2v.05l-.15.05-.05.05-.15.05v.05q-1.25.6-2.15.65l.75-1.15q.95-.2 2.4-.9l-.3.95" fill="#9f9f9f" transform="translate(23 -23.15)"/><path d="M-9.25 30.15v.45l-.1 1.1.05.95-.1 2.95.3.15q1.35.55 1.35 1.45v.1l-.05.25q-1.2 1.6-3.5 1-1.4-.3-1.7-1.7l-.25-7.85q0-1.65-.2-2-.2-.4-1.25-.45l-.35-.15-.1-.4q.1-2.8 3.05-2.85 2.85.1 2.85 7" fill="#351e02" transform="translate(23 -23.15)"/><path d="M-14.35 25.8q.4-1.6 2.25-1.65 2.4.65 1.9 11.65l1.55 1.35q-.55.75-1.85.75-1.35 0-1.5-1.1l-.2-5.55q-.05-3.3-.25-4.15-.25-1.25-1.9-1.3" fill="#f8c606" transform="translate(23 -23.15)"/><path d="M-10.15 34.95-12 36.6l-.15-2.6q1.2-.55 2.05-1.45l-.05 2.4" fill="#b05e06" transform="translate(23 -23.15)"/><path d="M-12.3 30.35q0-1.3.95-2.25t2.25-.95q3.2 0 3.2 3.2 0 3.25-3.2 3.25t-3.2-3.25" fill="#351e02" transform="translate(23 -23.15)"/><path d="M-6.85 30.35q0 2.3-2.25 2.3t-2.25-2.3q0-2.25 2.25-2.25t2.25 2.25" fill="#f8c606" transform="translate(23 -23.15)"/><path d="M-8 28.4q1.15.65 1.15 1.95 0 2.3-2.25 2.3-1.5 0-2.1-1.45.7.6 1.5.6 2.15 0 2.15-2.1 0-.65-.45-1.3" fill="#b05e06" transform="translate(23 -23.15)"/><path d="M-10.7 29.55q0-1.1 1.1-1.1 1.05 0 1.05 1.1 0 1.05-1.05 1.05-1.1 0-1.1-1.05" fill="#fff" transform="translate(23 -23.15)"/></g></defs></svg>