<svg xmlns="http://www.w3.org/2000/svg" xmlns:xlink="http://www.w3.org/1999/xlink" width="82.2" height="99.2"><use xlink:href="#a" width="36.5" height="14.05" transform="translate(12.35 66.15)"/><defs><g id="a" fill-rule="evenodd"><path fill="#300a02" d="M33.5 1.25q-.1-.5.65-.9.35-.25.75-.35 1.15.1 1.6 1.9-.1 1.25-1.4 1.5-.15 1.1-.6 1.2-.85 1.1-1.55.9 0 1.1-.7 1.5-1.55 1.3-1.8.9.15.95-.2 1.1-.85 1.2-2.05 1.1-.4 1.7-.95 1.3-1.95 1.2-2.45.2l-.9 1.15q-1.35.75-2 0-.6.85-1.2.9l-1.65.05-.55-.35q-.7.85-1.95.7l-1.35-.6-.45-.55L13 13q-.75-.05-1.1-.8l-.25-.7-2.1-.1q-.75-.15-.95-1l-.05-.85L7.1 9.4q-.7 0-.9-.8l-.1-.85-1.8-.45q-.5-.25-.55-.8v-.55q-.8.3-1.6-.3-.55-.3-.8-1l-.1-.7Q-.7 2.7.45 1.6L2 .75Q2.7.9 3.05 1.9 4 1.65 5 2.4q.7.4.65 1.4.85-.05 1.3.35.8.2 1.15 1.1 1.05 0 1.55.8.55.55 1 1.45.75-.1 1.5.5.55.4.75 1.1l2 .05q.55.3.85 1l1-.3q1.15-.15 1.7.5l.75-.7 2 .1 1.05-1 1.95.1.95-1 1.2-.55.65-1.15q1.25-.75 1.65-.65l.3-1.15q.75-1 1.75-1.1l.8-1.6q1.05-.7 2-.4"/><path fill="#9e2b10" d="M7.5 5.75q0 1.75-1.75 1.75T4 5.75Q4 4 5.75 4T7.5 5.75"/><path fill="#9e2b10" d="M9.9 7.65q0 1.75-1.75 1.75T6.4 7.65q0-1.75 1.75-1.75T9.9 7.65"/><path fill="#f4f3f2" d="M10.65 11.4q-1.75 0-1.75-1.75l.05-.45q.7-.4.9-1.1l.8-.2q1.75 0 1.75 1.75t-1.75 1.75"/><path fill="#9e2b10" d="M15.4 11.15q0 1.75-1.75 1.75t-1.75-1.75q0-1.75 1.75-1.75t1.75 1.75"/><path fill="#9e2b10" d="M18.5 12q0 1.75-1.75 1.75T15 12q0-1.75 1.75-1.75T18.5 12"/><path fill="#9e2b10" d="M20 13.5q-1.75 0-1.75-1.75T20 10q1.75 0 1.75 1.75T20 13.5"/><path fill="#f4f3f2" d="M23 12.65q-.8 0-1.25-.55v-.35q0-.65-.45-1.2.25-1.4 1.7-1.4 1.75 0 1.75 1.75T23 12.65"/><path fill="#9e2b10" d="M27.9 9.75q0 1.75-1.75 1.75T24.4 9.75Q24.4 8 26.15 8t1.75 1.75"/><path fill="#9e2b10" d="M30.15 7.9q0 1.75-1.75 1.75T26.65 7.9q0-1.75 1.75-1.75t1.75 1.75"/><path fill="#9e2b10" d="M32.5 5.65q0 1.75-1.75 1.75T29 5.65q0-1.75 1.75-1.75t1.75 1.75"/><path fill="#fff" d="M34.65 3.25Q34.65 5 32.9 5t-1.75-1.75q0-1.75 1.75-1.75t1.75 1.75"/><path fill="#9e2b10" d="M5.15 4q0 1.75-1.75 1.75T1.65 4q0-1.75 1.75-1.75T5.15 4"/><path fill="#fff" d="M2.7 2.4q0 1.2-1.2 1.2T.3 2.4q0-1.2 1.2-1.2t1.2 1.2"/><path fill="#9e2b10" d="M36.05 1.65q0 1.2-1.15 1.2-1.2 0-1.2-1.2t1.2-1.2q1.15 0 1.15 1.2"/><path fill="#e58f83" d="M3.15 2.85 3.4 3q.15.65-.9.65-.2-.95.65-.8"/><path fill="#ebbab0" d="M3.35 2.55q.55.05-.1.4l.6-.05q.15.85-1.55 1l-.25-.15q-.2-1.2 1.3-1.2"/><path fill="#e58f83" d="m5.45 4.7.05.05q.25.85-.3.7-.35-.05-.15-.4l.4-.35"/><path fill="#ebbab0" d="m5.25 4.55.65-.05.05.1q.45.25.2.65-.25.45-1 .45-.95.15-.65-.5.25-.5.75-.65"/><path fill="#e58f83" d="m7.75 6.6.3.05q.35.35-.05.8-.4.45-.8.2-.25-.2 0-.6l.55-.45"/><path fill="#ebbab0" d="m7.7 7.2-.05-.3q-.8.3-.05.55V7.4l.1-.2m-.1-.8q.45-.15.6 0l.3.05q.4.6-.15 1.1-.55.5-1.2.45-.8-.1-.5-.75l.95-.85m4.4 4.55.5-.75.7-.2.15.05.35-.05q1.1.75-.85 1.15l-.85-.2m3.8.15q.35-.25.7-.2l.3.05.2.05q1.05 1.15-.85 1.45-.8.15-.9-.45 0-.55.55-.9m3.75-.3.4-.05q1.3.95-.6 1.25-.6.1-.85-.2-.15-.3.25-.95l.8-.05m6.25-2.4.2.25h.1q.3.5-.1.95-.35.4-.9.4-.65 0-.5-.6.1-.5.55-.8.3-.3.65-.2m2.3-1.9.2.15.05.1q.15.85-.95.75-.75-.15.05-.8l.65-.2M29.4 5l.95-.2h.15q.95.4.75.95l-.8.65-1.05-.15q-.3-.4 0-1.25M35.5.9l-.15.1q-.35.25-.7.2h-.05q-.4-.1-.1-.3l.45-.25.55.1V.9"/><path fill="#a5a4a4" d="M11.5 8.45q1 .35.55 1.6-.45 1.3-1.45.95l-.3-.2q.75-.15 1.05-1 .3-.85-.25-1.4l.4.05m12.95 2.2q.45 1.25-.6 1.6l-.35.05q.5-.6.2-1.4-.25-.9-1.05-1 .2-.2.35-.2 1-.35 1.45.95m9.2-8.35q1 .35.55 1.65-.45 1.25-1.45.9l-.3-.2q.7-.1 1-.95.3-.9-.25-1.45l.45.05M1.9 1.7q.7.2.35 1.1-.25.9-1 .65l-.2-.15q.45-.05.7-.65.2-.55-.15-1l.3.05"/></g></defs></svg>