<svg xmlns="http://www.w3.org/2000/svg" xmlns:xlink="http://www.w3.org/1999/xlink" width="82.2" height="99.2"><use xlink:href="#a" width="9.85" height="9.9" transform="translate(33.3 71.45)"/><defs><g id="a"><path fill-rule="evenodd" d="M9.85 4.95q0 2-1.45 3.5Q6.95 9.9 4.9 9.9q-2 0-3.45-1.45Q0 6.95 0 4.95 0 2.9 1.45 1.5 2.9 0 4.9 0q2.05 0 3.5 1.5 1.45 1.4 1.45 3.45"/><path fill="#fff" fill-rule="evenodd" d="m8.1 2.3.35.5.05.1.1.2.15.25.1.25.05.2.15.8v.35L9 5.3l-.15.9-.05.1-.3.7-.6.85-.05.05-.9.65-2.05.5q-1.1 0-2-.5-.45-.25-.85-.65L2 7.85 1.4 7l-.1-.15-.2-.55-.2-1h4.45V.9q1 .1 1.9.65l.6.5.25.25"/><path fill="#009" fill-rule="evenodd" d="M5.35 5.3H.9l-.05-.35q0-1.7 1.2-2.9Q3.2.85 4.9.9h.45v4.4"/><path fill="red" fill-rule="evenodd" d="M8.5 6.85H1.4l-.1-.15-.2-.55h7.7l-.3.7M7.85 7.9l-.9.65H2.9q-.45-.25-.85-.65v-.05h5.8v.05m1-4.3.05.2H5.35v-.7H8.6l.15.25.1.25M9 5.3H5.35v-.7h3.7v.35L9 5.3m-.9-3H5.35v-.75h1.9l.6.5.25.25"/><path fill="none" stroke="#fff" stroke-linecap="round" stroke-linejoin="round" stroke-opacity=".6" d="M2.2 2.45q1.3-.9 2.7-.9 1.8 0 2.8 1.1"/><path fill="none" stroke="#000" stroke-linecap="round" stroke-linejoin="round" stroke-opacity=".302" d="M7.7 7.7q-1.3.9-2.7.9-1.8 0-2.8-1.1"/></g></defs></svg>