<svg xmlns="http://www.w3.org/2000/svg" xmlns:xlink="http://www.w3.org/1999/xlink" width="82.2" height="99.2"><use xlink:href="#a" width="9.85" height="9.9" transform="translate(33.3 71.45)"/><defs><g id="a"><path fill-rule="evenodd" d="M9.85 4.95q0 2-1.45 3.5Q6.95 9.9 4.9 9.9q-2 0-3.45-1.45Q0 6.95 0 4.95 0 2.9 1.45 1.5 2.9 0 4.9 0q2.05 0 3.5 1.5 1.45 1.4 1.45 3.45"/><path fill="red" fill-rule="evenodd" d="M9.05 4.95q0 1.7-1.2 2.95Q6.6 9.05 4.9 9.05q-1.7 0-2.85-1.15Q.85 6.65.85 4.95q0-1.7 1.2-2.9Q3.2.85 4.9.9 6.6.85 7.85 2.05q1.2 1.2 1.2 2.9"/><path fill="#fff" fill-rule="evenodd" d="M2.95 3.1 3 3.05q.7-.75 1.8-.75l.3.05.1.05v.1l-.1.05-.35.35q-.9.8-.85 2 0 1.2.85 2.05l.4.35.05.1v.05l-.05.05-.1.05H4.8q-1.1 0-1.85-.75-.8-.8-.75-1.9 0-1.1.75-1.8m3.2.8q.45 0 .8.35l.3.75-.3.8-.8.3q-.45 0-.75-.3-.35-.35-.35-.8 0-.45.35-.75.3-.35.75-.35"/><path fill="none" stroke="#fff" stroke-linecap="round" stroke-linejoin="round" stroke-opacity=".6" d="M2.2 2.45q1.3-.9 2.7-.9 1.8 0 2.8 1.1"/><path fill="none" stroke="#000" stroke-linecap="round" stroke-linejoin="round" stroke-opacity=".302" d="M7.7 7.7q-1.3.9-2.7.9-1.8 0-2.8-1.1"/></g></defs></svg>