<svg xmlns="http://www.w3.org/2000/svg" xmlns:xlink="http://www.w3.org/1999/xlink" width="82.2" height="99.2"><use xlink:href="#a" width="9.85" height="9.9" transform="translate(33.3 71.45)"/><defs><g id="a"><path fill-rule="evenodd" d="M9.85 4.95q0 2-1.45 3.5Q6.95 9.9 4.9 9.9q-2 0-3.45-1.45Q0 6.95 0 4.95 0 2.9 1.45 1.5 2.9 0 4.9 0q2.05 0 3.5 1.5 1.45 1.4 1.45 3.45"/><path fill="#fc0" fill-rule="evenodd" d="M9.05 4.95q0 1.7-1.2 2.95Q6.6 9.05 4.9 9.05q-1.7 0-2.85-1.15Q.85 6.65.85 4.95q0-1.7 1.2-2.9Q3.2.85 4.9.9 6.6.85 7.85 2.05q1.2 1.2 1.2 2.9"/><path fill="#090" fill-rule="evenodd" d="M8.95 4.15h-8l.2-.75.05-.15Q2.1 1.1 4.4.9h1q1.9.15 2.9 1.65.5.7.65 1.6"/><path fill="red" fill-rule="evenodd" d="m8.75 6.55-.9 1.35Q6.6 9.05 4.9 9.05q-1.7 0-2.85-1.15-.6-.65-.9-1.35V6.5h7.6v.05"/><path fill="#006" fill-rule="evenodd" d="M5.75 6.15q-.3.3-.75.3t-.75-.3q-.3-.3-.3-.75t.3-.75q.3-.3.75-.3t.75.3l.3.75-.3.75"/><path fill="none" stroke="#fff" stroke-linecap="round" stroke-linejoin="round" stroke-opacity=".6" d="M2.2 2.45q1.3-.9 2.7-.9 1.8 0 2.8 1.1"/><path fill="none" stroke="#000" stroke-linecap="round" stroke-linejoin="round" stroke-opacity=".302" d="M7.7 7.7q-1.3.9-2.7.9-1.8 0-2.8-1.1"/></g></defs></svg>