<svg xmlns:xlink="http://www.w3.org/1999/xlink" height="99.2" width="82.2" xmlns="http://www.w3.org/2000/svg"><use height="9.9" transform="translate(33.3 71.45)" width="9.85" xlink:href="#a"/><defs><g id="a"><path d="M12.15 29.65q0 2-1.45 3.5-1.45 1.45-3.5 1.45-2 0-3.45-1.45-1.45-1.5-1.45-3.5 0-2.05 1.45-3.45 1.45-1.5 3.45-1.5 2.05 0 3.5 1.5 1.45 1.4 1.45 3.45" fill-rule="evenodd" transform="translate(-2.3 -24.7)"/><path d="m10.8 27.05-6.9 5.4" fill="none" stroke="#000" stroke-linecap="round" stroke-linejoin="round" transform="translate(-2.3 -24.7)"/><path d="m10.3 32.4-.15.2Q8.9 33.75 7.2 33.75q-1.7 0-2.85-1.15l-.25-.3 3.25-2.55-3.2-2.8.2-.2q1.15-1.2 2.85-1.15 1.7-.05 2.95 1.15l.45.5-3.25 2.5 2.95 2.65" fill="#009700" fill-rule="evenodd" transform="translate(-2.3 -24.7)"/><path d="M10.6 27.25q.75 1 .75 2.4 0 1.55-1.05 2.75l-2.95-2.65 3.25-2.5M4.1 32.3q-.95-1.15-.95-2.65 0-1.6 1-2.7l3.2 2.8L4.1 32.3" fill-rule="evenodd" transform="translate(-2.3 -24.7)"/><path d="m10.6 27.25-3.25 2.5 2.95 2.65m-6.15-5.45 3.2 2.8L4.1 32.3" fill="none" stroke="#ff0" stroke-linecap="round" stroke-linejoin="round" transform="translate(-2.3 -24.7)"/><path d="M4.5 27.15q1.3-.9 2.7-.9 1.8 0 2.8 1.1" fill="none" stroke="#fff" stroke-linecap="round" stroke-linejoin="round" stroke-opacity=".6" transform="translate(-2.3 -24.7)"/><path d="M10 32.4q-1.3.9-2.7.9-1.8 0-2.8-1.1" fill="none" stroke="#000" stroke-linecap="round" stroke-linejoin="round" stroke-opacity=".302" transform="translate(-2.3 -24.7)"/></g></defs></svg>