<svg xmlns="http://www.w3.org/2000/svg" xmlns:xlink="http://www.w3.org/1999/xlink" width="82.2" height="99.2"><g transform="translate(31 46.75)"><use xlink:href="#a" width="3.4" height="3.55" transform="matrix(1.2908 0 0 1.0704 -2.15 25.2)"/><use xlink:href="#a" width="3.4" height="3.55" transform="translate(12.4 19.75)"/><use xlink:href="#a" width="3.4" height="3.55" transform="translate(7.95 22.25)"/><use xlink:href="#a" width="3.4" height="3.55" transform="translate(3.35 24.5)"/><use xlink:href="#a" width="3.4" height="3.55" transform="translate(-6.8 24.7)"/><use xlink:href="#a" width="3.4" height="3.55" transform="translate(-11.55 22.45)"/><use xlink:href="#a" width="3.4" height="3.55" transform="translate(-16.05 19.75)"/><use xlink:href="#b" width="17.3" height="17.4" transform="translate(-.25 21.35)"/><use xlink:href="#b" width="17.3" height="17.4" transform="matrix(-1 0 0 1 .05 21.35)"/></g><defs><g id="e" fill-rule="evenodd"><path fill="#333" d="M3.4 1.8Q3.4 0 1.7 0T0 1.8q0 1.75 1.7 1.75T3.4 1.8"/><path fill="#ff3d2b" d="M3.1 1.6Q3.1.25 1.75.25T.4 1.6q0 1.35 1.35 1.35T3.1 1.6"/><path fill="#892116" d="M2.8.75Q1.9 3.15.55 1.8q.7 1.6 1.85.75.6-.35.55-1.1L2.8.75"/><path fill="#fcfeff" d="M2.55.65 1.75.4Q.9.4.65 1.5q.85-1 1.9-.85"/></g><g id="b" transform="translate(-17.05)"><use xlink:href="#c" width="17.3" height="17.4" transform="translate(17.05)"/><use xlink:href="#d" width="3.9" height="8.9" transform="translate(17.4 8)"/><use xlink:href="#d" width="3.9" height="8.9" transform="rotate(-8.307 61.76 -135.067) scale(.9149)"/><use xlink:href="#d" width="3.9" height="8.9" transform="matrix(.9006 -.1609 .1609 .9006 22.8 6.45)"/><use xlink:href="#d" width="3.9" height="8.9" transform="matrix(.8027 -.1722 .1722 .8027 25.6 5.4)"/><use xlink:href="#d" width="3.9" height="8.9" transform="matrix(.6843 -.1501 .1572 .7165 28 4.25)"/></g><g id="c" fill-rule="evenodd"><path fill="#333" d="M15.65 5.6q2.35 2.05.9 3.25-.95.7-1.55-.3.5 1.1-.5 1.65-1.9.95-2.05-2.45l-.6-.6q-.55-.25-.15 1.45 2.5 2.6 1.05 3.7-2.55 1.2-2.4-2.65L9.6 8.8q-.7-.5-.3 1.25 2.55 3.35.75 4.05Q8.5 15 8 13.7q.25 1.25-.85 1.7-2.55.9-2.1-3.5l-.7-.95q-.75-.5-.8 1.6 2.25 3.4 0 4.8-3.5.4-1.75-4.5L.75 11.5l-.45-.4v-4Q7.1 6.75 16.6 0l.5 3.3q.9 4.15-1.85 1l.4 1.3m-1.35.95L13.8 6q-.4-.25-.05.95l1.1 1.3q-.35-.6-.55-1.7m-7.25 3.4q-.65-.5-.45 1.2l1.25 2.1q-.2-.9-.1-2.45l-.7-.85"/><path fill="#ffff1c" d="M16.75 3Q8.4 9.6.05 10.3V7.8Q11.2 5.9 16.6 1.05L16.75 3"/><path fill="#00a0fa" d="m16.45.4.2.7Q10.25 6.1.1 8.5L0 8.45v-.9Q6.45 7.4 16.45.4"/><path fill="#ffff1c" d="M16.7 2.75q1.5 4.7-1.75.95l1.75-.95m-1.65 1.3q1.5 4.75-1.75.95l1.75-.95"/><path fill="#ffff1c" d="m15.25 5.7 1 .95q.85 1.05.35 1.8-1.7 1.05-2-2.45l.65-.3"/><path fill="#34f13f" d="m16.8 2.95-1.35.8-.4-1.05 1.4-1.1q.4.25.35 1.35m-2-.05.45.95L13.8 4.9l-.6-1.05 1.6-.95"/><path fill="#b69f17" d="M16.55 3.6q.5 2.05-.7.35l.7-.35m-1.6 1.1q.4 2.15-.85.5l.85-.5"/><path fill="#00a0fa" d="m15.4 6.3.7.8q.65.85.35 1.2-1.05.5-1.05-2"/><path fill="#1d8723" d="m15.75 2.2.7-.55L16.8 3l-1.25.7-.1.05q1.05-.9.3-1.55m-.95.75.4.8-1.15 1.05q.7-.75 0-1.4l.75-.45"/><path fill="#fff" d="m15.75 2.35-.2 1.1q-.35-.5-.1-.85l.3-.25m-1.8 1.2-.05 1.1q-.55-.5-.3-.85l.35-.25"/><path fill="#6d5b06" d="m16.2 3.85.35-.1q.25.85 0 .85-.1-.7-.35-.75M14.25 5.3l.65-.4.1-.05q.1 1.45-.35.85.25-.5-.4-.4"/><path fill="#005ad2" d="M15.4 6.35q1.7 1.9.6 1.8l-.6-1.8"/><path fill="#fff" d="M16.3 8.25q-.6.25-.8-1.35.15.85.7 1.15.3.1.1.2"/></g><g id="f" fill-rule="evenodd"><path fill="#ffff1c" d="M3.2 1.55q.9 7.7-3.15.8l3.15-.8"/><path fill="#ffff1c" d="M2.8 4.45q2.05 3.15.35 4.4-2.75.6-1.4-4.3l1.05-.1"/><path fill="#34f13f" d="m2.95 0 .3 1.6-2.85.5L0 .8Q2.2.5 2.95 0"/><path fill="#b69f17" d="M2.8 2.05q.25 4.7-2.05.3l2.05-.3"/><path fill="#00a0fa" d="M2.45 5q1.95 3 .7 3.55Q1 8.6 2.45 5"/><path fill="#1d8723" d="m3 .1.2 1.45L.85 2Q2.1 1.35 1.2.6L3 .1"/><path fill="#fff" d="M1.1.7.5 1.9Q.15 1.1.6.8l.5-.1"/><path fill="#6d5b06" d="M1.95 3.5q.5-1-1-1.05l1.75-.2-.75 1.25"/><path fill="#005ad2" d="M2.4 5.05q2.1 3.75.3 3.25l-.3-3.25"/><path fill="#fff" d="M2.4 5.55q-.45 2.6.85 2.75-1.2.4-1.15-1.3l.3-1.45"/></g><use xlink:href="#e" id="a" width="3.4" height="3.55"/><use xlink:href="#f" id="d" width="3.9" height="8.9"/></defs></svg>