<svg xmlns="http://www.w3.org/2000/svg" xmlns:xlink="http://www.w3.org/1999/xlink" width="82.2" height="99.2"><use xlink:href="#a" width="33.9" height="18.9" transform="translate(13.05 66)"/><defs><g id="a" fill-rule="evenodd"><path fill="#533a2d" d="M32.25 1.7q-1.7 2.55-4.95 4.65Q22.6 9.4 17.1 9.4q-5.55 0-10-3.05-3.05-2.1-4.55-4.6L3 .25 6.55 4.2q4.7 3.95 10.5 3.95 5.85 0 11.05-4.05 2.6-2.05 4-4.1.5 1.25.15 1.7"/><path fill="#b69a65" d="M24.9 7.1v-.45q4-1.95 6.9-5.3Q29.2 5 24.9 7.1M8.85 6.35v.4q-2.95-1.7-5-4.45 2.1 2.4 5 4.05"/><path fill="#d9c288" d="M24.9 6.65v.45Q20.9 9 17.1 9q-4.3 0-8.25-2.25v-.4q3.85 2.2 8.2 2.2 4.05 0 7.85-1.9"/><path fill="#626265" d="M2.15 4.85 5.8 8.3 3.45 9.35q-2.2 1.4-1.75 2.95Q-.85 10.05.4 7.25l1.75-2.4"/><path fill="#fff" d="M2.95 6.4v.15q-1.2 1.5-2.1 3.6l-.3-1.2.05-.55q.25-1.3 1.55-2.75l.8.75"/><path fill="#ded9d9" d="M2.95 6.55V6.4l1.8 1.65Q2 9.25 1.3 10.9l-.45-.75q.9-2.1 2.1-3.6"/><path fill="#533a2d" d="m6.6 7.4-.8 1L2 4.9 3 4q2.75.95 3.6 3.4"/><path fill="#b69a65" d="m2.85 4.9.2-.2q1.9.8 2.9 2.6l-.2.25-2.9-2.65"/><path fill="#626265" d="m7.45 9.1 4.75 2.3-2 1.85q-1.8 2.1-.85 3.45-3.3-1.45-2.9-4.65l1-2.95"/><path fill="#fff" d="m7.7 9.9 1.45.65q-1 2.35-1.3 4.3l-.7-1.1-.15-1.3q.05-1.25.7-2.55"/><path fill="#ded9d9" d="m9.15 10.55 1.95.95q-2.45 2.2-2.6 3.95l-.65-.6q.3-1.95 1.3-4.3"/><path fill="#533a2d" d="M7.2 9.05 7.85 8l2.65.55q1.45.7 2.3 1.85l-.55 1.1L7.2 9.05"/><path fill="#b69a65" d="m8.05 8.8.15-.2q.95 0 2.05.5 1.15.6 1.85 1.4l-.15.2-3.9-1.9"/><path fill="#626265" d="m31.85 5.45 1.7 2.45q1.2 2.85-1.45 5.05.8-2.45-4-4.15l3.75-3.35"/><path fill="#ded9d9" d="M30.75 9.55q-.4-.95-.4-1.95l1.5-1.3q1.2 1.35 1.45 2.8l.05.55q-.05.95-.85 1.95-.35-1.05-1.75-2.05"/><path fill="#fff" d="M30.75 9.55 29.2 8.6l1.15-1q0 1 .4 1.95"/><path fill="#533a2d" d="m31.1 4.6.95.9-3.9 3.4-.8-1.05.8-1.3q1.15-1.4 2.95-1.95"/><path fill="#b69a65" d="M28.05 7.8Q28.8 6.15 31 5.3l.15.2-2.95 2.55-.15-.25"/><path fill="#626265" d="m26.3 9.3 1.05 2.95q.35 3.2-2.95 4.65 1.55-2.25-2.85-5.3l4.75-2.3"/><path fill="#ded9d9" d="m25.45 15.5-.25-.35-.7-1.45q-.45-1.35.1-2.9l1.45-.75.75 2.55-.15 1.35-1.2 1.55"/><path fill="#fff" d="M24.6 10.8q-.55 1.55-.1 2.9l-1.85-2 1.95-.9"/><path fill="#533a2d" d="m26.6 9.25-5 2.45-.55-1.1 2.3-1.85q1.45-.65 2.6-.55l.65 1.05"/><path fill="#b69a65" d="m23.55 9.3 2.1-.55.15.25-3.95 1.9-.1-.2q.8-.95 1.8-1.4"/><path fill="#626265" d="m14.05 12 5.6.15-3.1 6.75-2.5-6.9"/><path fill="#fff" d="m16.6 12.65.35 3.95-.35.75-1.7-4.75 1.7.05"/><path fill="#ded9d9" d="m16.95 16.6-.35-3.95 2.15.1-1.8 3.85"/><path fill="#533a2d" d="M19.75 10.65v1.5L13.8 12l.1-1.55 3.05-.5q1.5 0 2.8.7"/><path fill="#b69a65" d="M19.15 11.05v.5l-4.7-.15v-.5l2.5-.4q1.35.05 2.2.55"/></g></defs></svg>