<svg xmlns="http://www.w3.org/2000/svg" xmlns:xlink="http://www.w3.org/1999/xlink" width="58.25" height="57.35"><use xlink:href="#a" width="65.6" height="64.5" transform="translate(-7.35 -7.15)"/><defs><use xlink:href="#b" id="a" width="58.25" height="57.35" transform="translate(7.35 7.15)"/><use xlink:href="#c" id="b" width="58.25" height="57.35"/><path id="c" fill="#f39" fill-rule="evenodd" d="m43.65 3.45.45 7.4 7.35-.9-2.15 7.1 7.15 1.65-4.4 5.95 6.2 4.05-6.2 4 4.4 5.95-7.15 1.65 2.15 7.1-7.35-.9-.45 7.4-6.6-3.35-2.85 6.8-5.1-5.4-5.05 5.4-2.9-6.8-6.6 3.35-.4-7.4-7.35.9 2.15-7.1-7.2-1.65L6.2 32.7l-6.2-4 6.2-4.05-4.45-5.95 7.2-1.65-2.15-7.1 7.35.9.4-7.4 6.6 3.35 2.9-6.8 5.05 5.35L34.2 0l2.85 6.8 6.6-3.35"/></defs></svg>