<svg xmlns="http://www.w3.org/2000/svg" xmlns:xlink="http://www.w3.org/1999/xlink" width="18" height="18"><g transform="translate(-1.45 1.65)"><use xlink:href="#a" width="50" height="50" transform="matrix(.36 0 0 .36 1.45 -1.65)"/><use xlink:href="#b" width="8.65" height="17.95" transform="translate(10.8 -1.65)"/><use xlink:href="#c" width="9.55" height="8.8" transform="translate(5.9 3.35)"/><use xlink:href="#d" width="9.55" height="8.8" transform="translate(5.9 3.35)"/></g><defs><path id="g" fill="#fff" fill-rule="evenodd" d="M25 0q0 10.3-7.3 17.65Q10.35 25 0 25t-17.65-7.35Q-25 10.3-25 0q0-10.35 7.35-17.7Q-10.35-25.05 0-25q10.35-.05 17.7 7.3Q25-10.35 25 0" transform="translate(25 25)"/><path id="h" fill="url(#e)" fill-rule="evenodd" d="M0 0q3.6.15 6.15 2.75 2.5 2.6 2.5 6.25t-2.5 6.25Q3.6 17.85 0 17.95V0"/><path id="i" fill="#f30" fill-rule="evenodd" d="M4.75 5.3 7.3 0q2.25 1.4 2.25 4 0 2-1.4 3.4t-3.4 1.4Q2.8 8.8 1.4 7.4 0 6 0 4q0-2.6 2.25-4l2.5 5.3"/><path id="j" fill="url(#f)" fill-rule="evenodd" d="M4.75 5.3 7.3 0q2.25 1.4 2.25 4 0 2-1.4 3.4t-3.4 1.4Q2.8 8.8 1.4 7.4 0 6 0 4q0-2.6 2.25-4l2.5 5.3"/><use xlink:href="#g" id="a" width="50" height="50"/><use xlink:href="#h" id="b" width="8.65" height="17.95"/><use xlink:href="#i" id="c" width="9.55" height="8.8"/><use xlink:href="#j" id="d" width="9.55" height="8.8"/><linearGradient id="e" x1="-819.2" x2="819.2" gradientTransform="matrix(.0053 0 0 .011 4.3 8.95)" gradientUnits="userSpaceOnUse" spreadMethod="pad"><stop offset="0" stop-color="#f96"/><stop offset="1" stop-color="#f96" stop-opacity="0"/></linearGradient><linearGradient id="f" x1="-819.2" x2="819.2" gradientTransform="matrix(.0058 0 0 .0054 4.75 4.4)" gradientUnits="userSpaceOnUse" spreadMethod="pad"><stop offset="0" stop-color="#f96"/><stop offset="1" stop-color="#f96" stop-opacity="0"/></linearGradient></defs></svg>