<svg xmlns="http://www.w3.org/2000/svg" xmlns:xlink="http://www.w3.org/1999/xlink" width="19.85" height="15"><g transform="translate(9.45 8.2)"><use xlink:href="#a" width="19.85" height="15.15" style="display:inline" transform="translate(-9.45 -8.2)"/><use xlink:href="#b" width="17.85" height="13.15" transform="translate(-8.45 -7.2)"/></g><defs><path id="d" fill="#fb6a00" fill-rule="evenodd" d="M-8.15-4.7Q-5.25-7.6 0-7.6q4 0 6.85 1.85 3.1 2 3.1 4.9 0 2.95-3.1 4.95Q4 5.95 0 5.95q-2.05 0-3.95-.6L-7.7 7.4l-1.2-.15-.3-.7.15-.45 1.35-2.7Q-9.9 1.5-9.9-.85q0-2.1 1.75-3.85" transform="translate(9.9 7.6)"/><path id="e" fill="url(#c)" fill-rule="evenodd" d="M0-6.6q3.7 0 6.35 1.7 2.6 1.7 2.6 4.05 0 2.4-2.6 4.1Q3.7 4.95 0 4.95l-4.1-.65-4.1 2.25 1.75-3.4q-2.45-1.7-2.45-4 0-2.35 2.6-4.05Q-3.65-6.6 0-6.6" transform="translate(8.9 6.6)"/><use xlink:href="#d" id="a" width="19.85" height="15.15" x="0" y="0"/><use xlink:href="#e" id="b" width="17.85" height="13.15" x="0" y="0"/><linearGradient id="c" x1="-819.2" x2="819.2" gradientTransform="matrix(-.0054 -.0094 .007 -.004 .05 0)" gradientUnits="userSpaceOnUse" spreadMethod="pad"><stop offset="0" stop-color="#ffc7a2"/><stop offset="1" stop-color="#fff"/></linearGradient></defs></svg>