<?xml version="1.0" encoding="UTF-8" standalone="no"?>
<svg xmlns:xlink="http://www.w3.org/1999/xlink" height="48.25px" width="48.8px" xmlns="http://www.w3.org/2000/svg">
  <g transform="matrix(1.0, 0.0, 0.0, 1.0, 0.5, -4.5)">
    <path d="M47.6 14.55 Q47.95 15.0 47.9 15.6 L47.9 15.85 Q46.95 23.5 44.2 26.8 41.4 30.15 36.25 31.6 L31.1 32.9 30.9 33.05 29.65 33.85 Q29.65 35.15 27.9 36.1 L27.45 36.3 27.0 36.5 27.1 37.95 27.1 38.8 Q28.45 39.4 29.6 40.55 30.65 41.6 31.3 42.55 33.8 43.7 33.8 45.4 L33.75 46.0 33.75 47.8 33.85 48.45 Q33.85 49.9 31.95 51.0 L31.85 51.05 31.6 51.2 30.9 51.5 29.7 51.95 29.4 52.05 28.85 52.2 23.85 52.75 19.3 52.3 18.55 52.1 16.8 51.5 16.3 51.25 16.2 51.2 15.45 50.8 Q13.9 49.75 13.95 48.45 L13.95 48.35 13.95 45.15 Q14.15 43.65 16.3 42.6 L17.9 40.65 Q18.95 39.5 20.3 38.85 L20.3 38.8 20.3 37.95 20.4 36.45 19.55 36.1 Q17.8 35.15 17.8 33.85 L17.8 33.7 17.7 33.65 11.75 32.2 Q6.55 30.75 3.75 27.4 0.95 24.0 0.1 16.2 L0.1 16.05 Q0.05 15.6 0.4 15.2 0.75 14.7 1.35 14.55 L7.95 14.25 8.45 13.05 Q9.55 11.15 12.45 9.7 17.2 7.25 23.9 7.25 30.55 7.25 35.25 9.7 38.2 11.15 39.3 13.05 L39.65 13.75 46.65 14.0 Q47.25 14.1 47.6 14.55 M9.6 23.8 L9.6 23.75 9.55 23.65 9.5 23.55 9.25 23.05 Q7.8 19.95 7.8 17.65 L7.8 17.4 3.75 17.25 Q4.5 22.95 6.55 25.6 8.8 28.2 12.85 29.35 L13.25 29.45 12.9 29.1 12.65 28.7 12.5 28.5 9.9 24.35 9.6 23.8 M41.45 25.0 Q43.5 22.35 44.3 16.65 L39.8 16.85 39.75 17.05 39.75 17.1 39.75 17.45 39.75 17.65 Q39.75 20.2 38.1 23.7 L37.6 24.65 37.55 24.75 37.15 25.45 36.3 26.85 35.65 27.9 35.4 28.3 35.3 28.45 35.25 28.5 35.1 28.75 35.05 28.75 35.15 28.75 Q39.2 27.6 41.45 25.0" fill="#446c9c" fill-rule="evenodd" stroke="none"/>
    <path d="M29.25 42.6 L29.2 42.85 29.25 43.2 Q30.0 46.05 29.95 49.05 L29.95 49.6 29.6 49.7 29.3 49.8 28.75 49.95 23.75 50.5 19.2 50.05 19.2 49.8 19.2 43.8 19.25 43.1 19.25 42.35 23.75 41.9 28.55 42.45 28.55 42.4 29.25 42.6 M31.85 48.75 L31.85 48.6 31.5 43.85 31.45 42.9 33.65 42.9 33.65 45.55 33.75 46.2 Q33.75 47.65 31.85 48.75 M15.65 42.9 L15.55 44.2 15.5 46.65 15.35 48.55 Q13.8 47.5 13.85 46.2 L13.85 46.1 13.85 42.9 15.65 42.9" fill="#c29b16" fill-rule="evenodd" stroke="none"/>
    <path d="M29.6 49.7 L29.95 49.6 29.95 49.05 Q30.0 46.05 29.25 43.2 L29.2 42.85 29.25 42.6 29.3 42.6 30.0 42.85 30.1 42.9 31.45 42.9 31.5 43.85 31.85 48.6 31.85 48.75 31.75 48.8 31.5 48.95 30.8 49.25 29.6 49.7" fill="#e8b619" fill-rule="evenodd" stroke="none"/>
    <path d="M19.25 42.35 L19.25 43.1 19.2 43.8 19.2 49.8 19.2 50.05 18.45 49.85 16.7 49.25 16.2 49.0 16.1 48.95 15.35 48.55 15.5 46.65 15.55 44.2 15.65 42.9 17.4 42.9 18.4 42.55 19.25 42.35" fill="#ad7e15" fill-rule="evenodd" stroke="none"/>
    <path d="M26.6 39.0 Q28.95 39.3 30.8 40.1 33.7 41.35 33.7 43.15 33.7 44.95 30.8 46.2 27.9 47.45 23.8 47.45 19.65 47.45 16.7 46.2 14.25 45.15 13.9 43.65 L18.65 45.3 Q21.4 46.45 24.4 46.2 L25.7 45.7 26.45 44.95 Q27.45 43.85 27.9 42.4 28.3 41.0 27.4 39.85 L26.6 39.0" fill="#f1cf81" fill-rule="evenodd" stroke="none"/>
    <path d="M26.6 39.0 L27.4 39.85 Q28.3 41.0 27.9 42.4 27.45 43.85 26.45 44.95 L25.7 45.7 24.4 46.2 Q21.4 46.45 18.65 45.3 L13.9 43.65 Q13.8 43.4 13.85 43.15 L13.85 43.1 Q13.85 41.3 16.7 40.1 19.65 38.85 23.8 38.85 L25.5 38.9 26.6 39.0" fill="#d9b25b" fill-rule="evenodd" stroke="none"/>
    <path d="M23.6 35.85 L24.55 35.9 24.6 35.9 24.8 35.9 25.05 35.95 25.25 36.0 25.4 36.0 25.7 36.1 25.8 36.1 Q23.85 37.4 24.15 39.85 24.5 42.85 26.4 45.15 L27.15 45.9 26.3 46.05 26.1 46.05 25.45 46.15 25.4 46.15 25.1 46.15 24.95 46.15 24.55 46.2 23.75 46.2 20.05 45.85 20.05 44.1 Q19.8 41.85 20.7 39.9 L21.8 37.6 Q22.35 36.4 23.6 35.85 M16.75 44.5 Q15.45 43.55 15.45 42.4 15.45 40.85 17.8 38.4 19.25 36.85 21.15 36.25 19.0 37.8 18.05 40.35 16.8 42.2 16.75 44.5" fill="#c29b16" fill-rule="evenodd" stroke="none"/>
    <path d="M25.8 36.1 L26.65 36.4 Q28.2 37.0 29.5 38.3 32.0 40.85 32.0 42.4 32.0 43.5 30.9 44.35 L30.1 44.85 29.6 45.1 28.8 45.45 28.0 45.7 27.95 45.7 27.8 45.75 27.15 45.9 26.4 45.15 Q24.5 42.85 24.15 39.85 23.85 37.4 25.8 36.1 M27.15 38.0 L26.7 38.15 Q26.5 38.2 26.3 38.4 25.4 39.45 26.15 40.75 27.05 42.3 28.8 43.05 29.55 43.35 29.95 42.8 30.3 42.35 30.15 41.85 L29.3 39.55 Q28.6 38.2 27.15 38.0" fill="#e6ad2b" fill-rule="evenodd" stroke="none"/>
    <path d="M20.05 45.85 L18.95 45.55 18.2 45.25 18.15 45.25 17.9 45.1 16.75 44.5 Q16.8 42.2 18.05 40.35 19.0 37.8 21.15 36.25 L22.0 36.0 22.2 36.0 22.45 35.95 22.35 35.95 22.5 35.95 22.55 35.95 23.5 35.85 23.6 35.85 Q22.35 36.4 21.8 37.6 L20.7 39.9 Q19.8 41.85 20.05 44.1 L20.05 45.85" fill="#ad7e15" fill-rule="evenodd" stroke="none"/>
    <path d="M27.25 39.0 Q28.9 39.3 28.6 40.9 L28.25 41.2 Q27.1 41.2 26.7 40.05 26.4 39.3 27.2 39.0 L27.25 39.0" fill="#ffffff" fill-rule="evenodd" stroke="none"/>
    <path d="M27.15 38.0 Q28.6 38.2 29.3 39.55 L30.15 41.85 Q30.3 42.35 29.95 42.8 29.55 43.35 28.8 43.05 27.05 42.3 26.15 40.75 25.4 39.45 26.3 38.4 26.5 38.2 26.7 38.15 L27.15 38.0 M27.25 39.0 L27.2 39.0 Q26.4 39.3 26.7 40.05 27.1 41.2 28.25 41.2 L28.6 40.9 Q28.9 39.3 27.25 39.0" fill="#f1c998" fill-rule="evenodd" stroke="none"/>
    <path d="M25.35 30.5 L25.8 31.1 25.8 31.15 25.35 30.5" fill="#c48011" fill-rule="evenodd" stroke="none"/>
    <path d="M25.8 31.1 L26.0 31.45 Q27.0 33.2 27.0 35.7 L27.0 36.55 26.9 37.4 26.95 37.75 26.65 38.5 26.4 38.75 Q26.4 36.05 25.95 33.45 25.75 32.35 25.85 31.35 L25.8 31.15 25.8 31.1 M24.65 39.45 L24.5 39.5 24.35 39.5 23.6 39.55 21.25 39.05 Q20.3 38.5 20.3 37.75 L20.35 37.45 20.2 36.55 20.2 35.7 Q20.2 33.2 21.2 31.45 22.15 29.7 23.6 29.7 L24.35 29.8 24.6 29.95 24.65 31.75 24.7 37.75 24.65 39.45" fill="#a77a14" fill-rule="evenodd" stroke="none"/>
    <path d="M24.6 29.95 L24.85 30.05 25.35 30.5 25.8 31.15 25.85 31.35 Q25.75 32.35 25.95 33.45 26.4 36.05 26.4 38.75 L26.15 38.9 25.95 39.05 25.85 39.1 24.65 39.45 24.7 37.75 24.65 31.75 24.6 29.95" fill="#bd8b17" fill-rule="evenodd" stroke="none"/>
    <path d="M35.05 26.5 Q39.1 25.35 41.35 22.75 43.4 20.1 44.2 14.4 39.2 13.75 34.95 16.8 L29.6 27.85 35.05 26.5 M47.8 13.6 Q46.85 21.25 44.1 24.55 41.3 27.9 36.15 29.35 L28.85 31.0 26.05 30.9 Q25.45 30.6 25.25 30.05 25.0 29.5 25.25 28.95 L32.0 15.3 Q32.1 14.95 32.4 14.75 34.8 12.95 37.35 12.1 41.7 10.55 46.55 11.75 L47.5 12.3 Q47.85 12.75 47.8 13.35 L47.8 13.6 M8.25 12.1 Q12.0 12.8 15.4 15.35 L15.85 15.9 22.55 29.55 22.6 30.65 21.75 31.5 19.0 31.6 11.65 29.95 Q6.45 28.5 3.65 25.15 0.85 21.75 0.0 13.95 L0.0 13.8 Q-0.05 13.35 0.3 12.95 0.65 12.45 1.25 12.3 L8.25 12.1 M12.75 27.1 L18.25 28.45 12.85 17.45 Q8.55 14.35 3.65 15.0 4.4 20.7 6.45 23.35 8.7 25.95 12.75 27.1" fill="#e8b02f" fill-rule="evenodd" stroke="none"/>
    <path d="M37.35 12.1 Q41.7 10.55 46.55 11.75 L47.5 12.3 Q47.85 12.75 47.8 13.35 L47.8 13.6" fill="none" stroke="#ffffff" stroke-linecap="round" stroke-linejoin="round" stroke-width="1.0"/>
    <path d="M8.25 12.1 L1.25 12.3 Q0.65 12.45 0.3 12.95 -0.05 13.35 0.0 13.8" fill="none" stroke="#ffffff" stroke-linecap="round" stroke-linejoin="round" stroke-width="1.0"/>
    <path d="M27.35 34.05 Q28.7 31.75 27.25 29.5 L26.95 28.95 24.9 28.5 25.5 30.7 Q25.8 32.45 24.9 33.95 L24.55 34.75 23.65 34.75 Q21.15 34.75 19.45 33.85 17.7 32.9 17.7 31.6 17.7 30.25 19.45 29.35 21.15 28.4 23.65 28.4 26.1 28.4 27.8 29.35 29.55 30.25 29.55 31.6 29.55 32.9 27.8 33.85 L27.35 34.05" fill="#fca514" fill-rule="evenodd" stroke="none"/>
    <path d="M24.55 34.75 L24.9 33.95 Q25.8 32.45 25.5 30.7 L24.9 28.5 26.95 28.95 27.25 29.5 Q28.7 31.75 27.35 34.05 L26.9 34.25 25.95 34.5 25.75 34.55 25.6 34.6 24.95 34.7 24.55 34.75" fill="#f4d095" fill-rule="evenodd" stroke="none"/>
    <path d="M9.6 21.65 L9.75 21.75 9.8 21.75 9.75 21.8 9.6 21.65" fill="#e8b02f" fill-rule="evenodd" stroke="none"/>
    <path d="M37.45 22.5 L37.4 22.45 37.2 22.65 37.4 22.45 37.5 22.4 37.45 22.5 M9.5 21.55 L9.6 21.65 9.75 21.8 9.85 22.25 9.8 22.1 9.5 21.55" fill="#f1c987" fill-rule="evenodd" stroke="none"/>
    <path d="M10.4 23.1 L10.75 23.65 11.7 23.7 13.2 24.4 13.25 24.45 14.1 25.1 Q14.75 25.7 15.55 26.0 18.9 27.95 23.0 27.95 L23.6 27.95 Q26.6 28.2 29.05 26.75 31.85 27.55 33.0 25.1 34.3 24.25 35.8 23.85 L36.9 23.45 37.05 23.2 36.2 24.6 Q32.65 27.65 27.95 28.55 L22.3 29.2 21.65 29.25 Q17.05 29.7 13.4 26.95 L12.2 25.9 10.4 23.1" fill="#7c4a0e" fill-rule="evenodd" stroke="none"/>
    <path d="M12.2 25.9 L13.4 26.95 Q17.05 29.7 21.65 29.25 L22.3 29.2 27.95 28.55 Q32.65 27.65 36.2 24.6 L35.55 25.65 35.3 26.05 35.2 26.2 35.15 26.25 35.0 26.5 34.8 26.8 33.8 28.05 30.8 30.8 Q27.7 32.95 24.0 33.1 20.15 33.2 16.9 30.95 L16.85 30.95 16.05 30.35 15.55 29.75 15.5 29.75 12.8 26.85 12.55 26.45 12.4 26.25 12.2 25.9" fill="#c76f18" fill-rule="evenodd" stroke="none"/>
    <path d="M37.05 23.2 L36.9 23.45 35.8 23.85 Q34.3 24.25 33.0 25.1 31.85 27.55 29.05 26.75 26.6 28.2 23.6 27.95 L23.0 27.95 Q18.9 27.95 15.55 26.0 14.75 25.7 14.1 25.1 L13.25 24.45 13.2 24.4 11.7 23.7 10.75 23.65 10.4 23.1 9.85 22.25 9.75 21.8 9.8 21.75 9.75 21.75 9.6 21.65 9.5 21.55 9.5 21.5 9.45 21.4 9.4 21.3 9.15 20.8 Q7.7 17.7 7.7 15.4 7.65 11.1 12.35 8.15 17.05 5.15 23.7 5.15 30.3 5.15 35.0 8.15 39.65 11.1 39.65 15.4 39.65 17.95 38.0 21.45 L37.5 22.4 37.4 22.45 37.2 22.65 37.4 22.45 37.45 22.5 37.05 23.2" fill="url(#gradient0)" fill-rule="evenodd" stroke="none"/>
    <path d="M35.15 19.15 Q30.45 21.55 23.8 21.6 17.1 21.55 12.35 19.15 7.65 16.75 7.7 13.3 7.65 9.8 12.35 7.45 17.1 5.0 23.8 5.0 30.45 5.0 35.15 7.45 39.9 9.8 39.9 13.3 39.9 16.75 35.15 19.15" fill="url(#gradient1)" fill-rule="evenodd" stroke="none"/>
    <path d="M29.85 27.65 Q29.4 28.95 27.55 29.8 25.75 30.55 23.55 30.6 21.35 30.55 19.6 29.8 17.7 28.95 17.3 27.65 16.8 26.1 18.5 24.85 20.4 23.45 23.55 23.45 26.7 23.45 28.65 24.85 30.3 26.1 29.85 27.65" fill="#ffffff" fill-rule="evenodd" stroke="none"/>
    <path d="M33.95 20.1 L34.25 19.9 34.5 19.85 35.2 20.15 35.3 20.35 35.35 21.2 34.8 21.75 34.7 21.75 Q33.5 21.9 33.6 20.8 33.65 20.35 33.95 20.1" fill="#ffffff" fill-rule="evenodd" stroke="none"/>
    <path d="M33.1 20.5 Q33.35 19.75 34.05 19.55 35.8 19.4 35.8 21.05 35.8 21.9 34.95 22.1 33.5 22.5 33.1 21.2 L33.1 20.5 M33.95 20.1 Q33.65 20.35 33.6 20.8 33.5 21.9 34.7 21.75 L34.8 21.75 35.35 21.2 35.3 20.35 35.2 20.15 34.5 19.85 34.25 19.9 33.95 20.1" fill="#f6dcb1" fill-rule="evenodd" stroke="none"/>
    <path d="M33.45 19.4 L34.25 19.0 Q35.6 18.8 36.05 19.85 L36.15 20.2 Q36.55 21.95 34.9 22.6 33.9 22.95 33.3 22.25 32.4 21.1 33.15 19.7 L33.45 19.4 M33.1 20.5 L33.1 21.2 Q33.5 22.5 34.95 22.1 35.8 21.9 35.8 21.05 35.8 19.4 34.05 19.55 33.35 19.75 33.1 20.5" fill="#f4d095" fill-rule="evenodd" stroke="none"/>
    <path d="M39.2 10.8 L39.8 12.4 39.9 13.3 Q39.9 14.3 39.5 15.2 L39.2 15.8 Q38.5 17.0 37.1 18.0 L36.5 18.4 Q35.85 18.8 35.15 19.15 33.35 20.1 31.25 20.65 L29.25 21.1 26.85 21.45 23.8 21.6 Q17.1 21.55 12.35 19.15 9.0 17.45 8.05 15.2 7.65 14.3 7.7 13.3 7.65 12.85 7.75 12.4 7.9 11.55 8.35 10.8 9.45 8.9 12.35 7.45 17.1 5.0 23.8 5.0 30.45 5.0 35.15 7.45 38.1 8.9 39.2 10.8" fill="url(#gradient2)" fill-rule="evenodd" stroke="none"/>
    <path d="M37.1 18.0 L36.5 18.4 Q35.85 18.8 35.15 19.15 33.35 20.1 31.25 20.65 M8.35 10.8 Q9.45 8.9 12.35 7.45 17.1 5.0 23.8 5.0 30.45 5.0 35.15 7.45 38.1 8.9 39.2 10.8" fill="none" stroke="#ffffff" stroke-linecap="round" stroke-linejoin="round" stroke-width="1.0"/>
    <path d="M39.5 15.2 L39.2 15.8 M26.85 21.45 L23.8 21.6 Q17.1 21.55 12.35 19.15 9.0 17.45 8.05 15.2" fill="none" stroke="#ffd955" stroke-linecap="round" stroke-linejoin="round" stroke-width="1.0"/>
    <path d="M39.2 10.8 L39.8 12.4 39.9 13.3 Q39.9 14.3 39.5 15.2 M8.05 15.2 Q7.65 14.3 7.7 13.3 7.65 12.85 7.75 12.4 7.9 11.55 8.35 10.8" fill="none" stroke="#fee2a5" stroke-linecap="round" stroke-linejoin="round" stroke-width="1.0"/>
    <path d="M39.2 15.8 Q38.5 17.0 37.1 18.0 M31.25 20.65 L29.25 21.1 26.85 21.45" fill="none" stroke="#fad687" stroke-linecap="round" stroke-linejoin="round" stroke-width="1.0"/>
  </g>
  <defs>
    <radialGradient cx="0" cy="0" gradientTransform="matrix(0.0366, 0.0, 0.0, 0.0143, 23.5, 13.15)" gradientUnits="userSpaceOnUse" id="gradient0" r="819.2" spreadMethod="pad">
      <stop offset="0.5882352941176471" stop-color="#e89711"/>
      <stop offset="1.0" stop-color="#f1c781"/>
    </radialGradient>
    <radialGradient cx="0" cy="0" gradientTransform="matrix(0.036, 0.0, 0.0, 0.0232, 23.65, 25.0)" gradientUnits="userSpaceOnUse" id="gradient1" r="819.2" spreadMethod="pad">
      <stop offset="0.0" stop-color="#5a480c"/>
      <stop offset="0.611764705882353" stop-color="#d98700"/>
      <stop offset="1.0" stop-color="#fff255"/>
    </radialGradient>
    <radialGradient cx="0" cy="0" gradientTransform="matrix(0.036, 0.0, 0.0, 0.0232, 23.65, 25.0)" gradientUnits="userSpaceOnUse" id="gradient2" r="819.2" spreadMethod="pad">
      <stop offset="0.0" stop-color="#5a480c"/>
      <stop offset="0.611764705882353" stop-color="#d98700"/>
      <stop offset="1.0" stop-color="#ffd955"/>
    </radialGradient>
  </defs>
</svg>
