<?xml version="1.0" encoding="UTF-8" standalone="no"?>
<svg xmlns:xlink="http://www.w3.org/1999/xlink" height="41.3px" width="38.4px" xmlns="http://www.w3.org/2000/svg">
  <g transform="matrix(1.0, 0.0, 0.0, 1.0, 14.7, 17.9)">
    <path d="M-11.4 1.65 L-9.9 -3.7 Q-8.65 -7.35 -6.5 -10.5 -4.55 -13.4 -1.5 -15.5 1.7 -17.75 5.55 -17.35 9.4 -16.7 12.35 -13.9 14.2 -12.15 15.35 -10.05 16.9 -6.95 18.1 -3.5 L19.85 2.85 19.9 2.85 19.85 2.9 19.85 2.85 19.7 2.7 5.4 11.2 -11.4 1.65 M-10.3 20.8 L-10.4 20.8 -10.4 20.75 -10.3 20.8" fill="#ffffff" fill-rule="evenodd" stroke="none"/>
    <path d="M-12.05 5.8 L-11.4 1.65 5.4 11.2 1.4 13.55 -12.05 5.8" fill="#990000" fill-rule="evenodd" stroke="none"/>
    <path d="M-10.35 20.75 L-10.3 20.8 -10.4 20.75 -10.35 20.75" fill="#0195d3" fill-rule="evenodd" stroke="none"/>
    <path d="M20.45 6.35 L21.8 12.7 21.85 12.85 23.2 19.5 Q7.75 24.85 -6.65 21.75 L20.25 6.5 20.3 6.45 21.3 11.3 20.4 6.4 19.7 2.7 20.45 6.35 M-10.4 20.75 L-14.2 19.5 -12.05 5.8 1.4 13.55 -10.35 20.75 -10.4 20.75" fill="#000000" fill-rule="evenodd" stroke="none"/>
    <path d="M19.85 2.9 L20.45 6.35 19.7 2.7 19.85 2.85 19.85 2.9 M-6.65 21.75 L-10.3 20.8 -10.35 20.75 1.4 13.55 5.4 11.2 19.7 2.7 20.4 6.4 20.3 6.45 20.25 6.5 -6.65 21.75" fill="#cc0000" fill-rule="evenodd" stroke="none"/>
    <path d="M20.4 6.4 L21.3 11.3 20.3 6.45 20.4 6.4" fill="#272727" fill-rule="evenodd" stroke="none"/>
    <path d="M20.3 6.45 L20.4 6.4 20.3 6.45" fill="#4886c1" fill-rule="evenodd" stroke="none"/>
    <path d="M20.3 6.45 L20.25 6.5 20.3 6.45" fill="#6699cc" fill-rule="evenodd" stroke="none"/>
    <path d="M20.45 6.35 L21.8 12.7 21.85 12.85 23.2 19.5 Q7.75 24.85 -6.65 21.75 L-10.3 20.8 M-10.4 20.75 L-14.2 19.5 -12.05 5.8 -11.4 1.65 5.4 11.2 19.7 2.7 20.45 6.35" fill="none" stroke="#990000" stroke-linecap="round" stroke-linejoin="round" stroke-width="1.0"/>
    <path d="M-11.4 1.65 L-9.9 -3.7 Q-8.65 -7.35 -6.5 -10.5 -4.55 -13.4 -1.5 -15.5 1.7 -17.75 5.55 -17.35 9.4 -16.7 12.35 -13.9 14.2 -12.15 15.35 -10.05 16.9 -6.95 18.1 -3.5 L19.85 2.85" fill="none" stroke="#000000" stroke-linecap="round" stroke-linejoin="round" stroke-width="1.0"/>
  </g>
</svg>
