<svg xmlns:xlink="http://www.w3.org/1999/xlink" height="89" width="468" xmlns="http://www.w3.org/2000/svg"><use height="70.7" transform="translate(5.145 6.123) scale(1.1089)" width="80.95" xlink:href="#a"/><use height="35.2" transform="translate(380.05 48.95)" width="86.2" xlink:href="#b"/><use height="155.45" transform="translate(96 34.55)" width="280.95" xlink:href="#text0"/><use height="35.45" transform="translate(96.6 4.65)" width="570.35" xlink:href="#text1"/><use height="31.05" transform="translate(96.6 6.65)" width="569.5" xlink:href="#text2"/><defs><linearGradient gradientTransform="matrix(.0188 0 0 .0156 39.35 45.3)" gradientUnits="userSpaceOnUse" id="p" spreadMethod="pad" x1="-819.2" x2="819.2"><stop offset="0" stop-color="#54769e"/><stop offset=".38" stop-color="#54769e"/><stop offset=".62" stop-color="#54769e"/><stop offset="1" stop-color="#54769e"/></linearGradient><linearGradient gradientTransform="rotate(134.95 6.671 13.398) scale(.0293 .0199)" gradientUnits="userSpaceOnUse" id="q" spreadMethod="pad" x1="-819.2" x2="819.2"><stop offset="0" stop-color="#54769e"/><stop offset=".38" stop-color="#54769e"/><stop offset=".62" stop-color="#54769e"/><stop offset="1" stop-color="#54769e"/></linearGradient><linearGradient gradientTransform="matrix(-.0317 0 0 -.0156 16.5 41.75)" gradientUnits="userSpaceOnUse" id="r" spreadMethod="pad" x1="-819.2" x2="819.2"><stop offset="0" stop-color="#54769e"/><stop offset=".38" stop-color="#54769e"/><stop offset=".62" stop-color="#54769e"/><stop offset="1" stop-color="#54769e"/></linearGradient><linearGradient gradientTransform="matrix(.0285 0 0 .0313 -.3 34.8)" gradientUnits="userSpaceOnUse" id="s" spreadMethod="pad" x1="-819.2" x2="819.2"><stop offset="0" stop-color="#fff" stop-opacity="0"/><stop offset=".737" stop-color="#fff" stop-opacity=".502"/></linearGradient><linearGradient gradientTransform="matrix(-.0142 0 0 -.0312 11.45 34.8)" gradientUnits="userSpaceOnUse" id="t" spreadMethod="pad" x1="-819.2" x2="819.2"><stop offset="0" stop-color="#fff" stop-opacity="0"/><stop offset=".737" stop-color="#fff" stop-opacity=".502"/></linearGradient><linearGradient gradientTransform="matrix(.018 0 0 .0387 13.75 34.65)" gradientUnits="userSpaceOnUse" id="u" spreadMethod="pad" x1="-819.2" x2="819.2"><stop offset="0" stop-color="#fff" stop-opacity="0"/><stop offset=".404" stop-color="#fff" stop-opacity=".502"/><stop offset=".733" stop-color="#fff" stop-opacity=".514"/><stop offset="1" stop-color="#fff" stop-opacity="0"/></linearGradient><linearGradient gradientTransform="matrix(-.0176 0 0 -.0385 -12.45 34.75)" gradientUnits="userSpaceOnUse" id="v" spreadMethod="pad" x1="-819.2" x2="819.2"><stop offset="0" stop-color="#fff" stop-opacity="0"/><stop offset=".404" stop-color="#fff" stop-opacity=".502"/><stop offset=".733" stop-color="#fff" stop-opacity=".514"/><stop offset="1" stop-color="#fff" stop-opacity="0"/></linearGradient><linearGradient gradientTransform="matrix(.0142 0 0 .0312 12.15 39.15)" gradientUnits="userSpaceOnUse" id="w" spreadMethod="pad" x1="-819.2" x2="819.2"><stop offset="0" stop-color="#fff" stop-opacity="0"/><stop offset=".737" stop-color="#fff" stop-opacity=".502"/></linearGradient><linearGradient gradientTransform="matrix(.0144 0 0 .0313 -9.5 35.05)" gradientUnits="userSpaceOnUse" id="x" spreadMethod="pad" x1="-819.2" x2="819.2"><stop offset="0" stop-color="#fff" stop-opacity="0"/><stop offset=".737" stop-color="#fff" stop-opacity=".502"/></linearGradient><linearGradient gradientTransform="matrix(.029 .013 .0022 -.0123 -4.35 31.2)" gradientUnits="userSpaceOnUse" id="D" spreadMethod="pad" x1="-819.2" x2="819.2"><stop offset="0" stop-color="#1c5f95"/><stop offset=".212" stop-color="#1c5f95"/><stop offset=".588" stop-color="#1c5f95"/><stop offset=".792" stop-color="#1c5f95"/><stop offset="1" stop-color="#1c5f95"/></linearGradient><linearGradient gradientTransform="matrix(.029 .013 .0022 -.0123 -.4 3.4)" gradientUnits="userSpaceOnUse" id="E" spreadMethod="pad" x1="-819.2" x2="819.2"><stop offset="0" stop-color="#1c5f95"/><stop offset=".192" stop-color="#1c5f95"/><stop offset=".565" stop-color="#1c5f95"/><stop offset=".725" stop-color="#1c5f95"/><stop offset="1" stop-color="#1c5f95"/></linearGradient><linearGradient gradientTransform="matrix(.0291 .0108 .002 -.0099 -.9 1.3)" gradientUnits="userSpaceOnUse" id="F" spreadMethod="pad" x1="-819.2" x2="819.2"><stop offset="0" stop-color="#1c5f95"/><stop offset=".192" stop-color="#1c5f95"/><stop offset=".565" stop-color="#1c5f95"/><stop offset=".725" stop-color="#1c5f95"/><stop offset="1" stop-color="#1c5f95"/></linearGradient><linearGradient gradientTransform="matrix(-.0049 -.0015 .0021 -.0069 21.45 17.35)" gradientUnits="userSpaceOnUse" id="G" spreadMethod="pad" x1="-819.2" x2="819.2"><stop offset="0" stop-color="#650120"/><stop offset="1" stop-color="#ff1171"/></linearGradient><linearGradient gradientTransform="matrix(-.0026 -.0005 .0004 -.0019 20.55 23.1)" gradientUnits="userSpaceOnUse" id="H" spreadMethod="pad" x1="-819.2" x2="819.2"><stop offset="0" stop-color="#650120"/><stop offset="1" stop-color="#ff1171"/></linearGradient><linearGradient gradientTransform="matrix(-.0021 0 0 .0021 25.1 11.75)" gradientUnits="userSpaceOnUse" id="I" spreadMethod="pad" x1="-819.2" x2="819.2"><stop offset="0" stop-color="#650120"/><stop offset="1" stop-color="#ff1171"/></linearGradient><linearGradient gradientTransform="matrix(-.0021 0 0 .0021 18.85 11.75)" gradientUnits="userSpaceOnUse" id="J" spreadMethod="pad" x1="-819.2" x2="819.2"><stop offset="0" stop-color="#650120"/><stop offset="1" stop-color="#ff1171"/></linearGradient><linearGradient gradientTransform="matrix(-.0021 0 0 .0021 12.65 11.75)" gradientUnits="userSpaceOnUse" id="K" spreadMethod="pad" x1="-819.2" x2="819.2"><stop offset="0" stop-color="#650120"/><stop offset="1" stop-color="#ff1171"/></linearGradient><use height="49.5" width="56.75" xlink:href="#c" id="o"/><use height="51.35" transform="translate(4.05 .05)" width="46.7" xlink:href="#d" id="l"/><use height="63.35" transform="translate(5.3)" width="57.65" xlink:href="#e" id="m"/><use height="64.35" transform="translate(5.3)" width="58.65" xlink:href="#f" id="n"/><use height="50" width="50" xlink:href="#g" id="y"/><use height="23.9" width="63.4" xlink:href="#h" id="z"/><use height="50" width="50" xlink:href="#i" id="A"/><use height="50" width="50" xlink:href="#j" id="B"/><g id="a" transform="translate(40.45 .25)"><use height="68.5" transform="translate(-40.45 1.95)" width="80.95" xlink:href="#k"/><use height="68.5" transform="translate(-40.45 -.25)" width="80.95" xlink:href="#k"/><use height="54.35" transform="translate(-27.8 9.1)" width="55.5" xlink:href="#l"/><use height="27.6" transform="translate(-18.3 33.9)" width="44.45" xlink:href="#sprite4"/><use height="35.1" transform="translate(-22.45 5.5)" width="44.6" xlink:href="#sprite5"/><use height="66.75" transform="translate(-34.55 2.95)" width="68.2" xlink:href="#m"/><use height="67.75" transform="matrix(1 0 0 1.0008 -35.1 2.402)" width="69.2" xlink:href="#n"/></g><g id="k" transform="translate(.3 .25)"><use height="49.5" transform="matrix(.64 0 0 .64 -.32 36.5)" width="56.75" xlink:href="#o"/><use height="49.5" transform="matrix(-.64 0 0 .64 80.67 36.55)" width="56.75" xlink:href="#o"/><use height="49.5" transform="matrix(-.512 0 0 -.512 77.306 25.85)" width="56.75" xlink:href="#o"/><use height="49.5" transform="matrix(.512 0 0 -.512 4.444 25.1)" width="56.75" xlink:href="#o"/></g><g id="c"><path d="M12.75 23.55q7.2 6.9 16.95 4.1 9.25-2.7 16-.4l.65.2q7.15 4.4 4.15 13.4.45-2.4-5.05-5.05l-2.1-.85q-5.55-2.9-13.6-.1-6.65 2.3-12.9.05-2.6-.95-4.45-2.2-3.15-4.9.35-9.15" fill="url(#p)" fill-rule="evenodd" transform="translate(.5)"/><path d="M12.4 32.7q-2.75-.6-4.1-1.8Q-3.6 20.05 9.95 9.3 20.9.5 35.35.1l4.9-.1q7.2 4.85 15.5 12.5-12.05-2.7-24-.05-11.6 2.4-19 11.1-3.5 4.25-.35 9.15" fill="url(#q)" fill-rule="evenodd" transform="translate(.5)"/><path d="m50.5 40.85-.2.5q-4.95 10.05-17.95 6.9-13-3.15-26.35.05.8-1.65 2.85-3.3 2-1.7 7.65-2.95Q9.15 39.25 0 40q7.2-2.65 13.7-1.95l21.4 2.9q9.3 1.15 8.25-6l2.1.85q5.5 2.65 5.05 5.05" fill="url(#r)" fill-rule="evenodd" transform="translate(.5)"/><path d="M55.75 12.5q-12.05-2.7-24-.05-11.6 2.4-19 11.1-3.5 4.25-.35 9.15 1.85 1.25 4.45 2.2 6.25 2.25 12.9-.05 8.05-2.8 13.6.1l2.1.85q5.5 2.65 5.05 5.05l-.2.5q-4.95 10.05-17.95 6.9-13-3.15-26.35.05m10.5-6.25Q9.15 39.25 0 40" fill="none" stroke="#54769e" stroke-linecap="round" stroke-linejoin="round" transform="translate(.5)"/></g><g id="f"><path d="m-.15 59.6.2.55.05.2v.05l-.1.05-.3.05h-.05l.35-.1-.15-.8" fill="url(#s)" fill-rule="evenodd" transform="translate(29.75 -2.45)"/><path d="m.05 60.15.05.25v-.05l-.05-.2" fill="url(#t)" fill-rule="evenodd" transform="translate(29.75 -2.45)"/><path d="M.1 60.4Q23.85 55.6 23 18.5 9.9 15.4-.15 9.25l-.1-.05-.05-.05h-.65V3.3l.65-.35Q12.2 10.6 28.5 14.5 29.6 60.75-.3 66.3v-5.8l.3-.05.1-.05" fill="url(#u)" fill-rule="evenodd" transform="translate(29.75 -2.45)"/><path d="M-.3 60.5v5.8q-6.5-1.1-11.55-4.4-5.3-3.45-8.95-9.35-8.15-13.05-8.3-38.05Q-13.8 10.1-.95 3.3v5.85q-10.4 5.8-22.7 9.35.1 23.6 9.05 34.05l2.75 2.75q4.8 4.05 11.5 5.2h.05" fill="url(#v)" fill-rule="evenodd" transform="translate(29.75 -2.45)"/><path d="m.1 60.4-.05-.25-.2-.55V9.25Q9.9 15.4 23 18.5 23.85 55.6.1 60.4" fill="url(#w)" fill-rule="evenodd" transform="translate(29.75 -2.45)"/><path d="M-.15 9.25V59.6l.15.8-.35.1q-6.7-1.15-11.5-5.2l-2.75-2.75q-8.95-10.45-9.05-34.05 12.3-3.55 22.7-9.35h.65l.05.05.1.05" fill="url(#x)" fill-rule="evenodd" transform="translate(29.75 -2.45)"/><path d="M-1.1 3.3q-12.85 6.8-28.15 11.2.15 25 8.3 38.05 3.65 5.9 8.95 9.35 5.05 3.3 11.55 4.4 29.9-5.55 28.8-51.8-16.3-3.9-28.8-11.55l-.65.35Z" fill="none" stroke="#2a5380" stroke-linecap="round" stroke-linejoin="round" transform="translate(29.75 -2.45)"/></g><g id="b" transform="translate(-3.95 -1.8)"><use height="50" transform="matrix(1.0602 .0563 -.0174 .3271 21.13 10.432)" width="50" xlink:href="#y"/><use height="50" transform="matrix(1.2621 .067 -.0207 .3894 22.963 2.31)" width="50" xlink:href="#y"/><use height="50" transform="matrix(.7029 .0373 -.0207 .3894 54.995 13.452)" width="50" xlink:href="#y"/><use height="50" transform="matrix(.65 0 0 .65 3.95 4.483)" width="50" xlink:href="#y"/><use height="23.9" transform="translate(21.657 7.434) scale(.9998)" width="63.4" xlink:href="#z"/><use height="50" transform="translate(5.06 4.96) scale(.5536)" width="50" xlink:href="#A"/><use height="50" transform="translate(3.953 1.802) scale(.5979)" width="50" xlink:href="#A"/><use height="23.9" transform="translate(21.556 6.534) scale(.9998)" width="63.4" xlink:href="#z"/><use height="50" transform="translate(5.06 2.91) scale(.5536)" width="50" xlink:href="#A"/><use height="50" transform="translate(6.439 4.289) scale(.4984)" width="50" xlink:href="#A"/><use height="50" transform="translate(7.534 5.407) scale(.4546)" width="50" xlink:href="#B"/><use height="50" transform="matrix(.396 0 0 .396 6.45 2.62)" width="50" xlink:href="#B"/><use height="14.8" transform="translate(11 10.05)" width="15.75" xlink:href="#C"/></g><g id="h" fill-rule="evenodd"><path d="M29.05-8.15h.05q.85-.15 1.6.35.7.45.95 1.3v.05q.2.85-.25 1.6-1.85 3.2-4.75 5.3L26.6.5h-.05l-.65.4 1.25 1.05h.05l.15.2Q29.95 4.9 31.4 9v-.05q.3.8 0 1.6-.35.8-1.1 1.2l-1.55.15-5.6-1.2-.2-.05-5.3-1.05h.05l-.3-.1-.4-.1q-4-1.05-8.05-2.6Q.5 3.6-3.25 3.25-4.7 3.1-6.5 3.3l-5.85 1.25-.15.05q-6.2 1.9-8.5 1.5-4.55-.65-7.75-3.5l-.15-.15-.1-.05-.2-.2-.05-.05-.45-.8-1.85-5.3v.05q-.25-.7-.1-1.35v-.05L-30.6-9q.2-.7.75-1.15v.05l1.25-.55h.05q.7 0 1.35.4h-.05Q-24-8.25-22.4-8q1.7.1 5.65-1.2l.15-.05q5.35-1.8 9.45-2.4h.05l4.05-.3q5.95 0 13.65 2.2 5.35 1.5 9.7 2.1h.2l8.55-.5" fill="#1c5f95" transform="translate(31.7 11.95)"/><path d="M20.15-6.65h.15l8.95-.55.9.2.5.75-.1.9Q28.8-2.3 26.1-.4l-.1.05-1.95 1.1 2.5 2 .1.05q2.45 2.65 3.8 6.5v.9l-.6.65-.85.1-5.7-1.2V9.7l-5.4-1.1-.25-.05-.4-.1Q13.3 7.4 9.3 5.85.65 2.6-3.15 2.25-4.7 2.1-6.6 2.3q-2.8.35-6.25 1.35h.05q-5.9 1.8-8.1 1.45-4.3-.6-7.3-3.35l-.1-.05-.2-.2-.25-.45-1.85-5.3-.05-.75 1-3.7.45-.65q.3-.25.7-.3l.75.25Q-24.3-7.2-22.5-7q1.9.15 6.2-1.3 5.3-1.8 9.3-2.35l3.95-.3q5.8 0 13.35 2.15 5.45 1.55 9.85 2.15m2.15 8.1.3-.15-.1-.05-.15.15-.05.05M22.75 0l-.05-.05.05.05" fill="url(#D)" transform="translate(31.7 11.95)"/><path d="m20.1-5.4 9.35-.55Q27.85-3.2 25.4-1.4 23.15-.1 21.35.4h.2l-.35.3.05.05h.1q.75.3 1.55.75l2.85 2.15q2.3 2.45 3.55 6.05l-5.8-1.2-5.35-1.1-.6-.2L9.7 4.65Q.9 1.4-3.05 1.05-4.7.85-6.8 1.1q-2.9.35-6.4 1.35-5.5 1.65-7.5 1.4-3.95-.5-6.65-2.95l-.25-.25-1.85-5.3 1-3.75q3.85 2.45 5.85 2.65 2 .25 6.7-1.4 5.15-1.7 9.1-2.3l3.75-.2q5.7-.05 13 2.05 5.6 1.55 10.1 2.2h.05m.85.5-.2-.15.15.15h.05m-.3 5.6v.15h.25L20.65.7" fill="url(#E)" transform="translate(31.7 11.95)"/><path d="m20.65.7.25.15h-.25V.7" fill="url(#F)" transform="translate(31.7 11.95)"/></g><g id="C" fill-rule="evenodd"><path d="M18.65 13.4h.05v-.35h.5v.5h.05l2 3.15 3.35-3.3v-.05h.05-.05V13h.55v.4l-1.55 7.55q-1.85.95-4.6 1-2.95-.05-4.55-1l-1.6-7.4v-.5h.5v.2h-.05l3.4 3.45 1.95-3.3" fill="url(#G)" transform="translate(-11 -10.05)"/><path d="M14.6 23.2v-1.45q1 .65 2.3 1l2.1.35 2.1-.35q1.5-.35 2.5-1l-.15 1.45q-1.35 1.65-4.3 1.65h-.3q-3 0-4.25-1.65" fill="url(#H)" transform="translate(-11 -10.05)"/><path d="M23.4 11.75q0 .7.5 1.2t1.2.5q.65 0 1.15-.5.5-.5.5-1.2t-.5-1.2q-.5-.5-1.15-.5-.7 0-1.2.5t-.5 1.2" fill="url(#I)" transform="translate(-11 -10.05)"/><path d="M17.2 11.75q0 .7.5 1.2t1.15.5q.7 0 1.2-.5t.5-1.2q0-.7-.5-1.2t-1.2-.5q-.65 0-1.15.5-.5.5-.5 1.2" fill="url(#J)" transform="translate(-11 -10.05)"/><path d="M11 11.75q0 .7.5 1.2t1.15.5q.7 0 1.2-.5t.5-1.2q0-.7-.5-1.2t-1.2-.5q-.65 0-1.15.5-.5.5-.5 1.2" fill="url(#K)" transform="translate(-11 -10.05)"/></g><path d="m-1.1 9.5.6-.35h.05q10.1 6.2 23.3 9.35.85 37.45-23.3 42H-.5q-6.7-1.15-11.5-5.2l-2.75-2.75Q-23.7 42.1-23.8 18.5q12.3-3.55 22.7-9" fill="#333" fill-rule="evenodd" transform="translate(23.8 -9.15)" id="d"/><path d="M-1.1 9.15v.35q-10.4 5.45-22.7 9 .1 23.6 9.05 34.05L-12 55.3q4.8 4.05 11.5 5.2h.05q24.15-4.55 23.3-42-13.2-3.15-23.3-9.35h-.65m-28.15 5.35q15.3-4.4 28.15-11.2l.65-.35q12.5 7.65 28.8 11.55 1.1 46.25-28.8 51.8-6.5-1.1-11.55-4.4-5.3-3.45-8.95-9.35-8.15-13.05-8.3-38.05" fill-rule="evenodd" transform="translate(29.25 -2.95)" id="e"/><path d="M0-24.95q10.3 0 17.6 7.3Q24.95-10.3 25 .05q-.05 10.3-7.4 17.6Q10.3 25 0 25.05q-10.35-.05-17.7-7.4-7.3-7.3-7.3-17.6 0-10.35 7.3-17.7 7.35-7.3 17.7-7.3" fill="url(#L)" fill-rule="evenodd" transform="translate(25 24.95)" id="g"/><path d="M25 0q0 10.3-7.3 17.65Q10.35 25 0 25t-17.65-7.35Q-25 10.3-25 0q0-10.35 7.35-17.7Q-10.35-25.05 0-25q10.35-.05 17.7 7.3Q25-10.35 25 0" fill="#1c5f95" fill-rule="evenodd" transform="translate(25 25)" id="i"/><path d="M0-24.95q10.3 0 17.6 7.3Q24.95-10.3 25 .05q-.05 10.3-7.4 17.6Q10.3 25 0 25.05q-10.35-.05-17.7-7.4-7.3-7.3-7.3-17.6 0-10.35 7.3-17.7 7.35-7.3 17.7-7.3" fill="url(#M)" fill-rule="evenodd" transform="translate(25 24.95)" id="j"/><radialGradient cx="0" cy="0" gradientTransform="scale(.0307)" gradientUnits="userSpaceOnUse" id="L" r="819.2" spreadMethod="pad"><stop offset="0" stop-color="#123d5f" stop-opacity=".467"/><stop offset="1" stop-color="#123d5f" stop-opacity="0"/></radialGradient><radialGradient cx="0" cy="0" gradientTransform="scale(.0307)" gradientUnits="userSpaceOnUse" id="M" r="819.2" spreadMethod="pad"><stop offset=".337" stop-color="#e7f1f8"/><stop offset="1" stop-color="#e7f1f8" stop-opacity="0"/></radialGradient></defs></svg>