<svg xmlns:xlink="http://www.w3.org/1999/xlink" height="100.8" width="132.65" xmlns="http://www.w3.org/2000/svg"><g transform="translate(77.75 73.55)"><use height="13.35" transform="translate(-12.232 -7.583) scale(.8127)" width="30.05" xlink:href="#a"/><use height="3.45" transform="translate(-3.95 4.25)" width="7.95" xlink:href="#b"/></g><defs><g id="a" transform="translate(15.05 6.5)"><use height="6.45" transform="translate(-15.05 .4)" width="30.05" xlink:href="#c"/><use height="13" transform="translate(0 -6.5)" width="10.7" xlink:href="#d"/><use height="13" transform="translate(-10.7 -6.45)" width="10.75" xlink:href="#e"/></g><g id="d"><path d="M8.8-4.25Q10.2-2.5 10.2 0q0 2.45-1.4 4.25Q7.35 6 5.35 6 3.3 6 1.9 4.25.45 2.45.5 0 .45-2.5 1.9-4.25 3.3-6.05 5.35-6q2-.05 3.45 1.75" fill="#fff" fill-rule="evenodd" transform="translate(0 6.5)"/><path d="M8.8-4.25Q10.2-2.5 10.2 0q0 2.45-1.4 4.25Q7.35 6 5.35 6 3.3 6 1.9 4.25.45 2.45.5 0 .45-2.5 1.9-4.25 3.3-6.05 5.35-6q2-.05 3.45 1.75Z" fill="none" stroke="#666" stroke-linecap="round" stroke-linejoin="round" transform="translate(0 6.5)"/><path d="m3.5-.05.2.5.4.3q.25-.05.4-.3l.2-.5-.2-.65-.4-.2q-.25 0-.4.2l-.2.65m1-1.75q.65-.05 1.15.6.5.65.5 1.65 0 .95-.5 1.6L4.5 2.7q-.7 0-1.2-.65-.45-.65-.45-1.6 0-1 .45-1.65.5-.65 1.2-.6" fill-rule="evenodd" transform="translate(0 6.5)"/><path d="m3.5-.05.2-.65q.15-.2.4-.2l.4.2.2.65-.2.5q-.15.25-.4.3l-.4-.3-.2-.5" fill="#fff" fill-rule="evenodd" transform="translate(0 6.5)"/></g><g id="f"><path d="M3.45-4.25Q4.85-2.5 4.85 0t-1.4 4.25Q2 6 0 6q-2.05 0-3.45-1.75Q-4.9 2.5-4.9 0t1.45-4.25Q-2.05-6 0-6q2 0 3.45 1.75" fill="#fff" fill-rule="evenodd" transform="translate(5.4 6.5)"/><path d="M3.45-4.25Q4.85-2.5 4.85 0t-1.4 4.25Q2 6 0 6q-2.05 0-3.45-1.75Q-4.9 2.5-4.9 0t1.45-4.25Q-2.05-6 0-6q2 0 3.45 1.75Z" fill="none" stroke="#666" stroke-linecap="round" stroke-linejoin="round" transform="translate(5.4 6.5)"/><path d="m0-.1.2.5q.15.25.4.3L1 .4l.2-.5L1-.75l-.4-.2q-.25 0-.4.2L0-.1m1-1.75q.65-.05 1.15.6.5.65.5 1.65 0 .95-.5 1.6-.5.65-1.15.65-.7 0-1.2-.65-.45-.65-.45-1.6 0-1 .45-1.65.5-.65 1.2-.6" fill-rule="evenodd" transform="translate(5.4 6.5)"/><path d="m0-.1.2-.65q.15-.2.4-.2l.4.2.2.65-.2.5-.4.3Q.35.65.2.4L0-.1" fill="#fff" fill-rule="evenodd" transform="translate(5.4 6.5)"/></g><path d="M10.65-1.35Q14.95.9 15 2.1q0 1.15-3.9.5l-10-.95-11.15.7q-5 .9-5-.3 0-1.15 4.5-3.35 4.5-2.25 10.7-2.3 6.2-.05 10.5 2.25" fill="#6596cc" fill-opacity=".431" fill-rule="evenodd" transform="translate(15.05 3.6)" id="c"/><path d="M-3.45 4.75.1 7.2l3.4-2.3" fill="none" stroke="#333" stroke-linecap="round" stroke-linejoin="round" transform="translate(3.95 -4.25)" id="b"/><use height="13" width="10.75" xlink:href="#f" id="e"/></defs></svg>