<?xml version="1.0" encoding="UTF-8" standalone="no"?>
<svg xmlns:xlink="http://www.w3.org/1999/xlink" height="100.8px" width="132.65px" xmlns="http://www.w3.org/2000/svg">
  <g transform="matrix(1.0, 0.0, 0.0, 1.0, 77.75, 73.55)">
    <use height="5.3" transform="matrix(1.0, 0.0, 0.0, 0.6509, -12.25, -1.4217)" width="24.45" xlink:href="#shape0"/>
    <use height="30.0" transform="matrix(0.5, 0.0, 0.0, 0.5, 9.1, -19.55)" width="10.05" xlink:href="#sprite0"/>
    <use height="30.0" transform="matrix(0.5, 0.0, 0.0, 0.5, -14.45, -17.85)" width="10.05" xlink:href="#sprite0"/>
    <use height="30.0" transform="matrix(0.375, 0.0, 0.0, 0.375, -13.2375, -4.6875)" width="10.05" xlink:href="#sprite0"/>
    <use height="30.0" transform="matrix(0.375, 0.0, 0.0, 0.375, 1.4625, -20.6875)" width="10.05" xlink:href="#sprite0"/>
    <use height="30.0" transform="matrix(0.375, 0.0, 0.0, 0.375, 11.1125, -3.1875)" width="10.05" xlink:href="#sprite0"/>
    <use height="10.85" transform="matrix(1.0, 0.0, 0.0, 1.0, -8.75, -7.7)" width="17.55" xlink:href="#shape2"/>
    <use height="30.0" transform="matrix(0.375, 0.0, 0.0, 0.375, 5.8125, -9.4875)" width="10.05" xlink:href="#sprite0"/>
    <use height="7.75" transform="matrix(1.0, 0.0, 0.0, 1.0, -5.1, 3.55)" width="9.9" xlink:href="#shape3"/>
  </g>
  <defs>
    <g id="shape0" transform="matrix(1.0, 0.0, 0.0, 1.0, 12.2, 1.8)">
      <path d="M0.4 -1.75 L1.0 -1.65 4.8 -1.05 6.45 -0.6 8.7 0.25 11.55 1.55 Q12.15 2.15 12.25 2.85 12.25 3.9 9.1 3.3 L8.7 3.2 7.4 3.0 4.9 2.75 0.95 2.5 -5.35 2.65 -7.85 3.0 -8.1 3.05 -8.7 3.15 -12.15 3.0 -12.2 2.8 Q-12.2 1.7 -9.85 0.35 L-6.7 -0.85 -6.65 -0.9 -6.1 -1.05 -1.2 -1.8 0.4 -1.75" fill="#000000" fill-opacity="0.15294118" fill-rule="evenodd" stroke="none"/>
    </g>
    <g id="sprite0" transform="matrix(1.0, 0.0, 0.0, 1.0, 0.5, 12.5)">
      <use height="17.95" transform="matrix(1.0, 0.0, 0.0, 1.0, -0.5, -12.5)" width="10.05" xlink:href="#sprite1"/>
    </g>
    <g id="sprite1" transform="matrix(1.0, 0.0, 0.0, 1.0, 0.5, 0.45)">
      <use height="17.95" transform="matrix(1.0, 0.0, 0.0, 1.0, -0.5, -0.45)" width="10.05" xlink:href="#shape1"/>
    </g>
    <g id="shape1" transform="matrix(1.0, 0.0, 0.0, 1.0, 0.5, 0.45)">
      <path d="M4.65 0.25 L4.7 0.55 4.65 0.25 4.75 0.5 4.7 0.55 4.8 2.25 4.95 6.0 5.05 9.9 Q5.05 11.85 4.1 13.4 3.6 14.2 2.65 14.15 0.75 14.05 0.1 11.9 L0.05 11.9 0.05 11.75 Q0.15 10.4 0.5 9.45 0.95 8.0 4.55 0.05 L4.65 0.2 4.65 0.25 M0.1 11.9 L0.05 11.75 0.1 11.9" fill="#ffffff" fill-rule="evenodd" stroke="none"/>
      <path d="M0.1 11.9 Q0.75 14.05 2.65 14.15 3.6 14.2 4.1 13.4 5.05 11.85 5.05 9.9 L4.95 6.0 4.8 2.25 4.7 0.55 4.75 0.5 8.6 9.45 Q9.1 10.85 9.05 13.1 9.0 15.3 7.85 16.15 6.7 17.0 4.55 17.0 2.35 17.0 1.2 16.15 0.05 15.3 0.0 13.1 L0.05 11.9 0.1 11.9" fill="#b8d2f1" fill-rule="evenodd" stroke="none"/>
      <path d="M4.65 0.2 L4.55 0.05 Q0.95 8.0 0.5 9.45 0.15 10.4 0.05 11.75 L0.05 11.9 0.0 13.1 Q0.05 15.3 1.2 16.15 2.35 17.0 4.55 17.0 6.7 17.0 7.85 16.15 9.0 15.3 9.05 13.1 9.1 10.85 8.6 9.45 L4.75 0.5" fill="none" stroke="#6f88b0" stroke-linecap="round" stroke-linejoin="round" stroke-width="1.0"/>
      <path d="M4.7 0.55 L4.65 0.25 4.65 0.2 M0.05 11.75 L0.1 11.9 M4.75 0.5 L4.65 0.25" fill="none" stroke="#6f88b0" stroke-linecap="round" stroke-linejoin="round" stroke-width="1.0"/>
    </g>
    <g id="shape2" transform="matrix(1.0, 0.0, 0.0, 1.0, 8.75, 7.7)">
      <path d="M8.3 -2.3 L8.05 -0.45 7.15 1.15 Q6.15 2.35 4.85 2.55 L4.35 2.6 3.35 2.45 Q2.3 2.1 1.55 1.15 0.5 -0.2 0.4 -1.95 L0.4 -2.3 Q0.35 -4.35 1.55 -5.75 2.65 -7.2 4.35 -7.2 6.0 -7.2 7.15 -5.75 8.3 -4.35 8.3 -2.3 M-8.25 -2.25 Q-8.3 -4.25 -7.1 -5.7 -6.0 -7.15 -4.3 -7.15 -2.65 -7.15 -1.5 -5.7 -0.35 -4.25 -0.35 -2.25 L-0.35 -1.95 Q-0.45 -0.15 -1.5 1.2 L-2.8 2.3 -4.3 2.65 -5.4 2.45 Q-6.35 2.15 -7.1 1.2 -7.7 0.5 -8.0 -0.4 -8.3 -1.25 -8.25 -2.25" fill="#ffffff" fill-rule="evenodd" stroke="none"/>
      <path d="M8.3 -2.3 L8.05 -0.45 7.15 1.15 Q6.15 2.35 4.85 2.55 L4.35 2.6 3.35 2.45 Q2.3 2.1 1.55 1.15 0.5 -0.2 0.4 -1.95 L0.4 -2.3 Q0.35 -4.35 1.55 -5.75 2.65 -7.2 4.35 -7.2 6.0 -7.2 7.15 -5.75 8.3 -4.35 8.3 -2.3 M-8.25 -2.25 Q-8.3 -4.25 -7.1 -5.7 -6.0 -7.15 -4.3 -7.15 -2.65 -7.15 -1.5 -5.7 -0.35 -4.25 -0.35 -2.25 L-0.35 -1.95 Q-0.45 -0.15 -1.5 1.2 L-2.8 2.3 -4.3 2.65 -5.4 2.45 Q-6.35 2.15 -7.1 1.2 -7.7 0.5 -8.0 -0.4 -8.3 -1.25 -8.25 -2.25" fill="none" stroke="#666666" stroke-linecap="round" stroke-linejoin="round" stroke-width="1.0"/>
      <path d="M-4.3 -2.5 L-4.1 -3.0 -3.65 -3.15 -3.2 -3.0 -3.0 -2.5 -3.2 -2.05 -3.65 -1.85 Q-3.9 -1.85 -4.1 -2.05 L-4.3 -2.5" fill="#000000" fill-rule="evenodd" stroke="none"/>
      <path d="M2.95 -2.5 L3.15 -3.0 3.6 -3.15 4.05 -3.0 4.25 -2.5 4.05 -2.05 3.6 -1.85 Q3.35 -1.85 3.15 -2.05 L2.95 -2.5" fill="#000000" fill-rule="evenodd" stroke="none"/>
    </g>
    <g id="shape3" transform="matrix(1.0, 0.0, 0.0, 1.0, 5.1, -3.55)">
      <path d="M2.35 5.7 Q0.25 15.95 -2.6 5.7 -1.45 5.75 -0.1 4.1 1.2 5.75 2.35 5.7" fill="#666666" fill-rule="evenodd" stroke="none"/>
      <path d="M4.3 4.05 Q3.4 5.6 2.35 5.7 0.25 15.95 -2.6 5.7 -3.7 5.65 -4.6 4.05 M2.35 5.7 Q1.2 5.75 -0.1 4.1 -1.45 5.75 -2.6 5.7" fill="none" stroke="#333333" stroke-linecap="round" stroke-linejoin="round" stroke-width="1.0"/>
    </g>
  </defs>
</svg>
