<?xml version="1.0" encoding="UTF-8" standalone="no"?>
<svg xmlns:xlink="http://www.w3.org/1999/xlink" height="100.8px" width="132.65px" xmlns="http://www.w3.org/2000/svg">
  <g transform="matrix(1.0, 0.0, 0.0, 1.0, 77.75, 73.55)">
    <use height="10.5" transform="matrix(1.0, 0.0, 0.0, 1.0, -12.25, -7.25)" width="24.45" xlink:href="#shape0"/>
    <use height="9.95" transform="matrix(0.7622, 0.0, 0.0, 0.9477, -9.5605, 3.3788)" width="25.5" xlink:href="#sprite0"/>
    <use height="3.65" transform="matrix(1.0, 0.0, 0.0, 1.0, -4.85, -3.75)" width="2.7" xlink:href="#shape2"/>
  </g>
  <defs>
    <g id="shape0" transform="matrix(1.0, 0.0, 0.0, 1.0, 12.25, 7.25)">
      <path d="M2.7 -3.25 Q2.3 -2.75 2.35 -1.9 2.3 -1.15 2.7 -0.6 3.1 -0.1 3.65 -0.1 4.2 -0.1 4.6 -0.6 5.0 -1.15 5.0 -1.9 5.0 -2.75 4.6 -3.25 4.2 -3.8 3.65 -3.75 3.1 -3.8 2.7 -3.25 M0.4 -2.3 Q0.35 -4.35 1.55 -5.75 2.65 -7.2 3.85 -6.5 5.05 -5.85 6.2 -4.4 L7.85 -2.15 Q8.3 -1.35 8.05 -0.45 L7.15 1.15 Q6.15 2.35 4.85 2.55 L4.35 2.6 3.35 2.45 Q2.3 2.1 1.55 1.15 0.5 -0.2 0.4 -1.95 L0.4 -2.3 M3.0 -1.9 Q2.85 -2.1 2.85 -2.35 L3.0 -2.85 Q3.1 -3.05 3.35 -3.0 L3.65 -2.85 3.85 -2.35 3.65 -1.9 3.35 -1.7 3.0 -1.9 M-0.35 -1.95 Q-0.45 -0.15 -1.5 1.2 L-2.8 2.3 -4.3 2.65 -5.4 2.45 Q-6.35 2.15 -7.1 1.2 -7.7 0.5 -8.0 -0.4 -8.25 -1.25 -7.85 -2.05 L-6.25 -4.4 Q-5.15 -5.9 -3.9 -6.5 -2.65 -7.15 -1.5 -5.7 -0.35 -4.25 -0.35 -2.25 L-0.35 -1.95" fill="#ffffff" fill-rule="evenodd" stroke="none"/>
      <path d="M2.7 -3.25 Q3.1 -3.8 3.65 -3.75 4.2 -3.8 4.6 -3.25 5.0 -2.75 5.0 -1.9 5.0 -1.15 4.6 -0.6 4.2 -0.1 3.65 -0.1 3.1 -0.1 2.7 -0.6 2.3 -1.15 2.35 -1.9 2.3 -2.75 2.7 -3.25 M3.0 -1.9 L3.35 -1.7 3.65 -1.9 3.85 -2.35 3.65 -2.85 3.35 -3.0 Q3.1 -3.05 3.0 -2.85 L2.85 -2.35 Q2.85 -2.1 3.0 -1.9" fill="#000000" fill-rule="evenodd" stroke="none"/>
      <path d="M0.4 -2.3 Q0.35 -4.35 1.55 -5.75 2.65 -7.2 3.85 -6.5 5.05 -5.85 6.2 -4.4 L7.85 -2.15 Q8.3 -1.35 8.05 -0.45 L7.15 1.15 Q6.15 2.35 4.85 2.55 L4.35 2.6 3.35 2.45 Q2.3 2.1 1.55 1.15 0.5 -0.2 0.4 -1.95 L0.4 -2.3 M-0.35 -1.95 Q-0.45 -0.15 -1.5 1.2 L-2.8 2.3 -4.3 2.65 -5.4 2.45 Q-6.35 2.15 -7.1 1.2 -7.7 0.5 -8.0 -0.4 -8.25 -1.25 -7.85 -2.05 L-6.25 -4.4 Q-5.15 -5.9 -3.9 -6.5 -2.65 -7.15 -1.5 -5.7 -0.35 -4.25 -0.35 -2.25 L-0.35 -1.95" fill="none" stroke="#666666" stroke-linecap="round" stroke-linejoin="round" stroke-width="1.0"/>
      <path d="M0.4 -1.95 Q0.5 -0.2 1.55 1.15 2.3 2.1 3.35 2.45 L0.9 2.3 -2.8 2.3 -1.5 1.2 Q-0.45 -0.15 -0.35 -1.95 L0.15 -1.95 0.4 -1.95 M8.65 -0.15 Q12.15 1.65 12.2 2.65 12.2 3.6 9.05 3.05 L4.85 2.55 Q6.15 2.35 7.15 1.15 L8.05 -0.45 8.65 -0.15 M-8.0 -0.4 Q-7.7 0.5 -7.1 1.2 -6.35 2.15 -5.4 2.45 L-8.15 2.85 -12.25 2.65 Q-12.25 1.7 -8.55 -0.1 L-8.0 -0.4" fill="#6596cc" fill-opacity="0.43137255" fill-rule="evenodd" stroke="none"/>
    </g>
    <g id="sprite0" transform="matrix(1.0, 0.0, 0.0, 1.0, 13.2, 0.55)">
      <use height="9.95" transform="matrix(1.0, 0.0, 0.0, 1.0, -13.2, -0.55)" width="25.5" xlink:href="#shape1"/>
    </g>
    <g id="shape1" transform="matrix(1.0, 0.0, 0.0, 1.0, 13.2, 0.55)">
      <path d="M8.05 0.2 Q8.3 1.45 7.1 3.05 L6.1 3.05 5.7 3.0 5.7 2.85 5.7 2.55 5.65 2.05 5.45 1.5 Q5.25 1.15 4.75 1.15 4.2 1.1 3.95 1.5 3.7 1.85 3.6 2.35 L3.55 2.9 -6.7 3.55 Q-7.35 2.85 -7.65 0.8 L5.2 -0.05 8.05 0.2" fill="#ffffff" fill-rule="evenodd" stroke="none"/>
      <path d="M-6.6 6.85 Q-0.75 4.15 6.25 6.65 L0.3 8.9 -6.6 6.85" fill="#cc0000" fill-rule="evenodd" stroke="none"/>
      <path d="M-7.65 0.8 Q-7.35 2.85 -6.7 3.55 L3.55 2.9 3.6 2.35 Q3.7 1.85 3.95 1.5 4.2 1.1 4.75 1.15 5.25 1.15 5.45 1.5 L5.65 2.05 5.7 2.55 5.7 2.85 5.7 3.0 6.1 3.05 7.1 3.05 Q8.3 1.45 8.05 0.2 L10.35 0.45 Q14.6 2.55 6.25 6.65 -0.75 4.15 -6.6 6.85 -11.15 5.1 -12.35 3.75 -13.55 2.35 -10.35 1.25 L-7.65 0.8" fill="#000000" fill-rule="evenodd" stroke="none"/>
      <path d="M8.05 0.2 L5.2 -0.05 -7.65 0.8 -10.35 1.25 Q-13.55 2.35 -12.35 3.75 -11.15 5.1 -6.6 6.85 L0.3 8.9 6.25 6.65 Q14.6 2.55 10.35 0.45 L8.05 0.2 Z" fill="none" stroke="#333333" stroke-linecap="round" stroke-linejoin="round" stroke-width="1.0"/>
    </g>
    <g id="shape2" transform="matrix(1.0, 0.0, 0.0, 1.0, 4.85, 3.75)">
      <path d="M-3.5 -3.75 Q-2.95 -3.8 -2.55 -3.3 -2.15 -2.75 -2.15 -1.95 -2.15 -1.15 -2.55 -0.65 -2.95 -0.1 -3.5 -0.1 -4.05 -0.1 -4.45 -0.65 -4.85 -1.15 -4.85 -1.95 -4.85 -2.75 -4.45 -3.3 -4.05 -3.8 -3.5 -3.75 M-3.35 -2.35 L-3.5 -2.85 Q-3.6 -3.05 -3.8 -3.05 -4.0 -3.05 -4.15 -2.85 L-4.3 -2.35 -4.15 -1.95 -3.8 -1.7 Q-3.6 -1.75 -3.5 -1.95 -3.35 -2.1 -3.35 -2.35" fill="#000000" fill-rule="evenodd" stroke="none"/>
      <path d="M-3.35 -2.35 Q-3.35 -2.1 -3.5 -1.95 -3.6 -1.75 -3.8 -1.7 L-4.15 -1.95 -4.3 -2.35 -4.15 -2.85 Q-4.0 -3.05 -3.8 -3.05 -3.6 -3.05 -3.5 -2.85 L-3.35 -2.35" fill="#ffffff" fill-rule="evenodd" stroke="none"/>
    </g>
  </defs>
</svg>
