<svg xmlns:xlink="http://www.w3.org/1999/xlink" height="100.8" width="132.65" xmlns="http://www.w3.org/2000/svg"><g transform="translate(77.75 73.55)"><use height="6" transform="translate(-12.25 -2.75)" width="24.45" xlink:href="#a"/><use height="16.45" transform="translate(21 -24.8)" width="13.45" xlink:href="#b"/><use height="16.45" transform="translate(22.474 -1.3) scale(.4935)" width="13.45" xlink:href="#b"/><use height="16.45" transform="translate(37.204 -17.05) scale(.3636)" width="13.45" xlink:href="#b"/><use height="10.85" transform="translate(-1.55 3.3)" width="4.55" xlink:href="#c"/></g><defs><g id="a"><path d="M8.65-.15q3.5 1.8 3.55 2.8 0 .95-3.15.4L.9 2.3l-9.05.55-4.1-.2q0-.95 3.7-2.75Q-4.9-1.95.15-1.95q5-.05 8.5 1.8" fill="#6596cc" fill-opacity=".431" fill-rule="evenodd" transform="translate(12.25 2.75)"/><path d="m1.4-2.2.05.3.15.5.6.75q.6.5 1.4.65l.55.05Q5.3 0 6.1-.65q.65-.55.8-1.25v-.35m-13.1.1.05.25q.15.7.8 1.25.75.65 1.9.65l.65-.05q.75-.15 1.3-.6.6-.5.75-1.15v-.1l.05-.25" fill="none" stroke="#666" stroke-linecap="round" stroke-linejoin="round" transform="translate(12.25 2.75)"/></g><g id="e" fill-rule="evenodd"><path d="M5.75-3.6-1.3 5.1H6v2.15H-4.45V4.9L2.3-3.45h-6v-2.2h9.45v2.05" fill="#c00" transform="translate(5.2 6.45)"/><path d="m5-4.4-7.05 8.7h7.3v2.15H-5.2V4.1l6.75-8.35h-6v-2.2H5v2.05" fill="#fc0" transform="translate(5.2 6.45)"/></g><g id="c" fill-rule="evenodd"><path d="M1.65 6.65q-.6.5-.6.95v.2l-1.5.15-.6-.3-.45-.95q-.2-1.5.35-2.75l.1-.2.35-.3.7-.15q2.05.4 1.75 2.55l-.1.8" fill="#333" transform="translate(1.55 -3.3)"/><path d="M1.05 7.8v-.2q0-.45.6-.95l.2-.1q.35-.1.55 1.45l.45 3.1q.3 1.6-.05 2.4-.4.8-1.1.6-.7-.2-.35-2.55.35-2.35-.3-3.75" fill="#6596cc" fill-opacity=".431" transform="translate(1.55 -3.3)"/></g><use height="13.7" transform="matrix(1.2 0 0 1.2 .01 .01)" width="11.2" xlink:href="#d" id="b"/><use height="13.7" width="11.2" xlink:href="#e" id="d"/></defs></svg>