<?xml version="1.0" encoding="UTF-8" standalone="no"?>
<svg xmlns:xlink="http://www.w3.org/1999/xlink" height="100.8px" width="132.65px" xmlns="http://www.w3.org/2000/svg">
  <g transform="matrix(1.0, 0.0, 0.0, 1.0, 77.75, 73.55)">
    <use height="10.6" transform="matrix(1.0, 0.0, 0.0, 1.0, -11.2, 1.75)" width="23.25" xlink:href="#sprite0"/>
    <use height="13.0" transform="matrix(1.0, 0.0, 0.0, 1.0, -11.65, -8.25)" width="23.5" xlink:href="#shape1"/>
  </g>
  <defs>
    <g id="sprite0" transform="matrix(1.0, 0.0, 0.0, 1.0, 11.6, 5.3)">
      <use height="8.4" transform="matrix(1.0, 0.0, 0.0, 1.0, -11.6, -4.2)" width="23.25" xlink:href="#sprite1"/>
    </g>
    <g id="sprite1" transform="matrix(1.0, 0.0, 0.0, 1.0, 11.6, 4.2)">
      <use height="8.4" transform="matrix(1.0, 0.0, 0.0, 1.0, -11.6, -4.2)" width="23.25" xlink:href="#shape0"/>
    </g>
    <g id="shape0" transform="matrix(1.0, 0.0, 0.0, 1.0, 11.6, 4.2)">
      <path d="M2.6 2.45 Q2.8 1.8 3.35 1.0 L4.0 -0.45 5.65 -0.05 Q6.9 0.35 8.15 1.3 6.9 0.35 5.65 -0.05 L4.0 -0.45 3.35 1.0 Q2.8 1.8 2.6 2.45 -0.6 2.2 -3.7 3.1 L-5.1 1.0 -5.5 0.2 -1.7 -0.75 0.0 -0.8 0.0 0.45 0.0 1.65 0.0 0.45 0.0 -0.8 -1.7 -0.75 -5.5 0.2 -5.1 1.0 -3.7 3.1 -4.3 3.25 -5.1 3.45 -6.95 3.7 -8.25 2.1 -8.45 1.75 -9.5 -0.9 Q-8.25 -2.05 -5.9 -2.85 -3.15 -3.75 -0.15 -3.7 L2.7 -3.4 Q6.5 -2.9 8.85 -1.15 L9.15 -0.95 8.15 1.3 7.4 2.15 6.5 3.1 5.5 2.9 4.75 2.75 2.6 2.45 M4.2 -2.55 L4.0 -0.45 2.1 -0.7 0.0 -0.8 -0.15 -3.7 0.0 -0.8 2.1 -0.7 4.0 -0.45 4.2 -2.55 M-5.9 -2.85 Q-5.95 -0.95 -5.5 0.2 L-5.55 0.2 -8.45 1.75 -5.55 0.2 -5.5 0.2 Q-5.95 -0.95 -5.9 -2.85" fill="#ffffff" fill-rule="evenodd" stroke="none"/>
      <path d="M6.5 3.1 L7.4 2.15 8.15 1.3 9.15 -0.95 Q10.3 -0.1 10.9 0.9 11.6 2.05 10.5 2.95 L7.7 3.3 6.5 3.1 M-6.95 3.7 L-8.85 3.55 Q-11.5 3.05 -11.0 1.3 -10.65 0.05 -9.5 -0.9 L-8.45 1.75 -8.25 2.1 -6.95 3.7" fill="#666666" fill-rule="evenodd" stroke="none"/>
      <path d="M2.6 2.45 L4.75 2.75 5.5 2.9 6.5 3.1 7.7 3.3 10.5 2.95 Q11.6 2.05 10.9 0.9 10.3 -0.1 9.15 -0.95 L8.85 -1.15 Q6.5 -2.9 2.7 -3.4 L-0.15 -3.7 Q-3.15 -3.75 -5.9 -2.85 -8.25 -2.05 -9.5 -0.9 -10.65 0.05 -11.0 1.3 -11.5 3.05 -8.85 3.55 L-6.95 3.7 -5.1 3.45 -4.3 3.25 -3.7 3.1 Q-0.6 2.2 2.6 2.45" fill="none" stroke="#333333" stroke-linecap="round" stroke-linejoin="round" stroke-width="1.0"/>
      <path d="M8.15 1.3 Q6.9 0.35 5.65 -0.05 L4.0 -0.45 3.35 1.0 Q2.8 1.8 2.6 2.45 M6.5 3.1 L7.4 2.15 8.15 1.3 9.15 -0.95 M-0.15 -3.7 L0.0 -0.8 2.1 -0.7 4.0 -0.45 4.2 -2.55 M0.0 1.65 L0.0 0.45 0.0 -0.8 -1.7 -0.75 -5.5 0.2 -5.1 1.0 -3.7 3.1 M-9.5 -0.9 L-8.45 1.75 -5.55 0.2 -5.5 0.2 Q-5.95 -0.95 -5.9 -2.85 M-8.45 1.75 L-8.25 2.1 -6.95 3.7" fill="none" stroke="#666666" stroke-linecap="round" stroke-linejoin="round" stroke-width="1.0"/>
    </g>
    <g id="shape1" transform="matrix(1.0, 0.0, 0.0, 1.0, 11.65, 8.25)">
      <path d="M-5.15 -4.8 Q-6.45 -4.8 -7.35 -3.9 -8.25 -3.05 -8.2 -1.75 -8.25 -0.5 -7.35 0.4 -6.45 1.3 -5.15 1.3 -3.9 1.3 -3.0 0.4 -2.1 -0.5 -2.1 -1.75 -2.1 -3.05 -3.0 -3.9 -3.9 -4.8 -5.15 -4.8 M-5.15 -8.25 Q-2.5 -8.3 -0.55 -6.35 1.35 -4.45 1.35 -1.75 1.35 0.9 -0.55 2.85 -2.5 4.75 -5.15 4.75 -7.85 4.75 -9.75 2.85 -11.7 0.9 -11.65 -1.75 -11.7 -4.45 -9.75 -6.35 -7.85 -8.3 -5.15 -8.25" fill="url(#gradient0)" fill-rule="evenodd" stroke="none"/>
      <path d="M-5.15 -4.8 Q-3.9 -4.8 -3.0 -3.9 -2.1 -3.05 -2.1 -1.75 -2.1 -0.5 -3.0 0.4 -3.9 1.3 -5.15 1.3 -6.45 1.3 -7.35 0.4 -8.25 -0.5 -8.2 -1.75 -8.25 -3.05 -7.35 -3.9 -6.45 -4.8 -5.15 -4.8" fill="#ffffff" fill-rule="evenodd" stroke="none"/>
      <path d="M5.35 -8.25 Q8.0 -8.3 9.95 -6.35 11.85 -4.45 11.85 -1.75 11.85 0.9 9.95 2.85 8.0 4.75 5.35 4.75 2.65 4.75 0.75 2.85 -1.2 0.9 -1.15 -1.75 -1.2 -4.45 0.75 -6.35 2.65 -8.3 5.35 -8.25 M5.35 -4.8 Q4.05 -4.8 3.15 -3.9 2.25 -3.05 2.3 -1.75 2.25 -0.5 3.15 0.4 4.05 1.3 5.35 1.3 6.6 1.3 7.5 0.4 8.4 -0.5 8.4 -1.75 8.4 -3.05 7.5 -3.9 6.6 -4.8 5.35 -4.8" fill="url(#gradient1)" fill-rule="evenodd" stroke="none"/>
      <path d="M5.35 -4.8 Q6.6 -4.8 7.5 -3.9 8.4 -3.05 8.4 -1.75 8.4 -0.5 7.5 0.4 6.6 1.3 5.35 1.3 4.05 1.3 3.15 0.4 2.25 -0.5 2.3 -1.75 2.25 -3.05 3.15 -3.9 4.05 -4.8 5.35 -4.8" fill="#ffffff" fill-rule="evenodd" stroke="none"/>
    </g>
    <radialGradient cx="0" cy="0" gradientTransform="matrix(0.008, 0.0, 0.0, 0.008, -5.15, -1.75)" gradientUnits="userSpaceOnUse" id="gradient0" r="819.2" spreadMethod="pad">
      <stop offset="0.5215686274509804" stop-color="#000000"/>
      <stop offset="1.0" stop-color="#000000" stop-opacity="0.0"/>
    </radialGradient>
    <radialGradient cx="0" cy="0" gradientTransform="matrix(0.008, 0.0, 0.0, 0.008, 5.35, -1.75)" gradientUnits="userSpaceOnUse" id="gradient1" r="819.2" spreadMethod="pad">
      <stop offset="0.5215686274509804" stop-color="#000000"/>
      <stop offset="1.0" stop-color="#000000" stop-opacity="0.0"/>
    </radialGradient>
  </defs>
</svg>
