<?xml version="1.0" encoding="UTF-8" standalone="no"?>
<svg
   height="100.8"
   width="132.65"
   version="1.1"
   id="svg962"
   sodipodi:docname="angry.svg"
   inkscape:version="1.1.1 (3bf5ae0d25, 2021-09-20, custom)"
   xmlns:inkscape="http://www.inkscape.org/namespaces/inkscape"
   xmlns:sodipodi="http://sodipodi.sourceforge.net/DTD/sodipodi-0.dtd"
   xmlns:xlink="http://www.w3.org/1999/xlink"
   xmlns="http://www.w3.org/2000/svg"
   xmlns:svg="http://www.w3.org/2000/svg">
  <sodipodi:namedview
     id="namedview964"
     pagecolor="#505050"
     bordercolor="#eeeeee"
     borderopacity="1"
     inkscape:pageshadow="0"
     inkscape:pageopacity="0"
     inkscape:pagecheckerboard="0"
     showgrid="false"
     inkscape:current-layer="g930" />
  <g
     transform="translate(77.75,73.55)"
     id="g930">
    <use
       height="8.3999996"
       transform="translate(-11.95,-5.85)"
       width="24.450001"
       xlink:href="#a"
       id="use920"
       x="0"
       y="0"
       style="display:inline" />
    <use
       height="11.5"
       transform="translate(17.8,-7)"
       width="13.9"
       xlink:href="#c"
       id="use924"
       x="0"
       y="0" />
    <use
       height="11.5"
       transform="matrix(0.7,0,0,0.7,-23.57,-10.825)"
       width="13.9"
       xlink:href="#c"
       id="use926"
       x="0"
       y="0" />
    <use
       height="11.5"
       transform="matrix(0.49,0,0,0.49,-27.029,-1.017)"
       width="13.9"
       xlink:href="#c"
       id="use928"
       x="0"
       y="0" />
  </g>
  <defs
     id="defs960">
    <use
       height="8.4"
       transform="translate(0 1.1)"
       width="23.25"
       xlink:href="#d"
       id="b" />
    <use
       height="8.4"
       width="23.25"
       xlink:href="#e"
       id="d" />
    <use
       height="11.5"
       transform="translate(.4)"
       width="13.45"
       xlink:href="#f"
       id="c" />
    <g
       id="a">
      <path
         d="M2.7-3.25q-.1.25-.05.65-.05.75.35 1.3.4.5.95.5.55 0 .95-.5.4-.55.4-1.3 0-.85-.4-1.35l-.45-.4q1.1-.6 2.4-.85l3 .25h.2l-1.1 2.7-.6 1.1-.9 1.6q-1 1.2-2.3 1.4l-.5.05-1-.15Q2.6 1.4 1.85.45q-.65-.8-.9-1.7L.9-1.4l1.8-1.85M-2.5 1.6l-1.5.35-1.1-.2q-.95-.3-1.7-1.25l-.9-1.6q-.65-1.95-.75-4.15 4.65-.55 7.15 2.4l1.1 1.4-.05.2Q-.55-.3-1.2.5l-1.3 1.1m5.8-5.15.35-.15.3.15.2.5-.2.45-.3.2q-.25-.05-.35-.2-.15-.2-.15-.45l.15-.5"
         fill="#fff"
         fill-rule="evenodd"
         transform="translate(11.95 5.85)"
         id="path935" />
      <path
         d="m4.45-4.35.45.4q.4.5.4 1.35 0 .75-.4 1.3-.4.5-.95.5-.55 0-.95-.5-.4-.55-.35-1.3-.05-.4.05-.65.8-.7 1.75-1.1-.95.4-1.75 1.1l.3-.7q.4-.55.95-.5l.5.1m-1.15.8-.15.5q0 .25.15.45.1.15.35.2l.3-.2.2-.45-.2-.5-.3-.15-.35.15"
         fill-rule="evenodd"
         transform="translate(11.95 5.85)"
         id="path937" />
      <path
         d="m8.35-1.15.6.3q3.5 1.8 3.55 2.8 0 .95-3.15.4l-4.2-.5q1.3-.2 2.3-1.4l.9-1.6m-4.7 2.9L1.2 1.6h-3.7L-1.2.5q.65-.8.95-1.75l.05-.2.15-1.2H.7L.9-1.4l.05.15q.25.9.9 1.7.75.95 1.8 1.3m-8.75 0-2.75.4-4.1-.2q0-.95 3.7-2.75l.55-.3.9 1.6q.75.95 1.7 1.25"
         fill-opacity=".153"
         fill-rule="evenodd"
         transform="translate(11.95 5.85)"
         id="path939" />
      <path
         d="M4.45-4.35q-.95.4-1.75 1.1L.9-1.4.7-2.65m3.75-1.7q1.1-.6 2.4-.85l3 .25h.2m-18.5-.3q4.65-.55 7.15 2.4l1.1 1.4.15-1.2"
         fill="none"
         stroke="#666"
         stroke-linecap="round"
         stroke-linejoin="round"
         transform="translate(11.95 5.85)"
         id="path941" />
      <path
         d="m10.05-4.95-1.1 2.7-.6 1.1-.9 1.6q-1 1.2-2.3 1.4l-.5.05-1-.15Q2.6 1.4 1.85.45q-.65-.8-.9-1.7L.9-1.4m-3.4 3-1.5.35-1.1-.2q-.95-.3-1.7-1.25l-.9-1.6q-.65-1.95-.75-4.15m8.25 3.8-.05.2Q-.55-.3-1.2.5l-1.3 1.1"
         fill="none"
         stroke="#900"
         stroke-linecap="round"
         stroke-linejoin="round"
         transform="translate(11.95 5.85)"
         id="path943" />
      <path
         d="M-4.15-4q.4-.5.95-.45.55-.05.95.45.4.55.4 1.35t-.4 1.3q-.4.55-.95.55-.55 0-.95-.55-.4-.5-.4-1.3t.4-1.35m.3.45-.15.5.15.4.35.25.3-.25q.15-.15.15-.4l-.15-.5q-.1-.2-.3-.2l-.35.2"
         fill-rule="evenodd"
         transform="translate(11.95 5.85)"
         id="path945" />
      <path
         d="m-3.85-3.55.35-.2q.2 0 .3.2l.15.5q0 .25-.15.4l-.3.25-.35-.25-.15-.4.15-.5"
         fill="#fff"
         fill-rule="evenodd"
         transform="translate(11.95 5.85)"
         id="path947" />
    </g>
    <g
       id="e">
      <path
         d="M2.6 2.45q.2-.65.75-1.45L4-.45l1.65.4q1.25.4 2.5 1.35Q6.9.35 5.65-.05L4-.45 3.35 1q-.55.8-.75 1.45-3.2-.25-6.3.65L-5.1 1l-.4-.8 3.8-.95L0-.8v2.45V-.8l-1.7.05-3.8.95.4.8 1.4 2.1-.6.15-.8.2-1.85.25-1.3-1.6-.2-.35L-9.5-.9q1.25-1.15 3.6-1.95 2.75-.9 5.75-.85l2.85.3q3.8.5 6.15 2.25l.3.2-1 2.25-.75.85-.9.95-1-.2-.75-.15-2.15-.3m1.6-5L4-.45 2.1-.7 0-.8l-.15-2.9L0-.8l2.1.1L4-.45l.2-2.1m-10.1-.3q-.05 1.9.4 3.05h-.05l-2.9 1.55L-5.55.2h.05q-.45-1.15-.4-3.05"
         fill="#fff"
         fill-rule="evenodd"
         transform="translate(11.6 4.2)"
         id="path950" />
      <path
         d="m6.5 3.1.9-.95.75-.85 1-2.25Q10.3-.1 10.9.9q.7 1.15-.4 2.05l-2.8.35-1.2-.2m-13.45.6-1.9-.15Q-11.5 3.05-11 1.3q.35-1.25 1.5-2.2l1.05 2.65.2.35 1.3 1.6"
         fill="#666"
         fill-rule="evenodd"
         transform="translate(11.6 4.2)"
         id="path952" />
      <path
         d="m2.6 2.45 2.15.3.75.15 1 .2 1.2.2 2.8-.35q1.1-.9.4-2.05-.6-1-1.75-1.85l-.3-.2Q6.5-2.9 2.7-3.4l-2.85-.3q-3-.05-5.75.85-2.35.8-3.6 1.95-1.15.95-1.5 2.2-.5 1.75 2.15 2.25l1.9.15 1.85-.25.8-.2.6-.15q3.1-.9 6.3-.65"
         fill="none"
         stroke="#333"
         stroke-linecap="round"
         stroke-linejoin="round"
         transform="translate(11.6 4.2)"
         id="path954" />
      <path
         d="M8.15 1.3Q6.9.35 5.65-.05L4-.45 3.35 1q-.55.8-.75 1.45m3.9.65.9-.95.75-.85 1-2.25M-.15-3.7 0-.8l2.1.1L4-.45l.2-2.1M0 1.65V-.8l-1.7.05-3.8.95.4.8 1.4 2.1m-5.8-4 1.05 2.65L-5.55.2h.05q-.45-1.15-.4-3.05m-2.55 4.6.2.35 1.3 1.6"
         fill="none"
         stroke="#666"
         stroke-linecap="round"
         stroke-linejoin="round"
         transform="translate(11.6 4.2)"
         id="path956" />
    </g>
    <path
       d="M6.7-.25q.25 1.9-.9 2.5.15.7-.3 1.65-.35.8-1.25.85-1.1.05-1.65-.45l-.1.15Q1.3 6.4-1.05 5.4q-1.1-.5-1.5-1.35l-.8-.1Q-6.5 3.5-6.7.75-6.9-1.8-4.45-2.3h.3q-.2-2.9 2.7-3.4 3.2-.35 4.55 1.85 3.25.2 3.6 3.6"
       fill="#666"
       fill-rule="evenodd"
       transform="translate(6.7 5.75)"
       id="f" />
    <style
       type="text/css"
       id="style1177">#_0,#_1,#_2{visibility:hidden}</style>
    <use
       height="8.4"
       width="23.25"
       xlink:href="#_0b"
       id="_0a" />
    <g
       id="_0b">
      <path
         d="m-.15-3.7 2.85.3q3.8.5 6.15 2.25l.3.2-1 2.25-.75.85-.9.95-1-.2-.75-.15-2.15-.3q.2-.65.75-1.45L4-.45l1.65.4q1.25.4 2.5 1.35Q6.9.35 5.65-.05L4-.45 3.35 1q-.55.8-.75 1.45-3.2-.25-6.3.65L-5.1 1l-.4-.8 3.8-.95L0-.8v2.45V-.8l-1.7.05-3.8.95.4.8 1.4 2.1-.6.15-.8.2-1.85.25-1.3-1.6-.2-.35L-9.5-.9q1.25-1.15 3.6-1.95-.05 1.9.4 3.05h-.05l-2.9 1.55L-5.55.2h.05q-.45-1.15-.4-3.05 2.75-.9 5.75-.85L0-.8l2.1.1L4-.45l.2-2.1L4-.45 2.1-.7 0-.8l-.15-2.9"
         fill="#fff"
         fill-rule="evenodd"
         transform="translate(11.6 4.2)"
         id="path1184" />
      <path
         d="m6.5 3.1.9-.95.75-.85 1-2.25Q10.3-.1 10.9.9q.7 1.15-.4 2.05l-2.8.35-1.2-.2m-16-4 1.05 2.65.2.35 1.3 1.6-1.9-.15Q-11.5 3.05-11 1.3q.35-1.25 1.5-2.2"
         fill="#666"
         fill-rule="evenodd"
         transform="translate(11.6 4.2)"
         id="path1186" />
      <path
         d="m9.15-.95-.3-.2Q6.5-2.9 2.7-3.4l-2.85-.3q-3-.05-5.75.85-2.35.8-3.6 1.95-1.15.95-1.5 2.2-.5 1.75 2.15 2.25l1.9.15 1.85-.25.8-.2.6-.15q3.1-.9 6.3-.65l2.15.3.75.15 1 .2 1.2.2 2.8-.35q1.1-.9.4-2.05-.6-1-1.75-1.85"
         fill="none"
         stroke="#333"
         stroke-linecap="round"
         stroke-linejoin="round"
         transform="translate(11.6 4.2)"
         id="path1188" />
      <path
         d="M-.15-3.7 0-.8l2.1.1L4-.45l.2-2.1M8.15 1.3Q6.9.35 5.65-.05L4-.45 3.35 1q-.55.8-.75 1.45m3.9.65.9-.95.75-.85 1-2.25M0 1.65V-.8l-1.7.05-3.8.95.4.8 1.4 2.1m-5.8-4 1.05 2.65L-5.55.2h.05q-.45-1.15-.4-3.05m-2.55 4.6.2.35 1.3 1.6"
         fill="none"
         stroke="#666"
         stroke-linecap="round"
         stroke-linejoin="round"
         transform="translate(11.6 4.2)"
         id="path1190" />
    </g>
    <use
       height="8.4"
       width="23.25"
       xlink:href="#_1b"
       id="_1a" />
    <g
       id="_1b">
      <path
         d="m-.15-3.7 2.85.3q3.8.5 6.15 2.25l.3.2-1 2.25-.75.85-.9.95-1-.2-.75-.15-2.15-.3q.2-.65.75-1.45L4-.45l1.65.4q1.25.4 2.5 1.35Q6.9.35 5.65-.05L4-.45 3.35 1q-.55.8-.75 1.45-3.2-.25-6.3.65L-5.1 1l-.4-.8 3.8-.95L0-.8v2.45V-.8l-1.7.05-3.8.95.4.8 1.4 2.1-.6.15-.8.2-1.85.25-1.3-1.6-.2-.35L-9.5-.9q1.25-1.15 3.6-1.95-.05 1.9.4 3.05h-.05l-2.9 1.55L-5.55.2h.05q-.45-1.15-.4-3.05 2.75-.9 5.75-.85L0-.8l2.1.1L4-.45l.2-2.1L4-.45 2.1-.7 0-.8l-.15-2.9"
         fill="#fff"
         fill-rule="evenodd"
         transform="translate(11.6 4.2)"
         id="path1199" />
      <path
         d="m6.5 3.1.9-.95.75-.85 1-2.25Q10.3-.1 10.9.9q.7 1.15-.4 2.05l-2.8.35-1.2-.2m-16-4 1.05 2.65.2.35 1.3 1.6-1.9-.15Q-11.5 3.05-11 1.3q.35-1.25 1.5-2.2"
         fill="#666"
         fill-rule="evenodd"
         transform="translate(11.6 4.2)"
         id="path1201" />
      <path
         d="m9.15-.95-.3-.2Q6.5-2.9 2.7-3.4l-2.85-.3q-3-.05-5.75.85-2.35.8-3.6 1.95-1.15.95-1.5 2.2-.5 1.75 2.15 2.25l1.9.15 1.85-.25.8-.2.6-.15q3.1-.9 6.3-.65l2.15.3.75.15 1 .2 1.2.2 2.8-.35q1.1-.9.4-2.05-.6-1-1.75-1.85"
         fill="none"
         stroke="#333"
         stroke-linecap="round"
         stroke-linejoin="round"
         transform="translate(11.6 4.2)"
         id="path1203" />
      <path
         d="M-.15-3.7 0-.8l2.1.1L4-.45l.2-2.1M8.15 1.3Q6.9.35 5.65-.05L4-.45 3.35 1q-.55.8-.75 1.45m3.9.65.9-.95.75-.85 1-2.25M0 1.65V-.8l-1.7.05-3.8.95.4.8 1.4 2.1m-5.8-4 1.05 2.65L-5.55.2h.05q-.45-1.15-.4-3.05m-2.55 4.6.2.35 1.3 1.6"
         fill="none"
         stroke="#666"
         stroke-linecap="round"
         stroke-linejoin="round"
         transform="translate(11.6 4.2)"
         id="path1205" />
    </g>
    <use
       height="8.4"
       width="23.25"
       xlink:href="#_2b"
       id="_2a" />
    <g
       id="_2b">
      <path
         d="m-.15-3.7 2.85.3q3.8.5 6.15 2.25l.3.2-1 2.25-.75.85-.9.95-1-.2-.75-.15-2.15-.3q.2-.65.75-1.45L4-.45l1.65.4q1.25.4 2.5 1.35Q6.9.35 5.65-.05L4-.45 3.35 1q-.55.8-.75 1.45-3.2-.25-6.3.65L-5.1 1l-.4-.8 3.8-.95L0-.8v2.45V-.8l-1.7.05-3.8.95.4.8 1.4 2.1-.6.15-.8.2-1.85.25-1.3-1.6-.2-.35L-9.5-.9q1.25-1.15 3.6-1.95-.05 1.9.4 3.05h-.05l-2.9 1.55L-5.55.2h.05q-.45-1.15-.4-3.05 2.75-.9 5.75-.85L0-.8l2.1.1L4-.45l.2-2.1L4-.45 2.1-.7 0-.8l-.15-2.9"
         fill="#fff"
         fill-rule="evenodd"
         transform="translate(11.6 4.2)"
         id="path1214" />
      <path
         d="m6.5 3.1.9-.95.75-.85 1-2.25Q10.3-.1 10.9.9q.7 1.15-.4 2.05l-2.8.35-1.2-.2m-16-4 1.05 2.65.2.35 1.3 1.6-1.9-.15Q-11.5 3.05-11 1.3q.35-1.25 1.5-2.2"
         fill="#666"
         fill-rule="evenodd"
         transform="translate(11.6 4.2)"
         id="path1216" />
      <path
         d="m9.15-.95-.3-.2Q6.5-2.9 2.7-3.4l-2.85-.3q-3-.05-5.75.85-2.35.8-3.6 1.95-1.15.95-1.5 2.2-.5 1.75 2.15 2.25l1.9.15 1.85-.25.8-.2.6-.15q3.1-.9 6.3-.65l2.15.3.75.15 1 .2 1.2.2 2.8-.35q1.1-.9.4-2.05-.6-1-1.75-1.85"
         fill="none"
         stroke="#333"
         stroke-linecap="round"
         stroke-linejoin="round"
         transform="translate(11.6 4.2)"
         id="path1218" />
      <path
         d="M-.15-3.7 0-.8l2.1.1L4-.45l.2-2.1M8.15 1.3Q6.9.35 5.65-.05L4-.45 3.35 1q-.55.8-.75 1.45m3.9.65.9-.95.75-.85 1-2.25M0 1.65V-.8l-1.7.05-3.8.95.4.8 1.4 2.1m-5.8-4 1.05 2.65L-5.55.2h.05q-.45-1.15-.4-3.05m-2.55 4.6.2.35 1.3 1.6"
         fill="none"
         stroke="#666"
         stroke-linecap="round"
         stroke-linejoin="round"
         transform="translate(11.6 4.2)"
         id="path1220" />
    </g>
    <style
       type="text/css"
       id="style1226">#_0,#_1,#_2{animation:0.12s linear _k infinite}#_0{animation-delay:0s}#_1{animation-delay:0.04s}#_2{animation-delay:0.08s}@keyframes _k{0%,33.333333%{visibility:visible}33.334167%,100%{visibility:hidden}}#_{visibility:hidden}</style>
  </defs>
  <g
     id="g1300"
     transform="translate(65.95,75.3)"
     style="opacity:1">
    <g
       id="_0"
       style="display:inline">&gt;<use
   height="8.3999996"
   transform="translate(0.6,1.1)"
   width="23.25"
   xlink:href="#_0a"
   id="use1181"
   x="0"
   y="0" />
<defs
   id="defs1193">
  <use
     height="8.3999996"
     width="23.25"
     xlink:href="#_0b"
     id="use1256"
     x="0"
     y="0" />
  <g
     id="g1266">
    <path
       d="m -0.15,-3.7 2.85,0.3 q 3.8,0.5 6.15,2.25 l 0.3,0.2 -1,2.25 L 7.4,2.15 6.5,3.1 5.5,2.9 4.75,2.75 2.6,2.45 Q 2.8,1.8 3.35,1 L 4,-0.45 5.65,-0.05 Q 6.9,0.35 8.15,1.3 6.9,0.35 5.65,-0.05 L 4,-0.45 3.35,1 Q 2.8,1.8 2.6,2.45 -0.6,2.2 -3.7,3.1 L -5.1,1 -5.5,0.2 -1.7,-0.75 0,-0.8 V 1.65 -0.8 L -1.7,-0.75 -5.5,0.2 -5.1,1 -3.7,3.1 -4.3,3.25 -5.1,3.45 -6.95,3.7 -8.25,2.1 -8.45,1.75 -9.5,-0.9 q 1.25,-1.15 3.6,-1.95 -0.05,1.9 0.4,3.05 h -0.05 l -2.9,1.55 2.9,-1.55 h 0.05 q -0.45,-1.15 -0.4,-3.05 2.75,-0.9 5.75,-0.85 L 0,-0.8 2.1,-0.7 4,-0.45 4.2,-2.55 4,-0.45 2.1,-0.7 0,-0.8 -0.15,-3.7"
       fill="#ffffff"
       fill-rule="evenodd"
       transform="translate(11.6,4.2)"
       id="path1258" />
    <path
       d="M 6.5,3.1 7.4,2.15 8.15,1.3 l 1,-2.25 Q 10.3,-0.1 10.9,0.9 11.6,2.05 10.5,2.95 L 7.7,3.3 6.5,3.1 m -16,-4 1.05,2.65 0.2,0.35 1.3,1.6 -1.9,-0.15 Q -11.5,3.05 -11,1.3 q 0.35,-1.25 1.5,-2.2"
       fill="#666666"
       fill-rule="evenodd"
       transform="translate(11.6,4.2)"
       id="path1260" />
    <path
       d="m 9.15,-0.95 -0.3,-0.2 Q 6.5,-2.9 2.7,-3.4 l -2.85,-0.3 q -3,-0.05 -5.75,0.85 -2.35,0.8 -3.6,1.95 -1.15,0.95 -1.5,2.2 -0.5,1.75 2.15,2.25 L -6.95,3.7 -5.1,3.45 -4.3,3.25 -3.7,3.1 Q -0.6,2.2 2.6,2.45 l 2.15,0.3 0.75,0.15 1,0.2 1.2,0.2 2.8,-0.35 q 1.1,-0.9 0.4,-2.05 -0.6,-1 -1.75,-1.85"
       fill="none"
       stroke="#333333"
       stroke-linecap="round"
       stroke-linejoin="round"
       transform="translate(11.6,4.2)"
       id="path1262" />
    <path
       d="M -0.15,-3.7 0,-0.8 2.1,-0.7 4,-0.45 4.2,-2.55 M 8.15,1.3 Q 6.9,0.35 5.65,-0.05 L 4,-0.45 3.35,1 Q 2.8,1.8 2.6,2.45 M 6.5,3.1 7.4,2.15 8.15,1.3 l 1,-2.25 M 0,1.65 V -0.8 l -1.7,0.05 -3.8,0.95 0.4,0.8 1.4,2.1 m -5.8,-4 1.05,2.65 2.9,-1.55 h 0.05 q -0.45,-1.15 -0.4,-3.05 m -2.55,4.6 0.2,0.35 1.3,1.6"
       fill="none"
       stroke="#666666"
       stroke-linecap="round"
       stroke-linejoin="round"
       transform="translate(11.6,4.2)"
       id="path1264" />
  </g>
</defs>
</g>
    <g
       id="_1"
       style="display:inline">&gt;<use
   height="8.3999996"
   transform="matrix(1.0538,0,0,0.8919,-0.024,1.554)"
   width="23.25"
   xlink:href="#_1a"
   id="use1196"
   x="0"
   y="0" />
<defs
   id="defs1208">
  <use
     height="8.3999996"
     width="23.25"
     xlink:href="#_1b"
     id="use1271"
     x="0"
     y="0" />
  <g
     id="g1281">
    <path
       d="m -0.15,-3.7 2.85,0.3 q 3.8,0.5 6.15,2.25 l 0.3,0.2 -1,2.25 L 7.4,2.15 6.5,3.1 5.5,2.9 4.75,2.75 2.6,2.45 Q 2.8,1.8 3.35,1 L 4,-0.45 5.65,-0.05 Q 6.9,0.35 8.15,1.3 6.9,0.35 5.65,-0.05 L 4,-0.45 3.35,1 Q 2.8,1.8 2.6,2.45 -0.6,2.2 -3.7,3.1 L -5.1,1 -5.5,0.2 -1.7,-0.75 0,-0.8 V 1.65 -0.8 L -1.7,-0.75 -5.5,0.2 -5.1,1 -3.7,3.1 -4.3,3.25 -5.1,3.45 -6.95,3.7 -8.25,2.1 -8.45,1.75 -9.5,-0.9 q 1.25,-1.15 3.6,-1.95 -0.05,1.9 0.4,3.05 h -0.05 l -2.9,1.55 2.9,-1.55 h 0.05 q -0.45,-1.15 -0.4,-3.05 2.75,-0.9 5.75,-0.85 L 0,-0.8 2.1,-0.7 4,-0.45 4.2,-2.55 4,-0.45 2.1,-0.7 0,-0.8 -0.15,-3.7"
       fill="#ffffff"
       fill-rule="evenodd"
       transform="translate(11.6,4.2)"
       id="path1273" />
    <path
       d="M 6.5,3.1 7.4,2.15 8.15,1.3 l 1,-2.25 Q 10.3,-0.1 10.9,0.9 11.6,2.05 10.5,2.95 L 7.7,3.3 6.5,3.1 m -16,-4 1.05,2.65 0.2,0.35 1.3,1.6 -1.9,-0.15 Q -11.5,3.05 -11,1.3 q 0.35,-1.25 1.5,-2.2"
       fill="#666666"
       fill-rule="evenodd"
       transform="translate(11.6,4.2)"
       id="path1275" />
    <path
       d="m 9.15,-0.95 -0.3,-0.2 Q 6.5,-2.9 2.7,-3.4 l -2.85,-0.3 q -3,-0.05 -5.75,0.85 -2.35,0.8 -3.6,1.95 -1.15,0.95 -1.5,2.2 -0.5,1.75 2.15,2.25 L -6.95,3.7 -5.1,3.45 -4.3,3.25 -3.7,3.1 Q -0.6,2.2 2.6,2.45 l 2.15,0.3 0.75,0.15 1,0.2 1.2,0.2 2.8,-0.35 q 1.1,-0.9 0.4,-2.05 -0.6,-1 -1.75,-1.85"
       fill="none"
       stroke="#333333"
       stroke-linecap="round"
       stroke-linejoin="round"
       transform="translate(11.6,4.2)"
       id="path1277" />
    <path
       d="M -0.15,-3.7 0,-0.8 2.1,-0.7 4,-0.45 4.2,-2.55 M 8.15,1.3 Q 6.9,0.35 5.65,-0.05 L 4,-0.45 3.35,1 Q 2.8,1.8 2.6,2.45 M 6.5,3.1 7.4,2.15 8.15,1.3 l 1,-2.25 M 0,1.65 V -0.8 l -1.7,0.05 -3.8,0.95 0.4,0.8 1.4,2.1 m -5.8,-4 1.05,2.65 2.9,-1.55 h 0.05 q -0.45,-1.15 -0.4,-3.05 m -2.55,4.6 0.2,0.35 1.3,1.6"
       fill="none"
       stroke="#666666"
       stroke-linecap="round"
       stroke-linejoin="round"
       transform="translate(11.6,4.2)"
       id="path1279" />
  </g>
</defs>
</g>
    <g
       id="_2"
       style="display:inline">&gt;<use
   height="8.3999996"
   transform="matrix(0.8924,0,0,1.2667,1.848,-0.02)"
   width="23.25"
   xlink:href="#_2a"
   id="use1211"
   x="0"
   y="0" />
<defs
   id="defs1223">
  <use
     height="8.3999996"
     width="23.25"
     xlink:href="#_2b"
     id="use1286"
     x="0"
     y="0" />
  <g
     id="g1296">
    <path
       d="m -0.15,-3.7 2.85,0.3 q 3.8,0.5 6.15,2.25 l 0.3,0.2 -1,2.25 L 7.4,2.15 6.5,3.1 5.5,2.9 4.75,2.75 2.6,2.45 Q 2.8,1.8 3.35,1 L 4,-0.45 5.65,-0.05 Q 6.9,0.35 8.15,1.3 6.9,0.35 5.65,-0.05 L 4,-0.45 3.35,1 Q 2.8,1.8 2.6,2.45 -0.6,2.2 -3.7,3.1 L -5.1,1 -5.5,0.2 -1.7,-0.75 0,-0.8 V 1.65 -0.8 L -1.7,-0.75 -5.5,0.2 -5.1,1 -3.7,3.1 -4.3,3.25 -5.1,3.45 -6.95,3.7 -8.25,2.1 -8.45,1.75 -9.5,-0.9 q 1.25,-1.15 3.6,-1.95 -0.05,1.9 0.4,3.05 h -0.05 l -2.9,1.55 2.9,-1.55 h 0.05 q -0.45,-1.15 -0.4,-3.05 2.75,-0.9 5.75,-0.85 L 0,-0.8 2.1,-0.7 4,-0.45 4.2,-2.55 4,-0.45 2.1,-0.7 0,-0.8 -0.15,-3.7"
       fill="#ffffff"
       fill-rule="evenodd"
       transform="translate(11.6,4.2)"
       id="path1288" />
    <path
       d="M 6.5,3.1 7.4,2.15 8.15,1.3 l 1,-2.25 Q 10.3,-0.1 10.9,0.9 11.6,2.05 10.5,2.95 L 7.7,3.3 6.5,3.1 m -16,-4 1.05,2.65 0.2,0.35 1.3,1.6 -1.9,-0.15 Q -11.5,3.05 -11,1.3 q 0.35,-1.25 1.5,-2.2"
       fill="#666666"
       fill-rule="evenodd"
       transform="translate(11.6,4.2)"
       id="path1290" />
    <path
       d="m 9.15,-0.95 -0.3,-0.2 Q 6.5,-2.9 2.7,-3.4 l -2.85,-0.3 q -3,-0.05 -5.75,0.85 -2.35,0.8 -3.6,1.95 -1.15,0.95 -1.5,2.2 -0.5,1.75 2.15,2.25 L -6.95,3.7 -5.1,3.45 -4.3,3.25 -3.7,3.1 Q -0.6,2.2 2.6,2.45 l 2.15,0.3 0.75,0.15 1,0.2 1.2,0.2 2.8,-0.35 q 1.1,-0.9 0.4,-2.05 -0.6,-1 -1.75,-1.85"
       fill="none"
       stroke="#333333"
       stroke-linecap="round"
       stroke-linejoin="round"
       transform="translate(11.6,4.2)"
       id="path1292" />
    <path
       d="M -0.15,-3.7 0,-0.8 2.1,-0.7 4,-0.45 4.2,-2.55 M 8.15,1.3 Q 6.9,0.35 5.65,-0.05 L 4,-0.45 3.35,1 Q 2.8,1.8 2.6,2.45 M 6.5,3.1 7.4,2.15 8.15,1.3 l 1,-2.25 M 0,1.65 V -0.8 l -1.7,0.05 -3.8,0.95 0.4,0.8 1.4,2.1 m -5.8,-4 1.05,2.65 2.9,-1.55 h 0.05 q -0.45,-1.15 -0.4,-3.05 m -2.55,4.6 0.2,0.35 1.3,1.6"
       fill="none"
       stroke="#666666"
       stroke-linecap="round"
       stroke-linejoin="round"
       transform="translate(11.6,4.2)"
       id="path1294" />
  </g>
</defs>
</g>
  </g>
</svg>
