<?xml version="1.0" encoding="UTF-8" standalone="no"?>
<svg
   height="100.8"
   width="132.65"
   version="1.1"
   id="svg73725"
   sodipodi:docname="fearful.svg"
   inkscape:version="1.1.1 (3bf5ae0d25, 2021-09-20, custom)"
   xmlns:inkscape="http://www.inkscape.org/namespaces/inkscape"
   xmlns:sodipodi="http://sodipodi.sourceforge.net/DTD/sodipodi-0.dtd"
   xmlns:xlink="http://www.w3.org/1999/xlink"
   xmlns="http://www.w3.org/2000/svg"
   xmlns:svg="http://www.w3.org/2000/svg">
  <sodipodi:namedview
     id="namedview73727"
     pagecolor="#505050"
     bordercolor="#eeeeee"
     borderopacity="1"
     inkscape:pageshadow="0"
     inkscape:pageopacity="0"
     inkscape:pagecheckerboard="0"
     showgrid="false"
     inkscape:current-layer="svg73725" />
  <g
     transform="translate(77.75,73.55)"
     id="g73673">
    <use
       height="28.5"
       transform="translate(-12.85,-14.6)"
       width="25.5"
       xlink:href="#a"
       id="use73667"
       x="0"
       y="0"
       style="display:inline" />
    <use
       height="10.85"
       transform="translate(-8.75,-8.7)"
       width="17.549999"
       xlink:href="#c"
       id="use73671"
       x="0"
       y="0"
       style="display:inline" />
  </g>
  <defs
     id="defs73723">
    <g
       id="a"
       fill-rule="evenodd">
      <path
         d="M12.65-.35q0 5.9-3.75 10.05t-9 4.2q-5.3-.05-9-4.2-3.75-4.15-3.75-10.05 0-5.95 3.75-10.1 3.7-4.15 9-4.15 5.25 0 9 4.15t3.75 10.1"
         fill="url(#d)"
         transform="translate(12.85 14.6)"
         id="path73675" />
      <path
         d="M7.2-1.05q3 .6 3 1.45t-3 1.5l-7.15.6-7.2-.6q-3-.65-2.95-1.5-.05-.85 2.95-1.45l7.2-.65 7.15.65"
         fill="#9c0"
         transform="translate(12.85 14.6)"
         id="path73677" />
    </g>
    <g
       id="b"
       transform="translate(21.9 19.75)">
      <use
         height="18.35"
         transform="translate(-11.45 -5.95)"
         width="23.25"
         xlink:href="#e"
         id="use73680" />
      <use
         height="2.4"
         transform="translate(-20.35 -17.6)"
         width="2.4"
         xlink:href="#f"
         id="use73682" />
      <use
         height="2.4"
         transform="translate(-17.45 -14.25)"
         width="2.4"
         xlink:href="#f"
         id="use73684" />
      <use
         height="2.4"
         transform="translate(-13.3 -15.35)"
         width="2.4"
         xlink:href="#f"
         id="use73686" />
      <use
         height="2.4"
         transform="translate(10.95 -13.25)"
         width="2.4"
         xlink:href="#f"
         id="use73688" />
      <use
         height="2.4"
         transform="translate(20.45 -15.35)"
         width="2.4"
         xlink:href="#f"
         id="use73690" />
      <use
         height="2.4"
         transform="translate(15.55 -15.55)"
         width="2.4"
         xlink:href="#f"
         id="use73692" />
      <use
         height="2.4"
         transform="translate(-15.35 -18.7)"
         width="2.4"
         xlink:href="#f"
         id="use73694" />
      <use
         height="2.4"
         transform="translate(15.45 -11.95)"
         width="2.4"
         xlink:href="#f"
         id="use73696" />
    </g>
    <g
       id="g">
      <path
         d="M3-.9q.9-.95.6-2.4-.45-2.35-2.55-1.6-.65.2-.35.95.45 1.2-.5 1.35-2.65.55-2.2-1.6.1-.6-.4-.6-2.35-.1-2.15 2.35Q-4.4-1-3.6.05l-.25.15Q-5.6 1.45-5.1 3.95l-3.75.15Q-11.5 3.25-11 .15q.75-4.7 5.1-7.3 4.05-2.35 8.6-1 3.8.95 6.15 3.95 1.4 1.65 2.05 3.65.7 2-.4 3.6-.65.85-2.8.55l-2.2-.65q.25-.65 0-1.3Q4.85-.2 3-.9"
         fill="#333"
         fill-rule="evenodd"
         transform="translate(11.6 9.15)"
         id="path73699" />
      <path
         d="m3-.9-.05-.05-3.6-.25Q-2.3-.85-3.6.05q-.8-1.05-.95-2.5-.2-2.45 2.15-2.35.5 0 .4.6-.45 2.15 2.2 1.6.95-.15.5-1.35-.3-.75.35-.95 2.1-.75 2.55 1.6.3 1.45-.6 2.4"
         fill-rule="evenodd"
         transform="translate(11.6 9.15)"
         id="path73701" />
      <path
         d="M-3.6.05q1.3-.9 2.95-1.25l3.6.25L3-.9q1.85.7 2.5 2.55.25.65 0 1.3l-.75-.3q-4.6-1.6-9.05.9l-.8.4Q-5.6 1.45-3.85.2l.25-.15"
         fill="#c00"
         fill-rule="evenodd"
         transform="translate(11.6 9.15)"
         id="path73703" />
      <path
         d="m-5.1 3.95.8-.4q4.45-2.5 9.05-.9l.75.3 2.2.65q2.15.3 2.8-.55 1.1-1.6.4-3.6-.65-2-2.05-3.65-2.35-3-6.15-3.95-4.55-1.35-8.6 1-4.35 2.6-5.1 7.3-.5 3.1 2.15 3.95l3.75-.15M2.35 5.3q.1 1.35 1.25 1.95M.6 4.8v3.9m-2.25-3.4q0 .9-.3 1.75"
         fill="none"
         stroke="#333"
         stroke-linecap="round"
         stroke-linejoin="round"
         transform="translate(11.6 9.15)"
         id="path73705" />
    </g>
    <g
       id="c">
      <path
         d="M8.3-2.3 8.05-.45l-.9 1.6q-1 1.2-2.3 1.4l-.5.05-1-.15q-1.05-.35-1.8-1.3Q.5-.2.4-1.95v-.35Q.35-4.35 1.55-5.75q1.1-1.45 2.8-1.45 1.65 0 2.8 1.45Q8.3-4.35 8.3-2.3m-16.55.05q-.05-2 1.15-3.45Q-6-7.15-4.3-7.15q1.65 0 2.8 1.45t1.15 3.45v.3Q-.45-.15-1.5 1.2l-1.3 1.1-1.5.35-1.1-.2q-.95-.3-1.7-1.25Q-7.7.5-8-.4q-.3-.85-.25-1.85"
         fill="#fff"
         fill-rule="evenodd"
         transform="translate(8.75 7.7)"
         id="path73708" />
      <path
         d="M8.3-2.3 8.05-.45l-.9 1.6q-1 1.2-2.3 1.4l-.5.05-1-.15q-1.05-.35-1.8-1.3Q.5-.2.4-1.95v-.35Q.35-4.35 1.55-5.75q1.1-1.45 2.8-1.45 1.65 0 2.8 1.45Q8.3-4.35 8.3-2.3m-16.55.05q-.05-2 1.15-3.45Q-6-7.15-4.3-7.15q1.65 0 2.8 1.45t1.15 3.45v.3Q-.45-.15-1.5 1.2l-1.3 1.1-1.5.35-1.1-.2q-.95-.3-1.7-1.25Q-7.7.5-8-.4q-.3-.85-.25-1.85"
         fill="none"
         stroke="#666"
         stroke-linecap="round"
         stroke-linejoin="round"
         transform="translate(8.75 7.7)"
         id="path73710" />
      <path
         d="m-4.3-2.5.2-.5.45-.15.45.15.2.5-.2.45-.45.2q-.25 0-.45-.2l-.2-.45m7.25 0 .2-.5.45-.15.45.15.2.5-.2.45-.45.2q-.25 0-.45-.2l-.2-.45"
         fill-rule="evenodd"
         transform="translate(8.75 7.7)"
         id="path73712" />
    </g>
    <use
       height="18.35"
       width="23.25"
       xlink:href="#g"
       id="e" />
    <use
       height="2.4"
       width="2.4"
       xlink:href="#h"
       id="f" />
    <radialGradient
       cx="0"
       cy="0"
       gradientTransform="matrix(.0288 0 0 .0247 -.1 -.4)"
       gradientUnits="userSpaceOnUse"
       id="d"
       r="819.2"
       spreadMethod="pad">
      <stop
         offset="0"
         stop-color="#aad658"
         id="stop73717" />
      <stop
         offset=".537"
         stop-color="#acdd51"
         stop-opacity="0"
         id="stop73719" />
    </radialGradient>
    <path
       d="M.85-.85q.35.35.35.85T.85.85Q.5 1.2 0 1.2T-.85.85Q-1.2.5-1.2 0t.35-.85Q-.5-1.2 0-1.2t.85.35"
       fill="#fff"
       fill-rule="evenodd"
       transform="translate(1.2 1.2)"
       id="h" />
    <style
       type="text/css"
       id="style74236">#_0,#_1,#_2,#_3,#_4,#_5,#_6,#_7,#_8,#_9{visibility:hidden}</style>
    <use
       height="18.35"
       width="23.25"
       xlink:href="#_0c"
       id="_0a" />
    <use
       height="2.4"
       width="2.4"
       xlink:href="#_0d"
       id="_0b" />
    <path
       d="M.85-.85q.35.35.35.85T.85.85Q.5 1.2 0 1.2T-.85.85Q-1.2.5-1.2 0t.35-.85Q-.5-1.2 0-1.2t.85.35"
       fill="#fff"
       fill-rule="evenodd"
       transform="translate(1.2 1.2)"
       id="_0d" />
    <g
       id="_0c">
      <path
         d="m-5.1 3.95-3.75.15Q-11.5 3.25-11 .15q.75-4.7 5.1-7.3 4.05-2.35 8.6-1 3.8.95 6.15 3.95 1.4 1.65 2.05 3.65.7 2-.4 3.6-.65.85-2.8.55l-2.2-.65q.25-.65 0-1.3Q4.85-.2 3-.9q.9-.95.6-2.4-.45-2.35-2.55-1.6-.65.2-.35.95.45 1.2-.5 1.35-2.65.55-2.2-1.6.1-.6-.4-.6-2.35-.1-2.15 2.35Q-4.4-1-3.6.05l-.25.15Q-5.6 1.45-5.1 3.95"
         fill="#333"
         fill-rule="evenodd"
         transform="translate(11.6 9.15)"
         id="path74263" />
      <path
         d="M-3.6.05q-.8-1.05-.95-2.5-.2-2.45 2.15-2.35.5 0 .4.6-.45 2.15 2.2 1.6.95-.15.5-1.35-.3-.75.35-.95 2.1-.75 2.55 1.6.3 1.45-.6 2.4l-.05-.05-3.6-.25Q-2.3-.85-3.6.05"
         fill-rule="evenodd"
         transform="translate(11.6 9.15)"
         id="path74265" />
      <path
         d="M-5.1 3.95Q-5.6 1.45-3.85.2l.25-.15q1.3-.9 2.95-1.25l3.6.25L3-.9q1.85.7 2.5 2.55.25.65 0 1.3l-.75-.3q-4.6-1.6-9.05.9l-.8.4"
         fill="#c00"
         fill-rule="evenodd"
         transform="translate(11.6 9.15)"
         id="path74267" />
      <path
         d="m5.5 2.95 2.2.65q2.15.3 2.8-.55 1.1-1.6.4-3.6-.65-2-2.05-3.65-2.35-3-6.15-3.95-4.55-1.35-8.6 1-4.35 2.6-5.1 7.3-.5 3.1 2.15 3.95l3.75-.15.8-.4q4.45-2.5 9.05-.9l.75.3M-1.65 5.3q0 .9-.3 1.75M.6 4.8v3.9m1.75-3.4q.1 1.35 1.25 1.95"
         fill="none"
         stroke="#333"
         stroke-linecap="round"
         stroke-linejoin="round"
         transform="translate(11.6 9.15)"
         id="path74269" />
    </g>
    <use
       height="18.35"
       width="23.25"
       xlink:href="#_1c"
       id="_1a" />
    <use
       height="2.4"
       width="2.4"
       xlink:href="#_1d"
       id="_1b" />
    <path
       d="M.85-.85q.35.35.35.85T.85.85Q.5 1.2 0 1.2T-.85.85Q-1.2.5-1.2 0t.35-.85Q-.5-1.2 0-1.2t.85.35"
       fill="#fff"
       fill-rule="evenodd"
       transform="translate(1.2 1.2)"
       id="_1d" />
    <g
       id="_1c">
      <path
         d="m-5.1 3.95-3.75.15Q-11.5 3.25-11 .15q.75-4.7 5.1-7.3 4.05-2.35 8.6-1 3.8.95 6.15 3.95 1.4 1.65 2.05 3.65.7 2-.4 3.6-.65.85-2.8.55l-2.2-.65q.25-.65 0-1.3Q4.85-.2 3-.9q.9-.95.6-2.4-.45-2.35-2.55-1.6-.65.2-.35.95.45 1.2-.5 1.35-2.65.55-2.2-1.6.1-.6-.4-.6-2.35-.1-2.15 2.35Q-4.4-1-3.6.05l-.25.15Q-5.6 1.45-5.1 3.95"
         fill="#333"
         fill-rule="evenodd"
         transform="translate(11.6 9.15)"
         id="path74298" />
      <path
         d="M-3.6.05q-.8-1.05-.95-2.5-.2-2.45 2.15-2.35.5 0 .4.6-.45 2.15 2.2 1.6.95-.15.5-1.35-.3-.75.35-.95 2.1-.75 2.55 1.6.3 1.45-.6 2.4l-.05-.05-3.6-.25Q-2.3-.85-3.6.05"
         fill-rule="evenodd"
         transform="translate(11.6 9.15)"
         id="path74300" />
      <path
         d="M-5.1 3.95Q-5.6 1.45-3.85.2l.25-.15q1.3-.9 2.95-1.25l3.6.25L3-.9q1.85.7 2.5 2.55.25.65 0 1.3l-.75-.3q-4.6-1.6-9.05.9l-.8.4"
         fill="#c00"
         fill-rule="evenodd"
         transform="translate(11.6 9.15)"
         id="path74302" />
      <path
         d="m5.5 2.95 2.2.65q2.15.3 2.8-.55 1.1-1.6.4-3.6-.65-2-2.05-3.65-2.35-3-6.15-3.95-4.55-1.35-8.6 1-4.35 2.6-5.1 7.3-.5 3.1 2.15 3.95l3.75-.15.8-.4q4.45-2.5 9.05-.9l.75.3M-1.65 5.3q0 .9-.3 1.75M.6 4.8v3.9m1.75-3.4q.1 1.35 1.25 1.95"
         fill="none"
         stroke="#333"
         stroke-linecap="round"
         stroke-linejoin="round"
         transform="translate(11.6 9.15)"
         id="path74304" />
    </g>
    <use
       height="18.35"
       width="23.25"
       xlink:href="#_2c"
       id="_2a" />
    <use
       height="2.4"
       width="2.4"
       xlink:href="#_2d"
       id="_2b" />
    <path
       d="M.85-.85q.35.35.35.85T.85.85Q.5 1.2 0 1.2T-.85.85Q-1.2.5-1.2 0t.35-.85Q-.5-1.2 0-1.2t.85.35"
       fill="#fff"
       fill-rule="evenodd"
       transform="translate(1.2 1.2)"
       id="_2d" />
    <g
       id="_2c">
      <path
         d="m-5.1 3.95-3.75.15Q-11.5 3.25-11 .15q.75-4.7 5.1-7.3 4.05-2.35 8.6-1 3.8.95 6.15 3.95 1.4 1.65 2.05 3.65.7 2-.4 3.6-.65.85-2.8.55l-2.2-.65q.25-.65 0-1.3Q4.85-.2 3-.9q.9-.95.6-2.4-.45-2.35-2.55-1.6-.65.2-.35.95.45 1.2-.5 1.35-2.65.55-2.2-1.6.1-.6-.4-.6-2.35-.1-2.15 2.35Q-4.4-1-3.6.05l-.25.15Q-5.6 1.45-5.1 3.95"
         fill="#333"
         fill-rule="evenodd"
         transform="translate(11.6 9.15)"
         id="path74333" />
      <path
         d="M-3.6.05q-.8-1.05-.95-2.5-.2-2.45 2.15-2.35.5 0 .4.6-.45 2.15 2.2 1.6.95-.15.5-1.35-.3-.75.35-.95 2.1-.75 2.55 1.6.3 1.45-.6 2.4l-.05-.05-3.6-.25Q-2.3-.85-3.6.05"
         fill-rule="evenodd"
         transform="translate(11.6 9.15)"
         id="path74335" />
      <path
         d="M-5.1 3.95Q-5.6 1.45-3.85.2l.25-.15q1.3-.9 2.95-1.25l3.6.25L3-.9q1.85.7 2.5 2.55.25.65 0 1.3l-.75-.3q-4.6-1.6-9.05.9l-.8.4"
         fill="#c00"
         fill-rule="evenodd"
         transform="translate(11.6 9.15)"
         id="path74337" />
      <path
         d="m5.5 2.95 2.2.65q2.15.3 2.8-.55 1.1-1.6.4-3.6-.65-2-2.05-3.65-2.35-3-6.15-3.95-4.55-1.35-8.6 1-4.35 2.6-5.1 7.3-.5 3.1 2.15 3.95l3.75-.15.8-.4q4.45-2.5 9.05-.9l.75.3M-1.65 5.3q0 .9-.3 1.75M.6 4.8v3.9m1.75-3.4q.1 1.35 1.25 1.95"
         fill="none"
         stroke="#333"
         stroke-linecap="round"
         stroke-linejoin="round"
         transform="translate(11.6 9.15)"
         id="path74339" />
    </g>
    <use
       height="18.35"
       width="23.25"
       xlink:href="#_3c"
       id="_3a" />
    <use
       height="2.4"
       width="2.4"
       xlink:href="#_3d"
       id="_3b" />
    <path
       d="M.85-.85q.35.35.35.85T.85.85Q.5 1.2 0 1.2T-.85.85Q-1.2.5-1.2 0t.35-.85Q-.5-1.2 0-1.2t.85.35"
       fill="#fff"
       fill-rule="evenodd"
       transform="translate(1.2 1.2)"
       id="_3d" />
    <g
       id="_3c">
      <path
         d="m-5.1 3.95-3.75.15Q-11.5 3.25-11 .15q.75-4.7 5.1-7.3 4.05-2.35 8.6-1 3.8.95 6.15 3.95 1.4 1.65 2.05 3.65.7 2-.4 3.6-.65.85-2.8.55l-2.2-.65q.25-.65 0-1.3Q4.85-.2 3-.9q.9-.95.6-2.4-.45-2.35-2.55-1.6-.65.2-.35.95.45 1.2-.5 1.35-2.65.55-2.2-1.6.1-.6-.4-.6-2.35-.1-2.15 2.35Q-4.4-1-3.6.05l-.25.15Q-5.6 1.45-5.1 3.95"
         fill="#333"
         fill-rule="evenodd"
         transform="translate(11.6 9.15)"
         id="path74368" />
      <path
         d="M-3.6.05q-.8-1.05-.95-2.5-.2-2.45 2.15-2.35.5 0 .4.6-.45 2.15 2.2 1.6.95-.15.5-1.35-.3-.75.35-.95 2.1-.75 2.55 1.6.3 1.45-.6 2.4l-.05-.05-3.6-.25Q-2.3-.85-3.6.05"
         fill-rule="evenodd"
         transform="translate(11.6 9.15)"
         id="path74370" />
      <path
         d="M-5.1 3.95Q-5.6 1.45-3.85.2l.25-.15q1.3-.9 2.95-1.25l3.6.25L3-.9q1.85.7 2.5 2.55.25.65 0 1.3l-.75-.3q-4.6-1.6-9.05.9l-.8.4"
         fill="#c00"
         fill-rule="evenodd"
         transform="translate(11.6 9.15)"
         id="path74372" />
      <path
         d="m5.5 2.95 2.2.65q2.15.3 2.8-.55 1.1-1.6.4-3.6-.65-2-2.05-3.65-2.35-3-6.15-3.95-4.55-1.35-8.6 1-4.35 2.6-5.1 7.3-.5 3.1 2.15 3.95l3.75-.15.8-.4q4.45-2.5 9.05-.9l.75.3M-1.65 5.3q0 .9-.3 1.75M.6 4.8v3.9m1.75-3.4q.1 1.35 1.25 1.95"
         fill="none"
         stroke="#333"
         stroke-linecap="round"
         stroke-linejoin="round"
         transform="translate(11.6 9.15)"
         id="path74374" />
    </g>
    <use
       height="18.35"
       width="23.25"
       xlink:href="#_4c"
       id="_4a" />
    <use
       height="2.4"
       width="2.4"
       xlink:href="#_4d"
       id="_4b" />
    <path
       d="M.85-.85q.35.35.35.85T.85.85Q.5 1.2 0 1.2T-.85.85Q-1.2.5-1.2 0t.35-.85Q-.5-1.2 0-1.2t.85.35"
       fill="#fff"
       fill-rule="evenodd"
       transform="translate(1.2 1.2)"
       id="_4d" />
    <g
       id="_4c">
      <path
         d="m-5.1 3.95-3.75.15Q-11.5 3.25-11 .15q.75-4.7 5.1-7.3 4.05-2.35 8.6-1 3.8.95 6.15 3.95 1.4 1.65 2.05 3.65.7 2-.4 3.6-.65.85-2.8.55l-2.2-.65q.25-.65 0-1.3Q4.85-.2 3-.9q.9-.95.6-2.4-.45-2.35-2.55-1.6-.65.2-.35.95.45 1.2-.5 1.35-2.65.55-2.2-1.6.1-.6-.4-.6-2.35-.1-2.15 2.35Q-4.4-1-3.6.05l-.25.15Q-5.6 1.45-5.1 3.95"
         fill="#333"
         fill-rule="evenodd"
         transform="translate(11.6 9.15)"
         id="path74403" />
      <path
         d="M-3.6.05q-.8-1.05-.95-2.5-.2-2.45 2.15-2.35.5 0 .4.6-.45 2.15 2.2 1.6.95-.15.5-1.35-.3-.75.35-.95 2.1-.75 2.55 1.6.3 1.45-.6 2.4l-.05-.05-3.6-.25Q-2.3-.85-3.6.05"
         fill-rule="evenodd"
         transform="translate(11.6 9.15)"
         id="path74405" />
      <path
         d="M-5.1 3.95Q-5.6 1.45-3.85.2l.25-.15q1.3-.9 2.95-1.25l3.6.25L3-.9q1.85.7 2.5 2.55.25.65 0 1.3l-.75-.3q-4.6-1.6-9.05.9l-.8.4"
         fill="#c00"
         fill-rule="evenodd"
         transform="translate(11.6 9.15)"
         id="path74407" />
      <path
         d="m5.5 2.95 2.2.65q2.15.3 2.8-.55 1.1-1.6.4-3.6-.65-2-2.05-3.65-2.35-3-6.15-3.95-4.55-1.35-8.6 1-4.35 2.6-5.1 7.3-.5 3.1 2.15 3.95l3.75-.15.8-.4q4.45-2.5 9.05-.9l.75.3M-1.65 5.3q0 .9-.3 1.75M.6 4.8v3.9m1.75-3.4q.1 1.35 1.25 1.95"
         fill="none"
         stroke="#333"
         stroke-linecap="round"
         stroke-linejoin="round"
         transform="translate(11.6 9.15)"
         id="path74409" />
    </g>
    <use
       height="18.35"
       width="23.25"
       xlink:href="#_5c"
       id="_5a" />
    <use
       height="2.4"
       width="2.4"
       xlink:href="#_5d"
       id="_5b" />
    <path
       d="M.85-.85q.35.35.35.85T.85.85Q.5 1.2 0 1.2T-.85.85Q-1.2.5-1.2 0t.35-.85Q-.5-1.2 0-1.2t.85.35"
       fill="#fff"
       fill-rule="evenodd"
       transform="translate(1.2 1.2)"
       id="_5d" />
    <g
       id="_5c">
      <path
         d="m-5.1 3.95-3.75.15Q-11.5 3.25-11 .15q.75-4.7 5.1-7.3 4.05-2.35 8.6-1 3.8.95 6.15 3.95 1.4 1.65 2.05 3.65.7 2-.4 3.6-.65.85-2.8.55l-2.2-.65q.25-.65 0-1.3Q4.85-.2 3-.9q.9-.95.6-2.4-.45-2.35-2.55-1.6-.65.2-.35.95.45 1.2-.5 1.35-2.65.55-2.2-1.6.1-.6-.4-.6-2.35-.1-2.15 2.35Q-4.4-1-3.6.05l-.25.15Q-5.6 1.45-5.1 3.95"
         fill="#333"
         fill-rule="evenodd"
         transform="translate(11.6 9.15)"
         id="path74440" />
      <path
         d="M-3.6.05q-.8-1.05-.95-2.5-.2-2.45 2.15-2.35.5 0 .4.6-.45 2.15 2.2 1.6.95-.15.5-1.35-.3-.75.35-.95 2.1-.75 2.55 1.6.3 1.45-.6 2.4l-.05-.05-3.6-.25Q-2.3-.85-3.6.05"
         fill-rule="evenodd"
         transform="translate(11.6 9.15)"
         id="path74442" />
      <path
         d="M-5.1 3.95Q-5.6 1.45-3.85.2l.25-.15q1.3-.9 2.95-1.25l3.6.25L3-.9q1.85.7 2.5 2.55.25.65 0 1.3l-.75-.3q-4.6-1.6-9.05.9l-.8.4"
         fill="#c00"
         fill-rule="evenodd"
         transform="translate(11.6 9.15)"
         id="path74444" />
      <path
         d="m5.5 2.95 2.2.65q2.15.3 2.8-.55 1.1-1.6.4-3.6-.65-2-2.05-3.65-2.35-3-6.15-3.95-4.55-1.35-8.6 1-4.35 2.6-5.1 7.3-.5 3.1 2.15 3.95l3.75-.15.8-.4q4.45-2.5 9.05-.9l.75.3M-1.65 5.3q0 .9-.3 1.75M.6 4.8v3.9m1.75-3.4q.1 1.35 1.25 1.95"
         fill="none"
         stroke="#333"
         stroke-linecap="round"
         stroke-linejoin="round"
         transform="translate(11.6 9.15)"
         id="path74446" />
    </g>
    <use
       height="18.35"
       width="23.25"
       xlink:href="#_6c"
       id="_6a" />
    <use
       height="2.4"
       width="2.4"
       xlink:href="#_6d"
       id="_6b" />
    <path
       d="M.85-.85q.35.35.35.85T.85.85Q.5 1.2 0 1.2T-.85.85Q-1.2.5-1.2 0t.35-.85Q-.5-1.2 0-1.2t.85.35"
       fill="#fff"
       fill-rule="evenodd"
       transform="translate(1.2 1.2)"
       id="_6d" />
    <g
       id="_6c">
      <path
         d="m-5.1 3.95-3.75.15Q-11.5 3.25-11 .15q.75-4.7 5.1-7.3 4.05-2.35 8.6-1 3.8.95 6.15 3.95 1.4 1.65 2.05 3.65.7 2-.4 3.6-.65.85-2.8.55l-2.2-.65q.25-.65 0-1.3Q4.85-.2 3-.9q.9-.95.6-2.4-.45-2.35-2.55-1.6-.65.2-.35.95.45 1.2-.5 1.35-2.65.55-2.2-1.6.1-.6-.4-.6-2.35-.1-2.15 2.35Q-4.4-1-3.6.05l-.25.15Q-5.6 1.45-5.1 3.95"
         fill="#333"
         fill-rule="evenodd"
         transform="translate(11.6 9.15)"
         id="path74477" />
      <path
         d="M-3.6.05q-.8-1.05-.95-2.5-.2-2.45 2.15-2.35.5 0 .4.6-.45 2.15 2.2 1.6.95-.15.5-1.35-.3-.75.35-.95 2.1-.75 2.55 1.6.3 1.45-.6 2.4l-.05-.05-3.6-.25Q-2.3-.85-3.6.05"
         fill-rule="evenodd"
         transform="translate(11.6 9.15)"
         id="path74479" />
      <path
         d="M-5.1 3.95Q-5.6 1.45-3.85.2l.25-.15q1.3-.9 2.95-1.25l3.6.25L3-.9q1.85.7 2.5 2.55.25.65 0 1.3l-.75-.3q-4.6-1.6-9.05.9l-.8.4"
         fill="#c00"
         fill-rule="evenodd"
         transform="translate(11.6 9.15)"
         id="path74481" />
      <path
         d="m5.5 2.95 2.2.65q2.15.3 2.8-.55 1.1-1.6.4-3.6-.65-2-2.05-3.65-2.35-3-6.15-3.95-4.55-1.35-8.6 1-4.35 2.6-5.1 7.3-.5 3.1 2.15 3.95l3.75-.15.8-.4q4.45-2.5 9.05-.9l.75.3M-1.65 5.3q0 .9-.3 1.75M.6 4.8v3.9m1.75-3.4q.1 1.35 1.25 1.95"
         fill="none"
         stroke="#333"
         stroke-linecap="round"
         stroke-linejoin="round"
         transform="translate(11.6 9.15)"
         id="path74483" />
    </g>
    <use
       height="18.35"
       width="23.25"
       xlink:href="#_7c"
       id="_7a" />
    <use
       height="2.4"
       width="2.4"
       xlink:href="#_7d"
       id="_7b" />
    <path
       d="M.85-.85q.35.35.35.85T.85.85Q.5 1.2 0 1.2T-.85.85Q-1.2.5-1.2 0t.35-.85Q-.5-1.2 0-1.2t.85.35"
       fill="#fff"
       fill-rule="evenodd"
       transform="translate(1.2 1.2)"
       id="_7d" />
    <g
       id="_7c">
      <path
         d="m-5.1 3.95-3.75.15Q-11.5 3.25-11 .15q.75-4.7 5.1-7.3 4.05-2.35 8.6-1 3.8.95 6.15 3.95 1.4 1.65 2.05 3.65.7 2-.4 3.6-.65.85-2.8.55l-2.2-.65q.25-.65 0-1.3Q4.85-.2 3-.9q.9-.95.6-2.4-.45-2.35-2.55-1.6-.65.2-.35.95.45 1.2-.5 1.35-2.65.55-2.2-1.6.1-.6-.4-.6-2.35-.1-2.15 2.35Q-4.4-1-3.6.05l-.25.15Q-5.6 1.45-5.1 3.95"
         fill="#333"
         fill-rule="evenodd"
         transform="translate(11.6 9.15)"
         id="path74514" />
      <path
         d="M-3.6.05q-.8-1.05-.95-2.5-.2-2.45 2.15-2.35.5 0 .4.6-.45 2.15 2.2 1.6.95-.15.5-1.35-.3-.75.35-.95 2.1-.75 2.55 1.6.3 1.45-.6 2.4l-.05-.05-3.6-.25Q-2.3-.85-3.6.05"
         fill-rule="evenodd"
         transform="translate(11.6 9.15)"
         id="path74516" />
      <path
         d="M-5.1 3.95Q-5.6 1.45-3.85.2l.25-.15q1.3-.9 2.95-1.25l3.6.25L3-.9q1.85.7 2.5 2.55.25.65 0 1.3l-.75-.3q-4.6-1.6-9.05.9l-.8.4"
         fill="#c00"
         fill-rule="evenodd"
         transform="translate(11.6 9.15)"
         id="path74518" />
      <path
         d="m5.5 2.95 2.2.65q2.15.3 2.8-.55 1.1-1.6.4-3.6-.65-2-2.05-3.65-2.35-3-6.15-3.95-4.55-1.35-8.6 1-4.35 2.6-5.1 7.3-.5 3.1 2.15 3.95l3.75-.15.8-.4q4.45-2.5 9.05-.9l.75.3M-1.65 5.3q0 .9-.3 1.75M.6 4.8v3.9m1.75-3.4q.1 1.35 1.25 1.95"
         fill="none"
         stroke="#333"
         stroke-linecap="round"
         stroke-linejoin="round"
         transform="translate(11.6 9.15)"
         id="path74520" />
    </g>
    <use
       height="18.35"
       width="23.25"
       xlink:href="#_8c"
       id="_8a" />
    <use
       height="2.4"
       width="2.4"
       xlink:href="#_8d"
       id="_8b" />
    <path
       d="M.85-.85q.35.35.35.85T.85.85Q.5 1.2 0 1.2T-.85.85Q-1.2.5-1.2 0t.35-.85Q-.5-1.2 0-1.2t.85.35"
       fill="#fff"
       fill-rule="evenodd"
       transform="translate(1.2 1.2)"
       id="_8d" />
    <g
       id="_8c">
      <path
         d="m-5.1 3.95-3.75.15Q-11.5 3.25-11 .15q.75-4.7 5.1-7.3 4.05-2.35 8.6-1 3.8.95 6.15 3.95 1.4 1.65 2.05 3.65.7 2-.4 3.6-.65.85-2.8.55l-2.2-.65q.25-.65 0-1.3Q4.85-.2 3-.9q.9-.95.6-2.4-.45-2.35-2.55-1.6-.65.2-.35.95.45 1.2-.5 1.35-2.65.55-2.2-1.6.1-.6-.4-.6-2.35-.1-2.15 2.35Q-4.4-1-3.6.05l-.25.15Q-5.6 1.45-5.1 3.95"
         fill="#333"
         fill-rule="evenodd"
         transform="translate(11.6 9.15)"
         id="path74551" />
      <path
         d="M-3.6.05q-.8-1.05-.95-2.5-.2-2.45 2.15-2.35.5 0 .4.6-.45 2.15 2.2 1.6.95-.15.5-1.35-.3-.75.35-.95 2.1-.75 2.55 1.6.3 1.45-.6 2.4l-.05-.05-3.6-.25Q-2.3-.85-3.6.05"
         fill-rule="evenodd"
         transform="translate(11.6 9.15)"
         id="path74553" />
      <path
         d="M-5.1 3.95Q-5.6 1.45-3.85.2l.25-.15q1.3-.9 2.95-1.25l3.6.25L3-.9q1.85.7 2.5 2.55.25.65 0 1.3l-.75-.3q-4.6-1.6-9.05.9l-.8.4"
         fill="#c00"
         fill-rule="evenodd"
         transform="translate(11.6 9.15)"
         id="path74555" />
      <path
         d="m5.5 2.95 2.2.65q2.15.3 2.8-.55 1.1-1.6.4-3.6-.65-2-2.05-3.65-2.35-3-6.15-3.95-4.55-1.35-8.6 1-4.35 2.6-5.1 7.3-.5 3.1 2.15 3.95l3.75-.15.8-.4q4.45-2.5 9.05-.9l.75.3M-1.65 5.3q0 .9-.3 1.75M.6 4.8v3.9m1.75-3.4q.1 1.35 1.25 1.95"
         fill="none"
         stroke="#333"
         stroke-linecap="round"
         stroke-linejoin="round"
         transform="translate(11.6 9.15)"
         id="path74557" />
    </g>
    <use
       height="18.35"
       width="23.25"
       xlink:href="#_9c"
       id="_9a" />
    <use
       height="2.4"
       width="2.4"
       xlink:href="#_9d"
       id="_9b" />
    <path
       d="M.85-.85q.35.35.35.85T.85.85Q.5 1.2 0 1.2T-.85.85Q-1.2.5-1.2 0t.35-.85Q-.5-1.2 0-1.2t.85.35"
       fill="#fff"
       fill-rule="evenodd"
       transform="translate(1.2 1.2)"
       id="_9d" />
    <g
       id="_9c">
      <path
         d="m-5.1 3.95-3.75.15Q-11.5 3.25-11 .15q.75-4.7 5.1-7.3 4.05-2.35 8.6-1 3.8.95 6.15 3.95 1.4 1.65 2.05 3.65.7 2-.4 3.6-.65.85-2.8.55l-2.2-.65q.25-.65 0-1.3Q4.85-.2 3-.9q.9-.95.6-2.4-.45-2.35-2.55-1.6-.65.2-.35.95.45 1.2-.5 1.35-2.65.55-2.2-1.6.1-.6-.4-.6-2.35-.1-2.15 2.35Q-4.4-1-3.6.05l-.25.15Q-5.6 1.45-5.1 3.95"
         fill="#333"
         fill-rule="evenodd"
         transform="translate(11.6 9.15)"
         id="path74588" />
      <path
         d="M-3.6.05q-.8-1.05-.95-2.5-.2-2.45 2.15-2.35.5 0 .4.6-.45 2.15 2.2 1.6.95-.15.5-1.35-.3-.75.35-.95 2.1-.75 2.55 1.6.3 1.45-.6 2.4l-.05-.05-3.6-.25Q-2.3-.85-3.6.05"
         fill-rule="evenodd"
         transform="translate(11.6 9.15)"
         id="path74590" />
      <path
         d="M-5.1 3.95Q-5.6 1.45-3.85.2l.25-.15q1.3-.9 2.95-1.25l3.6.25L3-.9q1.85.7 2.5 2.55.25.65 0 1.3l-.75-.3q-4.6-1.6-9.05.9l-.8.4"
         fill="#c00"
         fill-rule="evenodd"
         transform="translate(11.6 9.15)"
         id="path74592" />
      <path
         d="m5.5 2.95 2.2.65q2.15.3 2.8-.55 1.1-1.6.4-3.6-.65-2-2.05-3.65-2.35-3-6.15-3.95-4.55-1.35-8.6 1-4.35 2.6-5.1 7.3-.5 3.1 2.15 3.95l3.75-.15.8-.4q4.45-2.5 9.05-.9l.75.3M-1.65 5.3q0 .9-.3 1.75M.6 4.8v3.9m1.75-3.4q.1 1.35 1.25 1.95"
         fill="none"
         stroke="#333"
         stroke-linecap="round"
         stroke-linejoin="round"
         transform="translate(11.6 9.15)"
         id="path74594" />
    </g>
    <style
       type="text/css"
       id="style74600">#_0,#_1,#_2,#_3,#_4,#_5,#_6,#_7,#_8,#_9{animation:0.4s linear _k infinite}#_0{animation-delay:0s}#_1{animation-delay:0.04s}#_2{animation-delay:0.08s}#_3{animation-delay:0.12s}#_4{animation-delay:0.16s}#_5{animation-delay:0.2s}#_6{animation-delay:0.24s}#_7{animation-delay:0.28s}#_8{animation-delay:0.32s}#_9{animation-delay:0.36s}@keyframes _k{0%,10.000000%{visibility:visible}10.000250%,100%{visibility:hidden}}#_{visibility:hidden}</style>
  </defs>
  <g
     id="g74976"
     transform="translate(55.75,62.4)"
     style="display:inline">
    <g
       id="_0">&gt;<g
   transform="translate(21.9,19.75)"
   id="g74258">
  <use
     height="18.35"
     transform="translate(-11.45,-5.95)"
     width="23.25"
     xlink:href="#_0a"
     id="use74240"
     x="0"
     y="0" />
  <use
     height="2.4000001"
     transform="translate(-20.35,-17.6)"
     width="2.4000001"
     xlink:href="#_0b"
     id="use74242"
     x="0"
     y="0" />
  <use
     height="2.4000001"
     transform="translate(-17.45,-14.25)"
     width="2.4000001"
     xlink:href="#_0b"
     id="use74244"
     x="0"
     y="0" />
  <use
     height="2.4000001"
     transform="translate(-13.3,-15.35)"
     width="2.4000001"
     xlink:href="#_0b"
     id="use74246"
     x="0"
     y="0" />
  <use
     height="2.4000001"
     transform="translate(10.95,-13.25)"
     width="2.4000001"
     xlink:href="#_0b"
     id="use74248"
     x="0"
     y="0" />
  <use
     height="2.4000001"
     transform="translate(20.45,-15.35)"
     width="2.4000001"
     xlink:href="#_0b"
     id="use74250"
     x="0"
     y="0" />
  <use
     height="2.4000001"
     transform="translate(15.55,-15.55)"
     width="2.4000001"
     xlink:href="#_0b"
     id="use74252"
     x="0"
     y="0" />
  <use
     height="2.4000001"
     transform="translate(-15.35,-18.7)"
     width="2.4000001"
     xlink:href="#_0b"
     id="use74254"
     x="0"
     y="0" />
  <use
     height="2.4000001"
     transform="translate(15.45,-11.95)"
     width="2.4000001"
     xlink:href="#_0b"
     id="use74256"
     x="0"
     y="0" />
</g>
<defs
   id="defs74272">
  <use
     height="18.35"
     width="23.25"
     xlink:href="#_0c"
     id="use74701"
     x="0"
     y="0" />
  <use
     height="2.4000001"
     width="2.4000001"
     xlink:href="#_0d"
     id="use74703"
     x="0"
     y="0" />
  <path
     d="M 0.85,-0.85 Q 1.2,-0.5 1.2,0 1.2,0.5 0.85,0.85 0.5,1.2 0,1.2 -0.5,1.2 -0.85,0.85 -1.2,0.5 -1.2,0 -1.2,-0.5 -0.85,-0.85 -0.5,-1.2 0,-1.2 q 0.5,0 0.85,0.35"
     fill="#ffffff"
     fill-rule="evenodd"
     transform="translate(1.2,1.2)"
     id="path74705" />
  <g
     id="g74715">
    <path
       d="M -5.1,3.95 -8.85,4.1 Q -11.5,3.25 -11,0.15 q 0.75,-4.7 5.1,-7.3 4.05,-2.35 8.6,-1 3.8,0.95 6.15,3.95 1.4,1.65 2.05,3.65 0.7,2 -0.4,3.6 Q 9.85,3.9 7.7,3.6 L 5.5,2.95 Q 5.75,2.3 5.5,1.65 4.85,-0.2 3,-0.9 3.9,-1.85 3.6,-3.3 3.15,-5.65 1.05,-4.9 0.4,-4.7 0.7,-3.95 1.15,-2.75 0.2,-2.6 -2.45,-2.05 -2,-4.2 -1.9,-4.8 -2.4,-4.8 -4.75,-4.9 -4.55,-2.45 -4.4,-1 -3.6,0.05 L -3.85,0.2 Q -5.6,1.45 -5.1,3.95"
       fill="#333333"
       fill-rule="evenodd"
       transform="translate(11.6,9.15)"
       id="path74707" />
    <path
       d="M -3.6,0.05 Q -4.4,-1 -4.55,-2.45 -4.75,-4.9 -2.4,-4.8 q 0.5,0 0.4,0.6 -0.45,2.15 2.2,1.6 Q 1.15,-2.75 0.7,-3.95 0.4,-4.7 1.05,-4.9 3.15,-5.65 3.6,-3.3 3.9,-1.85 3,-0.9 L 2.95,-0.95 -0.65,-1.2 Q -2.3,-0.85 -3.6,0.05"
       fill-rule="evenodd"
       transform="translate(11.6,9.15)"
       id="path74709" />
    <path
       d="M -5.1,3.95 Q -5.6,1.45 -3.85,0.2 L -3.6,0.05 q 1.3,-0.9 2.95,-1.25 L 2.95,-0.95 3,-0.9 q 1.85,0.7 2.5,2.55 0.25,0.65 0,1.3 L 4.75,2.65 q -4.6,-1.6 -9.05,0.9 l -0.8,0.4"
       fill="#cc0000"
       fill-rule="evenodd"
       transform="translate(11.6,9.15)"
       id="path74711" />
    <path
       d="M 5.5,2.95 7.7,3.6 q 2.15,0.3 2.8,-0.55 1.1,-1.6 0.4,-3.6 -0.65,-2 -2.05,-3.65 -2.35,-3 -6.15,-3.95 -4.55,-1.35 -8.6,1 -4.35,2.6 -5.1,7.3 -0.5,3.1 2.15,3.95 L -5.1,3.95 -4.3,3.55 Q 0.15,1.05 4.75,2.65 L 5.5,2.95 M -1.65,5.3 q 0,0.9 -0.3,1.75 M 0.6,4.8 V 8.7 M 2.35,5.3 q 0.1,1.35 1.25,1.95"
       fill="none"
       stroke="#333333"
       stroke-linecap="round"
       stroke-linejoin="round"
       transform="translate(11.6,9.15)"
       id="path74713" />
  </g>
</defs>
</g>
    <g
       id="_1">&gt;<g
   transform="translate(21.9,19.75)"
   id="g74293">
  <use
     height="18.35"
     transform="matrix(0.9718,0,0,1.0506,-11.123,-6.413)"
     width="23.25"
     xlink:href="#_1a"
     id="use74275"
     x="0"
     y="0" />
  <use
     height="2.4000001"
     transform="translate(-20.35,-17.6)"
     width="2.4000001"
     xlink:href="#_1b"
     id="use74277"
     x="0"
     y="0" />
  <use
     height="2.4000001"
     transform="translate(-17.45,-14.25)"
     width="2.4000001"
     xlink:href="#_1b"
     id="use74279"
     x="0"
     y="0" />
  <use
     height="2.4000001"
     transform="translate(-13.3,-15.35)"
     width="2.4000001"
     xlink:href="#_1b"
     id="use74281"
     x="0"
     y="0" />
  <use
     height="2.4000001"
     transform="translate(10.95,-13.25)"
     width="2.4000001"
     xlink:href="#_1b"
     id="use74283"
     x="0"
     y="0" />
  <use
     height="2.4000001"
     transform="translate(20.45,-15.35)"
     width="2.4000001"
     xlink:href="#_1b"
     id="use74285"
     x="0"
     y="0" />
  <use
     height="2.4000001"
     transform="translate(15.55,-15.55)"
     width="2.4000001"
     xlink:href="#_1b"
     id="use74287"
     x="0"
     y="0" />
  <use
     height="2.4000001"
     transform="translate(-15.35,-18.7)"
     width="2.4000001"
     xlink:href="#_1b"
     id="use74289"
     x="0"
     y="0" />
  <use
     height="2.4000001"
     transform="translate(15.45,-11.95)"
     width="2.4000001"
     xlink:href="#_1b"
     id="use74291"
     x="0"
     y="0" />
</g>
<defs
   id="defs74307">
  <use
     height="18.35"
     width="23.25"
     xlink:href="#_1c"
     id="use74729"
     x="0"
     y="0" />
  <use
     height="2.4000001"
     width="2.4000001"
     xlink:href="#_1d"
     id="use74731"
     x="0"
     y="0" />
  <path
     d="M 0.85,-0.85 Q 1.2,-0.5 1.2,0 1.2,0.5 0.85,0.85 0.5,1.2 0,1.2 -0.5,1.2 -0.85,0.85 -1.2,0.5 -1.2,0 -1.2,-0.5 -0.85,-0.85 -0.5,-1.2 0,-1.2 q 0.5,0 0.85,0.35"
     fill="#ffffff"
     fill-rule="evenodd"
     transform="translate(1.2,1.2)"
     id="path74733" />
  <g
     id="g74743">
    <path
       d="M -5.1,3.95 -8.85,4.1 Q -11.5,3.25 -11,0.15 q 0.75,-4.7 5.1,-7.3 4.05,-2.35 8.6,-1 3.8,0.95 6.15,3.95 1.4,1.65 2.05,3.65 0.7,2 -0.4,3.6 Q 9.85,3.9 7.7,3.6 L 5.5,2.95 Q 5.75,2.3 5.5,1.65 4.85,-0.2 3,-0.9 3.9,-1.85 3.6,-3.3 3.15,-5.65 1.05,-4.9 0.4,-4.7 0.7,-3.95 1.15,-2.75 0.2,-2.6 -2.45,-2.05 -2,-4.2 -1.9,-4.8 -2.4,-4.8 -4.75,-4.9 -4.55,-2.45 -4.4,-1 -3.6,0.05 L -3.85,0.2 Q -5.6,1.45 -5.1,3.95"
       fill="#333333"
       fill-rule="evenodd"
       transform="translate(11.6,9.15)"
       id="path74735" />
    <path
       d="M -3.6,0.05 Q -4.4,-1 -4.55,-2.45 -4.75,-4.9 -2.4,-4.8 q 0.5,0 0.4,0.6 -0.45,2.15 2.2,1.6 Q 1.15,-2.75 0.7,-3.95 0.4,-4.7 1.05,-4.9 3.15,-5.65 3.6,-3.3 3.9,-1.85 3,-0.9 L 2.95,-0.95 -0.65,-1.2 Q -2.3,-0.85 -3.6,0.05"
       fill-rule="evenodd"
       transform="translate(11.6,9.15)"
       id="path74737" />
    <path
       d="M -5.1,3.95 Q -5.6,1.45 -3.85,0.2 L -3.6,0.05 q 1.3,-0.9 2.95,-1.25 L 2.95,-0.95 3,-0.9 q 1.85,0.7 2.5,2.55 0.25,0.65 0,1.3 L 4.75,2.65 q -4.6,-1.6 -9.05,0.9 l -0.8,0.4"
       fill="#cc0000"
       fill-rule="evenodd"
       transform="translate(11.6,9.15)"
       id="path74739" />
    <path
       d="M 5.5,2.95 7.7,3.6 q 2.15,0.3 2.8,-0.55 1.1,-1.6 0.4,-3.6 -0.65,-2 -2.05,-3.65 -2.35,-3 -6.15,-3.95 -4.55,-1.35 -8.6,1 -4.35,2.6 -5.1,7.3 -0.5,3.1 2.15,3.95 L -5.1,3.95 -4.3,3.55 Q 0.15,1.05 4.75,2.65 L 5.5,2.95 M -1.65,5.3 q 0,0.9 -0.3,1.75 M 0.6,4.8 V 8.7 M 2.35,5.3 q 0.1,1.35 1.25,1.95"
       fill="none"
       stroke="#333333"
       stroke-linecap="round"
       stroke-linejoin="round"
       transform="translate(11.6,9.15)"
       id="path74741" />
  </g>
</defs>
</g>
    <g
       id="_2">&gt;<g
   transform="translate(21.9,19.75)"
   id="g74328">
  <use
     height="18.35"
     transform="matrix(0.9437,0,0,1.1012,-10.797,-6.876)"
     width="23.25"
     xlink:href="#_2a"
     id="use74310"
     x="0"
     y="0" />
  <use
     height="2.4000001"
     transform="translate(-20.35,-17.6)"
     width="2.4000001"
     xlink:href="#_2b"
     id="use74312"
     x="0"
     y="0" />
  <use
     height="2.4000001"
     transform="translate(-17.45,-14.25)"
     width="2.4000001"
     xlink:href="#_2b"
     id="use74314"
     x="0"
     y="0" />
  <use
     height="2.4000001"
     transform="translate(-13.3,-15.35)"
     width="2.4000001"
     xlink:href="#_2b"
     id="use74316"
     x="0"
     y="0" />
  <use
     height="2.4000001"
     transform="translate(10.95,-13.25)"
     width="2.4000001"
     xlink:href="#_2b"
     id="use74318"
     x="0"
     y="0" />
  <use
     height="2.4000001"
     transform="translate(20.45,-15.35)"
     width="2.4000001"
     xlink:href="#_2b"
     id="use74320"
     x="0"
     y="0" />
  <use
     height="2.4000001"
     transform="translate(15.55,-15.55)"
     width="2.4000001"
     xlink:href="#_2b"
     id="use74322"
     x="0"
     y="0" />
  <use
     height="2.4000001"
     transform="translate(-15.35,-18.7)"
     width="2.4000001"
     xlink:href="#_2b"
     id="use74324"
     x="0"
     y="0" />
  <use
     height="2.4000001"
     transform="translate(15.45,-11.95)"
     width="2.4000001"
     xlink:href="#_2b"
     id="use74326"
     x="0"
     y="0" />
</g>
<defs
   id="defs74342">
  <use
     height="18.35"
     width="23.25"
     xlink:href="#_2c"
     id="use74757"
     x="0"
     y="0" />
  <use
     height="2.4000001"
     width="2.4000001"
     xlink:href="#_2d"
     id="use74759"
     x="0"
     y="0" />
  <path
     d="M 0.85,-0.85 Q 1.2,-0.5 1.2,0 1.2,0.5 0.85,0.85 0.5,1.2 0,1.2 -0.5,1.2 -0.85,0.85 -1.2,0.5 -1.2,0 -1.2,-0.5 -0.85,-0.85 -0.5,-1.2 0,-1.2 q 0.5,0 0.85,0.35"
     fill="#ffffff"
     fill-rule="evenodd"
     transform="translate(1.2,1.2)"
     id="path74761" />
  <g
     id="g74771">
    <path
       d="M -5.1,3.95 -8.85,4.1 Q -11.5,3.25 -11,0.15 q 0.75,-4.7 5.1,-7.3 4.05,-2.35 8.6,-1 3.8,0.95 6.15,3.95 1.4,1.65 2.05,3.65 0.7,2 -0.4,3.6 Q 9.85,3.9 7.7,3.6 L 5.5,2.95 Q 5.75,2.3 5.5,1.65 4.85,-0.2 3,-0.9 3.9,-1.85 3.6,-3.3 3.15,-5.65 1.05,-4.9 0.4,-4.7 0.7,-3.95 1.15,-2.75 0.2,-2.6 -2.45,-2.05 -2,-4.2 -1.9,-4.8 -2.4,-4.8 -4.75,-4.9 -4.55,-2.45 -4.4,-1 -3.6,0.05 L -3.85,0.2 Q -5.6,1.45 -5.1,3.95"
       fill="#333333"
       fill-rule="evenodd"
       transform="translate(11.6,9.15)"
       id="path74763" />
    <path
       d="M -3.6,0.05 Q -4.4,-1 -4.55,-2.45 -4.75,-4.9 -2.4,-4.8 q 0.5,0 0.4,0.6 -0.45,2.15 2.2,1.6 Q 1.15,-2.75 0.7,-3.95 0.4,-4.7 1.05,-4.9 3.15,-5.65 3.6,-3.3 3.9,-1.85 3,-0.9 L 2.95,-0.95 -0.65,-1.2 Q -2.3,-0.85 -3.6,0.05"
       fill-rule="evenodd"
       transform="translate(11.6,9.15)"
       id="path74765" />
    <path
       d="M -5.1,3.95 Q -5.6,1.45 -3.85,0.2 L -3.6,0.05 q 1.3,-0.9 2.95,-1.25 L 2.95,-0.95 3,-0.9 q 1.85,0.7 2.5,2.55 0.25,0.65 0,1.3 L 4.75,2.65 q -4.6,-1.6 -9.05,0.9 l -0.8,0.4"
       fill="#cc0000"
       fill-rule="evenodd"
       transform="translate(11.6,9.15)"
       id="path74767" />
    <path
       d="M 5.5,2.95 7.7,3.6 q 2.15,0.3 2.8,-0.55 1.1,-1.6 0.4,-3.6 -0.65,-2 -2.05,-3.65 -2.35,-3 -6.15,-3.95 -4.55,-1.35 -8.6,1 -4.35,2.6 -5.1,7.3 -0.5,3.1 2.15,3.95 L -5.1,3.95 -4.3,3.55 Q 0.15,1.05 4.75,2.65 L 5.5,2.95 M -1.65,5.3 q 0,0.9 -0.3,1.75 M 0.6,4.8 V 8.7 M 2.35,5.3 q 0.1,1.35 1.25,1.95"
       fill="none"
       stroke="#333333"
       stroke-linecap="round"
       stroke-linejoin="round"
       transform="translate(11.6,9.15)"
       id="path74769" />
  </g>
</defs>
</g>
    <g
       id="_3">&gt;<g
   transform="translate(21.9,19.75)"
   id="g74363">
  <use
     height="18.35"
     transform="matrix(0.9155,0,0,1.1517,-10.47,-7.338)"
     width="23.25"
     xlink:href="#_3a"
     id="use74345"
     x="0"
     y="0" />
  <use
     height="2.4000001"
     transform="translate(-20.35,-17.6)"
     width="2.4000001"
     xlink:href="#_3b"
     id="use74347"
     x="0"
     y="0" />
  <use
     height="2.4000001"
     transform="translate(-17.45,-14.25)"
     width="2.4000001"
     xlink:href="#_3b"
     id="use74349"
     x="0"
     y="0" />
  <use
     height="2.4000001"
     transform="translate(-13.3,-15.35)"
     width="2.4000001"
     xlink:href="#_3b"
     id="use74351"
     x="0"
     y="0" />
  <use
     height="2.4000001"
     transform="translate(10.95,-13.25)"
     width="2.4000001"
     xlink:href="#_3b"
     id="use74353"
     x="0"
     y="0" />
  <use
     height="2.4000001"
     transform="translate(20.45,-15.35)"
     width="2.4000001"
     xlink:href="#_3b"
     id="use74355"
     x="0"
     y="0" />
  <use
     height="2.4000001"
     transform="translate(15.55,-15.55)"
     width="2.4000001"
     xlink:href="#_3b"
     id="use74357"
     x="0"
     y="0" />
  <use
     height="2.4000001"
     transform="translate(-15.35,-18.7)"
     width="2.4000001"
     xlink:href="#_3b"
     id="use74359"
     x="0"
     y="0" />
  <use
     height="2.4000001"
     transform="translate(15.45,-11.95)"
     width="2.4000001"
     xlink:href="#_3b"
     id="use74361"
     x="0"
     y="0" />
</g>
<defs
   id="defs74377">
  <use
     height="18.35"
     width="23.25"
     xlink:href="#_3c"
     id="use74785"
     x="0"
     y="0" />
  <use
     height="2.4000001"
     width="2.4000001"
     xlink:href="#_3d"
     id="use74787"
     x="0"
     y="0" />
  <path
     d="M 0.85,-0.85 Q 1.2,-0.5 1.2,0 1.2,0.5 0.85,0.85 0.5,1.2 0,1.2 -0.5,1.2 -0.85,0.85 -1.2,0.5 -1.2,0 -1.2,-0.5 -0.85,-0.85 -0.5,-1.2 0,-1.2 q 0.5,0 0.85,0.35"
     fill="#ffffff"
     fill-rule="evenodd"
     transform="translate(1.2,1.2)"
     id="path74789" />
  <g
     id="g74799">
    <path
       d="M -5.1,3.95 -8.85,4.1 Q -11.5,3.25 -11,0.15 q 0.75,-4.7 5.1,-7.3 4.05,-2.35 8.6,-1 3.8,0.95 6.15,3.95 1.4,1.65 2.05,3.65 0.7,2 -0.4,3.6 Q 9.85,3.9 7.7,3.6 L 5.5,2.95 Q 5.75,2.3 5.5,1.65 4.85,-0.2 3,-0.9 3.9,-1.85 3.6,-3.3 3.15,-5.65 1.05,-4.9 0.4,-4.7 0.7,-3.95 1.15,-2.75 0.2,-2.6 -2.45,-2.05 -2,-4.2 -1.9,-4.8 -2.4,-4.8 -4.75,-4.9 -4.55,-2.45 -4.4,-1 -3.6,0.05 L -3.85,0.2 Q -5.6,1.45 -5.1,3.95"
       fill="#333333"
       fill-rule="evenodd"
       transform="translate(11.6,9.15)"
       id="path74791" />
    <path
       d="M -3.6,0.05 Q -4.4,-1 -4.55,-2.45 -4.75,-4.9 -2.4,-4.8 q 0.5,0 0.4,0.6 -0.45,2.15 2.2,1.6 Q 1.15,-2.75 0.7,-3.95 0.4,-4.7 1.05,-4.9 3.15,-5.65 3.6,-3.3 3.9,-1.85 3,-0.9 L 2.95,-0.95 -0.65,-1.2 Q -2.3,-0.85 -3.6,0.05"
       fill-rule="evenodd"
       transform="translate(11.6,9.15)"
       id="path74793" />
    <path
       d="M -5.1,3.95 Q -5.6,1.45 -3.85,0.2 L -3.6,0.05 q 1.3,-0.9 2.95,-1.25 L 2.95,-0.95 3,-0.9 q 1.85,0.7 2.5,2.55 0.25,0.65 0,1.3 L 4.75,2.65 q -4.6,-1.6 -9.05,0.9 l -0.8,0.4"
       fill="#cc0000"
       fill-rule="evenodd"
       transform="translate(11.6,9.15)"
       id="path74795" />
    <path
       d="M 5.5,2.95 7.7,3.6 q 2.15,0.3 2.8,-0.55 1.1,-1.6 0.4,-3.6 -0.65,-2 -2.05,-3.65 -2.35,-3 -6.15,-3.95 -4.55,-1.35 -8.6,1 -4.35,2.6 -5.1,7.3 -0.5,3.1 2.15,3.95 L -5.1,3.95 -4.3,3.55 Q 0.15,1.05 4.75,2.65 L 5.5,2.95 M -1.65,5.3 q 0,0.9 -0.3,1.75 M 0.6,4.8 V 8.7 M 2.35,5.3 q 0.1,1.35 1.25,1.95"
       fill="none"
       stroke="#333333"
       stroke-linecap="round"
       stroke-linejoin="round"
       transform="translate(11.6,9.15)"
       id="path74797" />
  </g>
</defs>
</g>
    <g
       id="_4">&gt;<g
   transform="translate(21.9,19.75)"
   id="g74398">
  <use
     height="18.35"
     transform="matrix(0.8874,0,0,1.2023,-10.144,-7.801)"
     width="23.25"
     xlink:href="#_4a"
     id="use74380"
     x="0"
     y="0" />
  <use
     height="2.4000001"
     transform="translate(-20.35,-17.6)"
     width="2.4000001"
     xlink:href="#_4b"
     id="use74382"
     x="0"
     y="0" />
  <use
     height="2.4000001"
     transform="translate(-17.45,-14.25)"
     width="2.4000001"
     xlink:href="#_4b"
     id="use74384"
     x="0"
     y="0" />
  <use
     height="2.4000001"
     transform="translate(-13.3,-15.35)"
     width="2.4000001"
     xlink:href="#_4b"
     id="use74386"
     x="0"
     y="0" />
  <use
     height="2.4000001"
     transform="translate(10.95,-13.25)"
     width="2.4000001"
     xlink:href="#_4b"
     id="use74388"
     x="0"
     y="0" />
  <use
     height="2.4000001"
     transform="translate(20.45,-15.35)"
     width="2.4000001"
     xlink:href="#_4b"
     id="use74390"
     x="0"
     y="0" />
  <use
     height="2.4000001"
     transform="translate(15.55,-15.55)"
     width="2.4000001"
     xlink:href="#_4b"
     id="use74392"
     x="0"
     y="0" />
  <use
     height="2.4000001"
     transform="translate(-15.35,-18.7)"
     width="2.4000001"
     xlink:href="#_4b"
     id="use74394"
     x="0"
     y="0" />
  <use
     height="2.4000001"
     transform="translate(15.45,-11.95)"
     width="2.4000001"
     xlink:href="#_4b"
     id="use74396"
     x="0"
     y="0" />
</g>
<defs
   id="defs74412">
  <use
     height="18.35"
     width="23.25"
     xlink:href="#_4c"
     id="use74813"
     x="0"
     y="0" />
  <use
     height="2.4000001"
     width="2.4000001"
     xlink:href="#_4d"
     id="use74815"
     x="0"
     y="0" />
  <path
     d="M 0.85,-0.85 Q 1.2,-0.5 1.2,0 1.2,0.5 0.85,0.85 0.5,1.2 0,1.2 -0.5,1.2 -0.85,0.85 -1.2,0.5 -1.2,0 -1.2,-0.5 -0.85,-0.85 -0.5,-1.2 0,-1.2 q 0.5,0 0.85,0.35"
     fill="#ffffff"
     fill-rule="evenodd"
     transform="translate(1.2,1.2)"
     id="path74817" />
  <g
     id="g74827">
    <path
       d="M -5.1,3.95 -8.85,4.1 Q -11.5,3.25 -11,0.15 q 0.75,-4.7 5.1,-7.3 4.05,-2.35 8.6,-1 3.8,0.95 6.15,3.95 1.4,1.65 2.05,3.65 0.7,2 -0.4,3.6 Q 9.85,3.9 7.7,3.6 L 5.5,2.95 Q 5.75,2.3 5.5,1.65 4.85,-0.2 3,-0.9 3.9,-1.85 3.6,-3.3 3.15,-5.65 1.05,-4.9 0.4,-4.7 0.7,-3.95 1.15,-2.75 0.2,-2.6 -2.45,-2.05 -2,-4.2 -1.9,-4.8 -2.4,-4.8 -4.75,-4.9 -4.55,-2.45 -4.4,-1 -3.6,0.05 L -3.85,0.2 Q -5.6,1.45 -5.1,3.95"
       fill="#333333"
       fill-rule="evenodd"
       transform="translate(11.6,9.15)"
       id="path74819" />
    <path
       d="M -3.6,0.05 Q -4.4,-1 -4.55,-2.45 -4.75,-4.9 -2.4,-4.8 q 0.5,0 0.4,0.6 -0.45,2.15 2.2,1.6 Q 1.15,-2.75 0.7,-3.95 0.4,-4.7 1.05,-4.9 3.15,-5.65 3.6,-3.3 3.9,-1.85 3,-0.9 L 2.95,-0.95 -0.65,-1.2 Q -2.3,-0.85 -3.6,0.05"
       fill-rule="evenodd"
       transform="translate(11.6,9.15)"
       id="path74821" />
    <path
       d="M -5.1,3.95 Q -5.6,1.45 -3.85,0.2 L -3.6,0.05 q 1.3,-0.9 2.95,-1.25 L 2.95,-0.95 3,-0.9 q 1.85,0.7 2.5,2.55 0.25,0.65 0,1.3 L 4.75,2.65 q -4.6,-1.6 -9.05,0.9 l -0.8,0.4"
       fill="#cc0000"
       fill-rule="evenodd"
       transform="translate(11.6,9.15)"
       id="path74823" />
    <path
       d="M 5.5,2.95 7.7,3.6 q 2.15,0.3 2.8,-0.55 1.1,-1.6 0.4,-3.6 -0.65,-2 -2.05,-3.65 -2.35,-3 -6.15,-3.95 -4.55,-1.35 -8.6,1 -4.35,2.6 -5.1,7.3 -0.5,3.1 2.15,3.95 L -5.1,3.95 -4.3,3.55 Q 0.15,1.05 4.75,2.65 L 5.5,2.95 M -1.65,5.3 q 0,0.9 -0.3,1.75 M 0.6,4.8 V 8.7 M 2.35,5.3 q 0.1,1.35 1.25,1.95"
       fill="none"
       stroke="#333333"
       stroke-linecap="round"
       stroke-linejoin="round"
       transform="translate(11.6,9.15)"
       id="path74825" />
  </g>
</defs>
</g>
    <g
       id="_5">&gt;<g
   transform="translate(21.9,19.75)"
   id="g74435">
  <use
     height="18.35"
     transform="matrix(0.9099,0,0,1.1618,-10.405,-7.43)"
     width="23.25"
     xlink:href="#_5a"
     id="use74415"
     x="0"
     y="0" />
  <use
     height="2.4000001"
     transform="translate(24.1,-14.65)"
     width="2.4000001"
     xlink:href="#_5b"
     id="use74417"
     x="0"
     y="0" />
  <use
     height="2.4000001"
     transform="translate(20.1,-17.25)"
     width="2.4000001"
     xlink:href="#_5b"
     id="use74419"
     x="0"
     y="0" />
  <use
     height="2.4000001"
     transform="translate(14.75,-18.45)"
     width="2.4000001"
     xlink:href="#_5b"
     id="use74421"
     x="0"
     y="0" />
  <use
     height="2.4000001"
     transform="translate(13.2,-15)"
     width="2.4000001"
     xlink:href="#_5b"
     id="use74423"
     x="0"
     y="0" />
  <use
     height="2.4000001"
     transform="translate(-13.75,-14.85)"
     width="2.4000001"
     xlink:href="#_5b"
     id="use74425"
     x="0"
     y="0" />
  <use
     height="2.4000001"
     transform="translate(-12.15,-18.65)"
     width="2.4000001"
     xlink:href="#_5b"
     id="use74427"
     x="0"
     y="0" />
  <use
     height="2.4000001"
     transform="translate(-21.3,-19.75)"
     width="2.4000001"
     xlink:href="#_5b"
     id="use74429"
     x="0"
     y="0" />
  <use
     height="2.4000001"
     transform="translate(-17.15,-17.3)"
     width="2.4000001"
     xlink:href="#_5b"
     id="use74431"
     x="0"
     y="0" />
  <use
     height="2.4000001"
     transform="translate(-21.9,-12.8)"
     width="2.4000001"
     xlink:href="#_5b"
     id="use74433"
     x="0"
     y="0" />
</g>
<defs
   id="defs74449">
  <use
     height="18.35"
     width="23.25"
     xlink:href="#_5c"
     id="use74842"
     x="0"
     y="0" />
  <use
     height="2.4000001"
     width="2.4000001"
     xlink:href="#_5d"
     id="use74844"
     x="0"
     y="0" />
  <path
     d="M 0.85,-0.85 Q 1.2,-0.5 1.2,0 1.2,0.5 0.85,0.85 0.5,1.2 0,1.2 -0.5,1.2 -0.85,0.85 -1.2,0.5 -1.2,0 -1.2,-0.5 -0.85,-0.85 -0.5,-1.2 0,-1.2 q 0.5,0 0.85,0.35"
     fill="#ffffff"
     fill-rule="evenodd"
     transform="translate(1.2,1.2)"
     id="path74846" />
  <g
     id="g74856">
    <path
       d="M -5.1,3.95 -8.85,4.1 Q -11.5,3.25 -11,0.15 q 0.75,-4.7 5.1,-7.3 4.05,-2.35 8.6,-1 3.8,0.95 6.15,3.95 1.4,1.65 2.05,3.65 0.7,2 -0.4,3.6 Q 9.85,3.9 7.7,3.6 L 5.5,2.95 Q 5.75,2.3 5.5,1.65 4.85,-0.2 3,-0.9 3.9,-1.85 3.6,-3.3 3.15,-5.65 1.05,-4.9 0.4,-4.7 0.7,-3.95 1.15,-2.75 0.2,-2.6 -2.45,-2.05 -2,-4.2 -1.9,-4.8 -2.4,-4.8 -4.75,-4.9 -4.55,-2.45 -4.4,-1 -3.6,0.05 L -3.85,0.2 Q -5.6,1.45 -5.1,3.95"
       fill="#333333"
       fill-rule="evenodd"
       transform="translate(11.6,9.15)"
       id="path74848" />
    <path
       d="M -3.6,0.05 Q -4.4,-1 -4.55,-2.45 -4.75,-4.9 -2.4,-4.8 q 0.5,0 0.4,0.6 -0.45,2.15 2.2,1.6 Q 1.15,-2.75 0.7,-3.95 0.4,-4.7 1.05,-4.9 3.15,-5.65 3.6,-3.3 3.9,-1.85 3,-0.9 L 2.95,-0.95 -0.65,-1.2 Q -2.3,-0.85 -3.6,0.05"
       fill-rule="evenodd"
       transform="translate(11.6,9.15)"
       id="path74850" />
    <path
       d="M -5.1,3.95 Q -5.6,1.45 -3.85,0.2 L -3.6,0.05 q 1.3,-0.9 2.95,-1.25 L 2.95,-0.95 3,-0.9 q 1.85,0.7 2.5,2.55 0.25,0.65 0,1.3 L 4.75,2.65 q -4.6,-1.6 -9.05,0.9 l -0.8,0.4"
       fill="#cc0000"
       fill-rule="evenodd"
       transform="translate(11.6,9.15)"
       id="path74852" />
    <path
       d="M 5.5,2.95 7.7,3.6 q 2.15,0.3 2.8,-0.55 1.1,-1.6 0.4,-3.6 -0.65,-2 -2.05,-3.65 -2.35,-3 -6.15,-3.95 -4.55,-1.35 -8.6,1 -4.35,2.6 -5.1,7.3 -0.5,3.1 2.15,3.95 L -5.1,3.95 -4.3,3.55 Q 0.15,1.05 4.75,2.65 L 5.5,2.95 M -1.65,5.3 q 0,0.9 -0.3,1.75 M 0.6,4.8 V 8.7 M 2.35,5.3 q 0.1,1.35 1.25,1.95"
       fill="none"
       stroke="#333333"
       stroke-linecap="round"
       stroke-linejoin="round"
       transform="translate(11.6,9.15)"
       id="path74854" />
  </g>
</defs>
</g>
    <g
       id="_6">&gt;<g
   transform="translate(21.9,19.75)"
   id="g74472">
  <use
     height="18.35"
     transform="matrix(0.9324,0,0,1.1214,-10.666,-7.01)"
     width="23.25"
     xlink:href="#_6a"
     id="use74452"
     x="0"
     y="0" />
  <use
     height="2.4000001"
     transform="translate(24.1,-14.65)"
     width="2.4000001"
     xlink:href="#_6b"
     id="use74454"
     x="0"
     y="0" />
  <use
     height="2.4000001"
     transform="translate(20.1,-17.25)"
     width="2.4000001"
     xlink:href="#_6b"
     id="use74456"
     x="0"
     y="0" />
  <use
     height="2.4000001"
     transform="translate(14.75,-18.45)"
     width="2.4000001"
     xlink:href="#_6b"
     id="use74458"
     x="0"
     y="0" />
  <use
     height="2.4000001"
     transform="translate(13.2,-15)"
     width="2.4000001"
     xlink:href="#_6b"
     id="use74460"
     x="0"
     y="0" />
  <use
     height="2.4000001"
     transform="translate(-13.75,-14.85)"
     width="2.4000001"
     xlink:href="#_6b"
     id="use74462"
     x="0"
     y="0" />
  <use
     height="2.4000001"
     transform="translate(-12.15,-18.65)"
     width="2.4000001"
     xlink:href="#_6b"
     id="use74464"
     x="0"
     y="0" />
  <use
     height="2.4000001"
     transform="translate(-21.3,-19.75)"
     width="2.4000001"
     xlink:href="#_6b"
     id="use74466"
     x="0"
     y="0" />
  <use
     height="2.4000001"
     transform="translate(-17.15,-17.3)"
     width="2.4000001"
     xlink:href="#_6b"
     id="use74468"
     x="0"
     y="0" />
  <use
     height="2.4000001"
     transform="translate(-21.9,-12.8)"
     width="2.4000001"
     xlink:href="#_6b"
     id="use74470"
     x="0"
     y="0" />
</g>
<defs
   id="defs74486">
  <use
     height="18.35"
     width="23.25"
     xlink:href="#_6c"
     id="use74871"
     x="0"
     y="0" />
  <use
     height="2.4000001"
     width="2.4000001"
     xlink:href="#_6d"
     id="use74873"
     x="0"
     y="0" />
  <path
     d="M 0.85,-0.85 Q 1.2,-0.5 1.2,0 1.2,0.5 0.85,0.85 0.5,1.2 0,1.2 -0.5,1.2 -0.85,0.85 -1.2,0.5 -1.2,0 -1.2,-0.5 -0.85,-0.85 -0.5,-1.2 0,-1.2 q 0.5,0 0.85,0.35"
     fill="#ffffff"
     fill-rule="evenodd"
     transform="translate(1.2,1.2)"
     id="path74875" />
  <g
     id="g74885">
    <path
       d="M -5.1,3.95 -8.85,4.1 Q -11.5,3.25 -11,0.15 q 0.75,-4.7 5.1,-7.3 4.05,-2.35 8.6,-1 3.8,0.95 6.15,3.95 1.4,1.65 2.05,3.65 0.7,2 -0.4,3.6 Q 9.85,3.9 7.7,3.6 L 5.5,2.95 Q 5.75,2.3 5.5,1.65 4.85,-0.2 3,-0.9 3.9,-1.85 3.6,-3.3 3.15,-5.65 1.05,-4.9 0.4,-4.7 0.7,-3.95 1.15,-2.75 0.2,-2.6 -2.45,-2.05 -2,-4.2 -1.9,-4.8 -2.4,-4.8 -4.75,-4.9 -4.55,-2.45 -4.4,-1 -3.6,0.05 L -3.85,0.2 Q -5.6,1.45 -5.1,3.95"
       fill="#333333"
       fill-rule="evenodd"
       transform="translate(11.6,9.15)"
       id="path74877" />
    <path
       d="M -3.6,0.05 Q -4.4,-1 -4.55,-2.45 -4.75,-4.9 -2.4,-4.8 q 0.5,0 0.4,0.6 -0.45,2.15 2.2,1.6 Q 1.15,-2.75 0.7,-3.95 0.4,-4.7 1.05,-4.9 3.15,-5.65 3.6,-3.3 3.9,-1.85 3,-0.9 L 2.95,-0.95 -0.65,-1.2 Q -2.3,-0.85 -3.6,0.05"
       fill-rule="evenodd"
       transform="translate(11.6,9.15)"
       id="path74879" />
    <path
       d="M -5.1,3.95 Q -5.6,1.45 -3.85,0.2 L -3.6,0.05 q 1.3,-0.9 2.95,-1.25 L 2.95,-0.95 3,-0.9 q 1.85,0.7 2.5,2.55 0.25,0.65 0,1.3 L 4.75,2.65 q -4.6,-1.6 -9.05,0.9 l -0.8,0.4"
       fill="#cc0000"
       fill-rule="evenodd"
       transform="translate(11.6,9.15)"
       id="path74881" />
    <path
       d="M 5.5,2.95 7.7,3.6 q 2.15,0.3 2.8,-0.55 1.1,-1.6 0.4,-3.6 -0.65,-2 -2.05,-3.65 -2.35,-3 -6.15,-3.95 -4.55,-1.35 -8.6,1 -4.35,2.6 -5.1,7.3 -0.5,3.1 2.15,3.95 L -5.1,3.95 -4.3,3.55 Q 0.15,1.05 4.75,2.65 L 5.5,2.95 M -1.65,5.3 q 0,0.9 -0.3,1.75 M 0.6,4.8 V 8.7 M 2.35,5.3 q 0.1,1.35 1.25,1.95"
       fill="none"
       stroke="#333333"
       stroke-linecap="round"
       stroke-linejoin="round"
       transform="translate(11.6,9.15)"
       id="path74883" />
  </g>
</defs>
</g>
    <g
       id="_7">&gt;<g
   transform="translate(21.9,19.75)"
   id="g74509">
  <use
     height="18.35"
     transform="matrix(0.955,0,0,1.0809,-10.928,-6.64)"
     width="23.25"
     xlink:href="#_7a"
     id="use74489"
     x="0"
     y="0" />
  <use
     height="2.4000001"
     transform="translate(24.1,-14.65)"
     width="2.4000001"
     xlink:href="#_7b"
     id="use74491"
     x="0"
     y="0" />
  <use
     height="2.4000001"
     transform="translate(20.1,-17.25)"
     width="2.4000001"
     xlink:href="#_7b"
     id="use74493"
     x="0"
     y="0" />
  <use
     height="2.4000001"
     transform="translate(14.75,-18.45)"
     width="2.4000001"
     xlink:href="#_7b"
     id="use74495"
     x="0"
     y="0" />
  <use
     height="2.4000001"
     transform="translate(13.2,-15)"
     width="2.4000001"
     xlink:href="#_7b"
     id="use74497"
     x="0"
     y="0" />
  <use
     height="2.4000001"
     transform="translate(-13.75,-14.85)"
     width="2.4000001"
     xlink:href="#_7b"
     id="use74499"
     x="0"
     y="0" />
  <use
     height="2.4000001"
     transform="translate(-12.15,-18.65)"
     width="2.4000001"
     xlink:href="#_7b"
     id="use74501"
     x="0"
     y="0" />
  <use
     height="2.4000001"
     transform="translate(-21.3,-19.75)"
     width="2.4000001"
     xlink:href="#_7b"
     id="use74503"
     x="0"
     y="0" />
  <use
     height="2.4000001"
     transform="translate(-17.15,-17.3)"
     width="2.4000001"
     xlink:href="#_7b"
     id="use74505"
     x="0"
     y="0" />
  <use
     height="2.4000001"
     transform="translate(-21.9,-12.8)"
     width="2.4000001"
     xlink:href="#_7b"
     id="use74507"
     x="0"
     y="0" />
</g>
<defs
   id="defs74523">
  <use
     height="18.35"
     width="23.25"
     xlink:href="#_7c"
     id="use74900"
     x="0"
     y="0" />
  <use
     height="2.4000001"
     width="2.4000001"
     xlink:href="#_7d"
     id="use74902"
     x="0"
     y="0" />
  <path
     d="M 0.85,-0.85 Q 1.2,-0.5 1.2,0 1.2,0.5 0.85,0.85 0.5,1.2 0,1.2 -0.5,1.2 -0.85,0.85 -1.2,0.5 -1.2,0 -1.2,-0.5 -0.85,-0.85 -0.5,-1.2 0,-1.2 q 0.5,0 0.85,0.35"
     fill="#ffffff"
     fill-rule="evenodd"
     transform="translate(1.2,1.2)"
     id="path74904" />
  <g
     id="g74914">
    <path
       d="M -5.1,3.95 -8.85,4.1 Q -11.5,3.25 -11,0.15 q 0.75,-4.7 5.1,-7.3 4.05,-2.35 8.6,-1 3.8,0.95 6.15,3.95 1.4,1.65 2.05,3.65 0.7,2 -0.4,3.6 Q 9.85,3.9 7.7,3.6 L 5.5,2.95 Q 5.75,2.3 5.5,1.65 4.85,-0.2 3,-0.9 3.9,-1.85 3.6,-3.3 3.15,-5.65 1.05,-4.9 0.4,-4.7 0.7,-3.95 1.15,-2.75 0.2,-2.6 -2.45,-2.05 -2,-4.2 -1.9,-4.8 -2.4,-4.8 -4.75,-4.9 -4.55,-2.45 -4.4,-1 -3.6,0.05 L -3.85,0.2 Q -5.6,1.45 -5.1,3.95"
       fill="#333333"
       fill-rule="evenodd"
       transform="translate(11.6,9.15)"
       id="path74906" />
    <path
       d="M -3.6,0.05 Q -4.4,-1 -4.55,-2.45 -4.75,-4.9 -2.4,-4.8 q 0.5,0 0.4,0.6 -0.45,2.15 2.2,1.6 Q 1.15,-2.75 0.7,-3.95 0.4,-4.7 1.05,-4.9 3.15,-5.65 3.6,-3.3 3.9,-1.85 3,-0.9 L 2.95,-0.95 -0.65,-1.2 Q -2.3,-0.85 -3.6,0.05"
       fill-rule="evenodd"
       transform="translate(11.6,9.15)"
       id="path74908" />
    <path
       d="M -5.1,3.95 Q -5.6,1.45 -3.85,0.2 L -3.6,0.05 q 1.3,-0.9 2.95,-1.25 L 2.95,-0.95 3,-0.9 q 1.85,0.7 2.5,2.55 0.25,0.65 0,1.3 L 4.75,2.65 q -4.6,-1.6 -9.05,0.9 l -0.8,0.4"
       fill="#cc0000"
       fill-rule="evenodd"
       transform="translate(11.6,9.15)"
       id="path74910" />
    <path
       d="M 5.5,2.95 7.7,3.6 q 2.15,0.3 2.8,-0.55 1.1,-1.6 0.4,-3.6 -0.65,-2 -2.05,-3.65 -2.35,-3 -6.15,-3.95 -4.55,-1.35 -8.6,1 -4.35,2.6 -5.1,7.3 -0.5,3.1 2.15,3.95 L -5.1,3.95 -4.3,3.55 Q 0.15,1.05 4.75,2.65 L 5.5,2.95 M -1.65,5.3 q 0,0.9 -0.3,1.75 M 0.6,4.8 V 8.7 M 2.35,5.3 q 0.1,1.35 1.25,1.95"
       fill="none"
       stroke="#333333"
       stroke-linecap="round"
       stroke-linejoin="round"
       transform="translate(11.6,9.15)"
       id="path74912" />
  </g>
</defs>
</g>
    <g
       id="_8">&gt;<g
   transform="translate(21.9,19.75)"
   id="g74546">
  <use
     height="18.35"
     transform="matrix(0.9775,0,0,1.0405,-11.189,-6.32)"
     width="23.25"
     xlink:href="#_8a"
     id="use74526"
     x="0"
     y="0" />
  <use
     height="2.4000001"
     transform="translate(24.1,-14.65)"
     width="2.4000001"
     xlink:href="#_8b"
     id="use74528"
     x="0"
     y="0" />
  <use
     height="2.4000001"
     transform="translate(20.1,-17.25)"
     width="2.4000001"
     xlink:href="#_8b"
     id="use74530"
     x="0"
     y="0" />
  <use
     height="2.4000001"
     transform="translate(14.75,-18.45)"
     width="2.4000001"
     xlink:href="#_8b"
     id="use74532"
     x="0"
     y="0" />
  <use
     height="2.4000001"
     transform="translate(13.2,-15)"
     width="2.4000001"
     xlink:href="#_8b"
     id="use74534"
     x="0"
     y="0" />
  <use
     height="2.4000001"
     transform="translate(-13.75,-14.85)"
     width="2.4000001"
     xlink:href="#_8b"
     id="use74536"
     x="0"
     y="0" />
  <use
     height="2.4000001"
     transform="translate(-12.15,-18.65)"
     width="2.4000001"
     xlink:href="#_8b"
     id="use74538"
     x="0"
     y="0" />
  <use
     height="2.4000001"
     transform="translate(-21.3,-19.75)"
     width="2.4000001"
     xlink:href="#_8b"
     id="use74540"
     x="0"
     y="0" />
  <use
     height="2.4000001"
     transform="translate(-17.15,-17.3)"
     width="2.4000001"
     xlink:href="#_8b"
     id="use74542"
     x="0"
     y="0" />
  <use
     height="2.4000001"
     transform="translate(-21.9,-12.8)"
     width="2.4000001"
     xlink:href="#_8b"
     id="use74544"
     x="0"
     y="0" />
</g>
<defs
   id="defs74560">
  <use
     height="18.35"
     width="23.25"
     xlink:href="#_8c"
     id="use74929"
     x="0"
     y="0" />
  <use
     height="2.4000001"
     width="2.4000001"
     xlink:href="#_8d"
     id="use74931"
     x="0"
     y="0" />
  <path
     d="M 0.85,-0.85 Q 1.2,-0.5 1.2,0 1.2,0.5 0.85,0.85 0.5,1.2 0,1.2 -0.5,1.2 -0.85,0.85 -1.2,0.5 -1.2,0 -1.2,-0.5 -0.85,-0.85 -0.5,-1.2 0,-1.2 q 0.5,0 0.85,0.35"
     fill="#ffffff"
     fill-rule="evenodd"
     transform="translate(1.2,1.2)"
     id="path74933" />
  <g
     id="g74943">
    <path
       d="M -5.1,3.95 -8.85,4.1 Q -11.5,3.25 -11,0.15 q 0.75,-4.7 5.1,-7.3 4.05,-2.35 8.6,-1 3.8,0.95 6.15,3.95 1.4,1.65 2.05,3.65 0.7,2 -0.4,3.6 Q 9.85,3.9 7.7,3.6 L 5.5,2.95 Q 5.75,2.3 5.5,1.65 4.85,-0.2 3,-0.9 3.9,-1.85 3.6,-3.3 3.15,-5.65 1.05,-4.9 0.4,-4.7 0.7,-3.95 1.15,-2.75 0.2,-2.6 -2.45,-2.05 -2,-4.2 -1.9,-4.8 -2.4,-4.8 -4.75,-4.9 -4.55,-2.45 -4.4,-1 -3.6,0.05 L -3.85,0.2 Q -5.6,1.45 -5.1,3.95"
       fill="#333333"
       fill-rule="evenodd"
       transform="translate(11.6,9.15)"
       id="path74935" />
    <path
       d="M -3.6,0.05 Q -4.4,-1 -4.55,-2.45 -4.75,-4.9 -2.4,-4.8 q 0.5,0 0.4,0.6 -0.45,2.15 2.2,1.6 Q 1.15,-2.75 0.7,-3.95 0.4,-4.7 1.05,-4.9 3.15,-5.65 3.6,-3.3 3.9,-1.85 3,-0.9 L 2.95,-0.95 -0.65,-1.2 Q -2.3,-0.85 -3.6,0.05"
       fill-rule="evenodd"
       transform="translate(11.6,9.15)"
       id="path74937" />
    <path
       d="M -5.1,3.95 Q -5.6,1.45 -3.85,0.2 L -3.6,0.05 q 1.3,-0.9 2.95,-1.25 L 2.95,-0.95 3,-0.9 q 1.85,0.7 2.5,2.55 0.25,0.65 0,1.3 L 4.75,2.65 q -4.6,-1.6 -9.05,0.9 l -0.8,0.4"
       fill="#cc0000"
       fill-rule="evenodd"
       transform="translate(11.6,9.15)"
       id="path74939" />
    <path
       d="M 5.5,2.95 7.7,3.6 q 2.15,0.3 2.8,-0.55 1.1,-1.6 0.4,-3.6 -0.65,-2 -2.05,-3.65 -2.35,-3 -6.15,-3.95 -4.55,-1.35 -8.6,1 -4.35,2.6 -5.1,7.3 -0.5,3.1 2.15,3.95 L -5.1,3.95 -4.3,3.55 Q 0.15,1.05 4.75,2.65 L 5.5,2.95 M -1.65,5.3 q 0,0.9 -0.3,1.75 M 0.6,4.8 V 8.7 M 2.35,5.3 q 0.1,1.35 1.25,1.95"
       fill="none"
       stroke="#333333"
       stroke-linecap="round"
       stroke-linejoin="round"
       transform="translate(11.6,9.15)"
       id="path74941" />
  </g>
</defs>
</g>
    <g
       id="_9">&gt;<g
   transform="translate(21.9,19.75)"
   id="g74583">
  <use
     height="18.35"
     transform="translate(-11.45,-5.95)"
     width="23.25"
     xlink:href="#_9a"
     id="use74563"
     x="0"
     y="0" />
  <use
     height="2.4000001"
     transform="translate(24.1,-14.65)"
     width="2.4000001"
     xlink:href="#_9b"
     id="use74565"
     x="0"
     y="0" />
  <use
     height="2.4000001"
     transform="translate(20.1,-17.25)"
     width="2.4000001"
     xlink:href="#_9b"
     id="use74567"
     x="0"
     y="0" />
  <use
     height="2.4000001"
     transform="translate(14.75,-18.45)"
     width="2.4000001"
     xlink:href="#_9b"
     id="use74569"
     x="0"
     y="0" />
  <use
     height="2.4000001"
     transform="translate(13.2,-15)"
     width="2.4000001"
     xlink:href="#_9b"
     id="use74571"
     x="0"
     y="0" />
  <use
     height="2.4000001"
     transform="translate(-13.75,-14.85)"
     width="2.4000001"
     xlink:href="#_9b"
     id="use74573"
     x="0"
     y="0" />
  <use
     height="2.4000001"
     transform="translate(-12.15,-18.65)"
     width="2.4000001"
     xlink:href="#_9b"
     id="use74575"
     x="0"
     y="0" />
  <use
     height="2.4000001"
     transform="translate(-21.3,-19.75)"
     width="2.4000001"
     xlink:href="#_9b"
     id="use74577"
     x="0"
     y="0" />
  <use
     height="2.4000001"
     transform="translate(-17.15,-17.3)"
     width="2.4000001"
     xlink:href="#_9b"
     id="use74579"
     x="0"
     y="0" />
  <use
     height="2.4000001"
     transform="translate(-21.9,-12.8)"
     width="2.4000001"
     xlink:href="#_9b"
     id="use74581"
     x="0"
     y="0" />
</g>
<defs
   id="defs74597">
  <use
     height="18.35"
     width="23.25"
     xlink:href="#_9c"
     id="use74958"
     x="0"
     y="0" />
  <use
     height="2.4000001"
     width="2.4000001"
     xlink:href="#_9d"
     id="use74960"
     x="0"
     y="0" />
  <path
     d="M 0.85,-0.85 Q 1.2,-0.5 1.2,0 1.2,0.5 0.85,0.85 0.5,1.2 0,1.2 -0.5,1.2 -0.85,0.85 -1.2,0.5 -1.2,0 -1.2,-0.5 -0.85,-0.85 -0.5,-1.2 0,-1.2 q 0.5,0 0.85,0.35"
     fill="#ffffff"
     fill-rule="evenodd"
     transform="translate(1.2,1.2)"
     id="path74962" />
  <g
     id="g74972">
    <path
       d="M -5.1,3.95 -8.85,4.1 Q -11.5,3.25 -11,0.15 q 0.75,-4.7 5.1,-7.3 4.05,-2.35 8.6,-1 3.8,0.95 6.15,3.95 1.4,1.65 2.05,3.65 0.7,2 -0.4,3.6 Q 9.85,3.9 7.7,3.6 L 5.5,2.95 Q 5.75,2.3 5.5,1.65 4.85,-0.2 3,-0.9 3.9,-1.85 3.6,-3.3 3.15,-5.65 1.05,-4.9 0.4,-4.7 0.7,-3.95 1.15,-2.75 0.2,-2.6 -2.45,-2.05 -2,-4.2 -1.9,-4.8 -2.4,-4.8 -4.75,-4.9 -4.55,-2.45 -4.4,-1 -3.6,0.05 L -3.85,0.2 Q -5.6,1.45 -5.1,3.95"
       fill="#333333"
       fill-rule="evenodd"
       transform="translate(11.6,9.15)"
       id="path74964" />
    <path
       d="M -3.6,0.05 Q -4.4,-1 -4.55,-2.45 -4.75,-4.9 -2.4,-4.8 q 0.5,0 0.4,0.6 -0.45,2.15 2.2,1.6 Q 1.15,-2.75 0.7,-3.95 0.4,-4.7 1.05,-4.9 3.15,-5.65 3.6,-3.3 3.9,-1.85 3,-0.9 L 2.95,-0.95 -0.65,-1.2 Q -2.3,-0.85 -3.6,0.05"
       fill-rule="evenodd"
       transform="translate(11.6,9.15)"
       id="path74966" />
    <path
       d="M -5.1,3.95 Q -5.6,1.45 -3.85,0.2 L -3.6,0.05 q 1.3,-0.9 2.95,-1.25 L 2.95,-0.95 3,-0.9 q 1.85,0.7 2.5,2.55 0.25,0.65 0,1.3 L 4.75,2.65 q -4.6,-1.6 -9.05,0.9 l -0.8,0.4"
       fill="#cc0000"
       fill-rule="evenodd"
       transform="translate(11.6,9.15)"
       id="path74968" />
    <path
       d="M 5.5,2.95 7.7,3.6 q 2.15,0.3 2.8,-0.55 1.1,-1.6 0.4,-3.6 -0.65,-2 -2.05,-3.65 -2.35,-3 -6.15,-3.95 -4.55,-1.35 -8.6,1 -4.35,2.6 -5.1,7.3 -0.5,3.1 2.15,3.95 L -5.1,3.95 -4.3,3.55 Q 0.15,1.05 4.75,2.65 L 5.5,2.95 M -1.65,5.3 q 0,0.9 -0.3,1.75 M 0.6,4.8 V 8.7 M 2.35,5.3 q 0.1,1.35 1.25,1.95"
       fill="none"
       stroke="#333333"
       stroke-linecap="round"
       stroke-linejoin="round"
       transform="translate(11.6,9.15)"
       id="path74970" />
  </g>
</defs>
</g>
  </g>
</svg>
