<svg xmlns:xlink="http://www.w3.org/1999/xlink" height="100.8" width="132.65" xmlns="http://www.w3.org/2000/svg"><g transform="translate(77.75 73.55)"><use height="11.55" transform="translate(-12.3 -3.85)" width="25.05" xlink:href="#a"/><use height="38.3" transform="matrix(1.2 0 0 1.2 -4.69 -32.22)" width="43.2" xlink:href="#b"/><use height="38.3" transform="matrix(.8 0 0 .8 -50.06 -26.68)" width="43.2" xlink:href="#b"/><use height="38.3" transform="matrix(1.2 0 0 1.2 -77.74 -29.92)" width="43.2" xlink:href="#b"/><use height="38.3" transform="matrix(.8 0 0 .8 -7.81 -26.58)" width="43.2" xlink:href="#b"/><use height="38.3" transform="matrix(.8 0 0 .8 3.79 -3.38)" width="43.2" xlink:href="#b"/><use height="38.3" transform="matrix(.8 0 0 .8 -54.86 -4.48)" width="43.2" xlink:href="#b"/><use height="5.9" transform="translate(-7.2 -5.9)" width="14.1" xlink:href="#c"/></g><defs><radialGradient cx="0" cy="0" gradientTransform="translate(8.5 .75) scale(.0068)" gradientUnits="userSpaceOnUse" id="f" r="819.2" spreadMethod="pad"><stop offset=".243" stop-color="#ff55a2"/><stop offset=".631" stop-color="#fff" stop-opacity="0"/></radialGradient><radialGradient cx="0" cy="0" gradientTransform="translate(-8.25 .75) scale(.0065)" gradientUnits="userSpaceOnUse" id="g" r="819.2" spreadMethod="pad"><stop offset=".243" stop-color="#ff55a2"/><stop offset=".631" stop-color="#fff" stop-opacity="0"/></radialGradient><use height="10.25" transform="matrix(1.2 0 0 1.2 28.26 25.98)" width="12.45" xlink:href="#d" id="b"/><use height="10.25" width="12.45" xlink:href="#e" id="d"/><g id="a"><path d="M6.8-3.45q4.25-.4 5.75 3.35.3.85.15 1.75-.55 3.5-4.35 3.15Q5 4.45 4.1 1.8l-.2-.75q-.25-1.3.25-2.5.75-1.85 2.65-2" fill="url(#f)" fill-rule="evenodd" transform="translate(12.3 3.85)"/><path d="M-3.55-.2q.75 3.4-2.25 4.8l-.45.15Q-8.7 5.1-10.3 4l-1.55-1.7-.4-1.15Q-12.55-2-10.3-3.2q.65-.4 1.5-.6 4.35-.4 5.25 3.6" fill="url(#g)" fill-rule="evenodd" transform="translate(12.3 3.85)"/><path d="M-3.45 4.75.1 7.2l3.4-2.3" fill="none" stroke="#333" stroke-linecap="round" stroke-linejoin="round" transform="translate(12.3 3.85)"/></g><g id="c"><path d="M1.35-3.15v.05l-.05.7-.2.1.25-.85" fill="#fff" fill-rule="evenodd" transform="translate(7.2 5.9)"/><path d="m.9-.6.05-.7v-.1l.15-.9.25-.85.35-.8q.6-1.1 1.4-1.35l.55-.1q1.15 0 1.95 1.45.65 1.1.8 2.65v.8M-6.7-.65l.05-.65q.15-1.5.8-2.6.75-1.45 1.9-1.45l.65.15q.75.25 1.3 1.3.6 1.05.75 2.45v.15l.05.6" fill="none" stroke="#666" stroke-linecap="round" stroke-linejoin="round" transform="translate(7.2 5.9)"/></g><path d="m-2.6 5 .1-.9q0-1.35-.95-2.4L-5.25 0q-.95-1.05-.95-2.3 0-1.25.95-2l.05-.05.05-.05.15-.1h.05l.05-.05.05-.05h.05v-.05l.6-.2q-.65.3-.7 1.15 0 .3-.15.6.95 1.35 2.65 1.95l.8.6Q0 1.6-1.45 3.8L-2.6 5" fill="#c36" fill-rule="evenodd" transform="translate(6.2 5.1)" id="e"/></defs></svg>