<?xml version="1.0" encoding="UTF-8" standalone="no"?>
<svg
   height="100.8"
   width="132.65"
   version="1.1"
   id="svg75728"
   sodipodi:docname="parano.svg"
   inkscape:version="1.1.1 (3bf5ae0d25, 2021-09-20, custom)"
   xmlns:inkscape="http://www.inkscape.org/namespaces/inkscape"
   xmlns:sodipodi="http://sodipodi.sourceforge.net/DTD/sodipodi-0.dtd"
   xmlns:xlink="http://www.w3.org/1999/xlink"
   xmlns="http://www.w3.org/2000/svg"
   xmlns:svg="http://www.w3.org/2000/svg">
  <sodipodi:namedview
     id="namedview75730"
     pagecolor="#505050"
     bordercolor="#eeeeee"
     borderopacity="1"
     inkscape:pageshadow="0"
     inkscape:pageopacity="0"
     inkscape:pagecheckerboard="0"
     showgrid="false"
     inkscape:current-layer="svg75728" />
  <g
     id="g76084"
     transform="translate(65.95,75.3)"
     style="display:inline">
    <g
       id="_0">&gt;<use
   height="8.3999996"
   transform="translate(0.6,1.1)"
   width="23.25"
   xlink:href="#_0a"
   id="use75965"
   x="0"
   y="0" />
<defs
   id="defs75977">
  <use
     height="8.3999996"
     width="23.25"
     xlink:href="#_0b"
     id="use76040"
     x="0"
     y="0" />
  <g
     id="g76050">
    <path
       d="m -0.15,-3.7 2.85,0.3 q 3.8,0.5 6.15,2.25 l 0.3,0.2 -1,2.25 L 7.4,2.15 6.5,3.1 5.5,2.9 4.75,2.75 2.6,2.45 Q 2.8,1.8 3.35,1 L 4,-0.45 5.65,-0.05 Q 6.9,0.35 8.15,1.3 6.9,0.35 5.65,-0.05 L 4,-0.45 3.35,1 Q 2.8,1.8 2.6,2.45 -0.6,2.2 -3.7,3.1 L -5.1,1 -5.5,0.2 -1.7,-0.75 0,-0.8 V 1.65 -0.8 L -1.7,-0.75 -5.5,0.2 -5.1,1 -3.7,3.1 -4.3,3.25 -5.1,3.45 -6.95,3.7 -8.25,2.1 -8.45,1.75 -9.5,-0.9 q 1.25,-1.15 3.6,-1.95 -0.05,1.9 0.4,3.05 h -0.05 l -2.9,1.55 2.9,-1.55 h 0.05 q -0.45,-1.15 -0.4,-3.05 2.75,-0.9 5.75,-0.85 L 0,-0.8 2.1,-0.7 4,-0.45 4.2,-2.55 4,-0.45 2.1,-0.7 0,-0.8 -0.15,-3.7"
       fill="#ffffff"
       fill-rule="evenodd"
       transform="translate(11.6,4.2)"
       id="path76042" />
    <path
       d="M 6.5,3.1 7.4,2.15 8.15,1.3 l 1,-2.25 Q 10.3,-0.1 10.9,0.9 11.6,2.05 10.5,2.95 L 7.7,3.3 6.5,3.1 m -16,-4 1.05,2.65 0.2,0.35 1.3,1.6 -1.9,-0.15 Q -11.5,3.05 -11,1.3 q 0.35,-1.25 1.5,-2.2"
       fill="#666666"
       fill-rule="evenodd"
       transform="translate(11.6,4.2)"
       id="path76044" />
    <path
       d="m 9.15,-0.95 -0.3,-0.2 Q 6.5,-2.9 2.7,-3.4 l -2.85,-0.3 q -3,-0.05 -5.75,0.85 -2.35,0.8 -3.6,1.95 -1.15,0.95 -1.5,2.2 -0.5,1.75 2.15,2.25 L -6.95,3.7 -5.1,3.45 -4.3,3.25 -3.7,3.1 Q -0.6,2.2 2.6,2.45 l 2.15,0.3 0.75,0.15 1,0.2 1.2,0.2 2.8,-0.35 q 1.1,-0.9 0.4,-2.05 -0.6,-1 -1.75,-1.85"
       fill="none"
       stroke="#333333"
       stroke-linecap="round"
       stroke-linejoin="round"
       transform="translate(11.6,4.2)"
       id="path76046" />
    <path
       d="M -0.15,-3.7 0,-0.8 2.1,-0.7 4,-0.45 4.2,-2.55 M 8.15,1.3 Q 6.9,0.35 5.65,-0.05 L 4,-0.45 3.35,1 Q 2.8,1.8 2.6,2.45 M 6.5,3.1 7.4,2.15 8.15,1.3 l 1,-2.25 M 0,1.65 V -0.8 l -1.7,0.05 -3.8,0.95 0.4,0.8 1.4,2.1 m -5.8,-4 1.05,2.65 2.9,-1.55 h 0.05 q -0.45,-1.15 -0.4,-3.05 m -2.55,4.6 0.2,0.35 1.3,1.6"
       fill="none"
       stroke="#666666"
       stroke-linecap="round"
       stroke-linejoin="round"
       transform="translate(11.6,4.2)"
       id="path76048" />
  </g>
</defs>
</g>
    <g
       id="_1"
       style="display:inline">&gt;<use
   height="8.3999996"
   transform="matrix(1.0538,0,0,0.8919,-0.024,1.554)"
   width="23.25"
   xlink:href="#_1a"
   id="use75980"
   x="0"
   y="0" />
<defs
   id="defs75992">
  <use
     height="8.3999996"
     width="23.25"
     xlink:href="#_1b"
     id="use76055"
     x="0"
     y="0" />
  <g
     id="g76065">
    <path
       d="m -0.15,-3.7 2.85,0.3 q 3.8,0.5 6.15,2.25 l 0.3,0.2 -1,2.25 L 7.4,2.15 6.5,3.1 5.5,2.9 4.75,2.75 2.6,2.45 Q 2.8,1.8 3.35,1 L 4,-0.45 5.65,-0.05 Q 6.9,0.35 8.15,1.3 6.9,0.35 5.65,-0.05 L 4,-0.45 3.35,1 Q 2.8,1.8 2.6,2.45 -0.6,2.2 -3.7,3.1 L -5.1,1 -5.5,0.2 -1.7,-0.75 0,-0.8 V 1.65 -0.8 L -1.7,-0.75 -5.5,0.2 -5.1,1 -3.7,3.1 -4.3,3.25 -5.1,3.45 -6.95,3.7 -8.25,2.1 -8.45,1.75 -9.5,-0.9 q 1.25,-1.15 3.6,-1.95 -0.05,1.9 0.4,3.05 h -0.05 l -2.9,1.55 2.9,-1.55 h 0.05 q -0.45,-1.15 -0.4,-3.05 2.75,-0.9 5.75,-0.85 L 0,-0.8 2.1,-0.7 4,-0.45 4.2,-2.55 4,-0.45 2.1,-0.7 0,-0.8 -0.15,-3.7"
       fill="#ffffff"
       fill-rule="evenodd"
       transform="translate(11.6,4.2)"
       id="path76057" />
    <path
       d="M 6.5,3.1 7.4,2.15 8.15,1.3 l 1,-2.25 Q 10.3,-0.1 10.9,0.9 11.6,2.05 10.5,2.95 L 7.7,3.3 6.5,3.1 m -16,-4 1.05,2.65 0.2,0.35 1.3,1.6 -1.9,-0.15 Q -11.5,3.05 -11,1.3 q 0.35,-1.25 1.5,-2.2"
       fill="#666666"
       fill-rule="evenodd"
       transform="translate(11.6,4.2)"
       id="path76059" />
    <path
       d="m 9.15,-0.95 -0.3,-0.2 Q 6.5,-2.9 2.7,-3.4 l -2.85,-0.3 q -3,-0.05 -5.75,0.85 -2.35,0.8 -3.6,1.95 -1.15,0.95 -1.5,2.2 -0.5,1.75 2.15,2.25 L -6.95,3.7 -5.1,3.45 -4.3,3.25 -3.7,3.1 Q -0.6,2.2 2.6,2.45 l 2.15,0.3 0.75,0.15 1,0.2 1.2,0.2 2.8,-0.35 q 1.1,-0.9 0.4,-2.05 -0.6,-1 -1.75,-1.85"
       fill="none"
       stroke="#333333"
       stroke-linecap="round"
       stroke-linejoin="round"
       transform="translate(11.6,4.2)"
       id="path76061" />
    <path
       d="M -0.15,-3.7 0,-0.8 2.1,-0.7 4,-0.45 4.2,-2.55 M 8.15,1.3 Q 6.9,0.35 5.65,-0.05 L 4,-0.45 3.35,1 Q 2.8,1.8 2.6,2.45 M 6.5,3.1 7.4,2.15 8.15,1.3 l 1,-2.25 M 0,1.65 V -0.8 l -1.7,0.05 -3.8,0.95 0.4,0.8 1.4,2.1 m -5.8,-4 1.05,2.65 2.9,-1.55 h 0.05 q -0.45,-1.15 -0.4,-3.05 m -2.55,4.6 0.2,0.35 1.3,1.6"
       fill="none"
       stroke="#666666"
       stroke-linecap="round"
       stroke-linejoin="round"
       transform="translate(11.6,4.2)"
       id="path76063" />
  </g>
</defs>
</g>
    <g
       id="_2"
       style="display:inline">&gt;<use
   height="8.3999996"
   transform="matrix(0.8924,0,0,1.2667,1.848,-0.02)"
   width="23.25"
   xlink:href="#_2a"
   id="use75995"
   x="0"
   y="0" />
<defs
   id="defs76007">
  <use
     height="8.3999996"
     width="23.25"
     xlink:href="#_2b"
     id="use76070"
     x="0"
     y="0" />
  <g
     id="g76080">
    <path
       d="m -0.15,-3.7 2.85,0.3 q 3.8,0.5 6.15,2.25 l 0.3,0.2 -1,2.25 L 7.4,2.15 6.5,3.1 5.5,2.9 4.75,2.75 2.6,2.45 Q 2.8,1.8 3.35,1 L 4,-0.45 5.65,-0.05 Q 6.9,0.35 8.15,1.3 6.9,0.35 5.65,-0.05 L 4,-0.45 3.35,1 Q 2.8,1.8 2.6,2.45 -0.6,2.2 -3.7,3.1 L -5.1,1 -5.5,0.2 -1.7,-0.75 0,-0.8 V 1.65 -0.8 L -1.7,-0.75 -5.5,0.2 -5.1,1 -3.7,3.1 -4.3,3.25 -5.1,3.45 -6.95,3.7 -8.25,2.1 -8.45,1.75 -9.5,-0.9 q 1.25,-1.15 3.6,-1.95 -0.05,1.9 0.4,3.05 h -0.05 l -2.9,1.55 2.9,-1.55 h 0.05 q -0.45,-1.15 -0.4,-3.05 2.75,-0.9 5.75,-0.85 L 0,-0.8 2.1,-0.7 4,-0.45 4.2,-2.55 4,-0.45 2.1,-0.7 0,-0.8 -0.15,-3.7"
       fill="#ffffff"
       fill-rule="evenodd"
       transform="translate(11.6,4.2)"
       id="path76072" />
    <path
       d="M 6.5,3.1 7.4,2.15 8.15,1.3 l 1,-2.25 Q 10.3,-0.1 10.9,0.9 11.6,2.05 10.5,2.95 L 7.7,3.3 6.5,3.1 m -16,-4 1.05,2.65 0.2,0.35 1.3,1.6 -1.9,-0.15 Q -11.5,3.05 -11,1.3 q 0.35,-1.25 1.5,-2.2"
       fill="#666666"
       fill-rule="evenodd"
       transform="translate(11.6,4.2)"
       id="path76074" />
    <path
       d="m 9.15,-0.95 -0.3,-0.2 Q 6.5,-2.9 2.7,-3.4 l -2.85,-0.3 q -3,-0.05 -5.75,0.85 -2.35,0.8 -3.6,1.95 -1.15,0.95 -1.5,2.2 -0.5,1.75 2.15,2.25 L -6.95,3.7 -5.1,3.45 -4.3,3.25 -3.7,3.1 Q -0.6,2.2 2.6,2.45 l 2.15,0.3 0.75,0.15 1,0.2 1.2,0.2 2.8,-0.35 q 1.1,-0.9 0.4,-2.05 -0.6,-1 -1.75,-1.85"
       fill="none"
       stroke="#333333"
       stroke-linecap="round"
       stroke-linejoin="round"
       transform="translate(11.6,4.2)"
       id="path76076" />
    <path
       d="M -0.15,-3.7 0,-0.8 2.1,-0.7 4,-0.45 4.2,-2.55 M 8.15,1.3 Q 6.9,0.35 5.65,-0.05 L 4,-0.45 3.35,1 Q 2.8,1.8 2.6,2.45 M 6.5,3.1 7.4,2.15 8.15,1.3 l 1,-2.25 M 0,1.65 V -0.8 l -1.7,0.05 -3.8,0.95 0.4,0.8 1.4,2.1 m -5.8,-4 1.05,2.65 2.9,-1.55 h 0.05 q -0.45,-1.15 -0.4,-3.05 m -2.55,4.6 0.2,0.35 1.3,1.6"
       fill="none"
       stroke="#666666"
       stroke-linecap="round"
       stroke-linejoin="round"
       transform="translate(11.6,4.2)"
       id="path76078" />
  </g>
</defs>
</g>
  </g>
  <g
     transform="translate(77.75,73.55)"
     id="g75694">
    <use
       height="13"
       transform="translate(-11.65,-8.25)"
       width="23.5"
       xlink:href="#b"
       id="use75692"
       x="0"
       y="0" />
  </g>
  <defs
     id="defs75726">
    <radialGradient
       cx="0"
       cy="0"
       gradientTransform="matrix(.008 0 0 .008 -5.15 -1.75)"
       gradientUnits="userSpaceOnUse"
       id="e"
       r="819.2"
       spreadMethod="pad">
      <stop
         offset=".522"
         id="stop75696" />
      <stop
         offset="1"
         stop-opacity="0"
         id="stop75698" />
    </radialGradient>
    <radialGradient
       cx="0"
       cy="0"
       gradientTransform="matrix(.008 0 0 .008 5.35 -1.75)"
       gradientUnits="userSpaceOnUse"
       id="f"
       r="819.2"
       spreadMethod="pad">
      <stop
         offset=".522"
         id="stop75701" />
      <stop
         offset="1"
         stop-opacity="0"
         id="stop75703" />
    </radialGradient>
    <use
       height="8.4"
       transform="translate(0 1.1)"
       width="23.25"
       xlink:href="#c"
       id="a" />
    <use
       height="8.4"
       width="23.25"
       xlink:href="#d"
       id="c" />
    <g
       id="d">
      <path
         d="M2.6 2.45q.2-.65.75-1.45L4-.45l1.65.4q1.25.4 2.5 1.35Q6.9.35 5.65-.05L4-.45 3.35 1q-.55.8-.75 1.45-3.2-.25-6.3.65L-5.1 1l-.4-.8 3.8-.95L0-.8v2.45V-.8l-1.7.05-3.8.95.4.8 1.4 2.1-.6.15-.8.2-1.85.25-1.3-1.6-.2-.35L-9.5-.9q1.25-1.15 3.6-1.95 2.75-.9 5.75-.85l2.85.3q3.8.5 6.15 2.25l.3.2-1 2.25-.75.85-.9.95-1-.2-.75-.15-2.15-.3m1.6-5L4-.45 2.1-.7 0-.8l-.15-2.9L0-.8l2.1.1L4-.45l.2-2.1m-10.1-.3q-.05 1.9.4 3.05h-.05l-2.9 1.55L-5.55.2h.05q-.45-1.15-.4-3.05"
         fill="#fff"
         fill-rule="evenodd"
         transform="translate(11.6 4.2)"
         id="path75708" />
      <path
         d="m6.5 3.1.9-.95.75-.85 1-2.25Q10.3-.1 10.9.9q.7 1.15-.4 2.05l-2.8.35-1.2-.2m-13.45.6-1.9-.15Q-11.5 3.05-11 1.3q.35-1.25 1.5-2.2l1.05 2.65.2.35 1.3 1.6"
         fill="#666"
         fill-rule="evenodd"
         transform="translate(11.6 4.2)"
         id="path75710" />
      <path
         d="m2.6 2.45 2.15.3.75.15 1 .2 1.2.2 2.8-.35q1.1-.9.4-2.05-.6-1-1.75-1.85l-.3-.2Q6.5-2.9 2.7-3.4l-2.85-.3q-3-.05-5.75.85-2.35.8-3.6 1.95-1.15.95-1.5 2.2-.5 1.75 2.15 2.25l1.9.15 1.85-.25.8-.2.6-.15q3.1-.9 6.3-.65"
         fill="none"
         stroke="#333"
         stroke-linecap="round"
         stroke-linejoin="round"
         transform="translate(11.6 4.2)"
         id="path75712" />
      <path
         d="M8.15 1.3Q6.9.35 5.65-.05L4-.45 3.35 1q-.55.8-.75 1.45m3.9.65.9-.95.75-.85 1-2.25M-.15-3.7 0-.8l2.1.1L4-.45l.2-2.1M0 1.65V-.8l-1.7.05-3.8.95.4.8 1.4 2.1m-5.8-4 1.05 2.65L-5.55.2h.05q-.45-1.15-.4-3.05m-2.55 4.6.2.35 1.3 1.6"
         fill="none"
         stroke="#666"
         stroke-linecap="round"
         stroke-linejoin="round"
         transform="translate(11.6 4.2)"
         id="path75714" />
    </g>
    <g
       id="b"
       fill-rule="evenodd">
      <path
         d="M-5.15-4.8q-1.3 0-2.2.9-.9.85-.85 2.15Q-8.25-.5-7.35.4q.9.9 2.2.9Q-3.9 1.3-3 .4q.9-.9.9-2.15 0-1.3-.9-2.15-.9-.9-2.15-.9m0-3.45q2.65-.05 4.6 1.9 1.9 1.9 1.9 4.6 0 2.65-1.9 4.6-1.95 1.9-4.6 1.9-2.7 0-4.6-1.9-1.95-1.95-1.9-4.6-.05-2.7 1.9-4.6 1.9-1.95 4.6-1.9"
         fill="url(#e)"
         transform="translate(11.65 8.25)"
         id="path75717" />
      <path
         d="M-5.15-4.8q1.25 0 2.15.9.9.85.9 2.15Q-2.1-.5-3 .4q-.9.9-2.15.9-1.3 0-2.2-.9-.9-.9-.85-2.15-.05-1.3.85-2.15.9-.9 2.2-.9"
         fill="#fff"
         transform="translate(11.65 8.25)"
         id="path75719" />
      <path
         d="M5.35-8.25Q8-8.3 9.95-6.35q1.9 1.9 1.9 4.6 0 2.65-1.9 4.6-1.95 1.9-4.6 1.9-2.7 0-4.6-1.9Q-1.2.9-1.15-1.75q-.05-2.7 1.9-4.6 1.9-1.95 4.6-1.9m0 3.45q-1.3 0-2.2.9-.9.85-.85 2.15Q2.25-.5 3.15.4q.9.9 2.2.9Q6.6 1.3 7.5.4q.9-.9.9-2.15 0-1.3-.9-2.15-.9-.9-2.15-.9"
         fill="url(#f)"
         transform="translate(11.65 8.25)"
         id="path75721" />
      <path
         d="M5.35-4.8q1.25 0 2.15.9.9.85.9 2.15Q8.4-.5 7.5.4q-.9.9-2.15.9-1.3 0-2.2-.9-.9-.9-.85-2.15-.05-1.3.85-2.15.9-.9 2.2-.9"
         fill="#fff"
         transform="translate(11.65 8.25)"
         id="path75723" />
    </g>
    <style
       type="text/css"
       id="style75961">#_0,#_1,#_2{visibility:hidden}</style>
    <use
       height="8.4"
       width="23.25"
       xlink:href="#_0b"
       id="_0a" />
    <g
       id="_0b">
      <path
         d="m-.15-3.7 2.85.3q3.8.5 6.15 2.25l.3.2-1 2.25-.75.85-.9.95-1-.2-.75-.15-2.15-.3q.2-.65.75-1.45L4-.45l1.65.4q1.25.4 2.5 1.35Q6.9.35 5.65-.05L4-.45 3.35 1q-.55.8-.75 1.45-3.2-.25-6.3.65L-5.1 1l-.4-.8 3.8-.95L0-.8v2.45V-.8l-1.7.05-3.8.95.4.8 1.4 2.1-.6.15-.8.2-1.85.25-1.3-1.6-.2-.35L-9.5-.9q1.25-1.15 3.6-1.95-.05 1.9.4 3.05h-.05l-2.9 1.55L-5.55.2h.05q-.45-1.15-.4-3.05 2.75-.9 5.75-.85L0-.8l2.1.1L4-.45l.2-2.1L4-.45 2.1-.7 0-.8l-.15-2.9"
         fill="#fff"
         fill-rule="evenodd"
         transform="translate(11.6 4.2)"
         id="path75968" />
      <path
         d="m6.5 3.1.9-.95.75-.85 1-2.25Q10.3-.1 10.9.9q.7 1.15-.4 2.05l-2.8.35-1.2-.2m-16-4 1.05 2.65.2.35 1.3 1.6-1.9-.15Q-11.5 3.05-11 1.3q.35-1.25 1.5-2.2"
         fill="#666"
         fill-rule="evenodd"
         transform="translate(11.6 4.2)"
         id="path75970" />
      <path
         d="m9.15-.95-.3-.2Q6.5-2.9 2.7-3.4l-2.85-.3q-3-.05-5.75.85-2.35.8-3.6 1.95-1.15.95-1.5 2.2-.5 1.75 2.15 2.25l1.9.15 1.85-.25.8-.2.6-.15q3.1-.9 6.3-.65l2.15.3.75.15 1 .2 1.2.2 2.8-.35q1.1-.9.4-2.05-.6-1-1.75-1.85"
         fill="none"
         stroke="#333"
         stroke-linecap="round"
         stroke-linejoin="round"
         transform="translate(11.6 4.2)"
         id="path75972" />
      <path
         d="M-.15-3.7 0-.8l2.1.1L4-.45l.2-2.1M8.15 1.3Q6.9.35 5.65-.05L4-.45 3.35 1q-.55.8-.75 1.45m3.9.65.9-.95.75-.85 1-2.25M0 1.65V-.8l-1.7.05-3.8.95.4.8 1.4 2.1m-5.8-4 1.05 2.65L-5.55.2h.05q-.45-1.15-.4-3.05m-2.55 4.6.2.35 1.3 1.6"
         fill="none"
         stroke="#666"
         stroke-linecap="round"
         stroke-linejoin="round"
         transform="translate(11.6 4.2)"
         id="path75974" />
    </g>
    <use
       height="8.4"
       width="23.25"
       xlink:href="#_1b"
       id="_1a" />
    <g
       id="_1b">
      <path
         d="m-.15-3.7 2.85.3q3.8.5 6.15 2.25l.3.2-1 2.25-.75.85-.9.95-1-.2-.75-.15-2.15-.3q.2-.65.75-1.45L4-.45l1.65.4q1.25.4 2.5 1.35Q6.9.35 5.65-.05L4-.45 3.35 1q-.55.8-.75 1.45-3.2-.25-6.3.65L-5.1 1l-.4-.8 3.8-.95L0-.8v2.45V-.8l-1.7.05-3.8.95.4.8 1.4 2.1-.6.15-.8.2-1.85.25-1.3-1.6-.2-.35L-9.5-.9q1.25-1.15 3.6-1.95-.05 1.9.4 3.05h-.05l-2.9 1.55L-5.55.2h.05q-.45-1.15-.4-3.05 2.75-.9 5.75-.85L0-.8l2.1.1L4-.45l.2-2.1L4-.45 2.1-.7 0-.8l-.15-2.9"
         fill="#fff"
         fill-rule="evenodd"
         transform="translate(11.6 4.2)"
         id="path75983" />
      <path
         d="m6.5 3.1.9-.95.75-.85 1-2.25Q10.3-.1 10.9.9q.7 1.15-.4 2.05l-2.8.35-1.2-.2m-16-4 1.05 2.65.2.35 1.3 1.6-1.9-.15Q-11.5 3.05-11 1.3q.35-1.25 1.5-2.2"
         fill="#666"
         fill-rule="evenodd"
         transform="translate(11.6 4.2)"
         id="path75985" />
      <path
         d="m9.15-.95-.3-.2Q6.5-2.9 2.7-3.4l-2.85-.3q-3-.05-5.75.85-2.35.8-3.6 1.95-1.15.95-1.5 2.2-.5 1.75 2.15 2.25l1.9.15 1.85-.25.8-.2.6-.15q3.1-.9 6.3-.65l2.15.3.75.15 1 .2 1.2.2 2.8-.35q1.1-.9.4-2.05-.6-1-1.75-1.85"
         fill="none"
         stroke="#333"
         stroke-linecap="round"
         stroke-linejoin="round"
         transform="translate(11.6 4.2)"
         id="path75987" />
      <path
         d="M-.15-3.7 0-.8l2.1.1L4-.45l.2-2.1M8.15 1.3Q6.9.35 5.65-.05L4-.45 3.35 1q-.55.8-.75 1.45m3.9.65.9-.95.75-.85 1-2.25M0 1.65V-.8l-1.7.05-3.8.95.4.8 1.4 2.1m-5.8-4 1.05 2.65L-5.55.2h.05q-.45-1.15-.4-3.05m-2.55 4.6.2.35 1.3 1.6"
         fill="none"
         stroke="#666"
         stroke-linecap="round"
         stroke-linejoin="round"
         transform="translate(11.6 4.2)"
         id="path75989" />
    </g>
    <use
       height="8.4"
       width="23.25"
       xlink:href="#_2b"
       id="_2a" />
    <g
       id="_2b">
      <path
         d="m-.15-3.7 2.85.3q3.8.5 6.15 2.25l.3.2-1 2.25-.75.85-.9.95-1-.2-.75-.15-2.15-.3q.2-.65.75-1.45L4-.45l1.65.4q1.25.4 2.5 1.35Q6.9.35 5.65-.05L4-.45 3.35 1q-.55.8-.75 1.45-3.2-.25-6.3.65L-5.1 1l-.4-.8 3.8-.95L0-.8v2.45V-.8l-1.7.05-3.8.95.4.8 1.4 2.1-.6.15-.8.2-1.85.25-1.3-1.6-.2-.35L-9.5-.9q1.25-1.15 3.6-1.95-.05 1.9.4 3.05h-.05l-2.9 1.55L-5.55.2h.05q-.45-1.15-.4-3.05 2.75-.9 5.75-.85L0-.8l2.1.1L4-.45l.2-2.1L4-.45 2.1-.7 0-.8l-.15-2.9"
         fill="#fff"
         fill-rule="evenodd"
         transform="translate(11.6 4.2)"
         id="path75998" />
      <path
         d="m6.5 3.1.9-.95.75-.85 1-2.25Q10.3-.1 10.9.9q.7 1.15-.4 2.05l-2.8.35-1.2-.2m-16-4 1.05 2.65.2.35 1.3 1.6-1.9-.15Q-11.5 3.05-11 1.3q.35-1.25 1.5-2.2"
         fill="#666"
         fill-rule="evenodd"
         transform="translate(11.6 4.2)"
         id="path76000" />
      <path
         d="m9.15-.95-.3-.2Q6.5-2.9 2.7-3.4l-2.85-.3q-3-.05-5.75.85-2.35.8-3.6 1.95-1.15.95-1.5 2.2-.5 1.75 2.15 2.25l1.9.15 1.85-.25.8-.2.6-.15q3.1-.9 6.3-.65l2.15.3.75.15 1 .2 1.2.2 2.8-.35q1.1-.9.4-2.05-.6-1-1.75-1.85"
         fill="none"
         stroke="#333"
         stroke-linecap="round"
         stroke-linejoin="round"
         transform="translate(11.6 4.2)"
         id="path76002" />
      <path
         d="M-.15-3.7 0-.8l2.1.1L4-.45l.2-2.1M8.15 1.3Q6.9.35 5.65-.05L4-.45 3.35 1q-.55.8-.75 1.45m3.9.65.9-.95.75-.85 1-2.25M0 1.65V-.8l-1.7.05-3.8.95.4.8 1.4 2.1m-5.8-4 1.05 2.65L-5.55.2h.05q-.45-1.15-.4-3.05m-2.55 4.6.2.35 1.3 1.6"
         fill="none"
         stroke="#666"
         stroke-linecap="round"
         stroke-linejoin="round"
         transform="translate(11.6 4.2)"
         id="path76004" />
    </g>
    <style
       type="text/css"
       id="style76010">#_0,#_1,#_2{animation:0.12s linear _k infinite}#_0{animation-delay:0s}#_1{animation-delay:0.04s}#_2{animation-delay:0.08s}@keyframes _k{0%,33.333333%{visibility:visible}33.334167%,100%{visibility:hidden}}#_{visibility:hidden}</style>
  </defs>
</svg>
