<svg xmlns:xlink="http://www.w3.org/1999/xlink" height="100.8" width="132.65" xmlns="http://www.w3.org/2000/svg"><use height="15.85" transform="translate(66.4 65.85)" width="23.05" xlink:href="#a"/><defs><g id="a"><path d="m8.75 3.85-7.7-.7-8.55.5-3.85-.2q0-.9 3.45-2.6Q-4.45-.85.35-.9 5.05-.9 8.4.85q3.3 1.7 3.3 2.65 0 .85-2.95.35" fill="#6596cc" fill-opacity=".431" fill-rule="evenodd" transform="translate(11.35 7.7)"/><path d="M8.1.55Q.2 1.5-7.7.55l-.2-1.95q7.55-1.35 15.65-.15L8.1.55" fill="#fff" fill-rule="evenodd" transform="translate(11.35 7.7)"/><path d="M3.35-2H4.6v.15q0 .75-.4 1.3-.4.5-.95.5-.55 0-.95-.5-.4-.55-.35-1.3V-2h.6l.05.15.35.2.3-.2.1-.15" fill-rule="evenodd" transform="translate(11.35 7.7)"/><path d="m3.35-2-.1.15-.3.2-.35-.2L2.55-2h.8" fill="#fff" fill-rule="evenodd" transform="translate(11.35 7.7)"/><path d="m-3.95-2.1.1.25.35.2.3-.2.15-.25h1.2v.25q0 .75-.4 1.3-.4.5-.95.5-.55 0-.95-.5-.4-.55-.35-1.3v-.25h.55" fill-rule="evenodd" transform="translate(11.35 7.7)"/><path d="m-3.05-2.1-.15.25-.3.2-.35-.2-.1-.25h.9" fill="#fff" fill-rule="evenodd" transform="translate(11.35 7.7)"/><path d="M9.9-.3Q4.75 1.25.55 1.35q-.4-.9-.45-2V-1l.1-1.15Q4-2.1 9.9-.3M-.45-2.15l.1 1.2q0 1.25-.4 2.25-4.1-.05-8.7-1.8 5.05-1.65 9-1.65M.4-2.9q.1-1 .5-1.85l.65-1q1.1-1.45 2.8-1.45 1.65 0 2.8 1.45l.6.9m-15.4 0 .55-.85Q-6-7.15-4.3-7.15q1.65 0 2.8 1.45l.6.95q.4.85.55 1.85" fill="none" stroke="#666" stroke-linecap="round" stroke-linejoin="round" transform="translate(11.35 7.7)"/><path d="M-4.45 5.2.1 7.65l4.2-2.3" fill="none" stroke="#333" stroke-linecap="round" stroke-linejoin="round" transform="translate(11.35 7.7)"/></g></defs></svg>