<?xml version="1.0" encoding="UTF-8" standalone="no"?>
<svg xmlns:xlink="http://www.w3.org/1999/xlink" height="100.8px" width="132.65px" xmlns="http://www.w3.org/2000/svg">
  <g transform="matrix(1.0, 0.0, 0.0, 1.0, 77.75, 73.55)">
    <use height="15.85" transform="matrix(1.0, 0.0, 0.0, 1.0, -11.35, -7.7)" width="23.05" xlink:href="#shape0"/>
  </g>
  <defs>
    <g id="shape0" transform="matrix(1.0, 0.0, 0.0, 1.0, 11.35, 7.7)">
      <path d="M8.75 3.85 L1.05 3.15 -7.5 3.65 -11.35 3.45 Q-11.35 2.55 -7.9 0.85 -4.45 -0.85 0.35 -0.9 5.05 -0.9 8.4 0.85 11.7 2.55 11.7 3.5 11.7 4.35 8.75 3.85" fill="#6596cc" fill-opacity="0.43137255" fill-rule="evenodd" stroke="none"/>
      <path d="M7.75 -1.55 L8.1 0.55 Q0.2 1.5 -7.7 0.55 L-7.9 -1.4 Q-0.35 -2.75 7.75 -1.55" fill="#ffffff" fill-rule="evenodd" stroke="none"/>
      <path d="M2.55 -2.0 L2.6 -1.85 2.95 -1.65 3.25 -1.85 3.35 -2.0 4.6 -2.0 4.6 -1.85 Q4.6 -1.1 4.2 -0.55 3.8 -0.05 3.25 -0.05 2.7 -0.05 2.3 -0.55 1.9 -1.1 1.95 -1.85 L1.95 -2.0 2.55 -2.0" fill="#000000" fill-rule="evenodd" stroke="none"/>
      <path d="M3.35 -2.0 L3.25 -1.85 2.95 -1.65 2.6 -1.85 2.55 -2.0 3.35 -2.0" fill="#ffffff" fill-rule="evenodd" stroke="none"/>
      <path d="M-3.95 -2.1 L-3.85 -1.85 -3.5 -1.65 -3.2 -1.85 -3.05 -2.1 -1.85 -2.1 -1.85 -1.85 Q-1.85 -1.1 -2.25 -0.55 -2.65 -0.05 -3.2 -0.05 -3.75 -0.05 -4.15 -0.55 -4.55 -1.1 -4.5 -1.85 L-4.5 -2.1 -3.95 -2.1" fill="#000000" fill-rule="evenodd" stroke="none"/>
      <path d="M-3.05 -2.1 L-3.2 -1.85 -3.5 -1.65 -3.85 -1.85 -3.95 -2.1 -3.05 -2.1" fill="#ffffff" fill-rule="evenodd" stroke="none"/>
      <path d="M9.9 -0.3 Q4.75 1.25 0.55 1.35 0.15 0.45 0.1 -0.65 L0.1 -1.0 0.2 -2.15 Q4.0 -2.1 9.9 -0.3 M-0.45 -2.15 L-0.35 -0.95 Q-0.35 0.3 -0.75 1.3 -4.85 1.25 -9.45 -0.5 -4.4 -2.15 -0.45 -2.15" fill="none" stroke="#666666" stroke-linecap="round" stroke-linejoin="round" stroke-width="1.0"/>
      <path d="M0.4 -2.9 Q0.5 -3.9 0.9 -4.75 L1.55 -5.75 Q2.65 -7.2 4.35 -7.2 6.0 -7.2 7.15 -5.75 L7.75 -4.85" fill="none" stroke="#666666" stroke-linecap="round" stroke-linejoin="round" stroke-width="1.0"/>
      <path d="M-7.65 -4.85 L-7.1 -5.7 Q-6.0 -7.15 -4.3 -7.15 -2.65 -7.15 -1.5 -5.7 L-0.9 -4.75 Q-0.5 -3.9 -0.35 -2.9" fill="none" stroke="#666666" stroke-linecap="round" stroke-linejoin="round" stroke-width="1.0"/>
      <path d="M-4.45 5.2 L0.1 7.65 4.3 5.35" fill="none" stroke="#333333" stroke-linecap="round" stroke-linejoin="round" stroke-width="1.0"/>
    </g>
  </defs>
</svg>
