<?xml version="1.0" encoding="UTF-8" standalone="no"?>
<svg xmlns:xlink="http://www.w3.org/1999/xlink" height="100.8px" width="132.65px" xmlns="http://www.w3.org/2000/svg">
  <g transform="matrix(1.0, 0.0, 0.0, 1.0, 77.75, 73.55)">
    <use height="20.05" transform="matrix(1.0, 0.0, 0.0, 1.0, -12.25, -7.7)" width="24.45" xlink:href="#shape0"/>
  </g>
  <defs>
    <g id="shape0" transform="matrix(1.0, 0.0, 0.0, 1.0, 12.25, 7.7)">
      <path d="M-2.8 2.3 L-4.3 2.65 -5.4 2.45 Q-6.35 2.15 -7.1 1.2 -7.7 0.5 -8.0 -0.4 -8.3 -1.25 -8.25 -2.25 -8.3 -4.25 -7.1 -5.7 -6.0 -7.15 -4.3 -7.15 -2.65 -7.15 -1.5 -5.7 -0.35 -4.25 -0.35 -2.25 L-0.35 -1.95 Q-0.45 -0.15 -1.5 1.2 L-2.8 2.3 M0.4 -1.95 L0.4 -2.3 Q0.35 -4.35 1.55 -5.75 2.65 -7.2 4.35 -7.2 6.0 -7.2 7.15 -5.75 8.3 -4.35 8.3 -2.3 L8.05 -0.45 7.15 1.15 Q6.15 2.35 4.85 2.55 L4.35 2.6 3.35 2.45 Q2.3 2.1 1.55 1.15 0.5 -0.2 0.4 -1.95" fill="#ffffff" fill-rule="evenodd" stroke="none"/>
      <path d="M-0.35 -1.95 L0.15 -1.95 0.4 -1.95 Q0.5 -0.2 1.55 1.15 2.3 2.1 3.35 2.45 L0.9 2.3 -2.8 2.3 -1.5 1.2 Q-0.45 -0.15 -0.35 -1.95 M8.05 -0.45 L8.65 -0.15 Q12.15 1.65 12.2 2.65 12.2 3.6 9.05 3.05 L4.85 2.55 Q6.15 2.35 7.15 1.15 L8.05 -0.45" fill="#6596cc" fill-opacity="0.43137255" fill-rule="evenodd" stroke="none"/>
      <path d="M-2.8 2.3 L-4.3 2.65 -5.4 2.45 Q-6.35 2.15 -7.1 1.2 -7.7 0.5 -8.0 -0.4 -8.3 -1.25 -8.25 -2.25 -8.3 -4.25 -7.1 -5.7 -6.0 -7.15 -4.3 -7.15 -2.65 -7.15 -1.5 -5.7 -0.35 -4.25 -0.35 -2.25 L-0.35 -1.95 Q-0.45 -0.15 -1.5 1.2 L-2.8 2.3 M0.4 -1.95 L0.4 -2.3 Q0.35 -4.35 1.55 -5.75 2.65 -7.2 4.35 -7.2 6.0 -7.2 7.15 -5.75 8.3 -4.35 8.3 -2.3 L8.05 -0.45 7.15 1.15 Q6.15 2.35 4.85 2.55 L4.35 2.6 3.35 2.45 Q2.3 2.1 1.55 1.15 0.5 -0.2 0.4 -1.95" fill="none" stroke="#666666" stroke-linecap="round" stroke-linejoin="round" stroke-width="1.0"/>
      <path d="M-8.0 -0.4 Q-7.7 0.5 -7.1 1.2 -6.35 2.15 -5.4 2.45 L-8.15 2.85 -12.25 2.65 Q-12.25 1.7 -8.55 -0.1 L-8.0 -0.4" fill="#6596cc" fill-opacity="0.43137255" fill-rule="evenodd" stroke="none"/>
      <path d="M2.35 -2.25 Q2.35 -2.0 2.5 -1.85 2.65 -1.65 2.85 -1.6 L3.15 -1.85 3.3 -2.25 3.15 -2.75 2.85 -2.95 Q2.65 -2.95 2.5 -2.75 L2.35 -2.25 M3.15 -3.65 Q3.7 -3.7 4.1 -3.2 4.5 -2.65 4.5 -1.85 4.5 -1.05 4.1 -0.55 3.7 0.0 3.15 0.0 2.6 0.0 2.2 -0.55 1.8 -1.05 1.8 -1.85 1.8 -2.65 2.2 -3.2 2.6 -3.7 3.15 -3.65" fill="#000000" fill-rule="evenodd" stroke="none"/>
      <path d="M2.35 -2.25 L2.5 -2.75 Q2.65 -2.95 2.85 -2.95 L3.15 -2.75 3.3 -2.25 3.15 -1.85 2.85 -1.6 Q2.65 -1.65 2.5 -1.85 2.35 -2.0 2.35 -2.25" fill="#ffffff" fill-rule="evenodd" stroke="none"/>
      <path d="M-4.0 -2.25 L-3.85 -1.85 -3.5 -1.6 -3.2 -1.85 Q-3.05 -2.0 -3.05 -2.25 L-3.2 -2.75 Q-3.3 -2.95 -3.5 -2.95 L-3.85 -2.75 -4.0 -2.25 M-3.2 -3.65 Q-2.65 -3.7 -2.25 -3.2 -1.85 -2.65 -1.85 -1.85 -1.85 -1.05 -2.25 -0.55 -2.65 0.0 -3.2 0.0 -3.75 0.0 -4.15 -0.55 -4.55 -1.05 -4.55 -1.85 -4.55 -2.65 -4.15 -3.2 -3.75 -3.7 -3.2 -3.65" fill="#000000" fill-rule="evenodd" stroke="none"/>
      <path d="M-4.0 -2.25 L-3.85 -2.75 -3.5 -2.95 Q-3.3 -2.95 -3.2 -2.75 L-3.05 -2.25 Q-3.05 -2.0 -3.2 -1.85 L-3.5 -1.6 -3.85 -1.85 -4.0 -2.25" fill="#ffffff" fill-rule="evenodd" stroke="none"/>
      <path d="M-1.9 9.6 L-1.95 9.05 -1.75 5.7 1.75 5.65 1.95 9.05 1.9 9.65 Q0.1 7.8 -1.9 9.6" fill="#000000" fill-rule="evenodd" stroke="none"/>
      <path d="M1.9 9.65 L1.35 11.0 Q0.8 11.85 0.0 11.85 -0.8 11.85 -1.4 11.0 L-1.9 9.6 Q0.1 7.8 1.9 9.65" fill="#cc0000" fill-rule="evenodd" stroke="none"/>
      <path d="M-1.75 5.7 L-1.4 4.5 Q-0.8 3.65 0.0 3.65 0.8 3.65 1.35 4.5 L1.75 5.65 -1.75 5.7" fill="#ffffff" fill-rule="evenodd" stroke="none"/>
      <path d="M1.9 9.65 L1.35 11.0 Q0.8 11.85 0.0 11.85 -0.8 11.85 -1.4 11.0 L-1.9 9.6 -1.95 9.05 -1.75 5.7 -1.4 4.5 Q-0.8 3.65 0.0 3.65 0.8 3.65 1.35 4.5 L1.75 5.65 1.95 9.05 1.9 9.65 Z" fill="none" stroke="#333333" stroke-linecap="round" stroke-linejoin="round" stroke-width="1.0"/>
    </g>
  </defs>
</svg>
