<svg xmlns:xlink="http://www.w3.org/1999/xlink" height="182.7" width="436.45" xmlns="http://www.w3.org/2000/svg"><use height="182.7" width="436.45" xlink:href="#a"/><defs><g id="a" fill-rule="evenodd"><path d="M420.45 188.7H371.5q-118.85-42-234.25-49.1l-7.65.25h-.05l-.2-.05h-.1l-1.95-.45q-15.3-3.15-34.35-4.3l-18.5-.3-.7-.05q-33.65 0-57.45 5.5l-6.5 1.7-3.2.95-18.6 2.35-4-41q32.2.95 64.9 3.6l9.8.85 4.65.45 6.55.6q168.75 16.55 350.55 79" fill="#ff3395" fill-opacity=".212" transform="translate(16 -6)"/><path d="m23.2 143.05 5.9-1.5q21.4-4.95 51.7-4.95h.6l16.65.3q17.15 1.05 30.95 3.9l1.75.35.1.05.15.05h.05l1.45.3q21.4 4.95 21.4 11.9 0 7-21.4 11.95-21.45 4.95-51.7 4.95-30.3 0-51.7-4.95-21.45-4.95-21.45-11.95 0-5.35 12.7-9.5l2.85-.9m26.85 1.35q-16.75 3.25-16.75 7.95 0 4.65 16.75 7.95t40.4 3.3q23.65 0 40.4-3.3t16.75-7.95q0-4.7-16.75-7.95-16.75-3.3-40.4-3.3t-40.4 3.3" fill="#fe43a0" transform="translate(16 -6)"/><path d="M44.7 49.5 42 33.75l11.45-11.1L69.9 109.7l-6.55-.6L44.7 49.5m-28.3 0 14.15-7.4 28.15 66.55-9.8-.85-32.5-58.3" fill="#ffc1e0" transform="translate(16 -6)"/><path d="M53.45 22.65 42 33.75l2.7 15.75-14.15-7.4-14.15 7.4 1.4-7.9 1.35-7.85L7.7 22.65l15.8-2.35L30.55 6l7.05 14.3 15.85 2.35" fill="#fe43a0" transform="translate(16 -6)"/><path d="m44.7 49.5 18.65 59.6-4.65-.45L30.55 42.1l14.15 7.4m-37-26.85 11.45 11.1-1.35 7.85L7.7 22.65" fill="#fe92c9" transform="translate(16 -6)"/><path d="m139.35 87.85 6.7-8-2.85-10-37.65 43.75 3.9 1.8 29.9-27.55m16 9.25-5.55-8.8-37.6 28.35 5.8 2.75 37.35-22.3" fill="#ffc1e0" transform="translate(16 -6)"/><path d="m143.2 69.85 2.85 10-6.7 8 10.45.45 5.55 8.8 1.8-4.95 1.8-4.85L169 84.8l-8.1-6.5.65-10.35-8.6 5.75-9.75-3.85" fill="#fe43a0" transform="translate(16 -6)"/><path d="m139.35 87.85-29.9 27.55 2.75 1.25 37.6-28.35-10.45-.45M169 84.8l-10.05 2.5-1.8 4.85L169 84.8" fill="#fe92c9" transform="translate(16 -6)"/><path d="M21 152.2q0-5.2 18.6-8.85 18.6-3.65 44.9-3.65 26.3 0 44.9 3.65Q148 147 148 152.2q0 5.2-18.6 8.85-18.6 3.65-44.9 3.65-26.3 0-44.9-3.65Q21 157.4 21 152.2" fill="#ffc1e0" transform="translate(16 -6)"/></g></defs></svg>