<?xml version="1.0" encoding="UTF-8" standalone="no"?>
<svg xmlns:xlink="http://www.w3.org/1999/xlink" height="48.25px" width="148.95px" xmlns="http://www.w3.org/2000/svg">
  <g transform="matrix(1.0, 0.0, 0.0, 1.0, 66.5, 19.0)">
    <use height="35.0" transform="matrix(1.0, 0.0, 0.0, 1.0, -66.5, -19.0)" width="140.5" xlink:href="#shape0"/>
    <use height="9.2" transform="matrix(1.0, 0.0, 0.0, 1.0, -60.75, 20.05)" width="143.2" xlink:href="#text0"/>
    <clipPath id="clipPath0" transform="matrix(1.0, 0.0, 0.0, 1.0, 0.0, 0.0)">
      <path d="M68.85 -14.45 L68.85 11.05 -61.15 11.05 -61.15 -14.45 68.85 -14.45" fill="#ffffff" fill-rule="evenodd" stroke="none"/>
      <path d="M68.85 -14.45 L68.85 11.05 -61.15 11.05 -61.15 -14.45 68.85 -14.45 Z" fill="none" stroke="#666666" stroke-linecap="round" stroke-linejoin="round" stroke-width="1.0"/>
    </clipPath>
    <g clip-path="url(#clipPath0)">
      <use height="80.75" transform="matrix(0.33, 0.0, 0.0, 0.33, -61.1, -13.45)" width="46.95" xlink:href="#sprite0"/>
      <use height="80.75" transform="matrix(0.33, 0.0, 0.0, 0.33, -47.75, -13.45)" width="46.95" xlink:href="#sprite0"/>
      <use height="80.75" transform="matrix(0.33, 0.0, 0.0, 0.33, -34.4, -13.45)" width="46.95" xlink:href="#sprite0"/>
      <use height="80.75" transform="matrix(0.33, 0.0, 0.0, 0.33, -21.05, -13.45)" width="46.95" xlink:href="#sprite0"/>
      <use height="80.75" transform="matrix(0.33, 0.0, 0.0, 0.33, -7.65, -13.45)" width="46.95" xlink:href="#sprite0"/>
      <use height="80.75" transform="matrix(0.33, 0.0, 0.0, 0.33, 5.7, -13.45)" width="46.95" xlink:href="#sprite0"/>
      <use height="80.75" transform="matrix(0.33, 0.0, 0.0, 0.33, 19.05, -13.45)" width="46.95" xlink:href="#sprite0"/>
      <use height="80.75" transform="matrix(0.33, 0.0, 0.0, 0.33, 32.45, -13.45)" width="46.95" xlink:href="#sprite0"/>
      <use height="80.75" transform="matrix(0.33, 0.0, 0.0, 0.33, 45.8, -13.45)" width="46.95" xlink:href="#sprite0"/>
      <use height="80.75" transform="matrix(0.33, 0.0, 0.0, 0.33, 59.15, -13.45)" width="46.95" xlink:href="#sprite0"/>
    </g>
  </g>
  <defs>
    <g id="shape0" transform="matrix(1.0, 0.0, 0.0, 1.0, 66.5, 19.0)">
      <path d="M72.55 -17.55 Q74.0 -16.05 74.0 -14.0 L74.0 11.0 Q74.0 13.05 72.55 14.5 71.05 16.0 69.05 16.0 L-61.5 16.0 Q-63.55 16.0 -65.05 14.5 -66.5 13.05 -66.5 11.0 L-66.5 -14.0 Q-66.5 -16.05 -65.05 -17.55 -63.55 -19.0 -61.5 -19.0 L69.05 -19.0 Q71.05 -19.0 72.55 -17.55" fill="#debe8c" fill-rule="evenodd" stroke="none"/>
    </g>
    <g id="text0" transform="matrix(1.0, 0.0, 0.0, 1.0, -0.6, -3.05)">
      <g transform="matrix(1.0, 0.0, 0.0, 1.0, 0.0, 0.0)">
        <use fill="#debe8c" height="9.2" transform="matrix(0.2344, 0.0, 0.0, 0.2344, 0.0, 12.0)" width="143.2" xlink:href="#font_Verdana_C0"/>
        <use fill="#debe8c" height="9.2" transform="matrix(0.2344, 0.0, 0.0, 0.2344, 12.7, 12.0)" width="143.2" xlink:href="#font_Verdana_H0"/>
        <use fill="#debe8c" height="9.2" transform="matrix(0.2344, 0.0, 0.0, 0.2344, 26.75, 12.0)" width="143.2" xlink:href="#font_Verdana_A0"/>
        <use fill="#debe8c" height="9.2" transform="matrix(0.2344, 0.0, 0.0, 0.2344, 40.05, 12.0)" width="143.2" xlink:href="#font_Verdana_R0"/>
        <use fill="#debe8c" height="9.2" transform="matrix(0.2344, 0.0, 0.0, 0.2344, 53.45, 12.0)" width="143.2" xlink:href="#font_Verdana_G0"/>
        <use fill="#debe8c" height="9.2" transform="matrix(0.2344, 0.0, 0.0, 0.2344, 67.2, 12.0)" width="143.2" xlink:href="#font_Verdana_E0"/>
        <use fill="#debe8c" height="9.2" transform="matrix(0.2344, 0.0, 0.0, 0.2344, 79.4, 12.0)" width="143.2" xlink:href="#font_Verdana_M0"/>
        <use fill="#debe8c" height="9.2" transform="matrix(0.2344, 0.0, 0.0, 0.2344, 94.75, 12.0)" width="143.2" xlink:href="#font_Verdana_E0"/>
        <use fill="#debe8c" height="9.2" transform="matrix(0.2344, 0.0, 0.0, 0.2344, 106.95, 12.0)" width="143.2" xlink:href="#font_Verdana_N0"/>
        <use fill="#debe8c" height="9.2" transform="matrix(0.2344, 0.0, 0.0, 0.2344, 121.1, 12.0)" width="143.2" xlink:href="#font_Verdana_T0"/>
      </g>
    </g>
    <g id="font_Verdana_C0">
      <path d="M21.6 0.75 L21.6 0.75 26.0 0.45 29.4 -0.35 32.1 -1.3 34.75 -2.45 34.75 -11.35 33.75 -11.35 32.05 -9.95 Q31.0 -9.1 29.75 -8.4 28.3 -7.5 26.6 -7.0 L23.15 -6.45 19.45 -7.05 Q17.55 -7.65 16.05 -9.0 14.55 -10.35 13.55 -12.7 12.55 -15.05 12.55 -18.55 12.55 -21.9 13.5 -24.25 14.4 -26.55 15.85 -28.0 17.4 -29.45 19.25 -30.1 21.05 -30.75 23.1 -30.75 L26.5 -30.2 29.5 -28.85 31.9 -27.25 33.65 -25.8 34.75 -25.8 34.75 -34.85 32.4 -35.9 29.35 -37.0 25.85 -37.65 21.6 -37.95 Q17.35 -37.95 13.8 -36.6 10.2 -35.25 7.75 -32.75 5.25 -30.2 3.9 -26.6 2.6 -23.0 2.6 -18.55 2.6 -13.8 4.0 -10.2 5.35 -6.55 7.9 -4.15 10.4 -1.7 13.95 -0.5 17.45 0.75 21.6 0.75" fill-rule="evenodd" stroke="none"/>
    </g>
    <g id="font_Verdana_H0">
      <path d="M38.15 0.0 L38.15 -37.2 28.55 -37.2 28.55 -23.6 14.35 -23.6 14.35 -37.2 4.75 -37.2 4.75 0.0 14.35 0.0 14.35 -16.4 28.55 -16.4 28.55 0.0 38.15 0.0" fill-rule="evenodd" stroke="none"/>
    </g>
    <g id="font_Verdana_A0">
      <path d="M24.35 -14.35 L15.2 -14.35 19.75 -27.65 24.35 -14.35 M39.15 0.0 L25.4 -37.2 14.35 -37.2 0.6 0.0 10.3 0.0 12.9 -7.5 26.65 -7.5 29.25 0.0 39.15 0.0" fill-rule="evenodd" stroke="none"/>
    </g>
    <g id="font_Verdana_R0">
      <path d="M40.6 0.0 L28.2 -15.95 Q31.75 -17.65 33.65 -20.25 35.55 -22.85 35.55 -27.0 35.55 -30.0 34.35 -31.95 33.1 -33.95 31.0 -35.2 28.9 -36.45 26.55 -36.85 L20.85 -37.2 4.75 -37.2 4.75 0.0 14.3 0.0 14.3 -13.65 18.75 -13.65 28.9 0.0 40.6 0.0 M25.65 -25.8 L25.65 -25.8 Q25.65 -24.25 25.2 -23.3 24.7 -22.35 23.7 -21.6 22.65 -20.8 21.1 -20.55 L17.25 -20.35 14.3 -20.35 14.3 -30.35 17.8 -30.35 20.8 -30.25 23.1 -29.8 Q24.5 -29.2 25.05 -28.2 25.65 -27.2 25.65 -25.8" fill-rule="evenodd" stroke="none"/>
    </g>
    <g id="font_Verdana_G0">
      <path d="M37.7 -2.1 L37.7 -20.5 20.5 -20.5 20.5 -13.45 27.95 -13.45 27.95 -6.15 26.75 -6.1 25.5 -6.05 Q19.1 -6.05 15.85 -9.35 12.55 -12.6 12.55 -18.8 12.55 -21.8 13.5 -24.1 14.4 -26.45 15.95 -27.95 17.6 -29.5 19.7 -30.25 21.75 -31.0 24.3 -31.0 L28.45 -30.4 31.8 -29.05 34.4 -27.4 36.45 -25.9 37.55 -25.9 37.55 -34.65 Q33.45 -36.6 30.15 -37.25 L23.15 -37.95 Q13.45 -37.95 8.0 -32.6 2.6 -27.3 2.6 -18.65 2.6 -9.55 7.95 -4.35 13.35 0.8 22.85 0.8 26.95 0.8 31.05 -0.15 35.2 -1.15 37.7 -2.1" fill-rule="evenodd" stroke="none"/>
    </g>
    <g id="font_Verdana_E0">
      <path d="M31.7 0.0 L31.7 -7.2 14.3 -7.2 14.3 -16.4 30.45 -16.4 30.45 -23.6 14.3 -23.6 14.3 -30.0 31.7 -30.0 31.7 -37.2 4.75 -37.2 4.75 0.0 31.7 0.0" fill-rule="evenodd" stroke="none"/>
    </g>
    <g id="font_Verdana_M0">
      <path d="M43.8 0.0 L43.8 -37.2 32.65 -37.2 24.3 -18.55 15.9 -37.2 4.75 -37.2 4.75 0.0 13.8 0.0 13.8 -24.9 20.7 -8.75 27.35 -8.75 34.25 -24.9 34.25 0.0 43.8 0.0" fill-rule="evenodd" stroke="none"/>
    </g>
    <g id="font_Verdana_N0">
      <path d="M38.6 0.0 L38.6 -37.2 29.8 -37.2 29.8 -15.9 16.25 -37.2 4.75 -37.2 4.75 0.0 13.55 0.0 13.55 -25.55 29.35 0.0 38.6 0.0" fill-rule="evenodd" stroke="none"/>
    </g>
    <g id="font_Verdana_T0">
      <path d="M33.9 -30.0 L33.9 -37.2 1.05 -37.2 1.05 -30.0 12.65 -30.0 12.65 0.0 22.25 0.0 22.25 -30.0 33.9 -30.0" fill-rule="evenodd" stroke="none"/>
    </g>
    <g id="sprite0" transform="matrix(1.0, 0.0, 0.0, 1.0, 0.0, 0.0)">
      <use height="80.75" transform="matrix(1.0, 0.0, 0.0, 1.0, 0.0, 0.0)" width="46.95" xlink:href="#sprite1"/>
    </g>
    <g id="sprite1" transform="matrix(1.0, 0.0, 0.0, 1.0, 0.0, 0.0)">
      <use height="80.75" transform="matrix(1.0, 0.0, 0.0, 1.0, 0.0, 0.0)" width="46.95" xlink:href="#sprite2"/>
    </g>
    <g id="sprite2" transform="matrix(1.0, 0.0, 0.0, 1.0, -0.75, 0.0)">
      <use height="16.3" transform="matrix(1.0, 0.0, 0.0, 1.0, 0.75, 0.0)" width="17.15" xlink:href="#sprite3"/>
      <use height="16.3" transform="matrix(1.0, 0.0, 0.0, 1.0, 20.75, 0.0)" width="17.15" xlink:href="#sprite3"/>
      <use height="16.3" transform="matrix(1.0, 0.0, 0.0, 1.0, 10.75, 12.95)" width="17.15" xlink:href="#sprite3"/>
      <use height="16.3" transform="matrix(1.0, 0.0, 0.0, 1.0, 1.05, 25.5)" width="17.15" xlink:href="#sprite3"/>
      <use height="16.3" transform="matrix(1.0, 0.0, 0.0, 1.0, 21.05, 25.5)" width="17.15" xlink:href="#sprite3"/>
      <use height="16.3" transform="matrix(1.0, 0.0, 0.0, 1.0, 11.05, 38.45)" width="17.15" xlink:href="#sprite3"/>
      <use height="16.3" transform="matrix(1.0, 0.0, 0.0, 1.0, 0.75, 51.5)" width="17.15" xlink:href="#sprite3"/>
      <use height="16.3" transform="matrix(1.0, 0.0, 0.0, 1.0, 20.75, 51.5)" width="17.15" xlink:href="#sprite3"/>
      <use height="16.3" transform="matrix(1.0, 0.0, 0.0, 1.0, 11.25, 64.45)" width="17.15" xlink:href="#sprite3"/>
      <use height="16.3" transform="matrix(1.0, 0.0, 0.0, 1.0, 30.25, 12.65)" width="17.15" xlink:href="#sprite3"/>
      <use height="16.3" transform="matrix(1.0, 0.0, 0.0, 1.0, 30.55, 38.15)" width="17.15" xlink:href="#sprite3"/>
    </g>
    <g id="sprite3" transform="matrix(1.0, 0.0, 0.0, 1.0, 8.55, 8.15)">
      <use height="16.3" transform="matrix(1.0, 0.0, 0.0, 1.0, -8.55, -8.15)" width="17.15" xlink:href="#shape2"/>
    </g>
    <g id="shape2" transform="matrix(1.0, 0.0, 0.0, 1.0, 8.55, 8.15)">
      <path d="M8.6 -1.9 L3.6 1.4 5.3 8.15 0.25 4.3 -5.3 8.15 -3.45 1.65 -8.55 -1.9 -2.5 -1.95 0.0 -8.15 2.55 -1.95 8.6 -1.9" fill="#ffffff" fill-opacity="0.50980395" fill-rule="evenodd" stroke="none"/>
    </g>
  </defs>
</svg>
