<svg height="24" width="24" xmlns="http://www.w3.org/2000/svg"><path d="M24 24H0V0h24v24" fill="none"/><path d="M14.9 4q.9-1 2.5-1 1.5 0 2.55.95l.05.1q1 1 1 2.5 0 1.6-1.05 2.55H20L17.15 12 20 14.85q1 1 1 2.5t-1 2.55h-.05Q18.9 21 17.4 21q-1.6 0-2.55-1.1h.05l-2.85-2.8-2.9 2.8h.05Q8.2 21 6.65 21q-1.5 0-2.55-1.1Q3 18.85 3 17.35q0-1.5 1.1-2.55L6.85 12 4.1 9.1Q3 8.1 3 6.55 3 5.05 4.1 4v-.05Q5.15 3 6.65 3q1.55 0 2.5 1l2.9 2.8L14.9 4" fill="#333" fill-rule="evenodd"/><path d="M15.5 4.6q.75-.7 1.9-.7 1.1 0 1.95.7.75.85.75 1.95 0 1.15-.75 1.95L15.9 12l3.45 3.4q.75.85.75 1.95 0 1.15-.75 1.95-.85.8-1.95.8-1.15 0-1.9-.8l-3.45-3.5-3.5 3.5q-.75.8-1.9.8t-1.95-.8q-.8-.8-.8-1.95 0-1.1.8-1.95L8.15 12 4.7 8.5q-.8-.8-.8-1.95 0-1.1.8-1.95.8-.7 1.95-.7t1.9.7l3.5 3.5 3.45-3.5" fill="#ea2f2f" fill-rule="evenodd"/></svg>