<?xml version="1.0" encoding="UTF-8" standalone="no"?>
<svg
   height="22.45"
   width="22.452"
   version="1.1"
   id="svg9561"
   sodipodi:docname="ko.svg"
   inkscape:version="1.1.1 (3bf5ae0d25, 2021-09-20, custom)"
   xmlns:inkscape="http://www.inkscape.org/namespaces/inkscape"
   xmlns:sodipodi="http://sodipodi.sourceforge.net/DTD/sodipodi-0.dtd"
   xmlns="http://www.w3.org/2000/svg"
   xmlns:svg="http://www.w3.org/2000/svg">
  <sodipodi:namedview
     id="namedview9563"
     pagecolor="#505050"
     bordercolor="#eeeeee"
     borderopacity="1"
     inkscape:pageshadow="0"
     inkscape:pageopacity="0"
     inkscape:pagecheckerboard="0"
     showgrid="false"
     inkscape:current-layer="svg9561" />
  <path
     d="m 12.937769,10.913497 q 0,-0.9320831 0.448344,-1.4276209 0.436545,-0.4955379 1.085464,-0.4955379 0.648919,0 1.097262,0.4955379 0.436546,0.4955378 0.436546,1.4158219 0,0.943882 -0.436546,1.43942 -0.448343,0.495538 -1.097262,0.495538 -0.648919,0 -1.085464,-0.495538 -0.448344,-0.495538 -0.448344,-1.427621 m -1.698986,-0.09439 q 0,1.085464 0.412948,1.840569 0.401149,0.743307 1.19165,1.132658 0.778703,0.389351 1.639995,0.389351 1.392225,0 2.312509,-0.932083 0.908486,-0.932083 0.908486,-2.359704 0,-1.4040239 -0.908486,-2.3243085 -0.908486,-0.9320831 -2.324308,-0.9320831 -0.920285,0 -1.663591,0.4129482 -0.755106,0.4011517 -1.156255,1.179854 -0.412948,0.7669038 -0.412948,1.5928004"
     fill-rule="evenodd"
     id="b"
     style="stroke-width:0.23597;fill:#ffffff;fill-opacity:1" />
  <path
     d="m 4.8146657,14 h 1.6408 V 12.0076 L 7.2289857,11.21064 8.7877457,14 H 10.569186 L 8.2837857,10.05036 10.416826,7.77668 H 8.3892657 l -1.9338,2.19164 V 5.40924 h -1.6408 V 14"
     fill-rule="evenodd"
     id="c"
     style="stroke-width:0.2344;fill:#ffffff;fill-opacity:1" />
  <defs
     id="defs9559" />
</svg>
