<?xml version="1.0" encoding="UTF-8" standalone="no"?>
<svg xmlns:xlink="http://www.w3.org/1999/xlink" height="67.55px" width="100.0px" xmlns="http://www.w3.org/2000/svg">
  <g transform="matrix(1.0, 0.0, 0.0, 1.0, 45.1, 55.35)">
    <use height="13.05" transform="matrix(1.0, 0.0, 0.0, 1.0, -8.8, -5.9)" width="17.8" xlink:href="#shape0"/>
  </g>
  <defs>
    <g id="shape0" transform="matrix(1.0, 0.0, 0.0, 1.0, 8.8, 5.9)">
      <path d="M0.35 -1.55 L0.8 -1.5 4.8 -0.8 Q6.6 -0.3 8.5 0.6 L8.7 0.8 9.0 1.45 Q9.0 2.1 6.7 1.7 L5.45 1.55 3.65 1.35 1.25 1.2 0.75 1.2 -1.8 1.2 -3.8 1.3 -5.65 1.55 -5.85 1.55 -6.25 1.65 -8.8 1.55 -8.8 1.4 -8.8 1.2 Q-8.6 0.55 -7.1 -0.2 L-4.8 -0.95 -4.75 -1.0 -0.8 -1.55 0.35 -1.55" fill="#000000" fill-opacity="0.15294118" fill-rule="evenodd" stroke="none"/>
      <path d="M1.35 -3.15 L1.35 -3.1 1.3 -2.4 1.1 -2.3 1.35 -3.15 M0.15 7.15 Q-0.4 7.15 -0.75 6.75 -1.1 6.4 -1.1 5.9 L-1.1 5.8 -1.1 2.85 -0.75 2.1 Q-0.4 1.75 0.15 1.75 0.65 1.75 1.0 2.1 L1.4 2.85 1.4 5.8 1.4 5.9 1.4 5.95 1.0 6.75 Q0.65 7.15 0.15 7.15" fill="#ffffff" fill-rule="evenodd" stroke="none"/>
      <path d="M1.35 -3.15 L1.7 -3.95 Q2.3 -5.05 3.1 -5.3 L3.65 -5.4 Q4.8 -5.4 5.6 -3.95 6.25 -2.85 6.4 -1.3 L6.4 -0.5 M1.35 -3.15 L1.1 -2.3 0.95 -1.4 0.95 -1.3 0.9 -0.6 M-6.7 -0.65 L-6.65 -1.3 Q-6.5 -2.8 -5.85 -3.9 -5.1 -5.35 -3.95 -5.35 L-3.3 -5.2 Q-2.55 -4.95 -2.0 -3.9 -1.4 -2.85 -1.25 -1.45 L-1.25 -1.3 -1.2 -0.7" fill="none" stroke="#000000" stroke-linecap="round" stroke-linejoin="round" stroke-width="1.0"/>
    </g>
  </defs>
</svg>
