<?xml version="1.0" encoding="UTF-8" standalone="no"?>
<svg xmlns:xlink="http://www.w3.org/1999/xlink" height="67.55px" width="100.0px" xmlns="http://www.w3.org/2000/svg">
  <g transform="matrix(1.0, 0.0, 0.0, 1.0, 45.1, 55.35)">
    <use height="7.65" transform="matrix(1.0, 0.0, 0.0, 1.0, -6.5, -6.15)" width="13.2" xlink:href="#shape0"/>
    <use height="4.15" transform="matrix(1.0, 0.0, 0.0, 1.0, -3.2, -4.2)" width="2.05" xlink:href="#sprite0"/>
    <use height="4.15" transform="matrix(1.0, 0.0, 0.0, 1.0, 1.85, -4.5)" width="2.05" xlink:href="#sprite0"/>
    <use height="4.35" transform="matrix(1.0, 0.0, 0.0, 1.0, -6.8, 1.9)" width="13.65" xlink:href="#sprite1"/>
  </g>
  <defs>
    <g id="shape0" transform="matrix(1.0, 0.0, 0.0, 1.0, 6.5, 6.15)">
      <path d="M0.4 -2.55 Q0.4 -4.2 1.35 -5.35 2.25 -6.5 3.25 -5.95 4.2 -5.4 5.15 -4.25 L6.5 -2.4 Q6.85 -1.75 6.65 -1.0 L5.95 0.3 Q5.1 1.25 4.05 1.45 L3.65 1.45 2.85 1.35 Q2.0 1.1 1.35 0.3 0.5 -0.8 0.4 -2.25 L0.4 -2.55 M-0.15 -2.25 Q-0.25 -0.75 -1.1 0.35 L-2.15 1.2 -3.4 1.5 -4.3 1.35 Q-5.1 1.1 -5.7 0.35 L-6.4 -0.95 Q-6.65 -1.7 -6.3 -2.35 L-5.0 -4.2 Q-4.1 -5.45 -3.05 -5.95 -2.05 -6.45 -1.1 -5.3 -0.2 -4.15 -0.15 -2.45 L-0.15 -2.25" fill="#ffffff" fill-rule="evenodd" stroke="none"/>
      <path d="M-2.45 -4.6 Q-1.85 -4.7 -1.3 -3.95 -0.85 -3.25 -0.85 -2.15 -0.85 -1.1 -1.3 -0.4 L-2.45 0.35 -3.65 -0.4 Q-4.1 -1.1 -4.1 -2.15 -4.1 -3.25 -3.65 -3.95 -3.15 -4.7 -2.45 -4.6 M1.4 -4.15 Q1.9 -4.85 2.6 -4.8 3.2 -4.85 3.75 -4.15 4.2 -3.4 4.2 -2.3 4.2 -1.25 3.75 -0.5 L2.6 0.2 Q1.9 0.2 1.4 -0.5 0.95 -1.25 1.0 -2.3 0.95 -3.4 1.4 -4.15" fill="#000000" fill-rule="evenodd" stroke="none"/>
    </g>
    <g id="sprite0" transform="matrix(1.0, 0.0, 0.0, 1.0, 0.7, 2.2)">
      <use height="3.75" transform="matrix(1.0, 0.0, 0.0, 1.0, -0.5, -1.9)" width="1.85" xlink:href="#shape1"/>
    </g>
    <g id="shape1" transform="matrix(1.0, 0.0, 0.0, 1.0, 0.5, 1.9)">
      <path d="M0.95 -1.0 L0.15 -1.1 Q-0.2 -1.35 -0.1 -1.7 L0.0 -1.85 0.2 -1.9 Q0.95 -1.95 1.1 -1.3 L0.95 -1.0 M0.45 -0.75 Q1.5 -0.7 1.35 0.3 1.2 1.35 0.3 1.85 L-0.05 1.85 Q-0.6 1.6 -0.5 0.95 L-0.4 0.45 0.0 -0.5 0.45 -0.75" fill="#ffffff" fill-rule="evenodd" stroke="none"/>
    </g>
    <g id="sprite1" transform="matrix(1.0, 0.0, 0.0, 1.0, 6.8, 2.45)">
      <use height="3.7" transform="matrix(1.0, 0.0, 0.0, 1.0, -6.8, -1.85)" width="13.65" xlink:href="#shape2"/>
    </g>
    <g id="shape2" transform="matrix(1.0, 0.0, 0.0, 1.0, 6.8, 1.85)">
      <path d="M6.35 1.35 Q1.7 -2.95 -3.65 -0.35 -5.05 0.25 -6.3 1.1" fill="none" stroke="#000000" stroke-linecap="round" stroke-linejoin="round" stroke-width="1.0"/>
    </g>
  </defs>
</svg>
