<?xml version="1.0" encoding="UTF-8" standalone="no"?>
<svg xmlns:xlink="http://www.w3.org/1999/xlink" height="67.55px" width="100.0px" xmlns="http://www.w3.org/2000/svg">
  <g transform="matrix(1.0, 0.0, 0.0, 1.0, 45.1, 55.35)">
    <use height="7.15" transform="matrix(1.0, 0.0, 0.0, 1.0, -8.8, -1.55)" width="17.8" xlink:href="#shape0"/>
    <use height="5.9" transform="matrix(1.0, 0.0, 0.0, 1.0, -7.2, -5.9)" width="14.1" xlink:href="#shape1"/>
    <use height="30.05" transform="matrix(1.0, 0.0, 0.0, 1.0, 5.9, -34.95)" width="10.05" xlink:href="#sprite0"/>
  </g>
  <defs>
    <g id="shape0" transform="matrix(1.0, 0.0, 0.0, 1.0, 8.8, 1.55)">
      <path d="M0.8 -1.5 L0.95 -1.5 4.8 -0.8 Q6.6 -0.3 8.5 0.6 8.95 1.0 9.0 1.45 9.0 2.1 6.7 1.7 L5.45 1.55 3.65 1.35 0.75 1.2 -3.8 1.3 -5.65 1.55 -5.85 1.55 -6.25 1.65 -8.8 1.55 -8.8 1.4 Q-8.8 0.7 -7.1 -0.2 L-4.8 -0.95 -4.75 -1.0 -1.25 -1.55 -0.8 -1.55 0.35 -1.55 0.8 -1.5" fill="#6596cc" fill-opacity="0.43137255" fill-rule="evenodd" stroke="none"/>
      <path d="M-3.65 2.55 L0.1 5.1 3.5 2.8" fill="none" stroke="#000000" stroke-linecap="round" stroke-linejoin="round" stroke-width="1.0"/>
    </g>
    <g id="shape1" transform="matrix(1.0, 0.0, 0.0, 1.0, 7.2, 5.9)">
      <path d="M1.35 -3.15 L1.35 -3.1 1.3 -2.4 1.1 -2.3 1.35 -3.15" fill="#ffffff" fill-rule="evenodd" stroke="none"/>
      <path d="M1.35 -3.15 L1.7 -3.95 Q2.3 -5.05 3.1 -5.3 L3.65 -5.4 Q4.8 -5.4 5.6 -3.95 6.25 -2.85 6.4 -1.3 L6.4 -0.5 M1.35 -3.15 L1.1 -2.3 0.95 -1.4 0.95 -1.3 0.9 -0.6 M-6.7 -0.65 L-6.65 -1.3 Q-6.5 -2.8 -5.85 -3.9 -5.1 -5.35 -3.95 -5.35 L-3.3 -5.2 Q-2.55 -4.95 -2.0 -3.9 -1.4 -2.85 -1.25 -1.45 L-1.25 -1.3 -1.2 -0.7" fill="none" stroke="#000000" stroke-linecap="round" stroke-linejoin="round" stroke-width="1.0"/>
    </g>
    <g id="sprite0" transform="matrix(1.0, 0.0, 0.0, 1.0, 0.5, 12.55)">
      <use height="18.0" transform="matrix(1.0, 0.0, 0.0, 1.0, -0.5, -12.55)" width="10.05" xlink:href="#sprite1"/>
    </g>
    <g id="sprite1" transform="matrix(1.0, 0.0, 0.0, 1.0, 0.5, 0.5)">
      <use height="18.0" transform="matrix(1.0, 0.0, 0.0, 1.0, -0.5, -0.5)" width="10.05" xlink:href="#shape2"/>
    </g>
    <g id="shape2" transform="matrix(1.0, 0.0, 0.0, 1.0, 0.5, 0.5)">
      <path d="M4.55 0.0 L4.55 0.05 8.6 9.45 Q9.1 10.85 9.05 13.1 9.0 15.3 7.85 16.15 6.7 17.0 4.55 17.0 2.35 17.0 1.2 16.15 0.05 15.3 0.0 13.1 -0.05 10.85 0.5 9.45 0.95 8.0 4.55 0.05 L4.55 0.0 M3.1 14.15 Q3.0 14.85 3.3 15.4 L5.2 15.6 6.55 15.0 6.65 14.9 6.95 14.8 7.6 13.65 7.6 13.45 Q7.8 12.1 6.95 10.95 L5.8 11.15 5.8 11.25 5.1 13.1 4.55 13.55 Q3.65 13.65 3.1 14.15" fill="#ffffff" fill-rule="evenodd" stroke="none"/>
      <path d="M3.1 14.15 Q3.65 13.65 4.55 13.55 L5.1 13.1 5.8 11.25 5.8 11.15 6.95 10.95 Q7.8 12.1 7.6 13.45 L7.6 13.65 6.95 14.8 6.65 14.9 6.55 15.0 5.2 15.6 3.3 15.4 Q3.0 14.85 3.1 14.15" fill="#ddd9da" fill-rule="evenodd" stroke="none"/>
      <path d="M4.55 0.0 L4.55 0.05 Q0.95 8.0 0.5 9.45 -0.05 10.85 0.0 13.1 0.05 15.3 1.2 16.15 2.35 17.0 4.55 17.0 6.7 17.0 7.85 16.15 9.0 15.3 9.05 13.1 9.1 10.85 8.6 9.45 L4.55 0.05 4.55 0.0 Z" fill="none" stroke="#a89ca0" stroke-linecap="round" stroke-linejoin="round" stroke-width="1.0"/>
    </g>
  </defs>
</svg>
