<?xml version="1.0" encoding="UTF-8" standalone="no"?>
<svg xmlns:xlink="http://www.w3.org/1999/xlink" height="67.55px" width="100.0px" xmlns="http://www.w3.org/2000/svg">
  <g transform="matrix(1.0, 0.0, 0.0, 1.0, 45.1, 55.35)">
    <use height="13.5" transform="matrix(1.0, 0.0, 0.0, 1.0, -8.8, -5.9)" width="17.8" xlink:href="#shape0"/>
  </g>
  <defs>
    <g id="shape0" transform="matrix(1.0, 0.0, 0.0, 1.0, 8.8, 5.9)">
      <path d="M0.95 -1.5 L4.8 -0.8 Q6.6 -0.3 8.5 0.6 8.95 1.0 9.0 1.45 9.0 2.1 6.7 1.7 L5.45 1.55 3.65 1.35 0.75 1.2 -3.8 1.3 -5.65 1.55 -5.85 1.55 -6.25 1.65 -8.8 1.55 -8.8 1.4 Q-8.8 0.7 -7.1 -0.2 L-4.8 -0.95 -4.75 -1.0 -1.25 -1.55 -0.8 -1.55 0.35 -1.55 0.8 -1.5 0.95 -1.5" fill="#000000" fill-opacity="0.15294118" fill-rule="evenodd" stroke="none"/>
      <path d="M1.35 -3.15 L1.35 -3.1 1.3 -2.4 1.1 -2.3 1.35 -3.15" fill="#ffffff" fill-rule="evenodd" stroke="none"/>
      <path d="M1.35 -3.15 L1.7 -3.95 Q2.3 -5.05 3.1 -5.3 L3.65 -5.4 Q4.8 -5.4 5.6 -3.95 6.25 -2.85 6.4 -1.3 L6.4 -0.6 M1.1 -2.3 L0.95 -1.5 M-1.25 -1.55 Q-1.45 -2.9 -2.0 -3.9 -2.55 -4.95 -3.3 -5.2 L-3.95 -5.35 Q-5.1 -5.35 -5.85 -3.9 -6.5 -2.8 -6.65 -1.3 L-6.7 -0.8 M1.1 -2.3 L1.35 -3.15 Z" fill="none" stroke="#000000" stroke-linecap="round" stroke-linejoin="round" stroke-width="1.0"/>
      <path d="M3.1 2.3 L3.6 2.35 3.1 2.3 2.05 2.15 0.85 2.05 0.7 2.25 Q0.5 2.45 0.55 2.7 L0.55 3.65 0.5 4.3 0.45 5.05 0.6 5.7 Q1.0 6.3 1.85 6.15 L1.95 6.1 2.75 5.3 2.9 5.1 3.2 3.9 3.15 3.4 3.1 2.4 3.1 2.3 M-0.15 2.05 L0.45 2.05 0.85 2.05 3.6 2.05 3.6 2.35 3.6 4.0 Q3.6 5.45 2.55 6.55 1.5 7.6 0.05 7.6 -1.45 7.6 -2.45 6.55 -3.5 5.45 -3.5 4.0 L-3.5 3.7 -3.5 2.3 -2.95 2.2 -3.5 2.3 -3.5 2.05 -1.05 2.05 -2.35 2.15 -1.05 2.05 -0.15 2.05 -0.15 2.95 -0.15 2.05 M-2.95 2.2 L-3.05 2.45 -3.05 3.5 Q-3.15 4.65 -2.45 5.55 L-1.4 6.25 Q-0.8 6.4 -0.4 5.9 L-0.3 5.8 0.05 5.1 0.15 3.55 0.05 3.15 -0.15 2.95 -0.2 2.95 -0.25 2.8 Q-0.3 2.55 -0.5 2.4 L-0.6 2.3 -1.15 2.35 -1.75 2.35 -1.8 2.35 Q-2.0 2.15 -2.25 2.2 L-2.35 2.15 -2.35 2.1 -2.95 2.2" fill="#cc0000" fill-rule="evenodd" stroke="none"/>
      <path d="M3.1 2.3 L3.1 2.4 3.15 3.4 3.2 3.9 2.9 5.1 2.75 5.3 1.95 6.1 1.85 6.15 Q1.0 6.3 0.6 5.7 L0.45 5.05 0.5 4.3 0.55 3.65 0.55 2.7 Q0.5 2.45 0.7 2.25 L0.85 2.05 2.05 2.15 3.1 2.3 M-0.15 2.95 L0.05 3.15 0.15 3.55 0.05 5.1 -0.3 5.8 -0.4 5.9 Q-0.8 6.4 -1.4 6.25 L-2.45 5.55 Q-3.15 4.65 -3.05 3.5 L-3.05 2.45 -2.95 2.2 -2.35 2.1 -2.35 2.15 -2.25 2.2 Q-2.0 2.15 -1.8 2.35 L-1.75 2.35 -1.15 2.35 -0.6 2.3 -0.5 2.4 Q-0.3 2.55 -0.25 2.8 L-0.2 2.95 -0.15 2.95 -0.15 3.15 -0.15 4.35 -0.15 3.15 -0.15 2.95 M-1.75 5.05 L-1.85 5.05 Q-1.95 4.85 -2.15 4.85 L-2.25 4.85 -2.3 4.9 -2.45 5.0 -2.45 5.3 -2.1 5.45 -2.05 5.55 -2.05 5.65 -2.0 5.75 -1.9 5.8 -1.7 5.85 -1.4 6.0 Q-1.1 6.2 -0.9 5.8 L-0.85 5.75 Q-0.75 5.6 -0.8 5.45 -0.9 4.75 -1.75 5.05 M-2.95 2.2 L-2.35 2.15 -2.95 2.2" fill="#ff3366" fill-rule="evenodd" stroke="none"/>
      <path d="M-1.75 5.05 Q-0.9 4.75 -0.8 5.45 -0.75 5.6 -0.85 5.75 L-0.9 5.8 Q-1.1 6.2 -1.4 6.0 L-1.7 5.85 -1.9 5.8 -2.0 5.75 -2.05 5.65 -2.05 5.55 -2.1 5.45 -2.45 5.3 -2.45 5.0 -2.3 4.9 -2.25 4.85 -2.15 4.85 Q-1.95 4.85 -1.85 5.05 L-1.75 5.05" fill="#ffffff" fill-rule="evenodd" stroke="none"/>
      <path d="M3.6 2.35 L3.1 2.3 2.05 2.15 0.85 2.05 0.45 2.05 -0.15 2.05 -0.15 2.95 -0.15 3.15 -0.15 4.35 M-2.95 2.2 L-3.5 2.3 -5.2 2.65 M3.6 2.35 L5.25 2.65 M-2.35 2.15 L-1.05 2.05 M-2.35 2.15 L-2.95 2.2" fill="none" stroke="#000000" stroke-linecap="round" stroke-linejoin="round" stroke-width="1.0"/>
    </g>
  </defs>
</svg>
