<?xml version="1.0" encoding="UTF-8" standalone="no"?>
<svg xmlns:xlink="http://www.w3.org/1999/xlink" height="67.55px" width="100.0px" xmlns="http://www.w3.org/2000/svg">
  <g transform="matrix(1.0, 0.0, 0.0, 1.0, 45.1, 55.35)">
    <use height="13.55" transform="matrix(0.843, 0.0, 0.0, 0.843, -10.1732, -1.6418)" width="24.95" xlink:href="#sprite0"/>
    <use height="5.6" transform="matrix(1.0, 0.0, 0.0, 1.0, -8.2, -5.5)" width="16.15" xlink:href="#shape1"/>
  </g>
  <defs>
    <g id="sprite0" transform="matrix(1.0, 0.0, 0.0, 1.0, 2.4, 2.6)">
      <use height="10.35" transform="matrix(1.0, 0.0, 0.0, 1.0, -2.4, -1.15)" width="24.95" xlink:href="#sprite1"/>
    </g>
    <g id="sprite1" transform="matrix(1.0, 0.0, 0.0, 1.0, 2.4, 1.15)">
      <use height="10.35" transform="matrix(1.0, 0.0, 0.0, 1.0, -2.4, -1.15)" width="24.95" xlink:href="#shape0"/>
    </g>
    <g id="shape0" transform="matrix(1.0, 0.0, 0.0, 1.0, 2.4, 1.15)">
      <path d="M17.9 0.55 L15.75 5.0 15.75 5.05 15.4 5.7 13.6 2.85 11.3 5.05 10.1 2.95 8.4 4.9 6.55 2.9 4.5 5.25 4.3 4.9 1.3 0.25 Q6.05 1.65 10.2 1.65 13.8 1.65 17.9 0.55 M5.25 8.1 L5.65 5.45 8.0 7.3 8.95 6.1 10.05 7.3 11.4 6.2 11.7 7.15 13.75 5.6 13.95 8.4 10.15 8.7 5.25 8.1" fill="#ffffff" fill-rule="evenodd" stroke="none"/>
      <path d="M15.75 5.0 L17.9 0.55 21.8 -0.65 Q22.8 2.55 19.75 5.65 L17.7 7.2 17.0 5.9 Q16.5 5.2 15.75 5.0 M1.3 0.25 L4.3 4.9 3.65 5.05 Q2.75 5.5 2.05 6.7 L0.3 5.25 Q-2.95 1.8 -1.35 -0.65 L1.3 0.25" fill="#000000" fill-rule="evenodd" stroke="none"/>
      <path d="M15.75 5.0 Q16.5 5.2 17.0 5.9 L17.7 7.2 Q16.1 8.05 13.95 8.4 L13.75 5.6 11.7 7.15 11.4 6.2 10.05 7.3 8.95 6.1 8.0 7.3 5.65 5.45 5.25 8.1 4.5 7.9 Q3.15 7.4 2.05 6.7 2.75 5.5 3.65 5.05 L4.3 4.9 4.5 5.25 6.55 2.9 8.4 4.9 10.1 2.95 11.3 5.05 13.6 2.85 15.4 5.7 15.75 5.05 15.75 5.0" fill="#990000" fill-rule="evenodd" stroke="none"/>
      <path d="M17.7 7.2 L19.75 5.65 Q22.8 2.55 21.8 -0.65 L17.9 0.55 Q13.8 1.65 10.2 1.65 6.05 1.65 1.3 0.25 L-1.35 -0.65 Q-2.95 1.8 0.3 5.25 L2.05 6.7 Q3.15 7.4 4.5 7.9 L5.25 8.1 10.15 8.7 13.95 8.4 Q16.1 8.05 17.7 7.2 Z" fill="none" stroke="#990000" stroke-linecap="round" stroke-linejoin="round" stroke-width="1.0"/>
    </g>
    <g id="shape1" transform="matrix(1.0, 0.0, 0.0, 1.0, 8.2, 5.5)">
      <path d="M1.9 -2.45 Q1.55 -2.5 1.35 -2.2 1.05 -1.95 1.05 -1.6 1.05 -1.25 1.35 -1.0 1.55 -0.75 1.9 -0.7 L2.55 -1.0 2.8 -1.6 2.55 -2.2 1.9 -2.45 M4.25 -5.5 Q5.8 -5.55 6.85 -4.4 7.95 -3.2 7.95 -1.5 7.95 0.2 6.35 -0.45 L3.3 -0.65 1.15 0.0 Q0.45 0.2 0.45 -1.5 0.45 -3.2 1.5 -4.4 2.65 -5.55 4.25 -5.5 M-7.15 -4.35 Q-6.05 -5.5 -4.45 -5.45 -2.85 -5.5 -1.8 -4.35 -0.7 -3.1 -0.65 -1.4 -0.7 0.3 -2.25 -0.35 L-5.35 -0.6 -7.45 0.05 Q-8.2 0.3 -8.2 -1.4 -8.2 -3.1 -7.15 -4.35 M-2.8 -2.2 L-3.05 -1.6 -2.8 -0.95 Q-2.55 -0.7 -2.2 -0.7 -1.85 -0.7 -1.6 -0.95 L-1.3 -1.6 -1.6 -2.2 Q-1.85 -2.5 -2.2 -2.45 -2.55 -2.5 -2.8 -2.2" fill="#ffffff" fill-rule="evenodd" stroke="none"/>
      <path d="M1.9 -2.45 L2.55 -2.2 2.8 -1.6 2.55 -1.0 1.9 -0.7 Q1.55 -0.75 1.35 -1.0 1.05 -1.25 1.05 -1.6 1.05 -1.95 1.35 -2.2 1.55 -2.5 1.9 -2.45 M-2.8 -2.2 Q-2.55 -2.5 -2.2 -2.45 -1.85 -2.5 -1.6 -2.2 L-1.3 -1.6 -1.6 -0.95 Q-1.85 -0.7 -2.2 -0.7 -2.55 -0.7 -2.8 -0.95 L-3.05 -1.6 -2.8 -2.2" fill="#990000" fill-rule="evenodd" stroke="none"/>
    </g>
  </defs>
</svg>
