<svg xmlns="http://www.w3.org/2000/svg" xmlns:xlink="http://www.w3.org/1999/xlink" width="100.7" height="92.9"><use xlink:href="#a" width="35.6" height="46.35" transform="translate(20.55 34.3)"/><defs><g id="a"><path fill="#2c2833" fill-opacity=".251" fill-rule="evenodd" d="M29.55 27.5q1.65.95 1.65 1.85 0 1.25-1.25 1.25l-4.05-1.7-2.15-.6-1.35.1-10.05.05-2.75 1.4q-.6.35-.5 1.85.05 1.25-1.25 1.25-1.7 0-1.4-2.15L6.6 29l.4-.5h-.1l-.45.1q-1.1 0-1.25-1.25 0-.75.75-1.2 6.3-3.45 7.6-3.9 1-.35 1 .7.1 3.6 10.05 2.75 3.25-.3 4.35-1.05.9-.7 1.6-.7 1 0 1.15 1.25 0 1.3-2.15 2.3"/><path fill="none" stroke="#000d38" stroke-linecap="round" stroke-linejoin="round" stroke-width="2" d="M18.1 1q-1.35.05-1.35 1.75h-.05q-1.35-1.05-2.2-.7-1.45.75-.4 2.25-2.8.15-3.25.85Q10 6.5 12.3 7.75l-.85.6-.85 1.25q.05.9 2.15 1.15l-.55.85q-.45 1 .1 1.6.4.4.7.45l-.9.5-1.95.5q-.75.4-1.3 1.9l-1.1 1.15q-1.6.2-2.1.9l-.1.1q-.5.4-.55.95-.15 1.3-.4 1.7l-.75 1.5-1.2 3.25v2.2l-1.2 4.4-.4 1.75q-.3 2.05 1.3 2.3L3.45 38q2 2.35 5.35 4.45 4.7 2.9 9 2.9 4.35 0 9.05-2.9 3.3-2.1 5.3-4.45L34 35.9q.95-1.5.45-3.2l-.95-2.55q-.6-1.6-.55-2.7 0-2.7-2.65-6.7l-.05-.45q.1-.85-.2-1.5l-.2-.5q-.35-.55-2.6-1.3l-.65-.6q-.4-1.35-1.25-1.8-.9-.55-2-.55l-.7-.4h.05l-.35-.55q.85 0 1.2-.5.5-.75-.35-2.2 1.05-.05 1.35-.65.35-.15.35-.6v-.2q.15-.6-1.25-1.55 1.4-1.05.55-2.35l-2.1-.15q.85-1.7.1-2.15-.7-.45-2.35.35L19.7 3q.2-2.1-1.6-2Z"/><path fill="none" stroke="#000" stroke-linecap="round" stroke-linejoin="round" stroke-width="2" d="M26.7 32q-3.6 3.2-8.8 3.2-5.25 0-8.95-3.2-3.2-2.75-2.85-5.05.25-1.65 2.9-1.85 1.85-.15 8.7 0h8.85q2.6.2 2.9 1.85.35 2.3-2.75 5.05Z"/><path fill="#002f92" fill-rule="evenodd" d="M22.25 6.95q0 1.85-1.25 3.1-1.3 1.3-3.1 1.3-1.85 0-3.1-1.3-1.3-1.25-1.3-3.1 0-1.8 1.3-3.05 1.25-1.3 3.1-1.3 1.8 0 3.1 1.3 1.25 1.25 1.25 3.05"/><path fill-rule="evenodd" d="m27.5 21.5.9.5q.95.65 1.05 1.35.2 1.2-3.2 2.65-3.85 1.55-8.5 1.55-4.35 0-8.35-1.15-2.95-.85-3.7-1.55-.35-.3.4-1.15l.85-.8 20.55-1.4"/><path fill="#002f92" fill-rule="evenodd" d="M28.55 18.4q4.5 5.2 4.4 9.05-.05 1.1.55 2.7l.95 2.55q.5 1.7-.45 3.2L32.15 38q-2 2.35-5.3 4.45-4.7 2.9-9.05 2.9-4.3 0-9-2.9-3.35-2.1-5.35-4.45L1.8 35.9q-.85-1.5-.35-3.2 1.25-4.65 1.25-5.25-.1-3.8 4.4-9.05 5.1-5.9 10.7-5.9 5.65 0 10.75 5.9M26.3 31.9q2.65-2.55 2.25-4.95-.25-1.65-2.45-1.85h-8.4q-6.6-.15-8.2 0-2.2.2-2.45 1.85-.4 2.35 2.25 4.95 3.15 3.05 8.35 3.05H18q5.2 0 8.3-3.05"/><path fill="#00297e" fill-rule="evenodd" d="M15.05 12.5q1.4-.4 2.85.4L5.4 21.5q-.5-2 .25-2.9.45-.6 1.8-.85l1.2-.15.3-1.2q.4-1.3 1.2-1.75l1.95-.55 1.05.05.45-.65 1.45-1"/><path fill="#4c59a9" fill-rule="evenodd" d="M10.65 15.4q2.25-1.3 3.8-1.3l2.2.15q.55.7-1.1 1.65l-3.2 1.45q-1.9.75-2.85 1.9L7.1 21.9q-.6.9-.25 3 .15.8-.25 2.35-.5 4.7 2.5 7.7l2.25 1.4q1.6.75 2.2 1.4 1.25 1.4-.7 1.35l-2.95-.5q-4.6-1.75-5.8-1.75l-2.45-.3q-.85-.45-.6-2.1L2.5 30.1l.15-4 1.2-3.25.75-1.5q.25-.4.4-1.7.15-1 1.95-1.65 2.1-.75 2.45-1.2.55-.95 1.25-1.4"/><path fill="#00297e" fill-rule="evenodd" d="m22.35 14.1 3 .5q1.25.75 1.5 2.9l1.2.15q1.35.3 1.8.85.75.9.25 2.9l-12.5-8.55.9-.35 1.95-.1q1.4.45 1.9 1.7"/><path fill="#001a51" fill-rule="evenodd" d="M30.25 27.65q-.2-1.3-1.3-2.65l-1.9-2.25q-1.9-3.1-3.6-4.3l-2.5-1.6Q19.2 15.5 19.9 14.6q1.25-1.6 4.6 1.95 2.25 2.35 3.65 4.65 3.95 6.75 4.4 11.1v2.65q-.2 2.4-4.8 4.95-4.65 2.55-4.85-.8-.05-1.55 2.4-3.1 1.85-1.15 3.65-3.55 1.7-2.15 1.3-4.8"/><path fill="#848acb" fill-rule="evenodd" d="m28.55 22.65-1.7 1.85q-2.95 1.85-9.4 1.85t-9.3-1.45L6.6 23.4l21.95-.75"/><path fill="#4c59a9" fill-rule="evenodd" d="M25.9 21q2.65.9 2.65 1.65 0 .8-2.05 1.55-2.95 1.05-8.85 1.05-11.1 0-11.1-2 0-.75 2.6-1.9 3.4-1.5 8.35-1.5 5.05 0 8.4 1.15"/><path fill="#002f92" fill-rule="evenodd" d="m23.85 21.4.75-.1q.4.05 2.95 1.5-1.2 1.1-4 1.55l-1.95.45q-1.2.25-1.8-.35l2.25-1.5q1.45-1.4 1.8-1.55"/><path fill="#4c59a9" fill-rule="evenodd" d="m25.7 15.3.9 1.4 1.65.6q1.2.3 1.6 1 .55.95.75 3.65l1.45 3.35q-1.05-.95-2.4-3.2-1.4-2.4-2.3-3.3l-4-3.9.9-.2h.05q1 0 1.4.6"/><path fill="#001a51" fill-rule="evenodd" d="m22.15 40.7 2.9-.75 2.25-.6q0 1.35-4.5 2.75-2.55.85-5.6.85-8 0-9-3.6l.75.75-1.3-1.65q1.5.2 4.4 1.6l5 .9 5.1-.25"/><path fill="#002f92" fill-rule="evenodd" d="m20.65 9.95 2.05 3.7-9.6-.05q.45-.15 2.15-3.4t2.5-3.3q1.6 0 2.9 3.05"/><path fill="#002f92" fill-rule="evenodd" d="m20.55 12.7-3.8-8.6.05-1.9q.15-1.15 1.3-1.2 2-.1 1.6 2.15 1.85-.8 2.5-.4.75.45-.1 2.15l2.1.15q.85 1.3-.55 2.35 1.4.95 1.25 1.55-.4 1.4-1.7 1.45.85 1.45.35 2.2l-3 .1"/><path fill="#002f92" fill-rule="evenodd" d="M18.2 4.6q.5.25.65 2.5.15 1.55-.1 2.8-.2.8-1 1.55l-1.55 1.4q-.8.95-1.9.9-1.6-.15-2-.55-.55-.6-.1-1.6l.55-.85q-2.1-.25-2.15-1.15l.85-1.25.85-.6Q10 6.5 10.85 5.15q.45-.7 3.25-.85-1.05-1.5.4-2.25.7-.3 2 .55 1.35.95.8 1.6l.9.4"/><path fill="#4c59a9" fill-rule="evenodd" d="M17.4 10.6q.35.35-.35 1.1-1.85 2.25-2.65 1.2-.7-.9.9-1.85 1.45-1 2.1-.45m-1.65-7.65q.6.5 1.05.15l.45-1.2q.85-.55.85 1 0 1.65-1.8 1.85l.6 1q-1.55-.1-1.85.45-.4.6 0 .95l.7.65q-1.1 0-1.65 1.05-.3.6-.05.9l.6.75-1.55 1.2-.2-.2q-.25-.45.1-.75-1.2-.6-1.25-1.6Q11.7 8.6 13 7.8q-1.8-1.25-1.55-2.2.2-.75 1.3-.8h1.75q-.95-2.25.2-2.4.35-.05 1.05.55"/><path fill="#001a51" fill-rule="evenodd" d="m21.2 13.5-1.8-.1q-.65-.2-.8-1.35-.15-1.8.5-1.95 2.4 2.4 2.35 3.4h-.25M21.75 3q.5.35.25 1.2l-.45 1.3 1.1-.1q.65-.1 1.05.3.65.6-.35 1.8 1.6.55 1.55 1.65-.05.7-2.2.7 1.25 1.1.75 2.25-.6 1.1-2.45-.3 1.05.05.6-.6-.35-.6-1.1-.95 1.05-1.45.65-2.15-.4-.75-2.45-.95.05-2.25.5-3.05v-.25q.3-.5 1.15-.8l1.4-.05"/></g></defs></svg>