<svg xmlns="http://www.w3.org/2000/svg" xmlns:xlink="http://www.w3.org/1999/xlink" width="100.7" height="92.9"><use xlink:href="#a" width="47.95" height="28.35" transform="translate(14.65 42.2)"/><defs><g id="a"><path fill-rule="evenodd" d="m13.55 25-5.3 3.35q.8-3.5.8-4.85 0-.85 2.25.25 1.15.55 2.25 1.25m20.85 0q1.15-.6 2.25-1.25 2.25-1.1 2.25-.25 0 1.35.8 4.85L34.4 25"/><path fill="#271b0a" fill-rule="evenodd" d="M10.7 7.4Q20.85 0 23.95 0q3 0 13.3 7.4 10.7 7.7 10.7 11.1 0 3.75-9.25 6.35-7.6 2.1-14.55 2.1-7.05 0-14.75-2.1Q0 22.25 0 18.5q0-3.45 10.7-11.1"/><path fill="none" stroke="#271b0a" stroke-linecap="round" stroke-linejoin="round" d="M9.35 23.75q7.65 2.2 14.8 2.2t14.65-2.2q8.15-2.35 8.15-5.25T36.65 8.2Q26.7 1 23.95 1q-2.7 0-12.65 7.2Q1 15.6 1 18.5q0 2.85 8.35 5.25Z"/><path fill="#ffb85f" fill-rule="evenodd" d="M9.35 23.75Q1 21.35 1 18.5q0-2.9 10.3-10.3Q21.25 1 23.95 1q2.75 0 12.7 7.2 10.3 7.4 10.3 10.3 0 2.9-8.15 5.25-7.5 2.2-14.65 2.2t-14.8-2.2"/><path fill="#e89f44" fill-rule="evenodd" d="m44.6 17.2-.35-2.75 1.4 1.55q1.35 1.7 1.3 2.5-.2 2.1-5.35 4.3-6.75 2.9-17.45 2.9-10.75 0-17.55-2.85Q1.4 20.7 1 18.5q-.15-1.05 1.3-2.7l1.45-1.45-.4 3q.5 1.4 4.55 3.25 6.25 2.85 15.95 2.85 15.4 0 20.75-6.25"/><path fill-rule="evenodd" d="M24.05 15q5.15 0 5.95 1l2.05 3.65q1.3 2.75 1 3.45-.65 1.6-9.05 1.65-8.35.05-9-1.45-.2-.55 1-3.35l1.95-3.75q.9-1.2 6.1-1.2"/><path fill="#cd8d3c" fill-rule="evenodd" d="M37.35 8.6q8.8 6.1 9.6 9.9.45 2.15-5.1 4.2.9-1.35.9-2.5 0-1.65-4-5.85L23.95 1q2.8.1 13.4 7.6"/><path fill="#a26f2f" fill-rule="evenodd" d="M41.85 22.7q.9-.8.9-1.7l-.25-1.8q1.75-1.25 2.1-2l-.35-2.75 1.45 1.4q1.4 1.7 1.3 3.1-.15 1.65-2.75 2.75l-2.4 1"/><path fill="#ffe2c0" fill-rule="evenodd" d="M6.5 17.5q-2.85 2.35-3.85 1.6-.55-.45 2.65-3.25L23.15 1.6 6.5 17.5m5.45-2.65q-.5-.45 7.5-7.6.25.15-2 2.65l-3.1 3.2q-2.25 1.85-2.4 1.75m-6.7-.45q-2.75 2.05-3 1.8-.55-.5 9.45-8.1.3.25-2.55 2.95l-3.9 3.35"/><path fill="#ffe2c0" fill-rule="evenodd" d="M3.4 18.65q-.6-.35-.7-1.85l.05-1.4 1.65 2.35q.65 1 8.5 4.5-4.65-.6-9.5-3.6"/><path fill="#a26f2f" fill-rule="evenodd" d="m42.9 19.35.65.75-3.25 1.3-5 .75 7.6-2.8"/><path fill="none" stroke="#ffe2c0" stroke-linecap="round" stroke-linejoin="round" d="m15 23.15 1.8.7 7.2.65q7.15 0 8.75-1.4"/><path fill="#e89f44" fill-rule="evenodd" d="m24.3 23.95-.65 1.2L23.2 24l.35-9.1.85.1-.1 8.95m-4.2.9-.35-1.05 1.15-9.15.85.15-.85 9.1-.8.95m-3.2-.05-.2-1.45 2-8.65.8.25-1.7 8.6-.9 1.25m10.65.2-.65-1.1-.5-9.05.8-.1.85 9.15-.5 1.1m3.55-.35-.85-1.15-1.5-8.75.8-.2 1.75 8.6-.2 1.5"/><path fill="#ffb85f" fill-rule="evenodd" d="M24.5 12.75q4 .35 5.4 1.5 2 1.65 1.1 3.4l-1.5-2q-1-.55-5.6-.55-3.65 0-5.25.65L16.9 18.1l.5-2.25q.7-2.4 1.85-2.85l5.25-.25"/><path fill="#ffe2c0" fill-rule="evenodd" d="m38.1 21.2 4.9-3.6q.85-.8 1.2-1.7l.15-.8-.1 2.6q-.5 1.65-6.15 3.5"/><path fill="#cd8d3c" fill-rule="evenodd" d="m25.25 3.35 4.75 5Q27.1 7.1 26.5 6.1l-1.25-2.75m15 14.75-4.5-3.25-3.25-4.15 7.75 7.4"/></g></defs></svg>