<svg xmlns="http://www.w3.org/2000/svg" xmlns:xlink="http://www.w3.org/1999/xlink" width="100.7" height="92.9"><use xlink:href="#a" width="54.9" height="19.35" transform="translate(11.35 34.65)"/><defs><g id="a" fill-rule="evenodd"><path d="M36.15 12.25q.2-1.4.7-2.75 1.05-2.65 2.7-2.3 1.3.25 1.4 4.85l.05 1.3q1.65-.3 1.9-1.55-.8-6.25.35-7.85.75-.95 1.4-1l.5.15q.2-.8.7-1.6 1-1.55 2.55-1.5 2.5.05 2 3.95l1.15-1q1.35-.85 2.6 0 1.65 1.1-.35 5.2-.9 2.15-3.15 4.35-1.4 1.35-2.9 2.35l1.4.9q1.25 1.15.5 2.3-.5.8-2.55.8l-2.4-.3-1.4-.6-3.9 1.25-3.85.15-1.8-.65-4.15-2.75 3.65-.2q-2.8-1.25-2.6-3.85.15-1.85 1.45-2.7l2.1-.1q1.1.85 1.55 2.65l.4.5"/><path fill="#995b1f" d="M46.2 9.3q-.5 6.2-2.25 7.45-2.05 1.45-4.45 1.75l-4.95.2-2.2-2.45q7.35 0 10.25-2.85.95-.9.55-5.1-.35-3.85 1.1-4.35Q46.7 3.1 46.2 9.3"/><path fill="#995b1f" d="M46.35 14.75q-2.1 2.2-3.8 2.15l-1.1-2.2q2.85-2.05 3.35-7.1.2-2.35 1.4-4.65 1.3-2.65 2.55-2 2.05 1.15.05 9.95-.45 1.85-2.45 3.85"/><path fill="#995b1f" d="M47.65 10.7q.85-2.6 2.35-5 1.9-2.85 3.2-2.3 1.3.6.55 3.05-.65 2.15-2.05 3.9-2.95 3.65-5.35 4.15l1.3-3.8m-5.05 4.45q5.1 0 6.45 1.65 1.2 1.5-2.4 1.2-3.65-.3-5.15-1.55l1.1-1.3m-6.05-1.5q1 1.1.7 2.4l-.9.85q-3.1-1.6-4.3-3.05-1.6-1.9 0-3.7 1.55-1.75 2.5.6.5 1.25 2 2.9"/><path fill="#995b1f" d="M40.2 12.45q-.55 3.9-2.3 3.6l-2-.45 1.35-4.95q1.1-3.35 2.15-2.8 1.35.7.8 4.6m-7.05 3.9 3.05 2.35-2.3.35q-1.2-.6-2.05-1.55l-2.25-1.55 3.55.4"/><path fill="#693e15" d="m43.05 12.6.35-2.6.55-2 .2-2.25q.1-1.2.45-1.55l.65-.2q.4.05.3.55l-.65 3.5q-.4 1.75-1.85 4.55m3 2.55.25-.05q1.3.15 2.45 1.5l-2.05-.25h-2.2l1.55-1.2m.15-4.35.65-2.45q.45-2.1.45-5.1 0-2.1.75-2.25Q49.2.85 49.2 2.65v2.8l-.15 1.25-1 1.4-1.75 2.45-.1.25"/><path fill="#693e15" d="M49.35 11.2q.95-.9 1.55-2.6.75-1.85.75-2.85 0-1.5.7-1.95 1.25-.9 1.45.65.4 2.35-2.1 5.85l-3.95 3.45-.95.75-1.4 1.25-.6.4-.4.1-1-.25 2.45-1.8 2.1-1.9 1.4-1.1"/><path fill="#693e15" d="m39.45 18.6-2.6.1-1.85.25-1.2.25-.35-.65-.5-.4 1.55-.3 1.55-.4 3.35-.65 3.4-.75 1.45-.45q1.4-.25.8.45l.05.2q-.65-.05-.05 1.4l-2.15-.25-1.55.7-1.9.5m.85-7.25q0 2.5-.2 2.85-.6 1.25-1.8 1.6l-1.2.3 1.3-1.6q.45-.85.45-2.15l.05-4.1q1.4-.2 1.4 3.1m-3.9 2.4-.5 1.35q-2.75-2.25-2.6-5.15 0-.7.85.15l.2.75q.25 1.05 1.4 2.1l.65.8"/><path d="M4.25 12.5q-2.1-2.05-3.2-4.35Q-.85 4 .7 2.95q1.3-.85 2.65 0l1.15 1L4.55 2Q4.9.05 6.5 0 9-.1 9.75 3.1l.5-.15q.65.05 1.35 1 1.2 1.6.4 7.85.2 1.25 1.9 1.55l.05-1.3q.1-4.6 1.35-4.85 2.7-.55 3.45 5.05l.4-.5q.45-1.8 1.55-2.65l2.1.1q1.25.85 1.45 2.7.2 2.6-2.6 3.85l3.6.2-4.1 2.75-1.8.65-3.85-.15-3.9-1.25-1.4.6-2.4.3q-2.05 0-2.55-.8-.75-1.15.5-2.3l1.4-.9q-1.55-1-2.9-2.35"/><path fill="#995b1f" d="M8.7 9.3q-.5-6.2 1.95-5.35 1.45.5 1.1 4.35-.4 4.15.55 5.1 2.9 2.85 10.25 2.85L20.3 18.7l-4.9-.2q-2.4-.3-4.45-1.75Q9.2 15.5 8.7 9.3"/><path fill="#693e15" d="M10.7 3.9q1.25 0 1.05 3.2l-.4 3.8q0 .5 1.3 3 .35.65.25 2.3l-1.6-.75q-1.55-.55-2.05-1L10.3 4h.4v-.1"/><path fill="#995b1f" d="M8.5 14.75q-2-2.05-2.4-3.85-2-8.8.05-9.95Q7.4.3 8.7 2.95q1.2 2.3 1.4 4.65.5 5.05 3.35 7.1l-1.1 2.2q-1.7.05-3.85-2.15"/><path fill="#995b1f" d="m7.2 10.7 1.35 3.8q-2.3-.45-5.4-4.15-1.35-1.8-2-3.9Q.4 4 1.7 3.4 3 2.85 4.9 5.7q1.55 2.4 2.3 5m5.1 4.45 1.1 1.3Q11.9 17.7 8.3 18q-3.65.3-2.45-1.2 1.35-1.65 6.45-1.65m6.05-1.5q1.5-1.65 2-2.9.95-2.35 2.5-.6 1.55 1.8-.05 3.7-1.15 1.45-4.25 3.05l-.9-.85q-.3-1.3.7-2.4"/><path fill="#995b1f" d="M14.65 12.45q-.55-3.9.8-4.6 1.05-.55 2.15 2.8L19 15.6l-2 .45q-1.75.3-2.35-3.6m7.05 3.9 3.55-.4-2.2 1.55L21 19.05l-2.3-.35 3-2.35"/><path fill="#693e15" d="m19.5 18.85-1.45-.15-2.6-.1-1.9-.5q-1.05-.6-1.6-.7l-2.1.25q.6-1.45-.1-1.4l.1-.2q-.6-.7.8-.45l1.45.45 3.35.75 3.35.65 1.55.4 2.15.15q-1.3 1.1-1.75 1.15l-1.25-.3m2.3-8.9 1.25 1.25q.45.9.2 1.7L22.5 14l-1.25 1.1-1.35.85-1.55.05q-.1-.5 1-1.25l1.45-1.1q.8-1.3.85-1.95l.15-1.75m-5.5 4.55.45-1.8q-.05-4.15-.25-4.2.7.1 1.15 2 .75 1.15.75 2.4-.05.7-1.15 1.5-.7.55-.9.25l-.05-.15"/><path fill="#693e15" d="M5.2 9.55q1.25 1.65 4.45 4.25 3.6 2.95 6.25 3.05l.95.55-3.4-.25q-3.15-.7-4.65-2.05-2.7-1.55-3.75-2.6-2.45-2.35-3.7-5.15-.4-.9-.3-2.6 1.3.4 2.4 2.05L5.2 9.55"/><path fill="#693e15" d="m8.05 1.85.75 1.2q.45 1.55.45 3.45 0 1.35 1.35 4.7.6 1.5 1.3 2.1l-1.15-.45-3-1.85Q7.1 9.05 7.1 7.9V4.45l.05-3.25q.2-.4.9.65"/><path fill="#432709" d="M13.75 14.45q-3.6-1.75-5.25-3-1.05-.8-2.25-2.95l-1-2.05L8.9 10.9l4.85 3.55m-1.4 3.45q-1.55-1.05-2.45-1.55l-1.05-1.2 5.3 3.05 1.3.4-3.1-.7M43 17.6l-1.65.5 3-2.1 3.4-2-1.7 1.7L43 17.6"/></g></defs></svg>