<svg xmlns="http://www.w3.org/2000/svg" xmlns:xlink="http://www.w3.org/1999/xlink" width="100.7" height="92.9"><use xlink:href="#a" width="35.5" height="32.35" transform="translate(20.25 33.5)"/><defs><g id="a" fill-rule="evenodd"><path fill="#4b1b09" d="m1.15 28.6 1.35-1.45L0 27.1q1.9-2.85 3.6-3.95l2.75-1.25 2.05 1.7-2.55 2.5q-.7 1.15-1.25 3.9l-3.85.85q0-1.5.4-2.25"/><path fill="#ff5d2d" d="m7.7 22.2-.1.45 1 .6L6.35 26 4.7 29.3q-1.6.15-3.35.8 2.1-3.45 2.85-3.75l-3.35.35 2.85-2.65q1.15-.8 4-1.85"/><path fill="#bf4621" d="M4.5 27.1q.9-.95 1.4-1.15l-2.5-.05q-.05-.6 1.65-1.9l1.1-.8q.55-.05 1.5.6v.4L6.3 26l-.95 2.35-.85.4-.85-.1q-.1-.5.85-1.55"/><path d="m24.25 7.6-1.8 2.15-9.5 1.15q-.1-.75.65-1.5 2-1.85 2.05-2.9.05-.9-.7-1.5-.95-.65-1.05.1l.15.9q.1.55-.35 1.2l-1.25.05q-.9-.45-1.35-1.5-1.2-2.55 1-4.3 2.7-2.25 5.9-1 2.85 1.15 6.25 7.15"/><path fill="#611f0f" d="m18.4 24.65 6.8-.7 9.05 4.3q-2.75 1-4 .95l-2.65-.85.75 3.75-3.5-1-2.35-1.85.25 3.1q-2.75-.75-5-2.7-.55-.45-1-1.95l-.35-1.35 2-1.7"/><path fill="#4b1b09" d="m30.5 29-2.35-3.25q-.05-.25 1.25-5l3.75 3.1q1 1.05 2.35 4.75-.9.8-2.35.8L30.5 29"/><path fill="#ff5d2d" d="M28.85 20.95q2.05 1.1 3.55 3.25.95 1.25 2.3 4.25-3.8.65-5.5-.1-1.8-.75-2.4-1.45.8 2.05.7 4.2-1.9.05-5.6-3.05.35 1.15.35 3.55-1.45.05-3.8-2.9-1.35-1.5-1.35-3.3l1.45-2.95q.2-1.65 3.65-2.75l4.5.25 2.15 1"/><path fill="#bf4621" d="M32.05 24.35q.5 1.25-.8 1.5l-2.35.05h-2.55q-.6.05-.75.4l-.5.65q-.65.5-4 0-.3 1.1-1.7 1.05-1.85-.1-1.9-1.25l2.6-1.85 2.1-.75 5.75-1.65q3-1.05 4.1 1.85"/><path d="m29.6 16.1 1.4 5.3q.55 1.75-.8 2.45l-4.25.15-8.2-4.8-6.55 4.95q-3.95-.05-4.7-.75-.7-.65-.1-2.95l1.2-4.35q.5-3.85 1.9-3.85 1.3 0 1.65 1.1.2-1.75 2.45-3.95 1.6-1.55 5.5-1.55l3.1-.4 2.05.15L26.5 13l.3-.4q.45-.45 1.3-.45.8 0 1.5 3.95"/><path fill="#0c4415" d="M30.2 23.85q-6.45 3-11.45 3-3.1 0-7.5-1.5l-3.75-1.5 1.35-1.15 10.1 1.55L29.1 22.6l1.1 1.25"/><path fill="#298b2d" d="M20.35 3.8q2.8 3.3 5.5 9.3l4.2 10.05q-6 2.3-11 2.3h-.4q-3.15 0-7.35-1.15l-3.65-1.15q.25.1 4.7-10.8l1.95-2q2.55-3.1 2.15-4.5-.25-.95-1.15-1.6l-1.8-.15q-.45.3-.2 1.55.25 1.1-.2 1.1-1.2 0-1.6-1.3-.35-1.15 0-2.05Q12.6.8 15.4.6q2.25-.15 4.95 3.2"/><path fill="#207024" d="m23.25 7.45 3.6 7.3 1.5 7.7q-1.25 1.7-3 2.05l-5.5.95.55-1.35q.55-12.5.05-15.4L17.7 1.25q3.4 2.1 5.55 6.2"/><path fill="#523c12" d="m10.65 19.8 7.7-1.4 10 .7q-5.15 2-10.4 2l-5.85-.75-1.45-.55-.45.05v-.25l.45.2"/><path fill="#a47925" d="m27.75 15.4.5 3.15q-3.65 1.95-10.5 1.95-4.3 0-6.8-1.4l-1.7-1.4 1.1-3.6 2.4 1.1q2.85 1.05 5.25 1.05 2.7 0 5.75-.9 2.85-.8 3.15-1.5.3-.55.6.35l.25 1.2"/><path fill="#7c5a1b" d="m26.75 15-.3 3.1-1.3 1.05-2 .35.1-2.4 1.85-1.35 1.65-.75"/><path fill="#d79f31" d="m10 14.15 2.55 1q3.05 1 5.8 1 4.35 0 5.35-.9-2 2-5.35 1.85-2.1-.1-5.45-1.55l-2.9-1.4"/><path fill="#104e19" d="M21.15 25.25q2.25-.85 3.2-2.9l1.7-5.95q1.25-4.25 2.3-3.45.3.25 1.65 7.2.75 1.85.05 3-5.8 1.7-8.9 2.1"/><path fill="#14581c" d="m16 25.25-8.9-2.1q-.65-1.15.1-3 1.55-6.8 1.9-7.05 1.65-1.35 3.75 9.25.9 2.05 3.15 2.9"/><path fill="#262a2e" d="m21.25 16.5-2.45-.25-2.6.4q-.4.25-.4 1.9-.05 1.7.45 1.8l4.85-.15q.25-.25.3-1.85.1-1.55-.15-1.85m-7.15-2q.65-.6 4.15-.75l4.85.55q.7.4.6 3.7-.1 3.05-.55 4.05-.3.75-4 .75l-4.8-.5q-1.1-.45-.95-3.9.1-3.3.7-3.9"/><path fill="#d7edfe" d="m18.75 14.6 3.85.35q.35.35.3 3.25 0 2.9-.45 3.45-.45.45-3.65.5l-4-.2q-.75-.2-.75-3.4 0-3.15.6-3.55l4.1-.4m2.75 1.25-3.05-.3-2.95.4q-.6.3-.4 2.6.15 2.3.65 2.4l2.95.1 2.7-.2q.35-.35.5-2.4.2-2.25-.4-2.6"/><path fill="#a7b7c4" d="m22.05 15.15.1-.25.45.15.35 2.35q.3 3.4-.5 4.25-.6.65-4.85.5 3.75-.45 4.25-.95.4-.4.5-2.95l-.3-3.1"/><path fill="#fff" d="m22.5 14.9.25.55-4.05-.4-4.4.55.35-.6.45-.2 2.65-.5 4.75.6m-4.1 6.5-2.7-.35 1.35-.2 3.6.15.65-.05-2.9.45"/><path fill="#262a2e" d="m20.25 17.35 2-.05q.7.35.4 2.1l-3.9.25q-.65 0-.75-.8-.1-.75.2-1.15l2.05-.35"/><path fill="#d7edfe" d="m18.6 18.15 3.95-.2q0 1.05-.2 1.05h-3.6q-.15 0-.15-.85"/><path fill="#a7b7c4" d="m16.15 15.7-1.05 1.75.25 3.3.4.2-.7.25-.45-3.9q0-.85.4-1.3l.35-.25.8-.05"/><path fill="#12551c" d="M13.25 6.7q-1.6-.8-.6-2.7.55-.95 1.65-1.15 1.2-.25 1.85.75.85 1.35.55 3.3l-.5-1.75q-.7-1.45-1.9-1.25-1.15.15-1.15 1.05l.1 1.75"/><path fill="#bf4621" d="m28.7 25.35 1.9-1.75q2.1 1 3.1 4.15-2.8-1.95-5-2.4"/></g></defs></svg>