<svg xmlns:xlink="http://www.w3.org/1999/xlink" height="92.9" width="100.7" xmlns="http://www.w3.org/2000/svg"><use height="23.95" transform="translate(19.9 36.95)" width="34.85" xlink:href="#a"/><defs><g id="a" fill-rule="evenodd"><path d="M3.9-11.9q2.3.2 2.6 1.55.4 2.1-1.3 6.1l1.75-2.9.95-.05q.7.15.85.7.2.85-1.3 2.95l4.3-5q.6-.2 1.8.5 1.35.85.65 2.1-.85 1.5-3.8 4.35l2.1-1q2.1-1.1 2.45-.95.6.3 1 1.5.4 1.35-.3 2L11.7 1.4h2.6q.3.2.35 1.1 0 .95-.4 1.1l-4.9-.85q-9.7-.35-22 3.75-5.6-2.4-5.95-2.85-.35-.55.2-2.05.55-1.6 1.5-1.4l3.9 1.6q.5.2-3.65-5.05.25-1.7 1.8-3.05 1.3-1.2 2.1-1.15L-8.1-2.5q.9 1-1.75-4.6l.5-.75q.6-.55.9-.3.5.4 2.35 4.35l-.55-3.5q-.6-3.7-.25-4.25.4-.75 2.6-1.25l2.6.05 1 6.95q.05.2.6-2.35.7-3.05 1.25-3.35.7-.55 2.75-.4" transform="translate(18.75 12.8)"/><path d="m1.7-10.9 2.05-.15q1.7.25 1.95 1.35.15.85-.95 4.25-1 3.1-.65 3.3.8.45 3.15-4.4 1.25-.1 1 .3-2.5 3.75-2 4.45.4.6 5.8-5.9.4-.25 1.1.25.8.6.25 1.6L10.8-3.1q-2 2-1.65 2.4.85.95 5.15-2.2.55.1.95 1.05.4 1-.4 1.25L12.8.2Q11 1 10.85 1.5q0 .55 2.9.4.45.9.05 1.05l-2.45-.2q-14-.25-23.65 3l-5.55-2.7q-.3-.4.2-1.3t1.3-.75q4.3 2.05 4.55 1.7.2-.3-1.8-3.05-2.1-2.85-2.05-3.1.15-1.35 1.25-2.25.85-.75 1.5-.7Q-8.75-1-7.4-1.35q.85-.2-1.8-5.6l.9-.35q2.15 5.35 2.7 5.15 1.3-.4-.3-8.75.15-.65 1.7-1l1.85.1.45 4.2q.35 3.7.95 3.8Q.1-3.7.75-7.1q.75-3.7.95-3.8" fill="#eb662b" transform="translate(18.75 12.8)"/><path d="M-13.05 5.35q-3.65-1-4.8-2.3-.35-.5.3-1.5 2.8.35 5.55 2-.3 1.2-1.05 1.8M-14.4-5.7q3.55 3.85 4.6 6.4l-1.85 2.05-.15-.3-3.85-5.65q-.7-.9 1.25-2.5m7.2 4.35q.1-1.2-2-5.6l.1-.15q.45.3 1.85 4.15.8 1.4.65 2.2-.25.9-.55-.7l-.05.1m2-1.25q-.25-4-.75-7.55-.25-1.2 1.2-1.6 1.15-.2 1.45 7.2.15 1.55-.8 2.25-.95.7-1.1-.3" fill="#702813" transform="translate(18.75 12.8)"/><path d="m1.1-3.95-1.15.15q-.55.05-.3-.5.9-1.65 1.2-3.45l.55-2.65q.35-.7 1.4-.75.2 1.75-1.7 7.2M4.9-2.6l2.2-3.75q.2-.55.55-.3l-2.45 4q-.55.65-.3.05m2.05.4 4.95-5.4q.8-1.2.45.05L7.55-2q-.55.75-.6-.2m2.9 1.65q2.35-.8 4.4-2.35l.4.2.05.45q-.25.4-3.7 1.8-1.2.45-1.3.2l.15-.3m1.6 2.4 2.35.05.25.4-2.65-.2q-1.4-.55.05-.25" fill="#8e3519" transform="translate(18.75 12.8)"/><path d="m12.15 3-.9 2.65q1.25 2.2 1 3.95Q6.1 5.7.5 5.7q-5.85 0-10.5 2.75-2.35 1.35-3.5 2.7l1.3-3.25-1.5-2.25Q-5.55-7.1 3.95-3.6q4.8 1.8 8.2 6.6" transform="translate(18.75 12.8)"/><path d="M-2.35 2.25q0 1.3-.95 2.25-.9.95-2.2.95-3.15 0-3.15-3.2 0-1.3.9-2.2Q-6.8-.9-5.5-.9t2.2.95q.95.95.95 2.2" fill="#00bbfb" transform="translate(18.75 12.8)"/><path d="M-3.65 2.3q0 1.9-1.9 1.9t-1.9-1.9q0-1.9 1.9-1.9t1.9 1.9" fill="#ff0676" transform="translate(18.75 12.8)"/><path d="M-13-5.2q-.55-.75-.05-.55l2.7 3.15L-13-5.2m4.5-1.7q-.55-1.15.3-.15l.75 2L-8.5-6.9m5.2-4.25q0-1.65.7-.4l.15 4.15q-.7-1.9-.85-3.75m7.75 1.6q.15-.45.45-.65.4-.15.45.5.15.85-.45 2.85-.65 2.05-1.1 1.7-.6-.45.65-4.4M7.5-6q.4-.7.25 0-.1.7-1.3 2.45L7.5-6m4.9-.45q1.3-1.55.6.3-.35.8-1.5 2.1-1.25 1.4-1.35.9-.15-.7 2.25-3.3m1.95 5.1h.6q.25.2-.25.55-.6.45-2.2.9L11 .15q.15-.55 3.35-1.5m-.7 3.95q.9 0 0 .15-2.3.35-1.35-.15.25-.2 1.35 0" fill="#ffe877" transform="translate(18.75 12.8)"/><path d="m-11.9 9-.2-.5q.05-.65 1.25-1.3 3.9-2.05 3-1.35L-11.9 9M3.45 2.9q5.3.8 7.2 3.3 1 1.3.9 2.4-1.15-1.95-2.3-2.85-1.6-1.2-5.8-2.85" fill="#686767" transform="translate(18.75 12.8)"/><path d="M6.6 2.9q4.1.3 4.25 2.5-1-1.45-4.25-2.5" fill="#686767" transform="translate(18.75 12.8)"/></g></defs></svg>