<svg xmlns="http://www.w3.org/2000/svg" xmlns:xlink="http://www.w3.org/1999/xlink" width="100.7" height="92.9"><use xlink:href="#a" width="34.85" height="23.95" transform="translate(19.9 36.95)"/><defs><g id="a" fill-rule="evenodd"><path d="M22.65.9q2.3.2 2.6 1.55.4 2.1-1.3 6.1l1.75-2.9.95-.05q.7.15.85.7.2.85-1.3 2.95l4.3-5q.6-.2 1.8.5 1.35.85.65 2.1-.85 1.5-3.8 4.35l2.1-1q2.1-1.1 2.45-.95.6.3 1 1.5.4 1.35-.3 2l-3.95 1.45h2.6q.3.2.35 1.1 0 .95-.4 1.1l-4.9-.85q-9.7-.35-22 3.75Q.5 16.9.15 16.45q-.35-.55.2-2.05.55-1.6 1.5-1.4l3.9 1.6q.5.2-3.65-5.05.25-1.7 1.8-3.05Q5.2 5.3 6 5.35l4.65 4.95q.9 1-1.75-4.6l.5-.75q.6-.55.9-.3.5.4 2.35 4.35l-.55-3.5q-.6-3.7-.25-4.25.4-.75 2.6-1.25l2.6.05 1 6.95q.05.2.6-2.35.7-3.05 1.25-3.35.7-.55 2.75-.4"/><path fill="#eb662b" d="m20.45 1.9 2.05-.15q1.7.25 1.95 1.35.15.85-.95 4.25-1 3.1-.65 3.3.8.45 3.15-4.4 1.25-.1 1 .3-2.5 3.75-2 4.45.4.6 5.8-5.9.4-.25 1.1.25.8.6.25 1.6l-2.6 2.75q-2 2-1.65 2.4.85.95 5.15-2.2.55.1.95 1.05.4 1-.4 1.25l-2.05.8q-1.8.8-1.95 1.3 0 .55 2.9.4.45.9.05 1.05l-2.45-.2q-14-.25-23.65 3L.9 15.85q-.3-.4.2-1.3t1.3-.75q4.3 2.05 4.55 1.7.2-.3-1.8-3.05-2.1-2.85-2.05-3.1Q3.25 8 4.35 7.1q.85-.75 1.5-.7 4.15 5.4 5.5 5.05.85-.2-1.8-5.6l.9-.35q2.15 5.35 2.7 5.15 1.3-.4-.3-8.75.15-.65 1.7-1l1.85.1.45 4.2q.35 3.7.95 3.8 1.05.1 1.7-3.3.75-3.7.95-3.8"/><path fill="#702813" d="M5.7 18.15q-3.65-1-4.8-2.3-.35-.5.3-1.5 2.8.35 5.55 2-.3 1.2-1.05 1.8M4.35 7.1q3.55 3.85 4.6 6.4L7.1 15.55l-.15-.3L3.1 9.6q-.7-.9 1.25-2.5m7.2 4.35q.1-1.2-2-5.6l.1-.15q.45.3 1.85 4.15.8 1.4.65 2.2-.25.9-.55-.7l-.05.1m2-1.25q-.25-4-.75-7.55-.25-1.2 1.2-1.6 1.15-.2 1.45 7.2.15 1.55-.8 2.25-.95.7-1.1-.3"/><path fill="#8e3519" d="M19.85 8.85 18.7 9q-.55.05-.3-.5.9-1.65 1.2-3.45l.55-2.65q.35-.7 1.4-.75.2 1.75-1.7 7.2m3.8 1.35 2.2-3.75q.2-.55.55-.3l-2.45 4q-.55.65-.3.05m2.05.4 4.95-5.4q.8-1.2.45.05l-4.8 5.55q-.55.75-.6-.2m2.9 1.65q2.35-.8 4.4-2.35l.4.2.05.45q-.25.4-3.7 1.8-1.2.45-1.3.2l.15-.3m1.6 2.4 2.35.05.25.4-2.65-.2q-1.4-.55.05-.25"/><path d="m30.9 15.8-.9 2.65q1.25 2.2 1 3.95-6.15-3.9-11.75-3.9-5.85 0-10.5 2.75-2.35 1.35-3.5 2.7l1.3-3.25-1.5-2.25Q13.2 5.7 22.7 9.2q4.8 1.8 8.2 6.6"/><path fill="#00bbfb" d="M16.4 15.05q0 1.3-.95 2.25-.9.95-2.2.95-3.15 0-3.15-3.2 0-1.3.9-2.2.95-.95 2.25-.95t2.2.95q.95.95.95 2.2"/><path fill="#ff0676" d="M15.1 15.1q0 1.9-1.9 1.9t-1.9-1.9q0-1.9 1.9-1.9t1.9 1.9"/><path fill="#ffe877" d="M5.75 7.6q-.55-.75-.05-.55l2.7 3.15-2.65-2.6m4.5-1.7q-.55-1.15.3-.15l.75 2-1.05-1.85m5.2-4.25q0-1.65.7-.4l.15 4.15q-.7-1.9-.85-3.75m7.75 1.6q.15-.45.45-.65.4-.15.45.5.15.85-.45 2.85Q23 8 22.55 7.65q-.6-.45.65-4.4m3.05 3.55q.4-.7.25 0-.1.7-1.3 2.45l1.05-2.45m4.9-.45q1.3-1.55.6.3-.35.8-1.5 2.1-1.25 1.4-1.35.9-.15-.7 2.25-3.3m1.95 5.1h.6q.25.2-.25.55-.6.45-2.2.9l-1.5.05q.15-.55 3.35-1.5m-.7 3.95q.9 0 0 .15-2.3.35-1.35-.15.25-.2 1.35 0"/><path fill="#686767" d="m6.85 21.8-.2-.5q.05-.65 1.25-1.3 3.9-2.05 3-1.35L6.85 21.8m15.35-6.1q5.3.8 7.2 3.3 1 1.3.9 2.4-1.15-1.95-2.3-2.85-1.6-1.2-5.8-2.85"/><path fill="#686767" d="M25.35 15.7q4.1.3 4.25 2.5-1-1.45-4.25-2.5"/></g></defs></svg>