<svg xmlns="http://www.w3.org/2000/svg" xmlns:xlink="http://www.w3.org/1999/xlink" width="100.7" height="92.9"><use xlink:href="#a" width="62.95" height="28" transform="translate(4.85 44.5)"/><defs><g id="a"><path fill="#41313e" fill-rule="evenodd" d="M9.2 3.6Q11.4.95 14.9.25q3.5-.75 5.85.95 2.65 1.9 2.4 6.1 1.2 2.1-1.25 7.3-2.6 5.45-5.9 6.05 1.6 5.45-2.25 6.45l-3 .05q-1.5-.35-2-.95-2.05 2-4 1.8Q3 27.8 2 26.2t-.65-3.4q.4-1.95 2.3-2.95-5.45-2.5-2.75-6.9 1.05-1.75 2.9-2.55 1.95-.8 3.55 0-.6-3.9 1.85-6.8"/><path fill="#c089b4" fill-rule="evenodd" d="M9.5 5q1.7-2.75 4.95-3.55Q17.6.65 20 2.2q2.65 1.75 2.65 5.5.45 2.6-1.65 6.6-2.45 4.65-6.2 5.55 1.65 5.35-1.7 6.25-3.05.8-4.5-1-1.9 1.6-3.55 1.5-1.45-.05-2.15-1.25-.7-1.25-.15-2.75.6-1.65 2.5-2.75-3.05-1.25-3.8-3.3-.65-1.7.5-3.35 1.1-1.55 3.05-1.85 2.1-.3 3.8 1.2-1.2-4.4.7-7.55"/><path fill="#846c93" fill-rule="evenodd" d="M14.8 19.85q.85 2.25-.2 3.8-.9 1.4-2.55 1.45-1.7.05-2.45-1.4-.85-1.7.3-4.7-2.55-.85-3.15-2.35-.5-1.3.45-2.6.95-1.2 2.5-1.45 1.65-.3 2.85.85-1.05-3.3.4-5.65 1.3-2.05 3.8-2.6 2.5-.5 4.3.75 2 1.4 1.8 4.3.05 1.9-2.45 5.35-2.8 3.8-5.6 4.25"/><path fill="none" stroke="#41313e" stroke-linecap="round" stroke-linejoin="round" stroke-width=".75" d="M5.25 27.3q3.1-.8 2.1-3.6-.4-1.05-1.25-1.4-1-.4-2 .45-.75 1.15-.2 1.8.5.65 1.4.3 1.1-.55.2-1.4"/><path fill="#41313e" fill-rule="evenodd" d="M55.7 3.25q1.85 2.5.8 5.9 1.4-1 3.05-.45 1.6.5 2.55 1.95 2.45 3.7-2 6 1.25.75 1.4 2.25.2 1.4-.65 2.65-2.05 3.15-5.6.6-6.9 2.05-6.9-3.9-3.05.45-4.5-5-1.35-5.15-.05-6.8-.2-3.4 2.15-5 2.1-1.45 5.1-.9 3 .55 4.65 2.7"/><path fill="#c089b4" fill-rule="evenodd" d="M54.9 4.45q1.55 2.5.55 6.05 1.6-1.05 3.25-.75 1.55.3 2.3 1.45 1.95 3.05-2.75 5.2 3.45 1.95 1.8 4.55-1.65 2.6-4.65-.45-2.05 1.35-3.7 1-2.4-.55-2.2-5.05-2.3 1.6-4.75-2.65-2.5-4.3-.55-7 0-3 2.15-4.45 1.95-1.3 4.55-.7 2.65.6 4 2.8"/><path fill="none" stroke="#41313e" stroke-linecap="round" stroke-linejoin="round" stroke-width=".75" d="M58.3 22.45q-2.5-.65-1.75-2.85.75-2.25 2.55-.75.8.85.3 1.45t-1.25.25q-1-.4-.15-1.1"/><path fill="#846c93" fill-rule="evenodd" d="M49.3 3.8q2.5.55 3.75 2.6 1.45 2.35.4 5.65 1.2-1.15 2.75-.95 1.4.2 2.1 1.35 1.85 3-3.8 4.8.55 1.55-.25 2.65-.75 1-2 1.05-3.4.15-2.75-4.5-2.25 1.6-4.7-2.25-2.3-3.6-1.6-5.4-.15-2.85 1.8-4.25 1.8-1.25 4.3-.75"/><path fill="#64214b" fill-rule="evenodd" d="M44.4 2.4q1.95 1.25 1.35 3.55 1.45-.55 2.85 1.2 1.35 1.7-1.8 1.65-.3 2.45-1.45 1.25-1.15-1.25-.9-3.1-3.05-.65-3.3-2-.3-1.35 1.9-.8-.55-3 1.35-1.75"/><path fill="#e44796" fill-rule="evenodd" d="M44.55 3.7q1 1 .5 2.85 1.15-.4 2.65.7 1.45 1.1-1.2 1-.25 2-1.25 1.25-1-.8-.8-2.3-2.55-.55-2.65-1.6-.1-1.1 2.05-.6-.4-2.35.7-1.3"/><path fill="#64214b" fill-rule="evenodd" d="M23.05 8.7q-.55 3.05-1.7 3.2-1.2.1-.7-2.1-2.95.65-1.95-1.2.95-1.85 3.3-1.3-.65-1.45 1.35-2.95 1.85-1.45 1.9 1.7 2.45.25 1.05 1.55-1.4 1.3-3.25 1.1"/><path fill="#e44796" fill-rule="evenodd" d="M23.35 8.7q-.5 2.6-1.6 2.8-1.15.15-.6-2.15-2.4.4-1.3-.7Q20.95 7.5 22.6 8q-.45-1.1.7-2.6 1.1-1.45 1.15 1.1 2 .2 1.2 1.3-.8 1.05-2.3.9"/><path fill="#41313e" fill-rule="evenodd" d="M34.35 13.95q-1.1.9-1.95.7.25-2.05 0-3.2-1.65 2.45-5.2 1.35l.7-1.6q-.7-.45-1.7 1-1.05 1.45-1.35 3.45-1.55-.15-1.95-1.45-.95 2.75-.25 7.5-3.8-3.75-2.7-8.1.9-3.65 4.8-6.75 3.55-2.8 7-3.3 3.6-.5 3.85 2.25 2.15-2.1 5.35-1.05 2.95 1 5 3.95 2.15 3.1 1.65 6.2-.55 3.55-4.65 5.65 1.3-5.25-.15-8.25.25.55-2.45 1.45.3-1.4-.6-3.3-.25 2.35-4.2 2.95.5-1.65.1-2-.15 1.55-1.3 2.55"/><path fill="#c089b4" fill-rule="evenodd" d="M46.45 13.75q0 3.2-2.7 5.8l.8-3.5q.2-3.15-1.65-5.5-.35 1.2-2.05 2.35.7-3.05-1.85-4.6l-.25 2.3q-.5 1.2-2.45 2.1 1.05-2.25-.95-2.9.15 2.55-2.4 4.05.45-1.75-.3-4.05-.75 1.15-2.2 2.05-1.55.95-2.5.65 1.1-1.2.85-2.4-1.25-.65-3.1 1.3-1.85 2-1.25 3.45-1.6-1.2-.15-4.55-2.3 2.55-2.65 5-.35 2.05.6 5.4-2.4-3.9-1.05-7.8 1.15-3.3 4.55-5.65 3.1-2.2 6-2.3 3.05-.05 3.5 2.5 1.95-2.05 4.7-1.55 2.55.45 4.5 2.7 2 2.35 2 5.15"/><path fill="#ebcae6" fill-rule="evenodd" d="M33.1 8.4q-3.25 2.55-3 1.9 1.15-4.3-3.85-.3.6-1.2-.15-1.35-.9-.1-1.8 1.4-.35-.6.6-1.85 1-1.25 1.1-.7l-.45.95.8-.8q1.1-1.1 1.4-.8.3.3-.55 1.85l1.25-1.1q1.65-1.35 2.6-1 .8.45-.25 2.4 1.75-1.85 2.6-1.85.8 0-.3 1.25m11.15 1.45q2.7 7.35.25 1.7-.8-1.95-1.7-1.65l-.8.7q-2.1-4.5-4-1.85l-.55-.45q-.35-.55.85-1.1 1.85-.9 3 1.1.95 1.6 1.2 1.05.9-1.9 1.75.5M13.65 3.2Q10.6 4.5 8.9 8.6q.55-4.9 4.5-6.5 3.5-1.4 6.1.4-3.8-.2-5.85.7m-7.6 8.35q-3.1 1.2-3.7 3.6-.3 1.2-.1 1.95-1.55-2.15.4-4.15 1.8-1.9 3.4-1.4M45.95 3q1.9-1.7 4.45-1.2l-1.55.1q-1.75.3-2.9 1.1m10.15 7.6q.65-.6 1.9-.6 1.2 0 1.4.55-2.15-.4-3.3.05"/><path fill="#846c93" fill-rule="evenodd" d="M35.2 7.45q2.05-2.5 4.25-1.6-2.3.45-4.25 1.6m8.9 11.75q3.25-3.55.7-10.25 1.35 1.4 1.6 4.05.35 3.5-2.3 6.2m-3.25-6.3 2.05-2.35q-.4 1.4-2.05 2.35m-4.55-.2q1.5-1.4 2.25-3.1L39 8.4q.65 3.15-2.7 4.3m-3.35 1.15q1.75-1.9 2.4-4.05.3 2.75-2.4 4.05m-5-1.35q2.15-.6 4.7-2.7-.15.7-1.85 1.9-1.85 1.35-2.85.8m-3.5 2.35q-.7-1.15.45-3.2 1.15-2.15 2.85-1.55-1 .1-2.3 1.7-1.45 1.7-1 3.05m-2.2 5.85q-1.45-1.7-.9-5.55.55-4.05 2.85-4.7l-2 2.95q-1.15 2.85.05 7.3"/><path fill="#9f3370" fill-rule="evenodd" d="M22.85 8.15q-.35 0-.1-.85.25-.8.65-.5.45.35.1.75l.4-.25q.15.15-.3.5l-.75.35M44.9 6.9q1.8.05 1.3.65-.3.35-.65.1l.1.35-.45-.35-.3-.75"/><path fill="#9f3370" fill-rule="evenodd" d="M21.35 8.55q1.15-.7 1.3-.15.15.45-.9.7-.75-.25-.4-.55m23.2-3.1q.9 1.05.2 1.3-.45.15-.75-.9.5.15.55-.4"/></g></defs></svg>