<svg xmlns:xlink="http://www.w3.org/1999/xlink" height="92.9" width="100.7" xmlns="http://www.w3.org/2000/svg"><g transform="translate(38.65 49.75)"><use height="20.4" transform="translate(-20.55 -5.2)" width="38.7" xlink:href="#a"/><use height="10.5" transform="translate(-10.4 -4.15)" width="18.4" xlink:href="#b"/><use height="7.2" transform="translate(-19.25 6.65)" width="8.15" xlink:href="#c"/><use height="2.6" transform="translate(1.35 1.35)" width="4" xlink:href="#d"/><use height="10.55" transform="translate(-8.05 -4.05)" width="16.05" xlink:href="#e"/><use height="8.85" transform="translate(-10.05 -4.05)" width="7.75" xlink:href="#f"/><use height="8.55" transform="translate(-10.4 1.25)" width="27.55" xlink:href="#g"/><use height="6.8" transform="translate(-10.2 2.6)" width="27.05" xlink:href="#h"/></g><defs><use height="20.4" width="38.7" xlink:href="#i" id="a"/><use height="10.5" width="18.4" xlink:href="#j" id="b"/><use height="7.2" width="8.15" xlink:href="#k" id="c"/><use height="2.6" width="4" xlink:href="#l" id="d"/><use height="10.55" width="16.05" xlink:href="#m" id="e"/><use height="8.85" width="7.75" xlink:href="#n" id="f"/><use height="8.55" width="27.55" xlink:href="#o" id="g"/><use height="6.8" width="27.05" xlink:href="#p" id="h"/><path d="M18.4 7.65Q14.65 10.1 7.85 10.5L0 10q-.15-4.9 2.65-7.6Q5.1.05 8.95 0q3.7 0 6.45 2.05 2.95 2.2 3 5.6m-7.35.8.25.25 2.3.15q1.55-.25 2.35-.9.65-.45.55-1.1Q15.85 4.4 13.35 5l-.1.05q-2.65.65-2.2 3.4" fill="#337000" fill-rule="evenodd" id="j"/><path d="M6.95 3.75q-1.7 2.8-2.2 4.45Q1 6.65 0 2.15q4.7.1 7.85-1.15l.3.95-1.2 1.8" fill="#002100" fill-rule="evenodd" transform="translate(0 -1)" id="k"/><path d="M.05 2.6Q-.25.7 1.75.1 3.55-.3 4 1.4q.15.7-1.55 1.15l-2.4.05" fill="#002100" fill-rule="evenodd" id="l"/><path d="M13.7 2.45q2.3 2.1 2.35 5.1Q10.3 11.35 0 10.3q5.1-1.95 7.2-4.55 1.25-1.5 1.65-3.25Q9.2.75 8.4 0q3.15.5 5.3 2.45m-.1 5.4q.65-.45.55-1.1Q13.5 4.3 11 4.9l-.1.05q-2.65.65-2.2 3.4l.25.25 2.3.15q1.55-.25 2.35-.9" fill="#1c5200" fill-rule="evenodd" id="m"/><path d="M3.1 5.4Q1.5 7.85 0 8.85 1.35 1 7.75 0 5.35 1.85 3.1 5.4" fill="#96b380" fill-rule="evenodd" id="n"/><path d="M22.75 3.7q3.3-.05 4.5 2.65-1.5.8-3.7.65l-1.6-.3.05-.05q.6-.75-1.25-2.7l2-.25M22 3.05l-1.8.3-.2-.2q.45-1.3 2.45-2.3 2.7-1.35 5.1-.5-.55 1.75-2.8 3.1L22 3.05M7.95 6q6.85-.45 10.85-2.75 1.8 1.6 2.3 2.9-2.95 2.1-10.45 2.35Q2.85 8.8 0 6.45l.45-.65 7.5.2" fill="#a6b817" fill-rule="evenodd" id="o"/><path d="M27.05 5q-1.5.8-3.7.65l-1.6-.3.05-.05q.6-.75-1.25-2.7l2.05-.25L23 4q2.6.3 4 .95l.05.05m-5-4.35h-.65l.65.1 3.85.3-1.3 1.05-2.8-.4-1.75.3-.25-.2q.35-.95 1.65-1.8l.6.65m-14.3 4q6.8-.45 10.8-2.75 1.85 1.65 2.35 2.9-1.85 1.35-6.5 2 1.5-1.65 1.6-2.15-10.65 2.1-16 .2l.3-.4 7.45.2" fill="#4d6900" fill-rule="evenodd" id="p"/><g id="i" fill-rule="evenodd"><path d="M29.75 8.25 31 7.1q3.2-2.25 7.1-.85.4.2.3.5-.15 1.6-2.9 3.35 1.75.8 3.05 2.6.3.3 0 .55-1.2 1.5-5.45 1.1l-2.05-.4-3.35 1.1-6.65.95q-8.2.2-11.25-2.05l.8-1.2.3-.45q2.65.45 7.2.15 7.4-.5 11.45-3.15l.2-.15v-.9" fill="#000d1c"/><path d="M29.75 8.25v.9l-.2.15q-4.05 2.65-11.45 3.15-4.55.3-7.2-.15l-.3.45-.8 1.2q-2.45 3.7-3.2 6.15l-.3.3h-.4Q1.1 18.2 0 12.8l.1-.4q.15-.2.4-.2 4.95.15 8.45-1.1-.1-6.6 4.55-9.45Q18.95-1.6 25 1.6q4.35 2.4 4.75 6.65" fill="#00081c"/></g></defs></svg>