<svg xmlns="http://www.w3.org/2000/svg" xmlns:xlink="http://www.w3.org/1999/xlink" width="100.7" height="92.9"><use xlink:href="#a" width="45.85" height="34.05" transform="translate(14.35 38.8)"/><defs><g id="a" fill-rule="evenodd"><path fill="#3a0c07" d="m8.25 23.8 1.05.1-.25 1.15h.05l-.45 1.1-.25.25-.35.55q-.7.8-1.8 1.2-2.8 1.1-4.1-.95-.6-1.2.35-2t1.65.75q-.4-2.25-1.65-1.85-1.2.35-1.35 2.5l.05.4.4 1.2.7.75q.65.45 1.45.5l1.85-.3.1.45q-.05.55-.55 1.15l-.7.5L3 31.7h-.65l.5.5q.85.65 2.25.75l1.25-.05 1.9-.7 1.3-.9 1.8-2.75q.7-2 .45-4.7l.9 1.35.2.25q-.15 6.4-5 8.2l-4 .15q-2-.55-2.85-2.15l.05-.55.5-.2q1.25.25 2.35-.55-1.75.1-2.8-.8Q-.35 28.3.1 26.6q.15-2.45 2.2-3.25 1.15-.45 1.9.2.9.8.35 2.85-.1.45-.5.35l-.45-.4q-.15-.65-.45-.75l-.4.2q-.3.45-.05 1.05.5.95 2.3.6 2.55-.6 3.25-3.65m24.75.7 1-.55q.1 4.15 2.95 6.2l.25.15 1.8.85h.1l.9.15q2.35.25 3.55-1.2-1.95 0-2.85-.95-.65-.8-.45-1.6 2.1.65 3.35-.25 1.05-.8 1.1-2.35-.1-2.15-1.3-2.5-1.25-.4-1.65 1.9.65-1.55 1.6-.75.95.75.4 2l-.1.2q-1.1 1.35-3.3.9-2.5-.5-3.45-3.1l-.2-.7-.1-.65-.05-.15.9-.05h.15q.65 3.2 3.3 3.75 1.75.4 2.25-.6.35-.6-.05-1.05-.15-.25-.4-.15-.25 0-.4.75l-.5.4-.5-.35q-.55-2.05.4-2.9.75-.65 1.85-.2 2.05.75 2.25 3.3.35 1.7-1.05 2.9-1.2.95-2.85.85 1.3.8 2.35.55.35-.1.5.15l.05.55q-.85 1.6-2.8 2.2l-4-.15q-4.6-1.65-5-7.55"/><path fill="#ff7900" d="m34 23.95.05-.05.2 1.55.85-1.3.45-.55q1.5 4.1 3.7 5.25L35.8 29l1.15 1.15Q34.1 28.1 34 23.95m1.1.2-.75 1.7q-.05.35.65 1.3.4.55 2.1 1.35-1.4-1.1-1.95-4.1l-.05-.25m-27.05 2.8-1.2 1.45q3.65-2.05 3.85-3.9l-.8.4.1.2-1.35 1.05.45-1.1q1.15-.3 2.1-.95.4 4.7-4.7 7.65.7-2 0-3.2l-4.4.2q.7.6 1.65.7-.8-.05-1.45-.5l-.7-.75q-.5-1 .4-2.6t1.75-.5l-.15-.2q.2-.75-1.1-.75-.55.05-.9.95-.45 1.05-.4 1.9l-.05-.4q.15-2.15 1.35-2.5 1.25-.4 1.65 1.85-.7-1.55-1.65-.75t-.35 2q1.3 2.05 4.1.95 1.1-.4 1.8-1.2m-1.7 5.95-1.25.05q-1.4-.1-2.25-.75.8.6 2.05.7h1.45"/><path fill="#bc3506" d="M9.3 23.9q1.05-.15 2-1.1l.5 1.05q.25 2.7-.45 4.7l-1.8 2.75-1.3.9-1.9.7H4.9q-1.25-.1-2.05-.7l-.5-.5H3l1.45-.45.7-.5q.5-.6.55-1.15l-.1-.45-1.85.3q-.95-.1-1.65-.7l4.4-.2q.7 1.2 0 3.2 5.1-2.95 4.7-7.65-.95.65-2.1.95h-.05l.25-1.15m24.75 0q1.1-.85 1.75-2.15.2.3.75.35l.05.15.1.65.2.7q.95 2.6 3.45 3.1 2.2.45 3.3-.9l.1-.2q.55-1.25-.4-2-.95-.8-1.6.75.4-2.3 1.65-1.9 1.2.35 1.3 2.5-.05 1.55-1.1 2.35-1.25.9-3.35.25-.2.8.45 1.6.9.95 2.85.95-1.2 1.45-3.55 1.2l-.9-.15H39l-1.8-.85-.25-.15L35.8 29l3.45-.15q-2.2-1.15-3.7-5.25l-.45.55-.85 1.3-.2-1.55"/><path fill="#00141c" d="m26.5 7.05-.1-.55-.5-.25-.15.75q-.5.75-1.55 1.25l-.55.25.05-.3q.35-2.1-.35-4.45l-.9-2.05-.05-.05-.05-.05h-.1l-1 .1-.65.5.05.3q-.1.35.3.6l.1.1.35.35.5.8.05.1.15.4.05.15.1.45q.45 1.7.05 2.75l-.1.2q-1.45-1.15-2.55-.65-.6 0-.8.4l-.05.7q-.05.95.45 1.3l1.2.1.55-.2q-.35.8-.3 1.3-.05.7.7.7l.25-.05q1.7-.25 1.55-1.55 1.65 2.2 2.45 1.05.6-.9 0-1.7l-.45-.45.3-.05q1-.3 1.35-.7.3-.45 0-1.05l-.15-.35v.1l-.2-.25M8.25 23.8l-1.2-.65q-2.6-1.85-.45-4.85l.5-.2q.3 0 .4.35.25.9.7.9 1.1.1 1.95-1.95l.3-.65q2.6-5.25 6.85-7.3V8.4q.25-1.15.95-1.3 1.15-.45 3.4.5l.15-.6q0-2.65-1.95-4.05-.55-.25-.55-.9l.15-.7q1.35-2.05 3.3-1l.15.15.9 1.55q.8 1.9.8 3.95l-.1 1.1q.75-.5 1-1.25.25-.65.9-.5 1.55.35 1.65 2.35l-.25 1 1.2.15q5.9 1.75 7.85 6.85.45 1.3 1.05 1.3.4.1 1-.95l.4-.3q.3 0 .45.25 2.3 3.35-.25 5.2-.8.6-1.9.85h-.15l-.9.05q-.55-.05-.75-.35-.65 1.3-1.75 2.15l-.05.05-1 .55-1.05.3q-.4.15-.6-.3v-.15q0-.35.25-.45.95-.45.95-2.6l-.1-.8q-.85 2-2.9 2.55l-.5-.1-.15-.35v-.15l.15-1-.35-2.25q-1 5.4-5.65 6.6l-.45-.1-.15-.35v-.45q0-1.2-1.5-2.8l-1.9-2.5q-.75 1.1-.75 3.35l-.05.4-.2.4-.45.05q-1-.3-1.65-1.9l-.25-1.4q-.6 1.6-.6 3l.2 2.35.1.5v.05l-.1.3q-.2.2-.35.2-.75.05-2.05-1.45l-.2-.25-.9-1.35-.5-1.05q-.95.95-2 1.1l-1.05-.1m20-13.7v-.05l-1.7-.15.35 1.2-.05.55q-.2.95-1.1 1.2-.75.1-1.6-.6l-.65-.6q-.45.75-1.25 1.15l-.25.1q-1.15.5-1.85-.2-.4-.4-.4-1.1l.05-.2.1-.55q-1.1.2-1.75-.35h-.05l-.5.25-.55.2h.05l-1 .55-1.85 1.45-3 4.25q-.95 1.75-2.1 2.65-1.45 1.2-2-.45-1 1.85.4 2.7l1.15.5q1.25.25 2.35-.6l-.2-1.3q0-1.1.35-2.1h.45q-.25 1.55 0 2.85l.15.7q.35 1.15 1.1 2.15l1.35 1.3.2.15-.2-.55q-.4-1.4-.1-3.05.2-1.6 1.1-2.7l.1-.15.85-.85.2-.2-.05.55v.2l.35 2.3.9 1.7v-.25q.2-3.2 1.5-4.4l.2-.2.2-.15.05.25q.2.95 1.75 2.55 1.7 1.8 1.8 4.2 4.45-2.3 5.2-6.95l.1-.85.95 1.05.45 1.25.1.7q.1 1.05-.2 1.8 2.35-.6 2.7-2.85l.05-.7v-.35l.15.4.35.95.3.85.1.35q.2 1.1-.4 2.35l-.55.9.55-.35 1.1-.8v-.05l1.25-1.5.25-.5.7-2.3.25.25-.1.95-.25 1.15 2.2-.3q2.05-.75.55-3.3-1.6 2.7-3.2-1.1-1.8-4.45-7.2-5.95h-.25"/><path fill="#33a02c" d="m26.5 7.05.2.25-1.15 1.15-.45.15-.5 1.1-.1.15q-.5.15-.9-.25l-.35-.45-.1.4q-.4 1.05-.9.85l-.35-.75-.15-.4-.45-.15q.65-.05 1-.65l-.1-.05.1-.2q.4-1.05-.05-2.75l-.1-.45.6 2.2q0-1.6-.25-2.8-.4-2.25-.1-2.65v-.1l.05.05.9 2.05q.7 2.35.35 4.45l-.05.3.55-.25q1.05-.5 1.55-1.25-.4 1-1.6 1.65 2.3-.5 2.35-1.6m-6.05 3.2-1.2-.1q-.5-.35-.45-1.3l.05-.7q.2-.4.8-.4l-.55.35-.25.15.5.3-.5-.15v.45q-.05.9.45 1.25l1.15.15m1.45-5.9-.5-.8.15.1.35.7m-.85-1.15-.1-.1q-.4-.25-.3-.6l.4.7m7.2 6.9h.25q5.4 1.5 7.2 5.95 1.6 3.8 3.2 1.1 1.5 2.55-.55 3.3 1.35-.55 1.05-2.1-1.25 1.65-3 1.25l.1-.95-.25-.25v-.3l-.2-.3-.15-.25v.05L34.75 20l-.25.45-.15.3v-.45l-.2-.8q-.45-1.55-2.1-3.25 0 1-.35 1.85l-.3.65-1.1 1.15-.2-1.5-.55-.95q-.8-1.1-2.5-1.85l-.1 1.4-.2.9q-.65 2.85-2.95 4.75l-.35.25.3-.4-2.65-3.15-.75-1.2-.3-1.05q-.2-.9.05-1.85l-1.75 2.1-.7 1.3q-.5 1.15-.55 2.35l-.75-1.65.35 1.95-.35-2.3v-.2l.05-.55-.2.2v-.05l-.05-.5-.05-1.65q-1.15 1.25-1.9 2.55l-.8 1.65q-.75 1.85-.5 3.7l1.35 1.45-1.35-1.3q-.75-1-1.1-2.15l-.15-.7q-.25-1.3 0-2.85h-.45q-.35 1-.35 2.1-1.4 1-3.75.55l-.15-.05.6.9q-1.4-.85-.4-2.7.55 1.65 2 .45 1.15-.9 2.1-2.65l3-4.25 1.85-1.45 1-.55q.85.5 2.7.45l-.05.2q0 .7.4 1.1.7.7 1.85.2 1 .5 2.15-.65.75.7 2 .7 1.2 0 1.95-.7.7-.75.15-2.15m-8.95 8.05-.2.2q-1.3 1.2-1.5 4.4l.05-1q.15-2.35 1.45-3.4l.2-.2m-3.95 1.15-.1.15q-.9 1.1-1.1 2.7-.3 1.65.1 3.05-1.05-3.4.95-5.75l.15-.15m-4.3 2.7q-1.1.85-2.35.6h.4q1.05 0 1.95-.6m19.25-9.2q-.4.5-.4 2.2l-2.2-1.65.45 1.45 1.1.8q.7.65 1.2 2 1.25-2.15.75-3.5 1.9.35 2.8 1.05-.05-1.6-2.9-3.75l.25.2-1.05 1.2m-4 .5L24.35 16q-.1-1.4-.45-1.8-1.05 1.05-1.75.15-.5 2.25 2.1 5.25 0-1.15 1-2.6 1.1-1.85 1.05-3.7m-7.8-.15q-1.45 2.05-1.45 4.6.45-1.1 1.7-2.15l2.15-1.75-2.1.85q-.1-1.1.45-2.1-.5.15-.65.65l-.1-.1m-2.4-1.65q-2.45 1.85-4.25 4.9l-1.75 2.8q.85-1.15 4-3.2 2.75-1.85 3.55-3.5l-1.95.9-1.55 1.05 1.95-2.8v-.15"/><path fill="#006e00" d="M26.7 7.3v-.1l.15.35q.3.6 0 1.05-.35.4-1.35.7l-.3.05.45.45q.6.8 0 1.7-.8 1.15-2.45-1.05.15 1.3-1.55 1.55l-.25.05q-.75 0-.7-.7-.05-.5.3-1.3l-.55.2-1.15-.15q-.5-.35-.45-1.25V8.4l.5.15q1.15.6 1.95.55l.45.15.15.4.35.75q.5.2.9-.85l.1-.4.35.45q.4.4.9.25l.1-.15.5-1.1.45-.15L26.7 7.3M22 12.9l.25-.1q.8-.4 1.25-1.15l.65.6q.85.7 1.6.6.9-.25 1.1-1.2l.05-.55-.35-1.2 1.7.15v.05q.55 1.4-.15 2.15-.75.7-1.95.7-1.25 0-2-.7Q23 13.4 22 12.9m16.35 7.55-2.2.3.25-1.15q1.75.4 3-1.25.3 1.55-1.05 2.1m-2.1-2.05-.7 2.3-.25.5-1.25 1.5v.05l-1.1.8-.55.35.55-.9q.6-1.25.4-2.35l-.1-.35-.3-.85-.35-.95-.15-.4v.35l-.05.7q-.35 2.25-2.7 2.85.3-.75.2-1.8l-.1-.7-.45-1.25-.95-1.05-.1.85q-.75 4.65-5.2 6.95-.1-2.4-1.8-4.2-1.55-1.6-1.75-2.55L19.5 18l-.2.15-.2.2q-1.3 1.05-1.45 3.4l-.05 1V23l-.9-1.7-.35-1.95.75 1.65q.05-1.2.55-2.35l.7-1.3 1.75-2.1q-.25.95-.05 1.85l.3 1.05.75 1.2 2.65 3.15-.3.4.35-.25q2.3-1.9 2.95-4.75l.2-.9.1-1.4q1.7.75 2.5 1.85l.55.95.2 1.5 1.1-1.15.3-.65q.35-.85.35-1.85 1.65 1.7 2.1 3.25l.2.8v.45l.15-.3.25-.45 1.15-2.4v-.05l.15.25.2.3v.3m-20.05.05-.85.85-.15.15q-2 2.35-.95 5.75l.2.55-.2-.15-1.35-1.45q-.25-1.85.5-3.7l.8-1.65q.75-1.3 1.9-2.55l.05 1.65.05.5v.05m-5.35 2.25.2 1.3q-.9.6-1.95.6h-.4l-1.15-.5-.6-.9.15.05q2.35.45 3.75-.55m6.25-9.75h-.05l.55-.2.5-.25h.05q.65.55 1.75.35l-.1.55q-1.85.05-2.7-.45"/><path fill="#77f969" d="m25.75 7 .15-.75.5.25.1.55q-.05 1.1-2.35 1.6Q25.35 8 25.75 7m-6.1.75q1.1-.5 2.55.65l.1.05q-.35.6-1 .65-.8.05-1.95-.55l-.5-.3.25-.15.55-.35M22.15 5l-.05-.15-.15-.4-.05-.1-.35-.7-.15-.1-.35-.35-.4-.7-.05-.3.65-.5 1-.1h.1l.05.05v.1q-.3.4.1 2.65.25 1.2.25 2.8l-.6-2.2m8.15 7.8 1.05-1.2-.25-.2q2.85 2.15 2.9 3.75-.9-.7-2.8-1.05.5 1.35-.75 3.5-.5-1.35-1.2-2l-1.1-.8-.45-1.45L29.9 15q0-1.7.4-2.2m-4 .5q.05 1.85-1.05 3.7-1 1.45-1 2.6-2.6-3-2.1-5.25.7.9 1.75-.15.35.4.45 1.8l1.95-2.7m-7.8-.15.1.1q.15-.5.65-.65-.55 1-.45 2.1l2.1-.85-2.15 1.75q-1.25 1.05-1.7 2.15 0-2.55 1.45-4.6m-2.4-1.65v.15l-1.95 2.8 1.55-1.05 1.95-.9q-.8 1.65-3.55 3.5-3.15 2.05-4 3.2l1.75-2.8q1.8-3.05 4.25-4.9"/><path fill="#ffe2cc" d="M8.65 26.15 10 25.1l-.1-.2.8-.4q-.2 1.85-3.85 3.9l1.2-1.45.35-.55.25-.25M1.2 27q-.05-.85.4-1.9.35-.9.9-.95 1.3 0 1.1.75l.15.2Q2.9 24 2 25.6t-.4 2.6L1.2 27"/><path fill="#ffcda4" d="m35.1 24.15.05.25q.55 3 1.95 4.1-1.7-.8-2.1-1.35-.7-.95-.65-1.3l.75-1.7"/></g></defs></svg>