<svg xmlns:xlink="http://www.w3.org/1999/xlink" height="92.9" width="100.7" xmlns="http://www.w3.org/2000/svg"><use height="37.3" transform="translate(18.2 32.15)" width="39.4" xlink:href="#a"/><defs><g id="a" fill-rule="evenodd"><path d="m3.2-16.35.15 3.55-.15 2.2.1-.3q.1-.4.45-.4.45 0 .5.3 1.5 3.6-.85 5.3Q2.15-4.4.1-3.9l-3.75-.2-.15-.1-.2-.1q-4.05-2.05-1.55-7.8l.5-.3q.35.1.4.4l.35 1.2q.55 1.9 1 2.5l-.1-.65q0-4.2 5.75-8.6l.5-.05.3.45.05.8m-18.5 16 .35-.25.4.1Q-13.2.7-11.3.95l2.05-.2 2.2-1.45Q-4.4-2.15-1.5-2.3 4.65-2.75 8.65-.5 11 .8 13.5 3.95q2.75 3.25 4.95 3 .35 0 .5.25l-.05.55q-1.1 1.45-2.85 2.1-2.25.9-4.35-.3l-.1-.15Q7.95 4.8-.4 4.85q-4.3.3-8.2 3.15-2.7 1.95-3.75 3.7-1.25 2.1-3.35 2.4-2.6.5-4.55-1.2l-.2-.35v-.15l.4-.35q1.95-.45 2.8-3.05 1.2-3.45 3.8-5Q-15.4 2.45-15.4.2l.1-.55" fill="#153060" transform="translate(20.45 17.6)"/><path d="M10.5 5.05q1.45.85 2.75 3.25 1.35 2.8 4.3 3.75.25.05.35.45l-.3.5q-4.1 2.1-8.25-1.3-.45 4.05-2.85 6.45l-.55.1q-.3-.15-.3-.45v-.45q0-6.15-3.3-9.3-.8 6.25-3.6 9.4l-.55.15-.3-.5v-.6q0-1.75-.65-5.2l-.5-3.45q-5.3 4.15-5.3 8.5l.15 1.95.1.95.05.05q0 .3-.3.4l-.6-.1q-4.15-3.7-4-7.45.05-2.1 1.35-3.9.8-1.15 1.4-1.55Q-1.25-.5 10 4.8l.5.25" fill="#153060" transform="translate(20.45 17.6)"/><path d="M1.8 2.05q2.8.2 7.15 2.2 2.25 1.3 3.6 4.6 1.2 2.95 3.75 3.75-2.55.85-5.15-.85L9 9.85q-.35 3.95-2.35 6.45.05-4.6-2.55-8.05L1.45 5.7q.2 1.1-.5 4.5-.8 4.1-2.15 5.65.1-2-.8-5.35-.85-3.1-.7-4.2-7.4 4.15-6.45 12.1-4.05-4.05-2.55-8.7.5-1.5 1.45-2.85l.85-1.05Q-4 1.5 1.8 2.05" fill="#67c6dd" transform="translate(20.45 17.6)"/><path d="M-11.4 15.25q-.05-6.7 9.15-10.3 0 .5-.9 1.65-6.95 4.2-6 11.8-1.55-1.55-2.25-3.15m21.9-5.5Q12 11.5 14 11.3q1.05.95 2.3 1.3-2.55.85-5.15-.85L9 9.85q-.35 3.95-2.35 6.45.05-4.6-2.55-8.05L1.45 5.7q.2 1.1-.5 4.5-.8 4.1-2.15 5.65.05-1.35-.3-3.25 1.05-1.2 1.45-3.4L.5 5q3.45.35 6.6 5 .5-1.4.6-3.25l2.8 3" fill="#1f7da6" transform="translate(20.45 17.6)"/><path d="M-6.85.6Q-4.1-.75-1.45-.9 6.65-1.45 11 3.15l2.85 3.15q1.55 1.4 3.45 1.15-2.8 3.5-6.15 1.55Q7.7 4.45-.55 4.55q-4.4.3-8.35 3.1-2.35 1.65-3.55 3.3-1.5 2-3.75 2.25-1.8.2-2.8-.65 2.1-.45 3.1-3.45 1.15-3.4 3.9-4.85Q-14.05 2.7-14.25.6q1.2 1.6 3.1 1.8 1.6.15 2.05-.45L-6.85.6" fill="#67c6dd" transform="translate(20.45 17.6)"/><path d="M-10.25 6.95q-1.3.4-1.7 1.55l-.35 2.25-.15.2q-1.5 2-3.75 2.25-1.8.2-2.8-.65l1.35-.55Q-16 11.8-14 9.3q1.9-2.35 3.75-2.35M-14 1.75l3.85 2-1.9.4Q-13.5 3.1-14 1.75m30.5 5.7h.8q-1.75 2.2-4.15 2.15-1.4-.9-1.4-3.65 1 2.95 4.75 1.5" fill="#1f7da6" transform="translate(20.45 17.6)"/><path d="M1.5-8.3q.4.2 1.1-.35.7-.5.9-1.15.95 2.25-1.15 3.7-2.55 2.7-5.4 1.3-1-.45-1.7-1.4-1.4-1.75-.25-4.7.4 3.5 2.55 3.95l.3-2.55q.75-3.2 4.1-5.85.4 5.9-.45 7.05" fill="#67c6dd" transform="translate(20.45 17.6)"/><path d="M3.65-9.3q.5 1.9-1.3 3.2Q.7-4.35-1.8-4.5q-2.85-2.15-3.35-6l.15-.4q.4 3.5 2.55 3.95l.35-2.7q.3 1.5 1.25 2.85.7-1.3 1.5-3.95.8-2.85 1.35-4 .35 5.3-.5 6.45l.15.05-.9 1.2q2.55 0 2.9-2.25" fill="#1f7da6" transform="translate(20.45 17.6)"/><path d="M2.6-5.05q.9 2.4.1 3.55-.2.35-.8.2-1.85-.35-5.2.1l-.45-.15q-.3-.3-.15-1.95l.05-.35q0-.4.75-.9 2.8-1.85 5.4-.8l.3.3" fill="#153060" transform="translate(20.45 17.6)"/><path d="m1.6-2.45-4.25.3V-3.6l1.3-.85 2.85-.1q.55 1.5.1 2.1" fill="#67c6dd" transform="translate(20.45 17.6)"/><path d="M1.5-4.55q.55 1.5.1 2.1l-4.25.3-.1-.55 2.2-.55q1.45-.2 2.05-1.3m-13.55 8.7L-14 1.75l1.1.95q1.4.95 2.75 1.05-1.2.6-1.9.4" fill="#1f7da6" transform="translate(20.45 17.6)"/><path d="m1.85-15.35-.5.7-1.6 2.9q-1.2 2.1-1.35 3.5l-.2-1.05q-.1-.5.35-1.7.55-1.4 1.5-2.35l1.3-1.3.2-.55.3-.15m-7.2 5.25.35-.3q-.3.95.05 2.55.3 1.5.9 2.25-1.65-1.3-1.3-4.5" fill="#dff5f7" transform="translate(20.45 17.6)"/><path d="m1.25-4.6-.1.3L-.1-4q-1.9.65-2.3 1.8-.15-1.7.25-2.05 1.05-.9 3.4-.35" fill="#bfe8ef" transform="translate(20.45 17.6)"/><path d="m-14.2 1.05-.2-.4q2.45 2.7 4.55 2.05l-2.45-.05q-1.3-.55-1.9-1.6m.95 4.05v-.15l1.4-.1 2.45-.05q-2.6 1.8-3.3 1.9.35-.65 1.35-1.15-1.2.45-2.05 1.3l-2.55 3.25q0-2.6 2.7-5M2.9 1.85l2.6-.3Q3.3 3.1 0 3.1q-1.6 0-2.45.45l-1.45.5q1.5-1.3 1.55-1.75Q-3.6 3.55-5.9 4.4q.35-1.1 1.1-2.25L-8.3 4.2l.9-1.75Q-5.9 1.5-5.45.7q1.75.85 3.5 1.15H2.9" fill="#dff5f7" transform="translate(20.45 17.6)"/><path d="M7.1 2.1q.75.45 1.15 1.25-1.9-.7-2.9-.85-1.6-.35-1.95-.65l1.65-.45Q6.1 1 6.3.3V.15l2.5 1.5 1.25 1.8Q8.15 2.15 7.1 2.1" fill="#dff5f7" transform="translate(20.45 17.6)"/></g></defs></svg>