<svg xmlns:xlink="http://www.w3.org/1999/xlink" height="92.9" width="100.7" xmlns="http://www.w3.org/2000/svg"><use height="17.8" transform="translate(21.15 44.05)" width="34.15" xlink:href="#a"/><defs><g id="a" fill-rule="evenodd"><path d="m-17 8.25 3.3-1.2q2.8-.85 3.2-.6.3.2.1.65l-2.25 4.75q-.15.35-.5.25-.9-.1-2.4-.9-1.7-.95-1.9-1.8-.15-.7.45-1.15" fill="#351e02" transform="translate(17.5 5.7)"/><path d="M-13.35 10.85q-.75-.1-1.85-.8-1.15-.8-.55-1.2l3.9-1.15-1.5 3.15" fill="#a14a0d" transform="translate(17.5 5.7)"/><path d="M9.65 4.1q.4-.25 3.2.6 2.6.75 3.3 1.2.6.45.45 1.15-.2.85-1.9 1.8-1.5.8-2.4.9-.4.1-.5-.25L9.55 4.75q-.25-.4.1-.65" fill="#351e02" transform="translate(17.5 5.7)"/><path d="m12.5 8.45-1.45-3.1 3.85 1.2q.55.35-.6 1.1-1.05.7-1.8.8" fill="#a14a0d" transform="translate(17.5 5.7)"/><path d="m6.45-3.95.25.35Q7.4.3 8.2 2.35q7.35 3 7.35 3.35l.3.4v.05l-.35.45L11 8.3Q5.35 10.7-.5 10.7l-10.3-1.2-5.7-.45q-.4.1-.5-.3l-.05-.2.25-.4 7.4-4.8q.6-2.45.8-5.15l.2-.35q6.85-6 14.85-1.8" fill="#351e02" transform="translate(17.5 5.7)"/><path d="M-7.2-1.25Q-1.4-6.4 5.45-2.8 5.9.3 6.65 2.25q2.4 1.1 6.65 3.5L7.2 8.1Q3.9 9.3-.5 9.3l-8.6-1-5.05-.45 6.4-4.8.55-4.3" fill="#f9c00d" transform="translate(17.5 5.7)"/><path d="M-13.75 7.85q1.6-.8 4.2-.9 3.05-.1 4.45 1.15l-4.3.15-4.35-.4M-9.4 6l2.85-.65q2.15-.25 2.7.4l-4.75.45-.8-.2M2.9 3.3l-.6.55-3.8.1Q1 3.1 2.9 3.3" fill="#cf7a00" transform="translate(17.5 5.7)"/><path d="m4.45-3.25 1 .45Q5.9.3 6.65 2.25q2.4 1.1 6.65 3.5L7.2 8.1Q3.9 9.3-.5 9.3l-6.95-.7 1.5-.1q1.1-.05 5-1.3Q.95 6.55 3 6.5q2.35-.15 2.95-.6L.75 4.85l1.7-.25 2.85.15 2.75-.2Q5.4 3.5 4.15 3.4q.65-2.75.3-6.65" fill="#cf7a00" transform="translate(17.5 5.7)"/><path d="m7.65-.1.15.05 1.15 3-.8-.1Q.5 2.1-9.3 3.85l-.75.15.55-2.65.15-.1Q-7.2-.8-1-1.2q6.1-.4 8.65 1.1" fill="#351500" transform="translate(17.5 5.7)"/><path d="m6.9.5.7 1.4q-2.75-.4-8.1-.05-5 .3-7.7.95l.2-1.25Q-6.4.45-.95.1L6.9.5" fill="#50ceff" transform="translate(17.5 5.7)"/><path d="m6.9.5.7 1.4-3.35-.2.2-1.6L6.9.5" fill="#006bbd" transform="translate(17.5 5.7)"/><path d="M-3.15-2.85Q-6.2-1.4-6.9-1.25L-4-3.5q2.05-1 3.65-.5.75-.25 1.45.35l-4.25.8M-6.1 3.8l.45.15q-.55.5-1.7.8l-2.9.65q1.3-1.6 4.15-1.6m-3.4 2.1 1.2.25-2.1.75-2.55.4 1.6-1.1q.8-.5 1.85-.3m9.15-1.1q-.65 1.5-4 .05 1.45-.95 4-.05M-4.7-1.45l1.65-.9 1.95-.15 1.4.35q-4.2 1.5-5 .7m1.45 8.15.95.2-1.9.7q-1.8.35-2.75-.8l3.7-.1" fill="#fff" transform="translate(17.5 5.7)"/><path d="m-3.05.35 2-.25Q-3.2 1.8-4.4 2.2l-3.6.45q-.3-1.1.3-1.45l1.6-.35 3.05-.5" fill="#ccf0ff" transform="translate(17.5 5.7)"/></g></defs></svg>