<svg xmlns="http://www.w3.org/2000/svg" xmlns:xlink="http://www.w3.org/1999/xlink" width="100.7" height="92.9"><use xlink:href="#a" width="45.45" height="30.4" transform="translate(16.2 29.55)"/><defs><g id="a" transform="translate(22.75 15.2)"><use xlink:href="#b" width="18.65" height="28.95" transform="translate(-22.75 -15.15)"/><use xlink:href="#c" width="19.2" height="29.45" transform="translate(3.5 -15.2)"/><use xlink:href="#d" width="20.8" height="13.55" transform="translate(-10.1 1.65)"/></g><g id="e" fill-rule="evenodd"><path fill="#4b271a" d="M1.75.25Q3.5-.85 7.85 2.5q4 3.15 6.05 6.45 1.6 2.55 3.85 9.1v.35l.25-.1.6 2.95.05 1.15q-3.05 1.05-3.6 1.85l.05-.1-2.1 1.9-2.45 2.9q.15-2.25 1.45-3.9-5.4-3.7-8.7-9Q.35 11.25.05 6.2-.3 1.5 1.75.25"/><path fill="#4b271a" d="M6.9 13.6q1.15-.9 1.35-2.25l.2-1.95q.3-.85.1-2.3-.05-.65.55 0l2.9 3.45q2.5 3.6 4.9 11.1-1.75 1.15-2.15 2-5.8-4.35-8.2-8.35l.35-1.7"/><path fill="#8b594d" d="M18.05 22.15q-1.35.5-3 1.75l-1.35 1.15q-5.35-3.4-9.1-9-2.65-4-3.4-9.2-.75-4.9.8-5.7Q3.45.35 7.3 3.3q4 3.1 6.25 7.1 3.15 5.65 4.5 11.75"/><path fill="#6e3d34" d="M5.6 14.4q-1.65-2.8-2.5-7.05Q2.25 3.3 3 2.9q.65-.4 3.7 2.35 3.05 2.75 4.85 5.4 2.35 3.4 4.6 10.15l-2.65 2.3q-5.7-4.95-7.9-8.7"/><path fill="#845746" d="M12.65 23.15q-.7.8-3.75-2.6 1.6 1.7 3.75 2.6"/><path fill="#bc8a78" d="M2.95 9.45Q4.55 15 7.9 19.75-.6 8.5 1.6 1.65q.85-2.4.35 1.65-.25 1.95 1 6.15"/></g><g id="f" fill-rule="evenodd"><path fill="#4b271a" d="M19.05 6.7q-.55 4.95-2.75 8.7-2.55 4.5-9.45 10.2l2.05 3.85-2.85-3.2q-.45-.1-1.4-.6-1-.55-2.3-1Q1 24.15.05 22.8q-.25-2.55.65-3.75l.05.05q1.8-6.85 4.4-10.45 2.5-3.4 6-6.15Q15.4-.8 17.5.25q2.15 1.15 1.55 6.45"/><path fill="#8b594d" d="M17.7 7.05q-.8 5.15-3.45 9.15-3.75 5.65-9.1 9-2.2-2.1-4.4-2.85 1.4-6.15 4.5-11.75 2.25-4.05 6.3-7.1Q15.4.55 16.9 1.35q1.5.8.8 5.7"/><path fill="#6e3d34" d="M13.25 14.6q-2.35 4-8.75 9.35-.35-.85-2.1-2 2.35-7.5 4.85-11.1Q9.1 8.15 12.2 5.4q3-2.7 3.7-2.3.7.4-.1 4.45-.85 4.25-2.55 7.05"/><path fill="#bc8a78" d="M10.25 6.5q-4.2 4.05-6.85 9.2 6.05-12.8 13.2-14 .5-.05-.15.4-.6.45-1.2.65-1.8.7-5 3.75"/></g><g id="g" fill-rule="evenodd"><path fill="#4b271a" d="m16.1 3.25.65.65Q16 4.1 16 5.1q0 .8 1.25 1.9l1.9 1.75v.45l.05.2v.4h-.05v.7H19v.05Q16.35 8.5 14.65 8.8q-1.05 2.25-3.55 4.75-.8-4-1.95-5.05-.85.25-1.55.9l-1 1.25-.7 1.6Q4.65 9.7 4.65 8.5q-1.35.2-3 1.05l-1.35.8.05-1.05L0 8h.15l1.2-.8q.05-.75 1.05-1.45l2.1-1.4L3.35 2.8v-.05L3 2.65q1.15-1 2.5-1.2l2.15.05L9.2.65q1.8-.8 3.2-.6l-.15 1.75 2.1.45 1.75 1"/><path fill="#8b594d" d="M18.6 9.3q-.8-.95-2.7-1.3l-1.75-.2-2.75 4.25q-.2-2.2-1.3-3.65l-1-1-1.15.45q-1.35.8-2.2 2.65V7.85H4.1Q2.2 8 .95 9.05q.45-2 2.3-3.65L5 4.15l-1.25-1.4 1.1-.35 2.85.15q.7-.7 2.35-1.05l1.5-.2-.05 1.25q1.25-.2 4.85 1.1l-1.55 1.1Q18.55 7 18.6 9.3"/><path fill="#bc8a78" d="m10.8 4 5.25 2.8L11.6 5l.2 4.15q-.5-2-1.85-3.35l-1.3-.95-.65.4q-.9.85-1.9 2.95l1-3.4-2.2.8Q2.5 6.65 1.3 8.2l1.05-1.8Q3.9 4.45 6.5 3.65q-.15-.8-1.45-.9h-1.3L4.9 2.4l2.9.1q1.05-.95 3.65-1.25Q10.1 1.8 9.6 2.4l-.25.5 5 .65L10.8 4"/><path fill="#4b271a" d="M18.6 9.3q-.1-2.55-3.8-4.55l1.55-1.1-1.6-.55.2-.8 2.8 1.1q-1.15.75-1.65 1.45l1.75 1.55q1.6 1.95.8 3.85l-.05-.95M.35 9.25q.1-.8.6-1.85 1-2.1 2.95-3.15L2.75 2.6 5.2 1.4l.15.9-1.7.45L5 4.15l-1.65 1.2Q1.6 6.95.95 9.05l-.6.2"/><path fill="#6e3d34" d="m13.05 4.4 1.75.35q3.35 1.65 3.8 4.55-.85-2.3-3.3-3.8l-2.25-1.1m-4.5 2.2.55.8-3.35 3.1q.15-1.85 1.5-3.05l1.3-.85m5.05-.05.55 1.25q-1.3 3-2.75 4.25 2.1-2.3 2.2-5.5M1.1 8.9q1.25-1.15 3.2-1.6l1.65-.25-.2.8-3.35.45-1.3.6"/><path fill="#4b271a" d="m3.35 2.95 1.55 1.1Q2.6 5.3 1.6 7.1l-.5 1.5-.05.95q-.8-1.9.8-3.85L3.6 4.15q-.5-.7-1.65-1.45l2.8-1.1.2.8-1.6.55"/></g><use xlink:href="#e" id="b" width="18.65" height="28.95"/><use xlink:href="#f" id="c" width="19.2" height="29.45"/><use xlink:href="#g" id="d" width="20.8" height="13.55"/></defs></svg>