<svg xmlns="http://www.w3.org/2000/svg" xmlns:xlink="http://www.w3.org/1999/xlink" width="100.7" height="92.9"><g transform="translate(38.65 49.75)"><use xlink:href="#a" width="19.35" height="18.75" transform="translate(-19.1 -6.2)"/><use xlink:href="#a" width="19.35" height="18.75" transform="matrix(-1 0 0 1 18.55 -6.2)"/></g><defs><use xlink:href="#b" id="a" width="19.35" height="18.75"/><g id="b"><path fill="#c00" fill-rule="evenodd" d="M18.85 13.15h-.2L8.7 5.2h2.6L8.75 3.05l-5.7.85L.5 1.6 8.55.5l6.15 5.45h-2.05v.15l6.2 5.2v1.85"/><path fill="#fff" fill-rule="evenodd" d="m3.05 3.9 5.7-.85L11.3 5.2H8.7l9.95 7.95h.2v5.1L3.05 3.9"/><path fill="none" stroke="#000" stroke-linecap="round" stroke-linejoin="round" d="m18.85 11.3-6.2-5.2m0-.15h2.05L8.55.5.5 1.6l2.55 2.3 15.8 14.35"/></g></defs></svg>