<svg xmlns="http://www.w3.org/2000/svg" xmlns:xlink="http://www.w3.org/1999/xlink" width="100.7" height="92.9"><use xlink:href="#a" width="41.45" height="31.95" transform="translate(17.85 40.2)"/><defs><g id="a" fill-rule="evenodd"><path fill="#351e02" d="m37.1 19.6.15-.1.4-.4q.75-1.2-1-3.45-1.85-2.4-3.2-1.8l-.45.25-.15.15-.1-.05-1-.1h-.05q-.45.1-.55.3l-.15.15-.2.6.15.75.3.6.7 1.15.55.95.35.4.05.05.35.35.4.35.5.5.45.4.85.5.45.1.55-.05.25-.1v-.05l.45-.7v-.6l-.05-.15m-5.8-6.65h.4l.65.15 1.75-.2q1.7.3 3.1 2.2 2 2.65 1.55 4.15l-.55.8.05.8-.15.4-.4.6-.15.1-1.25.35-.25-.05-.35-.1h-.1l-.55-.25q-.75-.35-1.45-1l-.25-.2-1-1.15-.25-.3-.05-.05-.6-.75-.2-.2Q30.1 17.2 28.5 16.5q-2.3-1-5.55-1.4l-2.5-.15-3.05.25q-3.75.65-6.95 2.9l-.2.3-.7 1.05-.4.5-.25.35-1.2 1.2-.25.2-1.45 1-1.05.35h-.1l-1.2-.3-.25-.25-.25-.35q-.3-.6-.2-1.35l-.25-.25Q1.55 19.1 3.9 15.9 5.3 14 7 13.65q.85-.2 1.4 0l.4.15.6-.1h.1q.65-.15 1.1.3l.4.5q3.55-2.15 8.1-2.4l1.95-.05 1.55.1q3.4.3 5.9 1.2l1.55.65q.1-.45.45-.75.35-.25.8-.3M39.75 27l.15.25-.8.4v-.05l.3-.3.35-.3M27.7 15.55l-.2.05q.8.25 3.05 1.45-.65-1.3-.65-2.4l-1.25-.6q-2.55-1-6.2-1.3l-1.4-.05-2.2.05-2.4.3-2.05.55-1.75.7-1.45.75v.35q0 .9-.4 1.95 2.3-1.45 4.9-2.35h-.05l2.25-.5 2.85-.2 2.25.15 3.6.75 1.1.35M8.35 15l-.2-.15-.15-.1-.3-.15q-1.4-.55-3.25 1.8-2 2.75-.55 3.85l.2.15-.05.15-.05.2.2.8.25.25.05.05.05.05h.1l.1.05h.8l.25-.1.65-.35.45-.35.75-.75q1.25-1.1 1.55-1.95l.1-.15q1.15-1.75 1.05-2.65l-.3-.55-.15-.1-.3-.15-.2-.05-1.1.15.05.05"/><path fill="#fff" d="M32.85 14.35h-.05q-.5.55-.35 1.4l.25.8-.9-.85-.75-1.1v-.05l.1-.15q.1-.2.55-.3h.05l1 .1.1.05v.1m2.2 5.1q.4.3.8.4l.35.05h.1l.7-.2.05-.05.1.1v.6l-.45.7v.05l-.25.1-.55.05-.45-.1-.35-.45v-.25l-.05-1M34 14.35l.7.7.45.85q.1.5-.25.75l-.3.15q-.55.05-1.15-.8l-.1-.2q-.65-1-.1-1.4l.75-.05m-17.55-1.3q-1.8 1.15-.8 1.95h.05q-2.6.9-4.9 2.35.4-1.05.4-1.95v-.35l1.45-.75 1.75-.7 2.05-.55M39.1 27.6v.05h-.05l.05-.05M8.35 15.1V15l-.05-.05 1.1-.15h.05l.15.05.3.15.15.25-.7 1.15-.85.85-.1.05q.6-1.4-.05-2.2M4.2 20.45q.9.45 1.95-.25l-.05.35-.05.85v.05l-.25.4-.25.1h-.8l-.1-.05h-.1l-.05-.05-.05-.05-.25-.25-.15-.45-.05-.35.05-.2.05-.15.1.05m2.95-5.35.7.05q.6.4 0 1.4l-.15.2q-.65.9-1.15.8l-.3-.15q-.4-.25-.25-.75l.4-.85.75-.7"/><path fill="#231402" d="M29.95 6.25q.25-1.7-1.2-3-1.15-1.05-3.15-1.6-2.7-.9-5.75-.5-4 .2-6.45 1.5-3.05 1.65-2.6 4.7l-.9.8v.1q-.6-2.25.45-4Q11.7 1.9 15.5.8l4.1-.75 5.4.4q4.05.9 5.3 3.05 1 1.65.3 3.8l-.7-.6.05-.45m-1.7 3.3 1 .75-.3-.2-.15-.15-.3-.25-.25-.15m1.15.9.3.05.4-.35.1-.3.8.85 1.35 2.4-.65-.15h-.4q-.7-1.5-1.9-2.5m9.35 8.8q.5.05 1.15.9 1.3 1.85.45 3.05 1 .85.6 1.95L39.75 27l-.35.3-.3.3-.05.05h.05l.8-.4.8-.85q.1-.15.3-.15l.3.25q.45 1.35-.5 2.55-.95 1.2-2.2.85-.8-.3-1.2-1.25h-.15q-.6.15-1-.25h-.1l-.2.1q.1 1.2-.6 2-1 1.05-2.65.4-1.6-.65-1.85-2.3l.2-.45q.15-.15.4 0 1.2.7 2.4.25l-.55-.15q-1.9-.45-2.75-1.25-.95-.9-.3-2.4-1.4-.65-1.15-3.35.3-1.9 1.2-1.8l2.05.1 1 1.15-.35.1-1 .15-.1-.15.05.15h-.75l-.65-.1q-.35-.05-.4.55-.2.7.2 1.5l.05.05.05.1q.3.4.8.5l2.45-.15h.05l1.75-.7.55-.45.25.05 1.25-.35.15-.1-.05.2-.05.15-.2.4v.05l-.2.2-.45.45-1.45.75h.1l.35-.15.3-.05.4.15.75-.2q1.8-.55 2.2-1.3.3-.6-.05-1.45l-.1-.25q-.3-.5-.6-.3l-.35.3-.05.05-.05-.8.55-.8m-6.65 0-5.05-.35q-4.7-.8-6.7-2.45-1.75 1.45-5.1 2.4-3.05.85-5.7.6l.7-1.05 4.15-.35 2.25-.7q1.85-.7 2.95-1.5l.75-.75q1.6 1.7 6.05 2.6l1 .2.95.15.7.1 2.2.1.2.2.6.75.05.05M8.9 20.3l1.65-.3q.95-.1 1.35 1.75.6 2.6-.8 3.45.7 1.4-.2 2.4-.8.85-2.65 1.45l-.45.15q1.05.3 2.25-.45h.4q.3.2.2.45-.1 1.65-1.65 2.45-1.55.75-2.65-.25-.7-.7-.7-2l-.25-.05h-.1q-.4.45-1 .35h-.15Q3.8 30.7 3 31q-1.05.5-2.2-.65-1.05-1.1-.7-2.5l.3-.3q.15-.05.35.15.7.95 1.75 1.1l-.4-.3Q.75 27.4.35 26.45-.1 25.4.9 24.5q-1-1.1.2-3.1.8-1.35 1.5-.95l.1.1.25.25q-.1.75.2 1.35l-.8-.5-.35.05-.05.1-.25.5q-.35.85.05 1.4l.1.1q.4.5 1.6.85l.55.15.9.15.25-.1h.35l.35.1h.05q-1.3-.45-1.95-1.05l-.15-.15-.05-.05-.25-.55-.1-.5v-.15l.25.25 1.2.3h.1q.6.8 2.55 1.1l2.35.1.55-.3.1-.1q.4-.35.45-1v-.45q-.05-1.05-.5-.95l-.6.15-.75.05v-.15l-.05.15-1.35-.15 1.2-1.2m-.5-6.65q.75-1.8 2-3.1l.45.55.15.15q-.9 1.05-1.5 2.45h-.1l-.6.1-.4-.15m31.65 11q.05-.45-.4-.85l-1.75.8-.3.5-.4.5-.05.05v.25l.05.55v.35l-.15.75h.05l.85-.1.4-.25.4-.35.15-.15.35-.35q.75-.95.8-1.7m-6.65 2.7 2.3-.15.5-1.05v-.1l.05-.5-.25-.3-.7.15.05-.05h-.15l-.55-.1-1-.5-.2-.15-2.25.25q-.3.45 0 1.15.4.8 1.65 1.2l.55.15m7.25.1-.55.45-1.2.5-.8-.05q.25 1.05 1.35.8l.1-.05.35-.15q.9-.45.75-1.5M32 29.2q.5 1.35 1.95 1 1.45-.35 1.15-1.6-1.1 1-3.1.6M8.05 28.15h.1l.45-.2q1.3-.6 1.55-1.35.3-.7 0-1.1l-2.35-.1-.15.2-.6.35-1.05.3.2.05-.25.05-.6-.1q-.35.05-.2.8l.6 1.1.15.1 2.15-.1m-6.8-2.25q.1.9 1.25 1.95 1.2 1.05 1.85.75l.1-.05q-.3-.6-.25-1.6v-.25l-.8-1-1.8-.65-.35.85M2 30.3q1.25.25 1.4-.85-1.15.35-2.55-.75Q.8 30 2 30.3m4.45-.8q-.25 1.3 1.25 1.55 1.5.2 1.85-1.2-1.85.55-3.1-.35"/><path fill="#914602" d="m25.6 1.65-3.35-.5q1.55.25 2.45 1.55l-2.25-.05q1.75.5 1.9 1.35-.9-.6-2.25-.4 1.15.45 1.75 1.25l-2.2-.1q-7.45 0-10.85 2.6-.45-3.05 2.6-4.7 2.45-1.3 6.45-1.5 3.05-.4 5.75.5m4.25 5 .1-.4-.05.45-.05-.05M11 11.25l.55-.05Q15.2 8.5 21.7 8.5l3.2.15q1.95.95 3.05 3.35l.55 1.35q-2.5-.9-5.9-1.2l-1.55-.1q-.15-1.35-.9-3.05l-1.05 3.1q-4.55.25-8.1 2.4l-.4-.5q-.45-.45-1.1-.3.6-1.4 1.5-2.45M26.9 9l1.35.55.25.15-1.6-.7m.5 8.9-1-.2q-4.45-.9-6.05-2.6l.1-.15 2.5.15q3.25.4 5.55 1.4-.8 1.05-5.1-.8.95 1.55 4 2.2m-7.8-2.05q-1.1.8-2.95 1.5l.55-.25 2.4-1.25m-5.2 2.2-4.15.35.2-.3q3.2-2.25 6.95-2.9-1.45 1.75-3.5 2.85h.5m16.85 5.5 1.9-.4q-1 .35-1.6-.5-.8-.9-.25-1.65l-.1-.05h.75q.4 1.45.55 1.6l.45.15.8.05.85-.05q.75-.15 1.1-.55l.35.1-.55.45-1.75.7h-.05l-2.45.15m-.7-2.7-.35.4-.05.15q.05-.6.4-.55m3.05.05-.65.1-.9.1-.05-.15 1-.15.35-.1.25.2m4.65-.05.05-.05.35-.3q.3-.2.6.3l.1.25q.35.85.05 1.45-.4.75-2.2 1.3l-.75.2-.4-.15-.3.05-.35.15h-.1l1.45-.75.45-.45.2-.2.85.15.2-.05.95-.65-.35.1-.45.05.45-.9q.15-.55-.05-.8l-.2.25.05-.2-.5.45-.25.2.15-.4m-.85 1.75.2-.4.05-.15.25-.05.3-.1q-.35.45-.8.7M28.8 9.95l.15.15-.1-.1-.05-.05m-6.85 1.7q2.5-.6 5 .7-.7-.85-3.3-1.65l2-.05q-.3-.6-1.85-1l-2.5.05q.85 1.3.65 1.95m18.1 13q-.05.75-.8 1.7l-.35.35-.15.15-.4.35-.4.25-.85.1h-.05l.15-.75v-.35l-.05-.55v-.25l.05-.05.4-.5.3-.5 1.75-.8q.45.4.4.85m-.65.25-.05-.75-1.1 1.35-.15.25.4-.1.65-.55-.2 1-.1.2.2-.15q.75-.6.85-1.55l.05.1-.05-.3-.5.5m-4.1.5.7-.15.25.3-.05.5v.1l-.5 1.05-2.3.15q1.3.3 1.95-.55l-1.2-.1-.25-.15q-.9-.45-1-1.2l2.4.05m5.35 2.05q.15 1.05-.75 1.5l-.35.15-.1.05q-1.1.25-1.35-.8l.8.05 1.2-.5.55-.45m-5.05-5.3-.75.15.2-.4.55.25M32 29.2q2 .4 3.1-.6.3 1.25-1.15 1.6-1.45.35-1.95-1M13.55 5.5q2.6-3.05 6.05-4.05-3 .1-5.35 1.25-2.5 1.2-2.9 3 2.1-2.45 3.65-2.45-1.8.9-1.45 2.25m-2.25 8.4q2.25-2.15 5.2-2.35-1.25-.55-2.85.3.7-1.2 2.55-2.1-4.6.95-5.6 3.75.4.1.7.4M2 21.7l.35-.05.8.5.25.35v.15l-1.25-.9.05.2-.2-.25m2.95 1.35L6 22.7l.25.5-.9-.15q.5.6 2.05.5l1.25-.25.45-1.65.75-.05-.15.05q.65.65-.1 1.65-.65.95-1.6.6l1.85.35-2.35-.1q-1.95-.3-2.55-1.1m2.5-1.35.25-.2 1.35.15-.1.15-1.5-.1m3-.25q.45-.1.5.95l-.15-.6q-.15-.35-.35-.35m.5 1.4q-.05.65-.45 1l.25-.35.2-.65m-7.15.9.15.15q.65.6 1.95 1.05h-.05l-.35-.1h-.35l-.25.1-.9-.15-.55-.15q-1.2-.35-1.6-.85l-.1-.1q-.4-.55-.05-1.4l.25-.5.05.75.55.85-.8-.1.35.4.6.2.3.05.8-.2m-.05-.05-.9-.65.65.1.25.55m2.45 2.6 2.2-.2q-.05.7-.9 1.25-.8.55-1.45.35.75.8 2 .45l-2.15.1-.15-.1-.6-1.1q-.15-.75.2-.8l.6.1.25-.05m-4.95-.4.35-.85 1.8.65.8 1v.25q-.05 1 .25 1.6l-.1.05q-.65.3-1.85-.75-1.15-1.05-1.25-1.95m.15-.05q.1 1 1.15 1.6l-.4-1.2q.3.6 1.1.6l-1.35-1.5v.75l-.55-.45v.3l.05-.1M2 30.3Q.8 30 .85 28.7q1.4 1.1 2.55.75-.15 1.1-1.4.85m4.45-.8q1.25.9 3.1.35-.35 1.4-1.85 1.2-1.5-.25-1.25-1.55"/><path fill="#522e02" d="M23.85 4.85q-.6-.8-1.75-1.25 1.35-.2 2.25.4-.15-.85-1.9-1.35l2.25.05q-.9-1.3-2.45-1.55l3.35.5q2 .55 3.15 1.6 1.45 1.3 1.2 3l-.1.4q-1.95-1.45-6-1.8m1.05 3.8 2 .35 1.6.7.3.25.05.05.1.1.3.2.15.15q1.2 1 1.9 2.5-.45.05-.8.3-.35.3-.45.75l-1.55-.65-.55-1.35q-1.1-2.4-3.05-3.35m6.35 9.6-2.2-.1-.7-.1-.95-.15q-3.05-.65-4-2.2 4.3 1.85 5.1.8 1.6.7 2.75 1.75m-10.9-3.15-.75.75-2.4 1.25-.55.25-2.25.7h-.5q2.05-1.1 3.5-2.85l3.05-.25-.1.15m10.85 5.85.1.05q-.55.75.25 1.65.6.85 1.6.5l-1.9.4q-.5-.1-.8-.5l-.05-.1-.05-.05q-.4-.8-.2-1.5l.05-.15.35-.4.65.1m-10.15-8.9-1.95.05L20.15 9q.75 1.7.9 3.05M35.3 25.4l-2.4-.05q.1.75 1 1.2l.25.15 1.2.1q-.65.85-1.95.55l-.55-.15q-1.25-.4-1.65-1.2-.3-.7 0-1.15l2.25-.25.2.15 1 .5.55.1h.15l-.05.05M9.85 21.6l.6-.15q.2 0 .35.35l.15.6v.45l-.2.65-.25.35-.1.1-.55.3L8 23.9q.95.35 1.6-.6.75-1 .1-1.65l.15-.05m-1.8 6.55q-1.25.35-2-.45.65.2 1.45-.35.85-.55.9-1.25l-2.2.2-.2-.05 1.05-.3.6-.35.15-.2 2.35.1q.3.4 0 1.1-.25.75-1.55 1.35l-.45.2h-.1"/><path fill="#030a36" d="M23.85 4.85q4.05.35 6 1.8l.05.05.7.6.15.35-.55 2.2-.1.3-.4.35-.3-.05-.15-.15-1-.75L26.9 9l-2-.35-3.2-.15q-6.5 0-10.15 2.7l-.55.05-.15-.15-.45-.55q-.75-1-.6-2.1l.1-.2v-.1l.9-.8q3.4-2.6 10.85-2.6l2.2.1m-9.9 4q3.3-1.3 7.55-1.35l2.4.05-.05.05 2.2.25q2.1.4 3.35 1.35l.3-1.45Q28.15 6.6 25.6 6.1l-5-.35q-4.15.1-6.95 1.25-1.85.5-2.9 1.7l.2.65.4.75 2.6-1.25"/><path fill="#037df2" d="m23.9 7.55-2.4-.05q-4.25.05-7.55 1.35l1.1-.5Q14 8 14.55 6.75l-.9.25q2.8-1.15 6.95-1.25l5 .35-1.65-.15q.3.9-.05 1.6"/><path fill="#085cf2" d="M23.9 7.55q.35-.7.05-1.6l1.65.15q2.55.5 4.1 1.65l-.3 1.45q-1.25-.95-3.35-1.35l-2.2-.25.05-.05"/><path fill="#5cbfff" d="m13.65 7 .9-.25q-.55 1.25.5 1.6l-1.1.5-2.6 1.25-.4-.75-.2-.65q1.05-1.2 2.9-1.7"/><path fill="#ea9d5e" d="M35.7 22.15q-.35.4-1.1.55l-.85.05-.8-.05-.45-.15q-.15-.15-.55-1.6l-.05-.15.1.15.05.15.9-.1.65-.1q.7.65 1.45 1l-.2.4.75-.15h.1m2.4-.9.25-.2.5-.45-.05.2.2-.25q.2.25.05.8l-.45.9.45-.05.35-.1-.95.65-.2.05-.85-.15v-.05q.45-.25.8-.7l-.3.1-.25.05.05-.2.4-.6m-16.15-9.6q.2-.65-.65-1.95l2.5-.05q1.55.4 1.85 1l-2 .05q2.6.8 3.3 1.65-2.5-1.3-5-.7M39.4 24.9l.5-.5.05.3-.05-.1q-.1.95-.85 1.55l-.2.15.1-.2.2-1-.65.55-.4.1.15-.25 1.1-1.35.05.75M13.55 5.5Q13.2 4.15 15 3.25q-1.55 0-3.65 2.45.4-1.8 2.9-3 2.35-1.15 5.35-1.25-3.45 1-6.05 4.05m-2.25 8.4q-.3-.3-.7-.4 1-2.8 5.6-3.75-1.85.9-2.55 2.1 1.6-.85 2.85-.3-2.95.2-5.2 2.35M6 22.7l1.45-1 1.5.1.1-.15.05-.15v.15l-.45 1.65-1.25.25q-1.55.1-2.05-.5l.9.15-.25-.5m-4.05-.9.05-.1.2.25-.05-.2 1.25.9.1.5-.65-.1.9.65.05.05-.8.2-.3-.05-.6-.2-.35-.4.8.1-.55-.85-.05-.75m-.55 4.05-.05.1v-.3l.55.45v-.75l1.35 1.5q-.8 0-1.1-.6l.4 1.2q-1.05-.6-1.15-1.6"/><path fill="#f4c606" d="m29.9 14.65-1.25-.5-.1-.05q.15.35-.3.9l-.35.4-.2.15-1.1-.35-3.6-.75-2.25-.15-2.85.2-2.25.5q-1-.8.8-1.95l2.4-.3 2.2-.05 1.4.05q3.65.3 6.2 1.3l1.25.6"/><path fill="#b57a06" d="m33.4 17.7.1.15.55.7-.15.55-.25.65-.4-.35-.35-.35-.05-.05-.35-.4-.55-.95-.05-.15 1.2-.2.15.2.05.05.1.15m-5.7-2.15.2-.15.35-.4q.45-.55.3-.9l.1.05 1.25.5q0 1.1.65 2.4-2.25-1.2-3.05-1.45l.2-.05M7.1 19.3l.55-.7.4-.6h.05l1.15.2-.05.25q-.3.85-1.55 1.95l-.15.1-.4-1.2"/><path fill="#ff7d00" d="m33.45 13.85-.4.25-.2.25v-.1l.15-.15.45-.25m-.75 2.7.6 1 .1.15-.1-.15-.05-.05-.15-.2-.4-.75m1.3-2.2 1.1.25q1.25.65 1.9 2.35l.15.35q-.95-1.8-2-1.4l-.45-.85-.7-.7m.6 2.45.25.85.25.45.5.75-.8-.5-.65-.7q-.75-1.05-.8-1.85l.1.2q.6.85 1.15.8M8.35 15.1l-.3-.3-.35-.2.3.15.15.1.2.15v.1m-.7 3.5.75-1.3.1-.05-.1.15-.3.6h-.05l-.4.6M6 16.65q-1.05-.3-2 1.55l.15-.5q.65-1.7 1.9-2.35.65-.35 1.1-.25l-.75.7-.4.85m1.85-.1q-.1.8-.85 1.8-.7 1-1.4 1.25l.7-1.25.25-.8q.5.1 1.15-.8l.15-.2"/><path fill="#fff206" d="m34.05 18.55.25.3.7.6h.05l.05 1v.25l.35.45-.85-.5-.45-.4-.5-.5.25-.65.15-.55M37 19.7l.1-.1.05.15-.1-.1-.05.05m-5.85-5.3-.1.15v.05l.75 1.1.9.85.4.75-1.2.2.05.15-.7-1.15-.3-.6-.15-.75.2-.6.15-.15m-27.05 6 .1.05-.1-.05-.05.15.05-.15m2.05-.2.55-.45.4-.45.4 1.2.15-.1-.75.75-.45.35-.65.35.25-.4v-.05l.05-.85.05-.35m3.25-5.4.2.05-.15-.05H9.4m.5.2.15.1.3.55q.1.9-1.05 2.65l-.1.15.05-.25L8.1 18l.3-.6.1-.15.85-.85.7-1.15L9.9 15m-5.7 6.55-.2-.8.05.35.15.45"/><path fill="#d63600" d="m32.85 14.35.2-.25.4-.25q1.35-.6 3.2 1.8 1.75 2.25 1 3.45l-.4.4-.15.1-.1.1-.7.2h-.1l-.35-.05q-.4-.1-.8-.4H35l-.7-.6-.25-.3-.55-.7-.1-.15-.1-.15-.6-1-.25-.8q-.15-.85.35-1.4h.05m2.3 1.55q1.05-.4 2 1.4l-.15-.35q-.65-1.7-1.9-2.35l-1.1-.25-.75.05q-.55.4.1 1.4.05.8.8 1.85l.65.7.8.5-.5-.75-.25-.45-.25-.85.3-.15q.35-.25.25-.75M7.7 14.6l.35.2.3.3q.65.8.05 2.2l-.75 1.3-.55.7-.4.45-.55.45q-1.05.7-1.95.25l-.1-.05-.2-.15q-1.45-1.1.55-3.85 1.85-2.35 3.25-1.8m-.55.5q-.45-.1-1.1.25-1.25.65-1.9 2.35l-.15.5q.95-1.85 2-1.55-.15.5.25.75l.3.15-.25.8-.7 1.25q.7-.25 1.4-1.25.75-1 .85-1.8.6-1 0-1.4l-.7-.05"/></g></defs></svg>