<svg xmlns="http://www.w3.org/2000/svg" xmlns:xlink="http://www.w3.org/1999/xlink" width="100.7" height="92.9"><g transform="translate(38.65 49.75)"><use xlink:href="#a" width="39.65" height="32.7" transform="translate(-18.15 -11.25)"/><use xlink:href="#b" width="10.25" height="10.1" transform="translate(2.7 -6.85)"/><use xlink:href="#c" width="6.55" height="7.35" transform="translate(-14.6 15.85)"/></g><defs><g id="a"><path fill-rule="evenodd" d="m23.4 16.85 2.3-.1 2.65.8.75.15q.75.1 3.15 1.85 2.35 1.7 3 5.3.45 1.55-.4 2.3l-1.9.05-.3-.6-1.25-2.4 1.05 3.4v.05q.05.7-.35 1.1-.3.4-1.05.5-.75.1-1.15-.55-.45-.65-.75-2.2-.3-1.6-1.35-3.4-.2.65-1.25.6-1.05-.1-1.2-1.85-.2-1.8-1.95-5m-16.5 1.4q1.7-.75 2.1-.3l.65.2-.75 2q-1 4.35-.65 7.25l.5 3.35q-.1 1.15-1.15 1.45l-1.55-.1-.65-.6-.25-.75q-.65-2.55-.1-6.55L3.9 26.65l-.4 1.1-.4.05q-1.2-.4-1.4-1.6v-.45l1.1-2.5-.75.6-.2.1-.3.05q-.7-.15-.9-.85-.35-1 .25-1.95l.3-.25.3-.2q2.4-1.6 5.4-2.5M3.45 22.3l-.2.05.15-.05h.05"/><path fill="none" stroke="#000" stroke-linecap="round" stroke-linejoin="round" d="M32.45 27.65v-.05l-1.05-3.4 1.25 2.4.3.6 1.9-.05q.85-.75.4-2.3-.65-3.6-3-5.3-2.4-1.75-3.15-1.85l-.75-.15-2.65-.8-2.3.1m-16.5 1.4q-3 .9-5.4 2.5l-.3.2-.3.25q-.6.95-.25 1.95.2.7.9.85l.3-.05.2-.1.75-.6-1.1 2.5v.45q.2 1.2 1.4 1.6l.4-.05.4-1.1 1.15-2.45q-.55 4 .1 6.55l.25.75.65.6 1.55.1q1.05-.3 1.15-1.45"/><path fill-rule="evenodd" d="m32.7 27.2.1.1.15.35q.05.85-1.65 1.5v-.2l.1-.1-.05-.05q.55-1.25 1.35-1.6"/><path fill="#592d00" fill-rule="evenodd" d="m27.65 17.55-.05.05-.1-.1-.15-.25.25.3h.05M27 17.4l2.4 4.65.6 1.9.35 1.8.25.95q0 .65.15 1.3l.15.45-.15.05q-.9.05-1.2-.8l-1.15-4.8-.2-.2-.35-.85h-.05q-.35-.7-.35-1.45l-.1-.15-.2-.35-.1-.15L26 17.8l-.1-.5h.7l.15.05.25.05m4 11.05.05-.15.15.1-.2.05m-.3-5.6-1.4-2.35v-.1l-.95-2.5h.05l.4.35-.05.05.05.05-.05.2.4.45-.25-.2.1.25 1.25 1.3.9 1 .25.3.75.95 1.25 2.15.75 1.45.15.05-.05-.1v-.1l.3.25.05-.05.05.1-.15.1-.5.25q-.35.05-.7-.35-1.15-2.45-2.6-3.5m-2.4-4.9.05.2-.1-.1V18l.05-.05m-1.7 5.4h-.05l-.2.05q-.7.05-.85-.7l-.75-2.8q-.6-1.95-1.2-2.9l.6-.2.7.15.2.05.2.5v.05l.85 2.95.05.2.1.35.1.7.25 1.6m-.45-4.05.1.25-.05-.15-.05-.1m8.5 6.7v.05L34.6 26h.05"/><path fill="#422100" fill-rule="evenodd" d="m27.65 17.55.35-.15.15.1v.05l.05.05h.05l.15.05h.05l-.05.2 1.65.95q3.55 2.7 4.7 5.9.25.95 0 1.5l.05.1-.15.1v-.05l-.05-.1-.05.05-.3-.25v.1l.05.1-.15-.05-.75-1.45-1.25-2.15-.75-.95-.25-.3-.9-1-1.25-1.3-.1-.25.25.2-.4-.45.05-.2-.05-.05.05-.05-.4-.35h-.05l.95 2.5v.1l1.4 2.35 1.25 4.55q.1.7-.5.95h-.05l.05.2-.05-.05v.3h-.1l-.05.05-.05-.45-.15-.1-.05.15v.1l-.1-.1-.15-.45q-.15-.65-.15-1.3l-.25-.95-.35-1.8-.6-1.9L27 17.4l.5.1.1.1.05-.05m.65.4-.05.05v.05l.1.1-.05-.2m-1.7 5.4-.25-1.6-.1-.7-.1-.35-.05-.2-.85-2.95v-.05l-.2-.5-.05-.05h.05l.05.1.15.05.05-.15h.05l.05.1-.1-.5h.05l.15.45.1.25.15-.2.15.25.1.5 1.05 1.95.05.15.25 2.3v.2l-.1.5v.25l-.05.2-.25-.05-.15.3-.05.1v.05l-.15-.1v-.3m-.45-4.05.05.1.05.15-.1-.25m8.5 6.7h-.05l.05.05V26"/><path fill="#592d00" fill-rule="evenodd" d="M1.1 21.95q2.8-1.9 4.95-2.3-.4.2-1.8 2.1-1.2.15-2.55 1.45-.7-.2-.6-1.25m1.3 4.45q1.3-3.65 3.9-6.1l-.7 2.65Q4.4 24 3.25 27l-.85-.6m4.3 5.1q-1.65-5.9.8-13.05L9 18.3q-2 6.25-.95 11.3.3 1.5-.6 1.8l-.75.1"/><path fill="#c60" fill-rule="evenodd" d="M4.25 21.75q1.4-1.9 1.8-2.1-2.15.4-4.95 2.3l.1-.65q2.55-1.95 5.45-2.45l.85-.4Q5.05 25.6 6.7 31.5q-.75-.15-1.05-1.15-.75-3.2-.05-7.4l.7-2.65q-2.6 2.45-3.9 6.1l-.2-.75q.6-2.2 2.05-3.9"/><path fill="#351b00" fill-rule="evenodd" d="M6.55 19.35v-.15l-.8 4q-.8 4.15.45 7.65l.95.25.9-.6q-1.5-5.7.9-12l-2.4.85m-.2-.05-.55.65q-2.5 2.5-3.4 5.65.1.9.75 1.1.85-2.75 2-3.95l1.2-3.45m-5 2.2q-.5 1.2.25 1.55 1.05-.8 1.8-1.05l2.65-2.75v-.05q-2.4.35-4.7 2.3M9 17.65l.75.2-.35.3-.5 1.7q-1 4.35-.65 7.25l.5 3.35q-.1 1.15-1.15 1.45l-1.55-.1-.65-.6-.25-.75q-.65-2.55-.1-6.55L3.9 26.35l-.4 1.1-.4.05q-1.3-.4-1.4-1.8v-.15q.35-1.4 1.1-2.6l-.75.6-.2.1-.3.05q-1.4-.3-.85-2.5l.2-.3q2.65-2.05 5.5-2.25 2.2-1.45 2.6-1m19.2-.05-1.8.05 1.5 3.9q1.1 2.65 1.85 6.25.65.55 1.15.35l.5-.35.05-.3q-.5-2.5-1.35-4.85L28.2 18v-.4m-2.9-.2-1.3-.1q1 1.85 1.9 5.75l.85-.1q.4-.25.4-.8L27 21l-.4-1.35-.75-2.35-.55.1m3.05-.15.1.05q.95.4 1.9 1.1 3.7 2.8 4.9 6.15.45 1.55-.4 2.3l-1.9.05-.3-.6-1.25-2.4 1.05 3.4v.05q.05.7-.35 1.1-.3.4-1.05.5-1.5.25-1.95-1.05l-.05-.1-1.25-5q-.2.8-1.1 1.05-1.35.3-1.65-1l-1.65-6.3 2.3-.1 2.65.8m.35.9 1.85 4.2q1.6 1.7 3.05 3.95l.6-.3.25-.3v-.05l.05-.05v-.05l.05-.05.05-.15q-1.45-3.55-4.85-6.15l-1.05-1.05"/><path fill="#b70000" fill-rule="evenodd" d="M31.7 13.4q-.35 1-.4 2-6.3-.95-15.45 1.1-4.25.55-9.15 2.45-1.1-2.2-1.55-4.15 13.2-8 26.55-1.4"/><path fill="#fc0" fill-rule="evenodd" d="M6.9 6.5Q8.05 5 9.95 3.7 14.85.45 20.55.5q6.05.1 9.6 4.05 1.4 1.6 1.95 3.45Q20.25 1.2 6.9 6.5"/><path fill="#360" fill-rule="evenodd" d="M32.1 8q.65 2.45-.4 5.4-13.35-6.6-26.55 1.4-1.1-4.75 1.75-8.3Q20.25 1.2 32.1 8"/><path fill-rule="evenodd" d="M31.3 15.4q3.4 1.2 6.4 2.6 2.95 1.35-.15 1.75l-6.55.2q-7.85-4.4-15.15-3.45Q25 14.45 31.3 15.4"/><path fill-rule="evenodd" d="M20.55 0q6.3.1 10 4.25Q32 5.9 32.6 7.85v.05q.7 2.55-.4 5.7l-.8 1.7q3.7.95 6.5 2.25 1.9.85 1.75 1.6.05.85-2 1.1l-6.65.2-.25-.05.15.1-.5-.35q-7.5-4-14.45-3.15h-.05q-4.4.5-6.75 1.45l-2.55.9-.5.2-1.4-4.6Q3.5 9.9 6.5 6.2q1.2-1.55 3.2-2.9 5-3.35 10.85-3.3m11.1 8.15Q31.1 6.4 29.8 4.9 26.35 1.1 20.55 1 15 .95 10.25 4.15 8.4 5.35 7.3 6.8v.05q-2.8 3.35-1.55 8.4l-.1-.3 1 3.85q5-2 8.65-2.45 3.6-.45 7.1.05 3.5.45 8.6 3.55l7.75-.85q-.2 0 .05-.05.2-.1-1.75-1L30.5 15.5q1.7-5.05 1.15-7.35"/><path fill="#1e3c00" fill-rule="evenodd" d="M28.7 6.2q.8.8 1.1 1.85Q28 7.4 26.6 6.4L24.25 5l-.35-.25 3.05.8 1.75.65m-4.05 4.65.45-.2 1.7.25q-1.5-.65-2.25-1.2h.4q1.7-.05 3 1.05l.9 1.3q-2.1-.8-4.2-1.2m1.25-2.7.7.2 1.75.9-.85-.1q-1.4-.3-2.45-.95l-.7-.5 1.55.45m-18.85 5.6.15-.3.05-.1q1.55-3.1 4.45-4.55-1.35.15-4.35 2.25 2.45-3 4.2-3.45-2.25.1-4.45 1.35L7.55 8 9.4 5.6q3.1-.9 6.1-1.25l-1.55 1.2-.1.1-.55.5 3.7-1.1 2.15-.15Q16.1 6.05 14.2 8.65l4.05-1.15q-2 .9-3.35 2.2l3.4-.4-3.05 1.5q-2.5.6-4.6 1.3l-.2.2h-.05l.25-.2.15-.15q-1.1.2-2.1.75l-.35.2-.25.2-.65.45-.4.2"/><path fill="#c49c00" fill-rule="evenodd" d="M23.9 4.75q-.65-.5-1.4-1.75 2.75.55 4.6 1.9l1.2.95h.05l.35.35-1.75-.65-3.05-.8M9.4 5.6q1.3-1.35 3.1-2.05 3.55-1.45 7.25-1.65L15.5 4.35q-3 .35-6.1 1.25"/><path fill="#590000" fill-rule="evenodd" d="m28.85 12.05.1.25-2.35-.1-.5-.2-.4-.1v.05q.15.85 1.7 1.4 1.45.55 2.05 1.45l-2.3-.35-1.7-.85q-.25-.2-.2-.6h.7q-.35-.55-1.05-.9l-.45-.35q-.15-.35.1-.75l.1-.15q2.1.4 4.2 1.2m-13.6-1.25q-.7.4-1.15.65l-.8.55h-.05l-1.65 1.1-3.1 2.3q.6-1.65 1.15-2.2l.75-.9h.05l.2-.2q2.1-.7 4.6-1.3m-7.8 2.75-.5.45.1-.25.4-.2"/></g><g id="d"><path fill-opacity=".533" fill-rule="evenodd" d="m3.95 6.95-.3.1.25.2.05-.3m.55-.75h.05l-.05.3v.1l-.15 1.3H4.3l-.15-.05h-.1l-.6-.3-.25-.15-.35-.55.05.05.05-.15L4.5 6.2m1.45.7-.2 1 .95-.4-.75-.6m-.45-.4.05-.05.15-.15q.15-.15.3 0l.05.05 1.2.95.1.15v.1l-.05.15-.5.4-.05.05L6 8.4l-.35.05h-.2l-.1-.05-.1-.1-.05-.15.3-1.65m1.45-2.75H6.9l-.1-.1-.25-.25-.2 1.4 1.1 1 .05-.6-.55-1.45m.35-.7.1.1q.85.8.85 2.05 0 .75-.5 1.5h-.1l-.15-.1-1.6-1.5-.05-.1-.05-.1v-.1l.25-2.1.05-.15.15-.1.15.05.9.55m-3.85.6q-.45.4-.5 1.45l1.4-.55.05-1.4q-.6.1-.95.5M5 2.4l.05.05v.15l-.2 2.1-.05.15-.1.1-2.15.85h-.1l-.05-.15q-.1-1.7.8-2.5.6-.7 1.8-.75m-3.3-.65.1-.05Q3.15.3 5.1.25h.8Q7.55.4 8.8 1.7l.1.1q1.35 1.35 1.35 3.4 0 2-1.4 3.45l-.15.15v.05Q7.25 10.1 5.25 10.1l-.6-.05h.05Q2.9 9.9 1.75 8.7L.9 7.45l-.2-.3L.25 5.2q0-2.15 1.45-3.45m3.5-.5h-.05q-1.25 0-2.25.8l-.2.15-.15.15-.15.15-.1.1-.75 1.15-.15.4-.15 1.05.35 1.45.05.1.1.15L2.5 8h-.05l.3.3.95.5 1.1.25.1.05h.35l1.85-.35.9-.7.1-.05h.05v-.05l.7-.9.4-1.85q0-1.65-1.05-2.7l-.05-.05-.05-.05-.7-.6-.2-.1-.65-.3-.75-.15h-.6"/><path fill="#2a2a2a" fill-rule="evenodd" d="m8.2 1.8.1.1q1.2 1.2 1.2 3.05 0 1.75-1.25 3.1l-.15.15Q6.8 9.4 5 9.4l-.5-.05q-1.6-.2-2.65-1.25L1 6.8l-.05-.05-.45-1.8q-.05-1.9 1.3-3.1v.05l.05-.1Q3.1.45 4.9.5h.65q1.5.15 2.65 1.3m-.45.2q-.95-.85-2.2-1h-.6Q3.4.95 2.15 2.2l-.1.05q-1.05 1.1-1 2.7l.3 1.45.05.1.05.1.75 1.15q.95.9 2.4 1.05l.4.05q1.6 0 2.8-1.05l.05-.05.1-.05Q9 6.5 9 4.95 9 3.3 7.9 2.2L7.75 2M6.8 3.3l-.05-.05-.6-.55-.3 1.9L7.3 6.05l.2-1.1q0-.9-.7-1.65m.25-.5.1.05Q8 3.7 8 4.95q0 .75-.5 1.5h-.1l-.15-.1L5.6 4.8l-.05-.1v-.1l.3-2.15.05-.15.1-.1.15.05.9.55m-5.3-.5.1-.05.2-.1-.2.1-.1.05m2.65.25q-.85.05-1.4.65-.6.55-.6 2l1.95-.75.05-1.9m.4-.35v.15L4.55 4.4l-.05.15-.1.05-2.1.95h-.1l-.1-.15q-.1-1.7.85-2.55.6-.65 1.8-.7l.05.05m-2.75-.05.15-.1-.15.1m1.8 5.2L4 6.3l-1.05.4q.35.55.9.65m.45-1.4-.25 1.7-1.1-.5-.35-.6.05.05.05-.1 1.6-.55m1.15.35.15-.05 1.25 1-.45.4-.75.25h-.4l-.05.05.25-1.65m.05 1.35.95-.4-.9-.75-.05 1.15"/><path fill="none" stroke="#000" stroke-linecap="round" stroke-linejoin="round" stroke-width=".5" d="M6.8 3.3q.7.75.7 1.65l-.2 1.1L5.85 4.6l.3-1.9.6.55.05.05m-2.4-.75-.05 1.9-1.95.75q0-1.45.6-2 .55-.6 1.4-.65m-.55 4.8q-.55-.1-.9-.65L4 6.3l-.15 1.05m1.6-1.05L5.2 7.95l.05-.05h.4l.75-.25.45-.4-1.25-1-.15.05"/><path fill="none" stroke="#000" stroke-linecap="round" stroke-linejoin="round" d="M8.2 1.8Q7.05.65 5.55.5H4.9Q3.1.45 1.85 1.8l-.05.1v-.05Q.45 3.05.5 4.95l.45 1.8.05.05.85 1.3Q2.9 9.15 4.5 9.35l.5.05q1.8 0 3.1-1.2l.15-.15Q9.5 6.7 9.5 4.95q0-1.85-1.2-3.05l-.1-.1"/><path fill="#f90" fill-rule="evenodd" d="M4.35 6.05 3 6.65l.2.25.85.55.3-1.4M6.5 7.3l-.85-1.1-.1 1.45.95-.35m1.3-2.35q0-1.15-.75-1.9H7l-.85-.6-.3 2.25L7.5 6.2l.3-1.25m-6.9 0Q.9 3.15 2.1 2l.05-.05Q3.35.7 5.05.75h.6q1.4.15 2.45 1.2V2q1.2 1.15 1.2 2.95 0 1.7-1.15 2.95L8 8Q6.8 9.15 5.1 9.15l-.45-.05q-1.5-.15-2.5-1.15L1.3 6.6v.05Q.9 5.8.9 4.95m2.3-1.9q-.8.75-.8 1.9l.05.35 2.1-.7.1-2.3q-.85.1-1.45.75"/><path fill="#8d6f05" fill-rule="evenodd" d="m3.2 7.05.8.45h.1l.05-.05q.3-.7.2-1.4.15 0 .35.55.15.6-.1 1l-.35.35q-.9 0-1.45-.95l-.1-.45.5.5M4.7 2.6q.1-.7.2-.35V2.1q.3 1.3.1 2.95-1.85.6-2.7.4l2.05-.85.25-1.25.1-.75m1 3.7.7.35.65.55v.15q-.55.7-1.8.55l-.05-.05h.25l.7-.25.45-.35-.65-.55-.15-.15-.1-.25m1.75-2.35-.3-.6-.75-.65-.5-.45q1.2 0 1.9 1.05l.45 1.2v.05l-.05.5-.3.75-.25.55.05-1.15-.25-1.25m.05-2Q6.7 1.35 5.7.9l1.45.3q1.2.7 1.8 2l.2.65q.35 1-.05 2.05l-.05.25-.25.6-.1.2-.25.55-.75.8-.05.05-.15.05-.1.05-.6.3-2.85.05 2.15-.25.95-.55.65-.55.6-.9.35-1.35q.3-2.05-1.15-3.25"/><path fill="#624604" fill-rule="evenodd" d="m7.15 2.8.1.1q.8.8.8 2.05 0 .75-.5 1.5H7.5l-.15-.05-1.6-1.55-.05-.1-.05-.1.25-2.2.05-.15.15-.1.15.05.9.55m-.25.45h-.05L6.2 2.7l-.3 1.9 1.5 1.45.15-1.1q0-.9-.65-1.7M5.65 1h-.6Q3.5.95 2.3 2.2l-.1.05Q1.15 3.3 1.15 4.95l.3 1.45.1.15v.05l.8 1.2q.9.9 2.35 1.05l.4.05q1.6 0 2.75-1.05l.05-.05.1-.05q1.05-1.2 1.05-2.8 0-1.7-1.1-2.75L7.8 2q-.95-.85-2.15-1m2.65.8.05.1q1.2 1.2 1.2 3.05 0 1.8-1.2 3.15l-.2.1Q6.9 9.4 5.1 9.4l-.5-.05Q3.05 9.2 2 8.15l-.85-1.3-.05-.1-.45-1.8q0-1.9 1.3-3.1l-.1.15.05-.05.1-.15Q3.25.45 5 .5h.7q1.45.15 2.6 1.3m-6.4.5.1-.05.2-.1-.2.1-.1.05m2.95-.15.05.05v.15l-.25 2.1-.05.1-.1.1-2.05.9h-.1l-.1-.15q-.1-1.7.8-2.5.6-.7 1.8-.75m-.35.4q-.8.05-1.35.65-.55.55-.6 2l1.9-.75.05-1.9m-2.3-.4.15-.1-.15.1m3.4 5.5q.85-.15.9-.4l-.85-.75-.05 1.15M5.55 6.3l.15-.05 1.25 1-.5.4-.65.25h-.45l-.05.05.25-1.65m-2.8.35.05-.15 1.6-.55-.2 1.75h-.05l-1.1-.55-.35-.55.05.05M4.1 6.3l-1.05.4q.35.5.9.65L4.1 6.3"/><path fill="#fef4d6" fill-opacity=".871" fill-rule="evenodd" d="M4.75 8.95Q.5 8.5 1.05 3.85 2.5.25 5.9 1q-4.1.5-4.4 3.55-.35 3.05 3.25 4.4M4.4 5.9l.05.1-1.65.45h-.05L4.4 5.9m2.95.5.05.05-1.05-.8-.75-.8.75.55 1 1m-1.9-.25L5.4 7l-.15.95q-.25.1-.25-.1l.45-1.7m.05-4.1.4.1-.3 2.7-.1-2.8"/><path fill="#fff" fill-rule="evenodd" d="M4.8 1.8q-.15.15-.35.15-.2 0-.35-.15l-.15-.4.15-.4.35-.15.35.15.15.4q0 .25-.15.4m-1.35.4-.25.1q-.1 0-.2-.1l-.1-.3.1-.25.2-.1.25.1.1.25-.1.3M2.5 3l-.2.05L2.1 3 2 2.8l.1-.2.2-.05.2.05.1.2-.1.2"/></g><g id="e"><path fill="#360" fill-rule="evenodd" d="M5.45 1.35 5.8 4.7 4.05 6.2l-1.1.4-1.25-.3-.4-.15-.25-.4L1 5.6.75 2.5q.45-1.1 1.7-.85L4 1.45l1.15-.7.3.6"/><path fill="none" stroke="#201000" stroke-linecap="round" stroke-linejoin="round" stroke-width="1.5" d="M5.45 1.35 5.8 4.7 4.05 6.2l-1.1.4-1.25-.3-.4-.15-.25-.4L1 5.6.75 2.5q.45-1.1 1.7-.85L4 1.45l1.15-.7.3.6Z"/><path fill="#360" fill-rule="evenodd" d="M5.4 4q-2 2.45-3.95 1.2l-.2-3.05q2.2.6 3.9-1.15l.25 3"/><path fill="none" stroke="#360" stroke-linecap="round" stroke-linejoin="round" d="m1.45 5.2-.2-3.05q2.2.6 3.9-1.15l.25 3m0 0q-2 2.45-3.95 1.2Z"/><path fill="#ff3" fill-rule="evenodd" d="M5.85 2.45 5.9 3.6Q3.05 5.8.95 4.9l-.1-1.25q2.4 1.05 5-1.2"/><path fill="#fff" fill-opacity=".561" fill-rule="evenodd" d="M1.5 1.75q-.25 1.65.15 3.9l.95.45q-.55-2.2-.5-4.05l-.6-.3"/></g><use xlink:href="#d" id="b" width="10.25" height="10.1"/><use xlink:href="#e" id="c" width="6.55" height="7.35"/></defs></svg>