<svg xmlns:xlink="http://www.w3.org/1999/xlink" height="92.9" width="100.7" xmlns="http://www.w3.org/2000/svg"><use height="38.95" transform="translate(17.2 36.65)" width="41.55" xlink:href="#a"/><defs><g id="a" fill-rule="evenodd"><path d="M10.4-3.35v-.05q-.35-1.65-1.55-3.45L8.4-7.5q-1-1.3-2.85-2.25-1.75-.9-4.2-1.55-4.9-1.3-8.75-.65-3.65.45-6.45 2.7l-.3.35q-1.2 1-2.1 2.4l-.15.1v.1l-.1.1.5.8.25.15.6 1.4.1.9 2.6-1.05.6-.2.7-.25 1.05-.35.55-.15 1.2-.3.85-.2.7-.15 5.7-.8L.95-6 3.9-3.65l.4.5.05-.05v.05q.5-.55 1.15-.8l1.9-.1 1.4.25.85.25.75.25v-.05m3.9 7.55v-.05L12.6 2.6q1.2 1.05 1.2 1.7.05 1.15-4.3-1.5l-2-1.45Q5.4 0 3.3-.85l-1.7-.6L4.3.05l-2.7-1.5 1.7.6q2.1.85 4.2 2.2l2 1.45q4.35 2.65 4.3 1.5 0-.65-1.2-1.7l1.7 1.55v.05l-.05.05 1.1 1.15-1.05-1.2M9.5 2.8q5.25 4.15 8.75 10.8.55-1.4-.35-3.95-.9-2.4-2.55-4.25Q17 7.25 17.9 9.65q.9 2.55.35 3.95-3.5-6.65-8.75-10.8M1.7-2.95 3.35-3Q1-5.7-.55-5.8q-1.55-.25-5.8.7l-.45.1-.95.25-3.35.95-1.35.45-2.5 1.15-.05.05-.7.4-.4.3q-1.5.8-2.6 2.1l-.2.2q-1.6 1.6-1.2 1.8l1.5-.15 4.9-.4 1.05-.6 4.3-1.9q5.2-2 10.05-2.55m3.75.05-.1.1-.9.55q2.8.7 5.3 2.1 2.5 1.4 4.75 3.5 0-1.15-1-2.3l-1.15-1.1-.3-.25q-1.45-1.15-3.8-2.3v-.05l.25.1.5-.2L8.2-3l-1.6-.2-1.15.3M1.6-12.3q6.65 1.65 8.5 5.3 1.35 2.75 1.65 5.2v.05q3.65 2.5 3.65 4.9l-.15.65q1.65 1.55 2.85 4.3 1.05 2.35 1.15 3.95v.3q0 .85-.55 1.7 1.4 1.95 1.4 5 0 1.25-.4 2.45-.9 2.75-3.35 3.15l-1.1.15.05-2.35q0-4.8-2.6-7.95.15 1.6-.6 2.85-.75 1.35-2.15.65-.4-.25-1-2.95L8 10.85q-.7-2.5-3.5-5.5Q4.35 6.5 4 7q-.65.9-1.8.95Q.75 8-.4 5.25l-.8-1.55-1.45 2.15q-1.15 1.65-3.15.8l-.85-.75q-.9 1.45-1.6 3.5L-9 11.3q-1.15 1.85-2.55 1.85-.3 4.3 1.35 7.35.35.7.15 1.9-.25 1.2-.9 1.85-1.8 1.75-3.95-2.9l-.45-1.1-.1 2.85.05 2.75-1.1-.15q-4.35-.6-4.35-4.85 0-1.3.6-2.95-.8-1.75-.8-3.3 0-5.3 3.5-9.1l-.2-.7.3-1.45h-.35l-3.45-.1-.2-.4.05-.25q1.15-3.2 5.2-5.3l-.35-1.7q-1.5-1.5-1-2.2l.05-.15q2.8-4.3 8.3-5.8 4.6-1.25 10.8.25m10.25 24.05-.1-.1.4.65.9 1.2 1.45 1.75q1.95 3.1 1.75 8.35h.05v.1q2.35-.3 3-3.5.7-3.3-1.5-5.95l-.1.1q-2.15-4.2-5-7.55l-.1.5q-.1.2-3.4-2.8 1.1 1.45 1.9 3.3 1.2 2.6 1.85 5.4l-1.1-1.45m-.4-.6.1.15-.05-.1q-.85-4.05-3.1-6.9-.55.7-.9.65L4.85 3.3 3.8 2.45l.5 1.2v.05q3.1 2.45 4.65 7.6l.6 1.95 1.05 3.65.05.05q.9.3 1.2-1.8.35-2-.4-4m-12.4-8.9q.6.65 1.6 3 .7 1.7 1.5 1.65Q4.3 6.85 3.4 3.25 2.65.95-.25.15q2.9.4 4.05 2.3Q2.65.55-.25.15q2.9.8 3.65 3.1.9 3.6-1.25 3.65-.8.05-1.5-1.65-1-2.35-1.6-3-1 0-2.1.65-.6.35-.6 1.25 0 1.05-.5 1.6.35.05 2.05-2.45.45-.75 1.05-1l.1-.05M-6.9 3.7q.2-.75.8-1.5Q-4.7.3-1.6-.2q-2.65.65-4 2.45l-.7 1.45q-.2 1.6 1 2.05 1.25.45 1.9-.5 1.75-2.6 2.35-2.95-.6.35-2.35 2.95-.65.95-1.9.5-1.2-.45-1-2.05l.7-1.45q1.35-1.8 4-2.45-3.1.5-4.5 2.4-.6.75-.8 1.5-2 4.4-2.8 5.2-.4.4-.55 1.35-.15.95-.95 1.8h.05q1.25-.3 1.85-2.25.55-2.05 1.25-3.45l.1-.2.45-.8.5-.7.1-.95m-9 12.3.2-2.1q.5-3.2 1.9-5.65l2.15-2.35q1.3-1.9 3.6-3.75-3.1 2.8-4.3 5.8l-.55 2.25q.15 2 1.3 1.95l.45-.1-.45.1q-1.15.05-1.3-1.95l.55-2.25q1.2-3 4.3-5.8-2.3 1.85-3.6 3.75l-2.15 2.35q-1.4 2.45-1.9 5.65l-.2 2.1-.6 1.45q-1.5 3.7.1 7.25v.05l.2-5 .4-1.85-.05-.1-.05-1.8m-.6-10.2q-4.9 5.2-3.3 10.6.7-2.15 2-4.6Q-13.7 4.45-6.25.9q-6.2 3.35-10.35 10.75-1.85 3.3-2.7 6.15l.05.1q-1.6 3.8.45 5.7 1.05.95 2.4 1.1-1.35-.15-2.4-1.1-2.05-1.9-.45-5.7l-.05-.1q.85-2.85 2.7-6.15Q-12.45 4.25-6.25.9-13.7 4.45-17.8 11.8q-1.3 2.45-2 4.6-1.6-5.4 3.3-10.6l2.6-2.35.8-.55-1.25.1-1.9.2q-.65 1.05-.5 1.95l-.45.35-.15 1.05.85-.75m5.45-3.8-1.8.75-.1.1-.15.05.15-.05.1-.1 1.8-.75q-4.35 2.75-6.65 5.65-1.25 1.6-1.7 4.5l-.2 2.6 1.9-5.95q1.75-3.4 7.5-7.15l-.85.35m23.65.6q-4-3.3-9.35-4.75Q.1-2.45-4.85-.7l-5.35 2.35L-4.85-.7Q.1-2.45 3.25-2.15 8.6-.7 12.6 2.6M6.95 1.55Q5.85.75 4.4.1L4.3.05l-.85-.3 3.15 1.9q2.65 2.05 1.85 1.2l-1.5-1.3.35.2q2.95 2.2 5.4 5.05-2.45-2.85-5.4-5.05l-.35-.2M9.2 4.5Q7.15 1.85 4 .45 6.65 2 8.4 4.3 6.65 2 4 .45q3.15 1.4 5.2 4.05m-22.55 6.6.1-1.7.5-1.55-.5.8-.1.15q-1.3 2.2-1.6 4.9l-.05.3-.05 1.25v.45l.1 1.75.2 1.6q.75 3.7 2.3 4.55.85.45 1.35-.65.45-1.05 0-2.15-.9-2.1-1.15-4.45l-.1-1.35v-2.15l.2-.05-1.2-1.4v-.3" fill="#1a171b" transform="translate(21.45 13.1)"/><path d="m14.3 4.2 1.05 1.2-1.1-1.15.05-.05m-8.95-7 2.8 1.15Q11.3.25 10.2-.8 8.8-2.2 5.75-2.85l-.3-.05 1.15-.3 1.65.55v.05q2.35 1.15 3.8 2.3L11-1l-.05-.05L11-1q.8.55.6 1.2L9.75-.15q-2.5-1.4-5.3-2.1l.9-.55m.3 2-2.5-.9 2.15 1 3.8 2q4 2.55 3.05 1.6Q10.1 1 5.65-.8m6.2 12.55.3.55-.4-.65.1.1m2.65 3.5.1.1q1.9 3 1.7 8.25h-.05q.2-5.25-1.75-8.35m-3-4.05.05.1-.1-.15-.1-.25.15.3m-1.95 2.05-.6-1.95Q7.4 6.15 4.3 3.7v-.05L6.1 5.4q2.1 2.3 3.25 7.15l.2.7m-25.4 4.55.05.1-.4 1.85.35-1.95m-.9-12.65q-.15-.9.5-1.95l1.9-.2-2.4 2.15M1.6 4.6q.45 1.05.85.75.35-.25.2-1.05-.15-1.4-1.5-2.45l-1.3-.8q.55.5 1.75 3.55m3.1-2.85q2.85 2.3 2.05 1.3Q5.35 1.35 2.3 0l-.75-.25 3.15 2m12.85 17.4q-.2-3.25-2.9-6.7l1.55 1.9q2.2 3.3 2 6.1-.1 1.05-1.1 1.6.55-1.05.45-2.9M7.45 5.35q4.2 5.1 2.7 8.85l-2.7-8.85M-5 5.1l.15-1q.4-2.25 2.25-3.45-2.3.85-2.8 2.6-.2.9 0 1.6.3.45.4.25m-2.5-2.6-1.95 2.2q-2.1 2.5-2.55 4.25-.8 2.75.55 2.45.55-.55.55-2.45 0-1.35 1.7-4.05l1.7-2.4m-7.45 11.2q.3-2.7 1.6-4.9l.1-.15.5-.8-.5 1.55-.1 1.7-.05.15.05.15 1.2 1.4-.2.05V15l-.05.15.15 1.2q.25 2.35 1.15 4.45.45 1.1 0 2.15-.5 1.1-1.35.65-1.55-.85-2.3-4.55l-.2-1.6-.1-1.75v-.45L-15 14l.35-1.1-.3.8m.4-.8.05 3q.15 3.3.9 5 1.2 2.7 2 1.7 0-.9-1.2-2.4-.85-1.1-1.4-4.3l-.35-3m-4.8 6.55q-.6 3.2 2.4 4.45-1.9-1.65-1.45-5.6.45-4.15 3.45-8.6-3.15 3.7-4.4 9.75" fill="#563838" transform="translate(21.45 13.1)"/><path d="m5.35-2.8.1-.1.3.05Q8.8-2.2 10.2-.8q1.1 1.05-2.05-.85L5.35-2.8m.3 2q4.45 1.8 6.5 3.7.95.95-3.05-1.6l-3.8-2-2.15-1 2.5.9M-11.05 2l.85-.35q-5.75 3.75-7.5 7.15l-1.9 5.95.2-2.6q.45-2.9 1.7-4.5 2.3-2.9 6.65-5.65m18-.45 1.5 1.3q.8.85-1.85-1.2L3.45-.25l.85.3.1.05q1.45.65 2.55 1.45M1.6 4.6Q.4 1.55-.15 1.05l1.3.8Q2.5 2.9 2.65 4.3q.15.8-.2 1.05-.4.3-.85-.75m3.1-2.85-3.15-2L2.3 0q3.05 1.35 4.45 3.05.8 1-2.05-1.3M-5 5.1q-.1.2-.4-.25-.2-.7 0-1.6.5-1.75 2.8-2.6-1.85 1.2-2.25 3.45l-.15 1m-2.5-2.6-1.7 2.4q-1.7 2.7-1.7 4.05 0 1.9-.55 2.45-1.35.3-.55-2.45.45-1.75 2.55-4.25l1.95-2.2m-7.05 10.4.35 3q.55 3.2 1.4 4.3 1.2 1.5 1.2 2.4-.8 1-2-1.7-.75-1.7-.9-5l-.05-3m-4.8 6.55q1.25-6.05 4.4-9.75-3 4.45-3.45 8.6-.45 3.95 1.45 5.6-3-1.25-2.4-4.45" fill="#7e5351" transform="translate(21.45 13.1)"/><path d="m12.05-.3.3.25 1.15 1.1q1 1.15 1 2.3-2.25-2.1-4.75-3.5L11.6.2q.2-.65-.6-1.2l1.05.7m.1 12.6-.3-.55 1.1 1.45q-.65-2.8-1.85-5.4-.8-1.85-1.9-3.3 3.3 3 3.4 2.8l.1-.5q2.85 3.35 5 7.55l.1-.1q2.2 2.65 1.5 5.95-.65 3.2-3 3.5v-.1q.2-5.25-1.7-8.25l-.1-.1-1.45-1.75-.9-1.2m-.7-1.15q.75 2 .4 4-.3 2.1-1.2 1.8l-.05-.05-1.05-3.65-.2-.7Q8.2 7.7 6.1 5.4L4.3 3.65l-.5-1.2 1.05.85L7.5 4.95q.35.05.9-.65 2.25 2.85 3.1 6.9l-.15-.3.1.25m-12.4-8.9-.1.05q-.6.25-1.05 1-1.7 2.5-2.05 2.45.5-.55.5-1.6 0-.9.6-1.25 1.1-.65 2.1-.65M-6.9 3.7l-.1.95-.5.7-.45.8-.1.2q-.7 1.4-1.25 3.45-.6 1.95-1.85 2.25h-.05q.8-.85.95-1.8.15-.95.55-1.35.8-.8 2.8-5.2m-9 12.3.05 1.8-.35 1.95-.2 5v-.05q-1.6-3.55-.1-7.25l.6-1.45m33.45 3.15q.1 1.85-.45 2.9 1-.55 1.1-1.6.2-2.8-2-6.1l-1.55-1.9q2.7 3.45 2.9 6.7M7.45 5.35l2.7 8.85q1.5-3.75-2.7-8.85m-20.8 5.75v.3l-.05-.15.05-.15M-15 14l.05-.3.3-.8L-15 14" fill="#422828" transform="translate(21.45 13.1)"/><path d="M5.55-9.75Q7.4-8.8 8.4-7.5l.45.65q1.2 1.8 1.55 3.45v.05l-.75-.2q-.4-1.95-1.7-3.7-1.15-1.6-4.6-2.8-4.2-1.45-9.2-1.1-2.7.2-4.8 1l-.7-.25-.55.85-1.45.9q-1.55 1.2-2.05 2.4-.15.3 1.4 2.5l-1 .45-.15-.55-.6-1.4-.65-1.05v-.1l.15-.1q.9-1.4 2.1-2.4l.3-.35q2.8-2.25 6.45-2.7l1.5-.1q5.1-.1 9.3 1.4l2.15.9M-.55-5.8l.25.05q1.8.55 3.05 2.35L-.6-5.1l-5.85.75q-5.1 1.2-8.1 2.7L-17.8.65Q-19.25 2-19.25 2.3l5.15-.25-4.5.45-1.5.15q-.4-.2 1.2-1.8l.2-.2q1.1-1.3 2.6-2.1l.4-.3.7-.4.05-.05 2.5-1.15 1.35-.45 3.35-.95.95-.25.45-.1q4.25-.95 5.8-.7" fill="#89e80f" transform="translate(21.45 13.1)"/><path d="m6.6-3.2 1.6.2.8.25-.5.2-.25-.1L6.6-3.2m-23.1 9-.85.75.15-1.05.45-.35 2.4-2.15 1.25-.1-.8.55-2.6 2.35" fill="#1d1d24" transform="translate(21.45 13.1)"/><path d="m5.55-9.75-2.15-.9q-4.2-1.5-9.3-1.4l-1.5.1q3.85-.65 8.75.65 2.45.65 4.2 1.55M-16.4-6.3l.65 1.05-.25-.15-.5-.8.1-.1m1.25 2.45.15.55 1-.45q-1.55-2.2-1.4-2.5.5-1.2 2.05-2.4l1.45-.9-.65 1.75-2.5 1 2.6 1.1V-4l-2.6 1.05-.1-.9m4.5-6.3q2.1-.8 4.8-1 5-.35 9.2 1.1 3.45 1.2 4.6 2.8 1.3 1.75 1.7 3.7l.75.2v.05l-.75-.25-.85-.25-1.4-.25-1.9.1q1.5-.7 3.7.25Q8.75-6.35 6.7-8q-1.05-.85-3.35-1.65-2.45-.85-3.8-.7-1.15.15-.1 1.7L.95-6l-2.05-.4-5.7.8-1.3-1.3 1.4-1.3q1.1-1.1.9-1.4l-3.55.45q-.8-.7-1.3-1m15 6.95-.05.05-.4-.5.45.45m-13.9-1.75-.55.15.2-.2.35.05m9-.85Q1-5.7 3.35-3l-1.65.05.1-.05Q-.05-4.75-1.1-4.75l-6 1.4-6.05 1.8q-1.3.55-2.8 2.55l3.3.5-1.05.6-4.9.4 4.5-.45-5.15.25q0-.3 1.45-1.65l3.25-2.3q3-1.5 8.1-2.7L-.6-5.1l3.35 1.7Q1.5-5.2-.3-5.75l-.25-.05" fill="#699c1a" transform="translate(21.45 13.1)"/><path d="m-11.9-9.55.55-.85.7.25q.5.3 1.3 1l3.55-.45q.2.3-.9 1.4l-1.4 1.3 1.3 1.3-.7.15-1.2-1.5 1.65-1.95-2.8.7-1.3-1.4-.6 2-2.2.8 2 .8.1 1.8-.6.2v-1.7l-2.6-1.1 2.5-1 .65-1.75m3.55 4.3-1.2.3L-9.9-5l-.2.2-1.05.35 1.05-1.05 1.75.25" fill="#521818" transform="translate(21.45 13.1)"/><path d="m-7.5-5.45-.85.2-1.75-.25-1.05 1.05-.7.25-.1-1.8-2-.8 2.2-.8.6-2 1.3 1.4 2.8-.7-1.65 1.95 1.2 1.5" fill="#f74a00" transform="translate(21.45 13.1)"/><path d="M5.5-3.95q-.65.25-1.15.8v-.05l-.45-.45L.95-6l-1.5-2.65q-1.05-1.55.1-1.7 1.35-.15 3.8.7 2.3.8 3.35 1.65 2.05 1.65 2.5 4.3-2.2-.95-3.7-.25M-12.65 1.5l-3.3-.5q1.5-2 2.8-2.55l6.05-1.8 6-1.4q1.05 0 2.9 1.75l-.1.05Q-3.15-2.4-8.35-.4l-4.3 1.9" fill="#546b35" transform="translate(21.45 13.1)"/></g></defs></svg>