<svg xmlns="http://www.w3.org/2000/svg" xmlns:xlink="http://www.w3.org/1999/xlink" width="100.7" height="92.9"><use xlink:href="#a" width="39.95" height="34.7" transform="translate(18.2 38.9)"/><defs><g id="a" fill-rule="evenodd"><path fill="#1d1d24" d="M27.4 5.25q-.25 1.4-1.35 2.35l1.35.3q2.25.6 3.35 1.45Q32.25 9 33 7.8q1.05-1.6-1.4-3.1-1.15-.7-3-.7l-1.1.1v.6l-.1.55M25.9.95q1.1.8 1.45 2.5Q30 3 31.8 4.15q1.95 1.2 1.95 2.65l-.05.5q-.4 1.7-2.6 2.35.6.95.7 1.85.85.2 1.85 1.2 3.65 3.65 5.7 10.25.6 1.9.6 3.85 0 2.55-.9 3.8-.6.75-1.6.75-1.75 0-2.85-4.4-.95 1.65-2.05 1.65-1.2 0-2.05-3.1l-.25-.85q-1-3.25-4.6-8.6l-.3 1.1q-.8 1.7-2.65 2-1.45.4-2.3-1.05l-1.15-2.4-.85-1.25-.15-.15q-1.15-.5-2.65 1-4.55 4.35-3.7 9.6l.1.45q1.2 6.5-1.7 7.35-1.05.25-1.8-.3-1-.6-1.7-2.5-.7 3.1-1.5 3.8-1.5 1.35-3.1.85-1.5-.5-2.1-3.5l-.1-1.2q0-2.7 1.65-6.25 1.55-3.35 3.4-5.1l-.1-1.85q0-1.9.5-3.3-4.5 1.05-4.2-1.9l.7-1.75q1.8-2.45 5.3-3.15-.5-1.1-.5-1.8 0-1.05.75-1.8 2.55-2.4 6.55.8 1-2.85 2.8-3.75l3.2.15q1.05.85 1.05 1.9Q23.25.15 24.9.5l1 .45m1 4 .05-1.2-.75-1.65q-.4-.9-1.2-.95Q23.5.7 21.4 2.7q-.95 1.45-1.2 3v1.2l5.1.55q1.2-.85 1.55-2.2l.05-.3M15.15 9.4q1.1-.6 2.8-.8 3.35-.35 5.25 1.75l.3.35 1.2 1.55q.85 1.3 1.05 2.4l.05.55 2.5 3.9-.05.1 1.25 2.05 1.35 3.3q.95 3.15 1.9 3.15 1.95 0 1.95-2.95l-.15-1.85q-.15-1.45-1.4-4.2l-.1-.2-.2-.4-1.15-2.2 1.25 1.9 1.55 3.05.1.25.25.7.2.75q.6 2.25.4 5l.5 1.7q.6 1.35 1.65 1.35 1.2 0 1.6-2.35.4-2.4-.5-5.1l-.25-.8.1.05-.65-1.45.05.05-.4-1.05-.15-.1L36 17.2l-2.65-4L31.4 12q0-.85-.35-1.55-1.4-1.5-5.25-2.35-5.15-1.15-8-.55-2.5 1.15-2.9.95-.4-.15-.75-1.4-.35-1.35-.05-2.6h.05Q10.25 1.25 8 3.45q-.9.9-.4 2.35l.65 1.3h-.1l.15.15v.05q2.25 2.35 4.1 2.25-1.45.2-2.95-.8L8.15 7.5l-.2-.15-.2-.2Q4.5 7.4 2.5 10.1q-1.15 1.55-.2 2.35l.75.4 2.3.15 1.45-1q1.75-1.3 3.75-1.9L6.5 12.75q-1.2 2.15-.8 6.05-2 1.8-3.65 5.6l-.05.1h-.1l-.7 1.35h.25l1.65-.35.6.05q.85.05 1.5.5.65.4 1.1 1.1v.05-.05l.25 1.8-.15 1-.05-.2.05.2.15-1 .05-.2-.3-1.55-.05-1.05.05-2.2.4-3.05-.05 1.4-.05 1.25v.1l.05 1.4.25 2.8.55 2.25q.95 2.3 2.55 1.85 1.65-.5 1.7-2.75.05-1-.55-4.15l-.1-1.1.1.05v-1.3l.15-1.2-.05-.05q.75-3.35 4.05-6.5l1.4-.9 1.85-.15.3.25.8 1.15.95 1.95.65.95q.65.65 1.4.5 1.55-.3 2.25-1.65l.4-1.2-.05-.15-.05-.95-.3-.75.2.25q-.6-2.25-3.05-4.1l-.25-.2Q20 8.75 17.6 8.9l-.6.05-1.4.3-.55.2h.05l-.2.05.25-.1M1 27.35H.8l.6-1.5-.6 1.5H1q-.6 2.15-.25 3.7.5 2.45 1.85 2.85 1.15.3 2.3-.7.65-.65 1.45-3.45-.5-1.6-1.7-2.25l-1.2-.4-.3-.05-1 .15-.5.05-.65.1m14.25-19.6q.95.15 2.95-.65l1.4-.2q-.05-1.45.75-3.2l.5-.85Q20.5.6 18.3.4q-2.55-.25-3.85 4.2l.05 1.5q.15 1.6.75 1.65"/><path fill="#2d2d2d" d="M27.5 4.7v-.6l1.1-.1q1.85 0 3 .7 2.45 1.5 1.4 3.1-.75 1.2-2.25 1.55-1.1-.85-3.35-1.45l-1.35-.3q1.1-.95 1.35-2.35l1.25.2q1.65.45 2 1.35.35.95 1.75.75 1.35-.15.65-1.15-1.8-2.55-4.8-2l-.75.3m-1.3-2.6.75 1.65-.05 1.2-1.3.5 1.25-.2q-.35 1.35-1.55 2.2l-5.1-.55V5.7q.25-1.55 1.2-3 2.1-2 3.6-1.55h-.15q-3.5.1-4.05 3.7-.25 1.5 1.2.75 2.15-1.2 2.7-1.15l1.9-.25-.4-2.1M15.15 9.4l-.25.1.2-.05h-.05l.55-.2 1.4-.3.6-.05 3.4.75.8.3.25.2q2.45 1.85 3.05 4.1l-.2-.25.3.75.05.95.05.15-.4 1.2q-.7 1.35-2.25 1.65 1.6-.45 1.3-3.25-.3-2.9-2.4-4.45-3.65-2.65-7.25-.75-1.2.65-.9 2.6.3 1.9 1.4 2.3L16.2 14l2.35-.1-1.85.15-1.4.9q-3.3 3.15-4.05 6.5-.6-.4-1.4-.5.7-3 3.15-5.55-1.5.1-2.95 1.2-2.05 1.6-2.6 4.7l-.45.4-.35.6.05-1.4-.4 3.05-.05 2.2-.05-.35-.55-.8q-.05-4.6 2.4-7.75-4.1 3.3-5.6 7.25H2l.05-.1q1.65-3.8 3.65-5.6-.4-3.9.8-6.05l4.05-2.65q-2 .6-3.75 1.9l-1.45 1-2.3-.15 1.35-.35q2-.85 3.3-2.15.5-.5.35-1.85l.1-1 1.3 1.25q1.5 1 2.95.8-1.85.1-4.1-2.25l.05-.05H8.3l-.15-.15h.1L7.6 5.8q-.5-1.45.4-2.35 2.25-2.2 6.15 1.05h-.05q-.3 1.25.05 2.6.35 1.25.75 1.4.4.2 2.9-.95 2.85-.6 8 .55 3.85.85 5.25 2.35.35.7.35 1.55l1.95 1.2 2.65 4 1.4 2.65-.2-.1-.3-.6-2.8-4.6q-.8-1.35-2.55-1.9-1.7-.55-1.6.2 0 .35 1.45 1.6 1.6 1.45 2.2 2.75l1.1 2.55-.5.25.3.85-1.55-3.05-1.25-1.9 1.15 2.2-.3-.4q-.45-.25-.9-.35l-1.15-1.8q-1.95-3-3.95-3.75l-1.65-.2q-.35-.05-.2.65l-1.2-1.55 2.25-.1q3 .05 4.1.75Q29.75 9.5 28.1 9l-4.25-1q-5.6-1.3-8.7 1.4m6.1 8.8-.65-.95-.95-1.95 1 1.95.6.95m-10.2 5.75.1 1.1q.6 3.15.55 4.15-.05 2.25-1.7 2.75-1.6.45-2.55-1.85l-.55-2.25-.25-2.8q.2-.55.6-.85.25 8.15 2.9 7.4 1.3-.4.3-3.05-.95-2.6-.95-4.95l1.55.35M1 27.35l.65-.1Q.2 33.35 3 32.65q.75-.15 1.2-2.95l.45-2.2q1.2.65 1.7 2.25-.8 2.8-1.45 3.45-1.15 1-2.3.7-1.35-.4-1.85-2.85-.35-1.55.25-3.7m32.15-8.65q1.25 2.75 1.4 4.2l.15 1.85q0 2.95-1.95 2.95-.95 0-1.9-3.15l-1.35-3.3.15.25.2-.15.25.5 2.6 4.7q1.05.2 1.15-3.15.05-1.45-.9-3.6.4.1.8.35l-.75-1.5.15.05m-4.85.4-2.5-3.9-.05-.55.05.1 2.65 4-.15.35m6.75 3.45.55-.3q1.2 3.75 1.6 7.6.45 1.15 1.25.2.9-1.1.65-4.25-.15-1.65-.8-3.55l.15.1.25.8q.9 2.7.5 5.1-.4 2.35-1.6 2.35-1.05 0-1.65-1.35l-.5-1.7q.2-2.75-.4-5M9.45 2.85q-.65.05-1 .45-1 .65-.65 1.7l.2.35.9 1.6 1.8 1.7-.45-1.3q-.3-1.35.4-1.75l2.15-.55q1.1-.35 0-1.2-.75-.6-1.55-.85l-1.8-.15m-7.15 9.6q-.95-.8.2-2.35 2-2.7 5.25-2.95l.2.2-2.55.7q-3 1.2-3.25 3.3-.1.75.15 1.1M17.65.65q-1.3.25-2.15 2.3-.8 1.95-.6 3 .3 1.7 1.25.25l2.2-2.65q1.55-1.45 2.1-.8Q20.35.9 18.9.6L18 .55l-.1.05h-.2l-.05.05m-4.1 9.1-3.05.9q-2.45.95-3.05 1.7-1.5 1.9-1.3 5.7 1-1.6 5.5-4.5.2-1.35 1.05-2.7l.85-1.1m1.7-2q-.6-.05-.75-1.65l-.05-1.5Q15.75.15 18.3.4q2.2.2 2.55 2.45l-.5.85q-.8 1.75-.75 3.2l-1.4.2q-2 .8-2.95.65m.35 1.5-.5.2.5-.2"/><path fill="#353535" d="m27.5 4.7.75-.3q3-.55 4.8 2 .7 1-.65 1.15-1.4.2-1.75-.75-.35-.9-2-1.35l-1.25-.2.1-.55m-1.3-2.6.4 2.1-1.9.25Q24.15 4.4 22 5.6q-1.45.75-1.2-.75.55-3.6 4.05-3.7H25q.8.05 1.2.95m.65 3.15-1.25.2 1.3-.5-.05.3m-4.4-2.65-.4 1.1q2.1-1.85 4.05-1.2-.25-1.2-1.45-1.15-1.5.1-2.2 1.25m1.05 8.1-.3-.35q-1.9-2.1-5.25-1.75-1.7.2-2.8.8 3.1-2.7 8.7-1.4l4.25 1q1.65.5 1.75 2.35-1.1-.7-4.1-.75l-2.25.1m-5.9-1.8q2.4-.15 4.2 1.05l-.8-.3-3.4-.75m5.05 9.8q-.75.15-1.4-.5l-.6-.95-1-1.95-.8-1.15-.3-.25-2.35.1-1.4 1.15q-1.1-.4-1.4-2.3-.3-1.95.9-2.6 3.6-1.9 7.25.75 2.1 1.55 2.4 4.45.3 2.8-1.3 3.25m-21 8.55.5-.05-.25 3.2q.05 1.95.55 1.95 1.45 0 1.1-2.75l-.1-2.5 1.2.4-.45 2.2q-.45 2.8-1.2 2.95-2.8.7-1.35-5.4m23.05-15q-.15-.7.2-.65l1.65.2q2 .75 3.95 3.75l1.15 1.8-1.6.1q-2.65-4.5-3.35-3.8-.3.35 2.2 4.45l-.4.45-.05.2-2.65-4-.05-.1q-.2-1.1-1.05-2.4m10 7.5-1.1-2.55q-.6-1.3-2.2-2.75-1.45-1.25-1.45-1.6-.1-.75 1.6-.2 1.75.55 2.55 1.9l2.8 4.6.3.6-.3-.15-.35-.15-1.4-2.5-1.85-2.8 2.35 5.25q-.45.1-.95.35M8.3 7.25h.05l-.05.05v-.05m-.15.25-.1 1q.15 1.35-.35 1.85-1.3 1.3-3.3 2.15l-1.35.35-.75-.4q-.25-.35-.15-1.1.25-2.1 3.25-3.3l2.55-.7.2.15m-5.7 17q1.5-3.95 5.6-7.25Q5.6 20.4 5.65 25l-1.15-.7-.45.05q.6-1.75 1.9-3.25l.65-1.95-1.85 2.25q-1.2 1.65-1.8 3.05l-.5.05m30.3-17.45q.2-.3-.1-1-.25-.6-1.3-1.1L30.3 4.6 32.15 7l.6.05m-1.3 12.9 1.5-.15q.95 2.15.9 3.6-.1 3.35-1.15 3.15l-2.6-4.7-.25-.5.65-.7L32.6 25q.35.2-.05-1.85-.4-2.1-1.05-3.15l-.05-.05m4.15 2.3.4-.3.75-.1.15.35.65 4.2q.3 2.6.65 2.5.45-.1.3-2.65-.15-2.35-.55-3.55l-.25-.7.6.25q.65 1.9.8 3.55.25 3.15-.65 4.25-.8.95-1.25-.2-.4-3.85-1.6-7.6m-14.65-6.7q.6 1.45 1.9.35.85-.7-.7-3.35Q21.3 11 19 11.1l-3.2.35q-1-.05-.3-.65l.85-.65-1.25.3q-1.15.6-1.1 1.85.1 1.1 1.1.75l2.45-.45q1.95-.35 3.4 2.95M9.45 2.85l-.85.3-.15.15q.35-.4 1-.45M8 5.35l.5.7q-.55-.95.95-2.25l3.1.05-1.3-.85q.8.25 1.55.85 1.1.85 0 1.2l-2.15.55q-.7.4-.4 1.75l.45 1.3-1.8-1.7-.9-1.6M2.65 10.8q-.5 2.6 1.7.3.6-.6 1.1-1.8.45-1.05 1.05-1.35l-1.8.75q-1.85 1-2.05 2.1m15-10.15q-1 .3-1.85 1.8L15.15 4q1.05-2.1 2.95-2.45 1.05-.2.95-.7L18.9.6q1.45.3 1.55 2.15-.55-.65-2.1.8l-2.2 2.65q-.95 1.45-1.25-.25-.2-1.05.6-3Q16.35.9 17.65.65m-4.1 9.1-.85 1.1q-.85 1.35-1.05 2.7-4.5 2.9-5.5 4.5-.2-3.8 1.3-5.7.6-.75 3.05-1.7l3.05-.9m-7.05 6.7 3.45-2.9q-.95-1.4-2.55-.1l-.9 3m.95 4.85q.55-3.1 2.6-4.7 1.45-1.1 2.95-1.2-2.45 2.55-3.15 5.55l-.75-.1h-.15v-.1q.5-2.75 2.55-4.55l-1.7 1.4q-1.55 1.6-1.95 3.45l-.4.25m1.4 2.3h.65q0 2.35.95 4.95 1 2.65-.3 3.05-2.65.75-2.9-7.4l.35-.25.2 2.65q.4 2.55 1.2 3.3 1.6 1.45.25-2.1l-.35-3.4-.05-.8"/><path fill="#5a5a5a" d="M22.45 2.6q.7-1.15 2.2-1.25 1.2-.05 1.45 1.15-1.95-.65-4.05 1.2l.4-1.1M2.15 27.2l1-.15.3.05.1 2.5q.35 2.75-1.1 2.75-.5 0-.55-1.95l.25-3.2m30.6-20.15-.6-.05-1.85-2.4 1.05.35q1.05.5 1.3 1.1.3.7.1 1m2.9 12.35-2.35-5.25 1.85 2.8 1.4 2.5-.9-.05m-4.2.55.05.05q.65 1.05 1.05 3.15.4 2.05.05 1.85l-2.1-4.35.3-.35.65-.35m5.3 1.9.95.15.25.7q.4 1.2.55 3.55.15 2.55-.3 2.65-.35.1-.65-2.5l-.65-4.2-.15-.35M28.9 18.1q-2.5-4.1-2.2-4.45.7-.7 3.35 3.8h-.1l-1.05.65m-7.95-2.55q-1.45-3.3-3.4-2.95l-2.45.45q-1 .35-1.1-.75-.05-1.25 1.1-1.85l1.25-.3-.85.65q-.7.6.3.65l3.2-.35q2.3-.1 3.15 1.45 1.55 2.65.7 3.35-1.3 1.1-1.9-.35M8.45 3.3l.15-.15.85-.3 1.8.15 1.3.85-3.1-.05q-1.5 1.3-.95 2.25l-.5-.7L7.8 5q-.35-1.05.65-1.7m-5.8 7.5q.2-1.1 2.05-2.1l1.8-.75q-.6.3-1.05 1.35-.5 1.2-1.1 1.8-2.2 2.3-1.7-.3M18.9.6l.15.25q.1.5-.95.7-1.9.35-2.95 2.45l.65-1.55q.85-1.5 1.85-1.8L17.7.6h.2l.1-.05.9.05M6.5 16.45l.9-3q1.6-1.3 2.55.1l-3.45 2.9m1.35 4.6q.4-1.85 1.95-3.45l1.7-1.4Q9.45 18 8.95 20.75v.1H8.7l-.85.2m-4.9 3.4q.6-1.4 1.8-3.05l1.85-2.25-.65 1.95q-1.3 1.5-1.9 3.25l-1.1.1m5.9-.85.05.8.35 3.4q1.35 3.55-.25 2.1-.8-.75-1.2-3.3l-.2-2.65 1.25-.35"/><path fill="#f7ef00" d="M11.15 22.7V24l-.1-.05-1.55-.35h-.65l-1.25.35-.35.25q-.4.3-.6.85l-.05-1.4v-.1q.85-1.65 2.7-1.45 1 .1 1.85.6m18.35-1.45-1.25-2.05.7 1.05 1.8-1.6 1.55-.2.7.2.75 1.5q-.4-.25-.8-.35l-1.5.15-.65.35-.3.35-.65.7-.2.15-.15-.25m5.1-.15 1-.5.55-.1 1 .1.6.3.15.05.65 1.45-.1-.05-.15-.1-.6-.25-.95-.15-.75.1-.4.3-.55.3-.2-.75-.25-.7"/><path fill="#c51e1b" d="m11.25 21.45.05.05-.15 1.2q-.85-.5-1.85-.6-1.85-.2-2.7 1.45l.05-1.25.35-.6.45-.4.4-.25.85-.2h.4l.75.1q.8.1 1.4.5m-5 4.7.05 1.05.3 1.55-.05.2-.25-1.8q-.45-.7-1.1-1.1-.65-.45-1.5-.5l-.6-.05-1.65.35H1.2l.7-1.35h.55l.5-.05 1.1-.1.45-.05 1.15.7.55.8.05.35m25.4-8.8q.45.1.9.35l.3.4.2.4.1.2-.15-.05-.7-.2-1.55.2-1.8 1.6-.7-1.05.05-.1.15-.35.05-.2.4-.45 1.05-.65h.1l1.6-.1m2.85 3.5-.3-.85.5-.25q.5-.25.95-.35l.9.05.35.15.3.15.2.1.15.1.4 1.05-.05-.05-.15-.05-.6-.3-1-.1-.55.1-1 .5-.1-.25"/></g></defs></svg>