<svg xmlns:xlink="http://www.w3.org/1999/xlink" height="92.9" width="100.7" xmlns="http://www.w3.org/2000/svg"><use height="34.7" transform="translate(18.2 38.9)" width="39.95" xlink:href="#a"/><defs><g id="a" fill-rule="evenodd"><path d="M6.95-5.6Q6.7-4.2 5.6-3.25l1.35.3q2.25.6 3.35 1.45 1.5-.35 2.25-1.55 1.05-1.6-1.4-3.1-1.15-.7-3-.7l-1.1.1v.6l-.1.55m-1.5-4.3q1.1.8 1.45 2.5 2.65-.45 4.45.7 1.95 1.2 1.95 2.65l-.05.5q-.4 1.7-2.6 2.35.6.95.7 1.85.85.2 1.85 1.2 3.65 3.65 5.7 10.25.6 1.9.6 3.85 0 2.55-.9 3.8-.6.75-1.6.75-1.75 0-2.85-4.4-.95 1.65-2.05 1.65-1.2 0-2.05-3.1l-.25-.85q-1-3.25-4.6-8.6l-.3 1.1q-.8 1.7-2.65 2-1.45.4-2.3-1.05l-1.15-2.4-.85-1.25-.15-.15q-1.15-.5-2.65 1-4.55 4.35-3.7 9.6l.1.45q1.2 6.5-1.7 7.35-1.05.25-1.8-.3-1-.6-1.7-2.5-.7 3.1-1.5 3.8-1.5 1.35-3.1.85-1.5-.5-2.1-3.5l-.1-1.2q0-2.7 1.65-6.25 1.55-3.35 3.4-5.1l-.1-1.85q0-1.9.5-3.3-4.5 1.05-4.2-1.9l.7-1.75q1.8-2.45 5.3-3.15-.5-1.1-.5-1.8 0-1.05.75-1.8 2.55-2.4 6.55.8 1-2.85 2.8-3.75l3.2.15Q.65-9.85.65-8.8q2.15-1.9 3.8-1.55l1 .45m1 4 .05-1.2-.75-1.65q-.4-.9-1.2-.95-1.5-.45-3.6 1.55-.95 1.45-1.2 3v1.2l5.1.55q1.2-.85 1.55-2.2l.05-.3M-5.3-1.45q1.1-.6 2.8-.8Q.85-2.6 2.75-.5l.3.35 1.2 1.55Q5.1 2.7 5.3 3.8l.05.55 2.5 3.9-.05.1 1.25 2.05 1.35 3.3q.95 3.15 1.9 3.15 1.95 0 1.95-2.95l-.15-1.85q-.15-1.45-1.4-4.2l-.1-.2-.2-.4-1.15-2.2 1.25 1.9L14.05 10l.1.25.25.7.2.75q.6 2.25.4 5l.5 1.7q.6 1.35 1.65 1.35 1.2 0 1.6-2.35.4-2.4-.5-5.1l-.25-.8.1.05-.65-1.45.05.05-.4-1.05-.15-.1-1.4-2.65-2.65-4-1.95-1.2q0-.85-.35-1.55-1.4-1.5-5.25-2.35-5.15-1.15-8-.55-2.5 1.15-2.9.95-.4-.15-.75-1.4-.35-1.35-.05-2.6h.05q-3.9-3.25-6.15-1.05-.9.9-.4 2.35l.65 1.3h-.1l.15.15v.05Q-9.9-1.2-8.05-1.3q-1.45.2-2.95-.8l-1.3-1.25-.2-.15-.2-.2q-3.25.25-5.25 2.95-1.15 1.55-.2 2.35l.75.4 2.3.15 1.45-1q1.75-1.3 3.75-1.9l-4.05 2.65q-1.2 2.15-.8 6.05-2 1.8-3.65 5.6l-.05.1h-.1l-.7 1.35h.25l1.65-.35.6.05q.85.05 1.5.5.65.4 1.1 1.1v.05-.05l.25 1.8-.15 1-.05-.2.05.2.15-1 .05-.2-.3-1.55-.05-1.05.05-2.2.4-3.05-.05 1.4-.05 1.25v.1l.05 1.4.25 2.8.55 2.25q.95 2.3 2.55 1.85 1.65-.5 1.7-2.75.05-1-.55-4.15l-.1-1.1.1.05v-1.3l.15-1.2-.05-.05q.75-3.35 4.05-6.5l1.4-.9 1.85-.15.3.25.8 1.15.95 1.95.65.95q.65.65 1.4.5 1.55-.3 2.25-1.65l.4-1.2-.05-.15-.05-.95-.3-.75.2.25Q4.05 1.15 1.6-.7l-.25-.2q-1.8-1.2-4.2-1.05l-.6.05-1.4.3-.55.2h.05l-.2.05.25-.1M-19.45 16.5h-.2l.6-1.5-.6 1.5h.2q-.6 2.15-.25 3.7.5 2.45 1.85 2.85 1.15.3 2.3-.7.65-.65 1.45-3.45-.5-1.6-1.7-2.25l-1.2-.4-.3-.05-1 .15-.5.05-.65.1M-5.2-3.1q.95.15 2.95-.65l1.4-.2Q-.9-5.4-.1-7.15L.4-8q-.35-2.25-2.55-2.45Q-4.7-10.7-6-6.25l.05 1.5q.15 1.6.75 1.65" fill="#1d1d24" transform="translate(20.45 10.85)"/><path d="M7.05-6.15v-.6l1.1-.1q1.85 0 3 .7 2.45 1.5 1.4 3.1-.75 1.2-2.25 1.55-1.1-.85-3.35-1.45l-1.35-.3Q6.7-4.2 6.95-5.6l1.25.2q1.65.45 2 1.35.35.95 1.75.75 1.35-.15.65-1.15-1.8-2.55-4.8-2l-.75.3m-1.3-2.6L6.5-7.1l-.05 1.2-1.3.5 1.25-.2q-.35 1.35-1.55 2.2l-5.1-.55v-1.2Q0-6.7.95-8.15q2.1-2 3.6-1.55H4.4Q.9-9.6.35-6q-.25 1.5 1.2.75 2.15-1.2 2.7-1.15l1.9-.25-.4-2.1M-5.3-1.45l-.25.1.2-.05h-.05l.55-.2 1.4-.3.6-.05 3.4.75.8.3.25.2q2.45 1.85 3.05 4.1l-.2-.25.3.75.05.95.05.15-.4 1.2q-.7 1.35-2.25 1.65Q3.8 7.4 3.5 4.6 3.2 1.7 1.1.15-2.55-2.5-6.15-.6q-1.2.65-.9 2.6.3 1.9 1.4 2.3l1.4-1.15 2.35-.1-1.85.15-1.4.9q-3.3 3.15-4.05 6.5-.6-.4-1.4-.5.7-3 3.15-5.55-1.5.1-2.95 1.2-2.05 1.6-2.6 4.7l-.45.4-.35.6.05-1.4-.4 3.05-.05 2.2-.05-.35-.55-.8q-.05-4.6 2.4-7.75-4.1 3.3-5.6 7.25h-.45l.05-.1q1.65-3.8 3.65-5.6-.4-3.9.8-6.05L-9.9-.75q-2 .6-3.75 1.9l-1.45 1-2.3-.15 1.35-.35q2-.85 3.3-2.15.5-.5.35-1.85l.1-1L-11-2.1q1.5 1 2.95.8-1.85.1-4.1-2.25l.05-.05h-.05l-.15-.15h.1l-.65-1.3q-.5-1.45.4-2.35 2.25-2.2 6.15 1.05h-.05q-.3 1.25.05 2.6.35 1.25.75 1.4.4.2 2.9-.95 2.85-.6 8 .55Q9.2-1.9 10.6-.4q.35.7.35 1.55l1.95 1.2 2.65 4L16.95 9l-.2-.1-.3-.6-2.8-4.6q-.8-1.35-2.55-1.9-1.7-.55-1.6.2 0 .35 1.45 1.6 1.6 1.45 2.2 2.75l1.1 2.55-.5.25.3.85-1.55-3.05-1.25-1.9 1.15 2.2-.3-.4q-.45-.25-.9-.35l-1.15-1.8Q8.1 1.7 6.1.95L4.45.75q-.35-.05-.2.65L3.05-.15l2.25-.1q3 .05 4.1.75-.1-1.85-1.75-2.35l-4.25-1q-5.6-1.3-8.7 1.4m6.1 8.8L.15 6.4-.8 4.45l1 1.95.6.95M-9.4 13.1l.1 1.1q.6 3.15.55 4.15-.05 2.25-1.7 2.75-1.6.45-2.55-1.85l-.55-2.25-.25-2.8q.2-.55.6-.85.25 8.15 2.9 7.4 1.3-.4.3-3.05-.95-2.6-.95-4.95l1.55.35m-10.05 3.4.65-.1q-1.45 6.1 1.35 5.4.75-.15 1.2-2.95l.45-2.2q1.2.65 1.7 2.25-.8 2.8-1.45 3.45-1.15 1-2.3.7-1.35-.4-1.85-2.85-.35-1.55.25-3.7M12.7 7.85q1.25 2.75 1.4 4.2l.15 1.85q0 2.95-1.95 2.95-.95 0-1.9-3.15l-1.35-3.3.15.25.2-.15.25.5 2.6 4.7q1.05.2 1.15-3.15.05-1.45-.9-3.6.4.1.8.35l-.75-1.5.15.05m-4.85.4-2.5-3.9-.05-.55.05.1L8 7.9l-.15.35m6.75 3.45.55-.3q1.2 3.75 1.6 7.6.45 1.15 1.25.2.9-1.1.65-4.25-.15-1.65-.8-3.55l.15.1.25.8q.9 2.7.5 5.1-.4 2.35-1.6 2.35-1.05 0-1.65-1.35l-.5-1.7q.2-2.75-.4-5M-11-8q-.65.05-1 .45-1 .65-.65 1.7l.2.35.9 1.6 1.8 1.7-.45-1.3q-.3-1.35.4-1.75l2.15-.55q1.1-.35 0-1.2-.75-.6-1.55-.85L-11-8m-7.15 9.6q-.95-.8.2-2.35 2-2.7 5.25-2.95l.2.2-2.55.7q-3 1.2-3.25 3.3-.1.75.15 1.1M-2.8-10.2q-1.3.25-2.15 2.3-.8 1.95-.6 3 .3 1.7 1.25.25l2.2-2.65Q-.55-8.75 0-8.1q-.1-1.85-1.55-2.15l-.9-.05-.1.05h-.2l-.05.05m-4.1 9.1-3.05.9Q-12.4.75-13 1.5q-1.5 1.9-1.3 5.7 1-1.6 5.5-4.5.2-1.35 1.05-2.7l.85-1.1m1.7-2q-.6-.05-.75-1.65L-6-6.25q1.3-4.45 3.85-4.2Q.05-10.25.4-8l-.5.85q-.8 1.75-.75 3.2l-1.4.2q-2 .8-2.95.65m.35 1.5-.5.2.5-.2" fill="#2d2d2d" transform="translate(20.45 10.85)"/><path d="m7.05-6.15.75-.3q3-.55 4.8 2 .7 1-.65 1.15-1.4.2-1.75-.75-.35-.9-2-1.35l-1.25-.2.1-.55m-1.3-2.6.4 2.1-1.9.25q-.55-.05-2.7 1.15Q.1-4.5.35-6 .9-9.6 4.4-9.7h.15q.8.05 1.2.95M6.4-5.6l-1.25.2 1.3-.5-.05.3M2-8.25l-.4 1.1Q3.7-9 5.65-8.35 5.4-9.55 4.2-9.5 2.7-9.4 2-8.25m1.05 8.1-.3-.35Q.85-2.6-2.5-2.25q-1.7.2-2.8.8 3.1-2.7 8.7-1.4l4.25 1Q9.3-1.35 9.4.5 8.3-.2 5.3-.25l-2.25.1m-5.9-1.8q2.4-.15 4.2 1.05l-.8-.3-3.4-.75m5.05 9.8q-.75.15-1.4-.5L.2 6.4l-1-1.95-.8-1.15-.3-.25-2.35.1-1.4 1.15q-1.1-.4-1.4-2.3-.3-1.95.9-2.6 3.6-1.9 7.25.75Q3.2 1.7 3.5 4.6q.3 2.8-1.3 3.25m-21 8.55.5-.05-.25 3.2q.05 1.95.55 1.95 1.45 0 1.1-2.75l-.1-2.5 1.2.4-.45 2.2q-.45 2.8-1.2 2.95-2.8.7-1.35-5.4m23.05-15q-.15-.7.2-.65l1.65.2q2 .75 3.95 3.75l1.15 1.8-1.6.1Q6.95 2.1 6.25 2.8q-.3.35 2.2 4.45l-.4.45-.05.2-2.65-4-.05-.1q-.2-1.1-1.05-2.4m10 7.5-1.1-2.55q-.6-1.3-2.2-2.75Q9.5 2.35 9.5 2q-.1-.75 1.6-.2 1.75.55 2.55 1.9l2.8 4.6.3.6-.3-.15-.35-.15-1.4-2.5-1.85-2.8 2.35 5.25q-.45.1-.95.35m-26.4-12.5h.05l-.05.05v-.05m-.15.25-.1 1q.15 1.35-.35 1.85-1.3 1.3-3.3 2.15L-17.4 2l-.75-.4q-.25-.35-.15-1.1.25-2.1 3.25-3.3l2.55-.7.2.15m-5.7 17q1.5-3.95 5.6-7.25-2.45 3.15-2.4 7.75l-1.15-.7-.45.05q.6-1.75 1.9-3.25l.65-1.95-1.85 2.25q-1.2 1.65-1.8 3.05l-.5.05M12.3-3.8q.2-.3-.1-1-.25-.6-1.3-1.1l-1.05-.35 1.85 2.4.6.05M11 9.1l1.5-.15q.95 2.15.9 3.6-.1 3.35-1.15 3.15L9.65 11l-.25-.5.65-.7 2.1 4.35q.35.2-.05-1.85-.4-2.1-1.05-3.15L11 9.1m4.15 2.3.4-.3.75-.1.15.35.65 4.2q.3 2.6.65 2.5.45-.1.3-2.65-.15-2.35-.55-3.55l-.25-.7.6.25q.65 1.9.8 3.55.25 3.15-.65 4.25-.8.95-1.25-.2-.4-3.85-1.6-7.6M.5 4.7q.6 1.45 1.9.35.85-.7-.7-3.35Q.85.15-1.45.25l-3.2.35q-1-.05-.3-.65l.85-.65-1.25.3q-1.15.6-1.1 1.85.1 1.1 1.1.75l2.45-.45Q-.95 1.4.5 4.7M-11-8l-.85.3-.15.15q.35-.4 1-.45m-1.45 2.5.5.7q-.55-.95.95-2.25l3.1.05-1.3-.85q.8.25 1.55.85 1.1.85 0 1.2l-2.15.55q-.7.4-.4 1.75l.45 1.3-1.8-1.7-.9-1.6M-17.8-.05q-.5 2.6 1.7.3.6-.6 1.1-1.8.45-1.05 1.05-1.35l-1.8.75q-1.85 1-2.05 2.1m15-10.15q-1 .3-1.85 1.8l-.65 1.55q1.05-2.1 2.95-2.45 1.05-.2.95-.7l-.15-.25Q-.1-9.95 0-8.1q-.55-.65-2.1.8l-2.2 2.65q-.95 1.45-1.25-.25-.2-1.05.6-3 .85-2.05 2.15-2.3m-4.1 9.1L-7.75 0Q-8.6 1.35-8.8 2.7q-4.5 2.9-5.5 4.5-.2-3.8 1.3-5.7.6-.75 3.05-1.7l3.05-.9m-7.05 6.7 3.45-2.9q-.95-1.4-2.55-.1l-.9 3m.95 4.85q.55-3.1 2.6-4.7 1.45-1.1 2.95-1.2Q-9.9 7.1-10.6 10.1l-.75-.1h-.15v-.1q.5-2.75 2.55-4.55l-1.7 1.4q-1.55 1.6-1.95 3.45l-.4.25m1.4 2.3h.65q0 2.35.95 4.95 1 2.65-.3 3.05-2.65.75-2.9-7.4l.35-.25.2 2.65q.4 2.55 1.2 3.3 1.6 1.45.25-2.1l-.35-3.4-.05-.8" fill="#353535" transform="translate(20.45 10.85)"/><path d="M2-8.25Q2.7-9.4 4.2-9.5q1.2-.05 1.45 1.15Q3.7-9 1.6-7.15l.4-1.1m-20.3 24.6 1-.15.3.05.1 2.5q.35 2.75-1.1 2.75-.5 0-.55-1.95l.25-3.2M12.3-3.8l-.6-.05-1.85-2.4 1.05.35q1.05.5 1.3 1.1.3.7.1 1m2.9 12.35L12.85 3.3l1.85 2.8 1.4 2.5-.9-.05M11 9.1l.05.05q.65 1.05 1.05 3.15.4 2.05.05 1.85l-2.1-4.35.3-.35.65-.35m5.3 1.9.95.15.25.7q.4 1.2.55 3.55.15 2.55-.3 2.65-.35.1-.65-2.5l-.65-4.2-.15-.35M8.45 7.25q-2.5-4.1-2.2-4.45.7-.7 3.35 3.8h-.1l-1.05.65M.5 4.7Q-.95 1.4-2.9 1.75l-2.45.45q-1 .35-1.1-.75Q-6.5.2-5.35-.4l1.25-.3-.85.65q-.7.6.3.65l3.2-.35Q.85.15 1.7 1.7q1.55 2.65.7 3.35Q1.1 6.15.5 4.7M-12-7.55l.15-.15.85-.3 1.8.15 1.3.85-3.1-.05q-1.5 1.3-.95 2.25l-.5-.7-.2-.35Q-13-6.9-12-7.55m-5.8 7.5q.2-1.1 2.05-2.1l1.8-.75q-.6.3-1.05 1.35-.5 1.2-1.1 1.8-2.2 2.3-1.7-.3m16.25-10.2.15.25q.1.5-.95.7-1.9.35-2.95 2.45l.65-1.55q.85-1.5 1.85-1.8l.05-.05h.2l.1-.05.9.05M-13.95 5.6l.9-3q1.6-1.3 2.55.1l-3.45 2.9m1.35 4.6q.4-1.85 1.95-3.45l1.7-1.4Q-11 7.15-11.5 9.9v.1h-.25l-.85.2m-4.9 3.4q.6-1.4 1.8-3.05l1.85-2.25-.65 1.95q-1.3 1.5-1.9 3.25l-1.1.1m5.9-.85.05.8.35 3.4q1.35 3.55-.25 2.1-.8-.75-1.2-3.3l-.2-2.65 1.25-.35" fill="#5a5a5a" transform="translate(20.45 10.85)"/><path d="M-9.3 11.85v1.3l-.1-.05-1.55-.35h-.65l-1.25.35-.35.25q-.4.3-.6.85l-.05-1.4v-.1q.85-1.65 2.7-1.45 1 .1 1.85.6M9.05 10.4 7.8 8.35l.7 1.05 1.8-1.6 1.55-.2.7.2.75 1.5q-.4-.25-.8-.35L11 9.1l-.65.35-.3.35-.65.7-.2.15-.15-.25m5.1-.15 1-.5.55-.1 1 .1.6.3.15.05.65 1.45-.1-.05-.15-.1-.6-.25-.95-.15-.75.1-.4.3-.55.3-.2-.75-.25-.7" fill="#f7ef00" transform="translate(20.45 10.85)"/><path d="m-9.2 10.6.05.05-.15 1.2q-.85-.5-1.85-.6-1.85-.2-2.7 1.45l.05-1.25.35-.6.45-.4.4-.25.85-.2h.4l.75.1q.8.1 1.4.5m-5 4.7.05 1.05.3 1.55-.05.2-.25-1.8q-.45-.7-1.1-1.1-.65-.45-1.5-.5l-.6-.05L-19 15h-.25l.7-1.35h.55l.5-.05 1.1-.1.45-.05 1.15.7.55.8.05.35m25.4-8.8q.45.1.9.35l.3.4.2.4.1.2-.15-.05-.7-.2-1.55.2-1.8 1.6-.7-1.05.05-.1L8 7.9l.05-.2.4-.45L9.5 6.6h.1l1.6-.1m2.85 3.5-.3-.85.5-.25q.5-.25.95-.35l.9.05.35.15.3.15.2.1.15.1.4 1.05-.05-.05-.15-.05-.6-.3-1-.1-.55.1-1 .5-.1-.25" fill="#c51e1b" transform="translate(20.45 10.85)"/></g></defs></svg>