<svg xmlns:xlink="http://www.w3.org/1999/xlink" height="92.9" width="100.7" xmlns="http://www.w3.org/2000/svg"><g transform="translate(38.65 49.75)"><use height="27.9" transform="matrix(-.8919 0 0 .8919 18.043 -18.692)" width="13.95" xlink:href="#a"/><use height="27.9" transform="translate(-18.493 -17.942) scale(.8919)" width="13.95" xlink:href="#a"/><use height="19.05" transform="translate(-7.253 -11.245) scale(.8919)" width="16.75" xlink:href="#b"/></g><defs><use height="27.9" width="13.95" xlink:href="#c" id="a"/><use height="19.05" width="16.75" xlink:href="#d" id="b"/><g id="c"><path d="M4.15 12.75q-.6-6.05-2.5-11.7Q.05-3.7-3.1-7.7l-1.6.05q-.75.55-.95 2.35-.2 1.8-.45 2.45l-.3-.6q-.5-4.95 2.3-8.95l.75-1.05q5.25 2.2 6.05 8.1.8 5.85 1.9 9.8l1.85 7.15q-.4.2-1.25.7l-1.05.45" fill="#fcc" fill-rule="evenodd" transform="translate(7 13.95)"/><path d="M-6.1-2.85q.25-.65.45-2.45.2-1.8.95-2.35l1.6-.05q3.15 4 4.75 8.75 1.9 5.65 2.5 11.7l-1.85.7q-2.2-3.2-4-6.9l-4.4-9.4" fill="#fff" fill-rule="evenodd" transform="translate(7 13.95)"/><path d="M6.45 11.6 4.6 4.45Q3.5.5 2.7-5.35q-.8-5.9-6.05-8.1l-.75 1.05q-2.8 4-2.3 8.95l.3.6 4.4 9.4q1.8 3.7 4 6.9" fill="none" stroke="#f66" stroke-linecap="round" stroke-linejoin="round" transform="translate(7 13.95)"/></g><g id="d" fill-rule="evenodd"><path d="M-7.5 5.85V-1.5q-.2-1.7.8-3.15 1-1.5 1.9-.6l2.3 2.75 1-2 1-2q1.5.15 2 1l.6 1.6.4-.6q1.35-1.8 3-2 .8-.1 1 2L6.7.75l-.1 5.1q-7.55-5.9-14.1 0" fill="#6f2d00" transform="translate(8.3 9.3)"/><path d="M-7.5 5.85q6.55-5.9 14.1 0L6.35 7.8q-.2 1.55-5.2 1.9-5 .35-6.85-1.05-1.85-1.4-1.8-2.8" fill="#c64f00" transform="translate(8.3 9.3)"/><path d="M5.7-4.8 5.6-.05q-.1 1.75-.05 3.5l-.75.2q-1.7.75-3.7.8l-3.85-.2Q-4.75 4-6.4 3v-.45Q-6.35.6-6.45-1.3q-.1-1.85.75-2.7 1.85.95 2.85 2.65.3.5.85 2.4.25-3.7 1.65-5.65L0-5.3q1.15 1.65 1.75 6.35.7-4.6 3.15-5.95l.45-.25.2.25.15.1M5.6 5.55 5.5 6.8q-.25.65-1 .95-1.6.65-3.6.85L-3 8.4Q-5.05 8-6.5 6.8l.05-1.55Q-4.7 6.1-3 6.4l3.5.3 3.8-.4 1.3-.75" fill="url(#e)" transform="translate(8.3 9.3)"/><path d="m5.7-4.8-.15-.1-.2-.25.35.35" fill="#f90" transform="translate(8.3 9.3)"/><path d="M-6.4 3q1.65 1 3.65 1.25l3.85.2q2-.05 3.7-.8l.75-.2.05 2.1-1.3.75-3.8.4-3.5-.3q-1.7-.3-3.45-1.15L-6.4 3" fill="#f60" transform="translate(8.3 9.3)"/><path d="M-4.35-4.05q-.65.7-1.7.7-.95 0-1.6-.7-.65-.65-.65-1.65 0-1 .65-1.65Q-7-8-6.05-8q1.05 0 1.7.65.65.65.65 1.65 0 1-.65 1.65M1.8-5.2q-.7.7-1.75.7-1 0-1.7-.7-.7-.65-.7-1.75 0-1 .7-1.7.7-.65 1.7-.65 1.05 0 1.75.65.7.7.7 1.7 0 1.1-.7 1.75m6 .4q-.65.7-1.7.7-.95 0-1.6-.7-.65-.65-.65-1.65 0-1 .65-1.65.65-.65 1.6-.65 1.05 0 1.7.65.65.65.65 1.65 0 1-.65 1.65" fill="#6f2d00" transform="translate(8.3 9.3)"/><path d="M-4.9-4.55q-.45.45-1.15.45-.65 0-1.1-.45Q-7.6-5-7.6-5.7l.45-1.1q.45-.45 1.1-.45.7 0 1.15.45.45.45.45 1.1 0 .7-.45 1.15M1.2-5.8q-.45.45-1.15.45-.65 0-1.1-.45-.45-.45-.45-1.15 0-.65.45-1.1l1.1-.45q.7 0 1.15.45.45.45.45 1.1 0 .7-.45 1.15m6.05.5q-.45.45-1.15.45-.65 0-1.1-.45-.45-.45-.45-1.15 0-.65.45-1.1Q5.45-8 6.1-8q.7 0 1.15.45.45.45.45 1.1 0 .7-.45 1.15" fill="#f60" transform="translate(8.3 9.3)"/></g><linearGradient gradientTransform="matrix(.0074 0 0 .006 -.35 -.45)" gradientUnits="userSpaceOnUse" id="e" spreadMethod="pad" x1="-819.2" x2="819.2"><stop offset="0" stop-color="#f90"/><stop offset=".475" stop-color="#ff3"/><stop offset="1" stop-color="#f90"/></linearGradient></defs></svg>