<svg xmlns:xlink="http://www.w3.org/1999/xlink" height="92.9" width="100.7" xmlns="http://www.w3.org/2000/svg"><g transform="translate(38.65 49.75)"><use height="30.25" transform="translate(-23.55 -10.95)" width="47.15" xlink:href="#a"/><use height="29.35" transform="translate(-22.5 -10.2)" width="45.2" xlink:href="#b"/><use height="25.9" transform="translate(-21 -7.65)" width="41.4" xlink:href="#c"/><use height="22.35" transform="translate(-17.9 -3.2)" width="33.7" xlink:href="#d"/><use height="15.2" transform="translate(-18 -5.5)" width="35.65" xlink:href="#e"/><use height="9.45" transform="translate(-13.35 1)" width="9.5" xlink:href="#f"/><use height="8" transform="translate(-12.7 1.65)" width="8.3" xlink:href="#g"/><use height="6.1" transform="translate(-11.8 3.55)" width="7.4" xlink:href="#h"/><use height="1.1" transform="translate(-11.9 3.15)" width="2.35" xlink:href="#i"/><use height="10.45" transform="translate(1.75 -9.55)" width="12.6" xlink:href="#j"/><use height="21.5" transform="translate(-20.6 -8)" width="42.6" xlink:href="#k"/></g><defs><use height="30.25" width="47.15" xlink:href="#l" id="a"/><use height="29.35" width="45.2" xlink:href="#m" id="b"/><use height="25.9" width="41.4" xlink:href="#n" id="c"/><use height="22.35" width="33.7" xlink:href="#o" id="d"/><use height="15.2" width="35.65" xlink:href="#p" id="e"/><use height="9.45" width="9.5" xlink:href="#q" id="f"/><use height="8" width="8.3" xlink:href="#r" id="g"/><use height="6.1" width="7.4" xlink:href="#s" id="h"/><use height="1.1" width="2.35" xlink:href="#t" id="i"/><use height="21.5" width="42.6" xlink:href="#u" id="k"/><path d="M1.25 19.35v.1l.05-.1h-.05M20.75 7.5l-.05-.15.05.2V7.5m20-7.35q1.15.3 1.25 1.3l-.1.35-.3.2q-2.6.4-3.75 1.3l-.05.05q1.75.05 3.65.85 5.35 2.4 5.75 7.7l-.1.35-.25.2-.35-.05-.25-.25q-.6-1.35-2.25-1.95h-.05q.9 1.2 1.85 3.35 2.3 4.4-.15 9.8l-.25.25-.35.05-.3-.25v-.35q.15-.8-.05-1.05-.55 2.3-3.65 5.65H41l-2.5 2.25-.55.15-.55-.45q-.15-.25.1-.95l.05-.15.05-.15.2-1.15.15-1.55-3.3-6.6q-3.5-2.8-4.7-3.35Q26 13.8 19.1 13.8q-2.1 0-5.05 2.4-3.55 2.85-3.55 6.25l.1 3.95-.3 2.25q.85.05.55 1.3l-.2.3-.35.1q-6.65-.95-7.7-6.9-.3-1.85-.05-3.95l.05-.25-.45.65-.75 1.2-.3.2-.4-.05-.2-.3Q-.55 17.7 2.4 14.1h.05l.25-.3q-.95.4-1.4.85l-.35.55-.3.2-.35-.05-.25-.25v-.35Q3.2 6.1 5.9 5.55q2.9-2.35 5.9-1.9l.1.05-1.2-1-.2-.35.1-.35q.1-.15.35-.2Q19 .75 21.65 7.15l.05.2.05.15v-.15l3.9-.2q1.5-1.7 4.3-3.35 3-2.55 8.25-3.7h.05l2.5.05" fill="#701136" fill-rule="evenodd" transform="translate(-.05 -.1)" id="l"/><path d="M33.25 27.05v.1l.15-.05-.1-.05h-.05M11.8 18.6v.05h.05l-.05-.05m.55-14.9h.15v-.05l-.15.05m32.5 5.35q-2.4-.85-3-.65 5.15 6.75 2.4 12.4l-1.05-.25H43q-1.5 5.15-5.65 7.65L37 25.55l-.05.05-.55.85q-.95 1.1-2.85 1.8l-1.7.45q1-3.65 0-8.5l-1.35 1q-.05 2-1.05 2.3l-1.8-2.35-3.05-2.85q-2.75-1.55-4.75-2.25l-1.45-.4q-2.65.75-4.2 2.2l-1 1.25q-.6.9-.8 2.4l-.05 1.35q-.85 3.3.9 6.25-2.35.65-3.7-.5l-.45-.7-.35-.4.45.8-.65-.05-.05.15Q3.15 27.3 2.3 22q-.3-1.65-.05-3.55l.25-1.55L0 18.55q.2-2.3 2.15-4.8.85-1.1 1.65-1.85l-.5-.1-1.5.15-1.05.45.1-.35h-.2l.6-1.65Q3.05 6.1 7 4.5l-.5-.1.75-.5 2.9-.6 2.25.2-1-1.7q4.8-.1 7.1 2.9l1.1 2h.1l.5-.1h.2l.3.1 2.3.15 1.55-.2h.15l.45.1 4.1-3.6Q34.95-.75 39.9.2q-3 .6-4.3 2.75 7.25.25 9.25 6.1" fill="#da5a7b" fill-rule="evenodd" id="m"/><path d="M37.75 3.5q3.5 2-.1.15Q35 3.4 34.1 4.9q7.25 2.25 7.3 7.2l-1.2-.65q-1.35-.5-1.8.55 3.2 2 1.45 5.6-1.1-1.95-2.1-2.55 2.35 3.75.15 6.6.35-1.8-.7-2.2.35 2.65-.6 2.9-.1-1.45-.5-1.6 1-1.85.55-4.6-.5-3.25-3.05-7.75-1.2-1.2-2.6-2.05l.1.15.55 1.95v.35l-.05.05-.2.2-.3.05-.3-.15-2.15-2.3-2.8-.3h-.1l-2.4-.85-.15-.1-.1-.15-.1-.3.2-.3q.1-.15.3-.15l2.25-.1 1.4-1.85q2-2 4.95-2.55l-1 .65q-.95.8-.85 1.85l2.45-.25q2.85 0 5.05 1.25m-11.2 7.2-.8-.85 4 3.85q.95 1.1.95 1.5v.05l.05.15v.05l-.15.25q-.9 1.4-1.6 1.7v-1.25Q28.95 15 28.55 14q-.45-1.3-1.35-2.5l-.65-.8m-16.8 9.55-.1 3.2.7 2.3q-.4.35-1.75-.25-.85-3.45.05-6.7l1.2-2.7h.45l.2.25-.75 3.9m-5.6-.65.3-.05.8-.2.65-.3.15-.1-.1 1.85.05.7q.05 1.5.75 2.7l.5.75.45.8-.65-.05q-1.55-.35-2.2-2.4l-.35-2.45-2.1-.1.85-1.1.9-.05m-.7-.4-.1.15v-.2l.1.05m12.7-14.8-.15.7-1.2.5-.3.15-1.3.65-.6.35-.25.1q-2.05.6-3.95 2.65l-1.65 2.25-.15 1.2-.15.45-1.1 2.7-1.15 2-2.2-.25q1.35-.9 2.85-4.3l-.1-.05-1.2-.05-.45.4.05-.7q-2-.1-3.15.95l1.8-2.15Q3.85 9.8 5.6 9.4q-.15-.6-.75-.9l-.6-.15Q5.5 5.65 8.6 5.1 7.9 4.3 6.65 4L5.5 3.85q3.6-3 7.75-1.2.6-1.4-.1-1.75 2.75.5 3 3.5" fill="#b2396b" fill-rule="evenodd" id="n"/><path d="m30.55 6.2-.25-.45q-.45-1.8-2.15-3.1l-.15-.6-.1-.15q1.4.85 2.6 2.05 2.55 4.5 3.05 7.75.45 2.75-.55 4.6l-.1.15-.75 1.55.25-.2-.05.8-.55.85q-.95 1.1-2.85 1.8l-1.7.45q1-3.65 0-8.5l-1.35 1q-.05 2-1.05 2.3l-1.8-2.35L20 11.3q-2.75-1.55-4.75-2.25l-1.45-.4q-2.65.75-4.2 2.2l-1 1.25q-.6.9-.8 2.4l-.05 1.35q-.85 3.3.9 6.25-2.35.65-3.7-.5l-.45-.7-.35-.4-.5-.75q-.7-1.2-.75-2.7l-.05-.7.1-1.85-.15.1-.65.3-.8.2-.3.05-.9.05H0l.25-.3.1-.15.75-1.1 1.15-2 1.1-2.7.15-.45.15-1.2L5.3 5.05Q7.2 3 9.25 2.4l.25-.1.6-.35 1.3-.65.3-.15 1.2-.5L14.95 0l-5.9 2.75-.55.3L6.75 4.4l-.9.85q-1.1 1-1.5 1.75L3.1 10.55q-1.25 3.05-2 3.7.65.5 1.85-.75v-.15l.15-.1v.15l1.8-2.55q-.3 2.4-1.75 3.5l.1 1.8.4 1.9q.6 1.9 1.55 2.85l.3.15q1.35.6 1.75.25l-.7-2.3.1-3.2.75-3.9q.25.25.4 0l.2-.3q2.3-3.75 6.55-3.35l1.95.35 1.85.7L21.1 11l.95.75.05.05q1.65 1.2 2.55 2.7.6-.65.4-3.45l-.75-2.7-1.05-1.85-1.35-1.45 1.55 1.2.65.8.95 1.75.65 2.45.05.35.15 1.35q.7-.3 1.6-1.7l.15-.25v-.05q1.6 2.7 1 9.1v.1l.15-.05q1-.45 3.05-1.9l.05-.5.7-1.35.05-.2.35-1.25v-.2l.1-1.5-.35-2.1q-.6-2.3-2.2-4.9" fill="#a32152" fill-rule="evenodd" id="o"/><path d="m31 4.75.15.05q3.4.25 4.5 2.45-1.8-1.3-3 .75l1.3.85q1.3 1.1 1.4 2.4l-1.2-.05-.05.1.4 1q.45 1.5.15 2.9l-.55-.85-.45-.35q-.5-3.25-3.05-7.75-1.2-1.2-2.6-2.05l-.05-.05-1.1-1.05-.2-.1-2.6-.65.4-.85Q25.25.2 26.1 0l-.4.4q-.3.55.05 1.3l1.15-.4 2.35-.1-.5.15q-.6.25-.9.9l1.45.25q1.75.55 3.05 2-.7-.65-1.35.25m-20.15-2q.55-.5.55-1.15l.2.15q.65.5-.1 1.75v.1l-1.3.65-.4.25h-.2l-.25.2Q7.3 5.3 5.4 7.35L3.75 9.6l-.15 1.2-.15.45q-.35 1.25-1.1 2.7l-1.2.25q.65-.55 1.75-2.8l-.15.05.55-1.4q-1.45-1.4-3.3.15l1.7-1.7 1.65-1.25q1-1 1.8-.9l1.2-1.5-1.45-.2-1 .3q1.25-1.7 4.85-1.85-.15.85.15 0 .35-.85-.4-1.4 1.65-.1 2.35 1.05" fill="#8c2252" fill-rule="evenodd" id="p"/><path d="M.1 2.85Q-.6.9 3.5 1.25L4.75.15Q5.9-.6 7 2l2 .65q1.5.9-1.35 3.2 1.4 5.95-3.05 2-1.3.8-2.3.85-2.05.05-1-3.8L.1 2.85" fill="#735521" fill-rule="evenodd" id="q"/><path d="M4.05.15Q5-.5 5.8 1.9q4.8 0 .3 3.1 1.6 5-2.15 1.7-4.45 2.7-2.5-2.5Q.4 3.25.1 2.45-.5.75 3.2 1.3L4.05.15" fill="#ff0" fill-rule="evenodd" id="r"/><path d="M5.2 3.1q1.6 5-2.15 1.7-3.7 2.25-2.9-1.35Q3.3 4 4.9 0q4.8 0 .3 3.1" fill="#ffcf00" fill-rule="evenodd" id="s"/><path d="m4.2 3.6 1.25-.35-.95 1.2Q2.85 4.85 2.05 6L1.6 7.1v.15L0 8.7q1.5-4.5 4.2-5.1m15.25 1.85-6.6 2.4q2.75-2.4 6.6-2.4m14.15 9 1.25 3.4Q35 20 34.1 21.5l-.5-7.05m7.9-3.7 1.1 2.45q0 3.55-.85 4.05l.2-3.5-.1-.25-.35-2.75M11.1 0l.6.2q.45.2-.4.65L10.9.7q-.25-.8.2-.7m1.1 8.9q-.5 0 0-.75.5.75 0 .75m21.15 4.75q-.5 0 0-.75.5.75 0 .75m-8.8-2.6q2.55 1.75 2.5 6.65-1.1-4.1-2.5-6.65" id="u" fill="#fff" fill-rule="evenodd"/><g id="t" fill="#fff" fill-rule="evenodd"><path d="m1 0 .05.05.3.25.05.05q.3.45-.2.75L.3.95Q-.2.65.2.25.4.05.8 0H1"/><path d="M2.1.9q-.5 0 0-.8.55.8 0 .8"/></g><g id="j" fill-rule="evenodd"><path d="M14.05-.2q-.3.95-1.35 1.1Q9.1-1.35 2.2-3.5l-.4-.45q-.25-.55.35-1l4.75.8Q12-2.8 14.05-.2" fill="#0a3c44" transform="translate(-1.75 9.55)"/><path d="M7.7-9.2q3.05.3 1.6 3.45l.2.15q.35.1.9-.45l.9-1.1q1.15-.8 2.2.7 1.5 2.4-2.2 2.25 2.45 3.15-.25 3.65-2.85.55-6.8-2.3-.45-.55-.3-1.2Q4.2-5.4 7.1-6.1l-.55-1.4Q6.3-8.9 7.7-9.2" fill="#1b5968" transform="translate(-1.75 9.55)"/><path d="M6.95-7.55q.1.65.5 1.25l.05.25-.1.2-.2.15q-2.6.6-2.85 1.75-.1.45.2.85Q8.25-.45 11-.9q1-.2 1.1-.85 0-.8-1.1-2.2-.1-.15-.05-.25l.1-.25q.1-.15.3-.1 1.6.05 2.1-.4.3-.4-.25-1.3-.8-1.1-1.6-.65l-.9 1.1v.05q-.8.7-1.3.5l-.15-.05-.2-.15-.1-.2v-.25Q9.6-7.3 9.3-8q-.35-.7-1.55-.8-1 .2-.8 1.25m.8-2Q9.5-9.4 10-8.35q.4.85-.15 2.3l.3-.25-.05.05.9-1.1.1-.1q1.4-1.05 2.7.8h.05q.9 1.5.15 2.25-.5.55-1.95.6.85 1.3.8 2.15-.05 1.15-1.7 1.5-3 .55-7.1-2.4l-.1-.05q-.55-.7-.35-1.5.2-1.5 2.95-2.25-.25-.5-.35-1.05-.35-1.8 1.45-2.15h.1" fill="#165968" transform="translate(-1.75 9.55)"/><path d="M6.7-1.6 4.4-2.85q-1.2-1.6.8-2.5l2.2-.6q-.85-1.6-.5-2.45l.5-.5q2.95.4 1.35 3.25 1.4.95 2.7-1.4.7-.65 1.35.25 1.55 2.15-1.7 2.45 2.4 2.65.25 3.65-2 .25-4.65-.9" fill="#9dd7ed" transform="translate(-1.75 9.55)"/><path d="M6.4-1.85Q10.05-3.4 8.85-5.7q1.4.9 2.7-1.45.7-.65 1.35.25 1.55 2.2-1.7 2.5 2.4 2.6.25 3.65L7.75-1Q5.4-1.45 6.4-1.85" fill="#6ab0c6" transform="translate(-1.75 9.55)"/><path d="M10.3-2.05q-.55 0 0-.9.6.9 0 .9m-4-1.6q-.6 0 0-.9.55.9 0 .9M7.45-2.3l-.25-.05q-.2-.1-.3-.6h.25q.1.55.45.4l.15.05q.55.7.85.25.55-.85.25.1L7.7-2.2l-.1-.1h-.15" transform="translate(-1.75 9.55)"/><path d="m7.4-8.9-.1 1.6q.05.9.5 1.35l-1.75.45q-1.7.55-1.35 1.15l-.3 1.5-.1-.05Q2.4-5.45 7.4-5.95q-.4-.5-.65-1.15-.4-1.25.65-1.8" fill="#fff" transform="translate(-1.75 9.55)"/><path d="M8-7.75q-.55 0 0-.85.55.85 0 .85" fill="#fff" transform="translate(-1.75 9.55)"/><path d="m5.85-1.75.2-.1.15.05.75.4.75.3 1.6.35.15.1.05.2-.1.15-.2.05-1.65-.4H7.5l-.75-.3h.05q-.65-.25-.9-.45l-.1-.15.05-.2" fill="#10596b" transform="translate(-1.75 9.55)"/><path d="m2.85-3.75.4.3H3.2l-.9-.3Q1.7-4 2.15-4.7l.05-.1.2.35-.1.35v.05q.1.3.55.3" fill="#c3dddd" transform="translate(-1.75 9.55)"/></g></defs></svg>