<svg xmlns="http://www.w3.org/2000/svg" xmlns:xlink="http://www.w3.org/1999/xlink" width="100.7" height="92.9"><use xlink:href="#a" width="35.85" height="31.75" transform="translate(20.25 41.9)"/><defs><g id="a" fill-rule="evenodd"><path fill="#440202" d="M8.9 1.6q2.4-1.4 9-1.6 6.95-.15 9.65 1.55 4.3 3.85 4.9 9.05l-.1.4q-.15.2-.4.2l-27.8-.15-.4-.15-.1-.45Q4.45 4.5 8.9 1.6"/><path fill="#d80000" d="M9.55 2.45q2.2-1.3 8.35-1.45 6.45-.2 9 1.35Q30.85 6 31.45 11.1l-26.8-.55q.75-5.3 4.9-8.1"/><path fill="#8c1414" d="M24.45 6.7q3.3-2.9.3-5.15l2.15.8Q30.85 6 31.45 11.1q-4 .2-14-.1 5.5-3 7-4.3"/><path fill="#440202" d="m24.15 3.2 1.35 1.65q1.35 2 1.6 4.05l.05.55-.55.05-16.55-.35h-.6l.1-.6Q10 5 12.85 3.2q1.5-.9 5.4-1 4.15-.1 5.9 1"/><path fill="#fff" d="m23.5 4.05 1.15 1.45q1.2 1.8 1.45 3.75l-15.55-.4q.5-3.25 2.85-4.75 1.35-.8 4.85-.9 3.65-.15 5.25.85"/><path fill="#ccc" d="m19.1 3.2 1.85.1q-1.75.6-2.75 2.5-.9 2.3-1.65 3.35l-1.9-.1q1.65-1.8 4.45-5.85m4.4.85.1.1q-.65.85-.95 2.5L22.1 9.3l-3.6-.1Q18.8 8 20 6.35l1.9-2.9 1.6.6"/><path fill="#440202" d="M32.9 14.6q.5.1.65.5.3.95-.1 2.95-.35 1.85-.85 2.6l-.65.4H29.5q-.35 0-.45-.25L27 16.85H8.2L7.05 20.9q-.15.35-.55.35H3.55l-.5-.35-.6-2.25q-.4-2.2.4-3.3L3 15.2q2.3-1.7 15.05-1.65 11.8.1 14.85 1.05"/><path fill="#d80000" d="M19.35 13.95q12.8.4 13.15 1.3.75 2.2-.8 4.75h-1.9l-2.25-4.05H7.3L6.1 20.2H3.95l-.45-1.9q-.35-2.15.35-3.1 2.35-1.7 15.5-1.25"/><path fill="#8c1414" d="M32.5 15.25q.75 2.2-.8 4.75h-1.9l-2.25-4.05H7.3L6.1 20.2H5.05l.25-2.85-.05-.05-1.75 1.05q-.3-2.2.35-3.15 2.35-1.7 15.5-1.25 12.8.4 13.15 1.3"/><path fill="#440202" d="M2.2 17.25q-.45.2-.7-.2-.95-1.6-1.35-3.35L0 12.15l.2-.4q4.95-4.4 18.55-4.2 13.1.15 16.85 3.65.4.5.2 1.9-.55 2.95-1.65 3.55l-.4.05q-4.1-1.15-14.5-1.35-12.2-.3-17.05 1.9"/><path fill="#d80000" d="M19.35 14.2q-12.15-.3-17.1 1.95l-1.1-2.7-.1-1.05q4.8-3.95 17.65-3.9 12.5.1 16.15 3.45.4.45-.1 1.95-.5 1.4-1.05 1.7-4.25-1.15-14.35-1.4"/><path fill="#8c1414" d="M20.8 12.35q12.05.85 14.1-.3.3.55-.2 1.95-.5 1.35-1 1.6-4.25-1.15-14.35-1.4-12.15-.3-17.1 1.95L1.3 14q6.75-2.55 19.5-1.65"/><path fill="#440202" d="M18.6 9.35q7.15-.05 8.7 1.1.55.4.3 1.4-.2 1.3-.85 1.5l-.15.05h-.1L19 13l-8.2.3-.25.05-.2-.2q-1.05-1.3-.55-2.25l.1-.2q1.45-1.35 8.7-1.35"/><path fill="#fff" d="m19 12.2-7.85.35-.4-1.1q1.25-1.15 7.9-1.2 6.55 0 7.95 1 .25.2.15.75-.1.5-.4.6L19 12.2"/><path fill="#ccc" d="m18 12.25-2.4.05 2.55-2h1.3L18 12.25m6.95-1.5-1 1.6-2.15-.1 1.3-1.8 1.85.3"/><path fill="#f88" d="M6.9 5.25q1.65-1.8 3.15-2.6l2.4-.9 2.65-.35-2.75 1.15Q9.7 4 9.25 6.3q0-1.85.45-3.15Q7.55 6.2 8 7.95q-2.45.8-2.9 1.15-.3-1.4 1.8-3.85m2.3 6.85q-1-.9-1-1.3-2 .1-3.6.85-2.45 1.3-2.9 1.85h-.15l.25-1.3 1.05-.8q1.4-.9 2.8-1.2l4.4-1.05 4.65-.2q-4.45 1.1-5.15 1.55-.4.25-.3.75.05.65-.05.85"/><path fill="#02001a" d="m4.5 21.1 1.25-.1q1.75 10.65.4 10.75-.85.05-1.35-5.3l-.3-5.35m25.65-.25h1.6Q30.7 31.5 29.35 31.3q-.85-.1-.1-5.3l.9-5.15"/></g></defs></svg>