<svg xmlns="http://www.w3.org/2000/svg" xmlns:xlink="http://www.w3.org/1999/xlink" width="100.7" height="92.9"><use xlink:href="#a" width="40.35" height="32.35" transform="translate(19.25 38.7)"/><defs><g id="a" fill-rule="evenodd"><path fill="#160249" d="m28.4.6.65.05q1.1 1.1 2.75 1.1l-.1.05q.4-.2.65.15l.1.3-.05.1-.15.3-2.4 1.95 4.2-.55 3.4-.4.55.15.1.35-.05.2-.2.4q-.65 1.45-2.25 2.3 2.5.5 4.65 2.7l.1.35v.25q-.2.3-.5.3-.35 0-1.95.8-3.1 1.55-4.75 1.6 1.25 1.15 3.8 1.25l.5.4v.15l-.25.45q-5.3 3.1-11.4-.4l-.15-.15q-.85-1.35-4.2-1.75-4.85-.6-10.45 2.95-4.8 3.15-8.9 1.3-.3-.05-.3-.45v-.05q0-.35.4-.45 1.65-.4 3.05-1.35l-1.7-.55-2.95-.3q-.3 0-.5-.2l-.1-.3v-.2q.9-2.45 3.45-3.8-2.2-.25-3.2-1.35l-.1-.35.05-.2.5-.3 1.55-.05q1.95-.25 3.9-.95-1.7-.75-2.9-2.1l-.1-.35.05-.25q.25-.35.6-.25l4.95.15 5.3.35-1-1.65L13 2l.05-.2.4-.3 3.8-1.2.1-.05q.45-.1.95 1.1 1 2.6 1.8 4l.35-2.7v-.2q0-.35.35-.45 2.75-1.15 4.1-2l.65.05.15.35-.05.3q-.55.8-1.35 3.7Q27 1.6 28.4.6"/><path fill="#6efff3" d="M24.05 1.65q-.6 1.25-.85 4.7 3.3-3.1 5.55-4.7.55.45 1.95.9L27.6 5.9q3-1.25 9.05-1.05-.4.7-3.9 2.8l1.85-.15q2.25.3 4.2 2.4-2.85 2.3-7 2.2-.15 1.05 1.35 1.95 1.25.75 2.55.85-3.65 2.4-9.6-.45-1.2-1.75-4.05-2.5-4.7-1.25-10.5 2.4-4.4 2.9-7.8 2.35 1.8-.85 3.45-2.55-1.65.05-3.2-.65-1.45-.65-2.8-.4 2.15-3.55 7.3-3.9-4.45.2-6.55-.95L3.4 8.1q1.95-.4 4.4-1.55-1.65-.65-2.85-2l6.1-.05q3.55-.1 4.75 1.7l-1.45-3.85 2.85-.95 1.2 2.2q1.35 2.55 2 2.95l1-3.7 2.65-1.2"/><path fill="#1bc4b6" d="M23.5 3.6V4l-.25 1.8q-.4 2.2-.8 2.9l2.45-1.8 3.45-2.05-.75 1.05h.05Q26 7.9 26 8.65L27.25 8l2.2-.45 5-1q-4.7 2.45-4.85 4.1l5.65-1 3.5.25q-2.8 2.3-6.95 2.2-.15 1.05 1.35 1.95 1.25.75 2.55.85-3.65 2.4-9.6-.45-1.2-1.75-4.05-2.5-4.7-1.25-10.5 2.4-4.4 2.9-7.8 2.35 1.8-.85 3.45-2.55l-2.85-.45q-1.4-.6-2-.65l-.25-.15 3.65-.3q.7-.2 2.8-1.75.8-.6 3.3-1.1-1.75-1.05-3.5-.9 2.1-1.1 3.45-1.1 1.65 0 2.9.8l-.1-1.15q-.4-1.95-1.4-2.65 1 0 2.1.9l.5.55-.1-.25q1.1.9 2.7 3.3.7-.6.55-2.15-1.5-3.55-.85-3.75.05.45 1 1.55l1.1 1.6q.45.65.45 2.05l-.2.45.2.1v-.55Q21.6 6.3 23.5 3.6"/><path fill="#160249" d="M13.1 14.35q.35.35-.15 1.7-.9 2.4-.65 3.05.1.4-.2.6-2.3 1.45-2.7 5.7-.35 3.45.55 6.3l-.1.45q-.2.2-.4.2-2.2-.1-3.3-1.5-4.85.2-5.55-3.6-.1-.4.35-.6 2.15-.55 4-4.55 2.7-6.1 7.5-7.85l.65.1"/><path fill="#6efff3" d="M11.85 19.25q-2.5 1.6-3.2 5.7-.6 3.55.3 6.45-1.5-.1-2.1-.75l-.3-.65q-4.3.4-4.85-2.7 2.55-1.35 4.5-6.15 1.85-4.5 6.45-6.45.25-.1-.35 1.6-.75 2.1-.45 2.95"/><path fill="#1bc4b6" d="M12.65 14.7q.25-.1-.35 1.6-.75 2.1-.45 2.95-1.7 1.1-2.65 3.55-1.6 4.35-.25 8.6-1.5-.1-2.1-.75l-.3-.65H5.2q1.85-5.3 2.9-7.65l-2-1q2-4.7 6.55-6.65"/><path fill="#160249" d="M25.3 13.75q.15-.3.65-.15 4.85 1.8 7.55 7.85 1.7 4 4 4.6.45.1.35.6-.8 3.8-5.55 3.55-1.1 1.4-3.3 1.5-.3 0-.45-.2-.15-.15-.05-.45.9-2.85.6-6.3-.45-4.25-2.75-5.7-.35-.2-.2-.6.25-.7-.65-3-.5-1.4-.2-1.7"/><path fill="#6efff3" d="M29.8 24.3q-.7-4.1-3.2-5.65.3-.85-.45-2.95-.65-1.7-.35-1.6 4.6 1.95 6.45 6.45 1.95 4.75 4.5 6.1-.55 3.15-4.85 2.75 0 1.25-2.4 1.35.9-2.9.3-6.45"/><path fill="#1bc4b6" d="m31.05 18.15 2.05 4.5-.4.2q.9 2.7 3.45 5.15-1.15 1.65-4.25 1.4l-.45.75q.35-3.9-1.2-6.8h-.65q-.8-3.4-3-4.7.3-.85-.45-2.95-.65-1.7-.35-1.6 3.55 1.5 5.25 4.05"/><path fill="#03102a" d="M28.4 12.55q3 2.3 3.7 5.8l-.25.55-.6-.1-.15-.1q-5.5-5.55-11.5-5.55-6.25 0-12.2 6l-.65.05q-.3-.2-.2-.6 1.9-4.9 6.45-7.2 3.8-1.9 8.15-1.55 4.25.4 7.25 2.7"/><path fill="#0075d6" d="M27.45 12.8q3.3 2.1 4.15 5.65-12.35-11.9-24.55.35 1.65-4 5.45-6.2 3.5-1.95 7.7-1.85 4.15.05 7.25 2.05"/><path fill="#ffe6ff" d="M8.75 9.75q-2.55 1.55-4 2l-1.55.3q-1.1.2-1.35.6h-.1q.4-1.65 2.95-2.5 2.25-.75 4.05-.4m-.15-5.1H13v.1l-4.05.85q-1.7.35-3.8-1l3.45.05m-6.4 3.6q1.8-.2 4.55-1.1Q4.2 9.5 2.2 8.25m14-6.15 1 2.5.15.9.5 2.35-1.9-2.35q-1.1-1.4-1.2-2.8.5-.15.65-.6l.8 2.15V2.1m7.15.15q-.65 1.8-2.6 5.15l-.15-.9 1.05-2.55 1.7-1.7m5.3-.5.5.2L27.85 3l-2.4 2.1q-.8.6-1.7 1.95l.2-.8Q24.65 5 27 3.15l1.65-1.4"/><path fill="#03102a" d="M9.1 6.1h.25q5.3.85 8.05 3.9l.05.1q.9 1.7-1.35 2.8l-.35.05q-2.6-1.5-9.55-.8L5.8 12l-.15-.35.35-2.3Q6.8 6.9 9.1 6.1"/><path fill="#0075d6" d="M16.9 10.75q.65 1.2-.65 1.5-3.75-1.4-9.6-1.1L7 9.5q.65-1.75 2.3-2.4 1-.15 3.55.85 2.95 1.2 4.05 2.8"/><path fill="#b2caff" d="m16.9 10.75.05.05q-3.65-2.45-10.1-.95.65-2 2.45-2.75 1-.15 3.55.85 2.95 1.2 4.05 2.8"/><path fill="#03102a" d="M28.8 5.65h.25q3.65 1.3 3.45 5.6l-.15.35-.35.1q-7.25-.5-9.6.8l-.35-.05q-2.15-1.15-1.35-2.8l.1-.1q2.7-3.05 8-3.9"/><path fill="#0075d6" d="M21.25 10.35q1.15-1.6 4.1-2.8 2.55-1.05 3.5-.9Q31.5 7.7 31.5 10.7q-5.7-.3-9.6 1.15-1.3-.35-.65-1.5"/><path fill="#b2caff" d="M28.85 6.65q1.4.6 2.1 1.9-4.3-1.4-9.85 2.6-.1-.4.15-.8 1.15-1.6 4.1-2.8 2.55-1.05 3.5-.9"/><path fill="#03102a" d="m15.2 8.5 3.7.15q3.65-1.6 4.6-.25 1.25 1.7-.85 4.1-.8.9-5.5.4-1.65-.35-2.3-2.6-.3-1.2.35-1.8"/><path fill="#0075d6" d="M15.55 10.35q-.5-2.15 3.5-.6Q22.8 7.55 23 9.7q.2 2.1-1.55 3.05h-3.5q-1.9 0-2.4-2.4"/><path fill="#b2caff" d="M23 9.9q-.15.55-3.55.4-3.4-.2-3.55.85-.75-1.2-.1-1.75.75-.65 3.25.35Q23 7.5 23 9.9"/><path fill="#160249" d="m32.75 20.8-.05.5-.45.2-7.05-.05-.7-.9q-1.3-2.6-2.85-3.25-.35.95-.35 2l.2 1.8v.1l-.35.5-3 .2q-2.8-.05-3.65-.85h-1.15l-6.65.05-.3-.3-.05-.45q3.15-8.8 13.75-8.65 9 0 12.65 9.1"/><path fill="#6efff3" d="m20.45 20.8-2.9.15q-2.3-.1-2.7-.85l-7.3.05Q10 12.8 19.85 12.7q7.7 0 11.85 7.8h-6.1q-1.7-3.3-4.2-3.9-1.15.85-.95 4.2"/><path fill="#6efff3" d="m30.05 17.9-1.55.1-.85-2.1-.75-1.05q1.75 1.25 3.15 3.05"/><path fill="#1bc4b6" d="m30.05 17.9 1.65 2.6h-6.1q-1.7-3.3-4.2-3.9-.4.4-.7 1.45-.3 1.35-.25 2.75l-2.9.15q-2.3-.1-2.7-.85l-7.3.05.8-1.95 5.85.2q.9-1.75 2.55-3l-1.25 2.7 4.1.5q.85-2.5 1.5-3.45 2.65 1.65 3.9 3.1l3.2.4q1.5 0 1.85-.75"/><path fill="#160249" d="M15.65 17.45q-.5 1.35-.6 2.9-.05.2-.25-.15 0-1.75.85-2.75m2.95-.2q-.7 1.8-.65 3.9-.05.3-.3-.2 0-2.75.95-3.7m9.6 3.3q-.45-1.9-1.9-3.4 1.9 1.55 2.4 3.45l-.5-.05m-18.05-.2-.45.05q.45-1.9 2.35-3.45-1.45 1.55-1.9 3.4m-3.6 9.8q.2.1-.4.25-.2-2 1.1-4.05-.85 1.8-.7 3.8m25.35-.65q.1-2-.7-3.8 1.3 2.1 1.1 4.05-.6-.1-.4-.25"/><path fill="#ffe6ff" d="M16 14.85q.4-.05 2.75.75-4.3-.2-5.35.65.1-.65-.05-1.05-.6.05-1.25 1.1l.4-1.2-2.2 1.2q.9-1.1 2.65-2.05 1.85-.9 3.15-.85-1.55.4-1.95 1.3l1.85.15m9.15-.65q1.35.5 2.95 1.7l-.45-.05-1.8-.7.95 1-2.55-.25-4.3-.55 1.65-.2 1.95.1q-.75-.55-1-.85l2.65.95-2.8-1.95 2.75.8M5 24.55q1.05-1.6 1.2-2.45.3 1.3-.6 4.5-.95 3.6-2.4 2.8 1.55-2.65 2.05-4.1Q4.3 27 2.7 27.65l-.25-.3Q3.3 27 5 24.55m25.2 1.75-.15-2.35q1.55 5.25-.3 6.45L30 30l.2-3.7"/></g></defs></svg>