<svg xmlns="http://www.w3.org/2000/svg" xmlns:xlink="http://www.w3.org/1999/xlink" width="100.7" height="92.9"><use xlink:href="#a" width="48.45" height="42.8" transform="translate(11.55 42.05)"/><defs><g id="a" fill-rule="evenodd"><path d="m24.9 0 3.25.25.2.05q.65 0 .9.5l2.3 1.45.15.1q.4-.05.8.5l.2.05 1 .05h.05q4.05.25 6.75 3l1.5 1.8.75 1.2.05.15 1.2 2.65v-.05q1.2 2.95 1.65 5.45v.15l1.15 5.2.45 1.6.05.15.05.2 1.1 4.35-.1.65-.05.05-.25.6-.05.2-.65 1.55-.25.4-.45.2-.6.05h-.35l-.5.05-.25-.05-.2-.2-.1-.25-.7-.15-.2-.05-.7-.3-.2-.2-.1-.25q-.9-7.45-4.1-14.1-1.25-1.15-2.7-2H36l-.6-.35h-.05Q32.3 13.35 29.6 11l-1.15-1.1q-5.5 5.15-12.35 7.25h-.05v.05l.05.05-.05.35-.25.3-.05.05-.2.15q-3.45 6.15-4.1 12.15v.1l-.05.9-.15.3-.3.15q-.95.1-2 .85v.4l-.05.2-.1.15-.2.15-.2.15-.05.05-.35.05h-.05l-.65-.25.05.05-.4-.1-1.45-.6-.35-.3-.05-.05-.4-.6-.05-.05-.1-.15-.15-.55V31l.1-3.9-.1-1.5v-.05l.05-.5v.05l.2-.7Q3.1 25.95 1.8 27.9q-.2.3-.55.4l-.7-.05.05.05-.55-.5-.05-.7.6-1.85.05-.15q1.05-2.5 3.2-4.9l1.45-1.5.05-.15.75-.65.75-.6.05-.05.05-.05.2-.75.55-1.6.3-.8.4-.95.65-1.5.05-.1q.8-1.6 1.8-3.05l.5-.75.15-.2L13 5.75l1.15-1.3q2.5-2.5 5.55-3.45 2.7-.85 4.9-.95l.2-.05h.1m19.75 32.05V23.1h-2.3l-.35-.15-.15-.35V12.4h-1.7l-.35-.15-.15-.35V8.5h-25.8v3.3l-.15.35-.35.15h-.9v1l-.15.35-.35.15h-1.9v2.8l-.15.35-.35.15h-.6v15.45V17.1h.6l.35-.15.15-.35v-2.8h1.9l.35-.15.15-.35v-1h.9l.35-.15.15-.35V8.5h25.8v3.4l.15.35.35.15h1.7v10.2l.15.35.35.15h2.3v8.95"/><path fill="#630" d="m7.5 18.05-1.35 1.3-1.25 1.4-.15.1H4.6l1.45-1.55.7-.65.75-.6m24.05-14.4-.1.05v-.05q-.2-.35-.6-.3l.05-.1.6.35.05.05m-.15.45.05.05-.1-.05h.05m13.05 20.8h.05l.05.05-.05.05-.05-.1m.15 0h.05v.05l-.05-.05m-7.8-14.1v.05l-.05-.05h.05M32.85 6l.05-.05.05.1-.1-.05M5.4 25.45v-.1l.5-1.75-.1.7h-.05l-.35 1.15m2.55-7.05-.05-.05h.05v.05m3.15 1v-.05l.05-.05-.05.1m.85-5.2.05.05-.05.05v-.1M3.3 22.95l-.05.1L3.2 23l.1-.05m2.9 7.2.05-.3-.05.4v-.1m6 12.55h.1l-.05.05-.05-.05"/><path fill="#ae5700" d="m11.6 15.15.05.05-.15.1.1-.15m-2.75 1.9-.1-.1h.15l-.05.1m-3.95 3.7-.1.15-.05-.05.15-.1M44.5 25l-.05-.05v-.05l.05.1m-33.45-5.65.1-.05-.05.05v.05l-.05-.05m-7.5 3.1.1-.1-.1.15v-.05"/><path fill="#4a2500" d="M7.75 20.9v.05L7.6 21l.15-.1"/><path fill="#ffba2b" d="m8.85 17.05-.75.75q5.4-2.85 10.7-5.9l.8-.7.3-.1h.1v.15l1-.7q3.7-3.45 7.85-6.2l.2-.05h.15l1.55-.9.1-.05q.4-.05.6.3v.05l.1-.05V3.6q.05-.25.15-.1l.1.35v.05l.1.05.1.05-.15.05-.05.2-.1.05-3.5 3.2h-.05l-3.3 2.9-2.7 2.05q-2.45 1.7-5.5 2.55l-1.8.7-.2.1h-.05l-.4.1-.05.05-1.5.65-2.9 1.55-.6.4-2.9 2.05-.7.7-2.45 2.65-.25.25-1.2 1.35-.05.05h-.05q.95-2.4 3.05-4.75h.15l.05.05.1-.15 1.25-1.4 1.35-1.3.05-.05.25-.25.95-.8.1.1M31.4 4.1h-.05l.1.05-.05-.05M7.95 18.4v-.05H7.9l.05.05M3.3 22.95l-.1.05.05.05.05-.1m.25-.5v.05l.1-.15-.1.1"/><path fill="#370e04" d="m11.65 15.2.05-.1.25-.05.05-.1v-.4l.15-.25 1.25-2 .7-.9 1.65-1.9q2.1-2.3 4.55-4.2l.1-.1-.05.1q3.05-2.75 7.15-3.25l.65.05.1-.1.15-.2-.05-.05-.6-.25h.5l.05.05v.05l.1.05h.1l-.05-.05q1.4.55 2.4 1.65h.05l-.05.1-.1.05-1.55.9h-.15l-.2.05Q24.7 7.1 21 10.55l-1 .7v-.15h-.1l-.3.1-.8.7q-5.3 3.05-10.7 5.9l.75-.75.05-.1h-.15l-.95.8q1.3-4.9 3.95-8.75h.05l-1.15 2.2-1.6 3.55v.2L9 15.2l-.35.9-.1.4v.05l.05.05.25.15h.25l.1-.25.05-.2q.95-.85 2.35-1.15l-.1.15.15-.1m18.9-7.6h-.05.1l.05-.05h.05l-.45.45.5-.35.25-.15.5-.4.05-.05h.05l.4-.35.45.25.3.2.3.3.05.05.8.8 2.05 1.95.05.05.25.2.7.65-.15-.3v-.05l2.45 2.35.65.65 2.3 3.35.55.65 1.55 4 .35 2.1v1h-.2l-.25-1.05-.15-.35-.35-1q-.8-2.35-1.55-3.5l-1.75-2.3-1.8-1.7-1.95-1.4-1.95-1.25-2.9-2.2-.45-.35-.5-.35-1.15-.7-.35-.4.45-.4.6-.4.15.05m5.7 6.95q1.4.6 2.6 1.45 1.5.95 2.4 2.5l1.9 3.3.45.8.3 1.05q.2.8.55 1.3l.05.05.05-.05V25l.15.6v.05l.3.95.3 1.15q.55 1.85.7 3.75h-.3l-.9.05-.8-.15-.75-.35q-.9-7.6-4.2-14.35l-2.8-2.15m-21.05 3.1q-3.6 6.4-4.25 12.6v.05l-.05.9q-1.1.1-2.3 1v-.7l.1-1.2v-.05q.35-4.8 1.85-9.3l.55-1.55.05-.1 2.9-1.1q.7-.25 1-.5l.15-.05m-1.85 23.1v-.5l.25.4-.25.3v-.2M11 33.9l-.15-.05.05-.1h.05l.05.15"/><path fill="#200702" d="m30.55 7.6-.15-.05h-.05l.8-.95q.05-.95.75-1.65 0-.55.35-1.05l.05-.05h.05l.1.05 1.2.05q5.45.4 8.2 5.5 2.15 4.4 2.8 7.9.6 3.55 1.65 7.05l.05.2 1.1 4.4-.05.05q-.35.7-.35.95l-.6 1.45-.45.05q-.15-1.9-.7-3.75L45 26.6l-.3-.95v-.05l-.15-.6v-.05l-.05-.05h.1l.05.05V23.9l-.35-2.1-1.55-4-.55-.65-2.3-3.35-.65-.65-2.45-2.35h-.05l.05.05.15.3-.7-.65-.25-.2-.05-.05L33.9 8.3l-.8-.8-.05-.05-.3-.3-.3-.2L32 6.7l-.4.35h-.05l-.05.05-.5.4-.25.15-.5.35.45-.45h-.05l-.05.05h-.05m2.3-1.6.1.05-.05-.1-.05.05m-17.5 11.4.25-.05-.15.2-.05.05-.2.05-.15.05q-.3.25-1 .5l-2.9 1.1-.1.05-1.3.6-1.65.85-.3.15h-.05v-.05l1.15-.8.7-.4.5-.3.1-.05.7-.4.35-.15.4-.2.4-.2 3-1.2.1-.05.05.3.15-.05"/><path fill="#561607" d="m28.45 1.6.05.05h-.1l-.1-.05v-.05l-.05-.05h-.5l.6.25.05.05-.15.2-.1.1-.65-.05q-4.1.5-7.15 3.25l.05-.1-.1.1q-2.45 1.9-4.55 4.2l-1.65 1.9-.7.9-1.25 2-.15.25v.4l-.05.1-.25.05-.05.1-.05-.05q-1.4.3-2.35 1.15l-.05.2-.1.25h-.25l-.25-.15-.05-.05v-.05l.1-.4.35-.9.05-.25v-.2l1.6-3.55L11.8 9h-.05q1.35-2.05 3.1-3.85 2.3-2.3 5.15-3.2l4.75-.9.2-.05 2.95.2.4.1.05.05v.05l.05.1.05.1m.9 6.75.35.4 1.15.7.5.35.45.35 2.9 2.2 1.95 1.25L38.6 15l1.8 1.7 1.75 2.3q.75 1.15 1.55 3.5l.35 1 .15.35.25 1.05v.05q-.35-.5-.55-1.3l-.3-1.05-.45-.8-1.9-3.3q-.9-1.55-2.4-2.5-1.2-.85-2.6-1.45l-.65-.35q-3-1.25-5.65-3.55l-.35-.35-.1-.05-.4-.4-.45-.45q.05-.45.6-.95l.1-.1M8.6 32.2l-.65.5q-.25-.2-.9-.3l-1.1-.5-.45-.65-.1-.15v-.05l.1-3.95-.1-1.65.35-1.15h.05l.1-.7.05-.4.4-.9v-.05l.75-.7.15-.1.05-.15.1-.1.4-.25.3-.15 1.65-.85 1.3-.6.05.05-.55 1.55q-1.5 4.5-1.85 9.3v.05l-.1 1.2v.7m3.35-18v.1l.05-.05-.05-.05M6.2 30.15v.1l.05-.4-.05.3m-.15 4.4h.25l-.1.15-.15-.15m6.15 8.15-.25.1-.1-.05.35-.05"/><path fill="#c17402" d="M1.55 25.6h.05l.05-.05 1.2-1.35.25-.25 2.45-2.65.7-.7 2.9-2.05.6-.4 2.9-1.55 1.5-.65.05-.05.4-.1h.05l.2-.1 1.8-.7q3.05-.85 5.5-2.55l2.7-2.05 3.3-2.9h.05l3.5-3.2.1-.05.05-.2L32 4l-.1-.05.35-.05q-.35.5-.35 1.05-.7.7-.75 1.65l-.8.95h.05l-.6.4-.45.4-.1.1q-.55.5-.6.95l-.2-.2q-5.6 5.4-12.7 7.55l-.4.65-.15.05-.05-.3-.1.05-3 1.2-.4.2-.4.2-.35.15-.7.4-.1.05-.5.3-.7.4-1.15.8-.15.1.15-.05h.05l-.4.25-.1.1-.05.15-.15.1-.75.7.35-1.05-.3.2Q3.3 23.85.95 27.35l.6-1.75"/></g></defs></svg>