<svg xmlns:xlink="http://www.w3.org/1999/xlink" height="92.9" width="100.7" xmlns="http://www.w3.org/2000/svg"><g transform="translate(38.65 49.75)"><use height="13.4" transform="translate(-11.25 6.3)" width="21.5" xlink:href="#a"/><use height="34.45" transform="translate(-18.1 -8.2)" width="35.15" xlink:href="#b"/></g><defs><g id="a" fill-rule="evenodd"><path d="m9.85 14.8.4 2q-5.4 2.9-10.5 2.9-2.8 0-6.9-1.5l-3.5-1.55-.15-1.8 3.95 1 6.35 1q3.25 0 10.35-2.05" fill="#1e1c27" transform="translate(11.25 -6.3)"/><path d="M-5.7 10.95q-1.55-.75-2.4-.6-.8.15-.45 2.05.4 2.05 2 2.8 2.8 1.3 4.5.9.1-1.6-.7-2.75-1.05-1.55-2.95-2.4M3 9.3q3.45-2.1 5.15-1.5 2.75 1 1.35 8.65Q3.15 19.1-.2 19.1q-2.55 0-6.35-1.4-3.85-1.4-4.35-2.55-.6-1.5-.1-3.9.55-2.8 2.4-3.45 2.75-1 8.25 3.75l.1.2.15-.2L3 9.3m4.55 1.1q-.85-.15-2.35.6-1.9.85-2.95 2.4l-.65 2.75 1.2.05q1.5-.15 3.25-.95 1.6-.8 1.95-2.8.35-1.9-.45-2.05" fill="#ffff1c" transform="translate(11.25 -6.3)"/><path d="M-8.35 6.3Q-6 6.2-3.9 8.7l3.35 3.2Q-5.9 8.7-7.3 8.8q-.5.05-1.3 1.9-.85 1.95-.6 3.05.45 1.95 3.2 2.6l.5 1.1q.9.8 4.15 1.6-3.55-.45-6.6-1.85l-2.3-1.25-.45-1.55.3-4q.55-4 2.05-4.1" fill="#e6cf1c" transform="translate(11.25 -6.3)"/><path d="m-8.8 13.95 4.4 1.9q.4 0 .9.45l-3.85-.5-3.05-2 1.6.15" fill="#ffffcf" transform="translate(11.25 -6.3)"/><path d="m9.85 13.8-.4 2.6q-3.15 2.1-9.5 2.7 4.6-1.15 5.25-2.65l4.65-2.65m-7.5-4.95L7 7.05q1.1 0 2.45 2 .5.75.3 3.55l-.35.5Q8.35 9.9 7.35 9.95q-1.45 0-3.3 1.5L.95 13.8 1 17.2l-.8 1.35-.3-7 2.45-2.7" fill="#e6cf1c" transform="translate(11.25 -6.3)"/><path d="M2.55 8.75q2.6-2.3 4.55-2.3 3.1 0 2.7 5.8-.75-2.2-1.65-2.65-1.35-.75-4.05.25L0 12.05h-.25l.6-1 2.2-2.3" fill="#a88f14" transform="translate(11.25 -6.3)"/><path d="m1.1 17.8-1 .65-.15-5.35 1.15 4.7" fill="#cd7c00" transform="translate(11.25 -6.3)"/><path d="m-.9 13.85-.3 4.6-1-.25 1.15-4.15.15-.2" fill="#ffffcf" transform="translate(11.25 -6.3)"/><path d="M-3.25 12.15Q-2 13.7-2.05 16.1q-.05-2.35-1.65-3.75-1.15-1-2.6-1.5l-1.75-.15q-.55.6-.25 2.15.4 1.95 2.4 2.9-2.5-1-3-3.35-.45-2.05.45-2.55.65-.35 2.45.4 1.85.8 2.75 1.9m5.9 0q.9-1.1 2.75-1.9 1.8-.75 2.45-.4.9.5.45 2.55-.5 2.35-3 3.35 2-.95 2.4-2.9.3-1.55-.3-2.15l-1.7.15q-1.45.55-2.6 1.5-1 .9-1.4 2.4l-.25 1.2.1-1.25q.3-1.6 1.1-2.55" transform="translate(11.25 -6.3)"/></g><g id="c" fill-rule="evenodd"><path d="M8.9-8.1q.6.4-2.05 2.8Q3.9-2.6 0-.7q-3.6-1.85-6.45-4.1Q-9.2-7-8.6-7.45-4.15-10.95.5-11h.25q4.15.05 8.15 2.9" fill="#1e1c27" transform="translate(17.6 17.2)"/><path d="M8-7.2q.55.4-1.9 2.75Q3.4-1.8-.15 0q-3.3-1.8-5.9-4-2.55-2.15-2-2.6Q-3.95-9.95.3-10h.25Q4.4-9.9 8-7.2" fill="#302849" transform="translate(17.6 17.2)"/><path d="m6.7-10.4 1.65-6.8q5.85 5.75 6.75 11.05.45 2.65-1 5.5l.85 2.5q.85 2.8.8 4.5-2.15 6.65-9.3 10.9-.15-4.9.4-5.45 4-4.05 3.3-9.45-.5-4.1-2.3-4.55Q6.4-2.55 4.2-.5L.45 3.25q-6.2-5.9-8.15-5.45-1.65.4-2.25 5.45-.6 4.5 3.45 8.55.9.9.7 5.4-7.8-4.7-9.65-10.85 0-1.35.85-4.25l.85-2.75q-1.65-3.1-.3-7.2 1.65-4.75 6.2-9.35l1.5 6.8Q-5.05-6.25.2-4.6q5.2-1.65 6.5-5.8" fill="#1e1c27" transform="translate(17.6 17.2)"/><path d="M15.2-5.95q0 3-1.95 6.75l-6.2-11.85L8.3-17.2q6.9 8.25 6.9 11.25" fill="#1e1c26" transform="translate(17.6 17.2)"/><path d="M.2-3.3q5.6-1.6 7.05-5.6 1.05-3 1.65-6.5 4.35 3.6 5.35 9.25.3 1.95-1.05 5.55-.15.55.5 2.1.9 2.2 1.25 4.5-2.05 5.65-7.75 9.4l.3-2.65q4.3-4.35 3.55-10.2-.85-7.1-4.35-5.75Q5.9-2.9.2 2q-5.7-4.9-6.6-5.25-3.45-1.3-4.35 5.8-.65 5.9 3.6 10.2l.3 2.65q-5.7-3.75-7.8-9.4.4-2.25 1.3-4.5.65-1.5.45-2.1-1.25-3.75-.85-5.9 1.05-5.2 5.4-8.75l.5 2.95q.5 2.75 1.4 4.3 2 3.35 6.65 4.7" fill="#e6cf1c" transform="translate(17.6 17.2)"/><path d="m-9.05-12.45 1.35 3.2q1.7 3.5 3.6 4.8-5.05-1.9-6.95 5.9-.75 3.05-.05 5.35.7 2.4 3.55 6.1-1.75-1.25-3.85-4.5-1.85-2.85-1.95-3.75l1.3-4.55q-1.2-5.15-.8-6.6l3.8-5.95m13.3 7.9Q8.75-8 9.6-13.7q1 1 .7 4.85-.3 4 .15 4.65 1.45 2.25 1.9 6.25.6 5.6-2.6 8.8 3.6-4.35 1.4-11-.9-2.85-2.7-4.1-1.9-1.4-4.2-.3" fill="#ffff1c" transform="translate(17.6 17.2)"/><path d="m-8.85-14.05.4 2.35q.7 2.8 2.45 5.6l-3.3-4.95q-2.65 2.6-3.05 4.75-.35 2.2 1 6 .2.9-1.25 4-.25.65.3 2.5l.6 1.75q-1.6-2.45-1.65-3.3l1.3-4.55q-1.5-4.6-1.05-7.1.45-2.5 4.25-7.05m18.9 1.4q.1.95-1.75 4-2 3.25-3.45 3.8 3.5-3 4.35-9.45l.85 1.65" fill="#ffffcf" transform="translate(17.6 17.2)"/><path d="M14.5 6.1q-.9 2.9-4.65 6.5Q12.7 9.7 13.5 7q.5-1.55-.1-3.8l-.75-1.95.25-.9 1.6 5.75" fill="#cd7c00" transform="translate(17.6 17.2)"/><path d="M.05-6.5Q-.1-5.4.1-5.2q-1.15-.3-2.4-.85-2.4-1.05-2.1-1.9l1.35-.75q1.75-.7 4.25-.7Q.25-7.95.05-6.5" fill="#3a3265" transform="translate(17.6 17.2)"/><path d="M15.6 6.7 13.45.6q4.1-1.8 4.1-1.3L15.6 6.7" fill="#1e1c26" transform="translate(17.6 17.2)"/><path d="M14.25 1.3 16.5.45l-1.25 4-1-3.15" fill="#e6cf1c" transform="translate(17.6 17.2)"/><path d="m-15.25 6.95-2.35-7.9L-13.25.6l-2 6.35" fill="#1e1c26" transform="translate(17.6 17.2)"/><path d="m-14 1.2-1.15 3.5L-16.3.2l2.3 1" fill="#e6cf1c" transform="translate(17.6 17.2)"/><path d="m-14 1.2-1.25.7.15 3-1.4-4.85L-14 1.2" fill="#ffffcf" transform="translate(17.6 17.2)"/><path d="M4.85-3.35.2 1.45l.15-1.5 4.5-3.3" fill="#cd7c00" transform="translate(17.6 17.2)"/></g><use height="34.45" width="35.15" xlink:href="#c" id="b"/></defs></svg>