<svg xmlns="http://www.w3.org/2000/svg" xmlns:xlink="http://www.w3.org/1999/xlink" width="100.7" height="92.9"><use xlink:href="#a" width="42.3" height="33" transform="translate(18.2 44.25)"/><defs><g id="a" fill-rule="evenodd"><path fill="#1a171b" d="M29.75 2.5q3.2.95 5.1 2.9 2.25 2.35 2.25 5.55l-.3 2.1.05.05q5.45 6.25 5.45 10.15 0 3.25-2 5.55l-4.1 2.8-.9-4.15q-.3-3.05-1.15-5.8l-.85-2.15-1.85 2.05-1.95 1.8.55-2.6.25-2.4q-.3-9.1-5.4-9.95l-4.25-1.05q-.6 1.55-4.05 3.55L13 13.2q-2.75 1.9-2.75 4.7l.25 1.5.45 1.2H9.7q-1.35-.15-2.4-1.55Q3.55 25.6 4.65 33L.9 29.15q-2-4.4.55-9.65l2.45-4.35q.65-1.05.65-1.55l-.05-1.1Q3.95 7.45 7.15 5q4.15-3.3 9.9-2.75 6.55-4.6 12.7.25"/><path fill="#381719" d="M35.15 21.75q-4.05-15.7-15-15.7-3.95 0-8.2 4.5-3.75 3.95-6.3 9.65-2.05 4.55-2.5 9.8l-1.6-2.2q-1.75-3.2.55-8 3.1-4.65 3.2-6.25l-.15-3.6Q5.4 7.3 7.55 5.6q3.95-3.15 9.6-2.55 8.25-5.85 15.5 3.8.8 1.05 1.75 3.55.95 2.35 1.7 3.2 10 11.65.3 17 .5-2.1-1.25-8.85"/><path fill="#fff" d="M34.1 5.9q2.9 3.05 1.7 7.4-1.1 3.95-5 7.55.5-2.5 0-5.65-.5-3.3-1.85-5.2Q27.9 8.45 25 7.65L20.05 6.3q-.15 1.4-2.25 2.75l-5.4 3.35q-4.45 3.1-2.8 7.25-2.95 0-2.8-5.65.05-3.95 4.9-7.1 4.45-2.9 7.6-2.3 2.25-2 6.9-1.85 5.05.15 7.9 3.15"/><path fill="#1a171b" d="m7.05 17.4-.15 1.2q-.8-1.4-.8-3.95 0-2.35.55-3.65.8-1.8 3.2-3.55 3.3-2.45 7.7-2.85-6.9 1.5-9.75 6.05-1.55 2.4-.75 6.75"/><path fill="#dbdfdf" d="M23.35 3.95 29 4.1q.3.15-2.05.75l2.85.95q3 1.35 3.7 3.65-2.25-1.25-3.65-1.3 3.85 3.9.95 12.55 1.65-6.8-2.15-12.2L19.9 6q-.05.65-1.4 2.5-6 2.9-8.45 6.25-.9 1.25-.45 4.9-.6-2.35-.15-4.7.3-1.5 3.95-4.7L17 7.3l-4.8.95q.95-1.7 3.9-2.9l2.75-.85 4.5-.55"/><path fill="#aeb9bc" d="m28.05 4.25-5.85.7 3.5.25q3.9.6 5.95 2.5-1.2-.95-5.5-1.55-6.25-.85-.25.3 3.6.7 4.95 6.05 1.25 4.8-.05 8.35 1.1-11.6-6.35-13.3l-4.4-1.25q0 1.5-2.85 3.1l-5.9 3.85 5.1-4.1q3.4-3.05 1.95-3-2.2.1-4.45 1.2.65-1.05 3.1-2l2.3-.75 8.75-.35"/><path fill="#230307" d="M39.6 27.95q-1.7-5-4.75-6.75l-.75-2.55 1.35-2.3q4.4 4.6 5 7.85-1.3-2-2.85-3.1l-1.25-.75 1.35 1.55q1.45 2.35 1.9 6.05M6.15 16.15l.5 1.85-1.5 3.65-2.1 2.8q.15-1.4 1.4-3.9l1.25-2.2-3.1 4.25q2.45-5 3.55-6.45"/><path fill="#582828" d="M16.45 3.2q.8.2.1.55-4.85.95-7.7 3-1.3.95-2.1 2.65l-.6 1.5q0-2.6 2.95-5.5-2.8 1.7-3.4 4.2l-.15 1.8q-.6-2.6 1.55-5 3.15-3.55 9.35-3.2m2.35-.15L18.3 3l.05-.45Q20.95.5 25.5 1.6q-2.8-.5-6.7 1.45M4.9 15.25q.25-.4.45-.15.25.25 0 .8l-2.2 3.2q-1.9 3.35-1.8 6.95-.55-3.3 1.45-7.35l2.1-3.45m31.6-.6 2.1 2.45q2.15 2.9 2.55 5.05-1.2-3.05-3.15-5.35l-1.75-1.7.25-.45"/><path fill="#1a171b" d="m29.65 2.6.15.75q-3.95-1.2-7.65-.1L19.3 4.6q3.3-4 10.35-2"/><path fill="#1e1c26" d="M33.25 18.25q2.05-2.65 2.7-5.55l.8.45q-1.1 4-3.7 6.65l.2-1.55"/></g></defs></svg>