<svg xmlns="http://www.w3.org/2000/svg" xmlns:xlink="http://www.w3.org/1999/xlink" width="100.7" height="92.9"><use xlink:href="#a" width="35.7" height="23.4" transform="translate(20.1 39.3)"/><defs><g id="a" fill-rule="evenodd"><path fill="#a82900" d="m2.95 18 2.65-1.85Q7 15.9 7.2 17l-2.25 3.2q-.45.55-2-2.2m28.85-2.35 1.25 3q0 1.45-1.15 1.35l-2.65-2.85q-.3-.4.9-1.05t1.65-.45"/><path fill="#9a0000" d="M22.65 4.85q3.75 1.65 4.9 3.35l1.05 4.6.25 1.25q.1.4-.8 1.1-3.65 2.4-8.65 3-7.15.85-12.45-3.35l-.2-.5q.6-4.55 1.4-6.4.3-.7 3.95-2.55l4.85-2.05.15-.05q2.2.2 5.55 1.6"/><path fill="#400000" d="m11.7 5.75-3.9 8.4-1.2.1L8.15 7.9l.6-.75 2.95-1.4m11.4.45 2.95 1.35.6.8 1.55 6.35-1.25-.15L23.1 6.2"/><path fill="#400000" d="m24.1 5.55 1.4.7 1.55 1.15.6.75 1.55 6.35-1.25-.1-3.85-8.85"/><path fill="#ffbe00" d="M17.1 4.3q2.1.2 5.15 1.45 3.4 1.45 4.45 3 .4.6 1.05 5.75l-1.7 1.2q-2.15 1.1-4.65 1.6-7.55 1.6-13.6-3.15.7-4.55 1.3-5.95.25-.5 3.45-2.05L17.1 4.3"/><path fill="#ff6900" d="m27.55 13.2.2 1.3q-6.2 4.45-13.45 2.8-1.2-4.7-.2-11.9l3-1.1q4.9.35 8.6 3.4.25 1.45-.05 4.9l1.9.6"/><path fill="#9a0000" d="m24.8 5.65.45.45.15.45q-.5 3.55-1.9 8.95l-.2.8-.05.15q-1.3 2.05-10.65.6l-.4-.45-.75-2.85q-1.8-6.7-1.55-7.1l3.45-3.05Q16.9.6 17.5.55q1.7 0 7.3 5.1"/><path fill="#fff" d="M10.85 7.1 17.6.9q.65-.1 6.75 5.75-.55 3.75-2.15 9.7-1 1.75-9 .1 0-.25-2.35-9.35"/><path fill="#a3c9f4" d="m21.2 8.55-.55-3.5-.35-2.1 2.5 2.25-1.85 7.45.25-4.1m-6 8.25-.6-4.5 2.7 4.75-2.1-.25"/><path fill="#9a0000" d="M21.85 2.95q3.65 2.7 3.9 3.25.25.45-1.45 7.35L23.75 16q0 .8-1.35.8-1.45 0-1.45-.9l1.25-8.8q-1.4-1.7-4.5-3.55-2.6 1.4-4.6 4l.7 4.35.85 4v.15l-.1.45q-.45.45-2.75-.45l-.25-.2-1.25-4.5q-1.1-4.55-.5-5l-.05.1L13.2 3.1q3.6-3.3 4.45-3l4.2 2.85"/><path fill="#400000" d="m25.75 6.2.05 1.2q0 .5-1.65-.65L17.7 2.5l-8 5.25V6.5l3.25-3.25Q16.4 0 17.35 0q1.6 0 8.4 6.2"/><path fill="#ff0" d="M24.8 6.55q.25.6-1.75 9.45 0 .45-1.1-.25l1.35-8.8q.05-.3-5.6-4.45l-5.6 4.95 1.8 8.8q.2.4-1.45-.65L10.75 7l3.35-3.4Q17.15.75 17.6.9l3.75 2.7 3.45 2.95"/><path fill="#ff9c00" d="m24.15 6.75-1.1-1.6-.2-.35 1.95 1.75q.25.6-1.75 9.45 0 .35-.5.25l.55-2.85.5-2.35q.7-3.45.55-4.3M17.2 2.4q.85-.35.6.15l-.1-.05-5.6 4.95 1.8 8.8q.1.2-.3 0l-.05-.25-1-4.5q-1-3.95-.1-5l1.75-1.85 1.5-1.25 1.5-1"/><path fill="#9a0000" d="M30.3 14.05q1.25.2 3.15 1.8 1.65 1.35 2.15 2.25l.1.35v.1q0 .8-1.75 2.6-1.8 1.8-2.1 1.15-1.15-1.15-1.6-2.05l-.1-.25-.05-.2.15-.3.4-.75.1-.15q-.45-.95-1.5-1.1l-5.3 1.6q-4.3 1.15-5.5 1v-.05h-.05l-5.4-.8-6.05-1.5q-1.25.75-1.6 1.45l.5.45.45.4q-1.4 3.2-1.6 3.15-1.6-.35-3.25-1.9Q0 19.95 0 19.35l.05-.25 2.25-2.55Q4.6 14.3 6.35 14h.25q9.85 2.65 11.6 2.5l3.95-.9q7-1.7 8.15-1.55"/><path fill="#400000" d="m32.1 22.9-2-3.1-.85-2.3q-1.35-.95-1.45-1.75v-1.6h3.4q1.1.25 4.1 3.35l.3 1.4q-.25.85-3.5 4M7.4 16.25 7.1 18l-.85 2.3-2.05 3.1q-3.75-2.5-4-3.35-.15-.5.35-1.3l.5-.75 4.15-3.6 2.15-.35.05 2.2"/><path fill="#ffbe00" d="m29.1 16.65-5.15 1.6q-4.7 1.2-5.65 1l-5.1-.8-6.3-1.55Q4 18.35 4.35 19.1q.2 1 .7 1.2.4.15-1.1 1.8-1.1-.4-2.05-1.35l-.85-1.35q3.3-4.25 5.4-4.55l11.85 2.5 5.9-1.4q4.95-1.2 5.9-1.05 1.25.2 3.1 1.75 1.7 1.5 1.5 1.85.2.7-2.5 3.1l-1.05-1.75.65-1.4-1.35-1.2q-1.1-.7-1.35-.6"/><path fill="#ff6900" d="M31.5 16.8q2 1.05 2.7 2.95-1.5 2.2-2 1.85l-1.05-1.75.65-1.4-1.35-1.2q-1.1-.7-1.35-.6l-5.15 1.6q-4.7 1.2-5.65 1l-5.1-.8-6.3-1.55Q4 18.35 4.35 19.1q.2 1 .7 1.2.4.15-1.1 1.8-1.1-.4-2.05-1.35l1-1.55 2.75-2.9q.4-.4 3.45.6l5.25 1.3q2.35.85 5.9 0l7.3-2.05q1.95-.4 3.95.65"/><path fill="#6d0303" d="m19.85 6.05.35.35q.3 1.95-.1 8.05l-.45.45-2.4-.1-.2-.4.2-3.65-.75.9-.7.1-.45-.25q-1.25-.55-1.35-1.05l.1-.5 1.6-2q1.65-2 2.15-2l.25-.05 1.75.15"/><path fill="#d20000" d="m15.05 10.2 1.55-1.85 1.55-1.45 1.1.05-.15 7-1.05.05.05-5.6-2.1 2.35-.95-.55"/><path fill="#ff8b6c" d="m17 8.65-1.05 1.4q-.4.55-.7.25l.25-.6 1.7-1.85q.95-1.1 1.4-.95l-.75.85-.85.9"/><path fill="#fff" d="M11.05 8.75q-.15-3.35 1.9-3.65-1.45 1.85-1.35 3.3l.95 5.35h.15q-.45.25-1.1-2.1l-.55-2.9m7.9-6.5-.5-.5-1.25-.15q-1.4 1.7-2.3 1.65 1.2-1.65 2.4-2.1.5-.2 2.15 1l-.5.1m4.6 4.2q.65.65-.2 4.6l-.9 4.1-.15.05q-.25-.5.25-3.35.25-2.7.75-3.55 0-1.65.25-1.85m-14.3 1.8h.25l-.3 1.5q-.5 2.15-.15 4.85-.9-.15-.95-.45l.15-1.3q.6-4.4 1-4.6m5.05 8.8q6 2.05-6.65-1l-2.6.45-3.5 3.8Q.5 19.25 3.7 16.4q1.4-1.25 2.4-1.4l1.45.1 6.75 1.95"/></g></defs></svg>