<svg xmlns="http://www.w3.org/2000/svg" xmlns:xlink="http://www.w3.org/1999/xlink" width="100.7" height="92.9"><use xlink:href="#a" width="33.9" height="32.35" transform="translate(21.35 36.75)"/><defs><g id="a" fill-rule="evenodd"><path fill="#9a0000" d="M19.6.05q.4-.15.65.2l.1.25-.2.4q-1 1-1.1 4.75l.1 1.5q.3 1.15.6 1.55l-.05-.65q0-1.6.65-2.75.15-.35.6-.25l.4.45q.1 1.85 2.5 4.05 1.95 1.7 2.3 3.1.35-.95.35-1.8l-.2-1.1-.05-.2.2-.35.55-.1q3.75 1.95 3.65 7l-.15 1.65.35-1.05v-.25l-.05-.1q0-.3.3-.4l.6.05q2.15 1.95 2.2 3.85v.1q-.05.9-2.35 3.2l-.1 4.2q-3.05 2-3.85 1.75l-.35-.35.2-4.75-1.05-.25-.35-.25-.05-.2q0-.9.3-1.45l-.8.05q-.6 0-.75-.4l-.05-.2v-.25l.25-1.15q-3.2.15-3.5-.45l-.05-.15v-.65q-1.85 1-3.75 1.95-1.55.7-4.65-1.65l-.05.8-.3.35-2.8-.1-.6-.05.2.55-.05.15-.25.35-2.8 2.35L7.6 25.9l.15.3-.05.1-.2.3-1.35.55.05 2.15-.15.35-.4.15q-1.5-.15-2.65-1.45l-.1-.25q-.2-1.2-1.5-2.65-1.9-2.4-1.2-4.35.2-.4.55-.3.45 0 .45.4l.1.15-.15-1V19.3q0-3.35 1.7-4.85l.5-.1q.35.1.35.4.25 1.3 1.1 2.15l-.1-.65q.05-2.35 3.55-5.2Q10.4 9.2 10.8 8.2l-.25-2q0-2.95 2-3.8h.5l.25.4v.05l-.2 1.5q0 1.55 1.05 2.85.2-4.35 5.45-7.1V.05"/><path fill="#fb6800" d="M18.65 1.9q-.9.55-.55 3.95.35 3.75 2.75 4.85-.75-1.85-.05-3.3.4.95 2.85 3.25 2.05 1.9 2.15 4.2.65-.15 1.4-1.55.8-1.6.3-2.6 1.8 1.35 2.15 4.7.25 2.5-.25 4.75l1.4-.9q1-1 .85-1.8 1.95 1.95.55 3.8l-1.7 1.8.05 3.5q-2.1 1.85-2.2 1.25.3-4.7-.05-4.7l-1.25-.15.75-2.2-2.05.25q-.1-1.3.35-2.15-4.35.75-3.7 0l-.35-1.8q-2.15 1.6-5.2 2.75-1.6-.3-3.3-1.55l-1.15-1-.45 1.9-4.2.1.55 1.15L5.05 23l1.4 2.95-1.15.75-.15 1.9q-.8-.1-1.35-.75-.25-1.45-1.45-2.9Q1.1 23.55 1 22.4q.65.8 1.7 0-.55-.95-.6-3.1 0-2.45.9-3.4.1.65 1 1.4 1 .85 1.85.7Q5 15.3 7.9 12.65q3.65-3.4 3.9-4.15l-.45-2.05.75-2.35q0 2.85 3 5.3-.3-1.45.4-3.5.9-2.75 3.15-4"/><path fill="#ffcd00" d="M16.85 19.8q-1.55-.3-3.25-1.5l-1.2-.9-.5 1.9-4.15-.05q.65 1.1.55 1.15L5.05 23l1.65 3.1-1.4.45-.15 2.05q-.7-.1-1.35-.75 0-1.8-.95-2.85-1.05-1.1-1.15-1.85l1.15.35 1.35-.15q-.65-1.05-1-2.65-.45-2.1.4-2.9l1.15.85 1.95.25q-.35-2.6 1.85-4.25 2.95-2.15 3.65-3.75 0 1.45 3.4 3.9-.75-4.2 1.85-6.15.25 3.65 4.2 5.65-.75-1.7.2-3.4.3.6 2.1 2.7 1.35 1.5 1.45 3.45l1.45-.95q.95-.9 1-1.8 1.85 2.75.85 6.55l1.1-.05q.75-.1.6-.7.55 1.45 0 2.25l-.55.75.2 3.8q-1.65 1.25-1.7.9l.05-4.6-1.35-.25.75-2.2-2.05.25q-.1-1.35.35-2.15l-3.65.1-.4-1.9q-3.5 2.2-5.2 2.75"/><path fill="#ffff94" d="M27.95 17.05q.2.6-.3 3.85l-1.25.2-.65-.1q-.1-1.3.35-2.15-4.35.75-3.7 0l-.35-1.7.8.35q-1.2-2.4-.4-3.5.3.85 1.5 2 1.05.95 1.15 2.25l1.5-.2q1.05 0 1.35-1m-.45 4.7q1.85.4 2.45-.25.1 1.9-.6 2.25l.6 3.3q-1.1.75-1.6.75.15-4.7-.05-4.7l-1.25-.15.45-1.2m-19.55-1.5-.15-.85.5 1L5.05 23q.8 1.95 1.65 3.1l-1.4.6-.15 1.9-1.25-.65-.8-3.8q.65.15 1.95-.5-.7-.85-.7-4.25 1.9 1.55 3.6.85m7-2.45q-1.65-2.2-1.5-3.3l4.4 3-.8-1.9q-.65-1.6-.45-2.85.05.8 1.7 1.9L22 17.1q-2.1 1.55-5.15 2.7-2.45-.5-4.45-2.5l-.45 1.85-4.15.1q0-1.9 1.25-3.35-.05 1.15.4 2.35.35-2.6 1.9-4.5.15 1.7 3.6 4.05"/><path fill="#9a0000" d="M2.65 29.5q.7.75 2.35.9.3 0 .45.25.1.3-.05.5-.45.8-2.25 1.2l-1.8-.1-.15-.15q-.5-.9.65-2.5.15-.25.4-.25t.4.15"/><path fill="#ffff94" d="M2.3 30.2q.65.65 2.4.8-.35.6-1.45.75l-1.3-.05.35-1.5"/><path fill="#9a0000" d="m33.15 31.1-.15.15-1.75.1q-1.85-.4-2.3-1.2-.15-.2 0-.5l.4-.25q1.75-.15 2.35-.9.25-.15.45-.15l.35.25q1.15 1.6.65 2.5"/><path fill="#ffff94" d="m32.05 29.2.35 1.5-1.3.05Q30 30.6 29.65 30q1.7-.1 2.4-.8"/></g></defs></svg>