<svg xmlns="http://www.w3.org/2000/svg" xmlns:xlink="http://www.w3.org/1999/xlink" width="100.7" height="92.9"><use xlink:href="#a" width="36.9" height="34.15" transform="translate(19.8 40.85)"/><defs><g id="a" fill-rule="evenodd"><path d="M3.55 8.7 3.4 9l-1.2 2.65q-.35.8-.3 1.65l.15 2.7.25 1.35.4 1.3.15.35q.55.25.55 1.75l1.05 1.65q0 .4-.35.4-.8 0-1.3-1.35l-1-.05-.4-.1-.35.35-.05.55.05.05v.1l.25.3.5.2.5.15q.75.05 1.7 1.05l.5.45q.5.4-.25.15L2 23.9l-.2-.05-1.2-.55-.4-.5q-.4-.8 0-1.5.3-.6.8-.75h.8l.45.15-.05-.15h.3l-.2-.9h-.1l-.05-.1-.1-.25-.05-.05v-.05q-1.65-4-.6-7.7Q2.65 7 6.3 4.15 11.85-.05 18.95 0q4.2.05 8.2 1.55 1.95.75 3.5 1.75 2.15 1.45 3.8 3.7 1.4 1.95 2.05 4.3l.25 1.15.15 1.5-.05 2.15q-.15 1.75-.9 3.45l-.3.65v.05l-.4 1.25h.25q1.75.75 1.25 2.25-.3.8-1.1.9l-.75.4-2.85.35.75-.8q1.7-.3 3-1.25.3-.6-.25-1-.55-.05-1.1.25-1.1 1.1-1.85 1.1-.3 0-.3-.35 0-.3 1.5-1.8l.85-.9v-.1l.35-.75.05-.25q1.3-3.55.7-7-.6-3.4-2.9-5.85-3.4-3.6-8-4.85-4.7-1.3-9.45-.55l-3.45.9q-2.7.95-5 2.75L5.05 6.8l-1.5 1.9m.7 15 .05.15-.05-.1-.05-.1.05.05"/><path fill="#000051" d="m27.45 26.95-.5.15q-5.1 1.4-9.05 1.25h-.1l-.3-.05-3.35-.4-2.55-.75q-3.1-1.3-6.05-2.45l-.9-.4H4.6v.05l.35.6.1.15v.05l.05.05.4.8 5.3 5.15.2.15q4.35 2.85 10.25 1.9 6.05-1.35 10.45-7.3l.2-.35.1-.15-.1.1-.95.4-2.45.75-.35.05-.7.25M23.35 31l.2-1.5q-5.15 1.1-9.5 0l-.15 1.55 4.1 1.1q2.1.2 5.35-1.15m.65.15v.15q-.7.25-1.4.65-1.6.6-3 .65h-1.7l-3.05-.75-1.4-.6.1-2.1q-.05-.2.1-.25v-.05q4.55 1.25 10.3.1l.05.2q-.3.95-.25 2.05l.2.05v-.1H24m1.15.1-.35.1-.2-.15.2-2.5 6.35-2.6q-2.2 2.95-6 5.15M35.5 22.2l.25.15q.55.45.65 1.05l-.65 1.1-.25.1q-.5-.05-2.6.9-4.6 6.55-11.05 8.25-6.5 1.55-13.4-3.3-2.3-1.65-4.6-6.25l-.05-.1h-.05q-2.25-.85-2.55-.85l-.2-.1Q.25 22.6.45 22q-.2-.5.55-1 .05-.15.25-.15 1.85-.4 3.05 2.05.15.1.25.15.05-.05.1.05 11.75 8.65 27.7 1.25 1-2.6 3.15-2.15m-10.05 6.6-.2 1.8q2.3-.95 4.6-3.65-2.8 1.4-4.4 1.85m9.05-6.1-.15.05-.3.25q-.85.7-1.15 1.75l.2.15h.1l.3-.15.05-.1.2-.05.35-.15 1.45-.25.2-.15.05-.05.05-.5v-.45l-.1-.05-.1-.05-.15-.2-.2-.15-.1-.05h-.35l-.05.05-.35.1h.05m-32.7.2 2.15.8-.05-.2v-.05l-.3-.75-.4-.65-.25-.25-.1-.1-.15-.1q-.35-.3-.6-.15-.8.05-.85.3l-.1.2.05.05v.05l.05.05.15.5.4.3m11.1 8v.2q-4.35-1.6-7.35-5.85h.05l.05.05 6.4 3.15 1.15.5V29l-.6 1.85.15.05.05-.05.1.05m-.45-.5.3-1.3q-3.5-1.25-5.8-2.85 1.75 2.25 5.5 4.15"/><path fill="#000028" d="m26.95 27.1.5-.15.7-.25.35-.05 2.45-.75.95-.4.1-.1-.1.15-.2.35q-4.4 5.95-10.45 7.3-5.9.95-10.25-1.9l-.2-.15L5.5 26l-.4-.8-.05-.05v-.05l-.1-.15-.35-.6v-.05h.05l.9.4-.65-.05.55.2 1.25.6 2.25 1 .8.35.5.2q.5.15 1.65.65l3.8.9.7.05q1.95.2 4.25.05l2.55-.45 3.75-1.1M24 29.15l-.05-.2q-5.75 1.15-10.3-.1v.05q-.15.05-.1.25l-.1 2.1 1.4.6 3.05.75h1.7q1.4-.05 3-.65.7-.4 1.4-.65v-.15h.05q-.05-.1.05-.05l.1-.15.1-.5q.1-.85-.2-1.35h-.05v.05H24m1.15 2.1q3.8-2.2 6-5.15l-6.35 2.6-.2 2.5.2.15.35-.1m9.35-8.55.2-.05-.2.05h-.05l.35-.1.05-.05h.35l.1.05.2.15.15.2.1.05.1.05v.45l-.05.5-.05.05-.2.15-1.45.25-.35.15-.2.05-.05.1-.3.15h-.1l-.2-.15q.3-1.05 1.15-1.75l.3-.25.15-.05m-31.3-.65.4.65.3.75v.05l.05.2-2.15-.8-.35-.6.4-.5 1.35.25m-.5-.45.15.1.1.1-.25-.2M13.2 29v-.05l-1.15-.5-6.4-3.15-.05-.05h-.05q3 4.25 7.35 5.85v-.2h.05l.15-.7.15-1.05v-.1L13.2 29m4.3-.7-.65.1-.6-.05-2.1-.45 3.35.4"/><path fill="#fff" fill-opacity=".451" d="m26.95 27.1-3.75 1.1-2.55.45q-2.3.15-4.25-.05l-.7-.05-3.8-.9q-1.15-.5-1.65-.65l-.5-.2-.8-.35-2.25-1-1.25-.6-.55-.2.65.05q2.95 1.15 6.05 2.45l2.55.75 2.1.45.6.05.65-.1.3.05h.1q3.95.15 9.05-1.25m-3.7-1.25q.15.2-.1.15v-.05l.05-.1h.05m.75 3.3h.05v-.05h.05q.3.5.2 1.35l-.1.5-.1.15q-.1-.05-.05.05h-.1v.1l-.2-.05q-.05-1.1.25-2.05M1.8 22.9l-.4-.3-.15-.5-.05-.05V22l-.05-.05.1-.2q.05-.25.85-.3.25-.15.6.15l.25.2.25.25-1.35-.25-.4.5.35.6m11.1 8-.1-.05-.05.05-.15-.05.6-1.85.05.05v.1l-.15 1.05-.15.7h-.05"/><path fill="#ffde5b" d="m12.65 15.35.05-.1v.1h-.05"/><path fill="#fc0" d="m20.65 1.15 1.25 2.9-6.05-.2-2.3-.65-1.5-.6-.1-.35 3.55-.9h.25l1.7-.2h.2l1.3-.05 1.7.05M15.55 16l-.05-1.4 6.25-.15.15 2.85-6.35.15V16"/><path fill="#009" d="M21.9 4.05h.05l.1.45.1.35q1.3 4.5.45 10.4l-.05.25-.35.2.3-.05-.25 1.6-.35.05-.15-2.85-6.25.15.05 1.4h-.05.05v.9l-.1.5v.05L12.6 17l-2.35-.6-1 .25q-1.5.7-2.05 3.25-.45 1.75-1.1 2.25-.65.5-1.5-.2-2.5-2.95-2.7-6.7v-.6q0-1.55.35-2.9l1.5-.85q3.1-1.65 5.65-1.4-.45 2.15.4 3.65.8 1.35 2.7 2.1l.15.1h.05l2.8.65-1.2-.75-1.45-1.4q-1.85-2.55 0-6.25l-1.75-.25q-2.95-.25-6.1.9l-1.55.6Q4.7 6.8 6.9 5.05q1.2-.95 2.55-1.7 1.15-.65 2.45-1.1l.15.35 1.5.6 2.3.65 6.05.2"/><path fill="#006" d="M21.95 4.05q2.4-.4 4.75-1.5 1.6.65 3.1 1.6-.2-.2.05-.4l.1-.05.1.05.15.05 1.45 1.4.05.4v.05q1.55 1.35 2.55 2.9-4.9-2.25-9.4-1.25 2.55 5.1-1.9 7.95l-.4.25.05-.25q.85-5.9-.45-10.4l-.1-.35-.1-.45m.3 13.2.25-1.6 1.85-.4q4.9-1.45 3.95-6.05 3.1-.35 7.25 2.2.45 1.55.45 3.25v.6q-.25 4.7-4.1 8.2-2.4 1-2.35-1.8.4-2.05.15-3.6-.05-.7-.5-1.35l-.2-.35q-.65-.65-2-.25l-4.75 1.15"/><path fill="#4d88c4" d="m22.55 15.5.4-.25q4.45-2.85 1.9-7.95 4.5-1 9.4 1.25.85 1.35 1.3 2.8v.05Q31.4 8.85 28.3 9.2q.95 4.6-3.95 6.05l-1.85.4-.3.05.35-.2"/><path fill="#69c" d="M3.45 8.85 5 8.25q3.15-1.15 6.1-.9l1.75.25q-1.85 3.7 0 6.25l1.45 1.4 1.2.75-2.8-.65v-.1l-.05.1-.15-.1q-1.9-.75-2.7-2.1-.85-1.5-.4-3.65-2.55-.25-5.65 1.4l-1.5.85Q2.6 10.3 3.4 9l.05-.15"/><path fill="#e6b800" d="M26.7 2.55q-2.35 1.1-4.75 1.5h-.05l-1.25-2.9q3.25.25 6.05 1.4"/><path fill="#e8e8ff" fill-opacity=".424" d="M14.65 3.85q.55 1.05.05 2.2-.45 1.2-1.65 1.85-1.25.65-2.5.35-1.25-.3-1.8-1.35l-.3-.9q-7.15 4.6-2.9 17.5-4.9-4.8-3.65-11.75 1.5-3.9 4.35-7.15Q13.6-.5 20.45.4q-3.45.55-6.7 2.45l.9 1"/><path fill="#d18903" d="M11.85 1.75Q15.1.6 18.95.6q4.3 0 7.85 1.45l.1.05.25.25.05.4h-.05l-.2.25-.2.1Q19.8 6.4 11.6 2.6l-.05-.1v.05l-.05-.1v-.4l.3-.25.05-.05m14.7.75q-4.1-1.15-7.4-1.3-3.35-.15-6.85 1.1 6.75 3.5 14.25.2"/><path fill="#000051" d="m11.85 1.75-.05.05-.3.25v.4l.05.1q-2.4 1-4.4 2.65l-2.9 2.7-.9 1.05q-.2 0-.3.15L3 9l.05-.4Q4.3 6.45 6.6 4.65 8.9 2.8 11.75 1.8l.1-.05m15.3 1h.05l-.05-.4-.25-.25q2.35.9 4.45 2.55T34.7 8.3l.05.3-1.3-.4q-.35-.5-.05-.4L31 5q-1.4-1.15-3.85-2.25m2.3 13.5L30.2 18q.25 1.6-.15 3.75 0 1 .4 1.35l1.4.1q3.9-3.65 3.8-6.9-.1-3.25-.35-4.1-.3-.85-.15-1.05l.25-.2h.4q-.1.35.15.55.55 1.85.55 3.15 0 5.25-4.25 9.2l-.15.05q-1.55.65-2.3 0-.8-.55-.75-2.25v-.1q.4-1.95.15-3.4v-.05l-.4-1.1-.05-.05-.15-.3-1.45-.05L22 17.8l-.4-.1-.2-.3.1-.4q.1-.15.35-.2l5-1.15q1.7-.55 2.6.6m-19.2-.35.15.05 5.1 1 .35.2.1.35-.15.35-.4.1q-2.65-.25-5.2-1.05-1.85.25-2.5 3.1v.05q-.55 1.9-1.3 2.5-.9.75-2.1-.2l-.05-.05Q1.4 18.95 1.4 14.65q0-1.6.4-3l.2-.3.4-.05.1.05-.05.05-.1.35-.1-.2q-.25 2.8-.1 5Q2.3 18.7 5 22.05l.15.15.7.05q.55-.3.85-2.25 1.05-4 3.55-4.1"/><path fill="#d18903" d="M14.95 16.3v-.85l.1.05-.05-.9.15-.35.35-.15h1.2l-1.4 3.8-.1-.1-.15-.1v-.95L15 16.3h-.05m3.65-2.25 1.05-.05-1.15 4.1h-1.05l1.15-4.05M21 14l.75-.05q.2 0 .35.15l.15.35.05 1.1V16l.1 1.3-.1.35-.3.15-2.1.25L21 14"/><path fill="#fca70a" d="m16.95 14.1 1.65-.05-1.15 4.05-1.8-.1 1.3-3.9m3.15-.1h.9l-1.1 4.05-.95.05L20.1 14"/><path fill="#fdc55b" d="M16.7 14.1h.25l-1.3 3.9-.15-.05-.2-.05 1.4-3.8m2.95-.1h.45l-1.15 4.1h-.45l1.15-4.1"/><path fill="#9ebede" d="M14.95 16.3q-3.45-.45-4.95-2.1-1.55-1.6-.95-4.35-2.8.05-7.55 2.3l.3-.2v-.3q.3-1.5 1.1-2.8l.2-.35.15-.1q4.9-2.25 10.05-.95-2.15 5.05 1.65 7.95v.9m7.35-.75q4.3-2.95 2.2-8.45 5.4-1.1 9.95 1l.25.2q.7 1.1 1.35 3.25l-.1.15q-4.6-2.1-7.2-2.3.5 2.9-1 4.55-1.6 1.7-5.45 2.05v-.45m12.15-6.8Q29.55 7 25.25 7.5q2.35 4.6-2.55 8.15 3.4-.75 4.5-2.15 1.05-1.4 1-4.6 3.4-.25 7 1.85l-.75-2M9.7 9.5q-.25 2.6 1.05 4 .85.9 3.85 2.25-4.3-3.55-2.15-8-4.15-.4-8.85 1.2-.95 1.3-1 2.2 3.7-2 7.1-1.65"/></g></defs></svg>