<svg xmlns="http://www.w3.org/2000/svg" xmlns:xlink="http://www.w3.org/1999/xlink" width="100.7" height="92.9"><use xlink:href="#a" width="46.8" height="34.45" transform="translate(17.1 37.75)"/><defs><g id="a" fill-rule="evenodd"><path d="M14.05.7q4.4-.65 7.2 1.15Q29.85-1.9 35.4 2q5.4 3.85 5.4 11.85L40.75 15q.6.45 1 .25.45-.15.5-1.05.1-.35.35-.4l.5.1q2.1 1.8 1.45 3.8-.45 1.6-2.15 1.75-1.8.45-1.8 2.7 0 1.7.85 3.5.8 1.65 1.4 1.8l.7.1q.35-.25.25-1.1 0-.35.35-.5.35-.1.55.2 1.8 2.35.25 3.75-1.4 1.15-3.6.6l1.1.95L46 31.3q.25-.25.6 0 .3.2.15.55-.6 1.85-3.15 2.4-4.5.85-6.65-1.65l-.1-.2q-.85-4.2-2.55-8.75-3.4-9-7.8-11.05-4.75-2.25-12.65.35-6.95 2.25-8 4.35l-.45.3-.45-.3Q.6 9.35 6.55 4.05q3.1-2.7 7.5-3.35"/><path fill="#803500" d="M15.55 1.4q3.55-.15 5.75 1.45 9.6-4.35 14.85.85 4.4 4.35 3.7 11.7Q42 17.4 43 15q1.1 1.4.65 2.5-.4 1.05-1.95 1.2-2.7 1.25-1.75 5.25.9 3.75 2.55 4.3 2.15.95 2-1.2 1.05 1.95-1.1 2.5-2.05.6-3.2-.55-.55 1.75 1.55 3.05l3.95.15q-.5 1.45-3.55 1.3-3-.15-4.25-1.55-.95-4.1-2.8-8.65-3.7-9.1-8.3-11.25-4.9-2.3-12.9-.1-7.15 1.95-8.3 4.2-4-8.4 3.45-12.8 2.95-1.8 6.5-1.95"/><path fill="#421400" d="M21.3 4.15q-1.25 5.45-2.4 6.9-4.35.4-8.65 2.2-3.95 1.6-4.65 2.95-.95-2.1-1.15-3.75.95-3 7.15-5.05 7.55-2.5 9.75-4.6l-.05 1.35"/><path fill="#421400" d="m37.4 5.3.2.25q2.75 4.25 2.25 9.9L39.5 17q.9 1.05 2.3.65 1.2-.45 1.1-2.35l.1-.2q1.1 1.4.65 2.45-.4 1.05-1.95 1.2Q39 20 39.95 24q.9 3.75 2.55 4.3 2.15.95 2-1.2 1.05 1.95-1.1 2.5-2.05.6-3.2-.5-.55 1.7 1.55 3l3.95.15q-.5 1.5-3.55 1.35-3-.15-4.25-1.6-3.1-13.5-9.1-18.6-.85-.75-2-1.3-3.15-1.45-7.9-1.05 1.05-1.3 2.25-6.6-.35-.55 2.3 1.4 6 3.05 13.35.1l.6-.65"/><path fill="#d47a3b" d="M13.4 1.65q-1.05.15-3.3 2.4 2.65-1.55 6-.95-2.05.2-3.35.75-.95.35-2.3 1.4 3.15-1.45 5.25-.8-2.15.2-4.9 1.45Q7.4 7.45 6 9.6q.45-1.95 2.35-3.15-1.55.8-2.7 2.45l-.7 1.15.45-1.25 1.45-2.1q-1.05.55-1.8 1.65l-.6 1q.8-3.4 4.1-5.65 2.5-1.75 4.85-2.05m15.55-.45-1.1.25-.75.35 3.55.25 2.3.85.3.15-2.5-.35-2.05.15-.85.2 1.6.3 2.1.7 2.3 1.25q-1.95-1.4-6.8-1.2l-3.4.45 1.15-.6 1.8-.4q-.65-.2-4.3.75l.85-.65q.85-.55 1.35-.7 1.2-.15 1.55-.4l-2.4-.2-1.1-.05.15-.15 1.05-.3 1.25-.3 1.75-.45 2.2.1"/><path fill="#0f0801" d="M23.3 6.75q5.45.55 9.3 3.35 4.45 3.2 4.6 8.1 0 .4-.3.45l-.55-.1q-5.5-5.15-15.85-4.7-10.45.5-14.55 5.2l-.6.1-.25-.55q1.5-6.45 7.05-9.6Q17.1 6.2 23.3 6.75"/><path fill="#f8c606" d="M21.35 7.6q5.35 0 9.4 2.45 4.45 2.75 5.6 7.55-6.4-5.25-16.7-4.55-9.1.65-13.3 4.6 1.15-4.75 5.6-7.5 4.05-2.5 9.4-2.55"/><path fill="#fff" d="m18.8 13.9-6.85 1.7-5.2 1Q8.6 9 19.35 7.65q-.9 2.25-.55 6.25"/><path fill="#b57a06" d="M36.35 17.6q-3.6-2.95-8.55-4 .55-2.8-.35-5.05 7.3 2.4 8.9 9.05"/><path d="M16.95 9.8q2.05-.25 3.45.5.65 1.25 1.85 2.35.35 1.25-.05 2.45-.8 2.15-6.9 4.9-7.65 3.25-8.35 7.2l-.5-.1q-3.35-3.35-1.9-7.75 1.25-3.6 5.2-6.45 3.65-2.7 7.2-3.1"/><path d="m20.4 10.3 1.5 1.4.35.95Q21 11.45 20.4 10.3"/><path fill="#803500" d="M6.55 26.15q-2.15-2.85-.95-6.4 1.1-3.1 4.3-5.75 3.05-2.5 6.2-3.15 3.45-.7 4.95 1.35 1.85 3.05-5.4 6.8-8.45 4.3-9.1 7.15"/><path fill="#421400" d="m9.6 19.4 4.65-1.95q5.4-2.5 4.6-6.6 1.55.35 2.3 1.4 1.15 1.95-.6 3.75-1.2 1.2-4.8 3.05-8.45 4.3-9.1 7.1-1.15-1.5-1.35-2.45 0-1 .55-1.65Q7 20.65 9.6 19.4"/><path fill="#d47a3b" d="M14.3 12.85q-1.55.75-3.55 2.55L9 17.35q.75-.6 2.8-1.55l2.05-.75q-1.65.8-3.1 2l-4 3.35q.5-1.35 2.35-2.55-.4-.1-1.85 1l-1.35 1.1 1.3-2.2 1.35-1.45-1.75 1.15-.25.25v.05l-.05-.05 1.75-2.4 3.15-2.4-1.55 1.25-1.15 1.4q.9-.9 2.75-1.65l1.75-.75 1.1-.3M6.55 17.7v-.05.05"/><path d="M38 19.1q1.5 4.3-1.85 7.75l-.55.1q-.65-3.9-8.3-7.25-6.05-2.65-6.9-4.85-.6-1.5.25-3.4 1.55-2.35 5-1.9 3.55.4 7.2 3.1 3.9 2.85 5.15 6.45"/><path fill="#803500" d="M21.55 11.9q1.5-2 4.9-1.3 3.2.6 6.25 3.15 3.2 2.6 4.25 5.7Q38.2 23 36 25.85q-.65-2.8-9.1-7.1-7.2-3.75-5.35-6.85"/><path fill="#421400" d="M36.05 17.55q2.8 4.6-.05 8.3-.65-2.8-8.65-6.9-7.15-3.65-6.1-6.45.05 2.35 5 4.6l8.55 3.85Q31.7 18 30.7 16.5q1 1 2.55 1.75Q34.8 19 35.8 20q-.6-4.4-6.95-8.65 4.75 2.05 7.2 6.2"/><path fill="#d47a3b" d="M27.1 16.6 22.8 14q.5 0 4.8 1.75l-3.9-3.15 4.75 1.5q-3.95-2.9-5.4-3.25 5.45-1.45 9.5 3.8-1.7-1.5-5.5-3l6.25 5.45-5.35-2.1 3.6 3.75-4.45-2.15"/><path fill="#0f0801" d="M9.6 5.05Q12.2 3.6 14.1 5q2.5 1.75 1.7 5.6-.25 1.9-1.9 2.9-2.2 1.25-4.25.45Q6 12.3 5.9 9.85q0-2.9 3.7-4.8"/><path fill="#f8c606" d="M14.8 10.45q-.35 1.8-2.1 2.55l-2.75.15Q6.15 11.1 7 8.85q.6-1.65 3-2.8 2.4-1.35 3.9.15 1.5 1.45.9 4.25"/><path fill="#b57a06" d="M13.05 7.35q.45-.15 1.3-.65 1.45 2.3.15 4.75l-1.3-.6v-1.7l-.15-.85-.05-.95h.05"/><path fill="#fff" d="M7 10.65q-.3-.8-.1-1.75l1.05-1.55 1.25-.9q.1.6.05 2l.3 2.25.2.8q-1.4.65-1.5.6-1-.8-1.25-1.45"/><path fill="#ff7d00" d="M13.8 10.25q-.25 1.3-1.55 1.85l-2.05.1Q7.4 10.7 8 9q.45-1.15 2.2-2.05 1.8-1 2.95.15 1.1 1.05.65 3.15"/><path fill="#d63600" d="m12.15 7.65-2.05-.1q-3.6 1.7-.05 3.7 2.1.7 2.55-1.4.3-1.45-.45-2.2M8 9q.45-1.2 2.2-2.05l2.95.1q1.1 1.05.65 3.15-.25 1.3-1.55 1.85l-2.05.15Q7.4 10.65 8 9"/><path fill="#d63600" d="M13.3 9.85q0 1.55-1.65 1.55-1.6 0-1.6-1.55t1.6-1.55q1.65 0 1.65 1.55"/><path fill="#fff" d="M10.7 9.25q0 1.2-1.2 1.2t-1.2-1.2q0-1.15 1.2-1.15t1.2 1.15"/><path fill="#0f0801" d="M1.7 10.05q-1.15-1-.65-2.9Q1.9 4.3 3.9 4.7q.95.2 1.8 1.1.75.85.7 1.45 0 .2-.15.35-1.15.8-.75 2.2.2.45-.3.65-2.25.8-3.5-.4"/><path fill="#f8c606" d="M4.65 9.7q-3.4.55-2.7-2.4.8-2.1 2.2-1.55 1.3.5 1.25 1.45-.95.7-.75 2.5"/><path fill="#0f0801" d="M2.15 11.75q.7-.7 1.9-.85 1.15-.15 1.6.25l.2.35q.15 1.45 1.4 1.85.45.15.35.65-.7 2.25-2.35 2.65-1.5.3-2.75-1.15-1.75-2.35-.35-3.75"/><path fill="#f8c606" d="M6.65 14.05q-1.55 3.05-3.5.75-1.25-1.85 0-2.7l1.9-.15q0 1.15 1.6 2.1"/><path fill="#b57a06" d="M1.8 8.4q.6 1.4 2.2-.2l1.4-1q-.8.55-.8 2.55l-.9.1-.85-.2q-.55-.1-.8-.45l-.25-.75V8.4m3 4.6q-.1-.8.2-1.05.3 1.5 1.6 2 .35.15-.4.9l-1.35 1q-.65.05-1.3-.6l-.45-.5 1.05.15q1-.1 1.05-.9l-.4-1"/><path fill="#fff" d="m2.15 7.75.45-1 .65-.65.95-.15q.6.1.5.65-.7-.3-1.55.55-.55.55-1 .6M3.4 14.6q-1.25-.9-.35-2 .45-.6 1.4-.6l-.65.6-.35.65q-.2.9 0 1.45l-.05-.1"/><path fill="#0f0801" d="M36.85 25.05q.15-.2.4-.2 4.3.15 4.7 2.65.4 2.3-2.8 3.6-2.15 1.05-3.2-.35-1.8-2.15.9-5.7m4.15 2.8-.05-.2q-.25-1.55-3.45-1.8-1.1 1.7-1.1 3.1 0 .75.3 1.2.55.7 2.05 0 2.25-.9 2.25-2.3"/><path fill="#f8c606" d="M37.5 25.85q3.15.2 3.5 1.7.35 1.4-2.1 2.65-1.95.95-2.5-.5-.6-1.5 1.1-3.85"/><path fill="#fff" d="m37.45 26 .05-.15q2.45.2 3.25 1.2.7.9-.35 2.05.05-2.2-2.95-3.1"/><path fill="#b57a06" d="m38.85 30.25-2.15-.1q-.75-.75-.2-2.3.65 1.3 2.35 2.4"/><path fill="#0f0801" d="M5.6 29.6q0-1.4-1.15-3.1-3.15.15-3.4 1.8l-.05.2q0 1.4 2.25 2.3l2-.05q.35-.35.35-1.15m-.9-4.15q.25 0 .45.2 2.6 3.65.9 5.75-1 1.35-3.2.3-3.2-1.25-2.8-3.6.4-2.5 4.65-2.65"/><path fill="#f8c606" d="M4.45 26.5q1.7 2.3 1.15 3.8-.6 1.5-2.5.55Q.65 29.6 1 28.15q.35-1.45 3.45-1.65"/><path fill="#fff" d="M1.6 29.75q-1.05-1.15-.35-2.1.8-1 3.2-1.15l.1.15q-3.05.9-2.95 3.1"/><path fill="#b57a06" d="M3.15 30.85q1.75-1.15 2.35-2.4.5 1.6-.25 2.35l-2.1.05"/><path fill="#753255" d="m6.8 27.25-.35-.15-.25-.25.45-.55.5.2-.2.7-.15.05"/><path fill="#af4596" d="m35.65 27.3-.25-.9.05-.05.15.6h.2l-.15.35"/><path fill="#af4596" d="M35.8 26.95h-.2l-.15-.6.75-.55.1.05-.5 1.1"/><path fill="#0f0801" d="M19.3 21.15q0-2 2-2 2.05 0 2.05 2t-2.05 2q-2 0-2-2"/><path fill="#ff7d00" d="M21.3 19.65q1.55 0 1.55 1.5t-1.55 1.5q-1.5 0-1.5-1.5t1.5-1.5"/><path fill="#d63600" d="m20.95 19.75.35-.1q1.55 0 1.55 1.5t-1.55 1.5q-1.5 0-1.5-1.5.2 1 1.15 1 1.25 0 1.25-1.2t-1.25-1.2"/><path fill="#0f0801" d="M14.2 16.65q0-2 2.05-2t2.05 2q0 2-2.05 2t-2.05-2"/><path fill="#ff00e1" d="M17.8 16.65q0 1.5-1.55 1.5t-1.55-1.5q0-1.5 1.55-1.5t1.55 1.5"/><path fill="#84037b" d="M14.7 16.65q.2 1 1.2 1 1.25 0 1.25-1.2t-1.25-1.2l.35-.1q1.55 0 1.55 1.5t-1.55 1.5q-1.55 0-1.55-1.5"/><path fill="#fcfcfc" d="M16.2 16.45q0 .65-.65.65t-.65-.65q0-.6.65-.6t.65.6"/><path fill="#0f0801" d="M24.15 16.55q0-2 2.05-2t2.05 2q0 2-2.05 2t-2.05-2"/><path fill="#00e1ff" d="M27.75 16.55q0 1.5-1.55 1.5t-1.55-1.5q0-1.5 1.55-1.5t1.55 1.5"/><path fill="#00737c" d="M26.2 15.05q1.55 0 1.55 1.5t-1.55 1.5q-1.55 0-1.55-1.5.15.95 1.2.95 1.25 0 1.25-1.15 0-1.2-1.25-1.2l-.35.05.7-.15"/><path fill="#fcfcfc" d="M26.15 16.35q0 .65-.65.65t-.65-.65q0-.65.65-.65t.65.65"/><path fill="#0f0801" d="M22.6 15.3q1.3-1.1.65-2.5-.15-.4.2-.65.45-.2.7.2 2.85 4.6 0 6.95-1.25 1-3 .95-1.8-.05-2.9-1.15-2.45-2.45.9-6.8.25-.3.65-.15.35.15.25.6-.65 2.5.4 3.05.95.6 2.15-.5"/><path fill="#f8c606" d="M24.5 17.9q-.95 1.7-3.25 1.6-2.3-.1-3.1-1.85-.9-2.05 1.4-5.05-.5 2.45.3 3.5.65.9 1.85.5 1.15-.35 1.85-1.5.7-1.25.15-2.5 1.95 3.3.8 5.3"/><path fill="#b57a06" d="M23.7 12.6q2.95 4.95-.6 6.55l-2.85.2q-1.55-.45-2.1-1.75 3.1 1.65 5.05-.3 1.95-1.9.5-4.7"/><path fill="#fff" d="m19.15 13.35-.25 1.3q-.1 1.4.65 2 .45.45 2.3.55-.6.55-1.75.35-1.2-.15-1.45-.9-.2-.55 0-1.8l.5-1.5"/><path fill="#fcfcfc" d="M21.3 20.95q0 .65-.65.65-.7 0-.7-.65 0-.6.7-.6.65 0 .65.6"/><path fill="#0f0801" d="M3.95 25.9q0-2 2.05-2t2.05 2q0 2-2.05 2t-2.05-2"/><path fill="#f8c606" d="M7.55 25.9q0 1.5-1.55 1.5t-1.55-1.5q0-1.5 1.55-1.5t1.55 1.5"/><path fill="#b57a06" d="M4.45 25.9q.2 1 1.2 1 1.25 0 1.25-1.2t-1.25-1.2l.35-.1q1.55 0 1.55 1.5T6 27.4q-1.55 0-1.55-1.5"/><path fill="#0f0801" d="M34.15 25.4q0-2 2.05-2t2.05 2q0 2-2.05 2t-2.05-2"/><path fill="#f8c606" d="M37.75 25.4q0 1.5-1.55 1.5t-1.55-1.5q0-1.5 1.55-1.5t1.55 1.5"/><path fill="#b57a06" d="M36.2 23.9q1.55 0 1.55 1.5t-1.55 1.5q-1.55 0-1.55-1.5.25.95 1.2.95 1.25 0 1.25-1.15 0-1.2-1.25-1.2l-.35.05.7-.15"/><path fill="#fff" d="M36.3 25.05q0 .75-.7.75-.75 0-.75-.75t.75-.75q.7 0 .7.75m-30.2.55q0 .75-.7.75-.75 0-.75-.75t.75-.75q.7 0 .7.75"/></g></defs></svg>