<svg xmlns:xlink="http://www.w3.org/1999/xlink" height="92.9" width="100.7" xmlns="http://www.w3.org/2000/svg"><use height="29.6" transform="translate(18.2 45.45)" width="44.45" xlink:href="#a"/><defs><path d="m40.6 29-4.45-1.7q-.3-2.75-2.15-7.25-1.75-4.2-3-5.75l-4.9-2.25q2.05 2.8 1.3 8.5-1.35-3.35-2.75-5.1l-4.1-5.85q-3 4.9-4.1 9-1.05 4.1-2.2 6.75-.5-4.9-.15-7.35-2.4 4.8-3.7 9.75-1.1-3.3-.45-8.55.55-4.65 1.75-6.9l-1.7.9q-4.95 7.1-6.2 14.05L0 29.6q.1-3.05.9-6.8 1.6-7.45 5.3-10.7.35-2 1.6-4.8 1.45-3.1 2.65-3.75 4.45-2.35 5.7-2.8 4.7-1.7 6.4.45L26.9.6q3 .35 6.15 3.75 1.75 1.9 2.65 8.35l3.4 3.7q3.55 4.15 4.35 6.65 1.25 4 .9 6.55-2.6-4.1-3.85-5.2.55 2.2.1 4.6" fill="#1b191e" fill-rule="evenodd" id="b"/><path d="M41.7 22.4q.5 1.45.8 3.45-1.55-2.25-2.4-2.95l-1.9-1.65.6 2.45.2 2.15-.05 1.1-3.05-1.1q-.4-2.95-2.25-7.3-1.7-4.05-2.95-5.65l-.15-.15-6.4-2.95 1.6 6.45-1.4-2.2-4.05-5.8-.7-1-.65 1.05q-3.15 5-4.2 9.2l-.9 3.05.1-7.15q-2.45 5.05-4.3 10.2l-.1-1.9q0-4.35 1.45-9.5l1.05-2.1-3.4 1.5-.15.1-.1.15q-4.9 6.9-6.2 13.9-.95.4-2.2 1.25.95-10.9 5.75-15.2l.25-.15.05-.3Q6.4 9.4 7.6 6.75 8.9 3.9 9.9 3.4l.4-.25Q19.1-1.55 20.95.8l.3.4 1.1-.3 3.9-.35q2.45.5 5.25 3.45 1.55 1.65 2.45 7.9l.05.3.2.2 3.35 3.6q3.45 4.05 4.15 6.4" fill="#005bbd" fill-rule="evenodd" id="c"/><path d="m26.4 3.85 1.4.9q1.55 1.1 2.2 2.1-1.55-1-2.55-1.2h-.7l3.35 2.7-3-.9 1.45 1.5q1.7 1.45 3.2 1.3-1.5.45-3.45-.05l-1.65-.55-4.75-2.1.95 1.95q1.1 2.5 1.7 5.1L19.9 6.85l3.05-.3q-1.05-.85-1.7-.85L24 5.55q-1.5-.85-2.55-.85 2.15-.2 3.2-.05-1.8-1.3-3.05-1.25l3-.05q-1.75-1.2-3.05-1.1l2.85-.3-2.95-.9L24.6.5q.75.05 2.8 1.2 2.25 1.25 3 2.2l-3.85-1.5L30 5.15q-1.8-1.1-2.85-1.3h-.75m5.05 9.5q3.65 4.15 4.4 8.2-.05-1.65-1.3-5.7 2.25 3.7 2.9 10.1l-1.65-.65q-.35-5.6-4.35-11.95m6.9 6.1-1.55-1.6-1-2.8q3.9 4.1 5 7.85-.7-1.55-2.45-3.45M19.2 5.55q-3.6 3.1-4.85 7.8.55-4.4 1.3-5.75-3.8 3.15-6.4 12.5l.25-3.4q.5-3.9 1.7-6.3l-2.15-.2-1.15.25Q2.3 15.7.95 25.4l-.95.55q-.05-2.1.65-5 1.45-5.8 5.4-9.9l1.3-3.65q1.25-3.5 1.9-4.05 1.05-.85 3.65-2Q16 0 17.85 0l-6.4 3.3 6.6-2.2-5.5 3 5.65-2.05-4.15 2.85 4.45-1.45-3.6 2.25 3.9-.8q-1.95.8-1 .8l1.4-.15m-5.3.65q-3 .6-4.25 1.15l2.5-.05L8.6 9.2l3-.3 2.3-2.7" fill="#0083ff" fill-rule="evenodd" id="d"/><path d="m1.9 5.25 3 .05L.6 6.4l1.85-3.6L7.6 0 3.2 3.1q2.7-.95 2.2-.6L2.55 4.25q4.2-.95 3.35-.55l-4 1.55m5.3.2q2.05-.9 2.15-.4 1.05.3.45.95l-2.45 5.35L8.7 6q-3.2 1.9-5.15 7.35-1 2.7-1.35 5.05.25-3.15 1.25-7.25t3.75-5.7M19.7 2.5l-1.55.25 2.1 1.6-2.25.4q3.5 1.35 2.1 1.2l-3.05.75 4.55 2.5-7.35-2.75q.4.45 2.45 6.15l-3.6-6.15q-.1-.5 1.3-.4l1.65.2.3-.45q.05-.45-.3-.7l2.5.5q-.75-.95-1.9-1.5l1.55-.4q-.3-.65-1.6-1 .55.1 1.45-.45l-1.5-.85 1.25-.1-.4-1.1 2.7.85-1.7.3 1.3 1.15M3.4 8.75 0 9.2q1.95-1 3.7-1l-.3.55m0-1.95L.5 8.2l.15-1.65 2.75.25m21.55 6.85q1.9 2.9 3.2 7.2 1.15 4.05.45 3.5-.05-2.2-1.85-6.7l-1.8-4M-7.2 24.85l-.55.4q.5-6.45 3.35-11.1 1.4-2.3 2.7-3.35-3.35 4.05-4.75 9.45-.7 2.7-.75 4.6" transform="translate(7.75)" id="e" fill="#00b8ff" fill-rule="evenodd"/><use height="29.6" width="44.45" xlink:href="#b" id="f"/><use height="27" width="42.5" xlink:href="#c" id="g"/><use height="25.95" width="40.8" xlink:href="#d" id="h"/><use height="25.25" width="36.6" xlink:href="#e" id="i"/><g id="a" transform="translate(22.2 14.8)"><use height="29.6" transform="translate(-22.2 -14.8)" width="44.45" xlink:href="#f"/><use height="27" transform="translate(-21.25 -13.9)" width="42.5" xlink:href="#g"/><use height="25.95" transform="translate(-20.5 -13.3)" width="40.8" xlink:href="#h"/><use height="25.25" transform="translate(-21.05 -12.35)" width="36.6" xlink:href="#i"/></g></defs></svg>