<svg xmlns="http://www.w3.org/2000/svg" xmlns:xlink="http://www.w3.org/1999/xlink" width="100.7" height="92.9"><g transform="translate(38.65 49.75)"><use xlink:href="#a" width="23.2" height="12.8" transform="translate(3 -8.8)"/><use xlink:href="#a" width="23.2" height="12.8" transform="matrix(-1 0 0 1 -3.25 -8.75)"/><use xlink:href="#b" width="29.05" height="15.1" transform="translate(-15.3 -1.2)"/></g><defs><use xlink:href="#c" id="a" width="23.2" height="12.8"/><use xlink:href="#d" id="b" width="29.05" height="15.1"/><g id="c"><path fill="#f60" fill-rule="evenodd" d="m22.4 4.15-.55 2.15Q21 7.85 19 7.95q-2.95.45-6.85-1.75-3.95-2.25-6.1-2.9-2-.5-3 1-1.75 2.55-.75 6L1 10.2Q-.9 1.95 4.35.75 9.55-.5 14.8 4.25 20 9 22.4 4.15M2.35 10.3l-.05-.55q.1-3.45 3.05-4.9 3.45.9 6.25 2.65 5.55 3.5 10.6.5-1.4 3.65-5 4.25-3.75.55-8.5-3.1-4.6-3.5-5.6 1.35l-.75-.2"/><path fill="#f90" fill-rule="evenodd" d="M2.3 10.3q-1-3.45.75-6 1-1.5 3-1 2.15.65 6.1 2.9 3.9 2.2 6.85 1.75 2-.1 2.85-1.65l.55-2.15q.65 2.15-.2 3.85-5.05 3-10.6-.5-2.8-1.75-6.25-2.65Q2.4 6.3 2.3 9.75l.05.55H2.3"/><path fill="none" stroke="#b85021" stroke-linecap="round" stroke-linejoin="round" d="M22.4 4.15Q20 9 14.8 4.25 9.55-.5 4.35.75-.9 1.95 1 10.2l1.3.1M22.2 8q.85-1.7.2-3.85M22.2 8q-1.4 3.65-5 4.25-3.75.55-8.5-3.1-4.6-3.5-5.6 1.35l-.75-.2"/></g><g id="d"><path fill="#f90" fill-rule="evenodd" d="m28.4 12.55.05.7q-7.7-2.9-12-12.6l1.35.3.2.05q4.05 7.8 10.4 11.55M.8 11.9l.5-1.7Q7.95 9.1 12.05.75l.3-.05L13.8.55Q9.9 10.95.8 11.9"/><path fill="#f60" fill-rule="evenodd" d="m19.8 1.65 1.9.95L24 4.15l.85.75q2.3 2.25 3.2 5.95-4.7-2.8-8.25-9.2m8.65 11.6.1 1.35q-4.7-.2-7.75-3.55-3.25-3.5-5-7.95l-1-2.6q-.6 6.5-4.85 9.8Q5.9 13.55.5 13.55l.3-1.65q9.1-.95 13-11.35l1-.05 1.65.15q4.3 9.7 12 12.6m-26.9-3.8q1.1-2.75 3.2-5Q7.2 1.75 11.05.9 6.7 7.65 1.55 9.45"/><path fill="#b85021" fill-rule="evenodd" d="m18 1 1.2.4.6.25q3.55 6.4 8.25 9.2l.1.3.25 1.4Q22.05 8.8 18 1M1.3 10.2l.25-.75Q6.7 7.65 11.05.9l1-.15Q7.95 9.1 1.3 10.2"/><path fill="none" stroke="#b85021" stroke-linecap="round" stroke-linejoin="round" d="m18 1 1.2.4.6.25 1.9.95L24 4.15l.85.75q2.3 2.25 3.2 5.95l.1.3.25 1.4.05.7.1 1.35q-4.7-.2-7.75-3.55-3.25-3.5-5-7.95l-1-2.6q-.6 6.5-4.85 9.8Q5.9 13.55.5 13.55l.3-1.65.5-1.7.25-.75q1.1-2.75 3.2-5Q7.2 1.75 11.05.9l1-.15.3-.05L13.8.55l1-.05 1.65.15 1.35.3.2.05Z"/></g></defs></svg>