<svg xmlns="http://www.w3.org/2000/svg" xmlns:xlink="http://www.w3.org/1999/xlink" width="100.7" height="92.9"><g transform="translate(38.65 49.75)"><use xlink:href="#a" width="48.4" height="33.05" transform="translate(-24.4 -8.35)"/><use xlink:href="#b" width="9.85" height="9.9" transform="translate(1.2 -3.95)"/><use xlink:href="#b" width="9.85" height="9.9" transform="translate(7.422 1.334) scale(.7608)"/></g><defs><g id="a" fill-rule="evenodd"><path fill="#3a0c06" d="M24.55 3.25Q26.7-1.05 35.1.35q3.6.6 4.3.05l.65.05.15.35-.15.3q-.5 1-2.4 2 6 2.25 6 13.3l-.2 7.05q0 3 .65 3.7.6.6 1.45.45 1.1-.15 1.8-1.65.15-.35.55-.25l.4.4q.5 3.6-1.35 5.2-1.6 1.35-4.5.4-1.75-.5-2.55-1.15l-.15-.4q.15-1.9-1.5-6.9-2.15-6.6-5.65-10.3Q28.95 9 24.15 9q-8.1 1.3-12.65 10.95-2.25 4.9-2.95 9.6l-.05.15q-.95 2.25-2.75 3.1l-3.25.1Q.9 32.25.3 30.45q-.7-2.1.3-4.75l.55-.35q.4.1.4.5.1 2.5 1.45 2.8 1.3.25 1.85-.75-.8-5.15-.8-8.4 0-5.45 2.1-8.7-2.1.35-3.65-1.35l-.05-.6q.2-.3.5-.2Q4.95 9 8.8 5.5q3.85-3.5 6.4-4.3 4.35-1.35 9.35 2.05"/><path fill="#ff7900" d="M24.9 4.45q2-4.15 7.05-3.7l3.7.65 2.65.05q-.7 1.3-2.6 1.65 6.65 1.35 6.95 12l-.15 7.75q-.1 3.9.7 4.8 1.95 2.1 4.15-.1.1 1.25-.4 2.25-1.05 2-4.15.95-1.7-.55-2.05-.85-3.9-22.05-16.6-21.95-8.4 1.3-13.3 11.5-2.45 5.1-3.25 9.9Q5.9 33.3 2.9 32q-2.95-1.25-1.85-3.95 1.45 1.95 3 1.55 1.25-.35 1.8-1.6-2.2-14.7 2.5-19.05-2.85 2.25-4.25.5 1.8-.1 4.1-2.15l4.05-3.7q5.55-4.25 12.65.85"/><path fill="#bc3506" d="M25 5.5q1.95-3.35 6.9-3.35l3.65.05q1.9-.05 2.75-.75-.55 1-2 1.5l-4.2.45q-2.45.4-3.85 2.4 2.95-2.2 6.85-1.6 3.8.55 5.95 3.3 1.4 2.25 1.65 7.8v11.15q.6 1.5 1.95 1.9 1.5.45 2.7-.8.1 1.25-.4 2.25-1.05 2-4.15.95-1.7-.55-2.05-.85-3.9-22.05-16.6-21.95-9.2-.4-12.95 9.55-.7 1.8-2.25 7.7-1.1 4.2-2.15 5.4.45-.95.25-4l-.2-6.25q.2-8.85 5.65-13.5Q10.45 8.5 8.05 8.3q2.1-.35 6.05-3.7 4.4-2.4 10.9.9"/><path fill="#ffe2cc" d="M16.2 2q2.4-.65 4.5.7-.85-.45-3.3-.05-3.5.55-6.4 3Q12.9 2.7 16.2 2M5.7 24.2q-.45-2.4-.05-6.6l.5-3 1.05-3.05q-1.4 6.8-1.35 13.15l-.15-.5m-4.35 4.75q1.1 1.4 2.45 1.3 1.5-.15 2.1-1.65.3.85-.6 1.75-.85.85-1.75.9-.9 0-1.55-.65-.35-.25-.75-1.75l.1.1m24.7-26q1.25-1.4 2.45-1.75l1.55-.25h1.35l-1 .2-1.7.6-2.8 1.65.15-.4v-.05"/><path fill="#3a0c06" d="m14.1 28.7.1.3.4.4q.8.7 1.05 1.3l.05.15-.15.3q-.45.4-1.25.2-.15.6-.65.95-1.1.8-2.1.3l-.2-.4.3-.4-.15.05q.4-.4-.1-.5l-1-.25-.45-1.15.25-.35h.55l.25.05q.25 0 .6-.6l.3-.2 2.2-.15"/><path fill="#ff7900" d="M12 32.05q.6-1.3-.35-1.2-.6.05-.8-.3l-.1-.4q1.45.6 1.55-.95l1.1-.05q-.2.25 1.55 1.75l-1.4-.2q.2.5-.25 1-.5.6-1.3.35"/><path fill="#3a0c06" d="M13.5 15.8q.85-.3 1.25.2l.1.15Q15.8 25.6 14.1 27l-.1.1q-1.75.6-2.8-.65-1.95-2.4-.85-8.05.45-1.7 3.15-2.6"/><path fill="#ff7900" d="M11.65 18.45q.15-.65.8-1.4.7-.85 1.15-.3.95 9.55 0 9.95-1.75.5-2.15-2.75-.4-2.75.2-5.5"/><path fill="#bc3506" d="M14.1 19q.2.15.2 1.3.1 1.45-.1 4.45 0 1.45-.35 1.8-.6.6-1.4.15-.8-.5-1-2 .65.65 1.1-.25l.1-4.75q.05-.5.85-.7h.6m-1.35 10.6.25-.15q1.05.65.6 1.8-.45 1.15-1.55.85 1.75-.7.8-2.2l-.75.9-1.1-.15q1.1.1 1.75-1.05"/><path fill="#bc3506" d="m12.7 29.75-.1.05q.15-.65.9-.5 1.35.35 1.45 1.6-.3-.55-2.25-1.15"/><path fill="#490200" d="M10.65 25.4q2.9 1.05 4.25-.05.45.3.35 2.1-.1 1.65-.45 2.2-.45.45-1.7.55-1.4.15-2-.55-.4-.6-.65-2.4-.3-1.9.2-1.85"/><path fill="#d61ca8" d="m11 26.1 2.3.2 1.35-.25q-.15 3-.5 3.35-.3.35-1.15.35-.95 0-1.45-.5L11 26.1"/><path fill="#821ca8" d="M14.65 26.05q-.15 3-.5 3.35-.3.35-1.15.35-.95 0-1.45-.5l-.1-.6q2.4.4 2.05-2.35l1.15-.25"/><path fill="#fcd0f2" d="m11.9 28.55-.05-.05v.1q-.65-.05-.65-1.85.05-.3.75-.3l1 .15-1.15.55.1 1.4"/><path fill="#ffe2cc" d="M11.55 21.45v-.25q.3.1.45 1.3l-.1 2.05-.2-1.25-.15-1.85"/><path fill="#3a0c06" d="m34.4 28.9.1-.3 2.05.1.3.25.55.65.25-.05.5.05.25.3q0 .85-.45 1.3l-.95.3q-.25.1-.1.55l.15.3-.15.45q-.95.65-2-.35-.45-.35-.6-.95l-1.15-.25-.15-.35v-.15l1-1.4.4-.45"/><path fill="#ff7900" d="m35 30.8-1.35.2q1.65-1.7 1.5-1.95l1.05.1q.05 1.65 1.45 1 .05.85-.85.75-.6-.05-.65.6-.05.6.3.7-.75.25-1.2-.35-.4-.5-.25-1.05"/><path fill="#3a0c06" d="M33.9 14.75q.4-.55 1.15-.25 2.65 1.05 2.95 2.85 1.1 6.1-.8 8.75-1 1.45-2.6.7l-.15-.05q-1-1-1-6.25 0-4.35.3-5.6l.15-.15"/><path fill="#ff7900" d="M36.8 17.4q.55 3.05.2 5.95-.4 3.6-2.05 3.05-.9-.45 0-10.85.45-.6 1.1.35l.75 1.5"/><path fill="#bc3506" d="M36.05 19.35v-.1q.55 0 .9.5l.3.95-.15 1.9q-.1 2.4-.7 3.3l-.45.7q-.6.6-1.1-.3-.55-.75-.25-1.65l.6.45q.6 0 .8-.9l.2-2.1-.15-2.75M35.2 29.7l-.15.85-.45.2-.9.25h-.1q1.45-.45 1.6-1.3m.4-.2q.6.2.6 1.25 0 1.25.2 1.55-.75-.2-1-1.15t.2-1.65"/><path fill="#bc3506" d="m36.15 29.4.55.7.95-.05q-.3.6-1 .35-.6-.25-.5-1"/><path fill="#ffe2cc" d="m34.95 23.75-.25-2.65v-.2q.3.1.3 1.1.15 1.4-.05 1.75"/><path fill="#00006e" d="M37.7 25.05q.45.3.2 2.25-.25 1.85-.65 2.2-.6.7-1.8.6-1.1-.05-1.55-.6-.45-.2-.65-2.25-.15-2.05.5-2.25l1.4.4 2.55-.35"/><path fill="#30e6ff" d="m37.4 25.75-.55 3.45q-.45.55-1.35.55-.8-.05-1.05-.4l-.5-3.7 1.3.35 2.15-.25"/><path fill="#30a8ff" d="m37.4 25.75-.55 3.45q-.45.55-1.35.55-.8-.05-1.05-.4l-.25-.85q2.25.45 2-2.5l1.2-.25"/><path fill="#d4f9fc" d="m34.15 26.2.65-.05.85.05q.55.15-.3.45l-.6.3v1q0 .75-.35.3v-.1l-.2-1.1-.05-.85"/><path fill="#3e0206" d="m10.7 21.55-.55.15-.3-.45Q9.55 15.1 13 11.4q3.8-4.05 10.65-4.2 9.15 0 13 5.45 2.3 3.3 2.3 7.75l-.15 1.55q-.15.55-.5.55-.5 0-.5-.5l.05.1-.05-.15V22q-.55-1.05-3.3-3.05-3.75-2.7-7.85-3.45-8.45-1.55-15.95 6.05"/><path fill="#d80000" d="M10.8 20.25q.15-6.05 3.95-9.2 3.4-2.85 9.05-2.95 9.45.35 12.65 6 1.15 2 1.5 6.55-.45-.7-2.6-2.2-3-2.15-6.25-3.2-10.05-3.3-18.3 5"/><path fill="#960000" d="M34.55 13.3q-2-2.85-5.6-4.5Q35 10.4 37 15.25q.6 1.4.95 5.4-.45-.7-2.6-2.2-3-2.15-6.25-3.2-10.05-3.3-18.3 5Q11 12.8 16.65 9.8q-1.7 1.2-3.1 3.5 3.5-1.8 6-2-4.15 1.4-6 5 3.75-3.75 9.65-3.75 5.85 0 10.35 3.75-1.9-3-5.4-4.2-2.2-.75-7-1.15 9.05-2 13.4 2.35"/><path fill="#ff6e6e" d="M17.55 10.5q1.65-1.9 4.15-1.95 2.15-.05 3.55 1.1l-2.85-.5Q20.1 9 17.55 10.5"/><path fill="#ff6e6e" d="M24.2 11.9q-4.1-.55-6.65.95 2.5-2.8 6.65-.95"/><path fill="#490200" d="m10.25 8.05.15-.75 1.55-1.05.65.2q2.6 1.4 2.3 5.3v.15q-1.6 6.25-5.75 5.75H9q-.95-.25-1.1-1.6l.05-.55q.2-2.6 2.8-4-.65-2.15-.5-3.45m.65-1.5q.45-.35 1.05-.3L10.4 7.3l.5-.75"/><path fill="#ff0" d="M14.2 12q-.3 1.45-1.6 3.2-1.65 2.25-3.25 1.8-.95-.55-.45-2.3.55-1.9 2.65-2.85Q9.7 6.1 12.1 6.9q2.45.85 2.1 5.1"/><path fill="#fd7bdc" d="M13.65 9.8q.55 2.3-.65 2.55-1.15.3-1.6-2.05-.45-2.3.65-2.6 1.15-.25 1.6 2.1"/><path fill="#fd7bdc" d="M12 15.3q-1.4 1.75-2.4 1.05-1.05-.75.4-2.65 1.4-1.85 2.4-1.05.95.75-.4 2.65"/><path fill="#ff0" d="M12.25 8.55q.7-.2 1 1.3.35 1.45-.4 1.65-.7.15-1.05-1.3-.25-1.45.45-1.65"/><path fill="#5f7dff" d="M11.65 15q-.95 1.2-1.6.7-.65-.55.3-1.7.95-1.2 1.55-.7.65.55-.25 1.7"/><path fill="#fd7bdc" d="M12.35 9.15q.4-.1.6.8.2.85-.25.95-.4.1-.6-.8-.2-.85.25-.95"/><path fill="#30e6ff" d="M11.4 14.8q-.6.7-1 .45-.4-.4.2-1.05.55-.7.95-.45.35.35-.15 1.05"/><path fill="#490200" d="M12.05 7.75q.15-1.2.75-1.7l2-.1q3 1.55 2.6 6l-.05.2q-.8 3.15-2.65 5-1.8 1.85-3.9 1.6l-.15-.05q-1.1-.3-1.2-1.8v-.7q.3-3 3.2-4.5-.75-2.6-.6-3.95"/><path fill="#ff0" d="M12.9 7.45q.3-1.3 1.3-.95 1 .3 1.75 1.85.85 1.75.65 3.9-.4 1.65-1.85 3.6-1.9 2.6-3.7 2.1-1.1-.65-.55-2.65.65-2.15 3.05-3.2-1-3.1-.65-4.65"/><path fill="#fd7bdc" d="M16 9.75q.55 2.6-.75 2.9-1.3.25-1.85-2.35-.55-2.65.75-2.95 1.3-.3 1.85 2.4"/><path fill="#fd7bdc" d="M14.05 16q-1.55 2.1-2.75 1.2-1.05-.9.45-3 1.65-2.1 2.75-1.2 1.2.9-.45 3"/><path fill="#ff0" d="M15.5 9.8q.35 1.7-.45 1.9-.8.2-1.2-1.5-.35-1.7.5-1.9.85-.2 1.15 1.5m-1.85 5.9q-1 1.35-1.8.8-.7-.6.3-1.95 1.1-1.45 1.8-.8.8.55-.3 1.95"/><path fill="#fd7bdc" d="M14.5 9.05q.45-.2.65.85.25 1-.25 1.1-.45.1-.7-.9-.15-.95.3-1.05m-1.15 6.4q-.65.85-1.05.5-.5-.4.15-1.2.6-.8 1.1-.5.5.4-.2 1.2"/><path fill="#fff" d="M14 7.05q0 .7-.7.7t-.7-.7q0-.7.7-.7t.7.7m1.1 1.1q0 .55-.5.55-.55 0-.55-.55t.55-.55q.5 0 .5.55m-2.4 5.25q0 .6-.6.6t-.6-.6q0-.6.6-.6t.6.6m1-.2q0 .4-.4.4-.45 0-.45-.4t.45-.4q.4 0 .4.4m-1.95-5.6q0 .45-.45.45t-.45-.45q0-.4.45-.4t.45.4m-2.4 7.75q0 .45-.45.45l-.45-.45q0-.5.45-.5t.45.5"/></g><g id="c" fill-rule="evenodd"><path fill="#490200" d="M6.05 0q1.4 0 2.1 1.1.5.75.5 1.55t-.5 1.55q1.7.75 1.7 2.25 0 2.35-2.7 2.35l-1.1-.25Q5.2 9.9 3.6 9.9.7 9.9.7 7.15q0-.85.55-1.55Q0 4.95 0 3.55 0 1.2 2.25 1.2l.45.05.8.4.15.1.1-.15Q4.35 0 6.05 0"/><path fill="#ff59ff" d="M5.85.95q1 0 1.65.9.4.55.4 1.25t-.4 1.25q1.2.5 1.2 1.75 0 1.95-2 1.95l-.9-.2q-.7 1.1-2 1.1-2.3 0-2.3-2.2 0-.7.45-1.25-1-.6-1-1.7 0-1.9 1.8-1.9l.35.05.65.35.15.05.05-.1q.5-1.3 1.9-1.3"/><path fill="#ffb0ff" d="m5.6 1.85.6.15q1 .4 1 1.5l-.3 1q.9.35.9 1.35 0 1.5-1.55 1.5L5.6 7.2Q5 8 4.05 8q-1.8 0-1.8-1.65l.35-1q-.8-.45-.8-1.3 0-1.45 1.4-1.45l.9.35.6-.8q.4-.3.9-.3"/><path fill="#ff59ff" d="M5.3 3.05q1 0 1 1l-.2.6q.6.25.6.85 0 .9-1 .9l-.4-.1q-.3.55-.95.55-1.1 0-1.1-1.05l.2-.6q-.5-.25-.5-.8 0-.9.9-.9l.55.2q.15-.65.9-.65"/><path fill="#ffb0ff" d="M3.95 4.7q0-.45.4-.45l.25.1.45-.3q.45 0 .45.5l-.1.25.3.4-.45.45-.2-.05-.45.2q-.5 0-.5-.45l.1-.3-.25-.35"/><path fill="#fff" d="M4.3 3.65q.55.2.35.7-.15.55-.7.35-.45-.2-.3-.7.2-.55.65-.35M2.85 2.6q.9.35.55 1.2-.25.8-1.15.55Q1.45 4 1.7 3.2q.25-.9 1.15-.6"/></g><use xlink:href="#c" id="b" width="9.85" height="9.9"/></defs></svg>