<svg xmlns:xlink="http://www.w3.org/1999/xlink" height="92.9" width="100.7" xmlns="http://www.w3.org/2000/svg"><g transform="translate(38.65 49.75)"><use height="12.15" transform="translate(-16.25 6)" width="29.25" xlink:href="#a"/><use height="35.9" transform="translate(-26.6 -7.45)" width="26.6" xlink:href="#b"/><use height="35.9" transform="matrix(-1 0 0 1 26 -7.45)" width="26.6" xlink:href="#b"/><use height="46.85" transform="translate(-19.9 -10.85)" width="39.2" xlink:href="#c"/><use height="24.3" transform="matrix(-1 0 0 1 -6.55 1)" width="12.5" xlink:href="#d"/></g><defs><g id="e" fill-rule="evenodd"><path d="M26.6 14.45v1.1h-.55q-5.1 0-8.75 1.75-2 .95-2.85 1.95-2.55 2.3-3.55 7.8-.15.55.1 2.65v.55q0 2 .95 4.35l.6 1.7-1.8-.2q-4.25-.3-5.3-2.6-1.85.55-2.8-.9l-.8-1.5L.8 29.75q-.65-.55-.75-1.9-.25-3.9 1.65-10.3Q3.75 10.7 6.45 8q2.45-2.4 4.9-2.35 1.05 0 2.05.55 1.1-4.6 4.2-5.65L23.15.4q2.55.9 2.55 3.1h.9v1.35l-2.05-.25q.3-2.25-1.6-3.15l-5 .15Q16 2.3 14.8 5.2q-.6 1.45-.8 2.75-2.8-3.15-6.75.85Q4.5 11.6 2.4 19.95q-2.05 8-.9 8.85L3.6 32q.5.75 1.55.45.9-.3 1.25.55.7 1.65 4.45 2l-.15-.45-.2-.55q-.75-2.35-.6-4.2.5-5.7 3.65-11.05l-.25-.05.2-.1 2.85-2.05q3.95-2.1 9.7-2.1h.55" transform="translate(0 -.4)"/><path d="M26.6 14.45h-.55q-5.75 0-9.7 2.1L13.5 18.6l-.2.1q-2-.75-2.35-2.7-.2-1.35.55-3.7l.75-2.1q-.5-2.55-4.2 1.8-2.2 2.6-3.85 8.25-1.65 5.55-.6 6.3.6.4 1.35 3.3l.95-.15q.65-.35.85.15.65 1.65 3.95 4.7l.15.45q-3.75-.35-4.45-2-.35-.85-1.25-.55-1.05.3-1.55-.45l-2.1-3.2q-1.15-.85.9-8.85Q4.5 11.6 7.25 8.8q3.95-4 6.75-.85.2-1.3.8-2.75 1.2-2.9 3.15-3.6l5-.15q1.9.9 1.6 3.15l2.05.25v9.6" fill="#c0c2c2" transform="translate(0 -.4)"/><path d="m13.3 18.7.25.05Q10.4 24.1 9.9 29.8q-.15 1.85.6 4.2l.2.55q-3.3-3.05-3.95-4.7-.2-.5-.85-.15l-.95.15q-.75-2.9-1.35-3.3-1.05-.75.6-6.3Q5.85 14.6 8.05 12q3.7-4.35 4.2-1.8l-.75 2.1q-.75 2.35-.55 3.7.35 1.95 2.35 2.7m-2.05-6.4.7-2.1q-2.5.5-3.65 2.55-1 1.9-2.4 7.35-1.45 5.95-.75 6.95-.1-3.3 1.8-7.55 1.05-2.35.45.85-.85 4.35-.65 4.85l.7-1.6q.8-2.25 1.6-3.15 1.4-1.65.9 1.25.4.05.15 3.75-.2 2.8.05 1.7 1.05-4.85 3.1-8.4-2.15-.7-2.45-2.75-.2-1.35.45-3.7" fill="#a2a2a2" transform="translate(0 -.4)"/><path d="M11.25 12.3q-.65 2.35-.45 3.7.3 2.05 2.45 2.75-2.05 3.55-3.1 8.4-.25 1.1-.05-1.7.25-3.7-.15-3.75.5-2.9-.9-1.25-.8.9-1.6 3.15l-.7 1.6q-.2-.5.65-4.85.6-3.2-.45-.85-1.9 4.25-1.8 7.55-.7-1 .75-6.95 1.4-5.45 2.4-7.35 1.15-2.05 3.65-2.55l-.7 2.1" fill="#797977" transform="translate(0 -.4)"/></g><g id="c" fill-rule="evenodd"><path d="m13.75-10.55.4-.3.5.15q2.85.7 4.05 6.75 1 5.15.3 8.5-.45 2.15-2.35 4.55-1.95 2.45-4 3.45-1.9 1-3.45.3-1.1-.45-1.5-1.6-.65-1.9 1.95-6.85l.75-1.45q.8-1.75 2-8.8.7-4.35 1.35-4.7m-33.05 6.6q1.2-6.05 4.05-6.75l.5-.15.4.3q.55.35 1.35 4.7 1.25 7.25 2 8.8l.75 1.45q2.55 4.9 1.9 6.85-.4 1.15-1.5 1.6-1.5.7-3.4-.3-2.1-1-4-3.45-1.9-2.4-2.35-4.55-.7-3.35.3-8.5" transform="translate(19.9 10.85)"/><path d="M-8.8-1.1q0-1.75 1-3 1.05-1.25 2.45-1.25 1.45 0 2.5 1.25 1 1.25 1 3t-1 2.95Q-3.9 3.1-5.35 3.1q-1.4 0-2.45-1.25-1-1.2-1-2.95" fill="#a2a2a2" transform="translate(19.9 10.85)"/><path d="M-3.45-1.65q0 1.75-1.05 3-1.05 1.2-2.55 1.2-1.45 0-2.5-1.2-1.05-1.25-1.05-3t1.05-3q1.05-1.2 2.5-1.2 1.5 0 2.55 1.2 1.05 1.25 1.05 3" fill="#fff" transform="translate(19.9 10.85)"/><path d="M4.45-.25q0-1.75 1-2.95 1.05-1.25 2.5-1.25 1.4 0 2.45 1.25 1 1.2 1 2.95 0 1.75-1 3T7.95 4Q6.5 4 5.45 2.75q-1-1.25-1-3" fill="#a2a2a2" transform="translate(19.9 10.85)"/><path d="M-5.55-1.95q0 2-1.5 2-1.55 0-1.55-2t1.55-2q1.5 0 1.5 2" transform="translate(19.9 10.85)"/><path d="M3-1.4q0-1.75 1-3 1-1.2 2.45-1.2 1.45 0 2.5 1.2 1 1.25 1 3t-1 2.95Q7.9 2.8 6.45 2.8 5.05 2.8 4 1.55 3 .35 3-1.4" fill="#fff" transform="translate(19.9 10.85)"/><path d="M4.85-2q0-2 1.5-2t1.5 2q0 2-1.5 2t-1.5-2" transform="translate(19.9 10.85)"/><path d="M6.8-1.75q-.55 0-.55-.8t.55-.8q.6 0 .6.8t-.6.8m-13.55 0q-.55 0-.55-.8t.55-.8q.6 0 .6.8t-.6.8" fill="#fff" transform="translate(19.9 10.85)"/><path d="M-18.75-3.85q1.15-5.7 3.6-6.3l.3-.1.2.15q.4.3 1.1 4.35 1.35 7.5 2.05 8.95l.75 1.45q2.45 4.7 1.9 6.4-.3.9-1.25 1.3-1.25.55-2.9-.3-1.95-1-3.8-3.3-1.85-2.35-2.25-4.35-.7-3.25.3-8.25" transform="translate(19.9 10.85)"/><path d="M-18.2-3.7q1.05-5.4 3.2-5.9.2-.05 1.15 5.4Q-12.8 1.85-12 3.45l2.3 4.8q1.05 2.85-.6 3.6-1.85.85-4.75-2.05-2.85-2.75-3.45-5.5-.65-3.1.3-8" fill="#fff" transform="translate(19.9 10.85)"/><path d="M18.15-3.85q1 5 .3 8.25Q18 6.45 16.2 8.75q-1.85 2.35-3.8 3.3-1.7.85-2.95.3-.9-.35-1.2-1.3-.55-1.7 1.9-6.4l.75-1.45q.75-1.6 2.05-8.95.7-4.05 1.1-4.35l.2-.15.25.1q2.5.6 3.65 6.3" transform="translate(19.9 10.85)"/><path d="M17.6-3.7q.95 4.9.3 8-.6 2.75-3.4 5.5-2.95 2.9-4.8 2.05-1.65-.75-.65-3.6l2.35-4.8q.8-1.6 1.85-7.65 1-5.45 1.15-5.4 2.15.5 3.2 5.9" fill="#fff" transform="translate(19.9 10.85)"/><path d="m-12 3.45 2.35 4.9q1 2.85-.65 3.5-.75.25-1.8 0-1.1-.3-1.4-.9-1.1-2.45-.65-8.15.45-5.9 1.05-3.05.6 2.75 1.1 3.7M17.6-3.7q.9 4.9.3 8-.6 2.75-3.4 5.5-2.95 2.9-4.8 2.05-1.5-.7.35-2.85l3.3-4.05 2.45-6.5q1.45-3.9 1.8-2.15" fill="#e1e1e1" transform="translate(19.9 10.85)"/><path d="M-8.05 9.05q-1 .4-1.7-.3-1.5-1.45.45-5.8 2.8-6.65 8.4-6.5Q4.4-3.4 8.65-.4q4.3 2.95 6.4 7.95 4 9.35-2 15.9Q9.8 27.1 10.1 28.7q.1.4.8.5l1.65-.25q.9-1.6 1.9-1.6 1-.05 1.8 1.4l.15.25.4.35q1.2 1 1.2 1.95 0 .6-.4 1.2-.7 1.1-3.55 2.3Q11 36.05 8.6 36q-2.95-.05-4.15-2.2Q2.6 30.55 3 26.45q.5-4.9 4.2-9.1 1.35-1.55-.15-3.6Q5 10.95.15 9.3l-8.2-.25" transform="translate(19.9 10.85)"/><path d="M4.15 9.9Q-3.2 5.65-8.55 8q-.75.35-.65-1.3.15-1.65 1.1-3.65 2.55-5.65 7.15-5.5 10.05.35 14.6 9.6 1.95 4 1.65 8.1-.3 4.35-3.1 7.45-4.95 5.45-2.5 7.2.85.65 2.2.45t1.7-.9q.8-1.65 1.8.15l1.1.95q.6.6.15 1.35-.9 1.4-5.05 2.55-4.75 1.3-6.15-1.2-1.75-3.1-1.3-7 .55-4.4 3.9-8.15 1.7-1.9.4-4.25Q7.3 11.7 4.15 9.9" fill="#c0c2c2" transform="translate(19.9 10.85)"/><path d="M-.5 1.95q-.55.7-1.05.5Q-3 1.35-4.25 1.2-6.1.95-6.95 2.65-7.8 4.3-6.5 5.1q.65.4 4.35.95 3.5.55 4.75 1.55-3.85-1-7.4-.85l-3.7.5Q-9.3 5.6-7.35 2.2q2.3-4 6.55-3.85 8 .3 12.3 6.95 3.2 5.05 3.1 10.55-.05 3.75-4.9 7.6.45-1.35 1.95-3.05.5-.6 0-1.65-.6-1.1-.5-1.35.1-.3 1.05-.45.9-.2 1.15-1 .2-.75-.55-1.25-.9-.65-.95-1.15-.05-.45.7-1.35.65-.8.1-1.75-.6-1-1.5-.85l-1-.05q-.1-.15.3-1.3.3-1.1-.5-2-.8-.9-1.85-.35-1.05.6-1.4.35-.25-.2-.3-1.55 0-1.25-1.2-1.75L3.25 3q-.75.6-1.05.5-.4-.15-.3-.9.05-.75-.9-1.1-.95-.3-1.5.45M7.9 23.6l-1.5.3.6 1.5-1.1 1.4q-.1.7.8 1.9l-.3 1.05q-.15 1.25.7 2.45 1.4 1.95 5.55 1.35-2.8 1.4-5.45.3-2.55-1.1-2.5-5.7.05-3.25.9-5.25l1.35-.1.95.8" fill="#e1e1e1" transform="translate(19.9 10.85)"/><path d="M9.6 15.7q-.2-1.85-2.8-4.55l-2.6-2.3 1.8-.5L7.35 10q.8.55 1.8.55l-.1.55q-.05.75.3 1.35.5.85.25 3.25" fill="#a2a2a2" transform="translate(19.9 10.85)"/><path d="m13.1 29.85.7-.6q.3-.15 1.55.7 2 1.3.25 2.75.9-1.45.1-2.2-.4-.35-1.9.3-1.85.75-3.1.55-1.55-.2-1.9-1.7l-.1-1.4q1.05 3.15 4.4 1.6" fill="#a29fa2" transform="translate(19.9 10.85)"/></g><g id="f" fill-rule="evenodd"><path d="m12.05 4.85-.65.65.3 1.1q.2 1.05-.3 1.95l-.15.3-.3.5q-.65 1.05-.95 2.4v.15l.6.5q2.2-3.55 1.7-7.55.75 4.25-1.15 8l.65 1.55.25 1.5-1.4-.95-.7-.75q-1 5.25.45 10.3-2.45-3.3-2.65-7.45l-1 .45-1.15.35.3-.35q1.95-.15 2.4-1.95l.1-.5-.85.25q2.1-3.25 3.1-7.3L8.3 7.3l-.75 1.55-1.8.75q-1-2.45-1.5-5.15Q3.55 10.3 3.9 16l.2.95q.35 1.3-.15 2.6l-1.25-1.7L0 20l1.15-1.55q1.65-2.15 1.65-4.7.5 2.9-1.7 5.05 2.65-1.65 2.3-4.55-.7-5.8 1.3-11.15l.8.3-.3-1.35-.35.65.25-.55Q2.6 4.7 2.15 7.8q-.75 2.4-.45-.7.3-3.15 3.55-5.25l.5 1.65 1.4.4L5.85.55 6.1.2 7.55 4l.6.15L12 3.5q-2.15 1.3-4.85.85l-.7-.25-1.65-.7-.35.9.5-.6.7 1.2 2.25.8 2.3.05.55-1.3.5.8.8-.4m-1.75 1 .8 2.4q.35-1.15.05-2.2l-.4-1.15-.45.95m-.25.3H9.7l.15.25.2-.25m-3.3-.3-.9-.4.1 1.6.8-1.2M2.05 9.1v.7l-.6.9-.8 2.35 1.6-1.5.1.5-.75.75-1.15.7-.05-.95q0-2 1.6-3.15l.05-.3m7.2-2.85H8.3V7l2.2.75-.4-1-.85-.5m-3.3 3q1.3-.6 1.75-1.95L8 6l-1.1.8-1 1.7.05.75m-.5-1.4-.5-3.7q-.7 1.5.15 3.2l.35.5m4.25 4.6q-.4.55-.65 1.2l-.4 1.4q-.75 2.2-.25 4.75.35 1.75 1.35 3.35L9.55 22q-.75-4.85.15-9.55m-6.75 5.1.85 1.4-.05-2.65-.8 1.25m7.8-4.45-.8-.9Q9.9 13.8 11.1 15l.75.55-.1-.6-1-1.85" fill="#003f00" transform="translate(0 -.2)"/><path d="m7.9 5.7-2.25-.8-.7-1.2-.5.6.35-.9 1.65.7L7.9 5.7M5.85.55l1.3 3.35-1.4-.4-.5-1.65.6-1.3M2.15 7.8Q2.6 4.7 5.1 2.15l-.25.55-.15.4q-2 5.35-1.3 11.15.35 2.9-2.3 4.55 2.2-2.15 1.7-5.05l-.25-1.95-.2.25-.1-.5-1.6 1.5.8-2.35.6-.9v-.7l.1-1.3m5.4 7.5.85-.25-.1.5q-.45 1.8-2.4 1.95l1.65-2.2M10 11.75q.3-1.35.95-2.4l.3-.5-1.25 2.9m-.75-5.5.85.5.4 1L8.3 7v-.75h.95m-3.8 1.6-.35-.5q-.85-1.7-.15-3.2l.5 3.7m.5 1.4L5.9 8.5l1-1.7L8 6l-.3 1.3q-.45 1.35-1.75 1.95m2.7 5.8.4-1.4q.25-.65.65-1.2l-1.05 2.6m-5.7 2.5.8-1.25.05 2.65-.85-1.4" fill="#8dcd00" transform="translate(0 -.2)"/><path d="m12.05 4.85-.8.4-.5-.8-.55 1.3-2.3-.05-1.45-1.6.7.25q2.7.45 4.85-.85l.1-.15q-.05.75.2 1.5.5 4-1.7 7.55l-.6-.5v-.15l1.25-2.9.15-.3q.5-.9.3-1.95l.35-1.75m-1.75 1 .45-.95.4 1.15q.3 1.05-.05 2.2l-.8-2.4m-.6 6.6q-.9 4.7-.15 9.55l.2 1.15q-1-1.6-1.35-3.35-.5-2.55.25-4.75l1.05-2.6m1.05.65 1 1.85.1.6-.75-.55q-1.2-1.2-1.15-2.8l.8.9" fill="#a7f200" transform="translate(0 -.2)"/></g><use height="35.9" width="26.6" xlink:href="#e" id="b"/><use height="24.3" width="12.5" xlink:href="#f" id="d"/><path d="M13 16.75q0 1.4-1.5 1.4-2.1 0-10.3-4.7-2.4-1.4-4.3-1.65l-.85-.1-2.45 2.2q-4.75 4.1-6.2 4.1-3.65 0-3.65-2.7 0-1.5.85-2.1l.75-1q1.3-1.35 3.1-1.45l-.1-.6.2-.65q-.95-.8-.95-1.55Q-12.4 6-9.5 6l4.1.45 1.15-.2q1.7 0 2.25 1.2 2.95 1.1 6.05 3.05l5.8 3.15Q13 15.4 13 16.75m-21.6-8.1q-.95-.1-1 .2h.8l.2-.2" fill-opacity=".212" fill-rule="evenodd" transform="translate(16.25 -6)" id="a"/></defs></svg>