<svg xmlns:xlink="http://www.w3.org/1999/xlink" height="92.9" width="100.7" xmlns="http://www.w3.org/2000/svg"><use height="32" transform="translate(20.8 29.5)" width="34.2" xlink:href="#a"/><defs><g id="a" fill-rule="evenodd"><path d="M10.85 10.9Q7.4 9.6 7.3 9.5l-1.45-1Q4.65 7.9 3.8 8l-1.4-.25Q1.35 6.4-.1 6.1l-.6 1.25q-1.1 1.8-3.25 1.8l-2.5-.1-1.35.7q-1.2 2-4.5 2-1.25 0-1.35-1.3 0-1.3 1.4-1.3Q-10.8 9.1-10.1 8q.8-2 2.3-2.4l.55-.1h.3q1.05 0 1.35.6l1.8-1.2 1.45-.85q.2-.8 1.45-.8.9 0 2.4.5 1.65.5 1.8 1.1Q3.7 6.5 4.9 6l2.15-.05.55.8q.35.5 1 .5l1.2-.6q1.8 0 2.45 2.7 0 1.55-1.4 1.55" fill-opacity=".212" transform="translate(17.85 20.25)"/><path d="m10.7-12.6-.1-.05-.15.15-1.3.5-.1.1-.3 2.15-.05-.1L8.35-12q-1.2.4-1.25 1.65l.2 1.85-1.7 1.8-.1-1.4.55-.6Q5.9-9.55 6-10.3q.1-.85.7-1.35 3.65-3.4 6.3.15 4.75 3 2.75 8.55l-2.65 1.2q.7 1.5.2 2.9l-.35.6-1.8.2-.55 1.65q2.5 1.1 1.4 3.8l-.6.5Q7.95 9.05 5.3 6.15l.6-.75.05-.15.1-1.65-.1-1.2.8-.55Q8.4.55 9.45-1.1L10.3.7l-.15 1.05.3-1q.3.2.7.2.5.25 1.05.3l.6-.6.05-.7q-.05-1.2-.7-2.05l.5.25.9-1.05.9-.35.45-.15.2-.35q.35-.7.15-1.5l-.1-1.55-.3-1.05-.1-.25v.05l-.05-.15-.25-.55.1.1-.15-.25-.35-.75-.9-.8-.9-.4q.1-.75-.5-1.2l-.9-.65-.15.1m-9.55-1.35.05.8L.95-12l-.75-.15-.3-1.2.55-.55.7-.05M9.5 4l.65-2.25L9.5 4q1.25 1.3 1.45 3v.05Q12.5 5.1 9.5 4M5.95 5.25q1.8 1.7 4.25 2.4l.45-.2.3-.2v-.2.2l-.3.2-.45.2q-2.45-.7-4.25-2.4m6.95-12.3q.25-.45.75-.35l-.15.5-.75 1.3-.2-.8.35-.65m-.65 4.65-.15.25v-.2l.15-.05M5.9 5.4q1.7 1.75 4 2.4l.7-.35h.05-.05l-.7.35q-2.3-.65-4-2.4m-8.4-19.3.7-.05.15.9q.05.6-.6 1h-.35l-.15-.1-.15-.25-.1-.35.05-.65.45-.5" transform="translate(17.85 20.25)"/><path d="m10.45-12.5.15-.15.1.05.45.2q.85.5 1.1 1.6l.9.35.9.8.35.75.15.25-.1-.1-1.6-1.35-.9-.3-.25-.95-.25-.35-.35-.4-.55-.1q-.9.7-1.1 1.85l-.15.95-3.65 3.35-.05-.65 3.15-3.05q.35-1.8 1.7-2.75M8.7-9.85 7.3-8.5l-.2-1.85Q7.15-11.6 8.35-12l.35 2.15" fill="#f0a871" transform="translate(17.85 20.25)"/><path d="M10.45-12.5q-1.35.95-1.7 2.75L5.6-6.7l1.7-1.8 1.4-1.35.05.1.3-2.15.1-.1 1.3-.5m-4.8 6.45L9.3-9.4l.15-.95q.2-1.15 1.1-1.85l.55.1.35.4.25.35.25.95.9.3 1.6 1.35.25.55.05.15q.3 2.35-1.15 4.1l-.65.55-.15-.1-.1.2h-1.05l.45.95v.2l.05.05q.65.85.7 2.05l-.05.7-.6.6q-.55-.05-1.05-.3-.4 0-.7-.2l-.3 1L10.3.7l-.85-1.8Q8.4.55 6.75 1.85l-.8.55-.3-8.45m7.5-4.4-.9-.35q-.25-1.1-1.1-1.6l-.45-.2.15-.1.9.65q.6.45.5 1.2l.9.4m2.1 5.2q.2.8-.15 1.5l-.2.35-.45.15.55-.45.25-1.55M9.5 4q3 1.1 1.45 3.05V7q-.2-1.7-1.45-3m3.4-11.05-.35.65.2.8.75-1.3.15-.5q-.5-.1-.75.35" fill="#d97853" transform="translate(17.85 20.25)"/><path d="M14.75-8.05v-.05l.1.25.3 1.05.1 1.55L15-3.7l-.55.45-.9.35-.6-.5.65-.55q1.45-1.75 1.15-4.1M12.7-3.3l-.45.9-.15.05-.45-.95h1.05" fill="#a3583c" transform="translate(17.85 20.25)"/><path d="m.45-8.35-.4 1.1H-1.3l-.1-.95-.05-.35.75-.15.55-.35.75.3-.15.4m13.1 5.45-.9 1.05-.5-.25-.05-.05.15-.25.45-.9.1-.2.15.1.6.5M-11.5 8.85l.4.9.2.4-1.15.45-.55-.6-.35-.4.55-.45.55-.3h.35" fill="#fff" transform="translate(17.85 20.25)"/><path d="m5.6-6.7.05.65.3 8.45.1 1.2-.1 1.65-.05.15-.6.75-1.9.35q-1.45-.35-2.3-1.95l-3.8-.1L-4.2 6l-1.1.85-1.75-.2-.6 1.1Q-8.6 9.25-10.3 10l.2.55-1.9.65-.65-.5q-1.85.35-2.85-1.1-2.1-3.1-1.5-7.05-.85-.85-.85-2.2l.1-1.4L-16-1.8q0-1.4 1.05-2.05l4.05-.1 3.1-1.7q-.25-4.05.4-8.2-2.3-3.45.85-5.75 2.25-1.65 4.15.75l2.95.05 1.35-1q1.45-.9 2.75.25 3.4 3.15.2 5.65l.65 5.8.1 1.4M3.5-19.45q-.85 0-1.45.35-.6.3-.6.75l-.5.4-3.7.05q-1.85-2.4-3.95-.25-.85.75-.65 1.95.2 1.35.95 2.05l-.45 3.6.05 5.95.05 1.5-.05 4.65v1.3l-.05.2-.25 1.65.3 1.1q2.5.8 3.45-1.8l.25-.4 4.8-.1q0 .9.75 1.55.5.4 1.1.55h.15l.45.05.85-.2.2-.65q.45-1.7-.25-3.2l.15-3.4-.05-1.65L5-4.8q-.15-3.75-.8-7.5l-.45-1.85q2.75-1.3 1.3-4.1l-.15-.25-.15-.2-.25-.3-1-.45M-.8 3.05h-.7L-.7 3l-.1.05M-10.95-1.6l-.75-1.7q-2.35-1.25-2.95 1.35-.25 1.2-.1 2.5l-.8-1.4-1.5.2-.35.85q-.05 1.2.9 1.8l.35.3q-.9 4 1.7 7.2h-.05l.05.05 1.3.25-.05-.1.25-.05.35.35.55.6 1.15-.45-.2-.4-.25-.65.55.55 2.4-2.3v.05l.1-.15.65-1.05-.15-.8.05-6.55-.05-3.45q-1.35.7-2.75 1.35l-.1.8-.3.85" fill="#020000" transform="translate(17.85 20.25)"/><path d="M-14.45 9.5q-2.6-3.2-1.7-7.2l-.35-.3q-.95-.6-.9-1.8l.35-.85 1.5-.2.8 1.4q-.15-1.3.1-2.5.6-2.6 2.95-1.35l.75 1.7v.75l2-1.3-1.7-.3.1-.8q1.4-.65 2.75-1.35l.05 3.45-.35.7q-.85 3.85-.3 7.8l-2.4 2.3-.55-.55.25.65-.4-.9q.9.15 1.3-.85l.15-.55q-.65 1.3-2.3 1.35l-.7-.65.05 1.15-1.45.2m.95-10.35.3.7.55.05.45-.2.3-.3.15-.55-.2-.6-.2-.2-.25-.25-.45.05-.5.25-.15 1.05m.4 6.5.75-.05.15-.55.9-.7-.55.05-1.25 1.25m-3.5-4 .35.3.3-.2.1-.1L-16.7.4l.1 1.25M-15.25 6l-.8.15 1.3.6-.5-.75m3.4 2.85-.55.3.15-.25.4-.05m-1.1.75.35.4-.35-.35V9.6m-1.5-.05 1.25.15.05.1-1.3-.25" fill="#ec95ae" transform="translate(17.85 20.25)"/><path d="M-8.4 7.35q-.55-3.95.3-7.8l.35-.7-.05 6.55.15.8-.65 1.05-.1.15v-.05m-2.25-9.8 1.7.3-2 1.3v-.75l.3-.85m-2.85 1.6.15-1.05.5-.25.45-.05.25.25.2.2.2.6-.15.55-.3.3-.45.2-.55-.05-.3-.7m-3.1 2.5L-16.7.4l.85 1.25-.1.1-.3.2-.35-.3" fill="#e7708b" transform="translate(17.85 20.25)"/><path d="m-13.1 5.65 1.25-1.25.55-.05-.9.7-.15.55-.75.05m-2.15.35.5.75-1.3-.6.8-.15" fill="#010000" transform="translate(17.85 20.25)"/><path d="m-14.45 9.5 1.45-.2-.05-1.15.7.65q1.65-.05 2.3-1.35l-.15.55q-.4 1-1.3.85h-.35l-.4.05-.15.25-.55.45v.05l-.25.05-1.25-.15-.05-.05h.05" fill="#8f3348" transform="translate(17.85 20.25)"/><path d="m1.45-18.35 2.05-1.1 1 .45.25.3.15.2q-1.65.05-2.6 1.35l.1.55q2.1 4.4-.65 7.45h-.6l-1.2-.35-.55-.35-.4.25q-.85.75-1.8.4l-1.4-.7-.3-.4.55 1.65q.55 3.35.05 6.45l-.75.3-.45-.25q-.85-1.65-1.1-3.6l-.15.8-.1 2.35-.25 3.95-.05-4.45-.05-1.5-.05-5.95.45-3.6q-.75-.7-.95-2.05-.2-1.2.65-1.95 2.1-2.15 3.95.25l3.7-.05.5-.4m-.3 4.4-.7.05-.55.55.3 1.2.75.15.25-1.15-.05-.8m2.25-1.3.45-.2q.4-.15.7-.45l.65-.8-.05.9-1.5 1.15-.25-.6m-5.8 12 .95-2.4.3-.35L.4-6.05q.75.5.75 1.3v.05l.05 1.5.25 1.55Q.95 1.6-2.2.25-2.95-.1-3-1.2l.4-.35q.65-.65.2-1.7m5.9 6.3.6.7V5.1l-.55.05-.45-.3-.7-1.5 1.1-.3m-9.35-20.6q-.2 1.05.15 1.9l.85-.35q1.35-.5.75-1.55l-.25-.1-1.25-.55-.25.65m3.35 3.65-.45.5-.05.65.1.35.15.25.15.1h.35q.65-.4.6-1l-.15-.9-.7.05M-4.1 3.5q-.2 1.35-1.5 1.75l-.65-.1q-.35-.6-.2-1.35l.3-1 2.05.7" fill="#c1d4e1" transform="translate(17.85 20.25)"/><path d="M1.45-18.35q0-.45.6-.75.6-.35 1.45-.35l-2.05 1.1m3.45-.15.15.25q1.45 2.8-1.3 4.1-.15 3.95.85 7.95l.3 1.7-.1.4v.65q0 1.45-1.25 2.1l-.35.05h-.15l-.7-.3-.7-1.9-.45-2.1-.05.85q0-.8-.75-1.3L-1.15-6l-.3.35-.95 2.4v-.05l-.25-2.3V-4l-.05-.15-.05.8v.1q-.1 1-1 1.6l-.55.35-.5-.1-1-1.5-.55-2.05.15-.8q.25 1.95 1.1 3.6l.45.25.75-.3q.5-3.1-.05-6.45l.3.35 2.25.1.1.95H.05l.4-1.1.6.25Q3-7.7 3.8-9.35l-.25-1.05-.2.65-.35.3q-.9.6-1.85.3h.6q2.75-3.05.65-7.45l-.1-.55q.95-1.3 2.6-1.35M3.55 5.6q-.6-.15-1.1-.55Q1.7 4.4 1.7 3.5l.1-.05q0 .9.7 1.55.5.45 1.05.6m-6.65-2-.25.4.2-.4h.05m-4 1.1.25-1.65.3-.6.4.35-.3 1q-.15.75.2 1.35l.65.1q1.3-.4 1.5-1.75l.35.05Q-4.3 6.35-6.8 5.7l-.3-1m.3-1.85V2.2l.15.2-.15.45m0-1.3.05-4.65.05 4.45.25-3.95.95 1.75.9-.1L-3-1.2q.05 1.1.8 1.45Q.95 1.6 1.45-1.65q0 .4.5.7l1.2.25q-1.1 2.15-3 3.25L-.7 3l-.8.05-.9.05q-2.4-.15-4.4-1.55m10.2-16.8.25.6 1.5-1.15.05-.9-.65.8q-.3.3-.7.45l-.45.2m.1 18.3.7-.4.7 1.8.15.65Q2.65 6.3 1.9 3.45l.5-.1.7 1.5.45.3.55-.05V3.75l-.6-.7m-9.35-20.6.25-.65 1.25.55.25.1q.6 1.05-.75 1.55l-.85.35q-.35-.85-.15-1.9M-2.8-9.2q.95.35 1.8-.4l.4-.25.55.35-2 .75-.75-.45" fill="#92abc3" transform="translate(17.85 20.25)"/><path d="m3.75-14.15.45 1.85q.65 3.75.8 7.5l-.05-.15-.05.45-.3-1.7q-1-4-.85-7.95M5.1-1.8l-.15 3.4-.05-.3L3.65.5 1.6 2.75l-2.4.3.1-.05.85-.45q1.9-1.1 3-3.25l.4-.1.85-.25.35-.25.1-.1.25-.4M3.35-9.75l.2-.65.25 1.05Q3-7.7 1.05-8.1l-.6-.25.15-.4q1.4.8 2.55-.35l.2-.65M-1.4-8.2l-2.25-.1-.3-.35-.55-1.65.3.4.05.15q.8 1.6 2.7 1.2l.05.35" fill="#7889a5" transform="translate(17.85 20.25)"/><path d="m5-4.8.05 1.35-.25-.65.1-.4.05-.45.05.15m-11.35-.15.55 2.05-.4-.9.05.75q.2 1.45 1.55 2.1l-.9.1-.95-1.75.1-2.35m3.7.95v-1.6l.25 2.3-.25-.7m3.8-.75.05-.85.45 2.1.7 1.9L1.3-3.8Q1.05-1.75 2.55-.9H3l.55.1-.4.1-1.2-.25q-.5-.3-.5-.7L1.2-3.2l-.05-1.5v-.05" fill="#7788a3" transform="translate(17.85 20.25)"/><path d="M5.05-3.45 5.1-1.8l-.25.4-.1.1-.35.25-.85.25L3-.9h-.45q-1.5-.85-1.25-2.9l1.05 2.2.7.3h.15l.35-.05Q4.8-2 4.8-3.45v-.65l.25.65M1.7 3.5l-4.8.1h-.05l-.6-.05-.35-.05-2.05-.7-.4-.35-.1-.05-.15-.2v-.65q2 1.4 4.4 1.55l.9-.05h.7l2.4-.3q1.75 0 2.9-1.05l.4-.4.05.3-.2.75-.55.3-.7.4-1.1.3-.5.1h-.1l-.1.05M1.15-9.15q.95.3 1.85-.3l.35-.3-.2.65Q2-7.95.6-8.75l-.75-.3-.55.35-.75.15q-1.9.4-2.7-1.2l-.05-.15 1.4.7.75.45 2-.75 1.2.35M-5.8-2.9l1 1.5.5.1.55-.35q.9-.6 1-1.6v-.1l.05-.8.05.15.25.7v.05q.45 1.05-.2 1.7l-.4.35-1.6.25q-1.35-.65-1.55-2.1l-.05-.75.4.9" fill="#2e3d57" transform="translate(17.85 20.25)"/><path d="M4.95 1.6q.7 1.5.25 3.2l-.2.65-.85.2-.45-.05h-.15Q3 5.45 2.5 5q-.7-.65-.7-1.55h.1Q2.65 6.3 5.05 5.1l-.15-.65-.7-1.8.55-.3.2-.75M-3.35 4Q-4.3 6.6-6.8 5.8l-.3-1.1.3 1q2.5.65 3.05-2.15l.6.05-.2.4m-3.5-.95.05-.2.15-.45.1.05-.3.6M4.9 1.3l-.4.4Q3.35 2.75 1.6 2.75L3.65.5l1.25.8" fill="#7687a4" transform="translate(17.85 20.25)"/></g></defs></svg>