<svg xmlns="http://www.w3.org/2000/svg" xmlns:xlink="http://www.w3.org/1999/xlink" width="100.7" height="92.9"><use xlink:href="#a" width="45.85" height="28.75" transform="translate(12.6 35.4)"/><defs><g id="a" fill-rule="evenodd"><path fill-opacity=".212" d="m37.65 23.7-.25 1.25q-1.05.65-5.9.65l-2-.25h-1.05l-8.05-.55q-.8-.25-1.35-.85l-1.7 2.1q-2.45 2.55-4.6 2.55-1.25 0-1.35-1.3 0-.8 1.25-1.2 1.8-.55 2.95-1.85l1-1.6.15-.15-.25-.15q-.6-.45-.6-1.3 0-1.2 1.45-1.2.7 0 2.4 1.15l2.05 1.3q.1-1.25.95-1.7l1.3-.55 6.4-.2q5.45 0 6.75.65.35.15.35.95l-.3 1.05q.4.45.4 1.2"/><path d="m35.65 3.7 2.15 1.1.5 1.6-.15.3-1.4-.65-.75-.6-.35-1.75m8.15 16.15-1.75 1.4-2.65 1.4-2.8-.1-.55.5Q31.3 24.2 27.1 21.2q-.4 1.25-1.6 1.4-4.1 1.05-7.85-1-1.85 3-4.75 5.1-5.15 3.85-10.35.5-3.15-1.95-2.4-5.6 1.9-9.05 9.75-3.45Q9 16.25 8.75 14q-.4-4 2.15-7.05 8.4-10.2 21.15-5.4l-.75.8-.6.45-.25-.15-.2-.5-2.4-.7h-1.6l-1.3-.2-3.1-.1-3.05.55-.6.15-2 .7-.2.1-.9.5-1.65 1.2-1.15 1.2-.4.35-.3.55v.05l-1.5 3.05-.4 2.7.45 3.35.15.4.45 1.25.45.65 1 1.55q-.4 4-4.65 4.55l-1.2.05L4.3 22.9l-.15-1.2.55-.8 1.65-.5.55-.15.95.5.75.3.85-.6q.3-1.85-1.4-2.65l-.75-.3q-5-2.05-6.3 2.85l-.15.95.05 1.2q.05 3.4 2.8 4.55 2.3.85 4.85.7l1.1-.3q2.1-.3 3.5-1.85l4.2-5.2L24 21.85q1.15.35 2-.65l.5-1.6.4.05q3.65 3.3 8.45 2.9l.4-1.4 1.15.4q4 1 6.9-1.7M32.3 8.7q3.3-1.25 5 1.75l.3.7-1 .4Q34.1 8.8 30.55 9.6l1.75-.9m8 4.2-.5-1q1.05-1.4 2.5-.55.85.5 1.4 1.75L42.45 12l-2.15.9m-1.35 1.45 2.3.1-1.35.6-.95-.7M9.4 21.95l-.35.2q-1.3.55-2.2-.6l-1.15-.1-.25.3v.9l1.15.45q3.55 0 4.3-3.4l-.7-.9q.75 1.85-.8 3.15"/><path fill="#a449d7" d="m43.45 8.35.25 1.55.45.55q.65 3.15-.3 6.4-.95 1.4-2.55 2.1l.8-.8q.55-.6.65-1.4l-11.7-4.7.45 1.3q2.75 6.45 9.35 5.85-2.75 1.25-5.8.4l-.95-.15.15.25-.25.15q-4.9.45-9.3-3.15-1.7-1.35-3.65-2.35L18.5 11.9l-1.3.15q3.1 1.85 3.55 5.55 3.3-.1 4.85 2.1-5 1.35-10.1-1.05l-1.55.05q.15 9.5-10.75 8.1l.5.25Q.95 25.9.9 22.5l-.05-1.2q3.45 8.25 11.05 1.5 1.15-.95.95-2.5l-.5-3.65v-.05l.45-.25h-.5v-.05l-.25-1.9.85.15-.9-.95v-.05l.35-3.9 1.6 2.35-.7-4.45 2.5-2.2.95 4.8.65-5.5.05-.05 3.6-.9-.35 5.9 2.45-6.15h.05q1.4-.1 2.8.6l.7.4-.7 5.05.2-1 1.6-3.1.05.05 1.7 1.15.25-.35L33 3l.25.15q1.35 1.2 1.9 3.05l-1.9.4 1.8.1q2.65.3 5.1 1.35L38.2 6.7l2.35-2.15 1.8 3.05q-.2-2.4-1.8-3.65l-.95.4 1.05-.6q1.85 2.25 2.8 4.6m-13-5.7.25.15-.25-.15m3.8 4.25 1.35.85q2.1 1.4 3.25 3.7l.4-.3.35-.4.2-.35.25-1.3-.05-.85-5.75-1.35m-8.1 1.6.5 1.65-1.45.9 1.1 1.8-1.2.45 5.4 3.75-4.05-3.35 1.15-.55-1.5-1.9 1.6-.7-.8-1.6 1.55-.7-2.3.25m6.15.2-1.75.9q3.55-.8 6.05 1.95l1-.4-.3-.7q-1.7-3-5-1.75m8 4.2 2.15-.9 1.25 1.1q-.55-1.25-1.4-1.75-1.45-.85-2.5.55l.5 1m-1.35 1.45.95.7 1.35-.6-2.3-.1M18.2 1.85l.6-.15-.3.05-.3.1m6.75-.6 1.3.2-1.35-.2h.05m-11.5 3.1 1.65-1.2.9-.5v.05l-2.55 1.65M11.2 17.9l-.45-.65.05.05.4.6m-4.3 2.35-.55.15.6-.2-.05.05M4.3 22.9l2.05 1.15-1.45-.3q-.6-.35-.6-.85"/><path fill="#d779ff" d="M26.65 4.45h.05l1.05.95-1.6 3.1-.2 1 .7-5.05m-3.55-1L20.65 9.6 21 3.7h.05l2.05-.25m-5.75 1.2-.65 5.5-.95-4.8.05-.05 1.55-.65m-4.1 2.9.7 4.45-1.6-2.35.9-2.1M12 13.6l.9.95-.85-.15v-.05L12 13.6m.3 2.75h.5l-.45.25-.05-.25m5.9-14.5.3-.1-2.5.9.2-.1 2-.7m-2.2.8v.05-.05m-5.25 14.6L10.3 16l.45 1.2.05.1-.05-.05"/><path fill="#e366ff" d="M31.3 2.35 29.5 6.6l-1.7-1.15 2.65-2.8.25.15.6-.45m-1.55 3.9.35-.75 1.1-1.85 1.65-1.7q.95 0 1.65 1.25t.7 3h-.05q-.55-1.85-1.9-3.05L33 3l-3.25 3.25m8.45.45h-.1.05l-1.85-.5.45-.15 1.4.65.15-.3 1.3-2.05.95-.4q1.6 1.25 1.8 3.65l-1.8-3.05L38.2 6.7M36 5.5v-.05.05m-9.75-4.05h1.6l-1.15 3h-.05l-.7-.4q-1.4-.7-2.8-.6l1.75-2.2 1.35.2m8 5.45L40 8.25l.05.85-.25 1.3-.2.35-.35.4-.4.3q-1.15-2.3-3.25-3.7l-1.35-.85M21 3.7l-3.6.9 1.1-2.85.3-.05 3.05-.55-.8 2.55H21m-5.25 1.65-2.5 2.2.2-3.2L16 2.7l-.2 2.6-.05.05m-3.4 4.3-.35 3.9-1.9-4 1.5-3.05.75 3.15m-.3 4.75.25 1.9-2.15-.7-.45-3.35.1.45 2.25 1.65v.05m.3 2.25.5 3.65q.2 1.55-.95 2.5Q4.3 29.55.85 21.3l.15-.95q1.3-4.9 6.3-2.85l.5 1.85-.85.85-.6.2-1.65.5-.55.8.15 1.2q0 .5.6.85l1.45.3 1.2-.05q4.25-.55 4.65-4.55l-1-1.55-.4-.6-.05-.1 1.6-.55"/><path fill="#ffa9ff" d="m36.3 6.2-.3-.7v-.05l.75.6-.45.15m-8.45-4.75 2.4.7.2.5-2.65 2.8-.05-.05-1.05-.95 1.15-3m-4.7 2h-.05l-2.05.25.8-2.55 3.1.1h-.05l-1.75 2.2M17.4 4.6l-.05.05-1.55.65.2-2.6v-.05l2.5-.9-1.1 2.85M12 13.55v.05l.05.75L9.8 12.7l-.1-.45.4-2.7 1.9 4m.3 2.75v.05l.05.25v.05l-1.6.55-.45-1.2-.15-.4 2.15.7m1.15-11.95-.2 3.2-.9 2.1-.75-3.15v-.05l.3-.55.4-.35 1.15-1.2M7.3 17.5l.75.3q1.7.8 1.4 2.65l-.85.6-.75-.3-.95-.5.05-.05.85-.85-.5-1.85"/><path fill="#620088" d="m26.15 8.5 2.3-.25-1.55.7.8 1.6-1.6.7 1.5 1.9-1.15.55 4.05 3.35-5.4-3.75 1.2-.45-1.1-1.8 1.45-.9-.5-1.65m-.55 11.2q-1.55-2.2-4.85-2.1-.45-3.7-3.55-5.55l1.3-.15 2.55 2.45.45 2.25.15.2q5.7 2.6 11.5 4.85l1.6.25-.75-2.05.55.3 1.2 1-.4 1.4q-4.8.4-8.45-2.9l-.4-.05-.5 1.6q-.85 1-2 .65l-6.65-1.45-4.2 5.2q-1.4 1.55-3.5 1.85l-1.95.05q2.1-.2 3.8-1.3l.65-.5q2.1-2.05 3.3-4.85l-1.1-1.95 10 2.35 1.1-.95.15-.6"/><path fill="#040005" d="m32.05 1.55 1.3-.5q1.1.2 1.7 1.4l.6 1.25.35 1.75v.05l.3.7 1.85.5h-.05.1l1.95 1.35Q37.7 7 35.05 6.7l-1.8-.1 1.9-.4h.05q0-1.75-.7-3t-1.65-1.25l-1.65 1.7-1.1 1.85-.35.75-.25.35 1.8-4.25.75-.8M37.8 4.8q4.6-3.75 5.6 3.15l.05.4q-.95-2.35-2.8-4.6l-1.05.6-1.3 2.05-.5-1.6m6.35 5.65q3.55 4.65-.35 9.4-2.9 2.7-6.9 1.7l-1.15-.4-1.2-1-.3-.45-.15-.25q3.6 2.6 7.45.85l.6-.3q2.25-1.4 2.45-4l.05-.75-.8 1.6q.95-3.25.3-6.4"/><path fill="#fff" d="M40.85 19.2q-6.6.6-9.35-5.85l-.45-1.3 11.7 4.7q-.1.8-.65 1.4l-.8.8-.45.25"/><path fill="#9200d2" d="m3.7 27.05-.5-.25q10.9 1.4 10.75-8.1l1.55-.05q5.1 2.4 10.1 1.05l-.15.6-1.1.95-10-2.35 1.1 1.95q-1.2 2.8-3.3 4.85l-.65.5q-1.7 1.1-3.8 1.3l1.95-.05-1.1.3q-2.55.15-4.85-.7m17.35-12.7q1.95 1 3.65 2.35 4.4 3.6 9.3 3.15l.25-.15.3.45-.55-.3.75 2.05-1.6-.25q-5.8-2.25-11.5-4.85l-.15-.2-.45-2.25m13.05 5.1.95.15q3.05.85 5.8-.4l.45-.25q1.6-.7 2.55-2.1l.8-1.6-.05.75q-.2 2.6-2.45 4l-.6.3q-3.85 1.75-7.45-.85"/></g></defs></svg>