<svg xmlns="http://www.w3.org/2000/svg" xmlns:xlink="http://www.w3.org/1999/xlink" width="100.7" height="92.9"><use xlink:href="#a" width="24.1" height="12.8" transform="translate(26.55 45.4)"/><defs><g id="a" fill-rule="evenodd"><path d="m23.35 1.95.45 3.4.3 3.5q.1 1.6-.35 3.05l-.25.9-6.8-5.3-.45 1.25-.75-1.45-.65 2.35-1.2-1.55-.15.75-.8 1.75-.65 1.1-1.25-4-1.15 3.05-1.9-2.85-.6.6-.3-.65-6.4 4.95-.15-.85-.3-3.1.2-3.5.4-3.4L.8 0l2.9 2.7 1.55 1.5 1.2 1.15.05-.05 1.45-.2L9 3.7l1.15.7.05-.05.65-.3.35-.4.45-.4.25-.2 1.4 1.35h.3l.3-.15.3-.3.4-.3.3-.2.8 1.6.7-.35.15-.1.5 1.05.05.05 2.5-2.45L22.15.9l.95-.9.25 1.95m-.85.85-.1-.9v-.1l-4.5 4.5-.2.2-.35.45 4.55 3.45 1.05.8.2-2.9-.2-2-.45-3.5m-6.75 3.75.15.25.25.5.15-.5q.15-.6-.1-.95h-.8l.35.7m-.45-.75-.75-1.1-1.05.55q-1.1-.15-1.65-1l-.25.3-.3.25-1.15.45-.25-.1-.75-.1-.15.2-.8.65-1.05.05-.25.6.4 1 .5-.5L9.5 9.2l.85-1.85.65-.95 1.25 3.9.75-1.85.05-.4.1-1.85v-.05l.2.3 1.25 2 .7-2.65M1.05 11.2l.95-.8L6.45 7l-.25-.4v-.05l-1.9-2.1L1.55 1.8l-.7 4.9v1.6l.05.6v.9l.15 1.4"/><path fill="#756548" d="m23.15 8.3-.2 2.9-1.05-.8-4.55-3.45.35-.45 1.1.7 3.35-3.65 1 4.75m-1.25 2.1.1-6.45-1.95 3.15 1.4.05-1.25 1.3 1.4-.2.3 2.15m-6-3.6.1.2.2-1.15q.25.35.1.95l-.15.5-.25-.5m-.6-1-.7 2.65-1.25-2 1.1 1.35.85-2m-2.15.4-.1 1.85-.05.4-.75 1.85L11 6.4l-.65.95L9.5 9.2 7.8 7.05l-.5.5-.4-1 .75-.35 1.7.3.15-1.25.85 2.1.65-1 .65.35.6-1.55.9 1.05m-.65 1.95-.1-2.25-.2 4.1.3-1.85M1.45 5.1l.05-.35.05-.3.05-.3.1-.55v-.15h.05L6.2 6.6l.25.4L2 10.4l-.95.8q.35-.55.35-1.2l-.1-2 .15-2.9M2 10.4l.35-2.15 1.4.2-1.3-1.3 1.4-.05L1.9 3.95 2 10.4m7.05-3.2-.85-.3 1.2 2.15-.35-1.85"/><path fill="#9b8f72" d="m17.9 6.3 4.6-3.5.45 3.5.2 2-1-4.75L18.8 7.2l-1.1-.7.2-.2m-2 .5-.15-.25-.35-.7h.8L16 7l-.1-.2m-2.05-1.45-.45.2.4.25.2.4.45.95L14.1 5l-.25.35m-2.25-.8.25-.3q.55.85 1.65 1l1.05-.55.75 1.1-.85 2-1.1-1.35-.2-.3v.05l-.9-1.05-.6 1.55-.65-.35-.65 1-.85-2.1-.15 1.25-1.7-.3-.75.35.25-.6L8.2 5.9l.8-.65-.35.95.6-.45-.1-.7.75.1.25.1 1.15-.45-.3.25.45 1.2.25-1.8-.1.1m.9 3.6L12.2 10l.2-4.1.1 2.25M1.45 5.1 1.3 8l.1 2q0 .65-.35 1.2L.9 9.8v-.05q.35-1.9.4-3.75l.15-.9M6.2 6.6 1.75 3.45l.35-1.1-.55-.55L4.3 4.45l1.9 2.1v.05m-5.35.1L.9 8.9l-.05-.6V6.7m9.75-.1-.15-.95-.95-.5 1.1 1.45m-1.55.6.35 1.85L8.2 6.9l.85.3"/><path fill="#3d3326" d="m21.9 10.4-.3-2.15-1.4.2 1.25-1.3-1.4-.05L22 3.95l-.1 6.45M2 10.4l-.1-6.45L3.85 7.1l-1.4.05 1.3 1.3-1.4-.2L2 10.4"/><path fill="#fff5da" d="m17.9 6.3 4.5-4.5v.1l.1.9-4.6 3.5m-4.05-.95L14.1 5l.35 2.15L14 6.2l-.2-.4-.4-.25.45-.2M9 5.25l.15-.2.1.7-.6.45.35-.95m2.3-.45.3-.25.1-.1-.25 1.8-.45-1.2.3-.25M1.7 3.6l-.1.55-.05.3-.05.3-.05.35-.15.9Q1.25 7.85.9 9.75V8.9L.85 6.7l.7-4.9.55.55-.35 1.1H1.7v.15m8.9 3L9.5 5.15l.95.5.15.95"/></g></defs></svg>