<svg xmlns="http://www.w3.org/2000/svg" xmlns:xlink="http://www.w3.org/1999/xlink" width="100.7" height="92.9"><use xlink:href="#a" width="44" height="35.1" transform="translate(11.95 42.55)"/><defs><g id="a" fill-rule="evenodd"><path d="M22.95 5.4q4.55-3.1 9.15-2.45 4 .55 7.05 3.7Q42 9.6 42.7 13.25q.75 3.8-1.3 6.2-.3 1.2-3.45-3.75l-.25-1.3q-1.2 2.7-7.1 1.75-5.95-.95-7.75-4.2-.35 1.65-1.8 3.35-2.85 3.4-8.2 3.65-.85 1.3-1.55 4.55l-.55 3.65-1.45.35q-2.85-12.2 2.2-18 1.85-2.15 4.3-2.85l3.6.15q-1-2.05-3.95-1 .1-1.65 1.95-1.4 1.45.2 2.3 1.1-.5-.75-.55-1.65-.1-2.3 3.75-3.85-2.6 2.65-1.95 5.75Q22.7.35 29.55 1q-1.1-.05-3.15 1.15-2.45 1.45-3.45 3.25"/><path d="M39.05 15.5q.2-.65 2-.7 1.8-.05 1.85.3l1.1 3.3-1.1 1.7-2.15 1.95L38 19.1q-.15-.55 1.05-3.6"/><path d="m40.65 20 1.7-.3q1.75.75 1.3 3.8-.3 2-4.9 2.75.1-.55-.85-3.8L40.65 20"/><path d="m39.25 23.6 2.6.6q1.8 3.75-3.25 4.25-.35.05-1.2.7l-.4-1.7-.2-1.6 1.05-1.25q1.05-1.05 1.4-1"/><path d="m37.5 26.8 1.65.65q.55.55.1 1.75-.65 1.55-3.2 1.7.2-.35-.4-2.55l.9-1q.85-.75.95-.55"/><path d="M36.6 30q1.9 2.3-.35 4.3-.9-.8-.9-1.45-.4.2-.75 1.1-.35.85-.25 1.15-.3-.1-.45-.65-.4-1.2.45-2.4.35-.4-1.55.6.2-1.7 1.95-2.35 1.45-.55 1.85-.3"/><path fill="#fff" d="m40.8 21.65 1.55-1.1-1.6 1.55-.9-1.1.95.65m.3 3.9-2.35.7-.3-1.5.5 1.15 2.15-.35m-3.85 3.5-.2-1.7.3 1.45 1.55-.5-1.65.75M36 30.1l.1.8.75-.1q-.35.3-.95.25l.1-.95m3-13.35 2.2 1.75 1.25-1.55q.5.15-1.25 2.15L39 16.75M15.05 7l.75-.1.45.15-1 .3-.1.15q.5-.05 1.4.4l-.6.55 1.1-.05-.1.5.55-.35.25.3q0-.45.35-.3l-.3.9-.4-.4q-.4-.1-.9.6-.3 0 .1-.95l-1.25.25.6-1.05-1.35.05q-.4-.4.45-.95m8.65-.8-1.25.6q.3-1.5 2.5-2.05l-1.5 1.1q1.2-.4 1.2 0l-.9.85 1 .1-.6.6 1.1-.05-.35.4.5.15h-.9l.05-.2-1.1.1.4-.7-1.05.2.9-1.1m7.45 6.15-.45.4 1.25.65-.95.25 1.1.7-1.9.3.45.6-1.05.2q-.85-.1-1-.55l1.4.15-.6-.6 1.75-.3-1.15-.8.8-.15q-.55-.4-.8-.45l.5-.25-.7-.3 1.35.15"/><path fill="#082991" d="m36.75 13.15-1.45-1.8q-3.1-2.8-8.85-2.8l-3.95.3q-4.1.6-6.5 2.8-1.55 1.45-2.35 3.6 4.7-4.05 12.4-4.05L33 12q2.15.5 3.75 1.15m1.4.75.05.25-.05.1-.1.25-.35.2-.35-.15-.1-.1-.15-.05-.65-.3q-1.15-.5-2.5-.8-4.2-1.1-7.9-1.1-8.5 0-13.2 5.2l-.85-.5.6-1.8q.55-1.45 1.45-2.75 2.75-3.65 8.3-4.5l4.1-.3q4.45 0 7.65 1.7 2.25 1.3 3.4 3.2l.65 1.45"/><path fill="#2d7df2" d="M35.8 11.1q1.7 1.7 1.85 3.05-16.6-6.65-25.15 2.9l2-4.4q2.55-3.55 7.95-4.3 9.1-1.3 13.35 2.75"/><path fill="#33d6d7" d="m35.45 10.8.95 1.8.75.15-.5.5-.65.15-.7-1.65-1.4 1-1.1-2.3-1.4 1.75q-1.15-1.6-1.6-2.75l-2 2.3q-.65-.65-1.55-2.55-1.55 2.55-1.75 2.55-.45 0-2.2-2.35-1.5 2.9-1.7 2.9-.4.15-2.45-1.65-.55 1.7-1.35 3.05l-1.9-.5-1.1 2.6-.6-.95.25.05h.25l1-2.55 1.8.65 1.4-3.25 2.5 1.65 1.8-3 2.2 2.25 1.8-2.6 1.65 2.75q1.6-2.45 2.1-2.45l1.45 2.6 1.5-1.75 1.25 2.45 1.3-.85"/><path fill="#194ed1" d="m37.65 14.15-1.6-.75.8-.3.8.95v.1m-3.8-1.4-2.45-.55-3.15-.4-2.2-.1-1.55.05q-6.35.35-10.5 3.85.15-1.15 1.4-2.25l1.4.35.75-1.6 1.7-.6 1.35.8.85-1.3 1.95-.3 1.1 1.05.9-1.2H27l.8 1.2 1.05-1.1 1.65.15.9 1.4.9-1.1.95.25.6 1.4m.05 0 1.15-.8.45.25.45 1.15-2.05-.6M28 10.6l-.15.2-.1-.25.25.05m-7.45.55-.15.25-.15-.15.3-.1m-4.45 1.7.65-.35-.25.5-.4-.15"/><path fill="#1c78c4" d="m33.85 12.75-.6-1.4 1.8.6-1.15.8h-.05m1.65-.55q.85.4 1.35.9l-.8.3-.1-.05-.45-1.15m-5-1.4 1.8.3-.9 1.1-.9-1.4m-2.5-.2.85.05-1.05 1.1-.8-1.2h.75l.1.25.15-.2m-4.6.1.95-.05h.05l1-.1-.9 1.2-1.1-1.05m-5.85 1.4-.75 1.6-1.4-.35.7-.5.4.15.25-.5.8-.4m1.7-.6 1-.25.15.15.15-.25.9-.15-.85 1.3-1.35-.8"/><path fill="#333e49" d="M10.25 16.75q.5-.1.6.35.7 2.35-.55 6l-.35.3-.4-.05v.4l-.3.4q-1.55.65-2.6 2.8l-.4.3q-.3 0-.45-.2l-.8-2.5-.45-2.75v-.1l.2-.45.7-.45-.4-.35L5 20.3l.15-.35q2.5-2.65 5.1-3.2"/><path fill="#fff" d="m9.75 22.75-.8-.75.1 1.55Q7.4 24.1 6.2 26.4q-.3-.35-.7-2.5l-.25-2.2 1.5-1.2-1.05-.15q2.6-2.6 4.55-3 .65 2.2-.5 5.4"/><path fill="#abd9ff" d="M10.5 19.3q-.1.65-.7 1.9l-.15 1.05q-.15-.35-.8-.45l.05 1.55-1.15 1-1.1.95v-.15L7.7 22.5l.6-.65.25-.25-.2-.3.45-.65.45-.9.5-.75.75.3m-1.05-1.2-.4.5-.5.8-.65 1.1-.75.35.75-.85-.8.25 1.45-1.75q.75-.75.95-.5l-.05.1"/><path fill="#333e49" d="M8.05 20.6q1.7-3.4 2.05-3.05L8.5 20.9l-.45.25.35.5-.8.5-1.4 3.5 1.15-3.95.4-.15-.3-.55.6-.4m-1.3-9q3.95 1.85 4.65 2.8l.1.15q-2.35 3-4.5 3.3-.45 0-.5-.35l-.05.05-.3.3-.4-.05L.25 15 0 14.55l.25-.45L5.4 12l.6.2v-.15l.25-.4.5-.05"/><path fill="#fff" d="M.8 14.55q4.05-2.1 4.6-1.85l.8.65q.1.1.45-1.05l4.1 2.2Q10.05 16.2 7 17l-.4-1.3L6 17 .8 14.55"/><path fill="#abd9ff" d="m6.7 14.95.35.3.9-.05 1.4-.25.1.85-.95.4-1.3.55-.25-.45-.3-.8q-.3-.1-.7 1.1l-.5-.2-2.85-1.25-1.3-.45.65.1 1.25.05 1.35.05 1.05.2q.5.1.6.55l.5-.7m2.6-1 .35.35-1.05-.05-1.25.05v-.05l-.15-.5.5.25-.1-.35.95.1.75.2"/><path fill="#333e49" d="M10.45 14.45v.05l-3.4.5-.45-.3q-.15.45-.4.55l-.7-.45-3.6-.2 3.6-.3q.25 0 .55.3l.4-.55.65.45 3.35-.05M4.9 4.25l.55-.1q4.15 1.9 4.85 2.6l.2.45v.2l.35-.2q.35-.1.5.25l1.5 4.45-.2.35q-1.35 1.05-4.75-.3l-.25-.3-.05-.25.05-.2.05-.1-.4.05-2.55-6.4q-.1-.35.15-.5"/><path fill="#fff" d="M7.55 10.5 5.65 5q3.9 1.95 4.3 2.35l.2 1.5.7-1.05 1.35 4-2.05.25q-1.3-.2-1.9-.7l.55-1.2-1.25.35"/><path fill="#abd9ff" d="M5.8 5.3v-.05l.25.45.35.6.85 1.15 1.1 1.25.25.5-.05.65.55-.05q.1.2.05.55l.5.55 1.75 1.2-1.35-.45-.7-.25-.7-.15.2-.5q.2-.65.05-.7l-.6.05-.45.05-.1-.15-.85-2.1-1.1-2.6m4.3 4 .3-.35.1.55.4.45.7.9.5.65-1-.8-1.05-.9.05-.5"/><path fill="#333e49" d="M8.8 9.6v-.9Q6.4 6.3 6.6 6.05l2.55 2.3q.15.1.15.75h.55l.05.75 1.75 1.55-2.15-1.2-.1-.6h-.6"/><path fill="#4f0000" d="M15.15 17.35h.4l.2.35.25 5.45 1 6.9-.05.25-.8.6-1.55-.2-.1-.1q-.65-1.15-1.1-5.45-.5-4.45-.1-6.6l.15-.25 1.7-.95"/><path fill="#f8c606" d="M14.95 18.35q-.3 4.8 1.25 11.65-.3.75-1.05.15-.6-.95-1.05-5-.4-4.1-.05-6.25l.9-.55"/><path fill="#f87006" d="M15.8 30.35q-1.6-6.4-1.45-11.7l.6-.3q-.3 4.8 1.25 11.65 0 .35-.4.35"/><path fill="#4f0000" d="m14.05 17.95.4.1q.15.15.05.4-1.1 3.85-1.2 8.75l-.05.2q-.25.35-.75.35-.85 0-1.15-.45l-.05-.1q-.25-.85.15-3.95.4-3.2 1.05-4.7l.25-.2 1.3-.4"/><path fill="#f8c606" d="M13.65 18.85q-1 3.15-1 8.05-.35.4-.65 0-.25-.8.1-3.6.4-2.9 1-4.3l.55-.15"/><path fill="#f87006" d="m12.65 26.9-.5.15Q12.3 22.2 13.3 19l.35-.15q-1 3.15-1 8.05"/><path fill="#d80000" d="m14.45 27.8 1.35-.25.15 1-1.3.25-.2-1m.3 1.35 1.25-.3.15.8-1.1.3-.3-.8m-2.85-3.1v-.5l.8.1-.05.45-.75-.05m.05.7-.05-.5.75.1v.5l-.7-.1"/><path fill="#4f0000" d="M18.1 14.6q0 1.4-.7 2.9-.95 2.05-2.8 3l-3.45.1q-1.35-.6-1.9-2.15-.8-2.2.4-4.65 1-2.05 2.8-3l3.45-.15q1.4.65 1.9 2.2.3.85.3 1.75"/><path fill="#351e02" d="M16.75 17.15q-.85 1.8-2.4 2.6-1.55.85-2.9.2-1.3-.65-1.65-2.35-.35-1.75.5-3.5.8-1.8 2.4-2.6l2.85-.15q1.35.65 1.7 2.35.35 1.7-.5 3.45"/><path fill="#f8c606" d="M16.75 17.15q-.85 1.8-2.4 2.6-1.55.85-2.9.2-1.3-.65-1.65-2.35-.35-1.75.5-3.5.8-1.8 2.4-2.6l2.85-.15q1.35.65 1.7 2.35.35 1.7-.5 3.45"/><path fill="#f87006" d="M17.25 13.7q.35 1.7-.5 3.45-.85 1.8-2.4 2.6-1.55.85-2.9.2l-.8-.6q2.65.7 4.6-1.95 2.7-3.75.65-5.75-.65-.65-1.8-.55l1.45.25q1.35.65 1.7 2.35"/><path fill="#4f0000" d="M16.65 10.9q.5.7.05 3-.1.55-2.65 1.6-.35.1-1.2-.7l-.15-.25-.05-.35q-.15-1.75.35-2.25l.05-.05q.4-.45 1.7-.9l1.7-.3.2.2"/><path fill="#d80000" d="M13.3 14.35q-.3-1.7.1-2 .2-.3 1.35-.7 1.1-.4 1.4-.3.65 1-.05 2.35l-2.15 1.15-.65-.5"/><path fill="#8f0000" d="M16.15 11.35q.65 1-.05 2.35l-2.15 1.15-.65-.5-.05-.35q2.25-.3 2.4-2.6l.5-.05"/><path fill="#4f0000" d="M17.4 16.65q.7 1.25.6 1.7l-.15.25-3.05.55q-.45-.05-2.1-2.4-.2-.35.5-1.4l.25-.15.3-.1 2.35-.1.05.05q.6.35 1.25 1.6"/><path fill="#d80000" d="M13.75 15.75q1.75-.65 2.05-.2.35.05 1 1.2.6 1.1.55 1.4l-2.45.4-1.6-2.05.45-.75"/><path fill="#8f0000" d="M15.8 15.55q.35.05 1 1.2.6 1.1.55 1.4l-2.45.4-.2-.15q.65-.6.35-1.55-.35-1-1.35-1l.05-.1q1.75-.65 2.05-.2"/><path fill="#4f0000" d="M9.65 17.85q.1-.5 2.35-1.8.3-.2 1.25.45l.15.25.1.3q.25 1.6.05 2.1l-.05.05-.05.05-1.5 1.15-1.6.45-.25-.15-.45-2.85"/><path fill="#d80000" d="M12.8 17.1q.5 1.45.15 1.8-.1.3-1.1.8l-1.25.45q-.3-.3-.3-2.15l1.85-1.3.65.4"/><path fill="#8f0000" d="M12.8 17.1q.5 1.45.15 1.8-.1.3-1.1.8l-1.25.45-.2-.6q2.6-.8 1.65-2.8l.1-.05.65.4"/><path fill="#4f0000" d="m9.2 12.75 2.65.15q.4.1 1.25 2.45.1.35-.65 1.05l-.25.1h-.3q-1.6 0-2-.4l-.05-.05q-.4-.4-.7-1.55L9 12.95l.2-.2"/><path fill="#d80000" d="m12.05 15.95-1.75-.2q-.3-.2-.6-1.25l-.15-1.25 2.1.15q.2.05.9 2l-.5.55"/><path fill="#8f0000" d="M11.65 13.4q.2.05.9 2l-.5.55-1.75-.2-.4-.7q2.1.65 1.75-1.65"/><path fill="#4f0000" d="M11.85 15q.6-.8 1.35-.9l.95.2q1.2.85.05 2.35-.6.85-1.3.9l-.95-.2q-1.2-.8-.1-2.35"/><path fill="#d80000" d="M13.8 16.35q-.85 1.15-1.55.6-.7-.5.05-1.65.8-1.05 1.55-.6.7.55-.05 1.65"/><path fill="#8f0000" d="M13.85 14.7q.7.55-.05 1.65-.85 1.15-1.55.6-.35-.3-.2-1l.1.45q.5.45 1.3-.45.7-.8.25-1.25h.15"/><path fill="#ff6e6e" d="M13.4 14.9q.25.15-.2.7-.45.55-.7.35-.25-.15.2-.7.5-.55.7-.35m-3.55-1.65 1.45.2-.95.6-.5-.8m.65 5.85q.15-.3.05-1.15l1-.65-1.05 1.8m2.85-5.65.1-.85.45-.45 1.1-.5-1.65 1.8m.6 3.85.4.2.3.3-.05.25-.65-.75"/></g></defs></svg>