<svg xmlns="http://www.w3.org/2000/svg" xmlns:xlink="http://www.w3.org/1999/xlink" width="100.7" height="92.9"><use xlink:href="#a" width="34.35" height="28.5" transform="translate(22.15 41.2)"/><defs><g id="a" fill-rule="evenodd"><path d="M28.75 11.5q1.55 2.5 2.15 6.9.7 5.05-1.15 6.9-3.55-10.75-10-10.15-2.35 1.4-3.4 1.4-1.05 0-1.05-.3-.05-.6-.6-1-1.95-1.4-4.35-.95-2.15.4-3.4 1.65-1.75 1.6-5.25 6.55-.3-1.05-.2-3.75.2-2.65 2.9-5.9 2.4-2.8 5.1-4.35 4.75-2.6 8.65-2.1 8.1 1 10.6 5.1"/><path d="M33.9.35q2.15.4-6.4 17.05l-1.9-.05-3.85-7.85 5.4-4.7Q32.8.15 33.9.35"/><path fill="#fff9f5" d="m24.25 8.65 9.5-7.8q.85 0-5.65 13.5l-3.85-5.7"/><path fill="#d1b8a7" d="m27 11.25 6.4-8.75-4.65 10.65-1.6.1-.15-2"/><path d="M.4 0q.75-.3 5.5 3.3L10.45 7l-1.5 10.35-3.2-2Q-1.5.85.4 0"/><path fill="#fff9f5" d="M3.35 7.6Q.3.85.8.85l9.5 7.8-3.85 5.7-3.1-6.75"/><path fill="#d1b8a7" d="M9.4 11.15 2.65 2.5l8.25 6.65-1.15 2H9.4"/><path d="m25.7 3.8.1 5.45q2.35-1.65 4.9-1.2 0 .95-1.05 2.35-1.2 1.55-1.4 2.3 4.65.25 4.75 1.3.1.75-2.2 2.2 2.55.45 1.45 1.9-1.05 1.4-3 1.65l-11.5-13q.05-1.5 1.3-4.5 1.05 1.5 1.45 4.8.6-.85 2.25-1.9Q24.55 4 25.7 3.8"/><path d="m30.65 21.65.1-3.15q2.75 1.45 3.2 2.45-.7-.1-3.3.7v.25q1.5.7.05 3.3l-.2-.45.15-2.85-.45-.15.45-.1"/><path d="m18.15 14.35 6-3.35q6.95 6.45 7.2 10.85.1 2.35-1.15 1.95-.95-.3-2.4-1.9l-2.1-2.35q-.1.9.35 3.6.4 2.35 0 3.65.1-1.6-1.55-3.75-1.6-2.1-1.65-3.45 0 2.9-.7 4.55-1.2 2.65-1.3 3.8-2.25-2.65-2.5-4.75l-1.05 2.3-2.2 3q-.95-3.35-.1-7.55.85-4.45 3.15-6.6"/><path fill="#5e534b" d="m17.95 16.75.1 2-.8 1.8-.95 1.65q-.2-1.4.15-3 .5-1.9 1.5-2.45"/><path d="m11.25 12.5 6 2.25q-3.05 1.35-5.6 5.4-2.3 3.75-2.75 7.35-1.15-2-1.15-3.15V19.2l-3.7 6.25q-1.3-5.7-.05-7.9.8-1.45 3.3-2.9l3.95-2.15"/><path fill="#73655b" d="m8.15 17.35.5-.6.7-.7q.25.3.25 2.45 0 .9-.55 1.7l-1 1.45q.2-2.95.1-4.3"/><path fill="#9c897c" d="M8.35 18.1q0-1.95.5-2.75.7-1.2 1.65-2.05.05 1.4-.7 2.9l-1.3 2.65-.15-.75"/><path d="M16.1 2.3q-.2.85.65 3.9v3.3L8.9 9.15q1-3.8 1.05-5.75l1.6 1.45q.95 1.25.9 2.3.15-1.25 1.5-2.6L16.1 2.3"/><path d="M11.4 12.4q-.9 2.25-3.6 3.45-3.6 1.6-4.7 1.45-1.3-2.95-1.15-4.45l1.8.15.05-4.15Q6.45 9.6 7.05 10q-.1-2 .7-3.05 5.05 2.1 3.65 5.45"/><path fill="#73655b" d="m5.85 12.9 1.05 1.6q0 1.6-.4 2.4-1.2 2.2-1.9 2.4l.35-3.55q.25-1.5.9-2.85M6 13q-.15-1.75.95-1.65.55.05.55 1.9L6 13"/><path fill="#9c897c" d="m6.25 12.15.65.6q.5 2 .35 2.25-.65 1-2.1 1-.2-1.6 1.1-3.85M18.3 19.5q-.3.9-1.3 1.05-1 .15-.85-1.05.25-1.4.85-1.55.55-.05 1 .45.45.55.35 1.05l-.05.05M11 16.75h1.15q-.5 1.9-2 1.6.15-.9.85-1.6"/><path fill="#73655b" d="M11.75 13.1q-1.15-.15-1.15-2.25-.1-1.75 1.4-.8 2.5 1.65-.5 4.2l-.4-1.1.65-.05"/><path fill="#9c897c" d="m11.75 10.9.9.25q.55 1 .45 1.2-1 .95-1.1.65l-.25-2.1m6.15 2.85q.55-.55.35-1.5l1.85.15q-.15.8-1.2 1.75l-1-.4"/><path fill="#73655b" d="m4.25 12.65.2-2.7q1.5-.15 1.15 2.15-.15.8-.85 1.05l-.5-.5"/><path fill="#5e534b" d="M17.45 12.05h.75q.7.6.4 1.55-.3.95-1.35.75 0-2.05.2-2.3m-4.5-5L13.5 6l1.05-.75q.05.65-.3 1.4-.4.85-.95.75l-.35-.35m-2.3.6.15-.1q-.3.4-.85.55-.6.15-.65-.45 0-1.35 1.3-1.85.1.6.05 1.85m-1.9 4.15q-.95-.45-.8-3.05.45.15 1.1 1.1.2.35.2 2.15l-.5-.2"/><path fill="#f2eae3" d="M6 12.8v1.45l-.1 1.2q-.2.6-.9.4-.1-.6.5-1.7L6 12.8m2.25 6.05H7.9q-.05-.85.6-1.6 1-.85 1-1.25.05.75-.4 1.6l-.85 1.25m3.15-7.95.85.25q.2 1.1-.85 1.2V10.9m5.35 7.8.5-.65q0 2.05-1 1.85-.1-.85.5-1.2"/><path fill="#9c897c" d="m28.6 9.75-.45 1.35-.5 1.15v1.05l-1.95.35 2.9-3.9m2.05 4h.7q.85.55-.5 1.5l-1.9 1.1 1.7-2.6M28.75 18l.9-.15q.9.4.9 2.5 0 1.95-.6 2.75.1-1.55-.15-2.3-1.15-1.7-1.05-2.8"/><path fill="#73655b" d="m2.9 13.75.35.6q.25.3.15.8-.5.1-.5-1.4"/><path fill="#5e534b" d="M19.45 20.45Q19 19.3 19.4 18.2q.45-1.3 1.3-.65.6.45.4 1.55-.15 1.05-.75 1.5-.65.5-.9-.15m4.25-.25q-.2.25-1-2.2l.6.2.3.5q.5.9.1 1.5"/><path fill="#9c897c" d="M17.4 12.85q-.1-.6.4-1.4l.65-1.3Q19 11.8 18 13.4l-.6-.55"/></g></defs></svg>