<svg xmlns:xlink="http://www.w3.org/1999/xlink" height="92.9" width="100.7" xmlns="http://www.w3.org/2000/svg"><g transform="translate(38.65 49.75)"><use height="25.8" transform="translate(-19.45 -4.05)" width="37.7" xlink:href="#a"/><use height="19.05" transform="translate(-7.453 -14.445) scale(.8919)" width="16.75" xlink:href="#b"/><use height="27.9" transform="matrix(-.8919 0 0 .8919 18.393 -20.442)" width="13.95" xlink:href="#c"/><use height="19.4" transform="translate(-18.45)" width="30.25" xlink:href="#d"/><use height="27.9" transform="translate(-18.743 -19.642) scale(.8919)" width="13.95" xlink:href="#c"/><use height="32.4" transform="translate(-17.75 -6.9)" width="39" xlink:href="#e"/></g><defs><g id="a" fill-rule="evenodd"><path d="M5.5-.2q-.5-2.9.85-3.75.55-.3 1.4.25-.5 2.45-1.35 3.15l-.9.35" fill="#4f1212" transform="translate(19.45 4.05)"/><path d="M-17.1-2.15q.75-1.2 2.15-1.35L-13 1.95l-2.35.05q-1.35-.2-2-1.75-.5-1.25.25-2.4" fill="#3d2903" transform="translate(19.45 4.05)"/><path d="m-9.35-2.15 3.8-.15 1.7 2.05q.15 1.4-3.65 3.95-3.55 2.35-5.2 6.1l-3 6.15q-.85 1.35-.85 4.1-2.4-2.5-2.7-3.95-.4-1.65.05-3.05.75-1.95 2-1.7-.35-2.65-.15-3.25.7-2.05 2.8-2.6.05-1.45.95-2.9l1.65-2.5q1.3-1.6 2.6-2.25M11.3-.8q.7.7 1.6 2.5 1.35 2.4 1.4 3.5 1.7.45 2.85 2 1.05 1.25.6 2.85l-.6 1.8q1.9 1.75.5 4.6-1.4 2.9-2.75 3.05l-1.7-2.35q-.9-1.4-.9-2.7l-.1-5q-.45-2-2.75-4.1-1.8-1.75-5.25-2.9-1.65-.6-1.9-1.6-.6-2.55.75-3L5.3-2.8q4.2 0 6 2" fill="#381f03" transform="translate(19.45 4.05)"/><path d="m-8.35 3.55 3.65-1.7q.85-.45 2.65-.45Q1.6 1.4 1.6 4q.05 1.4-1.8 2.65Q-2.4 8-3.8 8.35l-4.2.1q.05 1.55-3.35 2.9-.05 1.45-.95 2.05-.55.4-.95 1.85l-.95 2.2-.3.6-1.3 2.2q-1.7-.15-1.2-3.45l.4-2.8 1.2-2.2 1.5-2.75 1.95-2.55q1.05-1.4 3.6-2.95" fill="#8f4008" transform="translate(19.45 4.05)"/><path d="m10.55 6.55 2.4 4q1.25 2.25 1.25 4.3 0 2.5-.2 2.9l-1.3 1.75q-.55-.05-1.65.9-1.15.95-.6 1.35H10l-.3-1.5q-.1-.7.45-1.4 1.05-1.45.4-2.1-2.1-2.1-2.25-2.65-.5-2.3.75-3-1.35-.15-1.5-3l-6.9-.7-1.4-1.15Q-3.2 4.6-2.5 3.5q.6-.95 3.75-.65Q3 3 6.05 4.5q3.35.9 4.5 2.05" fill="#8f4008" transform="translate(19.45 4.05)"/><path d="M.3-1.25q2-1.7 8.95.75 1.9.7 2.85 2.35l1.45 3.3q.4.9 0 6.4-2.15.1-3.8-1.15-1.8-1.3-1.45-3.25-1.2 1.3-5 .4Q2.05 7.25 1 6.2-.1 5.1-.1 4.05l-.1-.2Q-1.85 3.3-1.3 1.4-.85-.25.3-1.25" fill="#ff820e" transform="translate(19.45 4.05)"/><path d="m6.4 4.25.25.25q1.15 1.45.15 1.7-.95.25-5.1-.05.1-1.9 4.7-1.9" fill="#ffb169" transform="translate(19.45 4.05)"/><path d="M16.9 9q.25 1.4-1.25 3.7 2.05-.05 1.35 2.75-.7 2.6-2 3.4L13.05 15l-1.5-4.35-1.05-2.5q-.9-3.95 1.65-3.2Q16.3 6.15 16.9 9M-.4-1.25q1.15 1 1.6 2.65.5 1.9-1.1 2.45l-.15.2Q0 5.1-1.1 6.2q-1.05 1.05-2.3 1.35-3.8.9-5-.4.35 1.9-2 3-2 1-4.35.9-.2-2.9 1.1-5.9l1.4-3.3q1-1.7 2.9-2.35Q-2.4-2.95-.4-1.25" fill="#ff820e" transform="translate(19.45 4.05)"/><path d="m.65-1.2 3.5.55q3.4-.85 5.9 1.35 2 1.65 2.35 2.55.45 1.2-1.6 1.2l-3.3-.7L3 3.4.25 3.2l-3.8-1.25-5.75-.6 1.95-2.6q.6-.5 2.65-.5l5.35.55" fill="#d6600c" transform="translate(19.45 4.05)"/></g><g id="g" fill-rule="evenodd"><path d="M-7.5 5.85V-1.5q-.2-1.7.8-3.15 1-1.5 1.9-.6l2.3 2.75 1-2 1-2q1.5.15 2 1l.6 1.6.4-.6q1.35-1.8 3-2 .8-.1 1 2L6.7.75l-.1 5.1q-7.55-5.9-14.1 0" fill="#6f2d00" transform="translate(8.3 9.3)"/><path d="M-7.5 5.85q6.55-5.9 14.1 0L6.35 7.8q-.2 1.55-5.2 1.9-5 .35-6.85-1.05-1.85-1.4-1.8-2.8" fill="#c64f00" transform="translate(8.3 9.3)"/><path d="M5.7-4.8 5.6-.05q-.1 1.75-.05 3.5l-.75.2q-1.7.75-3.7.8l-3.85-.2Q-4.75 4-6.4 3v-.45Q-6.35.6-6.45-1.3q-.1-1.85.75-2.7 1.85.95 2.85 2.65.3.5.85 2.4.25-3.7 1.65-5.65L0-5.3q1.15 1.65 1.75 6.35.7-4.6 3.15-5.95l.45-.25.2.25.15.1M5.6 5.55 5.5 6.8q-.25.65-1 .95-1.6.65-3.6.85L-3 8.4Q-5.05 8-6.5 6.8l.05-1.55Q-4.7 6.1-3 6.4l3.5.3 3.8-.4 1.3-.75" fill="url(#f)" transform="translate(8.3 9.3)"/><path d="m5.7-4.8-.15-.1-.2-.25.35.35" fill="#f90" transform="translate(8.3 9.3)"/><path d="M-6.4 3q1.65 1 3.65 1.25l3.85.2q2-.05 3.7-.8l.75-.2.05 2.1-1.3.75-3.8.4-3.5-.3q-1.7-.3-3.45-1.15L-6.4 3" fill="#f60" transform="translate(8.3 9.3)"/><path d="M-4.35-4.05q-.65.7-1.7.7-.95 0-1.6-.7-.65-.65-.65-1.65 0-1 .65-1.65Q-7-8-6.05-8q1.05 0 1.7.65.65.65.65 1.65 0 1-.65 1.65M1.8-5.2q-.7.7-1.75.7-1 0-1.7-.7-.7-.65-.7-1.75 0-1 .7-1.7.7-.65 1.7-.65 1.05 0 1.75.65.7.7.7 1.7 0 1.1-.7 1.75m6 .4q-.65.7-1.7.7-.95 0-1.6-.7-.65-.65-.65-1.65 0-1 .65-1.65.65-.65 1.6-.65 1.05 0 1.7.65.65.65.65 1.65 0 1-.65 1.65" fill="#6f2d00" transform="translate(8.3 9.3)"/><path d="M-4.9-4.55q-.45.45-1.15.45-.65 0-1.1-.45Q-7.6-5-7.6-5.7l.45-1.1q.45-.45 1.1-.45.7 0 1.15.45.45.45.45 1.1 0 .7-.45 1.15M1.2-5.8q-.45.45-1.15.45-.65 0-1.1-.45-.45-.45-.45-1.15 0-.65.45-1.1l1.1-.45q.7 0 1.15.45.45.45.45 1.1 0 .7-.45 1.15m6.05.5q-.45.45-1.15.45-.65 0-1.1-.45-.45-.45-.45-1.15 0-.65.45-1.1Q5.45-8 6.1-8q.7 0 1.15.45.45.45.45 1.1 0 .7-.45 1.15" fill="#f60" transform="translate(8.3 9.3)"/></g><g id="h"><path d="M4.15 12.75q-.6-6.05-2.5-11.7Q.05-3.7-3.1-7.7l-1.6.05q-.75.55-.95 2.35-.2 1.8-.45 2.45l-.3-.6q-.5-4.95 2.3-8.95l.75-1.05q5.25 2.2 6.05 8.1.8 5.85 1.9 9.8l1.85 7.15q-.4.2-1.25.7l-1.05.45" fill="#fcc" fill-rule="evenodd" transform="translate(7 13.95)"/><path d="M-6.1-2.85q.25-.65.45-2.45.2-1.8.95-2.35l1.6-.05q3.15 4 4.75 8.75 1.9 5.65 2.5 11.7l-1.85.7q-2.2-3.2-4-6.9l-4.4-9.4" fill="#fff" fill-rule="evenodd" transform="translate(7 13.95)"/><path d="M6.45 11.6 4.6 4.45Q3.5.5 2.7-5.35q-.8-5.9-6.05-8.1l-.75 1.05q-2.8 4-2.3 8.95l.3.6 4.4 9.4q1.8 3.7 4 6.9" fill="none" stroke="#f66" stroke-linecap="round" stroke-linejoin="round" transform="translate(7 13.95)"/></g><g id="d" fill-rule="evenodd"><path d="M5.45 2.7 7.15.1q1-.4 2.5.65.75.45 1.35 1.8.85 1.95.8 3.2L8.75 5.7q-2.95-1.5-3.3-3" fill="#a34909" transform="translate(18.45)"/><path d="m-4.2 4.35-.35-.6 1.85 1q1.05.7.1 1.35-.75.55-2.25.35L-7.2 6q-.15-1.1 1.05-1.6l1.95-.05" fill="#ffb169" transform="translate(18.45)"/><path d="m-13.35 6.2 1.5 2.25q0 2.8-.25 3.5-.4 1.15-1.95 2.4-.65.75-1.05 2.55-.4 1.8-1 2.5-2.45-1.75-2.35-3.85.1-3.2 2.35-3.75-.6-2.75-.1-3.6 1.4-2.35 2.85-2" fill="#ff820e" transform="translate(18.45)"/><path d="M-10.3 1.85q.15 1.3-.75 2.65l.5.35q-1.05 1.65-1.95 2 1.05.25-.4 2.15-1.4 1.9-2.35 1.8.2 3.5.05 3.85l-1 1.45q-.8.95-1.3.8l-.05-2.95 1.5-2.35q-1.05-2-.85-2.6.45-1.1 2.05-2.4.8-.7 1.4-2.6 1.85-2.35 3.15-2.15" fill="#ffb169" transform="translate(18.45)"/><path d="M-14.7 7.45h.3q1.5.5-.1 1.6-1.2.85-1.15 1.8-.7-.05-.25-2 .4-1.15 1.2-1.4m-1.15 5.1.4 1.05q.2.45-.2.8l-.75.55q-.3.35-.3 1.6-1.15-.95-.85-2 .5-1.75 1.7-2M-11.9 3l.7-.25q.75.75-.35 2.15-.95 1.2-1.9 1.6-.15-2.95 1.55-3.5" fill="#ffefcc" transform="translate(18.45)"/><path d="m-10.65 4.85-.2-.55q-1-.35-.6-1.35.35-.95 1.15-1.35l3.55-.1q2.75.25 3.35.8.85.8-1.55 1.9-3.25 1.6-5.7.65" fill="#a34909" transform="translate(18.45)"/></g><g id="e" fill-rule="evenodd"><path d="M12.95 23.55q.3 1.05 1.45 1.75l-2.35.2q-3.8-.45-3.95-3.4-.1-2.45 3.75-4.5 2.8-1.35 3.3.9.35 1.5-.8 2.8-1.5 1.65-1.4 2.25" fill="#8f4008" transform="translate(17.75 6.9)"/><path d="m12 8.75 1.25.9L13 12.4q.05.6 1.15 1.95 1.55 1.9 1.3 3.5-.15 1.3-1.7 2.7l-1.8 1.7q-.35 1.3 1.1 2.1-1.95 0-2.95-1-1.4-1.4-.5-2.85 1.9-1.4 2.4-2.5.4-.95-.95-1.9-1.35-1-1.55-2.85-.3-3.65 2.5-4.5" fill="#ff820e" transform="translate(17.75 6.9)"/><path d="m9.3 10.25 2.5 1.25q-2.4.1-2.9-.9l.4-.35" fill="#a34909" transform="translate(17.75 6.9)"/><path d="m6.2 4.5.25.6q.25 1.2-3.2.25L6.2 4.5m-8.4 1.45q-1.65 0-4.1-.9 1.4-1.1 3.95.45l.15.45" fill="#ffefcc" transform="translate(17.75 6.9)"/><path d="m9.05 8.95 1.35-.45 1.6 1 1 1.35q-3.75 0-3.95-1.9m.9 3.25.7.3q1.15.65 1.05 3-1.3 0-1.9-1-.25-.4-.25-1.2.05-.85.4-1.1m.75 8.05.2.1.9 1.25q.3.7-.9.65-1.15-.1-1.15-.65 0-1.05.95-1.35" fill="#ffb169" transform="translate(17.75 6.9)"/><path d="M15.7 7.75q.95 1.45.95 2.35 0 2.85-3.45 2.55 1.8-.7 1.6-3.05-.05-.7-1.25-1.9-1.1-1.15-1.1-1.95l1 .35 2.25 1.65" fill="#d6600c" transform="translate(17.75 6.9)"/><path d="M15.15 12.35V12q2.05 1.75 1.05 4.55-.85 2.25-3 4.1.75-3.35.65-5.1-.1-2.5 1.3-3.2" fill="#d6600c" transform="translate(17.75 6.9)"/><path d="m10.25 20.55.3.2-.3.65v.85q-.6-.05-.55-.8.05-.75.55-.9m-.45-7 .55.2q.45.5 1.1 1.75-1.75-.1-1.65-1.95" fill="#ffefcc" transform="translate(17.75 6.9)"/><path d="m-14.7 10.7.85.25q.45.4 0 1.05l-.95.75h-2.95l3.05-2.05" fill="#ff820e" transform="translate(17.75 6.9)"/><path d="m-14.3-.15.5-.2q.35-.25.75-.95.25-.2.7 0l.65.7q.15.3 0 1.05-.1.6-.85.95-.75.4-1-.35L-13.7.5l-.6-.65" fill="#6e4406" transform="translate(17.75 6.9)"/><path d="M-15.25-2.3q.35.2.55.9l-.4.6q-.5.95.75 1.05.9.1 1.05-.5l.2-1.3q.55-.1 1.3.6l.05.2h.05q-.4 1.75-2.15 2.1Q-15.7 1.7-16.6.1q-.65-1.15.45-2.1.6-.5.9-.3" fill="#ffab0e" transform="translate(17.75 6.9)"/><path d="m-16.1-2 .15.2q.2.1-.05 1.1l.2 1q-.3.8-1-1.1.1-.95.7-1.2m1.15 3.5-.35-.2q-.05-.45.55-.55.55-.1.8.2.45.55-1 .55" fill="#ffefd9" transform="translate(17.75 6.9)"/><path d="M20.25-3.25q1.75 1.2.45 4.2-.65 1.7-2.15 3.35-1.25 1.4-2.6 1.75-1.65.45-1.85-1.7l.1-1.1.8-3.9q0-2.75 1.05-2.95 2.65-.65 4.2.35" fill="#4f1212" transform="translate(17.75 6.9)"/><path d="M9.95-1.05q-.65-.8.4-2.7l1.5-2.85q1.2-.95 3.35 1.35.95 1.15 1.15 3.05Q16.6 0 15.2.35q-3.55.9-5.25-1.4" fill="#9c001c" transform="translate(17.75 6.9)"/><path d="m14.55 4.1-2.7 1.55-1.75-.15q-1.05-.35-1.15-1.8l-.1-1.45-.8-1q-.35-1.05 2-1.6 3.25-.65 4.5.4 2.45 2 .65 4.05h-.65" fill="#801919" transform="translate(17.75 6.9)"/><path d="M16.6 5.25q-1.35 1-2.7.3-.75-.35-.75-1L13.3 4l.05-.25-.15-1.2q.2-1.2 2.2-1.3Q18 1 17.95 2.75q-.1 1.55-1.35 2.5" fill="#801919" transform="translate(17.75 6.9)"/><path d="M19.4-2.95q1.2.3.6 3.5Q19.5 3 17.15 4.4q-2.1 1.35-2.85-.1-1.15-2.1-1.1-3.4.1-1.95 2.25-3.15 2-1.15 3.95-.7" fill="#ff003b" transform="translate(17.75 6.9)"/><path d="M15.5 5q-1.3 0-1.4-1.05-.05-.5.35-.85l.85-.65q1.15-.85 1.5-2.85 1.3.75 1.9 2.05.65 1.55-.75 2.35-1.65.95-2.45 1" fill="#d40031" transform="translate(17.75 6.9)"/><path d="M16.2-1.45h.25q1.05.85 1.15 1.3.3 1.35-.2 2.15l-1.25 1.5-1.65.2q.25-.25 1.1-.75Q17 2.1 16.85.05l-.65-1.5" fill="#a8001f" transform="translate(17.75 6.9)"/><path d="M16.8-.65q.8 1.3.15 2.65-.65 1.3-2 1.8l-2.6-.2Q10.1 2.35 11.3-.6q1.05-2.6 3.3-1.75 1.45.55 2.2 1.7" fill="#ff003b" transform="translate(17.75 6.9)"/><path d="m16 3-.1.05q-.35.75-1 .9l-1.3-.1q-.1-1.85 1.5-2.6.8-.4 1 .35.2.65-.1 1.4" fill="#d40031" transform="translate(17.75 6.9)"/><path d="M6.5-3.45q.9-.6 2.45 0 1.35.5 2.15 1.4 1 1 .9 3.1-.15 2.15-1.6 2.65-1.75.6-3.4-.3Q5.25 2.45 5.3.65q0-3.2 1.2-4.1" fill="#a6001e" transform="translate(17.75 6.9)"/><path d="M5.45-.35q.1-1.4.75-2.1l2.2.1q2.45.85 2.15 2.95-.2 1.75-.6 2-.9.6-3.2-.4-1.45-.7-1.3-2.55" fill="#d60032" transform="translate(17.75 6.9)"/><path d="m10.15-2.75.2.45-.5 2.2q0 .75.55 2.2l.05 2.45q-2.5.5-1.8-4.6.45-2.3 1.5-2.7M15.9.3 15.65 2q-.25 1.05-.7 1.45l-1.3 1.1q-.7.4-2.2.4l-.05-.25.6-.8 1.75-1.65q1.8-2 2.15-1.95" fill="#9c001c" transform="translate(17.75 6.9)"/><path d="M11.15-3.9q.7-1.55 1.15-1.8.6-.35 1.6.45Q15.6-3.6 15.7-.9q.1 2.7-1.5 4.45Q12.95 5 10.9 4.8q-1.25-.1-1.35-1.5l.1-2.45q0-1.65 1.5-4.75" fill="#ff003b" transform="translate(17.75 6.9)"/><path d="M15.9-3q1.6 3.3-.65 4.8l.5-2.3-.35-2.75.5.25" fill="#9c001c" transform="translate(17.75 6.9)"/><path d="M12.2-3.05q-1.3 1.6-1.7 2.7L9.6 1.8q-.1-3.1 1.1-5.2.95-1.75 1.4-2l1.4.05q.75.4.05 1.1l-1.35 1.2" fill="#ff7092" transform="translate(17.75 6.9)"/><path d="m16.65-1.8-.1.05q-.6-.2-.2-.9l.95-.25 2.3-.05q.65.25.6.75 0 .45-.65.65-1.3.35-2.9-.25" fill="#ff6186" transform="translate(17.75 6.9)"/><path d="M7.8-3.05Q8.9-3.2 9.2-1.9q.1.3-.5 2.05-2.65.15-3-.65-.35-.8-.05-1.55.35-.75 1.25-.7l.9-.3" fill="#ff003b" transform="translate(17.75 6.9)"/><path d="m11.5-3.05-.7.45q-.2-1.1.45-1.95.65-.85 1.8-.8.25.05-1.05 1.45l-.5.85" fill="#ffd6df" transform="translate(17.75 6.9)"/><path d="M16.4-2q-.7-1.15 2.95-.8l-1.4.85L16.4-2" fill="#ffb0c2" transform="translate(17.75 6.9)"/><path d="M15.2-.85q.35.3.35 1.25-.3 2.45-1.05 3.1l-.05.05q-1.45 1.3-3.8.9-.1-.4 1.2-1.45 1.4-1.05 1.65-1.8l.2-1.35q.45-1.65 1.5-.7" fill="#e00034" transform="translate(17.75 6.9)"/></g><use height="19.05" width="16.75" xlink:href="#g" id="b"/><use height="27.9" width="13.95" xlink:href="#h" id="c"/><linearGradient gradientTransform="matrix(.0074 0 0 .006 -.35 -.45)" gradientUnits="userSpaceOnUse" id="f" spreadMethod="pad" x1="-819.2" x2="819.2"><stop offset="0" stop-color="#f90"/><stop offset=".475" stop-color="#ff3"/><stop offset="1" stop-color="#f90"/></linearGradient></defs></svg>