<svg xmlns="http://www.w3.org/2000/svg" xmlns:xlink="http://www.w3.org/1999/xlink" width="100.7" height="92.9"><use xlink:href="#a" width="57.5" height="32.3" transform="translate(9.4 44.95)"/><defs><g id="a"><path fill="#0a0a0a" fill-rule="evenodd" d="M56.45 7.2q2.15 2.85-.05 5.85-2.7 1.65-4.75-1.25.35 3.45-2.05 5.15l-1.6.25q-1.25-2.2-2.35-4.7-2.25-5-1.5-6.3l2.25-.25q2.45.15 3.65 2.1l.3-1.85q.8-1.75 3.45-1.25l2.65 2.25"/><path fill="#0a0a0a" fill-rule="evenodd" d="M49.05 16.85 48 17.2q-1.5-.3-2.85-1.85-2.75-3-2-8.9l1-.25 4.9 10.65"/><path fill="#ff00a6" fill-rule="evenodd" d="M51.45 10.45q-1.8-3.3.5-4.5 2.3-1.05 4.1 2.15 1.75 3.3-.55 4.45-2.3 1.2-4.05-2.1"/><path fill="#ff75bf" fill-rule="evenodd" d="M53.45 10.3q-.55-1.9.75-2.35 1.5-.4 2 1.3.75 2.45-.9 2.9-1.2.35-1.85-1.85"/><path fill="#fff" fill-rule="evenodd" d="M54.7 10.65q-.25-1.15.4-1.25.55-.2.85 1 .2 1.2-.4 1.3-.6.1-.85-1.05"/><path fill="#de0090" fill-rule="evenodd" d="M53.7 6.2q.7.1.8.75-.95-.4-1.85.5l-.7 1q-.05 2.45 1.85 3.85-1.6-.5-2.3-2.5l-.35-1.95Q51.1 6.5 52.4 6.2h1.3"/><path fill="#6a646b" fill-rule="evenodd" d="M52.2 12.4q-1.85-1.7-1.7-4.25 2.75 1.15 1.7 4.25"/><path fill="#3e393f" fill-rule="evenodd" d="m51.65 10.7-1.3.4q.2-.35-.55-1.1l1.4-.4q.45.5.45 1.1"/><path fill="#3e393f" fill-rule="evenodd" d="M50.5 8.15q3.7 1.05 1.7 4.2.65-3-1.7-4.2"/><path fill="#211823" fill-rule="evenodd" d="m50.4 10.7-.35-.75 1.15-.25.3.7h-.15l-.25-.05-.45.05-.25.3"/><path fill="#ff00a6" fill-rule="evenodd" d="M48.05 16.9q-3-2.05-4-6.35l-.4-3.9q3.95-.45 6 1.75 1 1.15 1.2 2.35 1.05 4.65-2.8 6.15"/><path fill="#de0090" fill-rule="evenodd" d="m46.05 10.4-.25-.95q-.15-.75.4.25.95 1.8 2.2-.9h.15q1.1 0 2.15 3.15.05 3.45-2.2 3.9-1.6-1.55-2.2-3.65l-.25-1.8"/><path fill="#6a646b" fill-rule="evenodd" d="m43.65 6.65 1.3-.1q-1.4 5.85 3.85 9.95l-.75.4q-3.8-1.55-4.45-6.05l.05-4.2"/><path fill="#3e393f" fill-rule="evenodd" d="M48.2 16.05q-4.55-3.8-3.3-9.45l.55 4q.9 3.75 2.75 5.45"/><path fill="#9a959b" fill-rule="evenodd" d="m48.6 16.45-.55.45q-2.15-.85-3.45-3.1l-.9-2.05q.55.6 1.1-1.75.25 4 3.8 6.45"/><path fill="#dfdae0" fill-rule="evenodd" d="m48.4 16.45-.5.35q-2.2-1-3.55-3.55l-.85-2.4L44.65 9q-.25 3.95 3.75 7.45"/><path fill="#484149" fill-rule="evenodd" d="M45.5 12.45q1.05 2.6 3.1 4l-.55.45q-1.6-.6-2.6-1.75l-.65-1.05.7-1.65"/><path fill="#fff" fill-rule="evenodd" d="M45.3 7.3q.1-.45 1.25-.25 1.25.1 1.15.55-.1.4-1.25.3-1.15-.2-1.15-.6"/><path fill-rule="evenodd" d="M43.1 7.05q0-.5.65-.5 1.75 0 4.15 4.4 1.55 2.9 1.55 4.85 0 1.3-1.15 1.3t-1.75-.65L45.3 15.1q-.6-.5-1.65-2.5-.6-1.05-.5-2.8l-.05-2.75"/><path fill="#0a0a0a" fill-rule="evenodd" d="M13.35 6.2q1.15 2.1-3.9 11l-1.55-.25q-2.45-1.7-2.05-5.15-2.1 2.9-4.75 1.25-2.2-3-.05-5.85 1.1-1.4 2.6-2.25 4.25-.8 3.75 3.1Q9.35 4.9 13.35 6.2"/><path fill="#0a0a0a" fill-rule="evenodd" d="m8.45 16.85 4.9-10.65 1 .25q.75 5.9-2 8.9Q11 16.9 9.45 17.2l-1-.35"/><path fill="#ff00a6" fill-rule="evenodd" d="M6.05 10.45q-1.8 3.25-4.1 2.1-2.3-1.2-.5-4.45Q3.2 4.85 5.5 5.95q2.3 1.15.55 4.5"/><path fill="#ff75bf" fill-rule="evenodd" d="M4 10.3q-.65 2.2-1.85 1.85-1.6-.45-.9-2.9.5-1.7 2-1.3 1.3.45.75 2.35"/><path fill="#fff" fill-rule="evenodd" d="M2.75 10.65Q2.6 11.8 1.9 11.7q-.6-.1-.35-1.3.3-1.15.85-1 .6.1.35 1.25"/><path fill="#de0090" fill-rule="evenodd" d="M3.8 6.2q2.6-.5 2.55 1.65-.15 3.65-2.7 4.45 1.9-1.4 1.9-3.85-1-2.15-2.6-1.5.15-.65.85-.75"/><path fill="#6a646b" fill-rule="evenodd" d="M5.25 12.4Q4.2 9.3 6.95 8.15q.15 2.55-1.7 4.25"/><path fill="#3e393f" fill-rule="evenodd" d="M5.85 10.7q0-.6.4-1.1l1.45.4-.55 1.1-1.3-.4"/><path fill="#3e393f" fill-rule="evenodd" d="M7 8.15q-2.4 1.2-1.7 4.2-2-3.15 1.7-4.2"/><path fill="#211823" fill-rule="evenodd" d="m7.1 10.7-.3-.3-.4-.05-.3.05h-.15l.35-.7 1.15.25-.35.75"/><path fill="#ff00a6" fill-rule="evenodd" d="M9.45 16.9q-3.9-1.5-2.8-6.15.2-1.2 1.2-2.35 2-2.2 6-1.75.4 7-4.4 10.25"/><path fill="#de0090" fill-rule="evenodd" d="M11.4 10.4q.15 3-2.45 5.45-2.25-.45-2.15-3.9l.65-1.55q.8-1.6 1.45-1.6h.25q1.2 2.7 2.15.9.85-1.6.1.7"/><path fill="#6a646b" fill-rule="evenodd" d="M13.85 6.65q.4 1.95.05 4.2-.65 4.5-4.45 6.05l-.75-.4q5.25-4.1 3.8-9.95l1.35.1"/><path fill="#3e393f" fill-rule="evenodd" d="M9.55 15.85q2.85-2.75 3-9.25 1.3 5.5-3 9.25"/><path fill="#9a959b" fill-rule="evenodd" d="M8.9 16.45Q12.45 14 12.7 10q.5 2.35 1.05 1.75-.9 3.75-4.3 5.15l-.55-.45"/><path fill="#dfdae0" fill-rule="evenodd" d="M9.1 16.45q3.95-3.5 3.7-7.45l1.15 1.85q-.8 4.35-4.4 5.95l-.45-.35"/><path fill="#484149" fill-rule="evenodd" d="m11.95 12.45.7 1.65q-.6 1.8-3.2 2.8l-.55-.45q2.05-1.4 3.05-4m.75-5.85 1 .15.2 1.65q-.2-1.05-1.2-.9v-.9"/><path fill="#1d2b4a" fill-rule="evenodd" d="M44.95 24.5q5-8.45 2.05-15.4Q43.35.65 29.05.65q-14.3 0-17.9 8.45-3.2 7.45 2.85 16.65l.05.1q5.5 4.05 15.1 4.05 8.9 0 14.15-3.45l.2-.15.6-.45.85-1.35m3.9-11.55q.25 6.5-3.45 12.95-6.8 4.6-16.35 4.6T12.8 25.9q-3.7-6.45-3.55-12.95Q9.55 0 29 0t19.85 12.95"/><path fill="#0074cc" fill-opacity=".2" fill-rule="evenodd" d="m44.95 24.5-.6-1.2q-.3-1.65-3.45-9.3-1.85-4.4-3.8-6.35-2.8-2.75-7.5-2.75l-2.75.05Q18.9 6.8 16.05 13.9l-1.9 4.95-.2 5.05q-.1.8.3 1.15l-.25.7q-6.05-9.2-2.85-16.65Q14.75.65 29.05.65 43.35.65 47 9.1q2.95 6.95-2.05 15.4"/><path fill="#fff" fill-rule="evenodd" d="M12.15 7.3q.1.4-1.1.6Q9.8 8 9.8 7.6q-.1-.45 1.1-.55 1.25-.2 1.25.25"/><path fill="#484149" fill-rule="evenodd" d="M44.75 6.6v.9q-.6-.1-.95.4l-.2.5.15-1.65 1-.15"/><path fill="#79c4f2" fill-rule="evenodd" d="M16.35 26.95 14 25.7q-5.7-9.3-2.85-16.35 1.4-3.5 3.95-5.2-4.1 7.8-1.85 16.1 1.15 4.15 3.1 6.7m19.4-24.5q-2.85-1-2.35-1 14 .65 14.45 12.5.2 5.9-2.25 11.4l-4.2 1.6q8.4-13.1.35-20.7-2.35-2.25-6-3.8"/><path fill="#680551" fill-rule="evenodd" d="M37.05 7q1.25.95 2.5 2.6 4 5.35 6.1 15.95l-4 1.25h-.6q1.6-2.45 1.25-2.75l-4.05-.15q-2.3.8-.15-2 1.05-.95 1.3-2.75.45-3.65-3.7-8-5.35-2.55-14 .25-1.6 1.6-2.65 3.8-2 4.4.95 7.6 2 1.4-.8 1l-2.6-.25q-2.4.15-1.35 2l.5 1.2-2.35-.95q-.1-3.6.8-7.7Q16 9.9 20.95 7.35l1.1-.85q1.4-1 3.05-1.55Q30.35 3.2 36 6.4l1.05.6"/><path fill="#680551" fill-rule="evenodd" d="M18.35 9.15 20.6 7.3q2.65-1.95 4.5-2.4l-6.75 4.25"/><path fill="#ff4fb1" fill-rule="evenodd" d="M39.75 10.9h-.15l.9 1.45.95 1.5q2.35 4.4 3.7 11.7l-3.3.85 1.1-1.95-.3-1.05-2.8-.15-2.15.15.25-.3q3.15-2.65 2.05-6.45-1.9-3.85-4.1-5.95-7.95-2.9-14.35.35-1.75 1.55-3.25 4.05-2.35 4.8 1.45 8 1.35.7-1.9.15-1.95-.3-2.8.35-1.1.8.45 2.8l-1.45-.85-.05.1v-.1q-.05-7.3 2.25-11.7.95-1.75 1.7-2.1l2.1-3.45 1.15-.75.05-.05 1.25-.85q1.65-.9 3.4-1.35Q31.65 3.85 37 7.6l2.35 2.9.4.4"/><path fill="#fd02a1" fill-rule="evenodd" d="M25.8 5.65Q18.25 9.6 17.1 16.7q-.6 3.55.35 6.3-4.25.05-2.5 2.6l-.85-.6.1-1.75q.4-10.05 6.05-14.8 2.8-2.4 5.55-2.8M44.7 25q.05.3-2.25 1 3.1-2.1-.15-3.6l-3.35.75q3.95-2.6 3.5-5.3L44.7 25"/><path fill="#5b167f" fill-rule="evenodd" d="m31.7 13.5-4.85.15-.4-.2-3.15-.05-.25-.4-.45.15q-1.75.75-2.55-.65.2-1.35 1.35-2.8 2.3-2.9 7.2-3.35 5.9-.35 8.9 5.85-1.05.75-1.9.75l-.7-.1q-1 .75-2 .65-.45-.4-.7-.35l-.5.35"/><path fill="#dea2f2" fill-rule="evenodd" d="m31.6 13.1-4.55.15.35-4.15-1.1 4.15-2.7-.15.7-3.1-1.7 2.7q-.65.75-2-.25v-.25q1.4-4.95 8.2-5.45 5.75-.15 8.3 5.35l-1.5.6Q34.2 9.6 33.5 9l1.15 3.6-1.9.5q-.8-3.1-1.5-3.65.6 3.15.35 3.65"/><path fill="#fff" fill-rule="evenodd" d="M31.45 8.45Q31 11 29.1 9q-1.25 2.35-3.1 0-2.75.95-1.3-1.05l-.15.8q.1.65 1.45-.4 1.3 2.8 2.7-.5 1.9 3.3 2.25-.15 2 1.65 1.05-.25 1.7 2.05-.55 1"/><path fill="#0a0a0a" fill-rule="evenodd" d="M13.2 28.25q-1.9-.45-1.85-2l1.1-1.2.45-.1.3 3.3m32.05.15.3-3.3.45.05q.75.15 1.1 1.2.05 1.55-1.85 2.05"/><path fill="#0a0a0a" fill-rule="evenodd" d="m46.6 26.55-1 1.3q-12.45 6-23.7 3.8-5.65-1.15-8.8-3.45l-1.5-1.65q12.7 7.2 25.15 4.3 6.2-1.4 9.85-4.3"/><path fill="#0a0a0a" fill-rule="evenodd" d="m45.6 25.05.75.6Q33.2 32.8 21.3 29.85 15.35 28.4 12 25.5l.6-.6q12.2 6.6 23.8 4.05 5.85-1.3 9.2-3.9"/><path fill="none" stroke="#fff" stroke-linecap="round" stroke-linejoin="round" stroke-width="2" d="M12.85 26.35q3.15 2.6 8.75 3.9 11.3 2.6 23.85-3.75"/><path fill="#dbc3d7" fill-rule="evenodd" d="M26.65 31.75q-10.1-.75-14.45-4.8-.55-.95.2-1.2l.8-.1q7.5 4.4 15.4 4.6l2.9-.05-2.4.65-2.45.9m15.7-4.3q.9-.1 3-1.7 1.2.15.5 1.4L41 29.7q.8-.75 1.35-2.25"/><path fill="#c197bc" fill-rule="evenodd" d="M13.3 25.9q3.85 2.6 9.35 3.9l-2.65.1-2.3.3-.25-.05-5.25-3.2q-.4-1 .3-1.1l.8.05"/><path fill="#8e578a" fill-rule="evenodd" d="m14.95 26.65.35 1.2-.85.1.5.4-2.75-1.4q-.55-.55.2-.95l.8-.35 1.75 1m29.35-.4 1.25-.35q.65.25.3 1.25l-2.05 1.4q.65-.65.5-2.3"/><path fill="#e5e4f2" fill-rule="evenodd" d="M31.7 30.55q-3.15 1-2.5 1.25l-2.55-.05 2.95-1q3.3-1.05 5.35-1.2l-3.25 1"/><path fill="#6d1c51" fill-rule="evenodd" d="M46.55 25.35q-6.7 4.95-17.5 4.9-10.05-.1-16.85-4.5l.75-.65q3.4 2.65 9.2 3.9 11.6 2.5 23.8-4.3l.6.65"/><path fill="#6d356c" fill-rule="evenodd" d="M45.05 28.7q-3.85 2.1-9.8 3.1-12 1.95-22.75-3.6l-.4-1.05q3.45 2.35 9.45 3.55 12 2.4 24.7-3.5l-1.2 1.5"/><path fill="#fff" fill-rule="evenodd" d="M18.8 4q2.7-1.8 5.05-2.15-5.8 2.05-8.75 8-1.5 3-1.8 5.6l-2-.2Q13.3 7.7 18.8 4m-5.65 12.15q-.45.6.2 2.1l-2.05-.05.05-2.1 1.8.05"/><path fill="#fd02a1" fill-rule="evenodd" d="m42.85 23.65 1-2.95.75 2.3.45 2.35-.85.4-2.35.65.95-1.65.05-1.1"/></g></defs></svg>