<svg xmlns="http://www.w3.org/2000/svg" xmlns:xlink="http://www.w3.org/1999/xlink" width="100.7" height="92.9"><use xlink:href="#a" width="36.1" height="19.95" transform="translate(20.2 47.75)"/><defs><use xlink:href="#b" id="a" width="36.1" height="19.95"/><g id="b" fill-rule="evenodd"><path fill="#260000" d="m19.25.95 3.2-.7-.1 1q-.05 1 .5.95l4.6-.25-.3.8q-.2.9.1 1.35 1 1.4 5 2.6-1.25.8 0 2.35 1.1 1.4 2.75 2.05l-2.9.85 4 2.9q-1.75.75-3.1.4.3 1.15 3.1 4.05l-1.9-.6-2 .15-.65.35-.3-2.2-.8-3q-.15-1.05-.95-.3l-.8.9q-1-1.65-1.25-3.25-1 2.9-2 3.15-.7-3.3-2-4.3-1.05.9-2.25 2.8l-1 1.75-1.35-4.05-1.4 3.75q-.45-2.75-1.6-4.35l-3.25 4.1-1.75-4.25-1.4 6.3-2.2-3.3L6.9 15q-.05 2.25 1.3 3.1l-2.75-.5-1.95 1.45-1.7.9 1.9-3.5-3.7-1.2q2.35-.9 4.5-3.9L1.35 10.2q2.6-.1 5.85-4.25.8-1.1 1.05-3.5l3.9.1q1.25-.5 3.2-2.55l1.2.55q1.45.55 2.7.4"/><path fill="#793a00" d="m26.65 2.55-.15.8q0 .6.3 1.05.7 1.1 4.5 2.55l-.2.75v.15q.15 1.55 2.45 3.1l-2.5.7.6.65 2.95 2.3-2.2.1 2.05 3.5q-2.05-.5-2.55.35l-.1-1.85q-.45 0-.8-2.75-.1-.85-.8-1.1-.6-.1-1.4.7-1.1-2.25-1.3-3.8l-.6 1.4-1.15 2.35q-.75-2.85-2-3.75l-.35-.3-.35.3q-1.35 1.2-2.75 3.6L18.9 9l-1.35 3.5q-.5-1.7-1.25-2.75l-.45-.55-3.1 3.9-2-4.85-.45 1.55-1.25 4.85-1.95-3-.4 1.1-.35 2.5q0 1.15.45 2.1l-1.95.25-1.95 1.15 1.35-2.25.05-.4-.4-.2-2.4-.8q1.9-1.25 3.45-3.4l.45-.6-2.3-.85q2.35-1.1 4.55-3.95.7-.9 1.1-3.25 2.4.4 3.6.05 1.2-.5 3.1-2.4 2.05 1.05 3.9.8L21.8 1l-.05.2q0 .85.35 1.2.3.35.75.35l3.8-.2"/><path fill="#955b30" d="m13.25 6.45-.65 4.85-2.8-5.8-1.15 7.15-1.75-1.7-.75 2.45q-.6 2.6.1 3.4l-.9-.1-1.1.7q.95-2.6.7-2.75l-2.95.3 2.5-1.5q.75-.9 1.5-2.75l-2.55-.5 1.4-.5Q6.4 9 7.2 8q1.3-1.55 2.2-4.3l3.55.05L15.5 1.5l-1.05 2.7 3.05 6.5-2.05-2.4q-2.05-2.35-2.2-1.85m13.05-3.7-.65.35q-.7.45-.7.9t2.25 1.6l2.25 1-2.6-.75.75 1q1.1 1.1 2.55 1.7-.65.3-2.9-.9l-2.1-1.25.55 6.1-1.15-3.05-1.25-2.3-2.95 5.2q1-3.8-1.7-8.35l3.1 1.1q-1.45-2.45-3.1-2.95.95-.1 2.75-1l-.4.8q-.3.85.25 1l5.05-.2"/><path fill="#955b30" d="m16 3.5 1.75.4-.8 3.5q-.6-.95-.85-2.5L16 3.5m.2-1.7 1.75.05L19.9 3.8l-3.7-2m14.2 9.35 4.2 3.45q-1.75-.4-3.15-1.35l-1.1-.85.05-1.25m-1.05-1.2-.55 3.6-1.4-4.5 1.95.9m1.9-.85 2.3 1.85q-1.05-.05-2.35-.75l-1.1-.75 1.15-.35m.5 5.55.65 1.4q.8 1.45 1.4 1.75-1.25-.25-1.75-1.7l-.3-1.45"/><path fill="#c78149" d="m8.3 8.9.05 3-.75-1.75-3.55-.05L7.5 7.5l-.7 2.1 1.5-.7M2 14.95l3.2-2.65-.75 1.7-2.45.95M9.3 3.5l3.65.25-1.75.9L9.3 3.5m6.7 0 .75 1.05.2 2.85q-.7-.7-.9-2.35L16 3.5m4.35 8.5q.5-2.7.15-4.45.95.8 1.25 2.45l-1.4 2m3.15-4.75 2.05 1.35.15 3.5-2.2-4.85m4.05 3.05.95.55.3 2.7-1.25-3.25m-5-7.3 3.75-.25-2.3 1.4-3-1.3 1.55.15m-3.7-1 2.55-.85Q21 2 20.95 2.4l-2.1-.4m0 1.4q-2.05-.5-2.75-1.9l2.2.9.55 1m-7 4.85 1.1-1.65-.35 4.7-2.4-5.45 1.65 2.4m9.1-2.55 1.25.4.25 2-1.5-2.4M14 4.2l.5 1.8q.65 1.95 1.35 2.75l-2.1-2.3L14 4.2"/><path fill="#955b30" d="m18.2 6.95 1.5.8-.35 2.95-1.15-3.75"/><path fill="#c78149" d="m30.15 8.55-2.3-.8-.55-.5q-.5-.6-.2-1.05l3.05 2.35"/></g></defs></svg>