<svg xmlns="http://www.w3.org/2000/svg" xmlns:xlink="http://www.w3.org/1999/xlink" width="100.7" height="92.9"><use xlink:href="#a" width="47.7" height="38.6" transform="translate(9.95 33.35)"/><defs><g id="a" fill-rule="evenodd"><path fill="#0d090e" d="M24.75 14.9q1.1-.45 3.35.75l1.8-.6q1.6-.6 2.45-.5 1.5.2 3.55 2.25 2.95.8 3.6 1.55l.8 1.8q.35 1.2 1.25 1.8.75.55 1.65 2.9l1.35 1.2q.8.6 1.2 1.5.35.8.4 2.15.1 1.1.4 1.35 1.55 1.35 1.05 3.35l-1.15 3.05q0 .65-.9.65-1 0-2.75-2.2l-1.05-2.15q-.85-1.6.25-2.4-2.35-2.75-1.45-4.1l-1.75-1.7q-.9-.85-.85-1.55.1-1.1-.95-2.65-.8-1.2-2.95-1.05-2.05.2-3.15 1.3l-4 .1q-2.6-2.05-5.75-.65-1.1.5-1.85 2.1-.65 1.4-.5 1.8.6 1.25-.9 2.4.6 2.3-2.05 4.85.65 1.2-.35 2.75.1 1.05-2.15 2.55-2.25 1.55-2.9.9-1-1-.05-3.55l1.25-4.25-.05-1.5q-.1-1.2.3-1.7l1.9-2.9q.25-.4.1-1.65-.15-1.15.2-1.5.3-.35 1.35-.55 1.15-.15 1.7-.6.55-.4 1.05-1.7.45-1.2.9-1.45l3.15-.2q.65-.25 2.5-1.95"/><path fill="#fff" d="M25.1 15.7q.45-.15 1.8.45l1.2.35 1.4-.4 2.75-.7q.5.05 1.85 1.15l1.55 1.05.6.15q2.1.6 2.65 1.2l.5 1.1q.45 1.75 1.65 2.6l.65 1.1.85 1.6 1.3 1.25q.75.55 1.1 1.3.3.65.4 1.85 0 1.4.65 1.95.85.7.85 1.75l-.1.75-.65 1.65q0 1.15-.5 1.6-.35.35-1.9-1.1-1.6-1.45-1.3-1.9.35-.6.1-1.05-.5-1 .05-1.35l.7-.55-.6-.7q-1.95-2.25-1.4-3.05l.4-.55-1.75-1.75q-1.15-.95-1.1-1.35.1-1.5-1.1-3.25-.75-1.15-2.6-1.4-3-.25-4.8 1.55l-2.9.05q-2.95-2.45-6.6-.8-1.35.65-2.25 2.55-.85 1.75-.5 2.5.3.65-.65 1.4l-.5.35.15.55q.55 1.8-1.8 3.95l-.45.45.3.6q.25.4-.2 1.35-.45.9-.15 1.5-3.4 3.1-3.95 2.6-.8-.65.1-2.95l1.05-3.6.25-.8q.15-.45-.05-1.4-.25-1.05-.1-1.25l2.45-3.1q.5-.7.25-2.15l-.05-.9.85-.25q1.4-.25 2.1-.75.8-.65 1.35-2.15l.5-.95 1.4-.05 1.7-.1 1.15-.9 1.35-1.05"/><path fill="#c0bbbd" d="M39.15 21.3q.25.8 2.15 2.45l.55 1.65 1.1 1.55q.95.65 1.4 1.65l1.1 3.2q.7.6.35 2.3l-.7 1.75-.1 1.05q-1.8-.65-2.4-2.55l2.7-2q-1-1.1-2.15-.7l.25-.15-.55-.7q-2-2.3-1.45-3.05l.45-.55-1.75-1.75q-1.2-1-1.15-1.35.1-1.4-1.05-3.25-.75-1.05-2.35-1.3-.25-.9-.95-1.55-1.1 1-1.55.8Q32.2 17 31.6 17l2.25-.05 1.7 1.55 3 .85.6 1.95"/><path fill="#dedee3" d="m43.05 35.5-.25-1.65 3.25-.7-2.2 1.2.15.45q.4.55 1.35 1-1.9.5-2.3-.3m-1.5-6.45 1.05.95q1.25.95 2.05.9l-2.3 1.85.75-1.35-1.55-2.35m-3.45-7.8q1 2.25 2.6 2.55-.5 1.15 3.4 4.55-1.05-.7-2.05-.55l-.75.3q.05-1.05-1.2-2.45l-1.4-1.35q.15-1.25-.6-3.05M16.85 29.3q-.15.85-2.05 2.7l.1 1.3q-.35-.65-2.5-.9 2.9-.8 4.45-3.1m1.25-3.5-1.2 1.25.05 1.15q-.3-.9-2.65-.65 1.65-.45 3.8-1.75m.7-3.55q-.7.85-.8 1.9l.05.85q-.7-.9-2.4-.9 1.05-.15 2.05-1.6.9-1.35.65-1.7l2.2-.45-1.75 1.9m18.55-1.95q-2.85-1.2-4.9-.55-1.6.95-3.25 1.85 1.5-3 .1-4.95.85.45 1.55 1.6.55.85.85.75.7-.25.35-2.4l.4.85q.55.9 1 .85.75-.05 1-.95l.7 1.2 2.55-.25q-1.7.9-.35 2m-11.2-.15-4.55-.25q1-.3-.3-1.9l2.85 1.3q1.8 0 .25-2.05 1.3.75 1.75 2.9"/><path fill="#0d090e" d="M31.5 6.45q-.75-.15-1.45 2.3l-.55 2.5Q25.95 9.7 25.25 8.6q-.6-.95-.15-3.1.55-2.25 1.95-2.4 2.1-.25 4.45 3.35"/><path fill="#e64727" d="M30.45 6.6Q29.1 8.5 28.8 9.95 26.5 8.8 26.05 8.1l-.2-.95q0-1.45.45-2.35.45-.75.85-.8 1.15-.15 3.3 2.6"/><path fill="#f2b65b" d="m30.45 6.65-.55.05-1.85-.85q.2.2.3 1 .15.85 0 .9Q27.45 8 26 5.7q.15-1.15.95-1.7 1.45-.25 3.5 2.65"/><path fill="#ffffdc" d="M26.6 4.55q0-.5.55-.5.6 0 .6.5t-.55.5q-.6 0-.6-.5m.05 1.25q0-.45.5-.45.45 0 .45.4t-.45.4q-.5.1-.5-.35"/><path fill="#0d090e" d="M24.75 3.7q5.65 5.15 11.6 12.05 3.25-.3 6.75 2.35 4.15 3.15-.45 6.9-3.8-2.1-8.9-2.5-6.15-.45-11 2.1-4.6 2.45-7.65 6.05-2.6 3.05-2.7 5.05l-3.3-.45q-2.95-1.1-1.5-4.4 2.3-5.25 5.5-7.15-.5-4.1-.25-6 1.15-3.75.65-4.75L7.35 6.5l-3.55.4Q.65 7.6.15 6.85-.45 5.9 1.75 4q2-1.65 4.35-2.65Q8.05.55 11.8.2q3.55-.35 4.95 0 5.55 1.25 8 3.5"/><path fill="#825540" d="M44.15 21.2q0 1.3-1.65 2.8-4.05-2.05-9.35-2.25-5.8-.15-10.8 2.1-3.7 1.7-7 5.35-3.05 3.3-3.65 5.65-2.75-.1-3.5-1.25l-.25-.85.4-1.55q2.2-4.9 5.15-6.8l.5-.3-.1-.55-.3-4.5.05-1.25.45-1.95.4-2.2q0-.65-.25-1.1-.5-1-5.55-5.9l-.75-.75q-.75-.75-3.85.05L.9 6.4q-.1-.55 1.65-1.9 1.8-1.45 3.85-2.35 1.85-.8 5.5-1.15 3.35-.3 4.65 0 5.4 1.35 7.65 3.3 6.35 5.95 11.5 12l.25.35.45-.05q1.5-.15 4.05.95 2.9 1.25 3.55 2.9l.15.75"/><path fill="#0d090e" d="M28.9 16.05q5.15-.8 8.85-.2l1.75 1.25q-10.25-1.85-20 3.3-3.05 1.6-5.7 3.7l-2.05 1.8q-.6.35-.3-.85 7.15-7.3 17.45-9"/><path fill="#3a1917" d="M37.15 18.3q6.2.75 6.95 2.3.65 1.45-1.6 3.45-7.25-3.95-17.2-1.3-6.1 1.6-10.45 7l-3.15 5.1q-1.5-.35-2.3-1.45-1.05-1.4 7.35-7.9l3.35-3.05q2.15-1.9 3.85-2.6 5.95-2.45 13.2-1.55"/><path fill="#5d3021" d="M17.05 5.85q-1.6-.15-3.35 1.2-.55.4.4 2.1.8 1.5.55 1.5l-5-4.8 2.05-.65 4.7-.55q2.15-.05 5.95 1.45 3.15 1.25 4.3 2.15 2.1 1.6 7.05 7.3-7.6.35-14.6 3.7.15-.65 3.05-3.5L25.6 12q.55-1.1-3.25-3.6-3.6-2.4-5.3-2.55"/><path fill="#b87c62" d="M15.45 12.1q4.55.75 4.55 2 0 .3-1.25 2.5-1.3 2.3-1.55 3.65l-3.35 2.55q-.5-3.8-.15-5.4 1.4-5.35 1.75-5.3M.9 6.4Q.7 6 2.25 4.65 4.1 3 6.85 1.9q4.1-1.6 9.9-.8l6.4 2.45q-3.7-1.25-9.5-1.2L7.6 2.9 4.2 4.55Q1.9 5.9 3.15 6.05q-2.1.7-2.25.35m31.65 11q-6.5.7-11.75 3.15-4.65 2.15-8.45 6.1-3.35 3.55-3.5 5.4-.2 2.1.4 2.35-1.7-.55-1.25-2.25 2.3-7.65 12.5-12.3 6.9-3.15 13.4-3.25 5.65-.1 8.45 1.95-3.05-1.85-9.8-1.15"/><path fill="#0d090e" d="M46.55 8.45q-.5 3.25-2.35 5.2 2.1 2.2 1.75 4.45.7.55.6 1.8-.15 1.35-1.45 1.6-1.05.2-1.25-.65l-.05-.9q-.55.35-1.4-.2-.55-.3-.75-1.05l-.05-.65q-1.05.75-1.65.3-1.5-1.1-.2-2.4 1.8-1.7 1.9-2.45Q42.9 6.95 40 6.9l2.15-2.25q2.4-1.85 3.75.25 1.15.4.65 3.55"/><path fill="#e64727" d="M41.85 13.65v-.15l1.3.5q1.95 1.55 2.1 3.3l.15 1.5.25.85-.05.4q-.2.65-.7.6-.45-.05-.45-.85 0-.75.35-.95.4-.25-.5-.75l-.55.85-.9.05-.35-.85.15-1.95-1.55 1.1-.6.3q-.35-.25-.35-.5v-.05l.25-.45.3-.25q.9-.9 1.15-2.7m3.9-6.85q.05 1.35-.6 3.35-.7 2.2-1.7 3.05l-1.6.3-.05-.15.35-3.15q-.1-2.5-.45-2.95l-.55-.5q1.8-2.05 3.05-2.05l.95.7.2.2.2.15.2 1.05"/><path fill="#0d090e" d="m23.05 15.95 1-1.75q1.4-1.65 5-2.15l.9 2.35-.4.75q.6.2 1.15 1.5-.15 1.15-.95 1.35-.5.15-1.15-.4l-.55-.55q.05 1.15-1.15 1.4l-1.2-.1-.3-.3q-.3.7-1.05 1l-1.35-.1q-.8-.4-.7-1.2l.8-1.3-.05-.5"/><path fill="#e64727" d="m28.55 16.15-1.35-.2q.45.7.25 1.1l-.75.55q-.85.15-.95-.6l.3-.8q-.95.15-1.3.45.9 1-.7 1.55l-.75-.15q-.4-.25-.05-.85l.7-.5.8-1.95q.95-1.1 3.8-1.7l.4 1.15q-.2.25-1.15.7l1.95.9.15.75-.35.6q-.35.1-.75-.3-.45-.4-.25-.7"/><path fill="#f2a75b" d="m41.35 6.8 1.15-1.05q1.25-1 1.75-.7.85.45-.6 2.55-1 1.4-1.4 3.2-.1-3.55-.9-4"/><path fill="#0d090e" d="M31 15.45q-1.95-1.55-2.15-2.6L28.7 9.7l-.15-.55q.05-.75.75-1.8 1.1-1.6 3.5-.45l.5-.4q.7-.45 1.9-.5 1.85-.15 2.85 1.1l.75-.4 2.2.15q1.95.8 1.2 3.4.25.1.1 2.7-.1 1.85-2.6 3.2-2.3 1.3-4.45 1.15-2.05-.1-4.25-1.85"/><path fill="#e64727" d="m38 8.4.7-.65 1.95-.05q1.15.45.65 2.3l.1.65v2.25q-.05 1.4-2.25 2.5-2.05 1.1-3.85 1-1.75-.1-3.7-1.65-1.7-1.35-1.85-2.1l-.1-4.05.4-.75q.65-.95 2.35-.15l.7.25.45-.55 1.7-.5q1.35-.1 2.15.8l.6.7"/><path fill="#0d090e" d="M39.6 8.7q.5-.15.65.5-.3 1.4-1 1.25-.45-.05-.25-.85.15-.8.6-.9"/><path fill="#f2b65b" d="m38 8.4.7-.65 1.95-.05q1.15.45.65 2.3-.05-2-1.1-1.95-.5 0-1.95 1.85-1.5 2-2.25 2.25-1.25.45-3.6.7l-2.65-.2-.1-4.05.4-.75q.65-.95 2.35-.15l.7.25.45-.55 1.7-.5q1.35-.1 2.15.8l.6.7"/><path fill="#e64727" d="M32.8 10.95q-2.3.35-2.5-1.05-.2-1.65.9-1.75.95-.05 1.7 1.3t-.1 1.5"/><path fill="#0d090e" d="m31.6 8.85.65.85q.2.8-.25.9-.4.1-.75-.5-.3-.5-.25-.75.2-.6.6-.5"/><path fill="#ffffdc" d="M33.9 8.7q0-.65.7-.65.75-.1.75.6 0 .65-.7.65-.75 0-.75-.6m1.05 1.1q0-.4.45-.4.45-.1.45.35 0 .45-.45.45t-.45-.4m8.2-4.4q0-.5.55-.5.6 0 .6.5t-.55.5q-.6 0-.6-.5m-1.2 1.1q0-.35.35-.35.4 0 .4.3 0 .35-.35.35-.4 0-.4-.3M36.6 8.95q-.1-.45.45-.45.5 0 .5.45 0 .4-.5.4-.45 0-.45-.4M35.65 8q0-.35.45-.45.5 0 .5.45 0 .4-.5.4-.45 0-.45-.4m-5 4q-.2-.6.5-.8.7-.25.9.4.2.6-.5.8-.7.25-.9-.4m2.35-.3q-.1-.45.4-.6.45-.2.65.3.1.45-.4.6-.45.2-.65-.3"/><path fill="#f2b65b" d="M28.3 13.05q-1.85 1-2.5 1.8l-1.1 1.55-.75.6-.3.75.25.45q-.9.05-.75-.75l.7-.95.35-.95q.5-1 1.3-1.4 1.25-.65 2.8-1.1"/><path fill="#f2b65b" d="m26.05 16.05.45-1.25 2.15.4q.8.15 1.3.85l-.8-.1q-.65.3.4 1.2-1 .1-1-1 0-.25-1.45-.7l-.25.5.55.7q-.55-.25-.95 0-.75.5.5.9-.8.2-1.2-.55l.3-.95m17.6-1.6 1.35 1.9.3 2 .65 1.5q0 1.1-1.05.8 1-.9.3-1.6l-.55-1.4-.6 1q-.55.75-1.2.3l.75-.5q.2-.45-.2-.8l-.85-.45.9-.3q.3.05.5-.3v-.55l-.3-1.6"/><path fill="#0d090e" d="m40.7 16.15 1-1.7q0 .6.55 1.5l-1.55.2"/><path fill="#f2b65b" d="m41.55 16.15-.8.5-.25.95-.35-.5q-.2-.6.25-.9l1.15-.05"/></g></defs></svg>