<svg xmlns="http://www.w3.org/2000/svg" xmlns:xlink="http://www.w3.org/1999/xlink" width="100.7" height="92.9"><use xlink:href="#a" width="37" height="21.45" transform="translate(20.25 40.6)"/><defs><g id="a" fill-rule="evenodd"><path fill="#59492d" d="M29 14.85q4.6 3.1 4.35 5-.25 1.55-1.6 1.6l-2.8-4.1q-1.7-2.35-6.65-3.9-4.1-1.15-9.5.5-3.75 1.15-6.25 5.35l-1.5 1.95q-.25-2.55.95-5.1 2.45-5.1 9.75-5.1 7.6 0 13.25 3.8"/><path fill="#1c1308" d="M35.6 12.4q2.25 2.95.85 6.15-1.1 2.65-4.4 2.75l-.85-3.1 1.5-8.65 2.9 2.85"/><path fill="#382610" d="m9.55 6.65-.75 6.4-4.05 8.25Q-.6 20.6.1 16.05.75 11.6 5.2 8.7q2.25-1.45 4.35-2.05m25.9.55q.75 2.35.55 2.5l-2.95 2.95-5.2-3.6-.75-4.65.75-3.7Q29-.45 30.1.35q3.05 2.3 4.3 4.15l1.05 2.7"/><path fill="#382610" d="M25.15.2q2.3 1.2 4.6 7.85L27.7 12.6l-9.25-3.4-7.85 3.3-3.25-2.95 1.7-2.95q1.9-3.1 3-3.9 1.1-.75 3.4-.95l2.7-.1L21.1.45 25.15.2"/><path fill="#ebca75" d="M20.9 1.35Q23 .45 24.5.7q.95.15 2.85 4 1.7 3.5 2.8 7-5-2.35-11.7-1.7l-11.7 1.3 5.3-7.35Q13.5 2.3 18 2.3q.6 0 2.9-.95"/><path fill="#ffe194" d="M13 5.15q-1.25 1.7-1.4 5.05L9.25 8.3l1.25-2.1q1.4-2.2 2.25-2.75 1.35-.9 3.1-1-1.6 1-2.85 2.7"/><path fill="#fff" d="M11.55 5.2q-1.5 2-1.85 3.6l-.45-.6 2.15-3.65 1.9-1.6 1.5-.35q-1.75.65-3.25 2.6"/><path fill="#d9b36c" d="m26.55 2.85 1 1.7q.75 1.1.8 1.9.1 2.1-3.1 2.65-1.2.2-2.6-.45l-2.4-1.05-.5-.9 1.7-.45q1.55-.45 2.4-1.4Q25.5 3 25.4 1.35l1.15 1.5"/><path fill="#c4a262" d="m27.8 5.25.6 2.2q.05.65-.7.95l-1.4.6q-2.2 1.45-3.4.55l-1.05-2.1q.7.15 2.9-1.5 1.9-1.75 1.9-2.55.55.3 1.15 1.85"/><path fill="#915c2a" d="M27.05 3.75 28.2 5.2l-.6 3.85L26 8.4l1.05-4.65"/><path fill="#ffe6a1" d="m33.55 4.9 1.6 4.4-5.7 5.3-2.05-3.2-.7-2.3 1.75-7.45 1-.9 4.1 4.15"/><path fill="#7a5f48" d="M30.9 6.6q.7-.35 1.6 0l1.15.95q.8 1.8-.55 3-.55.5-1.65.35-1.25-.15-1.7-1.15-1-2.25 1.15-3.15"/><path fill="#ffe6a1" d="M30.95 7.25 32 7.1l1.05.85q.6 1.1-.65 2.15-.95.95-2-.4-.8-1.1.55-2.45"/><path fill="#7a5f48" d="m32.55 8.95-1.4.95-.45-.65.7-1.5 1.15 1.2"/><path fill="#fff" d="M32.75 4 27.3 6.6l.6-2.4 3.4-1.5L32.75 4"/><path fill="#baa15d" d="M36.25 16.75q0 1.7-1.35 2.9-1.25 1.1-2.75 1.15-.1.65-1.7-2.85-.7-1.35-2.5-2.75-3.65-2.75-9.35-2.75-5.65 0-9.3 2.75-1.8 1.4-2.5 2.75-1.4 2.85-1.5 2.25-4.4-.25-4.4-3.45 0-3.3 3.3-6.2Q8.95 6.4 18.6 6.4T33 10.55q3.25 2.9 3.25 6.2"/><path fill="#ff00c3" d="m30.8 2.2.85.8-3.8 1.7.35-1.6 2.6-.9"/><path fill="#0cf" d="m27.55 6.4 5.1-2.45.9.95-6 2.75-.5-.2.5-1.05"/><path fill="#fff" d="m28.4 1.5 1.05-.75.35.45h-.35l-.5.3-1.55 6.1-.45-.15L28.4 1.5"/><path fill="#ffe194" d="M21.85 1.55q1.4.2 1 2-.45 1.9-2.3 2.25l-1.65-.05q-.95-.55.2-1.3 1.75-1.05 1.85-1.35-.95 0-1.5-.55l2.1-1h.3"/><path fill="#c4a262" d="M17.55 3q.05.9-.7 1.8t-1.6.85q-.05-.75.4-1.4l.7-1.05q.4-.45 1.2-.2"/><path fill="#fff" d="m22.45 3.8-.95 1q-.6.6-1.4.5-.1-.4.55-.85l.85-.75q.45-.65-.25-.95Q20 2.4 21 2.05q.8-.25 1.35.35.5.6.1 1.4"/><path fill="#805b3b" d="M30.1 8.15q2.5 1 4.3 3-.2.5-.8 0Q30.35 8.3 24.15 7l-7.25-.25L9 7.8l-.05-.25 4.15-1.1 7.55-.3q4.9.15 9.45 2"/><path fill="#f2e1b3" d="M32.3 10.2Q25 5.9 14.35 7.3q-8.1 1.05-11.6 5.25-1.7 2.1-1.85 4-.3-3.5 4.7-7.15 4.85-3.5 16.3-2.8 4.65.2 8.7 2.55l1.7 1.05"/><path fill="#f2f2f2" d="m8.25 8.1 2-.75 1.25-.2.25.75-.9.05-2.35.7-.25-.55"/><path fill="#7a623d" d="M29.15 9.05q2.65.8 4.95 3.2 2.35 2.55 2 5.35-.15.85-1.5 2.1l-1.05 1q-.95.95-1.7.3l-.35-.95-.95-1.7-1.15-1.45-1.8-1.85-2-1.1-1.6-.75-1.95-.35-1.35-.35-4 .05-2.35.35 1-.85 1.3-1.15 1.8-1.2q.05-.5 3.1-1.05l3.65-.1 3.95.5"/><path fill="#382610" d="m8.8 6.95 3.85-.8q4.3-.55 9.3.05-10.6.3-13.5 1.65L6 9l2.8-2.05"/></g></defs></svg>