<svg xmlns="http://www.w3.org/2000/svg" xmlns:xlink="http://www.w3.org/1999/xlink" width="100.7" height="92.9"><use xlink:href="#a" width="43.95" height="18.9" transform="translate(24.65 45.7)"/><defs><g id="a" fill-rule="evenodd"><path fill="#414244" d="m39.7 7.25.15.45v.05q-.15.75-.85 1.3.2.5 0 1.3l-.2.65-.3.3-.4-.1-.1-.15q-5.65-5.25-14.75.7l-.3.05-.3-.15q-.5-.9-.5-2.35l.1-.3.3-.1L24.2 8q8.65-5.3 15.5-.75"/><path fill="#b4c7cc" d="M38.15 10.1Q35.5 8.15 33.7 7.85q-4.6-.85-10.75 3.2l-.4-1.75q.85 0 5.7-2.7 5.55-2 10.65 1.15l-.8.9.05 1.45"/><path fill="#414244" d="m42.75 13 .15-.1q.25-.15.5 0l.25.35.05.85q0 1-.35 1.5.6.85.6 1.75v.05l-.35.45q-6 2.2-11.15-.2-2.9-1.35-6.5-5l-1.7-1.5-.3-.2-.05-.4 1.3-2.5q.15-.15.35-.15.3 0 .35.15Q34.8 17.5 42.75 13"/><path fill="#fff" d="M36.85 15.5q1.95.15 5.8-1.3.1 1.2-.5 1.6l.75 1.25q-6.8 2.25-12.65-1.6-4.9-4.45-5.85-4.75l.95-1.9q5.95 6.4 11.5 6.7"/><path fill="#b4c7cc" d="M36.85 15.5q1.95.15 5.8-1.3l-.1 1.05q-3.7 1.9-8.8.4l.85.55q-6.1-1.2-9.5-7.1l.25-.3q5.95 6.4 11.5 6.7"/><path d="m4.9 12.3.2.5-.1.25q-.3.4-.9.55l.4.35q.35.1.35.45t-.35.5l-2 .05q-1.2-.3-1.45-.95L1 13.7l.85-1.95Q2.7 10.1 3.2 9.9l.4.05.25.3Q4.3 11.8 4.9 12.3"/><path fill="#803500" d="M2.1 13.7q-.1-.4.35-1.4.45-1 .8-1.1 0 .65.6 1.35l-.8.65.85 1.2q-1.7.25-1.8-.7"/><path fill="#421400" d="M3.3 13.85q-.55 0-.55-1.2l.55.25-.25.3.25.65"/><path d="m25.1 10.1.4-.05q.55.15 1.35 1.8l.8 2v.25q-.25.7-1.45.95l-2-.05q-.35-.1-.35-.45 0-.3.35-.5l.4-.35q-.65-.2-.9-.55l-.1-.25.2-.45q.5-.4 1.05-2.05l.25-.3"/><path fill="#803500" d="M26.6 13.8q-.1.95-1.8.7.65-.2.85-1.2l-.8-.6q.6-.7.6-1.4.4.15.8 1.1.45 1 .35 1.4"/><path fill="#421400" d="M26.6 13.8q-.1.85-1.65.75l1.65-1.05v.3m-.95-.5-.8-.6q1-.1 1.2-.75L26.5 13l-.85.3"/><path fill="#414244" d="M26.05 11.9H2.35q-.45 0-.45-.55.15-1.1 1-2.4l.9-1.1.35-.1q20.35-.35 20.95.1l1.05 1.55q.75 1.45.55 2.05-.15.45-.65.45"/><path fill="#fff" d="M24.5 8.7q1 .65 1.2 2.2l-22.65.05Q3.5 9.5 4.35 8.7q19.75-.3 20.15 0"/><path fill="#b4c7cc" d="M24.5 8.7q1 .65 1.2 2.2l-22.65.05.25-.65q13.1 0 17.45.35l-12.25-2q15.55-.25 16 .05"/><path d="m14.4 1.2-.2-.25-.15-.45V.35q.2-.35.5-.35l.15.05.05.05q1.6.2 2.5 1.85Q20.75.4 26.1 6.6l1 1.1q.45.45.05.8l-1.6.15.15 1.05v.05l-.35.45-.6-.15q-.7-.75-2.7-1.45v.2q0 1.05-.35 1.9l-.45.3q-.25.1-.45-.2l-2-2-1.95 2.5q-.2.2-.4.2l-.4-.25q-.4-.5-1-2.2l-3.2 2.8-.45.1-.4-.3-.25-3.15q-3.7 1.75-5.15 2.85l-.55.1-.3-.45q0-1.3.95-3.2-1.5.3-4.9 2.15L.2 9.9 0 9.55l.05-.2Q1.15 6.9 4.4 5.1L3.1 2.8l.25-.45h.5q1.65.85 5.25-.4 3.45-1.2 5.3-.75"/><path fill="#803500" d="M15.5 2.6q.65-.75.2-1 .9.4 1.15 1.55 2.6-1.55 5.75 1.15 1.65 1.45 3.5 3.65-1.3-.05-1.9-.45.45.3.4 1.2-2-1.25-3.65-1.3.8 1 .15 2.45l-2.4-2.4q-.75.65-2.15 2.6L15.3 7.7q-1.2.6-3.45 2.75L11.4 7.2q-.35.05-2.55 1.15L6 9.95q0-2 1.05-3.25-1.9-.1-4.5 1.2.8-1.75 3.55-2.7L4.6 4.1l-.2-.55Q6.15 4 9.9 2.7q3.45-1.15 5.6-.1"/><path fill="#421400" d="M16.1 9.1q1.65-2.25 1.65-4.45.7 1.35.95 2.85l-2.15 2.55-.45-.95m-1.35-3.45.55 2.05q-1.65 1-3.4 2.75.25-1.25 1.3-2.55l1.55-2.25m-4-1q.65 1.95.65 2.55Q7.9 8.55 6 9.95l.05-.4q4.15-3.2 4.7-4.9m-3 1-.7 1.05q-1.9-.1-4.5 1.2 2.15-2.25 5.2-2.25m18.35 2.3q-1.3-.05-1.9-.45.45.3.4 1.2-2-1.25-3.65-1.3.8 1 .15 2.45-.2-2.15-1.5-3.8l2.15.6q-.5-3.05-4.1-3.85 2.4-.85 5.3 1.8l3.15 3.35"/><path fill="#d47a3b" d="M16.45 4.15q.35.55-.4 1.5l-.5-.65-2.2.75.1-1.1-.75.4-1.2.65-.4-1.65q-1.65 1.3-2.6 1.2l.35-1-1.1.1.8-.7-.1.25q.85.25.65.6l.75-.5 1.3-.6q.45.05.75 1.15l2.2-.95.25 1.35 2.1-.8"/></g></defs></svg>