<svg xmlns="http://www.w3.org/2000/svg" xmlns:xlink="http://www.w3.org/1999/xlink" width="100.7" height="92.9"><use xlink:href="#a" width="38.3" height="25.8" transform="translate(23.65 42.4)"/><defs><g id="a" fill-rule="evenodd"><path fill="#9b2400" d="M28.75 4.9q-1.8-1.1-5.9 1.55-.25.2-.55 0l-2-1.25q-.25-.1-.25-.35l.15-.4q5.45-5.9 10.5-4 2.3.9 3.75 3.2 1.3 2.1 1.35 4.3l-.1 4.55q-.15 2.4.15 3.3.4 1.3 2.25 2.5l.2.4-.15.4q-.8.7-2.05.45.7 4.5 1.85 5.35l.2.4-.05.2-.5.3q-5.05-.75-5.45-6.15l-.2 1.35.05.3.1.3-.15.4q-.35.25-.7 0l-.05-.1q-1.55-2.2-1.15-6.9l.1-.7q.9-7.95-1.4-9.4"/><path fill="#dd750e" d="M30.9 6.5q-1.65-5.25-8.35-1.05L21.4 4.7q5.05-5.15 9.45-3.15 3.9 1.8 3.95 6.4.2 3.15-.15 6.55.05 2.2 2.2 4.1-.4.4-1.8-.35l.35 2.55q.45 2.75 1.1 3.7-2.5-.8-3.2-3.6l-.65-4.2q-1.05 0-1.45 2.9-.45-1.15-.3-2.95l.2-1.85q.8-5.25-.2-8.3"/><path fill="#b74513" d="M23.3 4.65q3.05-2.7 5.65-1.55Q31.3 4.2 31 6.75q-.45-2-2-2.75-2-1-4.75.8l-1-.1.05-.05M34.65 17.5q.75.4.45.8l-.1.1-.35-.9"/><path fill="#b74513" d="M34.8 7.95q.2 3.15-.15 6.55.05 2.2 2.2 4.1-.4.4-1.75-.3.3-.4-.45-.8-.85-1.75-.4-4.4.6-3.75.2-7.25l.35 2.1m.05 13.6q-1.3-3.05-1-4.6l.8.55q.3.95.45.8 0 4.15 1.4 6.2-.45-.2-1.65-2.95M31.2 19.6q-.2-.6.15-2.2.4-1.8 1.15-2.45l.1 1.75q-1.2.8-1.4 2.9"/><path fill="#67c6dd" d="M20.05 4.85q-.15-.5 1.9-2.2 2-1.7 2.75-1.8 1.15-.35 2.3.9 1.2 1.35.5 2.9-1.5-.1-4.9 1.9-2.7-1.2-2.55-1.7"/><path fill="#1f7da6" d="M21.45 6q2.8-2.6 6.15-3.25.35.9-.1 1.9-1.5-.1-4.9 1.9-.55-.25-1.15-.55"/><path fill="#4d63ab" d="M28.1 15.85q-.1.4-.55.4H2.05l-.4-.15q-1-1.1 0-3.1.5-1.05 1.2-.95l23.9-.05q.5 0 .8.5 1.15 1.45.55 3.35"/><path fill="#fff" d="m27.05 15.05-24.6.05q-.45-1.3.45-1.95h23.85q.55.9.3 1.9"/><path fill="#ccecf4" d="M26.75 13.15q.55.9.3 1.9l-23.5.05L17 14.4q-2.05-.75-4.35-1.25h14.1"/><path fill="#9b2400" d="M15 4.25q.65-1.1 2.15-1.6V2.6h.05q.4-.1.55.25.15.4-.2.7l.15-.1-.1.55q2.4-1.7 6.5.75 1.4.95 2.15 1.1l.35.3.05.15-.1.3q-.25.35-1.25.75 2.9 1.95 2.9 5.05v.75q-.15 1.5-1 3.2-.75 1.55-1.15 1.65l-.5-.1-.1-.2-.05.25q-1.15 2.4-3.55 3.3-.3.15-.55-.2l-.05-.3.1-.3q.2-.4.2-1.9l-.35-3.05q-.35-1.4-1.15-2.45l.05.15v.15l-.1.35-.45.15q-2.7-.35-4.35-3.3l-2.9 3q-3.5 2.95-4.2 4.9l-.5.35-.45-.4L7 17.2l-.3 2.5.2 2.15v.1l-.15.4-.55.05q-2.65-1.1-3.95-5.35l-.35-2.3.2-1.4-1.2 1.6q-.2.3-.55.2l-.35-.5q.05-1.6 1.2-3.9 1.2-2.4 2.8-3.6h-.9q-.35.05-.55-.3l.15-.55q3.15-2.9 7.85-2.45l1.5.25-.75-1.4-.15-.35.05-.2q.15-.35.55-.25 2.05.35 3.25 2.35"/><path fill="#dd750e" d="m16.55 3.9.2 2q2.3-2.25 4.65-1.55L25 6.4q-.35.5-1.55.75 3.8 2.05 3.8 5.35 0 1.65-.7 2.85-.4-1.1-1.4-2.4.45 1.1-.05 3-.6 2.5-2.6 3.7.45-1.3-.3-4.1-.85-3.5-3.15-4.6-.4 1.25-.25 1.65-2.7-1.25-3.8-4.65.1 1.7-2.5 4.1-3.75 3.55-4.5 4.6-.9-3.3 1.15-5.5-3.9 3.1-3.4 9.65-1.8-1.15-2.6-4.05-.85-3.25.7-5.6-1.5.5-2.35 1.35 1.45-4.6 4.9-5.7-.85-.55-1.9-.6 2.05-1.4 5.05-1.45 2.8 0 3.6 1 .25-1.05-.3-2.4 1 .65 2.25 2.75.75-1.6 1.45-2.2"/><path fill="#b74513" d="M5.65 20.7q-.7-3.75-.35-5.75.5-2.7 2.95-5.15l.8 1.45q-3.8 3.2-3.3 9.55l-.1-.1m2.4-4.15q.15-2 3.05-4.3 3.15-2.5 3.75-4.8.55 1.15-.65 2.8-4.3 3.8-6.15 6.3m9.05-8.3q.15.95 1.95 2.75-.3.6-.3 1-1.45-1.85-1.65-3.75M24.4 6l-3.45-.55q-2.45-.5-3.9 1.55l-.2-1.2q2-1.95 4-1.6 1.3.2 3.55 1.8M1.55 12.45l1.65-2.1L5 8.4q0 1.25-1.2 2.8-1.1 0-2.25 1.25m15.2-6.55-.75.5.55-2.5.2 2"/><path fill="#b74513" d="M22 6.4q1.6-.05 1.95-.7l1.05.7q-.35.5-1.55.75 3.8 2.05 3.8 5.35 0 1.65-.7 2.85-.4-1.1-1.4-2.4.4 1 0 2.85-.55 2.4-2.3 3.65Q25.3 12.65 21 9.4l2.35.45q2 .65 2.65 2.55 0-2.35-1.85-4-1.95-1.75-4.15-1 .4-.95 2-1m-9.2-3.05q.6.15 1.3 1.1l1 1.6-.95.1Q14 4.8 13.1 3.7l-.3-.35"/><path fill="#fff" d="m7.5 6.75-.7-.1.7-.45.05.1-.1.2.6.2q.1.15-.5.9L9 7.25l-.25.95 1.15-.25q.6-.1.45.85 1.3-.85 1.2 0l.55-.75q.3.1.4.65.25-.4.35-1.3.25.05.45.25l.1-.65.4 1.15-.65-.3L13 9.2l-.85-.55-.7 1.05q0-1.05-.45-1l-.6.65-.65.6V8.4q-1.2.6-1.9.6.5-.9.3-1.3l-1.6.35.95-1.3m15.35-3.6L24 1.85l1.7-.1q-1.05.35-2.85 1.4"/></g></defs></svg>