<svg xmlns="http://www.w3.org/2000/svg" xmlns:xlink="http://www.w3.org/1999/xlink" width="100.7" height="92.9"><use xlink:href="#a" width="38.6" height="35.9" transform="translate(19.35 33.25)"/><defs><g id="a" fill-rule="evenodd"><path d="m18.05 10.8.8-2 .95 2q2.05 5.05 5.55 7.95 6.15 5.25 7.9 7.9.8 1.2.8 2.9 0 1.25-.5 2.3Q31.9 35.2 26 35.7l-2.35.2 1.7-1.65q3.15-3.05 3.05-6.45 0-2.45-1.9-4.1-1.6-1.45-3.35-1.3-1.3.1-2.6 1.15l-1.05 1-.7.9-.65-.9Q16.7 22.6 14.7 22.4q-1.65-.25-3.35 1.3-1.8 1.65-1.9 4.1-.1 3.35 3.1 6.45l1.65 1.65-2.35-.2q-5.85-.5-7.5-3.85-.55-1.05-.55-2.3 0-1.7.8-2.9 1.8-2.75 7.95-7.9 3.4-2.85 5.5-7.95"/><path fill="#ffc032" d="m18.9 11 .05-.1v.1q2.5 5.6 5.85 8.45 6 5 7.75 7.65 1.25 1.9.3 4.2-1.3 3.1-6.9 3.6 2.9-2.85 3.3-6.1.4-3.45-2.15-5.7-2.8-2.55-5.8-1.05l-2.45 2q-.9-1.25-2.35-2-2.9-1.5-5.7 1.05-2.55 2.25-2.15 5.7.4 3.25 3.3 6.1-5.6-.5-6.95-3.6-.95-2.3.3-4.2 1.9-2.75 7.8-7.65 3.75-3.25 5.8-8.45"/><path fill="#ffff9a" d="m11.95 34.9-3.7-.7Q4.6 32.8 4.7 29.35q.05-2.15 2.5-4.75l2.45-2.15L8.5 23.7q-1.3 1.55-1.8 3.1-1.55 5 5.25 8.1m7-24.3-.1 3.3-2.5 3.6 1.25 1.75-1.7-.3q-1.85-.1-3.4 1.05 2.3-1.8 4.25-4.8 1.85-2.8 2.2-4.6"/><path fill="#c27400" d="m19.7 23.05-.85 1V21.4l2.25-3.55 4.35 3.45q2.75 1.55 3.65 4.6-2.75-5-6.1-4.35-2.05.4-3.3 1.5"/><path fill="#c2289a" d="m18.9 20.75-2.1-3.05 2.1-3.2 1.9 3.2-1.9 3.05"/><path fill="#ff4eff" d="m16.8 17.6 2.1-3.1-.05 3.1H16.8"/><path fill="#6f0ab1" d="M18.9 17.6h1.9l-1.9 3.15V17.6"/><path fill="#ffff9a" d="M25.95 34.9q4.3-3.75 3.15-9 1.45 3.4 1.1 5.1-.5 2.25-4.25 3.9"/><path fill="#c27400" d="M11 22.9q-2.85 2.05-2.1 6.2.4 2.1 1.35 3.75-1.2-1.6-1.8-3.75-1.2-4.3 1.75-6.9 2.9-2.55 5.75-.9 1.45.8 2.3 2.15-2.7-3.75-7.25-.55m18.95 1.3 1.7 1.8q1.9 2.35 1.55 3.85-.9 4.4-7.15 5 5.1-1.4 5.85-4.8.65-2.9-1.95-5.85"/><path d="M9.35 1.05Q11-.85 12.8.7q.7.6.65 1.4l-.15 4.05q.15 2.3 1.8 8.75 1 5.9-1.65 8.5Q7.75 29 3.4 27q-1.55-.7-2.25-2.05-.65-1.3 0-1.8Q.1 22.4 0 20.5q-.15-2.05 1.3-2.3-1.4-2.8 1.75-2.75-1.1-2.5-.4-4.45.7-1.95 2.55-1.55Q4.6 7 5.45 5.5q.8-1.6 2.5-.85-.15-1.9 1.4-3.6"/><path fill="#fff" d="M10.65 1.05q.8-.35 1.6.3l.35.35-.05.6-.1 3.9.95 4.85q2.15 9.1-.55 11.7-5.7 5.65-9.7 3.15-1.45-1-1.45-2.05v-.1l.65-.8-.75-.5Q.85 21.9.85 20.2l.05-.55q.1-.45.55-.6l1.1-.2-.5-1-.3-1.05v-.25L3 16.3l1.4.05-.6-1.25q-1.25-2.85-.05-4.45.5-.6 1.25-.35l1.35.3-.3-1.35q-.65-2.8.45-3.8l1.15-.05 1.25.55-.1-1.4q-.2-2.4 1.85-3.5"/><path fill="#cbcbcb" d="M11 1.55q.3-.15.5 1.15l-.15 2.4.05 1.65 1.45 6.5-.75-.15q-.8 0-1.1.65-.45 1.05.1 3.3l-1.6.8q-.7.85.3 2.6l-1.15.85q-.4.55 0 1.55l-.4-.15q-.5-.05-.75.5-.3.75-.1 1.65.25.95.95.95-.2.45-1.85.7-1.85.3-2.9-.4-1.05-.6-1.25-1.35l-.05-.8.75-.35L2 22q-.55-.55-.55-1.75l.05-.45.1-.2 1.6.3-.8-3h.65l1.9.45-.55-2.45q-1.15-2.6-.15-3.85l.7-.2 1.8 1-.1-2.7q-.55-2.5.3-3.25l.5.05 1.7 1 .3-2.45Q9.2 2.45 11 1.55"/><path d="m8.9 3.8.05 2.1q.45 3.15 2.3 8.5Q8.2 7.8 8 4.55q-.05-1.05.4-1l.5.25M5.85 8.2l.45 2.05q.95 3.05 3.75 8Q5.9 12.3 5.1 9.1q-.2-1 .25-1.05l.5.15M3.3 13.65l.75 1.75q1.35 2.45 4.6 6-4.75-4.2-5.8-6.65-.35-.8 0-1l.45-.1m-1.65 3 .6 1.65q1.15 2.05 3.85 4.35-3.95-2.65-4.9-4.9-.35-.8 0-1l.45-.1m-.7 4.9L2 22.65l3.25 2.15Q2 23.8 1 22.75q-.6-.6-.4-.95l.35-.25"/><path fill="#fff" d="m9.35 7.7 2.45 5.4-.75.55q-1.5-3.6-1.7-5.95m.45 10q-1.85-3.3-2.75-5.65l3.5 5.1-.75.55m-4.7-.9 4.2 3.85-.75.6Q6.35 19.1 5.1 16.8m-1.2 3.6 4.65 2.45-.8.6Q5.6 22.5 3.9 20.4m-.3 3.4 4.35.5-.5.85q-1.55.1-3.85-1.35"/><path fill="#925100" d="m21.75 21.85-2.85 2.1.5-1.3q.75-1.4 2.05-1.7 2.15-.45 3.9 1.05l-3.6-.15"/><path d="M29.3 1.05q1.55 1.7 1.35 3.6 1.7-.75 2.55.85.8 1.5.2 3.95 1.85-.4 2.6 1.55.7 1.95-.45 4.45 3.15-.05 1.75 2.75 1.4.25 1.3 2.3-.15 1.95-1.15 2.65.65.5 0 1.8-.7 1.35-2.2 2.05-4.4 2-10.05-3.6-2.65-2.6-1.65-8.5 1.7-6.45 1.8-8.75l-.1-4.05q-.1-.8.6-1.4 1.8-1.55 3.45.35"/><path fill="#fff" d="M28 1.05q1.95 1.05 1.85 3.5l-.15 1.4L31 5.4l1.1.05q1.1.95.5 3.8l-.35 1.35 1.35-.3q.75-.2 1.25.35 1.2 1.6-.05 4.45l-.55 1.25 1.35-.05 1.25.25v.25l-.3 1.05-.5 1 1.1.2q.45.15.55.6l.05.55q0 1.7-.75 2.25l-.75.5.65.8v.1q0 1.05-1.45 2.05-3.95 2.5-9.65-3.15-2.75-2.65-.5-11.7l.9-4.85-.1-3.9v-.6l.3-.35q.8-.65 1.6-.3"/><path fill="#cbcbcb" d="M27.65 1.55q1.8.9 1.55 2.95l.3 2.45 1.65-1 .55-.05q.9.75.25 3.25l-.05 2.7 1.75-1 .7.2q1.05 1.15-.15 3.85l-.55 2.45 1.9-.45h.65l-.8 3 1.6-.3.1.2.05.45q0 1.2-.55 1.75l-1.05 1.6.75.35-.05.8q-.2.75-1.25 1.35-1.05.7-2.9.4-1.65-.25-1.8-.7.7 0 .95-.95.2-.9-.15-1.65-.2-.55-.7-.5l-.4.15q.4-1 0-1.55l-1.15-.85q1-1.75.3-2.6l-1.6-.8q.55-2.25.1-3.3-.3-.65-1.1-.65l-.75.15 1.45-6.5.05-1.65-.15-2.4q.2-1.3.5-1.15"/><path d="m29.75 3.8.45-.25q.5-.05.45 1-.2 3.25-3.25 9.85 1.9-5.35 2.3-8.5l.05-2.1m3 4.4.5-.15q.45.05.25 1.05-.75 3.2-4.9 9.15 4.45-7.9 4.15-10.05m2.55 5.45.45.1q.35.2 0 1Q34.7 17.2 30 21.4q5.15-5.7 5.3-7.75m1.65 3 .45.1q.35.2 0 1-.95 2.25-4.85 4.9 4.3-3.65 4.4-6m.7 4.9.35.25q.25.35-.4.95-1 1.05-4.25 2.05 2.95-1.45 4.3-3.25"/><path fill="#fff" d="M29.3 7.7q-.25 2.35-1.7 5.95l-.75-.55q.8-.7 2.45-5.4m-.45 10-.75-.55q.8-.7 3.5-5.1-.9 2.35-2.75 5.65m4.65-.9q-1.2 2.3-3.4 4.45l-.75-.6 4.15-3.85m1.2 3.6q-1.7 2.1-3.85 3.05l-.75-.6q1.9-.55 4.6-2.45m.3 3.4q-2.3 1.45-3.8 1.35l-.5-.85 4.3-.5"/><path fill="#ff9aff" d="m17.4 17.55 1.45-2.05.05 1.1-.65.95h-.85"/></g></defs></svg>