<svg xmlns="http://www.w3.org/2000/svg" xmlns:xlink="http://www.w3.org/1999/xlink" width="100.7" height="92.9"><g transform="translate(38.65 49.75)"><use xlink:href="#a" width="50.65" height="32.85" transform="translate(-25.3 -9.7)"/><use xlink:href="#b" width="48.65" height="30.4" transform="translate(-24.3 -8.45)"/><use xlink:href="#c" width="35.45" height="1.9" transform="translate(-17.7 17.1)"/><use xlink:href="#d" width="45.55" height="25.55" transform="translate(-24.45 -8.1)"/><use xlink:href="#e" width="48.1" height="27.6" transform="translate(-23.65 -5.85)"/><use xlink:href="#f" width="37.5" height="21.85" transform="translate(-23.4 -7.1)"/><use xlink:href="#g" width="27.35" height="18.2" transform="translate(-15.05 -10.2)"/></g><defs><use xlink:href="#h" id="a" width="50.65" height="32.85"/><use xlink:href="#i" id="b" width="48.65" height="30.4"/><use xlink:href="#j" id="d" width="45.55" height="25.55"/><use xlink:href="#k" id="e" width="48.1" height="27.6"/><use xlink:href="#l" id="f" width="37.5" height="21.85"/><use xlink:href="#m" id="g" width="27.35" height="18.2"/><g id="h" fill="#3d0421" fill-rule="evenodd"><path d="m30.55 8.95.15.05.8.3.3.25q4.4 2.35 5.65 7.9l.85 1.65 1.05 1.35q-3.1-1.25-4.45-1.35-3-1-7.35-1.3-8.75-.55-15.65 3.05l.15-1.4q.2-1.35.8-2.75.65-3.2 3.15-5.75 4.45-4.55 12.35-2.6l2.05.55.15.05"/><path d="M26.4 8.9v-.45l4.65-3.55q5-3.7 6.85-4.4l1.65.2q2.15.5 4.7 2.05l3.2 2.05Q50.6 7.2 50.4 9l-1.5 3.65.95 1.85q.95 2.05.8 2.9-.75 2.65-1.4 2.6 1.6 3.3 1 4.4-1.5 4.35-3.25 2.85-.6 1.55-1.5 1.95l.75-.2q-.6 4.7-3.85 3.65-3.35-.6-1.75-4.45-.95.15-1-.25-2.4 1-1.1-3.5l-1.75-4.5-.25-.15q.5-2.1-.5-4.5Q34 10.5 26.4 8.9m-2.15-.95v.4Q16.65 10 14.6 14.8q-1 2.4-.5 4.5l-.25.15-1.75 4.5q1.3 4.5-1.1 3.5-.05.4-1 .25 1.6 3.85-1.75 4.4Q5 33.2 4.4 28.5l.85.25H5.2q-.95-.4-1.55-2-1.75 1.5-3.25-2.9-.35-.65.3-2.55l.7-1.8q-.65.05-1.4-2.65-.15-.8.8-2.85l.95-1.9q-.25-.25-1.5-3.6-.2-1.8 2.95-4.2 1.6-1.2 3.2-2.05Q10.5-.25 12.75 0q3 1.15 11.5 7.95"/></g><g id="i" fill-rule="evenodd"><path fill="#f6abd1" d="m41.2 1.75 6.15 3.9q1.5 1.1.6 2.6l-1.05 2.6q-.25-1.2-4.4-3.45-2.65-.3-6.65 1l-3.1 1.2-1.95-1.3-.3-.25-.8-.3-.15-.05-.15-.05-2.05-.55-.5-.15 3.6-2.45Q35.6 1.1 37.1.7l1-.1q1.35.1 3.1 1.15m.45 6 .65.05q1.45.05 4.35 3.6L48 14.3q1.1 1.2.4 2.1l-1.05 2q-.75-2.35-5.75-2.05l-4.65.8-.5-.95q-.9-4-3.45-6.35 2.25-1.4 8.65-2.1m3.8 17.2v.3q-.1.85-1.05 1.2-1 .95-1.75.85-1.2-.15-.95-1.4-2.5 1.3-3.1.4-1.95.65-.4-3.15l-.25-.55q4-1.9 7.3 2.1l.2.25m-.35-7.6q1.35.6 1.9 1.4 1.4 2.5 1.25 3.25-.35 3.95-2.25 2.95-2.7-3.35-6.15-3.2l-2.05.55-1.6-3.65v-.25l2.15.8-1.05-1.35-.15-.3 7.95-.2"/><path fill="#f6abd1" d="m42.15 24.65-.55 2.5q-.05 2.3 2.5 1.3-.45 1.9-1.45 1.95-1.4.1-2.3-.5-1.75-1.2.85-4.65l.15-.75.8.15M3.65 9.1q1.8-1.75 2.7-1.8l.6-.05 3.55.55q3.5.65 5 1.45l-.5.45q-2.5 2.55-3.15 5.75l-.35.9q-2.3-.6-4.75-.65-4.55-.15-5.35 2.05l-1.15-1.9Q-.2 15.3.2 14.5l.45-.7Q.9 13.5 2 10.85L3.65 9.1M1.8 10.3.7 7.75Q.15 6.8.65 5.85l.65-.75 6.15-3.85q2.8-1.7 4.1-1.05Q13.8.75 22 6.55q-3.8.25-6.4 2.6Q10 6.4 6.15 6.85L3.95 8.2q-2 1.4-2.15 2.1m9.1 9.3 1.15-.55-1.15 2.6Q9.85 21 8.45 20.9q-3-.15-5.3 2.95l-.25.35h.15Q.8 25.8.4 21.5l1.2-3.1 1.5-1.75q2.65-1.5 7.8.05l.6-.25-.45 1.75-.15 1.4m-3.95 5.75Q7.2 26.6 6 26.8q-.85-.4-1.75-.85-.85-.3-1-1.15l.05-.6h.1q.65-1.15 1.85-2 2.45-1.7 5.4-.25l.15-.1-.35.75q1.55 3.85-.4 3.2-.6.9-3.1-.45"/><path fill="#f6abd1" d="m6.5 24.15.85-.15.1.75q2.6 3.45.85 4.65-.9.6-2.3.5-.6-.05-1.1-1l-.35-.95q4.05 1.6 1.95-3.8"/><path fill="#f5a9cf" d="M25.15 8.65q1 1.7.35 7.3l-3.7.05q-1-1.1-.2-4.2l1.1-3q-1.45.8-2.15 4.25l-.4 3.1-4 .75q-.2-1.6 1.3-4.35l1.8-2.85q-1.7 1-3.35 4.3l-1.3 3.1v.25l-2.65 1h-.45q.35-2.65 2.05-5.35Q17.05 7.55 24 7.25l4.65.7q4.95 1.6 6.55 6.15l.65 2q.7 1.85 1.35 2.2-1.4-.6-3.1-1.05-1.6-5.35-4.5-8l-.1-.1q3.15 6.05 1.75 7.45l-1.85-.3-1.8-.2q-.45-3.8-1.55-6.05l-.9-1.4"/></g><g id="j" fill="#77264f" fill-rule="evenodd"><path d="m41.05 5.35-.3.35q-2.05-1.2-5.45-.55-3.3.6-5.05 2.3-.15-.05 0-.2 1.7-1.8 5.2-2.5 3.6-.75 5.6.6"/><path d="m34.55 2.35 7.5-.2-.3.4-7.4.2q-2.2.95-6.65 4.1-.4.2.1-.3 4.4-3.2 6.75-4.2m-.4 8.15.15-.3q2.2-1.5 5.5-1.35 3.15.15 5.45 1.65l-.35.4q-6.35-3.4-10.75-.4m1 2.7q-.5 0 .2-.35 4.85-1.8 9.4.8l-.35.4q-4.4-2.55-9.25-.85m10.05 8.15-.25.35q-1.85-3.05-7.8-1l.2-.35q1.75-.85 4.2-.7 2.85.15 3.65 1.7"/><path d="m36.15 18.35.95-.25.25.35-1.35.25q-.55 0 .15-.35m9.4.15-.25.35q-3.8-1.05-7.25-.5l-.2-.4q4.2-.8 7.7.55m-7.9 5.5.2-.3 2.35.05q1.45.4 1.7 1.45l-.3.35q-1.25-2.3-3.95-1.55M9.25.3l.3-.3q5.6 2.65 7.15 5.95l-.35.4Q15 3.25 9.25.3M.65 7q-.25.2.05-.2 6.1-5.65 12.85.05-.2.45-.3.35Q6.35 1.9.65 7m1.25 4.25q-.4.4 0-.2 1.5-1.65 4.05-2.2 2.45-.5 4.6.35.4.4-.3.4Q4.9 8.05 1.9 11.25m2.1 1.2 4.55.25-.3.4q-5.4-1.55-8 1.8-.35.25-.2 0 1.3-1.75 3.95-2.45M1.35 19.4q-.3.25-.15 0 1.65-2.55 6.95-2.2l-.25.4-3.55.15q-2.1.3-3 1.65"/><path d="m1.45 23.9-.3.25q1.45-5 5.9-5.35l-.3.45q-3.9.2-5.3 4.65m2.25 1.55-.1-.1q2.55-3.2 4.55-2.65l-.25.4q-1.9-.5-4.2 2.35"/></g><g id="k" fill="#b75683" fill-rule="evenodd"><path d="M44.45 14.75q1.55.7 2.05 1.65l.05-.05q1.7 3.1.8 4.35-1 3.15-2.1 1.4l-.05.1q-2.65-3.2-6-3.05l-1.75.5-.25-.05q1.55-1.6 7.05.85 1.1 1.4.2.05-.6-.8-.65-3.25l.05-2.3q-.6-.5-3.4-.75 2.3-.15 4 .55M41 5.15l.65.05q1.45.05 4.35 3.6l-.05.05 1.55 3q1.5 1.1-.8 4.35v-.05l.05-.1q-.55-2.6-5.8-2.3l-2.05.35-3.15-.1q.05-1.1 3.95-1.6l3.9-.3q-1.75-1.1-1.7-3.7l-.15-2.8-.2-.1-5.5.55-1.85.35q2.45-.8 6.8-1.25m-7.9 1.5-1.25.2q3.85-3.9 10.35-2.5-1.4-.7-1.05-2.6l.6-1.75q2.1.25 5.2 3.25.75.75.55 1.75l-1.25 3.2q-.3-1.15-4.4-3.4-2.65-.3-6.65 1l-2.1.85M44.9 22.6l-.15.25q-.3 1.75-2.9 2.4l-.85-1q-.6-.7-1.5-.55l-.8.3-.2-.25q.05-.8 2.3-1.4l2.2-.5q-.25-1.45-3.05-2l-1.9-.15q3.55-1.2 6.55 2.4l.2.25q-.25.4.1.25"/><path d="m39.75 24.2.5.05q-.15 3.1 2.6 2-1.35 2.45-3.15.45-.6-.4-.35-1.5l.4-1m-32.4-.85q1.75 1.1.9 3Q5 29 4.1 26q2.75 2.1 3.25-2.65M3.45 12.7l2.9.25q-4.2-3.85.95-5.6 2.6-.9 6.05-1L9.85 5.2q3.5.65 5 1.45l-.5.45q-2.5 2.55-3.15 5.75l-.35.9-4.75-.65q-4.55-.15-5.35 2.05l-.15.05-.6-1.5q.45-1.05 3.45-1m-.2-7.05-.15.05q2.2-3.1 6.1-2.3 2 .45 3.5 1.45 4.15 1.6 3.55-4.25l5.7 3.35q-4.15.1-7 2.6-5.6-2.75-9.45-2.3L3.3 5.6l-.05.05m3.05-1 1.2.2-2.05.05-.9.35L5.7 4.7l.6-.05M5.05 22.6l.4.35q.4.45.95.5l-.4.4q-.5.25-.75-.9l-.2-.35m5.2-8.5.6-.25-.45 1.75-.15 1.4 1.15-.55-1.1 2.6q-1.05-.65-2.5-.75-2.45-.1-4.4 1.9l-.35.4-.3.35-.25.3-.25.35-.05.1q-.95.55-.85 0-.7-.6 2-2.8l2.85-2.05q-1.1-1.5.2-2.45l1.55-.65L2.7 14l-.4.25.15-.2q2.65-1.5 7.8.05M10 19.35l.2-.15-.1.25-.1.5q.85 4.15-.4 3.25 0 .4-1.25.4l-1.2-.3.45-.2q-1.7-.6-1.5-2.5l.6-1.75 1.35-.1 1.95.6"/><path d="m25.05 11.05-.1 1.45-4.25.1q-.35-1.15.25-3.4l1.1-3q-1.45.8-2.15 4.25l-.3 2.3-1.95.3-2.15.55q.1-1.45 1.3-3.65l1.8-2.85q-1.7 1-3.35 4.3l-1.1 2.55-2.7.65q1.65-6.7 7.9-8.85 3.1-1.05 5.9-.75-6.05 1.7-1.45 5.15l1.25.9m1.65.95 2.9 1.25-2.75-.6-.15-.65"/></g><g id="m" fill-rule="evenodd"><path fill="#735521" d="M27.2 16.85q-14.2-2.5-20.8.05-.55-.9-.7-1.9-.3-2 1.8-2.55l6.35-.9q7.4-.5 12.5 1.8l.65.95q.55 1.2.2 2.55"/><path fill="#ff0" d="M26.8 16.1q-14.4-2.45-21.2.15l-.9-1.45q-.6-1.45.85-1.4l6.7-1q7.8-.65 13.6 1.15l.95 2.55"/><path fill="#ffdc00" d="m17.5 14.95-5.75.15.25-2.65 5.65-.05-.75 1.15q-.5 1.2.6 1.4"/><path fill="#e5c641" d="m10.05 12.6 4.6-.25-1.95 1.2q-1.6 1.2.4 1.5L6.4 16.1l.2-2.95 3.45-.55"/><path fill="#fff" d="m17.65 12.4.65-.15q-1.95 2.25.55 2.9l-1.15.05q-1.3-.35-.8-1.6l.75-1.2"/><path fill="#e5c641" d="m24.55 13.35 1.3.2q.65.75.95 2.55l-2.25-.4q-1.7-.3-1-1.35.35-.55 1-1"/><path fill="#bf9b04" d="M10 12.5q1 2.25-.7 2.95l-2.9.45-.25-1.25L7 13.3l3-.8"/><path fill="#735521" d="M4.6 10.45q1.5-1.4 2.55 1.65 2.15.3 2.15 1.15-.1 1.8-2.45 2.55 1.8 4.2-3.2 1.1-1.7 1.3-2.3.6-1.1-.4-.5-1.6l.8-1.1Q-1 13.6.6 12.75l2.1-.55 1.9-1.75"/><path fill="#ff0" d="M6.55 12.4q5.1.5-.1 3 .65 1.35.3 1.75-1.1.6-3.1-.7-1.3 1-2.15.75-.6-.45.1-1.65l.85-1.05q-2.45-1-1.2-1.45l1.75-.3 1.75-1.85q1.15-1.45 1.8 1.5"/><path fill="#fff" d="M3.05 13.05h.2q.3.1-.05.6-.35.35-.8.4l-.05-.1q0-.5.7-.9"/><path fill="#ffcf00" d="m5.75 11.25.45 1.4q4.3.35.25 2.35l-.25.2q1.65 3.35-2.4 1.05-2.15 1.45-2.35.35 4.75-1.4 4.3-5.35"/><path fill="#735521" d="m16.2 6.7-.05 1.8-2.8-.2-.05-1.5 2.9-.1"/><path fill="#ffdc00" d="M15.75 5.3v3.15l-1.95-.2-.15-2.8 2.1-.15"/><path fill="#e5c641" d="m15.75 7.3-1.4.9h-.55l-.05-1.25 1.95-.15.05.5"/><path fill="#bf9b04" d="m13.75 6.95 2-.05-.05.25-.95.15q-.95.25-1 .7V6.95"/><path fill="#735521" d="m21.05 5.05 1.35-2.1 1.3.1q.15 1.2-.35 1.7Q19.15 7.5 12.6 6.8L6.9 5.55q-.55-.3-.95-1.7l-.3-1.4L7.7 2.2l.5 1.55 4.45 1.65 5 .25 3.4-.6"/><path fill="#735521" d="m21.45 2-2.6-.5-4.05-.35-4.65.55-3.6 2-.9-1.25 2.25-1.2Q10.8.05 14.15 0l2.9.15Q20.5.6 23.2 1.8l.55 1.55L23 3.1 21.45 2"/><path fill="#ffdc00" d="M22.65 2.2q.7.7.6 1.7-4.55-2.35-11.1-1.5L6.5 3.7q-.55-.95.3-1.4Q11.85-.4 17.75.6q2.95.55 4.9 1.6"/><path fill="#ffdc00" d="m21.55 3.2 1.7.45q-.1.85-.7 1.15-4.65 2.1-10.3 1.4l-4.7-1.1L6.5 3.7l1.85-.6q7.05 3.15 13.2.1"/><path fill="#e5c641" d="M22.65 2.2q.6.75.4 1.5Q21 2.3 17.2 2h-3.4l.9-1.55Q17.4 0 22.65 2.2M6.7 3.7q-.55-.2-.3-.75l.3-.5L9.8 1 8.7 2.6l-2 1.1"/><path fill="#fff" d="m9.8 1 1.75-.4L9.9 2.45l-1.2.15L9.8 1m2.4-.45V.5l.85-.1-1.4 1.85-.85.1 1.4-1.8"/><path fill="#bf9b04" d="M22.65 2.2q.55.6.6 1.7-.8-.7-2.35-1.2l-1.4-.35.7-1 2.45.85"/><path fill="#e5c641" d="m8.55 3.3 1.5.5Q9.7 5.2 11.2 6.05L7.55 5.1 7.1 3.75l1.45-.45m14 1.5-2.2.8h-.1q-.55-.25-.85-.6-.6-.7.65-1.15l1.35-.55 1.4.45q0 .65-.2.95l-.05.1"/><path fill="#bf9b04" d="m8.55 3.3.35.05q-.6.55-.65 1.35l.1.65-.95-.3-.3-1.3 1.45-.45"/><path fill="#fff800" d="M14.9.3 13.8 2l-2.15.25 1.5-2L14.9.3m4.65 3.55-.2.8q0 .8 1.1.8-1.95.85-3.8.8-2.2-.7-2.05-1.7l4.95-.7"/><path fill="#fff" d="m14.6 4.55.2.65q.55.7 2 1.1l-2.1.05q-.9-.5-.9-1.85l.8.05"/><path fill="#894d04" d="M14.6 2q6.15-.15 8.65 1.9-4.8-1.95-11.15-1.25L6.7 3.7Q8.55 2.15 14.6 2"/><path fill="#894d04" d="m21.55 3.2-.15.1Q14.7 6 8.45 3.15l.5-.25 3.55 1q4.4.7 8.45-.95l.6.25M7.5 3.25l.25.05-1.2.95q-.2-.35.35-.7l.6-.3m15.3.35.6.35-.1.2-.75.7q.4-.55.25-1.25"/><path fill="#894d04" d="m7 3.75.4 1.3-.85-.8-.05-.2.45-.3H7"/><path fill="#894d04" d="m7.15 4.75-.5-.65.15-.35.7-.5 1.6-.35-.45.25q-1.25.25-1.5.95v.65M21.2 3.2l.05-.1q1.15 0 2.05.95v.1l-.75.7q.75-1.2-1.35-1.65"/><path fill="#894d04" d="m7 4.6.1-.55q0 1.3 4.35 2.05-2.7-.4-3.85-1L7 4.6m16.1-.35q-.05.8-3.95 1.7 4.1-1.1 3.65-2.2l.3.5m-.4-2 .4.75q-.5-.85-3.35-1.75L17 .5q2.7.2 5.7 1.75"/></g><path id="c" fill="#3d0421" fill-rule="evenodd" d="m17.65 18.45.1.55-.35-.3q0-.85-1-.75l-1 .3q.45-.45 1.4-.65.8.2.85.85m-35.25-.55.85-.8 1.4.65-1-.3q-1-.1-1 .7l-.35.35.1-.6" transform="translate(17.7 -17.1)"/><path id="l" fill="#fff" fill-rule="evenodd" d="M-14.4 4.6q-2.4 1.4-3.2 4-.4 1.3-.3 2.35-.7-.6-.5-1.4l.5-2.25.2-.75q.45-.95 1.95-1.55l1.35-.4m-2.65-1.5-1.35 1.2q-.85-1.15.5-3.8l1.5-2.4q-2.15 4-.65 5M15.1-5.05q-1.15.2-1.6.65l-.25.35q-.6-.8-2.45-1.4L9.1-5.9q2-1.3 6 .85M-16.05-8.2q-2.5 2.5-.7 3.5 1 1.65-.8 1-2-1.25-.45-3 .8-.85 1.95-1.5m32.3 6.8q2.35-1.5 1.35 4.5l-3-5.65q.65.9 1.65 1.15m2.5-9.15-2.5.5q1.1-1.35 2.5-.5m-6.7 8.35q2.75 2.2 3.8 5.8 0 1.95-1.65-1.05Q14.2-.7 10.65-3l1.4.8" transform="translate(18.75 10.9)"/></defs></svg>