<svg xmlns:xlink="http://www.w3.org/1999/xlink" height="92.9" width="100.7" xmlns="http://www.w3.org/2000/svg"><use height="13.75" transform="translate(28.55 44.05)" width="20.85" xlink:href="#a"/><defs><g id="a" fill-rule="evenodd"><path d="M-3.6-4.7.15-3.25V2.3q-3.45 0-6.7-.95l.15-.8.65-2.25.4-1 1-1.35.75-.65" transform="translate(10.1 5.7)"/><path d="M3.55-4.6.15-3.25-3.6-4.7l.2-.15q1.15-.85 2.75-.85l2.95.45 1.25.65M-6.4.55l-.15.8-.2 1.6.05.2q7.4 2.45 13.55 0v-1.8q3.9-1.4 3.9.9-.05 2.25-3.7 4.35-3.7 2.15-9.7 1.15-6-1.05-7.05-3.95-1.1-2.95.75-3.15l2.55-.1" fill="#333" transform="translate(10.1 5.7)"/><path d="m.15 2.3 6.7-.95v1.8Q.7 5.6-6.7 3.15l-.05-.2.2-1.6q3.25.95 6.7.95" fill="#999" transform="translate(10.1 5.7)"/><path d="m.15-3.25 3.4-1.35.75.55.45.35q1.05.9 2.1 5.05l-6.7.95v-5.55" fill="#666" transform="translate(10.1 5.7)"/></g></defs></svg>