<svg xmlns:xlink="http://www.w3.org/1999/xlink" height="92.9" width="100.7" xmlns="http://www.w3.org/2000/svg"><use height="14.05" transform="translate(26.1 44.7)" width="25.4" xlink:href="#a"/><defs><g id="a"><path d="M.65 4.05Q9.5 4 10.4 4.2q.4 0 .95.85.5.85.3 1.2.45-.05.9 1t.2 1.1l-25.3.15q.2-1.5 1.3-1.95.4-1.95 1.4-2.2l10.5-.3" fill="#020202" fill-rule="evenodd" transform="translate(12.55 5.05)"/><path d="m-2.85 5.45-4.05-.5-4 .3q.1-.5 1.05-.9l8.25-.3q-.7 1.2-1.25 1.4m2.4.9-5.9.3q-4.2-.15-5.2.05l.3-.15.1-.4q3.25-.45 10.7.2" fill="#323333" fill-rule="evenodd" transform="translate(12.55 5.05)"/><path d="m.65 3.75 4.05.15q.3.25.15 1.15-.5 3.55-1.1 3.75-6.6.55-7.1-.4-.8-2-.8-3.7l.05-.2.5-.45 4.25-.3" fill-rule="evenodd" transform="translate(12.55 5.05)"/><path d="M3.85 4.8q-.35 2.95-.6 3.05-5.55.35-5.75-.05-.8-1.4-.6-2.85 6.8-.25 6.95-.15" fill="#a2a3a2" fill-rule="evenodd" transform="translate(12.55 5.05)"/><path d="M-.45 4.65Q-1.5 5.7-.55 8l-1.95-.2q-.8-1.4-.6-2.85l2.65-.3" fill="#fff" fill-rule="evenodd" transform="translate(12.55 5.05)"/><path d="M3.85 4.8q-.35 2.95-.6 3.05l-1.2.1Q2 6.4 1.2 4.65l2.65.15" fill="#686867" fill-rule="evenodd" transform="translate(12.55 5.05)"/><path d="M.25-5.05q2.45 0 4.2 1.75Q6.2-1.6 6.2.85t-1.75 4.2Q2.7 6.8.25 6.8T-3.9 5.05Q-5.65 3.3-5.65.85T-3.9-3.3Q-2.2-5.05.25-5.05" fill-rule="evenodd" transform="translate(12.55 5.05)"/><path d="M3.7-2.6Q5.15-1.15 5.15.85q0 2.05-1.45 3.5Q2.3 5.8.25 5.8q-2.05 0-3.45-1.45Q-4.65 2.9-4.65.85q0-2 1.45-3.45Q-1.75-4.05.25-4.05q2.05 0 3.45 1.45" fill="#a2a3a2" fill-rule="evenodd" transform="translate(12.55 5.05)"/><path d="M-2.05-3.45-.7-3.9.1.45V.6l-2.15-4.05M-.1.3l-.05.85-3.25 3q-1.25-1.5-1.25-3.3 0-1.75 1.25-3.25L-.1.3" fill="#fff" fill-rule="evenodd" transform="translate(12.55 5.05)"/><path d="m.2 1.35.1-.1.6 4.5H-.55l.75-4.4m.15.2L.7.75 4.85-.9q.65 1.6 0 3.5Q4.2 4.35 2.5 5.25L.35 1.55" fill="#686867" fill-rule="evenodd" transform="translate(12.55 5.05)"/><path d="m.35 1.55.1-.1L3.6 4.4l-1.1.85-2.15-3.7" fill="#fff" fill-rule="evenodd" transform="translate(12.55 5.05)"/><path d="M1.1.85q0 .85-.85.85-.8 0-.8-.85 0-.8.8-.8.85 0 .85.8Z" fill="none" stroke="#020202" stroke-linecap="round" stroke-linejoin="round" transform="translate(12.55 5.05)"/><path d="M11.4 5.2q.6.35.3 1.05l-2.1-.2-1.9-.1-1.05-.2 1.7-.05 2.25-.1q.7-.15.8-.4" fill="#323333" fill-rule="evenodd" transform="translate(12.55 5.05)"/></g></defs></svg>