<svg xmlns="http://www.w3.org/2000/svg" xmlns:xlink="http://www.w3.org/1999/xlink" width="100.7" height="92.9"><use xlink:href="#a" width="20.6" height="19.15" transform="translate(34.6 38.55)"/><defs><g id="a" fill-rule="evenodd"><path fill="#4f0000" d="M14.8 16.35q0-2.75 2.9-2.75t2.9 2.75q0 2.75-2.9 2.75t-2.9-2.75"/><path fill="#910000" d="M19.45 16.35q0 1.65-1.75 1.65t-1.75-1.65q0-1.65 1.75-1.65t1.75 1.65"/><path fill="#4f0000" d="M15.75 16.2q0-1.35 1.4-1.35 1.45 0 1.45 1.35 0 1.4-1.45 1.4-1.4 0-1.4-1.4"/><path fill="#fff" d="M18 16.2q0 .8-.85.8-.8 0-.8-.8 0-.75.8-.75.85 0 .85.75"/><path fill="#4f0000" d="M8.05 6.5q.95-.7 3-6.1.15-.4.6-.4l1.55.1q1.5.25 2.15 1l.15.45-.05.1q-1.25 4.15-1.4 6v.45l3.45 5.15q.55.75-.65 4.65l-.1.15q-2.4 2.45-10.5-.5Q.05 15.45 0 12.7v-.05l.05-.15 1.75-4q1.55-1.1 6.25-2"/><path fill="#d80000" d="m12.8 8.45 3.6 5.5-.2 1.65-.5 1.6q-1.7 1.6-8-.45-6.25-2.05-6.35-4.05l1.3-3.2 2.9-1.05 3.35-.9q1.15-.8 3.2-6.3l2 .5q-1.6 4.75-1.3 6.7"/><path fill="#910000" d="m11.05 8.2 2.1-6.85.95.4q-1.6 4.75-1.3 6.7l3.6 5.5-.2 1.65-.5 1.6q-.75.7-2.95.6l.6-2.95-2.3-6.65"/><path fill="#4f0000" d="M2.25 8.85q.65-.1.75.55.35 2.5 7.85 4.25l5.45.25q.5-.5.9-.15.55.5.15.9-1.1 1.6-6.8.25-8.3-1.95-8.85-5.3-.1-.65.55-.75m6.25-2.6q.65-.2.75.5.15.5 1.45.95 1.6.65 2.25.35l.9.1q.4.5 0 .8-.85.85-2.95.2Q8.35 8.4 8 7.05q-.1-.65.5-.8"/><path fill="#f47676" d="m5.5 8.95 2.35-.85q.25.2-.65.7l-2.5 1.85q-.95-.7-1-1.25l1.8-.45m-3.4 2.4h.05q.6.2.8.7.2.55-.5 1.6-.7-.45-.8-.85l.45-1.45m7.5-4.5h-.05l1.3-2.2L11.9 2.2l.3.15q-.7 2.35-2.15 4.75l-.45-.25"/></g></defs></svg>