<svg xmlns="http://www.w3.org/2000/svg" xmlns:xlink="http://www.w3.org/1999/xlink" width="100.7" height="92.9"><use xlink:href="#a" width="32" height="33.3" transform="translate(22.5 43.5)"/><defs><g id="a" fill-rule="evenodd"><path fill="#390" d="M22.15 12.35q.85-2.85.7-5.9-.15-2-.7-4 1.65 1.5 3.2 3.9l.55.85q2.55 4.2 4.2 8.8 1.75 5.05 1.9 10.65l-1.15.9q-5.3 4.1-11.75 5.3-5 1.15-9.95-.7-5.2-2.1-9.15-6.4l1.6-8.95q.65-3.3 3.55-8.75l.2-.4Q7.8 3.1 9.6 2.1l-.05 4.4q.25 2.65 1.2 5-6.1 1.95-6.6 8.55l-.05 1.8q1.7 2.25 4.85 2.95-.05 3.5 2.1 5.45l.05.05.9.6.35.15q2.5 1.4 4.65 1.1 2.85-.4 4.95-2.8l.15-.15q1.35-1.8.85-4.75 3.55-.65 5.35-3.1L28.1 19q-.7-4.2-5.95-6.65"/><path fill="#fff" d="M19.65 11.35q.8-2.7.9-5.25.15-2.6-.4-5.1l2 1.45q.55 2 .7 4 .15 3.05-.7 5.9l-1.3-.4q-.85-.25-1.2-.6M11.6.85l.3 5.25.8 5.2-1.95.2q-.95-2.35-1.2-5l.05-4.4 2-1.25"/><path fill="#2e7801" d="M20.15 1q.55 2.5.4 5.1-.1 2.55-.9 5.25-2.15-.05-3.85 6.6-1.05-6.65-3.1-6.65l-.8-5.2-.3-5.25q4.85-1.45 7.45-.4l1.1.55"/></g></defs></svg>