<svg xmlns="http://www.w3.org/2000/svg" xmlns:xlink="http://www.w3.org/1999/xlink" width="100.7" height="92.9"><use xlink:href="#a" width="36.65" height="30.1" transform="translate(19.55 35.6)"/><defs><g id="a"><path fill="#aed7ff" fill-rule="evenodd" d="M26.6 7q1.05-1.75 1.1-2.8 3.15 4.1.1 11.3l-3.05 1.1 1.2-2.3q.85-1.7 1.3-3.5.5-1.8-.65-3.8m7.8 6.45q0 3.35-1.6 6.9l-1.6 1.9q1.7.6 3.5-.4l1.15-.7q-.9 3.75-3.7 7.6-2-4.85-3.95-7.8 1.45-.8 2.9-1.95 1.25-1.05 2-2.65l1.3-2.9M.7 18.65l3.95 2q.5 1.1.75 2.85l-2.4-2-2.3-2.85M3.95 9.4l5.85 5.5q.15 1.1-.6 2.6l-1.65-1.45q-1.3-1.5-2-3.35l-1.6-3.3m7.35-5.65q2.35 2.6 4.6 7 .35.7.25 1.4-.25 2.1-2.45 2.25v-3.15q-.1-2-.9-3.7l-1.5-3.8M20.2.5q3.3 1.95 3.1 8.6l-.05 1.65-.05.5-.05.25q-.4 1.5-1.7 2.75.3-1.35.25-2.75-1.35 2.6-3.25 3.25l1.45-2.85q.75-1.75.9-3.65v-3.6L20.2.5"/><path fill="#fff" fill-rule="evenodd" d="M27.8 15.5q2.85-3.5 6.1-5.6l.5 2.1v1.45l-1.3 2.9q-.75 1.6-2 2.65-1.45 1.15-2.9 1.95-2.15-3.2-4.25-4.15l-.25-.1q-2.2-.85-5 1.95Q13.35 11.7 4.9 29.6-.45 22.1.7 18.65L3 21.5l2.4 2q-.25-1.75-.75-2.85L4.2 19.6q-2.25-5-.25-10.2l1.6 3.3q.7 1.85 2 3.35L9.2 17.5q.75-1.5.6-2.6-1.75-7.35 1.5-11.15l1.5 3.8q.8 1.7.9 3.7v3.15q2.2-.15 2.45-2.25.1-.7-.25-1.4.05-7.4 4.3-10.25l.6 4.15v3.6q-.15 1.9-.9 3.65l-1.45 2.85q1.9-.65 3.25-3.25.05 1.4-.25 2.75 1.3-1.25 1.7-2.75L26.6 7q1.15 2 .65 3.8-.45 1.8-1.3 3.5l-1.2 2.3 3.05-1.1m5 4.85q1.9-1.1 3.35-1.3l-.3 2.1-1.15.7q-1.8 1-3.5.4l1.6-1.9"/><path fill="none" stroke="#39c" stroke-linecap="round" stroke-linejoin="round" d="M26.6 7q1.05-1.75 1.1-2.8 3.15 4.1.1 11.3 2.85-3.5 6.1-5.6l.5 2.1v1.45q0 3.35-1.6 6.9 1.9-1.1 3.35-1.3l-.3 2.1q-.9 3.75-3.7 7.6M4.9 29.6Q-.45 22.1.7 18.65l3.95 2-.45-1.05q-2.25-5-.25-10.2l5.85 5.5Q8.05 7.55 11.3 3.75q2.35 2.6 4.6 7 .05-7.4 4.3-10.25 3.3 1.95 3.1 8.6l-.05 1.65m-.05.5-.05.25L26.6 7Z"/></g></defs></svg>