<svg xmlns="http://www.w3.org/2000/svg" xmlns:xlink="http://www.w3.org/1999/xlink" width="100.7" height="92.9"><use xlink:href="#a" width="31.55" height="20.6" transform="translate(21.65 41.55)"/><defs><g id="a" fill-rule="evenodd"><path fill="#1f2e22" d="M23.65 1.25q1.9.5 4.45 1.9 2.85 1.55 3.2 2.6l.25 1.45q0 2.7-.95 4.25l-.85 1.2v.25l.4 2.9q-.45 2.05-4.65 3.4-3.95 1.3-9.35 1.4-8.9.3-13.4-4.7-.6-.65-.8-4.1Q0 10.5 0 7v-.85q-.05-1.9 4.95-4.2L10 0l6.8.2 6.85 1.05"/><path fill="#3d5c45" d="M23.5 2.35q1.7.45 4 1.65 2.5 1.35 2.75 2.1.85 2.4-.75 5l-.9 1.25.4 1.1q.3 1.3-.3 2.4-2.05 3.5-12.5 3.55-9.8.05-12.45-4.05-.85-1.25-.85-2.8l.15-1.3q-1.65-.95-1.9-2.2v-2.9q0-1.6 3.05-3.35Q6.7 1.35 9.8.55l6.85.5 6.85 1.3"/><path fill="#2d4231" d="M17.9 14.7q8.2-.05 10.8-2.1 1.75 3.15-4.9 4.75-8.1 1.9-15.25-1.3-2.25-1-4.15-2.4L3 12.45q6.25 2.35 14.9 2.25"/><path fill="#1f2e22" d="M21.8 16.15q-8.2 1.55-12.9-.45l-6.1-3.25.25-1.2 3.2 2Q10 15.2 12.7 15.2l11.4-.55q3.35-1 5.15-2.95-1.65 3.4-7.45 4.45"/><path fill="#5d8c69" d="m22.2 6.7-7.6.45q-2.1.35-.6 2.95l2.05 3.35-4.25.2q-4.45-.7-6.95-2.05-4.9-2.7-3.55-6.05.45-1.25 3.95-2.85L9.55.9q2.35-1.1 4.65.6 1.35 1.05 6.7 2.3 5.15 1.25 5.35 1.5.5.55-.75 1.05l-3.3.35"/><path fill="#2d4231" d="M30.6 6.45q-1.65 1.4-4.7 1.75l-16 .5q-5.55.65-8.75-2.55l2.8 1.1q3.35 1 6.25.6 4.7-.65 15.7-.15l4.7-1.25"/><path fill="#5d8c69" d="m4.95 16.65-1.6-1.95q5.3 4.5 18.15 4.45-4.7 1-10.55.15-3.7-.55-6-2.65"/><path fill="#3d5c45" d="m13.5 7.65-.05.75-3.55.3-4.3-.2q-3.4-.65-4.45-2.35Q5.65 8.05 10 7.6q2.95-.3 3.5.05"/><path fill="#73ad82" d="M2.95 5.8Q2.6 5.45 4.5 4.25l1.95-1.1L9 2.2 7.5 3.75q-1.6 1.4-.65 1.85l3.3.95q1.55.4-.3.5-5.4.25-6.9-1.25"/><path fill="#2d4231" d="M29.5 8.25q-.95 4.65-3.45 5.5-3.35 1.05-3.8.75l4.3-3.9q2.9-2.65 2.95-2.35"/><path fill="#420000" d="m16.6 14.85-3.2 1.55.6-3.3-2.05-2.3 3.25-.5 1.3-2.75 1.6 2.65 3.65.55-2.5 2.35.6 3.3-3.25-1.55"/><path fill="red" d="m18.75 12.8.5 2.6-2.65-1.2-2.6 1.2.5-2.6-2.1-1.8 2.9-.4 1.3-2.35 1.3 2.35 2.95.4-2.1 1.8"/><path fill="#ad0000" d="m19.25 15.4-2.65-1.2-2.6 1.2 2.7-3.05L20.85 11l-2.1 1.95.5 2.45"/><path fill="#ff6363" d="M16.6 8.25 16.5 12l-4.05-.95 2.8-.5 1.35-2.3"/><path fill="#73ad82" d="M12.2 19.45q-2.5.05-5-1.2l-2-1.3q11 2.45 7 2.5"/></g></defs></svg>