<svg xmlns="http://www.w3.org/2000/svg" xmlns:xlink="http://www.w3.org/1999/xlink" width="100.7" height="92.9"><use xlink:href="#a" width="34.2" height="19.9" transform="translate(16.85 42)"/><defs><g id="a" fill-rule="evenodd"><path fill="#828281" d="m34.1 17.15.05 1.7q-7-2.95-14.2-2.95-1.3 0-6.75 2.05L7.8 19.9q-.1-2.4.3-2.55 16.2-6.3 26-.2"/><path fill="#adadad" d="M28.85 10.05q1.7 0 2.35.95l.7 1.8q.35 1.1.9 1.3.65.3 1.15 1.95.5 1.65-.05 1.85-2.8-1.1-9.55-2.4-4.1-.8-10.6 1.4Q8.1 19.2 7.9 19l-.4-1.15q-.15-.9.15-1.3 2-2.45 10.55-4.65 7.25-1.85 10.65-1.85"/><path fill="#fff" d="m27.35 12.4 3.15-.4q1.35 2.25 1.95 2.5.7.25 1 1.45.3 1.15-.25 1.35l-2.45-.75q-3.15-1.1-7.1-1.7-3.9-.55-9.9 1.5-5.1 2.1-5.3 1.9-.25-.3.7-1 .85-.7 7.1-2.65 7.3-2.35 11.1-2.2"/><path d="M18.2.1q3.65-.2 4.1.05l4.55 2.25 3.75 7q.65 1.25.5 1.4l-2.8.75-9.35 1.5L14 14.5q-3.85 1.3-4.3 1.75-1.75 2.35-2.1 2.4-4.9.55-6.8-.75-.7-.5-.8-2.05-.1-1.6.7-2.65 1.3-1.6 3.9-2.8 1.9-.9 2.7-1 .1-1.7.7-3.55Q9.15 2.1 11.55 1.2 14 .3 18.2.1"/><path fill="#020200" d="m12.65 1.65 10-.1q3.7 1.4 4.65 3.2 2.6 5 2.15 5.3l-4.2.85-4.8.6q-.8-.05-4.4-4.95l-3.4-4.9"/><path fill="#3a3a3a" d="M12.65 1.65q8.2 5.6 7.8 9.85-10.75.85-12.25-.1l-.15-1.9q0-1.85.35-2.45 2.8-5.05 4.25-5.4"/><path fill="#020200" d="m30.6 5.95 1 2.35q0 .55-.55 1l-.95.6-1.25-3.5 1.75-.45"/><path fill="#5b5b5b" d="M7.7 17.55q-.2.45-2.05.35l-3.3-.25q-2.8-.15-.75-3.85.65-1.15 3-2.35 2.25-1.2 4.35-1.5Q11.7 9.6 20.4 11.3q1.25.3-.6.55-10.35 2.05-12.1 5.7"/><path fill="#d0d5d6" d="m22.15 13.85 7.5-.5q.9 0 1.4.55l1.2.65-1.95.1-3.3-.6-2.9-.2h-1.95"/><path fill="#828281" d="M1.95 14q.15-1.1 2.85-2.45 3.35-1.75 5-1.3-1.85 0-5.2 2.6-2.1 1.8-2.65 1.2V14"/><path fill="#adadad" d="M2.4 13.7q.15-.8 2.15-1.65-2 2.6-2.2 1.7l.05-.05"/><path fill="#4f4f4e" d="M28.35 7.7q.35-.1 1.6-.75L30.6 8q.35.9-.25 1.25l-1.4.45q-3.1 1.1-3.75.8l.1-.05-.75-2.15 3.8-.6"/><path fill="#020200" d="M26.3 7.75h.05q.9-.05 1.1.3l.85 2.25-1.4.35-.6-2.9"/><path fill="#828281" d="m27.9 8.1 1.65-.55.6.75-2.05.55-.2-.75"/></g></defs></svg>