<svg xmlns:xlink="http://www.w3.org/1999/xlink" height="92.9" width="100.7" xmlns="http://www.w3.org/2000/svg"><use height="43.1" transform="translate(18.5 34.15)" width="40.3" xlink:href="#a"/><defs><g id="a" fill-rule="evenodd"><path d="m15.55-15.05-1.15-.05-1.8.3-2.35.7q1.55-1 3.2-1.2l3.15.1 1.3.2.25.1.15.1.15.05.15.1.1.15.15.7-.1.2-.45.45-1.8.9 1.75-1.85q.45-.45-.25-.5h-.05l-.5-.1-1.9-.35M7.95-13l.1.1H6.4l1.55-.1M6-8.35l.1.45q.3 1.25-.1 2.4l-.4.25.25-.7.05-1.3-.05-.3-.2-.5Q5.2-8.95 4.3-9.5l-.85-.5q-.6-.75.15-.5l.35.15.1.05.15.05q1.3.6 1.75 1.75l.05.15M-5.55-12.7q1.05.35 1.8 1.25l-3.5-1.35-1.25-.1 1.25-.1h.15l.1.05h.1l1.35.25M11.3-5.4l-.3.75Q10.4-3.3 9.05-2.6q-1.75.8-3.6 1.25L4.25-1 2.8-.75l-.5.05-.75.05 1.5-.4 1.65-.5L5.85-2q1.7-.65 3.05-1.6l2.4-1.8m-8.1-5.65-.05.05.5-.6.3-.2-.75.75M2.1-3.5q.5.4-.3.05l.3-.05m2.3-.9.55.05.2.05-.2.15-.85.3.3-.55M-2.05-.45l.15.05-3.4-.7q-1.35-.35-2.75-1.15l-2.6-1.8q-.75-.5-1.25-1.55l.15-.15 1.2.45.55.5.3.3.85.7.75.6.7.4 3 1.45 2.35.9m-10.1-5.5-.55.25-.3-.05v-.05l-.05-.05.2-1 .55.15.4.3-.05.2-.2.25m18.6 10.6.1-.1.15.05-.25.05m-1.3-1.3.4.3-.15.2-.15-.1-.1-.4M-7.35 5l-.1.1-.2-.15.3.05M.5 2.25.45 2.2.4 2.15.35 2l.1-.1.3-.1L.7 2l-.2.25m-2.9-.3.25.1-.25.3-.1.05.1-.45m8.85 3.6L6.4 5.4l.75.15h-.7m-3.7-2.8-.1-.05-.35-.35.15-.05.3.45m1.15-.1.45.3L4.2 3l-.4-.25.1-.1M0 2.6l.5.2-.15.15Q0 2.95 0 2.6m1.7 1.45.5.2h-.15l-.35-.2m-.6-.85.15-.2.25.1h.05l-.45.1m3.1 1.1-.25.05-.15-.15.4.05v.05m-1.45-.95.5.2-.3.2q-.35.2-.2-.4M17.5 20.6l-.25-.15q.15-.55.65 0l-.4.15m-33.9-35.85h.65l3.55.4 2.3 1.2-2.8-.95-2.75-.4-2.65.35-.6.15q-.45.3-.1-.2l.5-.2 1.55-.3.35-.05m-1.9 1.65-.35-.4.9.4.5.45 1.15 1.25.25.55.05.15-2.5-2.4m14.1 2.95h.45q.1.1-.05.25l-.7.5-1.6 1.05.65-.95 1.25-.85M-6.55-7v-.25l.15.7q.4 1.4 1.5 2.05l1.25.75q-.65-.2-1.25-.5-2.05-.8-1.65-2.75m5.05 9.95h.05V3l-.2.35-.2-.4h.35M-.8 2l-.15.2q-.45.2-.15-.3l.3.1m-3.2.45.2.25-.4.25-.1-.35.3-.15m1.4.5-.1.05-.2.1-.05-.05.15-.2.2.1m-1.35.75.15-.05.35.1.15.15-.05.1q-.55.35-.65-.2l.05-.1m-.95.3-.05.15q-.5.5-.5-.15h.55m4.15-.15.3-.1.3.1-.05.05-.55-.05m-1.5-.1.05-.1.1-.05.05.05.05.2q-.15.65-.25-.1m-3.05-1 .1.15q-.45.6-.3-.1l.2-.05m-2 1.1.1.1.25.2h-.35l-.05-.25.05-.05m1.1-.25-.05.2-.2.15V3.5l.05-.05.2.15m-.5 1.2-.05-.05.6-.1-.05.2-.5-.05" fill="#fff" transform="translate(20.15 15.6)"/><path d="M10.25-14.1 9-13l-.35.45-.3-.25-.4-.2-1.55.1-1.25.45-1.2.65-.3.2-.5.6-.3.5.05.1.05-.05.05.25.45.2.85.5 1.45 1.75.1.2.05.3q-.15 1.35-1.15 2.3l-.95.7q-1.85.8-3.75.55l-1 .15-1.1-.2q-2 .05-3.5-1.45l-.2-.2-.2-.3q-.65-1.3.3-2.6.55-.7 1.35-1.2l.95-.5.05-.05.05-.4h.1v-.05l-.15-.3-.05-.05-.4-.6q-.75-.9-1.8-1.25 1.1.3 2.05.95.45.35.6.95.1.5-.05 1.05l-1.25.65L-5.35-8q-.35.45-.35 1.05 0 .6.35 1.1L-4.2-4.8l1.75.75 1.1.2H1L2.1-4q1.8-.3 2.95-1.8l.5-1.15q.15-.75-.3-1.35-1-1.1-2.6-1.5l-.3-.55q-.05-1 .8-1.6 2.35-1.7 5.05-1.1l1.1-.85q1.5-1.25 3.3-1.45 3.45-.75 6.6.75l.95.45q-2.3 1.6-3.85 3.95l-3 4.65q-1 1.5-2.4 2.65Q9.4-1.75 7.8-.75l-.35.15-1.6.5-1.6.6L2.3.9l-3.35.25-3.6-.85-3.25-.95-.35-.15q-1.55-1-2.95-2.15l-2.45-2.6-2-3.1-1.4-2.15-2.2-2.4-.9-.75.85-.55.5-.2-.75.6-.15-.05-.05-.05.05.1 2.35 2.5 1.85 2.15 1.15 2 .7 1.2.5.6 1.6 1.75.65.45 3.75 2.1.15.05 2.3.8 3.15.8L2.1-.1l2.95-.55q1.8-.6 3.5-1.5l2.5-1.75 1.15-.95.45-.6 1.2-1.85 1.3-2.15.15-.25.5-.65.45-.7.2-.2.8-.8.8-.8 1.05-.75q.65-.5 0-.65l-.3-.25-.2-.15-.15-.1-.1-.05-.2-.1-.25-.1-1.3-.2-3.15-.1q-1.65.2-3.2 1.2m4.9 4.65.65-.9-.65.9m-7.5 14.2.1.65-.1.4v.1l-.7.25-2-.4-3.4-.7-1.2-.15-3.95.15-3 .75-.7.25h-.15l-.2-.05H-8l-.35-.2-.1-.5.55-1.35q1.25-1.1 3.2-1.65l3.7-.75 3.35.5 3 .75q1.5.5 2.3 1.95m-24.05-20 2.65-.25 1.8.3 1.35.55 1 .85.75.9.85-.15.9.05h-.15l-1.25.1-.45.35-.7-.85-.25-.25-2.3-1.2-3.55-.4h-.65" fill="#765425" transform="translate(20.15 15.6)"/><path d="m14.4-15.1-2.1 2.55-2.05 2.6L8.9-8.2 7.55-6.45l-1.4 1.7L4.5-2.8 3.3-1.35l-.2.25h-.35L1.3-1.25l-2.65-.2-2.7-.25 2-2.05 1.1.2 1-.15q1.9.25 3.75-.55Q5.05-4.5 5.65-5.6l.2-.35-.25.7.4-.25q.4-1.15.1-2.4L6-8.35l.2.65-.15-.8q-.4-1.4-1.85-2l2.05-2.3.15-.1h1.65l-.1-.1.4.2.3.25L9-13l1.25-1.1 2.35-.7 1.8-.3M4.8-1.7l2.35-3.15 1.6-2.2 1.4-1.75 1.4-1.7 1.4-1.7 2.6-2.85 1.9.35-2.25 3.1q-.9 1.25-1.55 2.65Q12.95-7.4 12-6.2l-.7.8-2.4 1.8Q7.55-2.65 5.85-2l-1.15.45.1-.15m13.35-13.2.2.1h-.05l-.15-.1m-.9 2.85-.8.8.4-.45.4-.35m-2.1 2.6-1.3 2.15-1.2 1.85L14.1-7.9l1.05-1.55m-26.7 5.55-1.6-1.75.15-.15v.05l1.45 1.85m-2.1-2.35-.7-1.2.85 1.05-.15.15m-6.05-7.85-.05-.1.05.05v.05m16.55 3.6v.05h-.1l.1-.05M18-14.6l-.05.05v-.05H18M2.85-10.5l.1.05-.05.05-.05-.1M4.4-4.4l-.3.55.85-.3.2-.15-.2-.05-.55-.05m-2.3.9-.3.05q.8.35.3-.05m-1 3.1 1.2-.3.5-.05-.1.1v.05h-.05L1.1-.4m-11-13.25.25.25.7.85.45-.35 1.25.1-5.6 5.7-1.2-2.1-1.4-1.95-.65-.75-1.15-1.25-.5-.45-.35-1.05 2.65-.35 2.75.4 2.8.95" fill="#f0bd53" transform="translate(20.15 15.6)"/><path d="M4.2-10.5q1.45.6 1.85 2l.15.8-.2-.65-.05-.15Q5.5-9.65 4.2-10.25l-.15-.05.15-.2m1.65 4.55-.2.35q-.6 1.1-1.85 1.35l.95-.7q1-.95 1.15-2.3l-.05 1.3m-9.9 4.25 2.7.25 2.65.2 1.45.15h.35l-.05.05-1.5.4.75-.05-1.2.3-3.15-.05-2.35-.9.25-.25.1-.1m22.4-13.1.1.05-.15-.05h.05m.25.15.2.15.3.25q.65.15 0 .65l-1.05.75-.8.8-.4.35 1.45-1.45.45-.45.25-.3-.15.1-.15-.7-.1-.15m-32.95 7.2-1.15-2-1.85-2.15-2.35-2.5v-.05l.15.05.75-.6q-.35.5.1.2l.6-.15.35 1.05-.9-.4.35.4-.75-.5 2.25 2.2.05.1q1.7 1.8 2.65 3.9l.7 1.4-.1.1-.85-1.05m32.3-7.15v.05l.05-.05q.7.05.25.5l-1.75 1.85-2.65 3.5-.75 1.1-1.45 2.25-.65.75.3-.75.7-.8q.95-1.2 1.65-2.75.65-1.4 1.55-2.65l2.25-3.1.5.1M4.3-9.5q.9.55 1.35 1.45l.2.5-.1-.2L4.3-9.5M4.25-1l1.2-.35-1.2.4V-1M6.7 4.6q.5.05.05-.25l-.4.05.1.25.25-.05m-1.3-.75.15-.2-.4-.3L5 3.3q-.7.7.4.55M-7.35 5l.5.3-.15.2h-.05l3.4-.75L-.8 4.6l3 .1 2.9.4.1.05h.05l1.15.2-1.15-.2H5.2l-.1-.05-2.9-.4-3-.1-2.85.15-3.4.75H-7l.15-.2-.5-.3-.3-.05.2.15.1-.1m.3.5h-.05l-.25.05v.05h-.45l-.1-.25.25-.4-.25.4.1.25h.45v-.05l.25-.05h.05m14.2.05-.1-.35-.35-.15-.15.05-.15.25-.05.1.1.1h.7q.35.1.25-.3-.35-1.5-1.7-2L2.55 2.2 5.7 3.25q1.35.5 1.7 2 .1.4-.25.3M2.2 2.15q-.5.4.1.55l.45.1.2-.15-.4-.45-.35-.05-1.25-.2 1.25.2m-1.7.1.55-.05-.1-.25-.2-.15-.3.1-.1.1.05.15.05.05.05.05m-2.9-.3-.1-.05 1.55-.1 1.4.1-1.4-.1-1.55.1.1.05-.1.45h.1l.35-.2-.1-.15-.25-.1m-.1-.05-.1.05q-.4.1 0 .45h.1-.1q-.4-.35 0-.45l.1-.05m-5.85 3.9L-8 6l-.3-.05-.05-.15m12.7-2.85-.45-.3h-.15q-.4.4-.1.5.85.3.7-.2M.5 2.8 0 2.6l-.3.15q-.25.25.1.45.85.3.7-.4m1.7 1.45-.5-.2q-.4.2.1.4.95.3.4-.2M1.55 3.1H1.5L1.25 3l-.15.2q-.25.4.15.5 1.1-.05.3-.55V3.1M.7 4.35q.7.45.4-.1l-.4-.2q-.45.05 0 .3m3.5-.1-.4-.05q-.4.45 0 .6 1.05.05.45-.5l-.05-.05m-1.5.2q.35.45.4.2l-.15-.35-.25.15m.05-1.1q-.6.5.1.5.25.15.4-.1v-.2l-.5-.2M-16.1-11.9l.65.75 1.4 1.95 1.2 2.1-.1.1-1.25-2.1-1.65-2.25-.25-.55M-1.45 3v-.05h-.05q-.35-.3-.5.3.45.5.75-.1l-.2-.15m.3-1.15q-.4.3 0 .7h.25q.8-.25.3-.6l-.55-.1m-2.85.6-.3.15-.15.25.2.25q.8.3.6-.35l-.35-.3m1.4.5-.2-.1q-.75.3-.15.55.45.2.5-.2l-.15-.25m-.7.95-.15-.15-.35-.1-.15.05-.1.1-.1.15q-.1.3.2.3.95.35.65-.35m-2.15.1-.05.4q.2.55.65.15.55-.4-.05-.55h-.55m5.3-.15-.3-.1-.3.1q-.3.6.55.45.4-.2.05-.45m-2.05-.2-.15.05q-.35.65.4.55.75-.3-.1-.6l-.05-.05-.1.05m-3.3-.85-.15.15q-.05.7.65.15.15-.15-.25-.35h-.05l-.2.05m-2.25 1.55-.15 1 .15-1 .85-.1-.05-.1-.25-.2-.1-.1h-.05l-.4.5m2.1-1.4-1.55 1 1.55-1m-.8 1 .35-.05-.1-.3-.2-.15-.05.05q-.4.1-.2.35l.2.1m.3.7-.6.1q-.1.45.55.35.55-.1.05-.45m3.55-2.7-2.65.8 2.65-.8" fill="#dfa63c" transform="translate(20.15 15.6)"/><path d="M3.3-1.35 4.5-2.8l1.65-1.95 1.4-1.7L8.9-8.2l1.35-1.75 2.05-2.6 2.1-2.55 1.15.05-2.6 2.85-1.4 1.7-1.4 1.7-1.4 1.75-1.6 2.2L4.8-1.7l-1.5.35M6.25-12.8 4.2-10.5l-.15.2-.1-.05-.75-.7.75-.75 2.3-1m-8.3 9.05-2 2.05-.1.1-3.25-1.2-.7-.4-.75-.6-.55-.5-.3-.2-.3-.3-.55-.5-1.35-1.1-.4-.3-.55-.4 5.6-5.7 3.5 1.35.4.6-.1.05-.75.15-1.25.85-.45.45Q-6.75-8.3-6.55-7q-.4 1.95 1.65 2.75.6.3 1.25.5L-4.9-4.5Q-6-5.15-6.4-6.55l.45.85.2.3.2.2q1.5 1.5 3.5 1.45m18.5-7.5-.2.2-.45.7-.5.65-.15.25L14.1-7.9l-1.45 2.45-.45.6-1.15.95-2.5 1.75q-1.7.9-3.5 1.5L2.1-.1l-3.65.4-3.15-.8-2.3-.8-.15-.05-3.75-2.1-.65-.45L-13-5.75l.3.05.55-.25.25.35q.5 1.05 1.25 1.55l2.6 1.8q1.4.8 2.75 1.15l3.4.7-.15-.05L1.1-.4l1.55-.2h.05l1.55-.35 1.2-.4Q7.3-1.8 9.05-2.6 10.4-3.3 11-4.65l.65-.75 1.45-2.25.75-1.1 2.65-3.5 1.8-.9-1.45 1.45-.4.45m2.3-2.35.1-.2.15-.1-.25.3M6.45 4.65l-.1-.25.4-.05q.45.3-.05.25l-.15-.05-.1.1m-1.3-1.3.1.4.15.1Q4.3 4 5 3.3l.15.05m1.25 2 .15-.25.15-.05.35.15.1.35-.75-.15-.05.05.05-.1M2.55 2.2l.4.45-.2.15-.45-.1q-.6-.15-.1-.55l.35.05m-1.6-.25.1.25-.55.05L.7 2l.05-.2.2.15m-3.1.1.1.15-.35.2v-.05l.25-.3m4.9.7-.3-.45-.15.05.35.35.1.05m1.6.2q.15.5-.7.2-.3-.1.1-.5l.05.1.4.25.15-.05M0 2.6q0 .35.35.35L.5 2.8q.15.7-.7.4-.35-.2-.1-.45L0 2.6m1.7 1.45.35.2h.15q.55.5-.4.2-.5-.2-.1-.4m-.6-.85.45-.1v.05q.8.5-.3.55-.4-.1-.15-.5M.7 4.35q-.45-.25 0-.3l.4.2q.3.55-.4.1m3.1-.15.15.15.25-.05h.05q.6.55-.45.5-.4-.15 0-.6m-1.1.25.25-.15.15.35q-.05.25-.4-.2m.55-.9v.2q-.15.25-.4.1-.7 0-.1-.5-.15.6.2.4l.3-.2M-13.4-6.5l-.7-1.4q-.95-2.1-2.65-3.9l-.05-.1-2.25-2.2.75.5 2.5 2.4-.05-.15 1.65 2.25 1.25 2.1.1.15-.2 1-.35-.65M-1.45 3l.2.15q-.3.6-.75.1.15-.6.5-.3h-.35l.2.4.2-.35m.35-1.1q-.3.5.15.3L-.8 2l.2-.05q.5.35-.3.6h-.25q-.4-.4 0-.7l.05.05m-3.2.7.1.35.4-.25.15.05q.2.65-.6.35l-.2-.25.15-.25m1.5.25-.15.2.05.05.2-.1.1-.05.15.25q-.05.4-.5.2-.6-.25.15-.55M-4 3.8q.1.55.65.2l.05-.1q.3.7-.65.35-.3 0-.2-.3l.1-.15H-4m-1.45.2q0 .65.5.15L-4.9 4q.6.15.05.55-.45.4-.65-.15l.05-.4m4.7-.15.55.05.05-.05q.35.25-.05.45-.85.15-.55-.45m-1.6-.15.1.05q.1.75.25.1l-.05-.2q.85.3.1.6-.75.1-.4-.55m-3.15-.9q-.15.7.3.1l-.1-.15h.05q.4.2.25.35-.7.55-.65-.15l.15-.15m-2.25 1.55.4-.5v.05l.05.25h.35l.05.1-.85.1m1.3-.4.2-.15.05-.2.1.3-.35.05-.2-.1q-.2-.25.2-.35v.45m-.3.8v.05h.05l.5.05.05-.2q.5.35-.05.45-.65.1-.55-.35" fill="#ffd75e" transform="translate(20.15 15.6)"/><path d="m3.3-1.35 1.5-.35-.1.15-1.65.5.05-.05.2-.25m-6.65-9.5.05.05.15.3-.1.05-.05.4-.05.05-.95.5q-.8.5-1.35 1.2-.95 1.3-.3 2.6l-.45-.85-.15-.7V-7q-.2-1.3.65-2.35l.45-.45-.65.95 1.6-1.05.7-.5q.15-.15.05-.25h-.45l.75-.15.1-.05M2.8-.75 4.25-1v.05L2.7-.6v-.05l.1-.1M-11.9-5.6l-.25-.35.2-.25.05-.2 1.35 1.1-1.2-.45-.15.15m-.95-1.25-.1-.15.1-.1.55.4-.55-.15M-9.7-4.5l.3.2.55.5-.85-.7m2.3 1.7 3.25 1.2-.25.25-3-1.45" fill="#f7b733" transform="translate(20.15 15.6)"/><path d="m-13.15-5.65-.5-.6.15-.15.1-.1.35.65.05.05-.15.15" fill="#f7d99b" transform="translate(20.15 15.6)"/><path d="m3.95-10.35-.35-.15q-.75-.25-.15.5L3-10.2l-.05-.25-.1-.05.3-.5.05-.05.75.7" fill="#f2c566" transform="translate(20.15 15.6)"/><path d="m-8.25-.8.35.15-1.5 2.3-.05-.05-.3.6-.45 1.45-.3 1.8.05.1.2.05.7-.15L-8.3 3.8q1.3-1.25 3-2.15l-.4.45-2.55 2.15-.15.15q-.8.9-1 2.15l.25.35.2.2.4.1 1.1-.15 3.55-.95 5.55-.25 3.55.8 2.9.55q.5.1.55-.3l.2-.3-.3-.95-.15-.3-.3-.55-.8-1.1-2.05-1.6L5 1.75l2.1 1.4L9.25 5.5l.75.15-.05-.3.05-.05q0-1.95-.95-3.55l-.2.15L7.8-.2l-.35-.4.35-.15Q10.3 2 10.4 5.6l1.35.8.7 1.65.1.05 1.1.75.85 1.75.25.1.5.5.85.8q1.45 1.05 2 2.8.9 2.7-1.1 4.85-.65.7-1.2.2l-.2-.3-.9-2.7-.3-.3q-.35-.3-.6-.25l-.4-.3-.05.05-3.55-.9-.45-.65-.55-4.2.2-.4.15-.05.15-.15v-.75L8.8 7.8l-1.15-.05-3.55-.9q-4.15-.95-8.55 0l-1.95.45q-1.45.55-2.9.5l-.7 1.95.5.15.2.4-.55 4.2-.7.75-1.2.1q-.8 0-1.45.5l-.3-.5 3-.75q.4-.2.25-.6l.05-.65.3-2.65q.05-.4-.45-.2l-.7.1-2.7 1-2.6 1.2q-1.35.75-1.85 2.3-.55 1.6.05 3.05l.4.7.75.6.5.3.15-.15q.2-.45.05-.6-.3-.15-.25-.5l.4-1.05q1.05-1.4 2.6-2.05l-.3.35.05.3-1.55 1-.7 2.9-.35.05q-.95-.15-1.15-.45l-.8-1.3q-.7-1.25-.35-2.7l.4-1.5q.15-.65.7-1.05l.95-.95q.45-.85 1.4-1.35l.25-.1.9-1.85 1.1-.65.1-.05.85-1.8 1.2-.65 1-3.3 1.6-3.1M2.1-4 1-3.85h-2.35l-1.1-.2L-.3-4.3l2.4.3M9.9 7.35l-.7.05-.05.05.4.9q.35.95 1.15.95l2.5.8.9.2-.65-1.3-.4-.3L9.9 7.35M9.55 5.8l-.15.05-.15.4.05.7 2.95 1.1-.3-.4-.5-1.2-1.05-.5-.85-.15m5.15 6.45-1.35-.65-2.95-1.05-.8-.1q-.55 1.05-.15 2.75l.55 1.4q2.65.3 5 1.8 1.25.9 1.3 2.1l-.3.85q-.2.15-.1.5l1.45-1q.9-1.75.45-3.6-.4-1.45-1.65-2.25l-1.45-.75m0-1.2-1.35-.7q-1.65-.85-3.2-.85H10l-.05.55q2.85.4 5.45 1.8l-.2-.4-.5-.4m-25.85-4.9-.15.05q-.35.05-.6.25-.2.8-.8 1.6l2.9-1.1q.35-.5.15-1.2l-1 .25-.5.15m-3.05 4.5-1.25.55-.25.25-.15.4q1.65-.95 3.65-1.45l1.75-.35-.1-.55-.25-.05h-.05V9.4l-1.55.45-2.05.85.25-.05m1.6-2.4-1.35.75q-.05.85-.9 1.55 1.95-.85 4.2-1.35l.1-.15.75-1.1q.45-.75-.35-.65l-2.45.95m2.75 6.25v-.05l-.05.05h.05" fill="#3a3629" transform="translate(20.15 15.6)"/><path d="m-7.9-.65 3.25.95 3.6.85L2.3.9 4.25.5q2 1.2 3.45-.45l.1-.25 1.05 2.1Q7.7 2.5 7.1 3.15L5 1.75l.25.35L7.3 3.7l.45.9-.1.15q-.8-1.45-2.3-1.95l-3-.75-3.35-.5-3.7.75q-1.95.55-3.2 1.65l-.35.35v-.05L-5.7 2.1l.4-.45q-1.7.9-3 2.15l-1.1-2.15 1.5-2.3m17.85 6 .05.3-.75-.15.4-.25.3.1m-20.2.25-.2-.05-.05-.1.25.15m23.3 3.1.4.3.65 1.3-.9-.2-2.5-.8q-.8 0-1.15-.95l-.4-.9.05-.05.7-.05-.2.05 3.35 1.3M10.4 5.95l1.05.5.5 1.2.3.4-2.95-1.1-.05-.7.15-.4.15-.05 1.2.7.5.05-.85-.6m0 4.6-.05.05 2.55.95 1.8.7 1.45.75q1.25.8 1.65 2.25.45 1.85-.45 3.6 0-1.15-1.05-2.1-1.2-1-2.55-1.75-1.3-.8-2.75-1.35l-.2-.15q-1.05-.8-1.05-2l-.15-1.05.8.1m4.3.5.5.4.2.4q-2.6-1.4-5.45-1.8L10 9.5h.15l4.55 1.55m-13.15-6 1.25.35-7.85.6 2.75-.7 2.65-.4 1.2.15M8 6.1l.2-.15v.1L8 6.1M-6.5.3l-.75-.6-.7.35-.05.8q.1.4.65.3l.7-.3.15-.55M-10.65 6l1-.25q.2.7-.15 1.2l-2.9 1.1q.6-.8.8-1.6.25-.2.6-.25l.15-.05-.15.1-.65.5q.75.1 1.95-.65l-.65-.1m-.15 3.45.25.05.1.55-1.75.35q-2 .5-3.65 1.45l.15-.4.25-.25 1.25-.55 1.65-.4 1.8-.75-.05-.05m.65-2.15q.8-.1.35.65l-.75 1.1-.1.15q-2.25.5-4.2 1.35.85-.7.9-1.55l1.35-.75-.7.55 3.2-1.4-.05-.1m-.9 3.3.7-.1-.6 2.45-.55 1-.55.1q-2.05.25-3.75 1.55-1.65 1.15-1.7 3.05l-.65-.5q-.6-1.45-.05-3.05.5-1.55 1.85-2.3l3.35-.95 1.75-.5q.7-.25.2-.75m1.2 3.9h-.05l.05-.05v.05" fill="#4f7b63" transform="translate(20.15 15.6)"/><path d="m4.25.5 1.6-.6 1.6-.5.35.4-.1.25Q6.25 1.7 4.25.5M8.1 4.8l.3.55-.2.6-.2.15q-.6.45-1.45.3l-3.75-1-1.25-.35 3.4.7 2 .4.7-.25v-.1l.1-.4-.1-.65.1-.15.1-.05.25.25m1.8 2.55 3.15 1.35L9.7 7.4l.2-.05m.5-1.4.85.6-.5-.05-1.2-.7.85.15m4.3 6.3-1.8-.7-2.55-.95.05-.05 2.95 1.05 1.35.65M10.15 9.5q1.55 0 3.2.85l1.35.7-4.55-1.55M-7.9 3.95l-.55 1.35.1.5.05.15.3.05h.35l.2.05h.15l.7-.25 3-.75L.35 4.9l-2.65.4-2.75.7q-1.4.75-2.65.8l-1.2-.65v-.3l.65-1.55.35-.35M-6.5.3l-.15.55-.7.3q-.55.1-.65-.3l.05-.8.7-.35.75.6m-.2 4.5h-.05v-.05l.05.05M-10.65 6l.65.1q-1.2.75-1.95.65l.65-.5.15-.1.5-.15m-.15 3.45.05.05-1.8.75-1.65.4-.25.05 2.05-.85 1.55-.45v.05h.05m-1.8-1.2 2.45-.95.05.1-3.2 1.4.7-.55m1.55 2.35q.5.5-.2.75l-1.75.5-3.35.95 2.6-1.2 2.7-1" fill="#a2c4b0" transform="translate(20.15 15.6)"/><path d="m8.85 1.9.2-.15Q10 3.35 10 5.3l-.05.05-.3-.1-.4.25L7.1 3.15q.6-.65 1.75-1.25M7.3 3.7l.8 1.1-.25-.25-.1.05-.45-.9m1.1 1.65.15.3.3.95-.2.3q-.05.4-.55.3l-2.9-.55-3.55-.8-5.55.25-3.55.95-1.1.15-.4-.1-.2-.2-.25-.35q.2-1.25 1-2.15l.15-.15v.05l-.65 1.55v.3l1.2.65q1.25-.05 2.65-.8l7.85-.6 3.75 1q.85.15 1.45-.3l.2-.05v-.1l.2-.6M-8.3 3.8l-1.25 1.65-.7.15-.25-.15.3-1.8.45-1.45.3-.6.05.05 1.1 2.15m17.9 6.65.15 1.05q0 1.2 1.05 2l.2.15q1.45.55 2.75 1.35 1.35.75 2.55 1.75 1.05.95 1.05 2.1l-1.45 1q-.1-.35.1-.5l.3-.85q-.05-1.2-1.3-2.1-2.35-1.5-5-1.8l-.55-1.4q-.4-1.7.15-2.75m-12-8.05h-.1l.1-.05v.05m8.85 3.15-.1-.1.05-.05.05.15m-2.7-2.9h.15l-.1.1-.05-.1M4.2 4.3v-.05l.05.05H4.2m-17.7 11.05-.05.05q-1.55.65-2.6 2.05l-.4 1.05q-.05.35.25.5.15.15-.05.6l-.15.15-.5-.3-.75-.6-.4-.7.65.5q.05-1.9 1.7-3.05 1.7-1.3 3.75-1.55l.55-.1.55-1 .6-2.45q.5-.2.45.2l-.3 2.65-.05.65q.15.4-.25.6l-3 .75M-1.1 1.9l-.05-.05.55.1-.2.05-.3-.1m-2.7.8-.2-.25.35.3-.15-.05m-.15 1-.05.1h-.05l.1-.1m1.75-.05-.05.1-.1-.05.15-.05m-5.15.2h.05l-.05.05v-.05" fill="#3d5f4b" transform="translate(20.15 15.6)"/><path d="m13.8 16.3-.25.85-.2-.85-1.25 2.55.7-.15-.65 1-.1.45q0-.65-.7-1.2v.25l.05.4.45 1.1.15-.25q-.1.6.15 1.1.85.15 1.25 1l-.2.45q2.1.8 2.5 2.9l-.55-.75q.5.8.3 1.85l-.3-.8q-1-.75-1.55-2.1h.2l.35.35.7.75-.05-.25v-.35l-.4-.45-.7-.55-.3-.15q-.55.25-.1.65v.15l-.25-.4-.05-.15v.05l-.05-.1v.55q0 .9.6 1.3l.1.05v-.1l.75.45.7.3.35 1.3-.55-.7-.1-.1.1.15-.9-.55q-.9-.5-1.3-1.65l.25 1.9q-.3-.7-.3-1.4-.05-.95-.4-1.55l-.45-.35-.3-.3-.1-.35.1-.45-.3-.5-.35.4-.05.05-.05-.1-.25-.35-.05-.1-.7.6q-3.05 3.9-7.95 4.4l-4.25-.3q-2.4-.7-4.45-2.1-.95-.7-1.45-1.8l-.4.3-.15-.05-.2-.35-.15.25.15.35-.05.3-.3.35-.5.15-.5.2-.45 1.2-.55 1.1-.8.75.65-.75-.9.75.35-.5-1.1.9.95-2-.85 1.2.9-1.75.95-1.35.05-.35.05-.35.15-.25.35-.25.15-.1.1-1.25-1.85-2.15q-.95-1.15-1.5-2.65l-.05-.3.3-.35.05-.05.3.5q1.4 2.4 3.4 4.05l.35-.3.4.5.15.05.15-.05.35-.25.6 1.3q4.75 2.05 9.85 2 4.35-.05 7.9-2.85l.4-.75.2-.3.15-.05.15-.1.5-.8.3.35 1.7-2.6.05-.05.4.3m-18.5 6.35-2.95-.85q.8.75 1.75 1.15l3.9.9 2.9.2 2.85-.55 2.85-.65L8.5 22l1.45-1.35H9.8q-1.25.65-2.45 1.45l-1.6.55-1.7.55-2.2.15-2.25-.05-2.15-.2-2.15-.45M5.7 25q1.55-.6 2.65-1.65l1.4-1.7.3-.7L7.1 23.7l.7-.35-.8.75-.05-.05-.2.15.05.05-1.1.65-1.25.5-1.4.3-2.1.1-2.05-.05-2-.45-2-.8q-1.45-.65-2.2-1.95l-.6-.4.1.1.25.55q.55 1.15 1.9 1.7l2.75 1 2.8.8 2.05-.15 1.15-.35 1.35-.3L5.7 25m-10.3-1.1-.45-.2 3.9.8 4-.05 2.3-.4 2.1-.75-1.85.9-1.9.75-2.05.3-2.4-.1-1.5-.35-.4-.15-1.25-.5-.3-.15-.2-.1-2.7-1.35 2.7 1.35.2.1.3.15 1.25.5.4.15 1.5.35 2.4.1 2.05-.3 1.9-.75 1.85-.9-2.1.75-2.3.4-4 .05-3.9-.8.45.2m3.65 1.25 1.55.35 3.45-.35q1.7-.4 3.05-1.45-1.35 1.05-3.05 1.45L.6 25.5l-1.55-.35M10.5 21.1q.5.45.4 0l-.4-1.15-.2.35.2.8m.3-1.25.3.65.1-.5-.4-.15m.5 1.1v-.1q-.25.55 0 .1m1.4 1.55-.2-.4-.45-.15q-.25 0-.3.35l.1.2.15.25.6-.15q.15.55.15-.05l-.05-.05m-25.2-4.85.25.35.4.55 1.35 1.5.1.1-.75-1.05-1.45-2-.9-1.3 1 1.85m2.05 4.7-.2.05-.05.15q-.05 1.25.95.3l.15-.15-.85-.35m-.7 2.4.1-.95-.05.05-.6.35-.45.65.1.25-.1.5-.35.75.85-.95.1-.05-.1.5.4-.7q-.05.4.1-.1v-.3m1.15-4.2-.05.15-.25.9q.65-.3.9-.95l-.05-.7-.55.6m1.85.45-.4-.6q-.7.7-.4 1.55l.05.1q.5.25.65-.45l.1-.6" fill="#4d351e" transform="translate(20.15 15.6)"/><path d="m13.55 17.15-.25.7-.5.85-.7.15 1.25-2.55.2.85m-1.5 3-.05.3-.15.25-.45-1.1q.5.2.25-.1l-.25-.35h-.05v-.2q.7.55.7 1.2m3.1 6.05h-.05l-.7-.3-.75-.45-.6-1.6.25.4.5 1-.15-.4-.35-.75q-.45-.4.1-.65l.3.15.7.55-.05.1-.65-.65.1.5h-.2q.55 1.35 1.55 2.1m-7.8-4.1q1.2-.8 2.45-1.45h.15L8.5 22l-1.9.85-2.85.65-2.85.55-2.9-.2-3.9-.9q-.95-.4-1.75-1.15l2.95.85 2 .5 2 .3 2.05.15 3.2-.35q1.6-.25 2.8-1.15m-.25 1.6 2.95-2.75-.3.7-1.4 1.7Q7.25 24.4 5.7 25v-.1l1.1-.65.2-.15.8-.75-.7.35m-4 2.1-1.15.35-2.05.15-2.8-.8-2.75-1q-1.35-.55-1.9-1.7l-.25-.55-.1-.1.6.4q.75 1.3 2.2 1.95l2 .8 2 .45 2.05.05 2.1-.1.05.1m10.05-8.55-.7 1.45.4-.3.3-1.15M10.5 20v-.05l.4 1.15q.1.45-.4 0l.15-.55-.15-.55m.3-.15.4.15-.1.5-.3-.65m1.25 2.1.45.15.2.4h-.05l-.05.05v.05l-.6.15-.15-.25q.35.4.3 0l-.1-.55m2.75 2.8v.2l.05.25-.7-.75.65.3m-1.25.75q-.6-.4-.6-1.3v-.55l.05.1.2.95.35.8m-25.4-6.95.2.15.5.4.75 1.05-.1-.1-1.35-1.5m-.75-1.45.1.55-1-1.85.9 1.3m1.9 5.45.5.1-.25-.3.85.35-.15.15q-1 .95-.95-.3m-.4 1.3.05-.05-.1.95q0-.15-.15-.15l-.15.2.35-.95m-.15 1.3-.4.7.1-.5.3-.3v.1m-.4.25-.85.95.35-.75q-.05.55.35-.2l.3-.45-.15.45m-.4-.3-.1-.25.45-.65-.35.9m2-4.4.6-.05h.05q-.25.65-.9.95l.25-.9m1.9.3-.1.6q-.15.7-.65.45l-.05-.1q-.3-.85.4-1.55-.55.75.15.75l.25-.15" fill="#741" transform="translate(20.15 15.6)"/><path d="m11.4 19.15.25.35q.25.3-.25.1l-.05-.4.05-.05m1.75-1.9-.3 1.15-.4.3.7-1.45M10.5 20l.15.55-.15.55-.2-.8.2-.3m2.2 2.5.05.05q0 .6-.15.05v-.05l.05-.05h.05m-.85 0-.1-.2q.05-.35.3-.35l.1.55q.05.4-.3 0m2.55 1.65.4.45v.15l-.65-.3-.35-.35-.1-.5.65.65.05-.1m-1.4-.4v-.05l.05.15.6 1.6v.1l-.1-.05-.35-.8-.2-.95m.3.5v-.15l.35.75.15.4-.5-1m-25.15-5.7-.4-.55-.25-.35-.1-.55 1.45 2-.5-.4-.2-.15m1.15 4 .05-.15.2-.05.25.3-.5-.1m-.4 1.3-.35.95.15-.2q.15 0 .15.15v.3q-.15.5-.1.1v-.1l-.3.3-.1.05.15-.45-.3.45q-.4.75-.35.2l.1-.5.35-.9.6-.35m1.05-3.15.05-.15.55-.6v.7l-.6.05m1.5-.3.4.6-.25.15q-.7 0-.15-.75" fill="#e49443" transform="translate(20.15 15.6)"/><path d="m5.7 25-1.25.5-1.35.3-.05-.1 1.4-.3 1.25-.5v.1m5.7-5.85-.05.05v-.05h.05m-.9.8V20l-.2.3.2-.35m-19.95.7v-.7l.05.7h-.05" fill="#875727" transform="translate(20.15 15.6)"/><path d="m-4.7 22.65 2.15.45 2.15.2 2.25.05 2.2-.15 1.7-.55 1.6-.55q-1.2.9-2.8 1.15l-3.2.35-2.05-.15-2-.3-2-.5m11.5 1.6-.05-.05.2-.15.05.05-.2.15" fill="#b86c27" transform="translate(20.15 15.6)"/></g></defs></svg>