<svg xmlns="http://www.w3.org/2000/svg" xmlns:xlink="http://www.w3.org/1999/xlink" width="100.7" height="92.9"><use xlink:href="#a" width="35.5" height="42.8" transform="translate(20.4 38.55)"/><defs><g id="a" fill-rule="evenodd"><path fill="#b8e2e1" d="m30.3 31.7-.5 2.05-2.9 7q2.75-8 3.6-16.4l-.2 7.35m-23.25 0 .55 2.35.85 2.95.8 2.75L7.3 34.9q-2.05-6-1.55-12.4l1.3 9.2M22.5 1.75l-.3.3q.1-.9.2-.6l.1.3M19.65 6.5l.5.05q3.55.3 6.1 2.65l1.7 2-.85-.75-7.6-3.85.15-.1m9.5 5.35-.15-1 .55.5.85 2.35-1.25-1.85M21.8 6.2h-.1l.2-.15-.1.15m-.35 0 1.15-2.25-.35 1.3-.8.95m-3.1.8q0 .3.15.6 1.2 2.55 3.5 4l-1.6-2.7q1.95 3.1 5.25 4.5l1.4 2.05-1.15-.65 1.65 1.55-6.5-5.1 2.15 3-1.3-2.15q2.3 3.45 6.15 5.85l-.45-.15.5.35-1.25-.6-.55-.35q-3.8-2-5.6-5.9l-.6-.75.8 2.15-2.8-3.35q2.8 3.55 4.25 8.1v.05l-1.85-2.8-.75-.7-.85-.35.75 4.6.7 1.75-1.55-2.5q-1.6-3.7-2.7-7.85l-.4-2.2-1.15 3.9 2.1 4.85.45.65.15.2.1.2.85 1.3-.7-.5-.15-.15-.05-.05-.15-.05.05.1.05.1.15.55-1.8-2.9-.95-2.4.3 1.1-1.35-3.2.8-3.1-1.45 1.8-4.65 4.1-2.25 5.15-.3 1.35-.3-.8-.3-.85 1.3-3-.8.45-.45 1.25.05-.8-.75.9.25-1.35L6.5 14.2l3.6-3.55-1.85 1.3.3-.5L4.3 14.9l-1.45.1.9-1.05.35-.15.15-.35 2.3-1.65 1.4-.65 6.75-4-5.15 2.2L9.5 9v-.15l-1.65.65 2.45-1.45.2-.1 4.05-1.55 3.8.6m8.55 6.65 1.2-.25-4.9-3.85.7.2-3.7-2.5 1.1.45q3.5 1.45 6 4.3l-.75-1.45 1.6 1.85L30 15.95l.1-.55.45 1.3.3 1.6-.35 2.05-.15.4-.25-.95v-.75L29.5 16l.05 2.1-.7-1.6.05.45-.8-1.55-1.2-1.75M18.7 6.4l-.25.45-1.9-1.65.2 1.05-1.75-.3.05-.95 1.55-.6 2.1 2m11.7 5.95 1 1.6.4 1.15v-.8l.55.7q1.35 1.8 1.1 4.2l-1.3-2.2-.1-.25v-.1l-.65-.3-1-4m-8 5.05-.6-2.65.95 2.1-.35.55m-4.2-.75.05.15-.75-1-1.75-5.8 2.45 6.65M7.65 9.05 7.8 9l-.1.1.4-.1-1.6 1.05.4.15-.8-.2 1.55-.95m5.2 1 .15 1v.3l.15.45.05-.05 1.45 4.95 1.65 2.55-2.05-2.2-1.4-4.15-.3 2.1-.9 1.05-.35-.95 1.05-2.65.45-.25-.05-.5v-1.45l-.4 1.35-1.75 3-1.5.3L7.65 17l-.6 2.9.4-2.6-.5.75-.35.45.55-1.4q2.15-4 5.7-7.05m-11.1 8.6 1.2-1.1.9 1.1q1.1 1.3-.3 1.6h-.1l-2-.6.3-1"/><path fill="#344b49" d="m22.05.2.5.85q1.6 2.3.9 4.85l2.2.85q3.5 1.55 5.25 4.65l-.05-.05.05.05.05.05 1.05 1.8 1.8 2.4q1.55 2 1.7 4.4l-4.3 5.3-.9 6.35.2-7.35q-.85 8.4-3.6 16.4l2.9-7-1.35 4.6q-.75 2.6-2.8 4.45 4.15-9.1 3.95-18.9l-.9.45-.5-4.05-5.25-3.4-.2-.05-.75-2.1.15-.1q2.35 3.3 5.95 5.05l.45.2-.45-4.5.8 1.55.4 4.95.6-2.15.2.05.25.95h.1l.05-.4.35-2.05.15-.7.25-.05.5 4.8.15-5.55.15-.05.1.25.15 5.1 1.15-2.9q.25-2.4-1.1-4.2l-.55-.7-.4-.35-1-1.6-.85-1-.55-.5-.15-.35-.8-.6-6.25-3.7.1-.15.35-.8.35-1.3-.1-2.2-.1-.3q-.1-.3-.2.6 0 1.85-.75 3.15-.75 1.3-1.8 1.3l-.15.1-.3.05q-.3-.05-.5-.25l-2.1-2-1.55.6L7.8 9l-.15.05L6.1 10l.8.2.55.3q.6-.15.5.65l-1.4.65-2.3 1.65-.5.5-.9 1.05 1.45-.1 1.5-.1-1.05 1.45-.25 1.35.95 2.05.3.8.25.6.05-1.95.9 2.2v-3.25l.5-.75-.4 2.6.6-2.9h.05l-.15 3.25 3.8-4.25.2.75 1.45-.6.9 1.05-.3-.6.65.45 2.05 2.2-1.65-2.55 4.9 3.8-2.3-2.5-.05-.1.05-.05h.05l.05.05.15.15 3.2 2.7-.5-.65.15-.1-.7-1.75 1 1.5.1.5.15-1.55.1.25v-.9l.15-.1L21 21.7q-5.25-.65-8.2-5.3l-1.35 1.2-.35-1.3-3.25 4.1.1 4.25-1-.7-.1.05-.2 2.05.4.7v4.95l-1.3-9.2q-.5 6.4 1.55 12.4l1.95 4.85-.8-2.75.15-.05 1.25 3.3-.05.05h-.05v.05l.4 1.9Q9.5 41.8 9 40.8q-3.75-7-4.25-14.75L4.8 26l-.05-.05V26l-4.2-5.55 1.95-4.4-2.5.55q2.2-3.95 6.55-5.7l-1.85-.4 5.55-3.85q3.35-2.45 7.4-2.85l2.2 1.7 2.1-5.25.1-.05M1.75 18.65l-.3 1 1.3 2.95-.35-1.95.1-.05 1.15 2.1-.2-2.45h.1l.7 1.85-.1-1.75h.1l.45 1.1v-2.1q-.85-.45-.9-1.45l-.2-1.15-1.85 1.9M7.7 24.2l.05-.6-.5-.15.45.75"/><path fill="#739b99" d="m30.9 11.4.1.05h-.05l-.05-.05m-4.65-2.2-.3-.5 2 2.5L29.4 13l-.25-1.15 1.25 1.85-.85-2.35.85 1 1 4 .65.3-.15.15-.15 5.55-.5-4.8-.4-1L31 17.6l-.15.7-.3-1.6-.45-1.3-.1.55-1.85-3.55-1.05-1.95.85.75-1.7-2m-4.55-3-.3.1.05-.1.8-.95-.35.8-.2.15m3.95 7.2-1.45-2.15-.65-.75 3.35 3.15 1.2 1.75.45 4.5-.45-.2q-3.6-1.75-5.95-5.05h-.1l-.05.1.75 2.1-.95-2.1.6 2.65-.05.05q-1.45-4.55-4.25-8.1l2.8 3.35-.8-2.15.6.75q1.8 3.9 5.6 5.9l1.45 1.3-.9-.95 1.25.6-.5-.35.45.15q-3.85-2.4-6.15-5.85l1.3 2.15-2.15-3 6.5 5.1-1.65-1.55 1.15.65-1.4-2.05m-7.2-6.55-.1.15-3.8-.6-.1-.05q-.05-.3.55-.4l1.75.3-.2-1.05 1.9 1.65m-8.15 1.2L7.85 9.5l1.65-.65V9l.05.35 5.15-2.2-6.75 4q.1-.8-.5-.65l-.55-.3-.4-.15L8.1 9l2.2-.95m-6 6.85 4.25-3.45-.3.5L6.5 14.2l-1.75 2.05L5.8 14.8l-1.5.1m.2 2.7.75-.9-.05.8.45-1.25.8-.45-1.3 3 .3.85-.95-2.05m1.25 2.85.3-1.35 2.25-5.15 4.65-4.1.05-.05-.15.25Q9.3 13.1 7.15 17.1l-.55 1.4.35-.45v3.25l-.9-2.2L6 21.05l-.25-.6m7.85-9.3 1.35 3.2.65 1.3 1.8 2.9-.15-.55 2.3 2.5-4.9-3.8-1.45-4.95.4-.6m3.6 6.75-.05-.1.15.05h-.05l-.05.05m3.3-3.2 1.85 2.8-.7.55-.6-.6-.55-2.75m10.9-.75.4.35v.8l-.4-1.15m2.05 5.25-1.15 2.9-.15-5.1 1.3 2.2m-3.55.55-.6 2.15-.4-4.95-.05-.45.7 1.6-.05-2.1.6 3.05-.2.7M7.65 17l1.45-2.1 1.5-.3 1.75-3 .4-.35v.45l-.25.3-.15.45-1.05 2.65.35.95.9-1.05.3-2.1 1.4 4.15-.65-.45.3.6-.9-1.05-1.45.6-.2-.75-3.8 4.25L7.7 17v-.05l-.05.05M13 11.35v-.3l.6-.5-.6.8m-9.45 8.9q1.4-.3.3-1.6l-.9-1.1-1.2 1.1 1.85-1.9.2 1.15q.05 1 .9 1.45v2.1l-.45-1.1v-.05l-.1.05.1 1.75-.7-1.85m-2.1-.6 2 .6.2 2.45-1.15-2.1-.1.05.35 1.95-1.3-2.95M7.7 24.2l-.45-.75.5.15-.05.6"/><path fill="#425e5c" d="M21.95.25 21.9.1q.1-.25.15.1l-.1.05m1 16.65-.5 2.35-1.3-1.3-.15.1v.9l-.1-.25-.15 1.55-.1-.5-1-1.5-.75-4.6.85.35.75.7.55 2.75.6.6.7-.55v-.05l.05-.05.35-.55.2.05m-16 7.05.35.6-.45-.55.1-.05m.65 10.1 1 2.9-.15.05-.85-2.95m-2.85-8v-.1l.05.05-.05.05M26.3 17.2l.55.35.9.95-1.45-1.3m5.75-.45-.15.05.15-.15v.1m-.8.8-.25.05-.15-1.05.4 1m-.75 2.8-.05.4h-.1l.15-.4m-.4-.55-.2-.05.2-.7v.75m-7.95-5.15-.15.1.05-.1h.1m-2.4-.65.45 2.8-.1-.55.8 2.45-.8-2.45.1.55-.45-2.8m.9 5.75v-.05l-.45-2.9.45 2.9v.05M7.7 17h-.05l.05-.05V17m-3.55 3.35.1-.05v.05h-.1"/><path fill="#fff" d="m22.2 2.05.3-.3.1 2.2-1.15 2.25-.05.1.3-.1h.1l6.25 3.7.8.6.15.35.15 1L29.4 13l-1.45-1.8-2-2.5.3.5q-2.55-2.35-6.1-2.65l-.5-.05q1.05 0 1.8-1.3t.75-3.15m3.45 11.35q-3.3-1.4-5.25-4.5l1.6 2.7q-2.3-1.45-3.5-4-.15-.3-.15-.6l.1-.15.25-.45q.2.2.5.25l.3-.05 7.6 3.85 1.05 1.95-1.6-1.85.75 1.45q-2.5-2.85-6-4.3l-1.1-.45 3.7 2.5-.7-.2 4.9 3.85-1.2.25-3.35-3.15.65.75 1.45 2.15m-11.1-7L10.5 7.95l-.2.1L8.1 9l-.4.1.1-.1 7.25-4-.05.95q-.6.1-.55.4l.1.05m-10.3 7.05-.15.35-.35.15.5-.5m4-1.5 1.85-1.3-3.6 3.55 1.75-2.25m4.7-2.1 1.45-1.8-.8 3.1-.4.6-.05.05-.15-.45.6-.8-.6.5-.15-1L13 9.8l-.05.05m2 4.5-.3-1.1.95 2.4-.65-1.3m2.55 3.7.7.5-.85-1.3-.1-.2-.15-.2-.45-.65-2.1-4.85 1.15-3.9.4 2.2q1.1 4.15 2.7 7.85l1.55 2.5-.15.1.5.65-3.2-2.7m.7-1.4.5.65.1.2-.1-.2-.5-.65L15.75 10l1.75 5.8.75 1-.05-.15m2 3.45-1.5-2.8 1.5 2.8m-2.85-2.85-.8-2.55.95 1.1-.95-1.1.8 2.55m-5-5.65.4-1.35v1l-.4.35m.4.1.05.5-.45.25.15-.45.25-.3"/></g></defs></svg>