<svg xmlns="http://www.w3.org/2000/svg" xmlns:xlink="http://www.w3.org/1999/xlink" width="100.7" height="92.9"><use xlink:href="#a" width="36.6" height="22.45" transform="translate(16.45 42.05)"/><defs><g id="a"><path fill="#bcd2e9" fill-rule="evenodd" d="M17.2 2.85V2.7l-.1-.4-.05-1.55.05-.05 1.95.75.45.25q1.8 1 2.45 1.7l.2.25L23.6.6q.6-.25 1 .8.45 1.05.2 2.1l-.15.95L25.5 3q2.1-1.3 3.15-1.3l.35.25q.15.45-.2 1.8l-.2.7-.1.35 2.05-.35.3.35-.05 1.05-.05.2v.05q2.35.9 3.75 3.25l.85 1.9.3.95q.5 2-.25 4.35l-.75 1.7q-.35.35-.65.2-.3-.15-1.15-2.7-.9-2.7-2-3.55-.35-.3-.8-.5l-.75 2.45q-1.25 3.2-2 3.1-.4-.05-.65-1.8-.3-2.05-.85-2.75l-1.85-1.75-.45-.5h-.25l-.55 1.65q-.8 1.6-2.45 2.1-.8-1.75-.8-2.35l.05-.2-1.15.65q-2.65 4.6-3.1 4.6-.4 0-.7-1.5-.35-1.6 0-2.5l.9-1.35-1.05.5q-1.2.7-2.95 3.35l-2 2.65-.05.05-1.35 3.4q-2.35.8-4.6-1.2-3.6-3.3-2.5-7.45.55-2.1 1.8-3.55.5 4 2.35 2.2l.55-.85.95-1.45 1.35-1.95q2.15-3.15 5.5-4 1.3-.3 3.3-.05l.55.1-.1-.45"/><path fill="none" stroke="#69c" stroke-linecap="round" stroke-linejoin="round" d="M8.05 21.5q-1.4 1.05-4.35-.35Q.75 19.7.5 15.45q-.25-4.1 2.25-6.15L3 10.45q.35 1.2.95 1.5.6.2 1.7-1.3L6.6 9.2Q9.1 5 11.1 4q2.6-1.3 6.1-1.15"/><path fill="none" stroke="#69c" stroke-linecap="round" stroke-linejoin="round" d="M17.2 2.85V2.7l-.1-.4-.05-1.55.05-.05 1.95.75.45.25q1.8 1 2.45 1.7l.2.25L23.6.6q.6-.25 1 .8.45 1.05.2 2.1l-.15.95L25.5 3q2.1-1.3 3.15-1.3l.35.25q.15.45-.2 1.8l-.2.7-.1.35 2.05-.35.3.35-.05 1.05-.05.2v.05q2.35.9 3.75 3.25l.85 1.9.3.95q.5 2-.25 4.35l-.75 1.7q-.35.35-.65.2-.3-.15-1.15-2.7-.9-2.7-2-3.55-.35-.3-.8-.5l-.75 2.45q-1.25 3.2-2 3.1-.4-.05-.65-1.8-.3-2.05-.85-2.75l-1.85-1.75-.45-.5h-.25l-.55 1.65q-.8 1.6-2.45 2.1-.8-1.75-.8-2.35l.05-.2-1.15.65q-2.65 4.6-3.1 4.6-.4 0-.7-1.5-.35-1.6 0-2.5l.9-1.35M9.4 18.1l-1.35 3.4Z"/><path fill="#fff" fill-rule="evenodd" d="m28.5 3.55-.85 1.35-1.05.3.95-1 1.1-2q.1.75-.15 1.35m-5 1 .05-1.35.55-2 .4 2.1q0 .4-1 1.25m8.35 2.8q1.65 1.1 2.25 2.45 1 2.15.7 7-.75-5.4-1.35-6.65l-3.15-3.6 1.55.8m-10.6 4.3q.3-.85.6-3.75l.7 2.55q0 1.1-2 2.85l.7-1.65m.65-7.95-.05.6-2.1-1.15-2.35-2.1 2.55 1q1.1.6 1.95 1.65m6 11.95q.6-2.6.4-4.25-.15-1.7-2.25-4.35 3.5 2 3.65 3.85.2 1.8-1.8 4.75"/><path fill="#9fbfdf" fill-rule="evenodd" d="m23.35 5.25 2.1-1.4.15.05q.8-.5 1.1-.4.25.15-.9 1.85l1.9-.05 1.5-.05-1.3 1.2.85.8q1.4.35 2.8 1.85l.8 1.3.25 1.8q.5 2.05.7 4.8l-.9-2.5q-.35-1.1-1.4-2.1l-1-.8v-1.1q-.3-1.2-1.85-2.95L26.4 7.1l.55.35q.4.1 1.05 2.5l-2.9-2.2.6 1.55 1.15 2.65q.75 1.65-.05 4.15l-.4-2q-.05-.65-1-1.85l-1.45-1.4-.5-.55-.25-.1-1.1-1.5q-.25 2.55-.7 3.35l-1.15 2.15q-.85-2.55-.85-3.9V8.25l-3.15 2.55q-.6 1.2-1.65 4.75-.3-1.8-.05-2.65l.4-.9-2.1 1.35 1.3-2.35 1.15-1.9 2-1.95q-.8 0-2.2.9L13.15 9.3l-1.9 2.4-2.1 6.1q-.55-3.85.35-6.15l-.2.15q1.45-4.15 3.9-5.15l2.3-.85q.55-.55 1.05-.6l2.15.05-.4-.7-.2-1.35q.95.15 3.8 1.95.35-1.3.8-1.55.65-.3.65 1.65"/><path fill="#9fbfdf" fill-rule="evenodd" d="M10 6.95q1.35-1.7 4.6-1.7l-3.4 5.2L8 22.1q-1.65.9-5.25-2.15-3.5-3.1-2-7.2l.75 2.75q1.25 2.55 3.6 1.6 1.15-.45 1.65-3.4.55-3.35 3.25-6.75"/><path fill="none" stroke="#69c" stroke-linecap="round" stroke-linejoin="round" d="M34.65 18.25q2.5-2.6.7-7l-.1-.25-.75-1.65q-1.65-3-3.75-3.3h-.05l.1-.2.05-1.05-.1-.1-2.3.1.15-.35q.75-1.95.4-2.5l-.15-.15q-.45-.3-2.25.8l-1.75 1.1q.3-3.25-1-3.2-.85.05-1.5 1.55l-.4 1.35-.05.15-2.85-2.1L17.1.7l-.05.05q-.3.35.15 1.95v.1l.6 1.75-.9-.35q-.95-.3-1.15 0l-.3 1.8q-2.95-.05-5 3.35Q8.4 12.8 9.1 18.1l.05.55"/></g></defs></svg>