<svg xmlns="http://www.w3.org/2000/svg" xmlns:xlink="http://www.w3.org/1999/xlink" width="100.7" height="92.9"><use xlink:href="#a" width="28.6" height="22" transform="translate(24.15 41.75)"/><defs><g id="a"><path fill="#bd0000" fill-rule="evenodd" d="M14.7 4.75v.1l-.05-.05h-.05l-.4-3.05.5 3-.05.05.05-.05m5.4-1.85.3 3q1.3-1 3-2 1.35 3.1.3 5.65.25-2.05-.3-5.65l-3.05 2.2-.25-3.2M8.7 10.15l.55-1.6.65-1.4-1.15 2.95-.15.45.1-.4.05-.05-.05.05m13.75 1.3h.05l-.05.05v-.05"/><path fill="#bcd2e9" fill-rule="evenodd" d="M17.45 5.8Q17 6.85 16.6 9.5l3.35-2.35-.65-5.25-1.85 3.9m-2.75-.95q2.05-2.15 3.95-3.55l1.2-.8.15 1.35.1 1.05.25 3.2 3.05-2.2q.55 3.6.3 5.65l-.2.85-.3 1.7.75.7q1.75 2.05 2.85 4.35 1 2.05 1.3 4.35-.65-.75.2.45l-4.8-5.85q-1.6-2.6-2.75-3.2l-3.1.25-.2.05-3.6.65-3.1-.85q-1.8-.65-2.65-.25-1.2.6-3.6 4.75-1.15 1.85-4 3.85.9-2.85 2.9-6.2t5.3-5l-.1.4.15-.45L9.9 7.15l1.4-2.2 2-2.3.9-.9.4 3.05h.05l.05.05m7.75 6.6.7-3.1-.15-3.5q-1.35 1.35-2.2 3.6l-.2 1.8 1.25 1.05.6.15v.05l.05-.05h-.05m-8.55-8.2-.1.25-.95 2.3-.35 2.45 1.75-2.4-.35-2.6"/><path fill="#fff" fill-rule="evenodd" d="m17.45 5.8 1.85-3.9.65 5.25L16.6 9.5q.4-2.65.85-3.7m5 5.65-.6-.15-1.25-1.05.2-1.8q.85-2.25 2.2-3.6l.15 3.5-.7 3.1m-8.55-8.2.35 2.6-1.75 2.4.35-2.45.95-2.3.1-.25"/><path fill="none" stroke="#69c" stroke-linecap="round" stroke-linejoin="round" d="M18.65 1.3 17.6 2l-2.9 2.75-.05.05h-.05l-.4-3.05-.9.9-2 2.3-1.4 2.1v.1L8.75 10.1l-.15.45M18.65 1.3l1.2-.8.15 1.35.1 1.05.25 3.2 3.05-2.2q.55 3.6.3 5.65l-.2.85-.3 1.7.75.7q1.75 2.05 2.85 4.35 1 2.05 1.3 4.35M.5 21.35q.9-2.85 2.9-6.2t5.3-5l.05-.05"/></g></defs></svg>