<svg xmlns="http://www.w3.org/2000/svg" xmlns:xlink="http://www.w3.org/1999/xlink" width="100.7" height="92.9"><use xlink:href="#a" width="49.6" height="35" transform="translate(13.75 38.65)"/><defs><linearGradient id="b" x1="-819.2" x2="819.2" gradientTransform="matrix(0 -.0064 .0071 0 12.6 17.85)" gradientUnits="userSpaceOnUse" spreadMethod="pad"><stop offset="0" stop-color="#4b4b4b"/><stop offset=".561" stop-color="#a7a7a7"/><stop offset="1" stop-color="#fff"/></linearGradient><linearGradient id="c" x1="-819.2" x2="819.2" gradientTransform="matrix(0 -.0068 .0078 0 -13.65 17.85)" gradientUnits="userSpaceOnUse" spreadMethod="pad"><stop offset="0" stop-color="#4b4b4b"/><stop offset=".561" stop-color="#a7a7a7"/><stop offset="1" stop-color="#fff"/></linearGradient><linearGradient id="d" x1="-819.2" x2="819.2" gradientTransform="matrix(0 -.0076 .0297 0 -.75 6.75)" gradientUnits="userSpaceOnUse" spreadMethod="pad"><stop offset="0" stop-color="#4b4b4b"/><stop offset=".561" stop-color="#a7a7a7"/><stop offset="1" stop-color="#fff"/></linearGradient><linearGradient id="e" x1="-819.2" x2="819.2" gradientTransform="matrix(0 -.011 .0113 0 -.45 -.1)" gradientUnits="userSpaceOnUse" spreadMethod="pad"><stop offset="0" stop-color="#4b4b4b"/><stop offset=".561" stop-color="#a7a7a7"/><stop offset="1" stop-color="#fff"/></linearGradient><g id="a"><path fill="#c00" fill-rule="evenodd" d="m9.6 25.7.75-4.05.95-3.05q.9-2.5 2.6-5.7l.2-.4.4-.75L15.55 10l1.25-1.7 1.55-1.35 2-1.25 4.35-.8 2.45.2.65.2 1.1.55 2 1.45q1.65 1.5 3.2 3.9l.55.85q2.55 4.2 4.2 8.8L40 25.1 36.35 27q-.25-.15-.1-.5-9.6-24.95-19.45-8.15l-.15.25q-1.9 3.25-3.75 8.05l-.05.05 1.05 1.15-4.3-2.15"/><path fill="url(#b)" fill-rule="evenodd" d="M11.45 15.9 15.1 14l3.3-1.4-1.3 5.1-6 5.35-4.4-4.65q3.05-.75 4.75-2.5" transform="translate(24.9 11.1)"/><path fill="#f36" fill-rule="evenodd" d="M13.25 34.5q-2.45-1.65-4.5-3.9l.05-.25 4.45 4.15"/><path fill="url(#c)" fill-rule="evenodd" d="m-15.3 14.6 4.3 2.15q1.5 1.3 3.7 1.8l-4.35 4.85-4.45-4.15-2.7-2.55-1.2-4.4 4.7 2.3" transform="translate(24.9 11.1)"/><path fill="none" stroke="#fff" stroke-linecap="round" stroke-linejoin="round" d="m9.6 25.7 4.3 2.15 3.7 1.8M36.35 27 40 25.1l3.3-1.4m-11.7 5.8 4.75-2.5M4.9 23.4l4.7 2.3"/><path fill="none" stroke="#666" stroke-linecap="round" stroke-linejoin="round" d="M43.3 23.7 42 28.8l-6 5.35m-27.2-3.8L6.1 27.8l-1.2-4.4m3.9 6.95 4.45 4.15"/><path fill="none" stroke="#999" stroke-linecap="round" stroke-linejoin="round" d="m36 34.15-4.4-4.65m-18.35 5 4.35-4.85"/><path fill="url(#d)" fill-rule="evenodd" d="M-24.4-10q6.95 3.8 15.05 7.75l1.25.6L-.4 1.9l24.6-12.5L-.4 14l-24-24" transform="translate(24.9 11.1)"/><path fill="none" stroke="#fff" stroke-linecap="round" stroke-linejoin="round" d="M.5 1.1q6.95 3.8 15.05 7.75l1.25.6m0 0L24.5 13 49.1.5"/><path fill="none" stroke="#666" stroke-linecap="round" stroke-linejoin="round" d="M49.1.5 24.5 25.1l-24-24"/><path fill="url(#e)" fill-rule="evenodd" d="M-.45-9.35q2.75 1.5 4.7 4.25Q6.2-2.35 6.2 1.55q0 1.95-.5 3.65l-6.2 4-6.1-4q-.5-1.7-.5-3.65 0-3.9 1.95-6.65 1.95-2.75 4.7-4.25" transform="translate(24.9 11.1)"/><path fill="#fff" fill-rule="evenodd" d="m25.4 9.9-.85-.2h-1.2v1.65h1.15l.9-.25.2-.6-.2-.6m2.15-1.3q.7.6.7 1.5 0 .75-.5 1.3l-.9.6q.9.2 1.35.75.45.55.45 1.35l-.35 1.2-.85.85-1 .3-1.2.1H20.7v-8.6h4.95q1.25 0 1.9.65m-1.85 4.6-1-.25h-1.35v1.75h1.35l1-.25.25-.65-.25-.6"/><path fill="#666" fill-rule="evenodd" d="m25.4 9.9.2.6-.2.6-.9.25h-1.15V9.7h1.2l.85.2m.3 3.3.25.6-.25.65-1 .25h-1.35v-1.75h1.35l1 .25"/><path fill="none" stroke="#666" stroke-linecap="round" stroke-linejoin="round" d="M27.55 8.6q.7.6.7 1.5 0 .75-.5 1.3l-.9.6q.9.2 1.35.75.45.55.45 1.35l-.35 1.2-.85.85-1 .3-1.2.1H20.7v-8.6h4.95q1.25 0 1.9.65Z"/></g></defs></svg>