<svg xmlns="http://www.w3.org/2000/svg" xmlns:xlink="http://www.w3.org/1999/xlink" width="100.7" height="92.9"><use xlink:href="#a" width="18.5" height="9.1" transform="translate(29.4 46.05)"/><defs><g id="a" transform="translate(9.25 4.6)"><use xlink:href="#b" width="6.2" height="9.05" transform="translate(-9.25 -4.55)"/><use xlink:href="#b" width="6.2" height="9.05" transform="matrix(-1 0 0 1 9.25 -4.6)"/></g><g id="c"><path fill="#cce4ff" fill-rule="evenodd" d="m.5 8.55.7-4.35q.35-1.45 1.1-2.45l.2.9q.4 2.15.4 4.4l-.4.55q-1.35 1.5-2 .95"/><path fill="#fff" fill-rule="evenodd" d="m2.5 7.6.4-.55q0-2.25-.4-4.4l-.2-.9L3.75.5 5.7 6.2 2.5 7.6"/><path fill="none" stroke="#69c" stroke-linecap="round" stroke-linejoin="round" d="M2.3 1.75q-.75 1-1.1 2.45L.5 8.55m1.8-6.8L3.75.5 5.7 6.2"/></g><use xlink:href="#c" id="b" width="6.2" height="9.05"/></defs></svg>