<svg xmlns="http://www.w3.org/2000/svg" xmlns:xlink="http://www.w3.org/1999/xlink" width="100.7" height="92.9"><g transform="translate(38.65 49.75)"><use xlink:href="#a" width="31.85" height="21.7" transform="translate(-16.3 -.2)"/><use xlink:href="#b" width="13.1" height="13.15" transform="translate(-19.15 10.35)"/><use xlink:href="#b" width="13.1" height="13.15" transform="matrix(-1 0 0 1 18.75 10.35)"/><use xlink:href="#c" width="5.2" height="26.15" transform="translate(-3.05 -16)"/></g><defs><g id="a"><path fill="url(#d)" fill-rule="evenodd" d="M15.05 14.65Q13.2 19.5 7.6 21q1.85-3.1 1.75-7.45-.05-3.8-1.3-5.5-3.75-5.1-8.3 1.6l-.15-.2-.05-.1q-4.4-6.1-7.9-1.45-1.1 1.4-1.45 4.9-.5 4.8 2.1 8.2-5.65-1.1-8.1-6.4Q-11.2 1.4-2.15 0L-.1-.2l1.4.05q9.3.85 13.75 14.8" transform="translate(16.3 .2)"/><path fill="none" stroke="#ad6001" stroke-linecap="round" stroke-linejoin="round" d="M.5 14.8q2.45 5.3 8.1 6.4Q6 17.8 6.5 13q.35-3.5 1.45-4.9 3.5-4.65 7.9 1.45l.05.1.15.2q4.55-6.7 8.3-1.6 1.25 1.7 1.3 5.5.1 4.35-1.75 7.45 5.6-1.5 7.45-6.35"/></g><g id="g"><path fill="url(#e)" fill-rule="evenodd" d="M14.15 9.5 12 10q3.6 2.6-.8 1.7l.85 1.65q-2.9.4-5.5-.75-3.4-1.5-4.3-5.1l.1-.05-.1-.1q-.65-2.85 1-4.85l1.2-1.2 6.6 5.8 3.1 2.4m-10.9-7Q6.6 9.45 12 10q-5.4-.55-8.75-7.5m7.95 9.2q-4.15-.2-8.85-4.25 4.7 4.05 8.85 4.25" transform="translate(-1.55 -.8)"/><path fill="url(#f)" fill-rule="evenodd" d="M2.25 7.5v-.15l.1.1-.1.05" transform="translate(-1.55 -.8)"/><path fill="none" stroke="#ad6001" stroke-linecap="round" stroke-linejoin="round" d="M10.5 12.55q-2.9.4-5.5-.75Q1.6 10.3.7 6.7v-.15Q.05 3.7 1.7 1.7L2.9.5l6.6 5.8 3.1 2.4"/><path fill="none" stroke="#379d6f" stroke-linecap="round" stroke-linejoin="round" d="m.7 6.55.1.1"/><path fill="none" stroke="#d66b03" stroke-linecap="round" stroke-linejoin="round" d="M.8 6.65q4.7 4.05 8.85 4.25m.8-1.7q-5.4-.55-8.75-7.5"/></g><g id="c"><path fill="#c09602" fill-rule="evenodd" d="M.5 18.1 2.6.5l2.1 17.9-1.9 7.25L.5 18.1"/><path fill="none" stroke="#ad6001" stroke-linecap="round" stroke-linejoin="round" d="M.5 18.1 2.6.5l2.1 17.9-1.9 7.25L.5 18.1Z"/></g><linearGradient id="e" x1="-819.2" x2="819.2" gradientTransform="matrix(-.0039 -.0023 .0029 -.0051 9.5 7.3)" gradientUnits="userSpaceOnUse" spreadMethod="pad"><stop offset="0" stop-color="#fff"/><stop offset="1" stop-color="#c09602"/></linearGradient><linearGradient id="f" x1="-819.2" x2="819.2" gradientTransform="matrix(-.0039 -.0023 .0029 -.0051 9.5 7.3)" gradientUnits="userSpaceOnUse" spreadMethod="pad"><stop offset="0" stop-color="#fff"/><stop offset="1" stop-color="#44bd97"/></linearGradient><radialGradient id="d" cx="0" cy="0" r="819.2" gradientTransform="translate(-.5 3.75) scale(.0196)" gradientUnits="userSpaceOnUse" spreadMethod="pad"><stop offset="0" stop-color="#fff"/><stop offset=".533" stop-color="#ffcf0a"/><stop offset="1" stop-color="#b48b01"/></radialGradient><use xlink:href="#g" id="b" width="13.1" height="13.15"/></defs></svg>