<svg xmlns="http://www.w3.org/2000/svg" xmlns:xlink="http://www.w3.org/1999/xlink" width="100.7" height="92.9"><g transform="translate(38.65 49.75)"><use xlink:href="#a" width="4" height="4" fill="red" stroke="#c00" style="fill:#ccc;fill-opacity:1;stroke:#999;stroke-opacity:1" transform="translate(-15.4 8.75)"/><use xlink:href="#a" width="4" height="4" style="fill:#ccc;fill-opacity:1;stroke:#999;stroke-opacity:1" transform="translate(10.9 8.95)"/><use xlink:href="#a" width="4" height="4" style="fill:#ccc;fill-opacity:1;stroke:#999;stroke-opacity:1" transform="translate(9.4 -.35)"/><use xlink:href="#b" width="26.95" height="21.45" transform="translate(-14.25 -14.45)"/><use xlink:href="#a" width="4" height="4" style="fill:#ffcc28;fill-opacity:1;stroke:#ff991e;stroke-opacity:1" transform="translate(7.65 .9)"/><use xlink:href="#a" width="4" height="4" style="fill:#ccc;fill-opacity:1;stroke:#999;stroke-opacity:1" transform="translate(5 1.55)"/><use xlink:href="#a" width="4" height="4" style="fill:#ffcc28;fill-opacity:1;stroke:#ff991e;stroke-opacity:1" transform="translate(-15.25 -4.6)"/><use xlink:href="#a" width="4" height="4" style="fill:#ccc;fill-opacity:1;stroke:#999;stroke-opacity:1" transform="translate(-13.9 -3.35)"/><use xlink:href="#a" width="4" height="4" style="fill:#ffcc28;fill-opacity:1;stroke:#ff991e;stroke-opacity:1" transform="translate(-12.25 -2.5)"/><use xlink:href="#a" width="4" height="4" style="fill:#ccc;fill-opacity:1;stroke:#999;stroke-opacity:1" transform="translate(-10.25 -1.25)"/><use xlink:href="#a" width="4" height="4" style="fill:#ffcc28;fill-opacity:1;stroke:#ff991e;stroke-opacity:1" transform="translate(-8 -.35)"/><use xlink:href="#a" width="4" height="4" style="fill:#ccc;fill-opacity:1;stroke:#999;stroke-opacity:1" transform="translate(-5.75 .95)"/><use xlink:href="#a" width="4" height="4" style="fill:#ffcc28;fill-opacity:1;stroke:#ff991e;stroke-opacity:1" transform="translate(-4.114 .086) scale(1.728)"/><use xlink:href="#a" width="4" height="4" style="fill:#ffcc28;fill-opacity:1;stroke:#ff991e;stroke-opacity:1" transform="translate(2.75 1.75)"/><use xlink:href="#a" width="4" height="4" style="fill:#ccc;fill-opacity:1;stroke:#999;stroke-opacity:1" transform="translate(.3 2.15)"/></g><defs><use xlink:href="#c" id="a" width="4" height="4"/><use xlink:href="#d" id="b" width="26.95" height="21.45"/><g id="c"><path stroke-width="0" d="M.8 1.55Q.2.8 1.15.5q1.15.5.1 1.15Q1 1.8.8 1.55" style="fill:#fff" transform="translate(.5 .5)"/><path fill-rule="evenodd" stroke-width="0" d="m3.05 3.05-.25.2-.8.25q-.6 0-1.05-.45Q.5 2.6.5 2q0-.6.45-1.05Q1.4.5 2 .5l.8.25.25.2Q3.5 1.4 3.5 2q0 .6-.45 1.05m-1.75-1q.2.25.45.1Q2.8 1.5 1.65 1q-.95.3-.35 1.05"/><path fill="none" stroke-linecap="round" stroke-linejoin="round" d="m3.05 3.05-.25.2-.8.25q-.6 0-1.05-.45Q.5 2.6.5 2q0-.6.45-1.05Q1.4.5 2 .5l.8.25.25.2Q3.5 1.4 3.5 2q0 .6-.45 1.05Z"/></g><g id="d"><path fill="#f03" fill-rule="evenodd" d="M.5 9.05q1-2.65 3.8-4.75 2.2 3.35 5.9 5.25l2.05.85-1.2.2Q5.35 11.65.5 9.05m7.8-7.1Q12.85-.1 17.85.7q2.7.55 5.35 1.95-.95 1.85-2.45 3.3-1.65 1.5-3.45 2.55l-1.95-1q-3.9-2.1-7.05-5.55"/><path fill="#f36" fill-rule="evenodd" d="m23.2 2.65 1.95 2.15q.65.95 1.1 3 .45 2-.1 5.2-.55 3.15-3.55 5.55t-8.5 2.85q-5.1.25-9.8-1.75l-.2-.25q12.85-1.5 21.05-14.6Q14.4 16.25 2.2 16.6.4 13.15.5 9.05q4.85 2.6 10.55 1.55l1.2-.2q2.65-.55 5.05-1.9 1.8-1.05 3.45-2.55 1.5-1.45 2.45-3.3"/><path fill="#c00" fill-rule="evenodd" d="m4.3 4.3 2.6-1.7 1.4-.65q3.15 3.45 7.05 5.55l1.95 1q-2.4 1.35-5.05 1.9l-2.05-.85Q6.5 7.65 4.3 4.3"/><path fill="#f69" fill-rule="evenodd" d="m4.1 19.4-.55-.7-1.35-2.1q12.2-.35 22.95-11.8-8.2 13.1-21.05 14.6"/><path fill="none" stroke="#600" stroke-linecap="round" stroke-linejoin="round" d="m23.2 2.65 1.95 2.15q.65.95 1.1 3 .45 2-.1 5.2-.55 3.15-3.55 5.55m-18.5.85-.55-.7-1.35-2.1Q.4 13.15.5 9.05q1-2.65 3.8-4.75l2.6-1.7 1.4-.65Q12.85-.1 17.85.7q2.7.55 5.35 1.95"/></g></defs></svg>