<svg xmlns="http://www.w3.org/2000/svg" xmlns:xlink="http://www.w3.org/1999/xlink" width="100.7" height="92.9"><use xlink:href="#a" width="34.75" height="32.55" transform="translate(21.6 40.3)"/><defs><g id="a"><path fill="#fc0" fill-rule="evenodd" d="m28.95 16.05-.6-1.65-.65-1-1.3-1.15h-.05V9.1q1.2.8 2.25 1.95 1.55 1.7 2.7 3.6l.05.1-.6.55q-.65.55-1.5.7l-.3.05m4.3 2.9.1.35.45 1.8.4 2.7q.2 3.6-.9 7.1l-.4.55q-.2-.2-.8-6.35-1.2 2.75-3.85 3.5l-.7.2q1.25-2.35 1.6-5l.15-1.85.55-1.7q.2-.85 1-1.3.9-.5 1.8-.25l.6.25m-14-12.3V9.7l-.6-.2-3.55.2V7.1l3.05-.45h1.1M7.5 10.7v1.45q-1.45 1.7-2 3.35l-.2.7q-.3-.15-.55-.35-.8-.55-.8-1.45 1.4-2.05 3.55-3.7m-1.05 6 .6-.55-.45.6-.15-.05m26.1 5.85-.45 2.55.45-2.55M.9 24.05l.05-.25.5-2.9.4-1.7q.55-.55 1.35-.35.9.25 1.2 1.2l.15.65q-.55 1.55-.6 3.1-.1 2.55 1.05 5.1-1.9-.85-2.9-2.45L1.65 28 1 32.05Q.4 30.5.5 28.3l.4-4.25.5.95.7 1.45L1.4 25l-.5-.95"/><path fill="#ff0" fill-rule="evenodd" d="m28.8 17.9.35.35-.2-2.2.3-.05q.85-.15 1.5-.7l.6-.55q1.15 1.95 1.9 4.2l-.6-.25q-.9-.25-1.8.25-.8.45-1 1.3l-.55 1.7-.05-1.4-.45-2.65M5.3 16.2 5 18.4l1.45-1.7.15.05-1.6 2.8-.45 1.15-.15-.65q-.3-.95-1.2-1.2-.8-.2-1.35.35.6-2.6 2.1-4.8 0 .9.8 1.45.25.2.55.35"/><path fill="#f39" fill-rule="evenodd" d="m22 .6.65-.1h.1q1.65.1 2.5.9.8.8 1.1 2.7v8.15h.05l1.3 1.15.65 1 .6 1.65.2 2.2-.35-.35-1.45-1.6q-1.4-1.55-5.25-3.35l1-1.55.1-.25.4-3.05V4.45q.05-2.1-1.6-3.85m-2.75 9.1.1.2.5 1-4.75.3-.6.65q-1.6 1.25-3.75 1.25.65-.55 1-1.25l.3-.95.35-2.1.05-.9v-.4l.05-.9V5.3l-.25-1.85q-.45-2-2.4-2.65L11.3.5q1.6 0 2.7 1.1.8.8 1.05 2.5L15.1 7v2.7l3.55-.2.6.2"/><path fill="#fe7abc" fill-rule="evenodd" d="M22 .6q1.65 1.75 1.6 3.85V8.1l-.4 3.05-.1.25-1 1.55q-2.8-1-7-.5-4.65.5-8.05 3.7l-.6.55L5 18.4l.3-2.2.2-.7q.55-1.65 2-3.35V10.3l.15-5.15q.1-2.4.5-2.9l.65-.85L9.85.8q1.95.65 2.4 2.65l.25 1.85v1.3l-.05.9v.4l-.05.9-.35 2.1-.3.95q-.35.7-1 1.25 2.15 0 3.75-1.25l.6-.65 4.75-.3-.5-1-.1-.2v-6q.2-1.2 1.1-2.1l.4-.3L22 .6"/><path fill="none" stroke="#333" stroke-linecap="round" stroke-linejoin="round" d="m31.3 14.65.05.1"/><path fill="none" stroke="#705427" stroke-linecap="round" stroke-linejoin="round" d="M26.35 9.1q1.2.8 2.25 1.95 1.55 1.7 2.7 3.6m.05.1q1.15 1.95 1.9 4.2l.1.35.45 1.8.4 2.7q.2 3.6-.9 7.1l-.4 1.15M19.25 6.65h-1.1l-3.05.45m14.2 14.85-.15 1.85q-.35 2.65-1.6 5l.7-.2q2.65-.75 3.85-3.5l.45-2.55m-3.25-.6-.05-1.4-.45-2.65m4.5 13-.4.55q-.2-.2-.8-6.35M1.85 19.2l-.4 1.7-.5 2.9-.05.25.5.95.7 1.45q1 1.6 2.9 2.45-1.15-2.55-1.05-5.1.05-1.55.6-3.1L5 19.55l1.6-2.8.45-.6m-5.2 3.05q.6-2.6 2.1-4.8 1.4-2.05 3.55-3.7M.9 24.05.5 28.3q-.1 2.2.5 3.75L1.65 28l.45-1.55"/><path fill="none" stroke="#c00161" stroke-linecap="round" stroke-linejoin="round" d="M26.35 9.1v-5q-.3-1.9-1.1-2.7-.85-.8-2.5-.9h-.1L22 .6l-1.25.7-.4.3q-.9.9-1.1 2.1v6l-.6-.2-3.55.2V7l-.05-2.9Q14.8 2.4 14 1.6 12.9.5 11.3.5L9.85.8l-1.05.6-.65.85q-.4.5-.5 2.9L7.5 10.3v.45m14.6 2.2q3.85 1.8 5.25 3.35l1.45 1.6.35.35-.2-2.2-.6-1.65-.65-1-1.3-1.15h-.05V9.1m-18.85 3v.05q-1.45 1.7-2 3.35l-.2.7-.3 2.2 1.45-1.7.6-.55q3.4-3.2 8.05-3.7 4.2-.5 7 .5"/><path fill="#fc0" fill-rule="evenodd" d="M9.05 12.35q2.3-2.65 6.3-.55l.4.2-2.55 2.25-.7-1.3q-.6-.75-1.5-.75l-1.95.15m1.8 4.95q-1.1 1.75-1.45 3.8-.45 2.7-.2 5.4l.2 2.7-.95-1.65q-2.2-4.6-1.55-9.7l.2-1.2q.95-.6 1.85-.6 1-.05 1.55.7l.35.55"/><path fill="#ff0" fill-rule="evenodd" d="M9.05 12.35 11 12.2q.9 0 1.5.75l.7 1.3-1.55 1.8-.8 1.25-.35-.55q-.55-.75-1.55-.7-.9 0-1.85.6l.9-2.7 1.05-1.6m2.2 1.6q-.5-.8-1.65-.75-.7-.05-.8.6-.15.6.45.7l.7.2q.9.25 1.3-.4.15-.2 0-.35"/><path fill="#fff" fill-rule="evenodd" d="M11.25 13.95q.15.15 0 .35-.4.65-1.3.4l-.7-.2q-.6-.1-.45-.7.1-.65.8-.6 1.15-.05 1.65.75"/><path fill="none" stroke="#705427" stroke-linecap="round" stroke-linejoin="round" d="M13.2 14.25 15.75 12l-.4-.2q-4-2.1-6.3.55L8 13.95l-.9 2.7-.2 1.2q-.65 5.1 1.55 9.7l.95 1.65-.2-2.7q-.25-2.7.2-5.4.35-2.05 1.45-3.8l.8-1.25 1.55-1.8Z"/></g></defs></svg>