<svg xmlns="http://www.w3.org/2000/svg" xmlns:xlink="http://www.w3.org/1999/xlink" width="100.7" height="92.9"><use xlink:href="#a" width="26.1" height="23.25" transform="translate(25.55 35.95)"/><defs><g id="a"><path fill="#900" fill-rule="evenodd" d="m18.1.6.75-.1q1.6 0 2.75 1.1l.4.55.45 1.85v11.9L24 17.65q1.85 2.3 1.55 5.1Q22.7 21.6 19.9 21l-.3-.15q-.5-2.4-1.8-3.4l.6-.75.7-1.2q.45-1.65.5-3.55v-7.5q.05-2.1-1.5-3.85M5.55.8 7.1.5q1.6 0 2.6.95.9.85 1.2 3v8l3.55.15.6.05v1.15l.85 1.9-1.35-.15-3.65-.25-.6.65Q8.7 17.2 6.55 17.2q1.05-.9 1.25-2.5.2-1.9.1-3.75Q7.85 9 8.15 7.2q.3-1.9-.1-3.75-.45-2-2.5-2.65m5.35 13v-1.35 1.35"/><path fill="#c00" fill-rule="evenodd" d="M18.1.6q1.55 1.75 1.5 3.85v7.5q-.05 1.9-.5 3.55l-.7 1.2-.6.75q1.3 1 1.8 3.4v.05Q9.55 18.65.5 22.75l.65-2.7q.7-2.1 2.1-3.8V10.1L3.2 3.95l.25-.85q.6-1.6 2.1-2.3 2.05.65 2.5 2.65.4 1.85.1 3.75-.3 1.8-.25 3.75.1 1.85-.1 3.75-.2 1.6-1.25 2.5 2.15 0 3.75-1.25l.6-.65 3.65.25 1.35.15-.85-1.9V4.25q.2-1.75 1.1-2.65.85-.85 1.95-1M3.3 17.4l-.05-1.15.05 1.15"/><path fill="#f39" fill-rule="evenodd" d="m19.6 20.85.3.15-.3-.1v-.05"/><path fill="none" stroke="#600" stroke-linecap="round" stroke-linejoin="round" d="M19.9 21q2.8.6 5.65 1.75.3-2.8-1.55-5.1l-1.55-1.75V4L22 2.15l-.4-.55Q20.45.5 18.85.5l-.75.1q-1.1.15-1.95 1-.9.9-1.1 2.65v9.55m4.55 7.1Q9.55 18.65.5 22.75l.65-2.7q.7-2.1 2.1-3.8V10.1L3.2 3.95l.25-.85q.6-1.6 2.1-2.3L7.1.5q1.6 0 2.6.95.9.85 1.2 3v8l3.55.15.6.05m-11.8 3.6.05 1.15m7.6-4.95v1.35"/></g></defs></svg>