<svg xmlns="http://www.w3.org/2000/svg" xmlns:xlink="http://www.w3.org/1999/xlink" width="100.7" height="92.9"><use xlink:href="#a" width="44.6" height="22.3" transform="translate(11 41.75)"/><defs><g id="a"><path fill="#e3af39" fill-rule="evenodd" d="M.5 12.05q4.45 2.35 8-1.8L9.9 9.1q3.85-2.05 6.35 1.45.9 5.4-4.75 7.4Q5.9 20 3.25 17.4.55 14.8.5 12.05"/><path fill="none" stroke="#9b4a2d" stroke-linecap="round" stroke-linejoin="round" d="M.5 12.05q4.45 2.35 8-1.8L9.9 9.1q3.85-2.05 6.35 1.45.9 5.4-4.75 7.4Q5.9 20 3.25 17.4.55 14.8.5 12.05Z"/><path fill="#ff1cdd" fill-rule="evenodd" d="M19.15 14.35q.55 3.85-3.35 4.55l-1.45-.3q-3-1.55-1.4-4.35 1.85-3.3 4.95-1.1l1.25 1.2"/><path fill="none" stroke="#9f3372" stroke-linecap="round" stroke-linejoin="round" d="M19.15 14.35q.55 3.85-3.35 4.55l-1.45-.3q-3-1.55-1.4-4.35 1.85-3.3 4.95-1.1l1.25 1.2Z"/><path fill="#e3af39" fill-rule="evenodd" d="m38.2 14.15 1.35 1.25q1.95 2 2.45 4.75l.1.85q-4.65-.6-7.7-4.15-.5-.55-.3-1.35 1.25-.8 2.75-1.05l1.35-.3M17.6 19.7l-1.25.55-2.65 1-.65.2h-.1l-.2.35q-.75-1.1.9-3.85l3.05-4.7q2.7.25 5.05 1.7l1.05 1.1q-2.15 2.15-5.2 3.65"/><path fill="none" stroke="#9b4a2d" stroke-linecap="round" stroke-linejoin="round" d="m38.2 14.15 1.35 1.25q1.95 2 2.45 4.75l.1.85q-4.65-.6-7.7-4.15-.5-.55-.3-1.35 1.25-.8 2.75-1.05l1.35-.3M17.6 19.7l-1.25.55-2.65 1-.65.2h-.1l-.2.35q-.75-1.1.9-3.85l3.05-4.7q2.7.25 5.05 1.7l1.05 1.1q-2.15 2.15-5.2 3.65"/><path fill="#18aefe" fill-rule="evenodd" d="M38.7 9.65q3.9 2.3 5.15 4.7l.25 1.1q.2 1.7-2.25 3.05-3.35 1.7-9.05 2.05-5.6.15-17.35-4.95l2.9-.5 3.3-.3 3.55-.45 3.4-.3 3.45-.4L34.4 13q.75-.35 1.7-.55l1.75-.4q.95-.3.85-1.1v-1.3"/><path fill="none" stroke="#0c335a" stroke-linecap="round" stroke-linejoin="round" d="M15.45 15.6q11.75 5.1 17.35 4.95 5.7-.35 9.05-2.05 2.45-1.35 2.25-3.05l-.25-1.1q-1.25-2.4-5.15-4.7"/><path fill="#003284" fill-rule="evenodd" d="m25.5 1.35 1.55-.1q5.3-.2 9.1 3.6 1.45 1.45 2.15 2.9l.25.8.15.4q.4.9.25 2.4l-.4 1.8q-.25.3-4.6 2.05.4-3.55-.7-6L33 8.5l-.05-.1-1.1-1.75q-2.7-3.25-6.9-5.25h.15l.3-.05h.1M20.3 16.9l-2.35-.4-2.8-.55q-1-1.95-.65-4.55l.2-.7q.25-1.45 1.15-3.05 2.2-4.2 6.85-5.7l1.35-.35.05.05Q20.65 6 19.75 10.1l-.15.7q-.65 3.2.7 6.1"/><path fill="#18aefe" fill-rule="evenodd" d="m33.95 15.2-.5.1L31 16q-3.3.85-6.45 1l-4.25-.1q-1.35-2.9-.7-6.1l.15-.7q.9-4.1 4.35-8.45l-.05-.05h.05l.85-.2q4.2 2 6.9 5.25l1.1 1.75.05.1.25.7q1.1 2.45.7 6"/><path fill="none" stroke="#0c335a" stroke-linecap="round" stroke-linejoin="round" d="m25.5 1.35 1.55-.1q5.3-.2 9.1 3.6 1.45 1.45 2.15 2.9l.25.8.15.4q.4.9.25 2.4l-.4 1.8q-.25.3-4.6 2.05l-.5.1L31 16q-3.3.85-6.45 1l-4.25-.1-2.35-.4-2.8-.55q-1-1.95-.65-4.55l.2-.7q.25-1.45 1.15-3.05 2.2-4.2 6.85-5.7l1.35-.35h.05l.85-.2h.15l.3-.05"/><path fill="#013a58" fill-rule="evenodd" d="M26.6 1.6q-.6.4-1.55.5L23.4 2q-.7-.25-.75-.7-.05-.45.55-.8l1.6-.5 1.6.1q.7.25.75.7.05.45-.55.8"/></g></defs></svg>