<svg xmlns="http://www.w3.org/2000/svg" xmlns:xlink="http://www.w3.org/1999/xlink" width="100.7" height="92.9"><use xlink:href="#a" width="39.45" height="31.6" transform="translate(21.75 38.95)"/><defs><g id="a" fill-rule="evenodd"><path d="M22.65 5.15q2.45.45 5.4 3.3 2.65 2.65 3.25 4.5 2.6 7.95 1.5 12l-.8 3.2q-2.35-3.5-3.2-5.5-.3-4.2-1.5-5.2-3-1.15-3.8-2.15l-2-2.15-3.2.5-3.5-.5q-1 1.15-2.5 1.8l-3.8.7q-1.7.5-3.35 4.8-1.3 1.65-4 7.5-1.3-5.65-1.15-8.5.15-2.95 2.15-7.65Q3.8 7.9 7 6.95q2.3-.65 6.8-2.65 2.35-.45 8.85.85"/><path d="M5.45 22.5q1.15-1.65-.6-4.95-.6-1.1-.1-3.15.5-2 1.3-2.05l2.1.55-1.65 3.5q0 1 1 4.65.1 1-.4 2.7-.35 1.35-.1 1.8l1 .85q.8.55 1.35 1.5 1.25 2.1-3.2 3.5-2.65.8-1.15-2 1.35 1.5 2.15.5.5-.6-.6-1.7l-2.4-2.15Q3.2 25 3.9 24.1l1.55-1.6"/><path fill="#c70078" d="M26.45.35q1.85-.8 3.2.2 2.15 1.7 1 3.85h1.5q1.65.2 2.45 1.15 1.3 1.55.65 1.95 2.3.35 1.7 2.3-.65 1.9-2.95 2.15 3.3 3.2 1.15 4.75-1.35.95-2.5.65l-.85-.5q-.4 2.55-4.1 2.4-2.3-.05-2.9-1.5l-.15-1.45q-3.2 2.6-5.5.15-1.45-1.55-1.25-3.15l.45-1.35q-3.85-2.4-1.25-4.6 2.55-2.15 4.45-1.15Q18 3.3 21.2 1.35q2.65-1.6 3.65 0l1.6-1"/><path fill="#ff96d5" d="M25.7 2.15Q26.4.7 28.2 1.1q1.9.4 1.9 2.25-.05 1.35-.85 2.45l-.65 1.8.8-1.1q1-1.05 2.3-.95 3.55.4 2.55 2.55 2.85.45 1.65 1.95-.95 1.15-2.85 1.2l-2.25-.05 2.55 1.65q2.6 2.7.65 3.35l-2.05-.05-.9-.45q0 2.9-2.95 2.65-3.2-.25-2.8-3.3l.25-2.05q-1 3.35-2.6 3.45-2.4.15-3.65-1.3-1.15-1.35-.4-2.4.55-.85 1.4-.85-3.3-.85-2.95-2.6.25-1.5 1.6-2.15l2.6-.05q1.7.75 3.1 1.65l-1.7-1.5q-1.05-.85-1.6-2.55-.65-2.05.85-2.6 2.3-.75 3.2 1.55l.3-1.5"/><path fill="#ff75c8" d="M26.95 5q.8-.35.65 2.3l.9-1.55q.15 0-.1 1.85l-.1 1.1-2.25-.4-.85.45-.9-.9q-.85-1-.5-1.4.55-.6 1.6.9l-.3-.55q-.5-.9-.2-1.1.5-.35 1.25 1.15l.1-.8q.15-.85.7-1.05m2.2 4.15 1.2-.9 2.4-.2q0 .35-1.4.95l2-.05q.3.15-1.85.5l-2.45 1.1.1-1.4"/><path fill="#ff75c8" d="m30.8 7.5-1.15.85 1.4-.35 1.7-.1-2.35.6-1.25.95-1.2-.7.7-.9.85-.75 1.1-.45.3.3q.15.3-.1.55m-3.15 4.6 1.55-1.55 2.35 1.8q.55.95-.15 1l-1.85-.95q-.25 2.95-1.5 2.85-.8-.1-.95-.85l.05-.75-1 1.4-.35-2.55 1.85-.4M22.1 8q1.5.4 2 .9l.65.65q0 .45.35 2.05l-3.55-.55 1.05-.55q-.55-.25-1.05-.55-.95-.65-.5-.95 1.25.55 2.45 1.05L22.6 9q-.95-1.1-.5-1"/><path fill="#ff75c8" d="m25.65 11.4.4 1-1.8 1.35q-1.25.95-1.75.75l1.55-1.65-1.9.5q-1.1.3-1.1-.5 0-.5.75-.9l3.85-.55"/><path fill="#ff4ab7" d="m27.65 7.75-.5.05Q27 7.5 27 6.95L28.15 3l-.5 4.75m-1.5.05-.5.25-.55-1.9-1.35-2.75 1.1 1.15q.45.5 1.3 3.25m2.65.75.75-1.05q.7-.6 3.4-.6l-2.5.85L29.05 9l-.25-.45m.7 1.15 2.5-.75 2.6-.1-3.45.6-1.5.8-.15-.55m-.45 1.95 2.3 1.2 1.85 1.85-2.5-1.7-2.1-1.05.45-.3m-1.3 1.2 1.2 2.5.05 2.35-.95-2.85L27 13l.75-.15m-3.25-1.6.6.6q-2.15.75-3 1.25l-2.25 1.7 1.35-1.7q.7-.55 3.3-1.85"/><path fill="#ff4ab7" d="m19.45 7.7 2.25.75 2.75 1.45v.15l.45-.35-.85-.55 1.25.15-.1-.55h.45l-.8-1.25.8.55.5-.25.3.75.05-1 .25.55.25-1.15.45.75.2.55.25-.15.05.85.85-.4.25.45-.55.8.95-.65.05.55.15.55-.85.7 1.4.65-1.25-.2.1.25-.45.3v.95l-.4-.3q-.2.15-.45.25l-.6.2-.6.45v-.85l-.65-.05-1.25.4.7-.85-.25-.3-.6-.6-1.55-.55h1.5v-.35L22.9 9.6l-3.45-1.9"/><path fill="#ffc9ea" d="M26.65 10.15q1.55-1.7 3.85-2.6l7.85-.2q.2.3-.25.3l-6.5.4q-1.85.55-4.55 2.65l-.55.05q-.15-.3.15-.6"/><path fill="#ff6a00" d="M38.1 7.5q.05-.6.7-.65.65 0 .65.65t-.7.6Q38 8 38.1 7.5"/><path fill="#ff6a00" d="M38 6.2q.65.05.55.6-.05.6-.65.7-.65.1-.6-.65 0-.7.7-.65"/><path fill="#ff6a00" d="M36.8 7.35q-.7.1-.8-.55-.05-.6.65-.7.65-.05.7.55.1.65-.55.7m.95 1.25q-.55.1-.65-.5-.1-.55.5-.65.65-.1.75.45.05.55-.6.7"/><path fill="#ff6a00" d="M36.5 7.25q.65 0 .7.6.1.55-.5.7-.6.15-.75-.55-.15-.75.55-.75"/><path fill="#ff6a00" d="m37.45 6.85.5.25q.3.25.2.5l-1.25.1q-1-.45.55-.85"/></g></defs></svg>