<svg xmlns="http://www.w3.org/2000/svg" xmlns:xlink="http://www.w3.org/1999/xlink" width="100.7" height="92.9"><use xlink:href="#a" width="37.7" height="24.7" transform="translate(20.05 39.1)"/><defs><g id="a"><path fill="#8d9caf" fill-rule="evenodd" d="M9.65 12.95q1.35 1.9.45 2.2-.75.3-.7 1.15.05 1.25-.3 1.85-.8 1.4-1 3l-.85 1.9-1.15 1.1-1.25.05q-.3-1.25-.75-2.05-.5-.9-.1-1.55l1.1-2.45q.7-2.75 3-7l1.55 1.8"/><path fill="none" stroke="#000" stroke-linecap="round" stroke-linejoin="round" d="m9.65 12.95-1.55-1.8q-2.3 4.25-3 7L4 20.6q-.4.65.1 1.55.45.8.75 2.05l1.25-.05 1.15-1.1.85-1.9q.2-1.6 1-3 .35-.6.3-1.85-.05-.85.7-1.15.9-.3-.45-2.2Z"/><path fill="#8d9caf" fill-rule="evenodd" d="m32.7 18.15 1.1 2.45q.4.65-.1 1.55-.45.8-.75 2.05l-1.25-.05-1.15-1.1-.85-1.9q-.2-1.6-1-3-.35-.6-.3-1.85.05-.85-.7-1.15-.9-.3.45-2.2l1.55-1.8q2.3 4.25 3 7"/><path fill="none" stroke="#000" stroke-linecap="round" stroke-linejoin="round" d="m32.7 18.15 1.1 2.45q.4.65-.1 1.55-.45.8-.75 2.05l-1.25-.05-1.15-1.1-.85-1.9q-.2-1.6-1-3-.35-.6-.3-1.85.05-.85-.7-1.15-.9-.3.45-2.2l1.55-1.8q2.3 4.25 3 7Z"/><path fill="#000500" fill-rule="evenodd" d="m29.15 7.15.45 1.75q1 3.4.2 4.6-.85 1.4-3.6 2.55-3.35 1.5-7.75 1.65Q9.9 18 7.3 15.4 5.9 14 8 8.55l.85-2.95q1.1-4.25 2.4-5 2.65-1.45 7.65.75l2.05.8 3.65.45 2.9.5q.75.5 1.65 4.05"/><path fill-rule="evenodd" d="M32 5.9q2.1-.5 3.6 1.2 2.9 3 1.75 6.95-.95 3.3-8.2 5.2-5.85 1.55-12.6 1.55L7.2 20l-1.6-.2Q1.7 19.25.55 15-.8 9.8 1.3 8.25q2.1-1.5 3.75-1.5 1.1-.05 2.4.6 1.1.6 1.2 1 .1.3 9.25-1.35l10.95 1.1-.2-.9q0-.45 3.35-1.3"/><path fill-rule="evenodd" d="M32.25 6.9Q34.7 6.3 36 8.55q1.3 2.2.4 5.25-.8 2.75-7.55 4.5-5.8 1.5-12.3 1.5l-10.8-1Q2.4 18.4 1.6 14 .8 9.75 3 8.15q2.7-2.05 3.5 1 .2.75 0 1.05l4.3-1Q16.05 8 17.9 8l12.85 1.35-.8-1.3q-.5-.65 0-.8l2.3-.35"/><path fill-rule="evenodd" d="M26.95 3.95 28.6 8.9q.85 3.35.35 4.05-.7 1.15-3.25 2.25-3.15 1.35-7.3 1.5-8.2.3-10.4-2-.9-.8.9-5.8l1.3-4.45q.7-2.5 1.55-3 1.75-1 4.55-.05l4.35 1.7 3.8.5 2.5.35"/><path fill="#c5cdd6" fill-rule="evenodd" d="M26.75 15.4q-5.3 2.75-8.35 2.85l-5.6-1.05q-3.85-1.05-4.3-1.45-.95-.75-.75-1.5l.35-2.65q8.45 3.25 9.95 3.25 3.15 0 7.35-2.2l3.5-2.05q.6 2.25.05 3-.95 1.2-2.2 1.8"/><path fill="none" stroke="#8d9caf" stroke-linecap="round" stroke-linejoin="round" d="m15.4 3 3.4 2.6q.85 0 3.35-1.75"/></g></defs></svg>