<svg xmlns="http://www.w3.org/2000/svg" xmlns:xlink="http://www.w3.org/1999/xlink" width="100.7" height="92.9"><use xlink:href="#a" width="39.55" height="30.5" transform="translate(19.4 35)"/><defs><g id="a"><path fill="#80ddff" fill-rule="evenodd" d="M31.3 21.7q-4.15-7.8-11.95-7.8-5.95 0-11 8.05Q5.85 26 4.5 30q-2.95-6.95-2.55-13.85.85-13.9 17.7-13.9 16.9 0 17.25 13.6.2 6.8-3 13.6-.5-3.9-2.6-7.75"/><path fill="none" stroke="#3e5bbf" stroke-linecap="round" stroke-linejoin="round" d="M31.3 21.7q-4.15-7.8-11.95-7.8-5.95 0-11 8.05Q5.85 26 4.5 30q-2.95-6.95-2.55-13.85.85-13.9 17.7-13.9 16.9 0 17.25 13.6.2 6.8-3 13.6-.5-3.9-2.6-7.75Z"/><path fill="#db7e3b" fill-rule="evenodd" d="m20.05 13.9 3.05.2q3.6.65 6.3 2.85 4.4 3.5 4.25 10.6-3.1-1.1-7.75-3.35-2.85-1.4-4.65-6l-1.2-4.3m-10.4 3.15q4.25-4.5 10.4-3.15-1 3.65-5.4 8.15-4.35 4.5-9.75 6.75.5-7.25 4.75-11.75"/><path fill="#ffddc5" fill-rule="evenodd" d="m30.15 17.95 1.7 1.8q-3.2-1.5-4-1.15-.25.1-.15.95.1.9-1.05 1.55-2 1.15-3.15 1l-1-1.35q2 0 2.85-.5.35-.2.45-1.2.15-1 .85-1.45 1.35-.85 3.5.35m-18.25 1.6h-2q-.7-.05-.9-.9l-.1-.85 1.5-1.35-.15.7q0 .7.55.95l1.55-.05q1.05-.1 1.55.4.9.85.5 3.6l-1.5 1.15q.75-2.65.4-3.25-.25-.4-1.4-.4"/><path fill="none" stroke="#b56024" stroke-linecap="round" stroke-linejoin="round" d="M33.65 27.55q-6.25-2.5-9.25-4.35-1.85-1.2-3.25-5.1l-1-3.65q-3.1 5.35-5.85 8-2.75 2.6-9.4 6.35"/><path fill="none" stroke="#ff9a54" stroke-linecap="round" stroke-linejoin="round" d="M33.55 25.8q-.75-5-2.9-7.85-2.05-2.8-7.25-4m-5.1-.25q-6.15.1-8.65 3.35t-4 7.25"/><path fill="#fff" fill-rule="evenodd" d="M24.55.65q1.9-.3 2.25 2.4l1-.65q1.2-.65 2.05-.6 1.4.1 1.1 4.35l1.2-1q1.4-.85 2.5-.3 1.8.95-.35 3.8l1.45-.2q1.5-.05 1.95.8.7 1.3-2.35 3.2l1.5.15q1.6.4 2.05 1.45.7 1.75-2.05 1.95l.85.35q.9.5 1 1.45.2 1.5-1.95 1.35l.9.6q.85.75.7 1.7-.15 1.5-1.95 1.35 1.7 1.55 1 2.7-.7 1.15-2.05 1.2l.45.5q.4.65.25 1.35-.2 1.15-1.55 1.2-2.5-1.4-2.15-2.9.2-.95 1.05-1.6.4-.35.75-.5-1.95-.9-1.5-2.3.3-.85 1.2-1.25l.85-.2-1.1-.7q-1.05-.9-.6-1.6l2.15-1.6q-2.4-.65-2.7-1.75-.2-.7.4-1.6l.65-.7q-2.65-.4-3.1-1.65-.25-.75.2-1.5l.45-.65q-2.2.25-2.9-.85l-.3-1.75Q25.5 8.15 24.4 7.8q-.7-.2-1.05-1.35l-.2-1.1q-.7 1.8-2.3 2.1-1 .2-1.6-1.4l-.4-1.65q-1.4 2.45-2.35 3-1 .55-3.5-1.95.9 2.7-.1 3.35-.95.7-4.05-.8 1.9 3.15.6 4.1-1.35.9-3.7-1.1 1.9 3.15.8 4.1-1.1.9-2.6 0 2.3 2 1.1 3.05-1.2 1.05-2.1.75.65.35 1.25.65 1.2.8.75 1.85-.65 1.65-1.55 1.85l.85.8q.75.95.4 1.65-.6 1.15-1.1 1.3l.9-.1q.9.05 1.15.5.4.75-.8 1.55-3.05-.9-3-2.25.05-.85.55-1.55l.5-.5q-1.4-.85-1.6-2.3-.1-.95.5-1.55l.65-.4Q0 18.9.65 17.5l1.45-1.45Q.25 14.25.95 12.7q.45-.95 1.25-1.3l.7-.15q-1.45-1.7-.15-3.1Q4.05 6.7 5.5 8q-.65-2.95.6-3.75 1.2-.85 3.15.85-.6-2.35 1.1-3.05 1.75-.7 3.2 1.25l.05-.9q.25-.95 1.5-1.3 1.95-.6 2.2 1.65l.35-1.1q.6-1.1 1.8-1.15 1.85-.05 2.2 2.55L22.4 2q1-1.15 2.15-1.35"/><path fill="none" stroke="#6d94e8" stroke-linecap="round" stroke-linejoin="round" d="M24.55.65q1.9-.3 2.25 2.4l1-.65q1.2-.65 2.05-.6 1.4.1 1.1 4.35l1.2-1q1.4-.85 2.5-.3 1.8.95-.35 3.8l1.45-.2q1.5-.05 1.95.8.7 1.3-2.35 3.2l1.5.15q1.6.4 2.05 1.45.7 1.75-2.05 1.95l.85.35q.9.5 1 1.45.2 1.5-1.95 1.35l.9.6q.85.75.7 1.7-.15 1.5-1.95 1.35 1.7 1.55 1 2.7-.7 1.15-2.05 1.2l.45.5q.4.65.25 1.35-.2 1.15-1.55 1.2-2.5-1.4-2.15-2.9.2-.95 1.05-1.6.4-.35.75-.5-1.95-.9-1.5-2.3.3-.85 1.2-1.25l.85-.2-1.1-.7q-1.05-.9-.6-1.6l2.15-1.6q-2.4-.65-2.7-1.75-.2-.7.4-1.6l.65-.7q-2.65-.4-3.1-1.65-.25-.75.2-1.5l.45-.65q-2.2.25-2.9-.85l-.3-1.75Q25.5 8.15 24.4 7.8q-.7-.2-1.05-1.35l-.2-1.1q-.7 1.8-2.3 2.1-1 .2-1.6-1.4l-.4-1.65q-1.4 2.45-2.35 3-1 .55-3.5-1.95.9 2.7-.1 3.35-.95.7-4.05-.8 1.9 3.15.6 4.1-1.35.9-3.7-1.1 1.9 3.15.8 4.1-1.1.9-2.6 0 2.3 2 1.1 3.05-1.2 1.05-2.1.75.65.35 1.25.65 1.2.8.75 1.85-.65 1.65-1.55 1.85l.85.8q.75.95.4 1.65-.6 1.15-1.1 1.3l.9-.1q.9.05 1.15.5.4.75-.8 1.55-3.05-.9-3-2.25.05-.85.55-1.55l.5-.5q-1.4-.85-1.6-2.3-.1-.95.5-1.55l.65-.4Q0 18.9.65 17.5l1.45-1.45Q.25 14.25.95 12.7q.45-.95 1.25-1.3l.7-.15q-1.45-1.7-.15-3.1Q4.05 6.7 5.5 8q-.65-2.95.6-3.75 1.2-.85 3.15.85-.6-2.35 1.1-3.05 1.75-.7 3.2 1.25l.05-.9q.25-.95 1.5-1.3 1.95-.6 2.2 1.65l.35-1.1q.6-1.1 1.8-1.15 1.85-.05 2.2 2.55L22.4 2q1-1.15 2.15-1.35Z"/><path fill="none" stroke="#b2d9ff" stroke-linecap="round" stroke-linejoin="round" d="M3.65 13.85q1.25 1.35 2 .75.75-.6.2-2.85m.45-1.3q2.35 2.1 3 1.35.6-.75-.75-3m.25-1.75q2.75 2 3.6 1.25.9-.75.25-2.5m1.4-1 .35 1.25q.55 1.1 1.5.65 1.5-.75 2.4-2.5m1.5-.15.1 1.1q.2 1.1.75 1.15.9.15 1.9-1.6m.85.25.25.95q.45.95 1.15 1.05 1.1.1 2.25-1m1.6 1L29.8 8.3l2.1-.1m.15 1.35-.25.8q-.1.9.6 1.2l1.5.65m.25 1.05-1 1.85q.35.5 2 1m.35 1.35-1.65 1.5 1.15 1.5m-31.15-5q1.5 1.65.8 2.15l-1.5.85"/></g></defs></svg>