<svg xmlns="http://www.w3.org/2000/svg" xmlns:xlink="http://www.w3.org/1999/xlink" width="100.7" height="92.9"><g transform="translate(38.65 49.75)"><use xlink:href="#a" width="11.75" height="13.85" transform="translate(2.15 -4.95)"/><use xlink:href="#a" width="11.75" height="13.85" transform="matrix(-1 0 0 1 -2.15 -4.85)"/></g><defs><use xlink:href="#b" id="a" width="11.75" height="13.85"/><g id="b"><path fill="#fff" fill-rule="evenodd" d="M7.45 12.3Q10 8 9.65 3.2l-1.6.4q-3.3 1.15-4.9 4.35L1.9 8l-.8-.85-.6-1Q3.5 1 10.45.5q1.75 4.55-.3 9.55l-1.6 3.3-.05-.4-1.05-.65"/><path fill="#fcc" fill-rule="evenodd" d="M3.15 7.95q1.6-3.2 4.9-4.35l1.6-.4Q10 8 7.45 12.3l-1.6-2.5q-1-1.2-2.7-1.85"/><path fill="none" stroke="#333" stroke-linecap="round" stroke-linejoin="round" d="m8.55 13.35 1.6-3.3q2.05-5 .3-9.55Q3.5 1 .5 6.15"/></g></defs></svg>