<svg xmlns="http://www.w3.org/2000/svg" xmlns:xlink="http://www.w3.org/1999/xlink" width="100.7" height="92.9"><use xlink:href="#a" width="28.65" height="17.25" transform="translate(24.35 45.65)"/><defs><g id="a"><path fill-rule="evenodd" d="m25 5.3 3.2 5.85q1 3-.2 6.1l-1.5-3.45L25 5.3m-21.35-1-1.5 8.5-1.5 3.45q-1.15-3.1-.2-6.1.5-1.45 3.2-5.85M15.4 8.05l-1.2 1.2q-1.95-2.2-3.7-2.2-1.1 0-2.9.9l-1.55.85q3.9-4.15 8.35-4.15 4.4 0 8.25 3.45-2.45-1.3-4.7-1.3-1.1 0-2.55 1.25"/><path fill-rule="evenodd" d="M14.15 0h.05q5.55 0 9.6 2.95 3.3 2.4 3.65 4.7.15 1.1-.2 2.4-.4 1.35-.2 2.95l.5 2.95q-.95-2.5-2.7-4.95Q20.4 4.75 14.1 4.75q-4.6 0-9.65 6.25-2.35 2.95-3.9 5.9.6-1.3.9-4 .15-1.6-.15-2.9-.25-1.2-.1-2.35.3-2.35 3.5-4.7Q8.6 0 14.15 0"/><path fill-rule="evenodd" d="m24.45 3.65 1.8-1.9Q27.8.35 28.2.55q.35.25.05 3.55l-.5 3.8-1.05 4.25-.45-2.4-1.15-3.2q-.95-2.45-.65-2.9M4 3.65q.15.2-.65 2.9L2.2 9.75l-.25 1.9Q1.2 10.35.7 7.9L.2 4.1Q-.1.8.25.55q.4-.2 1.95 1.2L4 3.65"/><path fill="#d4dae0" fill-rule="evenodd" d="M23.35 2.8q.25.1-.1 2.1l-.65 3.5L19.95 7v-.2q-.15.2.05-1.65.25-1.95 1.6-2.4l1.75.05"/><path fill="#d4dae0" fill-rule="evenodd" d="m22.6 8.4-.15-3 1-2.2L26 6.15q.75 1.1 1.2 4-1.55-1.85-2.55-1.05L24 10.3l-1.4-1.9"/><path fill="none" stroke="#7b7f82" stroke-linecap="round" stroke-linejoin="round" d="m22.7 2.65 1.2.65q1.3.9 1.8 1.85 1 2 1.5 5"/><path fill="#d4dae0" fill-rule="evenodd" d="m17.95 6.8.9-3.8 1.5 3-.4 1-2-.2"/></g></defs></svg>