<svg xmlns:xlink="http://www.w3.org/1999/xlink" height="92.9" width="100.7" xmlns="http://www.w3.org/2000/svg"><use height="17.25" transform="translate(24.35 45.65)" width="28.65" xlink:href="#a"/><defs><g id="a"><path d="m10.7 1.2 3.2 5.85q1 3-.2 6.1L12.2 9.7l-1.5-8.5m-21.35-1-1.5 8.5-1.5 3.45q-1.15-3.1-.2-6.1.5-1.45 3.2-5.85M1.1 3.95l-1.2 1.2q-1.95-2.2-3.7-2.2-1.1 0-2.9.9l-1.55.85Q-4.35.55.1.55 4.5.55 8.35 4 5.9 2.7 3.65 2.7q-1.1 0-2.55 1.25" fill-rule="evenodd" transform="translate(14.3 4.1)"/><path d="M-.15-4.1h.05q5.55 0 9.6 2.95 3.3 2.4 3.65 4.7.15 1.1-.2 2.4-.4 1.35-.2 2.95l.5 2.95q-.95-2.5-2.7-4.95Q6.1.65-.2.65q-4.6 0-9.65 6.25-2.35 2.95-3.9 5.9.6-1.3.9-4 .15-1.6-.15-2.9-.25-1.2-.1-2.35.3-2.35 3.5-4.7Q-5.7-4.1-.15-4.1" fill-rule="evenodd" transform="translate(14.3 4.1)"/><path d="m10.15-.45 1.8-1.9q1.55-1.4 1.95-1.2.35.25.05 3.55l-.5 3.8-1.05 4.25-.45-2.4-1.15-3.2Q9.85 0 10.15-.45m-20.45 0q.15.2-.65 2.9l-1.15 3.2-.25 1.9q-.75-1.3-1.25-3.75l-.5-3.8q-.3-3.3.05-3.55.4-.2 1.95 1.2l1.8 1.9" fill-rule="evenodd" transform="translate(14.3 4.1)"/><path d="M9.05-1.3q.25.1-.1 2.1L8.3 4.3 5.65 2.9v-.2q-.15.2.05-1.65.25-1.95 1.6-2.4l1.75.05" fill="#d4dae0" fill-rule="evenodd" transform="translate(14.3 4.1)"/><path d="m8.3 4.3-.15-3 1-2.2 2.55 2.95q.75 1.1 1.2 4Q11.35 4.2 10.35 5L9.7 6.2 8.3 4.3" fill="#d4dae0" fill-rule="evenodd" transform="translate(14.3 4.1)"/><path d="m8.4-1.45 1.2.65q1.3.9 1.8 1.85 1 2 1.5 5" fill="none" stroke="#7b7f82" stroke-linecap="round" stroke-linejoin="round" transform="translate(14.3 4.1)"/><path d="m3.65 2.7.9-3.8 1.5 3-.4 1-2-.2" fill="#d4dae0" fill-rule="evenodd" transform="translate(14.3 4.1)"/></g></defs></svg>