<svg xmlns="http://www.w3.org/2000/svg" xmlns:xlink="http://www.w3.org/1999/xlink" width="100.7" height="92.9"><use xlink:href="#a" width="48.35" height="32.05" transform="translate(14.6 44.75)"/><defs><g id="a"><path fill="#f7bd00" fill-rule="evenodd" d="m37.55 13.6-.7-1.45-3.9-3.85Q31.8 6.85 30.5 6l.15-1.55 2.15-1.6q2.7-1.7 5.55-2.15 1.75-.25 3.9 3.45L43.8 7.3q-1.1.3-1.9 1.2-.35.8-.45 1.65-.15 1.05-.7 2l-.35.1-2.85 1.35m7.45.5.55 6.25q.15 2.9 2.3 5.85-2.1-.55-3.15-1.35l-1.5-2.15q-1.65 4.65-3.7 2.9-.55-.45-1-1.3l.65.2-.45-4-.35-3.95-.05-.25-.05-.25V16l.15.9q.35-.5.85-.9 2.2-1.9 5.45-1.8l.3-.1"/><path fill="#ffebc7" fill-rule="evenodd" d="m43.8 7.3.2.6.05.1.2.8.1.55.55 3.95.1.8-.3.1q-3.25-.1-5.45 1.8-.5.4-.85.9l-.15-.9v-.05l-.1-.25-.4-1.5-.2-.6 2.85-1.35.35-.1q.55-.95.7-2 .1-.85.45-1.65.8-.9 1.9-1.2"/><path fill="#c29400" fill-rule="evenodd" d="M35.8 1.9q.75.3 1.95 4.2 1 1.95 2 6.2-.65-1.85-1.35-2.65l-2.7-3.5q-1.25-1.7-3.1-2.6 2.15-2.15 3.2-1.65"/><path fill="#f7bd00" fill-rule="evenodd" d="M4.4 7.05Q6.6.3 9.35.7q4.6.75 7.5 3.75l.15 2.1q-2.95 1.55-4.55 4.4L9.4 10.8l-.3-.45-.15-.7-.05-.1-.2-.25-.1-.4-.05-.1-.85-1.05-.25-.25-.1-.05q-1.1-.8-2.55-.6l-.4.2m6.95 7.5-.55 2.6-1 1.55q-.35.45-.15 2.3-1.15 3.15-1 5.35-.4.35-1.05.35-1.2 0-2.5-1.45-.7-.85-.95-2.3L3.6 20.6q-1.65 3.5-3.6 4 1.45-3.6 2.25-7.75L3.3 11.1l3.15-.05.25.3.6 1.45.25.25.15.5.1.25.1.1.3.2.25.3.2.1 2.7.05m-7.85-4.3.05-.05h.1l-.15.05"/><path fill="#ffebc7" fill-rule="evenodd" d="m12.45 10.95-.15.3-.25.45v.05l-.6 2.2-.1.6-2.7-.05-.2-.1-.25-.3-.3-.2-.1-.1-.1-.25-.15-.5-.25-.25-.6-1.45-.25-.3-3.15.05.05-.25.15-.6.15-.05h-.1l.55-2.1.3-1.05.4-.2q1.45-.2 2.55.6l.1.05.25.25.85 1.05.05.1.1.4.2.25.05.1.15.7.3.45 3.05.15"/><path fill="#c29400" fill-rule="evenodd" d="M12.85 3.5q1.7-.85 2.35.15.3.45-1.05 1.3L12.2 6.1q-1.3 1-2.35 3.2.1-2.8.95-4.2.6-.95 2.05-1.6m-3 5.8v.55H9.6l.25-.55"/><path fill-opacity=".251" fill-rule="evenodd" d="m30.4 7.7 7.3 11v1.95q.15 2.25.8 3.65-.4-.3-.8-1.35l-.75-1.2-1.65.15-1.9.25-.9-2.95-.05-1.55q-.05-.9-.65-1.3l-1.85 2.9q-1.2 1.5-2.45-.55-.85-2.6-1.95-3.7l-2.85-3.1q-.15 1.35-2.45 4.9-.9 1.35-.8 2.8l.55 2.95q-2.5-.8-5-3.2-1.6-1.55-3.75 2.3-1.15 2-2.55 5.35l-.05-.65q.85-.75 1.1-2.6L9.65 21l.6-1.55q.45-1.35.55-2.3l6.3-9.45-.1-1.15 3-1.2Q26.45 3.2 30.5 6l-.1 1.7"/><path fill="#b98e00" fill-rule="evenodd" d="M38.15 15.7q.45 1.7.55 4.8l.45 4-.65-.2q-.65-1.4-.8-3.65V18.7l-7.3-11 .1-1.7q1.3.85 2.45 2.3l3.9 3.85q.65.9 1.3 3.55m-26.1-4q1.6-3.4 4.95-5.15l.1 1.15-6.3 9.45 1.25-5.45M9.65 21l.1 2.75q-.25 1.85-1.1 2.6-.15-2.2 1-5.35"/><path fill="#f7bd00" fill-rule="evenodd" d="M30.3 7.45q.6 3.85-.1 5.9-1.1 3.1-.6 5-1.7-.7-3.9-5.5l-2.35-6-1.4 4.25q-.65 1.5-2.7 3.55-1.95 1.85-2.15 7.8-1.4-.1-2.85-4.6-.35-1.25.15-3.55l.55-2.05-2.1 3.1-2.05 4.9q-1.85 5.35-2 10.6-.3-.35-.85-3.35-.7-3.6-.6-6.3.3-8.2 4-13.35 4-5.6 12.85-5.8 8.65-.25 13.15 6.3 3.9 5.8 3.35 15-.45 6.05-2.35 8.2.85-4.2-.65-10.45-1.65-5.75-1.7-7 0 5.35-2.8 6.4.2-.05.25-2.45 0-2.55-.35-4.3-.3-1.55-1.6-4.1l-1.2-2.2"/><path fill="#c29400" fill-rule="evenodd" d="M15 13.25q-.15 1.15 1.8 3.4.3 1.2.05 5.8-.8-.4-2.45-4.45-1.05-2.4.2-4.5l.4-.25m15.5-3 .1 1.1q-1.5 5.45-1.65 6.5-1.55-.75-2.95-4.2-1.55-3.9-2.3-4.7 5.65 6.05 6.8 1.3"/><path fill="none" stroke="#593f0e" stroke-linecap="round" stroke-linejoin="round" d="m30.2 7.85 3 5.5q.5 2 0 7.15M23.35 7.35 26 13.7q1.7 2.85 3.6 4.65"/><path fill="none" stroke="#996c18" stroke-linecap="round" stroke-linejoin="round" d="M17 20.85q-.8-3.3 1.5-5.15 2.75-2.15 3.85-5.35l.35-2"/><path fill="none" stroke="#543b0d" stroke-linecap="round" stroke-linejoin="round" d="m14.95 12.25-.5 1.65q-.45 1.95-.25 3.3.3 2.15 1.65 4.4l.65.75"/><path fill="none" stroke="#996c18" stroke-linecap="round" stroke-linejoin="round" d="m38.7 30.85-.35-6.8q-.35-4.5-2.5-9.2"/><path fill="none" stroke="#6e3b00" stroke-linecap="round" stroke-linejoin="round" d="M8.8 30.85q-2.45-5.5-.95-13.8Q10.6 1.85 25 1.85q7.6 0 11.8 5.6 2.6 3.5 3.2 7.75 1.7 12-1.65 16.35"/><path fill="none" stroke="#996c18" stroke-linecap="round" stroke-linejoin="round" d="m29.35 17.85.1-1.75q.2-1.9.75-2.75.8-1.3.3-4.8m2.7 11.95q1.65-.95 2.15-2.15.5-1.15.65-4.3v-2.2"/><path fill="none" stroke="#ffebc7" stroke-linecap="round" stroke-linejoin="round" d="M20 12.25q-1.15 2.1-2.4 2.85-.8.45-1.35 1.65l-.4 1.1m13.9-8.25q.25 1.15-.4 2.65-.6 1.5-.75 2.35"/><path fill="none" stroke="#996c18" stroke-linecap="round" stroke-linejoin="round" d="m10.6 20.75-1.5 5.6-.25 3.9M9.7 21q-.15-1.35.25-4.25.5-3.25 1.3-4.9m3.5.9q-4 7.85-4.75 8.6"/><path fill="#c29400" fill-rule="evenodd" d="m10.6 14.25.9 4.25-1.5 2.1.6-6.35"/><path fill="none" stroke="#ffebc7" stroke-linecap="round" stroke-linejoin="round" d="m25.7 2.85 2.35.3q2.65.55 4.3 1.9Q35 7.2 36 8.55m2.7 6.15.8 6v2.35"/><path fill="none" stroke="#6e3b00" stroke-linecap="round" stroke-linejoin="round" d="M15.85 3.6Q10.3-.5 7.95.8q-2 1.15-4.25 8.55-1.2 3.8-1.35 9.35-.5 3.1-1.85 5.8 2.1-.55 3.25-3.4l1 3.65q1.1 1.85 3.1 2.05M32.5 3.2l2.25-1.4Q37.2.4 38.35.7q1.6.45 3.5 3.4 2.15 3.3 2.5 6.75.5 5 1.35 10.5.15 2.2 2.15 4.85-1.65.5-3.15-1.35l-1.5-2.15"/><path fill="none" stroke="#6e3b00" stroke-linecap="round" stroke-linejoin="round" d="M40.1 26.35q2.65-1 3.25-4.5l.35-3.15"/><path fill="none" stroke="#ffebc7" stroke-linecap="round" stroke-linejoin="round" d="M40.85 4.75q1.9 3.1 2.25 5.85l.5 3.75"/></g></defs></svg>