<svg xmlns="http://www.w3.org/2000/svg" xmlns:xlink="http://www.w3.org/1999/xlink" width="100.7" height="92.9"><use xlink:href="#a" width="39.15" height="30.6" transform="translate(19.25 40.35)"/><defs><g id="a"><path fill-opacity=".302" fill-rule="evenodd" d="M32.85 20.05q.3.2.15.55-.3.95-1.05 1.2-1.2.65-2.65 0l-1.25-.35L13.4 21l-.2.05-2.7 1.1q-2.15 1.05-2.5-1-.1-.8.7-1.1l.8-.3q.15-.85 1.05-1.1l.85-.2 1.2-.3 2.85-.4.7-.25q2.7-.8 5.5-.7 5.7-.85 10.55 1.75 1.35.7.65 1.5"/><path fill-rule="evenodd" d="m34.6 14.3.05-.05.2.05.3 2.15.05 1.2-.35 1.1-.45 1.15-.85 1-.25.15.05-.05-1.5.55h-1.1l-1.2-.3q-2.75-.85-5.05-2.7-2.3-1.8-4.55-3.1l-.1.05-1.15.9v-.05q-5.65 4.55-12.45 5.7l-.15.8q-1.1-3.95-.4-5.3l.75-1.4.15-.1.8-.75h2.85l.35-.25v.35l8.1-5v.05l1.15-.7v.05l13.95 2.5.75 1.9.05.1M33.35 21l.2-.1-.2.1"/><path fill="none" stroke="#000" stroke-linecap="round" stroke-linejoin="round" d="m34.85 18.75-.45 1.15-.85 1-.2.1-1.5.55h-1.1l-1.2-.3q-2.75-.85-5.05-2.7-2.3-1.8-4.55-3.1l-.1.05-1.15.9m0-.05q-5.65 4.55-12.45 5.7m4-6.75.35-.25m0 .35 8.1-5m0 .05 1.15-.7m0 .05 13.95 2.5.75 1.9.05.1"/><path fill="none" stroke="#000" stroke-linecap="round" stroke-linejoin="round" d="M19.8 16.3q11.25 12.05 15.3 8.05M11.45 17.6q-1.7 7.5-5.85 6.85"/><path fill="none" stroke="#000" stroke-linecap="round" stroke-linejoin="round" d="M31.25 15.45q4.25 1 6.35 5.65m-12.05-2.7q2.25 3.3 3 9.25M7 16.85q-3.05.75-5 4.35m6.15-1.6Q6.8 21.8 6.1 26.85M14.05 18q-3.7 4.25-3.95 9.75"/><path fill="#ce0000" fill-rule="evenodd" d="M11.35 29.8q-.45.65-1.25.45-2.5-.7-1.2-2.85.5-.75 1.35-.75 2.8.8 1.1 3.15"/><path fill="#c80000" fill-rule="evenodd" d="M29.6 30.1q-.45.7-1.25.45-2.5-.65-1.15-2.8.4-.7 1.2-.75h.1q2.8.8 1.1 3.1"/><path fill="none" stroke="#000" stroke-linecap="round" stroke-linejoin="round" d="M29.5 19.15q2.2 1.2 3.35 7.75"/><path fill="#c80000" fill-rule="evenodd" d="M33.65 28q-.45.7-1.25.45-2.5-.65-1.15-2.8.4-.7 1.2-.75h.1q2.8.8 1.1 3.1"/><path fill="#ce0000" fill-rule="evenodd" d="M7.2 28.2q-.45.65-1.25.45-2.5-.7-1.2-2.85.5-.75 1.35-.75 2.8.8 1.1 3.15m-4.3-4.85q-.45.65-1.25.45-2.5-.7-1.2-2.85.5-.75 1.35-.75 2.8.8 1.1 3.15m35.6-1.2q-.45.65-1.25.45-2.5-.7-1.2-2.85.5-.75 1.35-.75 2.8.8 1.1 3.15"/><path fill="#b05" fill-rule="evenodd" d="m6.15 16.9.2-1.95q.1-1.1 1.65-4.8 1.35-3.9 3.35-5.9Q14.5.65 19.7.5q5.05-.25 8.95 3.75 2.3 3.45 3.35 6.4L33.1 14l-.1 1.45-.2 1.5-1.7-.2-4.6-.55-4.75-.25H17.8l-4.3.2-4.95.45-2.4.3"/><path fill="none" stroke="#6b0146" stroke-linecap="round" stroke-linejoin="round" d="m6.15 16.9.2-1.95q.1-1.1 1.65-4.8 1.35-3.9 3.35-5.9Q14.5.65 19.7.5q5.05-.25 8.95 3.75 2.3 3.45 3.35 6.4L33.1 14l-.1 1.45-.2 1.5"/><path fill="#b05" fill-rule="evenodd" d="M4.4 14.6q.25-1.55.95-2l1.55-1.05 1.3-.25 1.9-.3 4.2-.45 3.7-.2h3.45l4.35.25 4.2.5 1.55.25 2.05.35q.85.15 1.8 2.1.7 1.5.35 2.95l.1-.65q-7-2.75-14.45-2.7l-4.65-.15q-5.95.1-11.85 1.25l-.5.1"/><path fill="#9c0043" fill-rule="evenodd" d="m35.75 16.75-.2.65-.1.2-.05.05q-.9 1.75-2.8 1.05l-2.9-1q-1.75-.6-4-.9l-3.4-.3h-4.55l-3.9.35-3.25.6-1.85.35-2.55.5q-1.45-.35-1.8-1.55l-.1-1.25v-.3l.1-.6.5-.1q5.9-1.15 11.85-1.25l4.65.15q7.45-.05 14.45 2.7l-.1.65"/><path fill="none" stroke="#6b0146" stroke-linecap="round" stroke-linejoin="round" d="M30 11.1q1.3 2.6.8 4.25l-1.1 2.35m-3.85-7.1q.6 2.55.25 4.85l-.35 1.35m-4.3-6.45q.95 2.4.4 4.9l-.2 1.25M10.1 11q-1.75 2.65-1.6 4.4l.2 2.4m9.3-7.45q-.55 2.4-.4 4.6l.15.8q-.2.45 0 .75m-3.9.35q-.1-2.45.2-4.9l.25-1.4"/><path fill="none" stroke="#6b0146" stroke-linecap="round" stroke-linejoin="round" d="M33.45 11.6q2.25.8 2.65 3.05.55 3.2-2.65 4.25l-.85-.2-2.9-1q-1.75-.6-3.95-.9l-3.45-.3h-4.55l-3.9.35-3.25.6-1.9.35-1.3.25-1.2.15Q3.9 17 4.25 14.55q.4-2.45 2.7-3l.45-.1.8-.15 1.9-.3 4.2-.45 3.7-.2h3.45l4.4.25 4.15.5 1.55.25 1.9.25Z"/></g></defs></svg>