<svg xmlns="http://www.w3.org/2000/svg" xmlns:xlink="http://www.w3.org/1999/xlink" width="100.7" height="92.9"><use xlink:href="#a" width="41.95" height="26.95" transform="translate(21.1 42.55)"/><defs><g id="a"><path fill-opacity=".251" fill-rule="evenodd" d="M25.5 13.05 28.55 15q3.15 1.95 2.45 5.65l-.1.05-.1.1q-3.8-2.1-7.95-2.95l-8.55-.5-3.55.6q-4.35 1.2-6.6 5.1-.15.3-.55.35v.05l-.15.2-.1.1h-.2l-.35-.1-.1-.1v-.1l-.05-.15v-.6l.05-.05.3-.45.25-.7.4-.75v-.1l.05-.1v-.1l2.05-3.6q2.3-4.4 7.15-5.9 6.6-.7 12.4 2l.2.1"/><path fill="#ffe100" fill-rule="evenodd" d="M1.45 7.15.65 3.8q1.05.15 3.3 1.7L2.5 3.3Q1.4 1.8.7 1.7l4.8.3 3.55 1.15Q8.6.95 7.6.45q2.65 0 4.1 1.9l1.6 2.6q.9 2.1.55 2.65l-7 11.85q-1.8.1-3.4-1.5l-2.3-3.25 1.25.75q1 .25 1.55-.3Q.6 13.7.5 7.25q.95 2.6 2.55 2.55l-1.6-2.65"/><path fill="#d4b100" fill-rule="evenodd" d="M1.1 4.2q.15.8 1.9 3 1.25 1.7 2 .75.5-.65.05-1.75l-.7-1.65 2.3 1.8Q7.9 8 8.2 9.15q.5 2.05-1.65 5.95-.8 3.55-3 3.25-.85-.15-1.6-1.35-.75-1.15-.7-2.05l2.45.45q-1.65-2.1-2.15-3.45-.8-2.2-.85-4.1.75 1.8 1.25 1.95.1-1.15-.5-2.8L.7 4.3l.4-.1"/><path fill="none" stroke="#8f5227" stroke-linecap="round" stroke-linejoin="round" d="M4.25 19q-2.65-1.7-3.2-4.45l1.8.75 1.35-.1q-2.3-1.15-3-3.8Q.45 8.75.5 7.25L2.05 9.5q.6.5 1 .5-1.5-2.3-1.85-3.9L.75 3.55l3.2 1.95Q3.4 3.95 2.6 3.1L.95 1.7q3.35-.4 4.55.05 1.25.4 3.35 1.55.35-.95-.6-1.95Q7.5.55 7.2.5q2.05-.15 3.35.75Q14.7 4 15.2 9.6"/><path fill="#ffe100" fill-rule="evenodd" d="M18.85 4.45q5.65.45 9.1 3.75 5 4.65 5.4 13.35l-.05 2.85q-2-.6-3.05-4.5l-.75-4.4q-.55-2.8-1.8-3.8-.7-.6-6.4-2.1l-4.8.2q-3.35.5-4.65 0L10.6 6.95q2.6-2.9 8.25-2.5"/><path fill="none" stroke="#8f5227" stroke-linecap="round" stroke-linejoin="round" d="M7.7 9.45q1.75-4.4 9.4-5 7.6-.65 11.75 4.75"/><path fill="#ffe100" fill-rule="evenodd" d="M28.45 14.65q-3.45 0-7.75-2-2.45-1.3-3.6-1.6-.6-.15-1.55.35l-3.95 1.55-4.4 1.1.4.15-1.2.1 4.55-3.55L13.2 8.9q2.2-1.15 4.65-1.05 3.05.1 6.25 2.05 3.4 2.05 4.35 4.75"/><path fill="#ffe100" fill-rule="evenodd" d="M15.25 9.95q-3.3 1-5.15 2.1-1.35.85-2.5 2.25l-.9 1.35q-.6.8-1.2.75-.55-4.35 2.45-7.45 1.85-1.85 3.75-2 4.45-.4 6 1.5l.25-.4q1.9-.1 2.8.5l-3.05.75-2.45.65"/><path fill="#ffe100" fill-rule="evenodd" d="M13.95 8.7q.6-1.5 3.2-2.15l4.05-.2q1.4.2 2.85 1.45 1.6 1.4 1.55 2.75-11.95 2.05-11.65-1V8.7"/><path fill="#ffe100" fill-rule="evenodd" d="m17.75 6.9 4.5.2q2.5.7 4.05 1.95 3.8 3 4.95 6.95l1.35 5.95.35 2.6-2.75-2.6q-.85-.85-1.4-2.2l-.95-2.45q-.8-1.65-3.1-4.4-2.1-1.1-6-3.65-2.8-1.8-1-2.35"/><path fill="none" stroke="#6b4c26" stroke-linecap="round" stroke-linejoin="round" d="M27.85 17.3 29 20.45q.75 1.25 3.3 3.75"/><path fill="#ffe100" fill-rule="evenodd" d="M3.7 19.2q0-2.45 1.15-4.25l1.75-2.1q1.5-1.35 1.85-.4.35.8-.9 2.2l-1.8 1.95-1.9 2.35-.15.25"/><path fill="#d4b100" fill-rule="evenodd" d="m8.85 16.8-3.3 5.05Q3.65 24.7 1.6 26.4l.55-3.3 1.05-2.8.9-1.6q1.5-2.6 3.65-4.85l1.55-1.9q1.05-1.15 2-1.15.1 2.15-2.45 6"/><path fill="#ff3ac0" fill-rule="evenodd" d="m30.6 16.95 1.75-.75 1.1 4.25q.25.6-.75 5.6l-1-6.75-1.1-2.35M26.95 8.3q-1.4-.7-5.3-.5-3.85.25-5.45.85-4.1 1.5-5 4.65l.25-.1q-.55.35-1.05-.2-.4-.5-.3-1.15.05-.4 1.25-1.9 2.15-2.35 3-2.75 2.3-1.15 6.05-.8 3.65.3 6.55 1.9"/><path fill="none" stroke="#a81478" stroke-linecap="round" stroke-linejoin="round" d="M11.7 8.8q-.5-2 7.75-2.25Q25.2 6.4 27.6 8.9l-.5 1.4q-2-2.65-9.6-2-1.45.15-2.65.7l-.9.55"/><path fill="#ffe100" fill-rule="evenodd" d="m10.95 11.95.15.3-.95.55.8-.85m24.8-8.2Q36 5 34.85 6.5L32.9 8.65l6.1-1.2-1.15 2.15q-.65 1.05-3.45 2.45l2.95-.95q1.8-.65 3.05-.55-.05 1.95-3.1 3.6-5.65 3.1-11.8 3.35-1.75.1-7.55-1.2-1.55-.35-3.85-1.65-2.35-1.3-3-2.4l3.45-1.55q5.1-2.1 6.95-2.2 4.35-.3 14.25-4.75"/><path fill="#d4b100" fill-rule="evenodd" d="M20.1 12.05q4.1-.2 6.45-1.1-1.65 1.9-7.55 2.8-7.05 1.1-6.9-2.95.05-.4 2.15.25l2.35.75 3.5.25M38.9 8.1q-3.2 4.45-7.65 4.2-.15-1.1 3.2-2.65Q37.2 8.4 38.9 8.1"/><path fill="#d4b100" fill-rule="evenodd" d="M17.85 15.9q-6.45-2.25-4.75-3.85l1.1-.1q1.4 1.55 5.75 2.45l7.5.4q2.95 0 5.95-1.1l5.55-2.45 1.5-.45q-.35 1.4-4.75 3.7-3.3 1.8-5.6 2.2-6.85 1.15-12.25-.8"/><path fill="none" stroke="#a81478" stroke-linecap="round" stroke-linejoin="round" d="m30.6 16.95 1.25 3.2q.5 2 .85 5.9.85-2.5.75-5.6l-1.1-4.25"/><path fill="none" stroke="#8f5227" stroke-linecap="round" stroke-linejoin="round" d="M20.2 8.6q3-.25 7.25-1.45 4.3-1.15 8.9-3.55-.5 2.05-1.35 3.1l-2.35 2.05 3.5-.7 3.5-.85q-1.05 2.1-2 2.8l-3.05 1.85 3.3-1q1.65-.5 3.55-.45-1.55 2.15-3.45 3.15-4.9 2.8-9.5 3.5-6.4 1.05-12.4-1.4l-5-3"/><path fill="none" stroke="#6b4c26" stroke-linecap="round" stroke-linejoin="round" d="M10.6 14.05Q7.95 19.3 5.35 22.3l-3.4 4.15q-.25-2.15.2-3.35l.95-2.15"/><path fill="#ff3ac0" fill-rule="evenodd" d="M9.95 13.2q-1.5.2-4.5 4.35-1.9 2.65-2.6 4.15-.4-2.4 2.1-5.85 3.95-5.45 5-3.15v.5"/><path fill="none" stroke="#a81478" stroke-linecap="round" stroke-linejoin="round" d="m7.6 14.7-4.75 7q.25-3.25 1-4.75L6.1 13.8"/><path fill="#ff3ac0" fill-rule="evenodd" d="M8.95 10.1q-.25-2.75 1.8-3.6 2.05-.9 2.95 2.1.6 2.15-.15 4.5-.85 2.8-3 2.85-1.65.1-3.4-1.3-1.75-1.4-2.05-3.05-.4-2.15 1.15-2.45 1.4-.25 2.7.95"/><path fill="none" stroke="#a81478" stroke-linecap="round" stroke-linejoin="round" d="M8.95 10.1Q8.7 6.3 11.6 6.2q1.9-.05 2.35 2.55.3 2.05-.25 3.9-1.55 5.15-5.85 2.55-2.5-1.5-2.85-3.4-.3-1.5.6-2.25 1.35-1.1 3.35.55Z"/><path fill="#ffc2eb" fill-rule="evenodd" d="M12.95 8.7q.3 1.15-1 .45t-.9-1.75q.4-1 1.2-.3.8.7.7 1.6m-4.5 2.1.25.4q.15 1-1.2.5-1.4-.55-1.4-1.25-.05-1 1.05-.65 1 .35 1.3 1"/></g></defs></svg>