<svg xmlns="http://www.w3.org/2000/svg" xmlns:xlink="http://www.w3.org/1999/xlink" width="100.7" height="92.9"><use xlink:href="#a" width="43.9" height="32.25" transform="translate(16.55 45)"/><defs><g id="a"><path fill-opacity=".251" fill-rule="evenodd" d="M31.05 10.1q1.95-.05 1.05 1.5l-.7.55-2.2.45-.4.1q-4.15.7-6.4-1.95l-.2-.2-.05-.05-1.5 1.15q-2.5 1.25-5.25.75-.6-.1-.5-.7l.05-.1-.45-.2q-1.35-.55-.25-1.5.45-.4 1.05-.3l.3.05q.7-.8 1.85-.45l1.75.05 1.7-2.55.15-.4q.3-.75 1.05-.8 1.45.7.8 2.25l.5.8v.05l.05.05.4.5 3.25.1q1.7-1.45 2 .55l-.1.55 1-.15 1.05-.1"/><path fill="none" stroke="#d98200" stroke-linecap="round" stroke-linejoin="round" d="m41.75 23.8-1.05-4.05-1.25-3"/><path fill="#ffc300" fill-rule="evenodd" d="m34.5 13.9 1.05-1.8 1.35.55 2.85 1.85q1.35 1.2 2.6 4 1.15 2.75 1 3.85-.3 1.4-1.95 2.35.75 1-.25 2.25-.6.75-1.45.9l-.25-2.3-.95-3.45-2.5-6.9q-.4-1.1-1.35-1.55l-.15.25m4.3 13.9-.5-.15-.6-2.2.45 1.45.2.75.45.15"/><path fill="#d4a200" fill-rule="evenodd" d="m34.5 13.9.15-.25q.95.45 1.35 1.55l2.5 6.9.95 3.45.25 2.3h-.5l-.4-.05-.45-.15-.2-.75-.45-1.45-3.2-11.55"/><path fill="#ffc300" fill-rule="evenodd" d="M17.3 1.7q1.45-.65 4.15-.7h.45l3.4.45q.55.8.75 1.8l-.5.6q-.8.7-.6 1.6l.3.25L27.8 5q.75-.3.85-1.05l.05-.35-.5-.4 1.1.85 2.45.2q-.45.45-.5 1.25l.15.8q.85 1.6-.8 2.2-.9.35-1.3 1.2-.1.25.15.45.7.45 1.65.3 1.2-.2 2.1-1 1.45-1.25.45-3l.7-.05 1.95 3.35q.75 1.5.9 4.85l.1.5.25.3q.7.25.85.4 1 .85 1.5 4.2.5 3.5-.1 4.7l-.2.45q-1-2.6-3.5-3.7-.25 0-.4.2l.25.4-2.3-3.7q-.8-1.4-3.85-3.4-1.1-.75-1.15-1.4-.1-.9-.4-1.3.2-2.5-.9-3.05L24 9.1q-1.3-1.2-2.1-1.45l-.45-.05q-.8 1.45-1.8 1.75l-3.3.2-2.4 3.65q-2.2 1.95-3.45 4-1.35 2.35-2.15 5.65L7 21.8q.15-2.7 1.5-5.05 1.25-2.1 2.2-4.35l1.3-1.9.4-.75Q14 7.8 14.45 5.4q.15-.9-.45-1.45l1.25-.1.05.55q.15 1 1.1 1.6 1.35.8 2.85.4.9-.25.9-1.1.05-1.5-1.15-2.45l-.2-.4q.05-.7-.2-1.15l-1.3.4"/><path fill="#d4a200" fill-rule="evenodd" d="m17.3 1.7 1.3-.4q.25.45.2 1.15l.2.4q1.2.95 1.15 2.45 0 .85-.9 1.1-1.5.4-2.85-.4-.95-.6-1.1-1.6l-.05-.55h.05q.25 0 .9-1.4l.15-.15.95-.6M14 3.95q.6.55.45 1.45Q14 7.8 12.4 9.75l-.4.75-1.3 1.9q-.95 2.25-2.2 4.35Q7.15 19.1 7 21.8 5.3 20.25 5.65 19l1.2-5.9 1.3-5q.95-1.3 1.2-2.05.35-.9.8-1.1l.95-.4 2.9-.6m21.95 18.1-.25-.4q.15-.2.4-.2 2.5 1.1 3.5 3.7-.6 1.35-1.55 5v-.25l-.2-2.1-.1-.65v-.05q-.35-2.4-.85-3.7l-.95-1.35"/><path fill="#ffeabb" fill-rule="evenodd" d="m34.35 6.4-.7.05q1 1.75-.45 3-.9.8-2.1 1-.95.15-1.65-.3-.25-.2-.15-.45.4-.85 1.3-1.2 1.65-.6.8-2.2l-.15-.8q.05-.8.5-1.25.9.25 1.55.85l.5.55.6.75h-.05M28.2 3.2l.5.4-.05.35q-.1.75-.85 1.05l-2.55.7-.3-.25q-.2-.9.6-1.6l.5-.6q-.2-1-.75-1.8l2 1.05.2.15.7.55"/><path fill="#ffc300" fill-rule="evenodd" d="M35.05 31.8q.35-6.35.35-12.7v-.95l-.1-1.7.25-.25 1.65-2.1q1.1 2.85 1.25 10.25l-.2 5.3q-.2 2.2-2.5 2.2l-.7-.05"/><path fill="#d4a200" fill-rule="evenodd" d="m35.3 16.45.1 1.7v.95q0 6.35-.35 12.7-1.15-.2-1.45-.85l-.05-.05-.05-.25v-.3q-.8.55-.5-4.15l1.15-7.15q0-.95.7-2l.45-.6"/><path fill="#ffc300" fill-rule="evenodd" d="M8.6 12.1q-.1.35-.7.7-3.3 1.95-5.05 5.35L1.8 20.7l-.35 2.9-.5-.6-.35-.85L.55 22Q.4 20.9 1.6 18.2l.85-1.75q.8-1.5 1.75-2.3l.5-.45q1.7-1.35 3.7-1.95l.2.3v.05M2.25 24.25l.55-3.5.25-.95q.25-.8.85-1.35l.2-.1q1 .5.4 1.65-1.05 2.1-.95 4.5.05 1.35-.35 2.6l-.45-.45q-.65-.8-.5-1.6l.3-.65-.3-.15"/><path fill="#d4a200" fill-rule="evenodd" d="m8.6 12.1.8 1.5-3.8 13.75q-1.45.45-2.4-.25.4-1.25.35-2.6-.1-2.4.95-4.5.6-1.15-.4-1.65l-.2.1q-.6.55-.85 1.35l-.25.95-.55 3.5-.8-.65.35-2.9 1.05-2.55q1.75-3.4 5.05-5.35.6-.35.7-.7"/><path fill="#ffc300" fill-rule="evenodd" d="m7.2 15.45 1 1.2q.7 1.05.7 2l1.2 7.15q.2 4.75-.55 4.15Q9.5 31 8.35 31.3l-.4-.8q-.7-1.1-.8-2.35-.55-6.35.05-12.7"/><path fill="#d4a200" fill-rule="evenodd" d="M7.2 15.45q-.6 6.35-.05 12.7.1 1.25.8 2.35l.4.8-1.1.15q-1.7.05-2.2-1.2L5 30.2l-.1-.5-.05-.45-.3-5.25q.15-7.6 1.3-10.25l1.35 1.7"/><path fill="none" stroke="#a95c01" stroke-linecap="round" stroke-linejoin="round" d="M33.5 14.35q.95 3.65.1 7.2-.85 3.6-.25 8.9.1 1.3 2.2 1.3 2.05 0 2.3-1.65.9-5.95.55-10.6-.3-3.45-1.3-5.55l-.5-2.55q-.9-3.65-1.75-4.55l-2.1-2q-1.3-.95-2.45-.95l-1 .15Q27.85.5 21.7.5q-6.15 0-7.05 3.85Q13 3.8 11.1 5.1q-.8.2-2.05 1.45-.85.9-1.7 4.55l-.1.4-.05.3-.15.7Q5.35 14.65 5 19.15q-.35 4.1.55 10.6.25 1.65 2.3 1.65 2.1 0 2.2-1.3.6-5.2-.2-8.85-.55-2.2-.3-4.95l.4-2.25"/><path fill="none" stroke="#a95c01" stroke-linecap="round" stroke-linejoin="round" d="m38.3 27.65.85.2q.95.1 1.55-.4.9-.85 1.2-1.8.4-.45-.1-1.85 1 .55 1.55-1.45.35-1.55-1.3-4.35l-2.65-4.15q-.55-.85-2.1-1.4l-1.4-.35"/><path fill="#ffc300" fill-rule="evenodd" d="M15.45 10.7q.5.25-.45 2.15-.95 1.85-1.5 1-.85-1.35-.1-3 1.15-2.5 4.55-4.3l-2.5 4.15"/><path fill="none" stroke="#d98200" stroke-linecap="round" stroke-linejoin="round" d="m8.65 17.05 2.45-1.1q1.45-.45 3.55-2.65.45-.5 1.7-3.75l3.3-.2q.9-.35 2.2-1.55L24 9.45q.85.3 3.55 0l.25 1.4q.15 1.3 1 2.45 1.7 2.15 2.95 2.45l1.65.45"/><path fill="none" stroke="#a95c01" stroke-linecap="round" stroke-linejoin="round" d="M5.6 27.35q-1.45.6-2.4-.25l-1.15-1.8.05-1.85Q1.1 24 .55 22q-.35-1.6 1.3-4.35l2.65-4.1"/><path fill="none" stroke="#ffc300" stroke-linecap="round" stroke-linejoin="round" d="m2.1 23.45 1.1-4.05 1.3-3"/><path fill="none" stroke="#ffeabb" stroke-linecap="round" stroke-linejoin="round" d="M36.65 16.25q1.25 6.8 0 13.45m5.15-5.9q-1.45-4.8-2.1-5.95"/><path fill="none" stroke="#d98200" stroke-linecap="round" stroke-linejoin="round" d="M5.45 22.1q.75-3.5 2.2-4.15l1.6-.5q.6-.35 1.35-2.25m22.65 14.6.6-1.4q.8-1.5 1.8-2.05 2.45-1.2 2.9-3.4m-4.7-1.65.6-1.45q.8-1.6 1.65-2.15 1.35-.9.6-3.1M5.9 29.8q.8-3.35 1.95-4.1 2.3-1.5 2.4-3.65"/><path fill="#ff00a6" fill-rule="evenodd" d="m30.75 13.8 1.6-.35 2.3-.2.6-2.65.1-.3q.8-2.4 1.95-2.4 1.35 0 2.7 3l.35.8q.9 2.3.5 3.45-.35.9-1.9.95h-.55l-1.2-1.3q-.6-1.15-.85-2.35l-.1-.75.2-1.15.2-.2q-.75.55-1.15 1.35l-.4 1.15q-.35 1.75.8 2.9l-1.1 2.5-1.15 2.1q-.9-.55-1.6-1.3-1.45-1.7-1.35-3.85v-.75l.05-.65"/><path fill="#d5007a" fill-rule="evenodd" d="m38.75 16.1-2.8-.45-.05.1q-1.15-1.15-.8-2.9l.4-1.15q.4-.8 1.15-1.35l-.2.2-.2 1.15.1.75q.25 1.2.85 2.35l1.2 1.3h.35m-5.1 4.25-.5.7-.1.1v.05l-.2.15Q32 22 30.4 18.7l-.05-.05-.4-.95q-1-2.3-.6-3.1l.05-.1 1.1-.65.25-.05-.05.65v.75q-.1 2.15 1.35 3.85.7.75 1.6 1.3"/><path fill="none" stroke="#d5007a" stroke-linecap="round" stroke-linejoin="round" d="m39.55 10 .45.9q.85 1.85.95 3.1l-.05.9m-7.85 6.25v.05l-.2.15Q32 22 30.4 18.7l-.05-.05-.4-.95q-1-2.3-.6-3.1l.05-.1q.25-.35 1.05-.65h.05m4.15-.6q.1-.9.35-1.75l.25-.9q.5-1.6 1.1-2.2"/><path fill="none" stroke="#bb005e" stroke-linecap="round" stroke-linejoin="round" d="m40.9 14.9-.05.25-1 .85m-5.65 3.45-.45.75-.1.15-.5.7-.1.1"/><path fill="none" stroke="#ff00a6" stroke-linecap="round" stroke-linejoin="round" d="M36.35 8.4q.45-.5.95-.5 1.15 0 2.25 2.1m-9.05 3.85.25-.05 1.3-.3.3-.05 2.3-.2"/><path fill="none" stroke="#8f0149" stroke-linecap="round" stroke-linejoin="round" d="m39.85 16-.9.1h-.2l-2.8-.45-.05.1-.75 1.8-.35.7-.25.5-.35.7"/><path fill="#ff00a6" fill-rule="evenodd" d="m4.85 16.1.55-.55.15-.15q1.4-1.8.95-4.2-.35-1.9-2.15-2.15l-.5.1Q4.7 7.9 5.6 7.9q1.95 0 2.65 5.4l2.3.2q2.4.35 2.95 1.05.55.85-1 4.15-1.65 3.35-2.45 2.65l-1-1.35q.35-.05.85-.4 1.55-1 1.3-2.85-.35-2.95-3.45-3.05-.4.05-.65.4-.45.75-.4 1.65h-.05l-1.05.2-.75.15"/><path fill="#d5007a" fill-rule="evenodd" d="m3.85 9.15.5-.1q1.8.25 2.15 2.15.45 2.4-.95 4.2l-.15.15-.55.55q-2.1.2-2.65-.7l-.1-.25q-.5-1.3.8-4.2l.95-1.8m2.85 6.6q-.05-.9.4-1.65.25-.35.65-.4 3.1.1 3.45 3.05.25 1.85-1.3 2.85-.5.35-.85.4L9 19.95l-.9-1.8-1.15-2.5-.25.1"/><path fill="none" stroke="#d5007a" stroke-linecap="round" stroke-linejoin="round" d="M6.65 15.75h.05m4.8-2.05-.95-.2-2.3-.2-.15-.85M3.7 9.4l-.8 1.55q-.95 2.15-.95 3.4m8.6 7.1 1.05-1.1.9-1.65.45-1.05"/><path fill="none" stroke="#bb005e" stroke-linecap="round" stroke-linejoin="round" d="m1.95 14.35.05.5.1.3.1.25q.4.65 1.6.75m5.4 4.15.85 1.05.5.1"/><path fill="none" stroke="#ff00a6" stroke-linecap="round" stroke-linejoin="round" d="M12.95 17.65q1-2.4.55-3.1-.4-.55-2-.85m-3.4-1.25Q7.4 7.9 5.6 7.9q-.9 0-1.75 1.25l-.15.25"/><path fill="none" stroke="#8f0149" stroke-linecap="round" stroke-linejoin="round" d="m3.8 16.15 1.05-.05.75-.15.5-.1.55-.1.3-.1 1.15 2.5.1.15.35.8.1.2.35.65.05.05.15.3"/></g></defs></svg>