<svg xmlns:xlink="http://www.w3.org/1999/xlink" height="92.9" width="100.7" xmlns="http://www.w3.org/2000/svg"><use height="24.5" transform="translate(15.25 39.85)" width="42.2" xlink:href="#a"/><defs><g id="a"><path d="M30.85 9.45q4.4.15 5.7 2.45.65 1.15.4 2.25-.65.9-2.35.3l-3.95-1.8-2.5-1.25-.35-.1-.2-.1 2.9-1.75h.35m-.4-6.8Q25.2-2 22 6.45q-2.3-4.65-6.6-1.8Q7.6 1.7 4.5 8.45 3.05 11.8 5.7 14.3q2.05 1.85 5.25 1.5-1.7 1.45-4 2L1 17.7l2.3 1.95q3.5 2.7 4.25 2.8 2.9.45 6.35-.8 3-1.05 4.6-3.75.95-3.15 1.75-4.65l.6-.85 1.75-.2q2.35 3.4 2 7.3 2.35 0 6.5-3.2l.1.2.05.05.9.7.3.05 3.65-.2q3.5-1.55 4.5-3.95 1.25-3.1-2.3-6.7-2.35-2.3-6.2-1.7-.45-.95-1.65-2.1M15 11.15 13.4 13l-1 .3q-1.7.4-3.55-1.3 1.1-3.2 4.5-3.65.5 1.1 2.7 2.25l-1.05.55" fill="none" stroke="#2b2204" stroke-linecap="round" stroke-linejoin="round" stroke-width="2"/><path d="M-9-4.5q3.9-3.3 6.45-.65Q-1.3-3.85-.8-1.9l-2.6 4Q-6 1.5-8 .35q-4-2.3-1-4.85" fill="#9e7800" fill-rule="evenodd" transform="translate(23.4 9.9)"/><path d="M.3 2.85-2.5.35q.65-3.45 2.15-6.1 3.05-5.35 7.4-1.5 4.35 3.9-.75 7.4-1.6 1.1-3.95 2l-2.05.7" fill="#9e7800" fill-rule="evenodd" transform="translate(23.4 9.9)"/><path d="m7.45-.45-4.05.4-.95.5 8.75 4.1q1.7.6 2.35-.3.25-1.1-.4-2.25-1.3-2.3-5.7-2.45m-7.4-1.4Q10.9-7.4 14.9-3.45q3.55 3.6 2.3 6.7-1 2.4-4.5 3.95-3 1.4-5.05-.95Q5.3 3.65 1.4 2.2l-3.1.25q-2 .3-2.15-.9-.2-1.3 3.9-3.4" fill="#ffc300" fill-rule="evenodd" transform="translate(23.4 9.9)"/><path d="M11.2 4.55q1.7.6 2.35-.3l-.5 1.7L12 7.1l-1.4.6-1.85-.35-.9-.7-.05-.05-.15-.35L.55 1.2l1.9-.75Q9 3.75 11.2 4.55" fill="#9e7800" fill-rule="evenodd" transform="translate(23.4 9.9)"/><path d="M-14.55 2.1Q-12.7 3.8-11 3.4q3.05-.7 7.35-3.15Q-6.25-1.6-9.3-1.6q-4 0-5.25 3.7m-4.35-3.55q1.65-3.65 5.3-4.4 4.75-1 11.25 3.8Q1.35.6-.65 1.65q-.85.45-2.95.75-2 .3-3 .9l-2.65 1.35-2.75 1.2q-3.4.65-5.7-1.45-2.65-2.5-1.2-5.85" fill="#ffc300" fill-rule="evenodd" transform="translate(23.4 9.9)"/><path d="m-3.65.25-3.2 3.05-2.3 1.7-2.85.85h-1.1l-.8-.35-.7-1.65.05-1.75Q-12.7 3.8-11 3.4q3.05-.7 7.35-3.15" fill="#9e7800" fill-rule="evenodd" transform="translate(23.4 9.9)"/><path d="M-1.05-3.1q2.8 0 3.1 2.6.25 2.55-3.15 2.75-3.45.15-3.1-2.6.35-2.75 3.15-2.75" fill="#ffc300" fill-rule="evenodd" transform="translate(23.4 9.9)"/><path d="M.9 1.25q3.5.15 3.7 2.5.05.85-.5 1.65 1.25.35 2.4 1.1.9.6 1.3 1.5l.05.45-.65.9Q4.8 11.1 2.05 12.2q-.7.25-1.4 0-1.8-.55-1.7-2.45l-.05-1.9.15-1.1L-1 6.3q-.1-1.6-.55-2.65Q-2.6 1.15.9 1.25" fill="#616082" fill-opacity=".353" fill-rule="evenodd" transform="translate(23.4 9.9)"/><path d="M-.75 2.8q-1.75 1.45-3.1 5.05Q-5.3 11.7-6.6 13q-1.1 1.1-2.6 1.45-1.7.45-2.55-.5-1.4-1.7-1.15-2.5l3.15-2.55q1.1-.85 2.3-2.9 1.35-2.3 2.1-3.05Q-4.3 1.9-2 1.65q.9-.1 1.5.25.7.4-.25 1.15V2.8" fill="#616082" fill-opacity=".353" fill-rule="evenodd" transform="translate(23.4 9.9)"/><path d="M-3.15 3.35Q-3.95 4.85-4.9 8q-1.6 2.7-4.6 3.75-3.45 1.25-6.35.8-.75-.1-4.25-2.8l-2.3-1.95 5.95.1q3.2-.75 5.4-3.4l2.65-3.25q2-1.35 5.95-1 1.3.15 3.7 1.5l-2.55.05q-1.1.2-1.85 1.55" fill="#ffc300" fill-rule="evenodd" transform="translate(23.4 9.9)"/><path d="M9.8 4.8 5.75 7.85Q3.1 9.6 1.2 9.6q.35-5-2.8-8.25l6.35.15q5.7 2.8 5.05 3.3" fill="#ffc300" fill-rule="evenodd" transform="translate(23.4 9.9)"/><path d="M3.85 1.5q1.9-.25 2.3 1.1.45 1.2-1.9 1.7-2.65.35-2.5-.85Q1.85 2.8 2.8 2q.95-.8 1.6-.75l-.55.25" fill="#ffd961" fill-rule="evenodd" transform="translate(23.4 9.9)"/><path d="m.85 1.1 5.3 1.5q2.1 1 3.65 2.2" fill="none" stroke="#fff2c7" stroke-linecap="round" stroke-linejoin="round" transform="translate(23.4 9.9)"/><path d="M-17.9-3q.5-.35 1.25-1.45 1.5-1.05 2.25-.55l.9 1.15 1.2.8 2.05 1.4-2.15 1.1-2.25.05q-2.5-1.1-3.25-2.5l-.2.1.1-.25.1.15M10.45-.4l.7-.9 1.6-2.1q.8-.95 1.5-.7t1.05.65Q16.75-2 16.5-.4q-.1.8-.95 1.7-.8 1-1.55 1.1-.5.1-.65-.2L13 1.5 10.95.3q-.65-.4-.5-.7" fill="#ffd961" fill-rule="evenodd" transform="translate(23.4 9.9)"/><path d="M1-1.5v.05q-.3.95-.9.9-.9-.15-.95-.8-.05-.9.9-.95.95-.05.95.8" fill="#fff" fill-rule="evenodd" transform="translate(23.4 9.9)"/><path d="m-.85-3.5 1.05.2q1.2.35 1.8 1.2.9 1.35.15 3" fill="none" stroke="#c99900" stroke-linecap="round" stroke-linejoin="round" transform="translate(23.4 9.9)"/><path d="M-1.15 1.7Q-2.35 2.35-3 3l-2.5 5.2q-1.35 2.45-5.15 3.5l-5.85.3M-4.15-.3Q-9-3-12.5-.8q-3.5 2.15-1.4 6.3M3.35-.3 7.1-.65Q11.2-.6 13 1.5q2.6 3.05 0 4.8L9.85 7.5" fill="none" stroke="#fff2c7" stroke-linecap="round" stroke-linejoin="round" transform="translate(23.4 9.9)"/><path d="M13.6-2.05q1.45-1.15 2 .3.65 1.85-3.4 1.9.1-1.1 1.4-2.2M4.35 2.2h.15l1 .2q-.4.75-1.4 1.15L2.2 3.5q.55-1.2 2.15-1.3m-20.7-6.85q3.55 1.4 4.5 3.45-2.2.2-3.7-1.25-3.1-3.1-.3-2.35l-.5.15" fill="#fff" fill-rule="evenodd" transform="translate(23.4 9.9)"/><path d="M-7.7 1.65q1.15 0 2.3 1Q-4 3.85-4 5.15-5.95 5.9-7.95 4q-1.05-1.05-1-1.75 0-.7 1.25-.6" fill="#ffd961" fill-rule="evenodd" transform="translate(23.4 9.9)"/><path d="M12.3 8.05q1.15.65 2.2 2.65.9.95 3.8 1.75-1.1.95-5.75.7-2.05-3.2-2.1-4.45l1.6-.75.25.1" fill="#ffca18" fill-rule="evenodd" transform="translate(23.4 9.9)"/><path d="M12.3 8.05q1.15.65 2.2 2.65.9.95 3.8 1.75-1.1.95-5.75.7-2.05-3.2-2.1-4.45l1.6-.75" fill="none" stroke="#2b2204" stroke-linecap="round" stroke-linejoin="round" transform="translate(23.4 9.9)"/><path d="m-13.7 5.8-1.25-.25q-2.5-.45-3.15-1.6-1.55-2.7-.6-3.4.75-.5 2 .35 1.1.75 1.35 1.55.7 2 1.65 3.35m14.3.85q-.95-2.3-.95-3.1v-.5l1.9 1.9q.55 1 .65 3.1 2.75.2 4.95-1.25-3.55 2.85-6.05 3 .35-1.15-.5-3.15m-11.3-2.1.1.25q.25 1.45 1.6 2.4 2 1.5.8 2.1-.4.2-2.75-.7l-3.25-.75q2.9-1.85 3.5-3.3" fill="#d4a200" fill-rule="evenodd" transform="translate(23.4 9.9)"/></g></defs></svg>