<svg xmlns="http://www.w3.org/2000/svg" xmlns:xlink="http://www.w3.org/1999/xlink" width="100.7" height="92.9"><use xlink:href="#a" width="34.3" height="24.9" transform="translate(22 39.05)"/><defs><g id="a"><path fill="#2c2833" fill-opacity=".251" fill-rule="evenodd" d="m19.55 17.6.85-.25q4.45 0 5.5 1.05l.85 1.4 1.05 2.85q.1 1.1-.75 1.1-5.75-3.45-7.8-4.4-2.45 4.3-3.35 4.3-1.4 0-2.45-3l-1.7 1q-.5 0-.9-.55-.35-.6-.75-.6l-4.6 1.95q-.8 0-.8-.75 1.65-3.95 2.25-3.95.75 0 .75.75l5.95-.25 3.8.45q1-1.1 2.1-1.1m4.55 1.6q.35.1.9.6l-.95-.65.05.05m-8.35 2.35.95-1.8H15l.75 1.8"/><path fill="#ab2000" fill-rule="evenodd" d="m17.65 18.85-3.1-.6q-1-5.95 1.95-10.3 3-4.3 6.95-7.45 2.35 9.95 1.5 12.65-1.1 3.5-2.7 4.5l-2.35.75-2.25.45m7.05-2.5 4.15-.6 1.3 2.75q.05.4 1.6 3.05.5 1.55.2 2.85l-2.55-2.15-4.7-5.9m-20 1.85 3.45.1-5 4.75L4.7 18.2"/><path fill="#c20" fill-rule="evenodd" d="M8.55 19.5 4.3 18.35q-2.05-.85-3.45-2.3l5.2-.25q2.35.65 3.6 1.25L8.4 19.1l.15.4"/><path fill="#c20" fill-rule="evenodd" d="m7.4 15.4-.65 3.25q-1.1.65-1.85.65H2.75q.4-1.4 1.9-2.4t2.75-1.5"/><path fill="#ab2000" fill-rule="evenodd" d="M26.85 12.15q3.3.65 2.15 4.65-.6.8-3.8.7l-4.1-.2-13.05.5q-4.1.2-3.7-.85l1.6-1.65q1.35-1.45 4.8-2.65 3.5-1.3 6.55-1.5 3.4-.3 9.55 1"/><path fill="#ab2000" fill-rule="evenodd" d="m25.75 13.4 3.95-.75h3.25Q31.7 15 30.8 15.75q-1.5 1.25-2.7 1.1-1.55-.35-1.75-.8l-.75-3.2.15.55"/><path fill="#c20" fill-rule="evenodd" d="m27.65 18.5-.9-1.2 2.45-1.15 4.6-.1L31.35 18q-.55.4-2.15.5h-1.55"/><path fill-rule="evenodd" d="M28.7 17.65Q6.25 20.25 5.6 19l-.2-2.8q-.1-.85 11.4-1.75 11.5-.95 11.6-.15l.45 2.15q.2.95-.15 1.2"/><path fill="#ab2000" fill-rule="evenodd" d="M30.35 7.4q-1.65 4.8-2.6 5.9-1.9 2.1-2.75 2.2-2.9.45-3.6-.45l.15-1.85 1.6-2Q25 9.05 26.2 8.55q1.95-.75 4.15-1.15M12.7 2.8q3.6 3.65 4.6 6.15.95 2.5-.2 4.7l-.95.8L12.7 2.8"/><path fill="#ab2000" fill-rule="evenodd" d="M5 3.95q4.2.85 6.5 2.75l5.8 5.1q-1.45 1.4-2.45 1.95l-3.35.15q-1.1-.1-1.65-.8l-1.4-2.2Q7.15 8.95 5 3.95"/><path fill="#ab2000" fill-rule="evenodd" d="m2.1 8.8 3.55.15q2 .2 6.85 4.05-2.4 1.7-3.7 2.05l-1.35-.1-1.2-1L2.1 8.8"/><path fill="#ab2000" fill-rule="evenodd" d="m9.65 14.25-1.6 2.05-2.95-.2q-1.15-.4-4.35-3.5l3.4-.1q1.35.3 5.5 1.75M20 9.8l2.55.95q2.65 1.15 3.25 2.2 1 1.7 3.3 9.85-7.1-3.5-9.4-6-1.45-1.55-2.1-4.35l-.4-2.5L20 9.8"/><path fill="#ab2000" fill-rule="evenodd" d="M11.65 12.5v-.65l3.1.35q-.4 2.3-1.35 3.65-.95 1.35-8.05 4.5 1.35-3 2.65-4.65 1.35-1.7 3.65-3.2m7.2.25q.3.75-.35 3.2l-1.95 6.3q-.55-2-1.15-3l-.35-6.15.15-.65 3.65.3"/><path fill="#cc2600" fill-rule="evenodd" d="M26.15 19.65q-2.5-4.6-3.75-5.85-.7-.7-2.35-1.25l-1.65-.65q-.4-.55-.25-1.2.25-.9 1.85-.9l4.5 1.6q1.25 1 2.5 5.15l1.25 4.5-2.1-1.4"/><path fill="#cc2600" fill-rule="evenodd" d="M17.15 8.4q.85-1.75 6-6.5l-2 5.4q2.5-1.75 2.1-.9-.35.9-2.85 4 .85 1.75.35 1.9l-3.85-.5q-.35-.05-.35-1.05 0-1.15.6-2.35"/><path fill="#cc2600" fill-rule="evenodd" d="m14.5 10.55-1-5.65 3.15 5.4-2.15.25m1.75 9-.5-1.75.15-7.4 2.1.5-.85 3.4q-.4 1.1-.9 5.25"/><path fill="#cc2600" fill-rule="evenodd" d="m17.95 11.85 1 2.85-2.5-1.9 1.5-.95M29.5 8.1l-3 3.1q-.4.3-1.1-.45l-.65-.8 2.7-1.5 2.05-.35m-1.75 5.2 1.35-.25 2-.2-1.65 1.45-1.7-1m-6.5-.65 2.15 5.4-4.25-6 2.1.6M16.6 11.3q-5.65 4.3-6.65 4.65l-3.2 2.7q2.2-4.55 3.35-5.55 3.6-3.15 5-3.15.65 0 1.5.85v.5"/><path fill="#cc2600" fill-rule="evenodd" d="m14.5 10.55-4.25-.95-3-4.5 3.15 1.55q1.65 1 4.1 3.9M5.25 9.3l2.5 1-.15 1.3-3.5-1.8 1.15-.5m-3.3 3.15 3.5.85-.7 1.3-2.8-2.15"/><path fill="none" stroke="#520000" stroke-linecap="round" stroke-linejoin="round" d="m3.25 22.65 1.25-3-2.25-.25 1.65-1.6-3.4-1.65 3.75-.6L1.4 12.9l4.1-.35L4 11.1 2.1 8.8l2.75-.1q2.1.4 3.05 1.2-.2-1.1-.95-2.55L5 3.95q2.25-.3 4.65 1.1Q12 6.4 14.2 9.55l-.95-3.45q-.9-3.4-.55-3.3.55.25 4.05 4.6l2.4-3.35Q20.9 1.8 23.45.5l1.3 8.55 1.9-.9q1-.6 3.7-.75l-2.2 5.4 2.25-.4 2.55.25-1.45 1.9-.6 1.6 2.9-.1-1.65 1.6-2 .85 1.6 3.05q.4 1.6.2 2.85l-1.45-.6"/></g></defs></svg>