<svg xmlns="http://www.w3.org/2000/svg" xmlns:xlink="http://www.w3.org/1999/xlink" width="100.7" height="92.9"><use xlink:href="#a" width="42.55" height="28" transform="translate(17.05 38.05)"/><defs><g id="a"><path fill="#302d39" fill-opacity=".251" fill-rule="evenodd" d="M35.25 22.4q.9.3 1.4.7.8.1.95 1.2 0 1.7-4.6 2.5l-12.75.9-7.15-.25-4.9-.3q-1.6-.15-2.05-.6l-.25-.75-.05-.25.05-.4q-.65-.45-.65-1.3 0-1.55 1.8-2.05l1.75-.3 1.25-1.35q2.15-1.8 5.6-1.8 20.1 0 20.1 2.95 0 .8-.5 1.1M15.9 20.9l-2 .25 4.9-.1h1.05l-3.95-.15"/><path fill="none" stroke="#302814" stroke-linecap="round" stroke-linejoin="round" stroke-width="2" d="m36.05 27 3.3-3.9q2.2-2.3 2.2-3.9.15-1.2-4.25-1.2l-3.4-.35-.4-1.35 7.3-11.9-9.75 7-1.45-1.45.05-.15q.55-2.85-.5-4.1l-1.75-.1-2.05.2Q21.95 1 20.8 1q-.65 0-2.4 2.4l-1.9 2.4-3.85-.1q-1.05 1.4-.45 4.1l.1.45-1.2 1.25-9.85-7.1 7.4 12.15-.45 1.8q-6.5-.3-6.95.15-.55.5.1 2.25l.35.25 1.5 2.1q.95 1 2.95 3.75"/><path fill="#ffce09" fill-rule="evenodd" d="M14.45 8.45q4.15-3.1 6.6-3.1 2.45 0 6.7 3.1 4.35 3.2 5.2 5.9 1.25 4 1.75 7 .5 3.6-.95 3.6-1.45-3.2-2.9-3.6L26.6 21l-5.2.2-5-.35q-2.75-.2-4.3.5-1.65.7-3.15 3.25-1.45.15-1.4-3.25.5-3 1.75-7 .85-2.7 5.15-5.9"/><path fill="#ffce09" fill-rule="evenodd" d="M8.95 19.1q6.95-1.35 12-1.35 5.1 0 13.3 1.6l-13.15 1.6Q17.75 21 8.95 19.1"/><path fill="#cca507" fill-rule="evenodd" d="M32.75 17.1q.85.65 4.55.9 4.4 0 4.25 1.2-1.5-.45-4.75.45l-4.5.7-5.5.15q-3.05-1.25-4.65-1.65l1.4-.25q1.1-1.4 4.5-3.45 1.15-1.1 2.5-.15l2.2 2.1"/><path fill="#9c7e06" fill-rule="evenodd" d="m25.8 10.9 4.5-.3q.95.75.25 2.8Q30 15 28.5 16.55q-2.55 2.7-7.55 2.7-4.4 0-7.15-2.5-2-2-2.5-3.35-.6-1.75.5-2.55.5-.4 4.25.05l2.1-1.5q1.9-1.45 2.65-1.45 1.25 0 5 2.95"/><path fill="#8c5d05" fill-rule="evenodd" d="m29.5 9.9 2.05 2.1-1.65 2.7-1.25-4.25.85-.55m-16.85 0 .85.55-1.2 4.25-1.7-2.7 2.05-2.1"/><path fill="#a68d3b" fill-rule="evenodd" d="M37.5 21.35q4-2.45 4.05-1.75.1.8-3.45 4.95l-2.75 3.25-1.85-3.85 4-2.6"/><path fill="#ffce09" fill-rule="evenodd" d="m9.3 18.45-.45 6.5q-1.85.15-7.5-4.2Q.7 19 1.25 18.5l4.25-.25 3.8.2"/><path fill="#a68d3b" fill-rule="evenodd" d="M1.05 19.6q.05-.7 4.05 1.75l4 2.6-1.85 3.85-2.75-3.25Q1 20.4 1.05 19.6"/><path fill="#8c5d05" fill-rule="evenodd" d="M7.25 27.8 3.2 23.1q-3.8-4.2-.3-3.75l9.05 1.4h1.7l-1.35.4q-1.6.65-2.6 2.1-1.55 2.35-2.45 4.55m28.05 0q-.85-2.2-2.45-4.55-.95-1.45-2.55-2.1l-1.35-.4h1.65l9.1-1.4q3.7-.5-.35 3.75l-4.05 4.7"/><path fill="none" stroke="#2b2610" stroke-linecap="round" stroke-linejoin="round" d="m9.65 21.5 11.8.35 11.6-.15"/><path fill="none" stroke="#fff0b5" stroke-linecap="round" stroke-linejoin="round" d="M20.85 20.95q10.45 0 15.55-1.2 3.45-.8 4.05-.5 1.05.45-1.7 3.75m-32.5-3.25-4.05-.5Q1.15 19.7 3.9 23"/><path fill="none" stroke="#fff" stroke-linecap="round" stroke-linejoin="round" d="M21.75 20.95q-10.4 0-15.5-1.2"/><path fill="#ffce09" fill-rule="evenodd" d="M29.15 5.7q1.05 1.25.5 4.1-.45 2.4-1.85 5.05-2.45 4.4-6.85 4.4-4 0-6.5-4.05-1.85-3.3-2.25-5.4-.6-2.7.45-4.1l3.85.1 1.9-2.4Q20.15 1 20.8 1q1.15 0 4.55 4.8l2.05-.2 1.75.1"/><path fill="#ffe563" fill-rule="evenodd" d="M21.1 1.45q.65.55.7 1.3.05.65-1.1 2.55-2.1 3.3-2.9 3.8-2.85 1.75-1.4 5.05l1.2 2.25q.85 1.7.2 1.95-1.1.45-3.4-4.15-1.35-2.8-1.7-5.35-.4-2.2.2-2.8l2.75-.2q1.15-.1 2.1-1.65 1-1.65 1.9-1.95l.5-.4q.25-1 .95-.4"/><path fill="#fff" fill-rule="evenodd" d="m22.7 6.35 1.3 1.4 2.15.6q1.35.4 1.5 1.6.25 2-1.5 4.85-2.1 3.3-5 3.3h-.2q-2.85 0-4.95-3.3-1.8-2.9-1.55-4.85.15-1.2 1.5-1.6l2.2-.6 1.35-1.4q.7-1 1.6-1 .9 0 1.6 1"/><path fill="#d9ad00" fill-rule="evenodd" d="M30.1 12.05 40.8 4.4l-7.9 12.9q-.9 1.45-2.5-1.4-1.6-2.9-.3-3.85m-18 .15q1.35.95-.3 3.85Q10.15 19 9.25 17.5l-8-13.1 10.85 7.8"/><path fill="#fffdf7" fill-rule="evenodd" d="m30.9 16.65-.65-1.4L40.6 4.65l-9.7 12m-18.85-1-.4.6L1.5 4.65l11.15 9.2-.6 1.8"/><path fill="none" stroke="#fffdf7" stroke-linecap="round" stroke-linejoin="round" d="m28.05 20.45 4.6-.35 1.9-.35"/><path fill="#fffdf7" fill-rule="evenodd" d="M20.6 1.35q.75.5-.8 2.65-1.6 2.1-2.5 1.6-.85-.5.9-2.55Q20 1 20.6 1.35m-6.75 4q1.2.4.15 1.9-1.05 1.55-1.75 1.25-.65-.3.05-1.85.75-1.55 1.55-1.3"/><path fill="#403818" fill-rule="evenodd" d="m2.95 19.75 5.6 1.7 2.4.5-1.55 1.8-6.45-4m36.95 0-6.45 4-1.55-1.8 2.4-.5 5.6-1.7"/><path fill-rule="evenodd" d="m17.75 18.45-.8.15q-.65-4.55 2.95-7.2-3.05 2.75-2.15 7.05"/><path fill="#cca507" fill-rule="evenodd" d="M21.2 11.45q3.2-4.95 4.7-1.55 1.45 3.45-4.7 1.55m-1.5-4.7q4.7-1.95 1.5 4.7-6.2-2.75-1.5-4.7"/><path fill="#cca507" fill-rule="evenodd" d="M21.25 11.4q5.9 2.85 1.5 4.65-4.45 1.8-1.5-4.65m-3.05-.65 3.05.65q-2.8 5.3-4.7 1.5-1.15-2.35 1.65-2.15"/><path fill="#8c5d05" fill-rule="evenodd" d="M21.2 11.45q3.2-4.95 4.7-1.55 1.45 3.45-4.7 1.55m-1.5-4.7q4.7-1.95 1.5 4.7-6.2-2.75-1.5-4.7"/><path fill="#8c5d05" fill-rule="evenodd" d="M21.25 11.4q5.9 2.85 1.5 4.65-4.45 1.8-1.5-4.65m-3.05-.65 3.05.65q-2.8 5.3-4.7 1.5-1.15-2.35 1.65-2.15"/></g></defs></svg>