<svg xmlns="http://www.w3.org/2000/svg" xmlns:xlink="http://www.w3.org/1999/xlink" width="100.7" height="92.9"><use xlink:href="#a" width="42.75" height="29.3" transform="translate(17.25 36.55)"/><defs><g id="a"><path fill="#f93" fill-rule="evenodd" d="M6.6 28.45q-2.7-.1-3.3-2.15-.25-.95.2-1.7l-1.4-.85-1.15-1.3q-1.05-1.85.4-3.25l-.45-.95q-.3-.8-.2-1.6.3-1.8 1.9-2.05l-.85-1.5q-.45-.75-.1-1.8.45-1.25 1.75-1.55V9.6q-.4-1.35.45-2.35l2.6-.35v-.8q.2-2.8 2.9-2.25 1.5-2.45 4.1-1.55.7-1.5 2.25-1.7 1.25-.15 2.15.85l.8-.45q2.3-1.35 3.7.85 2.2-1.9 4.45-.45l.45.95 1.5-.6 1.15-.1q1.5.45 2.2 1.7l1.6-.45q.9-.15 1.55.7 1 1.35.75 3l1.4-.15q.9.1 1.2.95.45 1.15.1 2.45l-.35.35q1.15-.2 2.2.4.8.5.9 1.4.15 1.45-.75 2.7l-.15.05.05.05 1.05 1q.75.65.55 1.5-.45 1.9-2.1 3.05l.6.55.55.9q.15.35-.05.7-.6 1.2-1.85 1.65 1.15 2.4-1.85 2.75-.05 1.5-1.5 1.75l-.25.65q-.55-3.15-1.9-5.8-2.05-3.95-5.35-6.6-2.75-2.25-6.1-2.6l-3.6.4q-1.65.35-3.1 1.15-1.6.85-2.85 2.1Q8.4 22.4 6.6 28.45"/><path fill="none" stroke="#600" stroke-linecap="round" stroke-linejoin="round" d="M36 28.65q1.45-.25 1.5-1.75 3-.35 1.85-2.75 1.25-.45 1.85-1.65.2-.35.05-.7l-.55-.9-.6-.55q1.65-1.15 2.1-3.05.2-.85-.55-1.5l-1.05-1-.05-.05.15-.05q.9-1.25.75-2.7-.1-.9-.9-1.4-1.05-.6-2.2-.4l.35-.35q.35-1.3-.1-2.45-.3-.85-1.2-.95L36 6.6q.25-1.65-.75-3-.65-.85-1.55-.7l-1.6.45q-.7-1.25-2.2-1.7l-1.15.1-1.5.6-.45-.95q-2.25-1.45-4.45.45-1.4-2.2-3.7-.85l-.8.45q-.9-1-2.15-.85-1.55.2-2.25 1.7-2.6-.9-4.1 1.55-2.7-.55-2.9 2.25v.8l-2.6.35Q3 8.25 3.4 9.6v.15q-1.3.3-1.75 1.55-.35 1.05.1 1.8l.85 1.5Q1 14.85.7 16.65q-.1.8.2 1.6l.45.95q-1.45 1.4-.4 3.25l1.15 1.3 1.4.85q-.45.75-.2 1.7.6 2.05 3.3 2.15"/></g></defs></svg>