<svg xmlns:xlink="http://www.w3.org/1999/xlink" height="92.9" width="100.7" xmlns="http://www.w3.org/2000/svg"><use height="28.2" transform="translate(17.05 38.05)" width="42.6" xlink:href="#a"/><defs><g id="a"><path d="M16 12.6q0 1.7-4.6 2.5l-12.75.9-7.15-.25-4.9-.3q-1.6-.15-2.05-.6l-.25-.75-.05-.25.05-.4q-.65-.45-.65-1.3 0-1.55 1.8-2.05l1.75-.3 1.25-1.35q2.15-1.8 5.6-1.8 20.1 0 20.1 2.95 0 .8-.5 1.1.9.3 1.4.7.8.1.95 1.2M-2.8 9.35h1.05L-5.7 9.2l-2 .25 4.9-.1" fill="#302d39" fill-opacity=".251" fill-rule="evenodd" transform="translate(21.6 11.7)"/><path d="m35.95 27.2 3.45-4.1 1.45-2.1.4-.3q.65-1.7.1-2.25-.65-.55-7.3-.05l-.9-3.5 4.85-8-6.65 4.8-1.75-1.75.05-.15q.5-2.8-.45-4.1l-1.75-.15-2.1.25Q21.95 1 20.85 1q-.65 0-2.45 2.35L16.5 5.8l-3.85-.1Q11.7 7 12.2 9.8l.1.45-1.55 1.6-6.9-4.95L9 15.3l-.8 3.05q-6.5-.3-6.9.1-.6.55.05 2.25l.4.3 1.45 2.1L6.4 27" fill="none" stroke="#544822" stroke-linecap="round" stroke-linejoin="round" stroke-width="2"/><path d="m9.25 9.65-4.2-.35-5.25.2-5-.35q-2.75-.2-4.3.5-1.65.7-3.15 3.25-1.45.1-1.4-3.25.5-3 1.75-7 .85-2.7 5.15-5.9 4.15-3.1 6.6-3.1 2.45 0 6.7 3.1 4.4 3.2 5.2 5.9 1.25 4 1.75 7 .5 3.6-.95 3.6-1.4-3.2-2.9-3.6" fill="#aed3e8" fill-rule="evenodd" transform="translate(21.6 11.7)"/><path d="M-12.65 7.4Q-5.7 6.05-.6 6.05q5.05 0 13.25 1.6L-.5 9.25q-3.35.05-12.15-1.85" fill="#aed3e8" fill-rule="evenodd" transform="translate(21.6 11.7)"/><path d="m4.2-.8 4.5-.3q1 .7.25 2.8Q8.4 3.25 6.9 4.8 4.4 7.55-.65 7.55q-4.5 0-7.15-2.55-1.95-1.85-2.5-3.3-.65-1.8.55-2.55.5-.4 4.2.05l2.1-1.5q1.9-1.45 2.65-1.45 1.3 0 5 2.95" fill="#687d8a" fill-rule="evenodd" transform="translate(21.6 11.7)"/><path d="M7.9-1.8 9-.75 9.95.3 8.3 3 7.1-1.25l.8-.55m-16.85 0 .85.55L-9.3 3-11 .3l1-1.05 1.05-1.05" fill="#687d8a" fill-rule="evenodd" transform="translate(21.6 11.7)"/><path d="M19.65 9q-5.65 4.4-7.5 4.25l-.45-6.5h8.05q.55.55-.1 2.25" fill="#aed3e8" fill-rule="evenodd" transform="translate(21.6 11.7)"/><path d="M15.9 9.65q4-2.45 4.05-1.75.1.8-3.45 4.95l-2.75 3.25-1.85-3.85 4-2.6" fill="#a68d3b" fill-rule="evenodd" transform="translate(21.6 11.7)"/><path d="m-12.3 6.75-.45 6.5q-1.85.15-7.5-4.25-.65-1.7-.05-2.25h8" fill="#aed3e8" fill-rule="evenodd" transform="translate(21.6 11.7)"/><path d="M-20.55 7.9q.05-.7 4.05 1.75l4 2.6-1.8 3.85-2.8-3.25q-3.55-4.15-3.45-4.95" fill="#a68d3b" fill-rule="evenodd" transform="translate(21.6 11.7)"/><path d="m-14.3 16.1-4.1-4.7q-3.8-4.2-.3-3.75l9.05 1.4h1.7l-1.35.35q-1.6.7-2.6 2.15-1.55 2.35-2.4 4.55m28 0q-.85-2.2-2.4-4.55-1-1.45-2.55-2.15l-1.4-.35h1.7l9.05-1.4q3.5-.45-.3 3.75l-4.1 4.7" fill="#4c5d66" fill-rule="evenodd" transform="translate(21.6 11.7)"/><path d="m-11.95 9.8 11.8.35 11.6-.15" fill="none" stroke="#2b2610" stroke-linecap="round" stroke-linejoin="round" transform="translate(21.6 11.7)"/><path d="M-.75 9.25q10.45 0 15.55-1.2l4.05-.5q1.05.45-1.7 3.75" fill="none" stroke="#d9fbff" stroke-linecap="round" stroke-linejoin="round" transform="translate(21.6 11.7)"/><path d="M.2 9.25q-10.45 0-15.55-1.2l-4.05-.5q-1.05.45 1.7 3.75" fill="none" stroke="#d9fbff" stroke-linecap="round" stroke-linejoin="round" transform="translate(21.6 11.7)"/><path d="M7.6-6q.95 1.3.45 4.1Q7.6.55 6.2 3.15q-2.35 4.4-6.85 4.4-4 0-6.5-4.05Q-9 .2-9.4-1.9q-.5-2.8.45-4.1l3.85.1 1.9-2.45q1.8-2.35 2.45-2.35 1.1 0 4.5 4.8l2.1-.25L7.6-6" fill="#97b5bd" fill-rule="evenodd" transform="translate(21.6 11.7)"/><path d="m1.1-5.35 1.3 1.4 2.15.6q1.35.4 1.5 1.6.25 2-1.5 4.85-2.1 3.3-5 3.3h-.2q-2.85 0-4.95-3.3Q-7.4.2-7.15-1.75q.15-1.2 1.5-1.6l2.2-.6 1.35-1.4q.7-1 1.6-1 .9 0 1.6 1" fill="#fff" fill-rule="evenodd" transform="translate(21.6 11.7)"/><path d="M8.45.95 16.4-4.8l-5.9 9.65Q9.8 5.9 8.65 3.8q-1.2-2.15-.2-2.85m-18.2 0q.95.7-.2 2.85-1.2 2.1-1.9 1.05l-5.9-9.65 8 5.75" fill="#caeafc" fill-rule="evenodd" transform="translate(21.6 11.7)"/><path d="m9 4.4-.5-1.05 7.75-7.95L9 4.4m-18.8-.9-.35.75-7.4-8.85 7.75 8.1" fill="#fffdf7" fill-rule="evenodd" transform="translate(21.6 11.7)"/><path d="m6.45 8.75 4.65-.35 1.85-.35" fill="none" stroke="#fffdf7" stroke-linecap="round" stroke-linejoin="round" transform="translate(21.6 11.7)"/><path d="M-1-10.35q.8.45-.8 2.6T-4.3-6.1q-.85-.5.95-2.55Q-1.6-10.7-1-10.35m-6.75 4q1.2.4.15 1.9-1.05 1.55-1.75 1.2-.65-.25.1-1.8.7-1.55 1.5-1.3" fill="#fffdf7" fill-rule="evenodd" transform="translate(21.6 11.7)"/><path d="m-18.65 8.05 5.6 1.7 2.4.5-1.55 1.8-6.45-4m36.95 0-6.45 4-1.55-1.8 2.4-.5 5.6-1.7" fill="#2b2610" fill-rule="evenodd" transform="translate(21.6 11.7)"/><path d="m-3.85 6.75-.8.15Q-5.3 2.35-1.7-.3q-3.05 2.75-2.15 7.05" fill-rule="evenodd" transform="translate(21.6 11.7)"/><path d="M-.4-.3q3.2-4.9 4.7-1.5Q5.8 1.65-.4-.3m-1.5-4.65Q2.85-6.9-.4-.3-6.6-3-1.9-4.95" fill="#3c707d" fill-rule="evenodd" transform="translate(21.6 11.7)"/><path d="M-.35-.3q5.9 2.85 1.5 4.65Q-3.3 6.15-.35-.3M-3.4-.95l3.05.65q-2.8 5.3-4.7 1.5Q-6.2-1.15-3.4-.95" fill="#3c707d" fill-rule="evenodd" transform="translate(21.6 11.7)"/></g></defs></svg>