<svg xmlns:xlink="http://www.w3.org/1999/xlink" height="92.9" width="100.7" xmlns="http://www.w3.org/2000/svg"><use height="33.55" transform="translate(17 38.85)" width="38.55" xlink:href="#a"/><defs><g id="a"><path d="M-5.7-.3q3-1.45 6.4-.95 5.05.8 9.55 6.55Q15 11.45 12.55 16q.15-1.3-.6-2.15l-1.6-1.5q-1.05-3.2-2.3-4.4L5.2 6.6Q2.65 5.35 3 5.05q-.85.7-1.55 1.75l-.7-1.9Q.3 3.9-.7 4.35q-.45.15-.95 1.15-.5.95-1.1 1.1l-2.15-.9q-1-.15-2.35.45-2.4 1.2-3.45 4.05l-1.6 5.1q-1.45-1.45-1.2-2.8l-2.75.5q.1-1.95 2.45-4.65L-10.35 4Q-8.7 1.15-5.7-.3" fill="#43434e" fill-opacity=".353" fill-rule="evenodd" transform="translate(21.65 10.9)"/><path d="M4.35 2.65q-3-2-4.75-2-4.5 0-10.35 7.85L-12 10.75q-1.3 2.6-1.4 4.25-.15 2.65.5 7.65-1.35-1.2-2.1-2.4-.7-1.1-.8-2.05l.2-1.85q.8-4.2 3.1-8.4Q-7.85-.5-.15-.5q7.7 0 11.85 8.2 2.1 4.1 2.6 8.2l-1.7-1.15q.25-1.6-3.05-6.9-1.8-2.95-5.2-5.2" fill-rule="evenodd" transform="translate(21.65 10.9)"/><path d="m-7.5 2.75 3.25-1.35q1.1 1.25-3.4 4-2.6 1.55-2.6 8.25-3.15-2.4-2.25-6.4.3-1.45 2.7-3.1 1.2-.85 2.3-1.4" fill-rule="evenodd" transform="translate(21.65 10.9)"/><path d="m12.9 10.35.4 1.4q.35 1.65-.05 2.9-.45 1.35-.95.1L11 9.9 8.85 6l-2.1.75-1.6-2.2-.5 1.85q-.35.8-2 2 0-2.85-.5-4.35L.6 1.9q0 1.6-.5 2.75-.5 1.1-1.45 2.2Q-1 4.4-2.4 3.15l-2.1-1-2.5.45Q-5.15 1-4.1.55q2.05-.9 5.9-.65 5.85.3 11.1 10.45m-27.2 6.55.05-.1.25.1h-.3m.9-20.75q1.6-.1 3.8 1.6 2.35 1.8 2.2 3.7-.2 2.2-3.65 6.8-1.3 2.7-3.2 8.55-3.85-2-4.75-4.25l2.35.4q-2.8-1.55-5-8.55l5.35.3q-2.05-2.2-2.9-5.25 3.55-.7 6.65.8.3-1.8-.85-4.1" fill-rule="evenodd" transform="translate(21.65 10.9)"/><path d="M-2.7-6.75Q.85-4.95 2.95-.8q.95.3.8 1.05 0 1.15-2.3 1.3-3.5.3-5.6 1.3l-4.8 3q-1.45 0-1.3-1.5l1.05-2.4.15-.2-.5.7Q-9.4.9-9.5-.95q-.35-5.55-2.7-7.45.9-.45 3.95 0Q-5-7.9-2.7-6.75m-8.5 19.3.15-.05-.15.2v-.15" fill-rule="evenodd" transform="translate(21.65 10.9)"/><path d="M-2.1-9.9Q.75-9 2.45-4.45L-1.6-5.2q-.8-1.85-.5-4.7" fill-rule="evenodd" transform="translate(21.65 10.9)"/><path d="M7.3-2.8Q8-.95 7.9.65 7.75 2.9 5.7 2.7L1.9 1.5l-4-1.65Q-4.45-1.65-2.2-3q2.35-1.4 6.45.5l.5.85q.6-2.55.5-3.85 1.25.55 2.05 2.7" fill-rule="evenodd" transform="translate(21.65 10.9)"/><path d="M9.35-2.55Q9.55.6 7.75 5L4.45-.55q.95-7.6.95-10.35 3.65 4.15 3.95 8.35" fill-rule="evenodd" transform="translate(21.65 10.9)"/><path d="M1.7-3q-.25-3.75-.15-5.65 1.05.2 2.3 1.3 1.2 1.1 1.55 2.2Q6-3.3 4-2.65l-3.3-.2 1-.15m7.5 8.8Q6.2.7 11-4.65q.5 7.3-1.8 10.45l.1.2H9l.2-.2" fill-rule="evenodd" transform="translate(21.65 10.9)"/><path d="M14-2.25q-.3 2.65-2.75 4.1-2.35 1.45-4.9.95l1.05-.2 2.9-2.85q1.75-1.9 3.7-2m1 12 .5 1.95q.4 2.35.1 4.55-.5 3.5-4.45 5.1 1.2-1.85 1.6-4.35-.45-1.7-.4-3.25.05-1.35.75-3.15l.65-1.5 1.25.65" fill-rule="evenodd" transform="translate(21.65 10.9)"/><path d="M16.6 9.65q-.8 2.75-2.45 4.15-1.15.95-2.3 1.1l-2.7-.15q2.55-3.55 1.15-5.9-2.2-2.2-3.05-3.55-1.05-1.8.9-4.2Q9.4-.4 11.35.7l2.8 2.25q3.6 3 2.45 6.7M3.75-5.15l3 1V-.5q0 .6-1.15.95L3.4.5Q-.55-.55-2.45-.65-3.9-.75-3.4-3.3l.8-2.55 6.35.7" fill-rule="evenodd" transform="translate(21.65 10.9)"/><path d="M-2.4-3.65q-1.2-1.5-3.25-2.5l-3.4-1.05" fill="none" stroke="#a3a3a3" stroke-linecap="round" stroke-linejoin="round" transform="translate(21.65 10.9)"/><path d="M-1.25-7.95.8-5.05M-10.85-2-8.5-.35l.25.65m-8.45.25 2.8.45q1.8.4 2.7 1.3" fill="none" stroke="#757575" stroke-linecap="round" stroke-linejoin="round" transform="translate(21.65 10.9)"/><path d="M13.4 4.85q2.65 3.15 1.3 5.4" fill="none" stroke="#8a8a8a" stroke-linecap="round" stroke-linejoin="round" transform="translate(21.65 10.9)"/><path d="m-15.5 6.55-2-.65M4.05 4.15q.35-1 0-1.8L3.55 1m-.5-7.65 1.7 2m7.3 11.3.7 1.5v1m-24.1-.1q-.65-1.8 0-3.5l1-2.3m-4.15 12.5.35-3.5.5-1.85m10.2-11.55 2.2 1.3q1 .95 1.2 1.9m15.3 10.45-2.85 1.85" fill="none" stroke="#757575" stroke-linecap="round" stroke-linejoin="round" transform="translate(21.65 10.9)"/></g></defs></svg>