<svg xmlns:xlink="http://www.w3.org/1999/xlink" height="92.9" width="100.7" xmlns="http://www.w3.org/2000/svg"><use height="29.5" transform="translate(19.05 41.6)" width="38.75" xlink:href="#a"/><defs><g id="a" fill-rule="evenodd"><path d="m2.45-.65 3.8-.15q2.15-.25 3.9 2.3 2.9 4.4.8 12.15-1.95-6-3.55-8.6-1.85-2.9-5.25-4.9l.3-.8m-6 3.8q-7.3 4-10.7 10.25l.2-1.25.35-3.05q.55-2 2-3.75 3.05-3.7 8.85-4.5l-.7 2.3" transform="translate(19.6 8.15)"/><path d="M.65-2.2q.7-1.85 2.25-1.6 1.5.3 2.85 2.4Q6.85.25 7.3 4q.4 2.65-.5 7.45l-4-7.75Q1.55-.5-.15-1.7l.8-.5" transform="translate(19.6 8.15)"/><path d="m-3.65-3.95 3.9.4 1.9-.5 2-.15q1.1.2 3.45 1.75Q12.45.65 14.65 9q.4 1.65.1 7.15-.95-.7-1.85-3.55l-1.25-4.1q-2.2-5.55-4.2-6.8-1.75-1.15-5.2.55-2.55 1.2-4.45.35Q-6.8.55-14.85 3.65q3.55-5.1 6.85-6.9 1.1-.6 4.35-.7" transform="translate(19.6 8.15)"/><path d="M-7.75-1.05q1.9-.85 2.55-1.45l1 .85q0 2.95-2.1 5.35l-4.25 4.1q-2.2 2.4-5.8 13.55-.15-7.05.55-10.25.4-1.85 2.2-5.65 1.75-3.7 3.2-5l2.65-1.5M8.65 1.5l-.35-2q4.15.95 7.45 6.6-1.95-.15-4.1-1.5-2.3-1.45-3-3.1" transform="translate(19.6 8.15)"/><path d="M-6.7 2q-1.65 2.75-11 5.85 1.4-2.9 4.35-5.75 3.2-3.05 6.15-3.95L-6.7 2m20.65 6q.95.95 1.7 4.65.85 4.15.15 7-.25 1.4-.65-1.35-1.2-4.3-1.7-5.15l.5-5.15" transform="translate(19.6 8.15)"/><path d="M11.65 2.4q.55 1.05 3.35 4 2.8 3.65 4.15 8.95-1.55-.8-3.75-3-2.3-2.3-2.75-3.75l-1-6.2m-24.2 1.95 1.5.65q.05 2.95-2.9 6.2-2.4 2.65-5.6 4.3 2.65-6.4 7-11.15" transform="translate(19.6 8.15)"/><path d="m-11.05 1.8.85-.8q.8 1.45-.8 4l-1.55 1.85-1.45.8q1.55-2.7 2.3-3.3-1.75 1.25-4.05 2 .15-.75 2.1-2.85.95-1 3.05-2.15l-.45.45" fill="#fff" transform="translate(19.6 8.15)"/><path d="m14.25 10.05 1.15 2.15.45.15q.55.4.9 1.6l2.15 6.15-3.65-1.15-1-8.9m-28.45.6-1.3 8.05-4.1 1.65 2.25-5.35 3.15-4.35" transform="translate(19.6 8.15)"/><path d="m9.05.5 2.75 2.15 2.75 2.7q-2.4-.65-3.5-1.25l2.35 3.3-3.35-3q-.6-1.05-.9-3.55L9.05.5M-14.2 9.15v1.5l-3 2.35 3-3.85m28 .7.65-1.5 3.2 4.65-3.85-3.15" fill="#fff" transform="translate(19.6 8.15)"/><path d="M-1.8 1.2q.15.85-1.2 2.8l-1.9 2.5-3.95 5.95-1.2 2.4q-.8 1.55-1.55 2 .1-7.6 1.8-11.5 7.3-8.1 8-4.15" transform="translate(19.6 8.15)"/><path d="m-3.7-.6-1.35-1.5 3.75.75Q.9-.8.65.75l-1.35 3-1.65 3.35L-2.8 9q-.25 1.25-.75 1.55Q-4.9 7.8-5.15 4.9-5.5 1.25-3.7-.6" transform="translate(19.6 8.15)"/><path d="M-1.45-1.25Q-2.6 5.3-3.8 10.05q-.7-.35-1.9-4.3L-6.95.85q-.2-1.95.85-3.1 1.25-1.35 3.35.5l1.3.5m5.75 2.7q1 1.55.85 6.5 0 4.05-1.3 6-.35-2.95-1.3-5.6l-1-2.7Q-.1 3.9-.55 2.9L2.1 1.7l2.2-.25" transform="translate(19.6 8.15)"/><path d="M7.8 2.5q-.15 1.9.65 6.15.25 3.55-.5 6.65l-2.3-5.45q-1.95-5.05-1.7-7L7.8 2.5" transform="translate(19.6 8.15)"/><path d="m-11.45 16.45 2.5-5.7 2.2-5.05.35 1.25-5.05 9.5" fill="#8c8c8c" transform="translate(19.6 8.15)"/><path d="M6.7 3.95q1.1 3.75.65 4.9-2.65-4.75-2.2-6 .2-.55.75-.1l.8 1.2m-3.7 1Q2.9 4 3.3 3.7l.45-.1q.75 1.05.75 5.3Q3.15 6.4 3 4.95m-10.7-2.8q.5 1.25-2.25 7.35l.55-4.9q1-4.25 1.7-2.45m3.65.7q1.55 1.3.3 6.45-.9-1.35-1.1-4.35-.25-3.05.8-2.1" fill="#fff" transform="translate(19.6 8.15)"/><path d="m2.5-.15-4-3.5q1.2-3.8 7.4-4.5-1.05 2.6-2.25 3.6l5.5-.25Q3.7-.35 2.5-.15" transform="translate(19.6 8.15)"/><path d="M-14.2-.55q1.2-1.3 3.75-2.35 3.65-1.55 4.6-1.15-1.5-.7-3.4-1Q-3.1-7.5.4-2.9L-3.5-.65Q-3.95.7-8.1.15l-6.1-.7" transform="translate(19.6 8.15)"/></g></defs></svg>