<svg xmlns="http://www.w3.org/2000/svg" xmlns:xlink="http://www.w3.org/1999/xlink" width="56.6" height="54.95"><g transform="translate(3.5 3.5)"><use xlink:href="#a" width="56.6" height="54.95" transform="translate(-3.5 -3.5)"/><use xlink:href="#b" width="26.2" height="26.85" transform="translate(12.7 8.4)"/></g><defs><linearGradient id="e" x1="-819.2" x2="819.2" gradientTransform="matrix(.0139 0 0 .0268 13.4 23.95)" gradientUnits="userSpaceOnUse" spreadMethod="pad"><stop offset="0" stop-color="#ffb300"/><stop offset="1" stop-color="#fff"/></linearGradient><linearGradient id="f" x1="-819.2" x2="819.2" gradientTransform="matrix(.0165 0 0 1 33.35 -113.15)" gradientUnits="userSpaceOnUse" spreadMethod="pad"><stop offset="0" stop-color="#e6b700"/><stop offset="1" stop-color="#ffefcc"/></linearGradient><linearGradient id="c" x1="-819.2" x2="819.2" gradientTransform="matrix(.0062 -.0062 .0045 .0045 11.45 14.85)" gradientUnits="userSpaceOnUse" spreadMethod="pad"><stop offset=".008" stop-color="#774700"/><stop offset="1" stop-color="#c48800"/></linearGradient><path id="d" fill="url(#c)" fill-rule="evenodd" d="m10 16.95-.5-.5 1.15 1.15-.65-.65M22.3 4.6q-1.9-1.9-4.65-1.9-2.75 0-4.65 1.9-1.95 1.95-1.95 4.7T13 13.95q1.9 1.95 4.65 1.95 2.75 0 4.65-1.95 1.95-1.9 1.95-4.65 0-2.75-1.95-4.7m3-2.95q3.2 3.15 3.2 7.65t-3.2 7.65q-3.15 3.2-7.65 3.2-2.4 0-4.4-.9l-4.15 4.1-.65.9Q7.4 25.3 5.95 25.3q-1.5 0-2.55-1.05-1.1-1.05-1.1-2.55 0-1.5 1.1-2.55h.05l-.05-.05 4.7-4.7q-1.3-2.3-1.3-5.1 0-4.5 3.2-7.65 3.15-3.2 7.65-3.2 4.45 0 7.65 3.2" transform="translate(-2.3 1.55)"/><use xlink:href="#d" id="b" width="26.2" height="26.85"/><g id="a"><path fill-rule="evenodd" d="M52.9 12.4q.35.7.15 1.5-4.65 15.25-10.3 23.2Q37.85 44 29.6 51q-.55.45-1.3.45T27 51q-8.25-7-13.1-13.9-5.7-7.95-10.3-23.2-.25-.8.15-1.5.35-.75 1.1-1l22.8-7.8q.65-.2 1.3 0l22.8 7.8q.75.25 1.15 1"/><path fill="none" stroke="#5e4100" stroke-linecap="round" stroke-linejoin="round" stroke-width="7" d="M52.9 12.4q-.4-.75-1.15-1l-22.8-7.8q-.65-.2-1.3 0l-22.8 7.8q-.75.25-1.1 1-.4.7-.15 1.5 4.6 15.25 10.3 23.2Q18.75 44 27 51q.55.45 1.3.45t1.3-.45q8.25-7 13.15-13.9 5.65-7.95 10.3-23.2.2-.8-.15-1.5Z"/><path fill-rule="evenodd" d="m5.5 13.3 22.8-7.8 22.8 7.8q-4.5 14.9-10 22.65-4.75 6.7-12.8 13.5-8.05-6.8-12.8-13.5Q10 28.2 5.5 13.3"/><path fill="none" stroke="#fff" stroke-linecap="round" stroke-linejoin="round" stroke-width="4" d="m5.5 13.3 22.8-7.8"/><path fill="none" stroke="#cca300" stroke-linecap="round" stroke-linejoin="round" stroke-width="4" d="M51.1 13.3q-4.5 14.9-10 22.65-4.75 6.7-12.8 13.5"/><path fill="none" stroke="#e6b700" stroke-linecap="round" stroke-linejoin="round" stroke-width="4" d="m28.3 5.5 22.8 7.8M28.3 49.45q-8.05-6.8-12.8-13.5Q10 28.2 5.5 13.3Z"/><path fill="url(#e)" fill-rule="evenodd" d="M24.8 2v43.95q-8.05-6.8-12.8-13.5Q6.5 24.7 2 9.8L24.8 2" transform="translate(3.5 3.5)"/><path fill="url(#f)" fill-rule="evenodd" d="m24.8 2 22.8 7.8q-4.5 14.9-10 22.65-4.75 6.7-12.8 13.5V2" transform="translate(3.5 3.5)"/></g></defs></svg>