<?xml version="1.0" encoding="UTF-8" standalone="no"?>
<svg xmlns:xlink="http://www.w3.org/1999/xlink" height="38.3px" width="36.05px" xmlns="http://www.w3.org/2000/svg">
  <g transform="matrix(1.0, 0.0, 0.0, 1.0, 23.8, 14.85)">
    <use height="17.8" transform="matrix(1.0, 0.0, 0.0, 1.0, -16.7, -4.1)" width="24.15" xlink:href="#shape0"/>
  </g>
  <defs>
    <g id="shape0" transform="matrix(1.0, 0.0, 0.0, 1.0, 16.7, 4.1)">
      <path d="M2.3 -2.3 L-0.45 -3.0 Q-2.95 -3.3 -4.65 -2.3 L-4.75 -2.25 -5.0 -2.1 -7.05 -0.7 -12.25 2.45 -12.5 2.6 -13.55 3.9 -13.8 4.35 -14.45 5.95 Q-15.4 8.75 -14.45 10.45 L-13.7 11.3 Q-14.05 6.6 -12.55 4.85 -11.65 3.75 -11.4 4.25 -11.2 4.8 -11.75 5.7 -12.65 7.0 -12.5 11.45 L-12.15 11.95 Q-11.6 12.45 -10.4 12.45 L-8.3 12.2 Q-8.7 7.4 -7.15 5.65 -6.2 4.5 -6.0 5.1 -5.75 5.55 -6.4 6.5 -7.25 7.8 -7.05 12.05 L-4.8 12.5 Q-3.5 12.3 -2.05 11.4 4.8 9.75 6.0 7.85 6.85 6.5 5.8 3.25 4.85 0.45 3.55 -1.3 L2.55 -2.15 Q1.8 -3.3 2.3 -2.3 M6.8 3.1 Q8.0 6.7 7.0 8.2 5.6 10.4 -2.15 12.25 -3.85 13.3 -5.25 13.5 L-8.0 13.1 Q-8.85 13.7 -11.0 13.7 -12.4 13.7 -13.3 13.0 L-13.95 12.35 Q-15.25 12.65 -16.15 11.2 -17.25 9.3 -16.2 6.15 -15.3 3.45 -13.95 2.25 L-9.45 -0.05 -5.5 -3.05 Q-3.45 -4.3 -0.25 -4.05 2.9 -3.75 4.2 -2.1 5.75 -0.2 6.8 3.1 M-4.65 -2.3 L-4.65 -2.35 -4.65 -2.3 -4.7 -2.3 -4.65 -2.3 M-4.7 -2.3 L-4.75 -2.25 -4.7 -2.3" fill="#4b271a" fill-rule="evenodd" stroke="none"/>
      <path d="M2.3 -2.3 L3.25 -0.55 Q5.5 3.7 5.55 6.6 5.6 7.2 5.0 7.75 4.55 8.15 4.8 8.25 6.5 8.2 6.05 5.9 5.65 3.7 4.5 1.25 L3.45 -0.8 2.55 -2.15 3.55 -1.3 Q4.85 0.45 5.8 3.25 6.85 6.5 6.0 7.85 4.8 9.75 -2.05 11.4 -3.5 12.3 -4.8 12.5 L-7.05 12.05 Q-7.25 7.8 -6.4 6.5 -5.75 5.55 -6.0 5.1 -6.2 4.5 -7.15 5.65 -8.7 7.4 -8.3 12.2 L-10.4 12.45 Q-11.6 12.45 -12.15 11.95 L-12.5 11.45 Q-12.65 7.0 -11.75 5.7 -11.2 4.8 -11.4 4.25 -11.65 3.75 -12.55 4.85 -14.05 6.6 -13.7 11.3 L-14.45 10.45 Q-15.4 8.75 -14.45 5.95 L-13.8 4.35 -13.8 4.7 -14.15 5.6 -14.65 7.75 Q-14.45 8.0 -13.8 6.25 -13.1 4.0 -12.25 3.45 -11.5 2.95 -9.65 2.65 -7.65 2.3 -7.8 2.85 -8.0 3.5 -10.15 4.65 L-10.25 5.35 -9.8 5.65 -7.65 4.4 Q-3.25 2.55 -3.65 3.95 -3.75 4.45 -5.4 5.85 -6.1 7.2 -3.7 5.6 -1.4 3.85 -1.5 3.1 -1.65 1.45 -4.5 0.95 -5.7 0.75 -5.75 0.25 -5.75 -0.45 -4.0 -2.5 L-5.25 -1.75 -4.75 -2.25 -4.65 -2.3 Q-2.95 -3.3 -0.45 -3.0 L2.3 -2.3 M5.2 6.2 Q5.3 4.75 3.85 1.75 L2.35 -0.9 Q1.9 -0.95 1.3 2.15 0.6 5.55 -1.55 6.6 -2.8 7.2 -2.8 8.6 -2.75 10.0 -2.0 9.85 5.0 8.2 5.2 6.2 M-6.2 -1.2 L-7.05 -0.7 -5.0 -2.1 -4.75 -2.25 -6.2 -1.2 M-12.25 2.45 L-12.3 2.5 -12.5 2.6 -12.25 2.45" fill="#8b594d" fill-rule="evenodd" stroke="none"/>
      <path d="M2.55 -2.15 L3.45 -0.8 4.5 1.25 Q5.65 3.7 6.05 5.9 6.5 8.2 4.8 8.25 4.55 8.15 5.0 7.75 5.6 7.2 5.55 6.6 5.5 3.7 3.25 -0.55 L2.3 -2.3 Q1.8 -3.3 2.55 -2.15 M-5.25 -1.75 L-4.0 -2.5 Q-5.75 -0.45 -5.75 0.25 -5.7 0.75 -4.5 0.95 -1.65 1.45 -1.5 3.1 -1.4 3.85 -3.7 5.6 -6.1 7.2 -5.4 5.85 -3.75 4.45 -3.65 3.95 -3.25 2.55 -7.65 4.4 L-9.8 5.65 -10.25 5.35 -10.15 4.65 Q-8.0 3.5 -7.8 2.85 -7.65 2.3 -9.65 2.65 -11.5 2.95 -12.25 3.45 -13.1 4.0 -13.8 6.25 -14.45 8.0 -14.65 7.75 L-14.15 5.6 -13.8 4.7 -13.75 4.75 Q-13.5 4.9 -11.7 2.6 -7.9 0.9 -7.45 0.45 L-5.25 -1.75 M-7.05 -0.7 L-6.2 -1.2 -8.15 0.25 -12.3 2.5 -12.25 2.45 -7.05 -0.7" fill="#bc8a78" fill-rule="evenodd" stroke="none"/>
      <path d="M5.2 6.2 Q5.0 8.2 -2.0 9.85 -2.75 10.0 -2.8 8.6 -2.8 7.2 -1.55 6.6 0.6 5.55 1.3 2.15 1.9 -0.95 2.35 -0.9 L3.85 1.75 Q5.3 4.75 5.2 6.2" fill="#6e3d34" fill-rule="evenodd" stroke="none"/>
      <path d="M-4.75 -2.25 L-5.25 -1.75 -7.45 0.45 Q-7.9 0.9 -11.7 2.6 -13.5 4.9 -13.75 4.75 L-13.8 4.7 -13.8 4.35 -13.55 3.9 -12.5 2.6 -12.3 2.5 -8.15 0.25 -6.2 -1.2 -4.75 -2.25" fill="#f7c5ac" fill-rule="evenodd" stroke="none"/>
    </g>
  </defs>
</svg>
