<svg xmlns:xlink="http://www.w3.org/1999/xlink" height="38.3" width="36.05" xmlns="http://www.w3.org/2000/svg"><use height="17.8" transform="translate(7.1 10.75)" width="24.15" xlink:href="#a"/><defs><g id="a" fill-rule="evenodd"><path d="M2.3-2.3-.45-3q-2.5-.3-4.2.7l-.1.05-.25.15-2.05 1.4-5.2 3.15-.25.15-1.05 1.3-.25.45-.65 1.6q-.95 2.8 0 4.5l.75.85q-.35-4.7 1.15-6.45.9-1.1 1.15-.6.2.55-.35 1.45-.9 1.3-.75 5.75l.35.5q.55.5 1.75.5l2.1-.25q-.4-4.8 1.15-6.55Q-6.2 4.5-6 5.1q.25.45-.4 1.4-.85 1.3-.65 5.55l2.25.45q1.3-.2 2.75-1.1Q4.8 9.75 6 7.85q.85-1.35-.2-4.6Q4.85.45 3.55-1.3l-1-.85Q1.8-3.3 2.3-2.3m4.5 5.4Q8 6.7 7 8.2q-1.4 2.2-9.15 4.05-1.7 1.05-3.1 1.25L-8 13.1q-.85.6-3 .6-1.4 0-2.3-.7l-.65-.65q-1.3.3-2.2-1.15-1.1-1.9-.05-5.05.9-2.7 2.25-3.9l4.5-2.3 3.95-3q2.05-1.25 5.25-1 3.15.3 4.45 1.95Q5.75-.2 6.8 3.1M-4.65-2.3v-.05.05h-.05.05m-.05 0-.05.05.05-.05" fill="#4b271a" transform="translate(16.7 4.1)"/><path d="m2.3-2.3.95 1.75Q5.5 3.7 5.55 6.6q.05.6-.55 1.15-.45.4-.2.5Q6.5 8.2 6.05 5.9q-.4-2.2-1.55-4.65L3.45-.8l-.9-1.35 1 .85Q4.85.45 5.8 3.25q1.05 3.25.2 4.6-1.2 1.9-8.05 3.55-1.45.9-2.75 1.1l-2.25-.45q-.2-4.25.65-5.55.65-.95.4-1.4-.2-.6-1.15.55Q-8.7 7.4-8.3 12.2l-2.1.25q-1.2 0-1.75-.5l-.35-.5q-.15-4.45.75-5.75.55-.9.35-1.45-.25-.5-1.15.6-1.5 1.75-1.15 6.45l-.75-.85q-.95-1.7 0-4.5l.65-1.6v.35l-.35.9-.5 2.15q.2.25.85-1.5.7-2.25 1.55-2.8.75-.5 2.6-.8 2-.35 1.85.2-.2.65-2.35 1.8l-.1.7.45.3 2.15-1.25q4.4-1.85 4-.45-.1.5-1.75 1.9-.7 1.35 1.7-.25 2.3-1.75 2.2-2.5-.15-1.65-3-2.15-1.2-.2-1.25-.7 0-.7 1.75-2.75l-1.25.75.5-.5.1-.05q1.7-1 4.2-.7l2.75.7m2.9 8.5q.1-1.45-1.35-4.45L2.35-.9Q1.9-.95 1.3 2.15.6 5.55-1.55 6.6q-1.25.6-1.25 2 .05 1.4.8 1.25Q5 8.2 5.2 6.2M-6.2-1.2l-.85.5L-5-2.1l.25-.15L-6.2-1.2m-6.05 3.65-.05.05-.2.1.25-.15" fill="#8b594d" transform="translate(16.7 4.1)"/><path d="m2.55-2.15.9 1.35L4.5 1.25Q5.65 3.7 6.05 5.9 6.5 8.2 4.8 8.25q-.25-.1.2-.5.6-.55.55-1.15-.05-2.9-2.3-7.15L2.3-2.3q-.5-1 .25.15m-7.8.4L-4-2.5Q-5.75-.45-5.75.25q.05.5 1.25.7 2.85.5 3 2.15.1.75-2.2 2.5-2.4 1.6-1.7.25 1.65-1.4 1.75-1.9.4-1.4-4 .45L-9.8 5.65l-.45-.3.1-.7Q-8 3.5-7.8 2.85q.15-.55-1.85-.2-1.85.3-2.6.8-.85.55-1.55 2.8-.65 1.75-.85 1.5l.5-2.15.35-.9.05.05q.25.15 2.05-2.15Q-7.9.9-7.45.45l2.2-2.2M-7.05-.7l.85-.5L-8.15.25-12.3 2.5l.05-.05 5.2-3.15" fill="#bc8a78" transform="translate(16.7 4.1)"/><path d="M5.2 6.2Q5 8.2-2 9.85q-.75.15-.8-1.25 0-1.4 1.25-2Q.6 5.55 1.3 2.15 1.9-.95 2.35-.9l1.5 2.65q1.45 3 1.35 4.45" fill="#6e3d34" transform="translate(16.7 4.1)"/><path d="m-4.75-2.25-.5.5-2.2 2.2Q-7.9.9-11.7 2.6q-1.8 2.3-2.05 2.15l-.05-.05v-.35l.25-.45 1.05-1.3.2-.1L-8.15.25-6.2-1.2l1.45-1.05" fill="#f7c5ac" transform="translate(16.7 4.1)"/></g></defs></svg>