<?xml version="1.0" encoding="UTF-8" standalone="no"?>
<svg xmlns:xlink="http://www.w3.org/1999/xlink" height="38.3px" width="36.05px" xmlns="http://www.w3.org/2000/svg">
  <g transform="matrix(1.0, 0.0, 0.0, 1.0, 23.8, 14.85)">
    <use height="17.8" transform="matrix(1.0, 0.0, 0.0, 1.0, -16.65, -4.1)" width="24.1" xlink:href="#shape0"/>
  </g>
  <defs>
    <g id="shape0" transform="matrix(1.0, 0.0, 0.0, 1.0, 16.65, 4.1)">
      <path d="M2.4 -2.3 Q1.3 -2.9 -0.4 -3.05 -3.2 -3.3 -5.0 -2.2 L-6.85 -0.8 -12.05 2.3 -12.45 2.5 -12.95 3.05 -13.85 4.5 -14.45 5.95 Q-15.35 8.75 -14.4 10.4 L-13.7 11.2 Q-13.95 6.5 -12.5 4.8 -11.6 3.75 -11.3 4.25 -11.15 4.8 -11.7 5.7 -12.55 7.0 -12.45 11.45 L-12.15 11.95 Q-11.5 12.45 -10.3 12.45 L-8.25 12.2 Q-8.65 7.35 -7.15 5.65 -6.2 4.55 -5.95 5.05 -5.75 5.55 -6.3 6.5 -7.2 7.8 -7.05 12.0 L-4.75 12.5 Q-3.5 12.3 -2.0 11.4 4.8 9.7 6.05 7.75 6.9 6.45 5.85 3.25 4.9 0.35 3.55 -1.3 L2.65 -2.15 Q1.85 -3.35 2.4 -2.3 M6.8 3.05 Q8.0 6.7 7.05 8.2 5.6 10.35 -2.15 12.25 -3.75 13.3 -5.25 13.5 L-7.95 13.05 Q-8.75 13.7 -10.95 13.7 -12.35 13.7 -13.25 13.0 L-13.9 12.3 Q-15.25 12.6 -16.05 11.2 -17.2 9.3 -16.15 6.15 -15.25 3.45 -13.9 2.25 L-9.4 -0.05 -5.45 -3.05 Q-3.45 -4.3 -0.25 -4.05 2.9 -3.75 4.25 -2.1 5.75 -0.2 6.8 3.05" fill="#3a1412" fill-rule="evenodd" stroke="none"/>
      <path d="M2.4 -2.3 L3.3 -0.55 Q5.5 4.05 5.6 6.55 5.6 7.2 5.0 7.75 4.55 8.15 4.8 8.25 6.5 8.2 6.1 5.9 5.75 3.6 4.55 1.2 L3.5 -0.8 2.65 -2.15 3.55 -1.3 Q4.9 0.35 5.85 3.25 6.9 6.45 6.05 7.75 4.8 9.7 -2.0 11.4 -3.5 12.3 -4.75 12.5 L-7.05 12.0 Q-7.2 7.8 -6.3 6.5 -5.75 5.55 -5.95 5.05 -6.2 4.55 -7.15 5.65 -8.65 7.35 -8.25 12.2 L-10.3 12.45 Q-11.5 12.45 -12.15 11.95 L-12.45 11.45 Q-12.55 7.0 -11.7 5.7 -11.15 4.8 -11.3 4.25 -11.6 3.75 -12.5 4.8 -13.95 6.5 -13.7 11.2 L-14.4 10.4 Q-15.35 8.75 -14.45 5.95 L-13.85 4.5 -13.8 4.65 -14.55 7.75 Q-14.45 8.0 -13.75 6.25 -13.0 4.0 -12.2 3.45 -11.5 3.0 -9.55 2.65 L-7.75 2.75 Q-7.95 3.5 -10.15 4.65 -11.1 5.75 -9.8 5.65 -9.25 5.55 -7.65 4.4 -3.45 2.7 -3.55 3.95 -3.7 4.45 -5.4 5.8 -6.1 7.2 -3.65 5.55 -1.4 3.75 -1.45 3.05 -1.7 1.45 -4.5 0.95 -5.7 0.8 -5.7 0.25 -5.7 -0.45 -3.95 -2.55 L-4.7 -2.1 -4.55 -2.35 -6.2 -1.2 -6.85 -0.8 -5.0 -2.2 Q-3.2 -3.3 -0.4 -3.05 1.3 -2.9 2.4 -2.3 M5.2 6.2 Q5.35 4.75 3.85 1.75 L2.35 -0.95 Q2.0 -0.95 1.35 2.15 0.65 5.55 -1.55 6.55 -2.85 7.2 -2.75 8.55 -2.75 10.0 -2.0 9.8 5.0 8.3 5.2 6.2 M-12.05 2.3 L-12.25 2.45 -12.45 2.5 -12.05 2.3" fill="#5e372e" fill-rule="evenodd" stroke="none"/>
      <path d="M2.65 -2.15 L3.5 -0.8 4.55 1.2 Q5.75 3.6 6.1 5.9 6.5 8.2 4.8 8.25 4.55 8.15 5.0 7.75 5.6 7.2 5.6 6.55 5.5 4.05 3.3 -0.55 L2.4 -2.3 Q1.85 -3.35 2.65 -2.15 M-6.85 -0.8 L-6.2 -1.2 -8.15 0.2 Q-8.95 0.9 -12.25 2.45 L-12.05 2.3 -6.85 -0.8 M-4.7 -2.1 L-3.95 -2.55 Q-5.7 -0.45 -5.7 0.25 -5.7 0.8 -4.5 0.95 -1.7 1.45 -1.45 3.05 -1.4 3.75 -3.65 5.55 -6.1 7.2 -5.4 5.8 -3.7 4.45 -3.55 3.95 -3.45 2.7 -7.65 4.4 -9.25 5.55 -9.8 5.65 -11.1 5.75 -10.15 4.65 -7.95 3.5 -7.75 2.75 L-9.55 2.65 Q-11.5 3.0 -12.2 3.45 -13.0 4.0 -13.75 6.25 -14.45 8.0 -14.55 7.75 L-13.8 4.65 -13.7 4.75 Q-13.5 4.85 -11.65 2.55 -8.1 1.0 -7.45 0.45 L-4.7 -2.1" fill="#845746" fill-rule="evenodd" stroke="none"/>
      <path d="M5.2 6.2 Q5.0 8.3 -2.0 9.8 -2.75 10.0 -2.75 8.55 -2.85 7.2 -1.55 6.55 0.65 5.55 1.35 2.15 2.0 -0.95 2.35 -0.95 L3.85 1.75 Q5.35 4.75 5.2 6.2" fill="#4b271a" fill-rule="evenodd" stroke="none"/>
      <path d="M-6.2 -1.2 L-4.55 -2.35 -4.7 -2.1 -7.45 0.45 Q-8.1 1.0 -11.65 2.55 -13.5 4.85 -13.7 4.75 L-13.8 4.65 -13.85 4.5 -12.95 3.05 -12.45 2.5 -12.25 2.45 Q-8.95 0.9 -8.15 0.2 L-6.2 -1.2" fill="#ab8172" fill-rule="evenodd" stroke="none"/>
    </g>
  </defs>
</svg>
