<svg xmlns:xlink="http://www.w3.org/1999/xlink" height="38.3" width="36.05" xmlns="http://www.w3.org/2000/svg"><use height="17.8" transform="translate(7.15 10.75)" width="24.1" xlink:href="#a"/><defs><g id="a" fill-rule="evenodd"><path d="M2.4-2.3q-1.1-.6-2.8-.75-2.8-.25-4.6.85L-6.85-.8l-5.2 3.1-.4.2-.5.55-.9 1.45-.6 1.45q-.9 2.8.05 4.45l.7.8q-.25-4.7 1.2-6.4.9-1.05 1.2-.55.15.55-.4 1.45-.85 1.3-.75 5.75l.3.5q.65.5 1.85.5l2.05-.25q-.4-4.85 1.1-6.55.95-1.1 1.2-.6.2.5-.35 1.45-.9 1.3-.75 5.5l2.3.5q1.25-.2 2.75-1.1 6.8-1.7 8.05-3.65.85-1.3-.2-4.5Q4.9.35 3.55-1.3l-.9-.85q-.8-1.2-.25-.15m4.4 5.35Q8 6.7 7.05 8.2q-1.45 2.15-9.2 4.05-1.6 1.05-3.1 1.25l-2.7-.45q-.8.65-3 .65-1.4 0-2.3-.7l-.65-.7q-1.35.3-2.15-1.1-1.15-1.9-.1-5.05.9-2.7 2.25-3.9l4.5-2.3 3.95-3q2-1.25 5.2-1 3.15.3 4.5 1.95Q5.75-.2 6.8 3.05" fill="#3a1412" transform="translate(16.65 4.1)"/><path d="m2.4-2.3.9 1.75q2.2 4.6 2.3 7.1 0 .65-.6 1.2-.45.4-.2.5Q6.5 8.2 6.1 5.9q-.35-2.3-1.55-4.7L3.5-.8l-.85-1.35.9.85Q4.9.35 5.85 3.25q1.05 3.2.2 4.5Q4.8 9.7-2 11.4q-1.5.9-2.75 1.1l-2.3-.5q-.15-4.2.75-5.5.55-.95.35-1.45-.25-.5-1.2.6-1.5 1.7-1.1 6.55l-2.05.25q-1.2 0-1.85-.5l-.3-.5q-.1-4.45.75-5.75.55-.9.4-1.45-.3-.5-1.2.55-1.45 1.7-1.2 6.4l-.7-.8q-.95-1.65-.05-4.45l.6-1.45.05.15-.75 3.1q.1.25.8-1.5Q-13 4-12.2 3.45q.7-.45 2.65-.8l1.8.1q-.2.75-2.4 1.9-.95 1.1.35 1 .55-.1 2.15-1.25 4.2-1.7 4.1-.45-.15.5-1.85 1.85-.7 1.4 1.75-.25 2.25-1.8 2.2-2.5-.25-1.6-3.05-2.1Q-5.7.8-5.7.25q0-.7 1.75-2.8l-.75.45.15-.25L-6.2-1.2l-.65.4L-5-2.2q1.8-1.1 4.6-.85 1.7.15 2.8.75m2.8 8.5q.15-1.45-1.35-4.45l-1.5-2.7q-.35 0-1 3.1-.7 3.4-2.9 4.4-1.3.65-1.2 2 0 1.45.75 1.25 7-1.5 7.2-3.6m-17.25-3.9-.2.15-.2.05.4-.2" fill="#5e372e" transform="translate(16.65 4.1)"/><path d="M2.65-2.15 3.5-.8l1.05 2q1.2 2.4 1.55 4.7.4 2.3-1.3 2.35-.25-.1.2-.5.6-.55.6-1.2-.1-2.5-2.3-7.1L2.4-2.3q-.55-1.05.25.15M-6.85-.8l.65-.4L-8.15.2q-.8.7-4.1 2.25l.2-.15 5.2-3.1m2.15-1.3.75-.45Q-5.7-.45-5.7.25q0 .55 1.2.7 2.8.5 3.05 2.1.05.7-2.2 2.5Q-6.1 7.2-5.4 5.8q1.7-1.35 1.85-1.85.1-1.25-4.1.45-1.6 1.15-2.15 1.25-1.3.1-.35-1 2.2-1.15 2.4-1.9l-1.8-.1q-1.95.35-2.65.8-.8.55-1.55 2.8-.7 1.75-.8 1.5l.75-3.1.1.1q.2.1 2.05-2.2Q-8.1 1-7.45.45L-4.7-2.1" fill="#845746" transform="translate(16.65 4.1)"/><path d="M5.2 6.2Q5 8.3-2 9.8q-.75.2-.75-1.25-.1-1.35 1.2-2 2.2-1 2.9-4.4.65-3.1 1-3.1l1.5 2.7q1.5 3 1.35 4.45" fill="#4b271a" transform="translate(16.65 4.1)"/><path d="m-6.2-1.2 1.65-1.15-.15.25L-7.45.45q-.65.55-4.2 2.1-1.85 2.3-2.05 2.2l-.1-.1-.05-.15.9-1.45.5-.55.2-.05Q-8.95.9-8.15.2l1.95-1.4" fill="#ab8172" transform="translate(16.65 4.1)"/></g></defs></svg>