<svg xmlns:xlink="http://www.w3.org/1999/xlink" height="38.3" width="36.05" xmlns="http://www.w3.org/2000/svg"><use height="20.55" transform="translate(8.65 8.2)" width="23.4" xlink:href="#a"/><defs><g id="a" fill-rule="evenodd"><path d="m-14.5 8.5.15-.3.2-.55.3-.4.2.1q.25.05.7.4l-.1.1-.3 1-.95-.3-.2-.05m2.55-3.6.45-.4.45.3.5.15-.4.35-1-.4" fill="#333" transform="translate(15.15 6.65)"/><path d="M-2 8.2h1.25l3.5-.6L-.2 8.65l-1.6.45-.2-.9m-2.45-12 1.6-.65q-2.1 5.8-4.25 5.9Q-6-.1-4.45-3.8m-6.1 8.75q.8.3 1.85 1.4Q-7.2 7.9-6.65 9.7h-1.4q-.45-2.9-2.6-4.25l-.3-.15.4-.35m-2.8 3.9.3-1 .1-.1.6.5.8 1.05-1.8-.45" fill="#fff" transform="translate(15.15 6.65)"/><path d="m-10.65 3.2.45.6-.25.2.5.1q1.35 1.8 3.2 2.8.9 1.3 1.2 2.75L-4 9.5l1.4-.25v-.2l-.15-.9.75.05.2.9 1.6-.45L2.75 7.6l2.2-.95q2.05-1 2.9-2.1v.1q.55 1.15.35 3.7l-.1.2Q6 11.9-2.35 13.3q-9.25 1.5-12.1-.85l-.2-.15-.5-3.25.3-.4.35-.15.2.05.95.3 1.8.45-.8-1.05-.6-.5q-.45-.35-.7-.4l-.2-.1-.2-.2-.1-.4.3-.8q.4-.7 1.1-.95h.8l1 .4.3.15Q-8.5 6.8-8.05 9.7h1.4Q-7.2 7.9-8.7 6.35q-1.05-1.1-1.85-1.4l-.5-.15-.45-.3h-.05v-.55l.9-.75m11.1 8.45 1.3-.35q4.05-1.2 5.4-3.15L7 5.95Q4.95 8.4-.2 9.85q-3.55.95-7.25.95l.05-.05-2.3-.1-.75-.1-3.5-.65.15 1.55.1.05.05.3q2.45 1.3 8 .8l.55-.05.85-.1 1.35-.15 1.5-.25 1.85-.4m-10.7-4.9-1.05-.95q-.45-.3-.8-.35l-.65.1-.6.9q.4.15 1.05.55l.45.1q.95.75 1.3 2.35l1.6.1q-.25-1.65-1.3-2.8" fill="#3f0f0d" transform="translate(15.15 6.65)"/><path d="m-10.65 3.2-.35-.55-.05-.5Q-10.4.4-8.9.05q.3-.1.75.35 1.7-2.3 2.2-4.8l.25-.35Q-4.45-5.8-2.05-6.1l.3-.4L.9-6.65l.4.15.15.45v.1L3.9-5l.3.5.65 3.05q.4 1.55.9 2.6l.6.1Q8.25 3 8.25 3.6l-.05.35-.35.6q-.85 1.1-2.9 2.1l-2.2.95-3.5.6H-2l-.75-.05q-2.2-.25-3.95-1.2l-.05-.05q-1.85-1-3.2-2.8l-.05-.05-.2-.25-.45-.6M3.6 2.95l1.15-.9Q4.05.8 3.6-1.1l-.55-2.95-1.75-.7-.15 2.8v.05q0 3.85 1.05 5.5l1.4-.65M.35.95l-.1-1.9L.4-5.7l-1.55.05q-.5 9.95-1.25 10.3-2.8.3-4.85-1.65L-8.95.95l-.6.55-.05-.05-.25.5-.1.25Q-6.8 7.85.15 7.05 2.8 6.7 4.9 5.55 6.95 4.4 7.2 3.3q0-.4-.6-.75l-.05.1-.5-.5Q2.9 4.7 1.8 4.65l-.1-.05h.05Q.7 4 .4 1.3L.35.95m-4.3 2.55 1 .1q.6-1.55.9-8.6-1.45.25-2.75 1.1-.6 2.75-2.5 5.15l1.6 1.35 1.75.9" fill="#351e02" transform="translate(15.15 6.65)"/><path d="m-10 4.05.05.05-.5-.1.45.05m3.25 2.85.05.05.35.55 2.35 2-1.55.15q-.3-1.45-1.2-2.75m8.5 4.4L5.1 9.85l.25-1.45q-3.7 2.4-8.85 3.1-.65.8-2.15 1.1-5.55.5-8-.8l-.05-.3q3.6.65 6.25-.7 3.7 0 7.25-.95Q4.95 8.4 7 5.95l.15 2.2Q5.8 10.1 1.75 11.3m-13.6-4.2 2.3.75-.7-1.1q1.05 1.15 1.3 2.8l-1.6-.1q-.35-1.6-1.3-2.35" fill="#b74513" transform="translate(15.15 6.65)"/><path d="m-10.2 3.8.2.25-.45-.05.25-.2m3.5 3.15q1.75.95 3.95 1.2l.15.9v.2L-4 9.5l-2.35-2-.35-.55m8.45 4.35-1.3.35-1.85.4-1.5.25-1.35.15-.85.1-.55.05q1.5-.3 2.15-1.1 5.15-.7 8.85-3.1L5.1 9.85 1.75 11.3" fill="#6b2613" transform="translate(15.15 6.65)"/><path d="M1.15-1.9v-.05l.15-2.8 1.75.7.55 2.95Q4.05.8 4.75 2.05l-1.15.9Q2.2-.6 1.8-2.95L1.15-1.9m-5.6-1.9Q-6-.1-7.1 1.45q2.15-.1 4.25-5.9l-1.6.65M-5.7 2.6l-1.6-1.35q1.9-2.4 2.5-5.15 1.3-.85 2.75-1.1-.3 7.05-.9 8.6l-1-.1q.25-3.1.95-5l-2.7 4.1" fill="#f8c606" transform="translate(15.15 6.65)"/><path d="m3.6 2.95-1.4.65Q1.15 1.95 1.15-1.9l.65-1.05q.4 2.35 1.8 5.9m-7.55.55-1.75-.9L-3-1.5q-.7 1.9-.95 5" fill="#f87006" transform="translate(15.15 6.65)"/><path d="m-9.55 1.5.6-.55L-7.25 3Q-5.2 4.95-2.4 4.65q.75-.35 1.25-10.3L.4-5.7.25-.95l.1 1.9L-.2-1.5l-.4 3.1q-.25 2.3.4 2.9l1.9.1.1.05q1.1.05 4.25-2.5l.5.5q-.8 1.2-1.95 1.8Q.45 6.4-2.35 6.05q-4-.55-7.2-4.55" fill="#f8f9a8" transform="translate(15.15 6.65)"/><path d="m.35.95.05.35Q.7 4 1.75 4.6H1.7l-1.9-.1q-.65-.6-.4-2.9l.4-3.1L.35.95m6.2 1.7.05-.1q.6.35.6.75-.25 1.1-2.3 2.25Q2.8 6.7.15 7.05q-6.95.8-10.1-4.85l.1-.25.25-.5.05.05q3.2 4 7.2 4.55 2.8.35 6.95-1.6 1.15-.6 1.95-1.8" fill="#cf7838" transform="translate(15.15 6.65)"/><path d="M-7.45 10.8q-2.65 1.35-6.25.7l-.1-.05-.15-1.55 3.5.65.75.1 2.3.1-.05.05m-4.4-3.7-.45-.1q-.65-.4-1.05-.55l.6-.9.65-.1q.35.05.8.35l1.05.95.7 1.1-2.3-.75" fill="#dd995e" transform="translate(15.15 6.65)"/></g></defs></svg>