<svg xmlns:xlink="http://www.w3.org/1999/xlink" height="38.3" width="36.05" xmlns="http://www.w3.org/2000/svg"><use height="18.75" transform="translate(10.5 9.85)" width="21.25" xlink:href="#a"/><defs><g id="a"><path d="M6.55 5.35V5.3q.7-6.65-3.4-8.45Q-.6-4.9-2.75-1.6l-.6.9-1.3-.1h-.2l1.15-1.55Q-1.3-6.1 3.05-4.5q5.2 1.7 4.55 9.55l-.25-.15q-.4-.1-.6.2l-.2.25m-18.8 1.95.25-1.45 1-1.25.4.3.85.25q-1.1.95-1.25 2.7l-1.1-.5-.15-.05m4.45-5.05 1.1-1q.05.4.5.55l.6.15-.7.65-1.5-.35" fill="#333" fill-rule="evenodd" transform="translate(13.3 5)"/><path d="m-3.35-.7.6-.9q2.15-3.3 5.9-1.55 4.1 1.8 3.4 8.45v.05L4.8 6.7Q2.3.1-3.35-.7M-5.6 1.95q5.35 1.5 6.65 6V8l-1.3.1H-.3q-.8-1.45-2.1-2.9-1.85-1.9-3.9-2.6l.7-.65m-2.75 4.4q-1.2.45-1.25 1.95.05-1.5 1.25-1.95m-1.4-1.2q1.65.5 3.4 1.8Q-4.95 8-4.4 8.75l-5.2-.45-1.4-.45q.15-1.75 1.25-2.7" fill="#fff" fill-rule="evenodd" transform="translate(13.3 5)"/><path d="M-3.35-.7Q2.3.1 4.8 6.7l1.75-1.35.2-.25q.2-.3.6-.2l.25.15.25.35.1 1.5-.3 2.25q-.7 2.5-7.45 3.3-5.4 2.4-11.1.3-1.55-.6-2.05-1.6-.7-1.8 0-3.5l.35-.3.35-.05.15.05 1.1.5 1.4.45 5.2.45q-.55-.75-1.95-1.8-1.75-1.3-3.4-1.8l-.85-.25-.4-.3v-.05q-.15-.4.05-.55 1-1.8 2.85-1.8l.3.05 1.5.35q2.05.7 3.9 2.6 1.3 1.45 2.1 2.9h.05l1.3-.1v-.05q-1.3-4.5-6.65-6l-.6-.15q-.45-.15-.5-.55V1.1q.1-.9 1.05-1.5l.8-.4h.2l1.3.1M.3 4.85H.25l1 1.6.25.55.15.6L4 6.8 3.2 5Q.75.2-4.4-.15l-.65.3-.5.5-.3.65q2.1.1 4.4 1.9Q-.4 3.95.3 4.85M5.25 7.8q.05 1.25-.55 2.7l-.95.35L6 9.9l1-1.1q.25-.9.05-2.5l-1.8 1.5v-.1Q3.6 8.6 1.75 9L.5 9.15l-.65.05h-.1v.05-.05h.1l.65-.05L1.75 9q1.85-.4 3.5-1.3v.1m-17.2 1.05q-.45 1.5.05 2.1 1.1 1.3 5.4 1.55l4.6-.25-3.2.25 4.85-3.25-8.3.35-3.15-1-.15-.1-.1.35M-8 3l-.8.1q-.85.3-1.3 1.1 3.3.7 5.2 2.7l-.15.05 1.15 1.2.3.5 2.35-.35Q-1.8 7.05-2.8 5.85q-1.7-1.95-3.7-2.6L-8 3" fill="#3f0f0d" fill-rule="evenodd" transform="translate(13.3 5)"/><path d="m3.2 5-1-1.55-1.9 1.4q-.7-.9-1.75-1.65-2.3-1.8-4.4-1.9l.3-.65.5-.5.65-.3Q.75.2 3.2 5m.55 5.85.95-.35q.6-1.45.55-2.7l1.8-1.5q.2 1.6-.05 2.5L6 9.9l-2.25.95-1.05.3-2.6.4-1.15.45-.85.25.85-.25 1.15-.45 2.6-.4 1.05-.3m-4-1.6L-5.1 12.5l3.2-.25-4.6.25q-4.3-.25-5.4-1.55-.5-.6-.05-2.1l-.1.95q5.15 2.4 6.9.1l-3.4-.3 8.3-.35M-4.9 6.9q-1.9-2-5.2-2.7.45-.8 1.3-1.1L-8 3l-1.55.6 4.45.35-1.4-.7q2 .65 3.7 2.6 1 1.2 1.55 2.45-.5-1-1.35-2.15l-2.3.75m.5-7.05-1.15.8L-.9.9Q-2.4.05-4.4-.15" fill="#b74513" fill-rule="evenodd" transform="translate(13.3 5)"/><path d="m-11.95 8.85.1-.35.15.1 3.15 1 3.4.3q-1.75 2.3-6.9-.1l.1-.95m5.45-5.6 1.4.7-4.45-.35L-8 3l1.5.25m2.1-3.4Q-2.4.05-.9.9L-5.55.65l1.15-.8" fill="#dd995e" fill-rule="evenodd" transform="translate(13.3 5)"/><path d="M3.2 5 4 6.8l-2.35.8L1.5 7l-.25-.55-1-1.6H.3l1.9-1.4L3.2 5m-8.1 1.9 2.3-.75q.85 1.15 1.35 2.15l-2.35.35-.3-.5-1.15-1.2.15-.05" fill="#6b2613" fill-rule="evenodd" transform="translate(13.3 5)"/><path d="M3.7 13.3q.05-1.5 1.25-1.95" fill="none" stroke="#333" stroke-linecap="round" stroke-linejoin="round" stroke-width=".75"/></g></defs></svg>