<?xml version="1.0" encoding="UTF-8" standalone="no"?>
<svg xmlns:xlink="http://www.w3.org/1999/xlink" height="38.3px" width="36.05px" xmlns="http://www.w3.org/2000/svg">
  <g transform="matrix(1.0, 0.0, 0.0, 1.0, 23.8, 14.85)">
    <use height="25.55" transform="matrix(1.0, 0.0, 0.0, 1.0, -14.05, -12.35)" width="23.0" xlink:href="#shape0"/>
  </g>
  <defs>
    <g id="shape0" transform="matrix(1.0, 0.0, 0.0, 1.0, 14.05, 12.35)">
      <path d="M1.65 -12.35 Q2.95 -12.3 4.1 -10.85 4.65 -10.1 4.85 -8.55 L7.35 -8.5 Q8.45 -7.6 8.15 -4.95 9.1 -2.85 8.3 -1.8 L7.55 -1.35 8.4 -0.8 Q8.95 0.4 8.95 3.65 L8.6 7.45 Q8.1 8.7 7.3 9.0 L6.1 9.55 Q-0.2 12.5 -3.65 13.05 -6.7 13.55 -10.2 12.5 L-13.3 11.25 -13.9 10.8 -14.05 8.75 -13.65 7.45 Q-13.3 6.7 -9.55 3.05 L-5.8 -0.5 -7.55 -8.85 Q-7.55 -9.8 -7.15 -10.35 -6.35 -11.55 -2.3 -12.1 L1.65 -12.35" fill="#1e1c27" fill-rule="evenodd" stroke="none"/>
      <path d="M1.45 -11.25 Q3.9 -11.05 3.8 -7.05 L6.7 -7.45 Q7.15 -6.8 6.95 -5.5 6.9 -5.25 4.4 -4.75 L4.45 -3.95 7.3 -4.35 Q8.05 -3.6 7.4 -2.75 7.2 -2.35 4.65 -1.55 L4.7 -1.2 7.2 -0.25 Q7.65 0.5 7.6 3.9 7.6 7.45 6.8 7.75 L2.6 9.7 Q-1.3 11.4 -4.1 11.8 -6.9 12.25 -10.15 11.25 L-12.9 10.15 Q-13.05 8.7 -12.8 8.15 -4.65 0.45 -4.55 -0.1 -4.35 -0.75 -6.15 -9.85 -5.85 -10.35 -3.1 -10.85 L1.45 -11.25" fill="#e6bd1c" fill-rule="evenodd" stroke="none"/>
      <path d="M1.45 -11.25 Q2.1 -11.2 2.65 -6.0 3.15 -0.8 2.6 0.45 1.6 2.7 -3.15 9.45 -3.8 10.4 -8.4 9.55 -13.05 8.75 -12.8 8.15 -4.65 0.45 -4.55 -0.1 -4.35 -0.75 -6.15 -9.85 -5.8 -10.45 -3.1 -10.95 L1.45 -11.25" fill="#ffff1c" fill-rule="evenodd" stroke="none"/>
      <path d="M6.9 0.05 L6.65 5.95 Q6.05 6.95 3.45 7.55 6.05 6.25 6.3 5.2 L6.9 0.05" fill="#ffff1c" fill-rule="evenodd" stroke="none"/>
      <path d="M-2.95 -10.45 Q0.3 -11.1 0.7 -8.1 1.3 -5.1 -1.95 -4.45 -5.2 -3.75 -5.65 -6.75 -6.1 -9.75 -2.95 -10.45" fill="#383538" fill-rule="evenodd" stroke="none"/>
      <path d="M-1.4 -9.1 L-2.6 -8.05 -3.95 -8.6 -2.8 -9.3 -1.4 -9.1" fill="#ffff1c" fill-rule="evenodd" stroke="none"/>
      <path d="M-4.45 -7.75 L-3.45 -7.25 -4.35 -6.5 -4.55 -7.0 -4.45 -7.75" fill="#ffff1c" fill-rule="evenodd" stroke="none"/>
      <path d="M-0.45 -7.05 L-1.65 -7.6 -0.65 -8.45 -0.4 -7.85 -0.45 -7.05" fill="#ffff1c" fill-rule="evenodd" stroke="none"/>
      <path d="M-3.7 -5.8 L-2.55 -6.8 -1.05 -6.1 Q-1.65 -5.6 -2.15 -5.55 L-3.7 -5.8" fill="#ffff1c" fill-rule="evenodd" stroke="none"/>
      <path d="M6.8 7.75 Q-0.65 11.55 -4.7 11.95 -7.35 12.2 -10.35 11.25 -12.45 10.55 -12.9 10.15 L-13.05 9.0 -9.9 10.0 Q-6.4 10.95 -4.4 10.55 3.05 9.25 7.35 6.3 7.2 7.7 6.8 7.75" fill="#cd7c00" fill-rule="evenodd" stroke="none"/>
      <path d="M1.65 0.2 Q-1.4 6.2 -4.3 8.65 -5.8 9.8 -10.95 7.9 -11.55 7.7 -8.15 4.4 L-3.9 0.05 Q-3.45 -0.6 -4.9 -4.6 L-4.45 -4.35 -3.55 0.15 -10.15 7.2 Q-10.3 7.55 -7.9 7.8 L-4.85 7.75 Q-4.15 7.45 -1.95 4.4 0.2 1.4 0.7 0.05 0.95 -0.5 -0.35 -4.5 L0.65 -5.2 1.65 0.2" fill="#e6bd1c" fill-rule="evenodd" stroke="none"/>
      <path d="M-6.15 -9.1 Q-3.9 -0.5 -4.35 0.15 L-11.6 7.9 Q-11.2 8.65 -8.2 9.55 -13.2 8.9 -12.65 8.0 L-4.65 -0.05 Q-6.55 -9.25 -6.35 -9.7 L-6.15 -9.1" fill="#ffffcf" fill-rule="evenodd" stroke="none"/>
      <path d="M-1.55 -4.1 Q-0.7 -0.3 -1.1 0.15 -5.45 7.05 -7.55 6.8 -8.9 7.05 -8.65 6.45 L-3.15 0.2 Q-3.15 -0.75 -3.95 -4.1 -2.35 -3.7 -1.55 -4.1" fill="#ffffcf" fill-rule="evenodd" stroke="none"/>
    </g>
  </defs>
</svg>
