<?xml version="1.0" encoding="UTF-8" standalone="no"?>
<svg xmlns:xlink="http://www.w3.org/1999/xlink" height="38.3px" width="36.05px" xmlns="http://www.w3.org/2000/svg">
  <g transform="matrix(1.0, 0.0, 0.0, 1.0, 23.8, 14.85)">
    <use height="17.1" transform="matrix(1.0, 0.0, 0.0, 1.0, -15.55, -3.75)" width="24.1" xlink:href="#shape0"/>
  </g>
  <defs>
    <g id="shape0" transform="matrix(1.0, 0.0, 0.0, 1.0, 15.55, 3.75)">
      <path d="M8.5 5.7 L8.55 6.2 8.55 6.95 8.5 6.95 8.5 7.45 8.45 7.7 8.45 7.85 8.4 7.9 8.4 8.1 6.95 9.2 4.95 10.35 4.3 10.6 4.2 10.6 4.15 10.65 3.95 10.7 3.65 10.9 0.65 11.9 -1.05 12.4 -4.95 13.1 -8.5 13.35 -11.7 13.1 -14.5 12.4 -15.05 12.05 -15.3 11.7 -15.35 11.55 -15.55 10.45 -15.55 9.55 Q-15.6 7.55 -14.0 6.35 L-12.3 5.6 -6.0 1.35 Q-5.95 0.35 -5.3 -0.8 -4.1 -3.05 -1.45 -3.45 3.55 -4.45 5.05 -2.05 L8.5 5.2 8.5 5.7" fill="#000000" fill-rule="evenodd" stroke="none"/>
      <path d="M7.95 5.7 Q8.15 6.7 7.7 7.4 5.9 9.35 -0.35 11.15 -8.25 13.35 -14.35 11.45 L-14.7 10.2 Q-7.95 11.65 -0.1 9.4 5.7 7.65 7.95 5.7" fill="#ffffff" fill-rule="evenodd" stroke="none"/>
      <path d="M-14.7 8.4 Q-13.6 6.65 -11.8 6.3 -10.05 5.9 -9.3 10.9 L-13.1 10.95 Q-14.5 10.95 -14.7 10.35 L-14.7 8.4" fill="#ffffff" fill-rule="evenodd" stroke="none"/>
      <path d="M-2.25 -1.2 Q-2.1 -0.4 -3.1 2.3 L-5.35 4.6 Q-7.7 6.45 -9.75 7.4 -10.2 5.85 -11.1 5.85 -6.25 2.65 -5.2 1.45 -5.05 -1.45 -4.25 -1.2 L-2.25 -1.2" fill="#ffffff" fill-rule="evenodd" stroke="none"/>
      <path d="M0.7 -0.9 Q1.4 -1.35 3.2 -1.45 5.25 -1.65 5.3 -0.8 1.5 -0.9 1.2 1.65 1.0 3.1 0.15 4.05 -0.95 5.35 -0.7 5.65 0.2 6.7 2.45 3.4 4.05 2.4 6.75 2.4 4.45 3.05 4.0 5.05 L3.3 6.35 Q2.65 6.85 0.95 7.45 L4.15 6.95 7.05 6.1 Q1.55 10.6 -8.75 10.7 -9.3 9.6 -9.45 7.55 -4.8 5.8 -2.75 3.45 L-1.3 1.6 Q-0.75 -0.05 0.7 -0.9" fill="#9a0000" fill-rule="evenodd" stroke="none"/>
      <path d="M3.15 -0.85 L2.55 -0.65 Q0.4 -0.05 0.15 1.9 -0.1 3.3 -1.6 5.35 -2.35 7.8 0.45 6.15 L1.9 4.7 Q2.7 3.7 3.5 3.6 L2.8 4.95 1.65 6.05 Q-0.55 7.15 -0.3 8.1 L3.5 7.6 Q-0.75 10.15 -7.95 10.35 -8.85 8.8 -8.7 7.6 L-5.2 5.95 Q-2.05 4.1 -1.55 3.1 L0.25 0.15 Q0.9 -0.45 3.15 -0.85" fill="#ff6700" fill-rule="evenodd" stroke="none"/>
      <path d="M-7.55 7.8 Q-4.45 7.05 -2.0 4.8 -2.3 6.6 -3.1 7.6 L-1.1 7.45 -2.35 8.35 -0.1 8.65 -3.25 9.15 -6.8 9.7 Q-8.1 9.15 -7.55 7.8" fill="#ffcd00" fill-rule="evenodd" stroke="none"/>
    </g>
  </defs>
</svg>
