<svg xmlns:xlink="http://www.w3.org/1999/xlink" height="38.3" width="36.05" xmlns="http://www.w3.org/2000/svg"><use height="22.75" transform="translate(8.1 8.2)" width="24.45" xlink:href="#a"/><defs><g id="a"><path d="M4.2-.65 5.15.9 7.1 5.85l.1.45.15.3.1 2.1-1.2.8v2q-.05.95-1 .95-1.2 0-.9-1.35v-.3q-1.5-.65-2.85.6l-.3.2-.25 2-1.6.35-.2-1.4q-.95-.85-2.3-.15l-1.35.45-.4.2-.2 1.45-.45.35q-.9.25-1.6-.45l-.15-1.2q-1.5-.6-3.15 0l-.2 1.45-1.6.3-.35-1.65q-.15-.8-.9-.6-.1-1.45-1.05-2.1.35-.4.3-1.15-.1-.9.3-1.7l1.1-1.8.1-.05q.7-.85 1.9-1.6l.05-.75 1.4-1.25L-7.6.7l.15-.25Q-5.65-.4-4.2-1.9q.35-.2.35-.6v-2.75q4-.75 7.9.1l.15 4.5m-3.45-6-5.2.25-.3.2-.1.7-.1 2.65Q-6.35-1.5-7.85-.4l-.9.8q-1.1 1.25-2.65 2.2l-.6 1.1q-2.05 1.3-3.15 3.15l-.15.25q-.65 1.45-.25 3.2.45 1.8 1.3 3.2l.1.2.35 1.2v.25l1.1.95 2.15-.05q.55-.2.85-.85l.3-.55 1.05.05q.25.8 1.15 1.15 1.15.5 2 0l1.15-.7.15-1.2 2-.15.15.7.45.35 2.15.1.9-.45.1-.15.25-.55.15-1.35 1-.35q0 .65.3.95.85.85 2.05.6 2.05-.55 1.9-2.35l-.1-1.2 1.2-.85Q8.9 8 8.6 6.5 8 3.45 6.35.3l-1-1.4-.2-4.35-.1-.25q-.35-.2-.2-.4l-4.1-.55" fill-rule="evenodd" transform="translate(15.7 6.65)"/><path d="m3.8-5.5-.3-.05h-.25l-.1.05-.1.05-1.6-.3h-.1l-.6.05-.15.1-2.15-.25-.7.1h-.15v.25l-1.25.1-.1.15-.1.05v.1l-.05.1.05.15.2.3h.25l.1-.1 1.4-.05.4.05 2.85-.15.05-.05v-.1l.05.05h.05l2.55.3.05-.05.15-.25-.35-.2.05-.1v-.2l-.15-.1m-.9 1.75-.15.1-.4-.1-.3.05-.1-.05-3.9.25-.55-.25q3.45-.5 5.4 0m-6.65.3.05.1v.2l.1.05-.15.1v-.45m0 .9.3.15h-.3v-.15M3.85-.4h.05l.2-.05.05-.05-.05.3-.25-.2" fill="#b5e6e6" fill-rule="evenodd" transform="translate(15.7 6.65)"/><path d="m-2.5-3.75.55.25 3.9-.25.1.05.3-.05.4.1.15-.1.3-.3.05-.05h.2l.35.6.35 1.05v.05l.05.15q.15.85-.05 1.65v.1l-.05.05-.2.05h-.05l.25.2.15.15.1.05q-.1.3.1.4l.25.1.15.2.15.15.4.15 1.7 4.85.15.7-.15.25-.2.2-.95.15-.25.5-.35.25.35-.25.45-.25h.15l.45-.25.05-.05h.05l.2.1.05.1v.2l.05.45q.35.25.3.7v.2l-.5.1H6.9v.15l-1 .45-4.5 1.75-.25-.1v.1l-.25.2-.25.1.1-.1-.4-1.3H.3l-.05-.05v-.1l.05-.2.25.2V10q.05-.25.3-.2l.1.1.2-.2.05.05.2.05.05.1v.15L1.5 10l1.75-.75 2.1-1.35h-.3l-.2.1-.1.1-.5-.1-.05.05-.05.05-.1.1-.1.4-.5.05-.4-.3-.6.2-.05-.05h-.05l-.05-.1-.9-1.1-.15-.6-.35-.1H.85l-.2-.3-.05-.1Q-.3 4.75.05 3.5l-2.5-.4h-.4l.8-.45-.15-.05v-.05l.35-.15.05-.2-.15-.2-.1-.2.4.15V1.9l.1.05 1.2.3 1.3-.05.55.05q.3-.2.6-.25l.2-.05.25-.35.45-.5.5-.2h.05L3.3.75l-.15.1V.8q-.8.5-1.95.6l-.6-.05-.15-.05-1.7.2-.2-.3-.05-.05 1.15-1.6L-1-1.1l-.05-.15-.1-.15v-.1l-.35-.05.35.05v.1l.1.15.05.15.05.3v.1l.05.1.15.15v.1l-.1.15-.35.05h-.05L-1.6.5l-.35.3-.15.2h-.15l-.45.05-.3-.3v-.3l-.05-.2-.1-.1V.1l-.2.15h-.1l.3-1.05v-.1l.2-.35.45-.4 1 .1-.75-.65-1.15-.2h-.05l-.3-.15-.1-.15v-.05l.1-.25.15-.1-.1-.05v-.2l-.05-.1.15-.15.3-.15h.8M3.85-.4l-.05.25-.05.1V.1l.05.1-.65.6.65-.6-.05-.1v-.15l.05-.1.05-.25m-5.3-.65V-1h.1l-.15-.1.05.05m-12.95 11.2v.05q.9 0 1.65.4l.7.05.9.15 1.2.1 1-.15 2.6-.7.9-.3.5-.05.3.45h-.1q.15.05.15.2h.05v.05l-.1.05h.1l.1.25-.3.1-.1.1-.05.1v.05l-.05.05-.75.1h-.05l-.1-.1h-.2l.3.1-2.15.1.7.1h-3.7l-.3-.15.05-.05h.05l-.7-.1-2.4-.2-.45-.25-.05-.05-.3-.25h-.05l.1-.2h.2v-.05l.35.05" fill="#f9c" fill-rule="evenodd" transform="translate(15.7 6.65)"/><path d="M0 11.9v-.2l.05-.05.1.15.1.05-.25.05" fill="#ff59ac" fill-rule="evenodd" transform="translate(15.7 6.65)"/><path d="m2 2.6.1.65V2.6H2m.4.9h-.05l.3 2-.2-1.6-.05-.4" fill="#804" fill-rule="evenodd" transform="translate(15.7 6.65)"/><path d="M-3.45-2.4h.05l1.15.2.75.65-1-.1-.45.4-.2.35v.1l-.3 1.05h.1l.2-.15v.05l.1.1.05.2v.3Q-4.05-.3-5.8-.45l-.2.1-.1-.05 1.85-1.5H-4V-2l.15-.2h.1v-.2h.3M-1-1.1l.65.65-1.15 1.6.05.05.2.3 1.7-.2.15.05.6.05q1.15-.1 1.95-.6v.05l-.6.35-.45.8.45-.8.6-.35.15-.1.25.15H3.5l-.5.2-.45.5-.25.35-.2.05q-.3.05-.6.25L.95 2.2l-1.3.05-1.2-.3-.1-.05v.05l-.4-.15-.15-.35-.3-.1.05-.05-.25-.25.45-.05h.15l.15-.2.35-.3.35-.65h.05l.35-.05.1-.15v-.1L-.9-.6l-.05-.1v-.1L-1-1.1M-2.85 3l.65-.4.15.05-.8.45V3m.65-.45.25-.55.15.2-.05.2-.35.15m.75-3.6-.05-.05.15.1h-.1v-.05M.9 6.6l.35.1.15.6-.5-.7m6.2-.75L5.4 1 5 .85 4.85.7 4.7.5 4.45.4q-.2-.1-.1-.4l-.1-.05Q5-.2 5.4.75q1.15 2.4 1.7 5.1m-7.5 3.1.1.25-.05.05-.05-.3m-9.95-4.05h-.1l1.1.75-.85.75-.7 1 .75.2h.1l.4-.5.3-.1.8-.85.15.1.05-.1.1-.05v-.15h.05v-.1l-.25-.3h-.2l-.05-.15-.15.15V5.5l-.15.05q-.65-.45-1.35-.65m-3.85 6 2.4.2.7.1h-.05l-.05.05.3.15h3.7l-.7-.1 2.15-.1-.3-.1h.2l.1.1h.05l.75-.1.05-.05V11l.05-.1.5.15-.45.2-.15.15.05.1.15.1h-.15l-8.75-.2-.25.15v.15l.05.2-.1-.2-.2-.7-.05-.1M2.4 3.5l.05.4.2 1.6-.3-2h.05M2 2.6h.1v.65L2 2.6" fill="#006" fill-rule="evenodd" transform="translate(15.7 6.65)"/><path d="M-5.65 2.2h.5l.1.1q.9.7 2 1v-.1l.05-.1.15-.1v.1h.4l2.5.4Q-.3 4.75.6 6.2L-.45 4.6l-.2-.1-.05.1-.15-.15V4.4l-.1-.05H-1l-.15.05h-.1l-.7.6-.15.1-.1.1-.15.15-.2.3-.1.15v.15L-1.3 8.1l-.85.75h.4q-.1.55.7 1h.2l.25-.1V9.7l.3-.3-.05-.15.05-.05.15.2v-.1l.05.15v.1l.25.05.35-.3.55-.05.05.05.65-.05-.05-.1.05-.25.35-.25h.2l.05-.1V8.5h.05l.05.05.6-.2.4.3.5-.05.1-.4.1-.1.05-.05.05-.05.5.1.1-.1.2-.1h.3l-2.1 1.35L1.5 10l-.05-.1-.05-.1-.2-.05-.05-.05-.2.2-.1-.1q-.25-.05-.3.2v.05l-.25-.2-.05.2v.1h-.1l-.1.05-.05.15h-.05l-.2.05H-.3l-.25-.05-.3.25-.4.1-2.1.5h-.25l-.95.1.4-.2-.2-.05.2-.15.25-.1 1.35-.35.05-.1.4-.05.15-.15v-.05l.2.1.15-.05q0-.35-.3-.4l-.05-.2v-.1q-.6-1.25-1.45-2.3l-.05-.05-.25-.35H-4l-.05.15-.6.3-.5.25-.25.15-.1.05-.05-.05v.05l-.1.1h-.1l-.25.3.15.3.9 1.35-.5.05-.9.3-2.6.7-1 .15-1.2-.1-.9-.15-.7-.05q-.75-.4-1.65-.4v-.05q-.25-1.5.2-2.55l1.35-1.65 2.05-1.75.05-.05v.05l1.35.7.05-.1 1.25.55.85.45 1.1-.1q1.1-.9.15-2h.25l.2.15.35.05-.15-.2.45-.1.25-.2.15-.7-.1-.05-.6-.3-.15.05-.3-.2m1.05 8.15q0-.15-.15-.2h.1l.05.05v.15m-7.05 3q.45.05.85.25l-.05.1h.2l-.5-.5-.2.15h-.3l-.35-.05.35.05m-1.05-.05.1-.1h.05l.1.1.1-.1.35.1-.1-.15-.05-.05-.1.05q0-.1-.15-.1h-.15l-.05.05-.1.2-.05.2.05-.2m2.1.6-2-.2h-.05l-.1-.2v.25l.15.25v.05l.05.85.1.1 1.4-.1q.55-.55.45-1v-.2h-.05.05v.2m16.2-3.8-.35.1-.1.1H5.1l-.05-.1-.3.2-.05.05v.05-.05l.05-.05.3-.2.05.1h.05l.1-.1.35-.1h.1l.3.1.05.3.2.6-.05-.3-.15-.75h-.3l-.15.05m.05 2.2h.55l.05-.95v-.25.25l-.05.95h-.55v-.05H5.6l-.25.05-.1.1.4-.1m-.4.1-.1.05-.1-.05-.3-.15-.05-.35v-1.4q-.35.45-.3 1-.15.2-.15.5l.1.2h.3l.05.05.25.25h.2l.1-.05v-.05" fill="#fc0" fill-rule="evenodd" transform="translate(15.7 6.65)"/><path d="M-7 1.4h-.05v.1l-.3-.3v-.15L-7.6 1h-.05q-.1-.1-.15-.1.2-.75 1.05-1.2l.65-.1.1.05.2-.1Q-4.05-.3-3 .75l.3.3.25.25-.05.05.3.1.15.35.1.2-.25.55v.05l-.65.4-.15.1-.05.1v.1q-1.1-.3-2-1l-.1-.1h-.5q-.6-.5-1.35-.8.75.3 1.35.8l.3.2.15-.05.6.3.1.05-.15.7-.25.2-.45.1.15.2-.35-.05-.2-.15H-6l-.1-.15-.15-.1.15.1.1.15q.95 1.1-.15 2l-1.1.1-.85-.45-1.2-.6-.05.05-.05.1-1.35-.7v-.05l-.05-.05h-.05l-.1-.1.05-.25.05-.05.05-.1h.05l.1-.1.4-.8.6-.2.3.05h.1l.1.1h.05q1.55 0 2.85.8l.15-.3.4-.55-1.05-.85-.3-.3.05-.05M.6 6.2l.05.1.2.3H.9l.5.7.9 1.1.05.1v.05l-.25.1.25-.1-.05.1h-.2l-.35.25-.05.25.05.1-.65.05-.05-.05-.55.05-.35.3-.25-.05v-.1l-.05-.15v.1l-.15-.2-.1-.25-.9-.85.9.85.05.3.05.15-.3.3v.05l-.25.1h-.2q-.8-.45-.7-1h-.4l.85-.75-1.35-2.15V5.8l.1-.15.2-.3.15-.15.1-.1.15-.1.7-.6h.1l.15-.05h.05l.1.05v.05l.15.15.05-.1.2.1L.6 6.2m-5.55 3.5-.9-1.35-.15-.3.25-.3h.1l.1-.1V7.6l.05.05.1-.05.25-.15.5-.25.6-.3.05-.15h.3l.25.35.05.05q.85 1.05 1.45 2.3v.1l.05.2q.3.05.3.4l-.15.05-.2-.1v.05l-.15.15-.4.05-.05.1-1.35.35-.25.1-.2.15-.5-.15.1-.1.3-.1-.1-.25h-.1l.1-.05v-.05h-.05v-.15l-.05-.05-.3-.45m-5.4-4.8q.7.2 1.35.65l.15-.05v.05l.15-.15.05.15h.2l.25.3v.1h-.05v.15l-.1.05-.05.1-.15-.1-.8.85-.3.1-.4.5h-.1l-.75-.2.7-1 .85-.75-1.1-.75h.1" fill="#009" fill-rule="evenodd" transform="translate(15.7 6.65)"/><path d="m5.7 7.65.25-.5L6.9 7l.2-.2.15-.25v.05l.3 2.05h-.1q.05-.45-.3-.7L7.1 7.5v-.2l-.05-.1-.2-.1H6.8l-.05.05-.45.25h-.15l-.45.25M1.45 9.9l.05.1-.05.05V9.9m-.8 1.75v-.05l.25-.1.25-.2v-.1l.25.1 4.5-1.75Q3.25 10.9.6 11.7l.05-.05M.6 13.9l.05-.15h.1l-.15.15m.6-1.15v-.5l-.05-.1-.05-.05-.15-.1-.05.2H.8v-.1l.3-.1q.25.3.1.75m-12.85.6h.3l.2-.15.5.5h-.2l.05-.1q-.4-.2-.85-.25M6.9 9v-.05h.05L6.9 9m-1.25 3.3-.4.1.1-.1.25-.05h.05v.05" fill="#4d88c4" fill-rule="evenodd" transform="translate(15.7 6.65)"/><path d="M2.9-3.75q-1.95-.5-5.4 0h-.8l-.3.15h-.15v.6l-.1.25v.05l.1.15v.35h-.1L-4-2v.1h-.25L-6.1-.4l-.65.1Q-7.6.15-7.8.9q.05 0 .15.1h.05l.25.05v.15l.3.3v-.1H-7l-.05.05.3.3 1.05.85-.4.55-.15.3q-1.3-.8-2.85-.8h-.05l-.1-.1h-.1l-.3-.05-.6.2-.4.8-.1.1h-.05l-.05.1-.05.05-.05.25.1.1h.05l.05.05-.05.05-2.05 1.75-1.35 1.65q-.45 1.05-.2 2.55l-.35-.05v.05h-.2l-.1.2h.05l.3.25.05.05.45.25.05.1.2.7.1.2v.35q.05.6.55.65l.1-.05 1.95.25h.05q2.1.3 4.15.05v.15l-.15.1h-.05q-.5.95.5 1.2l1.05.1.45.1q.35-.45.3-1l-2.25-.05v-.05l.2-.3.6.2.9-.25.4.1h.05v-.05l-.45-.1-.25-.1-.1-.1-.15-.05-.35.35v-.2l-.1-.1.45-.05.6-.15h.25l-.05.1v.1l.05.05 1.55-.35.55-.1.9-.25.5-.2h.15l-.65.2.65-.2h.15l.3-.3.35.15h.05l.3.05-.1.1v.05h-.6v.1l.05.1.25.1-.1.8.1.35 1.2.2.15-.05.15-.15.3-.1.15-.9q.15-.45-.1-.75l-.3.1-.15-.1-.05-.05-.15.15-.1.05-.3-.2L0 12v-.1l.25-.05-.1-.05-.1-.15.1.05H.6q2.65-.8 5.3-2.15l1-.45V9l.05-.05.5-.1v-.2h.1l-.3-2.05v-.05l-.15-.7q-.55-2.7-1.7-5.1Q5-.2 4.25-.05L4.1-.2l.05-.3v-.1q.2-.8.05-1.65l-.05-.15v-.95L3.8-3.5l-.35-.6h-.2l-.05.05-.3.3m-11 9.1-1.25-.55.05-.05 1.2.6m6.85 5.35.4-.1-.1.1h-.3m1-.3.2-.05H0v.25h-.05l-.05.1-.05.05H-.3l.15-.05-.1-.3m-6.5-8.65-.3-.25.3.25m-2.5.8L-7.6 1.1V1v.1l-1.65 1.45M-10.8 3.6l.15-.1-.15.1m0 .6-.05-.1.05.1m10.1 7.9-.65.15.65-.15m-4.35 1.35h.1l.15.2-.15.1v.05-.05l.15-.1-.15-.2h-.1M.5 11.7l-.25.15.25-.15" fill="#69c" fill-rule="evenodd" transform="translate(15.7 6.65)"/><path d="M4.05-4.05q-3.9-.55-7.6 0" fill="none" stroke="#009" stroke-linecap="round" stroke-linejoin="round" transform="translate(15.7 6.65)"/><path d="m3.45-5.7-1.2-.15h-.1l-.1.05-.05.05-.65.05-.1-.05-.1.05H1.1q-.25 1.15 0 2.3v.8q-.15 2.55.1 5.1V3Q.6 4.7.65 6.55l-1.7-1.9q-.2.35.15.9l.55.75L.8 7.8q.1 1.5.6 2.95l.65.35.4.15.15-.15.35-.1.05-.1.05-.15q1.45-.15 2.6-.95l-.05.1v.1l-.45.2-.1.3-.7.4-.3-.1-.15.3.05.2.15.1.9-.15.1.6.15.3.1.35.05.05h.3l.05-.3.1-.05.15-.3.3.2-.1-1.7v-.35L6.15 10l-.1-.1-.1-.3.8-.5h.15l.2-.25-.15-1.8Q6.5 3.85 5.05 1l-.3-.15-.6-1.2-.2-2.2.1-.55.1-.1v-2.3H4.1l-.65-.2m-.9 11.1v-.05h.05l.05-.05v.2l-.1-.1M1.1 12.1H.95l-1.25.15v.2l.15.1v.05l1.35-.45-.1-.05m-5.15-4.8v.2l.1.15v.05l.2.25.05.1q.6 1.4 1.75 2.25l.05-.1.15-.1v-.05h.1l.1-.05.05-.15V9.7l-.05-.1-2.4-2.45-.1.15m-4.7-4.45h.25l.35.25q1.4.7 2 2.15v.05l.05.3.3.05.05-.1h.1l.15-.2V5.2l-.3-.7q-.55-.95-1.5-1.55-.55-.35-1.25-.55l-.25.15v.25l.05.05m3.3-3.35-.1.1v.3l-.2-.1q-.25.05.05.2Q-4 1.15-3 2.85h.2q1-.25.55-.9l-.1-.2-.05-.05-.15-.1-.25-.25-.8-.8Q-4 .25-4.55.1h-.05l-.85-.6" fill="#3e001f" fill-opacity=".373" fill-rule="evenodd" transform="translate(15.7 6.65)"/><path d="M4.65-5.55-4.3-5.8l-.15.3.2 4.5q.3 2.2.4.65.15-1.55.25-.55l-.05-4.5q5.05-.3 7.45.15L3.95 0l.9.25-.2-5.5-.1-.3h.1" fill="#8080ff" fill-rule="evenodd" transform="translate(15.7 6.65)"/><path d="m-6.3-.25.3.1-1.45.85-.05.1-.05.25h-.3Q-8.05-.15-6.6-.2l.3-.05m5.2 4.55q.25.3-.35.7l-.55.55-.25.3.05.05.85 1.25.1.1 1.8 2.1-.15.2H.35q-1.5-1.3-2.7-2.95l-.25-.65h-.05l-.05-.15q.6-1 1.55-1.5h.05m-8.8-.8q-.35.35-.25.85l-.2.05-.2-.15q0-1.15 1-1.65.15.35-.35.9m4 4.15.2.2q.75-.45 1.65-.8-.65.7-1.55 1 .85 1.25 1.45 2.7v.05l-.25-.05-.05-.05-.65-1.4.15.6v.05l-.2-.2-.25-.15q-.2-.85-.55-1.5h-.1l.1-.05-.1-.2H-6l.1.15.05-.05-.1-.25.05-.05m-5-1.95-.9.6-.15-.1.1-.05 1.2-1.2h.05q.1.3-.3.75m-1.7.9q.25.45-.2.9.35.15.45.45.3.2.05.9l-.3.3h-.95l-.05.7-.05.35-.05.05v.35q-.15.2-.3 0v-.4l-.4-.1q-.35-1.35.2-2.35l.05-.05v-.05l.45-.6.1-.15h.2l.2-.3.1-.05.2-.05v.05l.25.05v.1l.05-.1m-.7 5.05L-13 13v.05l-.35.15-.3-1.85.05-.05.1.15v.05l.2.15m1.5.05.05 1v.05q-.4-.35-.1-1.05h.05M2.85 1.5l.15.2v.05q-.3 2.35.6 4.65l.5 1.1-.3.3q-.55-.65-.7-1.55l-.45-1.5q-.55-1.8.2-3.25" fill="#fde" fill-rule="evenodd" transform="translate(15.7 6.65)"/><path d="M-4.95-.75h-.2V-.8l.2.05-.2-.05 1.25-1.15q2.45.3 2.65 1.6L-2.1 1l-.05-.1q-1.4-1.1-2.8-1.65M7.7 5.7Q7.1 2.9 5.95.5q-.7-1.7-2.05-1-.7.3-1.65 1.55-1.9.55-3.6.05l1.2-1.5q-1.6-2-3.6-2.1h-.45l-.35.1L-6.4-.8Q-7.85-.5-8.15.7l-.05.1-1.4 1.3-.05.1q-.95.3-1.4.7l-.35.85V4l-1.75 1.4-.1.15-1.45 1.65-.05.15q-.6 1.35-.1 3.35l.1.4.05.1.75 1.9h.05l.3.1Q-2.35 15 7.85 9.15l.2-.2-.2-2.45-.05-.2-.1-.6M-5.95 3.3q-1-.65-2.15-.95l.65-.6.3.15q1.3.4 2.35 1.1l-.75.55-.4-.25m-4.55 1.65q1.1.35 2.05.85h.05l-1.8 1.8-2.1-1.3 1.65-1.4.15.05" fill="#000051" fill-rule="evenodd" transform="translate(15.7 6.65)"/><path d="m-1.9 10.1-2.3.6-.7-1.2h-.05l-.85-1.4 1.9-1.25 2 3.25" fill="#d18903" fill-rule="evenodd" transform="translate(15.7 6.65)"/><path d="M-1.65 2.25q1.9.4 3.6.05Q1.85 5 3.5 8.1l-.35.2H3l-.3.2v-.15l-.05.05L-.75 4l-.3-.2-2.2 1.8.15.2 2.55 3.75h-.1l-.5.15-.05.05-2.45-3.55-.25-.2-2.75 1.95.05.1 1.8 2.85h.05l-.5.1-7.9-.2-.7-.1q-.7-2-.05-2.95l1-1.2 2.6 1.7 2.65-2.05.1-.05 1.9-.3q.55-.35.6-1.1l.1-.15 1.5-1 .4-.1q1.1-.4 1.4-1.25m5.55 5.7q-1.75-3-1.35-5.9L4.4.55q.3-.05.45.45Q6 3.45 6.65 6.4l-.05-.1-1.2.8-.05.05H5.3L3.9 8v-.05M-2.35 2.4q0 .5-1.25.6Q-5.2 1.9-7.55.9q.25-1.05 1.4-1.1Q-4.45 0-3.4 1l1.05.9v.5M0 9.3l-2.55-3.5L-1 4.45l3.35 4.2-.05.05-.15-.05-1.5.6-.6.2V9.4L0 9.3m-5.95-6 .4.25-.1.05-.3-.3m-1.5 2.25-3.3-1.4h-.05Q-10.55 3-9.3 2.9q2-.1 3.5 1.5.15.65-.05.95l-1.6.2m12.3 3v.05l-.05.1 2.1-1.1-.1.05.25 1.25q-9.7 4.8-20.35 3.95l-.45-1.2q5.5.35 9.75-.15h.15l2.35-.5.3-.05 1.8-.5 2.15-.7L4.2 9l-.1-.05h.05L4.2 9l.6-.3.05-.15" fill="#9ebede" fill-rule="evenodd" transform="translate(15.7 6.65)"/><path d="m-7.85 14.55-.2-.25.15.2.05.05" fill="#d18903" fill-rule="evenodd" transform="translate(15.7 6.65)"/><path d="m-4.5 14.7.05-1.5-.7.15.05 1.05-1.05.3-1-.4.1-1h-.7v1.4q.85.7 1.6.75.9.1 1.6-.65l.05-.1m-6.3-1.5v1.45l-1.75-.05v-1.55l-.65-.15v2l.15.05q1.1 1.25 2.75.2l.15-.25.15-.25V13.3l-.8-.1m12.45-1.7-.55.2-.15 1.65q-.7.7-1.6.25l-.05-1.4-.6.3.05 1.6-.05.1.25.2q1.05.4 2.4-.35l.1-.1.1-.2.2-2.35-.1.1m2.8-1.15-.6.4v1.55l.2.25q1.1 1.1 2.6-.25l.1-.05.1-.25v-.7L6.8 9.7v-.1l-.25-.35H6.5l-.55.3.25 2.25q-.95.8-1.8.2l.05-1.65" fill="#9ebede" fill-rule="evenodd" transform="translate(15.7 6.65)"/></g></defs></svg>