<?xml version="1.0" encoding="UTF-8" standalone="no"?>
<svg xmlns:xlink="http://www.w3.org/1999/xlink" height="38.3px" width="36.05px" xmlns="http://www.w3.org/2000/svg">
  <g transform="matrix(1.0, 0.0, 0.0, 1.0, 23.8, 14.85)">
    <use height="22.75" transform="matrix(1.0, 0.0, 0.0, 1.0, -15.7, -6.65)" width="24.45" xlink:href="#shape0"/>
  </g>
  <defs>
    <g id="shape0" transform="matrix(1.0, 0.0, 0.0, 1.0, 15.7, 6.65)">
      <path d="M4.2 -0.65 L5.15 0.9 7.1 5.85 7.2 6.3 7.35 6.6 7.45 8.7 6.25 9.5 6.25 11.5 Q6.2 12.45 5.25 12.45 4.05 12.45 4.35 11.1 L4.35 10.8 Q2.85 10.15 1.5 11.4 L1.2 11.6 0.95 13.6 -0.65 13.95 -0.85 12.55 Q-1.8 11.7 -3.15 12.4 L-4.5 12.85 -4.9 13.05 -5.1 14.5 -5.55 14.85 Q-6.45 15.1 -7.15 14.4 L-7.3 13.2 Q-8.8 12.6 -10.45 13.2 L-10.65 14.65 -12.25 14.95 -12.6 13.3 Q-12.75 12.5 -13.5 12.7 -13.6 11.25 -14.55 10.6 -14.2 10.2 -14.25 9.45 -14.35 8.55 -13.95 7.75 L-12.85 5.95 -12.75 5.9 Q-12.05 5.05 -10.85 4.3 L-10.8 3.55 -9.4 2.3 -7.6 0.7 -7.45 0.45 Q-5.65 -0.4 -4.2 -1.9 -3.85 -2.1 -3.85 -2.5 L-3.85 -5.25 Q0.15 -6.0 4.05 -5.15 L4.2 -0.65 M0.75 -6.65 L-4.45 -6.4 -4.75 -6.2 -4.85 -5.5 -4.95 -2.85 Q-6.35 -1.5 -7.85 -0.4 L-8.75 0.4 Q-9.85 1.65 -11.4 2.6 L-12.0 3.7 Q-14.05 5.0 -15.15 6.85 L-15.3 7.1 Q-15.95 8.55 -15.55 10.3 -15.1 12.1 -14.25 13.5 L-14.15 13.7 -13.8 14.9 -13.8 15.15 -12.7 16.1 -10.55 16.05 Q-10.0 15.85 -9.7 15.2 L-9.4 14.65 -8.35 14.7 Q-8.1 15.5 -7.2 15.85 -6.05 16.35 -5.2 15.85 L-4.05 15.15 -3.9 13.95 -1.9 13.8 -1.75 14.5 -1.3 14.85 0.85 14.95 1.75 14.5 1.85 14.35 2.1 13.8 2.25 12.45 3.25 12.1 Q3.25 12.75 3.55 13.05 4.4 13.9 5.6 13.65 7.65 13.1 7.5 11.3 L7.4 10.1 8.6 9.25 Q8.9 8.0 8.6 6.5 8.0 3.45 6.35 0.3 L5.35 -1.1 5.15 -5.45 5.05 -5.7 Q4.7 -5.9 4.85 -6.1 L0.75 -6.65" fill="#000000" fill-rule="evenodd" stroke="none"/>
      <path d="M3.8 -5.5 L3.5 -5.55 3.25 -5.55 3.15 -5.5 3.05 -5.45 1.45 -5.75 1.35 -5.75 0.75 -5.7 0.6 -5.6 -1.55 -5.85 -2.25 -5.75 -2.4 -5.75 -2.4 -5.6 -2.4 -5.5 -3.65 -5.4 -3.75 -5.25 -3.85 -5.2 -3.85 -5.1 -3.9 -5.0 -3.85 -4.85 -3.65 -4.55 -3.6 -4.55 -3.4 -4.55 -3.3 -4.65 -1.9 -4.7 -1.5 -4.65 1.35 -4.8 1.4 -4.85 1.4 -4.95 1.45 -4.9 1.5 -4.9 4.05 -4.6 4.1 -4.65 4.25 -4.9 3.9 -5.1 3.95 -5.2 3.95 -5.3 3.95 -5.4 3.8 -5.5 M2.9 -3.75 L2.75 -3.65 2.35 -3.75 2.05 -3.7 1.95 -3.75 -1.95 -3.5 -2.5 -3.75 Q0.95 -4.25 2.9 -3.75 M-3.75 -3.45 L-3.7 -3.35 -3.7 -3.15 -3.6 -3.1 -3.75 -3.0 -3.75 -3.45 M-3.75 -2.55 L-3.45 -2.4 -3.75 -2.4 -3.75 -2.55 M3.85 -0.4 L3.9 -0.4 4.1 -0.45 4.15 -0.5 4.1 -0.2 3.85 -0.4" fill="#b5e6e6" fill-rule="evenodd" stroke="none"/>
      <path d="M-2.5 -3.75 L-1.95 -3.5 1.95 -3.75 2.05 -3.7 2.35 -3.75 2.75 -3.65 2.9 -3.75 3.2 -4.05 3.25 -4.1 3.3 -4.1 3.45 -4.1 3.8 -3.5 4.15 -2.45 4.15 -2.4 4.2 -2.25 Q4.35 -1.4 4.15 -0.6 L4.15 -0.5 4.1 -0.45 3.9 -0.4 3.85 -0.4 4.1 -0.2 4.25 -0.05 4.35 0.0 Q4.25 0.3 4.45 0.4 L4.7 0.5 4.85 0.7 5.0 0.85 5.4 1.0 7.1 5.85 7.25 6.55 7.1 6.8 6.9 7.0 5.95 7.15 5.7 7.65 5.35 7.9 5.7 7.65 6.15 7.4 6.3 7.4 6.75 7.15 6.8 7.1 6.85 7.1 7.05 7.2 7.1 7.3 7.1 7.35 7.1 7.5 7.15 7.95 Q7.5 8.2 7.45 8.65 L7.45 8.8 7.45 8.85 6.95 8.95 6.9 8.95 6.9 9.0 6.9 9.1 5.9 9.55 1.4 11.3 1.15 11.2 1.15 11.3 0.9 11.5 0.65 11.6 0.75 11.5 0.35 10.2 0.3 10.2 0.25 10.15 0.25 10.05 0.3 9.85 0.55 10.05 0.55 10.0 Q0.6 9.75 0.85 9.8 L0.95 9.9 1.15 9.7 1.2 9.75 1.4 9.8 1.45 9.9 1.45 10.05 1.5 10.0 3.25 9.25 5.35 7.9 5.05 7.9 4.85 8.0 4.75 8.1 4.25 8.0 4.2 8.05 4.15 8.1 4.05 8.2 3.95 8.6 3.45 8.65 3.05 8.35 2.45 8.55 2.4 8.5 2.35 8.5 2.3 8.4 1.4 7.3 1.25 6.7 0.9 6.6 0.85 6.6 0.65 6.3 0.6 6.2 Q-0.3 4.75 0.05 3.5 L-2.45 3.1 -2.7 3.1 -2.85 3.1 -2.05 2.65 -2.2 2.6 -2.2 2.55 -1.85 2.4 -1.8 2.2 -1.95 2.0 -2.05 1.8 -1.65 1.95 -1.65 1.9 -1.55 1.95 -0.35 2.25 0.95 2.2 1.5 2.25 Q1.8 2.05 2.1 2.0 L2.3 1.95 2.55 1.6 3.0 1.1 3.5 0.9 3.55 0.9 3.3 0.75 3.15 0.85 3.15 0.8 Q2.35 1.3 1.2 1.4 L0.6 1.35 0.45 1.3 -1.25 1.5 -1.45 1.2 -1.5 1.15 -0.35 -0.45 -1.0 -1.1 -1.05 -1.25 -1.15 -1.4 -1.15 -1.5 -1.5 -1.55 -1.15 -1.5 -1.15 -1.4 -1.05 -1.25 -1.0 -1.1 -0.95 -0.8 -0.95 -0.7 -0.9 -0.6 -0.75 -0.45 -0.75 -0.35 -0.85 -0.2 -1.2 -0.15 -1.25 -0.15 -1.6 0.5 -1.95 0.8 -2.1 1.0 -2.25 1.0 -2.7 1.05 -3.0 0.75 -3.0 0.6 -3.0 0.45 -3.05 0.25 -3.15 0.15 -3.15 0.1 -3.35 0.25 -3.45 0.25 -3.15 -0.8 -3.15 -0.9 -2.95 -1.25 -2.5 -1.65 -1.5 -1.55 -2.25 -2.2 -3.4 -2.4 -3.45 -2.4 -3.75 -2.55 -3.85 -2.7 -3.85 -2.75 -3.75 -3.0 -3.6 -3.1 -3.7 -3.15 -3.7 -3.35 -3.75 -3.45 -3.6 -3.6 -3.3 -3.75 -2.5 -3.75 M3.85 -0.4 L3.8 -0.15 3.75 -0.05 3.75 0.1 3.8 0.2 3.15 0.8 3.8 0.2 3.75 0.1 3.75 -0.05 3.8 -0.15 3.85 -0.4 M-1.45 -1.05 L-1.45 -1.0 -1.35 -1.0 -1.5 -1.1 -1.45 -1.05 M-14.4 10.15 L-14.4 10.2 Q-13.5 10.2 -12.75 10.6 L-12.05 10.65 -11.15 10.8 -9.95 10.9 -8.95 10.75 -6.35 10.05 -5.45 9.75 -4.95 9.7 -4.65 10.15 -4.75 10.15 Q-4.6 10.2 -4.6 10.35 L-4.55 10.35 -4.55 10.4 -4.65 10.45 -4.55 10.45 -4.45 10.7 -4.75 10.8 -4.85 10.9 -4.9 11.0 -4.9 11.05 -4.95 11.1 -5.7 11.2 -5.75 11.2 -5.85 11.1 -6.05 11.1 -5.75 11.2 -7.9 11.3 -7.2 11.4 -10.9 11.4 -11.2 11.25 -11.15 11.2 -11.1 11.2 -11.8 11.1 -14.2 10.9 -14.65 10.65 -14.7 10.6 -15.0 10.35 -15.05 10.35 -14.95 10.15 -14.85 10.15 -14.75 10.15 -14.75 10.1 -14.4 10.15" fill="#ff99cc" fill-rule="evenodd" stroke="none"/>
      <path d="M0.0 11.9 L0.0 11.7 0.05 11.65 0.15 11.8 0.25 11.85 0.0 11.9" fill="#ff59ac" fill-rule="evenodd" stroke="none"/>
      <path d="M2.0 2.6 L2.1 3.25 2.1 2.6 2.0 2.6 M2.4 3.5 L2.35 3.5 2.65 5.5 2.45 3.9 2.4 3.5" fill="#880044" fill-rule="evenodd" stroke="none"/>
      <path d="M-3.45 -2.4 L-3.4 -2.4 -2.25 -2.2 -1.5 -1.55 -2.5 -1.65 -2.95 -1.25 -3.15 -0.9 -3.15 -0.8 -3.45 0.25 -3.35 0.25 -3.15 0.1 -3.15 0.15 -3.05 0.25 -3.0 0.45 -3.0 0.6 -3.0 0.75 Q-4.05 -0.3 -5.8 -0.45 L-6.0 -0.35 -6.1 -0.4 -4.25 -1.9 -4.0 -1.9 -4.0 -2.0 -3.85 -2.2 -3.75 -2.2 -3.75 -2.4 -3.45 -2.4 M-1.0 -1.1 L-0.35 -0.45 -1.5 1.15 -1.45 1.2 -1.25 1.5 0.45 1.3 0.6 1.35 1.2 1.4 Q2.35 1.3 3.15 0.8 L3.15 0.85 2.55 1.2 2.1 2.0 2.55 1.2 3.15 0.85 3.3 0.75 3.55 0.9 3.5 0.9 3.0 1.1 2.55 1.6 2.3 1.95 2.1 2.0 Q1.8 2.05 1.5 2.25 L0.95 2.2 -0.35 2.25 -1.55 1.95 -1.65 1.9 -1.65 1.95 -2.05 1.8 -2.2 1.45 -2.5 1.35 -2.45 1.3 -2.7 1.05 -2.25 1.0 -2.1 1.0 -1.95 0.8 -1.6 0.5 -1.25 -0.15 -1.2 -0.15 -0.85 -0.2 -0.75 -0.35 -0.75 -0.45 -0.9 -0.6 -0.95 -0.7 -0.95 -0.8 -1.0 -1.1 M-2.85 3.0 L-2.2 2.6 -2.05 2.65 -2.85 3.1 -2.85 3.0 M-2.2 2.55 L-1.95 2.0 -1.8 2.2 -1.85 2.4 -2.2 2.55 M-1.45 -1.05 L-1.5 -1.1 -1.35 -1.0 -1.45 -1.0 -1.45 -1.05 M0.9 6.6 L1.25 6.7 1.4 7.3 0.9 6.6 M7.1 5.85 L5.4 1.0 5.0 0.85 4.85 0.7 4.7 0.5 4.45 0.4 Q4.25 0.3 4.35 0.0 L4.25 -0.05 Q5.0 -0.2 5.4 0.75 6.55 3.15 7.1 5.85 M-0.4 8.95 L-0.3 9.2 -0.35 9.25 -0.4 8.95 M-10.35 4.9 L-10.45 4.9 -9.35 5.65 -10.2 6.4 -10.9 7.4 -10.15 7.6 -10.05 7.6 -9.65 7.1 -9.35 7.0 -8.55 6.15 -8.4 6.25 -8.35 6.15 -8.25 6.1 -8.25 5.95 -8.2 5.95 -8.2 5.85 -8.45 5.55 -8.55 5.55 -8.65 5.55 -8.7 5.4 -8.85 5.55 -8.85 5.5 -9.0 5.55 Q-9.65 5.1 -10.35 4.9 M-14.2 10.9 L-11.8 11.1 -11.1 11.2 -11.15 11.2 -11.2 11.25 -10.9 11.4 -7.2 11.4 -7.9 11.3 -5.75 11.2 -6.05 11.1 -5.85 11.1 -5.75 11.2 -5.7 11.2 -4.95 11.1 -4.9 11.05 -4.9 11.0 -4.85 10.9 -4.35 11.05 -4.8 11.25 -4.95 11.4 -4.9 11.5 -4.75 11.6 -4.9 11.6 -13.65 11.4 -13.9 11.55 -13.9 11.7 -13.85 11.9 -13.95 11.7 -14.15 11.0 -14.2 10.9 M2.4 3.5 L2.45 3.9 2.65 5.5 2.35 3.5 2.4 3.5 M2.0 2.6 L2.1 2.6 2.1 3.25 2.0 2.6" fill="#000066" fill-rule="evenodd" stroke="none"/>
      <path d="M-5.65 2.2 L-5.15 2.2 -5.05 2.3 Q-4.15 3.0 -3.05 3.3 L-3.05 3.2 -3.0 3.1 -2.85 3.0 -2.85 3.1 -2.7 3.1 -2.45 3.1 0.05 3.5 Q-0.3 4.75 0.6 6.2 L-0.45 4.6 -0.65 4.5 -0.7 4.6 -0.85 4.45 -0.85 4.4 -0.95 4.35 -1.0 4.35 -1.15 4.4 -1.25 4.4 -1.95 5.0 -2.1 5.1 -2.2 5.2 -2.35 5.35 -2.55 5.65 -2.65 5.8 -2.65 5.95 -1.3 8.1 -2.15 8.85 -1.75 8.85 Q-1.85 9.4 -1.05 9.85 L-0.85 9.85 -0.6 9.75 -0.6 9.7 -0.3 9.4 -0.35 9.25 -0.3 9.2 -0.15 9.4 -0.15 9.3 -0.1 9.45 -0.1 9.55 0.15 9.6 0.5 9.3 1.05 9.25 1.1 9.3 1.75 9.25 1.7 9.15 1.75 8.9 2.1 8.65 2.3 8.65 2.35 8.55 2.35 8.5 2.4 8.5 2.45 8.55 3.05 8.35 3.45 8.65 3.95 8.6 4.05 8.2 4.15 8.1 4.2 8.05 4.25 8.0 4.75 8.1 4.85 8.0 5.05 7.9 5.35 7.9 3.25 9.25 1.5 10.0 1.45 9.9 1.4 9.8 1.2 9.75 1.15 9.7 0.95 9.9 0.85 9.8 Q0.6 9.75 0.55 10.0 L0.55 10.05 0.3 9.85 0.25 10.05 0.25 10.15 0.15 10.15 0.05 10.2 0.0 10.35 -0.05 10.35 -0.25 10.4 -0.3 10.4 -0.55 10.35 -0.85 10.6 -1.25 10.7 -3.35 11.2 -3.6 11.2 -4.55 11.3 -4.15 11.1 -4.35 11.05 -4.15 10.9 -3.9 10.8 -2.55 10.45 -2.5 10.35 -2.1 10.3 -1.95 10.15 -1.95 10.1 -1.75 10.2 -1.6 10.15 Q-1.6 9.8 -1.9 9.75 L-1.95 9.55 -1.95 9.45 Q-2.55 8.2 -3.4 7.15 L-3.45 7.1 -3.7 6.75 -3.85 6.75 -3.9 6.75 -4.0 6.75 -4.05 6.9 -4.65 7.2 -5.15 7.45 -5.4 7.6 -5.5 7.65 -5.55 7.6 -5.55 7.65 -5.65 7.75 -5.75 7.75 -6.0 8.05 -5.85 8.35 -4.95 9.7 -5.45 9.75 -6.35 10.05 -8.95 10.75 -9.95 10.9 -11.15 10.8 -12.05 10.65 -12.75 10.6 Q-13.5 10.2 -14.4 10.2 L-14.4 10.15 Q-14.65 8.65 -14.2 7.6 L-12.85 5.95 -10.8 4.2 -10.75 4.15 -10.75 4.2 -9.4 4.9 -9.35 4.8 -8.1 5.35 -7.25 5.8 -6.15 5.7 Q-5.05 4.8 -6.0 3.7 L-5.75 3.7 -5.55 3.85 -5.2 3.9 -5.35 3.7 -4.9 3.6 -4.65 3.4 -4.5 2.7 -4.6 2.65 -5.2 2.35 -5.35 2.4 -5.65 2.2 M-4.6 10.35 Q-4.6 10.2 -4.75 10.15 L-4.65 10.15 -4.6 10.2 -4.6 10.35 M-11.65 13.35 Q-11.2 13.4 -10.8 13.6 L-10.85 13.7 -10.65 13.7 -11.15 13.2 -11.35 13.35 -11.65 13.35 -12.0 13.3 -11.65 13.35 M-12.7 13.3 L-12.6 13.2 -12.55 13.2 -12.45 13.3 -12.35 13.2 -12.0 13.3 -12.1 13.15 -12.15 13.1 -12.25 13.15 Q-12.25 13.05 -12.4 13.05 L-12.55 13.05 -12.6 13.1 -12.7 13.3 -12.75 13.5 -12.7 13.3 M-10.6 13.9 L-12.6 13.7 -12.65 13.7 -12.75 13.5 -12.75 13.65 -12.75 13.75 -12.6 14.0 -12.6 14.05 -12.55 14.9 -12.45 15.0 -11.05 14.9 Q-10.5 14.35 -10.6 13.9 L-10.6 13.7 -10.65 13.7 -10.6 13.7 -10.6 13.9 M5.6 10.1 L5.25 10.2 5.15 10.3 5.1 10.3 5.05 10.2 4.75 10.4 4.7 10.45 4.7 10.5 4.7 10.45 4.75 10.4 5.05 10.2 5.1 10.3 5.15 10.3 5.25 10.2 5.6 10.1 5.7 10.1 6.0 10.2 6.05 10.5 6.25 11.1 6.2 10.8 6.05 10.05 5.9 10.05 5.85 10.05 5.75 10.05 5.6 10.1 M5.65 12.3 L6.2 12.3 6.25 11.35 6.25 11.1 6.25 11.35 6.2 12.3 5.65 12.3 5.65 12.25 5.6 12.25 5.35 12.3 5.25 12.4 5.65 12.3 M5.25 12.4 L5.15 12.45 5.05 12.4 4.75 12.25 4.7 11.9 4.7 10.5 Q4.35 10.95 4.4 11.5 4.25 11.7 4.25 12.0 L4.35 12.2 4.45 12.2 4.65 12.2 4.7 12.25 4.95 12.5 5.15 12.5 5.25 12.45 5.25 12.4" fill="#ffcc00" fill-rule="evenodd" stroke="none"/>
      <path d="M-7.0 1.4 L-7.05 1.4 -7.05 1.45 -7.05 1.5 -7.35 1.2 -7.35 1.05 -7.6 1.0 -7.65 1.0 Q-7.75 0.9 -7.8 0.9 -7.6 0.15 -6.75 -0.3 L-6.1 -0.4 -6.0 -0.35 -5.8 -0.45 Q-4.05 -0.3 -3.0 0.75 L-2.7 1.05 -2.45 1.3 -2.5 1.35 -2.2 1.45 -2.05 1.8 -1.95 2.0 -2.2 2.55 -2.2 2.6 -2.85 3.0 -3.0 3.1 -3.05 3.2 -3.05 3.3 Q-4.15 3.0 -5.05 2.3 L-5.15 2.2 -5.65 2.2 Q-6.25 1.7 -7.0 1.4 -6.25 1.7 -5.65 2.2 L-5.35 2.4 -5.2 2.35 -4.6 2.65 -4.5 2.7 -4.65 3.4 -4.9 3.6 -5.35 3.7 -5.2 3.9 -5.55 3.85 -5.75 3.7 -6.0 3.7 -6.1 3.55 -6.25 3.45 -6.1 3.55 -6.0 3.7 Q-5.05 4.8 -6.15 5.7 L-7.25 5.8 -8.1 5.35 -9.3 4.75 -9.35 4.8 -9.4 4.9 -10.75 4.2 -10.75 4.15 -10.8 4.1 -10.85 4.1 -10.95 4.0 -10.9 3.75 -10.85 3.7 -10.8 3.6 -10.75 3.6 -10.65 3.5 -10.25 2.7 -9.65 2.5 -9.35 2.55 -9.25 2.55 -9.15 2.65 -9.1 2.65 Q-7.55 2.65 -6.25 3.45 L-6.1 3.15 -5.7 2.6 -6.75 1.75 -7.05 1.45 -7.0 1.4 M0.6 6.2 L0.65 6.3 0.85 6.6 0.9 6.6 1.4 7.3 2.3 8.4 2.35 8.5 2.35 8.55 2.1 8.65 2.35 8.55 2.3 8.65 2.1 8.65 1.75 8.9 1.7 9.15 1.75 9.25 1.1 9.3 1.05 9.25 0.5 9.3 0.15 9.6 -0.1 9.55 -0.1 9.45 -0.15 9.3 -0.15 9.4 -0.3 9.2 -0.4 8.95 -1.3 8.1 -0.4 8.95 -0.35 9.25 -0.3 9.4 -0.6 9.7 -0.6 9.75 -0.85 9.85 -1.05 9.85 Q-1.85 9.4 -1.75 8.85 L-2.15 8.85 -1.3 8.1 -2.65 5.95 -2.65 5.8 -2.55 5.65 -2.35 5.35 -2.2 5.2 -2.1 5.1 -1.95 5.0 -1.25 4.4 -1.15 4.4 -1.0 4.35 -0.95 4.35 -0.85 4.4 -0.85 4.45 -0.7 4.6 -0.65 4.5 -0.45 4.6 0.6 6.2 M-4.95 9.7 L-5.85 8.35 -6.0 8.05 -5.75 7.75 -5.65 7.75 -5.55 7.65 -5.55 7.6 -5.5 7.65 -5.4 7.6 -5.15 7.45 -4.65 7.2 -4.05 6.9 -4.0 6.75 -3.9 6.75 -3.85 6.75 -3.7 6.75 -3.45 7.1 -3.4 7.15 Q-2.55 8.2 -1.95 9.45 L-1.95 9.55 -1.9 9.75 Q-1.6 9.8 -1.6 10.15 L-1.75 10.2 -1.95 10.1 -1.95 10.15 -2.1 10.3 -2.5 10.35 -2.55 10.45 -3.9 10.8 -4.15 10.9 -4.35 11.05 -4.85 10.9 -4.75 10.8 -4.45 10.7 -4.55 10.45 -4.65 10.45 -4.55 10.4 -4.55 10.35 -4.6 10.35 -4.6 10.2 -4.65 10.15 -4.95 9.7 M-10.35 4.9 Q-9.65 5.1 -9.0 5.55 L-8.85 5.5 -8.85 5.55 -8.7 5.4 -8.65 5.55 -8.55 5.55 -8.45 5.55 -8.2 5.85 -8.2 5.95 -8.25 5.95 -8.25 6.1 -8.35 6.15 -8.4 6.25 -8.55 6.15 -9.35 7.0 -9.65 7.1 -10.05 7.6 -10.15 7.6 -10.9 7.4 -10.2 6.4 -9.35 5.65 -10.45 4.9 -10.35 4.9" fill="#000099" fill-rule="evenodd" stroke="none"/>
      <path d="M5.7 7.65 L5.95 7.15 6.9 7.0 7.1 6.8 7.25 6.55 7.25 6.6 7.55 8.65 7.45 8.65 Q7.5 8.2 7.15 7.95 L7.1 7.5 7.1 7.35 7.1 7.3 7.05 7.2 6.85 7.1 6.8 7.1 6.75 7.15 6.3 7.4 6.15 7.4 5.7 7.65 M1.45 9.9 L1.5 10.0 1.45 10.05 1.45 9.9 M0.65 11.65 L0.65 11.6 0.9 11.5 1.15 11.3 1.15 11.2 1.4 11.3 5.9 9.55 Q3.25 10.9 0.6 11.7 L0.65 11.65 M0.6 13.9 L0.65 13.75 0.75 13.75 0.6 13.9 M1.2 12.75 L1.2 12.55 1.2 12.25 1.15 12.15 1.1 12.1 0.95 12.0 0.9 12.2 0.8 12.2 0.8 12.15 0.8 12.1 1.1 12.0 Q1.35 12.3 1.2 12.75 M-11.65 13.35 L-11.35 13.35 -11.15 13.2 -10.65 13.7 -10.85 13.7 -10.8 13.6 Q-11.2 13.4 -11.65 13.35 M6.9 9.0 L6.9 8.95 6.95 8.95 6.9 9.0 M5.65 12.3 L5.25 12.4 5.35 12.3 5.6 12.25 5.65 12.25 5.65 12.3" fill="#4d88c4" fill-rule="evenodd" stroke="none"/>
      <path d="M2.9 -3.75 Q0.95 -4.25 -2.5 -3.75 L-3.3 -3.75 -3.6 -3.6 -3.75 -3.6 -3.75 -3.45 -3.75 -3.0 -3.85 -2.75 -3.85 -2.7 -3.75 -2.55 -3.75 -2.4 -3.75 -2.2 -3.85 -2.2 -4.0 -2.0 -4.0 -1.9 -4.25 -1.9 -6.1 -0.4 -6.75 -0.3 Q-7.6 0.15 -7.8 0.9 -7.75 0.9 -7.65 1.0 L-7.6 1.0 -7.35 1.05 -7.35 1.2 -7.05 1.5 -7.05 1.45 -7.05 1.4 -7.0 1.4 -7.05 1.45 -6.75 1.75 -5.7 2.6 -6.1 3.15 -6.25 3.45 Q-7.55 2.65 -9.1 2.65 L-9.15 2.65 -9.25 2.55 -9.35 2.55 -9.65 2.5 -10.25 2.7 -10.65 3.5 -10.75 3.6 -10.8 3.6 -10.85 3.7 -10.9 3.75 -10.95 4.0 -10.85 4.1 -10.8 4.1 -10.75 4.15 -10.8 4.2 -12.85 5.95 -14.2 7.6 Q-14.65 8.65 -14.4 10.15 L-14.75 10.1 -14.75 10.15 -14.85 10.15 -14.95 10.15 -15.05 10.35 -15.0 10.35 -14.7 10.6 -14.65 10.65 -14.2 10.9 -14.15 11.0 -13.95 11.7 -13.85 11.9 -13.85 11.95 -13.85 12.25 Q-13.8 12.85 -13.3 12.9 L-13.2 12.85 -11.25 13.1 -11.2 13.1 Q-9.1 13.4 -7.05 13.15 L-7.05 13.3 -7.2 13.4 -7.25 13.4 Q-7.75 14.35 -6.75 14.6 L-5.7 14.7 -5.25 14.8 Q-4.9 14.35 -4.95 13.8 L-7.2 13.75 -7.2 13.7 -7.0 13.4 -6.4 13.6 -5.5 13.35 -5.1 13.45 -5.05 13.45 -5.05 13.4 -5.5 13.3 -5.75 13.2 -5.85 13.1 -6.0 13.05 -6.35 13.4 -6.35 13.2 -6.45 13.1 -6.0 13.05 -5.4 12.9 -5.15 12.9 -5.2 13.0 -5.2 13.1 -5.15 13.15 -3.6 12.8 -3.05 12.7 -2.15 12.45 -1.65 12.25 -1.5 12.25 -2.15 12.45 -1.5 12.25 -1.35 12.25 -1.05 11.95 -0.7 12.1 -0.65 12.1 -0.35 12.15 -0.45 12.25 -0.45 12.3 -1.0 12.3 -1.05 12.3 -1.05 12.4 -1.0 12.5 -0.75 12.6 -0.85 13.4 -0.75 13.75 0.45 13.95 0.6 13.9 0.75 13.75 1.05 13.65 1.2 12.75 Q1.35 12.3 1.1 12.0 L0.8 12.1 0.65 12.0 0.6 11.95 0.45 12.1 0.35 12.15 0.05 11.95 0.0 12.0 0.0 11.9 0.25 11.85 0.15 11.8 0.05 11.65 0.15 11.7 0.3 11.7 0.45 11.7 0.5 11.7 0.6 11.7 Q3.25 10.9 5.9 9.55 L6.9 9.1 6.9 9.0 6.95 8.95 7.45 8.85 7.45 8.8 7.45 8.65 7.55 8.65 7.25 6.6 7.25 6.55 7.1 5.85 Q6.55 3.15 5.4 0.75 5.0 -0.2 4.25 -0.05 L4.1 -0.2 4.15 -0.5 4.15 -0.6 Q4.35 -1.4 4.2 -2.25 L4.15 -2.4 4.15 -2.45 4.15 -3.35 3.8 -3.5 3.45 -4.1 3.3 -4.1 3.25 -4.1 3.2 -4.05 2.9 -3.75 M-8.1 5.35 L-9.35 4.8 -9.3 4.75 -8.1 5.35 M-1.25 10.7 L-0.85 10.6 -0.95 10.7 -1.25 10.7 M-0.25 10.4 L-0.05 10.35 0.0 10.35 0.0 10.6 -0.05 10.6 -0.1 10.7 -0.15 10.75 -0.3 10.75 -0.15 10.7 -0.25 10.4 M-6.75 1.75 L-7.05 1.5 -6.75 1.75 M-9.25 2.55 L-7.6 1.1 -7.6 1.0 -7.6 1.1 -9.25 2.55 M-10.8 3.6 L-10.65 3.5 -10.8 3.6 M-10.8 4.2 L-10.85 4.1 -10.8 4.2 M-0.7 12.1 L-1.35 12.25 -0.7 12.1 M-5.05 13.45 L-4.95 13.45 -4.8 13.65 -4.95 13.75 -4.95 13.8 -4.95 13.75 -4.8 13.65 -4.95 13.45 -5.05 13.45 M0.5 11.7 L0.25 11.85 0.5 11.7" fill="#6699cc" fill-rule="evenodd" stroke="none"/>
      <path d="M4.05 -4.05 Q0.15 -4.6 -3.55 -4.05" fill="none" stroke="#000099" stroke-linecap="round" stroke-linejoin="round" stroke-width="1.0"/>
      <path d="M3.45 -5.7 L2.25 -5.85 2.15 -5.85 2.05 -5.8 2.0 -5.75 1.35 -5.7 1.25 -5.75 1.15 -5.7 1.1 -5.7 Q0.85 -4.55 1.1 -3.4 L1.1 -2.6 Q0.95 -0.05 1.2 2.5 L1.2 2.85 1.2 3.0 Q0.6 4.7 0.65 6.55 L-1.05 4.65 Q-1.25 5.0 -0.9 5.55 L-0.35 6.3 0.8 7.8 Q0.9 9.3 1.4 10.75 L2.05 11.1 2.45 11.25 2.6 11.1 2.95 11.0 3.0 10.9 3.05 10.75 Q4.5 10.6 5.65 9.8 L5.6 9.9 5.6 10.0 5.15 10.2 5.05 10.5 4.35 10.9 4.05 10.8 3.9 11.1 3.95 11.3 4.1 11.4 5.0 11.25 5.1 11.85 5.25 12.15 5.35 12.5 5.4 12.55 5.7 12.55 5.75 12.25 5.85 12.2 6.0 11.9 6.3 12.1 6.2 10.4 6.2 10.05 6.15 10.0 6.05 9.9 5.95 9.6 6.75 9.1 6.9 9.1 7.1 8.85 6.95 7.05 Q6.5 3.85 5.05 1.0 L4.75 0.85 4.15 -0.35 3.95 -2.55 4.05 -3.1 4.15 -3.2 4.15 -5.5 4.1 -5.5 3.45 -5.7 M2.55 5.4 L2.55 5.35 2.6 5.35 2.65 5.3 2.65 5.5 2.55 5.4 M1.1 12.1 L0.95 12.1 -0.3 12.25 -0.3 12.3 -0.3 12.45 -0.15 12.55 -0.15 12.6 1.2 12.15 1.1 12.1 M-4.05 7.3 L-4.05 7.5 -3.95 7.65 -3.95 7.7 -3.75 7.95 -3.7 8.05 Q-3.1 9.45 -1.95 10.3 L-1.9 10.2 -1.75 10.1 -1.75 10.05 -1.65 10.05 -1.55 10.0 -1.5 9.85 -1.5 9.7 -1.55 9.6 -3.95 7.15 -4.05 7.3 M-8.75 2.85 L-8.5 2.85 -8.15 3.1 Q-6.75 3.8 -6.15 5.25 L-6.15 5.3 -6.1 5.6 -5.8 5.65 -5.75 5.55 -5.65 5.55 -5.5 5.35 -5.5 5.2 -5.8 4.5 Q-6.35 3.55 -7.3 2.95 -7.85 2.6 -8.55 2.4 L-8.8 2.55 -8.8 2.8 -8.75 2.85 M-5.45 -0.5 L-5.55 -0.4 -5.55 -0.1 -5.75 -0.2 Q-6.0 -0.15 -5.7 0.0 -4.0 1.15 -3.0 2.85 L-2.8 2.85 Q-1.8 2.6 -2.25 1.95 L-2.35 1.75 -2.4 1.7 -2.55 1.6 -2.8 1.35 -3.6 0.55 Q-4.0 0.25 -4.55 0.1 L-4.6 0.1 -5.45 -0.5" fill="#3e001f" fill-opacity="0.37254903" fill-rule="evenodd" stroke="none"/>
      <path d="M4.65 -5.55 L-4.3 -5.8 -4.45 -5.5 -4.25 -1.0 Q-3.95 1.2 -3.85 -0.35 -3.7 -1.9 -3.6 -0.9 L-3.65 -5.4 Q1.4 -5.7 3.8 -5.25 L3.95 0.0 4.85 0.25 4.65 -5.25 4.55 -5.55 4.65 -5.55" fill="#8080ff" fill-rule="evenodd" stroke="none"/>
      <path d="M-6.3 -0.25 L-6.0 -0.15 -7.45 0.7 -7.5 0.8 -7.55 1.05 -7.85 1.05 Q-8.05 -0.15 -6.6 -0.2 L-6.3 -0.25 M-1.1 4.3 Q-0.85 4.6 -1.45 5.0 L-2.0 5.55 -2.25 5.85 -2.2 5.9 -1.35 7.15 -1.25 7.25 0.55 9.35 0.4 9.55 0.35 9.55 Q-1.15 8.25 -2.35 6.6 L-2.6 5.95 -2.65 5.95 -2.7 5.8 Q-2.1 4.8 -1.15 4.3 L-1.1 4.3 M-9.9 3.5 Q-10.25 3.85 -10.15 4.35 L-10.35 4.4 -10.55 4.25 Q-10.55 3.1 -9.55 2.6 -9.4 2.95 -9.9 3.5 M-5.9 7.65 L-5.7 7.85 Q-4.95 7.4 -4.05 7.05 -4.7 7.75 -5.6 8.05 -4.75 9.3 -4.15 10.75 L-4.15 10.8 -4.4 10.75 -4.45 10.7 -5.1 9.3 -4.95 9.9 -4.95 9.95 -5.15 9.75 -5.4 9.6 Q-5.6 8.75 -5.95 8.1 L-6.05 8.1 -5.95 8.05 -6.05 7.85 -6.0 7.85 -5.9 8.0 -5.85 7.95 -5.95 7.7 -5.9 7.65 M-10.9 5.7 L-11.8 6.3 -11.95 6.2 -11.85 6.15 -10.65 4.95 -10.6 4.95 Q-10.5 5.25 -10.9 5.7 M-12.6 6.6 Q-12.35 7.05 -12.8 7.5 -12.45 7.65 -12.35 7.95 -12.05 8.15 -12.3 8.85 L-12.6 9.15 -13.55 9.15 -13.6 9.85 -13.65 10.2 -13.7 10.25 -13.7 10.55 -13.7 10.6 Q-13.85 10.8 -14.0 10.6 L-14.0 10.2 -14.4 10.1 Q-14.75 8.75 -14.2 7.75 L-14.15 7.7 -14.15 7.65 -13.7 7.05 -13.6 6.9 -13.4 6.9 -13.2 6.6 -13.1 6.55 -12.9 6.5 -12.9 6.55 -12.65 6.6 -12.65 6.7 -12.6 6.6 M-13.3 11.65 L-13.0 13.0 -13.0 13.05 -13.35 13.2 -13.65 11.35 -13.6 11.3 -13.5 11.45 -13.5 11.5 -13.3 11.65 M-11.8 11.7 L-11.75 12.7 -11.75 12.75 Q-12.15 12.4 -11.85 11.7 L-11.8 11.7 M2.85 1.5 L3.0 1.7 3.0 1.75 Q2.7 4.1 3.6 6.4 L4.1 7.5 3.8 7.8 Q3.25 7.15 3.1 6.25 L2.65 4.75 Q2.1 2.95 2.85 1.5" fill="#ffddee" fill-rule="evenodd" stroke="none"/>
      <path d="M-4.95 -0.75 L-5.15 -0.75 -5.15 -0.8 -4.95 -0.75 -5.15 -0.8 -3.9 -1.95 Q-1.45 -1.65 -1.25 -0.35 L-2.1 1.0 -2.15 0.9 Q-3.55 -0.2 -4.95 -0.75 M7.7 5.7 Q7.1 2.9 5.95 0.5 5.25 -1.2 3.9 -0.5 3.2 -0.2 2.25 1.05 0.35 1.6 -1.35 1.1 L-0.15 -0.4 Q-1.75 -2.4 -3.75 -2.5 L-4.2 -2.5 -4.55 -2.4 -6.4 -0.8 Q-7.85 -0.5 -8.15 0.7 L-8.2 0.8 -9.6 2.1 -9.65 2.2 Q-10.6 2.5 -11.05 2.9 L-11.4 3.75 -11.4 4.0 -13.15 5.4 -13.25 5.55 -14.7 7.2 -14.75 7.35 Q-15.35 8.7 -14.85 10.7 L-14.75 11.1 -14.7 11.2 -13.95 13.1 -13.9 13.1 -13.6 13.2 Q-2.35 15.0 7.85 9.15 L8.05 8.95 7.85 6.5 7.8 6.3 7.7 5.7 M-5.95 3.3 Q-6.95 2.65 -8.1 2.35 L-7.45 1.75 -7.15 1.9 Q-5.85 2.3 -4.8 3.0 L-5.55 3.55 -5.95 3.3 M-10.5 4.95 Q-9.4 5.3 -8.45 5.8 L-8.4 5.8 -10.2 7.6 -12.3 6.3 -10.65 4.9 -10.5 4.95" fill="#000051" fill-rule="evenodd" stroke="none"/>
      <path d="M-1.9 10.1 L-4.2 10.7 -4.9 9.5 -4.95 9.5 -5.8 8.1 -3.9 6.85 -1.9 10.1" fill="#d18903" fill-rule="evenodd" stroke="none"/>
      <path d="M-1.65 2.25 Q0.25 2.65 1.95 2.3 1.85 5.0 3.5 8.1 L3.15 8.3 3.0 8.3 2.7 8.5 2.7 8.35 2.65 8.4 -0.75 4.0 -1.05 3.8 -3.25 5.6 -3.1 5.8 -0.55 9.55 -0.6 9.55 -0.65 9.55 -1.15 9.7 -1.2 9.75 -3.65 6.2 -3.9 6.0 -6.65 7.95 -6.6 8.05 -4.8 10.9 -4.75 10.9 -5.25 11.0 -13.15 10.8 -13.85 10.7 Q-14.55 8.7 -13.9 7.75 L-12.9 6.55 -10.3 8.25 -7.65 6.2 -7.55 6.15 -5.65 5.85 Q-5.1 5.5 -5.05 4.75 L-4.95 4.6 -3.45 3.6 -3.05 3.5 Q-1.95 3.1 -1.65 2.25 M3.9 7.95 Q2.15 4.95 2.55 2.05 L4.4 0.55 Q4.7 0.5 4.85 1.0 6.0 3.45 6.65 6.4 L6.6 6.3 5.4 7.1 5.35 7.15 5.3 7.15 3.9 8.0 3.9 7.95 M-2.35 2.4 Q-2.35 2.9 -3.6 3.0 -5.2 1.9 -7.55 0.9 -7.3 -0.15 -6.15 -0.2 -4.45 0.0 -3.4 1.0 L-2.35 1.9 -2.35 2.4 M0.0 9.3 L-2.55 5.8 -1.0 4.45 2.35 8.65 2.3 8.7 2.15 8.65 0.65 9.25 0.05 9.45 0.05 9.4 0.0 9.3 M-5.95 3.3 L-5.55 3.55 -5.65 3.6 -5.95 3.3 M-7.45 5.55 L-10.75 4.15 -10.8 4.15 Q-10.55 3.0 -9.3 2.9 -7.3 2.8 -5.8 4.4 -5.65 5.05 -5.85 5.35 L-7.45 5.55 M4.85 8.55 L4.85 8.6 4.8 8.7 6.9 7.6 6.8 7.65 7.05 8.9 Q-2.65 13.7 -13.3 12.85 L-13.75 11.65 Q-8.25 12.0 -4.0 11.5 L-3.85 11.5 -1.5 11.0 -1.2 10.95 0.6 10.45 2.75 9.75 4.2 9.0 4.1 8.95 4.15 8.95 4.2 9.0 4.8 8.7 4.85 8.55" fill="#9ebede" fill-rule="evenodd" stroke="none"/>
      <path d="M-7.85 14.55 L-8.05 14.3 -7.9 14.5 -7.85 14.55" fill="#d18903" fill-rule="evenodd" stroke="none"/>
      <path d="M-4.5 14.7 L-4.45 13.2 -5.15 13.35 -5.1 14.4 -6.15 14.7 -7.15 14.3 -7.05 13.3 -7.75 13.3 -7.75 14.7 Q-6.9 15.4 -6.15 15.45 -5.25 15.55 -4.55 14.8 L-4.5 14.7 M-10.8 13.2 L-10.8 14.65 -12.55 14.6 -12.55 13.05 -13.2 12.9 -13.2 14.9 -13.05 14.95 Q-11.95 16.2 -10.3 15.15 L-10.15 14.9 -10.0 14.65 -10.0 13.3 -10.8 13.2 M1.65 11.5 L1.1 11.7 0.95 13.35 Q0.25 14.05 -0.65 13.6 L-0.7 12.2 -1.3 12.5 -1.25 14.1 -1.3 14.2 -1.05 14.4 Q0.0 14.8 1.35 14.05 L1.45 13.95 1.55 13.75 1.75 11.4 1.65 11.5 M4.45 10.35 L3.85 10.75 3.85 12.1 3.85 12.3 4.05 12.55 Q5.15 13.65 6.65 12.3 L6.75 12.25 6.85 12.0 6.85 11.3 6.8 9.7 6.8 9.6 6.55 9.25 6.5 9.25 5.95 9.55 6.2 11.8 Q5.25 12.6 4.4 12.0 L4.45 10.35" fill="#9ebede" fill-rule="evenodd" stroke="none"/>
    </g>
  </defs>
</svg>
