<?xml version="1.0" encoding="UTF-8" standalone="no"?>
<svg xmlns:xlink="http://www.w3.org/1999/xlink" height="38.3px" width="36.05px" xmlns="http://www.w3.org/2000/svg">
  <g transform="matrix(1.0, 0.0, 0.0, 1.0, 23.8, 14.85)">
    <use height="19.45" transform="matrix(1.0, 0.0, 0.0, 1.0, -12.05, -5.55)" width="20.55" xlink:href="#shape0"/>
  </g>
  <defs>
    <g id="shape0" transform="matrix(1.0, 0.0, 0.0, 1.0, 12.05, 5.55)">
      <path d="M2.85 -3.25 L2.8 -3.25 2.85 -3.15 2.85 -2.9 2.75 -2.9 2.65 -2.9 2.55 -2.95 2.4 -3.1 2.3 -3.1 2.2 -3.1 2.15 -3.05 1.55 -3.1 Q-0.9 -3.75 -3.65 -2.75 -0.9 -3.75 1.55 -3.1 L-1.15 -3.0 -0.3 -2.85 0.2 -2.95 0.7 -2.95 0.75 -2.95 Q1.6 -2.9 2.1 -2.35 L2.55 -2.75 2.65 -2.75 2.85 -2.65 2.65 -2.75 2.85 -2.7 2.85 -2.65 2.75 -1.8 2.45 -0.75 2.35 -0.6 2.35 -0.55 1.8 -0.15 1.75 -0.2 1.75 -0.15 1.6 -0.1 1.3 0.0 1.2 0.0 0.65 0.05 0.55 -0.1 0.9 -0.95 1.0 -1.2 1.1 -1.4 1.05 -1.4 1.05 -1.8 1.0 -1.95 0.85 -2.05 Q-0.05 -2.55 -1.1 -2.65 L-2.05 -2.7 -2.15 -2.7 -2.15 -2.75 -2.35 -2.75 Q-2.35 -2.75 -2.45 -2.7 L-3.0 -2.6 -3.55 -2.5 -3.6 -2.5 -3.6 -2.55 -3.65 -2.75 -3.7 -2.8 -3.5 -2.9 -3.55 -2.95 -3.65 -2.95 -3.9 -3.75 Q-0.2 -4.8 2.9 -3.7 L2.85 -3.25 M-2.6 -3.3 L-3.05 -3.35 -3.05 -3.25 -2.9 -3.2 -2.6 -3.3" fill="#b5e6e6" fill-rule="evenodd" stroke="none"/>
      <path d="M-4.4 -1.8 L-4.1 -2.05 -3.95 -2.0 -4.2 -1.35 -4.25 -1.45 -4.2 -1.6 -4.35 -1.5 -4.35 -1.6 -4.4 -1.8 M3.5 2.35 L3.0 1.9 2.65 1.75 2.45 1.7 1.35 4.05 1.45 4.15 2.2 4.8 1.85 5.25 1.0 4.7 0.8 4.75 -0.45 6.85 -0.3 7.0 0.45 7.55 Q0.3 7.75 0.4 8.0 L0.4 8.05 -0.4 8.6 Q-2.4 9.75 -4.9 9.95 L-9.2 10.4 -9.5 9.4 -9.3 8.0 -9.25 8.1 -8.95 8.2 Q-8.15 8.3 -7.8 7.75 -7.0 6.6 -8.4 6.05 L-8.5 5.9 -8.6 5.9 -8.8 5.9 -9.25 6.05 -9.35 6.1 -9.3 5.9 -9.2 5.7 -8.65 4.5 -7.8 3.3 -6.15 0.95 -6.15 1.05 -5.7 1.3 -5.5 1.45 -5.45 1.5 -5.95 2.5 -6.0 2.5 -6.0 2.55 Q-7.0 2.95 -7.2 3.45 -7.55 3.8 -7.45 4.2 L-7.0 4.55 -7.1 4.7 -7.1 4.75 -7.05 4.65 -6.95 4.6 -6.9 4.65 -7.3 5.65 -7.05 5.85 -6.95 5.95 -5.9 6.55 -3.45 6.9 -2.9 6.85 -2.65 6.8 -2.15 6.75 -2.0 6.7 -1.85 6.65 -1.8 6.55 -1.5 5.6 Q-0.7 5.45 -0.35 5.1 0.0 4.7 -0.1 4.05 L-0.7 3.45 -0.25 2.25 -0.2 2.25 0.4 1.8 0.75 1.1 0.8 1.05 Q2.15 1.05 2.9 0.45 L3.15 0.8 3.45 1.9 3.5 2.15 3.5 2.35 M-7.3 10.7 L-7.7 10.65 -7.35 10.65 -7.3 10.7 M-10.3 6.6 L-10.25 6.35 -10.15 6.3 -10.15 6.25 -10.1 6.25 -10.0 5.95 -9.85 5.7 -9.85 5.85 -9.95 5.95 -10.0 5.95 -10.0 6.0 -10.1 6.25 -10.3 6.6 M-4.55 -1.15 L-4.5 -1.05 -4.55 -0.8 -4.5 -0.7 -4.8 -0.65 -5.05 -0.55 -4.55 -1.15 M-3.5 -0.9 L-3.45 -1.1 -3.2 -1.85 -3.15 -1.85 -3.0 -1.8 Q-1.4 -1.95 -0.2 -1.35 L-0.1 -1.35 -0.25 -0.95 -0.45 -0.25 -1.0 -0.45 -1.3 -0.5 -1.6 -0.6 -3.3 -0.9 -3.5 -0.9 M-1.5 3.05 L-1.6 2.9 -1.8 2.85 -4.25 2.4 -4.85 2.4 -4.65 2.0 -4.6 1.85 -3.75 1.95 -2.05 2.3 -1.8 2.3 -1.2 2.35 -1.5 3.05 M-6.2 5.05 L-5.95 5.15 -5.7 5.2 -4.1 5.45 -3.5 5.5 -3.45 5.5 -3.1 5.7 -2.6 5.65 -2.5 5.8 -2.45 5.7 -2.25 5.7 -2.4 6.1 -2.8 6.15 Q-4.9 6.35 -6.4 5.45 L-6.25 5.15 -6.2 5.05 M-9.8 5.65 L-9.75 5.45 -8.95 4.2 -9.5 5.15 -9.65 5.55 -9.8 5.65 M-10.4 8.25 L-10.25 8.75 -10.25 8.8 -10.4 8.25" fill="#ff99cc" fill-rule="evenodd" stroke="none"/>
      <path d="M2.7 2.9 L2.8 2.95 3.2 3.25 2.8 3.9 2.6 4.35 2.1 4.05 2.7 2.9 M-4.4 -0.2 L-4.05 -0.2 -3.8 -0.2 -3.75 -0.2 -1.3 0.2 -1.25 0.25 0.05 0.7 0.15 1.05 0.15 1.1 0.25 1.2 0.25 1.35 0.0 1.6 -0.05 1.6 -0.15 1.7 -0.95 2.0 -1.15 1.95 -4.3 1.25 -4.8 1.15 -5.3 1.15 -5.45 1.15 -5.45 1.0 -5.45 0.9 -5.15 0.65 -5.0 0.5 -4.95 0.45 -4.4 -0.05 -4.2 -0.15 -4.4 -0.2 M0.85 5.8 L1.15 6.05 1.1 6.1 0.7 6.6 0.35 6.45 0.85 5.8 M1.35 5.75 L1.3 5.85 1.0 5.7 1.1 5.5 1.35 5.75 M-4.15 3.05 L-4.15 3.0 -4.15 3.05 M-5.65 3.25 L-5.4 3.15 -5.2 3.1 -4.0 2.95 -4.15 3.0 Q-2.9 3.05 -1.6 3.65 L-1.45 3.75 -1.1 3.85 -0.95 4.05 -0.9 4.1 Q-0.7 4.5 -0.8 4.75 L-1.1 4.9 -1.15 4.95 -1.2 4.95 -2.05 5.15 -2.45 5.2 -5.75 4.55 -5.85 4.4 Q-6.1 4.05 -5.8 3.75 L-5.65 3.25" fill="#880044" fill-rule="evenodd" stroke="none"/>
      <path d="M0.8 9.35 Q-0.4 10.05 -1.65 10.4 L-6.95 10.7 -7.3 10.7 -7.35 10.65 -7.7 10.65 -9.2 10.5 -9.2 10.4 -4.9 9.95 Q-2.4 9.75 -0.4 8.6 L0.4 8.05 0.4 8.0 0.5 8.35 0.65 9.05 0.8 9.35" fill="#ff59ac" fill-rule="evenodd" stroke="none"/>
      <path d="M2.0 10.8 L0.75 11.75 Q-3.3 13.1 -8.65 12.25 L-9.1 11.1 -1.35 11.4 1.35 10.25 2.0 10.8" fill="#ff1a8c" fill-rule="evenodd" stroke="none"/>
      <path d="M-8.65 12.25 L-8.9 12.2 -9.55 11.0 -9.1 11.1 -8.65 12.25 M-9.2 10.5 L-9.3 10.45 -9.6 10.4 -9.65 10.25 -9.75 10.05 -10.0 9.6 -10.05 9.45 -10.1 9.4 -10.1 9.35 -10.2 9.4 -10.25 9.35 -10.05 9.3 -10.15 9.05 -10.2 8.85 -10.25 8.8 -10.25 8.75 -10.4 8.25 -10.4 7.75 -10.4 7.7 -10.4 7.2 -10.35 6.9 -10.3 6.65 -10.3 6.6 -10.1 6.25 -10.0 6.0 -10.0 5.95 -9.95 5.95 -9.85 5.85 -9.85 5.7 -9.85 5.6 -9.8 5.65 -9.65 5.55 -9.5 5.15 -8.95 4.2 -8.45 3.4 -8.15 2.75 -8.1 2.8 -7.85 2.5 -5.95 0.0 -6.0 0.2 -5.95 0.15 -5.8 -0.1 -4.6 -1.25 -4.55 -1.15 -5.05 -0.55 Q-6.1 0.0 -6.15 0.95 L-7.8 3.3 -8.65 4.5 -9.2 5.7 -9.3 5.9 -9.35 6.1 -9.25 6.05 -8.8 5.9 -8.6 5.9 -8.5 5.9 -8.4 6.05 Q-7.0 6.6 -7.8 7.75 -8.15 8.3 -8.95 8.2 L-9.25 8.1 -9.3 8.0 -9.5 9.4 -9.2 10.4 -9.2 10.5 M-4.35 -1.5 L-4.2 -1.6 -4.25 -1.45 -4.35 -1.5 M2.6 4.35 L2.5 4.45 2.05 4.1 2.1 4.05 2.6 4.35 M-5.45 1.15 L-5.5 1.15 Q-5.5 0.25 -4.65 -0.1 L-4.45 -0.2 -4.4 -0.2 -4.2 -0.15 -4.4 -0.05 -4.95 0.45 -5.0 0.5 -5.15 0.65 -5.45 0.9 -5.45 1.0 -5.45 1.15 M0.7 6.6 L0.65 6.7 0.3 6.5 0.35 6.45 0.7 6.6 M-5.75 4.55 L-5.9 4.55 -6.3 4.5 -6.4 3.75 Q-6.15 3.4 -5.65 3.25 L-5.8 3.75 Q-6.1 4.05 -5.85 4.4 L-5.75 4.55" fill="#ffddee" fill-rule="evenodd" stroke="none"/>
      <path d="M-4.8 -2.75 L-4.8 -3.05 -4.4 -1.8 -5.15 -1.1 -5.15 -1.25 -5.1 -1.3 -5.35 -1.3 -5.45 -1.15 -5.65 -0.7 -5.85 -0.6 Q-7.15 0.65 -8.1 2.15 L-8.7 3.5 -9.75 5.45 -9.95 5.85 -10.25 6.35 -10.3 6.6 -10.5 6.8 -10.55 7.3 Q-10.8 7.9 -10.6 8.45 L-10.55 8.4 -10.5 8.4 -10.3 9.75 -10.0 10.45 -9.95 10.45 -9.3 10.45 -9.2 10.5 -7.7 10.65 -7.3 10.7 -6.95 10.7 -1.65 10.4 Q-0.4 10.05 0.8 9.35 L1.8 8.65 0.45 7.55 -0.3 7.0 -0.45 6.85 0.8 4.75 1.0 4.7 1.85 5.25 3.85 6.55 4.0 6.3 2.2 4.8 1.45 4.15 1.35 4.05 2.45 1.7 2.65 1.75 3.0 1.9 3.5 2.35 5.6 4.15 5.7 3.95 5.75 3.9 5.8 3.9 6.2 3.5 7.1 2.55 7.2 2.45 7.25 2.4 7.35 2.7 7.35 2.85 8.0 5.0 7.95 5.35 Q4.65 10.65 1.35 12.6 L1.25 12.65 Q-3.2 14.15 -9.45 12.7 L-10.15 11.5 -10.65 10.8 -10.85 10.4 -10.9 10.2 -10.95 10.2 -11.3 9.2 -11.35 9.15 -11.4 8.95 -11.4 8.85 Q-11.9 6.9 -10.95 5.35 L-10.9 5.3 -5.25 -2.15 -5.25 -2.2 -4.95 -2.6 -4.8 -2.75 M4.6 -1.25 L4.65 -1.15 4.6 -1.1 4.55 -1.2 4.6 -1.25 M6.1 0.45 L6.15 0.55 6.1 0.5 6.1 0.45 M2.0 10.8 Q4.55 8.85 7.45 5.0 L7.05 3.9 6.65 4.45 6.65 4.5 6.4 4.65 5.85 5.7 6.2 4.95 4.3 7.35 3.45 8.45 3.45 8.5 3.4 8.6 3.05 8.95 3.05 9.0 2.95 9.0 1.35 10.25 -1.35 11.4 -9.1 11.1 -9.55 11.0 -8.9 12.2 -8.65 12.25 Q-3.3 13.1 0.75 11.75 L2.0 10.8 M0.8 1.05 L0.75 1.1 0.4 1.8 -0.2 2.25 -0.25 2.25 -1.2 2.35 -1.8 2.3 -2.05 2.3 -3.75 1.95 -4.6 1.85 -4.75 1.85 -5.0 1.75 -5.45 1.5 -5.5 1.45 -5.7 1.3 -6.15 1.05 -6.15 0.95 Q-6.1 0.0 -5.05 -0.55 L-4.8 -0.65 -4.5 -0.7 -3.9 -0.9 -3.5 -0.9 -3.3 -0.9 -1.6 -0.6 -1.3 -0.5 -1.0 -0.45 -0.45 -0.25 -0.05 -0.15 0.6 0.55 0.9 0.7 0.85 0.75 0.9 0.8 0.75 0.85 0.8 0.85 0.8 0.9 0.8 1.05 M-0.7 3.45 L-0.1 4.05 Q0.0 4.7 -0.35 5.1 -0.7 5.45 -1.5 5.6 L-2.25 5.7 -2.45 5.7 -2.5 5.8 -2.6 5.65 -3.1 5.7 -3.45 5.5 -3.5 5.5 -4.1 5.45 -5.7 5.2 -5.95 5.15 -6.2 5.05 -6.7 4.75 -6.9 4.65 -6.95 4.6 -7.0 4.55 -7.45 4.2 Q-7.55 3.8 -7.2 3.45 -7.0 2.95 -6.0 2.55 L-6.0 2.5 -5.95 2.5 -5.05 2.45 -4.85 2.4 -4.25 2.4 -1.8 2.85 -1.6 2.9 -1.5 3.05 -1.15 3.15 -1.05 3.2 -1.0 3.2 -0.7 3.45 M2.5 4.45 L4.5 5.85 5.2 4.6 2.8 2.65 2.7 2.9 2.1 4.05 2.05 4.1 2.5 4.45 M-5.45 1.15 L-5.3 1.15 -4.8 1.15 -4.3 1.25 -1.15 1.95 -0.95 2.0 -0.15 1.7 -0.05 1.6 0.0 1.6 0.25 1.35 0.25 1.2 0.15 1.1 0.15 1.05 0.05 0.7 -1.25 0.25 -1.3 0.2 -3.75 -0.2 -3.8 -0.2 -4.05 -0.2 -4.4 -0.2 -4.45 -0.2 -4.65 -0.1 Q-5.5 0.25 -5.5 1.15 L-5.45 1.15 M0.65 6.7 L2.55 7.95 3.2 7.35 1.35 5.75 1.1 5.5 1.0 5.7 0.85 5.8 0.35 6.45 0.3 6.5 0.65 6.7 M-5.75 4.55 L-2.45 5.2 -2.05 5.15 -1.2 4.95 -1.15 4.95 -1.1 4.9 -0.8 4.75 Q-0.7 4.5 -0.9 4.1 L-0.95 4.05 -1.1 3.85 -1.45 3.75 -1.6 3.65 Q-2.9 3.05 -4.15 3.0 L-4.0 2.95 -5.2 3.1 -5.4 3.15 -5.65 3.25 Q-6.15 3.4 -6.4 3.75 -6.65 4.0 -6.55 4.45 L-6.3 4.5 -5.9 4.55 -5.75 4.55" fill="#530029" fill-rule="evenodd" stroke="none"/>
      <path d="M2.9 0.45 L3.1 0.25 3.3 0.0 3.35 -0.1 3.55 -0.35 3.6 -0.4 3.6 -0.55 3.6 -0.7 3.7 -0.4 3.85 0.5 3.85 0.6 3.85 0.65 4.0 1.1 4.3 1.7 4.4 1.7 4.3 1.75 4.65 2.3 4.7 2.4 5.3 3.1 5.55 3.4 5.55 3.45 5.7 3.65 5.75 3.7 5.8 3.75 5.75 3.85 5.7 3.95 5.6 4.15 3.5 2.35 3.5 2.15 3.45 1.9 3.15 0.8 2.9 0.45 M6.25 2.8 L6.2 2.85 6.1 3.1 6.05 3.15 6.05 3.3 6.0 3.35 5.95 3.3 5.85 3.2 Q4.9 2.2 4.35 -0.25 L6.2 2.7 6.25 2.8 M1.35 10.25 L2.95 9.0 3.05 9.0 3.05 8.95 3.4 8.6 3.45 8.5 3.45 8.45 4.3 7.35 6.2 4.95 5.85 5.7 6.4 4.65 6.65 4.5 6.65 4.45 7.05 3.9 7.45 5.0 Q4.55 8.85 2.0 10.8 L1.35 10.25 M2.2 4.8 L4.0 6.3 3.85 6.55 1.85 5.25 2.2 4.8 M0.45 7.55 L1.8 8.65 0.8 9.35 0.65 9.05 0.5 8.35 0.4 8.0 Q0.3 7.75 0.45 7.55 M2.6 4.35 L2.8 3.9 3.2 3.25 2.8 2.95 2.7 2.9 2.8 2.65 5.2 4.6 4.5 5.85 2.5 4.45 2.6 4.35 M0.7 6.6 L1.1 6.1 1.15 6.05 0.85 5.8 1.0 5.7 1.3 5.85 1.35 5.75 3.2 7.35 2.55 7.95 0.65 6.7 0.7 6.6" fill="#3e001f" fill-opacity="0.37254903" fill-rule="evenodd" stroke="none"/>
      <path d="M2.85 -3.15 L2.85 -3.25 2.9 -3.7 Q-0.2 -4.8 -3.9 -3.75 L-3.65 -2.95 -3.7 -2.8 -3.65 -2.75 -3.6 -2.55 -3.6 -2.5 -3.9 -2.15 -3.95 -2.0 -4.1 -2.05 -4.4 -1.8 -4.8 -3.05 -4.8 -2.75 -4.9 -3.9 -4.85 -4.1 Q-4.25 -4.4 -4.2 -4.4 -0.1 -5.7 3.35 -4.4 L3.6 -4.2 3.75 -3.9 3.65 -1.95 3.8 -1.85 3.8 -1.8 3.4 -1.35 2.4 -0.65 2.35 -0.6 2.45 -0.75 2.75 -1.8 2.85 -2.65 2.85 -2.7 2.85 -2.9 2.85 -3.15" fill="#66cccc" fill-rule="evenodd" stroke="none"/>
      <path d="M-3.95 -2.0 L-3.9 -2.15 -3.6 -2.5 -3.55 -2.5 -3.0 -2.6 -2.45 -2.7 -2.15 -2.7 -2.05 -2.7 -1.1 -2.65 Q-0.05 -2.55 0.85 -2.05 L1.0 -1.95 1.05 -1.8 1.05 -1.4 1.0 -1.2 0.9 -0.95 0.55 -0.1 0.55 0.05 0.65 0.05 1.2 0.0 1.3 0.0 1.6 -0.1 1.75 -0.15 1.8 -0.15 2.35 -0.55 2.35 -0.6 2.4 -0.65 3.4 -1.35 3.8 -1.8 3.8 -1.85 4.0 -1.7 4.3 -1.45 4.6 -1.25 4.55 -1.2 4.6 -1.1 4.65 -1.15 4.7 -1.1 6.1 0.45 6.1 0.5 6.15 0.55 6.85 1.6 6.9 1.7 6.95 1.8 7.0 1.85 7.0 1.9 7.15 2.1 7.2 2.15 7.2 2.2 7.25 2.4 7.2 2.45 7.1 2.55 6.2 3.5 5.8 3.9 5.75 3.9 5.7 3.95 5.75 3.85 5.8 3.75 5.75 3.7 5.7 3.65 5.55 3.45 5.55 3.4 5.3 3.1 4.7 2.4 4.65 2.3 4.3 1.75 4.4 1.7 4.3 1.7 4.0 1.1 3.85 0.65 3.85 0.6 3.85 0.5 3.7 -0.4 3.6 -0.7 3.6 -0.55 3.6 -0.4 3.55 -0.35 3.35 -0.1 3.3 0.0 3.1 0.25 2.9 0.45 Q2.15 1.05 0.8 1.05 L0.8 0.9 0.8 0.85 0.75 0.85 0.9 0.8 0.85 0.75 0.9 0.7 0.6 0.55 -0.05 -0.15 -0.45 -0.25 -0.25 -0.95 -0.1 -1.35 -0.2 -1.35 Q-1.4 -1.95 -3.0 -1.8 L-3.15 -1.85 -3.2 -1.85 -3.45 -1.1 -3.5 -0.9 -3.9 -0.9 -4.5 -0.7 -4.55 -0.8 -4.5 -1.05 -4.55 -1.15 -4.6 -1.25 -4.65 -1.5 -4.85 -1.3 -5.6 -0.45 -5.8 -0.2 -5.85 -0.15 -5.8 -0.2 -5.6 -0.45 -4.85 -1.3 -4.65 -1.5 -4.6 -1.25 -5.8 -0.1 -5.95 0.15 -6.0 0.2 -5.95 0.0 -5.85 -0.15 -4.7 -1.4 -4.85 -1.3 -4.7 -1.4 -5.85 -0.15 -5.95 0.0 -7.85 2.5 -8.1 2.8 -8.15 2.75 -8.45 3.4 -8.95 4.2 -9.75 5.45 -8.7 3.5 -8.1 2.15 Q-7.15 0.65 -5.85 -0.6 L-5.65 -0.7 -5.45 -1.15 -5.35 -1.3 -5.1 -1.3 -5.15 -1.25 -5.15 -1.1 -4.4 -1.8 -4.35 -1.6 -4.35 -1.5 -4.25 -1.45 -4.2 -1.35 -3.95 -2.0 M6.25 2.8 L6.2 2.7 4.35 -0.25 Q4.9 2.2 5.85 3.2 L5.95 3.3 6.0 3.35 6.05 3.3 6.05 3.15 6.1 3.1 6.2 2.85 6.25 2.8 M-9.3 10.45 L-9.95 10.45 -10.0 10.45 -10.3 9.75 -10.5 8.4 -10.55 8.4 -10.6 8.45 Q-10.8 7.9 -10.55 7.3 L-10.5 6.8 -10.3 6.6 -10.3 6.65 -10.35 6.9 -10.4 7.2 -10.4 7.7 -10.4 7.75 -10.4 8.25 -10.25 8.8 -10.2 8.85 -10.15 9.05 -10.05 9.3 -10.25 9.35 -10.2 9.4 -10.1 9.35 -10.1 9.4 -10.05 9.45 -10.0 9.6 -9.75 10.05 -9.65 10.25 -9.6 10.4 -9.3 10.45 M-0.25 2.25 L-0.7 3.45 -1.0 3.2 -1.05 3.2 -1.15 3.15 -1.5 3.05 -1.2 2.35 -0.25 2.25 M-1.5 5.6 L-1.8 6.55 -1.85 6.65 -2.0 6.7 -2.15 6.75 -2.65 6.8 -2.9 6.85 -3.45 6.9 -5.9 6.55 -6.95 5.95 -7.05 5.85 -7.3 5.65 -6.9 4.65 -6.7 4.75 -6.2 5.05 -6.25 5.15 -6.4 5.45 Q-4.9 6.35 -2.8 6.15 L-2.4 6.1 -2.25 5.7 -1.5 5.6 M-5.95 2.5 L-5.45 1.5 -5.0 1.75 -4.75 1.85 -4.6 1.85 -4.65 2.0 -4.85 2.4 -5.05 2.45 -5.95 2.5 M-6.3 4.5 L-6.55 4.45 Q-6.65 4.0 -6.4 3.75 L-6.3 4.5" fill="#f4007a" fill-rule="evenodd" stroke="none"/>
      <path d="M-3.65 -2.75 Q-0.9 -3.75 1.55 -3.1 L2.65 -2.75 2.85 -2.65" fill="none" stroke="#ff59ac" stroke-linecap="round" stroke-linejoin="round" stroke-width="1.0"/>
      <path d="M3.8 -1.85 L3.65 -1.95 3.75 -3.9 3.6 -4.2 3.35 -4.4 Q-0.1 -5.7 -4.2 -4.4 -4.25 -4.4 -4.85 -4.1 L-4.9 -3.9 -4.8 -2.75 -4.95 -2.6 -5.25 -2.2 -5.25 -2.15 -10.9 5.3 -10.95 5.35 Q-11.9 6.9 -11.4 8.85 L-11.4 8.95 -11.35 9.15 -11.3 9.2 -10.95 10.2 -10.9 10.2 -10.85 10.4 -10.65 10.8 -10.15 11.5 -9.45 12.7 Q-3.2 14.15 1.25 12.65 L1.35 12.6 Q4.65 10.65 7.95 5.35 L8.0 5.0 7.35 2.85 7.35 2.7 7.25 2.4 7.2 2.2 7.2 2.15 7.15 2.1 7.0 1.9 7.0 1.85 6.95 1.8 6.9 1.7 6.85 1.6 6.15 0.55 M2.35 -0.6 L2.4 -0.65 3.4 -1.35 3.8 -1.8 3.8 -1.85 M4.65 -1.15 L4.7 -1.1 6.1 0.45" fill="none" stroke="#000000" stroke-linecap="round" stroke-linejoin="round" stroke-width="1.0"/>
      <path d="M2.8 -3.25 L2.9 -3.05 2.9 -3.0 2.85 -2.95 2.75 -2.9 2.65 -2.9 2.55 -2.95 2.4 -3.1 2.3 -3.1 2.2 -3.1 2.15 -3.05 -1.15 -3.0 -0.3 -2.85 0.2 -2.95 0.7 -2.95 0.75 -2.95 Q1.6 -2.9 2.1 -2.35 L2.55 -2.75 2.9 -2.7 3.0 -1.35 2.75 -0.4 2.5 -0.4 2.45 -0.4 Q2.2 -0.1 1.8 -0.15 L1.75 -0.2 Q0.95 0.6 0.5 -0.2 L0.55 -0.45 1.1 -1.4 Q0.7 -1.5 0.45 -1.85 L0.45 -1.9 0.25 -2.2 0.15 -2.25 -0.25 -2.3 -0.3 -2.3 -0.45 -2.3 -0.45 -2.25 -0.5 -2.15 -1.7 -2.35 Q-2.05 -2.4 -2.15 -2.6 L-2.15 -2.65 -2.15 -2.75 -2.35 -2.75 Q-2.7 -2.5 -3.2 -2.35 L-3.7 -2.15 -4.2 -2.25 -4.3 -2.35 -4.3 -2.45 -4.1 -2.55 -3.5 -2.9 -3.55 -2.95 Q-3.8 -3.0 -3.95 -3.2 L-4.1 -3.7 -4.05 -3.9 -3.65 -3.95 -3.6 -3.9 -1.75 -4.55 -0.7 -4.7 -0.65 -4.7 -0.55 -4.7 -0.45 -4.6 -0.45 -4.55 0.8 -4.45 1.0 -4.35 2.65 -4.05 3.25 -3.7 3.25 -3.6 3.25 -3.5 Q3.05 -3.3 2.8 -3.25 M-2.6 -3.3 L-3.05 -3.35 -3.05 -3.25 -2.9 -3.2 -2.6 -3.3" fill="#b5e6e6" fill-rule="evenodd" stroke="none"/>
      <path d="M3.55 -0.75 L3.55 -0.8 3.7 -1.05 3.8 -1.05 3.9 -1.05 3.95 -1.0 4.1 -0.85 4.15 -0.8 4.25 -0.65 4.3 -0.6 4.55 -0.35 4.25 -0.25 4.2 -0.3 4.1 -0.25 3.95 -0.2 3.9 -0.1 3.85 -0.1 3.75 -0.7 3.7 -0.7 3.6 -0.75 3.55 -0.75 M5.1 0.45 L6.6 2.35 6.7 2.7 6.95 2.8 Q7.1 3.45 6.05 3.75 L6.25 3.45 6.25 3.2 6.3 2.1 6.0 2.05 5.9 1.85 5.1 0.45 M5.2 4.0 L4.55 3.55 3.2 2.45 3.1 2.35 2.7 2.15 1.45 4.05 Q2.75 4.8 3.75 5.85 L3.6 5.8 3.15 5.6 3.05 5.35 3.0 5.4 3.0 5.45 2.95 5.5 2.85 5.9 2.8 5.85 2.65 5.95 Q1.65 5.65 1.1 4.85 L1.0 4.75 0.9 4.75 0.8 4.9 -0.3 6.55 0.05 6.85 0.9 7.75 Q0.6 7.8 0.4 8.0 L0.4 8.05 -0.4 8.6 Q-2.4 9.75 -4.9 9.95 L-9.2 10.4 -9.5 9.4 -9.3 8.0 -9.25 8.1 -8.95 8.2 Q-8.15 8.3 -7.8 7.75 -7.0 6.6 -8.4 6.05 L-8.5 5.9 -8.6 5.9 -8.8 5.9 -9.25 6.05 -9.35 6.1 -9.3 5.9 -9.2 5.7 -8.65 4.5 -7.8 3.3 -4.2 -1.6 -5.8 -0.1 -5.95 0.15 -6.0 0.2 -5.95 0.0 -5.85 -0.15 -4.7 -1.4 -5.15 -1.1 -5.65 -0.7 -5.45 -1.15 -5.35 -1.3 -5.1 -1.3 -5.15 -1.25 -5.15 -1.1 -4.4 -1.8 -4.1 -2.05 -3.95 -2.0 -3.95 -1.95 -3.9 -1.9 -4.2 -1.35 -4.4 -1.2 -4.45 -1.15 -4.4 -1.05 -4.4 -0.95 -4.4 -0.85 -4.45 -0.75 -4.4 -0.65 -4.4 -0.6 -4.45 -0.5 -5.1 0.55 -5.4 1.0 -5.3 0.9 -5.25 0.9 -5.0 1.0 -5.05 1.25 -5.0 1.25 -4.8 1.3 -4.35 1.4 -0.45 2.15 0.15 1.5 0.3 1.4 0.1 1.25 0.05 1.15 0.1 1.15 0.15 1.15 Q0.25 1.05 0.3 1.05 0.45 0.85 0.8 0.8 L1.45 0.7 Q1.9 0.4 2.4 0.35 L2.5 0.45 3.05 0.15 3.15 -0.1 Q3.2 2.0 4.75 3.6 L5.05 3.7 5.05 3.75 5.2 4.0 M4.0 6.2 L4.1 6.3 4.05 6.3 4.0 6.25 4.0 6.2 M3.85 6.65 L3.8 6.65 3.45 6.4 3.55 6.4 3.75 6.6 3.85 6.65 M3.3 6.3 L3.25 6.25 3.3 6.2 3.3 6.3 M1.05 7.9 L1.15 7.95 1.05 7.95 1.05 7.9 M1.65 8.25 L2.0 8.25 2.05 8.35 2.1 8.4 2.0 8.85 2.0 8.9 1.65 9.0 1.75 9.15 1.75 9.2 1.2 9.25 0.15 9.85 0.2 9.75 0.65 9.55 0.85 9.45 2.0 8.4 1.55 8.65 1.65 8.25 M-1.2 10.4 L-1.5 10.6 -2.15 10.85 -2.2 11.0 -2.2 11.05 -2.4 11.2 -3.55 11.25 -3.85 11.15 -4.5 11.2 -5.65 11.25 -6.15 11.1 -7.9 11.05 -9.15 10.85 -9.15 10.8 -7.35 10.65 -6.95 10.7 -6.95 10.75 -6.9 10.85 -1.9 10.6 -1.85 10.55 -1.8 10.5 -1.45 10.45 -1.2 10.4 M-10.0 10.45 L-10.3 9.75 -10.5 8.4 -10.4 8.25 -10.25 8.75 -10.1 10.2 -9.95 10.3 -9.95 10.45 -10.0 10.45 M-10.55 7.3 L-10.5 6.8 -10.3 6.6 -10.15 6.3 -10.15 6.25 -10.1 6.25 -10.0 5.95 -9.85 5.7 -9.85 5.85 -9.95 5.95 -10.0 5.95 -10.0 6.0 -10.1 6.25 -10.3 6.6 -10.35 6.7 -10.35 6.75 -10.35 6.9 -10.4 6.9 -10.45 7.0 -10.5 7.05 -10.5 7.15 -10.55 7.3 M-9.8 5.65 L-8.7 3.5 -8.85 3.95 -9.5 5.15 -9.65 5.55 -9.8 5.65 M-2.65 -2.25 L-2.15 -2.05 -0.85 -2.1 -0.45 -1.85 -0.4 -1.75 -0.45 -1.7 -0.45 -1.6 -0.3 -1.55 -0.2 -1.5 Q0.15 -1.0 0.0 -0.4 L-0.45 0.4 -0.65 0.6 -1.2 0.4 -1.2 0.35 -1.25 0.3 -1.25 0.2 -1.25 0.15 -1.35 0.0 -1.4 -0.15 -1.95 -0.2 -2.0 -0.2 -2.1 -0.4 -1.9 -0.6 -1.9 -0.65 -2.2 -0.5 -2.35 -0.5 -2.6 -0.5 -2.6 -0.55 -2.9 -0.4 -2.95 -0.35 Q-3.2 -0.35 -3.3 -0.5 L-3.3 -0.55 Q-3.25 -0.75 -3.55 -0.8 L-3.65 -0.85 -3.65 -1.4 -3.15 -2.15 -3.0 -2.1 -2.85 -2.15 -2.75 -2.25 -2.65 -2.25 M-3.1 3.1 L-3.05 2.85 -5.75 2.7 -7.1 4.7 -7.1 4.75 -7.05 4.65 -6.95 4.6 -6.7 4.65 -6.65 4.7 -6.6 4.8 -2.15 5.7 -2.05 5.85 -2.05 5.9 -0.85 4.55 -1.05 4.45 Q-1.25 4.2 -1.0 3.9 L-0.9 3.65 -0.9 3.6 -0.9 3.5 -0.9 3.45 -2.3 3.2 -2.9 3.15 -3.1 3.1 M4.1 0.5 L4.05 0.45 3.9 0.0 4.1 0.5" fill="#ff99cc" fill-rule="evenodd" stroke="none"/>
      <path d="M3.2 2.45 L5.05 4.1 5.3 4.5 Q5.3 5.25 4.7 5.8 3.5 4.8 2.05 4.05 L1.85 4.05 1.8 4.1 2.05 3.75 2.2 3.7 2.6 2.95 2.85 2.65 2.85 2.55 2.85 2.45 3.0 2.4 3.1 2.35 3.2 2.45 M0.2 6.4 L0.2 6.3 0.25 6.2 0.4 6.2 0.4 6.1 0.65 5.95 0.6 5.85 0.55 5.7 1.1 5.5 1.35 5.6 1.45 5.65 Q2.1 5.9 2.8 6.6 L3.45 7.5 3.2 7.85 3.1 7.85 2.75 7.75 2.7 7.85 2.55 7.95 2.35 7.9 2.35 7.85 Q1.5 6.85 0.2 6.4 M1.6 7.6 L0.7 6.95 0.65 6.85 0.3 6.7 0.25 6.55 0.25 6.5 0.25 6.45 1.6 7.6" fill="#880044" fill-rule="evenodd" stroke="none"/>
      <path d="M4.55 -0.35 L4.65 -0.3 5.1 0.45 5.9 1.85 6.0 2.05 6.3 2.1 6.25 3.2 6.25 3.45 6.05 3.75 6.0 3.8 5.75 4.1 5.8 4.2 5.7 4.3 5.6 4.3 5.35 4.25 5.2 4.0 5.05 3.75 5.05 3.7 4.75 3.6 Q3.2 2.0 3.15 -0.1 L3.2 -0.25 3.3 -0.7 3.55 -0.75 3.6 -0.75 3.7 -0.7 3.75 -0.7 3.85 -0.1 3.9 -0.1 3.95 -0.2 4.1 -0.25 4.2 -0.3 4.25 -0.25 4.55 -0.35 M3.75 5.85 L4.0 5.95 4.05 6.05 4.05 6.15 4.0 6.2 4.0 6.25 4.05 6.3 4.1 6.3 4.1 6.55 4.05 6.65 3.85 6.65 3.75 6.6 3.55 6.4 3.45 6.4 3.35 6.4 3.3 6.35 3.3 6.3 3.3 6.2 3.25 6.25 3.15 6.3 2.85 6.0 2.85 5.9 2.95 5.5 3.0 5.45 3.0 5.4 3.05 5.35 3.15 5.6 3.6 5.8 3.75 5.85 M0.9 7.75 L1.05 7.7 1.05 7.9 1.05 7.95 1.15 7.95 1.6 8.1 1.65 8.1 1.65 8.25 1.55 8.65 2.0 8.4 0.85 9.45 0.65 9.55 0.2 9.75 0.15 9.85 -1.2 10.4 -1.45 10.45 -1.8 10.5 -1.85 10.55 -1.9 10.6 -6.9 10.85 -6.95 10.75 -6.95 10.7 -7.35 10.65 -9.15 10.8 -9.2 10.4 -4.9 9.95 Q-2.4 9.75 -0.4 8.6 L0.4 8.05 0.4 8.0 Q0.6 7.8 0.9 7.75 M-9.9 10.8 L-10.1 10.55 -10.05 10.45 -10.0 10.45 -9.95 10.45 -9.9 10.8 M-9.65 10.8 L-9.7 10.55 -9.65 10.7 -9.6 10.8 -9.65 10.8 M4.1 0.5 L3.9 0.0 4.05 0.45 4.1 0.5 M1.05 7.95 L1.05 8.0 1.05 7.95" fill="#ff59ac" fill-rule="evenodd" stroke="none"/>
      <path d="M-2.4 11.2 L-2.2 11.15 -1.35 10.9 1.35 9.9 2.75 9.05 3.65 8.1 4.8 6.45 6.1 5.15 6.2 5.0 6.85 3.95 6.95 3.85 7.1 3.65 7.15 3.65 7.5 4.45 Q7.85 4.9 7.45 5.45 L4.25 8.9 4.3 9.0 4.3 9.1 Q3.05 11.25 0.35 12.0 -0.1 12.45 -0.45 12.2 L-0.5 12.25 -0.55 12.25 -0.6 12.3 -0.9 12.35 -1.65 12.65 -2.2 12.5 -2.45 12.55 -2.55 12.6 -2.7 12.55 -2.85 12.5 -2.9 12.5 -3.0 12.55 -3.0 12.6 -3.1 12.7 -6.4 12.75 -6.6 12.6 -8.65 12.6 -8.75 12.6 -8.7 12.5 -8.7 12.45 -8.75 12.35 -8.65 12.3 -8.65 12.25 -9.15 10.85 -7.9 11.05 -7.45 11.15 -6.45 11.2 -5.65 11.25 -4.5 11.2 -3.55 11.25 -2.4 11.2 M-9.0 12.5 L-9.45 11.9 -9.7 11.4 -9.75 11.3 -9.65 11.25 -9.65 11.2 -9.65 10.85 -9.6 10.85 -9.0 12.5" fill="#ff1a8c" fill-rule="evenodd" stroke="none"/>
      <path d="M4.7 5.8 L4.8 5.95 4.85 6.0 4.8 6.1 4.7 6.15 3.15 5.15 2.6 4.8 1.8 4.2 1.8 4.1 1.85 4.05 2.05 4.05 Q3.5 4.8 4.7 5.8 M-8.75 12.6 L-8.8 12.6 -9.0 12.55 -9.0 12.5 -9.6 10.85 -9.6 10.8 -9.65 10.7 -9.7 10.55 -9.65 10.8 -9.65 10.85 -9.65 11.2 -9.65 11.25 -9.75 11.3 -9.85 11.2 -9.9 10.8 -9.95 10.45 -9.95 10.3 -10.1 10.2 -10.25 8.75 -10.4 8.25 -10.5 8.4 -10.55 8.4 -10.6 8.45 Q-10.8 7.9 -10.55 7.3 L-10.5 7.15 -10.5 7.05 -10.45 7.0 -10.4 6.9 -10.35 6.9 -10.35 6.75 -10.35 6.7 -10.3 6.6 -10.1 6.25 -10.0 6.0 -10.0 5.95 -9.95 5.95 -9.85 5.85 -9.85 5.7 -9.85 5.6 -9.8 5.65 -9.65 5.55 -9.5 5.15 -8.85 3.95 -8.7 3.5 -8.1 2.15 Q-7.15 0.65 -5.85 -0.6 L-5.65 -0.7 -5.15 -1.1 -4.7 -1.4 -5.85 -0.15 -5.95 0.0 -6.0 0.2 -5.95 0.15 -5.8 -0.1 -4.2 -1.6 -7.8 3.3 -8.65 4.5 -9.2 5.7 -9.3 5.9 -9.35 6.1 -9.25 6.05 -8.8 5.9 -8.6 5.9 -8.5 5.9 -8.4 6.05 Q-7.0 6.6 -7.8 7.75 -8.15 8.3 -8.95 8.2 L-9.25 8.1 -9.3 8.0 -9.5 9.4 -9.2 10.4 -9.15 10.8 -9.15 10.85 -8.65 12.25 -8.65 12.3 -8.75 12.35 -8.7 12.45 -8.7 12.5 -8.75 12.6 M2.35 7.9 L2.3 7.95 2.25 8.0 2.15 8.0 1.6 7.6 0.25 6.45 0.1 6.35 0.15 6.35 0.2 6.4 Q1.5 6.85 2.35 7.85 L2.35 7.9" fill="#ffddee" fill-rule="evenodd" stroke="none"/>
      <path d="M-4.45 -0.5 L-4.4 -0.45 -4.3 0.25 -4.05 0.3 -4.05 0.25 -4.0 -0.05 -3.7 -0.4 -4.35 1.4 -4.8 1.3 -4.8 0.6 -4.8 0.55 -4.95 0.45 -5.1 0.55 -4.45 -0.5 M-6.7 -0.15 L-6.8 -0.15 -6.05 -1.1 -6.7 -0.15 M4.6 -1.25 L4.65 -1.15 4.6 -1.1 4.55 -1.2 4.6 -1.25 M-0.85 1.05 L-0.65 0.65 -0.7 0.8 -0.6 0.9 -0.45 0.85 -0.4 0.85 -0.45 0.95 -0.5 0.95 -0.6 0.9 -0.65 0.95 -0.7 0.9 -0.8 0.95 -0.8 1.0 -0.85 1.0 -0.85 1.05 M6.1 0.45 L6.15 0.55 6.1 0.5 6.1 0.45 M0.1 1.15 L0.15 1.05 0.25 0.85 0.35 0.8 0.55 0.55 0.6 0.55 0.9 0.7 0.8 0.8 Q0.45 0.85 0.3 1.05 L0.15 1.05 0.15 1.15 0.1 1.15" fill="#530029" fill-rule="evenodd" stroke="none"/>
      <path d="M2.9 -0.2 L2.95 -0.2 3.85 -1.25 4.15 -1.35 4.25 -1.2 4.3 -1.1 4.3 -1.0 Q6.3 0.6 7.2 2.75 L7.35 3.15 7.7 4.4 7.8 4.5 7.8 4.9 7.55 5.4 7.55 5.45 6.95 6.25 6.85 6.35 6.85 6.45 6.85 6.5 5.75 7.9 3.6 10.65 2.65 11.3 2.45 11.3 2.3 11.0 2.2 10.95 Q0.95 10.15 0.65 9.05 L0.5 8.35 Q0.1 7.2 1.1 6.1 L1.15 6.05 0.65 5.5 0.7 5.5 1.3 5.85 2.8 3.9 3.2 3.25 2.8 2.95 2.6 2.8 2.6 2.5 2.7 2.45 3.4 2.95 3.5 2.7 3.5 2.45 3.5 2.15 3.45 1.9 3.15 0.8 2.85 0.3 2.8 0.3 2.75 0.25 2.7 0.15 2.85 -0.15 2.9 -0.2 M2.5 6.25 L2.45 6.3 2.45 6.35 2.5 6.25" fill="#3e001f" fill-opacity="0.37254903" fill-rule="evenodd" stroke="none"/>
      <path d="M2.85 -2.65 Q-0.25 -4.05 -3.95 -2.7" fill="none" stroke="#ff59ac" stroke-linecap="round" stroke-linejoin="round" stroke-width="1.0"/>
      <path d="M3.35 -4.4 L3.6 -4.2 3.75 -3.9 3.65 -1.95 3.8 -1.85 Q3.25 -1.05 2.35 -0.6 L2.45 -0.75 2.75 -1.8 2.9 -3.7 Q-0.2 -4.8 -3.9 -3.75 L-3.6 -2.55 -3.6 -2.5 -3.95 -2.0 -4.1 -2.05 -4.4 -1.8 -4.8 -3.05 -4.8 -2.75 -4.9 -3.9 -4.85 -4.1 Q-4.25 -4.4 -4.2 -4.4 -0.1 -5.7 3.35 -4.4" fill="#66cccc" fill-rule="evenodd" stroke="none"/>
      <path d="M5.7 3.95 L5.75 3.85 5.8 3.75 5.75 3.7 5.7 3.65 5.55 3.45 5.55 3.4 5.3 3.1 4.7 2.4 4.65 2.3 4.3 1.75 4.4 1.7 4.3 1.7 4.0 1.1 3.85 0.65 3.85 0.6 3.85 0.5 3.7 -0.4 3.6 -0.7 3.6 -0.55 3.6 -0.4 3.55 -0.35 3.35 -0.1 3.3 0.0 3.1 0.25 Q2.25 1.1 0.45 1.05 L0.45 1.0 0.9 0.7 0.6 0.55 0.55 0.55 0.35 0.8 0.25 0.85 0.05 1.35 -0.7 3.6 -0.8 3.6 -0.9 3.9 -0.9 4.1 -1.8 6.55 -1.85 6.65 -2.0 6.7 -2.15 6.75 -2.65 6.8 -2.9 6.85 -3.45 6.9 -5.9 6.55 -6.95 5.95 -7.05 5.85 -7.3 5.65 -5.15 0.55 -4.95 0.45 -4.8 0.55 -4.8 0.6 Q-4.75 1.15 -5.0 1.65 L-5.0 1.75 -4.55 1.5 -4.45 1.55 -4.65 2.0 -6.25 5.15 -6.4 5.45 Q-4.9 6.35 -2.8 6.15 L-2.4 6.1 -0.85 1.05 -0.85 1.0 -0.8 1.0 -0.8 0.95 -0.7 0.9 -0.65 0.95 -0.6 0.9 -0.5 0.95 -0.45 0.95 -0.4 0.85 -0.45 0.85 -0.6 0.9 -0.7 0.8 -0.65 0.65 -0.5 -0.1 -0.5 -0.15 -0.25 -0.95 -0.1 -1.35 -0.2 -1.35 Q-1.4 -1.95 -3.0 -1.8 L-3.15 -1.85 -3.2 -1.85 -3.45 -1.1 -3.7 -0.4 -4.0 -0.05 -4.05 0.25 -4.05 0.3 -4.3 0.25 -4.4 -0.45 -4.55 -0.8 -4.5 -1.05 -4.55 -1.15 -4.65 -1.5 -4.85 -1.3 -5.6 -0.45 -5.8 -0.2 -7.85 2.5 -8.1 2.8 -8.15 2.75 -8.45 3.4 -9.95 5.85 Q-10.35 6.45 -10.4 7.2 L-10.4 7.7 -10.4 7.75 -10.2 8.85 -10.15 9.05 -10.05 9.3 -10.25 9.35 -10.2 9.4 -10.1 9.35 -10.1 9.4 -10.05 9.45 -10.0 9.6 -9.75 10.05 -9.65 10.25 -9.6 10.4 -9.3 10.45 -10.75 10.35 -10.85 10.4 -10.9 10.2 -10.95 10.2 -11.3 9.2 -11.35 9.15 -11.4 8.95 -11.4 8.85 Q-11.9 6.9 -10.95 5.35 L-10.9 5.3 -6.8 -0.15 -6.7 -0.15 -6.05 -1.1 -5.25 -2.15 -5.25 -2.2 -4.95 -2.6 -4.8 -2.75 -4.8 -3.05 -4.35 -1.6 -4.2 -1.35 -3.6 -2.5 -3.55 -2.5 -3.0 -2.6 -2.05 -2.7 -1.1 -2.65 Q-0.05 -2.55 0.85 -2.05 L1.0 -1.95 1.05 -1.8 1.05 -1.4 0.9 -0.95 0.8 -0.6 0.55 0.05 0.65 0.05 1.2 0.0 1.3 0.0 1.6 -0.1 1.75 -0.15 2.35 -0.55 2.35 -0.6 Q3.25 -1.05 3.8 -1.85 L4.0 -1.7 4.3 -1.45 4.6 -1.25 4.55 -1.2 4.6 -1.1 4.65 -1.15 4.7 -1.1 6.1 0.45 6.1 0.5 6.15 0.55 6.85 1.6 6.9 1.7 6.95 1.8 7.0 1.85 7.0 1.9 7.15 2.1 7.2 2.15 7.2 2.2 7.25 2.4 7.2 2.45 6.2 3.5 5.8 3.9 5.75 3.9 5.7 3.95 M6.25 2.8 L6.2 2.7 4.35 -0.25 Q4.9 2.2 5.85 3.2 L5.95 3.3 6.0 3.35 6.05 3.3 6.05 3.15 6.1 3.1 6.2 2.85 6.25 2.8" fill="#f4007a" fill-rule="evenodd" stroke="none"/>
      <path d="M5.7 3.95 L5.75 3.9 5.8 3.9 6.2 3.5 7.2 2.45 7.25 2.4 7.35 2.7 7.35 2.85 8.0 5.0 7.95 5.35 Q4.65 10.65 1.35 12.6 L1.25 12.65 Q-3.2 14.15 -9.45 12.7 L-10.15 11.5 -10.65 10.8 -10.85 10.4 -10.75 10.35 -9.3 10.45 Q-4.6 11.25 -1.65 10.4 0.15 9.95 1.8 8.65 L-0.3 7.0 -0.45 6.85 0.8 4.75 1.0 4.7 3.85 6.55 4.0 6.3 1.45 4.15 1.35 4.05 2.45 1.7 2.65 1.75 3.0 1.9 5.6 4.15 5.7 3.95 M7.05 3.9 L6.65 4.45 6.65 4.5 6.4 4.65 5.85 5.7 6.2 4.95 4.3 7.35 3.45 8.45 3.45 8.5 3.4 8.6 3.05 8.95 3.05 9.0 2.95 9.0 Q0.95 10.8 -1.35 11.4 L-9.55 11.0 -8.9 12.2 0.75 11.75 Q3.8 9.9 7.45 5.0 L7.05 3.9 M4.5 5.85 L5.2 4.6 2.8 2.65 2.05 4.1 4.5 5.85 M2.55 7.95 L3.2 7.35 1.1 5.5 0.3 6.5 2.55 7.95" fill="#530029" fill-rule="evenodd" stroke="none"/>
      <path d="M-5.45 1.15 Q-2.85 1.4 -0.95 2.0 L-0.15 1.7 -0.05 1.6 0.25 1.2 0.05 0.7 -1.3 0.2 -3.75 -0.2 -3.8 -0.2 -4.05 -0.2 -4.4 -0.2 -4.45 -0.2 Q-5.55 0.1 -5.5 1.15 L-5.45 1.15 M-3.3 -0.9 L-1.6 -0.6 -1.3 -0.5 -1.0 -0.45 -0.05 -0.15 0.9 0.8 0.75 0.85 0.8 0.85 0.8 0.9 0.75 1.1 0.4 1.8 -0.2 2.25 -1.8 2.3 -2.05 2.3 -3.75 1.95 -4.75 1.85 -5.5 1.45 -5.7 1.3 -6.15 1.05 Q-6.15 -0.05 -4.8 -0.65 L-3.9 -0.9 -3.3 -0.9 M-1.8 2.85 L-1.6 2.9 -1.15 3.15 -1.05 3.2 -1.0 3.2 -0.1 4.05 Q0.0 4.7 -0.35 5.1 -0.8 5.6 -2.45 5.7 L-2.5 5.8 -2.6 5.65 -3.1 5.7 -3.45 5.5 -3.5 5.5 -4.1 5.45 -5.7 5.2 -5.95 5.15 -6.7 4.75 -7.45 4.2 Q-7.55 3.8 -7.2 3.45 -7.0 2.95 -6.0 2.55 L-6.0 2.5 -5.05 2.45 -4.25 2.4 -1.8 2.85 M-4.15 3.0 L-4.0 2.95 -5.4 3.15 -5.65 3.25 Q-6.15 3.4 -6.4 3.75 -6.65 4.0 -6.55 4.45 L-6.3 4.5 -5.75 4.55 -2.45 5.2 -1.1 4.9 -0.8 4.75 Q-0.7 4.5 -0.95 4.05 L-1.1 3.85 -1.45 3.75 Q-2.8 3.05 -4.15 3.0" fill="#530029" fill-rule="evenodd" stroke="none"/>
      <path d="M-4.4 -0.2 L-4.05 -0.2 -3.8 -0.2 -3.75 -0.2 -1.3 0.2 0.05 0.7 0.25 1.2 -0.05 1.6 -0.15 1.7 -0.95 2.0 Q-2.85 1.4 -5.45 1.15 L-5.45 1.0 -5.45 0.9 -4.2 -0.15 -4.4 -0.2 M-4.15 3.0 L-4.15 3.05 -4.15 3.0 Q-2.8 3.05 -1.45 3.75 L-1.1 3.85 -0.95 4.05 Q-0.7 4.5 -0.8 4.75 L-1.1 4.9 -2.45 5.2 -5.75 4.55 Q-6.1 4.15 -5.8 3.75 L-5.65 3.25 -5.4 3.15 -4.0 2.95 -4.15 3.0" fill="#880044" fill-rule="evenodd" stroke="none"/>
      <path d="M-4.4 -0.2 L-4.2 -0.15 -5.45 0.9 -5.45 1.0 -5.45 1.15 -5.5 1.15 Q-5.55 0.1 -4.45 -0.2 L-4.4 -0.2 M-5.65 3.25 L-5.8 3.75 Q-6.1 4.15 -5.75 4.55 L-6.3 4.5 -6.4 3.75 Q-6.15 3.4 -5.65 3.25" fill="#ffddee" fill-rule="evenodd" stroke="none"/>
    </g>
  </defs>
</svg>
