<?xml version="1.0" encoding="UTF-8" standalone="no"?>
<svg xmlns:xlink="http://www.w3.org/1999/xlink" height="38.3px" width="36.05px" xmlns="http://www.w3.org/2000/svg">
  <g transform="matrix(1.0, 0.0, 0.0, 1.0, 23.8, 14.85)">
    <use height="17.9" transform="matrix(1.0, 0.0, 0.0, 1.0, -15.45, -4.6)" width="24.9" xlink:href="#shape0"/>
  </g>
  <defs>
    <g id="shape0" transform="matrix(1.0, 0.0, 0.0, 1.0, 15.45, 4.6)">
      <path d="M7.1 -3.1 L7.35 -2.75 9.45 8.4 9.3 8.8 Q7.25 10.9 4.0 10.2 L3.8 10.05 3.2 10.75 Q-4.2 15.05 -14.4 12.15 L-14.8 11.8 Q-15.55 10.3 -15.45 7.55 L-15.3 6.9 -15.0 6.65 Q-12.5 5.3 -9.2 2.4 L-8.55 -1.2 -8.55 -1.3 Q-8.55 -2.05 -7.25 -2.85 -4.8 -4.25 -0.8 -4.55 3.95 -4.95 7.1 -3.1" fill="#3f0f02" fill-rule="evenodd" stroke="none"/>
      <path d="M-7.2 -1.25 Q-6.2 -2.55 -2.25 -3.25 2.55 -4.2 6.1 -2.1 L7.0 1.15 Q7.85 5.0 8.0 8.15 6.75 9.4 4.85 9.05 4.1 6.8 4.2 6.45 L2.45 9.7 Q-3.05 14.05 -13.65 11.05 L-14.15 9.2 Q-14.4 7.65 -14.05 7.65 -11.25 6.15 -7.9 2.9 L-7.2 -1.25" fill="#b74513" fill-rule="evenodd" stroke="none"/>
      <path d="M1.8 -3.5 Q4.35 -3.2 6.1 -2.1 L7.0 1.15 Q7.85 5.0 8.0 8.15 6.75 9.4 4.85 9.05 4.1 6.8 4.2 6.45 L2.45 9.7 Q-3.05 14.05 -13.65 11.05 -14.25 9.5 -14.25 7.7 -11.25 9.2 -5.75 8.75 -0.05 8.3 1.85 6.2 2.95 3.25 2.55 0.5 L1.8 -3.5" fill="#912c09" fill-rule="evenodd" stroke="none"/>
      <path d="M2.3 -0.1 Q1.6 -0.35 1.6 -1.2 1.6 -1.75 2.0 -2.05 L2.6 -2.35 Q3.25 -2.35 3.55 -1.75 3.8 -2.45 4.5 -2.45 5.55 -2.45 5.55 -1.3 L5.55 -1.2 Q6.45 -1.05 6.45 -0.05 6.45 1.15 5.45 1.15 L4.85 0.95 5.1 1.65 Q5.1 2.8 4.05 2.8 3.3 2.8 3.05 1.95 L2.35 2.25 2.3 2.2 Q1.35 2.05 1.35 1.05 1.35 0.0 2.3 -0.1" fill="#f9ff00" fill-rule="evenodd" stroke="none"/>
      <path d="M3.2 0.0 Q3.2 -0.75 3.85 -0.75 4.55 -0.75 4.55 0.0 4.55 0.75 3.85 0.75 3.2 0.75 3.2 0.0" fill="#d80000" fill-rule="evenodd" stroke="none"/>
      <path d="M2.05 -2.1 L2.6 -2.35 Q3.25 -2.35 3.55 -1.75 3.8 -2.45 4.5 -2.45 5.55 -2.45 5.55 -1.3 L5.55 -1.2 Q6.45 -1.05 6.45 -0.05 6.45 1.15 5.45 1.15 L4.85 0.95 5.1 1.65 Q5.1 2.8 4.05 2.8 3.45 2.8 3.05 2.0 L2.6 2.2 Q3.0 1.3 2.55 -0.05 2.5 -1.2 2.05 -2.1" fill="#dbb000" fill-rule="evenodd" stroke="none"/>
      <path d="M3.2 0.0 Q3.2 -0.75 3.85 -0.75 4.55 -0.75 4.55 0.0 4.55 0.75 3.85 0.75 3.2 0.75 3.2 0.0" fill="#b80000" fill-rule="evenodd" stroke="none"/>
      <path d="M-9.0 3.95 L-8.9 4.0 Q-8.55 3.5 -8.0 3.3 -6.75 2.9 -6.4 4.0 L-6.45 4.7 Q-5.45 4.7 -5.25 5.45 -5.0 6.55 -6.3 6.9 L-6.75 6.95 -6.7 7.0 Q-6.45 8.15 -7.7 8.45 -9.0 8.75 -9.3 7.7 L-9.25 7.15 Q-9.5 7.4 -9.95 7.5 -11.2 7.95 -11.55 6.8 -11.75 6.05 -10.9 5.5 L-9.0 3.95" fill="#f9ff00" fill-rule="evenodd" stroke="none"/>
      <path d="M-8.0 5.7 Q-8.0 6.3 -8.7 6.3 -9.3 6.3 -9.3 5.7 -9.3 5.05 -8.7 5.05 -8.0 5.05 -8.0 5.7" fill="#d80000" fill-rule="evenodd" stroke="none"/>
      <path d="M-11.65 7.95 Q-11.3 8.15 -11.45 8.55 L-10.7 8.65 Q-10.15 8.95 -10.65 9.55 L-10.7 9.65 -10.65 9.7 Q-10.4 10.05 -10.7 10.5 -11.15 11.05 -11.65 10.7 L-11.8 10.4 -12.0 10.8 Q-12.5 11.4 -12.95 10.95 -13.4 10.65 -13.05 10.15 L-13.55 10.0 Q-14.0 9.65 -13.55 9.05 -13.15 8.5 -12.65 8.9 L-12.7 8.3 -12.55 8.05 Q-12.05 7.5 -11.65 7.95" fill="#f9ff00" fill-rule="evenodd" stroke="none"/>
      <path d="M-12.15 9.05 Q-11.7 9.05 -11.7 9.5 -11.7 10.0 -12.15 10.0 -12.5 10.0 -12.5 9.5 -12.5 9.05 -12.15 9.05" fill="#d80000" fill-rule="evenodd" stroke="none"/>
      <path d="M-11.45 8.55 Q-10.25 8.45 -10.45 9.2 L-10.7 9.65 -10.65 9.7 Q-10.4 10.05 -10.7 10.5 -11.15 11.05 -11.65 10.7 L-11.8 10.4 -12.0 10.8 Q-12.5 11.4 -12.95 10.95 -13.4 10.65 -13.05 10.15 L-13.55 10.0 Q-14.0 9.65 -13.55 9.05 -13.15 8.55 -12.7 8.9 L-12.7 8.25 -11.45 8.55" fill="#dbb000" fill-rule="evenodd" stroke="none"/>
      <path d="M-12.15 9.05 Q-11.7 9.05 -11.7 9.5 -11.7 10.0 -12.15 10.0 -12.5 10.0 -12.5 9.5 -12.5 9.05 -12.15 9.05" fill="#b80000" fill-rule="evenodd" stroke="none"/>
      <path d="M0.25 7.05 Q0.5 7.5 0.35 7.9 0.2 8.45 -0.45 8.45 0.05 8.9 -0.15 9.5 -0.5 10.3 -1.45 10.0 L-1.5 9.95 Q-1.95 10.65 -2.75 10.3 -3.7 9.95 -3.4 9.05 L-3.05 8.7 -3.7 8.7 -4.05 8.45 Q-4.55 8.05 -4.4 7.45 -4.05 6.9 -3.3 6.9 L-3.4 6.25 Q-3.05 5.45 -2.05 5.75 -1.25 6.05 -1.4 6.9 -0.9 6.4 -0.3 6.7 0.05 6.8 0.25 7.05" fill="#f9ff00" fill-rule="evenodd" stroke="none"/>
      <path d="M-1.95 7.4 Q-1.45 7.4 -1.3 7.9 L-2.55 8.25 -2.65 8.0 Q-2.65 7.4 -1.95 7.4" fill="#d80000" fill-rule="evenodd" stroke="none"/>
      <path d="M-2.55 8.25 L-1.3 7.9 -1.25 8.0 Q-1.25 8.65 -1.95 8.65 L-2.55 8.25" fill="#d80000" fill-rule="evenodd" stroke="none"/>
      <path d="M0.35 7.25 L0.35 7.9 Q0.2 8.45 -0.45 8.45 0.05 8.9 -0.15 9.5 -0.5 10.3 -1.45 10.0 L-1.5 9.95 Q-1.95 10.65 -2.75 10.3 -3.7 9.95 -3.4 9.05 L-3.2 8.75 -3.7 8.7 -3.95 8.5 -2.45 8.25 -2.3 8.5 0.35 7.25" fill="#dbb000" fill-rule="evenodd" stroke="none"/>
      <path d="M-2.55 8.25 L-1.25 7.95 -1.25 8.0 Q-1.25 8.65 -1.95 8.65 L-2.55 8.25" fill="#b80000" fill-rule="evenodd" stroke="none"/>
      <path d="M6.7 5.7 Q7.0 5.4 7.45 5.7 7.85 6.15 7.45 6.7 L7.35 6.7 Q7.8 7.15 7.35 7.65 6.85 8.2 6.45 7.75 L6.25 7.45 6.05 7.9 Q5.55 8.45 5.1 8.0 4.75 7.75 5.0 7.25 L4.55 7.15 Q4.05 6.7 4.5 6.15 4.95 5.65 5.45 5.95 5.25 5.5 5.5 5.15 5.95 4.55 6.5 5.0 6.8 5.2 6.7 5.7" fill="#dbb000" fill-rule="evenodd" stroke="none"/>
      <path d="M6.5 6.5 Q6.5 7.0 6.05 7.0 5.6 7.0 5.6 6.5 5.6 6.05 6.05 6.05 6.5 6.05 6.5 6.5" fill="#b80000" fill-rule="evenodd" stroke="none"/>
      <path d="M-3.4 2.05 Q-3.05 2.4 -3.2 2.75 -2.75 2.55 -2.45 2.75 -1.95 3.2 -2.4 3.75 L-2.45 3.8 Q-2.15 4.15 -2.45 4.7 -2.9 5.25 -3.45 4.8 L-3.65 4.55 -3.75 4.95 Q-4.2 5.5 -4.75 5.15 -5.15 4.75 -4.9 4.3 L-5.3 4.2 Q-5.8 3.7 -5.3 3.2 -5.0 2.75 -4.45 3.0 -4.7 2.65 -4.3 2.25 -3.9 1.7 -3.4 2.05" fill="#f9ff00" fill-rule="evenodd" stroke="none"/>
      <path d="M-3.3 3.65 Q-3.3 4.05 -3.8 4.05 -4.25 4.05 -4.25 3.65 -4.25 3.2 -3.8 3.2 -3.3 3.2 -3.3 3.65" fill="#d80000" fill-rule="evenodd" stroke="none"/>
    </g>
  </defs>
</svg>
