<svg xmlns:xlink="http://www.w3.org/1999/xlink" height="38.3" width="36.05" xmlns="http://www.w3.org/2000/svg"><use height="19.1" transform="translate(10.45 11.55)" width="22.05" xlink:href="#a"/><defs><g id="a" fill-rule="evenodd"><path d="M7.05 1.85q3.4 3-.3 8.1L4.8 12.3Q2.9 15-1.35 15.7q-3.9.4-7.5-.85l-2.85-1.3q-1-.35-1.3-1.2l-.2-.75q-.5-1.35.45-3l1-1.3 8.15-3.85q8.55-3.5 10.65-1.6" fill="#280103" transform="translate(13.35 3.3)"/><path d="M6.15 9.2q-1.45 1.05-2 2.6-1.5 2.25-5.2 3l-7.55-.35-3.25-1.45q-.95-.9-.7-2.8l.35-1.75 8.75-3.75Q5.55 1.2 7 2.55q2.45 2.4-.85 6.65" fill="#8e0707" transform="translate(13.35 3.3)"/><path d="M4.25 10.1Q3.5 12.25.4 13.35q-4.65 1.4-8.95-.1-5.3-1.15-3.55-4.75l.1 1.55q.7 1.75 3.25 2.65 5.9 1.75 10.5-.6L3.7 9.95l1.35-2q2.5-1.85 2.75-3.9l-.1 1.4Q7.2 7 5.5 8.25L4.25 10.1" fill="#51031f" transform="translate(13.35 3.3)"/><path d="M7 2.55Q9.65 5 5.05 8L3.7 10Q2.25 12.3.4 12.7q-3.5 1.5-9.15 0-3.55-1-3.5-3.4l.9-2.3v-.15L-3.05 4Q5.65 1.3 7 2.55" fill="#cc0303" transform="translate(13.35 3.3)"/><path d="M.7-3.3q4.95.75 5.45 2.3 2.3 4.75-.35 7.5L4.15 7.75Q1.8 12.45-2.2 12.3q-2.1.65-4-.05l-1.4-.9Q-11 11.3-12 9q-.3-1 .8-2.65l3.35-3.8L-6.3-.5Q-4.95-2.75-2-3.25L.7-3.3" fill="#21100a" transform="translate(13.35 3.3)"/><path d="m-2.6-2.25 1.8-.15Q4.05-2.7 5.75.45q.9 1.5.75 3.1-.75 2.4-3.3 4-.95 2.65-3.95 3.65-3.55 1.1-5.2.1l-.85-1.2q-1 .7-2.4.35-1.75-.15-1.8-1.75l.3-1.6 2.45-2.6 2.2-3.95q1.3-2.25 3.45-2.8" fill="#c98036" transform="translate(13.35 3.3)"/><path d="M-7.05 10.55Q-8 8.5-6.7 7.25l-.15 1.7q-.1 1.65.5 2.1l-.7-.5" fill="#21100a" transform="translate(13.35 3.3)"/><path d="m-7.25 9.55-.3-1.1q-.25-1.2.2-1.4l.55.55-.45 1.95" fill="#21100a" transform="translate(13.35 3.3)"/><path d="M2.95-1.95q1.95.7 2.6 2l-5.8-.1q-5.5-.4-3.85-1.6l1.3-.55 3.95-.25 1.8.5m-1 8.55.25-.05q1.3-.25 3.95-4.8.65 1-.15 2.5l-2.8 3.2q-2.95 5.1-7.8 3.85-.7-.2-.6-1.25l.2-1q1.65 1.25 4.4 0-.4.95.15-.2l2.4-2.25" fill="#965112" transform="translate(13.35 3.3)"/><path d="m1.2 8.8-1.75 1-.75-.05.85-.9L.2 7.7q1-1.35 3.25-2.1l1.05-.55L1.2 8.8m-8.75-.55.35 2-3.15-.15-.7-.9q1.35.75 3.5-.95" fill="#965112" transform="translate(13.35 3.3)"/><path d="M1.75 11Q.25 9.55-1.6 8.45q-3.7-2.25-5.2-.6L-8.25 6.7q-1.6-1.1-2.6-.65v-1.1q.15-1.15 1-1.2l1.15-.15q1.5.15 2.95 1.2l3-.45Q.8 4.75 3.7 8.8q-.25 1.65-1.95 2.2" fill="#660203" transform="translate(13.35 3.3)"/><path d="M1.8 10.7Q.65 9.25-1.05 8.1q-3.3-2.25-5.7-.75L-8.1 6.3q-1.6-1-2.45-.6l1.1-1.65L-8 4.2q1.55.25 2.15 1l3-.35q3.5.45 6.1 4Q3.4 10.2 1.8 10.7" fill="#cc0303" transform="translate(13.35 3.3)"/><path d="m-10.85 5.8.85.15-.6.4-.25-.55" fill="#660203" transform="translate(13.35 3.3)"/><path d="M3.2 8.95q-.25 1.35-1.4 1.55-3.5-3.15-4.9-3.65l4.85.25L3.2 8.95M-5.85 5.1l-.9 2.2-1.55-1.05-1-.5 1.5.05q.35.55 1.95-.7" fill="#51031f" transform="translate(13.35 3.3)"/><path d="M-7.05 5.1q-1.25-.75-2.3-.5l-.85.45.2-.3.9-.5q1.5-.15 2.05.85m1.45.5 1.25-.4q1.4-.4 2.5 0l.35.55-4.1-.15" fill="#fff" transform="translate(13.35 3.3)"/></g></defs></svg>