<svg xmlns:xlink="http://www.w3.org/1999/xlink" height="38.3" width="36.05" xmlns="http://www.w3.org/2000/svg"><use height="18.7" transform="translate(12.6 11.7)" width="20.65" xlink:href="#a"/><defs><g id="a" fill-rule="evenodd"><path d="M7.65 1.25Q5.4-.35-2.45 3.7-6.4 5.75-9.9 8.1l-.9 1.3q-.75 1.65-.15 2.9.05 1.25 1.6 1.65 4.2 2.4 10.05 1.2 4-.95 5.6-3.7Q6.8 9.75 8 9q3.1-5.1-.35-7.75" fill="#1e0114" transform="translate(11.2 3.15)"/><path d="M7.6 1.95Q6.15.75-2.2 4.85l-8.05 4.3-.25 1.75q-.05 1.85.9 2.6 5.25 2.55 10.5.85 3.5-1.05 4.75-3.3.45-1.5 1.7-2.65Q10.1 4 7.6 1.95" fill="#9e0459" transform="translate(11.2 3.15)"/><path d="m8.5 4.6.05-1.15q-.2 1.9-2.35 3.8-.7.5-1.15 2.05L3.4 11.55q-4.3 2.55-10 1.4-4.05-1-3.6-3.7-1.35 3.6 3.8 4.25 2.65.65 5.9.05l2.7-.7Q4.05 12 5 10.6l1.6-3.1q1.6-1.35 1.9-2.9" fill="#49022c" transform="translate(11.2 3.15)"/><path d="M7.6 1.95Q6.2.9-1.9 4.2l-7.7 3.4v.05q-2.55 4.2 2.95 5.3 5.6.95 8.75-.8 1.8-.5 2.95-2.8.35-1.6 1.15-2.05.95-.7 1.7-1.85 1.4-2.15-.3-3.5" fill="#ff2995" transform="translate(11.2 3.15)"/><path d="m1.1-3.15-2.6.3Q-4.25-2.1-5.3.1l-1.3 3.05-2.85 4q-.9 1.65-.55 2.55.95 2.15 4.4 1.95 2.1 1.65 5.25.4 3.8-.2 5.65-4.85l1.5-1.4Q9.1 3 6.5-1.4l-.9-.75q-1.5-.8-4.5-1" fill="#21100a" transform="translate(11.2 3.15)"/><path d="M-1.95-1.85q-2 .7-3.05 2.9l-.6 1.9q-.4 1.2-1.2 2.1-1.35 1.5-2.1 2.75-1 3.1 1.7 3.05 1.3.25 2.25-.55.6 2.65 5.85.55 2.85-1.2 3.5-3.8 2.3-1.8 2.8-4.1 0-1.6-.95-2.95Q4.4-2.85-.2-2.1l-1.75.25" fill="#c98036" transform="translate(11.2 3.15)"/><path d="m-5.15 10.75.5.35q-.75-.75-.45-3.55-1.1 1.3-.05 3.2" fill="#21100a" transform="translate(11.2 3.15)"/><path d="m-5.45 9.85.3-1.95-.6-.45q-.65.35.3 2.4" fill="#21100a" transform="translate(11.2 3.15)"/><path d="M6-.3q-.75-1.2-2.6-1.75l-1.75-.3Q-1.8-2.4-3.4-1.1-5.7.9 6-.3m.75 1.55L5.5 3.6Q4.1 5.95 3.3 6.15l-.2.1L1 8.55q-.4 1.2-.15.2-2.5 1.5-4.2.4-.45 1.95.55 2.1 4.8.8 7.2-4.35l2.4-3.25q.65-1.5-.05-2.4" fill="#965112" transform="translate(11.2 3.15)"/><path d="m2.6 8.4 2.7-3.8-.85.55Q1.15 6.6 1 8.55l-.75 1H1L2.6 8.4m-8.45.25q-1.95 1.8-3.25 1.1.65 2.05 3.8.75l-.55-1.85" fill="#965112" transform="translate(11.2 3.15)"/><path d="M3.3 10.5q1-.45 1.4-1.4l.25-.9Q1.9 4.55-1.55 4.5q-1.75 0-2.8.65-1.5-.9-2.95-.85l-1.15.2q-1.2.15-.7 2.25.9-.5 2.5.45.85.45 1.5 1 1.35-1.75 5.05.05l3.4 2.25" fill="#1e0114" transform="translate(11.2 3.15)"/><path d="M.4 7.95q1.65 1 2.9 2.25.9-.35 1.15-1.2l.15-.75q-2.9-3.2-6.25-3.3-1.7 0-2.85.6-.6-.65-2.1-.8h-1.35q-.8.4-.95 1.65.8-.4 2.4.35l1.35.9Q-3 6.1.4 7.95" fill="#ff2995" transform="translate(11.2 3.15)"/><path d="M-9.2 6.6q-.1.45.3.45l.5-.45h-.8" fill="#1e0114" transform="translate(11.2 3.15)"/><path d="M4.5 8.4 2.95 6.75l-4.6.15L3.3 9.95q.7-.1 1.05-.85l.15-.7m-9-2.95q-1.35 1.4-1.8.85l-1.55.05 1.1.4 1.6.85.65-2.15" fill="#9e0459" transform="translate(11.2 3.15)"/><path d="m-5.6 5.55-.5-.4-1.55-.25-.85.55-.1.3q.2-.3.75-.5.95-.35 2.25.3m1.4.4q1.3-.55 2.7-.45l1.2.2-.4-.5q-1.55-.4-3.5.75" fill="#fff" transform="translate(11.2 3.15)"/></g></defs></svg>