<svg xmlns:xlink="http://www.w3.org/1999/xlink" height="38.3" width="36.05" xmlns="http://www.w3.org/2000/svg"><use height="18.7" transform="translate(11.7 11.3)" width="20.7" xlink:href="#a"/><defs><g id="a" fill-rule="evenodd"><path d="M6.75.85Q4.6-.75-3.3 3.3q-4 2.05-7.45 4.4l-.9 1.3q-.8 1.65-.2 2.9.05 1.25 1.65 1.65 4.2 2.4 10 1.2 4-.95 5.65-3.7.45-1.7 1.65-2.45 3.15-5.1-.35-7.75" fill="#141423" transform="translate(12.1 3.55)"/><path d="M6.75 1.55Q5.25.35-3.1 4.45q-4.2 2.05-8 4.3l-.25 1.75q0 1.85.95 2.6 5.15 2.55 10.45.85 3.45-1.05 4.75-3.3.4-1.5 1.65-2.65 2.85-4.4.3-6.45" fill="#52a0ff" transform="translate(12.1 3.55)"/><path d="m7.6 4.2.05-1.15q-.15 1.9-2.35 3.8-.7.5-1.1 2.05l-1.7 2.25q-4.25 2.55-9.95 1.4-4.05-1-3.55-3.7-1.4 3.6 3.7 4.25 2.65.65 5.9.05l2.7-.7q1.85-.85 2.8-2.25l1.65-3.1Q7.3 5.75 7.6 4.2" fill="#004aa3" transform="translate(12.1 3.55)"/><path d="M6.75 1.55Q5.3.5-2.8 3.8l-7.65 3.4v.05q-2.6 4.2 2.95 5.25 5.55 1 8.75-.75 1.8-.5 3-2.8.3-1.6 1.05-2.05Q6.35 6.2 7 5.05q1.45-2.15-.25-3.5" fill="#7dd1ff" transform="translate(12.1 3.55)"/><path d="m.3-3.55-2.6.3Q-5.05-2.5-6.2-.3l-1.25 3.05-2.85 4q-.95 1.6-.6 2.5 1.1 2.15 4.4 2 2.1 1.65 5.3.4 3.75-.2 5.6-4.9L5.9 5.4q2.3-2.8-.3-7.2l-.9-.75q-1.5-.8-4.4-1" transform="translate(12.1 3.55)"/><path d="M-2.85-2.25q-1.95.7-3.05 2.9l-.6 1.9q-.35 1.2-1.2 2.1L-9.8 7.4q-.95 3.1 1.75 3.05 1.3.25 2.2-.55.6 2.65 5.9.55 2.8-1.25 3.45-3.8 2.3-1.8 2.85-4.1 0-1.6-.95-2.95-1.9-2.85-6.5-2.1l-1.75.25" fill="#c98036" transform="translate(12.1 3.55)"/><path d="m-6 10.35.5.35q-.75-.65-.4-3.55-1.2 1.3-.1 3.2" transform="translate(12.1 3.55)"/><path d="M-6.25 9.35-6 7.5l-.6-.45q-.7.35.35 2.3" transform="translate(12.1 3.55)"/><path d="M5.15-.7q-.8-1.2-2.65-1.75l-1.75-.3q-3.4-.1-5.05 1.25-2.25 2 9.45.8m.7 1.55L4.65 3.2Q3.3 5.55 2.5 5.75l-.3.15L.15 8.15q-.4 1.2-.1.2-2.6 1.5-4.25.35-.45 2 .5 2.15 4.8.8 7.2-4.35L6 3.25q.6-1.5-.15-2.4" fill="#965112" transform="translate(12.1 3.55)"/><path d="m1.7 8 2.85-3.85-.95.6Q.35 6.2.15 8.15l-.75 1h.7L1.7 8m-8.45.15q-1.85 1.9-3.25 1.2.7 2 3.8.75l-.55-1.95" fill="#965112" transform="translate(12.1 3.55)"/><path d="M2.45 10.1q.95-.45 1.45-1.4l.2-.9Q1.05 4.15-2.4 4.1q-1.75 0-2.85.65-1.5-.9-2.95-.85l-1.1.2q-1.2.15-.75 2.25.9-.5 2.55.45.8.45 1.5 1 1.3-1.75 5 .05l3.45 2.25" fill="#004aa3" transform="translate(12.1 3.55)"/><path d="M2.45 9.8q.9-.45 1.15-1.2l.1-.75q-2.9-3.2-6.25-3.3-1.65-.05-2.8.55-.6-.65-2.1-.75h-1.4q-.75.4-.95 1.65.85-.4 2.45.35l1.4.9q2.15-1.55 5.45.3 1.7 1 2.95 2.25" fill="#7dd1ff" transform="translate(12.1 3.55)"/><path d="M-10.05 6.15q-.1.5.25.5l.6-.45-.85-.05" fill="#004aa3" transform="translate(12.1 3.55)"/><path d="m3.65 8-1.5-1.65-4.7.15 5 3.05q.65-.1 1-.85l.2-.7m-9-2.95q-1.4 1.4-1.75.85l-1.6.05 1.1.4 1.65.85.6-2.15" fill="#52a0ff" transform="translate(12.1 3.55)"/><path d="m-6.5 5.1-.5-.35q-.65-.35-1.55-.25l-.85.55-.1.3q.25-.3.8-.5.95-.4 2.2.25m1.45.45Q-3.8 5-2.35 5.1l1.25.2-.4-.55q-1.65-.35-3.55.8" fill="#fff" transform="translate(12.1 3.55)"/></g></defs></svg>