<svg xmlns:xlink="http://www.w3.org/1999/xlink" height="38.3" width="36.05" xmlns="http://www.w3.org/2000/svg"><use height="19.55" transform="translate(11.5 10.65)" width="21.25" xlink:href="#a"/><defs><g id="a" fill-rule="evenodd"><path d="M8.9 5.95q-.25 2.9-5.65 6.6-1.35 1.05-4.1 2-3.8 1.25-6.5.55-2.65-.55-3.75-2.9-3.45-6.6 3-13.75 3.05-3.25 9.5-2.5 8.3 1.15 7.5 10" fill="#1c191d" transform="translate(12.3 4.2)"/><path d="M-3.4 13.35q-4.65.85-6.15-1.95Q-12.5 5.7-6.8-.3q2.5-2.65 8-2 6.45.9 5.95 8.1-.2 2.1-4.9 5.3-2.3 1.6-5.65 2.25" fill="#fff" transform="translate(12.3 4.2)"/><path d="M7 5.8q-.1 2.1-4.8 5.3-2.3 1.6-5.75 2.25-4.6.85-6.05-1.95-1.5-2.95 7.55-5.1Q7.2 4.05 7 5.8" fill="#d4d2d4" transform="translate(12.3 4.2)"/><path d="M-3.55-.2-.6-2.4l2.25.25L-1.15.2q-3 2.85-4 4.9-1.6 3.25-1.35 8.45l-1.8-.65q-.45-4.25.9-8.05.8-2.4 3.85-5.05" fill="red" transform="translate(12.3 4.2)"/><path d="M-5.9 7.45q-.65 2.85-.6 6-1-.1-1.8-.6l.05-4.25 2.35-1.15" fill="#c00000" transform="translate(12.3 4.2)"/></g></defs></svg>