<?xml version="1.0" encoding="UTF-8" standalone="no"?>
<svg xmlns:xlink="http://www.w3.org/1999/xlink" height="38.3px" width="36.05px" xmlns="http://www.w3.org/2000/svg">
  <g transform="matrix(1.0, 0.0, 0.0, 1.0, 23.8, 14.85)">
    <use height="19.5" transform="matrix(1.0, 0.0, 0.0, 1.0, -15.65, -4.25)" width="23.9" xlink:href="#shape0"/>
  </g>
  <defs>
    <g id="shape0" transform="matrix(1.0, 0.0, 0.0, 1.0, 15.65, 4.25)">
      <path d="M6.05 -0.3 L6.75 2.6 7.5 3.45 Q8.1 4.5 7.55 5.9 L8.1 7.3 Q8.5 8.95 7.8 10.5 1.2 15.55 -5.35 15.2 -11.6 15.55 -14.6 13.65 -16.6 11.7 -14.85 9.3 L-13.95 8.35 Q-14.3 6.75 -12.8 5.85 -13.1 4.9 -11.05 3.4 L-9.15 3.4 -8.6 2.9 Q-9.75 2.3 -8.3 1.1 L-7.15 0.2 -6.15 0.2 -5.5 -0.1 Q-6.4 -1.8 -3.7 -2.7 L-3.3 -2.6 -1.9 -3.8 0.75 -4.25 Q3.8 -3.95 6.05 -0.3" fill="#1c140c" fill-rule="evenodd" stroke="none"/>
      <path d="M-7.6 10.05 Q-11.1 9.85 -13.35 8.8 -13.6 7.45 -12.0 6.0 L-10.35 4.9 Q-8.25 4.0 -5.05 0.1 L-2.25 -3.4 Q2.55 -5.0 5.15 -0.5 6.65 1.0 6.15 6.2 -0.5 10.45 -7.6 10.05" fill="#dd994f" fill-rule="evenodd" stroke="none"/>
      <path d="M1.35 8.65 Q4.85 7.45 6.75 5.8 8.25 7.05 7.2 10.1 0.5 14.9 -7.4 14.5 -11.3 14.3 -13.95 13.1 L-15.0 11.05 Q-14.8 9.6 -14.0 9.1 L-13.3 8.8 Q-5.6 11.05 1.35 8.65" fill="#a05d05" fill-rule="evenodd" stroke="none"/>
      <path d="M-11.9 5.8 Q-12.75 5.7 -11.8 4.65 L-10.7 3.55 Q-3.9 3.6 -1.7 9.8 -4.8 11.05 -6.3 10.15 -7.3 7.2 -9.7 6.2 L-11.9 5.8" fill="#a05d05" fill-rule="evenodd" stroke="none"/>
      <path d="M-8.1 2.65 Q-8.8 2.25 -7.9 1.35 L-6.85 0.55 Q-0.2 0.5 3.9 7.65 1.3 9.15 -0.8 9.15 -2.95 5.0 -5.7 3.45 L-8.1 2.65" fill="#a05d05" fill-rule="evenodd" stroke="none"/>
      <path d="M-3.85 -2.2 L0.0 -1.9 Q4.4 -0.65 7.05 4.1 8.15 5.85 5.1 7.0 0.9 -0.1 -5.1 -0.1 L-5.1 -1.05 Q-4.9 -2.0 -3.85 -2.2" fill="#a05d05" fill-rule="evenodd" stroke="none"/>
      <path d="M-11.85 5.5 Q-12.2 5.3 -11.5 4.65 L-10.65 4.0 Q-5.4 3.55 -2.0 9.7 -3.4 10.7 -5.55 10.6 -6.8 6.85 -9.45 5.8 L-11.85 5.5" fill="#ffff1c" fill-rule="evenodd" stroke="none"/>
      <path d="M3.3 7.9 L3.3 8.3 Q2.85 8.9 0.15 9.75 -2.3 4.8 -5.3 3.15 L-7.8 2.5 Q-8.25 2.3 -7.5 1.65 L-6.75 1.0 Q-1.5 0.7 3.3 7.9" fill="#ffff1c" fill-rule="evenodd" stroke="none"/>
      <path d="M6.45 5.9 Q7.55 8.0 6.65 10.0 0.0 14.3 -7.65 13.95 -11.5 13.75 -13.95 12.7 -14.9 11.55 -14.25 10.1 L-13.45 8.9 Q-5.4 10.9 1.35 8.6 4.7 7.45 6.45 5.9" fill="#ffff1c" fill-rule="evenodd" stroke="none"/>
      <path d="M-4.8 -0.2 Q-5.2 -0.5 -4.65 -1.25 L-4.05 -1.9 Q3.35 -2.25 6.45 3.7 7.65 5.2 5.5 6.85 2.15 1.7 -1.7 0.25 L-4.8 -0.2" fill="#ffff1c" fill-rule="evenodd" stroke="none"/>
      <path d="M1.0 9.2 Q-6.45 11.4 -13.95 9.3 L-13.3 8.8 Q-10.6 9.7 -6.8 9.75 0.8 9.9 6.45 5.9 L6.95 6.5 Q4.7 8.05 1.0 9.2" fill="#a05d05" fill-rule="evenodd" stroke="none"/>
      <path d="M-6.8 13.45 Q-9.85 13.45 -13.75 12.0 -14.25 11.6 -14.05 10.65 L-13.75 9.8 Q-13.65 11.9 -5.65 13.4 L-6.8 13.45" fill="#999911" fill-rule="evenodd" stroke="none"/>
      <path d="M3.05 8.5 Q0.95 13.0 -2.5 13.6 L-5.8 13.8 Q-1.6 13.3 1.4 9.1 L3.05 8.5" fill="#ffffcf" fill-rule="evenodd" stroke="none"/>
      <path d="M3.05 8.5 Q3.8 8.5 6.95 6.5 7.35 7.1 6.65 10.0 3.8 12.3 -2.5 13.6 1.7 12.5 3.05 8.5" fill="#e6cf1c" fill-rule="evenodd" stroke="none"/>
      <path d="M-6.8 5.2 Q-5.35 5.6 -2.3 9.4 L-5.9 9.45 -5.85 8.65 -6.8 5.2" fill="#e6cf1c" fill-rule="evenodd" stroke="none"/>
      <path d="M-0.2 8.85 L-0.25 8.7 -1.65 6.5 Q-0.2 6.2 -3.45 1.75 -0.55 2.95 3.1 7.7 L-0.2 8.85" fill="#e6cf1c" fill-rule="evenodd" stroke="none"/>
      <path d="M5.45 6.45 L1.1 1.5 Q3.2 1.3 -1.5 -1.85 5.6 1.2 6.2 4.15 6.6 5.6 5.45 6.45" fill="#e6cf1c" fill-rule="evenodd" stroke="none"/>
      <path d="M7.0 7.05 L7.05 7.9 Q7.1 9.45 6.65 10.0 L5.6 10.6 Q6.95 8.2 7.0 7.05" fill="#cd7c00" fill-rule="evenodd" stroke="none"/>
      <path d="M3.75 1.1 Q8.4 4.5 5.5 6.45 L4.0 4.5 Q6.2 4.95 3.75 1.1" fill="#cd7c00" fill-rule="evenodd" stroke="none"/>
      <path d="M0.7 5.1 L2.85 7.6 Q1.9 8.2 -0.2 8.85 L-0.9 7.6 Q1.95 7.65 0.7 5.1" fill="#cd7c00" fill-rule="evenodd" stroke="none"/>
      <path d="M-3.7 7.95 Q-3.3 8.1 -2.3 9.4 L-5.85 9.7 -5.9 9.45 Q-4.0 9.2 -3.7 7.95" fill="#cd7c00" fill-rule="evenodd" stroke="none"/>
      <path d="M-4.75 -0.45 L-3.8 -1.85 Q-3.6 -0.7 -1.35 0.15 L-4.75 -0.45" fill="#ffffcf" fill-rule="evenodd" stroke="none"/>
      <path d="M-6.75 1.0 Q-7.0 1.6 -4.45 3.5 -6.0 2.4 -7.0 2.3 L-7.8 2.5 -6.75 1.0" fill="#ffffcf" fill-rule="evenodd" stroke="none"/>
      <path d="M-10.65 4.0 Q-10.8 4.7 -6.25 7.45 L-6.75 7.75 Q-8.35 6.0 -10.15 5.4 L-11.65 5.2 -10.65 4.0" fill="#ffffcf" fill-rule="evenodd" stroke="none"/>
    </g>
  </defs>
</svg>
