<svg xmlns:xlink="http://www.w3.org/1999/xlink" height="38.3" width="36.05" xmlns="http://www.w3.org/2000/svg"><use height="19.75" transform="translate(9.4 8.3)" width="21.85" xlink:href="#a"/><defs><g id="a" fill-rule="evenodd"><path d="m6-3.6.3 4.95Q6.75 6.6 7.45 8.2q-1.8 2.2-2.65 2.35l-1.4-.4-.45 1.25q-2.5 1.2-5.9 1.65-6.75.8-11.05-3.15-1.2-3.2 1-6.25l4.7-3.6q1.05-1.75.25-3.95l-.5-.95q-.2-1.1 1-1.7l12.3.4Q8.4-5.55 6-3.6" transform="translate(14.4 6.55)"/><path d="M2.15 10.55q-7.7 3.8-15-1v-2.4q11.3 3.7 17.8-1.35l.95-.7.4 2.95-1.9 1.6-.15-1.75-1.5.75-.6 1.9" fill="#f754a6" transform="translate(14.4 6.55)"/><path d="M5-.6q.15 4.55.9 5.7Q3.8 6.95.45 8.2q-6.8 2.45-13.3-.6-.9-3.05 5.4-6.8 1.7-1.9.15-6.65 2.7 2.25 12.3.9V-.6" fill="#fff" transform="translate(14.4 6.55)"/><path d="M5-4.95q-8.55 1.6-12.25-.75-.3-.85 6.3-.4l3.2.25q3.15.3 2.75.9m-.6 14.6L2.55 9.2l.2-.55 1.5-.75.15 1.7v.05" fill="#3a0524" transform="translate(14.4 6.55)"/><path d="M5.15-5.15q1.25.35-.1 1.1-8.9 1.85-11.9-.55-.7-.35-.6-.95l.2-.55q4.25 2.55 12.4.95" fill="#f754a6" transform="translate(14.4 6.55)"/><path d="M5.65-4.9 4.5-5.1q1.05-.1-3.45-.95 4.2.1 4.6 1.15" fill="#f754a6" transform="translate(14.4 6.55)"/><path d="M5.9 5.1Q4 6.95.7 8.2q-6.65 2.45-13.55-.6l6.1 1.2q7.2.35 12.45-4.1l.2.4" fill="#631445" transform="translate(14.4 6.55)"/><path d="M1.95 10.35Q-.6 11.8-4.35 11.8q-4.15 0-8.1-2.35 3 1.5 6.7 1.5 3.25 0 6.25-1.05l1-1.6q2.75-1.15 4.2-2.7l.5 2.25-1.45 1.2L4.5 7.7l-1.95.65-.6 2" fill="#ac3b74" transform="translate(14.4 6.55)"/><path d="M-2-2.85q3 0 6.3-.75l.45 8.45q-5.55 2.8-10.3 2.8l-1.95-.1h.65q3.85 0 9.5-3 1.05-1.1.8-3.95L3-2.1l-2.25.25q-3 0-6.2-1.5 1.2.5 3.45.5" fill="#b2b2b2" transform="translate(14.4 6.55)"/><path d="m-8.85 2.3 1.15.75q1.1 1 .4 2-1 2.55-3.55 2.35-1.2.2-1.35-.35-1.15-2.6 3.35-4.75" fill="#d1cfd0" transform="translate(14.4 6.55)"/><path d="M-12.1 5.15Q-11 3.6-9.95 4.1q1.15.55.15 2.1-1.05 1.65-2.25 1.15-1.05-.5-.05-2.2" fill="#fff" transform="translate(14.4 6.55)"/><path d="m-7.75 3.1-1.3-.7 3.3-1.1q1.55-.2-.2.15Q-7 1.7-7.5 2.4l-.25.7" fill="#d1cfd0" transform="translate(14.4 6.55)"/><path d="M-12.55 8.3q2 1.9 8.55 2.05-3.7 1.05-8.55-1.25v-.8" fill="#fff" transform="translate(14.4 6.55)"/></g></defs></svg>