<?xml version="1.0" encoding="UTF-8" standalone="no"?>
<svg xmlns:xlink="http://www.w3.org/1999/xlink" height="38.3px" width="36.05px" xmlns="http://www.w3.org/2000/svg">
  <g transform="matrix(1.0, 0.0, 0.0, 1.0, 23.8, 14.85)">
    <use height="24.5" transform="matrix(1.0, 0.0, 0.0, 1.0, -13.45, -8.55)" width="23.25" xlink:href="#shape0"/>
  </g>
  <defs>
    <g id="shape0" transform="matrix(1.0, 0.0, 0.0, 1.0, 13.45, 8.55)">
      <path d="M-4.1 -8.55 L-0.35 -7.95 4.65 -6.9 6.0 -7.2 6.5 -6.4 7.0 -5.2 8.1 -4.7 8.1 -3.2 8.35 -2.3 9.3 -2.2 8.65 -0.15 9.1 0.8 8.9 1.45 8.65 1.8 8.6 3.85 8.75 4.45 9.8 4.95 8.9 6.05 9.5 7.45 8.55 7.75 9.15 9.5 7.35 9.95 6.5 11.05 6.6 12.05 4.5 12.95 3.65 14.2 3.0 14.25 2.75 14.25 Q0.6 15.45 -1.95 15.8 L-4.75 15.95 -9.0 15.8 -8.95 15.2 -9.7 15.05 -10.1 14.85 -11.4 13.75 Q-12.9 12.8 -12.9 10.7 L-12.9 10.1 -13.15 9.45 -13.45 8.6 -12.25 7.8 -12.1 6.25 -10.9 5.7 -9.5 4.25 -8.4 2.85 Q-8.25 2.6 -8.25 1.0 L-8.95 0.6 -8.45 -0.55 -9.35 -1.65 -8.25 -2.4 -8.1 -2.55 Q-7.75 -4.9 -7.0 -6.0 L-6.9 -7.0 -6.7 -8.15 -4.6 -7.65 -4.1 -8.55" fill="#1a171b" fill-rule="evenodd" stroke="none"/>
      <path d="M7.55 -1.5 Q7.55 -1.3 7.9 -1.3 L7.6 -0.05 8.0 0.85 7.65 1.7 7.55 3.8 Q7.5 4.25 7.8 5.1 L8.15 5.3 7.75 5.8 Q7.65 6.05 8.1 6.8 L7.5 7.2 Q7.35 7.7 7.75 8.75 L6.65 9.05 5.55 10.6 5.5 11.45 3.8 12.1 3.1 13.2 2.3 13.25 Q0.55 14.35 -2.1 14.8 L-4.7 14.85 -7.85 14.75 Q-7.75 14.3 -8.0 14.25 L-9.35 14.05 -10.85 12.85 Q-12.0 12.1 -11.85 10.25 L-12.2 9.0 -11.35 8.3 -11.1 6.95 Q-10.35 6.75 -10.15 6.45 -7.85 4.3 -7.4 3.3 -7.2 2.85 -7.2 0.55 L-7.6 0.1 -7.25 -0.65 -7.85 -1.45 -7.1 -2.0 Q-6.9 -4.4 -6.15 -5.45 L-5.85 -6.9 Q-4.75 -6.5 -4.4 -6.65 -3.7 -6.8 -3.45 -7.4 L-0.4 -6.9 Q1.8 -6.7 4.35 -5.8 L5.5 -6.0 6.15 -4.5 Q6.35 -4.25 7.1 -4.0 L7.05 -3.0 7.55 -1.5" fill="#8b473a" fill-rule="evenodd" stroke="none"/>
      <path d="M0.6 -5.0 Q1.15 -4.95 1.25 -4.4 L2.65 -4.3 Q3.3 -4.55 3.9 -4.9 4.3 -4.75 4.05 -4.2 L5.6 -3.55 3.85 -2.05 Q4.1 -1.5 5.75 -1.2 5.75 -1.0 6.65 -0.8 L6.1 0.25 5.15 1.35 7.05 1.8 5.25 3.7 Q5.25 4.1 6.8 4.55 L4.6 5.25 6.65 5.7 6.25 6.45 5.5 8.35 6.35 8.95 5.15 9.6 5.55 10.6 5.5 11.45 3.8 12.1 3.1 13.25 2.3 13.25 Q0.55 14.35 -2.1 14.8 L-4.7 14.85 -7.85 14.75 Q-7.75 14.3 -8.0 14.25 L-9.35 14.05 -10.85 12.85 Q-11.6 12.45 -11.45 10.25 L-11.45 9.1 -9.75 8.5 -10.25 7.3 -9.15 6.45 Q-8.35 5.45 -7.4 3.3 -6.7 1.55 -6.65 0.55 L-7.0 -0.05 Q-6.45 -0.25 -6.35 -0.55 L-6.75 -1.3 -6.1 -1.75 Q-5.95 -3.5 -5.25 -4.45 L-5.1 -5.45 -4.0 -5.25 -2.85 -4.8 -0.95 -5.4 -0.35 -4.65 0.6 -5.0" fill="#4e2b29" fill-rule="evenodd" stroke="none"/>
      <path d="M0.05 3.2 L1.9 2.8 1.0 4.45 2.55 5.05 1.55 5.7 Q1.85 6.05 3.1 6.5 L1.4 6.8 3.25 7.95 1.55 7.75 2.15 9.6 0.35 9.8 1.1 11.75 -0.7 10.8 Q-0.95 12.95 -1.25 13.05 -1.65 13.25 -1.95 11.5 L-2.7 12.7 -2.9 11.95 Q-3.45 11.55 -4.45 12.7 L-5.35 13.8 Q-5.45 13.2 -5.85 12.8 L-7.45 14.0 Q-8.1 13.35 -9.85 13.35 -9.1 13.2 -10.15 11.6 L-12.1 10.95 Q-12.4 10.35 -11.9 10.0 -11.65 10.3 -11.35 10.25 -10.95 10.2 -10.95 9.55 -10.25 10.1 -7.95 10.35 L-8.7 9.0 Q-7.25 8.6 -6.65 8.05 -6.25 7.7 -6.65 7.05 L-7.15 6.5 -4.35 6.3 -4.85 5.6 -2.2 5.0 Q-1.75 4.45 -2.4 3.35 -1.85 3.75 -0.25 1.75 -0.35 3.25 0.05 3.2" fill="#8b473a" fill-rule="evenodd" stroke="none"/>
      <path d="M4.8 -5.3 L3.85 -5.45 3.4 -5.7 1.1 -6.4 -0.9 -6.3 -1.85 -6.8 Q-2.6 -6.3 -3.2 -6.4 L-4.0 -6.45 -6.0 -6.8 Q-3.6 -6.3 -3.45 -7.3 L-2.15 -7.15 -0.45 -6.9 Q1.75 -6.7 4.3 -5.8 L5.4 -6.0 6.1 -4.5 7.05 -4.0 7.0 -3.0 7.5 -1.5 Q7.55 -1.3 7.85 -1.3 L7.55 -0.05 7.9 0.85 7.6 1.7 7.5 3.8 7.75 5.1 8.1 5.3 7.65 5.8 8.0 6.8 7.4 7.2 Q7.3 7.5 7.8 8.8 L6.75 9.0 6.65 9.05 7.25 8.35 7.05 7.45 6.55 7.45 7.05 6.2 7.15 5.0 6.1 4.55 Q6.85 3.85 6.55 3.55 6.85 3.8 7.25 2.45 7.05 1.3 7.15 0.95 L6.25 1.05 7.4 -0.7 6.55 -1.5 Q6.6 -2.55 6.3 -2.7 L5.3 -4.25 5.9 -4.8 4.55 -4.5 4.8 -5.3" fill="#ca9577" fill-rule="evenodd" stroke="none"/>
      <path d="M-4.5 4.2 L-4.6 5.3 -3.45 5.1 Q-3.65 5.3 -3.35 6.25 -3.65 6.2 -4.25 6.75 L-2.7 7.2 -4.45 7.45 -3.5 8.5 -5.35 7.8 -4.35 9.05 -6.1 9.1 -5.15 10.5 -6.85 10.1 Q-6.5 10.35 -6.45 11.5 L-7.5 11.1 Q-7.7 10.8 -9.1 12.25 L-10.0 11.2 -10.95 10.6 Q-10.7 10.55 -10.85 9.55 L-9.35 9.95 Q-9.2 9.8 -10.0 9.0 L-7.65 8.75 -8.35 7.85 Q-6.25 7.5 -6.35 7.2 L-8.4 6.95 Q-6.25 6.45 -6.25 6.2 L-6.75 5.7 -5.6 5.35 -4.5 4.2" fill="#ca9577" fill-rule="evenodd" stroke="none"/>
      <path d="M7.35 -3.2 L7.85 -1.8 7.85 -1.4 7.4 -1.45 2.15 -1.65 7.8 1.45 7.9 1.55 7.9 3.95 8.05 4.5 8.0 5.0 7.85 5.3 7.55 5.25 Q5.35 4.55 1.85 4.2 5.4 6.1 6.65 9.25 L6.75 9.35 6.65 9.45 6.5 9.95 5.85 10.55 5.65 10.75 5.4 10.6 Q2.85 9.35 -0.2 8.75 2.3 10.75 2.4 13.3 L2.4 13.5 Q1.65 14.05 0.85 14.55 L0.8 14.0 Q0.1 10.75 -4.65 8.45 -7.5 8.75 -9.75 10.25 -10.9 11.0 -11.45 11.7 L-11.95 12.3 -12.25 10.55 -12.15 10.35 Q-10.4 8.35 -7.6 7.35 L-10.65 6.55 -9.75 5.45 -9.5 4.95 -8.0 3.8 -7.7 3.2 -7.65 2.0 Q-7.5 -0.05 -5.35 -1.65 L-6.95 -1.75 -7.35 -1.7 -7.35 -3.7 -7.2 -3.75 -5.9 -4.0 -1.7 -3.25 0.15 -3.55 Q6.9 -4.25 7.4 -3.05 L7.35 -3.2 M-4.15 6.6 Q-0.7 6.5 3.35 8.0 0.1 4.95 -4.65 4.45 -6.5 4.85 -7.85 5.5 -6.15 5.8 -4.15 6.6 M-4.65 2.55 Q0.05 1.6 6.85 3.35 2.3 0.45 -1.9 -0.95 -5.15 0.1 -6.6 2.6 L-4.65 2.55" fill="#1a171b" fill-rule="evenodd" stroke="none"/>
      <path d="M-1.7 -2.9 L0.15 -3.25 7.05 -2.95 7.5 -1.75 Q3.75 -2.25 0.8 -1.9 L7.6 1.75 7.6 3.45 Q3.0 0.25 -1.9 -1.3 -5.75 -0.05 -7.2 3.0 L-4.65 2.95 Q0.75 1.85 7.6 3.95 L7.65 4.85 Q3.55 3.7 -0.25 3.7 4.85 5.35 6.35 9.35 L6.15 9.75 6.25 9.8 5.6 10.3 Q1.9 8.5 -1.85 8.05 2.05 10.3 2.05 13.3 L1.1 13.95 Q0.55 10.5 -4.6 8.05 -7.65 8.35 -9.95 10.0 -11.15 10.75 -11.7 11.5 L-11.9 10.6 Q-9.65 8.05 -6.5 7.25 L-10.0 6.35 -9.45 5.6 -9.2 5.1 -7.7 4.05 -7.35 3.3 -7.35 2.0 Q-7.15 -0.3 -4.25 -1.9 L-7.0 -2.05 -7.0 -3.45 -5.9 -3.7 Q-4.25 -3.75 -1.7 -2.9 M-4.2 6.95 Q0.25 6.8 4.8 9.05 1.65 4.8 -4.65 4.05 -7.15 4.6 -8.95 5.55 -6.35 6.2 -4.2 6.95" fill="#c29f65" fill-rule="evenodd" stroke="none"/>
      <path d="M7.05 -2.95 L7.4 -1.75 5.4 -2.0 5.25 -3.2 7.05 -2.95 M-7.0 -3.45 L-4.85 -3.65 -5.25 -2.0 -7.0 -2.05 -7.0 -3.45 M-7.2 3.0 L-6.45 2.95 -6.65 3.5 -7.5 4.95 Q-8.15 5.1 -9.0 5.55 L-8.1 5.8 -8.6 6.7 -10.1 6.35 -9.2 5.1 -7.75 4.05 -7.4 3.3 -7.35 2.0 Q-7.2 0.2 -5.45 -1.15 L-6.0 1.2 -7.2 3.0 M-11.95 10.6 L-9.7 8.7 -10.6 10.35 -11.75 11.5 -11.95 10.6 M5.65 4.35 L5.75 3.5 7.55 3.95 7.6 4.85 5.65 4.35 M5.75 2.3 L5.65 0.6 7.55 1.75 7.55 3.45 5.75 2.3 M1.15 10.7 Q2.0 11.85 2.05 13.3 L1.1 13.95 Q0.9 13.0 0.0 11.7 L1.15 10.7 M3.5 8.5 L4.75 9.05 3.9 8.0 4.75 6.95 6.3 9.35 6.1 9.75 6.15 9.8 5.55 10.3 2.8 9.2 3.5 8.5" fill="#cfb381" fill-rule="evenodd" stroke="none"/>
      <path d="M2.6 6.75 Q1.4 5.8 -0.15 5.2 1.0 4.55 1.65 4.5 L1.75 4.5 2.9 5.2 2.6 6.75 M1.5 8.7 L-1.75 8.05 Q-0.45 8.85 0.4 9.75 L-0.75 10.7 Q-2.2 9.25 -4.35 8.2 L-2.95 6.95 Q-0.35 7.1 2.1 7.95 L1.5 8.7" fill="#e6d9a7" fill-rule="evenodd" stroke="none"/>
    </g>
  </defs>
</svg>
