<svg xmlns:xlink="http://www.w3.org/1999/xlink" height="38.3" width="36.05" xmlns="http://www.w3.org/2000/svg"><use height="18.05" transform="translate(11.55 10.1)" width="21.1" xlink:href="#a"/><defs><g id="a"><path d="M.4-4.75q5 .3 6.45.95 1.1.4 1.6 1.8l.3 1.55.1 1.15L6.6 1h-.1q.9 1.75.9 5.2 0 2.05-.9 2.55L4.25 10.3q-2.05 1.8-4.4 2.45l-6.75.55q-3.7-.25-4.85-1.1-.5-.5-.5-1.2 0-1.3 1.25-3.15 1.6-2.3 5.65-5.8l.05-1.2L-7.35.5l-.9-.45 1.7-4.5.5-.1 6.45-.2" fill="#1a171b" fill-rule="evenodd" transform="translate(12.25 4.75)"/><path d="m.4-3.7 6.05.8q.75.4 1 1.25l.25 1.2v.25L5.1 0l.4 1.25q1.7 5.85.4 6.6L4.25 9Q1 11.3-.4 11.75l-6.5.45q-3.35-.2-4.15-.9-.75-.35.95-2.85l5.45-5.5.35-.35.15-2.8H-5.3l-1.6-.25q.85-2 1.15-3.1L.4-3.7" fill="#d9c288" fill-rule="evenodd" transform="translate(12.25 4.75)"/><path d="M-.4 11.75q-1.15.3.35-2.7 1.8-3.8 1.65-4.95-.25-1.35-3.1-1.55l-2.8.05.15-2.8L.1.35 4 .3l1.35 3 .3 4.75-1.4.95Q1 11.3-.4 11.75" fill="#b69a65" fill-rule="evenodd" transform="translate(12.25 4.75)"/><path d="M5.45 1q-7 .5-9.6-.2v-1l5.5.4L5.1 0l.35 1" fill="#533a2d" fill-rule="evenodd" transform="translate(12.25 4.75)"/><path d="m-10.1 10.1.5-1.3q.8-1.45 2.7-2.1l4-.1q1.65.7.3 1.95-4.7 4.05-7.5 1.55M-6.5-.7l1-2.5q.85-1 6.35.05Q2.5-2.9-2.1-1.3q-1.45 1.05-4.4.6m11.9-2q1.85-.25 1.7 1.65l-.4.6q-.35.05-.7-.5l-.8-1.1q-.45-.6.2-.65" fill="#ffe3ae" fill-rule="evenodd" transform="translate(12.25 4.75)"/><path d="m7.6 7.8 1.6-.25q1.95-.05 3.3.8m-6.25.85 1.7-.25q1.95-.1 3.3.8M5 11l1.65-.25q1.95-.15 3.3.75" fill="none" stroke="#533a2d" stroke-linecap="round" stroke-linejoin="round" stroke-width=".5"/></g></defs></svg>