<svg xmlns:xlink="http://www.w3.org/1999/xlink" height="38.3" width="36.05" xmlns="http://www.w3.org/2000/svg"><use height="16.1" transform="translate(8.1 12.15)" width="24.2" xlink:href="#a"/><defs><g id="a" fill-rule="evenodd"><path d="M6.1-.45Q4.5-2.25.45-2.6q-3.65-.35-4.65.5l-1 .85q-6.05 5.65-9.85 7.9l-.2.15q-.3.35-.45 1.25-.1 1.6.8 3.7l.25.25q4.85 3.3 17.5-1.2l.7-.15q4.25 0 4.95-2.45v-.25q-1.25-6.8-2.4-8.4" transform="translate(15.7 2.7)"/><path d="m.35-1.5-3.75.25-3.9 3.65q-3.95 3.5-6.95 5.25l-.2.75q-.05 1.1.65 2.6 5.3 3.65 17.25-1.6 3.4 0 3.8-1.45Q6.1 1.9 5.05.15 3.7-1.1.35-1.5" fill="#323333" transform="translate(15.7 2.7)"/><path d="m.7-1.6-2.4-.25q-.85 0-2.05.85-1.3.95-.25 1.5.95.55 3.3.8l2.55.4.85 1.45.85 2.05 1.5 2.1q1.7.25 2.15-1.55.1-.55-.4-1.7L6.7 3l-.45-1.2Q5.2-.5 3.6-.95L.7-1.6" fill="#202121" transform="translate(15.7 2.7)"/><path d="m-6.95 2.25.2-.2q.75-.6 4.7.6Q-6.7 7.25-8 7.7q-3.15.45-5.25-.45 4.95-3.45 6.3-5m6.55-.1-.35-.4Q-6-.35-7.65 1.2l-.15.2q-1.45 1.55-6.95 5.4l-.3.45.15.5q1.85 1.95 7.2 1.15.95-.35 3.8-2.9 2.75-2.35 3.4-3.3.2-.3.1-.55" transform="translate(15.7 2.7)"/><path d="M2.2 7.65q-10.4 4.25-16.7 1.3-.55-.25-.9.3-.25.65.35.8 4.15 1.95 10.6.9 5.2-.8 7.3-2.3 3.4 0 5.1-1.65l.15-.45-.15-.5q-.45-.3-.9 0-1.2 1.2-4.45 1.4l-.4.2" transform="translate(15.7 2.7)"/><path d="M-1.4 8.65q3.25-.9 3.6-1.6Q-.3 8.25-6.5 9q-.4.05.6.45l4.5-.8m4-1.75q2.5.1 3.15-.5l-.15-.6q-1.75.85-3 1.1" fill="#fff" transform="translate(15.7 2.7)"/><path d="M5.95 9.5q1.6-.6 1.55-2l-2.45.4-1.3.3q-.3.85.6 1.25l1.6.05m-9.9-4.85 1-1.2 1.05-.8q-1.05-.9-2.65-.9-2 0-2.45.45l-.75.6-1.05.9q-.15.3.75.8.85.5.85 1-.05.5-2.7 2.4l2.7-.35 1.65-1.35 1.6-1.55" fill="#202121" transform="translate(15.7 2.7)"/></g></defs></svg>