<?xml version="1.0" encoding="UTF-8" standalone="no"?>
<svg xmlns:xlink="http://www.w3.org/1999/xlink" height="38.3px" width="36.05px" xmlns="http://www.w3.org/2000/svg">
  <g transform="matrix(1.0, 0.0, 0.0, 1.0, 23.8, 14.85)">
    <use height="16.35" transform="matrix(1.0, 0.0, 0.0, 1.0, -15.1, -3.05)" width="23.3" xlink:href="#shape0"/>
  </g>
  <defs>
    <g id="shape0" transform="matrix(1.0, 0.0, 0.0, 1.0, 15.1, 3.05)">
      <path d="M4.65 -1.75 L1.45 -2.9 Q-2.3 -3.6 -6.2 -1.25 -13.05 4.45 -14.65 7.2 L-14.95 7.75 -15.1 8.65 Q-15.1 11.15 -14.35 12.15 L-14.05 12.35 Q-8.15 14.25 -0.35 12.25 6.55 10.6 8.1 8.2 L8.15 7.85 8.2 5.65 8.15 5.25 4.85 -1.5 4.65 -1.75" fill="#0a2228" fill-rule="evenodd" stroke="none"/>
      <path d="M1.15 -1.75 Q-2.1 -2.25 -5.45 -0.15 -12.6 5.65 -13.8 8.0 -14.55 9.7 -13.4 11.2 -8.2 12.85 -0.9 11.15 5.6 9.6 6.9 7.6 L6.95 5.7 3.8 -0.8 1.15 -1.75" fill="#ffffff" fill-rule="evenodd" stroke="none"/>
      <path d="M-6.05 5.7 L-3.1 9.85" fill="none" stroke="#50ceff" stroke-linecap="round" stroke-linejoin="round" stroke-width="1.0"/>
      <path d="M-4.05 3.7 L0.05 9.0" fill="none" stroke="#50ceff" stroke-linecap="round" stroke-linejoin="round" stroke-width="1.0"/>
      <path d="M-2.65 1.4 L2.55 8.15" fill="none" stroke="#50ceff" stroke-linecap="round" stroke-linejoin="round" stroke-width="1.0"/>
      <path d="M6.9 5.5 Q-3.55 12.15 -13.9 9.25 -13.8 10.7 -13.4 11.2 -8.2 12.85 -0.9 11.15 5.6 9.6 6.9 7.6 L6.95 5.7 6.9 5.5" fill="#19658a" fill-rule="evenodd" stroke="none"/>
      <path d="M-2.45 -0.1 Q-5.95 -1.6 -6.9 -0.65 L-12.35 4.6 Q-12.65 4.9 -12.45 5.25 -12.05 6.35 -10.4 6.85 -7.9 7.6 -6.2 6.5 -5.3 5.9 -3.55 3.65 -1.9 1.5 -1.8 0.9 -1.65 0.4 -2.45 -0.1" fill="#0a2228" fill-rule="evenodd" stroke="none"/>
      <path d="M-11.1 5.1 Q-9.05 6.9 -6.95 5.45 -6.1 4.9 -4.6 3.1 L-3.15 0.95 Q-3.1 0.6 -4.35 0.2 -5.65 -0.15 -6.05 0.2 L-11.1 5.1" fill="#ffffff" fill-rule="evenodd" stroke="none"/>
      <path d="M-3.7 0.4 Q-7.55 5.95 -10.8 4.85 L-11.1 5.1 Q-9.05 6.9 -6.95 5.45 -6.1 4.9 -4.6 3.1 L-3.15 0.95 -3.7 0.4" fill="#80b8dd" fill-rule="evenodd" stroke="none"/>
    </g>
  </defs>
</svg>
