<svg xmlns:xlink="http://www.w3.org/1999/xlink" height="38.3" width="36.05" xmlns="http://www.w3.org/2000/svg"><use height="19.15" transform="translate(11.6 9.55)" width="20.6" xlink:href="#a"/><defs><g id="a" fill-rule="evenodd"><path d="M-4.2-4.7q2.7-.85 4.35-.5 4.7 1.15 5.15 1.6l1.55.05q.55-.2 1.15.35.55.5.35 1.25-.25 1.1-1.6 3.45-1 1.65-.7 2.05l.8 2q.45 1.5.25 1.9-.25.5.3 1.35-1 3.5-1.5 3.65-5.1 1.7-10.8 1.3-7.1-.5-7.25-2.2-.2-2.55.4-2.85l.55-.3q.5-2.1 1.1-2.7 1.9-1.9.95-3.05-.55-.85-.95-2.7-.4-2.2.45-2.7Q-7.4-4-6.6-3.7l2.4-1" fill="#020000" transform="translate(12.2 5.3)"/><path d="M5.4 11.9Q2.25 13.3-3.5 13q-7.4-.45-7.9-1.45-.35-.75-.25-1.6l.5-.95.9-.05q10.1 3.8 16.05-.7.6-.5.95.45l-.35 1.55q-.4 1.3-1 1.65" fill="#e0d3d1" transform="translate(12.2 5.3)"/><path d="M5.3 12.05q-2.9 1.6-9 1.2-7.45-.55-7.9-1.45-.9-2.05.25-2.55.2-.05-.25.7-.25.85.65 1.35 2.05 1.25 6.85 1.35 5.85.1 10-2.2.5-.25.65-1.5l-.3 1.55q-.45 1.3-.95 1.55" fill="#aa9d9b" transform="translate(12.2 5.3)"/><path d="m.35-4.5 2.3.5 3 1.05.6.15.4.1H6.5l.25.1-1.4.9q-1.05.6-3.3.85l-6-.4q-1.45-.3-2.2-1.05L-6.9-3l2.2-1.05 1.3-.4 1.25-.15 2.5.1" fill="#ba2508" transform="translate(12.2 5.3)"/><path d="m7.05-2.1.1.05-.55.5L5.15-.5Q3.8.5 1.15 1l-2.6.2L-3.9.9Q-5.65.4-6.4-.85L-6.6-2l.65-.85 1-.7L-3.9-4l2.5-.25 1.25.05 1.3.15 2.2.7 2.45.85q1 .7 1.25.4" fill="#961504" transform="translate(12.2 5.3)"/><path d="m-.65-1.6 4.8-.4q2.15-1.3 3-.7 1.4 1-.5 3.2-2 2.2-1.25 3.5 1.65 2.7.7 4.55Q5 10.8.65 11.15H-1.5l-5.9-.35q-3.1-.3-3.2-1.35-.15-1.95 1.35-3.9Q-7.7 3.45-8.2 2.3L-8.95.15q-.5-1.9-.05-2.35 1.5-1.85 2.8-.85Q-4.35-1.6-.65-1.6" fill="#ba2508" transform="translate(12.2 5.3)"/><path d="m3.65-3.2-.05-.1.3.05 1.5.55.25.2-.75.65q-.85.5-2.6.6l-4.75-.1q-1.65-.15-2.95-.6l-.75-.5q-.2-.3.15-.5l.8-.6L-4.1-4l1.25-.25 1.25-.05-1.1.1q-.5.15-.5.65.05.3.7.45l1.55.1H.5l1 .05 1.05.2.7.15q.3 0 .4-.35v-.25" fill="#770b03" transform="translate(12.2 5.3)"/><path d="M.85-1.2H.9L.4-1l-.55.2H-.5l-.65.05-1-.05L-4-1.2q-.75-.15-1.5-.6-.6-.25-.65-.65-.25-.6.95-1.25 1-.4 1.7-.4l-1.1.75q-.25.5-.1.65l.55.4q.9.35 2.15.55l2.85.55" fill="#5e0503" transform="translate(12.2 5.3)"/><path d="m-4.2-1.8 3-.5q3-.4 3.85.5.2.2-.5 1.85-1 1.95-.85 5.5 0 1.5-.45.9l-3.35-.3-3.2.1q-.25-.05.5-1.3l1-6.75" fill="#b27d08" transform="translate(12.2 5.3)"/><path d="M2.4.7.75.5l-4.5-.2L-5.6.2q-.35-.7 1.45-1.3 2.2-.6 6.2.1Q3.6-.7 2.4.7" fill="#dbca9a" transform="translate(12.2 5.3)"/><path d="m1.15 2.7-4.4-.2q-2.35.8-2.7.45l-.05-.7.35-.75q3.5-1.3 7.5.05 1.4.7.55 1.1l-1.25.05m1 2.25q-.4.5-2.55 0l-4.55.3q-1.2.5-1.45-.25-.3-1.2.65-1.3 6.3-.5 6.9 0 1.45.75 1 1.25" fill="#dbca9a" transform="translate(12.2 5.3)"/><path d="m4.3-.55.1.55-.3.5-.7.5-.75.15q-.25 0 0-.4l.5-.5.2-.45-.5-.75L3-1.1h.1l.65.15.55.4M2.65 1.5l.45-.05.7.05q.5.15.35.65l-.1.55-.5.55-.7.15-.6-.15q.4-.25.55-.35l.5-.6-.25-.5-.25-.1-.15-.2m-.3 4q.7-.25.7-.7l-.55-.55q-.2-.2.05-.3l.05-.05 1.25.25q.4.3.25.65-.25.7-.7.9-.6.5-1.3.3l-.35-.3.6-.2m-8.3-6.2-.2.7.4.5.5.25-.15.2-.25.05-.75-.05-.75-.4-.2-.6.2-.4.3-.3.75-.35h.7l-.25.1-.3.3m-.15 2.15-.3.1-.2.45-.05.45.15.35.25.25.1.2-.2.15q-.55 0-.85-.35l-.3-.75.15-.5.4-.3.6-.2h.25q.35 0 .1.15h-.1M-7.95 4.3q.45-.55 1-.55h.25l.1.05-.5.35-.3.55q-.2.45.55.75h.35l.25.1-.2.2-.8.2q-.65 0-.85-.4L-8.2 5l.25-.7" fill="#020000" transform="translate(12.2 5.3)"/><path d="M2.35-.2 2 .2 1.3 0 .6-.35l-.7-.2q-.5-.25 0-.4l1.25.1q1 0 1.2.35.2.2 0 .3M.5 1.5l.9.3q.45.15.65.4v.05l-.5.05-1.4-.4-1.35-.15-.4-.3.4-.05h.55l1.15.1M.15 3.65l.85.3.8.6h.05l-.7.1-.4-.15-.25-.1L-.6 4l-1.15-.2-.15-.1h-.05l1.05-.15 1.05.1m2.1 7.85-1.6.25h-1.8l-.6.05-.65-.05-.3.05-.3-.05h-.6l-1.65-.45H-.9l2.65-.1.75.05-.25.25" fill="#fff" transform="translate(12.2 5.3)"/><path d="m7-.75-.6 1-.8.55L4.55.45l.25-.4v-.5l-.15-.4-.3-.4h.05q.6 0 1.4-.7 1.1-.9 1.35 0L7-.75m-14.65.3-.6.4-.45-1.15.05-.65.45-.6.6-.3h.85l.05.4.25.5.2.1q.35.2-.35.4l-.6.3-.3.3-.15.3" fill="#f4a506" transform="translate(12.2 5.3)"/><path d="m2.75 9.2-.2.3v-.35l-.2-.45L1.8 8Q1.25 7.3.25 6.95l-2-.3-2.9-.1-2.45.4-.85.5-.8.6V7.9l.1-.2.3-.3.75-.5 1.75-.7 2.1-.2 2.15-.1 1.85.3.65.2.65.4q.7.45 1.25 1.4l.1.7-.15.3" fill="#961504" transform="translate(12.2 5.3)"/><path d="M1.3 8.55q0 1.1-2.5 1.1l-2.15-.25-1.1-.65-.25-.55q0-.4.3-.55.9-.85 1.2-.5l.45-.1h.6l1.3.15 1.65.6q.5.35.5.75" fill="#d62c16" transform="translate(12.2 5.3)"/><path d="M.4 8.5Q.1 9-.85 9q-1.65 0-2-.75l.9-.8V7.4q1.3.05 2.1.5.45.3.25.6" fill="#ed473a" transform="translate(12.2 5.3)"/></g></defs></svg>