<?xml version="1.0" encoding="UTF-8" standalone="no"?>
<svg xmlns:xlink="http://www.w3.org/1999/xlink" height="38.3px" width="36.05px" xmlns="http://www.w3.org/2000/svg">
  <g transform="matrix(1.0, 0.0, 0.0, 1.0, 23.8, 14.85)">
    <use height="19.15" transform="matrix(1.0, 0.0, 0.0, 1.0, -12.2, -5.3)" width="20.6" xlink:href="#shape0"/>
  </g>
  <defs>
    <g id="shape0" transform="matrix(1.0, 0.0, 0.0, 1.0, 12.2, 5.3)">
      <path d="M-4.2 -4.7 Q-1.5 -5.55 0.15 -5.2 4.85 -4.05 5.3 -3.6 L6.85 -3.55 Q7.4 -3.75 8.0 -3.2 8.55 -2.7 8.35 -1.95 8.1 -0.85 6.75 1.5 5.75 3.15 6.05 3.55 L6.85 5.55 Q7.3 7.05 7.1 7.45 6.85 7.95 7.4 8.8 6.4 12.3 5.9 12.45 0.8 14.15 -4.9 13.75 -12.0 13.25 -12.15 11.55 -12.35 9.0 -11.75 8.7 L-11.2 8.4 Q-10.7 6.3 -10.1 5.7 -8.2 3.8 -9.15 2.65 -9.7 1.8 -10.1 -0.05 -10.5 -2.25 -9.65 -2.75 -7.4 -4.0 -6.6 -3.7 L-4.2 -4.7" fill="#020000" fill-rule="evenodd" stroke="none"/>
      <path d="M5.4 11.9 Q2.25 13.3 -3.5 13.0 -10.9 12.55 -11.4 11.55 -11.75 10.8 -11.65 9.95 L-11.15 9.0 -10.25 8.95 Q-0.15 12.75 5.8 8.25 6.4 7.75 6.75 8.7 L6.4 10.25 Q6.0 11.55 5.4 11.9" fill="#e0d3d1" fill-rule="evenodd" stroke="none"/>
      <path d="M5.3 12.05 Q2.4 13.65 -3.7 13.25 -11.15 12.7 -11.6 11.8 -12.5 9.75 -11.35 9.25 -11.15 9.2 -11.6 9.95 -11.85 10.8 -10.95 11.3 -8.9 12.55 -4.1 12.65 1.75 12.75 5.9 10.45 6.4 10.2 6.55 8.95 L6.25 10.5 Q5.8 11.8 5.3 12.05" fill="#aa9d9b" fill-rule="evenodd" stroke="none"/>
      <path d="M0.35 -4.5 L2.65 -4.0 5.65 -2.95 6.25 -2.8 6.65 -2.7 6.5 -2.7 6.75 -2.6 5.35 -1.7 Q4.3 -1.1 2.05 -0.85 L-3.95 -1.25 Q-5.4 -1.55 -6.15 -2.3 L-6.9 -3.0 -4.7 -4.05 -3.4 -4.45 -2.15 -4.6 0.35 -4.5" fill="#ba2508" fill-rule="evenodd" stroke="none"/>
      <path d="M7.05 -2.1 L7.15 -2.05 6.6 -1.55 5.15 -0.5 Q3.8 0.5 1.15 1.0 L-1.45 1.2 -3.9 0.9 Q-5.65 0.4 -6.4 -0.85 L-6.6 -2.0 -5.95 -2.85 -4.95 -3.55 -3.9 -4.0 -1.4 -4.25 -0.15 -4.2 1.15 -4.05 3.35 -3.35 5.8 -2.5 Q6.8 -1.8 7.05 -2.1" fill="#961504" fill-rule="evenodd" stroke="none"/>
      <path d="M-0.65 -1.6 L4.15 -2.0 Q6.3 -3.3 7.15 -2.7 8.55 -1.7 6.65 0.5 4.65 2.7 5.4 4.0 7.05 6.7 6.1 8.55 5.0 10.8 0.65 11.15 L-1.5 11.15 -7.4 10.8 Q-10.5 10.5 -10.6 9.45 -10.75 7.5 -9.25 5.55 -7.7 3.45 -8.2 2.3 L-8.95 0.15 Q-9.45 -1.75 -9.0 -2.2 -7.5 -4.05 -6.2 -3.05 -4.35 -1.6 -0.65 -1.6" fill="#ba2508" fill-rule="evenodd" stroke="none"/>
      <path d="M3.65 -3.2 L3.6 -3.3 3.9 -3.25 5.4 -2.7 5.65 -2.5 4.9 -1.85 Q4.05 -1.35 2.3 -1.25 L-2.45 -1.35 Q-4.1 -1.5 -5.4 -1.95 L-6.15 -2.45 Q-6.35 -2.75 -6.0 -2.95 L-5.2 -3.55 -4.1 -4.0 -2.85 -4.25 -1.6 -4.3 -2.7 -4.2 Q-3.2 -4.05 -3.2 -3.55 -3.15 -3.25 -2.5 -3.1 L-0.95 -3.0 0.5 -3.0 1.5 -2.95 2.55 -2.75 3.25 -2.6 Q3.55 -2.6 3.65 -2.95 L3.65 -3.2" fill="#770b03" fill-rule="evenodd" stroke="none"/>
      <path d="M0.85 -1.2 L0.9 -1.2 0.4 -1.0 -0.15 -0.8 -0.5 -0.8 -1.15 -0.75 -2.15 -0.8 -4.0 -1.2 Q-4.75 -1.35 -5.5 -1.8 -6.1 -2.05 -6.15 -2.45 -6.4 -3.05 -5.2 -3.7 -4.2 -4.1 -3.5 -4.1 L-4.6 -3.35 Q-4.85 -2.85 -4.7 -2.7 L-4.15 -2.3 Q-3.25 -1.95 -2.0 -1.75 L0.85 -1.2" fill="#5e0503" fill-rule="evenodd" stroke="none"/>
      <path d="M-4.2 -1.8 L-1.2 -2.3 Q1.8 -2.7 2.65 -1.8 2.85 -1.6 2.15 0.05 1.15 2.0 1.3 5.55 1.3 7.05 0.85 6.45 L-2.5 6.15 -5.7 6.25 Q-5.95 6.2 -5.2 4.95 L-4.2 -1.8" fill="#b27d08" fill-rule="evenodd" stroke="none"/>
      <path d="M2.4 0.7 L0.75 0.5 -3.75 0.3 -5.6 0.2 Q-5.95 -0.5 -4.15 -1.1 -1.95 -1.7 2.05 -1.0 3.6 -0.7 2.4 0.7" fill="#dbca9a" fill-rule="evenodd" stroke="none"/>
      <path d="M1.15 2.7 L-3.25 2.5 Q-5.6 3.3 -5.95 2.95 L-6.0 2.25 -5.65 1.5 Q-2.15 0.2 1.85 1.55 3.25 2.25 2.4 2.65 L1.15 2.7" fill="#dbca9a" fill-rule="evenodd" stroke="none"/>
      <path d="M2.15 4.95 Q1.75 5.45 -0.4 4.95 L-4.95 5.25 Q-6.15 5.75 -6.4 5.0 -6.7 3.8 -5.75 3.7 0.55 3.2 1.15 3.7 2.6 4.45 2.15 4.95" fill="#dbca9a" fill-rule="evenodd" stroke="none"/>
      <path d="M4.3 -0.55 L4.4 0.0 4.1 0.5 3.4 1.0 2.65 1.15 Q2.4 1.15 2.65 0.75 L3.15 0.25 3.35 -0.2 2.85 -0.95 3.0 -1.1 3.1 -1.1 3.75 -0.95 4.3 -0.55" fill="#020000" fill-rule="evenodd" stroke="none"/>
      <path d="M2.65 1.5 L3.1 1.45 3.8 1.5 Q4.3 1.65 4.15 2.15 L4.05 2.7 3.55 3.25 2.85 3.4 2.25 3.25 Q2.65 3.0 2.8 2.9 L3.3 2.3 3.05 1.8 2.8 1.7 2.65 1.5" fill="#020000" fill-rule="evenodd" stroke="none"/>
      <path d="M2.35 5.5 Q3.05 5.25 3.05 4.8 L2.5 4.25 Q2.3 4.05 2.55 3.95 L2.6 3.9 3.85 4.15 Q4.25 4.45 4.1 4.8 3.85 5.5 3.4 5.7 2.8 6.2 2.1 6.0 L1.75 5.7 2.35 5.5" fill="#020000" fill-rule="evenodd" stroke="none"/>
      <path d="M-5.95 -0.7 L-6.15 0.0 -5.75 0.5 -5.25 0.75 -5.4 0.95 -5.65 1.0 -6.4 0.95 -7.15 0.55 -7.35 -0.05 -7.15 -0.45 -6.85 -0.75 -6.1 -1.1 -5.4 -1.1 -5.65 -1.0 -5.95 -0.7" fill="#020000" fill-rule="evenodd" stroke="none"/>
      <path d="M-6.1 1.45 L-6.4 1.55 -6.6 2.0 -6.65 2.45 -6.5 2.8 -6.25 3.05 -6.15 3.25 -6.35 3.4 Q-6.9 3.4 -7.2 3.05 L-7.5 2.3 -7.35 1.8 -6.95 1.5 -6.35 1.3 -6.1 1.3 Q-5.75 1.3 -6.0 1.45 L-6.1 1.45" fill="#020000" fill-rule="evenodd" stroke="none"/>
      <path d="M-7.95 4.3 Q-7.5 3.75 -6.95 3.75 L-6.7 3.75 -6.6 3.8 -7.1 4.15 -7.4 4.7 Q-7.6 5.15 -6.85 5.45 L-6.5 5.45 -6.25 5.55 -6.45 5.75 -7.25 5.95 Q-7.9 5.95 -8.1 5.55 L-8.2 5.0 -7.95 4.3" fill="#020000" fill-rule="evenodd" stroke="none"/>
      <path d="M2.35 -0.2 L2.0 0.2 1.3 0.0 0.6 -0.35 -0.1 -0.55 Q-0.6 -0.8 -0.1 -0.95 L1.15 -0.85 Q2.15 -0.85 2.35 -0.5 2.55 -0.3 2.35 -0.2" fill="#ffffff" fill-rule="evenodd" stroke="none"/>
      <path d="M0.5 1.5 L1.4 1.8 Q1.85 1.95 2.05 2.2 L2.05 2.25 1.55 2.3 0.15 1.9 -1.2 1.75 -1.6 1.45 -1.2 1.4 -0.65 1.4 0.5 1.5" fill="#ffffff" fill-rule="evenodd" stroke="none"/>
      <path d="M0.15 3.65 L1.0 3.95 1.8 4.55 1.85 4.55 1.15 4.65 0.75 4.5 0.5 4.4 -0.6 4.0 -1.75 3.8 -1.9 3.7 -1.95 3.7 -0.9 3.55 0.15 3.65" fill="#ffffff" fill-rule="evenodd" stroke="none"/>
      <path d="M2.25 11.5 L0.65 11.75 -1.15 11.75 -1.75 11.8 -2.4 11.75 -2.7 11.8 -3.0 11.75 -3.6 11.75 -5.25 11.3 -3.0 11.3 -0.9 11.3 1.75 11.2 2.5 11.25 2.25 11.5" fill="#ffffff" fill-rule="evenodd" stroke="none"/>
      <path d="M7.0 -0.75 L6.4 0.25 5.6 0.8 4.55 0.45 4.8 0.05 4.8 -0.45 4.65 -0.85 4.35 -1.25 4.4 -1.25 Q5.0 -1.25 5.8 -1.95 6.9 -2.85 7.15 -1.95 L7.0 -0.75" fill="#f4a506" fill-rule="evenodd" stroke="none"/>
      <path d="M-7.65 -0.45 L-8.25 -0.05 -8.7 -1.2 -8.65 -1.85 -8.2 -2.45 -7.6 -2.75 -6.75 -2.75 -6.7 -2.35 -6.45 -1.85 -6.25 -1.75 Q-5.9 -1.55 -6.6 -1.35 L-7.2 -1.05 -7.5 -0.75 -7.65 -0.45" fill="#f4a506" fill-rule="evenodd" stroke="none"/>
      <path d="M2.75 9.2 L2.55 9.5 2.55 9.15 2.35 8.7 1.8 8.0 Q1.25 7.3 0.25 6.95 L-1.75 6.65 -4.65 6.55 -7.1 6.95 -7.95 7.45 -8.75 8.05 -8.75 7.9 -8.65 7.7 -8.35 7.4 -7.6 6.9 -5.85 6.2 -3.75 6.0 -1.6 5.9 0.25 6.2 0.9 6.4 1.55 6.8 Q2.25 7.25 2.8 8.2 L2.9 8.9 2.75 9.2" fill="#961504" fill-rule="evenodd" stroke="none"/>
      <path d="M1.3 8.55 Q1.3 9.65 -1.2 9.65 L-3.35 9.4 -4.45 8.75 -4.7 8.2 Q-4.7 7.8 -4.4 7.65 -3.5 6.8 -3.2 7.15 L-2.75 7.05 -2.15 7.05 -0.85 7.2 0.8 7.8 Q1.3 8.15 1.3 8.55" fill="#d62c16" fill-rule="evenodd" stroke="none"/>
      <path d="M0.4 8.5 Q0.1 9.0 -0.85 9.0 -2.5 9.0 -2.85 8.25 L-1.95 7.45 -1.95 7.4 Q-0.65 7.45 0.15 7.9 0.6 8.2 0.4 8.5" fill="#ed473a" fill-rule="evenodd" stroke="none"/>
    </g>
  </defs>
</svg>
