<svg xmlns:xlink="http://www.w3.org/1999/xlink" height="38.3" width="36.05" xmlns="http://www.w3.org/2000/svg"><use height="17" transform="translate(7.25 12.85)" width="25.15" xlink:href="#a"/><defs><g id="a" fill-rule="evenodd"><path d="M-7.2 2.55-3.95 0q2.6-1.95 3.8-2 2.9-.05 5.95 3Q9 4.2 8.55 7.2q-.2 1.25-.75 1.6l-3.75 2.7-2.45 2.35Q.1 15.2-.95 14.95q-2.25-1.7-3.5-2.15l-5.45.15q-1.8 1-2.95 0-.5-.4.15-1.75.75-1.5.6-2-.15-.65-1.4-1l-1.85-.5q-.75-.35-1.05-1.2-.45-1 .55-1.3l4.65-1.1q2.45-.55 4-1.55" fill="#1a171b" transform="translate(16.55 2)"/><path d="m-6.6 3.45 1.5-1.2Q-1.2-.9-.15-.95 2.4-1 5.05 1.75 7.8 4.5 7.5 7.05q-.15.75-.7 1.15L4.55 9.6 1.9 12Q0 14.05-.7 13.85q-.75-.15-1.7-1-.95-.8-1.7-1.05l-6.25.2-1.6.2.3-.75q.7-1.4.7-2l-.05-.6q-.35-1-3.4-2l-.55-.15-.45-.5 3.15-.9Q-7.45 4-6.6 3.45" fill="#ffbb2b" transform="translate(16.55 2)"/><path d="M4.25 1.05q.1 4.2-1.95 5.55-1.55 1-3.25.95l-3-.3q-2 0-7.25 5.05l-.8-.1.55-1.25Q-7.2 7-7 5.85q.15-1.5-8.25.65l-.2-.3 3.1-.9Q-7.6 4-6.7 3.45l1.55-1.2Q-1.2-.9-.2-.95q2.2 0 4.45 2" fill="#ffebc0" transform="translate(16.55 2)"/></g></defs></svg>