<?xml version="1.0" encoding="UTF-8" standalone="no"?>
<svg xmlns:xlink="http://www.w3.org/1999/xlink" height="38.3px" width="36.05px" xmlns="http://www.w3.org/2000/svg">
  <g transform="matrix(1.0, 0.0, 0.0, 1.0, 23.8, 14.85)">
    <use height="17.0" transform="matrix(1.0, 0.0, 0.0, 1.0, -16.55, -2.0)" width="25.15" xlink:href="#shape0"/>
  </g>
  <defs>
    <g id="shape0" transform="matrix(1.0, 0.0, 0.0, 1.0, 16.55, 2.0)">
      <path d="M-7.2 2.55 L-3.95 0.0 Q-1.35 -1.95 -0.15 -2.0 2.75 -2.05 5.8 1.0 9.0 4.2 8.55 7.2 8.35 8.45 7.8 8.8 L4.05 11.5 1.6 13.85 Q0.1 15.2 -0.95 14.95 -3.2 13.25 -4.45 12.8 L-9.9 12.95 Q-11.7 13.95 -12.85 12.95 -13.35 12.55 -12.7 11.2 -11.95 9.7 -12.1 9.2 -12.25 8.55 -13.5 8.2 L-15.35 7.7 Q-16.1 7.35 -16.4 6.5 -16.85 5.5 -15.85 5.2 L-11.2 4.1 Q-8.75 3.55 -7.2 2.55" fill="#1a171b" fill-rule="evenodd" stroke="none"/>
      <path d="M-6.6 3.45 L-5.1 2.25 Q-1.2 -0.9 -0.15 -0.95 2.4 -1.0 5.05 1.75 7.8 4.5 7.5 7.05 7.35 7.8 6.8 8.2 L4.55 9.6 1.9 12.0 Q0.0 14.05 -0.7 13.85 -1.45 13.7 -2.4 12.85 -3.35 12.05 -4.1 11.8 L-10.35 12.0 -11.95 12.2 -11.65 11.45 Q-10.95 10.05 -10.95 9.45 L-11.0 8.85 Q-11.35 7.85 -14.4 6.85 L-14.95 6.7 -15.4 6.2 -12.25 5.3 Q-7.45 4.0 -6.6 3.45" fill="#ffbb2b" fill-rule="evenodd" stroke="none"/>
      <path d="M4.25 1.05 Q4.35 5.25 2.3 6.6 0.75 7.6 -0.95 7.55 L-3.95 7.25 Q-5.95 7.25 -11.2 12.3 L-12.0 12.2 -11.45 10.95 Q-7.2 7.0 -7.0 5.85 -6.85 4.35 -15.25 6.5 L-15.45 6.2 -12.35 5.3 Q-7.6 4.0 -6.7 3.45 L-5.15 2.25 Q-1.2 -0.9 -0.2 -0.95 2.0 -0.95 4.25 1.05" fill="#ffebc0" fill-rule="evenodd" stroke="none"/>
    </g>
  </defs>
</svg>
