<svg xmlns:xlink="http://www.w3.org/1999/xlink" height="38.3" width="36.05" xmlns="http://www.w3.org/2000/svg"><use height="18.4" transform="translate(7.4 11)" width="25.9" xlink:href="#a"/><defs><g id="a" fill-rule="evenodd"><path d="m-.1-3.75.5.05.7.05.05.05q3.5.65 5.3 4.05l.9 2h.05l.35.2 1.1.9.55 1 .05.25.05.15-.05.2-.05 1.1v.05L8.25 7.7 5.5 9.6.1 12.05q-2.55 1.15-5.05 1.9l-2.45.4q-3.45.55-6.5-.6-2.95-1.15-2.4-3.6l.15-.25.3-.65V8.7l.05-.4.75-2 1.1-1.55.1-.2.4-.3.35-.35v-.25q0-1.65 1.15-2.45.35-.45 1.05-.55l.35-.05.7.35Q-7.4-1-4.65-2.55l.1-.15q.3-.1.6-.3 1.2-.6 2.55-.85h.9l.4.1m.75 1.4h-.1l-.65-.1h-.35L-.8-2.5h-.8l-2.2.7-.55.3-.05.05-.85.5q-2.1 1.3-4 2.9l-.25.15-.25.2v.05l-.05-.3-.15-.2-.2.2V2l-.1-.25-.05-.1-.25.05-.6.45q-.6.7-.65 1.8v.25l-.25.25-.3.3-.1.2-.95 1.3-.2.5-.1.2-.35 1.05-.1.35v.4l.5.6.35.2.15.05.45.2.2.45 1 .85 4.85.2 3.25-.8.5-.25h.05l1.7-.75.35-.2.05-.05 1.4-.5.4-.1q.4.05.65-.25v-.3l.2-.1.15-.05 1.3-.6 1.55-.8.75-.85q.55-1.3.3-2.75L5.2 1.2Q3.65-1.75.65-2.35m-15.2 12.6.05-.65.05-.25.1-.05.75.95 1.75 1.1q2.3.95 4.85.6 3.2-.55 6.05-1.7l2.8-1.35.4-.25.05-.05.85-.55.2-.1 3.4-2.8.2-.45-.1-1.2.4.4-.9-.85-.3-.1h-.1.1l.3.1.9.85-.4-.4.1 1.2-.2.45-3.4 2.8-.2.1-.85.55-.05.05-.4.25-2.8 1.35Q-3.8 11.4-7 11.95q-2.55.35-4.85-.6l-1.75-1.1-.75-.95-.1.05-.05.25-.05.65q-.05 1.65 2.1 2.5 2.7.9 5.65.45l2.15-.35q2.15-.6 4.3-1.55l2.3-1.05 1.4-.65 1-.45 2.4-1.7 1-1.2-.05-.05.15-.95-.1.15L6.7 6.95Q5.5 8.3 3.95 9.25l-.6.3-1.45.7q-4.45 2.05-9.25 2.9-4.75.85-7.2-2.7v-.2M7.25 3.9l.45.85.15.25v.25V5l-.15-.25-.45-.85m-21.6 5.4.2-.45v-.1.1l-.2.45" fill="#2e2e2e" transform="translate(16.4 3.85)"/><path d="M-6.2 4.7h.1l1.65-.35h1.25l2.25.5q.1 0 .15.1.7.45 1.25 1.25l-.2.15-1.95-.45q-.85-.35-1.85-.35l-5.7.45 1.05-.75.8-.3 1.2-.25M-10.15 2l-.1.1-.5 1.35q-.3.3-.2.8 0 .6-.3 1l-.55-1.05v-.25q.05-1.1.65-1.8l.6-.45.25-.05.05.1.1.25" fill="#e2d5ba" transform="translate(16.4 3.85)"/><path d="m1.15 7.05.3 1.2.25-.15v.3q-.25.3-.65.25l-.4.1-1.4.5 1.25-.6h.15l-.2-.2-.65-.8-.5-.7q-.9-.9-2.25-.95-1.45-.15-2.85 0-2.2.15-4.25.95h-.05l-.3.15-.3-.15-.2-.05h-.1v-.05l-.2-.35-.05-.15-.05-.1-.45-1.45-.05-.6.55 1.05q.3-.4.3-1-.1-.5.2-.8l.5-1.35.1-.1v.05l.2-.2.15.2.05.3v.5l-.4 1.2-.15.1-.15.35-.1.25-.05.3v.8l.05.45v.3l.1-.05.2-.1 2.05-1.2-1.05.75 5.7-.45q1 0 1.85.35l1.95.45.2-.15Q-.1 5.4-.8 4.95l.7.4L.95 6.5l.2.45v.1" fill="#a58343" transform="translate(16.4 3.85)"/><path d="M-5.25-.95Q-5.2-.1-4 .3q2.65.8 5.35.5Q.95 2.25.2 3.45l-1.15 1.4-2.25-.5h-1.25l-1.65.35h-.1l-2.3-.15-1.3.3.3-2.7V2.1l.25-.15q1.9-1.6 4-2.9m1.6 7.9q.75.45-1.05.85-3.05.75-5.9 2.1-.6.3-.95-.3-.85-1.5.7-1.75l4.75-.9 1.25-.35 1.2.35m-9.1-1.35.05-.05q.9 1.2-.1 1.4l-.55.1h-.05l-.15-.1V6.8l.8-1.2m2.5-.8.1-.1.05.1h-.15" fill="#e6ecec" transform="translate(16.4 3.85)"/><path d="m-5.25-.95.85-.5.05-.05.55-.3 2.2-.7h.8l.35.05h.35l.65.1h.1l.5.5q3.7 1.7 4 6.2.1 1.65-1.45 2.5l-.5.1-1.6.2-.45-.1v-.1l-.2-.45L-.1 5.35l-.7-.4q-.05-.1-.15-.1L.2 3.45Q.95 2.25 1.35.8q-2.7.3-5.35-.5-1.2-.4-1.25-1.25M-9.5 2.1v.05l-.3 2.7 1.3-.3 2.3.15-.35.05-.9.05-2.5.45H-10l-.35.05-.05-.2v-.25l-.15-.1.1-.25.15-.35.15-.1.4-1.2V2.3l.25-.2m.4 8.9-1.35-.05-.75-.3-.45-.4q-1.05-1-.1-2.25.5-.65 1.4-.75l.05.1.05-.15 2.9-.25q3-1.1 5.35 0 .9.5 1.65 1.35l-1.4 1-3.4.95-3.95.75m-4.25-3.95.55-.1q1-.2.1-1.4l-.05.05.4-.6.75 1.6.25.25-.25.1-.75.75q-.6.7-1.2.55l.2-1.2m9.7-.1-1.2-.35-1.25.35-4.75.9q-1.55.25-.7 1.75.35.6.95.3 2.85-1.35 5.9-2.1 1.8-.4 1.05-.85m-6.6-2.15h.15l-.05-.1-.1.1" fill="#b8cbcb" transform="translate(16.4 3.85)"/><path d="m-10.4 5.1-.2-.05.05-.3.15.1v.25m3-.15-.05-.15.9-.05.35-.05-1.2.25" fill="#627d79" transform="translate(16.4 3.85)"/><path d="M.65-2.35q3 .6 4.55 3.55l.75 1.75q.25 1.45-.3 2.75l-.75.85-1.55.8-1.3.6L1.9 8l-.2.1-.25.15-.3-1.2.45.1 1.6-.2.5-.1Q5.25 6 5.15 4.35q-.3-4.5-4-6.2l-.5-.5M-11.8 4.2l.05.6.45 1.45.05.1.05.15.2.35v.05h.1l.2.05.3.15.3-.15h.05Q-8 6.15-5.8 6q1.4-.15 2.85 0 1.35.05 2.25.95l.5.7.65.8.2.2H.5l-1.25.6-.05.05-.35.2-1.7.75h-.05l-.5.25-3.25.8-4.85-.2-1-.85-.2-.45-.45-.2-.15-.05-.35-.2-.5-.6v-.4l.1-.35.35-1.05.1-.2.2-.5.95-1.3.1-.2.3-.3.25-.25m1.4.9.05.2.35-.05h.05l2.5-.45.05.15-.8.3-2.05 1.2-.2.1-.1.05v-.3l-.05-.45v-.8l.2.05m1.3 5.9 3.95-.75 3.4-.95 1.4-1Q-1.1 7.45-2 6.95q-2.35-1.1-5.35 0l-2.9.25-.05.15-.05-.1q-.9.1-1.4.75-.95 1.25.1 2.25l.45.4.75.3 1.35.05m-4.25-3.95-.2 1.2q.6.15 1.2-.55l.75-.75.25-.1-.25-.25-.75-1.6-.4.6-.8 1.2v.15l.15.1h.05" fill="#3c4d4a" transform="translate(16.4 3.85)"/><path d="M-14.55 10.25v.2q2.45 3.55 7.2 2.7 4.8-.85 9.25-2.9l1.45-.7.6-.3Q5.5 8.3 6.7 6.95L7.75 5.4l.1-.15-.15.95.05.05-1 1.2-2.4 1.7-1 .45-1.4.65-2.3 1.05q-2.15.95-4.3 1.55l-2.15.35q-2.95.45-5.65-.45-2.15-.85-2.1-2.5" fill="#b99553" transform="translate(16.4 3.85)"/></g></defs></svg>