<svg xmlns:xlink="http://www.w3.org/1999/xlink" height="38.3" width="36.05" xmlns="http://www.w3.org/2000/svg"><use height="22.85" transform="translate(14.4 10.8)" width="19.5" xlink:href="#a"/><defs><g id="a" fill-rule="evenodd"><path d="M-5.95.8q2.4.85 4.75 2.15Q-.2 3.5.8 4q.65.25.45-.4Q.6 1.55.55-.6q-.05-1.9-1.1-3l-.2-.05Q4.7-3.2 5.6 1.9l-.4.55q-2 .95-2.95 2.85-.2.2-.45 0-1.7-1.7-4-2.65-1.85-.9-3.7-1.2-.4-.1-.1-.45l.05-.2m3.75 4.9h-.05l-2.65.6q-.3.05 0 .1 2 1.3 4.8 1.45l.25-.25-.05-.55.55.65.15.15.15.4-.35.3q-4.1 1.5-6.75-1.15l-.2-.65q.45-1.5 1.45-2.35l.95.2q.85.5 1.75 1.1m5.75 2.6q.2-1 .65-1.7l.1.15q1.5.75 3.05-.35l.55-.5h.05l-.7 1.75q-.65.9-1.9 1.05-1.3.05-1.8-.4" fill="#b8cbcb" transform="translate(9.4 4.05)"/><path d="m-.75-3.65.2.05Q.5-2.5.55-.6q.05 2.15.7 4.2.2.65-.45.4-1-.5-2-1.05Q-3.55 1.65-5.95.8q1.6-3.45 5.15-4.45h.05M.1 7.05l.05.55-.25.25Q-2.9 7.7-4.9 6.4q-.3-.05 0-.1l2.65-.6h.05L0 7l.1.05" fill="#fff" transform="translate(9.4 4.05)"/><path d="M-.75-3.65H-.8q-3.55 1-5.15 4.45L-6 1q-.3.35.1.45 1.85.3 3.7 1.2 2.3.95 4 2.65.25.2.45 0Q3.2 3.4 5.2 2.45l.4-.55Q4.7-3.2-.75-3.65M-4.9 4.4q-1 .85-1.45 2.35l.2.65Q-3.5 10.05.6 8.55l.35-.3-.15-.4.45.5 1.05 1 .2.1-.8.15-.95.05-1.7.2q-2.2.25-3.7-.05l-1.05-.4q-2.65-1.25-1.95-5.25l2.75.25m5.9.5L-.1 3.8q-2.15-.85-4.25-1.6l-2-.1-.25.1-.6.05.25-.7q1.7-4.1 6.45-5.6 5.65.9 6.85 5.5l.15.95-.5.1q-1.6.65-2.4 1.7-1.25 1.35-1.15 3.45l-.5-1.1-.35-.85-.6-.8m6.5-.65.15-.05q.9 1.5.65 3.4l-.55 1.3-1.55.5-2.95.25L3 9.4l-.1-.05v-.3l.65-.75q.5.45 1.8.4 1.25-.15 1.9-1.05l.7-1.75-.15-1.1-.3-.55" fill="#3c4d4a" transform="translate(9.4 4.05)"/><path d="m-6.35 2.1 2.6 1.2q2.65.9 4.9 2v-.05L1 4.9l.6.8.35.85-.1 1.05Q-.05 5.1-3.3 4.45-5.65 4-7.45 3.15l-.15-.4-.05.3-.5-.3.1-.25.85-.25.6-.05.25-.1m-2.4 2.75v.45l-.15 1.45q-.65 2.45.65 3.55.75.6 1.95.85l2.9.25 8.45-.7.55-.15.6-.1-.2-.1.15-.05h1.2q0 .45.4.4l1.2-.25.1-.15-.25-.45V8.5l.15-3.85.25-1.8q.9 4 .25 8.25-.25 1.35-.9 1.2l-.15.1q-.65.5-1.6.55H-6.1q-.9-.05-1.55-.45-.6-.2-.95-1.1-.65-1.4-.5-3.1 0-1.85.35-3.45m5.35 12.6q1.2.7.3-.3l-.2.05q-.3.15-.1.25m-3-1.6q0-1 .45-1.7l12.6.5.25 1.2q0 .95-.5 1.6-.55.7-1.25.7h-9.8q-.8 0-1.3-.7-.45-.65-.45-1.6m.75-1.45q-1.2 1.7.35 3.3.25.3.4 0 .55-1.8-.75-3.3M6.8 2.3l.9-.1q2.4.55.05 1.1-3.7.9-4.65 4.6-.55-2 .3-3.3l-.2.75.65-.25q.8-.85 1.9-1.3 1.7-.85 1.05-1.5" fill="#a58343" transform="translate(9.4 4.05)"/><path d="M-2.2 5.7q-.9-.6-1.75-1.1l-.95-.2-2.75-.25q-.7 4 1.95 5.25l1.05.4q1.5.3 3.7.05l1.7-.2.95-.05.8-.15-.2-.1-1.05-1-.45-.5-.15-.15-.55-.65L0 7l-2.2-1.3m4.15.85.5 1.1q-.1-2.1 1.15-3.45l-.2.4q-.85 1.3-.3 3.3.95-3.7 4.65-4.6 2.35-.55-.05-1.1l-.9.1-.3.1-.15-.95q3.75 0 3.75 2.4v7.3q0 1.9-2.45 2.35v3q-.1 2.3-2.95 2.3H-4q-2.95 0-2.95-2.3v-3q-2.5-.4-2.45-2.35v-7.3q-.05-1.95 2.45-2.3l-.25.7-.85.25-.1.25.5.3.05-.3.15.4q1.8.85 4.15 1.3 3.25.65 5.15 3.15l.1-1.05m3.1 4.15h-.8q-3.9-.2-7.85-.05-2.9.1-4-1.5l.65.25-.7-.25L-7.8 9l-.3-.5-.15-1.1v-.35l-.05-.45v-.4l-.05-2.05v-1.4q-.4.85-.4 2.05v.05q-.35 1.6-.35 3.45-.15 1.7.5 3.1.35.9.95 1.1.65.4 1.55.45H6.8q.95-.05 1.6-.55l.15-.1q.65.15.9-1.2.65-4.25-.25-8.25l-.25 1.8-.2-1.15h-.1q-.3 2.65.1 5.05h.05v1.3l-.05-.05-.6-.45-.45.2q-.35.25-.35.75h-1.2l-.15.05-.4.2-.55.15M-6.4 15.85q0 .95.45 1.6.5.7 1.3.7h9.8q.7 0 1.25-.7.5-.65.5-1.6l-.25-1.2-12.6-.5q-.45.7-.45 1.7M7.5 4.25h-.2l-.5.2.1-.05q.55.1.85.4h.05-.05q-.3-.3-.85-.4l-.1.05.5-.2h.2l.3.55.15 1.1H7.9l-.55.5Q5.8 7.5 4.3 6.75l-.1-.15q-.45.7-.65 1.7l-.65.75v.3l.1.05.25.25L6.2 9.4l1.55-.5.55-1.3q.25-1.9-.65-3.4l-.15.05m-.7.2h-.2q-.8.35-1.45.85l-.45.45-.5.85.5-.85.45-.45q.65-.5 1.45-.85h.2" fill="#765425" transform="translate(9.4 4.05)"/><path d="m-6.35 2.1 2 .1q2.1.75 4.25 1.6L1 4.9l.15.35v.05q-2.25-1.1-4.9-2l-2.6-1.2M3.6 4.2Q4.4 3.15 6 2.5l.5-.1.3-.1q.65.65-1.05 1.5-1.1.45-1.9 1.3l-.65.25.2-.75.2-.4m1.45 6.5-8.45.7-2.9-.25q-1.2-.25-1.95-.85-1.3-1.1-.65-3.55l.15-1.45v-.5q0-1.2.4-2.05v1.4l.05 2.05v.4l.05.45v.35l.15 1.1.3.5.15.15.7.25-.65-.25q1.1 1.6 4 1.5 3.95-.15 7.85.05h.8m3.9-6.05L8.8 8.5v.05h-.05q-.4-2.4-.1-5.05h.1l.2 1.15m-.15 5.2.25.45-.1.15-1.2.25q-.4.05-.4-.4 0-.5.35-.75l.45-.2.6.45.05.05m-2.8.5.2.1-.6.1.4-.2m-9.4 7.1q-.2-.1.1-.25l.2-.05q.9 1-.3.3m-2.25-3.05q1.3 1.5.75 3.3-.15.3-.4 0-1.55-1.6-.35-3.3" fill="#e2d5ba" transform="translate(9.4 4.05)"/></g></defs></svg>