<?xml version="1.0" encoding="UTF-8" standalone="no"?>
<svg xmlns:xlink="http://www.w3.org/1999/xlink" height="38.3px" width="36.05px" xmlns="http://www.w3.org/2000/svg">
  <g transform="matrix(1.0, 0.0, 0.0, 1.0, 23.8, 14.85)">
    <use height="18.65" transform="matrix(1.0, 0.0, 0.0, 1.0, -16.05, -4.55)" width="25.1" xlink:href="#shape0"/>
  </g>
  <defs>
    <g id="shape0" transform="matrix(1.0, 0.0, 0.0, 1.0, 16.05, 4.55)">
      <path d="M5.85 -2.75 L3.85 -3.4 Q-0.45 -4.55 -4.9 -3.35 L-5.05 -3.3 -6.15 -2.75 -7.65 -2.6 -8.55 -0.8 -12.2 2.1 -8.5 3.0 Q-8.05 3.2 -7.55 3.45 -5.4 4.4 -4.4 6.35 L-4.3 6.75 -4.6 6.6 -5.7 5.7 Q-7.2 4.5 -9.1 3.8 L-9.45 3.7 Q-11.5 2.85 -13.5 3.2 L-14.85 4.7 Q-15.8 6.15 -15.25 7.7 L-14.9 8.8 -13.65 9.7 Q-9.35 11.2 -4.65 10.85 L-2.05 10.5 Q1.0 9.9 3.05 7.5 L3.7 6.75 Q5.65 6.15 7.15 4.8 L7.5 4.15 7.7 2.75 Q8.15 0.85 7.7 -1.2 7.55 -2.0 6.75 -2.55 L5.85 -2.75 M1.3 -4.5 L3.8 -3.95 6.25 -3.25 Q7.8 -2.8 8.0 -1.25 L8.3 2.55 8.8 3.55 9.05 5.25 Q9.15 7.7 6.85 8.65 6.1 8.9 5.4 9.25 3.35 10.3 1.6 12.0 -0.05 13.6 -2.35 14.1 L-9.15 13.9 -14.5 13.0 -15.15 12.4 Q-16.1 11.25 -16.05 9.6 L-16.05 7.5 Q-16.15 4.8 -14.3 3.25 L-12.15 1.45 -10.1 -0.25 Q-9.25 -0.95 -8.8 -1.85 L-7.85 -3.1 -6.7 -3.3 -5.0 -3.8 Q-2.0 -4.7 1.3 -4.5 M-1.15 12.9 Q2.45 11.75 5.1 8.7 6.7 8.6 7.8 7.5 9.0 6.4 8.4 4.55 7.9 5.15 7.25 5.55 L5.3 7.05 0.4 10.45 Q-1.15 11.35 -3.05 11.6 L-12.3 11.05 Q-13.95 11.15 -15.05 9.95 L-15.45 8.85 Q-15.8 10.05 -15.3 11.05 L-14.55 11.9 -14.45 12.15 -13.5 12.3 Q-9.65 13.6 -5.45 13.6 L-3.35 13.4 -3.1 13.35 -1.15 12.9" fill="#000000" fill-rule="evenodd" stroke="none"/>
      <path d="M5.15 -2.25 Q4.15 -3.0 2.85 -3.0 L2.2 -3.05 Q-0.5 -2.1 -3.05 -3.15 L-4.9 -3.35 Q-0.45 -4.55 3.85 -3.4 L5.85 -2.75 5.15 -2.25" fill="#8c023a" fill-rule="evenodd" stroke="none"/>
      <path d="M-4.9 -3.35 L-3.05 -3.15 Q-0.5 -2.1 2.2 -3.05 L2.85 -3.0 Q4.15 -3.0 5.15 -2.25 L4.35 -1.5 -1.05 -1.05 -4.05 -2.35 -4.5 -2.45 -6.15 -2.75 -5.05 -3.3 -4.9 -3.35" fill="#5b0333" fill-rule="evenodd" stroke="none"/>
      <path d="M0.45 -0.5 L1.55 0.0 1.5 0.25 Q0.85 2.2 -0.7 3.7 L-1.15 3.65 -0.8 -0.45 0.45 -0.5 M-14.55 11.9 L-15.3 11.05 Q-15.8 10.05 -15.45 8.85 L-15.05 9.95 Q-13.95 11.15 -12.3 11.05 L-3.05 11.6 Q-1.15 11.35 0.4 10.45 L5.3 7.05 7.25 5.55 Q7.9 5.15 8.4 4.55 9.0 6.4 7.8 7.5 6.7 8.6 5.1 8.7 2.45 11.75 -1.15 12.9 L0.7 11.5 -2.15 12.2 Q-4.2 12.95 -6.4 12.9 L-9.15 13.15 -3.35 13.4 -5.45 13.6 Q-9.65 13.6 -13.5 12.3 L-12.05 12.5 -12.55 12.35 Q-13.75 11.95 -14.8 11.15 L-14.55 11.9" fill="#bcbcbc" fill-rule="evenodd" stroke="none"/>
      <path d="M3.85 -0.95 L3.85 -1.0 3.9 -1.15 0.45 -0.5 -0.8 -0.45 -1.15 3.65 -0.95 4.25 -0.7 4.25 3.85 -0.95 M-1.05 -1.05 L4.35 -1.5 4.25 -1.1 4.0 0.4 3.55 1.15 Q2.55 2.65 1.0 3.6 L-1.9 5.0 -1.9 3.45 -1.85 2.95 -1.05 -1.05" fill="#020200" fill-rule="evenodd" stroke="none"/>
      <path d="M-6.15 -2.75 L-4.5 -2.45 -6.1 -0.25 -8.55 -0.8 -7.65 -2.6 -6.15 -2.75 M4.35 -1.5 L5.15 -2.25 4.25 -1.1 4.35 -1.5 M4.0 0.4 L7.7 2.75 7.5 4.15 7.15 4.8 Q5.65 6.15 3.7 6.75 L3.05 5.7 Q2.1 4.5 1.0 3.6 2.55 2.65 3.55 1.15 L4.0 0.4 M-2.05 10.5 L-4.65 10.85 Q-9.35 11.2 -13.65 9.7 L-13.15 9.8 -11.25 6.7 -6.95 9.9 -7.65 10.75 -5.55 10.75 -6.95 9.9 -4.6 6.6 -4.3 6.75 -2.05 10.5 M-14.85 4.7 L-13.5 3.2 Q-11.5 2.85 -9.45 3.7 L-9.1 3.8 -11.25 6.7 -14.85 4.7 M-4.4 6.35 Q-5.4 4.4 -7.55 3.45 -8.05 3.2 -8.5 3.0 L-6.1 -0.15 -1.85 2.95 -1.9 3.45 -4.4 6.35" fill="#f9f9f9" fill-rule="evenodd" stroke="none"/>
      <path d="M5.15 -2.25 L5.85 -2.75 6.75 -2.55 Q7.55 -2.0 7.7 -1.2 8.15 0.85 7.7 2.75 L4.0 0.4 4.25 -1.1 5.15 -2.25 M-4.5 -2.45 L-4.05 -2.35 -1.05 -1.05 -1.85 2.95 -6.1 -0.15 -8.5 3.0 -12.2 2.1 -8.55 -0.8 -6.1 -0.25 -4.5 -2.45 M3.7 6.75 L3.05 7.5 Q1.0 9.9 -2.05 10.5 L-4.3 6.75 -4.4 6.35 -1.9 3.45 -1.9 5.0 1.0 3.6 Q2.1 4.5 3.05 5.7 L3.7 6.75 M-13.65 9.7 L-14.9 8.8 -15.25 7.7 Q-15.8 6.15 -14.85 4.7 L-11.25 6.7 -9.1 3.8 Q-7.2 4.5 -5.7 5.7 L-4.6 6.6 -6.95 9.9 -5.55 10.75 -7.65 10.75 -6.95 9.9 -11.25 6.7 -13.15 9.8 -13.65 9.7" fill="#424242" fill-rule="evenodd" stroke="none"/>
      <path d="M0.45 -0.5 L3.9 -1.15 3.85 -1.0 3.85 -0.95 -0.7 4.25 -0.95 4.25 -1.15 3.65 -0.7 3.7 Q0.85 2.2 1.5 0.25 L1.55 0.0 0.45 -0.5" fill="#777777" fill-rule="evenodd" stroke="none"/>
      <path d="M-1.15 12.9 L-3.1 13.35 -3.35 13.4 -9.15 13.15 -6.4 12.9 Q-4.2 12.95 -2.15 12.2 L0.7 11.5 -1.15 12.9 M-13.5 12.3 L-14.45 12.15 -14.55 11.9 -14.8 11.15 Q-13.75 11.95 -12.55 12.35 L-12.05 12.5 -13.5 12.3" fill="#e5e5e5" fill-rule="evenodd" stroke="none"/>
    </g>
  </defs>
</svg>
