<?xml version="1.0" encoding="UTF-8" standalone="no"?>
<svg xmlns:xlink="http://www.w3.org/1999/xlink" height="38.3px" width="36.05px" xmlns="http://www.w3.org/2000/svg">
  <g transform="matrix(1.0, 0.0, 0.0, 1.0, 23.8, 14.85)">
    <use height="19.5" transform="matrix(1.0, 0.0, 0.0, 1.0, -8.9, -4.3)" width="18.75" xlink:href="#shape0"/>
  </g>
  <defs>
    <g id="shape0" transform="matrix(1.0, 0.0, 0.0, 1.0, 8.9, 4.3)">
      <path d="M-4.1 13.45 Q-7.1 11.45 -8.35 9.45 L-8.9 7.75 Q-8.4 6.75 -8.4 6.25 -8.5 3.15 -7.85 1.75 -5.85 -2.95 -1.45 -3.9 2.7 -4.9 6.3 -1.1 L8.1 1.5 Q9.65 4.2 9.5 5.75 9.3 7.4 9.45 7.55 10.1 8.1 9.65 9.05 8.95 10.7 5.4 13.25 2.7 15.1 0.75 15.2 -1.35 15.25 -4.1 13.45" fill="#000000" fill-rule="evenodd" stroke="none"/>
      <path d="M8.4 6.6 L8.35 6.55 Q9.05 6.9 8.8 8.25 8.65 9.25 7.4 10.5 5.45 12.45 3.25 13.4 1.55 14.15 0.7 14.15 -3.95 14.15 -7.4 9.15 -8.4 7.75 -8.2 7.15 -8.0 6.5 -6.7 7.35 -3.0 9.75 -1.5 10.05 1.75 10.6 3.95 9.35 L6.55 7.55 Q8.15 6.35 8.4 6.6" fill="#ba16d0" fill-rule="evenodd" stroke="none"/>
      <path d="M0.7 13.3 Q-2.7 13.3 -5.65 9.85 L-7.4 7.9 Q-8.4 6.0 -7.5 3.3 -6.45 0.2 -3.85 -1.55 -1.2 -3.4 1.9 -3.0 5.0 -2.55 7.15 1.6 L8.4 4.65 Q8.7 5.6 8.6 7.35 8.6 8.75 5.9 10.85 2.95 13.3 0.7 13.3" fill="#ffffff" fill-rule="evenodd" stroke="none"/>
      <path d="M5.05 -0.3 Q7.15 1.45 7.2 4.3 7.25 6.7 2.4 7.6 L-2.95 7.3 Q-6.3 6.25 -6.15 3.5 -6.05 2.15 -4.25 -0.25 -2.8 -2.2 0.45 -2.0 3.15 -1.9 5.05 -0.3" fill="#020000" fill-rule="evenodd" stroke="none"/>
      <path d="M3.8 -3.4 Q7.75 -1.55 7.4 4.1 L-0.7 5.0 -5.85 4.6 Q-6.7 4.45 -6.4 2.05 -5.65 -1.6 -2.6 -3.2 L3.8 -3.4" fill="#020000" fill-rule="evenodd" stroke="none"/>
      <path d="M-0.65 -3.2 Q2.35 -3.75 4.5 -2.05 7.1 -0.2 6.55 3.7 6.2 4.75 3.7 6.4 1.1 8.2 0.4 8.1 -0.4 8.0 -4.35 5.05 -6.8 3.2 -5.0 -0.25 -3.75 -2.7 -0.65 -3.2" fill="#cccccc" fill-rule="evenodd" stroke="none"/>
      <path d="M0.15 9.35 Q-1.2 9.25 -4.65 6.2 L-5.5 4.2 -2.8 6.05 Q-1.4 7.05 -0.35 7.1 1.65 7.15 6.6 4.25 6.25 5.35 3.5 7.4 0.85 9.4 0.15 9.35" fill="#030303" fill-rule="evenodd" stroke="none"/>
      <path d="M0.15 8.85 Q-1.2 8.7 -4.65 5.65 L-5.5 3.65 -2.8 5.55 Q-1.4 6.55 -0.35 6.6 1.65 6.65 6.6 3.7 6.25 4.8 3.5 6.9 0.85 8.9 0.15 8.85" fill="#ffffff" fill-rule="evenodd" stroke="none"/>
      <path d="M5.4 -2.2 Q6.6 -1.4 7.05 0.05 4.1 1.65 1.0 1.6 L-5.35 0.3 -5.0 -0.9 Q-1.9 -7.0 5.4 -2.2" fill="#ffffff" fill-rule="evenodd" stroke="none"/>
      <path d="M6.65 1.45 L6.65 2.85 Q6.55 4.2 0.35 4.45 -1.5 4.6 -5.85 2.45 L-5.65 1.05 Q-5.45 1.55 -3.0 2.35 L0.45 3.25 Q1.75 3.45 6.65 1.45" fill="#ffffff" fill-rule="evenodd" stroke="none"/>
      <path d="M7.05 1.15 L8.65 5.6 6.65 5.65 7.05 1.15" fill="#030303" fill-rule="evenodd" stroke="none"/>
      <path d="M6.75 4.95 L7.05 9.8 2.55 9.9 2.55 7.55 Q5.3 6.65 6.75 4.95" fill="#030303" fill-rule="evenodd" stroke="none"/>
      <path d="M0.8 13.35 Q-0.45 13.3 -2.4 12.35 L-2.3 9.9 2.55 9.9 2.5 12.9 0.8 13.35" fill="#030303" fill-rule="evenodd" stroke="none"/>
      <path d="M-2.4 7.8 L-2.3 9.9 -6.8 8.85 -7.8 7.15 Q-8.4 5.8 -7.9 5.35 L-5.3 4.45 -2.4 7.8" fill="#030303" fill-rule="evenodd" stroke="none"/>
      <path d="M-6.3 2.75 L-7.7 2.65 -6.1 -0.2 -5.7 0.15 -6.3 2.75" fill="#030303" fill-rule="evenodd" stroke="none"/>
    </g>
  </defs>
</svg>
