<svg xmlns:xlink="http://www.w3.org/1999/xlink" height="38.3" width="36.05" xmlns="http://www.w3.org/2000/svg"><use height="19.5" transform="translate(14.9 10.55)" width="18.75" xlink:href="#a"/><defs><g id="a" fill-rule="evenodd"><path d="M-4.1 13.45q-3-2-4.25-4l-.55-1.7q.5-1 .5-1.5-.1-3.1.55-4.5 2-4.7 6.4-5.65 4.15-1 7.75 2.8l1.8 2.6q1.55 2.7 1.4 4.25-.2 1.65-.05 1.8.65.55.2 1.5-.7 1.65-4.25 4.2Q2.7 15.1.75 15.2q-2.1.05-4.85-1.75" transform="translate(8.9 4.3)"/><path d="m8.4 6.6-.05-.05q.7.35.45 1.7-.15 1-1.4 2.25-1.95 1.95-4.15 2.9-1.7.75-2.55.75-4.65 0-8.1-5-1-1.4-.8-2 .2-.65 1.5.2 3.7 2.4 5.2 2.7 3.25.55 5.45-.7l2.6-1.8q1.6-1.2 1.85-.95" fill="#ba16d0" transform="translate(8.9 4.3)"/><path d="M.7 13.3q-3.4 0-6.35-3.45L-7.4 7.9q-1-1.9-.1-4.6Q-6.45.2-3.85-1.55-1.2-3.4 1.9-3q3.1.45 5.25 4.6L8.4 4.65q.3.95.2 2.7 0 1.4-2.7 3.5Q2.95 13.3.7 13.3" fill="#fff" transform="translate(8.9 4.3)"/><path d="M5.05-.3q2.1 1.75 2.15 4.6.05 2.4-4.8 3.3l-5.35-.3q-3.35-1.05-3.2-3.8.1-1.35 1.9-3.75Q-2.8-2.2.45-2q2.7.1 4.6 1.7" fill="#020000" transform="translate(8.9 4.3)"/><path d="M3.8-3.4q3.95 1.85 3.6 7.5L-.7 5l-5.15-.4q-.85-.15-.55-2.55.75-3.65 3.8-5.25l6.4-.2" fill="#020000" transform="translate(8.9 4.3)"/><path d="M-.65-3.2q3-.55 5.15 1.15Q7.1-.2 6.55 3.7 6.2 4.75 3.7 6.4 1.1 8.2.4 8.1-.4 8-4.35 5.05-6.8 3.2-5-.25-3.75-2.7-.65-3.2" fill="#ccc" transform="translate(8.9 4.3)"/><path d="M.15 9.35q-1.35-.1-4.8-3.15l-.85-2 2.7 1.85q1.4 1 2.45 1.05 2 .05 6.95-2.85-.35 1.1-3.1 3.15Q.85 9.4.15 9.35" fill="#030303" transform="translate(8.9 4.3)"/><path d="M.15 8.85q-1.35-.15-4.8-3.2l-.85-2 2.7 1.9q1.4 1 2.45 1.05 2 .05 6.95-2.9-.35 1.1-3.1 3.2Q.85 8.9.15 8.85M5.4-2.2q1.2.8 1.65 2.25Q4.1 1.65 1 1.6L-5.35.3-5-.9Q-1.9-7 5.4-2.2" fill="#fff" transform="translate(8.9 4.3)"/><path d="M6.65 1.45v1.4q-.1 1.35-6.3 1.6-1.85.15-6.2-2l.2-1.4q.2.5 2.65 1.3l3.45.9q1.3.2 6.2-1.8" fill="#fff" transform="translate(8.9 4.3)"/><path d="m7.05 1.15 1.6 4.45-2 .05.4-4.5" fill="#030303" transform="translate(8.9 4.3)"/><path d="m6.75 4.95.3 4.85-4.5.1V7.55q2.75-.9 4.2-2.6M.8 13.35q-1.25-.05-3.2-1l.1-2.45h4.85l-.05 3-1.7.45" fill="#030303" transform="translate(8.9 4.3)"/><path d="m-2.4 7.8.1 2.1-4.5-1.05-1-1.7q-.6-1.35-.1-1.8l2.6-.9 2.9 3.35m-3.9-5.05-1.4-.1L-6.1-.2l.4.35-.6 2.6" fill="#030303" transform="translate(8.9 4.3)"/></g></defs></svg>