<svg xmlns:xlink="http://www.w3.org/1999/xlink" height="38.3" width="36.05" xmlns="http://www.w3.org/2000/svg"><use height="19.2" transform="translate(13.4 9.15)" width="20" xlink:href="#a"/><defs><g id="a" fill-rule="evenodd"><path d="m5.8-4.35-.75-.3L5-4.6v.05l-.7-.25-.1.1 1.15 1.15Q3.7-2.7 1.9-2.5q-.05-.65-.75-1.05-.5.6-.15 1.1Q1.05-.9 2.05.6q.25.3.55.4Q5.4 2 7.95.2q.65-.1.5-.6l-.1-.3-.05-.05-.65.35L5.2.7 3.6.6q2.15.1 4-1.3v-.4q.15-1.85-1.1-2.85l-.7-.4M1.9-2.3l.05.1.05.1-.1-.15v-.05m.6 1.15.15.25.7 1.45Q3 .25 2.8-.3l-.3-.85M6.85-3.8q1.15.85 1.4 2.6l.05.2q.65.45.3 1.05l.05.05q.6 1.5-.45 2.15l-.1.25 1 2.05q.85 2.3.3 4.65l-.45 1q.8 1.95-2.5 2.65-7.55 1.55-14.9-.6-1.75-.5-1.1-1.7-1.15-.9-.75-2.7.7-3.15 2.3-5.4-.6-.45-.4-1.2L-8.05 0l-.4-.65q-.25-.6.4-.85l.35-.05.1-.25.35-1.65q.35-1.2 1.5-1.5l3.05-.65h.5l3.25-.1q3 .05 5.45 1.5l.35.4m1.4 5.3.25-.35L8.2.5l-.15.1q-2.2 1.55-4.6 1.3V2q0 .25-.25.15-1-.35-1.6-1.3-1-1.6-1-3.3L-.45-2.5q.1.65-.2 1.5-.3.9-.85 1.65-1.1 1.5-2.6 1.45Q-6 2-7.4.75l-.4-.4-.15.85.05-.05.65.65q1.2.6 2.25 1.4l1.75.45q.3 0 .2-.1l.65-.7.65-1.05.8-1.05.7-.9q1.3 1.1 2.1 2.75.3.6.85.8.65.2.65-.4 2.15.05 4.25-1.05l.65-.45M7.4 7.6 7 6.8 5.7 5.6q-1.1-.65-1.85-1.65l-1.2.25-.2.05H2.2L2 4.1l-.05-.15-.2-.2-.95-1.8-.8.35.05.9.15.05.1-.05h.05l-.05.1.4.5v.05l-.6.05.05.75 2.15.2h.05l-2.2.25v.1l.2.05h1.6l1.6.3H3q-1.1-.25-1.8.4l.5.4H.2l.05.95 1.45-.25h.25v.05l-1.4.55.15.1.05.05-.5.1v2.9l2.5-.05L7.5 8.9v-.6l-.1-.7m1.1 3.55.25-.25-.1-.1q-.15-.35-.55-.3l-.35.2-1.8.4-2.05.3q-5.75.75-11.15-.05L-8 11.2h-.25l-.75-.15q1.1.85 2.65 1.2 6.25 1.35 12.65.3 2.5-.4 2.2-1.4M-3.6-5.05l-.35-.05-1.95.5-.2.2-.15.15-.65 1.15-.05.6-.3.85-.05.15.75.65.6.55 1.85.9Q-5.65.6-6.85-.5l-.5-.5-.15-.15-.15-.1-.1-.1-.2.2.05.15q-.45.9.7 1.65l1.1.65Q-3 2.85-1.45-.1l.55-1q.4-.75.35-1.25Q-.5-2.7-1-3.2l-.05.05-.1-.1-.15.1L-2.6.1l-.45.35-.2.05-.3.25Q-2-.7-1.85-2.45v-.3Q-3.45-3.2-4.8-4.1l-.05-.15.85-.2v-.2h.05l.2-.05 2.3-.35-.65-.15h-.45l-1.05.15m3.1 14.1-.1-1-1 .35v-.05l.85-.6q-.5-.3-.6-.95l.7.3v-.8q-1.85-.15-3.4.05.4-.35-.3-.55l-.05-.1 2.5-.3-.4-.15q.35-.3.95-.35l.8-.05v-.1l-1.5-.05 1.25-.1h.25l.05-.65-.15.05-.1.05.25-.25v-.05q-.4-.25-.3-.85l.4.1.1-.5-2.2 1.05.3-.5-.85 1.55h-.1l-.5-.15-2.9-.2-.5-.15-.6.65h-.05l-.25.25q-.75.6-1.1 1.6l-.1.3.2 1q3.15 1.75 6.6 2.8l1.35.1-.1-.05v-.05l.9-.2-.25-1.1-.05-.35m-.25-8 .4-.5.25.35-.25-.4-.4.55m.6 9.6-.05.15h.1l-.05-.15" fill="#371200" transform="translate(10.4 5.7)"/><path d="M1.9-2.5q1.8-.2 3.45-1.05L4.2-4.7l.1-.1.7.25v-.05l.05-.05.75.3-.3-.05q-.3 0-.15.2l.25.65Q4.3-2.7 2.85-2.3q1.55.35 3.25-.4l.3-.2q.4.95 1.05 1.45v-.05q.05-1.35-.9-2.3l-.05-.15q1.25 1 1.1 2.85v.4Q5.75.7 3.6.6L3.35.55 2.65-.9l-.15-.25-.05-.05L2-2.1l-.05-.1-.05-.1v-.2m6.6 3.65L8.25.8q-.4.15-.65.55-.15.2.05.2l.6-.05-.65.45Q5.5 3.05 3.35 3q0 .6-.65.4-.55-.2-.85-.8Q1.05.95-.25-.15l-.7.9-.8 1.05-.65 1.05-.65.7q.1.1-.2.1L-5 3.2q-1.05-.8-2.25-1.4l-.65-.65-.05.05.15-.85.4.4Q-6 2-4.1 2.1q1.5.05 2.6-1.45Q-.95-.1-.65-1q.3-.85.2-1.5l1.05.05q0 1.7 1 3.3.6.95 1.6 1.3.25.1.25-.15v-.1q2.4.25 4.6-1.3L8.2.5l.3.65m-4.4 1.4-.05-.05q-1.5-.2-2.65-1.3l.1.45q.75 2 2.6.9m-.55 3-1.6-.3H.35l-.2-.05v-.1l2.2-.25H2.3l-2.15-.2L.1 3.9l.6-.05V3.8l-.4-.5.05-.1H.3l-.1.05-.15-.05L0 2.3l.8-.35.95 1.8.2.2.05.15.2.15h.25l.2-.05 1.2-.25q.75 1 1.85 1.65L7 6.8l.4.8v.75l.1-.05v.6l-4.75 1.85-2.5.05V9.4l3.25-.1q1.4.2 2.9-.6l.75-.25-.15-.3q.5-1.25-.9-1.65-.95-.95-2.55-.95M1.95 7.1v.2l-.1.85v.2l-.15.05q-.2.1-.1.15l.35.2.1.05.7.35-2.5-.05V7.9l.5-.1-.05-.05-.15-.1 1.4-.55m0-.05H1.7L.25 7.3.2 6.35h1.5l.25.7M-3.6-5.05l1.05-.15h.45l.65.15-2.3.35-.2.05H-4v.2l-.85.2-.05-.3.15-.05L-3.6-5v-.05m-1.2.95q1.35.9 2.95 1.35v.3Q-2-.7-3.55.75L-3.6.8l-.5-.2-1.85-.9-.6-.55-.75-.65.05-.15.3-.85 1.1.05.7-.45q.45.35 1.2.6l1.3-.05q.35-.15 0-.2-1.7-.25-2.15-1.55m-2.85 8.85.6-.65.5.15 2.9.2.5.15h.1l.85-1.55-.3.5L-.3 2.5l-.1.5-.4-.1q-.1.6.3.85v.05l-.25.25.1-.05.15-.05-.05.65H-.8l-1.25.1 1.5.05v.1l-.8.05q-.6.05-.95.35l.4.15-2.5.3.05.1q.7.2.3.55 1.55-.2 3.4-.05v.8l-.7-.3q.1.65.6.95l-.85.6v.05l1-.35.1 1L-3.15 9h-.25l2.95.4.25 1.1-.9.2v.05l.1.05-1.35-.1q-3.45-1.05-6.6-2.8l-.2-1 .1-.3q.35-1 1.1-1.6-1.5 2.75 1.05 3.05v.05q.25.55.75.3 1.9-.85 0-1.9-.7.3-.85.8-.55-1.2-.65-2.55m6.9-3.7.4-.55.25.4-.25-.35-.4.5m-4.05 2.1q.6.5 1.2.2 1.15-.6 1.75-1.75-2.15 2-4.45.35l1.5 1.2m-1.85-1.4-.05-.05q-.3-.6-.9-.95l-.1.05-.1.1-.05.05q.35.8 1.2.8m6.5 8.9.05.15h-.1l.05-.15" fill="#64350b" transform="translate(10.4 5.7)"/><path d="m7.65-.4.65-.35.05.05.1.3q.15.5-.5.6L7.3.25l.35-.65M1-2.45q-.35-.5.15-1.1.7.4.75 1.05v.25l-.05.3v.05Q1.2-2.15 1-2.45m1.05 1.2Q2.55 0 3.6.85 2 .7 2-1.2l.05-.05m5.7 11.95.35-.2q.4-.05.55.3l.1.1-.25.25q-1.7 1.5-4.05.65 1.75-.3 3.3-1.1m-15.95.5h.2l.75.15 3 .75q-2.15.4-3.85-.85h-.05l-.05-.05m7.15-14.35L-1-3.2q.5.5.45.85-.1.3-.75.5L-1.4-2q-.15-.8.35-1.15M-7.9-1l-.05-.15.2-.2.1.1.3.25.5.5L-5.7.7v.05Q-7.5.7-7.9-1m4.25 2.15L-2.2 0q-.05 1.45-1.5 1.25l.05-.1" fill="#fff" transform="translate(10.4 5.7)"/><path d="m3.6.6 1.6.1L7.65-.4 7.3.25 7.95.2Q5.4 2 2.6 1 2.3.9 2.05.6 1.05-.9 1-2.45q.2.3.85.55v-.05l.05-.3.1.15.45.9.05.05.3.85q.2.55.55.85L3.6.6M2.05-1.25 2-1.2Q2 .7 3.6.85 2.55 0 2.05-1.25m6.45 12.4q.3 1-2.2 1.4-6.4 1.05-12.65-.3-1.55-.35-2.65-1.2l.75.15h.05l.05.05-.1-.05.05.15.1-.1q1.7 1.25 3.85.85l-3-.75q5.4.8 11.15.05l2.05-.3 1.8-.4q-1.55.8-3.3 1.1 2.35.85 4.05-.65M-3.55.75l.3-.25.2-.05.45-.35 1.3-3.25.15-.1.1.1q-.5.35-.35 1.15l.1.15q.65-.2.75-.5.05.5-.35 1.25l-.55 1Q-3 2.85-6.1 1.3L-7.2.65Q-8.35-.1-7.9-1-7.5.7-5.7.75V.7L-6.85-.5Q-5.65.6-4.1.6l.5.2.05-.05m-4.1-2 .15.1.15.15-.3-.25m4 2.4-.05.1q1.45.2 1.5-1.25l-1.45 1.15" fill="#ffbe46" transform="translate(10.4 5.7)"/><path d="m5.8-4.35.7.4.05.15q.95.95.9 2.3v.05Q6.8-1.95 6.4-2.9l-.3.2q-1.7.75-3.25.4Q4.3-2.7 5.6-3.55l-.25-.65q-.15-.2.15-.2l.3.05m2.7 5.5-.25.35-.6.05q-.2 0-.05-.2.25-.4.65-.55l.25.35m-4.4 1.4q-1.85 1.1-2.6-.9l-.1-.45q1.15 1.1 2.65 1.3l.05.05m-.55 3q1.6 0 2.55.95 1.4.4.9 1.65l.15.3-.75.25q-1.5.8-2.9.6l-3.25.1v-.3l2.5.05-.7-.35-.1-.05-.35-.2q-.1-.05.1-.15l.15-.05v-.2l.1-.85v-.25l-.25-.7-.5-.4q.7-.65 1.8-.4h.55M7.5 8.3l-.1.05V7.6l.1.7M-6.95-2.5l.05-.6.65-1.15.15-.15.2-.2 1.95-.5.35.05V-5l-1.15.4-.15.05.05.3.05.15q.45 1.3 2.15 1.55.35.05 0 .2l-1.3.05q-.75-.25-1.2-.6l-.7.45-1.1-.05m-.7 7.25q.1 1.35.65 2.55.15-.5.85-.8 1.9 1.05 0 1.9-.5.25-.75-.3v-.05Q-9.45 7.75-7.95 5l.25-.25h.05m7.2 4.65L-3.4 9h.25l2.65.05.05.35M-4.8 3.15l-1.5-1.2Q-4 3.6-1.85 1.6q-.6 1.15-1.75 1.75-.6.3-1.2-.2m-1.85-1.4q-.85 0-1.2-.8L-7.8.9l.1-.1.1-.05q.6.35.9.95l.05.05" fill="#a95101" transform="translate(10.4 5.7)"/></g></defs></svg>