<?xml version="1.0" encoding="UTF-8" standalone="no"?>
<svg xmlns:xlink="http://www.w3.org/1999/xlink" height="38.3px" width="36.05px" xmlns="http://www.w3.org/2000/svg">
  <g transform="matrix(1.0, 0.0, 0.0, 1.0, 23.8, 14.85)">
    <use height="15.8" transform="matrix(1.0, 0.0, 0.0, 1.0, -14.7, -2.9)" width="22.75" xlink:href="#shape0"/>
  </g>
  <defs>
    <g id="shape0" transform="matrix(1.0, 0.0, 0.0, 1.0, 14.7, 2.9)">
      <path d="M-4.75 -1.3 Q-2.2 -2.7 0.95 -2.35 2.75 -2.2 4.35 -1.35 L1.45 -0.5 Q-0.8 0.0 -4.75 -1.3 M-14.05 9.0 Q-14.6 8.05 -12.95 6.05 -9.9 5.4 -7.2 6.6 -4.15 7.95 -4.85 10.35 -9.75 10.95 -13.25 9.65 L-13.8 9.35 -14.05 9.0" fill="#004566" fill-rule="evenodd" stroke="none"/>
      <path d="M4.35 -1.35 L4.55 -0.9 4.3 -0.85 5.05 0.6 4.4 0.5 Q-3.9 3.2 -4.45 10.3 L-4.85 10.35 Q-4.15 7.95 -7.2 6.6 -9.9 5.4 -12.95 6.05 L-12.1 5.0 -6.65 -0.1 -4.75 -1.3 Q-0.8 0.0 1.45 -0.5 L4.35 -1.35 M6.1 2.6 L7.45 5.2 5.85 6.95 4.95 7.5 1.45 8.9 Q1.35 3.9 6.1 2.6" fill="#cc0000" fill-rule="evenodd" stroke="none"/>
      <path d="M5.9 1.95 L6.25 2.55 6.2 2.55 6.1 2.6 Q1.35 3.9 1.45 8.9 L4.95 7.5 5.85 6.95 7.45 5.2 Q7.65 7.1 7.4 7.5 L7.3 7.65 Q6.2 9.0 3.35 10.15 L-1.1 11.55 -6.85 12.4 Q-10.4 12.55 -13.15 11.55 L-13.7 11.25 Q-14.05 10.9 -14.05 9.0 L-13.8 9.35 -13.25 9.65 Q-9.75 10.95 -4.85 10.35 L-4.45 10.3 Q-3.9 3.2 4.4 0.5 L5.05 0.6 5.15 0.6 6.2 2.55 5.9 1.95" fill="#ffffff" fill-rule="evenodd" stroke="none"/>
      <path d="M-4.75 -1.3 Q-2.2 -2.7 0.95 -2.35 2.75 -2.2 4.35 -1.35 L4.55 -0.9 5.9 1.95 6.2 2.55 7.45 5.2 Q7.65 7.1 7.4 7.5 L7.3 7.65 Q6.2 9.0 3.35 10.15 L-1.1 11.55 -6.85 12.4 Q-10.4 12.55 -13.15 11.55 L-13.7 11.25 Q-14.05 10.9 -14.05 9.0 -14.6 8.05 -12.95 6.05 L-12.1 5.0 -6.65 -0.1 -4.75 -1.3 Z" fill="none" stroke="#000000" stroke-linecap="round" stroke-linejoin="round" stroke-width="1.0"/>
    </g>
  </defs>
</svg>
