<?xml version="1.0" encoding="UTF-8" standalone="no"?>
<svg xmlns:xlink="http://www.w3.org/1999/xlink" height="38.3px" width="36.05px" xmlns="http://www.w3.org/2000/svg">
  <g transform="matrix(1.0, 0.0, 0.0, 1.0, 23.8, 14.85)">
    <use height="16.0" transform="matrix(1.0, 0.0, 0.0, 1.0, -13.7, -2.5)" width="20.9" xlink:href="#sprite0"/>
  </g>
  <defs>
    <g id="sprite0" transform="matrix(1.0, 0.0, 0.0, 1.0, 10.45, 8.0)">
      <use height="16.0" transform="matrix(1.0, 0.0, 0.0, 1.0, -10.45, -8.0)" width="20.9" xlink:href="#shape0"/>
    </g>
    <g id="shape0" transform="matrix(1.0, 0.0, 0.0, 1.0, 10.45, 8.0)">
      <path d="M-6.05 -1.0 Q-6.4 0.25 -7.4 0.85 -9.6 2.2 -9.8 3.0 L-9.95 4.45 Q-9.6 5.35 -7.65 5.55 -5.3 5.85 -0.65 5.55 4.15 5.25 4.45 4.65 L5.95 0.5 7.8 0.65 9.55 -0.05 Q9.55 -2.5 9.15 -3.15 7.4 -6.2 6.35 -6.7 5.1 -7.2 2.8 -7.35 L-0.9 -7.1 Q-3.45 -6.1 -4.35 -4.3 -5.95 -1.75 -6.05 -1.0" fill="#e5b6a2" fill-rule="evenodd" stroke="none"/>
      <path d="M6.35 2.4 L7.9 4.5 Q8.85 4.6 9.55 3.6 9.95 3.0 9.65 1.05 L9.3 -0.85 Q6.9 -0.7 5.1 0.15 4.75 0.25 4.4 1.8 L3.45 3.9 Q1.6 5.75 -3.15 5.75 L-9.6 4.75 -9.5 5.9 -8.85 6.6 -6.5 7.2 -2.15 7.3 3.5 6.25 5.95 4.9 Q6.6 4.3 6.55 3.3 L6.35 2.4" fill="#b89282" fill-rule="evenodd" stroke="none"/>
      <path d="M-6.2 -0.4 Q-6.25 0.15 -8.0 1.25 -9.8 2.4 -9.95 3.2 -10.05 5.55 -9.35 6.35 -8.9 6.8 -3.2 7.4 -0.05 7.65 6.0 5.4 7.0 5.0 5.95 1.55 7.05 4.3 7.9 4.5 8.5 4.65 9.2 3.95 9.9 3.3 9.95 2.65 L9.4 -2.25 Q8.55 -5.7 6.35 -6.7 3.5 -7.85 0.65 -7.35 -2.0 -6.9 -3.8 -4.85 -5.95 -2.55 -6.2 -0.4 Z" fill="none" stroke="#614430" stroke-linecap="round" stroke-linejoin="round" stroke-width="1.0"/>
      <path d="M-8.1 3.15 L-4.05 3.45" fill="none" stroke="#ffdfd1" stroke-linecap="round" stroke-linejoin="round" stroke-width="1.0"/>
      <path d="M-3.65 -1.4 L-7.1 -4.65 Q-8.55 -5.6 -9.8 -2.85 -10.15 -1.95 -9.65 -0.45 -9.15 1.05 -8.4 1.35 -7.75 1.55 -6.2 1.0 L-4.75 0.4 -2.1 3.15 Q-1.05 4.1 0.25 3.3 1.0 2.7 1.8 0.6 2.75 -1.8 1.8 -2.3 0.9 -2.8 -3.65 -1.4" fill="#ff7252" fill-rule="evenodd" stroke="none"/>
      <path d="M-2.1 -1.7 L-3.1 -1.5 Q-4.0 -1.35 -4.2 -0.85 -4.75 0.6 -4.35 1.35 -4.1 1.85 -2.15 2.9 -2.6 0.85 -2.3 0.25 L-0.45 -1.85 -2.1 -1.7" fill="#e5674a" fill-rule="evenodd" stroke="none"/>
      <path d="M-8.2 -1.45 Q-8.4 -2.55 -7.15 -4.25 L-8.25 -4.6 Q-8.85 -4.6 -9.6 -3.45 L-9.9 -2.0 -9.65 -0.75 Q-9.2 0.4 -8.4 1.35 -7.95 1.8 -5.75 0.75 L-7.0 0.25 Q-8.1 -0.1 -8.2 -1.45" fill="#e5674a" fill-rule="evenodd" stroke="none"/>
      <path d="M-3.8 -1.3 L-5.45 -3.25 Q-7.35 -5.15 -8.55 -4.5 -9.9 -3.9 -9.85 -1.8 -9.85 0.05 -9.05 0.95 -8.2 1.9 -4.65 0.65 -2.35 3.85 -0.75 3.75 0.35 3.65 1.4 1.35 2.45 -0.95 2.1 -1.95 L-0.95 -2.05 -3.8 -1.3 Z" fill="none" stroke="#a14218" stroke-linecap="round" stroke-linejoin="round" stroke-width="1.0"/>
      <path d="M7.9 -5.6 Q5.95 -6.55 4.25 -6.95 L-1.6 -6.8 Q-1.3 -5.4 1.3 -4.45 4.0 -3.45 7.9 -5.6" fill="#8a6144" fill-rule="evenodd" stroke="none"/>
    </g>
  </defs>
</svg>
