<svg xmlns:xlink="http://www.w3.org/1999/xlink" height="38.3" width="36.05" xmlns="http://www.w3.org/2000/svg"><use height="16" transform="translate(10.1 12.35)" width="20.9" xlink:href="#a"/><defs><use height="16" width="20.9" xlink:href="#b" id="a"/><g id="b"><path d="M-6.05-1Q-6.4.25-7.4.85-9.6 2.2-9.8 3l-.15 1.45q.35.9 2.3 1.1 2.35.3 7 0 4.8-.3 5.1-.9L5.95.5 7.8.65l1.75-.7q0-2.45-.4-3.1Q7.4-6.2 6.35-6.7 5.1-7.2 2.8-7.35l-3.7.25q-2.55 1-3.45 2.8-1.6 2.55-1.7 3.3" fill="#e5b6a2" fill-rule="evenodd" transform="translate(10.45 8)"/><path d="M6.35 2.4 7.9 4.5q.95.1 1.65-.9.4-.6.1-2.55L9.3-.85q-2.4.15-4.2 1-.35.1-.7 1.65l-.95 2.1Q1.6 5.75-3.15 5.75l-6.45-1 .1 1.15.65.7 2.35.6 4.35.1L3.5 6.25 5.95 4.9q.65-.6.6-1.6l-.2-.9" fill="#b89282" fill-rule="evenodd" transform="translate(10.45 8)"/><path d="M-6.2-.4Q-6.25.15-8 1.25-9.8 2.4-9.95 3.2q-.1 2.35.6 3.15.45.45 6.15 1.05 3.15.25 9.2-2 1-.4-.05-3.85Q7.05 4.3 7.9 4.5q.6.15 1.3-.55.7-.65.75-1.3l-.55-4.9Q8.55-5.7 6.35-6.7 3.5-7.85.65-7.35-2-6.9-3.8-4.85-5.95-2.55-6.2-.4Z" fill="none" stroke="#614430" stroke-linecap="round" stroke-linejoin="round" transform="translate(10.45 8)"/><path d="m-8.1 3.15 4.05.3" fill="none" stroke="#ffdfd1" stroke-linecap="round" stroke-linejoin="round" transform="translate(10.45 8)"/><path d="M-3.65-1.4-7.1-4.65q-1.45-.95-2.7 1.8-.35.9.15 2.4t1.25 1.8q.65.2 2.2-.35l1.45-.6 2.65 2.75q1.05.95 2.35.15Q1 2.7 1.8.6q.95-2.4 0-2.9-.9-.5-5.45.9" fill="#ff7252" fill-rule="evenodd" transform="translate(10.45 8)"/><path d="m-2.1-1.7-1 .2q-.9.15-1.1.65-.55 1.45-.15 2.2.25.5 2.2 1.55Q-2.6.85-2.3.25l1.85-2.1-1.65.15m-6.1.25q-.2-1.1 1.05-2.8l-1.1-.35q-.6 0-1.35 1.15L-9.9-2l.25 1.25Q-9.2.4-8.4 1.35q.45.45 2.65-.6L-7 .25q-1.1-.35-1.2-1.7" fill="#e5674a" fill-rule="evenodd" transform="translate(10.45 8)"/><path d="m-3.8-1.3-1.65-1.95q-1.9-1.9-3.1-1.25-1.35.6-1.3 2.7 0 1.85.8 2.75.85.95 4.4-.3 2.3 3.2 3.9 3.1 1.1-.1 2.15-2.4 1.05-2.3.7-3.3l-3.05-.1-2.85.75Z" fill="none" stroke="#a14218" stroke-linecap="round" stroke-linejoin="round" transform="translate(10.45 8)"/><path d="M7.9-5.6q-1.95-.95-3.65-1.35l-5.85.15q.3 1.4 2.9 2.35 2.7 1 6.6-1.15" fill="#8a6144" fill-rule="evenodd" transform="translate(10.45 8)"/></g></defs></svg>