<svg xmlns:xlink="http://www.w3.org/1999/xlink" height="38.3" width="36.05" xmlns="http://www.w3.org/2000/svg"><use height="15.8" transform="translate(9.4 12.75)" width="23.35" xlink:href="#a"/><defs><g id="a"><path d="m5.3 10.1.85-1.6q.5-.3 1.25-2.9l1 .75q.3.4.15 1.25-.15.95-.8 1.35L5.3 10.1" fill="#c99f55" fill-rule="evenodd" transform="translate(14.4 2.1)"/><path d="M5.1 10.2q-7.7 2.45-11.15 2.45-4.95 0-6.6-1.1-.9-.65-.7-1.9.2-1.25 1.05-1.4l1.95-2.5q6.2-6.9 12.05-6.85 1.7.05 3.95 2.8 2.05 2.65 2.1 4.2.15 3.4-2.65 4.3" fill="#4fbcff" fill-rule="evenodd" transform="translate(14.4 2.1)"/><path d="M7.3 4.35q.7 1.8.55 2.15-1 1.9-4.3 2.6l-5 1.2-2.15.85-3.6.25q-1.25-.7-1.9-.7l-2.25-.45-1-.7.3-1.75q.65-1.6 4.2-5.25 3.7-4.3 8.5-3.95 4.85.35 6.65 5.75" fill="#c49480" fill-rule="evenodd" transform="translate(14.4 2.1)"/><path d="M7.65 5.4q.25 1.65-3.1 2.85-3.3 1.3-4.2 1.1m-9.1 1.05-2.35-.7-.95-.7-.3-1.35" fill="none" stroke="#94765c" stroke-linecap="round" stroke-linejoin="round" transform="translate(14.4 2.1)"/><path d="m-13.2 8.3-.5.65q-.4.8 0 1.75 1.35 2.8 9.25 2.45Q-.6 12.9 6.25 9.7q2.6-1.1 2.15-3.35" fill="none" stroke="#27128f" stroke-linecap="round" stroke-linejoin="round" transform="translate(14.4 2.1)"/><path d="M8.4 6.55q0-1.15-.7-2.3Q7.05 2.5 5.45.95q-1.6-1.6-4-2.3-2.45-.7-5.3.7-2 .9-3.3 2.35l-5.3 6-.75.65" fill="none" stroke="#000" stroke-linecap="round" stroke-linejoin="round" transform="translate(14.4 2.1)"/><path d="M-.9 9.7q-1.3 1.65-3.9 1.65-2.55 0-2.5-.55" fill="none" stroke="#94765c" stroke-linecap="round" stroke-linejoin="round" transform="translate(14.4 2.1)"/><path d="M-7.6 2.7q4.2.15 5.6 2.4Q-.55 7.3.2 10.45q-3.6 3-9.05 1.45-4.3-1.3-4.3-2.5 0-.55 2.55-3.55l3-3.15" fill="#4fbcff" fill-rule="evenodd" transform="translate(14.4 2.1)"/><path d="M-9.1 3.7q1.55-1.05 1.55 1.45 0 1.15-1.15 3.45l1.9-1.35q2.35-1.45 3.55-1 1 .3 1.25 1.45.3 1.15-.4 1.7-.85.7-2.4-.45.75-.05 1.2-.9.3-.65-.4-.7-.7-.1-1.35.35-1.85 1.25.1 2.75 1.05.75 4.85.75l2.75.15-3.7 1-3.6.45-3.45-.3q-3.75-1-4.4-1.6l-.75-2.4 2-.3q1.35-.5 1.9-1.45.6-1.15.4-1.6-.25-.45-1.15.3l-.85.85q1.15-1.85 2.15-2.6" fill="#0081cf" fill-rule="evenodd" transform="translate(14.4 2.1)"/></g></defs></svg>