<svg xmlns:xlink="http://www.w3.org/1999/xlink" height="38.3" width="36.05" xmlns="http://www.w3.org/2000/svg"><use height="16.3" transform="translate(9.05 12.45)" width="24.3" xlink:href="#a"/><defs><g id="a"><path d="m5.75 10.15.9-1.65q.5-.3 1.3-3l1 .8q.3.4.2 1.25-.2 1-.85 1.45l-2.55 1.15" fill="#c99f55" fill-rule="evenodd" transform="translate(14.75 2.4)"/><path d="M2.2-1.45q1.45.15 3.2 2.1L5.5.6l1.4 1.5q1.15 1.95 1.8 4.1.5 1.65-.9 2.6l-1.6.9q-1.3 1-3.35 1.85Q-2.7 13.7-7 13.45l-2.25-.2-.85-.05-1-.35q-1-.3-1.5-.75l-.65-.65-.3-.3q-.9-.95-.3-2.15 1.2-2.3 3.5-3.65h.05q2.9-3.2 5.75-4.9l.35-.3 2.1-1.25 2.15-.7q1.25-.3 2.15.35" fill="#ff4f98" fill-rule="evenodd" transform="translate(14.75 2.4)"/><path d="m-1.3 10.35-2.25.9-3.75.25q-.8-.15.9-3.3L-2.2 6l-2.45-.2q-1.65.15-3.15 1.8-.4.4-.8 1.9-.3 1.25-.65 1.25l-2.4-.45-1.05-.75.3-1.75 4.8-5.1Q-3.05-2 .9-1.8q5.05.4 6.9 6 .75 1.85.55 2.2-1 2-4.45 2.7l-5.2 1.25" fill="#e8cbb1" fill-rule="evenodd" transform="translate(14.75 2.4)"/><path d="M-1.85 5.05q3.3 1.5 3.3 5.05l-2.05.65Q-.7 8.7-1.45 7.8q-.7-1-2.85-1.65-3.85-1.1-5.55-.65l-1.5.8Q-9.5 3.8-8.3 3.6q2.5-.35 6.45 1.45" fill="#ff4f98" fill-rule="evenodd" transform="translate(14.75 2.4)"/><path d="M8.2 5.25q.2 1.75-3.25 3Q1.5 9.55.6 9.4m-9.5 1.05-2.45-.7-1.05-.7-.3-1.45" fill="none" stroke="#dba778" stroke-linecap="round" stroke-linejoin="round" transform="translate(14.75 2.4)"/><path d="m-13.55 8.3-.5.7q-.4.8 0 1.75 1.35 2.95 9.6 2.6 4-.25 11.2-3.6 2.7-1.15 2.2-3.45" fill="none" stroke="#a31471" stroke-linecap="round" stroke-linejoin="round" transform="translate(14.75 2.4)"/><path d="M8.95 6.5q0-1.2-.7-2.4L5.75.6Q4.1-1 1.7-1.65q-2.55-.8-5.3 1.1L-8.3 3.6q-1.4 1.5-4.5 4.05l-.75.7" fill="none" stroke="#000" stroke-linecap="round" stroke-linejoin="round" transform="translate(14.75 2.4)"/><path d="M-.7 9.75q-1.4 1.75-4.1 1.75-2.7 0-2.6-.6" fill="none" stroke="#dba778" stroke-linecap="round" stroke-linejoin="round" transform="translate(14.75 2.4)"/><path d="M-1 1.75q2.8.7.4 2.7Q1.5 4 1.35 5.7 1.2 7.3-2 6.9q1 1.95-1.75 1.85-2-.15-1.95-.9-.75.75-2.3-.65-2.1-2 1.4-2.65-2.05-1.5.3-2.4 2.3-.9 2.75 1.15-.2-2.2 2.55-1.55" fill="#de4e00" fill-rule="evenodd" transform="translate(14.75 2.4)"/><path d="M-3.05 6.1q-1.2.85-2.3-.3-1.05-1.15.75-1.9L-2 4q.75.85-1.05 2.1" fill="#fff200" fill-rule="evenodd" transform="translate(14.75 2.4)"/></g></defs></svg>