<?xml version="1.0" encoding="UTF-8" standalone="no"?>
<svg xmlns:xlink="http://www.w3.org/1999/xlink" height="38.3px" width="36.05px" xmlns="http://www.w3.org/2000/svg">
  <g transform="matrix(1.0, 0.0, 0.0, 1.0, 23.8, 14.85)">
    <use height="15.8" transform="matrix(1.0, 0.0, 0.0, 1.0, -14.7, -2.9)" width="22.75" xlink:href="#shape0"/>
  </g>
  <defs>
    <g id="shape0" transform="matrix(1.0, 0.0, 0.0, 1.0, 14.7, 2.9)">
      <path d="M4.35 -1.35 L1.45 -0.5 Q-0.8 0.0 -4.75 -1.3 -2.2 -2.7 0.95 -2.35 2.75 -2.2 4.35 -1.35 M7.45 5.2 Q7.65 7.1 7.4 7.5 L7.3 7.65 Q5.45 9.9 -1.1 11.55 -8.35 13.3 -13.15 11.55 L-13.7 11.25 Q-14.05 10.9 -14.05 9.0 L-13.8 9.35 -13.25 9.65 Q-9.75 10.95 -4.85 10.35 L-1.2 9.65 Q2.7 8.65 4.95 7.5 L5.85 6.95 7.45 5.2" fill="#000000" fill-rule="evenodd" stroke="none"/>
      <path d="M-4.75 -1.3 Q-0.8 0.0 1.45 -0.5 L4.35 -1.35 5.35 0.8 Q5.15 1.65 4.35 2.15 L2.6 2.95 0.8 3.65 Q0.05 4.25 -0.15 5.3 L0.05 6.05 0.35 6.65 0.4 6.65 0.7 6.65 0.95 6.45 1.05 5.65 Q1.25 5.05 1.75 4.75 L2.0 4.6 Q2.2 4.45 2.45 4.4 3.7 4.05 4.65 3.25 L5.7 2.15 5.9 1.9 6.95 4.1 7.45 5.2 5.85 6.95 4.95 7.5 Q2.7 8.65 -1.2 9.65 L-4.85 10.35 Q-9.75 10.95 -13.25 9.65 L-13.8 9.35 -14.05 9.0 Q-14.6 8.05 -12.95 6.05 L-12.5 5.45 -12.5 5.5 -13.35 6.95 -13.75 8.2 Q-13.9 9.2 -12.95 8.85 L-12.6 8.6 Q-12.05 7.9 -12.0 7.1 -11.3 5.75 -10.1 4.8 -9.5 4.3 -9.7 3.95 L-10.6 3.85 -10.05 3.7 -10.0 3.7 -10.25 3.55 -11.3 4.25 -11.45 4.35 -9.95 2.95 -10.0 3.15 Q-10.1 3.6 -9.65 3.75 -8.45 4.1 -7.85 5.2 L-6.85 7.55 -6.8 7.6 -6.85 7.55 -7.85 5.2 Q-8.45 4.1 -9.65 3.75 -10.1 3.6 -10.0 3.15 L-9.95 2.95 -9.6 2.65 -9.45 2.6 Q-6.7 3.3 -5.85 6.0 L-5.95 6.3 -5.85 6.0 Q-6.7 3.3 -9.45 2.6 L-9.6 2.65 -7.3 0.5 -6.65 -0.1 -5.4 -0.9 Q-5.95 -0.1 -4.85 0.25 -4.45 0.35 -4.3 0.0 -3.7 -1.0 -4.8 -1.25 L-5.15 -1.05 -4.75 -1.3 M-6.25 8.6 L-5.45 8.8 Q-4.4 8.7 -3.5 8.25 -2.75 7.8 -2.75 6.9 L-2.95 5.75 -3.55 4.15 -4.3 2.6 Q-4.75 1.6 -5.65 1.0 -6.15 0.65 -6.9 0.55 L-7.3 0.5 -6.9 0.55 Q-6.15 0.65 -5.65 1.0 -4.75 1.6 -4.3 2.6 L-3.55 4.15 -2.95 5.75 -2.75 6.9 Q-2.75 7.8 -3.5 8.25 -4.4 8.7 -5.45 8.8 L-6.25 8.6 -6.5 8.25 -6.8 7.6 -6.7 8.1 -6.25 8.6 -6.2 8.6 Q-5.4 8.8 -5.45 7.95 L-5.65 6.8 -5.45 7.95 Q-5.4 8.8 -6.2 8.6 L-6.25 8.6 M-6.8 7.6 L-7.25 6.65 -7.7 5.75 -8.55 4.65 Q-9.05 3.85 -9.9 3.75 L-9.95 3.75 -10.0 3.7 -9.95 3.75 -9.9 3.75 Q-9.05 3.85 -8.55 4.65 L-7.7 5.75 -7.25 6.65 -6.8 7.6 M-5.95 6.3 L-5.65 6.8 -5.95 6.3 M6.95 4.1 L6.2 4.9 4.7 6.05 3.0 6.8 2.1 7.1 Q1.1 7.5 0.5 6.8 L0.4 6.65 0.5 6.8 Q1.1 7.5 2.1 7.1 L3.0 6.8 4.7 6.05 6.2 4.9 6.95 4.1 M1.05 5.65 L1.6 5.85 Q2.95 5.5 2.2 4.7 L2.0 4.6 2.2 4.7 Q2.95 5.5 1.6 5.85 L1.05 5.65 M-0.15 5.3 L-0.15 5.2 Q-0.2 4.1 0.8 3.65 -0.2 4.1 -0.15 5.2 L-0.15 5.3 M-8.55 4.65 L-9.0 4.3 Q-9.35 4.05 -9.7 3.95 -9.35 4.05 -9.0 4.3 L-8.55 4.65 M-5.65 6.8 L-5.6 6.85 -5.25 6.95 Q-4.7 7.35 -4.45 6.65 -4.2 6.05 -4.8 5.6 -5.45 5.1 -5.75 5.75 L-5.85 6.0 -5.75 5.75 Q-5.45 5.1 -4.8 5.6 -4.2 6.05 -4.45 6.65 -4.7 7.35 -5.25 6.95 L-5.6 6.85 -5.65 6.8" fill="#333333" fill-rule="evenodd" stroke="none"/>
      <path d="M-5.15 -1.05 L-4.8 -1.25 Q-3.7 -1.0 -4.3 0.0 -4.45 0.35 -4.85 0.25 -5.95 -0.1 -5.4 -0.9 L-5.15 -1.05 M-6.25 8.6 L-6.7 8.1 -6.8 7.6 -6.5 8.25 -6.25 8.6 M-11.45 4.35 L-11.3 4.25 -10.25 3.55 -10.0 3.7 -10.05 3.7 -10.6 3.85 -9.7 3.95 Q-9.5 4.3 -10.1 4.8 -11.3 5.75 -12.0 7.1 -12.05 7.9 -12.6 8.6 L-12.95 8.85 Q-13.9 9.2 -13.75 8.2 L-13.35 6.95 -12.5 5.5 -12.5 5.45 -12.1 5.0 -11.45 4.35 M5.9 1.9 L5.7 2.15 4.65 3.25 Q3.7 4.05 2.45 4.4 2.2 4.45 2.0 4.6 L1.75 4.75 Q1.25 5.05 1.05 5.65 L0.95 6.45 0.7 6.65 0.4 6.65 0.05 6.05 0.4 6.65 0.35 6.65 0.05 6.05 -0.15 5.3 Q0.05 4.25 0.8 3.65 L2.6 2.95 4.35 2.15 Q5.15 1.65 5.35 0.8 L5.9 1.9 M1.25 4.8 Q0.85 5.35 1.05 5.65 0.85 5.35 1.25 4.8" fill="#666666" fill-rule="evenodd" stroke="none"/>
      <path d="M4.35 -1.35 Q2.75 -2.2 0.95 -2.35 -2.2 -2.7 -4.75 -1.3 L-5.15 -1.05 -5.4 -0.9 -6.65 -0.1 -7.3 0.5 -6.9 0.55 Q-6.15 0.65 -5.65 1.0 -4.75 1.6 -4.3 2.6 L-3.55 4.15 -2.95 5.75 -2.75 6.9 Q-2.75 7.8 -3.5 8.25 -4.4 8.7 -5.45 8.8 L-6.25 8.6 -6.5 8.25 -6.8 7.6 -7.25 6.65 -7.7 5.75 -8.55 4.65 Q-9.05 3.85 -9.9 3.75 L-9.95 3.75 -10.0 3.7 -10.05 3.7 -10.6 3.85 -9.7 3.95 Q-9.35 4.05 -9.0 4.3 L-8.55 4.65 M-9.95 2.95 L-11.45 4.35 -12.1 5.0 -12.5 5.45 -12.95 6.05 Q-14.6 8.05 -14.05 9.0 -14.05 10.9 -13.7 11.25 L-13.15 11.55 Q-8.35 13.3 -1.1 11.55 5.45 9.9 7.3 7.65 L7.4 7.5 Q7.65 7.1 7.45 5.2 L6.95 4.1 5.9 1.9 5.35 0.8 Q5.15 1.65 4.35 2.15 L2.6 2.95 0.8 3.65 Q-0.2 4.1 -0.15 5.2 L-0.15 5.3 0.05 6.05 0.4 6.65 0.5 6.8 Q1.1 7.5 2.1 7.1 L3.0 6.8 4.7 6.05 6.2 4.9 6.95 4.1 M-5.65 6.8 L-5.95 6.3 M-9.6 2.65 L-9.95 2.95 M1.05 5.65 Q0.85 5.35 1.25 4.8 M1.75 4.75 L2.0 4.6 2.2 4.7 Q2.95 5.5 1.6 5.85 L1.05 5.65 M4.35 -1.35 L5.35 0.8 M-5.85 6.0 L-5.75 5.75 Q-5.45 5.1 -4.8 5.6 -4.2 6.05 -4.45 6.65 -4.7 7.35 -5.25 6.95 L-5.6 6.85 -5.65 6.8 M-9.6 2.65 L-7.3 0.5" fill="none" stroke="#000000" stroke-linecap="round" stroke-linejoin="round" stroke-width="1.0"/>
    </g>
  </defs>
</svg>
