<?xml version="1.0" encoding="UTF-8" standalone="no"?>
<svg xmlns:xlink="http://www.w3.org/1999/xlink" height="38.3px" width="36.05px" xmlns="http://www.w3.org/2000/svg">
  <g transform="matrix(1.0, 0.0, 0.0, 1.0, 23.8, 14.85)">
    <use height="16.0" transform="matrix(1.0, 0.0, 0.0, 1.0, -14.5, -3.1)" width="23.05" xlink:href="#shape0"/>
  </g>
  <defs>
    <g id="shape0" transform="matrix(1.0, 0.0, 0.0, 1.0, 14.5, 3.1)">
      <path d="M4.85 -1.55 L8.05 5.05 8.1 5.5 8.1 7.15 8.0 7.45 6.65 8.7 5.35 9.45 -0.7 11.5 -2.45 11.9 -7.45 12.45 -8.5 12.3 -8.9 12.3 -10.35 12.2 -12.25 11.7 -12.4 11.65 -12.6 11.65 -12.95 11.5 -13.5 11.2 -13.5 11.05 -13.6 10.95 -13.65 10.7 -13.75 10.45 -13.75 10.15 -13.85 9.8 -13.85 9.45 -14.0 8.45 -13.95 8.05 -13.85 7.7 -13.1 6.4 -11.9 4.9 -6.4 -0.25 -3.7 -1.85 -2.35 -2.35 -0.9 -2.6 2.35 -2.5 4.05 -2.0 4.85 -1.55" fill="#ffffff" fill-rule="evenodd" stroke="none"/>
      <path d="M7.95 5.3 L8.1 7.1 7.65 8.1 Q5.35 9.45 3.3 10.2 -2.15 12.3 -7.45 12.45 -10.55 12.45 -13.3 11.25 L-14.05 8.45 -7.55 9.8 Q-5.3 10.05 0.95 8.35 4.15 7.5 7.95 5.3" fill="#ebebeb" fill-rule="evenodd" stroke="none"/>
      <path d="M1.95 -2.15 L4.55 -1.4 Q5.05 -1.0 7.05 3.0 L8.1 7.35 6.9 8.55 4.8 9.95 Q3.2 6.0 2.35 4.8 0.35 2.05 -8.1 1.85 L-5.6 -0.75 Q-4.3 -1.55 -1.4 -2.3 L1.95 -2.15" fill="#cfcfcf" fill-rule="evenodd" stroke="none"/>
      <path d="M4.55 -1.55 Q2.4 0.1 -1.7 0.0 -5.85 -0.2 -3.15 -1.8 L0.65 -2.65 Q3.05 -2.7 4.55 -1.55" fill="#5e5e5e" fill-rule="evenodd" stroke="none"/>
      <path d="M3.75 7.5 L5.75 6.7 7.65 5.2 7.9 7.15 7.15 8.3 4.65 9.55 3.75 7.5" fill="#adadad" fill-rule="evenodd" stroke="none"/>
      <path d="M4.05 -2.0 L4.85 -1.55 8.05 5.05 8.1 5.5 8.1 7.1 8.05 7.3 7.95 7.45 6.65 8.7 5.35 9.45 3.65 10.1 -0.7 11.5 -2.05 11.75 -2.45 11.85 -4.2 12.2 -5.4 12.25 -5.85 12.3 -7.05 12.35 -7.45 12.45 -8.55 12.3 -8.9 12.3 -10.35 12.2 -12.3 11.7 -12.4 11.6 -12.6 11.6 -12.95 11.5 -13.55 11.2 -13.55 11.05 -13.6 10.95 -13.65 10.7 -13.8 10.45 -13.8 10.1 -13.85 9.8 -13.85 9.45 -14.05 8.45 -13.95 8.05 -13.85 7.7 -13.1 6.35 -11.9 4.85 -6.4 -0.25 -3.7 -1.9 -2.35 -2.4 -0.9 -2.65 2.35 -2.5 4.05 -2.0 Z" fill="none" stroke="#000000" stroke-linecap="round" stroke-linejoin="round" stroke-width="0.9500000000000001"/>
      <path d="M-8.55 1.95 L-3.35 3.45" fill="none" stroke="#000000" stroke-linecap="round" stroke-linejoin="round" stroke-width="1.0"/>
      <path d="M-11.1 4.4 L-7.5 5.8" fill="none" stroke="#000000" stroke-linecap="round" stroke-linejoin="round" stroke-width="0.9500000000000001"/>
    </g>
  </defs>
</svg>
