<svg xmlns:xlink="http://www.w3.org/1999/xlink" height="38.3" width="36.05" xmlns="http://www.w3.org/2000/svg"><use height="15.3" transform="translate(9.05 12)" width="22.25" xlink:href="#a"/><defs><g id="a"><path d="M7.05 5.1q.2 2.55-1.5 3.55-1.5.85-4.3 1.7-8.35 2.7-13.95 1l-1.25-.65q-.4-.4-.3-1.75l.2-1.6q1-1.8 3.95-3.8l1.7-1.3q1.25-.85 3.95-1.8l4.3-.75Q4.6-.55 5.9 1.6 6.75 3 7.05 5.1" fill="#fff" fill-rule="evenodd" transform="translate(14.75 2.85)"/><path d="m-2.45 2.7-1.3-.05q-2.7-.35-2.6-.85.05-.9 3.2-1.55l4-.45q4.9.25 5.05 1.7.25 2.05-3.2 2.4L.05 3.6q-1.9-.85-2.5-.9" fill="#b2b2b2" fill-rule="evenodd" transform="translate(14.75 2.85)"/><path d="M21.75 7.95Q22 10.5 20.3 11.5L16 13.15Q7.65 15.9 2 14.2l-1.25-.65q-.35-.4-.3-1.75l.25-1.6q1-1.8 3.95-3.8l1.7-1.3q1.25-.85 3.95-1.8l4.25-.8q4.8-.2 6.1 1.9.8 1.45 1.1 3.55Z" fill="none" stroke="#333" stroke-linecap="round" stroke-linejoin="round" stroke-width=".95"/><path d="M-1.55-1q.25.65-1.35 3.95l-5.15 1.8q-.7-.25-2.15-2.25-1.35-1.8-1.45-2.7-.15-.95.75-1.6.95-.75 2.35-.5l2.05.55 2-.65Q-2-2.45-1.55-1" fill="#fff" fill-rule="evenodd" transform="translate(14.75 2.85)"/><path d="M6.7 7.6Q6 7.35 4.55 5.35 3.2 3.55 3.1 2.65q-.15-.95.75-1.6Q4.8.3 6.2.55l2.05.55 2-.65q2.5-.05 2.95 1.4.25.65-1.35 3.95" fill="none" stroke="#333" stroke-linecap="round" stroke-linejoin="round" stroke-width=".95"/><path d="m-8.7 2.7 2.85 2.15-1.95 2.2-2.5-2.5 1.6-1.85" fill="#fff" fill-rule="evenodd" transform="translate(14.75 2.85)"/><path d="m-12.75 5.7 5.25.45q2.25.25 3.3 2.55.55 1.45.15 3-6.85.6-8.4-.05-1.9-.85-1.9-1.95l.3-2.35 1.3-1.65" fill="#333" fill-rule="evenodd" transform="translate(14.75 2.85)"/><path d="m-7.45 6.35 3.7-2.45-2.05 3.7-1.65-1.25m8.3 3.8Q3.7 7.9 4.6 6.25q.85-1.65 1.6-4.3Q7.55 6 6.95 7.3q-.6 1.35-4.15 2.55l-1.95.3" fill="#333" fill-rule="evenodd" transform="translate(14.75 2.85)"/><path d="m5.75 4.05-8.9 6.85q-1.2.9-1.85.45l.3-2.65L.7 6.55q1.2-.4 5.05-2.5" fill="#333" fill-rule="evenodd" transform="translate(14.75 2.85)"/></g></defs></svg>