<?xml version="1.0" encoding="UTF-8" standalone="no"?>
<svg xmlns:xlink="http://www.w3.org/1999/xlink" height="38.3px" width="36.05px" xmlns="http://www.w3.org/2000/svg">
  <g transform="matrix(1.0, 0.0, 0.0, 1.0, 23.8, 14.85)">
    <use height="16.4" transform="matrix(1.0, 0.0, 0.0, 1.0, -14.8, -2.7)" width="23.4" xlink:href="#shape0"/>
  </g>
  <defs>
    <g id="shape0" transform="matrix(1.0, 0.0, 0.0, 1.0, 14.8, 2.7)">
      <path d="M4.9 -1.05 L3.65 -0.65 1.9 -0.15 0.1 -0.05 -1.25 -0.15 -1.75 -0.65 -3.5 -1.55 Q-1.25 -2.4 1.35 -2.1 3.25 -1.95 4.9 -1.05 M-8.35 1.6 Q-6.1 2.4 -4.95 4.6 -3.6 7.15 -4.5 9.85 L-8.25 10.3 Q-11.4 10.25 -14.15 8.55 L-14.15 8.45 Q-14.55 6.5 -13.8 4.45 -13.1 2.4 -8.55 1.55 L-8.35 1.6 M3.6 7.85 Q2.95 7.3 2.9 6.4 2.85 5.35 3.05 4.4 3.15 3.45 3.55 2.6 3.95 1.7 4.6 1.05 L6.0 0.0 Q8.4 1.55 7.9 4.95 L6.45 6.4 5.5 7.0 3.6 7.85" fill="#5192d2" fill-rule="evenodd" stroke="none"/>
      <path d="M-1.25 -0.15 L0.1 -0.05 1.9 -0.15 3.65 -0.65 4.9 -1.05 6.0 0.0 4.6 1.05 Q3.95 1.7 3.55 2.6 3.15 3.45 3.05 4.4 2.85 5.35 2.9 6.4 2.95 7.3 3.6 7.85 L-0.25 9.05 -0.85 9.2 -4.5 9.85 Q-3.6 7.15 -4.95 4.6 -6.1 2.4 -8.35 1.6 L-6.75 1.7 -5.05 1.9 Q-4.1 2.05 -3.3 2.6 L-1.75 3.8 -0.65 3.95 -0.25 3.8 Q0.25 3.4 0.25 2.6 0.2 1.6 -0.35 0.8 L-1.25 -0.15" fill="#ffffff" fill-rule="evenodd" stroke="none"/>
      <path d="M-3.5 -1.55 L-1.75 -0.65 -1.25 -0.15 -0.35 0.8 Q0.2 1.6 0.25 2.6 0.25 3.4 -0.25 3.8 L-0.65 3.95 -1.75 3.8 -3.3 2.6 Q-4.1 2.05 -5.05 1.9 L-6.75 1.7 -8.35 1.6 -8.55 1.55 -8.6 1.5 -8.65 1.15 -8.45 0.55 -7.35 -0.95 Q-6.5 -1.55 -5.55 -1.65 L-3.5 -1.55" fill="#00439c" fill-rule="evenodd" stroke="none"/>
      <path d="M-4.5 9.85 L-0.85 9.2 -0.25 9.05 3.6 7.85 5.5 7.0 6.45 6.4 7.9 4.95 Q8.25 7.8 8.05 8.1 L7.95 8.3 6.2 9.75 3.45 11.05 -0.2 12.2 -0.75 12.35 -4.5 13.0 Q-9.55 13.65 -13.25 12.3 L-13.8 12.0 Q-14.1 11.7 -14.15 8.55 -11.4 10.25 -8.25 10.3 L-4.5 9.85 M3.25 9.2 Q3.2 10.1 3.45 11.05 3.2 10.1 3.25 9.2 M6.2 7.75 L6.2 9.75 6.2 7.75 M-0.45 10.2 L-0.2 12.2 -0.45 10.2 M-14.1 8.65 L-14.15 8.55 -14.1 8.65 M-4.5 11.15 L-4.5 13.0 -4.5 11.15" fill="#cccccc" fill-rule="evenodd" stroke="none"/>
      <path d="M-14.15 8.55 L-14.2 8.55 -14.15 8.45 -14.15 8.55" fill="#8f8e01" fill-rule="evenodd" stroke="none"/>
      <path d="M4.9 -1.05 Q3.25 -1.95 1.35 -2.1 -1.25 -2.4 -3.5 -1.55 L-5.55 -1.65 Q-6.5 -1.55 -7.35 -0.95 L-8.45 0.55 M6.0 0.0 L4.9 -1.05 M6.0 0.0 Q8.4 1.55 7.9 4.95 8.25 7.8 8.05 8.1 L7.95 8.3 6.2 9.75 3.45 11.05 -0.2 12.2 -0.75 12.35 -4.5 13.0 Q-9.55 13.65 -13.25 12.3 L-13.8 12.0 Q-14.1 11.7 -14.15 8.55 L-14.2 8.55 -14.15 8.45 Q-14.55 6.5 -13.8 4.45 -13.1 2.4 -8.55 1.55 M3.45 11.05 Q3.2 10.1 3.25 9.2 M6.2 9.75 L6.2 7.75 M-0.2 12.2 L-0.45 10.2 M-14.15 8.55 L-14.1 8.65 M-14.15 8.45 L-14.15 8.55 M-4.5 13.0 L-4.5 11.15" fill="none" stroke="#00439c" stroke-linecap="round" stroke-linejoin="round" stroke-width="1.0"/>
    </g>
  </defs>
</svg>
