<?xml version="1.0" encoding="UTF-8" standalone="no"?>
<svg xmlns:xlink="http://www.w3.org/1999/xlink" height="38.3px" width="36.05px" xmlns="http://www.w3.org/2000/svg">
  <g transform="matrix(1.0, 0.0, 0.0, 1.0, 23.8, 14.85)">
    <use height="20.5" transform="matrix(1.0, 0.0, 0.0, 1.0, -8.55, -5.9)" width="15.5" xlink:href="#shape0"/>
  </g>
  <defs>
    <g id="shape0" transform="matrix(1.0, 0.0, 0.0, 1.0, 8.55, 5.9)">
      <path d="M2.25 -4.0 L3.1 -1.65 3.4 0.7 6.35 4.85 Q6.95 5.75 6.95 11.05 6.95 13.75 5.2 14.3 L-3.95 14.6 Q-8.4 14.05 -8.4 11.35 -8.7 7.25 -8.4 6.05 L-8.1 1.3 -7.2 -2.85 Q-5.75 -5.2 -2.8 -5.8 0.45 -6.35 2.25 -4.0" fill="#000000" fill-rule="evenodd" stroke="none"/>
      <path d="M-3.4 7.8 Q-5.75 7.8 -6.05 5.75 -4.25 6.65 -3.4 6.65 0.15 6.65 3.1 5.75 0.75 8.1 -3.4 7.8" fill="#575757" fill-rule="evenodd" stroke="none"/>
      <path d="M-3.4 6.65 Q2.55 7.8 -3.95 7.8 -4.55 7.8 -4.55 7.25 -4.25 6.95 -3.4 6.65" fill="#e5e5e5" fill-rule="evenodd" stroke="none"/>
      <path d="M1.65 -1.65 Q2.25 1.3 2.55 1.6 L5.5 5.75 5.75 9.9 Q4.6 6.65 3.7 5.15 L2.55 3.4 Q1.65 2.5 1.35 1.3 1.05 -0.75 1.35 -3.4 L1.65 -1.65" fill="#e5e5e5" fill-rule="evenodd" stroke="none"/>
      <path d="M-6.95 3.4 Q-6.05 4.25 -6.35 5.45 -6.35 6.65 -7.2 7.8 -7.8 6.65 -7.8 5.75 -7.8 4.55 -6.95 3.4" fill="#e5e5e5" fill-rule="evenodd" stroke="none"/>
      <path d="M-5.45 4.55 Q-3.95 4.25 -4.25 -2.85 -2.5 5.15 -5.45 5.15 -6.65 5.15 -6.95 4.25 L-6.95 3.45 Q-6.9 4.85 -5.45 4.55" fill="#e5e5e5" fill-rule="evenodd" stroke="none"/>
      <path d="M-7.5 4.55 Q-7.2 2.5 -7.2 1.3 -7.2 0.15 -6.65 -1.65 L-6.65 1.9 Q-6.65 3.1 -6.95 4.55 L-7.5 4.55" fill="#e5e5e5" fill-rule="evenodd" stroke="none"/>
    </g>
  </defs>
</svg>
