<svg xmlns:xlink="http://www.w3.org/1999/xlink" height="38.3" width="36.05" xmlns="http://www.w3.org/2000/svg"><use height="20.5" transform="translate(15.25 8.95)" width="15.5" xlink:href="#a"/><defs><g id="a" fill-rule="evenodd"><path d="m2.25-4 .85 2.35L3.4.7l2.95 4.15q.6.9.6 6.2 0 2.7-1.75 3.25l-9.15.3q-4.45-.55-4.45-3.25-.3-4.1 0-5.3l.3-4.75.9-4.15Q-5.75-5.2-2.8-5.8.45-6.35 2.25-4" transform="translate(8.55 5.9)"/><path d="M-3.4 7.8q-2.35 0-2.65-2.05 1.8.9 2.65.9 3.55 0 6.5-.9Q.75 8.1-3.4 7.8" fill="#575757" transform="translate(8.55 5.9)"/><path d="M-3.4 6.65Q2.55 7.8-3.95 7.8q-.6 0-.6-.55.3-.3 1.15-.6m5.05-8.3q.6 2.95.9 3.25L5.5 5.75l.25 4.15Q4.6 6.65 3.7 5.15L2.55 3.4q-.9-.9-1.2-2.1-.3-2.05 0-4.7l.3 1.75m-8.6 5.05q.9.85.6 2.05 0 1.2-.85 2.35-.6-1.15-.6-2.05 0-1.2.85-2.35" fill="#e5e5e5" transform="translate(8.55 5.9)"/><path d="M-5.45 4.55q1.5-.3 1.2-7.4 1.75 8-1.2 8-1.2 0-1.5-.9v-.8q.05 1.4 1.5 1.1" fill="#e5e5e5" transform="translate(8.55 5.9)"/><path d="M-7.5 4.55q.3-2.05.3-3.25 0-1.15.55-2.95V1.9q0 1.2-.3 2.65h-.55" fill="#e5e5e5" transform="translate(8.55 5.9)"/></g></defs></svg>