<?xml version="1.0" encoding="UTF-8" standalone="no"?>
<svg xmlns:xlink="http://www.w3.org/1999/xlink" height="38.3px" width="36.05px" xmlns="http://www.w3.org/2000/svg">
  <g transform="matrix(1.0, 0.0, 0.0, 1.0, 23.8, 14.85)">
    <use height="16.3" transform="matrix(1.0, 0.0, 0.0, 1.0, -19.4, -3.65)" width="27.35" xlink:href="#shape0"/>
  </g>
  <defs>
    <g id="shape0" transform="matrix(1.0, 0.0, 0.0, 1.0, 19.4, 3.65)">
      <path d="M-8.9 2.0 L-8.3 1.1 -6.5 -1.15 Q-5.05 -2.7 -3.35 -2.15 L-3.3 -2.1 Q-1.35 -0.85 -1.65 1.15 L-1.85 2.1 -2.3 3.05 -3.8 5.1 Q-4.3 3.55 -5.85 2.75 -7.45 1.95 -8.9 2.0" fill="#cc0000" fill-rule="evenodd" stroke="none"/>
      <path d="M6.5 3.15 L7.45 5.2 5.85 6.95 5.0 7.5 Q2.8 8.65 -1.0 9.65 L-4.5 10.35 Q-9.25 10.95 -12.65 9.65 L-15.05 8.5 -17.1 7.25 -17.25 7.0 -18.55 3.5 -15.15 5.35 -11.4 6.6 -7.55 7.25 -3.85 7.4 -0.1 7.05 Q1.8 6.7 3.5 5.95 5.45 5.05 6.5 3.15" fill="#cd9e01" fill-rule="evenodd" stroke="none"/>
      <path d="M7.45 5.2 L7.45 8.1 Q3.7 10.75 -2.15 11.7 -8.1 12.65 -12.2 11.55 -14.85 10.8 -17.1 7.25 L-15.05 8.5 -12.65 9.65 Q-9.25 10.95 -4.5 10.35 L-1.0 9.65 Q2.8 8.65 5.0 7.5 L5.85 6.95 7.45 5.2" fill="#b5daff" fill-rule="evenodd" stroke="none"/>
      <path d="M5.55 1.1 L6.5 3.15 Q5.45 5.05 3.5 5.95 1.8 6.7 -0.1 7.05 L-3.85 7.4 -7.55 7.25 -11.4 6.6 -15.15 5.35 -18.55 3.5 -18.9 1.9 Q-16.75 3.85 -15.35 3.9 L-11.8 3.45 Q-11.0 3.25 -8.9 2.0 -7.45 1.95 -5.85 2.75 -4.3 3.55 -3.8 5.1 L-2.3 3.05 Q0.1 5.15 2.75 3.65 5.4 2.15 5.55 1.1" fill="#ffcc00" fill-rule="evenodd" stroke="none"/>
      <path d="M-3.3 -2.1 Q3.1 -5.25 5.55 1.1 5.4 2.15 2.75 3.65 0.1 5.15 -2.3 3.05 L-1.85 2.1 -1.65 1.15 Q-1.35 -0.85 -3.3 -2.1" fill="#ffffff" fill-rule="evenodd" stroke="none"/>
      <path d="M-8.9 2.0 L-8.3 1.1 -6.5 -1.15 Q-5.05 -2.7 -3.35 -2.15 L-3.3 -2.1 Q3.1 -5.25 5.55 1.1 L6.5 3.15 7.45 5.2 7.45 8.1 Q3.7 10.75 -2.15 11.7 -8.1 12.65 -12.2 11.55 -14.85 10.8 -17.1 7.25 L-17.25 7.0 -18.55 3.5 -18.9 1.9 Q-16.75 3.85 -15.35 3.9 L-11.8 3.45 Q-11.0 3.25 -8.9 2.0 M-2.3 3.05 L-1.85 2.1 -1.65 1.15 Q-1.35 -0.85 -3.3 -2.1" fill="none" stroke="#003366" stroke-linecap="round" stroke-linejoin="round" stroke-width="1.0"/>
    </g>
  </defs>
</svg>
