<?xml version="1.0" encoding="UTF-8" standalone="no"?>
<svg xmlns:xlink="http://www.w3.org/1999/xlink" height="38.3px" width="36.05px" xmlns="http://www.w3.org/2000/svg">
  <g transform="matrix(1.0, 0.0, 0.0, 1.0, 23.8, 14.85)">
    <use height="20.4" transform="matrix(1.0, 0.0, 0.0, 1.0, -14.35, -7.4)" width="23.0" xlink:href="#shape0"/>
  </g>
  <defs>
    <g id="shape0" transform="matrix(1.0, 0.0, 0.0, 1.0, 14.35, 7.4)">
      <path d="M7.25 0.1 Q8.25 1.0 8.15 2.5 8.05 4.0 7.05 4.4" fill="none" stroke="#000000" stroke-linecap="round" stroke-linejoin="round" stroke-width="1.0"/>
      <path d="M2.15 -6.25 Q6.7 -5.5 7.4 -2.95 7.75 -1.65 6.95 4.2 L7.55 5.15 7.4 7.85 4.55 9.95 2.6 9.35 2.0 11.0 Q-0.35 12.3 -3.65 12.75 L-8.5 13.0 Q-10.45 12.95 -13.0 11.75 -13.9 11.3 -14.25 8.45 -14.55 5.7 -14.05 4.25 -13.7 3.35 -11.35 2.15 L-8.75 0.65 Q-8.25 0.1 -7.85 -2.3 -7.35 -4.75 -6.95 -5.2 -6.2 -5.9 -3.55 -6.3 -0.7 -6.75 2.15 -6.25" fill="#000000" fill-rule="evenodd" stroke="none"/>
      <path d="M-6.65 -1.4 L-6.05 -3.8 Q-5.25 -0.25 -6.35 1.25 -7.45 2.75 -11.05 4.3 -12.75 5.6 -13.25 8.45 -13.55 5.2 -13.15 4.55 L-7.95 1.3 Q-6.65 -0.85 -6.65 -1.4" fill="#7d7d7d" fill-rule="evenodd" stroke="none"/>
      <path d="M-10.55 5.15 Q-10.15 4.65 -8.5 4.85 L-5.65 5.2 -1.95 5.15 Q-3.35 6.65 -7.75 6.4 -9.75 6.35 -10.55 5.15" fill="#a3a3a3" fill-rule="evenodd" stroke="none"/>
      <path d="M-6.55 5.0 Q-5.6 5.2 -5.85 5.85 -6.15 6.6 -7.15 6.45 -8.25 6.35 -8.0 5.55 -7.85 4.8 -6.55 5.0" fill="#ffffff" fill-rule="evenodd" stroke="none"/>
      <path d="M-11.95 9.4 L-7.6 10.1 Q-2.8 10.1 1.45 8.2" fill="none" stroke="#7d7d7d" stroke-linecap="round" stroke-linejoin="round" stroke-width="1.0"/>
      <path d="M6.8 -1.4 Q6.8 0.65 6.15 4.1 5.05 2.5 5.0 0.65 4.95 -1.3 6.05 -1.7 L5.6 -3.7 Q6.8 -3.45 6.8 -1.4" fill="#7d7d7d" fill-rule="evenodd" stroke="none"/>
      <path d="M-6.85 -3.5 L-3.75 -2.3 1.05 -2.0 Q-2.65 -0.2 -4.75 -0.7 -6.85 -1.15 -6.85 -3.5" fill="#c9c9c9" fill-rule="evenodd" stroke="none"/>
      <path d="M-1.15 -7.15 Q3.05 -6.1 0.35 -2.9 0.15 -4.9 -1.65 -5.3 L-4.75 -4.9 -6.55 -4.15 Q-5.35 -8.25 -1.15 -7.15" fill="#999999" fill-rule="evenodd" stroke="none"/>
      <path d="M1.45 -1.95 Q1.45 -2.95 2.5 -2.95 3.5 -2.95 3.5 -1.95 3.5 -0.9 2.5 -0.9 1.45 -0.9 1.45 -1.95" fill="#e8e8e8" fill-rule="evenodd" stroke="none"/>
      <path d="M0.55 0.0 Q1.6 0.0 1.6 1.0 1.6 2.1 0.55 2.1 -0.5 2.1 -0.5 1.0 -0.5 0.0 0.55 0.0" fill="#e8e8e8" fill-rule="evenodd" stroke="none"/>
      <path d="M-2.8 3.5 Q-2.8 2.5 -1.75 2.5 -0.7 2.5 -0.7 3.5 -0.7 4.55 -1.75 4.55 -2.8 4.55 -2.8 3.5" fill="#e8e8e8" fill-rule="evenodd" stroke="none"/>
      <path d="M3.8 -4.75 L4.15 -2.35 Q4.7 0.2 5.75 1.35 6.75 2.45 7.4 0.6 8.3 1.5 7.85 2.85 7.35 4.35 6.15 4.35 4.65 4.35 3.65 0.5 L3.15 -4.35 3.8 -4.75" fill="#c9c9c9" fill-rule="evenodd" stroke="none"/>
    </g>
  </defs>
</svg>
