<svg xmlns:xlink="http://www.w3.org/1999/xlink" height="38.3" width="36.05" xmlns="http://www.w3.org/2000/svg"><use height="15.85" transform="translate(9.25 11.95)" width="22.55" xlink:href="#a"/><defs><g id="a"><path d="M-4.75-1.3Q-2.2-2.7.95-2.35q1.8.15 3.4 1l-1.2.45q-.5 2.2-1.6 4L1.1 3l-.95-.1-2.25-.1L-.5-.35l-4.25-.95M5.4.75l1.85 3.7.05.25v.15q.3 2.35.1 2.65l-.1.15-1.7 1.4-2.65 1.3-3.55 1.1-.5.1-3.6.7q-4.9.6-8.45-.7l-.55-.3q-.25-.25-.35-3.3l.05.1-.05-.15.25.35.55.3q3.5 1.3 8.4.7l.1-.05 3.55-.65.6-.15h.05q3.45-.95 5.5-2l.9-.55L7.1 4.6l-.8-.35q-1-.55-2.05-.8L5.4.75m.2 6.4v1.9-1.9m-2.65 3.2v-.05q-.25-.9-.2-1.75-.05.85.2 1.75v.05m-7.7.05.05 1.85-.05-1.85m3.95-.9.2 1.95-.2-1.95" fill="#f39" fill-rule="evenodd" transform="translate(14.55 2.9)"/><path d="m-4.75-1.3 4.25.95-1.6 3.15q-4.65-.2-8.35 1.05l5.7-5.15m6.3 4.4q1.1-1.8 1.6-4l1.2-.45L5.4.75l-1.15 2.7-1.3-.2-1.4-.15" fill="#bcd2e9" fill-rule="evenodd" transform="translate(14.55 2.9)"/><path d="m-2.1 2.8 2.25.1.95.1.45.1Q.1 5.35-2.5 6.8l-1.3-1.4 1.7-2.6m6.35.65q1.05.25 2.05.8l.8.35-1.25 1.25-.9.55q-2.05 1.05-5.5 2 3.15-2.1 4.8-4.95" fill="#fe7abc" fill-rule="evenodd" transform="translate(14.55 2.9)"/><path d="M-14.05 7.9q.2-.8 1.1-1.85l2.45-2.2h.05Q-6.75 2.6-2.1 2.8l-1.7 2.6 1.3 1.4Q.1 5.35 1.55 3.1l1.4.15 1.3.2Q2.6 6.3-.55 8.4H-.6l-.6.15-3.55.65-.1.05q-4.9.6-8.4-.7l-.55-.3-.25-.35" fill="#fff" fill-rule="evenodd" transform="translate(14.55 2.9)"/><path d="M-14.05 7.95V7.9l.05.15-.05-.1" fill="#004566" fill-rule="evenodd" transform="translate(14.55 2.9)"/><path d="M4.35-1.35q-1.6-.85-3.4-1-3.15-.35-5.7 1.05l-5.7 5.15h-.05l-2.45 2.2q-.9 1.05-1.1 1.85l.05.15-.05-.1V7.9m18.4-9.25L5.4.75l1.85 3.7.05.25v.15q.3 2.35.1 2.65l-.1.15-1.7 1.4-2.65 1.3-3.55 1.1-.5.1-3.6.7q-4.9.6-8.45-.7l-.55-.3q-.25-.25-.35-3.3m16.8.6q-.05.85.2 1.75v.05m2.65-1.3v-1.9m-6.2 4.3L-.8 9.5m-3.9 2.75-.05-1.85" fill="none" stroke="#000" stroke-linecap="round" stroke-linejoin="round" transform="translate(14.55 2.9)"/></g></defs></svg>