<svg xmlns:xlink="http://www.w3.org/1999/xlink" height="38.3" width="36.05" xmlns="http://www.w3.org/2000/svg"><use height="15.9" transform="translate(13.95 12)" width="17.3" xlink:href="#a"/><defs><g id="a" fill-rule="evenodd"><path d="m4.7-1.55 2.2 4.7q1.05 3.75.15 5.1-3 4.8-9.55 4.8-5.25 0-6.65-1.55-1.55-1.65.25-5.9 3-7.55 5.25-8.3l4.8-.15q3.05.45 3.55 1.3" transform="translate(9.85 2.85)"/><path d="M3.25 9.75Q2.3 11.85-1 11.7q-1-.85-1.4-.85-1.4.8-2.4.6-5.35-.75-3.95-4.4 1.35-3.7 7.35-2.9 2.85.4 4.2 2.3 1.15 1.7.45 3.3" fill="#bc855a" transform="translate(9.85 2.85)"/><path d="M1.5 11.2q-2.55 1.15-3.9-.35-1.7 1.3-4.4.2-2.15-.9-2.4-2.4l.2-1.4 1.15 1.15q1.25 1.2 2.3 1.4 1.55.3 3.8-.65.15 0 .15.75.2.7 1.4.8 2.55.05 3.45-2.9.8 2.25-1.75 3.4" fill="#8a6341" transform="translate(9.85 2.85)"/><path d="M5.2 3.75Q3.15 5.2 2.65 4.8q-.5-.35-.1-1.95.35-1.6 1-1.6t1.45 1q.85 1.1.2 1.5" fill="#5e5a56" transform="translate(9.85 2.85)"/></g></defs></svg>