<svg xmlns:xlink="http://www.w3.org/1999/xlink" height="38.3" width="36.05" xmlns="http://www.w3.org/2000/svg"><use height="15.6" transform="translate(10.3 12.05)" width="21.45" xlink:href="#a"/><defs><g id="a" fill-rule="evenodd"><path d="M4.1-1.3q1 .55 2.4 3 1.45 2.5 1.45 3.85 0 3-3.7 4.55L-.1 11.95q-3 1-6.85.85-3.95-.1-5.55-2.55-1.35-1.9-.9-3.85Q-11.9.5-7.95.65q2.05.1 2.1.6 1.1-3.65 5.05-3.8l3.05.2Q3.2-1.8 4.1-1.3" transform="translate(13.5 2.8)"/><path d="M1.3-2.05q2 0 4.05 3.35 2 3.25 1.7 5.3-.2 1.9-5.95 3.9-5.6 1.95-8.4 1.45-6.4-1.1-4.85-6.25.9-2.85 2.45-3.9l2.2-.05q.55.6-.1 1.45-.8 1.05-.8 1.45 0 1.8 2.85-1.95Q-4.85.9-4-.15q1.6-1.9 5.3-1.9" fill="#c63021" transform="translate(13.5 2.8)"/><path d="m-8.3 4.3 1.8-.7-.65.95Q-7.7 5.6-7.4 6.2l1.35 1q-1.2.3-1.9-.45L-8.3 4.3" transform="translate(13.5 2.8)"/><path d="M-9.3 11.6q-3.2-1.45-3.2-4.15 0-2.05 1.6-4.3Q-9.2.85-7.85 1.4L-9.2 2.85q-1.25 1.85-1.15 3.65.15 2.05 2.2 3.8.95.8 1.55 1l1.55.1q-.35.65-2 .6l-2.25-.4" fill="#9f261a" transform="translate(13.5 2.8)"/><path d="m-3.1-.9.8-.3q4.05 2.95 3.4 2.95-3.05 0-4.1.55l-4.25 3.35.15-1 1.55-1.95L-4.3.2Q-4-.45-3.1-.9" fill="#9f261a" transform="translate(13.5 2.8)"/><path d="m-2.9-.3.6-1.6Q1.3-2.55 4.25.2q1.9 1.65 2.7 4.5.5 1.9-.55 3.2-.65.8-.65-.35l.05-2.3q-.35-2.4-6.25-3.4Q-3 1.4-2.9-.3" fill="#9f261a" transform="translate(13.5 2.8)"/><path d="M-7.05-2.25q2.55 1.4 1.55 4.4-1.1 3-4.6 1.5-3.7-1.55-1.75-4.5 1.85-2.95 4.8-1.4" fill="#0e1d20" transform="translate(13.5 2.8)"/><path d="M-7.55-1.65q1.8 1.3.95 3.35-.9 2.1-3.1 1-2.55-1.35-1.05-3.45 1.45-2.1 3.2-.9" fill="#d17c2b" transform="translate(13.5 2.8)"/><path d="M-7.25 1.75q-1.4.95-2.2.3Q-10.7 1.1-10.4.1l.55-.85 1.2 1.85q.85.4 1.85-.2L-7.25 2v-.25" fill="#964b1c" transform="translate(13.5 2.8)"/><path d="M-7.25-1.05q.8.4.3 1.35-.45.85-1.15-.3-.7-1.3-.6-1.55l1.45.5" fill="#fff" transform="translate(13.5 2.8)"/></g></defs></svg>