<?xml version="1.0" encoding="UTF-8" standalone="no"?>
<svg xmlns:xlink="http://www.w3.org/1999/xlink" height="38.3px" width="36.05px" xmlns="http://www.w3.org/2000/svg">
  <g transform="matrix(1.0, 0.0, 0.0, 1.0, 23.8, 14.85)">
    <use height="15.6" transform="matrix(1.0, 0.0, 0.0, 1.0, -13.5, -2.8)" width="21.45" xlink:href="#shape0"/>
  </g>
  <defs>
    <g id="shape0" transform="matrix(1.0, 0.0, 0.0, 1.0, 13.5, 2.8)">
      <path d="M4.1 -1.3 Q5.1 -0.75 6.5 1.7 7.95 4.2 7.95 5.55 7.95 8.55 4.25 10.1 L-0.1 11.95 Q-3.1 12.95 -6.95 12.8 -10.9 12.7 -12.5 10.25 -13.85 8.35 -13.4 6.4 -11.9 0.5 -7.95 0.65 -5.9 0.75 -5.85 1.25 -4.75 -2.4 -0.8 -2.55 L2.25 -2.35 Q3.2 -1.8 4.1 -1.3" fill="#000000" fill-rule="evenodd" stroke="none"/>
      <path d="M1.3 -2.05 Q3.3 -2.05 5.35 1.3 7.35 4.55 7.05 6.6 6.85 8.5 1.1 10.5 -4.5 12.45 -7.3 11.95 -13.7 10.85 -12.15 5.7 -11.25 2.85 -9.7 1.8 L-7.5 1.75 Q-6.95 2.35 -7.6 3.2 -8.4 4.25 -8.4 4.65 -8.4 6.45 -5.55 2.7 -4.85 0.9 -4.0 -0.15 -2.4 -2.05 1.3 -2.05" fill="#c63021" fill-rule="evenodd" stroke="none"/>
      <path d="M-8.3 4.3 L-6.5 3.6 -7.15 4.55 Q-7.7 5.6 -7.4 6.2 L-6.05 7.2 Q-7.25 7.5 -7.95 6.75 L-8.3 4.3" fill="#000000" fill-rule="evenodd" stroke="none"/>
      <path d="M-9.3 11.6 Q-12.5 10.15 -12.5 7.45 -12.5 5.4 -10.9 3.15 -9.2 0.85 -7.85 1.4 L-9.2 2.85 Q-10.45 4.7 -10.35 6.5 -10.2 8.55 -8.15 10.3 -7.2 11.1 -6.6 11.3 L-5.05 11.4 Q-5.4 12.05 -7.05 12.0 L-9.3 11.6" fill="#9f261a" fill-rule="evenodd" stroke="none"/>
      <path d="M-3.1 -0.9 L-2.3 -1.2 Q1.75 1.75 1.1 1.75 -1.95 1.75 -3.0 2.3 L-7.25 5.65 -7.1 4.65 -5.55 2.7 -4.3 0.2 Q-4.0 -0.45 -3.1 -0.9" fill="#9f261a" fill-rule="evenodd" stroke="none"/>
      <path d="M-2.9 -0.3 L-2.3 -1.9 Q1.3 -2.55 4.25 0.2 6.15 1.85 6.95 4.7 7.45 6.6 6.4 7.9 5.75 8.7 5.75 7.55 L5.8 5.25 Q5.45 2.85 -0.45 1.85 -3.0 1.4 -2.9 -0.3" fill="#9f261a" fill-rule="evenodd" stroke="none"/>
      <path d="M-7.05 -2.25 Q-4.5 -0.85 -5.5 2.15 -6.6 5.15 -10.1 3.65 -13.8 2.1 -11.85 -0.85 -10.0 -3.8 -7.05 -2.25" fill="#0e1d20" fill-rule="evenodd" stroke="none"/>
      <path d="M-7.55 -1.65 Q-5.75 -0.35 -6.6 1.7 -7.5 3.8 -9.7 2.7 -12.25 1.35 -10.75 -0.75 -9.3 -2.85 -7.55 -1.65" fill="#d17c2b" fill-rule="evenodd" stroke="none"/>
      <path d="M-7.25 1.75 Q-8.65 2.7 -9.45 2.05 -10.7 1.1 -10.4 0.1 L-9.85 -0.75 -8.65 1.1 Q-7.8 1.5 -6.8 0.9 L-7.25 2.0 -7.25 1.75" fill="#964b1c" fill-rule="evenodd" stroke="none"/>
      <path d="M-7.25 -1.05 Q-6.45 -0.65 -6.95 0.3 -7.4 1.15 -8.1 0.0 -8.8 -1.3 -8.7 -1.55 L-7.25 -1.05" fill="#ffffff" fill-rule="evenodd" stroke="none"/>
    </g>
  </defs>
</svg>
