<svg xmlns:xlink="http://www.w3.org/1999/xlink" height="38.3" width="36.05" xmlns="http://www.w3.org/2000/svg"><use height="22.15" transform="translate(7.45 7.35)" width="25.35" xlink:href="#a"/><defs><g id="a"><path d="M.3-7.3q3.8-.3 5.2-.1 1.6.85 1.65 12.95.75.05 1.35.65l.4 1.6q.2 1.45-.05 1.8L7.35 11q-1.25 1-1.3.35v-1.6L4 10.8v1.95q-4.05 1.85-4.45 1l-.15-1.5-2.85.5v1.65q-.2.55-5.35 0l-.1-1.45-2.2-.3-.15 1.3-2.65.05q-1.85-.4-2.25-1.3-.55-2.6.4-3.4l1.2-.3q-.1-3.05.5-3.95.7-1 3.65-1.85.85-1.4 2.7-1.4-.7-1.95 1.25-2.45-1.3-1.25.15-2.55-.6-.95-.1-2.05l.65-.9.15-.3L.3-7.3" fill-rule="evenodd" transform="translate(16.35 7.5)"/><path d="M4.7 11.7q3.15-.45 4.6 2.15 1.15 2 .85 4" fill="none" stroke="#fff" stroke-linecap="round" stroke-linejoin="round" stroke-width=".5"/><path d="M2.05 16.6Q8.4 19.05 16 17q6.2-1.6 7.35-3.55" fill="none" stroke="#fff" stroke-linecap="round" stroke-linejoin="round" stroke-width=".5"/><path d="M22.8 7.9q-4.65.8-3.65 8.05" fill="none" stroke="#fff" stroke-linecap="round" stroke-linejoin="round" stroke-width=".5"/><path d="M-9.25 3.2q0-.95 1.65-.75l3.75.55q-.85 1.3-2 1.65-.9-.8-3.4-1.45m2.5-1.75Q-7.3.2-6.25.1l4.3.1q-.15 1-1.2 1.6l-3.6-.35m1.1-2.55q-.6-.55-.35-1.1l.4-.45 4.05-.2-.2 1.75q-1.3-.2-3.9 0m.05-2.6q-.65-.95.4-1.8l3.5-.45q.25 1.1.15 1.9l-4.05.35" fill="#ff3d2b" fill-rule="evenodd" transform="translate(16.35 7.5)"/><path d="M-4.7 5.3q1.3-.65 1.75-1.85 1.4 1.1.15 1.9l-1.9-.05m4-4.8Q.75.95 0 2.25q-.8 1.2-1.9.3Q-1 1.5-.7.5m.25-3.35q1.7-.05 1.6 1.1 0 1.1-1.7.75.2-.4.1-1.85M-.7-6q2.05-.3 2 .85Q1.25-4-.6-4.05L-.7-6" fill="#fff" fill-rule="evenodd" transform="translate(16.35 7.5)"/></g></defs></svg>