<?xml version="1.0" encoding="UTF-8" standalone="no"?>
<svg xmlns:xlink="http://www.w3.org/1999/xlink" height="38.3px" width="36.05px" xmlns="http://www.w3.org/2000/svg">
  <g transform="matrix(1.0, 0.0, 0.0, 1.0, 23.8, 14.85)">
    <use height="15.9" transform="matrix(1.0, 0.0, 0.0, 1.0, -10.9, -2.35)" width="18.65" xlink:href="#shape0"/>
  </g>
  <defs>
    <g id="shape0" transform="matrix(1.0, 0.0, 0.0, 1.0, 10.9, 2.35)">
      <path d="M0.35 -2.15 Q7.75 -0.35 7.75 5.95 7.75 11.55 0.25 13.2 -3.9 14.15 -7.55 12.5 -11.05 10.95 -10.9 8.7 -10.8 6.35 -9.35 3.55 -7.95 0.65 -6.1 -0.55 -2.55 -2.9 0.35 -2.15" fill="#033110" fill-rule="evenodd" stroke="none"/>
      <path d="M5.15 9.3 Q0.6 13.1 -4.7 12.2 -9.15 11.5 -9.65 8.9 -9.95 7.4 -8.45 3.5 -7.8 1.8 -5.3 0.2 -2.0 -1.95 1.6 -0.7 4.7 0.4 6.2 3.65 7.8 7.15 5.15 9.3" fill="#537c2f" fill-rule="evenodd" stroke="none"/>
      <path d="M4.05 4.4 L4.35 4.4 5.7 4.8 5.55 8.8 3.25 10.85 2.4 11.0 Q1.4 10.1 0.85 8.8 -0.2 6.35 1.0 5.4 1.85 4.75 3.0 4.55 L4.05 4.4" fill="#436526" fill-rule="evenodd" stroke="none"/>
      <path d="M1.05 4.0 Q-0.3 5.95 -5.25 5.35 L-7.55 5.0 Q-8.8 4.6 -8.3 3.2 -7.75 2.15 -6.0 0.65 -3.25 -1.65 -0.5 -1.35 4.0 -0.8 5.7 2.95 L3.9 2.7 Q1.85 2.75 1.05 4.0" fill="#c78349" fill-rule="evenodd" stroke="none"/>
      <path d="M1.25 9.5 Q2.65 10.3 2.85 10.95 L1.75 11.5 Q0.75 9.75 -0.6 9.2 L-2.85 8.25 1.25 9.5" fill="#033110" fill-rule="evenodd" stroke="none"/>
      <path d="M2.5 3.05 L5.7 2.95 6.75 6.6 Q6.75 8.4 3.9 10.3 4.75 8.6 4.75 6.3 4.75 5.4 3.65 4.15 L2.5 3.05" fill="#344f1d" fill-rule="evenodd" stroke="none"/>
      <path d="M2.8 -0.25 Q4.25 0.45 5.7 2.95 L4.15 2.9 2.5 3.05 Q1.55 2.05 -0.05 1.8 L-4.3 1.6 Q-6.35 -0.1 -2.6 -1.25 -0.55 -1.85 2.8 -0.25" fill="#9e6939" fill-rule="evenodd" stroke="none"/>
      <path d="M-5.7 7.8 L-5.6 8.9 -7.15 10.3 Q-7.8 10.45 -8.6 9.2 -8.95 8.6 -8.6 7.3 -8.25 5.9 -7.35 5.9 L-5.05 6.0 Q-3.75 6.5 -3.55 8.8 -3.4 12.35 -5.85 11.8 L-6.55 11.8 -7.8 11.15 -5.3 11.0 Q-4.85 11.0 -4.55 9.85 -4.35 8.65 -4.6 7.7 -5.1 5.75 -7.25 7.0 -7.75 7.25 -7.75 8.05 -7.7 8.85 -7.15 8.95 -6.4 9.2 -5.7 7.8" fill="#344f1d" fill-rule="evenodd" stroke="none"/>
    </g>
  </defs>
</svg>
