<svg xmlns:xlink="http://www.w3.org/1999/xlink" height="38.3" width="36.05" xmlns="http://www.w3.org/2000/svg"><use height="15.9" transform="translate(12.9 12.5)" width="18.65" xlink:href="#a"/><defs><g id="a" fill-rule="evenodd"><path d="M.35-2.15q7.4 1.8 7.4 8.1 0 5.6-7.5 7.25-4.15.95-7.8-.7-3.5-1.55-3.35-3.8.1-2.35 1.55-5.15 1.4-2.9 3.25-4.1Q-2.55-2.9.35-2.15" fill="#033110" transform="translate(10.9 2.35)"/><path d="M5.15 9.3Q.6 13.1-4.7 12.2q-4.45-.7-4.95-3.3-.3-1.5 1.2-5.4Q-7.8 1.8-5.3.2-2-1.95 1.6-.7 4.7.4 6.2 3.65q1.6 3.5-1.05 5.65" fill="#537c2f" transform="translate(10.9 2.35)"/><path d="M4.05 4.4h.3l1.35.4-.15 4-2.3 2.05-.85.15q-1-.9-1.55-2.2Q-.2 6.35 1 5.4q.85-.65 2-.85l1.05-.15" fill="#436526" transform="translate(10.9 2.35)"/><path d="M1.05 4Q-.3 5.95-5.25 5.35L-7.55 5q-1.25-.4-.75-1.8.55-1.05 2.3-2.55 2.75-2.3 5.5-2Q4-.8 5.7 2.95L3.9 2.7Q1.85 2.75 1.05 4" fill="#c78349" transform="translate(10.9 2.35)"/><path d="M1.25 9.5q1.4.8 1.6 1.45l-1.1.55Q.75 9.75-.6 9.2l-2.25-.95 4.1 1.25" fill="#033110" transform="translate(10.9 2.35)"/><path d="m2.5 3.05 3.2-.1L6.75 6.6q0 1.8-2.85 3.7.85-1.7.85-4 0-.9-1.1-2.15L2.5 3.05" fill="#344f1d" transform="translate(10.9 2.35)"/><path d="M2.8-.25q1.45.7 2.9 3.2L4.15 2.9l-1.65.15q-.95-1-2.55-1.25l-4.25-.2Q-6.35-.1-2.6-1.25q2.05-.6 5.4 1" fill="#9e6939" transform="translate(10.9 2.35)"/><path d="m-5.7 7.8.1 1.1-1.55 1.4q-.65.15-1.45-1.1-.35-.6 0-1.9.35-1.4 1.25-1.4l2.3.1q1.3.5 1.5 2.8.15 3.55-2.3 3h-.7l-1.25-.65 2.5-.15q.45 0 .75-1.15.2-1.2-.05-2.15-.5-1.95-2.65-.7-.5.25-.5 1.05.05.8.6.9.75.25 1.45-1.15" fill="#344f1d" transform="translate(10.9 2.35)"/></g></defs></svg>