<svg xmlns:xlink="http://www.w3.org/1999/xlink" height="38.3" width="36.05" xmlns="http://www.w3.org/2000/svg"><use height="16.5" transform="translate(9.35 11.6)" width="23.15" xlink:href="#a"/><defs><g id="a"><path d="M-13.8 7.95q.35-1.05 1.5-2.25l.85-1.05L-6-.45l1.9-1.2q2.55-1.4 5.7-1.05 1.8.15 3.4 1Q7.6.8 8.05 4.1l-2.55 2-2.85 1.55-3.4 1.65q-1.8.85-3.65 1.15l-3.8-.1q.15-1.95 2.25-4.2-2.1 2.25-2.25 4.2-2.25-.05-3.55-1.4-1.2.2-2.05-1M-10.1 6q-1.3 1.5-1.65 2.95Q-11.4 7.5-10.1 6" fill="#fff" fill-rule="evenodd" transform="translate(14.45 3.25)"/><path d="M-13.8 7.95q.85 1.2 2.05 1 1.3 1.35 3.55 1.4l3.8.1q1.85-.3 3.65-1.15l3.4-1.65L5.5 6.1l2.55-2 .05.75q.2 1.9-.05 2.3l-.1.15Q6.1 9.55.1 11.6t-8.05.45q-2.2.7-3.75-.6l-.8-.25-.55-.3q-1.3-1.3-.75-2.95m5.6 2.4.25 1.7-.25-1.7m-3.5 1.1q-.35-1.25-.05-2.5-.3 1.25.05 2.5" fill="#ffb79f" fill-rule="evenodd" transform="translate(14.45 3.25)"/><path d="M8.05 4.1Q7.6.8 5-1.7q-1.6-.85-3.4-1-3.15-.35-5.7 1.05L-6-.45l-5.45 5.1-.85 1.05q-1.15 1.2-1.5 2.25-.55 1.65.75 2.95l.55.3.8.25q1.55 1.3 3.75.6l-.25-1.7q.15-1.95 2.25-4.2m-5.8 2.8Q-11.4 7.5-10.1 6M8.05 4.1l.05.75q.2 1.9-.05 2.3l-.1.15Q6.1 9.55.1 11.6t-8.05.45m-3.8-3.1q-.3 1.25.05 2.5" fill="none" stroke="#000" stroke-linecap="round" stroke-linejoin="round" transform="translate(14.45 3.25)"/></g></defs></svg>