<svg xmlns:xlink="http://www.w3.org/1999/xlink" height="38.3" width="36.05" xmlns="http://www.w3.org/2000/svg"><use height="20.55" transform="translate(13.15 9.35)" width="20.2" xlink:href="#a"/><defs><g id="a" fill-rule="evenodd"><path d="M8.2 5.85q.8 2.1.25 3.35-.7 1.65-2.9 3.7-2.3 2.1-3.7 2.15-2.05.05-5.85-1.4Q-8.4 11.9-8.6 10q-.4-3.9-.15-5.2l.65-1.5L7.25 4l.95 1.85" transform="translate(10.65 5.5)"/><path d="M-3.6-5.5q7.6.65 8.7 1.55Q10.3.4 9.45 2.2q-.6 1.45-2.9 2.4l-2.25.25-11.7-.9q-2.65-.65-3.1-2.2-.65-2.1 1.75-4.7 2.6-2.8 5.15-2.55" transform="translate(10.65 5.5)"/><path d="M-4.05 12.9Q-7.9 11.35-8.1 9.45-8.6 3.95-6.2.9q1.6-2 4.8-2 2.7 0 4.6 1.2 2.5 1.7 3.85 4.7 1.7 3.45-.45 5.7-3.5 3.75-5 3.75-2.35 0-5.65-1.35" transform="translate(10.65 5.5)"/><path d="M6.55 3.5 2.5 6.05Q-.5 9.3-3.8 9.1q-3.9-.35-3.9-4.2 0-6.85.95-7.75Q-4.1-5.2-1.15-4.4q6.7 1.8 6.8 3.3.25 3.35.9 4.6" transform="translate(10.65 5.5)"/><path d="M3.8-3.95q1.6.6 3.4 2.9 1.65 2.1 1.65 2.8 0 .75-2.55 2Q3.3 5.3-.05 5.3q-3.35 0-6.85-1.65Q-10 2.25-10 1.5q0-1.75 1.75-3.8 1.4-1.75 2.95-2.35l4.3-.2q3.7.35 4.8.9" transform="translate(10.65 5.5)"/><path d="M-.5-1q-3.25 0-4.25-1.2l-.3-1.2.8.75q1.35.75 3.7.75 3.8 0 4.6-1.05Q4.7-1-.5-1M8.15.7q1 1.15-.65 2.1Q3.75 4.95-.8 4.95q-2.4 0-5.7-1.3Q-9.45 2.5-9.7 1.9l-.25-.95.6-1 .25 1.15q.8 1.35 3.6 1.9l9.15.3q3.85-1.25 4.1-1.65l.4-.95m-6 12v.2L.7 11.25q-.6-.65-.25-2.8.15.75 2.05 2.5.45 1-.35 1.75" fill="#3a3933" transform="translate(10.65 5.5)"/><path d="m8 .45.3.85q-.05 1.15-2.7 1.75Q.4 4.4-.9 4.4q-4.3 0-6.75-1.7-1.9-1.05-1.9-1.35v-.8l.1-.85.25.85q.5.85 1.6 1.25Q-2.7 3.55.25 3.4 2.6 3.2 5.6 2.1q1-.4 1.95-.85L8 .45" fill="#c2934e" transform="translate(10.65 5.5)"/><path d="m.95 3.25 1.6-.2.25.7-1.65.4H.6L.5 3.4l.45-.15" fill="#ffc567" transform="translate(10.65 5.5)"/><path d="m7.45 6.85-.55 2.7-3 3.1-1.1.8q1.15-1.8 1.95-2.7L6.9 8.6l.55-1.75" fill="#66655a" transform="translate(10.65 5.5)"/><path d="M-6.25 10.85q-.9-.5-1.1-1.4L-7.6 6.6q0-1.25.2-1.65.35-.95.55-.1l1.1 3.35 1.6 1.35q.95.75.6 1.15-.9 1.05-2.7.15" fill="#3a3933" transform="translate(10.65 5.5)"/><path d="M1.6 9.8q.95.8.8 2.45L1.3 10.7.95 9.2l.65.6M-.6-.15-2.65-1.3l2.15.05q1.4.15 1.7 0Q.6-.3-.6-.15" fill="#bcb8a5" transform="translate(10.65 5.5)"/><path d="m-6.1 2.2-.1 1-1.15-.4-.95-.35-.45-.35.35-.75 2.3.85" fill="#95713b" transform="translate(10.65 5.5)"/><path d="m-8.25 1.5-.5.6-.55-.35.5-.95.55.7m1.8.6 1.4.45-.05 1.15h-.45l-1.15-.55.25-1.05" fill="#ab8245" transform="translate(10.65 5.5)"/></g></defs></svg>