<svg xmlns:xlink="http://www.w3.org/1999/xlink" height="38.3" width="36.05" xmlns="http://www.w3.org/2000/svg"><use height="16.6" transform="translate(7.2 11.55)" width="23.85" xlink:href="#a"/><defs><g id="a" fill-rule="evenodd"><path d="m4.1-2.1 3.05 7.25v.55l.1.45v.8h-.1v.45l-.05.25v.1l-.05.1v.2L5.8 9.2l-1.75 1.1-.55.2h-.15l-.05.1-.4.2-1.2.6-2.95.95-3.4.7-3.1.25-2.8-.25-2.45-.7-.3-.3-.15-.1-.25-.3-.05-.2v-.3l-.1-.35-.1-1.3-.1-.3v-.7l.2-.4.1-.45.25-.45 1.55-2.2L-6.6-.65l1.85-1.4 1.9-.9.7-.2 1.4-.15 2.8.25 1.25.5.8.45" fill="#673c54" transform="translate(16.6 3.3)"/><path d="M-1.5-.55.85-.3l1.1.35.7.35L5.2 5.75v.35l.1.35V7h-.1v.35l-.05.2v.1l-.05.05v.1l-1.05.9-1.5.8-.45.15H2l-.05.05-.35.2-3.55 1.1-4.25.65h-2.55l-1.15-.15-2.05-.5-.4-.25-.2-.2-.15-.65-.05-1-.15-.45.1-.3.2-.6.2-.35 1.3-1.65 4.55-4.15L-3.9-.05l.6-.2 1.8-.3" fill="#f493ba" transform="translate(16.6 3.3)"/><path d="m-10.45 5.2 4.25-3.95q.45-.65 3.3.7Q0 3.35-.85 5.4-1.7 7.5-5.8 6.95q-3.85-.5-4.65-1.75" fill="#fff" transform="translate(16.6 3.3)"/><path d="M3.95 6.75q.5-1.35 0-2.95L3.5 2.65q.65.45 1.6 3.05.35 1.3-.1 2-.4 1.45-5.6 2.95-5.85 1.7-10.3.65 13-.1 14.85-4.55" fill="#e086a6" transform="translate(16.6 3.3)"/><path d="M4.25 7.6q.6-1.1.45-2.45l-.15-.9q.45.4.75 2.05l-.1 1.35q-.5 1.2-3.5 2.4-4.05 1.7-9.55 1.65 10-.5 12.1-4.1" fill="#b86e85" transform="translate(16.6 3.3)"/><path d="m-12.6 7.75-3.5.15q-1.65-.9 2.15-1.4-1.05-2.75.15-2t1.6 1.95q4.25-.45 4.8.65.5 1.15-2.15 1.15 1.9 2.35-.15 2.1-2.05-.3-2.9-2.6" fill="#692f56" transform="translate(16.6 3.3)"/><path d="M-13.4 6.85q-1-2.1-.2-1.5.95.55 1.25 1.6l3.65.1q1 .7-1.3 1 1.1 1.45-.1 1.1-1.2-.4-2.2-1.95l-2.5.3q-1.05-.15 1.4-.65" fill="#a34881" transform="translate(16.6 3.3)"/><path d="M-11.8 7.2q.5-.45 1.75-.3 1.1.1 1.2.45l-2.95-.15m-1.85-1.8q.9 0 .9 1.25l-.9-1.25" fill="#d189b9" transform="translate(16.6 3.3)"/></g></defs></svg>