<svg xmlns:xlink="http://www.w3.org/1999/xlink" height="38.3" width="36.05" xmlns="http://www.w3.org/2000/svg"><use height="28.35" transform="translate(14.55 .9)" width="20.4" xlink:href="#a"/><defs><g id="a" fill-rule="evenodd"><path d="M7.35 10.6q-3 4.8-10.85 3.5l-.7-.2-.05-1.85-.4 1.85h-.6l-3.45-1.65-.5-.35-.05-.55q-.2-6.25 3.3-9.2Q-3.6.15.1-.1l3.4.2.25.05L4 .3l1.75 2.3Q7.4 5.65 7.5 10.05v.3l-.15.25" fill="#0d090e" transform="translate(9.25 13.95)"/><path d="m3.3 1.1 1.5 2.05Q6.35 6 6.4 10.05q-2.6 4.2-9.65 3l-.6-4.2-1.4 4-2.95-1.55q-.25-7.9 5.6-9.8l5.9-.4" fill="#44423d" transform="translate(9.25 13.95)"/><path d="M7.1-12.9h-.05L7-12.95l.5.6.75 1.6q1.35 2.5 1.8 2.85l-1.2-.5 2.3 3.15-2.35.15q-.45 1.25-1.15 1.6l-2.6.3H4.4l.15 1.85q0 2.7-.9 4.1Q3 3.65 1.9 3.8q-2 .1-3.25-1.65Q-2.5.85-3.1.75l-1.35-.2.45-1.3.1-.5v-.15l-1.7.5 1.85-3.5.15-.25-1.4-.6.5-.5h-.25l.65-.5.15-.2 2.05-1.4h.15l1-.4-.95-1.25q-1.5-1.9-1.5-2.6 0-.8 1-1.25l4.6-.6q3.45 0 4.6 1l.1.05" fill="#0d090e" transform="translate(9.25 13.95)"/><path d="m6.55-11.9.7 1.5q.6 1.15 1.4 1.95l-1-.55.2 1.05q.8 1.45 1.4 1.85l-1.35.2q-.1 1.15-.6 1.4l-2.7.25q-1.5 0-1.3.65.35 1.5.1 3.6-.25 2.55-1.55 2.75Q.4 2.8-.5 1.55v.05Q-2-.35-3-.35q.35-.8.1-1.6-.25-.75-.6-.65 1.15-1.8 1.1-2.15l-.85-.9 1.8-1.2Q-1-7-1.15-7L.5-7.45q1.1-.15-2.65-4.65 0-.6 3.75-.75 3.8-.15 4.7.7l.25.25" fill="#795241" transform="translate(9.25 13.95)"/><path d="M.05-9.85q-1.3-2.5-.3-2.5l3.85.25q3.8 4.95 2.25 5.15-1.95.25-4.05-.4-.45-.05-1.75-2.5" fill="#442119" transform="translate(9.25 13.95)"/><path d="m6.3-12.15.25.25q.7 2 2.2 3.45L7.65-9 9.3-6.1q-1.05-.15-1.45.35l-.2.5-1.35-6.9M2.6-6.9l2.8.45-3.1.25q-3.25.55-3.5 2.1-.25 1.35.75 5.7Q-1.95-.35-3-.35q.35-.8.1-1.6-.25-.75-.55-.65 1.2-1.8 1.1-2.15l-.9-.9 1.85-1.2q1-.4 4-.05" fill="#b8957e" transform="translate(9.25 13.95)"/><path d="M-.85-7.15q-.55.25-.85-.25-.4-.45.45-.7l6.15 1-5.75-.05m7.15 3q-.2.55-1.25.95L2.9-3.25q-1.25-.4-.75-.7l4.15-.2" fill="#0d090e" transform="translate(9.25 13.95)"/><path d="M-7.9 11.15q.5-7.15 4.4-8.9-1.7.8-2.6 5.25l-.5 4.3-1.3-.65m13-.35q.75-3.3-.8-7.75l.85 2.3Q6 8 6 9.9q-.75 1.15-.9.9" fill="#a99d90" transform="translate(9.25 13.95)"/><path d="m3.3-3-.7 4.3q-.45.7-.6-5 .85.85 1.3.7" fill="#442119" transform="translate(9.25 13.95)"/></g></defs></svg>