<?xml version="1.0" encoding="UTF-8" standalone="no"?>
<svg xmlns:xlink="http://www.w3.org/1999/xlink" height="38.3px" width="36.05px" xmlns="http://www.w3.org/2000/svg">
  <g transform="matrix(1.0, 0.0, 0.0, 1.0, 23.8, 14.85)">
    <use height="22.05" transform="matrix(1.0, 0.0, 0.0, 1.0, -16.3, -7.05)" width="25.35" xlink:href="#shape0"/>
  </g>
  <defs>
    <g id="shape0" transform="matrix(1.0, 0.0, 0.0, 1.0, 16.3, 7.05)">
      <path d="M0.4 -7.0 L5.65 -7.05 Q7.15 -6.15 7.2 5.95 8.0 6.0 8.55 6.6 L8.95 8.2 Q9.15 9.55 8.9 9.95 L7.4 11.4 Q6.15 12.35 6.15 11.7 L6.15 10.1 4.1 11.2 4.1 13.15 Q0.0 14.9 -0.4 14.1 L-0.55 12.55 -3.4 13.15 -3.4 14.75 Q-3.6 15.3 -8.65 14.75 L-8.85 13.3 -11.05 13.0 -11.2 14.3 -13.85 14.4 Q-15.65 14.0 -16.05 13.1 -16.65 10.4 -15.65 9.65 L-14.5 9.3 Q-14.55 6.3 -13.9 5.4 -13.25 4.45 -10.35 3.6 -9.5 2.05 -7.55 2.15 -8.25 0.1 -6.3 -0.25 -7.75 -1.55 -6.2 -2.85 -6.85 -3.75 -6.25 -4.85 L-5.6 -5.75 -5.45 -6.1 0.4 -7.0" fill="#000000" fill-rule="evenodd" stroke="none"/>
      <path d="M-11.6 4.55 Q-8.45 4.1 -6.95 6.7 -5.8 8.75 -6.1 10.7" fill="none" stroke="#ffffff" stroke-linecap="round" stroke-linejoin="round" stroke-width="0.5"/>
      <path d="M-14.2 9.5 Q-7.8 11.9 -0.25 9.9 5.9 8.25 7.1 6.25" fill="none" stroke="#ffffff" stroke-linecap="round" stroke-linejoin="round" stroke-width="0.5"/>
      <path d="M6.55 0.75 Q1.9 1.45 2.9 8.8" fill="none" stroke="#ffffff" stroke-linecap="round" stroke-linejoin="round" stroke-width="0.5"/>
      <path d="M-9.15 3.6 Q-9.15 2.6 -7.55 2.8 L-3.8 3.4 Q-4.6 4.65 -5.75 4.95 -6.9 4.05 -9.15 3.6" fill="#3cf139" fill-rule="evenodd" stroke="none"/>
      <path d="M-6.65 1.75 Q-7.15 0.65 -6.1 0.4 L-1.9 0.55 Q-2.0 1.6 -3.05 2.15 L-6.65 1.75" fill="#3cf139" fill-rule="evenodd" stroke="none"/>
      <path d="M-5.6 -0.7 Q-6.2 -1.3 -5.9 -1.8 L-5.55 -2.25 -1.5 -2.45 -1.7 -0.7 Q-3.65 -1.0 -5.6 -0.7" fill="#3cf139" fill-rule="evenodd" stroke="none"/>
      <path d="M-5.55 -3.3 Q-6.1 -4.45 -5.15 -5.2 L-1.55 -5.55 -1.5 -3.7 -5.55 -3.3" fill="#3cf139" fill-rule="evenodd" stroke="none"/>
      <path d="M-4.6 5.6 Q-3.3 4.95 -2.85 3.85 -1.5 4.95 -2.75 5.75 -3.95 6.5 -4.6 5.6" fill="#ffffff" fill-rule="evenodd" stroke="none"/>
      <path d="M-0.65 0.85 Q0.85 1.3 0.1 2.55 -0.65 3.85 -1.85 2.9 -0.85 1.75 -0.65 0.85" fill="#ffffff" fill-rule="evenodd" stroke="none"/>
      <path d="M-0.35 -2.5 Q1.35 -2.5 1.3 -1.35 1.25 -0.25 -0.45 -0.65 -0.25 -1.1 -0.35 -2.5" fill="#ffffff" fill-rule="evenodd" stroke="none"/>
      <path d="M-0.6 -5.7 Q1.5 -5.95 1.4 -4.8 1.3 -3.6 -0.55 -3.7 L-0.6 -5.7" fill="#ffffff" fill-rule="evenodd" stroke="none"/>
    </g>
  </defs>
</svg>
