<svg xmlns:xlink="http://www.w3.org/1999/xlink" height="38.3" width="36.05" xmlns="http://www.w3.org/2000/svg"><use height="20.55" transform="translate(15.15 10.4)" width="15.2" xlink:href="#a"/><defs><g id="a" fill-rule="evenodd"><path d="m4.25-1.8.9 2.55.75 2.85q1.1 5.95-.5 8.75l1.15.9-.7.55q-1.5 1.35-3.95 2-4.95 1.2-9.85-2.05l-.7-.55.9-1.1q-.6-.85-.65-1.6-.35-1.8 1.6-5.35 1.15-2 1.35-3.1v-.5l-.05-.1-.05-1.9q.15-2.2 1.75-3.2 1.95-1.2 5.25-.55Q3-4 3.95-2.45l.3.65" fill="#4b0000" transform="translate(8.65 4.45)"/><path d="M3.05-2.1Q-.5.4-4.65-.35q.45-4.1 5.85-3.05 1.2.15 1.85 1.3" fill="#6d2b00" transform="translate(8.65 4.45)"/><path d="M3.4-1.55Q.15 2-4.6 2.15l.1-.7-.15-1.8Q-.5.4 3.05-2.1l.35.55" fill="#b13a00" transform="translate(8.65 4.45)"/><path d="M4.1 12.7q-1.6 1.65-5.2 1.5-3.4-.1-4.75-1.2l-.15-.2 2.35-5.35Q-2.4 4.3-2.5 1.8q3.45-.75 5.9-3.35L4.3 1q.85 1.95 1.05 5.65.25 4.55-1.25 6.05" fill="#ff4900" transform="translate(8.65 4.45)"/><path d="m-4.6 2.15 2.1-.35q.1 2.5-1.15 5.65L-6 12.8q-2.45-2.15-1-5.35 2.25-3.6 2.4-5.3" fill="#de3800" transform="translate(8.65 4.45)"/><path d="M-5.85 8.9Q-4 9.55-4.5 10q-.55.55-1.6.3-1-.3.25-1.4m8.8.15q1.8.65 1.3 1.15-.5.5-1.55.25t.25-1.4" fill="#ff0" transform="translate(8.65 4.45)"/><path d="M3.2 7.8q-1.4 2.25-5.7 1.4.5-3.05-.25-7.15l5.5.4q.4.45.65 2.4.25 2.05-.2 2.95" fill="#b65d26" transform="translate(8.65 4.45)"/><path d="M-5.15 7.6q-.15-1.25.95-3.4.9-1.85 1.4-2.15h.05q.75 4.1.25 7.15-2.45-.5-2.65-1.6" fill="#7c4100" transform="translate(8.65 4.45)"/><path d="M-2.15 9.7q1.6.1 1.7 1.3.05.9-.65 1.7l-2 .15q-1.4-.55-1.25-1.8.2-1.1 1.2-1.3l1-.05" fill="#acde00" transform="translate(8.65 4.45)"/><path d="M-3.9 10.95q-.2-.7 1.1-.95 1.2-.15 1.45.55.1.8-1.2.9-1.25.25-1.35-.5" fill="#cfff00" transform="translate(8.65 4.45)"/><path d="M1.6 15.05q-4.45 1.05-8.95-1.95l.75-.85q6.3 4.25 10.9.25l.85.75q-1.35 1.2-3.55 1.8" fill="#ff0" transform="translate(8.65 4.45)"/></g></defs></svg>