<?xml version="1.0" encoding="UTF-8" standalone="no"?>
<svg xmlns:xlink="http://www.w3.org/1999/xlink" height="38.3px" width="36.05px" xmlns="http://www.w3.org/2000/svg">
  <g transform="matrix(1.0, 0.0, 0.0, 1.0, 23.8, 14.85)">
    <use height="16.3" transform="matrix(1.0, 0.0, 0.0, 1.0, -14.6, -2.85)" width="23.35" xlink:href="#shape0"/>
  </g>
  <defs>
    <g id="shape0" transform="matrix(1.0, 0.0, 0.0, 1.0, 14.6, 2.85)">
      <path d="M3.0 -2.55 L3.4 -2.35 4.35 -2.1 5.4 -1.6 8.75 5.35 8.75 7.65 8.6 7.95 8.55 8.2 8.4 8.35 8.35 8.55 7.0 9.65 4.5 10.95 4.35 10.95 3.9 11.2 2.6 11.7 -4.1 13.3 -7.4 13.45 -10.4 13.2 -13.1 12.6 -13.75 12.15 -14.1 11.7 -14.25 11.3 -14.25 11.1 -14.4 10.3 -14.4 9.55 -14.5 9.3 -14.5 9.2 -14.6 8.8 -14.5 8.35 -14.35 7.95 -14.15 7.4 -13.5 6.4 -12.2 4.85 -6.6 -0.35 -5.1 -1.3 -5.15 -1.35 -4.6 -1.6 -4.15 -1.9 -4.1 -1.85 -2.45 -2.55 -0.1 -2.85 3.0 -2.55" fill="#000000" fill-rule="evenodd" stroke="none"/>
      <path d="M4.3 -0.55 L7.15 5.45 7.15 7.35 7.1 7.55 7.1 7.65 7.05 7.7 7.05 7.85 5.1 9.3 4.6 9.45 4.15 9.7 3.65 9.9 3.55 9.9 3.5 9.95 3.1 10.15 -0.85 11.4 -5.6 12.15 -8.4 12.15 -11.95 11.4 -12.25 11.2 -12.45 11.15 -12.65 10.85 -12.7 10.65 -12.7 10.45 -12.85 9.85 -12.85 9.05 -12.95 8.8 -12.95 8.2 -12.7 7.55 -12.2 6.7 -11.0 5.35 -5.95 0.65 -4.2 -0.45 Q-3.25 -0.85 -2.4 -1.3 L-0.35 -1.55 2.3 -1.3 3.5 -0.9 4.3 -0.55" fill="#844d04" fill-rule="evenodd" stroke="none"/>
      <path d="M5.5 1.95 L7.15 5.45 7.15 7.35 7.1 7.55 7.1 7.65 7.05 7.7 7.05 7.85 5.1 9.3 4.6 9.45 4.15 9.7 3.65 9.9 3.55 9.9 3.5 9.95 3.1 10.15 0.6 10.95 -5.6 12.15 -8.4 12.15 -10.85 11.7 -11.95 11.4 -12.25 11.2 -12.45 11.15 -12.65 10.85 -12.7 10.65 -12.7 10.45 -12.85 9.85 -12.85 9.05 -12.95 8.8 -12.95 8.2 -12.7 7.55 -12.6 7.3 Q-8.1 9.45 -2.0 7.3 3.4 5.3 5.5 1.95" fill="#613004" fill-rule="evenodd" stroke="none"/>
      <path d="M7.5 7.7 Q-1.95 14.65 -12.6 11.3 L-12.95 8.8 -1.85 9.1 Q4.25 7.9 7.15 5.45 7.35 5.2 7.5 6.2 L7.5 7.7" fill="#2b1409" fill-rule="evenodd" stroke="none"/>
      <path d="M-8.5 -1.05 Q-6.85 -2.85 -2.5 -0.05 -1.0 0.95 -1.0 1.7 L-1.1 2.05 Q-1.25 3.1 -3.0 5.65 -4.85 8.15 -5.85 8.9 L-5.75 8.8 -5.95 8.95 -5.85 8.9 Q-6.25 9.35 -7.15 9.2 -8.6 9.1 -10.85 7.9 -13.25 6.6 -13.65 5.6 L-13.7 5.2 -13.5 4.6 Q-12.15 1.2 -8.5 -1.05" fill="#020100" fill-rule="evenodd" stroke="none"/>
      <path d="M-6.5 7.85 Q-7.0 8.55 -10.1 7.05 -13.15 5.45 -12.6 4.8 -11.7 1.9 -8.1 -0.3 -7.4 -1.1 -4.7 0.1 -2.1 1.2 -2.4 1.95 -2.5 2.7 -4.1 4.95 -5.65 7.3 -6.5 7.85" fill="#ffcc00" fill-rule="evenodd" stroke="none"/>
      <path d="M-6.65 7.95 Q-6.95 8.4 -9.15 7.4 L-12.15 5.65 Q-11.2 5.2 -9.2 6.3 -7.1 7.45 -5.35 4.95 -4.5 2.7 -3.85 1.7 L-2.35 1.95 Q-2.6 2.9 -4.25 5.3 -5.95 7.6 -6.65 7.95" fill="#a87300" fill-rule="evenodd" stroke="none"/>
      <path d="M-4.85 0.85 Q-4.35 0.95 -4.25 1.4 -4.25 1.85 -4.65 1.95 L-5.6 1.8 -7.75 1.1 Q-8.6 1.1 -10.1 2.8 -11.65 4.55 -12.25 4.55 -12.2 3.35 -8.7 0.1 -7.85 -0.6 -5.15 0.85 L-4.85 0.85" fill="#ffffff" fill-rule="evenodd" stroke="none"/>
      <path d="M-6.65 1.55 Q-5.9 1.8 -5.7 1.95 -5.1 2.3 -5.1 2.8 L-5.1 2.85 -5.15 3.05 -5.1 2.9 Q-5.45 4.55 -6.65 5.3 L-6.75 5.35 -6.85 5.4 -7.4 5.55 Q-9.35 5.35 -9.75 4.2 L-9.85 3.9 -9.75 3.7 Q-9.45 2.55 -7.95 1.6 L-8.1 1.65 -6.65 1.55" fill="#000000" fill-rule="evenodd" stroke="none"/>
      <path d="M-7.15 4.6 Q-7.35 4.85 -8.75 3.8 -8.5 3.05 -7.6 2.45 -6.0 2.8 -6.1 3.05 -6.1 3.95 -7.15 4.6" fill="#844d04" fill-rule="evenodd" stroke="none"/>
    </g>
  </defs>
</svg>
