<svg xmlns:xlink="http://www.w3.org/1999/xlink" height="38.3" width="36.05" xmlns="http://www.w3.org/2000/svg"><use height="16.3" transform="translate(9.2 12)" width="23.35" xlink:href="#a"/><defs><g id="a" fill-rule="evenodd"><path d="m3-2.55.4.2.95.25 1.05.5 3.35 6.95v2.3l-.15.3-.05.25-.15.15-.05.2L7 9.65l-2.5 1.3h-.15l-.45.25-1.3.5-6.7 1.6-3.3.15-3-.25-2.7-.6-.65-.45-.35-.45-.15-.4v-.2l-.15-.8v-.75l-.1-.25v-.1l-.1-.4.1-.45.15-.4.2-.55.65-1 1.3-1.55 5.6-5.2 1.5-.95-.05-.05.55-.25.45-.3.05.05 1.65-.7 2.35-.3 3.1.3" transform="translate(14.6 2.85)"/><path d="m4.3-.55 2.85 6v1.9l-.05.2v.1l-.05.05v.15L5.1 9.3l-.5.15-.45.25-.5.2h-.1l-.05.05-.4.2-3.95 1.25-4.75.75h-2.8l-3.55-.75-.3-.2-.2-.05-.2-.3-.05-.2v-.2l-.15-.6v-.8l-.1-.25v-.6l.25-.65.5-.85 1.2-1.35 5.05-4.7 1.75-1.1q.95-.4 1.8-.85l2.05-.25 2.65.25 1.2.4.8.35" fill="#844d04" transform="translate(14.6 2.85)"/><path d="m5.5 1.95 1.65 3.5v1.9l-.05.2v.1l-.05.05v.15L5.1 9.3l-.5.15-.45.25-.5.2h-.1l-.05.05-.4.2-2.5.8-6.2 1.2h-2.8l-2.45-.45-1.1-.3-.3-.2-.2-.05-.2-.3-.05-.2v-.2l-.15-.6v-.8l-.1-.25v-.6l.25-.65.1-.25q4.5 2.15 10.6 0 5.4-2 7.5-5.35" fill="#613004" transform="translate(14.6 2.85)"/><path d="M7.5 7.7q-9.45 6.95-20.1 3.6l-.35-2.5 11.1.3q6.1-1.2 9-3.65.2-.25.35.75v1.5" fill="#2b1409" transform="translate(14.6 2.85)"/><path d="M-8.5-1.05q1.65-1.8 6 1Q-1 .95-1 1.7l-.1.35Q-1.25 3.1-3 5.65q-1.85 2.5-2.85 3.25l.1-.1-.2.15.1-.05q-.4.45-1.3.3-1.45-.1-3.7-1.3-2.4-1.3-2.8-2.3l-.05-.4.2-.6q1.35-3.4 5-5.65" fill="#020100" transform="translate(14.6 2.85)"/><path d="M-6.5 7.85q-.5.7-3.6-.8-3.05-1.6-2.5-2.25.9-2.9 4.5-5.1.7-.8 3.4.4 2.6 1.1 2.3 1.85-.1.75-1.7 3-1.55 2.35-2.4 2.9" fill="#fc0" transform="translate(14.6 2.85)"/><path d="M-6.65 7.95q-.3.45-2.5-.55l-3-1.75q.95-.45 2.95.65 2.1 1.15 3.85-1.35.85-2.25 1.5-3.25l1.5.25q-.25.95-1.9 3.35-1.7 2.3-2.4 2.65" fill="#a87300" transform="translate(14.6 2.85)"/><path d="M-4.85.85q.5.1.6.55 0 .45-.4.55l-.95-.15-2.15-.7q-.85 0-2.35 1.7-1.55 1.75-2.15 1.75.05-1.2 3.55-4.45.85-.7 3.55.75h.3" fill="#fff" transform="translate(14.6 2.85)"/><path d="M-6.65 1.55q.75.25.95.4.6.35.6.85v.05l-.05.2.05-.15q-.35 1.65-1.55 2.4l-.1.05-.1.05-.55.15q-1.95-.2-2.35-1.35l-.1-.3.1-.2q.3-1.15 1.8-2.1l-.15.05 1.45-.1" transform="translate(14.6 2.85)"/><path d="M-7.15 4.6q-.2.25-1.6-.8.25-.75 1.15-1.35 1.6.35 1.5.6 0 .9-1.05 1.55" fill="#844d04" transform="translate(14.6 2.85)"/></g></defs></svg>