<?xml version="1.0" encoding="UTF-8" standalone="no"?>
<svg xmlns:xlink="http://www.w3.org/1999/xlink" height="38.3px" width="36.05px" xmlns="http://www.w3.org/2000/svg">
  <g transform="matrix(1.0, 0.0, 0.0, 1.0, 23.8, 14.85)">
    <use height="15.85" transform="matrix(1.0, 0.0, 0.0, 1.0, -14.55, -2.9)" width="22.5" xlink:href="#sprite0"/>
  </g>
  <defs>
    <g id="sprite0" transform="matrix(1.0, 0.0, 0.0, 1.0, 11.25, 7.85)">
      <use height="15.85" transform="matrix(1.0, 0.0, 0.0, 1.0, -11.25, -7.85)" width="22.5" xlink:href="#shape0"/>
    </g>
    <g id="shape0" transform="matrix(1.0, 0.0, 0.0, 1.0, 11.25, 7.85)">
      <path d="M-10.75 3.0 L-10.75 2.95 -10.7 3.1 -10.75 3.0 M-1.45 -6.25 Q1.1 -7.65 4.25 -7.3 6.05 -7.15 7.65 -6.3 7.25 -6.1 6.45 -5.85 L4.75 -5.45 3.0 -5.3 Q1.15 -5.4 -1.45 -6.25" fill="#004566" fill-rule="evenodd" stroke="none"/>
      <path d="M7.65 -6.3 L8.7 -4.2 Q7.3 0.45 2.35 2.85 1.75 2.1 0.8 1.85 5.35 -0.7 6.45 -5.85 7.25 -6.1 7.65 -6.3" fill="#f8f801" fill-rule="evenodd" stroke="none"/>
      <path d="M8.7 -4.2 L10.55 -0.5 9.15 0.9 8.25 1.45 Q6.15 2.55 2.7 3.45 L2.35 2.85 Q7.3 0.45 8.7 -4.2 M3.0 -5.3 L4.75 -5.45 6.45 -5.85 Q5.35 -0.7 0.8 1.85 L-1.1 1.5 -0.9 1.0 Q1.3 -2.1 3.0 -5.3" fill="#8f8e01" fill-rule="evenodd" stroke="none"/>
      <path d="M10.55 -0.5 Q10.9 2.25 10.7 2.55 L10.6 2.7 8.9 4.1 6.25 5.4 2.7 6.5 2.2 6.6 -1.4 7.3 Q-6.3 7.9 -9.85 6.6 L-10.4 6.3 Q-10.65 6.05 -10.75 3.0 L-10.7 3.1 -10.75 2.95 -10.5 3.3 -9.95 3.6 Q-6.45 4.9 -1.55 4.3 L-1.45 4.25 2.1 3.6 2.7 3.45 Q6.15 2.55 8.25 1.45 L9.15 0.9 10.55 -0.5 M6.25 5.4 L6.25 5.35 Q6.0 4.45 6.05 3.6 6.0 4.45 6.25 5.35 L6.25 5.4 M8.9 2.2 L8.9 4.1 8.9 2.2 M-1.45 5.45 L-1.4 7.3 -1.45 5.45 M2.5 4.55 L2.7 6.5 2.5 4.55" fill="#cccccc" fill-rule="evenodd" stroke="none"/>
      <path d="M-10.75 2.95 Q-10.55 2.15 -9.65 1.1 L-1.45 -6.25 Q1.15 -5.4 3.0 -5.3 1.3 -2.1 -0.9 1.0 L-1.1 1.5 0.8 1.85 Q1.75 2.1 2.35 2.85 L2.7 3.45 2.1 3.6 -1.45 4.25 -1.55 4.3 Q-6.45 4.9 -9.95 3.6 L-10.5 3.3 -10.75 2.95" fill="#666600" fill-rule="evenodd" stroke="none"/>
      <path d="M8.7 -4.2 L10.55 -0.5 Q10.9 2.25 10.7 2.55 L10.6 2.7 8.9 4.1 6.25 5.4 2.7 6.5 2.2 6.6 -1.4 7.3 Q-6.3 7.9 -9.85 6.6 L-10.4 6.3 Q-10.65 6.05 -10.75 3.0 L-10.75 2.95 Q-10.55 2.15 -9.65 1.1 L-1.45 -6.25 Q1.1 -7.65 4.25 -7.3 6.05 -7.15 7.65 -6.3 L8.7 -4.2 M8.9 4.1 L8.9 2.2 M6.05 3.6 Q6.0 4.45 6.25 5.35 L6.25 5.4 M-10.75 2.95 L-10.7 3.1 -10.75 3.0 M2.7 6.5 L2.5 4.55 M-1.4 7.3 L-1.45 5.45" fill="none" stroke="#000000" stroke-linecap="round" stroke-linejoin="round" stroke-width="1.0"/>
      <path d="M-2.6 -3.2 Q-1.95 -3.2 -1.75 -2.75 -1.6 -2.25 -1.95 -1.6 L-3.1 -0.5 Q-3.85 0.0 -4.5 0.0 -5.15 0.0 -5.35 -0.5 -5.55 -0.95 -5.15 -1.6 L-4.0 -2.75 -2.6 -3.2" fill="#f8f801" fill-rule="evenodd" stroke="none"/>
    </g>
  </defs>
</svg>
