<?xml version="1.0" encoding="UTF-8" standalone="no"?>
<svg xmlns:xlink="http://www.w3.org/1999/xlink" height="38.3px" width="36.05px" xmlns="http://www.w3.org/2000/svg">
  <g transform="matrix(1.0, 0.0, 0.0, 1.0, 23.8, 14.85)">
    <use height="20.55" transform="matrix(1.0, 0.0, 0.0, 1.0, -12.1, -4.25)" width="21.1" xlink:href="#shape0"/>
  </g>
  <defs>
    <g id="shape0" transform="matrix(1.0, 0.0, 0.0, 1.0, 12.1, 4.25)">
      <path d="M0.2 -3.7 Q3.0 -4.0 5.25 -2.75 L5.55 -2.45 Q7.1 1.3 7.1 6.3 L7.0 7.7 Q6.85 9.2 5.5 11.0 4.3 12.5 3.25 13.0 1.85 16.15 -1.8 16.3 -4.35 16.4 -5.55 14.95 -8.55 16.3 -10.7 14.95 -11.45 14.5 -11.55 13.7 -12.1 12.95 -12.1 11.9 L-12.05 11.2 Q-11.75 8.6 -9.15 7.1 -7.7 3.35 -4.4 -1.7 L-4.3 -1.8 Q-2.7 -3.4 0.2 -3.7" fill="#000000" fill-rule="evenodd" stroke="none"/>
      <path d="M4.15 -1.0 Q4.9 0.65 5.3 3.65 5.75 6.6 5.45 7.6 5.25 8.9 4.0 10.45 L2.3 11.95 Q1.4 14.4 -1.45 14.7 -4.05 14.95 -4.85 13.45 -6.5 14.35 -8.35 14.05 -10.1 13.75 -10.05 12.9 -11.55 9.6 -7.7 7.55 -6.9 4.9 -3.55 -0.25 -2.25 -1.5 0.05 -1.75 2.35 -2.0 4.15 -1.0" fill="#ffffff" fill-rule="evenodd" stroke="none"/>
      <path d="M-5.05 14.3 Q-5.95 12.7 -5.15 10.85 -4.45 9.25 -3.1 8.65" fill="none" stroke="#000000" stroke-linecap="round" stroke-linejoin="round" stroke-width="1.1"/>
      <path d="M0.6 -4.25 Q5.0 -4.45 6.4 -2.65 L6.6 -2.45 Q7.85 4.2 8.85 5.2 9.2 5.65 8.85 6.0 8.45 6.65 7.35 6.55 L5.2 5.9 4.55 8.95 4.5 9.35 Q4.4 9.9 3.95 9.9 2.7 10.0 0.05 6.35 L-1.35 9.55 Q-1.55 10.0 -2.0 9.9 -2.7 9.8 -3.8 6.25 L-4.4 7.05 -6.15 9.15 -7.25 9.25 Q-7.85 8.7 -7.85 6.75 L-7.8 5.7 -9.65 6.6 Q-10.1 6.75 -10.45 6.4 L-10.5 6.0 -10.35 5.55 Q-9.0 4.2 -7.1 0.95 L-5.05 -2.0 Q-3.7 -3.95 0.6 -4.25" fill="#351904" fill-rule="evenodd" stroke="none"/>
      <path d="M4.8 -1.85 L6.75 4.75 5.2 4.85 Q4.1 4.5 3.9 4.2 L3.05 7.75 1.6 6.55 Q0.2 5.15 -0.05 4.6 L-1.8 7.75 Q-2.0 8.2 -3.1 4.35 -4.85 6.6 -5.65 7.3 -6.4 7.9 -6.15 4.1 -5.95 3.8 -8.5 5.1 -5.1 -0.3 -4.0 -1.3 -2.95 -2.8 0.4 -2.95 3.7 -3.15 4.8 -1.85" fill="#fe9f34" fill-rule="evenodd" stroke="none"/>
      <path d="M0.4 -2.95 Q3.7 -3.15 4.8 -1.85 L6.0 2.95 Q3.55 4.7 0.0 4.2 L-6.6 2.6 -4.0 -1.3 Q-2.95 -2.8 0.4 -2.95" fill="#b55b10" fill-rule="evenodd" stroke="none"/>
    </g>
  </defs>
</svg>
