<?xml version="1.0" encoding="UTF-8" standalone="no"?>
<svg xmlns:xlink="http://www.w3.org/1999/xlink" height="38.3px" width="36.05px" xmlns="http://www.w3.org/2000/svg">
  <g transform="matrix(1.0, 0.0, 0.0, 1.0, 23.8, 14.85)">
    <use height="21.15" transform="matrix(1.0, 0.0, 0.0, 1.0, -12.45, -7.75)" width="20.55" xlink:href="#shape0"/>
  </g>
  <defs>
    <g id="shape0" transform="matrix(1.0, 0.0, 0.0, 1.0, 12.45, 7.75)">
      <path d="M4.45 -6.9 Q5.95 -5.95 6.5 -3.85 7.35 -0.8 8.1 7.3 L8.1 7.65 Q8.3 8.9 5.6 10.45 2.05 12.55 -2.7 13.2 -8.25 13.95 -11.7 11.85 L-11.95 11.55 Q-12.45 10.6 -12.45 9.2 -12.35 7.9 -11.65 6.55 L-11.5 6.3 Q-10.65 3.9 -6.35 1.45 L-6.25 1.1 -6.55 -1.2 -6.65 -3.55 Q-6.55 -6.2 -3.65 -7.2 2.1 -8.4 4.45 -6.9" fill="#2c0233" fill-rule="evenodd" stroke="none"/>
      <path d="M4.7 -3.65 L4.9 -2.9 Q5.8 0.1 6.3 7.15 6.55 9.05 0.25 10.9 -6.4 12.85 -10.3 10.45 -10.45 9.55 -9.3 6.3 -8.05 3.7 -4.65 2.05 L-4.95 -2.4 Q-5.05 -3.7 -4.6 -4.45 L-2.95 -3.7 0.9 -3.45 4.7 -3.65" fill="#fc8e5e" fill-rule="evenodd" stroke="none"/>
      <path d="M4.7 -3.65 L0.9 -3.45 -2.95 -3.7 -4.6 -4.45 -3.35 -5.45 Q3.3 -6.85 4.7 -3.65" fill="#f26140" fill-rule="evenodd" stroke="none"/>
      <path d="M3.7 -4.55 Q4.8 -4.05 5.8 1.45 6.8 6.85 6.35 7.85 6.1 8.55 3.5 9.8 0.4 11.2 -2.95 11.65 -9.6 12.35 -10.3 10.45 -10.65 9.45 -10.25 8.65 -9.2 9.3 -6.8 9.3 L-2.2 8.85 Q1.5 8.15 2.55 7.05 4.7 4.8 2.35 -2.9 1.5 -5.4 3.7 -4.55" fill="#f26140" fill-rule="evenodd" stroke="none"/>
      <path d="M-9.9 7.9 L-10.05 7.85 -9.65 6.85 Q-8.0 8.05 -1.8 7.4 -3.55 8.2 -5.45 8.4 -8.9 8.8 -9.9 7.9" fill="#ffffff" fill-rule="evenodd" stroke="none"/>
      <path d="M-9.3 6.45 L-9.3 6.4 -5.15 6.9 Q-8.2 7.2 -9.3 6.45" fill="#ffffff" fill-rule="evenodd" stroke="none"/>
      <path d="M-2.2 4.6 Q-2.2 5.05 -2.55 5.65 -4.2 7.8 -6.65 6.95 -7.65 6.7 -8.0 5.55 -9.45 6.2 -10.6 5.95 -11.95 5.6 -12.3 4.35 L-12.35 3.7 Q-12.35 3.1 -11.95 2.7 -11.45 2.05 -9.8 1.7 L-10.0 0.95 -10.0 0.85 Q-9.6 -1.3 -7.4 -1.15 -6.05 -1.15 -5.6 0.4 L-3.25 -0.2 Q-1.75 -0.2 -0.95 0.65 -0.4 1.35 -0.4 2.05 L-0.6 2.8 Q-1.0 3.45 -2.35 3.9 L-2.2 4.6" fill="#2c0233" fill-rule="evenodd" stroke="none"/>
      <path d="M-2.3 1.35 Q-1.6 2.1 -2.2 2.8 -2.8 3.45 -3.8 3.4 -2.35 4.95 -5.0 5.8 -7.5 6.65 -7.4 4.35 -8.1 5.1 -9.25 5.05 -10.5 5.05 -10.8 4.05 -11.25 2.4 -8.2 2.2 L-7.9 2.2 Q-10.25 1.65 -8.2 0.3 -6.25 -0.95 -6.05 1.65 -5.45 0.95 -4.2 0.85 -2.9 0.7 -2.3 1.35" fill="#67c6dd" fill-rule="evenodd" stroke="none"/>
      <path d="M-4.95 5.95 Q-6.0 6.3 -6.75 5.95 L-7.6 4.45 Q-7.9 5.45 -9.9 5.05 L-10.8 4.35 Q-11.1 3.8 -10.7 3.55 -10.6 4.85 -9.0 4.45 -8.5 4.35 -7.5 3.55 -6.8 4.45 -6.05 4.35 -4.85 4.2 -5.55 2.95 -4.25 2.95 -4.0 2.3 -3.45 1.2 -4.55 0.85 -2.75 0.55 -1.95 1.45 -1.35 2.2 -2.2 2.95 -3.0 3.65 -3.85 3.35 -3.0 3.85 -3.45 4.8 -3.95 5.65 -4.95 5.95" fill="#2c80e5" fill-rule="evenodd" stroke="none"/>
      <path d="M-8.4 0.8 Q-8.8 0.35 -7.9 0.1 -7.45 -0.15 -6.85 0.1 -6.4 0.35 -6.35 0.95 -6.25 1.6 -6.75 1.85 -6.75 0.8 -7.25 0.6 -7.9 0.3 -8.4 0.8" fill="#c2f1f9" fill-rule="evenodd" stroke="none"/>
      <path d="M-10.45 2.85 Q-10.2 2.3 -9.05 2.15 -7.9 2.05 -7.85 2.8 L-9.25 2.7 -10.3 3.05 -10.3 2.8 -10.45 2.85" fill="#c2f1f9" fill-rule="evenodd" stroke="none"/>
    </g>
  </defs>
</svg>
