<?xml version="1.0" encoding="UTF-8" standalone="no"?>
<svg xmlns:xlink="http://www.w3.org/1999/xlink" height="77.7px" width="63.65px" xmlns="http://www.w3.org/2000/svg">
  <g transform="matrix(1.0, 0.0, 0.0, 1.0, 32.25, 73.3)">
    <use height="77.7" id="perso" transform="matrix(1.0, 0.0, 0.0, 1.0, -32.25, -73.3)" width="63.65" xlink:href="#sprite0"/>
  </g>
  <defs>
    <g id="sprite0" transform="matrix(1.0, 0.0, 0.0, 1.0, 32.2, 73.3)">
      <use height="77.7" id="corps" transform="matrix(1.0, 0.0, 0.0, 1.0, -32.2, -73.3)" width="63.65" xlink:href="#sprite1"/>
    </g>
    <g id="sprite1" transform="matrix(1.0, 0.0, 0.0, 1.0, 31.85, 54.7)">
      <use height="18.7" transform="matrix(1.0, 0.0, 0.0, 1.0, 8.45, -13.0)" width="14.65" xlink:href="#sprite2"/>
      <use height="18.7" transform="matrix(-1.0, 0.0, 0.0, 1.0, -10.6, -12.05)" width="14.65" xlink:href="#sprite2"/>
      <use height="22.35" transform="matrix(0.8127, 0.0, 0.0, 0.8127, -31.8666, 4.8586)" width="38.25" xlink:href="#sprite3"/>
      <use height="22.35" transform="matrix(-0.8127, 0.0, 0.0, 0.8127, 31.8166, 4.5086)" width="38.25" xlink:href="#sprite3"/>
      <use height="36.75" transform="matrix(1.0, 0.0, 0.0, 1.0, -19.7, -32.0)" width="37.1" xlink:href="#shape2"/>
      <use height="27.3" transform="matrix(1.0, 0.0, 0.0, 1.0, -8.65, -54.7)" width="6.85" xlink:href="#sprite4"/>
      <use height="27.3" transform="matrix(1.0, 0.0, 0.0, 1.0, 0.6, -54.7)" width="6.85" xlink:href="#sprite4"/>
      <use height="22.3" transform="matrix(1.0, 0.0, 0.0, 1.0, -22.75, -13.0)" width="44.6" xlink:href="#shape4"/>
      <use height="10.7" transform="matrix(1.0, 0.0, 0.0, 1.0, 0.95, -24.65)" width="8.8" xlink:href="#sprite5"/>
      <use height="10.7" transform="matrix(-1.0, 0.0, 0.0, 1.0, -2.9, -24.65)" width="8.8" xlink:href="#sprite5"/>
      <use height="3.3" transform="matrix(1.0, 0.0, 0.0, 1.0, -4.7, -12.6)" width="8.0" xlink:href="#shape6"/>
    </g>
    <g id="sprite2" transform="matrix(1.0, 0.0, 0.0, 1.0, 10.9, 6.6)">
      <use height="18.7" transform="matrix(1.0, 0.0, 0.0, 1.0, -10.9, -6.6)" width="14.65" xlink:href="#shape0"/>
    </g>
    <g id="shape0" transform="matrix(1.0, 0.0, 0.0, 1.0, 10.9, 6.6)">
      <path d="M-3.2 -6.1 L-2.95 -5.75 -2.95 -5.7 3.25 3.25 -4.85 11.6 -5.65 11.9 -10.9 0.1 -3.25 -5.45 -3.2 -6.1" fill="#ff3366" fill-rule="evenodd" stroke="none"/>
      <path d="M-2.95 -5.75 L-3.2 -6.1 M-4.85 11.6 L3.25 3.25 -2.95 -5.7" fill="none" stroke="#990000" stroke-linecap="round" stroke-linejoin="round" stroke-width="1.0"/>
    </g>
    <g id="sprite3" transform="matrix(1.0, 0.0, 0.0, 1.0, 29.55, 3.25)">
      <use height="22.35" transform="matrix(1.0, 0.0, 0.0, 1.0, -29.55, -3.25)" width="38.25" xlink:href="#shape1"/>
    </g>
    <g id="shape1" transform="matrix(1.0, 0.0, 0.0, 1.0, 29.55, 3.25)">
      <path d="M-10.3 1.85 Q-4.0 1.9 0.45 4.75 2.25 5.95 3.35 7.3 L2.65 7.65 0.25 8.85 -15.85 15.15 Q-17.65 16.0 -19.5 16.3 L-23.3 16.2 Q-25.55 16.15 -26.85 14.8 -28.05 15.0 -28.9 13.8 -28.55 12.75 -27.4 11.55 L-26.55 10.5 -10.3 1.85 M-25.2 11.85 Q-26.5 13.35 -26.85 14.8 -26.5 13.35 -25.2 11.85 M-21.05 12.0 Q-23.15 14.25 -23.3 16.2 -23.15 14.25 -21.05 12.0" fill="#ffffff" fill-rule="evenodd" stroke="none"/>
      <path d="M-23.3 16.2 L-23.05 17.9 Q-25.25 18.6 -26.8 17.3 L-27.6 17.05 -28.15 16.75 Q-29.45 15.45 -28.9 13.8 -28.05 15.0 -26.85 14.8 -25.55 16.15 -23.3 16.2 M-26.85 14.8 Q-27.15 16.05 -26.8 17.3 -27.15 16.05 -26.85 14.8" fill="#d2e8f7" fill-rule="evenodd" stroke="none"/>
      <path d="M-10.3 1.85 L-6.05 -0.4 -6.0 -0.45 -4.1 -1.65 Q-1.55 -3.05 1.6 -2.7 3.4 -2.55 5.0 -1.7 7.6 0.8 8.05 4.1 L8.1 4.85 Q8.3 6.75 8.05 7.15 L7.95 7.3 Q6.9 8.55 4.65 9.75 L0.25 11.55 -15.0 17.45 Q-21.0 19.5 -23.05 17.9 L-23.3 16.2 -19.5 16.3 Q-17.65 16.0 -15.85 15.15 L0.25 8.85 2.65 7.65 3.35 7.3 Q2.25 5.95 0.45 4.75 -4.0 1.9 -10.3 1.85" fill="#a8c7e3" fill-rule="evenodd" stroke="none"/>
      <path d="M-23.05 17.9 Q-21.0 19.5 -15.0 17.45 L0.25 11.55 4.65 9.75 Q6.9 8.55 7.95 7.3 L8.05 7.15 Q8.3 6.75 8.1 4.85 L8.05 4.1 Q7.6 0.8 5.0 -1.7 3.4 -2.55 1.6 -2.7 -1.55 -3.05 -4.1 -1.65 L-6.0 -0.45 -6.05 -0.4 -10.3 1.85 -26.55 10.5 -27.4 11.55 Q-28.55 12.75 -28.9 13.8 -29.45 15.45 -28.15 16.75 L-27.6 17.05 -26.8 17.3 Q-27.15 16.05 -26.85 14.8 -26.5 13.35 -25.2 11.85 M-23.3 16.2 L-23.05 17.9 Q-25.25 18.6 -26.8 17.3 M-23.3 16.2 Q-23.15 14.25 -21.05 12.0" fill="none" stroke="#4d769d" stroke-linecap="round" stroke-linejoin="round" stroke-width="1.0"/>
    </g>
    <g id="shape2" transform="matrix(1.0, 0.0, 0.0, 1.0, 19.7, 32.0)">
      <path d="M3.55 -30.75 Q8.85 -28.8 11.55 -24.5 13.95 -20.6 15.55 -16.3 17.2 -11.85 16.85 -7.35 16.65 -4.9 15.35 -2.9 14.15 -1.1 12.15 0.3 7.85 3.3 2.3 4.1 -3.35 4.65 -8.55 3.2 -13.8 1.7 -16.55 -2.0 L-17.3 -2.95 Q-19.4 -6.25 -19.15 -9.85 -18.95 -14.0 -16.9 -18.6 -14.85 -23.25 -11.35 -26.75 -7.85 -30.3 -2.65 -31.4 0.55 -31.8 3.55 -30.75 M0.1 -23.8 L-0.95 -22.15 Q-1.45 -23.4 -2.8 -24.55 -4.15 -25.7 -5.9 -25.95 L-6.85 -26.0 Q-9.25 -26.0 -10.95 -24.55 -12.0 -23.7 -12.4 -22.6 L-12.4 -22.5 Q-14.55 -10.25 -14.15 -7.4 -13.8 -4.55 -8.15 -5.55 L1.35 -4.6 5.65 -4.35 8.5 -4.55 Q10.3 -4.5 12.1 -7.75 13.85 -11.05 11.15 -22.1 10.9 -23.7 9.45 -24.9 7.7 -26.4 5.3 -26.4 2.85 -26.4 1.15 -24.9 L0.1 -23.8" fill="#ffffff" fill-rule="evenodd" stroke="none"/>
      <path d="M0.1 -23.8 L1.15 -24.9 Q2.85 -26.4 5.3 -26.4 7.7 -26.4 9.45 -24.9 10.9 -23.7 11.15 -22.1 13.85 -11.05 12.1 -7.75 10.3 -4.5 8.5 -4.55 L5.65 -4.35 1.35 -4.6 -8.15 -5.55 Q-13.8 -4.55 -14.15 -7.4 -14.55 -10.25 -12.4 -22.5 L-12.4 -22.6 Q-12.0 -23.7 -10.95 -24.55 -9.25 -26.0 -6.85 -26.0 L-5.9 -25.95 Q-4.15 -25.7 -2.8 -24.55 -1.45 -23.4 -0.95 -22.15 L0.1 -23.8" fill="#a8c7e3" fill-rule="evenodd" stroke="none"/>
      <path d="M3.55 -30.75 Q0.55 -31.8 -2.65 -31.4 -7.85 -30.3 -11.35 -26.75 -14.85 -23.25 -16.9 -18.6 -18.95 -14.0 -19.15 -9.85 -19.4 -6.25 -17.3 -2.95 L-16.55 -2.0 Q-13.8 1.7 -8.55 3.2 -3.35 4.65 2.3 4.1 7.85 3.3 12.15 0.3 14.15 -1.1 15.35 -2.9 16.65 -4.9 16.85 -7.35 17.2 -11.85 15.55 -16.3 13.95 -20.6 11.55 -24.5 8.85 -28.8 3.55 -30.75 Z" fill="none" stroke="#4d769d" stroke-linecap="round" stroke-linejoin="round" stroke-width="1.0"/>
    </g>
    <g id="sprite4" transform="matrix(1.0, 0.0, 0.0, 1.0, 1.9, 26.0)">
      <use height="27.3" transform="matrix(1.0, 0.0, 0.0, 1.0, -1.9, -26.0)" width="6.85" xlink:href="#shape3"/>
    </g>
    <g id="shape3" transform="matrix(1.0, 0.0, 0.0, 1.0, 1.9, 26.0)">
      <path d="M-1.35 -22.25 L-1.4 -22.25 -1.4 -22.6 Q-1.4 -23.8 -0.55 -24.65 0.3 -25.5 1.5 -25.5 2.7 -25.5 3.55 -24.65 4.45 -23.8 4.45 -22.6 L4.4 -22.25 Q1.1 -20.7 -1.35 -22.25" fill="#ff3366" fill-rule="evenodd" stroke="none"/>
      <path d="M4.4 -22.25 L4.4 -0.5 Q4.3 0.45 3.5 0.9 L1.5 1.3 -0.5 0.85 Q-1.3 0.45 -1.4 -0.5 L-1.35 -3.6 -1.35 -22.25 Q1.1 -20.7 4.4 -22.25" fill="#ffffff" fill-rule="evenodd" stroke="none"/>
      <path d="M-1.35 -22.25 L-1.4 -22.25 -1.4 -22.6 Q-1.4 -23.8 -0.55 -24.65 0.3 -25.5 1.5 -25.5 2.7 -25.5 3.55 -24.65 4.45 -23.8 4.45 -22.6 L4.4 -22.25 4.4 -0.5 M-1.4 -0.5 L-1.35 -3.6 -1.35 -22.25 Z" fill="none" stroke="#4d769d" stroke-linecap="round" stroke-linejoin="round" stroke-width="1.0"/>
    </g>
    <g id="shape4" transform="matrix(1.0, 0.0, 0.0, 1.0, 22.75, 13.0)">
      <path d="M17.3 -9.25 L21.35 2.4 Q13.4 8.25 0.55 8.8 -8.3 9.0 -15.2 7.0 2.45 0.2 17.3 -9.25 M-20.15 5.15 Q-21.2 4.6 -22.25 3.1 L-19.35 -8.75 -3.2 -3.0 -20.15 5.15" fill="#ff3366" fill-rule="evenodd" stroke="none"/>
      <path d="M-15.2 7.0 L-20.15 5.15 -3.2 -3.0 -19.35 -8.75 -18.75 -11.4 -18.45 -11.3 0.3 -4.75 16.15 -12.5 17.3 -9.25 Q2.45 0.2 -15.2 7.0 M0.3 -4.75 L-3.2 -3.0 0.3 -4.75" fill="#c90133" fill-rule="evenodd" stroke="none"/>
      <path d="M-18.75 -11.4 L-18.45 -11.3" fill="none" stroke="#000000" stroke-linecap="round" stroke-linejoin="round" stroke-width="1.0"/>
      <path d="M17.3 -9.25 L21.35 2.4 Q13.4 8.25 0.55 8.8 -8.3 9.0 -15.2 7.0 L-20.15 5.15 Q-21.2 4.6 -22.25 3.1 L-19.35 -8.75 -18.75 -11.4 M-18.45 -11.3 L0.3 -4.75 16.15 -12.5 17.3 -9.25 M-3.2 -3.0 L0.3 -4.75 M-3.2 -3.0 L-20.15 5.15" fill="none" stroke="#990000" stroke-linecap="round" stroke-linejoin="round" stroke-width="1.0"/>
    </g>
    <g id="sprite5" transform="matrix(1.0, 0.0, 0.0, 1.0, 3.95, 5.6)">
      <use height="10.7" transform="matrix(1.0, 0.0, 0.0, 1.0, -3.95, -5.6)" width="8.8" xlink:href="#shape5"/>
    </g>
    <g id="shape5" transform="matrix(1.0, 0.0, 0.0, 1.0, 3.95, 5.6)">
      <path d="M4.4 -0.25 Q4.4 2.0 3.15 3.55 1.95 5.1 0.25 5.1 -1.45 5.1 -2.7 3.55 -3.9 2.0 -3.9 -0.25 -3.9 -2.5 -2.7 -4.05 -1.45 -5.6 0.25 -5.6 1.95 -5.6 3.15 -4.05 4.4 -2.5 4.4 -0.25" fill="#daedfe" fill-rule="evenodd" stroke="none"/>
      <path d="M-3.45 2.0 Q-0.85 -1.55 1.3 -1.65 3.45 -1.75 4.35 -0.95" fill="none" stroke="#ff3366" stroke-linecap="round" stroke-linejoin="round" stroke-width="1.0"/>
    </g>
    <g id="shape6" transform="matrix(1.0, 0.0, 0.0, 1.0, 4.7, 12.6)">
      <path d="M-4.2 -12.1 Q-4.25 -9.7 -2.7 -9.9 -1.9 -10.0 -0.55 -10.9 L0.95 -10.0 Q3.05 -9.2 2.75 -11.95" fill="none" stroke="#333333" stroke-linecap="round" stroke-linejoin="round" stroke-width="1.0"/>
    </g>
  </defs>
</svg>
