<svg xmlns:xlink="http://www.w3.org/1999/xlink" height="58.5" width="59" xmlns="http://www.w3.org/2000/svg"><use height="58.45" transform="translate(0 .05)" width="59" xlink:href="#a"/><defs><linearGradient gradientTransform="matrix(.0044 .0044 -.004 .004 31.9 20.2)" gradientUnits="userSpaceOnUse" id="b" spreadMethod="pad" x1="-819.2" x2="819.2"><stop offset="0" stop-color="#f39"/><stop offset="1" stop-color="#830143"/></linearGradient><linearGradient gradientTransform="matrix(.0028 -.0028 .0028 .0028 13.6 20)" gradientUnits="userSpaceOnUse" id="c" spreadMethod="pad" x1="-819.2" x2="819.2"><stop offset="0" stop-color="#f39"/><stop offset=".471" stop-color="#fff"/><stop offset="1" stop-color="#f39"/></linearGradient><linearGradient gradientTransform="matrix(.0075 0 0 .0034 30 23.2)" gradientUnits="userSpaceOnUse" id="d" spreadMethod="pad" x1="-819.2" x2="819.2"><stop offset="0" stop-color="#f39"/><stop offset=".471" stop-color="#fff"/><stop offset="1" stop-color="#f39"/></linearGradient><linearGradient gradientTransform="matrix(.0015 .0015 -.0047 .0047 25.1 30.1)" gradientUnits="userSpaceOnUse" id="e" spreadMethod="pad" x1="-819.2" x2="819.2"><stop offset="0" stop-color="#f39"/><stop offset="1" stop-color="#830143"/></linearGradient><linearGradient gradientTransform="matrix(.0019 -.0032 .0082 .0047 30.75 29.25)" gradientUnits="userSpaceOnUse" id="f" spreadMethod="pad" x1="-819.2" x2="819.2"><stop offset="0" stop-color="#f39"/><stop offset="1" stop-color="#830143"/></linearGradient><linearGradient gradientTransform="matrix(.0026 .0045 -.0048 .0028 44.5 28.2)" gradientUnits="userSpaceOnUse" id="g" spreadMethod="pad" x1="-819.2" x2="819.2"><stop offset="0" stop-color="#f39"/><stop offset=".471" stop-color="#fff"/><stop offset="1" stop-color="#f39"/></linearGradient><linearGradient gradientTransform="matrix(-.0043 -.0043 .0049 -.0049 30.8 40.1)" gradientUnits="userSpaceOnUse" id="h" spreadMethod="pad" x1="-819.2" x2="819.2"><stop offset="0" stop-color="#f39"/><stop offset="1" stop-color="#830143"/></linearGradient><linearGradient gradientTransform="matrix(.0095 0 0 .0049 24.25 41.05)" gradientUnits="userSpaceOnUse" id="i" spreadMethod="pad" x1="-819.2" x2="819.2"><stop offset="0" stop-color="#f39"/><stop offset=".471" stop-color="#fff"/><stop offset="1" stop-color="#f39"/></linearGradient><g id="a"><path d="M50.85 23.5 57 27.3l-5.9 4.15 4.55 5.6L48.7 39l2.3 6.8-7.25-.6-.1 7.3-6.55-3.1-2.65 6.75-5.1-5.15-4.75 5.5-3.1-6.55-6.35 3.45-.6-7.2-7.2 1.15L9.2 40.3l-7.1-1.35 4.1-5.9L0 29.2l5.95-4.1-4.55-5.65 7-1.95-2.3-6.8 7.2.6.1-7.25 6.65 3L22.6.35l5.2 5.1 4.75-5.4L35.6 6.5l6.35-3.4.65 7.15 7.15-1.05-1.85 6.95 7.1 1.4-4.15 5.95m-31.5 6.45q0 1.3.5 1.65l.1-.05h-.1q-.4-.2-.5-1.6m17.2 1.2h.15-.15L36 31q-1.75-.8-3.45-.3l-1 .3 1-.25q1.7-.55 3.4.25l.6.15m-11.4-3.8.1.15.25-.15h-.35m.25 2.8h-.15l-.1.05h.2l.05-.05m-.1.9.85.05-.85-.05-2.65-.25-.45.15.4-.1 2.7.2" fill="#fff" fill-rule="evenodd" transform="translate(1 .95)"/><path d="m51.85 24.45 6.15 3.8-5.9 4.15 4.55 5.6-6.95 1.95 2.3 6.8-7.25-.6-.1 7.3-6.55-3.1-2.65 6.75-5.1-5.15-4.75 5.5-3.1-6.55-6.35 3.45-.6-7.2-7.2 1.15 1.85-7.05-7.1-1.35L7.2 34 1 30.15l5.95-4.1L2.4 20.4l7-1.95-2.3-6.8 7.2.6.1-7.25 6.65 3 2.55-6.7 5.2 5.1L33.55 1l3.05 6.45 6.35-3.4.65 7.15 7.15-1.05-1.85 6.95 7.1 1.4-4.15 5.95Z" fill="none" stroke="#f09" stroke-linecap="round" stroke-linejoin="round" stroke-width="2"/><path d="M48.25 32.75q-.85 2.3-3 3.9l-2.05 1.2-2.65 1.65Q38 41.4 37.2 44.4l-.25 1.15-.1 1v.25l-.35-.25-.1-3.3.05-.1-.05.05q-.85-.05-.1-.1h.15q.9-2.5 2.75-3.9l2.1-1.3 1.65-1q2-1.5 2.6-3.7l.1-.45h2.6m-30.5-.45-2.2-1.3-2.05-1.25Q11 27.9 10.25 25.1q-.55-2.05.1-3.8l2.9 1.95q-.5 1.4-.05 3.05.6 2.25 2.6 3.7l1.65 1 1.1.7-.8.6m-.95-15.55 2.25.3q1.9.55 2.95 1.9v1.8l-1.75-.9-3.1-.05-.35.1v-3.15m19.35 7.85.45 1.5q1.05-1.6 3.1-2.2l.6-.15v2.75l-1.8.2q-1.65.5-2.5 1.75l-.4-1.4-.65-1.1 1.2-1.35" fill="#f39" fill-rule="evenodd" transform="translate(1 .95)"/><path d="m33.25 15.1.15.1h-.15v-.1m-7.9 6.95.15-.05v.05h-.15" fill="#c36" fill-rule="evenodd" transform="translate(1 .95)"/><path d="m22 18.95.15.25.55-1.75q1.2-2.8 4.25-3.65 2.6-.7 5 .45l.8.45.1.05.4.35v.1h.15l.3.3q1 1 1.4 2.5l.3 2.4-.05 1.1-.25 1.25q-.75-.95-1.85-1.5l-.15-.65q-.35-1.2-1.1-2l-.3-.25h-.1v-.05l-.3-.25-.1-.1-.65-.35q-1.9-.9-4-.3-2.4.6-3.4 2.9l-.4 1.4-.75-.85v-1.8" fill="url(#b)" fill-rule="evenodd" transform="translate(1 .95)"/><path d="M10.35 21.3q.2-.65.55-1.2l.05-.05.1-.15.05-.1.2-.3.1-.05.05-.1.1-.15.05-.05.05-.1 1.1-.8.9-.7h.05l1.45-.6 1.65-.2v3.15l-.85.35-.05.05-.7.5-.9.65v.1l-.05.05-.05.1-.1.1-.05.05-.15.25-.1.05-.05.1v.05l-.5.95-2.9-1.95" fill="url(#c)" fill-rule="evenodd" transform="translate(1 .95)"/><path d="m35.1 22.75.95 1.55.1.3-1.2 1.35-.65-.7q-.55-.5-1.2-.8l-.9-.3q-2.1-.55-4 .35l-.65.35-.05.05-.35.3v.05h-.1l-.25.2-2.95-1.25q.4-1.05 1.2-1.8l.3-.35h.15V22l.4-.35.1-.1.8-.45q2.4-1.1 5-.4l1.45.55q1.1.55 1.85 1.5" fill="url(#d)" fill-rule="evenodd" transform="translate(1 .95)"/><path d="m23.85 24.2 2.95 1.25v.05q-.8.8-1.1 2-.3.9-.25 1.9l.05.9q.2 1.85 1.3 4l-.8.75q-2.2-3.6-2.6-6.65l-.05-1.1q0-1.25.3-2.45l.2-.65" fill="url(#e)" fill-rule="evenodd" transform="translate(1 .95)"/><path d="M33.1 24.45q.65.3 1.2.8-1 2.3-2.85 4.9L29 33.2v-1.35l1.15-1.5q2.3-3.2 2.95-5.9" fill="url(#f)" fill-rule="evenodd" transform="translate(1 .95)"/><path d="m40.3 23.75 3.3.1 1.45.6h.1l.85.65 1.1.85.05.05.05.1.1.15.05.1.1.05.2.3.1.1.05.1.05.1q1.4 2.2.65 5l-.25.75h-2.6q.35-2-.6-3.55l-.05-.05-.05-.1-.1-.1-.15-.25-.05-.05-.05-.05-.1-.1-.05-.1v-.05l-.9-.65-.7-.55h-.05l-1.2-.45-1.3-.2v-2.75" fill="url(#g)" fill-rule="evenodd" transform="translate(1 .95)"/><path d="m36.5 46.55-1.9-1.6q-4.4-3.95-7.25-7.9l-.85-1.2.75-.75 1.35 2.1q2.15 2.95 7.7 5.9-.75.05.1.1v.05l.1 3.3" fill="url(#h)" fill-rule="evenodd" transform="translate(1 .95)"/><path d="m26.5 35.85-2.35 2.2-2.25 1.9v-.3l-.1-.95-.25-1.2q-.8-3-3.35-4.9l-.45-.3.8-.6 1 .6q3.05 1.6 3.9 3.6l.2 1.45.55-.55 1.8-1.75.8-.75 2.2-2.45v1.35l-1.75 1.9-.75.75" fill="url(#i)" fill-rule="evenodd" transform="translate(1 .95)"/></g></defs></svg>