<?xml version="1.0" encoding="UTF-8" standalone="no"?>
<svg xmlns:xlink="http://www.w3.org/1999/xlink" height="65.4px" width="80.15px" xmlns="http://www.w3.org/2000/svg">
  <g transform="matrix(1.0, 0.0, 0.0, 1.0, 31.6, 13.8)">
    <use height="15.0" transform="matrix(1.0, 0.0, 0.0, 1.0, -12.2, 16.95)" width="23.7" xlink:href="#shape0"/>
  </g>
  <defs>
    <g id="shape0" transform="matrix(1.0, 0.0, 0.0, 1.0, 12.2, -16.95)">
      <path d="M-0.6 17.0 Q0.0 17.05 0.1 17.85 0.25 18.75 -0.6 19.5 -4.2 22.55 -8.75 22.9 -10.55 23.05 -11.35 21.85 L-11.75 20.65 -10.7 20.75 Q-9.5 20.7 -8.75 20.05 L-6.35 17.95 Q-4.15 16.7 -0.6 17.0" fill="#8c8a86" fill-rule="evenodd" stroke="none"/>
      <path d="M-2.1 19.4 Q-6.65 23.1 -10.25 21.55 L-8.95 21.2 Q-7.5 20.6 -6.45 19.3 -5.3 17.95 -3.4 17.6 L-0.95 17.75 Q-0.45 17.95 -2.1 19.4" fill="#c4c4c4" fill-rule="evenodd" stroke="none"/>
      <path d="M-0.75 18.15 Q-1.95 19.55 -3.2 20.3 -7.5 22.85 -10.25 21.55 L-8.75 21.15 -7.1 21.0 Q-5.2 20.7 -4.1 19.9 L-1.5 17.65 Q-1.2 17.65 -0.75 18.15" fill="#e2e1e1" fill-rule="evenodd" stroke="none"/>
      <path d="M11.5 20.65 Q11.4 23.15 8.5 22.9 3.95 22.55 0.35 19.5 -0.5 18.75 -0.4 17.85 -0.25 17.05 0.35 17.0 3.9 16.7 6.1 17.95 L8.5 20.05 Q9.65 21.05 11.5 20.65" fill="#8c8a86" fill-rule="evenodd" stroke="none"/>
      <path d="M10.0 21.55 Q6.3 23.15 1.85 19.4 0.1 18.0 0.65 17.75 L3.15 17.6 Q5.05 17.95 6.15 19.3 7.85 21.4 10.0 21.55" fill="#c4c4c4" fill-rule="evenodd" stroke="none"/>
      <path d="M0.5 18.15 L1.25 17.65 3.85 19.9 Q5.6 21.15 8.5 21.15 L10.0 21.55 Q7.25 22.85 2.95 20.3 L0.5 18.15" fill="#e2e1e1" fill-rule="evenodd" stroke="none"/>
      <path d="M-0.75 21.65 L0.1 21.75 Q0.6 22.25 -0.2 23.45 L-3.95 28.3 -5.45 30.6 Q-7.7 32.5 -9.05 31.7 -11.9 30.05 -12.15 28.35 -12.4 26.75 -10.65 25.25 -9.95 24.75 -8.65 24.45 -7.15 24.15 -6.55 24.7 -5.6 25.5 -5.15 26.4 L-1.25 21.9 -0.75 21.65" fill="#472004" fill-rule="evenodd" stroke="none"/>
      <path d="M-0.35 22.05 L-0.75 23.1 -4.5 27.95 -4.7 28.35 Q-5.35 29.6 -5.9 30.1 -7.85 31.75 -8.85 31.1 -11.4 29.55 -11.65 28.2 -11.95 26.85 -10.35 25.65 -9.85 25.25 -8.65 25.0 L-6.95 25.05 Q-6.15 25.75 -5.75 26.6 L-5.35 27.4 -0.95 22.25 Q-0.55 21.95 -0.35 22.05" fill="#bc6825" fill-rule="evenodd" stroke="none"/>
      <path d="M-8.7 27.45 Q-10.2 28.8 -11.0 28.0 -11.7 27.35 -10.0 25.9 -8.9 25.1 -7.75 25.25 -6.55 25.45 -8.7 27.45" fill="#411300" fill-rule="evenodd" stroke="none"/>
      <path d="M-6.55 30.2 Q-7.55 30.9 -8.4 30.55 L-10.2 28.95 -8.1 27.75 Q-6.9 26.65 -6.9 25.85 L-5.5 27.75 Q-5.1 29.2 -6.55 30.2" fill="#e28e2e" fill-rule="evenodd" stroke="none"/>
    </g>
  </defs>
</svg>
