<svg xmlns:xlink="http://www.w3.org/1999/xlink" height="65.4" width="80.15" xmlns="http://www.w3.org/2000/svg"><use height="15.65" transform="translate(14.3 31.8)" width="32.15" xlink:href="#a"/><defs><g id="a" fill-rule="evenodd"><path d="M.05 24.85q10.9 4.75 14.25 6.85.7.5.5 1.85-.05.4-4.65-.75Q4.8 31.45-1.3 29q-3.9-1.55-10.05-5.45l-5.65-3.7q-.4-.1-.3-.85.05-.75.45-1l1.65.25 15.25 6.6" fill="#020000" transform="translate(17.3 -18)"/><path d="m14.3 32.4.15.85-1.3-.2Q4.4 30.5-.8 28.2l-16.05-8.95.2-1L14.3 32.4" fill="#9f261a" transform="translate(17.3 -18)"/><path d="M13.55 33.2q-11.3-3.3-15-5-5.95-2.8-11.25-6.3l-4.15-2.95L-.8 27.2q9 3.25 9.75 3.25h1.2l3.9 1.9.25.65-.75.2" fill="#54100a" transform="translate(17.3 -18)"/><path d="m-7.35 24.25-2-.7-1.9-1.25.65-.55.65-.4 3.6 1.5-.65.7-.35.7" fill="#da3725" transform="translate(17.3 -18)"/></g></defs></svg>