<?xml version="1.0" encoding="UTF-8" standalone="no"?>
<svg xmlns:xlink="http://www.w3.org/1999/xlink" height="65.4px" width="80.15px" xmlns="http://www.w3.org/2000/svg">
  <g transform="matrix(1.0, 0.0, 0.0, 1.0, 31.6, 13.8)">
    <use height="23.95" transform="matrix(1.0, 0.0, 0.0, 1.0, 10.9, 21.55)" width="15.0" xlink:href="#shape0"/>
  </g>
  <defs>
    <g id="shape0" transform="matrix(1.0, 0.0, 0.0, 1.0, -10.9, -21.55)">
      <path d="M12.55 23.75 Q13.8 21.8 15.75 21.6 21.55 20.65 24.9 34.5 25.9 35.8 25.9 39.1 25.9 41.2 25.3 42.15 23.8 44.65 19.85 45.5 L15.1 45.25 Q14.05 44.5 12.95 42.25 11.8 40.0 11.8 38.8 L11.85 38.6 Q10.9 35.35 10.9 31.3 10.9 26.3 12.55 23.75 M17.6 24.0 Q16.95 23.5 16.2 23.55 15.3 23.7 14.6 24.7 13.6 26.3 13.6 29.8 13.6 32.85 14.4 35.95 17.55 33.55 21.4 33.95 20.25 26.1 17.6 24.0" fill="#633e21" fill-rule="evenodd" stroke="none"/>
      <path d="M12.4 38.5 Q11.1 33.9 11.6 28.9 12.15 22.7 15.7 22.15 19.0 21.65 21.85 28.1 23.3 31.35 24.05 34.65 24.65 35.15 24.95 37.7 25.25 40.5 24.5 41.65 23.25 43.8 19.75 44.6 16.55 45.4 15.35 44.55 14.35 43.85 13.2 41.45 12.1 39.1 12.4 38.5 M12.7 28.35 Q12.45 32.7 13.8 37.1 18.0 34.1 22.1 34.65 21.75 31.45 20.55 27.95 18.65 22.35 15.95 22.75 13.05 23.15 12.7 28.35" fill="#ccac49" fill-rule="evenodd" stroke="none"/>
      <path d="M14.85 38.85 L14.2 37.8 16.15 36.3 Q18.75 34.9 21.95 35.25 25.45 35.65 21.05 37.5 16.5 39.35 14.85 38.85" fill="#a18759" fill-rule="evenodd" stroke="none"/>
      <path d="M19.9 39.1 L20.0 40.75 19.45 39.25 18.3 39.55 Q19.8 43.9 19.5 43.95 L18.35 44.1 Q18.1 43.9 16.75 39.9 L15.75 39.95 16.05 41.7 15.0 39.95 Q14.55 39.95 14.4 39.65 14.25 39.35 14.95 39.4 17.05 39.6 22.85 37.2 25.45 35.9 23.35 37.4 22.35 38.2 19.9 39.1" fill="#fee8a3" fill-rule="evenodd" stroke="none"/>
      <path d="M12.65 38.4 Q10.55 30.0 12.65 24.8 11.85 26.9 12.4 31.95 12.8 35.95 13.45 38.3 14.0 40.3 15.45 44.15 13.6 41.4 12.65 38.4" fill="#fee8a3" fill-rule="evenodd" stroke="none"/>
      <path d="M16.15 36.65 Q14.85 34.05 16.7 33.15 18.6 32.15 19.9 34.75 L20.1 35.2 Q20.2 37.85 19.65 38.0 L17.85 38.5 Q16.95 38.15 16.15 36.65" fill="#d8d800" fill-rule="evenodd" stroke="none"/>
      <path d="M14.85 38.65 Q13.2 37.0 14.45 35.85 15.65 34.75 17.25 36.35 18.25 37.35 18.0 38.5 L15.15 38.9 14.85 38.65" fill="#e8553a" fill-rule="evenodd" stroke="none"/>
      <path d="M14.65 36.25 Q14.9 36.25 14.85 36.75 14.75 37.5 15.6 38.5 L14.75 37.9 14.35 36.5 Q14.35 36.25 14.65 36.25" fill="#ef8a68" fill-rule="evenodd" stroke="none"/>
      <path d="M16.5 33.95 Q17.15 33.65 16.85 34.25 L17.0 36.1 16.45 35.25 16.5 33.95" fill="#fff27e" fill-rule="evenodd" stroke="none"/>
      <path d="M24.0 36.7 L24.2 40.9 23.75 41.75 23.95 40.35 24.0 36.7" fill="#998040" fill-rule="evenodd" stroke="none"/>
      <path d="M22.4 34.4 L21.8 31.65 21.9 30.3 22.1 30.0 23.45 34.6 22.4 34.4" fill="#998040" fill-rule="evenodd" stroke="none"/>
      <path d="M18.85 34.95 Q19.5 31.95 21.7 32.4 23.85 32.95 23.2 35.9 L23.05 36.4 22.15 37.0 19.6 38.05 Q18.45 36.9 18.85 34.95" fill="#009ad9" fill-rule="evenodd" stroke="none"/>
      <path d="M20.3 33.55 Q21.35 33.55 20.55 34.2 L19.6 36.6 19.4 35.2 20.3 33.55" fill="#43bbe8" fill-rule="evenodd" stroke="none"/>
    </g>
  </defs>
</svg>
