<?xml version="1.0" encoding="UTF-8" standalone="no"?>
<svg xmlns:xlink="http://www.w3.org/1999/xlink" height="65.4px" width="80.15px" xmlns="http://www.w3.org/2000/svg">
  <g transform="matrix(1.0, 0.0, 0.0, 1.0, 31.6, 13.8)">
    <use height="34.2" transform="matrix(1.0, 0.0, 0.0, 1.0, -16.95, 11.4)" width="33.2" xlink:href="#shape0"/>
  </g>
  <defs>
    <g id="shape0" transform="matrix(1.0, 0.0, 0.0, 1.0, 16.95, -11.4)">
      <path d="M-10.5 17.95 L-8.05 16.7 Q-5.25 15.4 -3.55 15.4 -0.9 15.4 -0.4 16.8 L-0.75 21.15 -11.4 25.9 -14.8 19.15 -14.8 14.9 -14.0 11.4 -12.5 15.9 -10.5 17.95" fill="#282a2e" fill-rule="evenodd" stroke="none"/>
      <path d="M0.0 16.1 Q0.9 15.4 2.55 15.4 5.2 15.4 9.45 17.95 L9.9 17.55 11.45 15.9 12.95 11.45 15.2 14.4 13.8 19.15 10.4 25.9 -0.3 21.15 -0.6 16.8 0.0 16.1" fill="#282a2e" fill-rule="evenodd" stroke="none"/>
      <path d="M8.5 23.25 Q12.3 19.75 12.85 17.5 L13.25 12.25 15.7 15.0 Q16.25 16.3 16.25 19.15 16.25 20.9 15.1 22.8 L15.7 26.3 Q15.7 28.25 14.1 29.5 L13.7 32.9 Q13.2 34.15 10.95 34.7 L9.8 37.5 Q8.6 39.4 5.8 39.3 L5.35 41.0 Q4.8 42.0 3.0 42.45 L3.85 42.65 Q4.2 44.95 2.35 45.45 -0.4 46.2 -2.05 43.7 L-3.2 41.0 Q-4.45 40.95 -6.2 40.05 -7.25 39.5 -7.75 38.35 L-8.0 37.3 Q-9.55 36.9 -10.8 36.15 -12.4 35.15 -12.7 33.75 L-12.65 32.5 Q-13.5 33.05 -15.25 30.7 -16.35 29.2 -16.3 26.4 L-16.0 23.9 -16.8 19.8 Q-17.3 17.3 -16.25 15.05 L-14.0 11.4 -13.25 16.65 Q-12.3 22.15 -11.25 23.45 -9.95 25.1 -6.35 26.35 -2.5 27.7 1.0 27.45 4.3 27.2 8.5 23.25" fill="#000000" fill-rule="evenodd" stroke="none"/>
      <path d="M10.4 19.55 Q11.3 19.25 12.1 18.05 L12.95 16.8 Q13.85 16.35 13.6 19.6 13.45 21.2 13.6 22.9 13.75 25.25 13.4 28.1 L12.45 32.7 Q10.9 34.15 9.6 34.05 L9.6 35.9 Q9.4 36.45 8.4 37.2 7.0 38.5 5.1 38.55 5.0 40.35 4.25 40.9 L3.2 41.65 2.05 41.95 1.7 42.7 1.6 43.3 Q2.8 43.3 2.9 42.95 3.0 44.45 2.5 44.7 0.9 45.55 -0.55 44.0 -1.7 42.8 -2.2 41.3 -2.65 40.2 -3.45 40.1 -7.25 39.55 -7.25 36.65 -9.15 36.7 -10.8 34.95 -11.65 34.1 -11.75 32.9 L-11.65 31.85 Q-13.9 31.95 -14.55 29.2 -15.0 27.4 -14.9 24.75 L-14.85 20.85 -15.35 18.35 Q-15.65 16.1 -15.15 15.8 L-15.0 15.2 -12.25 17.4 Q-11.7 17.75 -10.85 19.0 -10.15 20.0 -9.5 20.15 -7.45 20.65 -3.15 20.2 L4.7 20.4 10.4 19.55" fill="#c4cfdc" fill-rule="evenodd" stroke="none"/>
      <path d="M11.1 17.7 L12.75 15.95 13.25 12.65 14.15 14.05 Q15.05 15.7 15.1 16.9 15.3 20.65 13.35 24.9 11.7 28.45 10.5 25.45 L11.2 20.65 9.25 20.4 11.1 17.7" fill="#c4cfdc" fill-rule="evenodd" stroke="none"/>
      <path d="M-10.9 20.0 L-12.15 19.65 -11.4 25.45 Q-11.9 28.1 -14.25 24.9 -16.15 22.2 -16.0 16.9 -15.95 15.7 -15.05 14.05 L-14.15 12.65 -13.5 17.15 Q-13.25 18.95 -10.9 20.0" fill="#c4cfdc" fill-rule="evenodd" stroke="none"/>
      <path d="M0.25 17.05 Q1.1 16.4 1.95 16.45 4.9 16.5 7.6 17.9 9.35 18.75 10.4 20.05 10.3 21.9 8.5 22.2 L1.25 21.5 1.3 21.55 -2.4 21.55 -2.35 21.5 -9.8 22.4 Q-10.9 22.2 -11.4 21.2 L-11.65 20.25 -8.45 18.0 Q-4.6 16.55 -3.0 16.5 -1.7 16.5 -0.65 17.7 L-0.45 17.7 0.25 17.05" fill="#c4cfdc" fill-rule="evenodd" stroke="none"/>
      <path d="M14.55 24.1 Q15.2 26.0 14.75 27.15 14.1 28.95 12.25 29.7 L11.75 25.3 13.85 22.4 14.55 24.1" fill="#c4cfdc" fill-rule="evenodd" stroke="none"/>
      <path d="M9.75 24.15 Q10.95 24.3 11.55 23.15 12.0 22.15 11.8 21.05 11.75 20.45 11.95 20.2 L13.0 19.55 Q14.0 17.9 14.0 16.9 L13.25 12.65 15.2 16.2 Q15.45 17.1 14.6 21.15 14.2 22.95 14.2 26.65 13.9 27.9 12.05 29.5 11.75 30.2 11.75 31.6 11.4 32.3 10.4 32.65 L9.05 32.65 Q8.55 32.6 8.3 33.35 L8.2 35.4 Q8.2 36.55 7.35 37.2 L5.55 37.7 4.05 37.8 Q4.0 39.3 2.4 41.15 0.65 43.25 3.0 43.2 3.2 44.15 2.75 44.8 L0.9 44.7 Q0.25 44.35 -0.4 42.9 -0.75 40.55 -1.05 39.4 -2.1 37.9 -2.0 37.25 L0.6 37.45 Q2.05 37.0 1.85 35.8 4.05 36.25 5.0 35.4 5.8 34.65 5.9 33.7 L5.6 32.4 7.4 32.4 Q8.35 32.35 9.0 31.7 10.6 30.15 9.1 28.75 10.7 28.95 10.85 26.55 10.9 25.9 10.4 25.3 L9.75 24.15" fill="#8d959e" fill-rule="evenodd" stroke="none"/>
      <path d="M1.3 38.6 Q1.0 41.0 -0.8 41.65 -1.15 39.95 -2.25 39.55 L-1.25 39.55 Q-3.4 39.5 -4.4 38.7 -5.6 37.85 -5.9 35.9 -7.0 35.85 -8.25 34.6 L-9.2 33.6 -9.15 32.15 Q-11.0 31.4 -11.8 30.05 L-8.35 30.5 Q-8.9 31.45 -8.35 32.15 -7.8 32.8 -6.75 32.75 L-6.35 34.75 -4.0 35.05 Q-4.3 37.2 -0.85 37.05 0.45 35.9 0.5 35.1 1.65 36.5 1.3 38.6" fill="#8d959e" fill-rule="evenodd" stroke="none"/>
      <path d="M0.95 22.0 L-0.25 20.7 1.1 21.55 Q2.7 22.4 4.1 22.25 6.35 22.05 7.45 20.8 6.65 22.95 4.05 23.15 2.45 23.3 0.95 22.0" fill="#585b62" fill-rule="evenodd" stroke="none"/>
      <path d="M5.7 22.3 L7.2 21.0 9.35 21.05 12.4 21.2 Q11.65 21.8 10.15 21.9 L7.9 21.55 5.7 22.3" fill="#585b62" fill-rule="evenodd" stroke="none"/>
      <path d="M-0.45 20.7 Q-2.2 23.4 -4.75 23.15 -6.35 23.05 -7.4 21.9 L-8.15 20.8 -7.3 21.45 Q-6.2 22.15 -4.8 22.25 -2.55 22.45 -0.45 20.7" fill="#585b62" fill-rule="evenodd" stroke="none"/>
      <path d="M-6.4 22.3 Q-7.9 21.55 -8.6 21.55 L-10.85 21.9 -13.05 21.2 -10.05 21.05 -7.9 21.0 Q-7.15 21.35 -6.4 22.3" fill="#585b62" fill-rule="evenodd" stroke="none"/>
      <path d="M2.15 27.95 L-0.05 27.5 Q-0.4 28.15 -2.45 28.2 -3.3 28.25 -4.35 27.1 L-5.25 25.95 -3.35 26.95 Q-2.3 26.95 -1.55 26.15 L-1.35 26.55 Q-1.05 26.9 -0.4 26.9 0.6 26.9 1.25 25.9 L1.35 26.3 2.65 26.65 Q4.15 26.65 4.95 25.55 3.55 27.95 2.15 27.95" fill="#7e848e" fill-rule="evenodd" stroke="none"/>
      <path d="M-13.75 18.3 Q-14.55 17.35 -15.15 17.55 -15.7 17.75 -15.65 19.6 L-15.5 21.4 Q-16.25 18.65 -15.75 15.8 L-14.15 12.65 -13.65 16.05 -11.9 17.65 Q-11.05 18.15 -10.75 19.45 L-13.05 19.3 -13.75 18.3" fill="#fdfdfd" fill-rule="evenodd" stroke="none"/>
      <path d="M-11.0 19.4 L-7.55 17.5 Q-4.9 16.45 -2.7 16.45 -0.75 16.45 -1.5 19.15 -2.65 20.25 -5.0 20.45 L-7.65 20.05 -8.55 19.45 -11.0 19.4" fill="#fdfdfd" fill-rule="evenodd" stroke="none"/>
      <path d="M0.75 17.05 Q1.95 16.35 4.25 16.65 6.55 16.9 8.7 18.8 L7.0 18.9 Q5.9 18.9 4.05 19.75 L1.6 20.0 Q0.1 19.75 -0.15 18.75 -0.4 17.65 0.75 17.05" fill="#fdfdfd" fill-rule="evenodd" stroke="none"/>
      <path d="M9.75 19.3 L11.35 17.2 12.6 16.2 13.25 12.65 13.45 16.9 Q13.25 18.2 12.25 19.05 L11.0 19.8 9.75 19.3" fill="#fdfdfd" fill-rule="evenodd" stroke="none"/>
      <path d="M0.7 23.2 L4.85 23.95 Q4.0 24.95 2.5 24.95 L0.85 24.55 Q0.2 25.3 -0.5 25.3 L-1.25 24.9 Q-2.55 25.65 -3.55 25.8 -4.15 25.9 -4.85 25.05 L-5.4 24.2 -4.0 24.2 Q-3.15 24.2 -1.9 23.45 L0.7 23.2" fill="#fdfdfd" fill-rule="evenodd" stroke="none"/>
      <path d="M-8.45 24.65 Q-8.35 26.7 -8.0 27.15 L-5.85 28.85 Q-9.65 29.25 -9.6 27.65 -12.5 27.5 -12.35 26.4 L-13.8 26.35 Q-13.6 25.0 -13.7 24.3 -15.0 24.4 -14.8 20.8 -12.25 22.15 -9.85 22.3 -10.2 22.6 -10.2 24.25 L-8.45 24.65" fill="#fdfdfd" fill-rule="evenodd" stroke="none"/>
      <path d="M3.25 33.6 Q1.6 35.0 0.35 33.45 -0.25 34.25 -1.55 34.15 -2.95 34.0 -2.85 32.8 -3.5 33.9 -4.75 33.15 -5.15 32.9 -5.25 31.4 L-6.9 31.3 Q-7.3 31.1 -7.3 30.3 -7.3 29.4 -7.45 29.15 L-8.15 27.9 Q-7.1 28.15 -5.25 28.95 L-5.25 29.05 Q-4.25 30.2 -2.65 29.55 -1.6 30.95 0.65 31.05 L4.45 31.1 Q4.55 32.6 3.25 33.6" fill="#fdfdfd" fill-rule="evenodd" stroke="none"/>
      <path d="M8.6 25.55 L8.7 26.3 Q9.6 26.45 6.35 29.55 6.3 30.55 5.95 30.8 L4.6 31.0 Q4.6 32.8 3.1 32.8 L1.6 32.9 Q0.3 33.45 -1.05 32.4 -2.4 31.4 -2.3 30.0 -0.65 30.9 -0.15 30.9 0.4 30.85 1.85 29.85 2.45 30.55 3.2 29.95 L4.35 28.9 Q5.35 28.9 5.9 28.4 6.7 27.7 6.6 26.8 7.6 26.75 8.6 25.55" fill="#fdfdfd" fill-rule="evenodd" stroke="none"/>
    </g>
  </defs>
</svg>
