<svg xmlns:xlink="http://www.w3.org/1999/xlink" height="65.4" width="80.15" xmlns="http://www.w3.org/2000/svg"><use height="19.1" transform="translate(13.4 24.3)" width="36.55" xlink:href="#a"/><defs><g id="a" fill-rule="evenodd"><path d="m9.2 18.5 2.55-.35-.65.15h.05l.6-.1 2.05-.95.9-.85v.2l.75.9 1.25 2 .5.95-.75.9-1.9 1.65q-.85.55-1.75 1.05l-.3.05q-1.75.7-3.3.85H9l-.1.05h-.2l.05 1.7Q6.9 28.25 0 28.3h-.7q-5.15-.1-7.15-1.3l-.05-.15-.05-.75-.1-.35v-.2h-.15l-.25-.05-3.65-.6q-2-.6-3.4-1.55l-.65-.45v.1l-.5-.4-.05-.05-.25-.35-.2-.25v-.05l-.1-.15.65-1.8.05-.05.2-.45.45-.65.5-1q.05-.75.6-.75.4 0 .5.4 1.8.9 3.7 1.3v-.05l2.05.2 1.6-.1q1.3-.3 2.4-.95 1.6-1 2.8-2.65 1-1.4 1.35-2.6l.05.2q1.85 4 6.05 5.3l2.1.35 1.4.05" fill="#fe81d9" fill-opacity=".6" transform="translate(18.2 -10.5)"/><path d="m14.35 14.95.5.05q1.2 1.05 2.65 3.75l.75 1.35.1.35-.1.4q-3.2 4.5-8.55 5.25v.85l-.15.65Q7.9 29.3 1.1 29.55q-6.95.25-9.65-1.6l-.25-.35-.1-.95q-6.85-.3-9.2-4.2l-.1-.35V22q.15-1.5 1.4-3.85l1.3-2.2.55-.15Q-8.9 19-5 16.7q3.65-2.1 4.05-5.75.2-.45.5-.45.4 0 .45.35 2.1 6.95 9.8 6.35 4-.3 4.25-1.8l.3-.45m2.85 5.45-.5-.95q-1.35-2.25-2.1-3-1.2 1.7-4.75 2-7.45.6-10.25-5.85-1.45 3.65-4.15 5.2-4.2 2.55-10.4-.75-1.9 2.9-2.2 4.85 2.45 3.45 8.7 3.55.4 0 .5.65l.1.85Q-5.35 28.4.9 28.3q6.1-.2 7.85-1.6l-.05-.5.05-.65q0-.65.45-.65 4.95-.5 8-4.5" fill="#49022e" transform="translate(18.2 -10.5)"/><path d="M7.8 18.45q.85 1.6 1.1 6.55h-.2l.05 1.7Q6.9 28.25 0 28.3h-.7q1.7-8.65.35-15.5 1.85 4 6.05 5.3l2.1.35m6.9-2.05v.2l.75.9 1.25 2 .5.95-.75.9-1.9 1.65q-.85.55-1.75 1.05l-.45.05q-.1-3.6-1.25-5.8l.65-.1 2.05-.95.9-.85m-21.65 2.4q-.1 4.5-1.15 6.75h-.1l-.25-.05-3.65-.6q1.3-2.85 1.5-6.2l2.05.2 1.6-.1" fill="#912176" fill-opacity=".502" transform="translate(18.2 -10.5)"/><path d="M-.95 15v.4Q-1 17.05-2.7 18.65q-1.45 1.3-2.55 1.45l-1.05.05-.2-.45v-.1q.1-.6.55-.6 1.35 0 2.9-1.3 1.75-1.55 2.1-2.7m10.2 9.65-.1-2.05-.25-1.65-.4-1.75v-.15q.55.65 1 2.55l.35 1.55.2 1.45-.8.05" fill="#ffe0fb" transform="translate(18.2 -10.5)"/><path d="m-16.6 19.95.05-.1.2-.4.45-.65.05.05-.35 2.25v.2l.05 1.7-.5-.4-.05-.05-.55-.8.65-1.8" fill="#f9d5e6" transform="translate(18.2 -10.5)"/><path d="M-17.6 13.9q0-2 2.05-2t2.05 2q0 2-2.05 2t-2.05-2" fill="#0f0801" transform="translate(18.2 -10.5)"/><path d="M-14 13.9q0 1.5-1.55 1.5t-1.55-1.5q0-1.5 1.55-1.5t1.55 1.5" fill="#f8c606" transform="translate(18.2 -10.5)"/><path d="M-17.1 13.9q.2 1 1.2 1 1.25 0 1.25-1.2t-1.25-1.2l.35-.1q1.55 0 1.55 1.5t-1.55 1.5q-1.55 0-1.55-1.5" fill="#b57a06" transform="translate(18.2 -10.5)"/><path d="M12.6 13.4q0-2 2.05-2t2.05 2q0 2-2.05 2t-2.05-2" fill="#0f0801" transform="translate(18.2 -10.5)"/><path d="M16.2 13.4q0 1.5-1.55 1.5t-1.55-1.5q0-1.5 1.55-1.5t1.55 1.5" fill="#f8c606" transform="translate(18.2 -10.5)"/><path d="M14.65 11.9q1.55 0 1.55 1.5t-1.55 1.5q-1.55 0-1.55-1.5.25.95 1.2.95 1.25 0 1.25-1.15 0-1.2-1.25-1.2l-.35.05.7-.15" fill="#b57a06" transform="translate(18.2 -10.5)"/><path d="M14.75 13.05q0 .75-.7.75-.75 0-.75-.75t.75-.75q.7 0 .7.75m-30.2.55q0 .75-.7.75-.75 0-.75-.75t.75-.75q.7 0 .7.75" fill="#fff" transform="translate(18.2 -10.5)"/></g></defs></svg>