<svg xmlns:xlink="http://www.w3.org/1999/xlink" height="65.4" width="80.15" xmlns="http://www.w3.org/2000/svg"><use height="37.05" transform="translate(10.25 21.8)" width="55.55" xlink:href="#a"/><defs><g id="a" fill-rule="evenodd"><path d="M1.8 20.35q.1.5-1.3 1.4-1.9 1.2-2.6 2.05-3.95 4.8-.9 7.6-.55 1.45 1.6 3.15 2.15 1.7 4.25.9 2.5-1 3.25.3.8 1.4-2.5 3.7Q.7 41.5-2 41.2l-2.7-.55-.7 1.3Q-6 43.3-8.05 44.3q-5.75 2.75-11.15-4.8-2.65-3.75-2-8.3.7-4.4 3.8-5.65 2.35-.95 5.05.05 2.75 1.1 3.15.95.8-.25 1.15-.95.75-1.5 1.8-2.9 1.65-2.2 4.8-2.9 3.05-.65 3.25.55" fill="#320000" transform="translate(21.35 -8)"/><path d="m3.2 36.3 2.1-.05q.3.6-2.2 2.4-3.25 2.3-6.55 1.25l-1.5-.15q-.7.25-1.1 1.3-.5 1.45-2.4 2.4-5.05 2.4-9.95-4.5-2.95-4.2-1.6-8.75.75-2.85 2.95-3.8 2.2-.9 5.35.5 1.95.85 2.8.55 1.2-.4 1.8-1.55l1.6-2.6q2.35-3.1 6-2.65l-.65.4Q-2 22.25-2.8 23.2q-3.05 3.65-2.6 6.05.3 1.2 1.5 2.5l-.05.65q.25 1.25 1.45 2.45Q.25 37.5 3.2 36.3" fill="#ff9500" transform="translate(21.35 -8)"/><path d="M23.85 19.85-3.5 32.9-4.95 30q24.5-11.9 27.35-13.65 1.7-1 1.55-1.8l-.2-1.35q3.9-.8 9.7-5.2l.75 2.85q-.15.65-3.4 4.55l-4.05 4.5-1.25.15-1.65-.2" fill="#320000" transform="translate(21.35 -8)"/><path d="m33.05 9.45.2.75.05.4q-.45 1.35-7.2 8.7l-.25-.15-2.1.1q-1.45.5-37.35 17.85l-.9-1.75L22.8 16.9q2.3-1.35 2.05-2.55l-.15-.55-.05-.05.55-.25q6.3-2.9 7.85-4.05" fill="#b3b3b3" transform="translate(21.35 -8)"/><path d="M23 17.15q2.4-1.45 2.15-2.85l-.1-.35.3-.15 1-.4q4.1-1.75 6.5-3.45l.1.3.05.25q-.7 1.7-7 5.35-16.9 9.8-39.5 20.85l-.6-1.2 3.45-1.65q31.2-15.2 33.65-16.7" fill="#fff" transform="translate(21.35 -8)"/><path d="M-6.7 30.35q-.7.85-2.25.4-1.9-.55-3.75.3-2.2 1.05-2.7 3.75-.75 4 2.65 7.95-5.4-1.5-7-8.3-1.1-4.8 2.1-6.95 2.8-1.8 5.1-.5 4.25 2.4 6.1-1.9 1.15-2.65 4.05-3.75 1.45-.55 2.65-.6l-2.55 1.2q-2.65 1.7-3.1 4.35-.55 3.15-1.3 4.05" fill="gold" transform="translate(21.35 -8)"/><path d="M-13.55 26.65q-3.05-.3-4.75 1.5-2.7 2.9-1.55 8.15-.7-1.8-.7-3.95 0-4.3 3.45-5.85l4.3-.15q1.15.4 1.95.95-1.2-.5-2.7-.65" fill="#fff2cd" transform="translate(21.35 -8)"/><path d="m-6.05 24.05 1.55-1.75q2.15-1.75 5-1.65l-1.4.8-2 .55q-2.2.85-3.15 2.05" fill="#ffb" transform="translate(21.35 -8)"/><path d="M-12.1 39.9q.25.7-.45 1.05-.85.35-1.1-.35-.35-.65.45-1.05.75-.35 1.1.35m2 .9q.35.65-.45 1.05-.85.3-1.1-.35-.25-.7.45-1.05.85-.35 1.1.35" fill="#fff" transform="translate(21.35 -8)"/><path d="M1.65 38.2q-1.7.4-2.8-1.05l-1.35-2.3 1.25.95q1.4.9 2.4.8L3.8 36q1.45-.3 1.5.25.15 1.05-3.65 1.95" fill="#ffb" transform="translate(21.35 -8)"/><path d="M2.35 37.1q-2.1-.1-3-.95l.85.3L3 36.2q2.85-.8 1.85.4-.5.55-2.5.5m-16.75-1.95-.05-.35 11.3-4.95-11.25 5.3" fill="#fff2cd" transform="translate(21.35 -8)"/><path d="m-14.65 33.6.05-.05.25 1.9q.65 2.1 2.35 3.15-2.8-.3-3-2.7l.35-2.3" fill="#320000" transform="translate(21.35 -8)"/></g></defs></svg>