<?xml version="1.0" encoding="UTF-8" standalone="no"?>
<svg xmlns:xlink="http://www.w3.org/1999/xlink" height="65.4px" width="80.15px" xmlns="http://www.w3.org/2000/svg">
  <g transform="matrix(1.0, 0.0, 0.0, 1.0, 31.6, 13.8)">
    <use height="25.55" transform="matrix(1.0, 0.0, 0.0, 1.0, -25.55, 19.5)" width="73.15" xlink:href="#shape0"/>
  </g>
  <defs>
    <g id="shape0" transform="matrix(1.0, 0.0, 0.0, 1.0, 25.55, -19.5)">
      <path d="M35.4 28.45 Q32.95 29.0 27.65 27.45 L-4.3 34.9 Q2.5 38.0 2.75 39.1 L2.8 39.2 2.65 39.9 2.65 39.95 -12.65 40.4 Q-20.6 45.25 -21.9 45.05 -23.55 44.75 -22.1 36.3 -25.85 31.2 -25.55 29.95 L-25.25 29.4 Q-24.3 28.6 -15.95 30.9 -7.15 24.75 -5.75 25.35 -4.85 25.75 -5.25 27.5 L-6.7 31.35 25.9 23.15 30.25 19.5 30.8 19.85 36.05 21.8 Q42.2 23.2 47.6 21.05 L35.4 28.45" fill="#1b191e" fill-rule="evenodd" stroke="none"/>
      <path d="M-23.4 33.15 Q-25.25 30.25 -24.9 29.9 -24.5 29.6 -20.2 30.6 L-16.0 31.7 -11.55 28.7 Q-6.95 25.75 -6.4 26.0 -5.45 26.45 -8.95 33.8 2.3 38.5 1.7 39.4 1.05 40.25 -13.05 39.4 -21.0 44.35 -21.95 44.15 -22.9 43.95 -21.45 35.95 L-23.4 33.15" fill="#9e2eb0" fill-rule="evenodd" stroke="none"/>
      <path d="M-23.35 33.05 Q-25.25 30.15 -24.9 29.8 -24.5 29.5 -20.2 30.5 L-16.0 31.6 -11.55 28.6 Q-6.95 25.65 -6.35 25.9 -5.4 26.35 -8.95 33.7 L-1.4 37.1 -6.2 35.8 Q-13.15 34.0 -16.1 34.85 -19.05 35.7 -21.0 39.25 L-22.2 41.6 -21.4 35.85 -23.35 33.05" fill="#be6dca" fill-rule="evenodd" stroke="none"/>
      <path d="M-20.85 35.45 Q-23.45 32.05 -24.2 30.25 -22.3 30.35 -16.05 32.1 L-15.8 32.15 -15.6 32.0 Q-8.7 27.2 -6.7 26.5 L-6.75 26.9 Q-7.2 28.75 -9.35 33.4 L-9.6 33.95 -4.7 35.85 -10.4 34.2 Q-9.75 30.85 -10.3 30.75 -11.4 30.5 -13.3 31.85 L-15.95 33.55 Q-18.4 34.3 -22.15 31.75 L-20.85 35.45" fill="#f8eef8" fill-rule="evenodd" stroke="none"/>
      <path d="M27.9 26.45 L-15.2 36.65 -15.85 34.25 26.1 23.75 29.95 20.5 34.3 22.35 Q39.6 23.9 44.55 22.3 40.75 24.8 37.5 26.4 L34.95 27.5 Q30.15 27.45 27.9 26.45" fill="#696969" fill-rule="evenodd" stroke="none"/>
      <path d="M35.1 27.15 Q38.6 24.85 36.4 23.9 L30.15 21.9 26.95 24.75 -15.25 35.35 -15.5 34.45 26.25 24.05 29.95 20.9 Q36.0 24.45 42.85 23.05 L35.1 27.15" fill="#86888b" fill-rule="evenodd" stroke="none"/>
      <path d="M-18.1 33.6 L-17.6 33.45 -16.55 38.3 -17.05 38.4 -18.1 33.6" fill="#1b191e" fill-rule="evenodd" stroke="none"/>
      <path d="M-21.1 37.2 L-20.85 37.75 -21.9 40.65 -21.1 37.2" fill="#f8eef8" fill-rule="evenodd" stroke="none"/>
      <path d="M-21.65 43.65 L-13.2 38.45 0.7 39.0 Q-8.7 39.35 -13.1 38.9 -15.2 40.3 -21.65 43.65" fill="#be6dca" fill-rule="evenodd" stroke="none"/>
      <path d="M33.05 22.85 Q33.05 23.5 32.45 23.5 31.85 23.5 31.85 22.85 31.85 22.25 32.45 22.25 33.05 22.25 33.05 22.85" fill="#1b191e" fill-rule="evenodd" stroke="none"/>
      <path d="M34.35 23.25 Q34.35 23.85 33.7 23.85 33.1 23.85 33.1 23.25 33.1 22.6 33.7 22.6 34.35 22.6 34.35 23.25" fill="#1b191e" fill-rule="evenodd" stroke="none"/>
      <path d="M35.6 23.5 Q35.6 24.1 35.0 24.1 34.4 24.1 34.4 23.5 34.4 22.85 35.0 22.85 35.6 22.85 35.6 23.5" fill="#1b191e" fill-rule="evenodd" stroke="none"/>
      <path d="M37.1 23.75 Q37.1 24.35 36.5 24.35 35.9 24.35 35.9 23.75 35.9 23.15 36.5 23.15 37.1 23.15 37.1 23.75" fill="#1b191e" fill-rule="evenodd" stroke="none"/>
    </g>
  </defs>
</svg>
