<?xml version="1.0" encoding="UTF-8" standalone="no"?>
<svg xmlns:xlink="http://www.w3.org/1999/xlink" height="65.4px" width="80.15px" xmlns="http://www.w3.org/2000/svg">
  <g transform="matrix(1.0, 0.0, 0.0, 1.0, 31.6, 13.8)">
    <use height="25.6" transform="matrix(1.0, 0.0, 0.0, 1.0, -24.6, 20.25)" width="73.15" xlink:href="#shape0"/>
  </g>
  <defs>
    <g id="shape0" transform="matrix(1.0, 0.0, 0.0, 1.0, 24.6, -20.25)">
      <path d="M36.35 29.25 L36.35 29.2 Q34.05 29.8 28.6 28.2 L-3.35 35.7 Q3.4 38.75 3.7 39.9 L3.75 39.95 3.6 40.65 3.6 40.7 -11.7 41.15 Q-19.65 46.05 -20.95 45.85 -22.6 45.45 -21.15 37.05 -24.9 31.95 -24.6 30.7 L-24.3 30.15 Q-23.3 29.4 -15.0 31.7 -6.2 25.5 -4.8 26.1 -3.85 26.55 -4.3 28.25 L-5.75 32.15 26.85 23.9 31.2 20.25 31.75 20.6 37.0 22.6 Q43.15 24.0 48.55 21.85 L36.35 29.25" fill="#1b191e" fill-rule="evenodd" stroke="none"/>
      <path d="M-20.5 36.7 L-22.45 33.9 Q-24.3 31.0 -23.95 30.7 -23.55 30.35 -19.25 31.4 L-15.05 32.5 -10.6 29.5 Q-6.0 26.5 -5.45 26.8 -4.5 27.2 -8.0 34.55 3.25 39.25 2.65 40.15 2.0 41.05 -12.1 40.2 -20.05 45.1 -21.0 44.95 -21.95 44.75 -20.5 36.7" fill="#000000" fill-rule="evenodd" stroke="none"/>
      <path d="M-22.4 33.8 Q-24.3 30.9 -23.95 30.6 -23.55 30.3 -19.25 31.3 L-15.05 32.4 -10.6 29.4 Q-6.0 26.4 -5.4 26.7 -4.45 27.1 -8.0 34.45 L-0.45 37.9 -5.25 36.55 Q-12.2 34.7 -15.15 35.6 -18.1 36.5 -20.05 40.05 L-21.25 42.35 -20.45 36.65 -22.4 33.8" fill="#5c5c5c" fill-rule="evenodd" stroke="none"/>
      <path d="M-5.75 27.25 L-5.8 27.65 Q-6.2 29.35 -8.4 34.2 L-8.65 34.7 -8.15 34.95 -3.75 36.65 -9.45 34.95 Q-8.8 31.65 -9.35 31.5 -10.45 31.25 -12.35 32.6 L-15.0 34.35 Q-17.45 35.1 -21.2 32.5 L-19.9 36.25 Q-22.55 32.65 -23.25 31.05 -21.5 31.15 -15.1 32.85 L-14.85 32.95 -14.65 32.8 Q-7.85 28.0 -5.75 27.25" fill="#e5e5e5" fill-rule="evenodd" stroke="none"/>
      <path d="M28.85 27.25 L-14.25 37.4 -14.9 35.05 27.05 24.55 30.9 21.3 35.25 23.15 Q40.55 24.7 45.5 23.05 41.7 25.6 38.45 27.15 L35.9 28.25 Q31.1 28.25 28.85 27.25" fill="#696969" fill-rule="evenodd" stroke="none"/>
      <path d="M35.95 27.95 Q39.55 25.65 37.35 24.65 L31.1 22.7 27.9 25.5 -14.3 36.15 -14.55 35.25 27.2 24.8 30.9 21.65 Q36.95 25.2 43.8 23.8 L35.95 27.95" fill="#86888b" fill-rule="evenodd" stroke="none"/>
      <path d="M-15.6 39.05 L-16.1 39.2 -17.15 34.35 -16.65 34.25 -15.6 39.05" fill="#1b191e" fill-rule="evenodd" stroke="none"/>
      <path d="M-20.15 38.0 L-19.9 38.55 -20.95 41.45 -20.15 38.0" fill="#e5e5e5" fill-rule="evenodd" stroke="none"/>
      <path d="M-20.7 44.4 L-12.25 39.2 1.65 39.8 Q-7.75 40.15 -12.15 39.7 L-20.7 44.4" fill="#696969" fill-rule="evenodd" stroke="none"/>
      <path d="M34.0 23.65 Q34.0 24.25 33.4 24.25 32.8 24.25 32.8 23.65 32.8 23.05 33.4 23.05 34.0 23.05 34.0 23.65" fill="#1b191e" fill-rule="evenodd" stroke="none"/>
      <path d="M35.3 24.0 Q35.3 24.6 34.65 24.6 34.05 24.6 34.05 24.0 34.05 23.4 34.65 23.4 35.3 23.4 35.3 24.0" fill="#1b191e" fill-rule="evenodd" stroke="none"/>
      <path d="M36.55 24.25 Q36.55 24.85 35.95 24.85 35.35 24.85 35.35 24.25 35.35 23.65 35.95 23.65 36.55 23.65 36.55 24.25" fill="#1b191e" fill-rule="evenodd" stroke="none"/>
      <path d="M38.05 24.5 Q38.05 25.1 37.45 25.1 36.85 25.1 36.85 24.5 36.85 23.9 37.45 23.9 38.05 23.9 38.05 24.5" fill="#1b191e" fill-rule="evenodd" stroke="none"/>
    </g>
  </defs>
</svg>
