<svg xmlns:xlink="http://www.w3.org/1999/xlink" height="65.4" width="80.15" xmlns="http://www.w3.org/2000/svg"><use height="9.4" transform="translate(12.55 35.85)" width="9.5" xlink:href="#a"/><defs><g id="a" fill-rule="evenodd"><path d="M-13.6 30q-.35-1.5 0-1.9l1.3 1.4-1 .95-.3-.45" fill="#033c3f" transform="translate(19.05 -22.05)"/><path d="m-12.55 24 .6 1.5.7.1q.75.25.95.9l.2 1.65-.1.1-.05.5.4.45q.75 1.75-.35 2.05l-2.5.2q-1.65-1.35-.85-2.6l.3-.6-.35.35-.3-.35q-.2-.4.1-.55-.9.15-1.55-.45l-.3-.2.1.15-.15-.2.05.05-.65-.95q-1.75.25-2.65-1.5l-.1-.8q0-.9.7-1.2l.75-.45q1.05-.3 2.25.3l.55.9.75-.1q.9.05 1.5.75" fill="#033c3f" transform="translate(19.05 -22.05)"/><path d="M-15.1 24.1q0 1.65-1.6 1.65-1.65 0-1.65-1.65 0-1.6 1.65-1.6 1.6 0 1.6 1.6" fill="#00dbff" transform="translate(19.05 -22.05)"/><path d="M-12.55 25.35q0 1.7-1.65 1.7-1.7 0-1.7-1.7 0-1.65 1.7-1.65 1.65 0 1.65 1.65" fill="#00dbff" transform="translate(19.05 -22.05)"/><path d="M-10.65 27.45q0 1.35-1.4 1.35-1.35 0-1.35-1.35 0-1.4 1.35-1.4 1.4 0 1.4 1.4" fill="#00dbff" transform="translate(19.05 -22.05)"/><path d="M-10.15 29.8q0 1.5-1.5 1.5t-1.5-1.5q0-1.5 1.5-1.5t1.5 1.5" fill="#00dbff" transform="translate(19.05 -22.05)"/><path d="M-10.65 29.45q.25.65-.1 1.15-.65 1-1.7.35-.75-.5-.5-1.35l.4.6q1.05.7 1.75-.35l.15-.4m-.45-2.9q.4.5.25 1.1-.3 1.2-1.45.95-.85-.25-.95-1.1l.6.4q1.2.35 1.5-.9l.05-.45m-1.75-1.5q.4 1.35-.9 1.7-.85.3-1.45-.4h.8q1.3-.45.85-1.75l-.25-.45q.7.15.95.9m-2.7-1.55q.65 1.2-.55 1.85l-1.55-.15.8-.15q1.2-.6.55-1.85-.1-.25-.35-.4.7 0 1.1.7" fill="#047884" transform="translate(19.05 -22.05)"/><path d="M-17.9 23.65q.1-.3.9-.25l-.1.6q0 .3-.9.4l.1-.75m2.85 1.15.85-.25-.3.6q-.15.35-.6.35-.35 0-.15-.3l.2-.4m2.2 2.35q-.55.15-.15-.25.35-.45 1.05-.55.55 0-.45.65l-.45.15m1.65 1.65q.55 0-.5.6l-.25.05q-.45.15-.4-.1l.4-.4.75-.15" fill="#fff" transform="translate(19.05 -22.05)"/></g></defs></svg>