<?xml version="1.0" encoding="UTF-8" standalone="no"?>
<svg xmlns:xlink="http://www.w3.org/1999/xlink" height="65.4px" width="80.15px" xmlns="http://www.w3.org/2000/svg">
  <g transform="matrix(1.0, 0.0, 0.0, 1.0, 31.6, 13.8)">
    <use height="8.5" transform="matrix(1.0, 0.0, 0.0, 1.0, -10.35, 16.9)" width="20.45" xlink:href="#shape0"/>
  </g>
  <defs>
    <g id="shape0" transform="matrix(1.0, 0.0, 0.0, 1.0, 10.35, -16.9)">
      <path d="M5.35 18.1 L6.35 18.2 7.55 18.4 Q10.45 19.3 10.05 21.25 L9.75 22.3 9.3 23.4 8.75 25.05 8.65 25.4 Q8.75 24.9 6.8 24.4 L5.45 24.05 4.4 23.15 Q3.55 22.2 3.7 20.9 L3.85 19.8 3.5 18.85 2.9 19.0 2.3 19.45 0.9 19.6 0.3 19.35 -0.1 19.1 -0.55 19.35 -1.1 19.6 -2.5 19.45 -3.15 19.05 -3.7 18.85 Q-4.0 19.15 -4.1 19.8 L-3.9 20.9 Q-3.8 22.35 -4.65 23.2 L-5.7 24.05 -7.05 24.45 Q-8.95 24.8 -8.9 25.4 L-9.0 25.05 Q-9.0 24.8 -9.15 24.5 L-10.0 22.3 -10.3 21.25 Q-10.65 19.35 -7.75 18.45 L-6.55 18.2 -5.55 18.1 -4.35 17.9 -3.55 17.1 -2.15 16.9 -0.8 17.15 -0.1 17.6 Q0.4 17.2 0.6 17.15 L1.95 16.9 3.35 17.1 4.1 17.85 5.35 18.1" fill="#020100" fill-rule="evenodd" stroke="none"/>
    </g>
  </defs>
</svg>
