<?xml version="1.0" encoding="UTF-8" standalone="no"?>
<svg xmlns:xlink="http://www.w3.org/1999/xlink" height="65.4px" width="80.15px" xmlns="http://www.w3.org/2000/svg">
  <g transform="matrix(1.0, 0.0, 0.0, 1.0, 31.6, 13.8)">
    <use height="22.05" transform="matrix(1.0, 0.0, 0.0, 1.0, -17.1, 10.15)" width="33.25" xlink:href="#shape0"/>
  </g>
  <defs>
    <g id="shape0" transform="matrix(1.0, 0.0, 0.0, 1.0, 17.1, -10.15)">
      <path d="M13.4 10.15 L14.45 12.25 Q15.6 14.9 16.15 15.3 14.5 15.15 14.1 17.4 13.7 19.55 14.65 20.7 12.3 21.25 12.6 23.65 12.8 24.85 13.4 25.95 11.65 24.8 10.0 25.1 7.1 25.7 7.75 29.1 4.5 28.55 2.4 30.3 1.3 31.2 0.9 32.2 -0.05 31.1 -1.25 30.35 -3.7 28.9 -5.1 30.7 -6.45 28.85 -8.3 28.05 L-9.85 27.6 Q-9.85 24.05 -11.7 23.45 L-14.95 23.35 Q-15.0 18.55 -17.1 18.55 -15.95 17.35 -15.3 13.5 -14.9 11.9 -14.3 11.05 L-13.75 10.55 Q-13.4 14.65 -12.95 14.75 -9.95 16.7 -9.75 17.2 L-8.7 20.1 -7.9 18.75 Q-6.85 17.25 -5.5 16.55 -3.65 15.6 -0.15 15.55 3.2 15.55 4.9 16.35 7.05 17.35 8.05 19.95 L10.0 16.3 Q11.15 14.6 12.3 13.75 13.25 12.45 13.4 10.15" fill="#260000" fill-rule="evenodd" stroke="none"/>
      <path d="M4.65 16.9 Q6.6 17.75 7.55 20.15 L8.05 21.45 10.45 16.6 12.7 14.1 Q13.55 13.15 13.7 11.6 L14.15 13.3 Q14.4 14.4 15.05 15.0 14.3 15.4 13.9 16.15 13.4 17.25 13.4 18.4 13.4 19.5 13.9 20.4 12.65 20.9 12.25 21.8 L12.0 23.1 Q12.0 23.95 12.35 24.8 L9.85 24.55 Q7.1 25.15 7.1 28.35 L7.1 28.5 Q2.95 28.1 0.8 31.25 -1.15 29.45 -2.75 29.15 -4.0 29.0 -5.05 29.9 -6.8 27.7 -9.3 27.1 -9.65 23.5 -11.5 22.9 L-14.4 22.7 Q-14.7 19.15 -16.2 18.25 -15.2 16.65 -14.75 13.6 L-14.25 11.8 -13.8 14.85 Q-10.6 16.9 -10.3 17.4 L-8.7 21.65 -8.15 20.3 -7.45 19.05 Q-6.45 17.65 -5.25 17.05 -3.55 16.15 -0.2 16.15 3.0 16.1 4.65 16.9" fill="#793a00" fill-rule="evenodd" stroke="none"/>
      <path d="M4.1 19.55 Q4.15 20.05 3.15 21.3 L2.35 19.05 1.5 21.05 0.55 19.15 Q0.0 21.0 -0.45 21.0 -1.05 19.9 -1.45 19.7 -1.8 21.1 -2.15 21.05 L-4.25 21.3 Q-4.6 21.4 -5.95 20.35 L-6.5 21.65 -7.1 21.0 -7.15 25.15 Q-6.75 25.8 -6.0 23.05 -5.75 23.2 -5.1 25.25 -4.8 25.35 -3.9 23.1 L-2.95 23.2 -2.15 24.3 -1.55 22.95 Q-1.15 23.2 -0.6 26.0 L0.45 25.55 0.6 30.3 -0.7 28.0 -1.25 29.0 -3.1 28.4 -4.35 27.55 -4.85 29.1 -6.1 27.5 Q-6.2 27.2 -6.75 27.3 L-7.4 27.35 -8.3 25.7 -8.75 26.5 -9.15 24.55 Q-9.1 24.25 -9.9 23.25 -10.7 22.25 -11.1 22.2 L-13.6 22.15 -13.05 21.15 -14.05 20.7 -13.75 19.55 -14.8 19.05 Q-13.8 17.85 -14.1 17.7 L-15.55 17.95 Q-14.25 16.05 -14.2 15.3 L-13.8 17.0 -12.2 16.8 Q-11.85 16.95 -12.7 18.0 L-11.85 18.05 -11.9 19.6 -10.2 18.9 -10.8 20.05 Q-11.35 21.2 -11.0 21.15 -10.4 21.05 -9.85 22.2 -9.45 22.05 -9.85 20.2 -8.8 22.95 -8.55 22.75 L-7.9 21.65 -7.65 20.6 Q-7.4 19.6 -7.1 20.05 -5.75 16.75 -5.1 17.85 -4.55 17.25 -3.3 17.1 -2.1 16.95 -1.95 17.45 -0.8 16.15 -0.25 17.1 1.4 16.4 1.4 17.4 L1.6 18.95 2.7 17.1 Q3.1 17.4 3.35 19.85 L4.3 17.95 4.95 20.05 Q5.1 19.35 5.45 19.8 L5.9 20.85 Q5.7 20.55 5.25 20.65 L4.75 21.1 Q3.85 17.0 4.1 19.55" fill="#955b30" fill-rule="evenodd" stroke="none"/>
      <path d="M1.6 28.85 L1.4 25.65 Q2.5 26.85 2.35 23.55 L3.65 25.75 4.25 23.4 Q5.85 25.25 6.15 25.0 6.5 24.75 6.4 23.4 7.35 25.55 7.1 25.75 L6.15 27.55 4.5 26.25 Q4.65 28.15 4.25 28.05 3.2 27.7 1.6 28.85" fill="#955b30" fill-rule="evenodd" stroke="none"/>
      <path d="M12.5 16.75 L12.75 16.0 13.3 16.95 12.3 17.5 12.9 18.55 12.65 19.0 Q12.5 19.6 12.85 20.05 12.05 20.25 11.6 21.55 11.15 22.8 11.6 23.75 L9.4 23.8 Q10.8 22.65 10.8 22.25 10.8 21.8 9.15 20.95 L11.05 20.7 9.55 19.65 11.55 19.7 Q11.7 19.45 10.1 18.75 L12.3 18.65 11.05 16.95 Q11.7 17.3 12.5 16.75" fill="#955b30" fill-rule="evenodd" stroke="none"/>
      <path d="M-13.7 18.35 L-14.75 19.2 -14.25 17.75 -15.65 17.95 -14.25 15.9 -14.45 17.1 -13.5 17.25 -13.7 18.35" fill="#c78149" fill-rule="evenodd" stroke="none"/>
      <path d="M-9.2 23.45 L-9.6 23.75 -10.55 22.1 -9.5 23.05 -9.15 22.5 -8.55 24.05 -7.8 21.9 -7.3 24.85 -6.45 26.0 -6.05 24.6 -4.85 26.9 -4.0 24.8 -3.2 25.8 -2.75 24.35 -1.95 27.05 -1.5 24.85 -1.2 26.5 -0.8 26.8 -1.25 29.0 -1.5 26.95 -2.0 28.65 -4.0 26.2 -4.85 29.1 -5.85 26.6 -6.3 27.35 -7.1 26.1 -7.75 26.7 -7.95 24.75 -8.85 26.35 -9.2 23.45" fill="#c78149" fill-rule="evenodd" stroke="none"/>
      <path d="M0.05 18.35 L-0.5 20.3 -1.6 18.6 -2.25 20.05 -3.1 19.05 -3.35 20.3 -4.25 18.85 -4.6 20.45 -5.35 19.45 -6.45 20.85 -7.15 20.7 -7.7 21.35 -7.25 20.1 -6.7 20.3 -5.45 17.95 Q-5.15 17.85 -3.75 18.45 L-3.6 17.6 -2.45 17.45 -0.5 17.3 Q-0.1 17.3 0.75 18.1 L1.3 19.85 0.05 18.35" fill="#c78149" fill-rule="evenodd" stroke="none"/>
      <path d="M-14.05 20.7 L-12.75 19.3 -13.7 19.2 -12.2 18.95 -12.85 20.3 -11.25 20.05 -12.1 21.7 -11.1 22.2 -13.6 22.15 -12.0 20.75 -14.05 20.7" fill="#c78149" fill-rule="evenodd" stroke="none"/>
      <path d="M3.45 22.25 L-2.25 22.1 Q-5.55 22.1 -6.6 22.95 -5.95 21.9 -3.8 21.8 L-0.15 21.8 Q5.55 21.55 6.8 22.8 L3.45 22.25" fill="#260000" fill-rule="evenodd" stroke="none"/>
      <path d="M6.05 27.35 L4.8 25.7 4.25 28.05 3.5 26.8 2.65 28.2 3.15 25.8 4.15 26.35 4.75 24.6 Q5.9 25.95 6.75 25.35 L6.05 27.35" fill="#c78149" fill-rule="evenodd" stroke="none"/>
      <path d="M11.6 23.75 L10.15 23.35 10.8 22.7 11.6 23.75" fill="#c78149" fill-rule="evenodd" stroke="none"/>
      <path d="M11.9 21.6 L10.0 21.2 11.25 20.6 11.9 21.6" fill="#c78149" fill-rule="evenodd" stroke="none"/>
      <path d="M12.8 20.3 L10.9 19.95 12.15 19.55 12.8 20.3" fill="#c78149" fill-rule="evenodd" stroke="none"/>
      <path d="M11.5 17.35 L12.5 17.2 12.9 18.55 11.5 17.35" fill="#c78149" fill-rule="evenodd" stroke="none"/>
      <path d="M13.65 12.85 L14.55 14.8 Q13.85 14.8 13.75 15.1 L13.65 12.85" fill="#955b30" fill-rule="evenodd" stroke="none"/>
    </g>
  </defs>
</svg>
