<svg xmlns:xlink="http://www.w3.org/1999/xlink" height="65.4" width="80.15" xmlns="http://www.w3.org/2000/svg"><g transform="translate(31.6 13.8)"><use height="29.45" transform="translate(-28.1 20.95)" width="19.2" xlink:href="#a"/><use height="26.05" transform="translate(-27.45 23.5)" width="17.6" xlink:href="#b"/><use height="24.35" transform="translate(-26.15 21.75)" width="15.3" xlink:href="#c"/><use height="15.35" transform="translate(-26.25 32.15)" width="14.9" xlink:href="#d"/><use height="20.4" transform="translate(-25.65 23.1)" width="14.35" xlink:href="#e"/><use height="13" transform="translate(-17.1 24.05)" width="5.35" xlink:href="#f"/><use height="10.85" transform="translate(-26.8 29.9)" width="10.65" xlink:href="#g"/></g><defs><use height="29.45" width="19.2" xlink:href="#h" id="a"/><use height="26.05" width="17.6" xlink:href="#i" id="b"/><use height="24.35" width="15.3" xlink:href="#j" id="c"/><use height="15.35" width="14.9" xlink:href="#k" id="d"/><use height="20.4" width="14.35" xlink:href="#l" id="e"/><use height="13" width="5.35" xlink:href="#m" id="f"/><g id="h" fill-rule="evenodd"><path d="m-2.35-10.65-.15.05.1.3q.1.35-.1.95L-2.95-8l-.2 1.65q.1 1.6.55 2.4l1.45 2.05 1.1 1.1Q.6-.3 1.4 0l2.95.15Q5.4-.5 5.95-1.9l.4-1.65-.15-1.5-.35-1.55-.6-1.4q-1-2.75-2.6-3.7-1.2-.7-2.5-.45l-1.3.6-.7.4-.5.5v-.05.05m5.9-4.05q.8 0 1.9 2l.5.85Q7-10.55 7.5-6.5l.35 5q1.6 4.6 1.75 7.75L9.35 9.4q-.4 1.55-1.1 2.5-.9 1.35-2.35 2-1.55.75-3 .85-1.45.05-4-2.25-8.35-5.05-8.5-9.75 0-2.05.8-3.45L-7-4.1l.85-.75q.65-.35.65-.6l-.05-.1h.1l.1-.45.1-1.6.7-2.3q.8-1.85 1.45-2.4.65-.55 1.5-.55l.5-.05q.65-.15 4.65-1.8" fill="#000200" transform="translate(9.6 14.7)"/><path d="M2.95-3.25 2.4-1.2q-.1.05-7.1-4.15l3.65-1.6q.2-.05.3.2l.4 2.3.2.05.3.8q.45.8 1.15 1.05l1.4-.3.25-.4" fill="#010500" transform="translate(9.6 14.7)"/></g><g id="i" fill="#563403" fill-rule="evenodd"><path d="M-8.75.9q.45-3.05 4.2-7.1 6.8 3.55 7.1 4.1L.65 3.15Q-1.3 8.4-.75 9.8l.8 1.45Q-5.2 9.1-8.45 3.2q-.5-.75-.3-2.3" transform="translate(8.8 13)"/><path d="m8.55 2 .2 3.35q.3 2.4-.9 4.75-1.4 2.65-4.6 2.9-3.35.3-3.95-2.75Q-.95 9.1-.5 9l1.45.4q2.9.75 4.95-1.4 1.2-1.25 1.6-4.75.5-3.25.2-4.4.7.95.85 3.15m-12.9-8.05q-.8-1.85 1.1-5.45.8-1.55 2.2-1.5l1.25.3q-1.45 1.25-1.6 3.3-.05.6.45 1.85l-3.4 1.5" transform="translate(8.8 13)"/></g><g id="j" fill="#664105" fill-rule="evenodd"><path d="m-2.5 12-1.45-.4-.1.05-.2-.15-.15-.25q.15-1.75 1.1-4.8Q-1.6 1.35-.9.5l4.4-.75q.4.2.85 2.45l-.3 3.65q-.4 3.5-1.6 4.75Q.4 12.75-2.5 12" transform="translate(10.95 12.15)"/><path d="m-3.95-10.35 3.75-1.8Q3.75-9.5 3.55-.2L-.9.5Q.75-4-1.25-7.45q-1.05-1.85-2.7-2.9m-6.7 10 .25-.5.75-1 .35-.45.2-.2.15-.25v-.1l.2.25.2.1-.3.4-1.2 2-.15.6v.3l-.1.2-.5-.35-.15-.25V.1l.3-.45" transform="translate(10.95 12.15)"/></g><g id="g" fill-rule="evenodd"><path d="M-22.5 30.1q.65-.7 3.6 1.35 2.95 2 2.75 2.85-4.85 3.85-7.05 2.45l-1.9-1.6q-.6-1.7 2.6-5.05" fill="#020002" transform="translate(26.8 -29.9)"/><path d="M-22.25 30.45q5.15 3 5.25 3.35-3.75 3.45-5.7 2.3-1.6-.95-1.75-1.35-.6-1.45 2.2-4.3" fill="#664105" transform="translate(26.8 -29.9)"/><path d="M-25.65 35.8q.6 0 .85.9-.9 1.1-.7 1.9.15.75.45.65.95-.2 1.45-1.45 1.55.25 1.55.45-1.3 2.65-2.65 2.5-1.95-.15-2.1-1.75-.05-.95.3-2.05.4-1.15.85-1.15" fill="#000200" transform="translate(26.8 -29.9)"/><path d="M-25.1 36.1q.45.3.1.55-.5.35-.7 1.25-.25 1.05.3 1.65.45.5 1.35-.75l.85-1.1q.15.4.95.5-1.95 3.15-3.55 2.2-2.1-1.25.2-4.55l.5.25" fill="#e0a30b" transform="translate(26.8 -29.9)"/><path d="M-21.2 37.45q-1.05 1.65-2.05.9-1.15-.65-.1-2.25 1-1.6 2.1-.95 1 .75.05 2.3" fill="#000200" transform="translate(26.8 -29.9)"/><path d="M-21.5 37.45q-.7 1.1-1.5.65-.8-.5-.05-1.6.7-1.15 1.5-.65.75.45.05 1.6" fill="#e0a30b" transform="translate(26.8 -29.9)"/><path d="M-21.8 36.9q-.5.55-.95.1-.35-.35.2-.9l.9-.1q.35.45-.15.9" fill="#e8b749" transform="translate(26.8 -29.9)"/><path d="m-21.9 36.7-.65.1q-.25-.25.1-.65l.65-.1q.3.3-.1.65" fill="#f9dd64" transform="translate(26.8 -29.9)"/><path d="M-23.6 35.9q-.8 1.35-1.7.75-.95-.55-.1-1.85.9-1.3 1.75-.8.85.6.05 1.9" fill="#000200" transform="translate(26.8 -29.9)"/><path d="M-23.85 35.9q-.6.95-1.25.55-.65-.35 0-1.35.55-.9 1.2-.55.6.45.05 1.35" fill="#e0a30b" transform="translate(26.8 -29.9)"/><path d="m-24.1 35.45-.75.1q-.3-.3.15-.75l.75-.1q.3.4-.15.75" fill="#e8b749" transform="translate(26.8 -29.9)"/><path d="m-24.2 35.3-.55.05q-.2-.2.1-.55l.55-.05q.25.25-.1.55" fill="#f9dd64" transform="translate(26.8 -29.9)"/><path d="m-20.5 31.5-.05-.05.75.9q-1.5-1.2-2.75-.3l-1.3.85q.15-.6 1.3-1.85.5-.5 2.05.45" fill="#895209" transform="translate(26.8 -29.9)"/><path d="m-22.9 31.75-.2.2.6-.75.7-.2q.9 0 .65.4l-.35.05h-.45l-.95.3" fill="#b58348" transform="translate(26.8 -29.9)"/></g><path d="m6.65-7.45.5-.1.2-.1.1.8-.1.95-.15-.2-.2-.15-.5-.25-1.15.1-2.3.7-.35.2.2-.5.1-.6h-.05l.55-.3.45-.2 1.75-.35h.95M-7.4 1.3q.35.1 2.1 1.3 1.15.75 2.55.25 1-.3 2.4-2.25 1.35-1.85 1.6-3 0 1.2-1.2 5Q-.9 5.65-.3 7.7l-3.55-2.4q-3.05-2.35-3.6-4h.05" transform="translate(7.45 7.65)" id="k" fill="#382602" fill-rule="evenodd"/><path d="m7.15 2.7-.2 2.25q0 2.05-1.2 3.7-1.35 1.8-3.15 1.6-2.55-.2-1.8-4.4.75-4 2.4-4.7Q7.05-.25 7.15 2.7M6.2-6.8q-.25.3-1.9.9l-1.7.65-.2-.95-.45-.9Q1.2-8.25.7-8.45l.15-.15H.8l1.8-.95 1.1-.55.8-.05 1 1.65.6 1.25.1.45M-7.2-.05l.55-.8.45-.25q.4.15.3.35l-.2.2-.35.65-.3.2-.4-.3-.05-.05" transform="translate(7.2 10.15)" id="l" fill="#895209" fill-rule="evenodd"/><path d="m.9-6.5.3.25.4.75-2.2 1.15q-.35.2-.75.35l-.4.15-.7-1.05-.25-.25L.9-6.5m-.8 13h-2.35l.35-.85q.3-1.5 2.85-1.8Q3.4 3.55 2.3 5.5q-.6 1.1-2.2 1" transform="translate(2.7 6.5)" id="m" fill="#b58348" fill-rule="evenodd"/></defs></svg>