<svg xmlns:xlink="http://www.w3.org/1999/xlink" height="65.4" width="80.15" xmlns="http://www.w3.org/2000/svg"><use height="15.6" transform="translate(13.4 32.9)" width="36.2" xlink:href="#a"/><defs><g id="a"><path d="M15 19.65q1.4-.4 2.05 1.2.6 1.65-.65 2.25-3.25 1.75-3.65 5.5-.15 1.5 1.2 4.1.25.5-.3 1-.55.55-1.1.3-3.85-1.45-3.5-6.25.5-6.5 5.95-8.1" fill="#8c6c4f" fill-rule="evenodd" transform="translate(18.2 -19.1)"/><path d="m12.9 29.5.6 2 1 1.25-.5.85h-1.35l-1.75-.75-1.25-2.25 3.25-1.1m4.25-8.75q.3 1.25-.4 2.1l-1.5 1.4-.85.25-.4-2.75 3.15-1" fill="#573c25" fill-rule="evenodd" transform="translate(18.2 -19.1)"/><path d="M8.05 31q-.4-1.05.1-3.55t1.5-4.2q1.25-2.1 2.8-3.05 1.4-.9 2-.25 1.05 1.1-.45 6.3-1.05 3.95-3.2 5.45-2.05 1.4-2.75-.7" fill="#e5a162" fill-rule="evenodd" transform="translate(18.2 -19.1)"/><path d="M14.9 20.45q.3.8.25 2l-.75 2.05-.75 2.75-1.05 3.55q-.95 2.8-1.65 2.7-1.75-.2-2.25-.8l-.3-1.5 2.25.05 1.85-5.75 1.1-4.2q.2-.95-.4-1.55l1.7.7" fill="#ab7849" fill-rule="evenodd" transform="translate(18.2 -19.1)"/><path d="M15.4 19.6q1.1-.1 1.75 1.15 1.1 2.3-1.1 2.95" fill="none" stroke="#292019" stroke-linecap="round" stroke-linejoin="round" transform="translate(18.2 -19.1)"/><path d="M16.5 23.5 14.7 25l-.9 2.5q.1.55-.85 2.35l.05.9q.15.6 1.15 1.6.6 1.25-.25 1.65-1.3.5-2.2-.25l-1.5-.3q-1.05-.05-1.5-.75-1.9-3.2-.2-7.45.7-1.8 2.15-3.65 1.35-1.75 2-1.85 1.4-.15 1.8 0l.55-.1" fill="none" stroke="#292019" stroke-linecap="round" stroke-linejoin="round" transform="translate(18.2 -19.1)"/><path d="M-15.2 19.65q5.45 1.6 5.95 8.1.35 4.8-3.5 6.25-.55.25-1.1-.3-.55-.5-.3-1 1.35-2.6 1.2-4.1-.35-3.75-3.65-5.5-1.2-.6-.6-2.25.6-1.6 2-1.2" fill="#8c6c4f" fill-rule="evenodd" transform="translate(18.2 -19.1)"/><path d="m-13.1 29.5 3.25 1.1-1.25 2.25-1.75.75h-1.35l-.5-.85 1-1.25q.35-.25.6-2m-4.25-8.75 3.15 1-.4 2.75-.85-.25-1.5-1.4q-.7-.85-.4-2.1" fill="#573c25" fill-rule="evenodd" transform="translate(18.2 -19.1)"/><path d="M-8.25 31q-.7 2.1-2.75.7-2.15-1.5-3.2-5.45-1.5-5.2-.45-6.3.6-.65 2.05.25 1.5.95 2.75 3.05 1 1.7 1.5 4.2t.1 3.55" fill="#e5a162" fill-rule="evenodd" transform="translate(18.2 -19.1)"/><path d="M-13.4 19.75q-.6.6-.4 1.55l1.1 4.2 1.85 5.75 2.25-.05q.3.65-.3 1.5-.5.6-2.25.8-.7.1-1.65-2.7-.85-3.05-1.05-3.55l-.75-2.75-.75-2.05q-.05-1.2.25-2l1.7-.7" fill="#ab7849" fill-rule="evenodd" transform="translate(18.2 -19.1)"/><path d="M-15.6 19.6q-1.1-.1-1.75 1.15-1.1 2.3 1.1 2.95" fill="none" stroke="#292019" stroke-linecap="round" stroke-linejoin="round" transform="translate(18.2 -19.1)"/><path d="m-16.7 23.5 1.8 1.5.9 2.5q1 2.25.85 2.35l-.05.9q-.15.6-1.15 1.6l-.2.7q-.1.7.45.95 1.3.5 2.2-.25l1.5-.3q1.1-.05 1.5-.75 1.9-3.2.2-7.45-.7-1.8-2.15-3.65-1.35-1.75-2-1.85-1.4-.15-1.8 0l-.55-.1" fill="none" stroke="#292019" stroke-linecap="round" stroke-linejoin="round" transform="translate(18.2 -19.1)"/></g></defs></svg>