<?xml version="1.0" encoding="UTF-8" standalone="no"?>
<svg xmlns:xlink="http://www.w3.org/1999/xlink" height="65.4px" width="80.15px" xmlns="http://www.w3.org/2000/svg">
  <g transform="matrix(1.0, 0.0, 0.0, 1.0, 31.6, 13.8)">
    <use height="19.7" transform="matrix(1.0, 0.0, 0.0, 1.0, -17.8, 17.75)" width="30.55" xlink:href="#shape0"/>
  </g>
  <defs>
    <g id="shape0" transform="matrix(1.0, 0.0, 0.0, 1.0, 17.8, -17.75)">
      <path d="M0.15 30.65 Q3.5 32.3 12.0 34.95 10.85 37.15 9.9 36.8 2.35 35.3 -3.65 31.95 -9.65 28.65 -16.05 20.35 L-15.85 19.8 Q-3.15 28.95 0.15 30.65" fill="#ff5789" fill-rule="evenodd" stroke="none"/>
      <path d="M-15.85 18.45 Q-14.6 19.05 -12.15 20.8 -9.3 22.85 -8.65 23.95 -7.9 25.25 -9.0 26.55 -10.15 27.9 -11.5 27.15 -12.8 26.45 -14.9 23.65 -16.9 21.0 -17.15 19.95 -17.85 17.65 -15.85 18.45" fill="#c72f5d" fill-rule="evenodd" stroke="none"/>
      <path d="M2.7 35.4 L2.65 34.8 4.35 35.3 6.65 35.65 7.85 33.95 4.15 32.45 5.4 31.55 Q6.9 31.3 8.55 32.55 L10.35 34.15 Q9.4 37.25 6.9 36.95 4.7 37.0 3.65 36.45 2.95 36.05 2.7 35.4" fill="#a61c3d" fill-rule="evenodd" stroke="none"/>
      <path d="M-8.2 25.3 L-7.95 27.2 -9.7 27.3 -12.35 24.7 -11.6 23.3 -8.2 25.3" fill="#ff5789" fill-rule="evenodd" stroke="none"/>
      <path d="M12.25 34.65 L10.35 34.4 Q10.6 33.9 10.0 33.45 7.1 31.55 6.65 31.4 5.85 31.15 4.95 31.65 L4.25 32.15 Q1.1 31.4 -1.75 29.65 L-8.2 25.3 Q-8.25 24.05 -9.6 22.8 -10.9 21.55 -15.4 18.45 -16.75 17.95 -17.15 18.8 -17.6 19.7 -16.5 21.4 -15.5 23.4 -13.85 25.05 L-11.15 27.3 -10.15 27.4 -9.7 27.3 Q-6.9 30.2 -3.65 31.95 -0.4 33.7 2.65 34.8 L2.7 35.45 Q3.05 36.25 4.6 36.7 L8.0 36.95 8.85 36.55 9.9 36.8 Q11.35 36.95 11.65 36.3 L12.25 34.65 Z" fill="none" stroke="#000000" stroke-linecap="round" stroke-linejoin="round" stroke-width="1.0"/>
    </g>
  </defs>
</svg>
