<?xml version="1.0" encoding="UTF-8" standalone="no"?>
<svg xmlns:xlink="http://www.w3.org/1999/xlink" height="65.4px" width="80.15px" xmlns="http://www.w3.org/2000/svg">
  <g transform="matrix(1.0, 0.0, 0.0, 1.0, 31.6, 13.8)">
    <use height="16.3" transform="matrix(1.0, 0.0, 0.0, 1.0, -17.3, 18.8)" width="9.5" xlink:href="#shape0"/>
  </g>
  <defs>
    <g id="shape0" transform="matrix(1.0, 0.0, 0.0, 1.0, 17.3, -18.8)">
      <path d="M-10.55 26.1 L-8.9 24.4 Q-8.55 31.25 -8.9 33.1 -9.25 34.9 -12.75 35.1 L-14.05 32.9 Q-11.4 34.4 -11.05 31.75 L-10.55 26.1" fill="#030001" fill-rule="evenodd" stroke="none"/>
      <path d="M-14.8 19.15 Q-13.7 18.6 -11.35 20.15 -9.0 21.7 -8.4 23.4 -7.35 26.45 -11.05 27.05 -11.95 27.2 -12.3 25.8 -12.85 23.75 -13.15 23.3 -13.65 22.6 -15.0 22.65 L-16.75 22.75 Q-17.05 22.7 -16.45 20.75 -16.1 19.8 -14.8 19.15" fill="#383f94" fill-rule="evenodd" stroke="none"/>
      <path d="M-16.8 23.25 L-16.55 21.6 Q-13.65 20.2 -12.25 21.95 -10.8 23.7 -10.45 25.6 L-10.75 26.4 -11.4 26.3 -12.65 23.4 -13.75 22.9 -16.8 23.25" fill="#1e214f" fill-rule="evenodd" stroke="none"/>
      <path d="M-16.8 23.25 L-16.55 21.6 -15.75 19.85 Q-13.35 18.6 -11.1 20.25 -9.45 21.5 -8.7 23.3 -7.95 25.05 -8.6 25.75 -9.45 26.6 -11.05 27.05 -12.0 26.85 -12.3 25.65 -13.05 23.0 -13.75 22.9 L-16.8 23.25 Z" fill="none" stroke="#24000c" stroke-linecap="round" stroke-linejoin="round" stroke-width="1.0"/>
    </g>
  </defs>
</svg>
