<svg xmlns:xlink="http://www.w3.org/1999/xlink" height="65.4" width="80.15" xmlns="http://www.w3.org/2000/svg"><use height="21.2" transform="translate(13.65 32.05)" width="36.3" xlink:href="#a"/><defs><g id="a"><path d="m7.85 30.55-7.9.4-2.7-.5q2.5-6.9-1-9.4-4.85-3.45-8.25-.6l-.95 1q-1.65 1.75-1.85 2.4-1 2.6 2 3.25 1.95.45 2.4 1.2v.65l-1.8-.2-2.8-.05q-1.8 1.15-1.3 3.9.65 3.25 5.05 4.5 6.7 1.85 12.5 1.85 7.8 0 13.2-2.7 3.6-1.75 3.3-4.65-.25-3.2-2.9-3.45-.8-.1-3.05.95l-3.95 1.45" fill="#ffd138" fill-rule="evenodd" transform="translate(17.95 -18.25)"/><path d="m-1.95 27.95.15.15q1.75-5.2-2-7.5-5.3-3.25-7.25-.8 3.1-.1 5.85 2.5 2.6 2.5 3.25 5.65m7.05 3.3h-.5q-4.85-1.05-7.65-.15v.45q5.85 2.5 13.25-.15 4-1.5 4.75-2.8-1.55-.8-4.9.9-3.7 1.9-4.95 1.75" fill="#fff4d1" fill-rule="evenodd" transform="translate(17.95 -18.25)"/><path d="M-14.3 23.1q-.45.3-.45 1.75.1 1.45 1.95 2.35l1.65.55q1.05.45.5 1.1-.25.3-1.45.8-1.05.45-1.15 1.05-.25 1.5 2.6 3l2.3.5q-1-.25-1.4-1.3-.4-1.1.1-2.1.25-.55 2.2-1 1.8-.4 1.75-1.1-.1-.9-4.1-2.45-2.35-.9-3.55-2.3-.8-.95-.95-.85" fill="#cfa92d" fill-rule="evenodd" transform="translate(17.95 -18.25)"/><path d="M10.95 34.6Q3.6 36.2-1.3 36.1q-7.25-.1-9.1-4.2-.35-.8-.35-2.5-.85-1.4-3.6-.6L-16 29.95l-.3 2.25.4 1.55q1.4 1.85 3.6 2.85 3.65 1.7 9.9 1.9L8.7 38l5.5-1.65q2.75-1.25 2.8-1.5l.85-2.75-.35-.9-.05-.2q-2.6 2.75-6.5 3.6" fill="#cfa92d" fill-rule="evenodd" transform="translate(17.95 -18.25)"/><path d="M-5.25 20.45q-3.65-.9-4.05 2.15-.35 3 2.6 4.15 2.85 1.15 3.65-2.2.8-3.35-2.2-4.1" fill="#8a6b0b" fill-rule="evenodd" transform="translate(17.95 -18.25)"/><path d="M-5.45 21.1q-2.7-.65-3 1.7-.3 2.3 1.9 3.15 2.15.85 2.75-1.75.6-2.55-1.65-3.1" fill="#fff" fill-rule="evenodd" transform="translate(17.95 -18.25)"/><path d="M-5.45 22.55q-1.1-.15-1.4.8-.35.95.8 1.5 1.15.6 1.45-.75.35-1.4-.85-1.55" fill-rule="evenodd" transform="translate(17.95 -18.25)"/><path d="M-6.75 22.5q-.5.25-.05.85.5.55 1 .25.5-.3.05-.85-.4-.5-1-.25" fill="#fff" fill-rule="evenodd" transform="translate(17.95 -18.25)"/><path d="M14.85 28.15q2.65.25 2.9 3.45v.3l.1.2-.1.25-.45 1.5-.3 1-2.4 1.35-.15.05q-5.4 2.7-13.2 2.7-5.4 0-10-1.2l-2.5-.65q-3.45-.95-4.6-3.3l-.05-.05-.05-.15q-.8-1.8-.05-3.55v-.1l.05-.05.95-1.2 1.8-.05 1.55.15 1.25.15v-.65q-.45-.75-2.4-1.2-3-.65-2-3.25.2-.65 1.85-2.4l.95-1 1-.65h-.05q1.95-2.45 7.25.8 3.75 2.3 2 7.5l-.95 2.35 2.7.5 7.9-.4 3.95-1.45q2.25-1.05 3.05-.95Z" fill="none" stroke="#45380f" stroke-linecap="round" stroke-linejoin="round" transform="translate(17.95 -18.25)"/><path d="m-11.5 23.35.15-1.65q.05-1.3-1.2-.6l-1.6 1.75-2.9 1.85q-.5 1.65 2.75 2.4 6.9 1.7 7.3.85.3-.65-.85-1.45-.9-.6-1.55-.75-1.25-.3-1.75-1.25l-.35-1.15" fill="#ff7b00" fill-rule="evenodd" transform="translate(17.95 -18.25)"/><path d="M-12.3 23.45q-2.2 1.05-.95 1.75.8.4.95-.65v-1.1" fill="#854000" fill-rule="evenodd" transform="translate(17.95 -18.25)"/><path d="M9.7 33q.05-.95-2.05-1.2l-2.15-.1 1.55.45q1.5.6 1.45 1.05-.05.75-3.65 1.3l4 1.25q.4.7-1.6 1.35 3-.65 2.85-1.4-.1-.45-1.45-.85l-1.3-.25q2.15.15 2.35-1.6" fill="#9c7600" fill-rule="evenodd" transform="translate(17.95 -18.25)"/><path d="m-6.8 28.25-.45.25-2.5-.05q-7.25-1.2-7.65-2.6-.3-1.1.95-2l1.9-1.05 1.65-1.95" fill="none" stroke="#854000" stroke-linecap="round" stroke-linejoin="round" transform="translate(17.95 -18.25)"/></g></defs></svg>