<svg xmlns:xlink="http://www.w3.org/1999/xlink" height="65.4" width="80.15" xmlns="http://www.w3.org/2000/svg"><use height="8.05" transform="translate(10.35 35.45)" width="42.35" xlink:href="#a"/><defs><g id="a" fill-rule="evenodd"><path d="m20.75 24.1.2.4.15.25H21q.35 1.25-.45 2.75l-1.4 1.8-2.15.4q-1.05-.15-2.15-.75-1.7-1-1.7-2.1l-.05.15-.05-.05q-.45-2.05-.15-3.8l.3-.6.05-.15.05.1q2-1.1 4.6-.8h.15l.05.05.15.15.05.05.05.1 2.4 2.2v-.15m-7.15-1.2-.05.05h-.1l-.05.05-.1.85v1.25l.3 1.15v.05q.55 1.2 1.9 1.85l1.2.4.45.05.45.05 1-.35.2-.15.1-.05.1-.1.95-1 .3-.6.1-.35q.3-1.4-1.45-2.85l-1.55-1.1q-2.05.1-3.75.8m1.35.55-.55.4v.05q1.6.5 3.3-.5l.05-.1-.05-.15v-.05l-.25-.1-.1-.05H17q-1.2.05-2.05.5m-1.15-.2.8-.05q.95-.4 2.15-.5l.45-.1 1.35.75q1.6 1.35.6 3-1.05 1.75-2.2 1.4l.65-.2q-1.45.7-2.6-.85-1.1-1.5-1.2-3.45m4.25.65-1.1.25q-.55.1-1.05.35v.05L15 25v.05q1.85.7 3.8-.65l-.25-.5-.25-.05-.25.05m-1.8 2.2-.55.3v.05q1.65.8 3.15-.75l-.1-.25-.25-.1-.4.1-.1.05-.3.05-.5.15-.95.4m-33.35-3.15h-.4l-.1.05-.25.1v.05l-.05.15.05.1q1.7 1 3.3.5v-.05l-.55-.4-2-.5m-1.35-1 .05-.05.15-.15.05-.05h.15q2.6-.3 4.65.8v-.1l.1.15.3.6q.25 1.75-.2 3.8l-.05.05-.05-.15q0 1.1-1.7 2.1l-2.1.75-2.15-.4-1.45-1.8q-.8-1.5-.45-2.75h-.1l.2-.25.15-.4.05.15q.9-1.2 2.4-2.2v-.1m2.45 2.6v-.05q-.55-.25-1.05-.35l-1.1-.25h-.05l-.25-.05-.25.05q-.3.15-.25.5 1.95 1.35 3.8.65V25l-.85-.45m-.85-1.85 2.1.5.8.05q-.1 1.95-1.2 3.45-1.15 1.55-2.55.85l.65.2q-1.2.35-2.25-1.4-1-1.65.6-3l1.35-.75.5.1m3.1.2q-1.7-.7-3.75-.8l-1.55 1.1q-1.75 1.45-1.45 2.85l.1.35.3.6 1 1 .05.1.1.05.25.15 1 .35.4-.05.5-.05 1.15-.4q1.35-.65 1.9-1.85l.05-.05.25-1.15v-1.25l-.1-.85-.05-.05h-.05l-.1-.05m-2.6 3.2-1-.4-.45-.15-.2-.05-.2-.05-.45-.1-.25.1-.1.25q1.5 1.55 3.15.75v-.05l-.5-.3" fill="#3a3629" transform="translate(21.25 -21.65)"/><path d="M14.95 23.45q.85-.45 2.05-.5-.5 1.15-2.05.5m3.1.45.3.05.25.15v.2l-2.85.45v-.05l.15-.15v-.05q.5-.25 1.05-.35l1.1-.25m-1.8 2.2.95-.4.5-.15.3-.05.1-.05h.15l.25.25q-1.2.95-2.25.4m-31.35-2.65q-1.55.65-2-.5l2 .5m-3.1.45h.05l1.1.25q.5.1 1.05.35v.05l.1.15v.05q-1.3.15-2.85-.45v-.2l.25-.15.3-.05m.4 1.65.45.15 1 .4q-1.1.55-2.3-.4l.25-.25h.2l.2.05.2.05" fill="#fff" transform="translate(21.25 -21.65)"/><path d="M17 22.95h.35l.1.05.25.1v.05l.05.15-.05.1q-1.7 1-3.3.5v-.05l.55-.4q1.55.65 2.05-.5m-1.1 1.6-.15.15v.05l2.85-.45v-.2l-.25-.15-.3-.05.25-.05.25.05.25.5q-1.95 1.35-3.8.65V25l.9-.45m2.2.9.4-.1.25.1.1.25q-1.5 1.55-3.15.75v-.05l.55-.3q1.05.55 2.25-.4l-.25-.25h-.15m-33.2-2 .55.4v.05q-1.6.5-3.3-.5l-.05-.1.05-.15v-.05l.25-.1.1-.05h.4q.45 1.15 2 .5m-.9 1.1.85.45v.05q-1.85.7-3.8-.65-.05-.35.25-.5l.25-.05.25.05-.3.05-.25.15v.2q1.55.6 2.85.45v-.05l-.1-.15m-.35 1.55.5.3v.05q-1.65.8-3.15-.75l.1-.25.25-.1.45.1h-.2l-.25.25q1.2.95 2.3.4" fill="#dfa63c" transform="translate(21.25 -21.65)"/><path d="m13.6 26.3.15.2.05.05v-.05l1.15 1.2.1.05-1.15-2.65-.3-2.15v-.05q1.7-.7 3.75-.8l1.55 1.1q1.75 1.45 1.45 2.85l-.1-.85q-1.05 2.05-2.65 3.45l-.45-.05-.45-.05q.15-.55-.5-.7l-.3-.1q-.3-.05-.45.2l-.05.05.1.15q-1.35-.65-1.9-1.85m.2-3.05q.1 1.95 1.2 3.45 1.15 1.55 2.6.85l-.65.2q1.15.35 2.2-1.4 1-1.65-.6-3l-1.35-.75-.45.1q-1.2.1-2.15.5l-.8.05m-34.3 2.8q-.3-1.4 1.45-2.85l1.55-1.1q2.05.1 3.75.8v.05L-14 25.1l-1.2 2.65.1-.05 1.15-1.2v.05l.05-.05.15-.2q-.55 1.2-1.9 1.85l.1-.15-.05-.05q-.15-.25-.45-.2l-.3.1q-.65.15-.45.7l-.5.05-.4.05q-1.65-1.4-2.7-3.45l-.1.85m3.65-3.35-.5-.1-1.35.75q-1.6 1.35-.6 3 1.05 1.75 2.25 1.4l-.65-.2q1.4.7 2.55-.85 1.1-1.5 1.2-3.45l-.8-.05-2.1-.5" fill="#4f7b63" transform="translate(21.25 -21.65)"/><path d="M13.6 26.3v-.05l-.3-1.15v-1.25l.1-.85.05-.05h.1l.05-.05v.05l.3 2.15 1.15 2.65-.1-.05-1.15-1.2v.05l-.05-.05-.15-.2m6.75-.25-.1.35-.3.6-.95 1-.1.1-.1.05-.2.15-1 .35q1.6-1.4 2.65-3.45l.1.85m-3.65 2.5-1.2-.4-.1-.15.05-.05q.15-.25.45-.2l.3.1q.65.15.5.7m-37.2-2.5.1-.85q1.05 2.05 2.7 3.45l-1-.35-.25-.15-.1-.05-.05-.1-1-1-.3-.6-.1-.35m3.7 2.5q-.2-.55.45-.7l.3-.1q.3-.05.45.2l.05.05-.1.15-1.15.4m3.05-2.25-.15.2-.05.05v-.05l-1.15 1.2-.1.05 1.2-2.65.25-2.15v-.05l.1.05h.05l.05.05.1.85v1.25l-.25 1.15-.05.05" fill="#a2c4b0" transform="translate(21.25 -21.65)"/></g></defs></svg>