<?xml version="1.0" encoding="UTF-8" standalone="no"?>
<svg xmlns:xlink="http://www.w3.org/1999/xlink" height="65.4px" width="80.15px" xmlns="http://www.w3.org/2000/svg">
  <g transform="matrix(1.0, 0.0, 0.0, 1.0, 31.6, 13.8)">
    <use height="11.75" transform="matrix(1.0, 0.0, 0.0, 1.0, -17.0, 27.25)" width="15.2" xlink:href="#shape0"/>
  </g>
  <defs>
    <g id="shape0" transform="matrix(1.0, 0.0, 0.0, 1.0, 17.0, -27.25)">
      <path d="M-6.55 36.35 L-6.7 36.2 -7.6 35.45 -9.8 33.55 -10.1 33.3 -10.15 33.25 -10.4 33.0 -10.5 32.95 -10.6 32.85 -10.65 32.8 -14.1 29.85 -15.1 29.1 -11.0 33.05 -7.25 36.7 -6.0 37.9 -5.75 37.85 -5.6 37.8 -5.5 37.75 -5.25 37.65 -5.1 37.6 -5.25 37.45 -5.5 37.25 -5.6 37.15 -5.75 37.05 -6.55 36.35 M-9.65 31.9 L-10.1 31.6 -13.5 29.4 -13.95 29.05 -14.0 29.1 -14.15 28.95 Q-14.5 28.65 -14.9 28.45 L-14.95 28.4 Q-15.05 28.25 -15.3 28.25 L-15.45 28.3 -15.45 28.25 -15.55 28.25 -15.55 28.4 -10.15 32.4 -10.1 32.45 -6.0 35.45 -4.3 36.75 -4.25 36.75 -4.25 36.7 -3.45 36.45 -3.0 36.25 -3.0 36.15 -3.45 35.85 Q-3.9 35.6 -4.3 35.3 L-4.45 35.25 -4.55 35.15 -4.85 34.95 -4.9 34.9 -5.05 34.85 -5.05 34.8 -5.2 34.7 -5.25 34.7 -5.3 34.7 -5.6 34.5 -5.75 34.4 -7.6 33.2 -9.35 32.05 -9.55 31.95 -9.65 31.9 M-7.3 36.8 L-7.6 36.9 -7.75 36.95 -6.6 38.15 -6.55 38.1 -6.1 38.0 -7.3 36.8 -10.95 33.3 -15.65 28.8 -15.65 28.85 -15.6 28.9 -15.55 28.9 -14.65 29.85 -14.7 29.85 -14.7 29.95 -14.7 30.0 -11.4 33.3 -11.15 33.15 -11.0 33.25 -10.95 33.3 -11.0 33.25 -11.15 33.15 -11.4 33.3 -14.7 30.0 -14.7 29.95 -14.7 29.85 -14.65 29.85 -15.55 28.9 -15.6 28.9 -15.65 28.85 -15.65 28.8 -10.95 33.3 -7.3 36.8 M-11.4 33.3 L-7.85 36.9 -7.8 36.95 -7.75 36.95 -7.8 36.95 -7.85 36.9 -11.4 33.3 M-6.55 36.15 L-6.45 36.25 -6.4 36.3 -6.3 36.35 -5.05 37.45 -4.95 37.5 -4.85 37.4 -4.55 37.15 -4.45 37.05 -4.4 37.05 -4.45 37.0 -6.15 35.75 -10.4 32.6 -12.5 31.05 -10.55 32.75 -10.5 32.75 -6.6 36.1 -6.55 36.15 M-1.8 36.9 L-3.4 37.35 -3.3 37.4 -3.5 37.55 -3.6 37.65 -3.9 38.25 -4.1 38.3 -4.0 38.4 -4.25 38.45 -4.3 38.4 -6.35 38.95 -6.45 39.0 -16.75 28.5 Q-17.05 28.35 -17.0 27.8 L-17.0 27.75 -17.0 27.7 -16.9 27.6 Q-16.8 27.25 -16.3 27.25 L-15.9 27.25 -16.5 27.4 -15.85 27.25 -15.3 27.7 -1.8 36.4 -1.8 36.9 M-14.25 29.55 L-13.75 29.9 -14.3 29.5 -14.25 29.55 M-16.5 27.4 L-16.7 27.45 -16.5 27.4 M-13.75 29.9 L-13.6 30.0 -13.75 29.9 M-13.5 32.95 L-13.45 32.9 -13.45 33.0 -13.5 33.05 -13.5 32.95 M-5.65 38.45 L-5.55 38.4 -5.65 38.4 -5.65 38.45" fill="#63411b" fill-rule="evenodd" stroke="none"/>
      <path d="M-6.55 36.35 L-5.75 37.05 -5.6 37.15 -5.5 37.25 -5.25 37.45 -5.1 37.6 -5.25 37.65 -5.5 37.75 -5.6 37.8 -5.75 37.85 -6.0 37.9 -7.25 36.7 -7.15 36.75 -6.55 36.35 M-11.0 33.05 L-15.1 29.1 -14.1 29.85 -10.65 32.8 -11.0 33.05 M-9.65 31.9 L-10.1 32.35 -10.15 32.4 -15.55 28.4 -15.55 28.25 -15.45 28.25 -15.45 28.3 -15.3 28.25 Q-15.05 28.25 -14.95 28.4 L-14.9 28.45 Q-14.5 28.65 -14.15 28.95 L-14.0 29.1 -13.95 29.05 -13.5 29.4 -10.1 31.6 -9.65 31.9 M-6.0 35.45 L-5.95 35.4 -5.75 35.35 -5.6 35.3 -5.5 35.25 -5.25 35.15 -5.05 35.0 -4.9 34.9 -4.85 34.95 -4.55 35.15 -4.45 35.25 -4.3 35.3 Q-3.9 35.6 -3.45 35.85 L-3.0 36.15 -3.0 36.25 -3.45 36.45 -4.25 36.7 -4.25 36.75 -4.3 36.75 -6.0 35.45 M-5.25 34.7 L-5.3 34.75 -5.3 34.7 -5.25 34.7 M-7.3 36.8 L-6.1 38.0 -6.55 38.1 -6.6 38.15 -7.75 36.95 -7.6 36.9 -7.3 36.8 M-6.55 36.15 L-6.6 36.1 -6.45 35.9 -6.4 35.9 -6.45 36.1 -6.55 36.15 M-10.55 32.75 L-12.5 31.05 -10.4 32.6 -10.55 32.75 M-6.15 35.75 L-4.45 37.0 -4.4 37.05 -4.45 37.05 -4.55 37.15 -4.85 37.4 -4.95 37.5 -5.05 37.45 -6.3 36.35 -6.4 36.3 -6.45 36.25 -6.3 36.1 -6.25 36.15 -6.25 36.2 -6.2 36.05 -6.15 35.75 M-14.25 29.55 L-14.3 29.5 -13.75 29.9 -14.25 29.55" fill="#ba831b" fill-rule="evenodd" stroke="none"/>
      <path d="M-10.65 32.8 L-10.6 32.85 -10.5 32.95 -10.4 33.0 -10.15 33.25 -10.1 33.3 -9.8 33.55 -7.6 35.45 -6.7 36.2 -6.55 36.35 -7.15 36.75 -7.25 36.7 -11.0 33.05 -10.65 32.8 M-10.15 32.4 L-10.1 32.35 -9.65 31.9 -9.55 31.95 -9.35 32.05 -7.6 33.2 -5.75 34.4 -5.6 34.5 -5.3 34.7 -5.3 34.75 -5.25 34.7 -5.2 34.7 -5.05 34.8 -5.05 34.85 -4.9 34.9 -5.05 35.0 -5.25 35.15 -5.5 35.25 -5.6 35.3 -5.75 35.35 -5.95 35.4 -6.0 35.45 -10.1 32.45 -10.15 32.4 M-6.45 36.25 L-6.55 36.15 -6.45 36.1 -6.4 35.9 -6.45 35.9 -6.6 36.1 -10.5 32.75 -10.55 32.75 -10.4 32.6 -6.15 35.75 -6.2 36.05 -6.25 36.2 -6.25 36.15 -6.3 36.1 -6.45 36.25" fill="#e0c269" fill-rule="evenodd" stroke="none"/>
    </g>
  </defs>
</svg>
