<svg xmlns:xlink="http://www.w3.org/1999/xlink" height="65.4" width="80.15" xmlns="http://www.w3.org/2000/svg"><use height="5.6" transform="translate(10.05 39.35)" width="5.6" xlink:href="#a"/><defs><radialGradient cx="0" cy="0" gradientTransform="translate(-19.05 28.2) scale(.0021)" gradientUnits="userSpaceOnUse" id="b" r="819.2" spreadMethod="pad"><stop offset="0" stop-color="#060"/><stop offset=".976" stop-color="#0c0"/></radialGradient><g id="a" fill-rule="evenodd"><path d="M-20.55 26.25v-.05l.15-.1.1-.05.25.2q.45.35-.35.3l-.15-.05-.05-.2v-.05h.05l-.05.05.05-.05m2.95.7-.05-.05q-.65-.8-1.8-.9.05-.15.25-.15l.25-.05.15.05q2.9.55 2 3.2-.1.2-.1-.05-.05-.85-.45-1.65l-.25-.4m-3.3 2.85q-.65-.65-.35-1.95h.05l.1.4q.3 1.2 1.3 2l.05.05q-.75-.15-1.15-.5m2.65-.8h-.4l-.05-.15.2-.2.3.3-.05.05m-1.35-.95q-.65-.6.15-.9 1.1.3.3.95l-.45-.05" fill="#fff" transform="translate(21.55 -25.55)"/><path d="m-20.6 26.3.05.2.15.05-.4.65h.1l1.05-.8v-.05q-.05-.2-.3-.15l-.1.05-.25-.2-.1.05q.45-.35.95-.45l.7-.1 1.45.4.5.45q.8.8.85 1.95l-.05.35q-.1.95-.8 1.65-.8.8-1.95.8-1.2 0-2-.8-.85-.85-.8-2-.05-1.15.8-1.95l.15-.1m3 .65q.35.6.3 1.5-.05 1.1-1.05 1.4-2.35.65-2.6-1.75l-.15.05v.1l-.1-.4h-.05q-.3 1.3.35 1.95.5.7 1.8.9 1.4.15 2.05-1 1.6-2.85-1.35-3.95h-.1l-.3.1-.15-.05-.25.05q-.2 0-.25.15 1.15.1 1.8.9l.05.05" fill="#ca8800" transform="translate(21.55 -25.55)"/><path d="M-20.4 26.55q.8.05.35-.3l.1-.05q.25-.05.3.15v.05l-1.05.8h-.1l.4-.65m-.7 1.7v-.1l.15-.05q.25 2.4 2.6 1.75 1-.3 1.05-1.4.05-.9-.3-1.5l.25.4q.4.8.45 1.65 0 .25.1.05.9-2.65-2-3.2l.3-.1h.1q2.95 1.1 1.35 3.95-.65 1.15-2.05 1-1.3-.2-1.8-.9.4.35 1.15.5l-.05-.05q-1-.8-1.3-2" fill="#ffd34f" transform="translate(21.55 -25.55)"/><path d="m-19.6 28.05.45.05q.8-.65-.3-.95-.8.3-.15.9" fill="url(#b)" transform="translate(21.55 -25.55)"/><path d="m-19.35 29.85.3.05h.1q.6-.05 1.05-.5.45-.5.5-1.15-.05-.7-.5-1.15-.2-.2-.45-.3l-.7-.2q-.7 0-1.15.5-.5.45-.5 1.15l.45 1.15-.45-1.15q0-.7.5-1.15.45-.5 1.15-.5l.7.2q.25.1.45.3.45.45.5 1.15-.05.65-.5 1.15-.45.45-1.05.5h-.1l-.3-.05-.1-.05h-.05l.05.05h.1m1.1-.85q-.75.9-2 .4h.05l.5.35.2.05-.2-.05-.5-.35h-.05q1.25.5 2-.4l.05-.05-.3-.3-.2.2.05.15h.4m-.8-2.4q.85.3 1.1 1.25.15.5-.1.85l-.15.25.15-.25q.25-.35.1-.85-.25-.95-1.1-1.25" fill="#007100" transform="translate(21.55 -25.55)"/><path d="M-19.35 29.85h-.1v-.05l.1.05" fill="#ffd042" transform="translate(21.55 -25.55)"/></g></defs></svg>