<svg xmlns:xlink="http://www.w3.org/1999/xlink" height="65.4" width="80.15" xmlns="http://www.w3.org/2000/svg"><use height="25.55" transform="translate(5.5 15.7)" width="16.95" xlink:href="#a"/><defs><g id="a" fill-rule="evenodd"><path d="M-16.15 3.1q-2.3 1.05-2.1 4.75l-.1.6q-.45-1.05-.35-2l-.4-1.5-.2-.6-.3.45-.05.15h-.1l-.25.5v.05q-.2.6 0 1.3.25.25.25.8l.35.6-.1.1-.45-.5q-.4-.25-.6-.9l-.4-.05q-.4.95.45 1.8l.45.5 1-.2.35.5h-.1l-.45.1-.5.15-.2.05H-20l.05.05v.05l.2.25 1.55 1.65.1-.15.05-.05.5.9.05.05.3.2.2.1h.05v-.05q.05-1-.5-1.7l.05-.05.2-.2v-.05l.1.3.05.05h.05l.15-.05.15.1.15-.3.25-.15.2-.15.8-.65.15-.15.2-.2.35-.15.25-.2-.05-.05q-.15-.15-.25-.15h-.1l-.4.05-1.35.5-.2.25v-.05l-.05-.25h-.1v-.05l-.05-.05.75-1v-.05q.7-.85 1.75-1.45l.15-.05.3-.15.05-.05q.45-.3.3-.65-.9.15-1.7.55-1 .5-1.85 1.35l.5-.65-.1.05-.2.1-.05-.05-.25.55-.15.35-.05.2h-.05l.05-.95 1.5-2.85.3-.3.7-.5q.75-.55 1-1.15l-.8.05-1.4.35m-5.8 6.85v-.1l.05-.15.05-.15.3-.25h.2l.15-.05.5-.1.25.15.1-.05-.35-.1q-.9-.5-.85-2.1.05-.5.55-.6l.5.05q-.15-1.1.6-2.35l.3-.25q.9.4 1.15 1.25Q-18 4-16.85 2.9l.5-.45.55-.3.05-.05.45-.15.15-.05 1.4.15.15.05q-.55 2.2-2.55 4.25l-.55.6.15.2q.8-1 1.9-1.65l.5-.2 1.1.15.05.05q-.45 1.7-1.95 3.1l.35-.15q.7-.15 1.05.5V9l-.7.6.2.1.1.05 2 1.5.1.1.15-.1q.05-.15.25-.15 2.6 2.25 2.25 5.9v.1q-.05.35-.25.25l-.3 1.9Q-8.7 22-11.8 22.8l-.15.15-1.8 1.45-.4.2-.35.15.05.35v.05q0 1.15-1.75 2.15-.4.25-.65-.25l-.55-1.55v-.05h-.1l-.05.25q-.2.85-1.6 1.65-.35.25-.6-.25-.55-1-.55-1.8v-.25l-.15-.05-.15-.1-.4-.15q-1.45-.6-2.6-1.8l-.15-.15q-2.65-.3-2.3-3.25l.2-.65-.2-1.75.05-.75.35-1.75.3-.8.25-.6.9-1.3.6-.7.6-.55.6-.4.35-.3h.1v-.05m1.85 2v.1h.05l.15.2-.2-.3m5.4-1.95-1.4 1.4-.05.05 3.6.1h.15l.1.05q-1.1-1.1-2.3-1.6h-.1m4.15 7.45-.15-.2q-2.35-.35-4.15-1.9l-.8-.6-.45-.2-1.1-.55-.95-.6q-1.75-.8-2.9-2.15l-.1-.15-.3-.4-.05-.15-.4.1v.05q-1.2.4-1.9 1.5l-1.35 2.45q-.7 1.7-.05 3.15l.2 1.25-.05.15q-1.15 2.2 1.1 2.9.05-.15-.05-.3l-.3-.65v-.35l1.25 1.55.15.15.35.3.3.25.35.25 1.35.75.25.1.2.05.05.05q.35-.55 1.1-.95.9.65 1.25 1.3h.4l.05-.1q.2-.95 1.25-1.55l.75.65.4.5.4-.2.35-.15 1.8-1.4 1.55-2.05-.2 1.25h.1q1.55-.95.45-2.2l.35-1.95h-.25l-.25.05m-9.6-4.05.1.15-.2 1.1.1-1.25m-.5 5.05-.05-.2.15-.4-.1.6m1.55 5.65h-.05q-.85 1.45.35 2.25l.05-.05q.15-1.3-.35-2.2m.85.65q-.55.45 0 1.05l.05-.05q.4-.65-.05-1.05v.05m1.9.95.05-.1q.05-.65-.3-1.1-.8.85.25 1.2m.8.45.1-.05q.35-1.35-.35-2.35-.75 1.45.25 2.4" fill="#34241c" transform="translate(26.1 -1.9)"/><path d="M-16.15 3.1q-2.3 1.2-1.75 3.75l.3-.2q.4-2.75 3.15-3.6v-.1q-.15-.15-.3-.2l.8-.05q-.25.6-1 1.15l-.7.5-.3.3-1.5 2.85-.05.95v-.5q-.4.65-.25 1.5.85-1.8 2.95-2.4l.4-.15q-1.05.6-1.75 1.45v.05l-.75 1-.05.05H-17l.15.05h.1l.05.25-.05.05-.35.55-.05.05h.1l1.75-.5-.8.65-.2.15-.25.15-.3.2-.15.05h-.05l-.05-.05-.1-.3v.05l-.2.2h-.1l.05.05q.55.7.5 1.7l-.05.05-.2-.1-.3-.2-.05-.05-.5-.9-.05.05-.1.15-1.55-1.65-.2-.25v-.1l.2-.05.5-.15.45-.1h.1l-.35-.5-1 .2-.45-.5q-.85-.85-.45-1.8l.4.05q.2.65.6.9l.45.5.1-.1-.35-.6q0-.55-.25-.8-.2-.7 0-1.3.05.75.75 1.45V6.9q.35-1.3-.2-2.3l-.15.2.3-.45.2.6.4 1.5q-.1.95.35 2l.1-.6q-.2-3.7 2.1-4.75m-.7 19.1q2.3-.25 4.05-1.9 1.35-1.25 1.8-2.75l.45-.1.25-.05h.25l-.35 1.95q1.1 1.25-.45 2.2h-.1l.2-1.25-1.55 2.05-1.8 1.4-.35.15-.4.2-.4-.5-.75-.65q-1.05.6-1.25 1.55l-.05.1h-.4q-.35-.65-1.25-1.3-.75.4-1.1.95l-.05-.05-.2-.05-.25-.1-1.35-.75-.35-.25-.3-.25-.35-.3-.15-.15-1.25-1.55v.35l.3.65q.1.15.05.3-2.25-.7-1.1-2.9l.05-.15-.2-1.25q-.65-1.45.05-3.15l1.35-2.45q.7-1.1 1.9-1.5l.1-.05.35.05.3.4-.25.15-.25-.05q-.65 0-1.3.65-.9.9-1.3 2.4l-.3 1.8.05.4.05.5.5 1.15.2.15h.05l.15.1h.05l.15.7h-.1l-.2-.05 1.1 1.3q1.7 1.6 4 1.9l.95.5-.15.2.2-.15.15.05-.1-.1.65-.5" fill="#00d988" transform="translate(26.1 -1.9)"/><path d="M-14.75 2.75q.15.05.3.2v.1q-2.75.85-3.15 3.6l-.3.2q-.55-2.55 1.75-3.75l1.4-.35M-19.6 4.8l.15-.2q.55 1 .2 2.3v.05q-.7-.7-.75-1.45v-.05l.25-.5h.1l.05-.15m4.3 5.1-1.75.5-.05-.05.35-.55.05.05V9.8l.2-.25 1.35-.5.4-.05h.1q.1 0 .25.15l.05.05-.25.2-.35.15-.2.2-.15.15m.9-3-.4.15q-2.1.6-2.95 2.4-.15-.85.25-1.5v.55l.05-.05.05-.2.15-.35h.1q.85-.85 1.85-1.35.8-.4 1.7-.55.15.35-.3.65l-.05.05-.3.15-.15.05m-7.55 3.05V10h-.1l.1-.05m9.4 1.6-3.6-.1.05-.05 1.4-1.4q1 .45 1.9 1.3l.25.25m-4.3 10.65q1.6-1.4 1.9-3.25l.05-1.75v-.05l-.05-.6v-.05l-.45-1-.75-.7-.15-.05h-.1l-.1-.05-.1-.05-.5-.1h-.9q-.75.05-1.25.4l-.5.5-.25.5-.1.15-.25.85-.15.55-.05.35-.15.4.05.2q-.05 2.25 2.1 3.75-2.3-.3-4-1.9l-1.1-1.3.2.05h.1l-.15-.7.1.05.15.05q.75.1 1.55-.7l.7-1 .05-.25.2-.55.25-.45v-.05l.05-.1.05-.05.15-.65.2-1.1-.1-.15-.1-.75q-.25-1.15-1.05-1.4h-.1l.25-.15.1.15q1.15 1.35 2.9 2.15l.95.6 1.1.55.45.2.8.6q1.8 1.55 4.15 1.9l.15.2-.45.1q-.45 1.5-1.8 2.75-1.75 1.65-4.05 1.9m-.35-8.2v.05l.2.1-.2-.15m-4.7-3.3v-.05l.4-.1.05.15-.35-.05-.1.05" fill="#82ffd0" transform="translate(26.1 -1.9)"/><path d="M-17.45 11h.05l-.05.05V11m.5-1.55.05-.05.05.05h-.1m-.5-1-.05.05v-.05h.05" fill="#915700" transform="translate(26.1 -1.9)"/><path d="M-17.05 10.4h-.1l.05-.05.05.05m.3-.6.05-.05v.1l-.05-.05m-.3 5.75h.05q1.95 1 .85 1.45l-.85.2-.5-.45q-.2-.85.45-1.2m-4.65-3.3q1.45 1.35-.65 3.1-.35.25-.6-.2-.8-1.4-.15-2.4l.5-.65.4-.25.15.15h.15l.2.25m-1.1 4.15.25-.15.5.2.1.1q-.4 1.05-1.4.4.1-.5.55-.55" fill="#fff" transform="translate(26.1 -1.9)"/><path d="M-19.95 9.75v.05l-.05-.05h.05M-17 12.8l.05-.05v.05H-17m2.3-2.8h.1q1.2.5 2.3 1.6l-.1-.05h-.15l-.25-.25q-.9-.85-1.9-1.3m-4.4 14.1q.5.9.35 2.2l-.05.05q-1.2-.8-.35-2.25h.05m3.55 2.05q-1-.95-.25-2.4.7 1 .35 2.35l-.1.05m-.8-.45q-1.05-.35-.25-1.2.35.45.3 1.1l-.05.1m-1.9-.95v-.05q.45.4.05 1.05l-.05.05q-.55-.6 0-1.05" fill="#ffe064" transform="translate(26.1 -1.9)"/><path d="m-20.1 12 .05.05h-.05V12m2.9 2 .2.15-.2-.1V14" fill="#910003" transform="translate(26.1 -1.9)"/><path d="m-17.45 11.05-.05-.05h.05v.05m.6 0 .3-.2-.15.3-.15-.1m0-1.55-.15-.05h.15v.05M-20.1 12v-.05l.2.3-.15-.2-.05-.05" fill="#fff3c6" transform="translate(26.1 -1.9)"/><path d="m-20.55 17.85.05-.35.15-.55.25-.85.1-.15.25-.5.5-.5q.5-.35 1.25-.4h.9l.5.1.1.05.1.05h.1l.15.05.75.7.45 1v.05l.05.6v.05l-.05 1.75q-.3 1.85-1.9 3.25l-.65.5-.05.05-.05-.05-.95-.5q-2.15-1.5-2.1-3.75l.1-.6m-.85-6.6h.1q.8.25 1.05 1.4l.1.75-.1 1.25-.15.65-.05.05-.05.1v.05l-.25.45-.2.55-.05.25-.7 1q-.8.8-1.55.7l-.15-.05-.1-.05h-.05l-.15-.1h-.05l-.2-.15-.5-1.15-.05-.5-.05-.4.3-1.8q.4-1.5 1.3-2.4.65-.65 1.3-.65l.25.05m5.25 5.75q1.1-.45-.85-1.45h-.05l-1.1-.55q-1.8 1.8-.05 3.5l1 .05q.95-.85 1.05-1.55m-1.55 4.35q1.55-.6.45-1.35h-.1q-.8.45-.45 1.35h.1m-4-9.1-.2-.25h-.15l-.15-.15-.4.25-.5.65q-.65 1 .15 2.4.25.45.6.2 2.1-1.75.65-3.1m-1.1 4.15q-.45.05-.55.55 1 .65 1.4-.4l-.1-.1-.5-.2-.25.15" fill="#152728" transform="translate(26.1 -1.9)"/><path d="m-17.6 22.7.05.05.05-.05.1.1-.15-.05-.2.15.15-.2" fill="#254345" transform="translate(26.1 -1.9)"/><path d="M-17.05 15.55q-.65.35-.45 1.2l.5.45.85-.2q-.1.7-1.05 1.55l-1-.05q-1.75-1.7.05-3.5l1.1.55m-.65 5.8h-.1q-.35-.9.45-1.35h.1q1.1.75-.45 1.35" fill="#99b3b5" transform="translate(26.1 -1.9)"/></g></defs></svg>