<?xml version="1.0" encoding="UTF-8" standalone="no"?>
<svg xmlns:xlink="http://www.w3.org/1999/xlink" height="65.4px" width="80.15px" xmlns="http://www.w3.org/2000/svg">
  <g transform="matrix(1.0, 0.0, 0.0, 1.0, 31.6, 13.8)">
    <use height="23.95" transform="matrix(1.0, 0.0, 0.0, 1.0, 8.6, 11.65)" width="7.85" xlink:href="#shape0"/>
  </g>
  <defs>
    <g id="shape0" transform="matrix(1.0, 0.0, 0.0, 1.0, -8.6, -11.65)">
      <path d="M12.45 29.6 L14.0 29.6 Q14.7 32.1 15.95 32.6 16.45 32.85 16.45 33.65 16.2 35.1 14.95 35.6 L12.95 35.35 Q10.2 33.65 9.7 29.6 L11.25 29.6 Q11.7 32.6 13.75 34.1 L14.45 34.35 14.7 33.65 Q13.2 32.1 12.45 29.6" fill="#190000" fill-rule="evenodd" stroke="none"/>
      <path d="M12.45 14.65 L12.7 12.4 Q12.7 12.15 13.2 11.65 L14.2 11.9 Q16.2 14.4 15.45 16.9 12.95 24.9 14.0 29.6 L12.45 29.6 12.2 26.6 Q12.2 22.4 14.2 16.4 L14.2 15.9 14.0 14.65 14.0 15.15 Q10.45 25.65 11.25 29.6 L9.7 29.6 Q9.2 24.9 12.45 14.65" fill="#3d0000" fill-rule="evenodd" stroke="none"/>
      <path d="M10.45 22.9 Q14.45 21.6 14.45 25.4 14.45 27.1 10.75 27.1 9.95 26.85 8.95 25.4 8.5 24.65 10.45 22.9" fill="#000000" fill-rule="evenodd" stroke="none"/>
      <path d="M13.2 29.6 L10.45 29.6 Q9.95 24.35 13.2 14.9 L13.45 12.4 Q15.45 14.65 14.95 16.65 12.2 24.65 13.2 29.6" fill="#bc0000" fill-rule="evenodd" stroke="none"/>
      <path d="M13.2 29.6 Q14.0 32.6 15.7 33.35 15.2 35.85 13.2 34.6 11.0 33.35 10.45 29.6 L13.2 29.6" fill="#800000" fill-rule="evenodd" stroke="none"/>
      <path d="M13.45 18.6 Q11.45 23.85 12.7 29.6 L11.7 29.6 Q10.75 23.6 12.45 18.1 L14.0 14.4 Q14.7 14.65 14.7 15.35 L13.45 18.6" fill="#ff0000" fill-rule="evenodd" stroke="none"/>
      <path d="M13.2 31.85 L15.2 33.85 14.45 34.35 Q13.2 34.35 12.45 32.1 L11.7 29.6 12.7 29.6 13.2 31.85" fill="#d40000" fill-rule="evenodd" stroke="none"/>
      <path d="M14.0 23.85 Q13.45 23.35 11.45 23.35 9.45 23.15 9.95 26.1 L13.2 26.6 Q14.45 26.6 14.0 23.85 M11.25 21.9 Q14.95 22.15 15.2 22.9 15.45 27.65 13.45 27.65 L8.75 27.1 Q8.5 25.4 8.75 24.1 9.45 21.6 11.25 21.9" fill="#260000" fill-rule="evenodd" stroke="none"/>
      <path d="M14.0 25.65 Q14.2 25.15 14.95 25.4 14.95 26.1 14.2 27.35 13.2 28.15 11.25 27.65 11.25 26.6 12.2 26.6 L13.45 26.35 14.0 25.65" fill="#800000" fill-rule="evenodd" stroke="none"/>
      <path d="M9.2 23.15 Q9.95 21.1 12.7 22.15 L11.95 23.15 Q11.0 22.4 10.45 23.35 9.95 24.1 9.2 23.15" fill="#800000" fill-rule="evenodd" stroke="none"/>
    </g>
  </defs>
</svg>
