<svg xmlns:xlink="http://www.w3.org/1999/xlink" height="65.4" width="80.15" xmlns="http://www.w3.org/2000/svg"><use height="23.95" transform="translate(42.5 35.35)" width="15" xlink:href="#a"/><defs><g id="a" fill-rule="evenodd"><path d="M12.55 23.75q1.25-1.95 3.2-2.15 5.8-.95 9.15 12.9 1 1.3 1 4.6 0 2.1-.6 3.05-1.5 2.5-5.45 3.35l-4.75-.25q-1.05-.75-2.15-3Q11.8 40 11.8 38.8l.05-.2q-.95-3.25-.95-7.3 0-5 1.65-7.55m5.05.25q-.65-.5-1.4-.45-.9.15-1.6 1.15-1 1.6-1 5.1 0 3.05.8 6.15 3.15-2.4 7-2-1.15-7.85-3.8-9.95" fill="#633e21" transform="translate(-10.9 -21.55)"/><path d="M12.4 38.5q-1.3-4.6-.8-9.6.55-6.2 4.1-6.75 3.3-.5 6.15 5.95 1.45 3.25 2.2 6.55.6.5.9 3.05.3 2.8-.45 3.95-1.25 2.15-4.75 2.95-3.2.8-4.4-.05-1-.7-2.15-3.1-1.1-2.35-.8-2.95m.3-10.15q-.25 4.35 1.1 8.75 4.2-3 8.3-2.45-.35-3.2-1.55-6.7-1.9-5.6-4.6-5.2-2.9.4-3.25 5.6" fill="#ccac49" transform="translate(-10.9 -21.55)"/><path d="m14.85 38.85-.65-1.05 1.95-1.5q2.6-1.4 5.8-1.05 3.5.4-.9 2.25-4.55 1.85-6.2 1.35" fill="#a18759" transform="translate(-10.9 -21.55)"/><path d="m19.9 39.1.1 1.65-.55-1.5-1.15.3q1.5 4.35 1.2 4.4l-1.15.15q-.25-.2-1.6-4.2l-1 .05.3 1.75L15 39.95q-.45 0-.6-.3-.15-.3.55-.25 2.1.2 7.9-2.2 2.6-1.3.5.2-1 .8-3.45 1.7" fill="#fee8a3" transform="translate(-10.9 -21.55)"/><path d="M12.65 38.4q-2.1-8.4 0-13.6-.8 2.1-.25 7.15.4 4 1.05 6.35.55 2 2 5.85-1.85-2.75-2.8-5.75" fill="#fee8a3" transform="translate(-10.9 -21.55)"/><path d="M16.15 36.65q-1.3-2.6.55-3.5 1.9-1 3.2 1.6l.2.45q.1 2.65-.45 2.8l-1.8.5q-.9-.35-1.7-1.85" fill="#d8d800" transform="translate(-10.9 -21.55)"/><path d="M14.85 38.65q-1.65-1.65-.4-2.8 1.2-1.1 2.8.5 1 1 .75 2.15l-2.85.4-.3-.25" fill="#e8553a" transform="translate(-10.9 -21.55)"/><path d="M14.65 36.25q.25 0 .2.5-.1.75.75 1.75l-.85-.6-.4-1.4q0-.25.3-.25" fill="#ef8a68" transform="translate(-10.9 -21.55)"/><path d="M16.5 33.95q.65-.3.35.3L17 36.1l-.55-.85.05-1.3" fill="#fff27e" transform="translate(-10.9 -21.55)"/><path d="m24 36.7.2 4.2-.45.85.2-1.4.05-3.65m-1.6-2.3-.6-2.75.1-1.35.2-.3 1.35 4.6-1.05-.2" fill="#998040" transform="translate(-10.9 -21.55)"/><path d="M18.85 34.95q.65-3 2.85-2.55 2.15.55 1.5 3.5l-.15.5-.9.6-2.55 1.05q-1.15-1.15-.75-3.1" fill="#009ad9" transform="translate(-10.9 -21.55)"/><path d="M20.3 33.55q1.05 0 .25.65l-.95 2.4-.2-1.4.9-1.65" fill="#43bbe8" transform="translate(-10.9 -21.55)"/></g></defs></svg>