<svg height="32.756" width="16.309" xmlns:xlink="http://www.w3.org/1999/xlink" xmlns="http://www.w3.org/2000/svg"><g transform="translate(89.07 26.365)" style="display:inline"><use height="20.85" transform="translate(-88.95 -14.9)" width="16.2" xlink:href="#a" style="display:inline"/><use height="19.1" transform="translate(-87.95 -14.2)" width="14.4" xlink:href="#b" style="display:inline"/></g><defs><linearGradient gradientTransform="matrix(-.0028 -.0048 .0075 -.0043 -80.65 -2.15)" gradientUnits="userSpaceOnUse" id="c" spreadMethod="pad" x1="-819.2" x2="819.2"><stop offset="0" stop-color="#db6f02"/><stop offset=".486" stop-color="#fea64e"/><stop offset="1" stop-color="#ffead5"/></linearGradient><linearGradient gradientTransform="matrix(-.0018 0 0 -.0074 -83.65 -7)" gradientUnits="userSpaceOnUse" id="d" spreadMethod="pad" x1="-819.2" x2="819.2"><stop offset="0" stop-color="#db6f02"/><stop offset=".486" stop-color="#fd9935"/><stop offset="1" stop-color="#ffead5"/></linearGradient><linearGradient gradientTransform="matrix(-.0018 0 0 -.0074 -83.65 -8.55)" gradientUnits="userSpaceOnUse" id="e" spreadMethod="pad" x1="-819.2" x2="819.2"><stop offset="0" stop-color="#db6f02"/><stop offset=".486" stop-color="#fd9935"/><stop offset="1" stop-color="#ffead5"/></linearGradient><linearGradient gradientTransform="matrix(-.0018 -.003 .0044 -.0025 -83.3 -9.85)" gradientUnits="userSpaceOnUse" id="f" spreadMethod="pad" x1="-819.2" x2="819.2"><stop offset="0" stop-color="#db6f02"/><stop offset=".486" stop-color="#fd8002"/><stop offset="1" stop-color="#ffead5"/></linearGradient><path d="M-85.85-14.25q1.7-1 3.6-.5h.05q1.5.4 2.45 1.65l.4.6q.85 1.45.55 3.1h1.6q2.1 1.05 3.35 3.25 1.65 2.85.8 6.1-.85 3.2-3.75 4.9-2.9 1.65-6.15.8-3.2-.9-4.9-3.75-1.65-2.9-.8-6.15.45-1.7 1.5-2.95l-.4-.6q-1-1.7-.5-3.55.45-1.85 2.05-2.8l.15-.1" fill="#884100" fill-rule="evenodd" transform="translate(88.95 14.9)" id="a"/><g id="b" fill-rule="evenodd"><path d="M-84.15-8.25q2.5-1.5 5.35-.75 2.8.8 4.25 3.35 1.5 2.5.75 5.35-.8 2.8-3.3 4.25-2.55 1.45-5.4.7-2.8-.75-4.25-3.25-1.5-2.55-.7-5.4.75-2.8 3.3-4.25" fill="url(#c)" transform="translate(87.95 14.2)"/><path d="M-85.15-7.6v-4.45q-.05-.45.4-.75l1.1-.3 1.1.3q.4.3.4.75v4.45h-3" fill="url(#d)" transform="translate(87.95 14.2)"/><path d="M-85.15-7.6h3v4.05q0 .4-.4.75l-1.1.3q-.65 0-1.1-.3-.45-.35-.4-.75V-7.6" fill="url(#e)" transform="translate(87.95 14.2)"/><path d="M-80.75-13.2h.6l1.1 1.3h-.05q1 1.7.55 3.6-.5 1.8-2.1 2.8l-.15.1q-1.7.95-3.6.45-1.55-.4-2.5-1.65l-.35-.55-.5-1.1q-.35-1.2 0-2.5.25-1 .85-1.75l.2-.2.5-.5q-.9.8-1.2 2.1-.4 1.75.55 3.35.9 1.55 2.6 2.1 1.7.5 3.2-.35 1.45-.85 1.85-2.6.4-1.7-.5-3.3-.45-.8-1.05-1.3" fill="#884100" transform="translate(87.95 14.2)"/><path d="m-86.2-13.2.7-.5q1.5-.85 3.2-.3.85.25 1.55.8.6.5 1.05 1.3.9 1.6.5 3.3-.4 1.75-1.85 2.6-1.5.85-3.2.35-1.7-.55-2.6-2.1-.95-1.6-.55-3.35.3-1.3 1.2-2.1" fill="url(#f)" transform="translate(87.95 14.2)"/></g></defs></svg>