<svg xmlns:xlink="http://www.w3.org/1999/xlink" height="92.9" width="100.7" xmlns="http://www.w3.org/2000/svg"><use height="44.8" transform="translate(13.3 29.6)" width="49.75" xlink:href="#a"/><defs><g id="a"><path d="M9.9 6.35Q5.75 1-.5.95-6.75.9-10.6 6.55q-1.95 2.85-2.65 5.65-7.55-4.45-7.55-9.15.05-9.4 6.15-15.4Q-8.8-18.15-.4-18.1q8.55.1 14.25 5.5 6 5.75 5.95 15 0 4.05-7.05 9.25-.8-2.65-2.85-5.3" fill-rule="evenodd" transform="translate(25.35 20.15)"/><path d="M8.9 4.3q1.65 1.45 2.55 2.9-.65-1-2-1.95-3.6-2.6-9.6-2.6-5.1 0-9.1 3-2 1.5-2.95 3 .95-1.95 2.95-3.9Q-5.3.8-.15.8 5 .8 8.9 4.3" fill-rule="evenodd" transform="translate(25.35 20.15)"/><path d="M38.75 33.85q1.05-.6 2.4-.6 2.05 0 3.5 1.45 1.45 1.45 1.45 3.5 0 3.9-3.8 4.85" fill="none" stroke="#000" stroke-linecap="round" stroke-linejoin="round" stroke-width="1.5"/><path d="M42.65 44.05q4.55-1.2 4.55-5.85 0-2.5-1.75-4.25-1.8-1.75-4.3-1.75l-2 .35" fill="none" stroke="#000" stroke-linecap="round" stroke-linejoin="round" stroke-width="1.5"/><path d="M13.45 13.05q1-.5 2.35-.5 2.3 0 3.9 1.6 1.65 1.6 1.65 3.9 0 4.1-3.95 5.3" fill="none" stroke="#f0fbff" stroke-linecap="round" stroke-linejoin="round" transform="translate(25.35 20.15)"/><path d="M19 21.25q.8 0 .8.8t-.8.8q-.8 0-.8-.8t.8-.8M13.75 13l-.2-.7 3.2-.15q-1.55.3-3 .85" fill="#fff" fill-rule="evenodd" transform="translate(25.35 20.15)"/><path d="M20.85 18.4q.7 2.25-1.35 4.2l-1.5.9-.65-.9q2.9-.7 3.5-4.2" fill="#fff" fill-rule="evenodd" transform="translate(25.35 20.15)"/><path d="M16.25 10.3q-.05.75-.7 2l3.05-.3q.6 2.3-1.1 2.15 2.05.45.35 2.65-3.15.85-3.65-.35L14 14q-.7-2.5 2.4-3.85l-.15.15" fill-rule="evenodd" transform="translate(25.35 20.15)"/><path d="M17.95-13.35q2.65 1.6 1.25 4.55l1.5.4q1.6.7 2 2.35.55 2.25-1.3 3.95 2.1.15 1.95 1.7Q23.25.9 21.8 2q1.45-.4 2 .9.5 1.3-1.5 2.1.45.2-.15 1.9-.35.8-1.45 1.4l-1.95.9q1.3 2.2-2.3 3.45-3.6 1.3-3.4-1.35l-3-12.8q-5.7-7.2 2-11.65 3.3-1.85 5.9-.2M-8.6-8.85q-.15 3.75-2.95 7.2l-2.75 12.3q.15 2.6-3.65 1.55t-2.5-3.25q-2.8-1-3.35-2.4V5.2q.1-1.1.55-.95-1.7-.7-1.7-1.75 0-.85.75-1.4l.75-.35q-2.1-.6-1.85-2.35.15-1.1 1.45-1.6l1.3-.3q-2-1.6-.75-3.75 1.25-2.1 3.75-1.55-.65-2.9 1.6-4.5 2.05-1.55 5-.95 4.5 1 4.35 5.4" fill-rule="evenodd" transform="translate(25.35 20.15)"/><path d="M-15.35-6h2q.4-1.1 2.15-1.35 0 .25-1.45 3.35l-1.4 3.15-.8 3.5q-.55 2.65-.95 2.65-.85-2.05-.85-5.65 0-2.2.3-3.2.9-1.55 1-2.45" fill="red" fill-rule="evenodd" transform="translate(25.35 20.15)"/><path d="M7.4-19.5q2.9.9 2.75 4.2 1.55-1.9 2.65-.7 1.05 1.2.45 3.75Q11.8-6.45 7.2-5.8 3-5.25-3.95-7.15q-5.6-1.6-6.65-2.2l-2.7-2.55q-3-3.05.75-5.75 3.8-2.7 6.3.4-.55-.7 1.2-1.75 1.4-.85 2.2-1 3-.65 5.2 1.7 2.3-2 5.05-1.2M-15.4 7.05q-.5 2-1.2 2.95l-.55 4q-4.35.1-3.1-2.15l-1.1.45q-1.05.3-1.6-.4-.45-.55-.3-1.65l.2-.95q-2.15-.75-1.4-3.9.4-1.7 4.15-2.7 4.55-1.3 5.15 1.25.25 1.1-.25 3.1M22.45 8.4q1.1 1.1-.2 2.7-.8.85-2.55.75-.15 1.6-.8 1.95l-2.3.2-.55-4q-.7-.95-1.2-2.95t-.25-3.1q.35-1.5 2.15-1.35l3.3.8q3.85 1.05 4.25 2.5.5 1.75-1.85 2.5" fill-rule="evenodd" transform="translate(25.35 20.15)"/><path d="M16.2 16.3q-2.2 1.9-4.35.2-.95-.75-1.3-1.95-.4-1.35.45-2.2-.85-.05-1.2-.85-.35-.8.1-1.55.7-1.3 3.25-1.3 3.95 0 4.05 5.85l-1 1.8M-1.65 5.65q-2 .45-5.15-.65-.05 1.3-1.1 1.75-.85.4-1.55 0 0 1.95-.5 2.5-.7.8-2.35.65l-1-2.6q-1.8-1.4-1-4.15.45-1.85 3.45-2.95 2.65-1 6.4-.8Q-.1-.35.9 1.7q.4.8-.35 2.15-.85 1.5-2.2 1.8" fill-rule="evenodd" transform="translate(25.35 20.15)"/><path d="M14.6 1.9q2.4 2.75.45 4.9-3.4 3.8-5.45 2.35-.75-.5-.9-1.45-.15-.75.1-1.15-1.05 1.05-2.85 0Q4 5.4 5.65 4 3.9 5.15 2.45 5.05.5 4.9.85 2.15L0-1.35q-.25-3.55 9.45-.2Q12.6-.45 14.6 1.9" fill-rule="evenodd" transform="translate(25.35 20.15)"/><path d="M7.25.25q5.05 1.85 5.8 5.8.45 2.1-.95 4.85-1.25 2.35-3.3 1.95-2.45-.4-1.5-2.3-.1 0-1.3.55L4.7 11q-1.3-.75-1.15-2.05l-3.6.15q-.7-1.5-1.25-2.3l-1.45-1q-.7-.6-1.2-2-.55-1.6-1-2.15L-1.3-1Q3.4-1.15 7.25.25" fill-rule="evenodd" transform="translate(25.35 20.15)"/><path d="M12.3-4.75Q8.15-8.85-.5-8.85q-8.6 0-12.65 4.6-2.05 2.3-2.35 4.6-.05-3.2 1.8-6.4Q-10-12.5-.65-12.5q9.4 0 13.3 5.95Q14.6-3.6 14.7-.65q-.35-2.05-2.4-4.1" fill="red" fill-rule="evenodd" transform="translate(25.35 20.15)"/><path d="M5.25-10.95q-1.1-2.6.75-3.1Q8.3-14.7 8.4-12q.05-1.85 2.8-1.35 2.95.6.85 2.65 3.25 0 3.85 1 1.05 1.7-1.5 2.75 1.2.2 1.85 2.2.7 2.05-.25 2.8-1.3 1-3-.2L10.5-4.4q-2.15 1.15-4.55-.5.1-.45-1.7-3.3-1.4-2.2.75-3l.25.25" fill="#22d1c2" fill-rule="evenodd" transform="translate(25.35 20.15)"/><path d="M6.8-10.05q1.5-.4 1.7.35-.2-.85-.1-1.35 2.35-.4 1.5 1.7 1.3-.6 2.55.2 1.25.75-.65 1.45l1.85 1.55q1 1.3 0 1.85-1.35.8-3.5-2.1-.95 1.9-4.55.25-1.5-.7-.55-1.85 1-1.15 1.55-.7-1.15-.95.2-1.35" fill="#dbfffc" fill-rule="evenodd" transform="translate(25.35 20.15)"/><path d="M-3.55 1.65Q-1.45 1.7 1.2 4L-.4 5.25q-1.75.85-3.45.7-2.15-.2-2.5-2.1-.5-2.3 2.8-2.2m22.9 6.7q1.45 3.2-2.15 5.3.35-.2-.25 2.9-1.15 1.5-2.75.4l-.7-6Q12 5 14.7 4.6q1.25-.15 2.8 1.2 1.25 1.2 1.85 2.55M-19.15 8l2.75-1.5q3.05.7 2.25 5.5-.4 2.45-2.6 1.4-1.55-.7-2.4-2.35-.3-.65-.2-1.5l.2-1.55" fill-rule="evenodd" transform="translate(25.35 20.15)"/><path d="M-10.95-1.5q-1.45.75-1.8 2.4-.4 1.65.7 2.9-.55-.6-2.25 1.65L-16.15 8q-.5-1.25 0-2.7.5-1.55 1.75-2-1.65-.35-1.25-3.15.1-.85.7-1.4l1.1-1q.55-1.75 1.4-2.55.8-.7 2.9-.9-1.2.4-1.8 1.8-.7 1.55.4 2.4" fill="#806d57" fill-rule="evenodd" transform="translate(25.35 20.15)"/><path d="m-17.7 12.65.15-1.15q1.1-3.1 3.35-3.35 1.05-.05 1.7 1.35.5 1.2.45 2.4-.25 3.45-2.8 3-.7-.1-1.5-1-1-1.05-1.35-1.25" fill-rule="evenodd" transform="translate(25.35 20.15)"/><path d="M-18.8-3.05q-.95 2.7.95 4.65-3.25 1-3.15 5.2l.2.85-1.7-4.25Q-23.55.2-20.7.3q-1.15-2.95-.3-5.1.95-2.5 4.3-2.05-1.45-2.3.8-4.55 1.9-1.9 4.6-2.45-3.4 1.7-3.7 8.15-2.85-.1-3.8 2.65" fill="#806d57" fill-rule="evenodd" transform="translate(25.35 20.15)"/><path d="M-12-8.5q2.2-2.55 4.65-2.2l.6-.05q2-.8 3.55-.85-1.45 3.8-3.3 5.85-1.2 1.3-2.6 1.85l-1.45.6q-.75.55-1.75.85l-2.35.45q.4-2.6.95-3.9.85-1.7 1.7-2.6" fill="#a30000" fill-rule="evenodd" transform="translate(25.35 20.15)"/><path d="M-14.9-11.5q2.35-1.95 4-.2 0-2.8 1.35-2.65 1.4.15.85 2.9.65-1.8 2.35-1.7 1.65.15 1.5 1.7-.05.45-1.65 3.5l-.15.3q-1.05 2.25-1.8 2.6-1.5.7-6.25.6-3.25 0-2.5-1.85.75-1.8 3.3-2.25-1.5-.85-1.75-1.2-.5-.7.75-1.75" fill="#ff00a5" fill-rule="evenodd" transform="translate(25.35 20.15)"/><path d="M-10.2-6.5q-.85.4-1.1-.5l-1.55.6q-1.1.3-1.15-.6-.1-1.1 2.2-1.4-.35 0 .15-1.45.45-.75 1.35-.6.95.15.85 1.1.3-.85 1.55-.6 1.2.2.45 1.25l-1.15.45.3.45q-.6.4-.95.2-.2.7-.95 1.1" fill="#ffc9f9" fill-rule="evenodd" transform="translate(25.35 20.15)"/><path d="m1.6-14.7.85.15q.9.25.4 1.65.35-.7 2-.4 1.85.35 2.15 1.6.55 2.15-2.6 1.8.85.25.95 1.1.15.85-.6 1.3l-2 .1-2-1Q.7-7.4-1.55-7q-1.8.25-3.3.05-1.75-.25-1.8-1.2-.05-.9 1.8-.95-3.5 0-3.5-1.3.05-.85 3.5-1.15-1.15-.1-1.45-.9-.3-.85.8-1.3l2.1-.1 1.55.75q.5-1.1 1.25-1.4l2.2-.2" fill="#f80" fill-rule="evenodd" transform="translate(25.35 20.15)"/><path d="M3.25-10.45q.35 1.1-4 1.9-1.3.7-1.9.35-.6-.35-.55-1.1l.25-.55h-.65q-.85-.05-.9-.6-.05-.5 2.2-.7-1.55-.4-.35-1.05 1.15-.65 2.05.55.55-.75 1.5-.55.9.15 0 .95l1.25-.2q.8 0 1.1 1" fill="#fff080" fill-rule="evenodd" transform="translate(25.35 20.15)"/><path d="M15.25-2q.7 2.65-5.05 3-1.75.1-4-.85L2.4-1.6l-6.2-2.5q-4.35-1-7.15 1-.75.55-1.15 1.5L-14.85.65q-1.25-.65-.9-2.3.4-1.6 1.85-1.75-.35-1.15.3-2 .7-.9 1.85-.25-.2-1 .75-1.4.95-.45 1.5.4-1.05-2.3 1.9-3.05 2.55-.65 4.25 1 .85-1.65 3.05-1.75 2.25-.1 2.95 1.7Q3.9-9.85 6-9.45 8.2-9 8-7.1l3.45-.1q1.2.75 1.45 2.8.25.3 1.25.55.65.55 1.1 1.85" fill-rule="evenodd" transform="translate(25.35 20.15)"/><path d="M-15.3-3.15q1.25-1.55 3.15-2.35l9.3-.3q.5 3.4-3.8 7.45L-9.7 4.4q-1.35 1.3-2.3 3.45l-1.2 2.5q-.55.85-1.4.7-1.85-.35-1.95-2.4l-.15-1.2-1.05-1.65q-.6-.95-.5-1.9.15-1.1 2.25-2.65-.35.3.7-4.4" fill-rule="evenodd" transform="translate(25.35 20.15)"/><path d="M-9.5-.55q-2.85-.2-4.05 1.2-.95 1.15-1.15 4.15-.8-1.1-.8-2.15l.2.35q-.25-5.15 3-4.4-.25-1.85 1.5-3.35Q-9.1-6.15-7.2-6q-1.6.05-2.25 2.15-.6 1.85-.05 3.3m21.45-2.2q1.75.9.2 3.7 2.6-.25 3.65 2.5 1 2.75-1.05 4 1.55.2 1.85 3.15.35 2.55-2.7 3.75 1.2-2.75.15-4.4-.85-1.25-2.45-1.5 1.05-.4 1.6-1.65.5-1.3.1-2.4-.7-2.1-3.3-2.2 1.9-3.75-1.2-4.45L9-2.5q1.3-1.1 2.95-.25" fill="#806d57" fill-rule="evenodd" transform="translate(25.35 20.15)"/><path d="M7.95 42.95q-3.5-1-3.5-4.75 0-2.05 1.45-3.5 1.45-1.45 3.5-1.45l2.1.45" fill="none" stroke="#000" stroke-linecap="round" stroke-linejoin="round" stroke-width="1.5"/><path d="M7.75 44q-4.4-1.2-4.4-5.8 0-2.5 1.75-4.25 1.8-1.75 4.3-1.75l2.35.45" fill="none" stroke="#000" stroke-linecap="round" stroke-linejoin="round" stroke-width="1.5"/><path d="M-17.6 23.35q-3.9-1.2-3.9-5.3 0-2.3 1.65-3.9 1.6-1.6 3.9-1.6l2.15.4" fill="none" stroke="#f0fbff" stroke-linecap="round" stroke-linejoin="round" transform="translate(25.35 20.15)"/><path d="M-19.4 13.65q0 .8-.8.8t-.8-.8q0-.8.8-.8t.8.8" fill="#fff" fill-rule="evenodd" transform="translate(25.35 20.15)"/><path d="M-18.1 12.95q0 .75-.75.75-.7 0-.7-.75 0-.7.7-.7.75 0 .75.7" fill="#fff" fill-rule="evenodd" transform="translate(25.35 20.15)"/><path d="M-21.95 18.4q0-2.8 1.9-5.2.7-.85 2.95-1.05h2.1l-2.2.6q-2.35.75-3 1.7-1.05 1.55-1.75 3.95" fill="#fff" fill-rule="evenodd" transform="translate(25.35 20.15)"/></g></defs></svg>