<svg xmlns:xlink="http://www.w3.org/1999/xlink" height="92.9" width="100.7" xmlns="http://www.w3.org/2000/svg"><use height="46.35" transform="translate(20.55 34.3)" width="35.6" xlink:href="#a"/><defs><g id="a"><path d="M11.45 12.05q1.65.95 1.65 1.85 0 1.25-1.25 1.25l-4.05-1.7-2.15-.6-1.35.1-10.05.05-2.75 1.4q-.6.35-.5 1.85.05 1.25-1.25 1.25-1.7 0-1.4-2.15l.15-1.8.4-.5h-.1l-.45.1q-1.1 0-1.25-1.25 0-.75.75-1.2 6.3-3.45 7.6-3.9 1-.35 1 .7.1 3.6 10.05 2.75 3.25-.3 4.35-1.05.9-.7 1.6-.7 1 0 1.15 1.25 0 1.3-2.15 2.3" fill="#2c2833" fill-opacity=".251" fill-rule="evenodd" transform="translate(18.1 15.45)"/><path d="M18.1 1q-1.35.05-1.35 1.75h-.05q-1.35-1.05-2.2-.7-1.45.75-.4 2.25-2.8.15-3.25.85Q10 6.5 12.3 7.75l-.85.6-.85 1.25q.05.9 2.15 1.15l-.55.85q-.45 1 .1 1.6.4.4.7.45l-.9.5-1.95.5q-.75.4-1.3 1.9l-1.1 1.15q-1.6.2-2.1.9l-.1.1q-.5.4-.55.95-.15 1.3-.4 1.7l-.75 1.5-1.2 3.25v2.2l-1.2 4.4-.4 1.75q-.3 2.05 1.3 2.3L3.45 38q2 2.35 5.35 4.45 4.7 2.9 9 2.9 4.35 0 9.05-2.9 3.3-2.1 5.3-4.45L34 35.9q.95-1.5.45-3.2l-.95-2.55q-.6-1.6-.55-2.7 0-2.7-2.65-6.7l-.05-.45q.1-.85-.2-1.5l-.2-.5q-.35-.55-2.6-1.3l-.65-.6q-.4-1.35-1.25-1.8-.9-.55-2-.55l-.7-.4h.05l-.35-.55q.85 0 1.2-.5.5-.75-.35-2.2 1.05-.05 1.35-.65.35-.15.35-.6v-.2q.15-.6-1.25-1.55 1.4-1.05.55-2.35l-2.1-.15q.85-1.7.1-2.15-.7-.45-2.35.35L19.7 3q.2-2.1-1.6-2Z" fill="none" stroke="#000d38" stroke-linecap="round" stroke-linejoin="round" stroke-width="2"/><path d="M26.7 32q-3.6 3.2-8.8 3.2-5.25 0-8.95-3.2-3.2-2.75-2.85-5.05.25-1.65 2.9-1.85 1.85-.15 8.7 0h8.85q2.6.2 2.9 1.85.35 2.3-2.75 5.05Z" fill="none" stroke="#000" stroke-linecap="round" stroke-linejoin="round" stroke-width="2"/><path d="M4.15-8.5q0 1.85-1.25 3.1Q1.6-4.1-.2-4.1q-1.85 0-3.1-1.3-1.3-1.25-1.3-3.1 0-1.8 1.3-3.05 1.25-1.3 3.1-1.3 1.8 0 3.1 1.3Q4.15-10.3 4.15-8.5" fill="#002f92" fill-rule="evenodd" transform="translate(18.1 15.45)"/><path d="m9.4 6.05.9.5q.95.65 1.05 1.35.2 1.2-3.2 2.65Q4.3 12.1-.35 12.1q-4.35 0-8.35-1.15-2.95-.85-3.7-1.55-.35-.3.4-1.15l.85-.8L9.4 6.05" fill-rule="evenodd" transform="translate(18.1 15.45)"/><path d="M10.45 2.95q4.5 5.2 4.4 9.05-.05 1.1.55 2.7l.95 2.55q.5 1.7-.45 3.2l-1.85 2.1q-2 2.35-5.3 4.45-4.7 2.9-9.05 2.9-4.3 0-9-2.9-3.35-2.1-5.35-4.45l-1.65-2.1q-.85-1.5-.35-3.2Q-15.4 12.6-15.4 12q-.1-3.8 4.4-9.05 5.1-5.9 10.7-5.9 5.65 0 10.75 5.9M8.2 16.45q2.65-2.55 2.25-4.95Q10.2 9.85 8 9.65H-.4q-6.6-.15-8.2 0-2.2.2-2.45 1.85-.4 2.35 2.25 4.95 3.15 3.05 8.35 3.05h.35q5.2 0 8.3-3.05" fill="#002f92" fill-rule="evenodd" transform="translate(18.1 15.45)"/><path d="M-3.05-2.95q1.4-.4 2.85.4l-12.5 8.6q-.5-2 .25-2.9.45-.6 1.8-.85l1.2-.15.3-1.2q.4-1.3 1.2-1.75L-6-1.35l1.05.05.45-.65 1.45-1" fill="#00297e" fill-rule="evenodd" transform="translate(18.1 15.45)"/><path d="M-7.45-.05q2.25-1.3 3.8-1.3l2.2.15q.55.7-1.1 1.65l-3.2 1.45q-1.9.75-2.85 1.9L-11 6.45q-.6.9-.25 3 .15.8-.25 2.35-.5 4.7 2.5 7.7l2.25 1.4q1.6.75 2.2 1.4 1.25 1.4-.7 1.35l-2.95-.5q-4.6-1.75-5.8-1.75l-2.45-.3q-.85-.45-.6-2.1l1.45-4.35.15-4 1.2-3.25.75-1.5q.25-.4.4-1.7.15-1 1.95-1.65 2.1-.75 2.45-1.2.55-.95 1.25-1.4" fill="#4c59a9" fill-rule="evenodd" transform="translate(18.1 15.45)"/><path d="m4.25-1.35 3 .5q1.25.75 1.5 2.9l1.2.15q1.35.3 1.8.85.75.9.25 2.9L-.5-2.6l.9-.35 1.95-.1q1.4.45 1.9 1.7" fill="#00297e" fill-rule="evenodd" transform="translate(18.1 15.45)"/><path d="M12.15 12.2q-.2-1.3-1.3-2.65L8.95 7.3Q7.05 4.2 5.35 3l-2.5-1.6Q1.1.05 1.8-.85q1.25-1.6 4.6 1.95 2.25 2.35 3.65 4.65 3.95 6.75 4.4 11.1v2.65q-.2 2.4-4.8 4.95Q5 27 4.8 23.65q-.05-1.55 2.4-3.1Q9.05 19.4 10.85 17q1.7-2.15 1.3-4.8" fill="#001a51" fill-rule="evenodd" transform="translate(18.1 15.45)"/><path d="m10.45 7.2-1.7 1.85Q5.8 10.9-.65 10.9t-9.3-1.45l-1.55-1.5 21.95-.75" fill="#848acb" fill-rule="evenodd" transform="translate(18.1 15.45)"/><path d="M7.8 5.55q2.65.9 2.65 1.65 0 .8-2.05 1.55Q5.45 9.8-.45 9.8q-11.1 0-11.1-2 0-.75 2.6-1.9 3.4-1.5 8.35-1.5 5.05 0 8.4 1.15" fill="#4c59a9" fill-rule="evenodd" transform="translate(18.1 15.45)"/><path d="m5.75 5.95.75-.1q.4.05 2.95 1.5-1.2 1.1-4 1.55l-1.95.45Q2.3 9.6 1.7 9l2.25-1.5q1.45-1.4 1.8-1.55" fill="#002f92" fill-rule="evenodd" transform="translate(18.1 15.45)"/><path d="m7.6-.15.9 1.4 1.65.6q1.2.3 1.6 1 .55.95.75 3.65l1.45 3.35q-1.05-.95-2.4-3.2-1.4-2.4-2.3-3.3l-4-3.9.9-.2h.05q1 0 1.4.6" fill="#4c59a9" fill-rule="evenodd" transform="translate(18.1 15.45)"/><path d="m4.05 25.25 2.9-.75 2.25-.6q0 1.35-4.5 2.75-2.55.85-5.6.85-8 0-9-3.6l.75.75-1.3-1.65q1.5.2 4.4 1.6l5 .9 5.1-.25" fill="#001a51" fill-rule="evenodd" transform="translate(18.1 15.45)"/><path d="M2.55-5.5 4.6-1.8-5-1.85q.45-.15 2.15-3.4t2.5-3.3q1.6 0 2.9 3.05" fill="#002f92" fill-rule="evenodd" transform="translate(18.1 15.45)"/><path d="m2.45-2.75-3.8-8.6.05-1.9q.15-1.15 1.3-1.2 2-.1 1.6 2.15 1.85-.8 2.5-.4.75.45-.1 2.15l2.1.15q.85 1.3-.55 2.35 1.4.95 1.25 1.55-.4 1.4-1.7 1.45.85 1.45.35 2.2l-3 .1" fill="#002f92" fill-rule="evenodd" transform="translate(18.1 15.45)"/><path d="M.1-10.85q.5.25.65 2.5.15 1.55-.1 2.8-.2.8-1 1.55L-1.9-2.6q-.8.95-1.9.9-1.6-.15-2-.55-.55-.6-.1-1.6l.55-.85q-2.1-.25-2.15-1.15l.85-1.25.85-.6q-2.3-1.25-1.45-2.6.45-.7 3.25-.85-1.05-1.5.4-2.25.7-.3 2 .55 1.35.95.8 1.6l.9.4" fill="#002f92" fill-rule="evenodd" transform="translate(18.1 15.45)"/><path d="M-.7-4.85q.35.35-.35 1.1Q-2.9-1.5-3.7-2.55q-.7-.9.9-1.85 1.45-1 2.1-.45m-1.65-7.65q.6.5 1.05.15l.45-1.2q.85-.55.85 1 0 1.65-1.8 1.85l.6 1q-1.55-.1-1.85.45-.4.6 0 .95l.7.65q-1.1 0-1.65 1.05-.3.6-.05.9l.6.75L-5-3.75l-.2-.2q-.25-.45.1-.75-1.2-.6-1.25-1.6-.05-.55 1.25-1.35-1.8-1.25-1.55-2.2.2-.75 1.3-.8h1.75q-.95-2.25.2-2.4.35-.05 1.05.55" fill="#4c59a9" fill-rule="evenodd" transform="translate(18.1 15.45)"/><path d="m3.1-1.95-1.8-.1Q.65-2.25.5-3.4.35-5.2 1-5.35q2.4 2.4 2.35 3.4H3.1m.55-10.5q.5.35.25 1.2l-.45 1.3 1.1-.1q.65-.1 1.05.3.65.6-.35 1.8 1.6.55 1.55 1.65-.05.7-2.2.7 1.25 1.1.75 2.25-.6 1.1-2.45-.3 1.05.05.6-.6-.35-.6-1.1-.95 1.05-1.45.65-2.15Q2.65-8.1.6-8.3q.05-2.25.5-3.05v-.25q.3-.5 1.15-.8l1.4-.05" fill="#001a51" fill-rule="evenodd" transform="translate(18.1 15.45)"/></g></defs></svg>