<svg xmlns:xlink="http://www.w3.org/1999/xlink" height="92.9" width="100.7" xmlns="http://www.w3.org/2000/svg"><use height="19.35" transform="translate(11.35 34.65)" width="54.9" xlink:href="#a"/><defs><g id="a" fill-rule="evenodd"><path d="M8.85-2.85q.2-1.4.7-2.75 1.05-2.65 2.7-2.3 1.3.25 1.4 4.85l.05 1.3q1.65-.3 1.9-1.55-.8-6.25.35-7.85.75-.95 1.4-1l.5.15q.2-.8.7-1.6 1-1.55 2.55-1.5 2.5.05 2 3.95l1.15-1q1.35-.85 2.6 0 1.65 1.1-.35 5.2-.9 2.15-3.15 4.35-1.4 1.35-2.9 2.35l1.4.9q1.25 1.15.5 2.3-.5.8-2.55.8l-2.4-.3-1.4-.6-3.9 1.25-3.85.15-1.8-.65L2.3.85l3.65-.2Q3.15-.6 3.35-3.2 3.5-5.05 4.8-5.9L6.9-6q1.1.85 1.55 2.65l.4.5" transform="translate(27.3 15.1)"/><path d="M18.9-5.8q-.5 6.2-2.25 7.45Q14.6 3.1 12.2 3.4l-4.95.2-2.2-2.45q7.35 0 10.25-2.85.95-.9.55-5.1-.35-3.85 1.1-4.35Q19.4-12 18.9-5.8" fill="#995b1f" transform="translate(27.3 15.1)"/><path d="M19.05-.35q-2.1 2.2-3.8 2.15l-1.1-2.2Q17-2.45 17.5-7.5q.2-2.35 1.4-4.65 1.3-2.65 2.55-2Q23.5-13 21.5-4.2q-.45 1.85-2.45 3.85" fill="#995b1f" transform="translate(27.3 15.1)"/><path d="M20.35-4.4q.85-2.6 2.35-5 1.9-2.85 3.2-2.3 1.3.6.55 3.05-.65 2.15-2.05 3.9Q21.45-1.1 19.05-.6l1.3-3.8M15.3.05q5.1 0 6.45 1.65 1.2 1.5-2.4 1.2-3.65-.3-5.15-1.55l1.1-1.3m-6.05-1.5q1 1.1.7 2.4l-.9.85Q5.95.2 4.75-1.25q-1.6-1.9 0-3.7 1.55-1.75 2.5.6.5 1.25 2 2.9" fill="#995b1f" transform="translate(27.3 15.1)"/><path d="M12.9-2.65q-.55 3.9-2.3 3.6L8.6.5l1.35-4.95q1.1-3.35 2.15-2.8 1.35.7.8 4.6m-7.05 3.9L8.9 3.6l-2.3.35q-1.2-.6-2.05-1.55L2.3.85l3.55.4" fill="#995b1f" transform="translate(27.3 15.1)"/><path d="m15.75-2.5.35-2.6.55-2 .2-2.25q.1-1.2.45-1.55l.65-.2q.4.05.3.55l-.65 3.5q-.4 1.75-1.85 4.55m3 2.55L19 0q1.3.15 2.45 1.5l-2.05-.25h-2.2l1.55-1.2m.15-4.35.65-2.45q.45-2.1.45-5.1 0-2.1.75-2.25 1.15-.15 1.15 1.65v2.8l-.15 1.25-1 1.4L19-4.55l-.1.25" fill="#693e15" transform="translate(27.3 15.1)"/><path d="M22.05-3.9q.95-.9 1.55-2.6.75-1.85.75-2.85 0-1.5.7-1.95 1.25-.9 1.45.65.4 2.35-2.1 5.85l-3.95 3.45-.95.75L18.1.65l-.6.4-.4.1-1-.25 2.45-1.8 2.1-1.9 1.4-1.1" fill="#693e15" transform="translate(27.3 15.1)"/><path d="m12.15 3.5-2.6.1-1.85.25-1.2.25-.35-.65-.5-.4 1.55-.3 1.55-.4 3.35-.65 3.4-.75L16.95.5q1.4-.25.8.45l.05.2q-.65-.05-.05 1.4L15.6 2.3l-1.55.7-1.9.5M13-3.75q0 2.5-.2 2.85Q12.2.35 11 .7L9.8 1l1.3-1.6q.45-.85.45-2.15l.05-4.1q1.4-.2 1.4 3.1m-3.9 2.4L8.6 0Q5.85-2.25 6-5.15q0-.7.85.15l.2.75q.25 1.05 1.4 2.1l.65.8" fill="#693e15" transform="translate(27.3 15.1)"/><path d="M-23.05-2.6q-2.1-2.05-3.2-4.35-1.9-4.15-.35-5.2 1.3-.85 2.65 0l1.15 1 .05-1.95q.35-1.95 1.95-2 2.5-.1 3.25 3.1l.5-.15q.65.05 1.35 1 1.2 1.6.4 7.85.2 1.25 1.9 1.55l.05-1.3q.1-4.6 1.35-4.85 2.7-.55 3.45 5.05l.4-.5Q-7.7-5.15-6.6-6l2.1.1q1.25.85 1.45 2.7.2 2.6-2.6 3.85l3.6.2-4.1 2.75-1.8.65-3.85-.15-3.9-1.25-1.4.6-2.4.3q-2.05 0-2.55-.8-.75-1.15.5-2.3l1.4-.9q-1.55-1-2.9-2.35" transform="translate(27.3 15.1)"/><path d="M-18.6-5.8q-.5-6.2 1.95-5.35 1.45.5 1.1 4.35-.4 4.15.55 5.1 2.9 2.85 10.25 2.85L-7 3.6l-4.9-.2q-2.4-.3-4.45-1.75Q-18.1.4-18.6-5.8" fill="#995b1f" transform="translate(27.3 15.1)"/><path d="M-16.6-11.2q1.25 0 1.05 3.2l-.4 3.8q0 .5 1.3 3 .35.65.25 2.3L-16 .35q-1.55-.55-2.05-1L-17-11.1h.4v-.1" fill="#693e15" transform="translate(27.3 15.1)"/><path d="M-18.8-.35q-2-2.05-2.4-3.85-2-8.8.05-9.95 1.25-.65 2.55 2 1.2 2.3 1.4 4.65.5 5.05 3.35 7.1l-1.1 2.2q-1.7.05-3.85-2.15" fill="#995b1f" transform="translate(27.3 15.1)"/><path d="m-20.1-4.4 1.35 3.8q-2.3-.45-5.4-4.15-1.35-1.8-2-3.9-.75-2.45.55-3.05 1.3-.55 3.2 2.3 1.55 2.4 2.3 5M-15 .05l1.1 1.3Q-15.4 2.6-19 2.9q-3.65.3-2.45-1.2Q-20.1.05-15 .05m6.05-1.5q1.5-1.65 2-2.9.95-2.35 2.5-.6 1.55 1.8-.05 3.7Q-5.65.2-8.75 1.8l-.9-.85q-.3-1.3.7-2.4" fill="#995b1f" transform="translate(27.3 15.1)"/><path d="M-12.65-2.65q-.55-3.9.8-4.6 1.05-.55 2.15 2.8L-8.3.5l-2 .45q-1.75.3-2.35-3.6m7.05 3.9 3.55-.4-2.2 1.55-2.05 1.55-2.3-.35 3-2.35" fill="#995b1f" transform="translate(27.3 15.1)"/><path d="m-7.8 3.75-1.45-.15-2.6-.1-1.9-.5q-1.05-.6-1.6-.7l-2.1.25q.6-1.45-.1-1.4l.1-.2q-.6-.7.8-.45l1.45.45 3.35.75 3.35.65 1.55.4 2.15.15Q-6.1 4-6.55 4.05l-1.25-.3m2.3-8.9 1.25 1.25q.45.9.2 1.7l-.75 1.1L-6.05 0-7.4.85-8.95.9q-.1-.5 1-1.25l1.45-1.1q.8-1.3.85-1.95l.15-1.75M-11-.6l.45-1.8q-.05-4.15-.25-4.2.7.1 1.15 2 .75 1.15.75 2.4-.05.7-1.15 1.5-.7.55-.9.25L-11-.6" fill="#693e15" transform="translate(27.3 15.1)"/><path d="M-22.1-5.55q1.25 1.65 4.45 4.25 3.6 2.95 6.25 3.05l.95.55-3.4-.25Q-17 1.35-18.5 0q-2.7-1.55-3.75-2.6-2.45-2.35-3.7-5.15-.4-.9-.3-2.6 1.3.4 2.4 2.05l1.75 2.75" fill="#693e15" transform="translate(27.3 15.1)"/><path d="m-19.25-13.25.75 1.2q.45 1.55.45 3.45 0 1.35 1.35 4.7.6 1.5 1.3 2.1l-1.15-.45-3-1.85q-.65-1.95-.65-3.1v-3.45l.05-3.25q.2-.4.9.65" fill="#693e15" transform="translate(27.3 15.1)"/><path d="M-13.55-.65q-3.6-1.75-5.25-3-1.05-.8-2.25-2.95l-1-2.05 3.65 4.45 4.85 3.55m-1.4 3.45q-1.55-1.05-2.45-1.55l-1.05-1.2 5.3 3.05 1.3.4-3.1-.7m30.65-.3-1.65.5 3-2.1 3.4-2-1.7 1.7-3.05 1.9" fill="#432709" transform="translate(27.3 15.1)"/></g></defs></svg>