<svg xmlns:xlink="http://www.w3.org/1999/xlink" height="92.9" width="100.7" xmlns="http://www.w3.org/2000/svg"><use height="32" transform="translate(16.4 33.1)" width="43.1" xlink:href="#a"/><defs><g id="a" fill-rule="evenodd"><path d="m-16.8 15.35-3.35-.45q-.85-.3-1.55-1.55l-.55-1.15 1.7-.25q1.55-.25 1.15-.45-.7-.25-1.3-1.3l-.2-1.85.95.05 1.8-.35.2-.05 5.05.7q.5.45-.1 2.3l-2 4.1-1.8.25" fill="#090000" transform="translate(22.25 16.65)"/><path d="M14.6-14.45q.75.55.6 2.45l1.75 3.1q.7 3.65-.35 5.3-.75 1.2-3.7 3.6L6-3.6l-3.3-4V-8q1-3.5 1.75-4.35l1.85-.95q.3-.8 1-1.6 1.45-1.6 3.65-1.75l.85 2.6.9-.55 1.9.15" fill="#731b13" transform="translate(22.25 16.65)"/><path d="M14.15-14.05q1.25 1.05-.4 3.2l.65-.15q.7.1.95.5Q18.5-6.4 14.5-2q-3.3 3.6-8.6 5.25-.25-1.2.45-4.4L5.55.2Q3.65-4.85 3.6-7.35 3.55-8.8 4.65-11.2q1.2-2.55 1.8-.1.3-2.2 1.1-3.05.75-.9 3-1.6 1 1.8.45 3.25 1.95-2.45 3.15-1.35" fill="#ff3d2b" transform="translate(22.25 16.65)"/><path d="m1.6 3.9 4.75-.2q1.6 0 3.2 2l2.7 3.45 1.15 3.55-2.1-2.55-2.1-1.7-.05 2.2L8.1 13.3q-.55-1.85-1.4-2.9L4 7.8l.35 1.75q0 .65-.8 2.9-1-2.8-2.15-4.25L-.85 6.45 1.6 3.9" transform="translate(22.25 16.65)"/><path d="M-1.65 3.8.8 6.4l-2.25 1.75q-1.15 1.4-2.2 4.25l-.75-2.9.35-1.75-2.7 2.55q-.85 1.1-1.4 2.95l-1.05-2.7-.05-2.15-2.1 1.65-2.1 2.6 1.15-3.6 2.7-3.4q1.6-2 3.2-2l4.75.15m12.5-6.4q1.2-.3 3.4.65 2.5 1.05 3.3 2.8.35.8 2.3 2.6 1.55 1.75.65 3.3-1.15 1.95-7.9 2.55L8.45 5.05l2.4-7.65" transform="translate(22.25 16.65)"/><path d="m.85-2.3 9.55-.35Q12.65-3.1 15.75.2q3 3.2 2.5 4.35-.6 1.3-6.9 3.2-2.55-2.5-4.8-2.45l-6.5.55-6.85-.6q-2.6-.05-5.1 2.5-6.15-1.9-6.75-3.2-.5-1.2 2-4.35 2.7-3.3 5.05-2.85l10.8.35H.85" transform="translate(22.25 16.65)"/><path d="M-14.9 7.9q1.35.3 1.75 1.25l-.4.8q.05.85-1.25 1.35-1.15.45-2.05.35-1.15-.1-2.3-.85-1.4-.9-1.3-2l1.75-.1q.6-.1 1.5-.6l2.3-.2" fill="#ca3221" transform="translate(22.25 16.65)"/><path d="m-12.1-2.6 3 7.65-3.6 4.25q-7-.6-8.1-2.55-.9-1.55.6-3.3 1.9-1.8 2.25-2.6.8-1.8 2.85-2.8 1.8-.9 3-.65" transform="translate(22.25 16.65)"/><path d="M1.55-9.2Q.9-13.3 2.7-12.65 13.1-8.85 17.55.95q-12.75 3-15.85 3h-3.35l-9.3-1.5-7-1.5q4.15-9.4 15.7-13.6 1.8-.65 1 3.45-.9 4.45 1.3 4.45t1.5-4.45" transform="translate(22.25 16.65)"/><path d="m-8.3 10.6-6.5 3.55 1.9-2.65q2.05-2.7 2.65-2.85.65-.15 1.35.9l.6 1.05" fill="#090000" transform="translate(22.25 16.65)"/><path d="m-15.2 9.9.95 1.1.4 1.3q.2.5-.35.95-1.2 1.1-2.75 1.2-4.1.3-4.45-1.85 1.8.15 3-.7l1.1-1.05q1.15-.95 2.1-.95" fill="#ca3221" transform="translate(22.25 16.65)"/><path d="M-12.15 9.35v.15L-15 14.1q-2.3-2.2-1.05-3.75.8-1 2.4-1.1l1.5.1" fill="#ca3221" transform="translate(22.25 16.65)"/><path d="m-13.8 13.65-1.45 1.1.45-2.25 2-5.25 2.4 1-3.25 5.25-.15.15" fill="#090000" transform="translate(22.25 16.65)"/><path d="m.1 4.7 5.45-.3q3-.4 4.45 1.05 1.2 1.2 2.5 3.85L11 7.45Q9.5 5.85 6.75 5.5L0 5.9q-4.55.95-10.25 4.7l-4.8 3.55 4.8-8.7Q-8.75 4-5.75 4.4l5.45.3h.4" fill="#ca3221" transform="translate(22.25 16.65)"/><path d="M-2.8-10.25v-.35l-2.15.85q-2.2.9-3.6 2-4.55 3.55-5.9 5.2l-3 4.65q-1.95 1.15-3.35 3.4l1.05-1.85 2.1-2.2L-14.2-4q2.1-3 6.3-5.4 3.85-2.25 5.6-2.25.8 0 .25 1.55-2 5.6 1.85 5.6 3.8 0 0 .65-1.25.15-2.25-.85-.95-.95-1-2.4-.05-1.25.65-3.15" fill="#eeaf36" transform="translate(22.25 16.65)"/><path d="M2.05-10.1q-.55-1.55.25-1.55 1.85 0 5.55 2.25Q11.9-7.15 14.2-4q2.85 4.15 3.4 5.45l2.15 2.2L20.8 5.5q-1.45-2.25-3.35-3.4l-3-4.65q-1.35-1.65-5.9-5.2-1.4-1.1-3.7-2.1l-2.2-.85.1.4q.75 2 .7 3.2Q3.3-5.65 2.2-4.55q-1 1-2 .7l-1.45-.3Q-2.2-4.5.2-4.5q3.85 0 1.85-5.6" fill="#eeaf36" transform="translate(22.25 16.65)"/><path d="m-12.45-4.65-.85.8-.5-.45.6-.75.5-.1.25.5" fill="#ffda8b" transform="translate(22.25 16.65)"/><path d="m-13.15-5.2 2.85-2.6.9.7-2.35 1.95q-.9.9-.7.5l-.7-.55m10.4-3.15-.05 1.5.5 1.45h-.45l-.65-.95-.1-1.3.75-.7" fill="#fff" transform="translate(22.25 16.65)"/><path d="m-10.45-7.6 1.2-.9.5-.3.6.7-1.4 1.2-.9-.7" fill="#ffda8b" transform="translate(22.25 16.65)"/><path d="M-7.5-3.9q1.7 2.25.45 3.5-1.35 1.25-3-1-1.75-2.25-.45-3.45 1.35-1.25 3 .95" fill="#fff" transform="translate(22.25 16.65)"/><path d="M-5.85-.7-6.4.55-7.6 1l-.85-1.5L-7-1.9l1.15 1.2" fill="#fff" transform="translate(22.25 16.65)"/><path d="M-8.1-3.8q.5.6.1.9-.3.3-.8-.25-.5-.6-.1-.9.35-.35.8.25m-1.15 1.1q.45.65.1.9-.35.35-.8-.25-.5-.6-.1-.9.3-.3.8.25m1.7 1.2L-8-1l-.4-1.2.85.7" transform="translate(22.25 16.65)"/><path d="m-11.35-2.9-.7-.15q.1 1.1-.6.8Q-13.55-5-13.1-5q.4 0 .8 1l.85.2.1.9m3.2 3.8-.25.55.4 1.25q-.35.35-1.95-1.9l.85.05.35-.6.6.65m1.95-3.2.65.1.05-.45q.1-.45.45-.3.45.2.65 1.35.15 1.15-.15 1.2l-.8-.95-.75-.15-.1-.8m-2.05-3.1L-8-6q-.8-.95-.4-1.35 2.25 1.6 2.15 2.05l-.95-.05-.35.7-.7-.75" fill="#fff" transform="translate(22.25 16.65)"/><path d="m10.25-8.55 1.35 3.5-.65.55q-2.45-.55-2-2.5l1.3-1.55" fill="#731b13" transform="translate(22.25 16.65)"/><path d="M9.7-6.35q0-1 .4-1.5.9-1.2 1.35-.6l.6 1.25 1.6 1.65q2.2 2.45 1.7 4.4l-.25.8-.05 1q-.35 1.3-1.6.8-1.2-.5-1.2-3.1 0-.9-.75-1-1.2-.1-1.5-.7-.3-.65.5-2-.75.1-.8-1" fill="#ff3d2b" transform="translate(22.25 16.65)"/><path d="m12.3-3 .65-.55q1.3 1.4 1.4 3.15.1 1.3-1.05 1.8-.85.4-1.45-.55-.6-.95.3-1.4-1.3.1-1.05-1.05.3-1.2 1.2-1.4" fill="#ff3d2b" transform="translate(22.25 16.65)"/><path d="M14.85-6.6q.95.25.95 1.75l-.45 1.4q.5.2.35 1.35-.15.8-1.1 1.15-.8.3-1.3-.8-.9-2.15.25-2.75l1.3-2.1" fill="#ff3d2b" transform="translate(22.25 16.65)"/><path d="m17.5-2.5.6.7q.5.85.25 1.55Q18 .95 14.8.95l.3-3.35 1.7-4.75.7 1.5-.15.85.65 1.4q-.05.55-.5.9" fill="#731b13" transform="translate(22.25 16.65)"/><path d="M15.6-6.65q.4-.35.7 0 .55.65.4 1.35-.15.65-.65.75 1.1-.15 1.05 1.05-.05 1.2-.85 1.3.65-.05 1.05.45t.2 1.15q-.3 1.05-2.45.95-.55 0-.75.5l-.65.7-.9-.1q-.4-.3-.3-.8l2.3-6.9.85-.4" fill="#ff3d2b" transform="translate(22.25 16.65)"/><path d="M12.5.2 15-.6l.35.6q0 1.2-.7 1.6l-1.7-.05Q11.85 1 12.5.2" fill="#ff3d2b" transform="translate(22.25 16.65)"/><path d="m15.75-9.65.1 1.25q.95 1.45.35 1.95.35.3-.35 2.1.65.3.75.95.15 1-.5 1.05 1 .7 1 1.6 0 .95-1.3 1L14.75.3q-.25.2-.35.8l-1.8.05v-1.3q0-.75-.6-.95.45.05.9-.45.5-.5.45-.95-.05-.7-1.3-1.6.95-.05 1.05-2.05l.9-.1q-.3-.9-.3-1.4 1.4 0 2.05-2" fill="#e43826" transform="translate(22.25 16.65)"/><path d="m16-8.3.3.95q0 .6-.45.8.4.85-.55 1.8.9.05 1.1 1.1.25 1-.6 1.2 1.05.4.9 1.55-.15 1.15-1.35.55L14.4.6q-.9.4-1.15-.35.85.1 1-.25v-1.2q1.4.15 0-1.45 1.05-.05.85-.9l-1.2-1.3 1-.95q.25-.5-.25-1.25l1.15-1.3.2.05" fill="#c73221" transform="translate(22.25 16.65)"/><path d="M-14.5 12.35q-.25 1.35-1.4 1.8-1.6.65-3.4.05l-1.9-1.25 2.95.15 2.75-1.85q.75-.05 1 1.1" fill="#a3271b" transform="translate(22.25 16.65)"/><path d="m-17.8 8.4 4.05.85-1 2.75-.7.25h-1.6l.65-1.4q0-1.15-.55-1.25l-2.35-.85 1.5-.35" fill="#a3271b" transform="translate(22.25 16.65)"/><path d="m-16.8 9.75 2.25 1.65-.1.25-2.9-.3-.1-.5.85-1.1" fill="#ca3221" transform="translate(22.25 16.65)"/><path d="M3.85 4.65-6.4 5.85q-1.55.4-4.3 2.4l-2.45 1.9L-12 7.9q1.3-2.35 2.25-2.9 1.4-.85 4.75-.6l7.45.25h1.4" fill="#a3271b" transform="translate(22.25 16.65)"/><path d="m3.6 4.65 4.6-.25q2 .25 2.8 2.45-1.15-1.1-2.4-1.6l-5-.6" fill="#a3271b" transform="translate(22.25 16.65)"/><path d="M7.5-14.5q.95-1.05 2.75-.9l-1.3 1.85L7.8-12q1.35-.15.45.75l-1 .05q-.45-.4-.5-1.05-.1-1.4.75-2.25m1.85 3.85q.75-1.45 1.35-2 1.15-1.05 2.55-1.4-2.8 3.5-3.9 3.45v-.05" fill="#ff9b7a" transform="translate(22.25 16.65)"/></g></defs></svg>