<svg xmlns:xlink="http://www.w3.org/1999/xlink" height="92.9" width="100.7" xmlns="http://www.w3.org/2000/svg"><use height="27.1" transform="translate(16.75 40.85)" width="42.85" xlink:href="#a"/><defs><g id="a"><path d="M1.45-7.25 4.6-8.4 2.25-5.45Q.6-2.9 1.45-.6q1-2.5 3.25-3.4 2.95-1.1 3.65-1.9Q8.5-2.3 4.8-.35q3.55.2 6.35 1.65 3.45 1.85 6.15 2.4-3.25 1.95-7.15.95 3 1.55 5.85 5.8 2.65 4 4.45 4.7-7.55-.55-12.4-7.2.75 3.2-.05 6.9-.8-4.3-3.2-8.05L2.6 3.85q0 1.5-1.1 3-1.25 1.7-3.4 2.2.65-1.75.5-3.65l-.3-1.6q-6 4.4-8.7 13.45-.3-3.2.45-6l.75-2.15q-5.65 6.45-12.2 8.6 1.4-1.05 4.75-5.7 3.25-4.5 4.35-5.2-3-.2-4.3-2.5 2.6.2 6.9-1.45-2.2-.2-3.75-1.45l-1.1-1.2L-9.4.05l5.85.45q-2.8-1.9-3.55-3.45-.35-.8-.35-2.7 1 1.7 2.65 2.25 2 .75 4.1 3.15-.8-4.85 2.15-7" fill="#ef3b28" fill-rule="evenodd" transform="translate(21.9 8.9)"/><path d="m13.35 4.85-3.2-.2q3.1 1.6 6.2 6.4Q8.2 8.5 5.1 2.1v3q-1.35-2.65-4-4 0 3.6-.75 4.35 0-1-1.1-2.15Q-1.9 2.1-1.9 1.1q-6.35 7.5-13.6 9.3 2.1-2.9 3.2-3.6l-.65-.05q2.8-.65 5.9-2.8L-1.9.1l1 1.15Q-.55 1.4.1.1q3 0 4 2v-2q3.65 2.75 9.25 4.75" fill="#ff8132" fill-rule="evenodd" transform="translate(21.9 8.9)"/><path d="M1.45-7.25Q-1.5-5.1-.7-.25q-2.1-2.4-4.1-3.15-1.65-.55-2.65-2.25 0 1.9.35 2.7Q-6.35-1.4-3.55.5L-9.4.05l-5.15.15 1.1 1.2q1.55 1.25 3.75 1.45Q-14 4.5-16.6 4.3q1.3 2.3 4.3 2.5-1.1.7-4.35 5.2-3.35 4.65-4.75 5.7 6.55-2.15 12.2-8.6l-.75 2.15q-.75 2.8-.45 6Q-7.7 8.2-1.7 3.8l.3 1.6q.15 1.9-.5 3.65 2.15-.5 3.4-2.2 1.1-1.5 1.1-3L4.8 6.8q2.4 3.75 3.2 8.05.8-3.7.05-6.9 4.85 6.65 12.4 7.2-1.8-.7-4.45-4.7-2.85-4.25-5.85-5.8 3.9 1 7.15-.95-2.7-.55-6.15-2.4Q8.35-.15 4.8-.35 8.5-2.3 8.35-5.9q-.7.8-3.65 1.9-2.25.9-3.25 3.4-.85-2.3.8-4.85L4.6-8.4 1.45-7.25Z" fill="none" stroke="#a1281b" stroke-linecap="round" stroke-linejoin="round" transform="translate(21.9 8.9)"/><path d="M-2.85 3.25q-.8.6-1.05-.75-1.05 3.15-1.8 2.35l-1-1.6-3.05 3.1q-.35.15.15-1.15l1.2-2.45q-1 3.05 1.85-.3Q-6 4.7-4.1 1.8q1.1 1.45 2-.3.05 1.2-.75 1.75m10.2-.65q.75 1.15 1.2 2.45.45 1.3.1 1.2-.45-.2-3-3.15.95 2-.05 1.75-.8-.15-1.9-1.25-1.05-1-1.25-1.6-.3 1.35-1.15 1-.9-.4-.85-1.55.85 1.6 2-.15Q3 2.15 4 2.7q1.2.7 1.45-.4 2.9 3.35 1.9.3" fill="#fffddb" fill-rule="evenodd" transform="translate(21.9 8.9)"/></g></defs></svg>