<svg xmlns:xlink="http://www.w3.org/1999/xlink" height="92.9" width="100.7" xmlns="http://www.w3.org/2000/svg"><use height="24" transform="translate(16.5 47.15)" width="43.95" xlink:href="#a"/><defs><g id="a"><path d="M9.95 4.7q3.3 1.5 3.3 2.8 0 1.25-1.45 1.25l-2.95-1.7Q6 5.35-.75 5.35l-3.45.1-.45.4-2 1.25-1.5 1.5-.05.05-.15 1.3q-.35 1.55-2.5 3.6-2 1.85-2.75 1.85-1.25 0-1.25-1.35 0-.7.85-1.3l1.8-1.6 1-1.55q-.9-.2-.8-1.35 0-1.5 1.2-2.55l-.3.95Q-11 7.9-9.8 7.9q.6 0 1.85-1.25l1.2-1.3 1.1-.5L2.1 4.6h3.95l2.5.3 1.4-.2M-7.8 2.9l-.05-.5Q-7.85 1-4.8 1h.5q-.55.35-.45 1.25-1.65-.1-3.05.65" fill="#725b8a" fill-opacity=".263" fill-rule="evenodd" transform="translate(22.15 2.6)"/><path d="M-10.8 5.7q.4-.8 1.4-1.7l1.6-1.1q1.4-.75 3.05-.65-.1-.9.45-1.25l1.15-.25q4.75 0 6 1.25l6.75.45q1.05.25 1.05 1.2 0 .75-.7 1.05l-1.4.2-2.5-.3H2.1l-7.75.25-1.1.5-1.2 1.3Q-9.2 7.9-9.8 7.9q-1.2 0-1.3-1.25l.3-.95" fill="#493e5b" fill-opacity=".424" fill-rule="evenodd" transform="translate(22.15 2.6)"/><path d="m-3.7-1.95 2.5.6Q-.7 2.5-3.4 3.1q-2.65.55-4.55 1.8-1.8 1.2-1.9 2.3-.15 1.5-3.25 5.6-1.65 2.15-.3 6.4l-1.5-.4q-.15 1.2-1.9 1.75-2.05.65-3.45-.9-1.2-1.3-1.3-3.25-.05-2.05 1.7-3.2 1.35-.85 2.4-.75-.85-.15-1.6-1.2-1.05-1.4-.1-2.9.95-1.55 2.45-1.25 1.3.25 1.4 1 .65-.5 2.6-4Q-10.8.75-8.5-.95q1.9-1.35 4.8-1" fill="#5e5f60" fill-rule="evenodd" transform="translate(22.15 2.6)"/><path d="M5.85 23q1.25-.6 1.4-1.6l1.5.4q-1.35-4.25.3-6.4 3.1-4.1 3.25-5.6.1-1.1 1.9-2.3 1.9-1.25 4.55-1.8 2.5-.55 2.25-3.85" fill="none" stroke="#4b4b4d" stroke-linecap="round" stroke-linejoin="round" stroke-width="2"/><path d="m21 1.85-.05-.6" fill="none" stroke="#000" stroke-linecap="round" stroke-linejoin="round" stroke-width="2"/><path d="M20.95 1.25 20.2 1 18.45.65q-2.9-.35-4.8 1-2.3 1.7-4.2 5.05l-1.4 2.4-1.2 1.6q-.1-.6-1-.9l-.4-.1Q3.95 9.4 3 10.95l-.45 1.2q-.05.85.55 1.7.75 1.05 1.6 1.2-1.05-.1-2.4.75Q.55 16.95.6 19q.1 1.95 1.3 3.25 1.4 1.55 3.45.9l.5-.15Z" fill="none" stroke="#000" stroke-linecap="round" stroke-linejoin="round" stroke-width="1.2"/><path d="M-7.95-.7q1.9-1.35 4.75-1l2.5.6Q0 3.1-2.75 3.7q-6.7 1.4-6.85 3.7-.15 1.25-2.75 4.75-.8 1-1.15 2.8-.5 2.5.55 4.8l-1.4-.4q-.45.5-2.2 1.1-2.05.65-3.3-.55-1.1-1.1-1.15-2.95-.1-2.05 1.65-3.2 1.3-.85 2.4-.8-.85-.15-1.6-1.2-1.05-1.35-.1-2.85.95-1.55 2.45-1.25 1.3.25 1.4 1 .65-.5 2.6-4.15Q-10.3 1-7.95-.7" fill="#646567" fill-rule="evenodd" transform="translate(22.15 2.6)"/><path d="M8.05-.95Q10.4.75 12.3 4.1q2 3.45 2.65 4 .05-.75 1.4-1 1.5-.3 2.45 1.25.95 1.5-.1 2.9-.75 1.05-1.6 1.2 1.05-.1 2.4.75 1.75 1.15 1.7 3.2-.05 1.9-1.3 3.25-1.4 1.55-3.45.9-1.1-.35-1.65-1.1l-.3-.65-1.5.4q1.35-4.3-.45-6.55-2.2-2.7-2.4-5.35-.1-1-2.6-2.3-2.5-1.35-5.25-1.9Q.6 2.75.35.65l.1-2 2.65-.6q3.05-.35 4.95 1" fill="#5e5f60" fill-rule="evenodd" transform="translate(22.15 2.6)"/><path d="m37.85 22.85-.9-.8-.3-.65-1.5.4q1.35-4.3-.45-6.55-2.2-2.7-2.4-5.35-.1-1-2.6-2.3-2.5-1.35-5.25-1.9-1.7-.35-1.95-2.45" fill="none" stroke="#4b4b4d" stroke-linecap="round" stroke-linejoin="round" stroke-width="2"/><path d="m22.5 3.25.1-2" fill="none" stroke="#000" stroke-linecap="round" stroke-linejoin="round" stroke-width="2"/><path d="m22.6 1.25 2.65-.6q3.05-.35 4.95 1 2.35 1.7 4.25 5.05l2.4 3.75.25.25q.05-.75 1.4-1 1.5-.3 2.45 1.25l.3.6q.45 1.2-.4 2.3-.75 1.05-1.6 1.2 1.05-.1 2.4.75l1.05.95q.7.95.65 2.25-.05 1.9-1.3 3.25-1.4 1.55-3.45.9l-.75-.3Z" fill="none" stroke="#000" stroke-linecap="round" stroke-linejoin="round" stroke-width="1.2"/><path d="M7.55-.7Q9.9 1 11.8 4.5q1.95 3.65 2.6 4.15.1-.75 1.45-1 1.5-.3 2.45 1.25.95 1.5-.1 2.85-.8 1.05-1.65 1.2 1.15-.05 2.45.8 1.75 1.15 1.7 3.2-.05 1.85-1.15 2.95-1.3 1.2-3.35.55l-2.2-1.1-1.45.4q1.95-4-.35-7.05-1.8-2.25-2.1-4.9-.1-1-2.75-2.25Q4.85 4.3 2 3.7.25 3.35-.1 1.1v-2.2l2.7-.6q3.05-.35 4.95 1" fill="#646567" fill-rule="evenodd" transform="translate(22.15 2.6)"/><path d="m1.3-.05-.75-.8 4 1.35q4.15 1.2 6.55 5 .35.6 1.5 5.55-.75-2.95-1.85-4.85-2-3.65-7.25-5Q2.25.85 1.3-.05M14.9 9.6q1.2-1.95 2.25-.35.6.8-.1 1.7-1.1 1.45-2.45.35.9.4 1.7-.2.4-.35.4-.9 0-.45-.55-.55-.55-.05-.7.35-.2.45.65.4-.2.55-.95.2-.7-.35-.25-1m2.95.35.15.75q.1.8-.45 1.3-1.5 1.35-2.6 0 1.05.75 2.35-.3l.55-1.75M2.1 3l-1-.6Q.75 2.35.65.55.8 2.05 4.95 3q3.3.8 5.5 3.85Q8.2 4.2 4.8 3.8 3.35 3.6 2.1 3m15.45 13.75q-.35.75-1.3.3-.95-.45-.4-1.35 1.65-2.6 3.1-.5.75 1.1-.15 2.3-1.5 2-3.3.45 1.25.6 2.25-.25.6-.45.6-1.2-.05-.65-.75-.75-.75-.05-.95.45-.3.65.9.55m2.35.6q0 .95-.65 1.75-.75.85-2.3.9-1.45 0-2.15-.75-.55-.55-.85-3.35l-.6-2.7.9 2.2q.95 3.3 1.45 3.55 1.55.7 3.1-.35l1-2.1.1.85M-1.85 2.4Q-3 3.5-5.25 3.8q-3.35.4-5.6 3.05Q-8.65 3.8-5.4 3q3.85-.95 4-2.45-.1 1.8-.45 1.85M-15.8 10q-.2-.4-.7-.35-.55.1-.55.55-.1.5.4.9.8.65 1.65.2-1.25 1.1-2.4-.35-.65-.9-.1-1.7 1-1.55 2.25.35.4.65-.3 1t-.95-.2q.9.05.7-.4m-2.1 2q-.55-.5-.45-1.3l.15-.75.55 1.75q1.3 1.05 2.35.3-1.2 1.35-2.6 0m4.7-.1q1.35-5.75 1.7-6.4 2.25-3.75 6.5-5 2.65-.75 3.7-1.35Q-2 .65-4 1.2q-5.1 1.35-7.15 5l-2.05 5.7m-4.7 3.85q-.75.1-.8.75 0 .7.6 1.2 1 .85 2.25.25-1.75 1.55-3.3-.45-.9-1.2-.15-2.3 1.45-2.05 3.1.5.55.9-.4 1.35-.95.45-1.3-.3 1.2.1.9-.55-.2-.5-.9-.45m3.25-.35.95-2.2-.6 2.7q-.45 2.85-.9 3.35-.65.75-2.1.75-1.55-.05-2.3-.9-.6-.8-.65-1.75l.1-.85 1 2.1q1.55 1.05 3.1.35.6-.3 1.4-3.55" fill="#868788" fill-rule="evenodd" transform="translate(22.15 2.6)"/></g></defs></svg>