<?xml version="1.0" encoding="UTF-8" standalone="no"?>
<svg xmlns:xlink="http://www.w3.org/1999/xlink" height="92.9px" width="100.7px" xmlns="http://www.w3.org/2000/svg">
  <g transform="matrix(1.0, 0.0, 0.0, 1.0, 38.65, 49.75)">
    <use height="21.75" transform="matrix(1.0, 0.0, 0.0, 1.0, -16.45, -11.15)" width="31.8" xlink:href="#shape0"/>
  </g>
  <defs>
    <g id="shape0" transform="matrix(1.0, 0.0, 0.0, 1.0, 16.45, 11.15)">
      <path d="M10.2 2.55 L12.35 3.55 Q14.6 4.65 14.95 5.3 15.8 6.95 14.75 8.65 L12.35 10.6 8.7 5.1 Q8.55 4.85 5.7 3.65 L10.2 2.55" fill="#0a0200" fill-rule="evenodd" stroke="none"/>
      <path d="M-11.3 2.55 L-6.8 3.65 -9.95 5.5 -13.3 10.5 Q-15.45 9.25 -15.85 8.65 -16.9 6.95 -16.05 5.3 -15.65 4.65 -13.45 3.55 L-11.3 2.55" fill="#0a0200" fill-rule="evenodd" stroke="none"/>
      <path d="M11.5 -7.8 Q11.9 -7.25 11.35 -5.6 L10.5 -3.3 Q10.15 -2.3 9.75 -0.2 L10.3 0.45 Q10.7 0.85 11.0 3.25 L3.0 2.7 0.0 -1.8 -0.15 -2.55 -0.3 -1.8 -3.3 2.7 -11.3 3.25 -10.65 0.45 -10.15 -0.35 -10.8 -3.3 Q-12.2 -7.25 -11.8 -7.8 -11.2 -8.65 -8.2 -9.85 -4.8 -11.15 -2.15 -11.15 L1.8 -11.15 Q4.5 -11.15 7.85 -9.85 10.85 -8.65 11.5 -7.8" fill="#0a0200" fill-rule="evenodd" stroke="none"/>
      <path d="M11.0 7.85 Q7.75 9.7 2.2 10.2 -5.35 10.9 -11.4 7.85 -10.5 5.3 -9.65 4.6 -7.25 2.6 -0.65 2.6 6.05 2.6 8.55 4.35 9.15 4.8 11.0 7.85" fill="#4f5e7d" fill-opacity="0.16078432" fill-rule="evenodd" stroke="none"/>
      <path d="M10.35 5.0 L10.7 8.0 Q8.05 6.75 -0.65 6.75 -6.05 6.75 -9.15 7.5 L-11.15 8.2 -10.2 5.0 -1.2 3.45 10.35 5.0" fill="#8a8a8a" fill-opacity="0.4117647" fill-rule="evenodd" stroke="none"/>
      <path d="M8.5 4.7 Q4.55 3.75 -0.5 3.8 L-8.6 4.6 -9.55 5.75 Q-11.35 8.05 -12.15 9.85 -13.75 9.05 -15.4 7.65 L-15.55 7.2 Q-12.55 5.4 -8.6 4.6 -7.5 3.35 -7.05 3.5 L7.7 3.95 8.5 4.7 Q11.65 5.45 14.1 6.85 L13.9 7.5 Q13.25 8.75 11.55 9.7 11.2 8.55 9.8 6.45 L8.5 4.7" fill="#873c09" fill-rule="evenodd" stroke="none"/>
      <path d="M-0.5 -10.15 Q7.3 -10.25 10.25 -7.35 9.7 -5.1 9.3 -2.35 8.55 3.1 9.6 5.5 1.3 1.7 -10.15 5.55 -8.6 -0.6 -10.9 -6.95 -8.35 -10.05 -0.5 -10.15" fill="#ffffbf" fill-rule="evenodd" stroke="none"/>
      <path d="M2.2 -8.95 Q7.7 -8.35 8.75 -6.7 7.25 1.9 7.7 3.25 L1.75 2.35 Q1.6 -0.25 2.2 -8.95" fill="#fdc259" fill-rule="evenodd" stroke="none"/>
      <path d="M-5.4 -8.4 L-4.05 2.25 -8.0 2.8 Q-7.8 -2.1 -9.2 -6.75 -7.85 -8.3 -5.4 -8.4" fill="#fdc259" fill-rule="evenodd" stroke="none"/>
      <path d="M-1.05 -1.7 Q5.25 -1.7 7.95 -0.2 9.3 0.5 9.35 1.25 L-1.1 -0.65 -9.95 1.35 -8.65 -0.15 Q-6.3 -1.7 -1.05 -1.7" fill="#e03000" fill-rule="evenodd" stroke="none"/>
      <path d="M9.7 5.5 Q6.55 3.35 -0.7 3.35 -7.95 3.3 -10.8 5.5 -10.35 4.1 -10.0 1.5 -8.95 -1.05 -0.85 -1.15 7.3 -1.25 9.45 1.3 L9.7 5.5" fill="#ffab94" fill-rule="evenodd" stroke="none"/>
      <path d="M0.95 -0.05 L1.05 -0.75 Q4.35 -0.95 8.45 0.8 L8.45 2.4 5.3 1.9 0.0 1.15 2.7 0.9 0.85 0.6 3.4 0.5 Q2.25 0.05 0.95 -0.05" fill="#ff752e" fill-rule="evenodd" stroke="none"/>
      <path d="M-8.95 1.05 L-8.8 0.75 Q-6.75 -0.85 -3.65 -0.4 L-6.05 0.65 -3.95 0.55 -4.15 1.35 -6.6 1.8 Q-8.25 1.9 -9.15 2.35 L-8.95 1.05" fill="#ff752e" fill-rule="evenodd" stroke="none"/>
      <path d="M-8.45 -7.45 L-6.95 -8.15 -5.4 1.65 -7.15 2.05 -8.45 -7.45" fill="#ffffff" fill-rule="evenodd" stroke="none"/>
      <path d="M7.95 -7.2 L6.5 2.1 5.25 1.85 6.75 -7.8 7.95 -7.2" fill="#ffffff" fill-rule="evenodd" stroke="none"/>
      <path d="M1.6 2.15 Q9.9 2.7 13.6 5.1 14.35 5.85 14.1 7.35 8.6 4.25 -0.5 4.25 -9.85 4.25 -15.5 7.65 -15.75 6.35 -14.9 5.1 -8.25 1.5 1.6 2.15" fill="#ffffed" fill-rule="evenodd" stroke="none"/>
      <path d="M-14.9 5.05 L-11.45 3.55 Q-6.85 2.05 -0.8 2.05 8.8 2.05 13.7 5.1 6.8 2.6 -0.75 2.6 -5.45 2.6 -10.65 3.85 L-14.9 5.05" fill="#9e2f00" fill-rule="evenodd" stroke="none"/>
      <path d="M12.95 6.8 L11.2 6.75 Q3.85 5.25 -0.3 5.25 L-11.0 6.35 -13.3 6.6 -10.0 5.45 Q-5.6 4.25 -0.4 4.25 8.0 4.25 12.95 6.8" fill="#260000" fill-rule="evenodd" stroke="none"/>
      <path d="M6.9 -0.6 L6.5 2.1 5.25 1.85 5.7 -0.75 6.9 -0.6" fill="#ffc5b5" fill-rule="evenodd" stroke="none"/>
      <path d="M-7.5 -0.75 L-5.85 -1.2 -5.4 1.65 -7.15 2.05 -7.5 -0.75" fill="#ffc5b5" fill-rule="evenodd" stroke="none"/>
      <path d="M14.05 6.5 L14.25 6.8 13.9 7.5 Q9.45 4.25 -0.4 4.25 -6.5 4.25 -11.6 5.95 L-15.5 7.65 -15.55 6.6 -10.75 5.1 Q-5.0 3.6 -0.45 3.6 6.85 3.6 14.05 6.5" fill="#d6bf85" fill-rule="evenodd" stroke="none"/>
      <path d="M13.7 5.1 L14.25 6.8 Q14.2 7.15 3.45 4.1 L2.85 3.65 5.5 3.1 13.7 5.1" fill="#d6bf85" fill-rule="evenodd" stroke="none"/>
    </g>
  </defs>
</svg>
