<?xml version="1.0" encoding="UTF-8" standalone="no"?>
<svg
   height="92.9"
   width="100.7"
   version="1.1"
   id="svg15120"
   sodipodi:docname="13.svg"
   inkscape:version="1.1.1 (3bf5ae0d25, 2021-09-20, custom)"
   xmlns:inkscape="http://www.inkscape.org/namespaces/inkscape"
   xmlns:sodipodi="http://sodipodi.sourceforge.net/DTD/sodipodi-0.dtd"
   xmlns:xlink="http://www.w3.org/1999/xlink"
   xmlns="http://www.w3.org/2000/svg"
   xmlns:svg="http://www.w3.org/2000/svg">
  <sodipodi:namedview
     id="namedview15122"
     pagecolor="#505050"
     bordercolor="#eeeeee"
     borderopacity="1"
     inkscape:pageshadow="0"
     inkscape:pageopacity="0"
     inkscape:pagecheckerboard="0"
     showgrid="false"
     inkscape:current-layer="svg15120" />
  <g
     transform="translate(38.65,49.75)"
     id="g15108">
    <use
       height="36.799999"
       transform="rotate(14.999,112.804,22.137)"
       width="9.3500004"
       xlink:href="#a"
       id="use15104"
       x="0"
       y="0" />
    <use
       height="36.799999"
       transform="matrix(-0.96593034,0.25880219,0.25880219,0.96593034,-10.072283,-28.489748)"
       width="9.3500004"
       xlink:href="#a"
       id="use15106"
       x="0"
       y="0" />
  </g>
  <defs
     id="defs15118">
    <use
       height="36.8"
       width="9.35"
       xlink:href="#b"
       id="a" />
    <g
       id="b">
      <path
         d="m4.1-8.85-2.6-2.7h-.25l-2.1 15.3-1.85 2.5L.85-17.9l3.3 6.75-.05 2.3"
         fill="#c30"
         fill-rule="evenodd"
         transform="translate(4.7 18.4)"
         id="path15111" />
      <path
         d="m-2.7 6.25 1.85-2.5 2.1-15.3h.25l2.6 2.7-.25 13.9-4.55 3.4v5.4q-1.15 3.95-3.5 4.05l1.5-11.65"
         fill="#fff"
         fill-rule="evenodd"
         transform="translate(4.7 18.4)"
         id="path15113" />
      <path
         d="M 4.1,-8.85 4.15,-11.15 0.85,-17.9 -2.7,6.25 -4.2,17.9 m 3.5,-4.05 V 8.45 L 3.85,5.05 4.1,-8.85"
         fill="none"
         stroke="#333333"
         stroke-linecap="round"
         stroke-linejoin="round"
         transform="translate(4.7,18.4)"
         id="path15115"
         sodipodi:nodetypes="ccccccccc" />
    </g>
  </defs>
</svg>
