<svg xmlns:xlink="http://www.w3.org/1999/xlink" height="92.9" width="100.7" xmlns="http://www.w3.org/2000/svg"><use height="57.05" transform="translate(0 23.25)" width="76.35" xlink:href="#a"/><defs><g id="a"><path d="m7.35-5.85 2.55.55 4.05 4.1.9 1.9-2 4.3 2.2 1.35-.35 3.25.7 1.75-.15 5.65-.25 1.05-3.9-9.85-1.4-2.1-2.1-2.2-1.5-1.1-2.25-1.15L2.5 1.2.4.85H-1l-.7.1-1.15.3-2.1.9L-6.9 3.4l-1.75 1.55-2.3 2.85-1.95 3.15-1.1 2.3-1.35 4-.7-.05-.35-1.55-.55-6.2 3.3-3.1-1.65-1.55.2-2.4q1.15-3.95 7.6-4.1 3.2-.05 6.2.7l8.65-4.85" fill="#4b0000" fill-rule="evenodd" transform="translate(38.65 26.5)"/><path d="M16.45-21.7q.55-.4.95.2.4.45-.05 1-.7.35-5.1 5.45 5.1-1.3 7.75-2.3.6-.25.95.35.25.6-.25.95l-5.6 4.25 13-1.35q.7-.1.85.5.15.65-.4.95-.7 0-6.6 3.45l8.05.4q.7 0 .8.65.1.7-.6.85-3 .75-7.1 2.25 8.05 2.7 12.65 3.5.6.1.6.8-.1.6-.7.7l-7.4.8q4.65 2.35 7.35 3.35.65.2.45.85-.15.7-.8.6L28.5 6q5.5 4.5 8.8 6.55.55.35.3.95-.25.6-.95.4-.45-.45-7.15-1.95l5.6 5.75q.55.45.15 1-.4.6-1 .25-2.7-1.45-6.65-3.15 3.6 6.4 6 9.6.45.55-.1 1l-1 .05q-.3-.6-5.95-4.45l3.1 7.45q.4.6-.25.95-.6.4-.95-.15l-2.95-3.2q-3.35-3.55-5.5-3.7l-2.85.15q-1.35-.1-1.5-1.85l-.65-3.6-3.9-9.85-1.4-2.1-2.1-2.2-1.5-1.1-2.25-1.15L2.5 1.2.4.85H-1l-.7.1-1.15.3-2.1.9L-6.9 3.4l-1.75 1.55-3 3.85-1.25 2.15-2 4.75-.7 2.35-.8 4.6-1.95 1.05-.9.3-2.6.6-2.4.25-5.1 5.4q-.45.55-1 .15-.65-.35-.25-.95 1.3-2.55 3.1-7.45-5.65 3.85-5.95 4.45l-1-.05q-.55-.45-.1-1 2.4-3.2 6-9.6l-6.65 3.15q-.6.35-.95-.25-.45-.55.1-1l5.65-5.75q-6.75 1.5-7.2 1.95-.6.2-.95-.4-.25-.6.3-.95l8.8-6.55-6.7.5q-.7.1-.85-.6-.2-.65.45-.85l7.4-3.35-7.4-.8q-.65-.1-.75-.7 0-.7.65-.8l12.6-3.5q-6.15-2.25-7.1-2.25-.65-.15-.55-.85.1-.65.75-.65l8.05-.4q-5.9-3.45-6.6-3.45-.55-.25-.4-.95.15-.6.85-.5L-16-11.8l-5.65-4.25q-.5-.35-.25-.95.35-.6.95-.35l7.75 2.3-5.05-5.45q-.5-.5-.1-1 .45-.5 1-.2l10.5 5.05.15-8.55q.1-.6.65-.7.6-.1.85.45 1.35 3.7 4.1 9 2.2-4.75.5-9.15-.15-.6.3-.9l.95.1q4.1 4.1 3.7 10.4 8-3.3 12.1-5.7" fill="#4b0000" fill-rule="evenodd" transform="translate(38.65 26.5)"/><path d="M-6-9.5q-.25-10.6.05-15.65 2.5 6.75 8.85 17.8.85 1.85-.95 9.9-3.4-.2-5.7-1.45Q-5.9-4.55-6-9.5" fill="#b60000" fill-rule="evenodd" transform="translate(38.65 26.5)"/><path d="m-21.8-8.5-7.4-3.9 13.45 1.35Q-10.3-10.8-5 1.15l-2.95.8Q-13.3-3.5-21.8-8.5" fill="#de0000" fill-rule="evenodd" transform="translate(38.65 26.5)"/><path d="M.45-9.1q-1.95 4.7-7 9.45-4.45 4.15-4.95 7-2 11.3.1-3.75 1.15-8.4 2.85-9.8Q3.7-16.35.1-25.85q4 3.9 3.45 10.05-.15 1.9-3.1 6.7" fill="#de0000" fill-rule="evenodd" transform="translate(38.65 26.5)"/><path d="m-23.4-4.7-7.55-2.4 13.45-1q5.3-.7 12.4 9.75-2.25.5-3.35 1.1-6.15-4.2-14.95-7.45" fill="red" fill-rule="evenodd" transform="translate(38.65 26.5)"/><path d="m-17.75-21.05 12.2 5.75Q.45-12.9.7 4.6l-1.6-.95Q-5.1-9.1-17.75-21.05" fill="#de0000" fill-rule="evenodd" transform="translate(38.65 26.5)"/><path d="m-21.2-16.65 13 3.55q6.1 1.3 9.4 17.25l-1.45.7Q-6.6-7.05-21.2-16.65" fill="red" fill-rule="evenodd" transform="translate(38.65 26.5)"/><path d="M-11.15 2-13 5.15Q-19.8 2.35-28.85 1l-7.7-.85 13-3.65q4.6-1.55 12.4 5.5" fill="#de0000" fill-rule="evenodd" transform="translate(38.65 26.5)"/><path d="M-11.05 3.1q-1.05 1.2-2.05 3.25-7.05-1.35-15.8-1.1l-7.35.5L-24.1-.1q4.2-2.3 13.05 3.2" fill="red" fill-rule="evenodd" transform="translate(38.65 26.5)"/><path d="M-26.35 8.4q3-3.55 12.65-1.9-1.4 1.4-2.15 4.35-6.55 1.45-13.75 4.6l-5.95 2.85q3.5-3.1 9.2-9.9" fill="red" fill-rule="evenodd" transform="translate(38.65 26.5)"/><path d="M-26.9 14.35q2.05-3.75 10.55-4.3-.7 1.75-1.2 5.3-5.7 2.7-11.65 6.9l-4.75 3.6q2.85-3.75 7.05-11.5" fill="#de0000" fill-rule="evenodd" transform="translate(38.65 26.5)"/><path d="M-25 17.2q1.3-3.95 9.4-6v5.35q-5.15 3.65-10.25 8.8l-4.1 4.4Q-27.8 25.6-25 17.2" fill="red" fill-rule="evenodd" transform="translate(38.65 26.5)"/><path d="M14.8-11.05q8.85-.4 13.45-1.35Q14.8-6.45 6.2 2.8q-2.15.9-3.25 1.05 5.75-14.6 11.85-14.9" fill="#de0000" fill-rule="evenodd" transform="translate(38.65 26.5)"/><path d="m16.6-8.1 13.45 1q-12.3 3.05-22.1 9.55l-1.7-3.7Q12.15-8.7 16.6-8.1" fill="red" fill-rule="evenodd" transform="translate(38.65 26.5)"/><path d="M16.8-21.05q-3.4 3.25-7.3 8.1Q1.75-3.15-.55 5.15l-1.1-1.05q.35-17.05 6.25-19.4 8.2-3.35 12.2-5.75" fill="#de0000" fill-rule="evenodd" transform="translate(38.65 26.5)"/><path d="M20.25-16.65q-3.7 2.45-8.25 6.4Q3-2.35-.9 5.2l-1.2-1.3q3.35-15.75 9.35-17 8.65-1.9 13-3.55" fill="red" fill-rule="evenodd" transform="translate(38.65 26.5)"/><path d="M35.6.15q-13.45.6-24.55 5.4-.6-1-2.3-2.2Q17.6-5.2 22.6-3.5q8.35 2.85 13 3.65" fill="#de0000" fill-rule="evenodd" transform="translate(38.65 26.5)"/><path d="M35.35 5.75Q22.85 4.1 11.4 6.5 10.7 5.15 9 3.8q9.65-6.4 14.15-3.9 7.75 4.25 12.2 5.85" fill="red" fill-rule="evenodd" transform="translate(38.65 26.5)"/><path d="m13.7 9.2-2.25-3.15q10.75-4.3 14.7-1 6.75 5.7 10.75 8.15-11.65-4-23.2-4m-40.6-4.15q4.05-3.4 15.2 1.25l-2.4 2.9q-7.3-.05-16.15 1.95l-7.4 2.05 10.75-8.15" fill="#de0000" fill-rule="evenodd" transform="translate(38.65 26.5)"/><path d="m11.1 8.2-.8-1.25Q22.1 4.4 25.45 8.4q5.65 6.8 9.15 9.9-10.95-6.1-22.5-8l-1-2.1" fill="red" fill-rule="evenodd" transform="translate(38.65 26.5)"/><path d="m13.65 14-1.7-4.05q11.6-.1 14 4.4 4.2 7.75 7.05 11.5Q24.1 18.3 13.65 14" fill="#de0000" fill-rule="evenodd" transform="translate(38.65 26.5)"/><path d="m14.5 16.4-2.25-5.75q10.3 1.95 11.8 6.55 2.8 8.4 4.95 12.55-6.2-7.45-14.5-13.35" fill="red" fill-rule="evenodd" transform="translate(38.65 26.5)"/><path d="m8.35-9.9 3.25.7 5.1 5.45 1.2 2.55-2.6 5.7 2.8 1.85-.45 4.3.95 2.3-.15 3.8q-.1 3.95-1.2 5.3-.55.6-1.6.55l-.4-3.35-2.2-6.8L11.1 8.2 9.7 6.1 7.6 3.9 6.1 2.8 3.85 1.65 2.5 1.2.4.85H-1l-.7.1-1.15.3-2.1.9L-6.9 3.4l-1.75 1.55-2.3 2.85-1.95 3.15-1.1 2.3-1.6 4.8-.65 3.25-5.05-.55-.45-2.05-.7-8.25 4.2-4.1-2.1-2.1.2-3.2q1.45-5.3 9.65-5.45 4.05-.05 7.85.9l11-6.4" fill="#de0000" fill-rule="evenodd" transform="translate(38.65 26.5)"/><path d="M10.85-7.45 15.5-2.7l1.1 2.2-2.35 4.95 2.55 1.6-.45 3.8.85 2-.2 6.55-.65 2.55-.7.65-.65-3.55-3.9-9.85-1.4-2.1-2.1-2.2-1.5-1.1-2.25-1.15L2.5 1.2.4.85H-1l-.7.1-1.15.3-2.1.9L-6.9 3.4l-1.75 1.55-2.3 2.85-1.95 3.15-1.1 2.3-1.6 4.8-.2.9-3.4-.35-.4-1.8-.65-7.15 3.85-3.6-1.9-1.75.2-2.8q1.3-4.6 8.75-4.75l7.2.75 10-5.55 3 .6" fill="#9a0000" fill-rule="evenodd" transform="translate(38.65 26.5)"/><path d="M-7.8 4.8q-.35 1.1-3.9 6.35-2.45 4.25 1.8 2.35.45 2.6-2.15 4-2.25 1.25-5.55 1.2-3.25-.05-4.7-1.15-1.65-1.25.35-3.05.7 1.9 1.75 1.35.9-.45 1.6-2.45.15-.45-.9-1.05l-2.05-1.15q-2.45-1.6.8-3.3L-21.1 9q.2 0 .55.4.9-.2 4.9-3.55 2.8-2.3 5.8-.5l2.05-.55" fill-rule="evenodd" transform="translate(38.65 26.5)"/><path d="m-17.3 13.5 1.1.6q2.2 1.35.4 2.05-1.7.65-4.1 0 1.35-.3 1.8-1.1l.8-1.55" fill="#666" fill-rule="evenodd" transform="translate(38.65 26.5)"/><path d="M13.85 6.15q3.35 3 4.5 3.25l.6-.4-.35-1.1q3.25 1.7.8 3.3-3.05 2-2.95 2.2.65 2 1.6 2.45 1.05.55 1.75-1.35 2 1.8.35 3.05-1.5 1.1-4.7 1.15-3.35.05-5.6-1.2-2.6-1.4-2.15-4 4.25 1.9 1.85-2.35-3.5-5.25-3.9-6.35l.6-1.2q.35-.25 2.45 1.25 2.5-1.05 5.15 1.3" fill-rule="evenodd" transform="translate(38.65 26.5)"/><path d="M5.2-8q.85-2.3 2.9-2.55-.5 1.9-.7 7.25l.15-.15 1.95-1.2q2.3-.85 4.1.95 3.25 3.15 1.25 4.85-1.5 1.25-3.6 1.05-1.6-.1-1.5-2.5l1-.95q.45-.4-1.65-.2-1.75.15-.7 2.85 1 2.75 2.45 2.55 1.3-.15 1.55.4.2.6-.65.95-2.9 1.1.1 2.65 2.4 1.25 2.25 6-.8-.9-2.25-1.5-1.45-.15-2.4-3.15L8.2 5.1q-.5-1.15-3.25-1-2.75.15-2.95.95l.8-.4q.85-.3 1.2.2.4.55-1.9 2.95Q.9 9 0 7.15q0-1.7-.15-2.5Q4 .1 2.2-6L.55-9.75l-1-1.45v-.15q-1.95 2.7-2.65 5.8Q-4.4.1-.6 4.35L-.75 6.8q-.85 1.9-2.05.65-2.3-2.4-1.95-2.9.4-.55 1.25-.25.45.15.8.4-.2-.8-2.95-.9-2.8-.15-3.3 1l-1.2 4.2q-.95 2.95-2.4 3.1-1.55 1.45-2.25 1.5-.75.1-.05-2.5.7-2.65 2.3-3.5 2.9-1.5.1-2.65-.85-.35-.65-.9.2-.6 1.5-.45 1.45.2 2.5-2.5t-.7-2.9q-2.15-.2-1.65.2l1 .95q.1 2.4-1.55 2.5-2 .3-3.55-1.05-2-1.7 1.2-4.85 2.9-2.85 6.05.25l.2.15q-.2-5.35-.7-7.2 3.25.35 3.25 4.75l.05 1.4q.75-5.65 5.2-10.3v.5Q4.1-9.95 4.8-4.35V-5.8q0-1.1.4-2.2M4.85-.65V-1v.9l.4-.35q-.35.15-.4-.2M-5.95-.8l.35.4q.15 0 .05-.9l-.05.3q0 .4-.35.2" fill="#4b0000" fill-rule="evenodd" transform="translate(38.65 26.5)"/><path d="m-.1-13.1-.4-.5q-3.65 4.2-4.25 9l-1.5-.05-.05-1.45q-.05-2.6-1.55-3.6.35 1.95.5 6.05V-2L-8.7-3.2l-.1-.05q-2.7-2.5-5-.25-2.2 2.1-1.65 3.3.8 1.6 3.4 1.3.85 0 .85-1.1v-.4l-.35-.3q-.8-.55-.8-1.05l.05-.25q.35-.8 2.55-.55 1.1.1 1.5 1.05Q-7.4.45-9.3 3q-1.15 1.5-2.4 1.35h-.35q1.6.65 1.6 1.8v.05q0 1.15-1.75 2.1-1.85.9-2.1 4.1l1.45-1h.1l.1-.05q1.2-.1 2.4-4.8l.65-2.05q.75-1.8 4.25-1.45 2.2.15 3 1l.05.05.3.4.5 1.95-1.65-1.15q-.55-.4-.95-.4l1.15 1.4.7.65.3.2.45-.55v-.15l.15-1.9q-2.8-3.2-2.8-7.3 0-4.9 3.1-9.05l.95-1.3m1.6 12q.5-.3.5-1.4Q2-6.2-.45-9.95-2.7-6.3-2.7-2.85q0 1.2.6 1.6L-.2.35 1.5-1.1m2.55.8.05-.6v-.15h1.5v.3L5.55-.8v.4l.3.35L5.6.2h-.05L5 .65 4.8.9 4.35.45q-.3-.25-.3-.75M7.1-9.35q-.9.65-1.3 2.1l-.25 1.5v1.4l-1.5.1q-.5-4.3-3.7-8.35L.3-11.45q3.15 4.05 3.15 9 0 4-2.8 7.3l.1 1.9.55-1.9.3-.45q.7-.75 3.05-1.05Q8.15 3.2 8.9 4.8l.6 2.1q1.2 4.7 2.4 4.8h.1l.1.05 1.5.95q-.25-3.15-2.1-4.1-1.8-.8-1.8-2.05v-.1q.1-1.1 1.65-1.8l-.4.05q-1.3.15-2.35-1.35Q6.65.8 7.5-1.15 8-2.1 9.05-2.2q2.25-.25 2.5.5l.05.3q0 .5-.75 1l-.35.3-.05.45q0 1.05.9 1.1 2.55.3 3.4-1.35.55-1.1-1.65-3.3-1.45-1.4-3.25-.8-1.05.35-1.75 1.05l-.1.1-1.45 1.2.1-1.7q0-3 .45-6M.45-16.8v2q2.85 3.05 4.1 6.5.95-2.65 3.45-3l1.1-.1-.3 1.05Q8.45-9 8.2-4.85q3.35-1.95 5.95.6 2.95 2.85 1.95 5-1.25 2.6-4.85 2.2-.85-.05-1.5-.6l.05.1q.65.85.95.75 2-.25 2.4 1 .35 1.15-1.1 1.8l-.85.55 1 .75q1.65.85 2.5 3.3.7 2.1.35 3.35-.3.85-1.05.75-.6-.05-1.25-.7l-1.15-.85q-2.1-.35-3.55-5.9L7.5 5.4q-.1-.3-.9-.45L4.8 4.9l.1.35q0 .9-1.65 2.45l-.65.6q-.8.85-1.65.65Q.1 8.8-.45 7.7q-.55.8-1.25.95-.9.15-1.65-.7l-.6-.6Q-5.6 5.8-5.6 4.9l.1-.35-1.8.05q-.85.2-.95.5l-.55 1.85q-1.35 5.5-3.5 5.9-.7.3-1.2.8l-1.25.7q-.75.1-1-.75l-.1-.85q0-4.3 2.95-5.8l.95-.75q0-.2-.8-.55-1.15-.5-1.15-1.45l.05-.3q.25-1.35 2.35-1l1-.8v-.05q-.5.5-1.4.55l-2.5-.35q-1.8-.6-2.4-1.8-.95-2.15 1.95-5.05 2.65-2.5 5.95-.6-.25-3.95-.65-5.45l-.25-1.1 1.1.15q2.35.25 3.45 3 1.35-3.7 4.4-6.9l1.3-1.3m-6.5 15.4.45-.05-.1.05.9.05v.1l.05.6q0 .5-.3.75l-.15.6-1.05-.8-.05-.05-.3-.2.35-.4-.05-.35-.05.05.05-.35h.2l-.05.15h.35l.1-.15h-.35M3.4 5.3q-.25-.15-.95.35L.75 6.8v.15l.45.55.35-.25.65-.65 1.2-1.3" fill="#4b0000" fill-rule="evenodd" transform="translate(38.65 26.5)"/><path d="M-2.9-6.35Q-4.7-.2-.6 4.35L-.75 6.8q-.85 1.9-2.05.65-2.3-2.4-1.95-2.9.4-.55 1.25-.25.45.15.8.4-.2-.8-2.95-.9-2.8-.15-3.3 1l-1.2 4.2q-.95 2.95-2.4 3.1-1.55 1.45-2.25 1.5-.75.1-.05-2.5.7-2.65 2.3-3.5 2.9-1.5.1-2.65-.85-.35-.65-.9.2-.6 1.5-.45 1.45.2 2.5-2.5t-.7-2.9q-2.15-.2-1.65.2l1 .95q.1 2.4-1.55 2.5-2 .3-3.55-1.05-2-1.7 1.2-4.85 2.9-2.85 6.05.25 1.4.9 2.7 3.4-.25-1.75.1-4.45Q-4.75-10.4-.3-15v3.45Q-2-9.4-2.9-6.35" fill="#ff4900" fill-rule="evenodd" transform="translate(38.65 26.5)"/><path d="M-5.55-6.1-5.6-1Q-5.7.2-8.1-3.1q-.1-5.5-.7-7.75 3.25.35 3.25 4.75" fill="#ff4900" fill-rule="evenodd" transform="translate(38.65 26.5)"/><path d="M-13.85-.05q-.05.55-.4.45l-.55-.6q-.7-1.45.7-2.75 1.35-1.35 2.55-1.15 1.1.2.6.9l-1.55.85q-1.2.7-1.35 2.3" fill="#fe9f34" fill-rule="evenodd" transform="translate(38.65 26.5)"/><path d="M-11.6-.2q0 1.05-1.05 1.05T-13.7-.2q0-1.1 1.05-1.1t1.05 1.1" fill="#fff" fill-rule="evenodd" transform="translate(38.65 26.5)"/><path d="M-2.9 3.3q-.85-1-4.6-.5-.95.1-.95-.5l.4-1.25Q-7.5-1.05-7-.4q.55.75 1.4 1 .75-.05 1.25-2.4l1.45 5.1" fill="#569f00" fill-rule="evenodd" transform="translate(38.65 26.5)"/><path d="M-1.3-11.6Q-5.6-7.95-4.65.7" fill="none" stroke="#ffff41" stroke-linecap="round" stroke-linejoin="round" transform="translate(38.65 26.5)"/><path d="m-10.2 4.05.05-.2Q-10 5.3-10.2 5.3l-.65-.45q-.35-.2.1-.5l.55-.3" fill="#a4ff00" fill-rule="evenodd" transform="translate(38.65 26.5)"/><path d="M-4.95.85-6.65.6l-.6-6.9q1.2 1.65 2.3 7.15M-11.2 8q-.35 1.7-1.05 2.55-.7.85-1.2.2-.4-.5.9-1.65L-11.2 8" fill="#acde00" fill-rule="evenodd" transform="translate(38.65 26.5)"/><path d="M-6.15-3.7q0 .55-.55.55-.6 0-.6-.55 0-.6.6-.6.55 0 .55.6m-.45-2.9q0 .55-.55.55-.6 0-.6-.55 0-.6.6-.6.55 0 .55.6" fill="#fff" fill-rule="evenodd" transform="translate(38.65 26.5)"/><path d="M-6.35-5.3q0 .55-.55.55t-.55-.55q0-.6.55-.6t.55.6" fill="#569f00" fill-rule="evenodd" transform="translate(38.65 26.5)"/><path d="M-12.65-1.5q0 .55-.55.55-.6 0-.6-.55 0-.6.6-.6.55 0 .55.6" fill="#fff" fill-rule="evenodd" transform="translate(38.65 26.5)"/><path d="M-12-3.15q0 .6-.55.6t-.55-.6q0-.55.55-.55t.55.55" fill="#a4ff00" fill-rule="evenodd" transform="translate(38.65 26.5)"/><path d="M-5.6-1.5q0 .55-.55.55t-.55-.55q0-.6.55-.6t.55.6" fill="#ff0" fill-rule="evenodd" transform="translate(38.65 26.5)"/><path d="M-2.9 5.1q1.35-.05 1.5.85.15.7-.35 1.1-.5.35-1.85-1.7-.3-.45.15-.4l.55.15" fill="#ff7f00" fill-rule="evenodd" transform="translate(38.65 26.5)"/><path d="M-3.05 5.35q0 .6-.55.6t-.55-.6q0-.55.55-.55t.55.55m-5.65-1.9q0 .6-.6.6-.55 0-.55-.6 0-.55.55-.55.6 0 .6.55" fill="#ffff7f" fill-rule="evenodd" transform="translate(38.65 26.5)"/><path d="M-10 6.8q0 .55-.55.55t-.55-.55q0-.6.55-.6t.55.6" fill="#fe9f34" fill-rule="evenodd" transform="translate(38.65 26.5)"/><path d="M-13.2 11.05q0 .55-.55.55t-.55-.55q0-.6.55-.6t.55.6M-7.6.7q0-.95.95-.95.9 0 .9.95t-.9.95q-.95 0-.95-.95" fill="#ff0" fill-rule="evenodd" transform="translate(38.65 26.5)"/><path d="M-9.5-3.05q0 .7-.7.7t-.7-.7q0-.7.7-.7t.7.7" fill="#569f00" fill-rule="evenodd" transform="translate(38.65 26.5)"/><path d="M-6.25 1.95q0 .9-.9.9t-.9-.9q0-.9.9-.9t.9.9" fill="#fff" fill-rule="evenodd" transform="translate(38.65 26.5)"/><path d="m34.45 20.95-.3 1.7q-.25 2.05 0 4.05" fill="none" stroke="#a4ff00" stroke-linecap="round" stroke-linejoin="round" stroke-width=".75"/><path d="M4.8-4.5q.35 2.7.05 4.4L5.9-1.45q.9-1.5 1.65-2l1.95-1.2q2.3-.85 4.1.95 3.25 3.15 1.25 4.85-1.5 1.25-3.6 1.05-1.6-.1-1.5-2.5l1-.95q.45-.4-1.65-.2-1.75.15-.7 2.85 1 2.75 2.45 2.55 1.3-.15 1.55.4.2.6-.65.95-2.9 1.1.1 2.65 2.4 1.25 2.25 6-.8-.9-2.25-1.5-1.45-.15-2.4-3.15L8.2 5.1q-.5-1.15-3.25-1-2.75.15-2.95.95l.8-.4q.85-.3 1.2.2.4.55-1.9 2.95Q.9 9 0 7.15q0-1.7-.15-2.5Q4 .1 2.2-6L.55-9.75l-1-1.45.05-3.45q4.45 4.6 5.2 10.15" fill="#ff4900" fill-rule="evenodd" transform="translate(38.65 26.5)"/><path d="M4.8-5.8q0-1.1.4-2.2.85-2.3 2.9-2.55-.6 2.25-.75 7.75Q5 .5 4.85-.65L4.8-5.8" fill="#ff4900" fill-rule="evenodd" transform="translate(38.65 26.5)"/><path d="M11.75-2q-1.3-.5-1.55-.85-.5-.75.65-.95 1.2-.2 2.55 1.15 1.35 1.35.7 2.75l-.6.6q-.35.1-.4-.45Q12.95-1.3 11.75-2" fill="#fe9f34" fill-rule="evenodd" transform="translate(38.65 26.5)"/><path d="M12.95.1q0 1.1-1.05 1.1T10.85.1q0-1.05 1.05-1.05T12.95.1" fill="#fff" fill-rule="evenodd" transform="translate(38.65 26.5)"/><path d="M2.15 3.6 3.6-1.45Q4.25.85 4.9.95l1.4-1q.55-.7 1 1.4l.4 1.3q.05.6-.95.45-3.6-.35-4.6.5" fill="#569f00" fill-rule="evenodd" transform="translate(38.65 26.5)"/><path d="M.6-11.3Q4.9-7.65 3.95 1.05" fill="none" stroke="#ffff41" stroke-linecap="round" stroke-linejoin="round" transform="translate(38.65 26.5)"/><path d="M9.5 4.35q1.2.5.65.85-.3.25-.65.45-.25-.05-.1-1.45l.1.15" fill="#a4ff00" fill-rule="evenodd" transform="translate(38.65 26.5)"/><path d="M6.5-5.95 5.9.9l-1.7.25.7-2.95q.85-3.15 1.6-4.15m4 14.25q2.9 2 2.25 2.8-.55.6-1.2-.2-.7-.85-1.05-2.6" fill="#acde00" fill-rule="evenodd" transform="translate(38.65 26.5)"/><path d="M5.45-3.4q0-.55.55-.55t.55.55q0 .6-.55.6t-.55-.6m.45-2.9q0-.55.55-.55T7-6.3q0 .6-.55.6t-.55-.6" fill="#fff" fill-rule="evenodd" transform="translate(38.65 26.5)"/><path d="M5.6-5q0-.55.55-.55.6 0 .6.55 0 .6-.6.6-.55 0-.55-.6" fill="#569f00" fill-rule="evenodd" transform="translate(38.65 26.5)"/><path d="M11.95-1.2q0-.55.55-.55t.55.55q0 .6-.55.6t-.55-.6" fill="#fff" fill-rule="evenodd" transform="translate(38.65 26.5)"/><path d="M11.25-2.8q0-.6.6-.6.55 0 .55.6 0 .55-.55.55-.6 0-.6-.55" fill="#a4ff00" fill-rule="evenodd" transform="translate(38.65 26.5)"/><path d="M4.9-1.2q0-.55.55-.55T6-1.2q0 .6-.55.6t-.55-.6" fill="#ff0" fill-rule="evenodd" transform="translate(38.65 26.5)"/><path d="M2.15 5.45q1.2-.5.75.25-1.35 2.05-1.85 1.65-.5-.35-.4-1.1.15-.85 1.5-.8" fill="#ff7f00" fill-rule="evenodd" transform="translate(38.65 26.5)"/><path d="M2.35 5.7q0-.6.55-.6t.55.6q0 .6-.55.6t-.55-.6M8 3.8q0-.6.55-.6t.55.6q0 .6-.55.6T8 3.8" fill="#ffff7f" fill-rule="evenodd" transform="translate(38.65 26.5)"/><path d="M9.25 7.1q0-.55.55-.55.6 0 .6.55 0 .6-.6.6-.55 0-.55-.6" fill="#fe9f34" fill-rule="evenodd" transform="translate(38.65 26.5)"/><path d="M12.5 11.35q0-.55.55-.55t.55.55q0 .6-.55.6t-.55-.6M5.05 1.05q0-.95.9-.95t.9.95q0 .95-.9.95t-.9-.95" fill="#ff0" fill-rule="evenodd" transform="translate(38.65 26.5)"/><path d="M8.8-2.7q0-.75.7-.75.65 0 .65.75 0 .7-.65.7-.7 0-.7-.7" fill="#569f00" fill-rule="evenodd" transform="translate(38.65 26.5)"/><path d="M5.55 2.3q0-.95.9-.95.85 0 .85.95 0 .9-.85.9-.9 0-.9-.9" fill="#acde00" fill-rule="evenodd" transform="translate(38.65 26.5)"/><path d="m42.1 21.25.3 1.7q.3 2.1 0 4.1" fill="none" stroke="#a4ff00" stroke-linecap="round" stroke-linejoin="round" stroke-width=".75"/><path d="M-2.4-.65-.25 1.4 1.9-.65l-2.15 4Q-2.1.6-2.4-.65" fill="#6f0000" fill-rule="evenodd" transform="translate(38.65 26.5)"/><path d="M28.6 21.95q-3.1-1.65-5.55 2.45m7.6-6.05-.4-2.45 1.55.9m6.45-4.95L36.4 14.2q-1.9 2.6-2 3.65m7.4 6.55q-.55 4.95-2.35 6.1m6.85-14.2-1.15.85Q44 18.3 43.85 19.5m2.35 3.55 3.45-1.1M26 31l.05-.3 1.25-.2m-.4 3.6-1.3 1.15q-1.35 1.4-1.4 2.85" fill="none" stroke="#fff" stroke-linecap="round" stroke-linejoin="round" stroke-width=".5"/><path d="M-.3-13.65q.55 0 .55.55 0 .6-.55.6-.6 0-.6-.6 0-.55.6-.55" fill="#fff" fill-rule="evenodd" transform="translate(38.65 26.5)"/><path d="M-.4 4.2q1.55 0 1.55 1.5T-.4 7.2q-1.5 0-1.5-1.5t1.5-1.5" fill="#4b0000" fill-rule="evenodd" transform="translate(38.65 26.5)"/><path d="M-.4 6.9q-1.2 0-1.2-1.2l.1-.3 2.3.35Q.8 6.9-.4 6.9" fill="#ffb700" fill-rule="evenodd" transform="translate(38.65 26.5)"/><path d="m.85 5.7-.05.05-2.3-.35q.2-.9 1.1-.9Q.85 4.5.85 5.7" fill="#fff" fill-rule="evenodd" transform="translate(38.65 26.5)"/><path d="M-15.95 7.85q-.4 1.5-1.85 2.05l-3.25-.15q2.85-.2 5.1-1.9m33.4 2.2.9.7-1.75.6q-.2-.4.2-.65l.4-.35.25-.3" fill="#666" fill-rule="evenodd" transform="translate(38.65 26.5)"/></g></defs></svg>