<svg xmlns:xlink="http://www.w3.org/1999/xlink" height="92.9" width="100.7" xmlns="http://www.w3.org/2000/svg"><use height="36.35" transform="translate(18.55 38.45)" width="37.9" xlink:href="#a"/><defs><g id="a"><path d="M-9.15 7.05q1.75 1.15.3 4.2l-.25.65q-1.5 4.1 1.5 7.85.2.2.1.5 0 .3-.3.4-1.3.55-2.6 0 .3 1.8 1.75 2.9l.2.45v.1q0 .3-.35.45-2.75 1.3-5.15-.75-1.25-1.15-1.4-3.25l-.55 2.4q-.1.4-.5.5-.45 0-.6-.3-1.55-2.9-.6-6.95.95-4 4.05-7.65h.05q2.6-2.75 4.35-1.5" fill="#3a0c07" fill-rule="evenodd" transform="translate(20.1 11.3)"/><path d="M-12.85 9.95Q-11.2 8.1-10.4 8.9q.75.8-.2 3.05-1.1 4.05 1.5 7.5-1.55.7-2.8-.75.95 4.2 1.95 5-1.65.3-3.2-1.1-1.95-1.75-1.25-5.25-1.55 1.15-2.15 4.3-1.05-5.85 3.7-11.7" fill="#ff7900" fill-rule="evenodd" transform="translate(20.1 11.3)"/><path d="M-13.15 22.6q-1.95-1.75-1.25-5.25-1.55 1.15-2.15 4.3-.25-1.55-.1-2.95l2.45-4.2q.4 2.6 2.6 3.4-.95-4.5.7-9.2 1.75 0 .3 3.25-1.1 4.05 1.5 7.5-1.55.7-2.8-.75.95 4.2 1.95 5-1.65.3-3.2-1.1" fill="#c74200" fill-rule="evenodd" transform="translate(20.1 11.3)"/><path d="M13.3 7.2v.05q3.15 3.6 4.1 7.6 1 4-.6 6.95-.25.35-.6.3-.4-.1-.5-.5l-.55-2.4q-.15 2.2-1.45 3.25-2.3 2.05-5.15.75-.25-.05-.35-.45v-.05l.25-.5q1.45-1.15 1.75-2.9l-2.6.05-.35-.4q-.1-.3.1-.5 3.1-3.9 1.5-7.85l-.2-.65q-1.4-3 .25-4.25 1.8-1.15 4.4 1.5" fill="#3a0c07" fill-rule="evenodd" transform="translate(20.1 11.3)"/><path d="M12.65 8.65q4.75 5.9 3.65 11.65-.5-3.05-2.1-4.3.7 3.5-1.25 5.3-1.55 1.4-3.2 1.1 1-.85 1.95-5.05-1.2 1.5-2.8.8 2.65-3.6 1.45-7.55-.95-2.25-.15-3 .8-.8 2.45 1.05" fill="#ff7900" fill-rule="evenodd" transform="translate(20.1 11.3)"/><path d="M11.05 7.45q.7.15 1.6 1.2 4.75 5.9 3.65 11.65-.5-3.05-2.1-4.3.7 3.5-1.25 5.3-1.55 1.4-3.2 1.1l.7-.8q1.65-1.3 3-7.1-1.3 1.9-2.2 1.9 2.1-5.9-.2-8.95" fill="#c74200" fill-rule="evenodd" transform="translate(20.1 11.3)"/><path d="M8.9 3.7h2.45l.45.05q2.9 0 3.15 2.55.6 3.1-2.6 3.8-6.5 2.25-16.2 1.8l-8.9-.95-2.4-.75q-.6-.5-.9-1.85l-.15-1.1q0-.65.35-1.2.8-1.25 3.8-1.75 5-.9 20.95-.6" fill="#00141c" fill-rule="evenodd" transform="translate(20.1 11.3)"/><path d="m8.2-9.3.25.3 3.6 14.25-.15.5q-2 2-10.55 2.4-8.75.4-13.65-1.55l-.3-.5 1.4-7.1 1.95-7.85q.35-.65 3.05-1.5Q2.5-12.7 8.2-9.3" fill="#00141c" fill-rule="evenodd" transform="translate(20.1 11.3)"/><path d="M-2.3-9.8q5.95-.7 9.6 1.5l3.3 13.15Q8.9 6.55 1.15 6.9q-8 .35-12.35-1.35L-9.85-1l1.75-7.05q.6-1.15 5.8-1.75" fill="#33a02c" fill-rule="evenodd" transform="translate(20.1 11.3)"/><path d="M4.95-4.3q-1.7-.1-3.1-.95Q5.8-5.5 7.45-7.7L10.6 4.85Q8.75 6.7.45 6.95 2.4 5.6 3 1.35q.6-4.4 1.95-5.65" fill="#296300" fill-rule="evenodd" transform="translate(20.1 11.3)"/><path d="M10.2 4.55q2.7.15 2.9 1.95.45 2.35-2.3 2.8Q4.85 11.35-4 10.9l-7.65-.85-1.95-.55q-.4-.25-.6-1.3-.6-2.45 3.25-3.15 2.85-.5 21.15-.5" fill="#296300" fill-rule="evenodd" transform="translate(20.1 11.3)"/><path d="M10.2 4.55q2.45.15 2.8 1.35-10.5 6.55-27.3 1.3.1-1.6 3.35-2.15 2.85-.5 21.15-.5" fill="#79e26d" fill-rule="evenodd" transform="translate(20.1 11.3)"/><path d="M-12.05 2.85Q-11.5.5-10.7-.1-7.85 1.1.6.85 8.8.6 10.1-.45q.55.3 1.1 2.55t.35 3.3q-.75 1.4-8.7 2.05-8.9.75-14.75-1.4-.7-.8-.15-3.2" fill="#00141c" fill-rule="evenodd" transform="translate(20.1 11.3)"/><path d="M-15.05 6.55Q-11.35 9.05-.6 9q11.15-.1 14.45-3.3" fill="none" stroke="#00141c" stroke-linecap="round" stroke-linejoin="round" transform="translate(20.1 11.3)"/><path d="M-4.9-1.3v.05l-.05.05.05-.1m6-1.1q3.5.25 3.75 1.25 1.45 4.1-.1 8.05l.05-.1q-.05.85-2 1.15l-4.35.15q-2.95-.25-3.4-1.2-.6-.9-.6-4.05 0-3 .65-4.1.35-.9 3.15-1.1L1.1-2.4" fill="#3f0d03" fill-rule="evenodd" transform="translate(20.1 11.3)"/><path d="M3.7-.4q1.15 3.15-.05 6.55-.1.8-3.6.8-3.5.05-3.95-.85-.4-.75-.4-3.25 0-2.55.45-3.3.3-.8 3.85-.75 3.55 0 3.7.8" fill="#fc0" fill-rule="evenodd" transform="translate(20.1 11.3)"/><path d="M-1.1 5.2q-1.5 0-1.85-.95-.75-2.7.2-3.85.55-.65 2.8-.65 1.75.05 2.1 1.3L2.2 3.2q0 2.1-3.3 2" fill="#a87300" fill-rule="evenodd" transform="translate(20.1 11.3)"/><path d="M3.65 6.15q-.05.7-3.15.8-3.05.1-4.1-.6.2-.35.5-.35l4.75.4Q3.2 6.25 3.2 4.05q0-2.75.45-2.9l.4.25q.25 2.9-.4 4.75" fill="#a87300" fill-rule="evenodd" transform="translate(20.1 11.3)"/><path d="M1.05 5.25q-2.75.45-3.2-.5L-2.4 3.1q0-1.2.3-1.65h-.05l.05-.05v.05Q-1.8.7.35.9q1.5.05 1.65.6L2.2 3l-.25 1.65q-.05.5-.9.6" fill="#3f0d03" fill-rule="evenodd" transform="translate(20.1 11.3)"/><path d="M1.15 4.2q-2.3.4-2.5 0-.65-1.1 0-2.2 2.45-.35 2.5 0 .4 1.2 0 2.2" fill="#00141c" fill-rule="evenodd" transform="translate(20.1 11.3)"/><path d="M-8.65-8.45Q-5.05-6.85.8-7q5.6-.15 7.05-1.6" fill="none" stroke="#00141c" stroke-linecap="round" stroke-linejoin="round" transform="translate(20.1 11.3)"/><path d="m-20.1-1.85.2-1.5q.7-2.8 2.55-3.25 1.05-.25 2.35.8l-.05-.4q0-1.45.65-2.15.8-1 2.9-1h.2q2.45 0 3.3 2l.2.9-.3 1.05q.7-.25 1.3 0 1.8.7 2 3.75.15 2.7-1.3 3.55l-3.95-.15q-.1 2.65-1.75 3.55l-3.65.1q-2.2-1-2.25-2.8v-.05q0-.85.65-1.5Q-18.7 1-19.45.1q-.65-.8-.65-1.95" fill="#00141c" fill-rule="evenodd" transform="translate(20.1 11.3)"/><path d="m-18.6-1.1.1-1.95q.4-1.55 1.3-2.25 1.4-1 3.1 1.15-.85-3.8 2.65-3.8 1.2 0 2.1.95 1.25 1.25-.6 3.25 1.65-1.45 2.7-.5.9.8 1.05 2.6.25 5-4.6 2.3.15 2.8-1.6 3.55l-2.45-.1q-1.15-.55-1.6-1.5-.6-1.35 1.35-2.4-3 .5-3.5-1.3" fill="#24cf28" fill-rule="evenodd" transform="translate(20.1 11.3)"/><path d="M2.65-9.75q-2.5 1-1.8 2.2l-5.55-.4-1.95-.4q-.3-.45.9-.85l4.7-.75 3.35.2h.35m-8.25 3.5 3.75.25-.65.65.2 1.55q-.05.9.35 1.4l-2.3.45q.4-1.5-.25-3.1l1.25-.4-2.35-.8" fill="#79e26d" fill-rule="evenodd" transform="translate(20.1 11.3)"/><path d="M-9.5 2.3q.55.7 2.4.35v2.3l.3 1.7q-1.9-.3-2.7-.9.5-.05-.05-3.25l.05-.2M9.25.55l.7 4.35q-.15.55-1.55 1.15.65-.85.55-1.65l-.25.1q.35-.75-.05-2L8.25.9 9.4.3l-.15.25" fill="#50a393" fill-rule="evenodd" transform="translate(20.1 11.3)"/><path d="M2.65 3.15q0 2.15-.3 2.5l-3.5.1L1.7 5.1l.7-2.8.15.85h.1M2.3-1.1l.95.3-1.3.25-3.55.25q-1.65.4-2.05 1.85l-.3 3.2q-.25-.5-.15-2.2 0-2.4.55-2.9 1.1-1.1 5.85-.75" fill="#fff" fill-rule="evenodd" transform="translate(20.1 11.3)"/><path d="M-13.85-.6q-3.55.75-3.45-.75.05-.6.95-.65l.9.05q-1.85-1.3-1.35-2.25.95-1.75 3.6 1.6-.55-3.95.25-4.1 1.25-.25 1.1 2.15l.55-1.25q.7-1.1 1.5-.65.65.4.15 1.5L-11-2.3q1.2-1.05 2.3-1.2 1.3-.25 1.4 1.15.05 1.3-1.35 1.15l.7.25q.7.4.55 1.1-.2.8-1.5.55t-2.4-1.25l.2 1.95q-.05 1.7-1.7 1.9-.6.1-.55-1l.15-1.15q-1 2.25-2.1 1.4-.85-.65.05-1.7Q-14-.2-13.85-.6" fill="#245e28" fill-rule="evenodd" transform="translate(20.1 11.3)"/><path d="M-9.3-6.35q-.95-.6-2.4-.65-1.6-.1-2.1.65.55-1.35 2.15-1.3 1.6.05 2.35 1.3m-6.9.9Q-18.25-3.1-17.7-.1q-1.35-.7-.6-3.05.75-2.3 2.1-2.3" fill="#e3ffe4" fill-rule="evenodd" transform="translate(20.1 11.3)"/><path d="m-11.6-4.05.25 2.2 2.15.55-2.6.4q-.55.5-1.1 1.75.45-1.2.05-1.7l-2.05-.85q1.55-.25 2.1-.6t1.1-1.75h.1" fill="#24cf28" fill-rule="evenodd" transform="translate(20.1 11.3)"/><path d="m-13.7 11.05.1-.1 1.35.5q-2.95 2.2-3.5 4.55.1-2.5 2.05-4.95" fill="#ffe8d7" fill-rule="evenodd" transform="translate(20.1 11.3)"/></g></defs></svg>