<?xml version="1.0" encoding="UTF-8" standalone="no"?>
<svg xmlns:xlink="http://www.w3.org/1999/xlink" height="92.9px" width="100.7px" xmlns="http://www.w3.org/2000/svg">
  <g transform="matrix(1.0, 0.0, 0.0, 1.0, 38.65, 49.75)">
    <use height="18.75" transform="matrix(1.0, 0.0, 0.0, 1.0, -19.1, -6.2)" width="19.35" xlink:href="#sprite0"/>
    <use height="18.75" transform="matrix(-1.0, 0.0, 0.0, 1.0, 18.55, -6.2)" width="19.35" xlink:href="#sprite0"/>
  </g>
  <defs>
    <g id="sprite0" transform="matrix(1.0, 0.0, 0.0, 1.0, 6.2, 5.95)">
      <use height="18.75" transform="matrix(1.0, 0.0, 0.0, 1.0, -6.2, -5.95)" width="19.35" xlink:href="#shape0"/>
    </g>
    <g id="shape0" transform="matrix(1.0, 0.0, 0.0, 1.0, 6.2, 5.95)">
      <path d="M12.65 7.2 L12.45 7.2 2.5 -0.75 5.1 -0.75 2.55 -2.9 -3.15 -2.05 -5.7 -4.35 2.35 -5.45 8.5 0.0 6.45 0.0 6.45 0.15 12.65 5.35 12.65 7.2" fill="#cc0000" fill-rule="evenodd" stroke="none"/>
      <path d="M-3.15 -2.05 L2.55 -2.9 5.1 -0.75 2.5 -0.75 12.45 7.2 12.65 7.2 12.65 12.3 -3.15 -2.05" fill="#ffffff" fill-rule="evenodd" stroke="none"/>
      <path d="M12.65 5.35 L6.45 0.15 M6.45 0.0 L8.5 0.0 2.35 -5.45 -5.7 -4.35 -3.15 -2.05 12.65 12.3" fill="none" stroke="#000000" stroke-linecap="round" stroke-linejoin="round" stroke-width="1.0"/>
    </g>
  </defs>
</svg>
