<?xml version="1.0" encoding="UTF-8" standalone="no"?>
<svg xmlns:xlink="http://www.w3.org/1999/xlink" height="92.9px" width="100.7px" xmlns="http://www.w3.org/2000/svg">
  <g transform="matrix(1.0, 0.0, 0.0, 1.0, 38.65, 49.75)">
    <use height="30.4" transform="matrix(1.0, 0.0, 0.0, 1.0, -22.45, -20.2)" width="45.45" xlink:href="#sprite0"/>
  </g>
  <defs>
    <g id="sprite0" transform="matrix(1.0, 0.0, 0.0, 1.0, 22.75, 15.2)">
      <use height="28.95" transform="matrix(1.0, 0.0, 0.0, 1.0, -22.75, -15.15)" width="18.65" xlink:href="#sprite1"/>
      <use height="29.45" transform="matrix(1.0, 0.0, 0.0, 1.0, 3.5, -15.2)" width="19.2" xlink:href="#sprite2"/>
      <use height="13.55" transform="matrix(1.0, 0.0, 0.0, 1.0, -10.1, 1.65)" width="20.8" xlink:href="#sprite3"/>
    </g>
    <g id="sprite1" transform="matrix(1.0, 0.0, 0.0, 1.0, 10.75, 15.15)">
      <use height="28.95" transform="matrix(1.0, 0.0, 0.0, 1.0, -10.75, -15.15)" width="18.65" xlink:href="#shape0"/>
    </g>
    <g id="shape0" transform="matrix(1.0, 0.0, 0.0, 1.0, 10.75, 15.15)">
      <path d="M-9.0 -14.9 Q-7.25 -16.0 -2.9 -12.65 1.1 -9.5 3.15 -6.2 4.75 -3.65 7.0 2.9 L7.0 3.25 7.25 3.15 7.85 6.1 7.9 7.25 Q4.85 8.3 4.3 9.1 L4.35 9.0 2.25 10.9 -0.2 13.8 Q-0.05 11.55 1.25 9.9 -4.15 6.2 -7.45 0.9 -10.4 -3.9 -10.7 -8.95 -11.05 -13.65 -9.0 -14.9" fill="#4b271a" fill-rule="evenodd" stroke="none"/>
      <path d="M-3.85 -1.55 Q-2.7 -2.45 -2.5 -3.8 L-2.3 -5.75 Q-2.0 -6.6 -2.2 -8.05 -2.25 -8.7 -1.65 -8.05 L1.25 -4.6 Q3.75 -1.0 6.15 6.5 4.4 7.65 4.0 8.5 -1.8 4.15 -4.2 0.15 L-3.85 -1.55" fill="#4b271a" fill-rule="evenodd" stroke="none"/>
      <path d="M7.3 7.0 Q5.95 7.5 4.3 8.75 L2.95 9.9 Q-2.4 6.5 -6.15 0.9 -8.8 -3.1 -9.55 -8.3 -10.3 -13.2 -8.75 -14.0 -7.3 -14.8 -3.45 -11.85 0.55 -8.75 2.8 -4.75 5.95 0.9 7.3 7.0" fill="#8b594d" fill-rule="evenodd" stroke="none"/>
      <path d="M-5.15 -0.75 Q-6.8 -3.55 -7.65 -7.8 -8.5 -11.85 -7.75 -12.25 -7.1 -12.65 -4.05 -9.9 -1.0 -7.15 0.8 -4.5 3.15 -1.1 5.4 5.65 L2.75 7.95 Q-2.95 3.0 -5.15 -0.75" fill="#6e3d34" fill-rule="evenodd" stroke="none"/>
      <path d="M1.9 8.0 Q1.2 8.8 -1.85 5.4 -0.25 7.1 1.9 8.0" fill="#845746" fill-rule="evenodd" stroke="none"/>
      <path d="M-7.8 -5.7 Q-6.2 -0.15 -2.85 4.6 -11.35 -6.65 -9.15 -13.5 -8.3 -15.9 -8.8 -11.85 -9.05 -9.9 -7.8 -5.7" fill="#bc8a78" fill-rule="evenodd" stroke="none"/>
    </g>
    <g id="sprite2" transform="matrix(1.0, 0.0, 0.0, 1.0, 9.6, 14.75)">
      <use height="29.45" transform="matrix(1.0, 0.0, 0.0, 1.0, -9.6, -14.75)" width="19.2" xlink:href="#shape1"/>
    </g>
    <g id="shape1" transform="matrix(1.0, 0.0, 0.0, 1.0, 9.6, 14.75)">
      <path d="M9.45 -8.05 Q8.9 -3.1 6.7 0.65 4.15 5.15 -2.75 10.85 L-0.7 14.7 -3.55 11.5 Q-4.0 11.4 -4.95 10.9 -5.95 10.35 -7.25 9.9 -8.6 9.4 -9.55 8.05 -9.8 5.5 -8.9 4.3 L-8.85 4.35 Q-7.05 -2.5 -4.45 -6.1 -1.95 -9.5 1.55 -12.25 5.8 -15.55 7.9 -14.5 10.05 -13.35 9.45 -8.05" fill="#4b271a" fill-rule="evenodd" stroke="none"/>
      <path d="M8.1 -7.7 Q7.3 -2.55 4.65 1.45 0.9 7.1 -4.45 10.45 -6.65 8.35 -8.85 7.6 -7.45 1.45 -4.35 -4.15 -2.1 -8.2 1.95 -11.25 5.8 -14.2 7.3 -13.4 8.8 -12.6 8.1 -7.7" fill="#8b594d" fill-rule="evenodd" stroke="none"/>
      <path d="M3.65 -0.15 Q1.3 3.85 -5.1 9.2 -5.45 8.35 -7.2 7.2 -4.85 -0.3 -2.35 -3.9 -0.5 -6.6 2.6 -9.35 5.6 -12.05 6.3 -11.65 7.0 -11.25 6.2 -7.2 5.35 -2.95 3.65 -0.15" fill="#6e3d34" fill-rule="evenodd" stroke="none"/>
      <path d="M0.65 -8.25 Q-3.55 -4.2 -6.2 0.95 -0.15 -11.85 7.0 -13.05 7.5 -13.1 6.85 -12.65 6.25 -12.2 5.65 -12.0 3.85 -11.3 0.65 -8.25" fill="#bc8a78" fill-rule="evenodd" stroke="none"/>
    </g>
    <g id="sprite3" transform="matrix(1.0, 0.0, 0.0, 1.0, 15.35, -1.65)">
      <use height="13.55" transform="matrix(1.0, 0.0, 0.0, 1.0, -15.35, 1.65)" width="20.8" xlink:href="#shape2"/>
    </g>
    <g id="shape2" transform="matrix(1.0, 0.0, 0.0, 1.0, 15.35, -1.65)">
      <path d="M0.75 4.9 L1.4 5.55 Q0.65 5.75 0.65 6.75 0.65 7.55 1.9 8.65 L3.8 10.4 3.8 10.85 3.85 11.05 3.85 11.45 3.8 11.45 3.8 12.15 3.65 12.15 3.65 12.2 Q1.0 10.15 -0.7 10.45 -1.75 12.7 -4.25 15.2 -5.05 11.2 -6.2 10.15 -7.05 10.4 -7.75 11.05 L-8.75 12.3 -9.45 13.9 Q-10.7 11.35 -10.7 10.15 -12.05 10.35 -13.7 11.2 L-15.05 12.0 -15.0 10.95 -15.35 9.65 -15.2 9.65 -14.0 8.85 Q-13.95 8.1 -12.95 7.4 L-10.85 6.0 -12.0 4.45 -12.0 4.4 -12.35 4.3 Q-11.2 3.3 -9.85 3.1 L-7.7 3.15 -6.15 2.3 Q-4.35 1.5 -2.95 1.7 L-3.1 3.45 -1.0 3.9 0.75 4.9" fill="#4b271a" fill-rule="evenodd" stroke="none"/>
      <path d="M3.25 10.95 Q2.45 10.0 0.55 9.65 L-1.2 9.45 -3.95 13.7 Q-4.15 11.5 -5.25 10.05 L-6.25 9.05 -7.4 9.5 Q-8.75 10.3 -9.6 12.15 L-9.6 9.5 -11.25 9.5 Q-13.15 9.65 -14.4 10.7 -13.95 8.7 -12.1 7.05 L-10.35 5.8 -11.6 4.4 -10.5 4.05 -7.65 4.2 Q-6.95 3.5 -5.3 3.15 L-3.8 2.95 -3.85 4.2 Q-2.6 4.0 1.0 5.3 L-0.55 6.4 Q3.2 8.65 3.25 10.95" fill="#8b594d" fill-rule="evenodd" stroke="none"/>
      <path d="M-4.55 5.65 L0.7 8.45 -3.75 6.65 -3.55 10.8 Q-4.05 8.8 -5.4 7.45 L-6.7 6.5 -7.35 6.9 Q-8.25 7.75 -9.25 9.85 L-8.25 6.45 -10.45 7.25 Q-12.85 8.3 -14.05 9.85 L-13.0 8.05 Q-11.45 6.1 -8.85 5.3 -9.0 4.5 -10.3 4.4 L-11.6 4.4 -10.45 4.05 -7.55 4.15 Q-6.5 3.2 -3.9 2.9 -5.25 3.45 -5.75 4.05 L-6.0 4.55 -1.0 5.2 -4.55 5.65" fill="#bc8a78" fill-rule="evenodd" stroke="none"/>
      <path d="M3.25 10.95 Q3.15 8.4 -0.55 6.4 L1.0 5.3 -0.6 4.75 -0.4 3.95 2.4 5.05 Q1.25 5.8 0.75 6.5 L2.5 8.05 Q4.1 10.0 3.3 11.9 L3.25 10.95" fill="#4b271a" fill-rule="evenodd" stroke="none"/>
      <path d="M-15.0 10.9 Q-14.9 10.1 -14.4 9.05 -13.4 6.95 -11.45 5.9 L-12.6 4.25 -10.15 3.05 -10.0 3.95 -11.7 4.4 -10.35 5.8 -12.0 7.0 Q-13.75 8.6 -14.4 10.7 L-15.0 10.9" fill="#4b271a" fill-rule="evenodd" stroke="none"/>
      <path d="M-2.3 6.05 L-0.55 6.4 Q2.8 8.05 3.25 10.95 2.4 8.65 -0.05 7.15 L-2.3 6.05" fill="#6e3d34" fill-rule="evenodd" stroke="none"/>
      <path d="M-6.8 8.25 L-6.25 9.05 -9.6 12.15 Q-9.45 10.3 -8.1 9.1 L-6.8 8.25" fill="#6e3d34" fill-rule="evenodd" stroke="none"/>
      <path d="M-1.75 8.2 L-1.2 9.45 Q-2.5 12.45 -3.95 13.7 -1.85 11.4 -1.75 8.2" fill="#6e3d34" fill-rule="evenodd" stroke="none"/>
      <path d="M-14.25 10.55 Q-13.0 9.4 -11.05 8.95 L-9.4 8.7 -9.6 9.5 -12.95 9.95 -14.25 10.55" fill="#6e3d34" fill-rule="evenodd" stroke="none"/>
      <path d="M-12.0 4.6 L-10.45 5.7 Q-12.75 6.95 -13.75 8.75 L-14.25 10.25 -14.3 11.2 Q-15.1 9.3 -13.5 7.35 L-11.75 5.8 Q-12.25 5.1 -13.4 4.35 L-10.6 3.25 -10.4 4.05 -12.0 4.6" fill="#4b271a" fill-rule="evenodd" stroke="none"/>
    </g>
  </defs>
</svg>
