<?xml version="1.0" encoding="UTF-8" standalone="no"?>
<svg xmlns:xlink="http://www.w3.org/1999/xlink" height="92.9px" width="100.7px" xmlns="http://www.w3.org/2000/svg">
  <g transform="matrix(1.0, 0.0, 0.0, 1.0, 38.65, 49.75)">
    <use height="30.55" transform="matrix(1.0, 0.0, 0.0, 1.0, -21.2, -7.8)" width="42.85" xlink:href="#shape0"/>
    <use height="7.35" transform="matrix(0.615, -0.7853, 0.7853, 0.615, 13.2734, -2.114)" width="6.55" xlink:href="#sprite0"/>
    <use height="7.35" transform="matrix(0.7607, 0.5446, -0.5446, 0.7607, -18.777, 12.552)" width="6.55" xlink:href="#sprite1"/>
    <use height="6.2" transform="matrix(1.0, 0.0, 0.0, 1.0, -7.2, 4.8)" width="5.15" xlink:href="#sprite2"/>
  </g>
  <defs>
    <g id="shape0" transform="matrix(1.0, 0.0, 0.0, 1.0, 21.2, 7.8)">
      <path d="M5.75 -0.05 L6.1 -0.15 Q7.8 -0.05 9.6 0.6 13.45 1.95 15.25 4.05 L16.7 5.85 16.75 5.85 Q18.0 6.0 18.45 5.45 L18.45 5.4 18.75 4.6 18.75 4.55 Q17.2 2.2 14.45 0.1 L14.5 0.1 Q10.45 -2.65 6.5 -2.45 L6.15 -2.55 6.0 -2.8 6.0 -3.15 6.25 -3.4 Q10.4 -5.3 15.1 -3.1 L15.3 -2.85 15.35 -2.55 15.3 -2.4 15.25 -2.3 15.25 -2.2 14.8 -2.25 Q11.65 -3.5 9.35 -3.2 11.75 -2.75 14.2 -1.25 L14.3 -1.2 16.9 0.9 17.8 1.7 17.7 1.65 19.65 4.05 19.65 4.1 19.75 4.6 19.75 4.65 19.3 6.0 Q18.7 6.95 16.8 6.8 19.4 9.8 21.55 14.1 L21.65 14.5 Q21.65 15.5 21.3 16.2 L21.25 16.4 Q20.4 17.65 18.45 17.65 L18.0 17.55 17.9 17.3 17.9 17.5 Q18.35 19.1 18.4 21.3 L18.3 21.85 17.8 22.55 Q17.4 23.05 15.8 22.35 16.9 21.85 17.4 21.35 L17.4 21.3 Q17.35 18.45 16.55 16.7 L16.55 16.75 16.5 16.65 16.45 16.45 16.5 16.2 16.9 15.15 17.0 14.95 16.95 15.0 16.85 15.05 Q16.95 14.9 17.15 14.9 L18.45 16.65 18.45 16.7 18.5 16.7 18.45 16.65 Q19.75 16.65 20.35 15.9 L20.4 15.8 20.65 14.55 Q17.05 7.3 12.95 4.1 10.1 1.9 6.05 0.85 L5.95 0.85 5.65 0.65 5.55 0.3 5.75 -0.05 M7.85 -7.4 L7.8 -7.35 8.2 -7.45 8.2 -7.5 Q12.2 -8.25 14.5 -7.05 L16.95 -5.75 16.85 -5.75 16.8 -5.8 16.8 -5.75 16.7 -5.4 16.4 -5.25 16.1 -5.3 Q12.35 -7.2 8.4 -6.5 L8.45 -6.5 8.1 -6.4 8.05 -6.4 5.1 -5.45 Q1.85 -3.3 0.85 -1.9 L0.35 -1.15 0.05 -0.95 -0.35 -1.0 -4.25 -3.0 Q-8.5 -5.05 -13.15 -4.95 L-14.5 -4.85 -14.85 -4.9 -14.9 -4.95 Q-15.6 -4.25 -15.3 -3.45 L-15.3 -3.4 -14.9 -2.6 -14.85 -2.6 Q-12.95 -2.8 -10.85 -2.6 L-10.5 -2.4 -10.4 -2.1 -10.5 -1.75 -10.85 -1.6 Q-15.45 -1.15 -19.4 2.25 L-19.45 2.25 -19.35 2.95 -19.3 3.1 Q-19.2 3.65 -18.45 3.9 L-18.4 3.9 -18.3 3.85 Q-14.7 1.3 -10.9 0.7 L-10.55 0.8 -10.35 1.05 -10.4 1.4 -10.65 1.65 Q-17.55 4.85 -19.8 11.95 L-19.25 12.8 -19.0 12.95 -18.4 13.25 -18.3 13.35 -19.9 16.2 Q-20.4 17.2 -20.1 17.65 L-19.0 19.1 -18.55 19.45 -18.75 19.9 -18.85 19.95 -18.8 20.0 -18.9 20.15 -18.75 20.0 -17.4 20.5 -17.35 20.5 -15.6 20.5 Q-16.65 21.5 -17.0 21.5 L-17.35 21.5 -17.45 21.5 -18.0 21.45 Q-18.5 21.4 -19.0 20.85 L-19.55 20.1 -19.7 19.8 -20.3 19.1 -21.05 17.75 Q-21.35 17.05 -21.05 16.2 L-21.0 16.1 -19.55 13.85 -19.5 13.8 -20.7 12.65 -20.85 12.4 -20.9 12.15 -20.8 11.7 Q-19.05 6.15 -12.9 1.9 -16.25 3.6 -17.8 4.7 L-17.85 4.75 -18.05 4.85 -18.3 4.9 -18.55 4.9 -18.7 4.9 Q-20.15 4.4 -20.3 3.25 L-20.45 2.15 -20.45 1.8 -19.95 1.4 Q-17.6 -0.6 -15.05 -1.6 L-15.3 -1.7 -15.65 -1.95 -15.7 -2.0 Q-16.2 -2.65 -16.3 -3.2 -16.75 -4.5 -15.6 -5.65 L-15.45 -5.8 -14.85 -5.85 -13.15 -5.95 Q-8.3 -6.05 -3.8 -3.9 L-0.1 -2.05 -0.1 -1.95 Q1.1 -4.0 4.55 -6.3 L4.6 -6.35 Q5.85 -7.05 7.85 -7.4 M-18.3 13.35 L-18.25 13.35 -18.2 13.4 -18.2 13.6 -18.25 13.35 -18.3 13.6 -18.3 13.35" fill="#000000" fill-rule="evenodd" stroke="none"/>
      <path d="M-15.35 -3.45 Q-15.6 -4.25 -14.9 -4.95 -14.8 -4.85 -14.65 -4.85 L-13.15 -4.95 Q-4.3 -3.15 -0.85 -0.1 L-0.9 -0.05 -0.55 0.0 -1.15 0.1 -1.35 0.25 Q-4.4 2.85 -5.7 9.8 -4.4 2.85 -1.35 0.25 L-1.15 0.1 Q-3.8 3.6 -5.35 9.95 L-5.7 9.8 -6.1 9.5 Q-5.15 4.7 -3.8 2.4 L-3.15 1.4 Q-7.2 2.6 -9.95 4.7 -12.7 6.8 -14.95 10.8 -17.25 14.8 -18.05 17.55 -17.35 17.65 -16.9 17.15 -15.6 13.65 -13.95 10.95 -16.0 15.45 -17.35 20.5 L-18.55 19.8 -18.05 17.55 -18.45 17.4 -18.75 17.2 Q-14.95 8.15 -11.5 5.3 -8.05 2.4 -4.3 1.05 L-7.15 0.55 -8.5 0.5 Q-13.6 0.5 -18.4 3.9 -19.2 3.65 -19.35 3.0 -10.85 -2.95 -3.2 -0.6 L-3.65 -0.75 Q-9.2 -4.25 -15.35 -3.45 M18.75 -2.4 L18.6 -2.25 Q18.3 -1.95 17.65 -1.8 L17.35 -1.8 Q10.1 -6.7 4.0 -2.1 L2.55 -0.85 Q11.6 -2.95 18.45 5.4 18.0 6.0 16.75 5.85 13.7 2.05 9.4 0.75 6.6 -0.15 4.15 0.25 L2.65 0.6 1.5 0.2 1.75 -0.05 1.45 0.2 0.85 0.05 Q6.35 3.1 8.45 6.6 10.05 9.3 10.55 13.85 L10.05 13.9 9.5 13.8 Q7.35 3.8 -0.45 1.1 L0.05 0.55 0.1 0.45 -0.5 0.0 0.15 0.0 Q2.7 -4.35 9.55 -5.9 14.1 -5.6 18.75 -2.4 M20.35 15.8 Q19.8 16.65 18.45 16.65 17.0 13.6 15.6 11.8 14.35 8.8 12.5 6.65 10.8 4.7 9.1 3.45 14.5 4.9 20.35 15.8 M16.2 21.9 L14.8 21.55 14.5 19.3 14.95 19.0 Q15.2 18.4 14.85 16.85 L14.25 16.65 Q13.25 10.1 9.6 7.05 8.85 5.5 7.8 4.3 10.3 5.6 12.85 9.1 14.75 11.95 16.05 16.65 L15.4 16.85 Q16.15 18.9 16.2 21.9 M13.6 19.6 Q12.75 19.65 11.8 19.1 12.55 16.35 11.35 13.25 L11.45 13.05 11.25 11.95 10.55 9.4 Q13.6 15.2 13.6 19.6 M-12.35 17.25 L-13.25 17.05 Q-12.9 13.3 -9.75 5.8 L-8.35 4.7 Q-12.2 13.1 -12.35 17.25 M-18.8 13.0 L-19.5 12.55 Q-18.05 8.4 -15.45 5.8 -12.5 2.55 -8.6 0.95 L-13.7 5.05 Q-16.95 7.8 -18.8 13.0 M10.05 13.9 Q9.5 9.95 7.2 6.4 4.9 2.8 0.05 0.55 4.9 2.8 7.2 6.4 9.5 9.95 10.05 13.9" fill="#592d00" fill-rule="evenodd" stroke="none"/>
      <path d="M-19.35 3.0 L-19.45 2.2 Q-13.5 -2.8 -6.15 -1.4 -10.4 -3.1 -14.9 -2.6 L-15.35 -3.45 Q-9.2 -4.25 -3.65 -0.75 L-3.2 -0.6 Q-10.85 -2.95 -19.35 3.0 M-0.15 -1.15 Q2.05 -4.1 5.0 -5.45 L9.55 -5.9 Q2.7 -4.35 0.15 0.0 L-0.5 0.0 -0.55 0.0 -0.9 -0.05 -0.85 -0.1 -0.15 -1.15 M-13.25 17.05 L-13.85 16.7 -13.4 14.45 Q-12.35 9.8 -9.8 5.85 L-9.75 5.8 Q-12.9 13.3 -13.25 17.05 M-18.75 17.2 L-18.8 17.15 -19.2 16.95 -17.55 13.1 Q-14.7 6.9 -11.95 4.7 -8.2 1.8 -4.3 1.05 -8.05 2.4 -11.5 5.3 -14.95 8.15 -18.75 17.2 M-19.5 12.55 L-19.9 12.05 Q-17.2 3.65 -8.5 0.5 L-7.15 0.55 -8.6 0.95 Q-12.5 2.55 -15.45 5.8 -18.05 8.4 -19.5 12.55" fill="#cc6600" fill-rule="evenodd" stroke="none"/>
      <path d="M-13.15 -4.95 Q-6.75 -5.3 -0.15 -1.15 L-0.85 -0.1 Q-4.3 -3.15 -13.15 -4.95 M5.0 -5.45 Q6.35 -6.1 7.85 -6.4 13.5 -7.7 18.75 -3.55 L18.75 -2.45 18.75 -2.4 Q14.1 -5.6 9.55 -5.9 L5.0 -5.45 M4.0 -2.1 Q9.25 -3.5 14.45 0.1 17.2 2.25 18.75 4.55 L18.45 5.4 Q11.6 -2.95 2.55 -0.85 L4.0 -2.1 M4.15 0.25 Q9.2 1.15 12.95 4.1 17.05 7.3 20.65 14.5 L20.35 15.8 Q14.5 4.9 9.1 3.45 10.8 4.7 12.5 6.65 14.35 8.8 15.6 11.8 L16.75 15.55 16.4 16.35 16.55 16.7 Q17.35 18.45 17.4 21.3 16.9 21.85 16.2 21.9 16.15 18.9 15.4 16.85 L16.05 16.65 Q14.75 11.95 12.85 9.1 10.3 5.6 7.8 4.3 8.85 5.5 9.6 7.05 13.25 10.1 14.25 16.65 L14.85 16.85 Q15.2 18.4 14.95 19.0 L14.5 19.3 13.6 19.6 Q13.6 15.2 10.55 9.4 L11.25 11.95 11.35 13.25 10.55 13.85 Q10.05 9.3 8.45 6.6 6.35 3.1 0.85 0.05 L1.45 0.2 1.5 0.2 2.65 0.6 4.15 0.25 M-0.45 1.1 Q-3.4 4.8 -4.3 9.7 L-5.35 9.95 Q-3.8 3.6 -1.15 0.1 L-0.55 0.0 -0.5 0.0 0.1 0.45 0.05 0.55 -0.45 1.1 M-3.8 2.4 Q-5.2 2.85 -6.5 3.55 -10.05 9.1 -11.15 16.7 -11.75 17.15 -12.35 17.25 -12.2 13.1 -8.35 4.7 L-9.75 5.8 -9.8 5.85 Q-12.35 9.8 -13.4 14.45 -15.6 17.45 -16.0 20.25 L-17.0 20.5 -17.35 20.5 Q-16.0 15.45 -13.95 10.95 -15.6 13.65 -16.9 17.15 -17.35 17.65 -18.05 17.55 -17.25 14.8 -14.95 10.8 -12.7 6.8 -9.95 4.7 -7.2 2.6 -3.15 1.4 L-3.8 2.4 M-17.55 13.1 L-18.8 13.0 Q-16.95 7.8 -13.7 5.05 L-8.6 0.95 -7.15 0.55 -4.3 1.05 Q-8.2 1.8 -11.95 4.7 -14.7 6.9 -17.55 13.1" fill="#422100" fill-rule="evenodd" stroke="none"/>
      <path d="M18.75 -2.45 L18.75 -2.4 M10.55 13.85 L10.05 13.9 M-5.7 9.8 L-6.1 9.5 M-6.5 3.55 Q-10.05 9.1 -11.15 16.7 -11.75 17.15 -12.35 17.25 L-13.25 17.05 -13.85 16.7 -13.4 14.45 Q-15.6 17.45 -16.0 20.25 L-17.0 20.5 -17.35 20.5 -18.55 19.8 -18.05 17.55 -18.45 17.4 -18.75 17.2 -18.8 17.15 -19.2 16.95 M-19.5 12.55 L-19.9 12.05 M-13.4 14.45 Q-12.35 9.8 -9.8 5.85 L-9.75 5.8" fill="none" stroke="#351b00" stroke-linecap="round" stroke-linejoin="round" stroke-width="1.0"/>
      <path d="M-19.35 3.0 Q-10.85 -2.95 -3.2 -0.6 M0.05 0.55 Q4.9 2.8 7.2 6.4 9.5 9.95 10.05 13.9 M-5.7 9.8 Q-4.4 2.85 -1.35 0.25 L-1.15 0.1 M-9.75 5.8 Q-12.9 13.3 -13.25 17.05 M-4.3 1.05 Q-8.05 2.4 -11.5 5.3 -14.95 8.15 -18.75 17.2 M-8.6 0.95 Q-12.5 2.55 -15.45 5.8 -18.05 8.4 -19.5 12.55" fill="none" stroke="#cc6600" stroke-linecap="round" stroke-linejoin="round" stroke-width="0.25"/>
      <path d="M0.1 0.45 L0.05 0.55" fill="none" stroke="#351b00" stroke-linecap="round" stroke-linejoin="round" stroke-width="1.0"/>
      <path d="M-0.85 -0.1 Q-4.3 -3.15 -13.15 -4.95 M9.55 -5.9 L5.0 -5.45 M2.55 -0.85 Q11.6 -2.95 18.45 5.4 M18.75 -2.4 Q14.1 -5.6 9.55 -5.9 M9.1 3.45 Q14.5 4.9 20.35 15.8 M10.55 9.4 Q13.6 15.2 13.6 19.6 M10.55 13.85 Q10.05 9.3 8.45 6.6 6.35 3.1 0.85 0.05 M7.8 4.3 Q10.3 5.6 12.85 9.1 14.75 11.95 16.05 16.65 M15.4 16.85 Q16.15 18.9 16.2 21.9 M-1.15 0.1 L-0.55 0.0 M-8.35 4.7 Q-12.2 13.1 -12.35 17.25 M-8.6 0.95 L-7.15 0.55 M-5.35 9.95 Q-3.8 3.6 -1.15 0.1 M-18.05 17.55 Q-17.25 14.8 -14.95 10.8 -12.7 6.8 -9.95 4.7 -7.2 2.6 -3.15 1.4 M-17.35 20.5 Q-16.0 15.45 -13.95 10.95 M-18.8 13.0 Q-16.95 7.8 -13.7 5.05 L-8.6 0.95" fill="none" stroke="#422100" stroke-linecap="round" stroke-linejoin="round" stroke-width="0.25"/>
      <path d="M-1.05 0.05 Q-2.1 0.8 -3.3 2.35 -5.0 5.0 -5.9 9.05 -5.6 8.3 -5.8 9.05 L-5.45 9.4 -5.2 9.5 -5.25 9.45 -4.75 9.4 Q-3.8 4.5 0.3 0.15 L0.4 0.2 0.55 0.55 0.55 0.65 0.4 0.9 0.05 1.3 Q-3.0 5.4 -3.8 9.8 L-4.0 10.1 -5.45 10.45 -5.95 10.25 -6.15 10.0 -6.2 10.0 -6.5 9.8 -6.6 9.4 Q-5.75 5.2 -3.35 1.35 L-3.4 1.45 -3.3 1.3 -3.25 1.25 -1.25 -0.25 -1.05 0.05" fill="#351b00" fill-rule="evenodd" stroke="none"/>
      <path d="M1.2 0.1 L1.05 0.45 1.2 0.15 1.2 0.1 M7.95 -6.9 L8.3 -7.0 Q13.8 -8.05 19.0 -4.0 L19.2 -3.85 19.35 -3.6 Q19.55 -2.7 19.2 -2.15 L19.05 -2.05 18.95 -1.9 Q18.6 -1.5 17.8 -1.3 L17.65 -1.3 17.35 -1.3 17.1 -1.35 Q10.15 -6.05 4.3 -1.7 L2.9 -0.5 2.85 -0.45 2.15 0.25 2.0 0.4 1.9 0.4 1.8 0.55 1.45 0.7 1.1 0.55 1.05 0.5 Q1.55 -0.1 1.15 0.45 4.6 -3.15 5.95 -4.0 11.05 -6.6 17.55 -2.3 L17.65 -2.3 Q18.05 -2.4 18.25 -2.6 L18.3 -2.6 18.35 -2.7 18.4 -3.15 Q13.35 -7.15 7.3 -6.1 L5.75 -5.55 6.55 -6.0 4.95 -5.15 4.9 -5.15 4.8 -5.1 Q3.0 -3.8 0.1 -0.8 0.15 -1.1 -0.25 -0.7 0.2 -1.3 -0.45 -0.75 L-0.6 -0.8 0.45 -2.2 Q1.5 -3.65 4.8 -5.9 6.05 -6.55 7.95 -6.9" fill="#351b00" fill-rule="evenodd" stroke="none"/>
      <path d="M4.1 -2.3 L4.45 -2.7 Q9.6 -3.85 14.75 -0.3 17.6 1.9 19.2 4.3 L19.25 4.6 18.85 5.7 Q18.3 6.55 16.7 6.35 16.5 6.35 14.85 4.35 13.15 2.35 9.4 1.05 5.8 -0.2 2.3 0.65 L2.3 0.45 Q3.35 -0.15 4.1 -0.25 6.65 -0.65 9.55 0.3 13.9 1.6 17.05 5.4 L18.05 5.1 18.25 4.7 Q16.75 2.5 14.2 0.15 L14.25 0.3 Q10.5 -2.75 4.1 -2.3" fill="#351b00" fill-rule="evenodd" stroke="none"/>
      <path d="M11.05 9.25 L11.75 11.85 11.75 11.9 11.85 13.2 11.75 13.55 10.7 14.35 10.35 14.3 10.05 14.4 9.35 14.3 9.15 14.15 9.0 13.9 Q6.9 4.25 -0.6 1.5 L-0.4 1.05 Q7.7 3.55 9.5 13.4 L10.05 13.4 10.25 13.45 10.4 13.4 11.25 12.9 11.3 12.95 Q10.75 10.2 10.25 9.3 L9.1 7.05 7.45 4.65 6.0 3.25 Q4.8 2.3 3.15 1.3 L3.2 1.25 3.2 0.9 3.5 0.65 3.9 0.65 Q5.15 1.3 6.6 2.45 L8.2 4.0 10.05 6.85 11.05 9.25" fill="#351b00" fill-rule="evenodd" stroke="none"/>
      <path d="M-11.15 6.7 L-11.1 6.65 -10.7 6.3 -10.45 6.1 -10.4 6.05 Q-7.8 3.75 -5.15 2.8 L-3.65 2.4 -3.95 3.0 -6.25 4.0 Q-7.2 4.5 -8.05 5.1 L-8.05 5.15 -9.4 6.2 Q-11.7 8.2 -13.5 11.2 -15.15 13.85 -16.4 17.35 L-16.5 17.5 Q-17.15 18.2 -18.1 18.05 L-18.4 17.9 -18.6 17.9 -19.5 17.35 -19.65 17.1 -19.65 16.8 -18.0 12.9 Q-15.05 6.7 -11.7 4.2 -8.7 1.95 -4.65 0.95 L-4.45 1.0 Q-3.75 1.3 -3.1 1.7 L-3.3 1.9 Q-3.8 1.7 -4.25 1.6 -8.05 2.3 -11.3 4.95 -14.6 7.55 -17.4 13.05 L-17.25 12.8 -18.95 16.55 -18.25 16.95 -18.1 17.05 -17.95 17.05 -16.9 17.1 Q-15.65 13.75 -14.1 10.95 -12.65 8.3 -11.15 6.7" fill="#351b00" fill-rule="evenodd" stroke="none"/>
      <path d="M-8.7 0.35 L-8.2 0.5 -8.1 0.6 Q-16.75 4.0 -19.65 11.6 L-19.1 12.25 -18.6 12.5 -17.8 12.65 -17.3 12.65 -17.75 13.65 -19.05 13.45 -19.85 12.9 -20.15 12.5 -20.15 12.45 -20.2 12.45 -20.35 12.3 -20.35 12.25 -20.4 12.15 -20.35 11.9 Q-17.65 3.45 -8.7 0.35" fill="#351b00" fill-rule="evenodd" stroke="none"/>
      <path d="M-6.05 -1.9 L-5.25 -1.7 -3.5 -1.2 -3.25 -1.1 -3.0 -1.05 -1.3 -0.35 -1.0 -0.05 -1.45 0.2 -1.7 0.15 -3.95 -0.7 -5.5 -1.1 -5.45 -1.1 -5.85 -1.15 -5.95 -1.2 -6.0 -1.2 Q-13.3 -2.25 -19.1 2.1 -19.4 2.2 -19.15 2.8 L-18.9 3.3 -18.45 3.75 Q-13.1 0.35 -8.6 0.45 L-5.45 0.75 -3.1 1.2 -2.9 1.4 -3.05 1.55 -3.2 1.75 -3.45 1.75 -3.8 1.7 -7.15 1.05 -7.2 1.05 -8.45 1.0 -8.5 1.0 Q-13.45 1.0 -18.1 4.3 L-18.3 4.4 -18.55 4.4 Q-19.65 4.05 -19.8 3.15 L-19.95 2.15 -19.75 1.85 Q-13.65 -3.35 -6.05 -1.9" fill="#351b00" fill-rule="evenodd" stroke="none"/>
      <path d="M16.6 17.0 L15.5 17.35 Q15.7 18.65 15.4 19.2 L15.2 19.45 14.6 19.75 14.85 21.2 16.2 21.4 17.3 21.0 Q17.3 18.8 16.6 17.0 M12.9 6.35 Q14.75 8.5 16.05 11.55 17.35 13.25 18.4 16.3 19.55 16.05 19.95 15.55 L20.6 14.4 Q16.5 7.3 12.85 4.35 9.2 1.4 5.15 0.9 7.85 1.9 9.4 3.05 11.15 4.35 12.9 6.35 M-0.9 -0.55 L-0.85 -0.6 -0.95 -0.55 -0.9 -0.55 M0.35 -1.15 L0.1 -0.6 -0.1 -0.35 0.95 -0.45 1.5 -0.3 1.65 -0.25 2.85 0.15 Q3.3 0.3 3.8 0.6 L3.75 0.55 3.65 0.15 3.8 -0.05 3.8 -0.1 3.85 -0.1 Q9.6 0.8 13.25 3.7 17.45 6.95 21.1 14.3 L21.15 14.5 Q21.15 15.45 20.8 16.05 L20.8 16.1 Q20.1 17.15 18.45 17.15 L18.2 17.1 18.0 16.9 17.25 15.35 17.25 15.45 17.25 15.7 16.95 16.4 17.0 16.5 Q17.85 18.35 17.9 21.3 L17.8 21.65 Q17.15 22.35 16.25 22.4 L16.2 22.4 14.6 22.0 14.4 21.85 14.3 21.65 14.1 20.0 13.7 20.1 13.65 20.1 11.55 19.55 11.35 19.3 11.35 19.0 Q12.0 16.4 10.95 13.55 L11.55 12.6 11.45 12.45 11.45 12.3 11.55 12.45 Q13.0 16.2 12.4 18.85 L13.5 19.1 14.25 18.9 14.45 18.8 14.65 18.5 14.4 17.25 14.1 17.15 13.9 17.0 13.75 16.75 Q12.8 10.45 9.5 7.1 L9.35 6.65 9.55 6.55 9.5 6.6 Q13.65 9.75 14.7 16.3 L14.95 16.35 15.3 16.35 15.4 16.35 15.8 16.25 16.0 16.05 16.5 15.35 15.85 12.75 14.65 10.35 12.1 6.8 Q10.35 4.85 8.3 3.4 6.2 1.95 3.6 1.6 L3.4 1.55 Q2.95 1.25 2.5 1.1 L2.45 1.05 1.45 0.7 1.35 0.7 0.8 0.55 0.2 0.95 0.1 0.65 -0.2 0.2 -0.65 0.05 -1.35 0.3 -2.0 0.6 Q-2.25 0.6 -1.85 0.1 L-0.3 -1.2 Q-7.1 -4.75 -14.85 -4.85 -15.4 -3.85 -14.8 -2.7 L-14.8 -2.8 -14.8 -2.85 Q-14.8 -3.1 -14.75 -2.85 L-14.75 -2.75 Q-9.5 -3.05 -7.3 -2.15 L-5.7 -1.55 -5.95 -1.5 -6.2 -1.45 -6.4 -1.35 Q-11.0 -2.5 -14.85 -2.1 L-15.1 -2.15 -15.3 -2.3 -15.8 -3.3 Q-16.2 -4.35 -15.25 -5.3 L-14.9 -5.45 -14.6 -5.35 -13.15 -5.45 Q-8.4 -5.55 -4.05 -3.45 0.3 -1.35 0.35 -1.15" fill="#351b00" fill-rule="evenodd" stroke="none"/>
    </g>
    <g id="sprite0" transform="matrix(1.0, 0.0, 0.0, 1.0, 3.35, 3.65)">
      <use height="7.35" transform="matrix(1.0, 0.0, 0.0, 1.0, -3.35, -3.65)" width="6.55" xlink:href="#shape1"/>
    </g>
    <g id="shape1" transform="matrix(1.0, 0.0, 0.0, 1.0, 3.35, 3.65)">
      <path d="M2.1 -2.3 L2.45 1.05 0.7 2.55 -0.4 2.95 -1.65 2.65 -2.05 2.5 -2.3 2.1 -2.35 1.95 -2.6 -1.15 Q-2.15 -2.25 -0.9 -2.0 L0.65 -2.2 1.8 -2.9 2.1 -2.3" fill="#336600" fill-rule="evenodd" stroke="none"/>
      <path d="M2.1 -2.3 L2.45 1.05 0.7 2.55 -0.4 2.95 -1.65 2.65 -2.05 2.5 -2.3 2.1 -2.35 1.95 -2.6 -1.15 Q-2.15 -2.25 -0.9 -2.0 L0.65 -2.2 1.8 -2.9 2.1 -2.3 Z" fill="none" stroke="#201000" stroke-linecap="round" stroke-linejoin="round" stroke-width="1.5"/>
      <path d="M2.05 0.35 Q0.05 2.8 -1.9 1.55 L-2.1 -1.5 Q0.1 -0.9 1.8 -2.65 L2.05 0.35" fill="#336600" fill-rule="evenodd" stroke="none"/>
      <path d="M-1.9 1.55 L-2.1 -1.5 Q0.1 -0.9 1.8 -2.65 L2.05 0.35" fill="none" stroke="#336600" stroke-linecap="round" stroke-linejoin="round" stroke-width="1.0"/>
      <path d="M2.05 0.35 Q0.05 2.8 -1.9 1.55 Z" fill="none" stroke="#336600" stroke-linecap="round" stroke-linejoin="round" stroke-width="1.0"/>
      <path d="M2.5 -1.2 L2.55 -0.05 Q-0.3 2.15 -2.4 1.25 L-2.5 0.0 Q-0.1 1.05 2.5 -1.2" fill="#ffff33" fill-rule="evenodd" stroke="none"/>
      <path d="M-1.85 -1.9 Q-2.1 -0.25 -1.7 2.0 L-0.75 2.45 Q-1.3 0.25 -1.25 -1.6 L-1.85 -1.9" fill="#ffffff" fill-opacity="0.56078434" fill-rule="evenodd" stroke="none"/>
    </g>
    <g id="sprite1" transform="matrix(1.0, 0.0, 0.0, 1.0, 3.3, 3.55)">
      <use height="7.35" transform="matrix(1.0, 0.0, 0.0, 1.0, -3.3, -3.55)" width="6.55" xlink:href="#shape2"/>
    </g>
    <g id="shape2" transform="matrix(1.0, 0.0, 0.0, 1.0, 3.3, 3.55)">
      <path d="M2.15 -2.2 L2.5 1.15 0.75 2.65 -0.35 3.05 -1.6 2.75 -2.0 2.6 -2.25 2.2 -2.3 2.05 -2.55 -1.05 Q-2.1 -2.15 -0.85 -1.9 L0.7 -2.1 1.85 -2.8 2.15 -2.2" fill="#336600" fill-rule="evenodd" stroke="none"/>
      <path d="M2.15 -2.2 L2.5 1.15 0.75 2.65 -0.35 3.05 -1.6 2.75 -2.0 2.6 -2.25 2.2 -2.3 2.05 -2.55 -1.05 Q-2.1 -2.15 -0.85 -1.9 L0.7 -2.1 1.85 -2.8 2.15 -2.2 Z" fill="none" stroke="#201000" stroke-linecap="round" stroke-linejoin="round" stroke-width="1.5"/>
      <path d="M-2.2 -1.2 Q-0.25 -0.85 2.1 -2.4 L2.3 0.5 Q0.05 2.8 -2.0 1.6 L-2.2 -1.2" fill="#b70000" fill-rule="evenodd" stroke="none"/>
      <path d="M-2.55 -1.3 L-2.55 -1.35 -2.45 -1.65 -2.3 -1.8 -2.2 -1.85 -1.9 -1.85 Q-0.05 -1.35 1.5 -2.9 L1.85 -3.05 2.15 -2.95 2.2 -2.9 2.35 -2.6 2.6 0.4 2.5 0.8 2.45 0.8 2.3 1.0 2.3 0.5 2.1 -2.4 Q-0.25 -0.85 -2.2 -1.2 L-2.55 -1.3" fill="#880000" fill-rule="evenodd" stroke="none"/>
      <path d="M-2.55 -1.3 L-2.2 -1.2 -2.0 1.6 Q0.05 2.8 2.3 0.5 L2.3 1.0 Q0.1 3.45 -1.95 2.2 -2.05 2.1 -2.1 2.1 L-2.35 1.75 -2.35 1.6 -2.55 -1.3" fill="#fd0000" fill-rule="evenodd" stroke="none"/>
      <path d="M-1.8 -1.8 Q-2.05 -0.15 -1.65 2.1 -1.2 2.3 -0.7 2.55 -1.25 0.35 -1.2 -1.5 L-1.8 -1.8" fill="#ffffff" fill-opacity="0.56078434" fill-rule="evenodd" stroke="none"/>
    </g>
    <g id="sprite2" transform="matrix(1.0, 0.0, 0.0, 1.0, 2.55, 3.1)">
      <use height="6.2" transform="matrix(1.0, 0.0, 0.0, 1.0, -2.55, -3.1)" width="5.15" xlink:href="#shape3"/>
    </g>
    <g id="shape3" transform="matrix(1.0, 0.0, 0.0, 1.0, 2.55, 3.1)">
      <path d="M0.3 -2.3 L2.15 -2.15 2.4 -1.9 2.4 -1.85 2.55 -1.75 2.55 -1.65 2.6 -1.35 2.2 1.9 2.15 1.95 2.05 2.35 1.8 2.55 1.65 2.7 1.5 2.8 1.05 2.9 Q-1.2 3.7 -2.3 1.55 L-2.35 1.5 -2.45 1.2 -2.55 0.65 -2.55 0.25 -2.55 0.15 -1.3 -2.8 -1.25 -2.8 -1.25 -2.85 -0.9 -3.1 -0.4 -2.85 0.3 -2.3" fill="#000000" fill-rule="evenodd" stroke="none"/>
      <path d="M0.9 2.35 Q-0.95 2.95 -1.9 1.25 L-2.05 1.0 -2.1 0.75 -2.05 0.4 -1.35 -2.25 -1.35 -2.3 -1.0 -1.9 -1.75 0.65 Q-1.25 2.05 1.05 1.8 L0.9 2.35" fill="#ffd737" fill-rule="evenodd" stroke="none"/>
      <path d="M-1.35 -2.3 L-1.15 -2.6 -0.95 -2.7 Q0.25 -1.4 1.8 -1.45 L2.1 -1.5 2.25 -1.35 2.25 -0.9 1.65 1.75 1.5 2.05 1.3 2.2 0.9 2.35 1.05 1.8 1.65 -0.9 Q0.2 -0.65 -1.0 -1.9 L-1.35 -2.3" fill="#c69e00" fill-rule="evenodd" stroke="none"/>
      <path d="M-1.0 -1.9 Q0.2 -0.65 1.65 -0.9 L1.05 1.8 Q-1.25 2.05 -1.75 0.65 L-1.0 -1.9" fill="#ffcc00" fill-rule="evenodd" stroke="none"/>
      <path d="M-0.35 -1.4 L-1.1 -2.0 -1.6 1.05 Q-1.15 1.95 -0.65 2.25 L-0.35 -1.4" fill="#ffffff" fill-opacity="0.5921569" fill-rule="evenodd" stroke="none"/>
    </g>
  </defs>
</svg>
