<svg xmlns:xlink="http://www.w3.org/1999/xlink" height="92.9" width="100.7" xmlns="http://www.w3.org/2000/svg"><use height="32.35" transform="translate(19.25 38.65)" width="40.4" xlink:href="#a"/><defs><g id="a" fill-rule="evenodd"><path d="m12.4-9.3.55.15.1.3v.1H13l-.15.35-2.4 1.9 4.2-.55 3.4-.4.55.15.1.35-.05.25-.2.4q-.6 1.35-2.25 2.25 2.7.6 4.65 2.75l.15.35-.05.2q-.15.3-.5.3l-1.95.8q-2.9 1.6-4.75 1.6 1.1 1.1 3.8 1.3l.5.4v.1l-.25.45q-5.3 3.1-11.35-.35l-.2-.2q-.85-1.3-4.2-1.7-4.85-.6-10.45 2.9-1.45 1-3.8 1.55l-5.1-.2-.3-.5v-.05l.4-.45q1.65-.4 3.1-1.35l-1.7-.5q-1.25-.6-3-.35-.3.1-.45-.15l-.15-.35.05-.15q.8-2.4 3.4-3.85-2.25-.3-3.2-1.3l-.1-.35.05-.25.5-.3 1.6-.05q1.9-.2 3.85-.9-1.4-.65-2.85-2.1l-.15-.35.1-.3q.2-.4.55-.2l4.95.15 5.3.35-.95-1.7-.1-.3.05-.2.4-.3 3.8-1.2.15-.05q.4-.1.9 1.15l1.8 4 .35-2.75v-.15q0-.4.35-.5 2.8-1.1 4.1-2l.65.05.15.4-.05.25q-.5.75-1.35 3.75Q7.15-9.1 9-10.45l.7.05q1.25 1.1 2.7 1.1l-.1.05.15-.05h-.05.05l-.15.05.1-.05q-1.45 0-2.7-1.1l-.7-.05Q7.15-9.1 4.9-6.65q.85-3 1.35-3.75l.05-.25-.15-.4-.65-.05q-1.3.9-4.1 2-.35.1-.35.5v.15L.7-5.7l-1.8-4q-.5-1.25-.9-1.15l-.15.05-3.8 1.2-.4.3-.05.2.1.3.95 1.7-5.3-.35-4.95-.15q-.35-.2-.55.2l-.1.3.15.35q1.45 1.45 2.85 2.1-1.95.7-3.85.9l-1.6.05-.5.3-.05.25.1.35q.95 1 3.2 1.3-2.6 1.45-3.4 3.85l-.05.15.15.35q.15.25.45.15 1.75-.25 3 .35l1.7.5q-1.45.95-3.1 1.35l-.4.45v.05l.3.5 5.1.2q2.35-.55 3.8-1.55 5.6-3.5 10.45-2.9 3.35.4 4.2 1.7l.2.2Q12.5 7.3 17.8 4.2l.25-.45v-.1l-.5-.4q-2.7-.2-3.8-1.3 1.85 0 4.75-1.6l1.95-.8q.35 0 .5-.3l.05-.2-.15-.35Q18.9-3.45 16.2-4.05q1.65-.9 2.25-2.25l.2-.4.05-.25-.1-.35-.55-.15-3.4.4-4.2.55 2.4-1.9.15-.35h.05v-.1l-.1-.3-.55-.15" fill="#5c1d3f" transform="translate(19.4 11.1)"/><path d="M9.35-9.4q.65.4 1.95.85-1.55 1.2-3.1 3.4 3-1.3 9.05-1.1Q17-5.7 13.4-3.4l1.85-.15q2.2.25 4.15 2.35-2.8 2.35-7 2.2-.15 1.1 1.35 1.95 1.25.75 2.55.85-3.65 2.4-9.6-.4Q5.55 1.65 2.65.85q-4.7-1.25-10.5 2.4-4.3 2.9-7.75 2.4 1.75-.9 3.4-2.6-1.65.05-3.2-.65-1.4-.6-2.75-.4 2.05-3.5 7.3-3.85-4.5.15-6.6-1L-16-3q1.95-.4 4.4-1.55-1.55-.6-2.8-2l6.1-.05q3.5-.05 4.7 1.75L-5.05-8.7l2.85-.95 1.2 2.2q1.35 2.5 2 2.9l1-3.7 2.7-1.2q-.6 1.25-.85 4.7 3.25-3.1 5.5-4.65" fill="#ff90c5" transform="translate(19.4 11.1)"/><path d="M.8-4.6q.45.65.45 2.05l-.2.45.2.1v-.55q.9-2.15 2.9-4.95l-.3 2.2q-.25 1.95-.8 2.9L5.5-4.15l3.45-2.1-.25.45-.5.65.05-.05q-1.6 2.05-1.6 2.8l1.2-.7 2.2-.4 5-1.05q-4.7 2.7-4.8 4.15l5.6-1 3.55.2q-2.85 2.35-7 2.2-.15 1.1 1.35 1.95 1.25.75 2.55.85-3.65 2.4-9.6-.4Q5.55 1.65 2.65.85q-4.7-1.25-10.5 2.4-4.3 2.9-7.75 2.4 1.75-.9 3.4-2.6l-2.85-.45q-1.4-.6-2-.65l-.2-.1 3.65-.35q.6-.15 2.75-1.75.6-.45 3.3-1.1Q-9.3-2.4-11-2.25q2.05-1.1 3.45-1.1 1.55 0 2.85.8l-.1-1.15q-.4-1.95-1.4-2.65.9 0 2.1.9l.5.6-.1-.3q1.1.9 2.75 3.3.8-.75.5-2.15-1.45-3.55-.85-3.75.05.45 1 1.6L.8-4.6" fill="#d676c3" transform="translate(19.4 11.1)"/><path d="M-6.9 3.15q.35-.15.65.15.3.3-.2 1.7-.9 2.3-.65 3 .15.4-.2.6-2.3 1.45-2.7 5.7-.35 3.45.55 6.3.1.3-.05.45l-.45.2q-2.2-.1-3.3-1.5-4.8.25-5.55-3.6-.1-.45.35-.55 2.3-.6 4-4.6 2.7-6.05 7.55-7.85" fill="#5c1d3f" transform="translate(19.4 11.1)"/><path d="M-7.55 8.2q-2.5 1.55-3.2 5.65-.6 3.55.3 6.45-1.5-.1-2.1-.75l-.3-.65q-4.25.45-4.85-2.7 2.55-1.35 4.5-6.15 1.85-4.5 6.45-6.4.3-.15-.3 1.55-.8 2.1-.5 3" fill="#ff90c5" transform="translate(19.4 11.1)"/><path d="M-6.75 3.65q.3-.15-.3 1.55-.8 2.1-.5 3-1.7 1.05-2.65 3.5-1.6 4.4-.25 8.6-1.5-.1-2.1-.75l-.3-.65h-1.35q1.85-5.3 2.95-7.65l-2-1q1.9-4.7 6.5-6.6" fill="#d676c3" transform="translate(19.4 11.1)"/><path d="M6.1 4.35Q5.6 3 5.9 2.65l.7-.1q4.8 1.75 7.5 7.85 1.85 4 4 4.55.45.2.35.6-.7 3.8-5.55 3.6-1.05 1.35-3.3 1.5l-.4-.2-.1-.45q.9-2.9.6-6.35Q9.25 9.45 6.95 8q-.3-.2-.2-.6.25-.65-.65-3.05" fill="#5c1d3f" transform="translate(19.4 11.1)"/><path d="M6.4 3q4.6 1.95 6.45 6.45 1.95 4.75 4.5 6.15-.55 3.1-4.85 2.7 0 1.25-2.4 1.35.9-2.85.3-6.4-.65-4.1-3.15-5.7.3-.85-.5-2.95Q6.1 2.9 6.4 3" fill="#ff90c5" transform="translate(19.4 11.1)"/><path d="m13.7 11.55-.35.2q.8 2.6 3.4 5.2-1.25 1.65-4.25 1.35l-.45.75q.35-3.95-1.2-6.75h-.6q-.85-3.35-3-4.75.3-.85-.5-2.95Q6.1 2.9 6.4 3q3.55 1.5 5.25 4.05l2.05 4.5" fill="#d676c3" transform="translate(19.4 11.1)"/><path d="M9 1.45q3 2.3 3.7 5.85.1.35-.25.5l-.6-.05-.1-.15Q6.3 2.1.2 2.1-5.9 2.05-12 8.05l-.6.05q-.35-.2-.2-.6 1.9-4.9 6.45-7.2 3.75-1.9 8.1-1.5Q6-.85 9 1.45" fill="#61170e" transform="translate(19.4 11.1)"/><path d="M8.05 1.7q3.3 2.15 4.15 5.7-3.75-3.9-7.95-5.2-8.45-2.6-16.6 5.5 1.65-4 5.45-6.15Q-3.4-.4.8-.35q4.15.1 7.25 2.05" fill="#dc3625" transform="translate(19.4 11.1)"/><path d="M-10.65-1.35Q-13.2.25-14.6.7l-1.6.25q-1.1.2-1.35.65h-.05q.35-1.65 2.9-2.55 2.25-.75 4.05-.4m-.1-5.05q2.9-.2 4.4 0v.05l-4.1.85q-1.8.35-3.8-1l3.5.1m-6.45 3.6 4.55-1.15Q-15.1-1.6-17.2-2.8m14-6.2 1 2.5.65 3.25-1.9-2.35Q-4.55-7-4.6-8.4q.45-.2.6-.6l.8 2.15V-9m5.5 1.9 1.65-1.7L1.4-3.7l-.2-.9q1.1-2.8 1.1-2.5m5.3-.8 1.65-1.4.5.15-1.3 1.05L6.05-6q-.8.6-1.7 1.95l.2-.8Q5.2-6 7.6-7.9" fill="#ffedff" transform="translate(19.4 11.1)"/><path d="m-2-1.1.05.1q.9 1.65-1.3 2.8l-.4.05Q-6 .55-13.2 1.05l-.4-.1-.15-.35q-.05-1.1.4-2.3.8-2.45 3.05-3.25l.25-.05q5.2.85 8.05 3.9" fill="#61170e" transform="translate(19.4 11.1)"/><path d="M-2.45-.3q.6 1.2-.65 1.5Q-7-.25-12.75.05l.35-1.6q.65-1.75 2.35-2.4 1-.15 3.5.85 2.95 1.2 4.1 2.8" fill="#dc3625" transform="translate(19.4 11.1)"/><path d="M-2.45-.3v.05Q-6.1-2.8-12.55-1.2q.65-2.1 2.5-2.75 1-.15 3.5.85 2.95 1.2 4.1 2.8" fill="#ef7d83" transform="translate(19.4 11.1)"/><path d="m1.3-1.4.1-.1q2.65-2.95 8.05-3.95l.25.05q3.6 1.3 3.45 5.55l-.2.35-.35.1Q5.4.1 3 1.4h-.35Q.45.25 1.3-1.4" fill="#61170e" transform="translate(19.4 11.1)"/><path d="M1.85-.75q1.15-1.6 4.1-2.8 2.5-1 3.5-.85 2.7 1 2.65 4Q6-.55 2.5.75q-1.25-.3-.65-1.5" fill="#dc3625" transform="translate(19.4 11.1)"/><path d="M9.45-4.4q1.4.5 2.1 1.85-4.3-1.4-9.85 2.6l.15-.8q1.15-1.6 4.1-2.8 2.5-1 3.5-.85" fill="#ef7d83" transform="translate(19.4 11.1)"/><path d="m-4.2-2.55 3.7.1q3.6-1.6 4.6-.2 1.2 1.7-.85 4.05-.8.9-5.5.4-1.65-.25-2.3-2.6-.3-1.15.35-1.75" fill="#61170e" transform="translate(19.4 11.1)"/><path d="M-3.85-.7q-.5-2.2 3.5-.65Q3.4-3.55 3.6-1.4 3.8.7 2.1 1.65h-3.5q-1.9 0-2.45-2.35" fill="#dc3625" transform="translate(19.4 11.1)"/><path d="M3.6-1.2q-.15.55-3.55.4-3.4-.15-3.55.9-.75-1.25-.1-1.75.75-.7 3.25.3 4.05-2.3 3.95.15" fill="#ef7d83" transform="translate(19.4 11.1)"/><path d="m13.35 9.75-.05.45-.4.2-7.1-.05-.7-.9Q3.7 6.8 2.25 6.2q-.35 1.05-.35 2l.2 1.8.05.15q0 .35-.4.45l-3 .2q-2.8-.05-3.65-.85L-6 10h-6.65l-.35-.3-.05-.45Q-9.9.5.7.65q9.05 0 12.65 9.1" fill="#5c1d3f" transform="translate(19.4 11.1)"/><path d="m1.1 9.7-2.95.2q-2.25-.15-2.7-.9l-7.3.05Q-9.4 1.7.45 1.65q7.75 0 11.85 7.75H6.2Q4.5 6.15 2 5.55q-1.15.6-.9 4.15" fill="#ff90c5" transform="translate(19.4 11.1)"/><path d="m10.65 6.8-1.5.1-.9-2.1-.75-1.05q1.8 1.3 3.15 3.05" fill="#ff90c5" transform="translate(19.4 11.1)"/><path d="m10.65 6.8 1.65 2.6H6.2Q4.5 6.15 2 5.55q-.3.15-.65 1.4Q1 8.25 1.1 9.7l-2.95.2q-2.25-.15-2.7-.9l-7.3.05.85-1.95 5.8.25q.9-1.75 2.6-3L-3.85 7q1.2.65 4.05.5 1.1-2.85 1.5-3.4 2.65 1.6 3.9 3.05l3.2.45q1.55-.15 1.85-.8" fill="#d676c3" transform="translate(19.4 11.1)"/><path d="M-3.7 6.4q-.5 1.3-.65 2.85-.05.2-.25-.15 0-1.95.9-2.7m2.9-.2q-.65 1.75-.6 3.9l-.35-.25q0-2.6.95-3.65m9.65 3.25Q8.3 7.5 6.9 6.1q1.95 1.55 2.4 3.45l-.45-.1m-18.1-.2q.15.15-.45.1.45-1.95 2.35-3.45-1.35 1.4-1.9 3.35m-3.6 9.8q.2.1-.4.25-.2-1.95 1.1-4.05-.8 1.8-.7 3.8m25.35-.6q.15-2-.7-3.85 1.3 2.1 1.1 4.05l-.4-.2" fill="#5c1d3f" transform="translate(19.4 11.1)"/><path d="m-3.35 3.75 2.75.75q-4.3-.2-5.35.65l-.1-1.05q-.6.05-1.25 1.15L-6.9 4l-2.2 1.25q.9-1.15 2.65-2.05 1.85-.95 3.15-.85-1.55.35-1.95 1.3l1.9.1M8.7 4.85l-.45-.1-1.8-.7.95 1.05-2.5-.25-3.75-.55 1.05-.2 2 .05-1.05-.85 2.65.95-2.75-1.9 2.7.75q1.45.55 2.95 1.75m-23.1 8.65q1.05-1.55 1.2-2.5.3 1.35-.55 4.55-1 3.55-2.45 2.75 1.55-2.6 2.05-4.1-.9 1.65-2.55 2.4l-.25-.35q.75-.3 2.55-2.75m25.05 5.4.15-3.65-.15-2.35q1.5 5.25-.25 6.45l.25-.45" fill="#ffedff" transform="translate(19.4 11.1)"/></g></defs></svg>