<?xml version="1.0" encoding="UTF-8" standalone="no"?>
<svg xmlns:xlink="http://www.w3.org/1999/xlink" height="92.9px" width="100.7px" xmlns="http://www.w3.org/2000/svg">
  <g transform="matrix(1.0, 0.0, 0.0, 1.0, 38.65, 49.75)">
    <use height="13.2" transform="matrix(1.0, 0.0, 0.0, 1.0, -16.8, -6.25)" width="13.2" xlink:href="#sprite0"/>
    <use height="13.2" transform="matrix(1.0, 0.0, 0.0, 1.0, 3.95, -6.1)" width="13.2" xlink:href="#sprite0"/>
    <use height="15.1" transform="matrix(1.0, 0.0, 0.0, 1.0, -15.0, -0.65)" width="29.05" xlink:href="#shape1"/>
  </g>
  <defs>
    <g id="sprite0" transform="matrix(1.0, 0.0, 0.0, 1.0, 6.6, 6.6)">
      <use height="13.2" transform="matrix(1.0, 0.0, 0.0, 1.0, -6.6, -6.6)" width="13.2" xlink:href="#shape0"/>
    </g>
    <g id="shape0" transform="matrix(1.0, 0.0, 0.0, 1.0, 6.6, 6.6)">
      <path d="M5.0 3.55 L4.3 4.3 2.55 5.6 0.75 4.5 Q-0.8 3.55 -2.05 0.8 -3.35 -2.0 -3.9 -4.75 L-3.65 -4.95 -3.05 -5.3 Q-1.7 -1.85 0.6 0.5 1.5 1.4 2.55 2.15 L5.0 3.55" fill="#990000" fill-rule="evenodd" stroke="none"/>
      <path d="M-3.05 -5.3 Q-1.7 -6.1 0.0 -6.1 L0.8 -6.05 Q2.5 -1.05 0.6 0.5 -1.7 -1.85 -3.05 -5.3 M4.7 -3.9 Q6.1 -2.25 6.1 0.0 6.1 2.0 5.0 3.55 L2.55 2.15 Q4.35 0.35 4.7 -3.9 M-3.95 4.7 L-4.35 4.3 Q-6.1 2.55 -6.1 0.0 -6.1 -2.55 -4.35 -4.35 L-4.2 -4.5 Q-3.75 -1.45 -3.15 0.45 -2.55 2.35 -1.65 3.4 -2.2 4.45 -3.95 4.7" fill="#ff0000" fill-rule="evenodd" stroke="none"/>
      <path d="M0.8 -6.05 Q2.85 -5.8 4.3 -4.35 L4.7 -3.9 Q4.35 0.35 2.55 2.15 1.5 1.4 0.6 0.5 2.5 -1.05 0.8 -6.05 M1.6 5.9 L0.0 6.1 Q-2.25 6.1 -3.95 4.7 -2.2 4.45 -1.65 3.4 -0.65 4.7 0.95 5.6 L1.6 5.9" fill="#ff3300" fill-rule="evenodd" stroke="none"/>
      <path d="M2.55 5.6 L1.6 5.9 0.95 5.6 Q-0.65 4.7 -1.65 3.4 -2.55 2.35 -3.15 0.45 -3.75 -1.45 -4.2 -4.5 L-3.9 -4.75 Q-3.35 -2.0 -2.05 0.8 -0.8 3.55 0.75 4.5 L2.55 5.6" fill="#000000" fill-rule="evenodd" stroke="none"/>
      <path d="M-3.05 -5.3 Q-1.7 -6.1 0.0 -6.1 L0.8 -6.05 Q2.85 -5.8 4.3 -4.35 L4.7 -3.9 Q6.1 -2.25 6.1 0.0 6.1 2.0 5.0 3.55 L4.3 4.3 2.55 5.6 1.6 5.9 0.0 6.1 Q-2.25 6.1 -3.95 4.7 L-4.35 4.3 Q-6.1 2.55 -6.1 0.0 -6.1 -2.55 -4.35 -4.35 L-4.2 -4.5 -3.9 -4.75 -3.65 -4.95 -3.05 -5.3 Z" fill="none" stroke="#660000" stroke-linecap="round" stroke-linejoin="round" stroke-width="1.0"/>
    </g>
    <g id="shape1" transform="matrix(1.0, 0.0, 0.0, 1.0, 15.0, 0.65)">
      <path d="M-1.2 -0.1 L-0.2 -0.15 1.45 0.0 Q5.75 9.7 13.45 12.6 L13.55 13.95 Q8.85 13.75 5.8 10.4 2.55 6.9 0.8 2.45 L-0.2 -0.15 Q-0.8 6.35 -5.05 9.65 -9.1 12.9 -14.5 12.9 L-14.2 11.25 Q-5.1 10.3 -1.2 -0.1" fill="#000000" fill-rule="evenodd" stroke="none"/>
      <path d="M4.8 1.0 Q6.95 1.9 9.0 3.5 12.0 5.9 13.05 10.2 8.35 7.4 4.8 1.0 M-13.45 8.8 Q-12.35 6.05 -10.25 3.8 -7.8 1.1 -3.95 0.25 -8.3 7.0 -13.45 8.8" fill="#cc0000" fill-rule="evenodd" stroke="none"/>
      <path d="M3.0 0.35 L4.2 0.75 4.8 1.0 Q8.35 7.4 13.05 10.2 L13.15 10.5 13.4 11.9 Q7.05 8.15 3.0 0.35 M-13.7 9.55 L-13.45 8.8 Q-8.3 7.0 -3.95 0.25 L-2.95 0.1 Q-7.05 8.45 -13.7 9.55" fill="#ff0000" fill-rule="evenodd" stroke="none"/>
      <path d="M1.45 0.0 L2.8 0.3 3.0 0.35 Q7.05 8.15 13.4 11.9 L13.45 12.6 Q5.75 9.7 1.45 0.0 M-14.2 11.25 L-13.7 9.55 Q-7.05 8.45 -2.95 0.1 L-2.65 0.05 -1.2 -0.1 Q-5.1 10.3 -14.2 11.25" fill="#990000" fill-rule="evenodd" stroke="none"/>
      <path d="M-1.2 -0.1 L-0.2 -0.15 1.45 0.0 2.8 0.3 3.0 0.35 4.2 0.75 4.8 1.0 Q6.95 1.9 9.0 3.5 12.0 5.9 13.05 10.2 L13.15 10.5 13.4 11.9 13.45 12.6 13.55 13.95 Q8.85 13.75 5.8 10.4 2.55 6.9 0.8 2.45 L-0.2 -0.15 Q-0.8 6.35 -5.05 9.65 -9.1 12.9 -14.5 12.9 L-14.2 11.25 -13.7 9.55 -13.45 8.8 Q-12.35 6.05 -10.25 3.8 -7.8 1.1 -3.95 0.25 L-2.95 0.1 -2.65 0.05 -1.2 -0.1 Z" fill="none" stroke="#660000" stroke-linecap="round" stroke-linejoin="round" stroke-width="1.0"/>
    </g>
  </defs>
</svg>
