<svg xmlns:xlink="http://www.w3.org/1999/xlink" height="92.9" width="100.7" xmlns="http://www.w3.org/2000/svg"><use height="31.75" transform="translate(20.25 41.9)" width="35.85" xlink:href="#a"/><defs><g id="a" fill-rule="evenodd"><path d="M-9.5-6.25q2.4-1.4 9-1.6Q6.45-8 9.15-6.3q4.3 3.85 4.9 9.05l-.1.4q-.15.2-.4.2l-27.8-.15-.4-.15-.1-.45q.8-5.95 5.25-8.85" fill="#440202" transform="translate(18.4 7.85)"/><path d="M-8.85-5.4q2.2-1.3 8.35-1.45 6.45-.2 9 1.35 3.95 3.65 4.55 8.75l-26.8-.55q.75-5.3 4.9-8.1" fill="#d80000" transform="translate(18.4 7.85)"/><path d="M6.05-1.15q3.3-2.9.3-5.15l2.15.8q3.95 3.65 4.55 8.75-4 .2-14-.1 5.5-3 7-4.3" fill="#8c1414" transform="translate(18.4 7.85)"/><path d="M5.75-4.65 7.1-3q1.35 2 1.6 4.05l.05.55-.55.05-16.55-.35h-.6l.1-.6q.45-3.55 3.3-5.35 1.5-.9 5.4-1 4.15-.1 5.9 1" fill="#440202" transform="translate(18.4 7.85)"/><path d="m5.1-3.8 1.15 1.45Q7.45-.55 7.7 1.4L-7.85 1q.5-3.25 2.85-4.75 1.35-.8 4.85-.9Q3.5-4.8 5.1-3.8" fill="#fff" transform="translate(18.4 7.85)"/><path d="m.7-4.65 1.85.1Q.8-3.95-.2-2.05-1.1.25-1.85 1.3l-1.9-.1Q-2.1-.6.7-4.65m4.4.85.1.1q-.65.85-.95 2.5L3.7 1.45l-3.6-.1Q.4.15 1.6-1.5l1.9-2.9 1.6.6" fill="#ccc" transform="translate(18.4 7.85)"/><path d="M14.5 6.75q.5.1.65.5.3.95-.1 2.95-.35 1.85-.85 2.6l-.65.4H11.1q-.35 0-.45-.25L8.6 9h-18.8l-1.15 4.05q-.15.35-.55.35h-2.95l-.5-.35-.6-2.25q-.4-2.2.4-3.3l.15-.15q2.3-1.7 15.05-1.65 11.8.1 14.85 1.05" fill="#440202" transform="translate(18.4 7.85)"/><path d="M.95 6.1q12.8.4 13.15 1.3.75 2.2-.8 4.75h-1.9L9.15 8.1H-11.1l-1.2 4.25h-2.15l-.45-1.9q-.35-2.15.35-3.1Q-12.2 5.65.95 6.1" fill="#d80000" transform="translate(18.4 7.85)"/><path d="M14.1 7.4q.75 2.2-.8 4.75h-1.9L9.15 8.1H-11.1l-1.2 4.25h-1.05l.25-2.85-.05-.05-1.75 1.05q-.3-2.2.35-3.15Q-12.2 5.65.95 6.1q12.8.4 13.15 1.3" fill="#8c1414" transform="translate(18.4 7.85)"/><path d="M-16.2 9.4q-.45.2-.7-.2-.95-1.6-1.35-3.35l-.15-1.55.2-.4Q-13.25-.5.35-.3q13.1.15 16.85 3.65.4.5.2 1.9-.55 2.95-1.65 3.55l-.4.05Q11.25 7.7.85 7.5q-12.2-.3-17.05 1.9" fill="#440202" transform="translate(18.4 7.85)"/><path d="M.95 6.35q-12.15-.3-17.1 1.95l-1.1-2.7-.1-1.05Q-12.55.6.3.65q12.5.1 16.15 3.45.4.45-.1 1.95-.5 1.4-1.05 1.7Q11.05 6.6.95 6.35" fill="#d80000" transform="translate(18.4 7.85)"/><path d="M2.4 4.5q12.05.85 14.1-.3.3.55-.2 1.95-.5 1.35-1 1.6Q11.05 6.6.95 6.35q-12.15-.3-17.1 1.95l-.95-2.15Q-10.35 3.6 2.4 4.5" fill="#8c1414" transform="translate(18.4 7.85)"/><path d="M.2 1.5q7.15-.05 8.7 1.1.55.4.3 1.4-.2 1.3-.85 1.5l-.15.05h-.1l-7.5-.4-8.2.3-.25.05-.2-.2Q-9.1 4-8.6 3.05l.1-.2Q-7.05 1.5.2 1.5" fill="#440202" transform="translate(18.4 7.85)"/><path d="m.6 4.35-7.85.35-.4-1.1Q-6.4 2.45.25 2.4q6.55 0 7.95 1 .25.2.15.75-.1.5-.4.6L.6 4.35" fill="#fff" transform="translate(18.4 7.85)"/><path d="m-.4 4.4-2.4.05 2.55-2h1.3L-.4 4.4m6.95-1.5-1 1.6-2.15-.1 1.3-1.8 1.85.3" fill="#ccc" transform="translate(18.4 7.85)"/><path d="M-11.5-2.6q1.65-1.8 3.15-2.6l2.4-.9 2.65-.35-2.75 1.15q-2.65 1.45-3.1 3.75 0-1.85.45-3.15-2.15 3.05-1.7 4.8-2.45.8-2.9 1.15-.3-1.4 1.8-3.85m2.3 6.85q-1-.9-1-1.3-2 .1-3.6.85-2.45 1.3-2.9 1.85h-.15l.25-1.3 1.05-.8q1.4-.9 2.8-1.2l4.4-1.05 4.65-.2q-4.45 1.1-5.15 1.55-.4.25-.3.75.05.65-.05.85" fill="#f88" transform="translate(18.4 7.85)"/><path d="m-13.9 13.25 1.25-.1q1.75 10.65.4 10.75-.85.05-1.35-5.3l-.3-5.35M11.75 13h1.6q-1.05 10.65-2.4 10.45-.85-.1-.1-5.3l.9-5.15" fill="#02001a" transform="translate(18.4 7.85)"/></g></defs></svg>