<?xml version="1.0" encoding="UTF-8" standalone="no"?>
<svg xmlns:xlink="http://www.w3.org/1999/xlink" height="92.9px" width="100.7px" xmlns="http://www.w3.org/2000/svg">
  <g transform="matrix(1.0, 0.0, 0.0, 1.0, 38.65, 49.75)">
    <use height="42.8" transform="matrix(1.0, 0.0, 0.0, 1.0, -27.1, -7.7)" width="48.45" xlink:href="#shape0"/>
  </g>
  <defs>
    <g id="shape0" transform="matrix(1.0, 0.0, 0.0, 1.0, 27.1, 7.7)">
      <path d="M-2.2 -7.7 L1.05 -7.45 1.25 -7.4 Q1.9 -7.4 2.15 -6.9 L4.45 -5.45 4.6 -5.35 Q5.0 -5.4 5.4 -4.85 L5.6 -4.8 6.6 -4.75 6.65 -4.75 Q10.7 -4.5 13.4 -1.75 L14.9 0.05 15.65 1.25 15.7 1.4 16.9 4.05 16.9 4.0 Q18.1 6.95 18.55 9.45 L18.55 9.5 18.55 9.6 19.7 14.8 20.15 16.4 20.2 16.55 20.25 16.75 21.35 21.1 21.25 21.75 21.2 21.8 20.95 22.4 20.9 22.6 20.25 24.15 20.0 24.55 19.55 24.75 18.95 24.8 18.9 24.8 18.6 24.8 18.1 24.85 17.85 24.8 17.65 24.6 17.55 24.35 16.85 24.2 16.65 24.15 15.95 23.85 15.75 23.65 15.65 23.4 Q14.75 15.95 11.55 9.3 10.3 8.15 8.85 7.3 L8.9 7.3 8.3 6.95 8.25 6.95 Q5.2 5.65 2.5 3.3 L1.35 2.2 Q-4.15 7.35 -11.0 9.45 L-11.05 9.45 -11.05 9.5 -11.0 9.55 -11.05 9.9 -11.3 10.2 -11.35 10.25 -11.55 10.4 Q-15.0 16.55 -15.65 22.55 L-15.65 22.65 -15.7 23.55 -15.85 23.85 -16.15 24.0 Q-17.1 24.1 -18.15 24.85 L-18.15 25.25 -18.2 25.45 -18.3 25.6 -18.5 25.75 -18.7 25.9 -18.75 25.95 -19.1 26.0 -19.15 26.0 -19.8 25.75 -19.75 25.8 -20.15 25.7 -21.6 25.1 -21.95 24.8 -22.0 24.75 -22.4 24.15 -22.45 24.1 -22.55 23.95 -22.7 23.4 -22.7 23.3 -22.6 19.4 -22.7 17.9 -22.7 17.85 -22.65 17.35 -22.65 17.4 -22.45 16.7 Q-24.0 18.25 -25.3 20.2 -25.5 20.5 -25.85 20.6 L-26.55 20.55 -26.5 20.6 -27.05 20.1 -27.1 19.4 -26.5 17.55 -26.45 17.4 Q-25.4 14.9 -23.25 12.5 L-21.8 11.0 -21.75 10.85 -21.0 10.2 -20.25 9.6 -20.2 9.55 -20.15 9.5 -19.95 8.75 -19.4 7.15 -19.1 6.35 -18.7 5.4 -18.05 3.9 -18.0 3.8 Q-17.2 2.2 -16.2 0.75 L-15.7 0.0 -15.55 -0.2 -14.1 -1.95 -12.95 -3.25 Q-10.45 -5.75 -7.4 -6.7 -4.7 -7.55 -2.5 -7.65 L-2.3 -7.7 -2.25 -7.7 -2.2 -7.7 M17.55 24.35 L17.55 15.4 15.25 15.4 14.9 15.25 14.75 14.9 14.75 4.7 13.05 4.7 12.7 4.55 12.55 4.2 12.55 0.8 -13.25 0.8 -13.25 4.1 -13.4 4.45 -13.75 4.6 -14.65 4.6 -14.65 5.6 -14.8 5.95 -15.15 6.1 -17.05 6.1 -17.05 8.9 -17.2 9.25 -17.55 9.4 -18.15 9.4 -18.15 24.85 -18.15 9.4 -17.55 9.4 -17.2 9.25 -17.05 8.9 -17.05 6.1 -15.15 6.1 -14.8 5.95 -14.65 5.6 -14.65 4.6 -13.75 4.6 -13.4 4.45 -13.25 4.1 -13.25 0.8 12.55 0.8 12.55 4.2 12.7 4.55 13.05 4.7 14.75 4.7 14.75 14.9 14.9 15.25 15.25 15.4 17.55 15.4 17.55 24.35" fill="#000000" fill-rule="evenodd" stroke="none"/>
      <path d="M-19.6 10.35 L-20.95 11.65 -22.2 13.05 -22.35 13.15 -22.5 13.15 -21.05 11.6 -20.35 10.95 -19.6 10.35 M4.45 -4.05 L4.35 -4.0 4.35 -4.05 Q4.15 -4.4 3.75 -4.35 L3.8 -4.45 4.4 -4.1 4.45 -4.05 M4.3 -3.6 L4.35 -3.55 Q4.25 -3.6 4.25 -3.6 L4.3 -3.6 M17.35 17.2 L17.4 17.2 17.45 17.25 17.4 17.3 17.35 17.2 M17.5 17.2 L17.55 17.2 17.55 17.25 17.5 17.2 M9.7 3.1 L9.7 3.15 9.65 3.1 9.7 3.1 M5.75 -1.7 L5.8 -1.75 5.85 -1.65 5.75 -1.7 M-21.7 17.75 L-21.7 17.65 -21.2 15.9 -21.3 16.6 -21.35 16.6 -21.7 17.75 M-19.15 10.7 L-19.2 10.65 -19.15 10.65 -19.15 10.7 M-16.0 11.7 L-16.0 11.65 -15.95 11.6 -16.0 11.7 M-15.15 6.5 L-15.1 6.55 -15.15 6.6 -15.15 6.5 M-23.8 15.25 L-23.85 15.35 -23.9 15.3 -23.8 15.25 M-20.9 22.45 L-20.85 22.15 -20.9 22.55 -20.9 22.45 M-14.9 35.0 L-14.85 35.0 -14.8 35.0 -14.85 35.05 -14.9 35.0" fill="#663300" fill-rule="evenodd" stroke="none"/>
      <path d="M-15.5 7.45 L-15.45 7.5 -15.6 7.6 -15.5 7.45 M-18.25 9.35 L-18.35 9.25 -18.2 9.25 -18.25 9.35 M-22.2 13.05 L-22.3 13.2 -22.35 13.15 -22.2 13.05 M17.4 17.3 L17.35 17.25 17.35 17.2 17.4 17.3 M-16.05 11.65 L-15.95 11.6 -16.0 11.65 -16.0 11.7 -16.05 11.65 M-23.55 14.75 L-23.45 14.65 -23.55 14.8 -23.55 14.75" fill="#ae5700" fill-rule="evenodd" stroke="none"/>
      <path d="M-19.35 13.2 L-19.35 13.25 -19.5 13.3 -19.35 13.2" fill="#4a2500" fill-rule="evenodd" stroke="none"/>
      <path d="M-18.25 9.35 L-19.0 10.1 Q-13.6 7.25 -8.3 4.2 L-7.5 3.5 -7.2 3.4 -7.1 3.4 -7.1 3.55 -6.1 2.85 Q-2.4 -0.6 1.75 -3.35 L1.95 -3.4 2.1 -3.4 3.65 -4.3 3.75 -4.35 Q4.15 -4.4 4.35 -4.05 L4.35 -4.0 4.45 -4.05 4.45 -4.1 Q4.5 -4.35 4.6 -4.2 L4.7 -3.85 4.7 -3.8 4.8 -3.75 4.9 -3.7 4.75 -3.65 4.7 -3.45 4.6 -3.4 1.1 -0.2 1.05 -0.2 -2.25 2.7 -4.95 4.75 Q-7.4 6.45 -10.45 7.3 L-12.25 8.0 -12.45 8.1 -12.5 8.1 -12.9 8.2 -12.95 8.25 -14.45 8.9 -17.35 10.45 -17.95 10.85 -20.85 12.9 -21.55 13.6 -24.0 16.25 -24.25 16.5 -25.45 17.85 -25.5 17.9 -25.55 17.9 Q-24.6 15.5 -22.5 13.15 L-22.35 13.15 -22.3 13.2 -22.2 13.05 -20.95 11.65 -19.6 10.35 -19.55 10.3 -19.3 10.05 -18.35 9.25 -18.25 9.35 M4.3 -3.6 L4.25 -3.6 Q4.25 -3.6 4.35 -3.55 L4.3 -3.6 M-19.15 10.7 L-19.15 10.65 -19.2 10.65 -19.15 10.7 M-23.8 15.25 L-23.9 15.3 -23.85 15.35 -23.8 15.25 M-23.55 14.75 L-23.55 14.8 -23.45 14.65 -23.55 14.75" fill="#ffba2b" fill-rule="evenodd" stroke="none"/>
      <path d="M-15.45 7.5 L-15.4 7.4 -15.15 7.35 -15.1 7.25 -15.1 6.85 -14.95 6.6 -13.7 4.6 -13.0 3.7 -11.35 1.8 Q-9.25 -0.5 -6.8 -2.4 L-6.7 -2.5 -6.75 -2.4 Q-3.7 -5.15 0.4 -5.65 L1.05 -5.6 1.15 -5.7 1.3 -5.9 1.25 -5.95 0.65 -6.2 1.1 -6.2 1.15 -6.2 1.2 -6.15 1.2 -6.1 1.3 -6.05 1.4 -6.05 1.35 -6.1 Q2.75 -5.55 3.75 -4.45 L3.8 -4.45 3.75 -4.35 3.65 -4.3 2.1 -3.4 1.95 -3.4 1.75 -3.35 Q-2.4 -0.6 -6.1 2.85 L-7.1 3.55 -7.1 3.4 -7.2 3.4 -7.5 3.5 -8.3 4.2 Q-13.6 7.25 -19.0 10.1 L-18.25 9.35 -18.2 9.25 -18.35 9.25 -19.3 10.05 Q-18.0 5.15 -15.35 1.3 L-15.3 1.3 -16.45 3.5 -18.05 7.05 -18.05 7.25 -18.1 7.5 -18.45 8.4 -18.55 8.8 -18.55 8.85 -18.5 8.9 -18.25 9.05 -18.15 9.05 -18.0 9.05 -17.9 8.8 -17.85 8.6 Q-16.9 7.75 -15.5 7.45 L-15.6 7.6 -15.45 7.5 M3.45 -0.1 L3.4 -0.1 3.45 -0.1 3.5 -0.1 3.55 -0.15 3.6 -0.15 3.15 0.3 3.65 -0.05 3.9 -0.2 4.4 -0.6 4.45 -0.65 4.5 -0.65 4.9 -1.0 5.35 -0.75 5.65 -0.55 5.95 -0.25 6.0 -0.2 6.8 0.6 8.85 2.55 8.9 2.6 9.15 2.8 9.85 3.45 9.7 3.15 9.7 3.1 12.15 5.45 12.8 6.1 15.1 9.45 15.65 10.1 17.2 14.1 17.55 16.2 17.55 17.2 17.5 17.2 17.4 17.2 17.35 17.2 17.1 16.15 16.95 15.8 16.6 14.8 Q15.8 12.45 15.05 11.3 L13.3 9.0 11.5 7.3 9.55 5.9 7.6 4.65 4.7 2.45 4.25 2.1 3.75 1.75 2.6 1.05 2.25 0.65 2.7 0.25 3.3 -0.15 3.45 -0.1 M9.15 6.85 Q10.55 7.45 11.75 8.3 13.25 9.25 14.15 10.8 L16.05 14.1 16.5 14.9 16.8 15.95 Q17.0 16.75 17.35 17.25 L17.4 17.3 17.45 17.25 17.45 17.3 17.6 17.9 17.6 17.95 17.9 18.9 18.2 20.05 Q18.75 21.9 18.9 23.8 L18.6 23.8 17.7 23.85 16.9 23.7 16.15 23.35 Q15.25 15.75 11.95 9.0 L9.15 6.85 M-11.9 9.95 Q-15.5 16.35 -16.15 22.55 L-16.15 22.6 -16.2 23.5 Q-17.3 23.6 -18.5 24.5 L-18.5 23.8 -18.4 22.6 -18.4 22.55 Q-18.05 17.75 -16.55 13.25 L-16.0 11.7 -15.95 11.6 -13.05 10.5 Q-12.35 10.25 -12.05 10.0 L-11.9 9.95 M-13.75 33.05 L-13.75 32.55 -13.5 32.95 -13.75 33.25 -13.75 33.05 M-16.1 26.2 L-16.25 26.15 -16.2 26.05 -16.15 26.05 -16.1 26.2" fill="#370e04" fill-rule="evenodd" stroke="none"/>
      <path d="M3.45 -0.1 L3.3 -0.15 3.25 -0.15 4.05 -1.1 Q4.1 -2.05 4.8 -2.75 4.8 -3.3 5.15 -3.8 L5.2 -3.85 5.25 -3.85 5.35 -3.8 6.55 -3.75 Q12.0 -3.35 14.75 1.75 16.9 6.15 17.55 9.65 18.15 13.2 19.2 16.7 L19.25 16.9 20.35 21.3 20.3 21.35 Q19.95 22.05 19.95 22.3 L19.35 23.75 18.9 23.8 Q18.75 21.9 18.2 20.05 L17.9 18.9 17.6 17.95 17.6 17.9 17.45 17.3 17.45 17.25 17.4 17.2 17.5 17.2 17.55 17.25 17.55 17.2 17.55 16.2 17.2 14.1 15.65 10.1 15.1 9.45 12.8 6.1 12.15 5.45 9.7 3.1 9.65 3.1 9.7 3.15 9.85 3.45 9.15 2.8 8.9 2.6 8.85 2.55 6.8 0.6 6.0 -0.2 5.95 -0.25 5.65 -0.55 5.35 -0.75 4.9 -1.0 4.5 -0.65 4.45 -0.65 4.4 -0.6 3.9 -0.2 3.65 -0.05 3.15 0.3 3.6 -0.15 3.55 -0.15 3.5 -0.1 3.45 -0.1 M5.75 -1.7 L5.85 -1.65 5.8 -1.75 5.75 -1.7 M-11.75 9.7 L-11.5 9.65 -11.65 9.85 -11.7 9.9 -11.9 9.95 -12.05 10.0 Q-12.35 10.25 -13.05 10.5 L-15.95 11.6 -16.05 11.65 -17.35 12.25 -19.0 13.1 -19.3 13.25 -19.35 13.25 -19.35 13.2 -18.2 12.4 -17.5 12.0 -17.0 11.7 -16.9 11.65 -16.2 11.25 -15.85 11.1 -15.45 10.9 -15.05 10.7 -12.05 9.5 -11.95 9.45 -11.9 9.75 -11.75 9.7" fill="#200702" fill-rule="evenodd" stroke="none"/>
      <path d="M1.35 -6.1 L1.4 -6.05 1.3 -6.05 1.2 -6.1 1.2 -6.15 1.15 -6.2 1.1 -6.2 0.65 -6.2 1.25 -5.95 1.3 -5.9 1.15 -5.7 1.05 -5.6 0.4 -5.65 Q-3.7 -5.15 -6.75 -2.4 L-6.7 -2.5 -6.8 -2.4 Q-9.25 -0.5 -11.35 1.8 L-13.0 3.7 -13.7 4.6 -14.95 6.6 -15.1 6.85 -15.1 7.25 -15.15 7.35 -15.4 7.4 -15.45 7.5 -15.5 7.45 Q-16.9 7.75 -17.85 8.6 L-17.9 8.8 -18.0 9.05 -18.15 9.05 -18.25 9.05 -18.5 8.9 -18.55 8.85 -18.55 8.8 -18.45 8.4 -18.1 7.5 -18.05 7.25 -18.05 7.05 -16.45 3.5 -15.3 1.3 -15.35 1.3 Q-14.0 -0.75 -12.25 -2.55 -9.95 -4.85 -7.1 -5.75 L-2.35 -6.65 -2.15 -6.7 0.8 -6.5 1.2 -6.4 1.25 -6.35 1.25 -6.3 1.3 -6.2 1.35 -6.1 M2.25 0.65 L2.6 1.05 3.75 1.75 4.25 2.1 4.7 2.45 7.6 4.65 9.55 5.9 11.5 7.3 13.3 9.0 15.05 11.3 Q15.8 12.45 16.6 14.8 L16.95 15.8 17.1 16.15 17.35 17.2 17.35 17.25 Q17.0 16.75 16.8 15.95 L16.5 14.9 16.05 14.1 14.15 10.8 Q13.25 9.25 11.75 8.3 10.55 7.45 9.15 6.85 L8.5 6.5 Q5.5 5.25 2.85 2.95 L2.5 2.6 2.4 2.55 2.0 2.15 1.55 1.7 Q1.6 1.25 2.15 0.75 L2.25 0.65 M-18.5 24.5 L-19.15 25.0 Q-19.4 24.8 -20.05 24.7 L-21.15 24.2 -21.6 23.55 -21.7 23.4 -21.7 23.35 -21.6 19.4 -21.7 17.75 -21.35 16.6 -21.3 16.6 -21.2 15.9 -21.15 15.5 -20.75 14.6 -20.75 14.55 -20.0 13.85 -19.85 13.75 -19.8 13.6 -19.7 13.5 -19.3 13.25 -19.0 13.1 -17.35 12.25 -16.05 11.65 -16.0 11.7 -16.55 13.25 Q-18.05 17.75 -18.4 22.55 L-18.4 22.6 -18.5 23.8 -18.5 24.5 M-15.15 6.5 L-15.15 6.6 -15.1 6.55 -15.15 6.5 M-20.9 22.45 L-20.9 22.55 -20.85 22.15 -20.9 22.45 M-21.05 26.85 L-20.8 26.85 -20.9 27.0 -21.05 26.85 M-14.9 35.0 L-15.15 35.1 -15.25 35.05 -14.9 35.0" fill="#561607" fill-rule="evenodd" stroke="none"/>
      <path d="M-25.55 17.9 L-25.5 17.9 -25.45 17.85 -24.25 16.5 -24.0 16.25 -21.55 13.6 -20.85 12.9 -17.95 10.85 -17.35 10.45 -14.45 8.9 -12.95 8.25 -12.9 8.2 -12.5 8.1 -12.45 8.1 -12.25 8.0 -10.45 7.3 Q-7.4 6.45 -4.95 4.75 L-2.25 2.7 1.05 -0.2 1.1 -0.2 4.6 -3.4 4.7 -3.45 4.75 -3.65 4.9 -3.7 4.8 -3.75 5.15 -3.8 Q4.8 -3.3 4.8 -2.75 4.1 -2.05 4.05 -1.1 L3.25 -0.15 3.3 -0.15 2.7 0.25 2.25 0.65 2.15 0.75 Q1.6 1.25 1.55 1.7 L1.35 1.5 Q-4.25 6.9 -11.35 9.05 L-11.75 9.7 -11.9 9.75 -11.95 9.45 -12.05 9.5 -15.05 10.7 -15.45 10.9 -15.85 11.1 -16.2 11.25 -16.9 11.65 -17.0 11.7 -17.5 12.0 -18.2 12.4 -19.35 13.2 -19.5 13.3 -19.35 13.25 -19.3 13.25 -19.7 13.5 -19.8 13.6 -19.85 13.75 -20.0 13.85 -20.75 14.55 -20.4 13.5 -20.7 13.7 Q-23.8 16.15 -26.15 19.65 L-25.55 17.9" fill="#c17402" fill-rule="evenodd" stroke="none"/>
    </g>
  </defs>
</svg>
