<svg xmlns:xlink="http://www.w3.org/1999/xlink" height="92.9" width="100.7" xmlns="http://www.w3.org/2000/svg"><use height="35.65" transform="translate(18.4 34.9)" width="39.85" xlink:href="#a"/><defs><g id="a" fill-rule="evenodd"><path d="m12.65 8.25.2.1.1.2q.45.95 6.4 9.5l.25.35-.3.25q-.85.7-3.8.85l.3.9h-.65q-4.85.35-7.15.1l-.45-.05.95-12.9.05-.2.2-.15 3.9 1.05" fill="#3e0202" transform="translate(20.25 14.85)"/><path d="m9.45 8.15 2.7.8q.6 1.35 6.1 9.1-.9.75-4.15.4l.35 1-5.85.1.85-11.4" fill="#d80000" transform="translate(20.25 14.85)"/><path d="m9.75 9.75.15 9.5-.95.1q.5-8.35.8-9.6M13.4 15l-1.25-4.15 1.35 3.35.9 2 .95 2.05-1.1-.05-.85-3.2" fill="#ff6e6e" transform="translate(20.25 14.85)"/><path d="M10.65 8.35V8.3q.85 0 .85.3.3 2.9 2.95 10.85l-3.15.05-.4-7.95-.25-3.2m1.15.5q.15-.6 3.1 3.95l3.35 5.3q-.8.65-2.25.35l-2-5.05-2.2-4.55" fill="#960000" transform="translate(20.25 14.85)"/><path d="m-9.4 7.35.2.15.05.25.95 12.85-.45.1q-2.3.25-7.15-.1h-.65l.3-.95q-2.95 0-3.8-.8l-.3-.25.2-.4 6.4-9.45.1-.25.25-.05 3.9-1.1" fill="#3e0202" transform="translate(20.25 14.85)"/><path d="m-10.1 8.3.8 11.4-5.8-.1.3-1q-3.3.4-4.1-.35 5.5-7.75 6.05-9.1 2.7-1.1 2.75-.85" fill="#d80000" transform="translate(20.25 14.85)"/><path d="m-11.1 11 .3-2.4.75-.15q.15.4.75 11.25l-1.75.1-1.05-.05h-.9l.35-1.25.75-3.4.8-4.1m-5.75 7.7 2.35-3.5q.7-1.15 1.3-2.95l-.3 1.45-.45 2.3-.9 2.75-2-.05" fill="#960000" transform="translate(20.25 14.85)"/><path d="m-18.45 18 3.6-5.15-2.55 5.35q-.8.4-1.1-.15l.05-.05m3.85 1.4q1-1.5 1.85-6.65l.25-2.05q-.05 1.45-.65 5.15-.6 3.6-.8 3.6h-.65v-.05" fill="#ff6e6e" transform="translate(20.25 14.85)"/><path d="M-10.35-4.55q5.35-3 9.6-3.35Q1.9-8.3 7.9-5.7q7.1 3.05 9.35 7.55l.05.25q-.3 4.6-3.85 7.3l-.45.1Q6.3 7.65-2.35 7.9q-7.8.25-11.4 1.8h-.5q-4.05-2.45-3.7-6.6V3q1.4-4.05 7.6-7.55" fill="#3e0202" transform="translate(20.25 14.85)"/><path d="M-9.8-3.85q5.15-2.85 9.35-3.2 2.4-.35 7.8 2 6.6 2.9 8.95 7.2Q16 6.3 13 8.5 6.4 6.7-2.15 6.9q-7.9.25-11.7 1.85-3.35-2-3.15-5.5 1.35-3.85 7.2-7.1" fill="#d80000" transform="translate(20.25 14.85)"/><path d="M1.85 7Q-7.5 6.55-14 8.75q-3.05-2.15-3.05-5.1Q-3.2 4.9 5.1 2.7 14.25.3 8.15-4.75q6.2 3.35 8.15 6.9-.35 4.1-3.3 6.35Q8.7 7.3 1.85 7" fill="#960000" transform="translate(20.25 14.85)"/><path d="M-16.35 2.85q0-.8 1.15-2.15 2.75-3.05 7.45-5.1Q-10.4-2.35-13.3.9l-2 2.05q-1.15.55-1.05-.1" fill="#ff6e6e" transform="translate(20.25 14.85)"/><path d="M6.25 8.5q-8.5-1.3-16.85.7l-3.5 1q-.9.35-1.5-.35t-.25-1.35q1.8-1.25 4.25-2.1Q-4.9 4 4 4.85q8.15.75 10.65 3.2.4.3.2 1.25-.25 1-1.2.85-3.1-1-7.4-1.65" transform="translate(20.25 14.85)"/><path d="M-14.75 8.6q1.05-.6 2.85-1.25 1.25.1.55 1.3l-2.8.85q-.85.2-.6-.9m8.3-2.7q.4.05.55.7.1.7-.2 1l-3.25.65q-.65-.05-.9-.65-.2-.55.15-.85l3.65-.85m4.55-.45q.55.15.8 1.75l-2.9.2q-.65-.1-.95-.85-.25-.7.1-.85l2.95-.25m4.35.05q.3.3.15.9-.15.65-.7.9l-2.05-.1-.3-1.8 2.9.1m1.65.1L7 6q-.45.85-.75 1.8l-2.3-.3q-.45-.35-.35-1 .05-.65.5-.9m4.1.65 1.9.45q.25.4.05 1-.25.65-.85.7l-1.45-.3q-.4-.3-.2-1 .15-.6.55-.85m5.4 2 .4.7q0 .5-.95.35l-1.75-.35q-.95-1.25.2-1.75 1.3.45 2.1 1.05" fill="#037df2" transform="translate(20.25 14.85)"/><path d="M6.2-8.25v.15l-.15.4L4.7-5.65l.75-.2q.5-.1.6.45.05.3-.45.95-3.3 4.4-3.1 8.7.1 1.9-2.65 2-2.85.2-3.05-1.8-2.5-7.15-4-8.9l-.15-.4v-.05l.25-.4.65-.15-1.05-.95-.25-.35-.05-.4q.05-1.6 1.75-3.75 1.85-2.35 4.7-3.95h.5Q5.1-11.9 6.2-8.25" fill="#030a36" transform="translate(20.25 14.85)"/><path d="M-1.05-13.8q4.4 1.75 6.4 5.65Q4.2-7 3.15-4.25l1.55-.6-1.4 2.1Q1.65.2 1.4 4.4q.05.85-1.7.85-1.7 0-1.8-.9-2.65-7.35-4.1-9 1.1-.1 1.5.4-1.2-2.35-2.25-2.9.15-1.4 1.85-3.45 1.9-2.25 4.05-3.2" fill="#037df2" transform="translate(20.25 14.85)"/><path d="M4.4-8.3Q4-7.95 3-6l-.85 2.4.95-.3-.8 1.45Q1.45-.4 1.5.05 1.15-.3.15-.3L.6-4.5q-.15-.4-.9-.4.6-3.5 0-7.55 2.8.65 4.7 4.15" fill="#0950b7" transform="translate(20.25 14.85)"/><path d="m-1.3-12.9.1-.2.15-.1q.25 0 .3 2.35l.15 5.5-.5.45v.05q.1.5 1.1.75.15.25-.25 1l-.1 1.3.1 5.55L-.5 4l-.25-.3-.1-5.5.15-1.55.3-.5-1.25-.9.55-.7-.2-7.45" fill="#030a36" transform="translate(20.25 14.85)"/><path d="m-4.05-3.25 1.5 2.75Q-3-.6-3.2-.15l-.9-2L-5.3-4l1.7.3q-2.2-2.75-2.75-3.85.5-1.3 1.8-2.85 1.45-1.75 2.5-2.3l-2.2 2.4q-1.3 1.45-1.1 2.65.15.9 2.55 4.55l-1.25-.15" fill="#5bbfff" transform="translate(20.25 14.85)"/><path d="M-.55 10.3q-1.85 0-3.1-1.75-1.3-1.8-1.3-4.3T-3.65 0q1.25-1.75 3.1-1.75 1.8 0 3.1 1.75 1.3 1.8 1.3 4.25 0 2.5-1.3 4.25-1.25 1.8-3.1 1.8" fill="#351e02" transform="translate(20.25 14.85)"/><path d="M2.75 4.25q0 1.95-.95 3.35Q.8 9-.55 9q-1.4 0-2.35-1.4-.95-1.4-.95-3.35 0-1.95.95-3.35.95-1.35 2.35-1.4Q.8-.5 1.8.9q.95 1.4.95 3.35" fill="#f8c606" transform="translate(20.25 14.85)"/><path d="M1.3 2.3q.7-.55.95-.65 1.4 2.3 0 5.05l-.95-.65.05-.85.1-1.4-.15-1.5m-4.05 2.95Q-1.55 6.65-1.6 7q-.6.25-1.15.8-.9-1.05-1.05-2.6l1.05.05" fill="#b57a06" transform="translate(20.25 14.85)"/><path d="M-.55.8q2.4 0 2.4 3.45 0 3.4-2.4 3.5Q-3 7.75-3 4.25-3 .8-.55.8" fill="#ff7d00" transform="translate(20.25 14.85)"/><path d="M-.6 1.5q-1.75 0-1.75 2.55 0 2.5 1.75 2.5t1.75-2.5Q1.15 1.5-.6 1.5m.1 6.25q-2.45 0-2.45-3.5Q-2.95.8-.5.8q2.4 0 2.4 3.45 0 3.4-2.4 3.5" fill="#d63600" transform="translate(20.25 14.85)"/><path d="M-.3 3.4Q1 3.4 1 5.15q0 1.8-1.3 1.8t-1.3-1.8q0-1.75 1.3-1.75" fill="#d63600" transform="translate(20.25 14.85)"/><path d="M-1.1 1.5Q.15 1.5.15 2.7q0 1.25-1.25 1.25-1.2 0-1.2-1.25 0-1.2 1.2-1.2" fill="#fff" transform="translate(20.25 14.85)"/><path d="m-3.55 3.7.15-.9.25-1q.2-.7 1.05-1.35.65-.45 1.2-.6Q.25-.3.1.3q-2.05.35-2.55 1.1l-.65 1.5q-.3.95-.45.8" fill="#fff" transform="translate(20.25 14.85)"/></g></defs></svg>