<svg xmlns:xlink="http://www.w3.org/1999/xlink" height="92.9" width="100.7" xmlns="http://www.w3.org/2000/svg"><use height="23.4" transform="translate(20.1 39.3)" width="35.7" xlink:href="#a"/><defs><g id="a" fill-rule="evenodd"><path d="m-15.6 7.55 2.65-1.85q1.4-.25 1.6.85l-2.25 3.2q-.45.55-2-2.2M13.25 5.2l1.25 3q0 1.45-1.15 1.35L10.7 6.7q-.3-.4.9-1.05t1.65-.45" fill="#a82900" transform="translate(18.55 10.45)"/><path d="M4.1-5.6Q7.85-3.95 9-2.25l1.05 4.6.25 1.25q.1.4-.8 1.1-3.65 2.4-8.65 3-7.15.85-12.45-3.35l-.2-.5q.6-4.55 1.4-6.4.3-.7 3.95-2.55l4.85-2.05.15-.05Q.75-7 4.1-5.6" fill="#9a0000" transform="translate(18.55 10.45)"/><path d="m-6.85-4.7-3.9 8.4-1.2.1 1.55-6.35.6-.75 2.95-1.4m11.4.45L7.5-2.9l.6.8 1.55 6.35L8.4 4.1 4.55-4.25" fill="#400000" transform="translate(18.55 10.45)"/><path d="m5.55-4.9 1.4.7L8.5-3.05l.6.75 1.55 6.35-1.25-.1L5.55-4.9" fill="#400000" transform="translate(18.55 10.45)"/><path d="M-1.45-6.15q2.1.2 5.15 1.45 3.4 1.45 4.45 3 .4.6 1.05 5.75l-1.7 1.2q-2.15 1.1-4.65 1.6-7.55 1.6-13.6-3.15.7-4.55 1.3-5.95.25-.5 3.45-2.05l4.55-1.85" fill="#ffbe00" transform="translate(18.55 10.45)"/><path d="m9 2.75.2 1.3Q3 8.5-4.25 6.85q-1.2-4.7-.2-11.9l3-1.1q4.9.35 8.6 3.4.25 1.45-.05 4.9l1.9.6" fill="#ff6900" transform="translate(18.55 10.45)"/><path d="m6.25-4.8.45.45.15.45q-.5 3.55-1.9 8.95l-.2.8L4.7 6q-1.3 2.05-10.65.6l-.4-.45-.75-2.85q-1.8-6.7-1.55-7.1l3.45-3.05q3.55-3 4.15-3.05 1.7 0 7.3 5.1" fill="#9a0000" transform="translate(18.55 10.45)"/><path d="m-7.7-3.35 6.75-6.2q.65-.1 6.75 5.75-.55 3.75-2.15 9.7-1 1.75-9 .1 0-.25-2.35-9.35" fill="#fff" transform="translate(18.55 10.45)"/><path d="M2.65-1.9 2.1-5.4l-.35-2.1 2.5 2.25L2.4 2.2l.25-4.1m-6 8.25-.6-4.5 2.7 4.75-2.1-.25" fill="#a3c9f4" transform="translate(18.55 10.45)"/><path d="M3.3-7.5q3.65 2.7 3.9 3.25.25.45-1.45 7.35L5.2 5.55q0 .8-1.35.8-1.45 0-1.45-.9l1.25-8.8q-1.4-1.7-4.5-3.55-2.6 1.4-4.6 4l.7 4.35.85 4v.15l-.1.45q-.45.45-2.75-.45L-7 5.4-8.25.9q-1.1-4.55-.5-5l-.05.1 3.45-3.35q3.6-3.3 4.45-3L3.3-7.5" fill="#9a0000" transform="translate(18.55 10.45)"/><path d="m7.2-4.25.05 1.2q0 .5-1.65-.65L-.85-7.95l-8 5.25v-1.25L-5.6-7.2q3.45-3.25 4.4-3.25 1.6 0 8.4 6.2" fill="#400000" transform="translate(18.55 10.45)"/><path d="M6.25-3.9q.25.6-1.75 9.45 0 .45-1.1-.25l1.35-8.8q.05-.3-5.6-4.45L-6.45-3l1.8 8.8q.2.4-1.45-.65l-1.7-8.6 3.35-3.4q3.05-2.85 3.5-2.7l3.75 2.7L6.25-3.9" fill="#ff0" transform="translate(18.55 10.45)"/><path d="M5.6-3.7 4.5-5.3l-.2-.35L6.25-3.9q.25.6-1.75 9.45 0 .35-.5.25l.55-2.85.5-2.35q.7-3.45.55-4.3m-6.95-4.35q.85-.35.6.15l-.1-.05L-6.45-3l1.8 8.8q.1.2-.3 0L-5 5.55l-1-4.5q-1-3.95-.1-5l1.75-1.85 1.5-1.25 1.5-1" fill="#ff9c00" transform="translate(18.55 10.45)"/><path d="M11.75 3.6q1.25.2 3.15 1.8 1.65 1.35 2.15 2.25l.1.35v.1q0 .8-1.75 2.6-1.8 1.8-2.1 1.15-1.15-1.15-1.6-2.05l-.1-.25-.05-.2.15-.3.4-.75.1-.15q-.45-.95-1.5-1.1l-5.3 1.6q-4.3 1.15-5.5 1V9.6h-.05l-5.4-.8-6.05-1.5q-1.25.75-1.6 1.45l.5.45.45.4q-1.4 3.2-1.6 3.15-1.6-.35-3.25-1.9-1.45-1.35-1.45-1.95l.05-.25 2.25-2.55q2.3-2.25 4.05-2.55h.25Q-2.1 6.2-.35 6.05l3.95-.9q7-1.7 8.15-1.55" fill="#9a0000" transform="translate(18.55 10.45)"/><path d="m13.55 12.45-2-3.1-.85-2.3Q9.35 6.1 9.25 5.3V3.7h3.4q1.1.25 4.1 3.35l.3 1.4q-.25.85-3.5 4m-24.7-6.65-.3 1.75-.85 2.3-2.05 3.1q-3.75-2.5-4-3.35-.15-.5.35-1.3l.5-.75 4.15-3.6 2.15-.35.05 2.2" fill="#400000" transform="translate(18.55 10.45)"/><path d="M10.55 6.2 5.4 7.8Q.7 9-.25 8.8l-5.1-.8-6.3-1.55q-2.9 1.45-2.55 2.2.2 1 .7 1.2.4.15-1.1 1.8-1.1-.4-2.05-1.35l-.85-1.35q3.3-4.25 5.4-4.55L-.25 6.9l5.9-1.4q4.95-1.2 5.9-1.05 1.25.2 3.1 1.75 1.7 1.5 1.5 1.85.2.7-2.5 3.1L12.6 9.4l.65-1.4-1.35-1.2q-1.1-.7-1.35-.6" fill="#ffbe00" transform="translate(18.55 10.45)"/><path d="M12.95 6.35q2 1.05 2.7 2.95-1.5 2.2-2 1.85L12.6 9.4l.65-1.4-1.35-1.2q-1.1-.7-1.35-.6L5.4 7.8Q.7 9-.25 8.8l-5.1-.8-6.3-1.55q-2.9 1.45-2.55 2.2.2 1 .7 1.2.4.15-1.1 1.8-1.1-.4-2.05-1.35l1-1.55 2.75-2.9q.4-.4 3.45.6l5.25 1.3q2.35.85 5.9 0L9 5.7q1.95-.4 3.95.65" fill="#ff6900" transform="translate(18.55 10.45)"/><path d="m1.3-4.4.35.35q.3 1.95-.1 8.05l-.45.45-2.4-.1-.2-.4.2-3.65-.75.9-.7.1-.45-.25Q-4.45.5-4.55 0l.1-.5 1.6-2q1.65-2 2.15-2l.25-.05 1.75.15" fill="#6d0303" transform="translate(18.55 10.45)"/><path d="m-3.5-.25 1.55-1.85L-.4-3.55l1.1.05-.15 7-1.05.05.05-5.6L-2.55.3l-.95-.55" fill="#d20000" transform="translate(18.55 10.45)"/><path d="M-1.55-1.8-2.6-.4q-.4.55-.7.25l.25-.6 1.7-1.85q.95-1.1 1.4-.95l-.75.85-.85.9" fill="#ff8b6c" transform="translate(18.55 10.45)"/><path d="M-7.5-1.7q-.15-3.35 1.9-3.65-1.45 1.85-1.35 3.3L-6 3.3h.15q-.45.25-1.1-2.1l-.55-2.9M.4-8.2l-.5-.5-1.25-.15q-1.4 1.7-2.3 1.65 1.2-1.65 2.4-2.1.5-.2 2.15 1l-.5.1M5-4q.65.65-.2 4.6l-.9 4.1-.15.05Q3.5 4.25 4 1.4q.25-2.7.75-3.55Q4.75-3.8 5-4M-9.3-2.2h.25l-.3 1.5q-.5 2.15-.15 4.85-.9-.15-.95-.45l.15-1.3q.6-4.4 1-4.6m5.05 8.8q6 2.05-6.65-1l-2.6.45-3.5 3.8q-1.05-1.05 2.15-3.9 1.4-1.25 2.4-1.4l1.45.1 6.75 1.95" fill="#fff" transform="translate(18.55 10.45)"/></g></defs></svg>