<svg xmlns:xlink="http://www.w3.org/1999/xlink" height="92.9" width="100.7" xmlns="http://www.w3.org/2000/svg"><use height="27.45" transform="translate(11.85 43.75)" width="51.65" xlink:href="#a"/><defs><g id="a" fill-rule="evenodd"><path d="m-8.1-3.7.25-.1.2-.2q1.9-1.05 4.55-1.6h.05l1.75-.3Q4.65-6.4 7.75-4q1.75 1.4 2.7 3.75.55 1.5.7 3.55l4.45.85.15.05h.05l.8.05.3.2.05.05.1.05.35.2.3 1.05-.1.35-.05.15-.05.05-1.1 1.1-1.85.75q2.5 1.2 6.15 1.8l.3.25.1.35v.05l-.35.2.2-.15-2.8 1.5q1.65 1.3 3.4 1.55l.05.05 2.9.7.3.2.05.35v.05l-.05.1-.7 1.05q-.95 1.3-2.85 1.8l2.1 1.05.2.2.05.25v.15l-.05.25-2.8.95q-2.75.85-4.5.4l-.55-.15v-.3l.45.15q1.55.55 6-1.35L19.5 18.1l-.15-.25v-.3l.15-.25.3-.1q2.3 0 3.75-1.95l-2.2-.5h.05l-.3-.05q-1.95-.4-3.75-1.9l-.2-.35v-.1l-.15-.2v-.35l.25-.3 1.75-.8q-3.15-.7-5.35-1.85l-.25-.3h-.05l-.4-.05-.2-.3q-.1-.2.05-.4.1-.2.3-.2l2.8-1 .7-.6v-.2l.05-.2-.1-.3v-.05h-.1l-.65-.05-.2-.05h-.15l-4.95-1-.25-.2-.1-.25q-.1-2.1-.65-3.6Q8.7-2 7.15-3.2q-2.9-2.15-8.3-1.7l-1.7.3h-.05q-2.45.55-4.25 1.5l-.25.05-.2.2q-4.45 2.6-4.65 8.05l.15.2v.3l-.15.25q-1.8 1.6-6.55 3.25 1.3.7 2.4 1.05l.3.2.05.4-.2.3q-3.85 2.35-8.85 2.6 2.5 2.25 5.5 2.9.2.05.3.2l.1.35-.15.35-3 2.4 6.55-.3-.3.2q-1.35.8-4.55.9L-24 20.7l-.15-.25v-.3l.15-.25 3.25-2.5q-3.25-1-5.9-3.8l-.15-.35.15-.35q.15-.15.35-.15 4.85.05 8.55-1.95L-20 9.65l-.15-.05-.2-.2-.1-.4.1-.3.25-.15q4.9-1.55 6.85-3.1.1-6.25 5.15-9.15" transform="translate(26.8 6)"/><path d="m16.15 5.45.35.1h.05l.05.15v.2l.15.05.05.1.05.1v.05l-2.45 1-2.4.75-.05.05v.05l-.05.05q-.85-.3-1.4-1l-.65-.5-.05-.15V6.3q.05-.1.15-.1l.1.05L15 5.6l.35-.05.8-.1" fill="#ff59ac" transform="translate(26.8 6)"/><path d="m16.15 5.45.35.1h.05l.05.15v.2l.15.05.05.1.05.1v.05l-2.45 1-2.4.75-.05.05v.05l-.05.05q-.85-.3-1.4-1l-.65-.5-.05-.15V6.3q.05-.1.15-.1l.1.05L15 5.6l.35-.05.8-.1" fill="#b73777" transform="translate(26.8 6)"/><path d="m16.6 5.35.2.35.3-.05-.05.5-.9.85q-1.2.65-4.15 1.3l-.35-.05-.25-.35 5-1.65.2-.9" fill="#f4007a" transform="translate(26.8 6)"/><path d="m-19.45 9.55-.2-.15-.25-.2q.2.15.45.35" fill="#561607" transform="translate(26.8 6)"/><path d="M20.85 20.15v.1l-.05.05v-.05l.05-.1m-.2.15-.3-.1-.7.1.2.1-1.05.15-.35.05-.15.15-.65-.15v-.25q-1.95-3.3-3.6-7.6h.25l.55-.1H15q1.65 4.4 5.55 7.5l.1.15m-1.35-9.6h.05l-.05.05v-.05m-5.85 1.1h-.35l-.5-.05h-.05l-.2-.05q-3.9-2.3-5.8-4.9l.7-.25.3.5.9 1.05q2.15 2.05 4.7 3.55l.3.15m-21.4-6.2-.8 2.2q-2.8 2.85-7 2.45l-.35-.1-.3-.1-2.1-.75q5.1.8 10.55-3.7m-7.3 10.8-.6 2.65-2.6.55q2.15-.95 3.2-3.2m-6.15 3.35h-.05l.2-.15v.1l-.15.05m4.6-5.05-2.05 1.55q-2-.3-4.05-1.3 3.9.6 6.7-.85l-.6.6" fill="#793d00" transform="translate(26.8 6)"/><path d="M23.2 15.75q-1.3.9-2.55 1.3-3-1.7-4.8-4.6h.25q2.15 2.9 7.1 3.3M8.5 6.15l.85-.3 2.3 2.35h-.05q2.2 1.6 6.45 2.35l.35.05.25.05.65.05v.05l-.2-.05-.45.05q-7-1-10.15-4.6m8.05 5.55-.45.1h-.55l-.35.05h-.55v-.05h-1.2l-.3-.15q-2.55-1.5-4.7-3.55l-.9-1.05-.3-.5.15-.05.1-.05v.05l.05-.05q1.4 3.2 9 5.25m-25.95-.5.85-.8.75-.7.7-.7.75-.7 1.3-1.3.75-.9.75-.95h1.35l-1.4 2-1.75 2.05h-.05l.35-.6-3.1 2.6-.45.55v.2l-1.15.6-.75.45-.05.05-.65.15.05-.15-.05-.1v-.05l.75-.55 1.05-1.15m.75.55h.05-.05m-.1-3.95-.75 1.85-.4.6v.2l-.15.1-.1.1h-.15l-.1.05-.15.25h-.1l-.1.05h-.05l-.1-.05-.05.05-.1.05-2.35-.15-.15-.05-.25-.1-.5-.1.05-.1-1.5-.3q4.2.4 7-2.45m-1.8 5.15.75-.45-.05-.05-.8.45.05.05h.05" fill="#512800" transform="translate(26.8 6)"/><path d="m20.65 17.05-.65.15-.7.1-.85-.85-.75-.85-.55-.6.05.25-1.75-2.7.4-.1q1.8 2.9 4.8 4.6m-3.05-5.8-.25.05v.1l-.25.1-.55.2q-7.6-2.05-9-5.25l.3-.05q2.55 3.25 9.4 4.75h.1l.4.05h.05l-.2.05m-21.15-6.1-.75.95-.75.9-1.3 1.3-.75.7-.7.7-.75.7-.85.8.3-.35.5-.8.15-.25q2.2-2.15 2.95-4.65h1.95m-5.9 0h1.65l-.05.15-.1.3q-5.45 4.5-10.55 3.7-.1-.1-.15-.1l-.15-.1h.05l.45-.1.4-.1q4.4.15 8.45-3.75m-5 9L-15.1 16l-.15.4q-1.05 2.25-3.2 3.2l-2.95.15.15-.05q3.8-1.9 6.8-5.55m-8.45.8-.6-.3-.8-.45q6.8.25 9.9-3.1l1.45.1q-1.4 1.9-3.25 2.9-2.8 1.45-6.7.85" fill="#e67300" transform="translate(26.8 6)"/><path d="M17.65 20.5h-.6l-1.3-.2-.1-.35v-.1l-.05-.05-.3-1.1-2.05-5.3-.3-.65h1.1q1.65 4.3 3.6 7.6v.15m-5.3-8.8Q9.1 11.05 6.5 7.5l-.05-.05-.5-.45.6-.2q1.9 2.6 5.8 4.9M-5.5 5.15q-.75 2.5-2.95 4.65.4-.95.65-2.1l.45-2.55h1.85M-17.9 8.9q5.4-1.4 6.75-3.45l.05-.3h1.65q-4.05 3.9-8.45 3.75m4.95 2.3h.2q-.8 1.05-1.4 2.4l-.3.55q-3 3.65-6.8 5.55v-.1q3.75-3.3 4.45-4.9l.6-.6q1.85-1 3.25-2.9m-11.35 3-.1-.05-.9-.55q5.75.5 10.1-2.6l.7.1h.1q-3.1 3.35-9.9 3.1" fill="#ffba2b" transform="translate(26.8 6)"/><path d="M17.2 15.25v.15q1.8 3.8 4.95 4.3l-1.2.35h-.05l-.05.1-.05.1v.05l.15.15-.2-.15h-.1l-.1-.15q-3.9-3.1-5.55-7.5l.45-.1 1.75 2.7m-1.1-2.8.05-.05.25-.05.3-.1.05.05.4.45q1.8 1.9 3.45 2.2l3.2.35-.45.35-.15.1q-4.95-.4-7.1-3.3m3.2-1.7h.25l-.55.35v.05l-1 .05v.05h-.05l-.05.05-.3-.05.2-.05h-.05l-.4-.05h-.1q-6.85-1.5-9.4-4.75l.45-.15.2-.1q3.15 3.6 10.15 4.6l.45-.05.2.05" fill="#381207" transform="translate(26.8 6)"/><path d="M11.15 10.95q2.2 1.05 5.35.95l-5.75-.25Q7.9 10.5 5.85 7.3l1.45-.4q.85 1.9 2.3 3.1l.1.1q1.9.05 3-1.1-.35 1.15-1.55 1.95M-6.6 5l-.55 2.1h-.05l-.05.15v.05q.8.75 1.95 1.05l-2.4.05q-.85 1.5-2.4 3 1.6-2.85 2.55-6.3l.05-.1h.9m-12 3.85q4.65-1.2 8-4.1h1q-1.2 1.5-3.2 2.5.4 1.15 2.65 1.05-3.05 1.05-4.45-.35l-4 .9m4.35 2.15-3.8 2q1.05 1.3 2.6 1.55-3.15.4-4.05-1l-.35.1-5.25-.2q3.5 0 6.4-1.05l2.8-1.45.3-.25 1.35.3" fill="#ffe9b9" fill-opacity=".663" transform="translate(26.8 6)"/><path d="m-18.75 9.1.1.1 2.25.85q2 .75 6.25.6l.65-1 1.7-4.5.15-.5q.2.05.3.2v.3q-.3 2.85-1.25 4.9l-.8 1.15-.1.1v.05l-.3.35-.2.25V12l-.45.45-.3.3-.25.2h.05l-.2.15 1.95-1.05 4.15-3.45H-5l.15-.15.05-.05.3-.25.2-.2 2.1-2.8.35-.5.15.2-.05.35q-2.95 6.55-10.5 8.75l2.05-3-1.4.2h-.3q-2.05 3-3.3 8.2-2.6 1.65-8.5.95l4-3.15q-3.65-.8-6.6-3.9 5.6.05 9.75-2.55-1.45-.4-3.3-1.55h-.05l-.05-.15q6.35-2 7.85-4l.1-.1.3-.25.4.1.2.3v.1l-.05.3q-1.45 2.2-7.6 3.65l-.1-.05.1.05m40.2 5.15 2.9.7Q22.7 17.7 19.8 17.7l3.3 1.85v.15q-4.45 2.45-7.9 1.25-1.1-4.7-3-8.25-2.55-.1-6.05-4.6 1.8 3.85 6 6.2Q7.2 12.45 5.25 8v.05L5 7.45l-.05-.25.05-.1q0-.2.15-.3l.35-.1q.2 0 .3.15l.65.6.05.05q2.7 3.7 6.05 4.25h.05l.85.05h.95l.55-.05.8-.1 3.55-.9.05-.05h-.05l-.65-.05-.25-.05-.35-.05Q13.8 9.8 11.6 8.2h.05l-2.3-2.35-.1-.1.1-.15.35-.15.2.05.15.1 2.15 1.8q3 2.15 8.4 3.1l-1 .45-2.15 1h.05l-.3.1q2.05 1.85 4.25 2.2m2.35 1.05-3.2-.35q-1.65-.3-3.45-2.2l-.4-.45-.05-.05-.3.1-.25.05-.15.05h-.1l-1.05.2-.55.1h-1.35l.3.65 2.05 5.3.3 1.1.05.05v.1l.1.35 1.3.2h.2q2.1.05 4.9-.8-3.15-.5-4.95-4.3l-.05-.4.55.6 1.6 1.7q2.25-.25 4.5-2m-45.25 4.45q3.45 0 5.6-.7.8-4.85 3.1-7.85l-2.45-.2q-4.35 3.1-10.1 2.6 3.3 2.15 6.45 2.65l2.05-1.55q-.7 1.6-4.45 4.9l-.2.15h-.05.05" fill="#561607" transform="translate(26.8 6)"/><path d="m-.2 5.45-.2-.3-.6.05-.6-.25-.6.05-5.45.15-.05.25H-8l.05-.2-.2-.05h-3.55l-.65-.05q.1-7.05 7.9-9.3l1.05-.35.05.05.45-.1 1.7-.3h.4l.35-.15v.1h1.4l.15.1-2.75.3h-.3q-.9-.1-1.3.5l.15.2v.65l-.05 1.1-.05.05V-2l-.05 1.05.4 1.8H-3l-.1.1v.1l.05.05.3.05.3.8.3.85.45.7.55 1.05-.05-.05v.05h.05l.25.35.25.05.05-.05.05.1.4.1-.05.1v.25m13.15.45-2 .25 1.25-.4.75.15m-3.15.5v.05l-1.6.4-2.65.55-.45.05-1.75-.1h.6L4 7.3l.4.05.1-.05.05.05v.05l.05.05h.15l1.15-.2Q7.15 7 8.2 6.5l1.6-.1m-7.15.8q-1.6-.3-2.7-1.55l.8.6 1.2.75.7.2m.1-2.15v-.1l.3-.1.6-.05.1-.1.6-.05-.3.1L4 4.8v.05l-1.2.25-.05-.05M.2 4.15h.05v.1l-.05-.1" fill="#f9c" transform="translate(26.8 6)"/><path d="M-.2 5.45V5.2l.05-.1-.4-.1-.05-.1-.05.05-.25-.05-.25-.35h-.05V4.5l.05.05-.55-1.05-.45-.7-.3-.85-.3-.8-.3-.05-.05-.05v-.1l.1-.1h.15l-.4-1.8L-3.2-2v-.05l.05-.05.05-1.1v-.65l-.15-.2q.4-.6 1.3-.5h.3l2.75-.3-.15-.1L.9-5h.25l.05.05q4.8.1 7.05 2.85l-.6.05.05.2.65-.1.2.25-.6.1.1.1.05.1.1-.05h.15l1.15 2.8.1-.85.2.85-.1.95.05.3.1.7.15-1.1.1.95.05.05v.6h.05l5.05.95.7.3.15-.05.15-.05q.65.25.6.75l-.25-.05-.05-.1h-.05l-.35-.1-.8.1-.35.05-1.75.25-.15.05h-.15l-.75-.15-1.25.4-1.15.25-1.6.1q-1.05.5-2.3.75l-1.15.2H4.6l-.05-.05v-.05L4.5 7.3l-.1.05L4 7.3l-.05.05h-.6l-.7-.15-.7-.2-1.2-.75-.8-.6-.05-.05-.1-.1v-.05m.4-1.3.05.1v-.1H.2m2.55.9.05.05L4 4.85V4.8l.05-.05.3-.1-.6.05-.1.1-.6.05-.3.1v.1M10.1 3.4h.05-.05" fill="#ff59ac" transform="translate(26.8 6)"/><path d="m-10.35-.15.8-.85v-.25l.05-.05.2.2h.05v.2l-.05.1-1 .9-.05-.2v-.05m2.5-1.2h.05l.25.25.15.25.4-.35.65.2q.55.2-.35 1l-1.05.85q-.85-.5-1-1.35l-.05-.6.15-.2.25-.15.55.1M-6-1.8l-.35-.35-.25-.3v-.45l.35-.35q.65-.05.9.4l.5-.35.45.1.05.05v.5l-.05.25q-.4.45-1 .75l-.05.05h-.05l-.45-.3H-6m.75.75L-5-1.1l.1-.05q.4.05.65.35h.05l.2-.15.1-.05.25-.05h.05q.45 0 .45.45v.05q-.4 1-1.4 1.35L-4.6.7V.65q-.75-.5-.85-1.4v-.1l.15-.2h.05m3.1 4.1-.05.05q-.9.2-1.2-.3l-.15-.15V2.5l-.05-.25q-.05-.35.3-.5l.35-.05q.2 0 .3.15l.05.05-.1.05.15.1.1.05.05.15v.2l.05.2.1.2.1.05.05.05-.05.1m-2.7-1.3Q-4.9 2.85-6 3.25h-.2l-.05-.05-.15-.15-.95-.85-.05-.05q-.1-.7.65-.8h.15q.35.05.55.3l.1-.1h.05l.6-.25h.1l.05.05.25.35.05.05m2 2.35v.5l-.1.3-.25.1-.15.05V5l-.05-.05h-.05L-3.5 5l-.05.05-.45-.1-.2.1h-.2l-.2.1-.55-.1-.35-.2-.05-.4.05-.15.05-.05v-.1l.35-.25.3-.1q.45.05.7.35l.7-.4h.2l.1.05.15.15.1.15m-6.9-2.85.4-.15h.05l.3.15q.25.5-.05.95l-.6.65h-.05l-.1.05h-.05l-.3.2-.35-.25-.3-.2-.45-.95q-.1-.4.15-.7l.05-.05.15-.05h.35l.1.05.2.15.25.2.25-.05m1.7 2.6.25-.2.25-.1q.5-.05.75.35v.05q.05.8-.7 1.2l-.2-.05-.05-.05V4.9l-.05.05-.1.05h-.25l-.35.05-.45-.1-.05.1v.05l-.7-.85-.05-.1v-.2q.55-.45 1.2-.45l.5.35m-4.15.4q.35-.4.95-.35.6.65-.1 1.35h-.05l-.1-.1h-.55l-.15-.2h-.05v-.1l-.05-.15h-.05l.1-.4.05-.05" fill="#ff59ac" transform="translate(26.8 6)"/><path d="m1.1-5.2.5.1 3.25.6q1.7.3 2.95 1.65l.8 1L9.2-.7l.2.6.25 1.1.15 2.7.6.15.6.15q1.65.2 3.3.75l1.5-.15v.05l-.6.4-1.35.55-1.9.1-1.35-.45-1.8-.35-1.1-.1-1.3-.45.1-.05-.15-.1q-.7-3-2.4-5.7L3.1-2.8l-.9-1.05-.45-.45q-.7-.4-.8-.85l.15-.05" fill="#b73777" transform="translate(26.8 6)"/><path d="m5.05-.35-.05-1q0-.25.4-.15l1.8-.1 1.4 4.4-.55.1-.55-.15-.35-.35-.1-.1-.7-2.75-1.3.1m-1.55-1 .25.2.1.2.05.15.45 2.1-.1.65-.6.3-2.55.35q-.3-.1-.15.25l.05.1q-.1.2.3.25l3-.4.2.1.35.55-3.8.5-.6-.15-.35-.45-.05-.05-.1-1.25q-.1-.4.15-.55.15-.35.65-.3l1.85-.15.2-.4-.1-.6v-.1L-.25.1l-.1-.55q-.1-.5.25-.55.1-.25.55-.25l2.6-.25.45.15M1.3 2.9l-.05-.05h.05v.05" fill="#f4007a" transform="translate(26.8 6)"/><path d="m4.6-1.55.1-.15q.2-.3.55-.2l2.2-.1 1.8 5.15-1 .25-.75-.15-.25-.15-.5-.65-.15-.25L6 0 4.75.2 4.5-.95q-.2-.5.1-.6M.25-1.7H.3L3-1.8h.25l.55.2.1.05.45.65.05.1.4 2.2-.1.75v.05h-.05l-.2.3.2.1h.05l.6.75.2.5-4.25.7h-.2L.2 4.3l-.15-.15-.45-.7V3.4l-.35-1.85.3-.4.1-.15q.3-.35.9-.25l.1.05 1.7-.2q-.2-.25-.1-.25L-.7.65l-.15-1.2V-.8l.25-.55q.25-.35.85-.35m3.25.35-.45-.15-2.6.25Q0-1.25-.1-1q-.35.05-.25.55l.1.55L2.7-.05v.1l.1.6-.2.4-1.85.15q-.5-.05-.65.3-.25.15-.15.55l.1 1.25.05.05.35.45.6.15 3.8-.5-.35-.55-.2-.1-3 .4q-.4-.05-.3-.25l-.05-.1Q.8 2.5 1.1 2.6l2.55-.35.6-.3.1-.65L3.9-.8l-.05-.15-.1-.2-.25-.2m1.55 1 1.3-.1.7 2.75.1.1.35.35.55.15.55-.1-1.4-4.4-1.8.1q-.4-.1-.4.15l.05 1M1.3 2.9v-.05h-.05l.05.05" fill="#ffd2e9" transform="translate(26.8 6)"/><path d="m-2.95-5.1 1.7-.3q5.7-.5 8.7 1.8 2.9 2.25 3.2 7.25 2.7.8 5.85 1.1h.05l.2.1.1.05.05.05V5h.05l.25.8-.4-.1h-.25l-.85-.1-2.95.4-3.55.65-2.15.7H7l-1.25.25H5.7l-1.9.2h-.05q-2.9.05-4.6-2.35l-1.3.05-5.6.15h-3.9l-1.1-.1v-.1Q-12.6-3.05-3-5.1h.05m9.5 2.2Q3.75-5 .6-4.65l-3.55.45q-.6 4.45 2.2 9.1 5.15-.2 10.4-1.4-.3-4.3-3.1-6.4m-7.6 7.8.05.05-.05-.05-.05-.05q-3.3-4.5-2.35-9.1-7.95 2.3-8.65 9.15l.05.05V5h.35l.35-.05q6.75-.25 10.3-.05m12.9.55 3.3-.4L9.95 4l.1-.05L-.1 5.35Q1.8 7.2 4 7.25q1.55.15 7.85-1.8" fill="#f4007a" transform="translate(26.8 6)"/></g></defs></svg>