<svg xmlns:xlink="http://www.w3.org/1999/xlink" height="92.9" width="100.7" xmlns="http://www.w3.org/2000/svg"><use height="34.45" transform="translate(17.1 37.75)" width="46.8" xlink:href="#a"/><defs><g id="a" fill-rule="evenodd"><path d="M-7.5-11.3q4.4-.65 7.2 1.15 8.6-3.75 14.15.15 5.4 3.85 5.4 11.85L19.2 3q.6.45 1 .25.45-.15.5-1.05.1-.35.35-.4l.5.1q2.1 1.8 1.45 3.8-.45 1.6-2.15 1.75-1.8.45-1.8 2.7 0 1.7.85 3.5.8 1.65 1.4 1.8l.7.1q.35-.25.25-1.1 0-.35.35-.5.35-.1.55.2 1.8 2.35.25 3.75-1.4 1.15-3.6.6l1.1.95 3.55-.15q.25-.25.6 0 .3.2.15.55-.6 1.85-3.15 2.4-4.5.85-6.65-1.65l-.1-.2q-.85-4.2-2.55-8.75-3.4-9-7.8-11.05Q.2-1.65-7.7.95q-6.95 2.25-8 4.35l-.45.3-.45-.3Q-20.95-2.65-15-7.95q3.1-2.7 7.5-3.35" transform="translate(21.55 12)"/><path d="M-6-10.6q3.55-.15 5.75 1.45 9.6-4.35 14.85.85Q19-3.95 18.3 3.4q2.15 2 3.15-.4 1.1 1.4.65 2.5-.4 1.05-1.95 1.2-2.7 1.25-1.75 5.25.9 3.75 2.55 4.3 2.15.95 2-1.2 1.05 1.95-1.1 2.5-2.05.6-3.2-.55-.55 1.75 1.55 3.05l3.95.15q-.5 1.45-3.55 1.3-3-.15-4.25-1.55-.95-4.1-2.8-8.65Q9.85 2.2 5.25.05q-4.9-2.3-12.9-.1-7.15 1.95-8.3 4.2-4-8.4 3.45-12.8 2.95-1.8 6.5-1.95" fill="#803500" transform="translate(21.55 12)"/><path d="M-.25-7.85Q-1.5-2.4-2.65-.95q-4.35.4-8.65 2.2-3.95 1.6-4.65 2.95-.95-2.1-1.15-3.75.95-3 7.15-5.05Q-2.4-7.1-.2-9.2l-.05 1.35" fill="#421400" transform="translate(21.55 12)"/><path d="m15.85-6.7.2.25q2.75 4.25 2.25 9.9L17.95 5q.9 1.05 2.3.65 1.2-.45 1.1-2.35l.1-.2q1.1 1.4.65 2.45-.4 1.05-1.95 1.2Q17.45 8 18.4 12q.9 3.75 2.55 4.3 2.15.95 2-1.2 1.05 1.95-1.1 2.5-2.05.6-3.2-.5-.55 1.7 1.55 3l3.95.15q-.5 1.5-3.55 1.35-3-.15-4.25-1.6-3.1-13.5-9.1-18.6-.85-.75-2-1.3Q2.1-1.35-2.65-.95q1.05-1.3 2.25-6.6-.35-.55 2.3 1.4 6 3.05 13.35.1l.6-.65" fill="#421400" transform="translate(21.55 12)"/><path d="M-8.15-10.35q-1.05.15-3.3 2.4 2.65-1.55 6-.95-2.05.2-3.35.75-.95.35-2.3 1.4 3.15-1.45 5.25-.8-2.15.2-4.9 1.45-3.4 1.55-4.8 3.7.45-1.95 2.35-3.15-1.55.8-2.7 2.45l-.7 1.15.45-1.25 1.45-2.1q-1.05.55-1.8 1.65l-.6 1q.8-3.4 4.1-5.65 2.5-1.75 4.85-2.05M7.4-10.8l-1.1.25-.75.35 3.55.25 2.3.85.3.15-2.5-.35-2.05.15-.85.2 1.6.3 2.1.7 2.3 1.25q-1.95-1.4-6.8-1.2l-3.4.45 1.15-.6 1.8-.4q-.65-.2-4.3.75l.85-.65q.85-.55 1.35-.7 1.2-.15 1.55-.4l-2.4-.2L1-9.7l.15-.15 1.05-.3 1.25-.3 1.75-.45 2.2.1" fill="#d47a3b" transform="translate(21.55 12)"/><path d="M1.75-5.25q5.45.55 9.3 3.35 4.45 3.2 4.6 8.1 0 .4-.3.45l-.55-.1Q9.3 1.4-1.05 1.85q-10.45.5-14.55 5.2l-.6.1-.25-.55Q-14.95.15-9.4-3q4.95-2.8 11.15-2.25" fill="#0f0801" transform="translate(21.55 12)"/><path d="M-.2-4.4q5.35 0 9.4 2.45Q13.65.8 14.8 5.6 8.4.35-1.9 1.05q-9.1.65-13.3 4.6 1.15-4.75 5.6-7.5 4.05-2.5 9.4-2.55" fill="#f8c606" transform="translate(21.55 12)"/><path d="M-2.75 1.9-9.6 3.6l-5.2 1Q-12.95-3-2.2-4.35q-.9 2.25-.55 6.25" fill="#fff" transform="translate(21.55 12)"/><path d="M14.8 5.6q-3.6-2.95-8.55-4 .55-2.8-.35-5.05 7.3 2.4 8.9 9.05" fill="#b57a06" transform="translate(21.55 12)"/><path d="M-4.6-2.2q2.05-.25 3.45.5Q-.5-.45.7.65 1.05 1.9.65 3.1q-.8 2.15-6.9 4.9-7.65 3.25-8.35 7.2l-.5-.1q-3.35-3.35-1.9-7.75 1.25-3.6 5.2-6.45 3.65-2.7 7.2-3.1" transform="translate(21.55 12)"/><path d="M-1.15-1.7.35-.3.7.65Q-.55-.55-1.15-1.7" transform="translate(21.55 12)"/><path d="M-15 14.15q-2.15-2.85-.95-6.4 1.1-3.1 4.3-5.75 3.05-2.5 6.2-3.15Q-2-1.85-.5.2 1.35 3.25-5.9 7q-8.45 4.3-9.1 7.15" fill="#803500" transform="translate(21.55 12)"/><path d="m-11.95 7.4 4.65-1.95q5.4-2.5 4.6-6.6Q-1.15-.8-.4.25.75 2.2-1 4q-1.2 1.2-4.8 3.05-8.45 4.3-9.1 7.1-1.15-1.5-1.35-2.45 0-1 .55-1.65 1.15-1.4 3.75-2.65" fill="#421400" transform="translate(21.55 12)"/><path d="M-7.25.85Q-8.8 1.6-10.8 3.4l-1.75 1.95q.75-.6 2.8-1.55l2.05-.75q-1.65.8-3.1 2l-4 3.35q.5-1.35 2.35-2.55-.4-.1-1.85 1l-1.35 1.1 1.3-2.2L-13 4.3l-1.75 1.15-.25.25v.05l-.05-.05 1.75-2.4 3.15-2.4-1.55 1.25-1.15 1.4q.9-.9 2.75-1.65l1.75-.75 1.1-.3M-15 5.7v-.05.05" fill="#d47a3b" transform="translate(21.55 12)"/><path d="M16.45 7.1q1.5 4.3-1.85 7.75l-.55.1q-.65-3.9-8.3-7.25-6.05-2.65-6.9-4.85-.6-1.5.25-3.4 1.55-2.35 5-1.9 3.55.4 7.2 3.1 3.9 2.85 5.15 6.45" transform="translate(21.55 12)"/><path d="M0-.1q1.5-2 4.9-1.3 3.2.6 6.25 3.15 3.2 2.6 4.25 5.7 1.25 3.55-.95 6.4-.65-2.8-9.1-7.1Q-1.85 3 0-.1" fill="#803500" transform="translate(21.55 12)"/><path d="M14.5 5.55q2.8 4.6-.05 8.3-.65-2.8-8.65-6.9Q-1.35 3.3-.3.5q.05 2.35 5 4.6l8.55 3.85Q10.15 6 9.15 4.5q1 1 2.55 1.75Q13.25 7 14.25 8q-.6-4.4-6.95-8.65 4.75 2.05 7.2 6.2" fill="#421400" transform="translate(21.55 12)"/><path d="M5.55 4.6 1.25 2q.5 0 4.8 1.75L2.15.6 6.9 2.1Q2.95-.8 1.5-1.15 6.95-2.6 11 2.65q-1.7-1.5-5.5-3l6.25 5.45L6.4 3 10 6.75 5.55 4.6" fill="#d47a3b" transform="translate(21.55 12)"/><path d="M-11.95-6.95q2.6-1.45 4.5-.05 2.5 1.75 1.7 5.6Q-6 .5-7.65 1.5q-2.2 1.25-4.25.45-3.65-1.65-3.75-4.1 0-2.9 3.7-4.8" fill="#0f0801" transform="translate(21.55 12)"/><path d="M-6.75-1.55Q-7.1.25-8.85 1l-2.75.15q-3.8-2.05-2.95-4.3.6-1.65 3-2.8 2.4-1.35 3.9.15 1.5 1.45.9 4.25" fill="#f8c606" transform="translate(21.55 12)"/><path d="M-8.5-4.65q.45-.15 1.3-.65 1.45 2.3.15 4.75l-1.3-.6v-1.7l-.15-.85-.05-.95h.05" fill="#b57a06" transform="translate(21.55 12)"/><path d="M-14.55-1.35q-.3-.8-.1-1.75l1.05-1.55 1.25-.9q.1.6.05 2l.3 2.25.2.8q-1.4.65-1.5.6-1-.8-1.25-1.45" fill="#fff" transform="translate(21.55 12)"/><path d="M-7.75-1.75Q-8-.45-9.3.1l-2.05.1q-2.8-1.5-2.2-3.2.45-1.15 2.2-2.05 1.8-1 2.95.15 1.1 1.05.65 3.15" fill="#ff7d00" transform="translate(21.55 12)"/><path d="m-9.4-4.35-2.05-.1q-3.6 1.7-.05 3.7 2.1.7 2.55-1.4.3-1.45-.45-2.2M-13.55-3q.45-1.2 2.2-2.05l2.95.1q1.1 1.05.65 3.15Q-8-.5-9.3.05l-2.05.15q-2.8-1.55-2.2-3.2" fill="#d63600" transform="translate(21.55 12)"/><path d="M-8.25-2.15Q-8.25-.6-9.9-.6q-1.6 0-1.6-1.55t1.6-1.55q1.65 0 1.65 1.55" fill="#d63600" transform="translate(21.55 12)"/><path d="M-10.85-2.75q0 1.2-1.2 1.2t-1.2-1.2q0-1.15 1.2-1.15t1.2 1.15" fill="#fff" transform="translate(21.55 12)"/><path d="M-19.85-1.95q-1.15-1-.65-2.9.85-2.85 2.85-2.45.95.2 1.8 1.1.75.85.7 1.45 0 .2-.15.35-1.15.8-.75 2.2.2.45-.3.65-2.25.8-3.5-.4" fill="#0f0801" transform="translate(21.55 12)"/><path d="M-16.9-2.3q-3.4.55-2.7-2.4.8-2.1 2.2-1.55 1.3.5 1.25 1.45-.95.7-.75 2.5" fill="#f8c606" transform="translate(21.55 12)"/><path d="M-19.4-.25q.7-.7 1.9-.85 1.15-.15 1.6.25l.2.35q.15 1.45 1.4 1.85.45.15.35.65-.7 2.25-2.35 2.65-1.5.3-2.75-1.15-1.75-2.35-.35-3.75" fill="#0f0801" transform="translate(21.55 12)"/><path d="M-14.9 2.05q-1.55 3.05-3.5.75-1.25-1.85 0-2.7l1.9-.15q0 1.15 1.6 2.1" fill="#f8c606" transform="translate(21.55 12)"/><path d="M-19.75-3.6q.6 1.4 2.2-.2l1.4-1q-.8.55-.8 2.55l-.9.1-.85-.2q-.55-.1-.8-.45l-.25-.75v-.05m3 4.6q-.1-.8.2-1.05.3 1.5 1.6 2 .35.15-.4.9l-1.35 1q-.65.05-1.3-.6l-.45-.5 1.05.15q1-.1 1.05-.9l-.4-1" fill="#b57a06" transform="translate(21.55 12)"/><path d="m-19.4-4.25.45-1 .65-.65.95-.15q.6.1.5.65-.7-.3-1.55.55-.55.55-1 .6m1.25 6.85q-1.25-.9-.35-2 .45-.6 1.4-.6l-.65.6-.35.65q-.2.9 0 1.45l-.05-.1" fill="#fff" transform="translate(21.55 12)"/><path d="M15.3 13.05q.15-.2.4-.2 4.3.15 4.7 2.65.4 2.3-2.8 3.6-2.15 1.05-3.2-.35-1.8-2.15.9-5.7m4.15 2.8-.05-.2q-.25-1.55-3.45-1.8-1.1 1.7-1.1 3.1 0 .75.3 1.2.55.7 2.05 0 2.25-.9 2.25-2.3" fill="#0f0801" transform="translate(21.55 12)"/><path d="M15.95 13.85q3.15.2 3.5 1.7.35 1.4-2.1 2.65-1.95.95-2.5-.5-.6-1.5 1.1-3.85" fill="#f8c606" transform="translate(21.55 12)"/><path d="m15.9 14 .05-.15q2.45.2 3.25 1.2.7.9-.35 2.05.05-2.2-2.95-3.1" fill="#fff" transform="translate(21.55 12)"/><path d="m17.3 18.25-2.15-.1q-.75-.75-.2-2.3.65 1.3 2.35 2.4" fill="#b57a06" transform="translate(21.55 12)"/><path d="M-15.95 17.6q0-1.4-1.15-3.1-3.15.15-3.4 1.8l-.05.2q0 1.4 2.25 2.3l2-.05q.35-.35.35-1.15m-.9-4.15q.25 0 .45.2 2.6 3.65.9 5.75-1 1.35-3.2.3-3.2-1.25-2.8-3.6.4-2.5 4.65-2.65" fill="#0f0801" transform="translate(21.55 12)"/><path d="M-17.1 14.5q1.7 2.3 1.15 3.8-.6 1.5-2.5.55-2.45-1.25-2.1-2.7.35-1.45 3.45-1.65" fill="#f8c606" transform="translate(21.55 12)"/><path d="M-19.95 17.75q-1.05-1.15-.35-2.1.8-1 3.2-1.15l.1.15q-3.05.9-2.95 3.1" fill="#fff" transform="translate(21.55 12)"/><path d="M-18.4 18.85q1.75-1.15 2.35-2.4.5 1.6-.25 2.35l-2.1.05" fill="#b57a06" transform="translate(21.55 12)"/><path d="m-14.75 15.25-.35-.15-.25-.25.45-.55.5.2-.2.7-.15.05" fill="#753255" transform="translate(21.55 12)"/><path d="m14.1 15.3-.25-.9.05-.05.15.6h.2l-.15.35" fill="#af4596" transform="translate(21.55 12)"/><path d="M14.25 14.95h-.2l-.15-.6.75-.55.1.05-.5 1.1" fill="#af4596" transform="translate(21.55 12)"/><path d="M-2.25 9.15q0-2 2-2 2.05 0 2.05 2t-2.05 2q-2 0-2-2" fill="#0f0801" transform="translate(21.55 12)"/><path d="M-.25 7.65q1.55 0 1.55 1.5t-1.55 1.5q-1.5 0-1.5-1.5t1.5-1.5" fill="#ff7d00" transform="translate(21.55 12)"/><path d="m-.6 7.75.35-.1q1.55 0 1.55 1.5t-1.55 1.5q-1.5 0-1.5-1.5.2 1 1.15 1 1.25 0 1.25-1.2T-.6 7.75" fill="#d63600" transform="translate(21.55 12)"/><path d="M-7.35 4.65q0-2 2.05-2t2.05 2q0 2-2.05 2t-2.05-2" fill="#0f0801" transform="translate(21.55 12)"/><path d="M-3.75 4.65q0 1.5-1.55 1.5t-1.55-1.5q0-1.5 1.55-1.5t1.55 1.5" fill="#ff00e1" transform="translate(21.55 12)"/><path d="M-6.85 4.65q.2 1 1.2 1 1.25 0 1.25-1.2t-1.25-1.2l.35-.1q1.55 0 1.55 1.5t-1.55 1.5q-1.55 0-1.55-1.5" fill="#84037b" transform="translate(21.55 12)"/><path d="M-5.35 4.45q0 .65-.65.65t-.65-.65q0-.6.65-.6t.65.6" fill="#fcfcfc" transform="translate(21.55 12)"/><path d="M2.6 4.55q0-2 2.05-2t2.05 2q0 2-2.05 2t-2.05-2" fill="#0f0801" transform="translate(21.55 12)"/><path d="M6.2 4.55q0 1.5-1.55 1.5T3.1 4.55q0-1.5 1.55-1.5t1.55 1.5" fill="#00e1ff" transform="translate(21.55 12)"/><path d="M4.65 3.05q1.55 0 1.55 1.5t-1.55 1.5q-1.55 0-1.55-1.5.15.95 1.2.95 1.25 0 1.25-1.15 0-1.2-1.25-1.2l-.35.05.7-.15" fill="#00737c" transform="translate(21.55 12)"/><path d="M4.6 4.35q0 .65-.65.65t-.65-.65q0-.65.65-.65t.65.65" fill="#fcfcfc" transform="translate(21.55 12)"/><path d="M1.05 3.3q1.3-1.1.65-2.5-.15-.4.2-.65.45-.2.7.2 2.85 4.6 0 6.95-1.25 1-3 .95-1.8-.05-2.9-1.15-2.45-2.45.9-6.8.25-.3.65-.15.35.15.25.6-.65 2.5.4 3.05.95.6 2.15-.5" fill="#0f0801" transform="translate(21.55 12)"/><path d="M2.95 5.9Q2 7.6-.3 7.5q-2.3-.1-3.1-1.85Q-4.3 3.6-2 .6q-.5 2.45.3 3.5.65.9 1.85.5Q1.3 4.25 2 3.1q.7-1.25.15-2.5 1.95 3.3.8 5.3" fill="#f8c606" transform="translate(21.55 12)"/><path d="M2.15.6q2.95 4.95-.6 6.55l-2.85.2Q-2.85 6.9-3.4 5.6q3.1 1.65 5.05-.3 1.95-1.9.5-4.7" fill="#b57a06" transform="translate(21.55 12)"/><path d="m-2.4 1.35-.25 1.3q-.1 1.4.65 2 .45.45 2.3.55-.6.55-1.75.35-1.2-.15-1.45-.9-.2-.55 0-1.8l.5-1.5" fill="#fff" transform="translate(21.55 12)"/><path d="M-.25 8.95q0 .65-.65.65-.7 0-.7-.65 0-.6.7-.6.65 0 .65.6" fill="#fcfcfc" transform="translate(21.55 12)"/><path d="M-17.6 13.9q0-2 2.05-2t2.05 2q0 2-2.05 2t-2.05-2" fill="#0f0801" transform="translate(21.55 12)"/><path d="M-14 13.9q0 1.5-1.55 1.5t-1.55-1.5q0-1.5 1.55-1.5t1.55 1.5" fill="#f8c606" transform="translate(21.55 12)"/><path d="M-17.1 13.9q.2 1 1.2 1 1.25 0 1.25-1.2t-1.25-1.2l.35-.1q1.55 0 1.55 1.5t-1.55 1.5q-1.55 0-1.55-1.5" fill="#b57a06" transform="translate(21.55 12)"/><path d="M12.6 13.4q0-2 2.05-2t2.05 2q0 2-2.05 2t-2.05-2" fill="#0f0801" transform="translate(21.55 12)"/><path d="M16.2 13.4q0 1.5-1.55 1.5t-1.55-1.5q0-1.5 1.55-1.5t1.55 1.5" fill="#f8c606" transform="translate(21.55 12)"/><path d="M14.65 11.9q1.55 0 1.55 1.5t-1.55 1.5q-1.55 0-1.55-1.5.25.95 1.2.95 1.25 0 1.25-1.15 0-1.2-1.25-1.2l-.35.05.7-.15" fill="#b57a06" transform="translate(21.55 12)"/><path d="M14.75 13.05q0 .75-.7.75-.75 0-.75-.75t.75-.75q.7 0 .7.75m-30.2.55q0 .75-.7.75-.75 0-.75-.75t.75-.75q.7 0 .7.75" fill="#fff" transform="translate(21.55 12)"/></g></defs></svg>