<?xml version="1.0" encoding="UTF-8" standalone="no"?>
<svg xmlns:xlink="http://www.w3.org/1999/xlink" height="92.9px" width="100.7px" xmlns="http://www.w3.org/2000/svg">
  <g transform="matrix(1.0, 0.0, 0.0, 1.0, 38.65, 49.75)">
    <use height="34.45" transform="matrix(1.0, 0.0, 0.0, 1.0, -21.55, -12.0)" width="46.8" xlink:href="#shape0"/>
  </g>
  <defs>
    <g id="shape0" transform="matrix(1.0, 0.0, 0.0, 1.0, 21.55, 12.0)">
      <path d="M-7.5 -11.3 Q-3.1 -11.95 -0.3 -10.15 8.3 -13.9 13.85 -10.0 19.25 -6.15 19.25 1.85 L19.2 3.0 Q19.8 3.45 20.2 3.25 20.65 3.1 20.7 2.2 20.8 1.85 21.05 1.8 L21.55 1.9 Q23.65 3.7 23.0 5.7 22.55 7.3 20.85 7.45 19.05 7.9 19.05 10.15 19.05 11.85 19.9 13.65 20.7 15.3 21.3 15.45 L22.0 15.55 Q22.35 15.3 22.25 14.45 22.25 14.1 22.6 13.95 22.95 13.85 23.15 14.15 24.95 16.5 23.4 17.9 22.0 19.05 19.8 18.5 L20.9 19.45 24.45 19.3 Q24.7 19.05 25.05 19.3 25.35 19.5 25.2 19.85 24.6 21.7 22.05 22.25 17.55 23.1 15.4 20.6 L15.3 20.4 Q14.45 16.2 12.75 11.65 9.35 2.65 4.95 0.6 0.2 -1.65 -7.7 0.95 -14.65 3.2 -15.7 5.3 L-16.15 5.6 -16.6 5.3 Q-20.95 -2.65 -15.0 -7.95 -11.9 -10.65 -7.5 -11.3" fill="#000000" fill-rule="evenodd" stroke="none"/>
      <path d="M-6.0 -10.6 Q-2.45 -10.75 -0.25 -9.15 9.35 -13.5 14.6 -8.3 19.0 -3.95 18.3 3.4 20.45 5.4 21.45 3.0 22.55 4.4 22.1 5.5 21.7 6.55 20.15 6.7 17.45 7.95 18.4 11.95 19.3 15.7 20.95 16.25 23.1 17.2 22.95 15.05 24.0 17.0 21.85 17.55 19.8 18.15 18.65 17.0 18.1 18.75 20.2 20.05 L24.15 20.2 Q23.65 21.65 20.6 21.5 17.6 21.35 16.35 19.95 15.4 15.85 13.55 11.3 9.85 2.2 5.25 0.05 0.35 -2.25 -7.65 -0.05 -14.8 1.9 -15.95 4.15 -19.95 -4.25 -12.5 -8.65 -9.55 -10.45 -6.0 -10.6" fill="#803500" fill-rule="evenodd" stroke="none"/>
      <path d="M-0.25 -7.85 Q-1.5 -2.4 -2.65 -0.95 -7.0 -0.55 -11.3 1.25 -15.25 2.85 -15.95 4.2 -16.9 2.1 -17.1 0.45 -16.15 -2.55 -9.95 -4.6 -2.4 -7.1 -0.2 -9.2 L-0.25 -7.85" fill="#421400" fill-rule="evenodd" stroke="none"/>
      <path d="M15.85 -6.7 L16.05 -6.45 Q18.8 -2.2 18.3 3.45 L17.95 5.0 Q18.85 6.05 20.25 5.65 21.45 5.2 21.35 3.3 L21.45 3.1 Q22.55 4.5 22.1 5.55 21.7 6.6 20.15 6.75 17.45 8.0 18.4 12.0 19.3 15.75 20.95 16.3 23.1 17.25 22.95 15.1 24.0 17.05 21.85 17.6 19.8 18.2 18.65 17.1 18.1 18.8 20.2 20.1 L24.15 20.25 Q23.65 21.75 20.6 21.6 17.6 21.45 16.35 20.0 13.25 6.5 7.25 1.4 6.4 0.65 5.25 0.1 2.1 -1.35 -2.65 -0.95 -1.6 -2.25 -0.4 -7.55 -0.75 -8.1 1.9 -6.15 7.9 -3.1 15.25 -6.05 L15.85 -6.7" fill="#421400" fill-rule="evenodd" stroke="none"/>
      <path d="M-8.15 -10.35 Q-9.2 -10.2 -11.45 -7.95 -8.8 -9.5 -5.45 -8.9 -7.5 -8.7 -8.8 -8.15 -9.75 -7.8 -11.1 -6.75 -7.95 -8.2 -5.85 -7.55 -8.0 -7.35 -10.75 -6.1 -14.15 -4.55 -15.55 -2.4 -15.1 -4.35 -13.2 -5.55 -14.75 -4.75 -15.9 -3.1 L-16.6 -1.95 -16.15 -3.2 -14.7 -5.3 Q-15.75 -4.75 -16.5 -3.65 L-17.1 -2.65 Q-16.3 -6.05 -13.0 -8.3 -10.5 -10.05 -8.15 -10.35" fill="#d47a3b" fill-rule="evenodd" stroke="none"/>
      <path d="M7.4 -10.8 L6.3 -10.55 5.55 -10.2 9.1 -9.95 11.4 -9.1 11.7 -8.95 9.2 -9.3 7.15 -9.15 6.3 -8.95 7.9 -8.65 10.0 -7.95 12.3 -6.7 Q10.35 -8.1 5.5 -7.9 L2.1 -7.45 3.25 -8.05 5.05 -8.45 Q4.4 -8.65 0.75 -7.7 L1.6 -8.35 Q2.45 -8.9 2.95 -9.05 4.15 -9.2 4.5 -9.45 L2.1 -9.65 1.0 -9.7 1.15 -9.85 2.2 -10.15 3.45 -10.45 5.2 -10.9 7.4 -10.8" fill="#d47a3b" fill-rule="evenodd" stroke="none"/>
      <path d="M1.75 -5.25 Q7.2 -4.7 11.05 -1.9 15.5 1.3 15.65 6.2 15.65 6.6 15.35 6.65 L14.8 6.55 Q9.3 1.4 -1.05 1.85 -11.5 2.35 -15.6 7.05 L-16.2 7.15 -16.45 6.6 Q-14.95 0.15 -9.4 -3.0 -4.45 -5.8 1.75 -5.25" fill="#0f0801" fill-rule="evenodd" stroke="none"/>
      <path d="M-0.2 -4.4 Q5.15 -4.4 9.2 -1.95 13.65 0.8 14.8 5.6 8.4 0.35 -1.9 1.05 -11.0 1.7 -15.2 5.65 -14.05 0.9 -9.6 -1.85 -5.55 -4.35 -0.2 -4.4" fill="#f8c606" fill-rule="evenodd" stroke="none"/>
      <path d="M-2.75 1.9 L-9.6 3.6 -14.8 4.6 Q-12.95 -3.0 -2.2 -4.35 -3.1 -2.1 -2.75 1.9" fill="#ffffff" fill-rule="evenodd" stroke="none"/>
      <path d="M14.8 5.6 Q11.2 2.65 6.25 1.6 6.8 -1.2 5.9 -3.45 13.2 -1.05 14.8 5.6" fill="#b57a06" fill-rule="evenodd" stroke="none"/>
      <path d="M-4.6 -2.2 Q-2.55 -2.45 -1.15 -1.7 -0.5 -0.45 0.7 0.65 1.05 1.9 0.65 3.1 -0.15 5.25 -6.25 8.0 -13.9 11.25 -14.6 15.2 L-15.1 15.1 Q-18.45 11.75 -17.0 7.35 -15.75 3.75 -11.8 0.9 -8.15 -1.8 -4.6 -2.2" fill="#000000" fill-rule="evenodd" stroke="none"/>
      <path d="M-1.15 -1.7 L0.35 -0.3 0.7 0.65 Q-0.55 -0.55 -1.15 -1.7" fill="#000000" fill-rule="evenodd" stroke="none"/>
      <path d="M-15.0 14.15 Q-17.15 11.3 -15.95 7.75 -14.85 4.65 -11.65 2.0 -8.6 -0.5 -5.45 -1.15 -2.0 -1.85 -0.5 0.2 1.35 3.25 -5.9 7.0 -14.35 11.3 -15.0 14.15" fill="#803500" fill-rule="evenodd" stroke="none"/>
      <path d="M-11.95 7.4 L-7.3 5.45 Q-1.9 2.95 -2.7 -1.15 -1.15 -0.8 -0.4 0.25 0.75 2.2 -1.0 4.0 -2.2 5.2 -5.8 7.05 -14.25 11.35 -14.9 14.15 -16.05 12.65 -16.25 11.7 -16.25 10.7 -15.7 10.05 -14.55 8.65 -11.95 7.4" fill="#421400" fill-rule="evenodd" stroke="none"/>
      <path d="M-7.25 0.85 Q-8.8 1.6 -10.8 3.4 L-12.55 5.35 Q-11.8 4.75 -9.75 3.8 L-7.7 3.05 Q-9.35 3.85 -10.8 5.05 L-14.8 8.4 Q-14.3 7.05 -12.45 5.85 -12.85 5.75 -14.3 6.85 L-15.65 7.95 -14.35 5.75 -13.0 4.3 -14.75 5.45 -15.0 5.7 -15.0 5.75 -15.05 5.7 -13.3 3.3 -10.15 0.9 -11.7 2.15 -12.85 3.55 Q-11.95 2.65 -10.1 1.9 L-8.35 1.15 -7.25 0.85 M-15.0 5.7 L-15.0 5.65 -15.0 5.7" fill="#d47a3b" fill-rule="evenodd" stroke="none"/>
      <path d="M16.45 7.1 Q17.95 11.4 14.6 14.85 L14.05 14.95 Q13.4 11.05 5.75 7.7 -0.3 5.05 -1.15 2.85 -1.75 1.35 -0.9 -0.55 0.65 -2.9 4.1 -2.45 7.65 -2.05 11.3 0.65 15.2 3.5 16.45 7.1" fill="#000000" fill-rule="evenodd" stroke="none"/>
      <path d="M0.0 -0.1 Q1.5 -2.1 4.9 -1.4 8.1 -0.8 11.15 1.75 14.35 4.35 15.4 7.45 16.65 11.0 14.45 13.85 13.8 11.05 5.35 6.75 -1.85 3.0 0.0 -0.1" fill="#803500" fill-rule="evenodd" stroke="none"/>
      <path d="M14.5 5.55 Q17.3 10.15 14.45 13.85 13.8 11.05 5.8 6.95 -1.35 3.3 -0.3 0.5 -0.25 2.85 4.7 5.1 L13.25 8.95 Q10.15 6.0 9.15 4.5 10.15 5.5 11.7 6.25 13.25 7.0 14.25 8.0 13.65 3.6 7.3 -0.65 12.05 1.4 14.5 5.55" fill="#421400" fill-rule="evenodd" stroke="none"/>
      <path d="M5.55 4.6 L1.25 2.0 Q1.75 2.0 6.05 3.75 L2.15 0.6 6.9 2.1 Q2.95 -0.8 1.5 -1.15 6.95 -2.6 11.0 2.65 9.3 1.15 5.5 -0.35 L11.75 5.1 6.4 3.0 10.0 6.75 5.55 4.6" fill="#d47a3b" fill-rule="evenodd" stroke="none"/>
      <path d="M-11.95 -6.95 Q-9.35 -8.4 -7.45 -7.0 -4.95 -5.25 -5.75 -1.4 -6.0 0.5 -7.65 1.5 -9.85 2.75 -11.9 1.95 -15.55 0.3 -15.65 -2.15 -15.65 -5.05 -11.95 -6.95" fill="#0f0801" fill-rule="evenodd" stroke="none"/>
      <path d="M-6.75 -1.55 Q-7.1 0.25 -8.85 1.0 L-11.6 1.15 Q-15.4 -0.9 -14.55 -3.15 -13.95 -4.8 -11.55 -5.95 -9.15 -7.3 -7.65 -5.8 -6.15 -4.35 -6.75 -1.55" fill="#f8c606" fill-rule="evenodd" stroke="none"/>
      <path d="M-8.5 -4.65 Q-8.05 -4.8 -7.2 -5.3 -5.75 -3.0 -7.05 -0.55 L-8.35 -1.15 -8.35 -1.75 -8.35 -2.85 -8.5 -3.7 -8.55 -4.65 -8.5 -4.65" fill="#b57a06" fill-rule="evenodd" stroke="none"/>
      <path d="M-14.55 -1.35 Q-14.85 -2.15 -14.65 -3.1 L-13.6 -4.65 -12.35 -5.55 Q-12.25 -4.95 -12.3 -3.55 L-12.0 -1.3 -11.8 -0.5 Q-13.2 0.15 -13.3 0.1 -14.3 -0.7 -14.55 -1.35" fill="#ffffff" fill-rule="evenodd" stroke="none"/>
      <path d="M-7.75 -1.75 Q-8.0 -0.45 -9.3 0.1 L-11.35 0.2 Q-14.15 -1.3 -13.55 -3.0 -13.1 -4.15 -11.35 -5.05 -9.55 -6.05 -8.4 -4.9 -7.3 -3.85 -7.75 -1.75" fill="#ff7d00" fill-rule="evenodd" stroke="none"/>
      <path d="M-9.4 -4.35 L-11.45 -4.45 Q-15.05 -2.75 -11.5 -0.75 -9.4 -0.05 -8.95 -2.15 -8.65 -3.6 -9.4 -4.35 M-13.55 -3.0 Q-13.1 -4.2 -11.35 -5.05 L-8.4 -4.95 Q-7.3 -3.9 -7.75 -1.8 -8.0 -0.5 -9.3 0.05 L-11.35 0.2 Q-14.15 -1.35 -13.55 -3.0" fill="#d63600" fill-rule="evenodd" stroke="none"/>
      <path d="M-8.25 -2.15 Q-8.25 -0.6 -9.9 -0.6 -11.5 -0.6 -11.5 -2.15 -11.5 -3.7 -9.9 -3.7 -8.25 -3.7 -8.25 -2.15" fill="#d63600" fill-rule="evenodd" stroke="none"/>
      <path d="M-10.85 -2.75 Q-10.85 -1.55 -12.05 -1.55 -13.25 -1.55 -13.25 -2.75 -13.25 -3.9 -12.05 -3.9 -10.85 -3.9 -10.85 -2.75" fill="#ffffff" fill-rule="evenodd" stroke="none"/>
      <path d="M-19.85 -1.95 Q-21.0 -2.95 -20.5 -4.85 -19.65 -7.7 -17.65 -7.3 -16.7 -7.1 -15.85 -6.2 -15.1 -5.35 -15.15 -4.75 -15.15 -4.55 -15.3 -4.4 -16.45 -3.6 -16.05 -2.2 -15.85 -1.75 -16.35 -1.55 -18.6 -0.75 -19.85 -1.95" fill="#0f0801" fill-rule="evenodd" stroke="none"/>
      <path d="M-16.9 -2.3 Q-20.3 -1.75 -19.6 -4.7 -18.8 -6.8 -17.4 -6.25 -16.1 -5.75 -16.15 -4.8 -17.1 -4.1 -16.9 -2.3" fill="#f8c606" fill-rule="evenodd" stroke="none"/>
      <path d="M-19.4 -0.25 Q-18.7 -0.95 -17.5 -1.1 -16.35 -1.25 -15.9 -0.85 L-15.7 -0.5 Q-15.55 0.95 -14.3 1.35 -13.85 1.5 -13.95 2.0 -14.65 4.25 -16.3 4.65 -17.8 4.95 -19.05 3.5 -20.8 1.15 -19.4 -0.25" fill="#0f0801" fill-rule="evenodd" stroke="none"/>
      <path d="M-14.9 2.05 Q-16.45 5.1 -18.4 2.8 -19.65 0.95 -18.4 0.1 L-16.5 -0.05 Q-16.5 1.1 -14.9 2.05" fill="#f8c606" fill-rule="evenodd" stroke="none"/>
      <path d="M-19.75 -3.6 Q-19.15 -2.2 -17.55 -3.8 L-16.15 -4.8 Q-16.95 -4.25 -16.95 -2.25 L-17.85 -2.15 -18.7 -2.35 Q-19.25 -2.45 -19.5 -2.8 L-19.75 -3.55 -19.75 -3.6" fill="#b57a06" fill-rule="evenodd" stroke="none"/>
      <path d="M-16.75 1.0 Q-16.85 0.2 -16.55 -0.05 -16.25 1.45 -14.95 1.95 -14.6 2.1 -15.35 2.85 L-16.7 3.85 Q-17.35 3.9 -18.0 3.25 L-18.45 2.75 -17.4 2.9 Q-16.4 2.8 -16.35 2.0 L-16.75 1.0" fill="#b57a06" fill-rule="evenodd" stroke="none"/>
      <path d="M-19.4 -4.25 L-18.95 -5.25 -18.3 -5.9 -17.35 -6.05 Q-16.75 -5.95 -16.85 -5.4 -17.55 -5.7 -18.4 -4.85 -18.95 -4.3 -19.4 -4.25" fill="#ffffff" fill-rule="evenodd" stroke="none"/>
      <path d="M-18.15 2.6 Q-19.4 1.7 -18.5 0.6 -18.05 0.0 -17.1 0.0 L-17.75 0.6 -18.1 1.25 Q-18.3 2.15 -18.1 2.7 L-18.15 2.6" fill="#ffffff" fill-rule="evenodd" stroke="none"/>
      <path d="M15.3 13.05 Q15.45 12.85 15.7 12.85 20.0 13.0 20.4 15.5 20.8 17.8 17.6 19.1 15.45 20.15 14.4 18.75 12.6 16.6 15.3 13.05 M19.45 15.85 L19.4 15.65 Q19.15 14.1 15.95 13.85 14.85 15.55 14.85 16.95 14.85 17.7 15.15 18.15 15.7 18.85 17.2 18.15 19.45 17.25 19.45 15.85" fill="#0f0801" fill-rule="evenodd" stroke="none"/>
      <path d="M15.95 13.85 Q19.1 14.05 19.45 15.55 19.8 16.95 17.35 18.2 15.4 19.15 14.85 17.7 14.25 16.2 15.95 13.85" fill="#f8c606" fill-rule="evenodd" stroke="none"/>
      <path d="M15.9 14.0 L15.95 13.85 Q18.4 14.05 19.2 15.05 19.9 15.95 18.85 17.1 18.9 14.9 15.9 14.0" fill="#ffffff" fill-rule="evenodd" stroke="none"/>
      <path d="M17.3 18.25 L15.15 18.15 Q14.4 17.4 14.95 15.85 15.6 17.15 17.3 18.25" fill="#b57a06" fill-rule="evenodd" stroke="none"/>
      <path d="M-15.95 17.6 Q-15.95 16.2 -17.1 14.5 -20.25 14.65 -20.5 16.3 L-20.55 16.5 Q-20.55 17.9 -18.3 18.8 L-16.3 18.75 Q-15.95 18.4 -15.95 17.6 M-16.85 13.45 Q-16.6 13.45 -16.4 13.65 -13.8 17.3 -15.5 19.4 -16.5 20.75 -18.7 19.7 -21.9 18.45 -21.5 16.1 -21.1 13.6 -16.85 13.45" fill="#0f0801" fill-rule="evenodd" stroke="none"/>
      <path d="M-17.1 14.5 Q-15.4 16.8 -15.95 18.3 -16.55 19.8 -18.45 18.85 -20.9 17.6 -20.55 16.15 -20.2 14.7 -17.1 14.5" fill="#f8c606" fill-rule="evenodd" stroke="none"/>
      <path d="M-19.95 17.75 Q-21.0 16.6 -20.3 15.65 -19.5 14.65 -17.1 14.5 L-17.0 14.65 Q-20.05 15.55 -19.95 17.75" fill="#ffffff" fill-rule="evenodd" stroke="none"/>
      <path d="M-18.4 18.85 Q-16.65 17.7 -16.05 16.45 -15.55 18.05 -16.3 18.8 L-18.4 18.85" fill="#b57a06" fill-rule="evenodd" stroke="none"/>
      <path d="M-14.75 15.25 L-15.1 15.1 -15.35 14.85 -14.9 14.3 -14.4 14.5 -14.6 15.2 -14.75 15.25" fill="#753255" fill-rule="evenodd" stroke="none"/>
      <path d="M14.1 15.3 L13.85 14.4 13.9 14.35 14.05 14.95 14.25 14.95 14.1 15.3" fill="#af4596" fill-rule="evenodd" stroke="none"/>
      <path d="M14.25 14.95 L14.05 14.95 13.9 14.35 14.65 13.8 14.75 13.85 14.25 14.95" fill="#af4596" fill-rule="evenodd" stroke="none"/>
      <path d="M-2.25 9.15 Q-2.25 7.15 -0.25 7.15 1.8 7.15 1.8 9.15 1.8 11.15 -0.25 11.15 -2.25 11.15 -2.25 9.15" fill="#0f0801" fill-rule="evenodd" stroke="none"/>
      <path d="M-0.25 7.65 Q1.3 7.65 1.3 9.15 1.3 10.65 -0.25 10.65 -1.75 10.65 -1.75 9.15 -1.75 7.65 -0.25 7.65" fill="#ff7d00" fill-rule="evenodd" stroke="none"/>
      <path d="M-0.6 7.75 L-0.25 7.65 Q1.3 7.65 1.3 9.15 1.3 10.65 -0.25 10.65 -1.75 10.65 -1.75 9.15 -1.55 10.15 -0.6 10.15 0.65 10.15 0.65 8.95 0.65 7.75 -0.6 7.75" fill="#d63600" fill-rule="evenodd" stroke="none"/>
      <path d="M-7.35 4.65 Q-7.35 2.65 -5.3 2.65 -3.25 2.65 -3.25 4.65 -3.25 6.65 -5.3 6.65 -7.35 6.65 -7.35 4.65" fill="#0f0801" fill-rule="evenodd" stroke="none"/>
      <path d="M-3.75 4.65 Q-3.75 6.15 -5.3 6.15 -6.85 6.15 -6.85 4.65 -6.85 3.15 -5.3 3.15 -3.75 3.15 -3.75 4.65" fill="#ff00e1" fill-rule="evenodd" stroke="none"/>
      <path d="M-6.85 4.65 Q-6.65 5.65 -5.65 5.65 -4.4 5.65 -4.4 4.45 -4.4 3.25 -5.65 3.25 L-5.3 3.15 Q-3.75 3.15 -3.75 4.65 -3.75 6.15 -5.3 6.15 -6.85 6.15 -6.85 4.65" fill="#84037b" fill-rule="evenodd" stroke="none"/>
      <path d="M-5.35 4.45 Q-5.35 5.1 -6.0 5.1 -6.65 5.1 -6.65 4.45 -6.65 3.85 -6.0 3.85 -5.35 3.85 -5.35 4.45" fill="#fcfcfc" fill-rule="evenodd" stroke="none"/>
      <path d="M2.6 4.55 Q2.6 2.55 4.65 2.55 6.7 2.55 6.7 4.55 6.7 6.55 4.65 6.55 2.6 6.55 2.6 4.55" fill="#0f0801" fill-rule="evenodd" stroke="none"/>
      <path d="M6.2 4.55 Q6.2 6.05 4.65 6.05 3.1 6.05 3.1 4.55 3.1 3.05 4.65 3.05 6.2 3.05 6.2 4.55" fill="#00e1ff" fill-rule="evenodd" stroke="none"/>
      <path d="M4.65 3.05 Q6.2 3.05 6.2 4.55 6.2 6.05 4.65 6.05 3.1 6.05 3.1 4.55 3.25 5.5 4.3 5.5 5.55 5.5 5.55 4.35 5.55 3.15 4.3 3.15 L3.95 3.2 4.65 3.05" fill="#00737c" fill-rule="evenodd" stroke="none"/>
      <path d="M4.6 4.35 Q4.6 5.0 3.95 5.0 3.3 5.0 3.3 4.35 3.3 3.7 3.95 3.7 4.6 3.7 4.6 4.35" fill="#fcfcfc" fill-rule="evenodd" stroke="none"/>
      <path d="M1.05 3.3 Q2.35 2.2 1.7 0.8 1.55 0.4 1.9 0.15 2.35 -0.05 2.6 0.35 5.45 4.95 2.6 7.3 1.35 8.3 -0.4 8.25 -2.2 8.2 -3.3 7.1 -5.75 4.65 -2.4 0.3 -2.15 0.0 -1.75 0.15 -1.4 0.3 -1.5 0.75 -2.15 3.25 -1.1 3.8 -0.15 4.4 1.05 3.3" fill="#0f0801" fill-rule="evenodd" stroke="none"/>
      <path d="M2.95 5.9 Q2.0 7.6 -0.3 7.5 -2.6 7.4 -3.4 5.65 -4.3 3.6 -2.0 0.6 -2.5 3.05 -1.7 4.1 -1.05 5.0 0.15 4.6 1.3 4.25 2.0 3.1 2.7 1.85 2.15 0.6 4.1 3.9 2.95 5.9" fill="#f8c606" fill-rule="evenodd" stroke="none"/>
      <path d="M2.15 0.6 Q5.1 5.55 1.55 7.15 L-1.3 7.35 Q-2.85 6.9 -3.4 5.6 -0.3 7.25 1.65 5.3 3.6 3.4 2.15 0.6" fill="#b57a06" fill-rule="evenodd" stroke="none"/>
      <path d="M-2.4 1.35 L-2.65 2.65 Q-2.75 4.05 -2.0 4.65 -1.55 5.1 0.3 5.2 -0.3 5.75 -1.45 5.55 -2.65 5.4 -2.9 4.65 -3.1 4.1 -2.9 2.85 L-2.4 1.35" fill="#ffffff" fill-rule="evenodd" stroke="none"/>
      <path d="M-0.25 8.95 Q-0.25 9.6 -0.9 9.6 -1.6 9.6 -1.6 8.95 -1.6 8.35 -0.9 8.35 -0.25 8.35 -0.25 8.95" fill="#fcfcfc" fill-rule="evenodd" stroke="none"/>
      <path d="M-17.6 13.9 Q-17.6 11.9 -15.55 11.9 -13.5 11.9 -13.5 13.9 -13.5 15.9 -15.55 15.9 -17.6 15.9 -17.6 13.9" fill="#0f0801" fill-rule="evenodd" stroke="none"/>
      <path d="M-14.0 13.9 Q-14.0 15.4 -15.55 15.4 -17.1 15.4 -17.1 13.9 -17.1 12.4 -15.55 12.4 -14.0 12.4 -14.0 13.9" fill="#f8c606" fill-rule="evenodd" stroke="none"/>
      <path d="M-17.1 13.9 Q-16.9 14.9 -15.9 14.9 -14.65 14.9 -14.65 13.7 -14.65 12.5 -15.9 12.5 L-15.55 12.4 Q-14.0 12.4 -14.0 13.9 -14.0 15.4 -15.55 15.4 -17.1 15.4 -17.1 13.9" fill="#b57a06" fill-rule="evenodd" stroke="none"/>
      <path d="M12.6 13.4 Q12.6 11.4 14.65 11.4 16.7 11.4 16.7 13.4 16.7 15.4 14.65 15.4 12.6 15.4 12.6 13.4" fill="#0f0801" fill-rule="evenodd" stroke="none"/>
      <path d="M16.2 13.4 Q16.2 14.9 14.65 14.9 13.1 14.9 13.1 13.4 13.1 11.9 14.65 11.9 16.2 11.9 16.2 13.4" fill="#f8c606" fill-rule="evenodd" stroke="none"/>
      <path d="M14.65 11.9 Q16.2 11.9 16.2 13.4 16.2 14.9 14.65 14.9 13.1 14.9 13.1 13.4 13.35 14.35 14.3 14.35 15.55 14.35 15.55 13.2 15.55 12.0 14.3 12.0 L13.95 12.05 14.65 11.9" fill="#b57a06" fill-rule="evenodd" stroke="none"/>
      <path d="M14.75 13.05 Q14.75 13.8 14.05 13.8 13.3 13.8 13.3 13.05 13.3 12.3 14.05 12.3 14.75 12.3 14.75 13.05" fill="#ffffff" fill-rule="evenodd" stroke="none"/>
      <path d="M-15.45 13.6 Q-15.45 14.35 -16.15 14.35 -16.9 14.35 -16.9 13.6 -16.9 12.85 -16.15 12.85 -15.45 12.85 -15.45 13.6" fill="#ffffff" fill-rule="evenodd" stroke="none"/>
    </g>
  </defs>
</svg>
