<?xml version="1.0" encoding="UTF-8" standalone="no"?>
<svg xmlns:xlink="http://www.w3.org/1999/xlink" height="92.9px" width="100.7px" xmlns="http://www.w3.org/2000/svg">
  <g transform="matrix(1.0, 0.0, 0.0, 1.0, 38.65, 49.75)">
    <use height="23.5" transform="matrix(1.0, 0.0, 0.0, 1.0, -26.9, -4.65)" width="52.15" xlink:href="#shape0"/>
  </g>
  <defs>
    <g id="shape0" transform="matrix(1.0, 0.0, 0.0, 1.0, 26.9, 4.65)">
      <path d="M13.6 6.6 L16.4 8.3 Q19.35 9.25 20.35 5.3 22.7 8.3 21.45 10.55 L17.85 10.95 Q14.1 10.65 13.25 6.95 L13.6 6.6" fill="#6d6d6d" fill-rule="evenodd" stroke="none"/>
      <path d="M13.45 6.85 L16.25 8.7 Q19.25 9.85 20.5 6.45 21.75 8.55 21.1 10.05 19.75 10.7 18.15 10.6 14.9 10.4 13.45 6.85" fill="#fdfcff" fill-rule="evenodd" stroke="none"/>
      <path d="M25.2 18.05 Q20.25 19.5 18.9 18.35 24.95 16.1 20.75 13.2 16.05 12.7 14.8 11.15 L13.95 9.7 Q13.25 8.05 13.7 6.9 L14.1 8.9 Q15.0 10.95 17.3 11.3 L20.1 11.65 Q23.15 12.25 24.1 13.45 25.55 16.95 25.2 18.05" fill="#6d6d6d" fill-rule="evenodd" stroke="none"/>
      <path d="M14.25 9.65 L15.6 10.9 Q17.45 12.15 20.05 12.1 L22.5 12.75 Q24.85 14.1 24.55 17.45 21.25 18.6 19.95 18.35 25.75 15.5 20.9 13.05 15.0 11.6 14.25 9.65" fill="#ffffff" fill-rule="evenodd" stroke="none"/>
      <path d="M-15.15 6.8 L-14.8 7.1 Q-15.65 10.8 -19.4 11.15 L-23.0 10.7 Q-23.8 9.3 -22.9 7.25 L-21.9 5.45 Q-20.9 9.4 -17.9 8.5 -16.45 8.05 -15.15 6.8" fill="#6d6d6d" fill-rule="evenodd" stroke="none"/>
      <path d="M-15.0 7.05 Q-16.45 10.6 -19.7 10.75 L-22.65 10.2 Q-23.05 9.25 -22.6 7.85 L-22.05 6.6 Q-20.8 10.0 -17.75 8.85 -16.25 8.3 -15.0 7.05" fill="#fdfcff" fill-rule="evenodd" stroke="none"/>
      <path d="M-15.1 7.2 Q-14.4 9.0 -16.3 11.4 -17.55 12.95 -22.3 13.35 -24.95 15.1 -23.0 17.0 -22.05 17.95 -20.55 18.55 L-24.2 18.7 -26.85 18.05 Q-27.05 17.35 -26.4 15.4 L-25.65 13.55 Q-24.05 11.65 -18.8 11.55 -15.1 11.0 -15.1 7.2" fill="#6d6d6d" fill-rule="evenodd" stroke="none"/>
      <path d="M-15.7 9.95 Q-16.5 11.85 -22.45 13.15 -25.5 14.65 -23.85 16.75 -23.05 17.75 -21.6 18.5 L-26.2 17.5 Q-26.45 14.15 -24.0 12.85 -22.8 12.25 -21.55 12.25 -17.35 12.45 -15.7 9.95" fill="#ffffff" fill-rule="evenodd" stroke="none"/>
      <path d="M16.8 -1.05 Q18.45 2.25 16.4 5.45 15.55 7.15 13.6 7.8 13.9 11.0 13.5 12.15 11.35 2.9 6.4 1.05 L1.1 -0.65 -10.2 4.05 -13.95 10.1 -14.85 13.35 -14.6 14.8 Q-15.8 13.4 -15.6 11.1 L-15.15 9.1 Q-16.6 8.95 -18.0 6.8 L-19.1 4.65 Q-20.05 -0.85 -14.85 -3.0 -11.4 -4.45 -8.85 -2.8 -7.55 -1.95 -6.95 -0.85 L-5.15 -1.95 Q-2.9 -3.0 -0.55 -2.7 L0.95 -3.05 Q2.85 -3.25 4.75 -2.4 L7.7 -4.1 Q11.35 -5.4 14.75 -3.7 L16.8 -1.05" fill="#3f100c" fill-rule="evenodd" stroke="none"/>
      <path d="M6.0 -0.75 L-1.25 -1.4 0.75 -2.2 Q3.3 -2.6 6.0 -0.75" fill="#4f1912" fill-rule="evenodd" stroke="none"/>
      <path d="M-0.35 -1.75 L-7.75 0.1 -5.6 -1.3 Q-2.95 -2.55 -0.35 -1.75" fill="#4f1912" fill-rule="evenodd" stroke="none"/>
      <path d="M5.65 -1.05 Q12.45 1.8 13.5 12.25 12.4 10.05 10.4 8.15 6.35 4.35 1.65 6.0 L1.9 5.0 Q2.2 4.4 2.8 4.05 L-0.8 5.4 Q-5.55 7.2 -6.5 8.25 L-6.55 7.75 Q-6.35 6.75 -5.1 4.5 -10.1 6.5 -11.25 8.75 L-15.2 14.85 Q-15.85 11.15 -14.4 7.25 -11.55 -0.6 -1.0 -1.75 L1.05 -1.9 Q3.5 -1.9 5.65 -1.05" fill="#4f1912" fill-rule="evenodd" stroke="none"/>
      <path d="M-8.6 -1.6 Q-6.85 0.0 -6.85 2.3 -6.85 4.6 -8.6 6.25 -10.3 7.85 -12.75 7.85 -15.2 7.85 -16.9 6.25 -18.6 4.6 -18.6 2.3 -18.6 0.0 -16.9 -1.6 -15.2 -3.25 -12.75 -3.25 -10.3 -3.25 -8.6 -1.6" fill="#4f1912" fill-rule="evenodd" stroke="none"/>
      <path d="M15.1 -2.55 Q16.85 -0.95 16.85 1.35 16.85 3.65 15.1 5.3 13.4 6.95 10.95 6.95 8.5 6.95 6.8 5.3 5.1 3.7 5.1 1.35 5.1 -0.95 6.8 -2.55 8.5 -4.2 10.95 -4.2 13.4 -4.2 15.1 -2.55" fill="#4f1912" fill-rule="evenodd" stroke="none"/>
      <path d="M16.0 -1.55 Q14.75 4.35 10.65 4.05 14.3 2.5 16.0 -1.55" fill="#7b5148" fill-rule="evenodd" stroke="none"/>
      <path d="M8.85 0.1 Q13.5 0.0 15.55 -1.65 11.85 2.25 7.85 0.75 6.5 0.25 6.85 0.15 L8.85 0.1" fill="#7b5148" fill-rule="evenodd" stroke="none"/>
      <path d="M15.15 -2.05 Q10.15 -3.8 7.8 -1.05 L8.95 -2.65 Q11.4 -4.5 15.15 -2.05" fill="#7b5148" fill-rule="evenodd" stroke="none"/>
      <path d="M-12.55 5.2 Q-15.1 5.4 -16.7 2.5 L-17.85 -0.45 Q-16.15 3.6 -12.55 5.2" fill="#7b5148" fill-rule="evenodd" stroke="none"/>
      <path d="M-10.7 1.2 L-8.75 1.25 Q-8.4 1.35 -9.75 1.85 -12.25 2.8 -15.05 1.25 L-17.0 -0.2 Q-15.0 1.15 -10.7 1.2" fill="#7b5148" fill-rule="evenodd" stroke="none"/>
      <path d="M-17.05 -0.95 Q-13.3 -3.35 -10.8 -1.5 -9.6 -0.6 -9.1 0.8 -10.5 -1.5 -13.9 -1.45 L-17.05 -0.95" fill="#7b5148" fill-rule="evenodd" stroke="none"/>
      <path d="M10.5 3.2 Q13.0 5.55 13.6 11.85 L11.1 7.75 Q12.4 6.3 10.5 3.2" fill="#3f100c" fill-rule="evenodd" stroke="none"/>
      <path d="M2.5 4.2 Q-5.05 6.85 -6.5 8.25 L-6.55 7.55 -5.3 4.65 Q-11.65 7.45 -15.05 14.8 L-15.2 15.05 -15.4 12.05 Q-15.35 8.6 -14.05 6.45 L-14.3 8.5 Q-14.5 10.8 -14.05 11.45 L-12.15 8.25 Q-9.25 4.7 -4.3 3.2 L-2.7 3.25 -3.75 4.05 Q-4.8 5.0 -4.85 6.0 L-2.0 4.5 Q1.5 3.05 4.6 3.35 L3.2 4.95 5.5 4.8 Q8.4 5.05 11.35 7.0 11.3 4.0 10.5 3.2 12.7 5.1 13.5 12.25 12.4 10.05 10.4 8.15 6.35 4.4 1.65 6.0 L2.5 4.2" fill="#3f100c" fill-rule="evenodd" stroke="none"/>
      <path d="M-5.85 3.85 L-4.8 3.4 -1.3 3.05 Q-4.2 3.6 -4.85 6.0 L-5.85 3.85" fill="#3f100c" fill-rule="evenodd" stroke="none"/>
      <path d="M7.6 -0.65 Q7.75 1.05 8.9 -0.05 10.75 -0.3 10.1 0.8 9.4 1.6 9.95 1.95 L10.6 2.2 Q12.65 2.0 12.35 3.35 11.8 4.2 12.05 4.7 L12.4 5.05 Q15.5 5.6 12.1 7.0 L5.1 -1.3 6.25 -2.05 Q8.35 -2.65 7.6 -0.65" fill="#ffffff" fill-rule="evenodd" stroke="none"/>
      <path d="M12.15 5.75 Q13.65 5.5 12.5 6.5 L12.15 5.75" fill="#9c9a9c" fill-rule="evenodd" stroke="none"/>
      <path d="M11.4 4.3 Q10.75 2.95 10.15 2.8 12.4 2.45 11.4 4.3" fill="#9c9a9c" fill-rule="evenodd" stroke="none"/>
      <path d="M9.25 1.8 Q8.4 0.75 8.1 0.8 10.0 0.0 9.25 1.8" fill="#9c9a9c" fill-rule="evenodd" stroke="none"/>
      <path d="M7.15 0.0 L5.55 -0.8 Q7.15 -2.05 7.15 0.0" fill="#9c9a9c" fill-rule="evenodd" stroke="none"/>
      <path d="M13.25 5.3 L12.4 5.05 11.9 4.3 13.25 5.3" fill="#9c9a9c" fill-rule="evenodd" stroke="none"/>
      <path d="M12.35 2.75 Q11.65 2.0 10.6 2.2 L10.0 1.95 Q9.5 1.55 9.8 1.1 L10.75 1.8 Q12.65 2.05 12.35 2.75" fill="#9c9a9c" fill-rule="evenodd" stroke="none"/>
      <path d="M9.3 -0.35 Q10.15 -0.35 10.15 0.1 L8.5 0.2 Q7.45 0.7 7.7 -0.85 L7.8 -0.45 Q7.95 -0.05 8.4 -0.2 L9.3 -0.35" fill="#9c9a9c" fill-rule="evenodd" stroke="none"/>
      <path d="M11.65 3.6 L10.15 2.8 Q12.0 2.85 11.65 3.6" fill="#6d6d6d" fill-rule="evenodd" stroke="none"/>
      <path d="M6.95 -1.1 L5.5 -0.7 Q6.0 -1.35 6.95 -1.1" fill="#6d6d6d" fill-rule="evenodd" stroke="none"/>
      <path d="M9.8 1.1 Q10.1 2.1 10.9 2.1 9.85 2.25 9.7 1.7 L9.8 1.1" fill="#6d6d6d" fill-rule="evenodd" stroke="none"/>
      <path d="M9.55 -0.05 Q7.9 0.9 7.65 -0.15 L8.25 0.1 9.55 -0.05" fill="#6d6d6d" fill-rule="evenodd" stroke="none"/>
      <path d="M13.6 5.6 Q12.1 5.25 11.95 4.5 L13.6 5.6" fill="#6d6d6d" fill-rule="evenodd" stroke="none"/>
      <path d="M-8.4 -0.95 L-7.3 -0.2 -14.3 8.1 -15.6 7.35 Q-16.5 6.55 -14.6 6.2 -13.65 5.8 -14.55 4.5 L-14.45 3.85 Q-14.1 3.2 -12.8 3.3 -11.15 3.2 -12.3 1.95 L-12.35 1.4 Q-12.2 0.9 -11.1 1.05 -9.9 2.2 -9.8 0.5 L-9.9 -0.45 Q-9.75 -1.3 -8.4 -0.95" fill="#ffffff" fill-rule="evenodd" stroke="none"/>
      <path d="M-14.35 6.85 L-14.65 7.6 Q-15.4 7.0 -14.95 6.85 L-14.35 6.85" fill="#9c9a9c" fill-rule="evenodd" stroke="none"/>
      <path d="M-13.6 5.45 Q-14.2 4.25 -13.35 4.0 L-12.35 3.95 -13.6 5.45" fill="#9c9a9c" fill-rule="evenodd" stroke="none"/>
      <path d="M-11.4 2.95 Q-11.85 1.8 -11.15 1.75 L-10.3 1.95 -11.4 2.95" fill="#9c9a9c" fill-rule="evenodd" stroke="none"/>
      <path d="M-7.75 0.3 L-9.35 1.1 Q-9.35 -0.95 -7.75 0.3" fill="#9c9a9c" fill-rule="evenodd" stroke="none"/>
      <path d="M-15.8 6.75 L-14.1 5.45 -14.6 6.2 -15.8 6.75" fill="#9c9a9c" fill-rule="evenodd" stroke="none"/>
      <path d="M-14.55 3.85 Q-14.75 3.45 -13.85 3.15 L-12.9 2.95 -12.0 2.25 Q-11.5 3.0 -12.8 3.3 L-14.55 3.85" fill="#9c9a9c" fill-rule="evenodd" stroke="none"/>
      <path d="M-12.35 1.25 Q-12.35 0.75 -11.45 0.8 L-10.55 0.9 Q-9.9 1.15 -9.9 0.3 -9.65 1.85 -10.7 1.35 L-12.35 1.25" fill="#9c9a9c" fill-rule="evenodd" stroke="none"/>
      <path d="M-13.8 4.75 L-13.75 4.35 Q-13.5 4.0 -12.35 3.95 L-13.8 4.75" fill="#6d6d6d" fill-rule="evenodd" stroke="none"/>
      <path d="M-11.55 2.1 L-11.3 1.85 -10.15 2.05 -11.55 2.1" fill="#6d6d6d" fill-rule="evenodd" stroke="none"/>
      <path d="M-12.0 2.25 Q-11.4 3.45 -13.05 3.25 -12.3 3.25 -12.0 2.25" fill="#6d6d6d" fill-rule="evenodd" stroke="none"/>
      <path d="M-11.75 1.1 L-9.8 0.95 Q-10.05 2.05 -11.75 1.1" fill="#6d6d6d" fill-rule="evenodd" stroke="none"/>
      <path d="M-15.8 6.75 L-14.15 5.6 Q-14.3 6.35 -15.8 6.75" fill="#6d6d6d" fill-rule="evenodd" stroke="none"/>
      <path d="M11.55 4.6 Q12.7 6.7 12.75 8.3 L3.5 -1.9 Q9.2 0.45 11.55 4.6" fill="#4f1912" fill-rule="evenodd" stroke="none"/>
      <path d="M-13.75 5.85 Q-11.4 1.7 -5.75 -0.65 L-15.0 9.55 -13.75 5.85" fill="#4f1912" fill-rule="evenodd" stroke="none"/>
      <path d="M5.05 -0.25 Q3.1 1.05 0.15 1.0 L-2.35 0.75 Q-1.95 1.05 -2.8 1.45 -3.25 0.6 -4.45 0.5 L-5.5 0.55 Q-6.3 0.25 -7.3 1.25 L-8.15 2.3 Q-8.5 1.6 -7.2 0.7 -6.55 0.25 -5.8 -0.05 -0.45 1.35 5.05 -0.25" fill="#7b5148" fill-rule="evenodd" stroke="none"/>
      <path d="M-2.45 2.1 Q-2.45 1.6 -3.3 1.0 -6.3 0.0 -8.15 2.3 -9.35 3.75 -8.7 2.65 L-7.8 1.2 -6.15 0.25 -4.95 0.2 -2.85 0.6 -2.7 0.9 Q-2.05 1.15 -2.45 2.1" fill="#7b5148" fill-rule="evenodd" stroke="none"/>
      <path d="M-2.55 2.15 L-2.85 0.6 -1.6 0.8 -2.55 2.15" fill="#7b5148" fill-rule="evenodd" stroke="none"/>
      <path d="M3.05 0.3 Q3.85 0.55 4.4 1.45 3.9 1.0 2.35 0.6 3.15 1.0 2.85 2.55 2.6 1.85 1.35 1.25 L0.1 0.8 3.05 0.3" fill="#7b5148" fill-rule="evenodd" stroke="none"/>
      <path d="M-14.0 11.0 Q-12.9 6.2 -8.8 5.1 -10.7 6.35 -12.55 8.8 L-14.0 11.0" fill="#7b5148" fill-rule="evenodd" stroke="none"/>
      <path d="M3.25 -1.55 L0.65 -1.1 -0.5 -0.5 Q-0.85 -1.1 -3.15 -1.1 L-5.4 -0.95 Q-3.0 -2.4 -0.25 -1.4 L3.25 -1.55" fill="#3f100c" fill-rule="evenodd" stroke="none"/>
      <path d="M-8.95 1.45 Q-10.45 2.35 -12.1 4.8 L-13.6 7.45 Q-13.6 4.05 -8.95 1.45" fill="#3f100c" fill-rule="evenodd" stroke="none"/>
      <path d="M5.4 0.7 Q10.2 2.65 10.85 5.45 7.25 1.65 5.4 0.7" fill="#3f100c" fill-rule="evenodd" stroke="none"/>
      <path d="M-17.75 1.25 L-18.0 3.05 Q-18.85 -1.25 -15.15 -2.25 -17.1 -0.85 -17.75 1.25" fill="#ffffff" fill-rule="evenodd" stroke="none"/>
      <path d="M15.4 -1.45 Q17.25 1.6 14.7 4.5 16.0 1.45 15.4 -1.45" fill="#ffffff" fill-rule="evenodd" stroke="none"/>
    </g>
  </defs>
</svg>
