<svg xmlns:xlink="http://www.w3.org/1999/xlink" height="92.9" width="100.7" xmlns="http://www.w3.org/2000/svg"><use height="32.95" transform="translate(14.65 41.7)" width="46.8" xlink:href="#a"/><defs><path d="M2.3-15.7q.95.75 1.55 1.7.55.95.45 2l2.65-.05 1.1.05q2.45.15 4.9 1.1l3.85 1.75q1.4.75 1.8 2.2Q18-5.4 16.4-5.9l2.25 1.85q2.2 2.1 3.7 5.05 1.4 2.7.9 5.65l-.5.85-1.2.25Q20.8 7.6 19 5.05l1.35 2.35 1.05 2.55q.4 1.2.25 1.8l-.4 1.3q-.3.65-.9.85l-1.4-.25q-.85-.45-1.35-1.85-.5-1.4-2.1-3.65.45 1.55.35 2.75l-.35 2.25q-.45 2.3-1.5 1.8-1.15-.55-1.2-1.95l-.5-3.3L11.15 5l.25 3.1q.15 2.1-.05 3.65-.25 1.55-1.1 2.65-.85 1.1-1.4.9l-1-.5-.15-.45-.35-4.25-.3-3.7q-.25-2-.85-3.85T4.55-.85l-1.9-2.7-.6-.75-.5.3L.1-2.9Q-2.15-1-3.2 1.65l-1.05 2.3-1.5 1.45q-.55.4-1.05.2l-.1-.05q-1.2-2.1-.05-4.35 1.2-2.3 3.1-4.05Q-5.5-1.8-6.7-.4q-1.85 2.15-3.1 4.65-2.1 4.2-2.45 9l-.25 1.3-.5 1.15-1.1.45q-.85.15-1.55-.55-.75-.7-.65-1.9l-.3 1.6-.45.75q-.5.5-1.3.45-.7-.35-1.45-.75l-.4-1.45q-.25-1.1-.1-2.25-2.05 1.1-2.5-.15l-.55-2.2Q-23.8 5-21.15 1q1.35-2 3.05-3.55l-.4.35-.4.15-.75.15h-.3l-.25-.2-.55-.5-.05-.25.25-.35 1.4-1.85q1.2-1.65 4.3-3.65 4.75-3.15 10.45-3.65l5.25.45q.25-1.3-1-2.25-1.3-.95-1.15-1.75.35-.35 1.15-.55 1.5-.05 2.45.75" fill-rule="evenodd" transform="translate(23.4 16.45)" id="b"/><use height="32.95" width="46.8" xlink:href="#b" id="a"/></defs></svg>