<svg xmlns:xlink="http://www.w3.org/1999/xlink" height="92.9" width="100.7" xmlns="http://www.w3.org/2000/svg"><use height="23" transform="translate(20.55 42.2)" width="36.45" xlink:href="#a"/><defs><g id="a" fill-rule="evenodd"><path d="M15.45-3.7q.7 1.55.7 3.6l-.3 1.65q-.6 1.3-2.2 2.2l.75 2.8.9-.3q1.15-.05 2.05.65 1 .9 1 2.65 0 3.35-3 3.55l-1.65-.3q-3-2.15-3.5-2.25-12.9-3.3-20.15.3l-2.35 1.55-1.1.35-3.35-.15q-1.35-.9-1.35-3.05 0-2.7 2.1-3.2l1.8.1.75-2.7q-1.55-.8-2.15-2.2-.35-.75-.35-1.65 0-2.15.75-3.6 1.5-3.05 4.05-3.65 2.15-.6 4.5.8 1.05.7 1.85 1.75 2-.85 4.75-.85 2.9 0 5.05.9l1.85-1.8q1.75-1.05 3.4-1 3.25.1 5.2 3.85" transform="translate(18.1 7.55)"/><path d="M15.15-3.55q.75 1.45.75 3.45 0 .85-.35 1.55-.5 1.25-2.15 2.15l.75 3.35 1.15-.4q1.1-.05 1.85.6.9.75.9 2.4 0 3.05-2.7 3.25l-1.6-.3-1.9-.8-1.1-1.1.1 1.65q0 1.7-.35 2.25l-.25.4q-.85.85-2.75.4-2.4-.4-3-1.75-.25-.85-.25-2.5v-.55L.1 10.3l-4.65.25.05.9-.25 2.05q-.8 1.9-4.25 1.9-.95 0-1.5-.55-.6-.65-.6-3l-.05-.95-.2.35q-.5.8-.8.75l-1.35.5-3.05-.15q-1.25-.75-1.25-2.8 0-2.4 1.85-2.95l2 .3.75-3.3q-1.55-.85-2.15-2.2l-.3-1.5q0-2.1.7-3.45 1.5-2.95 3.85-3.55 2.05-.55 4.3.8l1.95 1.85q1.8-.9 4.8-.9 2.9 0 5.1.9L7-6.3q1.5-1 3.25-.95 3.1.1 4.9 3.7" transform="translate(18.1 7.55)"/><path d="m-10.25 11.75.1-2.1q1.6-3.1 4.65-.9l-.05 4.5q-.3.75-2.05 1.2l-2.25-.1q-.45-.45-.4-2.6m19.9 2.6-2.25.05q-1.75-.4-2.05-1.15l-.15-4.5 1.75-.7q1.9-.3 2.9 1.6.45 4-.2 4.7" fill="#dedde3" transform="translate(18.1 7.55)"/><path d="M9.1 13.25q.95.7.55 1.15l-2.3.05q-1.75-.4-2.05-1.15l-.1-4.5.3 1q.5 1.1 1.45 1.9l2.15 1.55M-9.4 9.7l.9 2.1q.5.5 1.9.9l1.05.55q-.3.75-2.05 1.2l-2.25-.1q-.45-.45-.4-2.6l.1-2.1q.5-.9.75.05" fill="#fff" transform="translate(18.1 7.55)"/><path d="M.1-4.75q5.3 0 9.25 3.75 3.8 3.65 3.8 8.25 0 1.8-1.05 2.85-1.55 1.35-7.1.8l-4.9-.3-4.85.3q-5.6.55-7.1-.8-1.05-1.05-1.05-1.9 0-4.2 3.8-8.4Q-4.95-4.75.1-4.75" transform="translate(18.1 7.55)"/><path d="M5.35-3.3 7.5-5.55q1.55-1 3.2-.75 2.25.4 3.7 3.2 2.2 4.25-2.05 6.3 1.15 1.65.8 4.65.6-1.1 2.25-.85 1.75.3 1.75 2.6 0 3.4-3.05 2.15-.6-1.35-2.1-2.6l-1.35-.95q-4-2.65-10.4-2.65-3.8 0-8.45 2.9l-5.65 3.3q-3.1 1.25-3.1-2.15 0-2.25 1.8-2.1 1.6.1 2.2 1.3-.2-1.75.3-3.85l.55-1.75q-4.25-2.05-2.1-6.3 1.45-2.8 3.75-3.2 1.7-.25 3.2.75 1.5 1 2.15 2.25 1.35-1.15 5.05-1.15 3.65 0 5.4 1.15" fill="#c0c2c2" transform="translate(18.1 7.55)"/><path d="m5.3-3.3 2.2-2.25q1.55-1 3.2-.75 2.25.4 3.7 3.2 2.15 4.25-2.1 6.3 1.2 2.55.85 4.65.6-1.1 2.25-.85 1.75.3 1.75 2.6 0 3.4-3.1 2.15-1.05-.15-4.3-2.6-3.5-2.5-4.8-2.9Q6.25 3.8 4.6.65 2.55-3.25-3.35-2.5q-1.05.1-2.8 2.6-2 2.85-4.9 4.05-.55-.2.25-2.05.8-1.9 2.1-3l2.2-1.5q.35-1.05-.8-3.15 1.5 1 2.15 2.25 1.4-1.15 5.05-1.15T5.3-3.3" fill="#797977" transform="translate(18.1 7.55)"/><path d="M-11.85-3.95q2.75-2.5 5.25 1.6Q-9-1.3-10.95 1.4q-4.45-2.1-.9-5.35" fill="#fff" transform="translate(18.1 7.55)"/><path d="M-7.7-1.7-9.95.15q-2.4-2.1-1.3-3.5Q-10.2-4.8-7.7-1.7" transform="translate(18.1 7.55)"/><path d="M-10.65-2.25q-.4-.8.15-1.15.55-.4 1.2.8.65 1.15-.15 1.15-.75 0-1.2-.8" fill="#fff" transform="translate(18.1 7.55)"/><path d="m-14.25 8.85.8.75-.3 1.1h-1.7q-.45-.1-.55-.9-.1-.8.4-1.25.45-.4 1.35.3" fill="#535351" transform="translate(18.1 7.55)"/><path d="M12.1-3.95q3.5 3.25-.95 5.35-1.9-2.7-4.3-3.75 2.5-4.1 5.25-1.6" fill="#fff" transform="translate(18.1 7.55)"/><path d="m7.9-1.7 1.4-1.35q1.5-1.2 2.2-.3 1.1 1.4-1.35 3.5L7.9-1.7" transform="translate(18.1 7.55)"/><path d="M10.8-2.2q-.4.8-1.15.8-.75 0-.15-1.1.6-1.15 1.15-.8.55.35.15 1.1" fill="#fff" transform="translate(18.1 7.55)"/><path d="M10.7 8.45q-.15-7.1-3.85-10.8 3.4 1.4 4.75 5.75.9 2.8.75 5.55l-1.65-.5" fill="#666" transform="translate(18.1 7.55)"/><path d="M14.45 8.85q.9-.7 1.35-.3.5.45.4 1.25-.05.8-.55.9H14l-.35-1.1.8-.75" fill="#959595" transform="translate(18.1 7.55)"/><path d="M7.1-4.85q1.1-.95 2.3-1.2 1.4-.25 2.75.65 1.15.75 1.35 1.45.05.2-1.3-.55-1.8-1.05-2.95-.7l-2.1 1.15q-.65.55-.8.35-.3-.3.75-1.15" fill="#c0c2c2" transform="translate(18.1 7.55)"/><path d="m14.5 8.85 1.3-.1q.4.4.4 1.15 0 .75-.4.8l-2.1-.3-.1-1 .9-.55" fill="#3a3a3d" transform="translate(18.1 7.55)"/><path d="M.1-4.7q5.1 0 9 3.55Q6.15 2-1.1 4.55q-8.15 2.85-10.95 4.9-.75-.8-.75-2.3 0-4 3.75-7.8Q-5-4.7.1-4.7" fill="#535351" transform="translate(18.1 7.55)"/><path d="M-5 10.35q-5.6.45-6.9-.75l-.15-.15q2.8-2.05 10.95-4.9Q6.15 2 9.1-1.15q3.95 3.65 3.95 8.3 0 1.65-.95 2.45-1.25 1.2-6.9.75l-5.1-.3-5.1.3" fill="#3a3a3d" transform="translate(18.1 7.55)"/><path d="M.1-4.15q5.15 0 8.85 3.65 3.5 3.45 3.5 7.65 0 2.8-3.6 2.8L.1 9.45l-8.7.5q-3.6 0-3.6-2.8 0-3.7 3.5-7.3 3.85-4 8.8-4" fill="#c0c2c2" transform="translate(18.1 7.55)"/><path d="M4.05-2.65q1.9.85 2.5 1.95.6 1.05-.85.9Q2.8-.1.45 3.25q-2.8 3.95-3.15 4.1-1.9.75-4.5.9-3 .15-3.8-.95-.9-1.25.15-3.65Q-9.7 1.1-7-.95q5.6-4.15 11.05-1.7" fill="#dedde3" transform="translate(18.1 7.55)"/><path d="M-6.6-.65q1.35-.8 1.85-.2.45.6-.25 1.2-2.2 1.75-2.6 1.2-.65-1.15 1-2.2m12.85 0q1.55 1.05.9 2.2-.35.55-2.5-1.2-.7-.6-.2-1.2.5-.6 1.8.2" fill="#3a3a3d" transform="translate(18.1 7.55)"/><path d="M-6.75-.6q1.8-1.1 1.8-.35-.85.5-1.75.95l-.8 1.35q-.35-.05-.15-.8.25-.75.9-1.15M6.3-.55q.65.4.9 1.15.2.75-.15.75Q7.1.7 6.25 0q-1.7-.7-1.7-.9 0-.8 1.75.35" fill="#959597" transform="translate(18.1 7.55)"/><path d="M5.2 6.05q1.15-1.6 1.55-1.6 1.55.05 2.1-2.1.4-1.7.7-1.35.95 1.05 1.7 3.65.9 2.9.05 4-.75 1-4.45.85L.6 9.1l-10.05.4q-.4-.35 3.05-.65l7.4-.7q2.95-.4 4.2-2.1" fill="#9a9a9f" transform="translate(18.1 7.55)"/></g></defs></svg>