<svg xmlns:xlink="http://www.w3.org/1999/xlink" height="92.9" width="100.7" xmlns="http://www.w3.org/2000/svg"><use height="28.5" transform="translate(22.15 41.2)" width="34.35" xlink:href="#a"/><defs><g id="a" fill-rule="evenodd"><path d="M12.25 2.95q1.55 2.5 2.15 6.9.7 5.05-1.15 6.9Q9.7 6 3.25 6.6.9 8-.15 8-1.2 8-1.2 7.7q-.05-.6-.6-1-1.95-1.4-4.35-.95-2.15.4-3.4 1.65-1.75 1.6-5.25 6.55-.3-1.05-.2-3.75.2-2.65 2.9-5.9Q-9.7 1.5-7-.05q4.75-2.6 8.65-2.1 8.1 1 10.6 5.1" transform="translate(16.5 8.55)"/><path d="M17.4-8.2q2.15.4-6.4 17.05L9.1 8.8 5.25.95l5.4-4.7Q16.3-8.4 17.4-8.2" transform="translate(16.5 8.55)"/><path d="m7.75.1 9.5-7.8q.85 0-5.65 13.5L7.75.1" fill="#fff9f5" transform="translate(16.5 8.55)"/><path d="m10.5 2.7 6.4-8.75L12.25 4.6l-1.6.1-.15-2" fill="#d1b8a7" transform="translate(16.5 8.55)"/><path d="M-16.1-8.55q.75-.3 5.5 3.3l4.55 3.7-1.5 10.35-3.2-2Q-18-7.7-16.1-8.55" transform="translate(16.5 8.55)"/><path d="M-13.15-.95Q-16.2-7.7-15.7-7.7L-6.2.1l-3.85 5.7-3.1-6.75" fill="#fff9f5" transform="translate(16.5 8.55)"/><path d="m-7.1 2.6-6.75-8.65L-5.6.6l-1.15 2h-.35" fill="#d1b8a7" transform="translate(16.5 8.55)"/><path d="M9.2-4.75 9.3.7q2.35-1.65 4.9-1.2 0 .95-1.05 2.35-1.2 1.55-1.4 2.3 4.65.25 4.75 1.3.1.75-2.2 2.2 2.55.45 1.45 1.9-1.05 1.4-3 1.65l-11.5-13q.05-1.5 1.3-4.5Q3.6-4.8 4-1.5q.6-.85 2.25-1.9 1.8-1.15 2.95-1.35" transform="translate(16.5 8.55)"/><path d="m14.15 13.1.1-3.15q2.75 1.45 3.2 2.45-.7-.1-3.3.7v.25q1.5.7.05 3.3l-.2-.45.15-2.85-.45-.15.45-.1" transform="translate(16.5 8.55)"/><path d="m1.65 5.8 6-3.35q6.95 6.45 7.2 10.85.1 2.35-1.15 1.95-.95-.3-2.4-1.9L9.2 11q-.1.9.35 3.6.4 2.35 0 3.65.1-1.6-1.55-3.75-1.6-2.1-1.65-3.45 0 2.9-.7 4.55-1.2 2.65-1.3 3.8-2.25-2.65-2.5-4.75L.8 16.95l-2.2 3q-.95-3.35-.1-7.55.85-4.45 3.15-6.6" transform="translate(16.5 8.55)"/><path d="m1.45 8.2.1 2-.8 1.8-.95 1.65q-.2-1.4.15-3 .5-1.9 1.5-2.45" fill="#5e534b" transform="translate(16.5 8.55)"/><path d="m-5.25 3.95 6 2.25q-3.05 1.35-5.6 5.4-2.3 3.75-2.75 7.35-1.15-2-1.15-3.15v-5.15l-3.7 6.25q-1.3-5.7-.05-7.9.8-1.45 3.3-2.9l3.95-2.15" transform="translate(16.5 8.55)"/><path d="m-8.35 8.8.5-.6.7-.7q.25.3.25 2.45 0 .9-.55 1.7l-1 1.45q.2-2.95.1-4.3" fill="#73655b" transform="translate(16.5 8.55)"/><path d="M-8.15 9.55q0-1.95.5-2.75.7-1.2 1.65-2.05.05 1.4-.7 2.9L-8 10.3l-.15-.75" fill="#9c897c" transform="translate(16.5 8.55)"/><path d="M-.4-6.25q-.2.85.65 3.9v3.3L-7.6.6q1-3.8 1.05-5.75l1.6 1.45q.95 1.25.9 2.3.15-1.25 1.5-2.6L-.4-6.25" transform="translate(16.5 8.55)"/><path d="M-5.1 3.85Q-6 6.1-8.7 7.3q-3.6 1.6-4.7 1.45-1.3-2.95-1.15-4.45l1.8.15.05-4.15q2.65.75 3.25 1.15-.1-2 .7-3.05Q-3.7.5-5.1 3.85" transform="translate(16.5 8.55)"/><path d="m-10.65 4.35 1.05 1.6q0 1.6-.4 2.4-1.2 2.2-1.9 2.4l.35-3.55q.25-1.5.9-2.85m.15.1q-.15-1.75.95-1.65.55.05.55 1.9l-1.5-.25" fill="#73655b" transform="translate(16.5 8.55)"/><path d="m-10.25 3.6.65.6q.5 2 .35 2.25-.65 1-2.1 1-.2-1.6 1.1-3.85M1.8 10.95q-.3.9-1.3 1.05-1 .15-.85-1.05.25-1.4.85-1.55.55-.05 1 .45.45.55.35 1.05l-.05.05M-5.5 8.2h1.15q-.5 1.9-2 1.6.15-.9.85-1.6" fill="#9c897c" transform="translate(16.5 8.55)"/><path d="M-4.75 4.55Q-5.9 4.4-5.9 2.3-6 .55-4.5 1.5-2 3.15-5 5.7l-.4-1.1.65-.05" fill="#73655b" transform="translate(16.5 8.55)"/><path d="m-4.75 2.35.9.25q.55 1 .45 1.2-1 .95-1.1.65l-.25-2.1M1.4 5.2q.55-.55.35-1.5l1.85.15q-.15.8-1.2 1.75l-1-.4" fill="#9c897c" transform="translate(16.5 8.55)"/><path d="m-12.25 4.1.2-2.7q1.5-.15 1.15 2.15-.15.8-.85 1.05l-.5-.5" fill="#73655b" transform="translate(16.5 8.55)"/><path d="M.95 3.5h.75q.7.6.4 1.55-.3.95-1.35.75 0-2.05.2-2.3m-4.5-5L-3-2.55l1.05-.75q.05.65-.3 1.4-.4.85-.95.75l-.35-.35m-2.3.6.15-.1q-.3.4-.85.55-.6.15-.65-.45 0-1.35 1.3-1.85.1.6.05 1.85m-1.9 4.15Q-8.7 2.8-8.55.2q.45.15 1.1 1.1.2.35.2 2.15l-.5-.2" fill="#5e534b" transform="translate(16.5 8.55)"/><path d="M-10.5 4.25V5.7l-.1 1.2q-.2.6-.9.4-.1-.6.5-1.7l.5-1.35m2.25 6.05h-.35q-.05-.85.6-1.6 1-.85 1-1.25.05.75-.4 1.6l-.85 1.25m3.15-7.95.85.25q.2 1.1-.85 1.2V2.35m5.35 7.8.5-.65q0 2.05-1 1.85-.1-.85.5-1.2" fill="#f2eae3" transform="translate(16.5 8.55)"/><path d="m12.1 1.2-.45 1.35-.5 1.15v1.05L9.2 5.1l2.9-3.9m2.05 4h.7q.85.55-.5 1.5l-1.9 1.1 1.7-2.6m-1.9 4.25.9-.15q.9.4.9 2.5 0 1.95-.6 2.75.1-1.55-.15-2.3-1.15-1.7-1.05-2.8" fill="#9c897c" transform="translate(16.5 8.55)"/><path d="m-13.6 5.2.35.6q.25.3.15.8-.5.1-.5-1.4" fill="#73655b" transform="translate(16.5 8.55)"/><path d="M2.95 11.9q-.45-1.15-.05-2.25.45-1.3 1.3-.65.6.45.4 1.55-.15 1.05-.75 1.5-.65.5-.9-.15m4.25-.25q-.2.25-1-2.2l.6.2.3.5q.5.9.1 1.5" fill="#5e534b" transform="translate(16.5 8.55)"/><path d="M.9 4.3q-.1-.6.4-1.4l.65-1.3q.55 1.65-.45 3.25L.9 4.3" fill="#9c897c" transform="translate(16.5 8.55)"/></g></defs></svg>