<svg xmlns:xlink="http://www.w3.org/1999/xlink" height="92.9" width="100.7" xmlns="http://www.w3.org/2000/svg"><use height="34.9" transform="translate(19.5 40.9)" width="38.25" xlink:href="#a"/><defs><g id="a" fill-rule="evenodd"><path d="M17.05-8.45q2.15.35-6.4 17h-1.9L4.9.7 10.3-4q5.65-4.65 6.75-4.45" transform="translate(19.15 8.85)"/><path d="M16.9-7.95q.85 0-5.65 13.5L7.4-.15l4.45-3.9q4.5-3.9 5.05-3.9" fill="#fff9f5" transform="translate(19.15 8.85)"/><path d="m10.15 2.45 6.4-8.75L11.9 4.3l-1.6.15-.15-2" fill="#d1b8a7" transform="translate(19.15 8.85)"/><path d="M-14.5-.8q-3.15-7.45-1.95-8 1.2-.5 10.05 7L-4.45.3-9.7 7.7l-1.4-1.15-3.4-7.35" transform="translate(19.15 8.85)"/><path d="M-13.55-1.2q-3.05-6.75-2.5-6.75l9.5 7.8-3.85 5.7-3.15-6.75" fill="#fff9f5" transform="translate(19.15 8.85)"/><path d="m-7.45 2.3-6.75-8.6L-5.95.3l-1.5 2" fill="#d1b8a7" transform="translate(19.15 8.85)"/><path d="M1 3.15 3.75 5.4q.1.65-1.9 2.5l-3.7-.85-2.95-.15-2.85.75q-4.9 1-2.7-1.8Q-8.4 3.4-3.9 3.3L1 3.15" transform="translate(19.15 8.85)"/><path d="M3.2 1.3q.6-.25 3.1 2.9 2.7 3.4 3 8.1.25 3.75-.85 8.25-6.5-3.9-8-6.25l-3.15-8 5.9-5" transform="translate(19.15 8.85)"/><path d="M-4.2 5.05q-1.55.15-4.75 3.15l-7.25 8.25 2.1-6.4q1-3.15 4.65-6.9Q-5.9-.5-3.75-.95q7.55-1.5 12.4 2.4 1.4 1.15 3 4.3 1.6 3.1 2.25 5.8.9 3.5.65 8.75l-6.9-16-11.85.75" transform="translate(19.15 8.85)"/><path d="m-11.45 10.85-1.2 1.8q-.6.8-.6 1.9 0 2.2-.4 3.85-.5 1.85-1.2.85-1.9-2.65-.15-6.4 2.05-4.4 3.55-4.5 2.3-.15 0 2.5" transform="translate(19.15 8.85)"/><path d="m-3.1 6.9-1.4.05 1.8-2.8q.25.85-.4 2.75" fill="#fff" transform="translate(19.15 8.85)"/><path d="M11.45-5.6q.2 2.15-1.2 6.3Q8.6 5.4 6.6 5.45L-.5-1 .8-4.55l1.25-1.6q.7-.85.75-1.75.5.6.3 5.65.1-1.05 1.2-2.6L5.95-7.2q.8 1.15.95 2.85L7-1.2l4.45-4.4" transform="translate(19.15 8.85)"/><path d="m-10.4-4.8 1.95 2.15q1.2 1.45 2 1.8l.05-4.4q1.7 1.4 3.1 3.35-.2-2.8 1.35-5.35L-.5-4q.95 1.95.15 3.35L-2.1.9q-3.95 4.85-6.1 3.85-.8-.35-1.05-1.8L-9.55.7q-.9-4-.85-5.5" transform="translate(19.15 8.85)"/><path d="M-.4 2.35q-2.95 1.4-3.85 1.35l-.05-.8q-.5.55-1.15.45-.75-.55-1.05-.5l-.45.75-.65.15-.75.8q-.9-.9-.25-1.25v-.6q0-3.85-.15-4.25.45.4 1 1.6l1.15 1.3.75-1.2.6 1.95.3.1 1.6-1.3.1 1.55 2.85-.1" fill="#333" transform="translate(19.15 8.85)"/><path d="m-8.5 6.3 3.65-1.85v2.1l-2.65 5.9-1-6.15m5.55.4 2.6-2.65q1.4 2.9 1.4 6.15 0 3.25-2.25 6l-1.5-4.9-.25-4.6" transform="translate(19.15 8.85)"/><path d="M.9 5.4q.3.15 1.05 1.8 2.45 8.6 2.2 8.65Q3.6 16 2 14.4.65 13.05.2 11.55V9.3l-.25-1.6q.1-.8.95-2.3" fill="#333" transform="translate(19.15 8.85)"/><path d="m1.85 8 1.05.8q1 .8 1.5.85 1.45.1 3.25-1.6l-.05 1.9q-.75 2.95-3.4 2.95-1.5-.05-2.65-2.45L1.85 8" fill="#333" transform="translate(19.15 8.85)"/><path d="M-13.1 23.05q-1.85.1-2.8-1.85l-.55-1.95.5-3 2.35-2.7-.65 2.6q-.35 2.9 1.15 4.4 2.4 2.35 3.5-3.5l.65 2.7q-1.15 3.15-4.15 3.3m1.45-19.1 1.75 2-2.1 2.6q-.75.75-6.15 2.25l2.4-3.1q1.35-1.75 4.1-3.75" transform="translate(19.15 8.85)"/><path d="m-14.45 8.8.35-.25h.75q.4 1.65 0 2.15l-4 3 2.9-4.9m2-6 1 1.65q-.15 1.5-.65 1.5l-4.75-.15 4.4-3M13 8.55l-2.15-2.6 1.75-2 4.15 3.75 2.35 3.1Q13.75 9.3 13 8.55" transform="translate(19.15 8.85)"/><path d="m14.05 8.05 3.45 5.85q-4.35-3-4.75-3.6V7.75h.85l.45.3m-.6-5.25 4.35 3-4.75.15-.6-1.5 1-1.65" transform="translate(19.15 8.85)"/><path d="m.6 9.15 1.1 1q.95.5 2.4.4 2-.1 2.9-1.2l-1.65 1.9Q4 12.45 2.9 12.4q-.55-.05-2.7-2.35L-1.55 8l1-.05q.5.15 1.15 1.2m-7.35-4.3.3 1.45-.9 3.65-.15-3 .75-2.1M-6.95.6l-1 2.35L-8 1.3l-.85-3.2 1.9 2.5m2.2.95-.5 1.05-.45-.8.25-2.5.7 2.25" fill="#878787" transform="translate(19.15 8.85)"/><path d="m-1.6 6.8.25-.1.6-1q.15 1.9-.5 5.25Q-1.6 9.4-1.6 6.8" fill="#878787" transform="translate(19.15 8.85)"/><path d="M-13.4 5.45q.4-.95.8-.9.55 0 .8 2.55.75-.25 1.7-1.75l-.1 1.6-.5.65-1.75 1.75L-14.2 11q.25-.55.4-1.75l1.1-1.95-2.9 1.75.6-1.4 1-.95.6-1.25" fill="#333" transform="translate(19.15 8.85)"/><path d="m-9.25 4.45.4 1-2.35 2.35.45-1.2 1.5-2.15m-3.6.75.5.5-2 2.05 1.5-2.55" fill="#878787" transform="translate(19.15 8.85)"/><path d="m-1.35 7.45.4-1 .25 2-.5 1.6-.15-2.6m1.55.6L.95 9.3l1.25 2.85-1.65-1.5-.35-2.6" fill="#fff" transform="translate(19.15 8.85)"/><path d="m-2.5-4.7.25 1.05q0 1.5-.75 1.6.6-1.8.5-2.65m5.55 6.45 1.6-2.2q.2 3.65-1.7 4.35-.35-.9.1-2.15M8 .55l-.15 2q-.35 1.1-1.5 1.05Q6.3 2.6 8 .55" fill="#333" transform="translate(19.15 8.85)"/><path d="M12.85 8.25V6.4l2.3 2.3-1.8-.3q.6.85.5 1.85l-1.2-.7.3 2.2Q12.45 10 11.3 9l.5-.45q.5.15.6-.6l.45.3" fill="#5e5e5e" transform="translate(19.15 8.85)"/><path d="M6.85 7.05 7.7 8q1.45 2.1.6 6.55l-.6-2.85q-.65-1.8-.75-2.75l-.1-1.9" fill="#333" transform="translate(19.15 8.85)"/><path d="M12.9 12.95q2.05 2.75 1.15 7.5l-.7 3.1-2.45 2.5q1.25-3.95 1.4-6.25v-4.35q-.8-2.85-.65-4.25l1.25 1.75" transform="translate(19.15 8.85)"/><path d="m13.5 17.6-.5-5.15q1.4 1.6 3.3 5.3 1.1 2.05 1.2 5.5l-1.6-2.05-2.4-3.6" transform="translate(19.15 8.85)"/><path d="M13.25 11.85q2.55 1.35 4.2 4.75-1.35 0-2.65-1-1.25-.95-1.65-2.25l.1-1.5m-26.9-1.1-.65 3.05q0 3.3-.3 3.65-.45.55-2.15.8l-2.35.25 2.65-3.8q1.95-3.1 2.8-3.95" transform="translate(19.15 8.85)"/><path d="m-16.1 17 .45 2.3q-.15 1.7-3.45 3.6-.3-2.7 3-5.9" transform="translate(19.15 8.85)"/></g></defs></svg>