<svg xmlns:xlink="http://www.w3.org/1999/xlink" height="92.9" width="100.7" xmlns="http://www.w3.org/2000/svg"><use height="33.35" transform="translate(17.35 43.1)" width="40.65" xlink:href="#a"/><defs><g id="a" fill-rule="evenodd"><path d="m5.1-5.75 1.95 1.2L10-3.1q2.25 1.75 4.2 4.45 1.6 2.2 2.25 6.25.45 2.4 1.55 2.75l-.25 2.9q.3.4.25 1.2Q18 20 15.65 20h-.25l-.4.65-.6-1.2q-.3-1.65-3.45-9.3-1.85-4.4-3.8-6.35-2.8-2.75-7.5-2.75l-2.75.05q-7.95 1.85-10.8 8.95L-15.8 15l-.2 5.05q-.1.8.3 1.15l-.25.7-1.05-1.7-.8.15q-1.8 0-1.45-4l.1-1.3-.45-2.1q.85-.5.5-2.5.7-1.9.6-2.85v-.4q.55-1.15 1.15-3.25l3.1-4.75q1.7-2.35 6.5-4.25L-3.3-6.1l.85-.25h1.3l6.25.6" fill="#0074cc" fill-opacity=".2" transform="translate(21.3 6.65)"/><path d="M10.25-.55Q7.8-2.9 4.35-4.45L1.4-5.5q11.7 1.95 15 13.15 1.7 5.6 1 10.8l-4.15 1.7q4.9-13.1-3-20.7" fill="#868689" transform="translate(21.3 6.65)"/><path d="M6.35 5.75q-7-2.85-13.85.5-4.1 3.8-7.9 15.15l-1.95-.65q.25-3 1.45-6.8 2.35-7.7 7-11.95L-7.35.95Q-5.4-.2-3.3-.7 3.4-2.45 9 2.55q6.1 7.4 7.25 18.15l-2.1.7q-3.3-11.25-7.8-15.65" fill="#868689" transform="translate(21.3 6.65)"/><path d="M6.35 5.05Q-.5 2-7.5 5.55l-2.85-1.3 2.45-2.2 1.25-.9Q-5.05.2-3.25-.3 2.5-1.8 7.85 2.15L11.2 6.6q3.6 6.05 4.7 13.9l-1.5.5Q11.6 9.9 6.35 5.05" fill="#868689" transform="translate(21.3 6.65)"/><path d="m10.6 5.65-3.8-.2q-4.95-1.95-10.2-1L-7.6 5.8q-3.3 3.05-5.95 9.5-1.3 3.25-2 5.85l-1.4-.6Q-15.8 12.7-12.35 7q1.75-2.8 3.25-4.1Q-3.75-1.05 1.5-.4q2.6.35 4.15 1.45 1.7 1.15 4.95 4.6" fill="#868689" transform="translate(21.3 6.65)"/><path d="M1.35 1.65q3.1.85 5.3 2.4Q-.15 2.3-3.8 3.2q-1.2.3-4.15 2.2-2.1.95-5.1 7.95l-2.55 6.8-1-.35q2-8.65 7.15-16.4 4.6-3.5 10.8-1.75m15.1 21.45.5-5.45.7.1q1.2.3 1.7 2 .15 2.55-2.9 3.35m-35.35-.6q-2.5-.65-2.4-2.75l.35-.7q.45-.75 1.05-.9l.6-.1.4 4.45" fill="#868689" transform="translate(21.3 6.65)"/><path d="M17.05 22.15q-4.95 2.65-12.1 3.9-14.25 2.45-25-4.5l-.3-1.55 3.15 1.65q4.05 1.85 8.45 2.8Q5.45 27.4 18.15 20l-1.1 2.15" fill="#868689" transform="translate(21.3 6.65)"/><path d="M6.75 23Q-6.9 26-20.1 18.65l.75-.6 2.95 1.5q3.8 1.65 8 2.5 13.35 2.6 25.55-4.2l.6.65q-4.2 3-11 4.5" fill="#868689" transform="translate(21.3 6.65)"/><path d="M6.05 22.8q6.35-1.25 10.35-3.85l1.1 1.65q-4.25 2.75-11 4.15-13.4 2.7-26.15-3.95l.95-1.8q12.1 6.3 24.75 3.8m.1-27.1Q-.55-7.3-7-4.9q-3.45 1-6.65 4.45-6.4 6.9-5.25 19l-.5-.25q-.75-4.5.35-9.7Q-16.8-1.9-7.45-5.6l5.45-1q6.45-.35 11.35 3L11-2.45q1.95 1.65 3.45 3.8 4.85 7 3.5 17.1l-.85.45q.65-2.85.3-6.8-.75-7.8-5.9-12.95Q9.45-2.8 6.15-4.3" fill="#868689" transform="translate(21.3 6.65)"/><path d="M1.05 25.5q-2.6-1.25-5.55-1.95l4.45.2q9.35-.25 17.3-5.4 1.45.5.55 2.3-6.05 4-16.75 4.85m-15.25-4.65.95 1.6q1 1.35 2.05 1.8-5.95-1.95-8.75-3.8l-.2-.85q-.05-.85.8-1l5.15 2.25" fill="#868689" transform="translate(21.3 6.65)"/><path d="m9 24.15-2.35-.5-2.7-.3 3.95-.95q4.75-1.4 7.25-3.1 2.95-.2 2.25 1.75-3.55 1.9-5.3 2.45l-2.6.65H9" fill="#868689" transform="translate(21.3 6.65)"/><path d="M17.4 18.15q1.6 1.5.75 2.55l-2.85 1.45q-.8-2.05-2.65-1.55l4.75-2.45m-35.6 1.2.8 1.35q1 1.4 1.8 1.75-4-1.4-4.5-2l-.1-.65q0-.65.5-.85l1.5.4m16.95 6.05Q-.2 25-7 23.05q3.25.25 8.3 2.25l-2.55.1m-17.65-6.85q-.55-3.7.3-8.3 1.65-9.15 8.5-13.45-3 2.05-5.4 5.95-4.75 7.8-1.65 16.9l-1.75-1.1" fill="#868689" transform="translate(21.3 6.65)"/><path d="M-9.25-1.05Q-6.5-2.9-4.2-3.2q-5.8 2-8.7 8l-1.8 5.55-1.4.1-.6-.25q2-7.6 7.45-11.25m-5.6 12.1.15 2.1h-2l.05-2.15 1.8.05" fill="#868689" transform="translate(21.3 6.65)"/><path d="M10.25-.55Q7.8-2.9 4.35-4.45L1.4-5.5q11.7 1.95 15 13.15 1.7 5.6 1 10.8l-4.15 1.7q4.9-13.1-3-20.7" fill="#439dd3" transform="translate(21.3 6.65)"/><path d="M6.35 5.75q-7-2.85-13.85.5-4.1 3.8-7.9 15.15l-1.95-.65q.25-3 1.45-6.8 2.35-7.7 7-11.95L-7.35.95Q-5.4-.2-3.3-.7 3.4-2.45 9 2.55q6.1 7.4 7.25 18.15l-2.1.7q-3.3-11.25-7.8-15.65" fill="#4c0805" transform="translate(21.3 6.65)"/><path d="M6.35 5.05Q-.5 2-7.5 5.55l-2.85-1.3 2.45-2.2 1.25-.9Q-5.05.2-3.25-.3 2.5-1.8 7.85 2.15L11.2 6.6q3.6 6.05 4.7 13.9l-1.5.5Q11.6 9.9 6.35 5.05" fill="#fc002a" transform="translate(21.3 6.65)"/><path d="m10.6 5.65-3.8-.2q-4.95-1.95-10.2-1L-7.6 5.8q-3.3 3.05-5.95 9.5-1.3 3.25-2 5.85l-1.4-.6Q-15.8 12.7-12.35 7q1.75-2.8 3.25-4.1Q-3.75-1.05 1.5-.4q2.6.35 4.15 1.45 1.7 1.15 4.95 4.6" fill="#fc002a" transform="translate(21.3 6.65)"/><path d="M1.35 1.65q3.1.85 5.3 2.4Q-.15 2.3-3.8 3.2q-1.2.3-4.15 2.2-2.1.95-5.1 7.95l-2.55 6.8-1-.35q2-8.65 7.15-16.4 4.6-3.5 10.8-1.75" fill="#ad001d" transform="translate(21.3 6.65)"/><path d="m16.45 23.1.5-5.45.7.1q1.2.3 1.7 2 .15 2.55-2.9 3.35m-35.35-.6q-2.5-.65-2.4-2.75l.35-.7q.45-.75 1.05-.9l.6-.1.4 4.45" fill="#0a0a0a" transform="translate(21.3 6.65)"/><path d="M17.05 22.15q-4.95 2.65-12.1 3.9-14.25 2.45-25-4.5l-.3-1.55 3.15 1.65q4.05 1.85 8.45 2.8Q5.45 27.4 18.15 20l-1.1 2.15" fill="#770321" transform="translate(21.3 6.65)"/><path d="M6.75 23Q-6.9 26-20.1 18.65l.75-.6 2.95 1.5q3.8 1.65 8 2.5 13.35 2.6 25.55-4.2l.6.65q-4.2 3-11 4.5" fill="#770321" transform="translate(21.3 6.65)"/><path d="M6.05 22.8q6.35-1.25 10.35-3.85l1.1 1.65q-4.25 2.75-11 4.15-13.4 2.7-26.15-3.95l.95-1.8q12.1 6.3 24.75 3.8" fill="#fc002a" transform="translate(21.3 6.65)"/><path d="M6.15-4.3Q-.55-7.3-7-4.9q-3.45 1-6.65 4.45-6.4 6.9-5.25 19l-.5-.25q-.75-4.5.35-9.7Q-16.8-1.9-7.45-5.6l5.45-1q6.45-.35 11.35 3L11-2.45q1.95 1.65 3.45 3.8 4.85 7 3.5 17.1l-.85.45q.65-2.85.3-6.8-.75-7.8-5.9-12.95Q9.45-2.8 6.15-4.3" fill="#0a0a0a" transform="translate(21.3 6.65)"/><path d="M1.05 25.5q-2.6-1.25-5.55-1.95l4.45.2q9.35-.25 17.3-5.4 1.45.5.55 2.3-6.05 4-16.75 4.85" fill="#f4a6a6" transform="translate(21.3 6.65)"/><path d="m-14.2 20.85.95 1.6q1 1.35 2.05 1.8-5.95-1.95-8.75-3.8l-.2-.85q-.05-.85.8-1l5.15 2.25M9 24.15l-2.35-.5-2.7-.3 3.95-.95q4.75-1.4 7.25-3.1 2.95-.2 2.25 1.75-3.55 1.9-5.3 2.45l-2.6.65H9" fill="#c40505" transform="translate(21.3 6.65)"/><path d="M17.4 18.15q1.6 1.5.75 2.55l-2.85 1.45q-.8-2.05-2.65-1.55l4.75-2.45m-35.6 1.2.8 1.35q1 1.4 1.8 1.75-4-1.4-4.5-2l-.1-.65q0-.65.5-.85l1.5.4" fill="#840303" transform="translate(21.3 6.65)"/><path d="M-1.25 25.4Q-.2 25-7 23.05q3.25.25 8.3 2.25l-2.55.1" fill="#fff" transform="translate(21.3 6.65)"/><path d="M-18.9 18.55q-.55-3.7.3-8.3 1.65-9.15 8.5-13.45-3 2.05-5.4 5.95-4.75 7.8-1.65 16.9l-1.75-1.1" fill="#d6e2ef" transform="translate(21.3 6.65)"/><path d="M-9.25-1.05Q-6.5-2.9-4.2-3.2q-5.8 2-8.7 8l-1.8 5.55-1.4.1-.6-.25q2-7.6 7.45-11.25m-5.6 12.1.15 2.1h-2l.05-2.15 1.8.05" fill="#fff" transform="translate(21.3 6.65)"/></g></defs></svg>