<svg xmlns:xlink="http://www.w3.org/1999/xlink" height="92.9" width="100.7" xmlns="http://www.w3.org/2000/svg"><use height="42.65" transform="translate(15.25 35.8)" width="46.25" xlink:href="#a"/><defs><g id="a" fill-rule="evenodd"><path d="m15.3 10.35-2.25-.1 2.6 3.95-2.2-1.6 3.6 6.9-2.85-2.65 2.25 5.1-2.15-1.45v1.35q-.5-9.4-2.6-12.85l.2-1.05 2.3.75 1.1 1.65" fill="#442119" transform="translate(23.4 13.95)"/><path d="m-14 6.55 1.2-.6V7.3q0 1.4 2.15 2l1.15.35-.7.95q-1.95 2.7-2.3 11.4l-.05.45-.4-.6q-3.9.2-6.25 3.25l-1.55 3.6.1-2.25q.15-1.75 1.2-3.95l-2.2 1.7 1.1-2.85q.4-1.15 1.55-3.15l-1.9 1.15.9-2.35 1.4-2.4-1.7 1q1.3-2.75 2.65-4.55l.15-.15-1.9.15.95-1.55Q-17.4 7.95-14 6.55" fill="#0d090e" transform="translate(23.4 13.95)"/><path d="m-15.95 10.2-1.8-.25 4.1-2.65q0 2 2.75 2.8-1.3 1.75-2 7l-.45 4.85q-3.6-.05-6 3.65.05-1.6 1.1-3.75L-17.2 20l-2.6 1.65 2.85-5.25q-.8.05-2.25.9l2.95-4.1q-1-.2-2.5 1 .5-1.15 2.8-4" fill="#795241" transform="translate(23.4 13.95)"/><path d="m-17.75 9.95 1.8-1.35q1.15 1.75-1.8 1.35m3.55 1.95-2.6 3.5 1.95-.1-4.55 6 2.45-4.9-2.25.9q1.2-2.05 2.9-3.95l-2.4.65 1.15-1.5q1.35-1.6 2.4-2.15l-1.25 1.95 2.2-.4m-5.45 14.15q.6-3.1 2.25-5.7 0 2.85-2.25 5.7" fill="#b8957e" transform="translate(23.4 13.95)"/><path d="M20.5 22.5q1.1 2.5 1.15 3.95l.15 2.25-1.55-3.6q-1.5-1.9-4.05-2.75l-2.25-.5-.45.6V22q-.35-8.7-2.3-11.4l-.7-.95 1.15-.35q2.15-.6 2.15-2V5.95l1.2.6q3.4 1.4 4.5 2.95l.95 1.55-1.9-.15.15.15q1.75 2.5 2.6 4.55-1.3-1.3-1.7-1L21 17l.95 2.35-1.9-1.15 1.55 3.15 1.1 2.85-2.2-1.7" fill="#0d090e" transform="translate(23.4 13.95)"/><path d="m18.75 9.95-1.8.25 2.85 4q-.95-.75-1.85-.95l-.7-.05 1.2 1.3q1.3 1.55 1.75 2.8l-2.2-.9 2.8 5.25L18.2 20l1.05 1.85Q20.3 24 20.4 25.6q-1.5-2.3-3.9-3.2l-2.15-.45Q13.9 12.9 11.9 10.1q2.75-.8 2.75-2.8l4.1 2.65" fill="#795241" transform="translate(23.4 13.95)"/><path d="m19.7 14-2.4-.65 2.9 3.95-2.2-.9 2.45 4.9-4.6-6 2 .1-2.65-3.5 2.2.4-1.25-1.95q1.7.85 3.55 3.65m-.75-4.05q-1.85.25-2-.5l.2-.85 1.8 1.35m2.8 16.1q-2.25-2.85-2.25-5.7 1.65 2.6 2.25 5.7" fill="#b8957e" transform="translate(23.4 13.95)"/><path d="m17.15-11.9 1.05-2 .5 2.2.25 2.2q0 5.85-4.85 9.75 3.75 2.45 7.45 3.3l1.3.3-.8 1.05q-2.5 3.2-5.6 3.55-1.65.2-3.4-.7-.25 1.4-.9 2.05-1.45 1.55-5.2 1.25-1.4-.1-3.6-1.3Q1.05 8.5-.2 8.5q-1.3 0-3.8 1.25-2.4 1.2-3.7 1.3-3.6.3-5.15-1.25-.7-.7-.85-2-1.8.85-3.35.65-3.05-.35-5.55-3.55l-.8-1.05 1.3-.3q3.6-.85 7.35-3.3-4.8-3.95-4.8-9.75l.25-2.2.5-2.25 1.05 2.05q2.5 4.85 6.05 6.1l2.8-1.1q1.3-.7 3.3.9 3.45-1.25 5.15-1.25 1.85 0 5.3 1.25 2-1.55 3.3-.9L11-5.8q3.65-1.3 6.15-6.1" fill="#0d090e" transform="translate(23.4 13.95)"/><path d="m5-5.05 1.05-.75q1.15-.65 1.75-.35 1 .5 3.2 1.25 4-1.1 6.9-6.6.8 3.5-1.2 7.25-1.75 3.2-4.05 4.45 3.15 2.9 8.7 4.2-2.25 2.9-5 3.2-2.3.25-4.05-1.2.45 4.25-5.25 3.8-1.15-.05-3.55-1.35-2.25-1.2-3.7-1.2-1.45 0-3.9 1.2-2.55 1.3-3.7 1.35-5.6.45-5.15-3.8-1.75 1.45-4 1.2-2.7-.3-4.95-3.2 5.45-1.3 8.6-4.2-2.3-1.25-4-4.45-2-3.75-1.2-7.25 2.85 5.5 6.8 6.6l3.15-1.25q1-.5 2.75 1.1L-.45-6.4Q1.2-6.4 5-5.05" fill="#795241" transform="translate(23.4 13.95)"/><path d="M-4.15-1.7q3.1.2 1.9.55Q-3.5.35-6.7 1.15q-2.05.5-3.25-1.15-.95-1.3-.8-2.15.15-.5 1.45-.75 1.4-.3 1.8.25 1.15 1.5 3.35.95m8.9 1.65q-.35-.45-2.1-.9-1.7-.4-1.7-.5l2.5-.2q1.25.2 2.65-.75l1.85-1.35 3.45.3q-1.1 1.55 0 4.1.95 2.15 2.55 3.3 1.75 1.25 5.45 1.6-.65 1.3-3.85 1.9-1.9.35-3.65-2.4l-1.25-2.3.55 2.5q.45 2.15.25 3-.45 1.7-5.95.55Q1.3 6.9-.4 6.95q-.9.05-1.3-.4l-1.45-1.2q-.9-.45-1.2-1.4-.3-.95.45-1.35 2.8-1.55 5.15-1.1 2.65.45 4 2.25.7.9 1.85.9 1.05 0 1.1-.7.05-.55-1.45-2.05l-2-1.95" fill="#442119" transform="translate(23.4 13.95)"/><path d="M-4.95-1.3Q-7 .25-8.7.2q-1.95-.05-2.25-2.5l.35-.5q.5-.55 1.2-.6l1.75 1.25q1.25 1.2 2.7.85" fill="#fff" transform="translate(23.4 13.95)"/><path d="M-9.95-1.65q0-1.2.9-1.7L-6.7-1.5Q-6.8-.35-7.65.1l-1.2.1q-1.1-.5-1.1-1.85" transform="translate(23.4 13.95)"/><path d="M-8.25-1.9q0 .8-.55.8-.5 0-.5-.8t.5-.8q.55 0 .55.8m12.3.6q1.5.35 2.75-.85L8.5-3.4q1.15.1 1.6 1.1Q9.8.15 7.85.2q-1.7.05-3.8-1.5" fill="#fff" transform="translate(23.4 13.95)"/><path d="M9.1-1.65Q9.1-.35 7.95.2L6.75.1q-.9-.55-.9-1.6 1-.55 2.3-1.85.95.5.95 1.7" transform="translate(23.4 13.95)"/><path d="M7.4-1.9q0-.8.5-.8.55 0 .55.8t-.55.8q-.5 0-.5-.8m-19.1-3q-1.4.9-.85 2l.85.95.15 2.05-1.75.1q-6-5.25-5-11.2 1.75 4.35 6.6 6.1m23.05-.25q4.85-1.75 6.6-6.1.95 5.95-5.05 11.2l-1.75-.1.2-2.05q2.25-1.5 0-2.95" fill="#fff" transform="translate(23.4 13.95)"/><path d="M-14.65 7.3q2.85-1.5 2.7-7.25.4-.45.75-.2.4.25.3 1-.05 1-2.05 6.35l-1.7.1m14.9 4.5-4.6-.7-2.25-.7 2.7-1.05Q-1 8.3.15 8.3q1.85 0 6.9 2.1-3.75 1.4-6.8 1.4" fill="#0d090e" transform="translate(23.4 13.95)"/><path d="m4.45 10.3-4.2.65-5-.8 4.6-1.7q.9 0 4.6 1.85" fill="#fff" transform="translate(23.4 13.95)"/><path d="m-12.95-4.4 1.2-1.15.05.65q-1.75 1.3 0 2.95.6 1.75-.25 2.5-.2-.65-1.4-.15l-1.2.65q.4-.8.3-1.2.65.3 1.35-.3.65-.55.65-1.2-1.6-1.3-.7-2.75M14 7.3l-1.7-.1Q10.35 1.85 10.25.85q-.1-2 1.1-.8Q11.15 5.8 14 7.3" fill="#0d090e" transform="translate(23.4 13.95)"/><path d="m-2.3-.2 1.1-.8Q.5-1.05-.5.05q-.95 1.1-2.7 1.7-1.45.55-2.9 2.2-1.3 1.6-1.2 2.35l.35 1.35q.1.75-.7 1.05-3.3 1.3-4.1-1.1-.4-1.25 1.3-3.05Q-8.9 2.85-6.95 2q4.6-2 4.65-2.2" fill="#b8957e" transform="translate(23.4 13.95)"/><path d="M11.15-5.55q3 1.8.5 3.9 0 .65.65 1.2.65.6 1.25.3-.05.4.35 1.2L12.75.4Q11.5-.1 11.3.55q-.9-.8-.2-2.5 1.65-1.65 0-2.95l.05-.65M3.7 1q2.05.9 2 1.85-.1 2.5-2.85 3.4-.8.3-.35-.1L3.7 5.1q1.7-1.7 1.15-2.45Q3.45.95-.25.95q-3.7 0-5.1 1.7-.6.75 1.1 2.45L-3 6.15q.45.35-.35.1-2.8-.9-2.9-3.4Q-6.3 1.9-4.2 1-2.15.1-.25.15 1.65.1 3.7 1" fill="#0d090e" transform="translate(23.4 13.95)"/><path d="M-1.55 5.35q-1.4.15-1.65-.9-.05-.4.5-.75t.95 0q.5.35.55 1 .05.6-.35.65m2.65 0Q.7 5.3.75 4.7q.1-.6.55-1 .4-.35.95 0 .55.35.45.75-.15 1.05-1.6.9" fill="#0d090e" transform="translate(23.4 13.95)"/><path d="M-12.3-3.8q.15-.6 4.05-2.2.75-.3 4.25 2.55l1.95.15q.25.15.2.7-.1.5-.45.45-5.1-.75-5.5-1.45l1.7-.25q-1.05-.85-2.4-1.2l-2 .7q-1.45.75-1.3 1.1.25.45-.2.2-.4-.25-.3-.75M8.2-5.05Q6-4.6 5.25-3.3q-.35.55-3.35 1.15-.35.05-.4-.45-.1-.55.15-.7l.65.1q.6.15 1.35-.25L6-5.1Q7.5-6.2 7.95-6q4 1.6 4.1 2.2.15.7-.55.55.2-.35-1.3-1.1-1.45-.8-2-.7m-23.05 6.5q1.7-1.1.35.35l-2.6 2.45-1.5 2.2-.15-1.85q-1.2.75-1.5.75l.95-1.1h-2.1l2.35-.8q2.65-.95 4.2-2m28.75-.4L16 2.3q2.6 1.35 5.05 2-4.25.3-7.15-3.25M3.5-5.05l-1.3 1.3V-5.4L.55-3.3l-.1-2.4-.8 1.7-.95-1.65.25 1-2.4.5-2-1.05q3.6-1.2 5-1.2 1.4-.05 3.95 1.35" fill="#b8957e" transform="translate(23.4 13.95)"/><path d="M-12.3-1.3q-.7.9-1.45 1.15-2.35-1-3.65-5.55-.45-1.5-.5-2.45 0-.9.35.15.95 2.7 5.25 6.7m23.7 0q4.45-4 5.45-6.7-.15 6.25-4 7.85L11.4-1.3" fill="#b8b6b6" transform="translate(23.4 13.95)"/><path d="M4.95-5.65Q-.65-7.1-5.25-5.8q1.2-1 1.2-1.95 1.45 1.55 3.6-.7.1 1.3 1.1 1.4Q1.7-7 2-8.3q.25.95 1.05 1.3l1.1-.05Q3.7-6.5 4.3-6q.3.25.65.35" fill="#0d090e" transform="translate(23.4 13.95)"/><path d="M2.1-6.7q.2.25 1.2.35l.4 1-3.55-.4-4.6.25q.5-.45.75-1.1 1 .75 2.9-.2l2.9.1m8.15 8.5q3.5 6.15 1.4 7.5-1.3.85-3.25 1.05H6.7q3.85-1 4.15-2.55l-.6-6" fill="#b8957e" transform="translate(23.4 13.95)"/></g></defs></svg>