<?xml version="1.0" encoding="UTF-8" standalone="no"?>
<svg xmlns:xlink="http://www.w3.org/1999/xlink" height="92.9px" width="100.7px" xmlns="http://www.w3.org/2000/svg">
  <g transform="matrix(1.0, 0.0, 0.0, 1.0, 38.65, 49.75)">
    <use height="38.6" transform="matrix(1.0, 0.0, 0.0, 1.0, -28.7, -16.4)" width="47.7" xlink:href="#shape0"/>
  </g>
  <defs>
    <g id="shape0" transform="matrix(1.0, 0.0, 0.0, 1.0, 28.7, 16.4)">
      <path d="M-3.95 -1.5 Q-2.85 -1.95 -0.6 -0.75 L1.2 -1.35 Q2.8 -1.95 3.65 -1.85 5.15 -1.65 7.2 0.4 10.15 1.2 10.8 1.95 L11.6 3.75 Q11.95 4.95 12.85 5.55 13.6 6.1 14.5 8.45 L15.85 9.65 Q16.65 10.25 17.05 11.15 17.4 11.95 17.45 13.3 17.55 14.4 17.85 14.65 19.4 16.0 18.9 18.0 L17.75 21.05 Q17.75 21.7 16.85 21.7 15.85 21.7 14.1 19.5 L13.05 17.35 Q12.2 15.75 13.3 14.95 10.95 12.2 11.85 10.85 L10.1 9.15 Q9.2 8.3 9.25 7.6 9.35 6.5 8.3 4.95 7.5 3.75 5.35 3.9 3.3 4.1 2.2 5.2 L-1.8 5.3 Q-4.4 3.25 -7.55 4.65 -8.65 5.15 -9.4 6.75 -10.05 8.15 -9.9 8.55 -9.3 9.8 -10.8 10.95 -10.2 13.25 -12.85 15.8 -12.2 17.0 -13.2 18.55 -13.1 19.6 -15.35 21.1 -17.6 22.65 -18.25 22.0 -19.25 21.0 -18.3 18.45 L-17.05 14.2 -17.1 12.7 Q-17.2 11.5 -16.8 11.0 L-14.9 8.1 Q-14.65 7.7 -14.8 6.45 -14.95 5.3 -14.6 4.95 -14.3 4.6 -13.25 4.4 -12.1 4.25 -11.55 3.8 -11.0 3.4 -10.5 2.1 -10.05 0.9 -9.6 0.65 L-6.45 0.45 Q-5.8 0.2 -3.95 -1.5" fill="#0d090e" fill-rule="evenodd" stroke="none"/>
      <path d="M-3.6 -0.7 Q-3.15 -0.85 -1.8 -0.25 L-0.6 0.1 0.8 -0.3 3.55 -1.0 Q4.05 -0.95 5.4 0.15 L6.95 1.2 7.55 1.35 Q9.65 1.95 10.2 2.55 L10.7 3.65 Q11.15 5.4 12.35 6.25 L13.0 7.35 13.85 8.95 15.15 10.2 Q15.9 10.75 16.25 11.5 16.55 12.15 16.65 13.35 16.65 14.75 17.3 15.3 18.15 16.0 18.15 17.05 L18.05 17.8 17.4 19.45 Q17.4 20.6 16.9 21.05 16.55 21.4 15.0 19.95 13.4 18.5 13.7 18.05 14.05 17.45 13.8 17.0 13.3 16.0 13.85 15.65 L14.55 15.1 13.95 14.4 Q12.0 12.15 12.55 11.35 L12.95 10.8 11.2 9.05 Q10.05 8.1 10.1 7.7 10.2 6.2 9.0 4.45 8.25 3.3 6.4 3.05 3.4 2.8 1.6 4.6 L-1.3 4.65 Q-4.25 2.2 -7.9 3.85 -9.25 4.5 -10.15 6.4 -11.0 8.15 -10.65 8.9 -10.35 9.55 -11.3 10.3 L-11.8 10.65 -11.65 11.2 Q-11.1 13.0 -13.45 15.15 L-13.9 15.6 -13.6 16.2 Q-13.35 16.6 -13.8 17.55 -14.25 18.45 -13.95 19.05 -17.35 22.15 -17.9 21.65 -18.7 21.0 -17.8 18.7 L-16.75 15.1 -16.5 14.3 Q-16.35 13.85 -16.55 12.9 -16.8 11.85 -16.65 11.65 L-14.2 8.55 Q-13.7 7.85 -13.95 6.4 L-14.0 5.5 -13.15 5.25 Q-11.75 5.0 -11.05 4.5 -10.25 3.85 -9.7 2.35 L-9.2 1.4 -7.8 1.35 -6.1 1.25 -4.95 0.35 -3.6 -0.7" fill="#ffffff" fill-rule="evenodd" stroke="none"/>
      <path d="M10.45 4.9 Q10.7 5.7 12.6 7.35 L13.15 9.0 14.25 10.55 Q15.2 11.2 15.65 12.2 L16.75 15.4 Q17.45 16.0 17.1 17.7 L16.4 19.45 16.3 20.5 Q14.5 19.85 13.9 17.95 L16.6 15.95 Q15.6 14.85 14.45 15.25 L14.7 15.1 14.15 14.4 Q12.15 12.1 12.7 11.35 L13.15 10.8 11.4 9.05 Q10.2 8.05 10.25 7.7 10.35 6.3 9.2 4.45 8.45 3.4 6.85 3.15 6.6 2.25 5.9 1.6 4.8 2.6 4.35 2.4 3.5 0.6 2.9 0.6 L5.15 0.55 6.85 2.1 9.85 2.95 10.45 4.9" fill="#c0bbbd" fill-rule="evenodd" stroke="none"/>
      <path d="M14.35 19.1 L14.1 17.45 17.35 16.75 15.15 17.95 15.3 18.4 Q15.7 18.95 16.65 19.4 14.75 19.9 14.35 19.1" fill="#dedee3" fill-rule="evenodd" stroke="none"/>
      <path d="M12.85 12.65 L13.9 13.6 Q15.15 14.55 15.95 14.5 L13.65 16.35 14.4 15.0 12.85 12.65" fill="#dedee3" fill-rule="evenodd" stroke="none"/>
      <path d="M9.4 4.85 Q10.4 7.1 12.0 7.4 11.5 8.55 15.4 11.95 14.35 11.25 13.35 11.4 L12.6 11.7 Q12.65 10.65 11.4 9.25 L10.0 7.9 Q10.15 6.65 9.4 4.85" fill="#dedee3" fill-rule="evenodd" stroke="none"/>
      <path d="M-11.85 12.9 Q-12.0 13.75 -13.9 15.6 L-13.8 16.9 Q-14.15 16.25 -16.3 16.0 -13.4 15.2 -11.85 12.9" fill="#dedee3" fill-rule="evenodd" stroke="none"/>
      <path d="M-10.6 9.4 L-11.8 10.65 -11.75 11.8 Q-12.05 10.9 -14.4 11.15 -12.75 10.7 -10.6 9.4" fill="#dedee3" fill-rule="evenodd" stroke="none"/>
      <path d="M-9.9 5.85 Q-10.6 6.7 -10.7 7.75 L-10.65 8.6 Q-11.35 7.7 -13.05 7.7 -12.0 7.55 -11.0 6.1 -10.1 4.75 -10.35 4.4 L-8.15 3.95 -9.9 5.85" fill="#dedee3" fill-rule="evenodd" stroke="none"/>
      <path d="M8.65 3.9 Q5.8 2.7 3.75 3.35 2.15 4.3 0.5 5.2 2.0 2.2 0.6 0.25 1.45 0.7 2.15 1.85 2.7 2.7 3.0 2.6 3.7 2.35 3.35 0.2 L3.75 1.05 Q4.3 1.95 4.75 1.9 5.5 1.85 5.75 0.95 L6.45 2.15 9.0 1.9 Q7.3 2.8 8.65 3.9" fill="#dedee3" fill-rule="evenodd" stroke="none"/>
      <path d="M-2.55 3.75 L-7.1 3.5 Q-6.1 3.2 -7.4 1.6 L-4.55 2.9 Q-2.75 2.9 -4.3 0.85 -3.0 1.6 -2.55 3.75" fill="#dedee3" fill-rule="evenodd" stroke="none"/>
      <path d="M2.8 -9.95 Q2.05 -10.1 1.35 -7.65 L0.8 -5.15 Q-2.75 -6.7 -3.45 -7.8 -4.05 -8.75 -3.6 -10.9 -3.05 -13.15 -1.65 -13.3 0.45 -13.55 2.8 -9.95" fill="#0d090e" fill-rule="evenodd" stroke="none"/>
      <path d="M1.75 -9.8 Q0.4 -7.9 0.1 -6.45 -2.2 -7.6 -2.65 -8.3 L-2.85 -9.25 Q-2.85 -10.7 -2.4 -11.6 -1.95 -12.35 -1.55 -12.4 -0.4 -12.55 1.75 -9.8" fill="#e64727" fill-rule="evenodd" stroke="none"/>
      <path d="M1.75 -9.75 L1.2 -9.7 -0.65 -10.55 Q-0.45 -10.35 -0.35 -9.55 -0.2 -8.7 -0.35 -8.65 -1.25 -8.4 -2.7 -10.7 -2.55 -11.85 -1.75 -12.4 -0.3 -12.65 1.75 -9.75" fill="#f2b65b" fill-rule="evenodd" stroke="none"/>
      <path d="M-2.1 -11.85 Q-2.1 -12.35 -1.55 -12.35 -0.95 -12.35 -0.95 -11.85 -0.95 -11.35 -1.5 -11.35 -2.1 -11.35 -2.1 -11.85" fill="#ffffdc" fill-rule="evenodd" stroke="none"/>
      <path d="M-2.05 -10.6 Q-2.05 -11.05 -1.55 -11.05 -1.1 -11.05 -1.1 -10.65 -1.1 -10.25 -1.55 -10.25 -2.05 -10.15 -2.05 -10.6" fill="#ffffdc" fill-rule="evenodd" stroke="none"/>
      <path d="M-3.95 -12.7 Q1.7 -7.55 7.65 -0.65 10.9 -0.95 14.4 1.7 18.55 4.85 13.95 8.6 10.15 6.5 5.05 6.1 -1.1 5.65 -5.95 8.2 -10.55 10.65 -13.6 14.25 -16.2 17.3 -16.3 19.3 L-19.6 18.85 Q-22.55 17.75 -21.1 14.45 -18.8 9.2 -15.6 7.3 -16.1 3.2 -15.85 1.3 -14.7 -2.45 -15.2 -3.45 L-21.35 -9.9 -24.9 -9.5 Q-28.05 -8.8 -28.55 -9.55 -29.15 -10.5 -26.95 -12.4 -24.95 -14.05 -22.6 -15.05 -20.65 -15.85 -16.9 -16.2 -13.35 -16.55 -11.95 -16.2 -6.4 -14.95 -3.95 -12.7" fill="#0d090e" fill-rule="evenodd" stroke="none"/>
      <path d="M15.45 4.8 Q15.45 6.1 13.8 7.6 9.75 5.55 4.45 5.35 -1.35 5.2 -6.35 7.45 -10.05 9.15 -13.35 12.8 -16.4 16.1 -17.0 18.45 -19.75 18.35 -20.5 17.2 L-20.75 16.35 -20.35 14.8 Q-18.15 9.9 -15.2 8.0 L-14.7 7.7 -14.8 7.15 -15.1 2.65 -15.05 1.4 -14.6 -0.55 -14.2 -2.75 Q-14.2 -3.4 -14.45 -3.85 -14.95 -4.85 -20.0 -9.75 L-20.75 -10.5 Q-21.5 -11.25 -24.6 -10.45 L-27.8 -10.0 Q-27.9 -10.55 -26.15 -11.9 -24.35 -13.35 -22.3 -14.25 -20.45 -15.05 -16.8 -15.4 -13.45 -15.7 -12.15 -15.4 -6.75 -14.05 -4.5 -12.1 1.85 -6.15 7.0 -0.1 L7.25 0.25 7.7 0.2 Q9.2 0.05 11.75 1.15 14.65 2.4 15.3 4.05 L15.45 4.8" fill="#825540" fill-rule="evenodd" stroke="none"/>
      <path d="M0.2 -0.35 Q5.35 -1.15 9.05 -0.55 L10.8 0.7 Q0.55 -1.15 -9.2 4.0 -12.25 5.6 -14.9 7.7 L-16.95 9.5 Q-17.55 9.85 -17.25 8.65 -10.1 1.35 0.2 -0.35" fill="#0d090e" fill-rule="evenodd" stroke="none"/>
      <path d="M8.45 1.9 Q14.65 2.65 15.4 4.2 16.05 5.65 13.8 7.65 6.55 3.7 -3.4 6.35 -9.5 7.95 -13.85 13.35 L-17.0 18.45 Q-18.5 18.1 -19.3 17.0 -20.35 15.6 -11.95 9.1 L-8.6 6.05 Q-6.45 4.15 -4.75 3.45 1.2 1.0 8.45 1.9" fill="#3a1917" fill-rule="evenodd" stroke="none"/>
      <path d="M-11.65 -10.55 Q-13.25 -10.7 -15.0 -9.35 -15.55 -8.95 -14.6 -7.25 -13.8 -5.75 -14.05 -5.75 L-19.05 -10.55 -17.0 -11.2 -12.3 -11.75 Q-10.15 -11.8 -6.35 -10.3 -3.2 -9.05 -2.05 -8.15 0.05 -6.55 5.0 -0.85 -2.6 -0.5 -9.6 2.85 -9.45 2.2 -6.55 -0.65 L-3.1 -4.4 Q-2.55 -5.5 -6.35 -8.0 -9.95 -10.4 -11.65 -10.55" fill="#5d3021" fill-rule="evenodd" stroke="none"/>
      <path d="M-13.25 -4.3 Q-8.7 -3.55 -8.7 -2.3 -8.7 -2.0 -9.95 0.2 -11.25 2.5 -11.5 3.85 L-14.85 6.4 Q-15.35 2.6 -15.0 1.0 -13.6 -4.35 -13.25 -4.3" fill="#b87c62" fill-rule="evenodd" stroke="none"/>
      <path d="M-27.8 -10.0 Q-28.0 -10.4 -26.45 -11.75 -24.6 -13.4 -21.85 -14.5 -17.75 -16.1 -11.95 -15.3 L-5.55 -12.85 Q-9.25 -14.1 -15.05 -14.05 L-21.1 -13.5 -24.5 -11.85 Q-26.8 -10.5 -25.55 -10.35 -27.65 -9.65 -27.8 -10.0" fill="#b87c62" fill-rule="evenodd" stroke="none"/>
      <path d="M3.85 1.0 Q-2.65 1.7 -7.9 4.15 -12.55 6.3 -16.35 10.25 -19.7 13.8 -19.85 15.65 -20.05 17.75 -19.45 18.0 -21.15 17.45 -20.7 15.75 -18.4 8.1 -8.2 3.45 -1.3 0.3 5.2 0.2 10.85 0.1 13.65 2.15 10.6 0.3 3.85 1.0" fill="#b87c62" fill-rule="evenodd" stroke="none"/>
      <path d="M17.85 -7.95 Q17.35 -4.7 15.5 -2.75 17.6 -0.55 17.25 1.7 17.95 2.25 17.85 3.5 17.7 4.85 16.4 5.1 15.35 5.3 15.15 4.45 L15.1 3.55 Q14.55 3.9 13.7 3.35 13.15 3.05 12.95 2.3 L12.9 1.65 Q11.85 2.4 11.25 1.95 9.75 0.85 11.05 -0.45 12.85 -2.15 12.95 -2.9 14.2 -9.45 11.3 -9.5 L13.45 -11.75 Q15.85 -13.6 17.2 -11.5 18.35 -11.1 17.85 -7.95" fill="#0d090e" fill-rule="evenodd" stroke="none"/>
      <path d="M13.15 -2.75 L13.15 -2.9 14.45 -2.4 Q16.4 -0.85 16.55 0.9 L16.7 2.4 16.95 3.25 16.9 3.65 Q16.7 4.3 16.2 4.25 15.75 4.2 15.75 3.4 15.75 2.65 16.1 2.45 16.5 2.2 15.6 1.7 L15.05 2.55 14.15 2.6 13.8 1.75 13.95 -0.2 12.4 0.9 11.8 1.2 Q11.45 0.95 11.45 0.7 L11.45 0.65 11.7 0.2 12.0 -0.05 Q12.9 -0.95 13.15 -2.75 M17.05 -9.6 Q17.1 -8.25 16.45 -6.25 15.75 -4.05 14.75 -3.2 L13.15 -2.9 13.1 -3.05 13.45 -6.2 Q13.35 -8.7 13.0 -9.15 L12.45 -9.65 Q14.25 -11.7 15.5 -11.7 L16.45 -11.0 16.65 -10.8 16.85 -10.65 17.05 -9.6" fill="#e64727" fill-rule="evenodd" stroke="none"/>
      <path d="M-5.65 -0.45 L-4.65 -2.2 Q-3.25 -3.85 0.35 -4.35 L1.25 -2.0 0.85 -1.25 Q1.45 -1.05 2.0 0.25 1.85 1.4 1.05 1.6 0.55 1.75 -0.1 1.2 L-0.65 0.65 Q-0.6 1.8 -1.8 2.05 L-3.0 1.95 -3.3 1.65 Q-3.6 2.35 -4.35 2.65 L-5.7 2.55 Q-6.5 2.15 -6.4 1.35 L-5.6 0.05 -5.65 -0.45" fill="#0d090e" fill-rule="evenodd" stroke="none"/>
      <path d="M-0.15 -0.25 L-1.5 -0.45 Q-1.05 0.25 -1.25 0.65 L-2.0 1.2 Q-2.85 1.35 -2.95 0.6 L-2.65 -0.2 Q-3.6 -0.05 -3.95 0.25 -3.05 1.25 -4.65 1.8 L-5.4 1.65 Q-5.8 1.4 -5.45 0.8 L-4.75 0.3 -3.95 -1.65 Q-3.0 -2.75 -0.15 -3.35 L0.25 -2.2 Q0.05 -1.95 -0.9 -1.5 L1.05 -0.6 1.2 0.15 0.85 0.75 Q0.5 0.85 0.1 0.45 -0.35 0.05 -0.15 -0.25" fill="#e64727" fill-rule="evenodd" stroke="none"/>
      <path d="M12.65 -9.6 L13.8 -10.65 Q15.05 -11.65 15.55 -11.35 16.4 -10.9 14.95 -8.8 13.95 -7.4 13.55 -5.6 13.45 -9.15 12.65 -9.6" fill="#f2a75b" fill-rule="evenodd" stroke="none"/>
      <path d="M2.3 -0.95 Q0.35 -2.5 0.15 -3.55 L0.0 -6.7 -0.15 -7.25 Q-0.1 -8.0 0.6 -9.05 1.7 -10.65 4.1 -9.5 L4.6 -9.9 Q5.3 -10.35 6.5 -10.4 8.35 -10.55 9.35 -9.3 L10.1 -9.7 12.3 -9.55 Q14.25 -8.75 13.5 -6.15 13.75 -6.05 13.6 -3.45 13.5 -1.6 11.0 -0.25 8.7 1.05 6.55 0.9 4.5 0.8 2.3 -0.95" fill="#0d090e" fill-rule="evenodd" stroke="none"/>
      <path d="M9.3 -8.0 L10.0 -8.65 11.95 -8.7 Q13.1 -8.25 12.6 -6.4 L12.7 -5.75 12.7 -3.5 Q12.65 -2.1 10.45 -1.0 8.4 0.1 6.6 0.0 4.85 -0.1 2.9 -1.65 1.2 -3.0 1.05 -3.75 L0.95 -7.8 1.35 -8.55 Q2.0 -9.5 3.7 -8.7 L4.4 -8.45 4.85 -9.0 6.55 -9.5 Q7.9 -9.6 8.7 -8.7 L9.3 -8.0" fill="#e64727" fill-rule="evenodd" stroke="none"/>
      <path d="M10.9 -7.7 Q11.4 -7.85 11.55 -7.2 11.25 -5.8 10.55 -5.95 10.1 -6.0 10.3 -6.8 10.45 -7.6 10.9 -7.7" fill="#0d090e" fill-rule="evenodd" stroke="none"/>
      <path d="M9.3 -8.0 L10.0 -8.65 11.95 -8.7 Q13.1 -8.25 12.6 -6.4 12.55 -8.4 11.5 -8.35 11.0 -8.35 9.55 -6.5 8.05 -4.5 7.3 -4.25 6.05 -3.8 3.7 -3.55 L1.05 -3.75 0.95 -7.8 1.35 -8.55 Q2.0 -9.5 3.7 -8.7 L4.4 -8.45 4.85 -9.0 6.55 -9.5 Q7.9 -9.6 8.7 -8.7 L9.3 -8.0" fill="#f2b65b" fill-rule="evenodd" stroke="none"/>
      <path d="M4.1 -5.45 Q1.8 -5.1 1.6 -6.5 1.4 -8.15 2.5 -8.25 3.45 -8.3 4.2 -6.95 4.95 -5.6 4.1 -5.45" fill="#e64727" fill-rule="evenodd" stroke="none"/>
      <path d="M2.9 -7.55 L3.55 -6.7 Q3.75 -5.9 3.3 -5.8 2.9 -5.7 2.55 -6.3 2.25 -6.8 2.3 -7.05 2.5 -7.65 2.9 -7.55" fill="#0d090e" fill-rule="evenodd" stroke="none"/>
      <path d="M5.2 -7.7 Q5.2 -8.35 5.9 -8.35 6.65 -8.45 6.65 -7.75 6.65 -7.1 5.95 -7.1 5.2 -7.1 5.2 -7.7" fill="#ffffdc" fill-rule="evenodd" stroke="none"/>
      <path d="M6.25 -6.6 Q6.25 -7.0 6.7 -7.0 7.15 -7.1 7.15 -6.65 7.15 -6.2 6.7 -6.2 6.25 -6.2 6.25 -6.6" fill="#ffffdc" fill-rule="evenodd" stroke="none"/>
      <path d="M14.45 -11.0 Q14.45 -11.5 15.0 -11.5 15.6 -11.5 15.6 -11.0 15.6 -10.5 15.05 -10.5 14.45 -10.5 14.45 -11.0" fill="#ffffdc" fill-rule="evenodd" stroke="none"/>
      <path d="M13.25 -9.9 Q13.25 -10.25 13.6 -10.25 14.0 -10.25 14.0 -9.95 14.0 -9.6 13.65 -9.6 13.25 -9.6 13.25 -9.9" fill="#ffffdc" fill-rule="evenodd" stroke="none"/>
      <path d="M7.9 -7.45 Q7.8 -7.9 8.35 -7.9 8.85 -7.9 8.85 -7.45 8.85 -7.05 8.35 -7.05 7.9 -7.05 7.9 -7.45" fill="#ffffdc" fill-rule="evenodd" stroke="none"/>
      <path d="M6.95 -8.4 Q6.95 -8.75 7.4 -8.85 7.9 -8.85 7.9 -8.4 7.9 -8.0 7.4 -8.0 6.95 -8.0 6.95 -8.4" fill="#ffffdc" fill-rule="evenodd" stroke="none"/>
      <path d="M1.95 -4.4 Q1.75 -5.0 2.45 -5.2 3.15 -5.45 3.35 -4.8 3.55 -4.2 2.85 -4.0 2.15 -3.75 1.95 -4.4" fill="#ffffdc" fill-rule="evenodd" stroke="none"/>
      <path d="M4.3 -4.7 Q4.2 -5.15 4.7 -5.3 5.15 -5.5 5.35 -5.0 5.45 -4.55 4.95 -4.4 4.5 -4.2 4.3 -4.7" fill="#ffffdc" fill-rule="evenodd" stroke="none"/>
      <path d="M-0.4 -3.35 Q-2.25 -2.35 -2.9 -1.55 L-4.0 0.0 -4.75 0.6 -5.05 1.35 -4.8 1.8 Q-5.7 1.85 -5.55 1.05 L-4.85 0.1 -4.5 -0.85 Q-4.0 -1.85 -3.2 -2.25 -1.95 -2.9 -0.4 -3.35" fill="#f2b65b" fill-rule="evenodd" stroke="none"/>
      <path d="M-2.65 -0.35 L-2.2 -1.6 -0.05 -1.2 Q0.75 -1.05 1.25 -0.35 L0.45 -0.45 Q-0.2 -0.15 0.85 0.75 -0.15 0.85 -0.15 -0.25 -0.15 -0.5 -1.6 -0.95 L-1.85 -0.45 -1.3 0.25 Q-1.85 0.0 -2.25 0.25 -3.0 0.75 -1.75 1.15 -2.55 1.35 -2.95 0.6 L-2.65 -0.35" fill="#f2b65b" fill-rule="evenodd" stroke="none"/>
      <path d="M14.95 -1.95 L16.3 -0.05 16.6 1.95 17.25 3.45 Q17.25 4.55 16.2 4.25 17.2 3.35 16.5 2.65 L15.95 1.25 15.35 2.25 Q14.8 3.0 14.15 2.55 L14.9 2.05 Q15.1 1.6 14.7 1.25 L13.85 0.8 14.75 0.5 Q15.05 0.55 15.25 0.2 L15.25 -0.35 14.95 -1.95" fill="#f2b65b" fill-rule="evenodd" stroke="none"/>
      <path d="M12.0 -0.25 L13.0 -1.95 Q13.0 -1.35 13.55 -0.45 L12.0 -0.25" fill="#0d090e" fill-rule="evenodd" stroke="none"/>
      <path d="M12.85 -0.25 L12.05 0.25 11.8 1.2 11.45 0.7 Q11.25 0.1 11.7 -0.2 L12.85 -0.25" fill="#f2b65b" fill-rule="evenodd" stroke="none"/>
    </g>
  </defs>
</svg>
