<svg xmlns:xlink="http://www.w3.org/1999/xlink" height="92.9" width="100.7" xmlns="http://www.w3.org/2000/svg"><g transform="translate(38.65 49.75)"><use height="18.5" transform="translate(-12.4 2.6)" width="35" xlink:href="#a"/><use height="16.7" transform="translate(-14.4 -7.65)" width="26.85" xlink:href="#b"/></g><defs><g id="a"><path d="M11.4 6.65q1.8.3 3.05 1.5L15.6 9.2q.2 2.35-1.6 2.7.2 1.2 0 2-.65-2.75-2.2-4.65.7-1.4-.4-2.6" fill="#630" fill-rule="evenodd" transform="translate(12.4 -2.6)"/><path d="M8.25 6.6q1.25-.15 2.5 0h.3l.35.05q1.1 1.2.4 2.6-1.45-1.7-3.55-2.65m7.35 2.6 1.7 1.3 2.05 1.8q.3 2.1-2 2.4 1.25 1.9-1.8 1.5.05 1.05-.25 1.6l-.75-1.35-.15-.05-.4-2.5q.2-.8 0-2 1.8-.35 1.6-2.7" fill="#ffd355" fill-rule="evenodd" transform="translate(12.4 -2.6)"/><path d="m19.35 12.3.75.8.8 1.05.2.4.75 1.65q.5 1.6 0 2.75-1.35 1.8-3.5 1.65l-1.75-.3-.7-.25M11.15 4.1q-.05-.6.35-1M8.25 6.6q1.25-.15 2.5 0h.3l.35.05q1.8.3 3.05 1.5L15.6 9.2l1.7 1.3 2.05 1.8M-11.9 7.7v-.25" fill="none" stroke="#000" stroke-linecap="round" stroke-linejoin="round" transform="translate(12.4 -2.6)"/></g><g id="c"><path d="m12.2-3.15-1.05-.2-2.3-.1q-1.1 1.45-1.4 0-.45.95-1.5.8l-2.85-.2q-.45.7-1.6.15-1.2.6-2.3-.25-1.45 1.7-2.6.6l-2.3.15q-2 .65-3.1-.4-2.3 1.3-3.1-1.15-.5-1.2.75-2.2l.7-.5Q.25-9.15 11.2-6.6q1.4 2 1.2 3l-.2.45M-12.05.8q.8 2.2 2.6 1.2 1.5.7 1.9-.35.65 1.4 1.6.35.5.85 2.2.2l.65.15 2.45-.05 2.05.1q1.35.65 1.95-.35.85.85 2 0 .75 1.15 2.25 0L9.3 2q.05 1.4 1.05.2.55.3 1.1-.55.55.3 1.15-.3l-.15 1.05q.5 1.25-.25 1.65 1.3.95.15 2-.1.95-.8.7Q.5 9-10.95 6.75q-.45.3-.8-.2l-.3-.55q-.45-.6-.1-1.6-1.35-.55-.25-1.75-1.05-.65.35-1.85" fill="#630" fill-rule="evenodd" transform="translate(13.45 8.35)"/><path d="M-11.9-3.75q.8 2.45 3.1 1.15 1.1 1.05 3.1.4l2.3-.15q1.15 1.1 2.6-.6 1.1.85 2.3.25 1.15.55 1.6-.15l2.85.2q1.05.15 1.5-.8.3 1.45 1.4 0l2.3.1 1.05.2-.15.2q.85 1.55-.1 2 .6 1.25.65 2.3-.6.6-1.15.3-.55.85-1.1.55-1 1.2-1.05-.2l-1.7.05q-1.5 1.15-2.25 0-1.15.85-2 0-.6 1-1.95.35l-2.05-.1-2.45.05-.65-.15q-1.7.65-2.2-.2-.95 1.05-1.6-.35-.4 1.05-1.9.35-1.8 1-2.6-1.2-1.45-1-.6-2.25.1-1.35.75-2.3" fill="#ffd355" fill-rule="evenodd" transform="translate(13.45 8.35)"/><path d="m12.2-3.15.2-.45q.2-1-1.2-3-10.95-2.55-21.65.15l-.7.5q-1.25 1-.75 2.2-.65.95-.75 2.3-.85 1.25.6 2.25-1.4 1.2-.35 1.85-1.1 1.2.25 1.75-.35 1 .1 1.6l.3.55q.35.5.8.2Q.5 9 11.55 6.75q.7.25.8-.7 1.15-1.05-.15-2 .75-.4.25-1.65l.15-1.05q-.05-1.05-.65-2.3.95-.45.1-2l.15-.2Z" fill="none" stroke="#000" stroke-linecap="round" stroke-linejoin="round" transform="translate(13.45 8.35)"/></g><use height="16.7" width="26.85" xlink:href="#c" id="b"/></defs></svg>