<svg xmlns:xlink="http://www.w3.org/1999/xlink" height="92.9" width="100.7" xmlns="http://www.w3.org/2000/svg"><use height="20.1" transform="translate(18.65 46.2)" width="49.95" xlink:href="#a"/><defs><g id="a" fill-rule="evenodd"><path d="M25.7 3.5q.25.15.15.45V4q-.15.75-.85 1.3.2.5 0 1.25l-.2.65-.3.3-.4-.1-.1-.15q-5.7-5.05-14.7.7L8.95 8l-.25-.2q-.55-.9-.55-2.25l.1-.3.3-.1 1.65-.9q8.7-5.2 15.5-.75" transform="translate(20 3.55)"/><path d="M8.55 5.55q.85-.05 5.7-2.7 5.6-1.95 10.7 1.2l-.85.85.1 1.4q-2.9-1.9-4.5-2.2-4.6-.8-10.75 3.15l-.4-1.7" fill="#600" transform="translate(20 3.55)"/><path d="m28.75 9.15.15-.1h.5l.25.4.05.8q0 1-.35 1.5.6.7.6 1.7v.05q0 .4-.3.45-9.25 3.35-17.7-5.1L10.3 7.4q-.2-.05-.3-.25-.15-.15-.05-.4.5-1.7 1.25-2.45.15-.15.4-.15.2 0 .35.15 8.9 9.3 16.8 4.85" transform="translate(20 3.55)"/><path d="M10.4 6.9q.25-1.15.95-1.85 5.95 6.25 11.55 6.6 1.9.1 5.8-1.3.1 1.15-.5 1.6l.7 1.2q-6.8 2.2-12.65-1.55-4.9-4.4-5.85-4.7" fill="#a30000" transform="translate(20 3.55)"/><path d="m11.1 5.3.25-.25q5.95 6.25 11.55 6.6 1.9.1 5.8-1.3l-.15 1.05q-3.65 1.85-8.75.35l.8.55q-6.1-1.15-9.5-7" fill="#600" transform="translate(20 3.55)"/><path d="m-4.8-3.35 2.3-.15q4.55-.4 6.1 1.65 4.1-1.3 8.55 3.15 2.2 2.2 3.25 2.45l.4.4v.1l-.2.4-1.5.45 1.1 2.5q1.15 3.8 4.25 4.9l.35.35v.1l-.2.4q-.8.65-2.25.55L16 13.55q.4.9 1.65 2.05l.15.3v.05l-.2.35-1.75.25q-1.35-.15-1.6-.7l-2.65-6.9Q9.95 6.4 7.1 6.15l-4.85.05-7.75-.5q-3.85.05-5.1 1.55-2.8 3.45-4.2 8.8-3.8.6-4.25-1.5 2.6-.95 3.45-2.95l-4.1-.2-.3-.45v-.1q0-.4.4-.4 2.95-.35 5.95-3.85-2.7-.5-3.6-2.55V3.9l.1-.35.55-.15 3.3.15q.85-.45 2.25-2.1 2.95-3.5 6.3-3.75l-.3-.1-.3-.4v-.1l.55-.45" fill="#1c0000" transform="translate(20 3.55)"/><path d="M.3-2.65q1.9.25 2.95 1.8Q6.95-2.2 9.9.45l2.15 2.2q1.2 1.2 2.15 1.45l-1.9.3q1.05.8 2.1 4 1 3.05 3.6 4.55-1.35.35-3.55-1.35-.1 1.35 2 4.1-1 .1-1.35-.3l-2.5-7.6Q8.8 4.75-1 5q-8.7.2-10.3 1.6-3.45 3.75-4.4 8.8-1.5.35-2.25-.55 1.25-.65 2.45-2.2 1.25-1.55.9-2.2l-2.85.35Q-13.7 8.7-11.9 6q-2.25-.2-3.65-1.25 2.2.1 3.5-.85l2-2.25q2.65-3.35 8-3.3l-1.65-1.1 4 .1" fill="#fc0" transform="translate(20 3.55)"/><path d="M-17.4 15.2q1.4-.95 2.2-2.35l.5-1.3.2.45-1.2 3.4-1.7-.2" fill="#ca7017" transform="translate(20 3.55)"/><path d="M-15.75 10.7q1.1-.4 2-1.4l1.5-1.55Q-13.55 9.6-14.5 12l-.2-.45q.25-.8.1-1.1l-1.15.25m7.95-7.2q0 1.1-.55 2.2l-2.65.7-1-.25.1-.15-2.55-.6q4.05-.15 6.65-1.9M2.85-.45Q1.3-1.95.2-2.25l-3.9-.5 4 .1q1.9.3 2.95 1.85Q6.95-2.15 9.9.45l2.15 2.2q1.2 1.2 2.15 1.45l-1.9.3q1.05.8 2.1 4 1 3.05 3.6 4.55-1.35.35-3.55-1.35-.1 1.35 2 4.1-.7.45-1.35-.3l-3.05-7.45q-.25-.7-.7-.95.6-3.95-3-6Q4.85-1 1.2.55l1.65-1" fill="#ca7017" transform="translate(20 3.55)"/><path d="M11.45 4.95 12.6 6.5q.8 1.4.55 2l-.65.45h-24.7q-.55-.1-.45-.55.15-1.15 1.05-2.35l.95-1.1.35-.1q21.3-.35 21.75.1" transform="translate(20 3.55)"/><path d="M10.9 5.8q1 .65 1.2 2.15L-11.45 8l1.35-2.25q20.55-.25 21 .05" fill="#a30000" transform="translate(20 3.55)"/><path d="M10.9 5.8q1 .65 1.2 2.15L-11.45 8l.25-.65q13.65 0 18.2.35l-12.75-2q16.3-.15 16.65.1" fill="#600" transform="translate(20 3.55)"/><path d="M10.25 2.75q1.25.3 2.15 1.55 1.05 1.45.8 3.3l-.45.4-.55-.35q-.1-.5-.95-1.35l-.5 2q-.2.35-.55.3-.35 0-.45-.4-.2-1.35-1.25-2.35v.05q0 1.65-.35 2.35l-.45.25-.5-.35-1.5-1.4L3.8 5.5q-1.25.95-1.35 2.55l-.2.4-.45.05Q.5 8.15.1 5.65q-1.3.9-2.4 2.65l-.35.2-.35-.05q-.8-.55-.8-2v-.2q-1.5.95-2.45 2.25-.15.2-.45.2l-.4-.35-.15-.9.05-.45-1.95 1.85-.55.1-.3-.45v-.05q0-.8.55-1.9l-2.8 2.05h-.55q-.3-.2-.2-.5.5-2.15 2.35-3.95l.05-.05Q-8.85 2.15.35 2.15l9.9.6" fill="#4f0000" transform="translate(20 3.55)"/><path d="M11.7 3.75q.95 1.3.7 2.95-.15-.7-1.2-1.55-1-.85-1.1-.6.45.55.2 2.6-.3-2-3.15-3.3.4.25.55 1.5.15 1.25-.1 1.95 0-.45-1.75-1.7-1.7-1.2-2.1-1.2-.35.05-1.15 1.1-.8 1.1-.85 1.8-.5-.15-.8-1.25Q.65 5 .75 4.2q-2 1.05-3.35 3.1-.45-1.55-.05-2.6-2.15.75-3.6 2.65Q-6.6 6.3-6 5.4q-.55-.2-3 2.25-.1-1.7 1.25-2.85-1.75.6-3.6 1.85.45-1.9 1.35-3.1Q-8.5 1.75.4 1.8l9.5.55q1.05.25 1.8 1.4" fill="#fc0" transform="translate(20 3.55)"/><path d="M.2 2.5q.75 1.15.55 1.7-2 1.05-3.35 3.1l-.05-.1q.25-1.15 1.3-2.5L.2 2.5m1.6 4.55Q1.65 5.7 3.2 2.5l1.35 2.3-.8-.4q-.35.05-1.05.95-.7.95-.9 1.7M6.2 2.5q1.55.55 2.2 2.05l-1.25-.7q.4.25.55 1.5.15 1.25-.1 1.95l-.15-.25Q6.2 4 6.2 2.5m3-.35q1.7.2 2.6 1.7.85 1.35.6 2.85-.45-1.1-2.3-2.15.4.5.2 2.6-.1-2.8-1.1-5m-11 1.35-.95 1.25q-2.2.9-3.5 2.6Q-4.5 3.5-1.8 3.5m-4 0q0 1-.3 1.9-.6-.05-2.9 2.25l.05-.5L-5.8 3.5m-5.35 3.05q1.9-2.3 4.25-2.95l-.9 1.25q-1.75.6-3.35 1.7" fill="#ca7017" transform="translate(20 3.55)"/><path d="M.2 1.45q0-.2.15-.3L.4 2.2 0 1.65l-.7.7-.7.6-.15-1.2-1.3.5-1.75.85.1-1.5-.7.4-1.2.85q.25-.7.15-1.05l-2.25.9.75-1.1-1.5.5L-8.1.7h.05l-.15.7 1-.1-.3.65 1.25-.6.5-.15q.3.3-.1.65l1.6-.8q.25.05.25.35v.9l3-1.1.05.85Q.1.75.2 1.45" fill="#fff" transform="translate(20 3.55)"/></g></defs></svg>