<svg xmlns:xlink="http://www.w3.org/1999/xlink" height="92.9" width="100.7" xmlns="http://www.w3.org/2000/svg"><use height="33.85" transform="translate(17.55 29.6)" width="49.45" xlink:href="#a"/><defs><g id="a" fill-rule="evenodd"><path d="m-16.05-.45.3-.2.95.4-.1.35-1.15-.55m3.5-1.95-.15 1.65-.15-1.55.3-.1m24.2-8.8.55-.6 2.5-.2-.05.05-1.95.9-1.05-.15" fill="#021e1b" transform="translate(21.1 20.15)"/><path d="M12.7-17.2q4.55.75 3.45 3.75-.7 1.1-1.45 1.45l-2.5.2 1-1.65-2.4-.05-.45.55.8 1.15h1.05l-.55.6 1.05.15 1.95-.9.05-.05 1.7-.2 1.85.15 1.15-.85 1.05-.25q1.3 0 2.65 1.1 1.65 1.15 1.2 3.3Q24-6.6 22.2-6.7q-1.55.25-2.8-.9-.65-.65-1.6-.55l-.7.2q-.65.45-.55 1.4 1.55 2.25.5 4.95-.1 1.1-.45 1.45l-.05.05-.75.15-.05.2-.1.65-.15.2-.8.75q.5.8.9-.55l.05-.4.9-1q.45.1.7.55Q18.7 2.3 17.1 3.8q-.65 1.05-1.9 1.05L14.05 5l-.5.55q-.55.7-.55 1.4.2 1.55.9-.1l.25-.65q.6-.65 2.05-.8l1.25.15q1.3.5 1.85 2.45.6 3.15-.95 4-2.95 1.6-4.9.85l-.55-.75v-.15l-.55-.35v-3l-2.3-5.2L7.4 1.1 5.1-.35 2.05-.9-.6-.8l-.2.55-.25.25q-1.65.05-2.3.75l-3.7 3.35q-.65 1.05-.85.45h-1.95l-.55 1.85 1.35.65q.55 1.25-1 2l-2.05.2-1.65-1-.2-.5-.95-.65-.35-.5q-1.55-.95-.7-1.9-2.3 0-2.65-2.35.3-1.75 2.25-2.65l.3-.15 1.15.55q-.15.9.6.8 1.6-.5 1.9-.95l-.3-.7.15-1.65-.3.1.1-.45q.6-1.7-.3-1.65l-.75.55q-.7.65-.5 1.4 0 .55 1.45.15l.15 1.55q-.35.8-1.3 1l-.9-.15.1-.35-.95-.4-.3.2q-.85-.6-1.4-1.65-1.15-3.75 2.3-5.35-2-.65-1.45-3.1 0-2.25 3.05-2.35 3.1-.5 2.3 2.25l-.55.7q-.55-.8-1.2-.65l-.35.45q-.2.45.4.75 1.45.4 2.5-.85l.6-.5q.75-.5 1.65-.35l.05-1.1q.15-1.15.7-1.5.1-1.65-1.4-2l-1.45.9q-2.1 1.8-3.5.7-1.55-.4-1.7-2.35-.2-2.35 2.35-3.3 1.05-.9 3.55.25 4.65-1.6 6.9 1.65 1.05.8.8 1.7 3.6-1.8 7.25.85l.55.15 1.45-1.2q2.15-1.15 5.35-.85" fill="#021e1b" transform="translate(21.1 20.15)"/><path d="m15.65.9.1-.65.05-.2.75-.15-.9 1m-30 8h1.95l-2 4.55q0 .5-.05-.1l-.4-.05q-1.4 1-4.75-1.6-2.6-2.1-.7-4.75.4-1.55 3.25-.55l.05.05.85 1.1.15.15-.35.05-.7.3q-.6.35-.3.9l3-.05" fill="#021e1b" transform="translate(21.1 20.15)"/><path d="m-13.9 8.05-1-.95.95.65.2.5-.15-.2m-.95-23.3 1.55 1.4q-3.05 3.05-5.2.95l.8-.25q1.95.7-.05-.2-2-.95-.85-2.75 2.35 2.35 3.75.85m36.3 8.4q.05-.45 1.1-.8l1.05-.25q.1 2 4.75 1.15Q27.7-5 25.75-5.1l.6.85q-2.45.7-3.9-.9l-1-1.7" fill="#021e1b" transform="translate(21.1 20.15)"/><path d="m.05-12.8 2.05 1.15-.85 2.25L.6-5.45q-.8.55-3.2.7-1.25 0-2.4-.7l-.95-.75q-1.1-.8-1.5-2.5l-.2-1.6q-.05-1.05.5-2.3l.6-1.05q.1-1.65-2.2-2.5l-2.05 1.1q-1 .8-2.3.7-.8-.05-1.25-.8l-.3-.75q-.75-1.7 1.15-3 1.9-1.4 3.25-.35.75.55 1.05.3 1.55-.35 3.5.05 1.5.15 2.5 1.3 1 .95.7 2.4-.35 1.3-1.55 2.65-.6 1.35.95 2.7 1.35.8 3.4-.45.95-.65-.25-2.5" fill="#04352d" transform="translate(21.1 20.15)"/><path d="M1.3-8.2 1-6.15Q-2.8-3.7-5.35-6.3q-1.8-1.15-1.9-3.45l.25-2.1q1.1-1.5.6-2.9-1.4-2.45-3.3-1.4-1.95 1.65-2.6 1.45-2.3.55-2.25-2.3 1.4-3.4 3.9-2.05 1.25.7 1.65.35 2.3-.45 4.25.45 3.5 1.6 1.3 4.5-1.65 1.45-.85 2.85 2 3.1 5.6 2.7" fill="#0fd3c0" transform="translate(21.1 20.15)"/><path d="M.35-5.75q-1.05.65-2.45.7-2.85.1-4.75-3-.9-2.5-.05-3.9l.7-2.05-.25 2.7q.1 2.85 1.65 3.9 3.4 1.25 4.85-.55l.3 2.2" fill="#8bd111" transform="translate(21.1 20.15)"/><path d="m-6.4-10.7-.65-.65q1.9-3.4-1.15-4.9 1.35-.15 2.65 1.1l-.85 4.45" fill="#8bd111" transform="translate(21.1 20.15)"/><path d="M1-6.15q-4.6 3.25-7.55-1.3-1.25-1.9-.2-5.05.55-.85.4-1.75-.25-1.8-3.5-2.1 2.65-1.3 4.65 1.05.95 1.5-.55 3.7l-.1 1.7q.1 1.8 1.4 2.5Q-2.9-5.5.4-7.2L1-6.15" fill="#8bd111" transform="translate(21.1 20.15)"/><path d="M-9.2-16.6q5-.25 4.25 3.15l-.4.5q1-3.65-3.55-3.4l-.3-.25" fill="#547707" transform="translate(21.1 20.15)"/><path d="m-9.5-16.1-1.3 1.05-1.2.55v-.2q.65-.1 2.15-1.7 2.85-.8 4.3 1.25-2.3-1.8-3.95-.95" fill="#044f44" transform="translate(21.1 20.15)"/><path d="m.15-8.15-.95.2-1.5-.35-.35-.85q5.45-.3 3.2-3.2L3.2-10.6q.5.75-.55.95L1.5-9.2Q.35-8.7.15-8.15" fill="#0fd3c0" transform="translate(21.1 20.15)"/><path d="M-11.8-18.65q.65 1.35-1 1.75-.6.3-.7-1.2l.5-.6 1.2.05" fill="#032621" transform="translate(21.1 20.15)"/><path d="m-14.65-14.65.95.45q-1.85 2.9-4 1.05.45.15.9-.3-2.3-.65-1.65-1.85 1.9 1.75 3.8.65" fill="#f45888" transform="translate(21.1 20.15)"/><path d="M-13.8-14.35q-1.55 2.3-3.55 1.3.7.05 1.15-.5-1.95-.4-2.15-1.3 1.7.9 2.25.6 1.2.15 1.55-.3l.75.2" fill="#f484bd" transform="translate(21.1 20.15)"/><path d="M-6.7-15.65q1.55.85 1.05 2.4-.5 1.6-.1.15l-.8 1.85-.5.45q1.65-3.2.35-4.85" fill="#d1ea68" transform="translate(21.1 20.15)"/><path d="M-9.25-18.2q5.55-1.65 6.3 2.75L-4.4-14.3q.2-1.05-.3-2.1-1-2.05-4.55-1.8" fill="#a4f4ea" transform="translate(21.1 20.15)"/><path d="m-20.15 8.2.75-1.45 1.6-.15.85.35h-.25l.4.1q.85.2.3.6l-1.25.4q-.8.45.3 1.45 1.6 1.1 3.25-.15.55-.25.45-.6l.95-.3-.15.7-1.8 3.3q-3.2 1.35-4.55-1.45-1.3-1.1-.85-2.8" fill="#04352d" transform="translate(21.1 20.15)"/><path d="M-18.1 9.4q1.15.9 1.8.9l2.25-.7.2-.05.2-.1-1.05 2.7q-4 1.45-5-2.85-.1-2.25 1.15-2.3l1.05.2q1.5.15-.05.5-1.55.3-.55 1.7" fill="#0fd3c0" transform="translate(21.1 20.15)"/><path d="m-14.1 9.85-.7 1.95q-3.05.5-3.55-1.45 2.7 1.15 4.1-.45l.15-.05" fill="#0b9b89" transform="translate(21.1 20.15)"/><path d="M-18.5 7.35q-1.9 2.95 1.9 4.75-1.55.15-2.6-2.1-.6-1.1 0-2l.7-.65" fill="#a4f4ea" transform="translate(21.1 20.15)"/><path d="m10.7-11.1.75-.2 1.9.3-.4.65-1-.15h-1.1l-.15-.6" fill="#044f44" transform="translate(21.1 20.15)"/><path d="m9.95-10.3 1.2-.65q1.45-.45 3 .65l-1.1 1.05q-.95 1.15-.35 1.7L9.65-8.2q1.1-.85.3-2.1" fill="#0fd3c0" transform="translate(21.1 20.15)"/><path d="m-17.15 1.3 1.7-1.6q-.1 1.95 1.05 1.55Q-12.1.7-11.65.1l4.8 1.4-.2 1.7-1.15.95-5.25.7q-6.3-.75-3.7-3.55" fill="#044f44" transform="translate(21.1 20.15)"/><path d="m-10.65 3.75-.45-1L-9.65.8-7.5.7l2.35.9q-.85.25-1.9 1.3l-.85.95-2.75-.1" fill="#0fd3c0" transform="translate(21.1 20.15)"/><path d="m-8.75 2.95-4.55 1.6-1.6-.8q-4.4 0-.75-3.1.1 2.3 4.5-.55l1.4.3 1 2.55" fill="#0fd3c0" transform="translate(21.1 20.15)"/><path d="M-7.05 3.1q-3.35-.25-4.4-1.3-4.25 1.1-4.2-1.15.85 1.9 3.95-.25 1.5 1.95 5.5.9l.65.5-1.5 1.3" fill="#0b9b89" transform="translate(21.1 20.15)"/><path d="M5-14.55-6.4-11.2q.95-2.8 4.25-4.35L.4-16q2.9-.15 4.6 1.2v.25" fill="#044f44" transform="translate(21.1 20.15)"/><path d="M2.95-15.5Q7.2-14.35 6.5-9.05 4.4-5.35-1-5.5q-3.55.35-4.6-2.85-1.1-1.8.1-3.9L-4.05-14q2.95-2.45 7-1.5" fill="#0fd3c0" transform="translate(21.1 20.15)"/><path d="m3.95-10.1-2.1.75-.95.7-.55-1.2.6-.95.8-.6 2.2-.45 1 .1-.4.45-.25.85-.35.35m-8.1 2.8q1 .15 2.55-.85 0 .75 1.15 1.35l-2 .3-1.15.6q.7-.75-.55-1.4m.3-4.3q3.65-3.7 8.35-3.15-5.35.75-6.45 4.45l-1.9-1.3" fill="#0b9b89" transform="translate(21.1 20.15)"/><path d="M10.8-8.9v-.55l.95.45v.55l-.95-.45" fill="#044f44" transform="translate(21.1 20.15)"/><path d="M6.5-9.6q2.95-.6 7.2 1.9l2.2 3.35q1.25 3.8-3.55 5.9l-4.1-.25q4.55-6.2.45-6.95-1.35.5-2.55 1.2-2.4 1.4-1.55 2.55L-.6-3.65l1.7-3.6 3.1-1.2L6.5-9.6" fill="#0b9b89" transform="translate(21.1 20.15)"/><path d="M-5.15-12.25q2.2-4.25 8.05-2.95-6.7.2-7.25 3.2l-.8-.1v-.15" fill="#a4f4ea" transform="translate(21.1 20.15)"/><path d="M9.85-6.4q3.95.1 2.6 3.6l-1.05.5-2.8-.85L8.9-6l.8-.4h.15m4.2 8.05q.8 1.75 1.95 0l-.3-1.6 1.4.9q.8 2.3-.95 3.05-1.95 1.3-3.25.2l-.4-2.15 1.55-.4" fill="#04352d" transform="translate(21.1 20.15)"/><path d="M9.55-6.2q3.9.05 2.45 3.9l-1.75 1-2.9-1.8-.45-1.8q.4-1.4.55-1.4l2.1.1m1.85 8.15-.85-.4L13.85.1q-.85 2.25.95 2.55 2-.15 1.35-2.25 1.85 2.15 0 3.4-2.1 1.05-3.65-.3l-1.1-1.55" fill="#0fd3c0" transform="translate(21.1 20.15)"/><path d="M14.95 2.7q1.3.85 1.9-.4l.05-.15q.35 3.05-3.25 2 .4-1.35-.15-2.2l.15-.05 1.3.8m-5.9-8.4q2.9 1.1 2.25 3.2l-1.8-.3-.65-.3-.35-.75.1-.95.45-.9" fill="#0b9b89" transform="translate(21.1 20.15)"/><path d="m22.25-7.05 1.2-.05q.9 1.3 3.8.9-.6.8-1.6.9l-.9-.1.9.9q-2.2.35-3.05-1.05l-.35-1.5" fill="#f45888" transform="translate(21.1 20.15)"/><path d="m22.4-7.15.75.1q.2.55 1.4.8.35.5 2.25.25-.5.75-2.45.45.25.7.9.85-1.35.15-2.25-1.15l-.6-1.3" fill="#f484bd" transform="translate(21.1 20.15)"/><path d="M17.7 6.15q.85.6 1.2 1.9.3 3.25-1.8 3.9-2 .7-3.4.45-.2-.05-.15-.25.05-.2.65-.5l-1.65-.3q-2.9-7.9-5.4-9.6l1.3.2.8-.6 1.65.5 3-.35-.4.55q.85.9-.1 2.7L12.75 6q-.6 1.4-.1 1.85 1.25.75 1.45-1.15l.6-.6q.85-.55 2.2-.35l.8.4M15.55 9.9q-.05.9-.45 1.35 1.7-.9 1.65-1.95-.1-1.15-.95-.35l-.25.95" fill="#04352d" transform="translate(21.1 20.15)"/><path d="M12.65 1.7q1.5 1.3 0 3.7l-.45 1.45q-.2 1.45 1 1.45.95.05 1.3-1.45l1.35-.75q1.55-.35 2.6 1.6 1.05 3.6-2.85 4.3-1.95.35-1.2-.05.4-.2 1.15-.45 2.9-2.4.8-3.2l-1 1.2q-.15 2.7-2.65 1.5-1.6-4.35-2.1-4.85-2-3.7-2.65-3.9L9.5.35 11.3.1l1.25 1.55.1.05" fill="#0fd3c0" transform="translate(21.1 20.15)"/><path d="m9.95 2.15 2.55 7.5-.45-.2q-2.75-6.6-4.1-7.2l.55-.75 1.45.65" fill="#8bd111" transform="translate(21.1 20.15)"/><path d="m12.7 11.1-.1-.05-.55-1.6Q14.4 11.2 15.6 8.3l.9-.2q.8 0 .6 1.15-.4-.95-.75-.95-.3.15-.55.4-.55.5-.4 1.15-.2 1.3-1.4 1.45l-1.3-.2" fill="#8bd111" transform="translate(21.1 20.15)"/><path d="M13.3 4.1q-2.7-1.15-3.7-.85l-.65-1.3 1.6.35 2.5-.1.3.5-.05 1.4" fill="#0b9b89" transform="translate(21.1 20.15)"/><path d="m10.25 3.2 1.9 4.4q.2 4.35 3.15.55 1.4-1.25 1.9.6.1 1.55-.1.3V8.9q-.2-1.4-1.15-.75l-.85.95q-2.65 2.6-3.2-.75L9.8 3.2h.45" fill="#547707" transform="translate(21.1 20.15)"/><path d="M15.35 9.5q-.6 2.5-2.75 1.2l-.35-.85q1.1 1.3 3.1-.35" fill="#d1ea68" transform="translate(21.1 20.15)"/><path d="m14.55 7.3 1-.95Q16.65 5.8 18 7.6q1.45 2.5-1.3 3.75 2.05-1.7.65-3.65-1.1-1.8-2.35.1l-.45-.5" fill="#a4f4ea" transform="translate(21.1 20.15)"/><path d="m-5-7.15-.05-.25.95.05q1.55.6.55 1.45l-.65.4-.8-1.65m-7.85-5.5q.9.1 1.2.8.2.7-.1 1.4-.25-.7-.85-.7l-.55.1-.8.8.15.55q.3.55.9.7l1.85-.15q.65-.3 1.1-.85l1-.5 2-.05.2.4-.7 1.15-1.05 1.85-1.7.3-1.35-.65q.15-.25-.55-.25l-1.45.35h-.5q-1.2-.4-1.6-1.3-.6-1.25-.05-2.7.35-.8 2-1.15l.85-.1" fill="#04352d" transform="translate(21.1 20.15)"/><path d="m-5.15-8.15.85.9q1.75.55-.25 2.15-1.25 1.8-2.6 1.35l-1-.8.35-1.6 1.6-1.65.55-.3.5-.05" fill="#0fd3c0" transform="translate(21.1 20.15)"/><path d="m-5-8.15.85.9q1.7.55-.25 2.15-1.25 1.8-2.65 1.35l-.95-.8.3-1.6 1.65-1.65.55-.3.5-.05" fill="#0b9b89" transform="translate(21.1 20.15)"/><path d="M-15.45-9.35q-.75-2.35 1.55-2.9 2.55-.75 2.1 1.3-.5-.55-1.2-.4l-.65.25q-1.45 1.3.3 2.2 1.9.95 3.5-.9 2.5-1.45 3.4-.25l1.25 1.3L-7.35-7-8.6-5.5l-1.5-1.65q-5.05.45-5.35-2.2" fill="#0fd3c0" transform="translate(21.1 20.15)"/><path d="M-13.3-12.15h.15l.35.4q-1.95.4-1.55 2.2l.45 1.6L-14-8l-1.45-1.35q-.55-2.55 2.15-2.8" fill="#a4f4ea" transform="translate(21.1 20.15)"/><path d="M10.45-13.85q-.7.5-.8 1.1Q7.6-14.4 6.4-14.5l1.15-1.3q1.9-1.3 5.35-1.05 3.55.8 2.65 3.45-1.7 1.9-3.6 2.25 2-1.85 1.65-2.5-.65-1-2.5-.55l-.65.35m-6.3 3.45.4-.9.55.15-.45 1.25-.5-.5" fill="#04352d" transform="translate(21.1 20.15)"/><path d="m10.1-2.65 2.2-.1q1.5-1.35.95-2.65-1.2-1.35-1.55-2.7-.1-.35-.05-.8.1-.95.75-1.55l.7-.6q.85-.6 1.8-.7l3.5-.1 1.05-.25.9-.35q1.15-.2 2.35.65 1.9 1.35 1.1 3.05-.25 1.5-1.5 1.55-1.35.1-2.3-.7-1.2-1.15-2.05-1.15l-1.15.65q-1.1.8-1.05 1.85l.6 1.1q.55 1.25.5 2.25.05 2.85-1.7 4.1-1.4 1.5-3.35 1.5-2.4-.15-3.2-.75l-.7-3.9-.8-2.3L9.15-5.7l-.5 1.05q-.35 1.1.25 1.45.6.3 1.2.55" fill="#04352d" transform="translate(21.1 20.15)"/><path d="m6.6-13.9.85-1.5q1.65-1.45 5.45-1.15l2.15 1.5q1.35 1.85-2.5 3.45 3.2-2.15.25-2.95-3.7-.65-3.7 2.95l-2.5-2.3" fill="#0fd3c0" transform="translate(21.1 20.15)"/><path d="M6.75-14.45 9.4-13.2q-1.65 4.35-.75 7.95-2.1 3.1 3.35 3.2L8.8 1.5Q1.5-.3 3.4-7.55q.95-3.65 3.35-6.9" fill="#0b9b89" transform="translate(21.1 20.15)"/><path d="m15.2-11.5 3-.05 3.05-.65q1.6.2 2.45 2.35.05 2.85-2.2 2.3-.7.15-2.6-1.5-1.95-1-3.3 1.45l-.1.9q0 1.05.7 2Q17.35-1 14.5.8 12 3.4 8.15.95l-.3-2q3.65.4 5.65-2.7.75-1.4-.85-2.85-.55-.7-.65-1.65-.25-1.85 1.9-2.85l1.3-.4" fill="#0fd3c0" transform="translate(21.1 20.15)"/><path d="M13.95-.25q2.5-1.6 1.5-6.5l.65 1.9q.85 1.45-.05 3.95-3 4.95-7.2 2.25.5-.45.3-2.2 1.4 1.8 4.8.6m-3.7-13.8.6-.55 2.7-.3q2.85 1-.8 3.3 1.2-1.1 1.15-2.1-.95-1.6-3.65-.35" fill="#8bd111" transform="translate(21.1 20.15)"/><path d="M15.6-3.6q-.3-3.6-.85-4.4l.8-.6q1-.6 1.8-.5l-1.3 1.2q-1 1.6.2 3.7l-.65.6" fill="#8bd111" transform="translate(21.1 20.15)"/><path d="M14.35-8.15q2.05-2.4 4.7-1.05-3.25.3-3.5 2.1-.1.9.4 1.75Q17-2.2 15.75-.3 12.8 4.2 8.15.95l.65-1q3.25 1.7 4.85-.2 2.05-1.15 1.3-4.2Q14-5.8 14.1-7.1l.25-1.05m-5.95-5q1.7-3.45 5.5-1.1-2.55-.85-3.85.4l-.85 1.4-.8-.7" fill="#8bd111" transform="translate(21.1 20.15)"/><path d="M9.05-1Q11.9.85 13.8-.7q1.6-.9 1.05-3.55-1.6-2-.25-4.1l1.1-.85 3.35-.15-.7.2q-2.75-1.1-4.1 1.9l.05.95q.2 1.15.8 1.95.65 2.65-.9 3.75-1.95 1.8-4.9-.05L9.05-1" fill="#547707" transform="translate(21.1 20.15)"/><path d="M13.85-.35Q11.1 1 9.4.15q.15-.45-.25-1l1.4.55q1.7.5 3.3-.05" fill="#547707" transform="translate(21.1 20.15)"/><path d="M20-7.9 18.7-9q-1.65-.8-3.8.9l.95-.8q1.4-.85 3.2-.35l2.15 1.7v.15L20-7.9" fill="#044f44" transform="translate(21.1 20.15)"/><path d="M9.05-1 7.7-2.05 6.55-2.5q-.65-.15-.65-.55l.1-.4 2.65-1.8q-2.25 2.9 3.2 3.2l-.35.85-1.5.35L9.05-1" fill="#0fd3c0" transform="translate(21.1 20.15)"/><path d="M21-11.55q.9-.8 1.7.6-.15 1.5-.7 1.2-1.05-.25-1.1-1.05l.1-.75" fill="#032621" transform="translate(21.1 20.15)"/><path d="M9.65.75 12.5.8q2.9-.85 3.15-5.25 1.6 3.8-1.6 5.6-2.35 1.6-4.6.25l.2-.65" fill="#d1ea68" transform="translate(21.1 20.15)"/><path d="m7.35-14.7 1.3-1.1q1.85-1 4.45-.35 2.7 1.2 1.8 2.7-3-3.95-6.35-.7l-1.2-.55" fill="#a4f4ea" transform="translate(21.1 20.15)"/><path d="M-12.05-3.4q.15-.95-.5-1.3l-.65-.2-1.4 1.1q-.75 1.55.45 2.15.9.1 1.35-.55.4 1.55-.95 2.15-3.5.05-3.1-3.3-.15-3.45 4.05-4.7 3.45-1.45 4.2 1l-.55.15-.45.65-.75 1.55.1 2.2 1 1.15 1.7.1.25 1.05 1.1 1.45q-4.65 1.5-5.9-1.55-.55-.85-.3-2.05l.35-1.05" fill="#04352d" transform="translate(21.1 20.15)"/><path d="M-15.7-5.75q1.2-1.75 3.7-2.3l1.25-.3q1.35 0 1.95 1.45-.85 4.4 1.25 4.2 4.5.65 2.35 3.1-2.25 1.95-5.25.55-2.05-.3-1.75-3.7.7-1.45-.2-2.35h-1.1q-1.2.4-1.65 2.1.45 2.75 2.15 1.1-.15 2.95-2.7.9-1.75-1.5 0-4.75" fill="#0fd3c0" transform="translate(21.1 20.15)"/><path d="M-11.7-3.9q.1-1.05-.9-1.2l-1.3.25q-1.3.55-1.2 2.3-1.1-1.3 1.45-3.45l.95-.35q1.05-.2 1.4.85l-.4 1.6" fill="#8bd111" transform="translate(21.1 20.15)"/><path d="m-7.55-1.25.85 2.2q-3.75.25-4.5-2.5-1.25-3.8 2.15-5.75l1.5 6.05" fill="#0b9b89" transform="translate(21.1 20.15)"/><path d="M-11.4-5.65q-1.4-1.85-3.45.8l-.35.85q-.25 1 .1 1.45-.9-.8.2-2.75.6-.7 1.4-1.1 1.6-.9 2.5.35l-.4.4" fill="#547707" transform="translate(21.1 20.15)"/><path d="M-11.85-4.8q-1.8-1.4-3 .8l.9-1.4q1.15-1.2 2.55-.25l-.45.85" fill="#d1ea68" transform="translate(21.1 20.15)"/><path d="m-9.5-7.4-.9.6q-1.2-1.15-3.55.5l-2.1 1.85q-.15-.95 1.15-1.95.65-.5 1.3-.8 2.5-1.75 4.1-.2" fill="#a4f4ea" transform="translate(21.1 20.15)"/><path d="m.5-6.5-2.1.1-1.65.7-1.25.9-.35.35-.35.25-.6.3-.6.2h-.85l-.55-.4-.15-.85.8-1.4.6-.6.65-.35.45-.15.5-.3-1.35-3.5 2.2-.5q1.4-.15 1.9 1 1.65 1.05 1 2.1-.5 1.8-3.75 1.3l-1.15.7q-1.2.85-1.4 1.85l.25.45q.3.4.8.25 1.4-.65 2.15-1.4l2.45-1.3 1.75-.15q2 0 3.25.7l.65.3q.65.5.5 1.45Q4.15-.4.8.3L0 .35Q1.3.15 2.55-1q1.2-1.3 1.35-3.15L3.7-5.5 2.8-6 .5-6.5" fill="#04352d" transform="translate(21.1 20.15)"/><path d="M-1.65-10q1.3 1.75-1.5 2.45-1.25.15-1.9 0-1.85.3-2.65 2.3l-.05.75q.15.75 1.05.7 1.45-.25 2.8-1.7l1.3-.8q1.7-.75 3.65-.35 4.9.4 2.6 3.9Q1.75-.5.95-.2L.5.15l-1.5.1V-.2q.2-5.7-4-2.4-1.75 1.2-3.65 1.2-2.25-.15-1.35-4.1 1.05-1.85 2.3-3l.3-1.05q.45-1.1 1.15-1.45l1.5-.25q1.8 0 3.1 1.25" fill="#0fd3c0" transform="translate(21.1 20.15)"/><path d="M-3.25-10.2q-1.1.5-2.05-.25v-.4q.25-.4 1.45-.45 1.5.25.6 1.1" fill="#032621" transform="translate(21.1 20.15)"/><path d="M4.15-5.2Q4.4-1.15.85.1L.4.15Q4.2-1.8 1.5-4.7q-2.05-1.8-5.3.25-2.1 1.7-3.75 1.75-2.65-.3-.6-3.6l1.95-2.1.75.75.4.1-1.2.75Q-7.8-5.7-7.6-4.35q.55 1.45 2.85-.55l1.45-1q1.75-.95 3.4-.75l1.75.2q1.8.4 2.3 1.25" fill="#8bd111" transform="translate(21.1 20.15)"/><path d="M-7.05-10.25-7.7-8.5q-2.2 2.45-2.4 3.55-.8 3.4 1.75 3.6 1.2.1 2.75-.9 1.7-1.3 2.7-1.4 2.35.1 1.9 3.9-.35-3.55-2.1-3.5l-1.65.75q-2.5 1.7-3.4 1.4-3.75.05-2.15-4.2l2.35-3.35q1.4-3.7 2.55-2.5-.7-.05-1.25.45l-.4.45" fill="#04352d" transform="translate(21.1 20.15)"/><path d="M-4.95-7.35q-1.1-.4-1.45-1.4l.7.8q.65.5 1.4.55l-.65.05" fill="#04352d" transform="translate(21.1 20.15)"/><path d="M1.15-4.9q1.05.6 1.35 1.85l-.3.35Q1.1-5.5-1.05-5.05-2.8-5.15-4.8-3.5q-1.65 1.6-3.45.85-2.5-.95.6-4.55 1.1-1.05 1.25-1.55l.2.5-1.05 1.05-1.05 1.35q-1 1.5-.45 2.55.85 1.6 3.8-.35L-3.4-4.7q1.9-.95 3.55-.6l1 .4" fill="#547707" transform="translate(21.1 20.15)"/><path d="M3.5-4.2Q1.8-6.3-1.05-6q-1.85 0-4 1.95t-.15-.15l1.05-1q1.25-1.05 2.2-1.25l2.75-.1q2.8.3 3.3 2l-.6.35" fill="#d1ea68" transform="translate(21.1 20.15)"/><path d="M-1.95-4.15q1.7.1 2.5 2.1l-1.5-.2Q-1.35-4.2-3.1-3.9l1.15-.25M-2.3-8.3Q-5-6.75-6.15-9.15l.35-.2q-.05 1.5 3.5 1.05" fill="#a4f4ea" transform="translate(21.1 20.15)"/><path d="M7.1-6.95q2.6-2.5-.35-3.65-1-.6-2.7-.6l-1.55.1q-.75.15-1.3.8l-.45.65q-.05 1.35.9.25.25-.8.85-1.15l.5-.25q.95-.15 1.45.7 2 .7.65 2-.8 2.65-3.75 2.25-4.25-.7-3.25-5.25 2.65-4.95 7.85-3.45 3.75.4 5.1 3.5L11-9.1q0 2.45-2.35 3.85L6.3-3.8q-.7.6-.35 1 .2.2.5.3l2.05.85q1.15.9.85 2.05-.2 1.7-1.9 2.05L2.4-.15q-1.2-1.4.1-3.05l1.6-1.35q1.7-.8 3-2.4" fill="#04352d" transform="translate(21.1 20.15)"/><path d="M8.05-7.2q2.5-3.75-2.7-4.15-2.9-.4-4.3.7L.25-9.5q.45 1.65 1.8.2.15-1.2 1-1.3l.8.15q3.25 3.55-1.8 4.3-4.6-.2-3.75-4.6 2.5-4.6 7.2-3.65 3.75.2 5.2 3.75 0 4.7-3.5 5.85-1.85 1.1-1.65 1.9.1.4.55.55 1.25.25 2.3 1.05 1.75 2.05-.8 3.35L3.15-.15Q1.45-1 2.55-2.7 3.1-3.55 4-4.25 5.75-4.6 8.05-7.2" fill="#0fd3c0" transform="translate(21.1 20.15)"/><path d="M8.15-7.6q1.15-2.25-.6-2.95-1.55-.95-3.65-.9l-1.85.3Q.95-10.6.6-9.75L.5-9q-1.2-1.65.75-2.75l2.25-.8q4.9-.45 5.55 2.7 1.1 3.05-3 5.05Q1.9-1.9 4.65.55q-3.4-1-2.2-3.1L4.3-4.5q1.6-.4 3.85-3.1" fill="#8bd111" transform="translate(21.1 20.15)"/><path d="M.3-9.2H.2q-.85-1.45.85-2.55l1.9-.75Q8-14.05 9.1-9.8q.6 3.45-3.25 5.1Q2.1-2.4 4.7.55q-2-1.05-1.55-3L4-4.25q3.1-1.05 4.15-3.6 1.3-2.75-3.05-3.55-2.45-.2-3.9 1L.3-9.2" fill="#8bd111" transform="translate(21.1 20.15)"/><path d="M0-10.65Q.15-8.4 1.1-8.6q-1.6.8-1.1-2.05" fill="#04352d" transform="translate(21.1 20.15)"/><path d="M4.2-9.85q.65-.15.9.35.55 1.05-.4 1.45Q3.4-8.3 3.65-9.1l.55-.75" fill="#032621" transform="translate(21.1 20.15)"/><path d="M9.45-8.55q-.65 2.7-3.15 3.9-1.05.7-1.75 2l-.5 1.2-.3-.05q-.1-.95 1.15-2.25l1.3-1.1q2.7-1.4 3-3.8-.15-3.1-2.15-3.8-5-1.05-6.85 1.5 1.25-3.1 6.7-1.75 2.6.6 2.55 4.15" fill="#547707" transform="translate(21.1 20.15)"/><path d="m3.05-11.45-2.1 1-.7.95q-.1-1.8 2.1-2.55l2.25-.4q4.5.85 4.05 3.6-.05-.9-1.1-1.7-1.95-1.6-4.5-.9" fill="#d1ea68" transform="translate(21.1 20.15)"/><path d="m4.15-12.75-.75.65q-.6.7-.15 1.15l.05.2-1.15.4-.55-1.15q-.35-1.3.75-1.8h.3l-.2.9 1.5-.6.2.25" fill="#f45888" transform="translate(21.1 20.15)"/><path d="m2.5-10.45-.6-1.1q-.35-1.15.7-1.45l-.15.9q.45.3.2.1l1.25-.8-.75.7q-.6.85 0 1.3l-.65.35" fill="#f484bd" transform="translate(21.1 20.15)"/><path d="m2.25-1.8.55-1.05q.7-1.1 1.75-1.45L7-5.9 4.7-3.95 3.45-1.7l-1.2-.1" fill="#d1ea68" transform="translate(21.1 20.15)"/><path d="M4.2-7.5q-2.7 2.75-5.25-.4-.9-2.05-.15-3.25l.85 3q1.4 2.5 4.25.3l.3.35M7.8 0q0-1.1-1.7-2.1 3.15.9 2.5 2.9L7.8 0" fill="#a4f4ea" transform="translate(21.1 20.15)"/><path d="M-.6 8.4q-3.3-3.75-8.25-1.9-2.5.9-4.35 2.55-.1-1.3 1.85-4.4l2.15-3.1q4.7-4.2 11.95-2.75 3.6.75 6.3 2.35 2.5 2.9 4.5 10.15L12 10.05Q8.15 5.15 3.4 6.3 1.9 6.65.5 7.55-.2 8-.6 8.4" fill="#101010" transform="translate(21.1 20.15)"/><path d="M-.4 7.55Q-2.75 4.5-7 5.2q-2.15.4-3.8 1.35l-1.8 1.6 4.35-6.5Q-3.2-1.65 3-.3q3.1.65 5.15 1.95 1.65 1.25 4.4 7.7L11 8.15Q6.75 4.2 2.75 5.45q-1.25.4-2.3 1.3l-.85.8" fill="#cbd1d0" transform="translate(21.1 20.15)"/><path d="M-.6 6.95q-2.8-3.55-7.4-2-2.25.8-4 2.25l4.05-5.4q2.7-1.9 7.6-2.15l10.6 7.55L7.5 5.45l-5.8.15-2.3 1.35" fill="#79918c" transform="translate(21.1 20.15)"/><path d="M7.25 1.65Q5.8 1 2.95.75L.15.55l-1.5-.85q4.7.1 8.6 1.95" fill="#79918c" transform="translate(21.1 20.15)"/><path d="M-4 1.3h-.2l-1.6.7-1.9-.45Q-1.6-1.05 2.4.2l-4.3.35-2.1.75M6.05 4.95q-2.3-.2-4.7.75l-1.95 1-.9-1.3q2.9-1.35 7.55-.45" fill="#445652" transform="translate(21.1 20.15)"/><path d="m3.3.4 2.3.55q2.35.7 2.65 1.25l3.4 6.2q-5-7.2-8.4-7.75L3.3.4" fill="#dae5e3" transform="translate(21.1 20.15)"/><path d="M-7.7 1.8Q-6.25.7-4.25.4L-.6 6.7q-3.2-3.3-7.65-1.75-2.2.8-3.75 2.25l4.3-5.4" fill="#445652" transform="translate(21.1 20.15)"/><path d="M-.65 5.85q-2-.35-2.5-1.85l-.15-1.45Q-3.25.9-1.9.1l1.35-.45q3.85 0 2.9 4.1-.6 2.3-3 2.1" fill="#0e2b1f" transform="translate(21.1 20.15)"/><path d="M2.65 2.75Q2.9 5.7-.45 6l-.2-.5Q2 5.25 1.9 2.05 1.3.05-.4 0l.2-.3q.55-.15 1.5.4 1.35.8 1.35 2.65" fill="#010f0a" transform="translate(21.1 20.15)"/><path d="M-.4 0Q2 0 2 2.7T-.4 5.4q-2.35 0-2.35-2.7T-.4 0" fill="#0bf7ad" transform="translate(21.1 20.15)"/><path d="M1.5 1.75q-.15-.4-.8-.65L.05.95q-.7-.1-.8.65l.1.75v.25l1 1.3-1.2.45.4.9q-1.1-.05-1.65-1l-.3-.95q-.15-1.7.95-2.55Q-.9.3-.35.2q1.4.15 1.85 1.55" fill="#076d48" transform="translate(21.1 20.15)"/><path d="M1.85 1.35Q2.4 3.9-.05 5l-.4-.35q-.25-.4.6-.65.95 0 1.7-2.65" fill="#fff" transform="translate(21.1 20.15)"/><path d="M-2.2 2.55q.3-1.1 1.15 0l.85 1.3-1 .45.35.85q-.95-.65-1.25-1.7l-.1-.9" fill="#042318" transform="translate(21.1 20.15)"/><path d="m-3.45-.9 1.1-.95q-.5.55-.8 1.85l1.3 3.2q.1 3-1.25 3.15-3 1.85-4.85-.95l-.8-.4.5-1.3.2-.05q3.7.6 3-1.05l-2-2.35L-5.5 1.7l.65-.95 1.4-1.65" fill="#04352d" transform="translate(21.1 20.15)"/><path d="m-4.3-.95 1.65-.65-.25.55q-.8.95.15 2.3 1.25 2.7.4 3.45-1.85 3.15-5.2.8l-1.25-.6.55-1.2 2.6.55q1.5-.45.9-2L-6.3.85q.3-.95 2-1.8" fill="#0fd3c0" transform="translate(21.1 20.15)"/><path d="M-3.2.25q1.75 3.95.7 5-2.85 2.6-5.05.25-.45-.65-1.7-.65l-1.15.1 2.3-.4q3.4 1.4 3.65.6 2.25-.5 1.25-4.9" fill="#8bd111" transform="translate(21.1 20.15)"/><path d="m-2.65-1.65.8-.45-1.3 2.1.4.95L-3.3.4q-.15-1.35.65-2.05" fill="#04352d" transform="translate(21.1 20.15)"/><path d="M-3.3.4q.95 2.05.1 3.75-1 2.25-3.6.9-1.5-.6-2.6-.4l.15-.1 2.9.2q.75.35 1.55 0 1.5-.7 1.5-4.35" fill="#547707" transform="translate(21.1 20.15)"/><path d="M-2.2 3.55q-.25 2.95-3.55 2.7l-1.3-.65Q-4.3 6.85-2.2 3.55" fill="#d1ea68" transform="translate(21.1 20.15)"/><path d="m-3.9-1.1-.9.75-.6.95q-.2.65.8 1.4-.5.05-1-.65l-.45-.7q.15-.8 1.3-1.4l.85-.35m22.05-10.15-.3.5q-4.2-.2-4.65 2.25-.25 1.2.35 2.45-.7-.45-1.1-1.5l-.25-.95q.45-3.55 5.95-2.75m-3.5 8.15q-.5 3.75-4 2.2 1.3.35 4-2.2" fill="#a4f4ea" transform="translate(21.1 20.15)"/><path d="m-7.35-10.35-.5 1.25-.9 1.2q0-.7-1.45-.7l1.05-.05.15.05v-.7q-.05-.95 1.65-1.05" fill="#0b9b89" transform="translate(21.1 20.15)"/><path d="M-3.25-3.7-1-2.5l-.85 1L-.5.1l-.75.1Q-1.8-.6-2.3-.7l-.4.05q-.45.6-.05 1.6 1.45 3.2.25 4.3-1.55 2.35-4.1 1L-8.75 5q-1.9-.4-2.5 0l-.25.95.55.6 1.3.2q1.1 1.95-.8 2.1l-1.75-.1-2.55-2.4q-.95-.55-.5-1.55l.6-.9q2-1.8 4.6-1Q-6.4 4.25-5.8 3.95q1.3-.25.75-1.6-1.2-.75-2.1-2.15l-.65-1.25.9-.3q1.1-.5.95-.5H-7.7l1.75-.55 2.7-1.3" fill="#04352d" transform="translate(21.1 20.15)"/><path d="M-4.05-3.45Q-.2-4.95-1.1 0l-1-.9Q-3.15-1.45-3.2.25l.6 3.55q-.3 3.25-4.8 1.85-1.25-1.8-3.15-.55l-.25.7q-.1.8.75 1.2 1.3 1.2-.5 1.5-.7.9-2.15-.35-.1-1.6-1.1-1.6-1.85-.4-1.1-2 1.3-1.75 3.65-1.6l3.75 1q3.55 1.25 2.75-1.7Q-7.7.45-7-1.75q2.65-1.35 2.95-1.7" fill="#0fd3c0" transform="translate(21.1 20.15)"/><path d="m-10.7 5.4.35-.45q.6-.45 1.85-.45l2.25.85q4 .8 3.55-3.5Q-.8 5.1-4.4 6.3q-1.1.45-3.15-.8-1.05-1.6-3.15-.1" fill="#8bd111" transform="translate(21.1 20.15)"/><path d="M-14.5 6.25q2.55 0 2.05 1.9-2.6.2-2.05-1.9m3.95-1.3v-.1q2.35.8.35 2.25-1.35-.45-1-1.35l.65-.8" fill="#032621" transform="translate(21.1 20.15)"/><path d="m-4.2-2.9 1.75-.25.75.55q.75.85.6 2.6l-.75-.7q-1.2-1.9-3.2-.55l-.85.75q-.85.85-.65 1.2-.8-1-.5-2 1.65-.6 2-1.05l.85-.55" fill="#0b9b89" transform="translate(21.1 20.15)"/><path d="m-10.65 9.15 1-.55.3.25q.85-.2.6-1.6l.35.2q1.35 1.15.3 1.9l.75.15q-2.85 1.85-3.3-.35" fill="#f45888" transform="translate(21.1 20.15)"/><path d="m-10.5 9.1.75-.3q.5 1.05 1.45-.85l-.2-.3.3.3q.7.8-.3 1.4l.65.25q-1.9 1.15-2.65-.5" fill="#f484bd" transform="translate(21.1 20.15)"/><path d="M-10.95 3.3q-3.4.5-3.6 2.8l-.25-.9q.45-1.3 2.2-1.75l1.65-.15" fill="#a4f4ea" transform="translate(21.1 20.15)"/></g></defs></svg>