<svg xmlns:xlink="http://www.w3.org/1999/xlink" height="92.9" width="100.7" xmlns="http://www.w3.org/2000/svg"><use height="35.85" transform="translate(15.25 38.55)" width="44.7" xlink:href="#a"/><defs><g id="a" fill-rule="evenodd"><path d="M15.9 11.1q1.05 1.35 1.15 2.2l.1 3.9q0 3.45-1.05 3.45-.9 0-.9-4.65-.1-2.7-2.15-4.6V9.6l.5-.05q1.15 0 2.35 1.55m.5 5.1.15-.05q-.3-4.6-2.9-5.85l2 3.2q.75 1.2.75 2.7m-28.2-8.85v.45q0 2.7-1.85 5.05l-.65 2.8q-.5 2.05-1.2 2.05-.9 0-.9-.8 0-1.95 1-4l-.15-.35.95-1.5.95-2 1.25-2.1q.5 0 .6.4" transform="translate(23.4 11.2)"/><path d="m-20.25 14.2.2 2.45q-.55.5-1.65.2-1.15-.3-1.7-1.1 2-.1 3.15-1.55" fill="#3a2821" transform="translate(23.4 11.2)"/><path d="M9.1-.7q3.05 0 4.3 3.7.2.6 1.5.9 1.4.35 1.8 1.25.3.75.15 2-.15.95.6 1.7 2.65 2.65 1.65 3.9-.5.65-.15 1.8l.7 2.25.4 2.3q.1 1.2-.7 2.3-.8 1.05-.15 2.1.3.5.75.8-2.4-1.1-3.5-1.75L13 22.5q5.4-3.5 2.9-4.9-1.55-.9-1.6-2.4l.35-2.4q-.8-6.25-9.7-7.5-3.15-.4-10.35.1-6.7.5-7.85 2.8-.35 2.95-1.6 4.55-.95.65-1.05 1.65-.05 1.05.75 1.6 3.15 2.25.55 4.3-.95.75.45 1.7 1.25.95 2.35.8-1.4 1.15-3.2.6l-1.5-.75-3.1 1.7-.6-1.4q-.45-1.55.2-2.35 1.1-1.2.05-3.3-1.05-2.15-.35-3.1.7-.9.55-2.7-.1-1.7 1-2.9.95-1 1.2-2.5.2-1.35 1.7-2.65 1.05-.9 1.55-2.55.35-1 2.9-1.75 2.15-.6 3.25-1.95.85-1 3.05-1.1l2.15.5 2.25.3 2.9-.5q1.45-.15 2.6.65L6.85-1.3q.9.6 2.25.6" fill="#3a2821" transform="translate(23.4 11.2)"/><path d="M1.15-2.55q2.05-.45 3.2.3l1.2.95Q7.15.15 9.1.15q2.3 0 3.5 3.1.4 1.1 2 1.45 1.05.2 1.3.8l.2.8-.15 1.25q0 .95.9 1.9 1.7 1.7 1.7 2.4l-.1.35q-.5.65-.5 1.4 0 .7.4 1.8l.45 1.5.2 1.15.2 1.3q0 .8-.55 1.55t-.55 1.55l-1.25-.6-1.3-.25q1.85-1.75 1.85-3.05v-.05q0-1-1.05-1.65-1.2-.7-1.2-1.8l.2-1.4.2-.85-.05-.1Q14.2 2.55-4.85 4.5l-.6.05q-5.35.4-7.3 1.8-1.4 1-1.85 3.45-.3 1.65-.9 2.4-1.15.9-1.25 2.35v.05q0 1.3 1.1 2.1 1.35.95 1.35 1.7 0 .55-.85 1.25-.65.5-.65 1.3l.15.6.8 1-1.1-.55-.45-.35-2.8 1.55-.35-1.4.2-.6q.8-.95.8-2.05 0-1-.75-2.4l-.5-1.5.2-.5q.75-1.1.75-2.4L-18.9 11q0-1 .75-1.8 1.15-1.15 1.4-2.8.2-1.2 1.45-2.3 1.35-1.15 1.75-2.7.25-.8 2.4-1.4 2.45-.75 3.6-2.15.65-.8 2.5-.9l1.65.35q1.3.6 2.75.45l1.8-.3" fill="#724e47" transform="translate(23.4 11.2)"/><path d="M-16 11.35q.1 1.05-1.9 3.45-.5 1.4 2.55 3.2.5.95-.35 1.6l-.8.85 1.55 2q-1.8-.5-2.2-2.05-.2-.8.75-1.2.85-.45.6-.95l-1.7-1.35q-1.2-.9-.95-2 .2-.85 1.2-2.05.8-1 .65-1.8-.55-2.7.15-3.3-.55 1 .45 3.6" fill="#ac7265" transform="translate(23.4 11.2)"/><path d="M-22.1 16q2.15-.55 2.75-1.95-.5 1.45-.4 1.85l-2.35.1" fill="#724e47" transform="translate(23.4 11.2)"/><path d="M16.2 12.05q.7.55.9 1.45.2 1-.45 1.4-.7.55 1.2 2.15.45.4.1 1.65-.4 1.35-.05 1.8.7.9-.2 1.75l-2.15-.65q1.55-1.25 1.8-2.5.3-1.4-1-2.25l-.7-.45q.45-3.55-1.25-6.9l1.8 2.55" fill="#563228" transform="translate(23.4 11.2)"/><path d="M-18.25 17.9q-1.75-1.7-1.45-2.95 1.7-2.4 1.7-3.6.15.35-1.2 3.6-.25.6 1.4 2.5 1.25 1.55-.95 3.65-.6.55-.4 1.25l.35.65-.4.2q-.45-1-.15-2 2.2-2.2 1.1-3.3" fill="#ac7265" transform="translate(23.4 11.2)"/><path d="m-21.15 15.75 1.7-1.25-.15 1.2-1.55.05" fill="#ac7265" transform="translate(23.4 11.2)"/><path d="M20.75 18q1.15 3.6-.1 5.5-.55.8-1.35.8-1.3.1-2.7-1.55-1.4-1.65-2.1-4.1-.7-2.2-.45-3.95l.4.65q-.1 1.5.4 3.1 1.55 5.6 4.4 5.5 1.15-.05 1.55-1.75.4-1.7-.25-4-1.5-5.4-4.3-5.5l-.2-.4q3.05 0 4.7 5.7" transform="translate(23.4 11.2)"/><path d="M16.45 13.85v-.35q2.05.2 3.4 4.6 1.45 4.6-.65 4.6-2.1-.1-3.55-4.65-.35-1.05-.45-2.4l.4-.1q0 1.1.4 2.3 1.35 4.35 3.35 4.45.25 0 .4-.2.85-1.05 0-3.8-1.3-4.15-3.3-4.45" transform="translate(23.4 11.2)"/><path d="M20.55 18.2q.65 2.3.25 4-.4 1.7-1.55 1.75-2.85.1-4.4-5.5-.5-1.6-.4-3.1l.7.3h.05q.1 1.35.45 2.4 1.45 4.55 3.55 4.65 2.1 0 .65-4.6-1.35-4.4-3.4-4.6l-.2-.8q2.8.1 4.3 5.5" fill="#ffb800" transform="translate(23.4 11.2)"/><path d="m-15.6 13.3-.1-.55q3.1 1.95 1.2 7.3-1.1 3.3-3.45 4.4l-2.45.2q-1.6-.65-2.05-2.8-.5-2.2.4-4.7 1.1-3.35 3.5-4.45l1.35-.3-.3.45q-2.85.45-4.3 4.45-.85 2.35-.45 4.35.45 2.05 1.9 2.6 1.5.55 3.1-.75 1.7-1.25 2.5-3.6 1.7-4.65-.85-6.6" transform="translate(23.4 11.2)"/><path d="m-15.95 14.65.05-.2q1.35 1.85.25 5.05-.65 1.95-2 3-1.35 1.1-2.5.6-1.15-.45-1.5-2.1-.3-1.7.35-3.65 1.2-3.55 3.7-3.75l.05.4-.9.2q-1.7.8-2.7 3.25-.65 1.75-.35 3.35.3 1.55 1.35 1.95l1.45-.15q1.8-.75 2.7-3.25 1.25-3.2.05-4.7" transform="translate(23.4 11.2)"/><path d="M-15.9 14.45q.35-.45.35-1l-.05-.15q2.55 1.95.85 6.6-.8 2.35-2.5 3.6-1.6 1.3-3.1.75-1.45-.55-1.9-2.6-.4-2 .45-4.35 1.45-4 4.3-4.45l-.15.6.05.15q-2.5.2-3.7 3.75-.65 1.95-.35 3.65.35 1.65 1.5 2.1 1.15.5 2.5-.6 1.35-1.05 2-3 1.1-3.2-.25-5.05" fill="#ffb800" transform="translate(23.4 11.2)"/><path d="m-15.55 15.15.35-.05.8.05q.6 2.3-.35 4.75-1.2 3.4-3.7 4.3l-1.35-1q2.7.45 4.15-3.7.85-2.5.1-4.35" fill="#ffff38" transform="translate(23.4 11.2)"/><path d="m-14.55 17.85.3.15-.5 1.9q-.65 1.95-2.05 3.25-.45-.25-.95-.55 1.35-1 2.1-3.1.35-1.1.4-1.9l.7.25" fill="#ffffca" transform="translate(23.4 11.2)"/><path d="m19.5 22.6-1.05 1.2q-1-.4-1.9-1.7l.8-.75q.95 1.3 1.85 1.35l.3-.1" fill="#ffff38" transform="translate(23.4 11.2)"/><path d="M10.25 4q1.65 1 1.55 1.75l-.45 1.2 1.7 1.65q1.75 1.25 1.7 2.6 0 .75-1.6 2.05-1.35 1.1-.95 1.6 2.85 3.15-2.7 3.4 2.8-.7 1.2-2.65-1.85-2.2-.3-3.15 2-1.2.65-2.05-2.1-.8-2.6-1.35L7.35 6.8q1.1 2.7-1.3 3.7-1.7.65-1.4 2.15.25 1.4 1.75 2.2-1.7-.1-3.05-1.2-1.45-1.2-1.15-2.5.2-1 1.5-2Q4.8 8.3 4.7 8q-.05-.2-1.8-.65-1.6-.4-1.7-1.65-1.4 0-2.8.8-1.45.85-1.2 1.7l1.7 2.05q1.25 1.5.5 3.05-1.15 2.55-2.5 2.5 2.45-1.9.8-3.55l-2.6-1.7q-1.65-1.15-1.3-2.5.2-.85 1.15-2.1.35-.45-.85-.55-1.5-.1-3.15.95-1.6 1.05-1.55 2l2.25 1.35q1.95.95 1.35 2.75-.3.85-2.4 2.15-1.9 1.15-1.75 2.15.2 1.85 1.4 2.95-3.8-1.1-3.25-3.7.3-1.35 1.65-2.45 1.15-1 1.1-1.65-.05-.4-2.4-1.1-2.1-.6-1.3-2.7 1.05-2.85 3.6-3.9Q-7.5 3-.55 3.05l6.3-.1Q8.55 3 10.25 4" fill="#3a2821" transform="translate(23.4 11.2)"/><path d="M11.85 3.45q.75.4.25 1.5l-1.6 2V7q0 .8 1.55 1.95 1.85 1.25 1.85 2.2v.05l-1.25 1.35q-1.35 1.1-1.45 1.85l.35.95-.4-.5-.8-1.25.45-.4q1.7-1.05 1.7-2.05 0-1.15-2.2-2l-1.6-.9q-.95-.65-1.65-2.4l.1 2.35q-.3 1.05-1.4 1.5-2 .8-2 2.6l.1.65-.5-.5q-.35-.4-.35-.9v-.25q.2-.7 1.4-1.6 1.15-.9 1.15-1.6l-.05-.35q-.25-.8-1.8-1.1-1.6-.35-1.65-1L2 4.85h-.8q-3 0-4.5 2-.35.5-.35 1.1l.05.55 1.15 1.5q1.3 1.4 1.3 2.1l-.1.25-.45-.7q-.45-.4-1.65-1.1-2.05-1.25-2.05-2v-.3l.9-1.6q.45-.55.45-1l-.1-.4q-.25-.6-1.65-.7-2.55-.2-4.7 1.85-.95 1.05-.95 1.9l.05.1q.05 1 1.9 1.7 1.8.8 1.8 1.5l-.1.55q-.2.55-1.8 1.55-2.45 1.5-2.45 2.85l.15.85-.3-.9.05-.3q.2-1.05 1.45-2.1 1.3-1.1 1.3-2.05v-.25q-.15-1.2-2.3-1.65-1.4-.35-1.6-.65l-.05-.25.2-.85.45-1.4-.15-1.35q2.05-3.05 12-3.3l9.75.6v.1h.75q1.6 0 2.2.4" fill="#724e47" transform="translate(23.4 11.2)"/><path d="M-10 2.75q-.15.9-1.45 1-1.8.1-1.15 2.85l-.3 1.25q-.3 1 .25 1.7.5.65 1.3.7-2.25-.1-2.25-1.35.8-2 .3-3.1-.4-.85.2-1.85.6-1 1.65-1 .6 0 .65-.9.05-1.15 1.2-1.7 2.15-1.05 3.2-.8-2.7.25-3.5 1.75l-.1 1.45m6.2-2.9q-.6.6.2 1.05 1.45 1 .05 1.45-2.2.7-.6 1.65 1.7 1.1.6 2.25-2.15 2.3.3 3.7 2.55 1.4 2 2.4-.2-.7-2.3-1.9-2.85-1.65-.7-4.3.8-1 0-1.65l-1.15-1q-.25-1.1 1.55-1.4 1.2-.25-.05-.95Q-5 .6-4.15-.05l1.1-.55-.75.45m6-.85q1.75-.1 2.05.65.3.65-.7.95-1 .3-.9.5.15.3 2 .9 1.5.5 1.1 1.15-.35.6-1.9.7-1.3.1-1.4 1.2-.05.7 1.65 1.15 1.8.45 1.9 1.45.1 1-.85 1.95L3.8 10.7q-.5.7-.25 1.5l.3.7-.65-.75q-.55-.9.25-1.7l1.6-1.35q.6-.6.45-1.35-.1-.65-2.05-1.15Q1.75 6.15 2 4.85q.25-1.4 1.55-1.45l1.7-.25Q5.6 2.7 4.1 2.3q-1.8-.45-2.05-1.15-.25-.7 1.1-1 1.2-.25.8-.6Q3.4-.95 1.9-.9L.5-.8 2.2-1" fill="#ac7265" transform="translate(23.4 11.2)"/><path d="M12.3 10q.95 1.6-.85 3.3-.75.7.05 1.65.95 1 .5 1.85.25-.55-.85-1.95-.8-1.05-.75-1.3 0-.15.9-.8 1.75-1.25.8-2.55L9.75 8.7q-1.6-1.15-.55-2.5 1.95-2.35.1-2.7-3.5-.65-2.7-1.85.4-.5-.15-1.05-.5-.45-1.2-.5Q6.1 0 6.7.65q.55.6.3 1.05-.1.15 2.95 1.6 1.55.75-.3 3-.8 1 .6 2.1L12.3 10" fill="#ac7265" transform="translate(23.4 11.2)"/><path d="M6.15 9.55q.55-.3.55-1.75-.05-1.5-.85-1.95-2.1-1.1-1.45-1.35 1.95-.9 2.1-2 .25.75-.75 2.15-.15.2.35.4.7.3.95 1 .95 2.7-.9 3.5M-1.45.7q.85.4.9.8.05.55-.95 1.75-.25.3.6.35 1.05 0 1.15.5.1.35-1.6 1.35l-1.6 1L-1.3 4.5q.25-.3-.45-.55-.75-.3-.75-.7 0-.4.75-.85.65-.4.5-.9Q-1.4 1-2.1.7q-.5-.3-.3-.55l.95.55m16.3 6.05.3 1.2q.45 1.2 1.15 1.5 2.55.9 1.6 2.6-.9 1.85-.35 2.45 1.45 1.45.6 2.5-.75.8.35 1.85.9.9-.5 2.9 1.1-1.9.3-2.45-2.05-1.35-.65-2.4 1.2-.85-.35-1.85-.55-.4-.55-1.5.05-1 .45-1.55 1-1.45-1.15-2.15-.8-.2-1.1-1.7l-.1-1.4M-7.4 1.35q.35.55 0 .75-1.65 1.1-1.55 1.3.55 1.5-.7 2.1l-1.75 1.8q.3-1.05 1.5-2.25.45-.45.35-.95l-.1-1.05q.1-.5.9-.85l1-.4q.1-.1-.1-.7-.2-.55.15-.6-.15.2.3.85" fill="#563228" transform="translate(23.4 11.2)"/><path d="M-12.65.85q-.55 1.7-1.05 2.5l-1.45 1.4q-1.05.95-1.15 1.5-.2 1.95-1.3 2.9l-1.3 2.9.05-1.05q.2-1.2.9-2 .4-.45 1.25-3.25.1-.55 2.15-2.45.9-.8 1.35-2.55l2.25-.85q-1 .4-1.7.95" fill="#ac7265" transform="translate(23.4 11.2)"/><path d="m16.65 7.65.55.55q.8.45 2.2-.35-.6 1.55-1.55 1.65-1.15-.75-1.2-1.85" fill="#3a2821" transform="translate(23.4 11.2)"/><path d="m15.95 7.55.25.65q.35.6 1 .65l-.8.3-.45-1.6" fill="#724e47" transform="translate(23.4 11.2)"/><path d="M3.55-10.95q4.45.85 6.8 5.5 1.75 3.5 1.7 7.05-3.85-.5-10.15.95l-9.95 2.3-2.1-3.05q-1.2-2.4-.3-5.35 1.1-3.4 4.3-5.6 4.1-2.8 9.7-1.8" fill="#2d3030" transform="translate(23.4 11.2)"/><path d="M1.9 2.55Q8.2 1.1 12.05 1.6l-.2 1.45 3.6 4.6q1.55 2.5-2.15 1.7-4.65-1-9.8 1-4.9 1.85-5.7 1.55-1.7-.65-3.55-3.05-1.6-2.05-2.1-3.55l-.2-.45 9.95-2.3" transform="translate(23.4 11.2)"/><path d="M-9.75-3.75Q-8.45-8.3-2.9-10q6.15-1.9 10.55 2.25 4 3.85 3.3 11.1l2 2.45q1.8 2.25 2.05 2.85l-1.55-.2Q7.9 7.3 1.55 10.3q-2.5 1.1-3.45.75-1.5-.55-3.2-2.75Q-6.55 6.4-7 5.05q-.25-.7-.95-1.5-2.75-3.7-1.8-7.3" fill="#fff" transform="translate(23.4 11.2)"/><path d="M3-6.7q4.7-.05 5.7 1.05 3.1 3.4 2.25 8.6-2.25-.8-6.7-.5-.8.05-5 1.4-3.5 1.15-6.4.7Q-5.55-3-3.7-4.95-2-6.65 3-6.7" fill="#a4a4a7" transform="translate(23.4 11.2)"/><path d="m3.7 2.95 2.25-.2 4.7.55 4.2 5.3-5.55-.55Q8.8 5.1 6.4 4q-2.45-.6-2.7-1.05" fill="#d7d7d9" transform="translate(23.4 11.2)"/><path d="M-.35-3.65 2.35-4 3 .15Q.85.2.25.6l.3 1Q.9 2.45-.75 3l-4 .7 2.65-1.85q-1.2.05-2.5-.5l-1-.55 2.2-.1 1.2-.35q-.85-.05-.9-2.9 0-.6 2.75-1.1" fill="#2d3030" transform="translate(23.4 11.2)"/><path d="m2.1-3.65.5 3.5Q.55 0 .05.35l-.25.4.25.65.25.5-.05.1q-.1.35-1.1.7l-2.35.6 1.3-1.05.5-.6-2.85-.5q2.25 0 2.5-.6.2-.35-.45-.7-.55-.95-.6-2.35.25-.7 4.9-1.15" fill="#fff" transform="translate(23.4 11.2)"/><path d="M3-4.15q5.5-.45 5.65.55.45 2.8-.45 3l1.25.15 2.2-.3Q10.3.6 8.35.9q.95.85 2.95 1.4-1.1.45-4.05-.05-1.7-.3-1.55-1.15L5.85.05H3.1L3-4.15" fill="#2d3030" transform="translate(23.4 11.2)"/><path d="M10.4-.15 7.65.8l.6.5q.45.45 1.45.85L7.3 1.9q-1.05-.15-1.25-.5v-.1l.1-.55L6.3.1 6-.25 3.4-.3l-.05-3.55 4.95.3q.25 1.4-.15 2.45l-.35.75 2.6.2" fill="#fff" transform="translate(23.4 11.2)"/><path d="M2.85-6.7q1 1.9 4.05 1 .2 5.95-3.35 8Q.6 1.25-.9-2.05l-.9-3.15q3.6.7 4.65-1.5" fill="#2d3030" transform="translate(23.4 11.2)"/><path d="M3-6q1.1 1.3 3.55.85Q6.55-.2 3.6 1.6-.15.25-1.15-4.75 1.7-4.3 3-6" fill="#fdf200" transform="translate(23.4 11.2)"/><path d="M3.75-5.45q1.1.6 2.85.3Q6.6-.2 3.65 1.6l-1.2-.55q2-2.5 1.3-6.5" fill="#ffb800" transform="translate(23.4 11.2)"/><path d="M1.85-3.4.1-3.75l2.5-.7.4 4.8Q1.25-.45.85-1l1.6-.05-.85-.8.75-.1-.8-.75.7-.1-.4-.6" fill="#2d3030" transform="translate(23.4 11.2)"/><path d="m2.85-1.6.45-.65q.85-.25.9-.9 0-.7-1-.75l-1 .1 1.45-.6Q5.2-4.55 5.2-3.1q0 1.35-1.35 1.4L4.9-1q.25.75 1 1.1-1.3.2-1.75-.6l-1.3-1.1" fill="#2d3030" transform="translate(23.4 11.2)"/><path d="M-9.85 10.85Q-7.5 12.65-10 14q-1.6.9-1.9 2.25v1.15l-.3-.9q0-1.2 1.7-2.6 1.95-1.65.65-3.05" fill="#ac7265" transform="translate(23.4 11.2)"/><path d="M-11.4 9.7q-1.05-.65-.9-1.7l.1-.25q0 .85 1.1 1.55 2.85 1.75 3.05 2.85-.15-.4-.8-.9L-11.4 9.7" fill="#ac7265" transform="translate(23.4 11.2)"/></g></defs></svg>