<svg xmlns:xlink="http://www.w3.org/1999/xlink" height="92.9" width="100.7" xmlns="http://www.w3.org/2000/svg"><use height="32.45" transform="translate(14.8 38.95)" width="48.15" xlink:href="#a"/><defs><use height="19.8" width="28.95" xlink:href="#b" id="g"/><use height="32.45" width="48.15" xlink:href="#c" id="h"/><use height="29.65" width="45.05" xlink:href="#d" id="i"/><use height="26.8" width="40.85" xlink:href="#e" id="j"/><use height="23.85" width="35.85" xlink:href="#f" id="k"/><path d="m2.35-6.15-2.25.2-1.25-1v1.3l-3.8 1.1-.55-1-.4 2.1-3.2.65.85 7.25-2.75-2.1q-.3 1.05.2 4.25.45 2.65.05 2.45-.85-.45-2.6-3.25-.05.75-.65 1.9l-.5-2.3q1.6-6.8 6.2-11.3 5.4-5.35 12.05-3.55Q9.8-7.85 12.7-.8q1.5 3.55 1.75 6.75l-.55 3.6q-.8 1.05-1-1.25-.15-2.35-4.4-10.2Q8.35 2.45 8 .85q-.2-.95-2.95-4.1l-2.7-2.9" fill="#8c5103" fill-rule="evenodd" transform="translate(14.5 9.9)" id="b"/><path d="M.15-13.5q.35 1.6.55 1.45l1.35-1.85q-.25.95.55 3.5.7 2.15 1.1 2.65.75 1.05 4.25 3.35l6.5 5.35q3.75 2.5 8.85 2.2-.15.9-2.35 2.2Q19 6.5 18.2 6.6h-1.05q-.4.15.15 1.15.8 1.65 6.8.95-.3 2.15-2.9 3.3-2 .8-1.75.95 1.15.65 4.2 1.2-1.95 3.35-8 1.35-.35-.05-.9-1.1-.5-1.05-.45-1.55.05-.8-2.3-6.05Q9.35.85 7.15-1.8 2.6-7.3-6.15-2.35-10.6.15-14.2 9.9l-.05 2.35q-.1 1.8-.55 1.95-3.9 1.4-7.9-.75 1.25-.6 4.4-2.55l-2.85-.3q-1.7-.55-2.9-4.1 1.15 1.8 4.85.85 2.05-.5 3.75-2.95 1.6-2.25 1.05-3l-2.05-5.7q.15.5 4.1 1.5 2.5.6 6.5-3.6.4-.45 3.25-5.75 2.5-4.7 2.45-3.95-.1.95.3 2.6" fill-rule="evenodd" transform="translate(24.05 16.2)" id="c"/><path d="M.55-10.2q.45-.1.85-2.45 0 3.5 2.1 5.7.85.85 2.7 1.8 1.8 1 3.3 2.5 5.25 5.35 9.55 5.95l2.9-.25-2.15 1.6q-1.4.7-3.3.5-1-.15-.85 1.1.45 4.5 6.9 2.65-1.85 2.9-4.5 2.3L15.8 10q.75 3.9 6.5 3.8-.85.8-2.7 1-1.85.15-3.05-.45-1.45-.8-2.2-2.6l-.45-1.7-.35 3.05q-.5-4.9-4.75-11.05L6.45-.9q.7 1.65 1.45 5-.6-1.55-5.75-6.8l-2.4.3-1.1-1.95-.4 2.25-3.1 1.2q-.15-2.6-.5-2.5L-6.7.15l-3 .95.85 6.8q-2.35-3-2.5-2.75-1.3 3.1.4 7.2-.8-.3-1.7-2.55l-.7-2.2-1.2 3.95q-1.05 2.3-6.7 1.4.55.1 5.15-2.75.5-1.3-1.6-.8-3.75.9-4.8-1.75.4.85 2.65.45 3.35-.6 6.1-4.75.95-1.45.2-3.2l-1.25-2.3q-.8-1.45-.15-.9.85.8 3.6.8 1.5 0 3.1-1.45l2.95-2.9q2.25-1.95 4.5-8.2-.05.6.5 2.6.55 2.05.85 2" fill="#e28d05" fill-rule="evenodd" transform="translate(22.5 14.8)" id="d"/><path d="M2.75-4Q2-4.9-.1-5.75q-.4-.15.75-.7l1.65-.2q.8.5 2.25 2.2l-.8-.1q-.85 0-1 .55m.7-2.5 2.45.45q1.65 1.1 2.35 1.9L5.8-4.4q-.9-1.15-2.35-2.1m9.75 9.2.9.45.55 1.6-.95-.15q.05-.7-.5-1.9m-.9-.2.6 2.2q-.85-.25-1.05-.65l-1.5-2.6L12.3 2.5M14.9.9 17.2 2l.75 1-1.95.1L14.9.9m1.4 7.4.35-.7 1.2.75-.2.5-1.35-.55m-1.1 2.5.65-.6 1.05 1.35-.3.4-1.4-1.15M.85-4.7l-.95.15-.25-.4L-.3-5l.5-.05.65.35m-4.3-.45 1.35.05-.05.75-1.05.05-.25-.85m-.7.3.35.7h-.1l-.65.4-.15-.9.55-.2M-7-2.6l-1.75.65 1.15-1.5.6-.15v1m-4.5 3.75.5-.6.65-.05.15 1.65-.75.7-.55-1.7m-.9 1 .1 2.25q-.3.95-.45.75l-.2-2 .55-1m-.8-3.95q0-1.2.35-1.25l1.55-.05-1.25 2.5-.65-1.2m-3.1 7.5 1.65-1.5-.15 2.1q-.45.5-1.65.95l.15-1.55m-.45 3.85 1.75-1.1-1.2 2.05-1.7.55 1.15-1.5M1-10.6l.35.05.3.55-.8-.05.15-.55m-3.2-1.15q.85-.45 1.55.35.45.4.5 1l-2.45-.3.4-1.05" transform="translate(17.9 11.9)" id="f" fill="#f9ebb2" fill-rule="evenodd"/><g id="a" transform="translate(24.05 16.2)"><use height="19.8" transform="translate(-14.55 -5)" width="28.95" xlink:href="#g"/><use height="32.45" transform="translate(-24.05 -16.2)" width="48.15" xlink:href="#h"/><use height="29.65" transform="translate(-22.45 -14.2)" width="45.05" xlink:href="#i"/><use height="26.8" transform="translate(-20.8 -11.9)" width="40.85" xlink:href="#j"/><use height="23.85" transform="translate(-17.85 -9.8)" width="35.85" xlink:href="#k"/></g><g id="e" fill="#f9ca03" fill-rule="evenodd"><path d="M-2.7-7.3q2.65-.95 5.4 1.25 4.35 3.5 4.75 7.2-1.2-1.9-3.3-3.75-4.2-3.7-8.5-3.4-.3.05.25-.5.55-.5 1.4-.8" transform="translate(20.45 13.4)"/><path d="M.25-7.8Q8.8-6.15 12.1 1.5q1.35 3.1 1.6 6 .5 1.2.05 1.35L13.7 7.5Q12.95 5.55 9.95.85 6.9-3.9 3.15-6.4L.25-7.8m-6.65 4-.25 1.35.05 1.3-2.25.6L-6.4-3.8m2.1-1.05q.65.3 1.2 2.05l-.85.3-.35-2.35m1.8 1.7-.75-1.95 1.45-.15q.25 0 .05 1.95l-.75.15m4.2-.7-1.3.1-.7-1.3 2 1.2M-.7-13.4.4-9.35q-.7-.95-3.15.5L-.7-13.4m1.95 4.2.25-1.6.85 1.95-1.1-.35M13.55.4l2.15 1.25q2.85 1.55 4.6 1.4-3 1.25-4.85.4L13.55.4m2.5 6.55q1.65 2.65 4.35 2.2-2.25 1.3-4.45-.85l.1-1.35m-.9 3.85.7-1q1.35 3.35 3.7 3.6-1 .1-2.65-1-1.5-1-1.75-1.6" transform="translate(20.45 13.4)"/><path d="M12.5.05q3.7 4.25 2.75 9.4Q13.05.8 12.5.05m-26.2-2.8 4.25.1q-1.05.5-1.9 2.15L-11.9.9q.15-.95-1.8-3.65m3.3 2.2 1-.85q-1.35 2.2.5 7.35-.95-.75-1.95-3.35-.65-1.65.45-3.15m-1.15 9.85-.65-2.75q-.75-3.8.2-4.75l.45 7.5m-8.9-1.55q4.25.3 7.05-4l-.5 2.55q-1.8 2.85-6.55 1.45m1.4 4.1 4.85-3.05q.5 2.7-4.85 3.05" transform="translate(20.45 13.4)"/></g></defs></svg>