<svg xmlns:xlink="http://www.w3.org/1999/xlink" height="92.9" width="100.7" xmlns="http://www.w3.org/2000/svg"><use height="32.85" transform="translate(23 43.95)" width="31.5" xlink:href="#a"/><defs><g id="a" fill-rule="evenodd"><path d="m11.35-.4.8 2.3 2.45 8.85q1.15 4.55 1.25 9.65l-1.1.9q-4.35 3.5-9.95 5.05-5.55 1.5-11.1-.15-5.85-1.6-9.35-6.7.1-4.55 1.25-9.1l2.4-9.1.4-1.35q4.7 1.4 7.1 5.65l-2.45.8q-2.2.95-3.65 2.45-1.35 3.05-.45 6.65.65 2.7 4.05 3.9.6 4.95 3.3 6.1 2.7 1.15 5.85.55 1.95-.35 3.4-2.25T7 19.2q3.05-.5 3.75-3.9.85-4.2-.45-6.45h.05l-.05-.05-1.35-1.2Q7.1 6.3 4.7 5.7l-1.25-.3q3.25-3.9 7.9-5.8" fill="#c00" transform="translate(15.65 5.8)"/><path d="M7.75-5.2q.8.15 1.45.9Q10.35-3 11.35-.4 6.7 1.5 3.45 5.4L1.6 4.95Q3.3-.1 7.75-5.2M-11.6-.05q1.05-3.5 2.45-4.95.7-.7 1.55-.8Q-3.35-.45-1.95 5.15l-2.55.45q-2.4-4.25-7.1-5.65" fill="#fff" transform="translate(15.65 5.8)"/><path d="M-7.6-5.8q1.15-.1 2.6 1.05 2.5 2 5.3 4.8L5.25-4.3q1.35-1.1 2.5-.9Q3.3-.1 1.6 4.95l-3.4.2h-.15Q-3.35-.45-7.6-5.8" fill="#a90101" transform="translate(15.65 5.8)"/></g></defs></svg>