<svg xmlns:xlink="http://www.w3.org/1999/xlink" height="92.9" width="100.7" xmlns="http://www.w3.org/2000/svg"><use height="25.5" transform="translate(20.85 39.05)" width="34.95" xlink:href="#a"/><defs><g id="a" fill-rule="evenodd"><path d="m4.65-1.5.1-.75q.1-.4.4-.4 2.45-.5 4.35-2l.05-.3q0-2.1-2.55-4.2l-.25-.35.05-.2q.15-.45.55-.3 2.6.1 4.95 2.05 2 1.75 2.7 3.65l.05.3Q13.65.4 7.6 2.45h-.3q-.9-.2-1.75-1.35-.9-1.25-.9-2.6" fill="#4f0000" transform="translate(17.8 10.7)"/><path d="M13.95-4.1Q13.1-.85 7.5 1.45 6.8 1.2 6.2.25q-.65-1.1-.45-2 .6-.1 2.6-1.1 1.95-1.05 2.05-1.3.2-2.25-1.6-4.6 3.85 1.55 5.15 4.65" fill="#f9d478" transform="translate(17.8 10.7)"/><path d="M10.3-6.95v.7l-1.5-2.5q1.75.7 2.95 1.75 0 .1-.65-.25l.4.6-.7-.4.1.8-.6-.7" fill="#d80000" transform="translate(17.8 10.7)"/><path d="M11.8-6.95q1.6 1.35 2.15 2.85Q13.1-.85 7.5 1.45L6.2-.3q4.65-.65 6.25-3.9l-.65-2.75" fill="#b78a58" transform="translate(17.8 10.7)"/><path d="m7.3-2.15 1.85-1q.85-.35 1.3-.8l-.65.85-1.05.75q-.9.5-1.6.35l.2-.15H7.3" fill="#fff" transform="translate(17.8 10.7)"/><path d="m-11.2-4.45.05.3q1.9 1.5 4.35 2.05l.4.35.05.8q0 1.4-.9 2.6-.8 1.15-1.7 1.35h-.3Q-15.3.9-16.7-3.45v-.35q.75-1.95 2.75-3.6 2.35-2 4.95-2.1.3-.1.5.3l.1.2-.25.4q-2.55 2.05-2.55 4.15" fill="#4f0000" transform="translate(17.8 10.7)"/><path d="M-15.6-3.55q1.2-3.1 5.1-4.7-1.7 2.4-1.55 4.65L-10-2.3l2.6 1.05q.15.9-.45 2-.65 1-1.3 1.2-5.6-2.3-6.45-5.5" fill="#f9d478" transform="translate(17.8 10.7)"/><path d="M-13.1-6.35q-.75.45-.8.35 1.4-1.4 3.4-2.25-1.3 1.8-1.55 3.05-.1-.5-.3-.55-.4.8-.5.7.35-1 .2-1.1l-.85.6q.45-.65.4-.8" fill="#d80000" transform="translate(17.8 10.7)"/><path d="M-13.25-3.2q.6-1.4 1.15-1.85l.05 1.45L-10-2.3l2.6 1.05q.3 1.5-.1 1.9-4.3-1.8-5.75-3.85" fill="#b78a58" transform="translate(17.8 10.7)"/><path d="m-13-.75-1.15-1.35-.5-.75-.25-.45.65.65 1.2 1.25 1.1 1.15.75.7-.65-.4-1.15-.8" fill="#fff" transform="translate(17.8 10.7)"/><path d="M-7.5-2.7q1.75-.45 2.25.75.15.3-.15.6l-.95 2.2-.5 2.25-.05.4-.45.3-1.65.05q-.35 0-.5-.3-.75-1.75.65-4.65.65-1.45 1.35-1.6" transform="translate(17.8 10.7)"/><path d="M-7.25-1.7q.85-.35 1.15.3-.4.25-.95 2.1-.65 1.8-.4 2.2l-1.15-.05Q-9.45.55-7.25-1.7" fill="#a2a3a2" transform="translate(17.8 10.7)"/><path d="M-7.2-1.75q.85-.25 1.1.35-.4.25-.95 2.1-.65 1.8-.4 2.2h-.6q0-2.95.85-4.65" fill="#686867" transform="translate(17.8 10.7)"/><path d="M6.75-.5q.7 1.5.2 2.75l-1.3-.05Q5.9 1.9 5.1.25q-.7-1.7-1.15-1.85.7-.95 1.5-.55.75.3 1.3 1.65" fill="#a2a3a2" transform="translate(17.8 10.7)"/><path d="M3.4-2.3q.55-1.3 2.4-.9.7.2 1.4 1.65Q8.55 1.2 7.8 3l-.45.3-1.7-.05-.4-.3-.05-.45L4.6.35 3.55-1.7q-.35-.2-.15-.6" transform="translate(17.8 10.7)"/><path d="M6.75-.5q.7 1.5.2 2.75l-1.3-.05Q5.9 1.9 5.1.25q-.7-1.7-1.15-1.85.7-.95 1.5-.55.75.3 1.3 1.65" fill="#686867" transform="translate(17.8 10.7)"/><path d="M2.5-4.35q-.15 2-2.45 2.4-2.8.5-4-2.05L-4-4.1l.05-.15 2.7-5.75.35-.7.45.7Q2-6.15 2.5-4.35" fill="#050505" transform="translate(17.8 10.7)"/><path d="m-2.6-4.55 1.85-3.8q1.65 2.45 2 3.8Q.95-3.3-.6-3.3q-1.6 0-2-1.25" fill="#cccecc" transform="translate(17.8 10.7)"/><path d="m-.6-3.3-.15-5q1.65 2.5 2 3.75Q.95-3.3-.6-3.3" fill="#7c7c7c" transform="translate(17.8 10.7)"/><path d="m1.05-5.3.2.05q3.8 1.85 5.35 7.6l-.05.45-.3.2q-4.15 1.1-13.8.35l-.4-.2L-8 2.7q1.25-5.8 5.15-7.85l.1-.05 3.8-.1" transform="translate(17.8 10.7)"/><path d="M-6.8 2.3q1.3-4.85 4.35-6.5L.9-4.25q2.8.8 4.3 6.45-4.15 1.05-12 .1" fill="#a2a3a2" transform="translate(17.8 10.7)"/><path d="m-6.8 2.3.75-2.3Q-2.8 1.7.4.6 1 0 .65-1.9.25-3.8-.4-4.3l1.3.05q2.8.8 4.3 6.45-4.15 1.05-12 .1" fill="#686867" transform="translate(17.8 10.7)"/><path d="m-14.25 3.55-.3-.45.55-.05 4.85.15q1.3.8.65 2.45-.6 2.05-2.75 1.9h-.1l-.1-.1-2.8-3.9" fill="#050505" transform="translate(17.8 10.7)"/><path d="M-11.15 6.5-13 3.85l3.25.1q.75.65.2 1.7-.65 1.05-1.6.85" fill="#cccecc" transform="translate(17.8 10.7)"/><path d="m-12.8 3.85 3.3 1.65q-.6 1.15-1.65 1L-13 3.85h.2" fill="#7c7c7c" transform="translate(17.8 10.7)"/><path d="m-17.5 8.9-.3-.45.6-.05 4.8.15q1.3.8.7 2.45-.65 2.1-2.75 1.95h-.1l-.1-.15-2.85-3.9" fill="#050505" transform="translate(17.8 10.7)"/><path d="m-14.35 11.85-1.9-2.6 3.3.05q.75.65.15 1.7-.6 1.05-1.55.85" fill="#cccecc" transform="translate(17.8 10.7)"/><path d="m-16.05 9.25 3.4 1.25q-.3 1.6-1.7 1.35l-1.9-2.6h.2" fill="#7c7c7c" transform="translate(17.8 10.7)"/><path d="m13.85 3.1-.35.45q-1.75 3-2.9 4l-.05.1h-.15q-2.15.2-2.8-1.95-.6-1.65.7-2.5l4.9-.15.65.05" fill="#050505" transform="translate(17.8 10.7)"/><path d="M10.3 6.55q-.95.2-1.55-.85-.65-1.1.1-1.75l3.4-.1-1.95 2.7" fill="#cccecc" transform="translate(17.8 10.7)"/><path d="M10.3 6.55q-.95.2-1.55-.85-.65-1.1.1-1.75l3.4-.1-1.95 2.7" fill="#7c7c7c" transform="translate(17.8 10.7)"/><path d="m17.15 8.6-.35.5-2.85 4-.1.05h-.1q-2.15.2-2.85-1.95-.6-1.65.7-2.55 1.4-.35 4.95-.1l.6.05" fill="#050505" transform="translate(17.8 10.7)"/><path d="M13.65 12.05q-1 .2-1.6-.85-.65-1.1.15-1.75 1-.25 3.3-.05l-1.85 2.65" fill="#cccecc" transform="translate(17.8 10.7)"/><path d="M13.65 12.05q-1 .2-1.6-.85-.65-1.1.15-1.75 1-.25 3.3-.05l-1.85 2.65" fill="#7c7c7c" transform="translate(17.8 10.7)"/><path d="M-.35 11.9-5.5 6.55l10.5.2-5.35 5.15" transform="translate(17.8 10.7)"/><path d="M3.35-.3q.4-.1.55.2l1.6 2.15h2l.25.1L11.5 6.9l4 5.65.05.25-.15.45q-.75.65-2.5 1l-1.75.25-.5-.3-.15-.35q-2.55-5-4-6.25-12.85-.25-13.6-.05-1.65 1-3.55 6.9-.15.35-.6.35-3.2-.65-4.15-1.25l-.25-.4.05-.15q4.7-8.65 6.35-10 .25-.4 2.6-.5L-4.2-.05l.5-.1.4.45.35 2.1 5.65-.05.25-2.2.4-.45" transform="translate(17.8 10.7)"/><path d="m3.5 3.35.35-1.75 1.2 1.45 2.15.05 3.3 4.2 3.8 5.35-2.9.75Q8.8 8.2 6.9 6.6l-14.55.1q-1.9 1.1-3.9 6.95l-2.85-.85 3.05-5.25Q-8.7 3.4-8.6 3.75l2.4-.25 2-2.05.45 2 7.25-.1" fill="#a2a3a2" transform="translate(17.8 10.7)"/><path d="m7.2 3.1 3.3 4.2 3.8 5.35-2.9.75Q8.8 8.2 6.9 6.6l-14.55.1q-1.9 1.1-3.9 6.95L-13 13.3q2.15-5.95 5.3-8.05l12.75-.5-1.2-3.15 1.2 1.45 2.15.05" fill="#686867" transform="translate(17.8 10.7)"/><path d="M-4.2 6.35h8.1l-4.2 4.1-3.9-4.1" fill="#a2a3a2" transform="translate(17.8 10.7)"/><path d="m-.3 10.45-.55-.55 3.4-3H-3.7l-.75-.6h8.5L-.3 10.45m-3.9-9 .5 2.05h-1.45l.45-1q.5-.75.45-1.05h.05" fill="#686867" transform="translate(17.8 10.7)"/><path d="m-.9-5.95.35-.7.4.65L2.6-.65Q2.5 1.2.3 1.65q-2.7.4-3.75-1.95l-.1-.1.05-.15q.45-1.5 2.6-5.4" fill="#050505" transform="translate(17.8 10.7)"/><path d="m-2.2-.8 1.75-3.6 1.9 3.6Q1.15.4-.35.4-1.8.35-2.2-.8" fill="#cccecc" transform="translate(17.8 10.7)"/><path d="m-.6-4.15.15-.25 1.9 3.6Q1.15.55-.6.35v-4.5" fill="#7c7c7c" transform="translate(17.8 10.7)"/><path d="m-2.3-4.05-.2.75-.9.65L-5.5-.3l.55-1.25.9-1.15.95-.85.8-.5m1.25.95.05.05-.05 1.2L-1.2-.4q-.65-.3-.45-.9l.6-1.8m-.05-4.25-.4 1.75-.4.05.8-1.8M-8.3 1l.05 1.25h-.4q-.05-1.05.45-2.3L-8.3 1m-3.65 3.1 1.35-.15-.25.5-1.1-.35m-3.4 5.3h-.05l1.65-.15-.2.35-1.4-.2m10.4-7.1.1-.1-.35.85q-.25.4-.65.3l.9-1.05M3.2 4.15l-6.5-.05.05-.45h2.4L2.1 3.6h1.15l.15.25-.2.3m-6.25 3.1L-3 7.2l1.2.75q1.25.7 1.45.95l-.55.55-.75-.85-1.4-1.35" fill="#fff" transform="translate(17.8 10.7)"/></g></defs></svg>