<svg xmlns:xlink="http://www.w3.org/1999/xlink" height="92.9" width="100.7" xmlns="http://www.w3.org/2000/svg"><use height="40.1" transform="translate(14.6 39.05)" width="46.8" xlink:href="#a"/><defs><g id="a" fill-rule="evenodd"><path d="m11.4 9.25.15 2.55L8.8 7.85l-.1 3.25q-.3-1.4-1.1-2.8l-.75-1.15-.9 1.7L4.8 5.7 3.6 7.25 1.65 3.6l-.2 2.1L-.6 4.1-2 7.15q-.8-.45-1.1-2.7-1.55 1.8-1.55 3.9l-.85-2.4-.95 3.15-.9-1.7-1.2 3.7-.1-3.25-2.75 3.95.15-2.55-1.4 3.35q.75.4.25 2.9.8.5.7 1.9 1.1.35.55 1.75 1.3.25 1.55 1.35.65.15 1.25 1.85.45.2.7-.5 1 1.8 1.35 1.85.35.05.5-.9.85 1.45 1.55 1.3.65-.15.65-.7l2.1 1.25 1.55-.6 1.6.6Q2.5 24.5 3.3 23l1.1 1.1q.7.15 1.9-1.45-.1 1.1.15 1.05l1.35-1.85q.25.7.65.5.45-.2 1.3-1.85.25-1.1 1.55-1.35-.55-1.4.55-1.75-.1-1.4.7-1.9v-1.4q-.15-1.3.25-1.5l-1.4-3.35M8.9-8 7.5-5.75l3.65-.75-1.9 2.1 3.85-.95L11.45-4l3.8.15q-.25.5-1.45 1.1l4.2.55-2 1.7q1.4 0 4 1.55l-2.35.85q1.75.6 4.15 3.85-.35-.4-2.2-.6 1.75 1 3.15 4.75l-1.8-1.15q2.1 2.55 1.6 5.85-.35-.8-1-1.3.6 1 .7 3.55l-1.7-1.55q.75 1.15.75 4.35l-1.25-1.2.45 2.55-1.9-.6 1.6 1.6-2-.4 1.55 1.5-2.75-.6 1.75.95-2.9-.3L17 24.7l-3.05-.7 1.4 2.25-2.2-.85.35.4q.3.6.1 1.65l-2.45-1.95.25 2.1-2.65-1.5.4 2-2.75-1.75.35 1.9-2.55-2.4.35 1.05q.25 1.2-.15 2l-2.85-2.6-.3 2.8-1.8-2.55-1.35 2.85q-.5-.6-.65-1.95l-.05-1.2-2.3 2.8-.1-2.75-2.7 1.95.35-1.9-2.75 1.75.4-2-2.65 1.5.25-2.1-2.45 1.95q-.2-1.05.1-1.65l.35-.4-2.2.85 1.4-2.25-3 .7 1.1-1.55-2.85.3 1.75-.95-2.75.6 1.55-1.5-2 .4 1.55-1.6-2.65.95q-.15-.85.55-1.95l.7-.95-1.95.9q0-1.9 1.95-4.85-1.45 1.1-2.2 2.35.6-3.4 1.15-4.4l-1.55 1.3q0-2.5 2.05-5.05l-2.55.65 1.15-1.75q1.4-1.9 2.35-2.45l-2.15.6 1.2-1.7q1.5-1.8 2.9-2.45l-2.75-.85L-17.4-.5l-1.95-1 4.65-1.25-2.35-.75 1.45-.4 3.2-.1-1.65-1.35 3.85.95-1.9-2.1 3.65.75L-9.85-8l3.95 1.5-1-2.25 3.5 1.7.75-3.65 1.55 3.3 2.3-2.8.35 2.1 1.3-1.2.5 2.2L5.3-8.85 4.95-6.5 8.9-8" fill="#1a171b" transform="translate(24.05 10.7)"/><path d="m-3.15 25.6-1.05 1.05.05-.3.1-1.45.65-.25.8.5-.55.45m1.4 1.25.05-1.4.1.05h.2l.25-.05.45-.2-1.05 1.6m2.4-1.45.05.95.05.2-.05.2-1.3-1.55.5-.2.75.4m5.2-1.05.35.25.4-.05 1.15 1.6-1.85-.95-.35.85-.75-.8-1.4.95.25.65-1.8-1.4 1.5-1 .9.5q.7.15 1.6-.6M2.2-6.95l.2-.35.65 1.95 1.15-1.4.1 1.55Q5.35-6 7-6.5l-.75 1.75 2.8-.65-.95 1.75 2.25-.25L9.3-2.5l2.4-.65 1.75-.05-1.4 1.3 3.9.25-1.8 2L17.4.7q-.8.5-1.45 1.05l3.7 2.75H17.9q1.9 1.25 2.95 3.4l-1.65-.7q1.95 2.35 2.5 5.05l-1.25-1q.55.9.85 3.2l-2-1.1 1 4.7-.95.85.25.8-.9-.15-3.15-.25 2.05 1.4h-1.55l.95.95-.1.7-1.05-.05-1.55.1.6.9-2.85-.3 1.25 1.55h-2.1l-1.1-.7.25 2.05-3.4-1.5 1-1.25.9-.05q.5-.2.85-1.15l.35-.65.45-.15.1-.45q.15-.6.85-.7l1.05-.15-.4-1-.1-.4.1-.25.65-.25-.05-.65v-.1q0-.7.3-1 .5-.3.5-1.1l-.15-1.7v-.2l.4-.35-.1-.45-2.5-4.8L11 9.25 7.65 5.5l.2 1.65-.35-.55-.9-1.05-.4.95-.7-1.35-.7-.85-1.05 1.35Q2.8 3.55 2.25 3L.65 1.2.8 3.85q-.95-.75-1.65-.6-.65.25-1.3 1.7l-.3-2.45-1.3 1.4-.95 1.7-.2-2.3-1.35 2.2-.5 1.1-.45-1.15-.4.7.05-.65-1.7 1.75-1.6 2v-2.1l-2.65 5.25.1.6.2.2v.2l-.15 1.7q0 .8.5 1.1.3.3.3 1v.8l.6.2.1.25-.1.4-.4 1 1.05.15q.7.1.85.7l.25.5.3.1.35.65.85 1.15.85.05q.85 1.3 1.5 1.4l.7-.2 1.05.55-1.85 1.45-.05-.3-.45-.9-1.75 1 1.5-2.05-4.1 1.8.25-2.15-1.1.8h-2.1L-13 23l-2.85.25.7-.95-2.7.05-.1-.7 1.05-1-2.3.1-.5-1.2-1.3.35.65-.85 2.05-2.15-3.4.9q.8-2.3 2.3-4.6l-2.05.65-.15.1.65-2.9-1.35.95q.45-1.45 1.5-2.75l1.6-1.95-2.9.7q1.75-2.45 3.1-3.35l-1.55-.15 3.8-3-1.55-1 .9-.15h2.3l-1.75-1.5-.3-.15 3.75-.8q-.45-.8-1-1.05h1.85l2.1.35-.85-1.1 1.9.15-.6-1.65 2.25.8-.2-1.9q.65.2 2.75 1.45l-.1-2.15L-3-5.65l.75-2.65 1.15 2.05L.6-8.5l.8 3.4.8-1.85" fill="#aca285" transform="translate(24.05 10.7)"/><path d="m2.3-6.05.4 2.5 1.2-2.2-.1 2.45 1.95-2.05-.95 2.6 2.75-1.7-1.6 2.35 2.4-.95-.55 1.6 3.55-.9-1.9 2.1q.95-.65 2.9-.75l1.75.05L11.6.7l3.75.35L14.2 2l3.35 1.8-2.65.55q1.5.35 3.55 2.1l-2.85-.5q2.6 1.75 3.5 3.45l-3.3-1.55 3.1 3.45q-1.65-1.35-1.45.35.1.95.7 2.9l-1.9-1.15 2.65 3.9q-1.2-1.25-2.05-1.45h-.65l2.4 2.6q-1.2-.55-2.8-.55l-1.4.15 1.15 1.9-1.45-.2 1.65 1.45-2.1-.35.45.9-.6.1q-.55.15-.35.4-.5-.55-.3-1l.35-.3-1.4-.5 1.55-.3q-1.1-1.45-.75-1.7l1.6.45q-1.25-1.1-.85-1.5l2.7-.45q-2.15-1.15-1.65-1.7h2.45q-2.35-1.7-2.1-2.3.15-.35 1.1-.4h.95l-2.4-2.05 1.45-.45q-2.05-1.85-2.3-2.6-.1-.45.95-.4l1.1.15q-2.15-.95-3.25-1.2-.75-.15.25-.5l1.8-.25-3.4-.7q-.2 0 1.1 2.4L9.25 4.3l1.3 3.6L7.3 4.4l.1 1.25L6.15 4.5v1.8q-1.2-3-1.6-3.35Q4 2.45 3.8 5.5 2.1 1.85-.55-.2.5 2.05.8 3.85l-2.35-1.7-.55 2.6-.9-3.4-1.7 4.25-.5-3.5-1.55 4.3-.3-1.65-.55 1.4.15-1.65-1.45 1.45q-1.5 1.85-1.95 3.3L-10.9 6l-3.15 4.95-.15 2.85q-.3 1.8.05 2.15 1.35 1.35.8 2.5-.35.7.8.5l.7 2q0 1.1.5 1.15 1.2.1.35.9l-2.3 1.05q.8-1.45.85-1.9l-2.75.75.85-1.15-3.1.2 1.25-1.45-2.95-.1q1.3-.9 1.7-1.4l-2.6.2 3.4-2.6-3.75.35.8-2.1q1-2.2 1.7-2.7l-2.95 1.05q.9-2.6 1.7-3.35l-2.15.8 1.3-1.8q1.6-1.95 3-2.45l-3.8.7 1.3-1.3q1.5-1.35 2.35-1.55l-2.55-.2 3.85-1.85L-17.8.5l3.85.3-2.4-2.1 4.55.2-1.5-1.6 3.65.6-.55-1.35 2.75 1.3L-9.2-4.5l2.85 1.85-.95-3.2 3.4 2.4-.75-2.85 2.4 2.45.15-3.55L-1-3.55.3-7.1l.9 3.7 1.1-2.65" fill="#ccc3aa" transform="translate(24.05 10.7)"/><path d="m-6.75-5.55 2.8 2.6q.35.65-.8.75-.85-2.1-2-3.35m-3.3 5.5-6-1.25 4.55.7-1.6-2.1 3.15 1.25-1.35.15 1.25 1.25M-14.5 2.8-19.15 4l1.35-.85q1.6-.85 2.9-.9L-16.95 1l3.05.5q.45.3-.35-1.15l1.15.65q.15.25-.5.9-.2.75-.9.9m-1.15 1.95.8.85q0 .35-1.35 1.45.5-.15.4.35-.1.5-.65.9l-3.6 3.15q1.5-2.15 3.1-3.65l-3.95 2.5q1.2-1.7 3.15-3.05l1.6-1.15q-.25-.8-4.65 1 1.3-1.15 3.35-1.85l1.8-.5M-19.7 15.1l2.2-2.75-3.35.85 3.75-1.75h-1.15l1.85-.7q.2.3-.35 1.45l-2.95 2.9m.55 3.5 2.5-1.65q.5-.15-.1.75l-2.4.9m4.6-3.7q-.05.6-5.1 1.65l4.55-1.9.55.25m-4.4 5.25q1.9-.45 3.2-1.25l-3.25-.05 4.3-1q.2.2-.25 1.25 1.25.2.65.55l-4.65.5m5.55-10.4q.1.2-1.25 1.65l.35.6-.6.95q.7.7.4.95l-2.35.2q1.45-.35 1.55-.75l-.65-.2q.95-.55.75-.8l-2.15 1.25 3.95-3.85m2.1-4.3q.5-.7-2.05-.35l3.5-.8-.75 1.85-4.05 2.65 3.35-3.35" fill="#ece9e0" transform="translate(24.05 10.7)"/><path d="m-6.7 1.9.1.05.65-.1q.95-.6 1.4-2-.2 1.95.1 1.6l2-1.85Q-3.7 1.15-4.4 3.85q.1-.95-.25-1.3-.35-.35-.85.2-.65.75-1.3 3.05l.05-1.25q-.05-1.2-.6-.9l-3.25 4.2 2.65-4.9-3.1.55Q-7.8 1.6-6.7 1.9m.35-2.75q.9.9-.05.9L-7.8-.1q1.1.7.7 1-1.8 1.15-4.85 1.2 5.1-1.2-.2-1.75L-8.4.4q.15-.6-.4-1l-.55-.25 2.25.25L-8.4-2l2.05 1.15m-5.55 4.4q-.6.75-3.35.9l2.05-.65-2.5-.15 3.8-.1m-4.9 5.9 2.25-1.6q.6-.05-.6 1l-1.65.6m4.05-3.3q-.45.35-2.3.5l1.9-.8.4.3M-3-4.35l1.05 1.85q.35.25.2-2.55.95 3 .65 3.4-.3.35-1 0-.65 1-1.1.9l-1-.7q.95.3 1.2-.15v-2.75m1.55 4.5q.2.3-.75 4.2-.45-1.3-.15-3l.4-1.45.5.25m.8-.15L.7 3.5-.9.6l.25-.6m2.7-.65q.7-.1 1.6.6L2.3-1.2l3.75.3-1.85.55q.65 0 2.25 1.5L3.9.4l1.05 1.25Q6 3.1 6.1 4.4L2.7.25l.65 1.05q.6 1.4.2 3 .1-1.25-1.8-3.25L.1-.7q.45-.2 1.5.8l.95 1.05L2 .25q-.4-.85.05-.9m4.7 3.05.4-.45.8.75q.8.9.75 1.7l-1.95-2m5.95 1.2q-3-.95-3.4-1.35-.3-.3-.05-.5t.55 0l2.9 1.85m1.1 2.45q.25-.15 1.25.3 1.1.5 1.65 1.3l-2.9-1.6m-.2-2.3.7-.3-.9-.6 2.85.8-2.65.1m1.2 12.15q-.2-.3.1-.65l1.9.6-1.35-.15 2.15 2.25q-.65-.05-1.8-1.05l-1-1m.4-2.55 1.2.05q.95.55 1.45 1.45l-2.65-1.5m.1-2.6 2.35.45-1.45.2 1.45 1.35q-2.75-1.35-2.35-2" fill="#ece9e0" transform="translate(24.05 10.7)"/><path d="M-9.95 24.55q.55-.75 1.4-.9.95-.15.55.15-.35.25-1.95.75M8.75 24q.1-.5.6-.1.6.35.9 1.25L8.75 24m1.8-.95q.1-.4.8-.25.8.15 1.55 1.25l-2.35-1" fill="#ccc3aa" transform="translate(24.05 10.7)"/><path d="M-13.25 21q.45.35.35.4l-3.9.1 3.55-.5" fill="#ece9e0" transform="translate(24.05 10.7)"/></g></defs></svg>