<svg xmlns:xlink="http://www.w3.org/1999/xlink" height="92.9" width="100.7" xmlns="http://www.w3.org/2000/svg"><g transform="translate(38.65 49.75)"><use height="15.05" transform="translate(-15.65 -6.2)" width="28.4" xlink:href="#a"/><use height="13.95" transform="translate(-14.75 -5.85)" width="26.65" xlink:href="#b"/><use height="13.55" transform="translate(-14.85 -5.85)" width="19.25" xlink:href="#c"/><use height="9.9" transform="translate(3.15 -3.5)" width="8" xlink:href="#d"/><use height="7.5" transform="translate(-13.55 .35)" width="24" xlink:href="#e"/></g><defs><use height="15.05" width="28.4" xlink:href="#f" id="a"/><use height="13.95" width="26.65" xlink:href="#g" id="b"/><use height="13.55" width="19.25" xlink:href="#h" id="c"/><use height="9.9" width="8" xlink:href="#i" id="d"/><use height="7.5" width="24" xlink:href="#j" id="e"/><g id="f" fill="#1a171b" fill-rule="evenodd"><path d="M9.9-2.5q.85 1.6.4 1.85L-.35-.1-7.1.95l-3.3.2-.9-.8.35-.65q2.55-6.8 9.2-6.75l6.2-.2Q8-6.05 9.9-2.5" transform="translate(14.2 7.25)"/><path d="M.45-2.1 12-2.7q.7 0 1.65 2.3 1.15 2.55 0 4.35Q12.35 6 .5 7.25t-13.5-.3q-.8-.8-1.1-2.95-.35-2.35.75-3.3 2.2-1.9 13.8-2.8" transform="translate(14.2 7.25)"/></g><g id="g" fill="#636264" fill-rule="evenodd"><path d="m10.2-1.45 1.5-.05q1.6 1.4 1.6 3.8 0 .85-.45 1.5-.85 1.4-9.8 2.6-13.75 1.9-15.5.25-.9-.75-.9-3.2V3.3q0-1.2.5-1.6.5-.45 1.6-.8l.8.6 3.3-.2L-.4.25 10.25-.3q.35-.2-.05-1.15" transform="translate(13.35 6.55)"/><path d="M9.35-1.1q.2.45-.5.45Q.3-1.15-9.65.85q-.7.1-.6-.45.5-1.8 2.3-3.65Q-5.4-5.9-1.8-5.85h.2l.15-.05q2.95-1.3 6.25.05Q7.75-4.5 9.35-1.1" transform="translate(13.35 6.55)"/></g><g id="i" fill="#3b3a3c" fill-rule="evenodd"><path d="M1.7-1.05Q2-1.2 1.75-2q.85-.1 1.55.9.85 1.25.65 3.45L3.7 3.5q-1.6.8-4.9 1.45Q.6 4.1.95 2.75 1.4.85-.55-.95l2.25-.1" transform="translate(4 4.95)"/><path d="M.8-1.85q.2.45-.5.45l-1.45-.05-1.5-1.95q-2.15-1.75-.9-1.5 2 .5 3.3 1.95L.8-1.85" transform="translate(4 4.95)"/></g><path d="m-10.75-2.25.35.2-1.1.85q-.3.7.5 4.85l-.45-.2-.45-2.25-.05-2.4 1.2-1.05m2.4 1.3q-.2 1.55.55 4.7h-.45l-.55-2.6q-.4-2.7.2-2.95l.55-.05-.3.9m4.05-1.7.6-.1q-.5 2.05.4 6.45l-.45.05Q-4.4 1.8-4.4-.65l.1-2m5.5-.55.4-.1q.65 1.6 1.05 6.4l-.5.05L1.2-3.2m5.5-.2h.7q.7.5.95 5.7l-.5.05q-.1-3.7-.65-5.1l-.5-.65m3.05-.15.7-.2q1.35.15 1.6 4.9l-.5.15q-.2-3.4-1.05-4.45l-.75-.4" transform="translate(11.95 3.75)" id="j" fill="#2b2a2c" fill-rule="evenodd"/><path d="m-3.35 1.1 1.7-.3q-.65.5-.5 1.1l1 2.65q.3 1.15-1.5 1.25-4.5.2-5.15 1l-.9-.35q-.95-.8-.95-3.2V3.1q.1-1.2.55-1.6.55-.45 1.65-.8l.8.6 3.3-.2M2.2-6.05l.15-.05q2.15-.95 4.45-.5l1.7.55 1.1.6q-6.1-.65-8.15.75Q0-3.65.6-2.25L1.75-.6l-.55.15-7.05 1.1q-.7.1-.6-.45.5-1.8 2.3-3.65 1.25-1.3 2.8-1.95l3.3-.65h.25" fill="#8c8f91" fill-rule="evenodd" transform="translate(9.65 6.75)" id="h"/></defs></svg>