<svg xmlns:xlink="http://www.w3.org/1999/xlink" height="92.9" width="100.7" xmlns="http://www.w3.org/2000/svg"><use height="21.55" transform="translate(27.15 40.2)" width="22.8" xlink:href="#a"/><defs><g id="a" fill-rule="evenodd"><path d="M9.3-4.7q.95 1.55 1.45 3.65.85 3.3.35 5.7l-.4 1.3q-.35.8-1.15.5L8.15 6q-.75.05-1.9.8L4.45 8Q2.2 9.05 0 9.05q-3.35 0-6.15-1.3l-2.1-1.35q-1.25 1.5-1.9 1l-.9-1.35q-.3-.5-.45-2.75-.1-2.85.55-5.35Q-8.9-9.55-.5-9.55q6.75 0 9.8 4.85" fill="#1a171b" transform="translate(11.5 9.55)"/><path d="M-.55-8.75q8.15 0 10.25 7.3 1.05 3.65.5 7.3-1.45 3-10.4 3-5.6 0-8.55-1.35l-1.85-1.4q-.75-3.7.15-7.4 1.8-7.45 9.9-7.45" fill="#434768" transform="translate(11.5 9.55)"/><path d="M1.65-4.25q-.1.5-1 .7l-3.1-.3q-1.75-.2-1.5 1.8.1.9 1.55 2.3Q-.95 1.6-.95 2.65q.05 1.55-2 2.85Q-4.8 6.65-6.4 6.65L-7.65 7.9q-2.55.2-2.45-3.25L-9.45.1l.2-2.95q.1-1.75 1.05-2.6.65-.6 4.1-2.05l3.6-1.35q.7.25.55 1.55-.15 1.5.4 1.95l1.2 1.1" fill="#4e537a" transform="translate(11.5 9.55)"/><path d="m6-6.15.3.25q1.8 1.55 2.65 3.95.75 2.1 1 5.05.2 3.45-1.55 4.25l-.65.25-.75.2q0-.85.3-1.85.95-2.9-.2-6.05-1.35-3.5-4.4-3.3l1.25-.85q.6-.6.05-1.7-.7-1.4.25-1.2l1.75 1" fill="#292d54" transform="translate(11.5 9.55)"/><path d="m-.25-8.75-3.9 1.1q-2.7 1.35-4 4.05Q-9.5-.85-8.6 1.95q.6 2 .3 2.75L-9 5.9q0 1.45.35 1.45-1.5.05-2.15-2.6-.45-1.95.25-5.45.85-4.4 3.75-6.35 3.05-2.15 6.75-1.8l-.2.1" fill="#83869c" transform="translate(11.5 9.55)"/><path d="m4.75-3.45.9-.1q2.1 1.1.15 2.8Q4.4.45 2.6 0 1.45-.2 1.35-.65q-.1-.45.5-1.15.9-1.15 2.9-1.65" fill="#292d54" transform="translate(11.5 9.55)"/><path d="M4.2-2.3q1.75 0 2.4 2 1.15 3.35-1.65 4.4-1.45.55-2.55-.7-1-1.25-.75-3.05.4-2.65 2.55-2.65" fill="#fff" transform="translate(11.5 9.55)"/><path d="M4.95 1.7q0 2-1.35 2t-1.35-2q0-2 1.35-2t1.35 2" fill="#1a171b" transform="translate(11.5 9.55)"/><path d="m-2.2-.5-.1.4-.85.45-2.3.45Q-7.3.7-7.5-1.1-7.65-2.55-6-3.05q.85-.25 2.8.85 1 .65 1 1.7" fill="#292d54" transform="translate(11.5 9.55)"/><path d="M-4.6-2.3q2.1 0 2.5 2.65.25 1.8-.75 3.05-1.05 1.25-2.5.7Q-8.05 3.05-7-.3q.75-2 2.4-2" fill="#fff" transform="translate(11.5 9.55)"/><path d="M-5.35 1.7q0-2 1.35-2 1.3 0 1.3 2t-1.3 2q-1.35 0-1.35-2" fill="#1a171b" transform="translate(11.5 9.55)"/><path d="M3.6.9q0-1 1-1t1 1q0 1-1 1t-1-1M-4.15.7q0-1 1-1t1 1q0 1-1 1t-1-1" fill="#fff" transform="translate(11.5 9.55)"/><path d="M7.9 7.55q.25.55-2.7 2.25Q1.3 11.95-.1 12h-.1q-2-.05-5.45-2.35-2.55-1.8-2.4-2.1.45-1.1 3.65-2.25l2.1-1.25Q-.95 3.2-.2 3.2q1.25 0 3.95 2Q7.3 6.3 7.9 7.55" fill="#1a171b" transform="translate(11.5 9.55)"/><path d="M7.6 7.75q.05.15-.8.45-1.35.4-2.65 1.3-2.3 1.65-4.3 1.65-1.9 0-4.2-1.6-1.25-.9-2.55-1.25-.85-.25-.85-.5.25-.45 3.8-2.25l1.9-1.35Q-.9 3.25-.2 3.25q1.3 0 3.75 2.3Q7.5 7.5 7.6 7.75" fill="#ffbb2b" transform="translate(11.5 9.55)"/><path d="m1.05 5.4-.25.2-1.4 2.2q-.85 2.3 2 2.65l.85.1q-1.25.6-2.4.6-1.9 0-4.2-1.6-1.25-.9-2.55-1.25-.85-.25-.85-.5.35-.65 2.8-1.55 2.6-.95 4.75-.95l1.25.1" fill="#ffebc0" transform="translate(11.5 9.55)"/></g></defs></svg>