<?xml version="1.0" encoding="UTF-8" standalone="no"?>
<svg xmlns:xlink="http://www.w3.org/1999/xlink" height="92.9px" width="100.7px" xmlns="http://www.w3.org/2000/svg">
  <g transform="matrix(1.0, 0.0, 0.0, 1.0, 38.65, 49.75)">
    <use height="15.9" transform="matrix(1.0, 0.0, 0.0, 1.0, -13.75, 0.4)" width="27.45" xlink:href="#sprite0"/>
    <use height="27.7" transform="matrix(1.0, 0.0, 0.0, 1.0, -22.35, -12.15)" width="42.45" xlink:href="#sprite1"/>
    <use height="27.45" transform="matrix(1.0, 0.0, 0.0, 1.0, -21.2, -11.5)" width="40.6" xlink:href="#sprite2"/>
    <use height="24.35" transform="matrix(1.0, 0.0, 0.0, 1.0, -17.45, -8.4)" width="34.35" xlink:href="#sprite3"/>
    <use height="18.8" transform="matrix(1.0, 0.0, 0.0, 1.0, -16.75, -7.05)" width="32.35" xlink:href="#sprite4"/>
    <use height="21.95" transform="matrix(1.0, 0.0, 0.0, 1.0, -14.65, -6.0)" width="30.7" xlink:href="#sprite5"/>
    <use height="23.15" transform="matrix(1.0, 0.0, 0.0, 1.0, -17.45, -8.4)" width="34.35" xlink:href="#sprite6"/>
    <use height="20.2" transform="matrix(1.0, 0.0, 0.0, 1.0, -21.2, -11.15)" width="40.5" xlink:href="#sprite7"/>
    <use height="19.45" transform="matrix(1.0, 0.0, 0.0, 1.0, -20.45, -10.3)" width="38.55" xlink:href="#sprite8"/>
    <use height="19.8" transform="matrix(1.0, 0.0, 0.0, 1.0, -12.0, -7.05)" width="24.15" xlink:href="#sprite9"/>
  </g>
  <defs>
    <g id="sprite0" transform="matrix(1.0, 0.0, 0.0, 1.0, 0.0, 0.0)">
      <use height="15.9" transform="matrix(1.0, 0.0, 0.0, 1.0, 0.0, 0.0)" width="27.45" xlink:href="#shape0"/>
    </g>
    <g id="shape0" transform="matrix(1.0, 0.0, 0.0, 1.0, 0.0, 0.0)">
      <path d="M27.4 12.3 L27.4 12.55 27.45 13.1 27.25 12.95 Q26.65 14.3 24.7 15.85 L24.4 15.7 Q24.85 11.7 23.75 10.2 L24.1 9.8 20.85 12.7 Q20.8 8.4 18.25 3.75 17.6 4.05 15.65 7.15 L14.1 9.75 13.7 10.6 Q13.05 10.3 12.85 6.05 L12.8 2.85 8.4 8.45 8.3 8.6 8.1 8.4 Q7.7 7.35 8.15 4.95 L8.55 3.4 Q7.8 4.05 6.4 8.6 L4.8 14.2 4.55 14.25 Q4.2 14.3 3.15 12.15 L2.55 10.85 2.15 15.6 2.15 15.7 2.05 15.7 Q1.05 16.6 0.2 13.25 L0.0 12.9 1.3 7.1 5.7 1.85 12.4 0.0 20.05 1.05 27.2 10.25 27.4 12.3" fill="#8a0000" fill-rule="evenodd" stroke="none"/>
    </g>
    <g id="sprite1" transform="matrix(1.0, 0.0, 0.0, 1.0, 0.0, 0.0)">
      <use height="27.7" transform="matrix(1.0, 0.0, 0.0, 1.0, 0.0, 0.0)" width="42.45" xlink:href="#shape1"/>
    </g>
    <g id="shape1" transform="matrix(1.0, 0.0, 0.0, 1.0, 0.0, 0.0)">
      <path d="M32.25 3.65 L33.6 9.15 38.1 7.55 37.7 13.95 42.45 15.1 38.15 21.8 39.8 26.4 39.7 26.4 Q38.9 26.9 36.3 25.85 L36.2 25.8 Q35.95 22.6 32.45 17.35 27.75 10.25 21.7 10.25 16.35 10.25 13.3 13.75 10.3 17.4 10.1 18.05 8.7 23.05 8.5 25.7 7.85 26.15 6.4 26.8 L5.05 27.35 4.2 27.7 Q4.2 27.15 4.65 26.0 5.0 24.85 5.5 23.95 L5.55 23.8 5.6 23.8 5.6 23.75 2.5 18.85 0.95 16.25 0.0 14.3 6.85 14.75 5.55 8.2 5.75 8.05 9.9 10.25 10.15 3.75 14.8 6.55 15.5 0.0 20.45 4.9 21.75 2.8 23.2 4.5 28.35 0.45 29.4 5.75 32.0 3.8 32.25 3.65" fill="#000000" fill-rule="evenodd" stroke="none"/>
    </g>
    <g id="sprite2" transform="matrix(1.0, 0.0, 0.0, 1.0, 0.0, 0.0)">
      <use height="27.45" transform="matrix(1.0, 0.0, 0.0, 1.0, 0.0, 0.0)" width="40.6" xlink:href="#shape2"/>
    </g>
    <g id="shape2" transform="matrix(1.0, 0.0, 0.0, 1.0, 0.0, 0.0)">
      <path d="M36.35 7.6 L35.8 13.8 Q40.35 14.7 40.6 14.9 L36.3 21.3 38.1 25.65 34.55 24.3 32.15 27.45 Q32.95 26.3 32.0 21.0 L28.35 24.2 Q29.1 20.6 25.4 14.6 24.3 15.5 22.85 18.25 L21.15 21.95 20.55 13.1 Q19.5 13.95 17.65 16.95 L15.75 20.2 16.6 14.05 Q16.1 14.25 15.65 14.55 L15.55 14.6 Q14.35 15.65 13.15 20.95 L12.05 25.9 11.95 25.8 9.6 21.15 9.6 21.2 Q9.1 22.25 9.2 24.6 L9.4 27.35 7.6 24.65 7.65 24.65 3.75 26.25 Q4.15 24.7 4.8 23.2 L0.0 14.6 6.5 14.8 6.5 14.7 6.45 14.3 6.4 14.3 Q5.2 8.55 4.8 8.0 L4.9 8.1 4.95 8.1 5.0 8.15 6.3 8.95 9.25 10.5 9.4 3.9 14.05 6.7 14.8 0.2 14.75 0.0 19.4 5.05 20.65 3.1 22.05 4.75 Q26.1 1.75 26.8 0.75 L28.1 5.7 30.85 4.0 32.1 9.2 36.35 7.6" fill="#6f0000" fill-rule="evenodd" stroke="none"/>
    </g>
    <g id="sprite3" transform="matrix(1.0, 0.0, 0.0, 1.0, 0.0, 0.0)">
      <use height="24.35" transform="matrix(1.0, 0.0, 0.0, 1.0, 0.0, 0.0)" width="34.35" xlink:href="#shape3"/>
    </g>
    <g id="shape3" transform="matrix(1.0, 0.0, 0.0, 1.0, 0.0, 0.0)">
      <path d="M25.5 7.15 L25.3 7.15 25.1 5.5 25.0 5.35 24.45 2.55 27.1 0.9 28.35 6.1 25.5 7.15 M24.0 9.0 L24.1 9.15 27.45 13.7 26.75 11.9 27.6 11.05 32.75 17.9 32.55 18.2 34.35 22.55 30.8 21.2 28.4 24.35 Q29.2 23.2 28.25 17.9 L24.6 21.1 Q25.35 17.5 21.65 11.5 20.55 12.4 19.1 15.15 L17.4 18.85 16.8 10.0 Q15.75 10.85 13.9 13.85 L12.0 17.1 12.85 10.95 11.9 11.45 11.8 11.5 Q10.6 12.55 9.4 17.85 L8.3 22.8 8.2 22.7 5.8 18.0 5.1 19.35 5.85 18.1 Q5.35 19.15 5.45 21.5 L5.65 24.25 3.85 21.55 3.9 21.55 0.0 23.15 1.05 20.1 Q1.8 18.15 3.0 16.2 5.6 11.95 8.95 10.5 L8.45 10.1 6.65 10.15 7.0 8.2 Q7.0 7.65 6.75 7.8 L6.7 7.85 6.6 7.85 6.35 7.85 5.5 7.55 5.65 0.8 10.3 3.6 9.6 6.4 9.2 7.3 8.8 7.85 Q8.15 8.6 9.35 8.8 L9.6 8.5 12.25 8.3 12.75 8.3 13.2 5.8 16.9 0.0 18.3 1.65 18.15 1.75 20.7 5.7 19.75 7.65 23.35 8.05 24.0 9.0 M28.95 17.5 L28.85 17.25 28.7 17.45 28.95 17.5" fill="#ff9900" fill-rule="evenodd" stroke="none"/>
    </g>
    <g id="sprite4" transform="matrix(1.0, 0.0, 0.0, 1.0, 0.0, 0.0)">
      <use height="18.8" transform="matrix(1.0, 0.0, 0.0, 1.0, 0.0, 0.0)" width="32.35" xlink:href="#shape4"/>
    </g>
    <g id="shape4" transform="matrix(1.0, 0.0, 0.0, 1.0, 0.0, 0.0)">
      <path d="M27.5 8.4 L31.4 8.8 31.35 9.35 27.5 8.5 27.5 8.4 M20.1 4.35 L17.45 0.35 17.9 0.0 19.9 3.55 20.1 3.9 20.25 4.2 20.25 4.3 20.1 4.35 M24.0 2.95 L23.6 1.45 23.9 1.15 24.3 3.5 24.25 3.45 24.2 3.45 24.05 2.95 24.0 2.95 M27.35 4.35 L27.4 4.85 25.65 5.4 27.35 4.35 M20.35 4.75 L20.4 4.7 21.4 6.3 20.35 4.75 M29.05 12.8 L29.2 12.8 30.05 13.9 31.1 15.2 31.25 15.15 31.3 15.1 32.15 16.25 32.35 16.65 31.9 16.9 29.05 12.8 M29.4 12.9 L29.8 13.35 29.55 13.15 29.4 12.9 M26.85 8.35 L27.2 8.4 27.2 8.45 26.85 8.35 M29.1 12.55 L28.85 12.55 27.9 11.2 29.1 12.55 M12.85 3.5 L14.65 0.15 15.05 0.6 12.65 4.15 12.65 3.85 12.85 3.5 M9.2 3.85 L9.05 1.8 9.6 1.9 9.5 2.8 9.4 3.4 9.35 3.4 9.2 3.9 9.2 3.85 M12.35 4.45 L12.25 4.75 11.7 5.55 12.3 4.45 12.35 4.45 M4.75 6.05 L5.0 9.45 4.4 5.9 4.75 6.05 M1.55 15.85 L1.65 16.3 1.75 16.25 1.8 15.75 1.75 15.5 4.0 12.4 4.55 12.25 4.45 12.15 4.2 12.15 4.8 11.55 4.55 12.25 3.95 13.0 0.35 18.8 0.0 18.55 1.55 15.85 M2.05 10.4 L1.95 9.85 5.65 10.7 2.05 10.4" fill="#330000" fill-rule="evenodd" stroke="none"/>
      <path d="M27.5 8.5 L27.35 9.35 Q26.45 9.95 26.3 10.15 L26.6 11.05 Q26.6 11.65 26.3 11.65 26.1 11.65 23.65 8.1 L23.0 7.15 Q22.75 6.65 22.15 6.65 L21.95 6.65 21.6 6.65 19.2 6.45 19.15 6.25 19.75 5.25 Q19.85 4.55 20.1 4.35 L20.25 4.3 20.25 4.2 20.25 4.05 20.1 3.9 19.9 3.55 21.7 2.8 23.15 2.8 23.7 2.85 24.0 2.95 24.05 2.95 24.2 3.45 24.25 3.45 24.3 3.5 24.55 4.7 24.85 5.9 28.8 6.35 27.5 8.2 27.5 8.4 27.5 8.5 M20.35 4.75 L21.4 6.3 20.4 4.7 20.35 4.75 M21.4 6.35 L21.45 6.35 21.4 6.3 21.4 6.35 M26.85 8.35 L27.2 8.45 27.2 8.4 26.85 8.35 M29.4 12.9 L29.55 13.15 29.8 13.35 29.4 12.9 M31.3 15.1 L31.25 15.15 31.1 15.2 30.05 13.9 29.2 12.8 29.05 12.8 28.85 12.8 28.8 12.55 28.85 12.55 29.1 12.55 30.2 12.55 31.55 12.6 31.6 12.7 31.6 13.15 31.3 15.1 M12.65 4.15 L12.3 5.85 12.15 6.8 12.05 6.8 12.1 6.85 Q11.55 7.45 10.8 7.2 L10.35 7.1 8.7 7.25 8.0 7.0 9.2 3.9 9.15 3.9 9.2 3.85 9.2 3.9 9.35 3.4 9.4 3.4 9.5 2.8 11.25 2.75 Q12.2 3.0 12.85 3.5 L12.65 3.85 12.65 4.15 M12.35 4.45 L12.3 4.45 11.7 5.55 12.25 4.75 12.35 4.45 M4.2 12.15 L4.45 12.15 4.55 12.25 4.0 12.4 1.75 15.5 1.8 15.75 1.75 16.25 1.65 16.3 1.55 15.85 Q1.05 14.15 1.05 13.25 1.05 12.5 3.95 12.15 L4.2 12.15" fill="#330000" fill-rule="evenodd" stroke="none"/>
    </g>
    <g id="sprite5" transform="matrix(1.0, 0.0, 0.0, 1.0, 0.0, 0.0)">
      <use height="21.95" transform="matrix(1.0, 0.0, 0.0, 1.0, 0.0, 0.0)" width="30.7" xlink:href="#shape5"/>
    </g>
    <g id="shape5" transform="matrix(1.0, 0.0, 0.0, 1.0, 0.0, 0.0)">
      <path d="M25.0 2.25 L25.1 3.35 24.05 3.9 Q23.25 3.0 22.2 2.95 L21.8 2.9 22.2 2.85 21.75 0.25 22.0 0.0 22.95 1.4 Q24.05 2.7 25.0 2.25 M20.95 6.3 L24.2 10.35 24.45 9.85 24.85 8.95 Q25.45 8.95 26.35 11.05 L27.0 11.7 27.1 11.9 29.9 15.65 29.7 15.85 28.45 15.1 28.15 14.8 28.35 16.0 29.4 17.4 30.7 19.65 30.3 19.75 27.95 18.75 27.75 19.1 27.7 18.65 27.65 18.6 27.65 18.3 27.7 18.3 Q27.1 12.95 26.2 11.15 L26.1 11.2 25.25 13.4 23.65 15.8 23.5 15.7 23.5 13.55 23.4 13.05 23.4 11.15 21.2 9.1 18.75 6.9 17.95 6.95 17.35 6.95 17.35 7.15 Q17.35 8.8 16.7 9.75 L15.5 6.95 15.4 6.95 15.4 6.85 13.9 6.65 11.95 8.65 11.8 8.75 11.7 8.15 Q11.7 6.95 11.95 6.25 L11.25 5.9 10.95 4.9 10.35 4.0 10.1 3.4 10.7 2.9 12.7 3.7 Q14.7 4.1 16.65 3.25 17.15 2.8 17.6 2.75 L18.0 3.15 17.95 3.45 18.0 3.6 17.85 3.75 17.75 4.05 17.15 5.1 18.55 5.5 19.7 5.4 Q20.15 5.25 20.75 5.85 L21.05 6.25 20.95 6.3 M27.55 19.3 L25.6 21.95 Q26.15 18.6 25.4 15.65 22.75 18.3 21.8 18.7 22.5 16.0 18.9 9.15 L20.8 11.85 Q22.65 14.8 22.5 16.35 L25.4 15.65 Q26.55 19.05 26.5 19.65 L27.55 19.3 M13.5 8.05 L9.25 14.5 Q8.8 12.15 9.9 9.05 L9.95 9.05 9.95 11.65 11.3 9.95 Q12.75 8.2 13.5 8.05 M18.7 9.25 Q16.4 11.85 14.6 16.45 13.75 13.75 14.0 8.05 14.65 13.55 14.9 13.8 L16.3 11.65 Q17.9 9.45 18.7 9.25 M7.25 2.85 L5.95 5.9 8.15 6.2 Q6.0 7.75 4.5 7.75 L4.2 7.7 4.05 7.85 3.95 7.65 3.9 7.65 3.9 7.4 4.0 7.4 4.2 5.75 4.05 5.45 4.0 5.55 3.95 5.5 2.8 5.0 2.75 4.15 Q6.7 2.6 7.15 0.9 L7.15 2.7 7.25 2.85 M3.9 17.25 Q4.85 18.75 5.35 18.75 L6.35 14.7 Q7.5 10.5 8.3 10.0 6.55 14.0 5.7 20.3 5.45 21.1 3.05 15.7 L3.9 17.25 M2.65 18.4 Q2.5 21.05 2.85 21.85 2.3 22.25 1.05 19.15 1.35 17.65 3.05 15.4 L1.05 19.15 2.25 20.35 2.3 18.3 Q2.45 16.2 2.9 15.85 L2.65 18.4 M1.0 19.0 Q-0.85 17.65 0.75 14.15 L2.25 11.8 Q1.7 13.0 1.35 15.5 L1.0 19.0" fill="#e67800" fill-rule="evenodd" stroke="none"/>
    </g>
    <g id="sprite6" transform="matrix(1.0, 0.0, 0.0, 1.0, 0.0, 0.0)">
      <use height="23.15" transform="matrix(1.0, 0.0, 0.0, 1.0, 0.0, 0.0)" width="34.35" xlink:href="#shape6"/>
    </g>
    <g id="shape6" transform="matrix(1.0, 0.0, 0.0, 1.0, 0.0, 0.0)">
      <path d="M29.55 15.8 Q30.9 16.3 34.35 22.55 L29.55 15.8 M27.0 6.0 L26.85 3.95 Q26.75 1.85 27.1 1.5 27.6 5.2 27.0 6.0 M16.9 0.0 Q19.25 5.75 19.4 7.65 19.6 9.6 16.9 0.0 M6.1 3.6 L5.65 1.0 7.25 7.15 Q6.65 6.35 6.1 3.6 M15.8 3.3 L16.85 0.05 15.25 8.65 Q14.85 6.85 15.8 3.3 M9.9 5.55 Q9.9 6.1 8.1 4.05 6.35 2.1 5.95 1.2 9.9 4.75 9.9 5.55 M1.95 20.7 Q4.05 18.2 4.9 17.85 L0.0 23.15 1.95 20.7" fill="#ffc062" fill-rule="evenodd" stroke="none"/>
    </g>
    <g id="sprite7" transform="matrix(1.0, 0.0, 0.0, 1.0, 0.0, 0.0)">
      <use height="20.2" transform="matrix(1.0, 0.0, 0.0, 1.0, 0.0, 0.0)" width="40.5" xlink:href="#shape7"/>
    </g>
    <g id="shape7" transform="matrix(1.0, 0.0, 0.0, 1.0, 0.0, 0.0)">
      <path d="M33.5 16.4 Q39.75 14.6 40.0 15.0 L39.8 15.05 36.3 16.05 33.5 16.4 M31.55 13.65 L36.2 13.85 40.5 14.75 31.55 13.65 M34.15 9.7 L36.25 7.85 31.85 12.55 Q32.0 11.7 34.15 9.7 M14.85 3.75 L14.85 0.0 Q15.8 8.9 15.25 8.1 14.9 7.6 14.85 3.75 M7.15 10.45 Q9.25 13.3 9.35 14.25 L5.1 7.8 7.15 10.45 M8.8 16.0 Q3.55 15.85 0.0 14.25 4.85 17.75 5.85 20.2 L0.0 14.25 8.8 16.0" fill="#9f0000" fill-rule="evenodd" stroke="none"/>
    </g>
    <g id="sprite8" transform="matrix(1.0, 0.0, 0.0, 1.0, 0.0, 0.0)">
      <use height="19.45" transform="matrix(1.0, 0.0, 0.0, 1.0, 0.0, 0.0)" width="38.55" xlink:href="#shape8"/>
    </g>
    <g id="shape8" transform="matrix(1.0, 0.0, 0.0, 1.0, 0.0, 0.0)">
      <path d="M34.8 11.4 L34.35 10.25 35.1 8.2 Q35.25 10.5 34.8 11.4 M23.35 2.25 L24.35 1.55 22.5 3.55 Q22.4 3.05 23.35 2.25 M38.55 15.25 Q36.55 17.9 35.75 18.0 35.6 17.7 35.6 17.3 35.55 16.6 36.35 16.4 37.8 16.0 38.55 15.25 M17.2 3.4 Q14.9 1.6 14.3 0.0 17.15 2.0 17.2 3.4 M0.0 14.05 Q3.9 17.55 4.1 19.4 2.9 19.7 1.35 16.9 L0.0 14.05 M4.75 7.55 L5.8 8.25 Q6.95 9.15 7.3 10.0 6.1 9.95 4.75 7.55" fill="#f94d4d" fill-rule="evenodd" stroke="none"/>
    </g>
    <g id="sprite9" transform="matrix(1.0, 0.0, 0.0, 1.0, 0.7, 0.0)">
      <use height="19.8" transform="matrix(1.0, 0.0, 0.0, 1.0, -0.7, 0.0)" width="24.15" xlink:href="#shape9"/>
    </g>
    <g id="shape9" transform="matrix(1.0, 0.0, 0.0, 1.0, 0.7, 0.0)">
      <path d="M20.85 8.65 L20.85 8.9 Q19.0 10.4 17.9 10.4 17.2 10.4 16.75 9.95 16.3 9.5 14.25 9.55 L12.45 8.7 Q12.15 9.3 9.55 9.3 7.7 9.3 7.15 8.45 L6.95 8.6 7.1 8.75 Q7.1 9.1 4.45 9.65 L4.15 9.65 2.6 9.4 1.95 9.0 Q1.65 8.65 1.65 8.15 1.65 7.4 1.9 7.25 1.9 7.0 2.05 7.0 L2.2 7.25 3.65 8.65 4.3 8.5 Q4.65 7.75 5.9 7.75 L9.2 8.4 Q10.85 8.4 12.25 7.25 13.25 7.25 14.35 8.65 15.2 8.65 16.3 7.9 L17.15 8.55 Q17.9 9.15 18.95 9.15 20.35 9.15 20.55 8.6 L20.85 8.65 M22.55 13.6 Q21.4 14.4 19.1 14.8 L18.4 14.75 18.0 14.0 18.55 13.7 21.5 13.65 Q22.95 13.25 23.25 12.4 L23.35 12.45 Q23.7 12.8 22.55 13.6 M13.6 3.9 Q13.4 4.55 12.55 2.65 L11.45 0.0 11.55 0.1 Q13.85 2.9 13.6 3.9 M10.45 11.95 L11.05 11.55 Q11.8 11.55 12.75 12.0 L13.25 11.55 13.45 11.55 13.05 12.15 13.45 12.4 13.5 12.5 13.85 12.2 13.3 12.85 13.1 12.85 13.3 12.7 12.65 12.75 Q11.5 14.5 11.45 15.95 11.1 15.45 11.25 14.55 11.4 13.65 12.1 12.75 L11.7 12.75 Q10.5 12.75 10.65 12.55 L10.6 12.35 10.45 11.95 M0.0 0.05 L3.0 2.05 Q3.0 2.95 0.0 0.05 M4.5 9.05 L4.5 9.1 4.55 9.1 4.5 9.05 M6.6 11.25 L6.5 11.6 6.65 11.85 7.85 11.65 8.35 11.65 8.4 11.8 6.75 12.9 Q6.3 12.9 6.1 12.4 L6.0 11.9 Q6.0 11.45 6.45 11.1 L6.6 11.25 M0.35 13.7 L0.75 14.1 1.95 14.05 2.75 13.85 2.0 14.6 Q1.75 15.3 0.75 15.3 -0.55 15.3 -0.7 14.1 -0.7 12.55 0.05 12.4 L0.15 12.5 0.0 12.7 0.2 13.4 0.35 13.7 M2.0 19.8 Q0.45 17.45 3.9 12.15 L2.0 19.8 M19.35 18.3 Q20.7 16.8 20.9 14.9 22.35 16.65 19.35 18.3" fill="#ffffff" fill-rule="evenodd" stroke="none"/>
    </g>
  </defs>
</svg>
