<?xml version="1.0" encoding="UTF-8" standalone="no"?>
<svg xmlns:xlink="http://www.w3.org/1999/xlink" height="92.9px" width="100.7px" xmlns="http://www.w3.org/2000/svg">
  <g transform="matrix(1.0, 0.0, 0.0, 1.0, 38.65, 49.75)">
    <use height="20.2" transform="matrix(1.0, 0.0, 0.0, 1.0, -9.9, -12.75)" width="19.75" xlink:href="#sprite0"/>
  </g>
  <defs>
    <g id="sprite0" transform="matrix(1.0, 0.0, 0.0, 1.0, 9.9, 10.1)">
      <use height="20.2" transform="matrix(1.0, 0.0, 0.0, 1.0, -9.9, -10.1)" width="19.75" xlink:href="#shape0"/>
    </g>
    <g id="shape0" transform="matrix(1.0, 0.0, 0.0, 1.0, 9.9, 10.1)">
      <path d="M-9.1 -2.95 Q-8.55 -7.35 -4.3 -8.8 -0.3 -10.2 3.25 -9.2 9.3 -7.5 9.25 -1.9 6.95 -3.15 6.4 -5.6 L6.3 -4.65 Q5.95 -2.7 3.95 -2.05 L3.4 -2.45 Q1.5 -3.95 1.2 -6.3 L1.05 -5.55 Q0.3 -3.05 -2.1 -2.3 -4.35 -3.75 -4.65 -6.25 L-4.95 -5.45 Q-6.1 -2.75 -9.1 -2.95 M9.3 3.2 L9.35 7.65 3.7 9.2 Q-0.5 10.0 -4.6 9.2 -7.05 8.9 -9.2 7.9 L-9.4 2.85 Q-5.35 4.7 -1.1 4.9 3.15 5.0 7.3 3.9 L9.3 3.2" fill="#ff3300" fill-rule="evenodd" stroke="none"/>
      <path d="M-9.1 -2.95 Q-6.1 -2.75 -4.95 -5.45 L-4.65 -6.25 Q-4.35 -3.75 -2.1 -2.3 0.3 -3.05 1.05 -5.55 L1.2 -6.3 Q1.5 -3.95 3.4 -2.45 L3.95 -2.05 Q5.95 -2.7 6.3 -4.65 L6.4 -5.6 Q6.95 -3.15 9.25 -1.9 L9.3 3.2 7.3 3.9 Q3.15 5.0 -1.1 4.9 -5.35 4.7 -9.4 2.85 L-9.1 -2.95" fill="#ffcc00" fill-rule="evenodd" stroke="none"/>
      <path d="M9.25 -1.9 Q9.3 -7.5 3.25 -9.2 -0.3 -10.2 -4.3 -8.8 -8.55 -7.35 -9.1 -2.95 L-9.4 2.85 -9.2 7.9 Q-7.05 8.9 -4.6 9.2 -0.5 10.0 3.7 9.2 L9.35 7.65 9.3 3.2 9.25 -1.9 Z" fill="none" stroke="#990000" stroke-linecap="round" stroke-linejoin="round" stroke-width="1.0"/>
    </g>
  </defs>
</svg>
