<svg xmlns:xlink="http://www.w3.org/1999/xlink" height="92.9" width="100.7" xmlns="http://www.w3.org/2000/svg"><use height="19.9" transform="translate(16.85 42)" width="34.2" xlink:href="#a"/><defs><g id="a" fill-rule="evenodd"><path d="m12.3 9.4.05 1.7q-7-2.95-14.2-2.95-1.3 0-6.75 2.05l-5.4 1.95q-.1-2.4.3-2.55 16.2-6.3 26-.2" fill="#828281" transform="translate(21.8 7.75)"/><path d="M7.05 2.3q1.7 0 2.35.95l.7 1.8q.35 1.1.9 1.3.65.3 1.15 1.95.5 1.65-.05 1.85-2.8-1.1-9.55-2.4-4.1-.8-10.6 1.4-5.65 2.3-5.85 2.1l-.4-1.15q-.15-.9.15-1.3 2-2.45 10.55-4.65Q3.65 2.3 7.05 2.3" fill="#adadad" transform="translate(21.8 7.75)"/><path d="m5.55 4.65 3.15-.4q1.35 2.25 1.95 2.5.7.25 1 1.45.3 1.15-.25 1.35L8.95 8.8Q5.8 7.7 1.85 7.1q-3.9-.55-9.9 1.5-5.1 2.1-5.3 1.9-.25-.3.7-1 .85-.7 7.1-2.65 7.3-2.35 11.1-2.2" fill="#fff" transform="translate(21.8 7.75)"/><path d="M-3.6-7.65q3.65-.2 4.1.05l4.55 2.25 3.75 7q.65 1.25.5 1.4l-2.8.75-9.35 1.5-4.95 1.45q-3.85 1.3-4.3 1.75-1.75 2.35-2.1 2.4-4.9.55-6.8-.75-.7-.5-.8-2.05-.1-1.6.7-2.65 1.3-1.6 3.9-2.8 1.9-.9 2.7-1 .1-1.7.7-3.55 1.15-3.75 3.55-4.65 2.45-.9 6.65-1.1" transform="translate(21.8 7.75)"/><path d="m-9.15-6.1 10-.1Q4.55-4.8 5.5-3q2.6 5 2.15 5.3l-4.2.85-4.8.6q-.8-.05-4.4-4.95l-3.4-4.9" fill="#020200" transform="translate(21.8 7.75)"/><path d="M-9.15-6.1q8.2 5.6 7.8 9.85-10.75.85-12.25-.1l-.15-1.9q0-1.85.35-2.45 2.8-5.05 4.25-5.4" fill="#3a3a3a" transform="translate(21.8 7.75)"/><path d="m8.8-1.8 1 2.35q0 .55-.55 1l-.95.6-1.25-3.5L8.8-1.8" fill="#020200" transform="translate(21.8 7.75)"/><path d="M-14.1 9.8q-.2.45-2.05.35l-3.3-.25q-2.8-.15-.75-3.85.65-1.15 3-2.35 2.25-1.2 4.35-1.5 2.75-.35 11.45 1.35 1.25.3-.6.55-10.35 2.05-12.1 5.7" fill="#5b5b5b" transform="translate(21.8 7.75)"/><path d="m.35 6.1 7.5-.5q.9 0 1.4.55l1.2.65-1.95.1-3.3-.6-2.9-.2H.35" fill="#d0d5d6" transform="translate(21.8 7.75)"/><path d="M-19.85 6.25q.15-1.1 2.85-2.45 3.35-1.75 5-1.3-1.85 0-5.2 2.6-2.1 1.8-2.65 1.2v-.05" fill="#828281" transform="translate(21.8 7.75)"/><path d="M-19.4 5.95q.15-.8 2.15-1.65-2 2.6-2.2 1.7l.05-.05" fill="#adadad" transform="translate(21.8 7.75)"/><path d="M6.55-.05q.35-.1 1.6-.75L8.8.25q.35.9-.25 1.25l-1.4.45q-3.1 1.1-3.75.8l.1-.05L2.75.55l3.8-.6" fill="#4f4f4e" transform="translate(21.8 7.75)"/><path d="M4.5 0h.05q.9-.05 1.1.3l.85 2.25-1.4.35L4.5 0" fill="#020200" transform="translate(21.8 7.75)"/><path d="M6.1.35 7.75-.2l.6.75-2.05.55-.2-.75" fill="#828281" transform="translate(21.8 7.75)"/></g></defs></svg>