<svg xmlns:xlink="http://www.w3.org/1999/xlink" height="92.9" width="100.7" xmlns="http://www.w3.org/2000/svg"><use height="42.65" transform="translate(9.9 39.4)" width="56.6" xlink:href="#a"/><defs><g id="a" fill-rule="evenodd"><path d="m3.25-4.9.45-.05-2.55-.5L.3-5.6l-1.7.1-1.8.8-.1.05L-4.9-3l-.95 1.35 1-.55Q.2-4.75 6-3.5l-.5.35-.2.85-1.9-.4 1.9 1.1-.2-.05.7.55.2.45-.8.1L2.25-2.4l1.4 1.95-.7.25L.8-1.85l1.5 2.9L1.9.5l1.8 5.45.55 2.9 1.1.15h.5l1.45-.05-.75-2.35 1.8 1.25q0 .45.3.75.25.3.6.3l.55.1 1.2.8-.25-1.5L12 8.05l.1 3 .3.45.25.45.6 1.05.3-1.4q.4-2.35.1-4.5l1.55-2.75q1.2 1.55 3.05.95 1.25-.25 2.1-1.05l.2-1-1.25.95-1.3.35h-.3l-.7-.1-.2-.05-1.45-.9V3q1.35 1.35 3.35.8l1.65-.9 1.7-1.8q.25 2.2-1.6 3.5l-1.6.95-.4.6q1.65 1.55 3.75.45 1.6-.8 2.15-2.4.15 2.6-2.2 3.85l-1.65.7q-1.1.1-1.6.9l3.9 3.55 1.35 1.9q.6 1.25.05 2.3-.9-1.35-2.3-2.3l-1.7-1.15q-1.3.65-1.05 1.95.45 2.55 3.05 3.45l2.5.7q1.65.45 3.15-.4-3.8 2.4-8.3 1.6l7.3 6q-5-.2-9.15-3.3l-5.1 5q.95-1.1 1-2.45v-.75l-5.4 2.7 5.25-5.8-3.75 1.3 3.05-3.4.85-1.25q.35-.5.1-.65l-3.35 2.8q2.35-3 2.35-6.7 0-1.15-.5-2.15l-1.4-2.15q-1-1.05-2.4-1l-14.3.5h-1l.65-6.9-3 7.3-3.4.2q-1 2.25.15 4.45l1.6 2.35 2.45 2.4q-1.4-.15-2.4-1.1l-2.95-3.2q-.8.9-.2 2.5l.75 1.65q1 1.9 2.6 2.95-1.85-.45-3.15-1.9.4 4.35 2.5 8.25-1.6-.65-2.6-2.15l-1.35-1.6 2.35 7.15q-2.25-2.1-3.9-4.65-1.3-2-1.6-4.3-3.4 1.05-6.95 1.1-2 .05-3.4-1.45 4.7-.25 7.95-3.65-1.4.2-2.8-.4l-3.9-2.15q2.3 1.2 4.95.7 1.55-.3 2.8-1.2l.8-4.25-1.2 2.15q-.35-3 .15-6l.7-2.4q.95-2.15 2.6-3.8-.85-.5-1.85-.7l-.95-.6-1.75-1.8q2.65 1.3 5.6.4.8-.25 1.35-.75-.95-.4-1.7-.9-.7-.55-1-1.35l-1.2-3.6q2.15 2.35 5.15 3.15L-12-4l.3-.1-.1-.3-.8-1.5-.8-2.15-.4-2.3q1.6 2.55 4.25 4.25 2.2 1.3 4.85.65l4.6-.65q3.9-.1 7.3 1.65l-.1.65-3.85-1.1m3 1.45.8.15-.05.8-.75-.95m9.1 9.1 1.25 2.3.6.45q.7.4 1.35.4 1.75 0 3.25-.95l.75-.6.55-.8-1.9 1-2.05-.05-3.1-1.45-.7-.4-.05-.05v.05h-.05l.1.1m.7 3.7q2.55 3.3 6.4 5.3l1.15.65q-1.75-2.85-4.75-4.75l1.2.6-1.3-1.05-3.15-1.45-.25-.1h-.2l.9.8m6.05 15.1.5.15-3.45-3.1-.75-.5-.5-.2-.05-.05v.05l-.4-.05.1.05.25.3q-.55 1.65 1.1 2.65 3.05 1.75 6.3 2.8l-3.1-2.1m-5.55-8.7q.2 1.4.7 2.65.35.9 1.35 1.7.95.8 2.2.8l2.65-.1 1.55-.35-3.65-.85-1.3-.8-1.75-1.55-1.85-3.9-.1-.2v.1l-.05.35.1.8.15 1.35m-6-11.8.45.65q-.9.55-.65-.35l.2-.3m.35-2.5 1.55.05.45 1.75-.9.4-.25-.2q-.9-1-.85-2m3.7 8.95-.05-.9-.4 3.6-.5 2.5.2-.9-.25 1.25-.15.7-1.35 2.3 2.15-1.65q.85-.65 1-1.65.55-3.15-.55-6.15l-.1.9M9.1 3.05l.25.9-.25.95q-.3.35-.7.35-.4 0-.65-.35-.3-.4-.3-.95 0-.55.3-.9.25-.4.65-.4t.7.4m-11.05 6.4 3.55.15q.85-3.35.25-6.65Q1.4.2-.65-1.65l.1.3-.3 2-1.1 8.8m16.85 9-.05-.4.6-1.2-3.05 4.95-1.45 1.4h-.05l2.7-1.05q1.2-.4 1.65-1.7.7-1.95.6-3.9l-.95 1.9m-.65 8.05h.2q1.3-1.1 1.85-2.4 1.1-2.55.1-4.95l-.2 1.1-4.3 5.15-1.5 1.35-.55.45L14.4 25l-.15 1.5M-11.4-6.35l-1.25-1.3-.6-.85.4.75 1.2 2 1.1 1.85 2.25.55 2.55-.35Q-4.6-3.95-4.2-5q-.85.95-2.15.7h-.15l-1.6-.15-.65-.2q-1-.35-1.85-1l-.8-.7m-3.1 2.55-1.3-.6-.4-.2-1.45-1.3 2 3.3q2 1.25 4.3 1l4.2-1.05-2.1-.15.15-.05-1.55-.05-1.7-.2-2.15-.7m3.75 3.15-.85.15-4.7.6-.05-.05V.1h-.2l.05.05-.25.05-2.8-.15 4.8 1.25.3.1 2-.6 1.65-.65q2.05-.5 3.65-1.8l.2-.5-3.55 1.4-.25.1m6.9.4v-.1l-.2.35-.9 1.8-.45 1.35-.35 2.55-.1 3.75h.65l2.25.05-.25-1.1q-1-5.2.75-10.1l-1.4 1.45M-11.4 9.3l1.45.25 1.9-5.85Q-7.4 1.95-6.2.8l1.65-1.55-3.4 2.7-2.1 2.8.05-.15-.1.25-.2.25-1 2-1.05 2.05.55.1.4.05m.15-7.5-1.6 1.1-1 .85-3.25 3.9-.7 1.1-1.05 1.85 2.8-.9 2.25-.35.8-1.95q1.95-5.15 6.2-8.35l-4.45 2.75m-8.05 5.55-.45 4.25q.7-3.3 2.85-5.8l.85-1.15q1.75-2.15 4-3.55l-2.75.9-1.05.45-.15.05-.25.15-.55.3-.1.15q-1.15.85-1.7 2.05l-.1.3-.1.1-.3.65-.2 1.15m2.55 4-.35.2.4-.4q-2 1.1-1.55 3.25.35 1.65 1.1 2.4l.95.95 2.05 2.3q.05-.7-.15-1.45l-1.05-4.7q-.4-2.1.65-3.8l-2.05 1.25m2.85 3.5 3.15 3.6L-12 16.6q-2.15-3-1.9-6.75-1.9 2.3-.45 4.8l.45.2m-10.15 3h-.65q2.55.95 5.15.9l.4-.05-.45-1.7-.1.05V17l-.1.05q-1.7.7-3.6.65h-1.25l.6.1h-.15l.15.05m6.5 6 .35 1.15q1.2 2.95 3.05 5.6-1.65-3.75-2.45-7.6l-.55-3.1q-.35-1.8-1-3.45l-.45-1.1.25 5.4.1-.7.25 2.35.3 1 .15.45m1.6-3.85-.4-.5-.4-1.1.85 3.05.35 1.8q.15 1.15 1.05 1.7l1.1 1.45 1.05 1.25-1.65-4.8-.75-1.6q-.4-.75-1.05-1.1l-.2-.3.05.15m-3.45-.7-.15.15-3.45 2.1h.1l-3 1.3-.55.25 1.3-.25-1.95.5q4 .25 8.1-.9l.45-.1q.15-.35 0-.9l-.2-.95-.5-1.25-.1.15-.05-.1" fill="#020200" transform="translate(28.75 10.35)"/><path d="M-4.9-3q3.25-1.6 6.8-1.8l1.35-.1L7.1-3.8l-.05.5-.8-.15L6-3.5Q.2-4.75-4.85-2.2l-1 .55L-4.9-3m20.25 6.5 1.45.9-.4-.15-1.05-.75M18 4.55l1.3-.35 1.25-.95-.2 1q-.85.8-2.1 1.05-1.85.6-3.05-.95l.1-.3.3.25q.75.5 1.75.45l.65-.2M13.65 7.1q.3 2.15-.1 4.5l-.3 1.4-.6-1.05.3-1.15q.4-1.55 0-3.2l.7-.5m-2.9 1.2L11 9.8 9.8 9l-.1-.7h1.05m-4.2-1.7.75 2.35L5.85 9 4.4 4.15 6.55 6.6M.8-1.85 2.95-.2 2.5.45.8-1.85m1.45-.55L5.2-.55l-.9.05-2.05-1.9m3.05.8L3.4-2.7l1.9.4.35.85-.35-.15m15.9 9.05 1.9-1-.55.8-.75.6q-1.5.95-3.25.95-.65 0-1.35-.4l-.6-.45-1.25-2.3Q16.6 7.5 18.9 7.8l2.3-.35m-5.9-1.9V5.5l.05.05h-.05m3.55 5q3 1.9 4.75 4.75l-1.15-.65q-3.85-2-6.4-5.3l2.8 1.2M17.8 21.1l4.3 3.35 3.1 2.1q-3.25-1.05-6.3-2.8-1.65-1-1.1-2.65m3.55-1.5 3.65.85-1.55.35-2.65.1q-1.25 0-2.2-.8-1-.8-1.35-1.7-.5-1.25-.7-2.65 1 2.45 3.6 3.35l1.2.5m-6.75-8.95v-.25l.1-.9q1.1 3 .55 6.15-.15 1-1 1.65l-2.15 1.65 1.35-2.3Q14.7 15.6 14.7 14l-.1-3.35m-15.15-12-.1-.3Q1.4.2 1.85 2.95q.6 3.3-.25 6.65l-3.55-.15Q-.65 7.3-.2 4.8L0 2.65l-.25-3.1-.3-.9m11.5 24.55q2.6-1.45 3.7-3.9l.25-.85.95-1.9q.1 1.95-.6 3.9-.45 1.3-1.65 1.7l-2.7 1.05h.05m5.25-2.95.2-1.1q1 2.4-.1 4.95-.55 1.3-1.85 2.4h-.2l.75-2.8-.6 1.3-4.55 2.2.55-.45q2.85-1.8 4.85-4.25l.45-.55.5-1.7M-8.75-4.65l.65.2-.35-.05-.3-.15m2.25.35h.15q1.3.25 2.15-.7-.4 1.05-1.55 1.3l-2.55.35-2.25-.55-1.1-1.85Q-9.95-4-7.5-4l1.45-.25-.45-.05m-6.35-3.45-.4-.75.6.85-.2-.1M-16.2-4.6l-.35-.1 1.4.9q2.65 1.8 5.9 1l2.1.15-4.2 1.05q-2.3.25-4.3-1l-2-3.3 1.45 1.3m4.4 4.2.2-.1.85-.15-1.05.25m-4.95.6q2.65 1.55 5.3-.25l.9-.65.05-.05 3.55-1.4-.2.5q-1.6 1.3-3.65 1.8l-1.65.65-2 .6-.3-.1-4.8-1.25 2.8.15M-5.2 9.45h.5l.85-9.7 1.4-1.45Q-4.2 3.2-3.2 8.4l.25 1.1-2.25-.05m-2.75-7.5 3.4-2.7L-6.2.8q-1.2 1.15-1.85 2.9l-1.9 5.85-1.45-.25 3.45-7.35m-4.4 7.2 1.05-2.05-.45.95-.6 1.1m-3.7.55q1.15-3.6 3.65-6.5l1.15-1.4L-6.8-.95q-4.25 3.2-6.2 8.35l-.8 1.95-2.25.35M-14.8 2l2.75-.9q-2.25 1.4-4 3.55l-.85 1.15q-2.15 2.5-2.85 5.8l.45-4.25L-14.8 2m-1.95 9.35 2.05-1.25q-1.05 1.7-.65 3.8l1.05 4.7q.2.75.15 1.45l-2.05-2.3-.3-.8-.5-2.35q-.2-1.75.25-3.25m-3.95 6.4.95-.05.05-.5.1-.2.45 1.7-.4.05q-2.6.05-5.15-.9h.95l3.05-.1m2.6-.45-.05-.85q.65 1.65 1 3.45l.55 3.1q.8 3.85 2.45 7.6Q-16 27.95-17.2 25l-.35-1.15-.55-6.55m1.75 2.2.4.5.65 2.35-1.05-2.85m.55.65q.65.35 1.05 1.1l.75 1.6 1.65 4.8-1.05-1.25-2.4-6.25m-3.55-.75.1-.15.5 1.25.2.95q.15.55 0 .9l-.45.1q-4.1 1.15-8.1.9l1.95-.5q2.9-.3 5.5-1.7l.5-.25-.2-1.5" fill="#711406" transform="translate(28.75 10.35)"/><path d="m1.15-5.45 2.55.5-.45.05-1.35.1q-3.55.2-6.8 1.8l1.6-1.65h.05l4.4-.8M16.8 4.4l.2.05.7.1h.3l-.65.2q-1 .05-1.75-.45l-.3-.25.05-.55 1.05.75.4.15m-4.15 7.55-.25-.45.15-1.7-.05-1.95.45-.25q.4 1.65 0 3.2l-.3 1.15M9.8 9l-.55-.1L9 8.1l.7.2.1.7M5.85 9h-.5l-1.9-5.65.95.8L5.85 9M2.3 1.05.8-1.85 2.5.45l-.1.75-.1-.15m1.35-1.5L2.25-2.4 4.3-.5l-.65.05M5.8-1.1l-.7-.55.2.05.35.15.15.35m15.4 8.55-2.3.35q-2.3-.3-3.55-2.15l-.1-.1h.1l.7.4q.9 1.45 2.7 1.45h.4l2.05.05m-2.35 3.1-2.8-1.2-.9-.8 3.6 1.55 1.3 1.05-1.2-.6m.3 10.95 3.45 3.1-.5-.15-4.3-3.35-.25-.3L19.6 22l-.45-.5m2.2-1.9-1.2-.5q-2.6-.9-3.6-3.35l-.15-1.35q.15.7.65 1.25l.45.6-1.15-3v-.1l.1.2 1.85 3.9 1.75 1.55 1.3.8m-7.2-6.5.4-3.6.05.9v.25l-.45 2.45M-.85.65l.3-2 .3.9.25 3.1-.2 2.15q-.45 2.5-1.75 4.65l.4-1.45q1.2-3.7.7-7.35m15.7 17.4.05.4-.25.85q-1.1 2.45-3.7 3.9l1.45-1.4 1.3-1.5 1.15-2.25m3 2.75v-.05l.05.05h-.05M14.4 25l.6-1.3-.75 2.8.15-1.5M-12.65-7.65l1.25 1.3q0 .75.9 1.3.85.55 2.05.55l.35.05 1.6.15.45.05L-7.5-4q-2.45 0-4.15-1.75l-1.2-2 .2.1M-16.2-4.6l.4.2 1.3.6-.2-.05q.85.8 2.05 1l.75-.15-.45-.1 1.7.2 1.55.05-.15.05q-3.25.8-5.9-1l-1.4-.9.35.1m4.4 4.2 1.05-.25.25-.1-.05.05-.9.65q-2.65 1.8-5.3.25l.25-.05 3.95-.2.75-.35m-4.5.5h-.05V.05l.05.05m10.9 3.05.45-1.35.9-1.8.2-.35v.1l-.85 9.7h-.5l.05-6.8-.25.5m-6 6.15-.4-.05 1.75-4.5 2.1-2.8-3.45 7.35m.1-2.2 1-2 .2-.25-1.65 3.2.45-.95m.05-5.3-1.15 1.4q-2.5 2.9-3.65 6.5l-2.8.9 1.05-1.85q1.15-.1 1.8-1.15l1.3-2.05 1.85-2.65 1.6-1.1m-3.55.2-4.5 5.35.2-1.15 3.1-3.7.15-.05L-14.8 2m-2.1 1.1.1-.15.55-.3-.65.45m-.2 8.45.35-.2q-.45 1.5-.25 3.25l.5 2.35.3.8-.95-.95-.35-.8q-1.05-2.4.4-4.45m-2.6 5.65-.05.5-.95.05.8-.35.2-.2m-4.05.65h-.3l-.15-.05h.15l.3.05m5.65-.55.55 6.55-.15-.45-.3-1-.25-2.35.15-2.75m-1.6-.25h-.1l.1-.05v.05m3.75 2.95-.05-.15.2.3 2.4 6.25-1.1-1.45-.8-2.6-.65-2.35m-3.45-.7.05.1.2 1.5-.5.25q-2.6 1.4-5.5 1.7l-1.3.25.55-.25 3-1.3q1.95-.1 3.2-1.55l.3-.7" fill="#ef9963" transform="translate(28.75 10.35)"/><path d="m1.15-5.45-4.4.8h-.05l.1-.05 1.8-.8 1.7-.1.85.15M12.4 11.5l-.3-.45-.1-3 .5-.2.05 1.95-.15 1.7M9.25 8.9q-.35 0-.6-.3-.3-.3-.3-.75L9 8.1l.25.8m-3.9.1-1.1-.15-.55-2.9L1.9.5l.4.55.1.15 1.05 2.15L5.35 9m10.7-3.05 3.1 1.45h-.4q-1.8 0-2.7-1.45m-.9 2.6h.2l.25.1 3.15 1.45-3.6-1.55m4 12.95.45.5-2.05-1.2-.1-.05.4.05h.05l.5.2.75.5m-2.75-7.1-.1-.8.05-.35 1.15 3-.45-.6q-.5-.55-.65-1.25M-1.95 9.45l1.1-8.8q.5 3.65-.7 7.35l-.4 1.45m16.8 8.6L13.7 20.3l-1.3 1.5 3.05-4.95-.6 1.2m1.35 2.2-.5 1.7-3.8 3.45 4.3-5.15m-27.6-26.6.8.7q.85.65 1.85 1l.3.15q-1.2 0-2.05-.55-.9-.55-.9-1.3m-.95 3.25.45.1-.75.15q-1.2-.2-2.05-1l.2.05 2.15.7m.75 2.6-.2.1-.75.35-3.95.2-.05-.05h.25l4.7-.6m6.2 3.65.25-.5-.05 6.8h-.65l.1-3.75.35-2.55m-6.4 6.1-.55-.1.6-1.1 1.65-3.2.1-.25-.05.15-1.75 4.5m-1.05-6.35-1.85 2.65L-16 7.6q-.65 1.05-1.8 1.15l.7-1.1 3.25-3.9 1-.85m-6.25 3.3.3-.65.1-.1.1-.3q.55-1.2 1.7-2.05l.65-.45.25-.15-3.1 3.7m1.95 10.6q-.75-.75-1.1-2.4-.45-2.15 1.55-3.25l-.4.4q-1.45 2.05-.4 4.45l.35.8m2.8-6.1-.05.1.55 4-.45-.65-.25-.85q-.35-1.3.2-2.6l.15-.2.3-.65-.3.65-.15.2q-.55 1.3-.2 2.6l.25.85.45.65-.55-4 .05-.1m.45 4.15-.4-.7.4.7-.45-.2q-1.45-2.5.45-4.8-.25 3.75 1.9 6.75l1.25 1.85-3.15-3.6m-5.8 2.35-.2.2-.8.35-3.05.1-.3-.05-.6-.1h1.25q1.9.05 3.6-.65h.1l.1-.05-.1.2m1.55-.75.05.85-.15 2.75-.1.7-.25-5.4.45 1.1m3.65 8.5q-.9-.55-1.05-1.7l-.35-1.8-.85-3.05.4 1.1 1.05 2.85.8 2.6m-8.4-3.4h-.1l3.45-2.1.15-.15-.3.7q-1.25 1.45-3.2 1.55" fill="#ffccb4" transform="translate(28.75 10.35)"/><path d="m14.15 13.1.45-2.45.1 3.35q0 1.6-1.25 2.65l.15-.7.25-1.25-.2.9.5-2.5m-.3 1.6.2-.9-.2.9m1.85 7.25-.45.55q-2 2.45-4.85 4.25l1.5-1.35 3.8-3.45" fill="#c79770" transform="translate(28.75 10.35)"/><path d="m7.1-3.8.1-.65.35-.2.6.1q.6.25.6 1.15l.5-1.9 1.35.55.1 1.65 1.85-1.85H13q1.65.7 1.85 2.2l.1 2.55.15 1.55.25 1.65v.5l-.05.55-.1.3-1.55 2.75-.7.5-.45.25-.5.2-1.25.25H9.7L9 8.1l-.65-.25-1.8-1.25L4.4 4.15l-.95-.8L2.4 1.2l.1-.75.45-.65.7-.25.65-.05.9-.05.8-.1-.2-.45-.15-.35-.35-.85.2-.85.5-.35.25.05.75.95.05-.8.05-.5m2.8-.7-.2-.1-.95 2.45L8.15-4l-.55-.1-.2 2.65L6.1-2.9l-.45.4.9 2.2L3.3.2l-.4.4q-.25 1.8 1.2 2.85 1.4.9 2.25 2.3.65.95 1.8 1.6 1.75.95 3.75.3 2.15-.8 2.75-3.05l.2-1.4-.1-1.65-.1-3.3q.1-2.2-1.9-2.65l-2.2 2.1-.65-2.2" transform="translate(28.75 10.35)"/><path d="m9.9-4.5.65 2.2 2.2-2.1q2 .45 1.9 2.65l.1 3.3.1 1.65-.2 1.4q-.6 2.25-2.75 3.05-2 .65-3.75-.3Q7 6.7 6.35 5.75q-.85-1.4-2.25-2.3Q2.65 2.4 2.9.6l.4-.4 3.25-.5-.9-2.2.45-.4 1.3 1.45.2-2.65.55.1.6 1.85.95-2.45.2.1-1.05 3.05L7.9-4 7.7-.9 5.9-2.65l1.05 2.4-.3.45L3.9.4l-.5.25-.25.9q.8 1.75 2.5 2.8l1.45 1.4L8.3 6.9l4 .2q2.1-1.05 2.4-3.5.2-1.5-.6-2.8.25-1.65-.05-3.2l-.5-1.1-.45-.45-2.6 2.3-.6-2.85" fill="#72010d" transform="translate(28.75 10.35)"/><path d="m9.9-4.5.6 2.85 2.6-2.3.45.45.5 1.1q.3 1.55.05 3.2.8 1.3.6 2.8-.3 2.45-2.4 3.5l-4-.2-1.2-1.15-1.45-1.4q-1.7-1.05-2.5-2.8l.25-.9.5-.25L6.65.2l.3-.45-1.05-2.4L7.7-.9 7.9-4l.95 2.55L9.9-4.5m1.55 3.55q-2-.35-3.7.8-1.4 1.2-1.35 3Q6.45 5.2 8.05 6.4l2.55-.5.25.7 1.25-.4-.1-.95.6-.3.9-.55.4-.75q.15-1.85-.6-3.3-.55-1.1-1.85-1.3" fill="#c60537" transform="translate(28.75 10.35)"/><path d="M11.45-.95q1.3.2 1.85 1.3.75 1.45.6 3.3l-.4.75-.9.55-.6.3.1.95-1.25.4-.25-.7-2.55.5Q6.45 5.2 6.4 2.85q-.05-1.8 1.35-3 1.7-1.15 3.7-.8m-.55 2.4q-.05 1 .85 2l.25.2.9-.4-.45-1.75-1.55-.05m-.35 2.5-.2.3q-.25.9.65.35l-.45-.65m-1.45-.9q-.3-.4-.7-.4-.4 0-.65.4-.3.35-.3.9t.3.95q.25.35.65.35t.7-.35l.25-.95-.25-.9" fill="#fff" transform="translate(28.75 10.35)"/></g></defs></svg>