<?xml version="1.0" encoding="UTF-8" standalone="no"?>
<svg xmlns:xlink="http://www.w3.org/1999/xlink" height="92.9px" width="100.7px" xmlns="http://www.w3.org/2000/svg">
  <g transform="matrix(1.0, 0.0, 0.0, 1.0, 38.65, 49.75)">
    <use height="42.65" transform="matrix(1.0, 0.0, 0.0, 1.0, -28.75, -10.35)" width="56.6" xlink:href="#shape0"/>
  </g>
  <defs>
    <g id="shape0" transform="matrix(1.0, 0.0, 0.0, 1.0, 28.75, 10.35)">
      <path d="M3.25 -4.9 L3.7 -4.95 1.15 -5.45 0.3 -5.6 -1.4 -5.5 -3.2 -4.7 -3.3 -4.65 -4.9 -3.0 -5.85 -1.65 -4.85 -2.2 Q0.2 -4.75 6.0 -3.5 L5.5 -3.15 5.3 -2.3 3.4 -2.7 5.3 -1.6 5.1 -1.65 5.8 -1.1 6.0 -0.65 5.2 -0.55 2.25 -2.4 3.65 -0.45 2.95 -0.2 0.8 -1.85 2.3 1.05 1.9 0.5 3.7 5.95 4.25 8.85 5.35 9.0 5.85 9.0 7.3 8.95 6.55 6.6 8.35 7.85 Q8.35 8.3 8.65 8.6 8.9 8.9 9.25 8.9 L9.8 9.0 11.0 9.8 10.75 8.3 12.0 8.05 12.1 11.05 12.4 11.5 12.65 11.95 13.25 13.0 13.55 11.6 Q13.95 9.25 13.65 7.1 L15.2 4.35 Q16.4 5.9 18.25 5.3 19.5 5.05 20.35 4.25 L20.55 3.25 19.3 4.2 18.0 4.55 17.7 4.55 17.0 4.45 16.8 4.4 15.35 3.5 15.35 3.0 Q16.7 4.35 18.7 3.8 L20.35 2.9 22.05 1.1 Q22.3 3.3 20.45 4.6 L18.85 5.55 18.45 6.15 Q20.1 7.7 22.2 6.6 23.8 5.8 24.35 4.2 24.5 6.8 22.15 8.05 L20.5 8.75 Q19.4 8.85 18.9 9.65 L22.8 13.2 24.15 15.1 Q24.75 16.35 24.2 17.4 23.3 16.05 21.9 15.1 L20.2 13.95 Q18.9 14.6 19.15 15.9 19.6 18.45 22.2 19.35 L24.7 20.05 Q26.35 20.5 27.85 19.65 24.05 22.05 19.55 21.25 L26.85 27.25 Q21.85 27.05 17.7 23.95 L12.6 28.95 Q13.55 27.85 13.6 26.5 L13.6 25.75 8.2 28.45 13.45 22.65 9.7 23.95 12.75 20.55 13.6 19.3 Q13.95 18.8 13.7 18.65 L10.35 21.45 Q12.7 18.45 12.7 14.75 12.7 13.6 12.2 12.6 L10.8 10.45 Q9.8 9.4 8.4 9.45 L-5.9 9.95 -6.9 9.95 -6.25 3.05 -9.25 10.35 -12.65 10.55 Q-13.65 12.8 -12.5 15.0 L-10.9 17.35 -8.45 19.75 Q-9.85 19.6 -10.85 18.65 L-13.8 15.45 Q-14.6 16.35 -14.0 17.95 L-13.25 19.6 Q-12.25 21.5 -10.65 22.55 -12.5 22.1 -13.8 20.65 -13.4 25.0 -11.3 28.9 -12.9 28.25 -13.9 26.75 L-15.25 25.15 -12.9 32.3 Q-15.15 30.2 -16.8 27.65 -18.1 25.65 -18.4 23.35 -21.8 24.4 -25.35 24.45 -27.35 24.5 -28.75 23.0 -24.05 22.75 -20.8 19.35 -22.2 19.55 -23.6 18.95 L-27.5 16.8 Q-25.2 18.0 -22.55 17.5 -21.0 17.2 -19.75 16.3 L-18.95 12.05 -20.15 14.2 Q-20.5 11.2 -20.0 8.2 L-19.3 5.8 Q-18.35 3.65 -16.7 2.0 -17.55 1.5 -18.55 1.3 L-19.5 0.7 -21.25 -1.1 Q-18.6 0.2 -15.65 -0.7 -14.85 -0.95 -14.3 -1.45 -15.25 -1.85 -16.0 -2.35 -16.7 -2.9 -17.0 -3.7 L-18.2 -7.3 Q-16.05 -4.95 -13.05 -4.15 L-12.0 -4.0 -11.7 -4.1 -11.8 -4.4 -12.6 -5.9 -13.4 -8.05 -13.8 -10.35 Q-12.2 -7.8 -9.55 -6.1 -7.35 -4.8 -4.7 -5.45 L-0.1 -6.1 Q3.8 -6.2 7.2 -4.45 L7.1 -3.8 3.25 -4.9 M6.25 -3.45 L7.05 -3.3 7.0 -2.5 6.25 -3.45 M15.35 5.65 L16.6 7.95 17.2 8.4 Q17.9 8.8 18.55 8.8 20.3 8.8 21.8 7.85 L22.55 7.25 23.1 6.45 21.2 7.45 19.15 7.4 16.05 5.95 15.35 5.55 15.3 5.5 15.3 5.55 15.25 5.55 15.35 5.65 M16.05 9.35 Q18.6 12.65 22.45 14.65 L23.6 15.3 Q21.85 12.45 18.85 10.55 L20.05 11.15 18.75 10.1 15.6 8.65 15.35 8.55 15.15 8.55 16.05 9.35 M22.1 24.45 L22.6 24.6 19.15 21.5 18.4 21.0 17.9 20.8 17.85 20.75 17.85 20.8 17.45 20.75 17.55 20.8 17.8 21.1 Q17.25 22.75 18.9 23.75 21.95 25.5 25.2 26.55 L22.1 24.45 M16.55 15.75 Q16.75 17.15 17.25 18.4 17.6 19.3 18.6 20.1 19.55 20.9 20.8 20.9 L23.45 20.8 25.0 20.45 21.35 19.6 20.05 18.8 18.3 17.25 16.45 13.35 16.35 13.15 16.35 13.25 16.3 13.6 16.4 14.4 16.55 15.75 M10.55 3.95 L11.0 4.6 Q10.1 5.15 10.35 4.25 L10.55 3.95 M10.9 1.45 L12.45 1.5 12.9 3.25 12.0 3.65 11.75 3.45 Q10.85 2.45 10.9 1.45 M14.6 10.4 L14.55 9.5 14.15 13.1 13.65 15.6 13.85 14.7 13.6 15.95 13.45 16.65 12.1 18.95 14.25 17.3 Q15.1 16.65 15.25 15.65 15.8 12.5 14.7 9.5 L14.6 10.4 M9.1 3.05 L9.35 3.95 9.1 4.9 Q8.8 5.25 8.4 5.25 8.0 5.25 7.75 4.9 7.45 4.5 7.45 3.95 7.45 3.4 7.75 3.05 8.0 2.65 8.4 2.65 8.8 2.65 9.1 3.05 M-1.95 9.45 L1.6 9.6 Q2.45 6.25 1.85 2.95 1.4 0.2 -0.65 -1.65 L-0.55 -1.35 -0.85 0.65 -1.95 9.45 M14.9 18.45 L14.85 18.05 15.45 16.85 12.4 21.8 10.95 23.2 10.9 23.2 13.6 22.15 Q14.8 21.75 15.25 20.45 15.95 18.5 15.85 16.55 L14.9 18.45 M14.25 26.5 L14.45 26.5 Q15.75 25.4 16.3 24.1 17.4 21.55 16.4 19.15 L16.2 20.25 11.9 25.4 10.4 26.75 9.85 27.2 14.4 25.0 14.25 26.5 M-11.4 -6.35 L-12.65 -7.65 -13.25 -8.5 -12.85 -7.75 -11.65 -5.75 -10.55 -3.9 -8.3 -3.35 -5.75 -3.7 Q-4.6 -3.95 -4.2 -5.0 -5.05 -4.05 -6.35 -4.3 L-6.5 -4.3 -8.1 -4.45 -8.75 -4.65 Q-9.75 -5.0 -10.6 -5.65 L-11.4 -6.35 M-14.5 -3.8 L-15.8 -4.4 -16.2 -4.6 -17.65 -5.9 -15.65 -2.6 Q-13.65 -1.35 -11.35 -1.6 L-7.15 -2.65 -9.25 -2.8 -9.1 -2.85 -10.65 -2.9 -12.35 -3.1 -14.5 -3.8 M-10.75 -0.65 L-11.6 -0.5 -16.3 0.1 -16.35 0.05 -16.35 0.1 -16.55 0.1 -16.5 0.15 -16.75 0.2 -19.55 0.05 -14.75 1.3 -14.45 1.4 -12.45 0.8 -10.8 0.15 Q-8.75 -0.35 -7.15 -1.65 L-6.95 -2.15 -10.5 -0.75 -10.75 -0.65 M-3.85 -0.25 L-3.85 -0.35 -4.05 0.0 -4.95 1.8 -5.4 3.15 -5.75 5.7 -5.85 9.45 -5.2 9.45 -2.95 9.5 -3.2 8.4 Q-4.2 3.2 -2.45 -1.7 L-3.85 -0.25 M-11.4 9.3 L-9.95 9.55 -8.05 3.7 Q-7.4 1.95 -6.2 0.8 L-4.55 -0.75 -7.95 1.95 -10.05 4.75 -10.0 4.6 -10.1 4.85 -10.3 5.1 -11.3 7.1 -12.35 9.15 -11.8 9.25 -11.4 9.3 M-11.25 1.8 L-12.85 2.9 -13.85 3.75 -17.1 7.65 -17.8 8.75 -18.85 10.6 -16.05 9.7 -13.8 9.35 -13.0 7.4 Q-11.05 2.25 -6.8 -0.95 L-11.25 1.8 M-19.3 7.35 L-19.75 11.6 Q-19.05 8.3 -16.9 5.8 L-16.05 4.65 Q-14.3 2.5 -12.05 1.1 L-14.8 2.0 -15.85 2.45 -16.0 2.5 -16.25 2.65 -16.8 2.95 -16.9 3.1 Q-18.05 3.95 -18.6 5.15 L-18.7 5.45 -18.8 5.55 -19.1 6.2 -19.3 7.35 M-16.75 11.35 L-17.1 11.55 -16.7 11.15 Q-18.7 12.25 -18.25 14.4 -17.9 16.05 -17.15 16.8 L-16.2 17.75 -14.15 20.05 Q-14.1 19.35 -14.3 18.6 L-15.35 13.9 Q-15.75 11.8 -14.7 10.1 L-16.75 11.35 M-13.9 14.85 L-10.75 18.45 -12.0 16.6 Q-14.15 13.6 -13.9 9.85 -15.8 12.15 -14.35 14.65 L-13.9 14.85 M-24.05 17.85 L-24.7 17.85 Q-22.15 18.8 -19.55 18.75 L-19.15 18.7 -19.6 17.0 -19.7 17.05 -19.7 17.0 -19.8 17.05 Q-21.5 17.75 -23.4 17.7 L-24.65 17.7 -24.05 17.8 -24.2 17.8 -24.05 17.85 M-17.55 23.85 L-17.2 25.0 Q-16.0 27.95 -14.15 30.6 -15.8 26.85 -16.6 23.0 L-17.15 19.9 Q-17.5 18.1 -18.15 16.45 L-18.6 15.35 -18.35 20.75 -18.25 20.05 -18.0 22.4 -17.7 23.4 -17.55 23.85 M-15.95 20.0 L-16.35 19.5 -16.75 18.4 -15.9 21.45 -15.55 23.25 Q-15.4 24.4 -14.5 24.95 L-13.4 26.4 -12.35 27.65 -14.0 22.85 -14.75 21.25 Q-15.15 20.5 -15.8 20.15 L-16.0 19.85 -15.95 20.0 M-19.4 19.3 L-19.55 19.45 -23.0 21.55 -22.9 21.55 -25.9 22.85 -26.45 23.1 -25.15 22.85 -27.1 23.35 Q-23.1 23.6 -19.0 22.45 L-18.55 22.35 Q-18.4 22.0 -18.55 21.45 L-18.75 20.5 -19.25 19.25 -19.35 19.4 -19.4 19.3" fill="#020200" fill-rule="evenodd" stroke="none"/>
      <path d="M-4.9 -3.0 Q-1.65 -4.6 1.9 -4.8 L3.25 -4.9 7.1 -3.8 7.05 -3.3 6.25 -3.45 6.0 -3.5 Q0.2 -4.75 -4.85 -2.2 L-5.85 -1.65 -4.9 -3.0 M15.35 3.5 L16.8 4.4 16.4 4.25 15.35 3.5 M18.0 4.55 L19.3 4.2 20.55 3.25 20.35 4.25 Q19.5 5.05 18.25 5.3 16.4 5.9 15.2 4.35 L15.3 4.05 15.6 4.3 Q16.35 4.8 17.35 4.75 L18.0 4.55 M13.65 7.1 Q13.95 9.25 13.55 11.6 L13.25 13.0 12.65 11.95 12.95 10.8 Q13.35 9.25 12.95 7.6 L13.65 7.1 M10.75 8.3 L11.0 9.8 9.8 9.0 9.7 8.3 10.75 8.3 M6.55 6.6 L7.3 8.95 5.85 9.0 4.4 4.15 6.55 6.6 M0.8 -1.85 L2.95 -0.2 2.5 0.45 0.8 -1.85 M2.25 -2.4 L5.2 -0.55 4.3 -0.5 2.25 -2.4 M5.3 -1.6 L3.4 -2.7 5.3 -2.3 5.65 -1.45 5.3 -1.6 M21.2 7.45 L23.1 6.45 22.55 7.25 21.8 7.85 Q20.3 8.8 18.55 8.8 17.9 8.8 17.2 8.4 L16.6 7.95 15.35 5.65 Q16.6 7.5 18.9 7.8 L21.2 7.45 M15.3 5.55 L15.3 5.5 15.35 5.55 15.3 5.55 M18.85 10.55 Q21.85 12.45 23.6 15.3 L22.45 14.65 Q18.6 12.65 16.05 9.35 L18.85 10.55 M17.8 21.1 L22.1 24.45 25.2 26.55 Q21.95 25.5 18.9 23.75 17.25 22.75 17.8 21.1 M21.35 19.6 L25.0 20.45 23.45 20.8 20.8 20.9 Q19.55 20.9 18.6 20.1 17.6 19.3 17.25 18.4 16.75 17.15 16.55 15.75 17.55 18.2 20.15 19.1 L21.35 19.6 M14.6 10.65 L14.6 10.4 14.7 9.5 Q15.8 12.5 15.25 15.65 15.1 16.65 14.25 17.3 L12.1 18.95 13.45 16.65 Q14.7 15.6 14.7 14.0 L14.6 10.65 M-0.55 -1.35 L-0.65 -1.65 Q1.4 0.2 1.85 2.95 2.45 6.25 1.6 9.6 L-1.95 9.45 Q-0.65 7.3 -0.2 4.8 L0.0 2.65 -0.25 -0.45 -0.55 -1.35 M10.95 23.2 Q13.55 21.75 14.65 19.3 L14.9 18.45 15.85 16.55 Q15.95 18.5 15.25 20.45 14.8 21.75 13.6 22.15 L10.9 23.2 10.95 23.2 M16.2 20.25 L16.4 19.15 Q17.4 21.55 16.3 24.1 15.75 25.4 14.45 26.5 L14.25 26.5 15.0 23.7 14.4 25.0 9.85 27.2 10.4 26.75 Q13.25 24.95 15.25 22.5 L15.7 21.95 16.2 20.25 M-8.75 -4.65 L-8.1 -4.45 -8.45 -4.5 -8.75 -4.65 M-6.5 -4.3 L-6.35 -4.3 Q-5.05 -4.05 -4.2 -5.0 -4.6 -3.95 -5.75 -3.7 L-8.3 -3.35 -10.55 -3.9 -11.65 -5.75 Q-9.95 -4.0 -7.5 -4.0 L-6.05 -4.25 -6.5 -4.3 M-12.85 -7.75 L-13.25 -8.5 -12.65 -7.65 -12.85 -7.75 M-16.2 -4.6 L-16.55 -4.7 -15.15 -3.8 Q-12.5 -2.0 -9.25 -2.8 L-7.15 -2.65 -11.35 -1.6 Q-13.65 -1.35 -15.65 -2.6 L-17.65 -5.9 -16.2 -4.6 M-11.8 -0.4 L-11.6 -0.5 -10.75 -0.65 -11.8 -0.4 M-16.75 0.2 Q-14.1 1.75 -11.45 -0.05 L-10.55 -0.7 -10.5 -0.75 -6.95 -2.15 -7.15 -1.65 Q-8.75 -0.35 -10.8 0.15 L-12.45 0.8 -14.45 1.4 -14.75 1.3 -19.55 0.05 -16.75 0.2 M-5.2 9.45 L-4.7 9.45 -3.85 -0.25 -2.45 -1.7 Q-4.2 3.2 -3.2 8.4 L-2.95 9.5 -5.2 9.45 M-7.95 1.95 L-4.55 -0.75 -6.2 0.8 Q-7.4 1.95 -8.05 3.7 L-9.95 9.55 -11.4 9.3 -7.95 1.95 M-12.35 9.15 L-11.3 7.1 -11.75 8.05 -12.35 9.15 M-16.05 9.7 Q-14.9 6.1 -12.4 3.2 L-11.25 1.8 -6.8 -0.95 Q-11.05 2.25 -13.0 7.4 L-13.8 9.35 -16.05 9.7 M-14.8 2.0 L-12.05 1.1 Q-14.3 2.5 -16.05 4.65 L-16.9 5.8 Q-19.05 8.3 -19.75 11.6 L-19.3 7.35 -14.8 2.0 M-16.75 11.35 L-14.7 10.1 Q-15.75 11.8 -15.35 13.9 L-14.3 18.6 Q-14.1 19.35 -14.15 20.05 L-16.2 17.75 -16.5 16.95 -17.0 14.6 Q-17.2 12.85 -16.75 11.35 M-20.7 17.75 L-19.75 17.7 -19.7 17.2 -19.6 17.0 -19.15 18.7 -19.55 18.75 Q-22.15 18.8 -24.7 17.85 L-24.05 17.85 -23.75 17.85 -20.7 17.75 M-18.1 17.3 L-18.15 16.45 Q-17.5 18.1 -17.15 19.9 L-16.6 23.0 Q-15.8 26.85 -14.15 30.6 -16.0 27.95 -17.2 25.0 L-17.55 23.85 -18.1 17.3 M-16.35 19.5 L-15.95 20.0 -15.3 22.35 -16.35 19.5 M-15.8 20.15 Q-15.15 20.5 -14.75 21.25 L-14.0 22.85 -12.35 27.65 -13.4 26.4 -15.8 20.15 M-19.35 19.4 L-19.25 19.25 -18.75 20.5 -18.55 21.45 Q-18.4 22.0 -18.55 22.35 L-19.0 22.45 Q-23.1 23.6 -27.1 23.35 L-25.15 22.85 Q-22.25 22.55 -19.65 21.15 L-19.15 20.9 -19.35 19.4" fill="#711406" fill-rule="evenodd" stroke="none"/>
      <path d="M1.15 -5.45 L3.7 -4.95 3.25 -4.9 1.9 -4.8 Q-1.65 -4.6 -4.9 -3.0 L-3.3 -4.65 -3.25 -4.65 1.15 -5.45 M16.8 4.4 L17.0 4.45 17.7 4.55 18.0 4.55 17.35 4.75 Q16.35 4.8 15.6 4.3 L15.3 4.05 15.35 3.5 16.4 4.25 16.8 4.4 M12.65 11.95 L12.4 11.5 12.55 9.8 12.5 7.85 12.95 7.6 Q13.35 9.25 12.95 10.8 L12.65 11.95 M9.8 9.0 L9.25 8.9 9.0 8.1 9.7 8.3 9.8 9.0 M5.85 9.0 L5.35 9.0 3.45 3.35 4.4 4.15 5.85 9.0 M2.3 1.05 L0.8 -1.85 2.5 0.45 2.4 1.2 2.3 1.05 M3.65 -0.45 L2.25 -2.4 4.3 -0.5 3.65 -0.45 M5.8 -1.1 L5.1 -1.65 5.3 -1.6 5.65 -1.45 5.8 -1.1 M21.2 7.45 L18.9 7.8 Q16.6 7.5 15.35 5.65 L15.25 5.55 15.3 5.55 15.35 5.55 16.05 5.95 Q16.95 7.4 18.75 7.4 L19.15 7.4 21.2 7.45 M18.85 10.55 L16.05 9.35 15.15 8.55 18.75 10.1 20.05 11.15 18.85 10.55 M19.15 21.5 L22.6 24.6 22.1 24.45 17.8 21.1 17.55 20.8 19.6 22.0 19.15 21.5 M21.35 19.6 L20.15 19.1 Q17.55 18.2 16.55 15.75 L16.4 14.4 Q16.55 15.1 17.05 15.65 L17.5 16.25 16.35 13.25 16.35 13.15 16.45 13.35 18.3 17.25 20.05 18.8 21.35 19.6 M14.15 13.1 L14.55 9.5 14.6 10.4 14.6 10.65 14.15 13.1 M-0.85 0.65 L-0.55 -1.35 -0.25 -0.45 0.0 2.65 -0.2 4.8 Q-0.65 7.3 -1.95 9.45 L-1.55 8.0 Q-0.35 4.3 -0.85 0.65 M14.85 18.05 L14.9 18.45 14.65 19.3 Q13.55 21.75 10.95 23.2 L12.4 21.8 13.7 20.3 14.85 18.05 M17.85 20.8 L17.85 20.75 17.9 20.8 17.85 20.8 M14.4 25.0 L15.0 23.7 14.25 26.5 14.4 25.0 M-12.65 -7.65 L-11.4 -6.35 Q-11.4 -5.6 -10.5 -5.05 -9.65 -4.5 -8.45 -4.5 L-8.1 -4.45 -6.5 -4.3 -6.05 -4.25 -7.5 -4.0 Q-9.95 -4.0 -11.65 -5.75 L-12.85 -7.75 -12.65 -7.65 M-16.2 -4.6 L-15.8 -4.4 -14.5 -3.8 -14.7 -3.85 Q-13.85 -3.05 -12.65 -2.85 L-11.9 -3.0 -12.35 -3.1 -10.65 -2.9 -9.1 -2.85 -9.25 -2.8 Q-12.5 -2.0 -15.15 -3.8 L-16.55 -4.7 -16.2 -4.6 M-11.8 -0.4 L-10.75 -0.65 -10.5 -0.75 -10.55 -0.7 -11.45 -0.05 Q-14.1 1.75 -16.75 0.2 L-16.5 0.15 -12.55 -0.05 -11.8 -0.4 M-16.3 0.1 L-16.35 0.1 -16.35 0.05 -16.3 0.1 M-5.4 3.15 L-4.95 1.8 -4.05 0.0 -3.85 -0.35 -3.85 -0.25 -4.7 9.45 -5.2 9.45 -5.15 2.65 -5.4 3.15 M-11.4 9.3 L-11.8 9.25 -10.05 4.75 -7.95 1.95 -11.4 9.3 M-11.3 7.1 L-10.3 5.1 -10.1 4.85 -11.75 8.05 -11.3 7.1 M-11.25 1.8 L-12.4 3.2 Q-14.9 6.1 -16.05 9.7 L-18.85 10.6 -17.8 8.75 Q-16.65 8.65 -16.0 7.6 L-14.7 5.55 -12.85 2.9 -11.25 1.8 M-14.8 2.0 L-19.3 7.35 -19.1 6.2 -16.0 2.5 -15.85 2.45 -14.8 2.0 M-16.9 3.1 L-16.8 2.95 -16.25 2.65 -16.9 3.1 M-17.1 11.55 L-16.75 11.35 Q-17.2 12.85 -17.0 14.6 L-16.5 16.95 -16.2 17.75 -17.15 16.8 -17.5 16.0 Q-18.55 13.6 -17.1 11.55 M-19.7 17.2 L-19.75 17.7 -20.7 17.75 -19.9 17.4 -19.7 17.2 M-23.75 17.85 L-24.05 17.85 -24.2 17.8 -24.05 17.8 -23.75 17.85 M-18.1 17.3 L-17.55 23.85 -17.7 23.4 -18.0 22.4 -18.25 20.05 -18.1 17.3 M-19.7 17.05 L-19.8 17.05 -19.7 17.0 -19.7 17.05 M-15.95 20.0 L-16.0 19.85 -15.8 20.15 -13.4 26.4 -14.5 24.95 -15.3 22.35 -15.95 20.0 M-19.4 19.3 L-19.35 19.4 -19.15 20.9 -19.65 21.15 Q-22.25 22.55 -25.15 22.85 L-26.45 23.1 -25.9 22.85 -22.9 21.55 Q-20.95 21.45 -19.7 20.0 L-19.4 19.3" fill="#ef9963" fill-rule="evenodd" stroke="none"/>
      <path d="M1.15 -5.45 L-3.25 -4.65 -3.3 -4.65 -3.2 -4.7 -1.4 -5.5 0.3 -5.6 1.15 -5.45 M12.4 11.5 L12.1 11.05 12.0 8.05 12.5 7.85 12.55 9.8 12.4 11.5 M9.25 8.9 Q8.9 8.9 8.65 8.6 8.35 8.3 8.35 7.85 L9.0 8.1 9.25 8.9 M5.35 9.0 L4.25 8.85 3.7 5.95 1.9 0.5 2.3 1.05 2.4 1.2 3.45 3.35 5.35 9.0 M16.05 5.95 L19.15 7.4 18.75 7.4 Q16.95 7.4 16.05 5.95 M15.15 8.55 L15.35 8.55 15.6 8.65 18.75 10.1 15.15 8.55 M19.15 21.5 L19.6 22.0 17.55 20.8 17.45 20.75 17.85 20.8 17.9 20.8 18.4 21.0 19.15 21.5 M16.4 14.4 L16.3 13.6 16.35 13.25 17.5 16.25 17.05 15.65 Q16.55 15.1 16.4 14.4 M-1.95 9.45 L-0.85 0.65 Q-0.35 4.3 -1.55 8.0 L-1.95 9.45 M14.85 18.05 L13.7 20.3 12.4 21.8 15.45 16.85 14.85 18.05 M16.2 20.25 L15.7 21.95 11.9 25.4 16.2 20.25 M-11.4 -6.35 L-10.6 -5.65 Q-9.75 -5.0 -8.75 -4.65 L-8.45 -4.5 Q-9.65 -4.5 -10.5 -5.05 -11.4 -5.6 -11.4 -6.35 M-12.35 -3.1 L-11.9 -3.0 -12.65 -2.85 Q-13.85 -3.05 -14.7 -3.85 L-14.5 -3.8 -12.35 -3.1 M-11.6 -0.5 L-11.8 -0.4 -12.55 -0.05 -16.5 0.15 -16.55 0.1 -16.35 0.1 -16.3 0.1 -11.6 -0.5 M-5.4 3.15 L-5.15 2.65 -5.2 9.45 -5.85 9.45 -5.75 5.7 -5.4 3.15 M-11.8 9.25 L-12.35 9.15 -11.75 8.05 -10.1 4.85 -10.0 4.6 -10.05 4.75 -11.8 9.25 M-12.85 2.9 L-14.7 5.55 -16.0 7.6 Q-16.65 8.65 -17.8 8.75 L-17.1 7.65 -13.85 3.75 -12.85 2.9 M-19.1 6.2 L-18.8 5.55 -18.7 5.45 -18.6 5.15 Q-18.05 3.95 -16.9 3.1 L-16.25 2.65 -16.0 2.5 -19.1 6.2 M-17.15 16.8 Q-17.9 16.05 -18.25 14.4 -18.7 12.25 -16.7 11.15 L-17.1 11.55 Q-18.55 13.6 -17.5 16.0 L-17.15 16.8 M-14.35 10.7 L-14.4 10.8 -13.85 14.8 -14.3 14.15 -14.55 13.3 Q-14.9 12.0 -14.35 10.7 L-14.2 10.5 -13.9 9.85 -14.2 10.5 -14.35 10.7 Q-14.9 12.0 -14.55 13.3 L-14.3 14.15 -13.85 14.8 -14.4 10.8 -14.35 10.7 M-13.9 14.85 L-14.3 14.15 -13.9 14.85 -14.35 14.65 Q-15.8 12.15 -13.9 9.85 -14.15 13.6 -12.0 16.6 L-10.75 18.45 -13.9 14.85 M-19.7 17.2 L-19.9 17.4 -20.7 17.75 -23.75 17.85 -24.05 17.8 -24.65 17.7 -23.4 17.7 Q-21.5 17.75 -19.8 17.05 L-19.7 17.05 -19.6 17.0 -19.7 17.2 M-18.15 16.45 L-18.1 17.3 -18.25 20.05 -18.35 20.75 -18.6 15.35 -18.15 16.45 M-14.5 24.95 Q-15.4 24.4 -15.55 23.25 L-15.9 21.45 -16.75 18.4 -16.35 19.5 -15.3 22.35 -14.5 24.95 M-22.9 21.55 L-23.0 21.55 -19.55 19.45 -19.4 19.3 -19.7 20.0 Q-20.95 21.45 -22.9 21.55" fill="#ffccb4" fill-rule="evenodd" stroke="none"/>
      <path d="M14.15 13.1 L14.6 10.65 14.7 14.0 Q14.7 15.6 13.45 16.65 L13.6 15.95 13.85 14.7 13.65 15.6 14.15 13.1 M13.85 14.7 L14.05 13.8 13.85 14.7 M15.7 21.95 L15.25 22.5 Q13.25 24.95 10.4 26.75 L11.9 25.4 15.7 21.95" fill="#c79770" fill-rule="evenodd" stroke="none"/>
      <path d="M7.1 -3.8 L7.2 -4.45 7.55 -4.65 8.15 -4.55 Q8.75 -4.3 8.75 -3.4 L9.25 -5.3 10.6 -4.75 10.7 -3.1 12.55 -4.95 13.0 -4.95 Q14.65 -4.25 14.85 -2.75 L14.95 -0.2 15.1 1.35 15.35 3.0 15.35 3.5 15.3 4.05 15.2 4.35 13.65 7.1 12.95 7.6 12.5 7.85 12.0 8.05 10.75 8.3 9.7 8.3 9.0 8.1 8.35 7.85 6.55 6.6 4.4 4.15 3.45 3.35 2.4 1.2 2.5 0.45 2.95 -0.2 3.65 -0.45 4.3 -0.5 5.2 -0.55 6.0 -0.65 5.8 -1.1 5.65 -1.45 5.3 -2.3 5.5 -3.15 6.0 -3.5 6.25 -3.45 7.0 -2.5 7.05 -3.3 7.1 -3.8 M9.9 -4.5 L9.7 -4.6 8.75 -2.15 8.15 -4.0 7.6 -4.1 7.4 -1.45 6.1 -2.9 5.65 -2.5 6.55 -0.3 3.3 0.2 2.9 0.6 Q2.65 2.4 4.1 3.45 5.5 4.35 6.35 5.75 7.0 6.7 8.15 7.35 9.9 8.3 11.9 7.65 14.05 6.85 14.65 4.6 L14.85 3.2 14.75 1.55 14.65 -1.75 Q14.75 -3.95 12.75 -4.4 L10.55 -2.3 9.9 -4.5" fill="#000000" fill-rule="evenodd" stroke="none"/>
      <path d="M9.9 -4.5 L10.55 -2.3 12.75 -4.4 Q14.75 -3.95 14.65 -1.75 L14.75 1.55 14.85 3.2 14.65 4.6 Q14.05 6.85 11.9 7.65 9.9 8.3 8.15 7.35 7.0 6.7 6.35 5.75 5.5 4.35 4.1 3.45 2.65 2.4 2.9 0.6 L3.3 0.2 6.55 -0.3 5.65 -2.5 6.1 -2.9 7.4 -1.45 7.6 -4.1 8.15 -4.0 8.75 -2.15 9.7 -4.6 9.9 -4.5 8.85 -1.45 7.9 -4.0 7.7 -0.9 5.9 -2.65 6.95 -0.25 6.65 0.2 3.9 0.4 3.4 0.65 3.15 1.55 Q3.95 3.3 5.65 4.35 L7.1 5.75 8.3 6.9 12.3 7.1 Q14.4 6.05 14.7 3.6 14.9 2.1 14.1 0.8 14.35 -0.85 14.05 -2.4 L13.55 -3.5 13.1 -3.95 10.5 -1.65 9.9 -4.5" fill="#72010d" fill-rule="evenodd" stroke="none"/>
      <path d="M9.9 -4.5 L10.5 -1.65 13.1 -3.95 13.55 -3.5 14.05 -2.4 Q14.35 -0.85 14.1 0.8 14.9 2.1 14.7 3.6 14.4 6.05 12.3 7.1 L8.3 6.9 7.1 5.75 5.65 4.35 Q3.95 3.3 3.15 1.55 L3.4 0.65 3.9 0.4 6.65 0.2 6.95 -0.25 5.9 -2.65 7.7 -0.9 7.9 -4.0 8.85 -1.45 9.9 -4.5 M11.45 -0.95 Q9.45 -1.3 7.75 -0.15 6.35 1.05 6.4 2.85 6.45 5.2 8.05 6.4 L10.6 5.9 10.85 6.6 12.1 6.2 12.0 5.25 12.6 4.95 13.5 4.4 13.9 3.65 Q14.05 1.8 13.3 0.35 12.75 -0.75 11.45 -0.95" fill="#c60537" fill-rule="evenodd" stroke="none"/>
      <path d="M11.45 -0.95 Q12.75 -0.75 13.3 0.35 14.05 1.8 13.9 3.65 L13.5 4.4 12.6 4.95 12.0 5.25 12.1 6.2 10.85 6.6 10.6 5.9 8.05 6.4 Q6.45 5.2 6.4 2.85 6.35 1.05 7.75 -0.15 9.45 -1.3 11.45 -0.95 M10.9 1.45 Q10.85 2.45 11.75 3.45 L12.0 3.65 12.9 3.25 12.45 1.5 10.9 1.45 M10.55 3.95 L10.35 4.25 Q10.1 5.15 11.0 4.6 L10.55 3.95 M9.1 3.05 Q8.8 2.65 8.4 2.65 8.0 2.65 7.75 3.05 7.45 3.4 7.45 3.95 7.45 4.5 7.75 4.9 8.0 5.25 8.4 5.25 8.8 5.25 9.1 4.9 L9.35 3.95 9.1 3.05" fill="#ffffff" fill-rule="evenodd" stroke="none"/>
    </g>
  </defs>
</svg>
