<?xml version="1.0" encoding="UTF-8" standalone="no"?>
<svg
   height="92.9"
   width="100.7"
   version="1.1"
   id="svg1921"
   sodipodi:docname="43.svg"
   inkscape:version="1.1.1 (3bf5ae0d25, 2021-09-20, custom)"
   xmlns:inkscape="http://www.inkscape.org/namespaces/inkscape"
   xmlns:sodipodi="http://sodipodi.sourceforge.net/DTD/sodipodi-0.dtd"
   xmlns:xlink="http://www.w3.org/1999/xlink"
   xmlns="http://www.w3.org/2000/svg"
   xmlns:svg="http://www.w3.org/2000/svg">
  <sodipodi:namedview
     id="namedview1923"
     pagecolor="#505050"
     bordercolor="#eeeeee"
     borderopacity="1"
     inkscape:pageshadow="0"
     inkscape:pageopacity="0"
     inkscape:pagecheckerboard="0"
     showgrid="false"
     inkscape:current-layer="svg1921" />
  <use
     height="33.25"
     transform="translate(18.15 40.4)"
     width="39.4"
     xlink:href="#a"
     id="use1892" />
  <defs
     id="defs1919">
    <g
       id="a">
      <path
         d="m-15.3 14.6.75-4.05.95-3.05q.9-2.5 2.6-5.7l.2-.4.4-.75 1.05-1.75 1.25-1.7 1.55-1.35 2-1.25 4.35-.8 2.45.2.65.2 1.1.55L6-3.8Q7.65-2.3 9.2.1l.55.85q2.55 4.2 4.2 8.8L15.1 14l-3.65 1.9q-.25-.15-.1-.5Q1.75-9.55-8.1 7.25l-.15.25q-1.9 3.25-3.75 8.05l-.05.05 1.05 1.15-4.3-2.15"
         fill="#c00"
         fill-rule="evenodd"
         transform="translate(20.5 9.35)"
         id="path1894" />
      <path
         d="m-15.3 14.6 4.3 2.15q1.5 1.3 3.7 1.8l-4.35 4.85-4.45-4.15-2.7-2.55-1.2-4.4 4.7 2.3m26.75 1.3L15.1 14l3.3-1.4-1.3 5.1-6 5.35-4.4-4.65q3.05-.75 4.75-2.5"
         fill="red"
         fill-rule="evenodd"
         transform="translate(20.5 9.35)"
         id="path1896" />
      <path
         d="M-11.65 23.4q-2.45-1.65-4.5-3.9l.05-.25 4.45 4.15"
         fill="#f36"
         fill-rule="evenodd"
         transform="translate(20.5 9.35)"
         id="path1898" />
      <path
         d="m-15.3 14.6 4.3 2.15 3.7 1.8m18.75-2.65L15.1 14l3.3-1.4M6.7 18.4l4.75-2.5M-20 12.3l4.7 2.3"
         fill="none"
         stroke="#fff"
         stroke-linecap="round"
         stroke-linejoin="round"
         transform="translate(20.5 9.35)"
         id="path1900" />
      <path
         d="m18.4 12.6-1.3 5.1-6 5.35m-27.2-3.8-2.7-2.55-1.2-4.4m3.9 6.95 4.45 4.15"
         fill="none"
         stroke="#900"
         stroke-linecap="round"
         stroke-linejoin="round"
         transform="translate(20.5 9.35)"
         id="path1902" />
      <path
         d="M-19.4-6.25q1.95.05 10.05 4l1.25.6L-.4 1.9l18.6-8.25L-.4 14l-19-20.25"
         fill="red"
         fill-rule="evenodd"
         transform="translate(20.5 9.35)"
         id="path1904" />
      <path
         d="M-19.4-6.25q1.95.05 10.05 4l1.25.6"
         fill="none"
         stroke="#fff"
         stroke-linecap="round"
         stroke-linejoin="round"
         transform="translate(20.5 9.35)"
         id="path1906" />
      <path
         d="M-8.1-1.65-.4 1.9l18.6-8.25"
         fill="none"
         stroke="#fff"
         stroke-linecap="round"
         stroke-linejoin="round"
         transform="translate(20.5 9.35)"
         id="path1908" />
      <path
         d="M18.2-6.35-.4 14l-19-20.25"
         fill="none"
         stroke="#900"
         stroke-linecap="round"
         stroke-linejoin="round"
         transform="translate(20.5 9.35)"
         id="path1910" />
      <path
         d="M-.45-9.35q2.75 1.5 4.7 4.25Q6.2-2.35 6.2 1.55q0 1.95-.5 3.65l-6.2 4-6.1-4q-.5-1.7-.5-3.65 0-3.9 1.95-6.65 1.95-2.75 4.7-4.25"
         fill="#c00"
         fill-rule="evenodd"
         transform="translate(20.5 9.35)"
         id="path1912" />
      <path
         d="M2.65-2.5q.7.6.7 1.5 0 .75-.5 1.3l-.9.6q.9.2 1.35.75.45.55.45 1.35L3.4 4.2l-.85.85-1 .3-1.2.1H-4.2v-8.6H.75q1.25 0 1.9.65M.5-1.2l-.85-.2h-1.2V.25H-.4L.5 0l.2-.6-.2-.6m-.7 4.8 1-.25.25-.65-.25-.6-1-.25h-1.35V3.6H-.2"
         fill="#fff"
         fill-rule="evenodd"
         transform="translate(20.5 9.35)"
         id="path1914" />
      <path
         d="M-.2 3.6h-1.35V1.85H-.2l1 .25.25.6-.25.65-1 .25m.7-4.8.2.6-.2.6-.9.25h-1.15V-1.4h1.2l.85.2"
         fill="#c00"
         fill-rule="evenodd"
         transform="translate(20.5 9.35)"
         id="path1916" />
    </g>
  </defs>
</svg>
