<?xml version="1.0" encoding="UTF-8" standalone="no"?>
<svg
   height="92.9"
   width="100.7"
   version="1.1"
   id="svg1917"
   sodipodi:docname="52.svg"
   inkscape:version="1.1.1 (3bf5ae0d25, 2021-09-20, custom)"
   xmlns:inkscape="http://www.inkscape.org/namespaces/inkscape"
   xmlns:sodipodi="http://sodipodi.sourceforge.net/DTD/sodipodi-0.dtd"
   xmlns:xlink="http://www.w3.org/1999/xlink"
   xmlns="http://www.w3.org/2000/svg"
   xmlns:svg="http://www.w3.org/2000/svg">
  <sodipodi:namedview
     id="namedview1919"
     pagecolor="#505050"
     bordercolor="#eeeeee"
     borderopacity="1"
     inkscape:pageshadow="0"
     inkscape:pageopacity="0"
     inkscape:pagecheckerboard="0"
     showgrid="false"
     inkscape:current-layer="svg1917" />
  <g
     transform="translate(38.65,49.75)"
     id="g1889">
    <use
       height="4"
       transform="translate(-15.4,8.75)"
       width="4"
       xlink:href="#a"
       id="use1857"
       x="0"
       y="0"
       style="fill:#cccccc;fill-opacity:1;stroke:#999999;stroke-opacity:1" />
    <use
       height="4"
       transform="translate(10.9,8.95)"
       width="4"
       xlink:href="#a"
       id="use1859"
       x="0"
       y="0"
       style="fill:#cccccc;fill-opacity:1;stroke:#999999;stroke-opacity:1" />
    <use
       height="21.950001"
       transform="translate(-14.25,-14.45)"
       width="26.950001"
       xlink:href="#b"
       id="use1861"
       x="0"
       y="0" />
    <use
       height="4"
       transform="translate(9.4,-0.35)"
       width="4"
       xlink:href="#a"
       id="use1863"
       x="0"
       y="0"
       style="fill:#cccccc;fill-opacity:1;stroke:#999999;stroke-opacity:1" />
    <use
       height="17.25"
       transform="translate(4.15,-14)"
       width="11.75"
       xlink:href="#c"
       id="use1865"
       x="0"
       y="0" />
    <use
       height="4"
       transform="translate(7.65,0.9)"
       width="4"
       xlink:href="#a"
       id="use1867"
       x="0"
       y="0"
       style="fill:#00a2cc;fill-opacity:1;stroke:#006f99;stroke-opacity:1" />
    <use
       height="4"
       transform="translate(5,1.55)"
       width="4"
       xlink:href="#a"
       id="use1869"
       x="0"
       y="0"
       style="fill:#cccccc;fill-opacity:1;stroke:#999999;stroke-opacity:1" />
    <use
       height="4"
       transform="translate(-15.25,-4.6)"
       width="4"
       xlink:href="#a"
       id="use1871"
       x="0"
       y="0"
       style="fill:#00a2cc;fill-opacity:1;stroke:#006f99;stroke-opacity:1" />
    <use
       height="4"
       transform="translate(-13.9,-3.35)"
       width="4"
       xlink:href="#a"
       id="use1873"
       x="0"
       y="0"
       style="fill:#cccccc;fill-opacity:1;stroke:#999999;stroke-opacity:1" />
    <use
       height="4"
       transform="translate(-12.25,-2.5)"
       width="4"
       xlink:href="#a"
       id="use1875"
       x="0"
       y="0"
       style="fill:#00a2cc;fill-opacity:1;stroke:#006f99;stroke-opacity:1" />
    <use
       height="4"
       transform="translate(-10.25,-1.25)"
       width="4"
       xlink:href="#a"
       id="use1877"
       x="0"
       y="0"
       style="fill:#cccccc;fill-opacity:1;stroke:#999999;stroke-opacity:1" />
    <use
       height="4"
       transform="translate(-8,-0.35)"
       width="4"
       xlink:href="#a"
       id="use1879"
       x="0"
       y="0"
       style="fill:#00a2cc;fill-opacity:1;stroke:#006f99;stroke-opacity:1" />
    <use
       height="4"
       transform="translate(-5.75,0.95)"
       width="4"
       xlink:href="#a"
       id="use1881"
       x="0"
       y="0"
       style="fill:#cccccc;fill-opacity:1;stroke:#999999;stroke-opacity:1" />
    <use
       height="4"
       transform="matrix(1.728,0,0,1.728,-4.114,0.086)"
       width="4"
       xlink:href="#a"
       id="use1883"
       x="0"
       y="0"
       style="fill:#00a2cc;fill-opacity:1;stroke:#006f99;stroke-opacity:1" />
    <use
       height="4"
       transform="translate(2.75,1.75)"
       width="4"
       xlink:href="#a"
       id="use1885"
       x="0"
       y="0"
       style="fill:#00a2cc;fill-opacity:1;stroke:#006f99;stroke-opacity:1" />
    <use
       height="4"
       transform="translate(0.3,2.15)"
       width="4"
       xlink:href="#a"
       id="use1887"
       x="0"
       y="0"
       style="fill:#cccccc;fill-opacity:1;stroke:#999999;stroke-opacity:1" />
  </g>
  <defs
     id="defs1915">
    <g
       id="d">
      <path
         d="M.8 1.55Q.2.8 1.15.5q1.15.5.1 1.15Q1 1.8.8 1.55"
         fill="#fff"
         fill-rule="evenodd"
         transform="translate(.5 .5)"
         id="path1891"
         stroke-width="0" />
      <path
         d="m2.55 2.55-.25.2-.8.25Q.9 3 .45 2.55 0 2.1 0 1.5 0 .9.45.45.9 0 1.5 0l.8.25.25.2Q3 .9 3 1.5q0 .6-.45 1.05m-1.75-1q.2.25.45.1Q2.3 1 1.15.5.2.8.8 1.55"
         fill-rule="evenodd"
         transform="translate(.5 .5)"
         id="path1893"
         stroke-width="0" />
      <path
         d="m2.55 2.55-.25.2-.8.25Q.9 3 .45 2.55 0 2.1 0 1.5 0 .9.45.45.9 0 1.5 0l.8.25.25.2Q3 .9 3 1.5q0 .6-.45 1.05Z"
         fill="none"
         stroke-linecap="round"
         stroke-linejoin="round"
         transform="translate(.5 .5)"
         id="path1895" />
    </g>
    <g
       id="b">
      <path
         d="m-10.15 4.95-.55-.7-1.35-2.1Q.15 1.8 10.9-9.65 2.7 3.45-10.15 4.95m-3.6-10.35q1-2.65 3.8-4.75 2.2 3.35 5.9 5.25l2.05.85-1.2.2Q-8.9-2.8-13.75-5.4m7.8-7.1q4.55-2.05 9.55-1.25 2.7.55 5.35 1.95Q8-9.95 6.5-8.5L3.05-5.95l-1.95-1q-3.9-2.1-7.05-5.55"
         fill="#fff"
         fill-rule="evenodd"
         transform="translate(14.25 14.45)"
         id="path1898" />
      <path
         d="m-9.95-10.15 2.6-1.7 1.4-.65Q-2.8-9.05 1.1-6.95l1.95 1Q.65-4.6-2-4.05l-2.05-.85q-3.7-1.9-5.9-5.25"
         fill-rule="evenodd"
         transform="translate(14.25 14.45)"
         id="path1900"
         fill="#ffc" />
      <path
         d="m8.95-11.8 1.95 2.15q.65.95 1.1 3 .45 2-.1 5.2-.55 3.15-3.55 5.55t-8.5 2.85q-5.1.25-9.8-1.75l-.2-.25Q2.7 3.45 10.9-9.65.15 1.8-12.05 2.15q-1.8-3.45-1.7-7.55Q-8.9-2.8-3.2-3.85l1.2-.2q2.65-.55 5.05-1.9L6.5-8.5Q8-9.95 8.95-11.8"
         fill="#ff9"
         fill-rule="evenodd"
         transform="translate(14.25 14.45)"
         id="path1902" />
      <path
         d="m8.95-11.8 1.95 2.15q.65.95 1.1 3 .45 2-.1 5.2-.55 3.15-3.55 5.55t-8.5 2.85q-5.1.25-9.8-1.75l-.2-.25-.55-.7-1.35-2.1q-1.8-3.45-1.7-7.55 1-2.65 3.8-4.75l2.6-1.7 1.4-.65q4.55-2.05 9.55-1.25 2.7.55 5.35 1.95Z"
         fill="none"
         stroke="#cc6"
         stroke-linecap="round"
         stroke-linejoin="round"
         transform="translate(14.25 14.45)"
         id="path1904" />
    </g>
    <g
       id="c">
      <path
         d="M7.8-8.65v-.05l.35-1.65q.25-1.45 2.05-3.15l2.1.3.25.6q.6 1.75.35 4.9-.15 2.9-.85 5.65Q11.4.6 9.5 2.7q-1.25.2-2.75-.9.9-2.4 1.3-4.8.45-2.8-.25-5.65"
         fill="#f39"
         fill-rule="evenodd"
         transform="translate(-4.15 14)"
         id="path1907" />
      <path
         d="M7.8-8.65Q8.5-5.8 8.05-3q-.4 2.4-1.3 4.8-1-1.35-1.45-2.85-.75-2.5-.6-5.15.1-2.7 2.1-4.7l.95 2.25h.05M9.5 2.7q1.9-2.1 2.55-4.75.7-2.75.85-5.65l1.5-2 .65-.35.35.75-.1.8-1.25 5.25q-.8 2.6-2.65 4.75-.9 1-1.9 1.2"
         fill="#c36"
         fill-rule="evenodd"
         transform="translate(-4.15 14)"
         id="path1909" />
      <path
         d="M12.9-7.7q.25-3.15-.35-4.9l-.25-.6-2.1-.3q-1.8 1.7-2.05 3.15L7.8-8.7v.05Q8.5-5.8 8.05-3q-.4 2.4-1.3 4.8 1.5 1.1 2.75.9 1.9-2.1 2.55-4.75.7-2.75.85-5.65l1.5-2 .65-.35.35.75-.1.8-1.25 5.25q-.8 2.6-2.65 4.75-.9 1-1.9 1.2M7.8-8.65h-.05L6.8-10.9q-2 2-2.1 4.7-.15 2.65.6 5.15.45 1.5 1.45 2.85M7.8-8.7l-.05.05"
         fill="none"
         stroke="#900"
         stroke-linecap="round"
         stroke-linejoin="round"
         transform="translate(-4.15 14)"
         id="path1911" />
    </g>
    <use
       height="4"
       width="4"
       xlink:href="#d"
       id="a" />
  </defs>
</svg>
