<svg xmlns:xlink="http://www.w3.org/1999/xlink" height="92.9" width="100.7" xmlns="http://www.w3.org/2000/svg"><use height="36.6" transform="translate(20.3 29.8)" width="37.1" xlink:href="#a"/><defs><g id="a"><path d="M8.95 5.1q1.7-1.95-.25-2.45-1.95-.5-2.8-1.1Q5.05.9 5.3.6l1.95.35 1.35.3L9.95.9 10.5-3l.4-3.2q.15-1.75 1.3-7.5 2.15 7.1.85 15.3v.1l1.05 5.85-.55.05-.05-1.3-2.6.05-.3-1.1-.65-.5-1 .35M.75-1.3.25-.05l-1.3 1.65q-1 1-2.2 1.7l-.85.2.4-1.15q1.15-1.85-.2-3.6Q-5.05-2.8-5.8-4.5q-.7-1.55-1.75-2.95l-3.3-5.65Q-3.8-8.95.75-1.3" fill="#900" fill-rule="evenodd" transform="translate(18.35 19.95)"/><path d="M12.2-13.7q-1.15 5.75-1.3 7.5L10.5-3 9.95.9l-1.35.35-1.35-.3L5.3.6q-.25.3.6.95.85.6 2.8 1.1 1.95.5.25 2.45l-1.25.4q0-.9-.9-1.45l-.45-.2-2.35 1q-.75-.6-1.6-.35l-2.05.4-.3.25q-2.35-.5-4.3.6l-1.85-.7-1.9 1.1q-1.95-1.5-3.55.2l-.5.5-1.4-.65-.25.1 1.15-5.15q-.55-6.6 1.7-14.25l3.3 5.65Q-6.5-6.05-5.8-4.5q.75 1.7 1.9 3.25 1.35 1.75.2 3.6l-.4 1.15.85-.2q1.2-.7 2.2-1.7L.25-.05l.5-1.25Q5.7-8.45 12.2-13.7" fill="#c00" fill-rule="evenodd" transform="translate(18.35 19.95)"/><path d="m-13.7 6.3.25-.1 1.4.65.5-.5q1.6-1.7 3.55-.2l1.9-1.1 1.85.7q1.95-1.1 4.3-.6l.3-.25 2.05-.4q.85-.25 1.6.35l2.35-1 .45.2q.9.55.9 1.45l1.25-.4 1-.35.65.5.3 1.1 2.6-.05.05 1.3.55-.05 1.8-.3 1.15 1.35-1.3 1.35 2.5 1.3v.45l-1.8 1.25.7 1.1.1.7-.9.4-1.7.35.2 1.15-.6-1.95q-.2-.95.7-1.7l.25-.2-.05-.65q-.3-.95.1-1.8Q13.3 10 13 8.2l-2.85.25-.9-.55-.95-1.05q-1.35.95-3.05.9-1.45-.3-2.3-1.45-1 .85-2.25.65L-.7 6.5q-1.7 1.75-3.65.35L-6.15 8l-1.4-.45L-9 8.3l-2.7-.05q.1.75-.8 1.1l-1.45.15-.45-.3.2.4-.6 1-.95.1-.3 2.15-1.55-.5.9-1.7-1.15-1.4.25-.8.9-.5.55-.2h.05l1.55.1.2-1.35.65-.2" fill="#fff" fill-rule="evenodd" transform="translate(18.35 19.95)"/><path d="m-16.05 12.85.3-2.15.95-.1.6-1-.2-.4.45.3 1.45-.15q.9-.35.8-1.1l2.7.05 1.45-.75 1.4.45 1.8-1.15Q-2.4 8.25-.7 6.5l1.4.45q1.25.2 2.25-.65.85 1.15 2.3 1.45 1.7.05 3.05-.9l.95 1.05.9.55L13 8.2q.3 1.8 2.25 2.15-.4.85-.1 1.8l.05.65-.25.2q-.9.75-.7 1.7l-2.2-4.3q-5.9-1.45-12-1.45-4.65 0-9 .95l-3.1.7-2.9 4-1.1-.05-.3-.2-.05-.2v-.35l.15-.4.2-.55" fill="#98afc0" fill-rule="evenodd" transform="translate(18.35 19.95)"/><path d="M12.2-13.7Q5.7-8.45.75-1.3q-4.55-7.65-11.6-11.8-2.25 7.65-1.7 14.25L-13.7 6.3m27.8 1.25L13.05 1.7v-.1q1.3-8.2-.85-15.3Z" fill="none" stroke="#600" stroke-linecap="round" stroke-linejoin="round" transform="translate(18.35 19.95)"/><path d="m3.5 9.05 8.05 1.35 1.7 2.85-2.85-.1-.9-.55-.95-1.05q-1.35 1-3 .9Q4.1 12.15 3.2 11q-1 .85-2.2.65l-1.45-.45q-1.7 1.75-3.65.35l-1.8 1.15-1.35-.45-1.5.75-2.7-.05q.05.75-.8 1.1l-1.45.15.15-.8 1.65-2.7.35-.2.1-.35q5.15-1.35 15.1-1.3l-.15.2m-15.25 2.35-.1.15h.1v-.15" fill="#004166" fill-opacity=".4" fill-rule="evenodd" transform="translate(18.35 19.95)"/><path d="m14.15 7.5 1.75-.25 1.15 1.35-1.3 1.35 2.5 1.3v.45l-1.8 1.25.7 1.1.1.7-.9.4-2.3.45q-.75-2.6-2.6-5.2Q6.15 8.95.05 8.95q-4.65 0-9 .95l-3.1.7q-1.6 1.85-2.6 4.45l-1.4-.5-.3-.2-.05-.2v-.35l.15-.4.2-.55-1.55-.5.9-1.7-1.15-1.4.25-.8.9-.5.55-.2h.05l1.55.1.2-1.35.9-.3" fill="none" stroke="#5280c4" stroke-linecap="round" stroke-linejoin="round" transform="translate(18.35 19.95)"/><path d="M-7.6-14.3q-1.2.15-1.5-.2-.5 2.45-1.2.5.1 1.05-.8 1.6l-.3.2-.55.2q-.95.25-.8-1.3-2.15.95-2-2-1.95-2.55 1.6-2.25-.05-1.8 1.6-1.9 1.35-.05 1.4 1.4l.3-.65q.5-1 1.4-.5 1.65.95.85 2.45 1.1.1 1.15 1.45 0 1.35-1.15 1" fill="#fff" fill-rule="evenodd" transform="translate(18.35 19.95)"/><path d="M-14.75-15.3q-.15 2.95 2 2-.15 1.55.8 1.3l.55-.2.3-.2q.9-.55.8-1.6.7 1.95 1.2-.5.3.35 1.5.2.9 1.4.65 2.1-.25.55-1.15.65h-.85q.25.65-.1 1.35-.15.35-.45.4-1.75.25-1.95-.85-.05.4-.25.7l-.25.35q-.35.3-1.05.2-1.4-.2-.7-1.5l-1.1-.1q-1.45-.7-.2-1.9-.85-.1-1.05-.8-.4-1.65 1.3-1.6" fill="#98afc0" fill-rule="evenodd" transform="translate(18.35 19.95)"/><path d="M-7.6-14.3q1.15.35 1.15-1-.05-1.35-1.15-1.45.8-1.5-.85-2.45-.9-.5-1.4.5l-.3.65q-.05-1.45-1.4-1.4-1.65.1-1.6 1.9-3.55-.3-1.6 2.25-1.7-.05-1.3 1.6.2.7 1.05.8-1.25 1.2.2 1.9l1.1.1q-.7 1.3.7 1.5.7.1 1.05-.2l.25-.35m3.6-1.6q.9-.1 1.15-.65.25-.7-.65-2.1Z" fill="none" stroke="#5280c4" stroke-linecap="round" stroke-linejoin="round" transform="translate(18.35 19.95)"/><path d="M8.75-15.15q-1.95-2.55 1.6-2.25-.05-1.8 1.6-1.9 1.35-.05 1.4 1.4l.3-.65q.5-1 1.4-.5 1.65.95.85 2.45 1.1.1 1.15 1.45 0 1.35-1.15 1l-1.5-.2q-.5 2.45-1.2.5.1 1.05-.8 1.6-1.85 1.2-1.65-.9-2.15.95-2-2" fill="#fff" fill-rule="evenodd" transform="translate(18.35 19.95)"/><path d="M8.75-15.15q-.15 2.95 2 2-.2 2.1 1.65.9.9-.55.8-1.6.7 1.95 1.2-.5l1.5.2q1.85 3-1.35 2.75.25.65-.1 1.35l-.45.4h-1.1l-.35-.1q-.4-.25-.5-.75-.25 1.45-1.55 1.25-1.4-.2-.7-1.5-.4.15-.95 0l-.15-.1-.35-.2q-.9-.7.15-1.7-.85-.1-1.05-.8-.4-1.65 1.3-1.6" fill="#98afc0" fill-rule="evenodd" transform="translate(18.35 19.95)"/><path d="M15.9-14.15q1.15.35 1.15-1Q17-16.5 15.9-16.6q.8-1.5-.85-2.45-.9-.5-1.4.5l-.3.65q-.05-1.45-1.4-1.4-1.65.1-1.6 1.9-3.55-.3-1.6 2.25-1.7-.05-1.3 1.6.2.7 1.05.8-1.05 1-.15 1.7l.35.2.15.1m7.05-3.4q1.85 3-1.35 2.75.25.65-.1 1.35l-.45.4h-1.1" fill="none" stroke="#5280c4" stroke-linecap="round" stroke-linejoin="round" transform="translate(18.35 19.95)"/></g></defs></svg>