<svg xmlns:xlink="http://www.w3.org/1999/xlink" height="92.9" width="100.7" xmlns="http://www.w3.org/2000/svg"><use height="32.55" transform="translate(21.6 40.3)" width="34.75" xlink:href="#a"/><defs><g id="a"><path d="m11.9 6.6-.6-1.65-.65-1-1.3-1.15H9.3V-.35q1.2.8 2.25 1.95 1.55 1.7 2.7 3.6l.05.1-.6.55q-.65.55-1.5.7l-.3.05m4.3 2.9.1.35.45 1.8.4 2.7q.2 3.6-.9 7.1l-.4.55q-.2-.2-.8-6.35-1.2 2.75-3.85 3.5l-.7.2q1.25-2.35 1.6-5l.15-1.85.55-1.7q.2-.85 1-1.3.9-.5 1.8-.25l.6.25M2.2-2.8V.25l-.6-.2-3.55.2v-2.6L1.1-2.8h1.1M-9.55 1.25V2.7q-1.45 1.7-2 3.35l-.2.7q-.3-.15-.55-.35-.8-.55-.8-1.45 1.4-2.05 3.55-3.7m-1.05 6 .6-.55-.45.6-.15-.05m26.1 5.85-.45 2.55.45-2.55m-31.65 1.5.05-.25.5-2.9.4-1.7q.55-.55 1.35-.35.9.25 1.2 1.2l.15.65q-.55 1.55-.6 3.1-.1 2.55 1.05 5.1-1.9-.85-2.9-2.45l-.45 1.55-.65 4.05q-.6-1.55-.5-3.75l.4-4.25.5.95.7 1.45-.7-1.45-.5-.95" fill="#fc0" fill-rule="evenodd" transform="translate(17.05 9.45)"/><path d="m11.75 8.45.35.35-.2-2.2.3-.05q.85-.15 1.5-.7l.6-.55q1.15 1.95 1.9 4.2l-.6-.25q-.9-.25-1.8.25-.8.45-1 1.3l-.55 1.7-.05-1.4-.45-2.65m-23.5-1.7-.3 2.2 1.45-1.7.15.05-1.6 2.8-.45 1.15-.15-.65q-.3-.95-1.2-1.2-.8-.2-1.35.35.6-2.6 2.1-4.8 0 .9.8 1.45.25.2.55.35" fill="#ff0" fill-rule="evenodd" transform="translate(17.05 9.45)"/><path d="m4.95-8.85.65-.1h.1q1.65.1 2.5.9.8.8 1.1 2.7V2.8h.05l1.3 1.15.65 1 .6 1.65.2 2.2-.35-.35-1.45-1.6Q8.9 5.3 5.05 3.5l1-1.55.1-.25.4-3.05V-5q.05-2.1-1.6-3.85M2.2.25l.1.2.5 1-4.75.3-.6.65q-1.6 1.25-3.75 1.25.65-.55 1-1.25l.3-.95.35-2.1.05-.9v-.4l.05-.9v-1.3L-4.8-6q-.45-2-2.4-2.65l1.45-.3q1.6 0 2.7 1.1.8.8 1.05 2.5l.05 2.9v2.7L1.6.05l.6.2" fill="#f39" fill-rule="evenodd" transform="translate(17.05 9.45)"/><path d="M4.95-8.85Q6.6-7.1 6.55-5v3.65l-.4 3.05-.1.25-1 1.55q-2.8-1-7-.5-4.65.5-8.05 3.7l-.6.55-1.45 1.7.3-2.2.2-.7q.55-1.65 2-3.35V.85l.15-5.15q.1-2.4.5-2.9l.65-.85 1.05-.6Q-5.25-8-4.8-6l.25 1.85v1.3l-.05.9v.4l-.05.9-.35 2.1-.3.95q-.35.7-1 1.25 2.15 0 3.75-1.25l.6-.65 4.75-.3-.5-1-.1-.2v-6q.2-1.2 1.1-2.1l.4-.3 1.25-.7" fill="#fe7abc" fill-rule="evenodd" transform="translate(17.05 9.45)"/><path d="m14.25 5.2.05.1" fill="none" stroke="#333" stroke-linecap="round" stroke-linejoin="round" transform="translate(17.05 9.45)"/><path d="M9.3-.35q1.2.8 2.25 1.95 1.55 1.7 2.7 3.6m.05.1q1.15 1.95 1.9 4.2l.1.35.45 1.8.4 2.7q.2 3.6-.9 7.1l-.4 1.15M2.2-2.8H1.1l-3.05.45m14.2 14.85-.15 1.85q-.35 2.65-1.6 5l.7-.2q2.65-.75 3.85-3.5l.45-2.55m-3.25-.6-.05-1.4-.45-2.65m4.5 13-.4.55q-.2-.2-.8-6.35m-30.25-5.9-.4 1.7-.5 2.9-.05.25.5.95.7 1.45q1 1.6 2.9 2.45-1.15-2.55-1.05-5.1.05-1.55.6-3.1l.45-1.15 1.6-2.8.45-.6m-5.2 3.05q.6-2.6 2.1-4.8 1.4-2.05 3.55-3.7m-6.6 13.35-.4 4.25q-.1 2.2.5 3.75l.65-4.05.45-1.55" fill="none" stroke="#705427" stroke-linecap="round" stroke-linejoin="round" transform="translate(17.05 9.45)"/><path d="M9.3-.35v-5q-.3-1.9-1.1-2.7-.85-.8-2.5-.9h-.1l-.65.1-1.25.7-.4.3q-.9.9-1.1 2.1v6l-.6-.2-3.55.2v-2.7L-2-5.35q-.25-1.7-1.05-2.5-1.1-1.1-2.7-1.1l-1.45.3-1.05.6-.65.85q-.4.5-.5 2.9L-9.55.85v.45m14.6 2.2Q8.9 5.3 10.3 6.85l1.45 1.6.35.35-.2-2.2-.6-1.65-.65-1-1.3-1.15H9.3V-.35m-18.85 3v.05q-1.45 1.7-2 3.35l-.2.7-.3 2.2 1.45-1.7.6-.55Q-6.6 3.5-1.95 3q4.2-.5 7 .5" fill="none" stroke="#c00161" stroke-linecap="round" stroke-linejoin="round" transform="translate(17.05 9.45)"/><path d="M-8 2.9q2.3-2.65 6.3-.55l.4.2-2.55 2.25-.7-1.3q-.6-.75-1.5-.75L-8 2.9m1.8 4.95q-1.1 1.75-1.45 3.8-.45 2.7-.2 5.4l.2 2.7-.95-1.65q-2.2-4.6-1.55-9.7l.2-1.2q.95-.6 1.85-.6 1-.05 1.55.7l.35.55" fill="#fc0" fill-rule="evenodd" transform="translate(17.05 9.45)"/><path d="m-8 2.9 1.95-.15q.9 0 1.5.75l.7 1.3-1.55 1.8-.8 1.25-.35-.55q-.55-.75-1.55-.7-.9 0-1.85.6l.9-2.7L-8 2.9m2.2 1.6q-.5-.8-1.65-.75-.7-.05-.8.6-.15.6.45.7l.7.2q.9.25 1.3-.4.15-.2 0-.35" fill="#ff0" fill-rule="evenodd" transform="translate(17.05 9.45)"/><path d="M-5.8 4.5q.15.15 0 .35-.4.65-1.3.4l-.7-.2q-.6-.1-.45-.7.1-.65.8-.6 1.15-.05 1.65.75" fill="#fff" fill-rule="evenodd" transform="translate(17.05 9.45)"/><path d="m-3.85 4.8 2.55-2.25-.4-.2q-4-2.1-6.3.55l-1.05 1.6-.9 2.7-.2 1.2q-.65 5.1 1.55 9.7l.95 1.65-.2-2.7q-.25-2.7.2-5.4.35-2.05 1.45-3.8l.8-1.25 1.55-1.8Z" fill="none" stroke="#705427" stroke-linecap="round" stroke-linejoin="round" transform="translate(17.05 9.45)"/></g></defs></svg>