<svg xmlns:xlink="http://www.w3.org/1999/xlink" height="92.9" width="100.7" xmlns="http://www.w3.org/2000/svg"><use height="22.3" transform="translate(11 41.75)" width="44.6" xlink:href="#a"/><defs><g id="a"><path d="M-27.15 4.05q4.45 2.35 8-1.8l1.4-1.15q3.85-2.05 6.35 1.45.9 5.4-4.75 7.4-5.6 2.05-8.25-.55-2.7-2.6-2.75-5.35" fill="#e3af39" fill-rule="evenodd" transform="translate(27.65 8)"/><path d="M-27.15 4.05q4.45 2.35 8-1.8l1.4-1.15q3.85-2.05 6.35 1.45.9 5.4-4.75 7.4-5.6 2.05-8.25-.55-2.7-2.6-2.75-5.35Z" fill="none" stroke="#9b4a2d" stroke-linecap="round" stroke-linejoin="round" transform="translate(27.65 8)"/><path d="M-8.5 6.35q.55 3.85-3.35 4.55l-1.45-.3q-3-1.55-1.4-4.35 1.85-3.3 4.95-1.1l1.25 1.2" fill="#ff1cdd" fill-rule="evenodd" transform="translate(27.65 8)"/><path d="M-8.5 6.35q.55 3.85-3.35 4.55l-1.45-.3q-3-1.55-1.4-4.35 1.85-3.3 4.95-1.1l1.25 1.2Z" fill="none" stroke="#9f3372" stroke-linecap="round" stroke-linejoin="round" transform="translate(27.65 8)"/><path d="M10.55 6.15 11.9 7.4q1.95 2 2.45 4.75l.1.85q-4.65-.6-7.7-4.15-.5-.55-.3-1.35Q7.7 6.7 9.2 6.45l1.35-.3m-20.6 5.55-1.25.55-2.65 1-.65.2h-.1l-.2.35q-.75-1.1.9-3.85l3.05-4.7q2.7.25 5.05 1.7l1.05 1.1Q-7 10.2-10.05 11.7" fill="#e3af39" fill-rule="evenodd" transform="translate(27.65 8)"/><path d="M10.55 6.15 11.9 7.4q1.95 2 2.45 4.75l.1.85q-4.65-.6-7.7-4.15-.5-.55-.3-1.35Q7.7 6.7 9.2 6.45l1.35-.3m-20.6 5.55-1.25.55-2.65 1-.65.2h-.1l-.2.35q-.75-1.1.9-3.85l3.05-4.7q2.7.25 5.05 1.7l1.05 1.1Q-7 10.2-10.05 11.7" fill="none" stroke="#9b4a2d" stroke-linecap="round" stroke-linejoin="round" transform="translate(27.65 8)"/><path d="M11.05 1.65q3.9 2.3 5.15 4.7l.25 1.1q.2 1.7-2.25 3.05-3.35 1.7-9.05 2.05-5.6.15-17.35-4.95l2.9-.5 3.3-.3 3.55-.45 3.4-.3 3.45-.4L6.75 5q.75-.35 1.7-.55l1.75-.4q.95-.3.85-1.1v-1.3" fill="#18aefe" fill-rule="evenodd" transform="translate(27.65 8)"/><path d="M-12.2 7.6q11.75 5.1 17.35 4.95 5.7-.35 9.05-2.05 2.45-1.35 2.25-3.05l-.25-1.1q-1.25-2.4-5.15-4.7" fill="none" stroke="#0c335a" stroke-linecap="round" stroke-linejoin="round" transform="translate(27.65 8)"/><path d="m-2.15-6.65 1.55-.1q5.3-.2 9.1 3.6 1.45 1.45 2.15 2.9l.25.8.15.4q.4.9.25 2.4l-.4 1.8q-.25.3-4.6 2.05.4-3.55-.7-6L5.35.5 5.3.4 4.2-1.35Q1.5-4.6-2.7-6.6h.15l.3-.05h.1M-7.35 8.9l-2.35-.4-2.8-.55q-1-1.95-.65-4.55l.2-.7q.25-1.45 1.15-3.05 2.2-4.2 6.85-5.7l1.35-.35.05.05Q-7-2-7.9 2.1l-.15.7q-.65 3.2.7 6.1" fill="#003284" fill-rule="evenodd" transform="translate(27.65 8)"/><path d="m6.3 7.2-.5.1-2.45.7q-3.3.85-6.45 1l-4.25-.1Q-8.7 6-8.05 2.8l.15-.7Q-7-2-3.55-6.35l-.05-.05h.05l.85-.2q4.2 2 6.9 5.25L5.3.4l.05.1.25.7q1.1 2.45.7 6" fill="#18aefe" fill-rule="evenodd" transform="translate(27.65 8)"/><path d="m-2.15-6.65 1.55-.1q5.3-.2 9.1 3.6 1.45 1.45 2.15 2.9l.25.8.15.4q.4.9.25 2.4l-.4 1.8q-.25.3-4.6 2.05l-.5.1-2.45.7q-3.3.85-6.45 1l-4.25-.1-2.35-.4-2.8-.55q-1-1.95-.65-4.55l.2-.7q.25-1.45 1.15-3.05 2.2-4.2 6.85-5.7l1.35-.35h.05l.85-.2h.15l.3-.05" fill="none" stroke="#0c335a" stroke-linecap="round" stroke-linejoin="round" transform="translate(27.65 8)"/><path d="M-1.05-6.4q-.6.4-1.55.5L-4.25-6q-.7-.25-.75-.7-.05-.45.55-.8l1.6-.5 1.6.1q.7.25.75.7.05.45-.55.8" fill="#013a58" fill-rule="evenodd" transform="translate(27.65 8)"/></g></defs></svg>