<svg xmlns:xlink="http://www.w3.org/1999/xlink" height="92.9" width="100.7" xmlns="http://www.w3.org/2000/svg"><use height="17.4" transform="translate(22.95 42.8)" width="31.2" xlink:href="#a"/><defs><g id="a"><path d="M-.25-4.5q5.95 0 7.05 1.2 2.3 2.45 3.9 8l1.85 1.55q1.85 1.65 1.95 2.3.15.9-4.15 1.9Q5.55 11.6-.9 11.7q-6.35.15-10.65-.85-3.65-.85-4.1-1.95-.3-.8 1.85-2.4l2.2-1.45Q-9.55-2.3-7.65-3.5q1.55-1 7.4-1" fill="#ffbf4a" fill-rule="evenodd" transform="translate(16.15 4.95)"/><path d="M-7.55-2.8q3 1.5 2.5 5.25t-2.25 4.5l-5.25-1.25 4.75 3.25q.55.9-3.25 2l-4-2q3.75-4.75 4-5.75l1.4-3.45q1.3-2.7 2.1-2.55" fill="#e0a741" fill-rule="evenodd" transform="translate(16.15 4.95)"/><path d="M-.3-4.45q5.9 0 7.1 1.15 1.7 1.7 3.9 8 4.35 2.55 3.8 3.85Q13.45 11.4-.3 11.9q-6.7.2-11.25-.8-4.1-.95-4.1-2.2 0-.95 2.05-2.5l2-1.35q2-7.45 3.95-8.55Q-6-4.4-.3-4.45Zm-9.35 11-1.95-1.5" fill="none" stroke="#b88527" stroke-linecap="round" stroke-linejoin="round" transform="translate(16.15 4.95)"/><path d="M10.7 4.7q-.6 1.05-2.65 1.35" fill="none" stroke="#b88527" stroke-linecap="round" stroke-linejoin="round" transform="translate(16.15 4.95)"/><path d="M-5.8-2.05Q-4.05-.8.45-.8T6.2-3.05" fill="none" stroke="#ffdd9c" stroke-linecap="round" stroke-linejoin="round" transform="translate(16.15 4.95)"/></g></defs></svg>