<svg xmlns:xlink="http://www.w3.org/1999/xlink" height="92.9" width="100.7" xmlns="http://www.w3.org/2000/svg"><g transform="translate(38.65 49.75)"><use height="21.1" transform="translate(-16.75 -3.65)" width="33.4" xlink:href="#a"/><use height="4" transform="translate(-16.95 14.95)" width="4" xlink:href="#b"/><use height="4" transform="translate(12.85 14.65)" width="4" xlink:href="#b"/><use height="18" transform="translate(-.45 -11.9)" width="23.55" xlink:href="#c"/></g><defs><g id="a"><path d="m-1.4 1.65-.3 2.95q-.3 1.8-.85 3.15-1 2-2.1 3.5l-2.6 1.4q-1.8.75-3.8.85-1.55.1-2.6-.4.1-1.15.7-2.3.4-.8.3-1.15-.7.35-1.2.9l-.8.95-.4-1-.55-3.5q1.4-4.55 5.35-7.7l2-1.3 4.1-.25q-.9 2.15-2.25 4.2l-.35.95q1.15-.5 2.15-1.35l.7-.55q.5 1.7-.3 3.75l-.2 1.5L-2.95 4l.8-1.3.75-1.05m-7.8 8.95q2.45-1 2.8-3.35l-.05-.2q-.25-.45-.8-.5l-.45.15-.2.1-2.55 2.8q-.05.95.95 1.1l.3-.1M-9.65 6l-.05-.2q-.25-.45-.8-.5-1.15.2-1.7 1.3l.05.4.45.55q1.9.2 2.05-1.55" fill="#fc0" fill-rule="evenodd" transform="translate(16.75 3.65)"/><path d="m-8.25-2 2.85-1q2.8-.5 5.85.75 3.45-1.3 6.9-.1Q9.9-1.85 11.6 0q2.25 2 3.4 5.15 1.9 5.15.65 10.55l-.8.95-2.1-5.5q-.9-2.4-2.35-4.6-1.55-2.35-4-3.6Q3.8 1.5 1.05.65l.1 2.95q.05 2-.45 3.85L-.65 10.7l-1.2 1.9-.4-.3 1.15-2.75q.45-1.8.55-3.8.1-2.15-.85-4.15v.05l-.75 1.05-.8 1.3-1.45 2.25.2-1.5q.8-2.05.3-3.75l-.7.55q-1 .85-2.15 1.35l.35-.95q1.35-2.05 2.25-4.2l-4.1.25m-5.4 15.1q-.25 1.3-.75 2.1-.1.85-.55 1.75-1.8-3.75-1.1-8L-15.6 7l.55 3.5.4 1 .8-.95q.5-.55 1.2-.9.1.35-.3 1.15-.6 1.15-.7 2.3" fill="#d8a701" fill-rule="evenodd" transform="translate(16.75 3.65)"/><path d="M-9.65 6q-.15 1.75-2.05 1.55l-.45-.55-.05-.4q.55-1.1 1.7-1.3.55.05.8.5l.05.2m.45 4.6-.3.1q-1-.15-.95-1.1l2.55-2.8.2-.1.45-.15q.55.05.8.5l.05.2q-.35 2.35-2.8 3.35" fill="#fff" fill-rule="evenodd" transform="translate(16.75 3.65)"/><path d="m-1.85 12.6-.8 1.2q-.2-.6.4-1.5l.4.3" fill-rule="evenodd" transform="translate(16.75 3.65)"/><path d="m-8.25-2 2.85-1q2.8-.5 5.85.75 3.45-1.3 6.9-.1Q9.9-1.85 11.6 0q2.25 2 3.4 5.15 1.9 5.15.65 10.55l-.8.95-2.1-5.5q-.9-2.4-2.35-4.6-1.55-2.35-4-3.6Q3.8 1.5 1.05.65l.1 2.95q.05 2-.45 3.85L-.65 10.7l-1.2 1.9m-.4-.3 1.15-2.75q.45-1.8.55-3.8.1-2.15-.85-4.15v.05l-.3 2.95q-.3 1.8-.85 3.15-1 2-2.1 3.5l-2.6 1.4q-1.8.75-3.8.85-1.55.1-2.6-.4-.25 1.3-.75 2.1-.1.85-.55 1.75-1.8-3.75-1.1-8L-15.6 7q1.4-4.55 5.35-7.7l2-1.3Z" fill="none" stroke="#8e7413" stroke-linecap="round" stroke-linejoin="round" transform="translate(16.75 3.65)"/></g><g id="d"><path d="M.8 1.55Q.2.8 1.15.5q1.15.5.1 1.15Q1 1.8.8 1.55" fill="#ffcc4c" fill-rule="evenodd" transform="translate(.5 .5)"/><path d="m2.55 2.55-.25.2-.8.25Q.9 3 .45 2.55 0 2.1 0 1.5 0 .9.45.45.9 0 1.5 0l.8.25.25.2Q3 .9 3 1.5q0 .6-.45 1.05m-1.75-1q.2.25.45.1Q2.3 1 1.15.5.2.8.8 1.55" fill="#cca33d" fill-rule="evenodd" transform="translate(.5 .5)"/><path d="m2.55 2.55-.25.2-.8.25Q.9 3 .45 2.55 0 2.1 0 1.5 0 .9.45.45.9 0 1.5 0l.8.25.25.2Q3 .9 3 1.5q0 .6-.45 1.05Z" fill="none" stroke="#997a2e" stroke-linecap="round" stroke-linejoin="round" transform="translate(.5 .5)"/></g><g id="c"><path d="m8.55-6.2-.8-.5L5.6-2.8l1 .5 1.95-3.9M.7-1.25q-1.8-5.8 1.45-9.5-.3 2 .15 3.75l.25.75q1.9-3.45 5.4-5.15l.6 3.25 1.4-1.05q2.3-1.4 4.9-1.5L14-8.25l3.2.1 2.35 1.25-2.35 2.4 2.65 2.35L21.2-.4l-1.15-.55q-3-.8-5.7 1-1.45.9-.9-.3.7-1.55 1.8-2.75-1.6.65-3.1 1.5-1.65 1-2.4 2.55L7.4.85Q3.1.9.7-1.25m7.85.05.5.15 2-2.45 2.35-.85-.65-1.6-4.7 4.2.5.55" fill="#fc0" fill-rule="evenodd" transform="translate(.45 11.9)"/><path d="M8.55-6.2 6.6-2.3l-1-.5 2.15-3.9.8.5m0 5-.5-.55 4.7-4.2.65 1.6-2.35.85-2 2.45-.5-.15" fill="#fff" fill-rule="evenodd" transform="translate(.45 11.9)"/><path d="M9.75 1.05q.75-1.55 2.4-2.55 1.5-.85 3.1-1.5-1.1 1.2-1.8 2.75-.55 1.2.9.3 2.7-1.8 5.7-1l1.15.55q1.25 2.1 1.4 4.65l-1.3-.85q-2-1.4-4.35-2.05 1.45 1.15 2.5 2.45l1.25 1.8-3.85-.35Q15.15 3.4 12.6 2.9q-.65-1.45-2.85-1.85" fill="#d8a701" fill-rule="evenodd" transform="translate(.45 11.9)"/><path d="m21.2-.4-1.35-1.75L17.2-4.5l2.35-2.4-2.35-1.25-3.2-.1.85-2.45q-2.6.1-4.9 1.5l-1.4 1.05-.6-3.25q-3.5 1.7-5.4 5.15L2.3-7q-.45-1.75-.15-3.75Q-1.1-7.05.7-1.25m20.5.85q1.25 2.1 1.4 4.65l-1.3-.85q-2-1.4-4.35-2.05 1.45 1.15 2.5 2.45l1.25 1.8-3.85-.35Q15.15 3.4 12.6 2.9" fill="none" stroke="#8e7413" stroke-linecap="round" stroke-linejoin="round" transform="translate(.45 11.9)"/></g><use height="4" width="4" xlink:href="#d" id="b"/></defs></svg>