<svg xmlns:xlink="http://www.w3.org/1999/xlink" height="92.9" width="100.7" xmlns="http://www.w3.org/2000/svg"><use height="23.7" transform="translate(20.3 38.75)" width="37.55" xlink:href="#a"/><defs><g id="a"><path d="m10.8 4.5 1.45 2.95q-3.5 3.85-6.3 4.6L.1 12.7l-4.85-.55q-2.8-.65-5.05-2.25l-2.65-2 1.55-3.3 7.35 1.25q2.7.4 6.2-.1L8.5 4.9l2.3-.4" fill-opacity=".322" fill-rule="evenodd" transform="translate(18.35 11)"/><path d="m-9.9-1.35-.4 1.25-.2-.15-.1 1.15-.15.75.3-2.85.55-.15m20.15.15-.2-.75.4.05.2 2.7-.3-2.05-.1.05" fill="#c0c89a" fill-rule="evenodd" transform="translate(18.35 11)"/><path d="m-10.8 3.15.05-1.5.15-.75-.15 1.95-.05.3" fill="#ccd2a3" fill-rule="evenodd" transform="translate(18.35 11)"/><path d="m-9.9-1.35.25-.75.15-.35 1.15-4.1q.7-2.5 1.5-3l4.55-.1L2.1-7.9l3.75.5 2.5.35q.3.2 1.4 4.1l.25.85.05.15.2.75-3.5 2Q2.4 3 .1 3.15q-2.2.15-6.2-1.25-3.2-1.2-4.2-2l.4-1.25M7-4.9l-1.85 1h-3.8 3.8L7-4.9M5-6.75Q3.35-6 2.6-5.9L-.85-7.8 2.6-5.9Q3.35-6 5-6.75M-9.2-.85Q-8.35-.8-7.65-2q.5-1 .45-4.85Q-7.15-3-7.65-2-8.35-.8-9.2-.85" fill="#d3caa3" fill-rule="evenodd" transform="translate(18.35 11)"/><path d="m11.85-1.7.35.05L11.35-3q-.6-.85 0-1.75.65-1 2.3-1.4 2.4-.6 3.8 2.7 1.3 3.1.4 6.25Q17 5.55 10.3 7.3 4.5 8.8-2 8.8l-10.85-1q-4.1-.55-4.45-6.05-.35-5 1.7-6.65 2.5-1.85 3.55 2 .4 1.4-.6 2.25l.7-.15 1.5-.4-.3 2.85-.05 1.5q-.1.95.8 1.7.6.6 3.15 1.1l7.1 1q1.7-.1 7.85-2.6 1.8-.75 2.3-1.4.35-.45.25-1.9V.8l-.2-2.7 1.4.2L13.1-.45l2.05.1.5-1.3-.8-.6q-.8-.7-.6-1.1.25-.45 1.15.3.9.75.8 1.4l-.8 2.8.8-2.8q.1-.65-.8-1.4-.9-.75-1.15-.3-.2.4.6 1.1l.8.6-.5 1.3-2.05-.1-1.25-1.25M-15.3 3.05q-.6-3-.3-3.75l.85-1q.6-.4.65 0 .05.55-1.05 2l.15.3.6.9 1.35-.5 1.1-1.8-1.1 1.8-1.35.5-.6-.9-.15-.3q1.1-1.45 1.05-2-.05-.4-.65 0l-.85 1q-.3.75.3 3.75" fill="#c9be9a" fill-rule="evenodd" transform="translate(18.35 11)"/><path d="M-10.3-.1q1 .8 4.2 2 4 1.4 6.2 1.25Q2.4 3 6.75.8l3.5-2 .1-.05.3 2.05v.25q.1 1.45-.25 1.9-.5.65-2.3 1.4-6.15 2.5-7.85 2.6l-7.1-1q-2.55-.5-3.15-1.1-.9-.75-.8-1.7l.05-.3.15-1.95.1-1.15.2.15" fill="#a38c76" fill-rule="evenodd" transform="translate(18.35 11)"/><path d="m6.05-8.4 2.9.5q.65.45 1.35 3 .7-1.65 3.15-2.2 2-.55 3.6 1.15 1.4 1.5 1.95 4.1.5 2.6-.2 4.9-1 3.3-8.2 5.2Q4.7 9.8-2 9.8l-9.35-.8-1.6-.25Q-16.8 8.3-18 3.95q-.65-2.6-.1-5.6.55-3 1.9-4.05 1.4-1.05 2.7-.6 1.85.6 2.4 3.15l.15.85-.05.2.3-.05.1-.3.85-2.95q1.1-4.3 2.4-5 2.65-1.5 7.7.75l2.05.8 3.65.45m4 6.45L10-2.1l-.25-.85q-1.1-3.9-1.4-4.1l-2.5-.35-3.75-.5-4.4-1.75-4.55.1q-.8.5-1.5 3l-1.15 4.1-.15.35-.25.75-.55.15-1.5.4-.7.15q1-.85.6-2.25-1.05-3.85-3.55-2-2.05 1.65-1.7 6.65.35 5.5 4.45 6.05L-2 8.8q6.5 0 12.3-1.5 6.7-1.75 7.55-4.5.9-3.15-.4-6.25-1.4-3.3-3.8-2.7-1.65.4-2.3 1.4-.6.9 0 1.75l.85 1.35-.35-.05-1.4-.2-.4-.05m.3-.6.1.65-.1-.65m-22.1 1.3-.2.45.2-.45m22.95-1.1.65.65-.65-.65m-21.55.55-.1.6.1-.6" fill="#6d614e" fill-rule="evenodd" transform="translate(18.35 11)"/><path d="m10.45-1.9-.1-.65M-11.95-.8l.2-.45m23.6-.45-.65-.65M10.65.8l-.2-2.7m1.4.2L13.1-.45l2.05.1.5-1.3-.8-.6q-.8-.7-.6-1.1.25-.45 1.15.3.9.75.8 1.4l-.8 2.8m-26.15.5.3-2.85.1-.6m-1.6 1-1.1 1.8-1.35.5-.6-.9-.15-.3q1.1-1.45 1.05-2-.05-.4-.65 0l-.85 1q-.3.75.3 3.75M10.65.8v.25" fill="none" stroke="#8d7d67" stroke-linecap="round" stroke-linejoin="round" transform="translate(18.35 11)"/><path d="M-7.2-6.85Q-7.15-3-7.65-2-8.35-.8-9.2-.85" fill="none" stroke="#b3a68a" stroke-linecap="round" stroke-linejoin="round" transform="translate(18.35 11)"/><path d="M-.85-7.8 2.6-5.9Q3.35-6 5-6.75" fill="none" stroke="#b0a88c" stroke-linecap="round" stroke-linejoin="round" transform="translate(18.35 11)"/><path d="M1.35-3.9h3.8L7-4.9" fill="none" stroke="#e8debf" stroke-linecap="round" stroke-linejoin="round" transform="translate(18.35 11)"/></g></defs></svg>