<?xml version="1.0" encoding="UTF-8" standalone="no"?>
<svg xmlns:xlink="http://www.w3.org/1999/xlink" height="92.9px" width="100.7px" xmlns="http://www.w3.org/2000/svg">
  <g transform="matrix(1.0, 0.0, 0.0, 1.0, 38.65, 49.75)">
    <use height="23.7" transform="matrix(1.0, 0.0, 0.0, 1.0, -18.35, -11.0)" width="37.55" xlink:href="#shape0"/>
  </g>
  <defs>
    <g id="shape0" transform="matrix(1.0, 0.0, 0.0, 1.0, 18.35, 11.0)">
      <path d="M10.8 4.5 L12.25 7.45 Q8.75 11.3 5.95 12.05 L0.1 12.7 -4.75 12.15 Q-7.55 11.5 -9.8 9.9 L-12.45 7.9 -10.9 4.6 -3.55 5.85 Q-0.85 6.25 2.65 5.75 L8.5 4.9 10.8 4.5" fill="#000000" fill-opacity="0.32156864" fill-rule="evenodd" stroke="none"/>
      <path d="M-9.9 -1.35 L-10.3 -0.1 -10.5 -0.25 -10.6 0.9 -10.75 1.65 -10.45 -1.2 -9.9 -1.35 M10.25 -1.2 L10.05 -1.95 10.45 -1.9 10.65 0.8 10.35 -1.25 10.25 -1.2" fill="#c0c89a" fill-rule="evenodd" stroke="none"/>
      <path d="M-10.8 3.15 L-10.75 1.65 -10.6 0.9 -10.75 2.85 -10.8 3.15" fill="#ccd2a3" fill-rule="evenodd" stroke="none"/>
      <path d="M-9.9 -1.35 L-9.65 -2.1 -9.5 -2.45 -8.35 -6.55 Q-7.65 -9.05 -6.85 -9.55 L-2.3 -9.65 2.1 -7.9 5.85 -7.4 8.35 -7.05 Q8.65 -6.85 9.75 -2.95 L10.0 -2.1 10.05 -1.95 10.25 -1.2 6.75 0.8 Q2.4 3.0 0.1 3.15 -2.1 3.3 -6.1 1.9 -9.3 0.7 -10.3 -0.1 L-9.9 -1.35 M7.0 -4.9 L5.15 -3.9 1.35 -3.9 5.15 -3.9 7.0 -4.9 M5.0 -6.75 Q3.35 -6.0 2.6 -5.9 L-0.85 -7.8 2.6 -5.9 Q3.35 -6.0 5.0 -6.75 M-9.2 -0.85 Q-8.35 -0.8 -7.65 -2.0 -7.15 -3.0 -7.2 -6.85 -7.15 -3.0 -7.65 -2.0 -8.35 -0.8 -9.2 -0.85" fill="#d3caa3" fill-rule="evenodd" stroke="none"/>
      <path d="M11.85 -1.7 L12.2 -1.65 11.35 -3.0 Q10.75 -3.85 11.35 -4.75 12.0 -5.75 13.65 -6.15 16.05 -6.75 17.45 -3.45 18.75 -0.35 17.85 2.8 17.0 5.55 10.3 7.3 4.5 8.8 -2.0 8.8 L-12.85 7.8 Q-16.95 7.25 -17.3 1.75 -17.65 -3.25 -15.6 -4.9 -13.1 -6.75 -12.05 -2.9 -11.65 -1.5 -12.65 -0.65 L-11.95 -0.8 -10.45 -1.2 -10.75 1.65 -10.8 3.15 Q-10.9 4.1 -10.0 4.85 -9.4 5.45 -6.85 5.95 L0.25 6.95 Q1.95 6.85 8.1 4.35 9.9 3.6 10.4 2.95 10.75 2.5 10.65 1.05 L10.65 0.8 10.45 -1.9 11.85 -1.7 13.1 -0.45 15.15 -0.35 15.65 -1.65 14.85 -2.25 Q14.05 -2.95 14.25 -3.35 14.5 -3.8 15.4 -3.05 16.3 -2.3 16.2 -1.65 L15.4 1.15 16.2 -1.65 Q16.3 -2.3 15.4 -3.05 14.5 -3.8 14.25 -3.35 14.05 -2.95 14.85 -2.25 L15.65 -1.65 15.15 -0.35 13.1 -0.45 11.85 -1.7 M-15.3 3.05 Q-15.9 0.05 -15.6 -0.7 L-14.75 -1.7 Q-14.15 -2.1 -14.1 -1.7 -14.05 -1.15 -15.15 0.3 L-15.0 0.6 -14.4 1.5 -13.05 1.0 -11.95 -0.8 -13.05 1.0 -14.4 1.5 -15.0 0.6 -15.15 0.3 Q-14.05 -1.15 -14.1 -1.7 -14.15 -2.1 -14.75 -1.7 L-15.6 -0.7 Q-15.9 0.05 -15.3 3.05" fill="#c9be9a" fill-rule="evenodd" stroke="none"/>
      <path d="M-10.3 -0.1 Q-9.3 0.7 -6.1 1.9 -2.1 3.3 0.1 3.15 2.4 3.0 6.75 0.8 L10.25 -1.2 10.35 -1.25 10.65 0.8 10.65 1.05 Q10.75 2.5 10.4 2.95 9.9 3.6 8.1 4.35 1.95 6.85 0.25 6.95 L-6.85 5.95 Q-9.4 5.45 -10.0 4.85 -10.9 4.1 -10.8 3.15 L-10.75 2.85 -10.6 0.9 -10.5 -0.25 -10.3 -0.1" fill="#a38c76" fill-rule="evenodd" stroke="none"/>
      <path d="M6.05 -8.4 L8.95 -7.9 Q9.6 -7.45 10.3 -4.9 11.0 -6.55 13.45 -7.1 15.45 -7.65 17.05 -5.95 18.45 -4.45 19.0 -1.85 19.5 0.75 18.8 3.05 17.8 6.35 10.6 8.25 4.7 9.8 -2.0 9.8 L-11.35 9.0 -12.95 8.75 Q-16.8 8.3 -18.0 3.95 -18.65 1.35 -18.1 -1.65 -17.55 -4.65 -16.2 -5.7 -14.8 -6.75 -13.5 -6.3 -11.65 -5.7 -11.1 -3.15 L-10.95 -2.3 -11.0 -2.1 -10.7 -2.15 -10.6 -2.45 -9.75 -5.4 Q-8.65 -9.7 -7.35 -10.4 -4.7 -11.9 0.35 -9.65 L2.4 -8.85 6.05 -8.4 M10.05 -1.95 L10.0 -2.1 9.75 -2.95 Q8.65 -6.85 8.35 -7.05 L5.85 -7.4 2.1 -7.9 -2.3 -9.65 -6.85 -9.55 Q-7.65 -9.05 -8.35 -6.55 L-9.5 -2.45 -9.65 -2.1 -9.9 -1.35 -10.45 -1.2 -11.95 -0.8 -12.65 -0.65 Q-11.65 -1.5 -12.05 -2.9 -13.1 -6.75 -15.6 -4.9 -17.65 -3.25 -17.3 1.75 -16.95 7.25 -12.85 7.8 L-2.0 8.8 Q4.5 8.8 10.3 7.3 17.0 5.55 17.85 2.8 18.75 -0.35 17.45 -3.45 16.05 -6.75 13.65 -6.15 12.0 -5.75 11.35 -4.75 10.75 -3.85 11.35 -3.0 L12.2 -1.65 11.85 -1.7 10.45 -1.9 10.05 -1.95 M10.35 -2.55 L10.45 -1.9 10.35 -2.55 M-11.75 -1.25 L-11.95 -0.8 -11.75 -1.25 M11.2 -2.35 L11.85 -1.7 11.2 -2.35 M-10.35 -1.8 L-10.45 -1.2 -10.35 -1.8" fill="#6d614e" fill-rule="evenodd" stroke="none"/>
      <path d="M10.45 -1.9 L10.35 -2.55 M-11.95 -0.8 L-11.75 -1.25 M11.85 -1.7 L11.2 -2.35 M10.65 0.8 L10.45 -1.9 M11.85 -1.7 L13.1 -0.45 15.15 -0.35 15.65 -1.65 14.85 -2.25 Q14.05 -2.95 14.25 -3.35 14.5 -3.8 15.4 -3.05 16.3 -2.3 16.2 -1.65 L15.4 1.15 M-10.75 1.65 L-10.45 -1.2 -10.35 -1.8 M-11.95 -0.8 L-13.05 1.0 -14.4 1.5 -15.0 0.6 -15.15 0.3 Q-14.05 -1.15 -14.1 -1.7 -14.15 -2.1 -14.75 -1.7 L-15.6 -0.7 Q-15.9 0.05 -15.3 3.05 M10.65 0.8 L10.65 1.05" fill="none" stroke="#8d7d67" stroke-linecap="round" stroke-linejoin="round" stroke-width="1.0"/>
      <path d="M-7.2 -6.85 Q-7.15 -3.0 -7.65 -2.0 -8.35 -0.8 -9.2 -0.85" fill="none" stroke="#b3a68a" stroke-linecap="round" stroke-linejoin="round" stroke-width="1.0"/>
      <path d="M-0.85 -7.8 L2.6 -5.9 Q3.35 -6.0 5.0 -6.75" fill="none" stroke="#b0a88c" stroke-linecap="round" stroke-linejoin="round" stroke-width="1.0"/>
      <path d="M1.35 -3.9 L5.15 -3.9 7.0 -4.9" fill="none" stroke="#e8debf" stroke-linecap="round" stroke-linejoin="round" stroke-width="1.0"/>
    </g>
  </defs>
</svg>
