<?xml version="1.0" encoding="UTF-8" standalone="no"?>
<svg xmlns:xlink="http://www.w3.org/1999/xlink" height="92.9px" width="100.7px" xmlns="http://www.w3.org/2000/svg">
  <g transform="matrix(1.0, 0.0, 0.0, 1.0, 38.65, 49.75)">
    <use height="35.9" transform="matrix(1.0, 0.0, 0.0, 1.0, -22.1, -11.0)" width="46.2" xlink:href="#shape0"/>
  </g>
  <defs>
    <g id="shape0" transform="matrix(1.0, 0.0, 0.0, 1.0, 22.1, 11.0)">
      <path d="M-18.9 12.05 Q-18.15 11.45 -16.35 12.05 -15.45 12.35 -14.7 12.8 L-14.8 14.8 -16.6 19.6 -16.55 19.55 -17.85 24.6 -17.85 24.75 Q-21.65 24.6 -21.55 22.8 -21.45 21.35 -19.0 20.45 L-17.3 19.85 Q-21.95 19.75 -21.15 17.65 -20.55 16.25 -18.2 16.45 L-16.0 16.9 Q-20.05 13.05 -18.9 12.05" fill="#d9d722" fill-rule="evenodd" stroke="none"/>
      <path d="M-14.45 13.05 Q-15.6 12.5 -16.8 12.2 -19.1 11.5 -19.05 12.55 -18.95 14.2 -16.7 16.55 L-18.7 16.35 Q-20.75 16.4 -21.15 17.65 -21.7 19.65 -17.8 19.9 L-19.85 21.0 Q-21.85 22.25 -21.55 23.2 -21.05 24.7 -18.95 24.3" fill="none" stroke="#bf8919" stroke-linecap="round" stroke-linejoin="round" stroke-width="1.0"/>
      <path d="M-17.95 12.9 L-15.45 13.9" fill="none" stroke="#faf02e" stroke-linecap="round" stroke-linejoin="round" stroke-width="1.0"/>
      <path d="M-19.25 17.2 L-16.8 17.4" fill="none" stroke="#faf02e" stroke-linecap="round" stroke-linejoin="round" stroke-width="1.0"/>
      <path d="M-20.1 22.05 L-18.4 20.95" fill="none" stroke="#faf02e" stroke-linecap="round" stroke-linejoin="round" stroke-width="1.0"/>
      <path d="M17.65 19.1 Q19.7 19.45 20.1 20.25 20.55 21.15 19.25 22.05 18.1 22.85 16.95 22.8 L15.9 18.95 17.65 19.1 M19.2 12.9 Q19.45 15.0 15.4 15.65 20.35 15.75 19.95 17.4 19.6 18.95 15.9 18.9 L14.4 14.85 13.7 12.4 16.35 11.85 Q19.05 11.55 19.2 12.9" fill="#d9d722" fill-rule="evenodd" stroke="none"/>
      <path d="M17.2 23.3 Q20.05 22.4 20.35 21.15 20.7 19.5 16.6 19.0 19.95 18.65 19.95 17.4 19.95 16.6 17.9 16.1 L15.85 15.7" fill="none" stroke="#bf8919" stroke-linecap="round" stroke-linejoin="round" stroke-width="1.0"/>
      <path d="M16.7 19.5 L18.6 20.0" fill="none" stroke="#faf02e" stroke-linecap="round" stroke-linejoin="round" stroke-width="1.0"/>
      <path d="M16.7 16.65 L18.7 17.0" fill="none" stroke="#faf02e" stroke-linecap="round" stroke-linejoin="round" stroke-width="1.0"/>
      <path d="M23.25 8.45 Q22.5 10.55 21.75 11.4 L19.75 13.05 21.35 13.05 23.25 12.4 Q21.6 14.55 20.5 14.95 18.0 15.95 15.85 15.7 12.7 15.35 9.85 13.45 8.45 12.5 5.45 9.2 L2.75 6.05 11.85 4.7 13.2 6.45 Q14.3 9.1 15.6 9.5 17.95 10.25 23.25 8.45" fill="#f8ea2e" fill-rule="evenodd" stroke="none"/>
      <path d="M6.2 6.9 L7.1 8.4 Q8.3 10.15 9.85 11.4 12.35 13.4 15.2 13.5" fill="none" stroke="#f8a140" stroke-linecap="round" stroke-linejoin="round" stroke-width="1.0"/>
      <path d="M8.85 6.65 L10.6 9.25" fill="none" stroke="#f8a140" stroke-linecap="round" stroke-linejoin="round" stroke-width="1.0"/>
      <path d="M16.6 15.25 L17.6 15.5 19.6 15.4 Q20.95 14.9 21.45 14.4" fill="none" stroke="#f8a140" stroke-linecap="round" stroke-linejoin="round" stroke-width="1.0"/>
      <path d="M17.95 12.5 L20.6 11.65 22.45 10.25" fill="none" stroke="#f8a140" stroke-linecap="round" stroke-linejoin="round" stroke-width="1.0"/>
      <path d="M3.7 7.25 L6.3 10.3 Q9.35 13.5 11.45 14.5 16.15 16.8 19.45 15.9 21.7 15.25 23.6 12.9 L20.2 13.25 22.45 10.25 23.25 8.45 Q18.1 10.75 15.6 9.5 14.05 8.7 13.55 6.6 L13.35 4.65" fill="none" stroke="#bf8919" stroke-linecap="round" stroke-linejoin="round" stroke-width="1.0"/>
      <path d="M-8.15 5.7 Q-9.9 10.05 -12.55 13.4 -15.2 16.7 -17.15 18.05 -15.3 10.05 -13.95 8.4 L-10.8 4.7 -8.15 5.7" fill="#f8ea2e" fill-rule="evenodd" stroke="none"/>
      <path d="M-11.9 6.15 Q-14.3 8.3 -15.45 12.05 -16.65 15.8 -16.9 17.65 -13.7 15.15 -11.95 13.2 -10.2 11.3 -8.15 7.4" fill="none" stroke="#bf8919" stroke-linecap="round" stroke-linejoin="round" stroke-width="1.0"/>
      <path d="M-9.05 8.3 Q-12.15 12.95 -13.55 14.15" fill="none" stroke="#f8a140" stroke-linecap="round" stroke-linejoin="round" stroke-width="1.0"/>
      <path d="M10.8 4.5 L12.25 7.45 Q8.75 11.3 5.95 12.05 L0.1 12.7 -4.75 12.15 Q-7.55 11.5 -9.8 9.9 L-12.45 7.9 -10.9 4.6 -3.55 5.85 Q-0.85 6.25 2.65 5.75 L8.5 4.9 10.8 4.5" fill="#000000" fill-opacity="0.32156864" fill-rule="evenodd" stroke="none"/>
      <path d="M5.4 -8.4 Q7.65 -8.3 8.3 -7.85 9.0 -7.45 9.8 -4.5 L10.8 -4.5 Q11.25 -4.5 12.1 -5.55 13.35 -7.15 14.45 -6.95 16.0 -6.75 17.6 -3.15 18.15 -1.85 18.15 0.6 18.1 3.3 17.2 4.5 15.95 6.2 11.2 7.85 5.2 9.9 -1.85 9.75 -8.7 9.6 -14.1 7.4 -18.15 5.75 -19.05 4.35 -20.9 1.55 -19.35 -3.8 -18.7 -5.95 -17.5 -6.25 -16.35 -6.55 -14.7 -4.7 -13.35 -3.35 -12.95 -3.35 L-10.85 -3.5 -10.35 -5.35 Q-9.2 -9.65 -7.95 -10.4 -5.25 -11.85 -0.3 -9.65 0.75 -9.2 1.75 -8.8 L5.4 -8.4 M9.0 -3.4 L7.75 -7.05 5.25 -7.4 1.45 -7.85 -2.9 -9.6 -7.45 -9.5 Q-8.3 -9.05 -9.0 -6.55 L-9.85 -3.55 -10.15 -2.55 -10.5 -2.5 -12.9 -2.35 Q-13.6 -2.3 -16.0 -4.65 -17.6 -6.2 -18.4 -3.55 -19.1 -1.05 -19.05 0.8 -19.0 2.6 -18.2 3.8 -17.45 4.95 -13.7 6.45 -8.5 8.6 -1.85 8.75 5.0 8.9 10.8 6.95 15.3 5.4 16.4 3.9 17.1 2.95 17.1 0.55 17.1 -1.65 16.65 -2.75 14.85 -6.85 13.55 -5.65 L12.35 -4.3 Q11.55 -3.5 10.8 -3.5 L9.6 -3.45 9.0 -3.4" fill="#ae0c30" fill-rule="evenodd" stroke="none"/>
      <path d="M-10.15 -2.55 L-10.3 -2.1 -10.95 -0.15 -11.1 -0.3 -11.15 0.65 -11.5 2.65 -11.5 0.35 -10.5 -2.5 -10.15 -2.55" fill="#fa8eea" fill-rule="evenodd" stroke="none"/>
      <path d="M-6.45 5.55 L-8.1 5.25 -7.45 5.35 -6.45 5.55" fill="#fbaaef" fill-rule="evenodd" stroke="none"/>
      <path d="M-10.15 -2.55 L-9.85 -3.55 -9.0 -6.55 Q-8.3 -9.05 -7.45 -9.5 L-2.9 -9.6 1.45 -7.85 5.25 -7.4 7.75 -7.05 9.0 -3.4 9.4 -2.1 9.65 -1.2 6.1 0.65 Q1.9 2.65 -0.55 2.8 -3.0 2.9 -6.7 1.65 -9.95 0.6 -10.95 -0.15 L-10.3 -2.1 -10.15 -2.55" fill="#fbaadd" fill-rule="evenodd" stroke="none"/>
      <path d="M-10.95 -0.15 Q-9.95 0.6 -6.7 1.65 -3.0 2.9 -0.55 2.8 1.9 2.65 6.1 0.65 L9.65 -1.2 9.4 -2.1 9.0 -3.4 9.6 -3.45 10.8 -3.5 Q11.55 -3.5 12.35 -4.3 L13.55 -5.65 Q14.85 -6.85 16.65 -2.75 17.1 -1.65 17.1 0.55 17.1 2.95 16.4 3.9 15.3 5.4 10.8 6.95 5.0 8.9 -1.85 8.75 -8.5 8.6 -13.7 6.45 -17.45 4.95 -18.2 3.8 -19.0 2.6 -19.05 0.8 -19.1 -1.05 -18.4 -3.55 -17.6 -6.2 -16.0 -4.65 -13.6 -2.3 -12.9 -2.35 L-10.5 -2.5 -11.5 0.35 -11.5 2.65 -11.15 0.65 -11.1 -0.3 -10.95 -0.15 M9.65 -1.2 L9.7 -1.25 Q10.3 1.95 9.75 2.6 9.2 3.25 7.45 3.9 1.45 6.15 -0.4 6.25 L-6.45 5.55 -0.4 6.25 Q1.45 6.15 7.45 3.9 9.2 3.25 9.75 2.6 10.3 1.95 9.7 -1.25 L9.65 -1.2 M-8.1 5.25 L-6.45 5.55 -7.45 5.35 -8.1 5.25 Q-9.95 4.85 -10.65 4.35 L-11.2 3.75 Q-11.5 3.2 -11.4 2.55 L-11.15 0.65 -11.4 2.55 Q-11.5 3.2 -11.2 3.75 L-10.65 4.35 Q-9.95 4.85 -8.1 5.25 M-11.2 3.75 L-11.45 3.25 -11.5 2.65 -11.45 3.25 -11.2 3.75" fill="#f88fc9" fill-rule="evenodd" stroke="none"/>
      <path d="M-9.85 -3.55 L-10.5 -2.5 -11.5 0.35 -11.5 2.65 -11.45 3.25 M9.4 -4.3 L10.25 -0.8 10.4 2.15 M13.2 4.5 L15.35 2.5 Q15.55 2.05 14.65 1.5 L13.45 0.65 13.85 -0.5 M-16.15 3.9 L-17.8 2.15 Q-16.15 1.65 -15.8 1.15 L-15.8 -0.5" fill="none" stroke="#d76498" stroke-linecap="round" stroke-linejoin="round" stroke-width="1.0"/>
      <path d="M-1.45 -7.8 L1.95 -5.85 4.35 -6.7 M-7.85 -6.8 Q-7.75 -2.95 -8.3 -2.0 -8.95 -0.8 -9.85 -0.8" fill="none" stroke="#e970be" stroke-linecap="round" stroke-linejoin="round" stroke-width="1.0"/>
      <path d="M0.7 -3.85 L4.55 -3.85 6.35 -4.85 M13.2 -4.05 L14.55 -4.85 Q15.05 -4.7 15.55 -3.55 L16.05 0.3 M-16.65 -4.7 L-17.45 -4.25 Q-18.3 -3.65 -18.3 -3.05 -18.3 -2.05 -19.05 0.8" fill="none" stroke="#fad1e9" stroke-linecap="round" stroke-linejoin="round" stroke-width="1.0"/>
    </g>
  </defs>
</svg>
