<svg xmlns:xlink="http://www.w3.org/1999/xlink" height="92.9" width="100.7" xmlns="http://www.w3.org/2000/svg"><g transform="translate(38.65 49.75)"><use height="23.9" transform="translate(-23.5 -8)" width="45.15" xlink:href="#a"/><use height="39.6" transform="matrix(.5 0 0 .5 -3.6 -3.6)" width="32.7" xlink:href="#text0"/></g><defs><g id="a"><path d="M8.05 7.75q5.45 4.3-.5 5.3-6 1-10.3-.1Q-7.1 11.8-8.8 10.4l-.8-.6 6.8-3.25q1.55-1.2 3.6-1.5 1.9-.25 3.7 0 1.95.3 3.05 1.8l.5.95v-.05" fill-opacity=".322" fill-rule="evenodd" transform="translate(23.5 8)"/><path d="m-7.6-7.05.65.1q1.4.2 2.55.95l1.9 1.4q.25-.95-1.25-2.9Q.1-6.9.85-5.15q.7 1.7.05 3.6.65-.15-.95 3.3-.95 2-3.8 3.55.6-1.15.65-2.5 0-1.5-1-2.8-1.15-1.45-3.5-1.35l-.8.05q-1.55-.25-1.75-1.5-.25-1.45.75-2.6.75-.95 2.1-1.4l-.2-.25M-23 7q6.15-.3 6.3-5.1l.35-3.8q.5-2.75 2.85-4 1.15.95 1.75 2.15.65 1.4.65 3.25h.05l-.35.25-.45.3-.3.2q-.95.8-1.35 1.8-.65 1.5-2.05 2.6l-3.2 1.95q-1.35.6-4.2.4H-23" fill="#fc0" fill-rule="evenodd" transform="translate(23.5 8)"/><path d="m-7.6-7.05.2.25q-1.35.45-2.1 1.4-1 1.15-.75 2.6.2 1.25 1.75 1.5-1.45.2-2.55.8h-.05q0-1.85-.65-3.25-.6-1.2-1.75-2.15 2.15-1.2 5.9-1.15" fill="#ff0" fill-rule="evenodd" transform="translate(23.5 8)"/><path d="m-8.5-1.3.8-.05q2.35-.1 3.5 1.35 1 1.3 1 2.8-.05 1.35-.65 2.5-1.05-1.55-2.8-2.15-1.9-.7-3.65.3-3.5 1.8-5.95 4.5l3 .05.45.5-.5.25-.7.3-.25.1-3.05.4q-2.9-.8-5.65-2.55 2.85.2 4.2-.4l3.2-1.95q1.4-1.1 2.05-2.6.4-1 1.35-1.8l.3-.2.45-.3.35-.25q1.1-.6 2.55-.8" fill="#e4b001" fill-rule="evenodd" transform="translate(23.5 8)"/><path d="m-17.3 9.55 3.05-.4.25-.1.7-.3.5-.25-.45-.5-3-.05q2.45-2.7 5.95-4.5 1.75-1 3.65-.3 1.75.6 2.8 2.15l-.35.15-1.2.6-1 .35.05 2.7q-2.85.9-5.6 1l-.85.7q-1.6 1.05-3.5 1.05-2-.05-3.5-1.75l2.5-.55" fill="#cb8a21" fill-rule="evenodd" transform="translate(23.5 8)"/><path d="M.9-1.55q.65-1.9-.05-3.6Q.1-6.9-3.75-7.5q1.5 1.95 1.25 2.9L-4.4-6q-1.15-.75-2.55-.95l-.65-.1q-3.75-.05-5.9 1.15-2.35 1.25-2.85 4l-.35 3.8Q-16.85 6.7-23 7m5.7 2.55-2.5.55q1.5 1.7 3.5 1.75 1.9 0 3.5-1.05l.85-.7q2.75-.1 5.6-1M-22.95 7q2.75 1.75 5.65 2.55" fill="none" stroke="#a97e01" stroke-linecap="round" stroke-linejoin="round" transform="translate(23.5 8)"/><path d="M-10.6 5.65Q-8.85.8-4.2-1.9l1.2-.6q4-1.8 8 .25Q9.55.05 10.75 5 7.95 7.3 1.7 7.5L-5.15 7h-.2l-2-.45-3.25-.9" fill="#fff" fill-rule="evenodd" transform="translate(23.5 8)"/><path d="M10.6 13.75q-4.85-.3-9.4-2.55L-1.05 10l-2-1.25q-.1-.1-.15-.1l-1.3-1-.85-.65h.2Q-.6 9.25 2.3 8.85q2.95-.45 4 1.65 1 2.1 3.05 2.6 1.15.3 1.25.65" fill="#c36" fill-rule="evenodd" transform="translate(23.5 8)"/><path d="M-3.05 8.75q-1.05 2.65-3.4 4.55-.95.75-1.85 1.15l-.1-.15q2.2-1.9 3.35-4.6l.55-2.05 1.3 1q.05 0 .15.1M-5.35 7q-1.3 3.4-3.85 4.9-2.6 1.45-4.6 1.6.05-2.7 1.15-5.15.7-1.55 2.05-2.7l3.25.9 2 .45" fill="#fc0" fill-rule="evenodd" transform="translate(23.5 8)"/><path d="m10.75 5 .05.05.05-.05q4.35 2.15 8.2 1.6 3.75-.55.85 2.9l-1 1.05-1.55 1.3-.1.05-.65.45-1 .5-.1.05-3.15.75-1.75.1q-.1-.35-1.25-.65-2.05-.5-3.05-2.6-1.05-2.1-4-1.65-2.9.4-7.45-1.85l6.85.5q6.25-.2 9.05-2.5" fill="#f39" fill-rule="evenodd" transform="translate(23.5 8)"/><path d="M-10.6 5.65Q-8.85.8-4.2-1.9l1.2-.6q4-1.8 8 .25Q9.55.05 10.75 5m.1 0q4.35 2.15 8.2 1.6 3.75-.55.85 2.9l-1 1.05-1.55 1.3-.1.05m-.65.45-1 .5-.1.05-3.15.75-1.75.1q-4.85-.3-9.4-2.55L-1.05 10l-2-1.25q-.1-.1-.15-.1l-1.3-1-.85-.65-2-.45-3.25-.9" fill="none" stroke="#936" stroke-linecap="round" stroke-linejoin="round" transform="translate(23.5 8)"/><path d="M-3.05 8.75q-1.05 2.65-3.4 4.55-.95.75-1.85 1.15l-.5.3-1.15.65 1.55-1.1q2.2-1.9 3.35-4.6l.55-2.05M-5.35 7q-1.3 3.4-3.85 4.9-2.6 1.45-4.6 1.6.05-2.7 1.15-5.15.7-1.55 2.05-2.7Z" fill="none" stroke="#a97e01" stroke-linecap="round" stroke-linejoin="round" transform="translate(23.5 8)"/></g></defs></svg>