<?xml version="1.0" encoding="UTF-8" standalone="no"?>
<svg xmlns:xlink="http://www.w3.org/1999/xlink" height="92.9px" width="100.7px" xmlns="http://www.w3.org/2000/svg">
  <g transform="matrix(1.0, 0.0, 0.0, 1.0, 38.65, 49.75)">
    <use height="39.6" transform="matrix(1.0, 0.0, 0.0, 1.0, -24.1, -20.3)" width="47.15" xlink:href="#shape0"/>
  </g>
  <defs>
    <g id="shape0" transform="matrix(1.0, 0.0, 0.0, 1.0, 24.1, 20.3)">
      <path d="M2.95 5.3 L4.05 8.6 Q4.7 10.2 9.3 15.35 4.45 13.2 2.7 11.7 L-0.6 7.1 -0.9 6.55 2.95 5.3" fill="#ff6638" fill-rule="evenodd" stroke="none"/>
      <path d="M11.75 8.2 L12.45 8.85 Q13.2 9.65 13.5 10.7 14.0 12.3 13.75 13.05 12.85 12.45 10.65 11.8 L5.65 10.55 Q3.85 9.75 1.6 7.65 L-0.25 5.7 11.75 8.2" fill="#ff6638" fill-rule="evenodd" stroke="none"/>
      <path d="M-1.95 -20.05 L0.4 -20.3 3.55 -8.85 10.55 3.65 11.85 9.25 Q9.15 6.45 -1.0 6.45 -11.1 6.45 -12.1 8.15 L-10.8 2.8 -4.95 -8.7 -1.95 -20.05" fill="#000000" fill-rule="evenodd" stroke="none"/>
      <path d="M8.4 1.8 Q23.05 4.6 23.05 7.2 23.05 10.7 11.85 9.25 L8.4 1.8" fill="#000000" fill-rule="evenodd" stroke="none"/>
      <path d="M-9.45 1.8 L-12.95 9.25 Q-24.1 9.85 -24.1 7.2 -24.1 5.15 -16.75 3.3 L-9.45 1.8" fill="#000000" fill-rule="evenodd" stroke="none"/>
      <path d="M8.2 -0.95 L9.95 1.8 10.05 2.15 6.95 1.7 6.3 -1.05 8.2 -0.95" fill="#474c4f" fill-rule="evenodd" stroke="none"/>
      <path d="M0.55 -2.3 L3.25 -2.45 6.15 -2.05 Q6.7 -1.7 7.45 1.8 L1.15 1.7 0.55 -2.3" fill="#a3b6c7" fill-rule="evenodd" stroke="none"/>
      <path d="M-2.85 -1.95 L5.3 -1.05 5.9 1.75 -6.35 1.7 -9.8 2.05 -10.6 1.95 -10.45 1.3 -9.6 -0.35 -8.6 -1.8 -2.85 -1.95" fill="#474c4f" fill-rule="evenodd" stroke="none"/>
      <path d="M3.2 -0.05 L6.4 -0.1 6.4 0.7 3.3 0.95 Q2.75 0.95 2.75 0.45 2.7 -0.05 3.2 -0.05" fill="#a3b6c7" fill-rule="evenodd" stroke="none"/>
      <path d="M7.45 7.4 L12.05 8.4 13.2 10.05 12.45 10.2 8.8 8.45 7.45 7.4" fill="#ff6638" fill-rule="evenodd" stroke="none"/>
      <path d="M9.9 11.65 L11.4 9.65 13.5 10.7 Q14.5 12.65 14.9 14.8 15.15 16.15 14.55 16.05 13.95 16.0 13.25 15.05 L9.9 11.65" fill="#ff6638" fill-rule="evenodd" stroke="none"/>
      <path d="M-3.1 6.45 Q-7.75 7.55 -10.75 10.95 -13.75 14.3 -15.9 18.25 -15.95 15.6 -15.25 13.45 -14.45 10.95 -12.6 8.45 -11.8 7.25 -8.85 6.7 L-3.1 6.45" fill="#ff6638" fill-rule="evenodd" stroke="none"/>
      <path d="M-15.85 18.8 Q-15.75 14.3 -15.0 12.45 L-12.1 7.55 Q-7.75 5.45 -2.0 6.05 3.75 6.7 12.4 8.45 L14.4 12.7 Q14.9 14.3 14.9 16.55" fill="none" stroke="#a32e0b" stroke-linecap="round" stroke-linejoin="round" stroke-width="1.0"/>
      <path d="M-0.85 6.2 L2.4 11.55 Q3.65 12.8 8.75 15.2" fill="none" stroke="#a32e0b" stroke-linecap="round" stroke-linejoin="round" stroke-width="1.0"/>
      <path d="M-11.0 3.3 L-10.25 0.7 -9.35 -0.95 -8.6 -1.8 -8.0 -2.05" fill="none" stroke="#000000" stroke-linecap="round" stroke-linejoin="round" stroke-width="1.0"/>
      <path d="M5.9 -3.2 L8.9 0.2 10.15 2.55" fill="none" stroke="#000000" stroke-linecap="round" stroke-linejoin="round" stroke-width="1.0"/>
      <path d="M3.4 0.45 L4.6 0.3" fill="none" stroke="#ffffff" stroke-linecap="round" stroke-linejoin="round" stroke-width="1.0"/>
      <path d="M2.6 -2.2 L5.15 -1.7" fill="none" stroke="#ffffff" stroke-linecap="round" stroke-linejoin="round" stroke-width="1.0"/>
    </g>
  </defs>
</svg>
