<svg xmlns:xlink="http://www.w3.org/1999/xlink" height="92.9" width="100.7" xmlns="http://www.w3.org/2000/svg"><use height="39.6" transform="translate(14.55 29.45)" width="47.15" xlink:href="#a"/><defs><g id="a"><path d="m2.95 5.3 1.1 3.3q.65 1.6 5.25 6.75-4.85-2.15-6.6-3.65L-.6 7.1l-.3-.55L2.95 5.3" fill="#ff6638" fill-rule="evenodd" transform="translate(24.1 20.3)"/><path d="m11.75 8.2.7.65q.75.8 1.05 1.85.5 1.6.25 2.35-.9-.6-3.1-1.25l-5-1.25q-1.8-.8-4.05-2.9L-.25 5.7l12 2.5" fill="#ff6638" fill-rule="evenodd" transform="translate(24.1 20.3)"/><path d="M-1.95-20.05.4-20.3 3.55-8.85l7 12.5 1.3 5.6Q9.15 6.45-1 6.45q-10.1 0-11.1 1.7l1.3-5.35 5.85-11.5 3-11.35" fill-rule="evenodd" transform="translate(24.1 20.3)"/><path d="M8.4 1.8q14.65 2.8 14.65 5.4 0 3.5-11.2 2.05L8.4 1.8m-17.85 0-3.5 7.45q-11.15.6-11.15-2.05 0-2.05 7.35-3.9l7.3-1.5" fill-rule="evenodd" transform="translate(24.1 20.3)"/><path d="M8.2-.95 9.95 1.8l.1.35-3.1-.45-.65-2.75 1.9.1" fill="#474c4f" fill-rule="evenodd" transform="translate(24.1 20.3)"/><path d="m.55-2.3 2.7-.15 2.9.4q.55.35 1.3 3.85l-6.3-.1-.6-4" fill="#a3b6c7" fill-rule="evenodd" transform="translate(24.1 20.3)"/><path d="m-2.85-1.95 8.15.9.6 2.8-12.25-.05-3.45.35-.8-.1.15-.65.85-1.65 1-1.45 5.75-.15" fill="#474c4f" fill-rule="evenodd" transform="translate(24.1 20.3)"/><path d="M3.2-.05 6.4-.1v.8L3.3.95q-.55 0-.55-.5-.05-.5.45-.5" fill="#a3b6c7" fill-rule="evenodd" transform="translate(24.1 20.3)"/><path d="m7.45 7.4 4.6 1 1.15 1.65-.75.15L8.8 8.45 7.45 7.4" fill="#ff6638" fill-rule="evenodd" transform="translate(24.1 20.3)"/><path d="m9.9 11.65 1.5-2 2.1 1.05q1 1.95 1.4 4.1.25 1.35-.35 1.25-.6-.05-1.3-1l-3.35-3.4m-13-5.2q-4.65 1.1-7.65 4.5-3 3.35-5.15 7.3-.05-2.65.65-4.8.8-2.5 2.65-5 .8-1.2 3.75-1.75l5.75-.25" fill="#ff6638" fill-rule="evenodd" transform="translate(24.1 20.3)"/><path d="M-15.85 18.8q.1-4.5.85-6.35l2.9-4.9q4.35-2.1 10.1-1.5 5.75.65 14.4 2.4l2 4.25q.5 1.6.5 3.85" fill="none" stroke="#a32e0b" stroke-linecap="round" stroke-linejoin="round" transform="translate(24.1 20.3)"/><path d="m-.85 6.2 3.25 5.35q1.25 1.25 6.35 3.65" fill="none" stroke="#a32e0b" stroke-linecap="round" stroke-linejoin="round" transform="translate(24.1 20.3)"/><path d="m-11 3.3.75-2.6.9-1.65.75-.85.6-.25M5.9-3.2l3 3.4 1.25 2.35" fill="none" stroke="#000" stroke-linecap="round" stroke-linejoin="round" transform="translate(24.1 20.3)"/><path d="M3.4.45 4.6.3m-2-2.5 2.55.5" fill="none" stroke="#fff" stroke-linecap="round" stroke-linejoin="round" transform="translate(24.1 20.3)"/></g></defs></svg>