<svg xmlns:xlink="http://www.w3.org/1999/xlink" height="92.9" width="100.7" xmlns="http://www.w3.org/2000/svg"><use height="18.85" transform="translate(17.2 45.2)" width="30.95" xlink:href="#a"/><defs><g id="a"><path d="m-10.05 5.05.7.2-2.25 2.65q-1.65 2.35-2.8 4.95l-1.3-.05q-2.2-1.1-3.95-3.2-2.95-3.45.85-2.9 3.75.55 8.5-1.75l.25.1" fill="#5192d2" fill-rule="evenodd" transform="translate(21.45 4.55)"/><path d="m-15.05 13.1-.25-.1-.4-.2.65.3" fill="#900" fill-rule="evenodd" transform="translate(21.45 4.55)"/><path d="m-15.05 13.1-.25-.1-.4-.2" fill="none" stroke="#00439c" stroke-linecap="round" stroke-linejoin="round" transform="translate(21.45 4.55)"/><path d="M-10.35 4.95Q-8.75.1-4.55-2.6q4.2-2.7 8.3-.35Q7.85-.65 9 4.3 6.45 6.6.8 6.8l-5.75-.55q-2.7-.35-5.1-1.2l-.25-.1h-.05" fill="#fff" fill-rule="evenodd" transform="translate(21.45 4.55)"/><path d="M-10.3 4.95q-4.75 2.3-8.5 1.75-3.8-.55-.85 2.9 1.75 2.1 3.95 3.2l1.6 1q.1-1.7 2.25-4.9l2.75-3.45 4.3.9" fill="none" stroke="#00439c" stroke-linecap="round" stroke-linejoin="round" transform="translate(21.45 4.55)"/><path d="M-10.35 4.95Q-8.75.1-4.55-2.6q4.2-2.7 8.3-.35Q7.85-.65 9 4.3 6.45 6.6.8 6.8l-5.75-.55" fill="none" stroke="#00439c" stroke-linecap="round" stroke-linejoin="round" transform="translate(21.45 4.55)"/><path d="m5.05 2.95-.2.35v.3l-.1.35L4.7 4l-5.1.55-.15-.05v-.3l.05-.05-.05-.45-.05-.25.05-.4v-.5l.1-.15.05-.05q.5-.9 1.7-1.15l.8-.1Q4.2.85 4.8 2.45v.05l.1.1.15.35" fill-rule="evenodd" transform="translate(21.45 4.55)"/></g></defs></svg>