<svg xmlns:xlink="http://www.w3.org/1999/xlink" height="92.9" width="100.7" xmlns="http://www.w3.org/2000/svg"><g transform="translate(38.65 49.75)"><use height="17.55" transform="translate(4.65 -10.3)" width="20.05" xlink:href="#a"/><use height="17.55" transform="matrix(-1 0 0 1 -4.65 -10.4)" width="20.05" xlink:href="#a"/></g><defs><use height="17.55" width="20.05" xlink:href="#b" id="a"/><g id="b"><path d="M-9.05 6.5q-.9-1.45-.05-3.2 10.65.45 11.6-.1l.55-.45q3.6-3.8.85-8.15L2.05-8.3q6.1 2.95 7.1 6.7Q9.4.35 8.4 2 7.35 3.6 5.85 4.7 4.3 5.85 2.4 6l-3.9.3-3.85.2h-3.7" fill="#fff" fill-rule="evenodd" transform="translate(10 8.8)"/><path d="m9.15-1.6.1.4q.75 3.95-.3 5.9-1.05 1.95-2.7 2.7-1.65.75-3 .7L-7 8.25q-1.45-.8-2.05-1.75h3.7l3.85-.2L2.4 6q1.9-.15 3.45-1.3Q7.35 3.6 8.4 2q1-1.65.75-3.6" fill="#cce4ff" fill-rule="evenodd" transform="translate(10 8.8)"/><path d="m9.15-1.6.1.4q.75 3.95-.3 5.9-1.05 1.95-2.7 2.7-1.65.75-3 .7L-7 8.25q-1.45-.8-2.05-1.75-.9-1.45-.05-3.2 10.65.45 11.6-.1l.55-.45q3.6-3.8.85-8.15L2.05-8.3q6.1 2.95 7.1 6.7Z" fill="none" stroke="#333" stroke-linecap="round" stroke-linejoin="round" transform="translate(10 8.8)"/></g></defs></svg>