<?xml version="1.0" encoding="UTF-8" standalone="no"?>
<svg xmlns:xlink="http://www.w3.org/1999/xlink" height="92.9px" width="100.7px" xmlns="http://www.w3.org/2000/svg">
  <g transform="matrix(1.0, 0.0, 0.0, 1.0, 38.65, 49.75)">
    <use height="22.25" transform="matrix(1.0, 0.0, 0.0, 1.0, -26.95, -7.35)" width="41.45" xlink:href="#shape0"/>
  </g>
  <defs>
    <g id="shape0" transform="matrix(1.0, 0.0, 0.0, 1.0, 26.95, 7.35)">
      <path d="M-10.2 3.65 L-10.55 4.15 -11.05 7.15 -12.2 10.8 Q-12.8 13.65 -18.8 14.8 -23.7 15.6 -26.3 10.4 -28.25 6.4 -24.2 6.55 L-25.05 7.65 -24.45 9.15 Q-24.0 9.7 -22.3 9.45 -20.7 9.2 -19.8 8.55 L-17.65 6.1 Q-16.05 4.25 -15.2 3.8 L-10.2 3.65" fill="#2b1f16" fill-rule="evenodd" stroke="none"/>
      <path d="M5.75 -1.95 Q7.8 0.45 8.3 3.4 2.0 0.55 -2.0 1.55 -6.0 2.55 -12.05 9.6 -12.65 7.15 -12.15 4.25 -11.15 -1.55 -5.8 -3.7 1.7 -6.7 5.75 -1.95" fill="#9e378a" fill-rule="evenodd" stroke="none"/>
      <path d="M-12.05 9.6 Q-12.5 7.45 -12.05 4.75 -11.1 -0.65 -6.5 -3.25 -1.95 -5.85 2.75 -4.55 5.1 -3.9 6.5 -2.75" fill="none" stroke="#2b1f16" stroke-linecap="round" stroke-linejoin="round" stroke-width="1.0"/>
      <path d="M2.25 1.8 Q6.15 1.1 7.95 2.4 10.8 4.55 11.2 7.55 7.0 5.55 5.65 5.25 L-1.3 2.8 2.25 1.8" fill="#2b1f16" fill-rule="evenodd" stroke="none"/>
      <path d="M-5.5 2.9 Q-3.5 2.25 3.65 3.75 L-4.35 7.9 Q-7.2 9.25 -12.65 10.65 L-9.8 7.0 Q-6.75 3.3 -5.5 2.9" fill="#2b1f16" fill-rule="evenodd" stroke="none"/>
      <path d="M1.45 -6.35 Q4.85 -7.85 9.35 -5.4 13.65 -3.05 13.95 -0.35 14.25 3.0 10.55 5.65 8.3 3.05 2.8 2.75 -0.45 2.55 -5.9 4.85 L-10.0 6.5 Q-3.4 -4.2 1.45 -6.35" fill="#ff7de5" fill-rule="evenodd" stroke="none"/>
      <path d="M10.5 5.9 Q14.3 2.75 13.95 -0.35 13.55 -3.6 6.8 -6.45 2.85 -7.95 -1.75 -4.0 -5.25 -1.0 -11.35 9.15" fill="none" stroke="#57224c" stroke-linecap="round" stroke-linejoin="round" stroke-width="1.0"/>
    </g>
  </defs>
</svg>
