<?xml version="1.0" encoding="UTF-8" standalone="no"?>
<svg xmlns:xlink="http://www.w3.org/1999/xlink" height="92.9px" width="100.7px" xmlns="http://www.w3.org/2000/svg">
  <g transform="matrix(1.0, 0.0, 0.0, 1.0, 38.65, 49.75)">
    <use height="26.95" transform="matrix(1.0, 0.0, 0.0, 1.0, -17.55, -7.2)" width="41.95" xlink:href="#shape0"/>
  </g>
  <defs>
    <g id="shape0" transform="matrix(1.0, 0.0, 0.0, 1.0, 17.55, 7.2)">
      <path d="M7.95 5.85 L11.0 7.8 Q14.15 9.75 13.45 13.45 L13.35 13.5 13.25 13.6 Q9.45 11.5 5.3 10.65 L-3.25 10.15 -6.8 10.75 Q-11.15 11.95 -13.4 15.85 -13.55 16.15 -13.95 16.2 L-13.95 16.25 -14.1 16.45 -14.2 16.55 -14.4 16.55 -14.75 16.45 -14.85 16.35 -14.85 16.25 -14.9 16.1 -14.9 16.0 -14.9 15.6 -14.9 15.5 -14.85 15.45 -14.55 15.0 -14.3 14.3 -13.9 13.55 -13.9 13.45 -13.85 13.35 -13.85 13.25 -11.8 9.65 Q-9.5 5.25 -4.65 3.75 1.95 3.05 7.75 5.75 L7.95 5.85" fill="#000000" fill-opacity="0.2509804" fill-rule="evenodd" stroke="none"/>
      <path d="M-16.1 -0.05 L-16.9 -3.4 Q-15.85 -3.25 -13.6 -1.7 L-15.05 -3.9 Q-16.15 -5.4 -16.85 -5.5 L-12.05 -5.2 -8.5 -4.05 Q-8.95 -6.25 -9.95 -6.75 -7.3 -6.75 -5.85 -4.85 L-4.25 -2.25 Q-3.35 -0.15 -3.7 0.4 L-10.7 12.25 Q-12.5 12.35 -14.1 10.75 L-16.4 7.5 -15.15 8.25 Q-14.15 8.5 -13.6 7.95 -16.95 6.5 -17.05 0.05 -16.1 2.65 -14.5 2.6 L-16.1 -0.05" fill="#ffe100" fill-rule="evenodd" stroke="none"/>
      <path d="M-16.45 -3.0 Q-16.3 -2.2 -14.55 0.0 -13.3 1.7 -12.55 0.75 -12.05 0.1 -12.5 -1.0 L-13.2 -2.65 -10.9 -0.85 Q-9.65 0.8 -9.35 1.95 -8.85 4.0 -11.0 7.9 -11.8 11.45 -14.0 11.15 -14.85 11.0 -15.6 9.8 -16.35 8.65 -16.3 7.75 L-13.85 8.2 Q-15.5 6.1 -16.0 4.75 -16.8 2.55 -16.85 0.65 -16.1 2.45 -15.6 2.6 -15.5 1.45 -16.1 -0.2 L-16.85 -2.9 -16.45 -3.0" fill="#d4b100" fill-rule="evenodd" stroke="none"/>
      <path d="M-13.3 11.8 Q-15.95 10.1 -16.5 7.35 L-14.7 8.1 -13.35 8.0 Q-15.65 6.85 -16.35 4.2 -17.1 1.55 -17.05 0.05 L-15.5 2.3 Q-14.9 2.8 -14.5 2.8 -16.0 0.5 -16.35 -1.1 L-16.8 -3.65 -13.6 -1.7 Q-14.15 -3.25 -14.95 -4.1 L-16.6 -5.5 Q-13.25 -5.9 -12.05 -5.45 -10.8 -5.05 -8.7 -3.9 -8.35 -4.85 -9.3 -5.85 -10.05 -6.65 -10.35 -6.7 -8.3 -6.85 -7.0 -5.95 -2.85 -3.2 -2.35 2.4" fill="none" stroke="#8f5227" stroke-linecap="round" stroke-linejoin="round" stroke-width="1.0"/>
      <path d="M1.3 -2.75 Q6.95 -2.3 10.4 1.0 15.4 5.65 15.8 14.35 L15.75 17.2 Q13.75 16.6 12.7 12.7 L11.95 8.3 Q11.4 5.5 10.15 4.5 9.45 3.9 3.75 2.4 L-1.05 2.6 Q-4.4 3.1 -5.7 2.6 L-6.95 -0.25 Q-4.35 -3.15 1.3 -2.75" fill="#ffe100" fill-rule="evenodd" stroke="none"/>
      <path d="M-9.85 2.25 Q-8.1 -2.15 -0.45 -2.75 7.15 -3.4 11.3 2.0" fill="none" stroke="#8f5227" stroke-linecap="round" stroke-linejoin="round" stroke-width="1.0"/>
      <path d="M10.9 7.45 Q7.45 7.45 3.15 5.45 0.7 4.15 -0.45 3.85 -1.05 3.7 -2.0 4.2 L-5.95 5.75 -10.35 6.85 -9.95 7.0 -11.15 7.1 -6.6 3.55 -4.35 1.7 Q-2.15 0.55 0.3 0.65 3.35 0.75 6.55 2.7 9.95 4.75 10.9 7.45" fill="#ffe100" fill-rule="evenodd" stroke="none"/>
      <path d="M-2.3 2.75 Q-5.6 3.75 -7.45 4.85 -8.8 5.7 -9.95 7.1 L-10.85 8.45 Q-11.45 9.25 -12.05 9.2 -12.6 4.85 -9.6 1.75 -7.75 -0.1 -5.85 -0.25 -1.4 -0.65 0.15 1.25 L0.4 0.85 Q2.3 0.75 3.2 1.35 L0.15 2.1 -2.3 2.75" fill="#ffe100" fill-rule="evenodd" stroke="none"/>
      <path d="M-3.6 1.5 Q-3.0 0.0 -0.4 -0.65 L3.65 -0.85 Q5.05 -0.65 6.5 0.6 8.1 2.0 8.05 3.35 -3.9 5.4 -3.6 2.35 L-3.6 1.5" fill="#ffe100" fill-rule="evenodd" stroke="none"/>
      <path d="M0.2 -0.3 L4.7 -0.1 Q7.2 0.6 8.75 1.85 12.55 4.85 13.7 8.8 L15.05 14.75 15.4 17.35 12.65 14.75 Q11.8 13.9 11.25 12.55 L10.3 10.1 Q9.5 8.45 7.2 5.7 5.1 4.6 1.2 2.05 -1.6 0.25 0.2 -0.3" fill="#ffe100" fill-rule="evenodd" stroke="none"/>
      <path d="M10.3 10.1 L11.45 13.25 Q12.2 14.5 14.75 17.0" fill="none" stroke="#6b4c26" stroke-linecap="round" stroke-linejoin="round" stroke-width="1.0"/>
      <path d="M-13.85 12.0 Q-13.85 9.55 -12.7 7.75 L-10.95 5.65 Q-9.45 4.3 -9.1 5.25 -8.75 6.05 -10.0 7.45 L-11.8 9.4 -13.7 11.75 -13.85 12.0" fill="#ffe100" fill-rule="evenodd" stroke="none"/>
      <path d="M-8.7 9.6 L-12.0 14.65 Q-13.9 17.5 -15.95 19.2 L-15.4 15.9 -14.35 13.1 -13.45 11.5 Q-11.95 8.9 -9.8 6.65 L-8.25 4.75 Q-7.2 3.6 -6.25 3.6 -6.15 5.75 -8.7 9.6" fill="#d4b100" fill-rule="evenodd" stroke="none"/>
      <path d="M13.05 9.75 L14.8 9.0 15.9 13.25 Q16.15 13.85 15.15 18.85 L14.15 12.1 13.05 9.75" fill="#ff3ac0" fill-rule="evenodd" stroke="none"/>
      <path d="M9.4 1.1 Q8.0 0.4 4.1 0.6 0.25 0.85 -1.35 1.45 -5.45 2.95 -6.35 6.1 L-6.1 6.0 Q-6.65 6.35 -7.15 5.8 -7.55 5.3 -7.45 4.65 -7.4 4.25 -6.2 2.75 -4.05 0.4 -3.2 0.0 -0.9 -1.15 2.85 -0.8 6.5 -0.5 9.4 1.1" fill="#ff3ac0" fill-rule="evenodd" stroke="none"/>
      <path d="M-5.85 1.6 Q-6.35 -0.4 1.9 -0.65 7.65 -0.8 10.05 1.7 L9.55 3.1 Q7.55 0.45 -0.05 1.1 -1.5 1.25 -2.7 1.8 L-3.6 2.35" fill="none" stroke="#a81478" stroke-linecap="round" stroke-linejoin="round" stroke-width="1.0"/>
      <path d="M-6.6 4.75 L-6.45 5.05 -7.4 5.6 -6.6 4.75 M18.2 -3.45 Q18.45 -2.2 17.3 -0.7 L15.35 1.45 21.45 0.25 20.3 2.4 Q19.65 3.45 16.85 4.85 L19.8 3.9 Q21.6 3.25 22.85 3.35 22.8 5.3 19.75 6.95 14.1 10.05 7.95 10.3 6.2 10.4 0.4 9.1 -1.15 8.75 -3.45 7.45 -5.8 6.15 -6.45 5.05 L-3.0 3.5 Q2.1 1.4 3.95 1.3 8.3 1.0 18.2 -3.45" fill="#ffe100" fill-rule="evenodd" stroke="none"/>
      <path d="M2.55 4.85 Q6.65 4.65 9.0 3.75 7.35 5.65 1.45 6.55 -5.6 7.65 -5.45 3.6 -5.4 3.2 -3.3 3.85 L-0.95 4.6 2.55 4.85" fill="#d4b100" fill-rule="evenodd" stroke="none"/>
      <path d="M21.35 0.9 Q18.15 5.35 13.7 5.1 13.55 4.0 16.9 2.45 19.65 1.2 21.35 0.9" fill="#d4b100" fill-rule="evenodd" stroke="none"/>
      <path d="M0.3 8.7 Q-6.15 6.45 -4.45 4.85 L-3.35 4.75 Q-1.95 6.3 2.4 7.2 L9.9 7.6 Q12.85 7.6 15.85 6.5 L21.4 4.05 22.9 3.6 Q22.55 5.0 18.15 7.3 14.85 9.1 12.55 9.5 5.7 10.65 0.3 8.7" fill="#d4b100" fill-rule="evenodd" stroke="none"/>
      <path d="M13.05 9.75 L14.3 12.95 Q14.8 14.95 15.15 18.85 16.0 16.35 15.9 13.25 L14.8 9.0" fill="none" stroke="#a81478" stroke-linecap="round" stroke-linejoin="round" stroke-width="1.0"/>
      <path d="M2.65 1.4 Q5.65 1.15 9.9 -0.05 14.2 -1.2 18.8 -3.6 18.3 -1.55 17.45 -0.5 L15.1 1.55 18.6 0.85 22.1 0.0 Q21.05 2.1 20.1 2.8 L17.05 4.65 20.35 3.65 Q22.0 3.15 23.9 3.2 22.35 5.35 20.45 6.35 15.55 9.15 10.95 9.85 4.55 10.9 -1.45 8.45 L-6.45 5.45" fill="none" stroke="#8f5227" stroke-linecap="round" stroke-linejoin="round" stroke-width="1.0"/>
      <path d="M-6.95 6.85 Q-9.6 12.1 -12.2 15.1 L-15.6 19.25 Q-15.85 17.1 -15.4 15.9 L-14.45 13.75" fill="none" stroke="#6b4c26" stroke-linecap="round" stroke-linejoin="round" stroke-width="1.0"/>
      <path d="M-7.6 6.0 Q-9.1 6.2 -12.1 10.35 -14.0 13.0 -14.7 14.5 -15.1 12.1 -12.6 8.65 -8.65 3.2 -7.6 5.5 L-7.6 6.0" fill="#ff3ac0" fill-rule="evenodd" stroke="none"/>
      <path d="M-9.95 7.5 L-14.7 14.5 Q-14.45 11.25 -13.7 9.75 L-11.45 6.6" fill="none" stroke="#a81478" stroke-linecap="round" stroke-linejoin="round" stroke-width="1.0"/>
      <path d="M-8.6 2.9 Q-8.85 0.15 -6.8 -0.7 -4.75 -1.6 -3.85 1.4 -3.25 3.55 -4.0 5.9 -4.85 8.7 -7.0 8.75 -8.65 8.85 -10.4 7.45 -12.15 6.05 -12.45 4.4 -12.85 2.25 -11.3 1.95 -9.9 1.7 -8.6 2.9" fill="#ff3ac0" fill-rule="evenodd" stroke="none"/>
      <path d="M-8.6 2.9 Q-8.85 -0.9 -5.95 -1.0 -4.05 -1.05 -3.6 1.55 -3.3 3.6 -3.85 5.45 -5.4 10.6 -9.7 8.0 -12.2 6.5 -12.55 4.6 -12.85 3.1 -11.95 2.35 -10.6 1.25 -8.6 2.9 Z" fill="none" stroke="#a81478" stroke-linecap="round" stroke-linejoin="round" stroke-width="1.0"/>
      <path d="M-4.6 1.5 Q-4.3 2.65 -5.6 1.95 -6.9 1.25 -6.5 0.2 -6.1 -0.8 -5.3 -0.1 -4.5 0.6 -4.6 1.5" fill="#ffc2eb" fill-rule="evenodd" stroke="none"/>
      <path d="M-9.1 3.6 L-8.85 4.0 Q-8.7 5.0 -10.05 4.5 -11.45 3.95 -11.45 3.25 -11.5 2.25 -10.4 2.6 -9.4 2.95 -9.1 3.6" fill="#ffc2eb" fill-rule="evenodd" stroke="none"/>
    </g>
  </defs>
</svg>
