<?xml version="1.0" encoding="UTF-8" standalone="no"?>
<svg xmlns:xlink="http://www.w3.org/1999/xlink" height="92.9px" width="100.7px" xmlns="http://www.w3.org/2000/svg">
  <g transform="matrix(1.0, 0.0, 0.0, 1.0, 38.65, 49.75)">
    <use height="28.2" transform="matrix(1.0, 0.0, 0.0, 1.0, -21.6, -11.7)" width="42.6" xlink:href="#shape0"/>
  </g>
  <defs>
    <g id="shape0" transform="matrix(1.0, 0.0, 0.0, 1.0, 21.6, 11.7)">
      <path d="M16.0 12.6 Q16.0 14.3 11.4 15.1 L-1.35 16.0 -8.5 15.75 -13.4 15.45 Q-15.0 15.3 -15.45 14.85 L-15.7 14.1 -15.75 13.85 -15.7 13.45 Q-16.35 13.0 -16.35 12.15 -16.35 10.6 -14.55 10.1 L-12.8 9.8 -11.55 8.45 Q-9.4 6.65 -5.95 6.65 14.15 6.65 14.15 9.6 14.15 10.4 13.65 10.7 14.55 11.0 15.05 11.4 15.85 11.5 16.0 12.6 M-2.8 9.35 L-1.75 9.35 -5.7 9.2 -7.7 9.45 -2.8 9.35" fill="#302d39" fill-opacity="0.2509804" fill-rule="evenodd" stroke="none"/>
      <path d="M14.35 15.5 L17.8 11.4 19.25 9.3 19.65 9.0 Q20.3 7.3 19.75 6.75 19.1 6.2 12.45 6.7 L11.55 3.2 16.4 -4.8 9.75 0.0 8.0 -1.75 8.05 -1.9 Q8.55 -4.7 7.6 -6.0 L5.85 -6.15 3.75 -5.9 Q0.35 -10.7 -0.75 -10.7 -1.4 -10.7 -3.2 -8.35 L-5.1 -5.9 -8.95 -6.0 Q-9.9 -4.7 -9.4 -1.9 L-9.3 -1.45 -10.85 0.15 -17.75 -4.8 -12.6 3.6 -13.4 6.65 Q-19.9 6.35 -20.3 6.75 -20.9 7.3 -20.25 9.0 L-19.85 9.3 -18.4 11.4 -15.2 15.3" fill="none" stroke="#544822" stroke-linecap="round" stroke-linejoin="round" stroke-width="2.0"/>
      <path d="M9.25 9.65 L5.05 9.3 -0.2 9.5 -5.2 9.15 Q-7.95 8.95 -9.5 9.65 -11.15 10.35 -12.65 12.9 -14.1 13.0 -14.05 9.65 -13.55 6.65 -12.3 2.65 -11.45 -0.05 -7.15 -3.25 -3.0 -6.35 -0.55 -6.35 1.9 -6.35 6.15 -3.25 10.55 -0.05 11.35 2.65 12.6 6.65 13.1 9.65 13.6 13.25 12.15 13.25 10.75 10.05 9.25 9.65" fill="#aed3e8" fill-rule="evenodd" stroke="none"/>
      <path d="M-12.65 7.4 Q-5.7 6.05 -0.6 6.05 4.45 6.05 12.65 7.65 L-0.5 9.25 Q-3.85 9.3 -12.65 7.4" fill="#aed3e8" fill-rule="evenodd" stroke="none"/>
      <path d="M4.2 -0.8 L8.7 -1.1 Q9.7 -0.4 8.95 1.7 8.4 3.25 6.9 4.8 4.4 7.55 -0.65 7.55 -5.15 7.55 -7.8 5.0 -9.75 3.15 -10.3 1.7 -10.95 -0.1 -9.75 -0.85 -9.25 -1.25 -5.55 -0.8 L-3.45 -2.3 Q-1.55 -3.75 -0.8 -3.75 0.5 -3.75 4.2 -0.8" fill="#687d8a" fill-rule="evenodd" stroke="none"/>
      <path d="M7.9 -1.8 L9.0 -0.75 9.95 0.3 8.3 3.0 7.1 -1.25 7.9 -1.8" fill="#687d8a" fill-rule="evenodd" stroke="none"/>
      <path d="M-8.95 -1.8 L-8.1 -1.25 -9.3 3.0 -11.0 0.3 -10.0 -0.75 -8.95 -1.8" fill="#687d8a" fill-rule="evenodd" stroke="none"/>
      <path d="M19.65 9.0 Q14.0 13.4 12.15 13.25 L11.7 6.75 19.75 6.75 Q20.3 7.3 19.65 9.0" fill="#aed3e8" fill-rule="evenodd" stroke="none"/>
      <path d="M15.9 9.65 Q19.9 7.2 19.95 7.9 20.05 8.7 16.5 12.85 L13.75 16.1 11.9 12.25 15.9 9.65" fill="#a68d3b" fill-rule="evenodd" stroke="none"/>
      <path d="M-12.3 6.75 L-12.75 13.25 Q-14.6 13.4 -20.25 9.0 -20.9 7.3 -20.3 6.75 L-12.3 6.75" fill="#aed3e8" fill-rule="evenodd" stroke="none"/>
      <path d="M-20.55 7.9 Q-20.5 7.2 -16.5 9.65 L-12.5 12.25 -14.3 16.1 -17.1 12.85 Q-20.65 8.7 -20.55 7.9" fill="#a68d3b" fill-rule="evenodd" stroke="none"/>
      <path d="M-14.3 16.1 L-18.4 11.4 Q-22.2 7.2 -18.7 7.65 L-9.65 9.05 -7.95 9.05 -9.3 9.4 Q-10.9 10.1 -11.9 11.55 -13.45 13.9 -14.3 16.1" fill="#4c5d66" fill-rule="evenodd" stroke="none"/>
      <path d="M13.7 16.1 Q12.85 13.9 11.3 11.55 10.3 10.1 8.75 9.4 L7.35 9.05 9.05 9.05 18.1 7.65 Q21.6 7.2 17.8 11.4 L13.7 16.1" fill="#4c5d66" fill-rule="evenodd" stroke="none"/>
      <path d="M-11.95 9.8 L-0.15 10.15 11.45 10.0" fill="none" stroke="#2b2610" stroke-linecap="round" stroke-linejoin="round" stroke-width="1.0"/>
      <path d="M-0.75 9.25 Q9.7 9.25 14.8 8.05 L18.85 7.55 Q19.9 8.0 17.15 11.3" fill="none" stroke="#d9fbff" stroke-linecap="round" stroke-linejoin="round" stroke-width="1.0"/>
      <path d="M0.2 9.25 Q-10.25 9.25 -15.35 8.05 L-19.4 7.55 Q-20.45 8.0 -17.7 11.3" fill="none" stroke="#d9fbff" stroke-linecap="round" stroke-linejoin="round" stroke-width="1.0"/>
      <path d="M7.6 -6.0 Q8.55 -4.7 8.05 -1.9 7.6 0.55 6.2 3.15 3.85 7.55 -0.65 7.55 -4.65 7.55 -7.15 3.5 -9.0 0.2 -9.4 -1.9 -9.9 -4.7 -8.95 -6.0 L-5.1 -5.9 -3.2 -8.35 Q-1.4 -10.7 -0.75 -10.7 0.35 -10.7 3.75 -5.9 L5.85 -6.15 7.6 -6.0" fill="#97b5bd" fill-rule="evenodd" stroke="none"/>
      <path d="M1.1 -5.35 L2.4 -3.95 4.55 -3.35 Q5.9 -2.95 6.05 -1.75 6.3 0.25 4.55 3.1 2.45 6.4 -0.45 6.4 L-0.65 6.4 Q-3.5 6.4 -5.6 3.1 -7.4 0.2 -7.15 -1.75 -7.0 -2.95 -5.65 -3.35 L-3.45 -3.95 -2.1 -5.35 Q-1.4 -6.35 -0.5 -6.35 0.4 -6.35 1.1 -5.35" fill="#ffffff" fill-rule="evenodd" stroke="none"/>
      <path d="M8.45 0.95 L16.4 -4.8 10.5 4.85 Q9.8 5.9 8.65 3.8 7.45 1.65 8.45 0.95" fill="#caeafc" fill-rule="evenodd" stroke="none"/>
      <path d="M-9.75 0.95 Q-8.8 1.65 -9.95 3.8 -11.15 5.9 -11.85 4.85 L-17.75 -4.8 -9.75 0.95" fill="#caeafc" fill-rule="evenodd" stroke="none"/>
      <path d="M9.0 4.4 L8.5 3.35 16.25 -4.6 9.0 4.4" fill="#fffdf7" fill-rule="evenodd" stroke="none"/>
      <path d="M-9.8 3.5 L-10.15 4.25 -17.55 -4.6 -9.8 3.5" fill="#fffdf7" fill-rule="evenodd" stroke="none"/>
      <path d="M6.45 8.75 L11.1 8.4 12.95 8.05" fill="none" stroke="#fffdf7" stroke-linecap="round" stroke-linejoin="round" stroke-width="1.0"/>
      <path d="M-1.0 -10.35 Q-0.2 -9.9 -1.8 -7.75 -3.4 -5.6 -4.3 -6.1 -5.15 -6.6 -3.35 -8.65 -1.6 -10.7 -1.0 -10.35" fill="#fffdf7" fill-rule="evenodd" stroke="none"/>
      <path d="M-7.75 -6.35 Q-6.55 -5.95 -7.6 -4.45 -8.65 -2.9 -9.35 -3.25 -10.0 -3.5 -9.25 -5.05 -8.55 -6.6 -7.75 -6.35" fill="#fffdf7" fill-rule="evenodd" stroke="none"/>
      <path d="M-18.65 8.05 L-13.05 9.75 -10.65 10.25 -12.2 12.05 -18.65 8.05" fill="#2b2610" fill-rule="evenodd" stroke="none"/>
      <path d="M18.3 8.05 L11.85 12.05 10.3 10.25 12.7 9.75 18.3 8.05" fill="#2b2610" fill-rule="evenodd" stroke="none"/>
      <path d="M-3.85 6.75 L-4.65 6.9 Q-5.3 2.35 -1.7 -0.3 -4.75 2.45 -3.85 6.75" fill="#000000" fill-rule="evenodd" stroke="none"/>
      <path d="M-0.4 -0.3 Q2.8 -5.2 4.3 -1.8 5.8 1.65 -0.4 -0.3" fill="#3c707d" fill-rule="evenodd" stroke="none"/>
      <path d="M-1.9 -4.95 Q2.85 -6.9 -0.4 -0.3 -6.6 -3.0 -1.9 -4.95" fill="#3c707d" fill-rule="evenodd" stroke="none"/>
      <path d="M-0.35 -0.3 Q5.55 2.55 1.15 4.35 -3.3 6.15 -0.35 -0.3" fill="#3c707d" fill-rule="evenodd" stroke="none"/>
      <path d="M-3.4 -0.95 L-0.35 -0.3 Q-3.15 5.0 -5.05 1.2 -6.2 -1.15 -3.4 -0.95" fill="#3c707d" fill-rule="evenodd" stroke="none"/>
    </g>
  </defs>
</svg>
