<svg xmlns="http://www.w3.org/2000/svg" width="38.4" height="41.3"><path fill="#fff" fill-rule="evenodd" d="m3.3 19.55 1.5-5.35q1.25-3.65 3.4-6.8 1.95-2.9 5-5Q16.4.15 20.25.55q3.85.65 6.8 3.45 1.85 1.75 3 3.85 1.55 3.1 2.75 6.55l1.75 6.35h.05l-.05.05v-.05l-.15-.15-14.3 8.5-16.8-9.55M4.4 38.7h-.1v-.05l.1.05"/><path fill="#4886c1" fill-rule="evenodd" d="m35.75 27.95-.75-3.6.1-.05.65 3.65"/><path fill="#326496" fill-rule="evenodd" d="m34.55 20.8.6 3.45-.75-3.65.15.15v.05M8.05 39.65 4.4 38.7l-.05-.05 11.75-7.2L2.65 23.7l.65-4.15 16.8 9.55 14.3-8.5.7 3.7-.1.05-.05.05-26.9 15.25"/><path fill="#69c" fill-rule="evenodd" d="m36.5 30.6 1.4 6.8q-15.45 5.35-29.85 2.25l26.9-15.25.05-.05.75 3.6.55 2.85.2-.2M4.3 38.65.5 37.4l2.15-13.7 13.45 7.75-11.75 7.2H4.3M35.1 24.3l-.7-3.7.75 3.65-.05.05"/><path fill="#0195d3" fill-rule="evenodd" d="M4.3 38.65h.05l.05.05-.1-.05"/><path fill="none" stroke="#326496" stroke-linecap="round" stroke-linejoin="round" d="m35.15 24.25 1.35 6.35 1.4 6.8q-15.45 5.35-29.85 2.25L4.4 38.7m-.1-.05L.5 37.4l2.15-13.7.65-4.15 16.8 9.55 14.3-8.5.75 3.65"/><path fill="none" stroke="#000" stroke-linecap="round" stroke-linejoin="round" d="m3.3 19.55 1.5-5.35q1.25-3.65 3.4-6.8 1.95-2.9 5-5Q16.4.15 20.25.55q3.85.65 6.8 3.45 1.85 1.75 3 3.85 1.55 3.1 2.75 6.55l1.75 6.35"/></svg>