<?xml version="1.0" encoding="UTF-8" standalone="no"?>
<!-- Created with Inkscape (http://www.inkscape.org/) -->

<svg
   width="7.4600029mm"
   height="7.0977564mm"
   viewBox="0 0 7.4600029 7.0977564"
   version="1.1"
   id="svg88639"
   sodipodi:docname="announce.svg"
   inkscape:version="1.1 (c4e8f9ed74, 2021-05-24)"
   xmlns:inkscape="http://www.inkscape.org/namespaces/inkscape"
   xmlns:sodipodi="http://sodipodi.sourceforge.net/DTD/sodipodi-0.dtd"
   xmlns:xlink="http://www.w3.org/1999/xlink"
   xmlns="http://www.w3.org/2000/svg"
   xmlns:svg="http://www.w3.org/2000/svg">
  <sodipodi:namedview
     id="namedview88641"
     pagecolor="#505050"
     bordercolor="#eeeeee"
     borderopacity="1"
     inkscape:pageshadow="0"
     inkscape:pageopacity="0"
     inkscape:pagecheckerboard="0"
     inkscape:document-units="mm"
     showgrid="false"
     inkscape:zoom="8.1941057"
     inkscape:cx="11.349622"
     inkscape:cy="9.4580181"
     inkscape:current-layer="layer1" />
  <defs
     id="defs88636">
    <linearGradient
       inkscape:collect="always"
       xlink:href="#linearGradient51994"
       id="linearGradient49050"
       gradientUnits="userSpaceOnUse"
       gradientTransform="translate(3.807797,23.767737)"
       x1="96.903313"
       y1="126.70052"
       x2="103.42331"
       y2="126.70052" />
    <linearGradient
       inkscape:collect="always"
       id="linearGradient51994">
      <stop
         style="stop-color:#f0dca4;stop-opacity:1"
         offset="0"
         id="stop51990" />
      <stop
         style="stop-color:#ffffd8;stop-opacity:1"
         offset="1"
         id="stop51992" />
    </linearGradient>
    <linearGradient
       inkscape:collect="always"
       xlink:href="#linearGradient51540"
       id="linearGradient49052"
       gradientUnits="userSpaceOnUse"
       gradientTransform="translate(3.807797,23.767737)"
       x1="96.903313"
       y1="126.70052"
       x2="103.42331"
       y2="126.70052" />
    <linearGradient
       inkscape:collect="always"
       id="linearGradient51540">
      <stop
         style="stop-color:#b4942d;stop-opacity:1"
         offset="0"
         id="stop51536" />
      <stop
         style="stop-color:#f5be6e;stop-opacity:1"
         offset="1"
         id="stop51538" />
    </linearGradient>
  </defs>
  <g
     inkscape:label="Layer 1"
     inkscape:groupmode="layer"
     id="layer1"
     transform="translate(-0.46761986,-4.3943347)">
    <g
       id="g50198"
       inkscape:label="announce"
       transform="translate(-100.09348,-142.38614)"
       style="display:inline"
       sodipodi:insensitive="true">
      <circle
         style="display:inline;fill:url(#linearGradient49050);fill-opacity:1;stroke:url(#linearGradient49052);stroke-width:0.3;stroke-linecap:square;stroke-miterlimit:4;stroke-dasharray:none;stroke-opacity:1;paint-order:markers fill stroke"
         id="path1752-06-5"
         r="3.26"
         cx="103.9711"
         cy="150.46823"
         inkscape:label="circle" />
      <g
         id="g76919"
         inkscape:label="megaphone">
        <path
           style="opacity:1;fill:#cf7a7a;fill-opacity:1;stroke:none;stroke-width:0.264583px;stroke-linecap:butt;stroke-linejoin:miter;stroke-opacity:1"
           d="m 104.83481,148.98622 c -0.11533,0.0493 -0.0247,0.94178 0.18723,0.97561 0.11451,0.019 0.15387,-0.0953 0.40087,-0.1003 0,0 0.132,0.45724 0.22823,0.6603 0.0604,0.041 0.39034,-0.0283 0.39032,-0.158 l -0.18044,-0.62098 c 0.40806,-0.0899 0.72042,-0.13341 1.01352,0.0108 0.28211,0.13862 0.72333,0.34307 0.89208,0.22951 0.70771,-0.47626 -0.18712,-3.46535 -1.13757,-3.18405 -0.29043,0.086 -0.41491,0.92166 -0.59827,1.25673 -0.0827,0.15122 0.0472,0.38497 -1.17496,0.91524 z"
           id="path54171"
           inkscape:label="light"
           sodipodi:nodetypes="ccccccsssscc" />
        <path
           style="fill:#935c5c;fill-opacity:1;stroke:none;stroke-width:0.264583px;stroke-linecap:butt;stroke-linejoin:miter;stroke-opacity:1"
           d="m 106.75951,147.06165 c -0.56548,0.0868 0.12023,2.73959 0.81084,2.64001 0.64013,-0.0923 -0.1791,-2.737 -0.81084,-2.64001 z"
           id="path58888"
           sodipodi:nodetypes="sss"
           inkscape:label="shadow" />
      </g>
      <g
         id="g76915"
         inkscape:label="tiz">
        <path
           style="opacity:1;fill:#bf5f5f;fill-opacity:1;stroke:none;stroke-width:0.264583px;stroke-linecap:butt;stroke-linejoin:miter;stroke-opacity:1"
           d="m 103.08609,148.11193 c -2.63462,0.51616 -1.86504,4.70818 0.24846,4.42571 1.17939,-0.15763 1.46425,-1.2897 1.3587,-2.2715 -0.42615,1.25062 -1.67133,0.28818 -1.70131,-0.005 -0.0858,-0.84047 1.29429,-1.08449 1.29429,-1.08449 -0.24117,-0.71649 -0.52363,-1.05663 -1.20014,-1.06437 z"
           id="path54167"
           inkscape:label="body"
           sodipodi:nodetypes="cscscsc" />
        <path
           style="fill:#f2ffff;fill-opacity:1;stroke:none;stroke-width:0.289619px;stroke-linecap:butt;stroke-linejoin:miter;stroke-opacity:1"
           d="m 102.07186,148.44026 c -0.36113,0.29102 0.15998,1.20333 0.60373,0.9119 0.64757,-0.42529 -0.0499,-1.35818 -0.60373,-0.9119 z"
           id="path58890"
           sodipodi:nodetypes="sss"
           inkscape:label="eye_l" />
        <path
           style="fill:#f2ffff;fill-opacity:1;stroke:none;stroke-width:0.286582px;stroke-linecap:butt;stroke-linejoin:miter;stroke-opacity:1"
           d="m 103.29059,148.08191 c -0.52806,0.47597 -0.25411,1.19239 0.6334,0.79576 0.5076,-0.22684 -0.35976,-1.04243 -0.6334,-0.79576 z"
           id="path58892"
           sodipodi:nodetypes="sss"
           inkscape:label="eye_r" />
        <path
           style="fill:#bf5f5f;fill-opacity:1;stroke:none;stroke-width:0.264583px;stroke-linecap:butt;stroke-linejoin:miter;stroke-opacity:1"
           d="m 103.56009,148.40211 c 0.23269,0.0533 0.29588,0.49372 0.003,0.45541 -0.35366,-0.0463 -0.19368,-0.49911 -0.003,-0.45541 z"
           id="path84187-9"
           sodipodi:nodetypes="sss"
           inkscape:label="pupil_r" />
        <path
           style="fill:#bf5f5f;fill-opacity:1;stroke:none;stroke-width:0.264583px;stroke-linecap:butt;stroke-linejoin:miter;stroke-opacity:1"
           d="m 102.51124,148.6048 c 0.22251,-0.11909 0.42715,0.38434 0.16857,0.48195 -0.28346,0.10699 -0.40212,-0.35694 -0.16857,-0.48195 z"
           id="path84187"
           sodipodi:nodetypes="sss"
           inkscape:label="pupil_l" />
      </g>
    </g>
  </g>
</svg>
