<svg xmlns="http://www.w3.org/2000/svg" width="15.02" height="12.601" viewBox="0 0 3.974 3.334" fill="#fff" stroke="#6d8da9" xmlns:v="https://vecta.io/nano"><path d="M.057 1.03c-.137.965.238 2.117.817 2.286s2.96-.883 3.099-1.192c-.031-.688-.56-1.682-.766-1.975C2.385.157.337.693.057 1.03z" fill="#6d8da9" fill-opacity=".333" stroke="none" paint-order="normal"/><g stroke-width=".2" stroke-linejoin="round"><path d="M.125.93c-.121.909.21 1.995.722 2.154s2.615-.832 2.738-1.123C3.558 1.313 3.091.376 2.908.1 2.182.108.372.613.125.93z" paint-order="normal"/><g stroke-linecap="round"><path d="M1.145 2.262l.659-.842 1.123.319" paint-order="markers fill stroke"/><path d="M.794 1.394L2 1.752l.599-1.01" paint-order="markers fill stroke"/></g></g></svg>