<?xml version="1.0" encoding="UTF-8" standalone="no"?>
<!-- Created with Inkscape (http://www.inkscape.org/) -->

<svg
   width="4.7793398mm"
   height="5.7246141mm"
   viewBox="0 0 4.7793398 5.7246141"
   version="1.1"
   id="svg1738"
   inkscape:version="1.1 (c4e8f9ed74, 2021-05-24)"
   sodipodi:docname="7.svg"
   xmlns:inkscape="http://www.inkscape.org/namespaces/inkscape"
   xmlns:sodipodi="http://sodipodi.sourceforge.net/DTD/sodipodi-0.dtd"
   xmlns="http://www.w3.org/2000/svg"
   xmlns:svg="http://www.w3.org/2000/svg">
  <sodipodi:namedview
     id="namedview1740"
     pagecolor="#505050"
     bordercolor="#eeeeee"
     borderopacity="1"
     inkscape:pageshadow="0"
     inkscape:pageopacity="0"
     inkscape:pagecheckerboard="0"
     inkscape:document-units="mm"
     showgrid="false"
     inkscape:zoom="0.72426347"
     inkscape:cx="-25.543191"
     inkscape:cy="207.79731"
     inkscape:current-layer="path42356" />
  <defs
     id="defs1735">
    <filter
       inkscape:label="Combined Lighting"
       inkscape:menu="Bevels"
       inkscape:menu-tooltip="Basic specular bevel to use for building textures"
       style="color-interpolation-filters:sRGB"
       id="filter1165"
       x="-0.60267943"
       y="-0.52921855"
       width="2.205359"
       height="2.0584371">
      <feGaussianBlur
         stdDeviation="0.69999999999999996"
         in="SourceGraphic"
         result="result0"
         id="feGaussianBlur1147" />
      <feDiffuseLighting
         lighting-color="#ffffff"
         diffuseConstant="1"
         surfaceScale="0.40000001"
         result="result5"
         id="feDiffuseLighting1151">
        <feDistantLight
           elevation="45"
           azimuth="315"
           id="feDistantLight1149" />
      </feDiffuseLighting>
      <feComposite
         k1="1.4"
         in2="SourceGraphic"
         in="result5"
         result="fbSourceGraphic"
         operator="arithmetic"
         id="feComposite1153"
         k2="0"
         k3="0"
         k4="0" />
      <feGaussianBlur
         result="result0"
         in="fbSourceGraphic"
         stdDeviation="0.40000000000000002"
         id="feGaussianBlur1155" />
      <feSpecularLighting
         specularExponent="35"
         specularConstant="5"
         surfaceScale="0.1"
         lighting-color="#ffffff"
         result="result1"
         in="result0"
         id="feSpecularLighting1159"
         kernelUnitLength="0.01">
        <feDistantLight
           azimuth="315"
           elevation="45"
           id="feDistantLight1157" />
      </feSpecularLighting>
      <feComposite
         k3="1"
         k2="1"
         operator="arithmetic"
         in="fbSourceGraphic"
         in2="result1"
         result="result4"
         id="feComposite1161"
         k1="0"
         k4="0" />
      <feComposite
         operator="in"
         result="result2"
         in2="SourceGraphic"
         in="result4"
         id="feComposite1163" />
    </filter>
    <filter
       inkscape:label="Combined Lighting"
       inkscape:menu="Bevels"
       inkscape:menu-tooltip="Basic specular bevel to use for building textures"
       style="color-interpolation-filters:sRGB"
       id="filter1165-9"
       x="-0.59774286"
       y="-0.51533574"
       width="2.1954856"
       height="2.0306714">
      <feGaussianBlur
         stdDeviation="0.69999999999999996"
         in="SourceGraphic"
         result="result0"
         id="feGaussianBlur1147-3" />
      <feDiffuseLighting
         lighting-color="#ffffff"
         diffuseConstant="1"
         surfaceScale="0.40000001"
         result="result5"
         id="feDiffuseLighting1151-6">
        <feDistantLight
           elevation="45"
           azimuth="315"
           id="feDistantLight1149-0" />
      </feDiffuseLighting>
      <feComposite
         k1="1.4"
         in2="SourceGraphic"
         in="result5"
         result="fbSourceGraphic"
         operator="arithmetic"
         id="feComposite1153-6"
         k2="0"
         k3="0"
         k4="0" />
      <feGaussianBlur
         result="result0"
         in="fbSourceGraphic"
         stdDeviation="0.40000000000000002"
         id="feGaussianBlur1155-2" />
      <feSpecularLighting
         specularExponent="35"
         specularConstant="5"
         surfaceScale="0.1"
         lighting-color="#ffffff"
         result="result1"
         in="result0"
         id="feSpecularLighting1159-6"
         kernelUnitLength="0.01">
        <feDistantLight
           azimuth="315"
           elevation="45"
           id="feDistantLight1157-1" />
      </feSpecularLighting>
      <feComposite
         k3="1"
         k2="1"
         operator="arithmetic"
         in="fbSourceGraphic"
         in2="result1"
         result="result4"
         id="feComposite1161-8"
         k1="0"
         k4="0" />
      <feComposite
         operator="in"
         result="result2"
         in2="SourceGraphic"
         in="result4"
         id="feComposite1163-7" />
    </filter>
    <filter
       inkscape:label="Combined Lighting"
       inkscape:menu="Bevels"
       inkscape:menu-tooltip="Basic specular bevel to use for building textures"
       style="color-interpolation-filters:sRGB"
       id="filter1165-92"
       x="-0.59774286"
       y="-0.51533574"
       width="2.1954856"
       height="2.0306714">
      <feGaussianBlur
         stdDeviation="0.69999999999999996"
         in="SourceGraphic"
         result="result0"
         id="feGaussianBlur1147-0" />
      <feDiffuseLighting
         lighting-color="#ffffff"
         diffuseConstant="1"
         surfaceScale="0.40000001"
         result="result5"
         id="feDiffuseLighting1151-2">
        <feDistantLight
           elevation="45"
           azimuth="315"
           id="feDistantLight1149-3" />
      </feDiffuseLighting>
      <feComposite
         k1="1.4"
         in2="SourceGraphic"
         in="result5"
         result="fbSourceGraphic"
         operator="arithmetic"
         id="feComposite1153-7"
         k2="0"
         k3="0"
         k4="0" />
      <feGaussianBlur
         result="result0"
         in="fbSourceGraphic"
         stdDeviation="0.40000000000000002"
         id="feGaussianBlur1155-5" />
      <feSpecularLighting
         specularExponent="35"
         specularConstant="5"
         surfaceScale="0.1"
         lighting-color="#ffffff"
         result="result1"
         in="result0"
         id="feSpecularLighting1159-9"
         kernelUnitLength="0.01">
        <feDistantLight
           azimuth="315"
           elevation="45"
           id="feDistantLight1157-2" />
      </feSpecularLighting>
      <feComposite
         k3="1"
         k2="1"
         operator="arithmetic"
         in="fbSourceGraphic"
         in2="result1"
         result="result4"
         id="feComposite1161-2"
         k1="0"
         k4="0" />
      <feComposite
         operator="in"
         result="result2"
         in2="SourceGraphic"
         in="result4"
         id="feComposite1163-8" />
    </filter>
    <filter
       inkscape:label="Combined Lighting"
       inkscape:menu="Bevels"
       inkscape:menu-tooltip="Basic specular bevel to use for building textures"
       style="color-interpolation-filters:sRGB"
       id="filter1165-2"
       x="-0.65777343"
       y="-0.5323421"
       width="2.3155469"
       height="2.0646842">
      <feGaussianBlur
         stdDeviation="0.69999999999999996"
         in="SourceGraphic"
         result="result0"
         id="feGaussianBlur1147-5" />
      <feDiffuseLighting
         lighting-color="#ffffff"
         diffuseConstant="1"
         surfaceScale="0.40000001"
         result="result5"
         id="feDiffuseLighting1151-4">
        <feDistantLight
           elevation="45"
           azimuth="315"
           id="feDistantLight1149-7" />
      </feDiffuseLighting>
      <feComposite
         k1="1.4"
         in2="SourceGraphic"
         in="result5"
         result="fbSourceGraphic"
         operator="arithmetic"
         id="feComposite1153-4"
         k2="0"
         k3="0"
         k4="0" />
      <feGaussianBlur
         result="result0"
         in="fbSourceGraphic"
         stdDeviation="0.40000000000000002"
         id="feGaussianBlur1155-4" />
      <feSpecularLighting
         specularExponent="35"
         specularConstant="5"
         surfaceScale="0.1"
         lighting-color="#ffffff"
         result="result1"
         in="result0"
         id="feSpecularLighting1159-3"
         kernelUnitLength="0.01">
        <feDistantLight
           azimuth="315"
           elevation="45"
           id="feDistantLight1157-0" />
      </feSpecularLighting>
      <feComposite
         k3="1"
         k2="1"
         operator="arithmetic"
         in="fbSourceGraphic"
         in2="result1"
         result="result4"
         id="feComposite1161-7"
         k1="0"
         k4="0" />
      <feComposite
         operator="in"
         result="result2"
         in2="SourceGraphic"
         in="result4"
         id="feComposite1163-86" />
    </filter>
  </defs>
  <g
     inkscape:label="Layer 1"
     inkscape:groupmode="layer"
     id="layer1"
     transform="translate(-96.925971,-49.76716)">
    <g
       id="path42356"
       inkscape:label="7"
       transform="translate(42.289296,39.237863)">
      <path
         style="color:#000000;-inkscape-font-specification:'Jagger SF, Normal';fill:#7d5a00;stroke-linecap:round;stroke-linejoin:round;-inkscape-stroke:none;paint-order:stroke fill markers"
         d="m 58.671875,10.529297 -3.355469,0.0078 c -0.207592,0 -0.367847,0.141032 -0.451172,0.263672 -0.108004,0.143665 -0.146744,0.273939 -0.193359,0.451172 -3.51e-4,0.0012 3.47e-4,0.0027 0,0.0039 -4.16e-4,0.0016 -0.0015,0.0023 -0.002,0.0039 -0.02124,0.07675 -0.0332,0.156799 -0.0332,0.238281 0,0.0968 0.01581,0.180075 0.03711,0.28125 0.02858,0.142074 0.08129,0.278256 0.169922,0.398437 0.08515,0.119703 0.233546,0.265625 0.458984,0.265625 h 0.890625 l -0.957031,2.826172 a 0.38253824,0.38253824 0 0 0 -0.002,0.0098 c -0.01476,0.04756 -0.0332,0.0742 -0.0332,0.183594 0,0.177807 0.08953,0.352066 0.203125,0.46289 0.113594,0.110824 0.244702,0.180573 0.392578,0.238281 a 0.38253824,0.38253824 0 0 0 0.03516,0.01172 c 0.105152,0.03002 0.139582,0.04411 0.232422,0.05859 0.08316,0.01386 0.16852,0.01953 0.259766,0.01953 h 0.326172 c 0.289227,0 0.517454,-0.0189 0.734375,-0.121094 a 0.38253824,0.38253824 0 0 0 0.002,0 C 57.57683,16.042187 57.74923,15.8759 57.82223,15.666021 l 1.546875,-3.94336 a 0.38253824,0.38253824 0 0 0 0.01758,-0.05664 l 0.01953,-0.08984 a 0.38253824,0.38253824 0 0 0 0.0098,-0.08594 c 0,-0.22752 -0.04478,-0.447184 -0.169922,-0.634765 -0.116777,-0.175165 -0.340813,-0.326172 -0.572266,-0.326172 a 0.38253824,0.38253824 0 0 0 -0.002,0 z m -0.05859,0.765625 c 0.01294,0.02243 0.02913,0.07925 0.0332,0.173828 l -1.541015,3.931641 a 0.38253824,0.38253824 0 0 0 -0.0059,0.01367 c -4.93e-4,0.0014 0.01264,8.4e-4 -0.04297,0.02734 -0.02306,0.01054 -0.172929,0.04687 -0.40625,0.04687 h -0.326172 c -0.06034,0 -0.107685,-0.0033 -0.134766,-0.0078 a 0.38253824,0.38253824 0 0 0 -0.0039,-0.002 c 0.04252,0.0064 -0.04136,-0.0115 -0.117188,-0.03125 -0.04347,-0.0179 -0.05195,-0.02449 -0.07227,-0.03711 l 1.09375,-3.226562 a 0.38253824,0.38253824 0 0 0 -0.363282,-0.50586 h -1.287109 c -0.0066,-0.01594 -0.01129,-0.01897 -0.01758,-0.05078 a 0.38253824,0.38253824 0 0 0 0,-0.0039 c -0.01545,-0.07338 -0.01953,-0.125339 -0.01953,-0.125 0,-0.0077 8.9e-4,-0.01971 0.0059,-0.03711 a 0.38253824,0.38253824 0 0 0 0.002,-0.0078 c 0.03051,-0.115787 0.04905,-0.141221 0.05078,-0.152344 z"
         id="path57044" />
      <path
         style="color:#000000;-inkscape-font-specification:'Jagger SF, Normal';fill:#ebc500;stroke-width:0.765;stroke-linecap:round;stroke-linejoin:round;-inkscape-stroke:none;paint-order:stroke fill markers;filter:url(#filter1165-2)"
         d="m 55.040615,11.356572 q 0.06718,-0.254938 0.134359,-0.339343 0.06373,-0.09819 0.141249,-0.09819 l 3.357247,-0.0069 q 0.151585,0 0.254938,0.155029 0.105075,0.156752 0.105075,0.423747 l -0.02067,0.0913 -1.552016,3.958417 q -0.05512,0.158474 -0.239434,0.246324 -0.179145,0.0844 -0.571887,0.0844 h -0.325561 q -0.113688,0 -0.196371,-0.01378 -0.03445,-0.0052 -0.191203,-0.04995 -0.353122,-0.137804 -0.353122,-0.34451 0,-0.02067 0.0155,-0.07062 l 1.128269,-3.33141 H 55.30244 q -0.07579,0 -0.149861,-0.105075 -0.07407,-0.09819 -0.105076,-0.254938 -0.02756,-0.130913 -0.02756,-0.20326 0,-0.0689 0.02067,-0.141249 z"
         id="path57046" />
    </g>
  </g>
</svg>
