<svg height="18" width="18" xmlns:xlink="http://www.w3.org/1999/xlink" xmlns="http://www.w3.org/2000/svg"><g transform="translate(-1.45 1.65)"><use height="50" transform="matrix(.36 0 0 .36 1.45 -1.65)" width="50" xlink:href="#a"/><use height="17.95" transform="translate(10.8 -1.65)" width="8.65" xlink:href="#b"/><use height="20.15" width="20.95" xlink:href="#c" transform="rotate(-48.804 7.071 2.047)"/><use height="20.15" width="20.95" xlink:href="#c" transform="rotate(-7.22 35.579 15.93) scale(.59053)"/><use height="20.15" width="20.95" xlink:href="#c" transform="rotate(-21.574 30.088 -3.676) scale(.56307)"/></g><defs><path d="M25 0q0 10.3-7.3 17.65Q10.35 25 0 25t-17.65-7.35Q-25 10.3-25 0q0-10.35 7.35-17.7Q-10.35-25.05 0-25q10.35-.05 17.7 7.3Q25-10.35 25 0" fill="#fff" fill-rule="evenodd" transform="translate(25 25)" id="h"/><path d="M0 0q3.6.15 6.15 2.75 2.5 2.6 2.5 6.25t-2.5 6.25Q3.6 17.85 0 17.95V0" fill="url(#d)" fill-rule="evenodd" id="i"/><path d="m11.3 9.35.2.55 4.3-1.8-3.8 3.55-.9-.75-2.6 2.75-2.85-2.75-.9.75L.95 8.1 5.2 9.9l.3-.75L3.2 5.8 0 .05l6.5 6.5 1.8-4.7 1.85 4.55L16.6 0q-3.15 6.45-5.3 9.35m-4.05 7.1-3-1.75v-1l2.95.8.05 1.95m2.75 0 .1-1.95 2.9-.8v1l-3 1.75" fill="url(#e)" fill-rule="evenodd" id="j"/><path d="m1.25-6 .65-.1.4.5.3 2.7 2.25 1.4q.35.2.3.6v.2l-.35.35L2.35.75l-.7 2.7-.4.4q-.4.1-.65-.2l-1.8-2-2.7.2q-.4 0-.6-.3L-4.55 1l1.35-2.45-1-2.5v-.45l.1-.2q.25-.3.65-.2l2.6.55L1.25-6" fill="url(#f)" transform="translate(10.5 10.1)" style="fill:url(#g)" id="c" fill-rule="evenodd"/><linearGradient gradientTransform="matrix(.0053 0 0 .011 4.3 8.95)" gradientUnits="userSpaceOnUse" id="d" spreadMethod="pad" x1="-819.2" x2="819.2"><stop offset="0" stop-color="#ffb907"/><stop offset="1" stop-color="#f96" stop-opacity="0"/></linearGradient><linearGradient gradientTransform="matrix(.0049 0 0 .0083 8.3 6.8)" gradientUnits="userSpaceOnUse" id="e" spreadMethod="pad" x1="-819.2" x2="819.2"><stop offset="0" stop-color="#ffb907"/><stop offset="1" stop-color="#ffb907" stop-opacity="0"/></linearGradient><linearGradient gradientTransform="matrix(-.0011 -.0043 .0024 -.0006 25.65 -7.4)" gradientUnits="userSpaceOnUse" id="g" spreadMethod="pad" x1="-819.2" x2="819.2"><stop offset="0" stop-color="#e77607"/><stop offset="1" stop-color="#e77607"/></linearGradient><use height="50" width="50" xlink:href="#h" id="a" x="0" y="0"/><use height="17.95" width="8.65" xlink:href="#i" id="b" x="0" y="0"/><use height="16.45" width="16.6" xlink:href="#j" id="f" x="0" y="0"/></defs></svg>