<svg xmlns:xlink="http://www.w3.org/1999/xlink" height="14.6" width="25" xmlns="http://www.w3.org/2000/svg"><use height="52.65" transform="matrix(.2783 0 0 .2775 .024 -.018)" width="89.8" xlink:href="#a"/><defs><use height="52.65" width="89.8" xlink:href="#b" id="a"/><g id="b" fill="#3f5a75" fill-rule="evenodd"><path d="M55.3 19.35q-1.35-1.1-3.1-1.1.8 2.55 3.35 4.3l1.55.95q2.2 2.8 3.35 5.35l2.35 3.9q1.55 1.55 3.9 1.4-.95 0-2.75-3.95l-2.35-4.7q-1.95-3.3-3.1-4.5-1.45-1.45-3.2-1.65m-4.05 4.2q-5.1-4.7-3.95-9.2 9.25-.4 17.25 10.4Q72 34.3 72.95 43.9q.8 10-7.2 17.05Q57.9 67.4 47.7 67q-13.3-.5-19.45-9.7-6.3 9.2-19.9 9.7-10 .4-17.8-6.05-8.25-7.05-7.25-17.05.8-9.6 8.2-19.15 8.05-10.8 17.25-10.4 1.35 4.5-3.9 9.2-5.9 5.3-6.1 7.85 4.3-1.4 10.4-.6 5.85.6 9.8 2.75 4.45 2.3 7.3 4.9h2.1l1.55.1q2.8-2.65 7.25-5 4.1-2.15 9.8-2.75 6.05-.8 10.35.6-.2-2.75-6.05-7.85m-18.3 28.7q.4 4.55 6.35 6.95 9.2 3.7 19.55-.6 11-4.5 8.45-13.3-1.15-4.25-4.1-6.55-1.95-5.4-11.55-5.8-8.85-.4-14.9 2.55-3.8 1.8-5.35 4.8l-.15.1-.1.15q-9.2-3.2-6.75 4.55 2.7 7.85 6.65 4.5.65 1.55 1.9 2.65M.1 22.55l1.6-.95q2.75-1.75 3.35-4.3-1.7 0-3 1.05-1.75.15-3.3 1.7-1.15 1.15-3.1 4.5-4.35 8.8-5.3 8.8l.55.05q-2.9 1.05-3.15 3.35-3.9 3.2-3.5 8.95.5 6.2 6.25 7.75 2.15 3.05 7.3 5.15 10.35 4.3 19.55.6 8.85-3.35 5.5-11.95-1.7-4.2-5.2-6.85l-.3-1.55q-1.55-6.1-11.75-6.5-7.75-.35-13.4 1.9l-.3-.95q1.5-.3 2.55-1.5l2.35-3.95q1.05-2.35 3.3-5.3" fill-opacity=".953" transform="translate(16.8 -14.35)"/><path d="M57.1 23.5q1.7.85 3.55 1.25L56.9 20.4l-.75-.2-.85-.85q1.75.2 3.2 1.65 1.15 1.2 3.1 4.5l2.35 4.7q1.8 3.95 2.75 3.95-2.35.15-3.9-1.4l-2.35-3.9Q59.3 26.3 57.1 23.5M2.05 18.35l-.95.9-.75.2-3.75 4.3q1.85-.4 3.5-1.2-2.25 2.95-3.3 5.3l-2.35 3.95Q-6.6 33-8.1 33.3l-1 .1-.55-.05q.95 0 5.3-8.8 1.95-3.35 3.1-4.5 1.55-1.55 3.3-1.7" fill-opacity=".282" transform="translate(16.8 -14.35)"/><path d="M32.95 52.25q-1.25-1.1-1.9-2.65-3.95 3.35-6.65-4.5-2.45-7.75 6.75-4.55-.6 1.15-.25 3.15 2.5-.2 3.9-2.15 1.15-1.95-.4-3.3l-.4.6q-1.8.7-2.6 1.45 1.55-3 5.35-4.8 6.05-2.95 14.9-2.55 9.6.4 11.55 5.8-4.25-3.3-12.35-2.45-13.1 1.35-17.05 10.95-1.1 2.75-.85 5m-40.75-18q5.65-2.25 13.4-1.9 10.2.4 11.75 6.5l.3 1.55q-4.5-3.35-11.85-4.1-13.7-1.4-16.45 9Q-12 50-9.5 53.45q-5.75-1.55-6.25-7.75-.4-5.75 3.5-8.95l.05 1.3q2.55 0 3.9-1.95.6-.95.5-1.85" fill-opacity=".8" transform="translate(16.8 -14.35)"/><path d="M59.05 39.4q-2.7-2.15-7.2-2.15-4.15.2-7.65 1.75-2.75 1-5.7 4.15-3.7 3.7-.6 5.45 3.15 1.95 12.35-3.5 4.5-2.75 8.8-5.7m4.15-.65q2.95 2.3 4.1 6.55 2.55 8.8-8.45 13.3-10.35 4.3-19.55.6-5.95-2.4-6.35-6.95-.25-2.25.85-5 3.95-9.6 17.05-10.95 8.1-.85 12.35 2.45m2.55 6.75q-1.2.55-3.35 2.55-1.95 2.35-3.55 2.9-3.9 1.95-10.55 2.75l-10.55 1.55Q43 59.95 52.6 59.6q3.95 0 7.05-2.55 6.45-4.3 6.1-11.55m-48.1-5.1q3.5 2.65 5.2 6.85 3.35 8.6-5.5 11.95-9.2 3.7-19.55-.6-5.15-2.1-7.3-5.15Q-12 50-10.65 45.3q2.75-10.4 16.45-9 7.35.75 11.85 4.1m-7.35-.2q-3.9-1.95-7.05-2.35-3.7-.8-7.4 1Q-8.3 41-8.5 44.5q-.35 5.3 11.95 5.5 12.15.2 12.55-3.55.2-3.7-5.7-6.25M7.95 60.7l4.15-.35q4.85-.95 7.8-3.3 3.55-2.95 2.15-7.45Q19.7 49 16 51.75q-4.5 3.35-6.1 3.7l-8.4.8q-6.4 0-7.95-1.7 5.25 6.05 13.9 6.15l.3.05.2-.05" fill-opacity=".49" transform="translate(16.8 -14.35)"/><path d="M59.05 39.4q-4.3 2.95-8.8 5.7-9.2 5.45-12.35 3.5-3.1-1.75.6-5.45Q41.45 40 44.2 39q3.5-1.55 7.65-1.75 4.5 0 7.2 2.15m-13.1 1-3.15.95q-2.35 0-3.7 1.8-1.35 1.75-1 4.1 3.75.2 8.45-2.95 4.9-3.15-.6-3.9M.9 40.4q-2.55-1-5.85.95-3.75 2-1.4 4.7 1.6 1.8 6.3-.2 4.9-1.95 2.55-4.7L.9 40.4m9.4-.2q5.9 2.55 5.7 6.25Q15.6 50.2 3.45 50q-12.3-.2-11.95-5.5.2-3.5 4.35-5.65 3.7-1.8 7.4-1 3.15.4 7.05 2.35" fill-opacity=".224" transform="translate(16.8 -14.35)"/><path d="M65.75 45.5q.35 7.25-6.1 11.55-3.1 2.55-7.05 2.55-9.6.35-14.85-4.35L48.3 53.7q6.65-.8 10.55-2.75 1.6-.55 3.55-2.9 2.15-2 3.35-2.55M7.45 60.7q-8.65-.1-13.9-6.15 1.55 1.7 7.95 1.7l8.4-.8q1.6-.35 6.1-3.7 3.7-2.75 6.05-2.15 1.4 4.5-2.15 7.45-2.95 2.35-7.8 3.3l-4.15.35 5.3-1.7q1.95.4 3.15-.8 1.35-.95 1.15-3.1-3.1.15-12.7 4.7.5.5 2.6.9M62 51.75q-9.6 1.35-13.9 4.5v1.2q11.95 3.1 13.9-5.7" fill-opacity=".702" transform="translate(16.8 -14.35)"/><path d="M7.45 60.7q-2.1-.4-2.6-.9 9.6-4.55 12.7-4.7.2 2.15-1.15 3.1-1.2 1.2-3.15.8l-5.3 1.7-.2.05-.3-.05M62 51.75q-1.95 8.8-13.9 5.7v-1.2q4.3-3.15 13.9-4.5" fill-opacity=".733" transform="translate(16.8 -14.35)"/></g></defs></svg>