<svg xmlns:xlink="http://www.w3.org/1999/xlink" height="18.8" width="22.05" xmlns="http://www.w3.org/2000/svg"><use height="72.5" transform="matrix(.2595 0 0 .2593 .018 0)" width="84.85" xlink:href="#a"/><defs><use height="72.5" width="84.85" xlink:href="#b" id="a"/><g id="b" fill-rule="evenodd"><path d="M52.4 71.45q-5.2 3.2-11.55 5.2l5.35-2.45q1.9-.95 6.2-2.75m-49.05-2.5v-.25l.05-.2-.05.45m.25-3.55v-.25l.35-1.25-.35 1.5m12.3-23.05.35.45.4.45-.6.1v-.55l-.15-.45M-6.9 48.1l-2.55-.85-2.3-1.1-.5-.35 1.4.65 1.4.8H-9l.4.2 1.7.65m-11.2-2.2v-.15.25-.1m29.55 23.75.6.35h.2l.4.2 4.4 1.45q-4.1-.65-7.55-2.5L8.05 68.1q1.55.7 3.4 1.55" fill="#5f7a95" transform="translate(19.2 -9.45)"/><path d="m7.45 29.2 1.1 1.05-3.45-.1q0-1.25.7-2.25l.75.55.9.75" fill="#55708b" transform="translate(19.2 -9.45)"/><path d="M2.85 48.9q-5.35.4-9.75-.8l-1.7-.65-.4-.2 6.1.8 5.75.85M36.1 69.4l.2-.05q-11 3.6-19.25 2.3l-4.4-1.45-.4-.2q1.75.05 6.1 1.05l6.35.6L31 70.6l5.1-1.2" fill="#65809b" transform="translate(19.2 -9.45)"/><path d="m39.2 35.1 1.7-.95q.4 1.5.3 3l-2-2.05" fill="#55708b" transform="translate(19.2 -9.45)"/><path d="m8.6 49.5 1.55-.4 2.15-.55v.1l-3.7.85m49.3 16.7q.85-.85 1.15-1.7.4-1.05.2-3.05l.2-.1q.2 2.75-1.05 4.4l-.5.45m1.15-4.7q-2.3 1.6-6.75 3.2l-6.2 2.15q9.35-4.05 12.95-5.35" fill="#7a95b0" transform="translate(19.2 -9.45)"/><path d="m9 30.7.95.5 1 .35.55.05-.6.05q-.9-.1-1.8-.85l-.1-.1" fill="#a7c2dd" transform="translate(19.2 -9.45)"/><path d="m41.2 37.15.25.25q.6-2.3.5-5.15 0-6.75-3.35-11.35-2.75-4-8.2-3.2l-7.05.55q-2.25-.2-4.35-1-.8-.65-1.25-1.65-1.05-2.5-2.35-3.35-4.2-2.75-8.65.85-.65.5-2.75 2.95h-.2q-1.05 0-2.5.85-1.7.8-1.5 1.65.2.6 1.3.8l-.65.7-2.25 1.9q-3.5.1-4.05 1.9-.2.7.45 1l-6.15 5.95-1.55 1.7q-2.6 2.7-4 7.6l-.4 1.4-.3 1.4-.3-.1q-.4 2.55-.2 3.8l.2-.7v.1q-.7 7.6 9.5 9.85 4.7 1.15 13.7.95.8-1.2 1.9-2.2l.1-.1.35-.3q3.6-3.45 4.4-4.65l.45-.9v-.1l.3-1.5.05-.25v-.2q.4-1.5 1.25-2.3l.25-.25q.7-.5 1.9-.7l.6-.1.05-.05 2.5-.4q.2-2.3 1.9-4 1.9-1.5 4.2-1.25.45-3.2 4.65-4.65l6.75.2q1 .6 2.25 1.75l.25.25 2 2.05m3.65 3.9-3.85-.7-.4-.25q-.9-.7-1.35-1.75L37.7 35.9l-1-.9q-4-2.75-8.45.85-.95.7-2.9 2.95h-.05q-4.2.85-4 2.75.2.55 1.1.7l-.45.55-.75.65-1.35 1.1-.2.15q-3.45.1-4 1.9-.25.6.55 1.05-2.3 1.95-6.25 5.9l-.4.4-.1.15-.35.25-1.5 1.5-.65.85q-.65.9-1.2 2.1-1 2.1-1.8 5.1l-.35 1.25v.25l-.05.2-.15-.05q-.4 2.75-.2 4l.15-.85v.25Q2.4 81.1 28.5 79.45q5.85-.3 12.35-2.8 6.35-2 11.55-5.2l.95-.4q4.45-1.9 6.3-4.2 2.35-2.6 2.85-5.8.8-2.55.75-5.8v-.6q-.1-6.3-3.35-11-2.55-3.8-8.25-3.15l-6.8.55M52.3 39q6.95-.65 9.5 2.95 4.2 5.9 3.8 14.35-.25 8.85-6.15 12.85-7.55 5.25-17.7 9.05-14.3 4.85-26.1 3.4-9.1-1.5-11.2-4.45-1.9-2.75-2.1-8.2-.2-4.85.85-8.45l.6-1.5q-4.95.4-9.65-.2-8.85-1.45-11.2-4.6-1.9-2.75-2.1-8.05-.2-5.05 1.05-8.6 1.05-3.4 3.8-5.9l4.85-4.85q.65-.85.85-2.95.2-1.7 1.45-2.55 1.3-1.05 4.85-1.45.2-2.35 1.9-3.8 1.9-1.7 4.2-1.3.65-3.15 4.85-4.6l6.55.2q2.1 1.25 5.25 4.85Q23 16.9 30.8 16.25q6.95-.85 9.5 2.75 4.2 6.1 4 14.3-.15 2.95-.9 5.4l8.9.3" fill="#3f5a75" fill-opacity=".953" transform="translate(19.2 -9.45)"/><path d="m23.35 18.25 7.05-.55q5.45-.8 8.2 3.2 3.35 4.6 3.35 11.35.1 2.85-.5 5.15l-.25-.25q.1-1.5-.3-3l-1.7.95-.25-.25.05-.05q2.55-1.05 2.75-2.55 0-.85-2.1-7.35-1.05-2.95-2.3-3.2-1.5-.4-4.65 1.7l-4.65 2.55q-1.7.4-2.75-.65-1.45-1.25-2.3-1.25-.7-.1-1.85.45.35-1.05-.25-2.55-.85-1.7-2.1-2.95-1.5-1.5-2.35-.85l-1 1.15q-2.25-1.55-5.25-2.6 3.55-3.55 1.65-4.65-1.5-1.05-5.5 2.1l-1.6 1.8-.75.1q2.1-2.45 2.75-2.95 4.45-3.6 8.65-.85 1.3.85 2.35 3.35.45 1 1.25 1.65l-.4-.15q.2 1.45 3.15 3.8 2.75 2.3 4 2.5 2.5.2 5.7-1.05 2.7-1.25 4.4-3.35l-2.3-.65-1.9-.65-6.55.65-1.75-.1M41 40.35l-1.15-.3q.45 1.25 3.15 3.6 2.75 2.3 4.25 2.5 2.5.45 5.45-1.05 2.95-1.25 4.65-3.35-1.25 0-2.3-.65l-1.9-.6-6.55.6-1.75-.05 6.8-.55q5.7-.65 8.25 3.15 3.25 4.7 3.35 11-.2-1.9-2.1-6.8-1.7-3.15-2.55-3.35-1.45-.2-4.6 1.9-3.4 2.1-4.65 2.3-1.5.4-2.75-.65t-2.1-1.25q-.7-.1-1.8.45.2-1-.5-2.55l-.9-1.75-1-1.2-.35-.3q-1.1-.85-2-.35l-1.05 1q-2.3-1.65-5.15-2.65l.9-.9q2.3-2.65.7-3.75-1.3-.65-5.7 2.3l-1.6 1.6-.7.1q1.95-2.25 2.9-2.95 4.45-3.6 8.45-.85l1 .9 1.55 2.45q.45 1.05 1.35 1.75l.4.25m22.25 14.9q.05 3.25-.75 5.8.3-1.95-.1-4.15l-3.25 1.85.1-.15 1.05-.85 1.9-1.05q.85-.6 1.05-1.45M9.45 54.1l.1-.15.4-.4q3.95-3.95 6.25-5.9l1.55.4q-2.1 2.15-.85 2.35 1.1.25 3.65-1.7 4.8 1.1 6.65 2.05-.5.9-.55 1.9l-.05.5q1.3.25 3.25-.05l.15.15.4.5q.9.8 1.95.75-.2.7.35 2l2.7 4.95q-2.15-2.8-5.85-5.15-2.55-1.7-5.1-2.7l-2.3-.8-.35-.05-2.85-.6-1-.1q-5.05-.45-8.35 1.9l-.15.15m10.2-9.4.2-.15 1.35-1.1.75-.65.45-.55 1.1.05-.2.35-.1.15-.35.45-1.5 1.6-1.3-.15h-.4M1.1 19.35l1.05.1-.45.6L-.25 22l-1.2-.05h-.35l2.25-1.9.65-.7m5.5.45q2.05.75 5 2.55L8.45 25q-2.3-1.3-4.85-2.2l-.6-.2.4-.45 3.2-2.35m1.95 10.45.45.45.1.1q.9.75 1.8.85-.3.65.5 1.9l1.95 4.35q-1.95-2.35-5.1-4.35-5.9-3.6-11.8-4.25-5.95-.55-9.55 3.2l1.55-1.7 6.15-5.95.15.05 1.7.2.2.05-.2.15q-2.55 1.9-1.05 2.35 1.6.2 4.1-1.85 4.4 1.05 6.3 2.1-.7 1-.7 2.25l3.45.1m5.15-.45-.2-.9.45-.2 2.8-1.1-3 2.15-.05.05m21.5 22.75-.25-.9.5-.2 2.1-.65-2.3 1.7-.05.05m-5.35-4.75q-2.4-1.35-4.75-2.05l-.9-.3.5-.55 2.5-1.75.65-.45.25-.2q2.05.8 4.8 2.7l-3.05 2.6m7.45 17.05.45.7q1.25 1.7 4.2.85 1.7-.4 4.85-1.9l4.85-1.8q-8.6 4.35-14.2 6.3.25-1.95.1-3.45l-.25-.7" fill="#3f5a75" fill-opacity=".4" transform="translate(19.2 -9.45)"/><path d="m23.35 18.25 1.75.1 6.55-.65 1.9.65 2.3.65q-1.7 2.1-4.4 3.35-3.2 1.25-5.7 1.05-1.25-.2-4-2.5-2.95-2.35-3.15-3.8l.4.15q2.1.8 4.35 1m-7.9 1.05 1-1.15q.85-.65 2.35.85 1.25 1.25 2.1 2.95.6 1.5.25 2.55 1.15-.55 1.85-.45.85 0 2.3 1.25 1.05 1.05 2.75.65l4.65-2.55q3.15-2.1 4.65-1.7 1.25.25 2.3 3.2 2.1 6.5 2.1 7.35-.2 1.5-2.75 2.55l-.05.05Q37.7 33.7 36.7 33.1l-6.75-.2q-4.2 1.45-4.65 4.65-2.3-.25-4.2 1.25-1.7 1.7-1.9 4l-2.5.4-.05.05-.4-.45-.35-.45q-.75-2.4-2.55-4.45l-1.95-4.35q-.8-1.25-.5-1.9l.6-.05q.75 0 1.2-.5.95-.6 1-1.3l.05-.05 3-2.15-2.8 1.1-.45.2q-.55-1.05-2.5-2.35L8.45 25l3.15-2.65 3.2 3.4q1.9 2.1 3.35 2.3l.25.05 1.65.35-.1-.75q.5-.45.5-1.35 0-1.7-1.25-3.35-1.5-2.1-3.75-3.7M41 40.35l3.85.7 1.75.05 6.55-.6 1.9.6q1.05.65 2.3.65-1.7 2.1-4.65 3.35-2.95 1.5-5.45 1.05-1.5-.2-4.25-2.5-2.7-2.35-3.15-3.6l1.15.3m22.25 14.3v.6q-.2.85-1.05 1.45l-1.9 1.05-1.05.85-.1.15-7.5 3.95-4.85 1.8q-3.15 1.5-4.85 1.9-2.95.85-4.2-.85l-.45-.7-1.9-3.4-2.7-4.95q-.55-1.3-.35-2l1.2-.3q1.6-.7 1.65-1.65l.05-.05 2.3-1.7-2.1.65-.5.2q-.6-1.05-2.65-2.3l-2.45-1.55 3.05-2.6.2.15 2.95 3.15q2.15 2.3 3.4 2.5h.85l1.25.25-.1-.8q.4-.45.5-1.35 0-1.65-1.25-3.35-1.65-2.15-3.8-3.65l1.05-1q.9-.5 2 .35l.35.3 1 1.2.9 1.75q.7 1.55.5 2.55 1.1-.55 1.8-.45.85.2 2.1 1.25t2.75.65q1.25-.2 4.65-2.3 3.15-2.1 4.6-1.9.85.2 2.55 3.35 1.9 4.9 2.1 6.8M1.7 50.4l2.35-.65 4.55-.25 3.7-.85-.45.9q-.8 1.2-4.4 4.65-12.2-1.9-5.75-3.8m25.5.35.85.5.4.3.05.1 1.35 1.45q-1.95.3-3.25.05l.05-.5q.05-1 .55-1.9m9.2 25.1-7.3 1.1q-2.5.4-6.3-.85-3.8-1.5.4-2.75l.8-.2 1.55-.4q6.1 0 19.35-5.5l1.2-.4 6.2-2.15q4.45-1.6 6.75-3.2l.2-.15v.1q.2 2-.2 3.05-.3.85-1.15 1.7l-.95.85q-3.6 3.15-10.15 5.9-4.45 1.75-10.4 2.9" fill="#3f5a75" fill-opacity=".682" transform="translate(19.2 -9.45)"/><path d="m4.75 15.95 1.6-1.8q4-3.15 5.5-2.1 1.9 1.1-1.65 4.65l-.7-.25-4.75-.5m27 23.5L31 39.2l-4.95-.5 1.6-1.6q4.4-2.95 5.7-2.3 1.6 1.1-.7 3.75l-.9.9m-29.6-20 2.5-.25 1.95.6-3.2 2.35-.4.45-3.25-.6 1.95-1.95.45-.6m15.6 28.6 2.8.65Q18 50.65 16.9 50.4q-1.25-.2.85-2.35m6.45-2.6-2.85-.6 1.5-1.6.35-.45.1-.15.2-.35 2.65-.35 1.95.55-.25.2-.65.45-2.5 1.75-.5.55m-27.55-20.3 2.85.65q-2.5 2.05-4.1 1.85-1.5-.45 1.05-2.35l.2-.15" fill="#3f5a75" fill-opacity=".302" transform="translate(19.2 -9.45)"/><path d="m18.4 28.1-1.3-.7-.85-1.05q-1.45-.2-2.5-2.1-1.1-1.7-.45-2.75 1.25-1.65 3.4-.6 1.65.8 2.7 2.5l.55 4.3.1.75-1.65-.35M7.45 29.2l-.25-.3q-.75-.95-.85-1.65-.2-.9.65-1.5.45-.35 1-.35 1.85 0 4.9 3.7l.2 1.25-.4.75q-.45.5-1.2.5l-.55-.05-1-.35-.95-.5-.45-.45-1.1-1.05m5.2 17.6-1.45.2-5.9.85q-3.6.45-5.9-.6-3.4-1.3-3.15-5.5.2-4 2.95-6.35 2.3-1.45 4.2-1.05 2.55.65 6.95 5.1l3.55 4.85q-.85.8-1.25 2.3v.2m15.8 4.75q-.65-.95-.75-1.65-.1-.85.55-1.4.5-.4 1.15-.35 1.8.15 4.9 3.75l.1.15v1.1q-.35 1.25-1.95 1.1l-1.25-.3q-.65-.25-1.2-.7l-.15-.15-1.35-1.45-.05-.1M40.3 51l-1.7-.8-1.05-.85q-1.25-.45-2.3-2.1-1.3-1.7-.45-2.75 1.05-1.9 3.4-.85 1.65.85 2.5 2.5l.75 4.3.1.8L40.3 51m-4.2 18.4-3.4.4-11.8.4q-3.4-1.25-3.15-5.5.2-4 2.95-6.3 1.65-1.7 4-1.25 2.75.6 7.15 5.05l3.6 5.2q1.15 1.85.85 1.95l-.2.05" fill="#3f5a75" fill-opacity=".102" transform="translate(19.2 -9.45)"/><path d="m3.55 65.6.05-.2.35-1.5q.8-3 1.8-5.1.55-1.2 1.2-2.1l.65-.85 1.5-1.5.35-.25.15-.15q3.3-2.35 8.35-1.9l1 .1 2.85.6.35.05 2.3.8q2.55 1 5.1 2.7 3.7 2.35 5.85 5.15l1.9 3.4.25.7q.15 1.5-.1 3.45l-.55.15-.6.2q.3-.1-.85-1.95-6-11.45-19-13.45-4.85-.6-9.05 3.8-4.65 4.85-1.05 8.85l5.1 3.05q-1.85-.85-3.4-1.55-2.85-1.95-4.5-2.5m9.8-27.7q1.8 2.05 2.55 4.45l.15.45v.55q-1.2.2-1.9.7l-.25.25Q7.85 33.15-5.05 31.2q-4.6-.6-9.05 3.8-4.65 4.85-1.05 8.85l4.3 2.6-1.4-.65q-3.45-2.45-5.55-2.9l.3-1.4.4-1.4q1.4-4.9 4-7.6 3.6-3.75 9.55-3.2 5.9.65 11.8 4.25 3.15 2 5.1 4.35" fill="#3f5a75" fill-opacity=".49" transform="translate(19.2 -9.45)"/><path d="M62.5 61.05q-.5 3.2-2.85 5.8-1.85 2.3-6.3 4.2l-.95.4q-4.3 1.8-6.2 2.75l-5.35 2.45q-6.5 2.5-12.35 2.8Q2.4 81.1 3.35 68.95l.05-.45-.05.2-.15.85q-.2-1.25.2-4l.15.05q1.65.55 4.5 2.5l1.45 1.05q3.45 1.85 7.55 2.5 8.25 1.3 19.25-2.3l.6-.2.55-.15q5.6-1.95 14.2-6.3l7.5-3.95 3.25-1.85q.4 2.2.1 4.15M2.85 48.9h.55l.65-.1q4-.45 8.55-1.75l-.3 1.5-2.15.55-1.55.4-4.55.25-2.35.65-5.7-.2q-11.95-1.9-12-3.55 0 9.4 23.1 7.85l-.1.1q-1.1 1-1.9 2.2-9 .2-13.7-.95-10.2-2.25-9.5-9.85v-.25.15l-.2.7q-.2-1.25.2-3.8l.3.1q2.1.45 5.55 2.9l.5.35 2.3 1.1 2.55.85q4.4 1.2 9.75.8M36.4 75.85q5.95-1.15 10.4-2.9 6.55-2.75 10.15-5.9l.95-.85.5-.45q1.25-1.65 1.05-4.4l-.2.1v-.1l-.2.15q-3.6 1.3-12.95 5.35l-1.2.4q-13.25 5.5-19.35 5.5l-1.55.4-6.7-.2q-11.75-1.9-11.8-3.4 0 9.5 24.45 7.6l6.45-1.3" fill="#3f5a75" fill-opacity=".733" transform="translate(19.2 -9.45)"/><path d="M7.1 54.5Q-16 56.05-16 46.65q.05 1.65 12 3.55l5.7.2q-6.45 1.9 5.75 3.8l-.35.3M24 73.15l-.8.2q-4.2 1.25-.4 2.75 3.8 1.25 6.3.85l7.3-1.1-6.45 1.3Q5.5 79.05 5.5 69.55q.05 1.5 11.8 3.4l6.7.2" fill="#3f5a75" fill-opacity=".6" transform="translate(19.2 -9.45)"/></g></defs></svg>