<svg xmlns="http://www.w3.org/2000/svg" width="933.333" height="933.333" version="1.0" viewBox="0 0 700 700"><path d="M301.5 1C225.2 7.1 167 31.6 123.3 76.1c-12.2 12.5-18.3 20-27.4 33.7C63.3 158.9 47.3 219.3 43 309c-1.3 27.5-1.3 106.9 0 122.5 3.2 38 11.5 77.8 23.1 111.2 5.4 15.4 9.3 23.7 16.4 35.3 30.8 49.6 77.2 85.2 134 102.7 43.3 13.3 82.7 19.3 128 19.3 86.1 0 153.8-15.5 204.4-46.9 37-22.9 68.7-60.7 87.6-104.4 19.7-45.6 24.5-87.5 24.4-213.2 0-52.7-.5-68-3-88.1l-1.1-9.2-7.7 6.2c-7.9 6.4-14 10.4-22.9 15.2l-5.3 2.9.1 96.5c.1 108.3 0 108.9-7 136.7-12.5 49.2-39.6 91.1-74.5 115.2-28.9 20-67.8 36.4-105.7 44.6-25.2 5.4-32.9 6-79.8 6-55.5 0-71.7-1.5-100.8-9-47.2-12.4-92.9-38.5-118-67.6C106.3 551.5 90 507.1 83.9 445c-1.6-17-2.4-130.5-1-155 5-87.3 25-141.9 67.6-184.5 16.8-16.9 32.1-27.9 53.2-38.4 34.5-17.2 70.6-24.9 126.9-27.1 41.1-1.7 80.9.8 111 6.9l14.1 2.9 10.4-10.1c5.7-5.6 13.9-12.5 18.1-15.3l7.7-5.1-6.2-2.1c-18.5-6.5-46.5-12.4-72.2-15.3-12.3-1.4-96.9-2-112-.9z"/><path d="M544.8 16.1C480.7 25.5 434 84.5 440 148.4c3.2 33.3 18.6 62.8 43.6 83.5 44.4 36.8 106.3 38.4 152.3 4.1 31.1-23.3 49.1-59.3 49.1-98.6 0-53.6-34.6-100.6-86.2-116.9-15.7-5-37.8-6.8-54-4.4z"/><path d="M329.5 99.6c-43.1 2.2-68.2 7.3-91 18.6-13.7 6.8-24.4 14.8-33.1 24.6-19 21.7-32.4 48-38.3 75.3-4.4 20.4-4.6 26.8-4.6 121.4 0 88.2 0 90.2 2.2 102 4.2 23.1 12.5 43.7 25.3 62.8 8 12.1 16.9 20.8 30.2 29.6 30.4 20.2 64 28.5 121.4 29.8 59.5 1.4 102.1-7 138.9-27.4 29.1-16.1 47.9-38.7 58.1-70 6-18.7 8.7-32.5 8.8-45.8.2-18.6-3.3-28.9-13.2-39.7-6.8-7.3-16.7-12.4-32-16.5-8.9-2.4-11.4-2.7-30.2-2.7-27.1-.1-39.1 2.5-59.3 12.5-10 5.1-15 9.6-18.7 17.3-2.8 5.7-3 6.9-3.4 20.6-.9 28.7-7.9 48.6-19 53.9-10 4.7-24.7 5.6-31.8 2-9.5-4.9-16.2-16.7-19.4-34.4-1.1-6.6-1.4-25.3-1.4-105.5 0-60.1.4-100.2 1-104.5 1.9-12.6 7.1-20.8 16-24.9 5.7-2.6 18.8-2.7 27.2-.2 6.9 2 15.1 8.3 19 14.7 2.3 3.7 2.9 6.3 3.9 15.9 2 20.9 7.2 36.3 15.4 45.8 4.7 5.4 18.4 12.2 31 15.4 8.2 2.1 11.2 2.3 33.5 2.2 25.9-.1 48.9-2.1 57.1-4.9 7.3-2.6 17.9-10.3 17.9-13.1 0-.6-2.2-1.4-5.1-1.8-6.9-.9-26.9-7.6-34.9-11.6-44.8-22.5-73.4-66.3-76.5-117-.5-8.1-.2-13.4 1.4-23.5 1.1-7.2 2.3-13.8 2.6-14.6.6-1.7-1.8-2.4-19-5-6.8-1-65.9-2-80-1.3z"/></svg>