<svg height="12.25" width="14.35" xmlns="http://www.w3.org/2000/svg"><path d="M14.35 5.25q0 2.15-2.1 3.7V9q-2.15 1.45-5.05 1.45l-1.6-.1-1-.2-.2-.1-4.3 2.2L1.8 8.7Q-.05 7.25 0 5.25V5.2q-.05-1.45.95-2.6L2.1 1.55q.2-.2.45-.3Q3.1.85 3.8.6L4.9.25 7.2 0l1.45.1q1.45.2 2.7.85l.9.6q2.1 1.55 2.1 3.7" fill="#f20000" fill-rule="evenodd"/><path d="M14.35 5.25q0-2.15-2.1-3.7l-.9-.6Q10.1.3 8.65.1L7.2 0 4.9.25 3.8.6q-.7.25-1.25.65-.25.1-.45.3L.95 2.6q-1 1.15-.95 2.6v.05q-.05 2 1.8 3.45L.1 12.25l4.3-2.2.2.1 1 .2 1.6.1q2.9 0 5.05-1.45v-.05q2.1-1.55 2.1-3.7Z" fill="none" stroke="#900" stroke-linecap="round" stroke-linejoin="round" stroke-width=".05"/><path d="M10.95 5.9h-1.5V4.45h1.5V5.9m-4.45 0V4.45H8V5.9H6.5m-2.95 0V4.45H5V5.9H3.55" fill="#900" fill-rule="evenodd"/></svg>