<svg xmlns="http://www.w3.org/2000/svg" width="19" height="21"><path d="M3.803 1.936c1.544 2.828 11.634 16.491 13.203 12.969s-.921-7.897-1.378-8.502c5.605-4.618-4.282-8.369-11.825-4.467z" fill="#ffe8f2"/><path d="M7.42 20.882c-2.874-.308-5.117-1.596-6.343-3.643-1.122-1.873-.769-4.285.693-4.729.26-.079.265-.198.014-.332-.568-.304-.591-.52-.591-5.622 0-5.541-.005-5.522 1.676-6.298.882-.407 12.538-.305 13.366.117 2.132 1.087 2.341 5.514.289 6.103-.213.061-.399.12-.415.13s.297.345.693.744c1.937 1.947 2.539 6.122 1.266 8.769-1.831 3.806-5.257 5.338-10.648 4.76zm9.69-6.863c.497-.928-.026-3.964-.901-5.238-.892-1.299-2.922-2.132-3.736-1.534-.482.355-.37.632.704 1.742 1.181 1.221 2.266 2.91 2.269 3.533.005.877 1.349 2.086 1.664 1.497zm-.67-10.694c.034-.756-.233-1.329-.756-1.623-.581-.327-10.492-.422-10.811-.103-.075.075.073.344.189.344.063 0 .192.145.288.323s.222.323.28.323.158.062.221.138.211.138.329.138.237.037.264.082c.043.07 2.22.082 2.22.012 0-.041.525-.092.93-.089.207.001.477-.036.6-.082.128-.048.715-.054 1.376-.014 1.197.073 1.19.071 3.367.864 1.323.482 1.469.452 1.503-.313z" fill="#ff8fcb"/><path d="M7.051 20.812c-2.754-.394-4.469-1.397-5.838-3.411-1.182-1.74-1.021-4.087.327-4.767l.426-.228c.019-.017-.089-.154-.24-.305-.512-.512-.532-.73-.532-5.638 0-5-.027-4.777.67-5.495C2.748.057 2.76.055 9.11.026c6.763-.031 6.944-.011 7.847.865 1.492 1.449 1.186 5.17-.458 5.584-.512.129-.531.072.273.857 1.259 1.231 1.802 2.717 1.874 5.127.178 5.986-4.515 9.367-11.595 8.353zm2.352-3.747a5.04 5.04 0 0 0 .66-.23c.16-.073.335-.132.39-.132s.172-.114.261-.254.201-.281.249-.315c.47-.331-.358-1.094-.843-.777-.814.533-1.191.391-1.906-.719-.858-1.33-2.437-1.887-3.756-1.326-1.949.829 2.691 4.35 4.946 3.753zm6.887-.87c1.916-2.799 1.008-7.512-1.693-8.795-1.299-.617-3.439-.638-5.101-.049-1.13.4-1.024.455-1.09-.556-.089-1.348-.299-1.282 3.95-1.24 3.797.038 4.152-.149 4.137-2.182-.014-1.945-.306-2.015-8.15-1.959-5.175.037-5.442.091-4.634.928.205.212.46.562.568.777s.234.392.28.392.113.093.147.208.162.34.283.501c.361.482.553 1.145.823 2.84.14.878.484 1.536.84 1.603a.856.856 0 0 1 .332.175c.199.177 1.629.324 1.8.186 1.019-.825 3.31.73 3.837 2.604.223.793.19 2.915-.049 3.204-.053.064-.076.22-.052.347.03.155.003.231-.081.231-.069 0-.126.038-.126.086 0 .12.459.468.618.468.205 0 1.04.289 1.096.38.028.045.203.083.391.085s.527.105.756.228c.56.302.614.28 1.122-.463z" fill="#ff007f"/><path d="M7.627 20.854c-2.999-.316-4.947-1.351-6.317-3.355-1.289-1.886-1.142-4.116.321-4.866.404-.207.428-.313.124-.552-.492-.387-.516-.645-.516-5.559C1.239-.383.695.044 9.453.069c7.174.021 7.309.048 8.06 1.636.833 1.76.143 4.751-1.097 4.76-.512.004-.463.158.262.835 1.833 1.712 2.576 5.615 1.575 8.274-1.512 4.016-5.204 5.851-10.625 5.28zm6.994-2.755c3.586-2.152 3.582-9.073-.006-10.732-1.441-.666-3.981-.637-5.512.064-.652.299-.682.263-.649-.791.027-.868.027-.868 3.301-.917 2.438-.036 3.376-.082 3.671-.177 1.589-.516 1.496-3.604-.122-4.053-.519-.144-10.968-.142-11.541.002-1.089.274-1.424 1.429-.618 2.134.187.164.385.353.439.42a8.77 8.77 0 0 0 .253.293c.216.239.317.456.388.831.034.178.141.385.238.461.135.105.212.378.323 1.135.08.548.182 1.067.225 1.153.105.209.257.728.33 1.125.032.178.109.423.169.546.086.174.085.231-.003.261s-.076.095.033.261c.133.204.133.228-.002.28-.082.031-.148.149-.148.261s-.146.367-.323.567c-.456.512-.294.626.806.567 1.066-.057 1.623-.322 2.18-1.038.865-1.111 2.468-.951 2.521.252.116 2.657-.099 4.052-.681 4.407-.637.389-1 .219-1.664-.779-1.028-1.546-3.393-2.057-4.951-1.071-.382.242.516 1.572 1.738 2.577.225.185.512.43.636.544s.266.208.313.208.407.141.798.313c.886.39 2.124.606 2.998.525 1.33-.124 2.787-.047 3.149.166.182.108.391.196.464.196s.184.083.248.184c.163.261.326.233 1-.172z" fill="#ba005a"/><path d="M7.42 20.79c-5.302-.568-9.362-6.192-5.835-8.082.546-.293.579-.366.258-.576-.537-.352-.558-.568-.558-5.622 0-5.146-.035-4.856.66-5.531.886-.861.647-.834 7.503-.834 6.751 0 6.346-.032 7.215.568 1.716 1.185 1.509 5.426-.279 5.712-.513.082-.489.198.155.759 2.035 1.77 2.753 6.199 1.445 8.917-1.813 3.767-5.188 5.265-10.566 4.689zm4.622-1.541c4.129-.67 6.42-4.981 4.885-9.189-1.071-2.934-4.429-4.119-7.734-2.728a6.56 6.56 0 0 1-.617.239c-.027 0-.049-.394-.049-.876 0-1.015-.455-.907 3.874-.917 2.674-.006 3.064-.054 3.551-.437.748-.588.844-2.668.158-3.426-.462-.511-.327-.5-6.569-.536-6.378-.037-6.132-.059-6.73.583-.343.368-.191 3.784.187 4.186.098.105.179.278.179.385s.098.312.217.455c.233.279.343.708.38 1.481.013.265.071.541.13.612.084.101.075.142-.039.186-.081.031-.12.1-.087.153s.012.154-.046.224-.118.245-.134.388-.078.261-.14.261-.166.073-.231.161-.165.161-.223.161c-.557 0 .046.873.734 1.063 1.895.524 3.32.263 4.341-.794 1.615-1.672 2.448-.981 2.359 1.957-.089 2.957-.901 3.605-2.187 1.749-1.052-1.518-2.024-1.812-4.429-1.338-1.361.268-1.775.569-1.896 1.375-.109.726.381 1.638.726 1.352.074-.061.168-.048.288.04.098.072.245.131.326.131s.27.102.421.227c.656.543.839.674 1.026.733.109.034.222.123.251.197s.12.135.203.135.323.115.533.257a6.28 6.28 0 0 0 .751.423l.83.378c.738.338.978.424 1.054.376.04-.024.168.058.286.183.259.276.366.291.301.043s.08-.233.351.036 1.477.32 2.768.111z" fill="#9a004b"/><path d="M7.42 20.668c-2.754-.321-4.568-1.277-5.861-3.089-1.38-1.934-1.263-4.238.247-4.865.521-.217.576-.416.179-.65-.588-.347-.607-.52-.607-5.554 0-5.388-.016-5.328 1.593-6.071.848-.392 12.324-.301 13.146.104 2.089 1.028 2.239 5.26.205 5.77-.632.159-.643.366-.044.82 2.434 1.844 2.996 6.695 1.134 9.787-1.838 3.051-5.187 4.308-9.992 3.748zm4.382-1.205c4.704-.793 7.055-5.684 4.912-10.22C15.6 6.884 11.64 5.93 8.873 7.353c-.254.13-.254.13-.254-.698s0-.828 3.39-.856c4.461-.036 5.155-.478 4.639-2.961-.335-1.612-.218-1.586-7.107-1.586-7.897 0-7.037-.661-6.957 5.343.073 5.463-.059 5.068 1.768 5.314 1.982.268 2.988-.006 3.937-1.072.607-.682 1.35-.811 1.842-.32.424.424.283 4.141-.176 4.619-.559.583-.925.419-1.693-.758-.924-1.417-2.079-1.704-4.709-1.17-3.967.805-.972 5.636 3.83 6.178a33.38 33.38 0 0 1 1.375.181c.534.09 2.237.032 3.044-.104z" fill="#7a003b"/></svg>