<?xml version="1.0" encoding="UTF-8" standalone="no"?>
<svg xmlns:xlink="http://www.w3.org/1999/xlink" height="23.7px" width="19.0px" xmlns="http://www.w3.org/2000/svg">
  <g transform="matrix(1.0, 0.0, 0.0, 1.0, -3.0, -0.65)">
    <use height="80.6" transform="matrix(0.293, 0.0, 0.0, 0.2935, 2.9756, 0.6729)" width="64.9" xlink:href="#sprite0"/>
  </g>
  <defs>
    <g id="sprite0" transform="matrix(1.0, 0.0, 0.0, 1.0, 7.25, -1.1)">
      <use height="80.6" transform="matrix(1.0, 0.0, 0.0, 1.0, -7.25, 1.1)" width="64.9" xlink:href="#shape0"/>
    </g>
    <g id="shape0" transform="matrix(1.0, 0.0, 0.0, 1.0, 7.25, -1.1)">
      <path d="M57.65 13.5 L57.65 81.7 -7.25 81.7 -7.25 13.5 7.6 13.5 25.3 1.95 24.7 1.1 25.65 1.75 26.55 1.1 26.0 1.95 43.55 13.5 57.65 13.5 M52.95 23.2 L52.95 19.15 -2.55 19.15 -2.55 23.2 -2.55 77.9 52.95 77.9 52.95 23.2 M33.05 13.5 L25.65 2.5 18.2 13.5 33.05 13.5" fill="#3f5a75" fill-opacity="0.9137255" fill-rule="evenodd" stroke="none"/>
      <path d="M44.75 32.05 L44.75 27.55 5.45 27.55 5.45 32.05 5.45 68.15 5.45 72.35 45.1 72.35 45.1 68.15 44.75 68.15 44.75 32.05 M52.95 23.2 L52.95 77.9 -2.55 77.9 -2.55 23.2 52.95 23.2" fill="#3f5a75" fill-opacity="0.67058825" fill-rule="evenodd" stroke="none"/>
      <path d="M44.75 32.05 L44.75 68.15 5.45 68.15 5.45 32.05 44.75 32.05" fill="#3f5a75" fill-opacity="0.3137255" fill-rule="evenodd" stroke="none"/>
      <path d="M5.45 32.05 L5.45 27.55 44.75 27.55 44.75 32.05 5.45 32.05" fill="#3f5a75" fill-opacity="0.4627451" fill-rule="evenodd" stroke="none"/>
    </g>
  </defs>
</svg>
