<svg height="11" width="11" xmlns:xlink="http://www.w3.org/1999/xlink" xmlns="http://www.w3.org/2000/svg"><use height="17.6" transform="translate(-4.4 -3.65)" width="127.95" xlink:href="#a" style="display:inline"/><defs><path d="M25 0q0 10.3-7.3 17.65Q10.35 25 0 25t-17.65-7.35Q-25 10.3-25 0q0-10.35 7.35-17.7Q-10.35-25.05 0-25q10.35-.05 17.7 7.3Q25-10.35 25 0" fill="#028f01" fill-rule="evenodd" transform="translate(25 25)" id="b"/><path d="m0 0 5.95 4.4 5-3.8-5.3 6.75L0 0" fill="#fff" fill-rule="evenodd" id="c"/><use height="50" width="50" xlink:href="#b" id="d"/><use height="7.35" width="10.95" xlink:href="#c" id="e"/><g id="a"><use height="17.15" transform="translate(0 .45)" width="127.95" xlink:href="#sprite0"/><use height="50" transform="matrix(.22 0 0 .22 4.4 3.65)" width="50" xlink:href="#d"/><use height="7.35" transform="translate(4.4 4.9)" width="10.95" xlink:href="#e"/><use height="16.05" transform="translate(18.3)" width="105.7" xlink:href="#text0"/></g></defs></svg>