<svg xmlns="http://www.w3.org/2000/svg" xmlns:xlink="http://www.w3.org/1999/xlink" xml:space="preserve" width="89.855" height="40.295"><defs><linearGradient id="a"><stop offset="0" style="stop-color:gray;stop-opacity:1"/><stop offset="1" style="stop-color:gray;stop-opacity:0"/></linearGradient><linearGradient xlink:href="#a" id="b" x1="44.478" x2="44.478" y1=".394" y2="39.361" gradientTransform="translate(-.893 -.407) scale(1.03408)" gradientUnits="userSpaceOnUse"/></defs><path d="M0 0v2.21c.313-.188.53-.396.53-.396S.25 4 1.966 4.008c1.716.008 1.277-2.336 1.277-2.336s1.685 1.751 2.658.066C6.36.946 6.057.383 5.615 0Zm18.732 0c-.008.254.037.528.213.834.894 1.548 2.477 0 2.477 0s-.275 2.16 1.422 2.168C24.54 3.01 24.105.693 24.105.693s1.67 1.733 2.631.067c.163-.282.225-.533.223-.76Zm12.143 0-1.297 2.688-2.953.437 2.156 2.063-.496 2.943 2.63-1.412 2.644 1.38-.532-2.935 2.131-2.09-2.955-.402zm8.227 0-.247.51-1.478.219 1.08 1.035-.248 1.472 1.316-.707 1.325.694-.266-1.473L41.652.705l-1.48-.203-.25-.502Zm12.763 0c.163.439.492.834 1.19.838.673.003.976-.39 1.115-.838Zm36.633.436c-1.982 0-1.262 2.298-1.262 2.298s-1.694-1.728-2.65-.072 1.111 2.225 1.111 2.225-1.938.909-1.045 2.457c.894 1.548 2.475-.002 2.475-.002s-.275 2.161 1.422 2.17c1.04.005 1.277-.865 1.306-1.54v-.287a4.404 4.404 0 0 0-.043-.484l.043.04V2.66l-.066.058s.036-.142.066-.313v-.949C89.751.93 89.418.435 88.498.435Zm-19.65.86-.65 1.347-1.48.22 1.08 1.033-.247 1.475 1.316-.707 1.324.691-.265-1.47 1.068-1.047-1.48-.201zM8.39 1.382l-.993 2.055-2.255.334 1.646 1.578-.379 2.25 2.01-1.08 2.021 1.056-.404-2.246 1.629-1.596-2.26-.308Zm53.062.066-.99 2.055-2.256.334 1.647 1.578-.38 2.25 2.01-1.08 2.022 1.057-.406-2.246L64.728 3.8l-2.26-.309Zm13.693 2.914-.367.76-.834.123.61.584-.14.83.741-.398.748.39-.15-.83.603-.59-.836-.113zm-36.593.5c-1.982 0-1.26 2.301-1.26 2.301s-1.694-1.73-2.65-.074c-.957 1.656 1.11 2.224 1.11 2.224s-1.938.91-1.044 2.458c.894 1.547 2.475 0 2.475 0s-.275 2.16 1.421 2.167c1.697.009 1.264-2.308 1.264-2.308s1.667 1.73 2.629.064-1.447-2.343-1.447-2.343 2.407-.642 1.449-2.301c-.958-1.66-2.656.096-2.656.096s.69-2.284-1.291-2.284zm-13.37.162L23.216 9.1l-4.477.662 3.268 3.13-.752 4.463 3.988-2.14 4.012 2.094-.805-4.454 3.233-3.167-4.485-.612ZM71.897 6.3c-1.414 0-.898 1.64-.898 1.64s-1.21-1.234-1.893-.052c-.682 1.182.795 1.588.795 1.588s-1.383.649-.746 1.754c.638 1.104 1.766-.002 1.766-.002s-.197 1.54 1.014 1.546c1.21.006.902-1.646.902-1.646s1.189 1.236 1.875.047c.686-1.19-1.031-1.672-1.031-1.672s1.716-.459 1.033-1.643c-.684-1.183-1.895.069-1.895.069s.493-1.63-.922-1.63zM3.6 6.489l-.65 1.345-1.48.219 1.08 1.033-.25 1.475 1.32-.707 1.323.69-.265-1.47 1.068-1.047-1.482-.2Zm43.898 1.91-.65 1.345-1.479.219 1.08 1.033-.25 1.475 1.319-.707 1.324.691-.266-1.47 1.069-1.047-1.483-.202zM9.852 9.614l-.368.758-.834.125.61.582-.14.832.743-.398.746.388-.148-.828.601-.592-.835-.113zm52.576.008-1.969 4.074-4.477.664 3.268 3.131-.752 4.463 3.988-2.14 4.01 2.093-.803-4.453 3.233-3.168-4.485-.611zm20.156.36c-1.85 0-1.178 2.148-1.178 2.148s-1.581-1.615-2.474-.069c-.893 1.547 1.037 2.079 1.037 2.079s-1.811.847-.977 2.293c.835 1.445 2.313 0 2.313 0s-.257 2.017 1.328 2.025c1.584.008 1.18-2.156 1.18-2.156s1.556 1.616 2.455.06c.898-1.556-1.352-2.19-1.352-2.19s2.248-.596 1.354-2.146c-.895-1.549-2.48.09-2.48.09s.645-2.135-1.206-2.135zm-76.006 1.47c-1.414 0-.898 1.64-.898 1.64s-1.21-1.234-1.893-.052c-.682 1.182.795 1.588.795 1.588s-1.384.65-.746 1.754c.638 1.104 1.766-.002 1.766-.002s-.197 1.54 1.013 1.547c1.21.006.903-1.647.903-1.647s1.188 1.236 1.875.047c.686-1.189-1.032-1.672-1.032-1.672s1.717-.459 1.034-1.642c-.684-1.184-1.895.068-1.895.068s.492-1.629-.922-1.629zm38.627 4.238c-1.85 0-1.178 2.149-1.178 2.149s-1.581-1.615-2.474-.069c-.893 1.547 1.039 2.079 1.039 2.079s-1.811.847-.977 2.293c.835 1.445 2.31 0 2.31 0s-.255 2.015 1.329 2.023c1.584.008 1.18-2.156 1.18-2.156s1.556 1.618 2.455.062c.898-1.556-1.352-2.19-1.352-2.19s2.248-.598 1.354-2.148c-.895-1.549-2.48.09-2.48.09s.645-2.133-1.206-2.133zm43.893.317-.993 2.054-2.255.334 1.646 1.579-.379 2.248 2.01-1.078.728.38V17.53Zm-74.078.732c-2.11 0-1.342 2.447-1.342 2.447s-1.803-1.84-2.82-.078c-1.018 1.763 1.183 2.37 1.183 2.37s-2.064.967-1.113 2.615c.95 1.647 2.634-.002 2.634-.002s-.291 2.298 1.514 2.306c1.806.01 1.344-2.457 1.344-2.457s1.775 1.844 2.799.07c1.024-1.773-1.541-2.493-1.541-2.493s2.562-.682 1.543-2.448c-1.02-1.765-2.826.102-2.826.102s.734-2.432-1.375-2.432zM0 18.957v11.438l.656-.354 2.022 1.057-.405-2.246 1.63-1.596-2.26-.309-.26-.523-.68-3.76 3.233-3.168zm84.346 2.79-.367.757-.834.125.609.582-.14.832.743-.398.747.388-.149-.828.602-.59-.836-.115Zm-52.698.858L31 23.951l-1.479.219 1.079 1.033-.248 1.475 1.316-.707 1.326.691-.265-1.47 1.066-1.047-1.48-.202zm-8.601.752-1.297 2.688-2.951.437 2.154 2.063-.496 2.943 2.629-1.412 2.644 1.381-.529-2.936 2.13-2.09-2.956-.402zm57.531.717c-1.85 0-1.176 2.149-1.176 2.149s-1.583-1.615-2.476-.069c-.893 1.547 1.039 2.078 1.039 2.078s-1.811.848-.977 2.293c.835 1.446 2.313 0 2.313 0s-.258 2.016 1.326 2.024c1.584.008 1.18-2.154 1.18-2.154s1.556 1.616 2.455.06c.898-1.556-1.352-2.19-1.352-2.19s2.248-.599 1.354-2.148c-.895-1.55-2.479.09-2.479.09s.644-2.133-1.207-2.133zm-19.55.697-.651 1.348-1.479.219 1.08 1.033-.248 1.475 1.317-.707 1.324.691-.264-1.47 1.067-1.048-1.48-.2zm-7.34.01-.993 2.055-2.256.334 1.647 1.578-.379 2.248 2.01-1.078 2.021 1.057-.404-2.247 1.629-1.595-2.26-.309zm13.605 3.174-.367.76-.834.123.61.584-.141.832.744-.4.746.39-.149-.83.602-.59-.836-.113zm-36.592.1c-1.85 0-1.178 2.148-1.178 2.148s-1.581-1.615-2.474-.068c-.893 1.546 1.037 2.078 1.037 2.078s-1.811.847-.977 2.293c.835 1.445 2.313 0 2.313 0s-.256 2.015 1.328 2.023c1.584.008 1.178-2.156 1.178-2.156s1.558 1.618 2.457.062c.898-1.555-1.352-2.189-1.352-2.189s2.248-.6 1.354-2.148c-.895-1.55-2.48.09-2.48.09s.645-2.133-1.206-2.133zm-13.357.562-1.969 4.074-4.477.664 3.268 3.131-.643 3.809h1.106l2.773-1.488 2.85 1.488h1.053l-.696-3.846 3.233-3.168-4.485-.613zm46.638 1.012c-1.414 0-.9 1.642-.9 1.642s-1.208-1.234-1.89-.052c-.683 1.182.792 1.588.792 1.588s-1.383.647-.746 1.752c.638 1.104 1.766 0 1.766 0s-.195 1.54 1.016 1.546c1.21.006.9-1.646.9-1.646s1.19 1.236 1.877.047c.686-1.19-1.033-1.674-1.033-1.674s1.718-.457 1.035-1.64c-.684-1.184-1.897.068-1.897.068s.495-1.631-.92-1.631zm-24.119 1.945-.65 1.346-1.479.219 1.078 1.035-.248 1.472 1.317-.707 1.326.692-.266-1.47 1.067-1.046-1.48-.203z" style="display:inline;fill:url(#b);fill-opacity:1;stroke-width:.390833;stroke-linecap:round;stroke-linejoin:round;stop-color:#000"/></svg>