<svg xmlns="http://www.w3.org/2000/svg" xmlns:xlink="http://www.w3.org/1999/xlink" xml:space="preserve" width="89.855" height="40.295"><defs><linearGradient id="c"><stop offset="0" style="stop-color:#383838;stop-opacity:0"/><stop offset=".05" style="stop-color:#383838;stop-opacity:1"/><stop offset="1" style="stop-color:#383838;stop-opacity:0"/></linearGradient><linearGradient id="b"><stop offset="0" style="stop-color:#474747;stop-opacity:0"/><stop offset=".05" style="stop-color:#474747;stop-opacity:1"/><stop offset="1" style="stop-color:#474747;stop-opacity:0"/></linearGradient><linearGradient id="a"><stop offset="0" style="stop-color:#404040;stop-opacity:0"/><stop offset=".05" style="stop-color:#404040;stop-opacity:1"/><stop offset="1" style="stop-color:#404040;stop-opacity:0"/></linearGradient><linearGradient xlink:href="#a" id="d" x1="47.205" x2="47.205" y1="0" y2="40.295" gradientUnits="userSpaceOnUse"/><linearGradient xlink:href="#b" id="e" x1="39.839" x2="39.839" y1="0" y2="40.295" gradientUnits="userSpaceOnUse"/><linearGradient xlink:href="#c" id="f" x1="21.39" x2="13.72" y1="1.211" y2="38.418" gradientUnits="userSpaceOnUse"/></defs><path d="M0 1.336v.205h89.855v-.205Zm0 .582v.197h13.828l.098-.197zm14.158 0 .244.197h4.452l.212-.197zm5.422 0 .113.197h70.162v-.197ZM0 2.34v.158h13.64l.079-.158zm14.68 0 .195.158h3.563l.171-.158zm5.142 0 .09.158h69.943V2.34ZM0 3.072v.383h13.17l.187-.383zm15.586 0 .473.383h1.337l.416-.383Zm4.656 0 .219.383h3.91l.139-.055.008.055h65.337v-.383ZM0 3.834v.2h8.998L9.01 3.9l.414.133h3.46l.1-.199zm16.527 0 .244.197.215-.197zm4.153 0 .113.2H22.9l.506-.2Zm3.896 0 .03.2h65.25v-.2ZM0 4.223v.197h8.965l.017-.197zm10.014 0 .615.197h2.066l.098-.197zm10.888 0 .114.197h.9l.502-.197zm3.733 0 .031.197h65.19v-.197ZM0 4.99v.383h8.88l.034-.383zm12.408 0 .006.002V4.99zm12.344 0 .059.383h65.044V4.99ZM0 5.76v.195h8.83l.016-.195zm24.87 0 .028.195h64.957V5.76ZM0 6.143v.195h8.797l.015-.195Zm24.928 0 .029.195h64.898v-.195ZM0 6.91v.77h5.13l-.001-.006 3.568-.211.05-.553Zm25.045 0 .004.026 3.576-.02-.17.764h61.4v-.77ZM0 8.828v.2h5.521l-.058-.2Zm28.201 0-.043.2h61.697v-.2ZM0 9.211v1.348h5.965l-.39-1.348Zm28.117 0-.265 1.197.394.15h61.61V9.212ZM0 10.939v.204h6.049l.076-.036-.049-.168Zm29.246 0 .533.204h60.076v-.204ZM0 11.518v.2h4.787l.442-.2zm30.764 0 .43.164-.026.037h58.687v-.201ZM0 12.67v.77h3.518l-.586-.77Zm30.535 0-.512.77h59.832v-.77ZM0 14.598v.191h4.549l-.147-.191Zm29.252 0-.041.06.144.131h60.5v-.191ZM0 14.975v1.431h4.098l.945-.968-.354-.463Zm29.563 0 1.585 1.431h58.707v-1.431ZM0 16.7v.977h2.86l.95-.977zm31.475 0 .39.352-.886.625h58.876V16.7ZM0 18.421v.224h3.604l-.364-.223Zm29.922 0-.315.224h60.248v-.223ZM0 19.196v.578h5.447l-.943-.578Zm28.982 0 .293.578h60.58v-.578ZM0 20.881v1.2h4.654l.51-1.2zm29.834 0 .605 1.2h59.416v-1.2ZM0 23.033v17.262h89.855V23.033H27.623l-.541.135.35 3.56-3.547-.449-.961 3.446-3.147-1.7-2.14 2.866-2.32-2.723-3.03 1.898-1.18-3.375-3.511.676.119-3.574-3.52-.639.051-.12z" style="display:inline;opacity:1;fill:url(#d);fill-opacity:1;stroke-width:.377953;stroke-linecap:round;stroke-linejoin:round;stop-color:#000"/><path d="M0 0v1.336h89.855V0Zm0 1.541v.377h13.926l.066-.135.166.135h4.908l.336-.309.178.309h70.275v-.377Zm0 .574v.225h13.719l.11-.225zm14.402 0 .278.225h3.93l.244-.225zm5.291 0 .13.225h70.032v-.225ZM0 2.498v.574h13.357l.284-.574zm14.875 0 .71.574h2.227l.625-.574zm5.037 0 .33.574h69.613v-.574ZM0 3.455v.379h12.984l.186-.379zm16.059 0 .468.379h.46l.41-.379zm4.402 0 .219.379h2.726l.965-.379zm4.057 0 .058.379h65.28v-.379ZM0 4.033v.19h8.982l.016-.19zm9.424 0 .59.19h2.779l.092-.19zm11.369 0 .11.19h1.515l.482-.19zm3.812 0 .03.19h65.22v-.19ZM0 4.42v.57h8.914l.05-.57zm10.629 0 1.78.57h.005l.281-.57zm10.387 0 .166.289.734-.29zm3.65 0 .086.57h65.103v-.57ZM0 5.373v.387h8.846l.035-.387zm24.81 0 .06.387h64.985v-.387ZM0 5.955v.188h8.813l.017-.188zm24.898 0 .03.188h64.927v-.188zM0 6.338v.572h8.746l.05-.572Zm24.957 0 .088.572h64.81v-.572ZM0 7.68v1.148h5.463L5.13 7.68Zm28.455 0-.254 1.148h61.654V7.68ZM0 9.027v.184h5.574l-.053-.184Zm28.158 0-.04.184h61.737v-.184ZM0 10.56v.38h6.076l-.111-.38Zm28.246 0 1 .38h60.61v-.38ZM0 11.143v.375h5.229l.82-.375zm29.78 0 .984.375h59.091v-.375zM0 11.719v.95h2.932l-.059-.075 1.914-.875zm31.168 0-.633.95h59.32v-.95ZM0 13.439v1.159h4.402l-.884-1.159Zm30.023 0-.771 1.159h60.603v-1.159ZM0 14.79v.186h4.69l-.141-.186zm29.355 0 .207.186h60.293v-.186ZM0 16.406v.295h3.81l.288-.295Zm31.148 0 .327.295h58.38v-.295ZM0 17.678v.744h3.24l-.693-.424.312-.32zm30.979 0-1.057.744h59.933v-.744ZM0 18.645v.55h4.504l-.9-.55Zm29.607 0-.666.468.041.082h60.873v-.55zM0 19.773v1.108h5.164l.434-1.016-.15-.092zm29.275 0 .559 1.108h60.021v-1.108ZM0 22.08v.953h4.246l.408-.953zm30.44 0 .113.225-2.93.728h62.232v-.953z" style="display:inline;fill:url(#e);fill-opacity:1;stroke-width:.698375;stroke-linecap:round;stroke-linejoin:round;stop-color:#000"/><path d="m26.979 9.04 3.305.663-1.379 3.076 2.843 1.813-2.397 2.37 1.996 2.718-3.092 1.344.88 3.255-3.369.137-.355 3.352-3.19-1.089-1.543 2.998-2.582-2.168-2.521 2.238-1.624-2.955-3.16 1.177-.447-3.342-3.371-.045.79-3.277-3.127-1.26 1.92-2.77-2.46-2.304 2.791-1.89-1.463-3.038 3.287-.753-.267-3.361 3.336.484.966-3.23 2.936 1.657 2.067-2.663 2.14 2.606 2.889-1.737 1.053 3.202 3.322-.575z" style="display:inline;opacity:1;fill:url(#f);fill-opacity:1;stroke-width:.377953;stroke-linecap:round;stroke-linejoin:round;stop-color:#000" transform="rotate(-11.648 13.83 25.746) scale(1.0607)"/></svg>