<svg xmlns="http://www.w3.org/2000/svg" xmlns:xlink="http://www.w3.org/1999/xlink" width="37.6" height="26.3"><g transform="translate(18.9 13.15)"><use xlink:href="#a" width="37.35" height="12.3" transform="translate(-18.9 .85)"/><use xlink:href="#b" width="37.6" height="15" transform="translate(-18.9 -3.5)"/><use xlink:href="#c" width="37.6" height="23.3" transform="translate(-18.9 -13.15)"/><use xlink:href="#d" width="32.65" height="21.25" transform="translate(-15.15 -11.9)"/></g><defs><path id="e" fill="#527ca3" fill-rule="evenodd" d="M-18.7-6.15h37.35q0 5.1-3.6 8.7-3.6 3.6-8.75 3.6H-6.4q-5.1 0-8.7-3.6-3.6-3.6-3.6-8.7" transform="translate(18.7 6.15)"/><path id="f" fill="#4394cc" fill-rule="evenodd" d="M18.8-7.5v4.7q0 4.3-3 7.3-3.05 3-7.35 3H-8.5q-4.25 0-7.3-3-3-3-3-7.3v-4.7h37.6" transform="translate(18.8 7.5)"/><path id="g" fill="#62b8f0" fill-rule="evenodd" d="M18.8-1.3v2.65q0 4.3-3 7.3-3.05 3-7.35 3H-8.5q-4.25 0-7.3-3-3-3-3-7.3V-1.3q0-4.3 3-7.35 3-3 7.3-3H8.45q4.3 0 7.35 3 3 3.05 3 7.35" transform="translate(18.8 11.65)"/><use xlink:href="#e" id="a" width="37.35" height="12.3"/><use xlink:href="#f" id="b" width="37.6" height="15"/><use xlink:href="#g" id="c" width="37.6" height="23.3"/><linearGradient id="h" x1="-819.2" x2="819.2" gradientTransform="matrix(0 -.0087 .0086 0 1.35 4.2)" gradientUnits="userSpaceOnUse" spreadMethod="pad"><stop offset="0" stop-color="#63c1ff"/><stop offset="1" stop-color="#3a9dde"/></linearGradient><linearGradient id="i" x1="-819.2" x2="819.2" gradientTransform="matrix(0 -.0077 .0072 0 .35 -6)" gradientUnits="userSpaceOnUse" spreadMethod="pad"><stop offset="0" stop-color="#64bbf5"/><stop offset="1" stop-color="#fff"/></linearGradient><g id="d" fill-rule="evenodd"><path fill="url(#h)" d="M12-4.8q5.5 0 5.5 5.15 0 2.7-2.3 5.3-2.35 2.7-5 2.7l-15.8 1q-5.2 0-8.85-6-1.5-3.2.25-5.8 1.65-2.35 4.25-2.35H12" transform="translate(15.15 11.9)"/><path fill="url(#i)" d="M-12.5-10.35q1.5-1.55 3.65-1.55h18.5q2.15 0 3.65 1.55 1.55 1.5 1.55 3.65v1.35q0 2.15-1.55 3.65Q11.8-.15 9.65-.15h-18.5Q-11-.15-12.5-1.7q-1.55-1.5-1.55-3.65V-6.7q0-2.15 1.55-3.65" transform="translate(15.15 11.9)"/></g></defs></svg>