<svg xmlns="http://www.w3.org/2000/svg" xmlns:xlink="http://www.w3.org/1999/xlink" width="457" height="45.25"><use xlink:href="#a" width="457" height="177.3" style="display:inline"/><defs><use xlink:href="#b" id="a" width="457" height="45.25"/><use xlink:href="#c" id="d" width="457" height="45.25"/><g id="b" transform="translate(228.5 20.6)"><use xlink:href="#d" width="457" height="45.25" transform="translate(-228.5 -20.6)"/><use xlink:href="#text2" width="437.1" height="29.5" transform="translate(-218.05 -6.05)"/></g><g id="c" fill-rule="evenodd"><path fill="#2b5b84" fill-opacity=".396" d="M457 44.25v1Q456.65 34 445 34H12Q.4 34 0 45.25v-1Q.4 33 12 33h433q11.65 0 12 11.25"/><path fill="url(#e)" d="M216.5-22.1q12 0 12 12v32.25q-.35-11.25-12-11.25h-433q-11.6 0-12 11.25V-10.1q0-12 12-12h433" transform="translate(228.5 22.1)"/></g><linearGradient id="e" x1="-819.2" x2="819.2" gradientTransform="matrix(0 .0214 -.1624 0 7.65 -1.45)" gradientUnits="userSpaceOnUse" spreadMethod="pad"><stop offset="0" stop-color="#bce4fe" stop-opacity=".396"/><stop offset="1" stop-color="#6fb7ff" stop-opacity=".396"/></linearGradient></defs></svg>