<?xml version="1.0" encoding="UTF-8" standalone="no"?>
<svg xmlns:xlink="http://www.w3.org/1999/xlink" height="54.5px" width="43.65px" xmlns="http://www.w3.org/2000/svg">
  <g transform="matrix(1.0, 0.0, 0.0, 1.0, 21.85, 27.25)">
    <use height="54.5" transform="matrix(1.0, 0.0, 0.0, 1.0, -21.85, -27.25)" width="43.65" xlink:href="#shape0"/>
  </g>
  <defs>
    <g id="shape0" transform="matrix(1.0, 0.0, 0.0, 1.0, 21.85, 27.25)">
      <path d="M21.55 -16.85 Q22.15 -14.9 21.3 -13.05 L21.25 -13.0 17.85 -6.0 17.8 -5.9 Q16.9 -4.2 15.15 -3.4 L15.05 -3.35 13.4 -2.95 13.4 4.05 Q14.6 4.05 15.75 4.6 L15.9 4.65 Q17.65 5.6 18.4 7.45 L18.45 7.55 21.15 14.85 Q21.7 16.25 21.45 17.7 L21.45 17.9 Q21.1 19.2 20.15 20.25 L19.95 20.45 17.8 21.85 17.75 21.85 14.2 22.95 13.5 23.15 13.3 23.2 Q12.95 24.55 11.85 25.65 L11.8 25.7 Q10.25 27.25 8.1 27.25 L4.15 27.25 2.2 26.95 0.25 27.25 -3.65 27.25 Q-5.85 27.25 -7.35 25.7 L-7.45 25.65 Q-9.0 24.1 -9.0 21.95 L-9.0 21.6 -11.2 20.6 -12.1 20.1 -12.3 20.05 -14.8 18.25 -15.0 18.1 -15.6 17.5 -15.65 17.4 -17.75 14.65 Q-19.55 11.85 -20.5 8.9 L-20.6 8.7 Q-21.6 5.9 -21.8 2.9 L-21.8 2.85 Q-22.0 0.15 -21.65 -2.55 -21.45 -4.5 -20.85 -6.25 L-20.65 -6.75 -20.5 -7.0 Q-19.3 -9.75 -17.5 -12.05 L-17.3 -12.3 Q-15.75 -14.55 -13.7 -16.1 L-13.55 -16.25 -9.8 -18.8 -9.45 -19.0 -9.0 -19.2 -9.0 -21.9 Q-9.0 -24.1 -7.45 -25.6 L-7.35 -25.7 Q-5.85 -27.25 -3.65 -27.25 L0.25 -27.25 2.2 -26.9 4.15 -27.25 8.1 -27.25 Q10.25 -27.25 11.8 -25.7 L11.85 -25.6 Q13.4 -24.1 13.4 -21.9 L15.75 -21.5 16.4 -21.3 16.6 -21.25 Q17.95 -20.8 19.35 -19.9 L19.55 -19.75 Q21.1 -18.65 21.55 -16.7 L21.55 -16.85" fill="#764701" fill-rule="evenodd" stroke="none"/>
      <path d="M16.45 -15.7 L16.4 -15.45 13.0 -8.4 4.6 -10.7 Q-1.25 -10.7 -4.95 -7.25 -9.0 -4.15 -8.9 0.85 -8.95 5.15 -5.2 8.6 -1.2 11.7 4.25 11.7 L13.35 9.4 16.1 16.7 Q12.95 18.05 7.95 18.25 L7.95 21.85 4.25 21.85 4.25 18.35 0.2 18.1 0.2 21.85 -3.6 21.85 -3.6 17.55 Q-16.75 14.55 -16.75 0.85 -16.75 -5.1 -13.3 -9.35 L-10.35 -12.2 Q-7.35 -14.55 -3.6 -15.85 L-3.6 -21.85 0.2 -21.85 0.2 -16.8 4.25 -17.2 4.25 -21.85 7.95 -21.85 7.95 -17.2 Q13.05 -16.95 16.45 -15.7 M7.95 8.2 L4.25 8.2 4.25 -8.2 7.95 -8.2 7.95 8.2 M-3.6 5.5 L-3.6 -4.85 0.2 -8.2 0.2 8.2 -3.6 5.5" fill="url(#gradient0)" fill-rule="evenodd" stroke="none"/>
      <path d="M7.95 -17.2 L10.8 -16.95 4.25 -10.7 Q-1.35 -10.6 -4.95 -7.25 -9.0 -4.15 -8.9 0.85 L-8.9 0.9 -8.9 1.45 -15.75 7.5 Q-16.75 4.55 -16.75 0.85 L-16.75 0.7 -16.75 0.5 -16.75 0.35 -16.75 0.2 -16.75 0.05 -15.3 -6.1 -15.0 -6.75 -13.6 -7.85 -5.85 -14.9 -3.6 -15.85 -3.6 -17.05 0.2 -20.65 0.2 -16.8 4.25 -17.2 4.25 -21.85 7.95 -21.85 7.95 -17.2 M7.95 4.2 L4.25 7.75 4.25 0.6 7.95 -3.05 7.95 4.2 M-3.6 -3.4 L-3.6 -4.85 0.2 -8.2 0.2 -6.9 -3.6 -3.4 M0.2 4.55 L0.2 8.2 -2.0 6.65 0.2 4.55 M-5.55 17.05 L-5.75 16.95 Q-8.45 16.05 -10.45 14.7 L-8.3 12.65 -4.55 9.1 Q-2.25 10.65 0.5 11.3 L-4.2 15.65 -5.55 17.05" fill="#ffffff" fill-opacity="0.48235294" fill-rule="evenodd" stroke="none"/>
      <path d="M7.95 -17.2 Q13.05 -16.95 16.45 -15.7 L16.4 -15.45 16.0 -14.6 Q12.7 -15.75 7.95 -15.95 L7.95 -17.2 M4.25 -17.2 L4.25 -15.95 0.2 -15.55 0.2 -16.8 4.25 -17.2 M7.95 -20.6 L4.25 -20.6 4.25 -21.85 7.95 -21.85 7.95 -20.6 M-8.9 2.1 L-8.9 1.4 Q-8.7 5.4 -5.2 8.6 -1.2 11.7 4.25 11.7 L13.35 9.4 16.1 16.7 15.7 16.85 13.35 10.65 4.25 12.95 Q-1.2 12.95 -5.2 9.85 -8.95 6.4 -8.9 2.1 M-10.35 -10.95 L-13.3 -8.1 Q-16.6 -4.05 -16.75 1.5 L-16.75 0.85 Q-16.75 -5.1 -13.3 -9.35 L-10.35 -12.2 Q-7.35 -14.55 -3.6 -15.85 L-3.6 -14.6 Q-7.35 -13.3 -10.35 -10.95 M0.2 -6.95 L-3.6 -3.6 -3.6 -4.85 0.2 -8.2 0.2 -6.95 M-3.6 -20.6 L-3.6 -21.85 0.2 -21.85 0.2 -20.6 -3.6 -20.6 M7.95 -6.95 L4.25 -6.95 4.25 -8.2 7.95 -8.2 7.95 -6.95" fill="#fdf3df" fill-rule="evenodd" stroke="none"/>
    </g>
    <linearGradient gradientTransform="matrix(0.0135, 0.0132, -0.007, 0.0071, 6.35, 0.2)" gradientUnits="userSpaceOnUse" id="gradient0" spreadMethod="pad" x1="-819.2" x2="819.2">
      <stop offset="0.0" stop-color="#f4b000"/>
      <stop offset="1.0" stop-color="#e77607"/>
    </linearGradient>
  </defs>
</svg>
