<svg height="11" width="11" xmlns:xlink="http://www.w3.org/1999/xlink" xmlns="http://www.w3.org/2000/svg"><use height="17.6" transform="translate(-4.4 -3.65)" width="127.95" xlink:href="#a"/><defs><path d="M25 0q0 10.3-7.3 17.65Q10.35 25 0 25t-17.65-7.35Q-25 10.3-25 0q0-10.35 7.35-17.7Q-10.35-25.05 0-25q10.35-.05 17.7 7.3Q25-10.35 25 0" fill="#900" fill-rule="evenodd" transform="translate(25 25)" id="b"/><path d="m0 8.7 1.75-7.3h8.2l1.8 7.2L0 8.7" fill="#fff" fill-rule="evenodd" transform="translate(0 -1.4)" id="c"/><use height="50" width="50" xlink:href="#b" id="d"/><use height="7.3" width="11.75" xlink:href="#c" id="e"/><g id="a"><use height="17.15" transform="translate(0 .45)" width="127.95" xlink:href="#sprite0"/><use height="50" transform="matrix(.22 0 0 .22 4.4 3.65)" width="50" xlink:href="#d"/><use height="7.3" transform="rotate(-134.991 8.21 -.07) scale(.1 -1.4998)" width="11.75" xlink:href="#e"/><use height="7.3" transform="rotate(-45.009 9.731 -4.079) scale(.1 1.4998)" width="11.75" xlink:href="#e"/><use height="16.05" transform="translate(18.3)" width="105.7" xlink:href="#text0"/></g></defs></svg>