<svg xmlns="http://www.w3.org/2000/svg" xmlns:xlink="http://www.w3.org/1999/xlink" width="132.65" height="100.8"><g transform="translate(77.75 73.55)"><use xlink:href="#a" width="30.05" height="6.45" transform="translate(-15.05 -3.6)"/><use xlink:href="#b" width="48.5" height="35.95" transform="translate(-23.5 -22.35)"/><use xlink:href="#c" width="21.75" height="13.1" transform="translate(-10.65 -11.55)"/><use xlink:href="#d" width="3.05" height="11.35" transform="translate(6.3 7.8)"/></g><defs><g id="b" transform="translate(23.45 29.5)"><use xlink:href="#e" width="25.5" height="9.95" transform="matrix(.9409 0 0 1.309 -12.42 -6.57)"/><use xlink:href="#f" width="2.4" height="2.4" transform="translate(-22.35 -10.6)"/><use xlink:href="#f" width="2.4" height="2.4" transform="translate(-23.45 -17)"/><use xlink:href="#f" width="2.4" height="2.4" transform="translate(-13.55 -25.6)"/><use xlink:href="#f" width="2.4" height="2.4" transform="translate(1.45 -29.5)"/><use xlink:href="#f" width="2.4" height="2.4" transform="translate(4.45 -25.6)"/><use xlink:href="#f" width="2.4" height="2.4" transform="translate(15.05 -14.8)"/><use xlink:href="#f" width="2.4" height="2.4" transform="translate(22.65 -12.2)"/><use xlink:href="#f" width="2.4" height="2.4" transform="translate(20.45 -8.2)"/></g><g id="i"><path fill="#fff" fill-rule="evenodd" d="M21.25.75Q21.5 2 20.3 3.6h-1l-.4-.05V3.1l-.05-.5-.2-.55q-.2-.35-.7-.35-.55-.05-.8.35-.25.35-.35.85l-.05.55L6.5 4.1q-.65-.7-.95-2.75L18.4.5l2.85.25"/><path fill="#c00" fill-rule="evenodd" d="M6.6 7.4q5.85-2.7 12.85-.2L13.5 9.45 6.6 7.4"/><path fill-rule="evenodd" d="M5.55 1.35q.3 2.05.95 2.75l10.25-.65.05-.55q.1-.5.35-.85.25-.4.8-.35.5 0 .7.35l.2.55.05.5v.45l.4.05h1q1.2-1.6.95-2.85l2.3.25q4.25 2.1-4.1 6.2-7-2.5-12.85.2Q2.05 5.65.85 4.3q-1.2-1.4 2-2.5l2.7-.45"/><path fill="none" stroke="#333" stroke-linecap="round" stroke-linejoin="round" d="M21.25.75 18.4.5l-12.85.85-2.7.45q-3.2 1.1-2 2.5 1.2 1.35 5.75 3.1l6.9 2.05 5.95-2.25q8.35-4.1 4.1-6.2l-2.3-.25Z"/></g><g id="c" transform="translate(-1 .6)"><use xlink:href="#g" width="10.75" height="10.9" transform="rotate(180 5.875 5.15)"/><use xlink:href="#h" width="10.75" height="13" transform="translate(11.45 -.5)"/></g><g id="k"><path fill="#fff" fill-rule="evenodd" d="M8.85 1.95q1.4 1.45 1.4 3.5T8.85 9Q7.4 10.4 5.4 10.4q-2.05 0-3.45-1.4Q.5 7.5.5 5.45t1.45-3.5Q3.35.45 5.4.5q2-.05 3.45 1.45"/><path fill="none" stroke="#666" stroke-linecap="round" stroke-linejoin="round" d="M8.85 1.95q1.4 1.45 1.4 3.5T8.85 9Q7.4 10.4 5.4 10.4q-2.05 0-3.45-1.4Q.5 7.5.5 5.45t1.45-3.5Q3.35.45 5.4.5q2-.05 3.45 1.45Z"/><path fill="#900" fill-rule="evenodd" d="M7.95 7.4q-.4.4-.85.4-.5 0-.85-.4-.35-.45-.35-1.05 0-.6.35-1 .35-.45.85-.45.45 0 .85.45l.35 1-.35 1.05"/></g><g id="l"><path fill="#fff" fill-rule="evenodd" d="M8.85 2.25q1.4 1.75 1.4 4.25t-1.4 4.25Q7.4 12.5 5.4 12.5q-2.05 0-3.45-1.75Q.5 9 .5 6.5t1.45-4.25Q3.35.5 5.4.5q2 0 3.45 1.75"/><path fill="none" stroke="#666" stroke-linecap="round" stroke-linejoin="round" d="M8.85 2.25q1.4 1.75 1.4 4.25t-1.4 4.25Q7.4 12.5 5.4 12.5q-2.05 0-3.45-1.75Q.5 9 .5 6.5t1.45-4.25Q3.35.5 5.4.5q2 0 3.45 1.75Z"/><path fill-rule="evenodd" d="m5.4 6.4.2.5q.15.25.4.3l.4-.3.2-.5-.2-.65-.4-.2q-.25 0-.4.2l-.2.65m1-1.75q.65-.05 1.15.6.5.65.5 1.65 0 .95-.5 1.6-.5.65-1.15.65-.7 0-1.2-.65-.45-.65-.45-1.6 0-1 .45-1.65.5-.65 1.2-.6"/><path fill="#fff" fill-rule="evenodd" d="m5.4 6.4.2-.65q.15-.2.4-.2l.4.2.2.65-.2.5-.4.3q-.25-.05-.4-.3l-.2-.5"/></g><use xlink:href="#i" id="e" width="25.5" height="9.95"/><use xlink:href="#j" id="f" width="2.4" height="2.4"/><use xlink:href="#k" id="g" width="10.75" height="10.9"/><use xlink:href="#l" id="h" width="10.75" height="13"/><path id="a" fill="#6596cc" fill-opacity=".431" fill-rule="evenodd" d="M10.65-1.35Q14.95.9 15 2.1q0 1.15-3.9.5l-10-.95-11.15.7q-5 .9-5-.3 0-1.15 4.5-3.35 4.5-2.25 10.7-2.3 6.2-.05 10.5 2.25" transform="translate(15.05 3.6)"/><path id="j" fill="#fff" fill-rule="evenodd" d="M.85-.85q.35.35.35.85T.85.85Q.5 1.2 0 1.2T-.85.85Q-1.2.5-1.2 0t.35-.85Q-.5-1.2 0-1.2t.85.35" transform="translate(1.2 1.2)"/><path id="d" fill="#acc9e3" fill-rule="evenodd" d="M7.25 7.95H7.2q.1-.1.35-.15.55-.15.85 2.15l.75 4.65Q9.6 17 9 18.2q-.6 1.15-1.65.9-1.1-.3-.55-3.8.5-3.55-.5-5.65V9.4q0-.7.95-1.45" transform="translate(-6.3 -7.8)"/></defs></svg>