<svg xmlns="http://www.w3.org/2000/svg" xmlns:xlink="http://www.w3.org/1999/xlink" width="132.65" height="100.8"><g transform="translate(77.75 73.55)"><use xlink:href="#a" width="48.4" height="33.65" transform="translate(-21.95 -12.6)"/><use xlink:href="#b" width="14.05" height="7.15" transform="translate(-7.15 -8.45)"/></g><defs><path id="d" fill="#fff" fill-rule="evenodd" d="M.85-.85q.35.35.35.85T.85.85Q.5 1.2 0 1.2T-.85.85Q-1.2.5-1.2 0t.35-.85Q-.5-1.2 0-1.2t.85.35" transform="translate(1.2 1.2)"/><path id="b" fill="none" stroke="#666" stroke-linecap="round" stroke-linejoin="round" d="m6.4-1.8-.15-1.3-.45-1.85-.75-1.75-.9-1-1.05-.25-.7.85-.65 1.25-.35 1.2-.2 1.25v.45M-6.65-1.8l.05-.4q.15-2.05.75-3.6.75-2.2 1.9-2.15l.65.15q.75.45 1.3 2 .6 1.6.55 2.55" transform="translate(7.15 8.45)"/><use xlink:href="#c" id="e" width="23.25" height="18.35"/><use xlink:href="#d" id="f" width="2.4" height="2.4"/><g id="a" transform="translate(21.9 19.75)"><use xlink:href="#e" width="23.25" height="18.35" transform="translate(-11.45 -5.95)"/><use xlink:href="#f" width="2.4" height="2.4" transform="translate(-20.35 -17.6)"/><use xlink:href="#f" width="2.4" height="2.4" transform="translate(-17.45 -14.25)"/><use xlink:href="#f" width="2.4" height="2.4" transform="translate(-13.3 -15.35)"/><use xlink:href="#f" width="2.4" height="2.4" transform="translate(10.95 -13.25)"/><use xlink:href="#f" width="2.4" height="2.4" transform="translate(20.45 -15.35)"/><use xlink:href="#f" width="2.4" height="2.4" transform="translate(15.55 -15.55)"/><use xlink:href="#f" width="2.4" height="2.4" transform="translate(-15.35 -18.7)"/><use xlink:href="#f" width="2.4" height="2.4" transform="translate(15.45 -11.95)"/></g><g id="c"><path fill="#333" fill-rule="evenodd" d="M14.6 8.25q.9-.95.6-2.4-.45-2.35-2.55-1.6-.65.2-.35.95.45 1.2-.5 1.35-2.65.55-2.2-1.6.1-.6-.4-.6-2.35-.1-2.15 2.35.15 1.45.95 2.5l-.25.15Q6 10.6 6.5 13.1l-3.75.15Q.1 12.4.6 9.3 1.35 4.6 5.7 2q4.05-2.35 8.6-1 3.8.95 6.15 3.95 1.4 1.65 2.05 3.65.7 2-.4 3.6-.65.85-2.8.55l-2.2-.65q.25-.65 0-1.3-.65-1.85-2.5-2.55"/><path fill-rule="evenodd" d="m14.6 8.25-.05-.05-3.6-.25Q9.3 8.3 8 9.2q-.8-1.05-.95-2.5-.2-2.45 2.15-2.35.5 0 .4.6-.45 2.15 2.2 1.6.95-.15.5-1.35-.3-.75.35-.95 2.1-.75 2.55 1.6.3 1.45-.6 2.4"/><path fill="#c00" fill-rule="evenodd" d="M8 9.2q1.3-.9 2.95-1.25l3.6.25.05.05q1.85.7 2.5 2.55.25.65 0 1.3l-.75-.3q-4.6-1.6-9.05.9l-.8.4Q6 10.6 7.75 9.35L8 9.2"/><path fill="none" stroke="#333" stroke-linecap="round" stroke-linejoin="round" d="m6.5 13.1.8-.4q4.45-2.5 9.05-.9l.75.3 2.2.65q2.15.3 2.8-.55 1.1-1.6.4-3.6-.65-2-2.05-3.65-2.35-3-6.15-3.95Q9.75-.35 5.7 2 1.35 4.6.6 9.3q-.5 3.1 2.15 3.95l3.75-.15m7.45 1.35q.1 1.35 1.25 1.95m-3-2.45v3.9m-2.25-3.4q0 .9-.3 1.75"/></g></defs></svg>