<svg xmlns="http://www.w3.org/2000/svg" xmlns:xlink="http://www.w3.org/1999/xlink" width="132.65" height="100.8"><g transform="translate(77.75 73.55)"><use xlink:href="#a" width="25.5" height="9.95" transform="matrix(.6587 0 0 .9163 -8.694 4.146)"/><use xlink:href="#b" width="24.45" height="5.2" transform="translate(-12.25 -1.95)"/><use xlink:href="#c" width="7.25" height="9.9" transform="matrix(1.1 0 0 1.1 .7 -7.7)"/><use xlink:href="#c" width="7.25" height="9.9" transform="matrix(1.1 0 0 1.1 -9.05 -7.7)"/></g><defs><g id="i"><path fill="#fff" fill-rule="evenodd" d="M21.25.75Q21.5 2 20.3 3.6h-1l-.4-.05V3.1l-.05-.5-.2-.55q-.2-.35-.7-.35-.55-.05-.8.35-.25.35-.35.85l-.05.55L6.5 4.1q-.65-.7-.95-2.75L18.4.5l2.85.25"/><path fill="#c00" fill-rule="evenodd" d="M6.6 7.4q5.85-2.7 12.85-.2L13.5 9.45 6.6 7.4"/><path fill-rule="evenodd" d="M5.55 1.35q.3 2.05.95 2.75l10.25-.65.05-.55q.1-.5.35-.85.25-.4.8-.35.5 0 .7.35l.2.55.05.5v.45l.4.05h1q1.2-1.6.95-2.85l2.3.25q4.25 2.1-4.1 6.2-7-2.5-12.85.2Q2.05 5.65.85 4.3q-1.2-1.4 2-2.5l2.7-.45"/><path fill="none" stroke="#333" stroke-linecap="round" stroke-linejoin="round" d="M21.25.75 18.4.5l-12.85.85-2.7.45q-3.2 1.1-2 2.5 1.2 1.35 5.75 3.1l6.9 2.05 5.95-2.25q8.35-4.1 4.1-6.2l-2.3-.25Z"/></g><g id="c"><use xlink:href="#d" width="7.1" height="9.75" transform="translate(.15 .15)"/><use xlink:href="#e" width="3.5" height="4.95" transform="translate(.15 4.95)"/><use xlink:href="#f" width="4.05" height="4.9" transform="translate(3.2 5)"/><use xlink:href="#g" width="3.85" height="4.85" transform="translate(3.4 .15)"/><use xlink:href="#h" width="3.5" height="5.1"/></g><g id="e"><path fill="#f39" fill-rule="evenodd" d="M0 .3q0 1.9.9 3.25 1.05 1.35 2.5 1.4Q2.75.3.2.3H0"/><path fill="none" stroke="#000" stroke-linecap="round" stroke-linejoin="round" stroke-opacity="0" d="M0 .3h.2q2.55 0 3.2 4.65Q1.95 4.9.9 3.55 0 2.2 0 .3Z"/></g><g id="f"><path fill="#f39" fill-rule="evenodd" d="M.35 4.9h.1q1.4 0 2.55-1.4Q4 2.15 4.05.25.75.15.35 4.9"/><path fill="none" stroke="#000" stroke-linecap="round" stroke-linejoin="round" stroke-opacity="0" d="M.35 4.9Q.75.15 4.05.25 4 2.15 3 3.5 1.85 4.9.45 4.9h-.1Z"/></g><g id="g"><path fill="#f39" fill-rule="evenodd" d="M.15 0q.05 4.45 3.7 4.85 0-2.15-1.05-3.55Q1.65-.1.25 0h-.1"/><path fill="none" stroke="#000" stroke-linecap="round" stroke-linejoin="round" stroke-opacity="0" d="M.15 0h.1q1.4-.1 2.55 1.3 1.05 1.4 1.05 3.55Q.2 4.45.15 0Z"/></g><g id="h"><path fill="#f39" fill-rule="evenodd" d="M0 4.9v.2L.2 5q3.2-.7 3.2-5Q1.95-.05.95 1.3 0 2.7 0 4.9"/><path fill="none" stroke="#000" stroke-linecap="round" stroke-linejoin="round" stroke-opacity="0" d="M0 4.9q0-2.2.95-3.6Q1.95-.05 3.4 0q0 4.3-3.2 5l-.2.1v-.2Z"/></g><path id="b" fill="red" fill-opacity=".4" fill-rule="evenodd" d="M8.65-.15q3.5 1.8 3.55 2.8 0 .95-3.15.4L.9 2.3l-9.05.55-4.1-.2q0-.95 3.7-2.75Q-4.9-1.95.15-1.95q5-.05 8.5 1.8" transform="translate(12.25 1.95)"/><path id="d" fill="#fff" fill-rule="evenodd" d="M6.2 1.45q1 1.35 1.05 3.45V5Q7.2 7.15 6.2 8.45q-1.15 1.4-2.55 1.4h-.1v.05q-1.45-.05-2.5-1.4-.9-1.35-.9-3.25v-.2q0-2.2.95-3.6Q2.1.1 3.55.15h.1q1.4-.1 2.55 1.3" transform="translate(-.15 -.15)"/><use xlink:href="#i" id="a" width="25.5" height="9.95"/></defs></svg>