<svg xmlns:xlink="http://www.w3.org/1999/xlink" height="100.8" width="132.65" xmlns="http://www.w3.org/2000/svg"><use height="15.4" transform="translate(65.5 65.85)" width="24.45" xlink:href="#a"/><defs><g id="a"><path d="m8.05-.45.6.3q3.5 1.8 3.55 2.8 0 .95-3.15.4l-4.2-.5q1.3-.2 2.3-1.4l.9-1.6m-4.7 2.9L.9 2.3h-3.7l1.3-1.1Q-.45-.15-.35-1.95H.4Q.5-.2 1.55 1.15q.75.95 1.8 1.3m-8.75 0-2.75.4-4.1-.2q0-.95 3.7-2.75L-8-.4q.3.9.9 1.6.75.95 1.7 1.25" fill="#6596cc" fill-opacity=".431" fill-rule="evenodd" transform="translate(12.25 7.7)"/><path d="M.4-1.95v-.35Q.35-4.35 1.55-5.75q1.1-1.45 2.8-1.45 1.65 0 2.8 1.45Q8.3-4.35 8.3-2.3L8.05-.45l-.9 1.6q-1 1.2-2.3 1.4l-.5.05-1-.15q-1.05-.35-1.8-1.3Q.5-.2.4-1.95M-2.8 2.3l-1.5.35-1.1-.2q-.95-.3-1.7-1.25Q-7.7.5-8-.4q-.3-.85-.25-1.85-.05-2 1.15-3.45Q-6-7.15-4.3-7.15q1.65 0 2.8 1.45t1.15 3.45v.3Q-.45-.15-1.5 1.2l-1.3 1.1" fill="#fff" fill-rule="evenodd" transform="translate(12.25 7.7)"/><path d="M-3.45 4.75.1 7.2l3.4-2.3" fill="none" stroke="#333" stroke-linecap="round" stroke-linejoin="round" transform="translate(12.25 7.7)"/><path d="m4.85 2.55-.5.05-1-.15q-1.05-.35-1.8-1.3Q.5-.2.4-1.95m7.65 1.5-.9 1.6q-1 1.2-2.3 1.4M-2.8 2.3l-1.5.35-1.1-.2q-.95-.3-1.7-1.25Q-7.7.5-8-.4m5.2 2.7 1.3-1.1Q-.45-.15-.35-1.95M-8-.4q-.3-.85-.25-1.85-.05-2 1.15-3.45Q-6-7.15-4.3-7.15q1.65 0 2.8 1.45t1.15 3.45v.3m.75 0v-.35Q.35-4.35 1.55-5.75q1.1-1.45 2.8-1.45 1.65 0 2.8 1.45Q8.3-4.35 8.3-2.3L8.05-.45" fill="none" stroke="#666" stroke-linecap="round" stroke-linejoin="round" transform="translate(12.25 7.7)"/><path d="M2.75-5.75q.55-.05.95.45.4.55.4 1.35t-.4 1.3q-.4.55-.95.55-.55 0-.95-.55-.4-.5-.4-1.3t.4-1.35q.4-.5.95-.45m0 .9-.3-.2q-.2 0-.35.2l-.15.5q0 .25.15.4l.35.25.3-.25.15-.4-.15-.5" fill-rule="evenodd" transform="translate(12.25 7.7)"/><path d="m2.75-4.85.15.5-.15.4-.3.25-.35-.25q-.15-.15-.15-.4l.15-.5q.15-.2.35-.2l.3.2" fill="#fff" fill-rule="evenodd" transform="translate(12.25 7.7)"/><path d="m-6.2-5.05-.35.2-.15.5.15.4.35.25.3-.25q.15-.15.15-.4l-.15-.5q-.1-.2-.3-.2m-1.05 1.1q0-.8.4-1.35.4-.5.95-.45.55-.05.95.45.4.55.4 1.35t-.4 1.3q-.4.55-.95.55-.55 0-.95-.55-.4-.5-.4-1.3" fill-rule="evenodd" transform="translate(12.25 7.7)"/><path d="M-6.2-5.05q.2 0 .3.2l.15.5q0 .25-.15.4l-.3.25-.35-.25-.15-.4.15-.5.35-.2" fill="#fff" fill-rule="evenodd" transform="translate(12.25 7.7)"/></g></defs></svg>