<svg xmlns="http://www.w3.org/2000/svg" xmlns:xlink="http://www.w3.org/1999/xlink" width="132.65" height="100.8"><use xlink:href="#a" width="24.45" height="19.75" transform="translate(65.5 65.85)"/><defs><g id="a"><path fill="#fff" fill-rule="evenodd" d="M13.8 1.95Q14.9.5 16.6.5q1.65 0 2.8 1.45 1.15 1.4 1.15 3.45l-.25 1.85-.9 1.6q-1 1.2-2.3 1.4l-.5.05-1-.15q-1.05-.35-1.8-1.3-1.05-1.35-1.15-3.1V5.4q-.05-2.05 1.15-3.45M10.75 2q1.15 1.45 1.15 3.45v.3q-.1 1.8-1.15 3.15L9.45 10l-1.5.35-1.1-.2q-.95-.3-1.7-1.25-.6-.7-.9-1.6-.3-.85-.25-1.85-.05-2 1.15-3.45Q6.25.55 7.95.55 9.6.55 10.75 2"/><path fill="none" stroke="#666" stroke-linecap="round" stroke-linejoin="round" d="M13.8 1.95Q14.9.5 16.6.5q1.65 0 2.8 1.45 1.15 1.4 1.15 3.45l-.25 1.85-.9 1.6q-1 1.2-2.3 1.4l-.5.05-1-.15q-1.05-.35-1.8-1.3-1.05-1.35-1.15-3.1V5.4q-.05-2.05 1.15-3.45M10.75 2q1.15 1.45 1.15 3.45v.3q-.1 1.8-1.15 3.15L9.45 10l-1.5.35-1.1-.2q-.95-.3-1.7-1.25-.6-.7-.9-1.6-.3-.85-.25-1.85-.05-2 1.15-3.45Q6.25.55 7.95.55 9.6.55 10.75 2"/><path fill-rule="evenodd" d="M15.4 4.05q.55-.05.95.45.4.55.4 1.35t-.4 1.3q-.4.55-.95.55-.55 0-.95-.55-.4-.5-.4-1.3t.4-1.35q.4-.5.95-.45m-.8 1.4q0 .25.15.4.15.2.35.25l.3-.25.15-.4-.15-.5-.3-.2q-.2 0-.35.2l-.15.5"/><path fill="#fff" fill-rule="evenodd" d="m14.6 5.45.15-.5q.15-.2.35-.2l.3.2.15.5-.15.4-.3.25q-.2-.05-.35-.25-.15-.15-.15-.4"/><path fill-rule="evenodd" d="M8.1 4.5q.4-.5.95-.45.55-.05.95.45.4.55.4 1.35t-.4 1.3q-.4.55-.95.55-.55 0-.95-.55-.4-.5-.4-1.3t.4-1.35m.95 1.35q.15-.15.15-.4l-.15-.5q-.1-.2-.3-.2l-.35.2-.15.5.15.4.35.25.3-.25"/><path fill="#fff" fill-rule="evenodd" d="m9.05 5.85-.3.25-.35-.25-.15-.4.15-.5.35-.2q.2 0 .3.2l.15.5q0 .25-.15.4"/><path fill-rule="evenodd" d="M6.75 12.2v2.25l10.9-1.1v-1.9l1.4.15q1.15 2.3-2.95 6.5-2.7-3.4-6-1.25l-1.8 1.3q-2.5-1.9-3.05-3.35-.55-1.5.7-2.4l.8-.2"/><path fill="#c00" fill-rule="evenodd" d="m8.3 18.15 1.8-1.3q3.3-2.15 6 1.25-1.45 1.05-3.3 1.15-2.15 0-4.5-1.1"/><path fill="#fff" fill-rule="evenodd" d="M17.65 11.45v1.9l-10.9 1.1V12.2l10.9-.75"/><path fill="none" stroke="#333" stroke-linecap="round" stroke-linejoin="round" d="m6.75 12.2-.8.2q-1.25.9-.7 2.4.55 1.45 3.05 3.35 2.35 1.1 4.5 1.1 1.85-.1 3.3-1.15 4.1-4.2 2.95-6.5l-1.4-.15-10.9.75Z"/><path fill="#6596cc" fill-opacity=".431" fill-rule="evenodd" d="M20.9 7.55q3.5 1.8 3.55 2.8 0 .95-3.15.4l-4.2-.5q1.3-.2 2.3-1.4l.9-1.6.6.3m-8.25-1.8q.1 1.75 1.15 3.1.75.95 1.8 1.3L13.15 10h-3.7l1.3-1.1q1.05-1.35 1.15-3.15h.75M4.25 7.3q.3.9.9 1.6.75.95 1.7 1.25l-2.75.4-4.1-.2Q0 9.4 3.7 7.6l.55-.3"/></g></defs></svg>