<svg xmlns="http://www.w3.org/2000/svg" xmlns:xlink="http://www.w3.org/1999/xlink" width="132.65" height="100.8"><use xlink:href="#a" width="24.45" height="15.4" transform="translate(65.5 65.85)"/><defs><g id="a"><path fill="#fff" fill-rule="evenodd" d="m17.1 10.25-.5.05-1-.15q-1.05-.35-1.8-1.3-1.05-1.35-1.15-3.1V5.4q-.05-2.05 1.15-3.45Q14.9.5 16.6.5q1.65 0 2.8 1.45 1.15 1.4 1.15 3.45l-.25 1.85-.9 1.6q-1 1.2-2.3 1.4M9.45 10l-1.5.35-1.1-.2q-.95-.3-1.7-1.25-.6-.7-.9-1.6-.3-.85-.25-1.85-.05-2 1.15-3.45Q6.25.55 7.95.55 9.6.55 10.75 2t1.15 3.45v.3q-.1 1.8-1.15 3.15L9.45 10"/><path fill="#6596cc" fill-opacity=".431" fill-rule="evenodd" d="m20.3 7.25.6.3q3.5 1.8 3.55 2.8 0 .95-3.15.4l-4.2-.5q1.3-.2 2.3-1.4l.9-1.6m-4.7 2.9L13.15 10h-3.7l1.3-1.1q1.05-1.35 1.15-3.15h.75q.1 1.75 1.15 3.1.75.95 1.8 1.3m-8.75 0-2.75.4-4.1-.2Q0 9.4 3.7 7.6l.55-.3q.3.9.9 1.6.75.95 1.7 1.25"/><path fill="none" stroke="#666" stroke-linecap="round" stroke-linejoin="round" d="m17.1 10.25-.5.05-1-.15q-1.05-.35-1.8-1.3-1.05-1.35-1.15-3.1V5.4q-.05-2.05 1.15-3.45Q14.9.5 16.6.5q1.65 0 2.8 1.45 1.15 1.4 1.15 3.45l-.25 1.85-.9 1.6q-1 1.2-2.3 1.4M9.45 10l-1.5.35-1.1-.2q-.95-.3-1.7-1.25-.6-.7-.9-1.6-.3-.85-.25-1.85-.05-2 1.15-3.45Q6.25.55 7.95.55 9.6.55 10.75 2t1.15 3.45v.3q-.1 1.8-1.15 3.15L9.45 10"/><path fill="none" stroke="#333" stroke-linecap="round" stroke-linejoin="round" d="m8.8 12.45 3.55 2.45 3.4-2.3"/><path fill-rule="evenodd" d="m18.2 2.65-.35.2-.15.5q0 .25.15.4l.35.25.3-.25.15-.4-.15-.5q-.1-.2-.3-.2m-.65-.25q.4-.5.95-.45.55-.05.95.45.4.55.4 1.35t-.4 1.3q-.4.55-.95.55-.55 0-.95-.55-.4-.5-.4-1.3t.4-1.35"/><path fill="#fff" fill-rule="evenodd" d="M18.2 2.65q.2 0 .3.2l.15.5-.15.4-.3.25-.35-.25q-.15-.15-.15-.4l.15-.5.35-.2"/><path fill-rule="evenodd" d="M9.85 1.95q.55-.05.95.45.4.55.4 1.35t-.4 1.3q-.4.55-.95.55-.55 0-.95-.55-.4-.5-.4-1.3t.4-1.35q.4-.5.95-.45m0 .9q-.1-.2-.3-.2l-.35.2-.15.5.15.4.35.25.3-.25q.15-.15.15-.4 0-.3-.15-.5"/><path fill="#fff" fill-rule="evenodd" d="M9.85 2.85q.15.2.15.5 0 .25-.15.4l-.3.25-.35-.25-.15-.4.15-.5.35-.2q.2 0 .3.2"/></g></defs></svg>