<svg xmlns="http://www.w3.org/2000/svg" xmlns:xlink="http://www.w3.org/1999/xlink" width="132.65" height="100.8"><use xlink:href="#a" width="24.45" height="14.45" transform="translate(65.5 66.3)"/><defs><g id="a"><path fill-rule="evenodd" d="M14.95 4q.4-.55.95-.5.55-.05.95.5.4.5.4 1.35 0 .75-.4 1.3-.4.5-.95.5-.55 0-.95-.5-.4-.55-.35-1.3-.05-.85.35-1.35m.65 1.55.3-.2.2-.45-.2-.5-.3-.15q-.25-.05-.35.15l-.15.5q0 .25.15.45l.35.2"/><path fill="#fff" fill-rule="evenodd" d="M14.95 4q-.4.5-.35 1.35-.05.75.35 1.3.4.5.95.5.55 0 .95-.5.4-.55.4-1.3 0-.85-.4-1.35-.4-.55-.95-.5-.55-.05-.95.5m-2.3 1.3v-.35Q12.6 2.9 13.8 1.5 14.9.05 16.1.75q1.2.65 2.35 2.1L20.1 5.1q.45.8.2 1.7l-.9 1.6q-1 1.2-2.3 1.4l-.5.05-1-.15q-1.05-.35-1.8-1.3-1.05-1.35-1.15-3.1m-3.2 4.25-1.5.35-1.1-.2q-.95-.3-1.7-1.25-.6-.7-.9-1.6Q4 6 4.4 5.2L6 2.85q1.1-1.5 2.35-2.1 1.25-.65 2.4.8Q11.9 3 11.9 5v.3q-.1 1.8-1.15 3.15l-1.3 1.1m6.15-4-.35-.2q-.15-.2-.15-.45l.15-.5q.1-.2.35-.15l.3.15.2.5-.2.45-.3.2"/><path fill-opacity=".153" fill-rule="evenodd" d="M11.9 5.3h.75q.1 1.75 1.15 3.1.75.95 1.8 1.3l-2.45-.15h-3.7l1.3-1.1Q11.8 7.1 11.9 5.3m8.4 1.5.6.3q3.5 1.8 3.55 2.8 0 .95-3.15.4l-4.2-.5q1.3-.2 2.3-1.4l.9-1.6M6.85 9.7l-2.75.4L0 9.9q0-.95 3.7-2.75l.55-.3q.3.9.9 1.6.75.95 1.7 1.25"/><path fill="none" stroke="#666" stroke-linecap="round" stroke-linejoin="round" d="M12.65 5.3v-.35Q12.6 2.9 13.8 1.5 14.9.05 16.1.75q1.2.65 2.35 2.1L20.1 5.1q.45.8.2 1.7l-.9 1.6q-1 1.2-2.3 1.4l-.5.05-1-.15q-1.05-.35-1.8-1.3-1.05-1.35-1.15-3.1m-3.2 4.25-1.5.35-1.1-.2q-.95-.3-1.7-1.25-.6-.7-.9-1.6Q4 6 4.4 5.2L6 2.85q1.1-1.5 2.35-2.1 1.25-.65 2.4.8Q11.9 3 11.9 5v.3q-.1 1.8-1.15 3.15l-1.3 1.1m9.15 4.4q-4.65-4.3-10-1.7-1.4.6-2.65 1.45"/><path fill-rule="evenodd" d="M8.75 3.5q.55-.05.95.45.4.55.4 1.35t-.4 1.3q-.4.55-.95.55-.55 0-.95-.55-.4-.5-.4-1.3t.4-1.35q.4-.5.95-.45m.15 1.4-.15-.5q-.1-.2-.3-.2-.2 0-.35.2l-.15.5.15.4.35.25q.2-.05.3-.25.15-.15.15-.4"/><path fill="#fff" fill-rule="evenodd" d="M8.9 4.9q0 .25-.15.4-.1.2-.3.25L8.1 5.3l-.15-.4.15-.5q.15-.2.35-.2.2 0 .3.2l.15.5"/></g></defs></svg>