<svg xmlns="http://www.w3.org/2000/svg" xmlns:xlink="http://www.w3.org/1999/xlink" width="132.65" height="100.8"><use xlink:href="#a" width="25.55" height="30.3" transform="translate(65.9 58.85)"/><defs><g id="a"><path fill="none" stroke="#666" stroke-linecap="round" stroke-linejoin="round" d="M18.15 3.75v15.9m-2.5-16.9v15.9M20.15.5v17.9m4.9-14.65V17.4M13.4 5v11.9m9.15-14.65v17.9"/><path fill="#666" fill-rule="evenodd" d="m12.95 17.75-8.55.5-3.85-.2q0-.9 3.45-2.6 3.45-1.7 8.25-1.75 4.7 0 8.05 1.75 3.3 1.7 3.3 2.65 0 .85-2.95.35l-7.7-.7"/><path fill-rule="evenodd" d="m17.95 17.2-.95.3h-.15l-.35.05-1-.15-.75-.35q.95-1.45 1.85-1.4.85.05 1.35 1.55m-8.7-.3q-1.2.7-2 .7l-1-.15-.1-.05q.25-1.45 1.4-1.65 1.05-.2 1.7 1.15"/><path fill="#fff" fill-rule="evenodd" d="M12.75 14.35h7.5l-.05.15-.05.1-.85 1.5-.15.2q-.55.6-1.2.9-.5-1.5-1.35-1.55-.9-.05-1.85 1.4l-.75-.6-.3-.35q-.65-.8-.95-1.75m-1.75 0q-.3 1-.95 1.8l-.05.05-1.25 1.05.5-.35q-.65-1.35-1.7-1.15-1.15.2-1.4 1.65-.9-.3-1.65-1.15l-.05-.1-.85-1.45-.05-.15-.05-.2H11"/><path fill="none" stroke="#666" stroke-linecap="round" stroke-linejoin="round" d="M20.25 14.35H24m-11.25 0h7.5m-7.5 0H.5m19.75 0-.05.15-.05.1-.85 1.5-.15.2q-.55.6-1.2.9l-.95.3h-.15l-.35.05-1-.15-.75-.35-.75-.6-.3-.35q-.65-.8-.95-1.75m-1.75 0q-.3 1-.95 1.8l-.05.05-1.25 1.05.5-.35q-1.2.7-2 .7l-1-.15-.1-.05q-.9-.3-1.65-1.15l-.05-.1-.85-1.45-.05-.15-.05-.2"/><path fill="none" stroke="#000" stroke-linecap="round" stroke-linejoin="round" d="M19.3 24.2h-5.35l-.55.55q-.55.4-1.4.4-.85 0-1.45-.4l-.45-.55H4.45"/><path fill="none" stroke="#666" stroke-linecap="round" stroke-linejoin="round" d="M11.9 25.9v3.9m1.75-3.4q.1 1.35 1.25 1.95M9.65 26.4q0 .9-.3 1.75"/></g></defs></svg>