<svg xmlns="http://www.w3.org/2000/svg" xmlns:xlink="http://www.w3.org/1999/xlink" width="132.65" height="100.8"><g transform="translate(77.75 73.55)"><use xlink:href="#a" width="24.45" height="10.5" transform="translate(-12.25 -7.25)"/><use xlink:href="#b" width="25.5" height="9.95" transform="matrix(.7622 0 0 .9477 -9.56 3.379)"/><use xlink:href="#c" width="2.7" height="3.65" transform="translate(-4.85 -3.75)"/></g><defs><g id="a"><path fill="#fff" fill-rule="evenodd" d="M14.95 4q-.4.5-.35 1.35-.05.75.35 1.3.4.5.95.5.55 0 .95-.5.4-.55.4-1.3 0-.85-.4-1.35-.4-.55-.95-.5-.55-.05-.95.5m-2.3.95Q12.6 2.9 13.8 1.5 14.9.05 16.1.75q1.2.65 2.35 2.1L20.1 5.1q.45.8.2 1.7l-.9 1.6q-1 1.2-2.3 1.4l-.5.05-1-.15q-1.05-.35-1.8-1.3-1.05-1.35-1.15-3.1v-.35m2.6.4q-.15-.2-.15-.45l.15-.5q.1-.2.35-.15l.3.15.2.5-.2.45-.3.2-.35-.2M11.9 5.3q-.1 1.8-1.15 3.15l-1.3 1.1-1.5.35-1.1-.2q-.95-.3-1.7-1.25-.6-.7-.9-1.6Q4 6 4.4 5.2L6 2.85q1.1-1.5 2.35-2.1 1.25-.65 2.4.8Q11.9 3 11.9 5v.3"/><path fill-rule="evenodd" d="M14.95 4q.4-.55.95-.5.55-.05.95.5.4.5.4 1.35 0 .75-.4 1.3-.4.5-.95.5-.55 0-.95-.5-.4-.55-.35-1.3-.05-.85.35-1.35m.3 1.35.35.2.3-.2.2-.45-.2-.5-.3-.15q-.25-.05-.35.15l-.15.5q0 .25.15.45"/><path fill="none" stroke="#666" stroke-linecap="round" stroke-linejoin="round" d="M12.65 4.95Q12.6 2.9 13.8 1.5 14.9.05 16.1.75q1.2.65 2.35 2.1L20.1 5.1q.45.8.2 1.7l-.9 1.6q-1 1.2-2.3 1.4l-.5.05-1-.15q-1.05-.35-1.8-1.3-1.05-1.35-1.15-3.1v-.35m-.75.35q-.1 1.8-1.15 3.15l-1.3 1.1-1.5.35-1.1-.2q-.95-.3-1.7-1.25-.6-.7-.9-1.6Q4 6 4.4 5.2L6 2.85q1.1-1.5 2.35-2.1 1.25-.65 2.4.8Q11.9 3 11.9 5v.3"/><path fill="#6596cc" fill-opacity=".431" fill-rule="evenodd" d="M12.65 5.3q.1 1.75 1.15 3.1.75.95 1.8 1.3l-2.45-.15h-3.7l1.3-1.1Q11.8 7.1 11.9 5.3h.75m8.25 1.8q3.5 1.8 3.55 2.8 0 .95-3.15.4l-4.2-.5q1.3-.2 2.3-1.4l.9-1.6.6.3M4.25 6.85q.3.9.9 1.6.75.95 1.7 1.25l-2.75.4L0 9.9q0-.95 3.7-2.75l.55-.3"/></g><g id="d"><path fill="#fff" fill-rule="evenodd" d="M21.25.75Q21.5 2 20.3 3.6h-1l-.4-.05V3.1l-.05-.5-.2-.55q-.2-.35-.7-.35-.55-.05-.8.35-.25.35-.35.85l-.05.55L6.5 4.1q-.65-.7-.95-2.75L18.4.5l2.85.25"/><path fill="#c00" fill-rule="evenodd" d="M6.6 7.4q5.85-2.7 12.85-.2L13.5 9.45 6.6 7.4"/><path fill-rule="evenodd" d="M5.55 1.35q.3 2.05.95 2.75l10.25-.65.05-.55q.1-.5.35-.85.25-.4.8-.35.5 0 .7.35l.2.55.05.5v.45l.4.05h1q1.2-1.6.95-2.85l2.3.25q4.25 2.1-4.1 6.2-7-2.5-12.85.2Q2.05 5.65.85 4.3q-1.2-1.4 2-2.5l2.7-.45"/><path fill="none" stroke="#333" stroke-linecap="round" stroke-linejoin="round" d="M21.25.75 18.4.5l-12.85.85-2.7.45q-3.2 1.1-2 2.5 1.2 1.35 5.75 3.1l6.9 2.05 5.95-2.25q8.35-4.1 4.1-6.2l-2.3-.25Z"/></g><g id="c" fill-rule="evenodd"><path d="M1.35 0q.55-.05.95.45.4.55.4 1.35t-.4 1.3q-.4.55-.95.55-.55 0-.95-.55Q0 2.6 0 1.8T.4.45q.4-.5.95-.45m.15 1.4L1.35.9q-.1-.2-.3-.2Q.85.7.7.9l-.15.5.15.4.35.25q.2-.05.3-.25.15-.15.15-.4"/><path fill="#fff" d="M1.5 1.4q0 .25-.15.4-.1.2-.3.25L.7 1.8l-.15-.4L.7.9q.15-.2.35-.2.2 0 .3.2l.15.5"/></g><use xlink:href="#d" id="b" width="25.5" height="9.95"/></defs></svg>