<svg xmlns="http://www.w3.org/2000/svg" xmlns:xlink="http://www.w3.org/1999/xlink" width="132.65" height="100.8"><g transform="translate(77.75 73.55)"><use xlink:href="#a" width="24.45" height="7.5" transform="translate(-12.25 -5.6)"/><use xlink:href="#b" width="10.75" height="13" transform="translate(-8.589 -8.783) scale(.8127)"/><use xlink:href="#c" width="15.2" height="8.8" transform="translate(-7.65 2.75)"/><use xlink:href="#d" width="19.95" height="24.6" transform="translate(8.4 -21.95)"/></g><defs><g id="a"><path fill-opacity=".153" fill-rule="evenodd" d="m12.6 4.25.6.05 5.45.7q2.5.5 5.1 1.4l.7.85-3.15.25-1.7-.15-2.5-.2L13.15 7l-6.3.1-2.5.25H4.1l-.6.1-3.45-.1L0 7.2q0-.7 2.35-1.6l3.15-.75.05-.05L11 4.25h1.6"/><path fill="none" stroke="#666" stroke-linecap="round" stroke-linejoin="round" d="m20.25.7-.9-.15q-3.1-.45-4.8 1.9l.15-.1q2-.95 4.25.25l.65.4"/></g><g id="e"><path fill="#fff" fill-rule="evenodd" d="M8.85 2.25q1.4 1.75 1.4 4.25t-1.4 4.25Q7.4 12.5 5.4 12.5q-2.05 0-3.45-1.75Q.5 9 .5 6.5t1.45-4.25Q3.35.5 5.4.5q2 0 3.45 1.75"/><path fill="none" stroke="#666" stroke-linecap="round" stroke-linejoin="round" d="M8.85 2.25q1.4 1.75 1.4 4.25t-1.4 4.25Q7.4 12.5 5.4 12.5q-2.05 0-3.45-1.75Q.5 9 .5 6.5t1.45-4.25Q3.35.5 5.4.5q2 0 3.45 1.75Z"/><path fill-rule="evenodd" d="m5.4 6.4.2.5q.15.25.4.3l.4-.3.2-.5-.2-.65-.4-.2q-.25 0-.4.2l-.2.65m1-1.75q.65-.05 1.15.6.5.65.5 1.65 0 .95-.5 1.6-.5.65-1.15.65-.7 0-1.2-.65-.45-.65-.45-1.6 0-1 .45-1.65.5-.65 1.2-.6"/><path fill="#fff" fill-rule="evenodd" d="m5.4 6.4.2-.65q.15-.2.4-.2l.4.2.2.65-.2.5-.4.3q-.25-.05-.4-.3l-.2-.5"/></g><g id="c"><path fill="#fff" fill-rule="evenodd" d="M2.15 1.25 13.05.5v1.9L2.15 3.5V1.25"/><path fill-rule="evenodd" d="M3.7 7.2Q1.2 5.3.65 3.85q-.55-1.5.7-2.4l.8-.2V3.5l10.9-1.1V.5l1.4.15q1.15 2.3-2.95 6.5-2.7-3.4-6-1.25L3.7 7.2"/><path fill="#c00" fill-rule="evenodd" d="M11.5 7.15Q10.05 8.2 8.2 8.3q-2.15 0-4.5-1.1l1.8-1.3q3.3-2.15 6 1.25"/><path fill="none" stroke="#333" stroke-linecap="round" stroke-linejoin="round" d="M11.5 7.15Q10.05 8.2 8.2 8.3q-2.15 0-4.5-1.1Q1.2 5.3.65 3.85q-.55-1.5.7-2.4l.8-.2L13.05.5l1.4.15q1.15 2.3-2.95 6.5Z"/></g><g id="g" fill-rule="evenodd"><path fill="#600" d="m8.8 4.45 4.4.65L10 8.15l.75 4.35-3.9-2.05L2.9 12.5l.75-4.35L.5 5.1l4.35-.65 2-3.95L8.8 4.45"/><path fill="#fc0" d="M12.7 4.6 9.5 7.65l.75 4.35-3.9-2.05L2.4 12l.75-4.35L0 4.6l4.35-.65 2-3.95L8.3 3.95l4.4.65"/></g><use xlink:href="#e" id="b" width="10.75" height="13"/><use xlink:href="#f" id="d" width="13.2" height="12.5" transform="matrix(.0379 0 0 .0423 14.709 19.746)"/><use xlink:href="#g" id="f" width="13.2" height="12.5"/></defs></svg>