<?xml version="1.0" encoding="UTF-8" standalone="no"?>
<svg
   height="19.267431"
   width="19.0464"
   version="1.1"
   id="svg1356"
   sodipodi:docname="pause.svg"
   inkscape:version="1.1.2 (0a00cf5339, 2022-02-04)"
   xmlns:inkscape="http://www.inkscape.org/namespaces/inkscape"
   xmlns:sodipodi="http://sodipodi.sourceforge.net/DTD/sodipodi-0.dtd"
   xmlns:xlink="http://www.w3.org/1999/xlink"
   xmlns="http://www.w3.org/2000/svg"
   xmlns:svg="http://www.w3.org/2000/svg">
  <sodipodi:namedview
     id="namedview1358"
     pagecolor="#505050"
     bordercolor="#eeeeee"
     borderopacity="1"
     inkscape:pageshadow="0"
     inkscape:pageopacity="0"
     inkscape:pagecheckerboard="0"
     showgrid="false"
     inkscape:current-layer="svg1356" />
  <g
     transform="translate(1.9673,1.7383304)"
     id="g1318">
    <use
       height="25.1"
       transform="matrix(0.768,0,0,0.768,-1.9673,-1.7477)"
       width="24.799999"
       xlink:href="#sprite0"
       id="use1314"
       x="0"
       y="0" />
    <use
       height="8.75"
       transform="translate(3.5,3.5)"
       width="8.5"
       xlink:href="#shape2"
       id="use1316"
       x="0"
       y="0" />
  </g>
  <defs
     id="defs1354">
    <g
       id="sprite0"
       transform="translate(-4.6,-4.3)">
      <use
         height="24.75"
         transform="translate(4.6,4.65)"
         width="24.799999"
         xlink:href="#shape0"
         id="use1320"
         x="0"
         y="0" />
      <use
         height="50"
         transform="matrix(-0.24,0,0,0.24,28.0998,4.3122)"
         width="50"
         xlink:href="#sprite1"
         id="use1322"
         x="0"
         y="0" />
    </g>
    <g
       id="shape0"
       transform="translate(-4.6,-4.65)">
      <path
         d="m 4.6,17.05 q 0,-5.15 3.65,-8.8 3.6,-3.65 8.75,-3.6 5.15,-0.05 8.8,3.6 3.6,3.65 3.6,8.8 0,5.1 -3.6,8.75 -3.65,3.6 -8.8,3.6 -5.15,0 -8.75,-3.6 Q 4.6,22.15 4.6,17.05"
         fill="url(#gradient0)"
         fill-rule="evenodd"
         stroke="none"
         id="path1325" />
      <path
         d="M 10.3,23.75 Q 7.5,20.95 7.5,17 q 0,-4 2.8,-6.75 2.8,-2.8 6.75,-2.8 3.95,0 6.75,2.8 2.8,2.8 2.85,6.75 -0.05,3.95 -2.85,6.75 -2.8,2.8 -6.75,2.8 -3.95,0 -6.75,-2.8"
         fill="url(#gradient1)"
         fill-rule="evenodd"
         stroke="none"
         id="path1327" />
    </g>
    <linearGradient
       gradientTransform="matrix(-0.0131,0.0068,-0.0054,-0.0104,-154.8,-314.95)"
       gradientUnits="userSpaceOnUse"
       id="gradient0"
       spreadMethod="pad"
       x1="-819.20001"
       x2="819.20001">
      <stop
         offset="0.0"
         stop-color="#8f0149"
         id="stop1330" />
      <stop
         offset="1.0"
         stop-color="#ff3399"
         id="stop1332" />
    </linearGradient>
    <linearGradient
       gradientTransform="matrix(-0.0035,0.0108,-0.0086,-0.0027,-257.75,-70.4)"
       gradientUnits="userSpaceOnUse"
       id="gradient1"
       spreadMethod="pad"
       x1="-819.20001"
       x2="819.20001">
      <stop
         offset="0.0"
         stop-color="#ff8ac5"
         id="stop1335" />
      <stop
         offset="1.0"
         stop-color="#ffffff"
         id="stop1337" />
    </linearGradient>
    <g
       id="sprite1"
       transform="translate(25,24.95)">
      <use
         height="50"
         transform="translate(-25,-24.95)"
         width="50"
         xlink:href="#shape1"
         id="use1340"
         x="0"
         y="0" />
    </g>
    <g
       id="shape1"
       transform="translate(25,24.95)">
      <path
         d="m 0,-24.95 q 10.3,0 17.6,7.3 7.35,7.35 7.4,17.7 -0.05,10.3 -7.4,17.6 Q 10.3,25 0,25.05 -10.35,25 -17.7,17.65 -25,10.35 -25,0.05 q 0,-10.35 7.3,-17.7 7.35,-7.3 17.7,-7.3"
         fill="url(#gradient2)"
         fill-rule="evenodd"
         stroke="none"
         id="path1343" />
    </g>
    <radialGradient
       cx="0"
       cy="0"
       gradientTransform="scale(0.0307)"
       gradientUnits="userSpaceOnUse"
       id="gradient2"
       r="819.20001"
       spreadMethod="pad">
      <stop
         offset="0.33725490196078434"
         stop-color="#ffffff"
         id="stop1346" />
      <stop
         offset="1.0"
         stop-color="#ffffff"
         stop-opacity="0.0"
         id="stop1348" />
    </radialGradient>
    <g
       id="shape2"
       transform="translate(-3.5,-3.5)">
      <path
         d="M 5.25,3.5 Q 6,3.5 6.5,4 7,4.5 7,5.25 V 10.5 Q 7,11.25 6.5,11.75 6,12.25 5.25,12.25 4.5,12.25 4,11.75 3.5,11.25 3.5,10.5 V 5.25 Q 3.5,4.5 4,4 4.5,3.5 5.25,3.5 m 6.75,7 q 0,0.75 -0.5,1.25 -0.5,0.5 -1.25,0.5 Q 9.5,12.25 9,11.75 8.5,11.25 8.5,10.5 V 5.25 Q 8.5,4.5 9,4 9.5,3.5 10.25,3.5 11,3.5 11.5,4 12,4.5 12,5.25 v 5.25"
         fill="#ff3399"
         fill-rule="evenodd"
         stroke="none"
         id="path1351" />
    </g>
  </defs>
</svg>
