<svg xmlns:xlink="http://www.w3.org/1999/xlink" height="58.65" width="49.15" xmlns="http://www.w3.org/2000/svg"><use height="18.2" transform="translate(4.95 19.7)" width="37.35" xlink:href="#a"/><defs><g id="a"><path d="M12.55 12.8q3.9 4.25-6.65 6.55l-6.4.25-4.95.2q-2.5-.15-5.3-1.45-3.55-1.7-3.7-4.05 0-1.55.75-1.85.5-.2 2.5 1.15 4 2.45 6.2 2.65h4.65l5.55.35q1.85-.3 4.05-1.8l3.65-2.45-.35.45m-12-1.2Q.4 10.45.7 9.3q.65-2.35 3.2-2.35 4.05 0 3.7 4.15-1.55-2.15-3.5-2.05-1.85.1-2.9 1.35l-.65 1.2m-8.95 0q-.7-4.65 3.35-4.65 4.1 0 3.7 4.15-1.55-2.15-3.5-2.05-2.95.15-3.55 2.55" fill="#282639" fill-opacity=".302" fill-rule="evenodd" transform="translate(19.15 -1.6)"/><path d="M3.95 7.2q-1.4 0-2.45 1.25-1 1.25-1 3t1 3q1.05 1.25 2.45 1.25 1.45 0 2.45-1.25 1-1.25 1-3t-1-3Q5.4 7.2 3.95 7.2M.85 4.25q1.75-1 3.9-.65 7.2 1.25 7.75 4.6.4 2.05-1.35 5.1-2 3.45-5.05 4.75-4 1.65-6.6.45V5.35l1.35-1.1" fill="#f80" fill-rule="evenodd" transform="translate(19.15 -1.6)"/><path d="M11.95 11.2q.5.1 1 .95.45.8.25 1.2-.3.5-2.3.65.1 1.8-.95 2.15L8.3 16q-.8-.5-.9-1.35-.1-1.05 1.4-1.9l3.3-1.9-.15.35M-5.7 3.6q3.45-.55 5.3 1.75V18.5Q-3 19.7-7 18.05q-3.1-1.25-5.05-4.75-1.75-3.05-1.4-5.1.55-3.35 7.75-4.6m4.3 7.85q0-1.75-1-3Q-3.45 7.2-4.9 7.2q-1.4 0-2.45 1.25-1 1.25-1 3t1 3Q-6.3 15.7-4.9 15.7q1.45 0 2.5-1.25 1-1.25 1-3" fill="#f80" fill-rule="evenodd" transform="translate(19.15 -1.6)"/><path d="m-7.45 4.85.8 1.65q-.35 2.2-2.9 3.8-2.2 1.4-4.3 1.5-2.4 0-3-1.15-.3-.65.2-1.1l.9-.7q-2.85-1.4-2.9-2.9-.05-1.4 1.3-1.45l2.15.3Q-17.75 2-16 2.1q1.15.05 4.45 1.8-.85-2.65 4.1.95" fill="#f80" fill-rule="evenodd" transform="translate(19.15 -1.6)"/><path d="m-12.85 11.2-.2-.35 3.35 1.9q1.5.9 1.35 1.9-.05.85-.85 1.35l-1.65.15Q-12 15.8-11.8 14q-2.05-.15-2.3-.65-.25-.4.25-1.2.45-.85 1-.95m4.15-6.75q-.35-.55-.15-1.2.25-.7.9-.65 1.3.1 2 1.4-.25-1.45 1.05-1.2t1.05 1.15Q-4.1 4.6-6.1 5.1q-1.5.45-2.75-.5l.15-.15" fill="#f80" fill-rule="evenodd" transform="translate(19.15 -1.6)"/><path d="M6.55 17.75h-.1.1q-.8.85-5 .85l-5.15.25q-3.15-.1-4.75-1.4l-3.55-2.9q1.2-.2 2.45.7l2.25 1.35 7.1-.4 2.85.65 3.15-.25q3.7-2.3 4.6-2.25l-.25 1.25q-.75.65-1.35.6-.05.5-1 1.05l-1.35.5" fill="#cf5600" fill-rule="evenodd" transform="translate(19.15 -1.6)"/><path d="M-.4 5.35q-1.2-1.5-3.5-1.8-.25-.7-1.15-.75-.95-.1-.95.85l-.2.05q-1-1-1.75-1.1Q-9 2.55-8.9 3.9q-3.35-2.15-2.65 0-3.3-1.75-4.45-1.8-1.75-.1.8 2.7l-2.15-.3q-1.35.05-1.3 1.45.05 1.5 2.9 2.9-1.75.35-1.1 1.8.6 1.15 3 1.15l.25-.05q-.9 1-.5 1.6.25.5 2.3.65-.2 1.8.95 2.15l1.05.05q1.3 1.2 2.8 1.85 4 1.65 6.6.45" fill="none" stroke="#b23e00" stroke-linecap="round" stroke-linejoin="round" transform="translate(19.15 -1.6)"/><path d="M12.95 11.8q-2.1-.1-4.35-1.5-2.55-1.6-2.85-3.8l.8-1.65q4.95-3.6 4.05-.95 3.3-1.75 4.5-1.8 1.7-.1-.85 2.7l2.15-.3q1.35.05 1.3 1.45-.05 1.45-2.85 2.9l.9.7q.5.45.15 1.1-.55 1.15-2.95 1.15" fill="#f80" fill-rule="evenodd" transform="translate(19.15 -1.6)"/><path d="M1.7 8.25Q1.1 8.6.8 9.3l-.6 1.3.45-.1q-.1.55-.9.8-.8.2-1-.45L-2.05 9Q-2.9 7.25-4.1 7.05q-2.3.8-3.2.45-.7-.3.15-.95.7-.55 1.3-.65l3.4.25q1.85.8 2.65.6l3.4-.95q2.15-.1 2.8.6.95.95-1.85.95-1.15.05-2.85.9" fill="#d15700" fill-rule="evenodd" transform="translate(19.15 -1.6)"/><path d="m7.8 4.45.15.15q-1.3.95-2.75.5-2.1-.45-2.25-1.15-.3-.9 1.05-1.15Q5.25 2.55 5.05 4q.7-1.3 2-1.4.65-.05.85.65.2.65-.1 1.2" fill="#f80" fill-rule="evenodd" transform="translate(19.15 -1.6)"/><path d="M-.5 18.5q2.6 1.2 6.6-.45l2.8-1.85 1.05-.05Q11 15.8 10.9 14q2-.15 2.3-.65.35-.55-.5-1.6l.25.05q2.4 0 2.95-1.15.65-1.3-1.05-1.8 2.8-1.45 2.85-2.9.05-1.4-1.3-1.45l-2.15.3q2.55-2.8.85-2.7-1.2.05-4.5 1.8.7-2.15-2.65 0 .2-1.4-.9-1.3-.8.1-1.8 1.1l-.2-.05q0-.95-.95-.85-.9.05-1.15.75-1.4.2-2.55 1l-.9.8m-7.85 6.1q0-1.75 1-3Q-6.3 7.2-4.9 7.2q1.45 0 2.5 1.25 1 1.25 1 3t-1 3q-1.05 1.25-2.5 1.25-1.4 0-2.45-1.25-1-1.25-1-3Z" fill="none" stroke="#b23e00" stroke-linecap="round" stroke-linejoin="round" transform="translate(19.15 -1.6)"/><path d="M3.95 15.7q-1.4 0-2.45-1.25-1-1.25-1-3t1-3Q2.55 7.2 3.95 7.2q1.45 0 2.45 1.25 1 1.25 1 3t-1 3q-1 1.25-2.45 1.25Z" fill="none" stroke="#b23e00" stroke-linecap="round" stroke-linejoin="round" transform="translate(19.15 -1.6)"/><path d="m10.1 4.75 3.3-1.9 2.1-.3-2.95 1.8-2.45.4m1.65 1.1 4.05-.75q.95-.05 1.25.35.15.15-2.7 1.1-3.2.7-4-.25l1.4-.45m1.7 2.75q1.1.15 1.75.75 1 1.05-1.5.8-3.6-.55-4.05-1.7l3.8.15" fill="#ffcc91" fill-rule="evenodd" transform="translate(19.15 -1.6)"/><path d="m12.15 3.65 2.55-.75-1.6 1.15-1.45.8q-2.3.9-6.05-.1l-3-.35-2.2.95-.7.25q.2-.5 2.65-1.8l1.45-.7q.5-.05.75.35l.4.65q.2-.4 1-.85.85-.45 1.3-.4l.2 1.7L9.3 3.5q.95-.5.65 1.1.4-.25 2.2-.95M-13 5.85l1.4.45q-.8.95-4 .25-2.85-.95-2.7-1.1.3-.4 1.25-.35l4.05.75m-1.7 2.75 3.8-.15q-.45 1.15-4.05 1.7-2.45.25-1.5-.8.65-.6 1.75-.75m13.1-3.3q-1.4-.75-2.25-.9l-3 .35q-3.75 1-6.05.1l-1.45-.8-1.6-1.15q.5-.05 2.55.75l2.2.95q-.3-1.6.65-1.1l1.85 1.05.2-1.7q.45-.05 1.3.4l1 .85.45-.65q.2-.4.7-.35.5.05 1.45.7 2.45 1.3 2.65 1.8-.5.1-.65-.3" fill="#ffcc91" fill-rule="evenodd" transform="translate(19.15 -1.6)"/></g></defs></svg>