<svg xmlns:xlink="http://www.w3.org/1999/xlink" height="58.65" width="49.15" xmlns="http://www.w3.org/2000/svg"><use height="36.6" transform="translate(9.05 20.2)" width="30" xlink:href="#a"/><defs><g id="a"><path d="M13.65 16.1q1.65 0 1.2 3.15 0 1.65-.6 3.35v.35q0 1.45-3.3 4.25-.95.85-.4 4.15-1.2 4.95-4.4 6.5-1.75.85-5.85.85-8.95 0-10.55-3.5-.55-1.15-.3-2.8l.35-2.05q0-1.05-1.65-2.45-1.8-1.55-2-2.25-1.2-3.95-1.2-4.9 0-1.4 1.25-1.4 1.2 0 2.1 4.55.2 1.05 1.65 2.25 1.7 1.4 2.05 2.1.4.85.35 2.3L-7.7 33q0 3.2 8.05 3.2 5.55 0 6.75-3.2 1.05-2.75 1-3.9-.1-1.85 1.65-4.25v-.15q2.45-3.25 2.6-4.4l-.25-2.35q.1-1.85 1.55-1.85" fill="#282639" fill-opacity=".302" fill-rule="evenodd" transform="translate(15.05 -2.1)"/><path d="M13.95 17.4q0 5.05-1.75 7.3l-2.75 1.75q-.55.25-.55 4.05 0 3.45-2.25 4.75l-6.75 1.5q-2.75.75-6.8-1.5-2.25-1.3-2.25-4.55 0-3.75-.5-4l-2.75-2q-1.75-2.05-2-7.05Q-14.4 2.6-.35 2.6h.25q14.05-.25 14.05 14.8" fill="#e5dcbc" fill-rule="evenodd" transform="translate(15.05 -2.1)"/><path d="M13.95 17.4Q13.95 2.35-.1 2.6h-.25q-14.05 0-14.05 15.05.25 5 2 7.05l2.75 2q.5.25.5 4 0 3.25 2.25 4.55 4.05 2.25 6.8 1.5l6.75-1.5q2.25-1.3 2.25-4.75 0-3.8.55-4.05l2.75-1.75q1.75-2.25 1.75-7.3Z" fill="none" stroke="#575246" stroke-linecap="round" stroke-linejoin="round" transform="translate(15.05 -2.1)"/><path d="M-2.35 23.95q0-3.05 2-3.05l-.5 3.8q-.3 1.25-1.25-.25l-.25-.5m4.5 0-.25.5q-.75 2.25-1.25.25l-.5-3.8q2 0 2 3.05" fill="#3b372c" fill-rule="evenodd" transform="translate(15.05 -2.1)"/><path d="M7.65 17.65Q3.15 19.7.9 16.4l-.5-2.75q.25-.75 3-2 5.75-1.5 8.25 1 .25.25-1.45 3l-2.55 2" fill="#9c9075" fill-rule="evenodd" transform="translate(15.05 -2.1)"/><path d="M9.65 18.65q-3.45 3.05-6.5.8Q.4 17.4.9 15.15q1-3.75 6.75-2.75 1.75.25 2.55 2.75.5 2.5-.55 3.5" fill="#3b372c" fill-rule="evenodd" transform="translate(15.05 -2.1)"/><path d="m-9.15 17.65-2.5-2q-1.5-2.5-.8-3.25 2.05-2 7.6-.75 2.75 1.25 3 2l-.5 2.75q-2.5 3.3-6.8 1.25" fill="#9c9075" fill-rule="evenodd" transform="translate(15.05 -2.1)"/><path d="M-11.15 18.65q-1.3-1-.5-3.5.5-2.5 2.25-2.75 5.75-1 6.8 2.75.5 2.25-2 4.3-3.05 2.25-6.55-.8" fill="#3b372c" fill-rule="evenodd" transform="translate(15.05 -2.1)"/><path d="m-7.65 7.6 7.05.55 7.25-.55Q1.4 9.35-.6 9.35q-1.5 0-7.05-1.75m-4.2 14.2q.5.85 2.2 1.35l2.55.8q1.2.75 1.2 4.25l-2.5-3.25q-3.25-2.3-3.25-2.75l-.2-.4m23.5-.1-.2.5-1.55 1.5-1.7 1.25q-1.55 1-2.55 3.25 0-3.5 1.25-4.25l2.5-.8q1.8-.5 2.25-1.45m-13.75-.8.25-1.7 1.5-3.3.25 3.8q-.5.45-1.3.45-.25 0-.7.75M.65 31.2l-1-.25.5-2 .5 2.25m0 .25-.5 1.75-.5-1.5 1-.25" fill="#9c9075" fill-rule="evenodd" transform="translate(15.05 -2.1)"/><path d="m4.65 30.95 1-.25.75-1.75.25-1q.5 1.75.25 3.25l-.95 2.25q.25-1.75-.3-2.25l-1-.25m-9.5 0-1.05.25-.25 2.25-.75-2.25q-.45-1.5 0-3.25l.25 1 1 1.75.8.25" fill="#706754" fill-rule="evenodd" transform="translate(15.05 -2.1)"/><path d="M3.15 31.2h.75l-.25 2.25-.5-2.25m0-.25.5-3 .25 3h-.75m-6.25.25-.3 2.25-.5-2.25h.8m0-.25h-.8l.5-3 .3 3" fill="#9c9075" fill-rule="evenodd" transform="translate(15.05 -2.1)"/><path d="M3.4 9.85Q2.15 9.6 4.9 8.9l3.55-.5q3 1.2-2.05 1.75l-3-.3M5.15 4.1q7.3 3.5.5 2.5-2.5-.2-2.5-1.75.25-1.25 2-.75m4 16.05q3.8-.25.25 1.8-2 .7-7-.5l6.75-1.3m-19.3 0 6.75 1.3q-5.25 1.2-7 .5-3.5-2.05.25-1.8M.9 28.45l.25.25v-.25q1-.75 1.25 0 .25.5 0 2.25-1 .25-1.25-.45-.25-.55-.25-1.8m.25 5.5-.25-1.2q.25-.8 1.5-.8.5.8.25 1.25 0 .75-1 .5l-.5.25M-1.4 30.5q-.95 0-1.2-.8-.25-1.5 0-1.75h.95l.5.75v2l-.25-.2m-.95 3.45q-.5-.95-.25-1.45.75-.8 1.45-.55.55 1.05.3 1.5 0 .5-1.25.5h-.25m6.75-5.5h.75v1.8H4.4v-1.8m.5 3q1.3 1.75 0 1.75-.5 0-.75-.95 0-.3.75-.8m-9.75-3q.45 0 .7 1 0 .8-.7.8-.55 0-.8-.8 0-.5.55-1h.25m0 3q.45.25.7 1.05 0 .95-.7.95-.55 0-.8-.95 0-.55.8-1.05" fill="#fff7e5" fill-rule="evenodd" transform="translate(15.05 -2.1)"/><path d="m.15 30.95 6.5-.25q-3.75 1-6.5 1-3 0-6.55-1l6.55.25" fill="#29261f" fill-rule="evenodd" transform="translate(15.05 -2.1)"/><path d="M-4.4 16.45q0 2.75-2.7 2.75-3.05 0-3-2.75-.05-3.05 3-3.05 2.7 0 2.7 3.05" fill="#ffebbf" fill-rule="evenodd" transform="translate(15.05 -2.1)"/><path d="M-6.15 16.4q-.5 1-.95 1-.8 0-1.3-1 0-1.25 1.3-1.25.95.5.95 1.25" fill-rule="evenodd" transform="translate(15.05 -2.1)"/><path d="M-9.15 18.15q2.05.5 3.5-.75 1.25-1.25 1.25-2 .5 2.5-1.5 3.5t-3.25-.75" fill="#ada082" fill-rule="evenodd" transform="translate(15.05 -2.1)"/></g></defs></svg>