<svg xmlns:xlink="http://www.w3.org/1999/xlink" height="58.65" width="49.15" xmlns="http://www.w3.org/2000/svg"><use height="35.65" transform="translate(10.05 19.55)" width="28" xlink:href="#a"/><defs><g id="a"><path d="M11.1 9.6q3.05 4.4 2.15 11.2-.8 6.4-4.5 11.2-3.9 5.1-8.7 5.1-4.8 0-8.75-5.1-3.75-4.8-4.6-11.2-.95-6.8 2-11.2Q-7.85 4.5-.1 4.5q7.7 0 11.2 5.1" fill="#282639" fill-opacity=".302" fill-rule="evenodd" transform="translate(14.05 -1.45)"/><path d="M11.1 7.05q3.05 4.4 2.15 11.2-.8 6.4-4.5 11.2-3.9 5.1-8.7 5.1-4.8 0-8.75-5.1-3.75-4.8-4.6-11.2-.95-6.8 2-11.2 3.45-5.1 11.2-5.1 7.7 0 11.2 5.1" fill="#e4d4ae" fill-rule="evenodd" transform="translate(14.05 -1.45)"/><path d="M11.1 7.05Q7.6 1.95-.1 1.95q-7.75 0-11.2 5.1-2.95 4.4-2 11.2.85 6.4 4.6 11.2 3.95 5.1 8.75 5.1t8.7-5.1q3.7-4.8 4.5-11.2.9-6.8-2.15-11.2Z" fill="none" stroke="#423f38" stroke-linecap="round" stroke-linejoin="round" transform="translate(14.05 -1.45)"/><path d="m11.6 9.6.4 2-.05 7.95q-1.45.15-2.6-1.6l-1.1-1.5q-.55-.9-.25-1.85l2.2-2.15q1.4-1.25 1.4-2.85M-5.1 29.25q-.3-1.35 1.15-2.05 1.3-.65 2.5-.25-.15 2.25.65 6.45-1.45.3-2.8-.85-1.35-1.15-1.15-2.65l-.35-.65m8.15-4.2q-2.15.35-5.5-2.45l-.3.15q-.5-2.55 3.95-2.3.15.75 1.05 2.3.75 1.4.8 2.3M-3 9.85l-4.9-.25q-.6-.45-.6-2.35 0-1.9.85-1.75-.1.55.35 1.35l.65.65.25.7q.9 1.05 3.15 1.25l.25.4" fill="#d4bd8b" fill-rule="evenodd" transform="translate(14.05 -1.45)"/><path d="M1.25 15.35 4 13.7h3.4q2.1.1 2.95 1.55.6 1.05-.05 2.6-.6 1.3-1.6 2.1-1.05.8-3.2.8-2 0-3.3-.7-2.3-1.25-.95-4.7M5.75 5.1l.35-.25Q7.7 5.95 8 7.7l.9 2.05q.65 1.35.55 1.95-1.55-.75-6.3-.85Q.4 10.7.7 9.8q.35-1.15 2.65-1 .4-.75 2.25-1.35 0-2.05.15-2.35M-10.9 16.7q.75-2.65 6-2.1l1.4.1h1.6l.25 3.25q-.2.6-1.85 1.65-1.8 1.25-2.25 1.4l-2.65-.15q-1.1-.45-1.9-1.65-.9-1.35-.6-2.5" fill="#d4bd8b" fill-rule="evenodd" transform="translate(14.05 -1.45)"/><path d="M-2.85 13.65q1.5 1.25 1.05 3.15-.45 1.85-2.3 2.5-1.8.6-4.1-.7-2.3-1.25-2.3-2.7 0-1.75 3.15-2.6 3.05-.85 4.5.35m5.5 0q1.4-1.2 4.5-.35 3.15.85 3.15 2.6 0 1.35-2.3 2.65-2.35 1.35-4.1.75-1.85-.65-2.25-2.5-.5-1.9 1-3.15" fill-rule="evenodd" transform="translate(14.05 -1.45)"/><path d="m0 12.35-6.9-1.75 6.7-.4 7.05.5L0 12.35m5.6 11q1.5 1.1 2.75 3.25L7 28.2q-1-2.25-2.25-4l-2-2.95 2.85 2.1m-11.1 0 2.85-2.1-2 2.95q-1.25 1.75-2.25 4l-1.35-1.6Q-7 24.45-5.5 23.35" fill="#c3372c" fill-rule="evenodd" transform="translate(14.05 -1.45)"/><path d="M.95 21.65q0 .85-.8.85t-.8-.85q0-.8.8-.8t.8.8m-2.5 4.25q0 .8-.8.8t-.8-.8q0-.8.8-.8t.8.8M-1.8 29q0 .85-.8.85t-.8-.85q0-.8.8-.8t.8.8m.4 3q0 .85-.8.85T-3 32q0-.8.8-.8t.8.8m3.25-6.1q0-.8.8-.8t.8.8q0 .8-.8.8t-.8-.8M-.95 8.45q0-.8.8-.8t.8.8q0 .8-.8.8t-.8-.8m3.5 0q0-.8.8-.8t.8.8q0 .8-.8.8t-.8-.8m3.1.4q0-.8.85-.8.8 0 .8.8t-.8.8q-.85 0-.85-.8m.25-3q0-.8.85-.8.8 0 .8.8t-.8.8q-.85 0-.85-.8m-8.5 2.6q0 .8-.8.8t-.8-.8q0-.8.8-.8t.8.8m-3.1.4q0 .8-.8.8-.85 0-.85-.8t.85-.8q.8 0 .8.8m-.25-3q0 .8-.8.8-.85 0-.85-.8t.85-.8q.8 0 .8.8M2.1 29q0-.8.8-.8t.8.8q0 .85-.8.85T2.1 29m-.35 3q0-.8.8-.8t.8.8q0 .85-.8.85t-.8-.85M1.3 12.05l-3.05-2.7L5 14.5q5.75 5.4 6.9 9.4l-.85 1.35-4.4-7.35Q4.7 15.3 1.3 12.05" fill-rule="evenodd" transform="translate(14.05 -1.45)"/><path d="m10 20.1.75.75L8.6 22.6l-.75-1L10 20.1" fill="#d4bd8b" fill-rule="evenodd" transform="translate(14.05 -1.45)"/><path d="M7.75 19.7q-.3-.45-.65-.45l-.95.1 1.35-1 .25 1.35" fill-rule="evenodd" transform="translate(14.05 -1.45)"/></g></defs></svg>