<?xml version="1.0" encoding="UTF-8" standalone="no"?>
<svg xmlns:xlink="http://www.w3.org/1999/xlink" height="58.65px" width="49.15px" xmlns="http://www.w3.org/2000/svg">
  <g transform="matrix(1.0, 0.0, 0.0, 1.0, 24.1, 18.1)">
    <use height="17.25" transform="matrix(1.0, 0.0, 0.0, 1.0, -16.45, 9.8)" width="32.5" xlink:href="#shape0"/>
  </g>
  <defs>
    <g id="shape0" transform="matrix(1.0, 0.0, 0.0, 1.0, 16.45, -9.8)">
      <path d="M0.2 16.05 Q8.25 13.55 12.9 10.3 L13.5 12.45 13.55 12.75 14.3 14.95 Q15.45 16.3 15.3 17.05 14.95 18.65 12.15 20.95 10.0 22.75 7.0 24.2 L4.05 25.45 Q1.25 26.85 -1.1 26.35 L-4.8 24.95 Q-7.0 24.0 -9.3 22.45 L-13.0 20.15 Q-14.6 19.25 -15.35 17.5 -16.15 15.65 -15.5 14.0 L-14.1 11.45 Q-13.55 10.4 -12.5 10.85 L-8.05 13.15 -4.0 14.75 -1.9 15.45 Q-0.05 16.15 0.2 16.05" fill="#626262" fill-rule="evenodd" stroke="none"/>
      <path d="M3.6 21.85 L1.5 21.05 5.5 19.15 9.1 16.55 0.8 19.65 Q-1.45 19.5 -4.3 18.35 -7.0 17.25 -8.1 15.85 -4.0 17.9 1.5 17.75 L4.7 16.75 12.7 12.75 12.4 13.4 13.4 12.5 Q13.65 13.85 14.8 15.5 15.7 16.8 15.5 17.65 13.35 20.45 10.2 22.65 6.8 25.15 1.4 26.55 6.8 22.3 11.8 17.85 L3.6 21.85" fill="#454545" fill-rule="evenodd" stroke="none"/>
      <path d="M-15.6 14.35 Q-15.6 13.75 -14.55 13.1 -13.55 12.45 -13.55 11.9 L-11.6 14.75 -14.4 14.05 -11.2 18.95 -15.6 14.35" fill="#454545" fill-rule="evenodd" stroke="none"/>
      <path d="M-13.35 10.4 Q-7.05 14.0 0.2 16.05 8.25 13.55 12.9 10.3" fill="none" stroke="#a8a8a8" stroke-linecap="round" stroke-linejoin="round" stroke-width="1.0"/>
      <path d="M13.4 12.5 Q13.65 13.85 14.8 15.5 15.7 16.8 15.5 17.65 13.35 20.45 10.2 22.65 6.8 25.15 1.4 26.55 L-1.1 26.35 -4.8 24.95 Q-7.0 24.0 -9.3 22.45 L-13.0 20.15 Q-14.5 19.25 -15.9 16.45 -16.05 15.85 -15.6 14.35 L-14.85 13.3 -13.95 11.7" fill="none" stroke="#000000" stroke-linecap="round" stroke-linejoin="round" stroke-width="1.0"/>
    </g>
  </defs>
</svg>
