<svg xmlns:xlink="http://www.w3.org/1999/xlink" height="58.65" width="49.15" xmlns="http://www.w3.org/2000/svg"><use height="11" transform="translate(10.2 24.95)" width="22.35" xlink:href="#a"/><defs><g id="a" fill-rule="evenodd"><path d="M-4.8 6.85q2.15 0 3.55 1.7 1.2 1.6 1.3 3.8.05 2.25-1.1 3.8-1.35 1.7-3.75 1.7t-3.75-1.7q-1.2-1.55-1.1-3.8.05-2.2 1.3-3.8Q-7 6.85-4.8 6.85" transform="translate(13.9 -6.85)"/><path d="m1.25 9.25-3.65 1.9.4-2.25v.25L3.85 7.3l4.6-.4q-4.1 1.15-7.2 2.35M-8.4 11.5l1.1 1.5-2.45.65-4.15 1.65 1.9-1.9 3.6-1.9" transform="translate(13.9 -6.85)"/><path d="m-8.7 11.9.5-2.25q.25-.75 1.4-1.4 1.35-.8 2.85-.5Q-2.5 8-1.6 9.5q.7 1.1.7 1.9 0 .75-2.75 1.35-2.6 1.3-4 1.3-.85 0-1.05-1.05v-1.1" fill="#343434" transform="translate(13.9 -6.85)"/><path d="m-8.25 15.15 1.2.6q1.45.6 2.65.6 1.95 0 3.6-1.95-.85 2.7-3.6 2.7-1.7 0-2.95-.95l-.9-1" fill="#5d5d5d" transform="translate(13.9 -6.85)"/></g></defs></svg>