<?xml version="1.0" encoding="UTF-8" standalone="no"?>
<svg xmlns:xlink="http://www.w3.org/1999/xlink" height="58.65px" width="49.15px" xmlns="http://www.w3.org/2000/svg">
  <g transform="matrix(1.0, 0.0, 0.0, 1.0, 24.1, 18.1)">
    <use height="11.15" transform="matrix(1.0, 0.0, 0.0, 1.0, -13.0, 6.55)" width="26.0" xlink:href="#shape0"/>
  </g>
  <defs>
    <g id="shape0" transform="matrix(1.0, 0.0, 0.0, 1.0, 13.0, -6.55)">
      <path d="M-13.0 9.2 Q-12.9 7.75 -12.35 6.55 L12.15 6.55 12.3 6.9 Q12.9 8.2 13.0 9.8 L11.9 8.3 Q11.25 7.7 10.35 7.65 L8.6 7.6 6.85 7.6 5.15 7.65 3.5 7.8 1.75 8.0 0.1 8.25 -1.6 8.25 -3.3 8.0 -5.0 7.85 -6.5 7.85 -8.25 7.85 -9.9 7.95 -11.5 8.3 Q-12.4 8.5 -13.0 9.2 M13.0 10.35 Q13.0 12.05 12.4 13.5 L9.8 14.0 6.6 14.0 3.4 13.5 -0.05 12.5 -0.1 12.55 -3.55 13.5 -7.0 13.85 -10.15 13.3 Q-11.7 12.85 -12.8 11.95 L-13.0 10.25 -11.4 10.9 -11.5 10.65 Q-11.85 9.7 -10.95 9.15 -10.35 8.65 -9.6 8.65 -6.95 8.95 -7.75 11.25 L-7.95 11.55 -6.35 11.55 -6.4 11.0 -6.15 11.35 Q-5.8 11.65 -5.5 11.35 -4.75 10.6 -5.55 10.15 L-6.0 10.35 -6.3 10.55 Q-6.1 9.95 -5.5 9.9 -3.85 9.95 -4.1 11.25 -2.0 10.7 -0.1 9.5 L1.5 10.2 1.95 9.65 Q2.35 9.2 2.9 9.2 4.5 9.7 3.75 10.9 L9.7 11.4 13.0 10.35 M10.0 16.45 Q8.4 17.65 6.35 17.7 3.6 17.65 1.65 15.5 L4.85 15.3 8.0 15.6 Q9.15 15.8 10.0 16.45 M-1.8 15.3 Q-3.7 17.3 -6.35 17.3 -8.4 17.3 -10.05 16.1 L-7.1 15.3 -3.7 15.0 -1.8 15.3 M2.25 9.75 Q1.65 10.05 2.1 10.6 2.4 11.05 2.8 10.7 3.65 10.0 2.75 9.55 L2.25 9.75 M-11.4 10.9 Q-11.25 11.55 -10.0 11.75 -9.35 11.8 -9.0 11.4 -7.65 9.75 -9.8 9.1 L-10.05 9.15 Q-10.9 9.2 -11.25 9.9 L-11.4 10.9" fill="#3a5887" fill-rule="evenodd" stroke="none"/>
      <path d="M-13.0 9.2 Q-12.4 8.5 -11.5 8.3 L-9.9 7.95 -8.25 7.85 -6.5 7.85 -5.0 7.85 -3.3 8.0 -1.6 8.25 0.1 8.25 1.75 8.0 3.5 7.8 5.15 7.65 6.85 7.6 8.6 7.6 10.35 7.65 Q11.25 7.7 11.9 8.3 L13.0 9.8 13.0 10.25 13.0 10.35 9.7 11.4 3.75 10.9 Q4.5 9.7 2.9 9.2 2.35 9.2 1.95 9.65 L1.5 10.2 -0.1 9.5 Q-2.0 10.7 -4.1 11.25 -3.85 9.95 -5.5 9.9 -6.1 9.95 -6.3 10.55 L-6.4 11.0 -6.35 11.55 -7.95 11.55 -7.75 11.25 Q-6.95 8.95 -9.6 8.65 -10.35 8.65 -10.95 9.15 -11.85 9.7 -11.5 10.65 L-11.4 10.9 -13.0 10.25 -13.0 9.9 -13.0 9.2" fill="#233750" fill-rule="evenodd" stroke="none"/>
      <path d="M2.25 9.75 L2.75 9.55 Q3.65 10.0 2.8 10.7 2.4 11.05 2.1 10.6 1.65 10.05 2.25 9.75 M-11.4 10.9 L-11.25 9.9 Q-10.9 9.2 -10.05 9.15 L-9.8 9.1 Q-7.65 9.75 -9.0 11.4 -9.35 11.8 -10.0 11.75 -11.25 11.55 -11.4 10.9 M-6.4 11.0 L-6.3 10.55 -6.0 10.35 -5.55 10.15 Q-4.75 10.6 -5.5 11.35 -5.8 11.65 -6.15 11.35 L-6.4 11.0" fill="#8cb3ff" fill-rule="evenodd" stroke="none"/>
      <path d="M12.4 13.5 L11.05 15.5 10.0 16.45 Q9.15 15.8 8.0 15.6 L4.85 15.3 1.65 15.5 1.6 15.5 Q0.4 14.15 -0.05 12.5 L3.4 13.5 6.6 14.0 9.8 14.0 12.4 13.5 M-0.1 12.55 Q-0.6 13.95 -1.65 15.1 L-1.8 15.3 -3.7 15.0 -7.1 15.3 -10.05 16.1 -11.1 15.1 Q-12.35 13.7 -12.8 11.95 -11.7 12.85 -10.15 13.3 L-7.0 13.85 -3.55 13.5 -0.1 12.55" fill="#5280c4" fill-rule="evenodd" stroke="none"/>
    </g>
  </defs>
</svg>
