<svg xmlns:xlink="http://www.w3.org/1999/xlink" height="58.65" width="49.15" xmlns="http://www.w3.org/2000/svg"><use height="41.4" transform="translate(2.9 15.5)" width="42.75" xlink:href="#a"/><defs><g id="a"><path d="m-11.8 23.5.6.1.35.5.9 1.3 1.2 1.55.05.1q1 2.35 1 3.35 0 1.15-1.4 3.1-1.45 1.95-2.7 2.3l-.6-.15-.35-.6-.1-1.65-.05.05-1.4 1.25q-.25.55-.85.45-.6-.15-.6-.75l.05-1.85-3.05 1.5-1.35.6q-.55.25-.9-.2t-.05-.9l1.85-2.45q2.85-3.65 2.65-5.7-.1-.6.55-.8l4.2-1.1m23.35.3.6-.1 4.2 1.2q.55.15.55.8-.2 2.3 2.7 6.25l1.8 2.65q.3.5-.1.9-.35.45-.9.15L19.05 35l-3-1.6v2.05q0 .65-.6.75-.6.2-.8-.45l-1.45-1.4-.1 1.8-.35.6-.65.15q-1.25-.35-2.7-2.45-1.4-2.05-1.35-3.3 0-1.15 1-3.6l.05-.15q.3-.65 1.15-1.6l.95-1.45q.05-.35.35-.55" fill-rule="evenodd" transform="translate(21.2 2.6)"/><path d="m4.75 26.05.3-.05m2.25 5.95-.05 1.15L7 34.25" fill="none" stroke="#454545" stroke-linecap="round" stroke-linejoin="round" stroke-width=".95"/><path d="m2.3.85 3.05 1.3 2.05 1.4 1.3 1.3 2.2 3.05 3.6 8.75 1 4.65.15 2.4-.1 2.95-.05.3-.05.05v.25l-.25 1.15-.35 1.1-.45 1.05-.2.25-.05.1-.05.15-1 1.45-1.7 1.65-.5.4-.3.15-.2.2-.5.35-.3.15-.2.2-2.15 1.15-3.45 1.2-1.2.25-2.55.15-2.45-.1-4.75-1-2.25-.95-1.9-1.2-.9-.75-1.5-1.7-1.25-1.9-.95-2.05-.55-2.05-.25-2.15.2-3.25.2-1.2 1.2-4.65.9-2.45 1.1-2.3 1.95-3.2 2.3-2.8L-7.1 3.1l1.95-1.25 2.1-.9 1.85-.4L.2.5l2.1.35" fill="#fff" fill-rule="evenodd" transform="translate(21.2 2.6)"/><path d="m23.5 3.45 3.05 1.3 2.05 1.4 1.3 1.3 2.2 3.05 3.6 8.75 1 4.65.15 2.4-.1 2.95-.05.3-.05.05v.25L36.4 31l-.1.25-.25.85-.45 1.05-.2.25-.05.1-.05.15-1 1.45-1.7 1.65-.5.4-.3.15-.2.2-.5.35-.3.15-.2.2-2.15 1.15-3.45 1.2-1.2.25-2.55.15-2.45-.1-4.75-1-2.25-.95-1.9-1.2-.9-.75-1.5-1.7-1.25-1.9-.95-2.05-.55-2.05-.25-2.15.2-3.25.2-1.2L6.1 18l.9-2.45 1.1-2.3 1.95-3.2 2.3-2.8L14.1 5.7l1.95-1.25 2.1-.9 1.85-.4 1.4-.05 2.1.35Z" fill="none" stroke="#454545" stroke-linecap="round" stroke-linejoin="round" stroke-width=".95"/><path d="m-7.2 2.35.25.25-.05.1h-.05l-.75 1.15-.35-.2.05-.05-.2-.2.6-.4.5-.65m.1.25-.15-.15-.25.45.4-.3m13.7.15.6.3-.4-.6-.2.25-.05-.1.25-.25L8 3.2v.05l-.05.25-.6.35-.75-1.1" fill="#454545" fill-rule="evenodd" transform="translate(21.2 2.6)"/><path d="m13 2.75 1.4-.5-.4-.1-.05-.6-.65-.15-1.15-.35-.55.15-.8.15v.05l-.4 1.85-.8-1.2-.3.35-.9.15-.05.15-.65.95.25-.35q-.25.55-.15.95l.15.3.4 1.2-1.2-.05-.2.05-.9.15-.8-.25L5 5.5l-.5.2-.6.35-1-.15-.55.75L1.4 7.8l-.15.15q-.45.7-1.5.7H-.4q-.85 0-1.2-.4l-.2-.65-.5-.15.05-.55v-.2l-.1-.85q-1.15.1-1.7-.5l-1-.15-.35-.15-.7.2-1.45.3h-.6l-.15-.95v-.2l.05-.15q.1-.4-.15-.95l.25.35-.6-.95-.05-.15-.9-.15-.35-.4-.9 1.35-.25-2-.85-.15-.55-.15-1.15.35-.65.15-.05.6-.4.1 1.5.55-1.55.8-.15.05 1.15.45-1.25.75.35.25-.05.25.85.1.65.75.65-.2.45.75.5.15-.05 1.6q-.15.65-.8.8l-.2.55.25.75.1.2.25.8.25 2.1q.25 2.3 1.1 2.35l2.1.25-2.35 1.5-.95.3q-.6.15-.85.4l-.3.7.05.05-.3.95-.85-.6h-.4l.05.2-.1-.1-.1.05 1.05 1.1-.8.05.65.55-2.25.2h-.05l.05.2-.15.15.9.15 1.2-.05.5-.65 1.05-.65.5-.25.55-.75.8-.55 1.2-.2h.4V19q.35-.75.8-.9l1.3-.05h.2l.65-.35q5.05-1 10.6.5l.55-.05 1.15.7h.6l.8.55h.1l.75.1.4.55.85.4 1.95 1.05q.35.3.35.75l1.2.9.35.7.65.25 1.4 1.8.45-.45.1-.15-.05-.15-.05-1.15.4-.55-.55-.65.5-.85-1.1-.15-.7 1.2-1.3-2.85q-.65-1.8-1.7-1.55l-.75.2-.15-.8-.6-.45-.65-.4.8-1.4.3-1.55q0-.8.3-1.5l.8-.85-.25-.55.35-.35.05-.55V8.95l.45-1.8.05.1-.3-1.45 1.1.4.7-.75.85-.1-.05-.3.3-.2-1.15-.75 1.05-.45-1.6-.9M11.45-.3l.7-.1.65.05.2.2.45.05q.95.1 1.35.35l.35.35V1q1 .55 1.05 1.3v.1l-.15.55q.35.4.35 1.05l-.1.55-.1.05.1.25v.05l-.3.75.05.1-.25.7q-.3.4-1.4.4h-.15l-.05.1-.75.7-.05.35-.3 1.2v1.2l-.25 1.1.15.4q0 .65-.75 1.25l-.25.2-.15.95-.4 1.95-.2.45.35.35q1.95-.15 2.9 2.55l.3.65h.6l.5.35q.85-.25 1.55.3l.25.2.05.3v.3l-.2.9.55.8v.2q0 .55-.8.95l.05.1.1.7-.2.7.2.75-.05.15q0 .8-.85 1.5l-.65.35-1.9-2.25-1-1.3-.65-.25-.4-.75-1.35-1.05-.2-.55q-.35-.3-1.5-.8l-1.05-.5-.35-.45-.7-.1-.6-.4-.15-.15h-.6l-.7-.4-.25-.2-.45.05q-5.2-1.5-9.95-.55l-.6.35h-1.3l-.75.9-1.05.15h-.5l-.7.45-.4.65-1.6.95-.85 1.25-1.6 1.45-.5.55-.55-.35q-.55-.45-.55-1.25v-.05l.2-.7-1.3-.9-.05-.45.1-.5-.05-.35.1-.45q.2-.4.85-.6l.05-.3.2-.35.3-.05.05-.2q.25-.95 1.4-1.15l.5.05.5-.8q.55-.55 1.5-.75-.6-.8-.95-2.75l-.1-.6-.1-1.5-.1-.35-.2-.3q.6-.8.65-2.15l-.1-1.2-.45-.1-.8-.8-.05-.1h-.15q-1.1 0-1.4-.4l-.2-.7v-.1l-.3-.75v-.05l.1-.25-.2-.1V4q0-.55.4-1.05l-.2-.55v-.1q.05-.75 1.05-1.3V.5l.35-.25q.45-.25 1.4-.35l.4-.05-.05.1.55-.45 1.05.2 1.5.4.45-.5.8 1.2.25.3h.05q.65-.15 1 .25l.6 1.05.2.2.05.15.25 1.15.1-.05 1.25-.3 1.1.3.75-.65.45.9q.1.35.9.25l1.1-.1.15.65.15 1.5.55.25-.05.5h.1l.25-.05.5-.5.55-.8 1-1.2 1.3-.05.05.05.3-.2 1-.4 1.1.25.35.15.1-.05v-.3q0-.7.25-1.3l.1-.2.2-.15.05-.2.5-.85q.35-.4 1-.25h.05L8.7.8 9 .35l.55-.6.4.4 1.5-.45" fill-rule="evenodd" transform="translate(21.2 2.6)"/><path d="M-18.8 10.75q3.05-.1 4.35 1.05l1.4 1.7q1.55 2.1 3 1.95l.2.05h.2q1.65.25 1.55 1.55-.25 1.85-2.55 1.75-2.2-.1-3.75-2.4l-.35-.55q-1.3-1.95-2.05-2.55-1.1-.85-3.15-1-.7-.1-.7-.75.1-.75.75-.75l1.1-.05m35.5 1.2h1.05q.75 0 .75.75 0 .65-.7.75-2.95.2-5.2 3.55l-.35.55q-1.5 2.3-3.7 2.4-2.35.1-2.55-1.75-.2-1.25 1.55-1.55h.35q1.45.1 3-2L12.3 13q1.35-1.25 4.4-1.05" fill-rule="evenodd" transform="translate(21.2 2.6)"/><path d="m17.85 17.45.15.9-.1.8-.25.65-.4.6q-.95 1.2-2.25 1.2-1.95 0-2.75-2l-.2-1.05-.05-.2.05-.25q0-.45.15-.75.3-1 1-1.55.8-.65 1.8-.65t1.8.65q.7.6 1.05 1.65m-32.05-1.4q.7.6 1.05 1.65l.15.9-.1.8-.25.65-.4.6q-.95 1.2-2.25 1.2-1.95 0-2.75-2l-.2-1.05-.05-.2.05-.25.15-.75q.3-1 1-1.55.8-.65 1.8-.65t1.8.65" fill-rule="evenodd" transform="translate(21.2 2.6)"/><path d="m2.3.85 3.05 1.3 2.05 1.4 1.3 1.3 2.2 3.05 3.6 8.75 1 4.65.15 2.4-.1 2.95-.05.3-.05.05v.25l-.25 1.15-.35 1.1-.45 1.05-.2.25-.05.1-.05.15-1 1.45-1.7 1.65-.5.4-.3.15-.2.2-.5.35-.3.15-.2.2-2.15 1.15-3.45 1.2-1.2.25-2.55.15-2.45-.1-4.75-1-2.25-.95-1.9-1.2-.9-.75-1.5-1.7-1.25-1.9-.95-2.05-.55-2.05-.25-2.15.2-3.25.2-1.2 1.2-4.65.9-2.45 1.1-2.3 1.95-3.2 2.3-2.8L-7.1 3.1l1.95-1.25 2.1-.9 1.85-.4L.2.5l2.1.35" fill="#8d2217" fill-rule="evenodd" transform="translate(21.2 2.6)"/><path d="m23.5 3.45 3.05 1.3 2.05 1.4 1.3 1.3 2.2 3.05 3.6 8.75 1 4.65.15 2.4-.1 2.95-.05.3-.05.05v.25L36.4 31l-.1.25-.25.85-.45 1.05-.2.25-.05.1-.05.15-1 1.45-1.7 1.65-.5.4-.3.15-.2.2-.5.35-.3.15-.2.2-2.15 1.15-3.45 1.2-1.2.25-2.55.15-2.45-.1-4.75-1-2.25-.95-1.9-1.2-.9-.75-1.5-1.7-1.25-1.9-.95-2.05-.55-2.05-.25-2.15.2-3.25.2-1.2L6.1 18l.9-2.45 1.1-2.3 1.95-3.2 2.3-2.8L14.1 5.7l1.95-1.25 2.1-.9 1.85-.4 1.4-.05 2.1.35Z" fill="none" stroke="#000" stroke-linecap="round" stroke-linejoin="round" stroke-width=".95"/><path d="M-9.45 27.25q1 2.2 1 3.15 0 .95-1.25 2.65-1.3 1.75-2.3 2l-.2-3.05-2.8 2.4.05-3.5q-.4.6-5.45 3.05l3.1-4.1q1.7-2.45 1.5-4.5l4.2-1.1q.15 1 2.15 3m19.25.45q2-2.15 2.15-3.25l4.2 1.2q-.2 2.2 1.5 4.9l3.1 4.45q-5.05-2.65-5.45-3.35v3.85q-.25-.65-1.2-1.4l-1.55-1.25-.2 3.35q-1-.35-2.3-2.2-1.25-1.85-1.25-2.85t1-3.45" fill="#ff3d2b" fill-rule="evenodd" transform="translate(21.2 2.6)"/><path d="M9.4 25.95q.3-.95 1.3-1.2 3.2-.8 4.5.05l.55 1.4q.6 1.4.4 2.45-.3 1.65-1.3 2.05l-3.6.65q-2.8.1-2.75-1.2l.45-2.3.45-1.9m-22.5-2.05 4.5.1.55 1.4q.6 1.4.4 2.45-.3 1.65-1.3 2.05l-3.6.6q-2.8.1-2.75-1.2l.45-2.3.45-1.85q.3-1 1.3-1.25" fill="#dc3724" fill-rule="evenodd" transform="translate(21.2 2.6)"/><path d="M2.75 7.6Q.25 9.4-.45 9.55q-2.15-3.7-3.85-4.3l-2.3.15q-1.45-.05-1.8-.7L-9 3.3l-.1.6-.2-1 .3.4q.3-1.6 1.85-1.85l.05.4h.45Q-6.75 1-5.1.25v.95q.8-.45 1.15-1.45.3.25 1.45.5l.05-1.5q1.05 0 1.95 1.4l.25-1.1q1 .3 1.6 1.45.35-1.15 1.5-.9L2.7.55q.85-1.3 1.2.25Q5.6-.85 6.15-1.95 6.5 0 6.05 1l1.6-1.1q.1 1-.9 2l1.4-.5-.95 1.3 1.5.05-1 1.15.85.5Q7 5.9 2.75 7.6" fill="#8d2217" fill-rule="evenodd" transform="translate(21.2 2.6)"/><path d="M.1-.15v.05l-.4 1.5-.6-.95-1.05-1L-2 .8l-.7-.1-1.05-.3q-.4.85-1.1 1.25l-.7.3-.05-.85q-.55.25-.55.65v.2l-.05.1q-.15.4-.95.3l-.4.05v-.25l-.95 1.1.35.75v1.1q0 .55.8.6l1.1-.4q.65-.1 1.9.35 2.4.85 3.25 2.15l.85 1.15L1.7 7.8l.75-.6q.85-.65 2.75-1.45l2.4-1.3-.55-.55.6-.7-1.4-.05.55-.75-1.95.65-.65.75 1.4-3 .25-1.25V-.6l-2.2 2.35-.2-.8L3.4.5l-.25.3-1.2 1.75.35-2.4q-.35.05-.5.5l-.4 1.2L.9.7Q.6.2.1-.15M2.95-1.6l1.7 1.05 1.6-2.05.6 2.15-.05.25 1.3-.6.05.85-.2.9L9.5.4 8.15 2.25h.45l1.1.1L8.4 3.8l1 .45-.5.5q-.8.8-3.3 1.9Q3.8 7.4 3.05 8l-.75.55q-1.4 1.2-2.65 1.5l-.25.1-1.35-1.8q-1.55-2.3-2.5-2.65l-1.2.05-1 .15q-1.9-.05-2.45-1.5l-.55-.05.1-.9-.15-.25-.3-.4.8-.6.1.15q.55-.8.8-2.45l1.55.85 1.2-2.3.9 1.55.25-.45.25-.7.55.5q.2.2.65.3l.05-1.4 2.15.85 1-1.2L1.3-.35q1 .25 1.65-1.25" fill-rule="evenodd" transform="translate(21.2 2.6)"/><path d="m-10.05.8.75 1 .95.1.85 1.25-.25-.25q.4.8.25 1.5-.2.95-1 1.1l-1.6.15-.95.6q-.4 1.05-.85 1.2-.75.3-1.15-.55l-.8-.1-.5-.7h-.95q-.6 0-.35-.7-1.1-.55.1-1.15L-16.1 4q0-.7.85-1.1-.95-.25-.45-.85.45-.6 1.15-.65l-.3-.05V.9q1.75-.1 2-.65l1.5.25q.85.2.9.85l.4-.55" fill="#ff3d2b" fill-rule="evenodd" transform="translate(21.2 2.6)"/><path d="M-12.05 5.55q.3-1.75 2.9-1.25l.05.5q-.25 1.45-2.15 1.3-.05-.35-.8-.55" fill="#c02f20" fill-rule="evenodd" transform="translate(21.2 2.6)"/><path d="m-11.7 3.5 1.45.1q1-.25 1.1.7-2.6-.5-2.9 1.25-1.45-.45-1.6-1.1-.2-.9.65-.8l1.3-.15" fill="#8d2217" fill-rule="evenodd" transform="translate(21.2 2.6)"/><path d="M12.4.25q.3.55 2.05.65l-.05.45-.3.05q.75.05 1.2.65.5.6-.5.85.85.4.85 1.1l-.5.25q1.2.6.05 1.15.4 1.15-1.25.7-.35 1.35-1.35.8-.3.85-1.15.55l-.8-1.2q-.4-.4-1-.6l-1.6-.15q-.8-.15-1-1.1-.15-.7.25-1.5l-.25.25.9-1.25.9-.1.75-1 .45.55q.05-.65.9-.85L12.4.25" fill="#ff3d2b" fill-rule="evenodd" transform="translate(21.2 2.6)"/><path d="M9.2 5.95q2.2-2.05 3.2-.65-1.55.6-1.6.8l-1.6-.15" fill="#c02f20" fill-rule="evenodd" transform="translate(21.2 2.6)"/><path d="m11.3 3.5 1.25.15q.85-.1.65.8-.05.6-.8.85-1-1.4-3.2.65-.45-.3-.5-1.3V5q-.15-1.65.95-1.45l1.65-.05" fill="#8d2217" fill-rule="evenodd" transform="translate(21.2 2.6)"/><path d="M-2.9 8.5q-.4-2 2.7-1.85 3.15.1 2.95 1.85-3.55-1.45-5.65 0" fill="#fff767" fill-rule="evenodd" transform="translate(21.2 2.6)"/><path d="M-2.9 6.85q-.4-2 2.7-1.85 3.15.15 2.95 1.85-3.65-1.3-5.65 0" fill="#fff645" fill-rule="evenodd" transform="translate(21.2 2.6)"/><path d="M-2.75 5.35q-.4-2 2.7-1.85 3.15.15 2.95 1.85-3.75-1.3-5.65 0" fill="#ffdd40" fill-rule="evenodd" transform="translate(21.2 2.6)"/><path d="M-3.4 3.9q-.45-2.2 3.3-2 3.85.15 3.6 2-4.45-1.5-6.9 0M-15.65 16q.9 0 1.55.5h-3.1q.75-.5 1.55-.5" fill="#ff9334" fill-rule="evenodd" transform="translate(21.2 2.6)"/><path d="M-13.2 17.8q-1.45.25-4.85-.05.25-.8.85-1.25h3.1q.65.5.9 1.3" fill="#50d04b" fill-rule="evenodd" transform="translate(21.2 2.6)"/><path d="m-13.35 19.7-.35.5q-1.6-.6-4.3-.7l-.2-.8 4.85 1" fill="#ff3d2b" fill-rule="evenodd" transform="translate(21.2 2.6)"/><path d="M-18 19.5q2.7.1 4.3.7-.75.9-1.95.9-1.65 0-2.35-1.6" fill="#bc2d1f" fill-rule="evenodd" transform="translate(21.2 2.6)"/><path d="M-13.15 19.2q-3.75-1.1-5.05-.85l.15-.6q3.4.3 4.85.05l.1.75-.05.65" fill="#fff" fill-rule="evenodd" transform="translate(21.2 2.6)"/><path d="M-18.2 18.7v-.35q1.3-.25 5.05.85l-.2.5-4.85-1" fill="#fff645" fill-rule="evenodd" transform="translate(21.2 2.6)"/><path d="M14.75 15.85q.85 0 1.55.55h-3.1q.65-.55 1.55-.55" fill="#ff9334" fill-rule="evenodd" transform="translate(21.2 2.6)"/><path d="M17.2 17.7q-1.85.3-4.85-.1.25-.75.85-1.2h3.1q.65.45.9 1.3" fill="#50d04b" fill-rule="evenodd" transform="translate(21.2 2.6)"/><path d="m17.05 19.55-.35.5q-1.7-.65-4.3-.65l-.2-.85 4.85 1" fill="#ff3d2b" fill-rule="evenodd" transform="translate(21.2 2.6)"/><path d="M12.4 19.4q2.6 0 4.3.65-.7.95-1.95.95-1.75 0-2.35-1.6" fill="#bc2d1f" fill-rule="evenodd" transform="translate(21.2 2.6)"/><path d="M17.2 19.05q-3.9-1.05-5-.85l.15-.6q3 .4 4.85.1l.1.75-.1.6" fill="#fff" fill-rule="evenodd" transform="translate(21.2 2.6)"/><path d="M12.2 18.2q1.1-.2 5 .85l-.15.5-4.85-1-.05-.1.05-.25" fill="#fff645" fill-rule="evenodd" transform="translate(21.2 2.6)"/><path d="M-2.35 7.6q1.6 1.65 1.6 4.05 0 2.35-1.6 4.05-1.6 1.7-3.85 1.7t-3.8-1.7q-1.6-1.7-1.6-4.05 0-2.4 1.6-4.05 1.55-1.7 3.8-1.7t3.85 1.7" fill-rule="evenodd" transform="translate(21.2 2.6)"/><path d="M-2.05 8.45q1.3 1.55 1.3 3.7 0 2.15-1.3 3.7-1.3 1.55-3.15 1.55-1.85 0-3.1-1.55-1.3-1.5-1.3-3.7t1.3-3.7Q-7.05 6.9-5.2 6.9t3.15 1.55" fill-rule="evenodd" transform="translate(21.2 2.6)"/><path d="M11 11.75q0 2.35-1.6 4.05-1.6 1.7-3.85 1.7t-3.8-1.7q-1.6-1.7-1.6-4.05 0-2.4 1.6-4.05Q3.3 6 5.55 6T9.4 7.7Q11 9.35 11 11.75" fill="#52de4d" fill-rule="evenodd" transform="translate(21.2 2.6)"/><path d="M8.55 8.85q1.2 1.5 1.2 3.65t-1.2 3.65q-1.25 1.5-3 1.5-1.7 0-2.95-1.5-1.2-1.5-1.2-3.65t1.2-3.65Q3.85 7.3 5.55 7.3q1.75 0 3 1.55" fill-rule="evenodd" transform="translate(21.2 2.6)"/><path d="M8.2 12.75q0 2.05-1.2 3.5-1.2 1.45-2.85 1.45-1.7 0-2.9-1.45t-1.2-3.5q0-2.05 1.2-3.5 1.2-1.45 2.9-1.45Q5.8 7.8 7 9.25q1.2 1.5 1.2 3.5" fill="#fff" fill-rule="evenodd" transform="translate(21.2 2.6)"/><path d="M7 9.25q1.2 1.5 1.2 3.5 0 2.05-1.2 3.5-1.2 1.45-2.85 1.45-1.7 0-2.9-1.45t-1.2-3.5q0-2.05 1.2-3.5 1.2-1.45 2.9-1.45Q5.8 7.8 7 9.25Z" fill="none" stroke="#333" stroke-linecap="round" stroke-linejoin="round" transform="translate(21.2 2.6)"/><path d="M-1.15 9.25q1.2 1.45 1.2 3.5t-1.2 3.5Q-2.3 17.7-4 17.7q-1.7 0-2.85-1.45-1.2-1.45-1.2-3.5t1.2-3.5Q-5.7 7.8-4 7.8q1.7 0 2.85 1.45" fill="#fff" fill-rule="evenodd" transform="translate(21.2 2.6)"/><path d="M-1.15 9.25q1.2 1.45 1.2 3.5t-1.2 3.5Q-2.3 17.7-4 17.7q-1.7 0-2.85-1.45-1.2-1.45-1.2-3.5t1.2-3.5Q-5.7 7.8-4 7.8q1.7 0 2.85 1.45Z" fill="none" stroke="#333" stroke-linecap="round" stroke-linejoin="round" transform="translate(21.2 2.6)"/><path d="m4.85 12.25.1.35v.75l-.1.35-.05.05h-.05v.1L4.7 14l-.05.05H4.6v.1l-.05.15-.45.4h-.15l-.1.05-.2.05-.55-.1-.45-.4-.2-.3-.15-.65v-.75l.15-.65.4-.5.25-.2.25-.1h.5l.25.1.25.2.2.25.3.55" fill="#fff" fill-rule="evenodd" transform="translate(21.2 2.6)"/><path d="M5.1 12.9q0 2-1.45 2-1.5 0-1.5-2 0-2.05 1.5-2.05 1.45 0 1.45 2.05" fill="#ff3d2b" fill-rule="evenodd" transform="translate(21.2 2.6)"/><path d="m2.95 12.1-.1.15-.05.35.05.2.1.2.2.2.15.05.2-.1.05-.1.1-.05.1-.2v-.15l.05-.05-.05-.35-.2-.3H3.3l-.15-.05-.05.05H3l-.05.15m-.1-.65.25-.2.25-.1h.5l.25.1.25.2.2.25.3.55.1.35v.75l-.1.35-.05.05h-.05v.1L4.7 14l-.05.05H4.6v.1l-.05.15-.45.4h-.15l-.1.05-.2.05-.55-.1-.45-.4-.2-.3-.15-.65v-.75l.15-.65.4-.5" fill="#498042" fill-rule="evenodd" transform="translate(21.2 2.6)"/><path d="m2.95 12.1.05-.15h.1l.05-.05.15.05h.25l.2.3.05.35-.05.05v.15l-.1.2-.1.05-.05.1-.2.1-.15-.05-.2-.2-.1-.2-.05-.2.05-.35.1-.15m-6-.85.25.2.2.25.3.55.1.35v.75l-.1.35-.05.05h-.05v.1l-.05.15-.05.05h-.05v.1l-.05.15-.45.4h-.15l-.1.05h-.1l-.05.05h-.1l-.5-.1-.45-.4-.2-.3-.2-.65.05-.35-.05-.4.2-.65.4-.5.25-.2.2-.1h.55l.25.1" fill="#fff" fill-rule="evenodd" transform="translate(21.2 2.6)"/><path d="M-2.05 12.9q0 2-1.5 2-1.45 0-1.45-2 0-2.05 1.45-2.05 1.5 0 1.5 2.05" fill="#ff3d2b" fill-rule="evenodd" transform="translate(21.2 2.6)"/><path d="m-4.05 11.25.2-.1h.55l.25.1.25.2.2.25.3.55.1.35v.75l-.1.35-.05.05h-.05v.1l-.05.15-.05.05h-.05v.1l-.05.15-.45.4h-.15l-.1.05h-.1l-.05.05h-.1l-.5-.1-.45-.4-.2-.3-.2-.65.05-.35-.05-.4.2-.65.4-.5.25-.2m.05.65-.2.2-.1.15-.05.35.05.2.1.2.2.2.15.05.05-.05v-.05h.1l.05-.1.1-.05.1-.2.05-.15.05-.05-.1-.35-.2-.3h-.05l-.1-.05-.05.05-.15-.05" fill="#498042" fill-rule="evenodd" transform="translate(21.2 2.6)"/><path d="m-4.2 12.1.2-.2.15.05.05-.05.1.05h.05l.2.3.1.35-.05.05-.05.15-.1.2-.1.05-.05.1h-.1v.05l-.05.05-.15-.05-.2-.2-.1-.2-.05-.2.05-.35.1-.15" fill="#fff" fill-rule="evenodd" transform="translate(21.2 2.6)"/><path d="m3.7 18.75 2.35.85 1.6.45q1.5.8 2.95 3.45 1.3 2.8 1.05 3.8l-.4.95-.05 1.25q-.3.4-1.2.2-4.05-2.85-10.45-2.45L-11.35 29h-.05l-.75-2.3-.35-.7q.5-.5.45-.8 0-.2-.75-1.25-.25-1.35.75-2.65l1.95-2.1 1.35-1.7q.6-.6 1.95-.6 5.3 0 10.5 1.85" fill="#b52c1e" fill-rule="evenodd" transform="translate(21.2 2.6)"/><path d="M11.2 29.5q0 1.3-.7 1.3 0 1.05-1.95 2l-1.2 1-.8.25q-.35.1-.5.55l-2.1 1.25q-1.1.7-1.85.8l-1.35-.1-1.4.1-.65-.7-.95.05-1.5-.55-1.75-.5q-1.15-.35-1.05-1.1Q-8 33.35-9 31.7l-.65-1.3-1.7-1.4 11.5-1.85q7-.45 11.05 2.35" fill="#ff3d2b" fill-rule="evenodd" transform="translate(21.2 2.6)"/><path d="m9.5 23.35-.05.95 1.35.95q.85 2.4-.6 3.45 1 .5-.75 2.65-1.1 1.2-3.85 1.5.35 1.8-1.75 2-2 .2-3-.85-.45 1.15-2.9.9l-1.7-.4q-.7-1.3-1.35-1.55-1.6.15-2.5-.45-.55-.35-.7-1l-.35-1.05q-1.45-.5-1.8-1.95l-.3-2.6q-.7-2.8.7-4l-.5.05q1.2-2.9 1.6-3.15.9-.6 4.15-.05l10.95 1.8q1.75.2 2.2.7.75.7 1.15 2.1" fill="#fff767" fill-rule="evenodd" transform="translate(21.2 2.6)"/><path d="m-11.1 24.7.45-.35q.4-.25.2.55-.35 1.2.9 3.6l-.95.2-.15-2-.45-2" fill="#ebab42" fill-rule="evenodd" transform="translate(21.2 2.6)"/><path d="M4.15 17.55q2.7.6 4.55 5.4 1.45 3.7.3 5.95-10.5-4.25-18.6-.4-.8-1.5-.9-3.15-.05-1.75.65-3.35l.6-1.5 5.6-1.7q6-1.65 7.8-1.25" fill="#b52c1e" fill-rule="evenodd" transform="translate(21.2 2.6)"/><path d="m9.5 29-.25.45q-1.65 2.5-6.35 3-6.85.65-10.3-1.5-1.35-.85-2.2-2.45 8.2-3.9 19.1.5" fill="#ff3d2b" fill-rule="evenodd" transform="translate(21.2 2.6)"/><path d="M.85 26.75q5.45-.2 7.6 2.75-2.1 2.1-4.55 2.35-6.8.65-10.05-1.4-1.35-.85-2.15-2.3 7.25-1.35 9.15-1.4" fill="#fff" fill-rule="evenodd" transform="translate(21.2 2.6)"/><path d="M5.1 17.5q2.65.55 4.45 5.2 1.35 3.4-.25 5.8l-.85 1Q6.3 26.55.85 26.75q-1.9.05-9.15 1.4-.8-1.5-.9-3.1-.05-1.5.65-3.2l.6-1.45 5.5-1.65q5.8-1.6 7.55-1.25" fill="#d5d5d5" fill-rule="evenodd" transform="translate(21.2 2.6)"/><path d="M7.45 25.45q-.2 1.75-1.4 3.05-1.8 2.05-5.15 1.7-5.55-.55-7.95-3-.9-1-1.3-2.25L-.2 24q4.6-.15 7.65 1.45" fill="#fff767" fill-rule="evenodd" transform="translate(21.2 2.6)"/><path d="M4.75 19.25q2.1 1 2.8 5.45.35 1.95-.85 3.2-2.9-1.55-6.3-1.25l-7.2.85q-2.45-2.7-2.25-3.95l2-2.8.7-1.2 4.75-.5 6.35.2" fill="#ebab42" fill-rule="evenodd" transform="translate(21.2 2.6)"/><path d="M.1 19.9q1.6-.5 2.35.25.4.4.3 1.55-.1 1.2.2 1.6.4.55 1.25.4.8-.1.95-.65.1.95-1.1 1.85l-1.2-.05q-.9.65-.8.9.35.9 1.95.3 1.5-.6 1.75-1.35.4 2.8-2.6 3.2h-1.3q-1 .05-.7.65l2.2.1Q2.75 30 .15 29.8q-2.15-.2-3.5-1 1.45.05 1.3-.45-.1-.45-1.3-.8l-2.35-2.3q3.3 1.65 3.35.55 0-.5-1.25-1.5l-1.5-1.5 1.2.6q.35.85.9.85l.4.05-.4-.75 1.05-.05q.4-.25.4-1.05t-.35-1.25q.5-.85 2-1.3" fill="#d63423" fill-rule="evenodd" transform="translate(21.2 2.6)"/><path d="M.1 19.9q1.6-.5 2.35.25.4.4.3 1.55-.1 1.2.2 1.6.4.55 1.25.4.8-.1.95-.65.1.95-1.1 1.85l-1.2-.05q-.9.65-.8.9.35.9 1.95.3 1.5-.6 1.75-1.35.25 1.85-1.2 2.7-1.6-.4-8.55-.15l-1.7-2q3.3 1.65 3.35.55 0-.5-1.25-1.5l-1.5-1.5 1.2.6q.35.85.9.85l.4.05-.4-.75 1.05-.05q.4-.25.4-1.05t-.35-1.25q.5-.85 2-1.3" fill="#bd2f1f" fill-rule="evenodd" transform="translate(21.2 2.6)"/><path d="M9.8 24.3q-.15 2.65-1.45 3.5L6.3 24.3h3.5m-18.45-.35h2.8l-1.65 3.5q-.65-.5-.95-2.05l-.2-1.45" fill="#868d87" fill-rule="evenodd" transform="translate(21.2 2.6)"/><path d="M9.1 28.95q1.3-2.2 1.15-3.45.55 0 .65.3L9.5 29l-.4-.05" fill="#b52c1e" fill-rule="evenodd" transform="translate(21.2 2.6)"/><path d="m.3 24.05-.15-.5-.35.35-.2-.25-.15.25-.45-1-1.25 1.15q-1.4-1.45-2.35-.3l-1.05-.95-1.05 2.1-1.25-2q-.5.25-.7 1.25l-.95-1.2-.95 1.7-.45-.85-.35.95q-.75-1.05-.15-2.45h-.15q0-2.7 4.05-4.65 3.2-1.5 8.15-1.35 4.35.1 6.75 1.65 1.4.9 3.4 4.25 1.35 2.35.55 3.55l-.2-.45-.35.45-.1-.2-.4.3-.4-.45-.4.1-.15-.55-.15.2-.4-.55-.4.3-.3-.85-.25.4-.2-.3-.35.55q-.2-1.05-.75-1.3l-.55.5-.4-.85q-1.15.7-1.65.25l-.95.75q-.3-.55-.3-.9l-.85.65-.15-.25-.55.6-.35-.6-.4.5" fill="#dc3724" fill-rule="evenodd" transform="translate(21.2 2.6)"/><path d="m1.95 23.05.25-.2.65-.3.3.7.75-.6.3.3q.2.2.85-.2l.2-.15.5-.1.35.55.2-.25.35.15.65.6.2-.5.3.55.4-.35.35.85.25-.25.35.5.35-.45.25 1 .2.05h.15l.2.25.6-.55.25-.35.4 1 .1.2-.25.15-.35.5-.6.65-.15-.45-.1.25-.55-.6H9.3l-.25-.05H9l-.4-.65v.05l-.55.3-.2-.6-.05.1-.2-.15-.7.9-.2-1.1-.25-.7-.1.05-.6.4-.45-.8-1.4.15-.7.55-.6.25-.25-.7-.2.1-.2.2h-.2l-.15-.05-.15.2-.5.4-.3-.45-.65.7-.15-.7H-.2l-.1-.05-.35.4-.55-.95v-.05l-1.05 1-.35-.35q-.7-.8-1.05-.75l-.6.45-.3.4-1-.9-.05.05-.6 1.3-.15 1.15-1.15-1.35-.55-.75-.1.25-.15.7-.6-.4-.65-.6V24l-.65 1.05-.45.3-.45-.55-.75-.05.3-.9.1-.2.85.15 1-1.9.75 1.35.65-.75.75-.4v.8l.55 1 1.15-1.85 1.15 1.05q.45-.45.95-.45.6-.05 1.4.75l.9-.9.55-.3.45.95.15.05.5-.75.25.65.3-.2.3.45v-.05l.45-.7.25.5.1-.05" fill="#731b13" fill-rule="evenodd" transform="translate(21.2 2.6)"/><path d="M4.45 20.5 3.3 20l-4.3-.65-1.45-.35h-1.7l-2.6 1-2 .3-.25.9q-.05.5-.65.9-.5.35-1.65.7l-.75 1.05-.85-.1-.55.5-.7.45q-.4.25-.75-.2l-.3.5-.65-.1 2.1-2.75 1.2-.75 1.2-.9.8-.8 2.3-1.7q7-3.1 16.05 1.15 4.15 1.95 8.3 8.7-.55.45-1.15.4-.6-.05-.6-.7l-1.5-.05-.2-1.15Q10.6 25 10.1 24.55l-1.05-1-.3-.65q-.55-.1-.75-.3l-.55-1.05q-.75-1.05-1.3-1.15l-1.7.1" fill="#f33a28" fill-rule="evenodd" transform="translate(21.2 2.6)"/><path d="m-13.8 20.25-.35-.35.15-.5.2.85" fill="#ff3d2b" fill-rule="evenodd" transform="translate(21.2 2.6)"/><path d="m7.35 16.4 2.2.15q1.5.5 1.65 1.3 1.45-.35 2.15.9l1.15 2.6q.3-.6.8-.35t.4.85q.25-1.15 1.3-.35.05 1.05-.8 1.85 1.05-.75 1.15.15.05.5-.8.75l.15.85q.15.5-.35.9.85.95-.25 1.85l-1.5-1.8-1.15-1.4-.6-.2-.35-.75-1.35-1-.15-.55-2.85-1.5-.25-.45-.8-.05-.75-.6h-.6L4.6 18.9l-.35.1q-5.35-1.6-10.4-.6l-.55.4q-.75-.3-1.45 0-.25.7-.7.9l-1.6.2-.8.5-.4.65-1.6 1-.95 1.3-1.65 1.55q-.35-.3-.2-1l.6-1q-2.8 0-1.6-1.25-.35-.55 1.25-.8l-.5-.35.05-.2.85-.05q-.75-.6.1-1.15.8-.5 1.3.3l-.15.5.35.35-.2-.85.55-1.4 2-.9 2.2-1.35 1.5-.25 2.6-.75 2.25-.35 1-.2 1-.75q1.05-.4 3.15.65 2.65 1.3 3.2 1.4 1.2.25 1.9.9" fill="#ff3d2b" fill-rule="evenodd" transform="translate(21.2 2.6)"/><path d="M-8.35 16.2q.9-.65 3.5-.4l2.4.35-2.25 1.3q-.85.65-2.9 1.1l-3.45.1 1.2-.2q1.3-.05 1.9-.5.25-.15-.4-1.75" fill="#ff7670" fill-rule="evenodd" transform="translate(21.2 2.6)"/><path d="M.75 20.5H-.6l-2.5-.1q-1.05-.5-1.8-2.25t-.1-2.4q.65-.6 1.85-.25 1.15.35 1.65 1.15l.05-1.25q.25-1.25 1.1-1.25 2.75 0 2 2.85 2.05-1.4 2.75-.35.55.95-.55 2.55-1.25 1.75-3.1 1.3" fill="#52de4d" fill-rule="evenodd" transform="translate(21.2 2.6)"/><path d="M1.55 15.35q.25.65-.1 1.9 1.05-.65 1.35-.75.65 1.85-.15 3.45-.9.6-1.95.4H-.5l-2.2-.1-.9-.8q.1-2.7.85-3.55 1.05.35 1.45 1.05l.2-1.6q1.5-.25 2.65 0" fill="#50d04b" fill-rule="evenodd" transform="translate(21.2 2.6)"/><path d="M.65 18.7q.9-.85 2.1-.7.6.1 1 .35-.95 1.7-1.8 1.9l-2.95-.2q-1.7.25-2.65-.75l-.65-1.1q1.35-.7 3.2.6l1.75-.1" fill="#4da546" fill-rule="evenodd" transform="translate(21.2 2.6)"/><path d="M-2.2 20.3q-1.75.15-1.4-1.9 1.75-.2 1.4 1.9m5.15-1.9q.35 2.1-1.4 1.9-.35-2.05 1.4-1.9" fill="#498042" fill-rule="evenodd" transform="translate(21.2 2.6)"/><path d="m-.05 16.5-.1.05.1-.1v.05q.45-.2.4.6-.1.85-.4 1.2-.25-.45 0-1.8" fill="#eaeaea" fill-rule="evenodd" transform="translate(21.2 2.6)"/><path d="M-.35 30.9 0 32.05h-.6l.25-1.15m3.25 1.15V30.9l1 1.05-1 .1m4.6-1.5-1.1-1.1 1.7.5-.6.6M-3.9 31.7h-.2l-.55-.15 1.15-.9-.4 1.05m-4.25-1.8 1.05-.75-.3 1.3-.75-.55" fill="#ff3d2b" fill-rule="evenodd" transform="translate(21.2 2.6)"/><path d="m1.7 11.8 1.1-3.15L5.55 7.3l2.5-.85q.4 0 1.65 1.45.7.75-.5 2.05L8.15 9.9l-.85-.85-1.15.15-4.45 2.6m-3.3-1.65.4 2.5-5.8-3.6-1.15-.2-.85.85-1.1.1q-1.15-1.35-.5-2.1 1.3-1.4 1.7-1.4h3.4l1.85 2.15 2.05 1.7" fill-rule="evenodd" transform="translate(21.2 2.6)"/><path d="M10.25 5.8q.9.25.9.65 1.6.25 1.65.65l-.45 1.95-.25 2.4q.5.85-.75 1.6-.2.4-.3 1.5l-.3 1.45q-.35 1.1-.8 1.3-.95.55-1.4-.15-.4-.6-.05-1.45.6-.6.7-1.35l-.15-1.3.3-.85q-.35-.55-.15-.65l-.25-.85.1-1.65.15-.95-.55-.2-.7-.5-.65.3-.55.5-.85.1-.65.5-.55.1-.55.55-1.5 1.35q-.8.75-2.25 3.2l-.5-.35Q-4 10.7-.1 7.9q.75 0 1.1-.7 1-1.6 1.55-2l1.1.1 1.25-.55q.3-.05 1.25.4l1.05-.2q.15 0 .5.3l2.55.55" fill="#ff3d2b" fill-rule="evenodd" transform="translate(21.2 2.6)"/><path d="M-2.75 5.2q.55.4 1.55 2l1.1.7v5.75l-.5.35q-1.5-2.45-2.25-3.2l-1.5-1.35q-.3-.45-.55-.55l-.55-.1-.65-.5-.85-.1-.55-.5q-.3-.2-.5-.25l-.65.45-.55.2.15.95q.15.75.05 1.65l-.2.85q.2.1-.15.65l.3.85-.2 1.3q.1.75.75 1.35.4.85-.05 1.45-.45.7-1.45.15l-.75-1.3-.35-1.45-.25-1.5q-1.25-.75-.75-1.6l-.25-2.4-.45-1.95q0-.4 1.65-.65 0-.4.9-.65l2.1-.45V5.3l.25-.05.5-.3 1.05.2 1.25-.4q.55.1 1.25.55l1.1-.1" fill="#ff3d2b" fill-rule="evenodd" transform="translate(21.2 2.6)"/><path d="M-11.85 15.05q.2.55.85.7l-.25-.7q.75.5 1.5.5l.1.4-1.3.65q-1.15-.8-.9-1.55m6-10.3 1.75.35q.7.15.95 1.15l.65.6.45 1.05q-.8-1.05-1.8-1.55l-1.1-1-.9-.6M.1 9.05l1.25 1.8q.1.75-.75.2-.5-.35-.5-2m14 14.75.8 1.15q.1.5-.5.1-.3-.2-.3-1.25M4.3 6l.5-.15q.4 0-.3.6Q3.45 7.4 2.4 9l.3-1.3L4.3 6m-16.65 12.4.5-.15q.35 0-.3.6-1 .9-2.05 2.45l.3-1.25 1.55-1.65m1.85-11.85.8.55-1.45 1-.5.9-.05-.6 1.2-1.85m21.65 12.8q.15-.35.65-.2l.45.2-.75 1.85.1 1.2-.45-.55q-.25-1.85 0-2.5M-11.8 1.9l-1.45.05.5-.4 1.15.1 1.05.85-1.25-.6m-.05 9.75.6 1.6 1.2 1.45-1.45-.6-.6-1.8.25-.65m22.8-2.9-1.1 2.75-.1-1.1.8-2.1-.25-1.5.65.2.25.35-.25 1.4m.55-6.55 1.55-.45.15.3-.05.25-.35-.1-.35.05-.55.4-.4-.45m-3 14.05.85-1.1-.05.75.95-.6-.35.55.4-.3q-1.1 1.85-1.45.7H8.5" fill="#de3725" fill-rule="evenodd" transform="translate(21.2 2.6)"/><path d="M-13.8 15.9q2.55 1.45 4.1 1.95l-.9.2Q-12.4 18-13.75 16l-.05-.1" fill="#ebab42" fill-rule="evenodd" transform="translate(21.2 2.6)"/><path d="M-14.95 12.4q.85.75 2.1 2.6 1.25 1.4 2.9 1.2h.15q1 .2.95.75-.1.55-.85.9-1.55-.5-4.1-1.95-1.6-2.4-2.35-3.05-1.3-1.15-3.75-1.3 4.05 0 4.95.85" fill="#fff645" fill-rule="evenodd" transform="translate(21.2 2.6)"/><path d="m6.75 18.05 3.85.35q-.9.75-2.1.8-1.85.1-1.75-1.15" fill="#ebab42" fill-rule="evenodd" transform="translate(21.2 2.6)"/><path d="M6.75 18.05q0-.5.9-.7h.15q1.65.2 2.9-1.2 1.3-1.85 2.1-2.6.9-.85 4.95-.85-2.4.15-3.75 1.35-.7.6-2.4 3.1l-1 1.25-3.85-.35" fill="#fff645" fill-rule="evenodd" transform="translate(21.2 2.6)"/><path d="m9.5 29 1-2.8.55-.05q.65 1.6-.85 2.55.35.1.5.65L9.5 29" fill="#ebab42" fill-rule="evenodd" transform="translate(21.2 2.6)"/><path d="M-.85 14.45q.45-.3.55.45.05.75-.4.85-.45.15-.55-.4-.1-.6.4-.9" fill="#bff8bd" fill-rule="evenodd" transform="translate(21.2 2.6)"/></g></defs></svg>