<?xml version="1.0" encoding="UTF-8" standalone="no"?>
<svg xmlns:xlink="http://www.w3.org/1999/xlink" height="58.65px" width="49.15px" xmlns="http://www.w3.org/2000/svg">
  <g transform="matrix(1.0, 0.0, 0.0, 1.0, 24.1, 18.1)">
    <use height="4.8" transform="matrix(1.0, 0.0, 0.0, 1.0, -12.95, 14.4)" width="25.2" xlink:href="#shape0"/>
  </g>
  <defs>
    <g id="shape0" transform="matrix(1.0, 0.0, 0.0, 1.0, 12.95, -14.4)">
      <path d="M-11.2 14.4 L-10.75 14.45 -12.65 17.3 Q-13.15 16.2 -12.8 15.35 -12.45 14.35 -11.2 14.4" fill="#44ad00" fill-rule="evenodd" stroke="none"/>
      <path d="M-10.75 14.45 Q-9.85 14.6 -8.85 15.1 L-9.5 19.1 -9.85 19.2 Q-11.7 19.2 -12.65 17.3 L-10.75 14.45" fill="#fff100" fill-rule="evenodd" stroke="none"/>
      <path d="M-7.6 16.35 Q-7.4 17.1 -8.0 18.0 -8.65 18.9 -9.5 19.1 L-8.85 15.1 Q-7.8 15.7 -7.6 16.35" fill="#44ad00" fill-rule="evenodd" stroke="none"/>
      <path d="M10.45 14.4 Q11.75 14.35 12.1 15.35 12.45 16.2 11.9 17.3 L10.0 14.45 10.45 14.4" fill="#44ad00" fill-rule="evenodd" stroke="none"/>
      <path d="M10.0 14.45 L11.9 17.3 Q10.95 19.2 9.1 19.2 L8.75 19.1 8.1 15.1 Q9.1 14.6 10.0 14.45" fill="#fff100" fill-rule="evenodd" stroke="none"/>
      <path d="M6.9 16.35 Q7.05 15.75 8.1 15.1 L8.75 19.1 Q7.9 18.9 7.3 18.0 6.7 17.1 6.9 16.35" fill="#44ad00" fill-rule="evenodd" stroke="none"/>
    </g>
  </defs>
</svg>
