<svg xmlns:xlink="http://www.w3.org/1999/xlink" height="58.65" width="49.15" xmlns="http://www.w3.org/2000/svg"><use height="16.75" transform="translate(8.95 20.7)" width="30.3" xlink:href="#a"/><defs><g id="a" fill-rule="evenodd"><path d="m12.35 9.85-.05-.15-.85.15-.2-.65q-.5-1.95-2.05-3.1l-1.3-.7Q4.4 4.2-.05 4.1q-3.8-.05-7.85 1.25-2.6 1.05-3.4 3.85l-.25.65-.75-.15-1.1 2.35-.15.5 1.35.25h.55l.15.9.55 1.75q.55 1.5 1.5 2Q-6.7 18.8-1.25 16h.05l.45-.15.1-.05.35-.1h.75l.2.1.45.15.3.15q5.35 2.4 7.85 1.45.5-.1 1.15-1.4l.05-.1.15-.1q.9-.75 1.05-2.5l.05-.6.6-.1 1.25-.2-1.2-2.7m.1-1.65q.8 0 1.1.65l.2.45q1.4 2.8 1.4 3.55 0 1-2.15 1.35-.3 1.85-1.4 2.85l.1-.2-.15.25.05-.05q-.8 1.55-1.8 1.9-3.3 1.25-9-1.5l-.2-.1-.55-.2-.7.2q-6 3.1-9.45 1.45-1.6-.8-2.2-2.8l-.6-1.8q-2.25-.25-2.25-1.35l.4-1.4 1.2-2.6q.2-.6 1.05-.65 1.15-3.1 4.1-4.25Q-4.25 2.55 0 2.6q4.7.1 8.4 1.35.9.4 1.7.95 1.55 1.1 2.35 3.3" transform="translate(15.15 -2.6)"/><path d="M7.45 18.55Q6.2 18.6 4 17.5l-.75-.4-1.4-.45.1-.3q.75.15 1.35.5l3.65.25q2.4-.45 4.4-1.45l.15.2q-1.9 2.6-4.05 2.7M7 17.4q-1.1.2-2.55 0 3.9 1.85 6.4-1.25-1.7.8-3.85 1.25" transform="translate(15.15 -2.6)"/><path d="M7.7 6.05q-3.15-1.2-5.6-.9l-2.1.1-2.1-.1q-2.5-.3-5.65.9-3.85 1.5-3.7 5.75.15 3.5 1.75 4.7l6.1-.15 1.55-.4q1.2-1.2 2.05-1.1 1.15.15 1.95 1.05l1.6.45 6.1.15q1.7-1.2 1.75-4.7.15-4.25-3.7-5.75M0 5.1v-.15l2.05-.05q2.65-.3 5.75.9 4.05 1.45 3.9 6-.15 3.65-1.9 4.9-1.75 1.3-6.35-.1l-1.65-.45q-.75-.85-1.85-1Q-.8 15-1.9 16.2l-1.6.4q-4.6 1.4-6.35.1-1.75-1.25-1.9-4.9-.15-4.5 3.9-6.05 3.1-1.15 5.75-.85l2.05.05.05.15" transform="translate(15.15 -2.6)"/><path d="m1.2 15.7.35.15q4.65 2.25 7.7 1.1 1.5-.6 1.95-1.75l1-1.2q-1.65 3.85-2.65 4.25-3.1 1.2-8.45-1.5l-.35-.15-1.1-.1-.45.15q-5.8 2.95-8.95 1.45-1.2-.55-1.8-2.2l-.4-1.6.85.8.4.7 1.4 1.15q2.95 1.45 8.05-1.25h.1l.45-.15 1.9.15" fill="#00387a" transform="translate(15.15 -2.6)"/><path d="M0 14.05q1.1.15 1.75.9 1.2.2 5.05 1.35 3.4.2 3.7-4.15l1.9-.6v.05q.15 3.6-1.25 4.85Q8.65 18.6 1 16.7l-1-.25-1 .25q-6.25 1.65-8.75.7-1.9-.7-2.5-3.55l2.1.05q.8 2.8 3.9 2.35 1.7-.25 4.5-1.3 1-1 1.75-.9" fill="#005ad2" transform="translate(15.15 -2.6)"/><path d="M0 3.35q4.6.1 8.15 1.3 3.9 1.55 4.25 6.9l-1.9.6v-.35q.15-3.85-3.45-5.2-2.55-.95-4.25-.85L0 5.9l-2.8-.15q-1.65-.1-4.25.85-3.55 1.35-3.4 5.2l.3 2.1-2.1-.05-.15-2.25q.25-5.4 4.2-6.95 4.25-1.4 8.2-1.3" fill="#0078f9" transform="translate(15.15 -2.6)"/><path d="M-11.8 9.5q-1 .8-1.5.55l.4-.85 1.2-.1-.1.4" fill="#003fc1" transform="translate(15.15 -2.6)"/><path d="M-11.8 9.5q-.3 1.3-.2 2.95l-2.1-.7.8-1.7q.5.25 1.5-.55" fill="#002f90" transform="translate(15.15 -2.6)"/><path d="m-14.1 11.75 2.1.7.15 1.1q-2.55-.1-2.55-.7l.3-1.1" fill="#001c58" transform="translate(15.15 -2.6)"/><path d="m.25 4.45-2.2-.1q-3.4.05-7.95 1.9.65-1.35 5.45-2.15l4.7-.55 4.7.55q4.85.8 5.45 2.15-4.55-1.85-8-1.9l-2.15.1m-11.65 10.8 4.45 1.45 4.2-.25q-1.2.8-3.7.9-3.45.2-4.95-2.1" fill="#0cabfb" transform="translate(15.15 -2.6)"/><path d="M11.2 15.75Q10 17.2 7.7 17.4l.65-.95 2.85-.7" fill="#008be2" transform="translate(15.15 -2.6)"/><path d="m6.6 16.7 1.75-.25-.65.95q-3.2.15-5.25-1.45l1.15.45 3 .3" fill="#0cabfb" transform="translate(15.15 -2.6)"/><path d="M0 5.1q5.7.2 8.05 1.45 2.9 1.5 3.3 5.4.35 3.75-3.65 4.4-3.65.65-5.6-1.3 4.75.15 5.85-.6 2.85-1.6 1.6-5.2Q9 7.7 4.45 6.85L0 6.3l-4.45.55q-4.55.85-5.1 2.4-1.5 3.95 1.4 5.55l6 .25q-2.25 1.85-5.75 1.3-3.8-.65-3.45-4.4.35-3.85 3.5-5.35Q-5.5 5.4 0 5.1" fill="#00356e" transform="translate(15.15 -2.6)"/><path d="m0 5.75 3.35.15Q1.15 10 .1 14.6H0l-1.15.1q-.95.2-.9.55-3.2.3-5.25.05-3.85-.55-3.4-3.45.65-4.05 3.25-5.05Q-4.05 5.65 0 5.75" fill="#00a0fa" transform="translate(15.15 -2.6)"/><path d="M5.85 6.35q-2.6 2.6-3.35 8.9h-.45Q2.1 14.8.1 14.6 1.15 10 3.35 5.9l2.5.45" fill="#002f90" transform="translate(15.15 -2.6)"/><path d="M10.65 11.85q.75 3.6-8.15 3.4.75-6.3 3.35-8.9l1.55.45q2.5.95 3.25 5.05M-7.45 6.8l2.3-.6q-3.1 4.6-3.4 8.8l-1.6-.7q-.65-.7-.55-2.6.25-3.85 3.25-4.9" fill="#0064ef" transform="translate(15.15 -2.6)"/><path d="M-.8 6.05Q-9.3 8.55-10 14q-.3-1.1-.15-2.4Q-10 8.1-7.2 7q3-.95 6.4-.95" fill="#0086fa" transform="translate(15.15 -2.6)"/><path d="m1.3 5.75.75.05q-2.3 2.15-4.9 9.6l-2.15.8q1.5-5.7 6.3-10.45" fill="#fff" transform="translate(15.15 -2.6)"/><path d="M10 11.15q.3 5.15-4.35 3.75 2.25-1.05 2.8-2.3.8-1.7-.4-5.3 1.8 1.1 1.95 3.85" fill="#002f90" transform="translate(15.15 -2.6)"/><path d="M-.5 6.45q-4.8.6-8.35 4.15-1.25 1.25-.65-.4 1.15-2.55 5.45-3.4l3.55-.35" fill="#fff" transform="translate(15.15 -2.6)"/><path d="m2.15 14.2.25-1 4.95 1-.15 1-5.05-1" fill="#002f90" transform="translate(15.15 -2.6)"/><path d="m-11 7.55.9-1.3Q-8.8 5-6.6 4.65L-7 5.7q-1.1.2-2.15 1.2l-.9 1-.95-.35" fill="#bffdfe" transform="translate(15.15 -2.6)"/><path d="M13.1 9.65q1.3 2.6 1.3 3.2 0 .6-2.6.7l.2-2.3 1.1-1.6" fill="#001c58" transform="translate(15.15 -2.6)"/><path d="m12.85 9.2.25.45-1.1 1.6q0-1.15-.35-2.15l1.2.1" fill="#002f90" transform="translate(15.15 -2.6)"/><path d="M2.65 15.05q.1-1.05 2.95-5.3l.8.55q-2.8 4.1-2.95 5.3l-.8-.55" fill="#fff" transform="translate(15.15 -2.6)"/></g></defs></svg>