<svg xmlns:xlink="http://www.w3.org/1999/xlink" height="58.65" width="49.15" xmlns="http://www.w3.org/2000/svg"><use height="16.9" transform="translate(8.3 20.65)" width="31.4" xlink:href="#a"/><defs><g id="a" fill-rule="evenodd"><path d="M15.6 8.55v.55q0 2.65-2.45 3.7l-.1.3q-.75 3.6-4.4 5.55-4 2.05-8.8-1.2-4.9 3-9.15 1.05-3.45-1.6-4.2-4.9l-.45-1.5q-1.85-1.25-1.85-3.35l.1-.9q.65-2.9 3.6-3.15 1.3-1.15 3-1.35l.75-.1 8.2-.7 9.1.75q2.05.3 3.4 1.8 2.7.6 3.2 3.3l.05.15M11.55 6.5l-.2-.3q-.9-1.15-2.6-1.4l-8.9-.75-8 .7-.75.1q-1.5.15-2.4 1.05l-.2.2-.3.05q-2 .1-2.4 2l-.1.6q0 1.5 1.35 2.25l.35.15.05.35.45 1.55.05.05v.1q.6 2.6 3.4 3.95Q-4.8 18.9-.6 15.9l.45-.3.45.35q4.2 3.15 7.65 1.35 2.95-1.45 3.65-4.5v-.1l.4-1 .35-.15q2-.6 1.75-2.8l-.05-.1q-.25-1.8-2.2-2.15h-.3" fill="#74213f" transform="translate(15.8 -2.55)"/><path d="m-15.05 8.75.1-.75q2.5 1.35 6.55 1.55-.7 2.55-3.25 2.55-1.4 0-2.4-1-1-.95-1-2.35" fill="#a03f9e" transform="translate(15.8 -2.55)"/><path d="M-11.65 5.35q3.35 0 3.35 3.4l-.1.8q-4.05-.2-6.55-1.55.6-2.65 3.3-2.65m22.7.4q3.2-.45 3.75 2.8l-6.65.9q-.25-3.25 2.9-3.7" fill="#bc6fba" transform="translate(15.8 -2.55)"/><path d="m8.15 9.45 6.65-.9.05.1q.2 1.4-.65 2.5-.85 1.1-2.25 1.3-1.4.2-2.5-.65-1.1-.85-1.3-2.25v-.1" fill="#a03f9e" transform="translate(15.8 -2.55)"/><path d="M8.3 18q-3.95 2-8.45-1.45-4.5 3.25-8.8 1.25-3.45-1.6-3.95-4.95l.25-3.05q-.15-.95.2-1.95.75-2 3.45-2.4l8.85-.3 8.85.3q4.35.6 3.65 4.35Q13.7 15.2 8.3 18" fill="#a7346d" transform="translate(15.8 -2.55)"/><path d="M8.3 17.15Q4.35 19.1-.15 15.7q-4.5 3.2-8.8 1.25-3.45-1.55-4.3-4.9l-.1-3q0-1.1.55-2.25 1.1-2.35 3.8-2.7l8.85-.8 9 .75q4.35.55 4.05 5.05.8 5.3-4.6 8.05" fill="#f0abc5" transform="translate(15.8 -2.55)"/><path d="M-4.3 5.6q-2.6 1.7-5.2 7.35l-1.4-1.65q-.8-1.55 0-3.5.8-1.9 6.6-2.2" fill="#5b1414" transform="translate(15.8 -2.55)"/><path d="M6.15 5.75Q7 8.15 2.1 10.6q-4.95 2.45-5.3.75.9-1.25-.85-3.15-1.55-1.75-.25-2.6l4.15-.05 6.3.2" fill="#f24370" transform="translate(15.8 -2.55)"/><path d="M10.85 7.85q1.3 4.15-1.5 6.4-1.45 1.1-3.2 1.45 1.65-5.15 0-9.95 4.25.5 4.7 2.1" fill="#d43d6f" transform="translate(15.8 -2.55)"/><path d="M2.1 15.2Q.25 14.1-.4 14.15q-.45.05-2.7 1.05-1.75.85-3.55.3-2.2-.7-3.2-2.9-.9-2.05-.3-4.4.4-1.45 5.1-1.85l4.65-.1 4.65.1q4.7.4 5.05 1.85.6 2.3-.5 4.5-1.1 2.25-3.35 2.95-1.75.55-3.35-.45" fill="#fee4e1" transform="translate(15.8 -2.55)"/><path d="M-1.9 6.6q-2.75 4.15-3.95 8.55l-.2-.05q-2.05-.65-3-2.65-.9-1.9-.3-4 .5-1.85 7.45-1.85" fill="#ffecea" transform="translate(15.8 -2.55)"/><path d="M-3.6 15.15q-1.05.35-2.25 0 1.2-4.4 3.95-8.55h3.75q-3.3 4.45-5.45 8.55" fill="#fff5f4" transform="translate(15.8 -2.55)"/><path d="m1.85 6.6 4.7.45q-7 4.4-9.75 8l-.4.1q2.15-4.1 5.45-8.55" fill="#fea2a8" transform="translate(15.8 -2.55)"/><path d="m6.55 7.05.9.2Q6.35 13 4 15.45q-.95-.05-2.2-.85-1.25-.8-1.95-.75l-3.05 1.2q2.55-3.4 9.75-8" fill="#fdc3c7" transform="translate(15.8 -2.55)"/><path d="M9.05 8.45q.55 2.05-.45 4.1-1.1 2.05-3.2 2.7l-1.4.2Q6.35 13 7.45 7.25q1.4.5 1.6 1.2" fill="#fea2a8" transform="translate(15.8 -2.55)"/><path d="M-9.55 7.5q1.35-.9 7.4-1.05v1l-5.5.5-1.35.4-.55-.85" fill="#fff" transform="translate(15.8 -2.55)"/><path d="m-9.5 15.4.6-.75q2.55 2 4.55 1.05l.25.45q-2.55 1.25-5.4-.75m-1.8-9.5 1.9-.9q2.25-.85 4.5-.9l.05 1q-2.15.05-4.4.7l-1.9.6-.15-.5m15.4 10q2.4.2 4-.9l.55.85q-1.85 1.25-4.5.65l-.05-.6" fill="#f6cddd" transform="translate(15.8 -2.55)"/><path d="M-2.85 9.45q0 1.65-1.65 1.65t-1.65-1.65q0-1.65 1.65-1.65t1.65 1.65m-1.7 3.15q0 .95-.95.95t-.95-.95q0-.9.95-.9t.95.9m5.6-5.35.4.4-3.35 3.95-.75-.65 3.7-3.7" fill="#fff" transform="translate(15.8 -2.55)"/><path d="m-6 12.4 5.2-5.8.75.65-5.2 5.85-.75-.7" fill="#fff" transform="translate(15.8 -2.55)"/></g></defs></svg>