<?xml version="1.0" encoding="UTF-8" standalone="no"?>
<svg xmlns:xlink="http://www.w3.org/1999/xlink" height="58.65px" width="49.15px" xmlns="http://www.w3.org/2000/svg">
  <g transform="matrix(1.0, 0.0, 0.0, 1.0, 24.1, 18.1)">
    <use height="16.75" transform="matrix(1.0, 0.0, 0.0, 1.0, -14.6, 3.1)" width="28.8" xlink:href="#shape0"/>
  </g>
  <defs>
    <g id="shape0" transform="matrix(1.0, 0.0, 0.0, 1.0, 14.6, -3.1)">
      <path d="M10.15 12.45 Q10.6 9.55 9.35 8.15 8.3 7.0 5.7 7.1 L-0.75 7.5 -0.5 4.65 Q10.6 6.5 11.75 7.1 13.35 7.85 12.15 13.9 11.65 17.35 9.15 18.65 7.5 19.6 -0.1 17.85 L-0.1 15.6 8.35 16.0 Q9.65 15.2 10.15 12.45" fill="#000000" fill-rule="evenodd" stroke="none"/>
      <path d="M0.6 7.5 L-5.85 7.1 Q-8.45 7.0 -9.5 8.15 -10.75 9.55 -10.25 12.45 -9.8 15.2 -8.5 16.0 -6.85 17.0 -0.1 15.6 L-0.1 17.85 Q-7.65 19.6 -9.35 18.65 -11.65 17.4 -12.35 13.9 -13.25 7.75 -11.9 7.1 L0.35 4.65 0.6 7.5" fill="#000000" fill-rule="evenodd" stroke="none"/>
      <path d="M-0.25 12.45 Q0.95 12.45 3.25 16.45 L-3.6 15.85 -2.35 14.15 Q-0.95 12.45 -0.25 12.45" fill="#000000" fill-rule="evenodd" stroke="none"/>
      <path d="M12.65 7.95 Q10.6 4.1 -0.15 4.1 L-0.25 4.1 Q-10.95 4.1 -13.1 7.95 -14.05 9.8 -13.2 14.05 -12.25 18.6 -10.0 18.85 L-5.65 18.45 -0.2 17.7 Q2.05 17.7 5.25 18.45 L9.6 18.85 Q11.85 18.6 12.8 14.05 13.65 9.8 12.65 7.95 Z" fill="none" stroke="#57002e" stroke-linecap="round" stroke-linejoin="round" stroke-width="2.0"/>
      <path d="M1.5 14.1 L5.25 15.65 7.95 16.65 4.9 17.1 1.35 15.2 1.5 14.1" fill="#000000" fill-rule="evenodd" stroke="none"/>
      <path d="M-2.1 14.1 L-1.9 15.2 -5.5 17.1 -8.55 16.65 -5.85 15.65 -2.1 14.1" fill="#000000" fill-rule="evenodd" stroke="none"/>
      <path d="M9.6 18.85 L5.25 18.45 Q2.05 17.7 -0.2 17.7 L-5.65 18.45 -10.0 18.85 Q-12.25 18.6 -13.2 14.05 -14.05 9.8 -13.1 7.95 -10.95 4.1 -0.25 4.1 L-0.15 4.1 Q10.6 4.1 12.65 7.95 13.65 9.8 12.8 14.05 11.85 18.6 9.6 18.85 M8.2 6.7 Q4.6 5.7 0.4 5.7 L-0.8 5.7 Q-5.05 5.7 -8.65 6.7 -12.0 7.65 -12.45 8.7 -12.85 9.75 -11.7 13.65 -10.6 17.5 -9.8 17.8 -9.35 17.95 -5.65 16.25 -1.75 14.45 -0.45 14.55 1.1 14.65 0.0 14.55 1.65 14.45 5.4 16.3 8.9 18.05 9.35 17.8 10.2 17.4 11.3 13.55 12.4 9.75 12.0 8.7 11.6 7.65 8.2 6.7" fill="#ff00a6" fill-rule="evenodd" stroke="none"/>
      <path d="M-1.75 14.65 Q-1.05 14.55 -0.05 15.4 0.9 16.2 1.05 16.95 1.25 17.65 -0.15 17.7 L-2.25 17.65 -6.1 18.4 Q-8.9 19.35 -10.25 18.75 -10.9 18.45 -9.15 17.65 L-6.6 16.6 Q-2.6 14.8 -1.25 14.75 L-1.75 14.65" fill="#b80077" fill-rule="evenodd" stroke="none"/>
      <path d="M0.9 5.15 L3.5 5.25 8.6 6.1 Q12.8 7.35 12.6 10.0 L12.1 13.1" fill="none" stroke="#fefffa" stroke-linecap="round" stroke-linejoin="round" stroke-width="1.0"/>
      <path d="M-0.25 14.85 L2.85 15.6 Q4.9 16.25 6.6 17.5" fill="none" stroke="#fefffa" stroke-linecap="round" stroke-linejoin="round" stroke-width="1.0"/>
      <path d="M-13.35 11.75 Q-13.8 8.4 -11.85 8.0 L-12.35 8.5 -12.6 9.15 Q-12.5 11.4 -11.85 13.5 -10.85 16.5 -10.25 17.35 L-9.35 17.9 -8.75 18.6 -10.75 18.4 Q-12.6 17.7 -13.35 11.75" fill="#b80077" fill-rule="evenodd" stroke="none"/>
    </g>
  </defs>
</svg>
