<?xml version="1.0" encoding="UTF-8" standalone="no"?>
<svg xmlns:xlink="http://www.w3.org/1999/xlink" height="58.65px" width="49.15px" xmlns="http://www.w3.org/2000/svg">
  <g transform="matrix(1.0, 0.0, 0.0, 1.0, 24.1, 18.1)">
    <use height="17.0" transform="matrix(1.0, 0.0, 0.0, 1.0, -11.1, 6.55)" width="12.25" xlink:href="#shape0"/>
  </g>
  <defs>
    <g id="shape0" transform="matrix(1.0, 0.0, 0.0, 1.0, 11.1, -6.55)">
      <path d="M-6.6 18.2 L-6.6 18.5 -6.85 18.75 -6.85 19.25 -7.1 19.7 Q-7.1 20.2 -7.35 20.25 L-7.1 20.75 Q-7.1 21.25 -7.35 21.5 L-7.1 22.05 Q-6.85 22.25 -6.85 22.75 -6.85 23.25 -7.85 23.55 L-8.85 22.75 Q-9.1 22.25 -8.6 22.05 -9.1 22.05 -9.1 21.0 -9.35 20.5 -8.85 20.25 -9.35 19.95 -9.1 19.0 L-9.1 17.35 -8.6 17.45 -6.6 18.2" fill="#772f00" fill-rule="evenodd" stroke="none"/>
      <path d="M-0.1 12.2 Q-0.1 7.55 -5.1 7.55 -9.9 7.55 -9.85 13.2 -9.9 17.05 -5.1 17.1 -0.1 17.05 -0.1 12.2 M-5.35 18.6 Q-11.1 18.55 -11.1 12.95 -11.1 6.55 -4.85 6.55 1.15 6.55 1.15 12.2 1.15 18.55 -5.35 18.6" fill="#772f00" fill-rule="evenodd" stroke="none"/>
      <path d="M-0.2 12.4 Q-0.2 14.4 -1.6 15.75 -2.95 17.15 -4.95 17.15 -6.95 17.15 -8.3 15.75 -9.7 14.4 -9.7 12.4 -9.7 10.4 -8.3 9.05 -6.95 7.65 -4.95 7.65 -2.95 7.65 -1.6 9.05 -0.2 10.4 -0.2 12.4" fill="#a0bff0" fill-opacity="0.5803922" fill-rule="evenodd" stroke="none"/>
      <path d="M-7.25 18.1 L-7.4 18.35 -7.8 18.65 Q-7.65 18.85 -7.75 19.3 L-7.8 19.6 -8.2 20.1 -8.0 20.7 -7.95 21.0 -8.1 21.6 Q-7.8 21.7 -7.7 22.15 L-7.55 22.45 Q-7.35 23.15 -7.8 23.25 -8.25 23.35 -8.4 22.65 L-8.55 22.35 -8.45 21.7 Q-8.8 21.55 -8.8 21.0 L-8.85 20.7 Q-8.9 20.25 -8.6 20.05 -8.8 19.7 -8.65 19.35 L-8.6 19.05 -8.25 18.55 Q-8.4 18.2 -8.1 17.8 L-7.95 17.5 Q-7.4 17.0 -7.15 17.25 -6.75 17.55 -7.25 18.1" fill="#f8a235" fill-rule="evenodd" stroke="none"/>
      <path d="M-7.8 17.6 L-7.6 17.35 Q-7.2 16.75 -6.8 17.05 -6.45 17.3 -6.95 17.9 L-7.1 18.2 -7.5 18.45 Q-7.3 18.75 -7.45 19.1 L-7.5 19.4 Q-7.55 19.75 -7.85 19.95 -7.7 20.1 -7.7 20.5 L-7.6 20.8 -7.8 21.4 Q-7.5 21.45 -7.35 21.95 L-7.25 22.25 Q-7.05 22.95 -7.5 23.05 -7.9 23.15 -8.1 22.45 L-8.25 22.2 -8.15 21.5 Q-8.5 21.4 -8.5 20.85 L-8.55 20.5 -8.3 19.85 -8.35 19.15 -8.3 18.85 -7.95 18.35 -7.8 17.6" fill="#ffdc00" fill-rule="evenodd" stroke="none"/>
      <path d="M-2.0 9.5 Q-3.3 8.2 -5.15 8.2 -7.0 8.2 -8.3 9.5 -9.6 10.8 -9.6 12.65 -9.6 14.5 -8.3 15.75 -7.0 17.05 -5.15 17.05 -3.3 17.05 -2.0 15.75 -0.7 14.5 -0.7 12.65 -0.7 10.8 -2.0 9.5 M-8.85 8.9 Q-7.3 7.35 -5.15 7.35 -3.0 7.35 -1.45 8.9 0.1 10.45 0.1 12.65 0.1 14.85 -1.45 16.35 -2.95 17.9 -5.15 17.9 -7.3 17.9 -8.85 16.35 -10.4 14.85 -10.4 12.65 -10.4 10.45 -8.85 8.9" fill="#f19300" fill-rule="evenodd" stroke="none"/>
      <path d="M-1.8 9.35 Q-3.1 8.05 -4.9 8.05 -6.7 8.05 -7.95 9.35 -9.25 10.6 -9.25 12.4 -9.25 14.2 -7.95 15.5 -6.7 16.75 -4.9 16.75 -3.1 16.75 -1.8 15.5 -0.55 14.2 -0.55 12.4 -0.55 10.6 -1.8 9.35 M-8.55 8.75 Q-7.05 7.25 -4.9 7.25 -2.75 7.25 -1.25 8.75 0.25 10.25 0.25 12.4 0.25 14.55 -1.25 16.05 -2.75 17.55 -4.9 17.55 -7.05 17.55 -8.55 16.05 -10.05 14.55 -10.05 12.4 -10.05 10.25 -8.55 8.75" fill="#ffdc00" fill-rule="evenodd" stroke="none"/>
      <path d="M-5.05 8.45 Q-7.8 8.45 -9.0 10.95 -8.05 8.0 -4.9 8.0 -3.1 8.0 -1.8 9.25 -0.55 10.5 -0.55 12.3 -0.55 13.25 -0.95 14.15 L-0.75 12.8 Q-0.75 11.0 -2.0 9.75 -3.3 8.45 -5.05 8.45" fill="#919191" fill-rule="evenodd" stroke="none"/>
      <path d="M-6.45 8.55 Q-4.05 7.85 -2.55 9.05 -2.95 11.35 -2.25 15.5 -2.7 16.1 -4.1 16.4 -5.45 13.8 -6.1 10.9 L-6.45 8.55" fill="#ffffff" fill-opacity="0.7137255" fill-rule="evenodd" stroke="none"/>
      <path d="M0.0 12.4 Q0.0 9.25 -2.95 8.0 L-4.8 7.6" fill="none" stroke="#ffef9a" stroke-linecap="round" stroke-linejoin="round" stroke-width="0.25"/>
      <path d="M-9.6 12.4 Q-9.6 15.6 -6.7 16.8 L-4.85 17.2" fill="none" stroke="#ffffff" stroke-linecap="round" stroke-linejoin="round" stroke-width="0.25"/>
      <path d="M-7.05 17.6 L-7.3 17.4 -7.05 17.2 -6.85 17.4 -7.05 17.6 M-8.15 20.0 L-7.95 20.2 -8.15 20.4 -8.35 20.2 -8.15 20.0 M-8.05 18.7 L-7.8 18.5 -7.6 18.7 -7.8 18.9 -8.05 18.7 M-7.85 22.0 L-8.05 21.8 -7.85 21.6 -7.65 21.8 -7.85 22.0" fill="#ffffff" fill-rule="evenodd" stroke="none"/>
    </g>
  </defs>
</svg>
