<?xml version="1.0" encoding="UTF-8" standalone="no"?>
<svg xmlns:xlink="http://www.w3.org/1999/xlink" height="58.65px" width="49.15px" xmlns="http://www.w3.org/2000/svg">
  <g transform="matrix(1.0, 0.0, 0.0, 1.0, 24.1, 18.1)">
    <use height="41.5" transform="matrix(1.0, 0.0, 0.0, 1.0, -19.8, -7.0)" width="38.85" xlink:href="#shape0"/>
  </g>
  <defs>
    <g id="shape0" transform="matrix(1.0, 0.0, 0.0, 1.0, 19.8, 7.0)">
      <path d="M-0.9 -5.95 Q-9.15 -5.9 -13.75 0.15 -17.45 5.05 -17.45 11.35 L-17.45 11.7 -17.8 11.85 Q-18.9 12.45 -18.9 14.45 L-18.85 14.8 Q-18.7 17.35 -16.2 18.05 L-15.95 18.15 -15.85 18.4 Q-14.55 22.35 -11.3 26.1 -7.0 31.05 -1.35 32.6 L-0.4 32.6 Q5.3 31.05 9.65 26.1 12.95 22.4 14.3 18.4 L14.35 18.15 14.65 18.05 Q17.1 17.35 17.35 14.8 L17.35 14.45 Q17.35 12.45 16.25 11.85 L15.95 11.7 15.95 11.35 Q15.95 5.05 12.2 0.15 7.55 -5.9 -0.8 -5.95 L-0.9 -5.95 M-14.2 -0.65 Q-9.25 -6.95 -0.55 -7.0 L-0.45 -7.0 Q8.35 -6.95 13.35 -0.65 17.55 4.65 17.55 11.65 19.25 12.4 19.05 15.25 18.8 18.3 15.8 19.15 14.3 23.6 10.7 27.65 5.9 33.0 -0.45 34.5 L-0.55 34.5 Q-6.8 33.0 -11.55 27.65 -15.15 23.65 -16.65 19.15 -19.6 18.3 -19.8 15.25 -20.0 12.4 -18.35 11.65 -18.35 4.65 -14.2 -0.65" fill="#00563a" fill-rule="evenodd" stroke="none"/>
      <path d="M-11.55 8.2 L-11.45 7.75 Q-9.3 -0.4 -1.05 -2.65 3.1 -3.75 6.85 -3.3 3.5 -5.35 -1.2 -5.4 L-1.3 -5.4 Q-9.1 -5.35 -13.4 0.45 -16.95 5.15 -16.95 11.2 L-16.95 11.55 -17.2 11.7 Q-18.25 12.2 -18.25 14.15 L-18.25 14.5 Q-18.0 16.95 -15.75 17.6 L-15.45 17.65 -15.4 17.95 Q-14.15 21.75 -11.1 25.35 -7.05 30.05 -1.7 31.55 -4.8 28.1 -7.6 23.5 L-9.15 20.7 Q-7.8 21.75 -5.8 22.15 L-1.95 22.25 Q-1.05 18.0 -4.05 13.15 -5.9 10.1 -9.5 8.7 L-11.55 8.2 M-0.9 -5.95 L-0.8 -5.95 Q7.55 -5.9 12.2 0.15 15.95 5.05 15.95 11.35 L15.95 11.7 16.25 11.85 Q17.35 12.45 17.35 14.45 L17.35 14.8 Q17.1 17.35 14.65 18.05 L14.35 18.15 14.3 18.4 Q12.95 22.4 9.65 26.1 5.3 31.05 -0.4 32.6 L-1.35 32.6 Q-7.0 31.05 -11.3 26.1 -14.55 22.35 -15.85 18.4 L-15.95 18.15 -16.2 18.05 Q-18.7 17.35 -18.85 14.8 L-18.9 14.45 Q-18.9 12.45 -17.8 11.85 L-17.45 11.7 -17.45 11.35 Q-17.45 5.05 -13.75 0.15 -9.15 -5.9 -0.9 -5.95 M15.05 10.75 Q14.75 5.2 11.8 1.05 L8.95 -2.0 Q12.7 4.15 9.05 5.75 1.45 9.0 0.45 16.35 -0.2 21.2 1.7 25.65 3.05 28.9 0.2 31.4 5.45 30.35 10.5 23.35 14.7 16.5 15.3 16.25 16.15 15.9 16.15 14.95 16.1 13.95 15.55 14.25 15.05 14.6 15.05 10.75" fill="#22e589" fill-rule="evenodd" stroke="none"/>
      <path d="M-9.15 20.7 L-7.6 23.5 Q-4.8 28.1 -1.7 31.55 -7.05 30.05 -11.1 25.35 -14.15 21.75 -15.4 17.95 L-15.45 17.65 -15.75 17.6 Q-18.0 16.95 -18.25 14.5 L-18.25 14.15 Q-18.25 12.2 -17.2 11.7 L-16.95 11.55 -16.95 11.2 Q-16.95 5.15 -13.4 0.45 -9.1 -5.35 -1.3 -5.4 L-1.2 -5.4 Q3.5 -5.35 6.85 -3.3 3.1 -3.75 -1.05 -2.65 -9.3 -0.4 -11.45 7.75 L-11.55 8.2 -12.7 7.9 -12.85 10.65 Q-12.7 14.15 -11.3 17.75 -10.6 19.6 -9.15 20.7" fill="#97ffcf" fill-rule="evenodd" stroke="none"/>
      <path d="M11.6 7.9 Q10.25 8.0 8.5 8.7 5.05 10.1 3.25 13.15 0.35 18.0 1.2 22.25 L4.95 22.15 Q8.95 21.35 10.3 17.75 11.65 14.15 11.75 10.65 L11.6 7.9 M15.05 10.75 Q15.05 14.6 15.55 14.25 16.1 13.95 16.15 14.95 16.15 15.9 15.3 16.25 14.7 16.5 10.5 23.35 5.45 30.35 0.2 31.4 3.05 28.9 1.7 25.65 -0.2 21.2 0.45 16.35 1.45 9.0 9.05 5.75 12.7 4.15 8.95 -2.0 L11.8 1.05 Q14.75 5.2 15.05 10.75" fill="#00b662" fill-rule="evenodd" stroke="none"/>
      <path d="M-9.15 20.7 Q-10.6 19.6 -11.3 17.75 -12.7 14.15 -12.85 10.65 L-12.7 7.9 -11.55 8.2 -9.5 8.7 Q-5.9 10.1 -4.05 13.15 -1.05 18.0 -1.95 22.25 L-5.8 22.15 Q-7.8 21.75 -9.15 20.7 M-11.8 10.55 Q-11.8 13.85 -10.45 17.3 -8.65 21.8 -2.95 21.1 L-2.9 20.2 Q-2.9 16.8 -4.8 13.6 -7.1 9.95 -11.7 9.2 L-11.8 10.55 M10.75 10.55 L10.65 9.2 Q6.2 9.95 4.0 13.6 2.1 16.8 2.1 20.2 L2.15 21.1 Q7.75 21.75 9.45 17.3 10.75 13.85 10.75 10.55 M11.6 7.9 L11.75 10.65 Q11.65 14.15 10.3 17.75 8.95 21.35 4.95 22.15 L1.2 22.25 Q0.35 18.0 3.25 13.15 5.05 10.1 8.5 8.7 10.25 8.0 11.6 7.9" fill="#252829" fill-rule="evenodd" stroke="none"/>
      <path d="M-11.8 10.55 L-11.7 9.2 Q-7.1 9.95 -4.8 13.6 -2.9 16.8 -2.9 20.2 L-2.95 21.1 Q-8.65 21.8 -10.45 17.3 -11.8 13.85 -11.8 10.55 M-10.0 13.45 L-8.05 13.75 Q-6.55 13.75 -3.7 17.5 -3.95 14.9 -5.95 12.75 -7.2 11.45 -9.3 10.45 L-11.2 9.75 Q-10.85 12.75 -10.0 13.45 M10.75 10.55 Q10.75 13.85 9.45 17.3 7.75 21.75 2.15 21.1 L2.1 20.2 Q2.1 16.8 4.0 13.6 6.2 9.95 10.65 9.2 L10.75 10.55 M9.0 13.45 Q9.8 12.75 10.15 9.75 L8.35 10.45 Q6.25 11.45 5.05 12.75 3.1 14.9 2.9 17.5 L4.45 15.65 Q6.2 13.75 7.1 13.75 L9.0 13.45" fill="#415552" fill-rule="evenodd" stroke="none"/>
      <path d="M-10.0 13.45 Q-10.85 12.75 -11.2 9.75 L-9.3 10.45 Q-7.2 11.45 -5.95 12.75 -3.95 14.9 -3.7 17.5 -6.55 13.75 -8.05 13.75 L-10.0 13.45 M9.0 13.45 L7.1 13.75 Q6.2 13.75 4.45 15.65 L2.9 17.5 Q3.1 14.9 5.05 12.75 6.25 11.45 8.35 10.45 L10.15 9.75 Q9.8 12.75 9.0 13.45" fill="#6f7e88" fill-rule="evenodd" stroke="none"/>
    </g>
  </defs>
</svg>
