<svg xmlns:xlink="http://www.w3.org/1999/xlink" height="58.65" width="49.15" xmlns="http://www.w3.org/2000/svg"><use height="45.75" transform="translate(1.1 11.15)" width="44.85" xlink:href="#a"/><defs><g id="a" fill-rule="evenodd"><path d="M2.55-6.35 3.8-6.4l1.25.65.9.2 1.6.2.7.6q1.55.65 2.2 1.15l.5.4q3.35 1.45 4 4.3l.05.1-.05.05q2.2 1.9 2.75 4.85l1.4 2.2q1.05 1.45 1.05 2.6v.2l.35 1.45q1.35 5.4 1.35 10.15 0 4-3.85 15.85.35-2.4.35-9.35l-.05-.05q-.9 3.95-3.55 8.45l.3-3.75-2.55 3.75.15-1q.85-5.8.8-7.6-.15-3.85-.9-7.4l-.05.05q-1.15 2.05-2.05 6.2-.8 3.75-.8 6.25v.3q0 3.1-2.6 4.05-2.55 1.05-4.5-1.05l-.3-.25-1.5.55-.9.2-.85-.15-1.55-.6-.25.25q-1.95 2.1-4.5 1.1-2.6-1.05-2.6-4.2v-.2q0-2.5-.8-6.25-.9-4.15-2.05-6.2l-.55-1.4q-1.1 3.6-1.1 6.35l-.1 3.35 1.25 6.6.25.85-3.1-4.2.55 4.45q-2.45-2.8-3.6-9.3l-.1 1.9.5 7.15q-4.1-6.7-4.25-14.7v-.4q0-4.2 1.4-9.75l.4-1.4-.05-.25q0-1.5 1.2-2.7.8-1.55 1.4-2.15.6-3 2.6-4.75.8-3.15 4.3-4.55.6-.75 2.85-1.65l.6-.45 1.4-.25 1.5-.45h.05l.85-.35h.85l1.7-.2 1.55-.35h.1l1.55.35 1.3.25M3.6-4.3l.65-.45.6.45-.5.4q-.4-.3-.75-.4m.9-.75-.9-.4-.45.1L1.1-5.7l-1.4-.35-.05.05-.05-.05-1.3.35-1.75.2-.9.05-.7.3-1.7.5-1.05.15-.55.45q-2.6.95-2.75 1.55-2.15.75-3.3 2.6-.95 1.45-.7 1.7-2.25 1.8-2.55 4.7l-1 1.4-.6 1.2-.5.8q-.5 1-.4 1.45v.05l-.4 1.4q-2.75 11.15.95 21.55-.45-2.35-.3-6-.4-3.75 0-7.8.5-4.2 1.5-7.3h.4l-.25.9.2.55q-.75 2.45-1 5.3l.3-2q-.8 7.05 2.25 16.65-.9-4.75-1-8.6l-.3-4.45q0-2.9.9-5.65l1 .05v.3q-1 2.6-1.1 4.95-.2 4.45.65 8l1.8 4.85-.25-5.45-.05.7-.05-2.6-.05-.3.05-.95q.05-4.2.8-7.25h.7q1-.25 1.2-2.2l-1-.5q1-2.35 2.6-3.75l.25 1.4-.9 1.45.65-.75-.1.35q-.25 1.05.15 1.85l1.2.2q.6.2 1.25.75l.3-.3-.5-.75-1.15-1.35q1.15.6 2.25 1.15l-1.2-.9-1.3-1.6 1.9 1.2 1.3.25-1.25-1.65 2.45 1.5q.95.4 1.1-.65 1.4 0 2.25 1.5.2.35 1.3-.55l-.1.65q-.1.6.6.6 1.25 0 .65-1.2 1 .8 1.15.5 1-1.5 2.3-1.5l.3.5.8.15q1.2-.6 2.4-1.5L6.2 14.75q.25.25 1.35-.25l1.85-1.2-1.3 1.6-1.2.9 2.25-1.15L8 16q-.55.65-.45.75l.3.3 1.2-.75 1-.15.05-.5q.05-.95-.35-1.6l.3.35-.6-1.2.2-1.4q1.5 1.85 2.5 3.95l-.7.3.15.7.15.15.6 1.2q.3 1.4-.75 3.2.25-.45-.4-.2.65-.25.4.2 1.05-1.8.75-3.2l.3.15.5.05q.7 2.2.95 4.75l.15 2.8q.2 4.1-.75 9.3l2.4-7.35q.4-4.75.1-7.05-.25-1.95-.95-4l.1-.45v-.25l.85-.15q.85 2.75.9 5.7l-.45 3.2q.05 4.85-1.05 9.85 3.2-6.5 2.85-13.55l-.2-2.05q-.3-2.5-.95-4.65l.05-.25-.2-.9.55-.05q.8 2.7 1.3 6.2.6 4.5.2 9.4 0 3.2-.45 5.55 3.55-10.25.9-21.55l-.4-1.5-.4-1.4-.2-.35-.8-1.7-.95-1.25v-.15q-1.8-2.75-5.05-4.6l.25-.5 1.85 1.4q2.1 1.9 2.95 3.7-.45-2.9-2.65-4.65L14 1.55q-.75-.9-2.55-1.7L11.4-.2l-1-.45v-.1l.15-.3 1.35.7Q13.35.5 14 1.5q-.7-2.75-3.7-3.9l-.1-.1-.25-.25Q9.5-3.5 7.55-4.2l-.45-.3-1-.15-1.6-.4M-12.85 4.9l.4.35.1.1-1.05.9q-1.25 1.2-2.3 2.95l-1.05 1.95-.8-.35q1.8-4.15 4.7-5.9m.75 2.85.75.85-2.75 3.95-.75 1.4-1.05-.6q1.4-2.9 3.8-5.6m2.75 4.5.15.05h-.15v-.05M9.35 6.5l.05-.35 1.75.9q-.15.65-.9 1.1l-.9-.3-.25-.1.25-1.25m-.7 3.9 1 .5q-.45 1-1.1.9l-.25-.05-.2-.15-.05-.2q-.1-.4.35-1.15l.25.15m1.85-1.7.8-.8q2.25 2.6 3.65 5.4l-1 .55-.15-.05v.1l-.9-1.7-2.4-3.5m1.3-3.5.25-.2q2.8 1.75 4.55 5.75l-.75.35-.95-1.8q-1-1.7-2.2-2.9l-1-.85.1-.35M.3-4.85-.35-5l.1-.55.85.4-.3.3m6.95 1.1q.3 0 .4.65l-2.05.15-.3-.4 1.95-.4m-.6 2.15 2.8-.45q.65.1.45.95H7l-.35-.5m-17.2.5-.05-.45q.05-.45.45-.5l2.8.45-.35.5h-2.85m-.75 0-.05.5-2.9 1.6-.8.75q.65-1.1 2.25-2.1l1.5-.75m7-3.2-.7.4-.55-.4.6-.45.65.45m-4.05 1.2.4-.65 2 .4-.3.4-2.1-.15M-8.8.95l-3.15.55.05-.95L-8.55.3l-.25.65m-.85 3.15-2.45.8q-.6-.75-.5-1.4l3.05-.65-.1 1.25m.6 6.15q.8 1.4-.2 1.55l-1.1-.9 1.3-.65m-1.05-4.1.3 1.6-1.1.4q-.8-.45-.9-1.1l1.7-.9m-7.55.35q.8-1.85 2.95-3.75l2-1.5.15.6q-2.1 1.15-3.8 3l-1.3 1.65m7.1 9.6q-.9.05-1.45.8-1.4 1.75.15 4.4 1.2 2.15 2.15 6.6.8 4 .75 6.5.05-2.5-.75-6.5-.95-4.45-2.15-6.6-1.55-2.65-.15-4.4.55-.75 1.45-.8m21.8 4.85q.9-1.65.4-3.1-.45-1.3-1.7-1.15l-.7.1q-.95.3-1.95 1.7-.9 1.25-2.1 1.25-1 0-2.45-1.2-1.4-1.2-2.9-1.2h-.2l-.45.05q-1.15.2-2.25 1.15l-.7.55-.1.1-.35.15q-.7.4-1.3.4-1.15 0-2.05-1.25-1-1.4-1.95-1.7l-.65-.1q-1.3-.15-1.75 1.15-.5 1.5.5 3.2 1.3 2.3 2.2 6.85.65 3.2.8 5.4-.55.65-.55 1.1-.1 2.55 2.05 3.35 2 .85 3.5-.85.65-.75 1.55-.3l1.15.45.6.05.6-.1 1.05-.4q.9-.45 1.6.3 1.5 1.65 3.5.85 2.05-.8 2.05-3.35-.05-2.5.8-6.5.9-4.45 2.1-6.6-1.2 2.15-2.1 6.6-.85 4-.8 6.5 0 2.55-2.05 3.35-2 .8-3.5-.85-.7-.75-1.6-.3L.5 37l-.6.1-.6-.05-1.15-.45q-.9-.45-1.55.3-1.5 1.7-3.5.85-2.15-.8-2.05-3.35 0-.45.55-1.1v1.1q-.05 2.15 1.65 2.85 1.65.7 2.9-.7.85-.9 1.6-.7l1.6.65.5.05.5-.05 1.6-.65q.75-.2 1.6.7 1.25 1.4 2.9.7 1.7-.7 1.7-2.75.45-1.3.2-3.15l.6-3.45q.45-2.2 1-3.85.8-1.25 1.25-2.95l.05-.15m-1.2-4.8q.95-.05 1.55.6-.6-.65-1.55-.6m-14.1 2.5.55-.4.9-.65v-.4q0-1.5-1.5-1.5-1.45 0-1.45 1.5 0 1.45 1.45 1.45h.05l-1.4.55 1.4-.55m-2.85-.25q.65.8 1.4.8h.05l-1.2-.8h-.25l-.3-.35-.9-1 .9 1 .3.35m9.55-.6q-1.4-1-2.8-1-1.25 0-2.45.8 1.2-.8 2.45-.8 1.4 0 2.8 1l.55.45.55.4h.3q1.45 0 1.45-1.45 0-1.5-1.45-1.5-1.5 0-1.5 1.5l.1.6m2.75 1.4h-.2q-.6 0-1.45-.55.85.55 1.45.55h.2q.7-.1 1.3-.8h-.35l-.95.8m2.45-2.15-.9 1-.25.35.25-.35.9-1M-1.7 24.6l1.75-.1 1.25-.05.4 1.85 1.05-1.7v.15q-.15.85-.05 2.85l-1.2-1.25L1 27.4l-.65-1.1-.45 1.05-.65-1.15-.45 1.15-.6-1-.9 1.15-.15-2.35.75 1.15.4-1.7M11.2.55l.05.95L8.1.95 7.85.3l3.35.25m.7 2.95q.15.65-.45 1.4L9 4.1l-.15-1.25 3.05.65M9 13.25l.05-.05.15.2-.2-.15m-.05-.15-.05.05-.5-.65.55.6" fill="#252525" transform="translate(23 6.95)"/><path d="M3.15-5.35 1.65-5l-.55-.7 2.05.35M-1.7-5.7l-.3.2-.4.5q-.45-.45-1.05-.5l1.75-.2m-3.35.55-.5.45-.35.6-.5-.4-.35-.15 1.7-.5m-3.3 1.1-.35.6-.05.55-.85-.15q-.9 0-1.35.55-.6.65-.35 1.4l.2.4-1.05.5q-.9 1-.25 2.05-1 .75-.85 2l.4 1.05q-2.9 1.75-4.7 5.9l-.8-.5-.15-.1q1.7-3.75 4.6-6.25l-.15-.55q-3.75 3.65-4.95 6v-.1l.05-.45-.3.25.6-1.2 1-1.4q.3-2.9 2.55-4.7-.25-.25.7-1.7 1.15-1.85 3.3-2.6.15-.6 2.75-1.55m-4.1 9.3.15.05q-.7 1.15.2 2.45-2.4 2.7-3.8 5.6l-.4-.3-.4-.35q1.25-3.2 3.5-5.5l-.05-.8q-2.15 2.3-3.45 5.05l.05-.3h-.1l1.05-1.95q1.05-1.75 2.3-2.95l1.05-.9-.1-.1m1.1 3.35.2.15q-.4.65.1 1.9.5 1.3 1.45 1.55l.25.05v.05h.15q.9-.25.8-1l-.55-1.65q-1.05-3 .45-7.25Q-7-1.7-4.3-3.8q1.05-.9 1.9-.3 1.15-1.2 2.35-.3Q1-5.2 2.3-4.05q1-.5 1.95.25 2.85 2.2 4.3 6.5.7 2.05.8 3.8L9.1 7.75l.25.1-.6 2.25-.1.3-.25-.15q-.45.75-.35 1.15l-3 2.75q.2.4 1.4-.45.95-.7 1.65-2.1l.2.15.05.55.5-.1q.95-.25 1.45-1.55.5-1.25.1-1.9l.1-.05 2.4 3.5.9 1.7-.1.05.05.45-.05.15-.6-1.25L11 9.85l-.15.4q1.6 2.4 2.6 4.65l-.35.25-.95.6q-1-2.1-2.5-3.95l-.2 1.4.6 1.2-.3-.35q.4.65.35 1.6l-.05.5-1 .15-1.2.75-.3-.3q-.1-.1.45-.75l1.15-1.35L6.9 15.8l1.2-.9 1.3-1.6-1.85 1.2q-1.1.5-1.35.25l1.25-1.65q-1.2.9-2.4 1.5l-.8-.15-.3-.5q-1.3 0-2.3 1.5-.15.3-1.15-.5.6 1.2-.65 1.2-.7 0-.6-.6l.1-.65q-1.1.9-1.3.55-.85-1.5-2.25-1.5-.15 1.05-1.1.65l-2.45-1.5 1.25 1.65-1.3-.25-1.9-1.2 1.3 1.6 1.2.9q-1.1-.55-2.25-1.15L-8.3 16l.5.75-.3.3q-.65-.55-1.25-.75l-1.2-.2q-.4-.8-.15-1.85l.1-.35-.65.75.9-1.45-.25-1.4q-1.6 1.4-2.6 3.75l-.65-.4-.4-.35q1-2.3 2.45-4.55l-.1-.4-2.1 3.55-.5 1-.05-.25v-.35q-.1 0-.2.15h-.1l.75-1.4 2.75-3.95m22.65-.7q1.05-1.3.25-2.6l.25-.1-.1.35 1 .85q1.2 1.2 2.2 2.9l.95 1.8-.15.05Q14.4 8.6 12.35 6.4l-.1.8q2.25 2.3 3.55 5.3l-.55.55-.3.25q-1.4-2.8-3.65-5.4m.75-2.9.45-1.15q.15-1.25-.85-2 3.25 1.85 5.05 4.6v.15l.95 1.25.8 1.7-.55-.7.05.45-.1.35Q15.7 5 13.05 3.1l-.1.85q2.9 2.45 4.65 6.1l-.3.25-.7.45q-1.75-4-4.55-5.75m-.15-3.65q.2-.8-.45-1.5 1.8.8 2.55 1.7l.05.25q2.2 1.75 2.65 4.65-.85-1.8-2.95-3.7l-1.85-1.4m-1.5-2-.05-.05.05-.05v.1m.15-.4q.25-.7-.25-1.35 3 1.15 3.7 3.9-.65-1-2.1-1.85l-1.35-.7m-.6-1.7-1.1-.3L8-2.9q.25-.75-.45-1.3 1.95.7 2.4 1.45M6.1-4.65l-.45.15-.5.4-.65-.95 1.6.4M3.85-1.3q-.2.65 1.1 4.2.6 2.9-.05 2.9l-.7-3.5Q2.95-3.35 1.45-3.15q-.65.05-.6 1.9l.25 3.5q0 3.35-1.1 3.4-1.1-.1-1.05-3.4l.2-3.5q.1-1.85-.55-1.9-1.5-.2-2.75 5.45l-.7 3.5q-.65 0-.05-2.9 1.25-3.55 1.1-4.2l-.35-.3-.65.2Q-7.5.55-8.15 6.15-8.7 10.95-5.3 13q1 .6.5-.6.6-.45 2.35 1.4 1.4 1.45 2.45-.2 1.05 1.7 2.5.2 1.75-1.85 2.35-1.4v.6q-.1.35.5 0 3.4-2.05 2.85-6.85Q7.55.55 4.85-1.4l-.65-.2-.35.3m-15.15.2-1.5.75q-1.6 1-2.25 2.1l.8-.75 2.9-1.6.05-.5m-6.35 7.6 1.3-1.65q1.7-1.85 3.8-3l-.15-.6-2 1.5q-2.15 1.9-2.95 3.75m-2.5 4.9.2.5q-2.25 7.1-.45 18.45-1.35-10.6.95-17.65.55.3 1.05.55-1 3.1-1.5 7.3-.4 4.05 0 7.8-.15 3.65.3 6-3.7-10.4-.95-21.55l.4-1.4m6.05 6.85q-.75 3.05-.8 7.25l-.05.95.05.3.05 2.6.05-.7.25 5.45-1.8-4.85q-.85-3.55-.65-8 .1-2.35 1.1-4.95l.3.75q-.75 2.15-.95 4.05-.6 5.25 1.3 10.5-1.45-7.65-.9-10.65l.85-3.45q.45.65 1.2.75m-2.8-2.3q-.9 2.75-.9 5.65l.3 4.45q.1 3.85 1 8.6-3.05-9.6-2.25-16.65l-.3 2q.25-2.85 1-5.3l.1.25q-.9 3.45-.65 7.5l1.1 8.05-.8-8.2.55-6 .2-.8.65.45M-18.75 18l.1-.7-.1.7m13.3 1.2h-.05q-.75 0-1.4-.8h.25l1.2.8m10.85 0 .95-.8h.35q-.6.7-1.3.8m-12.55-4.9q0-.05-2.1-1.55 1.65 2.15 2.1 1.55m6.1 7.45 1.05.2h.75v.1l.55 2.4-1.25.05-1.75.1.6-2.55.05-.3M3.1 23q.4 1.1.4 3.3 0 2.25-.4 3.45l-.4-1.4-.7-1.2-.75 3.3q-.1.55.1.85l-.5.05.3-.5q.2-.6-.2-1.45l-.4-.75-.5 2.05q-.1.45.25.65h-.5q.3-.2.2-.65-.5-1.2-.45-2.05l-.45.75-.25 1-.8-3.25-.65 1.2-.35 1.35-.3-3.4.1-1.9.3.75.15 2.35.9-1.15.6 1 .45-1.15.65 1.15.45-1.05.65 1.1.5-1.05 1.2 1.25q-.1-2 .05-2.85v-.15L3.1 23m-3.85 8.35h-.55l.2-.5.35.5m-4.05-17.2q-1.1-.65-3.4-3.1.95 1.85 1.95 2.65 1.2.85 1.45.45m23.65-2.1.2-.7v-.05l.4 1.5q2.65 11.3-.9 21.55Q19 32 19 28.8q.4-4.9-.2-9.4-.5-3.5-1.3-6.2l1.05-.65q2.3 7.05.9 17.8 2.2-10.3-.6-18.3M9 13.25l.2.15-.15-.2.35-.45-.45.35-.55-.6.5.65-1.55 1.15q.35.5 1.65-1.05m8 1.4.1-.25q.65 2.15.95 4.65l.2 2.05q.35 7.05-2.85 13.55 1.1-5 1.05-9.85l.45-3.2q-.05-2.95-.9-5.7l.7-.65q.8 3.2.65 7.05l-.95 8.8 1.3-8.65q.3-4.2-.7-7.8m-1.95 2.1q.7 2.05.95 4 .3 2.3-.1 7.05l-2.4 7.35q.95-5.2.75-9.3l-.15-2.8q-.25-2.55-.95-4.75.8-.05 1.3-.55l.1.5q1.05 4.45.3 11.6.9-3.2.6-8.85l-.65-3.7.25-.55" fill="#424242" transform="translate(23 6.95)"/><path d="m3.15-5.35.45-.1.9.4.65.95.5-.4.45-.15 1 .15.45.3q.7.55.45 1.3l.85-.15 1.1.3.25.25.1.1q.5.65.25 1.35l-.15.3-.05.05.05.05 1 .45.05.05q.65.7.45 1.5l-.25.5q1 .75.85 2L12.05 5l-.25.2-.25.1q.8 1.3-.25 2.6l-.8.8-.1.05q.4.65-.1 1.9-.5 1.3-1.45 1.55l-.5.1-.05-.55.25.05q.65.1 1.1-.9l-1-.5.1-.3.6-2.25.9.3q.75-.45.9-1.1l-1.75-.9-.05.35q-.1-1.75-.8-3.8-1.45-4.3-4.3-6.5-.95-.75-1.95-.25Q1-5.2-.05-4.4q-1.2-.9-2.35.3-.85-.6-1.9.3Q-7-1.7-8.5 2.4q-1.5 4.25-.45 7.25l.55 1.65q.1.75-.8 1l-.15-.05-.25-.05q-.95-.25-1.45-1.55-.5-1.25-.1-1.9l-.2-.15-.75-.85q-.9-1.3-.2-2.45l-.15-.05-.4-.35-.4-1.05q-.15-1.25.85-2-.65-1.05.25-2.05l1.05-.5-.2-.4q-.25-.75.35-1.4.45-.55 1.35-.55l.85.15.05-.55.35-.6.55-.45 1.05-.15.35.15.5.4.35-.6.5-.45.7-.3.9-.05q.6.05 1.05.5l.4-.5.3-.2 1.3-.35.05.05.05-.05 1.4.35.55.7 1.5-.35M3.6-4.3q.35.1.75.4l.5-.4-.6-.45-.65.45M.3-4.85l.3-.3-.85-.4-.1.55.65.15M6.65-1.6l.35.5h2.9q.2-.85-.45-.95l-2.8.45m.6-2.15-1.95.4.3.4 2.05-.15q-.1-.65-.4-.65m-17.8 2.65h2.85l.35-.5-2.8-.45q-.4.05-.45.5l.05.45m2.2-2 2.1.15.3-.4-2-.4-.4.65m4.05-1.2-.65-.45-.6.45.55.4.7-.4m-5.35 8.4.1-1.25-3.05.65q-.1.65.5 1.4l2.45-.8M-8.8.95l.25-.65-3.35.25-.05.95L-8.8.95m-.25 9.3-1.3.65 1.1.9q1-.15.2-1.55m-1.05-4.1-1.7.9q.1.65.9 1.1l1.1-.4-.3-1.6M-19 9.4q1.2-2.35 4.95-6l.15.55q-2.9 2.5-4.6 6.25l-.5-.8m2.3 2.05q1.3-2.75 3.45-5.05l.05.8q-2.25 2.3-3.5 5.5l-.25-.5.25-.75m-2.75 1.25q-2.3 7.05-.95 17.65-1.8-11.35.45-18.45l.5.8m4.95 1.7.5-1 2.1-3.55.1.4q-1.45 2.25-2.45 4.55l-.25-.4m27.95.5q-1-2.25-2.6-4.65l.15-.4 2.1 3.45.6 1.25-.25.35m-31.4.05.4.55-.2.8-.55 6 .8 8.2-1.1-8.05q-.25-4.05.65-7.5m2.35 2.1.3.45-.85 3.45q-.55 3 .9 10.65-1.9-5.25-1.3-10.5.2-1.9.95-4.05M11.2.55 7.85.3l.25.65 3.15.55-.05-.95m.7 2.95-3.05-.65L9 4.1l2.45.8q.6-.75.45-1.4m5.7 6.55q-1.75-3.65-4.65-6.1l.1-.85q2.65 1.9 4.8 6.55l-.25.4m-1.8 2.45q-1.3-3-3.55-5.3l.1-.8q2.05 2.2 3.35 4.75h-.1q.05.7.25 1.2l-.05.15m3.05-.45q2.8 8 .6 18.3 1.4-10.75-.9-17.8l.3-.5m-2.15 3.2.3-.6q1 3.6.7 7.8l-1.3 8.65.95-8.8q.15-3.85-.65-7.05m-1.9 2.05.65 3.7q.3 5.65-.6 8.85.75-7.15-.3-11.6l-.1-.5.35-.45" fill="#545454" transform="translate(23 6.95)"/><path d="m-18.5 10.2.15.1.8.5.8.35h.1l-.05.3-.25.75.25.5.4.35.4.3 1.05.6h.1q.1-.15.2-.15v.35l.05.25.25.4.4.35.65.4 1 .5q-.2 1.95-1.2 2.2h-.7q-.75-.1-1.2-.75l-.3-.45-.3-.75V16l-1-.05-.65-.45-.4-.55-.1-.25-.2-.55.25-.9h-.4q-.5-.25-1.05-.55l-.5-.8-.2-.5v-.05q-.1-.45.4-1.45l.5-.8.3-.25-.05.45v.1l.5.8m30.65 5.55.95-.6.35-.25.25-.35.05-.15-.05-.45.1-.05v-.1l.15.05 1-.55.3-.25.55-.55.05-.15q-.2-.5-.25-1.2h.1l.15-.05.75-.35.7-.45.3-.25.25-.4.1-.35-.05-.45.55.7.2.35.4 1.4v.05l-.2.7-.3.5-1.05.65-.55.05.2.9-.05.25-.1.25-.3.6-.7.65-.85.15v.25l-.1.45-.25.55-.35.45q-.5.5-1.3.55l-.5-.05-.3-.15-.6-1.2-.15-.15-.15-.7.7-.3" fill="#ffff7a" transform="translate(23 6.95)"/><path d="m3.85-1.3.35-.3.65.2Q7.55.55 8.2 6.15q.55 4.8-2.85 6.85-.6.35-.5 0v-.6q-.6-.45-2.35 1.4-1.45 1.5-2.5-.2-1.05 1.65-2.45.2-1.75-1.85-2.35-1.4.5 1.2-.5.6-3.4-2.05-2.85-6.85Q-7.5.55-4.8-1.4l.65-.2.35.3q.15.65-1.1 4.2-.6 2.9.05 2.9l.7-3.5Q-2.9-3.35-1.4-3.15q.65.05.55 1.9l-.2 3.5Q-1.1 5.55 0 5.65q1.1-.05 1.1-3.4l-.25-3.5q-.05-1.85.6-1.9 1.5-.2 2.75 5.45l.7 3.5q.65 0 .05-2.9-1.3-3.55-1.1-4.2M-7.9 6.15q-.4 3.35 1.55 4.8 1.15.8 2.15-.25 2.35 4.1 4.2 2.2 1.85 1.9 4.25-2.2 1 1.05 2.15.25 1.95-1.45 1.55-4.8-.35-3.1-1.8-5.5-1.2-2.1-1.85-1.95-.65.15 1.45 5.85.4 3.1-.95 3.1-.5.05-.65-1.25L3.9 3.6q-1-6.3-2.45-6.5-.3 0 0 3.8.35 4.35-.35 6Q.65 8 0 8l-1.05-1.1q-.75-1.65-.4-6 .3-3.8.05-3.8-1.45.2-2.45 6.5l-.25 2.8q-.15 1.3-.65 1.25-1.35 0-.95-3.1 2.1-5.7 1.45-5.85-.7-.15-1.9 1.95-1.4 2.4-1.75 5.5m.75 8.15q-.45.6-2.1-1.55 2.1 1.5 2.1 1.55m2.35-.15q-.25.4-1.45-.45-1-.8-1.95-2.65 2.3 2.45 3.4 3.1M8.05 11.4l.05.2q-.7 1.4-1.65 2.1-1.2.85-1.4.45l3-2.75m1 1.8-.05.05Q7.7 14.8 7.35 14.3l1.55-1.15.05-.05.45-.35-.35.45" fill="#f1a57c" transform="translate(23 6.95)"/><path d="m-5.95 4.25.4-3.35q-.35-.15-1 1.65-.7 2-.85 4.05-.2 3.6 1.5 4.2 1.3.5 0-2-.5-1-.05-4.55m-1.95 1.9q.35-3.1 1.75-5.5 1.2-2.1 1.9-1.95.65.15-1.45 5.85-.4 3.1.95 3.1.5.05.65-1.25l.25-2.8q1-6.3 2.45-6.5.25 0-.05 3.8-.35 4.35.4 6L0 8q.65 0 1.1-1.1.7-1.65.35-6-.3-3.8 0-3.8 1.45.2 2.45 6.5l.25 2.8q.15 1.3.65 1.25 1.35 0 .95-3.1-2.1-5.7-1.45-5.85.65-.15 1.85 1.95 1.45 2.4 1.8 5.5.4 3.35-1.55 4.8-1.15.8-2.15-.25-2.4 4.1-4.25 2.2-1.85 1.9-4.2-2.2-1 1.05-2.15.25Q-8.3 9.5-7.9 6.15m5.55 4.65q1.05 0 .6-2.25Q-2.2 6-2.05 2.4V-.5Q-2.4-.6-3 1.85q-.65 2.6-.7 4.75-.1 4.15 1.35 4.2m1.15 20.95q.9.5 1.2 0 .85.25 1.1 0 .95.75 1.55.25-.6 3.4-.8 3.5-1.2.65-2 .65-1.45 0-1.95-.85l-.4-3.3q.9.15 1.3-.25M5.7.9l.4 3.35q.5 3.55-.05 4.55-1.3 2.5.05 2 1.65-.65 1.45-4.2-.15-2.1-.85-4.05Q6.1.8 5.7.9m-3.25 9.9q1.45-.05 1.35-4.2-.05-2.15-.65-4.75Q2.55-.6 2.2-.5v2.9q.15 3.6-.35 6.15-.4 2.25.6 2.25" fill="#efc392" transform="translate(23 6.95)"/><path d="M-5.95 4.25Q-6.4 7.8-5.9 8.8q1.3 2.5 0 2-1.7-.6-1.5-4.2.15-2.05.85-4.05.65-1.8 1-1.65l-.4 3.35m3.6 6.55q-1.45-.05-1.35-4.2.05-2.15.7-4.75.6-2.45.95-2.35v2.9q-.15 3.6.3 6.15.45 2.25-.6 2.25m13.6 10.15-.05.15q-.45 1.7-1.25 2.95-.85 1.2-2.05 2-.8.5-1.75.8l-.7.2-.6.1.7-1.25 1.8-3.75L8.1 20l.2-1.05q.45-2.5 2.05-1.85 1.6.7.9 3.7v.15m-20.45-2-.5.1q-.45.35-.45 1.3l.15 1.1q.55 2.15 2.25 3.5l1.9 1.05q-2.15-3.6-2.6-5.9l-.1-.4q-.25-.6-.65-.75m1.4 1 .6 1.8 1.8 3.9.7 1.25.15.25h-.15l-.8-.2-.8-.25-1.15-.55q-2.65-1.65-3.5-5.35-.7-3 .9-3.7 1.6-.65 2.05 1.85l.2 1m5.35.65h.6q.9.25.8 1.15l-.05.3-.6 2.55-.4 1.7-.75-1.15-.3-.75q-.6-1.45-.2-2.7l.45-.8.45-.3m3.2 1.35q-.2-1.05.75-1.35 1-.3 1.45 1.1L3.1 23l-.35 1.6-1.05 1.7-.4-1.85-.55-2.4v-.1m2.35 7.8-.1.95q-.4 1.1-1.15.85l-.5-.25q-.2-.3-.1-.85l.75-3.3.7 1.2.4 1.4m-2.25 1.6-.45.05-.1-.05q-.35-.2-.25-.65l.5-2.05.4.75q.4.85.2 1.45l-.3.5m-1.05 0-.15.05-.4-.05-.35-.5-.2.5-.45.2q-.8.25-1.15-.85l-.05-1 .35-1.35.65-1.2.8 3.25.25-1 .45-.75q-.05.85.45 2.05.1.45-.2.65m-2.35-9.55q-.15-.35-.35-.35-.3 0-.45.95l.1.95.15.5.3.8.25-2.6v-.25m.1 7-.15 1.1.1.75q.25.85.5.7l.2-.35v-.15l-.65-2.05m-4.9 6.7q-1.05-1.5-.7-4.15L-7.5 29q.4 1.4 1.35 2.85l1.6 2.35q.8 1.35-.4 2.15-1.25.8-2.4-.85m1.9-.3q.35-.15.35-.7l-.15-.6-2.2-3.35-.1 1.45q0 1.6.65 2.5.85 1.15 1.45.7m7.9-24.4q-1 0-.6-2.25.5-2.55.35-6.15V-.5q.35-.1.95 2.35.6 2.6.65 4.75.1 4.15-1.35 4.2M5.7.9q.4-.1 1 1.65.7 1.95.85 4.05.2 3.55-1.45 4.2-1.35.5-.05-2 .55-1 .05-4.55L5.7.9M1.95 24.65l.25-1.35-.1-.95L2 22l-.45-.55-.25.4.65 2.8m6.4-4.55q-.45 2.3-2.6 5.9 3.3-1.35 4.15-4.55l.15-1.1q0-.95-.45-1.3l-.5-.1q-.55.2-.75 1.15m0 11.25q.25 1.85-.2 3.15l-.5 1q-1.15 1.65-2.4.85-1.2-.8-.4-2.15l1.6-2.35Q7.4 30.4 7.8 29l.55 2.35m-6.8-.55v.15l.15.35.55-.7.1-.75-.15-1.15-.65 2.1m3.95 4.4q.6.45 1.45-.7.65-.9.65-2.5l-.1-1.45-2.2 3.35-.15.6q0 .55.35.7" fill="#feebba" transform="translate(23 6.95)"/><path d="m-7.2 21.75-.6-1.8 2.55.95q2 .45 4.55-2.55 0 1.6-.15 1.4-.1-.2-1.6.85l-.45.3-.8.5q-.85.65-1 4.5v1l-.7-1.25.05-3 .3-.8q-.6 0-1.65-.4-.3-.1-.5.3m-.25 4.4 1.15.55-.4.75q-.35.95-.45-.25l-.3-1.05m1.95.8.8.2.05 2.4q-.1-1.55-.85-2.6m13.4-.9-.4 1.45q-.65 2.5-1.05 2-.6-.75-.9-.4-2.2 5.7-2.4 5.5.9-3.15 1.4-6.35.9-5.7-.75-6.85-2.65-2-2.8-1.65-.15.2-.15-1.4l1.5 1.45q1.8 1.4 3 1.1L8.1 20l-.75 2.15v-.05q-.25-.8-.7-.65l-1.6.4.45 1.25q.2 1.15.05 2.8l-.7 1.25.6-.1-.2 1.3.9-1.5q.95-.3 1.75-.8" fill="#ca6a53" transform="translate(23 6.95)"/><path d="M-8.4 33.3q-.15-2.2-.8-5.4-.9-4.55-2.2-6.85-1-1.7-.5-3.2.45-1.3 1.75-1.15l.65.1q.95.3 1.95 1.7.9 1.25 2.05 1.25.6 0 1.3-.4l.35-.15.1-.1.7-.55q1.1-.95 2.25-1.15l.45-.05h.2q1.5 0 2.9 1.2 1.45 1.2 2.45 1.2 1.2 0 2.1-1.25 1-1.4 1.95-1.7l.7-.1q1.25-.15 1.7 1.15.5 1.45-.4 3.1v-.15q.7-3-.9-3.7-1.6-.65-2.05 1.85L8.1 20l-2.75.9q-1.2.3-3-1.1l-1.5-1.45q0 1.6.15 1.4.15-.35 2.8 1.65 1.65 1.15.75 6.85-.5 3.2-1.4 6.35.2.2 2.4-5.5.3-.35.9.4.4.5 1.05-2l.4-1.45q1.2-.8 2.05-2-.55 1.65-1 3.85l-.6 3.45L7.8 29q-.4 1.4-1.35 2.85l-1.6 2.35q-.8 1.35.4 2.15 1.25.8 2.4-.85l.5-1q0 2.05-1.7 2.75-1.65.7-2.9-.7-.85-.9-1.6-.7l-1.6.65-.5.05-.5-.05-1.6-.65q-.75-.2-1.6.7-1.25 1.4-2.9.7-1.7-.7-1.65-2.85v-1.1m.6-13.35-.2-1q-.45-2.5-2.05-1.85-1.6.7-.9 3.7.85 3.7 3.5 5.35l.3 1.05q.1 1.2.45.25l.4-.75.8.25q.75 1.05.85 2.6l-.05-2.4h.15l-.15-.25v-1q.15-3.85 1-4.5l.8-.5-.45.8q-.4 1.25.2 2.7l-.1 1.9.3 3.4.05 1q.35 1.1 1.15.85l.45-.2h.55l.4.05.15-.05h.5l.1.05.45-.05.5-.05.5.25q.75.25 1.15-.85l.1-.95q.4-1.2.4-3.45 0-2.2-.4-3.3l-.15-1.3q-.45-1.4-1.45-1.1-.95.3-.75 1.35H0l-1.05-.2q.1-.9-.8-1.15h-.6q1.5-1.05 1.6-.85.15.2.15-1.4-2.55 3-4.55 2.55l-2.55-.95m.45 15.55q1.15 1.65 2.4.85 1.2-.8.4-2.15l-1.6-2.35Q-7.1 30.4-7.5 29l-.55 2.35q-.35 2.65.7 4.15m6.15-3.75q-.4.4-1.3.25l.4 3.3q.5.85 1.95.85.8 0 2-.65.2-.1.8-3.5-.6.5-1.55-.25-.25.25-1.1 0-.3.5-1.2 0" fill="#ee9b6b" transform="translate(23 6.95)"/><path d="M-4.5 17.1q0 .7.7.7.65 0 .65-.7 0-.65-.65-.65-.7 0-.7.65m1.9.5-.9.65-.55.4h-.05q-1.45 0-1.45-1.45 0-1.5 1.45-1.5 1.5 0 1.5 1.5v.4m5.25.2-.1-.6q0-1.5 1.5-1.5 1.45 0 1.45 1.5 0 1.45-1.45 1.45h-.3l-.55-.4-.55-.45m1.1-1.35q-.65 0-.65.65 0 .7.65.7.7 0 .7-.7 0-.65-.7-.65" fill="#ffff4a" transform="translate(23 6.95)"/><path d="M-4.5 17.1q0-.65.7-.65.65 0 .65.65 0 .7-.65.7-.7 0-.7-.7m8.25-.65q.7 0 .7.65 0 .7-.7.7-.65 0-.65-.7 0-.65.65-.65" transform="translate(23 6.95)"/><path d="m-5.4 25.65-1.8-3.9q.2-.4.5-.3 1.05.4 1.65.4l-.3.8-.05 3m11.55 1.2-.9 1.5.2-1.3.7-.2m-.6-.95q.15-1.65-.05-2.8l-.45-1.25 1.6-.4q.45-.15.7.65v.05l-1.8 3.75" fill="#8b4939" transform="translate(23 6.95)"/><path d="M-9.2 18.95q.4.15.65.75l.1.4q.45 2.3 2.6 5.9l-1.9-1.05q-1.7-1.35-2.25-3.5l-.15-1.1q0-.95.45-1.3l.5-.1m6.65 2.85v.25l-.25 2.6-.3-.8-.15-.5-.1-.95q.15-.95.45-.95.2 0 .35.35m.1 7 .65 2.05V31l-.2.35q-.25.15-.5-.7l-.1-.75.15-1.1m-3 6.4q-.6.45-1.45-.7-.65-.9-.65-2.5l.1-1.45 2.2 3.35.15.6q0 .55-.35.7m7.4-10.55-.65-2.8.25-.4L2 22l.1.35.1.95-.25 1.35m6.4-4.55q.2-.95.75-1.15l.5.1q.45.35.45 1.3l-.15 1.1q-.85 3.2-4.15 4.55 2.15-3.6 2.6-5.9m-6.8 10.7.65-2.1.15 1.15-.1.75-.55.7-.15-.35v-.15m3.95 4.4q-.35-.15-.35-.7l.15-.6 2.2-3.35.1 1.45q0 1.6-.65 2.5-.85 1.15-1.45.7" fill="#fff" transform="translate(23 6.95)"/></g></defs></svg>