<svg xmlns:xlink="http://www.w3.org/1999/xlink" height="58.65" width="49.15" xmlns="http://www.w3.org/2000/svg"><use height="13.4" transform="translate(6.3 23.05)" width="35.35" xlink:href="#a"/><defs><g id="a"><path d="M16.2 6.45.35 6.4q.85-.95 1.25-.95h14.7l-.1 1M-1.25 6.4l-15.55-.05-.05.4-.15-1.3 14.85.05.9.9" fill="#ff6e6e" fill-rule="evenodd" transform="translate(17.8 -4.95)"/><path d="m-10.25 8 5.45.1 4.35 4.6 4.5-4.6 3.3-.05 3.05 7.85-7.6 1.95-3.35-3.95-3.3 3.95-3.55-.95q-1.55-3-2.25-6.4l-.6-2.5M8.7 8l7.35-.15-.75 6.75-3.55.95L8.7 8M-9 16.5l-7-1.9-.75-6.75 4.8.1Q-10.8 12.3-9 16.5" fill="red" fill-opacity=".6" fill-rule="evenodd" transform="translate(17.8 -4.95)"/><path d="M7.35 8.05 8.7 8l3.05 7.55-1.35.35-3.05-7.85M-7.4 16.9l-1.6-.4q-1.8-4.2-2.95-8.55l1.7.05.6 2.5q.7 3.4 2.25 6.4" fill="#ffc1c1" fill-opacity=".843" fill-rule="evenodd" transform="translate(17.8 -4.95)"/><path d="M16.3 7.85h-.25l.15-1.4.1 1.4M-1.25 6.4h1.6l-.75.85-.85-.85m-15.6.35.1 1.1h-.3l.2-1.1" fill="#a21717" fill-rule="evenodd" transform="translate(17.8 -4.95)"/><path d="m16.05 7.85-12 .25-4.5 4.6-4.35-4.6-11.95-.25-.1-1.1.05-.4 15.55.05.85.85.75-.85 15.85.05-.15 1.4" fill="#a30a0a" fill-rule="evenodd" transform="translate(17.8 -4.95)"/><path d="M17.05 6.6 3.1 6.85-.45 9.7l-3.6-2.85-13.5-.25V5.45l15.4.05 1.6 1.25L1.1 5.5l15.95-.05V6.6" fill="red" fill-rule="evenodd" transform="translate(17.8 -4.95)"/><path d="M15.3 14.6 2.8 17.85-.55 13.9l-3.3 3.95L-16 14.6" fill="none" stroke="#8c0000" stroke-linecap="round" stroke-linejoin="round" transform="translate(17.8 -4.95)"/><path d="m1.1 5.5 15.95-.05m-17.6 1.3-1.6-1.25H-17.3" fill="none" stroke="#ff8585" stroke-linecap="round" stroke-linejoin="round" transform="translate(17.8 -4.95)"/><path d="M-3.7 5.5h1.75l1.1.85m16.45-.9h1.3V6.6" fill="none" stroke="#ffdbdb" stroke-linecap="round" stroke-linejoin="round" transform="translate(17.8 -4.95)"/></g></defs></svg>