<svg xmlns:xlink="http://www.w3.org/1999/xlink" height="58.65" width="49.15" xmlns="http://www.w3.org/2000/svg"><use height="13.7" transform="translate(8.4 22.9)" width="30.45" xlink:href="#a"/><defs><g id="a" fill-rule="evenodd"><path d="m13.55 8.05.6 1.25q1.4 3.6-.4 6.25-2.05 2.9-6.45 2.9l-.75.05q-5.9 0-7.05-1.65-1.15 1.65-7.05 1.65l-.75-.05q-4.4 0-6.45-2.9-1.7-2.65-.4-6.25l.55-1.15v-.1l.4-.55q1.1-1.55 3.3-2.15l7.9-.2q1.25.3 2.45 1.7 1.3-1.4 2.5-1.7 3.2-.75 7.3.05l1.15.35q1.6.5 2.45 1.55l.6.8.1.15" transform="translate(15.7 -4.8)"/><path d="M-.4 15.4q-.35 1.85-2.35 2.3l-5.55.25q-3.8 0-5.75-2.35-2.05-2.45-.65-6.15 1.2-2.95 4.25-3.7l5.95-.3q2.55 0 4 2.5Q.65 9.6-.4 15.4" fill="#a10000" transform="translate(15.7 -4.8)"/><path d="M13.7 9.45q1.4 3.7-.65 6.15-1.95 2.35-5.75 2.35l-5.6-.25q-1.95-.45-2.3-2.3-1.05-5.8.1-7.45L.55 6.7Q1.9 5.45 3.5 5.45l5.95.3q3.05.75 4.25 3.7" fill="#a10000" transform="translate(15.7 -4.8)"/><path d="M9.7 5.85q1.7.45 2.5 1.25l1 1.3q0 .2-1.25-.35l-1.65-.3-5.35.2Q2.1 8.5.6 10.2q-.2.25-.85-.25l-.2.15-.1-.1-.05.1-.25-.15q-.6.5-.8.25Q-3.15 8.5-6 7.95l-5.4-.2-1.6.3q-1.25.55-1.25.35l1-1.3q.8-.8 2.5-1.25l7.6-.2q1.65.4 2.6 2 1.05-1.6 2.65-2l7.6.2" fill="#f73434" transform="translate(15.7 -4.8)"/><path d="M-6.2 6.7q1.5 0 3.05 1.5 1.5 1.5 1.95 3.35Q0 16.4-6.65 16.4q-3.45 0-5.35-1.5-1.7-1.35-1.55-3.35.1-1.95 2-3.35Q-9.5 6.7-6.2 6.7" fill="#410042" transform="translate(15.7 -4.8)"/><path d="M5.4 6.7q3.3 0 5.35 1.5 1.85 1.4 2 3.35.15 2-1.6 3.35-1.9 1.5-5.35 1.5-6.6 0-5.4-4.85Q.85 9.7 2.35 8.2T5.4 6.7" fill="#410042" transform="translate(15.7 -4.8)"/><path d="m12.05 9.4.6 1.9q-1.35-.65-4.05-.35-3 .35-4.25.05Q.5 10.05.2 12.9l-.15-.25q-.15-2.2 1.7-4.05 1.8-1.85 4.05-2.1 3-.35 4.75 1.15l1.5 1.75m-19.5-2.45q2.7.05 4.5 1.55 2.05 1.7 1.9 4.5l-.15-.1q-2.2-1.55-3.6-1.85l-5.5.8-1.9.15q-1.15.05-1.7.6-.15-2.65 1.9-4.25 1.85-1.4 4.55-1.4" fill="#93d7ff" transform="translate(15.7 -4.8)"/><path d="M.7 14.15q4.75 2.25 12.2-1.55-1.4 2.15-2.4 2.8-1.7 1-3.95 1-4.6 0-5.6-1.75l-.25-.5m-5.45 2-2.25.2-3.65-.65q-1.55-.45-2.15-.95l-.75-1.2q.8 0 1.9.7l2.8.45q4.75.5 7.55-1 .2 1.9-3.45 2.45" fill="#9450ab" transform="translate(15.7 -4.8)"/><path d="M3.1 9.35q-1.1-.75.5-1.4 1.75-.65 1.6.15l-.75 1.15-1.35.1m-14.15.7q-1.15-.75.5-1.4 1.75-.7 1.55.1-.1.65-.75 1.2l-1.3.1" fill="#fff" transform="translate(15.7 -4.8)"/><path d="M12.65 11.4q-.45-.55-2.4-.5-1.9.05-2.15-.55l.4-1-.1-.95q-.3-.9-2.05-1.3L4.7 7.05l-.85.05.45-.3q3-1 5.55.4 2.6 1.4 2.8 4.2M-9.7 7.15l3.6-.45q1.65.2 2.7 1.1 2.65 2.25 2.2 4.9-.65-.1-2.1-1.05-1.9-.6-2.4-1.25-.25-1.65-1.1-2.35-1.1-.9-2.65-.9h-.25" fill="#58b5ed" transform="translate(15.7 -4.8)"/></g></defs></svg>