<svg xmlns:xlink="http://www.w3.org/1999/xlink" height="58.65" width="49.15" xmlns="http://www.w3.org/2000/svg"><use height="6.75" transform="translate(15.7 30.35)" width="16.45" xlink:href="#a"/><defs><g id="a" fill-rule="evenodd"><path d="M7.45 15.6q0 1.1-.95 1.85-.9.8-2.25.8t-2.3-.8q-.9-.75-.9-1.85 0-1 .8-1.75v-.05l.1-.1.3-.2q.85-.55 2-.55 1.35 0 2.25.75.95.8.95 1.9M-4.6 18.35q-1.35 0-2.35-.8-.95-.8-.95-1.95t.95-1.95q1-.8 2.35-.8t2.3.8q1 .8 1 1.95t-1 1.95q-.95.8-2.3.8" fill="red" fill-opacity=".6" transform="translate(8.4 -12.25)"/><path d="M-.8 15.65q0 1.4-1.1 2.4Q-3 19-4.6 19q-1.55 0-2.7-1-1.1-.95-1.1-2.35 0-1.4 1.1-2.4t2.7-1q1.5 0 2.7.95 1.1 1 1.1 2.45m-1.8-1.7q-.8-.7-2-.7-2.8 0-2.8 2.4t2.8 2.4q1.15 0 2-.75.8-.65.8-1.65 0-1.05-.8-1.7m9.65 1.7q0-1.05-.8-1.7-.85-.7-2-.7-2.8 0-2.8 2.4t2.8 2.4q1.1 0 2-.75.8-.65.8-1.65m1 0q0 1.4-1.15 2.4-1 .95-2.65.95-1.55 0-2.7-1-1.1-.95-1.1-2.35 0-1.4 1.1-2.4t2.7-1q1.55 0 2.65.95 1.15 1 1.15 2.45" fill="#3e0202" transform="translate(8.4 -12.25)"/><path d="M.35 15.15q.9.1 1.05.75l-.95.3-1.3.05-.9-.55q.5-.8 2.1-.55" fill="#3e0202" transform="translate(8.4 -12.25)"/><path d="m6.45 14.15.35.45L4.5 18h-.05l-.2.05-.65-.1-.15-.05 2.7-4.05.3.3m-2.2-.9.8.1L2.4 17.4l-.3-.25-.35-.45 2.3-3.45h.2m-8.75 0 .6.05-2.4 4.2-.35-.25-.25-.25-.15-.25 2.1-3.45.45-.05m.3 4.75-.4.05-.5-.1 2.45-4.05.55.65L-4.2 18" fill="#fff" fill-opacity=".741" transform="translate(8.4 -12.25)"/></g></defs></svg>