<?xml version="1.0" encoding="UTF-8" standalone="no"?>
<svg xmlns:xlink="http://www.w3.org/1999/xlink" height="58.65px" width="49.15px" xmlns="http://www.w3.org/2000/svg">
  <g transform="matrix(1.0, 0.0, 0.0, 1.0, 24.1, 18.1)">
    <use height="17.5" transform="matrix(1.0, 0.0, 0.0, 1.0, -18.2, 2.5)" width="37.25" xlink:href="#shape0"/>
  </g>
  <defs>
    <g id="shape0" transform="matrix(1.0, 0.0, 0.0, 1.0, 18.2, -2.5)">
      <path d="M9.05 9.95 Q7.3 9.15 6.05 9.15 2.95 9.15 1.75 10.55 2.25 8.75 3.25 8.25 6.35 6.0 8.6 7.4 10.5 8.6 10.8 11.35 9.95 10.4 9.05 9.95" fill="#4a4a71" fill-opacity="0.3019608" fill-rule="evenodd" stroke="none"/>
      <path d="M-2.4 8.25 Q-1.1 9.25 -0.75 11.05 -1.95 9.15 -5.4 9.15 -6.7 9.15 -8.4 9.95 -9.15 10.25 -9.9 11.1 -9.5 8.4 -7.65 7.35 -5.4 6.05 -2.4 8.25" fill="#4a4a71" fill-opacity="0.3019608" fill-rule="evenodd" stroke="none"/>
      <path d="M-11.65 16.85 Q-9.3 18.95 -6.05 18.95 -2.6 18.95 -0.25 16.6 L0.45 17.75 Q-0.1 18.3 -1.0 18.75 -3.65 20.0 -6.9 20.0 L-10.3 19.6 Q-12.45 19.05 -13.6 18.05 -14.3 17.45 -13.9 15.65 L-11.65 16.85" fill="#4a4a71" fill-opacity="0.3019608" fill-rule="evenodd" stroke="none"/>
      <path d="M12.5 16.85 L14.8 15.6 Q15.3 17.4 14.55 18.05 13.25 19.1 11.2 19.6 L7.8 20.0 Q4.65 20.0 1.9 18.75 0.3 17.95 -0.25 16.6 L0.45 15.8 Q2.75 18.95 6.9 18.95 10.15 18.95 12.5 16.85" fill="#4a4a71" fill-opacity="0.3019608" fill-rule="evenodd" stroke="none"/>
      <path d="M17.95 10.9 Q17.6 13.65 12.0 15.95 L11.9 16.0 11.85 16.05 Q10.25 17.6 7.8 17.9 4.0 17.0 2.7 15.1 L2.1 14.15 Q3.45 16.45 6.2 16.45 7.5 16.45 9.6 15.05 10.85 14.25 10.85 12.05 10.85 9.1 8.9 7.6 6.6 5.85 3.25 8.25 1.55 9.25 1.55 12.05 L1.7 13.15 Q1.05 11.15 1.6 8.5 L4.6 6.9 5.55 6.0 4.35 6.2 2.2 6.85 Q3.5 3.05 7.0 3.6 9.5 4.05 10.05 5.9 L10.35 7.0 10.95 6.05 Q12.25 4.5 14.65 4.95 18.85 5.7 17.95 10.9" fill="#ff0087" fill-rule="evenodd" stroke="none"/>
      <path d="M7.9 3.35 Q9.5 3.7 9.95 4.3 10.8 5.45 9.75 5.85 L8.4 5.75 7.15 5.15 4.2 4.9 Q2.95 4.35 3.5 3.75 4.4 2.65 7.9 3.35" fill="#ff82c3" fill-rule="evenodd" stroke="none"/>
      <path d="M16.35 5.0 L16.6 5.1 17.75 6.45 Q18.35 7.15 18.4 8.05 18.7 12.85 17.3 11.9 L15.95 9.75 Q15.1 8.3 14.25 7.95 L11.7 7.6 Q10.3 7.35 10.75 5.9 11.15 4.7 13.05 4.6 L16.35 5.0" fill="#ff82c3" fill-rule="evenodd" stroke="none"/>
      <path d="M0.0 14.65 Q-1.95 17.95 -6.05 17.95 -8.95 17.95 -11.0 16.05 L-11.05 16.0 -11.15 15.95 Q-16.75 13.65 -17.1 10.9 -17.9 5.65 -13.8 4.95 -11.35 4.55 -10.1 6.05 L-9.5 7.0 -9.2 5.9 -8.75 4.95 -8.6 5.15 -6.8 5.75 -5.7 6.2 -5.75 6.25 0.1 9.3 0.25 9.2 0.3 14.1 0.0 14.65 M-10.0 12.05 Q-10.0 14.25 -8.75 15.05 -6.65 16.45 -5.35 16.45 -3.4 16.45 -2.05 15.15 -0.7 13.9 -0.7 12.05 -0.7 9.25 -2.4 8.25 -5.75 5.85 -8.05 7.6 -10.0 9.1 -10.0 12.05 M-1.4 6.55 L-1.25 7.0 -1.9 6.8 -1.4 6.55" fill="#ff0087" fill-rule="evenodd" stroke="none"/>
      <path d="M0.3 7.9 L0.25 9.2 0.1 9.3 -5.75 6.25 -5.7 6.2 -4.8 6.5 -1.9 6.8 -1.25 7.0 -1.2 7.2 -1.1 7.4 -1.0 7.5 -0.9 7.65 -0.75 7.65 0.1 7.9 0.2 7.95 0.3 7.9 M2.2 6.85 L4.35 6.2 5.55 6.0 4.6 6.9 1.6 8.5 1.85 7.45 2.0 7.4 2.2 6.85" fill="#ff0087" fill-rule="evenodd" stroke="none"/>
      <path d="M1.75 7.9 Q0.95 10.8 1.7 13.15 L2.1 14.15 2.7 15.1 Q4.0 17.0 7.8 17.9 L6.9 17.95 Q2.8 17.95 0.85 14.65 L0.45 13.95 0.3 14.1 0.3 7.9 0.35 7.9 1.75 7.5 1.85 7.45 1.75 7.9" fill="#d1006f" fill-rule="evenodd" stroke="none"/>
      <path d="M-16.05 9.2 Q-14.65 12.85 -10.15 15.85 -8.6 16.95 -6.75 17.35 L-2.75 17.65 Q-4.9 18.85 -8.85 17.55 L-11.45 16.35 -16.45 12.95 Q-17.55 11.75 -17.5 9.3 -17.4 6.75 -16.15 5.75 -17.1 6.55 -16.05 9.2" fill="#d1006f" fill-rule="evenodd" stroke="none"/>
      <path d="M-10.25 5.4 L-10.15 5.3 Q-9.35 6.15 -10.2 6.65 L-11.85 6.95 Q-14.3 6.85 -14.85 5.8 -15.55 4.55 -13.1 4.4 -10.65 4.25 -10.25 5.4" fill="#ff82c3" fill-rule="evenodd" stroke="none"/>
      <path d="M-4.8 6.5 L-6.8 5.75 -8.6 5.15 -8.75 4.95 Q-7.9 3.9 -6.15 3.6 -2.85 3.05 -1.4 6.55 -1.8 6.95 -2.7 6.95 L-4.8 6.5" fill="#ff82c3" fill-rule="evenodd" stroke="none"/>
      <path d="M18.95 11.1 Q18.25 14.3 12.5 16.85 10.15 18.95 6.9 18.95 2.75 18.95 0.45 15.8 -1.95 18.95 -6.05 18.95 -9.3 18.95 -11.65 16.85 -17.45 14.2 -18.05 11.1 -18.45 8.45 -17.6 6.6 -16.55 4.4 -13.95 3.95 -11.45 3.45 -9.85 4.85 -8.8 3.0 -6.3 2.6 -1.8 1.9 -0.3 6.75 L0.2 6.9 1.2 6.6 Q2.8 1.85 7.15 2.6 9.65 3.0 10.7 4.85 12.3 3.45 14.8 3.95 17.4 4.4 18.45 6.6 19.35 8.45 18.95 11.1 M14.65 4.95 Q12.25 4.5 10.95 6.05 L10.35 7.0 10.05 5.9 Q9.5 4.05 7.0 3.6 3.35 2.95 2.1 7.15 L2.0 7.4 1.75 7.5 0.2 7.95 0.1 7.9 -0.75 7.65 -0.9 7.65 -1.0 7.5 -1.1 7.4 -1.2 7.2 Q-2.5 2.95 -6.15 3.6 -8.65 4.05 -9.2 5.9 L-9.5 7.0 -10.1 6.05 Q-11.35 4.55 -13.8 4.95 -17.9 5.65 -17.1 10.9 -16.75 13.65 -11.15 15.95 L-11.05 16.0 -11.0 16.05 Q-8.95 17.95 -6.05 17.95 -1.95 17.95 0.0 14.65 L0.45 13.95 0.85 14.65 Q2.8 17.95 6.9 17.95 9.8 17.95 11.85 16.05 L11.9 16.0 12.0 15.95 Q17.6 13.65 17.95 10.9 18.85 5.7 14.65 4.95" fill="#610033" fill-rule="evenodd" stroke="none"/>
      <path d="M10.85 12.05 Q10.85 14.25 9.6 15.05 7.5 16.45 6.2 16.45 3.45 16.45 2.1 14.15 L1.7 13.15 1.55 12.05 1.75 10.55 Q2.25 8.75 3.25 8.25 6.35 6.0 8.6 7.4 10.5 8.6 10.8 11.35 L10.85 12.05" fill="#ff0074" fill-opacity="0.5019608" fill-rule="evenodd" stroke="none"/>
      <path d="M-0.75 11.05 L-0.7 12.05 Q-0.7 13.9 -2.05 15.15 -3.4 16.45 -5.35 16.45 -6.65 16.45 -8.75 15.05 -10.0 14.25 -10.0 12.05 L-9.9 11.1 Q-9.5 8.4 -7.65 7.35 -5.4 6.05 -2.4 8.25 -1.1 9.25 -0.75 11.05" fill="#ff0074" fill-opacity="0.5019608" fill-rule="evenodd" stroke="none"/>
      <path d="M6.95 3.9 Q7.9 3.85 8.6 4.35 9.3 4.85 8.55 5.0 7.8 5.1 7.0 4.55 6.2 3.95 6.95 3.9" fill="#ffdbee" fill-rule="evenodd" stroke="none"/>
      <path d="M-5.1 3.95 Q-2.0 4.55 -3.0 5.15 -3.7 5.55 -4.55 4.95 -5.45 4.35 -5.1 3.95" fill="#ffdbee" fill-rule="evenodd" stroke="none"/>
      <path d="M-13.15 5.05 L-11.55 5.3 Q-10.8 5.65 -11.35 5.95 L-12.95 5.75 Q-14.05 5.15 -13.15 5.05" fill="#ffdbee" fill-rule="evenodd" stroke="none"/>
      <path d="M17.0 8.85 Q16.1 9.0 15.2 7.35 14.25 5.75 15.5 5.7 16.8 5.7 17.45 7.15 18.15 8.6 17.0 8.85" fill="#ffdbee" fill-rule="evenodd" stroke="none"/>
    </g>
  </defs>
</svg>
