<?xml version="1.0" encoding="UTF-8" standalone="no"?>
<svg xmlns:xlink="http://www.w3.org/1999/xlink" height="58.65px" width="49.15px" xmlns="http://www.w3.org/2000/svg">
  <g transform="matrix(1.0, 0.0, 0.0, 1.0, 24.1, 18.1)">
    <use height="14.2" transform="matrix(1.0, 0.0, 0.0, 1.0, -16.0, 5.45)" width="31.65" xlink:href="#shape0"/>
  </g>
  <defs>
    <g id="shape0" transform="matrix(1.0, 0.0, 0.0, 1.0, 16.0, -5.45)">
      <path d="M14.45 15.35 L14.75 15.55 14.45 15.8 14.45 15.35" fill="#ffffff" fill-rule="evenodd" stroke="none"/>
      <path d="M5.6 7.15 Q11.45 7.75 13.35 9.3 14.65 10.35 15.25 12.5 15.9 14.65 15.5 16.5 14.95 18.9 13.05 19.35 10.1 20.15 5.15 18.9 L3.15 18.3 Q0.95 17.5 -0.2 17.5 -1.35 17.5 -3.55 18.3 L-5.55 18.9 -13.4 19.35 Q-15.3 18.9 -15.85 16.55 -16.25 14.7 -15.6 12.5 -14.95 10.35 -13.7 9.3 -10.75 6.85 -0.25 6.85 L-0.2 6.85 5.6 7.15" fill="#000000" fill-rule="evenodd" stroke="none"/>
      <path d="M5.9 5.75 Q12.1 6.35 14.3 7.8 14.8 8.15 14.8 8.6 L14.65 9.1 13.55 9.05 Q10.8 6.95 -0.25 6.85 -11.1 6.95 -13.9 9.0 -14.4 9.45 -14.8 9.3 L-15.2 9.0 Q-15.45 8.45 -14.6 7.8 -11.1 5.45 -0.25 5.45 L-0.2 5.45 5.9 5.75" fill="#000000" fill-rule="evenodd" stroke="none"/>
      <path d="M13.05 9.6 Q15.1 11.25 15.25 14.75 15.35 18.35 12.95 18.95 L5.25 18.5 Q1.7 17.1 -0.2 17.1 L-5.65 18.5 Q-10.55 19.7 -13.3 18.95 -15.7 18.35 -15.55 14.75 -15.45 11.25 -13.4 9.6 -10.5 7.25 -0.25 7.25 L-0.2 7.25 Q10.15 7.25 13.05 9.6" fill="#fdf200" fill-rule="evenodd" stroke="none"/>
      <path d="M12.7 10.05 Q15.4 12.3 14.55 16.3 14.1 18.05 12.8 18.4 L5.4 17.95 3.5 17.35 Q1.3 16.55 -0.2 16.5 -1.8 16.55 -3.9 17.35 L-5.8 17.95 Q-10.5 19.15 -13.15 18.4 -14.55 18.05 -14.85 16.3 -15.2 14.7 -14.7 12.8 -14.15 10.95 -13.05 10.05 -10.4 7.95 -0.25 7.8 L-0.2 7.8 Q10.05 7.95 12.7 10.05" fill="#1c1e1c" fill-rule="evenodd" stroke="none"/>
      <path d="M-3.95 6.4 L-3.2 6.4 -3.2 7.85 -3.95 7.85 -3.95 6.4" fill="#fdf200" fill-rule="evenodd" stroke="none"/>
      <path d="M3.35 6.4 L4.15 6.4 4.15 7.85 3.35 7.85 3.35 6.4" fill="#fdf200" fill-rule="evenodd" stroke="none"/>
      <path d="M10.65 7.15 L11.45 7.15 11.45 8.9 10.65 8.9 10.65 7.15" fill="#fdf200" fill-rule="evenodd" stroke="none"/>
      <path d="M-11.3 6.95 L-10.5 6.95 -10.5 8.9 -11.3 8.9 -11.3 6.95" fill="#fdf200" fill-rule="evenodd" stroke="none"/>
      <path d="M14.0 8.15 Q14.55 8.55 14.35 8.8 L13.8 8.7 Q10.85 6.45 -0.2 6.45 L-0.25 6.45 Q-11.2 6.45 -14.15 8.7 L-14.8 8.8 -14.35 8.15 Q-11.0 5.9 -0.25 5.9 L-0.2 5.9 Q10.65 5.9 14.0 8.15" fill="#fdf200" fill-rule="evenodd" stroke="none"/>
      <path d="M-11.3 8.0 L-11.3 8.15 -12.15 8.45 -12.25 8.25 -11.3 8.0" fill="#2d3030" fill-rule="evenodd" stroke="none"/>
      <path d="M-7.65 7.35 L-10.5 7.9 -10.5 7.8 -7.65 7.35" fill="#2d3030" fill-rule="evenodd" stroke="none"/>
      <path d="M-5.85 7.15 L-5.65 7.55 -10.5 8.35 -10.5 7.9 -6.05 7.15 -5.85 7.15" fill="#2d3030" fill-rule="evenodd" stroke="none"/>
      <path d="M-3.1 6.95 L-1.35 6.9 -1.15 7.25 -2.95 7.35 -3.1 6.95" fill="#2d3030" fill-rule="evenodd" stroke="none"/>
      <path d="M-11.3 19.2 L-9.7 19.15 -9.5 19.55 -11.1 19.6 -11.3 19.2" fill="#2d3030" fill-rule="evenodd" stroke="none"/>
      <path d="M-13.95 10.15 L-14.85 11.7 -15.1 11.2 -14.1 9.75 -13.95 10.15" fill="#2d3030" fill-rule="evenodd" stroke="none"/>
      <path d="M1.55 17.35 L3.8 18.05 4.0 18.55 3.15 18.3 1.8 17.85 1.55 17.35" fill="#2d3030" fill-rule="evenodd" stroke="none"/>
      <path d="M-5.65 18.5 L-0.6 17.1 -0.4 17.5 Q-1.6 17.55 -3.55 18.3 L-5.55 18.9 -5.85 18.95 -6.05 18.6 -5.65 18.5" fill="#2d3030" fill-rule="evenodd" stroke="none"/>
      <path d="M-11.3 8.15 L-11.3 8.6 -11.95 8.85 -12.15 8.45 -11.3 8.15" fill="#2d3030" fill-rule="evenodd" stroke="none"/>
      <path d="M-15.2 9.0 Q-15.4 8.55 -14.9 8.05 L-14.7 8.5 -14.8 8.8 -14.55 8.9 -14.35 9.3 -14.8 9.3 -15.2 9.0" fill="#2d3030" fill-rule="evenodd" stroke="none"/>
      <path d="M-11.3 6.95 L-12.8 7.4 -13.0 7.05 Q-10.7 6.25 -6.6 5.8 L-6.35 6.2 -11.25 6.95 -11.3 6.95" fill="#2d3030" fill-rule="evenodd" stroke="none"/>
      <path d="M-1.8 5.9 L-3.55 6.0 -3.75 5.55 -2.0 5.5 -1.8 5.9" fill="#2d3030" fill-rule="evenodd" stroke="none"/>
      <path d="M-6.05 7.15 L-10.5 7.8 -10.5 7.35 -6.1 6.75 -5.85 7.15 -6.05 7.15" fill="#2d3030" fill-rule="evenodd" stroke="none"/>
      <path d="M-3.15 6.9 L-3.2 6.75 -3.2 6.55 -1.55 6.45 -1.35 6.85 -3.15 6.9" fill="#2d3030" fill-rule="evenodd" stroke="none"/>
      <path d="M-5.65 7.55 L-5.35 8.1 Q-9.35 8.45 -11.65 9.3 L-11.95 8.85 -11.3 8.6 -11.3 8.9 -10.5 8.9 -10.5 8.35 -5.65 7.55" fill="#fdff4c" fill-rule="evenodd" stroke="none"/>
      <path d="M1.25 16.7 Q2.1 16.85 3.45 17.35 L3.8 18.05 1.55 17.35 1.25 16.7" fill="#fdff4c" fill-rule="evenodd" stroke="none"/>
      <path d="M-11.55 18.6 L-9.95 18.6 -9.7 19.15 -11.3 19.2 -11.55 18.6" fill="#fdff4c" fill-rule="evenodd" stroke="none"/>
      <path d="M-3.9 17.35 L-0.9 16.55 -0.6 17.1 -5.65 18.5 -6.05 18.6 -6.4 18.1 -3.9 17.35" fill="#fdff4c" fill-rule="evenodd" stroke="none"/>
      <path d="M-2.7 7.9 L-2.95 7.35 -1.15 7.25 -0.9 7.85 -2.7 7.9" fill="#fdff4c" fill-rule="evenodd" stroke="none"/>
      <path d="M-13.65 10.75 L-14.55 12.4 -14.85 11.7 -13.95 10.15 -13.65 10.75" fill="#fdff4c" fill-rule="evenodd" stroke="none"/>
      <path d="M3.45 17.35 Q2.1 16.85 1.25 16.7 L-2.7 7.9 -0.9 7.85 3.45 17.35" fill="#4e514e" fill-rule="evenodd" stroke="none"/>
      <path d="M-5.35 8.1 L-0.9 16.55 -3.9 17.35 -6.4 18.1 -11.65 9.3 Q-9.35 8.45 -5.35 8.1" fill="#4e514e" fill-rule="evenodd" stroke="none"/>
      <path d="M-14.55 12.4 L-13.65 10.75 -9.95 18.6 -11.55 18.6 -14.55 12.4" fill="#4e514e" fill-rule="evenodd" stroke="none"/>
      <path d="M-10.5 7.8 L-10.5 7.9 -11.3 8.15 -11.3 8.0 -10.5 7.8" fill="#2d3030" fill-rule="evenodd" stroke="none"/>
      <path d="M-11.3 8.15 L-10.5 7.9 -10.5 8.35 -11.3 8.6 -11.3 8.15" fill="#fdff4c" fill-rule="evenodd" stroke="none"/>
      <path d="M-10.5 7.8 L-11.3 8.0 -11.3 7.55 -10.5 7.35 -10.5 7.8" fill="#fdff4c" fill-rule="evenodd" stroke="none"/>
      <path d="M-11.3 8.9 L-11.3 8.6 -10.5 8.35 -10.5 8.9 -11.3 8.9" fill="#fdff4c" fill-rule="evenodd" stroke="none"/>
      <path d="M-14.8 8.8 L-14.7 8.5 -14.55 8.9 -14.8 8.8" fill="#2d3030" fill-rule="evenodd" stroke="none"/>
      <path d="M-10.5 7.35 L-10.5 6.95 -11.25 6.95 -6.35 6.2 -6.1 6.75 -10.5 7.35" fill="#fdff4c" fill-rule="evenodd" stroke="none"/>
      <path d="M-3.2 6.55 L-3.3 6.55 -3.35 6.4 -3.2 6.4 -3.2 6.55" fill="#2d3030" fill-rule="evenodd" stroke="none"/>
      <path d="M-13.9 11.5 L-13.3 11.15 -12.85 11.25 -12.75 12.05 -12.45 12.2 -12.35 12.45 -13.2 12.3 Q-13.05 13.15 -13.2 13.15 L-13.9 11.5" fill="#fdff2f" fill-rule="evenodd" stroke="none"/>
      <path d="M-12.2 11.35 L-11.65 11.05 Q-11.1 11.05 -11.35 11.75 L-11.5 11.55 Q-11.6 12.0 -11.85 12.1 -12.55 12.35 -12.2 11.35" fill="#fdff2f" fill-rule="evenodd" stroke="none"/>
      <path d="M-11.45 10.9 L-10.9 10.95 Q-11.15 9.9 -10.65 10.4 -10.65 11.95 -10.95 11.95 -10.95 11.2 -11.1 11.15 L-11.45 10.9" fill="#fdff2f" fill-rule="evenodd" stroke="none"/>
      <path d="M-10.35 9.35 Q-10.05 9.25 -9.6 10.0 -9.25 9.9 -9.25 10.5 L-9.95 10.85 -10.35 9.35" fill="#fdff2f" fill-rule="evenodd" stroke="none"/>
      <path d="M-9.05 9.75 Q-8.65 9.4 -8.5 9.85 -8.35 10.3 -8.7 10.4 L-9.15 10.25 Q-9.3 10.0 -9.05 9.75" fill="#fdff2f" fill-rule="evenodd" stroke="none"/>
      <path d="M-8.2 10.05 L-8.4 9.4 Q-8.15 9.35 -8.05 9.6 L-7.7 9.25 -6.6 9.3 Q-6.45 9.6 -6.85 9.7 L-7.65 9.6 -8.2 10.05" fill="#fdff2f" fill-rule="evenodd" stroke="none"/>
    </g>
  </defs>
</svg>
