<svg xmlns:xlink="http://www.w3.org/1999/xlink" height="58.65" width="49.15" xmlns="http://www.w3.org/2000/svg"><g transform="translate(24.1 18.1)"><use height="12" transform="matrix(-1 0 0 1 1.05 -3.9)" width="14.45" xlink:href="#a"/><use height="11.45" transform="matrix(-1 0 0 1 -1.5 -3.45)" width="11.55" xlink:href="#b"/><use height="10.55" transform="matrix(-1 0 0 1 1.05 -2.6)" width="14.1" xlink:href="#c"/><use height="3.55" transform="matrix(-1 0 0 1 -2.25 -3.35)" width="6.8" xlink:href="#d"/><use height="8.9" transform="matrix(-1 0 0 1 -.75 -1.2)" width="11.7" xlink:href="#e"/><use height="2" transform="matrix(-1 0 0 1 -2.2 -3.35)" width="6.8" xlink:href="#f"/><use height="3.55" transform="matrix(-1 0 0 1 -2.25 -3.35)" width="5.85" xlink:href="#g"/><use height="1.85" transform="matrix(-1 0 0 1 -5.85 -3)" width="2.75" xlink:href="#h"/><use height="12" transform="translate(-.95 -3.9)" width="14.45" xlink:href="#a"/><use height="11.45" transform="translate(1.6 -3.45)" width="11.55" xlink:href="#b"/><use height="10.55" transform="translate(-.95 -2.6)" width="14.1" xlink:href="#c"/><use height="3.55" transform="translate(2.35 -3.35)" width="6.8" xlink:href="#d"/><use height="8.9" transform="translate(.85 -1.2)" width="11.7" xlink:href="#e"/><use height="2" transform="translate(2.3 -3.35)" width="6.8" xlink:href="#f"/><use height="3.55" transform="translate(2.35 -3.35)" width="5.85" xlink:href="#g"/><use height="1.85" transform="translate(5.95 -3)" width="2.75" xlink:href="#h"/><use height="2.25" transform="translate(-2.05)" width="4.3" xlink:href="#i"/></g><defs><use height="12" width="14.45" xlink:href="#j" id="a"/><use height="11.45" width="11.55" xlink:href="#k" id="b"/><use height="10.55" width="14.1" xlink:href="#l" id="c"/><use height="3.55" width="6.8" xlink:href="#m" id="d"/><use height="8.9" width="11.7" xlink:href="#n" id="e"/><use height="2" width="6.8" xlink:href="#o" id="f"/><use height="3.55" width="5.85" xlink:href="#p" id="g"/><use height="1.85" width="2.75" xlink:href="#q" id="h"/><use height="2.25" width="4.3" xlink:href="#r" id="i"/><path d="M13.1 11.85q-2.8-4.1-6.45-4.7-1.95-1-3.7-1L0 6.2V3.35l1.5-.1.45.05 1-1.65Q4.65-.05 7.45 0q3.8.35 4.45 2.9l1.55 4.6q1.8 3.3.4 4.35l-.65.15-.05-.1-.05-.05" fill="#251712" fill-rule="evenodd" id="j"/><path d="M11 11.45q-.95-1.5-2.25-2.7-1.7-1.5-3.9-2.45-1.9-.75-4.1-.8Q.3 5 .1 4.2-.35 2.55.85 1v.1q.5-.6 1.6-.9l2.5-.2Q7.7.2 8.9 2.25l.45 1.9q.05.85 1.7 4.15 1 2.4-.05 3.15" fill="#fff" fill-rule="evenodd" id="k"/><path d="M11.85 5.8v-.05l-.6-1.1L8.8 4.6l-.4.5 1.55.9 2.75 1.45-.85-1.65M10.3 0q1.4.85 1.6 3.3l1.65 3.85q1.15 2.8 0 3.3l-.45.1q.15-.1.4-.25-2.95-3.75-7.4-5.05l-.15.05-2.05-.5.2.1L0 4.7V2.6l2.55.05.1.7q.2.8.65 1.3L2.75 3.1q.75 1.7 4.2 1.6H7l.1-.05 2.05-.6L10.6 2.7q.8-.95-.3-2.7" fill="#bcb7b7" fill-rule="evenodd" id="l"/><path d="M6.8 1.55Q6.9 3.3 3.5 3.5.1 3.75 0 2-.15.3 3.3 0q3.4-.2 3.5 1.55" fill="#ff0" fill-rule="evenodd" id="m"/><path d="M3.3 0q3.4-.2 3.5 1.55Q3.85-.95 0 2 0 .25 3.3 0" fill="#9f5400" fill-rule="evenodd" id="o"/><path d="M3.3 0Q1 1.15 3.2 2.1l2.65.75-2.35.65Q.1 3.75 0 2-.2.2 3.3 0" fill="#ff8600" fill-rule="evenodd" id="p"/><path d="M2.55.7q.35.15.1.5-.4.8-1.15.8-.75.05-1.25-.7Q-.2.6.25.2L1.5.15Q2.05.2 2.55.7" fill="#fff" fill-rule="evenodd" transform="translate(0 -.15)" id="q"/><path d="M1.8.95q1.25.85 2.25.85l.25.25-4.3.2Q.7.8.7 0l1.1.95" fill="#848080" fill-rule="evenodd" id="r"/><g id="n" fill="#848080" fill-rule="evenodd"><path d="M.6 1.2q-.25 1.1.9 2.05l-1.15-.3q-.55-.2-.2-1L.6 1.2m9.2 5.1q1.5 1.35 1.9 2.6-1.9-2.8-6.2-4.75l-3.9-1.4q5.25.75 8.2 3.55m.2-4.7.3.95-2.55.2q1.3-.3 2.25-1.15"/><path d="M8.75 2.3Q9.9 1.6 9.8.5l.25 1.2-.3.55-1 .05"/><path d="m8 2.75.8-.35.45-.1.6-.3.3.15.35.85L8 2.75m-2.55-1q-2.5.4-3.45-.7l-.3-.7q.95 1.7 4.15.9Q8.05.8 8.4 0q-.3 1.05-2.95 1.75"/></g></defs></svg>