<?xml version="1.0" encoding="UTF-8" standalone="no"?>
<svg xmlns:xlink="http://www.w3.org/1999/xlink" height="58.65px" width="49.15px" xmlns="http://www.w3.org/2000/svg">
  <g transform="matrix(1.0, 0.0, 0.0, 1.0, 24.1, 18.1)">
    <use height="16.1" transform="matrix(1.0, 0.0, 0.0, 1.0, -16.8, 3.5)" width="32.8" xlink:href="#shape0"/>
  </g>
  <defs>
    <g id="shape0" transform="matrix(1.0, 0.0, 0.0, 1.0, 16.8, -3.5)">
      <path d="M5.2 19.6 L2.55 19.25 Q0.55 18.05 -0.55 18.15 L-3.15 19.0 -6.45 19.25 Q-10.95 19.25 -12.7 18.55 -15.05 17.6 -15.05 14.3 L-14.95 14.75 -13.65 16.35 Q-12.45 17.4 -11.7 17.4 L-3.2 17.6 Q-2.2 17.6 -0.35 15.75 2.1 17.6 2.95 17.6 L10.95 17.4 Q12.55 17.4 14.05 15.1 L13.6 17.25 Q12.55 18.95 6.55 19.5 L5.2 19.6" fill="#706b94" fill-opacity="0.3019608" fill-rule="evenodd" stroke="none"/>
      <path d="M-4.6 6.0 L-9.3 5.9 Q-11.75 5.9 -11.75 9.2 L-11.75 12.65 Q-11.75 15.9 -8.5 15.9 L-3.75 16.0 Q-1.35 16.0 -1.35 12.7 L-1.35 9.25 Q-1.35 6.0 -4.6 6.0 M-13.8 4.25 L-0.4 4.0 -0.4 15.7 -0.35 15.75 Q-2.2 17.6 -3.15 17.6 L-11.7 17.4 Q-12.45 17.4 -13.65 16.35 L-14.95 14.75 Q-16.05 11.45 -16.05 8.25 -16.4 6.75 -16.25 5.9 -16.05 4.25 -13.8 4.25" fill="#fffbe5" fill-rule="evenodd" stroke="none"/>
      <path d="M-8.5 15.9 Q-11.75 15.9 -11.75 12.65 L-11.75 9.2 Q-11.75 5.9 -9.3 5.9 L-4.6 6.0 Q-1.35 6.0 -1.35 9.25 L-1.35 12.7 Q-1.35 16.0 -3.75 16.0 L-8.5 15.9" fill="#ff0000" fill-opacity="0.5019608" fill-rule="evenodd" stroke="none"/>
      <path d="M15.35 8.25 Q15.35 11.3 14.2 14.75 L12.9 16.35 Q11.75 17.4 10.95 17.4 L2.95 17.6 -0.4 15.7 -0.4 4.0 13.1 4.25 Q15.35 4.25 15.6 5.9 L15.35 8.25 M3.85 6.0 Q0.6 6.0 0.6 9.25 L0.6 12.7 Q0.6 16.0 3.05 16.0 L7.75 15.9 Q11.0 15.9 11.0 12.65 L11.0 9.2 Q11.0 5.9 8.6 5.9 L3.85 6.0" fill="#fffbe5" fill-rule="evenodd" stroke="none"/>
      <path d="M0.6 12.7 L0.6 9.25 Q0.6 6.0 3.85 6.0 L8.6 5.9 Q11.0 5.9 11.0 9.2 L11.0 12.65 Q11.0 15.9 7.75 15.9 L3.05 16.0 Q0.6 16.0 0.6 12.7" fill="#3100ff" fill-opacity="0.5019608" fill-rule="evenodd" stroke="none"/>
      <path d="M13.1 4.25 L-0.3 4.0 -13.8 4.25 Q-16.1 4.25 -16.3 6.3 L-15.85 10.25 -15.2 13.45 Q-14.3 17.4 -9.35 17.4 L-3.45 17.6 Q-2.75 17.6 -0.4 15.7 0.3 15.7 2.95 17.6 L7.25 17.4 Q10.35 17.4 11.6 16.8 13.1 16.05 14.15 13.7 L15.2 10.5 Q16.4 4.25 13.1 4.25 Z" fill="none" stroke="#757470" stroke-linecap="round" stroke-linejoin="round" stroke-width="1.0"/>
    </g>
  </defs>
</svg>
