<svg xmlns:xlink="http://www.w3.org/1999/xlink" height="58.65" width="49.15" xmlns="http://www.w3.org/2000/svg"><use height="38.95" transform="translate(9.95 19.7)" width="28.8" xlink:href="#a"/><defs><g id="a"><path d="M11.6 18.2q1.55 0 1.3 1.65l-2.25 3.8q-2.35 3.9-2.8 5.3-.3 1.05-.75 5.15-.55 3.6-1.6 3.6-1.7 0-1.3-2.1 0-4.75 1.7-8.9.75-1.75 2.75-4.9 2.25-3.6 2.95-3.6m-23.9-1.7q.85 0 2.95 4.3l2.9 6.1q.9 1.75 1.5 5.35l1.15 5.2-.05.45-2.2-2.05-1.2-2.3-.2-1q-.3-1.85-1.15-4.2-4.95-9.4-4.95-10.35 0-1.5 1.25-1.5" fill="#282639" fill-opacity=".302" fill-rule="evenodd" transform="translate(14.15 -1.6)"/><path d="M.4 40.05q-3.9 0-5.35-4.55-.95-5.4-1.55-7.15-.55-1.6-3.6-5.65-2.9-3.8-3.4-5.85-.5-2.2.5-4.6 1.15-3 1.2-4.1.15-2.45 3-4.2 3-1.85 7.6-1.85h2.8q4.6 0 7.65 1.85 2.8 1.75 2.95 4.2.05 1.15 1.3 4 1 2.3.5 4.5-.45 2.05-3.35 5.85-3.1 4.05-3.65 5.65-.6 1.75-1.4 7.25-1.3 4.65-5.2 4.65" fill="#fefae7" fill-rule="evenodd" transform="translate(14.15 -1.6)"/><path d="M9.25 3.95q2.8 1.75 2.95 4.2.05 1.15 1.3 4 1 2.3.5 4.5-.45 2.05-3.35 5.85-3.1 4.05-3.65 5.65-.6 1.75-1.4 7.25-1.3 4.65-5.2 4.65-3.9 0-5.35-4.55-.95-5.4-1.55-7.15-.55-1.6-3.6-5.65-2.9-3.8-3.4-5.85-.5-2.2.5-4.6 1.15-3 1.2-4.1.15-2.45 3-4.2 3-1.85 7.6-1.85h2.8q4.6 0 7.65 1.85Z" fill="none" stroke="#403e3a" stroke-linecap="round" stroke-linejoin="round" transform="translate(14.15 -1.6)"/><path d="M11 17.4q-2.55 1.05-5.4-1.05-2.95-2.15-3.85-6-.5-1.95.15-2.95.65-1.05 1.55.3l2.5 4.05q2.15 2.55 5 2.35 1.7-.15 1.55 1.3-.15 1.45-1.5 2m-21.55 0q-1.35-.55-1.5-2-.2-1.45 1.55-1.3 2.85.2 5-2.35L-3 7.7q.85-1.4 1.55-.3.65 1.05.15 2.95-.9 3.85-3.85 6-2.85 2.1-5.4 1.05m10.4-1.25q1.35 0 1.85 3.15H-2l.4-1.55q.6-1.6 1.45-1.6m.35 21.8q-2.95 0-2.75-3.95.75-4.4.6-5.3-.1-.75-1.35-2.7-1.05-1.55-.65-2.05 2.05-2.35 3.9-2.4 1.25-.05 2.65.9 1.2.8 1.45 1.4.25.55-.55 2.1-1 1.9-1.05 3-.05 1.15.6 5.35.1 3.65-2.85 3.65" fill-rule="evenodd" transform="translate(14.15 -1.6)"/><path d="m6.1 6.25 1.1.1q1.3.25 2 1.1l3.4 4.8q-1.35 0-3.5-1.35-1.3-.85-2.3-2.85l-.7-1.8m-3.8 11.4-.6-2.8h.35q1.4 2.65 3.9 4 1.85 1 3 .85 1.6-.25 2.95-.9-.6.3-1.95 1.9l-2.9 3q.25-.75-3-4-1.25-1.15-1.75-2.05" fill="#b2aea8" fill-rule="evenodd" transform="translate(14.15 -1.6)"/><path d="m2.2 15.15.05 2.45-1.3-2.45.25-2.25 1 2.25m3 8.8 1.1.9-1.75 4.5v2.1q-.75-2-.6-3.5l1.25-4" fill="#9d9a94" fill-rule="evenodd" transform="translate(14.15 -1.6)"/></g></defs></svg>