<svg xmlns:xlink="http://www.w3.org/1999/xlink" height="58.65" width="49.15" xmlns="http://www.w3.org/2000/svg"><use height="4.9" transform="translate(10.7 32.85)" width="26.1" xlink:href="#a"/><defs><g id="a"><path d="M10.4 14.8q2.4-.05 1.65 2.35-.7 2.45-3 2.4-.95 0-1.7-1t-.5-1.85q.2-.75 1.5-1.35 1.15-.55 2.05-.55" fill="#fff" fill-rule="evenodd" transform="translate(13.4 -14.75)"/><path d="m8.95 15.25 1.5 3.9m1.75-3.25L7.45 18" fill="none" stroke="red" stroke-linecap="round" stroke-linejoin="round" transform="translate(13.4 -14.75)"/><path d="M-11.15 14.8q.9 0 2.05.55 1.3.6 1.55 1.35.25.85-.55 1.85-.75 1-1.7 1-2.25.05-3-2.4-.75-2.4 1.65-2.35" fill="#fff" fill-rule="evenodd" transform="translate(13.4 -14.75)"/><path d="m-9.65 15.25-1.5 3.9m-1.75-3.25 4.75 2.1" fill="none" stroke="red" stroke-linecap="round" stroke-linejoin="round" transform="translate(13.4 -14.75)"/></g></defs></svg>