<svg xmlns:xlink="http://www.w3.org/1999/xlink" height="58.65" width="49.15" xmlns="http://www.w3.org/2000/svg"><use height="13.45" transform="translate(9.75 15.15)" width="28.1" xlink:href="#a"/><defs><g id="a" fill-rule="evenodd"><path d="M11.2 5.4V3.9Q10.9.45 7.75-.4l-8.2-1.05Q-3.3-1.5-8.55-.3q-3.25.8-3.55 4.25v.15l.15.95.1.75-.85.25-.15 1.8 1.6-.65.35.6.05.2q1.5 1.15 3.5 1l5.9-1.05q.9-.65 2 0l3.6.6 5.3-.2 1.45-.8.4-.45.5.3.45.2.05-.55-.05-1.2-1.05-.45m1.5-1q1 .45 1.05 1.3v.25q.1 2.45-.25 3-.5.75-1.95 0-.75.6-1.65.8l-6.1.3Q.6 9.7-.15 9.25l-.4-.1q-1.15.85-6.65 1.3-2.85.3-4.6-1.3l-.05-.1-2.3.05-.2-1.05V7.9l.2-2.15q0-.55.65-.9l-.1-.75v-.3q.4-4.5 4.7-5.55Q-3.5-3-.45-2.95q3.75 0 8.55 1.1Q12.3-.7 12.7 3.8v.6" transform="translate(14.35 2.95)"/><path d="M6.55 7.8H4.2Q7.85 9 10.4 7l-3.85.8m4.4-1.25.1.2q-2.9 2.7-7.45 1.1L1.45 7.3l.05-.25 1.35.35 3.65.15q2.45-.3 4.45-1" transform="translate(14.35 2.95)"/><path d="M1.65-.45h-4.2q-2.5-.2-5.65.6-3.85.95-3.7 3.85.1 1.95 1.25 2.8l6.65.25 1.55-.3q1.15-.8 2-.7 1.25.15 1.95.7l1.6.3 6.7-.25Q10.95 6 11 4q.15-2.9-3.7-3.85l-5.65-.6m-9.9.35 5.75-.6h4.15l5.7.6Q11.4.95 11.25 4q-.05 2-1.3 3l-6.9.25-1.65-.3Q.55 6.3-.45 6.3q-.75-.15-1.9.7l-1.6.3q-5.2.95-6.85-.3-1.2-.95-1.35-3-.15-3.05 3.9-4.1" transform="translate(14.35 2.95)"/><path d="m-12.5 5.8.95 1.45-2.05.65.1-1.35q.65-.1 1-.75" fill="#002f90" transform="translate(14.35 2.95)"/><path d="M-12.5 5.8q-.35.65-1 .75l.05-.75.8-.55.15.55" fill="#003fc1" transform="translate(14.35 2.95)"/><path d="m-13.6 7.9 2.05-.65.55.6q-2.3 1.2-2.5.85l-.1-.8M13 6q.15 2.1-.1 2.5-.25.35-2.45-1l1.05-1.2L13 6" fill="#001c58" transform="translate(14.35 2.95)"/><path d="M13 5.6V6l-1.5.3.4-1.4 1.1.7" fill="#002f90" transform="translate(14.35 2.95)"/><path d="m.7 6.7 4.15.7 4.5.2q1.25-.2 2.4-1.9 1.2 2.4-2.1 3.35L3.9 9.3.25 8.6-1 8.55q-.75.6-6.25 1.2-2.6.25-4.05-1.2l-1.2-2.85 1.25 1.3q.4 1.9 8.95.2.8-.2 1.7-1.45Q0 5.6.7 6.7" fill="#00387a" transform="translate(14.35 2.95)"/><path d="m1.6 6.35 4.95.8q3.2.05 3.5-2.9l1.9-.4q.25 2.7-1.65 3.95Q7.45 9.7.55 7.3q-.4-.05-.65-.65-.2-.5-.35-.5-.2 1.05-1 1.15-9.5 3.5-11.2-1.9h2.05q.8 1.9 3.6 1.75l4.25-.75 2.3-2.1L1.6 6.35" fill="#005ad2" transform="translate(14.35 2.95)"/><path d="M-8.75-1.05q5.4-1.2 8.3-1.15L7.9-1.1q3.8.95 4.05 4.95l-1.9.4.05-.25q.15-2.6-3.45-3.5L2.4-.1-.4 0l-2.8-.1q-1.65-.05-4.25.6-3.6.9-3.45 3.5l.3 1.4h-2.05q-.3-.8-.2-1.55.35-3.95 4.1-4.9" fill="#0078f9" transform="translate(14.35 2.95)"/><path d="m-.45-1.6 4.7.4Q9.1-.65 9.7.25 5.05-1 1.75-1.05l-2.2.1-2.2-.1Q-5.95-1-10.6.25q.65-.9 5.45-1.45l4.7-.4" fill="#12c4fb" transform="translate(14.35 2.95)"/><path d="M10.9 4.4q.05 2.6-3.6 2.85-2.55.2-5.6-.65l6.1.35q3.05-1.2 1.3-4.5-.55-1.1-5.1-1.7L-.45.35l-4.45.4q-4.55.6-5.1 1.7-1.65 3.45 1.25 4.6l6.2-.45-5.65.65Q-11.9 7-11.8 4.4q.25-5.3 11.35-5.55Q10.9-.9 10.9 4.4" fill="#00387a" transform="translate(14.35 2.95)"/><path d="m-2.6-.1 2.15-.1L5.1.25 2.35 2.7Q.8 4.1.3 5.4l-.8-.3q-.3 0-1.15.5-.9.5-.85.75l-4.05.85Q-5.8 4.85-2.6-.1" fill="#00a0fa" transform="translate(14.35 2.95)"/><path d="M-6.55 7.2q-4.9.9-4.55-3.15.15-2.65 3.25-3.4L-2.6-.1q-3.2 4.95-3.95 7.3M7 .65q3 .75 3.25 3.4.3 3.6-3.5 3.3l-5.15-1q.05-.3-1.3-.95.5-1.3 2.05-2.7L5.1.25l1.9.4" fill="#0064ef" transform="translate(14.35 2.95)"/><path d="m-10.95 5.8-.15-1.75q.15-2.65 3.25-3.4l7-.75q-9.35 1.85-10.1 5.9" fill="#0080f8" transform="translate(14.35 2.95)"/><path d="m.85-.1 1.1.1q-4.6 2.85-6.65 6.85l-.7.15Q-3.9 3.1.85-.1" fill="#fff" transform="translate(14.35 2.95)"/><path d="M10 4q.25 3.5-4.35 2.55 2.2-.7 2.8-1.55.75-1.15-.4-3.55Q9.85 2.15 10 4" fill="#002f90" transform="translate(14.35 2.95)"/><path d="M-1.45.45q-4.9.4-6.9 1.8-1.85 1.2-1.55.65Q-8.75 1.2-4.5.6l3.05-.15" fill="#fff" transform="translate(14.35 2.95)"/><path d="m1.4 6 .15-.8 6.15.7-.1.85L1.4 6" fill="#002f90" transform="translate(14.35 2.95)"/><path d="m-7.6-.8-.3.6-.85.5Q-10 .75-10.9 1.75l-.65 1-.75-.3L-11.25.9Q-9.8-.6-7.6-.8" fill="#bffdfe" transform="translate(14.35 2.95)"/><path d="M2.1 6.45Q2.3 5.4 6.45 1l.6.55Q3.1 5.8 2.95 6.6l-.85-.15" fill="#fff" transform="translate(14.35 2.95)"/><path d="m-12.05 6.2.8-.2q0 2.35 6.9 1l.7-.2.6.75Q-8.7 8.9-11 7.45l-1.05-1.25M.45 5.05l-.3.75-.6-.25-1.5 1q-.25-.25.1-.8l1.3-1.1 1 .4m9.7.5.45-.65.65-.05q-.5 3.3-4.95 3l.05-.8q2.85.15 3.8-1.5" fill="#bffdfe" transform="translate(14.35 2.95)"/><path d="M.05 7.25V8.5h-1V7.25h1" transform="translate(14.35 2.95)"/></g></defs></svg>