<svg xmlns:xlink="http://www.w3.org/1999/xlink" height="58.65" width="49.15" xmlns="http://www.w3.org/2000/svg"><use height="17" transform="translate(13 24.65)" width="12.25" xlink:href="#a"/><defs><g id="a"><path d="M-6.6 18.2v.3l-.25.25v.5l-.25.45q0 .5-.25.55l.25.5q0 .5-.25.75l.25.55q.25.2.25.7 0 .5-1 .8l-1-.8q-.25-.5.25-.7-.5 0-.5-1.05-.25-.5.25-.75-.5-.3-.25-1.25v-1.65l.5.1 2 .75" fill="#772f00" fill-rule="evenodd" transform="translate(11.1 -6.55)"/><path d="M-.1 12.2q0-4.65-5-4.65-4.8 0-4.75 5.65-.05 3.85 4.75 3.9 5-.05 5-4.9m-5.25 6.4q-5.75-.05-5.75-5.65 0-6.4 6.25-6.4 6 0 6 5.65 0 6.35-6.5 6.4" fill="#772f00" fill-rule="evenodd" transform="translate(11.1 -6.55)"/><path d="M-.2 12.4q0 2-1.4 3.35-1.35 1.4-3.35 1.4t-3.35-1.4q-1.4-1.35-1.4-3.35t1.4-3.35q1.35-1.4 3.35-1.4t3.35 1.4Q-.2 10.4-.2 12.4" fill="#a0bff0" fill-opacity=".58" fill-rule="evenodd" transform="translate(11.1 -6.55)"/><path d="m-7.25 18.1-.15.25-.4.3q.15.2.05.65l-.05.3-.4.5.2.6.05.3-.15.6q.3.1.4.55l.15.3q.2.7-.25.8-.45.1-.6-.6l-.15-.3.1-.65q-.35-.15-.35-.7l-.05-.3q-.05-.45.25-.65-.2-.35-.05-.7l.05-.3.35-.5q-.15-.35.15-.75l.15-.3q.55-.5.8-.25.4.3-.1.85" fill="#f8a235" fill-rule="evenodd" transform="translate(11.1 -6.55)"/><path d="m-7.8 17.6.2-.25q.4-.6.8-.3.35.25-.15.85l-.15.3-.4.25q.2.3.05.65l-.05.3q-.05.35-.35.55.15.15.15.55l.1.3-.2.6q.3.05.45.55l.1.3q.2.7-.25.8-.4.1-.6-.6l-.15-.25.1-.7q-.35-.1-.35-.65l-.05-.35.25-.65-.05-.7.05-.3.35-.5.15-.75" fill="#ffdc00" fill-rule="evenodd" transform="translate(11.1 -6.55)"/><path d="M-2 9.5q-1.3-1.3-3.15-1.3Q-7 8.2-8.3 9.5q-1.3 1.3-1.3 3.15 0 1.85 1.3 3.1 1.3 1.3 3.15 1.3 1.85 0 3.15-1.3 1.3-1.25 1.3-3.1T-2 9.5m-6.85-.6q1.55-1.55 3.7-1.55 2.15 0 3.7 1.55Q.1 10.45.1 12.65t-1.55 3.7q-1.5 1.55-3.7 1.55-2.15 0-3.7-1.55-1.55-1.5-1.55-3.7t1.55-3.75" fill="#f19300" fill-rule="evenodd" transform="translate(11.1 -6.55)"/><path d="M-1.8 9.35q-1.3-1.3-3.1-1.3t-3.05 1.3q-1.3 1.25-1.3 3.05 0 1.8 1.3 3.1 1.25 1.25 3.05 1.25 1.8 0 3.1-1.25 1.25-1.3 1.25-3.1T-1.8 9.35m-6.75-.6q1.5-1.5 3.65-1.5t3.65 1.5q1.5 1.5 1.5 3.65t-1.5 3.65q-1.5 1.5-3.65 1.5t-3.65-1.5q-1.5-1.5-1.5-3.65t1.5-3.65" fill="#ffdc00" fill-rule="evenodd" transform="translate(11.1 -6.55)"/><path d="M-5.05 8.45q-2.75 0-3.95 2.5Q-8.05 8-4.9 8q1.8 0 3.1 1.25Q-.55 10.5-.55 12.3q0 .95-.4 1.85l.2-1.35Q-.75 11-2 9.75q-1.3-1.3-3.05-1.3" fill="#919191" fill-rule="evenodd" transform="translate(11.1 -6.55)"/><path d="M-6.45 8.55q2.4-.7 3.9.5-.4 2.3.3 6.45-.45.6-1.85.9-1.35-2.6-2-5.5l-.35-2.35" fill="#fff" fill-opacity=".714" fill-rule="evenodd" transform="translate(11.1 -6.55)"/><path d="M11.1 5.85q0-3.15-2.95-4.4l-1.85-.4" fill="none" stroke="#ffef9a" stroke-linecap="round" stroke-linejoin="round" stroke-width=".25"/><path d="M1.5 5.85q0 3.2 2.9 4.4l1.85.4" fill="none" stroke="#fff" stroke-linecap="round" stroke-linejoin="round" stroke-width=".25"/><path d="m-7.05 17.6-.25-.2.25-.2.2.2-.2.2m-1.1 2.4.2.2-.2.2-.2-.2.2-.2m.1-1.3.25-.2.2.2-.2.2-.25-.2m.2 3.3-.2-.2.2-.2.2.2-.2.2" fill="#fff" fill-rule="evenodd" transform="translate(11.1 -6.55)"/></g></defs></svg>