<svg xmlns:xlink="http://www.w3.org/1999/xlink" height="58.65" width="49.15" xmlns="http://www.w3.org/2000/svg"><use height="10.4" transform="translate(9.9 17.2)" width="27.95" xlink:href="#a"/><defs><g id="a"><path d="M13.05 4.8 11.65 9" fill="none" stroke="#000" stroke-linecap="round" stroke-linejoin="round" transform="translate(14.2 .9)"/><path d="M12.85 3.5 11.6 8.1h-.25l-1-1.75 2.5-2.85" fill="#7d0000" fill-rule="evenodd" transform="translate(14.2 .9)"/><path d="m-13.3 4.8 1.4 4.2" fill="none" stroke="#000" stroke-linecap="round" stroke-linejoin="round" transform="translate(14.2 .9)"/><path d="m-13.15 3.5 2.7 3.05-1.2 1.55h-.25l-1.25-4.6" fill="#7d0000" fill-rule="evenodd" transform="translate(14.2 .9)"/><path d="M2-.6q3-.55 6.7.05l1.05.15q1.45.3 2.25.95l.5.45.15.1v.05l.5.7q1.35 2.1-.35 3.7Q10.95 7.3 6.9 7.3h-.7q-5.45 0-6.45-.95-1 .95-6.45.95h-.7q-4 0-5.9-1.75-1.6-1.6-.35-3.7l.5-.7V1.1l.4-.35q.9-.9 3-1.25 3.8-.7 7.2-.1 1.15.15 2.3.95Q.8-.45 2-.6" fill-rule="evenodd" transform="translate(14.2 .9)"/><path d="m-9.35-.25 5.45-.2q2.35 0 3.65 1.5 1.15 1.05.1 4.4-.35 1.1-2.1 1.4L-7.4 7q-3.45 0-5.25-1.4-1.85-1.45-.6-3.65 1.1-1.75 3.9-2.2" fill="#a10000" fill-rule="evenodd" transform="translate(14.2 .9)"/><path d="M8.85-.25q2.8.45 3.9 2.2 1.3 2.15-.6 3.65Q10.4 7 6.9 7l-5.1-.15Q0 6.55-.3 5.45q-1.05-3.4.05-4.4L.7.3q1.25-.75 2.7-.75l5.45.2" fill="#a10000" fill-rule="evenodd" transform="translate(14.2 .9)"/><path d="M2.15-.35q3.15-.5 6.95.1 1.1.2 3.2 1.55l-1.15-.2-1.5-.2-4.9.15Q2.1 1.3.75 2.4L0 2.25l-.2.05-.05-.05-.1.05-.2-.05-.75.15q-1.35-1.1-4-1.35L-10.2.9l-1.5.2-1.15.2q2.1-1.35 3.2-1.55 3.8-.6 7-.1 1.5.3 2.4 1.2.8-.9 2.4-1.2" fill="#f73434" fill-rule="evenodd" transform="translate(14.2 .9)"/><path d="M-2.65.75q1.35.95 1.75 2.2Q.2 6.1-5.85 6.1q-6.65 0-6.35-3.15.3-3.2 6.75-3.2 1.4 0 2.8 1" fill="#410042" fill-rule="evenodd" transform="translate(14.2 .9)"/><path d="M2.35.85q1.4-1 2.8-1Q11.6-.15 11.9 3q.3 3.1-6.35 3.1-6.05 0-5-3.1Q1 1.8 2.35.85" fill="#410042" fill-rule="evenodd" transform="translate(14.2 .9)"/><path d="m9.85.45 1.4 1.1.55 1.25-3.7-.2q-2.75.2-3.9 0Q.7 2 .4 3.8l-.1-.15Q.1 2.3 1.85 1.05 3.45-.1 5.55-.3q2.8-.15 4.3.75m-10.6 3.4-.1-.05q-2.05-1-3.3-1.25l-5.05.55-3.3.5q-.1-1.75 1.75-2.75 1.65-.9 4.15-.9Q-.5 0-.75 3.85" fill="#93d7ff" fill-rule="evenodd" transform="translate(14.2 .9)"/><path d="M.85 4.6Q5.1 6.05 12 3.65l-2.2 1.8q-1.4.6-3.55.6-4.25 0-5.15-1.1L.85 4.6M-4.2 6l-2.05.1-3.35-.4-1.95-.6-.7-.8q.7 0 1.7.45l2.6.3q4.35.3 6.85-.65.25 1.3-3.1 1.6" fill="#9450ab" fill-rule="evenodd" transform="translate(14.2 .9)"/><path d="M3.05 1.55q-1-.5.45-.9L4.95.7l-.7.8-1.2.05M-9.9 1.9q-1.5-.7 1.9-.85l-.7.8-1.2.05" fill="#fff" fill-rule="evenodd" transform="translate(14.2 .9)"/><path d="M9.25.2q2.35.85 2.55 2.65l-2.2-.3-1.95-.35.35-.65L7.9.9Q7.6.3 6.05.1L3.3.3l.85-.4 5.1.3M-8.65 0l3.3-.25q1.55.1 2.45.7Q-.5 2-.9 3.65-1.45 3.6-2.8 3q-1.75-.4-2.2-.85Q-5.2 1.1-6.05.6-6.95.1-8.4 0h-.25" fill="#58b5ed" fill-rule="evenodd" transform="translate(14.2 .9)"/></g></defs></svg>