<?xml version="1.0" encoding="UTF-8" standalone="no"?>
<svg xmlns:xlink="http://www.w3.org/1999/xlink" height="58.65px" width="49.15px" xmlns="http://www.w3.org/2000/svg">
  <g transform="matrix(1.0, 0.0, 0.0, 1.0, 24.1, 18.1)">
    <use height="16.15" transform="matrix(1.0, 0.0, 0.0, 1.0, -16.1, 3.7)" width="31.25" xlink:href="#shape0"/>
  </g>
  <defs>
    <g id="shape0" transform="matrix(1.0, 0.0, 0.0, 1.0, 16.1, -3.7)">
      <path d="M0.5 12.0 Q-0.2 7.3 3.85 7.3 7.95 7.3 7.55 11.5 6.0 9.35 4.05 9.45 2.2 9.5 1.15 10.75 L0.5 12.0" fill="#282639" fill-opacity="0.3019608" fill-rule="evenodd" stroke="none"/>
      <path d="M-8.25 12.0 Q-8.95 7.3 -4.9 7.3 -0.8 7.3 -1.2 11.5 -2.75 9.35 -4.7 9.45 -7.65 9.55 -8.25 12.0" fill="#282639" fill-opacity="0.3019608" fill-rule="evenodd" stroke="none"/>
      <path d="M12.7 13.15 Q16.3 17.15 7.05 19.25 1.75 20.3 -0.4 19.35 L-4.55 19.85 Q-7.05 19.9 -10.25 18.6 -14.15 17.05 -14.3 14.65 -14.45 13.2 -13.55 12.85 -13.2 12.7 -11.1 13.95 -7.1 16.45 -4.85 16.6 L-0.2 16.6 5.3 16.95 Q7.15 16.65 9.4 15.2 L13.05 12.75 12.7 13.15" fill="#282639" fill-opacity="0.3019608" fill-rule="evenodd" stroke="none"/>
      <path d="M15.05 8.3 Q15.5 10.35 13.4 13.45 11.05 16.85 7.35 18.15 2.6 19.85 -0.5 18.6 L-0.5 5.5 Q1.7 3.2 5.8 3.8 14.35 4.95 15.05 8.3 M1.5 8.8 Q0.5 10.05 0.5 11.8 0.5 13.6 1.5 14.85 2.5 16.1 3.95 16.1 5.4 16.1 6.4 14.85 7.4 13.6 7.4 11.8 7.4 10.05 6.4 8.8 5.4 7.55 3.95 7.55 2.55 7.55 1.5 8.8" fill="#000000" fill-rule="evenodd" stroke="none"/>
      <path d="M-7.4 8.8 Q-8.4 10.05 -8.4 11.8 -8.4 13.6 -7.4 14.85 -6.4 16.1 -4.95 16.1 -3.5 16.1 -2.5 14.85 -1.5 13.6 -1.5 11.8 -1.5 10.05 -2.5 8.8 -3.5 7.55 -4.95 7.55 -6.35 7.55 -7.4 8.8 M-6.75 3.8 Q-2.65 3.2 -0.45 5.5 L-0.45 18.6 Q-3.6 19.85 -8.35 18.15 -12.05 16.9 -14.35 13.45 -16.45 10.4 -16.0 8.3 -15.3 4.95 -6.75 3.8" fill="#000000" fill-rule="evenodd" stroke="none"/>
      <path d="M1.55 5.5 Q4.6 4.0 9.3 5.55 14.4 7.25 14.0 9.6 L11.55 7.95 8.55 6.6 Q5.35 5.6 1.3 5.75 L1.55 5.5" fill="#919191" fill-rule="evenodd" stroke="none"/>
      <path d="M-1.55 6.3 L-5.0 5.9 -12.3 6.25 Q-7.5 3.9 -4.05 4.9 -1.6 5.8 -1.55 6.3" fill="#919191" fill-rule="evenodd" stroke="none"/>
    </g>
  </defs>
</svg>
