<svg height="23.5" width="23.5" xmlns:xlink="http://www.w3.org/1999/xlink" xmlns="http://www.w3.org/2000/svg"><use height="16.6" transform="translate(3.7 2.3)" width="15.3" xlink:href="#a"/><defs><g id="a" fill="#fff" fill-rule="evenodd"><path d="M-28.15 5.9q-2.65 0-4.55-2.5-1.4-1.75-1.85-3.55 6.85.85 12.7-.2-.35 2-1.75 3.75-1.9 2.5-4.55 2.5" transform="translate(36.35 10.7)"/><path d="M-36.35-4.7h.1q3.85-.85 3.9-6h.15q.05 5.5 4.6 6v.25q-4.05-.05-4.6 5.75-.8-5.65-3.9-5.75h-.25v-.25m11.9-4.3h.1q.05 3.95 3.3 4.3v.2q-2.9-.05-3.3 4.1-.55-4.05-2.8-4.1h-.15v-.2h.05q2.75-.6 2.8-4.3" transform="translate(36.35 10.7)"/></g></defs></svg>