<svg xmlns:xlink="http://www.w3.org/1999/xlink" height="99.2" width="82.2" xmlns="http://www.w3.org/2000/svg"><use height="13.8" transform="translate(20.85 69.4)" width="18.95" xlink:href="#a"/><defs><g id="a" fill-rule="evenodd"><path d="M-2.6 28.45q-.45 0-.45.15l.05.15.45.35h.3l.4-.15-.05-.2q-.15-.2-.45-.3h-.25m-2.45-.95.2-.05q.1-.25-.3-.65l-.5-.2-.2.05v.2l.3.45.5.2m-2.65-3q-.2-.15-.5-.15l-.2.05v.15l.3.45.5.2.2-.05.05-.15-.35-.5m8 4.55.4.15.3-.05.45-.35.05-.15q-.15-.15-.4-.15l-.3.05-.45.35-.05.15m3.7-1.3.35-.5-.05-.15-.15-.05-.5.2q-.25.2-.35.5l.05.15.15.05.5-.2m2.85-2.6-.2-.05-.45.2q-.35.25-.35.5v.1l.2.1q.2 0 .5-.2l.35-.5-.05-.15m-1.7-1.25q.8-.55 1.6-.55 1 0 1.55.7 1.25 1.65-.65 3.1-.7.55-1.55.55h-.05q-.15.85-.95 1.4-.7.55-1.55.55l-.5-.05q-.5.9-1.45 1.2l-.85.15q-.95 0-1.5-.55-.65.5-1.45.5l-.7-.1q-1.35-.4-1.75-1.55l-.35.05q-.9 0-1.65-.6-.75-.65-.95-1.7-.75 0-1.45-.55-.75-.55-1-1.4-.3-.95.25-1.65.55-.75 1.6-.75.9 0 1.55.5.95.75 1.05 1.75.9.1 1.6.65.6.45.85 1.25l.55-.05.7.05q.7.2 1.2.7.3-.3 1-.6l.85-.15.65.1.85-1q.7-.55 1.55-.55.25-.85.95-1.4" fill="#020000" transform="translate(10.15 -22.65)"/><path d="M2.4 28.65q-.85-1.25.55-2.3l2.4.05q.85 1.25-.55 2.3l-2.4-.05" fill="#c6c6c6" transform="translate(10.15 -22.65)"/><path d="M.5 27.5q1.7-.65 2.2.8.45 1.45-1.3 2t-2.2-.85q-.45-1.4 1.3-1.95" fill="#c6c6c6" transform="translate(10.15 -22.65)"/><path d="M-4.15 28.4q.35-1.45 2.1-1 1.75.45 1.4 1.9-.35 1.45-2.15 1-1.8-.45-1.35-1.9" fill="#c6c6c6" transform="translate(10.15 -22.65)"/><path d="M-6.75 26q1-1.15 2.35 0 1.45 1.15.5 2.3-1 1.2-2.35 0-1.45-1.15-.5-2.3" fill="#c6c6c6" transform="translate(10.15 -22.65)"/><path d="M-9.35 23.8q.9-1.25 2.35-.15 1.5 1.05.6 2.3l-2.35.1q-1.4-1.05-.6-2.25" fill="#c6c6c6" transform="translate(10.15 -22.65)"/><path d="M-6.3 26.3q-.4.55.2 1.25l-.15.7h-.05q-1.35-1.15-.45-2.3.8-.95 2.05-.15l-.5.35-1.1.15m2.7 2.2q-.15.7.7 1.05l.15.75h-.05q-1.8-.45-1.35-1.9.25-1.25 1.8-1.05l-.35.55q-.75.1-.9.6m4.4 1.3.45.6q-1.8.35-2.15-1.05-.25-1.2 1.15-1.75l-.05.65q-.65.45-.5.95.15.7 1.1.6m2.05-1.55 1.25.1.65.35-2.35-.1q-.75-1 .3-2.05l.25.6q-.45.65-.1 1.1" fill="#f9f4f4" transform="translate(10.15 -22.65)"/><path d="M4.95 26.7q-.9-1.2.55-2.3l2.35.05q.9 1.2-.55 2.3l-2.35-.05" fill="#c6c6c6" transform="translate(10.15 -22.65)"/><path d="M5.4 26.25q.4.6 1.2.15l.7.35h-.05l-2.35-.1q-.7-1 .35-2.05l.25.6q-.55.6-.1 1.05M-8.85 24.1q-.4.6.25 1.25l-.1.7h-.05q-1.4-1.05-.6-2.25.75-.95 2.05-.35l-.5.45q-.75-.25-1.05.2" fill="#f9f4f4" transform="translate(10.15 -22.65)"/><path d="m2.65 31.7.65 1.5v.5l-.35.3-1.35.35.3 1-.05.4-.35.3-1.85.4h-.1l-.3-.05L-1 36l-.2-1.05-1.05.35h-.15l-.3-.05-.25-.4-.4-1.7.1-.45.35-.25.75-.1-.15-1-.05-.1q-.1-.55.4-.7l1.5-.4h.15q.4 0 .55.35l.45 1.25L2 31.4h.1q.4 0 .55.3" fill="#020000" transform="translate(10.15 -22.65)"/><path d="m1.3 35.35-1.85.45-.35-1.7-1.6.5-.4-1.7 1.3-.2-.25-1.55-.05-.15 1.5-.45.7 1.75 1.75-.5.65 1.5-1.85.5.45 1.55" fill="#c6c6c6" transform="translate(10.15 -22.65)"/><path d="m-1.55 31.15 1.4 1-1.15.35-.25-1.35M-1.5 33l.4.8-1.2.4.8-1.2m.95 1.1 1.15-.25-.75 1.45-.4-1.2m1.65-1 .75-1.15.5 1.05-1.25.1" fill="#f9f4f4" transform="translate(10.15 -22.65)"/></g></defs></svg>