<svg xmlns:xlink="http://www.w3.org/1999/xlink" height="99.2" width="82.2" xmlns="http://www.w3.org/2000/svg"><use height="10.8" transform="translate(42.75 70.05)" width="19.1" xlink:href="#a"/><defs><g id="a" fill-rule="evenodd"><path d="M14.2 26q.2-.5.7-.85.95-.7 2.1-.95l.85.15-.35-.05q-.3 0-.4.25.8 1.55 2.35 2.65l.5-.05q.6-1.5-.55-2.25 1.9 1 1.7 3.4l-.6.45-.45-.7q-.55-.55-1.35-.55t-1.35.55q-.55.55-.55 1.35t.55 1.35l.1.1q-2.5-.4-3.15-2.6l.2-.1q2.35-1.35-.3-2.15m3.65-1.65.05-.15q.65.2 1.05.5l-1.1-.35m.65 4q-.4.25-.6.9l-.25.6q-.75-.35-.05-1.4.3-.5.9-.55l-.4.35.4.1m1-.4.55.55v.05l-.75-.3.25-.15-.05-.15m-.05.75-.05.05q-.3.9 1.05 1.05l.5-.1q3.55-2.6 7.15-.35l.35.35q.4 1.2-1.1 1.95l-1.85.65q-.8.15.15.2 2.65.2 4.15-1.9l.05-.75-.05-.15.3.45q.25.3.05.65-1.05 1.85-3.2 2.35-1.8.4-2.6-.75-.1-.15.1-.25l1.9-.65q1.5-.5.45-1.6-.6-.65-1.5-.7-2.05-.2-3.75 1l-.75.5-.8.15v.1l-.6-.3q-1.6-1-.2-2.05l.25.1m4.95-1q-.65.15-1.2.45l-1.6.55q1.3-.8 2.8-1m-6.55 2.65.75.45.05.05q-.65.35-.85-.45l.05-.05m-2.25 1q2.85 1.1.45 1.2-1.3.05-.95-1.1l.35-.1h.15" fill="#fbb941" transform="translate(-11.75 -23.3)"/><path d="M14.2 26q2.65.8.3 2.15l-.2.1q-.35.05-.6-.4-.65-1.25.5-1.85m5.2-1.1q1.15.75.55 2.25l-.5.05q-1.55-1.1-2.35-2.65.1-.25.4-.25l.35.05 1.1.35.45.2m-.9 3 .55-.15q.3-.05.45.2l.05.15-.25.15-.8.1-.4-.1.4-.35m11.3 1.8.05.15-.05.75q-1.5 2.1-4.15 1.9-.95-.05-.15-.2l1.85-.65q1.5-.75 1.1-1.95l-.35-.35q-3.6-2.25-7.15.35l-.5.1q-1.35-.15-1.05-1.05l.05-.05.2-.05 1.95.05 1.6-.55q.55-.3 1.2-.45l.9-.15h.65q2.6.1 3.85 2.15" fill="#fff" transform="translate(-11.75 -23.3)"/><path d="M17.85 24.35 17 24.2q-1.15.25-2.1.95-.5.35-.7.85-1.15.6-.5 1.85.25.45.6.4.65 2.2 3.15 2.6.5.45 1.25.45h.15l.05.05.1-.15h.05l.85.4h.05l.1.45-1.1 1.15-.3.05v-.05l-1.5.25q-2-.05-3.4-1.45-1.4-1.35-1.4-3.35t1.4-3.4q1.4-1.4 3.4-1.4t3.4 1.4q1.1 1.15 1.35 2.65l-.45.2-.35.2q.2-2.4-1.7-3.4l-.45-.2q-.4-.3-1.05-.5l-.05.15m-2.25 7h-.15l-.35.1q-.35 1.15.95 1.1 2.4-.1-.45-1.2" fill="#c47500" transform="translate(-11.75 -23.3)"/><path d="m17.45 30.85-.1-.1q-.55-.55-.55-1.35t.55-1.35q.55-.55 1.35-.55t1.35.55l.45.7.6-.45.35-.2.45-.2q-.25-1.5-1.35-2.65-1.4-1.4-3.4-1.4t-3.4 1.4q-1.4 1.4-1.4 3.4t1.4 3.35q1.4 1.4 3.4 1.45l1.5-.25v.05l.3-.05 1.1-1.15-.1-.45h-.05l-.85-.4H19l-.1.15-.05-.05h-.15q-.75 0-1.25-.45m1.05-2.95q-.6.05-.9.55-.7 1.05.05 1.4l.25-.6q.2-.65.6-.9l.8-.1.75.3v-.05l-.55-.55q-.15-.25-.45-.2l-.55.15m11.3 1.8q-1.25-2.05-3.85-2.15h-.65l-.9.15q-1.5.2-2.8 1l-1.95-.05-.2.05-.25-.1q-1.4 1.05.2 2.05l.6.3v-.1l.8-.15.75-.5q1.7-1.2 3.75-1 .9.05 1.5.7 1.05 1.1-.45 1.6l-1.9.65q-.2.1-.1.25.8 1.15 2.6.75 2.15-.5 3.2-2.35.2-.35-.05-.65l-.3-.45m-11.95.65-.05.05q.2.8.85.45l-.05-.05-.75-.45m-4.55-5.5q1.6-1.55 3.85-1.55t3.8 1.55q1.25 1.25 1.55 2.85l2.65-.35q2.1 0 3.65.75l.2.1q2.95 1.3 1.25 3.8l-.4.5-.25.2-.95.45h-.05l-.2.1-.7.25-1.45.25-.8-.2q-.9-.25-1.35-1.05-.6-1 .95-1.25l.65-.35q.9-1.1-1-1l-1.3.2q-.55.1-.95.45l-1.4 1.25q-.55.5-.8 1.15l-1.05.55-.75.45-1.3.15q-2.25 0-3.85-1.6-1.55-1.55-1.55-3.8t1.55-3.85" fill="#371200" transform="translate(-11.75 -23.3)"/></g></defs></svg>