<svg xmlns:xlink="http://www.w3.org/1999/xlink" height="99.2" width="82.2" xmlns="http://www.w3.org/2000/svg"><use height="9.9" transform="translate(33.3 71.45)" width="9.9" xlink:href="#a"/><defs><g id="a"><path d="M12.2 29.65q0 2.05-1.4 3.5-1.5 1.45-3.5 1.45-2.05 0-3.5-1.45-1.5-1.45-1.5-3.5t1.5-3.45q1.45-1.5 3.5-1.5 2 0 3.5 1.5 1.4 1.4 1.4 3.45" fill-rule="evenodd" transform="translate(-2.3 -24.7)"/><path d="M11.35 29.65q0 1.7-1.2 2.9-1.15 1.2-2.85 1.2-1.7 0-2.9-1.2-1.25-1.2-1.25-2.9t1.25-2.9q1.2-1.2 2.9-1.2t2.85 1.2q1.2 1.2 1.2 2.9" fill="#3d7a15" fill-rule="evenodd" transform="translate(-2.3 -24.7)"/><path d="m3.65 30.05 3.85-4.1 3.4 3.95-3.65 3.4-3.6-3.25" fill="#fff100" fill-rule="evenodd" transform="translate(-2.3 -24.7)"/><path d="M8.85 29.8q0 1.55-1.5 1.55-1.55 0-1.55-1.55 0-1.5 1.55-1.5 1.5 0 1.5 1.5" fill="#0062ff" fill-rule="evenodd" transform="translate(-2.3 -24.7)"/><path d="M4.5 27.15q1.3-.9 2.7-.9 1.8 0 2.8 1.1" fill="none" stroke="#fff" stroke-linecap="round" stroke-linejoin="round" stroke-opacity=".6" transform="translate(-2.3 -24.7)"/><path d="M10 32.4q-1.3.9-2.7.9-1.8 0-2.8-1.1" fill="none" stroke="#000" stroke-linecap="round" stroke-linejoin="round" stroke-opacity=".302" transform="translate(-2.3 -24.7)"/></g></defs></svg>