<?xml version="1.0" encoding="UTF-8" standalone="no"?>
<svg xmlns:xlink="http://www.w3.org/1999/xlink" height="99.2px" width="82.2px" xmlns="http://www.w3.org/2000/svg">
  <g transform="matrix(1.0, 0.0, 0.0, 1.0, 31.0, 46.75)">
    <use height="14.05" transform="matrix(1.0, 0.0, 0.0, 1.0, -18.65, 19.4)" width="36.5" xlink:href="#shape0"/>
  </g>
  <defs>
    <g id="shape0" transform="matrix(1.0, 0.0, 0.0, 1.0, 18.65, -19.4)">
      <path d="M14.85 20.65 Q14.75 20.15 15.5 19.75 15.85 19.5 16.25 19.4 17.4 19.5 17.85 21.3 17.75 22.55 16.45 22.8 16.3 23.9 15.85 24.0 15.0 25.1 14.3 24.9 14.3 26.0 13.6 26.4 12.05 27.7 11.8 27.3 11.95 28.25 11.6 28.4 10.75 29.6 9.55 29.5 9.15 31.2 8.6 30.8 6.65 32.0 6.15 31.0 L5.25 32.15 Q3.9 32.9 3.25 32.15 2.65 33.0 2.05 33.05 L0.4 33.1 -0.15 32.75 Q-0.85 33.6 -2.1 33.45 L-3.45 32.85 -3.9 32.3 -5.65 32.4 Q-6.4 32.35 -6.75 31.6 L-7.0 30.9 -9.1 30.8 Q-9.85 30.65 -10.05 29.8 L-10.1 28.95 -11.55 28.8 Q-12.25 28.8 -12.45 28.0 L-12.55 27.15 -14.35 26.7 Q-14.85 26.45 -14.9 25.9 L-14.9 25.35 Q-15.7 25.65 -16.5 25.05 -17.05 24.75 -17.3 24.05 L-17.4 23.35 Q-19.35 22.1 -18.2 21.0 L-16.65 20.15 Q-15.95 20.3 -15.6 21.3 -14.65 21.05 -13.65 21.8 -12.95 22.2 -13.0 23.2 -12.15 23.15 -11.7 23.55 -10.9 23.75 -10.55 24.65 -9.5 24.65 -9.0 25.45 -8.45 26.0 -8.0 26.9 -7.25 26.8 -6.5 27.4 -5.95 27.8 -5.75 28.5 L-3.75 28.55 Q-3.2 28.85 -2.9 29.55 L-1.9 29.25 Q-0.75 29.1 -0.2 29.75 L0.55 29.05 2.55 29.15 3.6 28.15 5.55 28.25 6.5 27.25 7.7 26.7 8.35 25.55 Q9.6 24.8 10.0 24.9 L10.3 23.75 Q11.05 22.75 12.05 22.65 L12.85 21.05 Q13.9 20.35 14.85 20.65" fill="#300a02" fill-rule="evenodd" stroke="none"/>
      <path d="M-11.15 25.15 Q-11.15 26.9 -12.9 26.9 -14.65 26.9 -14.65 25.15 -14.65 23.4 -12.9 23.4 -11.15 23.4 -11.15 25.15" fill="#9e2b10" fill-rule="evenodd" stroke="none"/>
      <path d="M-8.75 27.05 Q-8.75 28.8 -10.5 28.8 -12.25 28.8 -12.25 27.05 -12.25 25.3 -10.5 25.3 -8.75 25.3 -8.75 27.05" fill="#9e2b10" fill-rule="evenodd" stroke="none"/>
      <path d="M-8.0 30.8 Q-9.75 30.8 -9.75 29.05 L-9.7 28.6 Q-9.0 28.2 -8.8 27.5 L-8.0 27.3 Q-6.25 27.3 -6.25 29.05 -6.25 30.8 -8.0 30.8" fill="#f4f3f2" fill-rule="evenodd" stroke="none"/>
      <path d="M-3.25 30.55 Q-3.25 32.3 -5.0 32.3 -6.75 32.3 -6.75 30.55 -6.75 28.8 -5.0 28.8 -3.25 28.8 -3.25 30.55" fill="#9e2b10" fill-rule="evenodd" stroke="none"/>
      <path d="M-0.15 31.4 Q-0.15 33.15 -1.9 33.15 -3.65 33.15 -3.65 31.4 -3.65 29.65 -1.9 29.65 -0.15 29.65 -0.15 31.4" fill="#9e2b10" fill-rule="evenodd" stroke="none"/>
      <path d="M1.35 32.9 Q-0.4 32.9 -0.4 31.15 -0.4 29.4 1.35 29.4 3.1 29.4 3.1 31.15 3.1 32.9 1.35 32.9" fill="#9e2b10" fill-rule="evenodd" stroke="none"/>
      <path d="M4.35 32.05 Q3.55 32.05 3.1 31.5 L3.1 31.15 Q3.1 30.5 2.65 29.95 2.9 28.55 4.35 28.55 6.1 28.55 6.1 30.3 6.1 32.05 4.35 32.05" fill="#f4f3f2" fill-rule="evenodd" stroke="none"/>
      <path d="M9.25 29.15 Q9.25 30.9 7.5 30.9 5.75 30.9 5.75 29.15 5.75 27.4 7.5 27.4 9.25 27.4 9.25 29.15" fill="#9e2b10" fill-rule="evenodd" stroke="none"/>
      <path d="M11.5 27.3 Q11.5 29.05 9.75 29.05 8.0 29.05 8.0 27.3 8.0 25.55 9.75 25.55 11.5 25.55 11.5 27.3" fill="#9e2b10" fill-rule="evenodd" stroke="none"/>
      <path d="M13.85 25.05 Q13.85 26.8 12.1 26.8 10.35 26.8 10.35 25.05 10.35 23.3 12.1 23.3 13.85 23.3 13.85 25.05" fill="#9e2b10" fill-rule="evenodd" stroke="none"/>
      <path d="M16.0 22.65 Q16.0 24.4 14.25 24.4 12.5 24.4 12.5 22.65 12.5 20.9 14.25 20.9 16.0 20.9 16.0 22.65" fill="#ffffff" fill-rule="evenodd" stroke="none"/>
      <path d="M-13.5 23.4 Q-13.5 25.15 -15.25 25.15 -17.0 25.15 -17.0 23.4 -17.0 21.65 -15.25 21.65 -13.5 21.65 -13.5 23.4" fill="#9e2b10" fill-rule="evenodd" stroke="none"/>
      <path d="M-15.95 21.8 Q-15.95 23.0 -17.15 23.0 -18.35 23.0 -18.35 21.8 -18.35 20.6 -17.15 20.6 -15.95 20.6 -15.95 21.8" fill="#ffffff" fill-rule="evenodd" stroke="none"/>
      <path d="M17.4 21.05 Q17.4 22.25 16.25 22.25 15.05 22.25 15.05 21.05 15.05 19.85 16.25 19.85 17.4 19.85 17.4 21.05" fill="#9e2b10" fill-rule="evenodd" stroke="none"/>
      <path d="M-15.5 22.25 L-15.25 22.4 Q-15.1 23.05 -16.15 23.05 -16.35 22.1 -15.5 22.25" fill="#e58f83" fill-rule="evenodd" stroke="none"/>
      <path d="M-15.3 21.95 Q-14.75 22.0 -15.4 22.35 L-14.8 22.3 Q-14.65 23.15 -16.35 23.3 L-16.6 23.15 Q-16.8 21.95 -15.3 21.95" fill="#ebbab0" fill-rule="evenodd" stroke="none"/>
      <path d="M-13.2 24.1 L-13.15 24.15 Q-12.9 25.0 -13.45 24.85 -13.8 24.8 -13.6 24.45 L-13.2 24.1" fill="#e58f83" fill-rule="evenodd" stroke="none"/>
      <path d="M-13.4 23.95 L-12.75 23.9 -12.7 24.0 Q-12.25 24.25 -12.5 24.65 -12.75 25.1 -13.5 25.1 -14.45 25.25 -14.15 24.6 -13.9 24.1 -13.4 23.95" fill="#ebbab0" fill-rule="evenodd" stroke="none"/>
      <path d="M-10.9 26.0 L-10.6 26.05 Q-10.25 26.4 -10.65 26.85 -11.05 27.3 -11.45 27.05 -11.7 26.85 -11.45 26.45 L-10.9 26.0" fill="#e58f83" fill-rule="evenodd" stroke="none"/>
      <path d="M-10.95 26.6 L-11.0 26.3 Q-11.8 26.6 -11.05 26.85 L-11.05 26.8 -10.95 26.6 M-11.05 25.8 Q-10.6 25.65 -10.45 25.8 L-10.15 25.85 Q-9.75 26.45 -10.3 26.95 -10.85 27.45 -11.5 27.4 -12.3 27.3 -12.0 26.65 L-11.05 25.8" fill="#ebbab0" fill-rule="evenodd" stroke="none"/>
      <path d="M-6.65 30.35 L-6.15 29.6 -5.45 29.4 -5.3 29.45 -4.95 29.4 Q-3.85 30.15 -5.8 30.55 L-6.65 30.35" fill="#ebbab0" fill-rule="evenodd" stroke="none"/>
      <path d="M-2.85 30.5 Q-2.5 30.25 -2.15 30.3 L-1.85 30.35 -1.65 30.4 Q-0.6 31.55 -2.5 31.85 -3.3 32.0 -3.4 31.4 -3.4 30.85 -2.85 30.5" fill="#ebbab0" fill-rule="evenodd" stroke="none"/>
      <path d="M0.9 30.2 L1.3 30.15 Q2.6 31.1 0.7 31.4 0.1 31.5 -0.15 31.2 -0.3 30.9 0.1 30.25 L0.9 30.2" fill="#ebbab0" fill-rule="evenodd" stroke="none"/>
      <path d="M7.15 27.8 L7.35 28.05 7.45 28.05 Q7.75 28.55 7.35 29.0 7.0 29.4 6.45 29.4 5.8 29.4 5.95 28.8 6.05 28.3 6.5 28.0 6.8 27.7 7.15 27.8" fill="#ebbab0" fill-rule="evenodd" stroke="none"/>
      <path d="M9.45 25.9 L9.65 26.05 9.7 26.15 Q9.85 27.0 8.75 26.9 8.0 26.75 8.8 26.1 L9.45 25.9" fill="#ebbab0" fill-rule="evenodd" stroke="none"/>
      <path d="M10.75 24.4 L11.7 24.2 11.85 24.2 Q12.8 24.6 12.6 25.15 L11.8 25.8 10.75 25.65 Q10.45 25.25 10.75 24.4" fill="#ebbab0" fill-rule="evenodd" stroke="none"/>
      <path d="M16.85 20.3 L16.7 20.4 Q16.35 20.65 16.0 20.6 L15.95 20.6 Q15.55 20.5 15.85 20.3 L16.3 20.05 16.85 20.15 16.85 20.3" fill="#ebbab0" fill-rule="evenodd" stroke="none"/>
      <path d="M-7.15 27.85 Q-6.15 28.2 -6.6 29.45 -7.05 30.75 -8.05 30.4 L-8.35 30.2 Q-7.6 30.05 -7.3 29.2 -7.0 28.35 -7.55 27.8 L-7.15 27.85" fill="#a5a4a4" fill-rule="evenodd" stroke="none"/>
      <path d="M5.8 30.05 Q6.25 31.3 5.2 31.65 L4.85 31.7 Q5.35 31.1 5.05 30.3 4.8 29.4 4.0 29.3 4.2 29.1 4.35 29.1 5.35 28.75 5.8 30.05" fill="#a5a4a4" fill-rule="evenodd" stroke="none"/>
      <path d="M15.0 21.7 Q16.0 22.05 15.55 23.35 15.1 24.6 14.1 24.25 L13.8 24.05 Q14.5 23.95 14.8 23.1 15.1 22.2 14.55 21.65 L15.0 21.7" fill="#a5a4a4" fill-rule="evenodd" stroke="none"/>
      <path d="M-16.75 21.1 Q-16.05 21.3 -16.4 22.2 -16.65 23.1 -17.4 22.85 L-17.6 22.7 Q-17.15 22.65 -16.9 22.05 -16.7 21.5 -17.05 21.05 L-16.75 21.1" fill="#a5a4a4" fill-rule="evenodd" stroke="none"/>
    </g>
  </defs>
</svg>
