<svg xmlns:xlink="http://www.w3.org/1999/xlink" height="99.2" width="82.2" xmlns="http://www.w3.org/2000/svg"><g transform="translate(31 46.75)"><use height="7.65" transform="matrix(-1 0 0 1 0 22.3)" width="15.45" xlink:href="#a"/><use height="7.65" transform="translate(-.55 22.3)" width="15.45" xlink:href="#a"/><use height="7.45" transform="translate(-4.45 28.05)" width="6.1" xlink:href="#b"/></g><defs><use height="7.65" width="15.45" xlink:href="#c" id="a"/><use height="7.45" width="6.1" xlink:href="#d" id="b"/><g id="c" fill-rule="evenodd"><path d="m-6.9 3.75-.5.1-.3-1.55.55-.1Q4.4.05 7.6-3.8q1 2.55-5.45 5.1Q-2.8 3.25-6.9 3.75" fill="#454547" transform="translate(7.7 3.8)"/><path d="m-7.05 3.15-.1-.5Q5.6.15 7.2-2.85 5.3.9-7.05 3.15" fill="#cfd2cf" transform="translate(7.7 3.8)"/></g><g id="d" fill-rule="evenodd"><path d="M2.8-.8 1 2.75q-.7 1.5-2.25.8l-.75-.4Q-3.55 2.4-2.8.9L-1-2.7q.75-1.55 2.3-.75l.75.35q1.45.8.75 2.3" fill="#1b181e" transform="translate(3.05 3.7)"/><path d="M2.25-.7.85 2.15q-.65 1.4-2.1.7l-.15-.1q-1.45-.65-.7-2.1l1.4-2.8q.65-1.5 2.1-.75l.15.1q1.5.65.7 2.1" fill="#cfd2cf" transform="translate(3.05 3.7)"/><path d="M2.35-1.75-1.4-.6q.65-1.6 1.05-2 .75-.85 1.9-.2.65.35.8 1.05M2.25-.7-2.2.8l.4-.75 4.2-1.4-.15.65m-.5 1-.2.55-3.75 1.1-.05-.4 4-1.25" fill="#fff" transform="translate(3.05 3.7)"/></g></defs></svg>