<?xml version="1.0" encoding="UTF-8" standalone="no"?>
<svg xmlns:xlink="http://www.w3.org/1999/xlink" height="99.2px" width="82.2px" xmlns="http://www.w3.org/2000/svg">
  <g transform="matrix(1.0, 0.0, 0.0, 1.0, 31.0, 46.75)">
    <use height="7.65" transform="matrix(-1.0, 0.0, 0.0, 1.0, 0.0, 22.3)" width="15.45" xlink:href="#sprite0"/>
    <use height="7.65" transform="matrix(1.0, 0.0, 0.0, 1.0, -0.55, 22.3)" width="15.45" xlink:href="#sprite0"/>
    <use height="7.45" transform="matrix(1.0, 0.0, 0.0, 1.0, -4.45, 28.05)" width="6.1" xlink:href="#sprite1"/>
  </g>
  <defs>
    <g id="sprite0" transform="matrix(1.0, 0.0, 0.0, 1.0, 7.7, 3.8)">
      <use height="7.65" transform="matrix(1.0, 0.0, 0.0, 1.0, -7.7, -3.8)" width="15.45" xlink:href="#shape0"/>
    </g>
    <g id="shape0" transform="matrix(1.0, 0.0, 0.0, 1.0, 7.7, 3.8)">
      <path d="M-6.9 3.75 L-7.4 3.85 -7.7 2.3 -7.15 2.2 Q4.4 0.05 7.6 -3.8 8.6 -1.25 2.15 1.3 -2.8 3.25 -6.9 3.75" fill="#454547" fill-rule="evenodd" stroke="none"/>
      <path d="M-7.05 3.15 L-7.15 2.65 Q5.6 0.15 7.2 -2.85 5.3 0.9 -7.05 3.15" fill="#cfd2cf" fill-rule="evenodd" stroke="none"/>
    </g>
    <g id="sprite1" transform="matrix(1.0, 0.0, 0.0, 1.0, 3.05, 3.7)">
      <use height="7.45" transform="matrix(1.0, 0.0, 0.0, 1.0, -3.05, -3.7)" width="6.1" xlink:href="#shape1"/>
    </g>
    <g id="shape1" transform="matrix(1.0, 0.0, 0.0, 1.0, 3.05, 3.7)">
      <path d="M2.8 -0.8 L1.0 2.75 Q0.3 4.25 -1.25 3.55 L-2.0 3.15 Q-3.55 2.4 -2.8 0.9 L-1.0 -2.7 Q-0.25 -4.25 1.3 -3.45 L2.05 -3.1 Q3.5 -2.3 2.8 -0.8" fill="#1b181e" fill-rule="evenodd" stroke="none"/>
      <path d="M2.25 -0.7 L0.85 2.15 Q0.2 3.55 -1.25 2.85 L-1.4 2.75 Q-2.85 2.1 -2.1 0.65 L-0.7 -2.15 Q-0.05 -3.65 1.4 -2.9 L1.55 -2.8 Q3.05 -2.15 2.25 -0.7" fill="#cfd2cf" fill-rule="evenodd" stroke="none"/>
      <path d="M2.35 -1.75 L-1.4 -0.6 Q-0.75 -2.2 -0.35 -2.6 0.4 -3.45 1.55 -2.8 2.2 -2.45 2.35 -1.75" fill="#ffffff" fill-rule="evenodd" stroke="none"/>
      <path d="M2.25 -0.7 L-2.2 0.8 -1.8 0.05 2.4 -1.35 2.25 -0.7" fill="#ffffff" fill-rule="evenodd" stroke="none"/>
      <path d="M1.75 0.3 L1.55 0.85 -2.2 1.95 -2.25 1.55 1.75 0.3" fill="#ffffff" fill-rule="evenodd" stroke="none"/>
    </g>
  </defs>
</svg>
