<?xml version="1.0" encoding="UTF-8" standalone="no"?>
<svg xmlns:xlink="http://www.w3.org/1999/xlink" height="99.2px" width="82.2px" xmlns="http://www.w3.org/2000/svg">
  <g transform="matrix(1.0, 0.0, 0.0, 1.0, 31.0, 46.75)">
    <use height="20.1" transform="matrix(1.0, 0.0, 0.0, 1.0, -16.5, 23.15)" width="32.25" xlink:href="#shape0"/>
  </g>
  <defs>
    <g id="shape0" transform="matrix(1.0, 0.0, 0.0, 1.0, 16.5, -23.15)">
      <path d="M0.4 31.75 Q0.85 31.75 0.95 32.15 1.4 34.55 0.05 38.1 L-0.2 38.35 -0.35 38.35 -0.8 38.15 -0.95 38.95 -1.35 39.35 -3.9 40.05 -6.4 40.25 -6.7 39.95 -6.6 39.45 Q-5.1 37.65 -5.1 36.0 L-4.9 35.55 -4.55 35.4 -4.5 35.35 -4.75 35.05 -4.6 34.6 Q-3.85 33.9 -2.9 33.25 -1.05 31.95 0.4 31.75" fill="#333e49" fill-rule="evenodd" stroke="none"/>
      <path d="M-2.65 34.05 Q-1.1 32.9 0.1 32.75 0.5 34.5 -0.7 37.6 L-1.2 36.8 -1.6 38.45 -3.45 39.05 -5.6 39.3 Q-4.05 37.35 -4.35 36.0 -4.1 35.8 -3.1 35.55 L-3.95 35.15 -2.65 34.05" fill="#ffffff" fill-rule="evenodd" stroke="none"/>
      <path d="M-1.5 33.25 L-1.0 33.8 -1.45 34.45 -2.0 35.15 -2.35 35.75 -2.65 35.7 -2.8 35.95 -3.1 36.7 -4.85 38.5 -4.9 38.55 -4.55 37.35 -4.1 36.05 -2.95 35.5 Q-3.15 35.05 -3.5 35.05 L-2.75 34.5 -1.5 33.25" fill="#abd9ff" fill-rule="evenodd" stroke="none"/>
      <path d="M-1.6 36.55 L-1.6 35.8 -0.95 34.95 -0.45 34.25 -0.2 33.7 -0.15 33.65 Q0.2 33.75 -0.25 34.6 L-1.1 36.4 -1.2 35.65 -1.6 36.55" fill="#abd9ff" fill-rule="evenodd" stroke="none"/>
      <path d="M-2.1 35.5 L0.0 33.0 Q0.4 33.2 -1.7 35.75 L-1.8 36.4 -2.35 36.35 -2.35 36.7 Q-2.45 37.2 -5.0 39.05 L-2.75 36.65 -2.65 35.85 -2.15 35.95 -2.1 35.5" fill="#333e49" fill-rule="evenodd" stroke="none"/>
      <path d="M0.55 31.55 Q2.85 33.0 4.25 36.45 L4.25 36.8 4.2 36.95 Q4.0 37.25 3.7 37.15 L4.2 37.85 4.2 38.45 2.9 41.0 1.3 43.15 Q1.05 43.35 0.85 43.15 L0.55 42.75 Q0.35 40.95 -0.9 39.1 L-1.1 38.65 -1.0 38.25 -0.95 38.2 -1.35 38.15 -1.55 37.7 Q-1.5 33.7 -0.1 31.65 0.2 31.3 0.55 31.55" fill="#333e49" fill-rule="evenodd" stroke="none"/>
      <path d="M2.4 39.8 L1.15 41.7 Q0.9 39.45 -0.35 38.45 L0.2 37.2 -0.65 37.55 Q-0.7 34.5 0.45 32.85 1.9 33.75 3.25 36.7 L2.4 36.6 3.25 38.0 2.4 39.8" fill="#ffffff" fill-rule="evenodd" stroke="none"/>
      <path d="M0.4 34.4 L0.6 35.2 0.7 36.05 0.9 36.75 0.65 36.95 0.75 37.25 1.05 38.0 1.1 40.65 0.9 40.25 0.5 39.5 -0.15 38.3 0.3 37.05 -0.45 37.2 -0.25 36.25 -0.3 34.4 0.4 34.4" fill="#abd9ff" fill-rule="evenodd" stroke="none"/>
      <path d="M0.9 33.7 L0.9 33.65 Q1.1 33.55 1.5 34.35 L2.2 36.25 1.6 35.75 1.95 36.7 1.45 36.2 1.25 35.1 1.1 34.3 0.9 33.7" fill="#abd9ff" fill-rule="evenodd" stroke="none"/>
      <path d="M1.3 36.25 L1.7 36.75 1.3 37.15 1.55 37.4 Q1.8 37.8 1.35 41.05 L1.2 37.65 0.75 37.05 1.15 36.7 0.9 36.4 0.55 33.1 0.95 34.5 1.3 36.25" fill="#333e49" fill-rule="evenodd" stroke="none"/>
      <path d="M15.05 23.2 Q15.4 23.0 15.65 23.35 15.9 23.6 15.65 23.95 12.0 28.9 0.15 33.05 L-0.15 33.1 Q-4.95 31.8 -11.1 27.8 L-16.3 24.05 Q-16.65 23.75 -16.4 23.4 -16.2 23.05 -15.8 23.2 L-0.3 29.9 Q3.55 29.0 15.05 23.2" fill="#082473" fill-rule="evenodd" stroke="none"/>
      <path d="M15.25 23.65 Q12.9 26.95 0.0 32.05 -4.5 30.7 -10.75 27.05 -16.8 23.5 -16.0 23.65 -5.6 29.3 -0.35 30.95 6.9 28.85 15.25 23.65" fill="#2d7df2" fill-rule="evenodd" stroke="none"/>
      <path d="M0.1 32.05 L0.3 30.75 Q7.6 28.4 15.25 23.65 12.95 26.9 0.1 32.05" fill="#2d4af2" fill-rule="evenodd" stroke="none"/>
      <path d="M1.55 29.65 Q2.3 30.5 2.3 31.45 2.3 34.05 -0.3 34.05 -2.85 34.05 -2.85 31.45 -2.85 28.9 -0.3 28.9 0.8 28.9 1.55 29.65" fill="#4f0000" fill-rule="evenodd" stroke="none"/>
      <path d="M-0.3 29.85 Q1.35 29.85 1.35 31.45 1.35 33.1 -0.3 33.1 -1.9 33.1 -1.9 31.45 -1.9 29.85 -0.3 29.85" fill="#d80000" fill-rule="evenodd" stroke="none"/>
      <path d="M0.4 30.0 Q1.35 30.5 1.35 31.45 1.35 33.1 -0.3 33.1 -1.4 33.1 -1.8 32.1 L-1.0 32.3 Q0.6 32.3 0.6 30.7 L0.4 30.0" fill="#8f0000" fill-rule="evenodd" stroke="none"/>
      <path d="M-7.3 27.6 Q-6.65 26.95 -5.65 26.95 -3.35 26.95 -3.35 29.25 -3.35 31.6 -5.65 31.6 -6.6 31.6 -7.3 30.9 -8.0 30.2 -8.0 29.25 -8.0 28.3 -7.3 27.6" fill="#4f0000" fill-rule="evenodd" stroke="none"/>
      <path d="M-4.25 29.25 Q-4.25 30.65 -5.65 30.65 -7.05 30.65 -7.05 29.25 -7.05 27.85 -5.65 27.85 -4.25 27.85 -4.25 29.25" fill="#d80000" fill-rule="evenodd" stroke="none"/>
      <path d="M-4.55 28.45 Q-4.25 28.75 -4.25 29.25 -4.25 30.65 -5.65 30.65 -6.4 30.65 -6.85 30.05 L-6.25 30.15 Q-4.55 30.15 -4.55 28.5 L-4.55 28.45" fill="#8f0000" fill-rule="evenodd" stroke="none"/>
      <path d="M2.65 29.2 Q2.65 26.9 4.95 26.9 7.3 26.9 7.3 29.2 7.3 31.55 4.95 31.55 2.65 31.55 2.65 29.2" fill="#4f0000" fill-rule="evenodd" stroke="none"/>
      <path d="M6.5 29.2 Q6.5 30.8 4.95 30.8 3.4 30.8 3.4 29.2 3.4 27.65 4.95 27.65 6.5 27.65 6.5 29.2" fill="#d80000" fill-rule="evenodd" stroke="none"/>
      <path d="M4.95 27.65 Q6.5 27.65 6.5 29.2 6.5 30.8 4.95 30.8 4.0 30.8 3.55 29.85 L4.2 30.05 Q5.5 30.05 5.5 28.75 5.5 28.05 4.85 27.7 L4.95 27.65" fill="#8f0000" fill-rule="evenodd" stroke="none"/>
      <path d="M-5.45 28.85 Q-5.45 29.3 -6.05 29.3 -6.65 29.3 -6.65 28.85 -6.65 28.35 -6.05 28.35 -5.45 28.35 -5.45 28.85" fill="#ff6e6e" fill-rule="evenodd" stroke="none"/>
      <path d="M-0.4 30.9 Q-0.4 31.45 -1.0 31.45 -1.55 31.45 -1.55 30.9 -1.55 30.35 -1.0 30.35 -0.4 30.35 -0.4 30.9" fill="#ff6e6e" fill-rule="evenodd" stroke="none"/>
      <path d="M4.75 28.9 Q4.75 29.45 4.2 29.45 3.65 29.45 3.65 28.9 3.65 28.35 4.2 28.35 4.75 28.35 4.75 28.9" fill="#ff6e6e" fill-rule="evenodd" stroke="none"/>
    </g>
  </defs>
</svg>
