<?xml version="1.0" encoding="UTF-8" standalone="no"?>
<svg xmlns:xlink="http://www.w3.org/1999/xlink" height="99.2px" width="82.2px" xmlns="http://www.w3.org/2000/svg">
  <g transform="matrix(1.0, 0.0, 0.0, 1.0, 31.0, 46.75)">
    <use height="21.05" transform="matrix(1.0, 0.0, 0.0, 1.0, -15.5, 16.35)" width="33.45" xlink:href="#sprite0"/>
  </g>
  <defs>
    <g id="sprite0" transform="matrix(1.0, 0.0, 0.0, 1.0, 16.7, 10.5)">
      <use height="21.05" transform="matrix(1.0, 0.0, 0.0, 1.0, -16.7, -10.5)" width="33.45" xlink:href="#shape0"/>
    </g>
    <g id="shape0" transform="matrix(1.0, 0.0, 0.0, 1.0, 16.7, 10.5)">
      <path d="M9.4 -5.15 L11.8 -7.05 Q12.3 -7.45 14.0 -10.45 L15.55 -10.05 16.3 -8.9 Q16.55 -8.3 16.15 -7.5 L15.9 -4.8 Q14.95 -3.9 13.05 -3.65 L10.15 -1.05 6.95 1.25 3.6 3.35 -0.05 5.0 -3.4 6.3 Q-6.2 7.7 -7.35 8.15 L-10.7 9.25 -12.5 9.95 -14.15 10.4 Q-14.4 9.4 -14.7 9.5 L-14.6 9.4 -16.0 8.0 -16.3 7.2 -16.7 6.2 -16.5 5.95 -14.95 5.7 -13.05 5.4 -9.05 4.6 -4.65 3.1 -2.75 2.35 Q-1.35 1.5 -0.85 1.3 1.05 0.4 2.9 -0.55 L9.4 -5.15" fill="#1c0903" fill-rule="evenodd" stroke="none"/>
      <path d="M15.05 -6.15 Q2.85 6.05 -14.75 8.9 L-15.6 6.2 Q3.3 3.9 13.7 -8.8 L14.35 -10.1 Q15.25 -10.4 15.65 -9.45 15.9 -8.7 15.75 -6.2 L15.05 -6.15" fill="#d89b64" fill-rule="evenodd" stroke="none"/>
      <path d="M8.6 -6.2 L8.8 -6.25 9.35 -6.1 10.35 -5.35 11.0 -4.5 11.2 -4.1 11.4 -3.3 11.45 -2.95 11.6 -2.45 11.6 -2.0 11.65 -1.8 11.65 -1.6 11.7 -1.2 11.6 -0.85 11.45 -0.75 11.3 -0.75 10.8 -0.95 10.25 -1.3 9.35 -2.25 8.7 -3.1 8.45 -4.0 8.3 -4.35 8.35 -4.55 8.3 -4.75 8.35 -4.85 8.3 -4.95 8.35 -5.05 8.3 -5.2 8.45 -6.0 8.45 -6.1 8.5 -6.15 8.6 -6.2" fill="#1c0903" fill-rule="evenodd" stroke="none"/>
      <path d="M10.0 -2.1 L9.15 -3.45 9.5 -3.6 10.45 -4.2 10.6 -4.25 10.9 -3.5 11.1 -2.55 10.85 -1.65 Q10.55 -1.4 10.0 -2.1" fill="#f7d9c1" fill-rule="evenodd" stroke="none"/>
      <path d="M10.7 -4.25 Q10.85 -4.1 10.6 -4.0 L9.65 -3.45 9.2 -3.25 9.15 -3.4 9.05 -3.5 9.75 -3.95 10.45 -4.3 10.7 -4.25" fill="#3a1b02" fill-rule="evenodd" stroke="none"/>
      <path d="M8.75 -5.05 L8.7 -5.05 8.7 -5.1 8.75 -5.55 Q8.95 -5.85 9.8 -5.15 L10.6 -4.25 10.45 -4.2 9.5 -3.6 9.15 -3.45 8.85 -4.15 Q8.65 -4.95 8.75 -5.05" fill="#f47811" fill-rule="evenodd" stroke="none"/>
      <path d="M8.95 -4.85 L9.0 -4.75 9.45 -4.15 9.65 -3.9 9.5 -3.8 9.25 -3.7 9.25 -3.85 9.2 -4.05 9.05 -4.4 8.95 -4.75 8.95 -4.85" fill="#ffbc57" fill-rule="evenodd" stroke="none"/>
      <path d="M9.6 -5.0 L9.9 -4.8 10.15 -4.55 10.4 -4.35 10.25 -4.25 10.05 -4.15 9.55 -4.65 9.4 -4.75 9.15 -5.1 9.2 -5.2 9.6 -5.0" fill="#ffbc57" fill-rule="evenodd" stroke="none"/>
      <path d="M11.45 -8.2 L11.95 -8.0 12.95 -7.3 13.6 -6.45 13.8 -6.0 13.95 -5.65 14.2 -4.4 14.2 -4.1 14.25 -3.9 14.25 -3.7 14.3 -3.55 14.3 -3.1 14.25 -2.8 14.1 -2.65 13.4 -2.9 12.4 -3.65 11.95 -4.15 11.3 -5.05 11.05 -5.9 10.95 -6.3 10.95 -7.4 11.05 -7.95 11.1 -8.05 11.2 -8.15 11.45 -8.2" fill="#1c0903" fill-rule="evenodd" stroke="none"/>
      <path d="M12.1 -5.5 L13.2 -6.2 13.55 -5.45 13.7 -4.5 Q13.8 -3.9 13.5 -3.6 13.1 -3.25 12.65 -4.05 L12.25 -4.6 11.8 -5.4 12.1 -5.5" fill="#f7d9c1" fill-rule="evenodd" stroke="none"/>
      <path d="M13.1 -6.25 L13.35 -6.2 13.2 -5.95 12.8 -5.7 12.25 -5.4 11.8 -5.2 11.8 -5.3 11.7 -5.45 11.8 -5.5 12.35 -5.9 13.1 -6.25" fill="#3a1b02" fill-rule="evenodd" stroke="none"/>
      <path d="M11.4 -7.0 L11.3 -7.0 11.3 -7.05 11.4 -7.5 Q11.55 -7.75 12.45 -7.1 L13.2 -6.2 12.1 -5.5 11.8 -5.4 11.45 -6.1 Q11.25 -6.85 11.4 -7.0" fill="#f47811" fill-rule="evenodd" stroke="none"/>
      <path d="M11.6 -6.75 L11.65 -6.7 12.1 -6.05 12.3 -5.85 12.1 -5.75 11.9 -5.6 11.6 -6.7 11.6 -6.75" fill="#ffbc57" fill-rule="evenodd" stroke="none"/>
      <path d="M12.2 -6.95 L13.05 -6.3 12.9 -6.2 12.7 -6.1 11.95 -6.8 11.8 -7.05 11.8 -7.15 12.2 -6.95" fill="#ffbc57" fill-rule="evenodd" stroke="none"/>
      <path d="M15.4 -9.6 L16.05 -8.75 16.4 -8.0 16.45 -7.55 16.65 -6.7 16.65 -6.45 16.7 -6.25 16.7 -5.85 16.75 -5.45 16.65 -5.1 16.55 -5.0 16.4 -5.0 15.85 -5.2 15.3 -5.55 14.4 -6.5 13.75 -7.35 13.5 -8.25 13.4 -8.6 13.4 -9.3 13.35 -9.45 13.5 -10.25 13.55 -10.35 13.5 -10.35 13.55 -10.4 13.65 -10.45 13.85 -10.5 14.4 -10.35 15.4 -9.6" fill="#1c0903" fill-rule="evenodd" stroke="none"/>
      <path d="M15.5 -8.45 L15.65 -8.5 15.95 -7.75 16.15 -6.8 Q16.25 -6.2 15.95 -5.9 15.6 -5.65 15.05 -6.35 L14.2 -7.7 14.55 -7.85 15.5 -8.45" fill="#f7d9c1" fill-rule="evenodd" stroke="none"/>
      <path d="M15.8 -8.5 L15.65 -8.25 14.7 -7.7 14.25 -7.5 14.25 -7.65 14.1 -7.75 14.8 -8.2 15.5 -8.55 15.8 -8.5" fill="#3a1b02" fill-rule="evenodd" stroke="none"/>
      <path d="M15.65 -8.5 L15.5 -8.45 14.55 -7.85 14.2 -7.7 13.9 -8.4 Q13.7 -9.2 13.8 -9.3 L13.75 -9.3 13.75 -9.35 13.8 -9.8 Q14.0 -10.05 14.9 -9.4 L15.65 -8.5" fill="#f47811" fill-rule="evenodd" stroke="none"/>
      <path d="M14.75 -8.15 L14.35 -7.95 14.05 -9.0 14.5 -8.4 14.75 -8.15" fill="#ffbc57" fill-rule="evenodd" stroke="none"/>
      <path d="M15.5 -8.6 L15.35 -8.5 15.1 -8.4 14.35 -9.15 14.2 -9.35 14.25 -9.45 14.65 -9.25 14.95 -9.05 15.2 -8.8 15.5 -8.6" fill="#ffbc57" fill-rule="evenodd" stroke="none"/>
      <path d="M5.9 -3.85 L6.0 -3.95 6.25 -4.0 6.75 -3.85 7.8 -3.1 8.45 -2.25 8.65 -1.85 9.05 0.05 9.05 0.45 9.1 0.65 9.1 1.05 9.05 1.4 8.9 1.5 8.75 1.5 8.2 1.3 7.7 0.95 7.2 0.5 6.8 0.0 6.15 -0.85 5.75 -2.1 5.75 -3.2 5.85 -3.5 5.85 -3.75 5.9 -3.85" fill="#1c0903" fill-rule="evenodd" stroke="none"/>
      <path d="M7.9 -1.95 L8.0 -2.0 8.35 -1.25 8.55 -0.3 8.3 0.6 Q8.0 0.85 7.45 0.15 L6.6 -1.2 7.9 -1.95" fill="#f7d9c1" fill-rule="evenodd" stroke="none"/>
      <path d="M7.1 -1.2 L6.65 -1.0 6.6 -1.15 6.5 -1.25 6.6 -1.35 7.2 -1.7 7.9 -2.05 8.15 -2.0 Q8.3 -1.85 8.05 -1.75 L7.1 -1.2" fill="#3a1b02" fill-rule="evenodd" stroke="none"/>
      <path d="M6.3 -1.9 Q6.1 -2.7 6.2 -2.8 L6.1 -2.8 6.1 -2.85 6.2 -3.3 Q6.4 -3.6 7.25 -2.9 L8.0 -2.0 7.9 -1.95 6.6 -1.2 6.3 -1.9" fill="#f47811" fill-rule="evenodd" stroke="none"/>
      <path d="M6.4 -2.55 L6.45 -2.5 6.9 -1.9 7.1 -1.65 6.7 -1.45 6.65 -1.6 6.65 -1.8 6.5 -2.15 6.4 -2.5 6.4 -2.55" fill="#ffbc57" fill-rule="evenodd" stroke="none"/>
      <path d="M6.6 -2.85 L6.65 -2.95 6.8 -2.85 7.0 -2.75 7.85 -2.1 7.7 -2.0 7.5 -1.9 6.85 -2.5 6.6 -2.85" fill="#ffbc57" fill-rule="evenodd" stroke="none"/>
      <path d="M3.05 -2.0 L3.0 -2.0 3.05 -2.05 3.15 -2.1 3.35 -2.1 3.9 -1.95 4.9 -1.25 5.55 -0.4 5.9 0.4 6.15 1.65 6.15 1.95 6.2 2.15 6.2 2.5 6.25 2.95 6.15 3.3 6.05 3.4 5.9 3.4 4.8 2.85 3.9 1.9 3.25 1.0 3.0 0.15 2.9 -0.25 2.9 -0.95 2.85 -1.05 3.0 -1.9 3.05 -2.0" fill="#1c0903" fill-rule="evenodd" stroke="none"/>
      <path d="M5.45 0.6 L5.65 1.6 Q5.75 2.15 5.45 2.45 5.15 2.75 4.55 2.0 L3.85 0.95 3.7 0.65 4.05 0.55 5.15 -0.15 5.45 0.6" fill="#f7d9c1" fill-rule="evenodd" stroke="none"/>
      <path d="M5.0 -0.2 L5.3 -0.1 5.15 0.1 4.2 0.7 3.75 0.9 3.75 0.75 3.6 0.65 5.0 -0.2" fill="#3a1b02" fill-rule="evenodd" stroke="none"/>
      <path d="M3.25 -0.85 L3.3 -0.9 3.3 -0.95 3.25 -0.95 3.25 -1.0 3.3 -1.4 Q3.55 -1.65 4.4 -1.05 L5.15 -0.15 4.05 0.55 3.7 0.65 3.4 0.0 3.25 -0.85" fill="#f47811" fill-rule="evenodd" stroke="none"/>
      <path d="M3.55 -0.65 L3.75 -0.3 4.0 0.0 4.25 0.2 4.05 0.3 3.85 0.45 3.55 -0.65" fill="#ffbc57" fill-rule="evenodd" stroke="none"/>
      <path d="M5.0 -0.2 L4.85 -0.15 4.6 0.0 4.0 -0.65 3.85 -0.75 3.7 -1.0 3.75 -1.05 3.95 -1.0 4.15 -0.9 5.0 -0.2" fill="#ffbc57" fill-rule="evenodd" stroke="none"/>
      <path d="M0.0 -0.15 L0.05 -0.25 0.0 -0.25 0.05 -0.3 0.15 -0.35 0.35 -0.35 0.9 -0.2 1.9 0.5 2.55 1.35 2.9 2.15 2.95 2.55 3.15 3.4 3.15 3.7 3.2 3.9 3.2 4.25 3.25 4.7 3.15 5.05 3.05 5.15 2.9 5.15 1.8 4.6 0.9 3.65 0.25 2.75 0.0 1.9 -0.1 1.5 -0.1 0.8 -0.15 0.7 0.0 -0.15" fill="#1c0903" fill-rule="evenodd" stroke="none"/>
      <path d="M2.45 4.2 Q2.15 4.5 1.55 3.75 L0.85 2.7 0.7 2.4 1.05 2.3 2.15 1.6 2.45 2.35 2.65 3.35 Q2.75 3.9 2.45 4.2" fill="#f7d9c1" fill-rule="evenodd" stroke="none"/>
      <path d="M2.3 1.65 L2.15 1.85 1.2 2.45 0.75 2.65 0.75 2.5 0.6 2.4 2.0 1.55 2.3 1.65" fill="#3a1b02" fill-rule="evenodd" stroke="none"/>
      <path d="M0.25 0.75 L0.3 0.35 Q0.55 0.1 1.4 0.7 L2.15 1.6 1.05 2.3 0.7 2.4 0.4 1.75 0.25 0.9 0.3 0.85 0.3 0.8 0.25 0.8 0.25 0.75" fill="#f47811" fill-rule="evenodd" stroke="none"/>
      <path d="M0.75 1.45 L1.0 1.75 1.25 1.95 1.05 2.05 0.85 2.2 0.55 1.1 0.75 1.45" fill="#ffbc57" fill-rule="evenodd" stroke="none"/>
      <path d="M0.85 1.0 L0.7 0.75 0.75 0.7 0.95 0.75 1.15 0.85 2.0 1.55 1.85 1.6 1.6 1.75 1.0 1.1 0.85 1.0" fill="#ffbc57" fill-rule="evenodd" stroke="none"/>
      <path d="M-2.4 1.05 L-1.4 1.75 -0.75 2.6 -0.55 3.05 -0.35 3.8 -0.3 4.2 -0.15 4.65 -0.15 5.15 -0.1 5.35 -0.1 5.5 -0.05 5.95 -0.15 6.3 -0.3 6.4 -0.45 6.4 -1.5 5.85 -2.4 4.9 -3.05 4.0 -3.3 3.15 -3.45 2.75 -3.4 2.55 -3.45 2.4 -3.4 2.25 -3.45 2.15 -3.4 2.05 -3.45 1.95 -3.3 1.1 -3.3 1.0 -3.25 0.95 -3.15 0.9 -2.95 0.9 Q-2.6 0.9 -2.4 1.05" fill="#1c0903" fill-rule="evenodd" stroke="none"/>
      <path d="M-2.25 3.55 L-1.15 2.85 -0.85 3.6 -0.65 4.6 Q-0.65 5.25 -0.9 5.45 -1.15 5.7 -1.75 5.0 L-2.45 3.95 -2.6 3.65 -2.25 3.55" fill="#f7d9c1" fill-rule="evenodd" stroke="none"/>
      <path d="M-2.7 3.65 L-1.3 2.8 -1.05 2.9 Q-0.9 3.0 -1.15 3.1 L-2.1 3.7 -2.55 3.9 -2.6 3.75 -2.7 3.65" fill="#3a1b02" fill-rule="evenodd" stroke="none"/>
      <path d="M-1.95 1.95 L-1.15 2.85 -2.25 3.55 -2.6 3.65 -2.9 3.0 -3.0 2.05 -3.05 2.05 -3.05 2.0 -3.0 1.6 Q-2.75 1.25 -1.95 1.95" fill="#f47811" fill-rule="evenodd" stroke="none"/>
      <path d="M-2.8 2.25 L-2.75 2.35 -2.55 2.7 -2.1 3.2 -2.5 3.45 -2.5 3.25 -2.7 2.75 -2.8 2.35 -2.8 2.25" fill="#ffbc57" fill-rule="evenodd" stroke="none"/>
      <path d="M-1.6 2.55 L-1.35 2.8 -1.5 2.85 -1.7 3.0 -2.2 2.45 -2.35 2.35 -2.45 2.25 -2.6 2.0 -2.55 1.95 -2.35 2.0 -2.15 2.1 -1.6 2.55" fill="#ffbc57" fill-rule="evenodd" stroke="none"/>
      <path d="M-3.7 4.2 L-3.45 5.0 -3.4 6.3 -3.4 6.6 -3.45 6.8 -3.45 7.2 -3.5 7.6 -3.6 7.9 -3.75 8.0 -3.9 8.0 -4.4 7.7 -4.85 7.3 -5.65 6.2 -6.15 5.25 -6.35 4.0 -6.3 3.8 -6.3 3.6 -6.25 3.45 -6.25 3.15 -6.2 2.9 -6.0 2.35 -5.95 2.25 -5.9 2.2 -5.85 2.2 -5.6 2.2 -5.1 2.4 -4.2 3.3 -3.7 4.2" fill="#1c0903" fill-rule="evenodd" stroke="none"/>
      <path d="M-4.3 4.45 L-4.15 4.4 -3.9 5.15 -3.85 6.15 Q-3.85 6.8 -4.2 7.0 -4.55 7.25 -5.0 6.45 L-5.65 5.0 -5.3 4.9 -4.3 4.45" fill="#f7d9c1" fill-rule="evenodd" stroke="none"/>
      <path d="M-4.25 4.35 L-4.0 4.45 Q-3.85 4.6 -4.15 4.65 L-4.6 4.85 -5.65 5.2 -5.65 5.05 -5.75 4.95 -5.6 4.85 -5.45 4.8 -5.0 4.6 -4.25 4.35" fill="#3a1b02" fill-rule="evenodd" stroke="none"/>
      <path d="M-4.15 4.4 L-4.3 4.45 -5.3 4.9 -5.65 5.0 -5.85 4.25 Q-6.05 3.55 -5.8 3.35 L-5.9 3.35 -5.9 3.3 -5.75 2.85 Q-5.5 2.65 -4.75 3.4 -4.3 3.75 -4.15 4.4" fill="#f47811" fill-rule="evenodd" stroke="none"/>
      <path d="M-5.65 3.7 L-5.65 3.55 -5.6 3.7 -5.25 4.35 -5.05 4.6 -5.5 4.8 -5.55 4.6 -5.55 4.45 -5.65 3.7" fill="#ffbc57" fill-rule="evenodd" stroke="none"/>
      <path d="M-4.25 4.3 L-4.45 4.35 -4.65 4.45 -5.1 3.85 -5.2 3.75 -5.3 3.6 -5.4 3.35 -5.35 3.25 -5.2 3.4 -5.0 3.5 -4.25 4.3" fill="#ffbc57" fill-rule="evenodd" stroke="none"/>
      <path d="M-8.75 3.1 L-8.55 3.1 -8.05 3.4 -7.25 4.35 Q-6.85 4.95 -6.8 5.3 L-6.65 6.15 -6.65 6.55 -6.7 6.95 -6.7 7.45 -6.75 7.7 -6.75 7.9 -6.8 8.1 -6.8 8.3 -6.9 8.7 Q-6.9 8.95 -7.05 9.0 L-7.2 9.1 -7.35 9.05 -8.25 8.3 -8.9 7.15 -9.35 6.15 -9.4 5.25 -9.45 4.85 -9.3 4.35 -9.3 4.25 -9.25 4.15 -9.25 4.05 -9.2 3.8 -9.05 3.55 -8.95 3.25 -8.85 3.15 -8.75 3.1" fill="#1c0903" fill-rule="evenodd" stroke="none"/>
      <path d="M-7.55 8.05 Q-7.95 8.25 -8.3 7.45 L-8.85 5.95 -7.25 5.45 -7.1 6.25 -7.15 7.25 Q-7.3 7.9 -7.55 8.05" fill="#f7d9c1" fill-rule="evenodd" stroke="none"/>
      <path d="M-8.85 6.0 L-8.9 5.85 -8.8 5.8 -8.15 5.6 -7.35 5.4 -7.15 5.5 -7.3 5.7 -8.35 6.05 -8.85 6.15 -8.85 6.0" fill="#3a1b02" fill-rule="evenodd" stroke="none"/>
      <path d="M-8.75 3.8 Q-8.5 3.6 -7.8 4.4 L-7.25 5.45 -8.85 5.95 -9.0 5.2 -8.85 4.25 -8.9 4.25 -8.9 4.2 -8.75 3.8" fill="#f47811" fill-rule="evenodd" stroke="none"/>
      <path d="M-8.7 5.0 L-8.7 4.6 -8.4 5.35 -8.2 5.6 -8.65 5.7 -8.65 5.35 -8.7 5.0" fill="#ffbc57" fill-rule="evenodd" stroke="none"/>
      <path d="M-8.4 4.25 L-8.05 4.5 -7.8 4.8 -7.6 5.05 -7.4 5.35 -7.55 5.4 -7.8 5.45 -8.3 4.7 -8.45 4.3 -8.4 4.25" fill="#ffbc57" fill-rule="evenodd" stroke="none"/>
      <path d="M-10.05 6.7 L-10.05 7.5 -10.15 8.4 -10.25 8.85 -10.25 9.05 -10.4 9.65 -10.55 9.95 -10.7 10.0 -10.85 9.95 -11.3 9.6 -11.75 9.15 -12.35 8.0 -12.75 6.95 -12.75 5.65 -12.6 5.15 -12.6 5.1 -12.55 5.0 -12.55 4.85 -12.2 4.1 -12.1 4.0 -12.15 4.0 -12.1 3.95 -12.0 3.95 -11.75 4.0 -11.3 4.3 -10.55 5.25 Q-10.2 5.75 -10.15 6.25 L-10.05 6.7" fill="#1c0903" fill-rule="evenodd" stroke="none"/>
      <path d="M-10.75 6.4 L-10.6 6.4 -10.5 7.2 -10.6 8.15 Q-10.6 8.8 -11.05 8.95 -11.4 9.15 -11.75 8.3 L-12.2 6.75 -11.85 6.75 -10.75 6.4" fill="#f7d9c1" fill-rule="evenodd" stroke="none"/>
      <path d="M-10.7 6.3 L-10.5 6.45 Q-10.35 6.6 -10.65 6.6 L-11.75 6.9 -12.15 6.95 -12.2 6.85 -12.3 6.7 -11.5 6.45 -10.7 6.3" fill="#3a1b02" fill-rule="evenodd" stroke="none"/>
      <path d="M-12.0 4.65 Q-11.8 4.45 -11.1 5.3 L-10.6 6.4 -10.75 6.4 -11.85 6.75 -12.2 6.75 -12.3 6.0 -12.15 5.1 -12.2 5.1 -12.2 5.05 -12.0 4.65" fill="#f47811" fill-rule="evenodd" stroke="none"/>
      <path d="M-12.0 5.45 L-11.85 5.8 -11.7 6.2 -11.55 6.45 -12.0 6.55 -12.0 5.45" fill="#ffbc57" fill-rule="evenodd" stroke="none"/>
      <path d="M-11.6 5.55 L-11.65 5.45 -11.75 5.15 -11.7 5.1 -11.55 5.25 -11.35 5.4 -11.15 5.7 -10.95 5.95 -10.75 6.25 -10.9 6.3 -11.15 6.35 -11.5 5.7 -11.6 5.55" fill="#ffbc57" fill-rule="evenodd" stroke="none"/>
      <path d="M-15.15 4.4 L-15.05 4.4 -14.85 4.45 -14.4 4.75 -13.7 5.8 -13.4 6.85 -13.35 7.7 -13.4 8.1 -13.5 8.45 -13.55 8.95 -13.7 9.4 -13.9 10.2 -14.1 10.5 -14.3 10.55 -14.4 10.45 -14.85 10.1 -15.2 9.6 -15.75 8.4 -16.05 7.3 -16.0 6.45 -15.95 6.05 -15.85 5.85 -15.8 5.65 -15.75 5.55 -15.75 5.45 -15.7 5.35 -15.7 5.25 -15.4 4.8 -15.25 4.5 -15.15 4.4" fill="#1c0903" fill-rule="evenodd" stroke="none"/>
      <path d="M-15.15 8.75 L-15.5 7.2 -13.85 6.9 -13.85 7.75 -14.0 8.7 Q-14.1 9.3 -14.5 9.45 -14.95 9.65 -15.15 8.75" fill="#f7d9c1" fill-rule="evenodd" stroke="none"/>
      <path d="M-15.55 7.4 L-15.5 7.25 -15.55 7.1 -15.4 7.05 -15.25 7.05 -14.75 6.9 -13.95 6.85 -13.75 7.0 -13.95 7.15 -15.55 7.4" fill="#3a1b02" fill-rule="evenodd" stroke="none"/>
      <path d="M-15.1 5.05 Q-14.9 4.9 -14.25 5.8 L-13.85 6.9 -15.5 7.2 -15.55 6.4 -15.3 5.55 -15.35 5.5 -15.35 5.45 -15.1 5.05" fill="#f47811" fill-rule="evenodd" stroke="none"/>
      <path d="M-15.15 5.7 L-15.15 5.9 -15.1 6.25 -14.95 6.65 -14.85 6.95 -15.05 6.95 -15.3 7.0 -15.3 6.85 -15.25 6.65 -15.25 6.25 -15.2 5.9 -15.15 5.7" fill="#ffbc57" fill-rule="evenodd" stroke="none"/>
      <path d="M-14.85 5.55 L-14.55 5.85 -14.0 6.8 -14.15 6.8 -14.4 6.85 -14.7 6.2 -14.8 6.05 -14.85 5.9 -14.9 5.6 -14.85 5.55" fill="#ffbc57" fill-rule="evenodd" stroke="none"/>
    </g>
  </defs>
</svg>
