<svg xmlns:xlink="http://www.w3.org/1999/xlink" height="99.2" width="82.2" xmlns="http://www.w3.org/2000/svg"><use height="15.2" transform="translate(32.15 75.55)" width="21.9" xlink:href="#a"/><defs><use height="15.2" width="21.9" xlink:href="#b" id="a"/><g id="b" fill-rule="evenodd"><path d="M-.3-1.2q.45-.1.9.45l.8.9L2.9 2.2v.05l2.25 3.1.65.85.15.15 1.2 1.85.05 1.2V8.1l.2.3.05.1q.45 1.2.25 1.55V10l-.65 1.15.05-.05q-.65 1.2-2.15 1.55H3.4l-1.2-.25-.9.25h.05l-.95.6q-1.7 1.1-2.85.6l-.15-.1-1.8-1.4h.05l-2.45-.2-2.85-.15h-.05q-1.6-.65-1.7-2.15V9.7l.05-.1.25-1 .05-.1q-.05-.05-.25-.15l-1.15-.5-.1-.1-.75-.85v-.05l-.2-1.05-.15-.9.05-.1q.05-.65.5-1.2l.3-.4-.3-.2-.05-.05-.6-.65-.05-.05q-.45-.6-.35-1.05l.05-.2.25-.65.2-.35.35-.15h.2l3 .35.05-.05.9-.05 1.4-.2.4-.05v-.1l2.5-.25 2.25-.2 1.5-.3.65-.2h.15" transform="translate(14.15 1.2)"/><path d="M-.15-.85.3-.4 1.1.8l1.05 1.6L4.5 5.75 6.3 8.3l.25.55.3.5q.2.35-.55 1.25l-.6.65q-.3.35-.7.5H3.5l-1.25-.1q-.9.15-1.55.6l-1.85.9q-.65.05-1.15-.45-1.35-1.2-3.25-1.45h-.95l-1 .05q-1.05.15-2-.35-1.15-.7-.9-1.4.4-1.2.3-1.65l-.35-.4-.55-.35q-.8-.35-1.2-.7-1.1-.95-.55-2.3.45-.65.35-1l-.55-1q-.5-.5-.4-.9.1-.6.55-.5l.05-.05.15.05.65.05L-2.3-.4l1.55-.3.6-.15" fill="#c4900e" transform="translate(14.15 1.2)"/><path d="M-10.7 1.6-.1.25 5.95 9Q2 11.9-2.65 10.75q-3.3-.75-5.55-3.3-2.15-2.55-2.5-5.85" fill="#7f0505" transform="translate(14.15 1.2)"/><path d="m4.5 6.9 1.4 2.05.6.45q.15.25-.25.75l-.5.55-.55.4-1.4.4-.9-.1-1.85.1-2.15.7-1.3-.3-1.15-.6q-1.4-.8-2.55-.85l-2.05-.15-.5-.3-.3-.35V9.1q.1-.85-.05-1.15-.2-.5-.8-.85l-1.7-.85-.3-.4q-.25-.4-.05-1.1.35-1.1.25-1.45l-.15-.4-.45-.7-.3-.35q-.15-.45.2-.65l.7-.05 1.7.35 1.8-.25q2.15 4.7 7.15 5.9L4.5 6.9" fill="#f90606" transform="translate(14.15 1.2)"/><path d="M1.25 9.15q0 1.2-1.2 1.2t-1.2-1.2Q-1.15 8 .05 8t1.2 1.15m3.3-.35q0 1.2-1.2 1.2t-1.2-1.2q0-1.15 1.2-1.15t1.2 1.15M-6.3 5.5q0 1.15-1.15 1.15-1.2 0-1.2-1.15 0-1.2 1.2-1.2 1.15 0 1.15 1.2m-1.5-2.7Q-7.8 4-9 4t-1.2-1.2q0-1.15 1.2-1.15t1.2 1.15m2.05 5.1q0-1.5 1.5-1.5t1.5 1.5q0 1.45-1.5 1.45t-1.5-1.45" transform="translate(14.15 1.2)"/><path d="m3.4 8-.05.05-.15.25-.2.3.3.4.4.2-.3.25-.55-.25-.35-.35q0-.3.15-.45.05-.2.4-.3L3.4 8m-3 1.35q.3.2-.15.5h-.6q-.6-.45-.45-.9l.2-.5.5-.2v.05l-.2.35.7.7m-5.7-1.6.15-.5.5-.45.5-.05.45.1.05.05-.2.05-.25.1-.4.4.2.45.6.35.1.25-.1.2-.65.1-.35-.15-.4-.4-.2-.5M-7.75 6.1q-.65-.35-.6-.75l.65-.65.45-.05h.1v.05q-.35.05-.5.35-.15.35.1.55l.15.4-.35.1m-1.8-4 .7-.2.45.15-.55.2-.3.5.15.4q0 .35-.35.15-.4-.15-.35-.6l.25-.6" fill="#f9dac0" transform="translate(14.15 1.2)"/><path d="m-11.75 1.5.75.2h.15q.2.2-.2.55l-.35.15-.15-.15-.2-.15q-.35-.55 0-.6m1.2 3.7.15.3.1.3q.15.4-.15.45l-.65-.35-.25-.3-.15-.25v-.6l.35-.4v.05l.6.8m2.1 3.4v.05l.45.2.4.4.35.5q.05.4-.75.15-.45-.1-.55-.4l-.05-.6.15-.3m6.25 2.45 1.65.3q.35.05-.1.3l-.75.1-.75-.25-.4-.25h.05q-.2-.2.3-.2M4.25 11l.2-.3.95-.9q.35-.35.6-.3.3.05.1.35l-.85.75-1 .4" fill="#eb6665" transform="translate(14.15 1.2)"/><path d="m-1.3 11.6-.55-.15h.05l-.05-.05q.3-.4.7.15l-.15.05m-7-2.6-.05-.05.25.35.05.2-.35-.15Q-8.55 9-8.3 9m-3.05-4.1.25.15q.35.35.2.5l-.45-.3V4.9m0-3.1v.1q0 .25-.4-.2l.4.1" fill="#f29191" transform="translate(14.15 1.2)"/><path d="M-7.3 1.75-.5.6l-.55.25-5.4 1.45-.55.05-.3-.6m5.35.25L-4.8 3.95l-.35.35-.45-.35-.35-.4V3.3l.25-.15 4.8-2.1.1-.05-1.15 1m.85 0L-.3.85-.65 2.1l-.15.45-.4.5-1.2 1.6-.5.8-.15.35-.6-.3-.3-.2-.1-.1-.05.05.2-.25 2.8-3M.15 4.25l.1.85.1.4V6l.15.45.15.2-.25.2-.7-.15h-.35l.35-3.55.1-1.25.05.25.1 1.3.2.8M1.9 3.7 3 5.4l.7 1.25h-.55l-.6.1h-.2l-.5-1.65-.25-1.05-.15-.35L.2 1.45l-.2-.4h.05l.8 1.2L1.9 3.7" fill="#eb6665" transform="translate(14.15 1.2)"/></g></defs></svg>