<svg xmlns:xlink="http://www.w3.org/1999/xlink" height="99.2" width="82.2" xmlns="http://www.w3.org/2000/svg"><use height="9.9" transform="translate(33.3 71.45)" width="9.85" xlink:href="#a"/><defs><g id="a"><path d="M12.15 29.65q0 2-1.45 3.5-1.45 1.45-3.5 1.45-2 0-3.45-1.45-1.45-1.5-1.45-3.5 0-2.05 1.45-3.45 1.45-1.5 3.45-1.5 2.05 0 3.5 1.5 1.45 1.4 1.45 3.45" fill-rule="evenodd" transform="translate(-2.3 -24.7)"/><path d="M11.35 29.65q0 1.7-1.2 2.95-1.25 1.15-2.95 1.15-1.7 0-2.85-1.15-1.2-1.25-1.2-2.95 0-1.7 1.2-2.9 1.15-1.2 2.85-1.15 1.7-.05 2.95 1.15 1.2 1.2 1.2 2.9" fill="#fff" fill-rule="evenodd" transform="translate(-2.3 -24.7)"/><path d="M11.3 28.9v.2l.05.3v.25l-.05.45v.2l-.05.3-.1.3h-2.9v2.75l-.35.05-.1.05H6.6l-.1-.05-.35-.05V30.9h-2.8l-.1-.3-.05-.3v-.2l-.05-.45v-.25l.05-.3v-.2h2.95v-3.15l.35-.1h.1l.6-.05h.6l.1.05.35.05v3.2h3.05" fill="#fff" fill-rule="evenodd" transform="translate(-2.3 -24.7)"/><path d="M11.15 30.9q-.3.9-1 1.7-.85.75-1.9 1.05V30.9h2.9m-5 2.75-1.8-1.05q-.75-.8-1-1.7h2.8v2.75M3.2 28.9l.1-.4q.25-1 1.05-1.75.75-.8 1.8-1v3.15H3.2m5.05-3.2q1.05.25 1.9 1.05.75.75 1.05 1.75l.1.4H8.25v-3.2" fill="#006" fill-rule="evenodd" transform="translate(-2.3 -24.7)"/><path d="m5.1 27.85-.5.2q-.3 0-.5-.2l-.2-.5.2-.5q.2-.2.5-.2l.5.2.2.5-.2.5m5.1 0-.5.2q-.3 0-.5-.2l-.2-.5.2-.5q.2-.2.5-.2l.5.2.2.5-.2.5m0 4.8-.5.2q-.3 0-.5-.2l-.2-.5.2-.5q.2-.2.5-.2l.5.2.2.5-.2.5m-5.1.05-.5.2q-.3 0-.5-.2l-.2-.5.2-.5q.2-.2.5-.2l.5.2.2.5-.2.5" fill="#fff" fill-rule="evenodd" transform="translate(-2.3 -24.7)"/><path d="M4.5 27.15q1.3-.9 2.7-.9 1.8 0 2.8 1.1" fill="none" stroke="#fff" stroke-linecap="round" stroke-linejoin="round" stroke-opacity=".6" transform="translate(-2.3 -24.7)"/><path d="M10 32.4q-1.3.9-2.7.9-1.8 0-2.8-1.1" fill="none" stroke="#000" stroke-linecap="round" stroke-linejoin="round" stroke-opacity=".302" transform="translate(-2.3 -24.7)"/></g></defs></svg>