<?xml version="1.0" encoding="UTF-8" standalone="no"?>
<svg xmlns:xlink="http://www.w3.org/1999/xlink" height="99.2px" width="82.2px" xmlns="http://www.w3.org/2000/svg">
  <g transform="matrix(1.0, 0.0, 0.0, 1.0, 31.0, 46.75)">
    <use height="9.9" transform="matrix(1.0, 0.0, 0.0, 1.0, 2.3, 24.7)" width="9.85" xlink:href="#shape0"/>
  </g>
  <defs>
    <g id="shape0" transform="matrix(1.0, 0.0, 0.0, 1.0, -2.3, -24.7)">
      <path d="M12.15 29.65 Q12.15 31.65 10.7 33.15 9.25 34.6 7.2 34.6 5.2 34.6 3.75 33.15 2.3 31.65 2.3 29.65 2.3 27.6 3.75 26.2 5.2 24.7 7.2 24.7 9.25 24.7 10.7 26.2 12.15 27.6 12.15 29.65" fill="#000000" fill-rule="evenodd" stroke="none"/>
      <path d="M11.35 29.65 Q11.35 31.35 10.15 32.6 8.9 33.75 7.2 33.75 5.5 33.75 4.35 32.6 3.15 31.35 3.15 29.65 3.15 27.95 4.35 26.75 5.5 25.55 7.2 25.6 8.9 25.55 10.15 26.75 11.35 27.95 11.35 29.65" fill="#ffffff" fill-rule="evenodd" stroke="none"/>
      <path d="M11.3 28.9 L11.3 29.1 11.35 29.4 11.35 29.65 11.3 30.1 11.3 30.3 11.25 30.6 11.15 30.9 8.25 30.9 8.25 33.65 7.9 33.7 7.8 33.75 7.2 33.75 6.6 33.75 6.5 33.7 6.15 33.65 6.15 30.9 3.35 30.9 3.25 30.6 3.2 30.3 3.2 30.1 3.15 29.65 3.15 29.4 3.2 29.1 3.2 28.9 6.15 28.9 6.15 25.75 6.5 25.65 6.6 25.65 7.2 25.6 7.8 25.6 7.9 25.65 8.25 25.7 8.25 28.9 11.3 28.9" fill="#ffffff" fill-rule="evenodd" stroke="none"/>
      <path d="M11.15 30.9 Q10.85 31.8 10.15 32.6 9.3 33.35 8.25 33.65 L8.25 30.9 11.15 30.9 M6.15 33.65 L4.35 32.6 Q3.6 31.8 3.35 30.9 L6.15 30.9 6.15 33.65 M3.2 28.9 L3.3 28.5 Q3.55 27.5 4.35 26.75 5.1 25.95 6.15 25.75 L6.15 28.9 3.2 28.9 M8.25 25.7 Q9.3 25.95 10.15 26.75 10.9 27.5 11.2 28.5 L11.3 28.9 8.25 28.9 8.25 25.7" fill="#000066" fill-rule="evenodd" stroke="none"/>
      <path d="M5.1 27.85 L4.6 28.05 Q4.3 28.05 4.1 27.85 L3.9 27.35 4.1 26.85 Q4.3 26.65 4.6 26.65 L5.1 26.85 5.3 27.35 5.1 27.85" fill="#ffffff" fill-rule="evenodd" stroke="none"/>
      <path d="M10.2 27.85 L9.7 28.05 Q9.4 28.05 9.2 27.85 L9.0 27.35 9.2 26.85 Q9.4 26.65 9.7 26.65 L10.2 26.85 10.4 27.35 10.2 27.85" fill="#ffffff" fill-rule="evenodd" stroke="none"/>
      <path d="M10.2 32.65 L9.7 32.85 Q9.4 32.85 9.2 32.65 L9.0 32.15 9.2 31.65 Q9.4 31.45 9.7 31.45 L10.2 31.65 10.4 32.15 10.2 32.65" fill="#ffffff" fill-rule="evenodd" stroke="none"/>
      <path d="M5.1 32.7 L4.6 32.9 Q4.3 32.9 4.1 32.7 L3.9 32.2 4.1 31.7 Q4.3 31.5 4.6 31.5 L5.1 31.7 5.3 32.2 5.1 32.7" fill="#ffffff" fill-rule="evenodd" stroke="none"/>
      <path d="M4.5 27.15 Q5.8 26.25 7.2 26.25 9.0 26.25 10.0 27.35" fill="none" stroke="#ffffff" stroke-linecap="round" stroke-linejoin="round" stroke-opacity="0.6" stroke-width="1.0"/>
      <path d="M10.0 32.4 Q8.7 33.3 7.3 33.3 5.5 33.3 4.5 32.2" fill="none" stroke="#000000" stroke-linecap="round" stroke-linejoin="round" stroke-opacity="0.3019608" stroke-width="1.0"/>
    </g>
  </defs>
</svg>
