<?xml version="1.0" encoding="UTF-8" standalone="no"?>
<svg xmlns:xlink="http://www.w3.org/1999/xlink" height="99.2px" width="82.2px" xmlns="http://www.w3.org/2000/svg">
  <g transform="matrix(1.0, 0.0, 0.0, 1.0, 31.0, 46.75)">
    <use height="26.2" transform="matrix(1.0, 0.0, 0.0, 1.0, -28.85, 24.2)" width="25.7" xlink:href="#sprite0"/>
  </g>
  <defs>
    <g id="sprite0" transform="matrix(1.0, 0.0, 0.0, 1.0, 12.85, 13.1)">
      <use height="26.2" transform="matrix(1.0, 0.0, 0.0, 1.0, -12.85, -13.1)" width="25.7" xlink:href="#shape0"/>
    </g>
    <g id="shape0" transform="matrix(1.0, 0.0, 0.0, 1.0, 12.85, 13.1)">
      <path d="M9.6 -5.65 Q7.2 -3.5 6.25 -3.55 L6.05 -3.65 1.75 0.45 Q4.85 3.55 7.3 3.4 L8.05 3.4 8.05 4.15 Q8.0 9.4 4.95 11.5 1.85 14.05 -3.25 12.5 L-4.2 12.2 -3.6 11.4 Q-3.2 10.8 -3.45 9.6 -3.6 8.55 -4.75 6.8 -4.65 8.6 -6.75 9.0 -7.8 9.15 -8.55 8.2 -9.5 7.3 -9.3 6.25 -8.9 4.1 -7.0 4.3 -8.65 3.05 -9.85 2.75 L-11.35 2.9 -12.25 3.55 -12.45 2.5 Q-13.7 -2.75 -11.15 -5.8 -8.8 -8.7 -4.0 -8.6 L-3.2 -8.55 -3.25 -7.8 -3.2 -6.45 Q-2.85 -4.55 -0.9 -2.4 L-0.65 -2.1 3.5 -6.3 3.4 -6.6 Q3.4 -7.5 5.5 -9.85 7.65 -12.25 9.05 -12.85 10.75 -13.6 11.9 -12.05 12.65 -11.45 12.8 -10.6 12.95 -9.8 12.6 -9.15 12.05 -7.75 9.6 -5.65" fill="#1a171b" fill-rule="evenodd" stroke="none"/>
      <path d="M-4.1 -7.85 Q-4.4 -5.05 -1.55 -1.9 -5.95 0.8 -7.3 2.5 -8.95 1.5 -10.3 1.65 L-11.3 1.95 Q-13.65 -8.1 -4.1 -7.85" fill="#ffffff" fill-rule="evenodd" stroke="none"/>
      <path d="M-1.55 -1.9 L-0.3 -0.5 Q-2.9 2.8 -4.95 4.35 -6.3 3.05 -7.3 2.5 -5.95 0.8 -1.55 -1.9" fill="#e3e1de" fill-rule="evenodd" stroke="none"/>
      <path d="M-2.6 11.45 Q-0.75 9.25 -4.75 4.55 L-4.95 4.35 Q-2.9 2.8 -0.3 -0.5 L0.0 -0.15 2.8 2.55 Q5.0 4.25 7.2 4.15 7.15 8.95 4.55 10.9 1.95 12.85 -2.6 11.45" fill="#e3e1de" fill-rule="evenodd" stroke="none"/>
      <path d="M-4.15 -7.85 Q-4.45 -4.65 -2.35 -1.2 -6.3 -0.15 -9.85 2.1 L-11.9 2.35 Q-13.0 -2.35 -10.85 -5.15 -8.75 -7.95 -4.15 -7.85" fill="#e3e1de" fill-rule="evenodd" stroke="none"/>
      <path d="M-7.5 -0.35 Q-5.3 -1.65 -2.35 -1.2 L-1.2 0.5 Q2.9 4.45 7.15 4.25 7.1 9.05 4.2 11.15 1.35 13.25 -3.2 11.85 -1.4 9.65 -5.4 4.95 -7.9 2.45 -9.85 2.1 -9.3 0.65 -7.5 -0.35" fill="#b1b1b3" fill-rule="evenodd" stroke="none"/>
      <path d="M-9.9 -3.8 Q-11.75 -1.25 -10.85 1.6 L-11.7 1.75 Q-12.35 -2.25 -10.7 -4.55 -8.85 -7.15 -4.65 -7.25 L-4.55 -6.15 -6.45 -6.0 Q-8.6 -5.55 -9.9 -3.8" fill="#ffffff" fill-rule="evenodd" stroke="none"/>
      <path d="M5.25 -8.1 L7.7 -5.45 -5.7 7.1 -7.5 5.1 5.25 -8.1" fill="#1a171b" fill-rule="evenodd" stroke="none"/>
      <path d="M6.9 -5.6 L-5.8 6.55 -6.95 5.25 5.3 -7.25 6.9 -5.6" fill="#e3e1de" fill-rule="evenodd" stroke="none"/>
      <path d="M3.8 -5.65 L4.35 -4.9 -6.1 5.45 -6.65 4.95 3.8 -5.65" fill="#959792" fill-rule="evenodd" stroke="none"/>
      <path d="M4.85 -4.25 L5.25 -4.0 -5.45 6.25 -5.65 5.95 4.85 -4.25" fill="#585858" fill-rule="evenodd" stroke="none"/>
      <path d="M4.35 -4.8 Q3.35 -5.8 3.35 -6.7 3.4 -7.55 5.5 -9.9 7.6 -12.3 8.85 -12.85 10.55 -13.55 11.75 -12.05 13.25 -10.75 12.5 -9.05 11.95 -7.75 9.5 -5.65 7.1 -3.55 6.25 -3.65 5.5 -3.65 4.35 -4.8" fill="#1a171b" fill-rule="evenodd" stroke="none"/>
      <path d="M11.25 -11.6 Q12.3 -10.6 11.85 -9.35 11.3 -8.1 8.95 -6.1 6.75 -4.2 6.15 -4.25 L5.5 -4.5 8.75 -7.7 Q10.8 -9.85 10.95 -11.9 L11.25 -11.6" fill="#723d28" fill-rule="evenodd" stroke="none"/>
      <path d="M10.95 -11.9 Q10.8 -9.85 8.75 -7.7 L5.5 -4.5 4.75 -5.15 4.7 -5.25 Q6.65 -9.25 9.85 -12.3 10.4 -12.35 10.95 -11.9" fill="#8d5b3f" fill-rule="evenodd" stroke="none"/>
      <path d="M9.15 -12.15 L9.85 -12.3 Q6.65 -9.25 4.7 -5.25 3.95 -5.9 3.95 -6.55 3.95 -7.2 5.9 -9.35 7.95 -11.65 9.15 -12.15" fill="#b68862" fill-rule="evenodd" stroke="none"/>
      <path d="M-6.8 8.75 Q-7.6 8.9 -8.4 7.95 -9.3 7.05 -9.15 6.2 -8.8 4.4 -7.4 4.6 L-6.0 5.55 Q-5.2 6.65 -5.15 7.0 -5.05 8.4 -6.8 8.75" fill="#1a171b" fill-rule="evenodd" stroke="none"/>
      <path d="M-8.05 7.9 Q-7.85 6.3 -6.75 5.3 L-6.25 5.8 Q-5.6 6.45 -5.6 6.85 -5.45 8.05 -7.0 8.35 -7.55 8.4 -8.05 7.9" fill="#b1b1b3" fill-rule="evenodd" stroke="none"/>
      <path d="M-7.25 5.05 L-6.75 5.3 Q-7.85 6.3 -8.05 7.9 L-8.2 7.75 Q-8.9 7.05 -8.75 6.45 -8.4 4.8 -7.25 5.05" fill="#e3e1de" fill-rule="evenodd" stroke="none"/>
      <path d="M-2.45 10.75 L-2.2 10.8 -2.4 11.65 -2.6 11.6 -2.45 10.75" fill="#ffffff" fill-rule="evenodd" stroke="none"/>
      <path d="M5.4 4.55 L6.55 4.7 Q6.35 9.1 3.65 10.9 L2.4 11.5 1.95 10.55 2.9 10.05 Q4.7 8.75 5.25 6.55 L5.4 4.55" fill="#ffffff" fill-rule="evenodd" stroke="none"/>
      <path d="M0.0 1.55 L1.75 2.75 Q-0.2 5.2 1.95 10.55 L-2.2 10.8 Q-1.9 7.7 -4.25 5.6 L0.0 1.55" fill="#7e7e7e" fill-rule="evenodd" stroke="none"/>
      <path d="M2.4 11.5 L2.65 11.95 -2.55 12.1 -2.4 11.65 2.4 11.5" fill="#585858" fill-rule="evenodd" stroke="none"/>
      <path d="M1.95 10.55 L2.4 11.5 -2.4 11.65 -2.2 10.8 1.95 10.55" fill="#b1b1b3" fill-rule="evenodd" stroke="none"/>
    </g>
  </defs>
</svg>
