<svg xmlns:xlink="http://www.w3.org/1999/xlink" height="99.2" width="82.2" xmlns="http://www.w3.org/2000/svg"><use height="23.55" transform="translate(13.45 67.9)" width="33.95" xlink:href="#a"/><defs><g id="a" fill-rule="evenodd"><path d="m15.6 21.55.1-.05.6.05.1.05v.1l-.05.95-.55 1.65v.05q-.9 1.85-2.35 3.4-4.8 4.95-14.1 4.95-9.35 0-14-5.15-1.55-1.6-2.35-3.6l-.55-1.7v-.9l.05-.1.1-.05.55-.05.1.05.05.05v.05l.5 1.4q.7 1.65 2.05 3.1 4.3 4.45 13.3 4.45 9.5 0 13.85-4.3 1.35-1.35 2.05-2.95l.45-1.35.05-.05.05-.05" fill="#aa2f11" transform="translate(17.55 -21.15)"/><path d="M13.2 27.45q-4.65 4.8-13.85 4.8t-13.75-5q-1.45-1.6-2.2-3.5l-.5-1.55v-.85l.45 1.45q.7 1.75 2.05 3.2 4.4 4.65 13.75 4.65 9.8 0 14.3-4.45 1.4-1.45 2.1-3.1l.4-1.4v.9l-.5 1.5q-.85 1.8-2.25 3.35" fill="#f99952" transform="translate(17.55 -21.15)"/><path d="M9.95 29.9Q5.7 32.25-.65 32.25l-.2-1.6q6.5 0 10.65-1.95 1 .35.15 1.2" fill="#f9cd52" transform="translate(17.55 -21.15)"/><path d="M13.15 27.15Q8.5 31.95-.7 31.95t-13.75-5q-1.35-1.5-2.1-3.25.7 1.5 1.95 2.8 4.4 4.55 13.7 4.55 9.85 0 14.3-4.35l1.05-1.2-1.3 1.65" fill="#f9ff99" transform="translate(17.55 -21.15)"/><path d="m-2.95 31.1-.35.45q-3.15-.3-5.6-1.6 2.1.8 5.95 1.15m3.25.5-.5-.45L8.2 30q-2.15.8-5.25 1.3l-2.65.3" fill="#fbfae4" transform="translate(17.55 -21.15)"/><path d="M4.4 33.7q1.9 1.9 1.9 4.55T4.4 42.8q-1.9 1.9-4.55 1.9t-4.55-1.9q-1.9-1.9-1.9-4.55t1.9-4.55q1.9-1.85 4.55-1.85T4.4 33.7" fill="#a32d10" transform="translate(17.55 -21.15)"/><path d="M5.6 38.15q0 2.45-1.75 4.2Q2.15 44.1-.3 44.1t-4.2-1.75q-1.75-1.75-1.75-4.2T-4.5 34q1.75-1.75 4.2-1.75T3.85 34q1.75 1.7 1.75 4.15" fill="#f9cd52" transform="translate(17.55 -21.15)"/><path d="m2.35 33.05.15.05q3.35 1.6 3.35 5.3 0 2.45-1.75 4.15Q2.4 44.3-.05 44.3q-2.3 0-3.95-1.5l-.3-2.15q0-3.15 1.95-5.35 1.95-2.25 4.7-2.25" fill="#f99952" transform="translate(17.55 -21.15)"/><path d="M5.15 38.05q0 2.2-1.55 3.8Q2 43.4-.2 43.4q-2.2 0-3.8-1.55-1.55-1.6-1.55-3.8 0-2.2 1.55-3.8 1.6-1.55 3.8-1.55 2.2 0 3.8 1.55 1.55 1.6 1.55 3.8" fill="#f9ff99" transform="translate(17.55 -21.15)"/><path d="M.25 34.95q2.95.55 2.5 3.45-.55 2.95-3.5 2.5-3-.55-2.45-3.5.55-3 3.45-2.45" fill="#ed794d" transform="translate(17.55 -21.15)"/><path d="M.6 35.25q2.9.55 2.45 3.5-.55 2.9-3.45 2.45-2.95-.55-2.5-3.5.55-2.9 3.5-2.45" fill="#ed794d" transform="translate(17.55 -21.15)"/><path d="M.25 34.9q1.05.15 1.85 1.1 0 .7-1.65 2.35-.95.95-2 1.3l-1 .15q-.9-1.1-.7-2.45.55-3 3.5-2.45" fill="#f99952" transform="translate(17.55 -21.15)"/><path d="M-.25 35.9q-1.5.65-2.4 2 .05-2.2 1.9-2.5l1.8.1-1.3.4" fill="#f9cd52" transform="translate(17.55 -21.15)"/><path d="M1.6 35.25 3 35.2q2 .9-1.25 4.2-1.5 1.55-3 2.15-1.5.55-2-.3-.3-.65.25-1.85l.05.5q.9 1.35 3.7-1.45Q3.2 36 1.9 35.35l-.3-.1m-2.5.7-1.2.6.7-.7 1.65-.3-1.15.4" fill="#f9ff99" transform="translate(17.55 -21.15)"/><path d="M2.7 35.25q1.85-.6 1.6.9-.05.6-2.2 3.15Q.6 41.25-2.25 42q-.7.2-1.4 0-.7-.25-.65-.65l1.15.4q1.7-.25 4-2.05 3.25-2.45 3-3.8-.05-.55-.75-.55l-.65.1.25-.2" fill="#ed794d" transform="translate(17.55 -21.15)"/><path d="M-4.4 34.85q-1.15 1.8-1.15 4.4-.55-3.1.95-4.9.95-1.1 2.85-1.55l1.7-.2-1.75.45q-1.9.7-2.6 1.8" fill="#fbfae4" transform="translate(17.55 -21.15)"/></g></defs></svg>