<svg xmlns:xlink="http://www.w3.org/1999/xlink" height="99.2" width="82.2" xmlns="http://www.w3.org/2000/svg"><use height="16.9" transform="translate(9.65 72.45)" width="18.6" xlink:href="#a"/><defs><g id="a" fill-rule="evenodd"><path d="M-10.75 35.7q-1.35 2-3.7 2.5t-4.35-.85q-2-1.3-2.45-3.65-.45-2.35.85-4.4 1.35-2 3.7-2.5t4.35.8q2 1.3 2.45 3.7.5 2.4-.85 4.4" fill="#0d090e" transform="translate(21.35 -25.7)"/><path d="M-19.7 29.75q1.15-1.7 3.2-2.15 2-.4 3.7.7 1.75 1.15 2.1 3.15.4 2.05-.75 3.8-1.1 1.75-3.15 2.15-2 .45-3.75-.7-1.7-1.15-2.1-3.15-.4-2.05.75-3.8" fill="#a9d2d4" transform="translate(21.35 -25.7)"/><path d="m-19 28.95.55-.25q.9.05 2.7 1.4 1.75 1.2 3.45 2.35 1.35.85 1.5 1.4-4.3 2.8-8.2-4.9" fill="#286f79" transform="translate(21.35 -25.7)"/><path d="M-10.1 32.3q-.95.9-2.4.7-1.45-.25-2.55-1.45-1.1-1.15-1.15-2.6-.1-1.5.85-2.35 2.3-2.15 4.95.7 1.1 1.2 1.2 2.65.05 1.5-.9 2.35" fill="#0d090e" transform="translate(21.35 -25.7)"/><path d="M-15 27.35q2-1.75 4 .5 1 1.05.9 2.35 0 .95-.75 1.7-1.95 1.75-4-.5-1.6-1.85-.5-3.6l.35-.45" fill="#a9d2d4" transform="translate(21.35 -25.7)"/><path d="M-11.45 30.8q-1.1 1-2.3-.35-1.25-1.35-.15-2.35 1.05-.95 2.3.4 1.2 1.25.15 2.3" fill="#0d090e" transform="translate(21.35 -25.7)"/><path d="M-13.9 33.6q.25.5 1.25.4l1.9-.2-.6 1.4q-1.15 1.75-3.2 2.2-2 .45-3.75-.7-1.7-1.15-2.1-3.15-.4-2.1.75-3.8l.65-.8.6 1.2q.45.8 1.25 1 2.4.75 3.25 2.45" fill="#429aa4" transform="translate(21.35 -25.7)"/><path d="M-17.9 35.2q-.9-.55-.9-1.8 0-1.35.4-.75.4.55 2.55 1.5 2.45 1.55 2.05 1.75-1.35.95-4.1-.7" fill="#286f79" transform="translate(21.35 -25.7)"/><path d="M-17.2 30.75q-1.05-.45-1.6-1.4l2.5-1.6q-.85.9.1 2.5l-1 .5" fill="#e1ffff" transform="translate(21.35 -25.7)"/><path d="M-20.3 33.9q-.25-2.8 1.5-4.55.55.95 1.6 1.4-2.25 1.3-3.1 3.15" fill="#b1dcde" transform="translate(21.35 -25.7)"/><path d="m-11.05 33.15-.2.65-1.15.1.05-.7 1.3-.05" fill="#e1ffff" transform="translate(21.35 -25.7)"/><path d="M-15.65 37.15q2.85-.95 3.25-3.25l1.15-.1q-1.3 3.15-4.4 3.35" fill="#a9d2d4" transform="translate(21.35 -25.7)"/><path d="M-15.7 36.85q-3.35-.2-4.1-2.1-.2-.4.1-.5.3-.15.65.55.5 1 3.35 2.05m-3.2-5.6 2.4.85 1.65 1.5q-1.9-.55-2.2-1-.75-.9-1.85-1.35" fill="#286f79" transform="translate(21.35 -25.7)"/><path d="M-13.7 33.65q-1.75-1.35-2.75-1.85l-1.9-1.1q-.55-.4-.65-1.2-.15-.85.45-.9.75-.1 1.45.5l-1.3-.2q0 1.3 1.35 1.85.95.45 3.35 2.9m3.6-4q-1.35-2.7-3.5-2.4-1.15.15-1.35 1.75-.25 1.8 2.15 2.9-1.65-.3-2.4-1.7-.75-1.35-.1-2.45.6-.95 1.45-1 3.15-.15 3.75 2.9" fill="#e1ffff" transform="translate(21.35 -25.7)"/><path d="M-10.1 30.1q-1.1 4-4.25 1.7 2.95.7 4.25-1.7" fill="#429aa4" transform="translate(21.35 -25.7)"/><path d="m-14.25 28.9.45-.85q.75-.7 2.1.35 1.55 1.2.25 2.4.25-1.3-.6-1.85l-2.2-.05" fill="#429aa4" transform="translate(21.35 -25.7)"/><path d="M-2.8 35.75q.3 2.5-1.25 4.5-1.5 2-4 2.3-2.5.3-4.5-1.25-1.95-1.6-2.25-4.1-.3-2.5 1.25-4.5t4-2.3q2.5-.3 4.5 1.25 1.95 1.6 2.25 4.1" fill="#0d090e" transform="translate(21.35 -25.7)"/><path d="M-13.95 37.1q-.25-2.15 1.05-3.9 1.35-1.7 3.45-1.95 2.15-.25 3.85 1.1 1.7 1.35 1.95 3.5t-1.05 3.9q-1.35 1.7-3.45 1.95-2.15.25-3.85-1.1-1.7-1.35-1.95-3.5" fill="#a9d2d4" transform="translate(21.35 -25.7)"/><path d="m-13.95 35.95.25-.55q.75-.55 3.1-.7l4.35-.5 2.15.1q-1.55 5.15-9.85 1.65" fill="#286f79" transform="translate(21.35 -25.7)"/><path d="M-4.55 32.6q-.2 1.35-1.45 2.15-1.3.85-3 .6-1.7-.2-2.75-1.3t-.85-2.45q.15-1.35 1.45-2.15 1.3-.85 3-.65 1.65.25 2.7 1.35 1.1 1.1.9 2.45" fill="#0d090e" transform="translate(21.35 -25.7)"/><path d="M-11.8 31.95q.35-2.65 3.5-2.3 1.5.25 2.35 1.3.65.9.5 1.85-.25 2.65-3.5 2.3-2.6-.35-2.85-2.55v-.6" fill="#a9d2d4" transform="translate(21.35 -25.7)"/><path d="M-6.7 32.35q-.2 1.5-2.05 1.25-1.9-.2-1.7-1.75.2-1.55 2.05-1.25 1.9.2 1.7 1.75" fill="#0d090e" transform="translate(21.35 -25.7)"/><path d="M-6.75 36.2q.45.2 2.7-1.95.3.75.45 1.55.25 2.15-1.05 3.9-1.35 1.7-3.5 1.95t-3.8-1.1q-1.7-1.3-1.95-3.5l-.05-1.1q2.4.8 2.95.55 2.4-1.1 4.25-.3" fill="#429aa4" transform="translate(21.35 -25.7)"/><path d="M-8.8 40.2q-1.75.3-2.15-1.65L-7.9 38q3-.45 2.85 0-.15.5-1.35 1.25-1.25.8-2.4.95" fill="#286f79" transform="translate(21.35 -25.7)"/><path d="M-11.3 36.15q-.95.35-2.25 0l.95-3q-.1 1.3 1.8 1.95l-.5 1.05" fill="#e1ffff" transform="translate(21.35 -25.7)"/><path d="M-13.55 36.15q1.3.35 2.25 0-.95 2.55-.3 4.65-2.05-2-1.95-4.65" fill="#b1dcde" transform="translate(21.35 -25.7)"/><path d="m-4.75 33.95.25.65-.85.85-.4-.6 1-.9" fill="#e1ffff" transform="translate(21.35 -25.7)"/><path d="m-5.35 35.45.85-.85q1.15 3.35-1.2 5.65 1.65-2.7.35-4.8" fill="#a9d2d4" transform="translate(21.35 -25.7)"/><path d="M-5.95 40.05q-2.8 2.05-4.7 1.1-.4-.25-.25-.5l.9.05q1.1.45 4.05-.65m-1.5-3.2q-1.9.85-2.5.7l-2.45.2 2.6-.95 2.35.05" fill="#286f79" transform="translate(21.35 -25.7)"/><path d="m-6.5 36.1-3.5.4-2.25.4q-.7.1-1.35-.5-.65-.55-.25-1l1.5-.6-1.15.75q.95.95 2.35.55h4.65m.15-5.65q-2.95-1.2-4.45.5-.8.9.1 2.3 1 1.6 3.65.85-1.45.9-3.05.25-1.5-.55-1.7-1.85-.15-1.2.45-1.75 1.55-1.45 3.4-1 .95.2 1.6.7" fill="#e1ffff" transform="translate(21.35 -25.7)"/><path d="M-6.05 30.85q1.8 3.95-2.25 4.2 2.8-1.4 2.25-4.2" fill="#429aa4" transform="translate(21.35 -25.7)"/><path d="m-10.2 32.75-.2-1.05q.15-1.05 1.9-1.1 2.05-.1 1.8 1.75-.65-1.2-1.7-1.1-1.65.25-1.8 1.5" fill="#429aa4" transform="translate(21.35 -25.7)"/></g></defs></svg>